  0
SECTION
  2
HEADER
  9
$ACADVER
  1
AC1004
  9
$EXTMIN
 10
11.1026
 20
-133.8035
  9
$EXTMAX
 10
12.1256
 20
-132.7805
  9
$LIMMIN
 10
11.1026
 20
-133.8035
  9
$LIMMAX
 10
12.1256
 20
-132.7805
  9
$INSBASE
 10
0.0
 20
0.0
  9
$VIEWCTR
 10
7.21903
 20
4.5
  9
$VIEWSIZE
 40
9.0
  9
$SNAPMODE
 70
     0
  9
$SNAPUNIT
 10
1.0
 20
1.0
  9
$SNAPBASE
 10
0.0
 20
0.0
  9
$SNAPANG
 50
0.0
  9
$SNAPSTYLE
 70
     0
  9
$SNAPISOPAIR
 70
     0
  9
$GRIDMODE
 70
     0
  9
$GRIDUNIT
 10
0.0
 20
0.0
  9
$ORTHOMODE
 70
     0
  9
$REGENMODE
 70
     1
  9
$FILLMODE
 70
     1
  9
$QTEXTMODE
 70
     0
  9
$DRAGMODE
 70
     2
  9
$LTSCALE
 40
1.0
  9
$OSMODE
 70
     0
  9
$ATTMODE
 70
     1
  9
$TEXTSIZE
 40
0.2
  9
$TRACEWID
 40
0.05
  9
$TEXTSTYLE
  7
STANDARD
  9
$CLAYER
  8
0
  9
$CELTYPE
  6
BYLAYER
  9
$CECOLOR
 62
   256
  9
$DIMSCALE
 40
1.0
  9
$DIMASZ
 40
0.18
  9
$DIMEXO
 40
0.0625
  9
$DIMDLI
 40
0.38
  9
$DIMRND
 40
0.0
  9
$DIMDLE
 40
0.0
  9
$DIMEXE
 40
0.18
  9
$DIMTP
 40
0.0
  9
$DIMTM
 40
0.0
  9
$DIMTXT
 40
0.18
  9
$DIMCEN
 40
0.09
  9
$DIMTSZ
 40
0.0
  9
$DIMTOL
 70
     0
  9
$DIMLIM
 70
     0
  9
$DIMTIH
 70
     1
  9
$DIMTOH
 70
     1
  9
$DIMSE1
 70
     0
  9
$DIMSE2
 70
     0
  9
$DIMTAD
 70
     0
  9
$DIMZIN
 70
     0
  9
$DIMBLK
  1

  9
$DIMASO
 70
     1
  9
$DIMSHO
 70
     0
  9
$DIMPOST
  1

  9
$DIMAPOST
  1

  9
$DIMALT
 70
     0
  9
$DIMALTD
 70
     2
  9
$DIMALTF
 40
25.4
  9
$DIMLFAC
 40
1.0
  9
$LUNITS
 70
     2
  9
$LUPREC
 70
     4
  9
$AXISMODE
 70
     0
  9
$AXISUNIT
 10
0.0
 20
0.0
  9
$SKETCHINC
 40
0.1
  9
$FILLETRAD
 40
0.0
  9
$AUNITS
 70
     0
  9
$AUPREC
 70
     0
  9
$MENU
  1
acad
  9
$ELEVATION
 40
0.0
  9
$THICKNESS
 40
0.0
  9
$VIEWDIR
 10
0.0
 20
0.0
 30
1.0
  9
$LIMCHECK
 70
     0
  9
$BLIPMODE
 70
     1
  9
$CHAMFERA
 40
0.0
  9
$CHAMFERB
 40
0.0
  9
$FASTZOOM
 70
     1
  9
$SKPOLY
 70
     0
  9
$TDCREATE
 40
2447222.5666886573
  9
$TDUPDATE
 40
2447222.5666886573
  9
$TDINDWG
 40
0.0000000000
  9
$TDUSRTIMER
 40
0.0000000000
  9
$USRTIMER
 70
     1
  9
$ANGBASE
 50
0.0
  9
$ANGDIR
 70
     0
  9
$PDMODE
 70
     0
  9
$PDSIZE
 40
0.0
  9
$PLINEWID
 40
0.0
  9
$COORDS
 70
     0
  9
$SPLFRAME
 70
     0
  9
$SPLINESEGS
 70
     8
  9
$ATTDIA
 70
     0
  9
$ATTREQ
 70
     1
  9
$USERI1
 70
     0
  9
$USERI2
 70
     0
  9
$USERI3
 70
     0
  9
$USERI4
 70
     0
  9
$USERI5
 70
     0
  9
$USERR1
 40
0.0
  9
$USERR2
 40
0.0
  9
$USERR3
 40
0.0
  9
$USERR4
 40
0.0
  9
$USERR5
 40
0.0
  0
ENDSEC
  0
SECTION
  2
TABLES
  0
TABLE
  2
LTYPE
 70
     13
  0
LTYPE
  2
CONTINUOUS
 70
    64
  3
Solid line
 72
    65
 73
     0
 40
0.0
  0
LTYPE
  2
DASHED
 70
    64
  3
__ __ __ __ __ __ __ __ __ __ __ __ __ __ __
 72
    65
 73
     2
 40
0.75
 49
0.5
 49
-0.25
  0
LTYPE
  2
HIDDEN
 70
    64
  3
_ _ _ _ _ _ _ _ _ _ _ _ _ _ _ _ _ _ _ _ _ _ _
 72
    65
 73
     2
 40
0.375
 49
0.25
 49
-0.125
  0
LTYPE
  2
CENTER
 70
    64
  3
____ _ ____ _ ____ _ ____ _ ____ _ ____ _ ____
 72
    65
 73
     4
 40
2.0
 49
1.25
 49
-0.25
 49
0.25
 49
-0.25
  0
LTYPE
  2
PHANTOM
 70
    64
  3
_____ _ _ _____ _ _ _____ _ _ _____ _ _ ____
 72
    65
 73
     6
 40
2.5
 49
1.25
 49
-0.25
 49
0.25
 49
-0.25
 49
0.25
 49
-0.25
  0
LTYPE
  2
DOT
 70
    64
  3
...............................................
 72
    65
 73
     2
 40
0.25
 49
0.0
 49
-0.25
  0
LTYPE
  2
DASHDOT
 70
    64
  3
__ . __ . __ . __ . __ . __ . __ . __ . __ . __
 72
    65
 73
     4
 40
1.0
 49
0.5
 49
-0.25
 49
0.0
 49
-0.25
  0
LTYPE
  2
BORDER
 70
    64
  3
__ __ . __ __ . __ __ . __ __ . __ __ . __ __
 72
    65
 73
     6
 40
1.75
 49
0.5
 49
-0.25
 49
0.5
 49
-0.25
 49
0.0
 49
-0.25
  0
LTYPE
  2
DIVIDE
 70
    64
  3
__ . . __ . . __ . . __ . . __ . . __ . . __
 72
    65
 73
     6
 40
1.25
 49
0.5
 49
-0.25
 49
0.0
 49
-0.25
 49
0.0
 49
-0.25
  0
LTYPE
  2
DCTYPE1
 70
    64
  3
__ . . __ . . __ . . __ . . __ . . __ . . __
 72
    65
 73
     8
 40
2.5
 49
0.5
 49
-0.25
 49
0.125
 49
-0.25
 49
0.25
 49
-0.25
 49
0.125
 49
-0.25
  0
LTYPE
  2
DCTYPE2
 70
    64
  3
__ . . __ . . __ . . __ . . __ . . __ . . __
 72
    65
 73
     6
 40
2.05
 49
1.0
 49
-0.3
 49
0.15
 49
-0.15
 49
0.15
 49
-0.3
  0
LTYPE
  2
DCTYPE3
 70
    64
  3
__ . . __ . . __ . . __ . . __ . . __ . . __
 72
    65
 73
     6
 40
2.5
 49
0.8
 49
-0.2
 49
0.8
 49
-0.2
 49
0.3
 49
-0.2
  0
LTYPE
  2
DCTYPE4
 70
    64
  3
__ . . __ . . __ . . __ . . __ . . __ . . __
 72
    65
 73
     10
 40
3.97
 49
1.75
 49
-0.3
 49
0.3
 49
-0.3
 49
0.06
 49
-0.3
 49
0.06
 49
-0.3
 49
0.3
 49
-0.3
  0
ENDTAB
  0
TABLE
  2
LAYER
 70
    153
  0
LAYER
  2
LAYER1
 70
 64
 62
     7
  6
CONTINUOUS
  0
LAYER
  2
LAYER12
 70
 64
 62
     5
  6
CONTINUOUS
  0
ENDTAB
  0
ENDSEC
  0
SECTION
  2
BLOCKS
  0
ENDSEC
  0
SECTION
  2
ENTITIES
  0
CIRCLE
  8
LAYER1
 62
     7
  6
CONTINUOUS
 10
11.4456
 20
-132.8072
 40
0.0232
  0
CIRCLE
  8
LAYER1
 62
     7
  6
CONTINUOUS
 10
11.5134
 20
-132.8201
 40
0.0169
  0
CIRCLE
  8
LAYER1
 62
     7
  6
CONTINUOUS
 10
11.5487
 20
-132.7950
 40
0.0091
  0
CIRCLE
  8
LAYER1
 62
     7
  6
CONTINUOUS
 10
11.5610
 20
-132.8705
 40
0.0107
  0
CIRCLE
  8
LAYER1
 62
     7
  6
CONTINUOUS
 10
11.5604
 20
-133.0314
 40
0.0278
  0
CIRCLE
  8
LAYER1
 62
     7
  6
CONTINUOUS
 10
11.3816
 20
-133.1112
 40
0.0247
  0
CIRCLE
  8
LAYER1
 62
     7
  6
CONTINUOUS
 10
11.4517
 20
-133.2145
 40
0.0142
  0
CIRCLE
  8
LAYER1
 62
     7
  6
CONTINUOUS
 10
11.4461
 20
-133.3603
 40
0.0251
  0
CIRCLE
  8
LAYER1
 62
     7
  6
CONTINUOUS
 10
11.2192
 20
-133.5430
 40
0.0183
  0
CIRCLE
  8
LAYER1
 62
     7
  6
CONTINUOUS
 10
11.9156
 20
-132.8416
 40
0.0183
  0
CIRCLE
  8
LAYER1
 62
     7
  6
CONTINUOUS
 10
11.6567
 20
-132.8256
 40
0.0128
  0
CIRCLE
  8
LAYER1
 62
     7
  6
CONTINUOUS
 10
11.6589
 20
-132.9136
 40
0.0159
  0
CIRCLE
  8
LAYER1
 62
     7
  6
CONTINUOUS
 10
11.7192
 20
-132.9364
 40
0.0215
  0
CIRCLE
  8
LAYER1
 62
     7
  6
CONTINUOUS
 10
11.7794
 20
-132.9693
 40
0.0207
  0
CIRCLE
  8
LAYER1
 62
     7
  6
CONTINUOUS
 10
11.7516
 20
-133.0019
 40
0.0128
  0
CIRCLE
  8
LAYER1
 62
     7
  6
CONTINUOUS
 10
11.8421
 20
-132.9922
 40
0.0216
  0
CIRCLE
  8
LAYER1
 62
     7
  6
CONTINUOUS
 10
11.8974
 20
-133.0150
 40
0.0176
  0
CIRCLE
  8
LAYER1
 62
     7
  6
CONTINUOUS
 10
11.9476
 20
-133.0353
 40
0.0183
  0
CIRCLE
  8
LAYER1
 62
     7
  6
CONTINUOUS
 10
11.9928
 20
-133.0556
 40
0.0135
  0
CIRCLE
  8
LAYER1
 62
     7
  6
CONTINUOUS
 10
12.0606
 20
-133.0558
 40
0.0142
  0
CIRCLE
  8
LAYER1
 62
     7
  6
HIDDEN
 10
11.8862
 20
-133.3167
 40
0.0503
  0
ARC
  8
LAYER1
 62
     7
  6
CONTINUOUS
 10
12.1260
 20
-133.7475
 40
0.0178
 50
91.2293
 51
97.9143
  0
ARC
  8
LAYER1
 62
     7
  6
CONTINUOUS
 10
11.3854
 20
-132.7844
 40
0.0128
 50
162.2579
 51
-11.5348
  0
ARC
  8
LAYER1
 62
     7
  6
CONTINUOUS
 10
11.7926
 20
-132.7934
 40
0.0248
 50
148.5000
 51
155.8126
  0
ARC
  8
LAYER1
 62
     7
  6
CONTINUOUS
 10
12.1260
 20
-133.7475
 40
0.0178
 50
97.9143
 51
-91.2293
  0
ARC
  8
LAYER1
 62
     7
  6
CONTINUOUS
 10
12.1259
 20
-133.0913
 40
0.0181
 50
90.8372
 51
-90.8379
  0
ARC
  8
LAYER1
 62
     7
  6
CONTINUOUS
 10
12.1260
 20
-133.7475
 40
0.0178
 50
91.2293
 51
-91.2293
  0
ARC
  8
LAYER1
 62
     7
  6
CONTINUOUS
 10
12.1260
 20
-133.7475
 40
0.0178
 50
91.2293
 51
-91.2293
  0
ARC
  8
LAYER1
 62
     7
  6
CONTINUOUS
 10
11.3854
 20
-132.7844
 40
0.0128
 50
-11.5331
 51
17.7408
  0
ARC
  8
LAYER1
 62
     7
  6
CONTINUOUS
 10
11.7926
 20
-132.7934
 40
0.0248
 50
155.8126
 51
31.5034
  0
ARC
  8
LAYER1
 62
     7
  6
CONTINUOUS
 10
11.7926
 20
-132.7934
 40
0.0248
 50
148.5752
 51
31.5046
  0
ARC
  8
LAYER1
 62
     7
  6
CONTINUOUS
 10
11.7926
 20
-132.7934
 40
0.0248
 50
148.5000
 51
31.5011
  0
ARC
  8
LAYER1
 62
     7
  6
CONTINUOUS
 10
11.7926
 20
-132.7934
 40
0.0248
 50
148.5000
 51
31.5011
  0
ARC
  8
LAYER1
 62
     7
  6
CONTINUOUS
 10
11.7926
 20
-132.7934
 40
0.0248
 50
148.5000
 51
31.5011
  0
ARC
  8
LAYER1
 62
     7
  6
CONTINUOUS
 10
11.3854
 20
-132.7844
 40
0.0128
 50
162.3996
 51
17.7408
  0
ARC
  8
LAYER1
 62
     7
  6
CONTINUOUS
 10
11.3854
 20
-132.7844
 40
0.0128
 50
162.2579
 51
17.7421
  0
ARC
  8
LAYER1
 62
     7
  6
CONTINUOUS
 10
11.7926
 20
-132.7934
 40
0.0248
 50
148.5752
 51
31.5046
  0
ARC
  8
LAYER1
 62
     7
  6
CONTINUOUS
 10
11.7926
 20
-132.7934
 40
0.0248
 50
148.5000
 51
31.5011
  0
ARC
  8
LAYER1
 62
     7
  6
CONTINUOUS
 10
11.7926
 20
-132.7934
 40
0.0248
 50
148.5000
 51
31.5011
  0
ARC
  8
LAYER1
 62
     7
  6
CONTINUOUS
 10
11.7926
 20
-132.7934
 40
0.0248
 50
148.5000
 51
31.5011
  0
POLYLINE
  8
LAYER12
 62
     5
 66
     1
  6
CONTINUOUS
  0
VERTEX
  8
LAYER12
 62
     5
  6
CONTINUOUS
 10
12.1256
 20
-132.7805
  0
VERTEX
  8
LAYER12
 62
     5
  6
CONTINUOUS
 10
12.1256
 20
-133.8019
  0
SEQEND
  8
LAYER12
  0
POLYLINE
  8
LAYER12
 62
     5
 66
     1
  6
CONTINUOUS
  0
VERTEX
  8
LAYER12
 62
     5
  6
CONTINUOUS
 10
11.1026
 20
-133.8019
  0
VERTEX
  8
LAYER12
 62
     5
  6
CONTINUOUS
 10
11.1026
 20
-132.7805
  0
SEQEND
  8
LAYER12
  0
POLYLINE
  8
LAYER12
 62
     5
 66
     1
  6
CONTINUOUS
  0
VERTEX
  8
LAYER12
 62
     5
  6
CONTINUOUS
 10
12.1256
 20
-132.7805
  0
VERTEX
  8
LAYER12
 62
     5
  6
CONTINUOUS
 10
11.1026
 20
-132.7805
  0
SEQEND
  8
LAYER12
  0
POLYLINE
  8
LAYER12
 62
     5
 66
     1
  6
CONTINUOUS
  0
VERTEX
  8
LAYER12
 62
     5
  6
CONTINUOUS
 10
12.1256
 20
-133.8035
  0
VERTEX
  8
LAYER12
 62
     5
  6
CONTINUOUS
 10
11.1026
 20
-133.8035
  0
SEQEND
  8
LAYER12
  0
ENDSEC
  0
EOF
