  0
SECTION
  2
HEADER
  9
$ACADVER
  1
AC1004
  9
$EXTMIN
 10
10.3404
 20
-29.5059
  9
$EXTMAX
 10
11.3258
 20
-28.4828
  9
$LIMMIN
 10
10.3404
 20
-29.5059
  9
$LIMMAX
 10
11.3258
 20
-28.4828
  9
$INSBASE
 10
0.0
 20
0.0
  9
$VIEWCTR
 10
7.21903
 20
4.5
  9
$VIEWSIZE
 40
9.0
  9
$SNAPMODE
 70
     0
  9
$SNAPUNIT
 10
1.0
 20
1.0
  9
$SNAPBASE
 10
0.0
 20
0.0
  9
$SNAPANG
 50
0.0
  9
$SNAPSTYLE
 70
     0
  9
$SNAPISOPAIR
 70
     0
  9
$GRIDMODE
 70
     0
  9
$GRIDUNIT
 10
0.0
 20
0.0
  9
$ORTHOMODE
 70
     0
  9
$REGENMODE
 70
     1
  9
$FILLMODE
 70
     1
  9
$QTEXTMODE
 70
     0
  9
$DRAGMODE
 70
     2
  9
$LTSCALE
 40
1.0
  9
$OSMODE
 70
     0
  9
$ATTMODE
 70
     1
  9
$TEXTSIZE
 40
0.2
  9
$TRACEWID
 40
0.05
  9
$TEXTSTYLE
  7
STANDARD
  9
$CLAYER
  8
0
  9
$CELTYPE
  6
BYLAYER
  9
$CECOLOR
 62
   256
  9
$DIMSCALE
 40
1.0
  9
$DIMASZ
 40
0.18
  9
$DIMEXO
 40
0.0625
  9
$DIMDLI
 40
0.38
  9
$DIMRND
 40
0.0
  9
$DIMDLE
 40
0.0
  9
$DIMEXE
 40
0.18
  9
$DIMTP
 40
0.0
  9
$DIMTM
 40
0.0
  9
$DIMTXT
 40
0.18
  9
$DIMCEN
 40
0.09
  9
$DIMTSZ
 40
0.0
  9
$DIMTOL
 70
     0
  9
$DIMLIM
 70
     0
  9
$DIMTIH
 70
     1
  9
$DIMTOH
 70
     1
  9
$DIMSE1
 70
     0
  9
$DIMSE2
 70
     0
  9
$DIMTAD
 70
     0
  9
$DIMZIN
 70
     0
  9
$DIMBLK
  1

  9
$DIMASO
 70
     1
  9
$DIMSHO
 70
     0
  9
$DIMPOST
  1

  9
$DIMAPOST
  1

  9
$DIMALT
 70
     0
  9
$DIMALTD
 70
     2
  9
$DIMALTF
 40
25.4
  9
$DIMLFAC
 40
1.0
  9
$LUNITS
 70
     2
  9
$LUPREC
 70
     4
  9
$AXISMODE
 70
     0
  9
$AXISUNIT
 10
0.0
 20
0.0
  9
$SKETCHINC
 40
0.1
  9
$FILLETRAD
 40
0.0
  9
$AUNITS
 70
     0
  9
$AUPREC
 70
     0
  9
$MENU
  1
acad
  9
$ELEVATION
 40
0.0
  9
$THICKNESS
 40
0.0
  9
$VIEWDIR
 10
0.0
 20
0.0
 30
1.0
  9
$LIMCHECK
 70
     0
  9
$BLIPMODE
 70
     1
  9
$CHAMFERA
 40
0.0
  9
$CHAMFERB
 40
0.0
  9
$FASTZOOM
 70
     1
  9
$SKPOLY
 70
     0
  9
$TDCREATE
 40
2447222.5666886573
  9
$TDUPDATE
 40
2447222.5666886573
  9
$TDINDWG
 40
0.0000000000
  9
$TDUSRTIMER
 40
0.0000000000
  9
$USRTIMER
 70
     1
  9
$ANGBASE
 50
0.0
  9
$ANGDIR
 70
     0
  9
$PDMODE
 70
     0
  9
$PDSIZE
 40
0.0
  9
$PLINEWID
 40
0.0
  9
$COORDS
 70
     0
  9
$SPLFRAME
 70
     0
  9
$SPLINESEGS
 70
     8
  9
$ATTDIA
 70
     0
  9
$ATTREQ
 70
     1
  9
$USERI1
 70
     0
  9
$USERI2
 70
     0
  9
$USERI3
 70
     0
  9
$USERI4
 70
     0
  9
$USERI5
 70
     0
  9
$USERR1
 40
0.0
  9
$USERR2
 40
0.0
  9
$USERR3
 40
0.0
  9
$USERR4
 40
0.0
  9
$USERR5
 40
0.0
  0
ENDSEC
  0
SECTION
  2
TABLES
  0
TABLE
  2
LTYPE
 70
     13
  0
LTYPE
  2
CONTINUOUS
 70
    64
  3
Solid line
 72
    65
 73
     0
 40
0.0
  0
LTYPE
  2
DASHED
 70
    64
  3
__ __ __ __ __ __ __ __ __ __ __ __ __ __ __
 72
    65
 73
     2
 40
0.75
 49
0.5
 49
-0.25
  0
LTYPE
  2
HIDDEN
 70
    64
  3
_ _ _ _ _ _ _ _ _ _ _ _ _ _ _ _ _ _ _ _ _ _ _
 72
    65
 73
     2
 40
0.375
 49
0.25
 49
-0.125
  0
LTYPE
  2
CENTER
 70
    64
  3
____ _ ____ _ ____ _ ____ _ ____ _ ____ _ ____
 72
    65
 73
     4
 40
2.0
 49
1.25
 49
-0.25
 49
0.25
 49
-0.25
  0
LTYPE
  2
PHANTOM
 70
    64
  3
_____ _ _ _____ _ _ _____ _ _ _____ _ _ ____
 72
    65
 73
     6
 40
2.5
 49
1.25
 49
-0.25
 49
0.25
 49
-0.25
 49
0.25
 49
-0.25
  0
LTYPE
  2
DOT
 70
    64
  3
...............................................
 72
    65
 73
     2
 40
0.25
 49
0.0
 49
-0.25
  0
LTYPE
  2
DASHDOT
 70
    64
  3
__ . __ . __ . __ . __ . __ . __ . __ . __ . __
 72
    65
 73
     4
 40
1.0
 49
0.5
 49
-0.25
 49
0.0
 49
-0.25
  0
LTYPE
  2
BORDER
 70
    64
  3
__ __ . __ __ . __ __ . __ __ . __ __ . __ __
 72
    65
 73
     6
 40
1.75
 49
0.5
 49
-0.25
 49
0.5
 49
-0.25
 49
0.0
 49
-0.25
  0
LTYPE
  2
DIVIDE
 70
    64
  3
__ . . __ . . __ . . __ . . __ . . __ . . __
 72
    65
 73
     6
 40
1.25
 49
0.5
 49
-0.25
 49
0.0
 49
-0.25
 49
0.0
 49
-0.25
  0
LTYPE
  2
DCTYPE1
 70
    64
  3
__ . . __ . . __ . . __ . . __ . . __ . . __
 72
    65
 73
     8
 40
2.5
 49
0.5
 49
-0.25
 49
0.125
 49
-0.25
 49
0.25
 49
-0.25
 49
0.125
 49
-0.25
  0
LTYPE
  2
DCTYPE2
 70
    64
  3
__ . . __ . . __ . . __ . . __ . . __ . . __
 72
    65
 73
     6
 40
2.05
 49
1.0
 49
-0.3
 49
0.15
 49
-0.15
 49
0.15
 49
-0.3
  0
LTYPE
  2
DCTYPE3
 70
    64
  3
__ . . __ . . __ . . __ . . __ . . __ . . __
 72
    65
 73
     6
 40
2.5
 49
0.8
 49
-0.2
 49
0.8
 49
-0.2
 49
0.3
 49
-0.2
  0
LTYPE
  2
DCTYPE4
 70
    64
  3
__ . . __ . . __ . . __ . . __ . . __ . . __
 72
    65
 73
     10
 40
3.97
 49
1.75
 49
-0.3
 49
0.3
 49
-0.3
 49
0.06
 49
-0.3
 49
0.06
 49
-0.3
 49
0.3
 49
-0.3
  0
ENDTAB
  0
TABLE
  2
LAYER
 70
    153
  0
LAYER
  2
LAYER1
 70
 64
 62
     7
  6
CONTINUOUS
  0
LAYER
  2
LAYER10
 70
 64
 62
     1
  6
CONTINUOUS
  0
LAYER
  2
LAYER12
 70
 64
 62
     5
  6
CONTINUOUS
  0
ENDTAB
  0
ENDSEC
  0
SECTION
  2
BLOCKS
  0
ENDSEC
  0
SECTION
  2
ENTITIES
  0
CIRCLE
  8
LAYER1
 62
     7
  6
CONTINUOUS
 10
10.5466
 20
-28.6335
 40
0.0126
  0
CIRCLE
  8
LAYER1
 62
     7
  6
CONTINUOUS
 10
10.4712
 20
-28.6232
 40
0.0176
  0
CIRCLE
  8
LAYER1
 62
     7
  6
CONTINUOUS
 10
10.5336
 20
-28.7441
 40
0.0207
  0
CIRCLE
  8
LAYER1
 62
     7
  6
CONTINUOUS
 10
10.3926
 20
-28.7988
 40
0.0213
  0
CIRCLE
  8
LAYER1
 62
     7
  6
CONTINUOUS
 10
10.4453
 20
-28.8191
 40
0.0169
  0
CIRCLE
  8
LAYER1
 62
     7
  6
CONTINUOUS
 10
10.5031
 20
-28.8344
 40
0.0159
  0
CIRCLE
  8
LAYER1
 62
     7
  6
CONTINUOUS
 10
10.6011
 20
-28.8423
 40
0.0178
  0
CIRCLE
  8
LAYER1
 62
     7
  6
CONTINUOUS
 10
10.6009
 20
-28.8976
 40
0.0178
  0
CIRCLE
  8
LAYER1
 62
     7
  6
CONTINUOUS
 10
10.4197
 20
-28.9624
 40
0.0178
  0
CIRCLE
  8
LAYER1
 62
     7
  6
CONTINUOUS
 10
10.4645
 20
-29.0807
 40
0.0203
  0
CIRCLE
  8
LAYER1
 62
     7
  6
CONTINUOUS
 10
10.5922
 20
-29.2244
 40
0.0176
  0
CIRCLE
  8
LAYER1
 62
     7
  6
CONTINUOUS
 10
10.7251
 20
-29.3054
 40
0.0191
  0
CIRCLE
  8
LAYER1
 62
     7
  6
CONTINUOUS
 10
10.7300
 20
-29.3506
 40
0.0192
  0
CIRCLE
  8
LAYER1
 62
     7
  6
CONTINUOUS
 10
10.8052
 20
-29.4188
 40
0.0104
  0
CIRCLE
  8
LAYER1
 62
     7
  6
CONTINUOUS
 10
10.8949
 20
-28.9289
 40
0.0183
  0
CIRCLE
  8
LAYER1
 62
     7
  6
CONTINUOUS
 10
11.0507
 20
-28.9521
 40
0.0181
  0
CIRCLE
  8
LAYER1
 62
     7
  6
CONTINUOUS
 10
11.1082
 20
-29.0529
 40
0.0169
  0
CIRCLE
  8
LAYER1
 62
     7
  6
CONTINUOUS
 10
11.1581
 20
-29.1410
 40
0.0228
  0
CIRCLE
  8
LAYER1
 62
     7
  6
CONTINUOUS
 10
11.2963
 20
-29.1642
 40
0.0256
  0
CIRCLE
  8
LAYER1
 62
     7
  6
CONTINUOUS
 10
11.1276
 20
-29.2390
 40
0.0135
  0
CIRCLE
  8
LAYER1
 62
     7
  6
CONTINUOUS
 10
11.2853
 20
-29.4231
 40
0.0183
  0
CIRCLE
  8
LAYER1
 62
     7
  6
CONTINUOUS
 10
11.2902
 20
-28.7770
 40
0.0215
  0
CIRCLE
  8
LAYER1
 62
     7
  6
CONTINUOUS
 10
11.1970
 20
-28.8244
 40
0.0153
  0
CIRCLE
  8
LAYER1
 62
     7
  6
CONTINUOUS
 10
10.7775
 20
-28.7374
 40
0.0216
  0
CIRCLE
  8
LAYER1
 62
     7
  6
CONTINUOUS
 10
10.7229
 20
-28.5411
 40
0.0178
  0
CIRCLE
  8
LAYER1
 62
     7
  6
CONTINUOUS
 10
10.9665
 20
-28.6048
 40
0.0142
  0
CIRCLE
  8
LAYER1
 62
     7
  6
CONTINUOUS
 10
11.0091
 20
-28.6402
 40
0.0126
  0
CIRCLE
  8
LAYER1
 62
     7
  6
CONTINUOUS
 10
11.1221
 20
-28.6808
 40
0.0225
  0
CIRCLE
  8
LAYER1
 62
     7
  6
CONTINUOUS
 10
11.1950
 20
-28.6836
 40
0.0178
  0
CIRCLE
  8
LAYER1
 62
     7
  6
CONTINUOUS
 10
11.2350
 20
-28.7441
 40
0.0128
  0
CIRCLE
  8
LAYER1
 62
     7
  6
CONTINUOUS
 10
11.2783
 20
-28.6035
 40
0.0161
  0
CIRCLE
  8
LAYER1
 62
     7
  6
CONTINUOUS
 10
11.1603
 20
-28.5477
 40
0.0191
  0
POLYLINE
  8
LAYER1
 62
     7
 66
     1
  6
CONTINUOUS
  0
VERTEX
  8
LAYER1
 62
     7
  6
CONTINUOUS
 10
10.7249
 20
-28.6794
  0
VERTEX
  8
LAYER1
 62
     7
  6
CONTINUOUS
 10
10.7261
 20
-28.6795
  0
VERTEX
  8
LAYER1
 62
     7
  6
CONTINUOUS
 10
10.7276
 20
-28.6799
  0
VERTEX
  8
LAYER1
 62
     7
  6
CONTINUOUS
 10
10.7293
 20
-28.6807
  0
VERTEX
  8
LAYER1
 62
     7
  6
CONTINUOUS
 10
10.7311
 20
-28.6817
  0
VERTEX
  8
LAYER1
 62
     7
  6
CONTINUOUS
 10
10.7332
 20
-28.6830
  0
VERTEX
  8
LAYER1
 62
     7
  6
CONTINUOUS
 10
10.7354
 20
-28.6844
  0
VERTEX
  8
LAYER1
 62
     7
  6
CONTINUOUS
 10
10.7377
 20
-28.6860
  0
VERTEX
  8
LAYER1
 62
     7
  6
CONTINUOUS
 10
10.7401
 20
-28.6877
  0
VERTEX
  8
LAYER1
 62
     7
  6
CONTINUOUS
 10
10.7426
 20
-28.6894
  0
VERTEX
  8
LAYER1
 62
     7
  6
CONTINUOUS
 10
10.7451
 20
-28.6912
  0
VERTEX
  8
LAYER1
 62
     7
  6
CONTINUOUS
 10
10.7475
 20
-28.6929
  0
VERTEX
  8
LAYER1
 62
     7
  6
CONTINUOUS
 10
10.7500
 20
-28.6946
  0
VERTEX
  8
LAYER1
 62
     7
  6
CONTINUOUS
 10
10.7527
 20
-28.6963
  0
VERTEX
  8
LAYER1
 62
     7
  6
CONTINUOUS
 10
10.7554
 20
-28.6980
  0
VERTEX
  8
LAYER1
 62
     7
  6
CONTINUOUS
 10
10.7579
 20
-28.6995
  0
VERTEX
  8
LAYER1
 62
     7
  6
CONTINUOUS
 10
10.7605
 20
-28.7009
  0
VERTEX
  8
LAYER1
 62
     7
  6
CONTINUOUS
 10
10.7630
 20
-28.7022
  0
VERTEX
  8
LAYER1
 62
     7
  6
CONTINUOUS
 10
10.7654
 20
-28.7034
  0
VERTEX
  8
LAYER1
 62
     7
  6
CONTINUOUS
 10
10.7678
 20
-28.7046
  0
VERTEX
  8
LAYER1
 62
     7
  6
CONTINUOUS
 10
10.7703
 20
-28.7057
  0
VERTEX
  8
LAYER1
 62
     7
  6
CONTINUOUS
 10
10.7727
 20
-28.7067
  0
VERTEX
  8
LAYER1
 62
     7
  6
CONTINUOUS
 10
10.7751
 20
-28.7078
  0
VERTEX
  8
LAYER1
 62
     7
  6
CONTINUOUS
 10
10.7776
 20
-28.7088
  0
VERTEX
  8
LAYER1
 62
     7
  6
CONTINUOUS
 10
10.7801
 20
-28.7098
  0
VERTEX
  8
LAYER1
 62
     7
  6
CONTINUOUS
 10
10.7826
 20
-28.7108
  0
VERTEX
  8
LAYER1
 62
     7
  6
CONTINUOUS
 10
10.7852
 20
-28.7118
  0
VERTEX
  8
LAYER1
 62
     7
  6
CONTINUOUS
 10
10.7878
 20
-28.7128
  0
VERTEX
  8
LAYER1
 62
     7
  6
CONTINUOUS
 10
10.7904
 20
-28.7139
  0
VERTEX
  8
LAYER1
 62
     7
  6
CONTINUOUS
 10
10.7930
 20
-28.7151
  0
VERTEX
  8
LAYER1
 62
     7
  6
CONTINUOUS
 10
10.7956
 20
-28.7162
  0
VERTEX
  8
LAYER1
 62
     7
  6
CONTINUOUS
 10
10.7982
 20
-28.7175
  0
VERTEX
  8
LAYER1
 62
     7
  6
CONTINUOUS
 10
10.8007
 20
-28.7188
  0
VERTEX
  8
LAYER1
 62
     7
  6
CONTINUOUS
 10
10.8032
 20
-28.7202
  0
VERTEX
  8
LAYER1
 62
     7
  6
CONTINUOUS
 10
10.8056
 20
-28.7217
  0
VERTEX
  8
LAYER1
 62
     7
  6
CONTINUOUS
 10
10.8079
 20
-28.7233
  0
VERTEX
  8
LAYER1
 62
     7
  6
CONTINUOUS
 10
10.8102
 20
-28.7250
  0
VERTEX
  8
LAYER1
 62
     7
  6
CONTINUOUS
 10
10.8120
 20
-28.7265
  0
VERTEX
  8
LAYER1
 62
     7
  6
CONTINUOUS
 10
10.8138
 20
-28.7280
  0
VERTEX
  8
LAYER1
 62
     7
  6
CONTINUOUS
 10
10.8155
 20
-28.7297
  0
VERTEX
  8
LAYER1
 62
     7
  6
CONTINUOUS
 10
10.8172
 20
-28.7314
  0
VERTEX
  8
LAYER1
 62
     7
  6
CONTINUOUS
 10
10.8188
 20
-28.7331
  0
VERTEX
  8
LAYER1
 62
     7
  6
CONTINUOUS
 10
10.8205
 20
-28.7348
  0
VERTEX
  8
LAYER1
 62
     7
  6
CONTINUOUS
 10
10.8221
 20
-28.7366
  0
VERTEX
  8
LAYER1
 62
     7
  6
CONTINUOUS
 10
10.8237
 20
-28.7383
  0
VERTEX
  8
LAYER1
 62
     7
  6
CONTINUOUS
 10
10.8253
 20
-28.7401
  0
VERTEX
  8
LAYER1
 62
     7
  6
CONTINUOUS
 10
10.8269
 20
-28.7418
  0
VERTEX
  8
LAYER1
 62
     7
  6
CONTINUOUS
 10
10.8286
 20
-28.7435
  0
VERTEX
  8
LAYER1
 62
     7
  6
CONTINUOUS
 10
10.8302
 20
-28.7451
  0
VERTEX
  8
LAYER1
 62
     7
  6
CONTINUOUS
 10
10.8329
 20
-28.7475
  0
VERTEX
  8
LAYER1
 62
     7
  6
CONTINUOUS
 10
10.8356
 20
-28.7498
  0
VERTEX
  8
LAYER1
 62
     7
  6
CONTINUOUS
 10
10.8384
 20
-28.7520
  0
VERTEX
  8
LAYER1
 62
     7
  6
CONTINUOUS
 10
10.8413
 20
-28.7541
  0
VERTEX
  8
LAYER1
 62
     7
  6
CONTINUOUS
 10
10.8442
 20
-28.7562
  0
VERTEX
  8
LAYER1
 62
     7
  6
CONTINUOUS
 10
10.8472
 20
-28.7582
  0
VERTEX
  8
LAYER1
 62
     7
  6
CONTINUOUS
 10
10.8502
 20
-28.7602
  0
VERTEX
  8
LAYER1
 62
     7
  6
CONTINUOUS
 10
10.8533
 20
-28.7621
  0
VERTEX
  8
LAYER1
 62
     7
  6
CONTINUOUS
 10
10.8563
 20
-28.7641
  0
VERTEX
  8
LAYER1
 62
     7
  6
CONTINUOUS
 10
10.8593
 20
-28.7662
  0
VERTEX
  8
LAYER1
 62
     7
  6
CONTINUOUS
 10
10.8624
 20
-28.7683
  0
VERTEX
  8
LAYER1
 62
     7
  6
CONTINUOUS
 10
10.8653
 20
-28.7704
  0
VERTEX
  8
LAYER1
 62
     7
  6
CONTINUOUS
 10
10.8678
 20
-28.7723
  0
VERTEX
  8
LAYER1
 62
     7
  6
CONTINUOUS
 10
10.8703
 20
-28.7742
  0
VERTEX
  8
LAYER1
 62
     7
  6
CONTINUOUS
 10
10.8728
 20
-28.7761
  0
VERTEX
  8
LAYER1
 62
     7
  6
CONTINUOUS
 10
10.8752
 20
-28.7780
  0
VERTEX
  8
LAYER1
 62
     7
  6
CONTINUOUS
 10
10.8777
 20
-28.7799
  0
VERTEX
  8
LAYER1
 62
     7
  6
CONTINUOUS
 10
10.8801
 20
-28.7817
  0
VERTEX
  8
LAYER1
 62
     7
  6
CONTINUOUS
 10
10.8826
 20
-28.7835
  0
VERTEX
  8
LAYER1
 62
     7
  6
CONTINUOUS
 10
10.8851
 20
-28.7852
  0
VERTEX
  8
LAYER1
 62
     7
  6
CONTINUOUS
 10
10.8876
 20
-28.7868
  0
VERTEX
  8
LAYER1
 62
     7
  6
CONTINUOUS
 10
10.8902
 20
-28.7882
  0
VERTEX
  8
LAYER1
 62
     7
  6
CONTINUOUS
 10
10.8928
 20
-28.7895
  0
VERTEX
  8
LAYER1
 62
     7
  6
CONTINUOUS
 10
10.8954
 20
-28.7906
  0
VERTEX
  8
LAYER1
 62
     7
  6
CONTINUOUS
 10
10.8988
 20
-28.7918
  0
VERTEX
  8
LAYER1
 62
     7
  6
CONTINUOUS
 10
10.9023
 20
-28.7926
  0
VERTEX
  8
LAYER1
 62
     7
  6
CONTINUOUS
 10
10.9059
 20
-28.7932
  0
VERTEX
  8
LAYER1
 62
     7
  6
CONTINUOUS
 10
10.9095
 20
-28.7936
  0
VERTEX
  8
LAYER1
 62
     7
  6
CONTINUOUS
 10
10.9132
 20
-28.7938
  0
VERTEX
  8
LAYER1
 62
     7
  6
CONTINUOUS
 10
10.9170
 20
-28.7937
  0
VERTEX
  8
LAYER1
 62
     7
  6
CONTINUOUS
 10
10.9208
 20
-28.7935
  0
VERTEX
  8
LAYER1
 62
     7
  6
CONTINUOUS
 10
10.9247
 20
-28.7932
  0
VERTEX
  8
LAYER1
 62
     7
  6
CONTINUOUS
 10
10.9286
 20
-28.7927
  0
VERTEX
  8
LAYER1
 62
     7
  6
CONTINUOUS
 10
10.9326
 20
-28.7921
  0
VERTEX
  8
LAYER1
 62
     7
  6
CONTINUOUS
 10
10.9366
 20
-28.7915
  0
VERTEX
  8
LAYER1
 62
     7
  6
CONTINUOUS
 10
10.9407
 20
-28.7908
  0
VERTEX
  8
LAYER1
 62
     7
  6
CONTINUOUS
 10
10.9439
 20
-28.7902
  0
VERTEX
  8
LAYER1
 62
     7
  6
CONTINUOUS
 10
10.9471
 20
-28.7896
  0
VERTEX
  8
LAYER1
 62
     7
  6
CONTINUOUS
 10
10.9502
 20
-28.7891
  0
VERTEX
  8
LAYER1
 62
     7
  6
CONTINUOUS
 10
10.9534
 20
-28.7887
  0
VERTEX
  8
LAYER1
 62
     7
  6
CONTINUOUS
 10
10.9565
 20
-28.7883
  0
VERTEX
  8
LAYER1
 62
     7
  6
CONTINUOUS
 10
10.9595
 20
-28.7881
  0
VERTEX
  8
LAYER1
 62
     7
  6
CONTINUOUS
 10
10.9625
 20
-28.7880
  0
VERTEX
  8
LAYER1
 62
     7
  6
CONTINUOUS
 10
10.9654
 20
-28.7881
  0
VERTEX
  8
LAYER1
 62
     7
  6
CONTINUOUS
 10
10.9682
 20
-28.7884
  0
VERTEX
  8
LAYER1
 62
     7
  6
CONTINUOUS
 10
10.9709
 20
-28.7889
  0
VERTEX
  8
LAYER1
 62
     7
  6
CONTINUOUS
 10
10.9735
 20
-28.7898
  0
VERTEX
  8
LAYER1
 62
     7
  6
CONTINUOUS
 10
10.9759
 20
-28.7909
  0
VERTEX
  8
LAYER1
 62
     7
  6
CONTINUOUS
 10
10.9777
 20
-28.7921
  0
VERTEX
  8
LAYER1
 62
     7
  6
CONTINUOUS
 10
10.9795
 20
-28.7934
  0
VERTEX
  8
LAYER1
 62
     7
  6
CONTINUOUS
 10
10.9812
 20
-28.7949
  0
VERTEX
  8
LAYER1
 62
     7
  6
CONTINUOUS
 10
10.9828
 20
-28.7965
  0
VERTEX
  8
LAYER1
 62
     7
  6
CONTINUOUS
 10
10.9844
 20
-28.7983
  0
VERTEX
  8
LAYER1
 62
     7
  6
CONTINUOUS
 10
10.9859
 20
-28.8001
  0
VERTEX
  8
LAYER1
 62
     7
  6
CONTINUOUS
 10
10.9875
 20
-28.8020
  0
VERTEX
  8
LAYER1
 62
     7
  6
CONTINUOUS
 10
10.9891
 20
-28.8039
  0
VERTEX
  8
LAYER1
 62
     7
  6
CONTINUOUS
 10
10.9907
 20
-28.8058
  0
VERTEX
  8
LAYER1
 62
     7
  6
CONTINUOUS
 10
10.9924
 20
-28.8076
  0
VERTEX
  8
LAYER1
 62
     7
  6
CONTINUOUS
 10
10.9941
 20
-28.8094
  0
VERTEX
  8
LAYER1
 62
     7
  6
CONTINUOUS
 10
10.9959
 20
-28.8111
  0
VERTEX
  8
LAYER1
 62
     7
  6
CONTINUOUS
 10
10.9977
 20
-28.8126
  0
VERTEX
  8
LAYER1
 62
     7
  6
CONTINUOUS
 10
10.9996
 20
-28.8140
  0
VERTEX
  8
LAYER1
 62
     7
  6
CONTINUOUS
 10
11.0016
 20
-28.8153
  0
VERTEX
  8
LAYER1
 62
     7
  6
CONTINUOUS
 10
11.0037
 20
-28.8165
  0
VERTEX
  8
LAYER1
 62
     7
  6
CONTINUOUS
 10
11.0057
 20
-28.8176
  0
VERTEX
  8
LAYER1
 62
     7
  6
CONTINUOUS
 10
11.0079
 20
-28.8185
  0
VERTEX
  8
LAYER1
 62
     7
  6
CONTINUOUS
 10
11.0100
 20
-28.8193
  0
VERTEX
  8
LAYER1
 62
     7
  6
CONTINUOUS
 10
11.0122
 20
-28.8200
  0
VERTEX
  8
LAYER1
 62
     7
  6
CONTINUOUS
 10
11.0144
 20
-28.8205
  0
VERTEX
  8
LAYER1
 62
     7
  6
CONTINUOUS
 10
11.0166
 20
-28.8209
  0
VERTEX
  8
LAYER1
 62
     7
  6
CONTINUOUS
 10
11.0188
 20
-28.8211
  0
VERTEX
  8
LAYER1
 62
     7
  6
CONTINUOUS
 10
11.0210
 20
-28.8212
  0
VERTEX
  8
LAYER1
 62
     7
  6
CONTINUOUS
 10
11.0259
 20
-28.8210
  0
VERTEX
  8
LAYER1
 62
     7
  6
CONTINUOUS
 10
11.0306
 20
-28.8200
  0
VERTEX
  8
LAYER1
 62
     7
  6
CONTINUOUS
 10
11.0353
 20
-28.8185
  0
VERTEX
  8
LAYER1
 62
     7
  6
CONTINUOUS
 10
11.0398
 20
-28.8165
  0
VERTEX
  8
LAYER1
 62
     7
  6
CONTINUOUS
 10
11.0444
 20
-28.8142
  0
VERTEX
  8
LAYER1
 62
     7
  6
CONTINUOUS
 10
11.0489
 20
-28.8116
  0
VERTEX
  8
LAYER1
 62
     7
  6
CONTINUOUS
 10
11.0534
 20
-28.8089
  0
VERTEX
  8
LAYER1
 62
     7
  6
CONTINUOUS
 10
11.0579
 20
-28.8061
  0
VERTEX
  8
LAYER1
 62
     7
  6
CONTINUOUS
 10
11.0625
 20
-28.8033
  0
VERTEX
  8
LAYER1
 62
     7
  6
CONTINUOUS
 10
11.0670
 20
-28.8007
  0
VERTEX
  8
LAYER1
 62
     7
  6
CONTINUOUS
 10
11.0717
 20
-28.7983
  0
VERTEX
  8
LAYER1
 62
     7
  6
CONTINUOUS
 10
11.0764
 20
-28.7963
  0
VERTEX
  8
LAYER1
 62
     7
  6
CONTINUOUS
 10
11.0785
 20
-28.7956
  0
VERTEX
  8
LAYER1
 62
     7
  6
CONTINUOUS
 10
11.0805
 20
-28.7949
  0
VERTEX
  8
LAYER1
 62
     7
  6
CONTINUOUS
 10
11.0826
 20
-28.7943
  0
VERTEX
  8
LAYER1
 62
     7
  6
CONTINUOUS
 10
11.0846
 20
-28.7938
  0
VERTEX
  8
LAYER1
 62
     7
  6
CONTINUOUS
 10
11.0867
 20
-28.7934
  0
VERTEX
  8
LAYER1
 62
     7
  6
CONTINUOUS
 10
11.0888
 20
-28.7929
  0
VERTEX
  8
LAYER1
 62
     7
  6
CONTINUOUS
 10
11.0909
 20
-28.7926
  0
VERTEX
  8
LAYER1
 62
     7
  6
CONTINUOUS
 10
11.0930
 20
-28.7923
  0
VERTEX
  8
LAYER1
 62
     7
  6
CONTINUOUS
 10
11.0952
 20
-28.7920
  0
VERTEX
  8
LAYER1
 62
     7
  6
CONTINUOUS
 10
11.0973
 20
-28.7918
  0
VERTEX
  8
LAYER1
 62
     7
  6
CONTINUOUS
 10
11.0994
 20
-28.7916
  0
VERTEX
  8
LAYER1
 62
     7
  6
CONTINUOUS
 10
11.1016
 20
-28.7914
  0
VERTEX
  8
LAYER1
 62
     7
  6
CONTINUOUS
 10
11.1046
 20
-28.7912
  0
VERTEX
  8
LAYER1
 62
     7
  6
CONTINUOUS
 10
11.1076
 20
-28.7910
  0
VERTEX
  8
LAYER1
 62
     7
  6
CONTINUOUS
 10
11.1105
 20
-28.7908
  0
VERTEX
  8
LAYER1
 62
     7
  6
CONTINUOUS
 10
11.1135
 20
-28.7906
  0
VERTEX
  8
LAYER1
 62
     7
  6
CONTINUOUS
 10
11.1165
 20
-28.7903
  0
VERTEX
  8
LAYER1
 62
     7
  6
CONTINUOUS
 10
11.1195
 20
-28.7901
  0
VERTEX
  8
LAYER1
 62
     7
  6
CONTINUOUS
 10
11.1224
 20
-28.7897
  0
VERTEX
  8
LAYER1
 62
     7
  6
CONTINUOUS
 10
11.1253
 20
-28.7893
  0
VERTEX
  8
LAYER1
 62
     7
  6
CONTINUOUS
 10
11.1282
 20
-28.7888
  0
VERTEX
  8
LAYER1
 62
     7
  6
CONTINUOUS
 10
11.1311
 20
-28.7882
  0
VERTEX
  8
LAYER1
 62
     7
  6
CONTINUOUS
 10
11.1340
 20
-28.7874
  0
VERTEX
  8
LAYER1
 62
     7
  6
CONTINUOUS
 10
11.1368
 20
-28.7865
  0
VERTEX
  8
LAYER1
 62
     7
  6
CONTINUOUS
 10
11.1407
 20
-28.7849
  0
VERTEX
  8
LAYER1
 62
     7
  6
CONTINUOUS
 10
11.1445
 20
-28.7832
  0
VERTEX
  8
LAYER1
 62
     7
  6
CONTINUOUS
 10
11.1483
 20
-28.7812
  0
VERTEX
  8
LAYER1
 62
     7
  6
CONTINUOUS
 10
11.1520
 20
-28.7791
  0
VERTEX
  8
LAYER1
 62
     7
  6
CONTINUOUS
 10
11.1557
 20
-28.7769
  0
VERTEX
  8
LAYER1
 62
     7
  6
CONTINUOUS
 10
11.1594
 20
-28.7748
  0
VERTEX
  8
LAYER1
 62
     7
  6
CONTINUOUS
 10
11.1631
 20
-28.7728
  0
VERTEX
  8
LAYER1
 62
     7
  6
CONTINUOUS
 10
11.1669
 20
-28.7710
  0
VERTEX
  8
LAYER1
 62
     7
  6
CONTINUOUS
 10
11.1706
 20
-28.7693
  0
VERTEX
  8
LAYER1
 62
     7
  6
CONTINUOUS
 10
11.1744
 20
-28.7680
  0
VERTEX
  8
LAYER1
 62
     7
  6
CONTINUOUS
 10
11.1782
 20
-28.7670
  0
VERTEX
  8
LAYER1
 62
     7
  6
CONTINUOUS
 10
11.1821
 20
-28.7665
  0
VERTEX
  8
LAYER1
 62
     7
  6
CONTINUOUS
 10
11.1833
 20
-28.7665
  0
VERTEX
  8
LAYER1
 62
     7
  6
CONTINUOUS
 10
11.1845
 20
-28.7665
  0
VERTEX
  8
LAYER1
 62
     7
  6
CONTINUOUS
 10
11.1858
 20
-28.7665
  0
VERTEX
  8
LAYER1
 62
     7
  6
CONTINUOUS
 10
11.1870
 20
-28.7665
  0
VERTEX
  8
LAYER1
 62
     7
  6
CONTINUOUS
 10
11.1882
 20
-28.7665
  0
VERTEX
  8
LAYER1
 62
     7
  6
CONTINUOUS
 10
11.1895
 20
-28.7666
  0
VERTEX
  8
LAYER1
 62
     7
  6
CONTINUOUS
 10
11.1907
 20
-28.7666
  0
VERTEX
  8
LAYER1
 62
     7
  6
CONTINUOUS
 10
11.1920
 20
-28.7667
  0
VERTEX
  8
LAYER1
 62
     7
  6
CONTINUOUS
 10
11.1933
 20
-28.7667
  0
VERTEX
  8
LAYER1
 62
     7
  6
CONTINUOUS
 10
11.1946
 20
-28.7667
  0
VERTEX
  8
LAYER1
 62
     7
  6
CONTINUOUS
 10
11.1959
 20
-28.7667
  0
VERTEX
  8
LAYER1
 62
     7
  6
CONTINUOUS
 10
11.1972
 20
-28.7666
  0
VERTEX
  8
LAYER1
 62
     7
  6
CONTINUOUS
 10
11.1999
 20
-28.7663
  0
VERTEX
  8
LAYER1
 62
     7
  6
CONTINUOUS
 10
11.2026
 20
-28.7658
  0
VERTEX
  8
LAYER1
 62
     7
  6
CONTINUOUS
 10
11.2054
 20
-28.7653
  0
VERTEX
  8
LAYER1
 62
     7
  6
CONTINUOUS
 10
11.2081
 20
-28.7647
  0
VERTEX
  8
LAYER1
 62
     7
  6
CONTINUOUS
 10
11.2109
 20
-28.7642
  0
VERTEX
  8
LAYER1
 62
     7
  6
CONTINUOUS
 10
11.2135
 20
-28.7638
  0
VERTEX
  8
LAYER1
 62
     7
  6
CONTINUOUS
 10
11.2161
 20
-28.7635
  0
VERTEX
  8
LAYER1
 62
     7
  6
CONTINUOUS
 10
11.2187
 20
-28.7635
  0
VERTEX
  8
LAYER1
 62
     7
  6
CONTINUOUS
 10
11.2211
 20
-28.7637
  0
VERTEX
  8
LAYER1
 62
     7
  6
CONTINUOUS
 10
11.2233
 20
-28.7643
  0
VERTEX
  8
LAYER1
 62
     7
  6
CONTINUOUS
 10
11.2254
 20
-28.7653
  0
VERTEX
  8
LAYER1
 62
     7
  6
CONTINUOUS
 10
11.2274
 20
-28.7667
  0
VERTEX
  8
LAYER1
 62
     7
  6
CONTINUOUS
 10
11.2281
 20
-28.7674
  0
VERTEX
  8
LAYER1
 62
     7
  6
CONTINUOUS
 10
11.2287
 20
-28.7681
  0
VERTEX
  8
LAYER1
 62
     7
  6
CONTINUOUS
 10
11.2293
 20
-28.7689
  0
VERTEX
  8
LAYER1
 62
     7
  6
CONTINUOUS
 10
11.2299
 20
-28.7697
  0
VERTEX
  8
LAYER1
 62
     7
  6
CONTINUOUS
 10
11.2304
 20
-28.7705
  0
VERTEX
  8
LAYER1
 62
     7
  6
CONTINUOUS
 10
11.2308
 20
-28.7714
  0
VERTEX
  8
LAYER1
 62
     7
  6
CONTINUOUS
 10
11.2313
 20
-28.7723
  0
VERTEX
  8
LAYER1
 62
     7
  6
CONTINUOUS
 10
11.2316
 20
-28.7732
  0
VERTEX
  8
LAYER1
 62
     7
  6
CONTINUOUS
 10
11.2319
 20
-28.7741
  0
VERTEX
  8
LAYER1
 62
     7
  6
CONTINUOUS
 10
11.2321
 20
-28.7750
  0
VERTEX
  8
LAYER1
 62
     7
  6
CONTINUOUS
 10
11.2323
 20
-28.7759
  0
VERTEX
  8
LAYER1
 62
     7
  6
CONTINUOUS
 10
11.2324
 20
-28.7768
  0
VERTEX
  8
LAYER1
 62
     7
  6
CONTINUOUS
 10
11.2321
 20
-28.7791
  0
VERTEX
  8
LAYER1
 62
     7
  6
CONTINUOUS
 10
11.2312
 20
-28.7812
  0
VERTEX
  8
LAYER1
 62
     7
  6
CONTINUOUS
 10
11.2298
 20
-28.7830
  0
VERTEX
  8
LAYER1
 62
     7
  6
CONTINUOUS
 10
11.2278
 20
-28.7845
  0
VERTEX
  8
LAYER1
 62
     7
  6
CONTINUOUS
 10
11.2254
 20
-28.7858
  0
VERTEX
  8
LAYER1
 62
     7
  6
CONTINUOUS
 10
11.2226
 20
-28.7870
  0
VERTEX
  8
LAYER1
 62
     7
  6
CONTINUOUS
 10
11.2195
 20
-28.7880
  0
VERTEX
  8
LAYER1
 62
     7
  6
CONTINUOUS
 10
11.2162
 20
-28.7888
  0
VERTEX
  8
LAYER1
 62
     7
  6
CONTINUOUS
 10
11.2127
 20
-28.7896
  0
VERTEX
  8
LAYER1
 62
     7
  6
CONTINUOUS
 10
11.2092
 20
-28.7904
  0
VERTEX
  8
LAYER1
 62
     7
  6
CONTINUOUS
 10
11.2056
 20
-28.7911
  0
VERTEX
  8
LAYER1
 62
     7
  6
CONTINUOUS
 10
11.2021
 20
-28.7917
  0
VERTEX
  8
LAYER1
 62
     7
  6
CONTINUOUS
 10
11.1977
 20
-28.7927
  0
VERTEX
  8
LAYER1
 62
     7
  6
CONTINUOUS
 10
11.1935
 20
-28.7938
  0
VERTEX
  8
LAYER1
 62
     7
  6
CONTINUOUS
 10
11.1895
 20
-28.7949
  0
VERTEX
  8
LAYER1
 62
     7
  6
CONTINUOUS
 10
11.1857
 20
-28.7961
  0
VERTEX
  8
LAYER1
 62
     7
  6
CONTINUOUS
 10
11.1821
 20
-28.7975
  0
VERTEX
  8
LAYER1
 62
     7
  6
CONTINUOUS
 10
11.1787
 20
-28.7989
  0
VERTEX
  8
LAYER1
 62
     7
  6
CONTINUOUS
 10
11.1755
 20
-28.8006
  0
VERTEX
  8
LAYER1
 62
     7
  6
CONTINUOUS
 10
11.1725
 20
-28.8024
  0
VERTEX
  8
LAYER1
 62
     7
  6
CONTINUOUS
 10
11.1696
 20
-28.8044
  0
VERTEX
  8
LAYER1
 62
     7
  6
CONTINUOUS
 10
11.1669
 20
-28.8066
  0
VERTEX
  8
LAYER1
 62
     7
  6
CONTINUOUS
 10
11.1643
 20
-28.8090
  0
VERTEX
  8
LAYER1
 62
     7
  6
CONTINUOUS
 10
11.1618
 20
-28.8117
  0
VERTEX
  8
LAYER1
 62
     7
  6
CONTINUOUS
 10
11.1602
 20
-28.8138
  0
VERTEX
  8
LAYER1
 62
     7
  6
CONTINUOUS
 10
11.1586
 20
-28.8159
  0
VERTEX
  8
LAYER1
 62
     7
  6
CONTINUOUS
 10
11.1570
 20
-28.8182
  0
VERTEX
  8
LAYER1
 62
     7
  6
CONTINUOUS
 10
11.1554
 20
-28.8205
  0
VERTEX
  8
LAYER1
 62
     7
  6
CONTINUOUS
 10
11.1538
 20
-28.8228
  0
VERTEX
  8
LAYER1
 62
     7
  6
CONTINUOUS
 10
11.1523
 20
-28.8250
  0
VERTEX
  8
LAYER1
 62
     7
  6
CONTINUOUS
 10
11.1506
 20
-28.8273
  0
VERTEX
  8
LAYER1
 62
     7
  6
CONTINUOUS
 10
11.1490
 20
-28.8294
  0
VERTEX
  8
LAYER1
 62
     7
  6
CONTINUOUS
 10
11.1473
 20
-28.8315
  0
VERTEX
  8
LAYER1
 62
     7
  6
CONTINUOUS
 10
11.1455
 20
-28.8334
  0
VERTEX
  8
LAYER1
 62
     7
  6
CONTINUOUS
 10
11.1436
 20
-28.8352
  0
VERTEX
  8
LAYER1
 62
     7
  6
CONTINUOUS
 10
11.1416
 20
-28.8368
  0
VERTEX
  8
LAYER1
 62
     7
  6
CONTINUOUS
 10
11.1372
 20
-28.8394
  0
VERTEX
  8
LAYER1
 62
     7
  6
CONTINUOUS
 10
11.1324
 20
-28.8412
  0
VERTEX
  8
LAYER1
 62
     7
  6
CONTINUOUS
 10
11.1272
 20
-28.8423
  0
VERTEX
  8
LAYER1
 62
     7
  6
CONTINUOUS
 10
11.1216
 20
-28.8430
  0
VERTEX
  8
LAYER1
 62
     7
  6
CONTINUOUS
 10
11.1159
 20
-28.8432
  0
VERTEX
  8
LAYER1
 62
     7
  6
CONTINUOUS
 10
11.1101
 20
-28.8433
  0
VERTEX
  8
LAYER1
 62
     7
  6
CONTINUOUS
 10
11.1042
 20
-28.8432
  0
VERTEX
  8
LAYER1
 62
     7
  6
CONTINUOUS
 10
11.0983
 20
-28.8433
  0
VERTEX
  8
LAYER1
 62
     7
  6
CONTINUOUS
 10
11.0925
 20
-28.8435
  0
VERTEX
  8
LAYER1
 62
     7
  6
CONTINUOUS
 10
11.0868
 20
-28.8440
  0
VERTEX
  8
LAYER1
 62
     7
  6
CONTINUOUS
 10
11.0814
 20
-28.8450
  0
VERTEX
  8
LAYER1
 62
     7
  6
CONTINUOUS
 10
11.0762
 20
-28.8466
  0
VERTEX
  8
LAYER1
 62
     7
  6
CONTINUOUS
 10
11.0731
 20
-28.8480
  0
VERTEX
  8
LAYER1
 62
     7
  6
CONTINUOUS
 10
11.0702
 20
-28.8497
  0
VERTEX
  8
LAYER1
 62
     7
  6
CONTINUOUS
 10
11.0673
 20
-28.8517
  0
VERTEX
  8
LAYER1
 62
     7
  6
CONTINUOUS
 10
11.0646
 20
-28.8539
  0
VERTEX
  8
LAYER1
 62
     7
  6
CONTINUOUS
 10
11.0620
 20
-28.8563
  0
VERTEX
  8
LAYER1
 62
     7
  6
CONTINUOUS
 10
11.0595
 20
-28.8588
  0
VERTEX
  8
LAYER1
 62
     7
  6
CONTINUOUS
 10
11.0571
 20
-28.8616
  0
VERTEX
  8
LAYER1
 62
     7
  6
CONTINUOUS
 10
11.0548
 20
-28.8644
  0
VERTEX
  8
LAYER1
 62
     7
  6
CONTINUOUS
 10
11.0525
 20
-28.8674
  0
VERTEX
  8
LAYER1
 62
     7
  6
CONTINUOUS
 10
11.0503
 20
-28.8704
  0
VERTEX
  8
LAYER1
 62
     7
  6
CONTINUOUS
 10
11.0481
 20
-28.8735
  0
VERTEX
  8
LAYER1
 62
     7
  6
CONTINUOUS
 10
11.0460
 20
-28.8766
  0
VERTEX
  8
LAYER1
 62
     7
  6
CONTINUOUS
 10
11.0433
 20
-28.8805
  0
VERTEX
  8
LAYER1
 62
     7
  6
CONTINUOUS
 10
11.0406
 20
-28.8844
  0
VERTEX
  8
LAYER1
 62
     7
  6
CONTINUOUS
 10
11.0380
 20
-28.8883
  0
VERTEX
  8
LAYER1
 62
     7
  6
CONTINUOUS
 10
11.0353
 20
-28.8920
  0
VERTEX
  8
LAYER1
 62
     7
  6
CONTINUOUS
 10
11.0325
 20
-28.8957
  0
VERTEX
  8
LAYER1
 62
     7
  6
CONTINUOUS
 10
11.0297
 20
-28.8992
  0
VERTEX
  8
LAYER1
 62
     7
  6
CONTINUOUS
 10
11.0268
 20
-28.9026
  0
VERTEX
  8
LAYER1
 62
     7
  6
CONTINUOUS
 10
11.0239
 20
-28.9059
  0
VERTEX
  8
LAYER1
 62
     7
  6
CONTINUOUS
 10
11.0208
 20
-28.9089
  0
VERTEX
  8
LAYER1
 62
     7
  6
CONTINUOUS
 10
11.0175
 20
-28.9118
  0
VERTEX
  8
LAYER1
 62
     7
  6
CONTINUOUS
 10
11.0142
 20
-28.9144
  0
VERTEX
  8
LAYER1
 62
     7
  6
CONTINUOUS
 10
11.0106
 20
-28.9167
  0
VERTEX
  8
LAYER1
 62
     7
  6
CONTINUOUS
 10
11.0071
 20
-28.9187
  0
VERTEX
  8
LAYER1
 62
     7
  6
CONTINUOUS
 10
11.0033
 20
-28.9205
  0
VERTEX
  8
LAYER1
 62
     7
  6
CONTINUOUS
 10
10.9995
 20
-28.9220
  0
VERTEX
  8
LAYER1
 62
     7
  6
CONTINUOUS
 10
10.9954
 20
-28.9233
  0
VERTEX
  8
LAYER1
 62
     7
  6
CONTINUOUS
 10
10.9913
 20
-28.9244
  0
VERTEX
  8
LAYER1
 62
     7
  6
CONTINUOUS
 10
10.9871
 20
-28.9253
  0
VERTEX
  8
LAYER1
 62
     7
  6
CONTINUOUS
 10
10.9828
 20
-28.9260
  0
VERTEX
  8
LAYER1
 62
     7
  6
CONTINUOUS
 10
10.9784
 20
-28.9264
  0
VERTEX
  8
LAYER1
 62
     7
  6
CONTINUOUS
 10
10.9739
 20
-28.9267
  0
VERTEX
  8
LAYER1
 62
     7
  6
CONTINUOUS
 10
10.9694
 20
-28.9269
  0
VERTEX
  8
LAYER1
 62
     7
  6
CONTINUOUS
 10
10.9649
 20
-28.9268
  0
VERTEX
  8
LAYER1
 62
     7
  6
CONTINUOUS
 10
10.9603
 20
-28.9266
  0
VERTEX
  8
LAYER1
 62
     7
  6
CONTINUOUS
 10
10.9565
 20
-28.9263
  0
VERTEX
  8
LAYER1
 62
     7
  6
CONTINUOUS
 10
10.9526
 20
-28.9259
  0
VERTEX
  8
LAYER1
 62
     7
  6
CONTINUOUS
 10
10.9489
 20
-28.9254
  0
VERTEX
  8
LAYER1
 62
     7
  6
CONTINUOUS
 10
10.9451
 20
-28.9247
  0
VERTEX
  8
LAYER1
 62
     7
  6
CONTINUOUS
 10
10.9415
 20
-28.9238
  0
VERTEX
  8
LAYER1
 62
     7
  6
CONTINUOUS
 10
10.9380
 20
-28.9228
  0
VERTEX
  8
LAYER1
 62
     7
  6
CONTINUOUS
 10
10.9345
 20
-28.9215
  0
VERTEX
  8
LAYER1
 62
     7
  6
CONTINUOUS
 10
10.9313
 20
-28.9200
  0
VERTEX
  8
LAYER1
 62
     7
  6
CONTINUOUS
 10
10.9282
 20
-28.9183
  0
VERTEX
  8
LAYER1
 62
     7
  6
CONTINUOUS
 10
10.9253
 20
-28.9162
  0
SEQEND
  8
LAYER1
  0
POLYLINE
  8
LAYER1
 62
     7
 66
     1
  6
CONTINUOUS
  0
VERTEX
  8
LAYER1
 62
     7
  6
CONTINUOUS
 10
10.9253
 20
-28.9162
  0
VERTEX
  8
LAYER1
 62
     7
  6
CONTINUOUS
 10
10.9226
 20
-28.9140
  0
VERTEX
  8
LAYER1
 62
     7
  6
CONTINUOUS
 10
10.9201
 20
-28.9114
  0
VERTEX
  8
LAYER1
 62
     7
  6
CONTINUOUS
 10
10.9188
 20
-28.9097
  0
VERTEX
  8
LAYER1
 62
     7
  6
CONTINUOUS
 10
10.9176
 20
-28.9080
  0
VERTEX
  8
LAYER1
 62
     7
  6
CONTINUOUS
 10
10.9164
 20
-28.9062
  0
VERTEX
  8
LAYER1
 62
     7
  6
CONTINUOUS
 10
10.9152
 20
-28.9044
  0
VERTEX
  8
LAYER1
 62
     7
  6
CONTINUOUS
 10
10.9141
 20
-28.9025
  0
VERTEX
  8
LAYER1
 62
     7
  6
CONTINUOUS
 10
10.9129
 20
-28.9007
  0
VERTEX
  8
LAYER1
 62
     7
  6
CONTINUOUS
 10
10.9118
 20
-28.8989
  0
VERTEX
  8
LAYER1
 62
     7
  6
CONTINUOUS
 10
10.9106
 20
-28.8972
  0
VERTEX
  8
LAYER1
 62
     7
  6
CONTINUOUS
 10
10.9094
 20
-28.8955
  0
VERTEX
  8
LAYER1
 62
     7
  6
CONTINUOUS
 10
10.9080
 20
-28.8939
  0
VERTEX
  8
LAYER1
 62
     7
  6
CONTINUOUS
 10
10.9066
 20
-28.8925
  0
VERTEX
  8
LAYER1
 62
     7
  6
CONTINUOUS
 10
10.9051
 20
-28.8912
  0
VERTEX
  8
LAYER1
 62
     7
  6
CONTINUOUS
 10
10.9027
 20
-28.8896
  0
VERTEX
  8
LAYER1
 62
     7
  6
CONTINUOUS
 10
10.9001
 20
-28.8884
  0
VERTEX
  8
LAYER1
 62
     7
  6
CONTINUOUS
 10
10.8973
 20
-28.8874
  0
VERTEX
  8
LAYER1
 62
     7
  6
CONTINUOUS
 10
10.8943
 20
-28.8866
  0
VERTEX
  8
LAYER1
 62
     7
  6
CONTINUOUS
 10
10.8912
 20
-28.8860
  0
VERTEX
  8
LAYER1
 62
     7
  6
CONTINUOUS
 10
10.8881
 20
-28.8854
  0
VERTEX
  8
LAYER1
 62
     7
  6
CONTINUOUS
 10
10.8849
 20
-28.8849
  0
VERTEX
  8
LAYER1
 62
     7
  6
CONTINUOUS
 10
10.8818
 20
-28.8844
  0
VERTEX
  8
LAYER1
 62
     7
  6
CONTINUOUS
 10
10.8787
 20
-28.8838
  0
VERTEX
  8
LAYER1
 62
     7
  6
CONTINUOUS
 10
10.8756
 20
-28.8831
  0
VERTEX
  8
LAYER1
 62
     7
  6
CONTINUOUS
 10
10.8727
 20
-28.8822
  0
VERTEX
  8
LAYER1
 62
     7
  6
CONTINUOUS
 10
10.8700
 20
-28.8810
  0
VERTEX
  8
LAYER1
 62
     7
  6
CONTINUOUS
 10
10.8670
 20
-28.8793
  0
VERTEX
  8
LAYER1
 62
     7
  6
CONTINUOUS
 10
10.8642
 20
-28.8773
  0
VERTEX
  8
LAYER1
 62
     7
  6
CONTINUOUS
 10
10.8617
 20
-28.8749
  0
VERTEX
  8
LAYER1
 62
     7
  6
CONTINUOUS
 10
10.8594
 20
-28.8722
  0
VERTEX
  8
LAYER1
 62
     7
  6
CONTINUOUS
 10
10.8573
 20
-28.8693
  0
VERTEX
  8
LAYER1
 62
     7
  6
CONTINUOUS
 10
10.8553
 20
-28.8662
  0
VERTEX
  8
LAYER1
 62
     7
  6
CONTINUOUS
 10
10.8534
 20
-28.8629
  0
VERTEX
  8
LAYER1
 62
     7
  6
CONTINUOUS
 10
10.8516
 20
-28.8595
  0
VERTEX
  8
LAYER1
 62
     7
  6
CONTINUOUS
 10
10.8499
 20
-28.8561
  0
VERTEX
  8
LAYER1
 62
     7
  6
CONTINUOUS
 10
10.8483
 20
-28.8526
  0
VERTEX
  8
LAYER1
 62
     7
  6
CONTINUOUS
 10
10.8466
 20
-28.8492
  0
VERTEX
  8
LAYER1
 62
     7
  6
CONTINUOUS
 10
10.8450
 20
-28.8457
  0
VERTEX
  8
LAYER1
 62
     7
  6
CONTINUOUS
 10
10.8438
 20
-28.8435
  0
VERTEX
  8
LAYER1
 62
     7
  6
CONTINUOUS
 10
10.8426
 20
-28.8413
  0
VERTEX
  8
LAYER1
 62
     7
  6
CONTINUOUS
 10
10.8415
 20
-28.8391
  0
VERTEX
  8
LAYER1
 62
     7
  6
CONTINUOUS
 10
10.8403
 20
-28.8369
  0
VERTEX
  8
LAYER1
 62
     7
  6
CONTINUOUS
 10
10.8390
 20
-28.8348
  0
VERTEX
  8
LAYER1
 62
     7
  6
CONTINUOUS
 10
10.8378
 20
-28.8327
  0
VERTEX
  8
LAYER1
 62
     7
  6
CONTINUOUS
 10
10.8365
 20
-28.8307
  0
VERTEX
  8
LAYER1
 62
     7
  6
CONTINUOUS
 10
10.8353
 20
-28.8286
  0
VERTEX
  8
LAYER1
 62
     7
  6
CONTINUOUS
 10
10.8340
 20
-28.8266
  0
VERTEX
  8
LAYER1
 62
     7
  6
CONTINUOUS
 10
10.8326
 20
-28.8246
  0
VERTEX
  8
LAYER1
 62
     7
  6
CONTINUOUS
 10
10.8313
 20
-28.8226
  0
VERTEX
  8
LAYER1
 62
     7
  6
CONTINUOUS
 10
10.8300
 20
-28.8206
  0
VERTEX
  8
LAYER1
 62
     7
  6
CONTINUOUS
 10
10.8281
 20
-28.8179
  0
VERTEX
  8
LAYER1
 62
     7
  6
CONTINUOUS
 10
10.8262
 20
-28.8152
  0
VERTEX
  8
LAYER1
 62
     7
  6
CONTINUOUS
 10
10.8243
 20
-28.8125
  0
VERTEX
  8
LAYER1
 62
     7
  6
CONTINUOUS
 10
10.8224
 20
-28.8099
  0
VERTEX
  8
LAYER1
 62
     7
  6
CONTINUOUS
 10
10.8204
 20
-28.8073
  0
VERTEX
  8
LAYER1
 62
     7
  6
CONTINUOUS
 10
10.8183
 20
-28.8047
  0
VERTEX
  8
LAYER1
 62
     7
  6
CONTINUOUS
 10
10.8162
 20
-28.8022
  0
VERTEX
  8
LAYER1
 62
     7
  6
CONTINUOUS
 10
10.8141
 20
-28.7997
  0
VERTEX
  8
LAYER1
 62
     7
  6
CONTINUOUS
 10
10.8119
 20
-28.7972
  0
VERTEX
  8
LAYER1
 62
     7
  6
CONTINUOUS
 10
10.8096
 20
-28.7949
  0
VERTEX
  8
LAYER1
 62
     7
  6
CONTINUOUS
 10
10.8073
 20
-28.7925
  0
VERTEX
  8
LAYER1
 62
     7
  6
CONTINUOUS
 10
10.8049
 20
-28.7903
  0
VERTEX
  8
LAYER1
 62
     7
  6
CONTINUOUS
 10
10.8030
 20
-28.7885
  0
VERTEX
  8
LAYER1
 62
     7
  6
CONTINUOUS
 10
10.8009
 20
-28.7868
  0
VERTEX
  8
LAYER1
 62
     7
  6
CONTINUOUS
 10
10.7989
 20
-28.7851
  0
VERTEX
  8
LAYER1
 62
     7
  6
CONTINUOUS
 10
10.7968
 20
-28.7834
  0
VERTEX
  8
LAYER1
 62
     7
  6
CONTINUOUS
 10
10.7947
 20
-28.7817
  0
VERTEX
  8
LAYER1
 62
     7
  6
CONTINUOUS
 10
10.7926
 20
-28.7801
  0
VERTEX
  8
LAYER1
 62
     7
  6
CONTINUOUS
 10
10.7904
 20
-28.7785
  0
VERTEX
  8
LAYER1
 62
     7
  6
CONTINUOUS
 10
10.7883
 20
-28.7768
  0
VERTEX
  8
LAYER1
 62
     7
  6
CONTINUOUS
 10
10.7862
 20
-28.7752
  0
VERTEX
  8
LAYER1
 62
     7
  6
CONTINUOUS
 10
10.7841
 20
-28.7735
  0
VERTEX
  8
LAYER1
 62
     7
  6
CONTINUOUS
 10
10.7820
 20
-28.7718
  0
VERTEX
  8
LAYER1
 62
     7
  6
CONTINUOUS
 10
10.7799
 20
-28.7701
  0
VERTEX
  8
LAYER1
 62
     7
  6
CONTINUOUS
 10
10.7771
 20
-28.7677
  0
VERTEX
  8
LAYER1
 62
     7
  6
CONTINUOUS
 10
10.7744
 20
-28.7653
  0
VERTEX
  8
LAYER1
 62
     7
  6
CONTINUOUS
 10
10.7718
 20
-28.7629
  0
VERTEX
  8
LAYER1
 62
     7
  6
CONTINUOUS
 10
10.7692
 20
-28.7603
  0
VERTEX
  8
LAYER1
 62
     7
  6
CONTINUOUS
 10
10.7666
 20
-28.7578
  0
VERTEX
  8
LAYER1
 62
     7
  6
CONTINUOUS
 10
10.7641
 20
-28.7552
  0
VERTEX
  8
LAYER1
 62
     7
  6
CONTINUOUS
 10
10.7616
 20
-28.7526
  0
VERTEX
  8
LAYER1
 62
     7
  6
CONTINUOUS
 10
10.7591
 20
-28.7500
  0
VERTEX
  8
LAYER1
 62
     7
  6
CONTINUOUS
 10
10.7567
 20
-28.7474
  0
VERTEX
  8
LAYER1
 62
     7
  6
CONTINUOUS
 10
10.7544
 20
-28.7449
  0
VERTEX
  8
LAYER1
 62
     7
  6
CONTINUOUS
 10
10.7521
 20
-28.7423
  0
VERTEX
  8
LAYER1
 62
     7
  6
CONTINUOUS
 10
10.7498
 20
-28.7398
  0
VERTEX
  8
LAYER1
 62
     7
  6
CONTINUOUS
 10
10.7485
 20
-28.7383
  0
VERTEX
  8
LAYER1
 62
     7
  6
CONTINUOUS
 10
10.7472
 20
-28.7369
  0
VERTEX
  8
LAYER1
 62
     7
  6
CONTINUOUS
 10
10.7459
 20
-28.7354
  0
VERTEX
  8
LAYER1
 62
     7
  6
CONTINUOUS
 10
10.7446
 20
-28.7339
  0
VERTEX
  8
LAYER1
 62
     7
  6
CONTINUOUS
 10
10.7434
 20
-28.7324
  0
VERTEX
  8
LAYER1
 62
     7
  6
CONTINUOUS
 10
10.7421
 20
-28.7308
  0
VERTEX
  8
LAYER1
 62
     7
  6
CONTINUOUS
 10
10.7409
 20
-28.7292
  0
VERTEX
  8
LAYER1
 62
     7
  6
CONTINUOUS
 10
10.7397
 20
-28.7275
  0
VERTEX
  8
LAYER1
 62
     7
  6
CONTINUOUS
 10
10.7384
 20
-28.7257
  0
VERTEX
  8
LAYER1
 62
     7
  6
CONTINUOUS
 10
10.7372
 20
-28.7238
  0
VERTEX
  8
LAYER1
 62
     7
  6
CONTINUOUS
 10
10.7360
 20
-28.7218
  0
VERTEX
  8
LAYER1
 62
     7
  6
CONTINUOUS
 10
10.7348
 20
-28.7196
  0
VERTEX
  8
LAYER1
 62
     7
  6
CONTINUOUS
 10
10.7328
 20
-28.7159
  0
VERTEX
  8
LAYER1
 62
     7
  6
CONTINUOUS
 10
10.7309
 20
-28.7118
  0
VERTEX
  8
LAYER1
 62
     7
  6
CONTINUOUS
 10
10.7291
 20
-28.7076
  0
VERTEX
  8
LAYER1
 62
     7
  6
CONTINUOUS
 10
10.7275
 20
-28.7034
  0
VERTEX
  8
LAYER1
 62
     7
  6
CONTINUOUS
 10
10.7260
 20
-28.6991
  0
VERTEX
  8
LAYER1
 62
     7
  6
CONTINUOUS
 10
10.7248
 20
-28.6951
  0
VERTEX
  8
LAYER1
 62
     7
  6
CONTINUOUS
 10
10.7238
 20
-28.6912
  0
VERTEX
  8
LAYER1
 62
     7
  6
CONTINUOUS
 10
10.7232
 20
-28.6878
  0
VERTEX
  8
LAYER1
 62
     7
  6
CONTINUOUS
 10
10.7230
 20
-28.6847
  0
VERTEX
  8
LAYER1
 62
     7
  6
CONTINUOUS
 10
10.7231
 20
-28.6823
  0
VERTEX
  8
LAYER1
 62
     7
  6
CONTINUOUS
 10
10.7238
 20
-28.6804
  0
VERTEX
  8
LAYER1
 62
     7
  6
CONTINUOUS
 10
10.7249
 20
-28.6794
  0
SEQEND
  8
LAYER1
  0
ARC
  8
LAYER1
 62
     7
  6
CONTINUOUS
 10
10.3862
 20
-28.4821
 40
0.0153
 50
-171.7410
 51
-80.7387
  0
ARC
  8
LAYER1
 62
     7
  6
CONTINUOUS
 10
10.3423
 20
-28.7936
 40
0.0181
 50
-90.8380
 51
-33.8857
  0
ARC
  8
LAYER1
 62
     7
  6
CONTINUOUS
 10
10.3862
 20
-28.4821
 40
0.0153
 50
-80.7434
 51
-8.2580
  0
POLYLINE
  8
LAYER1
 62
     7
 66
     1
  6
CONTINUOUS
  0
VERTEX
  8
LAYER1
 62
     7
  6
CONTINUOUS
 10
11.3255
 20
-28.8498
  0
VERTEX
  8
LAYER1
 62
     7
  6
CONTINUOUS
 10
11.3239
 20
-28.8494
  0
VERTEX
  8
LAYER1
 62
     7
  6
CONTINUOUS
 10
11.3223
 20
-28.8490
  0
VERTEX
  8
LAYER1
 62
     7
  6
CONTINUOUS
 10
11.3207
 20
-28.8486
  0
VERTEX
  8
LAYER1
 62
     7
  6
CONTINUOUS
 10
11.3192
 20
-28.8481
  0
VERTEX
  8
LAYER1
 62
     7
  6
CONTINUOUS
 10
11.3176
 20
-28.8476
  0
VERTEX
  8
LAYER1
 62
     7
  6
CONTINUOUS
 10
11.3161
 20
-28.8471
  0
VERTEX
  8
LAYER1
 62
     7
  6
CONTINUOUS
 10
11.3146
 20
-28.8465
  0
VERTEX
  8
LAYER1
 62
     7
  6
CONTINUOUS
 10
11.3131
 20
-28.8459
  0
VERTEX
  8
LAYER1
 62
     7
  6
CONTINUOUS
 10
11.3117
 20
-28.8451
  0
VERTEX
  8
LAYER1
 62
     7
  6
CONTINUOUS
 10
11.3103
 20
-28.8443
  0
VERTEX
  8
LAYER1
 62
     7
  6
CONTINUOUS
 10
11.3089
 20
-28.8434
  0
VERTEX
  8
LAYER1
 62
     7
  6
CONTINUOUS
 10
11.3075
 20
-28.8424
  0
VERTEX
  8
LAYER1
 62
     7
  6
CONTINUOUS
 10
11.3058
 20
-28.8408
  0
VERTEX
  8
LAYER1
 62
     7
  6
CONTINUOUS
 10
11.3041
 20
-28.8390
  0
VERTEX
  8
LAYER1
 62
     7
  6
CONTINUOUS
 10
11.3026
 20
-28.8371
  0
VERTEX
  8
LAYER1
 62
     7
  6
CONTINUOUS
 10
11.3012
 20
-28.8350
  0
VERTEX
  8
LAYER1
 62
     7
  6
CONTINUOUS
 10
11.2999
 20
-28.8328
  0
VERTEX
  8
LAYER1
 62
     7
  6
CONTINUOUS
 10
11.2989
 20
-28.8306
  0
VERTEX
  8
LAYER1
 62
     7
  6
CONTINUOUS
 10
11.2980
 20
-28.8283
  0
VERTEX
  8
LAYER1
 62
     7
  6
CONTINUOUS
 10
11.2974
 20
-28.8260
  0
VERTEX
  8
LAYER1
 62
     7
  6
CONTINUOUS
 10
11.2971
 20
-28.8237
  0
VERTEX
  8
LAYER1
 62
     7
  6
CONTINUOUS
 10
11.2969
 20
-28.8214
  0
VERTEX
  8
LAYER1
 62
     7
  6
CONTINUOUS
 10
11.2971
 20
-28.8193
  0
VERTEX
  8
LAYER1
 62
     7
  6
CONTINUOUS
 10
11.2976
 20
-28.8172
  0
VERTEX
  8
LAYER1
 62
     7
  6
CONTINUOUS
 10
11.2981
 20
-28.8159
  0
VERTEX
  8
LAYER1
 62
     7
  6
CONTINUOUS
 10
11.2987
 20
-28.8147
  0
VERTEX
  8
LAYER1
 62
     7
  6
CONTINUOUS
 10
11.2994
 20
-28.8135
  0
VERTEX
  8
LAYER1
 62
     7
  6
CONTINUOUS
 10
11.3002
 20
-28.8123
  0
VERTEX
  8
LAYER1
 62
     7
  6
CONTINUOUS
 10
11.3011
 20
-28.8111
  0
VERTEX
  8
LAYER1
 62
     7
  6
CONTINUOUS
 10
11.3020
 20
-28.8099
  0
VERTEX
  8
LAYER1
 62
     7
  6
CONTINUOUS
 10
11.3030
 20
-28.8087
  0
VERTEX
  8
LAYER1
 62
     7
  6
CONTINUOUS
 10
11.3040
 20
-28.8075
  0
VERTEX
  8
LAYER1
 62
     7
  6
CONTINUOUS
 10
11.3050
 20
-28.8063
  0
VERTEX
  8
LAYER1
 62
     7
  6
CONTINUOUS
 10
11.3059
 20
-28.8050
  0
VERTEX
  8
LAYER1
 62
     7
  6
CONTINUOUS
 10
11.3068
 20
-28.8036
  0
VERTEX
  8
LAYER1
 62
     7
  6
CONTINUOUS
 10
11.3077
 20
-28.8022
  0
VERTEX
  8
LAYER1
 62
     7
  6
CONTINUOUS
 10
11.3089
 20
-28.7997
  0
VERTEX
  8
LAYER1
 62
     7
  6
CONTINUOUS
 10
11.3100
 20
-28.7971
  0
VERTEX
  8
LAYER1
 62
     7
  6
CONTINUOUS
 10
11.3110
 20
-28.7944
  0
VERTEX
  8
LAYER1
 62
     7
  6
CONTINUOUS
 10
11.3119
 20
-28.7917
  0
VERTEX
  8
LAYER1
 62
     7
  6
CONTINUOUS
 10
11.3129
 20
-28.7890
  0
VERTEX
  8
LAYER1
 62
     7
  6
CONTINUOUS
 10
11.3138
 20
-28.7864
  0
VERTEX
  8
LAYER1
 62
     7
  6
CONTINUOUS
 10
11.3148
 20
-28.7840
  0
VERTEX
  8
LAYER1
 62
     7
  6
CONTINUOUS
 10
11.3160
 20
-28.7819
  0
VERTEX
  8
LAYER1
 62
     7
  6
CONTINUOUS
 10
11.3173
 20
-28.7800
  0
VERTEX
  8
LAYER1
 62
     7
  6
CONTINUOUS
 10
11.3189
 20
-28.7786
  0
VERTEX
  8
LAYER1
 62
     7
  6
CONTINUOUS
 10
11.3207
 20
-28.7776
  0
VERTEX
  8
LAYER1
 62
     7
  6
CONTINUOUS
 10
11.3229
 20
-28.7771
  0
VERTEX
  8
LAYER1
 62
     7
  6
CONTINUOUS
 10
11.3231
 20
-28.7771
  0
VERTEX
  8
LAYER1
 62
     7
  6
CONTINUOUS
 10
11.3233
 20
-28.7771
  0
VERTEX
  8
LAYER1
 62
     7
  6
CONTINUOUS
 10
11.3235
 20
-28.7771
  0
VERTEX
  8
LAYER1
 62
     7
  6
CONTINUOUS
 10
11.3237
 20
-28.7771
  0
VERTEX
  8
LAYER1
 62
     7
  6
CONTINUOUS
 10
11.3239
 20
-28.7771
  0
VERTEX
  8
LAYER1
 62
     7
  6
CONTINUOUS
 10
11.3241
 20
-28.7771
  0
VERTEX
  8
LAYER1
 62
     7
  6
CONTINUOUS
 10
11.3244
 20
-28.7771
  0
VERTEX
  8
LAYER1
 62
     7
  6
CONTINUOUS
 10
11.3246
 20
-28.7771
  0
VERTEX
  8
LAYER1
 62
     7
  6
CONTINUOUS
 10
11.3248
 20
-28.7771
  0
VERTEX
  8
LAYER1
 62
     7
  6
CONTINUOUS
 10
11.3250
 20
-28.7771
  0
VERTEX
  8
LAYER1
 62
     7
  6
CONTINUOUS
 10
11.3252
 20
-28.7771
  0
VERTEX
  8
LAYER1
 62
     7
  6
CONTINUOUS
 10
11.3255
 20
-28.7771
  0
SEQEND
  8
LAYER1
  0
ARC
  8
LAYER1
 62
     7
  6
CONTINUOUS
 10
10.3423
 20
-28.7936
 40
0.0181
 50
-33.8857
 51
90.8380
  0
ARC
  8
LAYER1
 62
     7
  6
CONTINUOUS
 10
10.5120
 20
-28.4674
 40
0.0232
 50
-138.3124
 51
-46.5438
  0
ARC
  8
LAYER1
 62
     7
  6
CONTINUOUS
 10
10.3423
 20
-28.7936
 40
0.0181
 50
-90.8380
 51
96.0249
  0
POLYLINE
  8
LAYER10
 62
     1
 66
     1
  6
CONTINUOUS
  0
VERTEX
  8
LAYER10
 62
     1
  6
CONTINUOUS
 10
11.0354
 20
-29.0124
  0
VERTEX
  8
LAYER10
 62
     1
  6
CONTINUOUS
 10
11.0391
 20
-29.0145
  0
VERTEX
  8
LAYER10
 62
     1
  6
CONTINUOUS
 10
11.0422
 20
-29.0174
  0
VERTEX
  8
LAYER10
 62
     1
  6
CONTINUOUS
 10
11.0450
 20
-29.0209
  0
VERTEX
  8
LAYER10
 62
     1
  6
CONTINUOUS
 10
11.0473
 20
-29.0251
  0
VERTEX
  8
LAYER10
 62
     1
  6
CONTINUOUS
 10
11.0493
 20
-29.0297
  0
VERTEX
  8
LAYER10
 62
     1
  6
CONTINUOUS
 10
11.0511
 20
-29.0347
  0
VERTEX
  8
LAYER10
 62
     1
  6
CONTINUOUS
 10
11.0527
 20
-29.0400
  0
VERTEX
  8
LAYER10
 62
     1
  6
CONTINUOUS
 10
11.0542
 20
-29.0455
  0
VERTEX
  8
LAYER10
 62
     1
  6
CONTINUOUS
 10
11.0557
 20
-29.0511
  0
VERTEX
  8
LAYER10
 62
     1
  6
CONTINUOUS
 10
11.0571
 20
-29.0568
  0
VERTEX
  8
LAYER10
 62
     1
  6
CONTINUOUS
 10
11.0587
 20
-29.0624
  0
VERTEX
  8
LAYER10
 62
     1
  6
CONTINUOUS
 10
11.0604
 20
-29.0678
  0
VERTEX
  8
LAYER10
 62
     1
  6
CONTINUOUS
 10
11.0617
 20
-29.0715
  0
VERTEX
  8
LAYER10
 62
     1
  6
CONTINUOUS
 10
11.0631
 20
-29.0750
  0
VERTEX
  8
LAYER10
 62
     1
  6
CONTINUOUS
 10
11.0647
 20
-29.0785
  0
VERTEX
  8
LAYER10
 62
     1
  6
CONTINUOUS
 10
11.0663
 20
-29.0818
  0
VERTEX
  8
LAYER10
 62
     1
  6
CONTINUOUS
 10
11.0682
 20
-29.0849
  0
VERTEX
  8
LAYER10
 62
     1
  6
CONTINUOUS
 10
11.0701
 20
-29.0880
  0
VERTEX
  8
LAYER10
 62
     1
  6
CONTINUOUS
 10
11.0722
 20
-29.0908
  0
VERTEX
  8
LAYER10
 62
     1
  6
CONTINUOUS
 10
11.0745
 20
-29.0936
  0
VERTEX
  8
LAYER10
 62
     1
  6
CONTINUOUS
 10
11.0770
 20
-29.0962
  0
VERTEX
  8
LAYER10
 62
     1
  6
CONTINUOUS
 10
11.0796
 20
-29.0986
  0
VERTEX
  8
LAYER10
 62
     1
  6
CONTINUOUS
 10
11.0824
 20
-29.1009
  0
VERTEX
  8
LAYER10
 62
     1
  6
CONTINUOUS
 10
11.0854
 20
-29.1030
  0
VERTEX
  8
LAYER10
 62
     1
  6
CONTINUOUS
 10
11.0880
 20
-29.1047
  0
VERTEX
  8
LAYER10
 62
     1
  6
CONTINUOUS
 10
11.0908
 20
-29.1063
  0
VERTEX
  8
LAYER10
 62
     1
  6
CONTINUOUS
 10
11.0936
 20
-29.1079
  0
VERTEX
  8
LAYER10
 62
     1
  6
CONTINUOUS
 10
11.0964
 20
-29.1094
  0
VERTEX
  8
LAYER10
 62
     1
  6
CONTINUOUS
 10
11.0992
 20
-29.1109
  0
VERTEX
  8
LAYER10
 62
     1
  6
CONTINUOUS
 10
11.1020
 20
-29.1124
  0
VERTEX
  8
LAYER10
 62
     1
  6
CONTINUOUS
 10
11.1047
 20
-29.1140
  0
VERTEX
  8
LAYER10
 62
     1
  6
CONTINUOUS
 10
11.1073
 20
-29.1156
  0
VERTEX
  8
LAYER10
 62
     1
  6
CONTINUOUS
 10
11.1097
 20
-29.1173
  0
VERTEX
  8
LAYER10
 62
     1
  6
CONTINUOUS
 10
11.1118
 20
-29.1192
  0
VERTEX
  8
LAYER10
 62
     1
  6
CONTINUOUS
 10
11.1138
 20
-29.1211
  0
VERTEX
  8
LAYER10
 62
     1
  6
CONTINUOUS
 10
11.1155
 20
-29.1233
  0
VERTEX
  8
LAYER10
 62
     1
  6
CONTINUOUS
 10
11.1171
 20
-29.1262
  0
VERTEX
  8
LAYER10
 62
     1
  6
CONTINUOUS
 10
11.1183
 20
-29.1294
  0
VERTEX
  8
LAYER10
 62
     1
  6
CONTINUOUS
 10
11.1192
 20
-29.1329
  0
VERTEX
  8
LAYER10
 62
     1
  6
CONTINUOUS
 10
11.1197
 20
-29.1365
  0
VERTEX
  8
LAYER10
 62
     1
  6
CONTINUOUS
 10
11.1200
 20
-29.1403
  0
VERTEX
  8
LAYER10
 62
     1
  6
CONTINUOUS
 10
11.1201
 20
-29.1442
  0
VERTEX
  8
LAYER10
 62
     1
  6
CONTINUOUS
 10
11.1201
 20
-29.1483
  0
VERTEX
  8
LAYER10
 62
     1
  6
CONTINUOUS
 10
11.1200
 20
-29.1523
  0
VERTEX
  8
LAYER10
 62
     1
  6
CONTINUOUS
 10
11.1199
 20
-29.1564
  0
VERTEX
  8
LAYER10
 62
     1
  6
CONTINUOUS
 10
11.1199
 20
-29.1605
  0
VERTEX
  8
LAYER10
 62
     1
  6
CONTINUOUS
 10
11.1200
 20
-29.1646
  0
VERTEX
  8
LAYER10
 62
     1
  6
CONTINUOUS
 10
11.1203
 20
-29.1685
  0
VERTEX
  8
LAYER10
 62
     1
  6
CONTINUOUS
 10
11.1210
 20
-29.1731
  0
VERTEX
  8
LAYER10
 62
     1
  6
CONTINUOUS
 10
11.1220
 20
-29.1775
  0
VERTEX
  8
LAYER10
 62
     1
  6
CONTINUOUS
 10
11.1233
 20
-29.1819
  0
VERTEX
  8
LAYER10
 62
     1
  6
CONTINUOUS
 10
11.1248
 20
-29.1861
  0
VERTEX
  8
LAYER10
 62
     1
  6
CONTINUOUS
 10
11.1265
 20
-29.1902
  0
VERTEX
  8
LAYER10
 62
     1
  6
CONTINUOUS
 10
11.1283
 20
-29.1943
  0
VERTEX
  8
LAYER10
 62
     1
  6
CONTINUOUS
 10
11.1303
 20
-29.1983
  0
VERTEX
  8
LAYER10
 62
     1
  6
CONTINUOUS
 10
11.1323
 20
-29.2024
  0
VERTEX
  8
LAYER10
 62
     1
  6
CONTINUOUS
 10
11.1344
 20
-29.2064
  0
VERTEX
  8
LAYER10
 62
     1
  6
CONTINUOUS
 10
11.1364
 20
-29.2105
  0
VERTEX
  8
LAYER10
 62
     1
  6
CONTINUOUS
 10
11.1384
 20
-29.2147
  0
VERTEX
  8
LAYER10
 62
     1
  6
CONTINUOUS
 10
11.1403
 20
-29.2189
  0
VERTEX
  8
LAYER10
 62
     1
  6
CONTINUOUS
 10
11.1411
 20
-29.2209
  0
VERTEX
  8
LAYER10
 62
     1
  6
CONTINUOUS
 10
11.1419
 20
-29.2230
  0
VERTEX
  8
LAYER10
 62
     1
  6
CONTINUOUS
 10
11.1426
 20
-29.2250
  0
VERTEX
  8
LAYER10
 62
     1
  6
CONTINUOUS
 10
11.1433
 20
-29.2271
  0
VERTEX
  8
LAYER10
 62
     1
  6
CONTINUOUS
 10
11.1439
 20
-29.2292
  0
VERTEX
  8
LAYER10
 62
     1
  6
CONTINUOUS
 10
11.1444
 20
-29.2313
  0
VERTEX
  8
LAYER10
 62
     1
  6
CONTINUOUS
 10
11.1449
 20
-29.2334
  0
VERTEX
  8
LAYER10
 62
     1
  6
CONTINUOUS
 10
11.1452
 20
-29.2356
  0
VERTEX
  8
LAYER10
 62
     1
  6
CONTINUOUS
 10
11.1454
 20
-29.2377
  0
VERTEX
  8
LAYER10
 62
     1
  6
CONTINUOUS
 10
11.1455
 20
-29.2398
  0
VERTEX
  8
LAYER10
 62
     1
  6
CONTINUOUS
 10
11.1454
 20
-29.2419
  0
VERTEX
  8
LAYER10
 62
     1
  6
CONTINUOUS
 10
11.1452
 20
-29.2441
  0
VERTEX
  8
LAYER10
 62
     1
  6
CONTINUOUS
 10
11.1446
 20
-29.2473
  0
VERTEX
  8
LAYER10
 62
     1
  6
CONTINUOUS
 10
11.1436
 20
-29.2505
  0
VERTEX
  8
LAYER10
 62
     1
  6
CONTINUOUS
 10
11.1423
 20
-29.2536
  0
VERTEX
  8
LAYER10
 62
     1
  6
CONTINUOUS
 10
11.1407
 20
-29.2566
  0
VERTEX
  8
LAYER10
 62
     1
  6
CONTINUOUS
 10
11.1388
 20
-29.2595
  0
VERTEX
  8
LAYER10
 62
     1
  6
CONTINUOUS
 10
11.1366
 20
-29.2623
  0
VERTEX
  8
LAYER10
 62
     1
  6
CONTINUOUS
 10
11.1343
 20
-29.2649
  0
VERTEX
  8
LAYER10
 62
     1
  6
CONTINUOUS
 10
11.1317
 20
-29.2672
  0
VERTEX
  8
LAYER10
 62
     1
  6
CONTINUOUS
 10
11.1290
 20
-29.2694
  0
VERTEX
  8
LAYER10
 62
     1
  6
CONTINUOUS
 10
11.1261
 20
-29.2713
  0
VERTEX
  8
LAYER10
 62
     1
  6
CONTINUOUS
 10
11.1231
 20
-29.2729
  0
VERTEX
  8
LAYER10
 62
     1
  6
CONTINUOUS
 10
11.1199
 20
-29.2741
  0
VERTEX
  8
LAYER10
 62
     1
  6
CONTINUOUS
 10
11.1166
 20
-29.2751
  0
VERTEX
  8
LAYER10
 62
     1
  6
CONTINUOUS
 10
11.1133
 20
-29.2758
  0
VERTEX
  8
LAYER10
 62
     1
  6
CONTINUOUS
 10
11.1098
 20
-29.2762
  0
VERTEX
  8
LAYER10
 62
     1
  6
CONTINUOUS
 10
11.1064
 20
-29.2764
  0
VERTEX
  8
LAYER10
 62
     1
  6
CONTINUOUS
 10
11.1029
 20
-29.2766
  0
VERTEX
  8
LAYER10
 62
     1
  6
CONTINUOUS
 10
11.0995
 20
-29.2766
  0
VERTEX
  8
LAYER10
 62
     1
  6
CONTINUOUS
 10
11.0960
 20
-29.2767
  0
VERTEX
  8
LAYER10
 62
     1
  6
CONTINUOUS
 10
11.0926
 20
-29.2768
  0
VERTEX
  8
LAYER10
 62
     1
  6
CONTINUOUS
 10
11.0893
 20
-29.2770
  0
VERTEX
  8
LAYER10
 62
     1
  6
CONTINUOUS
 10
11.0860
 20
-29.2774
  0
VERTEX
  8
LAYER10
 62
     1
  6
CONTINUOUS
 10
11.0828
 20
-29.2781
  0
VERTEX
  8
LAYER10
 62
     1
  6
CONTINUOUS
 10
11.0797
 20
-29.2790
  0
VERTEX
  8
LAYER10
 62
     1
  6
CONTINUOUS
 10
11.0778
 20
-29.2798
  0
VERTEX
  8
LAYER10
 62
     1
  6
CONTINUOUS
 10
11.0760
 20
-29.2807
  0
VERTEX
  8
LAYER10
 62
     1
  6
CONTINUOUS
 10
11.0742
 20
-29.2817
  0
VERTEX
  8
LAYER10
 62
     1
  6
CONTINUOUS
 10
11.0725
 20
-29.2828
  0
VERTEX
  8
LAYER10
 62
     1
  6
CONTINUOUS
 10
11.0708
 20
-29.2840
  0
VERTEX
  8
LAYER10
 62
     1
  6
CONTINUOUS
 10
11.0691
 20
-29.2853
  0
VERTEX
  8
LAYER10
 62
     1
  6
CONTINUOUS
 10
11.0674
 20
-29.2866
  0
VERTEX
  8
LAYER10
 62
     1
  6
CONTINUOUS
 10
11.0658
 20
-29.2880
  0
VERTEX
  8
LAYER10
 62
     1
  6
CONTINUOUS
 10
11.0642
 20
-29.2895
  0
VERTEX
  8
LAYER10
 62
     1
  6
CONTINUOUS
 10
11.0626
 20
-29.2910
  0
VERTEX
  8
LAYER10
 62
     1
  6
CONTINUOUS
 10
11.0611
 20
-29.2925
  0
VERTEX
  8
LAYER10
 62
     1
  6
CONTINUOUS
 10
11.0595
 20
-29.2940
  0
VERTEX
  8
LAYER10
 62
     1
  6
CONTINUOUS
 10
11.0567
 20
-29.2968
  0
VERTEX
  8
LAYER10
 62
     1
  6
CONTINUOUS
 10
11.0539
 20
-29.2996
  0
VERTEX
  8
LAYER10
 62
     1
  6
CONTINUOUS
 10
11.0511
 20
-29.3024
  0
VERTEX
  8
LAYER10
 62
     1
  6
CONTINUOUS
 10
11.0483
 20
-29.3051
  0
VERTEX
  8
LAYER10
 62
     1
  6
CONTINUOUS
 10
11.0455
 20
-29.3078
  0
VERTEX
  8
LAYER10
 62
     1
  6
CONTINUOUS
 10
11.0426
 20
-29.3104
  0
VERTEX
  8
LAYER10
 62
     1
  6
CONTINUOUS
 10
11.0397
 20
-29.3130
  0
VERTEX
  8
LAYER10
 62
     1
  6
CONTINUOUS
 10
11.0368
 20
-29.3154
  0
VERTEX
  8
LAYER10
 62
     1
  6
CONTINUOUS
 10
11.0338
 20
-29.3178
  0
VERTEX
  8
LAYER10
 62
     1
  6
CONTINUOUS
 10
11.0307
 20
-29.3200
  0
VERTEX
  8
LAYER10
 62
     1
  6
CONTINUOUS
 10
11.0275
 20
-29.3221
  0
VERTEX
  8
LAYER10
 62
     1
  6
CONTINUOUS
 10
11.0242
 20
-29.3241
  0
VERTEX
  8
LAYER10
 62
     1
  6
CONTINUOUS
 10
11.0212
 20
-29.3257
  0
VERTEX
  8
LAYER10
 62
     1
  6
CONTINUOUS
 10
11.0180
 20
-29.3272
  0
VERTEX
  8
LAYER10
 62
     1
  6
CONTINUOUS
 10
11.0148
 20
-29.3286
  0
VERTEX
  8
LAYER10
 62
     1
  6
CONTINUOUS
 10
11.0115
 20
-29.3298
  0
VERTEX
  8
LAYER10
 62
     1
  6
CONTINUOUS
 10
11.0082
 20
-29.3309
  0
VERTEX
  8
LAYER10
 62
     1
  6
CONTINUOUS
 10
11.0048
 20
-29.3318
  0
VERTEX
  8
LAYER10
 62
     1
  6
CONTINUOUS
 10
11.0014
 20
-29.3326
  0
VERTEX
  8
LAYER10
 62
     1
  6
CONTINUOUS
 10
10.9979
 20
-29.3332
  0
VERTEX
  8
LAYER10
 62
     1
  6
CONTINUOUS
 10
10.9944
 20
-29.3337
  0
VERTEX
  8
LAYER10
 62
     1
  6
CONTINUOUS
 10
10.9909
 20
-29.3340
  0
VERTEX
  8
LAYER10
 62
     1
  6
CONTINUOUS
 10
10.9874
 20
-29.3341
  0
VERTEX
  8
LAYER10
 62
     1
  6
CONTINUOUS
 10
10.9840
 20
-29.3340
  0
VERTEX
  8
LAYER10
 62
     1
  6
CONTINUOUS
 10
10.9810
 20
-29.3337
  0
VERTEX
  8
LAYER10
 62
     1
  6
CONTINUOUS
 10
10.9780
 20
-29.3334
  0
VERTEX
  8
LAYER10
 62
     1
  6
CONTINUOUS
 10
10.9751
 20
-29.3330
  0
VERTEX
  8
LAYER10
 62
     1
  6
CONTINUOUS
 10
10.9721
 20
-29.3325
  0
VERTEX
  8
LAYER10
 62
     1
  6
CONTINUOUS
 10
10.9692
 20
-29.3319
  0
VERTEX
  8
LAYER10
 62
     1
  6
CONTINUOUS
 10
10.9663
 20
-29.3313
  0
VERTEX
  8
LAYER10
 62
     1
  6
CONTINUOUS
 10
10.9633
 20
-29.3308
  0
VERTEX
  8
LAYER10
 62
     1
  6
CONTINUOUS
 10
10.9604
 20
-29.3302
  0
VERTEX
  8
LAYER10
 62
     1
  6
CONTINUOUS
 10
10.9575
 20
-29.3297
  0
VERTEX
  8
LAYER10
 62
     1
  6
CONTINUOUS
 10
10.9546
 20
-29.3293
  0
VERTEX
  8
LAYER10
 62
     1
  6
CONTINUOUS
 10
10.9517
 20
-29.3290
  0
VERTEX
  8
LAYER10
 62
     1
  6
CONTINUOUS
 10
10.9488
 20
-29.3288
  0
VERTEX
  8
LAYER10
 62
     1
  6
CONTINUOUS
 10
10.9451
 20
-29.3288
  0
VERTEX
  8
LAYER10
 62
     1
  6
CONTINUOUS
 10
10.9413
 20
-29.3290
  0
VERTEX
  8
LAYER10
 62
     1
  6
CONTINUOUS
 10
10.9376
 20
-29.3293
  0
VERTEX
  8
LAYER10
 62
     1
  6
CONTINUOUS
 10
10.9339
 20
-29.3298
  0
VERTEX
  8
LAYER10
 62
     1
  6
CONTINUOUS
 10
10.9301
 20
-29.3303
  0
VERTEX
  8
LAYER10
 62
     1
  6
CONTINUOUS
 10
10.9264
 20
-29.3310
  0
VERTEX
  8
LAYER10
 62
     1
  6
CONTINUOUS
 10
10.9226
 20
-29.3316
  0
VERTEX
  8
LAYER10
 62
     1
  6
CONTINUOUS
 10
10.9188
 20
-29.3322
  0
VERTEX
  8
LAYER10
 62
     1
  6
CONTINUOUS
 10
10.9150
 20
-29.3328
  0
VERTEX
  8
LAYER10
 62
     1
  6
CONTINUOUS
 10
10.9112
 20
-29.3332
  0
VERTEX
  8
LAYER10
 62
     1
  6
CONTINUOUS
 10
10.9074
 20
-29.3335
  0
VERTEX
  8
LAYER10
 62
     1
  6
CONTINUOUS
 10
10.9035
 20
-29.3337
  0
VERTEX
  8
LAYER10
 62
     1
  6
CONTINUOUS
 10
10.9013
 20
-29.3337
  0
VERTEX
  8
LAYER10
 62
     1
  6
CONTINUOUS
 10
10.8991
 20
-29.3336
  0
VERTEX
  8
LAYER10
 62
     1
  6
CONTINUOUS
 10
10.8970
 20
-29.3334
  0
VERTEX
  8
LAYER10
 62
     1
  6
CONTINUOUS
 10
10.8948
 20
-29.3332
  0
VERTEX
  8
LAYER10
 62
     1
  6
CONTINUOUS
 10
10.8926
 20
-29.3329
  0
VERTEX
  8
LAYER10
 62
     1
  6
CONTINUOUS
 10
10.8905
 20
-29.3326
  0
VERTEX
  8
LAYER10
 62
     1
  6
CONTINUOUS
 10
10.8884
 20
-29.3321
  0
VERTEX
  8
LAYER10
 62
     1
  6
CONTINUOUS
 10
10.8863
 20
-29.3316
  0
VERTEX
  8
LAYER10
 62
     1
  6
CONTINUOUS
 10
10.8843
 20
-29.3309
  0
VERTEX
  8
LAYER10
 62
     1
  6
CONTINUOUS
 10
10.8823
 20
-29.3302
  0
VERTEX
  8
LAYER10
 62
     1
  6
CONTINUOUS
 10
10.8803
 20
-29.3294
  0
VERTEX
  8
LAYER10
 62
     1
  6
CONTINUOUS
 10
10.8784
 20
-29.3286
  0
VERTEX
  8
LAYER10
 62
     1
  6
CONTINUOUS
 10
10.8749
 20
-29.3266
  0
VERTEX
  8
LAYER10
 62
     1
  6
CONTINUOUS
 10
10.8715
 20
-29.3243
  0
VERTEX
  8
LAYER10
 62
     1
  6
CONTINUOUS
 10
10.8683
 20
-29.3217
  0
VERTEX
  8
LAYER10
 62
     1
  6
CONTINUOUS
 10
10.8653
 20
-29.3190
  0
VERTEX
  8
LAYER10
 62
     1
  6
CONTINUOUS
 10
10.8624
 20
-29.3160
  0
VERTEX
  8
LAYER10
 62
     1
  6
CONTINUOUS
 10
10.8596
 20
-29.3129
  0
VERTEX
  8
LAYER10
 62
     1
  6
CONTINUOUS
 10
10.8568
 20
-29.3096
  0
VERTEX
  8
LAYER10
 62
     1
  6
CONTINUOUS
 10
10.8541
 20
-29.3063
  0
VERTEX
  8
LAYER10
 62
     1
  6
CONTINUOUS
 10
10.8515
 20
-29.3030
  0
VERTEX
  8
LAYER10
 62
     1
  6
CONTINUOUS
 10
10.8488
 20
-29.2997
  0
VERTEX
  8
LAYER10
 62
     1
  6
CONTINUOUS
 10
10.8461
 20
-29.2964
  0
VERTEX
  8
LAYER10
 62
     1
  6
CONTINUOUS
 10
10.8433
 20
-29.2932
  0
VERTEX
  8
LAYER10
 62
     1
  6
CONTINUOUS
 10
10.8425
 20
-29.2923
  0
VERTEX
  8
LAYER10
 62
     1
  6
CONTINUOUS
 10
10.8417
 20
-29.2915
  0
VERTEX
  8
LAYER10
 62
     1
  6
CONTINUOUS
 10
10.8409
 20
-29.2906
  0
VERTEX
  8
LAYER10
 62
     1
  6
CONTINUOUS
 10
10.8401
 20
-29.2897
  0
VERTEX
  8
LAYER10
 62
     1
  6
CONTINUOUS
 10
10.8393
 20
-29.2889
  0
VERTEX
  8
LAYER10
 62
     1
  6
CONTINUOUS
 10
10.8384
 20
-29.2881
  0
VERTEX
  8
LAYER10
 62
     1
  6
CONTINUOUS
 10
10.8376
 20
-29.2872
  0
VERTEX
  8
LAYER10
 62
     1
  6
CONTINUOUS
 10
10.8367
 20
-29.2864
  0
VERTEX
  8
LAYER10
 62
     1
  6
CONTINUOUS
 10
10.8359
 20
-29.2856
  0
VERTEX
  8
LAYER10
 62
     1
  6
CONTINUOUS
 10
10.8350
 20
-29.2848
  0
VERTEX
  8
LAYER10
 62
     1
  6
CONTINUOUS
 10
10.8342
 20
-29.2839
  0
VERTEX
  8
LAYER10
 62
     1
  6
CONTINUOUS
 10
10.8333
 20
-29.2831
  0
VERTEX
  8
LAYER10
 62
     1
  6
CONTINUOUS
 10
10.8302
 20
-29.2803
  0
VERTEX
  8
LAYER10
 62
     1
  6
CONTINUOUS
 10
10.8271
 20
-29.2776
  0
VERTEX
  8
LAYER10
 62
     1
  6
CONTINUOUS
 10
10.8239
 20
-29.2748
  0
VERTEX
  8
LAYER10
 62
     1
  6
CONTINUOUS
 10
10.8207
 20
-29.2721
  0
VERTEX
  8
LAYER10
 62
     1
  6
CONTINUOUS
 10
10.8175
 20
-29.2693
  0
VERTEX
  8
LAYER10
 62
     1
  6
CONTINUOUS
 10
10.8144
 20
-29.2665
  0
VERTEX
  8
LAYER10
 62
     1
  6
CONTINUOUS
 10
10.8114
 20
-29.2636
  0
VERTEX
  8
LAYER10
 62
     1
  6
CONTINUOUS
 10
10.8085
 20
-29.2607
  0
VERTEX
  8
LAYER10
 62
     1
  6
CONTINUOUS
 10
10.8056
 20
-29.2576
  0
VERTEX
  8
LAYER10
 62
     1
  6
CONTINUOUS
 10
10.8030
 20
-29.2545
  0
VERTEX
  8
LAYER10
 62
     1
  6
CONTINUOUS
 10
10.8005
 20
-29.2512
  0
VERTEX
  8
LAYER10
 62
     1
  6
CONTINUOUS
 10
10.7982
 20
-29.2478
  0
VERTEX
  8
LAYER10
 62
     1
  6
CONTINUOUS
 10
10.7971
 20
-29.2459
  0
VERTEX
  8
LAYER10
 62
     1
  6
CONTINUOUS
 10
10.7960
 20
-29.2439
  0
VERTEX
  8
LAYER10
 62
     1
  6
CONTINUOUS
 10
10.7950
 20
-29.2419
  0
VERTEX
  8
LAYER10
 62
     1
  6
CONTINUOUS
 10
10.7940
 20
-29.2399
  0
VERTEX
  8
LAYER10
 62
     1
  6
CONTINUOUS
 10
10.7932
 20
-29.2378
  0
VERTEX
  8
LAYER10
 62
     1
  6
CONTINUOUS
 10
10.7923
 20
-29.2357
  0
VERTEX
  8
LAYER10
 62
     1
  6
CONTINUOUS
 10
10.7915
 20
-29.2336
  0
VERTEX
  8
LAYER10
 62
     1
  6
CONTINUOUS
 10
10.7908
 20
-29.2314
  0
VERTEX
  8
LAYER10
 62
     1
  6
CONTINUOUS
 10
10.7901
 20
-29.2292
  0
VERTEX
  8
LAYER10
 62
     1
  6
CONTINUOUS
 10
10.7894
 20
-29.2271
  0
VERTEX
  8
LAYER10
 62
     1
  6
CONTINUOUS
 10
10.7888
 20
-29.2249
  0
VERTEX
  8
LAYER10
 62
     1
  6
CONTINUOUS
 10
10.7883
 20
-29.2226
  0
VERTEX
  8
LAYER10
 62
     1
  6
CONTINUOUS
 10
10.7871
 20
-29.2177
  0
VERTEX
  8
LAYER10
 62
     1
  6
CONTINUOUS
 10
10.7862
 20
-29.2127
  0
VERTEX
  8
LAYER10
 62
     1
  6
CONTINUOUS
 10
10.7854
 20
-29.2077
  0
VERTEX
  8
LAYER10
 62
     1
  6
CONTINUOUS
 10
10.7847
 20
-29.2027
  0
VERTEX
  8
LAYER10
 62
     1
  6
CONTINUOUS
 10
10.7842
 20
-29.1976
  0
VERTEX
  8
LAYER10
 62
     1
  6
CONTINUOUS
 10
10.7838
 20
-29.1926
  0
VERTEX
  8
LAYER10
 62
     1
  6
CONTINUOUS
 10
10.7836
 20
-29.1875
  0
VERTEX
  8
LAYER10
 62
     1
  6
CONTINUOUS
 10
10.7834
 20
-29.1825
  0
VERTEX
  8
LAYER10
 62
     1
  6
CONTINUOUS
 10
10.7833
 20
-29.1774
  0
VERTEX
  8
LAYER10
 62
     1
  6
CONTINUOUS
 10
10.7833
 20
-29.1724
  0
VERTEX
  8
LAYER10
 62
     1
  6
CONTINUOUS
 10
10.7833
 20
-29.1673
  0
VERTEX
  8
LAYER10
 62
     1
  6
CONTINUOUS
 10
10.7835
 20
-29.1623
  0
VERTEX
  8
LAYER10
 62
     1
  6
CONTINUOUS
 10
10.7835
 20
-29.1598
  0
VERTEX
  8
LAYER10
 62
     1
  6
CONTINUOUS
 10
10.7836
 20
-29.1573
  0
VERTEX
  8
LAYER10
 62
     1
  6
CONTINUOUS
 10
10.7837
 20
-29.1548
  0
VERTEX
  8
LAYER10
 62
     1
  6
CONTINUOUS
 10
10.7838
 20
-29.1523
  0
VERTEX
  8
LAYER10
 62
     1
  6
CONTINUOUS
 10
10.7838
 20
-29.1498
  0
VERTEX
  8
LAYER10
 62
     1
  6
CONTINUOUS
 10
10.7839
 20
-29.1473
  0
VERTEX
  8
LAYER10
 62
     1
  6
CONTINUOUS
 10
10.7839
 20
-29.1448
  0
VERTEX
  8
LAYER10
 62
     1
  6
CONTINUOUS
 10
10.7839
 20
-29.1423
  0
VERTEX
  8
LAYER10
 62
     1
  6
CONTINUOUS
 10
10.7839
 20
-29.1398
  0
VERTEX
  8
LAYER10
 62
     1
  6
CONTINUOUS
 10
10.7838
 20
-29.1372
  0
VERTEX
  8
LAYER10
 62
     1
  6
CONTINUOUS
 10
10.7837
 20
-29.1347
  0
VERTEX
  8
LAYER10
 62
     1
  6
CONTINUOUS
 10
10.7836
 20
-29.1321
  0
VERTEX
  8
LAYER10
 62
     1
  6
CONTINUOUS
 10
10.7833
 20
-29.1291
  0
VERTEX
  8
LAYER10
 62
     1
  6
CONTINUOUS
 10
10.7831
 20
-29.1261
  0
VERTEX
  8
LAYER10
 62
     1
  6
CONTINUOUS
 10
10.7828
 20
-29.1231
  0
VERTEX
  8
LAYER10
 62
     1
  6
CONTINUOUS
 10
10.7825
 20
-29.1201
  0
VERTEX
  8
LAYER10
 62
     1
  6
CONTINUOUS
 10
10.7823
 20
-29.1171
  0
VERTEX
  8
LAYER10
 62
     1
  6
CONTINUOUS
 10
10.7821
 20
-29.1141
  0
VERTEX
  8
LAYER10
 62
     1
  6
CONTINUOUS
 10
10.7820
 20
-29.1111
  0
VERTEX
  8
LAYER10
 62
     1
  6
CONTINUOUS
 10
10.7820
 20
-29.1082
  0
VERTEX
  8
LAYER10
 62
     1
  6
CONTINUOUS
 10
10.7821
 20
-29.1053
  0
VERTEX
  8
LAYER10
 62
     1
  6
CONTINUOUS
 10
10.7825
 20
-29.1025
  0
VERTEX
  8
LAYER10
 62
     1
  6
CONTINUOUS
 10
10.7830
 20
-29.0997
  0
VERTEX
  8
LAYER10
 62
     1
  6
CONTINUOUS
 10
10.7837
 20
-29.0969
  0
VERTEX
  8
LAYER10
 62
     1
  6
CONTINUOUS
 10
10.7845
 20
-29.0947
  0
VERTEX
  8
LAYER10
 62
     1
  6
CONTINUOUS
 10
10.7854
 20
-29.0925
  0
VERTEX
  8
LAYER10
 62
     1
  6
CONTINUOUS
 10
10.7865
 20
-29.0904
  0
VERTEX
  8
LAYER10
 62
     1
  6
CONTINUOUS
 10
10.7877
 20
-29.0882
  0
VERTEX
  8
LAYER10
 62
     1
  6
CONTINUOUS
 10
10.7889
 20
-29.0861
  0
VERTEX
  8
LAYER10
 62
     1
  6
CONTINUOUS
 10
10.7903
 20
-29.0841
  0
VERTEX
  8
LAYER10
 62
     1
  6
CONTINUOUS
 10
10.7917
 20
-29.0820
  0
VERTEX
  8
LAYER10
 62
     1
  6
CONTINUOUS
 10
10.7931
 20
-29.0800
  0
VERTEX
  8
LAYER10
 62
     1
  6
CONTINUOUS
 10
10.7946
 20
-29.0779
  0
VERTEX
  8
LAYER10
 62
     1
  6
CONTINUOUS
 10
10.7960
 20
-29.0759
  0
VERTEX
  8
LAYER10
 62
     1
  6
CONTINUOUS
 10
10.7975
 20
-29.0739
  0
VERTEX
  8
LAYER10
 62
     1
  6
CONTINUOUS
 10
10.7989
 20
-29.0718
  0
VERTEX
  8
LAYER10
 62
     1
  6
CONTINUOUS
 10
10.8002
 20
-29.0698
  0
VERTEX
  8
LAYER10
 62
     1
  6
CONTINUOUS
 10
10.8015
 20
-29.0677
  0
VERTEX
  8
LAYER10
 62
     1
  6
CONTINUOUS
 10
10.8028
 20
-29.0656
  0
VERTEX
  8
LAYER10
 62
     1
  6
CONTINUOUS
 10
10.8040
 20
-29.0636
  0
VERTEX
  8
LAYER10
 62
     1
  6
CONTINUOUS
 10
10.8052
 20
-29.0615
  0
VERTEX
  8
LAYER10
 62
     1
  6
CONTINUOUS
 10
10.8064
 20
-29.0594
  0
VERTEX
  8
LAYER10
 62
     1
  6
CONTINUOUS
 10
10.8076
 20
-29.0573
  0
VERTEX
  8
LAYER10
 62
     1
  6
CONTINUOUS
 10
10.8088
 20
-29.0552
  0
VERTEX
  8
LAYER10
 62
     1
  6
CONTINUOUS
 10
10.8101
 20
-29.0531
  0
VERTEX
  8
LAYER10
 62
     1
  6
CONTINUOUS
 10
10.8114
 20
-29.0510
  0
VERTEX
  8
LAYER10
 62
     1
  6
CONTINUOUS
 10
10.8127
 20
-29.0489
  0
VERTEX
  8
LAYER10
 62
     1
  6
CONTINUOUS
 10
10.8141
 20
-29.0468
  0
VERTEX
  8
LAYER10
 62
     1
  6
CONTINUOUS
 10
10.8166
 20
-29.0432
  0
VERTEX
  8
LAYER10
 62
     1
  6
CONTINUOUS
 10
10.8193
 20
-29.0397
  0
VERTEX
  8
LAYER10
 62
     1
  6
CONTINUOUS
 10
10.8221
 20
-29.0362
  0
VERTEX
  8
LAYER10
 62
     1
  6
CONTINUOUS
 10
10.8252
 20
-29.0330
  0
VERTEX
  8
LAYER10
 62
     1
  6
CONTINUOUS
 10
10.8284
 20
-29.0299
  0
VERTEX
  8
LAYER10
 62
     1
  6
CONTINUOUS
 10
10.8317
 20
-29.0270
  0
VERTEX
  8
LAYER10
 62
     1
  6
CONTINUOUS
 10
10.8352
 20
-29.0244
  0
VERTEX
  8
LAYER10
 62
     1
  6
CONTINUOUS
 10
10.8388
 20
-29.0221
  0
VERTEX
  8
LAYER10
 62
     1
  6
CONTINUOUS
 10
10.8425
 20
-29.0201
  0
VERTEX
  8
LAYER10
 62
     1
  6
CONTINUOUS
 10
10.8464
 20
-29.0185
  0
VERTEX
  8
LAYER10
 62
     1
  6
CONTINUOUS
 10
10.8503
 20
-29.0174
  0
VERTEX
  8
LAYER10
 62
     1
  6
CONTINUOUS
 10
10.8544
 20
-29.0167
  0
VERTEX
  8
LAYER10
 62
     1
  6
CONTINUOUS
 10
10.8556
 20
-29.0166
  0
VERTEX
  8
LAYER10
 62
     1
  6
CONTINUOUS
 10
10.8569
 20
-29.0166
  0
VERTEX
  8
LAYER10
 62
     1
  6
CONTINUOUS
 10
10.8581
 20
-29.0165
  0
VERTEX
  8
LAYER10
 62
     1
  6
CONTINUOUS
 10
10.8594
 20
-29.0165
  0
VERTEX
  8
LAYER10
 62
     1
  6
CONTINUOUS
 10
10.8606
 20
-29.0166
  0
VERTEX
  8
LAYER10
 62
     1
  6
CONTINUOUS
 10
10.8619
 20
-29.0166
  0
VERTEX
  8
LAYER10
 62
     1
  6
CONTINUOUS
 10
10.8632
 20
-29.0166
  0
VERTEX
  8
LAYER10
 62
     1
  6
CONTINUOUS
 10
10.8644
 20
-29.0167
  0
VERTEX
  8
LAYER10
 62
     1
  6
CONTINUOUS
 10
10.8657
 20
-29.0167
  0
VERTEX
  8
LAYER10
 62
     1
  6
CONTINUOUS
 10
10.8670
 20
-29.0168
  0
SEQEND
  8
LAYER10
  0
POLYLINE
  8
LAYER10
 62
     1
 66
     1
  6
CONTINUOUS
  0
VERTEX
  8
LAYER10
 62
     1
  6
CONTINUOUS
 10
10.8670
 20
-29.0168
  0
VERTEX
  8
LAYER10
 62
     1
  6
CONTINUOUS
 10
10.8682
 20
-29.0168
  0
VERTEX
  8
LAYER10
 62
     1
  6
CONTINUOUS
 10
10.8695
 20
-29.0168
  0
VERTEX
  8
LAYER10
 62
     1
  6
CONTINUOUS
 10
10.8720
 20
-29.0167
  0
VERTEX
  8
LAYER10
 62
     1
  6
CONTINUOUS
 10
10.8746
 20
-29.0165
  0
VERTEX
  8
LAYER10
 62
     1
  6
CONTINUOUS
 10
10.8771
 20
-29.0162
  0
VERTEX
  8
LAYER10
 62
     1
  6
CONTINUOUS
 10
10.8796
 20
-29.0159
  0
VERTEX
  8
LAYER10
 62
     1
  6
CONTINUOUS
 10
10.8821
 20
-29.0155
  0
VERTEX
  8
LAYER10
 62
     1
  6
CONTINUOUS
 10
10.8846
 20
-29.0150
  0
VERTEX
  8
LAYER10
 62
     1
  6
CONTINUOUS
 10
10.8871
 20
-29.0145
  0
VERTEX
  8
LAYER10
 62
     1
  6
CONTINUOUS
 10
10.8896
 20
-29.0140
  0
VERTEX
  8
LAYER10
 62
     1
  6
CONTINUOUS
 10
10.8921
 20
-29.0134
  0
VERTEX
  8
LAYER10
 62
     1
  6
CONTINUOUS
 10
10.8946
 20
-29.0129
  0
VERTEX
  8
LAYER10
 62
     1
  6
CONTINUOUS
 10
10.8971
 20
-29.0124
  0
VERTEX
  8
LAYER10
 62
     1
  6
CONTINUOUS
 10
10.8997
 20
-29.0119
  0
VERTEX
  8
LAYER10
 62
     1
  6
CONTINUOUS
 10
10.9022
 20
-29.0114
  0
VERTEX
  8
LAYER10
 62
     1
  6
CONTINUOUS
 10
10.9047
 20
-29.0110
  0
VERTEX
  8
LAYER10
 62
     1
  6
CONTINUOUS
 10
10.9072
 20
-29.0107
  0
VERTEX
  8
LAYER10
 62
     1
  6
CONTINUOUS
 10
10.9097
 20
-29.0104
  0
VERTEX
  8
LAYER10
 62
     1
  6
CONTINUOUS
 10
10.9122
 20
-29.0102
  0
VERTEX
  8
LAYER10
 62
     1
  6
CONTINUOUS
 10
10.9147
 20
-29.0101
  0
VERTEX
  8
LAYER10
 62
     1
  6
CONTINUOUS
 10
10.9172
 20
-29.0101
  0
VERTEX
  8
LAYER10
 62
     1
  6
CONTINUOUS
 10
10.9198
 20
-29.0102
  0
VERTEX
  8
LAYER10
 62
     1
  6
CONTINUOUS
 10
10.9223
 20
-29.0104
  0
VERTEX
  8
LAYER10
 62
     1
  6
CONTINUOUS
 10
10.9248
 20
-29.0108
  0
VERTEX
  8
LAYER10
 62
     1
  6
CONTINUOUS
 10
10.9273
 20
-29.0113
  0
VERTEX
  8
LAYER10
 62
     1
  6
CONTINUOUS
 10
10.9298
 20
-29.0120
  0
VERTEX
  8
LAYER10
 62
     1
  6
CONTINUOUS
 10
10.9329
 20
-29.0130
  0
VERTEX
  8
LAYER10
 62
     1
  6
CONTINUOUS
 10
10.9359
 20
-29.0142
  0
VERTEX
  8
LAYER10
 62
     1
  6
CONTINUOUS
 10
10.9389
 20
-29.0155
  0
VERTEX
  8
LAYER10
 62
     1
  6
CONTINUOUS
 10
10.9419
 20
-29.0168
  0
VERTEX
  8
LAYER10
 62
     1
  6
CONTINUOUS
 10
10.9449
 20
-29.0182
  0
VERTEX
  8
LAYER10
 62
     1
  6
CONTINUOUS
 10
10.9479
 20
-29.0195
  0
VERTEX
  8
LAYER10
 62
     1
  6
CONTINUOUS
 10
10.9508
 20
-29.0206
  0
VERTEX
  8
LAYER10
 62
     1
  6
CONTINUOUS
 10
10.9537
 20
-29.0216
  0
VERTEX
  8
LAYER10
 62
     1
  6
CONTINUOUS
 10
10.9566
 20
-29.0222
  0
VERTEX
  8
LAYER10
 62
     1
  6
CONTINUOUS
 10
10.9594
 20
-29.0226
  0
VERTEX
  8
LAYER10
 62
     1
  6
CONTINUOUS
 10
10.9622
 20
-29.0226
  0
VERTEX
  8
LAYER10
 62
     1
  6
CONTINUOUS
 10
10.9650
 20
-29.0222
  0
VERTEX
  8
LAYER10
 62
     1
  6
CONTINUOUS
 10
10.9667
 20
-29.0217
  0
VERTEX
  8
LAYER10
 62
     1
  6
CONTINUOUS
 10
10.9683
 20
-29.0210
  0
VERTEX
  8
LAYER10
 62
     1
  6
CONTINUOUS
 10
10.9700
 20
-29.0202
  0
VERTEX
  8
LAYER10
 62
     1
  6
CONTINUOUS
 10
10.9717
 20
-29.0193
  0
VERTEX
  8
LAYER10
 62
     1
  6
CONTINUOUS
 10
10.9733
 20
-29.0183
  0
VERTEX
  8
LAYER10
 62
     1
  6
CONTINUOUS
 10
10.9750
 20
-29.0173
  0
VERTEX
  8
LAYER10
 62
     1
  6
CONTINUOUS
 10
10.9766
 20
-29.0163
  0
VERTEX
  8
LAYER10
 62
     1
  6
CONTINUOUS
 10
10.9783
 20
-29.0153
  0
VERTEX
  8
LAYER10
 62
     1
  6
CONTINUOUS
 10
10.9800
 20
-29.0144
  0
VERTEX
  8
LAYER10
 62
     1
  6
CONTINUOUS
 10
10.9817
 20
-29.0135
  0
VERTEX
  8
LAYER10
 62
     1
  6
CONTINUOUS
 10
10.9834
 20
-29.0128
  0
VERTEX
  8
LAYER10
 62
     1
  6
CONTINUOUS
 10
10.9851
 20
-29.0122
  0
VERTEX
  8
LAYER10
 62
     1
  6
CONTINUOUS
 10
10.9867
 20
-29.0118
  0
VERTEX
  8
LAYER10
 62
     1
  6
CONTINUOUS
 10
10.9883
 20
-29.0115
  0
VERTEX
  8
LAYER10
 62
     1
  6
CONTINUOUS
 10
10.9899
 20
-29.0114
  0
VERTEX
  8
LAYER10
 62
     1
  6
CONTINUOUS
 10
10.9916
 20
-29.0113
  0
VERTEX
  8
LAYER10
 62
     1
  6
CONTINUOUS
 10
10.9932
 20
-29.0114
  0
VERTEX
  8
LAYER10
 62
     1
  6
CONTINUOUS
 10
10.9949
 20
-29.0114
  0
VERTEX
  8
LAYER10
 62
     1
  6
CONTINUOUS
 10
10.9966
 20
-29.0116
  0
VERTEX
  8
LAYER10
 62
     1
  6
CONTINUOUS
 10
10.9983
 20
-29.0117
  0
VERTEX
  8
LAYER10
 62
     1
  6
CONTINUOUS
 10
11.0000
 20
-29.0119
  0
VERTEX
  8
LAYER10
 62
     1
  6
CONTINUOUS
 10
11.0017
 20
-29.0120
  0
VERTEX
  8
LAYER10
 62
     1
  6
CONTINUOUS
 10
11.0035
 20
-29.0122
  0
VERTEX
  8
LAYER10
 62
     1
  6
CONTINUOUS
 10
11.0052
 20
-29.0122
  0
VERTEX
  8
LAYER10
 62
     1
  6
CONTINUOUS
 10
11.0079
 20
-29.0123
  0
VERTEX
  8
LAYER10
 62
     1
  6
CONTINUOUS
 10
11.0106
 20
-29.0122
  0
VERTEX
  8
LAYER10
 62
     1
  6
CONTINUOUS
 10
11.0133
 20
-29.0121
  0
VERTEX
  8
LAYER10
 62
     1
  6
CONTINUOUS
 10
11.0160
 20
-29.0119
  0
VERTEX
  8
LAYER10
 62
     1
  6
CONTINUOUS
 10
11.0186
 20
-29.0117
  0
VERTEX
  8
LAYER10
 62
     1
  6
CONTINUOUS
 10
11.0212
 20
-29.0116
  0
VERTEX
  8
LAYER10
 62
     1
  6
CONTINUOUS
 10
11.0238
 20
-29.0114
  0
VERTEX
  8
LAYER10
 62
     1
  6
CONTINUOUS
 10
11.0263
 20
-29.0114
  0
VERTEX
  8
LAYER10
 62
     1
  6
CONTINUOUS
 10
11.0287
 20
-29.0114
  0
VERTEX
  8
LAYER10
 62
     1
  6
CONTINUOUS
 10
11.0311
 20
-29.0116
  0
VERTEX
  8
LAYER10
 62
     1
  6
CONTINUOUS
 10
11.0333
 20
-29.0119
  0
VERTEX
  8
LAYER10
 62
     1
  6
CONTINUOUS
 10
11.0354
 20
-29.0124
  0
SEQEND
  8
LAYER10
  0
POLYLINE
  8
LAYER10
 62
     1
 66
     1
  6
CONTINUOUS
  0
VERTEX
  8
LAYER10
 62
     1
  6
CONTINUOUS
 10
11.1099
 20
-28.4843
  0
VERTEX
  8
LAYER10
 62
     1
  6
CONTINUOUS
 10
11.1099
 20
-28.4860
  0
VERTEX
  8
LAYER10
 62
     1
  6
CONTINUOUS
 10
11.1099
 20
-28.4878
  0
VERTEX
  8
LAYER10
 62
     1
  6
CONTINUOUS
 10
11.1098
 20
-28.4896
  0
VERTEX
  8
LAYER10
 62
     1
  6
CONTINUOUS
 10
11.1097
 20
-28.4914
  0
VERTEX
  8
LAYER10
 62
     1
  6
CONTINUOUS
 10
11.1097
 20
-28.4931
  0
VERTEX
  8
LAYER10
 62
     1
  6
CONTINUOUS
 10
11.1095
 20
-28.4949
  0
VERTEX
  8
LAYER10
 62
     1
  6
CONTINUOUS
 10
11.1094
 20
-28.4966
  0
VERTEX
  8
LAYER10
 62
     1
  6
CONTINUOUS
 10
11.1091
 20
-28.4983
  0
VERTEX
  8
LAYER10
 62
     1
  6
CONTINUOUS
 10
11.1089
 20
-28.5000
  0
VERTEX
  8
LAYER10
 62
     1
  6
CONTINUOUS
 10
11.1085
 20
-28.5016
  0
VERTEX
  8
LAYER10
 62
     1
  6
CONTINUOUS
 10
11.1081
 20
-28.5032
  0
VERTEX
  8
LAYER10
 62
     1
  6
CONTINUOUS
 10
11.1077
 20
-28.5048
  0
VERTEX
  8
LAYER10
 62
     1
  6
CONTINUOUS
 10
11.1063
 20
-28.5082
  0
VERTEX
  8
LAYER10
 62
     1
  6
CONTINUOUS
 10
11.1046
 20
-28.5115
  0
VERTEX
  8
LAYER10
 62
     1
  6
CONTINUOUS
 10
11.1026
 20
-28.5146
  0
VERTEX
  8
LAYER10
 62
     1
  6
CONTINUOUS
 10
11.1003
 20
-28.5176
  0
VERTEX
  8
LAYER10
 62
     1
  6
CONTINUOUS
 10
11.0977
 20
-28.5205
  0
VERTEX
  8
LAYER10
 62
     1
  6
CONTINUOUS
 10
11.0950
 20
-28.5233
  0
VERTEX
  8
LAYER10
 62
     1
  6
CONTINUOUS
 10
11.0922
 20
-28.5261
  0
VERTEX
  8
LAYER10
 62
     1
  6
CONTINUOUS
 10
11.0892
 20
-28.5288
  0
VERTEX
  8
LAYER10
 62
     1
  6
CONTINUOUS
 10
11.0862
 20
-28.5315
  0
VERTEX
  8
LAYER10
 62
     1
  6
CONTINUOUS
 10
11.0832
 20
-28.5343
  0
VERTEX
  8
LAYER10
 62
     1
  6
CONTINUOUS
 10
11.0802
 20
-28.5371
  0
VERTEX
  8
LAYER10
 62
     1
  6
CONTINUOUS
 10
11.0774
 20
-28.5399
  0
VERTEX
  8
LAYER10
 62
     1
  6
CONTINUOUS
 10
11.0757
 20
-28.5417
  0
VERTEX
  8
LAYER10
 62
     1
  6
CONTINUOUS
 10
11.0740
 20
-28.5434
  0
VERTEX
  8
LAYER10
 62
     1
  6
CONTINUOUS
 10
11.0723
 20
-28.5452
  0
VERTEX
  8
LAYER10
 62
     1
  6
CONTINUOUS
 10
11.0707
 20
-28.5470
  0
VERTEX
  8
LAYER10
 62
     1
  6
CONTINUOUS
 10
11.0691
 20
-28.5488
  0
VERTEX
  8
LAYER10
 62
     1
  6
CONTINUOUS
 10
11.0675
 20
-28.5506
  0
VERTEX
  8
LAYER10
 62
     1
  6
CONTINUOUS
 10
11.0658
 20
-28.5523
  0
VERTEX
  8
LAYER10
 62
     1
  6
CONTINUOUS
 10
11.0642
 20
-28.5539
  0
VERTEX
  8
LAYER10
 62
     1
  6
CONTINUOUS
 10
11.0625
 20
-28.5555
  0
VERTEX
  8
LAYER10
 62
     1
  6
CONTINUOUS
 10
11.0608
 20
-28.5571
  0
VERTEX
  8
LAYER10
 62
     1
  6
CONTINUOUS
 10
11.0590
 20
-28.5586
  0
VERTEX
  8
LAYER10
 62
     1
  6
CONTINUOUS
 10
11.0572
 20
-28.5599
  0
VERTEX
  8
LAYER10
 62
     1
  6
CONTINUOUS
 10
11.0536
 20
-28.5622
  0
VERTEX
  8
LAYER10
 62
     1
  6
CONTINUOUS
 10
11.0498
 20
-28.5642
  0
VERTEX
  8
LAYER10
 62
     1
  6
CONTINUOUS
 10
11.0459
 20
-28.5659
  0
VERTEX
  8
LAYER10
 62
     1
  6
CONTINUOUS
 10
11.0418
 20
-28.5673
  0
VERTEX
  8
LAYER10
 62
     1
  6
CONTINUOUS
 10
11.0375
 20
-28.5686
  0
VERTEX
  8
LAYER10
 62
     1
  6
CONTINUOUS
 10
11.0332
 20
-28.5697
  0
VERTEX
  8
LAYER10
 62
     1
  6
CONTINUOUS
 10
11.0288
 20
-28.5707
  0
VERTEX
  8
LAYER10
 62
     1
  6
CONTINUOUS
 10
11.0243
 20
-28.5715
  0
VERTEX
  8
LAYER10
 62
     1
  6
CONTINUOUS
 10
11.0199
 20
-28.5724
  0
VERTEX
  8
LAYER10
 62
     1
  6
CONTINUOUS
 10
11.0155
 20
-28.5732
  0
VERTEX
  8
LAYER10
 62
     1
  6
CONTINUOUS
 10
11.0111
 20
-28.5740
  0
VERTEX
  8
LAYER10
 62
     1
  6
CONTINUOUS
 10
11.0068
 20
-28.5748
  0
VERTEX
  8
LAYER10
 62
     1
  6
CONTINUOUS
 10
11.0032
 20
-28.5756
  0
VERTEX
  8
LAYER10
 62
     1
  6
CONTINUOUS
 10
10.9996
 20
-28.5765
  0
VERTEX
  8
LAYER10
 62
     1
  6
CONTINUOUS
 10
10.9961
 20
-28.5773
  0
VERTEX
  8
LAYER10
 62
     1
  6
CONTINUOUS
 10
10.9926
 20
-28.5781
  0
VERTEX
  8
LAYER10
 62
     1
  6
CONTINUOUS
 10
10.9890
 20
-28.5789
  0
VERTEX
  8
LAYER10
 62
     1
  6
CONTINUOUS
 10
10.9854
 20
-28.5795
  0
VERTEX
  8
LAYER10
 62
     1
  6
CONTINUOUS
 10
10.9818
 20
-28.5800
  0
VERTEX
  8
LAYER10
 62
     1
  6
CONTINUOUS
 10
10.9780
 20
-28.5804
  0
VERTEX
  8
LAYER10
 62
     1
  6
CONTINUOUS
 10
10.9742
 20
-28.5806
  0
VERTEX
  8
LAYER10
 62
     1
  6
CONTINUOUS
 10
10.9701
 20
-28.5806
  0
VERTEX
  8
LAYER10
 62
     1
  6
CONTINUOUS
 10
10.9660
 20
-28.5803
  0
VERTEX
  8
LAYER10
 62
     1
  6
CONTINUOUS
 10
10.9616
 20
-28.5797
  0
VERTEX
  8
LAYER10
 62
     1
  6
CONTINUOUS
 10
10.9556
 20
-28.5785
  0
VERTEX
  8
LAYER10
 62
     1
  6
CONTINUOUS
 10
10.9494
 20
-28.5769
  0
VERTEX
  8
LAYER10
 62
     1
  6
CONTINUOUS
 10
10.9432
 20
-28.5750
  0
VERTEX
  8
LAYER10
 62
     1
  6
CONTINUOUS
 10
10.9369
 20
-28.5728
  0
VERTEX
  8
LAYER10
 62
     1
  6
CONTINUOUS
 10
10.9309
 20
-28.5705
  0
VERTEX
  8
LAYER10
 62
     1
  6
CONTINUOUS
 10
10.9253
 20
-28.5682
  0
VERTEX
  8
LAYER10
 62
     1
  6
CONTINUOUS
 10
10.9201
 20
-28.5659
  0
VERTEX
  8
LAYER10
 62
     1
  6
CONTINUOUS
 10
10.9155
 20
-28.5639
  0
VERTEX
  8
LAYER10
 62
     1
  6
CONTINUOUS
 10
10.9117
 20
-28.5621
  0
VERTEX
  8
LAYER10
 62
     1
  6
CONTINUOUS
 10
10.9088
 20
-28.5607
  0
VERTEX
  8
LAYER10
 62
     1
  6
CONTINUOUS
 10
10.9070
 20
-28.5597
  0
VERTEX
  8
LAYER10
 62
     1
  6
CONTINUOUS
 10
10.9063
 20
-28.5594
  0
VERTEX
  8
LAYER10
 62
     1
  6
CONTINUOUS
 10
10.9063
 20
-28.5594
  0
VERTEX
  8
LAYER10
 62
     1
  6
CONTINUOUS
 10
10.9064
 20
-28.5594
  0
VERTEX
  8
LAYER10
 62
     1
  6
CONTINUOUS
 10
10.9064
 20
-28.5594
  0
VERTEX
  8
LAYER10
 62
     1
  6
CONTINUOUS
 10
10.9064
 20
-28.5594
  0
VERTEX
  8
LAYER10
 62
     1
  6
CONTINUOUS
 10
10.9064
 20
-28.5594
  0
VERTEX
  8
LAYER10
 62
     1
  6
CONTINUOUS
 10
10.9064
 20
-28.5594
  0
VERTEX
  8
LAYER10
 62
     1
  6
CONTINUOUS
 10
10.9064
 20
-28.5594
  0
VERTEX
  8
LAYER10
 62
     1
  6
CONTINUOUS
 10
10.9064
 20
-28.5594
  0
VERTEX
  8
LAYER10
 62
     1
  6
CONTINUOUS
 10
10.9064
 20
-28.5594
  0
VERTEX
  8
LAYER10
 62
     1
  6
CONTINUOUS
 10
10.9064
 20
-28.5594
  0
VERTEX
  8
LAYER10
 62
     1
  6
CONTINUOUS
 10
10.9064
 20
-28.5594
  0
VERTEX
  8
LAYER10
 62
     1
  6
CONTINUOUS
 10
10.9063
 20
-28.5594
  0
VERTEX
  8
LAYER10
 62
     1
  6
CONTINUOUS
 10
10.9052
 20
-28.5589
  0
VERTEX
  8
LAYER10
 62
     1
  6
CONTINUOUS
 10
10.9029
 20
-28.5580
  0
VERTEX
  8
LAYER10
 62
     1
  6
CONTINUOUS
 10
10.8996
 20
-28.5568
  0
VERTEX
  8
LAYER10
 62
     1
  6
CONTINUOUS
 10
10.8956
 20
-28.5552
  0
VERTEX
  8
LAYER10
 62
     1
  6
CONTINUOUS
 10
10.8911
 20
-28.5535
  0
VERTEX
  8
LAYER10
 62
     1
  6
CONTINUOUS
 10
10.8863
 20
-28.5516
  0
VERTEX
  8
LAYER10
 62
     1
  6
CONTINUOUS
 10
10.8816
 20
-28.5498
  0
VERTEX
  8
LAYER10
 62
     1
  6
CONTINUOUS
 10
10.8771
 20
-28.5481
  0
VERTEX
  8
LAYER10
 62
     1
  6
CONTINUOUS
 10
10.8730
 20
-28.5466
  0
VERTEX
  8
LAYER10
 62
     1
  6
CONTINUOUS
 10
10.8697
 20
-28.5453
  0
VERTEX
  8
LAYER10
 62
     1
  6
CONTINUOUS
 10
10.8674
 20
-28.5445
  0
VERTEX
  8
LAYER10
 62
     1
  6
CONTINUOUS
 10
10.8662
 20
-28.5441
  0
VERTEX
  8
LAYER10
 62
     1
  6
CONTINUOUS
 10
10.8661
 20
-28.5441
  0
VERTEX
  8
LAYER10
 62
     1
  6
CONTINUOUS
 10
10.8661
 20
-28.5441
  0
VERTEX
  8
LAYER10
 62
     1
  6
CONTINUOUS
 10
10.8661
 20
-28.5441
  0
VERTEX
  8
LAYER10
 62
     1
  6
CONTINUOUS
 10
10.8661
 20
-28.5441
  0
VERTEX
  8
LAYER10
 62
     1
  6
CONTINUOUS
 10
10.8661
 20
-28.5441
  0
VERTEX
  8
LAYER10
 62
     1
  6
CONTINUOUS
 10
10.8661
 20
-28.5442
  0
VERTEX
  8
LAYER10
 62
     1
  6
CONTINUOUS
 10
10.8661
 20
-28.5442
  0
VERTEX
  8
LAYER10
 62
     1
  6
CONTINUOUS
 10
10.8661
 20
-28.5442
  0
VERTEX
  8
LAYER10
 62
     1
  6
CONTINUOUS
 10
10.8661
 20
-28.5442
  0
VERTEX
  8
LAYER10
 62
     1
  6
CONTINUOUS
 10
10.8661
 20
-28.5442
  0
VERTEX
  8
LAYER10
 62
     1
  6
CONTINUOUS
 10
10.8662
 20
-28.5442
  0
VERTEX
  8
LAYER10
 62
     1
  6
CONTINUOUS
 10
10.8662
 20
-28.5441
  0
VERTEX
  8
LAYER10
 62
     1
  6
CONTINUOUS
 10
10.8660
 20
-28.5434
  0
VERTEX
  8
LAYER10
 62
     1
  6
CONTINUOUS
 10
10.8652
 20
-28.5416
  0
VERTEX
  8
LAYER10
 62
     1
  6
CONTINUOUS
 10
10.8638
 20
-28.5391
  0
VERTEX
  8
LAYER10
 62
     1
  6
CONTINUOUS
 10
10.8621
 20
-28.5358
  0
VERTEX
  8
LAYER10
 62
     1
  6
CONTINUOUS
 10
10.8599
 20
-28.5319
  0
VERTEX
  8
LAYER10
 62
     1
  6
CONTINUOUS
 10
10.8575
 20
-28.5276
  0
VERTEX
  8
LAYER10
 62
     1
  6
CONTINUOUS
 10
10.8549
 20
-28.5229
  0
VERTEX
  8
LAYER10
 62
     1
  6
CONTINUOUS
 10
10.8521
 20
-28.5180
  0
VERTEX
  8
LAYER10
 62
     1
  6
CONTINUOUS
 10
10.8493
 20
-28.5130
  0
VERTEX
  8
LAYER10
 62
     1
  6
CONTINUOUS
 10
10.8465
 20
-28.5081
  0
VERTEX
  8
LAYER10
 62
     1
  6
CONTINUOUS
 10
10.8437
 20
-28.5033
  0
VERTEX
  8
LAYER10
 62
     1
  6
CONTINUOUS
 10
10.8412
 20
-28.4988
  0
VERTEX
  8
LAYER10
 62
     1
  6
CONTINUOUS
 10
10.8404
 20
-28.4974
  0
VERTEX
  8
LAYER10
 62
     1
  6
CONTINUOUS
 10
10.8397
 20
-28.4961
  0
VERTEX
  8
LAYER10
 62
     1
  6
CONTINUOUS
 10
10.8390
 20
-28.4948
  0
VERTEX
  8
LAYER10
 62
     1
  6
CONTINUOUS
 10
10.8382
 20
-28.4936
  0
VERTEX
  8
LAYER10
 62
     1
  6
CONTINUOUS
 10
10.8376
 20
-28.4923
  0
VERTEX
  8
LAYER10
 62
     1
  6
CONTINUOUS
 10
10.8369
 20
-28.4911
  0
VERTEX
  8
LAYER10
 62
     1
  6
CONTINUOUS
 10
10.8362
 20
-28.4900
  0
VERTEX
  8
LAYER10
 62
     1
  6
CONTINUOUS
 10
10.8356
 20
-28.4888
  0
VERTEX
  8
LAYER10
 62
     1
  6
CONTINUOUS
 10
10.8349
 20
-28.4876
  0
VERTEX
  8
LAYER10
 62
     1
  6
CONTINUOUS
 10
10.8343
 20
-28.4865
  0
VERTEX
  8
LAYER10
 62
     1
  6
CONTINUOUS
 10
10.8337
 20
-28.4854
  0
VERTEX
  8
LAYER10
 62
     1
  6
CONTINUOUS
 10
10.8331
 20
-28.4843
  0
SEQEND
  8
LAYER10
  0
POLYLINE
  8
LAYER12
 62
     5
 66
     1
  6
CONTINUOUS
  0
VERTEX
  8
LAYER12
 62
     5
  6
CONTINUOUS
 10
11.3258
 20
-28.4828
  0
VERTEX
  8
LAYER12
 62
     5
  6
CONTINUOUS
 10
10.3421
 20
-28.4828
  0
SEQEND
  8
LAYER12
  0
POLYLINE
  8
LAYER12
 62
     5
 66
     1
  6
CONTINUOUS
  0
VERTEX
  8
LAYER12
 62
     5
  6
CONTINUOUS
 10
11.3258
 20
-29.5059
  0
VERTEX
  8
LAYER12
 62
     5
  6
CONTINUOUS
 10
11.3258
 20
-28.4828
  0
SEQEND
  8
LAYER12
  0
POLYLINE
  8
LAYER12
 62
     5
 66
     1
  6
CONTINUOUS
  0
VERTEX
  8
LAYER12
 62
     5
  6
CONTINUOUS
 10
10.3421
 20
-28.4843
  0
VERTEX
  8
LAYER12
 62
     5
  6
CONTINUOUS
 10
10.3421
 20
-29.5059
  0
SEQEND
  8
LAYER12
  0
POLYLINE
  8
LAYER12
 62
     5
 66
     1
  6
CONTINUOUS
  0
VERTEX
  8
LAYER12
 62
     5
  6
CONTINUOUS
 10
11.3258
 20
-29.5059
  0
VERTEX
  8
LAYER12
 62
     5
  6
CONTINUOUS
 10
10.3421
 20
-29.5059
  0
SEQEND
  8
LAYER12
  0
ARC
  8
LAYER1
 62
     7
  6
CONTINUOUS
 10
10.3425
 20
-29.4498
 40
0.0178
 50
-91.2295
 51
91.2295
  0
ENDSEC
  0
EOF
