  0
SECTION
  2
HEADER
  9
$ACADVER
  1
AC1004
  9
$EXTMIN
 10
8.0330
 20
-3.4315
  9
$EXTMAX
 10
9.0561
 20
-2.4082
  9
$LIMMIN
 10
8.0330
 20
-3.4315
  9
$LIMMAX
 10
9.0561
 20
-2.4082
  9
$INSBASE
 10
0.0
 20
0.0
  9
$VIEWCTR
 10
7.21903
 20
4.5
  9
$VIEWSIZE
 40
9.0
  9
$SNAPMODE
 70
     0
  9
$SNAPUNIT
 10
1.0
 20
1.0
  9
$SNAPBASE
 10
0.0
 20
0.0
  9
$SNAPANG
 50
0.0
  9
$SNAPSTYLE
 70
     0
  9
$SNAPISOPAIR
 70
     0
  9
$GRIDMODE
 70
     0
  9
$GRIDUNIT
 10
0.0
 20
0.0
  9
$ORTHOMODE
 70
     0
  9
$REGENMODE
 70
     1
  9
$FILLMODE
 70
     1
  9
$QTEXTMODE
 70
     0
  9
$DRAGMODE
 70
     2
  9
$LTSCALE
 40
1.0
  9
$OSMODE
 70
     0
  9
$ATTMODE
 70
     1
  9
$TEXTSIZE
 40
0.2
  9
$TRACEWID
 40
0.05
  9
$TEXTSTYLE
  7
STANDARD
  9
$CLAYER
  8
0
  9
$CELTYPE
  6
BYLAYER
  9
$CECOLOR
 62
   256
  9
$DIMSCALE
 40
1.0
  9
$DIMASZ
 40
0.18
  9
$DIMEXO
 40
0.0625
  9
$DIMDLI
 40
0.38
  9
$DIMRND
 40
0.0
  9
$DIMDLE
 40
0.0
  9
$DIMEXE
 40
0.18
  9
$DIMTP
 40
0.0
  9
$DIMTM
 40
0.0
  9
$DIMTXT
 40
0.18
  9
$DIMCEN
 40
0.09
  9
$DIMTSZ
 40
0.0
  9
$DIMTOL
 70
     0
  9
$DIMLIM
 70
     0
  9
$DIMTIH
 70
     1
  9
$DIMTOH
 70
     1
  9
$DIMSE1
 70
     0
  9
$DIMSE2
 70
     0
  9
$DIMTAD
 70
     0
  9
$DIMZIN
 70
     0
  9
$DIMBLK
  1

  9
$DIMASO
 70
     1
  9
$DIMSHO
 70
     0
  9
$DIMPOST
  1

  9
$DIMAPOST
  1

  9
$DIMALT
 70
     0
  9
$DIMALTD
 70
     2
  9
$DIMALTF
 40
25.4
  9
$DIMLFAC
 40
1.0
  9
$LUNITS
 70
     2
  9
$LUPREC
 70
     4
  9
$AXISMODE
 70
     0
  9
$AXISUNIT
 10
0.0
 20
0.0
  9
$SKETCHINC
 40
0.1
  9
$FILLETRAD
 40
0.0
  9
$AUNITS
 70
     0
  9
$AUPREC
 70
     0
  9
$MENU
  1
acad
  9
$ELEVATION
 40
0.0
  9
$THICKNESS
 40
0.0
  9
$VIEWDIR
 10
0.0
 20
0.0
 30
1.0
  9
$LIMCHECK
 70
     0
  9
$BLIPMODE
 70
     1
  9
$CHAMFERA
 40
0.0
  9
$CHAMFERB
 40
0.0
  9
$FASTZOOM
 70
     1
  9
$SKPOLY
 70
     0
  9
$TDCREATE
 40
2447222.5666886573
  9
$TDUPDATE
 40
2447222.5666886573
  9
$TDINDWG
 40
0.0000000000
  9
$TDUSRTIMER
 40
0.0000000000
  9
$USRTIMER
 70
     1
  9
$ANGBASE
 50
0.0
  9
$ANGDIR
 70
     0
  9
$PDMODE
 70
     0
  9
$PDSIZE
 40
0.0
  9
$PLINEWID
 40
0.0
  9
$COORDS
 70
     0
  9
$SPLFRAME
 70
     0
  9
$SPLINESEGS
 70
     8
  9
$ATTDIA
 70
     0
  9
$ATTREQ
 70
     1
  9
$USERI1
 70
     0
  9
$USERI2
 70
     0
  9
$USERI3
 70
     0
  9
$USERI4
 70
     0
  9
$USERI5
 70
     0
  9
$USERR1
 40
0.0
  9
$USERR2
 40
0.0
  9
$USERR3
 40
0.0
  9
$USERR4
 40
0.0
  9
$USERR5
 40
0.0
  0
ENDSEC
  0
SECTION
  2
TABLES
  0
TABLE
  2
LTYPE
 70
     13
  0
LTYPE
  2
CONTINUOUS
 70
    64
  3
Solid line
 72
    65
 73
     0
 40
0.0
  0
LTYPE
  2
DASHED
 70
    64
  3
__ __ __ __ __ __ __ __ __ __ __ __ __ __ __
 72
    65
 73
     2
 40
0.75
 49
0.5
 49
-0.25
  0
LTYPE
  2
HIDDEN
 70
    64
  3
_ _ _ _ _ _ _ _ _ _ _ _ _ _ _ _ _ _ _ _ _ _ _
 72
    65
 73
     2
 40
0.375
 49
0.25
 49
-0.125
  0
LTYPE
  2
CENTER
 70
    64
  3
____ _ ____ _ ____ _ ____ _ ____ _ ____ _ ____
 72
    65
 73
     4
 40
2.0
 49
1.25
 49
-0.25
 49
0.25
 49
-0.25
  0
LTYPE
  2
PHANTOM
 70
    64
  3
_____ _ _ _____ _ _ _____ _ _ _____ _ _ ____
 72
    65
 73
     6
 40
2.5
 49
1.25
 49
-0.25
 49
0.25
 49
-0.25
 49
0.25
 49
-0.25
  0
LTYPE
  2
DOT
 70
    64
  3
...............................................
 72
    65
 73
     2
 40
0.25
 49
0.0
 49
-0.25
  0
LTYPE
  2
DASHDOT
 70
    64
  3
__ . __ . __ . __ . __ . __ . __ . __ . __ . __
 72
    65
 73
     4
 40
1.0
 49
0.5
 49
-0.25
 49
0.0
 49
-0.25
  0
LTYPE
  2
BORDER
 70
    64
  3
__ __ . __ __ . __ __ . __ __ . __ __ . __ __
 72
    65
 73
     6
 40
1.75
 49
0.5
 49
-0.25
 49
0.5
 49
-0.25
 49
0.0
 49
-0.25
  0
LTYPE
  2
DIVIDE
 70
    64
  3
__ . . __ . . __ . . __ . . __ . . __ . . __
 72
    65
 73
     6
 40
1.25
 49
0.5
 49
-0.25
 49
0.0
 49
-0.25
 49
0.0
 49
-0.25
  0
LTYPE
  2
DCTYPE1
 70
    64
  3
__ . . __ . . __ . . __ . . __ . . __ . . __
 72
    65
 73
     8
 40
2.5
 49
0.5
 49
-0.25
 49
0.125
 49
-0.25
 49
0.25
 49
-0.25
 49
0.125
 49
-0.25
  0
LTYPE
  2
DCTYPE2
 70
    64
  3
__ . . __ . . __ . . __ . . __ . . __ . . __
 72
    65
 73
     6
 40
2.05
 49
1.0
 49
-0.3
 49
0.15
 49
-0.15
 49
0.15
 49
-0.3
  0
LTYPE
  2
DCTYPE3
 70
    64
  3
__ . . __ . . __ . . __ . . __ . . __ . . __
 72
    65
 73
     6
 40
2.5
 49
0.8
 49
-0.2
 49
0.8
 49
-0.2
 49
0.3
 49
-0.2
  0
LTYPE
  2
DCTYPE4
 70
    64
  3
__ . . __ . . __ . . __ . . __ . . __ . . __
 72
    65
 73
     10
 40
3.97
 49
1.75
 49
-0.3
 49
0.3
 49
-0.3
 49
0.06
 49
-0.3
 49
0.06
 49
-0.3
 49
0.3
 49
-0.3
  0
ENDTAB
  0
TABLE
  2
LAYER
 70
    153
  0
LAYER
  2
LAYER1
 70
 64
 62
     7
  6
CONTINUOUS
  0
LAYER
  2
LAYER12
 70
 64
 62
     5
  6
CONTINUOUS
  0
ENDTAB
  0
ENDSEC
  0
SECTION
  2
BLOCKS
  0
ENDSEC
  0
SECTION
  2
ENTITIES
  0
CIRCLE
  8
LAYER1
 62
     7
  6
CONTINUOUS
 10
8.0725
 20
-2.7125
 40
0.0127
  0
CIRCLE
  8
LAYER1
 62
     7
  6
CONTINUOUS
 10
8.1538
 20
-2.7124
 40
0.0205
  0
CIRCLE
  8
LAYER1
 62
     7
  6
CONTINUOUS
 10
8.2249
 20
-2.7224
 40
0.0105
  0
CIRCLE
  8
LAYER1
 62
     7
  6
CONTINUOUS
 10
8.2934
 20
-2.6917
 40
0.0183
  0
CIRCLE
  8
LAYER1
 62
     7
  6
CONTINUOUS
 10
8.3518
 20
-2.6662
 40
0.0127
  0
CIRCLE
  8
LAYER1
 62
     7
  6
CONTINUOUS
 10
8.3975
 20
-2.6508
 40
0.0170
  0
CIRCLE
  8
LAYER1
 62
     7
  6
CONTINUOUS
 10
8.4685
 20
-2.6329
 40
0.0130
  0
CIRCLE
  8
LAYER1
 62
     7
  6
CONTINUOUS
 10
8.4686
 20
-2.6583
 40
0.0129
  0
CIRCLE
  8
LAYER1
 62
     7
  6
CONTINUOUS
 10
8.5346
 20
-2.6429
 40
0.0180
  0
CIRCLE
  8
LAYER1
 62
     7
  6
CONTINUOUS
 10
8.3165
 20
-2.8085
 40
0.0092
  0
CIRCLE
  8
LAYER1
 62
     7
  6
CONTINUOUS
 10
8.1768
 20
-2.8063
 40
0.0137
  0
CIRCLE
  8
LAYER1
 62
     7
  6
CONTINUOUS
 10
8.6387
 20
-2.6249
 40
0.0114
  0
CIRCLE
  8
LAYER1
 62
     7
  6
CONTINUOUS
 10
8.6996
 20
-2.6146
 40
0.0102
  0
CIRCLE
  8
LAYER1
 62
     7
  6
CONTINUOUS
 10
8.7453
 20
-2.6043
 40
0.0216
  0
CIRCLE
  8
LAYER1
 62
     7
  6
CONTINUOUS
 10
8.7809
 20
-2.5865
 40
0.0185
  0
CIRCLE
  8
LAYER1
 62
     7
  6
CONTINUOUS
 10
8.8341
 20
-2.5432
 40
0.0170
  0
CIRCLE
  8
LAYER1
 62
     7
  6
CONTINUOUS
 10
8.7716
 20
-2.9980
 40
0.0178
  0
CIRCLE
  8
LAYER1
 62
     7
  6
CONTINUOUS
 10
8.9306
 20
-2.5404
 40
0.0080
  0
CIRCLE
  8
LAYER1
 62
     7
  6
CONTINUOUS
 10
8.9381
 20
-2.4947
 40
0.0185
  0
CIRCLE
  8
LAYER1
 62
     7
  6
CONTINUOUS
 10
8.7831
 20
-2.4823
 40
0.0205
  0
POLYLINE
  8
LAYER12
 62
     5
 66
     1
  6
CONTINUOUS
  0
VERTEX
  8
LAYER12
 62
     5
  6
CONTINUOUS
 10
8.0330
 20
-2.4084
  0
VERTEX
  8
LAYER12
 62
     5
  6
CONTINUOUS
 10
8.0330
 20
-3.4308
  0
SEQEND
  8
LAYER12
  0
POLYLINE
  8
LAYER1
 62
     7
 66
     1
  6
CONTINUOUS
  0
VERTEX
  8
LAYER1
 62
     7
  6
CONTINUOUS
 10
9.0489
 20
-2.5022
  0
VERTEX
  8
LAYER1
 62
     7
  6
CONTINUOUS
 10
9.0454
 20
-2.5031
  0
VERTEX
  8
LAYER1
 62
     7
  6
CONTINUOUS
 10
9.0422
 20
-2.5046
  0
VERTEX
  8
LAYER1
 62
     7
  6
CONTINUOUS
 10
9.0393
 20
-2.5067
  0
VERTEX
  8
LAYER1
 62
     7
  6
CONTINUOUS
 10
9.0378
 20
-2.5082
  0
SEQEND
  8
LAYER1
  0
POLYLINE
  8
LAYER1
 62
     7
 66
     1
  6
CONTINUOUS
  0
VERTEX
  8
LAYER1
 62
     7
  6
CONTINUOUS
 10
9.0378
 20
-2.5082
  0
VERTEX
  8
LAYER1
 62
     7
  6
CONTINUOUS
 10
9.0368
 20
-2.5092
  0
VERTEX
  8
LAYER1
 62
     7
  6
CONTINUOUS
 10
9.0347
 20
-2.5121
  0
VERTEX
  8
LAYER1
 62
     7
  6
CONTINUOUS
 10
9.0332
 20
-2.5154
  0
VERTEX
  8
LAYER1
 62
     7
  6
CONTINUOUS
 10
9.0323
 20
-2.5188
  0
VERTEX
  8
LAYER1
 62
     7
  6
CONTINUOUS
 10
9.0323
 20
-2.5195
  0
SEQEND
  8
LAYER1
  0
POLYLINE
  8
LAYER1
 62
     7
 66
     1
  6
CONTINUOUS
  0
VERTEX
  8
LAYER1
 62
     7
  6
CONTINUOUS
 10
9.0323
 20
-2.5195
  0
VERTEX
  8
LAYER1
 62
     7
  6
CONTINUOUS
 10
9.0320
 20
-2.5224
  0
VERTEX
  8
LAYER1
 62
     7
  6
CONTINUOUS
 10
9.0323
 20
-2.5259
  0
VERTEX
  8
LAYER1
 62
     7
  6
CONTINUOUS
 10
9.0333
 20
-2.5294
  0
VERTEX
  8
LAYER1
 62
     7
  6
CONTINUOUS
 10
9.0345
 20
-2.5320
  0
SEQEND
  8
LAYER1
  0
POLYLINE
  8
LAYER1
 62
     7
 66
     1
  6
CONTINUOUS
  0
VERTEX
  8
LAYER1
 62
     7
  6
CONTINUOUS
 10
9.0345
 20
-2.5320
  0
VERTEX
  8
LAYER1
 62
     7
  6
CONTINUOUS
 10
9.0348
 20
-2.5326
  0
VERTEX
  8
LAYER1
 62
     7
  6
CONTINUOUS
 10
9.0368
 20
-2.5355
  0
VERTEX
  8
LAYER1
 62
     7
  6
CONTINUOUS
 10
9.0394
 20
-2.5380
  0
VERTEX
  8
LAYER1
 62
     7
  6
CONTINUOUS
 10
9.0423
 20
-2.5401
  0
VERTEX
  8
LAYER1
 62
     7
  6
CONTINUOUS
 10
9.0436
 20
-2.5407
  0
SEQEND
  8
LAYER1
  0
POLYLINE
  8
LAYER1
 62
     7
 66
     1
  6
CONTINUOUS
  0
VERTEX
  8
LAYER1
 62
     7
  6
CONTINUOUS
 10
9.0561
 20
-2.5022
  0
VERTEX
  8
LAYER1
 62
     7
  6
CONTINUOUS
 10
9.0524
 20
-2.5019
  0
VERTEX
  8
LAYER1
 62
     7
  6
CONTINUOUS
 10
9.0489
 20
-2.5022
  0
SEQEND
  8
LAYER1
  0
POLYLINE
  8
LAYER1
 62
     7
 66
     1
  6
CONTINUOUS
  0
VERTEX
  8
LAYER1
 62
     7
  6
CONTINUOUS
 10
9.0436
 20
-2.5407
  0
VERTEX
  8
LAYER1
 62
     7
  6
CONTINUOUS
 10
9.0455
 20
-2.5416
  0
VERTEX
  8
LAYER1
 62
     7
  6
CONTINUOUS
 10
9.0490
 20
-2.5425
  0
VERTEX
  8
LAYER1
 62
     7
  6
CONTINUOUS
 10
9.0525
 20
-2.5428
  0
VERTEX
  8
LAYER1
 62
     7
  6
CONTINUOUS
 10
9.0561
 20
-2.5425
  0
SEQEND
  8
LAYER1
  0
POLYLINE
  8
LAYER12
 62
     5
 66
     1
  6
CONTINUOUS
  0
VERTEX
  8
LAYER12
 62
     5
  6
CONTINUOUS
 10
9.0561
 20
-3.4315
  0
VERTEX
  8
LAYER12
 62
     5
  6
CONTINUOUS
 10
9.0561
 20
-2.4082
  0
SEQEND
  8
LAYER12
  0
POLYLINE
  8
LAYER12
 62
     5
 66
     1
  6
CONTINUOUS
  0
VERTEX
  8
LAYER12
 62
     5
  6
CONTINUOUS
 10
9.0561
 20
-2.4084
  0
VERTEX
  8
LAYER12
 62
     5
  6
CONTINUOUS
 10
8.0340
 20
-2.4084
  0
SEQEND
  8
LAYER12
  0
POLYLINE
  8
LAYER12
 62
     5
 66
     1
  6
CONTINUOUS
  0
VERTEX
  8
LAYER12
 62
     5
  6
CONTINUOUS
 10
9.0561
 20
-3.4315
  0
VERTEX
  8
LAYER12
 62
     5
  6
CONTINUOUS
 10
8.0340
 20
-3.4315
  0
SEQEND
  8
LAYER12
  0
ARC
  8
LAYER1
 62
     7
  6
CONTINUOUS
 10
8.0200
 20
-3.0886
 40
0.0254
 50
-56.4525
 51
56.4525
  0
ENDSEC
  0
EOF
