  0
SECTION
  2
HEADER
  9
$ACADVER
  1
AC1004
  9
$EXTMIN
 10
5.4465
 20
-10.1146
  9
$EXTMAX
 10
6.4696
 20
-9.1309
  9
$LIMMIN
 10
5.4465
 20
-10.1146
  9
$LIMMAX
 10
6.4696
 20
-9.1309
  9
$INSBASE
 10
0.0
 20
0.0
  9
$VIEWCTR
 10
7.21903
 20
4.5
  9
$VIEWSIZE
 40
9.0
  9
$SNAPMODE
 70
     0
  9
$SNAPUNIT
 10
1.0
 20
1.0
  9
$SNAPBASE
 10
0.0
 20
0.0
  9
$SNAPANG
 50
0.0
  9
$SNAPSTYLE
 70
     0
  9
$SNAPISOPAIR
 70
     0
  9
$GRIDMODE
 70
     0
  9
$GRIDUNIT
 10
0.0
 20
0.0
  9
$ORTHOMODE
 70
     0
  9
$REGENMODE
 70
     1
  9
$FILLMODE
 70
     1
  9
$QTEXTMODE
 70
     0
  9
$DRAGMODE
 70
     2
  9
$LTSCALE
 40
1.0
  9
$OSMODE
 70
     0
  9
$ATTMODE
 70
     1
  9
$TEXTSIZE
 40
0.2
  9
$TRACEWID
 40
0.05
  9
$TEXTSTYLE
  7
STANDARD
  9
$CLAYER
  8
0
  9
$CELTYPE
  6
BYLAYER
  9
$CECOLOR
 62
   256
  9
$DIMSCALE
 40
1.0
  9
$DIMASZ
 40
0.18
  9
$DIMEXO
 40
0.0625
  9
$DIMDLI
 40
0.38
  9
$DIMRND
 40
0.0
  9
$DIMDLE
 40
0.0
  9
$DIMEXE
 40
0.18
  9
$DIMTP
 40
0.0
  9
$DIMTM
 40
0.0
  9
$DIMTXT
 40
0.18
  9
$DIMCEN
 40
0.09
  9
$DIMTSZ
 40
0.0
  9
$DIMTOL
 70
     0
  9
$DIMLIM
 70
     0
  9
$DIMTIH
 70
     1
  9
$DIMTOH
 70
     1
  9
$DIMSE1
 70
     0
  9
$DIMSE2
 70
     0
  9
$DIMTAD
 70
     0
  9
$DIMZIN
 70
     0
  9
$DIMBLK
  1

  9
$DIMASO
 70
     1
  9
$DIMSHO
 70
     0
  9
$DIMPOST
  1

  9
$DIMAPOST
  1

  9
$DIMALT
 70
     0
  9
$DIMALTD
 70
     2
  9
$DIMALTF
 40
25.4
  9
$DIMLFAC
 40
1.0
  9
$LUNITS
 70
     2
  9
$LUPREC
 70
     4
  9
$AXISMODE
 70
     0
  9
$AXISUNIT
 10
0.0
 20
0.0
  9
$SKETCHINC
 40
0.1
  9
$FILLETRAD
 40
0.0
  9
$AUNITS
 70
     0
  9
$AUPREC
 70
     0
  9
$MENU
  1
acad
  9
$ELEVATION
 40
0.0
  9
$THICKNESS
 40
0.0
  9
$VIEWDIR
 10
0.0
 20
0.0
 30
1.0
  9
$LIMCHECK
 70
     0
  9
$BLIPMODE
 70
     1
  9
$CHAMFERA
 40
0.0
  9
$CHAMFERB
 40
0.0
  9
$FASTZOOM
 70
     1
  9
$SKPOLY
 70
     0
  9
$TDCREATE
 40
2447222.5666886573
  9
$TDUPDATE
 40
2447222.5666886573
  9
$TDINDWG
 40
0.0000000000
  9
$TDUSRTIMER
 40
0.0000000000
  9
$USRTIMER
 70
     1
  9
$ANGBASE
 50
0.0
  9
$ANGDIR
 70
     0
  9
$PDMODE
 70
     0
  9
$PDSIZE
 40
0.0
  9
$PLINEWID
 40
0.0
  9
$COORDS
 70
     0
  9
$SPLFRAME
 70
     0
  9
$SPLINESEGS
 70
     8
  9
$ATTDIA
 70
     0
  9
$ATTREQ
 70
     1
  9
$USERI1
 70
     0
  9
$USERI2
 70
     0
  9
$USERI3
 70
     0
  9
$USERI4
 70
     0
  9
$USERI5
 70
     0
  9
$USERR1
 40
0.0
  9
$USERR2
 40
0.0
  9
$USERR3
 40
0.0
  9
$USERR4
 40
0.0
  9
$USERR5
 40
0.0
  0
ENDSEC
  0
SECTION
  2
TABLES
  0
TABLE
  2
LTYPE
 70
     13
  0
LTYPE
  2
CONTINUOUS
 70
    64
  3
Solid line
 72
    65
 73
     0
 40
0.0
  0
LTYPE
  2
DASHED
 70
    64
  3
__ __ __ __ __ __ __ __ __ __ __ __ __ __ __
 72
    65
 73
     2
 40
0.75
 49
0.5
 49
-0.25
  0
LTYPE
  2
HIDDEN
 70
    64
  3
_ _ _ _ _ _ _ _ _ _ _ _ _ _ _ _ _ _ _ _ _ _ _
 72
    65
 73
     2
 40
0.375
 49
0.25
 49
-0.125
  0
LTYPE
  2
CENTER
 70
    64
  3
____ _ ____ _ ____ _ ____ _ ____ _ ____ _ ____
 72
    65
 73
     4
 40
2.0
 49
1.25
 49
-0.25
 49
0.25
 49
-0.25
  0
LTYPE
  2
PHANTOM
 70
    64
  3
_____ _ _ _____ _ _ _____ _ _ _____ _ _ ____
 72
    65
 73
     6
 40
2.5
 49
1.25
 49
-0.25
 49
0.25
 49
-0.25
 49
0.25
 49
-0.25
  0
LTYPE
  2
DOT
 70
    64
  3
...............................................
 72
    65
 73
     2
 40
0.25
 49
0.0
 49
-0.25
  0
LTYPE
  2
DASHDOT
 70
    64
  3
__ . __ . __ . __ . __ . __ . __ . __ . __ . __
 72
    65
 73
     4
 40
1.0
 49
0.5
 49
-0.25
 49
0.0
 49
-0.25
  0
LTYPE
  2
BORDER
 70
    64
  3
__ __ . __ __ . __ __ . __ __ . __ __ . __ __
 72
    65
 73
     6
 40
1.75
 49
0.5
 49
-0.25
 49
0.5
 49
-0.25
 49
0.0
 49
-0.25
  0
LTYPE
  2
DIVIDE
 70
    64
  3
__ . . __ . . __ . . __ . . __ . . __ . . __
 72
    65
 73
     6
 40
1.25
 49
0.5
 49
-0.25
 49
0.0
 49
-0.25
 49
0.0
 49
-0.25
  0
LTYPE
  2
DCTYPE1
 70
    64
  3
__ . . __ . . __ . . __ . . __ . . __ . . __
 72
    65
 73
     8
 40
2.5
 49
0.5
 49
-0.25
 49
0.125
 49
-0.25
 49
0.25
 49
-0.25
 49
0.125
 49
-0.25
  0
LTYPE
  2
DCTYPE2
 70
    64
  3
__ . . __ . . __ . . __ . . __ . . __ . . __
 72
    65
 73
     6
 40
2.05
 49
1.0
 49
-0.3
 49
0.15
 49
-0.15
 49
0.15
 49
-0.3
  0
LTYPE
  2
DCTYPE3
 70
    64
  3
__ . . __ . . __ . . __ . . __ . . __ . . __
 72
    65
 73
     6
 40
2.5
 49
0.8
 49
-0.2
 49
0.8
 49
-0.2
 49
0.3
 49
-0.2
  0
LTYPE
  2
DCTYPE4
 70
    64
  3
__ . . __ . . __ . . __ . . __ . . __ . . __
 72
    65
 73
     10
 40
3.97
 49
1.75
 49
-0.3
 49
0.3
 49
-0.3
 49
0.06
 49
-0.3
 49
0.06
 49
-0.3
 49
0.3
 49
-0.3
  0
ENDTAB
  0
TABLE
  2
LAYER
 70
    153
  0
LAYER
  2
LAYER1
 70
 64
 62
     7
  6
CONTINUOUS
  0
LAYER
  2
LAYER12
 70
 64
 62
     5
  6
CONTINUOUS
  0
ENDTAB
  0
ENDSEC
  0
SECTION
  2
BLOCKS
  0
ENDSEC
  0
SECTION
  2
ENTITIES
  0
CIRCLE
  8
LAYER1
 62
     7
  6
CONTINUOUS
 10
6.2822
 20
-9.2569
 40
0.0161
  0
CIRCLE
  8
LAYER1
 62
     7
  6
CONTINUOUS
 10
6.0057
 20
-9.1623
 40
0.0193
  0
CIRCLE
  8
LAYER1
 62
     7
  6
CONTINUOUS
 10
5.9776
 20
-9.2333
 40
0.0076
  0
CIRCLE
  8
LAYER1
 62
     7
  6
CONTINUOUS
 10
5.8331
 20
-9.1746
 40
0.0205
  0
CIRCLE
  8
LAYER1
 62
     7
  6
CONTINUOUS
 10
5.8609
 20
-9.2203
 40
0.0161
  0
CIRCLE
  8
LAYER1
 62
     7
  6
CONTINUOUS
 10
5.6193
 20
-9.3899
 40
0.0289
  0
CIRCLE
  8
LAYER1
 62
     7
  6
CONTINUOUS
 10
5.4683
 20
-10.0270
 40
0.0147
  0
CIRCLE
  8
LAYER1
 62
     7
  6
CONTINUOUS
 10
5.5059
 20
-10.0472
 40
0.0169
  0
CIRCLE
  8
LAYER1
 62
     7
  6
CONTINUOUS
 10
5.5586
 20
-10.0700
 40
0.0135
  0
CIRCLE
  8
LAYER1
 62
     7
  6
CONTINUOUS
 10
5.6114
 20
-10.0828
 40
0.0169
  0
CIRCLE
  8
LAYER1
 62
     7
  6
CONTINUOUS
 10
5.6959
 20
-9.6557
 40
0.0128
  0
CIRCLE
  8
LAYER1
 62
     7
  6
CONTINUOUS
 10
5.6202
 20
-9.7334
 40
0.0104
  0
CIRCLE
  8
LAYER1
 62
     7
  6
CONTINUOUS
 10
5.5899
 20
-9.7559
 40
0.0128
  0
CIRCLE
  8
LAYER1
 62
     7
  6
CONTINUOUS
 10
5.6023
 20
-9.7987
 40
0.0159
  0
CIRCLE
  8
LAYER1
 62
     7
  6
CONTINUOUS
 10
5.4715
 20
-9.8259
 40
0.0126
  0
CIRCLE
  8
LAYER1
 62
     7
  6
CONTINUOUS
 10
6.1918
 20
-9.4640
 40
0.0207
  0
CIRCLE
  8
LAYER1
 62
     7
  6
CONTINUOUS
 10
6.1790
 20
-9.5318
 40
0.0391
  0
CIRCLE
  8
LAYER1
 62
     7
  6
CONTINUOUS
 10
6.2492
 20
-9.5848
 40
0.0203
  0
CIRCLE
  8
LAYER1
 62
     7
  6
CONTINUOUS
 10
6.3697
 20
-9.6230
 40
0.0178
  0
CIRCLE
  8
LAYER1
 62
     7
  6
CONTINUOUS
 10
6.3745
 20
-9.6934
 40
0.0128
  0
CIRCLE
  8
LAYER1
 62
     7
  6
CONTINUOUS
 10
6.1601
 20
-9.8862
 40
0.0159
  0
CIRCLE
  8
LAYER1
 62
     7
  6
CONTINUOUS
 10
6.0952
 20
-9.7552
 40
0.0503
  0
CIRCLE
  8
LAYER1
 62
     7
  6
CONTINUOUS
 10
6.0265
 20
-9.9963
 40
0.0169
  0
CIRCLE
  8
LAYER1
 62
     7
  6
CONTINUOUS
 10
6.0741
 20
-10.0367
 40
0.0159
  0
CIRCLE
  8
LAYER1
 62
     7
  6
CONTINUOUS
 10
6.2326
 20
-10.0071
 40
0.0176
  0
CIRCLE
  8
LAYER1
 62
     7
  6
CONTINUOUS
 10
6.2500
 20
-10.0575
 40
0.0207
  0
ARC
  8
LAYER1
 62
     7
  6
CONTINUOUS
 10
5.6540
 20
-10.0980
 40
0.0178
 50
-52.2717
 51
-45.2076
  0
POLYLINE
  8
LAYER1
 62
     7
 66
     1
  6
CONTINUOUS
  0
VERTEX
  8
LAYER1
 62
     7
  6
CONTINUOUS
 10
6.1530
 20
-10.1089
  0
VERTEX
  8
LAYER1
 62
     7
  6
CONTINUOUS
 10
6.1496
 20
-10.1064
  0
VERTEX
  8
LAYER1
 62
     7
  6
CONTINUOUS
 10
6.1494
 20
-10.1063
  0
SEQEND
  8
LAYER1
  0
POLYLINE
  8
LAYER1
 62
     7
 66
     1
  6
CONTINUOUS
  0
VERTEX
  8
LAYER1
 62
     7
  6
CONTINUOUS
 10
6.1494
 20
-10.1063
  0
VERTEX
  8
LAYER1
 62
     7
  6
CONTINUOUS
 10
6.1458
 20
-10.1044
  0
VERTEX
  8
LAYER1
 62
     7
  6
CONTINUOUS
 10
6.1453
 20
-10.1043
  0
SEQEND
  8
LAYER1
  0
POLYLINE
  8
LAYER1
 62
     7
 66
     1
  6
CONTINUOUS
  0
VERTEX
  8
LAYER1
 62
     7
  6
CONTINUOUS
 10
6.1453
 20
-10.1043
  0
VERTEX
  8
LAYER1
 62
     7
  6
CONTINUOUS
 10
6.1416
 20
-10.1032
  0
VERTEX
  8
LAYER1
 62
     7
  6
CONTINUOUS
 10
6.1411
 20
-10.1031
  0
SEQEND
  8
LAYER1
  0
POLYLINE
  8
LAYER1
 62
     7
 66
     1
  6
CONTINUOUS
  0
VERTEX
  8
LAYER1
 62
     7
  6
CONTINUOUS
 10
6.1411
 20
-10.1031
  0
VERTEX
  8
LAYER1
 62
     7
  6
CONTINUOUS
 10
6.1373
 20
-10.1027
  0
VERTEX
  8
LAYER1
 62
     7
  6
CONTINUOUS
 10
6.1366
 20
-10.1028
  0
SEQEND
  8
LAYER1
  0
POLYLINE
  8
LAYER1
 62
     7
 66
     1
  6
CONTINUOUS
  0
VERTEX
  8
LAYER1
 62
     7
  6
CONTINUOUS
 10
6.1366
 20
-10.1028
  0
VERTEX
  8
LAYER1
 62
     7
  6
CONTINUOUS
 10
6.1330
 20
-10.1030
  0
VERTEX
  8
LAYER1
 62
     7
  6
CONTINUOUS
 10
6.1322
 20
-10.1032
  0
SEQEND
  8
LAYER1
  0
POLYLINE
  8
LAYER1
 62
     7
 66
     1
  6
CONTINUOUS
  0
VERTEX
  8
LAYER1
 62
     7
  6
CONTINUOUS
 10
6.1322
 20
-10.1032
  0
VERTEX
  8
LAYER1
 62
     7
  6
CONTINUOUS
 10
6.1288
 20
-10.1040
  0
VERTEX
  8
LAYER1
 62
     7
  6
CONTINUOUS
 10
6.1279
 20
-10.1044
  0
SEQEND
  8
LAYER1
  0
POLYLINE
  8
LAYER1
 62
     7
 66
     1
  6
CONTINUOUS
  0
VERTEX
  8
LAYER1
 62
     7
  6
CONTINUOUS
 10
6.1279
 20
-10.1044
  0
VERTEX
  8
LAYER1
 62
     7
  6
CONTINUOUS
 10
6.1249
 20
-10.1057
  0
VERTEX
  8
LAYER1
 62
     7
  6
CONTINUOUS
 10
6.1239
 20
-10.1063
  0
SEQEND
  8
LAYER1
  0
POLYLINE
  8
LAYER1
 62
     7
 66
     1
  6
CONTINUOUS
  0
VERTEX
  8
LAYER1
 62
     7
  6
CONTINUOUS
 10
6.1239
 20
-10.1063
  0
VERTEX
  8
LAYER1
 62
     7
  6
CONTINUOUS
 10
6.1213
 20
-10.1080
  0
VERTEX
  8
LAYER1
 62
     7
  6
CONTINUOUS
 10
6.1203
 20
-10.1089
  0
SEQEND
  8
LAYER1
  0
POLYLINE
  8
LAYER1
 62
     7
 66
     1
  6
CONTINUOUS
  0
VERTEX
  8
LAYER1
 62
     7
  6
CONTINUOUS
 10
6.1545
 20
-10.1105
  0
VERTEX
  8
LAYER1
 62
     7
  6
CONTINUOUS
 10
6.1531
 20
-10.1090
  0
VERTEX
  8
LAYER1
 62
     7
  6
CONTINUOUS
 10
6.1530
 20
-10.1089
  0
SEQEND
  8
LAYER1
  0
POLYLINE
  8
LAYER1
 62
     7
 66
     1
  6
CONTINUOUS
  0
VERTEX
  8
LAYER1
 62
     7
  6
CONTINUOUS
 10
6.1530
 20
-10.1089
  0
VERTEX
  8
LAYER1
 62
     7
  6
CONTINUOUS
 10
6.1512
 20
-10.1075
  0
SEQEND
  8
LAYER1
  0
POLYLINE
  8
LAYER1
 62
     7
 66
     1
  6
CONTINUOUS
  0
VERTEX
  8
LAYER1
 62
     7
  6
CONTINUOUS
 10
6.1512
 20
-10.1075
  0
VERTEX
  8
LAYER1
 62
     7
  6
CONTINUOUS
 10
6.1496
 20
-10.1064
  0
VERTEX
  8
LAYER1
 62
     7
  6
CONTINUOUS
 10
6.1494
 20
-10.1063
  0
SEQEND
  8
LAYER1
  0
POLYLINE
  8
LAYER1
 62
     7
 66
     1
  6
CONTINUOUS
  0
VERTEX
  8
LAYER1
 62
     7
  6
CONTINUOUS
 10
6.1494
 20
-10.1063
  0
VERTEX
  8
LAYER1
 62
     7
  6
CONTINUOUS
 10
6.1474
 20
-10.1053
  0
SEQEND
  8
LAYER1
  0
POLYLINE
  8
LAYER1
 62
     7
 66
     1
  6
CONTINUOUS
  0
VERTEX
  8
LAYER1
 62
     7
  6
CONTINUOUS
 10
6.1474
 20
-10.1053
  0
VERTEX
  8
LAYER1
 62
     7
  6
CONTINUOUS
 10
6.1458
 20
-10.1044
  0
VERTEX
  8
LAYER1
 62
     7
  6
CONTINUOUS
 10
6.1453
 20
-10.1043
  0
SEQEND
  8
LAYER1
  0
POLYLINE
  8
LAYER1
 62
     7
 66
     1
  6
CONTINUOUS
  0
VERTEX
  8
LAYER1
 62
     7
  6
CONTINUOUS
 10
6.1453
 20
-10.1043
  0
VERTEX
  8
LAYER1
 62
     7
  6
CONTINUOUS
 10
6.1432
 20
-10.1037
  0
SEQEND
  8
LAYER1
  0
POLYLINE
  8
LAYER1
 62
     7
 66
     1
  6
CONTINUOUS
  0
VERTEX
  8
LAYER1
 62
     7
  6
CONTINUOUS
 10
6.1432
 20
-10.1037
  0
VERTEX
  8
LAYER1
 62
     7
  6
CONTINUOUS
 10
6.1416
 20
-10.1032
  0
VERTEX
  8
LAYER1
 62
     7
  6
CONTINUOUS
 10
6.1411
 20
-10.1031
  0
SEQEND
  8
LAYER1
  0
POLYLINE
  8
LAYER1
 62
     7
 66
     1
  6
CONTINUOUS
  0
VERTEX
  8
LAYER1
 62
     7
  6
CONTINUOUS
 10
6.1411
 20
-10.1031
  0
VERTEX
  8
LAYER1
 62
     7
  6
CONTINUOUS
 10
6.1388
 20
-10.1029
  0
SEQEND
  8
LAYER1
  0
POLYLINE
  8
LAYER1
 62
     7
 66
     1
  6
CONTINUOUS
  0
VERTEX
  8
LAYER1
 62
     7
  6
CONTINUOUS
 10
6.1388
 20
-10.1029
  0
VERTEX
  8
LAYER1
 62
     7
  6
CONTINUOUS
 10
6.1373
 20
-10.1027
  0
VERTEX
  8
LAYER1
 62
     7
  6
CONTINUOUS
 10
6.1366
 20
-10.1028
  0
SEQEND
  8
LAYER1
  0
POLYLINE
  8
LAYER1
 62
     7
 66
     1
  6
CONTINUOUS
  0
VERTEX
  8
LAYER1
 62
     7
  6
CONTINUOUS
 10
6.1366
 20
-10.1028
  0
VERTEX
  8
LAYER1
 62
     7
  6
CONTINUOUS
 10
6.1344
 20
-10.1029
  0
SEQEND
  8
LAYER1
  0
POLYLINE
  8
LAYER1
 62
     7
 66
     1
  6
CONTINUOUS
  0
VERTEX
  8
LAYER1
 62
     7
  6
CONTINUOUS
 10
6.1344
 20
-10.1029
  0
VERTEX
  8
LAYER1
 62
     7
  6
CONTINUOUS
 10
6.1330
 20
-10.1030
  0
VERTEX
  8
LAYER1
 62
     7
  6
CONTINUOUS
 10
6.1322
 20
-10.1032
  0
SEQEND
  8
LAYER1
  0
POLYLINE
  8
LAYER1
 62
     7
 66
     1
  6
CONTINUOUS
  0
VERTEX
  8
LAYER1
 62
     7
  6
CONTINUOUS
 10
6.1322
 20
-10.1032
  0
VERTEX
  8
LAYER1
 62
     7
  6
CONTINUOUS
 10
6.1300
 20
-10.1037
  0
SEQEND
  8
LAYER1
  0
POLYLINE
  8
LAYER1
 62
     7
 66
     1
  6
CONTINUOUS
  0
VERTEX
  8
LAYER1
 62
     7
  6
CONTINUOUS
 10
6.1300
 20
-10.1037
  0
VERTEX
  8
LAYER1
 62
     7
  6
CONTINUOUS
 10
6.1288
 20
-10.1040
  0
VERTEX
  8
LAYER1
 62
     7
  6
CONTINUOUS
 10
6.1279
 20
-10.1044
  0
SEQEND
  8
LAYER1
  0
POLYLINE
  8
LAYER1
 62
     7
 66
     1
  6
CONTINUOUS
  0
VERTEX
  8
LAYER1
 62
     7
  6
CONTINUOUS
 10
6.1279
 20
-10.1044
  0
VERTEX
  8
LAYER1
 62
     7
  6
CONTINUOUS
 10
6.1259
 20
-10.1052
  0
SEQEND
  8
LAYER1
  0
POLYLINE
  8
LAYER1
 62
     7
 66
     1
  6
CONTINUOUS
  0
VERTEX
  8
LAYER1
 62
     7
  6
CONTINUOUS
 10
6.1259
 20
-10.1052
  0
VERTEX
  8
LAYER1
 62
     7
  6
CONTINUOUS
 10
6.1249
 20
-10.1057
  0
VERTEX
  8
LAYER1
 62
     7
  6
CONTINUOUS
 10
6.1239
 20
-10.1063
  0
SEQEND
  8
LAYER1
  0
POLYLINE
  8
LAYER1
 62
     7
 66
     1
  6
CONTINUOUS
  0
VERTEX
  8
LAYER1
 62
     7
  6
CONTINUOUS
 10
6.1239
 20
-10.1063
  0
VERTEX
  8
LAYER1
 62
     7
  6
CONTINUOUS
 10
6.1220
 20
-10.1075
  0
SEQEND
  8
LAYER1
  0
POLYLINE
  8
LAYER1
 62
     7
 66
     1
  6
CONTINUOUS
  0
VERTEX
  8
LAYER1
 62
     7
  6
CONTINUOUS
 10
6.1220
 20
-10.1075
  0
VERTEX
  8
LAYER1
 62
     7
  6
CONTINUOUS
 10
6.1213
 20
-10.1080
  0
VERTEX
  8
LAYER1
 62
     7
  6
CONTINUOUS
 10
6.1203
 20
-10.1089
  0
SEQEND
  8
LAYER1
  0
POLYLINE
  8
LAYER1
 62
     7
 66
     1
  6
CONTINUOUS
  0
VERTEX
  8
LAYER1
 62
     7
  6
CONTINUOUS
 10
6.1203
 20
-10.1089
  0
VERTEX
  8
LAYER1
 62
     7
  6
CONTINUOUS
 10
6.1187
 20
-10.1105
  0
SEQEND
  8
LAYER1
  0
POLYLINE
  8
LAYER1
 62
     7
 66
     1
  6
CONTINUOUS
  0
VERTEX
  8
LAYER1
 62
     7
  6
CONTINUOUS
 10
6.1554
 20
-10.1114
  0
VERTEX
  8
LAYER1
 62
     7
  6
CONTINUOUS
 10
6.1530
 20
-10.1089
  0
VERTEX
  8
LAYER1
 62
     7
  6
CONTINUOUS
 10
6.1495
 20
-10.1063
  0
SEQEND
  8
LAYER1
  0
POLYLINE
  8
LAYER1
 62
     7
 66
     1
  6
CONTINUOUS
  0
VERTEX
  8
LAYER1
 62
     7
  6
CONTINUOUS
 10
6.1495
 20
-10.1063
  0
VERTEX
  8
LAYER1
 62
     7
  6
CONTINUOUS
 10
6.1495
 20
-10.1063
  0
VERTEX
  8
LAYER1
 62
     7
  6
CONTINUOUS
 10
6.1457
 20
-10.1044
  0
VERTEX
  8
LAYER1
 62
     7
  6
CONTINUOUS
 10
6.1424
 20
-10.1034
  0
SEQEND
  8
LAYER1
  0
POLYLINE
  8
LAYER1
 62
     7
 66
     1
  6
CONTINUOUS
  0
VERTEX
  8
LAYER1
 62
     7
  6
CONTINUOUS
 10
6.1424
 20
-10.1034
  0
VERTEX
  8
LAYER1
 62
     7
  6
CONTINUOUS
 10
6.1415
 20
-10.1032
  0
VERTEX
  8
LAYER1
 62
     7
  6
CONTINUOUS
 10
6.1372
 20
-10.1027
  0
VERTEX
  8
LAYER1
 62
     7
  6
CONTINUOUS
 10
6.1347
 20
-10.1029
  0
SEQEND
  8
LAYER1
  0
POLYLINE
  8
LAYER1
 62
     7
 66
     1
  6
CONTINUOUS
  0
VERTEX
  8
LAYER1
 62
     7
  6
CONTINUOUS
 10
6.1347
 20
-10.1029
  0
VERTEX
  8
LAYER1
 62
     7
  6
CONTINUOUS
 10
6.1329
 20
-10.1030
  0
VERTEX
  8
LAYER1
 62
     7
  6
CONTINUOUS
 10
6.1287
 20
-10.1040
  0
VERTEX
  8
LAYER1
 62
     7
  6
CONTINUOUS
 10
6.1272
 20
-10.1047
  0
SEQEND
  8
LAYER1
  0
POLYLINE
  8
LAYER1
 62
     7
 66
     1
  6
CONTINUOUS
  0
VERTEX
  8
LAYER1
 62
     7
  6
CONTINUOUS
 10
6.1272
 20
-10.1047
  0
VERTEX
  8
LAYER1
 62
     7
  6
CONTINUOUS
 10
6.1248
 20
-10.1057
  0
VERTEX
  8
LAYER1
 62
     7
  6
CONTINUOUS
 10
6.1212
 20
-10.1081
  0
VERTEX
  8
LAYER1
 62
     7
  6
CONTINUOUS
 10
6.1206
 20
-10.1087
  0
SEQEND
  8
LAYER1
  0
POLYLINE
  8
LAYER1
 62
     7
 66
     1
  6
CONTINUOUS
  0
VERTEX
  8
LAYER1
 62
     7
  6
CONTINUOUS
 10
6.1554
 20
-10.1114
  0
VERTEX
  8
LAYER1
 62
     7
  6
CONTINUOUS
 10
6.1530
 20
-10.1089
  0
VERTEX
  8
LAYER1
 62
     7
  6
CONTINUOUS
 10
6.1495
 20
-10.1063
  0
SEQEND
  8
LAYER1
  0
POLYLINE
  8
LAYER1
 62
     7
 66
     1
  6
CONTINUOUS
  0
VERTEX
  8
LAYER1
 62
     7
  6
CONTINUOUS
 10
6.1495
 20
-10.1063
  0
VERTEX
  8
LAYER1
 62
     7
  6
CONTINUOUS
 10
6.1495
 20
-10.1063
  0
VERTEX
  8
LAYER1
 62
     7
  6
CONTINUOUS
 10
6.1457
 20
-10.1044
  0
VERTEX
  8
LAYER1
 62
     7
  6
CONTINUOUS
 10
6.1424
 20
-10.1034
  0
SEQEND
  8
LAYER1
  0
POLYLINE
  8
LAYER1
 62
     7
 66
     1
  6
CONTINUOUS
  0
VERTEX
  8
LAYER1
 62
     7
  6
CONTINUOUS
 10
6.1424
 20
-10.1034
  0
VERTEX
  8
LAYER1
 62
     7
  6
CONTINUOUS
 10
6.1415
 20
-10.1032
  0
VERTEX
  8
LAYER1
 62
     7
  6
CONTINUOUS
 10
6.1372
 20
-10.1027
  0
VERTEX
  8
LAYER1
 62
     7
  6
CONTINUOUS
 10
6.1347
 20
-10.1029
  0
SEQEND
  8
LAYER1
  0
POLYLINE
  8
LAYER1
 62
     7
 66
     1
  6
CONTINUOUS
  0
VERTEX
  8
LAYER1
 62
     7
  6
CONTINUOUS
 10
6.1347
 20
-10.1029
  0
VERTEX
  8
LAYER1
 62
     7
  6
CONTINUOUS
 10
6.1329
 20
-10.1030
  0
VERTEX
  8
LAYER1
 62
     7
  6
CONTINUOUS
 10
6.1287
 20
-10.1040
  0
VERTEX
  8
LAYER1
 62
     7
  6
CONTINUOUS
 10
6.1272
 20
-10.1047
  0
SEQEND
  8
LAYER1
  0
POLYLINE
  8
LAYER1
 62
     7
 66
     1
  6
CONTINUOUS
  0
VERTEX
  8
LAYER1
 62
     7
  6
CONTINUOUS
 10
6.1272
 20
-10.1047
  0
VERTEX
  8
LAYER1
 62
     7
  6
CONTINUOUS
 10
6.1248
 20
-10.1057
  0
VERTEX
  8
LAYER1
 62
     7
  6
CONTINUOUS
 10
6.1212
 20
-10.1081
  0
VERTEX
  8
LAYER1
 62
     7
  6
CONTINUOUS
 10
6.1206
 20
-10.1087
  0
SEQEND
  8
LAYER1
  0
POLYLINE
  8
LAYER12
 62
     5
 66
     1
  6
CONTINUOUS
  0
VERTEX
  8
LAYER12
 62
     5
  6
CONTINUOUS
 10
5.4465
 20
-9.1309
  0
VERTEX
  8
LAYER12
 62
     5
  6
CONTINUOUS
 10
6.4149
 20
-9.1309
  0
SEQEND
  8
LAYER12
  0
POLYLINE
  8
LAYER12
 62
     5
 66
     1
  6
CONTINUOUS
  0
VERTEX
  8
LAYER12
 62
     5
  6
CONTINUOUS
 10
6.4149
 20
-9.1309
  0
VERTEX
  8
LAYER12
 62
     5
  6
CONTINUOUS
 10
6.4696
 20
-9.1309
  0
SEQEND
  8
LAYER12
  0
POLYLINE
  8
LAYER1
 62
     7
 66
     1
  6
CONTINUOUS
  0
VERTEX
  8
LAYER1
 62
     7
  6
CONTINUOUS
 10
6.1554
 20
-10.1114
  0
VERTEX
  8
LAYER1
 62
     7
  6
CONTINUOUS
 10
6.1530
 20
-10.1089
  0
VERTEX
  8
LAYER1
 62
     7
  6
CONTINUOUS
 10
6.1495
 20
-10.1063
  0
VERTEX
  8
LAYER1
 62
     7
  6
CONTINUOUS
 10
6.1495
 20
-10.1063
  0
SEQEND
  8
LAYER1
  0
POLYLINE
  8
LAYER1
 62
     7
 66
     1
  6
CONTINUOUS
  0
VERTEX
  8
LAYER1
 62
     7
  6
CONTINUOUS
 10
6.1495
 20
-10.1063
  0
VERTEX
  8
LAYER1
 62
     7
  6
CONTINUOUS
 10
6.1457
 20
-10.1044
  0
VERTEX
  8
LAYER1
 62
     7
  6
CONTINUOUS
 10
6.1424
 20
-10.1034
  0
SEQEND
  8
LAYER1
  0
POLYLINE
  8
LAYER1
 62
     7
 66
     1
  6
CONTINUOUS
  0
VERTEX
  8
LAYER1
 62
     7
  6
CONTINUOUS
 10
6.1424
 20
-10.1034
  0
VERTEX
  8
LAYER1
 62
     7
  6
CONTINUOUS
 10
6.1415
 20
-10.1032
  0
VERTEX
  8
LAYER1
 62
     7
  6
CONTINUOUS
 10
6.1372
 20
-10.1027
  0
VERTEX
  8
LAYER1
 62
     7
  6
CONTINUOUS
 10
6.1347
 20
-10.1029
  0
SEQEND
  8
LAYER1
  0
POLYLINE
  8
LAYER1
 62
     7
 66
     1
  6
CONTINUOUS
  0
VERTEX
  8
LAYER1
 62
     7
  6
CONTINUOUS
 10
6.1347
 20
-10.1029
  0
VERTEX
  8
LAYER1
 62
     7
  6
CONTINUOUS
 10
6.1329
 20
-10.1030
  0
VERTEX
  8
LAYER1
 62
     7
  6
CONTINUOUS
 10
6.1287
 20
-10.1040
  0
VERTEX
  8
LAYER1
 62
     7
  6
CONTINUOUS
 10
6.1272
 20
-10.1047
  0
SEQEND
  8
LAYER1
  0
POLYLINE
  8
LAYER1
 62
     7
 66
     1
  6
CONTINUOUS
  0
VERTEX
  8
LAYER1
 62
     7
  6
CONTINUOUS
 10
6.1272
 20
-10.1047
  0
VERTEX
  8
LAYER1
 62
     7
  6
CONTINUOUS
 10
6.1248
 20
-10.1057
  0
VERTEX
  8
LAYER1
 62
     7
  6
CONTINUOUS
 10
6.1212
 20
-10.1081
  0
VERTEX
  8
LAYER1
 62
     7
  6
CONTINUOUS
 10
6.1206
 20
-10.1087
  0
SEQEND
  8
LAYER1
  0
POLYLINE
  8
LAYER1
 62
     7
 66
     1
  6
CONTINUOUS
  0
VERTEX
  8
LAYER1
 62
     7
  6
CONTINUOUS
 10
6.1560
 20
-10.1121
  0
VERTEX
  8
LAYER1
 62
     7
  6
CONTINUOUS
 10
6.1531
 20
-10.1090
  0
VERTEX
  8
LAYER1
 62
     7
  6
CONTINUOUS
 10
6.1530
 20
-10.1089
  0
SEQEND
  8
LAYER1
  0
POLYLINE
  8
LAYER1
 62
     7
 66
     1
  6
CONTINUOUS
  0
VERTEX
  8
LAYER1
 62
     7
  6
CONTINUOUS
 10
6.1203
 20
-10.1089
  0
VERTEX
  8
LAYER1
 62
     7
  6
CONTINUOUS
 10
6.1181
 20
-10.1110
  0
VERTEX
  8
LAYER1
 62
     7
  6
CONTINUOUS
 10
6.1172
 20
-10.1121
  0
SEQEND
  8
LAYER1
  0
POLYLINE
  8
LAYER1
 62
     7
 66
     1
  6
CONTINUOUS
  0
VERTEX
  8
LAYER1
 62
     7
  6
CONTINUOUS
 10
6.1560
 20
-10.1121
  0
VERTEX
  8
LAYER1
 62
     7
  6
CONTINUOUS
 10
6.1545
 20
-10.1105
  0
SEQEND
  8
LAYER1
  0
POLYLINE
  8
LAYER1
 62
     7
 66
     1
  6
CONTINUOUS
  0
VERTEX
  8
LAYER1
 62
     7
  6
CONTINUOUS
 10
6.1187
 20
-10.1105
  0
VERTEX
  8
LAYER1
 62
     7
  6
CONTINUOUS
 10
6.1181
 20
-10.1110
  0
VERTEX
  8
LAYER1
 62
     7
  6
CONTINUOUS
 10
6.1172
 20
-10.1121
  0
SEQEND
  8
LAYER1
  0
POLYLINE
  8
LAYER1
 62
     7
 66
     1
  6
CONTINUOUS
  0
VERTEX
  8
LAYER1
 62
     7
  6
CONTINUOUS
 10
6.1206
 20
-10.1087
  0
VERTEX
  8
LAYER1
 62
     7
  6
CONTINUOUS
 10
6.1181
 20
-10.1111
  0
VERTEX
  8
LAYER1
 62
     7
  6
CONTINUOUS
 10
6.1173
 20
-10.1121
  0
SEQEND
  8
LAYER1
  0
POLYLINE
  8
LAYER1
 62
     7
 66
     1
  6
CONTINUOUS
  0
VERTEX
  8
LAYER1
 62
     7
  6
CONTINUOUS
 10
6.1206
 20
-10.1087
  0
VERTEX
  8
LAYER1
 62
     7
  6
CONTINUOUS
 10
6.1181
 20
-10.1111
  0
VERTEX
  8
LAYER1
 62
     7
  6
CONTINUOUS
 10
6.1173
 20
-10.1121
  0
SEQEND
  8
LAYER1
  0
POLYLINE
  8
LAYER12
 62
     5
 66
     1
  6
CONTINUOUS
  0
VERTEX
  8
LAYER12
 62
     5
  6
CONTINUOUS
 10
5.4466
 20
-10.1121
  0
VERTEX
  8
LAYER12
 62
     5
  6
CONTINUOUS
 10
5.4466
 20
-9.1309
  0
SEQEND
  8
LAYER12
  0
POLYLINE
  8
LAYER12
 62
     5
 66
     1
  6
CONTINUOUS
  0
VERTEX
  8
LAYER12
 62
     5
  6
CONTINUOUS
 10
6.4696
 20
-9.1309
  0
VERTEX
  8
LAYER12
 62
     5
  6
CONTINUOUS
 10
6.4696
 20
-10.1121
  0
SEQEND
  8
LAYER12
  0
POLYLINE
  8
LAYER1
 62
     7
 66
     1
  6
CONTINUOUS
  0
VERTEX
  8
LAYER1
 62
     7
  6
CONTINUOUS
 10
6.1206
 20
-10.1087
  0
VERTEX
  8
LAYER1
 62
     7
  6
CONTINUOUS
 10
6.1181
 20
-10.1111
  0
VERTEX
  8
LAYER1
 62
     7
  6
CONTINUOUS
 10
6.1173
 20
-10.1121
  0
SEQEND
  8
LAYER1
  0
POLYLINE
  8
LAYER12
 62
     5
 66
     1
  6
CONTINUOUS
  0
VERTEX
  8
LAYER12
 62
     5
  6
CONTINUOUS
 10
6.4696
 20
-10.1145
  0
VERTEX
  8
LAYER12
 62
     5
  6
CONTINUOUS
 10
5.4465
 20
-10.1146
  0
SEQEND
  8
LAYER12
  0
ARC
  8
LAYER1
 62
     7
  6
CONTINUOUS
 10
5.7294
 20
-10.1184
 40
0.0128
 50
29.6154
 51
150.3846
  0
ARC
  8
LAYER1
 62
     7
  6
CONTINUOUS
 10
5.6540
 20
-10.0980
 40
0.0178
 50
-45.2076
 51
-127.7283
  0
ARC
  8
LAYER1
 62
     7
  6
CONTINUOUS
 10
5.6540
 20
-10.0980
 40
0.0178
 50
-52.2717
 51
-127.7283
  0
ARC
  8
LAYER1
 62
     7
  6
CONTINUOUS
 10
5.7294
 20
-10.1184
 40
0.0128
 50
29.6154
 51
150.3846
  0
ARC
  8
LAYER1
 62
     7
  6
CONTINUOUS
 10
5.6540
 20
-10.0980
 40
0.0178
 50
-52.2753
 51
-127.7246
  0
ARC
  8
LAYER1
 62
     7
  6
CONTINUOUS
 10
6.1366
 20
-10.1275
 40
0.0248
 50
38.3438
 51
141.6569
  0
ARC
  8
LAYER1
 62
     7
  6
CONTINUOUS
 10
6.1366
 20
-10.1275
 40
0.0248
 50
38.3438
 51
141.6569
  0
ARC
  8
LAYER1
 62
     7
  6
CONTINUOUS
 10
6.1366
 20
-10.1275
 40
0.0248
 50
38.3438
 51
141.6569
  0
ARC
  8
LAYER1
 62
     7
  6
CONTINUOUS
 10
6.1366
 20
-10.1275
 40
0.0248
 50
38.3438
 51
141.6569
  0
ARC
  8
LAYER1
 62
     7
  6
CONTINUOUS
 10
6.1366
 20
-10.1275
 40
0.0248
 50
38.3438
 51
141.6569
  0
ARC
  8
LAYER1
 62
     7
  6
CONTINUOUS
 10
6.1366
 20
-10.1275
 40
0.0248
 50
38.3438
 51
141.6569
  0
ARC
  8
LAYER1
 62
     7
  6
CONTINUOUS
 10
6.1366
 20
-10.1275
 40
0.0248
 50
38.3438
 51
141.6569
  0
ARC
  8
LAYER1
 62
     7
  6
CONTINUOUS
 10
5.7294
 20
-10.1184
 40
0.0128
 50
29.6133
 51
150.3857
  0
ARC
  8
LAYER1
 62
     7
  6
CONTINUOUS
 10
5.7294
 20
-10.1184
 40
0.0128
 50
29.6154
 51
150.3846
  0
ARC
  8
LAYER1
 62
     7
  6
CONTINUOUS
 10
5.7294
 20
-10.1184
 40
0.0128
 50
29.6101
 51
150.3889
  0
ARC
  8
LAYER1
 62
     7
  6
CONTINUOUS
 10
5.7294
 20
-10.1184
 40
0.0128
 50
29.6101
 51
150.3889
  0
ARC
  8
LAYER1
 62
     7
  6
CONTINUOUS
 10
5.7294
 20
-10.1184
 40
0.0128
 50
29.6101
 51
150.3889
  0
ARC
  8
LAYER1
 62
     7
  6
CONTINUOUS
 10
5.7294
 20
-10.1184
 40
0.0128
 50
29.6101
 51
150.3889
  0
ARC
  8
LAYER1
 62
     7
  6
CONTINUOUS
 10
5.7294
 20
-10.1184
 40
0.0128
 50
29.6101
 51
150.3889
  0
ARC
  8
LAYER1
 62
     7
  6
CONTINUOUS
 10
5.7294
 20
-10.1184
 40
0.0128
 50
29.6133
 51
150.3857
  0
ARC
  8
LAYER1
 62
     7
  6
CONTINUOUS
 10
5.7294
 20
-10.1184
 40
0.0128
 50
29.6133
 51
150.3857
  0
ARC
  8
LAYER1
 62
     7
  6
CONTINUOUS
 10
5.7294
 20
-10.1184
 40
0.0128
 50
29.6133
 51
150.3857
  0
ARC
  8
LAYER1
 62
     7
  6
CONTINUOUS
 10
5.7294
 20
-10.1184
 40
0.0128
 50
29.6154
 51
150.3846
  0
ARC
  8
LAYER1
 62
     7
  6
CONTINUOUS
 10
5.7294
 20
-10.1184
 40
0.0128
 50
29.6101
 51
150.3889
  0
ARC
  8
LAYER1
 62
     7
  6
CONTINUOUS
 10
5.7294
 20
-10.1184
 40
0.0128
 50
29.6101
 51
150.3889
  0
ARC
  8
LAYER1
 62
     7
  6
CONTINUOUS
 10
5.7294
 20
-10.1184
 40
0.0128
 50
29.6101
 51
150.3889
  0
ARC
  8
LAYER1
 62
     7
  6
CONTINUOUS
 10
5.7294
 20
-10.1184
 40
0.0128
 50
29.6101
 51
150.3889
  0
ARC
  8
LAYER1
 62
     7
  6
CONTINUOUS
 10
5.7294
 20
-10.1184
 40
0.0128
 50
29.6101
 51
150.3889
  0
ARC
  8
LAYER1
 62
     7
  6
CONTINUOUS
 10
5.7294
 20
-10.1184
 40
0.0128
 50
29.6133
 51
150.3857
  0
ARC
  8
LAYER1
 62
     7
  6
CONTINUOUS
 10
5.7294
 20
-10.1184
 40
0.0128
 50
29.6133
 51
150.3857
  0
ARC
  8
LAYER1
 62
     7
  6
CONTINUOUS
 10
5.7294
 20
-10.1184
 40
0.0128
 50
29.6154
 51
150.3846
  0
ARC
  8
LAYER1
 62
     7
  6
CONTINUOUS
 10
5.7294
 20
-10.1184
 40
0.0128
 50
29.6101
 51
150.3889
  0
ARC
  8
LAYER1
 62
     7
  6
CONTINUOUS
 10
5.7294
 20
-10.1184
 40
0.0128
 50
29.6101
 51
150.3889
  0
ARC
  8
LAYER1
 62
     7
  6
CONTINUOUS
 10
5.7294
 20
-10.1184
 40
0.0128
 50
29.6101
 51
150.3889
  0
ARC
  8
LAYER1
 62
     7
  6
CONTINUOUS
 10
5.7294
 20
-10.1184
 40
0.0128
 50
29.6101
 51
150.3889
  0
ARC
  8
LAYER1
 62
     7
  6
CONTINUOUS
 10
5.7294
 20
-10.1184
 40
0.0128
 50
29.6101
 51
150.3889
  0
ARC
  8
LAYER1
 62
     7
  6
CONTINUOUS
 10
5.7294
 20
-10.1184
 40
0.0128
 50
29.6133
 51
150.3857
  0
ARC
  8
LAYER1
 62
     7
  6
CONTINUOUS
 10
5.7294
 20
-10.1184
 40
0.0128
 50
29.6154
 51
150.3846
  0
ARC
  8
LAYER1
 62
     7
  6
CONTINUOUS
 10
5.7294
 20
-10.1184
 40
0.0128
 50
29.6101
 51
150.3889
  0
ARC
  8
LAYER1
 62
     7
  6
CONTINUOUS
 10
5.7294
 20
-10.1184
 40
0.0128
 50
29.6101
 51
150.3889
  0
ARC
  8
LAYER1
 62
     7
  6
CONTINUOUS
 10
5.7294
 20
-10.1184
 40
0.0128
 50
29.6101
 51
150.3889
  0
ARC
  8
LAYER1
 62
     7
  6
CONTINUOUS
 10
5.7294
 20
-10.1184
 40
0.0128
 50
29.6101
 51
150.3889
  0
ARC
  8
LAYER1
 62
     7
  6
CONTINUOUS
 10
5.7294
 20
-10.1184
 40
0.0128
 50
29.6101
 51
150.3889
  0
ARC
  8
LAYER1
 62
     7
  6
CONTINUOUS
 10
6.1366
 20
-10.1275
 40
0.0248
 50
38.3438
 51
141.6569
  0
ARC
  8
LAYER1
 62
     7
  6
CONTINUOUS
 10
6.1366
 20
-10.1275
 40
0.0248
 50
38.3438
 51
141.6569
  0
ARC
  8
LAYER1
 62
     7
  6
CONTINUOUS
 10
6.1366
 20
-10.1275
 40
0.0248
 50
38.3438
 51
141.6569
  0
ARC
  8
LAYER1
 62
     7
  6
CONTINUOUS
 10
6.1366
 20
-10.1275
 40
0.0248
 50
38.3438
 51
141.6569
  0
ARC
  8
LAYER1
 62
     7
  6
CONTINUOUS
 10
6.1366
 20
-10.1275
 40
0.0248
 50
38.3438
 51
141.6569
  0
ARC
  8
LAYER1
 62
     7
  6
CONTINUOUS
 10
6.1366
 20
-10.1275
 40
0.0248
 50
38.3438
 51
141.6569
  0
ARC
  8
LAYER1
 62
     7
  6
CONTINUOUS
 10
6.1366
 20
-10.1275
 40
0.0248
 50
38.3438
 51
141.6569
  0
ARC
  8
LAYER1
 62
     7
  6
CONTINUOUS
 10
6.1366
 20
-10.1275
 40
0.0248
 50
38.3438
 51
141.6569
  0
ENDSEC
  0
EOF
