  0
SECTION
  2
HEADER
  9
$ACADVER
  1
AC1004
  9
$EXTMIN
 10
129.2100
 20
81.0200
  9
$EXTMAX
 10
131.9871
 20
83.7971
  9
$LIMMIN
 10
129.2100
 20
81.0200
  9
$LIMMAX
 10
131.9871
 20
83.7971
  9
$INSBASE
 10
0.0
 20
0.0
  9
$VIEWCTR
 10
7.21903
 20
4.5
  9
$VIEWSIZE
 40
9.0
  9
$SNAPMODE
 70
     0
  9
$SNAPUNIT
 10
1.0
 20
1.0
  9
$SNAPBASE
 10
0.0
 20
0.0
  9
$SNAPANG
 50
0.0
  9
$SNAPSTYLE
 70
     0
  9
$SNAPISOPAIR
 70
     0
  9
$GRIDMODE
 70
     0
  9
$GRIDUNIT
 10
0.0
 20
0.0
  9
$ORTHOMODE
 70
     0
  9
$REGENMODE
 70
     1
  9
$FILLMODE
 70
     1
  9
$QTEXTMODE
 70
     0
  9
$DRAGMODE
 70
     2
  9
$LTSCALE
 40
1.0
  9
$OSMODE
 70
     0
  9
$ATTMODE
 70
     1
  9
$TEXTSIZE
 40
0.2
  9
$TRACEWID
 40
0.05
  9
$TEXTSTYLE
  7
STANDARD
  9
$CLAYER
  8
0
  9
$CELTYPE
  6
BYLAYER
  9
$CECOLOR
 62
   256
  9
$DIMSCALE
 40
1.0
  9
$DIMASZ
 40
0.18
  9
$DIMEXO
 40
0.0625
  9
$DIMDLI
 40
0.38
  9
$DIMRND
 40
0.0
  9
$DIMDLE
 40
0.0
  9
$DIMEXE
 40
0.18
  9
$DIMTP
 40
0.0
  9
$DIMTM
 40
0.0
  9
$DIMTXT
 40
0.18
  9
$DIMCEN
 40
0.09
  9
$DIMTSZ
 40
0.0
  9
$DIMTOL
 70
     0
  9
$DIMLIM
 70
     0
  9
$DIMTIH
 70
     1
  9
$DIMTOH
 70
     1
  9
$DIMSE1
 70
     0
  9
$DIMSE2
 70
     0
  9
$DIMTAD
 70
     0
  9
$DIMZIN
 70
     0
  9
$DIMBLK
  1

  9
$DIMASO
 70
     1
  9
$DIMSHO
 70
     0
  9
$DIMPOST
  1

  9
$DIMAPOST
  1

  9
$DIMALT
 70
     0
  9
$DIMALTD
 70
     2
  9
$DIMALTF
 40
25.4
  9
$DIMLFAC
 40
1.0
  9
$LUNITS
 70
     2
  9
$LUPREC
 70
     4
  9
$AXISMODE
 70
     0
  9
$AXISUNIT
 10
0.0
 20
0.0
  9
$SKETCHINC
 40
0.1
  9
$FILLETRAD
 40
0.0
  9
$AUNITS
 70
     0
  9
$AUPREC
 70
     0
  9
$MENU
  1
acad
  9
$ELEVATION
 40
0.0
  9
$THICKNESS
 40
0.0
  9
$VIEWDIR
 10
0.0
 20
0.0
 30
1.0
  9
$LIMCHECK
 70
     0
  9
$BLIPMODE
 70
     1
  9
$CHAMFERA
 40
0.0
  9
$CHAMFERB
 40
0.0
  9
$FASTZOOM
 70
     1
  9
$SKPOLY
 70
     0
  9
$TDCREATE
 40
2447222.5666886573
  9
$TDUPDATE
 40
2447222.5666886573
  9
$TDINDWG
 40
0.0000000000
  9
$TDUSRTIMER
 40
0.0000000000
  9
$USRTIMER
 70
     1
  9
$ANGBASE
 50
0.0
  9
$ANGDIR
 70
     0
  9
$PDMODE
 70
     0
  9
$PDSIZE
 40
0.0
  9
$PLINEWID
 40
0.0
  9
$COORDS
 70
     0
  9
$SPLFRAME
 70
     0
  9
$SPLINESEGS
 70
     8
  9
$ATTDIA
 70
     0
  9
$ATTREQ
 70
     1
  9
$USERI1
 70
     0
  9
$USERI2
 70
     0
  9
$USERI3
 70
     0
  9
$USERI4
 70
     0
  9
$USERI5
 70
     0
  9
$USERR1
 40
0.0
  9
$USERR2
 40
0.0
  9
$USERR3
 40
0.0
  9
$USERR4
 40
0.0
  9
$USERR5
 40
0.0
  0
ENDSEC
  0
SECTION
  2
TABLES
  0
TABLE
  2
LTYPE
 70
     13
  0
LTYPE
  2
CONTINUOUS
 70
    64
  3
Solid line
 72
    65
 73
     0
 40
0.0
  0
LTYPE
  2
DASHED
 70
    64
  3
__ __ __ __ __ __ __ __ __ __ __ __ __ __ __
 72
    65
 73
     2
 40
0.75
 49
0.5
 49
-0.25
  0
LTYPE
  2
HIDDEN
 70
    64
  3
_ _ _ _ _ _ _ _ _ _ _ _ _ _ _ _ _ _ _ _ _ _ _
 72
    65
 73
     2
 40
0.375
 49
0.25
 49
-0.125
  0
LTYPE
  2
CENTER
 70
    64
  3
____ _ ____ _ ____ _ ____ _ ____ _ ____ _ ____
 72
    65
 73
     4
 40
2.0
 49
1.25
 49
-0.25
 49
0.25
 49
-0.25
  0
LTYPE
  2
PHANTOM
 70
    64
  3
_____ _ _ _____ _ _ _____ _ _ _____ _ _ ____
 72
    65
 73
     6
 40
2.5
 49
1.25
 49
-0.25
 49
0.25
 49
-0.25
 49
0.25
 49
-0.25
  0
LTYPE
  2
DOT
 70
    64
  3
...............................................
 72
    65
 73
     2
 40
0.25
 49
0.0
 49
-0.25
  0
LTYPE
  2
DASHDOT
 70
    64
  3
__ . __ . __ . __ . __ . __ . __ . __ . __ . __
 72
    65
 73
     4
 40
1.0
 49
0.5
 49
-0.25
 49
0.0
 49
-0.25
  0
LTYPE
  2
BORDER
 70
    64
  3
__ __ . __ __ . __ __ . __ __ . __ __ . __ __
 72
    65
 73
     6
 40
1.75
 49
0.5
 49
-0.25
 49
0.5
 49
-0.25
 49
0.0
 49
-0.25
  0
LTYPE
  2
DIVIDE
 70
    64
  3
__ . . __ . . __ . . __ . . __ . . __ . . __
 72
    65
 73
     6
 40
1.25
 49
0.5
 49
-0.25
 49
0.0
 49
-0.25
 49
0.0
 49
-0.25
  0
LTYPE
  2
DCTYPE1
 70
    64
  3
__ . . __ . . __ . . __ . . __ . . __ . . __
 72
    65
 73
     8
 40
2.5
 49
0.5
 49
-0.25
 49
0.125
 49
-0.25
 49
0.25
 49
-0.25
 49
0.125
 49
-0.25
  0
LTYPE
  2
DCTYPE2
 70
    64
  3
__ . . __ . . __ . . __ . . __ . . __ . . __
 72
    65
 73
     6
 40
2.05
 49
1.0
 49
-0.3
 49
0.15
 49
-0.15
 49
0.15
 49
-0.3
  0
LTYPE
  2
DCTYPE3
 70
    64
  3
__ . . __ . . __ . . __ . . __ . . __ . . __
 72
    65
 73
     6
 40
2.5
 49
0.8
 49
-0.2
 49
0.8
 49
-0.2
 49
0.3
 49
-0.2
  0
LTYPE
  2
DCTYPE4
 70
    64
  3
__ . . __ . . __ . . __ . . __ . . __ . . __
 72
    65
 73
     10
 40
3.97
 49
1.75
 49
-0.3
 49
0.3
 49
-0.3
 49
0.06
 49
-0.3
 49
0.06
 49
-0.3
 49
0.3
 49
-0.3
  0
ENDTAB
  0
TABLE
  2
LAYER
 70
    153
  0
LAYER
  2
LAYER1
 70
 64
 62
     9
  6
CONTINUOUS
  0
LAYER
  2
LAYER8
 70
 64
 62
     7
  6
CONTINUOUS
  0
LAYER
  2
LAYER25
 70
 64
 62
     4
  6
CONTINUOUS
  0
LAYER
  2
LAYER42
 70
 64
 62
     2
  6
CONTINUOUS
  0
ENDTAB
  0
ENDSEC
  0
SECTION
  2
BLOCKS
  0
ENDSEC
  0
SECTION
  2
ENTITIES
  0
POLYLINE
  8
LAYER1
 62
     9
 66
     1
  6
CONTINUOUS
  0
VERTEX
  8
LAYER1
 62
     9
  6
CONTINUOUS
 10
129.7581
 20
81.0200
  0
VERTEX
  8
LAYER1
 62
     9
  6
CONTINUOUS
 10
129.7581
 20
81.0200
  0
VERTEX
  8
LAYER1
 62
     9
  6
CONTINUOUS
 10
129.7581
 20
81.0200
  0
VERTEX
  8
LAYER1
 62
     9
  6
CONTINUOUS
 10
129.7581
 20
81.0200
  0
VERTEX
  8
LAYER1
 62
     9
  6
CONTINUOUS
 10
129.7581
 20
81.0200
  0
VERTEX
  8
LAYER1
 62
     9
  6
CONTINUOUS
 10
129.7581
 20
81.0200
  0
VERTEX
  8
LAYER1
 62
     9
  6
CONTINUOUS
 10
129.7581
 20
81.0200
  0
VERTEX
  8
LAYER1
 62
     9
  6
CONTINUOUS
 10
129.7581
 20
81.0200
  0
VERTEX
  8
LAYER1
 62
     9
  6
CONTINUOUS
 10
129.7581
 20
81.0200
  0
VERTEX
  8
LAYER1
 62
     9
  6
CONTINUOUS
 10
129.7581
 20
81.0200
  0
VERTEX
  8
LAYER1
 62
     9
  6
CONTINUOUS
 10
129.7581
 20
81.0200
  0
VERTEX
  8
LAYER1
 62
     9
  6
CONTINUOUS
 10
129.7581
 20
81.0200
  0
VERTEX
  8
LAYER1
 62
     9
  6
CONTINUOUS
 10
129.7581
 20
81.0200
  0
VERTEX
  8
LAYER1
 62
     9
  6
CONTINUOUS
 10
129.7572
 20
81.0200
  0
VERTEX
  8
LAYER1
 62
     9
  6
CONTINUOUS
 10
129.7565
 20
81.0200
  0
VERTEX
  8
LAYER1
 62
     9
  6
CONTINUOUS
 10
129.7560
 20
81.0200
  0
VERTEX
  8
LAYER1
 62
     9
  6
CONTINUOUS
 10
129.7558
 20
81.0200
  0
VERTEX
  8
LAYER1
 62
     9
  6
CONTINUOUS
 10
129.7557
 20
81.0200
  0
VERTEX
  8
LAYER1
 62
     9
  6
CONTINUOUS
 10
129.7558
 20
81.0200
  0
VERTEX
  8
LAYER1
 62
     9
  6
CONTINUOUS
 10
129.7559
 20
81.0200
  0
VERTEX
  8
LAYER1
 62
     9
  6
CONTINUOUS
 10
129.7562
 20
81.0200
  0
VERTEX
  8
LAYER1
 62
     9
  6
CONTINUOUS
 10
129.7566
 20
81.0200
  0
VERTEX
  8
LAYER1
 62
     9
  6
CONTINUOUS
 10
129.7571
 20
81.0200
  0
VERTEX
  8
LAYER1
 62
     9
  6
CONTINUOUS
 10
129.7576
 20
81.0200
  0
VERTEX
  8
LAYER1
 62
     9
  6
CONTINUOUS
 10
129.7581
 20
81.0200
  0
SEQEND
  8
LAYER1
  0
POLYLINE
  8
LAYER1
 62
     9
 66
     1
  6
CONTINUOUS
  0
VERTEX
  8
LAYER1
 62
     9
  6
CONTINUOUS
 10
129.6007
 20
81.0200
  0
VERTEX
  8
LAYER1
 62
     9
  6
CONTINUOUS
 10
129.6007
 20
81.0200
  0
VERTEX
  8
LAYER1
 62
     9
  6
CONTINUOUS
 10
129.6007
 20
81.0200
  0
VERTEX
  8
LAYER1
 62
     9
  6
CONTINUOUS
 10
129.6007
 20
81.0200
  0
VERTEX
  8
LAYER1
 62
     9
  6
CONTINUOUS
 10
129.6007
 20
81.0200
  0
VERTEX
  8
LAYER1
 62
     9
  6
CONTINUOUS
 10
129.6007
 20
81.0200
  0
VERTEX
  8
LAYER1
 62
     9
  6
CONTINUOUS
 10
129.6007
 20
81.0200
  0
VERTEX
  8
LAYER1
 62
     9
  6
CONTINUOUS
 10
129.6007
 20
81.0200
  0
VERTEX
  8
LAYER1
 62
     9
  6
CONTINUOUS
 10
129.6007
 20
81.0200
  0
VERTEX
  8
LAYER1
 62
     9
  6
CONTINUOUS
 10
129.6007
 20
81.0200
  0
VERTEX
  8
LAYER1
 62
     9
  6
CONTINUOUS
 10
129.6007
 20
81.0200
  0
VERTEX
  8
LAYER1
 62
     9
  6
CONTINUOUS
 10
129.6007
 20
81.0200
  0
VERTEX
  8
LAYER1
 62
     9
  6
CONTINUOUS
 10
129.6007
 20
81.0200
  0
VERTEX
  8
LAYER1
 62
     9
  6
CONTINUOUS
 10
129.6007
 20
81.0200
  0
VERTEX
  8
LAYER1
 62
     9
  6
CONTINUOUS
 10
129.6007
 20
81.0200
  0
VERTEX
  8
LAYER1
 62
     9
  6
CONTINUOUS
 10
129.6007
 20
81.0200
  0
VERTEX
  8
LAYER1
 62
     9
  6
CONTINUOUS
 10
129.6007
 20
81.0200
  0
VERTEX
  8
LAYER1
 62
     9
  6
CONTINUOUS
 10
129.6007
 20
81.0200
  0
VERTEX
  8
LAYER1
 62
     9
  6
CONTINUOUS
 10
129.6007
 20
81.0200
  0
VERTEX
  8
LAYER1
 62
     9
  6
CONTINUOUS
 10
129.6007
 20
81.0200
  0
VERTEX
  8
LAYER1
 62
     9
  6
CONTINUOUS
 10
129.6007
 20
81.0200
  0
VERTEX
  8
LAYER1
 62
     9
  6
CONTINUOUS
 10
129.6007
 20
81.0200
  0
VERTEX
  8
LAYER1
 62
     9
  6
CONTINUOUS
 10
129.6007
 20
81.0200
  0
VERTEX
  8
LAYER1
 62
     9
  6
CONTINUOUS
 10
129.6007
 20
81.0200
  0
VERTEX
  8
LAYER1
 62
     9
  6
CONTINUOUS
 10
129.6007
 20
81.0200
  0
SEQEND
  8
LAYER1
  0
POLYLINE
  8
LAYER1
 62
     9
 66
     1
  6
CONTINUOUS
  0
VERTEX
  8
LAYER1
 62
     9
  6
CONTINUOUS
 10
129.6007
 20
81.0200
  0
VERTEX
  8
LAYER1
 62
     9
  6
CONTINUOUS
 10
129.5998
 20
81.0207
  0
VERTEX
  8
LAYER1
 62
     9
  6
CONTINUOUS
 10
129.5990
 20
81.0215
  0
VERTEX
  8
LAYER1
 62
     9
  6
CONTINUOUS
 10
129.5981
 20
81.0222
  0
VERTEX
  8
LAYER1
 62
     9
  6
CONTINUOUS
 10
129.5972
 20
81.0230
  0
VERTEX
  8
LAYER1
 62
     9
  6
CONTINUOUS
 10
129.5964
 20
81.0238
  0
VERTEX
  8
LAYER1
 62
     9
  6
CONTINUOUS
 10
129.5955
 20
81.0245
  0
VERTEX
  8
LAYER1
 62
     9
  6
CONTINUOUS
 10
129.5946
 20
81.0253
  0
VERTEX
  8
LAYER1
 62
     9
  6
CONTINUOUS
 10
129.5938
 20
81.0260
  0
VERTEX
  8
LAYER1
 62
     9
  6
CONTINUOUS
 10
129.5929
 20
81.0268
  0
VERTEX
  8
LAYER1
 62
     9
  6
CONTINUOUS
 10
129.5920
 20
81.0275
  0
VERTEX
  8
LAYER1
 62
     9
  6
CONTINUOUS
 10
129.5912
 20
81.0283
  0
VERTEX
  8
LAYER1
 62
     9
  6
CONTINUOUS
 10
129.5903
 20
81.0291
  0
VERTEX
  8
LAYER1
 62
     9
  6
CONTINUOUS
 10
129.5838
 20
81.0347
  0
VERTEX
  8
LAYER1
 62
     9
  6
CONTINUOUS
 10
129.5774
 20
81.0404
  0
VERTEX
  8
LAYER1
 62
     9
  6
CONTINUOUS
 10
129.5709
 20
81.0460
  0
VERTEX
  8
LAYER1
 62
     9
  6
CONTINUOUS
 10
129.5644
 20
81.0517
  0
VERTEX
  8
LAYER1
 62
     9
  6
CONTINUOUS
 10
129.5579
 20
81.0573
  0
VERTEX
  8
LAYER1
 62
     9
  6
CONTINUOUS
 10
129.5514
 20
81.0629
  0
VERTEX
  8
LAYER1
 62
     9
  6
CONTINUOUS
 10
129.5448
 20
81.0685
  0
VERTEX
  8
LAYER1
 62
     9
  6
CONTINUOUS
 10
129.5382
 20
81.0740
  0
VERTEX
  8
LAYER1
 62
     9
  6
CONTINUOUS
 10
129.5316
 20
81.0794
  0
VERTEX
  8
LAYER1
 62
     9
  6
CONTINUOUS
 10
129.5250
 20
81.0848
  0
VERTEX
  8
LAYER1
 62
     9
  6
CONTINUOUS
 10
129.5182
 20
81.0902
  0
VERTEX
  8
LAYER1
 62
     9
  6
CONTINUOUS
 10
129.5115
 20
81.0955
  0
VERTEX
  8
LAYER1
 62
     9
  6
CONTINUOUS
 10
129.5031
 20
81.1019
  0
VERTEX
  8
LAYER1
 62
     9
  6
CONTINUOUS
 10
129.4946
 20
81.1081
  0
VERTEX
  8
LAYER1
 62
     9
  6
CONTINUOUS
 10
129.4861
 20
81.1143
  0
VERTEX
  8
LAYER1
 62
     9
  6
CONTINUOUS
 10
129.4775
 20
81.1204
  0
VERTEX
  8
LAYER1
 62
     9
  6
CONTINUOUS
 10
129.4689
 20
81.1264
  0
VERTEX
  8
LAYER1
 62
     9
  6
CONTINUOUS
 10
129.4602
 20
81.1324
  0
VERTEX
  8
LAYER1
 62
     9
  6
CONTINUOUS
 10
129.4515
 20
81.1384
  0
VERTEX
  8
LAYER1
 62
     9
  6
CONTINUOUS
 10
129.4428
 20
81.1443
  0
VERTEX
  8
LAYER1
 62
     9
  6
CONTINUOUS
 10
129.4341
 20
81.1502
  0
VERTEX
  8
LAYER1
 62
     9
  6
CONTINUOUS
 10
129.4254
 20
81.1562
  0
VERTEX
  8
LAYER1
 62
     9
  6
CONTINUOUS
 10
129.4167
 20
81.1621
  0
VERTEX
  8
LAYER1
 62
     9
  6
CONTINUOUS
 10
129.4080
 20
81.1681
  0
VERTEX
  8
LAYER1
 62
     9
  6
CONTINUOUS
 10
129.3989
 20
81.1745
  0
VERTEX
  8
LAYER1
 62
     9
  6
CONTINUOUS
 10
129.3898
 20
81.1809
  0
VERTEX
  8
LAYER1
 62
     9
  6
CONTINUOUS
 10
129.3807
 20
81.1874
  0
VERTEX
  8
LAYER1
 62
     9
  6
CONTINUOUS
 10
129.3717
 20
81.1939
  0
VERTEX
  8
LAYER1
 62
     9
  6
CONTINUOUS
 10
129.3627
 20
81.2004
  0
VERTEX
  8
LAYER1
 62
     9
  6
CONTINUOUS
 10
129.3538
 20
81.2070
  0
VERTEX
  8
LAYER1
 62
     9
  6
CONTINUOUS
 10
129.3448
 20
81.2136
  0
VERTEX
  8
LAYER1
 62
     9
  6
CONTINUOUS
 10
129.3359
 20
81.2202
  0
VERTEX
  8
LAYER1
 62
     9
  6
CONTINUOUS
 10
129.3269
 20
81.2268
  0
VERTEX
  8
LAYER1
 62
     9
  6
CONTINUOUS
 10
129.3180
 20
81.2334
  0
VERTEX
  8
LAYER1
 62
     9
  6
CONTINUOUS
 10
129.3091
 20
81.2401
  0
VERTEX
  8
LAYER1
 62
     9
  6
CONTINUOUS
 10
129.3001
 20
81.2467
  0
VERTEX
  8
LAYER1
 62
     9
  6
CONTINUOUS
 10
129.2926
 20
81.2522
  0
VERTEX
  8
LAYER1
 62
     9
  6
CONTINUOUS
 10
129.2851
 20
81.2578
  0
VERTEX
  8
LAYER1
 62
     9
  6
CONTINUOUS
 10
129.2776
 20
81.2633
  0
VERTEX
  8
LAYER1
 62
     9
  6
CONTINUOUS
 10
129.2701
 20
81.2688
  0
VERTEX
  8
LAYER1
 62
     9
  6
CONTINUOUS
 10
129.2626
 20
81.2744
  0
VERTEX
  8
LAYER1
 62
     9
  6
CONTINUOUS
 10
129.2551
 20
81.2799
  0
VERTEX
  8
LAYER1
 62
     9
  6
CONTINUOUS
 10
129.2476
 20
81.2854
  0
VERTEX
  8
LAYER1
 62
     9
  6
CONTINUOUS
 10
129.2401
 20
81.2909
  0
VERTEX
  8
LAYER1
 62
     9
  6
CONTINUOUS
 10
129.2325
 20
81.2965
  0
VERTEX
  8
LAYER1
 62
     9
  6
CONTINUOUS
 10
129.2250
 20
81.3020
  0
VERTEX
  8
LAYER1
 62
     9
  6
CONTINUOUS
 10
129.2175
 20
81.3075
  0
VERTEX
  8
LAYER1
 62
     9
  6
CONTINUOUS
 10
129.2100
 20
81.3130
  0
SEQEND
  8
LAYER1
  0
POLYLINE
  8
LAYER1
 62
     9
 66
     1
  6
CONTINUOUS
  0
VERTEX
  8
LAYER1
 62
     9
  6
CONTINUOUS
 10
129.2100
 20
81.3130
  0
VERTEX
  8
LAYER1
 62
     9
  6
CONTINUOUS
 10
129.2100
 20
81.3130
  0
VERTEX
  8
LAYER1
 62
     9
  6
CONTINUOUS
 10
129.2100
 20
81.3130
  0
VERTEX
  8
LAYER1
 62
     9
  6
CONTINUOUS
 10
129.2100
 20
81.3130
  0
VERTEX
  8
LAYER1
 62
     9
  6
CONTINUOUS
 10
129.2100
 20
81.3130
  0
VERTEX
  8
LAYER1
 62
     9
  6
CONTINUOUS
 10
129.2100
 20
81.3130
  0
VERTEX
  8
LAYER1
 62
     9
  6
CONTINUOUS
 10
129.2100
 20
81.3130
  0
VERTEX
  8
LAYER1
 62
     9
  6
CONTINUOUS
 10
129.2100
 20
81.3130
  0
VERTEX
  8
LAYER1
 62
     9
  6
CONTINUOUS
 10
129.2100
 20
81.3130
  0
VERTEX
  8
LAYER1
 62
     9
  6
CONTINUOUS
 10
129.2100
 20
81.3130
  0
VERTEX
  8
LAYER1
 62
     9
  6
CONTINUOUS
 10
129.2100
 20
81.3130
  0
VERTEX
  8
LAYER1
 62
     9
  6
CONTINUOUS
 10
129.2100
 20
81.3130
  0
VERTEX
  8
LAYER1
 62
     9
  6
CONTINUOUS
 10
129.2100
 20
81.3130
  0
VERTEX
  8
LAYER1
 62
     9
  6
CONTINUOUS
 10
129.2100
 20
81.3130
  0
VERTEX
  8
LAYER1
 62
     9
  6
CONTINUOUS
 10
129.2100
 20
81.3130
  0
VERTEX
  8
LAYER1
 62
     9
  6
CONTINUOUS
 10
129.2100
 20
81.3130
  0
VERTEX
  8
LAYER1
 62
     9
  6
CONTINUOUS
 10
129.2100
 20
81.3130
  0
VERTEX
  8
LAYER1
 62
     9
  6
CONTINUOUS
 10
129.2100
 20
81.3130
  0
VERTEX
  8
LAYER1
 62
     9
  6
CONTINUOUS
 10
129.2100
 20
81.3130
  0
VERTEX
  8
LAYER1
 62
     9
  6
CONTINUOUS
 10
129.2100
 20
81.3130
  0
VERTEX
  8
LAYER1
 62
     9
  6
CONTINUOUS
 10
129.2100
 20
81.3130
  0
VERTEX
  8
LAYER1
 62
     9
  6
CONTINUOUS
 10
129.2100
 20
81.3130
  0
VERTEX
  8
LAYER1
 62
     9
  6
CONTINUOUS
 10
129.2100
 20
81.3130
  0
VERTEX
  8
LAYER1
 62
     9
  6
CONTINUOUS
 10
129.2100
 20
81.3130
  0
VERTEX
  8
LAYER1
 62
     9
  6
CONTINUOUS
 10
129.2100
 20
81.3130
  0
SEQEND
  8
LAYER1
  0
POLYLINE
  8
LAYER1
 62
     9
 66
     1
  6
CONTINUOUS
  0
VERTEX
  8
LAYER1
 62
     9
  6
CONTINUOUS
 10
129.2100
 20
81.4858
  0
VERTEX
  8
LAYER1
 62
     9
  6
CONTINUOUS
 10
129.2100
 20
81.4858
  0
VERTEX
  8
LAYER1
 62
     9
  6
CONTINUOUS
 10
129.2100
 20
81.4858
  0
VERTEX
  8
LAYER1
 62
     9
  6
CONTINUOUS
 10
129.2100
 20
81.4858
  0
VERTEX
  8
LAYER1
 62
     9
  6
CONTINUOUS
 10
129.2100
 20
81.4858
  0
VERTEX
  8
LAYER1
 62
     9
  6
CONTINUOUS
 10
129.2100
 20
81.4858
  0
VERTEX
  8
LAYER1
 62
     9
  6
CONTINUOUS
 10
129.2100
 20
81.4858
  0
VERTEX
  8
LAYER1
 62
     9
  6
CONTINUOUS
 10
129.2100
 20
81.4858
  0
VERTEX
  8
LAYER1
 62
     9
  6
CONTINUOUS
 10
129.2100
 20
81.4858
  0
VERTEX
  8
LAYER1
 62
     9
  6
CONTINUOUS
 10
129.2100
 20
81.4858
  0
VERTEX
  8
LAYER1
 62
     9
  6
CONTINUOUS
 10
129.2100
 20
81.4858
  0
VERTEX
  8
LAYER1
 62
     9
  6
CONTINUOUS
 10
129.2100
 20
81.4858
  0
VERTEX
  8
LAYER1
 62
     9
  6
CONTINUOUS
 10
129.2100
 20
81.4858
  0
VERTEX
  8
LAYER1
 62
     9
  6
CONTINUOUS
 10
129.2100
 20
81.4858
  0
VERTEX
  8
LAYER1
 62
     9
  6
CONTINUOUS
 10
129.2100
 20
81.4858
  0
VERTEX
  8
LAYER1
 62
     9
  6
CONTINUOUS
 10
129.2100
 20
81.4858
  0
VERTEX
  8
LAYER1
 62
     9
  6
CONTINUOUS
 10
129.2100
 20
81.4858
  0
VERTEX
  8
LAYER1
 62
     9
  6
CONTINUOUS
 10
129.2100
 20
81.4858
  0
VERTEX
  8
LAYER1
 62
     9
  6
CONTINUOUS
 10
129.2100
 20
81.4858
  0
VERTEX
  8
LAYER1
 62
     9
  6
CONTINUOUS
 10
129.2100
 20
81.4858
  0
VERTEX
  8
LAYER1
 62
     9
  6
CONTINUOUS
 10
129.2100
 20
81.4858
  0
VERTEX
  8
LAYER1
 62
     9
  6
CONTINUOUS
 10
129.2100
 20
81.4858
  0
VERTEX
  8
LAYER1
 62
     9
  6
CONTINUOUS
 10
129.2100
 20
81.4858
  0
VERTEX
  8
LAYER1
 62
     9
  6
CONTINUOUS
 10
129.2100
 20
81.4858
  0
VERTEX
  8
LAYER1
 62
     9
  6
CONTINUOUS
 10
129.2100
 20
81.4858
  0
SEQEND
  8
LAYER1
  0
POLYLINE
  8
LAYER1
 62
     9
 66
     1
  6
CONTINUOUS
  0
VERTEX
  8
LAYER1
 62
     9
  6
CONTINUOUS
 10
129.2100
 20
81.4858
  0
VERTEX
  8
LAYER1
 62
     9
  6
CONTINUOUS
 10
129.2100
 20
81.4858
  0
VERTEX
  8
LAYER1
 62
     9
  6
CONTINUOUS
 10
129.2100
 20
81.4858
  0
VERTEX
  8
LAYER1
 62
     9
  6
CONTINUOUS
 10
129.2100
 20
81.4858
  0
VERTEX
  8
LAYER1
 62
     9
  6
CONTINUOUS
 10
129.2100
 20
81.4858
  0
VERTEX
  8
LAYER1
 62
     9
  6
CONTINUOUS
 10
129.2100
 20
81.4858
  0
VERTEX
  8
LAYER1
 62
     9
  6
CONTINUOUS
 10
129.2100
 20
81.4858
  0
VERTEX
  8
LAYER1
 62
     9
  6
CONTINUOUS
 10
129.2100
 20
81.4858
  0
VERTEX
  8
LAYER1
 62
     9
  6
CONTINUOUS
 10
129.2100
 20
81.4858
  0
VERTEX
  8
LAYER1
 62
     9
  6
CONTINUOUS
 10
129.2100
 20
81.4858
  0
VERTEX
  8
LAYER1
 62
     9
  6
CONTINUOUS
 10
129.2100
 20
81.4858
  0
VERTEX
  8
LAYER1
 62
     9
  6
CONTINUOUS
 10
129.2100
 20
81.4858
  0
VERTEX
  8
LAYER1
 62
     9
  6
CONTINUOUS
 10
129.2100
 20
81.4858
  0
VERTEX
  8
LAYER1
 62
     9
  6
CONTINUOUS
 10
129.2100
 20
81.4858
  0
VERTEX
  8
LAYER1
 62
     9
  6
CONTINUOUS
 10
129.2100
 20
81.4858
  0
VERTEX
  8
LAYER1
 62
     9
  6
CONTINUOUS
 10
129.2100
 20
81.4858
  0
VERTEX
  8
LAYER1
 62
     9
  6
CONTINUOUS
 10
129.2100
 20
81.4858
  0
VERTEX
  8
LAYER1
 62
     9
  6
CONTINUOUS
 10
129.2100
 20
81.4858
  0
VERTEX
  8
LAYER1
 62
     9
  6
CONTINUOUS
 10
129.2100
 20
81.4858
  0
VERTEX
  8
LAYER1
 62
     9
  6
CONTINUOUS
 10
129.2100
 20
81.4858
  0
VERTEX
  8
LAYER1
 62
     9
  6
CONTINUOUS
 10
129.2100
 20
81.4858
  0
VERTEX
  8
LAYER1
 62
     9
  6
CONTINUOUS
 10
129.2100
 20
81.4858
  0
VERTEX
  8
LAYER1
 62
     9
  6
CONTINUOUS
 10
129.2100
 20
81.4858
  0
VERTEX
  8
LAYER1
 62
     9
  6
CONTINUOUS
 10
129.2100
 20
81.4858
  0
VERTEX
  8
LAYER1
 62
     9
  6
CONTINUOUS
 10
129.2100
 20
81.4858
  0
SEQEND
  8
LAYER1
  0
POLYLINE
  8
LAYER1
 62
     9
 66
     1
  6
CONTINUOUS
  0
VERTEX
  8
LAYER1
 62
     9
  6
CONTINUOUS
 10
129.2100
 20
81.4858
  0
VERTEX
  8
LAYER1
 62
     9
  6
CONTINUOUS
 10
129.2164
 20
81.4803
  0
VERTEX
  8
LAYER1
 62
     9
  6
CONTINUOUS
 10
129.2229
 20
81.4748
  0
VERTEX
  8
LAYER1
 62
     9
  6
CONTINUOUS
 10
129.2293
 20
81.4693
  0
VERTEX
  8
LAYER1
 62
     9
  6
CONTINUOUS
 10
129.2357
 20
81.4637
  0
VERTEX
  8
LAYER1
 62
     9
  6
CONTINUOUS
 10
129.2421
 20
81.4581
  0
VERTEX
  8
LAYER1
 62
     9
  6
CONTINUOUS
 10
129.2484
 20
81.4525
  0
VERTEX
  8
LAYER1
 62
     9
  6
CONTINUOUS
 10
129.2547
 20
81.4468
  0
VERTEX
  8
LAYER1
 62
     9
  6
CONTINUOUS
 10
129.2610
 20
81.4411
  0
VERTEX
  8
LAYER1
 62
     9
  6
CONTINUOUS
 10
129.2671
 20
81.4353
  0
VERTEX
  8
LAYER1
 62
     9
  6
CONTINUOUS
 10
129.2732
 20
81.4294
  0
VERTEX
  8
LAYER1
 62
     9
  6
CONTINUOUS
 10
129.2793
 20
81.4234
  0
VERTEX
  8
LAYER1
 62
     9
  6
CONTINUOUS
 10
129.2852
 20
81.4173
  0
VERTEX
  8
LAYER1
 62
     9
  6
CONTINUOUS
 10
129.2918
 20
81.4102
  0
VERTEX
  8
LAYER1
 62
     9
  6
CONTINUOUS
 10
129.2984
 20
81.4030
  0
VERTEX
  8
LAYER1
 62
     9
  6
CONTINUOUS
 10
129.3049
 20
81.3958
  0
VERTEX
  8
LAYER1
 62
     9
  6
CONTINUOUS
 10
129.3114
 20
81.3886
  0
VERTEX
  8
LAYER1
 62
     9
  6
CONTINUOUS
 10
129.3179
 20
81.3814
  0
VERTEX
  8
LAYER1
 62
     9
  6
CONTINUOUS
 10
129.3245
 20
81.3742
  0
VERTEX
  8
LAYER1
 62
     9
  6
CONTINUOUS
 10
129.3311
 20
81.3672
  0
VERTEX
  8
LAYER1
 62
     9
  6
CONTINUOUS
 10
129.3379
 20
81.3604
  0
VERTEX
  8
LAYER1
 62
     9
  6
CONTINUOUS
 10
129.3448
 20
81.3537
  0
VERTEX
  8
LAYER1
 62
     9
  6
CONTINUOUS
 10
129.3520
 20
81.3473
  0
VERTEX
  8
LAYER1
 62
     9
  6
CONTINUOUS
 10
129.3593
 20
81.3412
  0
VERTEX
  8
LAYER1
 62
     9
  6
CONTINUOUS
 10
129.3670
 20
81.3355
  0
VERTEX
  8
LAYER1
 62
     9
  6
CONTINUOUS
 10
129.3735
 20
81.3309
  0
VERTEX
  8
LAYER1
 62
     9
  6
CONTINUOUS
 10
129.3803
 20
81.3266
  0
VERTEX
  8
LAYER1
 62
     9
  6
CONTINUOUS
 10
129.3871
 20
81.3225
  0
VERTEX
  8
LAYER1
 62
     9
  6
CONTINUOUS
 10
129.3941
 20
81.3185
  0
VERTEX
  8
LAYER1
 62
     9
  6
CONTINUOUS
 10
129.4011
 20
81.3146
  0
VERTEX
  8
LAYER1
 62
     9
  6
CONTINUOUS
 10
129.4081
 20
81.3106
  0
VERTEX
  8
LAYER1
 62
     9
  6
CONTINUOUS
 10
129.4152
 20
81.3067
  0
VERTEX
  8
LAYER1
 62
     9
  6
CONTINUOUS
 10
129.4221
 20
81.3027
  0
VERTEX
  8
LAYER1
 62
     9
  6
CONTINUOUS
 10
129.4290
 20
81.2986
  0
VERTEX
  8
LAYER1
 62
     9
  6
CONTINUOUS
 10
129.4358
 20
81.2943
  0
VERTEX
  8
LAYER1
 62
     9
  6
CONTINUOUS
 10
129.4424
 20
81.2899
  0
VERTEX
  8
LAYER1
 62
     9
  6
CONTINUOUS
 10
129.4488
 20
81.2851
  0
VERTEX
  8
LAYER1
 62
     9
  6
CONTINUOUS
 10
129.4545
 20
81.2805
  0
VERTEX
  8
LAYER1
 62
     9
  6
CONTINUOUS
 10
129.4600
 20
81.2757
  0
VERTEX
  8
LAYER1
 62
     9
  6
CONTINUOUS
 10
129.4654
 20
81.2706
  0
VERTEX
  8
LAYER1
 62
     9
  6
CONTINUOUS
 10
129.4707
 20
81.2654
  0
VERTEX
  8
LAYER1
 62
     9
  6
CONTINUOUS
 10
129.4758
 20
81.2601
  0
VERTEX
  8
LAYER1
 62
     9
  6
CONTINUOUS
 10
129.4810
 20
81.2547
  0
VERTEX
  8
LAYER1
 62
     9
  6
CONTINUOUS
 10
129.4860
 20
81.2492
  0
VERTEX
  8
LAYER1
 62
     9
  6
CONTINUOUS
 10
129.4911
 20
81.2437
  0
VERTEX
  8
LAYER1
 62
     9
  6
CONTINUOUS
 10
129.4961
 20
81.2383
  0
VERTEX
  8
LAYER1
 62
     9
  6
CONTINUOUS
 10
129.5012
 20
81.2328
  0
VERTEX
  8
LAYER1
 62
     9
  6
CONTINUOUS
 10
129.5064
 20
81.2275
  0
VERTEX
  8
LAYER1
 62
     9
  6
CONTINUOUS
 10
129.5117
 20
81.2222
  0
VERTEX
  8
LAYER1
 62
     9
  6
CONTINUOUS
 10
129.5196
 20
81.2148
  0
VERTEX
  8
LAYER1
 62
     9
  6
CONTINUOUS
 10
129.5277
 20
81.2077
  0
VERTEX
  8
LAYER1
 62
     9
  6
CONTINUOUS
 10
129.5359
 20
81.2008
  0
VERTEX
  8
LAYER1
 62
     9
  6
CONTINUOUS
 10
129.5444
 20
81.1940
  0
VERTEX
  8
LAYER1
 62
     9
  6
CONTINUOUS
 10
129.5529
 20
81.1874
  0
VERTEX
  8
LAYER1
 62
     9
  6
CONTINUOUS
 10
129.5615
 20
81.1808
  0
VERTEX
  8
LAYER1
 62
     9
  6
CONTINUOUS
 10
129.5701
 20
81.1743
  0
VERTEX
  8
LAYER1
 62
     9
  6
CONTINUOUS
 10
129.5788
 20
81.1678
  0
VERTEX
  8
LAYER1
 62
     9
  6
CONTINUOUS
 10
129.5873
 20
81.1612
  0
VERTEX
  8
LAYER1
 62
     9
  6
CONTINUOUS
 10
129.5958
 20
81.1544
  0
VERTEX
  8
LAYER1
 62
     9
  6
CONTINUOUS
 10
129.6041
 20
81.1475
  0
VERTEX
  8
LAYER1
 62
     9
  6
CONTINUOUS
 10
129.6123
 20
81.1404
  0
VERTEX
  8
LAYER1
 62
     9
  6
CONTINUOUS
 10
129.6208
 20
81.1326
  0
VERTEX
  8
LAYER1
 62
     9
  6
CONTINUOUS
 10
129.6291
 20
81.1246
  0
VERTEX
  8
LAYER1
 62
     9
  6
CONTINUOUS
 10
129.6373
 20
81.1164
  0
VERTEX
  8
LAYER1
 62
     9
  6
CONTINUOUS
 10
129.6453
 20
81.1081
  0
VERTEX
  8
LAYER1
 62
     9
  6
CONTINUOUS
 10
129.6534
 20
81.0998
  0
VERTEX
  8
LAYER1
 62
     9
  6
CONTINUOUS
 10
129.6614
 20
81.0915
  0
VERTEX
  8
LAYER1
 62
     9
  6
CONTINUOUS
 10
129.6696
 20
81.0833
  0
VERTEX
  8
LAYER1
 62
     9
  6
CONTINUOUS
 10
129.6778
 20
81.0753
  0
VERTEX
  8
LAYER1
 62
     9
  6
CONTINUOUS
 10
129.6862
 20
81.0675
  0
VERTEX
  8
LAYER1
 62
     9
  6
CONTINUOUS
 10
129.6949
 20
81.0600
  0
VERTEX
  8
LAYER1
 62
     9
  6
CONTINUOUS
 10
129.7038
 20
81.0528
  0
VERTEX
  8
LAYER1
 62
     9
  6
CONTINUOUS
 10
129.7130
 20
81.0461
  0
VERTEX
  8
LAYER1
 62
     9
  6
CONTINUOUS
 10
129.7165
 20
81.0437
  0
VERTEX
  8
LAYER1
 62
     9
  6
CONTINUOUS
 10
129.7202
 20
81.0413
  0
VERTEX
  8
LAYER1
 62
     9
  6
CONTINUOUS
 10
129.7238
 20
81.0390
  0
VERTEX
  8
LAYER1
 62
     9
  6
CONTINUOUS
 10
129.7275
 20
81.0368
  0
VERTEX
  8
LAYER1
 62
     9
  6
CONTINUOUS
 10
129.7313
 20
81.0346
  0
VERTEX
  8
LAYER1
 62
     9
  6
CONTINUOUS
 10
129.7350
 20
81.0324
  0
VERTEX
  8
LAYER1
 62
     9
  6
CONTINUOUS
 10
129.7388
 20
81.0303
  0
VERTEX
  8
LAYER1
 62
     9
  6
CONTINUOUS
 10
129.7427
 20
81.0282
  0
VERTEX
  8
LAYER1
 62
     9
  6
CONTINUOUS
 10
129.7465
 20
81.0261
  0
VERTEX
  8
LAYER1
 62
     9
  6
CONTINUOUS
 10
129.7504
 20
81.0241
  0
VERTEX
  8
LAYER1
 62
     9
  6
CONTINUOUS
 10
129.7542
 20
81.0220
  0
VERTEX
  8
LAYER1
 62
     9
  6
CONTINUOUS
 10
129.7581
 20
81.0200
  0
SEQEND
  8
LAYER1
  0
POLYLINE
  8
LAYER1
 62
     9
 66
     1
  6
CONTINUOUS
  0
VERTEX
  8
LAYER1
 62
     9
  6
CONTINUOUS
 10
129.7581
 20
81.0200
  0
VERTEX
  8
LAYER1
 62
     9
  6
CONTINUOUS
 10
129.7581
 20
81.0200
  0
VERTEX
  8
LAYER1
 62
     9
  6
CONTINUOUS
 10
129.7581
 20
81.0200
  0
VERTEX
  8
LAYER1
 62
     9
  6
CONTINUOUS
 10
129.7581
 20
81.0200
  0
VERTEX
  8
LAYER1
 62
     9
  6
CONTINUOUS
 10
129.7581
 20
81.0200
  0
VERTEX
  8
LAYER1
 62
     9
  6
CONTINUOUS
 10
129.7581
 20
81.0200
  0
VERTEX
  8
LAYER1
 62
     9
  6
CONTINUOUS
 10
129.7581
 20
81.0200
  0
VERTEX
  8
LAYER1
 62
     9
  6
CONTINUOUS
 10
129.7581
 20
81.0200
  0
VERTEX
  8
LAYER1
 62
     9
  6
CONTINUOUS
 10
129.7581
 20
81.0200
  0
VERTEX
  8
LAYER1
 62
     9
  6
CONTINUOUS
 10
129.7581
 20
81.0200
  0
VERTEX
  8
LAYER1
 62
     9
  6
CONTINUOUS
 10
129.7581
 20
81.0200
  0
VERTEX
  8
LAYER1
 62
     9
  6
CONTINUOUS
 10
129.7581
 20
81.0200
  0
VERTEX
  8
LAYER1
 62
     9
  6
CONTINUOUS
 10
129.7581
 20
81.0200
  0
VERTEX
  8
LAYER1
 62
     9
  6
CONTINUOUS
 10
129.7590
 20
81.0200
  0
VERTEX
  8
LAYER1
 62
     9
  6
CONTINUOUS
 10
129.7597
 20
81.0200
  0
VERTEX
  8
LAYER1
 62
     9
  6
CONTINUOUS
 10
129.7602
 20
81.0200
  0
VERTEX
  8
LAYER1
 62
     9
  6
CONTINUOUS
 10
129.7604
 20
81.0200
  0
VERTEX
  8
LAYER1
 62
     9
  6
CONTINUOUS
 10
129.7605
 20
81.0200
  0
VERTEX
  8
LAYER1
 62
     9
  6
CONTINUOUS
 10
129.7605
 20
81.0200
  0
VERTEX
  8
LAYER1
 62
     9
  6
CONTINUOUS
 10
129.7603
 20
81.0200
  0
VERTEX
  8
LAYER1
 62
     9
  6
CONTINUOUS
 10
129.7600
 20
81.0200
  0
VERTEX
  8
LAYER1
 62
     9
  6
CONTINUOUS
 10
129.7596
 20
81.0200
  0
VERTEX
  8
LAYER1
 62
     9
  6
CONTINUOUS
 10
129.7591
 20
81.0200
  0
VERTEX
  8
LAYER1
 62
     9
  6
CONTINUOUS
 10
129.7586
 20
81.0200
  0
VERTEX
  8
LAYER1
 62
     9
  6
CONTINUOUS
 10
129.7581
 20
81.0200
  0
SEQEND
  8
LAYER1
  0
POLYLINE
  8
LAYER1
 62
     5
 66
     1
  6
CONTINUOUS
  0
VERTEX
  8
LAYER1
 62
     5
  6
CONTINUOUS
 10
129.2100
 20
81.0200
  0
VERTEX
  8
LAYER1
 62
     5
  6
CONTINUOUS
 10
129.2100
 20
81.0200
  0
SEQEND
  8
LAYER1
  0
POLYLINE
  8
LAYER1
 62
     5
 66
     1
  6
CONTINUOUS
  0
VERTEX
  8
LAYER1
 62
     5
  6
CONTINUOUS
 10
129.2100
 20
81.0200
  0
VERTEX
  8
LAYER1
 62
     5
  6
CONTINUOUS
 10
129.2100
 20
81.0200
  0
SEQEND
  8
LAYER1
  0
POLYLINE
  8
LAYER1
 62
     5
 66
     1
  6
CONTINUOUS
  0
VERTEX
  8
LAYER1
 62
     5
  6
CONTINUOUS
 10
129.2100
 20
81.0200
  0
VERTEX
  8
LAYER1
 62
     5
  6
CONTINUOUS
 10
129.2100
 20
81.0200
  0
SEQEND
  8
LAYER1
  0
POLYLINE
  8
LAYER1
 62
     5
 66
     1
  6
CONTINUOUS
  0
VERTEX
  8
LAYER1
 62
     5
  6
CONTINUOUS
 10
129.2100
 20
83.7971
  0
VERTEX
  8
LAYER1
 62
     5
  6
CONTINUOUS
 10
129.2100
 20
81.0200
  0
VERTEX
  8
LAYER1
 62
     5
  6
CONTINUOUS
 10
131.9871
 20
81.0200
  0
VERTEX
  8
LAYER1
 62
     5
  6
CONTINUOUS
 10
131.9871
 20
83.7971
  0
VERTEX
  8
LAYER1
 62
     5
  6
CONTINUOUS
 10
129.2100
 20
83.7971
  0
SEQEND
  8
LAYER1
  0
CIRCLE
  8
LAYER8
 62
     7
  6
CONTINUOUS
 10
129.2769
 20
83.5730
 40
0.0415
  0
CIRCLE
  8
LAYER8
 62
     7
  6
CONTINUOUS
 10
131.5693
 20
82.9274
 40
0.0611
  0
CIRCLE
  8
LAYER8
 62
     7
  6
CONTINUOUS
 10
131.2642
 20
82.0179
 40
0.0550
  0
CIRCLE
  8
LAYER8
 62
     7
  6
CONTINUOUS
 10
131.0229
 20
82.5607
 40
0.0681
  0
CIRCLE
  8
LAYER8
 62
     7
  6
CONTINUOUS
 10
130.6280
 20
82.6321
 40
0.0705
  0
CIRCLE
  8
LAYER8
 62
     7
  6
CONTINUOUS
 10
130.6624
 20
81.4810
 40
0.0373
  0
CIRCLE
  8
LAYER8
 62
     7
  6
CONTINUOUS
 10
129.6350
 20
81.8675
 40
0.0394
  0
CIRCLE
  8
LAYER8
 62
     7
  6
CONTINUOUS
 10
129.5137
 20
82.6675
 40
0.0624
  0
POLYLINE
  8
LAYER8
 62
     7
 66
     1
  6
CONTINUOUS
  0
VERTEX
  8
LAYER8
 62
     7
  6
CONTINUOUS
 10
130.4576
 20
81.9283
  0
VERTEX
  8
LAYER8
 62
     7
  6
CONTINUOUS
 10
130.4854
 20
81.9415
  0
VERTEX
  8
LAYER8
 62
     7
  6
CONTINUOUS
 10
130.5098
 20
81.9570
  0
VERTEX
  8
LAYER8
 62
     7
  6
CONTINUOUS
 10
130.5311
 20
81.9592
  0
VERTEX
  8
LAYER8
 62
     7
  6
CONTINUOUS
 10
130.5442
 20
81.9558
  0
VERTEX
  8
LAYER8
 62
     7
  6
CONTINUOUS
 10
130.5598
 20
81.9369
  0
VERTEX
  8
LAYER8
 62
     7
  6
CONTINUOUS
 10
130.5630
 20
81.9025
  0
VERTEX
  8
LAYER8
 62
     7
  6
CONTINUOUS
 10
130.5442
 20
81.8781
  0
VERTEX
  8
LAYER8
 62
     7
  6
CONTINUOUS
 10
130.5252
 20
81.8682
  0
VERTEX
  8
LAYER8
 62
     7
  6
CONTINUOUS
 10
130.5183
 20
81.8382
  0
VERTEX
  8
LAYER8
 62
     7
  6
CONTINUOUS
 10
130.5115
 20
81.7827
  0
VERTEX
  8
LAYER8
 62
     7
  6
CONTINUOUS
 10
130.5027
 20
81.7661
  0
VERTEX
  8
LAYER8
 62
     7
  6
CONTINUOUS
 10
130.4792
 20
81.7506
  0
VERTEX
  8
LAYER8
 62
     7
  6
CONTINUOUS
 10
130.4461
 20
81.7452
  0
VERTEX
  8
LAYER8
 62
     7
  6
CONTINUOUS
 10
130.4151
 20
81.7586
  0
VERTEX
  8
LAYER8
 62
     7
  6
CONTINUOUS
 10
130.3875
 20
81.7952
  0
VERTEX
  8
LAYER8
 62
     7
  6
CONTINUOUS
 10
130.3740
 20
81.8131
  0
VERTEX
  8
LAYER8
 62
     7
  6
CONTINUOUS
 10
130.3621
 20
81.8353
  0
VERTEX
  8
LAYER8
 62
     7
  6
CONTINUOUS
 10
130.3542
 20
81.8497
  0
VERTEX
  8
LAYER8
 62
     7
  6
CONTINUOUS
 10
130.3474
 20
81.8764
  0
VERTEX
  8
LAYER8
 62
     7
  6
CONTINUOUS
 10
130.3533
 20
81.8952
  0
VERTEX
  8
LAYER8
 62
     7
  6
CONTINUOUS
 10
130.3708
 20
81.9074
  0
VERTEX
  8
LAYER8
 62
     7
  6
CONTINUOUS
 10
130.3943
 20
81.9085
  0
VERTEX
  8
LAYER8
 62
     7
  6
CONTINUOUS
 10
130.4109
 20
81.9106
  0
VERTEX
  8
LAYER8
 62
     7
  6
CONTINUOUS
 10
130.4576
 20
81.9283
  0
SEQEND
  8
LAYER8
  0
ARC
  8
LAYER8
 62
     7
  6
CONTINUOUS
 10
129.2214
 20
83.3482
 40
0.0710
 50
-99.2994
 51
99.2994
  0
POLYLINE
  8
LAYER25
 62
     4
 66
     1
  6
CONTINUOUS
  0
VERTEX
  8
LAYER25
 62
     4
  6
CONTINUOUS
 10
129.2100
 20
81.0200
  0
VERTEX
  8
LAYER25
 62
     4
  6
CONTINUOUS
 10
129.2100
 20
81.0200
  0
SEQEND
  8
LAYER25
  0
POLYLINE
  8
LAYER42
 62
     2
 66
     1
  6
CONTINUOUS
  0
VERTEX
  8
LAYER42
 62
     2
  6
CONTINUOUS
 10
129.2100
 20
81.0200
  0
VERTEX
  8
LAYER42
 62
     2
  6
CONTINUOUS
 10
129.2100
 20
81.0200
  0
SEQEND
  8
LAYER42
  0
ENDSEC
  0
EOF
