  0
SECTION
  2
HEADER
  9
$ACADVER
  1
AC1004
  9
$EXTMIN
 10
10.0388
 20
-1.4262
  9
$EXTMAX
 10
11.0248
 20
-0.4376
  9
$LIMMIN
 10
10.0388
 20
-1.4262
  9
$LIMMAX
 10
11.0248
 20
-0.4376
  9
$INSBASE
 10
0.0
 20
0.0
  9
$VIEWCTR
 10
7.21903
 20
4.5
  9
$VIEWSIZE
 40
9.0
  9
$SNAPMODE
 70
     0
  9
$SNAPUNIT
 10
1.0
 20
1.0
  9
$SNAPBASE
 10
0.0
 20
0.0
  9
$SNAPANG
 50
0.0
  9
$SNAPSTYLE
 70
     0
  9
$SNAPISOPAIR
 70
     0
  9
$GRIDMODE
 70
     0
  9
$GRIDUNIT
 10
0.0
 20
0.0
  9
$ORTHOMODE
 70
     0
  9
$REGENMODE
 70
     1
  9
$FILLMODE
 70
     1
  9
$QTEXTMODE
 70
     0
  9
$DRAGMODE
 70
     2
  9
$LTSCALE
 40
1.0
  9
$OSMODE
 70
     0
  9
$ATTMODE
 70
     1
  9
$TEXTSIZE
 40
0.2
  9
$TRACEWID
 40
0.05
  9
$TEXTSTYLE
  7
STANDARD
  9
$CLAYER
  8
0
  9
$CELTYPE
  6
BYLAYER
  9
$CECOLOR
 62
   256
  9
$DIMSCALE
 40
1.0
  9
$DIMASZ
 40
0.18
  9
$DIMEXO
 40
0.0625
  9
$DIMDLI
 40
0.38
  9
$DIMRND
 40
0.0
  9
$DIMDLE
 40
0.0
  9
$DIMEXE
 40
0.18
  9
$DIMTP
 40
0.0
  9
$DIMTM
 40
0.0
  9
$DIMTXT
 40
0.18
  9
$DIMCEN
 40
0.09
  9
$DIMTSZ
 40
0.0
  9
$DIMTOL
 70
     0
  9
$DIMLIM
 70
     0
  9
$DIMTIH
 70
     1
  9
$DIMTOH
 70
     1
  9
$DIMSE1
 70
     0
  9
$DIMSE2
 70
     0
  9
$DIMTAD
 70
     0
  9
$DIMZIN
 70
     0
  9
$DIMBLK
  1

  9
$DIMASO
 70
     1
  9
$DIMSHO
 70
     0
  9
$DIMPOST
  1

  9
$DIMAPOST
  1

  9
$DIMALT
 70
     0
  9
$DIMALTD
 70
     2
  9
$DIMALTF
 40
25.4
  9
$DIMLFAC
 40
1.0
  9
$LUNITS
 70
     2
  9
$LUPREC
 70
     4
  9
$AXISMODE
 70
     0
  9
$AXISUNIT
 10
0.0
 20
0.0
  9
$SKETCHINC
 40
0.1
  9
$FILLETRAD
 40
0.0
  9
$AUNITS
 70
     0
  9
$AUPREC
 70
     0
  9
$MENU
  1
acad
  9
$ELEVATION
 40
0.0
  9
$THICKNESS
 40
0.0
  9
$VIEWDIR
 10
0.0
 20
0.0
 30
1.0
  9
$LIMCHECK
 70
     0
  9
$BLIPMODE
 70
     1
  9
$CHAMFERA
 40
0.0
  9
$CHAMFERB
 40
0.0
  9
$FASTZOOM
 70
     1
  9
$SKPOLY
 70
     0
  9
$TDCREATE
 40
2447222.5666886573
  9
$TDUPDATE
 40
2447222.5666886573
  9
$TDINDWG
 40
0.0000000000
  9
$TDUSRTIMER
 40
0.0000000000
  9
$USRTIMER
 70
     1
  9
$ANGBASE
 50
0.0
  9
$ANGDIR
 70
     0
  9
$PDMODE
 70
     0
  9
$PDSIZE
 40
0.0
  9
$PLINEWID
 40
0.0
  9
$COORDS
 70
     0
  9
$SPLFRAME
 70
     0
  9
$SPLINESEGS
 70
     8
  9
$ATTDIA
 70
     0
  9
$ATTREQ
 70
     1
  9
$USERI1
 70
     0
  9
$USERI2
 70
     0
  9
$USERI3
 70
     0
  9
$USERI4
 70
     0
  9
$USERI5
 70
     0
  9
$USERR1
 40
0.0
  9
$USERR2
 40
0.0
  9
$USERR3
 40
0.0
  9
$USERR4
 40
0.0
  9
$USERR5
 40
0.0
  0
ENDSEC
  0
SECTION
  2
TABLES
  0
TABLE
  2
LTYPE
 70
     13
  0
LTYPE
  2
CONTINUOUS
 70
    64
  3
Solid line
 72
    65
 73
     0
 40
0.0
  0
LTYPE
  2
DASHED
 70
    64
  3
__ __ __ __ __ __ __ __ __ __ __ __ __ __ __
 72
    65
 73
     2
 40
0.75
 49
0.5
 49
-0.25
  0
LTYPE
  2
HIDDEN
 70
    64
  3
_ _ _ _ _ _ _ _ _ _ _ _ _ _ _ _ _ _ _ _ _ _ _
 72
    65
 73
     2
 40
0.375
 49
0.25
 49
-0.125
  0
LTYPE
  2
CENTER
 70
    64
  3
____ _ ____ _ ____ _ ____ _ ____ _ ____ _ ____
 72
    65
 73
     4
 40
2.0
 49
1.25
 49
-0.25
 49
0.25
 49
-0.25
  0
LTYPE
  2
PHANTOM
 70
    64
  3
_____ _ _ _____ _ _ _____ _ _ _____ _ _ ____
 72
    65
 73
     6
 40
2.5
 49
1.25
 49
-0.25
 49
0.25
 49
-0.25
 49
0.25
 49
-0.25
  0
LTYPE
  2
DOT
 70
    64
  3
...............................................
 72
    65
 73
     2
 40
0.25
 49
0.0
 49
-0.25
  0
LTYPE
  2
DASHDOT
 70
    64
  3
__ . __ . __ . __ . __ . __ . __ . __ . __ . __
 72
    65
 73
     4
 40
1.0
 49
0.5
 49
-0.25
 49
0.0
 49
-0.25
  0
LTYPE
  2
BORDER
 70
    64
  3
__ __ . __ __ . __ __ . __ __ . __ __ . __ __
 72
    65
 73
     6
 40
1.75
 49
0.5
 49
-0.25
 49
0.5
 49
-0.25
 49
0.0
 49
-0.25
  0
LTYPE
  2
DIVIDE
 70
    64
  3
__ . . __ . . __ . . __ . . __ . . __ . . __
 72
    65
 73
     6
 40
1.25
 49
0.5
 49
-0.25
 49
0.0
 49
-0.25
 49
0.0
 49
-0.25
  0
LTYPE
  2
DCTYPE1
 70
    64
  3
__ . . __ . . __ . . __ . . __ . . __ . . __
 72
    65
 73
     8
 40
2.5
 49
0.5
 49
-0.25
 49
0.125
 49
-0.25
 49
0.25
 49
-0.25
 49
0.125
 49
-0.25
  0
LTYPE
  2
DCTYPE2
 70
    64
  3
__ . . __ . . __ . . __ . . __ . . __ . . __
 72
    65
 73
     6
 40
2.05
 49
1.0
 49
-0.3
 49
0.15
 49
-0.15
 49
0.15
 49
-0.3
  0
LTYPE
  2
DCTYPE3
 70
    64
  3
__ . . __ . . __ . . __ . . __ . . __ . . __
 72
    65
 73
     6
 40
2.5
 49
0.8
 49
-0.2
 49
0.8
 49
-0.2
 49
0.3
 49
-0.2
  0
LTYPE
  2
DCTYPE4
 70
    64
  3
__ . . __ . . __ . . __ . . __ . . __ . . __
 72
    65
 73
     10
 40
3.97
 49
1.75
 49
-0.3
 49
0.3
 49
-0.3
 49
0.06
 49
-0.3
 49
0.06
 49
-0.3
 49
0.3
 49
-0.3
  0
ENDTAB
  0
TABLE
  2
LAYER
 70
    153
  0
LAYER
  2
LAYER1
 70
 64
 62
     7
  6
CONTINUOUS
  0
LAYER
  2
LAYER10
 70
 64
 62
     1
  6
CONTINUOUS
  0
LAYER
  2
LAYER12
 70
 64
 62
     5
  6
CONTINUOUS
  0
ENDTAB
  0
ENDSEC
  0
SECTION
  2
BLOCKS
  0
ENDSEC
  0
SECTION
  2
ENTITIES
  0
CIRCLE
  8
LAYER1
 62
     7
  6
CONTINUOUS
 10
10.4184
 20
-1.1374
 40
0.0152
  0
CIRCLE
  8
LAYER1
 62
     7
  6
CONTINUOUS
 10
10.1959
 20
-0.4979
 40
0.0297
  0
CIRCLE
  8
LAYER1
 62
     7
  6
CONTINUOUS
 10
10.3410
 20
-0.6372
 40
0.0105
  0
CIRCLE
  8
LAYER1
 62
     7
  6
CONTINUOUS
 10
10.3617
 20
-0.8125
 40
0.0114
  0
CIRCLE
  8
LAYER1
 62
     7
  6
CONTINUOUS
 10
10.4579
 20
-0.6725
 40
0.0105
  0
CIRCLE
  8
LAYER1
 62
     7
  6
CONTINUOUS
 10
10.5595
 20
-0.6672
 40
0.0127
  0
CIRCLE
  8
LAYER1
 62
     7
  6
CONTINUOUS
 10
10.6638
 20
-0.7406
 40
0.0155
  0
CIRCLE
  8
LAYER1
 62
     7
  6
CONTINUOUS
 10
10.7372
 20
-0.6059
 40
0.0279
  0
POLYLINE
  8
LAYER10
 62
     1
 66
     1
  6
CONTINUOUS
  0
VERTEX
  8
LAYER10
 62
     1
  6
CONTINUOUS
 10
10.2388
 20
-1.4191
  0
VERTEX
  8
LAYER10
 62
     1
  6
CONTINUOUS
 10
10.2391
 20
-1.4185
  0
VERTEX
  8
LAYER10
 62
     1
  6
CONTINUOUS
 10
10.2393
 20
-1.4180
  0
VERTEX
  8
LAYER10
 62
     1
  6
CONTINUOUS
 10
10.2395
 20
-1.4174
  0
VERTEX
  8
LAYER10
 62
     1
  6
CONTINUOUS
 10
10.2398
 20
-1.4168
  0
VERTEX
  8
LAYER10
 62
     1
  6
CONTINUOUS
 10
10.2400
 20
-1.4162
  0
VERTEX
  8
LAYER10
 62
     1
  6
CONTINUOUS
 10
10.2402
 20
-1.4157
  0
VERTEX
  8
LAYER10
 62
     1
  6
CONTINUOUS
 10
10.2404
 20
-1.4151
  0
VERTEX
  8
LAYER10
 62
     1
  6
CONTINUOUS
 10
10.2406
 20
-1.4145
  0
VERTEX
  8
LAYER10
 62
     1
  6
CONTINUOUS
 10
10.2408
 20
-1.4139
  0
VERTEX
  8
LAYER10
 62
     1
  6
CONTINUOUS
 10
10.2409
 20
-1.4134
  0
VERTEX
  8
LAYER10
 62
     1
  6
CONTINUOUS
 10
10.2411
 20
-1.4128
  0
VERTEX
  8
LAYER10
 62
     1
  6
CONTINUOUS
 10
10.2412
 20
-1.4122
  0
VERTEX
  8
LAYER10
 62
     1
  6
CONTINUOUS
 10
10.2414
 20
-1.4105
  0
VERTEX
  8
LAYER10
 62
     1
  6
CONTINUOUS
 10
10.2416
 20
-1.4088
  0
VERTEX
  8
LAYER10
 62
     1
  6
CONTINUOUS
 10
10.2416
 20
-1.4071
  0
VERTEX
  8
LAYER10
 62
     1
  6
CONTINUOUS
 10
10.2415
 20
-1.4054
  0
VERTEX
  8
LAYER10
 62
     1
  6
CONTINUOUS
 10
10.2414
 20
-1.4037
  0
VERTEX
  8
LAYER10
 62
     1
  6
CONTINUOUS
 10
10.2412
 20
-1.4020
  0
VERTEX
  8
LAYER10
 62
     1
  6
CONTINUOUS
 10
10.2411
 20
-1.4002
  0
VERTEX
  8
LAYER10
 62
     1
  6
CONTINUOUS
 10
10.2409
 20
-1.3985
  0
VERTEX
  8
LAYER10
 62
     1
  6
CONTINUOUS
 10
10.2409
 20
-1.3968
  0
VERTEX
  8
LAYER10
 62
     1
  6
CONTINUOUS
 10
10.2408
 20
-1.3951
  0
VERTEX
  8
LAYER10
 62
     1
  6
CONTINUOUS
 10
10.2409
 20
-1.3935
  0
VERTEX
  8
LAYER10
 62
     1
  6
CONTINUOUS
 10
10.2411
 20
-1.3919
  0
VERTEX
  8
LAYER10
 62
     1
  6
CONTINUOUS
 10
10.2416
 20
-1.3899
  0
VERTEX
  8
LAYER10
 62
     1
  6
CONTINUOUS
 10
10.2423
 20
-1.3879
  0
VERTEX
  8
LAYER10
 62
     1
  6
CONTINUOUS
 10
10.2431
 20
-1.3861
  0
VERTEX
  8
LAYER10
 62
     1
  6
CONTINUOUS
 10
10.2441
 20
-1.3843
  0
VERTEX
  8
LAYER10
 62
     1
  6
CONTINUOUS
 10
10.2453
 20
-1.3825
  0
VERTEX
  8
LAYER10
 62
     1
  6
CONTINUOUS
 10
10.2467
 20
-1.3808
  0
VERTEX
  8
LAYER10
 62
     1
  6
CONTINUOUS
 10
10.2481
 20
-1.3791
  0
VERTEX
  8
LAYER10
 62
     1
  6
CONTINUOUS
 10
10.2496
 20
-1.3775
  0
VERTEX
  8
LAYER10
 62
     1
  6
CONTINUOUS
 10
10.2512
 20
-1.3759
  0
VERTEX
  8
LAYER10
 62
     1
  6
CONTINUOUS
 10
10.2529
 20
-1.3744
  0
VERTEX
  8
LAYER10
 62
     1
  6
CONTINUOUS
 10
10.2546
 20
-1.3729
  0
VERTEX
  8
LAYER10
 62
     1
  6
CONTINUOUS
 10
10.2563
 20
-1.3715
  0
VERTEX
  8
LAYER10
 62
     1
  6
CONTINUOUS
 10
10.2588
 20
-1.3695
  0
VERTEX
  8
LAYER10
 62
     1
  6
CONTINUOUS
 10
10.2613
 20
-1.3676
  0
VERTEX
  8
LAYER10
 62
     1
  6
CONTINUOUS
 10
10.2638
 20
-1.3657
  0
VERTEX
  8
LAYER10
 62
     1
  6
CONTINUOUS
 10
10.2664
 20
-1.3639
  0
VERTEX
  8
LAYER10
 62
     1
  6
CONTINUOUS
 10
10.2689
 20
-1.3622
  0
VERTEX
  8
LAYER10
 62
     1
  6
CONTINUOUS
 10
10.2714
 20
-1.3605
  0
VERTEX
  8
LAYER10
 62
     1
  6
CONTINUOUS
 10
10.2739
 20
-1.3589
  0
VERTEX
  8
LAYER10
 62
     1
  6
CONTINUOUS
 10
10.2765
 20
-1.3573
  0
VERTEX
  8
LAYER10
 62
     1
  6
CONTINUOUS
 10
10.2790
 20
-1.3557
  0
VERTEX
  8
LAYER10
 62
     1
  6
CONTINUOUS
 10
10.2816
 20
-1.3542
  0
VERTEX
  8
LAYER10
 62
     1
  6
CONTINUOUS
 10
10.2842
 20
-1.3526
  0
VERTEX
  8
LAYER10
 62
     1
  6
CONTINUOUS
 10
10.2868
 20
-1.3511
  0
VERTEX
  8
LAYER10
 62
     1
  6
CONTINUOUS
 10
10.2892
 20
-1.3497
  0
VERTEX
  8
LAYER10
 62
     1
  6
CONTINUOUS
 10
10.2916
 20
-1.3483
  0
VERTEX
  8
LAYER10
 62
     1
  6
CONTINUOUS
 10
10.2941
 20
-1.3469
  0
VERTEX
  8
LAYER10
 62
     1
  6
CONTINUOUS
 10
10.2966
 20
-1.3455
  0
VERTEX
  8
LAYER10
 62
     1
  6
CONTINUOUS
 10
10.2990
 20
-1.3441
  0
VERTEX
  8
LAYER10
 62
     1
  6
CONTINUOUS
 10
10.3016
 20
-1.3428
  0
VERTEX
  8
LAYER10
 62
     1
  6
CONTINUOUS
 10
10.3041
 20
-1.3415
  0
VERTEX
  8
LAYER10
 62
     1
  6
CONTINUOUS
 10
10.3067
 20
-1.3402
  0
VERTEX
  8
LAYER10
 62
     1
  6
CONTINUOUS
 10
10.3093
 20
-1.3390
  0
VERTEX
  8
LAYER10
 62
     1
  6
CONTINUOUS
 10
10.3119
 20
-1.3379
  0
VERTEX
  8
LAYER10
 62
     1
  6
CONTINUOUS
 10
10.3145
 20
-1.3368
  0
VERTEX
  8
LAYER10
 62
     1
  6
CONTINUOUS
 10
10.3172
 20
-1.3358
  0
VERTEX
  8
LAYER10
 62
     1
  6
CONTINUOUS
 10
10.3197
 20
-1.3350
  0
VERTEX
  8
LAYER10
 62
     1
  6
CONTINUOUS
 10
10.3222
 20
-1.3342
  0
VERTEX
  8
LAYER10
 62
     1
  6
CONTINUOUS
 10
10.3247
 20
-1.3335
  0
VERTEX
  8
LAYER10
 62
     1
  6
CONTINUOUS
 10
10.3272
 20
-1.3328
  0
VERTEX
  8
LAYER10
 62
     1
  6
CONTINUOUS
 10
10.3297
 20
-1.3323
  0
VERTEX
  8
LAYER10
 62
     1
  6
CONTINUOUS
 10
10.3323
 20
-1.3318
  0
VERTEX
  8
LAYER10
 62
     1
  6
CONTINUOUS
 10
10.3348
 20
-1.3314
  0
VERTEX
  8
LAYER10
 62
     1
  6
CONTINUOUS
 10
10.3374
 20
-1.3311
  0
VERTEX
  8
LAYER10
 62
     1
  6
CONTINUOUS
 10
10.3400
 20
-1.3308
  0
VERTEX
  8
LAYER10
 62
     1
  6
CONTINUOUS
 10
10.3426
 20
-1.3307
  0
VERTEX
  8
LAYER10
 62
     1
  6
CONTINUOUS
 10
10.3451
 20
-1.3306
  0
VERTEX
  8
LAYER10
 62
     1
  6
CONTINUOUS
 10
10.3477
 20
-1.3307
  0
VERTEX
  8
LAYER10
 62
     1
  6
CONTINUOUS
 10
10.3511
 20
-1.3308
  0
VERTEX
  8
LAYER10
 62
     1
  6
CONTINUOUS
 10
10.3546
 20
-1.3312
  0
VERTEX
  8
LAYER10
 62
     1
  6
CONTINUOUS
 10
10.3580
 20
-1.3317
  0
VERTEX
  8
LAYER10
 62
     1
  6
CONTINUOUS
 10
10.3614
 20
-1.3323
  0
VERTEX
  8
LAYER10
 62
     1
  6
CONTINUOUS
 10
10.3648
 20
-1.3331
  0
VERTEX
  8
LAYER10
 62
     1
  6
CONTINUOUS
 10
10.3682
 20
-1.3339
  0
VERTEX
  8
LAYER10
 62
     1
  6
CONTINUOUS
 10
10.3715
 20
-1.3349
  0
VERTEX
  8
LAYER10
 62
     1
  6
CONTINUOUS
 10
10.3749
 20
-1.3359
  0
VERTEX
  8
LAYER10
 62
     1
  6
CONTINUOUS
 10
10.3783
 20
-1.3371
  0
VERTEX
  8
LAYER10
 62
     1
  6
CONTINUOUS
 10
10.3816
 20
-1.3382
  0
VERTEX
  8
LAYER10
 62
     1
  6
CONTINUOUS
 10
10.3850
 20
-1.3395
  0
VERTEX
  8
LAYER10
 62
     1
  6
CONTINUOUS
 10
10.3883
 20
-1.3407
  0
VERTEX
  8
LAYER10
 62
     1
  6
CONTINUOUS
 10
10.3916
 20
-1.3420
  0
VERTEX
  8
LAYER10
 62
     1
  6
CONTINUOUS
 10
10.3949
 20
-1.3433
  0
VERTEX
  8
LAYER10
 62
     1
  6
CONTINUOUS
 10
10.3982
 20
-1.3446
  0
VERTEX
  8
LAYER10
 62
     1
  6
CONTINUOUS
 10
10.4014
 20
-1.3460
  0
VERTEX
  8
LAYER10
 62
     1
  6
CONTINUOUS
 10
10.4045
 20
-1.3475
  0
VERTEX
  8
LAYER10
 62
     1
  6
CONTINUOUS
 10
10.4076
 20
-1.3490
  0
VERTEX
  8
LAYER10
 62
     1
  6
CONTINUOUS
 10
10.4106
 20
-1.3507
  0
VERTEX
  8
LAYER10
 62
     1
  6
CONTINUOUS
 10
10.4135
 20
-1.3524
  0
VERTEX
  8
LAYER10
 62
     1
  6
CONTINUOUS
 10
10.4163
 20
-1.3543
  0
VERTEX
  8
LAYER10
 62
     1
  6
CONTINUOUS
 10
10.4190
 20
-1.3564
  0
VERTEX
  8
LAYER10
 62
     1
  6
CONTINUOUS
 10
10.4216
 20
-1.3586
  0
VERTEX
  8
LAYER10
 62
     1
  6
CONTINUOUS
 10
10.4239
 20
-1.3610
  0
VERTEX
  8
LAYER10
 62
     1
  6
CONTINUOUS
 10
10.4250
 20
-1.3621
  0
VERTEX
  8
LAYER10
 62
     1
  6
CONTINUOUS
 10
10.4259
 20
-1.3632
  0
VERTEX
  8
LAYER10
 62
     1
  6
CONTINUOUS
 10
10.4269
 20
-1.3644
  0
VERTEX
  8
LAYER10
 62
     1
  6
CONTINUOUS
 10
10.4278
 20
-1.3656
  0
VERTEX
  8
LAYER10
 62
     1
  6
CONTINUOUS
 10
10.4287
 20
-1.3669
  0
VERTEX
  8
LAYER10
 62
     1
  6
CONTINUOUS
 10
10.4296
 20
-1.3681
  0
VERTEX
  8
LAYER10
 62
     1
  6
CONTINUOUS
 10
10.4304
 20
-1.3694
  0
VERTEX
  8
LAYER10
 62
     1
  6
CONTINUOUS
 10
10.4312
 20
-1.3707
  0
VERTEX
  8
LAYER10
 62
     1
  6
CONTINUOUS
 10
10.4320
 20
-1.3721
  0
VERTEX
  8
LAYER10
 62
     1
  6
CONTINUOUS
 10
10.4327
 20
-1.3734
  0
VERTEX
  8
LAYER10
 62
     1
  6
CONTINUOUS
 10
10.4334
 20
-1.3748
  0
VERTEX
  8
LAYER10
 62
     1
  6
CONTINUOUS
 10
10.4341
 20
-1.3762
  0
VERTEX
  8
LAYER10
 62
     1
  6
CONTINUOUS
 10
10.4352
 20
-1.3784
  0
VERTEX
  8
LAYER10
 62
     1
  6
CONTINUOUS
 10
10.4362
 20
-1.3807
  0
VERTEX
  8
LAYER10
 62
     1
  6
CONTINUOUS
 10
10.4373
 20
-1.3830
  0
VERTEX
  8
LAYER10
 62
     1
  6
CONTINUOUS
 10
10.4383
 20
-1.3852
  0
VERTEX
  8
LAYER10
 62
     1
  6
CONTINUOUS
 10
10.4393
 20
-1.3875
  0
VERTEX
  8
LAYER10
 62
     1
  6
CONTINUOUS
 10
10.4404
 20
-1.3897
  0
VERTEX
  8
LAYER10
 62
     1
  6
CONTINUOUS
 10
10.4416
 20
-1.3918
  0
VERTEX
  8
LAYER10
 62
     1
  6
CONTINUOUS
 10
10.4429
 20
-1.3939
  0
VERTEX
  8
LAYER10
 62
     1
  6
CONTINUOUS
 10
10.4443
 20
-1.3960
  0
VERTEX
  8
LAYER10
 62
     1
  6
CONTINUOUS
 10
10.4458
 20
-1.3979
  0
VERTEX
  8
LAYER10
 62
     1
  6
CONTINUOUS
 10
10.4475
 20
-1.3998
  0
VERTEX
  8
LAYER10
 62
     1
  6
CONTINUOUS
 10
10.4494
 20
-1.4015
  0
VERTEX
  8
LAYER10
 62
     1
  6
CONTINUOUS
 10
10.4504
 20
-1.4023
  0
VERTEX
  8
LAYER10
 62
     1
  6
CONTINUOUS
 10
10.4515
 20
-1.4031
  0
VERTEX
  8
LAYER10
 62
     1
  6
CONTINUOUS
 10
10.4525
 20
-1.4039
  0
VERTEX
  8
LAYER10
 62
     1
  6
CONTINUOUS
 10
10.4535
 20
-1.4047
  0
VERTEX
  8
LAYER10
 62
     1
  6
CONTINUOUS
 10
10.4546
 20
-1.4055
  0
VERTEX
  8
LAYER10
 62
     1
  6
CONTINUOUS
 10
10.4555
 20
-1.4062
  0
VERTEX
  8
LAYER10
 62
     1
  6
CONTINUOUS
 10
10.4565
 20
-1.4071
  0
VERTEX
  8
LAYER10
 62
     1
  6
CONTINUOUS
 10
10.4573
 20
-1.4079
  0
VERTEX
  8
LAYER10
 62
     1
  6
CONTINUOUS
 10
10.4581
 20
-1.4088
  0
VERTEX
  8
LAYER10
 62
     1
  6
CONTINUOUS
 10
10.4587
 20
-1.4097
  0
VERTEX
  8
LAYER10
 62
     1
  6
CONTINUOUS
 10
10.4592
 20
-1.4106
  0
VERTEX
  8
LAYER10
 62
     1
  6
CONTINUOUS
 10
10.4596
 20
-1.4117
  0
VERTEX
  8
LAYER10
 62
     1
  6
CONTINUOUS
 10
10.4598
 20
-1.4122
  0
VERTEX
  8
LAYER10
 62
     1
  6
CONTINUOUS
 10
10.4598
 20
-1.4128
  0
VERTEX
  8
LAYER10
 62
     1
  6
CONTINUOUS
 10
10.4599
 20
-1.4134
  0
VERTEX
  8
LAYER10
 62
     1
  6
CONTINUOUS
 10
10.4599
 20
-1.4140
  0
VERTEX
  8
LAYER10
 62
     1
  6
CONTINUOUS
 10
10.4599
 20
-1.4146
  0
VERTEX
  8
LAYER10
 62
     1
  6
CONTINUOUS
 10
10.4599
 20
-1.4152
  0
VERTEX
  8
LAYER10
 62
     1
  6
CONTINUOUS
 10
10.4598
 20
-1.4159
  0
VERTEX
  8
LAYER10
 62
     1
  6
CONTINUOUS
 10
10.4598
 20
-1.4165
  0
VERTEX
  8
LAYER10
 62
     1
  6
CONTINUOUS
 10
10.4597
 20
-1.4171
  0
VERTEX
  8
LAYER10
 62
     1
  6
CONTINUOUS
 10
10.4596
 20
-1.4178
  0
VERTEX
  8
LAYER10
 62
     1
  6
CONTINUOUS
 10
10.4595
 20
-1.4184
  0
VERTEX
  8
LAYER10
 62
     1
  6
CONTINUOUS
 10
10.4594
 20
-1.4191
  0
SEQEND
  8
LAYER10
  0
POLYLINE
  8
LAYER10
 62
     1
 66
     1
  6
CONTINUOUS
  0
VERTEX
  8
LAYER10
 62
     1
  6
CONTINUOUS
 10
11.0213
 20
-0.4907
  0
VERTEX
  8
LAYER10
 62
     1
  6
CONTINUOUS
 10
11.0192
 20
-0.4875
  0
VERTEX
  8
LAYER10
 62
     1
  6
CONTINUOUS
 10
11.0171
 20
-0.4842
  0
VERTEX
  8
LAYER10
 62
     1
  6
CONTINUOUS
 10
11.0151
 20
-0.4810
  0
VERTEX
  8
LAYER10
 62
     1
  6
CONTINUOUS
 10
11.0131
 20
-0.4777
  0
VERTEX
  8
LAYER10
 62
     1
  6
CONTINUOUS
 10
11.0112
 20
-0.4744
  0
VERTEX
  8
LAYER10
 62
     1
  6
CONTINUOUS
 10
11.0094
 20
-0.4711
  0
VERTEX
  8
LAYER10
 62
     1
  6
CONTINUOUS
 10
11.0077
 20
-0.4678
  0
VERTEX
  8
LAYER10
 62
     1
  6
CONTINUOUS
 10
11.0060
 20
-0.4644
  0
VERTEX
  8
LAYER10
 62
     1
  6
CONTINUOUS
 10
11.0045
 20
-0.4609
  0
VERTEX
  8
LAYER10
 62
     1
  6
CONTINUOUS
 10
11.0032
 20
-0.4575
  0
VERTEX
  8
LAYER10
 62
     1
  6
CONTINUOUS
 10
11.0020
 20
-0.4539
  0
VERTEX
  8
LAYER10
 62
     1
  6
CONTINUOUS
 10
11.0010
 20
-0.4503
  0
VERTEX
  8
LAYER10
 62
     1
  6
CONTINUOUS
 10
11.0008
 20
-0.4496
  0
VERTEX
  8
LAYER10
 62
     1
  6
CONTINUOUS
 10
11.0006
 20
-0.4488
  0
VERTEX
  8
LAYER10
 62
     1
  6
CONTINUOUS
 10
11.0004
 20
-0.4480
  0
VERTEX
  8
LAYER10
 62
     1
  6
CONTINUOUS
 10
11.0003
 20
-0.4473
  0
VERTEX
  8
LAYER10
 62
     1
  6
CONTINUOUS
 10
11.0001
 20
-0.4465
  0
VERTEX
  8
LAYER10
 62
     1
  6
CONTINUOUS
 10
10.9999
 20
-0.4458
  0
VERTEX
  8
LAYER10
 62
     1
  6
CONTINUOUS
 10
10.9998
 20
-0.4450
  0
VERTEX
  8
LAYER10
 62
     1
  6
CONTINUOUS
 10
10.9996
 20
-0.4442
  0
VERTEX
  8
LAYER10
 62
     1
  6
CONTINUOUS
 10
10.9995
 20
-0.4435
  0
VERTEX
  8
LAYER10
 62
     1
  6
CONTINUOUS
 10
10.9994
 20
-0.4427
  0
VERTEX
  8
LAYER10
 62
     1
  6
CONTINUOUS
 10
10.9992
 20
-0.4419
  0
VERTEX
  8
LAYER10
 62
     1
  6
CONTINUOUS
 10
10.9991
 20
-0.4411
  0
SEQEND
  8
LAYER10
  0
POLYLINE
  8
LAYER10
 62
     1
 66
     1
  6
CONTINUOUS
  0
VERTEX
  8
LAYER10
 62
     1
  6
CONTINUOUS
 10
10.2340
 20
-1.4262
  0
VERTEX
  8
LAYER10
 62
     1
  6
CONTINUOUS
 10
10.2345
 20
-1.4254
  0
VERTEX
  8
LAYER10
 62
     1
  6
CONTINUOUS
 10
10.2351
 20
-1.4246
  0
VERTEX
  8
LAYER10
 62
     1
  6
CONTINUOUS
 10
10.2356
 20
-1.4239
  0
VERTEX
  8
LAYER10
 62
     1
  6
CONTINUOUS
 10
10.2361
 20
-1.4231
  0
VERTEX
  8
LAYER10
 62
     1
  6
CONTINUOUS
 10
10.2366
 20
-1.4224
  0
VERTEX
  8
LAYER10
 62
     1
  6
CONTINUOUS
 10
10.2370
 20
-1.4218
  0
VERTEX
  8
LAYER10
 62
     1
  6
CONTINUOUS
 10
10.2374
 20
-1.4212
  0
VERTEX
  8
LAYER10
 62
     1
  6
CONTINUOUS
 10
10.2378
 20
-1.4206
  0
VERTEX
  8
LAYER10
 62
     1
  6
CONTINUOUS
 10
10.2381
 20
-1.4201
  0
VERTEX
  8
LAYER10
 62
     1
  6
CONTINUOUS
 10
10.2384
 20
-1.4197
  0
VERTEX
  8
LAYER10
 62
     1
  6
CONTINUOUS
 10
10.2387
 20
-1.4193
  0
VERTEX
  8
LAYER10
 62
     1
  6
CONTINUOUS
 10
10.2388
 20
-1.4191
  0
VERTEX
  8
LAYER10
 62
     1
  6
CONTINUOUS
 10
10.2389
 20
-1.4190
  0
VERTEX
  8
LAYER10
 62
     1
  6
CONTINUOUS
 10
10.2389
 20
-1.4189
  0
VERTEX
  8
LAYER10
 62
     1
  6
CONTINUOUS
 10
10.2390
 20
-1.4189
  0
VERTEX
  8
LAYER10
 62
     1
  6
CONTINUOUS
 10
10.2390
 20
-1.4189
  0
VERTEX
  8
LAYER10
 62
     1
  6
CONTINUOUS
 10
10.2390
 20
-1.4188
  0
VERTEX
  8
LAYER10
 62
     1
  6
CONTINUOUS
 10
10.2390
 20
-1.4189
  0
VERTEX
  8
LAYER10
 62
     1
  6
CONTINUOUS
 10
10.2390
 20
-1.4189
  0
VERTEX
  8
LAYER10
 62
     1
  6
CONTINUOUS
 10
10.2390
 20
-1.4189
  0
VERTEX
  8
LAYER10
 62
     1
  6
CONTINUOUS
 10
10.2389
 20
-1.4189
  0
VERTEX
  8
LAYER10
 62
     1
  6
CONTINUOUS
 10
10.2389
 20
-1.4190
  0
VERTEX
  8
LAYER10
 62
     1
  6
CONTINUOUS
 10
10.2389
 20
-1.4190
  0
VERTEX
  8
LAYER10
 62
     1
  6
CONTINUOUS
 10
10.2388
 20
-1.4191
  0
SEQEND
  8
LAYER10
  0
POLYLINE
  8
LAYER10
 62
     1
 66
     1
  6
CONTINUOUS
  0
VERTEX
  8
LAYER10
 62
     1
  6
CONTINUOUS
 10
10.4594
 20
-1.4191
  0
VERTEX
  8
LAYER10
 62
     1
  6
CONTINUOUS
 10
10.4594
 20
-1.4199
  0
VERTEX
  8
LAYER10
 62
     1
  6
CONTINUOUS
 10
10.4594
 20
-1.4206
  0
VERTEX
  8
LAYER10
 62
     1
  6
CONTINUOUS
 10
10.4594
 20
-1.4214
  0
VERTEX
  8
LAYER10
 62
     1
  6
CONTINUOUS
 10
10.4595
 20
-1.4221
  0
VERTEX
  8
LAYER10
 62
     1
  6
CONTINUOUS
 10
10.4595
 20
-1.4228
  0
VERTEX
  8
LAYER10
 62
     1
  6
CONTINUOUS
 10
10.4595
 20
-1.4235
  0
VERTEX
  8
LAYER10
 62
     1
  6
CONTINUOUS
 10
10.4595
 20
-1.4241
  0
VERTEX
  8
LAYER10
 62
     1
  6
CONTINUOUS
 10
10.4595
 20
-1.4246
  0
VERTEX
  8
LAYER10
 62
     1
  6
CONTINUOUS
 10
10.4595
 20
-1.4251
  0
VERTEX
  8
LAYER10
 62
     1
  6
CONTINUOUS
 10
10.4595
 20
-1.4256
  0
VERTEX
  8
LAYER10
 62
     1
  6
CONTINUOUS
 10
10.4595
 20
-1.4259
  0
VERTEX
  8
LAYER10
 62
     1
  6
CONTINUOUS
 10
10.4595
 20
-1.4262
  0
VERTEX
  8
LAYER10
 62
     1
  6
CONTINUOUS
 10
10.4595
 20
-1.4263
  0
VERTEX
  8
LAYER10
 62
     1
  6
CONTINUOUS
 10
10.4596
 20
-1.4264
  0
VERTEX
  8
LAYER10
 62
     1
  6
CONTINUOUS
 10
10.4596
 20
-1.4265
  0
VERTEX
  8
LAYER10
 62
     1
  6
CONTINUOUS
 10
10.4596
 20
-1.4265
  0
VERTEX
  8
LAYER10
 62
     1
  6
CONTINUOUS
 10
10.4596
 20
-1.4265
  0
VERTEX
  8
LAYER10
 62
     1
  6
CONTINUOUS
 10
10.4596
 20
-1.4265
  0
VERTEX
  8
LAYER10
 62
     1
  6
CONTINUOUS
 10
10.4596
 20
-1.4265
  0
VERTEX
  8
LAYER10
 62
     1
  6
CONTINUOUS
 10
10.4596
 20
-1.4265
  0
VERTEX
  8
LAYER10
 62
     1
  6
CONTINUOUS
 10
10.4595
 20
-1.4264
  0
VERTEX
  8
LAYER10
 62
     1
  6
CONTINUOUS
 10
10.4595
 20
-1.4263
  0
VERTEX
  8
LAYER10
 62
     1
  6
CONTINUOUS
 10
10.4595
 20
-1.4263
  0
VERTEX
  8
LAYER10
 62
     1
  6
CONTINUOUS
 10
10.4595
 20
-1.4262
  0
SEQEND
  8
LAYER10
  0
POLYLINE
  8
LAYER10
 62
     1
 66
     1
  6
CONTINUOUS
  0
VERTEX
  8
LAYER10
 62
     1
  6
CONTINUOUS
 10
11.0248
 20
-0.4967
  0
VERTEX
  8
LAYER10
 62
     1
  6
CONTINUOUS
 10
11.0245
 20
-0.4962
  0
VERTEX
  8
LAYER10
 62
     1
  6
CONTINUOUS
 10
11.0242
 20
-0.4957
  0
VERTEX
  8
LAYER10
 62
     1
  6
CONTINUOUS
 10
11.0240
 20
-0.4953
  0
VERTEX
  8
LAYER10
 62
     1
  6
CONTINUOUS
 10
11.0237
 20
-0.4948
  0
VERTEX
  8
LAYER10
 62
     1
  6
CONTINUOUS
 10
11.0234
 20
-0.4943
  0
VERTEX
  8
LAYER10
 62
     1
  6
CONTINUOUS
 10
11.0231
 20
-0.4938
  0
VERTEX
  8
LAYER10
 62
     1
  6
CONTINUOUS
 10
11.0228
 20
-0.4933
  0
VERTEX
  8
LAYER10
 62
     1
  6
CONTINUOUS
 10
11.0225
 20
-0.4928
  0
VERTEX
  8
LAYER10
 62
     1
  6
CONTINUOUS
 10
11.0222
 20
-0.4924
  0
VERTEX
  8
LAYER10
 62
     1
  6
CONTINUOUS
 10
11.0220
 20
-0.4919
  0
VERTEX
  8
LAYER10
 62
     1
  6
CONTINUOUS
 10
11.0217
 20
-0.4914
  0
VERTEX
  8
LAYER10
 62
     1
  6
CONTINUOUS
 10
11.0214
 20
-0.4909
  0
VERTEX
  8
LAYER10
 62
     1
  6
CONTINUOUS
 10
11.0214
 20
-0.4909
  0
VERTEX
  8
LAYER10
 62
     1
  6
CONTINUOUS
 10
11.0214
 20
-0.4909
  0
VERTEX
  8
LAYER10
 62
     1
  6
CONTINUOUS
 10
11.0214
 20
-0.4909
  0
VERTEX
  8
LAYER10
 62
     1
  6
CONTINUOUS
 10
11.0213
 20
-0.4908
  0
VERTEX
  8
LAYER10
 62
     1
  6
CONTINUOUS
 10
11.0213
 20
-0.4908
  0
VERTEX
  8
LAYER10
 62
     1
  6
CONTINUOUS
 10
11.0213
 20
-0.4908
  0
VERTEX
  8
LAYER10
 62
     1
  6
CONTINUOUS
 10
11.0213
 20
-0.4908
  0
VERTEX
  8
LAYER10
 62
     1
  6
CONTINUOUS
 10
11.0213
 20
-0.4908
  0
VERTEX
  8
LAYER10
 62
     1
  6
CONTINUOUS
 10
11.0213
 20
-0.4908
  0
VERTEX
  8
LAYER10
 62
     1
  6
CONTINUOUS
 10
11.0213
 20
-0.4908
  0
VERTEX
  8
LAYER10
 62
     1
  6
CONTINUOUS
 10
11.0213
 20
-0.4907
  0
VERTEX
  8
LAYER10
 62
     1
  6
CONTINUOUS
 10
11.0213
 20
-0.4907
  0
SEQEND
  8
LAYER10
  0
POLYLINE
  8
LAYER10
 62
     1
 66
     1
  6
CONTINUOUS
  0
VERTEX
  8
LAYER10
 62
     1
  6
CONTINUOUS
 10
10.9991
 20
-0.4411
  0
VERTEX
  8
LAYER10
 62
     1
  6
CONTINUOUS
 10
10.9990
 20
-0.4408
  0
VERTEX
  8
LAYER10
 62
     1
  6
CONTINUOUS
 10
10.9990
 20
-0.4404
  0
VERTEX
  8
LAYER10
 62
     1
  6
CONTINUOUS
 10
10.9990
 20
-0.4401
  0
VERTEX
  8
LAYER10
 62
     1
  6
CONTINUOUS
 10
10.9989
 20
-0.4397
  0
VERTEX
  8
LAYER10
 62
     1
  6
CONTINUOUS
 10
10.9989
 20
-0.4394
  0
VERTEX
  8
LAYER10
 62
     1
  6
CONTINUOUS
 10
10.9989
 20
-0.4391
  0
VERTEX
  8
LAYER10
 62
     1
  6
CONTINUOUS
 10
10.9988
 20
-0.4388
  0
VERTEX
  8
LAYER10
 62
     1
  6
CONTINUOUS
 10
10.9988
 20
-0.4385
  0
VERTEX
  8
LAYER10
 62
     1
  6
CONTINUOUS
 10
10.9988
 20
-0.4382
  0
VERTEX
  8
LAYER10
 62
     1
  6
CONTINUOUS
 10
10.9988
 20
-0.4380
  0
VERTEX
  8
LAYER10
 62
     1
  6
CONTINUOUS
 10
10.9987
 20
-0.4378
  0
VERTEX
  8
LAYER10
 62
     1
  6
CONTINUOUS
 10
10.9987
 20
-0.4376
  0
VERTEX
  8
LAYER10
 62
     1
  6
CONTINUOUS
 10
10.9987
 20
-0.4374
  0
VERTEX
  8
LAYER10
 62
     1
  6
CONTINUOUS
 10
10.9987
 20
-0.4373
  0
VERTEX
  8
LAYER10
 62
     1
  6
CONTINUOUS
 10
10.9987
 20
-0.4372
  0
VERTEX
  8
LAYER10
 62
     1
  6
CONTINUOUS
 10
10.9987
 20
-0.4371
  0
VERTEX
  8
LAYER10
 62
     1
  6
CONTINUOUS
 10
10.9987
 20
-0.4371
  0
VERTEX
  8
LAYER10
 62
     1
  6
CONTINUOUS
 10
10.9987
 20
-0.4371
  0
VERTEX
  8
LAYER10
 62
     1
  6
CONTINUOUS
 10
10.9987
 20
-0.4372
  0
VERTEX
  8
LAYER10
 62
     1
  6
CONTINUOUS
 10
10.9987
 20
-0.4372
  0
VERTEX
  8
LAYER10
 62
     1
  6
CONTINUOUS
 10
10.9987
 20
-0.4373
  0
VERTEX
  8
LAYER10
 62
     1
  6
CONTINUOUS
 10
10.9987
 20
-0.4374
  0
VERTEX
  8
LAYER10
 62
     1
  6
CONTINUOUS
 10
10.9987
 20
-0.4375
  0
VERTEX
  8
LAYER10
 62
     1
  6
CONTINUOUS
 10
10.9987
 20
-0.4376
  0
SEQEND
  8
LAYER10
  0
POLYLINE
  8
LAYER10
 62
     1
 66
     1
  6
CONTINUOUS
  0
VERTEX
  8
LAYER10
 62
     1
  6
CONTINUOUS
 10
10.9987
 20
-0.4376
  0
VERTEX
  8
LAYER10
 62
     1
  6
CONTINUOUS
 10
10.9987
 20
-0.4376
  0
VERTEX
  8
LAYER10
 62
     1
  6
CONTINUOUS
 10
10.9987
 20
-0.4376
  0
VERTEX
  8
LAYER10
 62
     1
  6
CONTINUOUS
 10
10.9987
 20
-0.4376
  0
VERTEX
  8
LAYER10
 62
     1
  6
CONTINUOUS
 10
10.9987
 20
-0.4376
  0
VERTEX
  8
LAYER10
 62
     1
  6
CONTINUOUS
 10
10.9987
 20
-0.4376
  0
VERTEX
  8
LAYER10
 62
     1
  6
CONTINUOUS
 10
10.9987
 20
-0.4376
  0
VERTEX
  8
LAYER10
 62
     1
  6
CONTINUOUS
 10
10.9987
 20
-0.4376
  0
VERTEX
  8
LAYER10
 62
     1
  6
CONTINUOUS
 10
10.9987
 20
-0.4376
  0
VERTEX
  8
LAYER10
 62
     1
  6
CONTINUOUS
 10
10.9987
 20
-0.4376
  0
VERTEX
  8
LAYER10
 62
     1
  6
CONTINUOUS
 10
10.9987
 20
-0.4376
  0
VERTEX
  8
LAYER10
 62
     1
  6
CONTINUOUS
 10
10.9987
 20
-0.4376
  0
VERTEX
  8
LAYER10
 62
     1
  6
CONTINUOUS
 10
10.9987
 20
-0.4376
  0
VERTEX
  8
LAYER10
 62
     1
  6
CONTINUOUS
 10
10.9987
 20
-0.4376
  0
VERTEX
  8
LAYER10
 62
     1
  6
CONTINUOUS
 10
10.9987
 20
-0.4376
  0
VERTEX
  8
LAYER10
 62
     1
  6
CONTINUOUS
 10
10.9987
 20
-0.4376
  0
VERTEX
  8
LAYER10
 62
     1
  6
CONTINUOUS
 10
10.9987
 20
-0.4376
  0
VERTEX
  8
LAYER10
 62
     1
  6
CONTINUOUS
 10
10.9987
 20
-0.4376
  0
VERTEX
  8
LAYER10
 62
     1
  6
CONTINUOUS
 10
10.9987
 20
-0.4376
  0
VERTEX
  8
LAYER10
 62
     1
  6
CONTINUOUS
 10
10.9987
 20
-0.4376
  0
VERTEX
  8
LAYER10
 62
     1
  6
CONTINUOUS
 10
10.9987
 20
-0.4376
  0
VERTEX
  8
LAYER10
 62
     1
  6
CONTINUOUS
 10
10.9987
 20
-0.4376
  0
VERTEX
  8
LAYER10
 62
     1
  6
CONTINUOUS
 10
10.9987
 20
-0.4376
  0
VERTEX
  8
LAYER10
 62
     1
  6
CONTINUOUS
 10
10.9987
 20
-0.4376
  0
VERTEX
  8
LAYER10
 62
     1
  6
CONTINUOUS
 10
10.9987
 20
-0.4376
  0
SEQEND
  8
LAYER10
  0
POLYLINE
  8
LAYER10
 62
     1
 66
     1
  6
CONTINUOUS
  0
VERTEX
  8
LAYER10
 62
     1
  6
CONTINUOUS
 10
10.9987
 20
-0.4376
  0
VERTEX
  8
LAYER10
 62
     1
  6
CONTINUOUS
 10
10.9987
 20
-0.4376
  0
VERTEX
  8
LAYER10
 62
     1
  6
CONTINUOUS
 10
10.9987
 20
-0.4376
  0
VERTEX
  8
LAYER10
 62
     1
  6
CONTINUOUS
 10
10.9987
 20
-0.4376
  0
VERTEX
  8
LAYER10
 62
     1
  6
CONTINUOUS
 10
10.9987
 20
-0.4376
  0
VERTEX
  8
LAYER10
 62
     1
  6
CONTINUOUS
 10
10.9987
 20
-0.4376
  0
VERTEX
  8
LAYER10
 62
     1
  6
CONTINUOUS
 10
10.9987
 20
-0.4376
  0
VERTEX
  8
LAYER10
 62
     1
  6
CONTINUOUS
 10
10.9987
 20
-0.4376
  0
VERTEX
  8
LAYER10
 62
     1
  6
CONTINUOUS
 10
10.9987
 20
-0.4376
  0
VERTEX
  8
LAYER10
 62
     1
  6
CONTINUOUS
 10
10.9987
 20
-0.4376
  0
VERTEX
  8
LAYER10
 62
     1
  6
CONTINUOUS
 10
10.9987
 20
-0.4376
  0
VERTEX
  8
LAYER10
 62
     1
  6
CONTINUOUS
 10
10.9987
 20
-0.4376
  0
VERTEX
  8
LAYER10
 62
     1
  6
CONTINUOUS
 10
10.9987
 20
-0.4376
  0
VERTEX
  8
LAYER10
 62
     1
  6
CONTINUOUS
 10
10.9987
 20
-0.4376
  0
VERTEX
  8
LAYER10
 62
     1
  6
CONTINUOUS
 10
10.9987
 20
-0.4376
  0
VERTEX
  8
LAYER10
 62
     1
  6
CONTINUOUS
 10
10.9987
 20
-0.4376
  0
VERTEX
  8
LAYER10
 62
     1
  6
CONTINUOUS
 10
10.9987
 20
-0.4376
  0
VERTEX
  8
LAYER10
 62
     1
  6
CONTINUOUS
 10
10.9987
 20
-0.4376
  0
VERTEX
  8
LAYER10
 62
     1
  6
CONTINUOUS
 10
10.9987
 20
-0.4376
  0
VERTEX
  8
LAYER10
 62
     1
  6
CONTINUOUS
 10
10.9987
 20
-0.4376
  0
VERTEX
  8
LAYER10
 62
     1
  6
CONTINUOUS
 10
10.9987
 20
-0.4376
  0
VERTEX
  8
LAYER10
 62
     1
  6
CONTINUOUS
 10
10.9987
 20
-0.4376
  0
VERTEX
  8
LAYER10
 62
     1
  6
CONTINUOUS
 10
10.9987
 20
-0.4376
  0
VERTEX
  8
LAYER10
 62
     1
  6
CONTINUOUS
 10
10.9987
 20
-0.4376
  0
VERTEX
  8
LAYER10
 62
     1
  6
CONTINUOUS
 10
10.9987
 20
-0.4376
  0
SEQEND
  8
LAYER10
  0
POLYLINE
  8
LAYER12
 62
     5
 66
     1
  6
CONTINUOUS
  0
VERTEX
  8
LAYER12
 62
     5
  6
CONTINUOUS
 10
10.0398
 20
-0.4393
  0
VERTEX
  8
LAYER12
 62
     5
  6
CONTINUOUS
 10
10.0398
 20
-0.4393
  0
SEQEND
  8
LAYER12
  0
POLYLINE
  8
LAYER12
 62
     5
 66
     1
  6
CONTINUOUS
  0
VERTEX
  8
LAYER12
 62
     5
  6
CONTINUOUS
 10
10.0398
 20
-0.4393
  0
VERTEX
  8
LAYER12
 62
     5
  6
CONTINUOUS
 10
10.0398
 20
-0.4393
  0
SEQEND
  8
LAYER12
  0
POLYLINE
  8
LAYER12
 62
     5
 66
     1
  6
CONTINUOUS
  0
VERTEX
  8
LAYER12
 62
     5
  6
CONTINUOUS
 10
10.0398
 20
-1.4221
  0
VERTEX
  8
LAYER12
 62
     5
  6
CONTINUOUS
 10
10.0398
 20
-1.4221
  0
SEQEND
  8
LAYER12
  0
POLYLINE
  8
LAYER12
 62
     5
 66
     1
  6
CONTINUOUS
  0
VERTEX
  8
LAYER12
 62
     5
  6
CONTINUOUS
 10
10.0398
 20
-1.4221
  0
VERTEX
  8
LAYER12
 62
     5
  6
CONTINUOUS
 10
10.0398
 20
-1.4221
  0
SEQEND
  8
LAYER12
  0
POLYLINE
  8
LAYER12
 62
     5
 66
     1
  6
CONTINUOUS
  0
VERTEX
  8
LAYER12
 62
     5
  6
CONTINUOUS
 10
11.0213
 20
-0.4411
  0
VERTEX
  8
LAYER12
 62
     5
  6
CONTINUOUS
 10
10.0428
 20
-0.4411
  0
SEQEND
  8
LAYER12
  0
POLYLINE
  8
LAYER12
 62
     5
 66
     1
  6
CONTINUOUS
  0
VERTEX
  8
LAYER12
 62
     5
  6
CONTINUOUS
 10
10.0388
 20
-1.4248
  0
VERTEX
  8
LAYER12
 62
     5
  6
CONTINUOUS
 10
10.0398
 20
-1.4248
  0
SEQEND
  8
LAYER12
  0
POLYLINE
  8
LAYER12
 62
     5
 66
     1
  6
CONTINUOUS
  0
VERTEX
  8
LAYER12
 62
     5
  6
CONTINUOUS
 10
10.0398
 20
-1.4248
  0
VERTEX
  8
LAYER12
 62
     5
  6
CONTINUOUS
 10
10.0428
 20
-1.4248
  0
SEQEND
  8
LAYER12
  0
POLYLINE
  8
LAYER12
 62
     5
 66
     1
  6
CONTINUOUS
  0
VERTEX
  8
LAYER12
 62
     5
  6
CONTINUOUS
 10
10.0428
 20
-1.4248
  0
VERTEX
  8
LAYER12
 62
     5
  6
CONTINUOUS
 10
11.0248
 20
-1.4248
  0
SEQEND
  8
LAYER12
  0
POLYLINE
  8
LAYER12
 62
     5
 66
     1
  6
CONTINUOUS
  0
VERTEX
  8
LAYER12
 62
     5
  6
CONTINUOUS
 10
10.0398
 20
-1.4221
  0
VERTEX
  8
LAYER12
 62
     5
  6
CONTINUOUS
 10
10.0398
 20
-1.4260
  0
SEQEND
  8
LAYER12
  0
POLYLINE
  8
LAYER12
 62
     5
 66
     1
  6
CONTINUOUS
  0
VERTEX
  8
LAYER12
 62
     5
  6
CONTINUOUS
 10
10.0398
 20
-1.4260
  0
VERTEX
  8
LAYER12
 62
     5
  6
CONTINUOUS
 10
10.0398
 20
-1.4262
  0
SEQEND
  8
LAYER12
  0
POLYLINE
  8
LAYER12
 62
     5
 66
     1
  6
CONTINUOUS
  0
VERTEX
  8
LAYER12
 62
     5
  6
CONTINUOUS
 10
11.0235
 20
-1.4262
  0
VERTEX
  8
LAYER12
 62
     5
  6
CONTINUOUS
 10
11.0235
 20
-0.4411
  0
SEQEND
  8
LAYER12
  0
POLYLINE
  8
LAYER12
 62
     5
 66
     1
  6
CONTINUOUS
  0
VERTEX
  8
LAYER12
 62
     5
  6
CONTINUOUS
 10
11.0235
 20
-0.4411
  0
VERTEX
  8
LAYER12
 62
     5
  6
CONTINUOUS
 10
11.0235
 20
-0.4376
  0
SEQEND
  8
LAYER12
  0
POLYLINE
  8
LAYER12
 62
     5
 66
     1
  6
CONTINUOUS
  0
VERTEX
  8
LAYER12
 62
     5
  6
CONTINUOUS
 10
11.0248
 20
-0.4411
  0
VERTEX
  8
LAYER12
 62
     5
  6
CONTINUOUS
 10
11.0213
 20
-0.4411
  0
SEQEND
  8
LAYER12
  0
POLYLINE
  8
LAYER12
 62
     5
 66
     1
  6
CONTINUOUS
  0
VERTEX
  8
LAYER12
 62
     5
  6
CONTINUOUS
 10
10.0428
 20
-0.4411
  0
VERTEX
  8
LAYER12
 62
     5
  6
CONTINUOUS
 10
10.0398
 20
-0.4411
  0
SEQEND
  8
LAYER12
  0
POLYLINE
  8
LAYER12
 62
     5
 66
     1
  6
CONTINUOUS
  0
VERTEX
  8
LAYER12
 62
     5
  6
CONTINUOUS
 10
10.0398
 20
-0.4411
  0
VERTEX
  8
LAYER12
 62
     5
  6
CONTINUOUS
 10
10.0388
 20
-0.4411
  0
SEQEND
  8
LAYER12
  0
POLYLINE
  8
LAYER12
 62
     5
 66
     1
  6
CONTINUOUS
  0
VERTEX
  8
LAYER12
 62
     5
  6
CONTINUOUS
 10
10.0398
 20
-0.4393
  0
VERTEX
  8
LAYER12
 62
     5
  6
CONTINUOUS
 10
10.0398
 20
-0.4411
  0
SEQEND
  8
LAYER12
  0
POLYLINE
  8
LAYER12
 62
     5
 66
     1
  6
CONTINUOUS
  0
VERTEX
  8
LAYER12
 62
     5
  6
CONTINUOUS
 10
10.0398
 20
-0.4411
  0
VERTEX
  8
LAYER12
 62
     5
  6
CONTINUOUS
 10
10.0398
 20
-1.4191
  0
SEQEND
  8
LAYER12
  0
POLYLINE
  8
LAYER12
 62
     5
 66
     1
  6
CONTINUOUS
  0
VERTEX
  8
LAYER12
 62
     5
  6
CONTINUOUS
 10
10.0398
 20
-1.4191
  0
VERTEX
  8
LAYER12
 62
     5
  6
CONTINUOUS
 10
10.0398
 20
-1.4221
  0
SEQEND
  8
LAYER12
  0
POLYLINE
  8
LAYER12
 62
     5
 66
     1
  6
CONTINUOUS
  0
VERTEX
  8
LAYER12
 62
     5
  6
CONTINUOUS
 10
10.0398
 20
-0.4376
  0
VERTEX
  8
LAYER12
 62
     5
  6
CONTINUOUS
 10
10.0398
 20
-0.4393
  0
SEQEND
  8
LAYER12
  0
ENDSEC
  0
EOF
