  0
SECTION
  2
HEADER
  9
$ACADVER
  1
AC1004
  9
$EXTMIN
 10
11.0213
 20
-1.4266
  9
$EXTMAX
 10
12.0515
 20
-0.4376
  9
$LIMMIN
 10
11.0213
 20
-1.4266
  9
$LIMMAX
 10
12.0515
 20
-0.4376
  9
$INSBASE
 10
0.0
 20
0.0
  9
$VIEWCTR
 10
7.21903
 20
4.5
  9
$VIEWSIZE
 40
9.0
  9
$SNAPMODE
 70
     0
  9
$SNAPUNIT
 10
1.0
 20
1.0
  9
$SNAPBASE
 10
0.0
 20
0.0
  9
$SNAPANG
 50
0.0
  9
$SNAPSTYLE
 70
     0
  9
$SNAPISOPAIR
 70
     0
  9
$GRIDMODE
 70
     0
  9
$GRIDUNIT
 10
0.0
 20
0.0
  9
$ORTHOMODE
 70
     0
  9
$REGENMODE
 70
     1
  9
$FILLMODE
 70
     1
  9
$QTEXTMODE
 70
     0
  9
$DRAGMODE
 70
     2
  9
$LTSCALE
 40
1.0
  9
$OSMODE
 70
     0
  9
$ATTMODE
 70
     1
  9
$TEXTSIZE
 40
0.2
  9
$TRACEWID
 40
0.05
  9
$TEXTSTYLE
  7
STANDARD
  9
$CLAYER
  8
0
  9
$CELTYPE
  6
BYLAYER
  9
$CECOLOR
 62
   256
  9
$DIMSCALE
 40
1.0
  9
$DIMASZ
 40
0.18
  9
$DIMEXO
 40
0.0625
  9
$DIMDLI
 40
0.38
  9
$DIMRND
 40
0.0
  9
$DIMDLE
 40
0.0
  9
$DIMEXE
 40
0.18
  9
$DIMTP
 40
0.0
  9
$DIMTM
 40
0.0
  9
$DIMTXT
 40
0.18
  9
$DIMCEN
 40
0.09
  9
$DIMTSZ
 40
0.0
  9
$DIMTOL
 70
     0
  9
$DIMLIM
 70
     0
  9
$DIMTIH
 70
     1
  9
$DIMTOH
 70
     1
  9
$DIMSE1
 70
     0
  9
$DIMSE2
 70
     0
  9
$DIMTAD
 70
     0
  9
$DIMZIN
 70
     0
  9
$DIMBLK
  1

  9
$DIMASO
 70
     1
  9
$DIMSHO
 70
     0
  9
$DIMPOST
  1

  9
$DIMAPOST
  1

  9
$DIMALT
 70
     0
  9
$DIMALTD
 70
     2
  9
$DIMALTF
 40
25.4
  9
$DIMLFAC
 40
1.0
  9
$LUNITS
 70
     2
  9
$LUPREC
 70
     4
  9
$AXISMODE
 70
     0
  9
$AXISUNIT
 10
0.0
 20
0.0
  9
$SKETCHINC
 40
0.1
  9
$FILLETRAD
 40
0.0
  9
$AUNITS
 70
     0
  9
$AUPREC
 70
     0
  9
$MENU
  1
acad
  9
$ELEVATION
 40
0.0
  9
$THICKNESS
 40
0.0
  9
$VIEWDIR
 10
0.0
 20
0.0
 30
1.0
  9
$LIMCHECK
 70
     0
  9
$BLIPMODE
 70
     1
  9
$CHAMFERA
 40
0.0
  9
$CHAMFERB
 40
0.0
  9
$FASTZOOM
 70
     1
  9
$SKPOLY
 70
     0
  9
$TDCREATE
 40
2447222.5666886573
  9
$TDUPDATE
 40
2447222.5666886573
  9
$TDINDWG
 40
0.0000000000
  9
$TDUSRTIMER
 40
0.0000000000
  9
$USRTIMER
 70
     1
  9
$ANGBASE
 50
0.0
  9
$ANGDIR
 70
     0
  9
$PDMODE
 70
     0
  9
$PDSIZE
 40
0.0
  9
$PLINEWID
 40
0.0
  9
$COORDS
 70
     0
  9
$SPLFRAME
 70
     0
  9
$SPLINESEGS
 70
     8
  9
$ATTDIA
 70
     0
  9
$ATTREQ
 70
     1
  9
$USERI1
 70
     0
  9
$USERI2
 70
     0
  9
$USERI3
 70
     0
  9
$USERI4
 70
     0
  9
$USERI5
 70
     0
  9
$USERR1
 40
0.0
  9
$USERR2
 40
0.0
  9
$USERR3
 40
0.0
  9
$USERR4
 40
0.0
  9
$USERR5
 40
0.0
  0
ENDSEC
  0
SECTION
  2
TABLES
  0
TABLE
  2
LTYPE
 70
     13
  0
LTYPE
  2
CONTINUOUS
 70
    64
  3
Solid line
 72
    65
 73
     0
 40
0.0
  0
LTYPE
  2
DASHED
 70
    64
  3
__ __ __ __ __ __ __ __ __ __ __ __ __ __ __
 72
    65
 73
     2
 40
0.75
 49
0.5
 49
-0.25
  0
LTYPE
  2
HIDDEN
 70
    64
  3
_ _ _ _ _ _ _ _ _ _ _ _ _ _ _ _ _ _ _ _ _ _ _
 72
    65
 73
     2
 40
0.375
 49
0.25
 49
-0.125
  0
LTYPE
  2
CENTER
 70
    64
  3
____ _ ____ _ ____ _ ____ _ ____ _ ____ _ ____
 72
    65
 73
     4
 40
2.0
 49
1.25
 49
-0.25
 49
0.25
 49
-0.25
  0
LTYPE
  2
PHANTOM
 70
    64
  3
_____ _ _ _____ _ _ _____ _ _ _____ _ _ ____
 72
    65
 73
     6
 40
2.5
 49
1.25
 49
-0.25
 49
0.25
 49
-0.25
 49
0.25
 49
-0.25
  0
LTYPE
  2
DOT
 70
    64
  3
...............................................
 72
    65
 73
     2
 40
0.25
 49
0.0
 49
-0.25
  0
LTYPE
  2
DASHDOT
 70
    64
  3
__ . __ . __ . __ . __ . __ . __ . __ . __ . __
 72
    65
 73
     4
 40
1.0
 49
0.5
 49
-0.25
 49
0.0
 49
-0.25
  0
LTYPE
  2
BORDER
 70
    64
  3
__ __ . __ __ . __ __ . __ __ . __ __ . __ __
 72
    65
 73
     6
 40
1.75
 49
0.5
 49
-0.25
 49
0.5
 49
-0.25
 49
0.0
 49
-0.25
  0
LTYPE
  2
DIVIDE
 70
    64
  3
__ . . __ . . __ . . __ . . __ . . __ . . __
 72
    65
 73
     6
 40
1.25
 49
0.5
 49
-0.25
 49
0.0
 49
-0.25
 49
0.0
 49
-0.25
  0
LTYPE
  2
DCTYPE1
 70
    64
  3
__ . . __ . . __ . . __ . . __ . . __ . . __
 72
    65
 73
     8
 40
2.5
 49
0.5
 49
-0.25
 49
0.125
 49
-0.25
 49
0.25
 49
-0.25
 49
0.125
 49
-0.25
  0
LTYPE
  2
DCTYPE2
 70
    64
  3
__ . . __ . . __ . . __ . . __ . . __ . . __
 72
    65
 73
     6
 40
2.05
 49
1.0
 49
-0.3
 49
0.15
 49
-0.15
 49
0.15
 49
-0.3
  0
LTYPE
  2
DCTYPE3
 70
    64
  3
__ . . __ . . __ . . __ . . __ . . __ . . __
 72
    65
 73
     6
 40
2.5
 49
0.8
 49
-0.2
 49
0.8
 49
-0.2
 49
0.3
 49
-0.2
  0
LTYPE
  2
DCTYPE4
 70
    64
  3
__ . . __ . . __ . . __ . . __ . . __ . . __
 72
    65
 73
     10
 40
3.97
 49
1.75
 49
-0.3
 49
0.3
 49
-0.3
 49
0.06
 49
-0.3
 49
0.06
 49
-0.3
 49
0.3
 49
-0.3
  0
ENDTAB
  0
TABLE
  2
LAYER
 70
    153
  0
LAYER
  2
LAYER1
 70
 64
 62
     7
  6
CONTINUOUS
  0
LAYER
  2
LAYER10
 70
 64
 62
     1
  6
CONTINUOUS
  0
LAYER
  2
LAYER12
 70
 64
 62
     5
  6
CONTINUOUS
  0
ENDTAB
  0
ENDSEC
  0
SECTION
  2
BLOCKS
  0
ENDSEC
  0
SECTION
  2
ENTITIES
  0
CIRCLE
  8
LAYER1
 62
     7
  6
CONTINUOUS
 10
11.0564
 20
-1.3773
 40
0.0129
  0
CIRCLE
  8
LAYER1
 62
     7
  6
CONTINUOUS
 10
11.0919
 20
-1.3493
 40
0.0205
  0
CIRCLE
  8
LAYER1
 62
     7
  6
CONTINUOUS
 10
11.1503
 20
-1.3085
 40
0.0102
  0
CIRCLE
  8
LAYER1
 62
     7
  6
CONTINUOUS
 10
11.1908
 20
-1.2652
 40
0.0127
  0
CIRCLE
  8
LAYER1
 62
     7
  6
CONTINUOUS
 10
11.2390
 20
-1.2219
 40
0.0127
  0
CIRCLE
  8
LAYER1
 62
     7
  6
CONTINUOUS
 10
11.2896
 20
-1.1558
 40
0.0155
  0
CIRCLE
  8
LAYER1
 62
     7
  6
CONTINUOUS
 10
11.3326
 20
-1.0947
 40
0.0152
  0
CIRCLE
  8
LAYER1
 62
     7
  6
CONTINUOUS
 10
11.3808
 20
-1.0413
 40
0.0180
  0
CIRCLE
  8
LAYER1
 62
     7
  6
CONTINUOUS
 10
11.4214
 20
-1.0107
 40
0.0130
  0
CIRCLE
  8
LAYER1
 62
     7
  6
CONTINUOUS
 10
11.4594
 20
-0.9750
 40
0.0178
  0
CIRCLE
  8
LAYER1
 62
     7
  6
CONTINUOUS
 10
11.5100
 20
-0.9190
 40
0.0127
  0
CIRCLE
  8
LAYER1
 62
     7
  6
CONTINUOUS
 10
11.5557
 20
-0.8885
 40
0.0154
  0
CIRCLE
  8
LAYER1
 62
     7
  6
CONTINUOUS
 10
11.5835
 20
-0.8173
 40
0.0130
  0
CIRCLE
  8
LAYER1
 62
     7
  6
CONTINUOUS
 10
11.6646
 20
-0.7612
 40
0.0108
  0
CIRCLE
  8
LAYER1
 62
     7
  6
CONTINUOUS
 10
11.8494
 20
-0.5136
 40
0.0114
  0
CIRCLE
  8
LAYER1
 62
     7
  6
CONTINUOUS
 10
11.9363
 20
-0.4547
 40
0.0077
  0
POLYLINE
  8
LAYER10
 62
     1
 66
     1
  6
CONTINUOUS
  0
VERTEX
  8
LAYER10
 62
     1
  6
CONTINUOUS
 10
11.0248
 20
-0.4967
  0
VERTEX
  8
LAYER10
 62
     1
  6
CONTINUOUS
 10
11.0245
 20
-0.4962
  0
VERTEX
  8
LAYER10
 62
     1
  6
CONTINUOUS
 10
11.0243
 20
-0.4958
  0
VERTEX
  8
LAYER10
 62
     1
  6
CONTINUOUS
 10
11.0240
 20
-0.4953
  0
VERTEX
  8
LAYER10
 62
     1
  6
CONTINUOUS
 10
11.0237
 20
-0.4948
  0
VERTEX
  8
LAYER10
 62
     1
  6
CONTINUOUS
 10
11.0234
 20
-0.4944
  0
VERTEX
  8
LAYER10
 62
     1
  6
CONTINUOUS
 10
11.0232
 20
-0.4940
  0
VERTEX
  8
LAYER10
 62
     1
  6
CONTINUOUS
 10
11.0230
 20
-0.4936
  0
VERTEX
  8
LAYER10
 62
     1
  6
CONTINUOUS
 10
11.0228
 20
-0.4932
  0
VERTEX
  8
LAYER10
 62
     1
  6
CONTINUOUS
 10
11.0226
 20
-0.4929
  0
VERTEX
  8
LAYER10
 62
     1
  6
CONTINUOUS
 10
11.0224
 20
-0.4926
  0
VERTEX
  8
LAYER10
 62
     1
  6
CONTINUOUS
 10
11.0222
 20
-0.4924
  0
VERTEX
  8
LAYER10
 62
     1
  6
CONTINUOUS
 10
11.0221
 20
-0.4922
  0
VERTEX
  8
LAYER10
 62
     1
  6
CONTINUOUS
 10
11.0220
 20
-0.4920
  0
VERTEX
  8
LAYER10
 62
     1
  6
CONTINUOUS
 10
11.0220
 20
-0.4919
  0
VERTEX
  8
LAYER10
 62
     1
  6
CONTINUOUS
 10
11.0220
 20
-0.4919
  0
VERTEX
  8
LAYER10
 62
     1
  6
CONTINUOUS
 10
11.0219
 20
-0.4918
  0
VERTEX
  8
LAYER10
 62
     1
  6
CONTINUOUS
 10
11.0219
 20
-0.4918
  0
VERTEX
  8
LAYER10
 62
     1
  6
CONTINUOUS
 10
11.0219
 20
-0.4918
  0
VERTEX
  8
LAYER10
 62
     1
  6
CONTINUOUS
 10
11.0219
 20
-0.4919
  0
VERTEX
  8
LAYER10
 62
     1
  6
CONTINUOUS
 10
11.0220
 20
-0.4919
  0
VERTEX
  8
LAYER10
 62
     1
  6
CONTINUOUS
 10
11.0220
 20
-0.4920
  0
VERTEX
  8
LAYER10
 62
     1
  6
CONTINUOUS
 10
11.0220
 20
-0.4920
  0
VERTEX
  8
LAYER10
 62
     1
  6
CONTINUOUS
 10
11.0221
 20
-0.4921
  0
VERTEX
  8
LAYER10
 62
     1
  6
CONTINUOUS
 10
11.0221
 20
-0.4922
  0
SEQEND
  8
LAYER10
  0
POLYLINE
  8
LAYER10
 62
     1
 66
     1
  6
CONTINUOUS
  0
VERTEX
  8
LAYER10
 62
     1
  6
CONTINUOUS
 10
11.0221
 20
-0.4922
  0
VERTEX
  8
LAYER10
 62
     1
  6
CONTINUOUS
 10
11.0221
 20
-0.4921
  0
VERTEX
  8
LAYER10
 62
     1
  6
CONTINUOUS
 10
11.0220
 20
-0.4920
  0
VERTEX
  8
LAYER10
 62
     1
  6
CONTINUOUS
 10
11.0219
 20
-0.4919
  0
VERTEX
  8
LAYER10
 62
     1
  6
CONTINUOUS
 10
11.0219
 20
-0.4918
  0
VERTEX
  8
LAYER10
 62
     1
  6
CONTINUOUS
 10
11.0218
 20
-0.4916
  0
VERTEX
  8
LAYER10
 62
     1
  6
CONTINUOUS
 10
11.0218
 20
-0.4915
  0
VERTEX
  8
LAYER10
 62
     1
  6
CONTINUOUS
 10
11.0217
 20
-0.4914
  0
VERTEX
  8
LAYER10
 62
     1
  6
CONTINUOUS
 10
11.0216
 20
-0.4913
  0
VERTEX
  8
LAYER10
 62
     1
  6
CONTINUOUS
 10
11.0216
 20
-0.4912
  0
VERTEX
  8
LAYER10
 62
     1
  6
CONTINUOUS
 10
11.0215
 20
-0.4911
  0
VERTEX
  8
LAYER10
 62
     1
  6
CONTINUOUS
 10
11.0214
 20
-0.4910
  0
VERTEX
  8
LAYER10
 62
     1
  6
CONTINUOUS
 10
11.0214
 20
-0.4909
  0
VERTEX
  8
LAYER10
 62
     1
  6
CONTINUOUS
 10
11.0214
 20
-0.4909
  0
VERTEX
  8
LAYER10
 62
     1
  6
CONTINUOUS
 10
11.0214
 20
-0.4909
  0
VERTEX
  8
LAYER10
 62
     1
  6
CONTINUOUS
 10
11.0214
 20
-0.4909
  0
VERTEX
  8
LAYER10
 62
     1
  6
CONTINUOUS
 10
11.0213
 20
-0.4908
  0
VERTEX
  8
LAYER10
 62
     1
  6
CONTINUOUS
 10
11.0213
 20
-0.4908
  0
VERTEX
  8
LAYER10
 62
     1
  6
CONTINUOUS
 10
11.0213
 20
-0.4908
  0
VERTEX
  8
LAYER10
 62
     1
  6
CONTINUOUS
 10
11.0213
 20
-0.4908
  0
VERTEX
  8
LAYER10
 62
     1
  6
CONTINUOUS
 10
11.0213
 20
-0.4908
  0
VERTEX
  8
LAYER10
 62
     1
  6
CONTINUOUS
 10
11.0213
 20
-0.4908
  0
VERTEX
  8
LAYER10
 62
     1
  6
CONTINUOUS
 10
11.0213
 20
-0.4908
  0
VERTEX
  8
LAYER10
 62
     1
  6
CONTINUOUS
 10
11.0213
 20
-0.4907
  0
VERTEX
  8
LAYER10
 62
     1
  6
CONTINUOUS
 10
11.0213
 20
-0.4907
  0
SEQEND
  8
LAYER10
  0
POLYLINE
  8
LAYER10
 62
     1
 66
     1
  6
CONTINUOUS
  0
VERTEX
  8
LAYER10
 62
     1
  6
CONTINUOUS
 10
11.1595
 20
-0.4395
  0
VERTEX
  8
LAYER10
 62
     1
  6
CONTINUOUS
 10
11.1595
 20
-0.4395
  0
VERTEX
  8
LAYER10
 62
     1
  6
CONTINUOUS
 10
11.1595
 20
-0.4395
  0
VERTEX
  8
LAYER10
 62
     1
  6
CONTINUOUS
 10
11.1595
 20
-0.4395
  0
VERTEX
  8
LAYER10
 62
     1
  6
CONTINUOUS
 10
11.1595
 20
-0.4395
  0
VERTEX
  8
LAYER10
 62
     1
  6
CONTINUOUS
 10
11.1595
 20
-0.4395
  0
VERTEX
  8
LAYER10
 62
     1
  6
CONTINUOUS
 10
11.1595
 20
-0.4395
  0
VERTEX
  8
LAYER10
 62
     1
  6
CONTINUOUS
 10
11.1595
 20
-0.4395
  0
VERTEX
  8
LAYER10
 62
     1
  6
CONTINUOUS
 10
11.1595
 20
-0.4395
  0
VERTEX
  8
LAYER10
 62
     1
  6
CONTINUOUS
 10
11.1595
 20
-0.4395
  0
VERTEX
  8
LAYER10
 62
     1
  6
CONTINUOUS
 10
11.1595
 20
-0.4395
  0
VERTEX
  8
LAYER10
 62
     1
  6
CONTINUOUS
 10
11.1595
 20
-0.4395
  0
VERTEX
  8
LAYER10
 62
     1
  6
CONTINUOUS
 10
11.1595
 20
-0.4395
  0
VERTEX
  8
LAYER10
 62
     1
  6
CONTINUOUS
 10
11.1595
 20
-0.4395
  0
VERTEX
  8
LAYER10
 62
     1
  6
CONTINUOUS
 10
11.1595
 20
-0.4395
  0
VERTEX
  8
LAYER10
 62
     1
  6
CONTINUOUS
 10
11.1595
 20
-0.4395
  0
VERTEX
  8
LAYER10
 62
     1
  6
CONTINUOUS
 10
11.1595
 20
-0.4395
  0
VERTEX
  8
LAYER10
 62
     1
  6
CONTINUOUS
 10
11.1595
 20
-0.4395
  0
VERTEX
  8
LAYER10
 62
     1
  6
CONTINUOUS
 10
11.1595
 20
-0.4395
  0
VERTEX
  8
LAYER10
 62
     1
  6
CONTINUOUS
 10
11.1595
 20
-0.4395
  0
VERTEX
  8
LAYER10
 62
     1
  6
CONTINUOUS
 10
11.1595
 20
-0.4395
  0
VERTEX
  8
LAYER10
 62
     1
  6
CONTINUOUS
 10
11.1595
 20
-0.4395
  0
VERTEX
  8
LAYER10
 62
     1
  6
CONTINUOUS
 10
11.1595
 20
-0.4395
  0
VERTEX
  8
LAYER10
 62
     1
  6
CONTINUOUS
 10
11.1595
 20
-0.4395
  0
VERTEX
  8
LAYER10
 62
     1
  6
CONTINUOUS
 10
11.1595
 20
-0.4395
  0
SEQEND
  8
LAYER10
  0
POLYLINE
  8
LAYER10
 62
     1
 66
     1
  6
CONTINUOUS
  0
VERTEX
  8
LAYER10
 62
     1
  6
CONTINUOUS
 10
11.1595
 20
-0.4395
  0
VERTEX
  8
LAYER10
 62
     1
  6
CONTINUOUS
 10
11.1594
 20
-0.4399
  0
VERTEX
  8
LAYER10
 62
     1
  6
CONTINUOUS
 10
11.1593
 20
-0.4404
  0
VERTEX
  8
LAYER10
 62
     1
  6
CONTINUOUS
 10
11.1592
 20
-0.4408
  0
VERTEX
  8
LAYER10
 62
     1
  6
CONTINUOUS
 10
11.1591
 20
-0.4412
  0
VERTEX
  8
LAYER10
 62
     1
  6
CONTINUOUS
 10
11.1590
 20
-0.4417
  0
VERTEX
  8
LAYER10
 62
     1
  6
CONTINUOUS
 10
11.1589
 20
-0.4421
  0
VERTEX
  8
LAYER10
 62
     1
  6
CONTINUOUS
 10
11.1588
 20
-0.4426
  0
VERTEX
  8
LAYER10
 62
     1
  6
CONTINUOUS
 10
11.1587
 20
-0.4430
  0
VERTEX
  8
LAYER10
 62
     1
  6
CONTINUOUS
 10
11.1587
 20
-0.4435
  0
VERTEX
  8
LAYER10
 62
     1
  6
CONTINUOUS
 10
11.1586
 20
-0.4440
  0
VERTEX
  8
LAYER10
 62
     1
  6
CONTINUOUS
 10
11.1585
 20
-0.4444
  0
VERTEX
  8
LAYER10
 62
     1
  6
CONTINUOUS
 10
11.1584
 20
-0.4449
  0
VERTEX
  8
LAYER10
 62
     1
  6
CONTINUOUS
 10
11.1580
 20
-0.4488
  0
VERTEX
  8
LAYER10
 62
     1
  6
CONTINUOUS
 10
11.1578
 20
-0.4529
  0
VERTEX
  8
LAYER10
 62
     1
  6
CONTINUOUS
 10
11.1578
 20
-0.4571
  0
VERTEX
  8
LAYER10
 62
     1
  6
CONTINUOUS
 10
11.1579
 20
-0.4614
  0
VERTEX
  8
LAYER10
 62
     1
  6
CONTINUOUS
 10
11.1580
 20
-0.4656
  0
VERTEX
  8
LAYER10
 62
     1
  6
CONTINUOUS
 10
11.1581
 20
-0.4698
  0
VERTEX
  8
LAYER10
 62
     1
  6
CONTINUOUS
 10
11.1580
 20
-0.4738
  0
VERTEX
  8
LAYER10
 62
     1
  6
CONTINUOUS
 10
11.1578
 20
-0.4777
  0
VERTEX
  8
LAYER10
 62
     1
  6
CONTINUOUS
 10
11.1572
 20
-0.4814
  0
VERTEX
  8
LAYER10
 62
     1
  6
CONTINUOUS
 10
11.1564
 20
-0.4848
  0
VERTEX
  8
LAYER10
 62
     1
  6
CONTINUOUS
 10
11.1552
 20
-0.4879
  0
VERTEX
  8
LAYER10
 62
     1
  6
CONTINUOUS
 10
11.1535
 20
-0.4906
  0
VERTEX
  8
LAYER10
 62
     1
  6
CONTINUOUS
 10
11.1513
 20
-0.4929
  0
VERTEX
  8
LAYER10
 62
     1
  6
CONTINUOUS
 10
11.1486
 20
-0.4949
  0
VERTEX
  8
LAYER10
 62
     1
  6
CONTINUOUS
 10
11.1456
 20
-0.4965
  0
VERTEX
  8
LAYER10
 62
     1
  6
CONTINUOUS
 10
11.1422
 20
-0.4980
  0
VERTEX
  8
LAYER10
 62
     1
  6
CONTINUOUS
 10
11.1386
 20
-0.4994
  0
VERTEX
  8
LAYER10
 62
     1
  6
CONTINUOUS
 10
11.1349
 20
-0.5007
  0
VERTEX
  8
LAYER10
 62
     1
  6
CONTINUOUS
 10
11.1310
 20
-0.5020
  0
VERTEX
  8
LAYER10
 62
     1
  6
CONTINUOUS
 10
11.1271
 20
-0.5033
  0
VERTEX
  8
LAYER10
 62
     1
  6
CONTINUOUS
 10
11.1233
 20
-0.5049
  0
VERTEX
  8
LAYER10
 62
     1
  6
CONTINUOUS
 10
11.1196
 20
-0.5066
  0
VERTEX
  8
LAYER10
 62
     1
  6
CONTINUOUS
 10
11.1161
 20
-0.5086
  0
VERTEX
  8
LAYER10
 62
     1
  6
CONTINUOUS
 10
11.1129
 20
-0.5110
  0
VERTEX
  8
LAYER10
 62
     1
  6
CONTINUOUS
 10
11.1103
 20
-0.5134
  0
VERTEX
  8
LAYER10
 62
     1
  6
CONTINUOUS
 10
11.1080
 20
-0.5161
  0
VERTEX
  8
LAYER10
 62
     1
  6
CONTINUOUS
 10
11.1058
 20
-0.5189
  0
VERTEX
  8
LAYER10
 62
     1
  6
CONTINUOUS
 10
11.1038
 20
-0.5219
  0
VERTEX
  8
LAYER10
 62
     1
  6
CONTINUOUS
 10
11.1018
 20
-0.5249
  0
VERTEX
  8
LAYER10
 62
     1
  6
CONTINUOUS
 10
11.1000
 20
-0.5279
  0
VERTEX
  8
LAYER10
 62
     1
  6
CONTINUOUS
 10
11.0981
 20
-0.5308
  0
VERTEX
  8
LAYER10
 62
     1
  6
CONTINUOUS
 10
11.0962
 20
-0.5336
  0
VERTEX
  8
LAYER10
 62
     1
  6
CONTINUOUS
 10
11.0942
 20
-0.5361
  0
VERTEX
  8
LAYER10
 62
     1
  6
CONTINUOUS
 10
11.0922
 20
-0.5383
  0
VERTEX
  8
LAYER10
 62
     1
  6
CONTINUOUS
 10
11.0899
 20
-0.5401
  0
VERTEX
  8
LAYER10
 62
     1
  6
CONTINUOUS
 10
11.0875
 20
-0.5416
  0
VERTEX
  8
LAYER10
 62
     1
  6
CONTINUOUS
 10
11.0846
 20
-0.5425
  0
VERTEX
  8
LAYER10
 62
     1
  6
CONTINUOUS
 10
11.0815
 20
-0.5430
  0
VERTEX
  8
LAYER10
 62
     1
  6
CONTINUOUS
 10
11.0782
 20
-0.5429
  0
VERTEX
  8
LAYER10
 62
     1
  6
CONTINUOUS
 10
11.0747
 20
-0.5423
  0
VERTEX
  8
LAYER10
 62
     1
  6
CONTINUOUS
 10
11.0712
 20
-0.5413
  0
VERTEX
  8
LAYER10
 62
     1
  6
CONTINUOUS
 10
11.0675
 20
-0.5400
  0
VERTEX
  8
LAYER10
 62
     1
  6
CONTINUOUS
 10
11.0639
 20
-0.5383
  0
VERTEX
  8
LAYER10
 62
     1
  6
CONTINUOUS
 10
11.0603
 20
-0.5363
  0
VERTEX
  8
LAYER10
 62
     1
  6
CONTINUOUS
 10
11.0567
 20
-0.5341
  0
VERTEX
  8
LAYER10
 62
     1
  6
CONTINUOUS
 10
11.0533
 20
-0.5316
  0
VERTEX
  8
LAYER10
 62
     1
  6
CONTINUOUS
 10
11.0500
 20
-0.5291
  0
VERTEX
  8
LAYER10
 62
     1
  6
CONTINUOUS
 10
11.0469
 20
-0.5264
  0
VERTEX
  8
LAYER10
 62
     1
  6
CONTINUOUS
 10
11.0444
 20
-0.5241
  0
VERTEX
  8
LAYER10
 62
     1
  6
CONTINUOUS
 10
11.0421
 20
-0.5217
  0
VERTEX
  8
LAYER10
 62
     1
  6
CONTINUOUS
 10
11.0400
 20
-0.5193
  0
VERTEX
  8
LAYER10
 62
     1
  6
CONTINUOUS
 10
11.0380
 20
-0.5169
  0
VERTEX
  8
LAYER10
 62
     1
  6
CONTINUOUS
 10
11.0361
 20
-0.5144
  0
VERTEX
  8
LAYER10
 62
     1
  6
CONTINUOUS
 10
11.0343
 20
-0.5119
  0
VERTEX
  8
LAYER10
 62
     1
  6
CONTINUOUS
 10
11.0326
 20
-0.5094
  0
VERTEX
  8
LAYER10
 62
     1
  6
CONTINUOUS
 10
11.0309
 20
-0.5069
  0
VERTEX
  8
LAYER10
 62
     1
  6
CONTINUOUS
 10
11.0293
 20
-0.5044
  0
VERTEX
  8
LAYER10
 62
     1
  6
CONTINUOUS
 10
11.0278
 20
-0.5018
  0
VERTEX
  8
LAYER10
 62
     1
  6
CONTINUOUS
 10
11.0263
 20
-0.4993
  0
VERTEX
  8
LAYER10
 62
     1
  6
CONTINUOUS
 10
11.0248
 20
-0.4967
  0
SEQEND
  8
LAYER10
  0
POLYLINE
  8
LAYER12
 62
     5
 66
     1
  6
CONTINUOUS
  0
VERTEX
  8
LAYER12
 62
     5
  6
CONTINUOUS
 10
11.0284
 20
-0.4411
  0
VERTEX
  8
LAYER12
 62
     5
  6
CONTINUOUS
 10
11.0248
 20
-0.4411
  0
SEQEND
  8
LAYER12
  0
POLYLINE
  8
LAYER12
 62
     5
 66
     1
  6
CONTINUOUS
  0
VERTEX
  8
LAYER12
 62
     5
  6
CONTINUOUS
 10
11.0248
 20
-1.4248
  0
VERTEX
  8
LAYER12
 62
     5
  6
CONTINUOUS
 10
11.0248
 20
-1.4248
  0
SEQEND
  8
LAYER12
  0
POLYLINE
  8
LAYER12
 62
     5
 66
     1
  6
CONTINUOUS
  0
VERTEX
  8
LAYER12
 62
     5
  6
CONTINUOUS
 10
11.0248
 20
-1.4248
  0
VERTEX
  8
LAYER12
 62
     5
  6
CONTINUOUS
 10
12.0465
 20
-1.4248
  0
SEQEND
  8
LAYER12
  0
POLYLINE
  8
LAYER12
 62
     5
 66
     1
  6
CONTINUOUS
  0
VERTEX
  8
LAYER12
 62
     5
  6
CONTINUOUS
 10
11.0235
 20
-1.4262
  0
VERTEX
  8
LAYER12
 62
     5
  6
CONTINUOUS
 10
11.0235
 20
-1.4226
  0
SEQEND
  8
LAYER12
  0
POLYLINE
  8
LAYER12
 62
     5
 66
     1
  6
CONTINUOUS
  0
VERTEX
  8
LAYER12
 62
     5
  6
CONTINUOUS
 10
11.0235
 20
-1.4226
  0
VERTEX
  8
LAYER12
 62
     5
  6
CONTINUOUS
 10
11.0235
 20
-0.4412
  0
SEQEND
  8
LAYER12
  0
POLYLINE
  8
LAYER12
 62
     5
 66
     1
  6
CONTINUOUS
  0
VERTEX
  8
LAYER12
 62
     5
  6
CONTINUOUS
 10
12.0473
 20
-0.4411
  0
VERTEX
  8
LAYER12
 62
     5
  6
CONTINUOUS
 10
11.0284
 20
-0.4411
  0
SEQEND
  8
LAYER12
  0
POLYLINE
  8
LAYER12
 62
     5
 66
     1
  6
CONTINUOUS
  0
VERTEX
  8
LAYER12
 62
     5
  6
CONTINUOUS
 10
12.0515
 20
-1.4248
  0
VERTEX
  8
LAYER12
 62
     5
  6
CONTINUOUS
 10
12.0465
 20
-1.4248
  0
SEQEND
  8
LAYER12
  0
POLYLINE
  8
LAYER12
 62
     5
 66
     1
  6
CONTINUOUS
  0
VERTEX
  8
LAYER12
 62
     5
  6
CONTINUOUS
 10
12.0465
 20
-1.4248
  0
VERTEX
  8
LAYER12
 62
     5
  6
CONTINUOUS
 10
12.0465
 20
-1.4266
  0
SEQEND
  8
LAYER12
  0
POLYLINE
  8
LAYER12
 62
     5
 66
     1
  6
CONTINUOUS
  0
VERTEX
  8
LAYER12
 62
     5
  6
CONTINUOUS
 10
11.0235
 20
-1.4266
  0
VERTEX
  8
LAYER12
 62
     5
  6
CONTINUOUS
 10
11.0235
 20
-1.4262
  0
SEQEND
  8
LAYER12
  0
POLYLINE
  8
LAYER12
 62
     5
 66
     1
  6
CONTINUOUS
  0
VERTEX
  8
LAYER12
 62
     5
  6
CONTINUOUS
 10
11.0221
 20
-1.4248
  0
VERTEX
  8
LAYER12
 62
     5
  6
CONTINUOUS
 10
11.0248
 20
-1.4248
  0
SEQEND
  8
LAYER12
  0
POLYLINE
  8
LAYER12
 62
     5
 66
     1
  6
CONTINUOUS
  0
VERTEX
  8
LAYER12
 62
     5
  6
CONTINUOUS
 10
12.0515
 20
-0.4411
  0
VERTEX
  8
LAYER12
 62
     5
  6
CONTINUOUS
 10
12.0473
 20
-0.4411
  0
SEQEND
  8
LAYER12
  0
POLYLINE
  8
LAYER12
 62
     5
 66
     1
  6
CONTINUOUS
  0
VERTEX
  8
LAYER12
 62
     5
  6
CONTINUOUS
 10
11.0235
 20
-0.4412
  0
VERTEX
  8
LAYER12
 62
     5
  6
CONTINUOUS
 10
11.0235
 20
-0.4395
  0
SEQEND
  8
LAYER12
  0
POLYLINE
  8
LAYER12
 62
     5
 66
     1
  6
CONTINUOUS
  0
VERTEX
  8
LAYER12
 62
     5
  6
CONTINUOUS
 10
11.0235
 20
-0.4395
  0
VERTEX
  8
LAYER12
 62
     5
  6
CONTINUOUS
 10
11.0235
 20
-0.4395
  0
SEQEND
  8
LAYER12
  0
POLYLINE
  8
LAYER12
 62
     5
 66
     1
  6
CONTINUOUS
  0
VERTEX
  8
LAYER12
 62
     5
  6
CONTINUOUS
 10
11.0235
 20
-0.4395
  0
VERTEX
  8
LAYER12
 62
     5
  6
CONTINUOUS
 10
11.0235
 20
-0.4395
  0
SEQEND
  8
LAYER12
  0
POLYLINE
  8
LAYER12
 62
     5
 66
     1
  6
CONTINUOUS
  0
VERTEX
  8
LAYER12
 62
     5
  6
CONTINUOUS
 10
11.0235
 20
-0.4395
  0
VERTEX
  8
LAYER12
 62
     5
  6
CONTINUOUS
 10
11.0235
 20
-0.4376
  0
SEQEND
  8
LAYER12
  0
POLYLINE
  8
LAYER12
 62
     5
 66
     1
  6
CONTINUOUS
  0
VERTEX
  8
LAYER12
 62
     5
  6
CONTINUOUS
 10
11.0248
 20
-0.4411
  0
VERTEX
  8
LAYER12
 62
     5
  6
CONTINUOUS
 10
11.0221
 20
-0.4411
  0
SEQEND
  8
LAYER12
  0
POLYLINE
  8
LAYER12
 62
     5
 66
     1
  6
CONTINUOUS
  0
VERTEX
  8
LAYER12
 62
     5
  6
CONTINUOUS
 10
11.0221
 20
-0.4411
  0
VERTEX
  8
LAYER12
 62
     5
  6
CONTINUOUS
 10
11.0213
 20
-0.4411
  0
SEQEND
  8
LAYER12
  0
POLYLINE
  8
LAYER12
 62
     5
 66
     1
  6
CONTINUOUS
  0
VERTEX
  8
LAYER12
 62
     5
  6
CONTINUOUS
 10
12.0465
 20
-0.4395
  0
VERTEX
  8
LAYER12
 62
     5
  6
CONTINUOUS
 10
12.0465
 20
-0.4395
  0
SEQEND
  8
LAYER12
  0
POLYLINE
  8
LAYER12
 62
     5
 66
     1
  6
CONTINUOUS
  0
VERTEX
  8
LAYER12
 62
     5
  6
CONTINUOUS
 10
12.0465
 20
-0.4395
  0
VERTEX
  8
LAYER12
 62
     5
  6
CONTINUOUS
 10
12.0465
 20
-0.4395
  0
SEQEND
  8
LAYER12
  0
POLYLINE
  8
LAYER12
 62
     5
 66
     1
  6
CONTINUOUS
  0
VERTEX
  8
LAYER12
 62
     5
  6
CONTINUOUS
 10
12.0465
 20
-0.4395
  0
VERTEX
  8
LAYER12
 62
     5
  6
CONTINUOUS
 10
12.0465
 20
-1.4248
  0
SEQEND
  8
LAYER12
  0
ENDSEC
  0
EOF
