  0
SECTION
  2
HEADER
  9
$ACADVER
  1
AC1004
  9
$EXTMIN
 10
9.0560
 20
-1.4260
  9
$EXTMAX
 10
10.0398
 20
-0.4393
  9
$LIMMIN
 10
9.0560
 20
-1.4260
  9
$LIMMAX
 10
10.0398
 20
-0.4393
  9
$INSBASE
 10
0.0
 20
0.0
  9
$VIEWCTR
 10
7.21903
 20
4.5
  9
$VIEWSIZE
 40
9.0
  9
$SNAPMODE
 70
     0
  9
$SNAPUNIT
 10
1.0
 20
1.0
  9
$SNAPBASE
 10
0.0
 20
0.0
  9
$SNAPANG
 50
0.0
  9
$SNAPSTYLE
 70
     0
  9
$SNAPISOPAIR
 70
     0
  9
$GRIDMODE
 70
     0
  9
$GRIDUNIT
 10
0.0
 20
0.0
  9
$ORTHOMODE
 70
     0
  9
$REGENMODE
 70
     1
  9
$FILLMODE
 70
     1
  9
$QTEXTMODE
 70
     0
  9
$DRAGMODE
 70
     2
  9
$LTSCALE
 40
1.0
  9
$OSMODE
 70
     0
  9
$ATTMODE
 70
     1
  9
$TEXTSIZE
 40
0.2
  9
$TRACEWID
 40
0.05
  9
$TEXTSTYLE
  7
STANDARD
  9
$CLAYER
  8
0
  9
$CELTYPE
  6
BYLAYER
  9
$CECOLOR
 62
   256
  9
$DIMSCALE
 40
1.0
  9
$DIMASZ
 40
0.18
  9
$DIMEXO
 40
0.0625
  9
$DIMDLI
 40
0.38
  9
$DIMRND
 40
0.0
  9
$DIMDLE
 40
0.0
  9
$DIMEXE
 40
0.18
  9
$DIMTP
 40
0.0
  9
$DIMTM
 40
0.0
  9
$DIMTXT
 40
0.18
  9
$DIMCEN
 40
0.09
  9
$DIMTSZ
 40
0.0
  9
$DIMTOL
 70
     0
  9
$DIMLIM
 70
     0
  9
$DIMTIH
 70
     1
  9
$DIMTOH
 70
     1
  9
$DIMSE1
 70
     0
  9
$DIMSE2
 70
     0
  9
$DIMTAD
 70
     0
  9
$DIMZIN
 70
     0
  9
$DIMBLK
  1

  9
$DIMASO
 70
     1
  9
$DIMSHO
 70
     0
  9
$DIMPOST
  1

  9
$DIMAPOST
  1

  9
$DIMALT
 70
     0
  9
$DIMALTD
 70
     2
  9
$DIMALTF
 40
25.4
  9
$DIMLFAC
 40
1.0
  9
$LUNITS
 70
     2
  9
$LUPREC
 70
     4
  9
$AXISMODE
 70
     0
  9
$AXISUNIT
 10
0.0
 20
0.0
  9
$SKETCHINC
 40
0.1
  9
$FILLETRAD
 40
0.0
  9
$AUNITS
 70
     0
  9
$AUPREC
 70
     0
  9
$MENU
  1
acad
  9
$ELEVATION
 40
0.0
  9
$THICKNESS
 40
0.0
  9
$VIEWDIR
 10
0.0
 20
0.0
 30
1.0
  9
$LIMCHECK
 70
     0
  9
$BLIPMODE
 70
     1
  9
$CHAMFERA
 40
0.0
  9
$CHAMFERB
 40
0.0
  9
$FASTZOOM
 70
     1
  9
$SKPOLY
 70
     0
  9
$TDCREATE
 40
2447222.5666886573
  9
$TDUPDATE
 40
2447222.5666886573
  9
$TDINDWG
 40
0.0000000000
  9
$TDUSRTIMER
 40
0.0000000000
  9
$USRTIMER
 70
     1
  9
$ANGBASE
 50
0.0
  9
$ANGDIR
 70
     0
  9
$PDMODE
 70
     0
  9
$PDSIZE
 40
0.0
  9
$PLINEWID
 40
0.0
  9
$COORDS
 70
     0
  9
$SPLFRAME
 70
     0
  9
$SPLINESEGS
 70
     8
  9
$ATTDIA
 70
     0
  9
$ATTREQ
 70
     1
  9
$USERI1
 70
     0
  9
$USERI2
 70
     0
  9
$USERI3
 70
     0
  9
$USERI4
 70
     0
  9
$USERI5
 70
     0
  9
$USERR1
 40
0.0
  9
$USERR2
 40
0.0
  9
$USERR3
 40
0.0
  9
$USERR4
 40
0.0
  9
$USERR5
 40
0.0
  0
ENDSEC
  0
SECTION
  2
TABLES
  0
TABLE
  2
LTYPE
 70
     13
  0
LTYPE
  2
CONTINUOUS
 70
    64
  3
Solid line
 72
    65
 73
     0
 40
0.0
  0
LTYPE
  2
DASHED
 70
    64
  3
__ __ __ __ __ __ __ __ __ __ __ __ __ __ __
 72
    65
 73
     2
 40
0.75
 49
0.5
 49
-0.25
  0
LTYPE
  2
HIDDEN
 70
    64
  3
_ _ _ _ _ _ _ _ _ _ _ _ _ _ _ _ _ _ _ _ _ _ _
 72
    65
 73
     2
 40
0.375
 49
0.25
 49
-0.125
  0
LTYPE
  2
CENTER
 70
    64
  3
____ _ ____ _ ____ _ ____ _ ____ _ ____ _ ____
 72
    65
 73
     4
 40
2.0
 49
1.25
 49
-0.25
 49
0.25
 49
-0.25
  0
LTYPE
  2
PHANTOM
 70
    64
  3
_____ _ _ _____ _ _ _____ _ _ _____ _ _ ____
 72
    65
 73
     6
 40
2.5
 49
1.25
 49
-0.25
 49
0.25
 49
-0.25
 49
0.25
 49
-0.25
  0
LTYPE
  2
DOT
 70
    64
  3
...............................................
 72
    65
 73
     2
 40
0.25
 49
0.0
 49
-0.25
  0
LTYPE
  2
DASHDOT
 70
    64
  3
__ . __ . __ . __ . __ . __ . __ . __ . __ . __
 72
    65
 73
     4
 40
1.0
 49
0.5
 49
-0.25
 49
0.0
 49
-0.25
  0
LTYPE
  2
BORDER
 70
    64
  3
__ __ . __ __ . __ __ . __ __ . __ __ . __ __
 72
    65
 73
     6
 40
1.75
 49
0.5
 49
-0.25
 49
0.5
 49
-0.25
 49
0.0
 49
-0.25
  0
LTYPE
  2
DIVIDE
 70
    64
  3
__ . . __ . . __ . . __ . . __ . . __ . . __
 72
    65
 73
     6
 40
1.25
 49
0.5
 49
-0.25
 49
0.0
 49
-0.25
 49
0.0
 49
-0.25
  0
LTYPE
  2
DCTYPE1
 70
    64
  3
__ . . __ . . __ . . __ . . __ . . __ . . __
 72
    65
 73
     8
 40
2.5
 49
0.5
 49
-0.25
 49
0.125
 49
-0.25
 49
0.25
 49
-0.25
 49
0.125
 49
-0.25
  0
LTYPE
  2
DCTYPE2
 70
    64
  3
__ . . __ . . __ . . __ . . __ . . __ . . __
 72
    65
 73
     6
 40
2.05
 49
1.0
 49
-0.3
 49
0.15
 49
-0.15
 49
0.15
 49
-0.3
  0
LTYPE
  2
DCTYPE3
 70
    64
  3
__ . . __ . . __ . . __ . . __ . . __ . . __
 72
    65
 73
     6
 40
2.5
 49
0.8
 49
-0.2
 49
0.8
 49
-0.2
 49
0.3
 49
-0.2
  0
LTYPE
  2
DCTYPE4
 70
    64
  3
__ . . __ . . __ . . __ . . __ . . __ . . __
 72
    65
 73
     10
 40
3.97
 49
1.75
 49
-0.3
 49
0.3
 49
-0.3
 49
0.06
 49
-0.3
 49
0.06
 49
-0.3
 49
0.3
 49
-0.3
  0
ENDTAB
  0
TABLE
  2
LAYER
 70
    153
  0
LAYER
  2
LAYER1
 70
 64
 62
     7
  6
CONTINUOUS
  0
LAYER
  2
LAYER10
 70
 64
 62
     1
  6
CONTINUOUS
  0
LAYER
  2
LAYER12
 70
 64
 62
     5
  6
CONTINUOUS
  0
ENDTAB
  0
ENDSEC
  0
SECTION
  2
BLOCKS
  0
ENDSEC
  0
SECTION
  2
ENTITIES
  0
CIRCLE
  8
LAYER1
 62
     7
  6
CONTINUOUS
 10
9.2815
 20
-0.4974
 40
0.0180
  0
CIRCLE
  8
LAYER1
 62
     7
  6
CONTINUOUS
 10
9.2310
 20
-0.6017
 40
0.0198
  0
CIRCLE
  8
LAYER1
 62
     7
  6
CONTINUOUS
 10
9.2192
 20
-1.0107
 40
0.0137
  0
CIRCLE
  8
LAYER1
 62
     7
  6
CONTINUOUS
 10
9.1259
 20
-1.2979
 40
0.0127
  0
CIRCLE
  8
LAYER1
 62
     7
  6
CONTINUOUS
 10
9.7201
 20
-1.2584
 40
0.0180
  0
CIRCLE
  8
LAYER1
 62
     7
  6
CONTINUOUS
 10
9.8743
 20
-0.9406
 40
0.0161
  0
CIRCLE
  8
LAYER1
 62
     7
  6
CONTINUOUS
 10
9.5764
 20
-0.6111
 40
0.0229
  0
CIRCLE
  8
LAYER1
 62
     7
  6
CONTINUOUS
 10
9.6374
 20
-0.6084
 40
0.0180
  0
CIRCLE
  8
LAYER1
 62
     7
  6
CONTINUOUS
 10
9.8280
 20
-0.6638
 40
0.0178
  0
CIRCLE
  8
LAYER1
 62
     7
  6
CONTINUOUS
 10
9.8886
 20
-0.4960
 40
0.0185
  0
CIRCLE
  8
LAYER1
 62
     7
  6
CONTINUOUS
 10
9.8861
 20
-0.5469
 40
0.0193
  0
ARC
  8
LAYER1
 62
     7
  6
CONTINUOUS
 10
9.6774
 20
-1.4414
 40
0.0432
 50
90.1253
 51
153.4197
  0
ARC
  8
LAYER1
 62
     7
  6
CONTINUOUS
 10
9.6774
 20
-1.4414
 40
0.0432
 50
26.5813
 51
90.1253
  0
ARC
  8
LAYER1
 62
     7
  6
CONTINUOUS
 10
9.6774
 20
-1.4414
 40
0.0432
 50
153.4198
 51
159.0999
  0
ARC
  8
LAYER1
 62
     7
  6
CONTINUOUS
 10
9.6774
 20
-1.4414
 40
0.0432
 50
20.9004
 51
26.5810
  0
POLYLINE
  8
LAYER10
 62
     1
 66
     1
  6
CONTINUOUS
  0
VERTEX
  8
LAYER10
 62
     1
  6
CONTINUOUS
 10
9.4175
 20
-1.0940
  0
VERTEX
  8
LAYER10
 62
     1
  6
CONTINUOUS
 10
9.4158
 20
-1.0961
  0
VERTEX
  8
LAYER10
 62
     1
  6
CONTINUOUS
 10
9.4134
 20
-1.0978
  0
VERTEX
  8
LAYER10
 62
     1
  6
CONTINUOUS
 10
9.4104
 20
-1.0990
  0
VERTEX
  8
LAYER10
 62
     1
  6
CONTINUOUS
 10
9.4069
 20
-1.0999
  0
VERTEX
  8
LAYER10
 62
     1
  6
CONTINUOUS
 10
9.4030
 20
-1.1006
  0
VERTEX
  8
LAYER10
 62
     1
  6
CONTINUOUS
 10
9.3988
 20
-1.1010
  0
VERTEX
  8
LAYER10
 62
     1
  6
CONTINUOUS
 10
9.3944
 20
-1.1014
  0
VERTEX
  8
LAYER10
 62
     1
  6
CONTINUOUS
 10
9.3898
 20
-1.1017
  0
VERTEX
  8
LAYER10
 62
     1
  6
CONTINUOUS
 10
9.3852
 20
-1.1021
  0
VERTEX
  8
LAYER10
 62
     1
  6
CONTINUOUS
 10
9.3806
 20
-1.1026
  0
VERTEX
  8
LAYER10
 62
     1
  6
CONTINUOUS
 10
9.3761
 20
-1.1033
  0
VERTEX
  8
LAYER10
 62
     1
  6
CONTINUOUS
 10
9.3718
 20
-1.1043
  0
VERTEX
  8
LAYER10
 62
     1
  6
CONTINUOUS
 10
9.3689
 20
-1.1052
  0
VERTEX
  8
LAYER10
 62
     1
  6
CONTINUOUS
 10
9.3661
 20
-1.1063
  0
VERTEX
  8
LAYER10
 62
     1
  6
CONTINUOUS
 10
9.3634
 20
-1.1075
  0
VERTEX
  8
LAYER10
 62
     1
  6
CONTINUOUS
 10
9.3608
 20
-1.1088
  0
VERTEX
  8
LAYER10
 62
     1
  6
CONTINUOUS
 10
9.3583
 20
-1.1101
  0
VERTEX
  8
LAYER10
 62
     1
  6
CONTINUOUS
 10
9.3558
 20
-1.1115
  0
VERTEX
  8
LAYER10
 62
     1
  6
CONTINUOUS
 10
9.3534
 20
-1.1130
  0
VERTEX
  8
LAYER10
 62
     1
  6
CONTINUOUS
 10
9.3510
 20
-1.1144
  0
VERTEX
  8
LAYER10
 62
     1
  6
CONTINUOUS
 10
9.3487
 20
-1.1158
  0
VERTEX
  8
LAYER10
 62
     1
  6
CONTINUOUS
 10
9.3463
 20
-1.1172
  0
VERTEX
  8
LAYER10
 62
     1
  6
CONTINUOUS
 10
9.3438
 20
-1.1184
  0
VERTEX
  8
LAYER10
 62
     1
  6
CONTINUOUS
 10
9.3414
 20
-1.1196
  0
VERTEX
  8
LAYER10
 62
     1
  6
CONTINUOUS
 10
9.3383
 20
-1.1208
  0
VERTEX
  8
LAYER10
 62
     1
  6
CONTINUOUS
 10
9.3351
 20
-1.1218
  0
VERTEX
  8
LAYER10
 62
     1
  6
CONTINUOUS
 10
9.3319
 20
-1.1227
  0
VERTEX
  8
LAYER10
 62
     1
  6
CONTINUOUS
 10
9.3285
 20
-1.1234
  0
VERTEX
  8
LAYER10
 62
     1
  6
CONTINUOUS
 10
9.3252
 20
-1.1239
  0
VERTEX
  8
LAYER10
 62
     1
  6
CONTINUOUS
 10
9.3217
 20
-1.1243
  0
VERTEX
  8
LAYER10
 62
     1
  6
CONTINUOUS
 10
9.3183
 20
-1.1246
  0
VERTEX
  8
LAYER10
 62
     1
  6
CONTINUOUS
 10
9.3148
 20
-1.1248
  0
VERTEX
  8
LAYER10
 62
     1
  6
CONTINUOUS
 10
9.3113
 20
-1.1249
  0
VERTEX
  8
LAYER10
 62
     1
  6
CONTINUOUS
 10
9.3077
 20
-1.1249
  0
VERTEX
  8
LAYER10
 62
     1
  6
CONTINUOUS
 10
9.3042
 20
-1.1249
  0
VERTEX
  8
LAYER10
 62
     1
  6
CONTINUOUS
 10
9.3007
 20
-1.1248
  0
VERTEX
  8
LAYER10
 62
     1
  6
CONTINUOUS
 10
9.2968
 20
-1.1246
  0
VERTEX
  8
LAYER10
 62
     1
  6
CONTINUOUS
 10
9.2930
 20
-1.1244
  0
VERTEX
  8
LAYER10
 62
     1
  6
CONTINUOUS
 10
9.2891
 20
-1.1242
  0
VERTEX
  8
LAYER10
 62
     1
  6
CONTINUOUS
 10
9.2853
 20
-1.1239
  0
VERTEX
  8
LAYER10
 62
     1
  6
CONTINUOUS
 10
9.2815
 20
-1.1235
  0
VERTEX
  8
LAYER10
 62
     1
  6
CONTINUOUS
 10
9.2777
 20
-1.1231
  0
VERTEX
  8
LAYER10
 62
     1
  6
CONTINUOUS
 10
9.2739
 20
-1.1227
  0
VERTEX
  8
LAYER10
 62
     1
  6
CONTINUOUS
 10
9.2702
 20
-1.1222
  0
VERTEX
  8
LAYER10
 62
     1
  6
CONTINUOUS
 10
9.2664
 20
-1.1217
  0
VERTEX
  8
LAYER10
 62
     1
  6
CONTINUOUS
 10
9.2626
 20
-1.1211
  0
VERTEX
  8
LAYER10
 62
     1
  6
CONTINUOUS
 10
9.2588
 20
-1.1205
  0
VERTEX
  8
LAYER10
 62
     1
  6
CONTINUOUS
 10
9.2550
 20
-1.1198
  0
VERTEX
  8
LAYER10
 62
     1
  6
CONTINUOUS
 10
9.2523
 20
-1.1193
  0
VERTEX
  8
LAYER10
 62
     1
  6
CONTINUOUS
 10
9.2497
 20
-1.1188
  0
VERTEX
  8
LAYER10
 62
     1
  6
CONTINUOUS
 10
9.2470
 20
-1.1182
  0
VERTEX
  8
LAYER10
 62
     1
  6
CONTINUOUS
 10
9.2443
 20
-1.1176
  0
VERTEX
  8
LAYER10
 62
     1
  6
CONTINUOUS
 10
9.2417
 20
-1.1169
  0
VERTEX
  8
LAYER10
 62
     1
  6
CONTINUOUS
 10
9.2391
 20
-1.1161
  0
VERTEX
  8
LAYER10
 62
     1
  6
CONTINUOUS
 10
9.2365
 20
-1.1153
  0
VERTEX
  8
LAYER10
 62
     1
  6
CONTINUOUS
 10
9.2340
 20
-1.1144
  0
VERTEX
  8
LAYER10
 62
     1
  6
CONTINUOUS
 10
9.2315
 20
-1.1134
  0
VERTEX
  8
LAYER10
 62
     1
  6
CONTINUOUS
 10
9.2291
 20
-1.1123
  0
VERTEX
  8
LAYER10
 62
     1
  6
CONTINUOUS
 10
9.2268
 20
-1.1111
  0
VERTEX
  8
LAYER10
 62
     1
  6
CONTINUOUS
 10
9.2245
 20
-1.1097
  0
VERTEX
  8
LAYER10
 62
     1
  6
CONTINUOUS
 10
9.2225
 20
-1.1084
  0
VERTEX
  8
LAYER10
 62
     1
  6
CONTINUOUS
 10
9.2206
 20
-1.1070
  0
VERTEX
  8
LAYER10
 62
     1
  6
CONTINUOUS
 10
9.2188
 20
-1.1055
  0
VERTEX
  8
LAYER10
 62
     1
  6
CONTINUOUS
 10
9.2170
 20
-1.1039
  0
VERTEX
  8
LAYER10
 62
     1
  6
CONTINUOUS
 10
9.2152
 20
-1.1023
  0
VERTEX
  8
LAYER10
 62
     1
  6
CONTINUOUS
 10
9.2135
 20
-1.1006
  0
VERTEX
  8
LAYER10
 62
     1
  6
CONTINUOUS
 10
9.2119
 20
-1.0988
  0
VERTEX
  8
LAYER10
 62
     1
  6
CONTINUOUS
 10
9.2103
 20
-1.0970
  0
VERTEX
  8
LAYER10
 62
     1
  6
CONTINUOUS
 10
9.2087
 20
-1.0952
  0
VERTEX
  8
LAYER10
 62
     1
  6
CONTINUOUS
 10
9.2071
 20
-1.0933
  0
VERTEX
  8
LAYER10
 62
     1
  6
CONTINUOUS
 10
9.2056
 20
-1.0914
  0
VERTEX
  8
LAYER10
 62
     1
  6
CONTINUOUS
 10
9.2041
 20
-1.0894
  0
VERTEX
  8
LAYER10
 62
     1
  6
CONTINUOUS
 10
9.2017
 20
-1.0862
  0
VERTEX
  8
LAYER10
 62
     1
  6
CONTINUOUS
 10
9.1993
 20
-1.0829
  0
VERTEX
  8
LAYER10
 62
     1
  6
CONTINUOUS
 10
9.1970
 20
-1.0796
  0
VERTEX
  8
LAYER10
 62
     1
  6
CONTINUOUS
 10
9.1947
 20
-1.0763
  0
VERTEX
  8
LAYER10
 62
     1
  6
CONTINUOUS
 10
9.1925
 20
-1.0730
  0
VERTEX
  8
LAYER10
 62
     1
  6
CONTINUOUS
 10
9.1903
 20
-1.0696
  0
VERTEX
  8
LAYER10
 62
     1
  6
CONTINUOUS
 10
9.1882
 20
-1.0662
  0
VERTEX
  8
LAYER10
 62
     1
  6
CONTINUOUS
 10
9.1862
 20
-1.0628
  0
VERTEX
  8
LAYER10
 62
     1
  6
CONTINUOUS
 10
9.1842
 20
-1.0593
  0
VERTEX
  8
LAYER10
 62
     1
  6
CONTINUOUS
 10
9.1823
 20
-1.0559
  0
VERTEX
  8
LAYER10
 62
     1
  6
CONTINUOUS
 10
9.1804
 20
-1.0524
  0
VERTEX
  8
LAYER10
 62
     1
  6
CONTINUOUS
 10
9.1786
 20
-1.0489
  0
VERTEX
  8
LAYER10
 62
     1
  6
CONTINUOUS
 10
9.1775
 20
-1.0465
  0
VERTEX
  8
LAYER10
 62
     1
  6
CONTINUOUS
 10
9.1763
 20
-1.0441
  0
VERTEX
  8
LAYER10
 62
     1
  6
CONTINUOUS
 10
9.1752
 20
-1.0417
  0
VERTEX
  8
LAYER10
 62
     1
  6
CONTINUOUS
 10
9.1742
 20
-1.0393
  0
VERTEX
  8
LAYER10
 62
     1
  6
CONTINUOUS
 10
9.1732
 20
-1.0368
  0
VERTEX
  8
LAYER10
 62
     1
  6
CONTINUOUS
 10
9.1723
 20
-1.0343
  0
VERTEX
  8
LAYER10
 62
     1
  6
CONTINUOUS
 10
9.1714
 20
-1.0318
  0
VERTEX
  8
LAYER10
 62
     1
  6
CONTINUOUS
 10
9.1706
 20
-1.0292
  0
VERTEX
  8
LAYER10
 62
     1
  6
CONTINUOUS
 10
9.1699
 20
-1.0266
  0
VERTEX
  8
LAYER10
 62
     1
  6
CONTINUOUS
 10
9.1693
 20
-1.0239
  0
VERTEX
  8
LAYER10
 62
     1
  6
CONTINUOUS
 10
9.1688
 20
-1.0212
  0
VERTEX
  8
LAYER10
 62
     1
  6
CONTINUOUS
 10
9.1684
 20
-1.0184
  0
VERTEX
  8
LAYER10
 62
     1
  6
CONTINUOUS
 10
9.1681
 20
-1.0151
  0
VERTEX
  8
LAYER10
 62
     1
  6
CONTINUOUS
 10
9.1679
 20
-1.0117
  0
VERTEX
  8
LAYER10
 62
     1
  6
CONTINUOUS
 10
9.1679
 20
-1.0083
  0
VERTEX
  8
LAYER10
 62
     1
  6
CONTINUOUS
 10
9.1681
 20
-1.0050
  0
VERTEX
  8
LAYER10
 62
     1
  6
CONTINUOUS
 10
9.1685
 20
-1.0016
  0
VERTEX
  8
LAYER10
 62
     1
  6
CONTINUOUS
 10
9.1691
 20
-0.9984
  0
VERTEX
  8
LAYER10
 62
     1
  6
CONTINUOUS
 10
9.1700
 20
-0.9953
  0
VERTEX
  8
LAYER10
 62
     1
  6
CONTINUOUS
 10
9.1711
 20
-0.9923
  0
VERTEX
  8
LAYER10
 62
     1
  6
CONTINUOUS
 10
9.1725
 20
-0.9896
  0
VERTEX
  8
LAYER10
 62
     1
  6
CONTINUOUS
 10
9.1742
 20
-0.9870
  0
VERTEX
  8
LAYER10
 62
     1
  6
CONTINUOUS
 10
9.1762
 20
-0.9848
  0
VERTEX
  8
LAYER10
 62
     1
  6
CONTINUOUS
 10
9.1785
 20
-0.9828
  0
VERTEX
  8
LAYER10
 62
     1
  6
CONTINUOUS
 10
9.1801
 20
-0.9818
  0
VERTEX
  8
LAYER10
 62
     1
  6
CONTINUOUS
 10
9.1817
 20
-0.9808
  0
VERTEX
  8
LAYER10
 62
     1
  6
CONTINUOUS
 10
9.1835
 20
-0.9800
  0
VERTEX
  8
LAYER10
 62
     1
  6
CONTINUOUS
 10
9.1853
 20
-0.9792
  0
VERTEX
  8
LAYER10
 62
     1
  6
CONTINUOUS
 10
9.1871
 20
-0.9784
  0
VERTEX
  8
LAYER10
 62
     1
  6
CONTINUOUS
 10
9.1890
 20
-0.9777
  0
VERTEX
  8
LAYER10
 62
     1
  6
CONTINUOUS
 10
9.1908
 20
-0.9770
  0
VERTEX
  8
LAYER10
 62
     1
  6
CONTINUOUS
 10
9.1926
 20
-0.9762
  0
VERTEX
  8
LAYER10
 62
     1
  6
CONTINUOUS
 10
9.1943
 20
-0.9754
  0
VERTEX
  8
LAYER10
 62
     1
  6
CONTINUOUS
 10
9.1959
 20
-0.9746
  0
VERTEX
  8
LAYER10
 62
     1
  6
CONTINUOUS
 10
9.1974
 20
-0.9737
  0
VERTEX
  8
LAYER10
 62
     1
  6
CONTINUOUS
 10
9.1988
 20
-0.9726
  0
VERTEX
  8
LAYER10
 62
     1
  6
CONTINUOUS
 10
9.2007
 20
-0.9706
  0
VERTEX
  8
LAYER10
 62
     1
  6
CONTINUOUS
 10
9.2022
 20
-0.9684
  0
VERTEX
  8
LAYER10
 62
     1
  6
CONTINUOUS
 10
9.2034
 20
-0.9658
  0
VERTEX
  8
LAYER10
 62
     1
  6
CONTINUOUS
 10
9.2043
 20
-0.9631
  0
VERTEX
  8
LAYER10
 62
     1
  6
CONTINUOUS
 10
9.2050
 20
-0.9601
  0
VERTEX
  8
LAYER10
 62
     1
  6
CONTINUOUS
 10
9.2056
 20
-0.9570
  0
VERTEX
  8
LAYER10
 62
     1
  6
CONTINUOUS
 10
9.2061
 20
-0.9538
  0
VERTEX
  8
LAYER10
 62
     1
  6
CONTINUOUS
 10
9.2065
 20
-0.9505
  0
VERTEX
  8
LAYER10
 62
     1
  6
CONTINUOUS
 10
9.2069
 20
-0.9471
  0
VERTEX
  8
LAYER10
 62
     1
  6
CONTINUOUS
 10
9.2074
 20
-0.9437
  0
VERTEX
  8
LAYER10
 62
     1
  6
CONTINUOUS
 10
9.2081
 20
-0.9403
  0
VERTEX
  8
LAYER10
 62
     1
  6
CONTINUOUS
 10
9.2089
 20
-0.9370
  0
VERTEX
  8
LAYER10
 62
     1
  6
CONTINUOUS
 10
9.2097
 20
-0.9342
  0
VERTEX
  8
LAYER10
 62
     1
  6
CONTINUOUS
 10
9.2108
 20
-0.9314
  0
VERTEX
  8
LAYER10
 62
     1
  6
CONTINUOUS
 10
9.2120
 20
-0.9288
  0
VERTEX
  8
LAYER10
 62
     1
  6
CONTINUOUS
 10
9.2134
 20
-0.9263
  0
VERTEX
  8
LAYER10
 62
     1
  6
CONTINUOUS
 10
9.2149
 20
-0.9238
  0
VERTEX
  8
LAYER10
 62
     1
  6
CONTINUOUS
 10
9.2166
 20
-0.9216
  0
VERTEX
  8
LAYER10
 62
     1
  6
CONTINUOUS
 10
9.2184
 20
-0.9194
  0
VERTEX
  8
LAYER10
 62
     1
  6
CONTINUOUS
 10
9.2203
 20
-0.9175
  0
VERTEX
  8
LAYER10
 62
     1
  6
CONTINUOUS
 10
9.2224
 20
-0.9157
  0
VERTEX
  8
LAYER10
 62
     1
  6
CONTINUOUS
 10
9.2245
 20
-0.9141
  0
VERTEX
  8
LAYER10
 62
     1
  6
CONTINUOUS
 10
9.2268
 20
-0.9127
  0
VERTEX
  8
LAYER10
 62
     1
  6
CONTINUOUS
 10
9.2291
 20
-0.9116
  0
VERTEX
  8
LAYER10
 62
     1
  6
CONTINUOUS
 10
9.2318
 20
-0.9106
  0
VERTEX
  8
LAYER10
 62
     1
  6
CONTINUOUS
 10
9.2346
 20
-0.9098
  0
VERTEX
  8
LAYER10
 62
     1
  6
CONTINUOUS
 10
9.2375
 20
-0.9092
  0
VERTEX
  8
LAYER10
 62
     1
  6
CONTINUOUS
 10
9.2404
 20
-0.9088
  0
VERTEX
  8
LAYER10
 62
     1
  6
CONTINUOUS
 10
9.2434
 20
-0.9085
  0
VERTEX
  8
LAYER10
 62
     1
  6
CONTINUOUS
 10
9.2464
 20
-0.9083
  0
VERTEX
  8
LAYER10
 62
     1
  6
CONTINUOUS
 10
9.2494
 20
-0.9081
  0
VERTEX
  8
LAYER10
 62
     1
  6
CONTINUOUS
 10
9.2525
 20
-0.9079
  0
VERTEX
  8
LAYER10
 62
     1
  6
CONTINUOUS
 10
9.2556
 20
-0.9077
  0
VERTEX
  8
LAYER10
 62
     1
  6
CONTINUOUS
 10
9.2586
 20
-0.9074
  0
VERTEX
  8
LAYER10
 62
     1
  6
CONTINUOUS
 10
9.2617
 20
-0.9070
  0
VERTEX
  8
LAYER10
 62
     1
  6
CONTINUOUS
 10
9.2647
 20
-0.9064
  0
VERTEX
  8
LAYER10
 62
     1
  6
CONTINUOUS
 10
9.2664
 20
-0.9060
  0
VERTEX
  8
LAYER10
 62
     1
  6
CONTINUOUS
 10
9.2681
 20
-0.9055
  0
VERTEX
  8
LAYER10
 62
     1
  6
CONTINUOUS
 10
9.2698
 20
-0.9050
  0
VERTEX
  8
LAYER10
 62
     1
  6
CONTINUOUS
 10
9.2715
 20
-0.9045
  0
VERTEX
  8
LAYER10
 62
     1
  6
CONTINUOUS
 10
9.2732
 20
-0.9039
  0
VERTEX
  8
LAYER10
 62
     1
  6
CONTINUOUS
 10
9.2749
 20
-0.9034
  0
VERTEX
  8
LAYER10
 62
     1
  6
CONTINUOUS
 10
9.2766
 20
-0.9029
  0
VERTEX
  8
LAYER10
 62
     1
  6
CONTINUOUS
 10
9.2782
 20
-0.9024
  0
VERTEX
  8
LAYER10
 62
     1
  6
CONTINUOUS
 10
9.2799
 20
-0.9020
  0
VERTEX
  8
LAYER10
 62
     1
  6
CONTINUOUS
 10
9.2816
 20
-0.9017
  0
VERTEX
  8
LAYER10
 62
     1
  6
CONTINUOUS
 10
9.2833
 20
-0.9014
  0
VERTEX
  8
LAYER10
 62
     1
  6
CONTINUOUS
 10
9.2850
 20
-0.9013
  0
VERTEX
  8
LAYER10
 62
     1
  6
CONTINUOUS
 10
9.2875
 20
-0.9013
  0
VERTEX
  8
LAYER10
 62
     1
  6
CONTINUOUS
 10
9.2900
 20
-0.9015
  0
VERTEX
  8
LAYER10
 62
     1
  6
CONTINUOUS
 10
9.2926
 20
-0.9019
  0
VERTEX
  8
LAYER10
 62
     1
  6
CONTINUOUS
 10
9.2951
 20
-0.9024
  0
VERTEX
  8
LAYER10
 62
     1
  6
CONTINUOUS
 10
9.2977
 20
-0.9030
  0
VERTEX
  8
LAYER10
 62
     1
  6
CONTINUOUS
 10
9.3002
 20
-0.9037
  0
VERTEX
  8
LAYER10
 62
     1
  6
CONTINUOUS
 10
9.3028
 20
-0.9044
  0
VERTEX
  8
LAYER10
 62
     1
  6
CONTINUOUS
 10
9.3053
 20
-0.9050
  0
VERTEX
  8
LAYER10
 62
     1
  6
CONTINUOUS
 10
9.3079
 20
-0.9055
  0
VERTEX
  8
LAYER10
 62
     1
  6
CONTINUOUS
 10
9.3104
 20
-0.9060
  0
VERTEX
  8
LAYER10
 62
     1
  6
CONTINUOUS
 10
9.3130
 20
-0.9062
  0
VERTEX
  8
LAYER10
 62
     1
  6
CONTINUOUS
 10
9.3155
 20
-0.9063
  0
VERTEX
  8
LAYER10
 62
     1
  6
CONTINUOUS
 10
9.3176
 20
-0.9062
  0
VERTEX
  8
LAYER10
 62
     1
  6
CONTINUOUS
 10
9.3196
 20
-0.9059
  0
VERTEX
  8
LAYER10
 62
     1
  6
CONTINUOUS
 10
9.3217
 20
-0.9055
  0
VERTEX
  8
LAYER10
 62
     1
  6
CONTINUOUS
 10
9.3238
 20
-0.9050
  0
VERTEX
  8
LAYER10
 62
     1
  6
CONTINUOUS
 10
9.3259
 20
-0.9045
  0
VERTEX
  8
LAYER10
 62
     1
  6
CONTINUOUS
 10
9.3280
 20
-0.9039
  0
VERTEX
  8
LAYER10
 62
     1
  6
CONTINUOUS
 10
9.3301
 20
-0.9033
  0
VERTEX
  8
LAYER10
 62
     1
  6
CONTINUOUS
 10
9.3322
 20
-0.9027
  0
VERTEX
  8
LAYER10
 62
     1
  6
CONTINUOUS
 10
9.3343
 20
-0.9022
  0
VERTEX
  8
LAYER10
 62
     1
  6
CONTINUOUS
 10
9.3365
 20
-0.9017
  0
VERTEX
  8
LAYER10
 62
     1
  6
CONTINUOUS
 10
9.3386
 20
-0.9014
  0
VERTEX
  8
LAYER10
 62
     1
  6
CONTINUOUS
 10
9.3409
 20
-0.9012
  0
VERTEX
  8
LAYER10
 62
     1
  6
CONTINUOUS
 10
9.3432
 20
-0.9011
  0
VERTEX
  8
LAYER10
 62
     1
  6
CONTINUOUS
 10
9.3456
 20
-0.9012
  0
VERTEX
  8
LAYER10
 62
     1
  6
CONTINUOUS
 10
9.3480
 20
-0.9015
  0
VERTEX
  8
LAYER10
 62
     1
  6
CONTINUOUS
 10
9.3504
 20
-0.9020
  0
VERTEX
  8
LAYER10
 62
     1
  6
CONTINUOUS
 10
9.3527
 20
-0.9026
  0
VERTEX
  8
LAYER10
 62
     1
  6
CONTINUOUS
 10
9.3549
 20
-0.9034
  0
VERTEX
  8
LAYER10
 62
     1
  6
CONTINUOUS
 10
9.3571
 20
-0.9043
  0
VERTEX
  8
LAYER10
 62
     1
  6
CONTINUOUS
 10
9.3592
 20
-0.9054
  0
VERTEX
  8
LAYER10
 62
     1
  6
CONTINUOUS
 10
9.3612
 20
-0.9067
  0
VERTEX
  8
LAYER10
 62
     1
  6
CONTINUOUS
 10
9.3631
 20
-0.9081
  0
VERTEX
  8
LAYER10
 62
     1
  6
CONTINUOUS
 10
9.3648
 20
-0.9096
  0
VERTEX
  8
LAYER10
 62
     1
  6
CONTINUOUS
 10
9.3663
 20
-0.9113
  0
VERTEX
  8
LAYER10
 62
     1
  6
CONTINUOUS
 10
9.3674
 20
-0.9128
  0
VERTEX
  8
LAYER10
 62
     1
  6
CONTINUOUS
 10
9.3684
 20
-0.9143
  0
VERTEX
  8
LAYER10
 62
     1
  6
CONTINUOUS
 10
9.3693
 20
-0.9160
  0
VERTEX
  8
LAYER10
 62
     1
  6
CONTINUOUS
 10
9.3702
 20
-0.9177
  0
VERTEX
  8
LAYER10
 62
     1
  6
CONTINUOUS
 10
9.3710
 20
-0.9194
  0
VERTEX
  8
LAYER10
 62
     1
  6
CONTINUOUS
 10
9.3717
 20
-0.9212
  0
VERTEX
  8
LAYER10
 62
     1
  6
CONTINUOUS
 10
9.3724
 20
-0.9230
  0
VERTEX
  8
LAYER10
 62
     1
  6
CONTINUOUS
 10
9.3732
 20
-0.9247
  0
VERTEX
  8
LAYER10
 62
     1
  6
CONTINUOUS
 10
9.3739
 20
-0.9265
  0
VERTEX
  8
LAYER10
 62
     1
  6
CONTINUOUS
 10
9.3747
 20
-0.9282
  0
VERTEX
  8
LAYER10
 62
     1
  6
CONTINUOUS
 10
9.3756
 20
-0.9299
  0
VERTEX
  8
LAYER10
 62
     1
  6
CONTINUOUS
 10
9.3765
 20
-0.9316
  0
VERTEX
  8
LAYER10
 62
     1
  6
CONTINUOUS
 10
9.3778
 20
-0.9335
  0
VERTEX
  8
LAYER10
 62
     1
  6
CONTINUOUS
 10
9.3792
 20
-0.9354
  0
VERTEX
  8
LAYER10
 62
     1
  6
CONTINUOUS
 10
9.3808
 20
-0.9372
  0
VERTEX
  8
LAYER10
 62
     1
  6
CONTINUOUS
 10
9.3824
 20
-0.9390
  0
VERTEX
  8
LAYER10
 62
     1
  6
CONTINUOUS
 10
9.3841
 20
-0.9406
  0
VERTEX
  8
LAYER10
 62
     1
  6
CONTINUOUS
 10
9.3859
 20
-0.9423
  0
VERTEX
  8
LAYER10
 62
     1
  6
CONTINUOUS
 10
9.3877
 20
-0.9439
  0
VERTEX
  8
LAYER10
 62
     1
  6
CONTINUOUS
 10
9.3896
 20
-0.9454
  0
VERTEX
  8
LAYER10
 62
     1
  6
CONTINUOUS
 10
9.3914
 20
-0.9470
  0
VERTEX
  8
LAYER10
 62
     1
  6
CONTINUOUS
 10
9.3933
 20
-0.9486
  0
VERTEX
  8
LAYER10
 62
     1
  6
CONTINUOUS
 10
9.3951
 20
-0.9502
  0
VERTEX
  8
LAYER10
 62
     1
  6
CONTINUOUS
 10
9.3969
 20
-0.9518
  0
VERTEX
  8
LAYER10
 62
     1
  6
CONTINUOUS
 10
9.3990
 20
-0.9540
  0
VERTEX
  8
LAYER10
 62
     1
  6
CONTINUOUS
 10
9.4011
 20
-0.9562
  0
VERTEX
  8
LAYER10
 62
     1
  6
CONTINUOUS
 10
9.4030
 20
-0.9585
  0
VERTEX
  8
LAYER10
 62
     1
  6
CONTINUOUS
 10
9.4049
 20
-0.9609
  0
VERTEX
  8
LAYER10
 62
     1
  6
CONTINUOUS
 10
9.4067
 20
-0.9633
  0
VERTEX
  8
LAYER10
 62
     1
  6
CONTINUOUS
 10
9.4084
 20
-0.9658
  0
VERTEX
  8
LAYER10
 62
     1
  6
CONTINUOUS
 10
9.4100
 20
-0.9684
  0
VERTEX
  8
LAYER10
 62
     1
  6
CONTINUOUS
 10
9.4116
 20
-0.9711
  0
VERTEX
  8
LAYER10
 62
     1
  6
CONTINUOUS
 10
9.4131
 20
-0.9738
  0
VERTEX
  8
LAYER10
 62
     1
  6
CONTINUOUS
 10
9.4145
 20
-0.9765
  0
VERTEX
  8
LAYER10
 62
     1
  6
CONTINUOUS
 10
9.4159
 20
-0.9794
  0
VERTEX
  8
LAYER10
 62
     1
  6
CONTINUOUS
 10
9.4172
 20
-0.9823
  0
VERTEX
  8
LAYER10
 62
     1
  6
CONTINUOUS
 10
9.4182
 20
-0.9843
  0
VERTEX
  8
LAYER10
 62
     1
  6
CONTINUOUS
 10
9.4190
 20
-0.9864
  0
VERTEX
  8
LAYER10
 62
     1
  6
CONTINUOUS
 10
9.4198
 20
-0.9886
  0
VERTEX
  8
LAYER10
 62
     1
  6
CONTINUOUS
 10
9.4206
 20
-0.9907
  0
VERTEX
  8
LAYER10
 62
     1
  6
CONTINUOUS
 10
9.4213
 20
-0.9928
  0
VERTEX
  8
LAYER10
 62
     1
  6
CONTINUOUS
 10
9.4218
 20
-0.9950
  0
VERTEX
  8
LAYER10
 62
     1
  6
CONTINUOUS
 10
9.4223
 20
-0.9971
  0
VERTEX
  8
LAYER10
 62
     1
  6
CONTINUOUS
 10
9.4226
 20
-0.9993
  0
VERTEX
  8
LAYER10
 62
     1
  6
CONTINUOUS
 10
9.4228
 20
-1.0014
  0
VERTEX
  8
LAYER10
 62
     1
  6
CONTINUOUS
 10
9.4229
 20
-1.0035
  0
VERTEX
  8
LAYER10
 62
     1
  6
CONTINUOUS
 10
9.4227
 20
-1.0056
  0
VERTEX
  8
LAYER10
 62
     1
  6
CONTINUOUS
 10
9.4224
 20
-1.0077
  0
VERTEX
  8
LAYER10
 62
     1
  6
CONTINUOUS
 10
9.4216
 20
-1.0103
  0
VERTEX
  8
LAYER10
 62
     1
  6
CONTINUOUS
 10
9.4206
 20
-1.0129
  0
VERTEX
  8
LAYER10
 62
     1
  6
CONTINUOUS
 10
9.4193
 20
-1.0155
  0
VERTEX
  8
LAYER10
 62
     1
  6
CONTINUOUS
 10
9.4179
 20
-1.0181
  0
VERTEX
  8
LAYER10
 62
     1
  6
CONTINUOUS
 10
9.4164
 20
-1.0206
  0
VERTEX
  8
LAYER10
 62
     1
  6
CONTINUOUS
 10
9.4147
 20
-1.0231
  0
VERTEX
  8
LAYER10
 62
     1
  6
CONTINUOUS
 10
9.4131
 20
-1.0256
  0
VERTEX
  8
LAYER10
 62
     1
  6
CONTINUOUS
 10
9.4116
 20
-1.0281
  0
VERTEX
  8
LAYER10
 62
     1
  6
CONTINUOUS
 10
9.4102
 20
-1.0306
  0
VERTEX
  8
LAYER10
 62
     1
  6
CONTINUOUS
 10
9.4089
 20
-1.0331
  0
VERTEX
  8
LAYER10
 62
     1
  6
CONTINUOUS
 10
9.4079
 20
-1.0356
  0
VERTEX
  8
LAYER10
 62
     1
  6
CONTINUOUS
 10
9.4072
 20
-1.0382
  0
VERTEX
  8
LAYER10
 62
     1
  6
CONTINUOUS
 10
9.4069
 20
-1.0401
  0
VERTEX
  8
LAYER10
 62
     1
  6
CONTINUOUS
 10
9.4068
 20
-1.0421
  0
VERTEX
  8
LAYER10
 62
     1
  6
CONTINUOUS
 10
9.4069
 20
-1.0441
  0
VERTEX
  8
LAYER10
 62
     1
  6
CONTINUOUS
 10
9.4071
 20
-1.0462
  0
VERTEX
  8
LAYER10
 62
     1
  6
CONTINUOUS
 10
9.4074
 20
-1.0483
  0
VERTEX
  8
LAYER10
 62
     1
  6
CONTINUOUS
 10
9.4079
 20
-1.0504
  0
VERTEX
  8
LAYER10
 62
     1
  6
CONTINUOUS
 10
9.4085
 20
-1.0525
  0
VERTEX
  8
LAYER10
 62
     1
  6
CONTINUOUS
 10
9.4092
 20
-1.0546
  0
VERTEX
  8
LAYER10
 62
     1
  6
CONTINUOUS
 10
9.4099
 20
-1.0568
  0
VERTEX
  8
LAYER10
 62
     1
  6
CONTINUOUS
 10
9.4107
 20
-1.0590
  0
VERTEX
  8
LAYER10
 62
     1
  6
CONTINUOUS
 10
9.4115
 20
-1.0613
  0
VERTEX
  8
LAYER10
 62
     1
  6
CONTINUOUS
 10
9.4123
 20
-1.0636
  0
VERTEX
  8
LAYER10
 62
     1
  6
CONTINUOUS
 10
9.4134
 20
-1.0663
  0
VERTEX
  8
LAYER10
 62
     1
  6
CONTINUOUS
 10
9.4143
 20
-1.0691
  0
VERTEX
  8
LAYER10
 62
     1
  6
CONTINUOUS
 10
9.4153
 20
-1.0719
  0
VERTEX
  8
LAYER10
 62
     1
  6
CONTINUOUS
 10
9.4161
 20
-1.0747
  0
VERTEX
  8
LAYER10
 62
     1
  6
CONTINUOUS
 10
9.4169
 20
-1.0775
  0
VERTEX
  8
LAYER10
 62
     1
  6
CONTINUOUS
 10
9.4175
 20
-1.0802
  0
VERTEX
  8
LAYER10
 62
     1
  6
CONTINUOUS
 10
9.4180
 20
-1.0828
  0
VERTEX
  8
LAYER10
 62
     1
  6
CONTINUOUS
 10
9.4184
 20
-1.0853
  0
VERTEX
  8
LAYER10
 62
     1
  6
CONTINUOUS
 10
9.4185
 20
-1.0877
  0
VERTEX
  8
LAYER10
 62
     1
  6
CONTINUOUS
 10
9.4184
 20
-1.0900
  0
VERTEX
  8
LAYER10
 62
     1
  6
CONTINUOUS
 10
9.4181
 20
-1.0921
  0
VERTEX
  8
LAYER10
 62
     1
  6
CONTINUOUS
 10
9.4175
 20
-1.0940
  0
SEQEND
  8
LAYER10
  0
POLYLINE
  8
LAYER10
 62
     1
 66
     1
  6
CONTINUOUS
  0
VERTEX
  8
LAYER10
 62
     1
  6
CONTINUOUS
 10
9.0560
 20
-1.1602
  0
VERTEX
  8
LAYER10
 62
     1
  6
CONTINUOUS
 10
9.0560
 20
-1.1602
  0
VERTEX
  8
LAYER10
 62
     1
  6
CONTINUOUS
 10
9.0560
 20
-1.1602
  0
VERTEX
  8
LAYER10
 62
     1
  6
CONTINUOUS
 10
9.0560
 20
-1.1602
  0
VERTEX
  8
LAYER10
 62
     1
  6
CONTINUOUS
 10
9.0560
 20
-1.1602
  0
VERTEX
  8
LAYER10
 62
     1
  6
CONTINUOUS
 10
9.0560
 20
-1.1602
  0
VERTEX
  8
LAYER10
 62
     1
  6
CONTINUOUS
 10
9.0560
 20
-1.1602
  0
VERTEX
  8
LAYER10
 62
     1
  6
CONTINUOUS
 10
9.0560
 20
-1.1602
  0
VERTEX
  8
LAYER10
 62
     1
  6
CONTINUOUS
 10
9.0560
 20
-1.1602
  0
VERTEX
  8
LAYER10
 62
     1
  6
CONTINUOUS
 10
9.0560
 20
-1.1602
  0
VERTEX
  8
LAYER10
 62
     1
  6
CONTINUOUS
 10
9.0560
 20
-1.1602
  0
VERTEX
  8
LAYER10
 62
     1
  6
CONTINUOUS
 10
9.0560
 20
-1.1602
  0
VERTEX
  8
LAYER10
 62
     1
  6
CONTINUOUS
 10
9.0560
 20
-1.1602
  0
VERTEX
  8
LAYER10
 62
     1
  6
CONTINUOUS
 10
9.0560
 20
-1.1602
  0
VERTEX
  8
LAYER10
 62
     1
  6
CONTINUOUS
 10
9.0560
 20
-1.1602
  0
VERTEX
  8
LAYER10
 62
     1
  6
CONTINUOUS
 10
9.0560
 20
-1.1602
  0
VERTEX
  8
LAYER10
 62
     1
  6
CONTINUOUS
 10
9.0560
 20
-1.1602
  0
VERTEX
  8
LAYER10
 62
     1
  6
CONTINUOUS
 10
9.0560
 20
-1.1602
  0
VERTEX
  8
LAYER10
 62
     1
  6
CONTINUOUS
 10
9.0560
 20
-1.1602
  0
VERTEX
  8
LAYER10
 62
     1
  6
CONTINUOUS
 10
9.0560
 20
-1.1602
  0
VERTEX
  8
LAYER10
 62
     1
  6
CONTINUOUS
 10
9.0560
 20
-1.1602
  0
VERTEX
  8
LAYER10
 62
     1
  6
CONTINUOUS
 10
9.0560
 20
-1.1602
  0
VERTEX
  8
LAYER10
 62
     1
  6
CONTINUOUS
 10
9.0560
 20
-1.1602
  0
VERTEX
  8
LAYER10
 62
     1
  6
CONTINUOUS
 10
9.0560
 20
-1.1602
  0
VERTEX
  8
LAYER10
 62
     1
  6
CONTINUOUS
 10
9.0560
 20
-1.1602
  0
SEQEND
  8
LAYER10
  0
POLYLINE
  8
LAYER10
 62
     1
 66
     1
  6
CONTINUOUS
  0
VERTEX
  8
LAYER10
 62
     1
  6
CONTINUOUS
 10
9.0560
 20
-1.1602
  0
VERTEX
  8
LAYER10
 62
     1
  6
CONTINUOUS
 10
9.0560
 20
-1.1602
  0
VERTEX
  8
LAYER10
 62
     1
  6
CONTINUOUS
 10
9.0560
 20
-1.1602
  0
VERTEX
  8
LAYER10
 62
     1
  6
CONTINUOUS
 10
9.0560
 20
-1.1602
  0
VERTEX
  8
LAYER10
 62
     1
  6
CONTINUOUS
 10
9.0560
 20
-1.1602
  0
VERTEX
  8
LAYER10
 62
     1
  6
CONTINUOUS
 10
9.0560
 20
-1.1603
  0
VERTEX
  8
LAYER10
 62
     1
  6
CONTINUOUS
 10
9.0561
 20
-1.1603
  0
VERTEX
  8
LAYER10
 62
     1
  6
CONTINUOUS
 10
9.0561
 20
-1.1603
  0
VERTEX
  8
LAYER10
 62
     1
  6
CONTINUOUS
 10
9.0561
 20
-1.1603
  0
VERTEX
  8
LAYER10
 62
     1
  6
CONTINUOUS
 10
9.0561
 20
-1.1603
  0
VERTEX
  8
LAYER10
 62
     1
  6
CONTINUOUS
 10
9.0561
 20
-1.1603
  0
VERTEX
  8
LAYER10
 62
     1
  6
CONTINUOUS
 10
9.0561
 20
-1.1603
  0
VERTEX
  8
LAYER10
 62
     1
  6
CONTINUOUS
 10
9.0561
 20
-1.1603
  0
VERTEX
  8
LAYER10
 62
     1
  6
CONTINUOUS
 10
9.0563
 20
-1.1605
  0
VERTEX
  8
LAYER10
 62
     1
  6
CONTINUOUS
 10
9.0565
 20
-1.1606
  0
VERTEX
  8
LAYER10
 62
     1
  6
CONTINUOUS
 10
9.0567
 20
-1.1607
  0
VERTEX
  8
LAYER10
 62
     1
  6
CONTINUOUS
 10
9.0568
 20
-1.1607
  0
VERTEX
  8
LAYER10
 62
     1
  6
CONTINUOUS
 10
9.0568
 20
-1.1608
  0
VERTEX
  8
LAYER10
 62
     1
  6
CONTINUOUS
 10
9.0568
 20
-1.1607
  0
VERTEX
  8
LAYER10
 62
     1
  6
CONTINUOUS
 10
9.0567
 20
-1.1607
  0
VERTEX
  8
LAYER10
 62
     1
  6
CONTINUOUS
 10
9.0566
 20
-1.1606
  0
VERTEX
  8
LAYER10
 62
     1
  6
CONTINUOUS
 10
9.0565
 20
-1.1606
  0
VERTEX
  8
LAYER10
 62
     1
  6
CONTINUOUS
 10
9.0564
 20
-1.1605
  0
VERTEX
  8
LAYER10
 62
     1
  6
CONTINUOUS
 10
9.0562
 20
-1.1604
  0
VERTEX
  8
LAYER10
 62
     1
  6
CONTINUOUS
 10
9.0561
 20
-1.1603
  0
SEQEND
  8
LAYER10
  0
POLYLINE
  8
LAYER10
 62
     1
 66
     1
  6
CONTINUOUS
  0
VERTEX
  8
LAYER10
 62
     1
  6
CONTINUOUS
 10
9.0561
 20
-1.1603
  0
VERTEX
  8
LAYER10
 62
     1
  6
CONTINUOUS
 10
9.0561
 20
-1.1603
  0
VERTEX
  8
LAYER10
 62
     1
  6
CONTINUOUS
 10
9.0561
 20
-1.1603
  0
VERTEX
  8
LAYER10
 62
     1
  6
CONTINUOUS
 10
9.0561
 20
-1.1603
  0
VERTEX
  8
LAYER10
 62
     1
  6
CONTINUOUS
 10
9.0561
 20
-1.1603
  0
VERTEX
  8
LAYER10
 62
     1
  6
CONTINUOUS
 10
9.0561
 20
-1.1603
  0
VERTEX
  8
LAYER10
 62
     1
  6
CONTINUOUS
 10
9.0561
 20
-1.1603
  0
VERTEX
  8
LAYER10
 62
     1
  6
CONTINUOUS
 10
9.0560
 20
-1.1603
  0
VERTEX
  8
LAYER10
 62
     1
  6
CONTINUOUS
 10
9.0560
 20
-1.1602
  0
VERTEX
  8
LAYER10
 62
     1
  6
CONTINUOUS
 10
9.0560
 20
-1.1602
  0
VERTEX
  8
LAYER10
 62
     1
  6
CONTINUOUS
 10
9.0560
 20
-1.1602
  0
VERTEX
  8
LAYER10
 62
     1
  6
CONTINUOUS
 10
9.0560
 20
-1.1602
  0
VERTEX
  8
LAYER10
 62
     1
  6
CONTINUOUS
 10
9.0560
 20
-1.1602
  0
VERTEX
  8
LAYER10
 62
     1
  6
CONTINUOUS
 10
9.0558
 20
-1.1601
  0
VERTEX
  8
LAYER10
 62
     1
  6
CONTINUOUS
 10
9.0556
 20
-1.1599
  0
VERTEX
  8
LAYER10
 62
     1
  6
CONTINUOUS
 10
9.0554
 20
-1.1598
  0
VERTEX
  8
LAYER10
 62
     1
  6
CONTINUOUS
 10
9.0554
 20
-1.1598
  0
VERTEX
  8
LAYER10
 62
     1
  6
CONTINUOUS
 10
9.0553
 20
-1.1597
  0
VERTEX
  8
LAYER10
 62
     1
  6
CONTINUOUS
 10
9.0553
 20
-1.1598
  0
VERTEX
  8
LAYER10
 62
     1
  6
CONTINUOUS
 10
9.0554
 20
-1.1598
  0
VERTEX
  8
LAYER10
 62
     1
  6
CONTINUOUS
 10
9.0555
 20
-1.1599
  0
VERTEX
  8
LAYER10
 62
     1
  6
CONTINUOUS
 10
9.0556
 20
-1.1599
  0
VERTEX
  8
LAYER10
 62
     1
  6
CONTINUOUS
 10
9.0557
 20
-1.1600
  0
VERTEX
  8
LAYER10
 62
     1
  6
CONTINUOUS
 10
9.0559
 20
-1.1601
  0
VERTEX
  8
LAYER10
 62
     1
  6
CONTINUOUS
 10
9.0560
 20
-1.1602
  0
SEQEND
  8
LAYER10
  0
POLYLINE
  8
LAYER10
 62
     1
 66
     1
  6
CONTINUOUS
  0
VERTEX
  8
LAYER10
 62
     1
  6
CONTINUOUS
 10
9.0560
 20
-1.1602
  0
VERTEX
  8
LAYER10
 62
     1
  6
CONTINUOUS
 10
9.0560
 20
-1.1602
  0
VERTEX
  8
LAYER10
 62
     1
  6
CONTINUOUS
 10
9.0560
 20
-1.1602
  0
VERTEX
  8
LAYER10
 62
     1
  6
CONTINUOUS
 10
9.0560
 20
-1.1602
  0
VERTEX
  8
LAYER10
 62
     1
  6
CONTINUOUS
 10
9.0560
 20
-1.1602
  0
VERTEX
  8
LAYER10
 62
     1
  6
CONTINUOUS
 10
9.0560
 20
-1.1602
  0
VERTEX
  8
LAYER10
 62
     1
  6
CONTINUOUS
 10
9.0560
 20
-1.1602
  0
VERTEX
  8
LAYER10
 62
     1
  6
CONTINUOUS
 10
9.0560
 20
-1.1602
  0
VERTEX
  8
LAYER10
 62
     1
  6
CONTINUOUS
 10
9.0560
 20
-1.1602
  0
VERTEX
  8
LAYER10
 62
     1
  6
CONTINUOUS
 10
9.0560
 20
-1.1602
  0
VERTEX
  8
LAYER10
 62
     1
  6
CONTINUOUS
 10
9.0560
 20
-1.1602
  0
VERTEX
  8
LAYER10
 62
     1
  6
CONTINUOUS
 10
9.0560
 20
-1.1602
  0
VERTEX
  8
LAYER10
 62
     1
  6
CONTINUOUS
 10
9.0560
 20
-1.1602
  0
VERTEX
  8
LAYER10
 62
     1
  6
CONTINUOUS
 10
9.0560
 20
-1.1602
  0
VERTEX
  8
LAYER10
 62
     1
  6
CONTINUOUS
 10
9.0560
 20
-1.1602
  0
VERTEX
  8
LAYER10
 62
     1
  6
CONTINUOUS
 10
9.0560
 20
-1.1602
  0
VERTEX
  8
LAYER10
 62
     1
  6
CONTINUOUS
 10
9.0560
 20
-1.1602
  0
VERTEX
  8
LAYER10
 62
     1
  6
CONTINUOUS
 10
9.0560
 20
-1.1602
  0
VERTEX
  8
LAYER10
 62
     1
  6
CONTINUOUS
 10
9.0560
 20
-1.1602
  0
VERTEX
  8
LAYER10
 62
     1
  6
CONTINUOUS
 10
9.0560
 20
-1.1602
  0
VERTEX
  8
LAYER10
 62
     1
  6
CONTINUOUS
 10
9.0560
 20
-1.1602
  0
VERTEX
  8
LAYER10
 62
     1
  6
CONTINUOUS
 10
9.0560
 20
-1.1602
  0
VERTEX
  8
LAYER10
 62
     1
  6
CONTINUOUS
 10
9.0560
 20
-1.1602
  0
VERTEX
  8
LAYER10
 62
     1
  6
CONTINUOUS
 10
9.0560
 20
-1.1602
  0
VERTEX
  8
LAYER10
 62
     1
  6
CONTINUOUS
 10
9.0560
 20
-1.1602
  0
SEQEND
  8
LAYER10
  0
POLYLINE
  8
LAYER10
 62
     1
 66
     1
  6
CONTINUOUS
  0
VERTEX
  8
LAYER10
 62
     1
  6
CONTINUOUS
 10
9.0560
 20
-1.1602
  0
VERTEX
  8
LAYER10
 62
     1
  6
CONTINUOUS
 10
9.0560
 20
-1.1602
  0
VERTEX
  8
LAYER10
 62
     1
  6
CONTINUOUS
 10
9.0560
 20
-1.1602
  0
VERTEX
  8
LAYER10
 62
     1
  6
CONTINUOUS
 10
9.0560
 20
-1.1602
  0
VERTEX
  8
LAYER10
 62
     1
  6
CONTINUOUS
 10
9.0560
 20
-1.1602
  0
VERTEX
  8
LAYER10
 62
     1
  6
CONTINUOUS
 10
9.0560
 20
-1.1602
  0
VERTEX
  8
LAYER10
 62
     1
  6
CONTINUOUS
 10
9.0560
 20
-1.1602
  0
VERTEX
  8
LAYER10
 62
     1
  6
CONTINUOUS
 10
9.0560
 20
-1.1602
  0
VERTEX
  8
LAYER10
 62
     1
  6
CONTINUOUS
 10
9.0560
 20
-1.1602
  0
VERTEX
  8
LAYER10
 62
     1
  6
CONTINUOUS
 10
9.0560
 20
-1.1602
  0
VERTEX
  8
LAYER10
 62
     1
  6
CONTINUOUS
 10
9.0560
 20
-1.1602
  0
VERTEX
  8
LAYER10
 62
     1
  6
CONTINUOUS
 10
9.0560
 20
-1.1602
  0
VERTEX
  8
LAYER10
 62
     1
  6
CONTINUOUS
 10
9.0560
 20
-1.1602
  0
VERTEX
  8
LAYER10
 62
     1
  6
CONTINUOUS
 10
9.0560
 20
-1.1602
  0
VERTEX
  8
LAYER10
 62
     1
  6
CONTINUOUS
 10
9.0560
 20
-1.1602
  0
VERTEX
  8
LAYER10
 62
     1
  6
CONTINUOUS
 10
9.0560
 20
-1.1602
  0
VERTEX
  8
LAYER10
 62
     1
  6
CONTINUOUS
 10
9.0560
 20
-1.1602
  0
VERTEX
  8
LAYER10
 62
     1
  6
CONTINUOUS
 10
9.0560
 20
-1.1602
  0
VERTEX
  8
LAYER10
 62
     1
  6
CONTINUOUS
 10
9.0560
 20
-1.1602
  0
VERTEX
  8
LAYER10
 62
     1
  6
CONTINUOUS
 10
9.0560
 20
-1.1602
  0
VERTEX
  8
LAYER10
 62
     1
  6
CONTINUOUS
 10
9.0560
 20
-1.1602
  0
VERTEX
  8
LAYER10
 62
     1
  6
CONTINUOUS
 10
9.0560
 20
-1.1602
  0
VERTEX
  8
LAYER10
 62
     1
  6
CONTINUOUS
 10
9.0560
 20
-1.1602
  0
VERTEX
  8
LAYER10
 62
     1
  6
CONTINUOUS
 10
9.0560
 20
-1.1602
  0
VERTEX
  8
LAYER10
 62
     1
  6
CONTINUOUS
 10
9.0560
 20
-1.1602
  0
SEQEND
  8
LAYER10
  0
POLYLINE
  8
LAYER10
 62
     1
 66
     1
  6
CONTINUOUS
  0
VERTEX
  8
LAYER10
 62
     1
  6
CONTINUOUS
 10
9.0560
 20
-1.1602
  0
VERTEX
  8
LAYER10
 62
     1
  6
CONTINUOUS
 10
9.0561
 20
-1.1603
  0
VERTEX
  8
LAYER10
 62
     1
  6
CONTINUOUS
 10
9.0562
 20
-1.1603
  0
VERTEX
  8
LAYER10
 62
     1
  6
CONTINUOUS
 10
9.0563
 20
-1.1604
  0
VERTEX
  8
LAYER10
 62
     1
  6
CONTINUOUS
 10
9.0563
 20
-1.1605
  0
VERTEX
  8
LAYER10
 62
     1
  6
CONTINUOUS
 10
9.0564
 20
-1.1605
  0
VERTEX
  8
LAYER10
 62
     1
  6
CONTINUOUS
 10
9.0565
 20
-1.1606
  0
VERTEX
  8
LAYER10
 62
     1
  6
CONTINUOUS
 10
9.0566
 20
-1.1606
  0
VERTEX
  8
LAYER10
 62
     1
  6
CONTINUOUS
 10
9.0567
 20
-1.1607
  0
VERTEX
  8
LAYER10
 62
     1
  6
CONTINUOUS
 10
9.0567
 20
-1.1607
  0
VERTEX
  8
LAYER10
 62
     1
  6
CONTINUOUS
 10
9.0568
 20
-1.1608
  0
VERTEX
  8
LAYER10
 62
     1
  6
CONTINUOUS
 10
9.0569
 20
-1.1608
  0
VERTEX
  8
LAYER10
 62
     1
  6
CONTINUOUS
 10
9.0570
 20
-1.1609
  0
VERTEX
  8
LAYER10
 62
     1
  6
CONTINUOUS
 10
9.0597
 20
-1.1628
  0
VERTEX
  8
LAYER10
 62
     1
  6
CONTINUOUS
 10
9.0625
 20
-1.1646
  0
VERTEX
  8
LAYER10
 62
     1
  6
CONTINUOUS
 10
9.0653
 20
-1.1665
  0
VERTEX
  8
LAYER10
 62
     1
  6
CONTINUOUS
 10
9.0681
 20
-1.1684
  0
VERTEX
  8
LAYER10
 62
     1
  6
CONTINUOUS
 10
9.0709
 20
-1.1703
  0
VERTEX
  8
LAYER10
 62
     1
  6
CONTINUOUS
 10
9.0736
 20
-1.1723
  0
VERTEX
  8
LAYER10
 62
     1
  6
CONTINUOUS
 10
9.0762
 20
-1.1744
  0
VERTEX
  8
LAYER10
 62
     1
  6
CONTINUOUS
 10
9.0787
 20
-1.1766
  0
VERTEX
  8
LAYER10
 62
     1
  6
CONTINUOUS
 10
9.0812
 20
-1.1788
  0
VERTEX
  8
LAYER10
 62
     1
  6
CONTINUOUS
 10
9.0834
 20
-1.1811
  0
VERTEX
  8
LAYER10
 62
     1
  6
CONTINUOUS
 10
9.0856
 20
-1.1836
  0
VERTEX
  8
LAYER10
 62
     1
  6
CONTINUOUS
 10
9.0875
 20
-1.1862
  0
VERTEX
  8
LAYER10
 62
     1
  6
CONTINUOUS
 10
9.0885
 20
-1.1878
  0
VERTEX
  8
LAYER10
 62
     1
  6
CONTINUOUS
 10
9.0895
 20
-1.1894
  0
VERTEX
  8
LAYER10
 62
     1
  6
CONTINUOUS
 10
9.0904
 20
-1.1910
  0
VERTEX
  8
LAYER10
 62
     1
  6
CONTINUOUS
 10
9.0913
 20
-1.1927
  0
VERTEX
  8
LAYER10
 62
     1
  6
CONTINUOUS
 10
9.0921
 20
-1.1944
  0
VERTEX
  8
LAYER10
 62
     1
  6
CONTINUOUS
 10
9.0929
 20
-1.1961
  0
VERTEX
  8
LAYER10
 62
     1
  6
CONTINUOUS
 10
9.0937
 20
-1.1978
  0
VERTEX
  8
LAYER10
 62
     1
  6
CONTINUOUS
 10
9.0945
 20
-1.1996
  0
VERTEX
  8
LAYER10
 62
     1
  6
CONTINUOUS
 10
9.0953
 20
-1.2013
  0
VERTEX
  8
LAYER10
 62
     1
  6
CONTINUOUS
 10
9.0961
 20
-1.2031
  0
VERTEX
  8
LAYER10
 62
     1
  6
CONTINUOUS
 10
9.0969
 20
-1.2048
  0
VERTEX
  8
LAYER10
 62
     1
  6
CONTINUOUS
 10
9.0977
 20
-1.2065
  0
VERTEX
  8
LAYER10
 62
     1
  6
CONTINUOUS
 10
9.0991
 20
-1.2093
  0
VERTEX
  8
LAYER10
 62
     1
  6
CONTINUOUS
 10
9.1006
 20
-1.2119
  0
VERTEX
  8
LAYER10
 62
     1
  6
CONTINUOUS
 10
9.1021
 20
-1.2146
  0
VERTEX
  8
LAYER10
 62
     1
  6
CONTINUOUS
 10
9.1037
 20
-1.2172
  0
VERTEX
  8
LAYER10
 62
     1
  6
CONTINUOUS
 10
9.1053
 20
-1.2198
  0
VERTEX
  8
LAYER10
 62
     1
  6
CONTINUOUS
 10
9.1071
 20
-1.2223
  0
VERTEX
  8
LAYER10
 62
     1
  6
CONTINUOUS
 10
9.1088
 20
-1.2248
  0
VERTEX
  8
LAYER10
 62
     1
  6
CONTINUOUS
 10
9.1106
 20
-1.2273
  0
VERTEX
  8
LAYER10
 62
     1
  6
CONTINUOUS
 10
9.1124
 20
-1.2297
  0
VERTEX
  8
LAYER10
 62
     1
  6
CONTINUOUS
 10
9.1143
 20
-1.2322
  0
VERTEX
  8
LAYER10
 62
     1
  6
CONTINUOUS
 10
9.1162
 20
-1.2346
  0
VERTEX
  8
LAYER10
 62
     1
  6
CONTINUOUS
 10
9.1181
 20
-1.2370
  0
VERTEX
  8
LAYER10
 62
     1
  6
CONTINUOUS
 10
9.1195
 20
-1.2386
  0
VERTEX
  8
LAYER10
 62
     1
  6
CONTINUOUS
 10
9.1208
 20
-1.2402
  0
VERTEX
  8
LAYER10
 62
     1
  6
CONTINUOUS
 10
9.1221
 20
-1.2419
  0
VERTEX
  8
LAYER10
 62
     1
  6
CONTINUOUS
 10
9.1235
 20
-1.2435
  0
VERTEX
  8
LAYER10
 62
     1
  6
CONTINUOUS
 10
9.1248
 20
-1.2452
  0
VERTEX
  8
LAYER10
 62
     1
  6
CONTINUOUS
 10
9.1261
 20
-1.2468
  0
VERTEX
  8
LAYER10
 62
     1
  6
CONTINUOUS
 10
9.1274
 20
-1.2485
  0
VERTEX
  8
LAYER10
 62
     1
  6
CONTINUOUS
 10
9.1287
 20
-1.2502
  0
VERTEX
  8
LAYER10
 62
     1
  6
CONTINUOUS
 10
9.1299
 20
-1.2519
  0
VERTEX
  8
LAYER10
 62
     1
  6
CONTINUOUS
 10
9.1311
 20
-1.2537
  0
VERTEX
  8
LAYER10
 62
     1
  6
CONTINUOUS
 10
9.1323
 20
-1.2554
  0
VERTEX
  8
LAYER10
 62
     1
  6
CONTINUOUS
 10
9.1334
 20
-1.2572
  0
VERTEX
  8
LAYER10
 62
     1
  6
CONTINUOUS
 10
9.1347
 20
-1.2596
  0
VERTEX
  8
LAYER10
 62
     1
  6
CONTINUOUS
 10
9.1360
 20
-1.2619
  0
VERTEX
  8
LAYER10
 62
     1
  6
CONTINUOUS
 10
9.1372
 20
-1.2644
  0
VERTEX
  8
LAYER10
 62
     1
  6
CONTINUOUS
 10
9.1383
 20
-1.2668
  0
VERTEX
  8
LAYER10
 62
     1
  6
CONTINUOUS
 10
9.1393
 20
-1.2693
  0
VERTEX
  8
LAYER10
 62
     1
  6
CONTINUOUS
 10
9.1402
 20
-1.2719
  0
VERTEX
  8
LAYER10
 62
     1
  6
CONTINUOUS
 10
9.1410
 20
-1.2744
  0
VERTEX
  8
LAYER10
 62
     1
  6
CONTINUOUS
 10
9.1417
 20
-1.2771
  0
VERTEX
  8
LAYER10
 62
     1
  6
CONTINUOUS
 10
9.1424
 20
-1.2797
  0
VERTEX
  8
LAYER10
 62
     1
  6
CONTINUOUS
 10
9.1429
 20
-1.2823
  0
VERTEX
  8
LAYER10
 62
     1
  6
CONTINUOUS
 10
9.1433
 20
-1.2850
  0
VERTEX
  8
LAYER10
 62
     1
  6
CONTINUOUS
 10
9.1436
 20
-1.2877
  0
VERTEX
  8
LAYER10
 62
     1
  6
CONTINUOUS
 10
9.1437
 20
-1.2885
  0
VERTEX
  8
LAYER10
 62
     1
  6
CONTINUOUS
 10
9.1438
 20
-1.2894
  0
VERTEX
  8
LAYER10
 62
     1
  6
CONTINUOUS
 10
9.1438
 20
-1.2902
  0
VERTEX
  8
LAYER10
 62
     1
  6
CONTINUOUS
 10
9.1439
 20
-1.2911
  0
VERTEX
  8
LAYER10
 62
     1
  6
CONTINUOUS
 10
9.1439
 20
-1.2920
  0
VERTEX
  8
LAYER10
 62
     1
  6
CONTINUOUS
 10
9.1439
 20
-1.2928
  0
VERTEX
  8
LAYER10
 62
     1
  6
CONTINUOUS
 10
9.1439
 20
-1.2937
  0
VERTEX
  8
LAYER10
 62
     1
  6
CONTINUOUS
 10
9.1439
 20
-1.2945
  0
VERTEX
  8
LAYER10
 62
     1
  6
CONTINUOUS
 10
9.1439
 20
-1.2953
  0
VERTEX
  8
LAYER10
 62
     1
  6
CONTINUOUS
 10
9.1438
 20
-1.2962
  0
VERTEX
  8
LAYER10
 62
     1
  6
CONTINUOUS
 10
9.1437
 20
-1.2970
  0
VERTEX
  8
LAYER10
 62
     1
  6
CONTINUOUS
 10
9.1436
 20
-1.2979
  0
VERTEX
  8
LAYER10
 62
     1
  6
CONTINUOUS
 10
9.1431
 20
-1.3012
  0
VERTEX
  8
LAYER10
 62
     1
  6
CONTINUOUS
 10
9.1422
 20
-1.3044
  0
VERTEX
  8
LAYER10
 62
     1
  6
CONTINUOUS
 10
9.1411
 20
-1.3076
  0
VERTEX
  8
LAYER10
 62
     1
  6
CONTINUOUS
 10
9.1398
 20
-1.3107
  0
VERTEX
  8
LAYER10
 62
     1
  6
CONTINUOUS
 10
9.1382
 20
-1.3138
  0
VERTEX
  8
LAYER10
 62
     1
  6
CONTINUOUS
 10
9.1364
 20
-1.3168
  0
VERTEX
  8
LAYER10
 62
     1
  6
CONTINUOUS
 10
9.1345
 20
-1.3197
  0
VERTEX
  8
LAYER10
 62
     1
  6
CONTINUOUS
 10
9.1325
 20
-1.3225
  0
VERTEX
  8
LAYER10
 62
     1
  6
CONTINUOUS
 10
9.1303
 20
-1.3254
  0
VERTEX
  8
LAYER10
 62
     1
  6
CONTINUOUS
 10
9.1281
 20
-1.3281
  0
VERTEX
  8
LAYER10
 62
     1
  6
CONTINUOUS
 10
9.1257
 20
-1.3308
  0
VERTEX
  8
LAYER10
 62
     1
  6
CONTINUOUS
 10
9.1234
 20
-1.3335
  0
VERTEX
  8
LAYER10
 62
     1
  6
CONTINUOUS
 10
9.1218
 20
-1.3353
  0
VERTEX
  8
LAYER10
 62
     1
  6
CONTINUOUS
 10
9.1201
 20
-1.3371
  0
VERTEX
  8
LAYER10
 62
     1
  6
CONTINUOUS
 10
9.1185
 20
-1.3389
  0
VERTEX
  8
LAYER10
 62
     1
  6
CONTINUOUS
 10
9.1168
 20
-1.3406
  0
VERTEX
  8
LAYER10
 62
     1
  6
CONTINUOUS
 10
9.1152
 20
-1.3423
  0
VERTEX
  8
LAYER10
 62
     1
  6
CONTINUOUS
 10
9.1135
 20
-1.3441
  0
VERTEX
  8
LAYER10
 62
     1
  6
CONTINUOUS
 10
9.1118
 20
-1.3457
  0
VERTEX
  8
LAYER10
 62
     1
  6
CONTINUOUS
 10
9.1101
 20
-1.3474
  0
VERTEX
  8
LAYER10
 62
     1
  6
CONTINUOUS
 10
9.1084
 20
-1.3490
  0
VERTEX
  8
LAYER10
 62
     1
  6
CONTINUOUS
 10
9.1066
 20
-1.3507
  0
VERTEX
  8
LAYER10
 62
     1
  6
CONTINUOUS
 10
9.1049
 20
-1.3523
  0
VERTEX
  8
LAYER10
 62
     1
  6
CONTINUOUS
 10
9.1031
 20
-1.3538
  0
VERTEX
  8
LAYER10
 62
     1
  6
CONTINUOUS
 10
9.0995
 20
-1.3569
  0
VERTEX
  8
LAYER10
 62
     1
  6
CONTINUOUS
 10
9.0958
 20
-1.3600
  0
VERTEX
  8
LAYER10
 62
     1
  6
CONTINUOUS
 10
9.0920
 20
-1.3629
  0
VERTEX
  8
LAYER10
 62
     1
  6
CONTINUOUS
 10
9.0882
 20
-1.3658
  0
VERTEX
  8
LAYER10
 62
     1
  6
CONTINUOUS
 10
9.0843
 20
-1.3687
  0
VERTEX
  8
LAYER10
 62
     1
  6
CONTINUOUS
 10
9.0804
 20
-1.3715
  0
VERTEX
  8
LAYER10
 62
     1
  6
CONTINUOUS
 10
9.0764
 20
-1.3742
  0
VERTEX
  8
LAYER10
 62
     1
  6
CONTINUOUS
 10
9.0723
 20
-1.3769
  0
VERTEX
  8
LAYER10
 62
     1
  6
CONTINUOUS
 10
9.0683
 20
-1.3796
  0
VERTEX
  8
LAYER10
 62
     1
  6
CONTINUOUS
 10
9.0642
 20
-1.3823
  0
VERTEX
  8
LAYER10
 62
     1
  6
CONTINUOUS
 10
9.0601
 20
-1.3849
  0
VERTEX
  8
LAYER10
 62
     1
  6
CONTINUOUS
 10
9.0560
 20
-1.3876
  0
SEQEND
  8
LAYER10
  0
POLYLINE
  8
LAYER10
 62
     1
 66
     1
  6
CONTINUOUS
  0
VERTEX
  8
LAYER10
 62
     1
  6
CONTINUOUS
 10
9.0560
 20
-1.3876
  0
VERTEX
  8
LAYER10
 62
     1
  6
CONTINUOUS
 10
9.0560
 20
-1.3876
  0
VERTEX
  8
LAYER10
 62
     1
  6
CONTINUOUS
 10
9.0560
 20
-1.3876
  0
VERTEX
  8
LAYER10
 62
     1
  6
CONTINUOUS
 10
9.0560
 20
-1.3876
  0
VERTEX
  8
LAYER10
 62
     1
  6
CONTINUOUS
 10
9.0560
 20
-1.3876
  0
VERTEX
  8
LAYER10
 62
     1
  6
CONTINUOUS
 10
9.0560
 20
-1.3876
  0
VERTEX
  8
LAYER10
 62
     1
  6
CONTINUOUS
 10
9.0560
 20
-1.3876
  0
VERTEX
  8
LAYER10
 62
     1
  6
CONTINUOUS
 10
9.0560
 20
-1.3876
  0
VERTEX
  8
LAYER10
 62
     1
  6
CONTINUOUS
 10
9.0560
 20
-1.3876
  0
VERTEX
  8
LAYER10
 62
     1
  6
CONTINUOUS
 10
9.0560
 20
-1.3876
  0
VERTEX
  8
LAYER10
 62
     1
  6
CONTINUOUS
 10
9.0560
 20
-1.3876
  0
VERTEX
  8
LAYER10
 62
     1
  6
CONTINUOUS
 10
9.0560
 20
-1.3876
  0
VERTEX
  8
LAYER10
 62
     1
  6
CONTINUOUS
 10
9.0560
 20
-1.3876
  0
VERTEX
  8
LAYER10
 62
     1
  6
CONTINUOUS
 10
9.0560
 20
-1.3876
  0
VERTEX
  8
LAYER10
 62
     1
  6
CONTINUOUS
 10
9.0560
 20
-1.3876
  0
VERTEX
  8
LAYER10
 62
     1
  6
CONTINUOUS
 10
9.0560
 20
-1.3876
  0
VERTEX
  8
LAYER10
 62
     1
  6
CONTINUOUS
 10
9.0560
 20
-1.3876
  0
VERTEX
  8
LAYER10
 62
     1
  6
CONTINUOUS
 10
9.0560
 20
-1.3876
  0
VERTEX
  8
LAYER10
 62
     1
  6
CONTINUOUS
 10
9.0560
 20
-1.3876
  0
VERTEX
  8
LAYER10
 62
     1
  6
CONTINUOUS
 10
9.0560
 20
-1.3876
  0
VERTEX
  8
LAYER10
 62
     1
  6
CONTINUOUS
 10
9.0560
 20
-1.3876
  0
VERTEX
  8
LAYER10
 62
     1
  6
CONTINUOUS
 10
9.0560
 20
-1.3876
  0
VERTEX
  8
LAYER10
 62
     1
  6
CONTINUOUS
 10
9.0560
 20
-1.3876
  0
VERTEX
  8
LAYER10
 62
     1
  6
CONTINUOUS
 10
9.0560
 20
-1.3876
  0
VERTEX
  8
LAYER10
 62
     1
  6
CONTINUOUS
 10
9.0560
 20
-1.3876
  0
SEQEND
  8
LAYER10
  0
POLYLINE
  8
LAYER10
 62
     1
 66
     1
  6
CONTINUOUS
  0
VERTEX
  8
LAYER10
 62
     1
  6
CONTINUOUS
 10
9.0560
 20
-1.3876
  0
VERTEX
  8
LAYER10
 62
     1
  6
CONTINUOUS
 10
9.0560
 20
-1.3876
  0
VERTEX
  8
LAYER10
 62
     1
  6
CONTINUOUS
 10
9.0560
 20
-1.3876
  0
VERTEX
  8
LAYER10
 62
     1
  6
CONTINUOUS
 10
9.0560
 20
-1.3876
  0
VERTEX
  8
LAYER10
 62
     1
  6
CONTINUOUS
 10
9.0560
 20
-1.3876
  0
VERTEX
  8
LAYER10
 62
     1
  6
CONTINUOUS
 10
9.0560
 20
-1.3876
  0
VERTEX
  8
LAYER10
 62
     1
  6
CONTINUOUS
 10
9.0560
 20
-1.3876
  0
VERTEX
  8
LAYER10
 62
     1
  6
CONTINUOUS
 10
9.0560
 20
-1.3876
  0
VERTEX
  8
LAYER10
 62
     1
  6
CONTINUOUS
 10
9.0560
 20
-1.3876
  0
VERTEX
  8
LAYER10
 62
     1
  6
CONTINUOUS
 10
9.0560
 20
-1.3876
  0
VERTEX
  8
LAYER10
 62
     1
  6
CONTINUOUS
 10
9.0560
 20
-1.3876
  0
VERTEX
  8
LAYER10
 62
     1
  6
CONTINUOUS
 10
9.0560
 20
-1.3876
  0
VERTEX
  8
LAYER10
 62
     1
  6
CONTINUOUS
 10
9.0560
 20
-1.3876
  0
VERTEX
  8
LAYER10
 62
     1
  6
CONTINUOUS
 10
9.0560
 20
-1.3876
  0
VERTEX
  8
LAYER10
 62
     1
  6
CONTINUOUS
 10
9.0560
 20
-1.3876
  0
VERTEX
  8
LAYER10
 62
     1
  6
CONTINUOUS
 10
9.0560
 20
-1.3876
  0
VERTEX
  8
LAYER10
 62
     1
  6
CONTINUOUS
 10
9.0560
 20
-1.3876
  0
VERTEX
  8
LAYER10
 62
     1
  6
CONTINUOUS
 10
9.0560
 20
-1.3876
  0
VERTEX
  8
LAYER10
 62
     1
  6
CONTINUOUS
 10
9.0560
 20
-1.3876
  0
VERTEX
  8
LAYER10
 62
     1
  6
CONTINUOUS
 10
9.0560
 20
-1.3876
  0
VERTEX
  8
LAYER10
 62
     1
  6
CONTINUOUS
 10
9.0560
 20
-1.3876
  0
VERTEX
  8
LAYER10
 62
     1
  6
CONTINUOUS
 10
9.0560
 20
-1.3876
  0
VERTEX
  8
LAYER10
 62
     1
  6
CONTINUOUS
 10
9.0560
 20
-1.3876
  0
VERTEX
  8
LAYER10
 62
     1
  6
CONTINUOUS
 10
9.0560
 20
-1.3876
  0
VERTEX
  8
LAYER10
 62
     1
  6
CONTINUOUS
 10
9.0560
 20
-1.3876
  0
SEQEND
  8
LAYER10
  0
POLYLINE
  8
LAYER10
 62
     1
 66
     1
  6
CONTINUOUS
  0
VERTEX
  8
LAYER10
 62
     1
  6
CONTINUOUS
 10
9.0560
 20
-1.3876
  0
VERTEX
  8
LAYER10
 62
     1
  6
CONTINUOUS
 10
9.0560
 20
-1.3876
  0
VERTEX
  8
LAYER10
 62
     1
  6
CONTINUOUS
 10
9.0560
 20
-1.3876
  0
VERTEX
  8
LAYER10
 62
     1
  6
CONTINUOUS
 10
9.0560
 20
-1.3876
  0
VERTEX
  8
LAYER10
 62
     1
  6
CONTINUOUS
 10
9.0560
 20
-1.3876
  0
VERTEX
  8
LAYER10
 62
     1
  6
CONTINUOUS
 10
9.0560
 20
-1.3876
  0
VERTEX
  8
LAYER10
 62
     1
  6
CONTINUOUS
 10
9.0561
 20
-1.3876
  0
VERTEX
  8
LAYER10
 62
     1
  6
CONTINUOUS
 10
9.0561
 20
-1.3876
  0
VERTEX
  8
LAYER10
 62
     1
  6
CONTINUOUS
 10
9.0561
 20
-1.3876
  0
VERTEX
  8
LAYER10
 62
     1
  6
CONTINUOUS
 10
9.0561
 20
-1.3876
  0
VERTEX
  8
LAYER10
 62
     1
  6
CONTINUOUS
 10
9.0561
 20
-1.3876
  0
VERTEX
  8
LAYER10
 62
     1
  6
CONTINUOUS
 10
9.0561
 20
-1.3875
  0
VERTEX
  8
LAYER10
 62
     1
  6
CONTINUOUS
 10
9.0561
 20
-1.3875
  0
VERTEX
  8
LAYER10
 62
     1
  6
CONTINUOUS
 10
9.0563
 20
-1.3874
  0
VERTEX
  8
LAYER10
 62
     1
  6
CONTINUOUS
 10
9.0565
 20
-1.3872
  0
VERTEX
  8
LAYER10
 62
     1
  6
CONTINUOUS
 10
9.0567
 20
-1.3871
  0
VERTEX
  8
LAYER10
 62
     1
  6
CONTINUOUS
 10
9.0568
 20
-1.3871
  0
VERTEX
  8
LAYER10
 62
     1
  6
CONTINUOUS
 10
9.0568
 20
-1.3871
  0
VERTEX
  8
LAYER10
 62
     1
  6
CONTINUOUS
 10
9.0568
 20
-1.3871
  0
VERTEX
  8
LAYER10
 62
     1
  6
CONTINUOUS
 10
9.0567
 20
-1.3871
  0
VERTEX
  8
LAYER10
 62
     1
  6
CONTINUOUS
 10
9.0566
 20
-1.3872
  0
VERTEX
  8
LAYER10
 62
     1
  6
CONTINUOUS
 10
9.0565
 20
-1.3873
  0
VERTEX
  8
LAYER10
 62
     1
  6
CONTINUOUS
 10
9.0564
 20
-1.3873
  0
VERTEX
  8
LAYER10
 62
     1
  6
CONTINUOUS
 10
9.0562
 20
-1.3874
  0
VERTEX
  8
LAYER10
 62
     1
  6
CONTINUOUS
 10
9.0561
 20
-1.3875
  0
SEQEND
  8
LAYER10
  0
POLYLINE
  8
LAYER10
 62
     1
 66
     1
  6
CONTINUOUS
  0
VERTEX
  8
LAYER10
 62
     1
  6
CONTINUOUS
 10
9.0561
 20
-1.3875
  0
VERTEX
  8
LAYER10
 62
     1
  6
CONTINUOUS
 10
9.0561
 20
-1.3875
  0
VERTEX
  8
LAYER10
 62
     1
  6
CONTINUOUS
 10
9.0561
 20
-1.3876
  0
VERTEX
  8
LAYER10
 62
     1
  6
CONTINUOUS
 10
9.0561
 20
-1.3876
  0
VERTEX
  8
LAYER10
 62
     1
  6
CONTINUOUS
 10
9.0561
 20
-1.3876
  0
VERTEX
  8
LAYER10
 62
     1
  6
CONTINUOUS
 10
9.0561
 20
-1.3876
  0
VERTEX
  8
LAYER10
 62
     1
  6
CONTINUOUS
 10
9.0561
 20
-1.3876
  0
VERTEX
  8
LAYER10
 62
     1
  6
CONTINUOUS
 10
9.0560
 20
-1.3876
  0
VERTEX
  8
LAYER10
 62
     1
  6
CONTINUOUS
 10
9.0560
 20
-1.3876
  0
VERTEX
  8
LAYER10
 62
     1
  6
CONTINUOUS
 10
9.0560
 20
-1.3876
  0
VERTEX
  8
LAYER10
 62
     1
  6
CONTINUOUS
 10
9.0560
 20
-1.3876
  0
VERTEX
  8
LAYER10
 62
     1
  6
CONTINUOUS
 10
9.0560
 20
-1.3876
  0
VERTEX
  8
LAYER10
 62
     1
  6
CONTINUOUS
 10
9.0560
 20
-1.3876
  0
VERTEX
  8
LAYER10
 62
     1
  6
CONTINUOUS
 10
9.0557
 20
-1.3877
  0
VERTEX
  8
LAYER10
 62
     1
  6
CONTINUOUS
 10
9.0555
 20
-1.3878
  0
VERTEX
  8
LAYER10
 62
     1
  6
CONTINUOUS
 10
9.0554
 20
-1.3879
  0
VERTEX
  8
LAYER10
 62
     1
  6
CONTINUOUS
 10
9.0553
 20
-1.3880
  0
VERTEX
  8
LAYER10
 62
     1
  6
CONTINUOUS
 10
9.0553
 20
-1.3880
  0
VERTEX
  8
LAYER10
 62
     1
  6
CONTINUOUS
 10
9.0553
 20
-1.3880
  0
VERTEX
  8
LAYER10
 62
     1
  6
CONTINUOUS
 10
9.0554
 20
-1.3879
  0
VERTEX
  8
LAYER10
 62
     1
  6
CONTINUOUS
 10
9.0554
 20
-1.3879
  0
VERTEX
  8
LAYER10
 62
     1
  6
CONTINUOUS
 10
9.0556
 20
-1.3878
  0
VERTEX
  8
LAYER10
 62
     1
  6
CONTINUOUS
 10
9.0557
 20
-1.3877
  0
VERTEX
  8
LAYER10
 62
     1
  6
CONTINUOUS
 10
9.0559
 20
-1.3877
  0
VERTEX
  8
LAYER10
 62
     1
  6
CONTINUOUS
 10
9.0560
 20
-1.3876
  0
SEQEND
  8
LAYER10
  0
POLYLINE
  8
LAYER10
 62
     1
 66
     1
  6
CONTINUOUS
  0
VERTEX
  8
LAYER10
 62
     1
  6
CONTINUOUS
 10
9.0560
 20
-1.3876
  0
VERTEX
  8
LAYER10
 62
     1
  6
CONTINUOUS
 10
9.0560
 20
-1.3876
  0
VERTEX
  8
LAYER10
 62
     1
  6
CONTINUOUS
 10
9.0560
 20
-1.3876
  0
VERTEX
  8
LAYER10
 62
     1
  6
CONTINUOUS
 10
9.0560
 20
-1.3876
  0
VERTEX
  8
LAYER10
 62
     1
  6
CONTINUOUS
 10
9.0560
 20
-1.3876
  0
VERTEX
  8
LAYER10
 62
     1
  6
CONTINUOUS
 10
9.0560
 20
-1.3876
  0
VERTEX
  8
LAYER10
 62
     1
  6
CONTINUOUS
 10
9.0560
 20
-1.3876
  0
VERTEX
  8
LAYER10
 62
     1
  6
CONTINUOUS
 10
9.0560
 20
-1.3876
  0
VERTEX
  8
LAYER10
 62
     1
  6
CONTINUOUS
 10
9.0560
 20
-1.3876
  0
VERTEX
  8
LAYER10
 62
     1
  6
CONTINUOUS
 10
9.0560
 20
-1.3876
  0
VERTEX
  8
LAYER10
 62
     1
  6
CONTINUOUS
 10
9.0560
 20
-1.3876
  0
VERTEX
  8
LAYER10
 62
     1
  6
CONTINUOUS
 10
9.0560
 20
-1.3876
  0
VERTEX
  8
LAYER10
 62
     1
  6
CONTINUOUS
 10
9.0560
 20
-1.3876
  0
VERTEX
  8
LAYER10
 62
     1
  6
CONTINUOUS
 10
9.0560
 20
-1.3876
  0
VERTEX
  8
LAYER10
 62
     1
  6
CONTINUOUS
 10
9.0560
 20
-1.3876
  0
VERTEX
  8
LAYER10
 62
     1
  6
CONTINUOUS
 10
9.0560
 20
-1.3876
  0
VERTEX
  8
LAYER10
 62
     1
  6
CONTINUOUS
 10
9.0560
 20
-1.3876
  0
VERTEX
  8
LAYER10
 62
     1
  6
CONTINUOUS
 10
9.0560
 20
-1.3876
  0
VERTEX
  8
LAYER10
 62
     1
  6
CONTINUOUS
 10
9.0560
 20
-1.3876
  0
VERTEX
  8
LAYER10
 62
     1
  6
CONTINUOUS
 10
9.0560
 20
-1.3876
  0
VERTEX
  8
LAYER10
 62
     1
  6
CONTINUOUS
 10
9.0560
 20
-1.3876
  0
VERTEX
  8
LAYER10
 62
     1
  6
CONTINUOUS
 10
9.0560
 20
-1.3876
  0
VERTEX
  8
LAYER10
 62
     1
  6
CONTINUOUS
 10
9.0560
 20
-1.3876
  0
VERTEX
  8
LAYER10
 62
     1
  6
CONTINUOUS
 10
9.0560
 20
-1.3876
  0
VERTEX
  8
LAYER10
 62
     1
  6
CONTINUOUS
 10
9.0560
 20
-1.3876
  0
SEQEND
  8
LAYER10
  0
POLYLINE
  8
LAYER10
 62
     1
 66
     1
  6
CONTINUOUS
  0
VERTEX
  8
LAYER10
 62
     1
  6
CONTINUOUS
 10
9.0560
 20
-1.3876
  0
VERTEX
  8
LAYER10
 62
     1
  6
CONTINUOUS
 10
9.0560
 20
-1.3876
  0
VERTEX
  8
LAYER10
 62
     1
  6
CONTINUOUS
 10
9.0560
 20
-1.3876
  0
VERTEX
  8
LAYER10
 62
     1
  6
CONTINUOUS
 10
9.0560
 20
-1.3876
  0
VERTEX
  8
LAYER10
 62
     1
  6
CONTINUOUS
 10
9.0560
 20
-1.3876
  0
VERTEX
  8
LAYER10
 62
     1
  6
CONTINUOUS
 10
9.0560
 20
-1.3876
  0
VERTEX
  8
LAYER10
 62
     1
  6
CONTINUOUS
 10
9.0560
 20
-1.3876
  0
VERTEX
  8
LAYER10
 62
     1
  6
CONTINUOUS
 10
9.0560
 20
-1.3876
  0
VERTEX
  8
LAYER10
 62
     1
  6
CONTINUOUS
 10
9.0560
 20
-1.3876
  0
VERTEX
  8
LAYER10
 62
     1
  6
CONTINUOUS
 10
9.0560
 20
-1.3876
  0
VERTEX
  8
LAYER10
 62
     1
  6
CONTINUOUS
 10
9.0560
 20
-1.3876
  0
VERTEX
  8
LAYER10
 62
     1
  6
CONTINUOUS
 10
9.0560
 20
-1.3876
  0
VERTEX
  8
LAYER10
 62
     1
  6
CONTINUOUS
 10
9.0560
 20
-1.3876
  0
VERTEX
  8
LAYER10
 62
     1
  6
CONTINUOUS
 10
9.0560
 20
-1.3876
  0
VERTEX
  8
LAYER10
 62
     1
  6
CONTINUOUS
 10
9.0560
 20
-1.3876
  0
VERTEX
  8
LAYER10
 62
     1
  6
CONTINUOUS
 10
9.0560
 20
-1.3876
  0
VERTEX
  8
LAYER10
 62
     1
  6
CONTINUOUS
 10
9.0560
 20
-1.3876
  0
VERTEX
  8
LAYER10
 62
     1
  6
CONTINUOUS
 10
9.0560
 20
-1.3876
  0
VERTEX
  8
LAYER10
 62
     1
  6
CONTINUOUS
 10
9.0560
 20
-1.3876
  0
VERTEX
  8
LAYER10
 62
     1
  6
CONTINUOUS
 10
9.0560
 20
-1.3876
  0
VERTEX
  8
LAYER10
 62
     1
  6
CONTINUOUS
 10
9.0560
 20
-1.3876
  0
VERTEX
  8
LAYER10
 62
     1
  6
CONTINUOUS
 10
9.0560
 20
-1.3876
  0
VERTEX
  8
LAYER10
 62
     1
  6
CONTINUOUS
 10
9.0560
 20
-1.3876
  0
VERTEX
  8
LAYER10
 62
     1
  6
CONTINUOUS
 10
9.0560
 20
-1.3876
  0
VERTEX
  8
LAYER10
 62
     1
  6
CONTINUOUS
 10
9.0560
 20
-1.3876
  0
SEQEND
  8
LAYER10
  0
POLYLINE
  8
LAYER12
 62
     5
 66
     1
  6
CONTINUOUS
  0
VERTEX
  8
LAYER12
 62
     5
  6
CONTINUOUS
 10
9.0561
 20
-0.4403
  0
VERTEX
  8
LAYER12
 62
     5
  6
CONTINUOUS
 10
9.0561
 20
-0.4411
  0
SEQEND
  8
LAYER12
  0
POLYLINE
  8
LAYER12
 62
     5
 66
     1
  6
CONTINUOUS
  0
VERTEX
  8
LAYER12
 62
     5
  6
CONTINUOUS
 10
9.0561
 20
-0.4411
  0
VERTEX
  8
LAYER12
 62
     5
  6
CONTINUOUS
 10
9.0561
 20
-0.4403
  0
SEQEND
  8
LAYER12
  0
POLYLINE
  8
LAYER12
 62
     5
 66
     1
  6
CONTINUOUS
  0
VERTEX
  8
LAYER12
 62
     5
  6
CONTINUOUS
 10
9.0561
 20
-1.4248
  0
VERTEX
  8
LAYER12
 62
     5
  6
CONTINUOUS
 10
9.0561
 20
-1.4248
  0
SEQEND
  8
LAYER12
  0
POLYLINE
  8
LAYER12
 62
     5
 66
     1
  6
CONTINUOUS
  0
VERTEX
  8
LAYER12
 62
     5
  6
CONTINUOUS
 10
9.0561
 20
-1.4242
  0
VERTEX
  8
LAYER12
 62
     5
  6
CONTINUOUS
 10
9.0561
 20
-1.4221
  0
SEQEND
  8
LAYER12
  0
POLYLINE
  8
LAYER12
 62
     5
 66
     1
  6
CONTINUOUS
  0
VERTEX
  8
LAYER12
 62
     5
  6
CONTINUOUS
 10
9.0561
 20
-1.4221
  0
VERTEX
  8
LAYER12
 62
     5
  6
CONTINUOUS
 10
9.0561
 20
-0.4403
  0
SEQEND
  8
LAYER12
  0
POLYLINE
  8
LAYER12
 62
     5
 66
     1
  6
CONTINUOUS
  0
VERTEX
  8
LAYER12
 62
     5
  6
CONTINUOUS
 10
9.0561
 20
-0.4393
  0
VERTEX
  8
LAYER12
 62
     5
  6
CONTINUOUS
 10
9.0561
 20
-0.4393
  0
SEQEND
  8
LAYER12
  0
POLYLINE
  8
LAYER12
 62
     5
 66
     1
  6
CONTINUOUS
  0
VERTEX
  8
LAYER12
 62
     5
  6
CONTINUOUS
 10
9.0561
 20
-0.4393
  0
VERTEX
  8
LAYER12
 62
     5
  6
CONTINUOUS
 10
9.0561
 20
-0.4393
  0
SEQEND
  8
LAYER12
  0
POLYLINE
  8
LAYER12
 62
     5
 66
     1
  6
CONTINUOUS
  0
VERTEX
  8
LAYER12
 62
     5
  6
CONTINUOUS
 10
10.0398
 20
-0.4393
  0
VERTEX
  8
LAYER12
 62
     5
  6
CONTINUOUS
 10
10.0398
 20
-0.4393
  0
SEQEND
  8
LAYER12
  0
POLYLINE
  8
LAYER12
 62
     5
 66
     1
  6
CONTINUOUS
  0
VERTEX
  8
LAYER12
 62
     5
  6
CONTINUOUS
 10
10.0398
 20
-0.4393
  0
VERTEX
  8
LAYER12
 62
     5
  6
CONTINUOUS
 10
10.0398
 20
-0.4393
  0
SEQEND
  8
LAYER12
  0
POLYLINE
  8
LAYER12
 62
     5
 66
     1
  6
CONTINUOUS
  0
VERTEX
  8
LAYER12
 62
     5
  6
CONTINUOUS
 10
9.0561
 20
-1.4248
  0
VERTEX
  8
LAYER12
 62
     5
  6
CONTINUOUS
 10
9.0560
 20
-1.4248
  0
SEQEND
  8
LAYER12
  0
POLYLINE
  8
LAYER12
 62
     5
 66
     1
  6
CONTINUOUS
  0
VERTEX
  8
LAYER12
 62
     5
  6
CONTINUOUS
 10
9.0560
 20
-1.4248
  0
VERTEX
  8
LAYER12
 62
     5
  6
CONTINUOUS
 10
10.0388
 20
-1.4248
  0
SEQEND
  8
LAYER12
  0
POLYLINE
  8
LAYER12
 62
     5
 66
     1
  6
CONTINUOUS
  0
VERTEX
  8
LAYER12
 62
     5
  6
CONTINUOUS
 10
9.0561
 20
-1.4260
  0
VERTEX
  8
LAYER12
 62
     5
  6
CONTINUOUS
 10
9.0561
 20
-1.4242
  0
SEQEND
  8
LAYER12
  0
POLYLINE
  8
LAYER12
 62
     5
 66
     1
  6
CONTINUOUS
  0
VERTEX
  8
LAYER12
 62
     5
  6
CONTINUOUS
 10
9.0560
 20
-1.4248
  0
VERTEX
  8
LAYER12
 62
     5
  6
CONTINUOUS
 10
9.0561
 20
-1.4248
  0
SEQEND
  8
LAYER12
  0
POLYLINE
  8
LAYER12
 62
     5
 66
     1
  6
CONTINUOUS
  0
VERTEX
  8
LAYER12
 62
     5
  6
CONTINUOUS
 10
10.0388
 20
-0.4411
  0
VERTEX
  8
LAYER12
 62
     5
  6
CONTINUOUS
 10
9.0560
 20
-0.4411
  0
SEQEND
  8
LAYER12
  0
POLYLINE
  8
LAYER12
 62
     5
 66
     1
  6
CONTINUOUS
  0
VERTEX
  8
LAYER12
 62
     5
  6
CONTINUOUS
 10
9.0560
 20
-0.4411
  0
VERTEX
  8
LAYER12
 62
     5
  6
CONTINUOUS
 10
9.0561
 20
-0.4411
  0
SEQEND
  8
LAYER12
  0
POLYLINE
  8
LAYER12
 62
     5
 66
     1
  6
CONTINUOUS
  0
VERTEX
  8
LAYER12
 62
     5
  6
CONTINUOUS
 10
9.0561
 20
-0.4403
  0
VERTEX
  8
LAYER12
 62
     5
  6
CONTINUOUS
 10
9.0561
 20
-0.4393
  0
SEQEND
  8
LAYER12
  0
POLYLINE
  8
LAYER12
 62
     5
 66
     1
  6
CONTINUOUS
  0
VERTEX
  8
LAYER12
 62
     5
  6
CONTINUOUS
 10
9.0561
 20
-0.4411
  0
VERTEX
  8
LAYER12
 62
     5
  6
CONTINUOUS
 10
9.0560
 20
-0.4411
  0
SEQEND
  8
LAYER12
  0
POLYLINE
  8
LAYER12
 62
     5
 66
     1
  6
CONTINUOUS
  0
VERTEX
  8
LAYER12
 62
     5
  6
CONTINUOUS
 10
10.0398
 20
-0.4393
  0
VERTEX
  8
LAYER12
 62
     5
  6
CONTINUOUS
 10
10.0398
 20
-1.4221
  0
SEQEND
  8
LAYER12
  0
POLYLINE
  8
LAYER12
 62
     5
 66
     1
  6
CONTINUOUS
  0
VERTEX
  8
LAYER12
 62
     5
  6
CONTINUOUS
 10
10.0398
 20
-1.4221
  0
VERTEX
  8
LAYER12
 62
     5
  6
CONTINUOUS
 10
10.0398
 20
-1.4260
  0
SEQEND
  8
LAYER12
  0
ENDSEC
  0
EOF
