  0
SECTION
  2
HEADER
  9
$ACADVER
  1
AC1004
  9
$EXTMIN
 10
3.0752
 20
-0.4415
  9
$EXTMAX
 10
4.0589
 20
0.5426
  9
$LIMMIN
 10
3.0752
 20
-0.4415
  9
$LIMMAX
 10
4.0589
 20
0.5426
  9
$INSBASE
 10
0.0
 20
0.0
  9
$VIEWCTR
 10
7.21903
 20
4.5
  9
$VIEWSIZE
 40
9.0
  9
$SNAPMODE
 70
     0
  9
$SNAPUNIT
 10
1.0
 20
1.0
  9
$SNAPBASE
 10
0.0
 20
0.0
  9
$SNAPANG
 50
0.0
  9
$SNAPSTYLE
 70
     0
  9
$SNAPISOPAIR
 70
     0
  9
$GRIDMODE
 70
     0
  9
$GRIDUNIT
 10
0.0
 20
0.0
  9
$ORTHOMODE
 70
     0
  9
$REGENMODE
 70
     1
  9
$FILLMODE
 70
     1
  9
$QTEXTMODE
 70
     0
  9
$DRAGMODE
 70
     2
  9
$LTSCALE
 40
1.0
  9
$OSMODE
 70
     0
  9
$ATTMODE
 70
     1
  9
$TEXTSIZE
 40
0.2
  9
$TRACEWID
 40
0.05
  9
$TEXTSTYLE
  7
STANDARD
  9
$CLAYER
  8
0
  9
$CELTYPE
  6
BYLAYER
  9
$CECOLOR
 62
   256
  9
$DIMSCALE
 40
1.0
  9
$DIMASZ
 40
0.18
  9
$DIMEXO
 40
0.0625
  9
$DIMDLI
 40
0.38
  9
$DIMRND
 40
0.0
  9
$DIMDLE
 40
0.0
  9
$DIMEXE
 40
0.18
  9
$DIMTP
 40
0.0
  9
$DIMTM
 40
0.0
  9
$DIMTXT
 40
0.18
  9
$DIMCEN
 40
0.09
  9
$DIMTSZ
 40
0.0
  9
$DIMTOL
 70
     0
  9
$DIMLIM
 70
     0
  9
$DIMTIH
 70
     1
  9
$DIMTOH
 70
     1
  9
$DIMSE1
 70
     0
  9
$DIMSE2
 70
     0
  9
$DIMTAD
 70
     0
  9
$DIMZIN
 70
     0
  9
$DIMBLK
  1

  9
$DIMASO
 70
     1
  9
$DIMSHO
 70
     0
  9
$DIMPOST
  1

  9
$DIMAPOST
  1

  9
$DIMALT
 70
     0
  9
$DIMALTD
 70
     2
  9
$DIMALTF
 40
25.4
  9
$DIMLFAC
 40
1.0
  9
$LUNITS
 70
     2
  9
$LUPREC
 70
     4
  9
$AXISMODE
 70
     0
  9
$AXISUNIT
 10
0.0
 20
0.0
  9
$SKETCHINC
 40
0.1
  9
$FILLETRAD
 40
0.0
  9
$AUNITS
 70
     0
  9
$AUPREC
 70
     0
  9
$MENU
  1
acad
  9
$ELEVATION
 40
0.0
  9
$THICKNESS
 40
0.0
  9
$VIEWDIR
 10
0.0
 20
0.0
 30
1.0
  9
$LIMCHECK
 70
     0
  9
$BLIPMODE
 70
     1
  9
$CHAMFERA
 40
0.0
  9
$CHAMFERB
 40
0.0
  9
$FASTZOOM
 70
     1
  9
$SKPOLY
 70
     0
  9
$TDCREATE
 40
2447222.5666886573
  9
$TDUPDATE
 40
2447222.5666886573
  9
$TDINDWG
 40
0.0000000000
  9
$TDUSRTIMER
 40
0.0000000000
  9
$USRTIMER
 70
     1
  9
$ANGBASE
 50
0.0
  9
$ANGDIR
 70
     0
  9
$PDMODE
 70
     0
  9
$PDSIZE
 40
0.0
  9
$PLINEWID
 40
0.0
  9
$COORDS
 70
     0
  9
$SPLFRAME
 70
     0
  9
$SPLINESEGS
 70
     8
  9
$ATTDIA
 70
     0
  9
$ATTREQ
 70
     1
  9
$USERI1
 70
     0
  9
$USERI2
 70
     0
  9
$USERI3
 70
     0
  9
$USERI4
 70
     0
  9
$USERI5
 70
     0
  9
$USERR1
 40
0.0
  9
$USERR2
 40
0.0
  9
$USERR3
 40
0.0
  9
$USERR4
 40
0.0
  9
$USERR5
 40
0.0
  0
ENDSEC
  0
SECTION
  2
TABLES
  0
TABLE
  2
LTYPE
 70
     13
  0
LTYPE
  2
CONTINUOUS
 70
    64
  3
Solid line
 72
    65
 73
     0
 40
0.0
  0
LTYPE
  2
DASHED
 70
    64
  3
__ __ __ __ __ __ __ __ __ __ __ __ __ __ __
 72
    65
 73
     2
 40
0.75
 49
0.5
 49
-0.25
  0
LTYPE
  2
HIDDEN
 70
    64
  3
_ _ _ _ _ _ _ _ _ _ _ _ _ _ _ _ _ _ _ _ _ _ _
 72
    65
 73
     2
 40
0.375
 49
0.25
 49
-0.125
  0
LTYPE
  2
CENTER
 70
    64
  3
____ _ ____ _ ____ _ ____ _ ____ _ ____ _ ____
 72
    65
 73
     4
 40
2.0
 49
1.25
 49
-0.25
 49
0.25
 49
-0.25
  0
LTYPE
  2
PHANTOM
 70
    64
  3
_____ _ _ _____ _ _ _____ _ _ _____ _ _ ____
 72
    65
 73
     6
 40
2.5
 49
1.25
 49
-0.25
 49
0.25
 49
-0.25
 49
0.25
 49
-0.25
  0
LTYPE
  2
DOT
 70
    64
  3
...............................................
 72
    65
 73
     2
 40
0.25
 49
0.0
 49
-0.25
  0
LTYPE
  2
DASHDOT
 70
    64
  3
__ . __ . __ . __ . __ . __ . __ . __ . __ . __
 72
    65
 73
     4
 40
1.0
 49
0.5
 49
-0.25
 49
0.0
 49
-0.25
  0
LTYPE
  2
BORDER
 70
    64
  3
__ __ . __ __ . __ __ . __ __ . __ __ . __ __
 72
    65
 73
     6
 40
1.75
 49
0.5
 49
-0.25
 49
0.5
 49
-0.25
 49
0.0
 49
-0.25
  0
LTYPE
  2
DIVIDE
 70
    64
  3
__ . . __ . . __ . . __ . . __ . . __ . . __
 72
    65
 73
     6
 40
1.25
 49
0.5
 49
-0.25
 49
0.0
 49
-0.25
 49
0.0
 49
-0.25
  0
LTYPE
  2
DCTYPE1
 70
    64
  3
__ . . __ . . __ . . __ . . __ . . __ . . __
 72
    65
 73
     8
 40
2.5
 49
0.5
 49
-0.25
 49
0.125
 49
-0.25
 49
0.25
 49
-0.25
 49
0.125
 49
-0.25
  0
LTYPE
  2
DCTYPE2
 70
    64
  3
__ . . __ . . __ . . __ . . __ . . __ . . __
 72
    65
 73
     6
 40
2.05
 49
1.0
 49
-0.3
 49
0.15
 49
-0.15
 49
0.15
 49
-0.3
  0
LTYPE
  2
DCTYPE3
 70
    64
  3
__ . . __ . . __ . . __ . . __ . . __ . . __
 72
    65
 73
     6
 40
2.5
 49
0.8
 49
-0.2
 49
0.8
 49
-0.2
 49
0.3
 49
-0.2
  0
LTYPE
  2
DCTYPE4
 70
    64
  3
__ . . __ . . __ . . __ . . __ . . __ . . __
 72
    65
 73
     10
 40
3.97
 49
1.75
 49
-0.3
 49
0.3
 49
-0.3
 49
0.06
 49
-0.3
 49
0.06
 49
-0.3
 49
0.3
 49
-0.3
  0
ENDTAB
  0
TABLE
  2
LAYER
 70
    153
  0
LAYER
  2
LAYER1
 70
 64
 62
     7
  6
CONTINUOUS
  0
LAYER
  2
LAYER10
 70
 64
 62
     1
  6
CONTINUOUS
  0
LAYER
  2
LAYER12
 70
 64
 62
     5
  6
CONTINUOUS
  0
ENDTAB
  0
ENDSEC
  0
SECTION
  2
BLOCKS
  0
ENDSEC
  0
SECTION
  2
ENTITIES
  0
CIRCLE
  8
LAYER1
 62
     7
  6
CONTINUOUS
 10
3.3129
 20
0.1512
 40
0.0209
  0
CIRCLE
  8
LAYER1
 62
     7
  6
CONTINUOUS
 10
3.4879
 20
0.0899
 40
0.0057
  0
CIRCLE
  8
LAYER1
 62
     7
  6
CONTINUOUS
 10
3.5453
 20
-0.3393
 40
0.0127
  0
CIRCLE
  8
LAYER1
 62
     7
  6
CONTINUOUS
 10
3.5737
 20
-0.1566
 40
0.0080
  0
CIRCLE
  8
LAYER1
 62
     7
  6
CONTINUOUS
 10
3.5484
 20
-0.1261
 40
0.0080
  0
CIRCLE
  8
LAYER1
 62
     7
  6
CONTINUOUS
 10
3.5891
 20
-0.0932
 40
0.0306
  0
CIRCLE
  8
LAYER1
 62
     7
  6
CONTINUOUS
 10
3.8272
 20
-0.3095
 40
0.0230
  0
POLYLINE
  8
LAYER10
 62
     1
 66
     1
  6
CONTINUOUS
  0
VERTEX
  8
LAYER10
 62
     1
  6
CONTINUOUS
 10
3.0752
 20
-0.1430
  0
VERTEX
  8
LAYER10
 62
     1
  6
CONTINUOUS
 10
3.0752
 20
-0.1430
  0
VERTEX
  8
LAYER10
 62
     1
  6
CONTINUOUS
 10
3.0752
 20
-0.1430
  0
VERTEX
  8
LAYER10
 62
     1
  6
CONTINUOUS
 10
3.0752
 20
-0.1430
  0
VERTEX
  8
LAYER10
 62
     1
  6
CONTINUOUS
 10
3.0752
 20
-0.1430
  0
VERTEX
  8
LAYER10
 62
     1
  6
CONTINUOUS
 10
3.0752
 20
-0.1430
  0
VERTEX
  8
LAYER10
 62
     1
  6
CONTINUOUS
 10
3.0752
 20
-0.1430
  0
VERTEX
  8
LAYER10
 62
     1
  6
CONTINUOUS
 10
3.0752
 20
-0.1430
  0
VERTEX
  8
LAYER10
 62
     1
  6
CONTINUOUS
 10
3.0752
 20
-0.1430
  0
VERTEX
  8
LAYER10
 62
     1
  6
CONTINUOUS
 10
3.0752
 20
-0.1430
  0
VERTEX
  8
LAYER10
 62
     1
  6
CONTINUOUS
 10
3.0752
 20
-0.1430
  0
VERTEX
  8
LAYER10
 62
     1
  6
CONTINUOUS
 10
3.0752
 20
-0.1430
  0
VERTEX
  8
LAYER10
 62
     1
  6
CONTINUOUS
 10
3.0752
 20
-0.1430
  0
VERTEX
  8
LAYER10
 62
     1
  6
CONTINUOUS
 10
3.0752
 20
-0.1430
  0
VERTEX
  8
LAYER10
 62
     1
  6
CONTINUOUS
 10
3.0752
 20
-0.1430
  0
VERTEX
  8
LAYER10
 62
     1
  6
CONTINUOUS
 10
3.0752
 20
-0.1430
  0
VERTEX
  8
LAYER10
 62
     1
  6
CONTINUOUS
 10
3.0752
 20
-0.1430
  0
VERTEX
  8
LAYER10
 62
     1
  6
CONTINUOUS
 10
3.0752
 20
-0.1430
  0
VERTEX
  8
LAYER10
 62
     1
  6
CONTINUOUS
 10
3.0752
 20
-0.1430
  0
VERTEX
  8
LAYER10
 62
     1
  6
CONTINUOUS
 10
3.0752
 20
-0.1430
  0
VERTEX
  8
LAYER10
 62
     1
  6
CONTINUOUS
 10
3.0752
 20
-0.1430
  0
VERTEX
  8
LAYER10
 62
     1
  6
CONTINUOUS
 10
3.0752
 20
-0.1430
  0
VERTEX
  8
LAYER10
 62
     1
  6
CONTINUOUS
 10
3.0752
 20
-0.1430
  0
VERTEX
  8
LAYER10
 62
     1
  6
CONTINUOUS
 10
3.0752
 20
-0.1430
  0
VERTEX
  8
LAYER10
 62
     1
  6
CONTINUOUS
 10
3.0752
 20
-0.1430
  0
SEQEND
  8
LAYER10
  0
POLYLINE
  8
LAYER10
 62
     1
 66
     1
  6
CONTINUOUS
  0
VERTEX
  8
LAYER10
 62
     1
  6
CONTINUOUS
 10
4.0589
 20
-0.1328
  0
VERTEX
  8
LAYER10
 62
     1
  6
CONTINUOUS
 10
4.0589
 20
-0.1326
  0
VERTEX
  8
LAYER10
 62
     1
  6
CONTINUOUS
 10
4.0589
 20
-0.1323
  0
VERTEX
  8
LAYER10
 62
     1
  6
CONTINUOUS
 10
4.0588
 20
-0.1321
  0
VERTEX
  8
LAYER10
 62
     1
  6
CONTINUOUS
 10
4.0588
 20
-0.1318
  0
VERTEX
  8
LAYER10
 62
     1
  6
CONTINUOUS
 10
4.0588
 20
-0.1316
  0
VERTEX
  8
LAYER10
 62
     1
  6
CONTINUOUS
 10
4.0588
 20
-0.1313
  0
VERTEX
  8
LAYER10
 62
     1
  6
CONTINUOUS
 10
4.0587
 20
-0.1311
  0
VERTEX
  8
LAYER10
 62
     1
  6
CONTINUOUS
 10
4.0587
 20
-0.1308
  0
VERTEX
  8
LAYER10
 62
     1
  6
CONTINUOUS
 10
4.0587
 20
-0.1306
  0
VERTEX
  8
LAYER10
 62
     1
  6
CONTINUOUS
 10
4.0587
 20
-0.1303
  0
VERTEX
  8
LAYER10
 62
     1
  6
CONTINUOUS
 10
4.0587
 20
-0.1301
  0
VERTEX
  8
LAYER10
 62
     1
  6
CONTINUOUS
 10
4.0587
 20
-0.1298
  0
VERTEX
  8
LAYER10
 62
     1
  6
CONTINUOUS
 10
4.0587
 20
-0.1295
  0
VERTEX
  8
LAYER10
 62
     1
  6
CONTINUOUS
 10
4.0587
 20
-0.1292
  0
VERTEX
  8
LAYER10
 62
     1
  6
CONTINUOUS
 10
4.0587
 20
-0.1289
  0
VERTEX
  8
LAYER10
 62
     1
  6
CONTINUOUS
 10
4.0587
 20
-0.1286
  0
VERTEX
  8
LAYER10
 62
     1
  6
CONTINUOUS
 10
4.0587
 20
-0.1282
  0
VERTEX
  8
LAYER10
 62
     1
  6
CONTINUOUS
 10
4.0587
 20
-0.1279
  0
VERTEX
  8
LAYER10
 62
     1
  6
CONTINUOUS
 10
4.0588
 20
-0.1276
  0
VERTEX
  8
LAYER10
 62
     1
  6
CONTINUOUS
 10
4.0588
 20
-0.1273
  0
VERTEX
  8
LAYER10
 62
     1
  6
CONTINUOUS
 10
4.0588
 20
-0.1270
  0
VERTEX
  8
LAYER10
 62
     1
  6
CONTINUOUS
 10
4.0589
 20
-0.1267
  0
VERTEX
  8
LAYER10
 62
     1
  6
CONTINUOUS
 10
4.0589
 20
-0.1264
  0
VERTEX
  8
LAYER10
 62
     1
  6
CONTINUOUS
 10
4.0589
 20
-0.1261
  0
SEQEND
  8
LAYER10
  0
POLYLINE
  8
LAYER10
 62
     1
 66
     1
  6
CONTINUOUS
  0
VERTEX
  8
LAYER10
 62
     1
  6
CONTINUOUS
 10
3.0752
 20
-0.1430
  0
VERTEX
  8
LAYER10
 62
     1
  6
CONTINUOUS
 10
3.0752
 20
-0.1430
  0
VERTEX
  8
LAYER10
 62
     1
  6
CONTINUOUS
 10
3.0752
 20
-0.1430
  0
VERTEX
  8
LAYER10
 62
     1
  6
CONTINUOUS
 10
3.0752
 20
-0.1430
  0
VERTEX
  8
LAYER10
 62
     1
  6
CONTINUOUS
 10
3.0752
 20
-0.1430
  0
VERTEX
  8
LAYER10
 62
     1
  6
CONTINUOUS
 10
3.0752
 20
-0.1430
  0
VERTEX
  8
LAYER10
 62
     1
  6
CONTINUOUS
 10
3.0752
 20
-0.1430
  0
VERTEX
  8
LAYER10
 62
     1
  6
CONTINUOUS
 10
3.0752
 20
-0.1430
  0
VERTEX
  8
LAYER10
 62
     1
  6
CONTINUOUS
 10
3.0752
 20
-0.1430
  0
VERTEX
  8
LAYER10
 62
     1
  6
CONTINUOUS
 10
3.0752
 20
-0.1430
  0
VERTEX
  8
LAYER10
 62
     1
  6
CONTINUOUS
 10
3.0752
 20
-0.1430
  0
VERTEX
  8
LAYER10
 62
     1
  6
CONTINUOUS
 10
3.0752
 20
-0.1430
  0
VERTEX
  8
LAYER10
 62
     1
  6
CONTINUOUS
 10
3.0752
 20
-0.1430
  0
VERTEX
  8
LAYER10
 62
     1
  6
CONTINUOUS
 10
3.0752
 20
-0.1430
  0
VERTEX
  8
LAYER10
 62
     1
  6
CONTINUOUS
 10
3.0752
 20
-0.1430
  0
VERTEX
  8
LAYER10
 62
     1
  6
CONTINUOUS
 10
3.0752
 20
-0.1430
  0
VERTEX
  8
LAYER10
 62
     1
  6
CONTINUOUS
 10
3.0752
 20
-0.1430
  0
VERTEX
  8
LAYER10
 62
     1
  6
CONTINUOUS
 10
3.0752
 20
-0.1430
  0
VERTEX
  8
LAYER10
 62
     1
  6
CONTINUOUS
 10
3.0752
 20
-0.1430
  0
VERTEX
  8
LAYER10
 62
     1
  6
CONTINUOUS
 10
3.0752
 20
-0.1430
  0
VERTEX
  8
LAYER10
 62
     1
  6
CONTINUOUS
 10
3.0752
 20
-0.1430
  0
VERTEX
  8
LAYER10
 62
     1
  6
CONTINUOUS
 10
3.0752
 20
-0.1430
  0
VERTEX
  8
LAYER10
 62
     1
  6
CONTINUOUS
 10
3.0752
 20
-0.1430
  0
VERTEX
  8
LAYER10
 62
     1
  6
CONTINUOUS
 10
3.0752
 20
-0.1430
  0
VERTEX
  8
LAYER10
 62
     1
  6
CONTINUOUS
 10
3.0752
 20
-0.1430
  0
SEQEND
  8
LAYER10
  0
POLYLINE
  8
LAYER10
 62
     1
 66
     1
  6
CONTINUOUS
  0
VERTEX
  8
LAYER10
 62
     1
  6
CONTINUOUS
 10
3.0752
 20
-0.1430
  0
VERTEX
  8
LAYER10
 62
     1
  6
CONTINUOUS
 10
3.0752
 20
-0.1430
  0
VERTEX
  8
LAYER10
 62
     1
  6
CONTINUOUS
 10
3.0752
 20
-0.1430
  0
VERTEX
  8
LAYER10
 62
     1
  6
CONTINUOUS
 10
3.0752
 20
-0.1430
  0
VERTEX
  8
LAYER10
 62
     1
  6
CONTINUOUS
 10
3.0752
 20
-0.1430
  0
VERTEX
  8
LAYER10
 62
     1
  6
CONTINUOUS
 10
3.0752
 20
-0.1430
  0
VERTEX
  8
LAYER10
 62
     1
  6
CONTINUOUS
 10
3.0752
 20
-0.1430
  0
VERTEX
  8
LAYER10
 62
     1
  6
CONTINUOUS
 10
3.0752
 20
-0.1430
  0
VERTEX
  8
LAYER10
 62
     1
  6
CONTINUOUS
 10
3.0752
 20
-0.1430
  0
VERTEX
  8
LAYER10
 62
     1
  6
CONTINUOUS
 10
3.0752
 20
-0.1430
  0
VERTEX
  8
LAYER10
 62
     1
  6
CONTINUOUS
 10
3.0752
 20
-0.1430
  0
VERTEX
  8
LAYER10
 62
     1
  6
CONTINUOUS
 10
3.0752
 20
-0.1430
  0
VERTEX
  8
LAYER10
 62
     1
  6
CONTINUOUS
 10
3.0752
 20
-0.1430
  0
VERTEX
  8
LAYER10
 62
     1
  6
CONTINUOUS
 10
3.0752
 20
-0.1430
  0
VERTEX
  8
LAYER10
 62
     1
  6
CONTINUOUS
 10
3.0752
 20
-0.1430
  0
VERTEX
  8
LAYER10
 62
     1
  6
CONTINUOUS
 10
3.0752
 20
-0.1430
  0
VERTEX
  8
LAYER10
 62
     1
  6
CONTINUOUS
 10
3.0752
 20
-0.1430
  0
VERTEX
  8
LAYER10
 62
     1
  6
CONTINUOUS
 10
3.0752
 20
-0.1430
  0
VERTEX
  8
LAYER10
 62
     1
  6
CONTINUOUS
 10
3.0752
 20
-0.1430
  0
VERTEX
  8
LAYER10
 62
     1
  6
CONTINUOUS
 10
3.0752
 20
-0.1430
  0
VERTEX
  8
LAYER10
 62
     1
  6
CONTINUOUS
 10
3.0752
 20
-0.1430
  0
VERTEX
  8
LAYER10
 62
     1
  6
CONTINUOUS
 10
3.0752
 20
-0.1430
  0
VERTEX
  8
LAYER10
 62
     1
  6
CONTINUOUS
 10
3.0752
 20
-0.1430
  0
VERTEX
  8
LAYER10
 62
     1
  6
CONTINUOUS
 10
3.0752
 20
-0.1430
  0
VERTEX
  8
LAYER10
 62
     1
  6
CONTINUOUS
 10
3.0752
 20
-0.1430
  0
SEQEND
  8
LAYER10
  0
POLYLINE
  8
LAYER10
 62
     1
 66
     1
  6
CONTINUOUS
  0
VERTEX
  8
LAYER10
 62
     1
  6
CONTINUOUS
 10
3.0752
 20
-0.1430
  0
VERTEX
  8
LAYER10
 62
     1
  6
CONTINUOUS
 10
3.0752
 20
-0.1430
  0
VERTEX
  8
LAYER10
 62
     1
  6
CONTINUOUS
 10
3.0752
 20
-0.1430
  0
VERTEX
  8
LAYER10
 62
     1
  6
CONTINUOUS
 10
3.0752
 20
-0.1430
  0
VERTEX
  8
LAYER10
 62
     1
  6
CONTINUOUS
 10
3.0752
 20
-0.1430
  0
VERTEX
  8
LAYER10
 62
     1
  6
CONTINUOUS
 10
3.0752
 20
-0.1430
  0
VERTEX
  8
LAYER10
 62
     1
  6
CONTINUOUS
 10
3.0752
 20
-0.1430
  0
VERTEX
  8
LAYER10
 62
     1
  6
CONTINUOUS
 10
3.0752
 20
-0.1430
  0
VERTEX
  8
LAYER10
 62
     1
  6
CONTINUOUS
 10
3.0752
 20
-0.1430
  0
VERTEX
  8
LAYER10
 62
     1
  6
CONTINUOUS
 10
3.0752
 20
-0.1430
  0
VERTEX
  8
LAYER10
 62
     1
  6
CONTINUOUS
 10
3.0752
 20
-0.1430
  0
VERTEX
  8
LAYER10
 62
     1
  6
CONTINUOUS
 10
3.0752
 20
-0.1430
  0
VERTEX
  8
LAYER10
 62
     1
  6
CONTINUOUS
 10
3.0752
 20
-0.1430
  0
VERTEX
  8
LAYER10
 62
     1
  6
CONTINUOUS
 10
3.0752
 20
-0.1430
  0
VERTEX
  8
LAYER10
 62
     1
  6
CONTINUOUS
 10
3.0752
 20
-0.1430
  0
VERTEX
  8
LAYER10
 62
     1
  6
CONTINUOUS
 10
3.0752
 20
-0.1430
  0
VERTEX
  8
LAYER10
 62
     1
  6
CONTINUOUS
 10
3.0752
 20
-0.1430
  0
VERTEX
  8
LAYER10
 62
     1
  6
CONTINUOUS
 10
3.0752
 20
-0.1430
  0
VERTEX
  8
LAYER10
 62
     1
  6
CONTINUOUS
 10
3.0752
 20
-0.1430
  0
VERTEX
  8
LAYER10
 62
     1
  6
CONTINUOUS
 10
3.0752
 20
-0.1430
  0
VERTEX
  8
LAYER10
 62
     1
  6
CONTINUOUS
 10
3.0752
 20
-0.1430
  0
VERTEX
  8
LAYER10
 62
     1
  6
CONTINUOUS
 10
3.0752
 20
-0.1430
  0
VERTEX
  8
LAYER10
 62
     1
  6
CONTINUOUS
 10
3.0752
 20
-0.1430
  0
VERTEX
  8
LAYER10
 62
     1
  6
CONTINUOUS
 10
3.0752
 20
-0.1430
  0
VERTEX
  8
LAYER10
 62
     1
  6
CONTINUOUS
 10
3.0752
 20
-0.1430
  0
SEQEND
  8
LAYER10
  0
POLYLINE
  8
LAYER10
 62
     1
 66
     1
  6
CONTINUOUS
  0
VERTEX
  8
LAYER10
 62
     1
  6
CONTINUOUS
 10
3.0752
 20
-0.1430
  0
VERTEX
  8
LAYER10
 62
     1
  6
CONTINUOUS
 10
3.0772
 20
-0.1435
  0
VERTEX
  8
LAYER10
 62
     1
  6
CONTINUOUS
 10
3.0791
 20
-0.1439
  0
VERTEX
  8
LAYER10
 62
     1
  6
CONTINUOUS
 10
3.0811
 20
-0.1444
  0
VERTEX
  8
LAYER10
 62
     1
  6
CONTINUOUS
 10
3.0831
 20
-0.1448
  0
VERTEX
  8
LAYER10
 62
     1
  6
CONTINUOUS
 10
3.0850
 20
-0.1452
  0
VERTEX
  8
LAYER10
 62
     1
  6
CONTINUOUS
 10
3.0870
 20
-0.1456
  0
VERTEX
  8
LAYER10
 62
     1
  6
CONTINUOUS
 10
3.0890
 20
-0.1461
  0
VERTEX
  8
LAYER10
 62
     1
  6
CONTINUOUS
 10
3.0910
 20
-0.1464
  0
VERTEX
  8
LAYER10
 62
     1
  6
CONTINUOUS
 10
3.0929
 20
-0.1468
  0
VERTEX
  8
LAYER10
 62
     1
  6
CONTINUOUS
 10
3.0949
 20
-0.1472
  0
VERTEX
  8
LAYER10
 62
     1
  6
CONTINUOUS
 10
3.0969
 20
-0.1475
  0
VERTEX
  8
LAYER10
 62
     1
  6
CONTINUOUS
 10
3.0989
 20
-0.1479
  0
VERTEX
  8
LAYER10
 62
     1
  6
CONTINUOUS
 10
3.1011
 20
-0.1482
  0
VERTEX
  8
LAYER10
 62
     1
  6
CONTINUOUS
 10
3.1032
 20
-0.1485
  0
VERTEX
  8
LAYER10
 62
     1
  6
CONTINUOUS
 10
3.1054
 20
-0.1488
  0
VERTEX
  8
LAYER10
 62
     1
  6
CONTINUOUS
 10
3.1075
 20
-0.1491
  0
VERTEX
  8
LAYER10
 62
     1
  6
CONTINUOUS
 10
3.1097
 20
-0.1495
  0
VERTEX
  8
LAYER10
 62
     1
  6
CONTINUOUS
 10
3.1118
 20
-0.1498
  0
VERTEX
  8
LAYER10
 62
     1
  6
CONTINUOUS
 10
3.1140
 20
-0.1502
  0
VERTEX
  8
LAYER10
 62
     1
  6
CONTINUOUS
 10
3.1161
 20
-0.1506
  0
VERTEX
  8
LAYER10
 62
     1
  6
CONTINUOUS
 10
3.1182
 20
-0.1511
  0
VERTEX
  8
LAYER10
 62
     1
  6
CONTINUOUS
 10
3.1202
 20
-0.1517
  0
VERTEX
  8
LAYER10
 62
     1
  6
CONTINUOUS
 10
3.1223
 20
-0.1523
  0
VERTEX
  8
LAYER10
 62
     1
  6
CONTINUOUS
 10
3.1243
 20
-0.1530
  0
VERTEX
  8
LAYER10
 62
     1
  6
CONTINUOUS
 10
3.1266
 20
-0.1539
  0
VERTEX
  8
LAYER10
 62
     1
  6
CONTINUOUS
 10
3.1288
 20
-0.1550
  0
VERTEX
  8
LAYER10
 62
     1
  6
CONTINUOUS
 10
3.1310
 20
-0.1561
  0
VERTEX
  8
LAYER10
 62
     1
  6
CONTINUOUS
 10
3.1331
 20
-0.1573
  0
VERTEX
  8
LAYER10
 62
     1
  6
CONTINUOUS
 10
3.1353
 20
-0.1586
  0
VERTEX
  8
LAYER10
 62
     1
  6
CONTINUOUS
 10
3.1374
 20
-0.1600
  0
VERTEX
  8
LAYER10
 62
     1
  6
CONTINUOUS
 10
3.1394
 20
-0.1613
  0
VERTEX
  8
LAYER10
 62
     1
  6
CONTINUOUS
 10
3.1415
 20
-0.1627
  0
VERTEX
  8
LAYER10
 62
     1
  6
CONTINUOUS
 10
3.1436
 20
-0.1641
  0
VERTEX
  8
LAYER10
 62
     1
  6
CONTINUOUS
 10
3.1456
 20
-0.1656
  0
VERTEX
  8
LAYER10
 62
     1
  6
CONTINUOUS
 10
3.1476
 20
-0.1669
  0
VERTEX
  8
LAYER10
 62
     1
  6
CONTINUOUS
 10
3.1497
 20
-0.1683
  0
VERTEX
  8
LAYER10
 62
     1
  6
CONTINUOUS
 10
3.1517
 20
-0.1696
  0
VERTEX
  8
LAYER10
 62
     1
  6
CONTINUOUS
 10
3.1537
 20
-0.1709
  0
VERTEX
  8
LAYER10
 62
     1
  6
CONTINUOUS
 10
3.1558
 20
-0.1721
  0
VERTEX
  8
LAYER10
 62
     1
  6
CONTINUOUS
 10
3.1578
 20
-0.1733
  0
VERTEX
  8
LAYER10
 62
     1
  6
CONTINUOUS
 10
3.1599
 20
-0.1746
  0
VERTEX
  8
LAYER10
 62
     1
  6
CONTINUOUS
 10
3.1620
 20
-0.1758
  0
VERTEX
  8
LAYER10
 62
     1
  6
CONTINUOUS
 10
3.1641
 20
-0.1770
  0
VERTEX
  8
LAYER10
 62
     1
  6
CONTINUOUS
 10
3.1662
 20
-0.1782
  0
VERTEX
  8
LAYER10
 62
     1
  6
CONTINUOUS
 10
3.1684
 20
-0.1795
  0
VERTEX
  8
LAYER10
 62
     1
  6
CONTINUOUS
 10
3.1705
 20
-0.1808
  0
VERTEX
  8
LAYER10
 62
     1
  6
CONTINUOUS
 10
3.1728
 20
-0.1822
  0
VERTEX
  8
LAYER10
 62
     1
  6
CONTINUOUS
 10
3.1750
 20
-0.1836
  0
VERTEX
  8
LAYER10
 62
     1
  6
CONTINUOUS
 10
3.1767
 20
-0.1847
  0
VERTEX
  8
LAYER10
 62
     1
  6
CONTINUOUS
 10
3.1783
 20
-0.1858
  0
VERTEX
  8
LAYER10
 62
     1
  6
CONTINUOUS
 10
3.1800
 20
-0.1869
  0
VERTEX
  8
LAYER10
 62
     1
  6
CONTINUOUS
 10
3.1815
 20
-0.1881
  0
VERTEX
  8
LAYER10
 62
     1
  6
CONTINUOUS
 10
3.1831
 20
-0.1893
  0
VERTEX
  8
LAYER10
 62
     1
  6
CONTINUOUS
 10
3.1845
 20
-0.1905
  0
VERTEX
  8
LAYER10
 62
     1
  6
CONTINUOUS
 10
3.1859
 20
-0.1918
  0
VERTEX
  8
LAYER10
 62
     1
  6
CONTINUOUS
 10
3.1871
 20
-0.1932
  0
VERTEX
  8
LAYER10
 62
     1
  6
CONTINUOUS
 10
3.1881
 20
-0.1945
  0
VERTEX
  8
LAYER10
 62
     1
  6
CONTINUOUS
 10
3.1890
 20
-0.1959
  0
VERTEX
  8
LAYER10
 62
     1
  6
CONTINUOUS
 10
3.1897
 20
-0.1974
  0
VERTEX
  8
LAYER10
 62
     1
  6
CONTINUOUS
 10
3.1902
 20
-0.1989
  0
VERTEX
  8
LAYER10
 62
     1
  6
CONTINUOUS
 10
3.1905
 20
-0.2008
  0
VERTEX
  8
LAYER10
 62
     1
  6
CONTINUOUS
 10
3.1905
 20
-0.2028
  0
VERTEX
  8
LAYER10
 62
     1
  6
CONTINUOUS
 10
3.1901
 20
-0.2048
  0
VERTEX
  8
LAYER10
 62
     1
  6
CONTINUOUS
 10
3.1895
 20
-0.2069
  0
VERTEX
  8
LAYER10
 62
     1
  6
CONTINUOUS
 10
3.1887
 20
-0.2090
  0
VERTEX
  8
LAYER10
 62
     1
  6
CONTINUOUS
 10
3.1877
 20
-0.2112
  0
VERTEX
  8
LAYER10
 62
     1
  6
CONTINUOUS
 10
3.1865
 20
-0.2134
  0
VERTEX
  8
LAYER10
 62
     1
  6
CONTINUOUS
 10
3.1853
 20
-0.2155
  0
VERTEX
  8
LAYER10
 62
     1
  6
CONTINUOUS
 10
3.1840
 20
-0.2177
  0
VERTEX
  8
LAYER10
 62
     1
  6
CONTINUOUS
 10
3.1826
 20
-0.2199
  0
VERTEX
  8
LAYER10
 62
     1
  6
CONTINUOUS
 10
3.1813
 20
-0.2221
  0
VERTEX
  8
LAYER10
 62
     1
  6
CONTINUOUS
 10
3.1800
 20
-0.2242
  0
VERTEX
  8
LAYER10
 62
     1
  6
CONTINUOUS
 10
3.1790
 20
-0.2260
  0
VERTEX
  8
LAYER10
 62
     1
  6
CONTINUOUS
 10
3.1780
 20
-0.2278
  0
VERTEX
  8
LAYER10
 62
     1
  6
CONTINUOUS
 10
3.1771
 20
-0.2295
  0
VERTEX
  8
LAYER10
 62
     1
  6
CONTINUOUS
 10
3.1763
 20
-0.2312
  0
VERTEX
  8
LAYER10
 62
     1
  6
CONTINUOUS
 10
3.1754
 20
-0.2329
  0
VERTEX
  8
LAYER10
 62
     1
  6
CONTINUOUS
 10
3.1746
 20
-0.2346
  0
VERTEX
  8
LAYER10
 62
     1
  6
CONTINUOUS
 10
3.1738
 20
-0.2363
  0
VERTEX
  8
LAYER10
 62
     1
  6
CONTINUOUS
 10
3.1730
 20
-0.2380
  0
VERTEX
  8
LAYER10
 62
     1
  6
CONTINUOUS
 10
3.1722
 20
-0.2396
  0
VERTEX
  8
LAYER10
 62
     1
  6
CONTINUOUS
 10
3.1714
 20
-0.2413
  0
VERTEX
  8
LAYER10
 62
     1
  6
CONTINUOUS
 10
3.1706
 20
-0.2429
  0
VERTEX
  8
LAYER10
 62
     1
  6
CONTINUOUS
 10
3.1698
 20
-0.2445
  0
VERTEX
  8
LAYER10
 62
     1
  6
CONTINUOUS
 10
3.1689
 20
-0.2461
  0
VERTEX
  8
LAYER10
 62
     1
  6
CONTINUOUS
 10
3.1681
 20
-0.2477
  0
VERTEX
  8
LAYER10
 62
     1
  6
CONTINUOUS
 10
3.1672
 20
-0.2493
  0
VERTEX
  8
LAYER10
 62
     1
  6
CONTINUOUS
 10
3.1663
 20
-0.2509
  0
VERTEX
  8
LAYER10
 62
     1
  6
CONTINUOUS
 10
3.1653
 20
-0.2526
  0
VERTEX
  8
LAYER10
 62
     1
  6
CONTINUOUS
 10
3.1645
 20
-0.2542
  0
VERTEX
  8
LAYER10
 62
     1
  6
CONTINUOUS
 10
3.1636
 20
-0.2559
  0
VERTEX
  8
LAYER10
 62
     1
  6
CONTINUOUS
 10
3.1627
 20
-0.2576
  0
VERTEX
  8
LAYER10
 62
     1
  6
CONTINUOUS
 10
3.1619
 20
-0.2593
  0
VERTEX
  8
LAYER10
 62
     1
  6
CONTINUOUS
 10
3.1611
 20
-0.2611
  0
VERTEX
  8
LAYER10
 62
     1
  6
CONTINUOUS
 10
3.1603
 20
-0.2629
  0
VERTEX
  8
LAYER10
 62
     1
  6
CONTINUOUS
 10
3.1596
 20
-0.2648
  0
VERTEX
  8
LAYER10
 62
     1
  6
CONTINUOUS
 10
3.1588
 20
-0.2670
  0
VERTEX
  8
LAYER10
 62
     1
  6
CONTINUOUS
 10
3.1582
 20
-0.2692
  0
VERTEX
  8
LAYER10
 62
     1
  6
CONTINUOUS
 10
3.1576
 20
-0.2714
  0
VERTEX
  8
LAYER10
 62
     1
  6
CONTINUOUS
 10
3.1572
 20
-0.2737
  0
VERTEX
  8
LAYER10
 62
     1
  6
CONTINUOUS
 10
3.1569
 20
-0.2760
  0
VERTEX
  8
LAYER10
 62
     1
  6
CONTINUOUS
 10
3.1567
 20
-0.2782
  0
VERTEX
  8
LAYER10
 62
     1
  6
CONTINUOUS
 10
3.1567
 20
-0.2804
  0
VERTEX
  8
LAYER10
 62
     1
  6
CONTINUOUS
 10
3.1569
 20
-0.2826
  0
VERTEX
  8
LAYER10
 62
     1
  6
CONTINUOUS
 10
3.1572
 20
-0.2846
  0
VERTEX
  8
LAYER10
 62
     1
  6
CONTINUOUS
 10
3.1578
 20
-0.2866
  0
VERTEX
  8
LAYER10
 62
     1
  6
CONTINUOUS
 10
3.1585
 20
-0.2885
  0
VERTEX
  8
LAYER10
 62
     1
  6
CONTINUOUS
 10
3.1595
 20
-0.2902
  0
VERTEX
  8
LAYER10
 62
     1
  6
CONTINUOUS
 10
3.1608
 20
-0.2918
  0
VERTEX
  8
LAYER10
 62
     1
  6
CONTINUOUS
 10
3.1622
 20
-0.2932
  0
VERTEX
  8
LAYER10
 62
     1
  6
CONTINUOUS
 10
3.1638
 20
-0.2945
  0
VERTEX
  8
LAYER10
 62
     1
  6
CONTINUOUS
 10
3.1656
 20
-0.2958
  0
VERTEX
  8
LAYER10
 62
     1
  6
CONTINUOUS
 10
3.1674
 20
-0.2969
  0
VERTEX
  8
LAYER10
 62
     1
  6
CONTINUOUS
 10
3.1693
 20
-0.2981
  0
VERTEX
  8
LAYER10
 62
     1
  6
CONTINUOUS
 10
3.1712
 20
-0.2992
  0
VERTEX
  8
LAYER10
 62
     1
  6
CONTINUOUS
 10
3.1731
 20
-0.3004
  0
VERTEX
  8
LAYER10
 62
     1
  6
CONTINUOUS
 10
3.1750
 20
-0.3015
  0
VERTEX
  8
LAYER10
 62
     1
  6
CONTINUOUS
 10
3.1767
 20
-0.3027
  0
VERTEX
  8
LAYER10
 62
     1
  6
CONTINUOUS
 10
3.1783
 20
-0.3041
  0
VERTEX
  8
LAYER10
 62
     1
  6
CONTINUOUS
 10
3.1798
 20
-0.3055
  0
VERTEX
  8
LAYER10
 62
     1
  6
CONTINUOUS
 10
3.1816
 20
-0.3077
  0
VERTEX
  8
LAYER10
 62
     1
  6
CONTINUOUS
 10
3.1829
 20
-0.3102
  0
VERTEX
  8
LAYER10
 62
     1
  6
CONTINUOUS
 10
3.1840
 20
-0.3129
  0
VERTEX
  8
LAYER10
 62
     1
  6
CONTINUOUS
 10
3.1848
 20
-0.3158
  0
VERTEX
  8
LAYER10
 62
     1
  6
CONTINUOUS
 10
3.1855
 20
-0.3188
  0
VERTEX
  8
LAYER10
 62
     1
  6
CONTINUOUS
 10
3.1860
 20
-0.3220
  0
VERTEX
  8
LAYER10
 62
     1
  6
CONTINUOUS
 10
3.1864
 20
-0.3251
  0
VERTEX
  8
LAYER10
 62
     1
  6
CONTINUOUS
 10
3.1869
 20
-0.3284
  0
VERTEX
  8
LAYER10
 62
     1
  6
CONTINUOUS
 10
3.1874
 20
-0.3316
  0
VERTEX
  8
LAYER10
 62
     1
  6
CONTINUOUS
 10
3.1880
 20
-0.3348
  0
VERTEX
  8
LAYER10
 62
     1
  6
CONTINUOUS
 10
3.1888
 20
-0.3380
  0
VERTEX
  8
LAYER10
 62
     1
  6
CONTINUOUS
 10
3.1899
 20
-0.3410
  0
VERTEX
  8
LAYER10
 62
     1
  6
CONTINUOUS
 10
3.1904
 20
-0.3423
  0
VERTEX
  8
LAYER10
 62
     1
  6
CONTINUOUS
 10
3.1910
 20
-0.3436
  0
VERTEX
  8
LAYER10
 62
     1
  6
CONTINUOUS
 10
3.1916
 20
-0.3449
  0
VERTEX
  8
LAYER10
 62
     1
  6
CONTINUOUS
 10
3.1922
 20
-0.3461
  0
VERTEX
  8
LAYER10
 62
     1
  6
CONTINUOUS
 10
3.1928
 20
-0.3474
  0
VERTEX
  8
LAYER10
 62
     1
  6
CONTINUOUS
 10
3.1934
 20
-0.3486
  0
VERTEX
  8
LAYER10
 62
     1
  6
CONTINUOUS
 10
3.1939
 20
-0.3498
  0
VERTEX
  8
LAYER10
 62
     1
  6
CONTINUOUS
 10
3.1943
 20
-0.3511
  0
VERTEX
  8
LAYER10
 62
     1
  6
CONTINUOUS
 10
3.1947
 20
-0.3524
  0
VERTEX
  8
LAYER10
 62
     1
  6
CONTINUOUS
 10
3.1949
 20
-0.3536
  0
VERTEX
  8
LAYER10
 62
     1
  6
CONTINUOUS
 10
3.1950
 20
-0.3550
  0
VERTEX
  8
LAYER10
 62
     1
  6
CONTINUOUS
 10
3.1949
 20
-0.3563
  0
VERTEX
  8
LAYER10
 62
     1
  6
CONTINUOUS
 10
3.1943
 20
-0.3591
  0
VERTEX
  8
LAYER10
 62
     1
  6
CONTINUOUS
 10
3.1931
 20
-0.3619
  0
VERTEX
  8
LAYER10
 62
     1
  6
CONTINUOUS
 10
3.1915
 20
-0.3648
  0
VERTEX
  8
LAYER10
 62
     1
  6
CONTINUOUS
 10
3.1895
 20
-0.3676
  0
VERTEX
  8
LAYER10
 62
     1
  6
CONTINUOUS
 10
3.1872
 20
-0.3703
  0
VERTEX
  8
LAYER10
 62
     1
  6
CONTINUOUS
 10
3.1849
 20
-0.3728
  0
VERTEX
  8
LAYER10
 62
     1
  6
CONTINUOUS
 10
3.1825
 20
-0.3752
  0
VERTEX
  8
LAYER10
 62
     1
  6
CONTINUOUS
 10
3.1802
 20
-0.3772
  0
VERTEX
  8
LAYER10
 62
     1
  6
CONTINUOUS
 10
3.1782
 20
-0.3789
  0
VERTEX
  8
LAYER10
 62
     1
  6
CONTINUOUS
 10
3.1765
 20
-0.3803
  0
VERTEX
  8
LAYER10
 62
     1
  6
CONTINUOUS
 10
3.1752
 20
-0.3812
  0
VERTEX
  8
LAYER10
 62
     1
  6
CONTINUOUS
 10
3.1745
 20
-0.3816
  0
VERTEX
  8
LAYER10
 62
     1
  6
CONTINUOUS
 10
3.1745
 20
-0.3816
  0
VERTEX
  8
LAYER10
 62
     1
  6
CONTINUOUS
 10
3.1745
 20
-0.3816
  0
VERTEX
  8
LAYER10
 62
     1
  6
CONTINUOUS
 10
3.1744
 20
-0.3816
  0
VERTEX
  8
LAYER10
 62
     1
  6
CONTINUOUS
 10
3.1744
 20
-0.3816
  0
VERTEX
  8
LAYER10
 62
     1
  6
CONTINUOUS
 10
3.1744
 20
-0.3816
  0
VERTEX
  8
LAYER10
 62
     1
  6
CONTINUOUS
 10
3.1744
 20
-0.3816
  0
VERTEX
  8
LAYER10
 62
     1
  6
CONTINUOUS
 10
3.1744
 20
-0.3816
  0
VERTEX
  8
LAYER10
 62
     1
  6
CONTINUOUS
 10
3.1745
 20
-0.3816
  0
VERTEX
  8
LAYER10
 62
     1
  6
CONTINUOUS
 10
3.1745
 20
-0.3816
  0
VERTEX
  8
LAYER10
 62
     1
  6
CONTINUOUS
 10
3.1745
 20
-0.3816
  0
VERTEX
  8
LAYER10
 62
     1
  6
CONTINUOUS
 10
3.1745
 20
-0.3816
  0
VERTEX
  8
LAYER10
 62
     1
  6
CONTINUOUS
 10
3.1745
 20
-0.3816
  0
VERTEX
  8
LAYER10
 62
     1
  6
CONTINUOUS
 10
3.1747
 20
-0.3821
  0
VERTEX
  8
LAYER10
 62
     1
  6
CONTINUOUS
 10
3.1748
 20
-0.3833
  0
VERTEX
  8
LAYER10
 62
     1
  6
CONTINUOUS
 10
3.1749
 20
-0.3850
  0
VERTEX
  8
LAYER10
 62
     1
  6
CONTINUOUS
 10
3.1749
 20
-0.3873
  0
VERTEX
  8
LAYER10
 62
     1
  6
CONTINUOUS
 10
3.1749
 20
-0.3900
  0
VERTEX
  8
LAYER10
 62
     1
  6
CONTINUOUS
 10
3.1749
 20
-0.3931
  0
VERTEX
  8
LAYER10
 62
     1
  6
CONTINUOUS
 10
3.1749
 20
-0.3966
  0
VERTEX
  8
LAYER10
 62
     1
  6
CONTINUOUS
 10
3.1748
 20
-0.4004
  0
VERTEX
  8
LAYER10
 62
     1
  6
CONTINUOUS
 10
3.1747
 20
-0.4044
  0
VERTEX
  8
LAYER10
 62
     1
  6
CONTINUOUS
 10
3.1747
 20
-0.4085
  0
VERTEX
  8
LAYER10
 62
     1
  6
CONTINUOUS
 10
3.1746
 20
-0.4128
  0
VERTEX
  8
LAYER10
 62
     1
  6
CONTINUOUS
 10
3.1745
 20
-0.4172
  0
SEQEND
  8
LAYER10
  0
POLYLINE
  8
LAYER10
 62
     1
 66
     1
  6
CONTINUOUS
  0
VERTEX
  8
LAYER10
 62
     1
  6
CONTINUOUS
 10
3.1745
 20
-0.4172
  0
VERTEX
  8
LAYER10
 62
     1
  6
CONTINUOUS
 10
3.1720
 20
-0.4415
  0
SEQEND
  8
LAYER10
  0
POLYLINE
  8
LAYER12
 62
     5
 66
     1
  6
CONTINUOUS
  0
VERTEX
  8
LAYER12
 62
     5
  6
CONTINUOUS
 10
4.0589
 20
-0.4411
  0
VERTEX
  8
LAYER12
 62
     5
  6
CONTINUOUS
 10
4.0589
 20
-0.4411
  0
SEQEND
  8
LAYER12
  0
POLYLINE
  8
LAYER12
 62
     5
 66
     1
  6
CONTINUOUS
  0
VERTEX
  8
LAYER12
 62
     5
  6
CONTINUOUS
 10
3.0752
 20
-0.4411
  0
VERTEX
  8
LAYER12
 62
     5
  6
CONTINUOUS
 10
3.0752
 20
-0.4411
  0
SEQEND
  8
LAYER12
  0
POLYLINE
  8
LAYER12
 62
     5
 66
     1
  6
CONTINUOUS
  0
VERTEX
  8
LAYER12
 62
     5
  6
CONTINUOUS
 10
4.0589
 20
-0.4411
  0
VERTEX
  8
LAYER12
 62
     5
  6
CONTINUOUS
 10
4.0589
 20
-0.4411
  0
SEQEND
  8
LAYER12
  0
POLYLINE
  8
LAYER12
 62
     5
 66
     1
  6
CONTINUOUS
  0
VERTEX
  8
LAYER12
 62
     5
  6
CONTINUOUS
 10
4.0589
 20
-0.4411
  0
VERTEX
  8
LAYER12
 62
     5
  6
CONTINUOUS
 10
4.0589
 20
-0.4411
  0
SEQEND
  8
LAYER12
  0
POLYLINE
  8
LAYER12
 62
     5
 66
     1
  6
CONTINUOUS
  0
VERTEX
  8
LAYER12
 62
     5
  6
CONTINUOUS
 10
4.0589
 20
-0.4382
  0
VERTEX
  8
LAYER12
 62
     5
  6
CONTINUOUS
 10
4.0589
 20
-0.4411
  0
SEQEND
  8
LAYER12
  0
POLYLINE
  8
LAYER12
 62
     5
 66
     1
  6
CONTINUOUS
  0
VERTEX
  8
LAYER12
 62
     5
  6
CONTINUOUS
 10
4.0589
 20
-0.4415
  0
VERTEX
  8
LAYER12
 62
     5
  6
CONTINUOUS
 10
4.0589
 20
-0.4411
  0
SEQEND
  8
LAYER12
  0
POLYLINE
  8
LAYER12
 62
     5
 66
     1
  6
CONTINUOUS
  0
VERTEX
  8
LAYER12
 62
     5
  6
CONTINUOUS
 10
3.0752
 20
-0.4411
  0
VERTEX
  8
LAYER12
 62
     5
  6
CONTINUOUS
 10
3.0752
 20
-0.4382
  0
SEQEND
  8
LAYER12
  0
POLYLINE
  8
LAYER12
 62
     5
 66
     1
  6
CONTINUOUS
  0
VERTEX
  8
LAYER12
 62
     5
  6
CONTINUOUS
 10
3.0752
 20
-0.4382
  0
VERTEX
  8
LAYER12
 62
     5
  6
CONTINUOUS
 10
3.0752
 20
0.5393
  0
SEQEND
  8
LAYER12
  0
POLYLINE
  8
LAYER12
 62
     5
 66
     1
  6
CONTINUOUS
  0
VERTEX
  8
LAYER12
 62
     5
  6
CONTINUOUS
 10
4.0589
 20
-0.4411
  0
VERTEX
  8
LAYER12
 62
     5
  6
CONTINUOUS
 10
3.2533
 20
-0.4411
  0
SEQEND
  8
LAYER12
  0
POLYLINE
  8
LAYER12
 62
     5
 66
     1
  6
CONTINUOUS
  0
VERTEX
  8
LAYER12
 62
     5
  6
CONTINUOUS
 10
3.2533
 20
-0.4411
  0
VERTEX
  8
LAYER12
 62
     5
  6
CONTINUOUS
 10
3.1459
 20
-0.4411
  0
SEQEND
  8
LAYER12
  0
POLYLINE
  8
LAYER12
 62
     5
 66
     1
  6
CONTINUOUS
  0
VERTEX
  8
LAYER12
 62
     5
  6
CONTINUOUS
 10
3.1459
 20
-0.4411
  0
VERTEX
  8
LAYER12
 62
     5
  6
CONTINUOUS
 10
3.0752
 20
-0.4411
  0
SEQEND
  8
LAYER12
  0
POLYLINE
  8
LAYER12
 62
     5
 66
     1
  6
CONTINUOUS
  0
VERTEX
  8
LAYER12
 62
     5
  6
CONTINUOUS
 10
4.0589
 20
0.5426
  0
VERTEX
  8
LAYER12
 62
     5
  6
CONTINUOUS
 10
4.0589
 20
-0.4382
  0
SEQEND
  8
LAYER12
  0
POLYLINE
  8
LAYER12
 62
     5
 66
     1
  6
CONTINUOUS
  0
VERTEX
  8
LAYER12
 62
     5
  6
CONTINUOUS
 10
3.0752
 20
0.5426
  0
VERTEX
  8
LAYER12
 62
     5
  6
CONTINUOUS
 10
4.0574
 20
0.5426
  0
SEQEND
  8
LAYER12
  0
POLYLINE
  8
LAYER12
 62
     5
 66
     1
  6
CONTINUOUS
  0
VERTEX
  8
LAYER12
 62
     5
  6
CONTINUOUS
 10
3.0752
 20
0.5393
  0
VERTEX
  8
LAYER12
 62
     5
  6
CONTINUOUS
 10
3.0752
 20
0.5426
  0
SEQEND
  8
LAYER12
  0
ENDSEC
  0
EOF
