  0
SECTION
  2
HEADER
  9
$ACADVER
  1
AC1004
  9
$EXTMIN
 10
4.0574
 20
-0.4415
  9
$EXTMAX
 10
5.0426
 20
0.5426
  9
$LIMMIN
 10
4.0574
 20
-0.4415
  9
$LIMMAX
 10
5.0426
 20
0.5426
  9
$INSBASE
 10
0.0
 20
0.0
  9
$VIEWCTR
 10
7.21903
 20
4.5
  9
$VIEWSIZE
 40
9.0
  9
$SNAPMODE
 70
     0
  9
$SNAPUNIT
 10
1.0
 20
1.0
  9
$SNAPBASE
 10
0.0
 20
0.0
  9
$SNAPANG
 50
0.0
  9
$SNAPSTYLE
 70
     0
  9
$SNAPISOPAIR
 70
     0
  9
$GRIDMODE
 70
     0
  9
$GRIDUNIT
 10
0.0
 20
0.0
  9
$ORTHOMODE
 70
     0
  9
$REGENMODE
 70
     1
  9
$FILLMODE
 70
     1
  9
$QTEXTMODE
 70
     0
  9
$DRAGMODE
 70
     2
  9
$LTSCALE
 40
1.0
  9
$OSMODE
 70
     0
  9
$ATTMODE
 70
     1
  9
$TEXTSIZE
 40
0.2
  9
$TRACEWID
 40
0.05
  9
$TEXTSTYLE
  7
STANDARD
  9
$CLAYER
  8
0
  9
$CELTYPE
  6
BYLAYER
  9
$CECOLOR
 62
   256
  9
$DIMSCALE
 40
1.0
  9
$DIMASZ
 40
0.18
  9
$DIMEXO
 40
0.0625
  9
$DIMDLI
 40
0.38
  9
$DIMRND
 40
0.0
  9
$DIMDLE
 40
0.0
  9
$DIMEXE
 40
0.18
  9
$DIMTP
 40
0.0
  9
$DIMTM
 40
0.0
  9
$DIMTXT
 40
0.18
  9
$DIMCEN
 40
0.09
  9
$DIMTSZ
 40
0.0
  9
$DIMTOL
 70
     0
  9
$DIMLIM
 70
     0
  9
$DIMTIH
 70
     1
  9
$DIMTOH
 70
     1
  9
$DIMSE1
 70
     0
  9
$DIMSE2
 70
     0
  9
$DIMTAD
 70
     0
  9
$DIMZIN
 70
     0
  9
$DIMBLK
  1

  9
$DIMASO
 70
     1
  9
$DIMSHO
 70
     0
  9
$DIMPOST
  1

  9
$DIMAPOST
  1

  9
$DIMALT
 70
     0
  9
$DIMALTD
 70
     2
  9
$DIMALTF
 40
25.4
  9
$DIMLFAC
 40
1.0
  9
$LUNITS
 70
     2
  9
$LUPREC
 70
     4
  9
$AXISMODE
 70
     0
  9
$AXISUNIT
 10
0.0
 20
0.0
  9
$SKETCHINC
 40
0.1
  9
$FILLETRAD
 40
0.0
  9
$AUNITS
 70
     0
  9
$AUPREC
 70
     0
  9
$MENU
  1
acad
  9
$ELEVATION
 40
0.0
  9
$THICKNESS
 40
0.0
  9
$VIEWDIR
 10
0.0
 20
0.0
 30
1.0
  9
$LIMCHECK
 70
     0
  9
$BLIPMODE
 70
     1
  9
$CHAMFERA
 40
0.0
  9
$CHAMFERB
 40
0.0
  9
$FASTZOOM
 70
     1
  9
$SKPOLY
 70
     0
  9
$TDCREATE
 40
2447222.5666886573
  9
$TDUPDATE
 40
2447222.5666886573
  9
$TDINDWG
 40
0.0000000000
  9
$TDUSRTIMER
 40
0.0000000000
  9
$USRTIMER
 70
     1
  9
$ANGBASE
 50
0.0
  9
$ANGDIR
 70
     0
  9
$PDMODE
 70
     0
  9
$PDSIZE
 40
0.0
  9
$PLINEWID
 40
0.0
  9
$COORDS
 70
     0
  9
$SPLFRAME
 70
     0
  9
$SPLINESEGS
 70
     8
  9
$ATTDIA
 70
     0
  9
$ATTREQ
 70
     1
  9
$USERI1
 70
     0
  9
$USERI2
 70
     0
  9
$USERI3
 70
     0
  9
$USERI4
 70
     0
  9
$USERI5
 70
     0
  9
$USERR1
 40
0.0
  9
$USERR2
 40
0.0
  9
$USERR3
 40
0.0
  9
$USERR4
 40
0.0
  9
$USERR5
 40
0.0
  0
ENDSEC
  0
SECTION
  2
TABLES
  0
TABLE
  2
LTYPE
 70
     13
  0
LTYPE
  2
CONTINUOUS
 70
    64
  3
Solid line
 72
    65
 73
     0
 40
0.0
  0
LTYPE
  2
DASHED
 70
    64
  3
__ __ __ __ __ __ __ __ __ __ __ __ __ __ __
 72
    65
 73
     2
 40
0.75
 49
0.5
 49
-0.25
  0
LTYPE
  2
HIDDEN
 70
    64
  3
_ _ _ _ _ _ _ _ _ _ _ _ _ _ _ _ _ _ _ _ _ _ _
 72
    65
 73
     2
 40
0.375
 49
0.25
 49
-0.125
  0
LTYPE
  2
CENTER
 70
    64
  3
____ _ ____ _ ____ _ ____ _ ____ _ ____ _ ____
 72
    65
 73
     4
 40
2.0
 49
1.25
 49
-0.25
 49
0.25
 49
-0.25
  0
LTYPE
  2
PHANTOM
 70
    64
  3
_____ _ _ _____ _ _ _____ _ _ _____ _ _ ____
 72
    65
 73
     6
 40
2.5
 49
1.25
 49
-0.25
 49
0.25
 49
-0.25
 49
0.25
 49
-0.25
  0
LTYPE
  2
DOT
 70
    64
  3
...............................................
 72
    65
 73
     2
 40
0.25
 49
0.0
 49
-0.25
  0
LTYPE
  2
DASHDOT
 70
    64
  3
__ . __ . __ . __ . __ . __ . __ . __ . __ . __
 72
    65
 73
     4
 40
1.0
 49
0.5
 49
-0.25
 49
0.0
 49
-0.25
  0
LTYPE
  2
BORDER
 70
    64
  3
__ __ . __ __ . __ __ . __ __ . __ __ . __ __
 72
    65
 73
     6
 40
1.75
 49
0.5
 49
-0.25
 49
0.5
 49
-0.25
 49
0.0
 49
-0.25
  0
LTYPE
  2
DIVIDE
 70
    64
  3
__ . . __ . . __ . . __ . . __ . . __ . . __
 72
    65
 73
     6
 40
1.25
 49
0.5
 49
-0.25
 49
0.0
 49
-0.25
 49
0.0
 49
-0.25
  0
LTYPE
  2
DCTYPE1
 70
    64
  3
__ . . __ . . __ . . __ . . __ . . __ . . __
 72
    65
 73
     8
 40
2.5
 49
0.5
 49
-0.25
 49
0.125
 49
-0.25
 49
0.25
 49
-0.25
 49
0.125
 49
-0.25
  0
LTYPE
  2
DCTYPE2
 70
    64
  3
__ . . __ . . __ . . __ . . __ . . __ . . __
 72
    65
 73
     6
 40
2.05
 49
1.0
 49
-0.3
 49
0.15
 49
-0.15
 49
0.15
 49
-0.3
  0
LTYPE
  2
DCTYPE3
 70
    64
  3
__ . . __ . . __ . . __ . . __ . . __ . . __
 72
    65
 73
     6
 40
2.5
 49
0.8
 49
-0.2
 49
0.8
 49
-0.2
 49
0.3
 49
-0.2
  0
LTYPE
  2
DCTYPE4
 70
    64
  3
__ . . __ . . __ . . __ . . __ . . __ . . __
 72
    65
 73
     10
 40
3.97
 49
1.75
 49
-0.3
 49
0.3
 49
-0.3
 49
0.06
 49
-0.3
 49
0.06
 49
-0.3
 49
0.3
 49
-0.3
  0
ENDTAB
  0
TABLE
  2
LAYER
 70
    153
  0
LAYER
  2
LAYER1
 70
 64
 62
     7
  6
CONTINUOUS
  0
LAYER
  2
LAYER10
 70
 64
 62
     1
  6
CONTINUOUS
  0
LAYER
  2
LAYER12
 70
 64
 62
     5
  6
CONTINUOUS
  0
ENDTAB
  0
ENDSEC
  0
SECTION
  2
BLOCKS
  0
ENDSEC
  0
SECTION
  2
ENTITIES
  0
CIRCLE
  8
LAYER1
 62
     7
  6
CONTINUOUS
 10
4.1345
 20
-0.2620
 40
0.0114
  0
CIRCLE
  8
LAYER1
 62
     7
  6
CONTINUOUS
 10
4.4521
 20
-0.1891
 40
0.0180
  0
CIRCLE
  8
LAYER1
 62
     7
  6
CONTINUOUS
 10
4.6028
 20
0.1964
 40
0.0217
  0
CIRCLE
  8
LAYER1
 62
     7
  6
CONTINUOUS
 10
4.6485
 20
0.2014
 40
0.0137
  0
CIRCLE
  8
LAYER1
 62
     7
  6
CONTINUOUS
 10
4.8061
 20
0.3026
 40
0.0234
  0
CIRCLE
  8
LAYER1
 62
     7
  6
CONTINUOUS
 10
4.8189
 20
0.3559
 40
0.0205
  0
CIRCLE
  8
LAYER1
 62
     7
  6
CONTINUOUS
 10
4.8902
 20
0.4268
 40
0.0205
  0
CIRCLE
  8
LAYER1
 62
     7
  6
CONTINUOUS
 10
4.9258
 20
0.4343
 40
0.0180
  0
CIRCLE
  8
LAYER1
 62
     7
  6
CONTINUOUS
 10
4.9179
 20
0.3379
 40
0.0127
  0
CIRCLE
  8
LAYER1
 62
     7
  6
CONTINUOUS
 10
4.9140
 20
-0.2562
 40
0.0180
  0
CIRCLE
  8
LAYER1
 62
     7
  6
CONTINUOUS
 10
4.9113
 20
-0.3146
 40
0.0209
  0
CIRCLE
  8
LAYER1
 62
     7
  6
CONTINUOUS
 10
4.9238
 20
-0.3806
 40
0.0154
  0
CIRCLE
  8
LAYER1
 62
     7
  6
CONTINUOUS
 10
4.8832
 20
-0.3907
 40
0.0154
  0
ARC
  8
LAYER1
 62
     7
  6
HIDDEN
 10
4.3162
 20
0.3571
 40
0.0474
 50
105.3984
 51
-73.6494
  0
ARC
  8
LAYER1
 62
     7
  6
HIDDEN
 10
4.3162
 20
0.3571
 40
0.0474
 50
-73.6495
 51
73.6495
  0
ARC
  8
LAYER1
 62
     7
  6
HIDDEN
 10
4.3162
 20
0.3571
 40
0.0474
 50
73.6495
 51
105.3983
  0
ARC
  8
LAYER1
 62
     7
  6
CONTINUOUS
 10
4.4083
 20
-0.4251
 40
0.0203
 50
-40.1521
 51
-139.8470
  0
ARC
  8
LAYER1
 62
     7
  6
CONTINUOUS
 10
4.9846
 20
-0.4366
 40
0.0255
 50
-11.1124
 51
-3.5795
  0
ARC
  8
LAYER1
 62
     7
  6
CONTINUOUS
 10
4.9846
 20
-0.4366
 40
0.0255
 50
-11.1124
 51
-176.4206
  0
ARC
  8
LAYER1
 62
     7
  6
CONTINUOUS
 10
4.9846
 20
-0.4366
 40
0.0255
 50
-176.4205
 51
-168.8878
  0
ARC
  8
LAYER1
 62
     7
  6
CONTINUOUS
 10
4.4083
 20
-0.4251
 40
0.0203
 50
-53.9493
 51
-40.1517
  0
ARC
  8
LAYER1
 62
     7
  6
CONTINUOUS
 10
4.4083
 20
-0.4251
 40
0.0203
 50
-139.8470
 51
-126.0500
  0
POLYLINE
  8
LAYER10
 62
     1
 66
     1
  6
CONTINUOUS
  0
VERTEX
  8
LAYER10
 62
     1
  6
CONTINUOUS
 10
4.2621
 20
0.0033
  0
VERTEX
  8
LAYER10
 62
     1
  6
CONTINUOUS
 10
4.2644
 20
-0.0009
  0
VERTEX
  8
LAYER10
 62
     1
  6
CONTINUOUS
 10
4.2667
 20
-0.0052
  0
VERTEX
  8
LAYER10
 62
     1
  6
CONTINUOUS
 10
4.2690
 20
-0.0095
  0
VERTEX
  8
LAYER10
 62
     1
  6
CONTINUOUS
 10
4.2713
 20
-0.0138
  0
VERTEX
  8
LAYER10
 62
     1
  6
CONTINUOUS
 10
4.2735
 20
-0.0181
  0
VERTEX
  8
LAYER10
 62
     1
  6
CONTINUOUS
 10
4.2757
 20
-0.0225
  0
VERTEX
  8
LAYER10
 62
     1
  6
CONTINUOUS
 10
4.2779
 20
-0.0268
  0
VERTEX
  8
LAYER10
 62
     1
  6
CONTINUOUS
 10
4.2799
 20
-0.0312
  0
VERTEX
  8
LAYER10
 62
     1
  6
CONTINUOUS
 10
4.2819
 20
-0.0356
  0
VERTEX
  8
LAYER10
 62
     1
  6
CONTINUOUS
 10
4.2838
 20
-0.0401
  0
VERTEX
  8
LAYER10
 62
     1
  6
CONTINUOUS
 10
4.2856
 20
-0.0446
  0
VERTEX
  8
LAYER10
 62
     1
  6
CONTINUOUS
 10
4.2874
 20
-0.0491
  0
VERTEX
  8
LAYER10
 62
     1
  6
CONTINUOUS
 10
4.2885
 20
-0.0524
  0
VERTEX
  8
LAYER10
 62
     1
  6
CONTINUOUS
 10
4.2896
 20
-0.0557
  0
VERTEX
  8
LAYER10
 62
     1
  6
CONTINUOUS
 10
4.2907
 20
-0.0590
  0
VERTEX
  8
LAYER10
 62
     1
  6
CONTINUOUS
 10
4.2917
 20
-0.0624
  0
VERTEX
  8
LAYER10
 62
     1
  6
CONTINUOUS
 10
4.2926
 20
-0.0657
  0
VERTEX
  8
LAYER10
 62
     1
  6
CONTINUOUS
 10
4.2935
 20
-0.0691
  0
VERTEX
  8
LAYER10
 62
     1
  6
CONTINUOUS
 10
4.2943
 20
-0.0725
  0
VERTEX
  8
LAYER10
 62
     1
  6
CONTINUOUS
 10
4.2950
 20
-0.0759
  0
VERTEX
  8
LAYER10
 62
     1
  6
CONTINUOUS
 10
4.2957
 20
-0.0794
  0
VERTEX
  8
LAYER10
 62
     1
  6
CONTINUOUS
 10
4.2963
 20
-0.0828
  0
VERTEX
  8
LAYER10
 62
     1
  6
CONTINUOUS
 10
4.2969
 20
-0.0863
  0
VERTEX
  8
LAYER10
 62
     1
  6
CONTINUOUS
 10
4.2974
 20
-0.0897
  0
VERTEX
  8
LAYER10
 62
     1
  6
CONTINUOUS
 10
4.2980
 20
-0.0944
  0
VERTEX
  8
LAYER10
 62
     1
  6
CONTINUOUS
 10
4.2985
 20
-0.0991
  0
VERTEX
  8
LAYER10
 62
     1
  6
CONTINUOUS
 10
4.2989
 20
-0.1037
  0
VERTEX
  8
LAYER10
 62
     1
  6
CONTINUOUS
 10
4.2993
 20
-0.1084
  0
VERTEX
  8
LAYER10
 62
     1
  6
CONTINUOUS
 10
4.2996
 20
-0.1131
  0
VERTEX
  8
LAYER10
 62
     1
  6
CONTINUOUS
 10
4.2999
 20
-0.1178
  0
VERTEX
  8
LAYER10
 62
     1
  6
CONTINUOUS
 10
4.3002
 20
-0.1224
  0
VERTEX
  8
LAYER10
 62
     1
  6
CONTINUOUS
 10
4.3005
 20
-0.1271
  0
VERTEX
  8
LAYER10
 62
     1
  6
CONTINUOUS
 10
4.3009
 20
-0.1318
  0
VERTEX
  8
LAYER10
 62
     1
  6
CONTINUOUS
 10
4.3013
 20
-0.1364
  0
VERTEX
  8
LAYER10
 62
     1
  6
CONTINUOUS
 10
4.3018
 20
-0.1410
  0
VERTEX
  8
LAYER10
 62
     1
  6
CONTINUOUS
 10
4.3024
 20
-0.1456
  0
VERTEX
  8
LAYER10
 62
     1
  6
CONTINUOUS
 10
4.3029
 20
-0.1489
  0
VERTEX
  8
LAYER10
 62
     1
  6
CONTINUOUS
 10
4.3034
 20
-0.1523
  0
VERTEX
  8
LAYER10
 62
     1
  6
CONTINUOUS
 10
4.3039
 20
-0.1556
  0
VERTEX
  8
LAYER10
 62
     1
  6
CONTINUOUS
 10
4.3045
 20
-0.1589
  0
VERTEX
  8
LAYER10
 62
     1
  6
CONTINUOUS
 10
4.3050
 20
-0.1623
  0
VERTEX
  8
LAYER10
 62
     1
  6
CONTINUOUS
 10
4.3056
 20
-0.1656
  0
VERTEX
  8
LAYER10
 62
     1
  6
CONTINUOUS
 10
4.3061
 20
-0.1690
  0
VERTEX
  8
LAYER10
 62
     1
  6
CONTINUOUS
 10
4.3065
 20
-0.1724
  0
VERTEX
  8
LAYER10
 62
     1
  6
CONTINUOUS
 10
4.3069
 20
-0.1758
  0
VERTEX
  8
LAYER10
 62
     1
  6
CONTINUOUS
 10
4.3071
 20
-0.1792
  0
VERTEX
  8
LAYER10
 62
     1
  6
CONTINUOUS
 10
4.3073
 20
-0.1827
  0
VERTEX
  8
LAYER10
 62
     1
  6
CONTINUOUS
 10
4.3074
 20
-0.1862
  0
VERTEX
  8
LAYER10
 62
     1
  6
CONTINUOUS
 10
4.3073
 20
-0.1895
  0
VERTEX
  8
LAYER10
 62
     1
  6
CONTINUOUS
 10
4.3071
 20
-0.1927
  0
VERTEX
  8
LAYER10
 62
     1
  6
CONTINUOUS
 10
4.3068
 20
-0.1960
  0
VERTEX
  8
LAYER10
 62
     1
  6
CONTINUOUS
 10
4.3063
 20
-0.1992
  0
VERTEX
  8
LAYER10
 62
     1
  6
CONTINUOUS
 10
4.3057
 20
-0.2024
  0
VERTEX
  8
LAYER10
 62
     1
  6
CONTINUOUS
 10
4.3050
 20
-0.2055
  0
VERTEX
  8
LAYER10
 62
     1
  6
CONTINUOUS
 10
4.3041
 20
-0.2085
  0
VERTEX
  8
LAYER10
 62
     1
  6
CONTINUOUS
 10
4.3030
 20
-0.2115
  0
VERTEX
  8
LAYER10
 62
     1
  6
CONTINUOUS
 10
4.3018
 20
-0.2143
  0
VERTEX
  8
LAYER10
 62
     1
  6
CONTINUOUS
 10
4.3004
 20
-0.2169
  0
VERTEX
  8
LAYER10
 62
     1
  6
CONTINUOUS
 10
4.2989
 20
-0.2194
  0
VERTEX
  8
LAYER10
 62
     1
  6
CONTINUOUS
 10
4.2971
 20
-0.2218
  0
VERTEX
  8
LAYER10
 62
     1
  6
CONTINUOUS
 10
4.2942
 20
-0.2248
  0
VERTEX
  8
LAYER10
 62
     1
  6
CONTINUOUS
 10
4.2908
 20
-0.2275
  0
VERTEX
  8
LAYER10
 62
     1
  6
CONTINUOUS
 10
4.2872
 20
-0.2298
  0
VERTEX
  8
LAYER10
 62
     1
  6
CONTINUOUS
 10
4.2832
 20
-0.2318
  0
VERTEX
  8
LAYER10
 62
     1
  6
CONTINUOUS
 10
4.2790
 20
-0.2335
  0
VERTEX
  8
LAYER10
 62
     1
  6
CONTINUOUS
 10
4.2746
 20
-0.2350
  0
VERTEX
  8
LAYER10
 62
     1
  6
CONTINUOUS
 10
4.2700
 20
-0.2363
  0
VERTEX
  8
LAYER10
 62
     1
  6
CONTINUOUS
 10
4.2653
 20
-0.2375
  0
VERTEX
  8
LAYER10
 62
     1
  6
CONTINUOUS
 10
4.2606
 20
-0.2387
  0
VERTEX
  8
LAYER10
 62
     1
  6
CONTINUOUS
 10
4.2558
 20
-0.2397
  0
VERTEX
  8
LAYER10
 62
     1
  6
CONTINUOUS
 10
4.2510
 20
-0.2408
  0
VERTEX
  8
LAYER10
 62
     1
  6
CONTINUOUS
 10
4.2463
 20
-0.2420
  0
VERTEX
  8
LAYER10
 62
     1
  6
CONTINUOUS
 10
4.2441
 20
-0.2425
  0
VERTEX
  8
LAYER10
 62
     1
  6
CONTINUOUS
 10
4.2419
 20
-0.2431
  0
VERTEX
  8
LAYER10
 62
     1
  6
CONTINUOUS
 10
4.2398
 20
-0.2437
  0
VERTEX
  8
LAYER10
 62
     1
  6
CONTINUOUS
 10
4.2376
 20
-0.2442
  0
VERTEX
  8
LAYER10
 62
     1
  6
CONTINUOUS
 10
4.2355
 20
-0.2448
  0
VERTEX
  8
LAYER10
 62
     1
  6
CONTINUOUS
 10
4.2334
 20
-0.2453
  0
VERTEX
  8
LAYER10
 62
     1
  6
CONTINUOUS
 10
4.2313
 20
-0.2458
  0
VERTEX
  8
LAYER10
 62
     1
  6
CONTINUOUS
 10
4.2292
 20
-0.2462
  0
VERTEX
  8
LAYER10
 62
     1
  6
CONTINUOUS
 10
4.2271
 20
-0.2465
  0
VERTEX
  8
LAYER10
 62
     1
  6
CONTINUOUS
 10
4.2250
 20
-0.2467
  0
VERTEX
  8
LAYER10
 62
     1
  6
CONTINUOUS
 10
4.2230
 20
-0.2469
  0
VERTEX
  8
LAYER10
 62
     1
  6
CONTINUOUS
 10
4.2209
 20
-0.2470
  0
VERTEX
  8
LAYER10
 62
     1
  6
CONTINUOUS
 10
4.2179
 20
-0.2469
  0
VERTEX
  8
LAYER10
 62
     1
  6
CONTINUOUS
 10
4.2150
 20
-0.2465
  0
VERTEX
  8
LAYER10
 62
     1
  6
CONTINUOUS
 10
4.2120
 20
-0.2460
  0
VERTEX
  8
LAYER10
 62
     1
  6
CONTINUOUS
 10
4.2091
 20
-0.2454
  0
VERTEX
  8
LAYER10
 62
     1
  6
CONTINUOUS
 10
4.2061
 20
-0.2445
  0
VERTEX
  8
LAYER10
 62
     1
  6
CONTINUOUS
 10
4.2032
 20
-0.2436
  0
VERTEX
  8
LAYER10
 62
     1
  6
CONTINUOUS
 10
4.2002
 20
-0.2426
  0
VERTEX
  8
LAYER10
 62
     1
  6
CONTINUOUS
 10
4.1972
 20
-0.2415
  0
VERTEX
  8
LAYER10
 62
     1
  6
CONTINUOUS
 10
4.1943
 20
-0.2403
  0
VERTEX
  8
LAYER10
 62
     1
  6
CONTINUOUS
 10
4.1913
 20
-0.2391
  0
VERTEX
  8
LAYER10
 62
     1
  6
CONTINUOUS
 10
4.1883
 20
-0.2379
  0
VERTEX
  8
LAYER10
 62
     1
  6
CONTINUOUS
 10
4.1854
 20
-0.2367
  0
VERTEX
  8
LAYER10
 62
     1
  6
CONTINUOUS
 10
4.1810
 20
-0.2351
  0
VERTEX
  8
LAYER10
 62
     1
  6
CONTINUOUS
 10
4.1766
 20
-0.2334
  0
VERTEX
  8
LAYER10
 62
     1
  6
CONTINUOUS
 10
4.1722
 20
-0.2319
  0
VERTEX
  8
LAYER10
 62
     1
  6
CONTINUOUS
 10
4.1678
 20
-0.2303
  0
VERTEX
  8
LAYER10
 62
     1
  6
CONTINUOUS
 10
4.1635
 20
-0.2288
  0
VERTEX
  8
LAYER10
 62
     1
  6
CONTINUOUS
 10
4.1592
 20
-0.2272
  0
VERTEX
  8
LAYER10
 62
     1
  6
CONTINUOUS
 10
4.1549
 20
-0.2256
  0
VERTEX
  8
LAYER10
 62
     1
  6
CONTINUOUS
 10
4.1507
 20
-0.2240
  0
VERTEX
  8
LAYER10
 62
     1
  6
CONTINUOUS
 10
4.1466
 20
-0.2222
  0
VERTEX
  8
LAYER10
 62
     1
  6
CONTINUOUS
 10
4.1425
 20
-0.2204
  0
VERTEX
  8
LAYER10
 62
     1
  6
CONTINUOUS
 10
4.1385
 20
-0.2184
  0
VERTEX
  8
LAYER10
 62
     1
  6
CONTINUOUS
 10
4.1346
 20
-0.2163
  0
VERTEX
  8
LAYER10
 62
     1
  6
CONTINUOUS
 10
4.1311
 20
-0.2142
  0
VERTEX
  8
LAYER10
 62
     1
  6
CONTINUOUS
 10
4.1276
 20
-0.2119
  0
VERTEX
  8
LAYER10
 62
     1
  6
CONTINUOUS
 10
4.1243
 20
-0.2096
  0
VERTEX
  8
LAYER10
 62
     1
  6
CONTINUOUS
 10
4.1209
 20
-0.2071
  0
VERTEX
  8
LAYER10
 62
     1
  6
CONTINUOUS
 10
4.1176
 20
-0.2046
  0
VERTEX
  8
LAYER10
 62
     1
  6
CONTINUOUS
 10
4.1143
 20
-0.2020
  0
VERTEX
  8
LAYER10
 62
     1
  6
CONTINUOUS
 10
4.1110
 20
-0.1993
  0
VERTEX
  8
LAYER10
 62
     1
  6
CONTINUOUS
 10
4.1077
 20
-0.1966
  0
VERTEX
  8
LAYER10
 62
     1
  6
CONTINUOUS
 10
4.1043
 20
-0.1939
  0
VERTEX
  8
LAYER10
 62
     1
  6
CONTINUOUS
 10
4.1010
 20
-0.1912
  0
VERTEX
  8
LAYER10
 62
     1
  6
CONTINUOUS
 10
4.0976
 20
-0.1884
  0
VERTEX
  8
LAYER10
 62
     1
  6
CONTINUOUS
 10
4.0941
 20
-0.1857
  0
VERTEX
  8
LAYER10
 62
     1
  6
CONTINUOUS
 10
4.0911
 20
-0.1835
  0
VERTEX
  8
LAYER10
 62
     1
  6
CONTINUOUS
 10
4.0880
 20
-0.1812
  0
VERTEX
  8
LAYER10
 62
     1
  6
CONTINUOUS
 10
4.0850
 20
-0.1790
  0
VERTEX
  8
LAYER10
 62
     1
  6
CONTINUOUS
 10
4.0820
 20
-0.1767
  0
VERTEX
  8
LAYER10
 62
     1
  6
CONTINUOUS
 10
4.0791
 20
-0.1744
  0
VERTEX
  8
LAYER10
 62
     1
  6
CONTINUOUS
 10
4.0764
 20
-0.1720
  0
VERTEX
  8
LAYER10
 62
     1
  6
CONTINUOUS
 10
4.0737
 20
-0.1695
  0
VERTEX
  8
LAYER10
 62
     1
  6
CONTINUOUS
 10
4.0712
 20
-0.1669
  0
VERTEX
  8
LAYER10
 62
     1
  6
CONTINUOUS
 10
4.0690
 20
-0.1642
  0
VERTEX
  8
LAYER10
 62
     1
  6
CONTINUOUS
 10
4.0669
 20
-0.1614
  0
VERTEX
  8
LAYER10
 62
     1
  6
CONTINUOUS
 10
4.0652
 20
-0.1584
  0
VERTEX
  8
LAYER10
 62
     1
  6
CONTINUOUS
 10
4.0637
 20
-0.1552
  0
VERTEX
  8
LAYER10
 62
     1
  6
CONTINUOUS
 10
4.0634
 20
-0.1544
  0
VERTEX
  8
LAYER10
 62
     1
  6
CONTINUOUS
 10
4.0631
 20
-0.1535
  0
VERTEX
  8
LAYER10
 62
     1
  6
CONTINUOUS
 10
4.0628
 20
-0.1527
  0
VERTEX
  8
LAYER10
 62
     1
  6
CONTINUOUS
 10
4.0625
 20
-0.1518
  0
VERTEX
  8
LAYER10
 62
     1
  6
CONTINUOUS
 10
4.0623
 20
-0.1509
  0
VERTEX
  8
LAYER10
 62
     1
  6
CONTINUOUS
 10
4.0620
 20
-0.1500
  0
VERTEX
  8
LAYER10
 62
     1
  6
CONTINUOUS
 10
4.0618
 20
-0.1491
  0
VERTEX
  8
LAYER10
 62
     1
  6
CONTINUOUS
 10
4.0616
 20
-0.1482
  0
VERTEX
  8
LAYER10
 62
     1
  6
CONTINUOUS
 10
4.0614
 20
-0.1474
  0
VERTEX
  8
LAYER10
 62
     1
  6
CONTINUOUS
 10
4.0612
 20
-0.1464
  0
VERTEX
  8
LAYER10
 62
     1
  6
CONTINUOUS
 10
4.0610
 20
-0.1455
  0
VERTEX
  8
LAYER10
 62
     1
  6
CONTINUOUS
 10
4.0608
 20
-0.1446
  0
SEQEND
  8
LAYER10
  0
POLYLINE
  8
LAYER10
 62
     1
 66
     1
  6
CONTINUOUS
  0
VERTEX
  8
LAYER10
 62
     1
  6
CONTINUOUS
 10
4.0608
 20
-0.1135
  0
VERTEX
  8
LAYER10
 62
     1
  6
CONTINUOUS
 10
4.0610
 20
-0.1114
  0
VERTEX
  8
LAYER10
 62
     1
  6
CONTINUOUS
 10
4.0613
 20
-0.1094
  0
VERTEX
  8
LAYER10
 62
     1
  6
CONTINUOUS
 10
4.0615
 20
-0.1073
  0
VERTEX
  8
LAYER10
 62
     1
  6
CONTINUOUS
 10
4.0618
 20
-0.1053
  0
VERTEX
  8
LAYER10
 62
     1
  6
CONTINUOUS
 10
4.0620
 20
-0.1032
  0
VERTEX
  8
LAYER10
 62
     1
  6
CONTINUOUS
 10
4.0623
 20
-0.1012
  0
VERTEX
  8
LAYER10
 62
     1
  6
CONTINUOUS
 10
4.0625
 20
-0.0992
  0
VERTEX
  8
LAYER10
 62
     1
  6
CONTINUOUS
 10
4.0628
 20
-0.0971
  0
VERTEX
  8
LAYER10
 62
     1
  6
CONTINUOUS
 10
4.0630
 20
-0.0951
  0
VERTEX
  8
LAYER10
 62
     1
  6
CONTINUOUS
 10
4.0633
 20
-0.0931
  0
VERTEX
  8
LAYER10
 62
     1
  6
CONTINUOUS
 10
4.0636
 20
-0.0912
  0
VERTEX
  8
LAYER10
 62
     1
  6
CONTINUOUS
 10
4.0638
 20
-0.0892
  0
VERTEX
  8
LAYER10
 62
     1
  6
CONTINUOUS
 10
4.0642
 20
-0.0863
  0
VERTEX
  8
LAYER10
 62
     1
  6
CONTINUOUS
 10
4.0647
 20
-0.0835
  0
VERTEX
  8
LAYER10
 62
     1
  6
CONTINUOUS
 10
4.0651
 20
-0.0807
  0
VERTEX
  8
LAYER10
 62
     1
  6
CONTINUOUS
 10
4.0655
 20
-0.0779
  0
VERTEX
  8
LAYER10
 62
     1
  6
CONTINUOUS
 10
4.0659
 20
-0.0750
  0
VERTEX
  8
LAYER10
 62
     1
  6
CONTINUOUS
 10
4.0664
 20
-0.0722
  0
VERTEX
  8
LAYER10
 62
     1
  6
CONTINUOUS
 10
4.0668
 20
-0.0693
  0
VERTEX
  8
LAYER10
 62
     1
  6
CONTINUOUS
 10
4.0673
 20
-0.0663
  0
VERTEX
  8
LAYER10
 62
     1
  6
CONTINUOUS
 10
4.0677
 20
-0.0633
  0
VERTEX
  8
LAYER10
 62
     1
  6
CONTINUOUS
 10
4.0681
 20
-0.0602
  0
VERTEX
  8
LAYER10
 62
     1
  6
CONTINUOUS
 10
4.0686
 20
-0.0570
  0
VERTEX
  8
LAYER10
 62
     1
  6
CONTINUOUS
 10
4.0690
 20
-0.0537
  0
VERTEX
  8
LAYER10
 62
     1
  6
CONTINUOUS
 10
4.0699
 20
-0.0468
  0
VERTEX
  8
LAYER10
 62
     1
  6
CONTINUOUS
 10
4.0707
 20
-0.0396
  0
VERTEX
  8
LAYER10
 62
     1
  6
CONTINUOUS
 10
4.0717
 20
-0.0322
  0
VERTEX
  8
LAYER10
 62
     1
  6
CONTINUOUS
 10
4.0728
 20
-0.0249
  0
VERTEX
  8
LAYER10
 62
     1
  6
CONTINUOUS
 10
4.0742
 20
-0.0178
  0
VERTEX
  8
LAYER10
 62
     1
  6
CONTINUOUS
 10
4.0758
 20
-0.0110
  0
VERTEX
  8
LAYER10
 62
     1
  6
CONTINUOUS
 10
4.0778
 20
-0.0048
  0
VERTEX
  8
LAYER10
 62
     1
  6
CONTINUOUS
 10
4.0801
 20
0.0008
  0
VERTEX
  8
LAYER10
 62
     1
  6
CONTINUOUS
 10
4.0829
 20
0.0056
  0
VERTEX
  8
LAYER10
 62
     1
  6
CONTINUOUS
 10
4.0862
 20
0.0093
  0
VERTEX
  8
LAYER10
 62
     1
  6
CONTINUOUS
 10
4.0900
 20
0.0119
  0
VERTEX
  8
LAYER10
 62
     1
  6
CONTINUOUS
 10
4.0945
 20
0.0131
  0
VERTEX
  8
LAYER10
 62
     1
  6
CONTINUOUS
 10
4.0970
 20
0.0132
  0
VERTEX
  8
LAYER10
 62
     1
  6
CONTINUOUS
 10
4.0997
 20
0.0129
  0
VERTEX
  8
LAYER10
 62
     1
  6
CONTINUOUS
 10
4.1025
 20
0.0124
  0
VERTEX
  8
LAYER10
 62
     1
  6
CONTINUOUS
 10
4.1054
 20
0.0118
  0
VERTEX
  8
LAYER10
 62
     1
  6
CONTINUOUS
 10
4.1084
 20
0.0110
  0
VERTEX
  8
LAYER10
 62
     1
  6
CONTINUOUS
 10
4.1114
 20
0.0101
  0
VERTEX
  8
LAYER10
 62
     1
  6
CONTINUOUS
 10
4.1145
 20
0.0092
  0
VERTEX
  8
LAYER10
 62
     1
  6
CONTINUOUS
 10
4.1177
 20
0.0084
  0
VERTEX
  8
LAYER10
 62
     1
  6
CONTINUOUS
 10
4.1208
 20
0.0077
  0
VERTEX
  8
LAYER10
 62
     1
  6
CONTINUOUS
 10
4.1239
 20
0.0073
  0
VERTEX
  8
LAYER10
 62
     1
  6
CONTINUOUS
 10
4.1270
 20
0.0070
  0
VERTEX
  8
LAYER10
 62
     1
  6
CONTINUOUS
 10
4.1301
 20
0.0071
  0
VERTEX
  8
LAYER10
 62
     1
  6
CONTINUOUS
 10
4.1332
 20
0.0076
  0
VERTEX
  8
LAYER10
 62
     1
  6
CONTINUOUS
 10
4.1363
 20
0.0085
  0
VERTEX
  8
LAYER10
 62
     1
  6
CONTINUOUS
 10
4.1394
 20
0.0097
  0
VERTEX
  8
LAYER10
 62
     1
  6
CONTINUOUS
 10
4.1423
 20
0.0111
  0
VERTEX
  8
LAYER10
 62
     1
  6
CONTINUOUS
 10
4.1453
 20
0.0127
  0
VERTEX
  8
LAYER10
 62
     1
  6
CONTINUOUS
 10
4.1482
 20
0.0143
  0
VERTEX
  8
LAYER10
 62
     1
  6
CONTINUOUS
 10
4.1511
 20
0.0160
  0
VERTEX
  8
LAYER10
 62
     1
  6
CONTINUOUS
 10
4.1539
 20
0.0177
  0
VERTEX
  8
LAYER10
 62
     1
  6
CONTINUOUS
 10
4.1568
 20
0.0192
  0
VERTEX
  8
LAYER10
 62
     1
  6
CONTINUOUS
 10
4.1597
 20
0.0205
  0
VERTEX
  8
LAYER10
 62
     1
  6
CONTINUOUS
 10
4.1627
 20
0.0216
  0
VERTEX
  8
LAYER10
 62
     1
  6
CONTINUOUS
 10
4.1657
 20
0.0223
  0
VERTEX
  8
LAYER10
 62
     1
  6
CONTINUOUS
 10
4.1681
 20
0.0226
  0
VERTEX
  8
LAYER10
 62
     1
  6
CONTINUOUS
 10
4.1705
 20
0.0227
  0
VERTEX
  8
LAYER10
 62
     1
  6
CONTINUOUS
 10
4.1730
 20
0.0225
  0
VERTEX
  8
LAYER10
 62
     1
  6
CONTINUOUS
 10
4.1755
 20
0.0223
  0
VERTEX
  8
LAYER10
 62
     1
  6
CONTINUOUS
 10
4.1781
 20
0.0218
  0
VERTEX
  8
LAYER10
 62
     1
  6
CONTINUOUS
 10
4.1806
 20
0.0213
  0
VERTEX
  8
LAYER10
 62
     1
  6
CONTINUOUS
 10
4.1832
 20
0.0206
  0
VERTEX
  8
LAYER10
 62
     1
  6
CONTINUOUS
 10
4.1858
 20
0.0199
  0
VERTEX
  8
LAYER10
 62
     1
  6
CONTINUOUS
 10
4.1883
 20
0.0192
  0
VERTEX
  8
LAYER10
 62
     1
  6
CONTINUOUS
 10
4.1909
 20
0.0185
  0
VERTEX
  8
LAYER10
 62
     1
  6
CONTINUOUS
 10
4.1935
 20
0.0178
  0
VERTEX
  8
LAYER10
 62
     1
  6
CONTINUOUS
 10
4.1961
 20
0.0171
  0
VERTEX
  8
LAYER10
 62
     1
  6
CONTINUOUS
 10
4.1991
 20
0.0165
  0
VERTEX
  8
LAYER10
 62
     1
  6
CONTINUOUS
 10
4.2021
 20
0.0159
  0
VERTEX
  8
LAYER10
 62
     1
  6
CONTINUOUS
 10
4.2051
 20
0.0154
  0
VERTEX
  8
LAYER10
 62
     1
  6
CONTINUOUS
 10
4.2081
 20
0.0150
  0
VERTEX
  8
LAYER10
 62
     1
  6
CONTINUOUS
 10
4.2111
 20
0.0146
  0
VERTEX
  8
LAYER10
 62
     1
  6
CONTINUOUS
 10
4.2140
 20
0.0143
  0
VERTEX
  8
LAYER10
 62
     1
  6
CONTINUOUS
 10
4.2170
 20
0.0140
  0
VERTEX
  8
LAYER10
 62
     1
  6
CONTINUOUS
 10
4.2199
 20
0.0136
  0
VERTEX
  8
LAYER10
 62
     1
  6
CONTINUOUS
 10
4.2229
 20
0.0133
  0
VERTEX
  8
LAYER10
 62
     1
  6
CONTINUOUS
 10
4.2258
 20
0.0129
  0
VERTEX
  8
LAYER10
 62
     1
  6
CONTINUOUS
 10
4.2287
 20
0.0125
  0
VERTEX
  8
LAYER10
 62
     1
  6
CONTINUOUS
 10
4.2316
 20
0.0120
  0
VERTEX
  8
LAYER10
 62
     1
  6
CONTINUOUS
 10
4.2342
 20
0.0115
  0
VERTEX
  8
LAYER10
 62
     1
  6
CONTINUOUS
 10
4.2368
 20
0.0109
  0
VERTEX
  8
LAYER10
 62
     1
  6
CONTINUOUS
 10
4.2393
 20
0.0103
  0
VERTEX
  8
LAYER10
 62
     1
  6
CONTINUOUS
 10
4.2419
 20
0.0096
  0
VERTEX
  8
LAYER10
 62
     1
  6
CONTINUOUS
 10
4.2444
 20
0.0089
  0
VERTEX
  8
LAYER10
 62
     1
  6
CONTINUOUS
 10
4.2469
 20
0.0082
  0
VERTEX
  8
LAYER10
 62
     1
  6
CONTINUOUS
 10
4.2495
 20
0.0074
  0
VERTEX
  8
LAYER10
 62
     1
  6
CONTINUOUS
 10
4.2520
 20
0.0067
  0
VERTEX
  8
LAYER10
 62
     1
  6
CONTINUOUS
 10
4.2545
 20
0.0058
  0
VERTEX
  8
LAYER10
 62
     1
  6
CONTINUOUS
 10
4.2570
 20
0.0050
  0
VERTEX
  8
LAYER10
 62
     1
  6
CONTINUOUS
 10
4.2596
 20
0.0042
  0
VERTEX
  8
LAYER10
 62
     1
  6
CONTINUOUS
 10
4.2621
 20
0.0033
  0
SEQEND
  8
LAYER10
  0
POLYLINE
  8
LAYER10
 62
     1
 66
     1
  6
CONTINUOUS
  0
VERTEX
  8
LAYER10
 62
     1
  6
CONTINUOUS
 10
4.0589
 20
-0.1328
  0
VERTEX
  8
LAYER10
 62
     1
  6
CONTINUOUS
 10
4.0589
 20
-0.1328
  0
VERTEX
  8
LAYER10
 62
     1
  6
CONTINUOUS
 10
4.0589
 20
-0.1328
  0
VERTEX
  8
LAYER10
 62
     1
  6
CONTINUOUS
 10
4.0589
 20
-0.1328
  0
VERTEX
  8
LAYER10
 62
     1
  6
CONTINUOUS
 10
4.0589
 20
-0.1328
  0
VERTEX
  8
LAYER10
 62
     1
  6
CONTINUOUS
 10
4.0589
 20
-0.1328
  0
VERTEX
  8
LAYER10
 62
     1
  6
CONTINUOUS
 10
4.0589
 20
-0.1328
  0
VERTEX
  8
LAYER10
 62
     1
  6
CONTINUOUS
 10
4.0589
 20
-0.1328
  0
VERTEX
  8
LAYER10
 62
     1
  6
CONTINUOUS
 10
4.0589
 20
-0.1328
  0
VERTEX
  8
LAYER10
 62
     1
  6
CONTINUOUS
 10
4.0589
 20
-0.1328
  0
VERTEX
  8
LAYER10
 62
     1
  6
CONTINUOUS
 10
4.0589
 20
-0.1328
  0
VERTEX
  8
LAYER10
 62
     1
  6
CONTINUOUS
 10
4.0589
 20
-0.1328
  0
VERTEX
  8
LAYER10
 62
     1
  6
CONTINUOUS
 10
4.0589
 20
-0.1328
  0
VERTEX
  8
LAYER10
 62
     1
  6
CONTINUOUS
 10
4.0589
 20
-0.1324
  0
VERTEX
  8
LAYER10
 62
     1
  6
CONTINUOUS
 10
4.0589
 20
-0.1322
  0
VERTEX
  8
LAYER10
 62
     1
  6
CONTINUOUS
 10
4.0589
 20
-0.1320
  0
VERTEX
  8
LAYER10
 62
     1
  6
CONTINUOUS
 10
4.0588
 20
-0.1320
  0
VERTEX
  8
LAYER10
 62
     1
  6
CONTINUOUS
 10
4.0588
 20
-0.1319
  0
VERTEX
  8
LAYER10
 62
     1
  6
CONTINUOUS
 10
4.0588
 20
-0.1319
  0
VERTEX
  8
LAYER10
 62
     1
  6
CONTINUOUS
 10
4.0588
 20
-0.1320
  0
VERTEX
  8
LAYER10
 62
     1
  6
CONTINUOUS
 10
4.0589
 20
-0.1321
  0
VERTEX
  8
LAYER10
 62
     1
  6
CONTINUOUS
 10
4.0589
 20
-0.1323
  0
VERTEX
  8
LAYER10
 62
     1
  6
CONTINUOUS
 10
4.0589
 20
-0.1324
  0
VERTEX
  8
LAYER10
 62
     1
  6
CONTINUOUS
 10
4.0589
 20
-0.1326
  0
VERTEX
  8
LAYER10
 62
     1
  6
CONTINUOUS
 10
4.0589
 20
-0.1328
  0
SEQEND
  8
LAYER10
  0
POLYLINE
  8
LAYER10
 62
     1
 66
     1
  6
CONTINUOUS
  0
VERTEX
  8
LAYER10
 62
     1
  6
CONTINUOUS
 10
4.0589
 20
-0.1328
  0
VERTEX
  8
LAYER10
 62
     1
  6
CONTINUOUS
 10
4.0589
 20
-0.1325
  0
VERTEX
  8
LAYER10
 62
     1
  6
CONTINUOUS
 10
4.0589
 20
-0.1323
  0
VERTEX
  8
LAYER10
 62
     1
  6
CONTINUOUS
 10
4.0588
 20
-0.1320
  0
VERTEX
  8
LAYER10
 62
     1
  6
CONTINUOUS
 10
4.0588
 20
-0.1318
  0
VERTEX
  8
LAYER10
 62
     1
  6
CONTINUOUS
 10
4.0588
 20
-0.1315
  0
VERTEX
  8
LAYER10
 62
     1
  6
CONTINUOUS
 10
4.0588
 20
-0.1313
  0
VERTEX
  8
LAYER10
 62
     1
  6
CONTINUOUS
 10
4.0587
 20
-0.1310
  0
VERTEX
  8
LAYER10
 62
     1
  6
CONTINUOUS
 10
4.0587
 20
-0.1308
  0
VERTEX
  8
LAYER10
 62
     1
  6
CONTINUOUS
 10
4.0587
 20
-0.1305
  0
VERTEX
  8
LAYER10
 62
     1
  6
CONTINUOUS
 10
4.0587
 20
-0.1303
  0
VERTEX
  8
LAYER10
 62
     1
  6
CONTINUOUS
 10
4.0587
 20
-0.1301
  0
VERTEX
  8
LAYER10
 62
     1
  6
CONTINUOUS
 10
4.0587
 20
-0.1298
  0
VERTEX
  8
LAYER10
 62
     1
  6
CONTINUOUS
 10
4.0587
 20
-0.1295
  0
VERTEX
  8
LAYER10
 62
     1
  6
CONTINUOUS
 10
4.0587
 20
-0.1292
  0
VERTEX
  8
LAYER10
 62
     1
  6
CONTINUOUS
 10
4.0587
 20
-0.1289
  0
VERTEX
  8
LAYER10
 62
     1
  6
CONTINUOUS
 10
4.0587
 20
-0.1286
  0
VERTEX
  8
LAYER10
 62
     1
  6
CONTINUOUS
 10
4.0587
 20
-0.1283
  0
VERTEX
  8
LAYER10
 62
     1
  6
CONTINUOUS
 10
4.0587
 20
-0.1280
  0
VERTEX
  8
LAYER10
 62
     1
  6
CONTINUOUS
 10
4.0588
 20
-0.1277
  0
VERTEX
  8
LAYER10
 62
     1
  6
CONTINUOUS
 10
4.0588
 20
-0.1273
  0
VERTEX
  8
LAYER10
 62
     1
  6
CONTINUOUS
 10
4.0588
 20
-0.1270
  0
VERTEX
  8
LAYER10
 62
     1
  6
CONTINUOUS
 10
4.0588
 20
-0.1267
  0
VERTEX
  8
LAYER10
 62
     1
  6
CONTINUOUS
 10
4.0589
 20
-0.1264
  0
VERTEX
  8
LAYER10
 62
     1
  6
CONTINUOUS
 10
4.0589
 20
-0.1261
  0
SEQEND
  8
LAYER10
  0
POLYLINE
  8
LAYER10
 62
     1
 66
     1
  6
CONTINUOUS
  0
VERTEX
  8
LAYER10
 62
     1
  6
CONTINUOUS
 10
4.0589
 20
-0.1261
  0
VERTEX
  8
LAYER10
 62
     1
  6
CONTINUOUS
 10
4.0589
 20
-0.1261
  0
VERTEX
  8
LAYER10
 62
     1
  6
CONTINUOUS
 10
4.0589
 20
-0.1261
  0
VERTEX
  8
LAYER10
 62
     1
  6
CONTINUOUS
 10
4.0589
 20
-0.1261
  0
VERTEX
  8
LAYER10
 62
     1
  6
CONTINUOUS
 10
4.0589
 20
-0.1261
  0
VERTEX
  8
LAYER10
 62
     1
  6
CONTINUOUS
 10
4.0589
 20
-0.1261
  0
VERTEX
  8
LAYER10
 62
     1
  6
CONTINUOUS
 10
4.0589
 20
-0.1261
  0
VERTEX
  8
LAYER10
 62
     1
  6
CONTINUOUS
 10
4.0589
 20
-0.1261
  0
VERTEX
  8
LAYER10
 62
     1
  6
CONTINUOUS
 10
4.0589
 20
-0.1261
  0
VERTEX
  8
LAYER10
 62
     1
  6
CONTINUOUS
 10
4.0589
 20
-0.1261
  0
VERTEX
  8
LAYER10
 62
     1
  6
CONTINUOUS
 10
4.0589
 20
-0.1261
  0
VERTEX
  8
LAYER10
 62
     1
  6
CONTINUOUS
 10
4.0589
 20
-0.1261
  0
VERTEX
  8
LAYER10
 62
     1
  6
CONTINUOUS
 10
4.0589
 20
-0.1261
  0
VERTEX
  8
LAYER10
 62
     1
  6
CONTINUOUS
 10
4.0589
 20
-0.1257
  0
VERTEX
  8
LAYER10
 62
     1
  6
CONTINUOUS
 10
4.0590
 20
-0.1255
  0
VERTEX
  8
LAYER10
 62
     1
  6
CONTINUOUS
 10
4.0590
 20
-0.1253
  0
VERTEX
  8
LAYER10
 62
     1
  6
CONTINUOUS
 10
4.0590
 20
-0.1252
  0
VERTEX
  8
LAYER10
 62
     1
  6
CONTINUOUS
 10
4.0590
 20
-0.1252
  0
VERTEX
  8
LAYER10
 62
     1
  6
CONTINUOUS
 10
4.0590
 20
-0.1252
  0
VERTEX
  8
LAYER10
 62
     1
  6
CONTINUOUS
 10
4.0590
 20
-0.1253
  0
VERTEX
  8
LAYER10
 62
     1
  6
CONTINUOUS
 10
4.0590
 20
-0.1254
  0
VERTEX
  8
LAYER10
 62
     1
  6
CONTINUOUS
 10
4.0590
 20
-0.1255
  0
VERTEX
  8
LAYER10
 62
     1
  6
CONTINUOUS
 10
4.0589
 20
-0.1257
  0
VERTEX
  8
LAYER10
 62
     1
  6
CONTINUOUS
 10
4.0589
 20
-0.1259
  0
VERTEX
  8
LAYER10
 62
     1
  6
CONTINUOUS
 10
4.0589
 20
-0.1261
  0
SEQEND
  8
LAYER10
  0
POLYLINE
  8
LAYER10
 62
     1
 66
     1
  6
CONTINUOUS
  0
VERTEX
  8
LAYER10
 62
     1
  6
CONTINUOUS
 10
4.0608
 20
-0.1446
  0
VERTEX
  8
LAYER10
 62
     1
  6
CONTINUOUS
 10
4.0606
 20
-0.1433
  0
VERTEX
  8
LAYER10
 62
     1
  6
CONTINUOUS
 10
4.0604
 20
-0.1420
  0
VERTEX
  8
LAYER10
 62
     1
  6
CONTINUOUS
 10
4.0602
 20
-0.1407
  0
VERTEX
  8
LAYER10
 62
     1
  6
CONTINUOUS
 10
4.0600
 20
-0.1394
  0
VERTEX
  8
LAYER10
 62
     1
  6
CONTINUOUS
 10
4.0598
 20
-0.1382
  0
VERTEX
  8
LAYER10
 62
     1
  6
CONTINUOUS
 10
4.0596
 20
-0.1371
  0
VERTEX
  8
LAYER10
 62
     1
  6
CONTINUOUS
 10
4.0594
 20
-0.1361
  0
VERTEX
  8
LAYER10
 62
     1
  6
CONTINUOUS
 10
4.0593
 20
-0.1351
  0
VERTEX
  8
LAYER10
 62
     1
  6
CONTINUOUS
 10
4.0592
 20
-0.1343
  0
VERTEX
  8
LAYER10
 62
     1
  6
CONTINUOUS
 10
4.0591
 20
-0.1337
  0
VERTEX
  8
LAYER10
 62
     1
  6
CONTINUOUS
 10
4.0590
 20
-0.1331
  0
VERTEX
  8
LAYER10
 62
     1
  6
CONTINUOUS
 10
4.0589
 20
-0.1328
  0
VERTEX
  8
LAYER10
 62
     1
  6
CONTINUOUS
 10
4.0589
 20
-0.1327
  0
VERTEX
  8
LAYER10
 62
     1
  6
CONTINUOUS
 10
4.0589
 20
-0.1326
  0
VERTEX
  8
LAYER10
 62
     1
  6
CONTINUOUS
 10
4.0589
 20
-0.1326
  0
VERTEX
  8
LAYER10
 62
     1
  6
CONTINUOUS
 10
4.0589
 20
-0.1326
  0
VERTEX
  8
LAYER10
 62
     1
  6
CONTINUOUS
 10
4.0589
 20
-0.1326
  0
VERTEX
  8
LAYER10
 62
     1
  6
CONTINUOUS
 10
4.0589
 20
-0.1326
  0
VERTEX
  8
LAYER10
 62
     1
  6
CONTINUOUS
 10
4.0589
 20
-0.1326
  0
VERTEX
  8
LAYER10
 62
     1
  6
CONTINUOUS
 10
4.0589
 20
-0.1326
  0
VERTEX
  8
LAYER10
 62
     1
  6
CONTINUOUS
 10
4.0589
 20
-0.1327
  0
VERTEX
  8
LAYER10
 62
     1
  6
CONTINUOUS
 10
4.0589
 20
-0.1327
  0
VERTEX
  8
LAYER10
 62
     1
  6
CONTINUOUS
 10
4.0589
 20
-0.1327
  0
VERTEX
  8
LAYER10
 62
     1
  6
CONTINUOUS
 10
4.0589
 20
-0.1328
  0
SEQEND
  8
LAYER10
  0
POLYLINE
  8
LAYER10
 62
     1
 66
     1
  6
CONTINUOUS
  0
VERTEX
  8
LAYER10
 62
     1
  6
CONTINUOUS
 10
4.0589
 20
-0.1328
  0
VERTEX
  8
LAYER10
 62
     1
  6
CONTINUOUS
 10
4.0589
 20
-0.1328
  0
VERTEX
  8
LAYER10
 62
     1
  6
CONTINUOUS
 10
4.0589
 20
-0.1328
  0
VERTEX
  8
LAYER10
 62
     1
  6
CONTINUOUS
 10
4.0589
 20
-0.1328
  0
VERTEX
  8
LAYER10
 62
     1
  6
CONTINUOUS
 10
4.0589
 20
-0.1328
  0
VERTEX
  8
LAYER10
 62
     1
  6
CONTINUOUS
 10
4.0589
 20
-0.1328
  0
VERTEX
  8
LAYER10
 62
     1
  6
CONTINUOUS
 10
4.0589
 20
-0.1328
  0
VERTEX
  8
LAYER10
 62
     1
  6
CONTINUOUS
 10
4.0589
 20
-0.1328
  0
VERTEX
  8
LAYER10
 62
     1
  6
CONTINUOUS
 10
4.0589
 20
-0.1328
  0
VERTEX
  8
LAYER10
 62
     1
  6
CONTINUOUS
 10
4.0589
 20
-0.1328
  0
VERTEX
  8
LAYER10
 62
     1
  6
CONTINUOUS
 10
4.0589
 20
-0.1328
  0
VERTEX
  8
LAYER10
 62
     1
  6
CONTINUOUS
 10
4.0589
 20
-0.1328
  0
VERTEX
  8
LAYER10
 62
     1
  6
CONTINUOUS
 10
4.0589
 20
-0.1328
  0
VERTEX
  8
LAYER10
 62
     1
  6
CONTINUOUS
 10
4.0590
 20
-0.1331
  0
VERTEX
  8
LAYER10
 62
     1
  6
CONTINUOUS
 10
4.0590
 20
-0.1334
  0
VERTEX
  8
LAYER10
 62
     1
  6
CONTINUOUS
 10
4.0590
 20
-0.1335
  0
VERTEX
  8
LAYER10
 62
     1
  6
CONTINUOUS
 10
4.0591
 20
-0.1336
  0
VERTEX
  8
LAYER10
 62
     1
  6
CONTINUOUS
 10
4.0591
 20
-0.1337
  0
VERTEX
  8
LAYER10
 62
     1
  6
CONTINUOUS
 10
4.0591
 20
-0.1336
  0
VERTEX
  8
LAYER10
 62
     1
  6
CONTINUOUS
 10
4.0590
 20
-0.1336
  0
VERTEX
  8
LAYER10
 62
     1
  6
CONTINUOUS
 10
4.0590
 20
-0.1335
  0
VERTEX
  8
LAYER10
 62
     1
  6
CONTINUOUS
 10
4.0590
 20
-0.1333
  0
VERTEX
  8
LAYER10
 62
     1
  6
CONTINUOUS
 10
4.0590
 20
-0.1332
  0
VERTEX
  8
LAYER10
 62
     1
  6
CONTINUOUS
 10
4.0590
 20
-0.1330
  0
VERTEX
  8
LAYER10
 62
     1
  6
CONTINUOUS
 10
4.0589
 20
-0.1328
  0
SEQEND
  8
LAYER10
  0
POLYLINE
  8
LAYER10
 62
     1
 66
     1
  6
CONTINUOUS
  0
VERTEX
  8
LAYER10
 62
     1
  6
CONTINUOUS
 10
4.0589
 20
-0.1261
  0
VERTEX
  8
LAYER10
 62
     1
  6
CONTINUOUS
 10
4.0589
 20
-0.1261
  0
VERTEX
  8
LAYER10
 62
     1
  6
CONTINUOUS
 10
4.0589
 20
-0.1261
  0
VERTEX
  8
LAYER10
 62
     1
  6
CONTINUOUS
 10
4.0589
 20
-0.1261
  0
VERTEX
  8
LAYER10
 62
     1
  6
CONTINUOUS
 10
4.0589
 20
-0.1261
  0
VERTEX
  8
LAYER10
 62
     1
  6
CONTINUOUS
 10
4.0589
 20
-0.1261
  0
VERTEX
  8
LAYER10
 62
     1
  6
CONTINUOUS
 10
4.0589
 20
-0.1261
  0
VERTEX
  8
LAYER10
 62
     1
  6
CONTINUOUS
 10
4.0589
 20
-0.1261
  0
VERTEX
  8
LAYER10
 62
     1
  6
CONTINUOUS
 10
4.0589
 20
-0.1261
  0
VERTEX
  8
LAYER10
 62
     1
  6
CONTINUOUS
 10
4.0589
 20
-0.1261
  0
VERTEX
  8
LAYER10
 62
     1
  6
CONTINUOUS
 10
4.0589
 20
-0.1261
  0
VERTEX
  8
LAYER10
 62
     1
  6
CONTINUOUS
 10
4.0589
 20
-0.1261
  0
VERTEX
  8
LAYER10
 62
     1
  6
CONTINUOUS
 10
4.0589
 20
-0.1261
  0
VERTEX
  8
LAYER10
 62
     1
  6
CONTINUOUS
 10
4.0589
 20
-0.1264
  0
VERTEX
  8
LAYER10
 62
     1
  6
CONTINUOUS
 10
4.0588
 20
-0.1266
  0
VERTEX
  8
LAYER10
 62
     1
  6
CONTINUOUS
 10
4.0588
 20
-0.1268
  0
VERTEX
  8
LAYER10
 62
     1
  6
CONTINUOUS
 10
4.0588
 20
-0.1269
  0
VERTEX
  8
LAYER10
 62
     1
  6
CONTINUOUS
 10
4.0588
 20
-0.1269
  0
VERTEX
  8
LAYER10
 62
     1
  6
CONTINUOUS
 10
4.0588
 20
-0.1269
  0
VERTEX
  8
LAYER10
 62
     1
  6
CONTINUOUS
 10
4.0588
 20
-0.1268
  0
VERTEX
  8
LAYER10
 62
     1
  6
CONTINUOUS
 10
4.0588
 20
-0.1267
  0
VERTEX
  8
LAYER10
 62
     1
  6
CONTINUOUS
 10
4.0588
 20
-0.1266
  0
VERTEX
  8
LAYER10
 62
     1
  6
CONTINUOUS
 10
4.0589
 20
-0.1264
  0
VERTEX
  8
LAYER10
 62
     1
  6
CONTINUOUS
 10
4.0589
 20
-0.1263
  0
VERTEX
  8
LAYER10
 62
     1
  6
CONTINUOUS
 10
4.0589
 20
-0.1261
  0
SEQEND
  8
LAYER10
  0
POLYLINE
  8
LAYER10
 62
     1
 66
     1
  6
CONTINUOUS
  0
VERTEX
  8
LAYER10
 62
     1
  6
CONTINUOUS
 10
4.0589
 20
-0.1261
  0
VERTEX
  8
LAYER10
 62
     1
  6
CONTINUOUS
 10
4.0591
 20
-0.1246
  0
VERTEX
  8
LAYER10
 62
     1
  6
CONTINUOUS
 10
4.0593
 20
-0.1232
  0
VERTEX
  8
LAYER10
 62
     1
  6
CONTINUOUS
 10
4.0595
 20
-0.1218
  0
VERTEX
  8
LAYER10
 62
     1
  6
CONTINUOUS
 10
4.0597
 20
-0.1205
  0
VERTEX
  8
LAYER10
 62
     1
  6
CONTINUOUS
 10
4.0599
 20
-0.1192
  0
VERTEX
  8
LAYER10
 62
     1
  6
CONTINUOUS
 10
4.0601
 20
-0.1180
  0
VERTEX
  8
LAYER10
 62
     1
  6
CONTINUOUS
 10
4.0603
 20
-0.1169
  0
VERTEX
  8
LAYER10
 62
     1
  6
CONTINUOUS
 10
4.0604
 20
-0.1160
  0
VERTEX
  8
LAYER10
 62
     1
  6
CONTINUOUS
 10
4.0605
 20
-0.1151
  0
VERTEX
  8
LAYER10
 62
     1
  6
CONTINUOUS
 10
4.0606
 20
-0.1144
  0
VERTEX
  8
LAYER10
 62
     1
  6
CONTINUOUS
 10
4.0607
 20
-0.1139
  0
VERTEX
  8
LAYER10
 62
     1
  6
CONTINUOUS
 10
4.0608
 20
-0.1135
  0
VERTEX
  8
LAYER10
 62
     1
  6
CONTINUOUS
 10
4.0608
 20
-0.1134
  0
VERTEX
  8
LAYER10
 62
     1
  6
CONTINUOUS
 10
4.0608
 20
-0.1133
  0
VERTEX
  8
LAYER10
 62
     1
  6
CONTINUOUS
 10
4.0608
 20
-0.1133
  0
VERTEX
  8
LAYER10
 62
     1
  6
CONTINUOUS
 10
4.0608
 20
-0.1133
  0
VERTEX
  8
LAYER10
 62
     1
  6
CONTINUOUS
 10
4.0608
 20
-0.1133
  0
VERTEX
  8
LAYER10
 62
     1
  6
CONTINUOUS
 10
4.0608
 20
-0.1133
  0
VERTEX
  8
LAYER10
 62
     1
  6
CONTINUOUS
 10
4.0608
 20
-0.1133
  0
VERTEX
  8
LAYER10
 62
     1
  6
CONTINUOUS
 10
4.0608
 20
-0.1133
  0
VERTEX
  8
LAYER10
 62
     1
  6
CONTINUOUS
 10
4.0608
 20
-0.1134
  0
VERTEX
  8
LAYER10
 62
     1
  6
CONTINUOUS
 10
4.0608
 20
-0.1134
  0
VERTEX
  8
LAYER10
 62
     1
  6
CONTINUOUS
 10
4.0608
 20
-0.1134
  0
VERTEX
  8
LAYER10
 62
     1
  6
CONTINUOUS
 10
4.0608
 20
-0.1135
  0
SEQEND
  8
LAYER10
  0
POLYLINE
  8
LAYER10
 62
     1
 66
     1
  6
CONTINUOUS
  0
VERTEX
  8
LAYER10
 62
     1
  6
CONTINUOUS
 10
5.0426
 20
0.0833
  0
VERTEX
  8
LAYER10
 62
     1
  6
CONTINUOUS
 10
5.0426
 20
0.0833
  0
VERTEX
  8
LAYER10
 62
     1
  6
CONTINUOUS
 10
5.0426
 20
0.0833
  0
VERTEX
  8
LAYER10
 62
     1
  6
CONTINUOUS
 10
5.0426
 20
0.0833
  0
VERTEX
  8
LAYER10
 62
     1
  6
CONTINUOUS
 10
5.0426
 20
0.0833
  0
VERTEX
  8
LAYER10
 62
     1
  6
CONTINUOUS
 10
5.0426
 20
0.0833
  0
VERTEX
  8
LAYER10
 62
     1
  6
CONTINUOUS
 10
5.0426
 20
0.0833
  0
VERTEX
  8
LAYER10
 62
     1
  6
CONTINUOUS
 10
5.0426
 20
0.0833
  0
VERTEX
  8
LAYER10
 62
     1
  6
CONTINUOUS
 10
5.0426
 20
0.0833
  0
VERTEX
  8
LAYER10
 62
     1
  6
CONTINUOUS
 10
5.0426
 20
0.0833
  0
VERTEX
  8
LAYER10
 62
     1
  6
CONTINUOUS
 10
5.0426
 20
0.0833
  0
VERTEX
  8
LAYER10
 62
     1
  6
CONTINUOUS
 10
5.0426
 20
0.0833
  0
VERTEX
  8
LAYER10
 62
     1
  6
CONTINUOUS
 10
5.0426
 20
0.0833
  0
VERTEX
  8
LAYER10
 62
     1
  6
CONTINUOUS
 10
5.0426
 20
0.0833
  0
VERTEX
  8
LAYER10
 62
     1
  6
CONTINUOUS
 10
5.0426
 20
0.0833
  0
VERTEX
  8
LAYER10
 62
     1
  6
CONTINUOUS
 10
5.0426
 20
0.0833
  0
VERTEX
  8
LAYER10
 62
     1
  6
CONTINUOUS
 10
5.0426
 20
0.0833
  0
VERTEX
  8
LAYER10
 62
     1
  6
CONTINUOUS
 10
5.0426
 20
0.0833
  0
VERTEX
  8
LAYER10
 62
     1
  6
CONTINUOUS
 10
5.0426
 20
0.0833
  0
VERTEX
  8
LAYER10
 62
     1
  6
CONTINUOUS
 10
5.0426
 20
0.0833
  0
VERTEX
  8
LAYER10
 62
     1
  6
CONTINUOUS
 10
5.0426
 20
0.0833
  0
VERTEX
  8
LAYER10
 62
     1
  6
CONTINUOUS
 10
5.0426
 20
0.0833
  0
VERTEX
  8
LAYER10
 62
     1
  6
CONTINUOUS
 10
5.0426
 20
0.0833
  0
VERTEX
  8
LAYER10
 62
     1
  6
CONTINUOUS
 10
5.0426
 20
0.0833
  0
VERTEX
  8
LAYER10
 62
     1
  6
CONTINUOUS
 10
5.0426
 20
0.0833
  0
SEQEND
  8
LAYER10
  0
POLYLINE
  8
LAYER10
 62
     1
 66
     1
  6
CONTINUOUS
  0
VERTEX
  8
LAYER10
 62
     1
  6
CONTINUOUS
 10
5.0426
 20
0.0833
  0
VERTEX
  8
LAYER10
 62
     1
  6
CONTINUOUS
 10
5.0426
 20
0.0833
  0
VERTEX
  8
LAYER10
 62
     1
  6
CONTINUOUS
 10
5.0426
 20
0.0833
  0
VERTEX
  8
LAYER10
 62
     1
  6
CONTINUOUS
 10
5.0426
 20
0.0833
  0
VERTEX
  8
LAYER10
 62
     1
  6
CONTINUOUS
 10
5.0426
 20
0.0833
  0
VERTEX
  8
LAYER10
 62
     1
  6
CONTINUOUS
 10
5.0426
 20
0.0833
  0
VERTEX
  8
LAYER10
 62
     1
  6
CONTINUOUS
 10
5.0426
 20
0.0833
  0
VERTEX
  8
LAYER10
 62
     1
  6
CONTINUOUS
 10
5.0426
 20
0.0833
  0
VERTEX
  8
LAYER10
 62
     1
  6
CONTINUOUS
 10
5.0426
 20
0.0833
  0
VERTEX
  8
LAYER10
 62
     1
  6
CONTINUOUS
 10
5.0426
 20
0.0833
  0
VERTEX
  8
LAYER10
 62
     1
  6
CONTINUOUS
 10
5.0426
 20
0.0833
  0
VERTEX
  8
LAYER10
 62
     1
  6
CONTINUOUS
 10
5.0426
 20
0.0833
  0
VERTEX
  8
LAYER10
 62
     1
  6
CONTINUOUS
 10
5.0426
 20
0.0833
  0
VERTEX
  8
LAYER10
 62
     1
  6
CONTINUOUS
 10
5.0426
 20
0.0833
  0
VERTEX
  8
LAYER10
 62
     1
  6
CONTINUOUS
 10
5.0426
 20
0.0833
  0
VERTEX
  8
LAYER10
 62
     1
  6
CONTINUOUS
 10
5.0426
 20
0.0833
  0
VERTEX
  8
LAYER10
 62
     1
  6
CONTINUOUS
 10
5.0426
 20
0.0833
  0
VERTEX
  8
LAYER10
 62
     1
  6
CONTINUOUS
 10
5.0426
 20
0.0833
  0
VERTEX
  8
LAYER10
 62
     1
  6
CONTINUOUS
 10
5.0426
 20
0.0833
  0
VERTEX
  8
LAYER10
 62
     1
  6
CONTINUOUS
 10
5.0426
 20
0.0833
  0
VERTEX
  8
LAYER10
 62
     1
  6
CONTINUOUS
 10
5.0426
 20
0.0833
  0
VERTEX
  8
LAYER10
 62
     1
  6
CONTINUOUS
 10
5.0426
 20
0.0833
  0
VERTEX
  8
LAYER10
 62
     1
  6
CONTINUOUS
 10
5.0426
 20
0.0833
  0
VERTEX
  8
LAYER10
 62
     1
  6
CONTINUOUS
 10
5.0426
 20
0.0833
  0
VERTEX
  8
LAYER10
 62
     1
  6
CONTINUOUS
 10
5.0426
 20
0.0833
  0
SEQEND
  8
LAYER10
  0
POLYLINE
  8
LAYER10
 62
     1
 66
     1
  6
CONTINUOUS
  0
VERTEX
  8
LAYER10
 62
     1
  6
CONTINUOUS
 10
5.0426
 20
0.0833
  0
VERTEX
  8
LAYER10
 62
     1
  6
CONTINUOUS
 10
5.0423
 20
0.0831
  0
VERTEX
  8
LAYER10
 62
     1
  6
CONTINUOUS
 10
5.0420
 20
0.0829
  0
VERTEX
  8
LAYER10
 62
     1
  6
CONTINUOUS
 10
5.0417
 20
0.0828
  0
VERTEX
  8
LAYER10
 62
     1
  6
CONTINUOUS
 10
5.0415
 20
0.0826
  0
VERTEX
  8
LAYER10
 62
     1
  6
CONTINUOUS
 10
5.0412
 20
0.0824
  0
VERTEX
  8
LAYER10
 62
     1
  6
CONTINUOUS
 10
5.0409
 20
0.0822
  0
VERTEX
  8
LAYER10
 62
     1
  6
CONTINUOUS
 10
5.0406
 20
0.0821
  0
VERTEX
  8
LAYER10
 62
     1
  6
CONTINUOUS
 10
5.0403
 20
0.0819
  0
VERTEX
  8
LAYER10
 62
     1
  6
CONTINUOUS
 10
5.0400
 20
0.0817
  0
VERTEX
  8
LAYER10
 62
     1
  6
CONTINUOUS
 10
5.0397
 20
0.0815
  0
VERTEX
  8
LAYER10
 62
     1
  6
CONTINUOUS
 10
5.0395
 20
0.0814
  0
VERTEX
  8
LAYER10
 62
     1
  6
CONTINUOUS
 10
5.0392
 20
0.0812
  0
VERTEX
  8
LAYER10
 62
     1
  6
CONTINUOUS
 10
5.0369
 20
0.0796
  0
VERTEX
  8
LAYER10
 62
     1
  6
CONTINUOUS
 10
5.0348
 20
0.0779
  0
VERTEX
  8
LAYER10
 62
     1
  6
CONTINUOUS
 10
5.0327
 20
0.0761
  0
VERTEX
  8
LAYER10
 62
     1
  6
CONTINUOUS
 10
5.0306
 20
0.0743
  0
VERTEX
  8
LAYER10
 62
     1
  6
CONTINUOUS
 10
5.0285
 20
0.0724
  0
VERTEX
  8
LAYER10
 62
     1
  6
CONTINUOUS
 10
5.0265
 20
0.0705
  0
VERTEX
  8
LAYER10
 62
     1
  6
CONTINUOUS
 10
5.0245
 20
0.0686
  0
VERTEX
  8
LAYER10
 62
     1
  6
CONTINUOUS
 10
5.0224
 20
0.0668
  0
VERTEX
  8
LAYER10
 62
     1
  6
CONTINUOUS
 10
5.0203
 20
0.0651
  0
VERTEX
  8
LAYER10
 62
     1
  6
CONTINUOUS
 10
5.0182
 20
0.0636
  0
VERTEX
  8
LAYER10
 62
     1
  6
CONTINUOUS
 10
5.0160
 20
0.0621
  0
VERTEX
  8
LAYER10
 62
     1
  6
CONTINUOUS
 10
5.0137
 20
0.0609
  0
VERTEX
  8
LAYER10
 62
     1
  6
CONTINUOUS
 10
5.0100
 20
0.0595
  0
VERTEX
  8
LAYER10
 62
     1
  6
CONTINUOUS
 10
5.0062
 20
0.0585
  0
VERTEX
  8
LAYER10
 62
     1
  6
CONTINUOUS
 10
5.0021
 20
0.0580
  0
VERTEX
  8
LAYER10
 62
     1
  6
CONTINUOUS
 10
4.9979
 20
0.0579
  0
VERTEX
  8
LAYER10
 62
     1
  6
CONTINUOUS
 10
4.9937
 20
0.0581
  0
VERTEX
  8
LAYER10
 62
     1
  6
CONTINUOUS
 10
4.9893
 20
0.0587
  0
VERTEX
  8
LAYER10
 62
     1
  6
CONTINUOUS
 10
4.9849
 20
0.0596
  0
VERTEX
  8
LAYER10
 62
     1
  6
CONTINUOUS
 10
4.9805
 20
0.0606
  0
VERTEX
  8
LAYER10
 62
     1
  6
CONTINUOUS
 10
4.9760
 20
0.0619
  0
VERTEX
  8
LAYER10
 62
     1
  6
CONTINUOUS
 10
4.9716
 20
0.0632
  0
VERTEX
  8
LAYER10
 62
     1
  6
CONTINUOUS
 10
4.9673
 20
0.0647
  0
VERTEX
  8
LAYER10
 62
     1
  6
CONTINUOUS
 10
4.9630
 20
0.0661
  0
VERTEX
  8
LAYER10
 62
     1
  6
CONTINUOUS
 10
4.9603
 20
0.0670
  0
VERTEX
  8
LAYER10
 62
     1
  6
CONTINUOUS
 10
4.9577
 20
0.0679
  0
VERTEX
  8
LAYER10
 62
     1
  6
CONTINUOUS
 10
4.9551
 20
0.0688
  0
VERTEX
  8
LAYER10
 62
     1
  6
CONTINUOUS
 10
4.9526
 20
0.0697
  0
VERTEX
  8
LAYER10
 62
     1
  6
CONTINUOUS
 10
4.9500
 20
0.0706
  0
VERTEX
  8
LAYER10
 62
     1
  6
CONTINUOUS
 10
4.9475
 20
0.0715
  0
VERTEX
  8
LAYER10
 62
     1
  6
CONTINUOUS
 10
4.9450
 20
0.0723
  0
VERTEX
  8
LAYER10
 62
     1
  6
CONTINUOUS
 10
4.9425
 20
0.0732
  0
VERTEX
  8
LAYER10
 62
     1
  6
CONTINUOUS
 10
4.9400
 20
0.0740
  0
VERTEX
  8
LAYER10
 62
     1
  6
CONTINUOUS
 10
4.9375
 20
0.0748
  0
VERTEX
  8
LAYER10
 62
     1
  6
CONTINUOUS
 10
4.9350
 20
0.0756
  0
VERTEX
  8
LAYER10
 62
     1
  6
CONTINUOUS
 10
4.9325
 20
0.0763
  0
VERTEX
  8
LAYER10
 62
     1
  6
CONTINUOUS
 10
4.9287
 20
0.0775
  0
VERTEX
  8
LAYER10
 62
     1
  6
CONTINUOUS
 10
4.9249
 20
0.0786
  0
VERTEX
  8
LAYER10
 62
     1
  6
CONTINUOUS
 10
4.9211
 20
0.0797
  0
VERTEX
  8
LAYER10
 62
     1
  6
CONTINUOUS
 10
4.9173
 20
0.0808
  0
VERTEX
  8
LAYER10
 62
     1
  6
CONTINUOUS
 10
4.9134
 20
0.0819
  0
VERTEX
  8
LAYER10
 62
     1
  6
CONTINUOUS
 10
4.9096
 20
0.0830
  0
VERTEX
  8
LAYER10
 62
     1
  6
CONTINUOUS
 10
4.9057
 20
0.0843
  0
VERTEX
  8
LAYER10
 62
     1
  6
CONTINUOUS
 10
4.9019
 20
0.0855
  0
VERTEX
  8
LAYER10
 62
     1
  6
CONTINUOUS
 10
4.8981
 20
0.0869
  0
VERTEX
  8
LAYER10
 62
     1
  6
CONTINUOUS
 10
4.8943
 20
0.0884
  0
VERTEX
  8
LAYER10
 62
     1
  6
CONTINUOUS
 10
4.8906
 20
0.0900
  0
VERTEX
  8
LAYER10
 62
     1
  6
CONTINUOUS
 10
4.8869
 20
0.0917
  0
VERTEX
  8
LAYER10
 62
     1
  6
CONTINUOUS
 10
4.8833
 20
0.0935
  0
VERTEX
  8
LAYER10
 62
     1
  6
CONTINUOUS
 10
4.8798
 20
0.0954
  0
VERTEX
  8
LAYER10
 62
     1
  6
CONTINUOUS
 10
4.8764
 20
0.0975
  0
VERTEX
  8
LAYER10
 62
     1
  6
CONTINUOUS
 10
4.8731
 20
0.0998
  0
VERTEX
  8
LAYER10
 62
     1
  6
CONTINUOUS
 10
4.8698
 20
0.1021
  0
VERTEX
  8
LAYER10
 62
     1
  6
CONTINUOUS
 10
4.8667
 20
0.1046
  0
VERTEX
  8
LAYER10
 62
     1
  6
CONTINUOUS
 10
4.8637
 20
0.1072
  0
VERTEX
  8
LAYER10
 62
     1
  6
CONTINUOUS
 10
4.8609
 20
0.1100
  0
VERTEX
  8
LAYER10
 62
     1
  6
CONTINUOUS
 10
4.8583
 20
0.1129
  0
VERTEX
  8
LAYER10
 62
     1
  6
CONTINUOUS
 10
4.8558
 20
0.1159
  0
VERTEX
  8
LAYER10
 62
     1
  6
CONTINUOUS
 10
4.8535
 20
0.1190
  0
VERTEX
  8
LAYER10
 62
     1
  6
CONTINUOUS
 10
4.8514
 20
0.1222
  0
VERTEX
  8
LAYER10
 62
     1
  6
CONTINUOUS
 10
4.8490
 20
0.1267
  0
VERTEX
  8
LAYER10
 62
     1
  6
CONTINUOUS
 10
4.8469
 20
0.1314
  0
VERTEX
  8
LAYER10
 62
     1
  6
CONTINUOUS
 10
4.8452
 20
0.1362
  0
VERTEX
  8
LAYER10
 62
     1
  6
CONTINUOUS
 10
4.8438
 20
0.1412
  0
VERTEX
  8
LAYER10
 62
     1
  6
CONTINUOUS
 10
4.8428
 20
0.1462
  0
VERTEX
  8
LAYER10
 62
     1
  6
CONTINUOUS
 10
4.8419
 20
0.1514
  0
VERTEX
  8
LAYER10
 62
     1
  6
CONTINUOUS
 10
4.8414
 20
0.1567
  0
VERTEX
  8
LAYER10
 62
     1
  6
CONTINUOUS
 10
4.8410
 20
0.1620
  0
VERTEX
  8
LAYER10
 62
     1
  6
CONTINUOUS
 10
4.8409
 20
0.1673
  0
VERTEX
  8
LAYER10
 62
     1
  6
CONTINUOUS
 10
4.8409
 20
0.1726
  0
VERTEX
  8
LAYER10
 62
     1
  6
CONTINUOUS
 10
4.8411
 20
0.1779
  0
VERTEX
  8
LAYER10
 62
     1
  6
CONTINUOUS
 10
4.8414
 20
0.1832
  0
VERTEX
  8
LAYER10
 62
     1
  6
CONTINUOUS
 10
4.8417
 20
0.1875
  0
VERTEX
  8
LAYER10
 62
     1
  6
CONTINUOUS
 10
4.8421
 20
0.1918
  0
VERTEX
  8
LAYER10
 62
     1
  6
CONTINUOUS
 10
4.8426
 20
0.1960
  0
VERTEX
  8
LAYER10
 62
     1
  6
CONTINUOUS
 10
4.8430
 20
0.2002
  0
VERTEX
  8
LAYER10
 62
     1
  6
CONTINUOUS
 10
4.8435
 20
0.2044
  0
VERTEX
  8
LAYER10
 62
     1
  6
CONTINUOUS
 10
4.8440
 20
0.2086
  0
VERTEX
  8
LAYER10
 62
     1
  6
CONTINUOUS
 10
4.8445
 20
0.2128
  0
VERTEX
  8
LAYER10
 62
     1
  6
CONTINUOUS
 10
4.8450
 20
0.2170
  0
VERTEX
  8
LAYER10
 62
     1
  6
CONTINUOUS
 10
4.8455
 20
0.2212
  0
VERTEX
  8
LAYER10
 62
     1
  6
CONTINUOUS
 10
4.8459
 20
0.2254
  0
VERTEX
  8
LAYER10
 62
     1
  6
CONTINUOUS
 10
4.8463
 20
0.2297
  0
VERTEX
  8
LAYER10
 62
     1
  6
CONTINUOUS
 10
4.8466
 20
0.2340
  0
VERTEX
  8
LAYER10
 62
     1
  6
CONTINUOUS
 10
4.8468
 20
0.2370
  0
VERTEX
  8
LAYER10
 62
     1
  6
CONTINUOUS
 10
4.8469
 20
0.2401
  0
VERTEX
  8
LAYER10
 62
     1
  6
CONTINUOUS
 10
4.8471
 20
0.2431
  0
VERTEX
  8
LAYER10
 62
     1
  6
CONTINUOUS
 10
4.8472
 20
0.2462
  0
VERTEX
  8
LAYER10
 62
     1
  6
CONTINUOUS
 10
4.8474
 20
0.2493
  0
VERTEX
  8
LAYER10
 62
     1
  6
CONTINUOUS
 10
4.8477
 20
0.2523
  0
VERTEX
  8
LAYER10
 62
     1
  6
CONTINUOUS
 10
4.8481
 20
0.2553
  0
VERTEX
  8
LAYER10
 62
     1
  6
CONTINUOUS
 10
4.8485
 20
0.2582
  0
VERTEX
  8
LAYER10
 62
     1
  6
CONTINUOUS
 10
4.8491
 20
0.2612
  0
VERTEX
  8
LAYER10
 62
     1
  6
CONTINUOUS
 10
4.8498
 20
0.2640
  0
VERTEX
  8
LAYER10
 62
     1
  6
CONTINUOUS
 10
4.8507
 20
0.2668
  0
VERTEX
  8
LAYER10
 62
     1
  6
CONTINUOUS
 10
4.8517
 20
0.2695
  0
VERTEX
  8
LAYER10
 62
     1
  6
CONTINUOUS
 10
4.8531
 20
0.2724
  0
VERTEX
  8
LAYER10
 62
     1
  6
CONTINUOUS
 10
4.8547
 20
0.2752
  0
VERTEX
  8
LAYER10
 62
     1
  6
CONTINUOUS
 10
4.8565
 20
0.2779
  0
VERTEX
  8
LAYER10
 62
     1
  6
CONTINUOUS
 10
4.8585
 20
0.2805
  0
VERTEX
  8
LAYER10
 62
     1
  6
CONTINUOUS
 10
4.8606
 20
0.2831
  0
VERTEX
  8
LAYER10
 62
     1
  6
CONTINUOUS
 10
4.8628
 20
0.2856
  0
VERTEX
  8
LAYER10
 62
     1
  6
CONTINUOUS
 10
4.8651
 20
0.2880
  0
VERTEX
  8
LAYER10
 62
     1
  6
CONTINUOUS
 10
4.8675
 20
0.2905
  0
VERTEX
  8
LAYER10
 62
     1
  6
CONTINUOUS
 10
4.8699
 20
0.2928
  0
VERTEX
  8
LAYER10
 62
     1
  6
CONTINUOUS
 10
4.8724
 20
0.2952
  0
VERTEX
  8
LAYER10
 62
     1
  6
CONTINUOUS
 10
4.8748
 20
0.2976
  0
VERTEX
  8
LAYER10
 62
     1
  6
CONTINUOUS
 10
4.8772
 20
0.2999
  0
VERTEX
  8
LAYER10
 62
     1
  6
CONTINUOUS
 10
4.8781
 20
0.3008
  0
VERTEX
  8
LAYER10
 62
     1
  6
CONTINUOUS
 10
4.8789
 20
0.3016
  0
VERTEX
  8
LAYER10
 62
     1
  6
CONTINUOUS
 10
4.8798
 20
0.3025
  0
VERTEX
  8
LAYER10
 62
     1
  6
CONTINUOUS
 10
4.8806
 20
0.3033
  0
VERTEX
  8
LAYER10
 62
     1
  6
CONTINUOUS
 10
4.8814
 20
0.3042
  0
VERTEX
  8
LAYER10
 62
     1
  6
CONTINUOUS
 10
4.8823
 20
0.3050
  0
VERTEX
  8
LAYER10
 62
     1
  6
CONTINUOUS
 10
4.8831
 20
0.3058
  0
VERTEX
  8
LAYER10
 62
     1
  6
CONTINUOUS
 10
4.8840
 20
0.3067
  0
VERTEX
  8
LAYER10
 62
     1
  6
CONTINUOUS
 10
4.8848
 20
0.3075
  0
VERTEX
  8
LAYER10
 62
     1
  6
CONTINUOUS
 10
4.8857
 20
0.3084
  0
VERTEX
  8
LAYER10
 62
     1
  6
CONTINUOUS
 10
4.8865
 20
0.3092
  0
VERTEX
  8
LAYER10
 62
     1
  6
CONTINUOUS
 10
4.8874
 20
0.3100
  0
VERTEX
  8
LAYER10
 62
     1
  6
CONTINUOUS
 10
4.8889
 20
0.3115
  0
VERTEX
  8
LAYER10
 62
     1
  6
CONTINUOUS
 10
4.8905
 20
0.3129
  0
VERTEX
  8
LAYER10
 62
     1
  6
CONTINUOUS
 10
4.8921
 20
0.3143
  0
VERTEX
  8
LAYER10
 62
     1
  6
CONTINUOUS
 10
4.8937
 20
0.3157
  0
VERTEX
  8
LAYER10
 62
     1
  6
CONTINUOUS
 10
4.8954
 20
0.3171
  0
VERTEX
  8
LAYER10
 62
     1
  6
CONTINUOUS
 10
4.8970
 20
0.3184
  0
VERTEX
  8
LAYER10
 62
     1
  6
CONTINUOUS
 10
4.8988
 20
0.3197
  0
VERTEX
  8
LAYER10
 62
     1
  6
CONTINUOUS
 10
4.9005
 20
0.3209
  0
VERTEX
  8
LAYER10
 62
     1
  6
CONTINUOUS
 10
4.9023
 20
0.3221
  0
VERTEX
  8
LAYER10
 62
     1
  6
CONTINUOUS
 10
4.9040
 20
0.3232
  0
VERTEX
  8
LAYER10
 62
     1
  6
CONTINUOUS
 10
4.9059
 20
0.3242
  0
VERTEX
  8
LAYER10
 62
     1
  6
CONTINUOUS
 10
4.9077
 20
0.3252
  0
VERTEX
  8
LAYER10
 62
     1
  6
CONTINUOUS
 10
4.9108
 20
0.3267
  0
VERTEX
  8
LAYER10
 62
     1
  6
CONTINUOUS
 10
4.9140
 20
0.3280
  0
VERTEX
  8
LAYER10
 62
     1
  6
CONTINUOUS
 10
4.9173
 20
0.3291
  0
VERTEX
  8
LAYER10
 62
     1
  6
CONTINUOUS
 10
4.9206
 20
0.3301
  0
VERTEX
  8
LAYER10
 62
     1
  6
CONTINUOUS
 10
4.9240
 20
0.3310
  0
VERTEX
  8
LAYER10
 62
     1
  6
CONTINUOUS
 10
4.9274
 20
0.3318
  0
VERTEX
  8
LAYER10
 62
     1
  6
CONTINUOUS
 10
4.9309
 20
0.3325
  0
VERTEX
  8
LAYER10
 62
     1
  6
CONTINUOUS
 10
4.9343
 20
0.3331
  0
VERTEX
  8
LAYER10
 62
     1
  6
CONTINUOUS
 10
4.9378
 20
0.3337
  0
VERTEX
  8
LAYER10
 62
     1
  6
CONTINUOUS
 10
4.9413
 20
0.3342
  0
VERTEX
  8
LAYER10
 62
     1
  6
CONTINUOUS
 10
4.9449
 20
0.3347
  0
VERTEX
  8
LAYER10
 62
     1
  6
CONTINUOUS
 10
4.9484
 20
0.3353
  0
VERTEX
  8
LAYER10
 62
     1
  6
CONTINUOUS
 10
4.9518
 20
0.3358
  0
VERTEX
  8
LAYER10
 62
     1
  6
CONTINUOUS
 10
4.9552
 20
0.3364
  0
VERTEX
  8
LAYER10
 62
     1
  6
CONTINUOUS
 10
4.9586
 20
0.3370
  0
VERTEX
  8
LAYER10
 62
     1
  6
CONTINUOUS
 10
4.9620
 20
0.3375
  0
VERTEX
  8
LAYER10
 62
     1
  6
CONTINUOUS
 10
4.9654
 20
0.3380
  0
VERTEX
  8
LAYER10
 62
     1
  6
CONTINUOUS
 10
4.9688
 20
0.3386
  0
VERTEX
  8
LAYER10
 62
     1
  6
CONTINUOUS
 10
4.9722
 20
0.3390
  0
VERTEX
  8
LAYER10
 62
     1
  6
CONTINUOUS
 10
4.9755
 20
0.3394
  0
VERTEX
  8
LAYER10
 62
     1
  6
CONTINUOUS
 10
4.9789
 20
0.3398
  0
VERTEX
  8
LAYER10
 62
     1
  6
CONTINUOUS
 10
4.9823
 20
0.3400
  0
VERTEX
  8
LAYER10
 62
     1
  6
CONTINUOUS
 10
4.9856
 20
0.3402
  0
VERTEX
  8
LAYER10
 62
     1
  6
CONTINUOUS
 10
4.9890
 20
0.3403
  0
VERTEX
  8
LAYER10
 62
     1
  6
CONTINUOUS
 10
4.9935
 20
0.3402
  0
VERTEX
  8
LAYER10
 62
     1
  6
CONTINUOUS
 10
4.9979
 20
0.3399
  0
VERTEX
  8
LAYER10
 62
     1
  6
CONTINUOUS
 10
5.0024
 20
0.3395
  0
VERTEX
  8
LAYER10
 62
     1
  6
CONTINUOUS
 10
5.0069
 20
0.3389
  0
VERTEX
  8
LAYER10
 62
     1
  6
CONTINUOUS
 10
5.0113
 20
0.3382
  0
VERTEX
  8
LAYER10
 62
     1
  6
CONTINUOUS
 10
5.0158
 20
0.3374
  0
VERTEX
  8
LAYER10
 62
     1
  6
CONTINUOUS
 10
5.0203
 20
0.3365
  0
VERTEX
  8
LAYER10
 62
     1
  6
CONTINUOUS
 10
5.0247
 20
0.3355
  0
VERTEX
  8
LAYER10
 62
     1
  6
CONTINUOUS
 10
5.0292
 20
0.3344
  0
VERTEX
  8
LAYER10
 62
     1
  6
CONTINUOUS
 10
5.0337
 20
0.3333
  0
VERTEX
  8
LAYER10
 62
     1
  6
CONTINUOUS
 10
5.0381
 20
0.3321
  0
VERTEX
  8
LAYER10
 62
     1
  6
CONTINUOUS
 10
5.0426
 20
0.3310
  0
SEQEND
  8
LAYER10
  0
POLYLINE
  8
LAYER10
 62
     1
 66
     1
  6
CONTINUOUS
  0
VERTEX
  8
LAYER10
 62
     1
  6
CONTINUOUS
 10
5.0426
 20
0.3310
  0
VERTEX
  8
LAYER10
 62
     1
  6
CONTINUOUS
 10
5.0426
 20
0.3310
  0
VERTEX
  8
LAYER10
 62
     1
  6
CONTINUOUS
 10
5.0426
 20
0.3310
  0
VERTEX
  8
LAYER10
 62
     1
  6
CONTINUOUS
 10
5.0426
 20
0.3310
  0
VERTEX
  8
LAYER10
 62
     1
  6
CONTINUOUS
 10
5.0426
 20
0.3310
  0
VERTEX
  8
LAYER10
 62
     1
  6
CONTINUOUS
 10
5.0426
 20
0.3310
  0
VERTEX
  8
LAYER10
 62
     1
  6
CONTINUOUS
 10
5.0426
 20
0.3310
  0
VERTEX
  8
LAYER10
 62
     1
  6
CONTINUOUS
 10
5.0426
 20
0.3310
  0
VERTEX
  8
LAYER10
 62
     1
  6
CONTINUOUS
 10
5.0426
 20
0.3310
  0
VERTEX
  8
LAYER10
 62
     1
  6
CONTINUOUS
 10
5.0426
 20
0.3310
  0
VERTEX
  8
LAYER10
 62
     1
  6
CONTINUOUS
 10
5.0426
 20
0.3310
  0
VERTEX
  8
LAYER10
 62
     1
  6
CONTINUOUS
 10
5.0426
 20
0.3310
  0
VERTEX
  8
LAYER10
 62
     1
  6
CONTINUOUS
 10
5.0426
 20
0.3310
  0
VERTEX
  8
LAYER10
 62
     1
  6
CONTINUOUS
 10
5.0426
 20
0.3310
  0
VERTEX
  8
LAYER10
 62
     1
  6
CONTINUOUS
 10
5.0426
 20
0.3310
  0
VERTEX
  8
LAYER10
 62
     1
  6
CONTINUOUS
 10
5.0426
 20
0.3310
  0
VERTEX
  8
LAYER10
 62
     1
  6
CONTINUOUS
 10
5.0426
 20
0.3310
  0
VERTEX
  8
LAYER10
 62
     1
  6
CONTINUOUS
 10
5.0426
 20
0.3310
  0
VERTEX
  8
LAYER10
 62
     1
  6
CONTINUOUS
 10
5.0426
 20
0.3310
  0
VERTEX
  8
LAYER10
 62
     1
  6
CONTINUOUS
 10
5.0426
 20
0.3310
  0
VERTEX
  8
LAYER10
 62
     1
  6
CONTINUOUS
 10
5.0426
 20
0.3310
  0
VERTEX
  8
LAYER10
 62
     1
  6
CONTINUOUS
 10
5.0426
 20
0.3310
  0
VERTEX
  8
LAYER10
 62
     1
  6
CONTINUOUS
 10
5.0426
 20
0.3310
  0
VERTEX
  8
LAYER10
 62
     1
  6
CONTINUOUS
 10
5.0426
 20
0.3310
  0
VERTEX
  8
LAYER10
 62
     1
  6
CONTINUOUS
 10
5.0426
 20
0.3310
  0
SEQEND
  8
LAYER10
  0
POLYLINE
  8
LAYER10
 62
     1
 66
     1
  6
CONTINUOUS
  0
VERTEX
  8
LAYER10
 62
     1
  6
CONTINUOUS
 10
5.0426
 20
0.3310
  0
VERTEX
  8
LAYER10
 62
     1
  6
CONTINUOUS
 10
5.0426
 20
0.3310
  0
VERTEX
  8
LAYER10
 62
     1
  6
CONTINUOUS
 10
5.0426
 20
0.3310
  0
VERTEX
  8
LAYER10
 62
     1
  6
CONTINUOUS
 10
5.0426
 20
0.3310
  0
VERTEX
  8
LAYER10
 62
     1
  6
CONTINUOUS
 10
5.0426
 20
0.3310
  0
VERTEX
  8
LAYER10
 62
     1
  6
CONTINUOUS
 10
5.0426
 20
0.3310
  0
VERTEX
  8
LAYER10
 62
     1
  6
CONTINUOUS
 10
5.0426
 20
0.3310
  0
VERTEX
  8
LAYER10
 62
     1
  6
CONTINUOUS
 10
5.0426
 20
0.3310
  0
VERTEX
  8
LAYER10
 62
     1
  6
CONTINUOUS
 10
5.0426
 20
0.3310
  0
VERTEX
  8
LAYER10
 62
     1
  6
CONTINUOUS
 10
5.0426
 20
0.3310
  0
VERTEX
  8
LAYER10
 62
     1
  6
CONTINUOUS
 10
5.0426
 20
0.3310
  0
VERTEX
  8
LAYER10
 62
     1
  6
CONTINUOUS
 10
5.0426
 20
0.3310
  0
VERTEX
  8
LAYER10
 62
     1
  6
CONTINUOUS
 10
5.0426
 20
0.3310
  0
VERTEX
  8
LAYER10
 62
     1
  6
CONTINUOUS
 10
5.0426
 20
0.3306
  0
VERTEX
  8
LAYER10
 62
     1
  6
CONTINUOUS
 10
5.0426
 20
0.3304
  0
VERTEX
  8
LAYER10
 62
     1
  6
CONTINUOUS
 10
5.0426
 20
0.3302
  0
VERTEX
  8
LAYER10
 62
     1
  6
CONTINUOUS
 10
5.0426
 20
0.3301
  0
VERTEX
  8
LAYER10
 62
     1
  6
CONTINUOUS
 10
5.0426
 20
0.3301
  0
VERTEX
  8
LAYER10
 62
     1
  6
CONTINUOUS
 10
5.0426
 20
0.3301
  0
VERTEX
  8
LAYER10
 62
     1
  6
CONTINUOUS
 10
5.0426
 20
0.3302
  0
VERTEX
  8
LAYER10
 62
     1
  6
CONTINUOUS
 10
5.0426
 20
0.3303
  0
VERTEX
  8
LAYER10
 62
     1
  6
CONTINUOUS
 10
5.0426
 20
0.3304
  0
VERTEX
  8
LAYER10
 62
     1
  6
CONTINUOUS
 10
5.0426
 20
0.3306
  0
VERTEX
  8
LAYER10
 62
     1
  6
CONTINUOUS
 10
5.0426
 20
0.3308
  0
VERTEX
  8
LAYER10
 62
     1
  6
CONTINUOUS
 10
5.0426
 20
0.3310
  0
SEQEND
  8
LAYER10
  0
POLYLINE
  8
LAYER12
 62
     5
 66
     1
  6
CONTINUOUS
  0
VERTEX
  8
LAYER12
 62
     5
  6
CONTINUOUS
 10
4.0589
 20
-0.4411
  0
VERTEX
  8
LAYER12
 62
     5
  6
CONTINUOUS
 10
4.0589
 20
-0.4411
  0
SEQEND
  8
LAYER12
  0
POLYLINE
  8
LAYER12
 62
     5
 66
     1
  6
CONTINUOUS
  0
VERTEX
  8
LAYER12
 62
     5
  6
CONTINUOUS
 10
4.0589
 20
-0.4411
  0
VERTEX
  8
LAYER12
 62
     5
  6
CONTINUOUS
 10
4.0589
 20
-0.4411
  0
SEQEND
  8
LAYER12
  0
POLYLINE
  8
LAYER12
 62
     5
 66
     1
  6
CONTINUOUS
  0
VERTEX
  8
LAYER12
 62
     5
  6
CONTINUOUS
 10
4.0589
 20
-0.4411
  0
VERTEX
  8
LAYER12
 62
     5
  6
CONTINUOUS
 10
4.0589
 20
-0.4411
  0
SEQEND
  8
LAYER12
  0
POLYLINE
  8
LAYER12
 62
     5
 66
     1
  6
CONTINUOUS
  0
VERTEX
  8
LAYER12
 62
     5
  6
CONTINUOUS
 10
4.0608
 20
-0.4411
  0
VERTEX
  8
LAYER12
 62
     5
  6
CONTINUOUS
 10
4.0589
 20
-0.4411
  0
SEQEND
  8
LAYER12
  0
POLYLINE
  8
LAYER12
 62
     5
 66
     1
  6
CONTINUOUS
  0
VERTEX
  8
LAYER12
 62
     5
  6
CONTINUOUS
 10
4.0589
 20
-0.4382
  0
VERTEX
  8
LAYER12
 62
     5
  6
CONTINUOUS
 10
4.0589
 20
-0.4411
  0
SEQEND
  8
LAYER12
  0
POLYLINE
  8
LAYER12
 62
     5
 66
     1
  6
CONTINUOUS
  0
VERTEX
  8
LAYER12
 62
     5
  6
CONTINUOUS
 10
4.0589
 20
0.5393
  0
VERTEX
  8
LAYER12
 62
     5
  6
CONTINUOUS
 10
4.0589
 20
-0.4382
  0
SEQEND
  8
LAYER12
  0
POLYLINE
  8
LAYER12
 62
     5
 66
     1
  6
CONTINUOUS
  0
VERTEX
  8
LAYER12
 62
     5
  6
CONTINUOUS
 10
4.0589
 20
-0.4415
  0
VERTEX
  8
LAYER12
 62
     5
  6
CONTINUOUS
 10
4.0589
 20
-0.4415
  0
SEQEND
  8
LAYER12
  0
POLYLINE
  8
LAYER12
 62
     5
 66
     1
  6
CONTINUOUS
  0
VERTEX
  8
LAYER12
 62
     5
  6
CONTINUOUS
 10
4.0589
 20
-0.4415
  0
VERTEX
  8
LAYER12
 62
     5
  6
CONTINUOUS
 10
4.0589
 20
-0.4415
  0
SEQEND
  8
LAYER12
  0
POLYLINE
  8
LAYER12
 62
     5
 66
     1
  6
CONTINUOUS
  0
VERTEX
  8
LAYER12
 62
     5
  6
CONTINUOUS
 10
4.0589
 20
-0.4415
  0
VERTEX
  8
LAYER12
 62
     5
  6
CONTINUOUS
 10
4.0589
 20
-0.4411
  0
SEQEND
  8
LAYER12
  0
POLYLINE
  8
LAYER12
 62
     5
 66
     1
  6
CONTINUOUS
  0
VERTEX
  8
LAYER12
 62
     5
  6
CONTINUOUS
 10
5.0426
 20
-0.4411
  0
VERTEX
  8
LAYER12
 62
     5
  6
CONTINUOUS
 10
4.0608
 20
-0.4411
  0
SEQEND
  8
LAYER12
  0
POLYLINE
  8
LAYER12
 62
     5
 66
     1
  6
CONTINUOUS
  0
VERTEX
  8
LAYER12
 62
     5
  6
CONTINUOUS
 10
4.0589
 20
-0.4411
  0
VERTEX
  8
LAYER12
 62
     5
  6
CONTINUOUS
 10
4.0574
 20
-0.4411
  0
SEQEND
  8
LAYER12
  0
POLYLINE
  8
LAYER12
 62
     5
 66
     1
  6
CONTINUOUS
  0
VERTEX
  8
LAYER12
 62
     5
  6
CONTINUOUS
 10
4.1107
 20
0.5426
  0
VERTEX
  8
LAYER12
 62
     5
  6
CONTINUOUS
 10
4.3296
 20
0.5426
  0
SEQEND
  8
LAYER12
  0
POLYLINE
  8
LAYER12
 62
     5
 66
     1
  6
CONTINUOUS
  0
VERTEX
  8
LAYER12
 62
     5
  6
CONTINUOUS
 10
4.0608
 20
0.5426
  0
VERTEX
  8
LAYER12
 62
     5
  6
CONTINUOUS
 10
4.1107
 20
0.5426
  0
SEQEND
  8
LAYER12
  0
POLYLINE
  8
LAYER12
 62
     5
 66
     1
  6
CONTINUOUS
  0
VERTEX
  8
LAYER12
 62
     5
  6
CONTINUOUS
 10
4.0574
 20
0.5426
  0
VERTEX
  8
LAYER12
 62
     5
  6
CONTINUOUS
 10
4.0589
 20
0.5426
  0
SEQEND
  8
LAYER12
  0
POLYLINE
  8
LAYER12
 62
     5
 66
     1
  6
CONTINUOUS
  0
VERTEX
  8
LAYER12
 62
     5
  6
CONTINUOUS
 10
4.0589
 20
0.5426
  0
VERTEX
  8
LAYER12
 62
     5
  6
CONTINUOUS
 10
4.0574
 20
0.5426
  0
SEQEND
  8
LAYER12
  0
POLYLINE
  8
LAYER12
 62
     5
 66
     1
  6
CONTINUOUS
  0
VERTEX
  8
LAYER12
 62
     5
  6
CONTINUOUS
 10
4.0574
 20
0.5426
  0
VERTEX
  8
LAYER12
 62
     5
  6
CONTINUOUS
 10
4.0574
 20
0.5426
  0
SEQEND
  8
LAYER12
  0
POLYLINE
  8
LAYER12
 62
     5
 66
     1
  6
CONTINUOUS
  0
VERTEX
  8
LAYER12
 62
     5
  6
CONTINUOUS
 10
4.3296
 20
0.5426
  0
VERTEX
  8
LAYER12
 62
     5
  6
CONTINUOUS
 10
5.0426
 20
0.5426
  0
SEQEND
  8
LAYER12
  0
POLYLINE
  8
LAYER12
 62
     5
 66
     1
  6
CONTINUOUS
  0
VERTEX
  8
LAYER12
 62
     5
  6
CONTINUOUS
 10
4.0574
 20
0.5426
  0
VERTEX
  8
LAYER12
 62
     5
  6
CONTINUOUS
 10
4.0574
 20
0.5426
  0
SEQEND
  8
LAYER12
  0
POLYLINE
  8
LAYER12
 62
     5
 66
     1
  6
CONTINUOUS
  0
VERTEX
  8
LAYER12
 62
     5
  6
CONTINUOUS
 10
4.0574
 20
0.5426
  0
VERTEX
  8
LAYER12
 62
     5
  6
CONTINUOUS
 10
4.0589
 20
0.5426
  0
SEQEND
  8
LAYER12
  0
POLYLINE
  8
LAYER12
 62
     5
 66
     1
  6
CONTINUOUS
  0
VERTEX
  8
LAYER12
 62
     5
  6
CONTINUOUS
 10
4.0589
 20
0.5426
  0
VERTEX
  8
LAYER12
 62
     5
  6
CONTINUOUS
 10
4.0589
 20
0.5426
  0
SEQEND
  8
LAYER12
  0
POLYLINE
  8
LAYER12
 62
     5
 66
     1
  6
CONTINUOUS
  0
VERTEX
  8
LAYER12
 62
     5
  6
CONTINUOUS
 10
4.0589
 20
0.5426
  0
VERTEX
  8
LAYER12
 62
     5
  6
CONTINUOUS
 10
4.0589
 20
0.5426
  0
SEQEND
  8
LAYER12
  0
POLYLINE
  8
LAYER12
 62
     5
 66
     1
  6
CONTINUOUS
  0
VERTEX
  8
LAYER12
 62
     5
  6
CONTINUOUS
 10
4.0589
 20
0.5426
  0
VERTEX
  8
LAYER12
 62
     5
  6
CONTINUOUS
 10
4.0608
 20
0.5426
  0
SEQEND
  8
LAYER12
  0
POLYLINE
  8
LAYER12
 62
     5
 66
     1
  6
CONTINUOUS
  0
VERTEX
  8
LAYER12
 62
     5
  6
CONTINUOUS
 10
4.0589
 20
0.5426
  0
VERTEX
  8
LAYER12
 62
     5
  6
CONTINUOUS
 10
4.0589
 20
0.5426
  0
SEQEND
  8
LAYER12
  0
POLYLINE
  8
LAYER12
 62
     5
 66
     1
  6
CONTINUOUS
  0
VERTEX
  8
LAYER12
 62
     5
  6
CONTINUOUS
 10
4.0589
 20
0.5426
  0
VERTEX
  8
LAYER12
 62
     5
  6
CONTINUOUS
 10
4.0589
 20
0.5426
  0
SEQEND
  8
LAYER12
  0
POLYLINE
  8
LAYER12
 62
     5
 66
     1
  6
CONTINUOUS
  0
VERTEX
  8
LAYER12
 62
     5
  6
CONTINUOUS
 10
4.0589
 20
0.5426
  0
VERTEX
  8
LAYER12
 62
     5
  6
CONTINUOUS
 10
4.0589
 20
0.5393
  0
SEQEND
  8
LAYER12
  0
POLYLINE
  8
LAYER12
 62
     5
 66
     1
  6
CONTINUOUS
  0
VERTEX
  8
LAYER12
 62
     5
  6
CONTINUOUS
 10
5.0426
 20
-0.4415
  0
VERTEX
  8
LAYER12
 62
     5
  6
CONTINUOUS
 10
5.0426
 20
-0.4382
  0
SEQEND
  8
LAYER12
  0
POLYLINE
  8
LAYER12
 62
     5
 66
     1
  6
CONTINUOUS
  0
VERTEX
  8
LAYER12
 62
     5
  6
CONTINUOUS
 10
5.0426
 20
-0.4382
  0
VERTEX
  8
LAYER12
 62
     5
  6
CONTINUOUS
 10
5.0426
 20
0.5393
  0
SEQEND
  8
LAYER12
  0
POLYLINE
  8
LAYER12
 62
     5
 66
     1
  6
CONTINUOUS
  0
VERTEX
  8
LAYER12
 62
     5
  6
CONTINUOUS
 10
5.0426
 20
0.5393
  0
VERTEX
  8
LAYER12
 62
     5
  6
CONTINUOUS
 10
5.0426
 20
0.5426
  0
SEQEND
  8
LAYER12
  0
ENDSEC
  0
EOF
