  0
SECTION
  2
HEADER
  9
$ACADVER
  1
AC1004
  9
$EXTMIN
 10
10.0388
 20
-0.4411
  9
$EXTMAX
 10
11.0284
 20
0.5439
  9
$LIMMIN
 10
10.0388
 20
-0.4411
  9
$LIMMAX
 10
11.0284
 20
0.5439
  9
$INSBASE
 10
0.0
 20
0.0
  9
$VIEWCTR
 10
7.21903
 20
4.5
  9
$VIEWSIZE
 40
9.0
  9
$SNAPMODE
 70
     0
  9
$SNAPUNIT
 10
1.0
 20
1.0
  9
$SNAPBASE
 10
0.0
 20
0.0
  9
$SNAPANG
 50
0.0
  9
$SNAPSTYLE
 70
     0
  9
$SNAPISOPAIR
 70
     0
  9
$GRIDMODE
 70
     0
  9
$GRIDUNIT
 10
0.0
 20
0.0
  9
$ORTHOMODE
 70
     0
  9
$REGENMODE
 70
     1
  9
$FILLMODE
 70
     1
  9
$QTEXTMODE
 70
     0
  9
$DRAGMODE
 70
     2
  9
$LTSCALE
 40
1.0
  9
$OSMODE
 70
     0
  9
$ATTMODE
 70
     1
  9
$TEXTSIZE
 40
0.2
  9
$TRACEWID
 40
0.05
  9
$TEXTSTYLE
  7
STANDARD
  9
$CLAYER
  8
0
  9
$CELTYPE
  6
BYLAYER
  9
$CECOLOR
 62
   256
  9
$DIMSCALE
 40
1.0
  9
$DIMASZ
 40
0.18
  9
$DIMEXO
 40
0.0625
  9
$DIMDLI
 40
0.38
  9
$DIMRND
 40
0.0
  9
$DIMDLE
 40
0.0
  9
$DIMEXE
 40
0.18
  9
$DIMTP
 40
0.0
  9
$DIMTM
 40
0.0
  9
$DIMTXT
 40
0.18
  9
$DIMCEN
 40
0.09
  9
$DIMTSZ
 40
0.0
  9
$DIMTOL
 70
     0
  9
$DIMLIM
 70
     0
  9
$DIMTIH
 70
     1
  9
$DIMTOH
 70
     1
  9
$DIMSE1
 70
     0
  9
$DIMSE2
 70
     0
  9
$DIMTAD
 70
     0
  9
$DIMZIN
 70
     0
  9
$DIMBLK
  1

  9
$DIMASO
 70
     1
  9
$DIMSHO
 70
     0
  9
$DIMPOST
  1

  9
$DIMAPOST
  1

  9
$DIMALT
 70
     0
  9
$DIMALTD
 70
     2
  9
$DIMALTF
 40
25.4
  9
$DIMLFAC
 40
1.0
  9
$LUNITS
 70
     2
  9
$LUPREC
 70
     4
  9
$AXISMODE
 70
     0
  9
$AXISUNIT
 10
0.0
 20
0.0
  9
$SKETCHINC
 40
0.1
  9
$FILLETRAD
 40
0.0
  9
$AUNITS
 70
     0
  9
$AUPREC
 70
     0
  9
$MENU
  1
acad
  9
$ELEVATION
 40
0.0
  9
$THICKNESS
 40
0.0
  9
$VIEWDIR
 10
0.0
 20
0.0
 30
1.0
  9
$LIMCHECK
 70
     0
  9
$BLIPMODE
 70
     1
  9
$CHAMFERA
 40
0.0
  9
$CHAMFERB
 40
0.0
  9
$FASTZOOM
 70
     1
  9
$SKPOLY
 70
     0
  9
$TDCREATE
 40
2447222.5666886573
  9
$TDUPDATE
 40
2447222.5666886573
  9
$TDINDWG
 40
0.0000000000
  9
$TDUSRTIMER
 40
0.0000000000
  9
$USRTIMER
 70
     1
  9
$ANGBASE
 50
0.0
  9
$ANGDIR
 70
     0
  9
$PDMODE
 70
     0
  9
$PDSIZE
 40
0.0
  9
$PLINEWID
 40
0.0
  9
$COORDS
 70
     0
  9
$SPLFRAME
 70
     0
  9
$SPLINESEGS
 70
     8
  9
$ATTDIA
 70
     0
  9
$ATTREQ
 70
     1
  9
$USERI1
 70
     0
  9
$USERI2
 70
     0
  9
$USERI3
 70
     0
  9
$USERI4
 70
     0
  9
$USERI5
 70
     0
  9
$USERR1
 40
0.0
  9
$USERR2
 40
0.0
  9
$USERR3
 40
0.0
  9
$USERR4
 40
0.0
  9
$USERR5
 40
0.0
  0
ENDSEC
  0
SECTION
  2
TABLES
  0
TABLE
  2
LTYPE
 70
     13
  0
LTYPE
  2
CONTINUOUS
 70
    64
  3
Solid line
 72
    65
 73
     0
 40
0.0
  0
LTYPE
  2
DASHED
 70
    64
  3
__ __ __ __ __ __ __ __ __ __ __ __ __ __ __
 72
    65
 73
     2
 40
0.75
 49
0.5
 49
-0.25
  0
LTYPE
  2
HIDDEN
 70
    64
  3
_ _ _ _ _ _ _ _ _ _ _ _ _ _ _ _ _ _ _ _ _ _ _
 72
    65
 73
     2
 40
0.375
 49
0.25
 49
-0.125
  0
LTYPE
  2
CENTER
 70
    64
  3
____ _ ____ _ ____ _ ____ _ ____ _ ____ _ ____
 72
    65
 73
     4
 40
2.0
 49
1.25
 49
-0.25
 49
0.25
 49
-0.25
  0
LTYPE
  2
PHANTOM
 70
    64
  3
_____ _ _ _____ _ _ _____ _ _ _____ _ _ ____
 72
    65
 73
     6
 40
2.5
 49
1.25
 49
-0.25
 49
0.25
 49
-0.25
 49
0.25
 49
-0.25
  0
LTYPE
  2
DOT
 70
    64
  3
...............................................
 72
    65
 73
     2
 40
0.25
 49
0.0
 49
-0.25
  0
LTYPE
  2
DASHDOT
 70
    64
  3
__ . __ . __ . __ . __ . __ . __ . __ . __ . __
 72
    65
 73
     4
 40
1.0
 49
0.5
 49
-0.25
 49
0.0
 49
-0.25
  0
LTYPE
  2
BORDER
 70
    64
  3
__ __ . __ __ . __ __ . __ __ . __ __ . __ __
 72
    65
 73
     6
 40
1.75
 49
0.5
 49
-0.25
 49
0.5
 49
-0.25
 49
0.0
 49
-0.25
  0
LTYPE
  2
DIVIDE
 70
    64
  3
__ . . __ . . __ . . __ . . __ . . __ . . __
 72
    65
 73
     6
 40
1.25
 49
0.5
 49
-0.25
 49
0.0
 49
-0.25
 49
0.0
 49
-0.25
  0
LTYPE
  2
DCTYPE1
 70
    64
  3
__ . . __ . . __ . . __ . . __ . . __ . . __
 72
    65
 73
     8
 40
2.5
 49
0.5
 49
-0.25
 49
0.125
 49
-0.25
 49
0.25
 49
-0.25
 49
0.125
 49
-0.25
  0
LTYPE
  2
DCTYPE2
 70
    64
  3
__ . . __ . . __ . . __ . . __ . . __ . . __
 72
    65
 73
     6
 40
2.05
 49
1.0
 49
-0.3
 49
0.15
 49
-0.15
 49
0.15
 49
-0.3
  0
LTYPE
  2
DCTYPE3
 70
    64
  3
__ . . __ . . __ . . __ . . __ . . __ . . __
 72
    65
 73
     6
 40
2.5
 49
0.8
 49
-0.2
 49
0.8
 49
-0.2
 49
0.3
 49
-0.2
  0
LTYPE
  2
DCTYPE4
 70
    64
  3
__ . . __ . . __ . . __ . . __ . . __ . . __
 72
    65
 73
     10
 40
3.97
 49
1.75
 49
-0.3
 49
0.3
 49
-0.3
 49
0.06
 49
-0.3
 49
0.06
 49
-0.3
 49
0.3
 49
-0.3
  0
ENDTAB
  0
TABLE
  2
LAYER
 70
    153
  0
LAYER
  2
LAYER1
 70
 64
 62
     7
  6
CONTINUOUS
  0
LAYER
  2
LAYER10
 70
 64
 62
     1
  6
CONTINUOUS
  0
LAYER
  2
LAYER12
 70
 64
 62
     5
  6
CONTINUOUS
  0
ENDTAB
  0
ENDSEC
  0
SECTION
  2
BLOCKS
  0
ENDSEC
  0
SECTION
  2
ENTITIES
  0
CIRCLE
  8
LAYER1
 62
     7
  6
CONTINUOUS
 10
10.4469
 20
-0.2789
 40
0.0114
  0
CIRCLE
  8
LAYER1
 62
     7
  6
CONTINUOUS
 10
10.4013
 20
-0.3628
 40
0.0137
  0
POLYLINE
  8
LAYER1
 62
     7
 66
     1
  6
CONTINUOUS
  0
VERTEX
  8
LAYER1
 62
     7
  6
CONTINUOUS
 10
10.3360
 20
-0.3209
  0
VERTEX
  8
LAYER1
 62
     7
  6
CONTINUOUS
 10
10.3348
 20
-0.3188
  0
VERTEX
  8
LAYER1
 62
     7
  6
CONTINUOUS
 10
10.3336
 20
-0.3167
  0
VERTEX
  8
LAYER1
 62
     7
  6
CONTINUOUS
 10
10.3323
 20
-0.3145
  0
VERTEX
  8
LAYER1
 62
     7
  6
CONTINUOUS
 10
10.3311
 20
-0.3123
  0
VERTEX
  8
LAYER1
 62
     7
  6
CONTINUOUS
 10
10.3300
 20
-0.3102
  0
VERTEX
  8
LAYER1
 62
     7
  6
CONTINUOUS
 10
10.3289
 20
-0.3080
  0
VERTEX
  8
LAYER1
 62
     7
  6
CONTINUOUS
 10
10.3279
 20
-0.3059
  0
VERTEX
  8
LAYER1
 62
     7
  6
CONTINUOUS
 10
10.3271
 20
-0.3037
  0
VERTEX
  8
LAYER1
 62
     7
  6
CONTINUOUS
 10
10.3265
 20
-0.3016
  0
VERTEX
  8
LAYER1
 62
     7
  6
CONTINUOUS
 10
10.3260
 20
-0.2995
  0
VERTEX
  8
LAYER1
 62
     7
  6
CONTINUOUS
 10
10.3258
 20
-0.2974
  0
VERTEX
  8
LAYER1
 62
     7
  6
CONTINUOUS
 10
10.3258
 20
-0.2954
  0
VERTEX
  8
LAYER1
 62
     7
  6
CONTINUOUS
 10
10.3261
 20
-0.2930
  0
VERTEX
  8
LAYER1
 62
     7
  6
CONTINUOUS
 10
10.3269
 20
-0.2906
  0
VERTEX
  8
LAYER1
 62
     7
  6
CONTINUOUS
 10
10.3279
 20
-0.2883
  0
VERTEX
  8
LAYER1
 62
     7
  6
CONTINUOUS
 10
10.3292
 20
-0.2860
  0
VERTEX
  8
LAYER1
 62
     7
  6
CONTINUOUS
 10
10.3308
 20
-0.2838
  0
VERTEX
  8
LAYER1
 62
     7
  6
CONTINUOUS
 10
10.3326
 20
-0.2817
  0
VERTEX
  8
LAYER1
 62
     7
  6
CONTINUOUS
 10
10.3346
 20
-0.2795
  0
VERTEX
  8
LAYER1
 62
     7
  6
CONTINUOUS
 10
10.3368
 20
-0.2775
  0
VERTEX
  8
LAYER1
 62
     7
  6
CONTINUOUS
 10
10.3390
 20
-0.2755
  0
VERTEX
  8
LAYER1
 62
     7
  6
CONTINUOUS
 10
10.3414
 20
-0.2735
  0
VERTEX
  8
LAYER1
 62
     7
  6
CONTINUOUS
 10
10.3438
 20
-0.2716
  0
VERTEX
  8
LAYER1
 62
     7
  6
CONTINUOUS
 10
10.3462
 20
-0.2698
  0
VERTEX
  8
LAYER1
 62
     7
  6
CONTINUOUS
 10
10.3487
 20
-0.2679
  0
VERTEX
  8
LAYER1
 62
     7
  6
CONTINUOUS
 10
10.3512
 20
-0.2661
  0
VERTEX
  8
LAYER1
 62
     7
  6
CONTINUOUS
 10
10.3537
 20
-0.2644
  0
VERTEX
  8
LAYER1
 62
     7
  6
CONTINUOUS
 10
10.3563
 20
-0.2628
  0
VERTEX
  8
LAYER1
 62
     7
  6
CONTINUOUS
 10
10.3588
 20
-0.2613
  0
VERTEX
  8
LAYER1
 62
     7
  6
CONTINUOUS
 10
10.3613
 20
-0.2599
  0
VERTEX
  8
LAYER1
 62
     7
  6
CONTINUOUS
 10
10.3638
 20
-0.2586
  0
VERTEX
  8
LAYER1
 62
     7
  6
CONTINUOUS
 10
10.3664
 20
-0.2575
  0
VERTEX
  8
LAYER1
 62
     7
  6
CONTINUOUS
 10
10.3689
 20
-0.2565
  0
VERTEX
  8
LAYER1
 62
     7
  6
CONTINUOUS
 10
10.3715
 20
-0.2556
  0
VERTEX
  8
LAYER1
 62
     7
  6
CONTINUOUS
 10
10.3742
 20
-0.2549
  0
VERTEX
  8
LAYER1
 62
     7
  6
CONTINUOUS
 10
10.3769
 20
-0.2544
  0
VERTEX
  8
LAYER1
 62
     7
  6
CONTINUOUS
 10
10.3797
 20
-0.2541
  0
VERTEX
  8
LAYER1
 62
     7
  6
CONTINUOUS
 10
10.3827
 20
-0.2539
  0
VERTEX
  8
LAYER1
 62
     7
  6
CONTINUOUS
 10
10.3856
 20
-0.2539
  0
VERTEX
  8
LAYER1
 62
     7
  6
CONTINUOUS
 10
10.3886
 20
-0.2541
  0
VERTEX
  8
LAYER1
 62
     7
  6
CONTINUOUS
 10
10.3916
 20
-0.2545
  0
VERTEX
  8
LAYER1
 62
     7
  6
CONTINUOUS
 10
10.3947
 20
-0.2549
  0
VERTEX
  8
LAYER1
 62
     7
  6
CONTINUOUS
 10
10.3977
 20
-0.2555
  0
VERTEX
  8
LAYER1
 62
     7
  6
CONTINUOUS
 10
10.4007
 20
-0.2561
  0
VERTEX
  8
LAYER1
 62
     7
  6
CONTINUOUS
 10
10.4037
 20
-0.2569
  0
VERTEX
  8
LAYER1
 62
     7
  6
CONTINUOUS
 10
10.4067
 20
-0.2577
  0
VERTEX
  8
LAYER1
 62
     7
  6
CONTINUOUS
 10
10.4097
 20
-0.2586
  0
VERTEX
  8
LAYER1
 62
     7
  6
CONTINUOUS
 10
10.4127
 20
-0.2595
  0
VERTEX
  8
LAYER1
 62
     7
  6
CONTINUOUS
 10
10.4140
 20
-0.2599
  0
VERTEX
  8
LAYER1
 62
     7
  6
CONTINUOUS
 10
10.4153
 20
-0.2603
  0
VERTEX
  8
LAYER1
 62
     7
  6
CONTINUOUS
 10
10.4166
 20
-0.2607
  0
VERTEX
  8
LAYER1
 62
     7
  6
CONTINUOUS
 10
10.4178
 20
-0.2612
  0
VERTEX
  8
LAYER1
 62
     7
  6
CONTINUOUS
 10
10.4191
 20
-0.2616
  0
VERTEX
  8
LAYER1
 62
     7
  6
CONTINUOUS
 10
10.4204
 20
-0.2620
  0
VERTEX
  8
LAYER1
 62
     7
  6
CONTINUOUS
 10
10.4217
 20
-0.2625
  0
VERTEX
  8
LAYER1
 62
     7
  6
CONTINUOUS
 10
10.4229
 20
-0.2629
  0
VERTEX
  8
LAYER1
 62
     7
  6
CONTINUOUS
 10
10.4242
 20
-0.2633
  0
VERTEX
  8
LAYER1
 62
     7
  6
CONTINUOUS
 10
10.4255
 20
-0.2637
  0
VERTEX
  8
LAYER1
 62
     7
  6
CONTINUOUS
 10
10.4267
 20
-0.2642
  0
VERTEX
  8
LAYER1
 62
     7
  6
CONTINUOUS
 10
10.4280
 20
-0.2646
  0
VERTEX
  8
LAYER1
 62
     7
  6
CONTINUOUS
 10
10.4302
 20
-0.2653
  0
VERTEX
  8
LAYER1
 62
     7
  6
CONTINUOUS
 10
10.4323
 20
-0.2660
  0
VERTEX
  8
LAYER1
 62
     7
  6
CONTINUOUS
 10
10.4345
 20
-0.2667
  0
VERTEX
  8
LAYER1
 62
     7
  6
CONTINUOUS
 10
10.4366
 20
-0.2675
  0
VERTEX
  8
LAYER1
 62
     7
  6
CONTINUOUS
 10
10.4388
 20
-0.2682
  0
VERTEX
  8
LAYER1
 62
     7
  6
CONTINUOUS
 10
10.4409
 20
-0.2690
  0
VERTEX
  8
LAYER1
 62
     7
  6
CONTINUOUS
 10
10.4431
 20
-0.2698
  0
VERTEX
  8
LAYER1
 62
     7
  6
CONTINUOUS
 10
10.4452
 20
-0.2707
  0
VERTEX
  8
LAYER1
 62
     7
  6
CONTINUOUS
 10
10.4473
 20
-0.2716
  0
VERTEX
  8
LAYER1
 62
     7
  6
CONTINUOUS
 10
10.4494
 20
-0.2726
  0
VERTEX
  8
LAYER1
 62
     7
  6
CONTINUOUS
 10
10.4515
 20
-0.2737
  0
VERTEX
  8
LAYER1
 62
     7
  6
CONTINUOUS
 10
10.4536
 20
-0.2748
  0
VERTEX
  8
LAYER1
 62
     7
  6
CONTINUOUS
 10
10.4552
 20
-0.2757
  0
VERTEX
  8
LAYER1
 62
     7
  6
CONTINUOUS
 10
10.4568
 20
-0.2768
  0
VERTEX
  8
LAYER1
 62
     7
  6
CONTINUOUS
 10
10.4583
 20
-0.2778
  0
VERTEX
  8
LAYER1
 62
     7
  6
CONTINUOUS
 10
10.4598
 20
-0.2789
  0
VERTEX
  8
LAYER1
 62
     7
  6
CONTINUOUS
 10
10.4613
 20
-0.2801
  0
VERTEX
  8
LAYER1
 62
     7
  6
CONTINUOUS
 10
10.4627
 20
-0.2814
  0
VERTEX
  8
LAYER1
 62
     7
  6
CONTINUOUS
 10
10.4640
 20
-0.2827
  0
VERTEX
  8
LAYER1
 62
     7
  6
CONTINUOUS
 10
10.4652
 20
-0.2840
  0
VERTEX
  8
LAYER1
 62
     7
  6
CONTINUOUS
 10
10.4663
 20
-0.2854
  0
VERTEX
  8
LAYER1
 62
     7
  6
CONTINUOUS
 10
10.4673
 20
-0.2869
  0
VERTEX
  8
LAYER1
 62
     7
  6
CONTINUOUS
 10
10.4682
 20
-0.2885
  0
VERTEX
  8
LAYER1
 62
     7
  6
CONTINUOUS
 10
10.4689
 20
-0.2901
  0
VERTEX
  8
LAYER1
 62
     7
  6
CONTINUOUS
 10
10.4695
 20
-0.2917
  0
VERTEX
  8
LAYER1
 62
     7
  6
CONTINUOUS
 10
10.4699
 20
-0.2933
  0
VERTEX
  8
LAYER1
 62
     7
  6
CONTINUOUS
 10
10.4703
 20
-0.2950
  0
VERTEX
  8
LAYER1
 62
     7
  6
CONTINUOUS
 10
10.4705
 20
-0.2967
  0
VERTEX
  8
LAYER1
 62
     7
  6
CONTINUOUS
 10
10.4706
 20
-0.2985
  0
VERTEX
  8
LAYER1
 62
     7
  6
CONTINUOUS
 10
10.4706
 20
-0.3002
  0
VERTEX
  8
LAYER1
 62
     7
  6
CONTINUOUS
 10
10.4705
 20
-0.3020
  0
VERTEX
  8
LAYER1
 62
     7
  6
CONTINUOUS
 10
10.4704
 20
-0.3037
  0
VERTEX
  8
LAYER1
 62
     7
  6
CONTINUOUS
 10
10.4701
 20
-0.3055
  0
VERTEX
  8
LAYER1
 62
     7
  6
CONTINUOUS
 10
10.4698
 20
-0.3072
  0
VERTEX
  8
LAYER1
 62
     7
  6
CONTINUOUS
 10
10.4694
 20
-0.3089
  0
VERTEX
  8
LAYER1
 62
     7
  6
CONTINUOUS
 10
10.4689
 20
-0.3106
  0
VERTEX
  8
LAYER1
 62
     7
  6
CONTINUOUS
 10
10.4685
 20
-0.3118
  0
VERTEX
  8
LAYER1
 62
     7
  6
CONTINUOUS
 10
10.4681
 20
-0.3131
  0
VERTEX
  8
LAYER1
 62
     7
  6
CONTINUOUS
 10
10.4677
 20
-0.3143
  0
VERTEX
  8
LAYER1
 62
     7
  6
CONTINUOUS
 10
10.4672
 20
-0.3156
  0
VERTEX
  8
LAYER1
 62
     7
  6
CONTINUOUS
 10
10.4667
 20
-0.3168
  0
VERTEX
  8
LAYER1
 62
     7
  6
CONTINUOUS
 10
10.4662
 20
-0.3180
  0
VERTEX
  8
LAYER1
 62
     7
  6
CONTINUOUS
 10
10.4658
 20
-0.3193
  0
VERTEX
  8
LAYER1
 62
     7
  6
CONTINUOUS
 10
10.4653
 20
-0.3206
  0
VERTEX
  8
LAYER1
 62
     7
  6
CONTINUOUS
 10
10.4649
 20
-0.3218
  0
VERTEX
  8
LAYER1
 62
     7
  6
CONTINUOUS
 10
10.4645
 20
-0.3232
  0
VERTEX
  8
LAYER1
 62
     7
  6
CONTINUOUS
 10
10.4642
 20
-0.3245
  0
VERTEX
  8
LAYER1
 62
     7
  6
CONTINUOUS
 10
10.4638
 20
-0.3259
  0
VERTEX
  8
LAYER1
 62
     7
  6
CONTINUOUS
 10
10.4635
 20
-0.3278
  0
VERTEX
  8
LAYER1
 62
     7
  6
CONTINUOUS
 10
10.4632
 20
-0.3297
  0
VERTEX
  8
LAYER1
 62
     7
  6
CONTINUOUS
 10
10.4630
 20
-0.3317
  0
VERTEX
  8
LAYER1
 62
     7
  6
CONTINUOUS
 10
10.4628
 20
-0.3337
  0
VERTEX
  8
LAYER1
 62
     7
  6
CONTINUOUS
 10
10.4626
 20
-0.3356
  0
VERTEX
  8
LAYER1
 62
     7
  6
CONTINUOUS
 10
10.4623
 20
-0.3375
  0
VERTEX
  8
LAYER1
 62
     7
  6
CONTINUOUS
 10
10.4620
 20
-0.3393
  0
VERTEX
  8
LAYER1
 62
     7
  6
CONTINUOUS
 10
10.4616
 20
-0.3411
  0
VERTEX
  8
LAYER1
 62
     7
  6
CONTINUOUS
 10
10.4611
 20
-0.3427
  0
VERTEX
  8
LAYER1
 62
     7
  6
CONTINUOUS
 10
10.4605
 20
-0.3441
  0
VERTEX
  8
LAYER1
 62
     7
  6
CONTINUOUS
 10
10.4597
 20
-0.3453
  0
VERTEX
  8
LAYER1
 62
     7
  6
CONTINUOUS
 10
10.4588
 20
-0.3464
  0
VERTEX
  8
LAYER1
 62
     7
  6
CONTINUOUS
 10
10.4576
 20
-0.3471
  0
VERTEX
  8
LAYER1
 62
     7
  6
CONTINUOUS
 10
10.4563
 20
-0.3477
  0
VERTEX
  8
LAYER1
 62
     7
  6
CONTINUOUS
 10
10.4549
 20
-0.3481
  0
VERTEX
  8
LAYER1
 62
     7
  6
CONTINUOUS
 10
10.4533
 20
-0.3483
  0
VERTEX
  8
LAYER1
 62
     7
  6
CONTINUOUS
 10
10.4516
 20
-0.3484
  0
VERTEX
  8
LAYER1
 62
     7
  6
CONTINUOUS
 10
10.4498
 20
-0.3483
  0
VERTEX
  8
LAYER1
 62
     7
  6
CONTINUOUS
 10
10.4480
 20
-0.3482
  0
VERTEX
  8
LAYER1
 62
     7
  6
CONTINUOUS
 10
10.4461
 20
-0.3479
  0
VERTEX
  8
LAYER1
 62
     7
  6
CONTINUOUS
 10
10.4441
 20
-0.3476
  0
VERTEX
  8
LAYER1
 62
     7
  6
CONTINUOUS
 10
10.4422
 20
-0.3472
  0
VERTEX
  8
LAYER1
 62
     7
  6
CONTINUOUS
 10
10.4402
 20
-0.3468
  0
VERTEX
  8
LAYER1
 62
     7
  6
CONTINUOUS
 10
10.4383
 20
-0.3464
  0
VERTEX
  8
LAYER1
 62
     7
  6
CONTINUOUS
 10
10.4359
 20
-0.3458
  0
VERTEX
  8
LAYER1
 62
     7
  6
CONTINUOUS
 10
10.4336
 20
-0.3453
  0
VERTEX
  8
LAYER1
 62
     7
  6
CONTINUOUS
 10
10.4314
 20
-0.3448
  0
VERTEX
  8
LAYER1
 62
     7
  6
CONTINUOUS
 10
10.4292
 20
-0.3444
  0
VERTEX
  8
LAYER1
 62
     7
  6
CONTINUOUS
 10
10.4270
 20
-0.3439
  0
VERTEX
  8
LAYER1
 62
     7
  6
CONTINUOUS
 10
10.4249
 20
-0.3434
  0
VERTEX
  8
LAYER1
 62
     7
  6
CONTINUOUS
 10
10.4229
 20
-0.3430
  0
VERTEX
  8
LAYER1
 62
     7
  6
CONTINUOUS
 10
10.4208
 20
-0.3426
  0
VERTEX
  8
LAYER1
 62
     7
  6
CONTINUOUS
 10
10.4188
 20
-0.3423
  0
VERTEX
  8
LAYER1
 62
     7
  6
CONTINUOUS
 10
10.4168
 20
-0.3419
  0
VERTEX
  8
LAYER1
 62
     7
  6
CONTINUOUS
 10
10.4148
 20
-0.3416
  0
VERTEX
  8
LAYER1
 62
     7
  6
CONTINUOUS
 10
10.4127
 20
-0.3413
  0
VERTEX
  8
LAYER1
 62
     7
  6
CONTINUOUS
 10
10.4103
 20
-0.3410
  0
VERTEX
  8
LAYER1
 62
     7
  6
CONTINUOUS
 10
10.4079
 20
-0.3407
  0
VERTEX
  8
LAYER1
 62
     7
  6
CONTINUOUS
 10
10.4055
 20
-0.3405
  0
VERTEX
  8
LAYER1
 62
     7
  6
CONTINUOUS
 10
10.4030
 20
-0.3403
  0
VERTEX
  8
LAYER1
 62
     7
  6
CONTINUOUS
 10
10.4005
 20
-0.3402
  0
VERTEX
  8
LAYER1
 62
     7
  6
CONTINUOUS
 10
10.3980
 20
-0.3402
  0
VERTEX
  8
LAYER1
 62
     7
  6
CONTINUOUS
 10
10.3955
 20
-0.3402
  0
VERTEX
  8
LAYER1
 62
     7
  6
CONTINUOUS
 10
10.3929
 20
-0.3403
  0
VERTEX
  8
LAYER1
 62
     7
  6
CONTINUOUS
 10
10.3902
 20
-0.3404
  0
VERTEX
  8
LAYER1
 62
     7
  6
CONTINUOUS
 10
10.3876
 20
-0.3407
  0
VERTEX
  8
LAYER1
 62
     7
  6
CONTINUOUS
 10
10.3848
 20
-0.3409
  0
VERTEX
  8
LAYER1
 62
     7
  6
CONTINUOUS
 10
10.3821
 20
-0.3413
  0
VERTEX
  8
LAYER1
 62
     7
  6
CONTINUOUS
 10
10.3788
 20
-0.3418
  0
VERTEX
  8
LAYER1
 62
     7
  6
CONTINUOUS
 10
10.3754
 20
-0.3424
  0
VERTEX
  8
LAYER1
 62
     7
  6
CONTINUOUS
 10
10.3721
 20
-0.3430
  0
VERTEX
  8
LAYER1
 62
     7
  6
CONTINUOUS
 10
10.3688
 20
-0.3436
  0
VERTEX
  8
LAYER1
 62
     7
  6
CONTINUOUS
 10
10.3655
 20
-0.3441
  0
VERTEX
  8
LAYER1
 62
     7
  6
CONTINUOUS
 10
10.3623
 20
-0.3445
  0
VERTEX
  8
LAYER1
 62
     7
  6
CONTINUOUS
 10
10.3592
 20
-0.3447
  0
VERTEX
  8
LAYER1
 62
     7
  6
CONTINUOUS
 10
10.3562
 20
-0.3446
  0
VERTEX
  8
LAYER1
 62
     7
  6
CONTINUOUS
 10
10.3534
 20
-0.3443
  0
VERTEX
  8
LAYER1
 62
     7
  6
CONTINUOUS
 10
10.3508
 20
-0.3437
  0
VERTEX
  8
LAYER1
 62
     7
  6
CONTINUOUS
 10
10.3484
 20
-0.3427
  0
VERTEX
  8
LAYER1
 62
     7
  6
CONTINUOUS
 10
10.3463
 20
-0.3414
  0
VERTEX
  8
LAYER1
 62
     7
  6
CONTINUOUS
 10
10.3450
 20
-0.3402
  0
VERTEX
  8
LAYER1
 62
     7
  6
CONTINUOUS
 10
10.3439
 20
-0.3390
  0
VERTEX
  8
LAYER1
 62
     7
  6
CONTINUOUS
 10
10.3429
 20
-0.3375
  0
VERTEX
  8
LAYER1
 62
     7
  6
CONTINUOUS
 10
10.3419
 20
-0.3360
  0
VERTEX
  8
LAYER1
 62
     7
  6
CONTINUOUS
 10
10.3410
 20
-0.3343
  0
VERTEX
  8
LAYER1
 62
     7
  6
CONTINUOUS
 10
10.3402
 20
-0.3325
  0
VERTEX
  8
LAYER1
 62
     7
  6
CONTINUOUS
 10
10.3395
 20
-0.3307
  0
VERTEX
  8
LAYER1
 62
     7
  6
CONTINUOUS
 10
10.3387
 20
-0.3287
  0
VERTEX
  8
LAYER1
 62
     7
  6
CONTINUOUS
 10
10.3380
 20
-0.3268
  0
VERTEX
  8
LAYER1
 62
     7
  6
CONTINUOUS
 10
10.3374
 20
-0.3248
  0
VERTEX
  8
LAYER1
 62
     7
  6
CONTINUOUS
 10
10.3367
 20
-0.3229
  0
VERTEX
  8
LAYER1
 62
     7
  6
CONTINUOUS
 10
10.3360
 20
-0.3209
  0
SEQEND
  8
LAYER1
  0
CIRCLE
  8
LAYER1
 62
     7
  6
CONTINUOUS
 10
10.9384
 20
0.5130
 40
0.0217
  0
CIRCLE
  8
LAYER1
 62
     7
  6
CONTINUOUS
 10
10.8622
 20
0.0912
 40
0.0164
  0
CIRCLE
  8
LAYER1
 62
     7
  6
CONTINUOUS
 10
10.8443
 20
0.0707
 40
0.0253
  0
ARC
  8
LAYER1
 62
     7
  6
CONTINUOUS
 10
10.6603
 20
0.0190
 40
0.0191
 50
-113.7420
 51
-113.7420
  0
CIRCLE
  8
LAYER1
 62
     7
  6
CONTINUOUS
 10
10.6219
 20
0.0960
 40
0.0105
  0
CIRCLE
  8
LAYER1
 62
     7
  6
CONTINUOUS
 10
10.5887
 20
0.0934
 40
0.0164
  0
CIRCLE
  8
LAYER1
 62
     7
  6
CONTINUOUS
 10
10.4890
 20
0.0908
 40
0.0171
  0
CIRCLE
  8
LAYER1
 62
     7
  6
CONTINUOUS
 10
10.2283
 20
0.0726
 40
0.0211
  0
CIRCLE
  8
LAYER1
 62
     7
  6
CONTINUOUS
 10
10.1311
 20
0.0981
 40
0.0102
  0
CIRCLE
  8
LAYER1
 62
     7
  6
CONTINUOUS
 10
10.0927
 20
0.1338
 40
0.0257
  0
CIRCLE
  8
LAYER1
 62
     7
  6
CONTINUOUS
 10
10.0797
 20
0.3587
 40
0.0102
  0
CIRCLE
  8
LAYER1
 62
     7
  6
CONTINUOUS
 10
10.0746
 20
0.3868
 40
0.0186
  0
CIRCLE
  8
LAYER1
 62
     7
  6
CONTINUOUS
 10
10.3454
 20
0.5124
 40
0.0205
  0
CIRCLE
  8
LAYER1
 62
     7
  6
CONTINUOUS
 10
10.3097
 20
0.4459
 40
0.0184
  0
CIRCLE
  8
LAYER1
 62
     7
  6
CONTINUOUS
 10
10.4172
 20
0.3003
 40
0.0164
  0
CIRCLE
  8
LAYER1
 62
     7
  6
CONTINUOUS
 10
10.5271
 20
0.3106
 40
0.0130
  0
CIRCLE
  8
LAYER1
 62
     7
  6
CONTINUOUS
 10
10.6701
 20
0.4667
 40
0.0171
  0
POLYLINE
  8
LAYER1
 62
     7
 66
     1
  6
CONTINUOUS
  0
VERTEX
  8
LAYER1
 62
     7
  6
CONTINUOUS
 10
10.0428
 20
0.3165
  0
VERTEX
  8
LAYER1
 62
     7
  6
CONTINUOUS
 10
10.0429
 20
0.3166
  0
VERTEX
  8
LAYER1
 62
     7
  6
CONTINUOUS
 10
10.0430
 20
0.3167
  0
VERTEX
  8
LAYER1
 62
     7
  6
CONTINUOUS
 10
10.0431
 20
0.3169
  0
VERTEX
  8
LAYER1
 62
     7
  6
CONTINUOUS
 10
10.0432
 20
0.3170
  0
VERTEX
  8
LAYER1
 62
     7
  6
CONTINUOUS
 10
10.0433
 20
0.3171
  0
VERTEX
  8
LAYER1
 62
     7
  6
CONTINUOUS
 10
10.0434
 20
0.3172
  0
VERTEX
  8
LAYER1
 62
     7
  6
CONTINUOUS
 10
10.0435
 20
0.3173
  0
VERTEX
  8
LAYER1
 62
     7
  6
CONTINUOUS
 10
10.0436
 20
0.3174
  0
VERTEX
  8
LAYER1
 62
     7
  6
CONTINUOUS
 10
10.0437
 20
0.3175
  0
VERTEX
  8
LAYER1
 62
     7
  6
CONTINUOUS
 10
10.0438
 20
0.3176
  0
VERTEX
  8
LAYER1
 62
     7
  6
CONTINUOUS
 10
10.0439
 20
0.3177
  0
VERTEX
  8
LAYER1
 62
     7
  6
CONTINUOUS
 10
10.0440
 20
0.3178
  0
VERTEX
  8
LAYER1
 62
     7
  6
CONTINUOUS
 10
10.0469
 20
0.3206
  0
VERTEX
  8
LAYER1
 62
     7
  6
CONTINUOUS
 10
10.0498
 20
0.3232
  0
VERTEX
  8
LAYER1
 62
     7
  6
CONTINUOUS
 10
10.0529
 20
0.3257
  0
VERTEX
  8
LAYER1
 62
     7
  6
CONTINUOUS
 10
10.0561
 20
0.3280
  0
VERTEX
  8
LAYER1
 62
     7
  6
CONTINUOUS
 10
10.0594
 20
0.3302
  0
VERTEX
  8
LAYER1
 62
     7
  6
CONTINUOUS
 10
10.0628
 20
0.3323
  0
VERTEX
  8
LAYER1
 62
     7
  6
CONTINUOUS
 10
10.0663
 20
0.3344
  0
VERTEX
  8
LAYER1
 62
     7
  6
CONTINUOUS
 10
10.0699
 20
0.3363
  0
VERTEX
  8
LAYER1
 62
     7
  6
CONTINUOUS
 10
10.0735
 20
0.3381
  0
VERTEX
  8
LAYER1
 62
     7
  6
CONTINUOUS
 10
10.0772
 20
0.3399
  0
VERTEX
  8
LAYER1
 62
     7
  6
CONTINUOUS
 10
10.0810
 20
0.3417
  0
VERTEX
  8
LAYER1
 62
     7
  6
CONTINUOUS
 10
10.0849
 20
0.3434
  0
VERTEX
  8
LAYER1
 62
     7
  6
CONTINUOUS
 10
10.0905
 20
0.3458
  0
VERTEX
  8
LAYER1
 62
     7
  6
CONTINUOUS
 10
10.0961
 20
0.3483
  0
VERTEX
  8
LAYER1
 62
     7
  6
CONTINUOUS
 10
10.1018
 20
0.3508
  0
VERTEX
  8
LAYER1
 62
     7
  6
CONTINUOUS
 10
10.1073
 20
0.3534
  0
VERTEX
  8
LAYER1
 62
     7
  6
CONTINUOUS
 10
10.1128
 20
0.3562
  0
VERTEX
  8
LAYER1
 62
     7
  6
CONTINUOUS
 10
10.1180
 20
0.3591
  0
VERTEX
  8
LAYER1
 62
     7
  6
CONTINUOUS
 10
10.1229
 20
0.3624
  0
VERTEX
  8
LAYER1
 62
     7
  6
CONTINUOUS
 10
10.1275
 20
0.3659
  0
VERTEX
  8
LAYER1
 62
     7
  6
CONTINUOUS
 10
10.1316
 20
0.3699
  0
VERTEX
  8
LAYER1
 62
     7
  6
CONTINUOUS
 10
10.1353
 20
0.3742
  0
VERTEX
  8
LAYER1
 62
     7
  6
CONTINUOUS
 10
10.1385
 20
0.3790
  0
VERTEX
  8
LAYER1
 62
     7
  6
CONTINUOUS
 10
10.1410
 20
0.3844
  0
VERTEX
  8
LAYER1
 62
     7
  6
CONTINUOUS
 10
10.1419
 20
0.3866
  0
VERTEX
  8
LAYER1
 62
     7
  6
CONTINUOUS
 10
10.1426
 20
0.3890
  0
VERTEX
  8
LAYER1
 62
     7
  6
CONTINUOUS
 10
10.1433
 20
0.3913
  0
VERTEX
  8
LAYER1
 62
     7
  6
CONTINUOUS
 10
10.1440
 20
0.3937
  0
VERTEX
  8
LAYER1
 62
     7
  6
CONTINUOUS
 10
10.1447
 20
0.3961
  0
VERTEX
  8
LAYER1
 62
     7
  6
CONTINUOUS
 10
10.1454
 20
0.3984
  0
VERTEX
  8
LAYER1
 62
     7
  6
CONTINUOUS
 10
10.1461
 20
0.4006
  0
VERTEX
  8
LAYER1
 62
     7
  6
CONTINUOUS
 10
10.1469
 20
0.4028
  0
VERTEX
  8
LAYER1
 62
     7
  6
CONTINUOUS
 10
10.1478
 20
0.4048
  0
VERTEX
  8
LAYER1
 62
     7
  6
CONTINUOUS
 10
10.1488
 20
0.4067
  0
VERTEX
  8
LAYER1
 62
     7
  6
CONTINUOUS
 10
10.1499
 20
0.4084
  0
VERTEX
  8
LAYER1
 62
     7
  6
CONTINUOUS
 10
10.1512
 20
0.4099
  0
VERTEX
  8
LAYER1
 62
     7
  6
CONTINUOUS
 10
10.1533
 20
0.4116
  0
VERTEX
  8
LAYER1
 62
     7
  6
CONTINUOUS
 10
10.1556
 20
0.4129
  0
VERTEX
  8
LAYER1
 62
     7
  6
CONTINUOUS
 10
10.1581
 20
0.4139
  0
VERTEX
  8
LAYER1
 62
     7
  6
CONTINUOUS
 10
10.1609
 20
0.4146
  0
VERTEX
  8
LAYER1
 62
     7
  6
CONTINUOUS
 10
10.1639
 20
0.4151
  0
VERTEX
  8
LAYER1
 62
     7
  6
CONTINUOUS
 10
10.1671
 20
0.4153
  0
VERTEX
  8
LAYER1
 62
     7
  6
CONTINUOUS
 10
10.1703
 20
0.4155
  0
VERTEX
  8
LAYER1
 62
     7
  6
CONTINUOUS
 10
10.1737
 20
0.4155
  0
VERTEX
  8
LAYER1
 62
     7
  6
CONTINUOUS
 10
10.1770
 20
0.4154
  0
VERTEX
  8
LAYER1
 62
     7
  6
CONTINUOUS
 10
10.1804
 20
0.4153
  0
VERTEX
  8
LAYER1
 62
     7
  6
CONTINUOUS
 10
10.1837
 20
0.4152
  0
VERTEX
  8
LAYER1
 62
     7
  6
CONTINUOUS
 10
10.1870
 20
0.4151
  0
VERTEX
  8
LAYER1
 62
     7
  6
CONTINUOUS
 10
10.1893
 20
0.4151
  0
VERTEX
  8
LAYER1
 62
     7
  6
CONTINUOUS
 10
10.1916
 20
0.4151
  0
VERTEX
  8
LAYER1
 62
     7
  6
CONTINUOUS
 10
10.1938
 20
0.4152
  0
VERTEX
  8
LAYER1
 62
     7
  6
CONTINUOUS
 10
10.1960
 20
0.4154
  0
VERTEX
  8
LAYER1
 62
     7
  6
CONTINUOUS
 10
10.1981
 20
0.4156
  0
VERTEX
  8
LAYER1
 62
     7
  6
CONTINUOUS
 10
10.2002
 20
0.4159
  0
VERTEX
  8
LAYER1
 62
     7
  6
CONTINUOUS
 10
10.2023
 20
0.4164
  0
VERTEX
  8
LAYER1
 62
     7
  6
CONTINUOUS
 10
10.2044
 20
0.4169
  0
VERTEX
  8
LAYER1
 62
     7
  6
CONTINUOUS
 10
10.2064
 20
0.4175
  0
VERTEX
  8
LAYER1
 62
     7
  6
CONTINUOUS
 10
10.2085
 20
0.4183
  0
VERTEX
  8
LAYER1
 62
     7
  6
CONTINUOUS
 10
10.2105
 20
0.4192
  0
VERTEX
  8
LAYER1
 62
     7
  6
CONTINUOUS
 10
10.2126
 20
0.4202
  0
VERTEX
  8
LAYER1
 62
     7
  6
CONTINUOUS
 10
10.2147
 20
0.4215
  0
VERTEX
  8
LAYER1
 62
     7
  6
CONTINUOUS
 10
10.2169
 20
0.4228
  0
VERTEX
  8
LAYER1
 62
     7
  6
CONTINUOUS
 10
10.2191
 20
0.4242
  0
VERTEX
  8
LAYER1
 62
     7
  6
CONTINUOUS
 10
10.2213
 20
0.4256
  0
VERTEX
  8
LAYER1
 62
     7
  6
CONTINUOUS
 10
10.2234
 20
0.4270
  0
VERTEX
  8
LAYER1
 62
     7
  6
CONTINUOUS
 10
10.2256
 20
0.4283
  0
VERTEX
  8
LAYER1
 62
     7
  6
CONTINUOUS
 10
10.2277
 20
0.4293
  0
VERTEX
  8
LAYER1
 62
     7
  6
CONTINUOUS
 10
10.2298
 20
0.4302
  0
VERTEX
  8
LAYER1
 62
     7
  6
CONTINUOUS
 10
10.2320
 20
0.4308
  0
VERTEX
  8
LAYER1
 62
     7
  6
CONTINUOUS
 10
10.2340
 20
0.4311
  0
VERTEX
  8
LAYER1
 62
     7
  6
CONTINUOUS
 10
10.2361
 20
0.4310
  0
VERTEX
  8
LAYER1
 62
     7
  6
CONTINUOUS
 10
10.2381
 20
0.4305
  0
VERTEX
  8
LAYER1
 62
     7
  6
CONTINUOUS
 10
10.2395
 20
0.4298
  0
VERTEX
  8
LAYER1
 62
     7
  6
CONTINUOUS
 10
10.2408
 20
0.4290
  0
VERTEX
  8
LAYER1
 62
     7
  6
CONTINUOUS
 10
10.2420
 20
0.4280
  0
VERTEX
  8
LAYER1
 62
     7
  6
CONTINUOUS
 10
10.2432
 20
0.4269
  0
VERTEX
  8
LAYER1
 62
     7
  6
CONTINUOUS
 10
10.2443
 20
0.4256
  0
VERTEX
  8
LAYER1
 62
     7
  6
CONTINUOUS
 10
10.2453
 20
0.4243
  0
VERTEX
  8
LAYER1
 62
     7
  6
CONTINUOUS
 10
10.2462
 20
0.4228
  0
VERTEX
  8
LAYER1
 62
     7
  6
CONTINUOUS
 10
10.2470
 20
0.4213
  0
VERTEX
  8
LAYER1
 62
     7
  6
CONTINUOUS
 10
10.2476
 20
0.4198
  0
VERTEX
  8
LAYER1
 62
     7
  6
CONTINUOUS
 10
10.2481
 20
0.4182
  0
VERTEX
  8
LAYER1
 62
     7
  6
CONTINUOUS
 10
10.2483
 20
0.4167
  0
VERTEX
  8
LAYER1
 62
     7
  6
CONTINUOUS
 10
10.2484
 20
0.4151
  0
VERTEX
  8
LAYER1
 62
     7
  6
CONTINUOUS
 10
10.2482
 20
0.4134
  0
VERTEX
  8
LAYER1
 62
     7
  6
CONTINUOUS
 10
10.2477
 20
0.4118
  0
VERTEX
  8
LAYER1
 62
     7
  6
CONTINUOUS
 10
10.2470
 20
0.4103
  0
VERTEX
  8
LAYER1
 62
     7
  6
CONTINUOUS
 10
10.2460
 20
0.4088
  0
VERTEX
  8
LAYER1
 62
     7
  6
CONTINUOUS
 10
10.2448
 20
0.4074
  0
VERTEX
  8
LAYER1
 62
     7
  6
CONTINUOUS
 10
10.2435
 20
0.4061
  0
VERTEX
  8
LAYER1
 62
     7
  6
CONTINUOUS
 10
10.2420
 20
0.4049
  0
VERTEX
  8
LAYER1
 62
     7
  6
CONTINUOUS
 10
10.2404
 20
0.4037
  0
VERTEX
  8
LAYER1
 62
     7
  6
CONTINUOUS
 10
10.2386
 20
0.4026
  0
VERTEX
  8
LAYER1
 62
     7
  6
CONTINUOUS
 10
10.2368
 20
0.4016
  0
VERTEX
  8
LAYER1
 62
     7
  6
CONTINUOUS
 10
10.2349
 20
0.4007
  0
VERTEX
  8
LAYER1
 62
     7
  6
CONTINUOUS
 10
10.2331
 20
0.3998
  0
VERTEX
  8
LAYER1
 62
     7
  6
CONTINUOUS
 10
10.2300
 20
0.3986
  0
VERTEX
  8
LAYER1
 62
     7
  6
CONTINUOUS
 10
10.2270
 20
0.3975
  0
VERTEX
  8
LAYER1
 62
     7
  6
CONTINUOUS
 10
10.2240
 20
0.3965
  0
VERTEX
  8
LAYER1
 62
     7
  6
CONTINUOUS
 10
10.2211
 20
0.3955
  0
VERTEX
  8
LAYER1
 62
     7
  6
CONTINUOUS
 10
10.2183
 20
0.3945
  0
VERTEX
  8
LAYER1
 62
     7
  6
CONTINUOUS
 10
10.2155
 20
0.3936
  0
VERTEX
  8
LAYER1
 62
     7
  6
CONTINUOUS
 10
10.2129
 20
0.3925
  0
VERTEX
  8
LAYER1
 62
     7
  6
CONTINUOUS
 10
10.2104
 20
0.3913
  0
VERTEX
  8
LAYER1
 62
     7
  6
CONTINUOUS
 10
10.2081
 20
0.3899
  0
VERTEX
  8
LAYER1
 62
     7
  6
CONTINUOUS
 10
10.2060
 20
0.3884
  0
VERTEX
  8
LAYER1
 62
     7
  6
CONTINUOUS
 10
10.2041
 20
0.3865
  0
VERTEX
  8
LAYER1
 62
     7
  6
CONTINUOUS
 10
10.2024
 20
0.3844
  0
VERTEX
  8
LAYER1
 62
     7
  6
CONTINUOUS
 10
10.2014
 20
0.3828
  0
VERTEX
  8
LAYER1
 62
     7
  6
CONTINUOUS
 10
10.2005
 20
0.3811
  0
VERTEX
  8
LAYER1
 62
     7
  6
CONTINUOUS
 10
10.1997
 20
0.3793
  0
VERTEX
  8
LAYER1
 62
     7
  6
CONTINUOUS
 10
10.1990
 20
0.3775
  0
VERTEX
  8
LAYER1
 62
     7
  6
CONTINUOUS
 10
10.1982
 20
0.3756
  0
VERTEX
  8
LAYER1
 62
     7
  6
CONTINUOUS
 10
10.1975
 20
0.3737
  0
VERTEX
  8
LAYER1
 62
     7
  6
CONTINUOUS
 10
10.1968
 20
0.3718
  0
VERTEX
  8
LAYER1
 62
     7
  6
CONTINUOUS
 10
10.1960
 20
0.3700
  0
VERTEX
  8
LAYER1
 62
     7
  6
CONTINUOUS
 10
10.1952
 20
0.3683
  0
VERTEX
  8
LAYER1
 62
     7
  6
CONTINUOUS
 10
10.1943
 20
0.3667
  0
VERTEX
  8
LAYER1
 62
     7
  6
CONTINUOUS
 10
10.1933
 20
0.3652
  0
VERTEX
  8
LAYER1
 62
     7
  6
CONTINUOUS
 10
10.1922
 20
0.3640
  0
VERTEX
  8
LAYER1
 62
     7
  6
CONTINUOUS
 10
10.1902
 20
0.3624
  0
VERTEX
  8
LAYER1
 62
     7
  6
CONTINUOUS
 10
10.1878
 20
0.3612
  0
VERTEX
  8
LAYER1
 62
     7
  6
CONTINUOUS
 10
10.1852
 20
0.3605
  0
VERTEX
  8
LAYER1
 62
     7
  6
CONTINUOUS
 10
10.1823
 20
0.3600
  0
VERTEX
  8
LAYER1
 62
     7
  6
CONTINUOUS
 10
10.1793
 20
0.3598
  0
VERTEX
  8
LAYER1
 62
     7
  6
CONTINUOUS
 10
10.1761
 20
0.3597
  0
VERTEX
  8
LAYER1
 62
     7
  6
CONTINUOUS
 10
10.1729
 20
0.3598
  0
VERTEX
  8
LAYER1
 62
     7
  6
CONTINUOUS
 10
10.1695
 20
0.3598
  0
VERTEX
  8
LAYER1
 62
     7
  6
CONTINUOUS
 10
10.1662
 20
0.3598
  0
VERTEX
  8
LAYER1
 62
     7
  6
CONTINUOUS
 10
10.1628
 20
0.3597
  0
VERTEX
  8
LAYER1
 62
     7
  6
CONTINUOUS
 10
10.1596
 20
0.3594
  0
VERTEX
  8
LAYER1
 62
     7
  6
CONTINUOUS
 10
10.1564
 20
0.3588
  0
VERTEX
  8
LAYER1
 62
     7
  6
CONTINUOUS
 10
10.1554
 20
0.3586
  0
VERTEX
  8
LAYER1
 62
     7
  6
CONTINUOUS
 10
10.1545
 20
0.3583
  0
VERTEX
  8
LAYER1
 62
     7
  6
CONTINUOUS
 10
10.1536
 20
0.3580
  0
VERTEX
  8
LAYER1
 62
     7
  6
CONTINUOUS
 10
10.1526
 20
0.3576
  0
VERTEX
  8
LAYER1
 62
     7
  6
CONTINUOUS
 10
10.1517
 20
0.3572
  0
VERTEX
  8
LAYER1
 62
     7
  6
CONTINUOUS
 10
10.1509
 20
0.3568
  0
VERTEX
  8
LAYER1
 62
     7
  6
CONTINUOUS
 10
10.1500
 20
0.3564
  0
VERTEX
  8
LAYER1
 62
     7
  6
CONTINUOUS
 10
10.1492
 20
0.3559
  0
VERTEX
  8
LAYER1
 62
     7
  6
CONTINUOUS
 10
10.1484
 20
0.3554
  0
VERTEX
  8
LAYER1
 62
     7
  6
CONTINUOUS
 10
10.1476
 20
0.3549
  0
VERTEX
  8
LAYER1
 62
     7
  6
CONTINUOUS
 10
10.1469
 20
0.3543
  0
VERTEX
  8
LAYER1
 62
     7
  6
CONTINUOUS
 10
10.1462
 20
0.3537
  0
VERTEX
  8
LAYER1
 62
     7
  6
CONTINUOUS
 10
10.1443
 20
0.3517
  0
VERTEX
  8
LAYER1
 62
     7
  6
CONTINUOUS
 10
10.1426
 20
0.3495
  0
VERTEX
  8
LAYER1
 62
     7
  6
CONTINUOUS
 10
10.1412
 20
0.3471
  0
VERTEX
  8
LAYER1
 62
     7
  6
CONTINUOUS
 10
10.1399
 20
0.3446
  0
VERTEX
  8
LAYER1
 62
     7
  6
CONTINUOUS
 10
10.1387
 20
0.3419
  0
VERTEX
  8
LAYER1
 62
     7
  6
CONTINUOUS
 10
10.1377
 20
0.3392
  0
VERTEX
  8
LAYER1
 62
     7
  6
CONTINUOUS
 10
10.1367
 20
0.3364
  0
VERTEX
  8
LAYER1
 62
     7
  6
CONTINUOUS
 10
10.1357
 20
0.3336
  0
VERTEX
  8
LAYER1
 62
     7
  6
CONTINUOUS
 10
10.1347
 20
0.3308
  0
VERTEX
  8
LAYER1
 62
     7
  6
CONTINUOUS
 10
10.1335
 20
0.3281
  0
VERTEX
  8
LAYER1
 62
     7
  6
CONTINUOUS
 10
10.1323
 20
0.3255
  0
VERTEX
  8
LAYER1
 62
     7
  6
CONTINUOUS
 10
10.1309
 20
0.3230
  0
VERTEX
  8
LAYER1
 62
     7
  6
CONTINUOUS
 10
10.1290
 20
0.3203
  0
VERTEX
  8
LAYER1
 62
     7
  6
CONTINUOUS
 10
10.1269
 20
0.3178
  0
VERTEX
  8
LAYER1
 62
     7
  6
CONTINUOUS
 10
10.1245
 20
0.3155
  0
VERTEX
  8
LAYER1
 62
     7
  6
CONTINUOUS
 10
10.1220
 20
0.3134
  0
VERTEX
  8
LAYER1
 62
     7
  6
CONTINUOUS
 10
10.1194
 20
0.3113
  0
VERTEX
  8
LAYER1
 62
     7
  6
CONTINUOUS
 10
10.1166
 20
0.3094
  0
VERTEX
  8
LAYER1
 62
     7
  6
CONTINUOUS
 10
10.1139
 20
0.3074
  0
VERTEX
  8
LAYER1
 62
     7
  6
CONTINUOUS
 10
10.1110
 20
0.3055
  0
VERTEX
  8
LAYER1
 62
     7
  6
CONTINUOUS
 10
10.1082
 20
0.3036
  0
VERTEX
  8
LAYER1
 62
     7
  6
CONTINUOUS
 10
10.1055
 20
0.3016
  0
VERTEX
  8
LAYER1
 62
     7
  6
CONTINUOUS
 10
10.1028
 20
0.2996
  0
VERTEX
  8
LAYER1
 62
     7
  6
CONTINUOUS
 10
10.1002
 20
0.2974
  0
VERTEX
  8
LAYER1
 62
     7
  6
CONTINUOUS
 10
10.0978
 20
0.2951
  0
VERTEX
  8
LAYER1
 62
     7
  6
CONTINUOUS
 10
10.0956
 20
0.2927
  0
VERTEX
  8
LAYER1
 62
     7
  6
CONTINUOUS
 10
10.0934
 20
0.2902
  0
VERTEX
  8
LAYER1
 62
     7
  6
CONTINUOUS
 10
10.0914
 20
0.2876
  0
VERTEX
  8
LAYER1
 62
     7
  6
CONTINUOUS
 10
10.0893
 20
0.2850
  0
VERTEX
  8
LAYER1
 62
     7
  6
CONTINUOUS
 10
10.0874
 20
0.2823
  0
VERTEX
  8
LAYER1
 62
     7
  6
CONTINUOUS
 10
10.0854
 20
0.2796
  0
VERTEX
  8
LAYER1
 62
     7
  6
CONTINUOUS
 10
10.0834
 20
0.2769
  0
VERTEX
  8
LAYER1
 62
     7
  6
CONTINUOUS
 10
10.0814
 20
0.2743
  0
VERTEX
  8
LAYER1
 62
     7
  6
CONTINUOUS
 10
10.0792
 20
0.2717
  0
VERTEX
  8
LAYER1
 62
     7
  6
CONTINUOUS
 10
10.0770
 20
0.2692
  0
VERTEX
  8
LAYER1
 62
     7
  6
CONTINUOUS
 10
10.0747
 20
0.2667
  0
VERTEX
  8
LAYER1
 62
     7
  6
CONTINUOUS
 10
10.0720
 20
0.2642
  0
VERTEX
  8
LAYER1
 62
     7
  6
CONTINUOUS
 10
10.0692
 20
0.2618
  0
VERTEX
  8
LAYER1
 62
     7
  6
CONTINUOUS
 10
10.0663
 20
0.2594
  0
VERTEX
  8
LAYER1
 62
     7
  6
CONTINUOUS
 10
10.0634
 20
0.2571
  0
VERTEX
  8
LAYER1
 62
     7
  6
CONTINUOUS
 10
10.0605
 20
0.2548
  0
VERTEX
  8
LAYER1
 62
     7
  6
CONTINUOUS
 10
10.0576
 20
0.2524
  0
VERTEX
  8
LAYER1
 62
     7
  6
CONTINUOUS
 10
10.0548
 20
0.2500
  0
VERTEX
  8
LAYER1
 62
     7
  6
CONTINUOUS
 10
10.0522
 20
0.2475
  0
VERTEX
  8
LAYER1
 62
     7
  6
CONTINUOUS
 10
10.0498
 20
0.2449
  0
VERTEX
  8
LAYER1
 62
     7
  6
CONTINUOUS
 10
10.0476
 20
0.2421
  0
VERTEX
  8
LAYER1
 62
     7
  6
CONTINUOUS
 10
10.0457
 20
0.2392
  0
VERTEX
  8
LAYER1
 62
     7
  6
CONTINUOUS
 10
10.0441
 20
0.2360
  0
VERTEX
  8
LAYER1
 62
     7
  6
CONTINUOUS
 10
10.0439
 20
0.2357
  0
VERTEX
  8
LAYER1
 62
     7
  6
CONTINUOUS
 10
10.0438
 20
0.2354
  0
VERTEX
  8
LAYER1
 62
     7
  6
CONTINUOUS
 10
10.0437
 20
0.2352
  0
VERTEX
  8
LAYER1
 62
     7
  6
CONTINUOUS
 10
10.0436
 20
0.2349
  0
VERTEX
  8
LAYER1
 62
     7
  6
CONTINUOUS
 10
10.0435
 20
0.2346
  0
VERTEX
  8
LAYER1
 62
     7
  6
CONTINUOUS
 10
10.0434
 20
0.2343
  0
VERTEX
  8
LAYER1
 62
     7
  6
CONTINUOUS
 10
10.0433
 20
0.2340
  0
VERTEX
  8
LAYER1
 62
     7
  6
CONTINUOUS
 10
10.0432
 20
0.2337
  0
VERTEX
  8
LAYER1
 62
     7
  6
CONTINUOUS
 10
10.0431
 20
0.2334
  0
VERTEX
  8
LAYER1
 62
     7
  6
CONTINUOUS
 10
10.0430
 20
0.2331
  0
VERTEX
  8
LAYER1
 62
     7
  6
CONTINUOUS
 10
10.0429
 20
0.2328
  0
VERTEX
  8
LAYER1
 62
     7
  6
CONTINUOUS
 10
10.0428
 20
0.2325
  0
SEQEND
  8
LAYER1
  0
ARC
  8
LAYER1
 62
     7
  6
CONTINUOUS
 10
10.0314
 20
0.1286
 40
0.0128
 50
-27.2667
 51
27.2848
  0
POLYLINE
  8
LAYER1
 62
     7
 66
     1
  6
CONTINUOUS
  0
VERTEX
  8
LAYER1
 62
     7
  6
CONTINUOUS
 10
10.4732
 20
0.4972
  0
VERTEX
  8
LAYER1
 62
     7
  6
CONTINUOUS
 10
10.4731
 20
0.5004
  0
VERTEX
  8
LAYER1
 62
     7
  6
CONTINUOUS
 10
10.4729
 20
0.5037
  0
VERTEX
  8
LAYER1
 62
     7
  6
CONTINUOUS
 10
10.4728
 20
0.5069
  0
VERTEX
  8
LAYER1
 62
     7
  6
CONTINUOUS
 10
10.4728
 20
0.5101
  0
VERTEX
  8
LAYER1
 62
     7
  6
CONTINUOUS
 10
10.4729
 20
0.5132
  0
VERTEX
  8
LAYER1
 62
     7
  6
CONTINUOUS
 10
10.4731
 20
0.5163
  0
VERTEX
  8
LAYER1
 62
     7
  6
CONTINUOUS
 10
10.4734
 20
0.5193
  0
VERTEX
  8
LAYER1
 62
     7
  6
CONTINUOUS
 10
10.4739
 20
0.5222
  0
VERTEX
  8
LAYER1
 62
     7
  6
CONTINUOUS
 10
10.4747
 20
0.5251
  0
VERTEX
  8
LAYER1
 62
     7
  6
CONTINUOUS
 10
10.4756
 20
0.5278
  0
VERTEX
  8
LAYER1
 62
     7
  6
CONTINUOUS
 10
10.4768
 20
0.5304
  0
VERTEX
  8
LAYER1
 62
     7
  6
CONTINUOUS
 10
10.4783
 20
0.5330
  0
VERTEX
  8
LAYER1
 62
     7
  6
CONTINUOUS
 10
10.4787
 20
0.5336
  0
VERTEX
  8
LAYER1
 62
     7
  6
CONTINUOUS
 10
10.4792
 20
0.5342
  0
VERTEX
  8
LAYER1
 62
     7
  6
CONTINUOUS
 10
10.4797
 20
0.5349
  0
VERTEX
  8
LAYER1
 62
     7
  6
CONTINUOUS
 10
10.4802
 20
0.5355
  0
VERTEX
  8
LAYER1
 62
     7
  6
CONTINUOUS
 10
10.4807
 20
0.5361
  0
VERTEX
  8
LAYER1
 62
     7
  6
CONTINUOUS
 10
10.4812
 20
0.5367
  0
VERTEX
  8
LAYER1
 62
     7
  6
CONTINUOUS
 10
10.4818
 20
0.5373
  0
VERTEX
  8
LAYER1
 62
     7
  6
CONTINUOUS
 10
10.4823
 20
0.5380
  0
VERTEX
  8
LAYER1
 62
     7
  6
CONTINUOUS
 10
10.4829
 20
0.5386
  0
VERTEX
  8
LAYER1
 62
     7
  6
CONTINUOUS
 10
10.4834
 20
0.5392
  0
VERTEX
  8
LAYER1
 62
     7
  6
CONTINUOUS
 10
10.4840
 20
0.5397
  0
VERTEX
  8
LAYER1
 62
     7
  6
CONTINUOUS
 10
10.4845
 20
0.5403
  0
SEQEND
  8
LAYER1
  0
POLYLINE
  8
LAYER1
 62
     7
 66
     1
  6
CONTINUOUS
  0
VERTEX
  8
LAYER1
 62
     7
  6
CONTINUOUS
 10
10.5810
 20
0.5403
  0
VERTEX
  8
LAYER1
 62
     7
  6
CONTINUOUS
 10
10.5813
 20
0.5384
  0
VERTEX
  8
LAYER1
 62
     7
  6
CONTINUOUS
 10
10.5816
 20
0.5364
  0
VERTEX
  8
LAYER1
 62
     7
  6
CONTINUOUS
 10
10.5819
 20
0.5344
  0
VERTEX
  8
LAYER1
 62
     7
  6
CONTINUOUS
 10
10.5822
 20
0.5324
  0
VERTEX
  8
LAYER1
 62
     7
  6
CONTINUOUS
 10
10.5824
 20
0.5305
  0
VERTEX
  8
LAYER1
 62
     7
  6
CONTINUOUS
 10
10.5825
 20
0.5285
  0
VERTEX
  8
LAYER1
 62
     7
  6
CONTINUOUS
 10
10.5825
 20
0.5266
  0
VERTEX
  8
LAYER1
 62
     7
  6
CONTINUOUS
 10
10.5824
 20
0.5248
  0
VERTEX
  8
LAYER1
 62
     7
  6
CONTINUOUS
 10
10.5822
 20
0.5230
  0
VERTEX
  8
LAYER1
 62
     7
  6
CONTINUOUS
 10
10.5818
 20
0.5212
  0
VERTEX
  8
LAYER1
 62
     7
  6
CONTINUOUS
 10
10.5813
 20
0.5194
  0
VERTEX
  8
LAYER1
 62
     7
  6
CONTINUOUS
 10
10.5806
 20
0.5177
  0
VERTEX
  8
LAYER1
 62
     7
  6
CONTINUOUS
 10
10.5800
 20
0.5167
  0
VERTEX
  8
LAYER1
 62
     7
  6
CONTINUOUS
 10
10.5794
 20
0.5157
  0
VERTEX
  8
LAYER1
 62
     7
  6
CONTINUOUS
 10
10.5787
 20
0.5147
  0
VERTEX
  8
LAYER1
 62
     7
  6
CONTINUOUS
 10
10.5780
 20
0.5137
  0
VERTEX
  8
LAYER1
 62
     7
  6
CONTINUOUS
 10
10.5772
 20
0.5128
  0
VERTEX
  8
LAYER1
 62
     7
  6
CONTINUOUS
 10
10.5763
 20
0.5119
  0
VERTEX
  8
LAYER1
 62
     7
  6
CONTINUOUS
 10
10.5754
 20
0.5110
  0
VERTEX
  8
LAYER1
 62
     7
  6
CONTINUOUS
 10
10.5745
 20
0.5102
  0
VERTEX
  8
LAYER1
 62
     7
  6
CONTINUOUS
 10
10.5735
 20
0.5094
  0
VERTEX
  8
LAYER1
 62
     7
  6
CONTINUOUS
 10
10.5725
 20
0.5087
  0
VERTEX
  8
LAYER1
 62
     7
  6
CONTINUOUS
 10
10.5714
 20
0.5081
  0
VERTEX
  8
LAYER1
 62
     7
  6
CONTINUOUS
 10
10.5703
 20
0.5075
  0
VERTEX
  8
LAYER1
 62
     7
  6
CONTINUOUS
 10
10.5680
 20
0.5064
  0
VERTEX
  8
LAYER1
 62
     7
  6
CONTINUOUS
 10
10.5656
 20
0.5056
  0
VERTEX
  8
LAYER1
 62
     7
  6
CONTINUOUS
 10
10.5631
 20
0.5050
  0
VERTEX
  8
LAYER1
 62
     7
  6
CONTINUOUS
 10
10.5606
 20
0.5045
  0
VERTEX
  8
LAYER1
 62
     7
  6
CONTINUOUS
 10
10.5580
 20
0.5042
  0
VERTEX
  8
LAYER1
 62
     7
  6
CONTINUOUS
 10
10.5554
 20
0.5040
  0
VERTEX
  8
LAYER1
 62
     7
  6
CONTINUOUS
 10
10.5528
 20
0.5038
  0
VERTEX
  8
LAYER1
 62
     7
  6
CONTINUOUS
 10
10.5501
 20
0.5036
  0
VERTEX
  8
LAYER1
 62
     7
  6
CONTINUOUS
 10
10.5475
 20
0.5034
  0
VERTEX
  8
LAYER1
 62
     7
  6
CONTINUOUS
 10
10.5449
 20
0.5032
  0
VERTEX
  8
LAYER1
 62
     7
  6
CONTINUOUS
 10
10.5423
 20
0.5028
  0
VERTEX
  8
LAYER1
 62
     7
  6
CONTINUOUS
 10
10.5397
 20
0.5024
  0
VERTEX
  8
LAYER1
 62
     7
  6
CONTINUOUS
 10
10.5379
 20
0.5019
  0
VERTEX
  8
LAYER1
 62
     7
  6
CONTINUOUS
 10
10.5362
 20
0.5015
  0
VERTEX
  8
LAYER1
 62
     7
  6
CONTINUOUS
 10
10.5345
 20
0.5009
  0
VERTEX
  8
LAYER1
 62
     7
  6
CONTINUOUS
 10
10.5328
 20
0.5004
  0
VERTEX
  8
LAYER1
 62
     7
  6
CONTINUOUS
 10
10.5311
 20
0.4998
  0
VERTEX
  8
LAYER1
 62
     7
  6
CONTINUOUS
 10
10.5294
 20
0.4993
  0
VERTEX
  8
LAYER1
 62
     7
  6
CONTINUOUS
 10
10.5278
 20
0.4988
  0
VERTEX
  8
LAYER1
 62
     7
  6
CONTINUOUS
 10
10.5261
 20
0.4983
  0
VERTEX
  8
LAYER1
 62
     7
  6
CONTINUOUS
 10
10.5244
 20
0.4979
  0
VERTEX
  8
LAYER1
 62
     7
  6
CONTINUOUS
 10
10.5227
 20
0.4976
  0
VERTEX
  8
LAYER1
 62
     7
  6
CONTINUOUS
 10
10.5210
 20
0.4973
  0
VERTEX
  8
LAYER1
 62
     7
  6
CONTINUOUS
 10
10.5192
 20
0.4972
  0
VERTEX
  8
LAYER1
 62
     7
  6
CONTINUOUS
 10
10.5180
 20
0.4972
  0
VERTEX
  8
LAYER1
 62
     7
  6
CONTINUOUS
 10
10.5167
 20
0.4973
  0
VERTEX
  8
LAYER1
 62
     7
  6
CONTINUOUS
 10
10.5154
 20
0.4974
  0
VERTEX
  8
LAYER1
 62
     7
  6
CONTINUOUS
 10
10.5141
 20
0.4975
  0
VERTEX
  8
LAYER1
 62
     7
  6
CONTINUOUS
 10
10.5128
 20
0.4976
  0
VERTEX
  8
LAYER1
 62
     7
  6
CONTINUOUS
 10
10.5116
 20
0.4977
  0
VERTEX
  8
LAYER1
 62
     7
  6
CONTINUOUS
 10
10.5103
 20
0.4978
  0
VERTEX
  8
LAYER1
 62
     7
  6
CONTINUOUS
 10
10.5090
 20
0.4978
  0
VERTEX
  8
LAYER1
 62
     7
  6
CONTINUOUS
 10
10.5077
 20
0.4978
  0
VERTEX
  8
LAYER1
 62
     7
  6
CONTINUOUS
 10
10.5064
 20
0.4977
  0
VERTEX
  8
LAYER1
 62
     7
  6
CONTINUOUS
 10
10.5052
 20
0.4975
  0
VERTEX
  8
LAYER1
 62
     7
  6
CONTINUOUS
 10
10.5039
 20
0.4972
  0
VERTEX
  8
LAYER1
 62
     7
  6
CONTINUOUS
 10
10.5020
 20
0.4965
  0
VERTEX
  8
LAYER1
 62
     7
  6
CONTINUOUS
 10
10.5002
 20
0.4956
  0
VERTEX
  8
LAYER1
 62
     7
  6
CONTINUOUS
 10
10.4984
 20
0.4945
  0
VERTEX
  8
LAYER1
 62
     7
  6
CONTINUOUS
 10
10.4966
 20
0.4933
  0
VERTEX
  8
LAYER1
 62
     7
  6
CONTINUOUS
 10
10.4948
 20
0.4921
  0
VERTEX
  8
LAYER1
 62
     7
  6
CONTINUOUS
 10
10.4931
 20
0.4908
  0
VERTEX
  8
LAYER1
 62
     7
  6
CONTINUOUS
 10
10.4914
 20
0.4897
  0
VERTEX
  8
LAYER1
 62
     7
  6
CONTINUOUS
 10
10.4897
 20
0.4886
  0
VERTEX
  8
LAYER1
 62
     7
  6
CONTINUOUS
 10
10.4881
 20
0.4878
  0
VERTEX
  8
LAYER1
 62
     7
  6
CONTINUOUS
 10
10.4865
 20
0.4872
  0
VERTEX
  8
LAYER1
 62
     7
  6
CONTINUOUS
 10
10.4849
 20
0.4869
  0
VERTEX
  8
LAYER1
 62
     7
  6
CONTINUOUS
 10
10.4835
 20
0.4870
  0
VERTEX
  8
LAYER1
 62
     7
  6
CONTINUOUS
 10
10.4825
 20
0.4872
  0
VERTEX
  8
LAYER1
 62
     7
  6
CONTINUOUS
 10
10.4816
 20
0.4876
  0
VERTEX
  8
LAYER1
 62
     7
  6
CONTINUOUS
 10
10.4807
 20
0.4882
  0
VERTEX
  8
LAYER1
 62
     7
  6
CONTINUOUS
 10
10.4799
 20
0.4889
  0
VERTEX
  8
LAYER1
 62
     7
  6
CONTINUOUS
 10
10.4790
 20
0.4896
  0
VERTEX
  8
LAYER1
 62
     7
  6
CONTINUOUS
 10
10.4782
 20
0.4905
  0
VERTEX
  8
LAYER1
 62
     7
  6
CONTINUOUS
 10
10.4773
 20
0.4915
  0
VERTEX
  8
LAYER1
 62
     7
  6
CONTINUOUS
 10
10.4765
 20
0.4926
  0
VERTEX
  8
LAYER1
 62
     7
  6
CONTINUOUS
 10
10.4757
 20
0.4937
  0
VERTEX
  8
LAYER1
 62
     7
  6
CONTINUOUS
 10
10.4749
 20
0.4948
  0
VERTEX
  8
LAYER1
 62
     7
  6
CONTINUOUS
 10
10.4740
 20
0.4960
  0
VERTEX
  8
LAYER1
 62
     7
  6
CONTINUOUS
 10
10.4732
 20
0.4972
  0
SEQEND
  8
LAYER1
  0
ARC
  8
LAYER1
 62
     7
  6
CONTINUOUS
 10
10.9077
 20
0.5334
 40
0.0261
 50
168.7556
 51
15.4404
  0
ARC
  8
LAYER1
 62
     7
  6
CONTINUOUS
 10
10.9077
 20
0.5334
 40
0.0261
 50
164.5595
 51
168.7555
  0
POLYLINE
  8
LAYER1
 62
     7
 66
     1
  6
CONTINUOUS
  0
VERTEX
  8
LAYER1
 62
     7
  6
CONTINUOUS
 10
11.0284
 20
0.3819
  0
VERTEX
  8
LAYER1
 62
     7
  6
CONTINUOUS
 10
11.0265
 20
0.3840
  0
VERTEX
  8
LAYER1
 62
     7
  6
CONTINUOUS
 10
11.0247
 20
0.3861
  0
VERTEX
  8
LAYER1
 62
     7
  6
CONTINUOUS
 10
11.0229
 20
0.3882
  0
VERTEX
  8
LAYER1
 62
     7
  6
CONTINUOUS
 10
11.0210
 20
0.3903
  0
VERTEX
  8
LAYER1
 62
     7
  6
CONTINUOUS
 10
11.0191
 20
0.3923
  0
VERTEX
  8
LAYER1
 62
     7
  6
CONTINUOUS
 10
11.0172
 20
0.3943
  0
VERTEX
  8
LAYER1
 62
     7
  6
CONTINUOUS
 10
11.0153
 20
0.3963
  0
VERTEX
  8
LAYER1
 62
     7
  6
CONTINUOUS
 10
11.0133
 20
0.3983
  0
VERTEX
  8
LAYER1
 62
     7
  6
CONTINUOUS
 10
11.0113
 20
0.4002
  0
VERTEX
  8
LAYER1
 62
     7
  6
CONTINUOUS
 10
11.0093
 20
0.4021
  0
VERTEX
  8
LAYER1
 62
     7
  6
CONTINUOUS
 10
11.0071
 20
0.4039
  0
VERTEX
  8
LAYER1
 62
     7
  6
CONTINUOUS
 10
11.0050
 20
0.4057
  0
VERTEX
  8
LAYER1
 62
     7
  6
CONTINUOUS
 10
11.0023
 20
0.4078
  0
VERTEX
  8
LAYER1
 62
     7
  6
CONTINUOUS
 10
10.9996
 20
0.4097
  0
VERTEX
  8
LAYER1
 62
     7
  6
CONTINUOUS
 10
10.9968
 20
0.4117
  0
VERTEX
  8
LAYER1
 62
     7
  6
CONTINUOUS
 10
10.9940
 20
0.4136
  0
VERTEX
  8
LAYER1
 62
     7
  6
CONTINUOUS
 10
10.9913
 20
0.4155
  0
VERTEX
  8
LAYER1
 62
     7
  6
CONTINUOUS
 10
10.9885
 20
0.4175
  0
VERTEX
  8
LAYER1
 62
     7
  6
CONTINUOUS
 10
10.9859
 20
0.4195
  0
VERTEX
  8
LAYER1
 62
     7
  6
CONTINUOUS
 10
10.9833
 20
0.4216
  0
VERTEX
  8
LAYER1
 62
     7
  6
CONTINUOUS
 10
10.9808
 20
0.4238
  0
VERTEX
  8
LAYER1
 62
     7
  6
CONTINUOUS
 10
10.9785
 20
0.4261
  0
VERTEX
  8
LAYER1
 62
     7
  6
CONTINUOUS
 10
10.9763
 20
0.4286
  0
VERTEX
  8
LAYER1
 62
     7
  6
CONTINUOUS
 10
10.9743
 20
0.4312
  0
VERTEX
  8
LAYER1
 62
     7
  6
CONTINUOUS
 10
10.9729
 20
0.4333
  0
VERTEX
  8
LAYER1
 62
     7
  6
CONTINUOUS
 10
10.9717
 20
0.4355
  0
VERTEX
  8
LAYER1
 62
     7
  6
CONTINUOUS
 10
10.9705
 20
0.4377
  0
VERTEX
  8
LAYER1
 62
     7
  6
CONTINUOUS
 10
10.9693
 20
0.4400
  0
VERTEX
  8
LAYER1
 62
     7
  6
CONTINUOUS
 10
10.9682
 20
0.4423
  0
VERTEX
  8
LAYER1
 62
     7
  6
CONTINUOUS
 10
10.9670
 20
0.4446
  0
VERTEX
  8
LAYER1
 62
     7
  6
CONTINUOUS
 10
10.9659
 20
0.4468
  0
VERTEX
  8
LAYER1
 62
     7
  6
CONTINUOUS
 10
10.9647
 20
0.4490
  0
VERTEX
  8
LAYER1
 62
     7
  6
CONTINUOUS
 10
10.9634
 20
0.4511
  0
VERTEX
  8
LAYER1
 62
     7
  6
CONTINUOUS
 10
10.9620
 20
0.4531
  0
VERTEX
  8
LAYER1
 62
     7
  6
CONTINUOUS
 10
10.9606
 20
0.4550
  0
VERTEX
  8
LAYER1
 62
     7
  6
CONTINUOUS
 10
10.9589
 20
0.4568
  0
VERTEX
  8
LAYER1
 62
     7
  6
CONTINUOUS
 10
10.9574
 20
0.4581
  0
VERTEX
  8
LAYER1
 62
     7
  6
CONTINUOUS
 10
10.9558
 20
0.4594
  0
VERTEX
  8
LAYER1
 62
     7
  6
CONTINUOUS
 10
10.9541
 20
0.4606
  0
VERTEX
  8
LAYER1
 62
     7
  6
CONTINUOUS
 10
10.9523
 20
0.4617
  0
VERTEX
  8
LAYER1
 62
     7
  6
CONTINUOUS
 10
10.9505
 20
0.4628
  0
VERTEX
  8
LAYER1
 62
     7
  6
CONTINUOUS
 10
10.9487
 20
0.4640
  0
VERTEX
  8
LAYER1
 62
     7
  6
CONTINUOUS
 10
10.9468
 20
0.4651
  0
VERTEX
  8
LAYER1
 62
     7
  6
CONTINUOUS
 10
10.9450
 20
0.4663
  0
VERTEX
  8
LAYER1
 62
     7
  6
CONTINUOUS
 10
10.9433
 20
0.4676
  0
VERTEX
  8
LAYER1
 62
     7
  6
CONTINUOUS
 10
10.9416
 20
0.4689
  0
VERTEX
  8
LAYER1
 62
     7
  6
CONTINUOUS
 10
10.9400
 20
0.4704
  0
VERTEX
  8
LAYER1
 62
     7
  6
CONTINUOUS
 10
10.9385
 20
0.4721
  0
VERTEX
  8
LAYER1
 62
     7
  6
CONTINUOUS
 10
10.9376
 20
0.4732
  0
VERTEX
  8
LAYER1
 62
     7
  6
CONTINUOUS
 10
10.9367
 20
0.4744
  0
VERTEX
  8
LAYER1
 62
     7
  6
CONTINUOUS
 10
10.9360
 20
0.4757
  0
VERTEX
  8
LAYER1
 62
     7
  6
CONTINUOUS
 10
10.9353
 20
0.4770
  0
VERTEX
  8
LAYER1
 62
     7
  6
CONTINUOUS
 10
10.9347
 20
0.4783
  0
VERTEX
  8
LAYER1
 62
     7
  6
CONTINUOUS
 10
10.9342
 20
0.4796
  0
VERTEX
  8
LAYER1
 62
     7
  6
CONTINUOUS
 10
10.9337
 20
0.4809
  0
VERTEX
  8
LAYER1
 62
     7
  6
CONTINUOUS
 10
10.9334
 20
0.4823
  0
VERTEX
  8
LAYER1
 62
     7
  6
CONTINUOUS
 10
10.9332
 20
0.4836
  0
VERTEX
  8
LAYER1
 62
     7
  6
CONTINUOUS
 10
10.9331
 20
0.4849
  0
VERTEX
  8
LAYER1
 62
     7
  6
CONTINUOUS
 10
10.9332
 20
0.4862
  0
VERTEX
  8
LAYER1
 62
     7
  6
CONTINUOUS
 10
10.9333
 20
0.4874
  0
VERTEX
  8
LAYER1
 62
     7
  6
CONTINUOUS
 10
10.9339
 20
0.4893
  0
VERTEX
  8
LAYER1
 62
     7
  6
CONTINUOUS
 10
10.9348
 20
0.4910
  0
VERTEX
  8
LAYER1
 62
     7
  6
CONTINUOUS
 10
10.9359
 20
0.4925
  0
VERTEX
  8
LAYER1
 62
     7
  6
CONTINUOUS
 10
10.9373
 20
0.4940
  0
VERTEX
  8
LAYER1
 62
     7
  6
CONTINUOUS
 10
10.9390
 20
0.4954
  0
VERTEX
  8
LAYER1
 62
     7
  6
CONTINUOUS
 10
10.9408
 20
0.4967
  0
VERTEX
  8
LAYER1
 62
     7
  6
CONTINUOUS
 10
10.9428
 20
0.4978
  0
VERTEX
  8
LAYER1
 62
     7
  6
CONTINUOUS
 10
10.9449
 20
0.4990
  0
VERTEX
  8
LAYER1
 62
     7
  6
CONTINUOUS
 10
10.9470
 20
0.5000
  0
VERTEX
  8
LAYER1
 62
     7
  6
CONTINUOUS
 10
10.9493
 20
0.5010
  0
VERTEX
  8
LAYER1
 62
     7
  6
CONTINUOUS
 10
10.9515
 20
0.5019
  0
VERTEX
  8
LAYER1
 62
     7
  6
CONTINUOUS
 10
10.9538
 20
0.5028
  0
VERTEX
  8
LAYER1
 62
     7
  6
CONTINUOUS
 10
10.9556
 20
0.5035
  0
VERTEX
  8
LAYER1
 62
     7
  6
CONTINUOUS
 10
10.9573
 20
0.5041
  0
VERTEX
  8
LAYER1
 62
     7
  6
CONTINUOUS
 10
10.9591
 20
0.5048
  0
VERTEX
  8
LAYER1
 62
     7
  6
CONTINUOUS
 10
10.9608
 20
0.5054
  0
VERTEX
  8
LAYER1
 62
     7
  6
CONTINUOUS
 10
10.9625
 20
0.5059
  0
VERTEX
  8
LAYER1
 62
     7
  6
CONTINUOUS
 10
10.9642
 20
0.5064
  0
VERTEX
  8
LAYER1
 62
     7
  6
CONTINUOUS
 10
10.9659
 20
0.5068
  0
VERTEX
  8
LAYER1
 62
     7
  6
CONTINUOUS
 10
10.9676
 20
0.5072
  0
VERTEX
  8
LAYER1
 62
     7
  6
CONTINUOUS
 10
10.9692
 20
0.5075
  0
VERTEX
  8
LAYER1
 62
     7
  6
CONTINUOUS
 10
10.9709
 20
0.5077
  0
VERTEX
  8
LAYER1
 62
     7
  6
CONTINUOUS
 10
10.9725
 20
0.5079
  0
VERTEX
  8
LAYER1
 62
     7
  6
CONTINUOUS
 10
10.9742
 20
0.5079
  0
VERTEX
  8
LAYER1
 62
     7
  6
CONTINUOUS
 10
10.9768
 20
0.5078
  0
VERTEX
  8
LAYER1
 62
     7
  6
CONTINUOUS
 10
10.9793
 20
0.5075
  0
VERTEX
  8
LAYER1
 62
     7
  6
CONTINUOUS
 10
10.9819
 20
0.5070
  0
VERTEX
  8
LAYER1
 62
     7
  6
CONTINUOUS
 10
10.9845
 20
0.5064
  0
VERTEX
  8
LAYER1
 62
     7
  6
CONTINUOUS
 10
10.9871
 20
0.5056
  0
VERTEX
  8
LAYER1
 62
     7
  6
CONTINUOUS
 10
10.9896
 20
0.5047
  0
VERTEX
  8
LAYER1
 62
     7
  6
CONTINUOUS
 10
10.9922
 20
0.5037
  0
VERTEX
  8
LAYER1
 62
     7
  6
CONTINUOUS
 10
10.9948
 20
0.5026
  0
VERTEX
  8
LAYER1
 62
     7
  6
CONTINUOUS
 10
10.9973
 20
0.5014
  0
VERTEX
  8
LAYER1
 62
     7
  6
CONTINUOUS
 10
10.9999
 20
0.5002
  0
VERTEX
  8
LAYER1
 62
     7
  6
CONTINUOUS
 10
11.0024
 20
0.4990
  0
VERTEX
  8
LAYER1
 62
     7
  6
CONTINUOUS
 10
11.0049
 20
0.4977
  0
VERTEX
  8
LAYER1
 62
     7
  6
CONTINUOUS
 10
11.0069
 20
0.4967
  0
VERTEX
  8
LAYER1
 62
     7
  6
CONTINUOUS
 10
11.0089
 20
0.4957
  0
VERTEX
  8
LAYER1
 62
     7
  6
CONTINUOUS
 10
11.0109
 20
0.4947
  0
VERTEX
  8
LAYER1
 62
     7
  6
CONTINUOUS
 10
11.0129
 20
0.4937
  0
VERTEX
  8
LAYER1
 62
     7
  6
CONTINUOUS
 10
11.0148
 20
0.4927
  0
VERTEX
  8
LAYER1
 62
     7
  6
CONTINUOUS
 10
11.0168
 20
0.4917
  0
VERTEX
  8
LAYER1
 62
     7
  6
CONTINUOUS
 10
11.0187
 20
0.4907
  0
VERTEX
  8
LAYER1
 62
     7
  6
CONTINUOUS
 10
11.0207
 20
0.4897
  0
VERTEX
  8
LAYER1
 62
     7
  6
CONTINUOUS
 10
11.0226
 20
0.4887
  0
VERTEX
  8
LAYER1
 62
     7
  6
CONTINUOUS
 10
11.0245
 20
0.4878
  0
VERTEX
  8
LAYER1
 62
     7
  6
CONTINUOUS
 10
11.0265
 20
0.4868
  0
VERTEX
  8
LAYER1
 62
     7
  6
CONTINUOUS
 10
11.0284
 20
0.4858
  0
SEQEND
  8
LAYER1
  0
POLYLINE
  8
LAYER1
 62
     7
 66
     1
  6
CONTINUOUS
  0
VERTEX
  8
LAYER1
 62
     7
  6
CONTINUOUS
 10
10.9949
 20
0.2574
  0
VERTEX
  8
LAYER1
 62
     7
  6
CONTINUOUS
 10
10.9963
 20
0.2567
  0
VERTEX
  8
LAYER1
 62
     7
  6
CONTINUOUS
 10
10.9977
 20
0.2560
  0
VERTEX
  8
LAYER1
 62
     7
  6
CONTINUOUS
 10
10.9991
 20
0.2552
  0
VERTEX
  8
LAYER1
 62
     7
  6
CONTINUOUS
 10
11.0005
 20
0.2545
  0
VERTEX
  8
LAYER1
 62
     7
  6
CONTINUOUS
 10
11.0018
 20
0.2537
  0
VERTEX
  8
LAYER1
 62
     7
  6
CONTINUOUS
 10
11.0032
 20
0.2529
  0
VERTEX
  8
LAYER1
 62
     7
  6
CONTINUOUS
 10
11.0045
 20
0.2521
  0
VERTEX
  8
LAYER1
 62
     7
  6
CONTINUOUS
 10
11.0057
 20
0.2512
  0
VERTEX
  8
LAYER1
 62
     7
  6
CONTINUOUS
 10
11.0069
 20
0.2503
  0
VERTEX
  8
LAYER1
 62
     7
  6
CONTINUOUS
 10
11.0081
 20
0.2493
  0
VERTEX
  8
LAYER1
 62
     7
  6
CONTINUOUS
 10
11.0092
 20
0.2483
  0
VERTEX
  8
LAYER1
 62
     7
  6
CONTINUOUS
 10
11.0103
 20
0.2472
  0
VERTEX
  8
LAYER1
 62
     7
  6
CONTINUOUS
 10
11.0112
 20
0.2461
  0
VERTEX
  8
LAYER1
 62
     7
  6
CONTINUOUS
 10
11.0122
 20
0.2449
  0
VERTEX
  8
LAYER1
 62
     7
  6
CONTINUOUS
 10
11.0131
 20
0.2437
  0
VERTEX
  8
LAYER1
 62
     7
  6
CONTINUOUS
 10
11.0139
 20
0.2424
  0
VERTEX
  8
LAYER1
 62
     7
  6
CONTINUOUS
 10
11.0147
 20
0.2411
  0
VERTEX
  8
LAYER1
 62
     7
  6
CONTINUOUS
 10
11.0155
 20
0.2398
  0
VERTEX
  8
LAYER1
 62
     7
  6
CONTINUOUS
 10
11.0163
 20
0.2384
  0
VERTEX
  8
LAYER1
 62
     7
  6
CONTINUOUS
 10
11.0171
 20
0.2371
  0
VERTEX
  8
LAYER1
 62
     7
  6
CONTINUOUS
 10
11.0179
 20
0.2358
  0
VERTEX
  8
LAYER1
 62
     7
  6
CONTINUOUS
 10
11.0188
 20
0.2345
  0
VERTEX
  8
LAYER1
 62
     7
  6
CONTINUOUS
 10
11.0196
 20
0.2332
  0
VERTEX
  8
LAYER1
 62
     7
  6
CONTINUOUS
 10
11.0205
 20
0.2319
  0
VERTEX
  8
LAYER1
 62
     7
  6
CONTINUOUS
 10
11.0211
 20
0.2311
  0
VERTEX
  8
LAYER1
 62
     7
  6
CONTINUOUS
 10
11.0217
 20
0.2304
  0
VERTEX
  8
LAYER1
 62
     7
  6
CONTINUOUS
 10
11.0223
 20
0.2296
  0
VERTEX
  8
LAYER1
 62
     7
  6
CONTINUOUS
 10
11.0230
 20
0.2289
  0
VERTEX
  8
LAYER1
 62
     7
  6
CONTINUOUS
 10
11.0236
 20
0.2281
  0
VERTEX
  8
LAYER1
 62
     7
  6
CONTINUOUS
 10
11.0243
 20
0.2274
  0
VERTEX
  8
LAYER1
 62
     7
  6
CONTINUOUS
 10
11.0249
 20
0.2267
  0
VERTEX
  8
LAYER1
 62
     7
  6
CONTINUOUS
 10
11.0256
 20
0.2260
  0
VERTEX
  8
LAYER1
 62
     7
  6
CONTINUOUS
 10
11.0263
 20
0.2253
  0
VERTEX
  8
LAYER1
 62
     7
  6
CONTINUOUS
 10
11.0270
 20
0.2246
  0
VERTEX
  8
LAYER1
 62
     7
  6
CONTINUOUS
 10
11.0277
 20
0.2239
  0
VERTEX
  8
LAYER1
 62
     7
  6
CONTINUOUS
 10
11.0284
 20
0.2232
  0
SEQEND
  8
LAYER1
  0
POLYLINE
  8
LAYER1
 62
     7
 66
     1
  6
CONTINUOUS
  0
VERTEX
  8
LAYER1
 62
     7
  6
CONTINUOUS
 10
11.0284
 20
0.1882
  0
VERTEX
  8
LAYER1
 62
     7
  6
CONTINUOUS
 10
11.0274
 20
0.1874
  0
VERTEX
  8
LAYER1
 62
     7
  6
CONTINUOUS
 10
11.0264
 20
0.1867
  0
VERTEX
  8
LAYER1
 62
     7
  6
CONTINUOUS
 10
11.0254
 20
0.1859
  0
VERTEX
  8
LAYER1
 62
     7
  6
CONTINUOUS
 10
11.0243
 20
0.1852
  0
VERTEX
  8
LAYER1
 62
     7
  6
CONTINUOUS
 10
11.0233
 20
0.1845
  0
VERTEX
  8
LAYER1
 62
     7
  6
CONTINUOUS
 10
11.0222
 20
0.1838
  0
VERTEX
  8
LAYER1
 62
     7
  6
CONTINUOUS
 10
11.0212
 20
0.1832
  0
VERTEX
  8
LAYER1
 62
     7
  6
CONTINUOUS
 10
11.0201
 20
0.1826
  0
VERTEX
  8
LAYER1
 62
     7
  6
CONTINUOUS
 10
11.0190
 20
0.1820
  0
VERTEX
  8
LAYER1
 62
     7
  6
CONTINUOUS
 10
11.0178
 20
0.1816
  0
VERTEX
  8
LAYER1
 62
     7
  6
CONTINUOUS
 10
11.0166
 20
0.1811
  0
VERTEX
  8
LAYER1
 62
     7
  6
CONTINUOUS
 10
11.0154
 20
0.1808
  0
VERTEX
  8
LAYER1
 62
     7
  6
CONTINUOUS
 10
11.0137
 20
0.1804
  0
VERTEX
  8
LAYER1
 62
     7
  6
CONTINUOUS
 10
11.0118
 20
0.1802
  0
VERTEX
  8
LAYER1
 62
     7
  6
CONTINUOUS
 10
11.0100
 20
0.1801
  0
VERTEX
  8
LAYER1
 62
     7
  6
CONTINUOUS
 10
11.0081
 20
0.1801
  0
VERTEX
  8
LAYER1
 62
     7
  6
CONTINUOUS
 10
11.0062
 20
0.1804
  0
VERTEX
  8
LAYER1
 62
     7
  6
CONTINUOUS
 10
11.0044
 20
0.1807
  0
VERTEX
  8
LAYER1
 62
     7
  6
CONTINUOUS
 10
11.0026
 20
0.1812
  0
VERTEX
  8
LAYER1
 62
     7
  6
CONTINUOUS
 10
11.0009
 20
0.1819
  0
VERTEX
  8
LAYER1
 62
     7
  6
CONTINUOUS
 10
10.9992
 20
0.1826
  0
VERTEX
  8
LAYER1
 62
     7
  6
CONTINUOUS
 10
10.9977
 20
0.1836
  0
VERTEX
  8
LAYER1
 62
     7
  6
CONTINUOUS
 10
10.9963
 20
0.1846
  0
VERTEX
  8
LAYER1
 62
     7
  6
CONTINUOUS
 10
10.9950
 20
0.1859
  0
VERTEX
  8
LAYER1
 62
     7
  6
CONTINUOUS
 10
10.9941
 20
0.1869
  0
VERTEX
  8
LAYER1
 62
     7
  6
CONTINUOUS
 10
10.9933
 20
0.1880
  0
VERTEX
  8
LAYER1
 62
     7
  6
CONTINUOUS
 10
10.9927
 20
0.1892
  0
VERTEX
  8
LAYER1
 62
     7
  6
CONTINUOUS
 10
10.9921
 20
0.1904
  0
VERTEX
  8
LAYER1
 62
     7
  6
CONTINUOUS
 10
10.9915
 20
0.1917
  0
VERTEX
  8
LAYER1
 62
     7
  6
CONTINUOUS
 10
10.9911
 20
0.1930
  0
VERTEX
  8
LAYER1
 62
     7
  6
CONTINUOUS
 10
10.9907
 20
0.1943
  0
VERTEX
  8
LAYER1
 62
     7
  6
CONTINUOUS
 10
10.9904
 20
0.1957
  0
VERTEX
  8
LAYER1
 62
     7
  6
CONTINUOUS
 10
10.9902
 20
0.1971
  0
VERTEX
  8
LAYER1
 62
     7
  6
CONTINUOUS
 10
10.9900
 20
0.1985
  0
VERTEX
  8
LAYER1
 62
     7
  6
CONTINUOUS
 10
10.9899
 20
0.1998
  0
VERTEX
  8
LAYER1
 62
     7
  6
CONTINUOUS
 10
10.9899
 20
0.2012
  0
VERTEX
  8
LAYER1
 62
     7
  6
CONTINUOUS
 10
10.9899
 20
0.2033
  0
VERTEX
  8
LAYER1
 62
     7
  6
CONTINUOUS
 10
10.9900
 20
0.2054
  0
VERTEX
  8
LAYER1
 62
     7
  6
CONTINUOUS
 10
10.9901
 20
0.2074
  0
VERTEX
  8
LAYER1
 62
     7
  6
CONTINUOUS
 10
10.9903
 20
0.2095
  0
VERTEX
  8
LAYER1
 62
     7
  6
CONTINUOUS
 10
10.9905
 20
0.2115
  0
VERTEX
  8
LAYER1
 62
     7
  6
CONTINUOUS
 10
10.9907
 20
0.2135
  0
VERTEX
  8
LAYER1
 62
     7
  6
CONTINUOUS
 10
10.9909
 20
0.2156
  0
VERTEX
  8
LAYER1
 62
     7
  6
CONTINUOUS
 10
10.9909
 20
0.2177
  0
VERTEX
  8
LAYER1
 62
     7
  6
CONTINUOUS
 10
10.9909
 20
0.2198
  0
VERTEX
  8
LAYER1
 62
     7
  6
CONTINUOUS
 10
10.9907
 20
0.2221
  0
VERTEX
  8
LAYER1
 62
     7
  6
CONTINUOUS
 10
10.9904
 20
0.2244
  0
VERTEX
  8
LAYER1
 62
     7
  6
CONTINUOUS
 10
10.9898
 20
0.2268
  0
VERTEX
  8
LAYER1
 62
     7
  6
CONTINUOUS
 10
10.9892
 20
0.2290
  0
VERTEX
  8
LAYER1
 62
     7
  6
CONTINUOUS
 10
10.9884
 20
0.2313
  0
VERTEX
  8
LAYER1
 62
     7
  6
CONTINUOUS
 10
10.9874
 20
0.2335
  0
VERTEX
  8
LAYER1
 62
     7
  6
CONTINUOUS
 10
10.9864
 20
0.2358
  0
VERTEX
  8
LAYER1
 62
     7
  6
CONTINUOUS
 10
10.9854
 20
0.2379
  0
VERTEX
  8
LAYER1
 62
     7
  6
CONTINUOUS
 10
10.9843
 20
0.2400
  0
VERTEX
  8
LAYER1
 62
     7
  6
CONTINUOUS
 10
10.9833
 20
0.2418
  0
VERTEX
  8
LAYER1
 62
     7
  6
CONTINUOUS
 10
10.9823
 20
0.2435
  0
VERTEX
  8
LAYER1
 62
     7
  6
CONTINUOUS
 10
10.9814
 20
0.2449
  0
VERTEX
  8
LAYER1
 62
     7
  6
CONTINUOUS
 10
10.9806
 20
0.2460
  0
VERTEX
  8
LAYER1
 62
     7
  6
CONTINUOUS
 10
10.9800
 20
0.2468
  0
VERTEX
  8
LAYER1
 62
     7
  6
CONTINUOUS
 10
10.9796
 20
0.2472
  0
VERTEX
  8
LAYER1
 62
     7
  6
CONTINUOUS
 10
10.9795
 20
0.2472
  0
VERTEX
  8
LAYER1
 62
     7
  6
CONTINUOUS
 10
10.9795
 20
0.2472
  0
VERTEX
  8
LAYER1
 62
     7
  6
CONTINUOUS
 10
10.9794
 20
0.2473
  0
VERTEX
  8
LAYER1
 62
     7
  6
CONTINUOUS
 10
10.9794
 20
0.2473
  0
VERTEX
  8
LAYER1
 62
     7
  6
CONTINUOUS
 10
10.9794
 20
0.2472
  0
VERTEX
  8
LAYER1
 62
     7
  6
CONTINUOUS
 10
10.9794
 20
0.2472
  0
VERTEX
  8
LAYER1
 62
     7
  6
CONTINUOUS
 10
10.9794
 20
0.2472
  0
VERTEX
  8
LAYER1
 62
     7
  6
CONTINUOUS
 10
10.9794
 20
0.2472
  0
VERTEX
  8
LAYER1
 62
     7
  6
CONTINUOUS
 10
10.9794
 20
0.2472
  0
VERTEX
  8
LAYER1
 62
     7
  6
CONTINUOUS
 10
10.9795
 20
0.2472
  0
VERTEX
  8
LAYER1
 62
     7
  6
CONTINUOUS
 10
10.9795
 20
0.2472
  0
VERTEX
  8
LAYER1
 62
     7
  6
CONTINUOUS
 10
10.9796
 20
0.2472
  0
VERTEX
  8
LAYER1
 62
     7
  6
CONTINUOUS
 10
10.9800
 20
0.2474
  0
VERTEX
  8
LAYER1
 62
     7
  6
CONTINUOUS
 10
10.9807
 20
0.2477
  0
VERTEX
  8
LAYER1
 62
     7
  6
CONTINUOUS
 10
10.9815
 20
0.2482
  0
VERTEX
  8
LAYER1
 62
     7
  6
CONTINUOUS
 10
10.9825
 20
0.2488
  0
VERTEX
  8
LAYER1
 62
     7
  6
CONTINUOUS
 10
10.9837
 20
0.2496
  0
VERTEX
  8
LAYER1
 62
     7
  6
CONTINUOUS
 10
10.9851
 20
0.2505
  0
VERTEX
  8
LAYER1
 62
     7
  6
CONTINUOUS
 10
10.9865
 20
0.2515
  0
VERTEX
  8
LAYER1
 62
     7
  6
CONTINUOUS
 10
10.9881
 20
0.2526
  0
VERTEX
  8
LAYER1
 62
     7
  6
CONTINUOUS
 10
10.9897
 20
0.2538
  0
VERTEX
  8
LAYER1
 62
     7
  6
CONTINUOUS
 10
10.9914
 20
0.2550
  0
VERTEX
  8
LAYER1
 62
     7
  6
CONTINUOUS
 10
10.9932
 20
0.2562
  0
VERTEX
  8
LAYER1
 62
     7
  6
CONTINUOUS
 10
10.9949
 20
0.2574
  0
SEQEND
  8
LAYER1
  0
POLYLINE
  8
LAYER1
 62
     7
 66
     1
  6
CONTINUOUS
  0
VERTEX
  8
LAYER1
 62
     7
  6
CONTINUOUS
 10
10.0398
 20
0.3122
  0
VERTEX
  8
LAYER1
 62
     7
  6
CONTINUOUS
 10
10.0401
 20
0.3127
  0
VERTEX
  8
LAYER1
 62
     7
  6
CONTINUOUS
 10
10.0404
 20
0.3131
  0
VERTEX
  8
LAYER1
 62
     7
  6
CONTINUOUS
 10
10.0407
 20
0.3136
  0
VERTEX
  8
LAYER1
 62
     7
  6
CONTINUOUS
 10
10.0410
 20
0.3140
  0
VERTEX
  8
LAYER1
 62
     7
  6
CONTINUOUS
 10
10.0413
 20
0.3144
  0
VERTEX
  8
LAYER1
 62
     7
  6
CONTINUOUS
 10
10.0416
 20
0.3148
  0
VERTEX
  8
LAYER1
 62
     7
  6
CONTINUOUS
 10
10.0418
 20
0.3152
  0
VERTEX
  8
LAYER1
 62
     7
  6
CONTINUOUS
 10
10.0421
 20
0.3155
  0
VERTEX
  8
LAYER1
 62
     7
  6
CONTINUOUS
 10
10.0423
 20
0.3158
  0
VERTEX
  8
LAYER1
 62
     7
  6
CONTINUOUS
 10
10.0425
 20
0.3161
  0
VERTEX
  8
LAYER1
 62
     7
  6
CONTINUOUS
 10
10.0426
 20
0.3163
  0
VERTEX
  8
LAYER1
 62
     7
  6
CONTINUOUS
 10
10.0428
 20
0.3165
  0
VERTEX
  8
LAYER1
 62
     7
  6
CONTINUOUS
 10
10.0428
 20
0.3167
  0
VERTEX
  8
LAYER1
 62
     7
  6
CONTINUOUS
 10
10.0429
 20
0.3168
  0
VERTEX
  8
LAYER1
 62
     7
  6
CONTINUOUS
 10
10.0430
 20
0.3168
  0
VERTEX
  8
LAYER1
 62
     7
  6
CONTINUOUS
 10
10.0430
 20
0.3169
  0
VERTEX
  8
LAYER1
 62
     7
  6
CONTINUOUS
 10
10.0430
 20
0.3169
  0
VERTEX
  8
LAYER1
 62
     7
  6
CONTINUOUS
 10
10.0430
 20
0.3169
  0
VERTEX
  8
LAYER1
 62
     7
  6
CONTINUOUS
 10
10.0430
 20
0.3168
  0
VERTEX
  8
LAYER1
 62
     7
  6
CONTINUOUS
 10
10.0429
 20
0.3168
  0
VERTEX
  8
LAYER1
 62
     7
  6
CONTINUOUS
 10
10.0429
 20
0.3167
  0
VERTEX
  8
LAYER1
 62
     7
  6
CONTINUOUS
 10
10.0429
 20
0.3167
  0
VERTEX
  8
LAYER1
 62
     7
  6
CONTINUOUS
 10
10.0428
 20
0.3166
  0
VERTEX
  8
LAYER1
 62
     7
  6
CONTINUOUS
 10
10.0428
 20
0.3165
  0
SEQEND
  8
LAYER1
  0
POLYLINE
  8
LAYER1
 62
     7
 66
     1
  6
CONTINUOUS
  0
VERTEX
  8
LAYER1
 62
     7
  6
CONTINUOUS
 10
10.0428
 20
0.2325
  0
VERTEX
  8
LAYER1
 62
     7
  6
CONTINUOUS
 10
10.0424
 20
0.2315
  0
VERTEX
  8
LAYER1
 62
     7
  6
CONTINUOUS
 10
10.0421
 20
0.2306
  0
VERTEX
  8
LAYER1
 62
     7
  6
CONTINUOUS
 10
10.0418
 20
0.2296
  0
VERTEX
  8
LAYER1
 62
     7
  6
CONTINUOUS
 10
10.0415
 20
0.2287
  0
VERTEX
  8
LAYER1
 62
     7
  6
CONTINUOUS
 10
10.0412
 20
0.2278
  0
VERTEX
  8
LAYER1
 62
     7
  6
CONTINUOUS
 10
10.0409
 20
0.2269
  0
VERTEX
  8
LAYER1
 62
     7
  6
CONTINUOUS
 10
10.0406
 20
0.2262
  0
VERTEX
  8
LAYER1
 62
     7
  6
CONTINUOUS
 10
10.0404
 20
0.2255
  0
VERTEX
  8
LAYER1
 62
     7
  6
CONTINUOUS
 10
10.0402
 20
0.2248
  0
VERTEX
  8
LAYER1
 62
     7
  6
CONTINUOUS
 10
10.0400
 20
0.2243
  0
VERTEX
  8
LAYER1
 62
     7
  6
CONTINUOUS
 10
10.0399
 20
0.2239
  0
VERTEX
  8
LAYER1
 62
     7
  6
CONTINUOUS
 10
10.0398
 20
0.2236
  0
VERTEX
  8
LAYER1
 62
     7
  6
CONTINUOUS
 10
10.0397
 20
0.2235
  0
VERTEX
  8
LAYER1
 62
     7
  6
CONTINUOUS
 10
10.0397
 20
0.2234
  0
VERTEX
  8
LAYER1
 62
     7
  6
CONTINUOUS
 10
10.0397
 20
0.2234
  0
VERTEX
  8
LAYER1
 62
     7
  6
CONTINUOUS
 10
10.0397
 20
0.2233
  0
VERTEX
  8
LAYER1
 62
     7
  6
CONTINUOUS
 10
10.0397
 20
0.2233
  0
VERTEX
  8
LAYER1
 62
     7
  6
CONTINUOUS
 10
10.0397
 20
0.2233
  0
VERTEX
  8
LAYER1
 62
     7
  6
CONTINUOUS
 10
10.0397
 20
0.2234
  0
VERTEX
  8
LAYER1
 62
     7
  6
CONTINUOUS
 10
10.0397
 20
0.2234
  0
VERTEX
  8
LAYER1
 62
     7
  6
CONTINUOUS
 10
10.0397
 20
0.2234
  0
VERTEX
  8
LAYER1
 62
     7
  6
CONTINUOUS
 10
10.0397
 20
0.2235
  0
VERTEX
  8
LAYER1
 62
     7
  6
CONTINUOUS
 10
10.0397
 20
0.2235
  0
VERTEX
  8
LAYER1
 62
     7
  6
CONTINUOUS
 10
10.0398
 20
0.2236
  0
SEQEND
  8
LAYER1
  0
POLYLINE
  8
LAYER1
 62
     7
 66
     1
  6
CONTINUOUS
  0
VERTEX
  8
LAYER1
 62
     7
  6
CONTINUOUS
 10
10.4845
 20
0.5403
  0
VERTEX
  8
LAYER1
 62
     7
  6
CONTINUOUS
 10
10.4850
 20
0.5407
  0
VERTEX
  8
LAYER1
 62
     7
  6
CONTINUOUS
 10
10.4855
 20
0.5411
  0
VERTEX
  8
LAYER1
 62
     7
  6
CONTINUOUS
 10
10.4860
 20
0.5415
  0
VERTEX
  8
LAYER1
 62
     7
  6
CONTINUOUS
 10
10.4864
 20
0.5418
  0
VERTEX
  8
LAYER1
 62
     7
  6
CONTINUOUS
 10
10.4868
 20
0.5422
  0
VERTEX
  8
LAYER1
 62
     7
  6
CONTINUOUS
 10
10.4873
 20
0.5425
  0
VERTEX
  8
LAYER1
 62
     7
  6
CONTINUOUS
 10
10.4876
 20
0.5428
  0
VERTEX
  8
LAYER1
 62
     7
  6
CONTINUOUS
 10
10.4880
 20
0.5431
  0
VERTEX
  8
LAYER1
 62
     7
  6
CONTINUOUS
 10
10.4883
 20
0.5433
  0
VERTEX
  8
LAYER1
 62
     7
  6
CONTINUOUS
 10
10.4886
 20
0.5436
  0
VERTEX
  8
LAYER1
 62
     7
  6
CONTINUOUS
 10
10.4889
 20
0.5438
  0
VERTEX
  8
LAYER1
 62
     7
  6
CONTINUOUS
 10
10.4890
 20
0.5439
  0
VERTEX
  8
LAYER1
 62
     7
  6
CONTINUOUS
 10
10.4892
 20
0.5440
  0
VERTEX
  8
LAYER1
 62
     7
  6
CONTINUOUS
 10
10.4892
 20
0.5441
  0
VERTEX
  8
LAYER1
 62
     7
  6
CONTINUOUS
 10
10.4893
 20
0.5441
  0
VERTEX
  8
LAYER1
 62
     7
  6
CONTINUOUS
 10
10.4893
 20
0.5441
  0
VERTEX
  8
LAYER1
 62
     7
  6
CONTINUOUS
 10
10.4893
 20
0.5441
  0
VERTEX
  8
LAYER1
 62
     7
  6
CONTINUOUS
 10
10.4893
 20
0.5441
  0
VERTEX
  8
LAYER1
 62
     7
  6
CONTINUOUS
 10
10.4893
 20
0.5441
  0
VERTEX
  8
LAYER1
 62
     7
  6
CONTINUOUS
 10
10.4893
 20
0.5441
  0
VERTEX
  8
LAYER1
 62
     7
  6
CONTINUOUS
 10
10.4892
 20
0.5440
  0
VERTEX
  8
LAYER1
 62
     7
  6
CONTINUOUS
 10
10.4892
 20
0.5440
  0
VERTEX
  8
LAYER1
 62
     7
  6
CONTINUOUS
 10
10.4891
 20
0.5440
  0
VERTEX
  8
LAYER1
 62
     7
  6
CONTINUOUS
 10
10.4890
 20
0.5439
  0
SEQEND
  8
LAYER1
  0
POLYLINE
  8
LAYER1
 62
     7
 66
     1
  6
CONTINUOUS
  0
VERTEX
  8
LAYER1
 62
     7
  6
CONTINUOUS
 10
10.5804
 20
0.5439
  0
VERTEX
  8
LAYER1
 62
     7
  6
CONTINUOUS
 10
10.5804
 20
0.5439
  0
VERTEX
  8
LAYER1
 62
     7
  6
CONTINUOUS
 10
10.5804
 20
0.5438
  0
VERTEX
  8
LAYER1
 62
     7
  6
CONTINUOUS
 10
10.5804
 20
0.5438
  0
VERTEX
  8
LAYER1
 62
     7
  6
CONTINUOUS
 10
10.5804
 20
0.5437
  0
VERTEX
  8
LAYER1
 62
     7
  6
CONTINUOUS
 10
10.5805
 20
0.5436
  0
VERTEX
  8
LAYER1
 62
     7
  6
CONTINUOUS
 10
10.5805
 20
0.5436
  0
VERTEX
  8
LAYER1
 62
     7
  6
CONTINUOUS
 10
10.5805
 20
0.5435
  0
VERTEX
  8
LAYER1
 62
     7
  6
CONTINUOUS
 10
10.5805
 20
0.5435
  0
VERTEX
  8
LAYER1
 62
     7
  6
CONTINUOUS
 10
10.5805
 20
0.5434
  0
VERTEX
  8
LAYER1
 62
     7
  6
CONTINUOUS
 10
10.5805
 20
0.5434
  0
VERTEX
  8
LAYER1
 62
     7
  6
CONTINUOUS
 10
10.5805
 20
0.5433
  0
VERTEX
  8
LAYER1
 62
     7
  6
CONTINUOUS
 10
10.5805
 20
0.5433
  0
VERTEX
  8
LAYER1
 62
     7
  6
CONTINUOUS
 10
10.5806
 20
0.5430
  0
VERTEX
  8
LAYER1
 62
     7
  6
CONTINUOUS
 10
10.5806
 20
0.5428
  0
VERTEX
  8
LAYER1
 62
     7
  6
CONTINUOUS
 10
10.5807
 20
0.5426
  0
VERTEX
  8
LAYER1
 62
     7
  6
CONTINUOUS
 10
10.5807
 20
0.5423
  0
VERTEX
  8
LAYER1
 62
     7
  6
CONTINUOUS
 10
10.5807
 20
0.5421
  0
VERTEX
  8
LAYER1
 62
     7
  6
CONTINUOUS
 10
10.5808
 20
0.5418
  0
VERTEX
  8
LAYER1
 62
     7
  6
CONTINUOUS
 10
10.5808
 20
0.5416
  0
VERTEX
  8
LAYER1
 62
     7
  6
CONTINUOUS
 10
10.5808
 20
0.5413
  0
VERTEX
  8
LAYER1
 62
     7
  6
CONTINUOUS
 10
10.5809
 20
0.5411
  0
VERTEX
  8
LAYER1
 62
     7
  6
CONTINUOUS
 10
10.5809
 20
0.5408
  0
VERTEX
  8
LAYER1
 62
     7
  6
CONTINUOUS
 10
10.5809
 20
0.5406
  0
VERTEX
  8
LAYER1
 62
     7
  6
CONTINUOUS
 10
10.5810
 20
0.5403
  0
SEQEND
  8
LAYER1
  0
ARC
  8
LAYER1
 62
     7
  6
CONTINUOUS
 10
10.0314
 20
0.1286
 40
0.0128
 50
-49.1293
 51
-27.2667
  0
ARC
  8
LAYER1
 62
     7
  6
CONTINUOUS
 10
10.0314
 20
0.1286
 40
0.0128
 50
27.2847
 51
49.1307
  0
ARC
  8
LAYER1
 62
     7
  6
CONTINUOUS
 10
10.9077
 20
0.5334
 40
0.0261
 50
15.4405
 51
23.7468
  0
ARC
  8
LAYER1
 62
     7
  6
CONTINUOUS
 10
10.9077
 20
0.5334
 40
0.0261
 50
156.2496
 51
164.5601
  0
POLYLINE
  8
LAYER10
 62
     1
 66
     1
  6
CONTINUOUS
  0
VERTEX
  8
LAYER10
 62
     1
  6
CONTINUOUS
 10
10.9991
 20
-0.4411
  0
VERTEX
  8
LAYER10
 62
     1
  6
CONTINUOUS
 10
10.9988
 20
-0.4385
  0
VERTEX
  8
LAYER10
 62
     1
  6
CONTINUOUS
 10
10.9985
 20
-0.4359
  0
VERTEX
  8
LAYER10
 62
     1
  6
CONTINUOUS
 10
10.9983
 20
-0.4333
  0
VERTEX
  8
LAYER10
 62
     1
  6
CONTINUOUS
 10
10.9980
 20
-0.4307
  0
VERTEX
  8
LAYER10
 62
     1
  6
CONTINUOUS
 10
10.9978
 20
-0.4281
  0
VERTEX
  8
LAYER10
 62
     1
  6
CONTINUOUS
 10
10.9975
 20
-0.4255
  0
VERTEX
  8
LAYER10
 62
     1
  6
CONTINUOUS
 10
10.9972
 20
-0.4228
  0
VERTEX
  8
LAYER10
 62
     1
  6
CONTINUOUS
 10
10.9969
 20
-0.4202
  0
VERTEX
  8
LAYER10
 62
     1
  6
CONTINUOUS
 10
10.9967
 20
-0.4176
  0
VERTEX
  8
LAYER10
 62
     1
  6
CONTINUOUS
 10
10.9964
 20
-0.4150
  0
VERTEX
  8
LAYER10
 62
     1
  6
CONTINUOUS
 10
10.9961
 20
-0.4123
  0
VERTEX
  8
LAYER10
 62
     1
  6
CONTINUOUS
 10
10.9958
 20
-0.4097
  0
VERTEX
  8
LAYER10
 62
     1
  6
CONTINUOUS
 10
10.9955
 20
-0.4067
  0
VERTEX
  8
LAYER10
 62
     1
  6
CONTINUOUS
 10
10.9951
 20
-0.4037
  0
VERTEX
  8
LAYER10
 62
     1
  6
CONTINUOUS
 10
10.9948
 20
-0.4008
  0
VERTEX
  8
LAYER10
 62
     1
  6
CONTINUOUS
 10
10.9946
 20
-0.3978
  0
VERTEX
  8
LAYER10
 62
     1
  6
CONTINUOUS
 10
10.9944
 20
-0.3948
  0
VERTEX
  8
LAYER10
 62
     1
  6
CONTINUOUS
 10
10.9942
 20
-0.3918
  0
VERTEX
  8
LAYER10
 62
     1
  6
CONTINUOUS
 10
10.9942
 20
-0.3888
  0
VERTEX
  8
LAYER10
 62
     1
  6
CONTINUOUS
 10
10.9942
 20
-0.3859
  0
VERTEX
  8
LAYER10
 62
     1
  6
CONTINUOUS
 10
10.9944
 20
-0.3829
  0
VERTEX
  8
LAYER10
 62
     1
  6
CONTINUOUS
 10
10.9947
 20
-0.3800
  0
VERTEX
  8
LAYER10
 62
     1
  6
CONTINUOUS
 10
10.9951
 20
-0.3771
  0
VERTEX
  8
LAYER10
 62
     1
  6
CONTINUOUS
 10
10.9957
 20
-0.3741
  0
VERTEX
  8
LAYER10
 62
     1
  6
CONTINUOUS
 10
10.9965
 20
-0.3711
  0
VERTEX
  8
LAYER10
 62
     1
  6
CONTINUOUS
 10
10.9975
 20
-0.3682
  0
VERTEX
  8
LAYER10
 62
     1
  6
CONTINUOUS
 10
10.9987
 20
-0.3653
  0
VERTEX
  8
LAYER10
 62
     1
  6
CONTINUOUS
 10
11.0000
 20
-0.3624
  0
VERTEX
  8
LAYER10
 62
     1
  6
CONTINUOUS
 10
11.0015
 20
-0.3597
  0
VERTEX
  8
LAYER10
 62
     1
  6
CONTINUOUS
 10
11.0031
 20
-0.3570
  0
VERTEX
  8
LAYER10
 62
     1
  6
CONTINUOUS
 10
11.0049
 20
-0.3544
  0
VERTEX
  8
LAYER10
 62
     1
  6
CONTINUOUS
 10
11.0069
 20
-0.3520
  0
VERTEX
  8
LAYER10
 62
     1
  6
CONTINUOUS
 10
11.0090
 20
-0.3496
  0
VERTEX
  8
LAYER10
 62
     1
  6
CONTINUOUS
 10
11.0112
 20
-0.3475
  0
VERTEX
  8
LAYER10
 62
     1
  6
CONTINUOUS
 10
11.0135
 20
-0.3454
  0
VERTEX
  8
LAYER10
 62
     1
  6
CONTINUOUS
 10
11.0160
 20
-0.3436
  0
VERTEX
  8
LAYER10
 62
     1
  6
CONTINUOUS
 10
11.0169
 20
-0.3429
  0
VERTEX
  8
LAYER10
 62
     1
  6
CONTINUOUS
 10
11.0179
 20
-0.3423
  0
VERTEX
  8
LAYER10
 62
     1
  6
CONTINUOUS
 10
11.0189
 20
-0.3417
  0
VERTEX
  8
LAYER10
 62
     1
  6
CONTINUOUS
 10
11.0200
 20
-0.3411
  0
VERTEX
  8
LAYER10
 62
     1
  6
CONTINUOUS
 10
11.0210
 20
-0.3405
  0
VERTEX
  8
LAYER10
 62
     1
  6
CONTINUOUS
 10
11.0220
 20
-0.3400
  0
VERTEX
  8
LAYER10
 62
     1
  6
CONTINUOUS
 10
11.0231
 20
-0.3395
  0
VERTEX
  8
LAYER10
 62
     1
  6
CONTINUOUS
 10
11.0241
 20
-0.3389
  0
VERTEX
  8
LAYER10
 62
     1
  6
CONTINUOUS
 10
11.0252
 20
-0.3384
  0
VERTEX
  8
LAYER10
 62
     1
  6
CONTINUOUS
 10
11.0262
 20
-0.3379
  0
VERTEX
  8
LAYER10
 62
     1
  6
CONTINUOUS
 10
11.0273
 20
-0.3374
  0
VERTEX
  8
LAYER10
 62
     1
  6
CONTINUOUS
 10
11.0284
 20
-0.3369
  0
SEQEND
  8
LAYER10
  0
POLYLINE
  8
LAYER12
 62
     5
 66
     1
  6
CONTINUOUS
  0
VERTEX
  8
LAYER12
 62
     5
  6
CONTINUOUS
 10
10.0398
 20
0.5436
  0
VERTEX
  8
LAYER12
 62
     5
  6
CONTINUOUS
 10
10.0398
 20
0.5436
  0
SEQEND
  8
LAYER12
  0
POLYLINE
  8
LAYER12
 62
     5
 66
     1
  6
CONTINUOUS
  0
VERTEX
  8
LAYER12
 62
     5
  6
CONTINUOUS
 10
10.0398
 20
0.5436
  0
VERTEX
  8
LAYER12
 62
     5
  6
CONTINUOUS
 10
10.0398
 20
0.5436
  0
SEQEND
  8
LAYER12
  0
POLYLINE
  8
LAYER12
 62
     5
 66
     1
  6
CONTINUOUS
  0
VERTEX
  8
LAYER12
 62
     5
  6
CONTINUOUS
 10
10.0428
 20
0.5426
  0
VERTEX
  8
LAYER12
 62
     5
  6
CONTINUOUS
 10
10.0428
 20
0.5426
  0
SEQEND
  8
LAYER12
  0
POLYLINE
  8
LAYER12
 62
     5
 66
     1
  6
CONTINUOUS
  0
VERTEX
  8
LAYER12
 62
     5
  6
CONTINUOUS
 10
10.0398
 20
-0.4393
  0
VERTEX
  8
LAYER12
 62
     5
  6
CONTINUOUS
 10
10.0398
 20
-0.4393
  0
SEQEND
  8
LAYER12
  0
POLYLINE
  8
LAYER12
 62
     5
 66
     1
  6
CONTINUOUS
  0
VERTEX
  8
LAYER12
 62
     5
  6
CONTINUOUS
 10
10.0398
 20
-0.4393
  0
VERTEX
  8
LAYER12
 62
     5
  6
CONTINUOUS
 10
10.0398
 20
-0.4393
  0
SEQEND
  8
LAYER12
  0
POLYLINE
  8
LAYER12
 62
     5
 66
     1
  6
CONTINUOUS
  0
VERTEX
  8
LAYER12
 62
     5
  6
CONTINUOUS
 10
10.0428
 20
0.5426
  0
VERTEX
  8
LAYER12
 62
     5
  6
CONTINUOUS
 10
11.0248
 20
0.5426
  0
SEQEND
  8
LAYER12
  0
POLYLINE
  8
LAYER12
 62
     5
 66
     1
  6
CONTINUOUS
  0
VERTEX
  8
LAYER12
 62
     5
  6
CONTINUOUS
 10
11.0284
 20
-0.4411
  0
VERTEX
  8
LAYER12
 62
     5
  6
CONTINUOUS
 10
10.0428
 20
-0.4411
  0
SEQEND
  8
LAYER12
  0
POLYLINE
  8
LAYER12
 62
     5
 66
     1
  6
CONTINUOUS
  0
VERTEX
  8
LAYER12
 62
     5
  6
CONTINUOUS
 10
10.0428
 20
-0.4411
  0
VERTEX
  8
LAYER12
 62
     5
  6
CONTINUOUS
 10
10.0398
 20
-0.4411
  0
SEQEND
  8
LAYER12
  0
POLYLINE
  8
LAYER12
 62
     5
 66
     1
  6
CONTINUOUS
  0
VERTEX
  8
LAYER12
 62
     5
  6
CONTINUOUS
 10
10.0398
 20
-0.4411
  0
VERTEX
  8
LAYER12
 62
     5
  6
CONTINUOUS
 10
10.0388
 20
-0.4411
  0
SEQEND
  8
LAYER12
  0
POLYLINE
  8
LAYER12
 62
     5
 66
     1
  6
CONTINUOUS
  0
VERTEX
  8
LAYER12
 62
     5
  6
CONTINUOUS
 10
10.0398
 20
-0.4393
  0
VERTEX
  8
LAYER12
 62
     5
  6
CONTINUOUS
 10
10.0398
 20
-0.4411
  0
SEQEND
  8
LAYER12
  0
POLYLINE
  8
LAYER12
 62
     5
 66
     1
  6
CONTINUOUS
  0
VERTEX
  8
LAYER12
 62
     5
  6
CONTINUOUS
 10
11.0248
 20
0.5426
  0
VERTEX
  8
LAYER12
 62
     5
  6
CONTINUOUS
 10
11.0284
 20
0.5426
  0
SEQEND
  8
LAYER12
  0
POLYLINE
  8
LAYER12
 62
     5
 66
     1
  6
CONTINUOUS
  0
VERTEX
  8
LAYER12
 62
     5
  6
CONTINUOUS
 10
10.0398
 20
0.5436
  0
VERTEX
  8
LAYER12
 62
     5
  6
CONTINUOUS
 10
10.0398
 20
0.5403
  0
SEQEND
  8
LAYER12
  0
POLYLINE
  8
LAYER12
 62
     5
 66
     1
  6
CONTINUOUS
  0
VERTEX
  8
LAYER12
 62
     5
  6
CONTINUOUS
 10
10.0398
 20
0.5403
  0
VERTEX
  8
LAYER12
 62
     5
  6
CONTINUOUS
 10
10.0398
 20
-0.4393
  0
SEQEND
  8
LAYER12
  0
POLYLINE
  8
LAYER12
 62
     5
 66
     1
  6
CONTINUOUS
  0
VERTEX
  8
LAYER12
 62
     5
  6
CONTINUOUS
 10
10.0398
 20
0.5426
  0
VERTEX
  8
LAYER12
 62
     5
  6
CONTINUOUS
 10
10.0428
 20
0.5426
  0
SEQEND
  8
LAYER12
  0
POLYLINE
  8
LAYER12
 62
     5
 66
     1
  6
CONTINUOUS
  0
VERTEX
  8
LAYER12
 62
     5
  6
CONTINUOUS
 10
10.0398
 20
0.5439
  0
VERTEX
  8
LAYER12
 62
     5
  6
CONTINUOUS
 10
10.0398
 20
0.5436
  0
SEQEND
  8
LAYER12
  0
POLYLINE
  8
LAYER12
 62
     5
 66
     1
  6
CONTINUOUS
  0
VERTEX
  8
LAYER12
 62
     5
  6
CONTINUOUS
 10
11.0235
 20
-0.4411
  0
VERTEX
  8
LAYER12
 62
     5
  6
CONTINUOUS
 10
11.0235
 20
0.5403
  0
SEQEND
  8
LAYER12
  0
POLYLINE
  8
LAYER12
 62
     5
 66
     1
  6
CONTINUOUS
  0
VERTEX
  8
LAYER12
 62
     5
  6
CONTINUOUS
 10
11.0235
 20
0.5403
  0
VERTEX
  8
LAYER12
 62
     5
  6
CONTINUOUS
 10
11.0235
 20
0.5439
  0
SEQEND
  8
LAYER12
  0
ENDSEC
  0
EOF
