  0
SECTION
  2
HEADER
  9
$ACADVER
  1
AC1004
  9
$EXTMIN
 10
6.0657
 20
-0.4418
  9
$EXTMAX
 10
7.0493
 20
0.5426
  9
$LIMMIN
 10
6.0657
 20
-0.4418
  9
$LIMMAX
 10
7.0493
 20
0.5426
  9
$INSBASE
 10
0.0
 20
0.0
  9
$VIEWCTR
 10
7.21903
 20
4.5
  9
$VIEWSIZE
 40
9.0
  9
$SNAPMODE
 70
     0
  9
$SNAPUNIT
 10
1.0
 20
1.0
  9
$SNAPBASE
 10
0.0
 20
0.0
  9
$SNAPANG
 50
0.0
  9
$SNAPSTYLE
 70
     0
  9
$SNAPISOPAIR
 70
     0
  9
$GRIDMODE
 70
     0
  9
$GRIDUNIT
 10
0.0
 20
0.0
  9
$ORTHOMODE
 70
     0
  9
$REGENMODE
 70
     1
  9
$FILLMODE
 70
     1
  9
$QTEXTMODE
 70
     0
  9
$DRAGMODE
 70
     2
  9
$LTSCALE
 40
1.0
  9
$OSMODE
 70
     0
  9
$ATTMODE
 70
     1
  9
$TEXTSIZE
 40
0.2
  9
$TRACEWID
 40
0.05
  9
$TEXTSTYLE
  7
STANDARD
  9
$CLAYER
  8
0
  9
$CELTYPE
  6
BYLAYER
  9
$CECOLOR
 62
   256
  9
$DIMSCALE
 40
1.0
  9
$DIMASZ
 40
0.18
  9
$DIMEXO
 40
0.0625
  9
$DIMDLI
 40
0.38
  9
$DIMRND
 40
0.0
  9
$DIMDLE
 40
0.0
  9
$DIMEXE
 40
0.18
  9
$DIMTP
 40
0.0
  9
$DIMTM
 40
0.0
  9
$DIMTXT
 40
0.18
  9
$DIMCEN
 40
0.09
  9
$DIMTSZ
 40
0.0
  9
$DIMTOL
 70
     0
  9
$DIMLIM
 70
     0
  9
$DIMTIH
 70
     1
  9
$DIMTOH
 70
     1
  9
$DIMSE1
 70
     0
  9
$DIMSE2
 70
     0
  9
$DIMTAD
 70
     0
  9
$DIMZIN
 70
     0
  9
$DIMBLK
  1

  9
$DIMASO
 70
     1
  9
$DIMSHO
 70
     0
  9
$DIMPOST
  1

  9
$DIMAPOST
  1

  9
$DIMALT
 70
     0
  9
$DIMALTD
 70
     2
  9
$DIMALTF
 40
25.4
  9
$DIMLFAC
 40
1.0
  9
$LUNITS
 70
     2
  9
$LUPREC
 70
     4
  9
$AXISMODE
 70
     0
  9
$AXISUNIT
 10
0.0
 20
0.0
  9
$SKETCHINC
 40
0.1
  9
$FILLETRAD
 40
0.0
  9
$AUNITS
 70
     0
  9
$AUPREC
 70
     0
  9
$MENU
  1
acad
  9
$ELEVATION
 40
0.0
  9
$THICKNESS
 40
0.0
  9
$VIEWDIR
 10
0.0
 20
0.0
 30
1.0
  9
$LIMCHECK
 70
     0
  9
$BLIPMODE
 70
     1
  9
$CHAMFERA
 40
0.0
  9
$CHAMFERB
 40
0.0
  9
$FASTZOOM
 70
     1
  9
$SKPOLY
 70
     0
  9
$TDCREATE
 40
2447222.5666886573
  9
$TDUPDATE
 40
2447222.5666886573
  9
$TDINDWG
 40
0.0000000000
  9
$TDUSRTIMER
 40
0.0000000000
  9
$USRTIMER
 70
     1
  9
$ANGBASE
 50
0.0
  9
$ANGDIR
 70
     0
  9
$PDMODE
 70
     0
  9
$PDSIZE
 40
0.0
  9
$PLINEWID
 40
0.0
  9
$COORDS
 70
     0
  9
$SPLFRAME
 70
     0
  9
$SPLINESEGS
 70
     8
  9
$ATTDIA
 70
     0
  9
$ATTREQ
 70
     1
  9
$USERI1
 70
     0
  9
$USERI2
 70
     0
  9
$USERI3
 70
     0
  9
$USERI4
 70
     0
  9
$USERI5
 70
     0
  9
$USERR1
 40
0.0
  9
$USERR2
 40
0.0
  9
$USERR3
 40
0.0
  9
$USERR4
 40
0.0
  9
$USERR5
 40
0.0
  0
ENDSEC
  0
SECTION
  2
TABLES
  0
TABLE
  2
LTYPE
 70
     13
  0
LTYPE
  2
CONTINUOUS
 70
    64
  3
Solid line
 72
    65
 73
     0
 40
0.0
  0
LTYPE
  2
DASHED
 70
    64
  3
__ __ __ __ __ __ __ __ __ __ __ __ __ __ __
 72
    65
 73
     2
 40
0.75
 49
0.5
 49
-0.25
  0
LTYPE
  2
HIDDEN
 70
    64
  3
_ _ _ _ _ _ _ _ _ _ _ _ _ _ _ _ _ _ _ _ _ _ _
 72
    65
 73
     2
 40
0.375
 49
0.25
 49
-0.125
  0
LTYPE
  2
CENTER
 70
    64
  3
____ _ ____ _ ____ _ ____ _ ____ _ ____ _ ____
 72
    65
 73
     4
 40
2.0
 49
1.25
 49
-0.25
 49
0.25
 49
-0.25
  0
LTYPE
  2
PHANTOM
 70
    64
  3
_____ _ _ _____ _ _ _____ _ _ _____ _ _ ____
 72
    65
 73
     6
 40
2.5
 49
1.25
 49
-0.25
 49
0.25
 49
-0.25
 49
0.25
 49
-0.25
  0
LTYPE
  2
DOT
 70
    64
  3
...............................................
 72
    65
 73
     2
 40
0.25
 49
0.0
 49
-0.25
  0
LTYPE
  2
DASHDOT
 70
    64
  3
__ . __ . __ . __ . __ . __ . __ . __ . __ . __
 72
    65
 73
     4
 40
1.0
 49
0.5
 49
-0.25
 49
0.0
 49
-0.25
  0
LTYPE
  2
BORDER
 70
    64
  3
__ __ . __ __ . __ __ . __ __ . __ __ . __ __
 72
    65
 73
     6
 40
1.75
 49
0.5
 49
-0.25
 49
0.5
 49
-0.25
 49
0.0
 49
-0.25
  0
LTYPE
  2
DIVIDE
 70
    64
  3
__ . . __ . . __ . . __ . . __ . . __ . . __
 72
    65
 73
     6
 40
1.25
 49
0.5
 49
-0.25
 49
0.0
 49
-0.25
 49
0.0
 49
-0.25
  0
LTYPE
  2
DCTYPE1
 70
    64
  3
__ . . __ . . __ . . __ . . __ . . __ . . __
 72
    65
 73
     8
 40
2.5
 49
0.5
 49
-0.25
 49
0.125
 49
-0.25
 49
0.25
 49
-0.25
 49
0.125
 49
-0.25
  0
LTYPE
  2
DCTYPE2
 70
    64
  3
__ . . __ . . __ . . __ . . __ . . __ . . __
 72
    65
 73
     6
 40
2.05
 49
1.0
 49
-0.3
 49
0.15
 49
-0.15
 49
0.15
 49
-0.3
  0
LTYPE
  2
DCTYPE3
 70
    64
  3
__ . . __ . . __ . . __ . . __ . . __ . . __
 72
    65
 73
     6
 40
2.5
 49
0.8
 49
-0.2
 49
0.8
 49
-0.2
 49
0.3
 49
-0.2
  0
LTYPE
  2
DCTYPE4
 70
    64
  3
__ . . __ . . __ . . __ . . __ . . __ . . __
 72
    65
 73
     10
 40
3.97
 49
1.75
 49
-0.3
 49
0.3
 49
-0.3
 49
0.06
 49
-0.3
 49
0.06
 49
-0.3
 49
0.3
 49
-0.3
  0
ENDTAB
  0
TABLE
  2
LAYER
 70
    153
  0
LAYER
  2
LAYER1
 70
 64
 62
     7
  6
CONTINUOUS
  0
LAYER
  2
LAYER10
 70
 64
 62
     1
  6
CONTINUOUS
  0
LAYER
  2
LAYER12
 70
 64
 62
     5
  6
CONTINUOUS
  0
ENDTAB
  0
ENDSEC
  0
SECTION
  2
BLOCKS
  0
ENDSEC
  0
SECTION
  2
ENTITIES
  0
CIRCLE
  8
LAYER1
 62
     7
  6
CONTINUOUS
 10
6.1011
 20
0.3681
 40
0.0209
  0
CIRCLE
  8
LAYER1
 62
     7
  6
CONTINUOUS
 10
6.2838
 20
0.3017
 40
0.0203
  0
CIRCLE
  8
LAYER1
 62
     7
  6
CONTINUOUS
 10
6.1820
 20
0.1978
 40
0.0217
  0
CIRCLE
  8
LAYER1
 62
     7
  6
CONTINUOUS
 10
6.6806
 20
-0.3105
 40
0.0216
  0
CIRCLE
  8
LAYER1
 62
     7
  6
CONTINUOUS
 10
6.6515
 20
0.0238
 40
0.0191
  0
CIRCLE
  8
LAYER1
 62
     7
  6
CONTINUOUS
 10
6.4277
 20
0.0255
 40
0.0201
  0
CIRCLE
  8
LAYER1
 62
     7
  6
CONTINUOUS
 10
6.3283
 20
-0.4048
 40
0.0128
  0
CIRCLE
  8
LAYER1
 62
     7
  6
CONTINUOUS
 10
6.9359
 20
0.1919
 40
0.0114
  0
CIRCLE
  8
LAYER1
 62
     7
  6
CONTINUOUS
 10
6.9461
 20
0.2584
 40
0.0102
  0
CIRCLE
  8
LAYER1
 62
     7
  6
CONTINUOUS
 10
6.9382
 20
0.4526
 40
0.0155
  0
CIRCLE
  8
LAYER1
 62
     7
  6
CONTINUOUS
 10
7.0149
 20
0.4808
 40
0.0181
  0
CIRCLE
  8
LAYER1
 62
     7
  6
CONTINUOUS
 10
6.5521
 20
0.1346
 40
0.0143
  0
CIRCLE
  8
LAYER1
 62
     7
  6
CONTINUOUS
 10
6.6172
 20
0.1961
 40
0.0253
  0
CIRCLE
  8
LAYER1
 62
     7
  6
CONTINUOUS
 10
6.7625
 20
0.3343
 40
0.0304
  0
CIRCLE
  8
LAYER1
 62
     7
  6
CONTINUOUS
 10
6.6661
 20
0.3560
 40
0.0136
  0
CIRCLE
  8
LAYER1
 62
     7
  6
CONTINUOUS
 10
6.5670
 20
0.3929
 40
0.0216
  0
CIRCLE
  8
LAYER1
 62
     7
  6
CONTINUOUS
 10
6.6877
 20
0.4625
 40
0.0129
  0
POLYLINE
  8
LAYER1
 62
     7
 66
     1
  6
CONTINUOUS
  0
VERTEX
  8
LAYER1
 62
     7
  6
CONTINUOUS
 10
6.9580
 20
0.5345
  0
VERTEX
  8
LAYER1
 62
     7
  6
CONTINUOUS
 10
6.9580
 20
0.5345
  0
VERTEX
  8
LAYER1
 62
     7
  6
CONTINUOUS
 10
6.9580
 20
0.5345
  0
VERTEX
  8
LAYER1
 62
     7
  6
CONTINUOUS
 10
6.9580
 20
0.5345
  0
VERTEX
  8
LAYER1
 62
     7
  6
CONTINUOUS
 10
6.9580
 20
0.5345
  0
VERTEX
  8
LAYER1
 62
     7
  6
CONTINUOUS
 10
6.9580
 20
0.5345
  0
VERTEX
  8
LAYER1
 62
     7
  6
CONTINUOUS
 10
6.9580
 20
0.5345
  0
VERTEX
  8
LAYER1
 62
     7
  6
CONTINUOUS
 10
6.9580
 20
0.5345
  0
VERTEX
  8
LAYER1
 62
     7
  6
CONTINUOUS
 10
6.9580
 20
0.5345
  0
VERTEX
  8
LAYER1
 62
     7
  6
CONTINUOUS
 10
6.9580
 20
0.5345
  0
VERTEX
  8
LAYER1
 62
     7
  6
CONTINUOUS
 10
6.9580
 20
0.5345
  0
VERTEX
  8
LAYER1
 62
     7
  6
CONTINUOUS
 10
6.9580
 20
0.5345
  0
VERTEX
  8
LAYER1
 62
     7
  6
CONTINUOUS
 10
6.9580
 20
0.5345
  0
VERTEX
  8
LAYER1
 62
     7
  6
CONTINUOUS
 10
6.9580
 20
0.5345
  0
VERTEX
  8
LAYER1
 62
     7
  6
CONTINUOUS
 10
6.9580
 20
0.5345
  0
VERTEX
  8
LAYER1
 62
     7
  6
CONTINUOUS
 10
6.9580
 20
0.5345
  0
VERTEX
  8
LAYER1
 62
     7
  6
CONTINUOUS
 10
6.9580
 20
0.5345
  0
VERTEX
  8
LAYER1
 62
     7
  6
CONTINUOUS
 10
6.9580
 20
0.5345
  0
VERTEX
  8
LAYER1
 62
     7
  6
CONTINUOUS
 10
6.9580
 20
0.5345
  0
VERTEX
  8
LAYER1
 62
     7
  6
CONTINUOUS
 10
6.9580
 20
0.5345
  0
VERTEX
  8
LAYER1
 62
     7
  6
CONTINUOUS
 10
6.9580
 20
0.5345
  0
VERTEX
  8
LAYER1
 62
     7
  6
CONTINUOUS
 10
6.9580
 20
0.5345
  0
VERTEX
  8
LAYER1
 62
     7
  6
CONTINUOUS
 10
6.9580
 20
0.5345
  0
VERTEX
  8
LAYER1
 62
     7
  6
CONTINUOUS
 10
6.9580
 20
0.5345
  0
VERTEX
  8
LAYER1
 62
     7
  6
CONTINUOUS
 10
6.9580
 20
0.5345
  0
SEQEND
  8
LAYER1
  0
ARC
  8
LAYER1
 62
     7
  6
CONTINUOUS
 10
7.0199
 20
0.5473
 40
0.0130
 50
-78.6400
 51
-77.9547
  0
ARC
  8
LAYER1
 62
     7
  6
CONTINUOUS
 10
7.0199
 20
0.5473
 40
0.0130
 50
-102.0452
 51
-78.6400
  0
ARC
  8
LAYER1
 62
     7
  6
CONTINUOUS
 10
7.0199
 20
0.5473
 40
0.0130
 50
-159.0552
 51
-102.0456
  0
POLYLINE
  8
LAYER1
 62
     7
 66
     1
  6
CONTINUOUS
  0
VERTEX
  8
LAYER1
 62
     7
  6
CONTINUOUS
 10
7.0490
 20
0.4716
  0
VERTEX
  8
LAYER1
 62
     7
  6
CONTINUOUS
 10
7.0490
 20
0.4716
  0
VERTEX
  8
LAYER1
 62
     7
  6
CONTINUOUS
 10
7.0490
 20
0.4716
  0
VERTEX
  8
LAYER1
 62
     7
  6
CONTINUOUS
 10
7.0490
 20
0.4716
  0
VERTEX
  8
LAYER1
 62
     7
  6
CONTINUOUS
 10
7.0490
 20
0.4716
  0
VERTEX
  8
LAYER1
 62
     7
  6
CONTINUOUS
 10
7.0490
 20
0.4716
  0
VERTEX
  8
LAYER1
 62
     7
  6
CONTINUOUS
 10
7.0490
 20
0.4716
  0
VERTEX
  8
LAYER1
 62
     7
  6
CONTINUOUS
 10
7.0490
 20
0.4716
  0
VERTEX
  8
LAYER1
 62
     7
  6
CONTINUOUS
 10
7.0490
 20
0.4716
  0
VERTEX
  8
LAYER1
 62
     7
  6
CONTINUOUS
 10
7.0490
 20
0.4716
  0
VERTEX
  8
LAYER1
 62
     7
  6
CONTINUOUS
 10
7.0490
 20
0.4716
  0
VERTEX
  8
LAYER1
 62
     7
  6
CONTINUOUS
 10
7.0490
 20
0.4716
  0
VERTEX
  8
LAYER1
 62
     7
  6
CONTINUOUS
 10
7.0490
 20
0.4716
  0
VERTEX
  8
LAYER1
 62
     7
  6
CONTINUOUS
 10
7.0490
 20
0.4719
  0
VERTEX
  8
LAYER1
 62
     7
  6
CONTINUOUS
 10
7.0490
 20
0.4721
  0
VERTEX
  8
LAYER1
 62
     7
  6
CONTINUOUS
 10
7.0490
 20
0.4723
  0
VERTEX
  8
LAYER1
 62
     7
  6
CONTINUOUS
 10
7.0490
 20
0.4724
  0
VERTEX
  8
LAYER1
 62
     7
  6
CONTINUOUS
 10
7.0490
 20
0.4724
  0
VERTEX
  8
LAYER1
 62
     7
  6
CONTINUOUS
 10
7.0490
 20
0.4724
  0
VERTEX
  8
LAYER1
 62
     7
  6
CONTINUOUS
 10
7.0490
 20
0.4723
  0
VERTEX
  8
LAYER1
 62
     7
  6
CONTINUOUS
 10
7.0490
 20
0.4722
  0
VERTEX
  8
LAYER1
 62
     7
  6
CONTINUOUS
 10
7.0490
 20
0.4721
  0
VERTEX
  8
LAYER1
 62
     7
  6
CONTINUOUS
 10
7.0490
 20
0.4719
  0
VERTEX
  8
LAYER1
 62
     7
  6
CONTINUOUS
 10
7.0490
 20
0.4718
  0
VERTEX
  8
LAYER1
 62
     7
  6
CONTINUOUS
 10
7.0490
 20
0.4716
  0
SEQEND
  8
LAYER1
  0
POLYLINE
  8
LAYER1
 62
     7
 66
     1
  6
CONTINUOUS
  0
VERTEX
  8
LAYER1
 62
     7
  6
CONTINUOUS
 10
7.0490
 20
0.4716
  0
VERTEX
  8
LAYER1
 62
     7
  6
CONTINUOUS
 10
7.0490
 20
0.4716
  0
VERTEX
  8
LAYER1
 62
     7
  6
CONTINUOUS
 10
7.0490
 20
0.4716
  0
VERTEX
  8
LAYER1
 62
     7
  6
CONTINUOUS
 10
7.0490
 20
0.4716
  0
VERTEX
  8
LAYER1
 62
     7
  6
CONTINUOUS
 10
7.0490
 20
0.4716
  0
VERTEX
  8
LAYER1
 62
     7
  6
CONTINUOUS
 10
7.0490
 20
0.4716
  0
VERTEX
  8
LAYER1
 62
     7
  6
CONTINUOUS
 10
7.0490
 20
0.4716
  0
VERTEX
  8
LAYER1
 62
     7
  6
CONTINUOUS
 10
7.0490
 20
0.4716
  0
VERTEX
  8
LAYER1
 62
     7
  6
CONTINUOUS
 10
7.0490
 20
0.4716
  0
VERTEX
  8
LAYER1
 62
     7
  6
CONTINUOUS
 10
7.0490
 20
0.4716
  0
VERTEX
  8
LAYER1
 62
     7
  6
CONTINUOUS
 10
7.0490
 20
0.4716
  0
VERTEX
  8
LAYER1
 62
     7
  6
CONTINUOUS
 10
7.0490
 20
0.4716
  0
VERTEX
  8
LAYER1
 62
     7
  6
CONTINUOUS
 10
7.0490
 20
0.4716
  0
VERTEX
  8
LAYER1
 62
     7
  6
CONTINUOUS
 10
7.0490
 20
0.4716
  0
VERTEX
  8
LAYER1
 62
     7
  6
CONTINUOUS
 10
7.0490
 20
0.4716
  0
VERTEX
  8
LAYER1
 62
     7
  6
CONTINUOUS
 10
7.0490
 20
0.4716
  0
VERTEX
  8
LAYER1
 62
     7
  6
CONTINUOUS
 10
7.0490
 20
0.4716
  0
VERTEX
  8
LAYER1
 62
     7
  6
CONTINUOUS
 10
7.0490
 20
0.4716
  0
VERTEX
  8
LAYER1
 62
     7
  6
CONTINUOUS
 10
7.0490
 20
0.4716
  0
VERTEX
  8
LAYER1
 62
     7
  6
CONTINUOUS
 10
7.0490
 20
0.4716
  0
VERTEX
  8
LAYER1
 62
     7
  6
CONTINUOUS
 10
7.0490
 20
0.4716
  0
VERTEX
  8
LAYER1
 62
     7
  6
CONTINUOUS
 10
7.0490
 20
0.4716
  0
VERTEX
  8
LAYER1
 62
     7
  6
CONTINUOUS
 10
7.0490
 20
0.4716
  0
VERTEX
  8
LAYER1
 62
     7
  6
CONTINUOUS
 10
7.0490
 20
0.4716
  0
VERTEX
  8
LAYER1
 62
     7
  6
CONTINUOUS
 10
7.0490
 20
0.4716
  0
SEQEND
  8
LAYER1
  0
POLYLINE
  8
LAYER1
 62
     7
 66
     1
  6
CONTINUOUS
  0
VERTEX
  8
LAYER1
 62
     7
  6
CONTINUOUS
 10
7.0490
 20
0.4716
  0
VERTEX
  8
LAYER1
 62
     7
  6
CONTINUOUS
 10
7.0490
 20
0.4713
  0
VERTEX
  8
LAYER1
 62
     7
  6
CONTINUOUS
 10
7.0489
 20
0.4710
  0
VERTEX
  8
LAYER1
 62
     7
  6
CONTINUOUS
 10
7.0488
 20
0.4707
  0
VERTEX
  8
LAYER1
 62
     7
  6
CONTINUOUS
 10
7.0488
 20
0.4704
  0
VERTEX
  8
LAYER1
 62
     7
  6
CONTINUOUS
 10
7.0487
 20
0.4701
  0
VERTEX
  8
LAYER1
 62
     7
  6
CONTINUOUS
 10
7.0486
 20
0.4698
  0
VERTEX
  8
LAYER1
 62
     7
  6
CONTINUOUS
 10
7.0485
 20
0.4695
  0
VERTEX
  8
LAYER1
 62
     7
  6
CONTINUOUS
 10
7.0485
 20
0.4692
  0
VERTEX
  8
LAYER1
 62
     7
  6
CONTINUOUS
 10
7.0484
 20
0.4689
  0
VERTEX
  8
LAYER1
 62
     7
  6
CONTINUOUS
 10
7.0483
 20
0.4686
  0
VERTEX
  8
LAYER1
 62
     7
  6
CONTINUOUS
 10
7.0482
 20
0.4684
  0
VERTEX
  8
LAYER1
 62
     7
  6
CONTINUOUS
 10
7.0481
 20
0.4681
  0
VERTEX
  8
LAYER1
 62
     7
  6
CONTINUOUS
 10
7.0474
 20
0.4665
  0
VERTEX
  8
LAYER1
 62
     7
  6
CONTINUOUS
 10
7.0466
 20
0.4649
  0
VERTEX
  8
LAYER1
 62
     7
  6
CONTINUOUS
 10
7.0456
 20
0.4635
  0
VERTEX
  8
LAYER1
 62
     7
  6
CONTINUOUS
 10
7.0445
 20
0.4622
  0
VERTEX
  8
LAYER1
 62
     7
  6
CONTINUOUS
 10
7.0432
 20
0.4609
  0
VERTEX
  8
LAYER1
 62
     7
  6
CONTINUOUS
 10
7.0419
 20
0.4597
  0
VERTEX
  8
LAYER1
 62
     7
  6
CONTINUOUS
 10
7.0405
 20
0.4585
  0
VERTEX
  8
LAYER1
 62
     7
  6
CONTINUOUS
 10
7.0390
 20
0.4573
  0
VERTEX
  8
LAYER1
 62
     7
  6
CONTINUOUS
 10
7.0375
 20
0.4562
  0
VERTEX
  8
LAYER1
 62
     7
  6
CONTINUOUS
 10
7.0359
 20
0.4550
  0
VERTEX
  8
LAYER1
 62
     7
  6
CONTINUOUS
 10
7.0343
 20
0.4539
  0
VERTEX
  8
LAYER1
 62
     7
  6
CONTINUOUS
 10
7.0328
 20
0.4527
  0
VERTEX
  8
LAYER1
 62
     7
  6
CONTINUOUS
 10
7.0306
 20
0.4511
  0
VERTEX
  8
LAYER1
 62
     7
  6
CONTINUOUS
 10
7.0285
 20
0.4494
  0
VERTEX
  8
LAYER1
 62
     7
  6
CONTINUOUS
 10
7.0265
 20
0.4478
  0
VERTEX
  8
LAYER1
 62
     7
  6
CONTINUOUS
 10
7.0244
 20
0.4461
  0
VERTEX
  8
LAYER1
 62
     7
  6
CONTINUOUS
 10
7.0223
 20
0.4445
  0
VERTEX
  8
LAYER1
 62
     7
  6
CONTINUOUS
 10
7.0202
 20
0.4430
  0
VERTEX
  8
LAYER1
 62
     7
  6
CONTINUOUS
 10
7.0182
 20
0.4417
  0
VERTEX
  8
LAYER1
 62
     7
  6
CONTINUOUS
 10
7.0160
 20
0.4404
  0
VERTEX
  8
LAYER1
 62
     7
  6
CONTINUOUS
 10
7.0139
 20
0.4393
  0
VERTEX
  8
LAYER1
 62
     7
  6
CONTINUOUS
 10
7.0117
 20
0.4384
  0
VERTEX
  8
LAYER1
 62
     7
  6
CONTINUOUS
 10
7.0095
 20
0.4378
  0
VERTEX
  8
LAYER1
 62
     7
  6
CONTINUOUS
 10
7.0072
 20
0.4374
  0
VERTEX
  8
LAYER1
 62
     7
  6
CONTINUOUS
 10
7.0051
 20
0.4372
  0
VERTEX
  8
LAYER1
 62
     7
  6
CONTINUOUS
 10
7.0029
 20
0.4373
  0
VERTEX
  8
LAYER1
 62
     7
  6
CONTINUOUS
 10
7.0007
 20
0.4376
  0
VERTEX
  8
LAYER1
 62
     7
  6
CONTINUOUS
 10
6.9984
 20
0.4381
  0
VERTEX
  8
LAYER1
 62
     7
  6
CONTINUOUS
 10
6.9962
 20
0.4388
  0
VERTEX
  8
LAYER1
 62
     7
  6
CONTINUOUS
 10
6.9940
 20
0.4396
  0
VERTEX
  8
LAYER1
 62
     7
  6
CONTINUOUS
 10
6.9918
 20
0.4406
  0
VERTEX
  8
LAYER1
 62
     7
  6
CONTINUOUS
 10
6.9896
 20
0.4418
  0
VERTEX
  8
LAYER1
 62
     7
  6
CONTINUOUS
 10
6.9875
 20
0.4431
  0
VERTEX
  8
LAYER1
 62
     7
  6
CONTINUOUS
 10
6.9855
 20
0.4445
  0
VERTEX
  8
LAYER1
 62
     7
  6
CONTINUOUS
 10
6.9835
 20
0.4460
  0
VERTEX
  8
LAYER1
 62
     7
  6
CONTINUOUS
 10
6.9817
 20
0.4476
  0
VERTEX
  8
LAYER1
 62
     7
  6
CONTINUOUS
 10
6.9798
 20
0.4493
  0
VERTEX
  8
LAYER1
 62
     7
  6
CONTINUOUS
 10
6.9781
 20
0.4511
  0
VERTEX
  8
LAYER1
 62
     7
  6
CONTINUOUS
 10
6.9764
 20
0.4530
  0
VERTEX
  8
LAYER1
 62
     7
  6
CONTINUOUS
 10
6.9748
 20
0.4548
  0
VERTEX
  8
LAYER1
 62
     7
  6
CONTINUOUS
 10
6.9732
 20
0.4567
  0
VERTEX
  8
LAYER1
 62
     7
  6
CONTINUOUS
 10
6.9716
 20
0.4586
  0
VERTEX
  8
LAYER1
 62
     7
  6
CONTINUOUS
 10
6.9700
 20
0.4604
  0
VERTEX
  8
LAYER1
 62
     7
  6
CONTINUOUS
 10
6.9684
 20
0.4621
  0
VERTEX
  8
LAYER1
 62
     7
  6
CONTINUOUS
 10
6.9667
 20
0.4638
  0
VERTEX
  8
LAYER1
 62
     7
  6
CONTINUOUS
 10
6.9650
 20
0.4653
  0
VERTEX
  8
LAYER1
 62
     7
  6
CONTINUOUS
 10
6.9631
 20
0.4667
  0
VERTEX
  8
LAYER1
 62
     7
  6
CONTINUOUS
 10
6.9612
 20
0.4680
  0
VERTEX
  8
LAYER1
 62
     7
  6
CONTINUOUS
 10
6.9604
 20
0.4685
  0
VERTEX
  8
LAYER1
 62
     7
  6
CONTINUOUS
 10
6.9596
 20
0.4689
  0
VERTEX
  8
LAYER1
 62
     7
  6
CONTINUOUS
 10
6.9587
 20
0.4693
  0
VERTEX
  8
LAYER1
 62
     7
  6
CONTINUOUS
 10
6.9579
 20
0.4697
  0
VERTEX
  8
LAYER1
 62
     7
  6
CONTINUOUS
 10
6.9570
 20
0.4701
  0
VERTEX
  8
LAYER1
 62
     7
  6
CONTINUOUS
 10
6.9561
 20
0.4705
  0
VERTEX
  8
LAYER1
 62
     7
  6
CONTINUOUS
 10
6.9553
 20
0.4709
  0
VERTEX
  8
LAYER1
 62
     7
  6
CONTINUOUS
 10
6.9544
 20
0.4713
  0
VERTEX
  8
LAYER1
 62
     7
  6
CONTINUOUS
 10
6.9535
 20
0.4717
  0
VERTEX
  8
LAYER1
 62
     7
  6
CONTINUOUS
 10
6.9527
 20
0.4722
  0
VERTEX
  8
LAYER1
 62
     7
  6
CONTINUOUS
 10
6.9518
 20
0.4726
  0
VERTEX
  8
LAYER1
 62
     7
  6
CONTINUOUS
 10
6.9510
 20
0.4731
  0
VERTEX
  8
LAYER1
 62
     7
  6
CONTINUOUS
 10
6.9488
 20
0.4745
  0
VERTEX
  8
LAYER1
 62
     7
  6
CONTINUOUS
 10
6.9468
 20
0.4761
  0
VERTEX
  8
LAYER1
 62
     7
  6
CONTINUOUS
 10
6.9450
 20
0.4778
  0
VERTEX
  8
LAYER1
 62
     7
  6
CONTINUOUS
 10
6.9432
 20
0.4798
  0
VERTEX
  8
LAYER1
 62
     7
  6
CONTINUOUS
 10
6.9416
 20
0.4818
  0
VERTEX
  8
LAYER1
 62
     7
  6
CONTINUOUS
 10
6.9402
 20
0.4840
  0
VERTEX
  8
LAYER1
 62
     7
  6
CONTINUOUS
 10
6.9389
 20
0.4863
  0
VERTEX
  8
LAYER1
 62
     7
  6
CONTINUOUS
 10
6.9379
 20
0.4886
  0
VERTEX
  8
LAYER1
 62
     7
  6
CONTINUOUS
 10
6.9370
 20
0.4911
  0
VERTEX
  8
LAYER1
 62
     7
  6
CONTINUOUS
 10
6.9363
 20
0.4936
  0
VERTEX
  8
LAYER1
 62
     7
  6
CONTINUOUS
 10
6.9358
 20
0.4961
  0
VERTEX
  8
LAYER1
 62
     7
  6
CONTINUOUS
 10
6.9356
 20
0.4986
  0
VERTEX
  8
LAYER1
 62
     7
  6
CONTINUOUS
 10
6.9356
 20
0.5010
  0
VERTEX
  8
LAYER1
 62
     7
  6
CONTINUOUS
 10
6.9358
 20
0.5033
  0
VERTEX
  8
LAYER1
 62
     7
  6
CONTINUOUS
 10
6.9361
 20
0.5056
  0
VERTEX
  8
LAYER1
 62
     7
  6
CONTINUOUS
 10
6.9366
 20
0.5079
  0
VERTEX
  8
LAYER1
 62
     7
  6
CONTINUOUS
 10
6.9373
 20
0.5102
  0
VERTEX
  8
LAYER1
 62
     7
  6
CONTINUOUS
 10
6.9382
 20
0.5124
  0
VERTEX
  8
LAYER1
 62
     7
  6
CONTINUOUS
 10
6.9391
 20
0.5145
  0
VERTEX
  8
LAYER1
 62
     7
  6
CONTINUOUS
 10
6.9403
 20
0.5166
  0
VERTEX
  8
LAYER1
 62
     7
  6
CONTINUOUS
 10
6.9415
 20
0.5186
  0
VERTEX
  8
LAYER1
 62
     7
  6
CONTINUOUS
 10
6.9428
 20
0.5206
  0
VERTEX
  8
LAYER1
 62
     7
  6
CONTINUOUS
 10
6.9443
 20
0.5224
  0
VERTEX
  8
LAYER1
 62
     7
  6
CONTINUOUS
 10
6.9458
 20
0.5242
  0
VERTEX
  8
LAYER1
 62
     7
  6
CONTINUOUS
 10
6.9467
 20
0.5252
  0
VERTEX
  8
LAYER1
 62
     7
  6
CONTINUOUS
 10
6.9477
 20
0.5261
  0
VERTEX
  8
LAYER1
 62
     7
  6
CONTINUOUS
 10
6.9486
 20
0.5271
  0
VERTEX
  8
LAYER1
 62
     7
  6
CONTINUOUS
 10
6.9496
 20
0.5280
  0
VERTEX
  8
LAYER1
 62
     7
  6
CONTINUOUS
 10
6.9507
 20
0.5288
  0
VERTEX
  8
LAYER1
 62
     7
  6
CONTINUOUS
 10
6.9517
 20
0.5297
  0
VERTEX
  8
LAYER1
 62
     7
  6
CONTINUOUS
 10
6.9527
 20
0.5305
  0
VERTEX
  8
LAYER1
 62
     7
  6
CONTINUOUS
 10
6.9538
 20
0.5313
  0
VERTEX
  8
LAYER1
 62
     7
  6
CONTINUOUS
 10
6.9548
 20
0.5322
  0
VERTEX
  8
LAYER1
 62
     7
  6
CONTINUOUS
 10
6.9559
 20
0.5330
  0
VERTEX
  8
LAYER1
 62
     7
  6
CONTINUOUS
 10
6.9570
 20
0.5338
  0
VERTEX
  8
LAYER1
 62
     7
  6
CONTINUOUS
 10
6.9580
 20
0.5345
  0
SEQEND
  8
LAYER1
  0
POLYLINE
  8
LAYER1
 62
     7
 66
     1
  6
CONTINUOUS
  0
VERTEX
  8
LAYER1
 62
     7
  6
CONTINUOUS
 10
6.9580
 20
0.5345
  0
VERTEX
  8
LAYER1
 62
     7
  6
CONTINUOUS
 10
6.9593
 20
0.5355
  0
VERTEX
  8
LAYER1
 62
     7
  6
CONTINUOUS
 10
6.9605
 20
0.5364
  0
VERTEX
  8
LAYER1
 62
     7
  6
CONTINUOUS
 10
6.9617
 20
0.5373
  0
VERTEX
  8
LAYER1
 62
     7
  6
CONTINUOUS
 10
6.9629
 20
0.5381
  0
VERTEX
  8
LAYER1
 62
     7
  6
CONTINUOUS
 10
6.9640
 20
0.5390
  0
VERTEX
  8
LAYER1
 62
     7
  6
CONTINUOUS
 10
6.9650
 20
0.5397
  0
VERTEX
  8
LAYER1
 62
     7
  6
CONTINUOUS
 10
6.9659
 20
0.5404
  0
VERTEX
  8
LAYER1
 62
     7
  6
CONTINUOUS
 10
6.9668
 20
0.5411
  0
VERTEX
  8
LAYER1
 62
     7
  6
CONTINUOUS
 10
6.9675
 20
0.5416
  0
VERTEX
  8
LAYER1
 62
     7
  6
CONTINUOUS
 10
6.9681
 20
0.5421
  0
VERTEX
  8
LAYER1
 62
     7
  6
CONTINUOUS
 10
6.9686
 20
0.5424
  0
VERTEX
  8
LAYER1
 62
     7
  6
CONTINUOUS
 10
6.9689
 20
0.5426
  0
VERTEX
  8
LAYER1
 62
     7
  6
CONTINUOUS
 10
6.9689
 20
0.5427
  0
VERTEX
  8
LAYER1
 62
     7
  6
CONTINUOUS
 10
6.9690
 20
0.5427
  0
VERTEX
  8
LAYER1
 62
     7
  6
CONTINUOUS
 10
6.9690
 20
0.5427
  0
VERTEX
  8
LAYER1
 62
     7
  6
CONTINUOUS
 10
6.9690
 20
0.5428
  0
VERTEX
  8
LAYER1
 62
     7
  6
CONTINUOUS
 10
6.9690
 20
0.5428
  0
VERTEX
  8
LAYER1
 62
     7
  6
CONTINUOUS
 10
6.9690
 20
0.5428
  0
VERTEX
  8
LAYER1
 62
     7
  6
CONTINUOUS
 10
6.9690
 20
0.5427
  0
VERTEX
  8
LAYER1
 62
     7
  6
CONTINUOUS
 10
6.9690
 20
0.5427
  0
VERTEX
  8
LAYER1
 62
     7
  6
CONTINUOUS
 10
6.9690
 20
0.5427
  0
VERTEX
  8
LAYER1
 62
     7
  6
CONTINUOUS
 10
6.9689
 20
0.5427
  0
VERTEX
  8
LAYER1
 62
     7
  6
CONTINUOUS
 10
6.9689
 20
0.5427
  0
VERTEX
  8
LAYER1
 62
     7
  6
CONTINUOUS
 10
6.9689
 20
0.5426
  0
SEQEND
  8
LAYER1
  0
POLYLINE
  8
LAYER1
 62
     7
 66
     1
  6
CONTINUOUS
  0
VERTEX
  8
LAYER1
 62
     7
  6
CONTINUOUS
 10
6.9689
 20
0.5426
  0
VERTEX
  8
LAYER1
 62
     7
  6
CONTINUOUS
 10
6.9689
 20
0.5426
  0
VERTEX
  8
LAYER1
 62
     7
  6
CONTINUOUS
 10
6.9689
 20
0.5426
  0
VERTEX
  8
LAYER1
 62
     7
  6
CONTINUOUS
 10
6.9689
 20
0.5426
  0
VERTEX
  8
LAYER1
 62
     7
  6
CONTINUOUS
 10
6.9689
 20
0.5426
  0
VERTEX
  8
LAYER1
 62
     7
  6
CONTINUOUS
 10
6.9689
 20
0.5426
  0
VERTEX
  8
LAYER1
 62
     7
  6
CONTINUOUS
 10
6.9689
 20
0.5426
  0
VERTEX
  8
LAYER1
 62
     7
  6
CONTINUOUS
 10
6.9689
 20
0.5426
  0
VERTEX
  8
LAYER1
 62
     7
  6
CONTINUOUS
 10
6.9689
 20
0.5426
  0
VERTEX
  8
LAYER1
 62
     7
  6
CONTINUOUS
 10
6.9689
 20
0.5426
  0
VERTEX
  8
LAYER1
 62
     7
  6
CONTINUOUS
 10
6.9689
 20
0.5426
  0
VERTEX
  8
LAYER1
 62
     7
  6
CONTINUOUS
 10
6.9689
 20
0.5426
  0
VERTEX
  8
LAYER1
 62
     7
  6
CONTINUOUS
 10
6.9689
 20
0.5426
  0
VERTEX
  8
LAYER1
 62
     7
  6
CONTINUOUS
 10
6.9689
 20
0.5426
  0
VERTEX
  8
LAYER1
 62
     7
  6
CONTINUOUS
 10
6.9689
 20
0.5426
  0
VERTEX
  8
LAYER1
 62
     7
  6
CONTINUOUS
 10
6.9689
 20
0.5426
  0
VERTEX
  8
LAYER1
 62
     7
  6
CONTINUOUS
 10
6.9689
 20
0.5426
  0
VERTEX
  8
LAYER1
 62
     7
  6
CONTINUOUS
 10
6.9689
 20
0.5426
  0
VERTEX
  8
LAYER1
 62
     7
  6
CONTINUOUS
 10
6.9689
 20
0.5426
  0
VERTEX
  8
LAYER1
 62
     7
  6
CONTINUOUS
 10
6.9689
 20
0.5426
  0
VERTEX
  8
LAYER1
 62
     7
  6
CONTINUOUS
 10
6.9689
 20
0.5426
  0
VERTEX
  8
LAYER1
 62
     7
  6
CONTINUOUS
 10
6.9689
 20
0.5426
  0
VERTEX
  8
LAYER1
 62
     7
  6
CONTINUOUS
 10
6.9689
 20
0.5426
  0
VERTEX
  8
LAYER1
 62
     7
  6
CONTINUOUS
 10
6.9689
 20
0.5426
  0
VERTEX
  8
LAYER1
 62
     7
  6
CONTINUOUS
 10
6.9689
 20
0.5426
  0
SEQEND
  8
LAYER1
  0
POLYLINE
  8
LAYER1
 62
     7
 66
     1
  6
CONTINUOUS
  0
VERTEX
  8
LAYER1
 62
     7
  6
CONTINUOUS
 10
6.9689
 20
0.5426
  0
VERTEX
  8
LAYER1
 62
     7
  6
CONTINUOUS
 10
6.9689
 20
0.5426
  0
VERTEX
  8
LAYER1
 62
     7
  6
CONTINUOUS
 10
6.9689
 20
0.5426
  0
VERTEX
  8
LAYER1
 62
     7
  6
CONTINUOUS
 10
6.9689
 20
0.5426
  0
VERTEX
  8
LAYER1
 62
     7
  6
CONTINUOUS
 10
6.9689
 20
0.5426
  0
VERTEX
  8
LAYER1
 62
     7
  6
CONTINUOUS
 10
6.9689
 20
0.5426
  0
VERTEX
  8
LAYER1
 62
     7
  6
CONTINUOUS
 10
6.9689
 20
0.5426
  0
VERTEX
  8
LAYER1
 62
     7
  6
CONTINUOUS
 10
6.9689
 20
0.5426
  0
VERTEX
  8
LAYER1
 62
     7
  6
CONTINUOUS
 10
6.9689
 20
0.5426
  0
VERTEX
  8
LAYER1
 62
     7
  6
CONTINUOUS
 10
6.9689
 20
0.5426
  0
VERTEX
  8
LAYER1
 62
     7
  6
CONTINUOUS
 10
6.9689
 20
0.5426
  0
VERTEX
  8
LAYER1
 62
     7
  6
CONTINUOUS
 10
6.9689
 20
0.5426
  0
VERTEX
  8
LAYER1
 62
     7
  6
CONTINUOUS
 10
6.9689
 20
0.5426
  0
VERTEX
  8
LAYER1
 62
     7
  6
CONTINUOUS
 10
6.9689
 20
0.5426
  0
VERTEX
  8
LAYER1
 62
     7
  6
CONTINUOUS
 10
6.9689
 20
0.5426
  0
VERTEX
  8
LAYER1
 62
     7
  6
CONTINUOUS
 10
6.9689
 20
0.5426
  0
VERTEX
  8
LAYER1
 62
     7
  6
CONTINUOUS
 10
6.9689
 20
0.5426
  0
VERTEX
  8
LAYER1
 62
     7
  6
CONTINUOUS
 10
6.9689
 20
0.5426
  0
VERTEX
  8
LAYER1
 62
     7
  6
CONTINUOUS
 10
6.9689
 20
0.5426
  0
VERTEX
  8
LAYER1
 62
     7
  6
CONTINUOUS
 10
6.9689
 20
0.5426
  0
VERTEX
  8
LAYER1
 62
     7
  6
CONTINUOUS
 10
6.9689
 20
0.5426
  0
VERTEX
  8
LAYER1
 62
     7
  6
CONTINUOUS
 10
6.9689
 20
0.5426
  0
VERTEX
  8
LAYER1
 62
     7
  6
CONTINUOUS
 10
6.9689
 20
0.5426
  0
VERTEX
  8
LAYER1
 62
     7
  6
CONTINUOUS
 10
6.9689
 20
0.5426
  0
VERTEX
  8
LAYER1
 62
     7
  6
CONTINUOUS
 10
6.9689
 20
0.5426
  0
SEQEND
  8
LAYER1
  0
ARC
  8
LAYER1
 62
     7
  6
CONTINUOUS
 10
7.0199
 20
0.5473
 40
0.0130
 50
-77.9548
 51
-20.9451
  0
POLYLINE
  8
LAYER10
 62
     1
 66
     1
  6
CONTINUOUS
  0
VERTEX
  8
LAYER10
 62
     1
  6
CONTINUOUS
 10
6.4815
 20
-0.4380
  0
VERTEX
  8
LAYER10
 62
     1
  6
CONTINUOUS
 10
6.4812
 20
-0.4382
  0
VERTEX
  8
LAYER10
 62
     1
  6
CONTINUOUS
 10
6.4809
 20
-0.4384
  0
VERTEX
  8
LAYER10
 62
     1
  6
CONTINUOUS
 10
6.4805
 20
-0.4386
  0
VERTEX
  8
LAYER10
 62
     1
  6
CONTINUOUS
 10
6.4802
 20
-0.4387
  0
VERTEX
  8
LAYER10
 62
     1
  6
CONTINUOUS
 10
6.4799
 20
-0.4389
  0
VERTEX
  8
LAYER10
 62
     1
  6
CONTINUOUS
 10
6.4796
 20
-0.4391
  0
VERTEX
  8
LAYER10
 62
     1
  6
CONTINUOUS
 10
6.4793
 20
-0.4392
  0
VERTEX
  8
LAYER10
 62
     1
  6
CONTINUOUS
 10
6.4791
 20
-0.4394
  0
VERTEX
  8
LAYER10
 62
     1
  6
CONTINUOUS
 10
6.4788
 20
-0.4395
  0
VERTEX
  8
LAYER10
 62
     1
  6
CONTINUOUS
 10
6.4786
 20
-0.4396
  0
VERTEX
  8
LAYER10
 62
     1
  6
CONTINUOUS
 10
6.4784
 20
-0.4397
  0
VERTEX
  8
LAYER10
 62
     1
  6
CONTINUOUS
 10
6.4783
 20
-0.4398
  0
VERTEX
  8
LAYER10
 62
     1
  6
CONTINUOUS
 10
6.4781
 20
-0.4399
  0
VERTEX
  8
LAYER10
 62
     1
  6
CONTINUOUS
 10
6.4780
 20
-0.4400
  0
VERTEX
  8
LAYER10
 62
     1
  6
CONTINUOUS
 10
6.4779
 20
-0.4400
  0
VERTEX
  8
LAYER10
 62
     1
  6
CONTINUOUS
 10
6.4779
 20
-0.4400
  0
VERTEX
  8
LAYER10
 62
     1
  6
CONTINUOUS
 10
6.4778
 20
-0.4401
  0
VERTEX
  8
LAYER10
 62
     1
  6
CONTINUOUS
 10
6.4779
 20
-0.4400
  0
VERTEX
  8
LAYER10
 62
     1
  6
CONTINUOUS
 10
6.4779
 20
-0.4400
  0
VERTEX
  8
LAYER10
 62
     1
  6
CONTINUOUS
 10
6.4779
 20
-0.4400
  0
VERTEX
  8
LAYER10
 62
     1
  6
CONTINUOUS
 10
6.4780
 20
-0.4400
  0
VERTEX
  8
LAYER10
 62
     1
  6
CONTINUOUS
 10
6.4781
 20
-0.4399
  0
VERTEX
  8
LAYER10
 62
     1
  6
CONTINUOUS
 10
6.4782
 20
-0.4399
  0
VERTEX
  8
LAYER10
 62
     1
  6
CONTINUOUS
 10
6.4783
 20
-0.4398
  0
SEQEND
  8
LAYER10
  0
POLYLINE
  8
LAYER10
 62
     1
 66
     1
  6
CONTINUOUS
  0
VERTEX
  8
LAYER10
 62
     1
  6
CONTINUOUS
 10
6.4544
 20
-0.4398
  0
VERTEX
  8
LAYER10
 62
     1
  6
CONTINUOUS
 10
6.4539
 20
-0.4381
  0
VERTEX
  8
LAYER10
 62
     1
  6
CONTINUOUS
 10
6.4534
 20
-0.4363
  0
VERTEX
  8
LAYER10
 62
     1
  6
CONTINUOUS
 10
6.4529
 20
-0.4346
  0
VERTEX
  8
LAYER10
 62
     1
  6
CONTINUOUS
 10
6.4523
 20
-0.4330
  0
VERTEX
  8
LAYER10
 62
     1
  6
CONTINUOUS
 10
6.4518
 20
-0.4313
  0
VERTEX
  8
LAYER10
 62
     1
  6
CONTINUOUS
 10
6.4511
 20
-0.4298
  0
VERTEX
  8
LAYER10
 62
     1
  6
CONTINUOUS
 10
6.4505
 20
-0.4283
  0
VERTEX
  8
LAYER10
 62
     1
  6
CONTINUOUS
 10
6.4498
 20
-0.4270
  0
VERTEX
  8
LAYER10
 62
     1
  6
CONTINUOUS
 10
6.4490
 20
-0.4257
  0
VERTEX
  8
LAYER10
 62
     1
  6
CONTINUOUS
 10
6.4482
 20
-0.4246
  0
VERTEX
  8
LAYER10
 62
     1
  6
CONTINUOUS
 10
6.4473
 20
-0.4236
  0
VERTEX
  8
LAYER10
 62
     1
  6
CONTINUOUS
 10
6.4464
 20
-0.4228
  0
VERTEX
  8
LAYER10
 62
     1
  6
CONTINUOUS
 10
6.4443
 20
-0.4217
  0
VERTEX
  8
LAYER10
 62
     1
  6
CONTINUOUS
 10
6.4420
 20
-0.4211
  0
VERTEX
  8
LAYER10
 62
     1
  6
CONTINUOUS
 10
6.4395
 20
-0.4210
  0
VERTEX
  8
LAYER10
 62
     1
  6
CONTINUOUS
 10
6.4368
 20
-0.4212
  0
VERTEX
  8
LAYER10
 62
     1
  6
CONTINUOUS
 10
6.4338
 20
-0.4217
  0
VERTEX
  8
LAYER10
 62
     1
  6
CONTINUOUS
 10
6.4308
 20
-0.4225
  0
VERTEX
  8
LAYER10
 62
     1
  6
CONTINUOUS
 10
6.4276
 20
-0.4234
  0
VERTEX
  8
LAYER10
 62
     1
  6
CONTINUOUS
 10
6.4244
 20
-0.4244
  0
VERTEX
  8
LAYER10
 62
     1
  6
CONTINUOUS
 10
6.4211
 20
-0.4254
  0
VERTEX
  8
LAYER10
 62
     1
  6
CONTINUOUS
 10
6.4177
 20
-0.4264
  0
VERTEX
  8
LAYER10
 62
     1
  6
CONTINUOUS
 10
6.4144
 20
-0.4271
  0
VERTEX
  8
LAYER10
 62
     1
  6
CONTINUOUS
 10
6.4112
 20
-0.4277
  0
VERTEX
  8
LAYER10
 62
     1
  6
CONTINUOUS
 10
6.4089
 20
-0.4279
  0
VERTEX
  8
LAYER10
 62
     1
  6
CONTINUOUS
 10
6.4066
 20
-0.4280
  0
VERTEX
  8
LAYER10
 62
     1
  6
CONTINUOUS
 10
6.4043
 20
-0.4280
  0
VERTEX
  8
LAYER10
 62
     1
  6
CONTINUOUS
 10
6.4021
 20
-0.4278
  0
VERTEX
  8
LAYER10
 62
     1
  6
CONTINUOUS
 10
6.4000
 20
-0.4275
  0
VERTEX
  8
LAYER10
 62
     1
  6
CONTINUOUS
 10
6.3979
 20
-0.4271
  0
VERTEX
  8
LAYER10
 62
     1
  6
CONTINUOUS
 10
6.3958
 20
-0.4266
  0
VERTEX
  8
LAYER10
 62
     1
  6
CONTINUOUS
 10
6.3938
 20
-0.4260
  0
VERTEX
  8
LAYER10
 62
     1
  6
CONTINUOUS
 10
6.3918
 20
-0.4252
  0
VERTEX
  8
LAYER10
 62
     1
  6
CONTINUOUS
 10
6.3898
 20
-0.4244
  0
VERTEX
  8
LAYER10
 62
     1
  6
CONTINUOUS
 10
6.3879
 20
-0.4235
  0
VERTEX
  8
LAYER10
 62
     1
  6
CONTINUOUS
 10
6.3860
 20
-0.4226
  0
VERTEX
  8
LAYER10
 62
     1
  6
CONTINUOUS
 10
6.3843
 20
-0.4216
  0
VERTEX
  8
LAYER10
 62
     1
  6
CONTINUOUS
 10
6.3825
 20
-0.4205
  0
VERTEX
  8
LAYER10
 62
     1
  6
CONTINUOUS
 10
6.3808
 20
-0.4194
  0
VERTEX
  8
LAYER10
 62
     1
  6
CONTINUOUS
 10
6.3791
 20
-0.4183
  0
VERTEX
  8
LAYER10
 62
     1
  6
CONTINUOUS
 10
6.3774
 20
-0.4171
  0
VERTEX
  8
LAYER10
 62
     1
  6
CONTINUOUS
 10
6.3758
 20
-0.4158
  0
VERTEX
  8
LAYER10
 62
     1
  6
CONTINUOUS
 10
6.3741
 20
-0.4145
  0
VERTEX
  8
LAYER10
 62
     1
  6
CONTINUOUS
 10
6.3725
 20
-0.4132
  0
VERTEX
  8
LAYER10
 62
     1
  6
CONTINUOUS
 10
6.3709
 20
-0.4118
  0
VERTEX
  8
LAYER10
 62
     1
  6
CONTINUOUS
 10
6.3693
 20
-0.4104
  0
VERTEX
  8
LAYER10
 62
     1
  6
CONTINUOUS
 10
6.3676
 20
-0.4089
  0
VERTEX
  8
LAYER10
 62
     1
  6
CONTINUOUS
 10
6.3660
 20
-0.4074
  0
VERTEX
  8
LAYER10
 62
     1
  6
CONTINUOUS
 10
6.3636
 20
-0.4053
  0
VERTEX
  8
LAYER10
 62
     1
  6
CONTINUOUS
 10
6.3612
 20
-0.4030
  0
VERTEX
  8
LAYER10
 62
     1
  6
CONTINUOUS
 10
6.3589
 20
-0.4007
  0
VERTEX
  8
LAYER10
 62
     1
  6
CONTINUOUS
 10
6.3566
 20
-0.3984
  0
VERTEX
  8
LAYER10
 62
     1
  6
CONTINUOUS
 10
6.3545
 20
-0.3960
  0
VERTEX
  8
LAYER10
 62
     1
  6
CONTINUOUS
 10
6.3525
 20
-0.3935
  0
VERTEX
  8
LAYER10
 62
     1
  6
CONTINUOUS
 10
6.3507
 20
-0.3910
  0
VERTEX
  8
LAYER10
 62
     1
  6
CONTINUOUS
 10
6.3492
 20
-0.3884
  0
VERTEX
  8
LAYER10
 62
     1
  6
CONTINUOUS
 10
6.3479
 20
-0.3857
  0
VERTEX
  8
LAYER10
 62
     1
  6
CONTINUOUS
 10
6.3469
 20
-0.3829
  0
VERTEX
  8
LAYER10
 62
     1
  6
CONTINUOUS
 10
6.3462
 20
-0.3801
  0
VERTEX
  8
LAYER10
 62
     1
  6
CONTINUOUS
 10
6.3460
 20
-0.3772
  0
VERTEX
  8
LAYER10
 62
     1
  6
CONTINUOUS
 10
6.3461
 20
-0.3747
  0
VERTEX
  8
LAYER10
 62
     1
  6
CONTINUOUS
 10
6.3464
 20
-0.3721
  0
VERTEX
  8
LAYER10
 62
     1
  6
CONTINUOUS
 10
6.3469
 20
-0.3696
  0
VERTEX
  8
LAYER10
 62
     1
  6
CONTINUOUS
 10
6.3476
 20
-0.3670
  0
VERTEX
  8
LAYER10
 62
     1
  6
CONTINUOUS
 10
6.3483
 20
-0.3644
  0
VERTEX
  8
LAYER10
 62
     1
  6
CONTINUOUS
 10
6.3491
 20
-0.3618
  0
VERTEX
  8
LAYER10
 62
     1
  6
CONTINUOUS
 10
6.3498
 20
-0.3592
  0
VERTEX
  8
LAYER10
 62
     1
  6
CONTINUOUS
 10
6.3505
 20
-0.3566
  0
VERTEX
  8
LAYER10
 62
     1
  6
CONTINUOUS
 10
6.3510
 20
-0.3541
  0
VERTEX
  8
LAYER10
 62
     1
  6
CONTINUOUS
 10
6.3513
 20
-0.3517
  0
VERTEX
  8
LAYER10
 62
     1
  6
CONTINUOUS
 10
6.3514
 20
-0.3493
  0
VERTEX
  8
LAYER10
 62
     1
  6
CONTINUOUS
 10
6.3511
 20
-0.3470
  0
VERTEX
  8
LAYER10
 62
     1
  6
CONTINUOUS
 10
6.3505
 20
-0.3447
  0
VERTEX
  8
LAYER10
 62
     1
  6
CONTINUOUS
 10
6.3495
 20
-0.3425
  0
VERTEX
  8
LAYER10
 62
     1
  6
CONTINUOUS
 10
6.3482
 20
-0.3404
  0
VERTEX
  8
LAYER10
 62
     1
  6
CONTINUOUS
 10
6.3467
 20
-0.3383
  0
VERTEX
  8
LAYER10
 62
     1
  6
CONTINUOUS
 10
6.3450
 20
-0.3362
  0
VERTEX
  8
LAYER10
 62
     1
  6
CONTINUOUS
 10
6.3431
 20
-0.3342
  0
VERTEX
  8
LAYER10
 62
     1
  6
CONTINUOUS
 10
6.3411
 20
-0.3322
  0
VERTEX
  8
LAYER10
 62
     1
  6
CONTINUOUS
 10
6.3390
 20
-0.3302
  0
VERTEX
  8
LAYER10
 62
     1
  6
CONTINUOUS
 10
6.3369
 20
-0.3282
  0
VERTEX
  8
LAYER10
 62
     1
  6
CONTINUOUS
 10
6.3349
 20
-0.3261
  0
VERTEX
  8
LAYER10
 62
     1
  6
CONTINUOUS
 10
6.3329
 20
-0.3240
  0
VERTEX
  8
LAYER10
 62
     1
  6
CONTINUOUS
 10
6.3311
 20
-0.3218
  0
VERTEX
  8
LAYER10
 62
     1
  6
CONTINUOUS
 10
6.3295
 20
-0.3196
  0
VERTEX
  8
LAYER10
 62
     1
  6
CONTINUOUS
 10
6.3280
 20
-0.3173
  0
VERTEX
  8
LAYER10
 62
     1
  6
CONTINUOUS
 10
6.3266
 20
-0.3149
  0
VERTEX
  8
LAYER10
 62
     1
  6
CONTINUOUS
 10
6.3255
 20
-0.3125
  0
VERTEX
  8
LAYER10
 62
     1
  6
CONTINUOUS
 10
6.3245
 20
-0.3100
  0
VERTEX
  8
LAYER10
 62
     1
  6
CONTINUOUS
 10
6.3236
 20
-0.3075
  0
VERTEX
  8
LAYER10
 62
     1
  6
CONTINUOUS
 10
6.3229
 20
-0.3049
  0
VERTEX
  8
LAYER10
 62
     1
  6
CONTINUOUS
 10
6.3223
 20
-0.3023
  0
VERTEX
  8
LAYER10
 62
     1
  6
CONTINUOUS
 10
6.3218
 20
-0.2997
  0
VERTEX
  8
LAYER10
 62
     1
  6
CONTINUOUS
 10
6.3215
 20
-0.2970
  0
VERTEX
  8
LAYER10
 62
     1
  6
CONTINUOUS
 10
6.3213
 20
-0.2943
  0
VERTEX
  8
LAYER10
 62
     1
  6
CONTINUOUS
 10
6.3212
 20
-0.2916
  0
VERTEX
  8
LAYER10
 62
     1
  6
CONTINUOUS
 10
6.3211
 20
-0.2895
  0
VERTEX
  8
LAYER10
 62
     1
  6
CONTINUOUS
 10
6.3212
 20
-0.2873
  0
VERTEX
  8
LAYER10
 62
     1
  6
CONTINUOUS
 10
6.3213
 20
-0.2851
  0
VERTEX
  8
LAYER10
 62
     1
  6
CONTINUOUS
 10
6.3216
 20
-0.2830
  0
VERTEX
  8
LAYER10
 62
     1
  6
CONTINUOUS
 10
6.3219
 20
-0.2808
  0
VERTEX
  8
LAYER10
 62
     1
  6
CONTINUOUS
 10
6.3222
 20
-0.2787
  0
VERTEX
  8
LAYER10
 62
     1
  6
CONTINUOUS
 10
6.3227
 20
-0.2766
  0
VERTEX
  8
LAYER10
 62
     1
  6
CONTINUOUS
 10
6.3232
 20
-0.2745
  0
VERTEX
  8
LAYER10
 62
     1
  6
CONTINUOUS
 10
6.3239
 20
-0.2725
  0
VERTEX
  8
LAYER10
 62
     1
  6
CONTINUOUS
 10
6.3246
 20
-0.2704
  0
VERTEX
  8
LAYER10
 62
     1
  6
CONTINUOUS
 10
6.3254
 20
-0.2685
  0
VERTEX
  8
LAYER10
 62
     1
  6
CONTINUOUS
 10
6.3263
 20
-0.2665
  0
VERTEX
  8
LAYER10
 62
     1
  6
CONTINUOUS
 10
6.3274
 20
-0.2643
  0
VERTEX
  8
LAYER10
 62
     1
  6
CONTINUOUS
 10
6.3287
 20
-0.2622
  0
VERTEX
  8
LAYER10
 62
     1
  6
CONTINUOUS
 10
6.3300
 20
-0.2601
  0
VERTEX
  8
LAYER10
 62
     1
  6
CONTINUOUS
 10
6.3314
 20
-0.2581
  0
VERTEX
  8
LAYER10
 62
     1
  6
CONTINUOUS
 10
6.3328
 20
-0.2560
  0
VERTEX
  8
LAYER10
 62
     1
  6
CONTINUOUS
 10
6.3342
 20
-0.2540
  0
VERTEX
  8
LAYER10
 62
     1
  6
CONTINUOUS
 10
6.3356
 20
-0.2519
  0
VERTEX
  8
LAYER10
 62
     1
  6
CONTINUOUS
 10
6.3369
 20
-0.2499
  0
VERTEX
  8
LAYER10
 62
     1
  6
CONTINUOUS
 10
6.3382
 20
-0.2478
  0
VERTEX
  8
LAYER10
 62
     1
  6
CONTINUOUS
 10
6.3394
 20
-0.2457
  0
VERTEX
  8
LAYER10
 62
     1
  6
CONTINUOUS
 10
6.3405
 20
-0.2436
  0
VERTEX
  8
LAYER10
 62
     1
  6
CONTINUOUS
 10
6.3415
 20
-0.2414
  0
VERTEX
  8
LAYER10
 62
     1
  6
CONTINUOUS
 10
6.3424
 20
-0.2387
  0
VERTEX
  8
LAYER10
 62
     1
  6
CONTINUOUS
 10
6.3431
 20
-0.2359
  0
VERTEX
  8
LAYER10
 62
     1
  6
CONTINUOUS
 10
6.3437
 20
-0.2331
  0
VERTEX
  8
LAYER10
 62
     1
  6
CONTINUOUS
 10
6.3441
 20
-0.2302
  0
VERTEX
  8
LAYER10
 62
     1
  6
CONTINUOUS
 10
6.3445
 20
-0.2272
  0
VERTEX
  8
LAYER10
 62
     1
  6
CONTINUOUS
 10
6.3447
 20
-0.2242
  0
VERTEX
  8
LAYER10
 62
     1
  6
CONTINUOUS
 10
6.3450
 20
-0.2212
  0
VERTEX
  8
LAYER10
 62
     1
  6
CONTINUOUS
 10
6.3452
 20
-0.2182
  0
VERTEX
  8
LAYER10
 62
     1
  6
CONTINUOUS
 10
6.3454
 20
-0.2152
  0
VERTEX
  8
LAYER10
 62
     1
  6
CONTINUOUS
 10
6.3457
 20
-0.2122
  0
VERTEX
  8
LAYER10
 62
     1
  6
CONTINUOUS
 10
6.3461
 20
-0.2092
  0
VERTEX
  8
LAYER10
 62
     1
  6
CONTINUOUS
 10
6.3466
 20
-0.2062
  0
VERTEX
  8
LAYER10
 62
     1
  6
CONTINUOUS
 10
6.3474
 20
-0.2029
  0
VERTEX
  8
LAYER10
 62
     1
  6
CONTINUOUS
 10
6.3483
 20
-0.1997
  0
VERTEX
  8
LAYER10
 62
     1
  6
CONTINUOUS
 10
6.3495
 20
-0.1964
  0
VERTEX
  8
LAYER10
 62
     1
  6
CONTINUOUS
 10
6.3508
 20
-0.1933
  0
VERTEX
  8
LAYER10
 62
     1
  6
CONTINUOUS
 10
6.3523
 20
-0.1902
  0
VERTEX
  8
LAYER10
 62
     1
  6
CONTINUOUS
 10
6.3540
 20
-0.1872
  0
VERTEX
  8
LAYER10
 62
     1
  6
CONTINUOUS
 10
6.3558
 20
-0.1843
  0
VERTEX
  8
LAYER10
 62
     1
  6
CONTINUOUS
 10
6.3578
 20
-0.1815
  0
VERTEX
  8
LAYER10
 62
     1
  6
CONTINUOUS
 10
6.3598
 20
-0.1788
  0
VERTEX
  8
LAYER10
 62
     1
  6
CONTINUOUS
 10
6.3621
 20
-0.1761
  0
VERTEX
  8
LAYER10
 62
     1
  6
CONTINUOUS
 10
6.3644
 20
-0.1736
  0
VERTEX
  8
LAYER10
 62
     1
  6
CONTINUOUS
 10
6.3668
 20
-0.1711
  0
VERTEX
  8
LAYER10
 62
     1
  6
CONTINUOUS
 10
6.3694
 20
-0.1688
  0
VERTEX
  8
LAYER10
 62
     1
  6
CONTINUOUS
 10
6.3720
 20
-0.1666
  0
VERTEX
  8
LAYER10
 62
     1
  6
CONTINUOUS
 10
6.3748
 20
-0.1645
  0
VERTEX
  8
LAYER10
 62
     1
  6
CONTINUOUS
 10
6.3776
 20
-0.1625
  0
VERTEX
  8
LAYER10
 62
     1
  6
CONTINUOUS
 10
6.3805
 20
-0.1606
  0
VERTEX
  8
LAYER10
 62
     1
  6
CONTINUOUS
 10
6.3834
 20
-0.1589
  0
VERTEX
  8
LAYER10
 62
     1
  6
CONTINUOUS
 10
6.3864
 20
-0.1572
  0
VERTEX
  8
LAYER10
 62
     1
  6
CONTINUOUS
 10
6.3895
 20
-0.1557
  0
VERTEX
  8
LAYER10
 62
     1
  6
CONTINUOUS
 10
6.3926
 20
-0.1544
  0
VERTEX
  8
LAYER10
 62
     1
  6
CONTINUOUS
 10
6.3957
 20
-0.1532
  0
VERTEX
  8
LAYER10
 62
     1
  6
CONTINUOUS
 10
6.3989
 20
-0.1521
  0
VERTEX
  8
LAYER10
 62
     1
  6
CONTINUOUS
 10
6.4021
 20
-0.1511
  0
VERTEX
  8
LAYER10
 62
     1
  6
CONTINUOUS
 10
6.4049
 20
-0.1504
  0
VERTEX
  8
LAYER10
 62
     1
  6
CONTINUOUS
 10
6.4078
 20
-0.1498
  0
VERTEX
  8
LAYER10
 62
     1
  6
CONTINUOUS
 10
6.4107
 20
-0.1493
  0
VERTEX
  8
LAYER10
 62
     1
  6
CONTINUOUS
 10
6.4135
 20
-0.1488
  0
VERTEX
  8
LAYER10
 62
     1
  6
CONTINUOUS
 10
6.4164
 20
-0.1484
  0
VERTEX
  8
LAYER10
 62
     1
  6
CONTINUOUS
 10
6.4193
 20
-0.1481
  0
VERTEX
  8
LAYER10
 62
     1
  6
CONTINUOUS
 10
6.4223
 20
-0.1478
  0
VERTEX
  8
LAYER10
 62
     1
  6
CONTINUOUS
 10
6.4252
 20
-0.1475
  0
VERTEX
  8
LAYER10
 62
     1
  6
CONTINUOUS
 10
6.4282
 20
-0.1472
  0
VERTEX
  8
LAYER10
 62
     1
  6
CONTINUOUS
 10
6.4312
 20
-0.1469
  0
VERTEX
  8
LAYER10
 62
     1
  6
CONTINUOUS
 10
6.4343
 20
-0.1466
  0
VERTEX
  8
LAYER10
 62
     1
  6
CONTINUOUS
 10
6.4373
 20
-0.1462
  0
VERTEX
  8
LAYER10
 62
     1
  6
CONTINUOUS
 10
6.4404
 20
-0.1459
  0
VERTEX
  8
LAYER10
 62
     1
  6
CONTINUOUS
 10
6.4435
 20
-0.1455
  0
VERTEX
  8
LAYER10
 62
     1
  6
CONTINUOUS
 10
6.4465
 20
-0.1451
  0
VERTEX
  8
LAYER10
 62
     1
  6
CONTINUOUS
 10
6.4496
 20
-0.1448
  0
VERTEX
  8
LAYER10
 62
     1
  6
CONTINUOUS
 10
6.4526
 20
-0.1445
  0
VERTEX
  8
LAYER10
 62
     1
  6
CONTINUOUS
 10
6.4557
 20
-0.1443
  0
VERTEX
  8
LAYER10
 62
     1
  6
CONTINUOUS
 10
6.4586
 20
-0.1442
  0
VERTEX
  8
LAYER10
 62
     1
  6
CONTINUOUS
 10
6.4616
 20
-0.1442
  0
VERTEX
  8
LAYER10
 62
     1
  6
CONTINUOUS
 10
6.4644
 20
-0.1445
  0
VERTEX
  8
LAYER10
 62
     1
  6
CONTINUOUS
 10
6.4672
 20
-0.1449
  0
VERTEX
  8
LAYER10
 62
     1
  6
CONTINUOUS
 10
6.4699
 20
-0.1455
  0
VERTEX
  8
LAYER10
 62
     1
  6
CONTINUOUS
 10
6.4725
 20
-0.1464
  0
VERTEX
  8
LAYER10
 62
     1
  6
CONTINUOUS
 10
6.4753
 20
-0.1477
  0
VERTEX
  8
LAYER10
 62
     1
  6
CONTINUOUS
 10
6.4780
 20
-0.1492
  0
VERTEX
  8
LAYER10
 62
     1
  6
CONTINUOUS
 10
6.4806
 20
-0.1510
  0
VERTEX
  8
LAYER10
 62
     1
  6
CONTINUOUS
 10
6.4831
 20
-0.1531
  0
VERTEX
  8
LAYER10
 62
     1
  6
CONTINUOUS
 10
6.4855
 20
-0.1553
  0
VERTEX
  8
LAYER10
 62
     1
  6
CONTINUOUS
 10
6.4879
 20
-0.1576
  0
VERTEX
  8
LAYER10
 62
     1
  6
CONTINUOUS
 10
6.4903
 20
-0.1600
  0
VERTEX
  8
LAYER10
 62
     1
  6
CONTINUOUS
 10
6.4927
 20
-0.1624
  0
VERTEX
  8
LAYER10
 62
     1
  6
CONTINUOUS
 10
6.4951
 20
-0.1648
  0
VERTEX
  8
LAYER10
 62
     1
  6
CONTINUOUS
 10
6.4975
 20
-0.1672
  0
VERTEX
  8
LAYER10
 62
     1
  6
CONTINUOUS
 10
6.5000
 20
-0.1695
  0
VERTEX
  8
LAYER10
 62
     1
  6
CONTINUOUS
 10
6.5026
 20
-0.1716
  0
VERTEX
  8
LAYER10
 62
     1
  6
CONTINUOUS
 10
6.5054
 20
-0.1737
  0
VERTEX
  8
LAYER10
 62
     1
  6
CONTINUOUS
 10
6.5082
 20
-0.1756
  0
VERTEX
  8
LAYER10
 62
     1
  6
CONTINUOUS
 10
6.5111
 20
-0.1773
  0
VERTEX
  8
LAYER10
 62
     1
  6
CONTINUOUS
 10
6.5141
 20
-0.1790
  0
VERTEX
  8
LAYER10
 62
     1
  6
CONTINUOUS
 10
6.5171
 20
-0.1805
  0
VERTEX
  8
LAYER10
 62
     1
  6
CONTINUOUS
 10
6.5201
 20
-0.1821
  0
VERTEX
  8
LAYER10
 62
     1
  6
CONTINUOUS
 10
6.5231
 20
-0.1836
  0
VERTEX
  8
LAYER10
 62
     1
  6
CONTINUOUS
 10
6.5262
 20
-0.1851
  0
VERTEX
  8
LAYER10
 62
     1
  6
CONTINUOUS
 10
6.5291
 20
-0.1867
  0
VERTEX
  8
LAYER10
 62
     1
  6
CONTINUOUS
 10
6.5321
 20
-0.1883
  0
VERTEX
  8
LAYER10
 62
     1
  6
CONTINUOUS
 10
6.5349
 20
-0.1900
  0
VERTEX
  8
LAYER10
 62
     1
  6
CONTINUOUS
 10
6.5377
 20
-0.1919
  0
VERTEX
  8
LAYER10
 62
     1
  6
CONTINUOUS
 10
6.5401
 20
-0.1936
  0
VERTEX
  8
LAYER10
 62
     1
  6
CONTINUOUS
 10
6.5424
 20
-0.1954
  0
VERTEX
  8
LAYER10
 62
     1
  6
CONTINUOUS
 10
6.5446
 20
-0.1974
  0
VERTEX
  8
LAYER10
 62
     1
  6
CONTINUOUS
 10
6.5468
 20
-0.1994
  0
VERTEX
  8
LAYER10
 62
     1
  6
CONTINUOUS
 10
6.5489
 20
-0.2015
  0
VERTEX
  8
LAYER10
 62
     1
  6
CONTINUOUS
 10
6.5510
 20
-0.2036
  0
VERTEX
  8
LAYER10
 62
     1
  6
CONTINUOUS
 10
6.5530
 20
-0.2058
  0
VERTEX
  8
LAYER10
 62
     1
  6
CONTINUOUS
 10
6.5550
 20
-0.2081
  0
VERTEX
  8
LAYER10
 62
     1
  6
CONTINUOUS
 10
6.5570
 20
-0.2103
  0
VERTEX
  8
LAYER10
 62
     1
  6
CONTINUOUS
 10
6.5589
 20
-0.2126
  0
VERTEX
  8
LAYER10
 62
     1
  6
CONTINUOUS
 10
6.5609
 20
-0.2148
  0
VERTEX
  8
LAYER10
 62
     1
  6
CONTINUOUS
 10
6.5628
 20
-0.2171
  0
VERTEX
  8
LAYER10
 62
     1
  6
CONTINUOUS
 10
6.5647
 20
-0.2193
  0
VERTEX
  8
LAYER10
 62
     1
  6
CONTINUOUS
 10
6.5666
 20
-0.2215
  0
VERTEX
  8
LAYER10
 62
     1
  6
CONTINUOUS
 10
6.5685
 20
-0.2237
  0
VERTEX
  8
LAYER10
 62
     1
  6
CONTINUOUS
 10
6.5704
 20
-0.2259
  0
VERTEX
  8
LAYER10
 62
     1
  6
CONTINUOUS
 10
6.5724
 20
-0.2280
  0
VERTEX
  8
LAYER10
 62
     1
  6
CONTINUOUS
 10
6.5744
 20
-0.2301
  0
VERTEX
  8
LAYER10
 62
     1
  6
CONTINUOUS
 10
6.5764
 20
-0.2322
  0
VERTEX
  8
LAYER10
 62
     1
  6
CONTINUOUS
 10
6.5786
 20
-0.2343
  0
VERTEX
  8
LAYER10
 62
     1
  6
CONTINUOUS
 10
6.5807
 20
-0.2364
  0
VERTEX
  8
LAYER10
 62
     1
  6
CONTINUOUS
 10
6.5830
 20
-0.2384
  0
VERTEX
  8
LAYER10
 62
     1
  6
CONTINUOUS
 10
6.5854
 20
-0.2404
  0
VERTEX
  8
LAYER10
 62
     1
  6
CONTINUOUS
 10
6.5878
 20
-0.2423
  0
VERTEX
  8
LAYER10
 62
     1
  6
CONTINUOUS
 10
6.5899
 20
-0.2439
  0
VERTEX
  8
LAYER10
 62
     1
  6
CONTINUOUS
 10
6.5919
 20
-0.2454
  0
VERTEX
  8
LAYER10
 62
     1
  6
CONTINUOUS
 10
6.5940
 20
-0.2470
  0
VERTEX
  8
LAYER10
 62
     1
  6
CONTINUOUS
 10
6.5961
 20
-0.2485
  0
VERTEX
  8
LAYER10
 62
     1
  6
CONTINUOUS
 10
6.5981
 20
-0.2501
  0
VERTEX
  8
LAYER10
 62
     1
  6
CONTINUOUS
 10
6.6000
 20
-0.2517
  0
VERTEX
  8
LAYER10
 62
     1
  6
CONTINUOUS
 10
6.6018
 20
-0.2534
  0
VERTEX
  8
LAYER10
 62
     1
  6
CONTINUOUS
 10
6.6035
 20
-0.2551
  0
VERTEX
  8
LAYER10
 62
     1
  6
CONTINUOUS
 10
6.6049
 20
-0.2568
  0
VERTEX
  8
LAYER10
 62
     1
  6
CONTINUOUS
 10
6.6062
 20
-0.2586
  0
VERTEX
  8
LAYER10
 62
     1
  6
CONTINUOUS
 10
6.6071
 20
-0.2605
  0
VERTEX
  8
LAYER10
 62
     1
  6
CONTINUOUS
 10
6.6079
 20
-0.2625
  0
VERTEX
  8
LAYER10
 62
     1
  6
CONTINUOUS
 10
6.6082
 20
-0.2644
  0
VERTEX
  8
LAYER10
 62
     1
  6
CONTINUOUS
 10
6.6084
 20
-0.2663
  0
VERTEX
  8
LAYER10
 62
     1
  6
CONTINUOUS
 10
6.6083
 20
-0.2683
  0
VERTEX
  8
LAYER10
 62
     1
  6
CONTINUOUS
 10
6.6081
 20
-0.2703
  0
VERTEX
  8
LAYER10
 62
     1
  6
CONTINUOUS
 10
6.6077
 20
-0.2724
  0
VERTEX
  8
LAYER10
 62
     1
  6
CONTINUOUS
 10
6.6072
 20
-0.2745
  0
VERTEX
  8
LAYER10
 62
     1
  6
CONTINUOUS
 10
6.6066
 20
-0.2767
  0
VERTEX
  8
LAYER10
 62
     1
  6
CONTINUOUS
 10
6.6059
 20
-0.2789
  0
VERTEX
  8
LAYER10
 62
     1
  6
CONTINUOUS
 10
6.6051
 20
-0.2811
  0
VERTEX
  8
LAYER10
 62
     1
  6
CONTINUOUS
 10
6.6043
 20
-0.2833
  0
VERTEX
  8
LAYER10
 62
     1
  6
CONTINUOUS
 10
6.6035
 20
-0.2854
  0
VERTEX
  8
LAYER10
 62
     1
  6
CONTINUOUS
 10
6.6027
 20
-0.2876
  0
VERTEX
  8
LAYER10
 62
     1
  6
CONTINUOUS
 10
6.6019
 20
-0.2899
  0
VERTEX
  8
LAYER10
 62
     1
  6
CONTINUOUS
 10
6.6012
 20
-0.2922
  0
VERTEX
  8
LAYER10
 62
     1
  6
CONTINUOUS
 10
6.6005
 20
-0.2944
  0
VERTEX
  8
LAYER10
 62
     1
  6
CONTINUOUS
 10
6.5997
 20
-0.2966
  0
VERTEX
  8
LAYER10
 62
     1
  6
CONTINUOUS
 10
6.5990
 20
-0.2988
  0
VERTEX
  8
LAYER10
 62
     1
  6
CONTINUOUS
 10
6.5982
 20
-0.3009
  0
VERTEX
  8
LAYER10
 62
     1
  6
CONTINUOUS
 10
6.5974
 20
-0.3030
  0
VERTEX
  8
LAYER10
 62
     1
  6
CONTINUOUS
 10
6.5966
 20
-0.3050
  0
VERTEX
  8
LAYER10
 62
     1
  6
CONTINUOUS
 10
6.5957
 20
-0.3070
  0
VERTEX
  8
LAYER10
 62
     1
  6
CONTINUOUS
 10
6.5948
 20
-0.3090
  0
VERTEX
  8
LAYER10
 62
     1
  6
CONTINUOUS
 10
6.5937
 20
-0.3109
  0
VERTEX
  8
LAYER10
 62
     1
  6
CONTINUOUS
 10
6.5926
 20
-0.3127
  0
VERTEX
  8
LAYER10
 62
     1
  6
CONTINUOUS
 10
6.5913
 20
-0.3146
  0
VERTEX
  8
LAYER10
 62
     1
  6
CONTINUOUS
 10
6.5899
 20
-0.3164
  0
VERTEX
  8
LAYER10
 62
     1
  6
CONTINUOUS
 10
6.5884
 20
-0.3182
  0
VERTEX
  8
LAYER10
 62
     1
  6
CONTINUOUS
 10
6.5868
 20
-0.3199
  0
VERTEX
  8
LAYER10
 62
     1
  6
CONTINUOUS
 10
6.5851
 20
-0.3216
  0
VERTEX
  8
LAYER10
 62
     1
  6
CONTINUOUS
 10
6.5834
 20
-0.3232
  0
VERTEX
  8
LAYER10
 62
     1
  6
CONTINUOUS
 10
6.5816
 20
-0.3249
  0
VERTEX
  8
LAYER10
 62
     1
  6
CONTINUOUS
 10
6.5798
 20
-0.3265
  0
VERTEX
  8
LAYER10
 62
     1
  6
CONTINUOUS
 10
6.5779
 20
-0.3280
  0
VERTEX
  8
LAYER10
 62
     1
  6
CONTINUOUS
 10
6.5761
 20
-0.3296
  0
VERTEX
  8
LAYER10
 62
     1
  6
CONTINUOUS
 10
6.5742
 20
-0.3312
  0
VERTEX
  8
LAYER10
 62
     1
  6
CONTINUOUS
 10
6.5724
 20
-0.3328
  0
VERTEX
  8
LAYER10
 62
     1
  6
CONTINUOUS
 10
6.5701
 20
-0.3348
  0
VERTEX
  8
LAYER10
 62
     1
  6
CONTINUOUS
 10
6.5679
 20
-0.3368
  0
VERTEX
  8
LAYER10
 62
     1
  6
CONTINUOUS
 10
6.5657
 20
-0.3388
  0
VERTEX
  8
LAYER10
 62
     1
  6
CONTINUOUS
 10
6.5636
 20
-0.3408
  0
VERTEX
  8
LAYER10
 62
     1
  6
CONTINUOUS
 10
6.5614
 20
-0.3429
  0
VERTEX
  8
LAYER10
 62
     1
  6
CONTINUOUS
 10
6.5593
 20
-0.3450
  0
VERTEX
  8
LAYER10
 62
     1
  6
CONTINUOUS
 10
6.5573
 20
-0.3471
  0
VERTEX
  8
LAYER10
 62
     1
  6
CONTINUOUS
 10
6.5552
 20
-0.3492
  0
VERTEX
  8
LAYER10
 62
     1
  6
CONTINUOUS
 10
6.5532
 20
-0.3513
  0
VERTEX
  8
LAYER10
 62
     1
  6
CONTINUOUS
 10
6.5512
 20
-0.3535
  0
VERTEX
  8
LAYER10
 62
     1
  6
CONTINUOUS
 10
6.5492
 20
-0.3556
  0
VERTEX
  8
LAYER10
 62
     1
  6
CONTINUOUS
 10
6.5472
 20
-0.3578
  0
VERTEX
  8
LAYER10
 62
     1
  6
CONTINUOUS
 10
6.5448
 20
-0.3605
  0
VERTEX
  8
LAYER10
 62
     1
  6
CONTINUOUS
 10
6.5424
 20
-0.3632
  0
VERTEX
  8
LAYER10
 62
     1
  6
CONTINUOUS
 10
6.5401
 20
-0.3660
  0
VERTEX
  8
LAYER10
 62
     1
  6
CONTINUOUS
 10
6.5378
 20
-0.3688
  0
VERTEX
  8
LAYER10
 62
     1
  6
CONTINUOUS
 10
6.5355
 20
-0.3716
  0
VERTEX
  8
LAYER10
 62
     1
  6
CONTINUOUS
 10
6.5333
 20
-0.3745
  0
VERTEX
  8
LAYER10
 62
     1
  6
CONTINUOUS
 10
6.5312
 20
-0.3774
  0
VERTEX
  8
LAYER10
 62
     1
  6
CONTINUOUS
 10
6.5291
 20
-0.3804
  0
VERTEX
  8
LAYER10
 62
     1
  6
CONTINUOUS
 10
6.5272
 20
-0.3834
  0
VERTEX
  8
LAYER10
 62
     1
  6
CONTINUOUS
 10
6.5253
 20
-0.3865
  0
SEQEND
  8
LAYER10
  0
POLYLINE
  8
LAYER10
 62
     1
 66
     1
  6
CONTINUOUS
  0
VERTEX
  8
LAYER10
 62
     1
  6
CONTINUOUS
 10
6.5253
 20
-0.3865
  0
VERTEX
  8
LAYER10
 62
     1
  6
CONTINUOUS
 10
6.5236
 20
-0.3897
  0
VERTEX
  8
LAYER10
 62
     1
  6
CONTINUOUS
 10
6.5219
 20
-0.3929
  0
VERTEX
  8
LAYER10
 62
     1
  6
CONTINUOUS
 10
6.5215
 20
-0.3938
  0
VERTEX
  8
LAYER10
 62
     1
  6
CONTINUOUS
 10
6.5211
 20
-0.3946
  0
VERTEX
  8
LAYER10
 62
     1
  6
CONTINUOUS
 10
6.5207
 20
-0.3955
  0
VERTEX
  8
LAYER10
 62
     1
  6
CONTINUOUS
 10
6.5203
 20
-0.3963
  0
VERTEX
  8
LAYER10
 62
     1
  6
CONTINUOUS
 10
6.5199
 20
-0.3972
  0
VERTEX
  8
LAYER10
 62
     1
  6
CONTINUOUS
 10
6.5195
 20
-0.3980
  0
VERTEX
  8
LAYER10
 62
     1
  6
CONTINUOUS
 10
6.5191
 20
-0.3989
  0
VERTEX
  8
LAYER10
 62
     1
  6
CONTINUOUS
 10
6.5187
 20
-0.3997
  0
VERTEX
  8
LAYER10
 62
     1
  6
CONTINUOUS
 10
6.5182
 20
-0.4005
  0
VERTEX
  8
LAYER10
 62
     1
  6
CONTINUOUS
 10
6.5178
 20
-0.4014
  0
VERTEX
  8
LAYER10
 62
     1
  6
CONTINUOUS
 10
6.5173
 20
-0.4022
  0
VERTEX
  8
LAYER10
 62
     1
  6
CONTINUOUS
 10
6.5168
 20
-0.4030
  0
VERTEX
  8
LAYER10
 62
     1
  6
CONTINUOUS
 10
6.5155
 20
-0.4049
  0
VERTEX
  8
LAYER10
 62
     1
  6
CONTINUOUS
 10
6.5141
 20
-0.4068
  0
VERTEX
  8
LAYER10
 62
     1
  6
CONTINUOUS
 10
6.5126
 20
-0.4086
  0
VERTEX
  8
LAYER10
 62
     1
  6
CONTINUOUS
 10
6.5110
 20
-0.4103
  0
VERTEX
  8
LAYER10
 62
     1
  6
CONTINUOUS
 10
6.5093
 20
-0.4120
  0
VERTEX
  8
LAYER10
 62
     1
  6
CONTINUOUS
 10
6.5076
 20
-0.4136
  0
VERTEX
  8
LAYER10
 62
     1
  6
CONTINUOUS
 10
6.5058
 20
-0.4152
  0
VERTEX
  8
LAYER10
 62
     1
  6
CONTINUOUS
 10
6.5040
 20
-0.4167
  0
VERTEX
  8
LAYER10
 62
     1
  6
CONTINUOUS
 10
6.5021
 20
-0.4183
  0
VERTEX
  8
LAYER10
 62
     1
  6
CONTINUOUS
 10
6.5003
 20
-0.4199
  0
VERTEX
  8
LAYER10
 62
     1
  6
CONTINUOUS
 10
6.4985
 20
-0.4214
  0
VERTEX
  8
LAYER10
 62
     1
  6
CONTINUOUS
 10
6.4967
 20
-0.4230
  0
VERTEX
  8
LAYER10
 62
     1
  6
CONTINUOUS
 10
6.4953
 20
-0.4242
  0
VERTEX
  8
LAYER10
 62
     1
  6
CONTINUOUS
 10
6.4940
 20
-0.4254
  0
VERTEX
  8
LAYER10
 62
     1
  6
CONTINUOUS
 10
6.4927
 20
-0.4266
  0
VERTEX
  8
LAYER10
 62
     1
  6
CONTINUOUS
 10
6.4914
 20
-0.4279
  0
VERTEX
  8
LAYER10
 62
     1
  6
CONTINUOUS
 10
6.4902
 20
-0.4291
  0
VERTEX
  8
LAYER10
 62
     1
  6
CONTINUOUS
 10
6.4889
 20
-0.4304
  0
VERTEX
  8
LAYER10
 62
     1
  6
CONTINUOUS
 10
6.4877
 20
-0.4316
  0
VERTEX
  8
LAYER10
 62
     1
  6
CONTINUOUS
 10
6.4864
 20
-0.4329
  0
VERTEX
  8
LAYER10
 62
     1
  6
CONTINUOUS
 10
6.4852
 20
-0.4342
  0
VERTEX
  8
LAYER10
 62
     1
  6
CONTINUOUS
 10
6.4840
 20
-0.4355
  0
VERTEX
  8
LAYER10
 62
     1
  6
CONTINUOUS
 10
6.4827
 20
-0.4367
  0
VERTEX
  8
LAYER10
 62
     1
  6
CONTINUOUS
 10
6.4815
 20
-0.4380
  0
SEQEND
  8
LAYER10
  0
POLYLINE
  8
LAYER10
 62
     1
 66
     1
  6
CONTINUOUS
  0
VERTEX
  8
LAYER10
 62
     1
  6
CONTINUOUS
 10
6.4783
 20
-0.4398
  0
VERTEX
  8
LAYER10
 62
     1
  6
CONTINUOUS
 10
6.4778
 20
-0.4400
  0
VERTEX
  8
LAYER10
 62
     1
  6
CONTINUOUS
 10
6.4773
 20
-0.4402
  0
VERTEX
  8
LAYER10
 62
     1
  6
CONTINUOUS
 10
6.4768
 20
-0.4404
  0
VERTEX
  8
LAYER10
 62
     1
  6
CONTINUOUS
 10
6.4764
 20
-0.4406
  0
VERTEX
  8
LAYER10
 62
     1
  6
CONTINUOUS
 10
6.4760
 20
-0.4408
  0
VERTEX
  8
LAYER10
 62
     1
  6
CONTINUOUS
 10
6.4755
 20
-0.4410
  0
VERTEX
  8
LAYER10
 62
     1
  6
CONTINUOUS
 10
6.4752
 20
-0.4412
  0
VERTEX
  8
LAYER10
 62
     1
  6
CONTINUOUS
 10
6.4748
 20
-0.4414
  0
VERTEX
  8
LAYER10
 62
     1
  6
CONTINUOUS
 10
6.4745
 20
-0.4415
  0
VERTEX
  8
LAYER10
 62
     1
  6
CONTINUOUS
 10
6.4742
 20
-0.4416
  0
VERTEX
  8
LAYER10
 62
     1
  6
CONTINUOUS
 10
6.4739
 20
-0.4417
  0
VERTEX
  8
LAYER10
 62
     1
  6
CONTINUOUS
 10
6.4737
 20
-0.4418
  0
VERTEX
  8
LAYER10
 62
     1
  6
CONTINUOUS
 10
6.4736
 20
-0.4419
  0
VERTEX
  8
LAYER10
 62
     1
  6
CONTINUOUS
 10
6.4735
 20
-0.4419
  0
VERTEX
  8
LAYER10
 62
     1
  6
CONTINUOUS
 10
6.4734
 20
-0.4420
  0
VERTEX
  8
LAYER10
 62
     1
  6
CONTINUOUS
 10
6.4734
 20
-0.4420
  0
VERTEX
  8
LAYER10
 62
     1
  6
CONTINUOUS
 10
6.4733
 20
-0.4420
  0
VERTEX
  8
LAYER10
 62
     1
  6
CONTINUOUS
 10
6.4734
 20
-0.4420
  0
VERTEX
  8
LAYER10
 62
     1
  6
CONTINUOUS
 10
6.4734
 20
-0.4420
  0
VERTEX
  8
LAYER10
 62
     1
  6
CONTINUOUS
 10
6.4734
 20
-0.4420
  0
VERTEX
  8
LAYER10
 62
     1
  6
CONTINUOUS
 10
6.4735
 20
-0.4419
  0
VERTEX
  8
LAYER10
 62
     1
  6
CONTINUOUS
 10
6.4736
 20
-0.4419
  0
VERTEX
  8
LAYER10
 62
     1
  6
CONTINUOUS
 10
6.4736
 20
-0.4419
  0
VERTEX
  8
LAYER10
 62
     1
  6
CONTINUOUS
 10
6.4737
 20
-0.4418
  0
SEQEND
  8
LAYER10
  0
POLYLINE
  8
LAYER10
 62
     1
 66
     1
  6
CONTINUOUS
  0
VERTEX
  8
LAYER10
 62
     1
  6
CONTINUOUS
 10
6.4556
 20
-0.4418
  0
VERTEX
  8
LAYER10
 62
     1
  6
CONTINUOUS
 10
6.4555
 20
-0.4416
  0
VERTEX
  8
LAYER10
 62
     1
  6
CONTINUOUS
 10
6.4554
 20
-0.4414
  0
VERTEX
  8
LAYER10
 62
     1
  6
CONTINUOUS
 10
6.4553
 20
-0.4412
  0
VERTEX
  8
LAYER10
 62
     1
  6
CONTINUOUS
 10
6.4552
 20
-0.4411
  0
VERTEX
  8
LAYER10
 62
     1
  6
CONTINUOUS
 10
6.4551
 20
-0.4409
  0
VERTEX
  8
LAYER10
 62
     1
  6
CONTINUOUS
 10
6.4550
 20
-0.4407
  0
VERTEX
  8
LAYER10
 62
     1
  6
CONTINUOUS
 10
6.4548
 20
-0.4405
  0
VERTEX
  8
LAYER10
 62
     1
  6
CONTINUOUS
 10
6.4547
 20
-0.4404
  0
VERTEX
  8
LAYER10
 62
     1
  6
CONTINUOUS
 10
6.4547
 20
-0.4402
  0
VERTEX
  8
LAYER10
 62
     1
  6
CONTINUOUS
 10
6.4546
 20
-0.4401
  0
VERTEX
  8
LAYER10
 62
     1
  6
CONTINUOUS
 10
6.4545
 20
-0.4399
  0
VERTEX
  8
LAYER10
 62
     1
  6
CONTINUOUS
 10
6.4544
 20
-0.4398
  0
VERTEX
  8
LAYER10
 62
     1
  6
CONTINUOUS
 10
6.4543
 20
-0.4396
  0
VERTEX
  8
LAYER10
 62
     1
  6
CONTINUOUS
 10
6.4542
 20
-0.4395
  0
VERTEX
  8
LAYER10
 62
     1
  6
CONTINUOUS
 10
6.4542
 20
-0.4394
  0
VERTEX
  8
LAYER10
 62
     1
  6
CONTINUOUS
 10
6.4541
 20
-0.4394
  0
VERTEX
  8
LAYER10
 62
     1
  6
CONTINUOUS
 10
6.4541
 20
-0.4393
  0
VERTEX
  8
LAYER10
 62
     1
  6
CONTINUOUS
 10
6.4541
 20
-0.4394
  0
VERTEX
  8
LAYER10
 62
     1
  6
CONTINUOUS
 10
6.4541
 20
-0.4394
  0
VERTEX
  8
LAYER10
 62
     1
  6
CONTINUOUS
 10
6.4542
 20
-0.4395
  0
VERTEX
  8
LAYER10
 62
     1
  6
CONTINUOUS
 10
6.4542
 20
-0.4395
  0
VERTEX
  8
LAYER10
 62
     1
  6
CONTINUOUS
 10
6.4543
 20
-0.4396
  0
VERTEX
  8
LAYER10
 62
     1
  6
CONTINUOUS
 10
6.4544
 20
-0.4397
  0
VERTEX
  8
LAYER10
 62
     1
  6
CONTINUOUS
 10
6.4544
 20
-0.4398
  0
SEQEND
  8
LAYER10
  0
POLYLINE
  8
LAYER12
 62
     5
 66
     1
  6
CONTINUOUS
  0
VERTEX
  8
LAYER12
 62
     5
  6
CONTINUOUS
 10
7.0493
 20
-0.4398
  0
VERTEX
  8
LAYER12
 62
     5
  6
CONTINUOUS
 10
7.0493
 20
0.5345
  0
SEQEND
  8
LAYER12
  0
POLYLINE
  8
LAYER12
 62
     5
 66
     1
  6
CONTINUOUS
  0
VERTEX
  8
LAYER12
 62
     5
  6
CONTINUOUS
 10
7.0490
 20
-0.4411
  0
VERTEX
  8
LAYER12
 62
     5
  6
CONTINUOUS
 10
6.0657
 20
-0.4411
  0
SEQEND
  8
LAYER12
  0
POLYLINE
  8
LAYER12
 62
     5
 66
     1
  6
CONTINUOUS
  0
VERTEX
  8
LAYER12
 62
     5
  6
CONTINUOUS
 10
6.0657
 20
0.5426
  0
VERTEX
  8
LAYER12
 62
     5
  6
CONTINUOUS
 10
7.0490
 20
0.5426
  0
SEQEND
  8
LAYER12
  0
POLYLINE
  8
LAYER12
 62
     5
 66
     1
  6
CONTINUOUS
  0
VERTEX
  8
LAYER12
 62
     5
  6
CONTINUOUS
 10
7.0490
 20
0.5426
  0
VERTEX
  8
LAYER12
 62
     5
  6
CONTINUOUS
 10
7.0490
 20
0.5426
  0
SEQEND
  8
LAYER12
  0
POLYLINE
  8
LAYER12
 62
     5
 66
     1
  6
CONTINUOUS
  0
VERTEX
  8
LAYER12
 62
     5
  6
CONTINUOUS
 10
6.0657
 20
0.5345
  0
VERTEX
  8
LAYER12
 62
     5
  6
CONTINUOUS
 10
6.0657
 20
-0.4398
  0
SEQEND
  8
LAYER12
  0
POLYLINE
  8
LAYER12
 62
     5
 66
     1
  6
CONTINUOUS
  0
VERTEX
  8
LAYER12
 62
     5
  6
CONTINUOUS
 10
6.0657
 20
-0.4398
  0
VERTEX
  8
LAYER12
 62
     5
  6
CONTINUOUS
 10
6.0657
 20
-0.4418
  0
SEQEND
  8
LAYER12
  0
POLYLINE
  8
LAYER12
 62
     5
 66
     1
  6
CONTINUOUS
  0
VERTEX
  8
LAYER12
 62
     5
  6
CONTINUOUS
 10
7.0493
 20
-0.4418
  0
VERTEX
  8
LAYER12
 62
     5
  6
CONTINUOUS
 10
7.0493
 20
-0.4398
  0
SEQEND
  8
LAYER12
  0
POLYLINE
  8
LAYER12
 62
     5
 66
     1
  6
CONTINUOUS
  0
VERTEX
  8
LAYER12
 62
     5
  6
CONTINUOUS
 10
7.0493
 20
0.5345
  0
VERTEX
  8
LAYER12
 62
     5
  6
CONTINUOUS
 10
7.0493
 20
0.5426
  0
SEQEND
  8
LAYER12
  0
POLYLINE
  8
LAYER12
 62
     5
 66
     1
  6
CONTINUOUS
  0
VERTEX
  8
LAYER12
 62
     5
  6
CONTINUOUS
 10
6.0657
 20
0.5345
  0
VERTEX
  8
LAYER12
 62
     5
  6
CONTINUOUS
 10
6.0657
 20
0.5426
  0
SEQEND
  8
LAYER12
  0
ENDSEC
  0
EOF
