  0
SECTION
  2
HEADER
  9
$ACADVER
  1
AC1004
  9
$EXTMIN
 10
7.0490
 20
-0.4418
  9
$EXTMAX
 10
8.0340
 20
0.5426
  9
$LIMMIN
 10
7.0490
 20
-0.4418
  9
$LIMMAX
 10
8.0340
 20
0.5426
  9
$INSBASE
 10
0.0
 20
0.0
  9
$VIEWCTR
 10
7.21903
 20
4.5
  9
$VIEWSIZE
 40
9.0
  9
$SNAPMODE
 70
     0
  9
$SNAPUNIT
 10
1.0
 20
1.0
  9
$SNAPBASE
 10
0.0
 20
0.0
  9
$SNAPANG
 50
0.0
  9
$SNAPSTYLE
 70
     0
  9
$SNAPISOPAIR
 70
     0
  9
$GRIDMODE
 70
     0
  9
$GRIDUNIT
 10
0.0
 20
0.0
  9
$ORTHOMODE
 70
     0
  9
$REGENMODE
 70
     1
  9
$FILLMODE
 70
     1
  9
$QTEXTMODE
 70
     0
  9
$DRAGMODE
 70
     2
  9
$LTSCALE
 40
1.0
  9
$OSMODE
 70
     0
  9
$ATTMODE
 70
     1
  9
$TEXTSIZE
 40
0.2
  9
$TRACEWID
 40
0.05
  9
$TEXTSTYLE
  7
STANDARD
  9
$CLAYER
  8
0
  9
$CELTYPE
  6
BYLAYER
  9
$CECOLOR
 62
   256
  9
$DIMSCALE
 40
1.0
  9
$DIMASZ
 40
0.18
  9
$DIMEXO
 40
0.0625
  9
$DIMDLI
 40
0.38
  9
$DIMRND
 40
0.0
  9
$DIMDLE
 40
0.0
  9
$DIMEXE
 40
0.18
  9
$DIMTP
 40
0.0
  9
$DIMTM
 40
0.0
  9
$DIMTXT
 40
0.18
  9
$DIMCEN
 40
0.09
  9
$DIMTSZ
 40
0.0
  9
$DIMTOL
 70
     0
  9
$DIMLIM
 70
     0
  9
$DIMTIH
 70
     1
  9
$DIMTOH
 70
     1
  9
$DIMSE1
 70
     0
  9
$DIMSE2
 70
     0
  9
$DIMTAD
 70
     0
  9
$DIMZIN
 70
     0
  9
$DIMBLK
  1

  9
$DIMASO
 70
     1
  9
$DIMSHO
 70
     0
  9
$DIMPOST
  1

  9
$DIMAPOST
  1

  9
$DIMALT
 70
     0
  9
$DIMALTD
 70
     2
  9
$DIMALTF
 40
25.4
  9
$DIMLFAC
 40
1.0
  9
$LUNITS
 70
     2
  9
$LUPREC
 70
     4
  9
$AXISMODE
 70
     0
  9
$AXISUNIT
 10
0.0
 20
0.0
  9
$SKETCHINC
 40
0.1
  9
$FILLETRAD
 40
0.0
  9
$AUNITS
 70
     0
  9
$AUPREC
 70
     0
  9
$MENU
  1
acad
  9
$ELEVATION
 40
0.0
  9
$THICKNESS
 40
0.0
  9
$VIEWDIR
 10
0.0
 20
0.0
 30
1.0
  9
$LIMCHECK
 70
     0
  9
$BLIPMODE
 70
     1
  9
$CHAMFERA
 40
0.0
  9
$CHAMFERB
 40
0.0
  9
$FASTZOOM
 70
     1
  9
$SKPOLY
 70
     0
  9
$TDCREATE
 40
2447222.5666886573
  9
$TDUPDATE
 40
2447222.5666886573
  9
$TDINDWG
 40
0.0000000000
  9
$TDUSRTIMER
 40
0.0000000000
  9
$USRTIMER
 70
     1
  9
$ANGBASE
 50
0.0
  9
$ANGDIR
 70
     0
  9
$PDMODE
 70
     0
  9
$PDSIZE
 40
0.0
  9
$PLINEWID
 40
0.0
  9
$COORDS
 70
     0
  9
$SPLFRAME
 70
     0
  9
$SPLINESEGS
 70
     8
  9
$ATTDIA
 70
     0
  9
$ATTREQ
 70
     1
  9
$USERI1
 70
     0
  9
$USERI2
 70
     0
  9
$USERI3
 70
     0
  9
$USERI4
 70
     0
  9
$USERI5
 70
     0
  9
$USERR1
 40
0.0
  9
$USERR2
 40
0.0
  9
$USERR3
 40
0.0
  9
$USERR4
 40
0.0
  9
$USERR5
 40
0.0
  0
ENDSEC
  0
SECTION
  2
TABLES
  0
TABLE
  2
LTYPE
 70
     13
  0
LTYPE
  2
CONTINUOUS
 70
    64
  3
Solid line
 72
    65
 73
     0
 40
0.0
  0
LTYPE
  2
DASHED
 70
    64
  3
__ __ __ __ __ __ __ __ __ __ __ __ __ __ __
 72
    65
 73
     2
 40
0.75
 49
0.5
 49
-0.25
  0
LTYPE
  2
HIDDEN
 70
    64
  3
_ _ _ _ _ _ _ _ _ _ _ _ _ _ _ _ _ _ _ _ _ _ _
 72
    65
 73
     2
 40
0.375
 49
0.25
 49
-0.125
  0
LTYPE
  2
CENTER
 70
    64
  3
____ _ ____ _ ____ _ ____ _ ____ _ ____ _ ____
 72
    65
 73
     4
 40
2.0
 49
1.25
 49
-0.25
 49
0.25
 49
-0.25
  0
LTYPE
  2
PHANTOM
 70
    64
  3
_____ _ _ _____ _ _ _____ _ _ _____ _ _ ____
 72
    65
 73
     6
 40
2.5
 49
1.25
 49
-0.25
 49
0.25
 49
-0.25
 49
0.25
 49
-0.25
  0
LTYPE
  2
DOT
 70
    64
  3
...............................................
 72
    65
 73
     2
 40
0.25
 49
0.0
 49
-0.25
  0
LTYPE
  2
DASHDOT
 70
    64
  3
__ . __ . __ . __ . __ . __ . __ . __ . __ . __
 72
    65
 73
     4
 40
1.0
 49
0.5
 49
-0.25
 49
0.0
 49
-0.25
  0
LTYPE
  2
BORDER
 70
    64
  3
__ __ . __ __ . __ __ . __ __ . __ __ . __ __
 72
    65
 73
     6
 40
1.75
 49
0.5
 49
-0.25
 49
0.5
 49
-0.25
 49
0.0
 49
-0.25
  0
LTYPE
  2
DIVIDE
 70
    64
  3
__ . . __ . . __ . . __ . . __ . . __ . . __
 72
    65
 73
     6
 40
1.25
 49
0.5
 49
-0.25
 49
0.0
 49
-0.25
 49
0.0
 49
-0.25
  0
LTYPE
  2
DCTYPE1
 70
    64
  3
__ . . __ . . __ . . __ . . __ . . __ . . __
 72
    65
 73
     8
 40
2.5
 49
0.5
 49
-0.25
 49
0.125
 49
-0.25
 49
0.25
 49
-0.25
 49
0.125
 49
-0.25
  0
LTYPE
  2
DCTYPE2
 70
    64
  3
__ . . __ . . __ . . __ . . __ . . __ . . __
 72
    65
 73
     6
 40
2.05
 49
1.0
 49
-0.3
 49
0.15
 49
-0.15
 49
0.15
 49
-0.3
  0
LTYPE
  2
DCTYPE3
 70
    64
  3
__ . . __ . . __ . . __ . . __ . . __ . . __
 72
    65
 73
     6
 40
2.5
 49
0.8
 49
-0.2
 49
0.8
 49
-0.2
 49
0.3
 49
-0.2
  0
LTYPE
  2
DCTYPE4
 70
    64
  3
__ . . __ . . __ . . __ . . __ . . __ . . __
 72
    65
 73
     10
 40
3.97
 49
1.75
 49
-0.3
 49
0.3
 49
-0.3
 49
0.06
 49
-0.3
 49
0.06
 49
-0.3
 49
0.3
 49
-0.3
  0
ENDTAB
  0
TABLE
  2
LAYER
 70
    153
  0
LAYER
  2
LAYER1
 70
 64
 62
     7
  6
CONTINUOUS
  0
LAYER
  2
LAYER10
 70
 64
 62
     1
  6
CONTINUOUS
  0
LAYER
  2
LAYER12
 70
 64
 62
     5
  6
CONTINUOUS
  0
ENDTAB
  0
ENDSEC
  0
SECTION
  2
BLOCKS
  0
ENDSEC
  0
SECTION
  2
ENTITIES
  0
CIRCLE
  8
LAYER1
 62
     7
  6
CONTINUOUS
 10
7.9944
 20
-0.1035
 40
0.0162
  0
CIRCLE
  8
LAYER1
 62
     7
  6
CONTINUOUS
 10
7.9203
 20
-0.0780
 40
0.0206
  0
CIRCLE
  8
LAYER1
 62
     7
  6
CONTINUOUS
 10
7.9205
 20
-0.2442
 40
0.0181
  0
CIRCLE
  8
LAYER1
 62
     7
  6
CONTINUOUS
 10
7.8259
 20
-0.2826
 40
0.0102
  0
CIRCLE
  8
LAYER1
 62
     7
  6
CONTINUOUS
 10
7.6597
 20
-0.2598
 40
0.0181
  0
CIRCLE
  8
LAYER1
 62
     7
  6
CONTINUOUS
 10
7.6980
 20
-0.1345
 40
0.0114
  0
CIRCLE
  8
LAYER1
 62
     7
  6
CONTINUOUS
 10
7.6238
 20
-0.0681
 40
0.0200
  0
CIRCLE
  8
LAYER1
 62
     7
  6
CONTINUOUS
 10
7.5700
 20
0.0162
 40
0.0138
  0
CIRCLE
  8
LAYER1
 62
     7
  6
CONTINUOUS
 10
7.4678
 20
0.0146
 40
0.0138
  0
CIRCLE
  8
LAYER1
 62
     7
  6
CONTINUOUS
 10
7.5035
 20
0.0749
 40
0.0229
  0
CIRCLE
  8
LAYER1
 62
     7
  6
CONTINUOUS
 10
7.4626
 20
0.0774
 40
0.0218
  0
CIRCLE
  8
LAYER1
 62
     7
  6
CONTINUOUS
 10
7.4498
 20
0.1132
 40
0.0195
  0
CIRCLE
  8
LAYER1
 62
     7
  6
CONTINUOUS
 10
7.6568
 20
0.1057
 40
0.0256
  0
CIRCLE
  8
LAYER1
 62
     7
  6
CONTINUOUS
 10
7.7385
 20
0.2183
 40
0.0256
  0
CIRCLE
  8
LAYER1
 62
     7
  6
CONTINUOUS
 10
7.8714
 20
0.2133
 40
0.0153
  0
CIRCLE
  8
LAYER1
 62
     7
  6
CONTINUOUS
 10
7.5569
 20
0.3229
 40
0.0181
  0
CIRCLE
  8
LAYER1
 62
     7
  6
CONTINUOUS
 10
7.2838
 20
-0.0659
 40
0.0179
  0
CIRCLE
  8
LAYER1
 62
     7
  6
CONTINUOUS
 10
7.1201
 20
0.0745
 40
0.0153
  0
CIRCLE
  8
LAYER1
 62
     7
  6
CONTINUOUS
 10
7.2681
 20
0.2562
 40
0.0128
  0
CIRCLE
  8
LAYER1
 62
     7
  6
CONTINUOUS
 10
7.3548
 20
0.4505
 40
0.0236
  0
CIRCLE
  8
LAYER1
 62
     7
  6
CONTINUOUS
 10
7.7996
 20
0.4637
 40
0.0204
  0
CIRCLE
  8
LAYER1
 62
     7
  6
CONTINUOUS
 10
7.8277
 20
0.5021
 40
0.0181
  0
CIRCLE
  8
LAYER1
 62
     7
  6
CONTINUOUS
 10
7.0966
 20
0.5141
 40
0.0164
  0
ARC
  8
LAYER1
 62
     7
  6
CONTINUOUS
 10
7.0532
 20
0.5243
 40
0.0102
 50
-90.0775
 51
90.0775
  0
ARC
  8
LAYER1
 62
     7
  6
CONTINUOUS
 10
7.0532
 20
0.5243
 40
0.0102
 50
-113.7541
 51
-90.0775
  0
ARC
  8
LAYER1
 62
     7
  6
CONTINUOUS
 10
7.3002
 20
-0.4207
 40
0.0281
 50
-42.9642
 51
-137.0408
  0
ARC
  8
LAYER1
 62
     7
  6
CONTINUOUS
 10
7.6558
 20
-0.4580
 40
0.0284
 50
116.6989
 51
140.2359
  0
ARC
  8
LAYER1
 62
     7
  6
CONTINUOUS
 10
7.6558
 20
-0.4580
 40
0.0284
 50
39.7633
 51
116.6992
  0
POLYLINE
  8
LAYER1
 62
     7
 66
     1
  6
CONTINUOUS
  0
VERTEX
  8
LAYER1
 62
     7
  6
CONTINUOUS
 10
7.0501
 20
0.5426
  0
VERTEX
  8
LAYER1
 62
     7
  6
CONTINUOUS
 10
7.0505
 20
0.5417
  0
VERTEX
  8
LAYER1
 62
     7
  6
CONTINUOUS
 10
7.0508
 20
0.5409
  0
VERTEX
  8
LAYER1
 62
     7
  6
CONTINUOUS
 10
7.0511
 20
0.5400
  0
VERTEX
  8
LAYER1
 62
     7
  6
CONTINUOUS
 10
7.0514
 20
0.5391
  0
VERTEX
  8
LAYER1
 62
     7
  6
CONTINUOUS
 10
7.0517
 20
0.5383
  0
VERTEX
  8
LAYER1
 62
     7
  6
CONTINUOUS
 10
7.0520
 20
0.5376
  0
VERTEX
  8
LAYER1
 62
     7
  6
CONTINUOUS
 10
7.0523
 20
0.5369
  0
VERTEX
  8
LAYER1
 62
     7
  6
CONTINUOUS
 10
7.0525
 20
0.5363
  0
VERTEX
  8
LAYER1
 62
     7
  6
CONTINUOUS
 10
7.0527
 20
0.5357
  0
VERTEX
  8
LAYER1
 62
     7
  6
CONTINUOUS
 10
7.0529
 20
0.5352
  0
VERTEX
  8
LAYER1
 62
     7
  6
CONTINUOUS
 10
7.0530
 20
0.5348
  0
VERTEX
  8
LAYER1
 62
     7
  6
CONTINUOUS
 10
7.0531
 20
0.5345
  0
VERTEX
  8
LAYER1
 62
     7
  6
CONTINUOUS
 10
7.0532
 20
0.5344
  0
VERTEX
  8
LAYER1
 62
     7
  6
CONTINUOUS
 10
7.0532
 20
0.5344
  0
VERTEX
  8
LAYER1
 62
     7
  6
CONTINUOUS
 10
7.0532
 20
0.5343
  0
VERTEX
  8
LAYER1
 62
     7
  6
CONTINUOUS
 10
7.0532
 20
0.5343
  0
VERTEX
  8
LAYER1
 62
     7
  6
CONTINUOUS
 10
7.0532
 20
0.5343
  0
VERTEX
  8
LAYER1
 62
     7
  6
CONTINUOUS
 10
7.0532
 20
0.5343
  0
VERTEX
  8
LAYER1
 62
     7
  6
CONTINUOUS
 10
7.0532
 20
0.5343
  0
VERTEX
  8
LAYER1
 62
     7
  6
CONTINUOUS
 10
7.0532
 20
0.5343
  0
VERTEX
  8
LAYER1
 62
     7
  6
CONTINUOUS
 10
7.0532
 20
0.5344
  0
VERTEX
  8
LAYER1
 62
     7
  6
CONTINUOUS
 10
7.0532
 20
0.5344
  0
VERTEX
  8
LAYER1
 62
     7
  6
CONTINUOUS
 10
7.0532
 20
0.5345
  0
VERTEX
  8
LAYER1
 62
     7
  6
CONTINUOUS
 10
7.0531
 20
0.5345
  0
SEQEND
  8
LAYER1
  0
POLYLINE
  8
LAYER1
 62
     7
 66
     1
  6
CONTINUOUS
  0
VERTEX
  8
LAYER1
 62
     7
  6
CONTINUOUS
 10
7.0730
 20
0.5426
  0
VERTEX
  8
LAYER1
 62
     7
  6
CONTINUOUS
 10
7.0734
 20
0.5406
  0
VERTEX
  8
LAYER1
 62
     7
  6
CONTINUOUS
 10
7.0737
 20
0.5386
  0
VERTEX
  8
LAYER1
 62
     7
  6
CONTINUOUS
 10
7.0740
 20
0.5366
  0
VERTEX
  8
LAYER1
 62
     7
  6
CONTINUOUS
 10
7.0743
 20
0.5346
  0
VERTEX
  8
LAYER1
 62
     7
  6
CONTINUOUS
 10
7.0745
 20
0.5326
  0
VERTEX
  8
LAYER1
 62
     7
  6
CONTINUOUS
 10
7.0746
 20
0.5306
  0
VERTEX
  8
LAYER1
 62
     7
  6
CONTINUOUS
 10
7.0747
 20
0.5287
  0
VERTEX
  8
LAYER1
 62
     7
  6
CONTINUOUS
 10
7.0747
 20
0.5267
  0
VERTEX
  8
LAYER1
 62
     7
  6
CONTINUOUS
 10
7.0746
 20
0.5248
  0
VERTEX
  8
LAYER1
 62
     7
  6
CONTINUOUS
 10
7.0744
 20
0.5229
  0
VERTEX
  8
LAYER1
 62
     7
  6
CONTINUOUS
 10
7.0741
 20
0.5211
  0
VERTEX
  8
LAYER1
 62
     7
  6
CONTINUOUS
 10
7.0736
 20
0.5192
  0
VERTEX
  8
LAYER1
 62
     7
  6
CONTINUOUS
 10
7.0731
 20
0.5178
  0
VERTEX
  8
LAYER1
 62
     7
  6
CONTINUOUS
 10
7.0726
 20
0.5164
  0
VERTEX
  8
LAYER1
 62
     7
  6
CONTINUOUS
 10
7.0719
 20
0.5150
  0
VERTEX
  8
LAYER1
 62
     7
  6
CONTINUOUS
 10
7.0712
 20
0.5137
  0
VERTEX
  8
LAYER1
 62
     7
  6
CONTINUOUS
 10
7.0704
 20
0.5124
  0
VERTEX
  8
LAYER1
 62
     7
  6
CONTINUOUS
 10
7.0696
 20
0.5111
  0
VERTEX
  8
LAYER1
 62
     7
  6
CONTINUOUS
 10
7.0687
 20
0.5098
  0
VERTEX
  8
LAYER1
 62
     7
  6
CONTINUOUS
 10
7.0677
 20
0.5085
  0
VERTEX
  8
LAYER1
 62
     7
  6
CONTINUOUS
 10
7.0667
 20
0.5073
  0
VERTEX
  8
LAYER1
 62
     7
  6
CONTINUOUS
 10
7.0656
 20
0.5061
  0
VERTEX
  8
LAYER1
 62
     7
  6
CONTINUOUS
 10
7.0645
 20
0.5050
  0
VERTEX
  8
LAYER1
 62
     7
  6
CONTINUOUS
 10
7.0634
 20
0.5039
  0
VERTEX
  8
LAYER1
 62
     7
  6
CONTINUOUS
 10
7.0625
 20
0.5030
  0
VERTEX
  8
LAYER1
 62
     7
  6
CONTINUOUS
 10
7.0616
 20
0.5022
  0
VERTEX
  8
LAYER1
 62
     7
  6
CONTINUOUS
 10
7.0606
 20
0.5014
  0
VERTEX
  8
LAYER1
 62
     7
  6
CONTINUOUS
 10
7.0597
 20
0.5005
  0
VERTEX
  8
LAYER1
 62
     7
  6
CONTINUOUS
 10
7.0588
 20
0.4997
  0
VERTEX
  8
LAYER1
 62
     7
  6
CONTINUOUS
 10
7.0579
 20
0.4989
  0
VERTEX
  8
LAYER1
 62
     7
  6
CONTINUOUS
 10
7.0570
 20
0.4981
  0
VERTEX
  8
LAYER1
 62
     7
  6
CONTINUOUS
 10
7.0561
 20
0.4972
  0
VERTEX
  8
LAYER1
 62
     7
  6
CONTINUOUS
 10
7.0553
 20
0.4964
  0
VERTEX
  8
LAYER1
 62
     7
  6
CONTINUOUS
 10
7.0546
 20
0.4955
  0
VERTEX
  8
LAYER1
 62
     7
  6
CONTINUOUS
 10
7.0538
 20
0.4946
  0
VERTEX
  8
LAYER1
 62
     7
  6
CONTINUOUS
 10
7.0532
 20
0.4936
  0
VERTEX
  8
LAYER1
 62
     7
  6
CONTINUOUS
 10
7.0523
 20
0.4921
  0
VERTEX
  8
LAYER1
 62
     7
  6
CONTINUOUS
 10
7.0515
 20
0.4905
  0
VERTEX
  8
LAYER1
 62
     7
  6
CONTINUOUS
 10
7.0509
 20
0.4888
  0
VERTEX
  8
LAYER1
 62
     7
  6
CONTINUOUS
 10
7.0504
 20
0.4871
  0
VERTEX
  8
LAYER1
 62
     7
  6
CONTINUOUS
 10
7.0500
 20
0.4853
  0
VERTEX
  8
LAYER1
 62
     7
  6
CONTINUOUS
 10
7.0497
 20
0.4834
  0
VERTEX
  8
LAYER1
 62
     7
  6
CONTINUOUS
 10
7.0495
 20
0.4815
  0
VERTEX
  8
LAYER1
 62
     7
  6
CONTINUOUS
 10
7.0493
 20
0.4796
  0
VERTEX
  8
LAYER1
 62
     7
  6
CONTINUOUS
 10
7.0492
 20
0.4776
  0
VERTEX
  8
LAYER1
 62
     7
  6
CONTINUOUS
 10
7.0491
 20
0.4756
  0
VERTEX
  8
LAYER1
 62
     7
  6
CONTINUOUS
 10
7.0491
 20
0.4736
  0
VERTEX
  8
LAYER1
 62
     7
  6
CONTINUOUS
 10
7.0490
 20
0.4716
  0
SEQEND
  8
LAYER1
  0
POLYLINE
  8
LAYER1
 62
     7
 66
     1
  6
CONTINUOUS
  0
VERTEX
  8
LAYER1
 62
     7
  6
CONTINUOUS
 10
7.0490
 20
0.4716
  0
VERTEX
  8
LAYER1
 62
     7
  6
CONTINUOUS
 10
7.0490
 20
0.4716
  0
VERTEX
  8
LAYER1
 62
     7
  6
CONTINUOUS
 10
7.0490
 20
0.4716
  0
VERTEX
  8
LAYER1
 62
     7
  6
CONTINUOUS
 10
7.0490
 20
0.4716
  0
VERTEX
  8
LAYER1
 62
     7
  6
CONTINUOUS
 10
7.0490
 20
0.4716
  0
VERTEX
  8
LAYER1
 62
     7
  6
CONTINUOUS
 10
7.0490
 20
0.4716
  0
VERTEX
  8
LAYER1
 62
     7
  6
CONTINUOUS
 10
7.0490
 20
0.4716
  0
VERTEX
  8
LAYER1
 62
     7
  6
CONTINUOUS
 10
7.0490
 20
0.4716
  0
VERTEX
  8
LAYER1
 62
     7
  6
CONTINUOUS
 10
7.0490
 20
0.4716
  0
VERTEX
  8
LAYER1
 62
     7
  6
CONTINUOUS
 10
7.0490
 20
0.4716
  0
VERTEX
  8
LAYER1
 62
     7
  6
CONTINUOUS
 10
7.0490
 20
0.4716
  0
VERTEX
  8
LAYER1
 62
     7
  6
CONTINUOUS
 10
7.0490
 20
0.4716
  0
VERTEX
  8
LAYER1
 62
     7
  6
CONTINUOUS
 10
7.0490
 20
0.4716
  0
VERTEX
  8
LAYER1
 62
     7
  6
CONTINUOUS
 10
7.0490
 20
0.4716
  0
VERTEX
  8
LAYER1
 62
     7
  6
CONTINUOUS
 10
7.0490
 20
0.4716
  0
VERTEX
  8
LAYER1
 62
     7
  6
CONTINUOUS
 10
7.0490
 20
0.4716
  0
VERTEX
  8
LAYER1
 62
     7
  6
CONTINUOUS
 10
7.0490
 20
0.4716
  0
VERTEX
  8
LAYER1
 62
     7
  6
CONTINUOUS
 10
7.0490
 20
0.4716
  0
VERTEX
  8
LAYER1
 62
     7
  6
CONTINUOUS
 10
7.0490
 20
0.4716
  0
VERTEX
  8
LAYER1
 62
     7
  6
CONTINUOUS
 10
7.0490
 20
0.4716
  0
VERTEX
  8
LAYER1
 62
     7
  6
CONTINUOUS
 10
7.0490
 20
0.4716
  0
VERTEX
  8
LAYER1
 62
     7
  6
CONTINUOUS
 10
7.0490
 20
0.4716
  0
VERTEX
  8
LAYER1
 62
     7
  6
CONTINUOUS
 10
7.0490
 20
0.4716
  0
VERTEX
  8
LAYER1
 62
     7
  6
CONTINUOUS
 10
7.0490
 20
0.4716
  0
VERTEX
  8
LAYER1
 62
     7
  6
CONTINUOUS
 10
7.0490
 20
0.4716
  0
SEQEND
  8
LAYER1
  0
POLYLINE
  8
LAYER1
 62
     7
 66
     1
  6
CONTINUOUS
  0
VERTEX
  8
LAYER1
 62
     7
  6
CONTINUOUS
 10
7.0490
 20
0.4716
  0
VERTEX
  8
LAYER1
 62
     7
  6
CONTINUOUS
 10
7.0490
 20
0.4716
  0
VERTEX
  8
LAYER1
 62
     7
  6
CONTINUOUS
 10
7.0490
 20
0.4716
  0
VERTEX
  8
LAYER1
 62
     7
  6
CONTINUOUS
 10
7.0490
 20
0.4716
  0
VERTEX
  8
LAYER1
 62
     7
  6
CONTINUOUS
 10
7.0490
 20
0.4716
  0
VERTEX
  8
LAYER1
 62
     7
  6
CONTINUOUS
 10
7.0490
 20
0.4716
  0
VERTEX
  8
LAYER1
 62
     7
  6
CONTINUOUS
 10
7.0490
 20
0.4716
  0
VERTEX
  8
LAYER1
 62
     7
  6
CONTINUOUS
 10
7.0490
 20
0.4716
  0
VERTEX
  8
LAYER1
 62
     7
  6
CONTINUOUS
 10
7.0490
 20
0.4716
  0
VERTEX
  8
LAYER1
 62
     7
  6
CONTINUOUS
 10
7.0490
 20
0.4716
  0
VERTEX
  8
LAYER1
 62
     7
  6
CONTINUOUS
 10
7.0490
 20
0.4716
  0
VERTEX
  8
LAYER1
 62
     7
  6
CONTINUOUS
 10
7.0490
 20
0.4716
  0
VERTEX
  8
LAYER1
 62
     7
  6
CONTINUOUS
 10
7.0490
 20
0.4716
  0
VERTEX
  8
LAYER1
 62
     7
  6
CONTINUOUS
 10
7.0490
 20
0.4719
  0
VERTEX
  8
LAYER1
 62
     7
  6
CONTINUOUS
 10
7.0490
 20
0.4721
  0
VERTEX
  8
LAYER1
 62
     7
  6
CONTINUOUS
 10
7.0490
 20
0.4723
  0
VERTEX
  8
LAYER1
 62
     7
  6
CONTINUOUS
 10
7.0490
 20
0.4724
  0
VERTEX
  8
LAYER1
 62
     7
  6
CONTINUOUS
 10
7.0490
 20
0.4724
  0
VERTEX
  8
LAYER1
 62
     7
  6
CONTINUOUS
 10
7.0490
 20
0.4724
  0
VERTEX
  8
LAYER1
 62
     7
  6
CONTINUOUS
 10
7.0490
 20
0.4723
  0
VERTEX
  8
LAYER1
 62
     7
  6
CONTINUOUS
 10
7.0490
 20
0.4722
  0
VERTEX
  8
LAYER1
 62
     7
  6
CONTINUOUS
 10
7.0490
 20
0.4721
  0
VERTEX
  8
LAYER1
 62
     7
  6
CONTINUOUS
 10
7.0490
 20
0.4719
  0
VERTEX
  8
LAYER1
 62
     7
  6
CONTINUOUS
 10
7.0490
 20
0.4718
  0
VERTEX
  8
LAYER1
 62
     7
  6
CONTINUOUS
 10
7.0490
 20
0.4716
  0
SEQEND
  8
LAYER1
  0
POLYLINE
  8
LAYER1
 62
     7
 66
     1
  6
CONTINUOUS
  0
VERTEX
  8
LAYER1
 62
     7
  6
CONTINUOUS
 10
7.0490
 20
0.4716
  0
VERTEX
  8
LAYER1
 62
     7
  6
CONTINUOUS
 10
7.0490
 20
0.4716
  0
VERTEX
  8
LAYER1
 62
     7
  6
CONTINUOUS
 10
7.0490
 20
0.4716
  0
VERTEX
  8
LAYER1
 62
     7
  6
CONTINUOUS
 10
7.0490
 20
0.4716
  0
VERTEX
  8
LAYER1
 62
     7
  6
CONTINUOUS
 10
7.0490
 20
0.4716
  0
VERTEX
  8
LAYER1
 62
     7
  6
CONTINUOUS
 10
7.0490
 20
0.4716
  0
VERTEX
  8
LAYER1
 62
     7
  6
CONTINUOUS
 10
7.0490
 20
0.4716
  0
VERTEX
  8
LAYER1
 62
     7
  6
CONTINUOUS
 10
7.0490
 20
0.4716
  0
VERTEX
  8
LAYER1
 62
     7
  6
CONTINUOUS
 10
7.0490
 20
0.4716
  0
VERTEX
  8
LAYER1
 62
     7
  6
CONTINUOUS
 10
7.0490
 20
0.4716
  0
VERTEX
  8
LAYER1
 62
     7
  6
CONTINUOUS
 10
7.0490
 20
0.4716
  0
VERTEX
  8
LAYER1
 62
     7
  6
CONTINUOUS
 10
7.0490
 20
0.4716
  0
VERTEX
  8
LAYER1
 62
     7
  6
CONTINUOUS
 10
7.0490
 20
0.4716
  0
VERTEX
  8
LAYER1
 62
     7
  6
CONTINUOUS
 10
7.0490
 20
0.4716
  0
VERTEX
  8
LAYER1
 62
     7
  6
CONTINUOUS
 10
7.0490
 20
0.4716
  0
VERTEX
  8
LAYER1
 62
     7
  6
CONTINUOUS
 10
7.0490
 20
0.4716
  0
VERTEX
  8
LAYER1
 62
     7
  6
CONTINUOUS
 10
7.0490
 20
0.4716
  0
VERTEX
  8
LAYER1
 62
     7
  6
CONTINUOUS
 10
7.0490
 20
0.4716
  0
VERTEX
  8
LAYER1
 62
     7
  6
CONTINUOUS
 10
7.0490
 20
0.4716
  0
VERTEX
  8
LAYER1
 62
     7
  6
CONTINUOUS
 10
7.0490
 20
0.4716
  0
VERTEX
  8
LAYER1
 62
     7
  6
CONTINUOUS
 10
7.0490
 20
0.4716
  0
VERTEX
  8
LAYER1
 62
     7
  6
CONTINUOUS
 10
7.0490
 20
0.4716
  0
VERTEX
  8
LAYER1
 62
     7
  6
CONTINUOUS
 10
7.0490
 20
0.4716
  0
VERTEX
  8
LAYER1
 62
     7
  6
CONTINUOUS
 10
7.0490
 20
0.4716
  0
VERTEX
  8
LAYER1
 62
     7
  6
CONTINUOUS
 10
7.0490
 20
0.4716
  0
SEQEND
  8
LAYER1
  0
POLYLINE
  8
LAYER1
 62
     7
 66
     1
  6
CONTINUOUS
  0
VERTEX
  8
LAYER1
 62
     7
  6
CONTINUOUS
 10
7.0490
 20
0.4716
  0
VERTEX
  8
LAYER1
 62
     7
  6
CONTINUOUS
 10
7.0490
 20
0.4716
  0
VERTEX
  8
LAYER1
 62
     7
  6
CONTINUOUS
 10
7.0490
 20
0.4716
  0
VERTEX
  8
LAYER1
 62
     7
  6
CONTINUOUS
 10
7.0490
 20
0.4716
  0
VERTEX
  8
LAYER1
 62
     7
  6
CONTINUOUS
 10
7.0490
 20
0.4716
  0
VERTEX
  8
LAYER1
 62
     7
  6
CONTINUOUS
 10
7.0490
 20
0.4716
  0
VERTEX
  8
LAYER1
 62
     7
  6
CONTINUOUS
 10
7.0490
 20
0.4716
  0
VERTEX
  8
LAYER1
 62
     7
  6
CONTINUOUS
 10
7.0490
 20
0.4716
  0
VERTEX
  8
LAYER1
 62
     7
  6
CONTINUOUS
 10
7.0490
 20
0.4716
  0
VERTEX
  8
LAYER1
 62
     7
  6
CONTINUOUS
 10
7.0490
 20
0.4716
  0
VERTEX
  8
LAYER1
 62
     7
  6
CONTINUOUS
 10
7.0490
 20
0.4716
  0
VERTEX
  8
LAYER1
 62
     7
  6
CONTINUOUS
 10
7.0490
 20
0.4716
  0
VERTEX
  8
LAYER1
 62
     7
  6
CONTINUOUS
 10
7.0490
 20
0.4716
  0
VERTEX
  8
LAYER1
 62
     7
  6
CONTINUOUS
 10
7.0490
 20
0.4716
  0
VERTEX
  8
LAYER1
 62
     7
  6
CONTINUOUS
 10
7.0490
 20
0.4716
  0
VERTEX
  8
LAYER1
 62
     7
  6
CONTINUOUS
 10
7.0490
 20
0.4716
  0
VERTEX
  8
LAYER1
 62
     7
  6
CONTINUOUS
 10
7.0490
 20
0.4716
  0
VERTEX
  8
LAYER1
 62
     7
  6
CONTINUOUS
 10
7.0490
 20
0.4716
  0
VERTEX
  8
LAYER1
 62
     7
  6
CONTINUOUS
 10
7.0490
 20
0.4716
  0
VERTEX
  8
LAYER1
 62
     7
  6
CONTINUOUS
 10
7.0490
 20
0.4716
  0
VERTEX
  8
LAYER1
 62
     7
  6
CONTINUOUS
 10
7.0490
 20
0.4716
  0
VERTEX
  8
LAYER1
 62
     7
  6
CONTINUOUS
 10
7.0490
 20
0.4716
  0
VERTEX
  8
LAYER1
 62
     7
  6
CONTINUOUS
 10
7.0490
 20
0.4716
  0
VERTEX
  8
LAYER1
 62
     7
  6
CONTINUOUS
 10
7.0490
 20
0.4716
  0
VERTEX
  8
LAYER1
 62
     7
  6
CONTINUOUS
 10
7.0490
 20
0.4716
  0
SEQEND
  8
LAYER1
  0
POLYLINE
  8
LAYER1
 62
     7
 66
     1
  6
CONTINUOUS
  0
VERTEX
  8
LAYER1
 62
     7
  6
CONTINUOUS
 10
7.0501
 20
0.5426
  0
VERTEX
  8
LAYER1
 62
     7
  6
CONTINUOUS
 10
7.0501
 20
0.5426
  0
VERTEX
  8
LAYER1
 62
     7
  6
CONTINUOUS
 10
7.0501
 20
0.5426
  0
VERTEX
  8
LAYER1
 62
     7
  6
CONTINUOUS
 10
7.0501
 20
0.5426
  0
VERTEX
  8
LAYER1
 62
     7
  6
CONTINUOUS
 10
7.0501
 20
0.5426
  0
VERTEX
  8
LAYER1
 62
     7
  6
CONTINUOUS
 10
7.0501
 20
0.5426
  0
VERTEX
  8
LAYER1
 62
     7
  6
CONTINUOUS
 10
7.0501
 20
0.5426
  0
VERTEX
  8
LAYER1
 62
     7
  6
CONTINUOUS
 10
7.0501
 20
0.5426
  0
VERTEX
  8
LAYER1
 62
     7
  6
CONTINUOUS
 10
7.0501
 20
0.5426
  0
VERTEX
  8
LAYER1
 62
     7
  6
CONTINUOUS
 10
7.0501
 20
0.5426
  0
VERTEX
  8
LAYER1
 62
     7
  6
CONTINUOUS
 10
7.0501
 20
0.5426
  0
VERTEX
  8
LAYER1
 62
     7
  6
CONTINUOUS
 10
7.0501
 20
0.5426
  0
VERTEX
  8
LAYER1
 62
     7
  6
CONTINUOUS
 10
7.0501
 20
0.5426
  0
VERTEX
  8
LAYER1
 62
     7
  6
CONTINUOUS
 10
7.0501
 20
0.5426
  0
VERTEX
  8
LAYER1
 62
     7
  6
CONTINUOUS
 10
7.0501
 20
0.5426
  0
VERTEX
  8
LAYER1
 62
     7
  6
CONTINUOUS
 10
7.0501
 20
0.5426
  0
VERTEX
  8
LAYER1
 62
     7
  6
CONTINUOUS
 10
7.0501
 20
0.5426
  0
VERTEX
  8
LAYER1
 62
     7
  6
CONTINUOUS
 10
7.0501
 20
0.5426
  0
VERTEX
  8
LAYER1
 62
     7
  6
CONTINUOUS
 10
7.0501
 20
0.5426
  0
VERTEX
  8
LAYER1
 62
     7
  6
CONTINUOUS
 10
7.0501
 20
0.5426
  0
VERTEX
  8
LAYER1
 62
     7
  6
CONTINUOUS
 10
7.0501
 20
0.5426
  0
VERTEX
  8
LAYER1
 62
     7
  6
CONTINUOUS
 10
7.0501
 20
0.5426
  0
VERTEX
  8
LAYER1
 62
     7
  6
CONTINUOUS
 10
7.0501
 20
0.5426
  0
VERTEX
  8
LAYER1
 62
     7
  6
CONTINUOUS
 10
7.0501
 20
0.5426
  0
VERTEX
  8
LAYER1
 62
     7
  6
CONTINUOUS
 10
7.0501
 20
0.5426
  0
SEQEND
  8
LAYER1
  0
POLYLINE
  8
LAYER1
 62
     7
 66
     1
  6
CONTINUOUS
  0
VERTEX
  8
LAYER1
 62
     7
  6
CONTINUOUS
 10
7.0501
 20
0.5426
  0
VERTEX
  8
LAYER1
 62
     7
  6
CONTINUOUS
 10
7.0501
 20
0.5426
  0
VERTEX
  8
LAYER1
 62
     7
  6
CONTINUOUS
 10
7.0501
 20
0.5426
  0
VERTEX
  8
LAYER1
 62
     7
  6
CONTINUOUS
 10
7.0501
 20
0.5426
  0
VERTEX
  8
LAYER1
 62
     7
  6
CONTINUOUS
 10
7.0501
 20
0.5426
  0
VERTEX
  8
LAYER1
 62
     7
  6
CONTINUOUS
 10
7.0501
 20
0.5426
  0
VERTEX
  8
LAYER1
 62
     7
  6
CONTINUOUS
 10
7.0501
 20
0.5426
  0
VERTEX
  8
LAYER1
 62
     7
  6
CONTINUOUS
 10
7.0501
 20
0.5426
  0
VERTEX
  8
LAYER1
 62
     7
  6
CONTINUOUS
 10
7.0501
 20
0.5426
  0
VERTEX
  8
LAYER1
 62
     7
  6
CONTINUOUS
 10
7.0501
 20
0.5426
  0
VERTEX
  8
LAYER1
 62
     7
  6
CONTINUOUS
 10
7.0501
 20
0.5426
  0
VERTEX
  8
LAYER1
 62
     7
  6
CONTINUOUS
 10
7.0501
 20
0.5426
  0
VERTEX
  8
LAYER1
 62
     7
  6
CONTINUOUS
 10
7.0501
 20
0.5426
  0
VERTEX
  8
LAYER1
 62
     7
  6
CONTINUOUS
 10
7.0505
 20
0.5426
  0
VERTEX
  8
LAYER1
 62
     7
  6
CONTINUOUS
 10
7.0507
 20
0.5426
  0
VERTEX
  8
LAYER1
 62
     7
  6
CONTINUOUS
 10
7.0509
 20
0.5426
  0
VERTEX
  8
LAYER1
 62
     7
  6
CONTINUOUS
 10
7.0510
 20
0.5426
  0
VERTEX
  8
LAYER1
 62
     7
  6
CONTINUOUS
 10
7.0510
 20
0.5426
  0
VERTEX
  8
LAYER1
 62
     7
  6
CONTINUOUS
 10
7.0510
 20
0.5426
  0
VERTEX
  8
LAYER1
 62
     7
  6
CONTINUOUS
 10
7.0509
 20
0.5426
  0
VERTEX
  8
LAYER1
 62
     7
  6
CONTINUOUS
 10
7.0508
 20
0.5426
  0
VERTEX
  8
LAYER1
 62
     7
  6
CONTINUOUS
 10
7.0507
 20
0.5426
  0
VERTEX
  8
LAYER1
 62
     7
  6
CONTINUOUS
 10
7.0505
 20
0.5426
  0
VERTEX
  8
LAYER1
 62
     7
  6
CONTINUOUS
 10
7.0503
 20
0.5426
  0
VERTEX
  8
LAYER1
 62
     7
  6
CONTINUOUS
 10
7.0501
 20
0.5426
  0
SEQEND
  8
LAYER1
  0
ARC
  8
LAYER1
 62
     7
  6
CONTINUOUS
 10
7.0532
 20
0.5243
 40
0.0102
 50
-90.0775
 51
113.7545
  0
ARC
  8
LAYER1
 62
     7
  6
CONTINUOUS
 10
7.0532
 20
0.5243
 40
0.0102
 50
-113.7541
 51
113.7543
  0
ARC
  8
LAYER1
 62
     7
  6
CONTINUOUS
 10
7.3002
 20
-0.4207
 40
0.0281
 50
-46.5098
 51
-42.9649
  0
ARC
  8
LAYER1
 62
     7
  6
CONTINUOUS
 10
7.3002
 20
-0.4207
 40
0.0281
 50
-137.0411
 51
-133.4899
  0
ARC
  8
LAYER1
 62
     7
  6
CONTINUOUS
 10
7.6558
 20
-0.4580
 40
0.0284
 50
140.2361
 51
143.4024
  0
ARC
  8
LAYER1
 62
     7
  6
CONTINUOUS
 10
7.6558
 20
-0.4580
 40
0.0284
 50
36.5987
 51
39.7633
  0
POLYLINE
  8
LAYER10
 62
     1
 66
     1
  6
CONTINUOUS
  0
VERTEX
  8
LAYER10
 62
     1
  6
CONTINUOUS
 10
8.0340
 20
-0.2044
  0
VERTEX
  8
LAYER10
 62
     1
  6
CONTINUOUS
 10
8.0310
 20
-0.2050
  0
VERTEX
  8
LAYER10
 62
     1
  6
CONTINUOUS
 10
8.0279
 20
-0.2056
  0
VERTEX
  8
LAYER10
 62
     1
  6
CONTINUOUS
 10
8.0249
 20
-0.2062
  0
VERTEX
  8
LAYER10
 62
     1
  6
CONTINUOUS
 10
8.0219
 20
-0.2066
  0
VERTEX
  8
LAYER10
 62
     1
  6
CONTINUOUS
 10
8.0189
 20
-0.2070
  0
VERTEX
  8
LAYER10
 62
     1
  6
CONTINUOUS
 10
8.0160
 20
-0.2073
  0
VERTEX
  8
LAYER10
 62
     1
  6
CONTINUOUS
 10
8.0131
 20
-0.2075
  0
VERTEX
  8
LAYER10
 62
     1
  6
CONTINUOUS
 10
8.0103
 20
-0.2075
  0
VERTEX
  8
LAYER10
 62
     1
  6
CONTINUOUS
 10
8.0075
 20
-0.2074
  0
VERTEX
  8
LAYER10
 62
     1
  6
CONTINUOUS
 10
8.0048
 20
-0.2070
  0
VERTEX
  8
LAYER10
 62
     1
  6
CONTINUOUS
 10
8.0022
 20
-0.2065
  0
VERTEX
  8
LAYER10
 62
     1
  6
CONTINUOUS
 10
7.9997
 20
-0.2057
  0
VERTEX
  8
LAYER10
 62
     1
  6
CONTINUOUS
 10
7.9958
 20
-0.2041
  0
VERTEX
  8
LAYER10
 62
     1
  6
CONTINUOUS
 10
7.9922
 20
-0.2019
  0
VERTEX
  8
LAYER10
 62
     1
  6
CONTINUOUS
 10
7.9888
 20
-0.1992
  0
VERTEX
  8
LAYER10
 62
     1
  6
CONTINUOUS
 10
7.9854
 20
-0.1962
  0
VERTEX
  8
LAYER10
 62
     1
  6
CONTINUOUS
 10
7.9822
 20
-0.1930
  0
VERTEX
  8
LAYER10
 62
     1
  6
CONTINUOUS
 10
7.9790
 20
-0.1895
  0
VERTEX
  8
LAYER10
 62
     1
  6
CONTINUOUS
 10
7.9758
 20
-0.1860
  0
VERTEX
  8
LAYER10
 62
     1
  6
CONTINUOUS
 10
7.9726
 20
-0.1824
  0
VERTEX
  8
LAYER10
 62
     1
  6
CONTINUOUS
 10
7.9693
 20
-0.1790
  0
VERTEX
  8
LAYER10
 62
     1
  6
CONTINUOUS
 10
7.9659
 20
-0.1757
  0
VERTEX
  8
LAYER10
 62
     1
  6
CONTINUOUS
 10
7.9624
 20
-0.1727
  0
VERTEX
  8
LAYER10
 62
     1
  6
CONTINUOUS
 10
7.9587
 20
-0.1700
  0
VERTEX
  8
LAYER10
 62
     1
  6
CONTINUOUS
 10
7.9556
 20
-0.1681
  0
VERTEX
  8
LAYER10
 62
     1
  6
CONTINUOUS
 10
7.9524
 20
-0.1665
  0
VERTEX
  8
LAYER10
 62
     1
  6
CONTINUOUS
 10
7.9490
 20
-0.1651
  0
VERTEX
  8
LAYER10
 62
     1
  6
CONTINUOUS
 10
7.9456
 20
-0.1638
  0
VERTEX
  8
LAYER10
 62
     1
  6
CONTINUOUS
 10
7.9421
 20
-0.1627
  0
VERTEX
  8
LAYER10
 62
     1
  6
CONTINUOUS
 10
7.9386
 20
-0.1616
  0
VERTEX
  8
LAYER10
 62
     1
  6
CONTINUOUS
 10
7.9350
 20
-0.1606
  0
VERTEX
  8
LAYER10
 62
     1
  6
CONTINUOUS
 10
7.9315
 20
-0.1596
  0
VERTEX
  8
LAYER10
 62
     1
  6
CONTINUOUS
 10
7.9280
 20
-0.1585
  0
VERTEX
  8
LAYER10
 62
     1
  6
CONTINUOUS
 10
7.9245
 20
-0.1574
  0
VERTEX
  8
LAYER10
 62
     1
  6
CONTINUOUS
 10
7.9211
 20
-0.1561
  0
VERTEX
  8
LAYER10
 62
     1
  6
CONTINUOUS
 10
7.9178
 20
-0.1547
  0
VERTEX
  8
LAYER10
 62
     1
  6
CONTINUOUS
 10
7.9156
 20
-0.1536
  0
VERTEX
  8
LAYER10
 62
     1
  6
CONTINUOUS
 10
7.9134
 20
-0.1525
  0
VERTEX
  8
LAYER10
 62
     1
  6
CONTINUOUS
 10
7.9113
 20
-0.1513
  0
VERTEX
  8
LAYER10
 62
     1
  6
CONTINUOUS
 10
7.9092
 20
-0.1500
  0
VERTEX
  8
LAYER10
 62
     1
  6
CONTINUOUS
 10
7.9071
 20
-0.1487
  0
VERTEX
  8
LAYER10
 62
     1
  6
CONTINUOUS
 10
7.9050
 20
-0.1473
  0
VERTEX
  8
LAYER10
 62
     1
  6
CONTINUOUS
 10
7.9029
 20
-0.1460
  0
VERTEX
  8
LAYER10
 62
     1
  6
CONTINUOUS
 10
7.9008
 20
-0.1446
  0
VERTEX
  8
LAYER10
 62
     1
  6
CONTINUOUS
 10
7.8987
 20
-0.1433
  0
VERTEX
  8
LAYER10
 62
     1
  6
CONTINUOUS
 10
7.8966
 20
-0.1419
  0
VERTEX
  8
LAYER10
 62
     1
  6
CONTINUOUS
 10
7.8944
 20
-0.1406
  0
VERTEX
  8
LAYER10
 62
     1
  6
CONTINUOUS
 10
7.8922
 20
-0.1394
  0
VERTEX
  8
LAYER10
 62
     1
  6
CONTINUOUS
 10
7.8896
 20
-0.1380
  0
VERTEX
  8
LAYER10
 62
     1
  6
CONTINUOUS
 10
7.8870
 20
-0.1367
  0
VERTEX
  8
LAYER10
 62
     1
  6
CONTINUOUS
 10
7.8844
 20
-0.1355
  0
VERTEX
  8
LAYER10
 62
     1
  6
CONTINUOUS
 10
7.8817
 20
-0.1343
  0
VERTEX
  8
LAYER10
 62
     1
  6
CONTINUOUS
 10
7.8790
 20
-0.1331
  0
VERTEX
  8
LAYER10
 62
     1
  6
CONTINUOUS
 10
7.8764
 20
-0.1319
  0
VERTEX
  8
LAYER10
 62
     1
  6
CONTINUOUS
 10
7.8737
 20
-0.1308
  0
VERTEX
  8
LAYER10
 62
     1
  6
CONTINUOUS
 10
7.8711
 20
-0.1295
  0
VERTEX
  8
LAYER10
 62
     1
  6
CONTINUOUS
 10
7.8686
 20
-0.1283
  0
VERTEX
  8
LAYER10
 62
     1
  6
CONTINUOUS
 10
7.8662
 20
-0.1270
  0
VERTEX
  8
LAYER10
 62
     1
  6
CONTINUOUS
 10
7.8638
 20
-0.1256
  0
VERTEX
  8
LAYER10
 62
     1
  6
CONTINUOUS
 10
7.8615
 20
-0.1241
  0
VERTEX
  8
LAYER10
 62
     1
  6
CONTINUOUS
 10
7.8592
 20
-0.1224
  0
VERTEX
  8
LAYER10
 62
     1
  6
CONTINUOUS
 10
7.8571
 20
-0.1206
  0
VERTEX
  8
LAYER10
 62
     1
  6
CONTINUOUS
 10
7.8550
 20
-0.1186
  0
VERTEX
  8
LAYER10
 62
     1
  6
CONTINUOUS
 10
7.8531
 20
-0.1165
  0
VERTEX
  8
LAYER10
 62
     1
  6
CONTINUOUS
 10
7.8513
 20
-0.1142
  0
VERTEX
  8
LAYER10
 62
     1
  6
CONTINUOUS
 10
7.8496
 20
-0.1118
  0
VERTEX
  8
LAYER10
 62
     1
  6
CONTINUOUS
 10
7.8479
 20
-0.1092
  0
VERTEX
  8
LAYER10
 62
     1
  6
CONTINUOUS
 10
7.8464
 20
-0.1064
  0
VERTEX
  8
LAYER10
 62
     1
  6
CONTINUOUS
 10
7.8450
 20
-0.1035
  0
VERTEX
  8
LAYER10
 62
     1
  6
CONTINUOUS
 10
7.8436
 20
-0.1003
  0
VERTEX
  8
LAYER10
 62
     1
  6
CONTINUOUS
 10
7.8423
 20
-0.0970
  0
VERTEX
  8
LAYER10
 62
     1
  6
CONTINUOUS
 10
7.8411
 20
-0.0934
  0
VERTEX
  8
LAYER10
 62
     1
  6
CONTINUOUS
 10
7.8371
 20
-0.0792
  0
VERTEX
  8
LAYER10
 62
     1
  6
CONTINUOUS
 10
7.8338
 20
-0.0630
  0
VERTEX
  8
LAYER10
 62
     1
  6
CONTINUOUS
 10
7.8312
 20
-0.0457
  0
VERTEX
  8
LAYER10
 62
     1
  6
CONTINUOUS
 10
7.8292
 20
-0.0279
  0
VERTEX
  8
LAYER10
 62
     1
  6
CONTINUOUS
 10
7.8277
 20
-0.0105
  0
VERTEX
  8
LAYER10
 62
     1
  6
CONTINUOUS
 10
7.8268
 20
0.0058
  0
VERTEX
  8
LAYER10
 62
     1
  6
CONTINUOUS
 10
7.8264
 20
0.0203
  0
VERTEX
  8
LAYER10
 62
     1
  6
CONTINUOUS
 10
7.8265
 20
0.0320
  0
VERTEX
  8
LAYER10
 62
     1
  6
CONTINUOUS
 10
7.8270
 20
0.0404
  0
VERTEX
  8
LAYER10
 62
     1
  6
CONTINUOUS
 10
7.8279
 20
0.0445
  0
VERTEX
  8
LAYER10
 62
     1
  6
CONTINUOUS
 10
7.8292
 20
0.0437
  0
VERTEX
  8
LAYER10
 62
     1
  6
CONTINUOUS
 10
7.8308
 20
0.0372
  0
VERTEX
  8
LAYER10
 62
     1
  6
CONTINUOUS
 10
7.8313
 20
0.0342
  0
VERTEX
  8
LAYER10
 62
     1
  6
CONTINUOUS
 10
7.8318
 20
0.0309
  0
VERTEX
  8
LAYER10
 62
     1
  6
CONTINUOUS
 10
7.8324
 20
0.0272
  0
VERTEX
  8
LAYER10
 62
     1
  6
CONTINUOUS
 10
7.8331
 20
0.0234
  0
VERTEX
  8
LAYER10
 62
     1
  6
CONTINUOUS
 10
7.8338
 20
0.0195
  0
VERTEX
  8
LAYER10
 62
     1
  6
CONTINUOUS
 10
7.8345
 20
0.0157
  0
VERTEX
  8
LAYER10
 62
     1
  6
CONTINUOUS
 10
7.8354
 20
0.0121
  0
VERTEX
  8
LAYER10
 62
     1
  6
CONTINUOUS
 10
7.8363
 20
0.0089
  0
VERTEX
  8
LAYER10
 62
     1
  6
CONTINUOUS
 10
7.8373
 20
0.0060
  0
VERTEX
  8
LAYER10
 62
     1
  6
CONTINUOUS
 10
7.8384
 20
0.0038
  0
VERTEX
  8
LAYER10
 62
     1
  6
CONTINUOUS
 10
7.8396
 20
0.0022
  0
VERTEX
  8
LAYER10
 62
     1
  6
CONTINUOUS
 10
7.8410
 20
0.0014
  0
VERTEX
  8
LAYER10
 62
     1
  6
CONTINUOUS
 10
7.8424
 20
0.0015
  0
VERTEX
  8
LAYER10
 62
     1
  6
CONTINUOUS
 10
7.8441
 20
0.0025
  0
VERTEX
  8
LAYER10
 62
     1
  6
CONTINUOUS
 10
7.8458
 20
0.0041
  0
VERTEX
  8
LAYER10
 62
     1
  6
CONTINUOUS
 10
7.8476
 20
0.0063
  0
VERTEX
  8
LAYER10
 62
     1
  6
CONTINUOUS
 10
7.8496
 20
0.0090
  0
VERTEX
  8
LAYER10
 62
     1
  6
CONTINUOUS
 10
7.8517
 20
0.0119
  0
VERTEX
  8
LAYER10
 62
     1
  6
CONTINUOUS
 10
7.8539
 20
0.0151
  0
VERTEX
  8
LAYER10
 62
     1
  6
CONTINUOUS
 10
7.8562
 20
0.0183
  0
VERTEX
  8
LAYER10
 62
     1
  6
CONTINUOUS
 10
7.8586
 20
0.0215
  0
VERTEX
  8
LAYER10
 62
     1
  6
CONTINUOUS
 10
7.8611
 20
0.0244
  0
VERTEX
  8
LAYER10
 62
     1
  6
CONTINUOUS
 10
7.8638
 20
0.0271
  0
VERTEX
  8
LAYER10
 62
     1
  6
CONTINUOUS
 10
7.8665
 20
0.0293
  0
VERTEX
  8
LAYER10
 62
     1
  6
CONTINUOUS
 10
7.8696
 20
0.0311
  0
VERTEX
  8
LAYER10
 62
     1
  6
CONTINUOUS
 10
7.8728
 20
0.0322
  0
VERTEX
  8
LAYER10
 62
     1
  6
CONTINUOUS
 10
7.8760
 20
0.0328
  0
VERTEX
  8
LAYER10
 62
     1
  6
CONTINUOUS
 10
7.8794
 20
0.0329
  0
VERTEX
  8
LAYER10
 62
     1
  6
CONTINUOUS
 10
7.8828
 20
0.0326
  0
VERTEX
  8
LAYER10
 62
     1
  6
CONTINUOUS
 10
7.8863
 20
0.0320
  0
VERTEX
  8
LAYER10
 62
     1
  6
CONTINUOUS
 10
7.8898
 20
0.0310
  0
VERTEX
  8
LAYER10
 62
     1
  6
CONTINUOUS
 10
7.8933
 20
0.0299
  0
VERTEX
  8
LAYER10
 62
     1
  6
CONTINUOUS
 10
7.8969
 20
0.0285
  0
VERTEX
  8
LAYER10
 62
     1
  6
CONTINUOUS
 10
7.9004
 20
0.0271
  0
VERTEX
  8
LAYER10
 62
     1
  6
CONTINUOUS
 10
7.9039
 20
0.0256
  0
VERTEX
  8
LAYER10
 62
     1
  6
CONTINUOUS
 10
7.9074
 20
0.0242
  0
VERTEX
  8
LAYER10
 62
     1
  6
CONTINUOUS
 10
7.9119
 20
0.0225
  0
VERTEX
  8
LAYER10
 62
     1
  6
CONTINUOUS
 10
7.9162
 20
0.0209
  0
VERTEX
  8
LAYER10
 62
     1
  6
CONTINUOUS
 10
7.9206
 20
0.0195
  0
VERTEX
  8
LAYER10
 62
     1
  6
CONTINUOUS
 10
7.9249
 20
0.0182
  0
VERTEX
  8
LAYER10
 62
     1
  6
CONTINUOUS
 10
7.9291
 20
0.0169
  0
VERTEX
  8
LAYER10
 62
     1
  6
CONTINUOUS
 10
7.9333
 20
0.0157
  0
VERTEX
  8
LAYER10
 62
     1
  6
CONTINUOUS
 10
7.9375
 20
0.0146
  0
VERTEX
  8
LAYER10
 62
     1
  6
CONTINUOUS
 10
7.9417
 20
0.0135
  0
VERTEX
  8
LAYER10
 62
     1
  6
CONTINUOUS
 10
7.9459
 20
0.0124
  0
VERTEX
  8
LAYER10
 62
     1
  6
CONTINUOUS
 10
7.9501
 20
0.0113
  0
VERTEX
  8
LAYER10
 62
     1
  6
CONTINUOUS
 10
7.9543
 20
0.0101
  0
VERTEX
  8
LAYER10
 62
     1
  6
CONTINUOUS
 10
7.9585
 20
0.0089
  0
VERTEX
  8
LAYER10
 62
     1
  6
CONTINUOUS
 10
7.9615
 20
0.0081
  0
VERTEX
  8
LAYER10
 62
     1
  6
CONTINUOUS
 10
7.9644
 20
0.0072
  0
VERTEX
  8
LAYER10
 62
     1
  6
CONTINUOUS
 10
7.9673
 20
0.0063
  0
VERTEX
  8
LAYER10
 62
     1
  6
CONTINUOUS
 10
7.9703
 20
0.0054
  0
VERTEX
  8
LAYER10
 62
     1
  6
CONTINUOUS
 10
7.9733
 20
0.0046
  0
VERTEX
  8
LAYER10
 62
     1
  6
CONTINUOUS
 10
7.9763
 20
0.0038
  0
VERTEX
  8
LAYER10
 62
     1
  6
CONTINUOUS
 10
7.9793
 20
0.0031
  0
VERTEX
  8
LAYER10
 62
     1
  6
CONTINUOUS
 10
7.9823
 20
0.0025
  0
VERTEX
  8
LAYER10
 62
     1
  6
CONTINUOUS
 10
7.9853
 20
0.0020
  0
VERTEX
  8
LAYER10
 62
     1
  6
CONTINUOUS
 10
7.9883
 20
0.0016
  0
VERTEX
  8
LAYER10
 62
     1
  6
CONTINUOUS
 10
7.9913
 20
0.0013
  0
VERTEX
  8
LAYER10
 62
     1
  6
CONTINUOUS
 10
7.9943
 20
0.0013
  0
VERTEX
  8
LAYER10
 62
     1
  6
CONTINUOUS
 10
7.9965
 20
0.0013
  0
VERTEX
  8
LAYER10
 62
     1
  6
CONTINUOUS
 10
7.9986
 20
0.0015
  0
VERTEX
  8
LAYER10
 62
     1
  6
CONTINUOUS
 10
8.0008
 20
0.0017
  0
VERTEX
  8
LAYER10
 62
     1
  6
CONTINUOUS
 10
8.0030
 20
0.0020
  0
VERTEX
  8
LAYER10
 62
     1
  6
CONTINUOUS
 10
8.0051
 20
0.0023
  0
VERTEX
  8
LAYER10
 62
     1
  6
CONTINUOUS
 10
8.0072
 20
0.0027
  0
VERTEX
  8
LAYER10
 62
     1
  6
CONTINUOUS
 10
8.0094
 20
0.0032
  0
VERTEX
  8
LAYER10
 62
     1
  6
CONTINUOUS
 10
8.0115
 20
0.0038
  0
VERTEX
  8
LAYER10
 62
     1
  6
CONTINUOUS
 10
8.0136
 20
0.0044
  0
VERTEX
  8
LAYER10
 62
     1
  6
CONTINUOUS
 10
8.0157
 20
0.0050
  0
VERTEX
  8
LAYER10
 62
     1
  6
CONTINUOUS
 10
8.0178
 20
0.0057
  0
VERTEX
  8
LAYER10
 62
     1
  6
CONTINUOUS
 10
8.0199
 20
0.0064
  0
VERTEX
  8
LAYER10
 62
     1
  6
CONTINUOUS
 10
8.0211
 20
0.0068
  0
VERTEX
  8
LAYER10
 62
     1
  6
CONTINUOUS
 10
8.0223
 20
0.0072
  0
VERTEX
  8
LAYER10
 62
     1
  6
CONTINUOUS
 10
8.0235
 20
0.0076
  0
VERTEX
  8
LAYER10
 62
     1
  6
CONTINUOUS
 10
8.0247
 20
0.0081
  0
VERTEX
  8
LAYER10
 62
     1
  6
CONTINUOUS
 10
8.0258
 20
0.0085
  0
VERTEX
  8
LAYER10
 62
     1
  6
CONTINUOUS
 10
8.0270
 20
0.0090
  0
VERTEX
  8
LAYER10
 62
     1
  6
CONTINUOUS
 10
8.0282
 20
0.0095
  0
VERTEX
  8
LAYER10
 62
     1
  6
CONTINUOUS
 10
8.0294
 20
0.0099
  0
VERTEX
  8
LAYER10
 62
     1
  6
CONTINUOUS
 10
8.0305
 20
0.0104
  0
VERTEX
  8
LAYER10
 62
     1
  6
CONTINUOUS
 10
8.0317
 20
0.0109
  0
VERTEX
  8
LAYER10
 62
     1
  6
CONTINUOUS
 10
8.0329
 20
0.0113
  0
VERTEX
  8
LAYER10
 62
     1
  6
CONTINUOUS
 10
8.0340
 20
0.0118
  0
SEQEND
  8
LAYER10
  0
POLYLINE
  8
LAYER12
 62
     5
 66
     1
  6
CONTINUOUS
  0
VERTEX
  8
LAYER12
 62
     5
  6
CONTINUOUS
 10
7.0490
 20
0.5426
  0
VERTEX
  8
LAYER12
 62
     5
  6
CONTINUOUS
 10
7.0490
 20
0.5426
  0
SEQEND
  8
LAYER12
  0
POLYLINE
  8
LAYER12
 62
     5
 66
     1
  6
CONTINUOUS
  0
VERTEX
  8
LAYER12
 62
     5
  6
CONTINUOUS
 10
7.0493
 20
-0.4398
  0
VERTEX
  8
LAYER12
 62
     5
  6
CONTINUOUS
 10
7.0493
 20
0.5345
  0
SEQEND
  8
LAYER12
  0
POLYLINE
  8
LAYER12
 62
     5
 66
     1
  6
CONTINUOUS
  0
VERTEX
  8
LAYER12
 62
     5
  6
CONTINUOUS
 10
7.0531
 20
0.5426
  0
VERTEX
  8
LAYER12
 62
     5
  6
CONTINUOUS
 10
8.0340
 20
0.5426
  0
SEQEND
  8
LAYER12
  0
POLYLINE
  8
LAYER12
 62
     5
 66
     1
  6
CONTINUOUS
  0
VERTEX
  8
LAYER12
 62
     5
  6
CONTINUOUS
 10
7.0490
 20
0.5426
  0
VERTEX
  8
LAYER12
 62
     5
  6
CONTINUOUS
 10
7.0531
 20
0.5426
  0
SEQEND
  8
LAYER12
  0
POLYLINE
  8
LAYER12
 62
     5
 66
     1
  6
CONTINUOUS
  0
VERTEX
  8
LAYER12
 62
     5
  6
CONTINUOUS
 10
7.0493
 20
0.5345
  0
VERTEX
  8
LAYER12
 62
     5
  6
CONTINUOUS
 10
7.0493
 20
0.5426
  0
SEQEND
  8
LAYER12
  0
POLYLINE
  8
LAYER12
 62
     5
 66
     1
  6
CONTINUOUS
  0
VERTEX
  8
LAYER12
 62
     5
  6
CONTINUOUS
 10
7.0490
 20
-0.4411
  0
VERTEX
  8
LAYER12
 62
     5
  6
CONTINUOUS
 10
7.0490
 20
-0.4411
  0
SEQEND
  8
LAYER12
  0
POLYLINE
  8
LAYER12
 62
     5
 66
     1
  6
CONTINUOUS
  0
VERTEX
  8
LAYER12
 62
     5
  6
CONTINUOUS
 10
8.0340
 20
-0.4411
  0
VERTEX
  8
LAYER12
 62
     5
  6
CONTINUOUS
 10
7.0493
 20
-0.4411
  0
SEQEND
  8
LAYER12
  0
POLYLINE
  8
LAYER12
 62
     5
 66
     1
  6
CONTINUOUS
  0
VERTEX
  8
LAYER12
 62
     5
  6
CONTINUOUS
 10
7.0493
 20
-0.4411
  0
VERTEX
  8
LAYER12
 62
     5
  6
CONTINUOUS
 10
7.0490
 20
-0.4411
  0
SEQEND
  8
LAYER12
  0
POLYLINE
  8
LAYER12
 62
     5
 66
     1
  6
CONTINUOUS
  0
VERTEX
  8
LAYER12
 62
     5
  6
CONTINUOUS
 10
7.0493
 20
-0.4418
  0
VERTEX
  8
LAYER12
 62
     5
  6
CONTINUOUS
 10
7.0493
 20
-0.4411
  0
SEQEND
  8
LAYER12
  0
POLYLINE
  8
LAYER12
 62
     5
 66
     1
  6
CONTINUOUS
  0
VERTEX
  8
LAYER12
 62
     5
  6
CONTINUOUS
 10
7.0493
 20
-0.4411
  0
VERTEX
  8
LAYER12
 62
     5
  6
CONTINUOUS
 10
7.0493
 20
-0.4398
  0
SEQEND
  8
LAYER12
  0
POLYLINE
  8
LAYER12
 62
     5
 66
     1
  6
CONTINUOUS
  0
VERTEX
  8
LAYER12
 62
     5
  6
CONTINUOUS
 10
8.0330
 20
0.5426
  0
VERTEX
  8
LAYER12
 62
     5
  6
CONTINUOUS
 10
8.0330
 20
-0.4398
  0
SEQEND
  8
LAYER12
  0
POLYLINE
  8
LAYER12
 62
     5
 66
     1
  6
CONTINUOUS
  0
VERTEX
  8
LAYER12
 62
     5
  6
CONTINUOUS
 10
8.0330
 20
-0.4398
  0
VERTEX
  8
LAYER12
 62
     5
  6
CONTINUOUS
 10
8.0330
 20
-0.4411
  0
SEQEND
  8
LAYER12
  0
ENDSEC
  0
EOF
