  0
SECTION
  2
HEADER
  9
$ACADVER
  1
AC1004
  9
$EXTMIN
 10
5.0426
 20
-0.4415
  9
$EXTMAX
 10
6.0688
 20
0.5459
  9
$LIMMIN
 10
5.0426
 20
-0.4415
  9
$LIMMAX
 10
6.0688
 20
0.5459
  9
$INSBASE
 10
0.0
 20
0.0
  9
$VIEWCTR
 10
7.21903
 20
4.5
  9
$VIEWSIZE
 40
9.0
  9
$SNAPMODE
 70
     0
  9
$SNAPUNIT
 10
1.0
 20
1.0
  9
$SNAPBASE
 10
0.0
 20
0.0
  9
$SNAPANG
 50
0.0
  9
$SNAPSTYLE
 70
     0
  9
$SNAPISOPAIR
 70
     0
  9
$GRIDMODE
 70
     0
  9
$GRIDUNIT
 10
0.0
 20
0.0
  9
$ORTHOMODE
 70
     0
  9
$REGENMODE
 70
     1
  9
$FILLMODE
 70
     1
  9
$QTEXTMODE
 70
     0
  9
$DRAGMODE
 70
     2
  9
$LTSCALE
 40
1.0
  9
$OSMODE
 70
     0
  9
$ATTMODE
 70
     1
  9
$TEXTSIZE
 40
0.2
  9
$TRACEWID
 40
0.05
  9
$TEXTSTYLE
  7
STANDARD
  9
$CLAYER
  8
0
  9
$CELTYPE
  6
BYLAYER
  9
$CECOLOR
 62
   256
  9
$DIMSCALE
 40
1.0
  9
$DIMASZ
 40
0.18
  9
$DIMEXO
 40
0.0625
  9
$DIMDLI
 40
0.38
  9
$DIMRND
 40
0.0
  9
$DIMDLE
 40
0.0
  9
$DIMEXE
 40
0.18
  9
$DIMTP
 40
0.0
  9
$DIMTM
 40
0.0
  9
$DIMTXT
 40
0.18
  9
$DIMCEN
 40
0.09
  9
$DIMTSZ
 40
0.0
  9
$DIMTOL
 70
     0
  9
$DIMLIM
 70
     0
  9
$DIMTIH
 70
     1
  9
$DIMTOH
 70
     1
  9
$DIMSE1
 70
     0
  9
$DIMSE2
 70
     0
  9
$DIMTAD
 70
     0
  9
$DIMZIN
 70
     0
  9
$DIMBLK
  1

  9
$DIMASO
 70
     1
  9
$DIMSHO
 70
     0
  9
$DIMPOST
  1

  9
$DIMAPOST
  1

  9
$DIMALT
 70
     0
  9
$DIMALTD
 70
     2
  9
$DIMALTF
 40
25.4
  9
$DIMLFAC
 40
1.0
  9
$LUNITS
 70
     2
  9
$LUPREC
 70
     4
  9
$AXISMODE
 70
     0
  9
$AXISUNIT
 10
0.0
 20
0.0
  9
$SKETCHINC
 40
0.1
  9
$FILLETRAD
 40
0.0
  9
$AUNITS
 70
     0
  9
$AUPREC
 70
     0
  9
$MENU
  1
acad
  9
$ELEVATION
 40
0.0
  9
$THICKNESS
 40
0.0
  9
$VIEWDIR
 10
0.0
 20
0.0
 30
1.0
  9
$LIMCHECK
 70
     0
  9
$BLIPMODE
 70
     1
  9
$CHAMFERA
 40
0.0
  9
$CHAMFERB
 40
0.0
  9
$FASTZOOM
 70
     1
  9
$SKPOLY
 70
     0
  9
$TDCREATE
 40
2447222.5666886573
  9
$TDUPDATE
 40
2447222.5666886573
  9
$TDINDWG
 40
0.0000000000
  9
$TDUSRTIMER
 40
0.0000000000
  9
$USRTIMER
 70
     1
  9
$ANGBASE
 50
0.0
  9
$ANGDIR
 70
     0
  9
$PDMODE
 70
     0
  9
$PDSIZE
 40
0.0
  9
$PLINEWID
 40
0.0
  9
$COORDS
 70
     0
  9
$SPLFRAME
 70
     0
  9
$SPLINESEGS
 70
     8
  9
$ATTDIA
 70
     0
  9
$ATTREQ
 70
     1
  9
$USERI1
 70
     0
  9
$USERI2
 70
     0
  9
$USERI3
 70
     0
  9
$USERI4
 70
     0
  9
$USERI5
 70
     0
  9
$USERR1
 40
0.0
  9
$USERR2
 40
0.0
  9
$USERR3
 40
0.0
  9
$USERR4
 40
0.0
  9
$USERR5
 40
0.0
  0
ENDSEC
  0
SECTION
  2
TABLES
  0
TABLE
  2
LTYPE
 70
     13
  0
LTYPE
  2
CONTINUOUS
 70
    64
  3
Solid line
 72
    65
 73
     0
 40
0.0
  0
LTYPE
  2
DASHED
 70
    64
  3
__ __ __ __ __ __ __ __ __ __ __ __ __ __ __
 72
    65
 73
     2
 40
0.75
 49
0.5
 49
-0.25
  0
LTYPE
  2
HIDDEN
 70
    64
  3
_ _ _ _ _ _ _ _ _ _ _ _ _ _ _ _ _ _ _ _ _ _ _
 72
    65
 73
     2
 40
0.375
 49
0.25
 49
-0.125
  0
LTYPE
  2
CENTER
 70
    64
  3
____ _ ____ _ ____ _ ____ _ ____ _ ____ _ ____
 72
    65
 73
     4
 40
2.0
 49
1.25
 49
-0.25
 49
0.25
 49
-0.25
  0
LTYPE
  2
PHANTOM
 70
    64
  3
_____ _ _ _____ _ _ _____ _ _ _____ _ _ ____
 72
    65
 73
     6
 40
2.5
 49
1.25
 49
-0.25
 49
0.25
 49
-0.25
 49
0.25
 49
-0.25
  0
LTYPE
  2
DOT
 70
    64
  3
...............................................
 72
    65
 73
     2
 40
0.25
 49
0.0
 49
-0.25
  0
LTYPE
  2
DASHDOT
 70
    64
  3
__ . __ . __ . __ . __ . __ . __ . __ . __ . __
 72
    65
 73
     4
 40
1.0
 49
0.5
 49
-0.25
 49
0.0
 49
-0.25
  0
LTYPE
  2
BORDER
 70
    64
  3
__ __ . __ __ . __ __ . __ __ . __ __ . __ __
 72
    65
 73
     6
 40
1.75
 49
0.5
 49
-0.25
 49
0.5
 49
-0.25
 49
0.0
 49
-0.25
  0
LTYPE
  2
DIVIDE
 70
    64
  3
__ . . __ . . __ . . __ . . __ . . __ . . __
 72
    65
 73
     6
 40
1.25
 49
0.5
 49
-0.25
 49
0.0
 49
-0.25
 49
0.0
 49
-0.25
  0
LTYPE
  2
DCTYPE1
 70
    64
  3
__ . . __ . . __ . . __ . . __ . . __ . . __
 72
    65
 73
     8
 40
2.5
 49
0.5
 49
-0.25
 49
0.125
 49
-0.25
 49
0.25
 49
-0.25
 49
0.125
 49
-0.25
  0
LTYPE
  2
DCTYPE2
 70
    64
  3
__ . . __ . . __ . . __ . . __ . . __ . . __
 72
    65
 73
     6
 40
2.05
 49
1.0
 49
-0.3
 49
0.15
 49
-0.15
 49
0.15
 49
-0.3
  0
LTYPE
  2
DCTYPE3
 70
    64
  3
__ . . __ . . __ . . __ . . __ . . __ . . __
 72
    65
 73
     6
 40
2.5
 49
0.8
 49
-0.2
 49
0.8
 49
-0.2
 49
0.3
 49
-0.2
  0
LTYPE
  2
DCTYPE4
 70
    64
  3
__ . . __ . . __ . . __ . . __ . . __ . . __
 72
    65
 73
     10
 40
3.97
 49
1.75
 49
-0.3
 49
0.3
 49
-0.3
 49
0.06
 49
-0.3
 49
0.06
 49
-0.3
 49
0.3
 49
-0.3
  0
ENDTAB
  0
TABLE
  2
LAYER
 70
    153
  0
LAYER
  2
LAYER1
 70
 64
 62
     7
  6
CONTINUOUS
  0
LAYER
  2
LAYER10
 70
 64
 62
     1
  6
CONTINUOUS
  0
LAYER
  2
LAYER12
 70
 64
 62
     5
  6
CONTINUOUS
  0
ENDTAB
  0
ENDSEC
  0
SECTION
  2
BLOCKS
  0
ENDSEC
  0
SECTION
  2
ENTITIES
  0
CIRCLE
  8
LAYER1
 62
     7
  6
CONTINUOUS
 10
5.4562
 20
0.3392
 40
0.0209
  0
CIRCLE
  8
LAYER1
 62
     7
  6
CONTINUOUS
 10
5.5604
 20
0.4024
 40
0.0218
  0
CIRCLE
  8
LAYER1
 62
     7
  6
CONTINUOUS
 10
5.6063
 20
0.4810
 40
0.0240
  0
CIRCLE
  8
LAYER1
 62
     7
  6
CONTINUOUS
 10
5.7532
 20
0.3232
 40
0.0105
  0
CIRCLE
  8
LAYER1
 62
     7
  6
CONTINUOUS
 10
5.9083
 20
0.4194
 40
0.0259
  0
POLYLINE
  8
LAYER10
 62
     1
 66
     1
  6
CONTINUOUS
  0
VERTEX
  8
LAYER10
 62
     1
  6
CONTINUOUS
 10
5.5829
 20
0.2525
  0
VERTEX
  8
LAYER10
 62
     1
  6
CONTINUOUS
 10
5.5837
 20
0.2549
  0
VERTEX
  8
LAYER10
 62
     1
  6
CONTINUOUS
 10
5.5847
 20
0.2572
  0
VERTEX
  8
LAYER10
 62
     1
  6
CONTINUOUS
 10
5.5857
 20
0.2595
  0
VERTEX
  8
LAYER10
 62
     1
  6
CONTINUOUS
 10
5.5867
 20
0.2618
  0
VERTEX
  8
LAYER10
 62
     1
  6
CONTINUOUS
 10
5.5879
 20
0.2640
  0
VERTEX
  8
LAYER10
 62
     1
  6
CONTINUOUS
 10
5.5891
 20
0.2662
  0
VERTEX
  8
LAYER10
 62
     1
  6
CONTINUOUS
 10
5.5905
 20
0.2683
  0
VERTEX
  8
LAYER10
 62
     1
  6
CONTINUOUS
 10
5.5919
 20
0.2704
  0
VERTEX
  8
LAYER10
 62
     1
  6
CONTINUOUS
 10
5.5933
 20
0.2724
  0
VERTEX
  8
LAYER10
 62
     1
  6
CONTINUOUS
 10
5.5949
 20
0.2743
  0
VERTEX
  8
LAYER10
 62
     1
  6
CONTINUOUS
 10
5.5965
 20
0.2761
  0
VERTEX
  8
LAYER10
 62
     1
  6
CONTINUOUS
 10
5.5982
 20
0.2779
  0
VERTEX
  8
LAYER10
 62
     1
  6
CONTINUOUS
 10
5.6004
 20
0.2799
  0
VERTEX
  8
LAYER10
 62
     1
  6
CONTINUOUS
 10
5.6027
 20
0.2819
  0
VERTEX
  8
LAYER10
 62
     1
  6
CONTINUOUS
 10
5.6050
 20
0.2837
  0
VERTEX
  8
LAYER10
 62
     1
  6
CONTINUOUS
 10
5.6075
 20
0.2854
  0
VERTEX
  8
LAYER10
 62
     1
  6
CONTINUOUS
 10
5.6100
 20
0.2871
  0
VERTEX
  8
LAYER10
 62
     1
  6
CONTINUOUS
 10
5.6126
 20
0.2887
  0
VERTEX
  8
LAYER10
 62
     1
  6
CONTINUOUS
 10
5.6152
 20
0.2902
  0
VERTEX
  8
LAYER10
 62
     1
  6
CONTINUOUS
 10
5.6179
 20
0.2918
  0
VERTEX
  8
LAYER10
 62
     1
  6
CONTINUOUS
 10
5.6206
 20
0.2933
  0
VERTEX
  8
LAYER10
 62
     1
  6
CONTINUOUS
 10
5.6233
 20
0.2949
  0
VERTEX
  8
LAYER10
 62
     1
  6
CONTINUOUS
 10
5.6260
 20
0.2965
  0
VERTEX
  8
LAYER10
 62
     1
  6
CONTINUOUS
 10
5.6287
 20
0.2981
  0
VERTEX
  8
LAYER10
 62
     1
  6
CONTINUOUS
 10
5.6321
 20
0.3003
  0
VERTEX
  8
LAYER10
 62
     1
  6
CONTINUOUS
 10
5.6354
 20
0.3025
  0
VERTEX
  8
LAYER10
 62
     1
  6
CONTINUOUS
 10
5.6388
 20
0.3047
  0
VERTEX
  8
LAYER10
 62
     1
  6
CONTINUOUS
 10
5.6421
 20
0.3069
  0
VERTEX
  8
LAYER10
 62
     1
  6
CONTINUOUS
 10
5.6454
 20
0.3091
  0
VERTEX
  8
LAYER10
 62
     1
  6
CONTINUOUS
 10
5.6488
 20
0.3111
  0
VERTEX
  8
LAYER10
 62
     1
  6
CONTINUOUS
 10
5.6522
 20
0.3130
  0
VERTEX
  8
LAYER10
 62
     1
  6
CONTINUOUS
 10
5.6556
 20
0.3146
  0
VERTEX
  8
LAYER10
 62
     1
  6
CONTINUOUS
 10
5.6590
 20
0.3160
  0
VERTEX
  8
LAYER10
 62
     1
  6
CONTINUOUS
 10
5.6624
 20
0.3172
  0
VERTEX
  8
LAYER10
 62
     1
  6
CONTINUOUS
 10
5.6659
 20
0.3180
  0
VERTEX
  8
LAYER10
 62
     1
  6
CONTINUOUS
 10
5.6694
 20
0.3184
  0
VERTEX
  8
LAYER10
 62
     1
  6
CONTINUOUS
 10
5.6718
 20
0.3184
  0
VERTEX
  8
LAYER10
 62
     1
  6
CONTINUOUS
 10
5.6742
 20
0.3183
  0
VERTEX
  8
LAYER10
 62
     1
  6
CONTINUOUS
 10
5.6767
 20
0.3180
  0
VERTEX
  8
LAYER10
 62
     1
  6
CONTINUOUS
 10
5.6791
 20
0.3176
  0
VERTEX
  8
LAYER10
 62
     1
  6
CONTINUOUS
 10
5.6816
 20
0.3171
  0
VERTEX
  8
LAYER10
 62
     1
  6
CONTINUOUS
 10
5.6842
 20
0.3165
  0
VERTEX
  8
LAYER10
 62
     1
  6
CONTINUOUS
 10
5.6867
 20
0.3159
  0
VERTEX
  8
LAYER10
 62
     1
  6
CONTINUOUS
 10
5.6893
 20
0.3153
  0
VERTEX
  8
LAYER10
 62
     1
  6
CONTINUOUS
 10
5.6919
 20
0.3147
  0
VERTEX
  8
LAYER10
 62
     1
  6
CONTINUOUS
 10
5.6945
 20
0.3141
  0
VERTEX
  8
LAYER10
 62
     1
  6
CONTINUOUS
 10
5.6972
 20
0.3136
  0
VERTEX
  8
LAYER10
 62
     1
  6
CONTINUOUS
 10
5.6998
 20
0.3132
  0
VERTEX
  8
LAYER10
 62
     1
  6
CONTINUOUS
 10
5.7043
 20
0.3128
  0
VERTEX
  8
LAYER10
 62
     1
  6
CONTINUOUS
 10
5.7088
 20
0.3126
  0
VERTEX
  8
LAYER10
 62
     1
  6
CONTINUOUS
 10
5.7134
 20
0.3125
  0
VERTEX
  8
LAYER10
 62
     1
  6
CONTINUOUS
 10
5.7179
 20
0.3126
  0
VERTEX
  8
LAYER10
 62
     1
  6
CONTINUOUS
 10
5.7224
 20
0.3127
  0
VERTEX
  8
LAYER10
 62
     1
  6
CONTINUOUS
 10
5.7269
 20
0.3127
  0
VERTEX
  8
LAYER10
 62
     1
  6
CONTINUOUS
 10
5.7312
 20
0.3127
  0
VERTEX
  8
LAYER10
 62
     1
  6
CONTINUOUS
 10
5.7355
 20
0.3124
  0
VERTEX
  8
LAYER10
 62
     1
  6
CONTINUOUS
 10
5.7395
 20
0.3119
  0
VERTEX
  8
LAYER10
 62
     1
  6
CONTINUOUS
 10
5.7434
 20
0.3110
  0
VERTEX
  8
LAYER10
 62
     1
  6
CONTINUOUS
 10
5.7471
 20
0.3098
  0
VERTEX
  8
LAYER10
 62
     1
  6
CONTINUOUS
 10
5.7506
 20
0.3080
  0
VERTEX
  8
LAYER10
 62
     1
  6
CONTINUOUS
 10
5.7527
 20
0.3066
  0
VERTEX
  8
LAYER10
 62
     1
  6
CONTINUOUS
 10
5.7546
 20
0.3050
  0
VERTEX
  8
LAYER10
 62
     1
  6
CONTINUOUS
 10
5.7565
 20
0.3033
  0
VERTEX
  8
LAYER10
 62
     1
  6
CONTINUOUS
 10
5.7583
 20
0.3013
  0
VERTEX
  8
LAYER10
 62
     1
  6
CONTINUOUS
 10
5.7601
 20
0.2993
  0
VERTEX
  8
LAYER10
 62
     1
  6
CONTINUOUS
 10
5.7617
 20
0.2971
  0
VERTEX
  8
LAYER10
 62
     1
  6
CONTINUOUS
 10
5.7633
 20
0.2948
  0
VERTEX
  8
LAYER10
 62
     1
  6
CONTINUOUS
 10
5.7649
 20
0.2924
  0
VERTEX
  8
LAYER10
 62
     1
  6
CONTINUOUS
 10
5.7664
 20
0.2900
  0
VERTEX
  8
LAYER10
 62
     1
  6
CONTINUOUS
 10
5.7679
 20
0.2875
  0
VERTEX
  8
LAYER10
 62
     1
  6
CONTINUOUS
 10
5.7694
 20
0.2850
  0
VERTEX
  8
LAYER10
 62
     1
  6
CONTINUOUS
 10
5.7708
 20
0.2826
  0
VERTEX
  8
LAYER10
 62
     1
  6
CONTINUOUS
 10
5.7730
 20
0.2790
  0
VERTEX
  8
LAYER10
 62
     1
  6
CONTINUOUS
 10
5.7751
 20
0.2754
  0
VERTEX
  8
LAYER10
 62
     1
  6
CONTINUOUS
 10
5.7772
 20
0.2719
  0
VERTEX
  8
LAYER10
 62
     1
  6
CONTINUOUS
 10
5.7793
 20
0.2685
  0
VERTEX
  8
LAYER10
 62
     1
  6
CONTINUOUS
 10
5.7814
 20
0.2650
  0
VERTEX
  8
LAYER10
 62
     1
  6
CONTINUOUS
 10
5.7835
 20
0.2616
  0
VERTEX
  8
LAYER10
 62
     1
  6
CONTINUOUS
 10
5.7856
 20
0.2583
  0
VERTEX
  8
LAYER10
 62
     1
  6
CONTINUOUS
 10
5.7877
 20
0.2550
  0
VERTEX
  8
LAYER10
 62
     1
  6
CONTINUOUS
 10
5.7898
 20
0.2517
  0
VERTEX
  8
LAYER10
 62
     1
  6
CONTINUOUS
 10
5.7919
 20
0.2484
  0
VERTEX
  8
LAYER10
 62
     1
  6
CONTINUOUS
 10
5.7940
 20
0.2451
  0
VERTEX
  8
LAYER10
 62
     1
  6
CONTINUOUS
 10
5.7961
 20
0.2419
  0
VERTEX
  8
LAYER10
 62
     1
  6
CONTINUOUS
 10
5.7973
 20
0.2402
  0
VERTEX
  8
LAYER10
 62
     1
  6
CONTINUOUS
 10
5.7984
 20
0.2385
  0
VERTEX
  8
LAYER10
 62
     1
  6
CONTINUOUS
 10
5.7996
 20
0.2368
  0
VERTEX
  8
LAYER10
 62
     1
  6
CONTINUOUS
 10
5.8008
 20
0.2350
  0
VERTEX
  8
LAYER10
 62
     1
  6
CONTINUOUS
 10
5.8020
 20
0.2333
  0
VERTEX
  8
LAYER10
 62
     1
  6
CONTINUOUS
 10
5.8032
 20
0.2316
  0
VERTEX
  8
LAYER10
 62
     1
  6
CONTINUOUS
 10
5.8044
 20
0.2299
  0
VERTEX
  8
LAYER10
 62
     1
  6
CONTINUOUS
 10
5.8057
 20
0.2283
  0
VERTEX
  8
LAYER10
 62
     1
  6
CONTINUOUS
 10
5.8070
 20
0.2266
  0
VERTEX
  8
LAYER10
 62
     1
  6
CONTINUOUS
 10
5.8084
 20
0.2249
  0
VERTEX
  8
LAYER10
 62
     1
  6
CONTINUOUS
 10
5.8099
 20
0.2232
  0
VERTEX
  8
LAYER10
 62
     1
  6
CONTINUOUS
 10
5.8113
 20
0.2215
  0
VERTEX
  8
LAYER10
 62
     1
  6
CONTINUOUS
 10
5.8129
 20
0.2199
  0
VERTEX
  8
LAYER10
 62
     1
  6
CONTINUOUS
 10
5.8144
 20
0.2182
  0
VERTEX
  8
LAYER10
 62
     1
  6
CONTINUOUS
 10
5.8160
 20
0.2166
  0
VERTEX
  8
LAYER10
 62
     1
  6
CONTINUOUS
 10
5.8176
 20
0.2149
  0
VERTEX
  8
LAYER10
 62
     1
  6
CONTINUOUS
 10
5.8191
 20
0.2132
  0
VERTEX
  8
LAYER10
 62
     1
  6
CONTINUOUS
 10
5.8205
 20
0.2116
  0
VERTEX
  8
LAYER10
 62
     1
  6
CONTINUOUS
 10
5.8219
 20
0.2099
  0
VERTEX
  8
LAYER10
 62
     1
  6
CONTINUOUS
 10
5.8232
 20
0.2082
  0
VERTEX
  8
LAYER10
 62
     1
  6
CONTINUOUS
 10
5.8243
 20
0.2065
  0
VERTEX
  8
LAYER10
 62
     1
  6
CONTINUOUS
 10
5.8252
 20
0.2047
  0
VERTEX
  8
LAYER10
 62
     1
  6
CONTINUOUS
 10
5.8260
 20
0.2030
  0
VERTEX
  8
LAYER10
 62
     1
  6
CONTINUOUS
 10
5.8265
 20
0.2012
  0
VERTEX
  8
LAYER10
 62
     1
  6
CONTINUOUS
 10
5.8269
 20
0.1983
  0
VERTEX
  8
LAYER10
 62
     1
  6
CONTINUOUS
 10
5.8267
 20
0.1953
  0
VERTEX
  8
LAYER10
 62
     1
  6
CONTINUOUS
 10
5.8260
 20
0.1923
  0
VERTEX
  8
LAYER10
 62
     1
  6
CONTINUOUS
 10
5.8249
 20
0.1892
  0
VERTEX
  8
LAYER10
 62
     1
  6
CONTINUOUS
 10
5.8233
 20
0.1862
  0
VERTEX
  8
LAYER10
 62
     1
  6
CONTINUOUS
 10
5.8215
 20
0.1831
  0
VERTEX
  8
LAYER10
 62
     1
  6
CONTINUOUS
 10
5.8193
 20
0.1801
  0
VERTEX
  8
LAYER10
 62
     1
  6
CONTINUOUS
 10
5.8169
 20
0.1771
  0
VERTEX
  8
LAYER10
 62
     1
  6
CONTINUOUS
 10
5.8143
 20
0.1741
  0
VERTEX
  8
LAYER10
 62
     1
  6
CONTINUOUS
 10
5.8116
 20
0.1712
  0
VERTEX
  8
LAYER10
 62
     1
  6
CONTINUOUS
 10
5.8089
 20
0.1684
  0
VERTEX
  8
LAYER10
 62
     1
  6
CONTINUOUS
 10
5.8061
 20
0.1657
  0
VERTEX
  8
LAYER10
 62
     1
  6
CONTINUOUS
 10
5.8035
 20
0.1632
  0
VERTEX
  8
LAYER10
 62
     1
  6
CONTINUOUS
 10
5.8009
 20
0.1607
  0
VERTEX
  8
LAYER10
 62
     1
  6
CONTINUOUS
 10
5.7984
 20
0.1583
  0
VERTEX
  8
LAYER10
 62
     1
  6
CONTINUOUS
 10
5.7960
 20
0.1559
  0
VERTEX
  8
LAYER10
 62
     1
  6
CONTINUOUS
 10
5.7937
 20
0.1535
  0
VERTEX
  8
LAYER10
 62
     1
  6
CONTINUOUS
 10
5.7914
 20
0.1512
  0
VERTEX
  8
LAYER10
 62
     1
  6
CONTINUOUS
 10
5.7893
 20
0.1487
  0
VERTEX
  8
LAYER10
 62
     1
  6
CONTINUOUS
 10
5.7873
 20
0.1463
  0
VERTEX
  8
LAYER10
 62
     1
  6
CONTINUOUS
 10
5.7854
 20
0.1437
  0
VERTEX
  8
LAYER10
 62
     1
  6
CONTINUOUS
 10
5.7837
 20
0.1410
  0
VERTEX
  8
LAYER10
 62
     1
  6
CONTINUOUS
 10
5.7821
 20
0.1382
  0
VERTEX
  8
LAYER10
 62
     1
  6
CONTINUOUS
 10
5.7807
 20
0.1353
  0
VERTEX
  8
LAYER10
 62
     1
  6
CONTINUOUS
 10
5.7798
 20
0.1332
  0
VERTEX
  8
LAYER10
 62
     1
  6
CONTINUOUS
 10
5.7789
 20
0.1310
  0
VERTEX
  8
LAYER10
 62
     1
  6
CONTINUOUS
 10
5.7782
 20
0.1288
  0
VERTEX
  8
LAYER10
 62
     1
  6
CONTINUOUS
 10
5.7774
 20
0.1265
  0
VERTEX
  8
LAYER10
 62
     1
  6
CONTINUOUS
 10
5.7767
 20
0.1242
  0
VERTEX
  8
LAYER10
 62
     1
  6
CONTINUOUS
 10
5.7760
 20
0.1220
  0
VERTEX
  8
LAYER10
 62
     1
  6
CONTINUOUS
 10
5.7752
 20
0.1198
  0
VERTEX
  8
LAYER10
 62
     1
  6
CONTINUOUS
 10
5.7744
 20
0.1176
  0
VERTEX
  8
LAYER10
 62
     1
  6
CONTINUOUS
 10
5.7735
 20
0.1156
  0
VERTEX
  8
LAYER10
 62
     1
  6
CONTINUOUS
 10
5.7726
 20
0.1136
  0
VERTEX
  8
LAYER10
 62
     1
  6
CONTINUOUS
 10
5.7716
 20
0.1117
  0
VERTEX
  8
LAYER10
 62
     1
  6
CONTINUOUS
 10
5.7704
 20
0.1099
  0
VERTEX
  8
LAYER10
 62
     1
  6
CONTINUOUS
 10
5.7670
 20
0.1062
  0
VERTEX
  8
LAYER10
 62
     1
  6
CONTINUOUS
 10
5.7629
 20
0.1032
  0
VERTEX
  8
LAYER10
 62
     1
  6
CONTINUOUS
 10
5.7582
 20
0.1010
  0
VERTEX
  8
LAYER10
 62
     1
  6
CONTINUOUS
 10
5.7530
 20
0.0993
  0
VERTEX
  8
LAYER10
 62
     1
  6
CONTINUOUS
 10
5.7474
 20
0.0980
  0
VERTEX
  8
LAYER10
 62
     1
  6
CONTINUOUS
 10
5.7414
 20
0.0971
  0
VERTEX
  8
LAYER10
 62
     1
  6
CONTINUOUS
 10
5.7352
 20
0.0962
  0
VERTEX
  8
LAYER10
 62
     1
  6
CONTINUOUS
 10
5.7289
 20
0.0955
  0
VERTEX
  8
LAYER10
 62
     1
  6
CONTINUOUS
 10
5.7226
 20
0.0945
  0
VERTEX
  8
LAYER10
 62
     1
  6
CONTINUOUS
 10
5.7163
 20
0.0934
  0
VERTEX
  8
LAYER10
 62
     1
  6
CONTINUOUS
 10
5.7102
 20
0.0918
  0
VERTEX
  8
LAYER10
 62
     1
  6
CONTINUOUS
 10
5.7044
 20
0.0898
  0
VERTEX
  8
LAYER10
 62
     1
  6
CONTINUOUS
 10
5.7016
 20
0.0885
  0
VERTEX
  8
LAYER10
 62
     1
  6
CONTINUOUS
 10
5.6989
 20
0.0872
  0
VERTEX
  8
LAYER10
 62
     1
  6
CONTINUOUS
 10
5.6963
 20
0.0857
  0
VERTEX
  8
LAYER10
 62
     1
  6
CONTINUOUS
 10
5.6938
 20
0.0842
  0
VERTEX
  8
LAYER10
 62
     1
  6
CONTINUOUS
 10
5.6912
 20
0.0827
  0
VERTEX
  8
LAYER10
 62
     1
  6
CONTINUOUS
 10
5.6887
 20
0.0812
  0
VERTEX
  8
LAYER10
 62
     1
  6
CONTINUOUS
 10
5.6863
 20
0.0798
  0
VERTEX
  8
LAYER10
 62
     1
  6
CONTINUOUS
 10
5.6838
 20
0.0784
  0
VERTEX
  8
LAYER10
 62
     1
  6
CONTINUOUS
 10
5.6814
 20
0.0772
  0
VERTEX
  8
LAYER10
 62
     1
  6
CONTINUOUS
 10
5.6789
 20
0.0761
  0
VERTEX
  8
LAYER10
 62
     1
  6
CONTINUOUS
 10
5.6764
 20
0.0752
  0
VERTEX
  8
LAYER10
 62
     1
  6
CONTINUOUS
 10
5.6739
 20
0.0746
  0
VERTEX
  8
LAYER10
 62
     1
  6
CONTINUOUS
 10
5.6708
 20
0.0742
  0
VERTEX
  8
LAYER10
 62
     1
  6
CONTINUOUS
 10
5.6677
 20
0.0741
  0
VERTEX
  8
LAYER10
 62
     1
  6
CONTINUOUS
 10
5.6644
 20
0.0743
  0
VERTEX
  8
LAYER10
 62
     1
  6
CONTINUOUS
 10
5.6612
 20
0.0747
  0
VERTEX
  8
LAYER10
 62
     1
  6
CONTINUOUS
 10
5.6579
 20
0.0753
  0
VERTEX
  8
LAYER10
 62
     1
  6
CONTINUOUS
 10
5.6545
 20
0.0761
  0
VERTEX
  8
LAYER10
 62
     1
  6
CONTINUOUS
 10
5.6511
 20
0.0768
  0
VERTEX
  8
LAYER10
 62
     1
  6
CONTINUOUS
 10
5.6476
 20
0.0776
  0
VERTEX
  8
LAYER10
 62
     1
  6
CONTINUOUS
 10
5.6441
 20
0.0784
  0
VERTEX
  8
LAYER10
 62
     1
  6
CONTINUOUS
 10
5.6405
 20
0.0790
  0
VERTEX
  8
LAYER10
 62
     1
  6
CONTINUOUS
 10
5.6369
 20
0.0795
  0
VERTEX
  8
LAYER10
 62
     1
  6
CONTINUOUS
 10
5.6333
 20
0.0798
  0
VERTEX
  8
LAYER10
 62
     1
  6
CONTINUOUS
 10
5.6301
 20
0.0798
  0
VERTEX
  8
LAYER10
 62
     1
  6
CONTINUOUS
 10
5.6269
 20
0.0797
  0
VERTEX
  8
LAYER10
 62
     1
  6
CONTINUOUS
 10
5.6237
 20
0.0795
  0
VERTEX
  8
LAYER10
 62
     1
  6
CONTINUOUS
 10
5.6205
 20
0.0792
  0
VERTEX
  8
LAYER10
 62
     1
  6
CONTINUOUS
 10
5.6173
 20
0.0789
  0
VERTEX
  8
LAYER10
 62
     1
  6
CONTINUOUS
 10
5.6142
 20
0.0786
  0
VERTEX
  8
LAYER10
 62
     1
  6
CONTINUOUS
 10
5.6112
 20
0.0784
  0
VERTEX
  8
LAYER10
 62
     1
  6
CONTINUOUS
 10
5.6083
 20
0.0783
  0
VERTEX
  8
LAYER10
 62
     1
  6
CONTINUOUS
 10
5.6055
 20
0.0784
  0
VERTEX
  8
LAYER10
 62
     1
  6
CONTINUOUS
 10
5.6027
 20
0.0786
  0
VERTEX
  8
LAYER10
 62
     1
  6
CONTINUOUS
 10
5.6002
 20
0.0791
  0
VERTEX
  8
LAYER10
 62
     1
  6
CONTINUOUS
 10
5.5977
 20
0.0799
  0
VERTEX
  8
LAYER10
 62
     1
  6
CONTINUOUS
 10
5.5940
 20
0.0819
  0
VERTEX
  8
LAYER10
 62
     1
  6
CONTINUOUS
 10
5.5908
 20
0.0847
  0
VERTEX
  8
LAYER10
 62
     1
  6
CONTINUOUS
 10
5.5880
 20
0.0882
  0
VERTEX
  8
LAYER10
 62
     1
  6
CONTINUOUS
 10
5.5855
 20
0.0924
  0
VERTEX
  8
LAYER10
 62
     1
  6
CONTINUOUS
 10
5.5835
 20
0.0971
  0
VERTEX
  8
LAYER10
 62
     1
  6
CONTINUOUS
 10
5.5818
 20
0.1022
  0
VERTEX
  8
LAYER10
 62
     1
  6
CONTINUOUS
 10
5.5804
 20
0.1076
  0
VERTEX
  8
LAYER10
 62
     1
  6
CONTINUOUS
 10
5.5793
 20
0.1132
  0
VERTEX
  8
LAYER10
 62
     1
  6
CONTINUOUS
 10
5.5785
 20
0.1189
  0
VERTEX
  8
LAYER10
 62
     1
  6
CONTINUOUS
 10
5.5780
 20
0.1247
  0
VERTEX
  8
LAYER10
 62
     1
  6
CONTINUOUS
 10
5.5777
 20
0.1303
  0
VERTEX
  8
LAYER10
 62
     1
  6
CONTINUOUS
 10
5.5775
 20
0.1358
  0
VERTEX
  8
LAYER10
 62
     1
  6
CONTINUOUS
 10
5.5776
 20
0.1376
  0
VERTEX
  8
LAYER10
 62
     1
  6
CONTINUOUS
 10
5.5776
 20
0.1393
  0
VERTEX
  8
LAYER10
 62
     1
  6
CONTINUOUS
 10
5.5776
 20
0.1411
  0
VERTEX
  8
LAYER10
 62
     1
  6
CONTINUOUS
 10
5.5776
 20
0.1428
  0
VERTEX
  8
LAYER10
 62
     1
  6
CONTINUOUS
 10
5.5777
 20
0.1445
  0
VERTEX
  8
LAYER10
 62
     1
  6
CONTINUOUS
 10
5.5777
 20
0.1462
  0
VERTEX
  8
LAYER10
 62
     1
  6
CONTINUOUS
 10
5.5777
 20
0.1478
  0
VERTEX
  8
LAYER10
 62
     1
  6
CONTINUOUS
 10
5.5778
 20
0.1495
  0
VERTEX
  8
LAYER10
 62
     1
  6
CONTINUOUS
 10
5.5778
 20
0.1511
  0
VERTEX
  8
LAYER10
 62
     1
  6
CONTINUOUS
 10
5.5777
 20
0.1528
  0
VERTEX
  8
LAYER10
 62
     1
  6
CONTINUOUS
 10
5.5777
 20
0.1544
  0
VERTEX
  8
LAYER10
 62
     1
  6
CONTINUOUS
 10
5.5776
 20
0.1561
  0
VERTEX
  8
LAYER10
 62
     1
  6
CONTINUOUS
 10
5.5773
 20
0.1598
  0
VERTEX
  8
LAYER10
 62
     1
  6
CONTINUOUS
 10
5.5768
 20
0.1636
  0
VERTEX
  8
LAYER10
 62
     1
  6
CONTINUOUS
 10
5.5763
 20
0.1674
  0
VERTEX
  8
LAYER10
 62
     1
  6
CONTINUOUS
 10
5.5756
 20
0.1712
  0
VERTEX
  8
LAYER10
 62
     1
  6
CONTINUOUS
 10
5.5750
 20
0.1750
  0
VERTEX
  8
LAYER10
 62
     1
  6
CONTINUOUS
 10
5.5743
 20
0.1789
  0
VERTEX
  8
LAYER10
 62
     1
  6
CONTINUOUS
 10
5.5737
 20
0.1827
  0
VERTEX
  8
LAYER10
 62
     1
  6
CONTINUOUS
 10
5.5732
 20
0.1866
  0
VERTEX
  8
LAYER10
 62
     1
  6
CONTINUOUS
 10
5.5728
 20
0.1904
  0
VERTEX
  8
LAYER10
 62
     1
  6
CONTINUOUS
 10
5.5725
 20
0.1942
  0
VERTEX
  8
LAYER10
 62
     1
  6
CONTINUOUS
 10
5.5725
 20
0.1980
  0
VERTEX
  8
LAYER10
 62
     1
  6
CONTINUOUS
 10
5.5726
 20
0.2018
  0
VERTEX
  8
LAYER10
 62
     1
  6
CONTINUOUS
 10
5.5728
 20
0.2039
  0
VERTEX
  8
LAYER10
 62
     1
  6
CONTINUOUS
 10
5.5731
 20
0.2060
  0
VERTEX
  8
LAYER10
 62
     1
  6
CONTINUOUS
 10
5.5735
 20
0.2081
  0
VERTEX
  8
LAYER10
 62
     1
  6
CONTINUOUS
 10
5.5739
 20
0.2103
  0
VERTEX
  8
LAYER10
 62
     1
  6
CONTINUOUS
 10
5.5743
 20
0.2124
  0
VERTEX
  8
LAYER10
 62
     1
  6
CONTINUOUS
 10
5.5748
 20
0.2145
  0
VERTEX
  8
LAYER10
 62
     1
  6
CONTINUOUS
 10
5.5753
 20
0.2166
  0
VERTEX
  8
LAYER10
 62
     1
  6
CONTINUOUS
 10
5.5758
 20
0.2187
  0
VERTEX
  8
LAYER10
 62
     1
  6
CONTINUOUS
 10
5.5763
 20
0.2208
  0
VERTEX
  8
LAYER10
 62
     1
  6
CONTINUOUS
 10
5.5768
 20
0.2229
  0
VERTEX
  8
LAYER10
 62
     1
  6
CONTINUOUS
 10
5.5773
 20
0.2250
  0
VERTEX
  8
LAYER10
 62
     1
  6
CONTINUOUS
 10
5.5778
 20
0.2272
  0
VERTEX
  8
LAYER10
 62
     1
  6
CONTINUOUS
 10
5.5782
 20
0.2293
  0
VERTEX
  8
LAYER10
 62
     1
  6
CONTINUOUS
 10
5.5785
 20
0.2315
  0
VERTEX
  8
LAYER10
 62
     1
  6
CONTINUOUS
 10
5.5789
 20
0.2336
  0
VERTEX
  8
LAYER10
 62
     1
  6
CONTINUOUS
 10
5.5792
 20
0.2358
  0
VERTEX
  8
LAYER10
 62
     1
  6
CONTINUOUS
 10
5.5796
 20
0.2379
  0
VERTEX
  8
LAYER10
 62
     1
  6
CONTINUOUS
 10
5.5799
 20
0.2401
  0
VERTEX
  8
LAYER10
 62
     1
  6
CONTINUOUS
 10
5.5803
 20
0.2422
  0
VERTEX
  8
LAYER10
 62
     1
  6
CONTINUOUS
 10
5.5807
 20
0.2443
  0
VERTEX
  8
LAYER10
 62
     1
  6
CONTINUOUS
 10
5.5812
 20
0.2464
  0
VERTEX
  8
LAYER10
 62
     1
  6
CONTINUOUS
 10
5.5817
 20
0.2485
  0
VERTEX
  8
LAYER10
 62
     1
  6
CONTINUOUS
 10
5.5822
 20
0.2505
  0
VERTEX
  8
LAYER10
 62
     1
  6
CONTINUOUS
 10
5.5829
 20
0.2525
  0
SEQEND
  8
LAYER10
  0
POLYLINE
  8
LAYER10
 62
     1
 66
     1
  6
CONTINUOUS
  0
VERTEX
  8
LAYER10
 62
     1
  6
CONTINUOUS
 10
5.0426
 20
0.0833
  0
VERTEX
  8
LAYER10
 62
     1
  6
CONTINUOUS
 10
5.0426
 20
0.0833
  0
VERTEX
  8
LAYER10
 62
     1
  6
CONTINUOUS
 10
5.0426
 20
0.0833
  0
VERTEX
  8
LAYER10
 62
     1
  6
CONTINUOUS
 10
5.0426
 20
0.0833
  0
VERTEX
  8
LAYER10
 62
     1
  6
CONTINUOUS
 10
5.0426
 20
0.0833
  0
VERTEX
  8
LAYER10
 62
     1
  6
CONTINUOUS
 10
5.0426
 20
0.0833
  0
VERTEX
  8
LAYER10
 62
     1
  6
CONTINUOUS
 10
5.0426
 20
0.0833
  0
VERTEX
  8
LAYER10
 62
     1
  6
CONTINUOUS
 10
5.0426
 20
0.0833
  0
VERTEX
  8
LAYER10
 62
     1
  6
CONTINUOUS
 10
5.0426
 20
0.0833
  0
VERTEX
  8
LAYER10
 62
     1
  6
CONTINUOUS
 10
5.0426
 20
0.0833
  0
VERTEX
  8
LAYER10
 62
     1
  6
CONTINUOUS
 10
5.0426
 20
0.0833
  0
VERTEX
  8
LAYER10
 62
     1
  6
CONTINUOUS
 10
5.0426
 20
0.0833
  0
VERTEX
  8
LAYER10
 62
     1
  6
CONTINUOUS
 10
5.0426
 20
0.0833
  0
VERTEX
  8
LAYER10
 62
     1
  6
CONTINUOUS
 10
5.0426
 20
0.0833
  0
VERTEX
  8
LAYER10
 62
     1
  6
CONTINUOUS
 10
5.0426
 20
0.0833
  0
VERTEX
  8
LAYER10
 62
     1
  6
CONTINUOUS
 10
5.0426
 20
0.0833
  0
VERTEX
  8
LAYER10
 62
     1
  6
CONTINUOUS
 10
5.0426
 20
0.0833
  0
VERTEX
  8
LAYER10
 62
     1
  6
CONTINUOUS
 10
5.0426
 20
0.0833
  0
VERTEX
  8
LAYER10
 62
     1
  6
CONTINUOUS
 10
5.0426
 20
0.0833
  0
VERTEX
  8
LAYER10
 62
     1
  6
CONTINUOUS
 10
5.0426
 20
0.0833
  0
VERTEX
  8
LAYER10
 62
     1
  6
CONTINUOUS
 10
5.0426
 20
0.0833
  0
VERTEX
  8
LAYER10
 62
     1
  6
CONTINUOUS
 10
5.0426
 20
0.0833
  0
VERTEX
  8
LAYER10
 62
     1
  6
CONTINUOUS
 10
5.0426
 20
0.0833
  0
VERTEX
  8
LAYER10
 62
     1
  6
CONTINUOUS
 10
5.0426
 20
0.0833
  0
VERTEX
  8
LAYER10
 62
     1
  6
CONTINUOUS
 10
5.0426
 20
0.0833
  0
SEQEND
  8
LAYER10
  0
POLYLINE
  8
LAYER10
 62
     1
 66
     1
  6
CONTINUOUS
  0
VERTEX
  8
LAYER10
 62
     1
  6
CONTINUOUS
 10
5.0426
 20
0.3310
  0
VERTEX
  8
LAYER10
 62
     1
  6
CONTINUOUS
 10
5.0426
 20
0.3310
  0
VERTEX
  8
LAYER10
 62
     1
  6
CONTINUOUS
 10
5.0426
 20
0.3310
  0
VERTEX
  8
LAYER10
 62
     1
  6
CONTINUOUS
 10
5.0426
 20
0.3310
  0
VERTEX
  8
LAYER10
 62
     1
  6
CONTINUOUS
 10
5.0426
 20
0.3310
  0
VERTEX
  8
LAYER10
 62
     1
  6
CONTINUOUS
 10
5.0426
 20
0.3310
  0
VERTEX
  8
LAYER10
 62
     1
  6
CONTINUOUS
 10
5.0426
 20
0.3310
  0
VERTEX
  8
LAYER10
 62
     1
  6
CONTINUOUS
 10
5.0426
 20
0.3310
  0
VERTEX
  8
LAYER10
 62
     1
  6
CONTINUOUS
 10
5.0426
 20
0.3310
  0
VERTEX
  8
LAYER10
 62
     1
  6
CONTINUOUS
 10
5.0426
 20
0.3310
  0
VERTEX
  8
LAYER10
 62
     1
  6
CONTINUOUS
 10
5.0426
 20
0.3310
  0
VERTEX
  8
LAYER10
 62
     1
  6
CONTINUOUS
 10
5.0426
 20
0.3310
  0
VERTEX
  8
LAYER10
 62
     1
  6
CONTINUOUS
 10
5.0426
 20
0.3310
  0
VERTEX
  8
LAYER10
 62
     1
  6
CONTINUOUS
 10
5.0426
 20
0.3310
  0
VERTEX
  8
LAYER10
 62
     1
  6
CONTINUOUS
 10
5.0426
 20
0.3310
  0
VERTEX
  8
LAYER10
 62
     1
  6
CONTINUOUS
 10
5.0426
 20
0.3310
  0
VERTEX
  8
LAYER10
 62
     1
  6
CONTINUOUS
 10
5.0426
 20
0.3310
  0
VERTEX
  8
LAYER10
 62
     1
  6
CONTINUOUS
 10
5.0426
 20
0.3310
  0
VERTEX
  8
LAYER10
 62
     1
  6
CONTINUOUS
 10
5.0426
 20
0.3310
  0
VERTEX
  8
LAYER10
 62
     1
  6
CONTINUOUS
 10
5.0426
 20
0.3310
  0
VERTEX
  8
LAYER10
 62
     1
  6
CONTINUOUS
 10
5.0426
 20
0.3310
  0
VERTEX
  8
LAYER10
 62
     1
  6
CONTINUOUS
 10
5.0426
 20
0.3310
  0
VERTEX
  8
LAYER10
 62
     1
  6
CONTINUOUS
 10
5.0426
 20
0.3310
  0
VERTEX
  8
LAYER10
 62
     1
  6
CONTINUOUS
 10
5.0426
 20
0.3310
  0
VERTEX
  8
LAYER10
 62
     1
  6
CONTINUOUS
 10
5.0426
 20
0.3310
  0
SEQEND
  8
LAYER10
  0
POLYLINE
  8
LAYER10
 62
     1
 66
     1
  6
CONTINUOUS
  0
VERTEX
  8
LAYER10
 62
     1
  6
CONTINUOUS
 10
5.0752
 20
0.2690
  0
VERTEX
  8
LAYER10
 62
     1
  6
CONTINUOUS
 10
5.0764
 20
0.2664
  0
VERTEX
  8
LAYER10
 62
     1
  6
CONTINUOUS
 10
5.0777
 20
0.2639
  0
VERTEX
  8
LAYER10
 62
     1
  6
CONTINUOUS
 10
5.0790
 20
0.2614
  0
VERTEX
  8
LAYER10
 62
     1
  6
CONTINUOUS
 10
5.0802
 20
0.2589
  0
VERTEX
  8
LAYER10
 62
     1
  6
CONTINUOUS
 10
5.0815
 20
0.2563
  0
VERTEX
  8
LAYER10
 62
     1
  6
CONTINUOUS
 10
5.0828
 20
0.2538
  0
VERTEX
  8
LAYER10
 62
     1
  6
CONTINUOUS
 10
5.0840
 20
0.2513
  0
VERTEX
  8
LAYER10
 62
     1
  6
CONTINUOUS
 10
5.0853
 20
0.2487
  0
VERTEX
  8
LAYER10
 62
     1
  6
CONTINUOUS
 10
5.0866
 20
0.2462
  0
VERTEX
  8
LAYER10
 62
     1
  6
CONTINUOUS
 10
5.0878
 20
0.2436
  0
VERTEX
  8
LAYER10
 62
     1
  6
CONTINUOUS
 10
5.0891
 20
0.2410
  0
VERTEX
  8
LAYER10
 62
     1
  6
CONTINUOUS
 10
5.0903
 20
0.2385
  0
VERTEX
  8
LAYER10
 62
     1
  6
CONTINUOUS
 10
5.0913
 20
0.2364
  0
VERTEX
  8
LAYER10
 62
     1
  6
CONTINUOUS
 10
5.0923
 20
0.2343
  0
VERTEX
  8
LAYER10
 62
     1
  6
CONTINUOUS
 10
5.0933
 20
0.2322
  0
VERTEX
  8
LAYER10
 62
     1
  6
CONTINUOUS
 10
5.0942
 20
0.2301
  0
VERTEX
  8
LAYER10
 62
     1
  6
CONTINUOUS
 10
5.0952
 20
0.2280
  0
VERTEX
  8
LAYER10
 62
     1
  6
CONTINUOUS
 10
5.0961
 20
0.2259
  0
VERTEX
  8
LAYER10
 62
     1
  6
CONTINUOUS
 10
5.0969
 20
0.2238
  0
VERTEX
  8
LAYER10
 62
     1
  6
CONTINUOUS
 10
5.0977
 20
0.2217
  0
VERTEX
  8
LAYER10
 62
     1
  6
CONTINUOUS
 10
5.0985
 20
0.2195
  0
VERTEX
  8
LAYER10
 62
     1
  6
CONTINUOUS
 10
5.0992
 20
0.2174
  0
VERTEX
  8
LAYER10
 62
     1
  6
CONTINUOUS
 10
5.0998
 20
0.2152
  0
VERTEX
  8
LAYER10
 62
     1
  6
CONTINUOUS
 10
5.1004
 20
0.2131
  0
VERTEX
  8
LAYER10
 62
     1
  6
CONTINUOUS
 10
5.1012
 20
0.2094
  0
VERTEX
  8
LAYER10
 62
     1
  6
CONTINUOUS
 10
5.1018
 20
0.2057
  0
VERTEX
  8
LAYER10
 62
     1
  6
CONTINUOUS
 10
5.1022
 20
0.2020
  0
VERTEX
  8
LAYER10
 62
     1
  6
CONTINUOUS
 10
5.1025
 20
0.1983
  0
VERTEX
  8
LAYER10
 62
     1
  6
CONTINUOUS
 10
5.1026
 20
0.1945
  0
VERTEX
  8
LAYER10
 62
     1
  6
CONTINUOUS
 10
5.1026
 20
0.1907
  0
VERTEX
  8
LAYER10
 62
     1
  6
CONTINUOUS
 10
5.1024
 20
0.1869
  0
VERTEX
  8
LAYER10
 62
     1
  6
CONTINUOUS
 10
5.1021
 20
0.1830
  0
VERTEX
  8
LAYER10
 62
     1
  6
CONTINUOUS
 10
5.1018
 20
0.1792
  0
VERTEX
  8
LAYER10
 62
     1
  6
CONTINUOUS
 10
5.1013
 20
0.1752
  0
VERTEX
  8
LAYER10
 62
     1
  6
CONTINUOUS
 10
5.1009
 20
0.1713
  0
VERTEX
  8
LAYER10
 62
     1
  6
CONTINUOUS
 10
5.1003
 20
0.1674
  0
VERTEX
  8
LAYER10
 62
     1
  6
CONTINUOUS
 10
5.0994
 20
0.1612
  0
VERTEX
  8
LAYER10
 62
     1
  6
CONTINUOUS
 10
5.0984
 20
0.1550
  0
VERTEX
  8
LAYER10
 62
     1
  6
CONTINUOUS
 10
5.0972
 20
0.1488
  0
VERTEX
  8
LAYER10
 62
     1
  6
CONTINUOUS
 10
5.0958
 20
0.1427
  0
VERTEX
  8
LAYER10
 62
     1
  6
CONTINUOUS
 10
5.0943
 20
0.1367
  0
VERTEX
  8
LAYER10
 62
     1
  6
CONTINUOUS
 10
5.0925
 20
0.1309
  0
VERTEX
  8
LAYER10
 62
     1
  6
CONTINUOUS
 10
5.0904
 20
0.1253
  0
VERTEX
  8
LAYER10
 62
     1
  6
CONTINUOUS
 10
5.0880
 20
0.1198
  0
VERTEX
  8
LAYER10
 62
     1
  6
CONTINUOUS
 10
5.0853
 20
0.1147
  0
VERTEX
  8
LAYER10
 62
     1
  6
CONTINUOUS
 10
5.0822
 20
0.1099
  0
VERTEX
  8
LAYER10
 62
     1
  6
CONTINUOUS
 10
5.0787
 20
0.1054
  0
VERTEX
  8
LAYER10
 62
     1
  6
CONTINUOUS
 10
5.0748
 20
0.1014
  0
VERTEX
  8
LAYER10
 62
     1
  6
CONTINUOUS
 10
5.0725
 20
0.0995
  0
VERTEX
  8
LAYER10
 62
     1
  6
CONTINUOUS
 10
5.0702
 20
0.0976
  0
VERTEX
  8
LAYER10
 62
     1
  6
CONTINUOUS
 10
5.0677
 20
0.0959
  0
VERTEX
  8
LAYER10
 62
     1
  6
CONTINUOUS
 10
5.0652
 20
0.0943
  0
VERTEX
  8
LAYER10
 62
     1
  6
CONTINUOUS
 10
5.0625
 20
0.0927
  0
VERTEX
  8
LAYER10
 62
     1
  6
CONTINUOUS
 10
5.0598
 20
0.0912
  0
VERTEX
  8
LAYER10
 62
     1
  6
CONTINUOUS
 10
5.0571
 20
0.0898
  0
VERTEX
  8
LAYER10
 62
     1
  6
CONTINUOUS
 10
5.0542
 20
0.0884
  0
VERTEX
  8
LAYER10
 62
     1
  6
CONTINUOUS
 10
5.0514
 20
0.0871
  0
VERTEX
  8
LAYER10
 62
     1
  6
CONTINUOUS
 10
5.0485
 20
0.0858
  0
VERTEX
  8
LAYER10
 62
     1
  6
CONTINUOUS
 10
5.0455
 20
0.0845
  0
VERTEX
  8
LAYER10
 62
     1
  6
CONTINUOUS
 10
5.0426
 20
0.0833
  0
SEQEND
  8
LAYER10
  0
POLYLINE
  8
LAYER10
 62
     1
 66
     1
  6
CONTINUOUS
  0
VERTEX
  8
LAYER10
 62
     1
  6
CONTINUOUS
 10
5.0426
 20
0.0833
  0
VERTEX
  8
LAYER10
 62
     1
  6
CONTINUOUS
 10
5.0426
 20
0.0833
  0
VERTEX
  8
LAYER10
 62
     1
  6
CONTINUOUS
 10
5.0426
 20
0.0833
  0
VERTEX
  8
LAYER10
 62
     1
  6
CONTINUOUS
 10
5.0426
 20
0.0833
  0
VERTEX
  8
LAYER10
 62
     1
  6
CONTINUOUS
 10
5.0426
 20
0.0833
  0
VERTEX
  8
LAYER10
 62
     1
  6
CONTINUOUS
 10
5.0426
 20
0.0833
  0
VERTEX
  8
LAYER10
 62
     1
  6
CONTINUOUS
 10
5.0426
 20
0.0833
  0
VERTEX
  8
LAYER10
 62
     1
  6
CONTINUOUS
 10
5.0426
 20
0.0833
  0
VERTEX
  8
LAYER10
 62
     1
  6
CONTINUOUS
 10
5.0426
 20
0.0833
  0
VERTEX
  8
LAYER10
 62
     1
  6
CONTINUOUS
 10
5.0426
 20
0.0833
  0
VERTEX
  8
LAYER10
 62
     1
  6
CONTINUOUS
 10
5.0426
 20
0.0833
  0
VERTEX
  8
LAYER10
 62
     1
  6
CONTINUOUS
 10
5.0426
 20
0.0833
  0
VERTEX
  8
LAYER10
 62
     1
  6
CONTINUOUS
 10
5.0426
 20
0.0833
  0
VERTEX
  8
LAYER10
 62
     1
  6
CONTINUOUS
 10
5.0426
 20
0.0833
  0
VERTEX
  8
LAYER10
 62
     1
  6
CONTINUOUS
 10
5.0426
 20
0.0833
  0
VERTEX
  8
LAYER10
 62
     1
  6
CONTINUOUS
 10
5.0426
 20
0.0833
  0
VERTEX
  8
LAYER10
 62
     1
  6
CONTINUOUS
 10
5.0426
 20
0.0833
  0
VERTEX
  8
LAYER10
 62
     1
  6
CONTINUOUS
 10
5.0426
 20
0.0833
  0
VERTEX
  8
LAYER10
 62
     1
  6
CONTINUOUS
 10
5.0426
 20
0.0833
  0
VERTEX
  8
LAYER10
 62
     1
  6
CONTINUOUS
 10
5.0426
 20
0.0833
  0
VERTEX
  8
LAYER10
 62
     1
  6
CONTINUOUS
 10
5.0426
 20
0.0833
  0
VERTEX
  8
LAYER10
 62
     1
  6
CONTINUOUS
 10
5.0426
 20
0.0833
  0
VERTEX
  8
LAYER10
 62
     1
  6
CONTINUOUS
 10
5.0426
 20
0.0833
  0
VERTEX
  8
LAYER10
 62
     1
  6
CONTINUOUS
 10
5.0426
 20
0.0833
  0
VERTEX
  8
LAYER10
 62
     1
  6
CONTINUOUS
 10
5.0426
 20
0.0833
  0
SEQEND
  8
LAYER10
  0
POLYLINE
  8
LAYER10
 62
     1
 66
     1
  6
CONTINUOUS
  0
VERTEX
  8
LAYER10
 62
     1
  6
CONTINUOUS
 10
5.0426
 20
0.0833
  0
VERTEX
  8
LAYER10
 62
     1
  6
CONTINUOUS
 10
5.0426
 20
0.0833
  0
VERTEX
  8
LAYER10
 62
     1
  6
CONTINUOUS
 10
5.0426
 20
0.0833
  0
VERTEX
  8
LAYER10
 62
     1
  6
CONTINUOUS
 10
5.0426
 20
0.0833
  0
VERTEX
  8
LAYER10
 62
     1
  6
CONTINUOUS
 10
5.0426
 20
0.0833
  0
VERTEX
  8
LAYER10
 62
     1
  6
CONTINUOUS
 10
5.0426
 20
0.0833
  0
VERTEX
  8
LAYER10
 62
     1
  6
CONTINUOUS
 10
5.0426
 20
0.0833
  0
VERTEX
  8
LAYER10
 62
     1
  6
CONTINUOUS
 10
5.0426
 20
0.0833
  0
VERTEX
  8
LAYER10
 62
     1
  6
CONTINUOUS
 10
5.0426
 20
0.0833
  0
VERTEX
  8
LAYER10
 62
     1
  6
CONTINUOUS
 10
5.0426
 20
0.0833
  0
VERTEX
  8
LAYER10
 62
     1
  6
CONTINUOUS
 10
5.0426
 20
0.0833
  0
VERTEX
  8
LAYER10
 62
     1
  6
CONTINUOUS
 10
5.0426
 20
0.0833
  0
VERTEX
  8
LAYER10
 62
     1
  6
CONTINUOUS
 10
5.0426
 20
0.0833
  0
VERTEX
  8
LAYER10
 62
     1
  6
CONTINUOUS
 10
5.0426
 20
0.0833
  0
VERTEX
  8
LAYER10
 62
     1
  6
CONTINUOUS
 10
5.0426
 20
0.0833
  0
VERTEX
  8
LAYER10
 62
     1
  6
CONTINUOUS
 10
5.0426
 20
0.0833
  0
VERTEX
  8
LAYER10
 62
     1
  6
CONTINUOUS
 10
5.0426
 20
0.0833
  0
VERTEX
  8
LAYER10
 62
     1
  6
CONTINUOUS
 10
5.0426
 20
0.0833
  0
VERTEX
  8
LAYER10
 62
     1
  6
CONTINUOUS
 10
5.0426
 20
0.0833
  0
VERTEX
  8
LAYER10
 62
     1
  6
CONTINUOUS
 10
5.0426
 20
0.0833
  0
VERTEX
  8
LAYER10
 62
     1
  6
CONTINUOUS
 10
5.0426
 20
0.0833
  0
VERTEX
  8
LAYER10
 62
     1
  6
CONTINUOUS
 10
5.0426
 20
0.0833
  0
VERTEX
  8
LAYER10
 62
     1
  6
CONTINUOUS
 10
5.0426
 20
0.0833
  0
VERTEX
  8
LAYER10
 62
     1
  6
CONTINUOUS
 10
5.0426
 20
0.0833
  0
VERTEX
  8
LAYER10
 62
     1
  6
CONTINUOUS
 10
5.0426
 20
0.0833
  0
SEQEND
  8
LAYER10
  0
POLYLINE
  8
LAYER10
 62
     1
 66
     1
  6
CONTINUOUS
  0
VERTEX
  8
LAYER10
 62
     1
  6
CONTINUOUS
 10
5.0426
 20
0.0833
  0
VERTEX
  8
LAYER10
 62
     1
  6
CONTINUOUS
 10
5.0426
 20
0.0833
  0
VERTEX
  8
LAYER10
 62
     1
  6
CONTINUOUS
 10
5.0426
 20
0.0833
  0
VERTEX
  8
LAYER10
 62
     1
  6
CONTINUOUS
 10
5.0426
 20
0.0833
  0
VERTEX
  8
LAYER10
 62
     1
  6
CONTINUOUS
 10
5.0426
 20
0.0833
  0
VERTEX
  8
LAYER10
 62
     1
  6
CONTINUOUS
 10
5.0426
 20
0.0833
  0
VERTEX
  8
LAYER10
 62
     1
  6
CONTINUOUS
 10
5.0426
 20
0.0833
  0
VERTEX
  8
LAYER10
 62
     1
  6
CONTINUOUS
 10
5.0426
 20
0.0833
  0
VERTEX
  8
LAYER10
 62
     1
  6
CONTINUOUS
 10
5.0426
 20
0.0833
  0
VERTEX
  8
LAYER10
 62
     1
  6
CONTINUOUS
 10
5.0426
 20
0.0833
  0
VERTEX
  8
LAYER10
 62
     1
  6
CONTINUOUS
 10
5.0426
 20
0.0833
  0
VERTEX
  8
LAYER10
 62
     1
  6
CONTINUOUS
 10
5.0426
 20
0.0833
  0
VERTEX
  8
LAYER10
 62
     1
  6
CONTINUOUS
 10
5.0426
 20
0.0833
  0
VERTEX
  8
LAYER10
 62
     1
  6
CONTINUOUS
 10
5.0426
 20
0.0833
  0
VERTEX
  8
LAYER10
 62
     1
  6
CONTINUOUS
 10
5.0426
 20
0.0833
  0
VERTEX
  8
LAYER10
 62
     1
  6
CONTINUOUS
 10
5.0426
 20
0.0833
  0
VERTEX
  8
LAYER10
 62
     1
  6
CONTINUOUS
 10
5.0426
 20
0.0833
  0
VERTEX
  8
LAYER10
 62
     1
  6
CONTINUOUS
 10
5.0426
 20
0.0833
  0
VERTEX
  8
LAYER10
 62
     1
  6
CONTINUOUS
 10
5.0426
 20
0.0833
  0
VERTEX
  8
LAYER10
 62
     1
  6
CONTINUOUS
 10
5.0426
 20
0.0833
  0
VERTEX
  8
LAYER10
 62
     1
  6
CONTINUOUS
 10
5.0426
 20
0.0833
  0
VERTEX
  8
LAYER10
 62
     1
  6
CONTINUOUS
 10
5.0426
 20
0.0833
  0
VERTEX
  8
LAYER10
 62
     1
  6
CONTINUOUS
 10
5.0426
 20
0.0833
  0
VERTEX
  8
LAYER10
 62
     1
  6
CONTINUOUS
 10
5.0426
 20
0.0833
  0
VERTEX
  8
LAYER10
 62
     1
  6
CONTINUOUS
 10
5.0426
 20
0.0833
  0
SEQEND
  8
LAYER10
  0
POLYLINE
  8
LAYER10
 62
     1
 66
     1
  6
CONTINUOUS
  0
VERTEX
  8
LAYER10
 62
     1
  6
CONTINUOUS
 10
5.0426
 20
0.3310
  0
VERTEX
  8
LAYER10
 62
     1
  6
CONTINUOUS
 10
5.0426
 20
0.3310
  0
VERTEX
  8
LAYER10
 62
     1
  6
CONTINUOUS
 10
5.0426
 20
0.3310
  0
VERTEX
  8
LAYER10
 62
     1
  6
CONTINUOUS
 10
5.0426
 20
0.3310
  0
VERTEX
  8
LAYER10
 62
     1
  6
CONTINUOUS
 10
5.0426
 20
0.3310
  0
VERTEX
  8
LAYER10
 62
     1
  6
CONTINUOUS
 10
5.0426
 20
0.3310
  0
VERTEX
  8
LAYER10
 62
     1
  6
CONTINUOUS
 10
5.0426
 20
0.3310
  0
VERTEX
  8
LAYER10
 62
     1
  6
CONTINUOUS
 10
5.0426
 20
0.3310
  0
VERTEX
  8
LAYER10
 62
     1
  6
CONTINUOUS
 10
5.0426
 20
0.3310
  0
VERTEX
  8
LAYER10
 62
     1
  6
CONTINUOUS
 10
5.0426
 20
0.3310
  0
VERTEX
  8
LAYER10
 62
     1
  6
CONTINUOUS
 10
5.0426
 20
0.3310
  0
VERTEX
  8
LAYER10
 62
     1
  6
CONTINUOUS
 10
5.0426
 20
0.3310
  0
VERTEX
  8
LAYER10
 62
     1
  6
CONTINUOUS
 10
5.0426
 20
0.3310
  0
VERTEX
  8
LAYER10
 62
     1
  6
CONTINUOUS
 10
5.0426
 20
0.3310
  0
VERTEX
  8
LAYER10
 62
     1
  6
CONTINUOUS
 10
5.0426
 20
0.3310
  0
VERTEX
  8
LAYER10
 62
     1
  6
CONTINUOUS
 10
5.0426
 20
0.3310
  0
VERTEX
  8
LAYER10
 62
     1
  6
CONTINUOUS
 10
5.0426
 20
0.3310
  0
VERTEX
  8
LAYER10
 62
     1
  6
CONTINUOUS
 10
5.0426
 20
0.3310
  0
VERTEX
  8
LAYER10
 62
     1
  6
CONTINUOUS
 10
5.0426
 20
0.3310
  0
VERTEX
  8
LAYER10
 62
     1
  6
CONTINUOUS
 10
5.0426
 20
0.3310
  0
VERTEX
  8
LAYER10
 62
     1
  6
CONTINUOUS
 10
5.0426
 20
0.3310
  0
VERTEX
  8
LAYER10
 62
     1
  6
CONTINUOUS
 10
5.0426
 20
0.3310
  0
VERTEX
  8
LAYER10
 62
     1
  6
CONTINUOUS
 10
5.0426
 20
0.3310
  0
VERTEX
  8
LAYER10
 62
     1
  6
CONTINUOUS
 10
5.0426
 20
0.3310
  0
VERTEX
  8
LAYER10
 62
     1
  6
CONTINUOUS
 10
5.0426
 20
0.3310
  0
SEQEND
  8
LAYER10
  0
POLYLINE
  8
LAYER10
 62
     1
 66
     1
  6
CONTINUOUS
  0
VERTEX
  8
LAYER10
 62
     1
  6
CONTINUOUS
 10
5.0426
 20
0.3310
  0
VERTEX
  8
LAYER10
 62
     1
  6
CONTINUOUS
 10
5.0426
 20
0.3310
  0
VERTEX
  8
LAYER10
 62
     1
  6
CONTINUOUS
 10
5.0426
 20
0.3310
  0
VERTEX
  8
LAYER10
 62
     1
  6
CONTINUOUS
 10
5.0426
 20
0.3310
  0
VERTEX
  8
LAYER10
 62
     1
  6
CONTINUOUS
 10
5.0426
 20
0.3310
  0
VERTEX
  8
LAYER10
 62
     1
  6
CONTINUOUS
 10
5.0426
 20
0.3310
  0
VERTEX
  8
LAYER10
 62
     1
  6
CONTINUOUS
 10
5.0426
 20
0.3310
  0
VERTEX
  8
LAYER10
 62
     1
  6
CONTINUOUS
 10
5.0426
 20
0.3310
  0
VERTEX
  8
LAYER10
 62
     1
  6
CONTINUOUS
 10
5.0426
 20
0.3310
  0
VERTEX
  8
LAYER10
 62
     1
  6
CONTINUOUS
 10
5.0426
 20
0.3310
  0
VERTEX
  8
LAYER10
 62
     1
  6
CONTINUOUS
 10
5.0426
 20
0.3310
  0
VERTEX
  8
LAYER10
 62
     1
  6
CONTINUOUS
 10
5.0426
 20
0.3310
  0
VERTEX
  8
LAYER10
 62
     1
  6
CONTINUOUS
 10
5.0426
 20
0.3310
  0
VERTEX
  8
LAYER10
 62
     1
  6
CONTINUOUS
 10
5.0426
 20
0.3306
  0
VERTEX
  8
LAYER10
 62
     1
  6
CONTINUOUS
 10
5.0426
 20
0.3304
  0
VERTEX
  8
LAYER10
 62
     1
  6
CONTINUOUS
 10
5.0426
 20
0.3302
  0
VERTEX
  8
LAYER10
 62
     1
  6
CONTINUOUS
 10
5.0426
 20
0.3301
  0
VERTEX
  8
LAYER10
 62
     1
  6
CONTINUOUS
 10
5.0426
 20
0.3301
  0
VERTEX
  8
LAYER10
 62
     1
  6
CONTINUOUS
 10
5.0426
 20
0.3301
  0
VERTEX
  8
LAYER10
 62
     1
  6
CONTINUOUS
 10
5.0426
 20
0.3302
  0
VERTEX
  8
LAYER10
 62
     1
  6
CONTINUOUS
 10
5.0426
 20
0.3303
  0
VERTEX
  8
LAYER10
 62
     1
  6
CONTINUOUS
 10
5.0426
 20
0.3304
  0
VERTEX
  8
LAYER10
 62
     1
  6
CONTINUOUS
 10
5.0426
 20
0.3306
  0
VERTEX
  8
LAYER10
 62
     1
  6
CONTINUOUS
 10
5.0426
 20
0.3308
  0
VERTEX
  8
LAYER10
 62
     1
  6
CONTINUOUS
 10
5.0426
 20
0.3310
  0
SEQEND
  8
LAYER10
  0
POLYLINE
  8
LAYER10
 62
     1
 66
     1
  6
CONTINUOUS
  0
VERTEX
  8
LAYER10
 62
     1
  6
CONTINUOUS
 10
5.0426
 20
0.3310
  0
VERTEX
  8
LAYER10
 62
     1
  6
CONTINUOUS
 10
5.0426
 20
0.3310
  0
VERTEX
  8
LAYER10
 62
     1
  6
CONTINUOUS
 10
5.0426
 20
0.3310
  0
VERTEX
  8
LAYER10
 62
     1
  6
CONTINUOUS
 10
5.0426
 20
0.3310
  0
VERTEX
  8
LAYER10
 62
     1
  6
CONTINUOUS
 10
5.0426
 20
0.3310
  0
VERTEX
  8
LAYER10
 62
     1
  6
CONTINUOUS
 10
5.0426
 20
0.3310
  0
VERTEX
  8
LAYER10
 62
     1
  6
CONTINUOUS
 10
5.0426
 20
0.3310
  0
VERTEX
  8
LAYER10
 62
     1
  6
CONTINUOUS
 10
5.0426
 20
0.3310
  0
VERTEX
  8
LAYER10
 62
     1
  6
CONTINUOUS
 10
5.0426
 20
0.3310
  0
VERTEX
  8
LAYER10
 62
     1
  6
CONTINUOUS
 10
5.0426
 20
0.3310
  0
VERTEX
  8
LAYER10
 62
     1
  6
CONTINUOUS
 10
5.0426
 20
0.3310
  0
VERTEX
  8
LAYER10
 62
     1
  6
CONTINUOUS
 10
5.0426
 20
0.3310
  0
VERTEX
  8
LAYER10
 62
     1
  6
CONTINUOUS
 10
5.0426
 20
0.3310
  0
VERTEX
  8
LAYER10
 62
     1
  6
CONTINUOUS
 10
5.0426
 20
0.3310
  0
VERTEX
  8
LAYER10
 62
     1
  6
CONTINUOUS
 10
5.0426
 20
0.3310
  0
VERTEX
  8
LAYER10
 62
     1
  6
CONTINUOUS
 10
5.0426
 20
0.3310
  0
VERTEX
  8
LAYER10
 62
     1
  6
CONTINUOUS
 10
5.0426
 20
0.3310
  0
VERTEX
  8
LAYER10
 62
     1
  6
CONTINUOUS
 10
5.0426
 20
0.3310
  0
VERTEX
  8
LAYER10
 62
     1
  6
CONTINUOUS
 10
5.0426
 20
0.3310
  0
VERTEX
  8
LAYER10
 62
     1
  6
CONTINUOUS
 10
5.0426
 20
0.3310
  0
VERTEX
  8
LAYER10
 62
     1
  6
CONTINUOUS
 10
5.0426
 20
0.3310
  0
VERTEX
  8
LAYER10
 62
     1
  6
CONTINUOUS
 10
5.0426
 20
0.3310
  0
VERTEX
  8
LAYER10
 62
     1
  6
CONTINUOUS
 10
5.0426
 20
0.3310
  0
VERTEX
  8
LAYER10
 62
     1
  6
CONTINUOUS
 10
5.0426
 20
0.3310
  0
VERTEX
  8
LAYER10
 62
     1
  6
CONTINUOUS
 10
5.0426
 20
0.3310
  0
SEQEND
  8
LAYER10
  0
POLYLINE
  8
LAYER10
 62
     1
 66
     1
  6
CONTINUOUS
  0
VERTEX
  8
LAYER10
 62
     1
  6
CONTINUOUS
 10
5.0426
 20
0.3310
  0
VERTEX
  8
LAYER10
 62
     1
  6
CONTINUOUS
 10
5.0428
 20
0.3309
  0
VERTEX
  8
LAYER10
 62
     1
  6
CONTINUOUS
 10
5.0430
 20
0.3308
  0
VERTEX
  8
LAYER10
 62
     1
  6
CONTINUOUS
 10
5.0432
 20
0.3307
  0
VERTEX
  8
LAYER10
 62
     1
  6
CONTINUOUS
 10
5.0434
 20
0.3306
  0
VERTEX
  8
LAYER10
 62
     1
  6
CONTINUOUS
 10
5.0435
 20
0.3306
  0
VERTEX
  8
LAYER10
 62
     1
  6
CONTINUOUS
 10
5.0437
 20
0.3305
  0
VERTEX
  8
LAYER10
 62
     1
  6
CONTINUOUS
 10
5.0439
 20
0.3304
  0
VERTEX
  8
LAYER10
 62
     1
  6
CONTINUOUS
 10
5.0441
 20
0.3303
  0
VERTEX
  8
LAYER10
 62
     1
  6
CONTINUOUS
 10
5.0443
 20
0.3302
  0
VERTEX
  8
LAYER10
 62
     1
  6
CONTINUOUS
 10
5.0445
 20
0.3301
  0
VERTEX
  8
LAYER10
 62
     1
  6
CONTINUOUS
 10
5.0447
 20
0.3301
  0
VERTEX
  8
LAYER10
 62
     1
  6
CONTINUOUS
 10
5.0448
 20
0.3300
  0
VERTEX
  8
LAYER10
 62
     1
  6
CONTINUOUS
 10
5.0462
 20
0.3293
  0
VERTEX
  8
LAYER10
 62
     1
  6
CONTINUOUS
 10
5.0476
 20
0.3286
  0
VERTEX
  8
LAYER10
 62
     1
  6
CONTINUOUS
 10
5.0490
 20
0.3279
  0
VERTEX
  8
LAYER10
 62
     1
  6
CONTINUOUS
 10
5.0503
 20
0.3271
  0
VERTEX
  8
LAYER10
 62
     1
  6
CONTINUOUS
 10
5.0517
 20
0.3263
  0
VERTEX
  8
LAYER10
 62
     1
  6
CONTINUOUS
 10
5.0530
 20
0.3255
  0
VERTEX
  8
LAYER10
 62
     1
  6
CONTINUOUS
 10
5.0542
 20
0.3246
  0
VERTEX
  8
LAYER10
 62
     1
  6
CONTINUOUS
 10
5.0555
 20
0.3237
  0
VERTEX
  8
LAYER10
 62
     1
  6
CONTINUOUS
 10
5.0567
 20
0.3228
  0
VERTEX
  8
LAYER10
 62
     1
  6
CONTINUOUS
 10
5.0579
 20
0.3218
  0
VERTEX
  8
LAYER10
 62
     1
  6
CONTINUOUS
 10
5.0590
 20
0.3208
  0
VERTEX
  8
LAYER10
 62
     1
  6
CONTINUOUS
 10
5.0600
 20
0.3198
  0
VERTEX
  8
LAYER10
 62
     1
  6
CONTINUOUS
 10
5.0629
 20
0.3166
  0
VERTEX
  8
LAYER10
 62
     1
  6
CONTINUOUS
 10
5.0653
 20
0.3131
  0
VERTEX
  8
LAYER10
 62
     1
  6
CONTINUOUS
 10
5.0673
 20
0.3094
  0
VERTEX
  8
LAYER10
 62
     1
  6
CONTINUOUS
 10
5.0690
 20
0.3054
  0
VERTEX
  8
LAYER10
 62
     1
  6
CONTINUOUS
 10
5.0704
 20
0.3013
  0
VERTEX
  8
LAYER10
 62
     1
  6
CONTINUOUS
 10
5.0716
 20
0.2970
  0
VERTEX
  8
LAYER10
 62
     1
  6
CONTINUOUS
 10
5.0725
 20
0.2926
  0
VERTEX
  8
LAYER10
 62
     1
  6
CONTINUOUS
 10
5.0733
 20
0.2880
  0
VERTEX
  8
LAYER10
 62
     1
  6
CONTINUOUS
 10
5.0739
 20
0.2833
  0
VERTEX
  8
LAYER10
 62
     1
  6
CONTINUOUS
 10
5.0744
 20
0.2786
  0
VERTEX
  8
LAYER10
 62
     1
  6
CONTINUOUS
 10
5.0748
 20
0.2738
  0
VERTEX
  8
LAYER10
 62
     1
  6
CONTINUOUS
 10
5.0752
 20
0.2690
  0
SEQEND
  8
LAYER10
  0
POLYLINE
  8
LAYER12
 62
     5
 66
     1
  6
CONTINUOUS
  0
VERTEX
  8
LAYER12
 62
     5
  6
CONTINUOUS
 10
5.0426
 20
0.5426
  0
VERTEX
  8
LAYER12
 62
     5
  6
CONTINUOUS
 10
5.0426
 20
0.5426
  0
SEQEND
  8
LAYER12
  0
POLYLINE
  8
LAYER12
 62
     5
 66
     1
  6
CONTINUOUS
  0
VERTEX
  8
LAYER12
 62
     5
  6
CONTINUOUS
 10
5.0426
 20
0.5426
  0
VERTEX
  8
LAYER12
 62
     5
  6
CONTINUOUS
 10
6.0688
 20
0.5426
  0
SEQEND
  8
LAYER12
  0
POLYLINE
  8
LAYER12
 62
     5
 66
     1
  6
CONTINUOUS
  0
VERTEX
  8
LAYER12
 62
     5
  6
CONTINUOUS
 10
5.0426
 20
0.5393
  0
VERTEX
  8
LAYER12
 62
     5
  6
CONTINUOUS
 10
5.0426
 20
0.5426
  0
SEQEND
  8
LAYER12
  0
POLYLINE
  8
LAYER12
 62
     5
 66
     1
  6
CONTINUOUS
  0
VERTEX
  8
LAYER12
 62
     5
  6
CONTINUOUS
 10
5.0426
 20
0.5426
  0
VERTEX
  8
LAYER12
 62
     5
  6
CONTINUOUS
 10
5.0426
 20
0.5426
  0
SEQEND
  8
LAYER12
  0
POLYLINE
  8
LAYER12
 62
     5
 66
     1
  6
CONTINUOUS
  0
VERTEX
  8
LAYER12
 62
     5
  6
CONTINUOUS
 10
5.0426
 20
0.5426
  0
VERTEX
  8
LAYER12
 62
     5
  6
CONTINUOUS
 10
5.0426
 20
0.5426
  0
SEQEND
  8
LAYER12
  0
POLYLINE
  8
LAYER12
 62
     5
 66
     1
  6
CONTINUOUS
  0
VERTEX
  8
LAYER12
 62
     5
  6
CONTINUOUS
 10
5.0426
 20
0.5426
  0
VERTEX
  8
LAYER12
 62
     5
  6
CONTINUOUS
 10
5.0426
 20
0.5459
  0
SEQEND
  8
LAYER12
  0
POLYLINE
  8
LAYER12
 62
     5
 66
     1
  6
CONTINUOUS
  0
VERTEX
  8
LAYER12
 62
     5
  6
CONTINUOUS
 10
5.0426
 20
-0.4382
  0
VERTEX
  8
LAYER12
 62
     5
  6
CONTINUOUS
 10
5.0426
 20
0.5393
  0
SEQEND
  8
LAYER12
  0
POLYLINE
  8
LAYER12
 62
     5
 66
     1
  6
CONTINUOUS
  0
VERTEX
  8
LAYER12
 62
     5
  6
CONTINUOUS
 10
6.0688
 20
-0.4411
  0
VERTEX
  8
LAYER12
 62
     5
  6
CONTINUOUS
 10
5.0426
 20
-0.4411
  0
SEQEND
  8
LAYER12
  0
POLYLINE
  8
LAYER12
 62
     5
 66
     1
  6
CONTINUOUS
  0
VERTEX
  8
LAYER12
 62
     5
  6
CONTINUOUS
 10
5.0426
 20
-0.4415
  0
VERTEX
  8
LAYER12
 62
     5
  6
CONTINUOUS
 10
5.0426
 20
-0.4411
  0
SEQEND
  8
LAYER12
  0
POLYLINE
  8
LAYER12
 62
     5
 66
     1
  6
CONTINUOUS
  0
VERTEX
  8
LAYER12
 62
     5
  6
CONTINUOUS
 10
5.0426
 20
-0.4411
  0
VERTEX
  8
LAYER12
 62
     5
  6
CONTINUOUS
 10
5.0426
 20
-0.4382
  0
SEQEND
  8
LAYER12
  0
POLYLINE
  8
LAYER12
 62
     5
 66
     1
  6
CONTINUOUS
  0
VERTEX
  8
LAYER12
 62
     5
  6
CONTINUOUS
 10
5.0426
 20
-0.4411
  0
VERTEX
  8
LAYER12
 62
     5
  6
CONTINUOUS
 10
5.0426
 20
-0.4415
  0
SEQEND
  8
LAYER12
  0
POLYLINE
  8
LAYER12
 62
     5
 66
     1
  6
CONTINUOUS
  0
VERTEX
  8
LAYER12
 62
     5
  6
CONTINUOUS
 10
6.0657
 20
0.5459
  0
VERTEX
  8
LAYER12
 62
     5
  6
CONTINUOUS
 10
6.0657
 20
-0.4382
  0
SEQEND
  8
LAYER12
  0
POLYLINE
  8
LAYER12
 62
     5
 66
     1
  6
CONTINUOUS
  0
VERTEX
  8
LAYER12
 62
     5
  6
CONTINUOUS
 10
6.0657
 20
-0.4382
  0
VERTEX
  8
LAYER12
 62
     5
  6
CONTINUOUS
 10
6.0657
 20
-0.4411
  0
SEQEND
  8
LAYER12
  0
ENDSEC
  0
EOF
