  0
SECTION
  2
HEADER
  9
$ACADVER
  1
AC1004
  9
$EXTMIN
 10
11.0213
 20
-0.4411
  9
$EXTMAX
 10
12.0473
 20
0.5439
  9
$LIMMIN
 10
11.0213
 20
-0.4411
  9
$LIMMAX
 10
12.0473
 20
0.5439
  9
$INSBASE
 10
0.0
 20
0.0
  9
$VIEWCTR
 10
7.21903
 20
4.5
  9
$VIEWSIZE
 40
9.0
  9
$SNAPMODE
 70
     0
  9
$SNAPUNIT
 10
1.0
 20
1.0
  9
$SNAPBASE
 10
0.0
 20
0.0
  9
$SNAPANG
 50
0.0
  9
$SNAPSTYLE
 70
     0
  9
$SNAPISOPAIR
 70
     0
  9
$GRIDMODE
 70
     0
  9
$GRIDUNIT
 10
0.0
 20
0.0
  9
$ORTHOMODE
 70
     0
  9
$REGENMODE
 70
     1
  9
$FILLMODE
 70
     1
  9
$QTEXTMODE
 70
     0
  9
$DRAGMODE
 70
     2
  9
$LTSCALE
 40
1.0
  9
$OSMODE
 70
     0
  9
$ATTMODE
 70
     1
  9
$TEXTSIZE
 40
0.2
  9
$TRACEWID
 40
0.05
  9
$TEXTSTYLE
  7
STANDARD
  9
$CLAYER
  8
0
  9
$CELTYPE
  6
BYLAYER
  9
$CECOLOR
 62
   256
  9
$DIMSCALE
 40
1.0
  9
$DIMASZ
 40
0.18
  9
$DIMEXO
 40
0.0625
  9
$DIMDLI
 40
0.38
  9
$DIMRND
 40
0.0
  9
$DIMDLE
 40
0.0
  9
$DIMEXE
 40
0.18
  9
$DIMTP
 40
0.0
  9
$DIMTM
 40
0.0
  9
$DIMTXT
 40
0.18
  9
$DIMCEN
 40
0.09
  9
$DIMTSZ
 40
0.0
  9
$DIMTOL
 70
     0
  9
$DIMLIM
 70
     0
  9
$DIMTIH
 70
     1
  9
$DIMTOH
 70
     1
  9
$DIMSE1
 70
     0
  9
$DIMSE2
 70
     0
  9
$DIMTAD
 70
     0
  9
$DIMZIN
 70
     0
  9
$DIMBLK
  1

  9
$DIMASO
 70
     1
  9
$DIMSHO
 70
     0
  9
$DIMPOST
  1

  9
$DIMAPOST
  1

  9
$DIMALT
 70
     0
  9
$DIMALTD
 70
     2
  9
$DIMALTF
 40
25.4
  9
$DIMLFAC
 40
1.0
  9
$LUNITS
 70
     2
  9
$LUPREC
 70
     4
  9
$AXISMODE
 70
     0
  9
$AXISUNIT
 10
0.0
 20
0.0
  9
$SKETCHINC
 40
0.1
  9
$FILLETRAD
 40
0.0
  9
$AUNITS
 70
     0
  9
$AUPREC
 70
     0
  9
$MENU
  1
acad
  9
$ELEVATION
 40
0.0
  9
$THICKNESS
 40
0.0
  9
$VIEWDIR
 10
0.0
 20
0.0
 30
1.0
  9
$LIMCHECK
 70
     0
  9
$BLIPMODE
 70
     1
  9
$CHAMFERA
 40
0.0
  9
$CHAMFERB
 40
0.0
  9
$FASTZOOM
 70
     1
  9
$SKPOLY
 70
     0
  9
$TDCREATE
 40
2447222.5666886573
  9
$TDUPDATE
 40
2447222.5666886573
  9
$TDINDWG
 40
0.0000000000
  9
$TDUSRTIMER
 40
0.0000000000
  9
$USRTIMER
 70
     1
  9
$ANGBASE
 50
0.0
  9
$ANGDIR
 70
     0
  9
$PDMODE
 70
     0
  9
$PDSIZE
 40
0.0
  9
$PLINEWID
 40
0.0
  9
$COORDS
 70
     0
  9
$SPLFRAME
 70
     0
  9
$SPLINESEGS
 70
     8
  9
$ATTDIA
 70
     0
  9
$ATTREQ
 70
     1
  9
$USERI1
 70
     0
  9
$USERI2
 70
     0
  9
$USERI3
 70
     0
  9
$USERI4
 70
     0
  9
$USERI5
 70
     0
  9
$USERR1
 40
0.0
  9
$USERR2
 40
0.0
  9
$USERR3
 40
0.0
  9
$USERR4
 40
0.0
  9
$USERR5
 40
0.0
  0
ENDSEC
  0
SECTION
  2
TABLES
  0
TABLE
  2
LTYPE
 70
     13
  0
LTYPE
  2
CONTINUOUS
 70
    64
  3
Solid line
 72
    65
 73
     0
 40
0.0
  0
LTYPE
  2
DASHED
 70
    64
  3
__ __ __ __ __ __ __ __ __ __ __ __ __ __ __
 72
    65
 73
     2
 40
0.75
 49
0.5
 49
-0.25
  0
LTYPE
  2
HIDDEN
 70
    64
  3
_ _ _ _ _ _ _ _ _ _ _ _ _ _ _ _ _ _ _ _ _ _ _
 72
    65
 73
     2
 40
0.375
 49
0.25
 49
-0.125
  0
LTYPE
  2
CENTER
 70
    64
  3
____ _ ____ _ ____ _ ____ _ ____ _ ____ _ ____
 72
    65
 73
     4
 40
2.0
 49
1.25
 49
-0.25
 49
0.25
 49
-0.25
  0
LTYPE
  2
PHANTOM
 70
    64
  3
_____ _ _ _____ _ _ _____ _ _ _____ _ _ ____
 72
    65
 73
     6
 40
2.5
 49
1.25
 49
-0.25
 49
0.25
 49
-0.25
 49
0.25
 49
-0.25
  0
LTYPE
  2
DOT
 70
    64
  3
...............................................
 72
    65
 73
     2
 40
0.25
 49
0.0
 49
-0.25
  0
LTYPE
  2
DASHDOT
 70
    64
  3
__ . __ . __ . __ . __ . __ . __ . __ . __ . __
 72
    65
 73
     4
 40
1.0
 49
0.5
 49
-0.25
 49
0.0
 49
-0.25
  0
LTYPE
  2
BORDER
 70
    64
  3
__ __ . __ __ . __ __ . __ __ . __ __ . __ __
 72
    65
 73
     6
 40
1.75
 49
0.5
 49
-0.25
 49
0.5
 49
-0.25
 49
0.0
 49
-0.25
  0
LTYPE
  2
DIVIDE
 70
    64
  3
__ . . __ . . __ . . __ . . __ . . __ . . __
 72
    65
 73
     6
 40
1.25
 49
0.5
 49
-0.25
 49
0.0
 49
-0.25
 49
0.0
 49
-0.25
  0
LTYPE
  2
DCTYPE1
 70
    64
  3
__ . . __ . . __ . . __ . . __ . . __ . . __
 72
    65
 73
     8
 40
2.5
 49
0.5
 49
-0.25
 49
0.125
 49
-0.25
 49
0.25
 49
-0.25
 49
0.125
 49
-0.25
  0
LTYPE
  2
DCTYPE2
 70
    64
  3
__ . . __ . . __ . . __ . . __ . . __ . . __
 72
    65
 73
     6
 40
2.05
 49
1.0
 49
-0.3
 49
0.15
 49
-0.15
 49
0.15
 49
-0.3
  0
LTYPE
  2
DCTYPE3
 70
    64
  3
__ . . __ . . __ . . __ . . __ . . __ . . __
 72
    65
 73
     6
 40
2.5
 49
0.8
 49
-0.2
 49
0.8
 49
-0.2
 49
0.3
 49
-0.2
  0
LTYPE
  2
DCTYPE4
 70
    64
  3
__ . . __ . . __ . . __ . . __ . . __ . . __
 72
    65
 73
     10
 40
3.97
 49
1.75
 49
-0.3
 49
0.3
 49
-0.3
 49
0.06
 49
-0.3
 49
0.06
 49
-0.3
 49
0.3
 49
-0.3
  0
ENDTAB
  0
TABLE
  2
LAYER
 70
    153
  0
LAYER
  2
LAYER1
 70
 64
 62
     7
  6
CONTINUOUS
  0
LAYER
  2
LAYER10
 70
 64
 62
     1
  6
CONTINUOUS
  0
LAYER
  2
LAYER12
 70
 64
 62
     5
  6
CONTINUOUS
  0
ENDTAB
  0
ENDSEC
  0
SECTION
  2
BLOCKS
  0
ENDSEC
  0
SECTION
  2
ENTITIES
  0
CIRCLE
  8
LAYER1
 62
     7
  6
CONTINUOUS
 10
11.2213
 20
-0.1831
 40
0.0180
  0
CIRCLE
  8
LAYER1
 62
     7
  6
CONTINUOUS
 10
11.3408
 20
-0.2413
 40
0.0227
  0
CIRCLE
  8
LAYER1
 62
     7
  6
CONTINUOUS
 10
11.2045
 20
0.2679
 40
0.0211
  0
CIRCLE
  8
LAYER1
 62
     7
  6
CONTINUOUS
 10
11.2813
 20
0.1632
 40
0.0164
  0
CIRCLE
  8
LAYER1
 62
     7
  6
CONTINUOUS
 10
11.5727
 20
0.1711
 40
0.0102
  0
CIRCLE
  8
LAYER1
 62
     7
  6
CONTINUOUS
 10
11.8232
 20
0.0998
 40
0.0114
  0
CIRCLE
  8
LAYER1
 62
     7
  6
CONTINUOUS
 10
11.8870
 20
0.2456
 40
0.0130
  0
CIRCLE
  8
LAYER1
 62
     7
  6
CONTINUOUS
 10
12.0001
 20
-0.4163
 40
0.0155
  0
POLYLINE
  8
LAYER1
 62
     7
 66
     1
  6
CONTINUOUS
  0
VERTEX
  8
LAYER1
 62
     7
  6
CONTINUOUS
 10
11.5114
 20
0.0688
  0
VERTEX
  8
LAYER1
 62
     7
  6
CONTINUOUS
 10
11.5121
 20
0.0678
  0
VERTEX
  8
LAYER1
 62
     7
  6
CONTINUOUS
 10
11.5128
 20
0.0668
  0
VERTEX
  8
LAYER1
 62
     7
  6
CONTINUOUS
 10
11.5135
 20
0.0658
  0
VERTEX
  8
LAYER1
 62
     7
  6
CONTINUOUS
 10
11.5141
 20
0.0648
  0
VERTEX
  8
LAYER1
 62
     7
  6
CONTINUOUS
 10
11.5147
 20
0.0639
  0
VERTEX
  8
LAYER1
 62
     7
  6
CONTINUOUS
 10
11.5152
 20
0.0630
  0
VERTEX
  8
LAYER1
 62
     7
  6
CONTINUOUS
 10
11.5156
 20
0.0621
  0
VERTEX
  8
LAYER1
 62
     7
  6
CONTINUOUS
 10
11.5160
 20
0.0613
  0
VERTEX
  8
LAYER1
 62
     7
  6
CONTINUOUS
 10
11.5163
 20
0.0605
  0
VERTEX
  8
LAYER1
 62
     7
  6
CONTINUOUS
 10
11.5165
 20
0.0598
  0
VERTEX
  8
LAYER1
 62
     7
  6
CONTINUOUS
 10
11.5166
 20
0.0592
  0
VERTEX
  8
LAYER1
 62
     7
  6
CONTINUOUS
 10
11.5166
 20
0.0586
  0
VERTEX
  8
LAYER1
 62
     7
  6
CONTINUOUS
 10
11.5162
 20
0.0578
  0
VERTEX
  8
LAYER1
 62
     7
  6
CONTINUOUS
 10
11.5154
 20
0.0572
  0
VERTEX
  8
LAYER1
 62
     7
  6
CONTINUOUS
 10
11.5143
 20
0.0568
  0
VERTEX
  8
LAYER1
 62
     7
  6
CONTINUOUS
 10
11.5130
 20
0.0567
  0
VERTEX
  8
LAYER1
 62
     7
  6
CONTINUOUS
 10
11.5113
 20
0.0566
  0
VERTEX
  8
LAYER1
 62
     7
  6
CONTINUOUS
 10
11.5095
 20
0.0567
  0
VERTEX
  8
LAYER1
 62
     7
  6
CONTINUOUS
 10
11.5074
 20
0.0569
  0
VERTEX
  8
LAYER1
 62
     7
  6
CONTINUOUS
 10
11.5053
 20
0.0572
  0
VERTEX
  8
LAYER1
 62
     7
  6
CONTINUOUS
 10
11.5030
 20
0.0575
  0
VERTEX
  8
LAYER1
 62
     7
  6
CONTINUOUS
 10
11.5007
 20
0.0579
  0
VERTEX
  8
LAYER1
 62
     7
  6
CONTINUOUS
 10
11.4984
 20
0.0583
  0
VERTEX
  8
LAYER1
 62
     7
  6
CONTINUOUS
 10
11.4961
 20
0.0586
  0
VERTEX
  8
LAYER1
 62
     7
  6
CONTINUOUS
 10
11.4912
 20
0.0591
  0
VERTEX
  8
LAYER1
 62
     7
  6
CONTINUOUS
 10
11.4866
 20
0.0594
  0
VERTEX
  8
LAYER1
 62
     7
  6
CONTINUOUS
 10
11.4823
 20
0.0595
  0
VERTEX
  8
LAYER1
 62
     7
  6
CONTINUOUS
 10
11.4782
 20
0.0595
  0
VERTEX
  8
LAYER1
 62
     7
  6
CONTINUOUS
 10
11.4744
 20
0.0593
  0
VERTEX
  8
LAYER1
 62
     7
  6
CONTINUOUS
 10
11.4707
 20
0.0591
  0
VERTEX
  8
LAYER1
 62
     7
  6
CONTINUOUS
 10
11.4672
 20
0.0588
  0
VERTEX
  8
LAYER1
 62
     7
  6
CONTINUOUS
 10
11.4637
 20
0.0586
  0
VERTEX
  8
LAYER1
 62
     7
  6
CONTINUOUS
 10
11.4603
 20
0.0584
  0
VERTEX
  8
LAYER1
 62
     7
  6
CONTINUOUS
 10
11.4569
 20
0.0583
  0
VERTEX
  8
LAYER1
 62
     7
  6
CONTINUOUS
 10
11.4535
 20
0.0583
  0
VERTEX
  8
LAYER1
 62
     7
  6
CONTINUOUS
 10
11.4501
 20
0.0585
  0
VERTEX
  8
LAYER1
 62
     7
  6
CONTINUOUS
 10
11.4473
 20
0.0589
  0
VERTEX
  8
LAYER1
 62
     7
  6
CONTINUOUS
 10
11.4444
 20
0.0593
  0
VERTEX
  8
LAYER1
 62
     7
  6
CONTINUOUS
 10
11.4414
 20
0.0599
  0
VERTEX
  8
LAYER1
 62
     7
  6
CONTINUOUS
 10
11.4385
 20
0.0606
  0
VERTEX
  8
LAYER1
 62
     7
  6
CONTINUOUS
 10
11.4354
 20
0.0614
  0
VERTEX
  8
LAYER1
 62
     7
  6
CONTINUOUS
 10
11.4324
 20
0.0622
  0
VERTEX
  8
LAYER1
 62
     7
  6
CONTINUOUS
 10
11.4294
 20
0.0632
  0
VERTEX
  8
LAYER1
 62
     7
  6
CONTINUOUS
 10
11.4264
 20
0.0642
  0
VERTEX
  8
LAYER1
 62
     7
  6
CONTINUOUS
 10
11.4233
 20
0.0653
  0
VERTEX
  8
LAYER1
 62
     7
  6
CONTINUOUS
 10
11.4203
 20
0.0664
  0
VERTEX
  8
LAYER1
 62
     7
  6
CONTINUOUS
 10
11.4173
 20
0.0676
  0
VERTEX
  8
LAYER1
 62
     7
  6
CONTINUOUS
 10
11.4143
 20
0.0687
  0
VERTEX
  8
LAYER1
 62
     7
  6
CONTINUOUS
 10
11.4130
 20
0.0692
  0
VERTEX
  8
LAYER1
 62
     7
  6
CONTINUOUS
 10
11.4117
 20
0.0697
  0
VERTEX
  8
LAYER1
 62
     7
  6
CONTINUOUS
 10
11.4105
 20
0.0702
  0
VERTEX
  8
LAYER1
 62
     7
  6
CONTINUOUS
 10
11.4092
 20
0.0707
  0
VERTEX
  8
LAYER1
 62
     7
  6
CONTINUOUS
 10
11.4079
 20
0.0712
  0
VERTEX
  8
LAYER1
 62
     7
  6
CONTINUOUS
 10
11.4067
 20
0.0717
  0
VERTEX
  8
LAYER1
 62
     7
  6
CONTINUOUS
 10
11.4054
 20
0.0721
  0
VERTEX
  8
LAYER1
 62
     7
  6
CONTINUOUS
 10
11.4041
 20
0.0725
  0
VERTEX
  8
LAYER1
 62
     7
  6
CONTINUOUS
 10
11.4028
 20
0.0729
  0
VERTEX
  8
LAYER1
 62
     7
  6
CONTINUOUS
 10
11.4015
 20
0.0732
  0
VERTEX
  8
LAYER1
 62
     7
  6
CONTINUOUS
 10
11.4003
 20
0.0736
  0
VERTEX
  8
LAYER1
 62
     7
  6
CONTINUOUS
 10
11.3990
 20
0.0738
  0
VERTEX
  8
LAYER1
 62
     7
  6
CONTINUOUS
 10
11.3965
 20
0.0742
  0
VERTEX
  8
LAYER1
 62
     7
  6
CONTINUOUS
 10
11.3940
 20
0.0744
  0
VERTEX
  8
LAYER1
 62
     7
  6
CONTINUOUS
 10
11.3914
 20
0.0745
  0
VERTEX
  8
LAYER1
 62
     7
  6
CONTINUOUS
 10
11.3889
 20
0.0745
  0
VERTEX
  8
LAYER1
 62
     7
  6
CONTINUOUS
 10
11.3863
 20
0.0745
  0
VERTEX
  8
LAYER1
 62
     7
  6
CONTINUOUS
 10
11.3837
 20
0.0744
  0
VERTEX
  8
LAYER1
 62
     7
  6
CONTINUOUS
 10
11.3812
 20
0.0742
  0
VERTEX
  8
LAYER1
 62
     7
  6
CONTINUOUS
 10
11.3786
 20
0.0741
  0
VERTEX
  8
LAYER1
 62
     7
  6
CONTINUOUS
 10
11.3760
 20
0.0739
  0
VERTEX
  8
LAYER1
 62
     7
  6
CONTINUOUS
 10
11.3734
 20
0.0738
  0
VERTEX
  8
LAYER1
 62
     7
  6
CONTINUOUS
 10
11.3708
 20
0.0738
  0
VERTEX
  8
LAYER1
 62
     7
  6
CONTINUOUS
 10
11.3683
 20
0.0738
  0
VERTEX
  8
LAYER1
 62
     7
  6
CONTINUOUS
 10
11.3634
 20
0.0741
  0
VERTEX
  8
LAYER1
 62
     7
  6
CONTINUOUS
 10
11.3585
 20
0.0749
  0
VERTEX
  8
LAYER1
 62
     7
  6
CONTINUOUS
 10
11.3537
 20
0.0759
  0
VERTEX
  8
LAYER1
 62
     7
  6
CONTINUOUS
 10
11.3489
 20
0.0773
  0
VERTEX
  8
LAYER1
 62
     7
  6
CONTINUOUS
 10
11.3442
 20
0.0789
  0
VERTEX
  8
LAYER1
 62
     7
  6
CONTINUOUS
 10
11.3395
 20
0.0807
  0
VERTEX
  8
LAYER1
 62
     7
  6
CONTINUOUS
 10
11.3349
 20
0.0827
  0
VERTEX
  8
LAYER1
 62
     7
  6
CONTINUOUS
 10
11.3302
 20
0.0849
  0
VERTEX
  8
LAYER1
 62
     7
  6
CONTINUOUS
 10
11.3257
 20
0.0871
  0
VERTEX
  8
LAYER1
 62
     7
  6
CONTINUOUS
 10
11.3211
 20
0.0894
  0
VERTEX
  8
LAYER1
 62
     7
  6
CONTINUOUS
 10
11.3166
 20
0.0918
  0
VERTEX
  8
LAYER1
 62
     7
  6
CONTINUOUS
 10
11.3120
 20
0.0942
  0
VERTEX
  8
LAYER1
 62
     7
  6
CONTINUOUS
 10
11.3098
 20
0.0953
  0
VERTEX
  8
LAYER1
 62
     7
  6
CONTINUOUS
 10
11.3075
 20
0.0965
  0
VERTEX
  8
LAYER1
 62
     7
  6
CONTINUOUS
 10
11.3053
 20
0.0977
  0
VERTEX
  8
LAYER1
 62
     7
  6
CONTINUOUS
 10
11.3031
 20
0.0989
  0
VERTEX
  8
LAYER1
 62
     7
  6
CONTINUOUS
 10
11.3009
 20
0.1001
  0
VERTEX
  8
LAYER1
 62
     7
  6
CONTINUOUS
 10
11.2987
 20
0.1013
  0
VERTEX
  8
LAYER1
 62
     7
  6
CONTINUOUS
 10
11.2966
 20
0.1025
  0
VERTEX
  8
LAYER1
 62
     7
  6
CONTINUOUS
 10
11.2944
 20
0.1038
  0
VERTEX
  8
LAYER1
 62
     7
  6
CONTINUOUS
 10
11.2924
 20
0.1051
  0
VERTEX
  8
LAYER1
 62
     7
  6
CONTINUOUS
 10
11.2904
 20
0.1065
  0
VERTEX
  8
LAYER1
 62
     7
  6
CONTINUOUS
 10
11.2884
 20
0.1080
  0
VERTEX
  8
LAYER1
 62
     7
  6
CONTINUOUS
 10
11.2865
 20
0.1095
  0
VERTEX
  8
LAYER1
 62
     7
  6
CONTINUOUS
 10
11.2840
 20
0.1116
  0
VERTEX
  8
LAYER1
 62
     7
  6
CONTINUOUS
 10
11.2816
 20
0.1139
  0
VERTEX
  8
LAYER1
 62
     7
  6
CONTINUOUS
 10
11.2793
 20
0.1162
  0
VERTEX
  8
LAYER1
 62
     7
  6
CONTINUOUS
 10
11.2771
 20
0.1187
  0
VERTEX
  8
LAYER1
 62
     7
  6
CONTINUOUS
 10
11.2749
 20
0.1212
  0
VERTEX
  8
LAYER1
 62
     7
  6
CONTINUOUS
 10
11.2728
 20
0.1238
  0
VERTEX
  8
LAYER1
 62
     7
  6
CONTINUOUS
 10
11.2708
 20
0.1264
  0
VERTEX
  8
LAYER1
 62
     7
  6
CONTINUOUS
 10
11.2687
 20
0.1291
  0
VERTEX
  8
LAYER1
 62
     7
  6
CONTINUOUS
 10
11.2667
 20
0.1319
  0
VERTEX
  8
LAYER1
 62
     7
  6
CONTINUOUS
 10
11.2648
 20
0.1346
  0
VERTEX
  8
LAYER1
 62
     7
  6
CONTINUOUS
 10
11.2628
 20
0.1374
  0
VERTEX
  8
LAYER1
 62
     7
  6
CONTINUOUS
 10
11.2609
 20
0.1401
  0
VERTEX
  8
LAYER1
 62
     7
  6
CONTINUOUS
 10
11.2585
 20
0.1434
  0
VERTEX
  8
LAYER1
 62
     7
  6
CONTINUOUS
 10
11.2562
 20
0.1466
  0
VERTEX
  8
LAYER1
 62
     7
  6
CONTINUOUS
 10
11.2538
 20
0.1498
  0
VERTEX
  8
LAYER1
 62
     7
  6
CONTINUOUS
 10
11.2514
 20
0.1529
  0
VERTEX
  8
LAYER1
 62
     7
  6
CONTINUOUS
 10
11.2490
 20
0.1560
  0
VERTEX
  8
LAYER1
 62
     7
  6
CONTINUOUS
 10
11.2465
 20
0.1591
  0
VERTEX
  8
LAYER1
 62
     7
  6
CONTINUOUS
 10
11.2439
 20
0.1621
  0
VERTEX
  8
LAYER1
 62
     7
  6
CONTINUOUS
 10
11.2413
 20
0.1650
  0
VERTEX
  8
LAYER1
 62
     7
  6
CONTINUOUS
 10
11.2386
 20
0.1678
  0
VERTEX
  8
LAYER1
 62
     7
  6
CONTINUOUS
 10
11.2359
 20
0.1706
  0
VERTEX
  8
LAYER1
 62
     7
  6
CONTINUOUS
 10
11.2331
 20
0.1733
  0
VERTEX
  8
LAYER1
 62
     7
  6
CONTINUOUS
 10
11.2302
 20
0.1759
  0
VERTEX
  8
LAYER1
 62
     7
  6
CONTINUOUS
 10
11.2269
 20
0.1786
  0
VERTEX
  8
LAYER1
 62
     7
  6
CONTINUOUS
 10
11.2235
 20
0.1812
  0
VERTEX
  8
LAYER1
 62
     7
  6
CONTINUOUS
 10
11.2201
 20
0.1837
  0
VERTEX
  8
LAYER1
 62
     7
  6
CONTINUOUS
 10
11.2167
 20
0.1862
  0
VERTEX
  8
LAYER1
 62
     7
  6
CONTINUOUS
 10
11.2131
 20
0.1887
  0
VERTEX
  8
LAYER1
 62
     7
  6
CONTINUOUS
 10
11.2096
 20
0.1911
  0
VERTEX
  8
LAYER1
 62
     7
  6
CONTINUOUS
 10
11.2061
 20
0.1936
  0
VERTEX
  8
LAYER1
 62
     7
  6
CONTINUOUS
 10
11.2026
 20
0.1960
  0
VERTEX
  8
LAYER1
 62
     7
  6
CONTINUOUS
 10
11.1992
 20
0.1985
  0
VERTEX
  8
LAYER1
 62
     7
  6
CONTINUOUS
 10
11.1958
 20
0.2011
  0
VERTEX
  8
LAYER1
 62
     7
  6
CONTINUOUS
 10
11.1924
 20
0.2038
  0
VERTEX
  8
LAYER1
 62
     7
  6
CONTINUOUS
 10
11.1892
 20
0.2065
  0
VERTEX
  8
LAYER1
 62
     7
  6
CONTINUOUS
 10
11.1864
 20
0.2092
  0
VERTEX
  8
LAYER1
 62
     7
  6
CONTINUOUS
 10
11.1836
 20
0.2119
  0
VERTEX
  8
LAYER1
 62
     7
  6
CONTINUOUS
 10
11.1809
 20
0.2147
  0
VERTEX
  8
LAYER1
 62
     7
  6
CONTINUOUS
 10
11.1783
 20
0.2177
  0
VERTEX
  8
LAYER1
 62
     7
  6
CONTINUOUS
 10
11.1757
 20
0.2206
  0
VERTEX
  8
LAYER1
 62
     7
  6
CONTINUOUS
 10
11.1732
 20
0.2236
  0
VERTEX
  8
LAYER1
 62
     7
  6
CONTINUOUS
 10
11.1707
 20
0.2267
  0
VERTEX
  8
LAYER1
 62
     7
  6
CONTINUOUS
 10
11.1682
 20
0.2298
  0
VERTEX
  8
LAYER1
 62
     7
  6
CONTINUOUS
 10
11.1658
 20
0.2329
  0
VERTEX
  8
LAYER1
 62
     7
  6
CONTINUOUS
 10
11.1634
 20
0.2360
  0
VERTEX
  8
LAYER1
 62
     7
  6
CONTINUOUS
 10
11.1610
 20
0.2392
  0
VERTEX
  8
LAYER1
 62
     7
  6
CONTINUOUS
 10
11.1585
 20
0.2423
  0
VERTEX
  8
LAYER1
 62
     7
  6
CONTINUOUS
 10
11.1561
 20
0.2454
  0
VERTEX
  8
LAYER1
 62
     7
  6
CONTINUOUS
 10
11.1536
 20
0.2484
  0
VERTEX
  8
LAYER1
 62
     7
  6
CONTINUOUS
 10
11.1511
 20
0.2515
  0
VERTEX
  8
LAYER1
 62
     7
  6
CONTINUOUS
 10
11.1486
 20
0.2545
  0
VERTEX
  8
LAYER1
 62
     7
  6
CONTINUOUS
 10
11.1460
 20
0.2575
  0
VERTEX
  8
LAYER1
 62
     7
  6
CONTINUOUS
 10
11.1435
 20
0.2605
  0
VERTEX
  8
LAYER1
 62
     7
  6
CONTINUOUS
 10
11.1409
 20
0.2634
  0
VERTEX
  8
LAYER1
 62
     7
  6
CONTINUOUS
 10
11.1383
 20
0.2664
  0
VERTEX
  8
LAYER1
 62
     7
  6
CONTINUOUS
 10
11.1357
 20
0.2693
  0
VERTEX
  8
LAYER1
 62
     7
  6
CONTINUOUS
 10
11.1331
 20
0.2722
  0
VERTEX
  8
LAYER1
 62
     7
  6
CONTINUOUS
 10
11.1305
 20
0.2751
  0
VERTEX
  8
LAYER1
 62
     7
  6
CONTINUOUS
 10
11.1278
 20
0.2780
  0
VERTEX
  8
LAYER1
 62
     7
  6
CONTINUOUS
 10
11.1251
 20
0.2809
  0
VERTEX
  8
LAYER1
 62
     7
  6
CONTINUOUS
 10
11.1225
 20
0.2838
  0
VERTEX
  8
LAYER1
 62
     7
  6
CONTINUOUS
 10
11.1198
 20
0.2867
  0
VERTEX
  8
LAYER1
 62
     7
  6
CONTINUOUS
 10
11.1172
 20
0.2895
  0
VERTEX
  8
LAYER1
 62
     7
  6
CONTINUOUS
 10
11.1145
 20
0.2924
  0
VERTEX
  8
LAYER1
 62
     7
  6
CONTINUOUS
 10
11.1119
 20
0.2954
  0
VERTEX
  8
LAYER1
 62
     7
  6
CONTINUOUS
 10
11.1093
 20
0.2983
  0
VERTEX
  8
LAYER1
 62
     7
  6
CONTINUOUS
 10
11.1068
 20
0.3013
  0
VERTEX
  8
LAYER1
 62
     7
  6
CONTINUOUS
 10
11.1043
 20
0.3043
  0
VERTEX
  8
LAYER1
 62
     7
  6
CONTINUOUS
 10
11.1018
 20
0.3074
  0
VERTEX
  8
LAYER1
 62
     7
  6
CONTINUOUS
 10
11.0994
 20
0.3106
  0
VERTEX
  8
LAYER1
 62
     7
  6
CONTINUOUS
 10
11.0971
 20
0.3138
  0
VERTEX
  8
LAYER1
 62
     7
  6
CONTINUOUS
 10
11.0947
 20
0.3173
  0
VERTEX
  8
LAYER1
 62
     7
  6
CONTINUOUS
 10
11.0923
 20
0.3210
  0
VERTEX
  8
LAYER1
 62
     7
  6
CONTINUOUS
 10
11.0899
 20
0.3246
  0
VERTEX
  8
LAYER1
 62
     7
  6
CONTINUOUS
 10
11.0876
 20
0.3283
  0
VERTEX
  8
LAYER1
 62
     7
  6
CONTINUOUS
 10
11.0852
 20
0.3319
  0
VERTEX
  8
LAYER1
 62
     7
  6
CONTINUOUS
 10
11.0829
 20
0.3355
  0
VERTEX
  8
LAYER1
 62
     7
  6
CONTINUOUS
 10
11.0804
 20
0.3390
  0
VERTEX
  8
LAYER1
 62
     7
  6
CONTINUOUS
 10
11.0779
 20
0.3424
  0
VERTEX
  8
LAYER1
 62
     7
  6
CONTINUOUS
 10
11.0752
 20
0.3457
  0
VERTEX
  8
LAYER1
 62
     7
  6
CONTINUOUS
 10
11.0725
 20
0.3489
  0
VERTEX
  8
LAYER1
 62
     7
  6
CONTINUOUS
 10
11.0695
 20
0.3519
  0
VERTEX
  8
LAYER1
 62
     7
  6
CONTINUOUS
 10
11.0664
 20
0.3546
  0
VERTEX
  8
LAYER1
 62
     7
  6
CONTINUOUS
 10
11.0640
 20
0.3565
  0
VERTEX
  8
LAYER1
 62
     7
  6
CONTINUOUS
 10
11.0615
 20
0.3583
  0
VERTEX
  8
LAYER1
 62
     7
  6
CONTINUOUS
 10
11.0590
 20
0.3600
  0
VERTEX
  8
LAYER1
 62
     7
  6
CONTINUOUS
 10
11.0564
 20
0.3616
  0
VERTEX
  8
LAYER1
 62
     7
  6
CONTINUOUS
 10
11.0537
 20
0.3632
  0
VERTEX
  8
LAYER1
 62
     7
  6
CONTINUOUS
 10
11.0511
 20
0.3648
  0
VERTEX
  8
LAYER1
 62
     7
  6
CONTINUOUS
 10
11.0484
 20
0.3664
  0
VERTEX
  8
LAYER1
 62
     7
  6
CONTINUOUS
 10
11.0458
 20
0.3680
  0
VERTEX
  8
LAYER1
 62
     7
  6
CONTINUOUS
 10
11.0432
 20
0.3696
  0
VERTEX
  8
LAYER1
 62
     7
  6
CONTINUOUS
 10
11.0406
 20
0.3714
  0
VERTEX
  8
LAYER1
 62
     7
  6
CONTINUOUS
 10
11.0381
 20
0.3732
  0
VERTEX
  8
LAYER1
 62
     7
  6
CONTINUOUS
 10
11.0357
 20
0.3751
  0
VERTEX
  8
LAYER1
 62
     7
  6
CONTINUOUS
 10
11.0351
 20
0.3756
  0
VERTEX
  8
LAYER1
 62
     7
  6
CONTINUOUS
 10
11.0344
 20
0.3761
  0
VERTEX
  8
LAYER1
 62
     7
  6
CONTINUOUS
 10
11.0338
 20
0.3767
  0
VERTEX
  8
LAYER1
 62
     7
  6
CONTINUOUS
 10
11.0332
 20
0.3773
  0
VERTEX
  8
LAYER1
 62
     7
  6
CONTINUOUS
 10
11.0326
 20
0.3778
  0
VERTEX
  8
LAYER1
 62
     7
  6
CONTINUOUS
 10
11.0320
 20
0.3784
  0
VERTEX
  8
LAYER1
 62
     7
  6
CONTINUOUS
 10
11.0314
 20
0.3790
  0
VERTEX
  8
LAYER1
 62
     7
  6
CONTINUOUS
 10
11.0308
 20
0.3795
  0
VERTEX
  8
LAYER1
 62
     7
  6
CONTINUOUS
 10
11.0302
 20
0.3801
  0
VERTEX
  8
LAYER1
 62
     7
  6
CONTINUOUS
 10
11.0296
 20
0.3807
  0
VERTEX
  8
LAYER1
 62
     7
  6
CONTINUOUS
 10
11.0290
 20
0.3813
  0
VERTEX
  8
LAYER1
 62
     7
  6
CONTINUOUS
 10
11.0284
 20
0.3819
  0
SEQEND
  8
LAYER1
  0
POLYLINE
  8
LAYER1
 62
     7
 66
     1
  6
CONTINUOUS
  0
VERTEX
  8
LAYER1
 62
     7
  6
CONTINUOUS
 10
11.0284
 20
0.4858
  0
VERTEX
  8
LAYER1
 62
     7
  6
CONTINUOUS
 10
11.0294
 20
0.4851
  0
VERTEX
  8
LAYER1
 62
     7
  6
CONTINUOUS
 10
11.0305
 20
0.4845
  0
VERTEX
  8
LAYER1
 62
     7
  6
CONTINUOUS
 10
11.0316
 20
0.4838
  0
VERTEX
  8
LAYER1
 62
     7
  6
CONTINUOUS
 10
11.0326
 20
0.4831
  0
VERTEX
  8
LAYER1
 62
     7
  6
CONTINUOUS
 10
11.0336
 20
0.4824
  0
VERTEX
  8
LAYER1
 62
     7
  6
CONTINUOUS
 10
11.0347
 20
0.4817
  0
VERTEX
  8
LAYER1
 62
     7
  6
CONTINUOUS
 10
11.0357
 20
0.4810
  0
VERTEX
  8
LAYER1
 62
     7
  6
CONTINUOUS
 10
11.0367
 20
0.4803
  0
VERTEX
  8
LAYER1
 62
     7
  6
CONTINUOUS
 10
11.0378
 20
0.4796
  0
VERTEX
  8
LAYER1
 62
     7
  6
CONTINUOUS
 10
11.0387
 20
0.4788
  0
VERTEX
  8
LAYER1
 62
     7
  6
CONTINUOUS
 10
11.0397
 20
0.4781
  0
VERTEX
  8
LAYER1
 62
     7
  6
CONTINUOUS
 10
11.0407
 20
0.4773
  0
VERTEX
  8
LAYER1
 62
     7
  6
CONTINUOUS
 10
11.0432
 20
0.4752
  0
VERTEX
  8
LAYER1
 62
     7
  6
CONTINUOUS
 10
11.0456
 20
0.4729
  0
VERTEX
  8
LAYER1
 62
     7
  6
CONTINUOUS
 10
11.0479
 20
0.4705
  0
VERTEX
  8
LAYER1
 62
     7
  6
CONTINUOUS
 10
11.0501
 20
0.4680
  0
VERTEX
  8
LAYER1
 62
     7
  6
CONTINUOUS
 10
11.0522
 20
0.4655
  0
VERTEX
  8
LAYER1
 62
     7
  6
CONTINUOUS
 10
11.0543
 20
0.4629
  0
VERTEX
  8
LAYER1
 62
     7
  6
CONTINUOUS
 10
11.0564
 20
0.4602
  0
VERTEX
  8
LAYER1
 62
     7
  6
CONTINUOUS
 10
11.0584
 20
0.4575
  0
VERTEX
  8
LAYER1
 62
     7
  6
CONTINUOUS
 10
11.0603
 20
0.4548
  0
VERTEX
  8
LAYER1
 62
     7
  6
CONTINUOUS
 10
11.0623
 20
0.4521
  0
VERTEX
  8
LAYER1
 62
     7
  6
CONTINUOUS
 10
11.0643
 20
0.4494
  0
VERTEX
  8
LAYER1
 62
     7
  6
CONTINUOUS
 10
11.0663
 20
0.4467
  0
VERTEX
  8
LAYER1
 62
     7
  6
CONTINUOUS
 10
11.0679
 20
0.4445
  0
VERTEX
  8
LAYER1
 62
     7
  6
CONTINUOUS
 10
11.0696
 20
0.4423
  0
VERTEX
  8
LAYER1
 62
     7
  6
CONTINUOUS
 10
11.0713
 20
0.4401
  0
VERTEX
  8
LAYER1
 62
     7
  6
CONTINUOUS
 10
11.0730
 20
0.4380
  0
VERTEX
  8
LAYER1
 62
     7
  6
CONTINUOUS
 10
11.0747
 20
0.4359
  0
VERTEX
  8
LAYER1
 62
     7
  6
CONTINUOUS
 10
11.0764
 20
0.4338
  0
VERTEX
  8
LAYER1
 62
     7
  6
CONTINUOUS
 10
11.0781
 20
0.4317
  0
VERTEX
  8
LAYER1
 62
     7
  6
CONTINUOUS
 10
11.0799
 20
0.4295
  0
VERTEX
  8
LAYER1
 62
     7
  6
CONTINUOUS
 10
11.0816
 20
0.4274
  0
VERTEX
  8
LAYER1
 62
     7
  6
CONTINUOUS
 10
11.0833
 20
0.4253
  0
VERTEX
  8
LAYER1
 62
     7
  6
CONTINUOUS
 10
11.0850
 20
0.4232
  0
VERTEX
  8
LAYER1
 62
     7
  6
CONTINUOUS
 10
11.0868
 20
0.4211
  0
VERTEX
  8
LAYER1
 62
     7
  6
CONTINUOUS
 10
11.0892
 20
0.4181
  0
VERTEX
  8
LAYER1
 62
     7
  6
CONTINUOUS
 10
11.0917
 20
0.4150
  0
VERTEX
  8
LAYER1
 62
     7
  6
CONTINUOUS
 10
11.0942
 20
0.4119
  0
VERTEX
  8
LAYER1
 62
     7
  6
CONTINUOUS
 10
11.0966
 20
0.4089
  0
VERTEX
  8
LAYER1
 62
     7
  6
CONTINUOUS
 10
11.0991
 20
0.4058
  0
VERTEX
  8
LAYER1
 62
     7
  6
CONTINUOUS
 10
11.1016
 20
0.4028
  0
VERTEX
  8
LAYER1
 62
     7
  6
CONTINUOUS
 10
11.1042
 20
0.3998
  0
VERTEX
  8
LAYER1
 62
     7
  6
CONTINUOUS
 10
11.1067
 20
0.3968
  0
VERTEX
  8
LAYER1
 62
     7
  6
CONTINUOUS
 10
11.1093
 20
0.3939
  0
VERTEX
  8
LAYER1
 62
     7
  6
CONTINUOUS
 10
11.1120
 20
0.3910
  0
VERTEX
  8
LAYER1
 62
     7
  6
CONTINUOUS
 10
11.1147
 20
0.3881
  0
VERTEX
  8
LAYER1
 62
     7
  6
CONTINUOUS
 10
11.1175
 20
0.3854
  0
VERTEX
  8
LAYER1
 62
     7
  6
CONTINUOUS
 10
11.1207
 20
0.3822
  0
VERTEX
  8
LAYER1
 62
     7
  6
CONTINUOUS
 10
11.1241
 20
0.3792
  0
VERTEX
  8
LAYER1
 62
     7
  6
CONTINUOUS
 10
11.1275
 20
0.3762
  0
VERTEX
  8
LAYER1
 62
     7
  6
CONTINUOUS
 10
11.1309
 20
0.3733
  0
VERTEX
  8
LAYER1
 62
     7
  6
CONTINUOUS
 10
11.1344
 20
0.3704
  0
VERTEX
  8
LAYER1
 62
     7
  6
CONTINUOUS
 10
11.1379
 20
0.3675
  0
VERTEX
  8
LAYER1
 62
     7
  6
CONTINUOUS
 10
11.1414
 20
0.3646
  0
VERTEX
  8
LAYER1
 62
     7
  6
CONTINUOUS
 10
11.1449
 20
0.3617
  0
VERTEX
  8
LAYER1
 62
     7
  6
CONTINUOUS
 10
11.1483
 20
0.3588
  0
VERTEX
  8
LAYER1
 62
     7
  6
CONTINUOUS
 10
11.1517
 20
0.3558
  0
VERTEX
  8
LAYER1
 62
     7
  6
CONTINUOUS
 10
11.1551
 20
0.3527
  0
VERTEX
  8
LAYER1
 62
     7
  6
CONTINUOUS
 10
11.1584
 20
0.3496
  0
VERTEX
  8
LAYER1
 62
     7
  6
CONTINUOUS
 10
11.1606
 20
0.3475
  0
VERTEX
  8
LAYER1
 62
     7
  6
CONTINUOUS
 10
11.1627
 20
0.3454
  0
VERTEX
  8
LAYER1
 62
     7
  6
CONTINUOUS
 10
11.1648
 20
0.3432
  0
VERTEX
  8
LAYER1
 62
     7
  6
CONTINUOUS
 10
11.1669
 20
0.3410
  0
VERTEX
  8
LAYER1
 62
     7
  6
CONTINUOUS
 10
11.1689
 20
0.3388
  0
VERTEX
  8
LAYER1
 62
     7
  6
CONTINUOUS
 10
11.1710
 20
0.3366
  0
VERTEX
  8
LAYER1
 62
     7
  6
CONTINUOUS
 10
11.1731
 20
0.3345
  0
VERTEX
  8
LAYER1
 62
     7
  6
CONTINUOUS
 10
11.1752
 20
0.3323
  0
VERTEX
  8
LAYER1
 62
     7
  6
CONTINUOUS
 10
11.1774
 20
0.3302
  0
VERTEX
  8
LAYER1
 62
     7
  6
CONTINUOUS
 10
11.1795
 20
0.3281
  0
VERTEX
  8
LAYER1
 62
     7
  6
CONTINUOUS
 10
11.1817
 20
0.3261
  0
VERTEX
  8
LAYER1
 62
     7
  6
CONTINUOUS
 10
11.1840
 20
0.3241
  0
VERTEX
  8
LAYER1
 62
     7
  6
CONTINUOUS
 10
11.1861
 20
0.3223
  0
VERTEX
  8
LAYER1
 62
     7
  6
CONTINUOUS
 10
11.1882
 20
0.3206
  0
VERTEX
  8
LAYER1
 62
     7
  6
CONTINUOUS
 10
11.1904
 20
0.3190
  0
VERTEX
  8
LAYER1
 62
     7
  6
CONTINUOUS
 10
11.1925
 20
0.3173
  0
VERTEX
  8
LAYER1
 62
     7
  6
CONTINUOUS
 10
11.1947
 20
0.3157
  0
VERTEX
  8
LAYER1
 62
     7
  6
CONTINUOUS
 10
11.1969
 20
0.3140
  0
VERTEX
  8
LAYER1
 62
     7
  6
CONTINUOUS
 10
11.1991
 20
0.3124
  0
VERTEX
  8
LAYER1
 62
     7
  6
CONTINUOUS
 10
11.2012
 20
0.3107
  0
VERTEX
  8
LAYER1
 62
     7
  6
CONTINUOUS
 10
11.2034
 20
0.3090
  0
VERTEX
  8
LAYER1
 62
     7
  6
CONTINUOUS
 10
11.2055
 20
0.3073
  0
VERTEX
  8
LAYER1
 62
     7
  6
CONTINUOUS
 10
11.2076
 20
0.3055
  0
VERTEX
  8
LAYER1
 62
     7
  6
CONTINUOUS
 10
11.2096
 20
0.3037
  0
VERTEX
  8
LAYER1
 62
     7
  6
CONTINUOUS
 10
11.2111
 20
0.3022
  0
VERTEX
  8
LAYER1
 62
     7
  6
CONTINUOUS
 10
11.2126
 20
0.3007
  0
VERTEX
  8
LAYER1
 62
     7
  6
CONTINUOUS
 10
11.2141
 20
0.2991
  0
VERTEX
  8
LAYER1
 62
     7
  6
CONTINUOUS
 10
11.2155
 20
0.2975
  0
VERTEX
  8
LAYER1
 62
     7
  6
CONTINUOUS
 10
11.2169
 20
0.2958
  0
VERTEX
  8
LAYER1
 62
     7
  6
CONTINUOUS
 10
11.2182
 20
0.2941
  0
VERTEX
  8
LAYER1
 62
     7
  6
CONTINUOUS
 10
11.2195
 20
0.2924
  0
VERTEX
  8
LAYER1
 62
     7
  6
CONTINUOUS
 10
11.2207
 20
0.2907
  0
VERTEX
  8
LAYER1
 62
     7
  6
CONTINUOUS
 10
11.2218
 20
0.2889
  0
VERTEX
  8
LAYER1
 62
     7
  6
CONTINUOUS
 10
11.2229
 20
0.2870
  0
VERTEX
  8
LAYER1
 62
     7
  6
CONTINUOUS
 10
11.2240
 20
0.2851
  0
VERTEX
  8
LAYER1
 62
     7
  6
CONTINUOUS
 10
11.2249
 20
0.2832
  0
VERTEX
  8
LAYER1
 62
     7
  6
CONTINUOUS
 10
11.2259
 20
0.2811
  0
VERTEX
  8
LAYER1
 62
     7
  6
CONTINUOUS
 10
11.2268
 20
0.2790
  0
VERTEX
  8
LAYER1
 62
     7
  6
CONTINUOUS
 10
11.2276
 20
0.2769
  0
VERTEX
  8
LAYER1
 62
     7
  6
CONTINUOUS
 10
11.2284
 20
0.2747
  0
VERTEX
  8
LAYER1
 62
     7
  6
CONTINUOUS
 10
11.2292
 20
0.2725
  0
VERTEX
  8
LAYER1
 62
     7
  6
CONTINUOUS
 10
11.2300
 20
0.2703
  0
VERTEX
  8
LAYER1
 62
     7
  6
CONTINUOUS
 10
11.2308
 20
0.2682
  0
VERTEX
  8
LAYER1
 62
     7
  6
CONTINUOUS
 10
11.2315
 20
0.2660
  0
VERTEX
  8
LAYER1
 62
     7
  6
CONTINUOUS
 10
11.2324
 20
0.2639
  0
VERTEX
  8
LAYER1
 62
     7
  6
CONTINUOUS
 10
11.2332
 20
0.2618
  0
VERTEX
  8
LAYER1
 62
     7
  6
CONTINUOUS
 10
11.2342
 20
0.2597
  0
VERTEX
  8
LAYER1
 62
     7
  6
CONTINUOUS
 10
11.2352
 20
0.2577
  0
VERTEX
  8
LAYER1
 62
     7
  6
CONTINUOUS
 10
11.2368
 20
0.2548
  0
VERTEX
  8
LAYER1
 62
     7
  6
CONTINUOUS
 10
11.2386
 20
0.2521
  0
VERTEX
  8
LAYER1
 62
     7
  6
CONTINUOUS
 10
11.2405
 20
0.2494
  0
VERTEX
  8
LAYER1
 62
     7
  6
CONTINUOUS
 10
11.2426
 20
0.2468
  0
VERTEX
  8
LAYER1
 62
     7
  6
CONTINUOUS
 10
11.2447
 20
0.2443
  0
VERTEX
  8
LAYER1
 62
     7
  6
CONTINUOUS
 10
11.2470
 20
0.2418
  0
VERTEX
  8
LAYER1
 62
     7
  6
CONTINUOUS
 10
11.2493
 20
0.2393
  0
VERTEX
  8
LAYER1
 62
     7
  6
CONTINUOUS
 10
11.2516
 20
0.2369
  0
VERTEX
  8
LAYER1
 62
     7
  6
CONTINUOUS
 10
11.2539
 20
0.2344
  0
VERTEX
  8
LAYER1
 62
     7
  6
CONTINUOUS
 10
11.2563
 20
0.2320
  0
VERTEX
  8
LAYER1
 62
     7
  6
CONTINUOUS
 10
11.2585
 20
0.2295
  0
VERTEX
  8
LAYER1
 62
     7
  6
CONTINUOUS
 10
11.2608
 20
0.2270
  0
VERTEX
  8
LAYER1
 62
     7
  6
CONTINUOUS
 10
11.2634
 20
0.2240
  0
VERTEX
  8
LAYER1
 62
     7
  6
CONTINUOUS
 10
11.2659
 20
0.2208
  0
VERTEX
  8
LAYER1
 62
     7
  6
CONTINUOUS
 10
11.2682
 20
0.2176
  0
VERTEX
  8
LAYER1
 62
     7
  6
CONTINUOUS
 10
11.2705
 20
0.2143
  0
VERTEX
  8
LAYER1
 62
     7
  6
CONTINUOUS
 10
11.2727
 20
0.2110
  0
VERTEX
  8
LAYER1
 62
     7
  6
CONTINUOUS
 10
11.2749
 20
0.2076
  0
VERTEX
  8
LAYER1
 62
     7
  6
CONTINUOUS
 10
11.2769
 20
0.2042
  0
VERTEX
  8
LAYER1
 62
     7
  6
CONTINUOUS
 10
11.2789
 20
0.2007
  0
VERTEX
  8
LAYER1
 62
     7
  6
CONTINUOUS
 10
11.2808
 20
0.1971
  0
VERTEX
  8
LAYER1
 62
     7
  6
CONTINUOUS
 10
11.2827
 20
0.1935
  0
VERTEX
  8
LAYER1
 62
     7
  6
CONTINUOUS
 10
11.2846
 20
0.1899
  0
VERTEX
  8
LAYER1
 62
     7
  6
CONTINUOUS
 10
11.2864
 20
0.1862
  0
VERTEX
  8
LAYER1
 62
     7
  6
CONTINUOUS
 10
11.2875
 20
0.1839
  0
VERTEX
  8
LAYER1
 62
     7
  6
CONTINUOUS
 10
11.2886
 20
0.1815
  0
VERTEX
  8
LAYER1
 62
     7
  6
CONTINUOUS
 10
11.2897
 20
0.1792
  0
VERTEX
  8
LAYER1
 62
     7
  6
CONTINUOUS
 10
11.2908
 20
0.1769
  0
VERTEX
  8
LAYER1
 62
     7
  6
CONTINUOUS
 10
11.2920
 20
0.1747
  0
VERTEX
  8
LAYER1
 62
     7
  6
CONTINUOUS
 10
11.2932
 20
0.1725
  0
VERTEX
  8
LAYER1
 62
     7
  6
CONTINUOUS
 10
11.2945
 20
0.1703
  0
VERTEX
  8
LAYER1
 62
     7
  6
CONTINUOUS
 10
11.2958
 20
0.1682
  0
VERTEX
  8
LAYER1
 62
     7
  6
CONTINUOUS
 10
11.2971
 20
0.1662
  0
VERTEX
  8
LAYER1
 62
     7
  6
CONTINUOUS
 10
11.2986
 20
0.1642
  0
VERTEX
  8
LAYER1
 62
     7
  6
CONTINUOUS
 10
11.3001
 20
0.1624
  0
VERTEX
  8
LAYER1
 62
     7
  6
CONTINUOUS
 10
11.3017
 20
0.1606
  0
VERTEX
  8
LAYER1
 62
     7
  6
CONTINUOUS
 10
11.3047
 20
0.1580
  0
VERTEX
  8
LAYER1
 62
     7
  6
CONTINUOUS
 10
11.3080
 20
0.1556
  0
VERTEX
  8
LAYER1
 62
     7
  6
CONTINUOUS
 10
11.3114
 20
0.1535
  0
VERTEX
  8
LAYER1
 62
     7
  6
CONTINUOUS
 10
11.3151
 20
0.1516
  0
VERTEX
  8
LAYER1
 62
     7
  6
CONTINUOUS
 10
11.3190
 20
0.1500
  0
VERTEX
  8
LAYER1
 62
     7
  6
CONTINUOUS
 10
11.3230
 20
0.1484
  0
VERTEX
  8
LAYER1
 62
     7
  6
CONTINUOUS
 10
11.3270
 20
0.1470
  0
VERTEX
  8
LAYER1
 62
     7
  6
CONTINUOUS
 10
11.3312
 20
0.1457
  0
VERTEX
  8
LAYER1
 62
     7
  6
CONTINUOUS
 10
11.3354
 20
0.1444
  0
VERTEX
  8
LAYER1
 62
     7
  6
CONTINUOUS
 10
11.3395
 20
0.1430
  0
VERTEX
  8
LAYER1
 62
     7
  6
CONTINUOUS
 10
11.3437
 20
0.1417
  0
VERTEX
  8
LAYER1
 62
     7
  6
CONTINUOUS
 10
11.3478
 20
0.1402
  0
VERTEX
  8
LAYER1
 62
     7
  6
CONTINUOUS
 10
11.3510
 20
0.1389
  0
VERTEX
  8
LAYER1
 62
     7
  6
CONTINUOUS
 10
11.3543
 20
0.1376
  0
VERTEX
  8
LAYER1
 62
     7
  6
CONTINUOUS
 10
11.3574
 20
0.1361
  0
VERTEX
  8
LAYER1
 62
     7
  6
CONTINUOUS
 10
11.3605
 20
0.1346
  0
VERTEX
  8
LAYER1
 62
     7
  6
CONTINUOUS
 10
11.3635
 20
0.1330
  0
VERTEX
  8
LAYER1
 62
     7
  6
CONTINUOUS
 10
11.3665
 20
0.1314
  0
VERTEX
  8
LAYER1
 62
     7
  6
CONTINUOUS
 10
11.3695
 20
0.1296
  0
VERTEX
  8
LAYER1
 62
     7
  6
CONTINUOUS
 10
11.3724
 20
0.1278
  0
VERTEX
  8
LAYER1
 62
     7
  6
CONTINUOUS
 10
11.3752
 20
0.1259
  0
VERTEX
  8
LAYER1
 62
     7
  6
CONTINUOUS
 10
11.3780
 20
0.1239
  0
VERTEX
  8
LAYER1
 62
     7
  6
CONTINUOUS
 10
11.3808
 20
0.1219
  0
VERTEX
  8
LAYER1
 62
     7
  6
CONTINUOUS
 10
11.3836
 20
0.1198
  0
VERTEX
  8
LAYER1
 62
     7
  6
CONTINUOUS
 10
11.3865
 20
0.1175
  0
VERTEX
  8
LAYER1
 62
     7
  6
CONTINUOUS
 10
11.3894
 20
0.1151
  0
VERTEX
  8
LAYER1
 62
     7
  6
CONTINUOUS
 10
11.3922
 20
0.1128
  0
VERTEX
  8
LAYER1
 62
     7
  6
CONTINUOUS
 10
11.3951
 20
0.1104
  0
VERTEX
  8
LAYER1
 62
     7
  6
CONTINUOUS
 10
11.3980
 20
0.1080
  0
VERTEX
  8
LAYER1
 62
     7
  6
CONTINUOUS
 10
11.4009
 20
0.1057
  0
VERTEX
  8
LAYER1
 62
     7
  6
CONTINUOUS
 10
11.4038
 20
0.1035
  0
VERTEX
  8
LAYER1
 62
     7
  6
CONTINUOUS
 10
11.4068
 20
0.1013
  0
VERTEX
  8
LAYER1
 62
     7
  6
CONTINUOUS
 10
11.4098
 20
0.0993
  0
VERTEX
  8
LAYER1
 62
     7
  6
CONTINUOUS
 10
11.4129
 20
0.0975
  0
VERTEX
  8
LAYER1
 62
     7
  6
CONTINUOUS
 10
11.4161
 20
0.0958
  0
VERTEX
  8
LAYER1
 62
     7
  6
CONTINUOUS
 10
11.4194
 20
0.0943
  0
VERTEX
  8
LAYER1
 62
     7
  6
CONTINUOUS
 10
11.4206
 20
0.0938
  0
VERTEX
  8
LAYER1
 62
     7
  6
CONTINUOUS
 10
11.4219
 20
0.0933
  0
VERTEX
  8
LAYER1
 62
     7
  6
CONTINUOUS
 10
11.4231
 20
0.0929
  0
VERTEX
  8
LAYER1
 62
     7
  6
CONTINUOUS
 10
11.4244
 20
0.0925
  0
VERTEX
  8
LAYER1
 62
     7
  6
CONTINUOUS
 10
11.4257
 20
0.0920
  0
VERTEX
  8
LAYER1
 62
     7
  6
CONTINUOUS
 10
11.4269
 20
0.0916
  0
VERTEX
  8
LAYER1
 62
     7
  6
CONTINUOUS
 10
11.4282
 20
0.0912
  0
VERTEX
  8
LAYER1
 62
     7
  6
CONTINUOUS
 10
11.4295
 20
0.0908
  0
VERTEX
  8
LAYER1
 62
     7
  6
CONTINUOUS
 10
11.4308
 20
0.0904
  0
VERTEX
  8
LAYER1
 62
     7
  6
CONTINUOUS
 10
11.4321
 20
0.0900
  0
VERTEX
  8
LAYER1
 62
     7
  6
CONTINUOUS
 10
11.4334
 20
0.0896
  0
VERTEX
  8
LAYER1
 62
     7
  6
CONTINUOUS
 10
11.4347
 20
0.0892
  0
VERTEX
  8
LAYER1
 62
     7
  6
CONTINUOUS
 10
11.4373
 20
0.0883
  0
VERTEX
  8
LAYER1
 62
     7
  6
CONTINUOUS
 10
11.4399
 20
0.0873
  0
VERTEX
  8
LAYER1
 62
     7
  6
CONTINUOUS
 10
11.4425
 20
0.0863
  0
VERTEX
  8
LAYER1
 62
     7
  6
CONTINUOUS
 10
11.4451
 20
0.0852
  0
VERTEX
  8
LAYER1
 62
     7
  6
CONTINUOUS
 10
11.4477
 20
0.0842
  0
VERTEX
  8
LAYER1
 62
     7
  6
CONTINUOUS
 10
11.4502
 20
0.0832
  0
VERTEX
  8
LAYER1
 62
     7
  6
CONTINUOUS
 10
11.4528
 20
0.0823
  0
VERTEX
  8
LAYER1
 62
     7
  6
CONTINUOUS
 10
11.4553
 20
0.0814
  0
VERTEX
  8
LAYER1
 62
     7
  6
CONTINUOUS
 10
11.4579
 20
0.0806
  0
VERTEX
  8
LAYER1
 62
     7
  6
CONTINUOUS
 10
11.4604
 20
0.0799
  0
VERTEX
  8
LAYER1
 62
     7
  6
CONTINUOUS
 10
11.4629
 20
0.0794
  0
VERTEX
  8
LAYER1
 62
     7
  6
CONTINUOUS
 10
11.4654
 20
0.0790
  0
VERTEX
  8
LAYER1
 62
     7
  6
CONTINUOUS
 10
11.4682
 20
0.0788
  0
VERTEX
  8
LAYER1
 62
     7
  6
CONTINUOUS
 10
11.4710
 20
0.0787
  0
VERTEX
  8
LAYER1
 62
     7
  6
CONTINUOUS
 10
11.4737
 20
0.0789
  0
VERTEX
  8
LAYER1
 62
     7
  6
CONTINUOUS
 10
11.4765
 20
0.0791
  0
VERTEX
  8
LAYER1
 62
     7
  6
CONTINUOUS
 10
11.4794
 20
0.0795
  0
VERTEX
  8
LAYER1
 62
     7
  6
CONTINUOUS
 10
11.4823
 20
0.0801
  0
VERTEX
  8
LAYER1
 62
     7
  6
CONTINUOUS
 10
11.4852
 20
0.0807
  0
VERTEX
  8
LAYER1
 62
     7
  6
CONTINUOUS
 10
11.4882
 20
0.0813
  0
VERTEX
  8
LAYER1
 62
     7
  6
CONTINUOUS
 10
11.4913
 20
0.0820
  0
VERTEX
  8
LAYER1
 62
     7
  6
CONTINUOUS
 10
11.4945
 20
0.0828
  0
VERTEX
  8
LAYER1
 62
     7
  6
CONTINUOUS
 10
11.4978
 20
0.0835
  0
VERTEX
  8
LAYER1
 62
     7
  6
CONTINUOUS
 10
11.5012
 20
0.0841
  0
VERTEX
  8
LAYER1
 62
     7
  6
CONTINUOUS
 10
11.5022
 20
0.0843
  0
VERTEX
  8
LAYER1
 62
     7
  6
CONTINUOUS
 10
11.5032
 20
0.0845
  0
VERTEX
  8
LAYER1
 62
     7
  6
CONTINUOUS
 10
11.5042
 20
0.0847
  0
VERTEX
  8
LAYER1
 62
     7
  6
CONTINUOUS
 10
11.5051
 20
0.0848
  0
VERTEX
  8
LAYER1
 62
     7
  6
CONTINUOUS
 10
11.5061
 20
0.0849
  0
VERTEX
  8
LAYER1
 62
     7
  6
CONTINUOUS
 10
11.5070
 20
0.0850
  0
VERTEX
  8
LAYER1
 62
     7
  6
CONTINUOUS
 10
11.5079
 20
0.0850
  0
VERTEX
  8
LAYER1
 62
     7
  6
CONTINUOUS
 10
11.5087
 20
0.0849
  0
VERTEX
  8
LAYER1
 62
     7
  6
CONTINUOUS
 10
11.5095
 20
0.0848
  0
VERTEX
  8
LAYER1
 62
     7
  6
CONTINUOUS
 10
11.5102
 20
0.0847
  0
VERTEX
  8
LAYER1
 62
     7
  6
CONTINUOUS
 10
11.5109
 20
0.0845
  0
VERTEX
  8
LAYER1
 62
     7
  6
CONTINUOUS
 10
11.5114
 20
0.0842
  0
VERTEX
  8
LAYER1
 62
     7
  6
CONTINUOUS
 10
11.5121
 20
0.0836
  0
VERTEX
  8
LAYER1
 62
     7
  6
CONTINUOUS
 10
11.5126
 20
0.0828
  0
VERTEX
  8
LAYER1
 62
     7
  6
CONTINUOUS
 10
11.5130
 20
0.0818
  0
VERTEX
  8
LAYER1
 62
     7
  6
CONTINUOUS
 10
11.5132
 20
0.0807
  0
VERTEX
  8
LAYER1
 62
     7
  6
CONTINUOUS
 10
11.5132
 20
0.0795
  0
VERTEX
  8
LAYER1
 62
     7
  6
CONTINUOUS
 10
11.5132
 20
0.0782
  0
VERTEX
  8
LAYER1
 62
     7
  6
CONTINUOUS
 10
11.5131
 20
0.0768
  0
VERTEX
  8
LAYER1
 62
     7
  6
CONTINUOUS
 10
11.5128
 20
0.0753
  0
VERTEX
  8
LAYER1
 62
     7
  6
CONTINUOUS
 10
11.5125
 20
0.0737
  0
VERTEX
  8
LAYER1
 62
     7
  6
CONTINUOUS
 10
11.5122
 20
0.0721
  0
VERTEX
  8
LAYER1
 62
     7
  6
CONTINUOUS
 10
11.5118
 20
0.0705
  0
VERTEX
  8
LAYER1
 62
     7
  6
CONTINUOUS
 10
11.5114
 20
0.0688
  0
SEQEND
  8
LAYER1
  0
POLYLINE
  8
LAYER1
 62
     7
 66
     1
  6
CONTINUOUS
  0
VERTEX
  8
LAYER1
 62
     7
  6
CONTINUOUS
 10
11.0284
 20
0.2232
  0
VERTEX
  8
LAYER1
 62
     7
  6
CONTINUOUS
 10
11.0292
 20
0.2223
  0
VERTEX
  8
LAYER1
 62
     7
  6
CONTINUOUS
 10
11.0299
 20
0.2214
  0
VERTEX
  8
LAYER1
 62
     7
  6
CONTINUOUS
 10
11.0307
 20
0.2204
  0
VERTEX
  8
LAYER1
 62
     7
  6
CONTINUOUS
 10
11.0314
 20
0.2195
  0
VERTEX
  8
LAYER1
 62
     7
  6
CONTINUOUS
 10
11.0321
 20
0.2186
  0
VERTEX
  8
LAYER1
 62
     7
  6
CONTINUOUS
 10
11.0328
 20
0.2176
  0
VERTEX
  8
LAYER1
 62
     7
  6
CONTINUOUS
 10
11.0334
 20
0.2167
  0
VERTEX
  8
LAYER1
 62
     7
  6
CONTINUOUS
 10
11.0340
 20
0.2157
  0
VERTEX
  8
LAYER1
 62
     7
  6
CONTINUOUS
 10
11.0346
 20
0.2147
  0
VERTEX
  8
LAYER1
 62
     7
  6
CONTINUOUS
 10
11.0351
 20
0.2136
  0
VERTEX
  8
LAYER1
 62
     7
  6
CONTINUOUS
 10
11.0355
 20
0.2126
  0
VERTEX
  8
LAYER1
 62
     7
  6
CONTINUOUS
 10
11.0359
 20
0.2115
  0
VERTEX
  8
LAYER1
 62
     7
  6
CONTINUOUS
 10
11.0361
 20
0.2106
  0
VERTEX
  8
LAYER1
 62
     7
  6
CONTINUOUS
 10
11.0362
 20
0.2098
  0
VERTEX
  8
LAYER1
 62
     7
  6
CONTINUOUS
 10
11.0364
 20
0.2090
  0
VERTEX
  8
LAYER1
 62
     7
  6
CONTINUOUS
 10
11.0365
 20
0.2081
  0
VERTEX
  8
LAYER1
 62
     7
  6
CONTINUOUS
 10
11.0365
 20
0.2072
  0
VERTEX
  8
LAYER1
 62
     7
  6
CONTINUOUS
 10
11.0365
 20
0.2064
  0
VERTEX
  8
LAYER1
 62
     7
  6
CONTINUOUS
 10
11.0365
 20
0.2055
  0
VERTEX
  8
LAYER1
 62
     7
  6
CONTINUOUS
 10
11.0365
 20
0.2046
  0
VERTEX
  8
LAYER1
 62
     7
  6
CONTINUOUS
 10
11.0364
 20
0.2038
  0
VERTEX
  8
LAYER1
 62
     7
  6
CONTINUOUS
 10
11.0362
 20
0.2029
  0
VERTEX
  8
LAYER1
 62
     7
  6
CONTINUOUS
 10
11.0361
 20
0.2021
  0
VERTEX
  8
LAYER1
 62
     7
  6
CONTINUOUS
 10
11.0359
 20
0.2012
  0
VERTEX
  8
LAYER1
 62
     7
  6
CONTINUOUS
 10
11.0355
 20
0.2000
  0
VERTEX
  8
LAYER1
 62
     7
  6
CONTINUOUS
 10
11.0351
 20
0.1989
  0
VERTEX
  8
LAYER1
 62
     7
  6
CONTINUOUS
 10
11.0346
 20
0.1977
  0
VERTEX
  8
LAYER1
 62
     7
  6
CONTINUOUS
 10
11.0340
 20
0.1966
  0
VERTEX
  8
LAYER1
 62
     7
  6
CONTINUOUS
 10
11.0334
 20
0.1955
  0
VERTEX
  8
LAYER1
 62
     7
  6
CONTINUOUS
 10
11.0328
 20
0.1944
  0
VERTEX
  8
LAYER1
 62
     7
  6
CONTINUOUS
 10
11.0321
 20
0.1934
  0
VERTEX
  8
LAYER1
 62
     7
  6
CONTINUOUS
 10
11.0314
 20
0.1923
  0
VERTEX
  8
LAYER1
 62
     7
  6
CONTINUOUS
 10
11.0307
 20
0.1913
  0
VERTEX
  8
LAYER1
 62
     7
  6
CONTINUOUS
 10
11.0299
 20
0.1902
  0
VERTEX
  8
LAYER1
 62
     7
  6
CONTINUOUS
 10
11.0292
 20
0.1892
  0
VERTEX
  8
LAYER1
 62
     7
  6
CONTINUOUS
 10
11.0284
 20
0.1882
  0
SEQEND
  8
LAYER1
  0
POLYLINE
  8
LAYER1
 62
     7
 66
     1
  6
CONTINUOUS
  0
VERTEX
  8
LAYER1
 62
     7
  6
CONTINUOUS
 10
11.0284
 20
0.3819
  0
VERTEX
  8
LAYER1
 62
     7
  6
CONTINUOUS
 10
11.0277
 20
0.3827
  0
VERTEX
  8
LAYER1
 62
     7
  6
CONTINUOUS
 10
11.0270
 20
0.3834
  0
VERTEX
  8
LAYER1
 62
     7
  6
CONTINUOUS
 10
11.0263
 20
0.3842
  0
VERTEX
  8
LAYER1
 62
     7
  6
CONTINUOUS
 10
11.0257
 20
0.3849
  0
VERTEX
  8
LAYER1
 62
     7
  6
CONTINUOUS
 10
11.0250
 20
0.3856
  0
VERTEX
  8
LAYER1
 62
     7
  6
CONTINUOUS
 10
11.0245
 20
0.3863
  0
VERTEX
  8
LAYER1
 62
     7
  6
CONTINUOUS
 10
11.0239
 20
0.3869
  0
VERTEX
  8
LAYER1
 62
     7
  6
CONTINUOUS
 10
11.0234
 20
0.3874
  0
VERTEX
  8
LAYER1
 62
     7
  6
CONTINUOUS
 10
11.0230
 20
0.3879
  0
VERTEX
  8
LAYER1
 62
     7
  6
CONTINUOUS
 10
11.0226
 20
0.3883
  0
VERTEX
  8
LAYER1
 62
     7
  6
CONTINUOUS
 10
11.0223
 20
0.3886
  0
VERTEX
  8
LAYER1
 62
     7
  6
CONTINUOUS
 10
11.0221
 20
0.3889
  0
VERTEX
  8
LAYER1
 62
     7
  6
CONTINUOUS
 10
11.0221
 20
0.3889
  0
VERTEX
  8
LAYER1
 62
     7
  6
CONTINUOUS
 10
11.0220
 20
0.3890
  0
VERTEX
  8
LAYER1
 62
     7
  6
CONTINUOUS
 10
11.0220
 20
0.3890
  0
VERTEX
  8
LAYER1
 62
     7
  6
CONTINUOUS
 10
11.0219
 20
0.3891
  0
VERTEX
  8
LAYER1
 62
     7
  6
CONTINUOUS
 10
11.0219
 20
0.3891
  0
VERTEX
  8
LAYER1
 62
     7
  6
CONTINUOUS
 10
11.0219
 20
0.3891
  0
VERTEX
  8
LAYER1
 62
     7
  6
CONTINUOUS
 10
11.0220
 20
0.3891
  0
VERTEX
  8
LAYER1
 62
     7
  6
CONTINUOUS
 10
11.0220
 20
0.3890
  0
VERTEX
  8
LAYER1
 62
     7
  6
CONTINUOUS
 10
11.0220
 20
0.3890
  0
VERTEX
  8
LAYER1
 62
     7
  6
CONTINUOUS
 10
11.0220
 20
0.3890
  0
VERTEX
  8
LAYER1
 62
     7
  6
CONTINUOUS
 10
11.0221
 20
0.3889
  0
VERTEX
  8
LAYER1
 62
     7
  6
CONTINUOUS
 10
11.0221
 20
0.3889
  0
SEQEND
  8
LAYER1
  0
POLYLINE
  8
LAYER1
 62
     7
 66
     1
  6
CONTINUOUS
  0
VERTEX
  8
LAYER1
 62
     7
  6
CONTINUOUS
 10
11.0221
 20
0.4890
  0
VERTEX
  8
LAYER1
 62
     7
  6
CONTINUOUS
 10
11.0228
 20
0.4886
  0
VERTEX
  8
LAYER1
 62
     7
  6
CONTINUOUS
 10
11.0235
 20
0.4883
  0
VERTEX
  8
LAYER1
 62
     7
  6
CONTINUOUS
 10
11.0241
 20
0.4880
  0
VERTEX
  8
LAYER1
 62
     7
  6
CONTINUOUS
 10
11.0248
 20
0.4876
  0
VERTEX
  8
LAYER1
 62
     7
  6
CONTINUOUS
 10
11.0254
 20
0.4873
  0
VERTEX
  8
LAYER1
 62
     7
  6
CONTINUOUS
 10
11.0260
 20
0.4870
  0
VERTEX
  8
LAYER1
 62
     7
  6
CONTINUOUS
 10
11.0265
 20
0.4867
  0
VERTEX
  8
LAYER1
 62
     7
  6
CONTINUOUS
 10
11.0270
 20
0.4865
  0
VERTEX
  8
LAYER1
 62
     7
  6
CONTINUOUS
 10
11.0274
 20
0.4863
  0
VERTEX
  8
LAYER1
 62
     7
  6
CONTINUOUS
 10
11.0278
 20
0.4861
  0
VERTEX
  8
LAYER1
 62
     7
  6
CONTINUOUS
 10
11.0281
 20
0.4859
  0
VERTEX
  8
LAYER1
 62
     7
  6
CONTINUOUS
 10
11.0284
 20
0.4858
  0
VERTEX
  8
LAYER1
 62
     7
  6
CONTINUOUS
 10
11.0285
 20
0.4857
  0
VERTEX
  8
LAYER1
 62
     7
  6
CONTINUOUS
 10
11.0286
 20
0.4857
  0
VERTEX
  8
LAYER1
 62
     7
  6
CONTINUOUS
 10
11.0286
 20
0.4857
  0
VERTEX
  8
LAYER1
 62
     7
  6
CONTINUOUS
 10
11.0287
 20
0.4856
  0
VERTEX
  8
LAYER1
 62
     7
  6
CONTINUOUS
 10
11.0287
 20
0.4856
  0
VERTEX
  8
LAYER1
 62
     7
  6
CONTINUOUS
 10
11.0287
 20
0.4856
  0
VERTEX
  8
LAYER1
 62
     7
  6
CONTINUOUS
 10
11.0286
 20
0.4857
  0
VERTEX
  8
LAYER1
 62
     7
  6
CONTINUOUS
 10
11.0286
 20
0.4857
  0
VERTEX
  8
LAYER1
 62
     7
  6
CONTINUOUS
 10
11.0286
 20
0.4857
  0
VERTEX
  8
LAYER1
 62
     7
  6
CONTINUOUS
 10
11.0285
 20
0.4857
  0
VERTEX
  8
LAYER1
 62
     7
  6
CONTINUOUS
 10
11.0284
 20
0.4858
  0
VERTEX
  8
LAYER1
 62
     7
  6
CONTINUOUS
 10
11.0284
 20
0.4858
  0
SEQEND
  8
LAYER1
  0
POLYLINE
  8
LAYER1
 62
     7
 66
     1
  6
CONTINUOUS
  0
VERTEX
  8
LAYER1
 62
     7
  6
CONTINUOUS
 10
11.0221
 20
0.2301
  0
VERTEX
  8
LAYER1
 62
     7
  6
CONTINUOUS
 10
11.0228
 20
0.2293
  0
VERTEX
  8
LAYER1
 62
     7
  6
CONTINUOUS
 10
11.0235
 20
0.2286
  0
VERTEX
  8
LAYER1
 62
     7
  6
CONTINUOUS
 10
11.0242
 20
0.2278
  0
VERTEX
  8
LAYER1
 62
     7
  6
CONTINUOUS
 10
11.0248
 20
0.2271
  0
VERTEX
  8
LAYER1
 62
     7
  6
CONTINUOUS
 10
11.0255
 20
0.2264
  0
VERTEX
  8
LAYER1
 62
     7
  6
CONTINUOUS
 10
11.0260
 20
0.2258
  0
VERTEX
  8
LAYER1
 62
     7
  6
CONTINUOUS
 10
11.0266
 20
0.2252
  0
VERTEX
  8
LAYER1
 62
     7
  6
CONTINUOUS
 10
11.0271
 20
0.2246
  0
VERTEX
  8
LAYER1
 62
     7
  6
CONTINUOUS
 10
11.0275
 20
0.2242
  0
VERTEX
  8
LAYER1
 62
     7
  6
CONTINUOUS
 10
11.0279
 20
0.2238
  0
VERTEX
  8
LAYER1
 62
     7
  6
CONTINUOUS
 10
11.0282
 20
0.2234
  0
VERTEX
  8
LAYER1
 62
     7
  6
CONTINUOUS
 10
11.0284
 20
0.2232
  0
VERTEX
  8
LAYER1
 62
     7
  6
CONTINUOUS
 10
11.0284
 20
0.2231
  0
VERTEX
  8
LAYER1
 62
     7
  6
CONTINUOUS
 10
11.0285
 20
0.2231
  0
VERTEX
  8
LAYER1
 62
     7
  6
CONTINUOUS
 10
11.0285
 20
0.2230
  0
VERTEX
  8
LAYER1
 62
     7
  6
CONTINUOUS
 10
11.0286
 20
0.2230
  0
VERTEX
  8
LAYER1
 62
     7
  6
CONTINUOUS
 10
11.0286
 20
0.2230
  0
VERTEX
  8
LAYER1
 62
     7
  6
CONTINUOUS
 10
11.0286
 20
0.2230
  0
VERTEX
  8
LAYER1
 62
     7
  6
CONTINUOUS
 10
11.0285
 20
0.2230
  0
VERTEX
  8
LAYER1
 62
     7
  6
CONTINUOUS
 10
11.0285
 20
0.2230
  0
VERTEX
  8
LAYER1
 62
     7
  6
CONTINUOUS
 10
11.0285
 20
0.2231
  0
VERTEX
  8
LAYER1
 62
     7
  6
CONTINUOUS
 10
11.0285
 20
0.2231
  0
VERTEX
  8
LAYER1
 62
     7
  6
CONTINUOUS
 10
11.0284
 20
0.2232
  0
VERTEX
  8
LAYER1
 62
     7
  6
CONTINUOUS
 10
11.0284
 20
0.2232
  0
SEQEND
  8
LAYER1
  0
POLYLINE
  8
LAYER1
 62
     7
 66
     1
  6
CONTINUOUS
  0
VERTEX
  8
LAYER1
 62
     7
  6
CONTINUOUS
 10
11.0284
 20
0.1882
  0
VERTEX
  8
LAYER1
 62
     7
  6
CONTINUOUS
 10
11.0277
 20
0.1878
  0
VERTEX
  8
LAYER1
 62
     7
  6
CONTINUOUS
 10
11.0270
 20
0.1874
  0
VERTEX
  8
LAYER1
 62
     7
  6
CONTINUOUS
 10
11.0264
 20
0.1870
  0
VERTEX
  8
LAYER1
 62
     7
  6
CONTINUOUS
 10
11.0257
 20
0.1867
  0
VERTEX
  8
LAYER1
 62
     7
  6
CONTINUOUS
 10
11.0251
 20
0.1863
  0
VERTEX
  8
LAYER1
 62
     7
  6
CONTINUOUS
 10
11.0245
 20
0.1860
  0
VERTEX
  8
LAYER1
 62
     7
  6
CONTINUOUS
 10
11.0240
 20
0.1857
  0
VERTEX
  8
LAYER1
 62
     7
  6
CONTINUOUS
 10
11.0235
 20
0.1854
  0
VERTEX
  8
LAYER1
 62
     7
  6
CONTINUOUS
 10
11.0231
 20
0.1851
  0
VERTEX
  8
LAYER1
 62
     7
  6
CONTINUOUS
 10
11.0227
 20
0.1849
  0
VERTEX
  8
LAYER1
 62
     7
  6
CONTINUOUS
 10
11.0224
 20
0.1847
  0
VERTEX
  8
LAYER1
 62
     7
  6
CONTINUOUS
 10
11.0221
 20
0.1846
  0
VERTEX
  8
LAYER1
 62
     7
  6
CONTINUOUS
 10
11.0220
 20
0.1845
  0
VERTEX
  8
LAYER1
 62
     7
  6
CONTINUOUS
 10
11.0219
 20
0.1845
  0
VERTEX
  8
LAYER1
 62
     7
  6
CONTINUOUS
 10
11.0219
 20
0.1845
  0
VERTEX
  8
LAYER1
 62
     7
  6
CONTINUOUS
 10
11.0219
 20
0.1844
  0
VERTEX
  8
LAYER1
 62
     7
  6
CONTINUOUS
 10
11.0218
 20
0.1844
  0
VERTEX
  8
LAYER1
 62
     7
  6
CONTINUOUS
 10
11.0218
 20
0.1844
  0
VERTEX
  8
LAYER1
 62
     7
  6
CONTINUOUS
 10
11.0219
 20
0.1845
  0
VERTEX
  8
LAYER1
 62
     7
  6
CONTINUOUS
 10
11.0219
 20
0.1845
  0
VERTEX
  8
LAYER1
 62
     7
  6
CONTINUOUS
 10
11.0220
 20
0.1845
  0
VERTEX
  8
LAYER1
 62
     7
  6
CONTINUOUS
 10
11.0220
 20
0.1845
  0
VERTEX
  8
LAYER1
 62
     7
  6
CONTINUOUS
 10
11.0221
 20
0.1846
  0
VERTEX
  8
LAYER1
 62
     7
  6
CONTINUOUS
 10
11.0221
 20
0.1846
  0
SEQEND
  8
LAYER1
  0
POLYLINE
  8
LAYER10
 62
     1
 66
     1
  6
CONTINUOUS
  0
VERTEX
  8
LAYER10
 62
     1
  6
CONTINUOUS
 10
11.0284
 20
-0.3369
  0
VERTEX
  8
LAYER10
 62
     1
  6
CONTINUOUS
 10
11.0299
 20
-0.3365
  0
VERTEX
  8
LAYER10
 62
     1
  6
CONTINUOUS
 10
11.0313
 20
-0.3361
  0
VERTEX
  8
LAYER10
 62
     1
  6
CONTINUOUS
 10
11.0328
 20
-0.3357
  0
VERTEX
  8
LAYER10
 62
     1
  6
CONTINUOUS
 10
11.0341
 20
-0.3353
  0
VERTEX
  8
LAYER10
 62
     1
  6
CONTINUOUS
 10
11.0355
 20
-0.3350
  0
VERTEX
  8
LAYER10
 62
     1
  6
CONTINUOUS
 10
11.0367
 20
-0.3346
  0
VERTEX
  8
LAYER10
 62
     1
  6
CONTINUOUS
 10
11.0378
 20
-0.3343
  0
VERTEX
  8
LAYER10
 62
     1
  6
CONTINUOUS
 10
11.0388
 20
-0.3341
  0
VERTEX
  8
LAYER10
 62
     1
  6
CONTINUOUS
 10
11.0397
 20
-0.3338
  0
VERTEX
  8
LAYER10
 62
     1
  6
CONTINUOUS
 10
11.0404
 20
-0.3336
  0
VERTEX
  8
LAYER10
 62
     1
  6
CONTINUOUS
 10
11.0410
 20
-0.3335
  0
VERTEX
  8
LAYER10
 62
     1
  6
CONTINUOUS
 10
11.0413
 20
-0.3334
  0
VERTEX
  8
LAYER10
 62
     1
  6
CONTINUOUS
 10
11.0414
 20
-0.3334
  0
VERTEX
  8
LAYER10
 62
     1
  6
CONTINUOUS
 10
11.0415
 20
-0.3333
  0
VERTEX
  8
LAYER10
 62
     1
  6
CONTINUOUS
 10
11.0415
 20
-0.3333
  0
VERTEX
  8
LAYER10
 62
     1
  6
CONTINUOUS
 10
11.0415
 20
-0.3333
  0
VERTEX
  8
LAYER10
 62
     1
  6
CONTINUOUS
 10
11.0416
 20
-0.3333
  0
VERTEX
  8
LAYER10
 62
     1
  6
CONTINUOUS
 10
11.0415
 20
-0.3333
  0
VERTEX
  8
LAYER10
 62
     1
  6
CONTINUOUS
 10
11.0415
 20
-0.3333
  0
VERTEX
  8
LAYER10
 62
     1
  6
CONTINUOUS
 10
11.0415
 20
-0.3333
  0
VERTEX
  8
LAYER10
 62
     1
  6
CONTINUOUS
 10
11.0415
 20
-0.3334
  0
VERTEX
  8
LAYER10
 62
     1
  6
CONTINUOUS
 10
11.0414
 20
-0.3334
  0
VERTEX
  8
LAYER10
 62
     1
  6
CONTINUOUS
 10
11.0414
 20
-0.3334
  0
VERTEX
  8
LAYER10
 62
     1
  6
CONTINUOUS
 10
11.0413
 20
-0.3334
  0
SEQEND
  8
LAYER10
  0
POLYLINE
  8
LAYER10
 62
     1
 66
     1
  6
CONTINUOUS
  0
VERTEX
  8
LAYER10
 62
     1
  6
CONTINUOUS
 10
11.0413
 20
-0.3334
  0
VERTEX
  8
LAYER10
 62
     1
  6
CONTINUOUS
 10
11.0458
 20
-0.3333
  0
VERTEX
  8
LAYER10
 62
     1
  6
CONTINUOUS
 10
11.0502
 20
-0.3332
  0
VERTEX
  8
LAYER10
 62
     1
  6
CONTINUOUS
 10
11.0547
 20
-0.3331
  0
VERTEX
  8
LAYER10
 62
     1
  6
CONTINUOUS
 10
11.0591
 20
-0.3331
  0
VERTEX
  8
LAYER10
 62
     1
  6
CONTINUOUS
 10
11.0634
 20
-0.3333
  0
VERTEX
  8
LAYER10
 62
     1
  6
CONTINUOUS
 10
11.0678
 20
-0.3335
  0
VERTEX
  8
LAYER10
 62
     1
  6
CONTINUOUS
 10
11.0720
 20
-0.3338
  0
VERTEX
  8
LAYER10
 62
     1
  6
CONTINUOUS
 10
11.0762
 20
-0.3343
  0
VERTEX
  8
LAYER10
 62
     1
  6
CONTINUOUS
 10
11.0803
 20
-0.3350
  0
VERTEX
  8
LAYER10
 62
     1
  6
CONTINUOUS
 10
11.0844
 20
-0.3359
  0
VERTEX
  8
LAYER10
 62
     1
  6
CONTINUOUS
 10
11.0883
 20
-0.3370
  0
VERTEX
  8
LAYER10
 62
     1
  6
CONTINUOUS
 10
11.0921
 20
-0.3384
  0
VERTEX
  8
LAYER10
 62
     1
  6
CONTINUOUS
 10
11.0954
 20
-0.3397
  0
VERTEX
  8
LAYER10
 62
     1
  6
CONTINUOUS
 10
11.0985
 20
-0.3413
  0
VERTEX
  8
LAYER10
 62
     1
  6
CONTINUOUS
 10
11.1015
 20
-0.3430
  0
VERTEX
  8
LAYER10
 62
     1
  6
CONTINUOUS
 10
11.1046
 20
-0.3448
  0
VERTEX
  8
LAYER10
 62
     1
  6
CONTINUOUS
 10
11.1075
 20
-0.3468
  0
VERTEX
  8
LAYER10
 62
     1
  6
CONTINUOUS
 10
11.1105
 20
-0.3490
  0
VERTEX
  8
LAYER10
 62
     1
  6
CONTINUOUS
 10
11.1134
 20
-0.3512
  0
VERTEX
  8
LAYER10
 62
     1
  6
CONTINUOUS
 10
11.1162
 20
-0.3536
  0
VERTEX
  8
LAYER10
 62
     1
  6
CONTINUOUS
 10
11.1191
 20
-0.3560
  0
VERTEX
  8
LAYER10
 62
     1
  6
CONTINUOUS
 10
11.1220
 20
-0.3585
  0
VERTEX
  8
LAYER10
 62
     1
  6
CONTINUOUS
 10
11.1249
 20
-0.3611
  0
VERTEX
  8
LAYER10
 62
     1
  6
CONTINUOUS
 10
11.1278
 20
-0.3637
  0
VERTEX
  8
LAYER10
 62
     1
  6
CONTINUOUS
 10
11.1319
 20
-0.3674
  0
VERTEX
  8
LAYER10
 62
     1
  6
CONTINUOUS
 10
11.1361
 20
-0.3712
  0
VERTEX
  8
LAYER10
 62
     1
  6
CONTINUOUS
 10
11.1401
 20
-0.3751
  0
VERTEX
  8
LAYER10
 62
     1
  6
CONTINUOUS
 10
11.1441
 20
-0.3791
  0
VERTEX
  8
LAYER10
 62
     1
  6
CONTINUOUS
 10
11.1478
 20
-0.3831
  0
VERTEX
  8
LAYER10
 62
     1
  6
CONTINUOUS
 10
11.1513
 20
-0.3873
  0
VERTEX
  8
LAYER10
 62
     1
  6
CONTINUOUS
 10
11.1545
 20
-0.3915
  0
VERTEX
  8
LAYER10
 62
     1
  6
CONTINUOUS
 10
11.1573
 20
-0.3959
  0
VERTEX
  8
LAYER10
 62
     1
  6
CONTINUOUS
 10
11.1597
 20
-0.4003
  0
VERTEX
  8
LAYER10
 62
     1
  6
CONTINUOUS
 10
11.1615
 20
-0.4049
  0
VERTEX
  8
LAYER10
 62
     1
  6
CONTINUOUS
 10
11.1628
 20
-0.4096
  0
VERTEX
  8
LAYER10
 62
     1
  6
CONTINUOUS
 10
11.1634
 20
-0.4144
  0
VERTEX
  8
LAYER10
 62
     1
  6
CONTINUOUS
 10
11.1635
 20
-0.4164
  0
VERTEX
  8
LAYER10
 62
     1
  6
CONTINUOUS
 10
11.1635
 20
-0.4184
  0
VERTEX
  8
LAYER10
 62
     1
  6
CONTINUOUS
 10
11.1634
 20
-0.4205
  0
VERTEX
  8
LAYER10
 62
     1
  6
CONTINUOUS
 10
11.1631
 20
-0.4225
  0
VERTEX
  8
LAYER10
 62
     1
  6
CONTINUOUS
 10
11.1629
 20
-0.4246
  0
VERTEX
  8
LAYER10
 62
     1
  6
CONTINUOUS
 10
11.1625
 20
-0.4267
  0
VERTEX
  8
LAYER10
 62
     1
  6
CONTINUOUS
 10
11.1621
 20
-0.4288
  0
VERTEX
  8
LAYER10
 62
     1
  6
CONTINUOUS
 10
11.1616
 20
-0.4309
  0
VERTEX
  8
LAYER10
 62
     1
  6
CONTINUOUS
 10
11.1611
 20
-0.4331
  0
VERTEX
  8
LAYER10
 62
     1
  6
CONTINUOUS
 10
11.1606
 20
-0.4352
  0
VERTEX
  8
LAYER10
 62
     1
  6
CONTINUOUS
 10
11.1600
 20
-0.4373
  0
VERTEX
  8
LAYER10
 62
     1
  6
CONTINUOUS
 10
11.1595
 20
-0.4395
  0
SEQEND
  8
LAYER10
  0
POLYLINE
  8
LAYER10
 62
     1
 66
     1
  6
CONTINUOUS
  0
VERTEX
  8
LAYER10
 62
     1
  6
CONTINUOUS
 10
11.0221
 20
-0.3403
  0
VERTEX
  8
LAYER10
 62
     1
  6
CONTINUOUS
 10
11.0228
 20
-0.3399
  0
VERTEX
  8
LAYER10
 62
     1
  6
CONTINUOUS
 10
11.0235
 20
-0.3395
  0
VERTEX
  8
LAYER10
 62
     1
  6
CONTINUOUS
 10
11.0241
 20
-0.3392
  0
VERTEX
  8
LAYER10
 62
     1
  6
CONTINUOUS
 10
11.0248
 20
-0.3388
  0
VERTEX
  8
LAYER10
 62
     1
  6
CONTINUOUS
 10
11.0254
 20
-0.3385
  0
VERTEX
  8
LAYER10
 62
     1
  6
CONTINUOUS
 10
11.0260
 20
-0.3382
  0
VERTEX
  8
LAYER10
 62
     1
  6
CONTINUOUS
 10
11.0265
 20
-0.3379
  0
VERTEX
  8
LAYER10
 62
     1
  6
CONTINUOUS
 10
11.0270
 20
-0.3376
  0
VERTEX
  8
LAYER10
 62
     1
  6
CONTINUOUS
 10
11.0274
 20
-0.3374
  0
VERTEX
  8
LAYER10
 62
     1
  6
CONTINUOUS
 10
11.0278
 20
-0.3372
  0
VERTEX
  8
LAYER10
 62
     1
  6
CONTINUOUS
 10
11.0281
 20
-0.3370
  0
VERTEX
  8
LAYER10
 62
     1
  6
CONTINUOUS
 10
11.0284
 20
-0.3369
  0
VERTEX
  8
LAYER10
 62
     1
  6
CONTINUOUS
 10
11.0285
 20
-0.3368
  0
VERTEX
  8
LAYER10
 62
     1
  6
CONTINUOUS
 10
11.0286
 20
-0.3368
  0
VERTEX
  8
LAYER10
 62
     1
  6
CONTINUOUS
 10
11.0286
 20
-0.3368
  0
VERTEX
  8
LAYER10
 62
     1
  6
CONTINUOUS
 10
11.0287
 20
-0.3367
  0
VERTEX
  8
LAYER10
 62
     1
  6
CONTINUOUS
 10
11.0287
 20
-0.3367
  0
VERTEX
  8
LAYER10
 62
     1
  6
CONTINUOUS
 10
11.0287
 20
-0.3367
  0
VERTEX
  8
LAYER10
 62
     1
  6
CONTINUOUS
 10
11.0286
 20
-0.3368
  0
VERTEX
  8
LAYER10
 62
     1
  6
CONTINUOUS
 10
11.0286
 20
-0.3368
  0
VERTEX
  8
LAYER10
 62
     1
  6
CONTINUOUS
 10
11.0286
 20
-0.3368
  0
VERTEX
  8
LAYER10
 62
     1
  6
CONTINUOUS
 10
11.0285
 20
-0.3368
  0
VERTEX
  8
LAYER10
 62
     1
  6
CONTINUOUS
 10
11.0284
 20
-0.3369
  0
VERTEX
  8
LAYER10
 62
     1
  6
CONTINUOUS
 10
11.0284
 20
-0.3369
  0
SEQEND
  8
LAYER10
  0
POLYLINE
  8
LAYER12
 62
     5
 66
     1
  6
CONTINUOUS
  0
VERTEX
  8
LAYER12
 62
     5
  6
CONTINUOUS
 10
11.0248
 20
0.5426
  0
VERTEX
  8
LAYER12
 62
     5
  6
CONTINUOUS
 10
11.0284
 20
0.5426
  0
SEQEND
  8
LAYER12
  0
POLYLINE
  8
LAYER12
 62
     5
 66
     1
  6
CONTINUOUS
  0
VERTEX
  8
LAYER12
 62
     5
  6
CONTINUOUS
 10
11.0235
 20
-0.4376
  0
VERTEX
  8
LAYER12
 62
     5
  6
CONTINUOUS
 10
11.0235
 20
0.5403
  0
SEQEND
  8
LAYER12
  0
POLYLINE
  8
LAYER12
 62
     5
 66
     1
  6
CONTINUOUS
  0
VERTEX
  8
LAYER12
 62
     5
  6
CONTINUOUS
 10
11.0284
 20
-0.4411
  0
VERTEX
  8
LAYER12
 62
     5
  6
CONTINUOUS
 10
11.0248
 20
-0.4411
  0
SEQEND
  8
LAYER12
  0
POLYLINE
  8
LAYER12
 62
     5
 66
     1
  6
CONTINUOUS
  0
VERTEX
  8
LAYER12
 62
     5
  6
CONTINUOUS
 10
12.0473
 20
-0.4411
  0
VERTEX
  8
LAYER12
 62
     5
  6
CONTINUOUS
 10
11.0284
 20
-0.4411
  0
SEQEND
  8
LAYER12
  0
POLYLINE
  8
LAYER12
 62
     5
 66
     1
  6
CONTINUOUS
  0
VERTEX
  8
LAYER12
 62
     5
  6
CONTINUOUS
 10
11.0235
 20
-0.4411
  0
VERTEX
  8
LAYER12
 62
     5
  6
CONTINUOUS
 10
11.0235
 20
-0.4395
  0
SEQEND
  8
LAYER12
  0
POLYLINE
  8
LAYER12
 62
     5
 66
     1
  6
CONTINUOUS
  0
VERTEX
  8
LAYER12
 62
     5
  6
CONTINUOUS
 10
11.0235
 20
-0.4395
  0
VERTEX
  8
LAYER12
 62
     5
  6
CONTINUOUS
 10
11.0235
 20
-0.4376
  0
SEQEND
  8
LAYER12
  0
POLYLINE
  8
LAYER12
 62
     5
 66
     1
  6
CONTINUOUS
  0
VERTEX
  8
LAYER12
 62
     5
  6
CONTINUOUS
 10
11.0248
 20
-0.4411
  0
VERTEX
  8
LAYER12
 62
     5
  6
CONTINUOUS
 10
11.0221
 20
-0.4411
  0
SEQEND
  8
LAYER12
  0
POLYLINE
  8
LAYER12
 62
     5
 66
     1
  6
CONTINUOUS
  0
VERTEX
  8
LAYER12
 62
     5
  6
CONTINUOUS
 10
11.0221
 20
-0.4411
  0
VERTEX
  8
LAYER12
 62
     5
  6
CONTINUOUS
 10
11.0213
 20
-0.4411
  0
SEQEND
  8
LAYER12
  0
POLYLINE
  8
LAYER12
 62
     5
 66
     1
  6
CONTINUOUS
  0
VERTEX
  8
LAYER12
 62
     5
  6
CONTINUOUS
 10
11.0284
 20
0.5426
  0
VERTEX
  8
LAYER12
 62
     5
  6
CONTINUOUS
 10
12.0473
 20
0.5426
  0
SEQEND
  8
LAYER12
  0
POLYLINE
  8
LAYER12
 62
     5
 66
     1
  6
CONTINUOUS
  0
VERTEX
  8
LAYER12
 62
     5
  6
CONTINUOUS
 10
11.0235
 20
0.5403
  0
VERTEX
  8
LAYER12
 62
     5
  6
CONTINUOUS
 10
11.0235
 20
0.5435
  0
SEQEND
  8
LAYER12
  0
POLYLINE
  8
LAYER12
 62
     5
 66
     1
  6
CONTINUOUS
  0
VERTEX
  8
LAYER12
 62
     5
  6
CONTINUOUS
 10
11.0235
 20
0.5435
  0
VERTEX
  8
LAYER12
 62
     5
  6
CONTINUOUS
 10
11.0235
 20
0.5435
  0
SEQEND
  8
LAYER12
  0
POLYLINE
  8
LAYER12
 62
     5
 66
     1
  6
CONTINUOUS
  0
VERTEX
  8
LAYER12
 62
     5
  6
CONTINUOUS
 10
11.0235
 20
0.5435
  0
VERTEX
  8
LAYER12
 62
     5
  6
CONTINUOUS
 10
11.0235
 20
0.5435
  0
SEQEND
  8
LAYER12
  0
POLYLINE
  8
LAYER12
 62
     5
 66
     1
  6
CONTINUOUS
  0
VERTEX
  8
LAYER12
 62
     5
  6
CONTINUOUS
 10
11.0235
 20
0.5435
  0
VERTEX
  8
LAYER12
 62
     5
  6
CONTINUOUS
 10
11.0235
 20
0.5439
  0
SEQEND
  8
LAYER12
  0
POLYLINE
  8
LAYER12
 62
     5
 66
     1
  6
CONTINUOUS
  0
VERTEX
  8
LAYER12
 62
     5
  6
CONTINUOUS
 10
11.0221
 20
0.5426
  0
VERTEX
  8
LAYER12
 62
     5
  6
CONTINUOUS
 10
11.0248
 20
0.5426
  0
SEQEND
  8
LAYER12
  0
POLYLINE
  8
LAYER12
 62
     5
 66
     1
  6
CONTINUOUS
  0
VERTEX
  8
LAYER12
 62
     5
  6
CONTINUOUS
 10
12.0465
 20
0.5435
  0
VERTEX
  8
LAYER12
 62
     5
  6
CONTINUOUS
 10
12.0465
 20
0.5435
  0
SEQEND
  8
LAYER12
  0
POLYLINE
  8
LAYER12
 62
     5
 66
     1
  6
CONTINUOUS
  0
VERTEX
  8
LAYER12
 62
     5
  6
CONTINUOUS
 10
12.0465
 20
0.5435
  0
VERTEX
  8
LAYER12
 62
     5
  6
CONTINUOUS
 10
12.0465
 20
0.5435
  0
SEQEND
  8
LAYER12
  0
POLYLINE
  8
LAYER12
 62
     5
 66
     1
  6
CONTINUOUS
  0
VERTEX
  8
LAYER12
 62
     5
  6
CONTINUOUS
 10
12.0465
 20
0.5435
  0
VERTEX
  8
LAYER12
 62
     5
  6
CONTINUOUS
 10
12.0465
 20
-0.4395
  0
SEQEND
  8
LAYER12
  0
ENDSEC
  0
EOF
