  0
SECTION
  2
HEADER
  9
$ACADVER
  1
AC1004
  9
$EXTMIN
 10
11.0221
 20
0.5426
  9
$EXTMAX
 10
12.0473
 20
1.5657
  9
$LIMMIN
 10
11.0221
 20
0.5426
  9
$LIMMAX
 10
12.0473
 20
1.5657
  9
$INSBASE
 10
0.0
 20
0.0
  9
$VIEWCTR
 10
7.21903
 20
4.5
  9
$VIEWSIZE
 40
9.0
  9
$SNAPMODE
 70
     0
  9
$SNAPUNIT
 10
1.0
 20
1.0
  9
$SNAPBASE
 10
0.0
 20
0.0
  9
$SNAPANG
 50
0.0
  9
$SNAPSTYLE
 70
     0
  9
$SNAPISOPAIR
 70
     0
  9
$GRIDMODE
 70
     0
  9
$GRIDUNIT
 10
0.0
 20
0.0
  9
$ORTHOMODE
 70
     0
  9
$REGENMODE
 70
     1
  9
$FILLMODE
 70
     1
  9
$QTEXTMODE
 70
     0
  9
$DRAGMODE
 70
     2
  9
$LTSCALE
 40
1.0
  9
$OSMODE
 70
     0
  9
$ATTMODE
 70
     1
  9
$TEXTSIZE
 40
0.2
  9
$TRACEWID
 40
0.05
  9
$TEXTSTYLE
  7
STANDARD
  9
$CLAYER
  8
0
  9
$CELTYPE
  6
BYLAYER
  9
$CECOLOR
 62
   256
  9
$DIMSCALE
 40
1.0
  9
$DIMASZ
 40
0.18
  9
$DIMEXO
 40
0.0625
  9
$DIMDLI
 40
0.38
  9
$DIMRND
 40
0.0
  9
$DIMDLE
 40
0.0
  9
$DIMEXE
 40
0.18
  9
$DIMTP
 40
0.0
  9
$DIMTM
 40
0.0
  9
$DIMTXT
 40
0.18
  9
$DIMCEN
 40
0.09
  9
$DIMTSZ
 40
0.0
  9
$DIMTOL
 70
     0
  9
$DIMLIM
 70
     0
  9
$DIMTIH
 70
     1
  9
$DIMTOH
 70
     1
  9
$DIMSE1
 70
     0
  9
$DIMSE2
 70
     0
  9
$DIMTAD
 70
     0
  9
$DIMZIN
 70
     0
  9
$DIMBLK
  1

  9
$DIMASO
 70
     1
  9
$DIMSHO
 70
     0
  9
$DIMPOST
  1

  9
$DIMAPOST
  1

  9
$DIMALT
 70
     0
  9
$DIMALTD
 70
     2
  9
$DIMALTF
 40
25.4
  9
$DIMLFAC
 40
1.0
  9
$LUNITS
 70
     2
  9
$LUPREC
 70
     4
  9
$AXISMODE
 70
     0
  9
$AXISUNIT
 10
0.0
 20
0.0
  9
$SKETCHINC
 40
0.1
  9
$FILLETRAD
 40
0.0
  9
$AUNITS
 70
     0
  9
$AUPREC
 70
     0
  9
$MENU
  1
acad
  9
$ELEVATION
 40
0.0
  9
$THICKNESS
 40
0.0
  9
$VIEWDIR
 10
0.0
 20
0.0
 30
1.0
  9
$LIMCHECK
 70
     0
  9
$BLIPMODE
 70
     1
  9
$CHAMFERA
 40
0.0
  9
$CHAMFERB
 40
0.0
  9
$FASTZOOM
 70
     1
  9
$SKPOLY
 70
     0
  9
$TDCREATE
 40
2447222.5666886573
  9
$TDUPDATE
 40
2447222.5666886573
  9
$TDINDWG
 40
0.0000000000
  9
$TDUSRTIMER
 40
0.0000000000
  9
$USRTIMER
 70
     1
  9
$ANGBASE
 50
0.0
  9
$ANGDIR
 70
     0
  9
$PDMODE
 70
     0
  9
$PDSIZE
 40
0.0
  9
$PLINEWID
 40
0.0
  9
$COORDS
 70
     0
  9
$SPLFRAME
 70
     0
  9
$SPLINESEGS
 70
     8
  9
$ATTDIA
 70
     0
  9
$ATTREQ
 70
     1
  9
$USERI1
 70
     0
  9
$USERI2
 70
     0
  9
$USERI3
 70
     0
  9
$USERI4
 70
     0
  9
$USERI5
 70
     0
  9
$USERR1
 40
0.0
  9
$USERR2
 40
0.0
  9
$USERR3
 40
0.0
  9
$USERR4
 40
0.0
  9
$USERR5
 40
0.0
  0
ENDSEC
  0
SECTION
  2
TABLES
  0
TABLE
  2
LTYPE
 70
     13
  0
LTYPE
  2
CONTINUOUS
 70
    64
  3
Solid line
 72
    65
 73
     0
 40
0.0
  0
LTYPE
  2
DASHED
 70
    64
  3
__ __ __ __ __ __ __ __ __ __ __ __ __ __ __
 72
    65
 73
     2
 40
0.75
 49
0.5
 49
-0.25
  0
LTYPE
  2
HIDDEN
 70
    64
  3
_ _ _ _ _ _ _ _ _ _ _ _ _ _ _ _ _ _ _ _ _ _ _
 72
    65
 73
     2
 40
0.375
 49
0.25
 49
-0.125
  0
LTYPE
  2
CENTER
 70
    64
  3
____ _ ____ _ ____ _ ____ _ ____ _ ____ _ ____
 72
    65
 73
     4
 40
2.0
 49
1.25
 49
-0.25
 49
0.25
 49
-0.25
  0
LTYPE
  2
PHANTOM
 70
    64
  3
_____ _ _ _____ _ _ _____ _ _ _____ _ _ ____
 72
    65
 73
     6
 40
2.5
 49
1.25
 49
-0.25
 49
0.25
 49
-0.25
 49
0.25
 49
-0.25
  0
LTYPE
  2
DOT
 70
    64
  3
...............................................
 72
    65
 73
     2
 40
0.25
 49
0.0
 49
-0.25
  0
LTYPE
  2
DASHDOT
 70
    64
  3
__ . __ . __ . __ . __ . __ . __ . __ . __ . __
 72
    65
 73
     4
 40
1.0
 49
0.5
 49
-0.25
 49
0.0
 49
-0.25
  0
LTYPE
  2
BORDER
 70
    64
  3
__ __ . __ __ . __ __ . __ __ . __ __ . __ __
 72
    65
 73
     6
 40
1.75
 49
0.5
 49
-0.25
 49
0.5
 49
-0.25
 49
0.0
 49
-0.25
  0
LTYPE
  2
DIVIDE
 70
    64
  3
__ . . __ . . __ . . __ . . __ . . __ . . __
 72
    65
 73
     6
 40
1.25
 49
0.5
 49
-0.25
 49
0.0
 49
-0.25
 49
0.0
 49
-0.25
  0
LTYPE
  2
DCTYPE1
 70
    64
  3
__ . . __ . . __ . . __ . . __ . . __ . . __
 72
    65
 73
     8
 40
2.5
 49
0.5
 49
-0.25
 49
0.125
 49
-0.25
 49
0.25
 49
-0.25
 49
0.125
 49
-0.25
  0
LTYPE
  2
DCTYPE2
 70
    64
  3
__ . . __ . . __ . . __ . . __ . . __ . . __
 72
    65
 73
     6
 40
2.05
 49
1.0
 49
-0.3
 49
0.15
 49
-0.15
 49
0.15
 49
-0.3
  0
LTYPE
  2
DCTYPE3
 70
    64
  3
__ . . __ . . __ . . __ . . __ . . __ . . __
 72
    65
 73
     6
 40
2.5
 49
0.8
 49
-0.2
 49
0.8
 49
-0.2
 49
0.3
 49
-0.2
  0
LTYPE
  2
DCTYPE4
 70
    64
  3
__ . . __ . . __ . . __ . . __ . . __ . . __
 72
    65
 73
     10
 40
3.97
 49
1.75
 49
-0.3
 49
0.3
 49
-0.3
 49
0.06
 49
-0.3
 49
0.06
 49
-0.3
 49
0.3
 49
-0.3
  0
ENDTAB
  0
TABLE
  2
LAYER
 70
    153
  0
LAYER
  2
LAYER1
 70
 64
 62
     7
  6
CONTINUOUS
  0
LAYER
  2
LAYER12
 70
 64
 62
     5
  6
CONTINUOUS
  0
ENDTAB
  0
ENDSEC
  0
SECTION
  2
BLOCKS
  0
ENDSEC
  0
SECTION
  2
ENTITIES
  0
CIRCLE
  8
LAYER1
 62
     7
  6
CONTINUOUS
 10
11.6259
 20
0.5827
 40
0.0242
  0
POLYLINE
  8
LAYER1
 62
     7
 66
     1
  6
CONTINUOUS
  0
VERTEX
  8
LAYER1
 62
     7
  6
CONTINUOUS
 10
11.5563
 20
1.1782
  0
VERTEX
  8
LAYER1
 62
     7
  6
CONTINUOUS
 10
11.5565
 20
1.1791
  0
VERTEX
  8
LAYER1
 62
     7
  6
CONTINUOUS
 10
11.5569
 20
1.1800
  0
VERTEX
  8
LAYER1
 62
     7
  6
CONTINUOUS
 10
11.5575
 20
1.1809
  0
VERTEX
  8
LAYER1
 62
     7
  6
CONTINUOUS
 10
11.5582
 20
1.1818
  0
VERTEX
  8
LAYER1
 62
     7
  6
CONTINUOUS
 10
11.5590
 20
1.1826
  0
VERTEX
  8
LAYER1
 62
     7
  6
CONTINUOUS
 10
11.5599
 20
1.1834
  0
VERTEX
  8
LAYER1
 62
     7
  6
CONTINUOUS
 10
11.5609
 20
1.1843
  0
VERTEX
  8
LAYER1
 62
     7
  6
CONTINUOUS
 10
11.5620
 20
1.1851
  0
VERTEX
  8
LAYER1
 62
     7
  6
CONTINUOUS
 10
11.5631
 20
1.1859
  0
VERTEX
  8
LAYER1
 62
     7
  6
CONTINUOUS
 10
11.5643
 20
1.1867
  0
VERTEX
  8
LAYER1
 62
     7
  6
CONTINUOUS
 10
11.5654
 20
1.1876
  0
VERTEX
  8
LAYER1
 62
     7
  6
CONTINUOUS
 10
11.5665
 20
1.1884
  0
VERTEX
  8
LAYER1
 62
     7
  6
CONTINUOUS
 10
11.5679
 20
1.1896
  0
VERTEX
  8
LAYER1
 62
     7
  6
CONTINUOUS
 10
11.5692
 20
1.1907
  0
VERTEX
  8
LAYER1
 62
     7
  6
CONTINUOUS
 10
11.5705
 20
1.1919
  0
VERTEX
  8
LAYER1
 62
     7
  6
CONTINUOUS
 10
11.5717
 20
1.1930
  0
VERTEX
  8
LAYER1
 62
     7
  6
CONTINUOUS
 10
11.5730
 20
1.1941
  0
VERTEX
  8
LAYER1
 62
     7
  6
CONTINUOUS
 10
11.5742
 20
1.1952
  0
VERTEX
  8
LAYER1
 62
     7
  6
CONTINUOUS
 10
11.5754
 20
1.1961
  0
VERTEX
  8
LAYER1
 62
     7
  6
CONTINUOUS
 10
11.5766
 20
1.1969
  0
VERTEX
  8
LAYER1
 62
     7
  6
CONTINUOUS
 10
11.5779
 20
1.1976
  0
VERTEX
  8
LAYER1
 62
     7
  6
CONTINUOUS
 10
11.5792
 20
1.1981
  0
VERTEX
  8
LAYER1
 62
     7
  6
CONTINUOUS
 10
11.5805
 20
1.1985
  0
VERTEX
  8
LAYER1
 62
     7
  6
CONTINUOUS
 10
11.5818
 20
1.1987
  0
VERTEX
  8
LAYER1
 62
     7
  6
CONTINUOUS
 10
11.5833
 20
1.1986
  0
VERTEX
  8
LAYER1
 62
     7
  6
CONTINUOUS
 10
11.5847
 20
1.1984
  0
VERTEX
  8
LAYER1
 62
     7
  6
CONTINUOUS
 10
11.5862
 20
1.1980
  0
VERTEX
  8
LAYER1
 62
     7
  6
CONTINUOUS
 10
11.5877
 20
1.1974
  0
VERTEX
  8
LAYER1
 62
     7
  6
CONTINUOUS
 10
11.5892
 20
1.1966
  0
VERTEX
  8
LAYER1
 62
     7
  6
CONTINUOUS
 10
11.5906
 20
1.1957
  0
VERTEX
  8
LAYER1
 62
     7
  6
CONTINUOUS
 10
11.5920
 20
1.1947
  0
VERTEX
  8
LAYER1
 62
     7
  6
CONTINUOUS
 10
11.5933
 20
1.1936
  0
VERTEX
  8
LAYER1
 62
     7
  6
CONTINUOUS
 10
11.5945
 20
1.1924
  0
VERTEX
  8
LAYER1
 62
     7
  6
CONTINUOUS
 10
11.5955
 20
1.1912
  0
VERTEX
  8
LAYER1
 62
     7
  6
CONTINUOUS
 10
11.5964
 20
1.1898
  0
VERTEX
  8
LAYER1
 62
     7
  6
CONTINUOUS
 10
11.5972
 20
1.1885
  0
VERTEX
  8
LAYER1
 62
     7
  6
CONTINUOUS
 10
11.5978
 20
1.1869
  0
VERTEX
  8
LAYER1
 62
     7
  6
CONTINUOUS
 10
11.5982
 20
1.1854
  0
VERTEX
  8
LAYER1
 62
     7
  6
CONTINUOUS
 10
11.5984
 20
1.1838
  0
VERTEX
  8
LAYER1
 62
     7
  6
CONTINUOUS
 10
11.5985
 20
1.1822
  0
VERTEX
  8
LAYER1
 62
     7
  6
CONTINUOUS
 10
11.5985
 20
1.1805
  0
VERTEX
  8
LAYER1
 62
     7
  6
CONTINUOUS
 10
11.5983
 20
1.1788
  0
VERTEX
  8
LAYER1
 62
     7
  6
CONTINUOUS
 10
11.5981
 20
1.1771
  0
VERTEX
  8
LAYER1
 62
     7
  6
CONTINUOUS
 10
11.5979
 20
1.1754
  0
VERTEX
  8
LAYER1
 62
     7
  6
CONTINUOUS
 10
11.5977
 20
1.1736
  0
VERTEX
  8
LAYER1
 62
     7
  6
CONTINUOUS
 10
11.5975
 20
1.1718
  0
VERTEX
  8
LAYER1
 62
     7
  6
CONTINUOUS
 10
11.5973
 20
1.1699
  0
VERTEX
  8
LAYER1
 62
     7
  6
CONTINUOUS
 10
11.5972
 20
1.1680
  0
VERTEX
  8
LAYER1
 62
     7
  6
CONTINUOUS
 10
11.5973
 20
1.1651
  0
VERTEX
  8
LAYER1
 62
     7
  6
CONTINUOUS
 10
11.5975
 20
1.1622
  0
VERTEX
  8
LAYER1
 62
     7
  6
CONTINUOUS
 10
11.5979
 20
1.1592
  0
VERTEX
  8
LAYER1
 62
     7
  6
CONTINUOUS
 10
11.5983
 20
1.1563
  0
VERTEX
  8
LAYER1
 62
     7
  6
CONTINUOUS
 10
11.5987
 20
1.1534
  0
VERTEX
  8
LAYER1
 62
     7
  6
CONTINUOUS
 10
11.5991
 20
1.1506
  0
VERTEX
  8
LAYER1
 62
     7
  6
CONTINUOUS
 10
11.5994
 20
1.1479
  0
VERTEX
  8
LAYER1
 62
     7
  6
CONTINUOUS
 10
11.5996
 20
1.1453
  0
VERTEX
  8
LAYER1
 62
     7
  6
CONTINUOUS
 10
11.5995
 20
1.1430
  0
VERTEX
  8
LAYER1
 62
     7
  6
CONTINUOUS
 10
11.5991
 20
1.1408
  0
VERTEX
  8
LAYER1
 62
     7
  6
CONTINUOUS
 10
11.5984
 20
1.1390
  0
VERTEX
  8
LAYER1
 62
     7
  6
CONTINUOUS
 10
11.5972
 20
1.1374
  0
VERTEX
  8
LAYER1
 62
     7
  6
CONTINUOUS
 10
11.5965
 20
1.1366
  0
VERTEX
  8
LAYER1
 62
     7
  6
CONTINUOUS
 10
11.5956
 20
1.1360
  0
VERTEX
  8
LAYER1
 62
     7
  6
CONTINUOUS
 10
11.5946
 20
1.1354
  0
VERTEX
  8
LAYER1
 62
     7
  6
CONTINUOUS
 10
11.5935
 20
1.1349
  0
VERTEX
  8
LAYER1
 62
     7
  6
CONTINUOUS
 10
11.5923
 20
1.1345
  0
VERTEX
  8
LAYER1
 62
     7
  6
CONTINUOUS
 10
11.5910
 20
1.1341
  0
VERTEX
  8
LAYER1
 62
     7
  6
CONTINUOUS
 10
11.5897
 20
1.1337
  0
VERTEX
  8
LAYER1
 62
     7
  6
CONTINUOUS
 10
11.5882
 20
1.1334
  0
VERTEX
  8
LAYER1
 62
     7
  6
CONTINUOUS
 10
11.5867
 20
1.1331
  0
VERTEX
  8
LAYER1
 62
     7
  6
CONTINUOUS
 10
11.5852
 20
1.1328
  0
VERTEX
  8
LAYER1
 62
     7
  6
CONTINUOUS
 10
11.5836
 20
1.1325
  0
VERTEX
  8
LAYER1
 62
     7
  6
CONTINUOUS
 10
11.5819
 20
1.1322
  0
VERTEX
  8
LAYER1
 62
     7
  6
CONTINUOUS
 10
11.5803
 20
1.1320
  0
VERTEX
  8
LAYER1
 62
     7
  6
CONTINUOUS
 10
11.5787
 20
1.1317
  0
VERTEX
  8
LAYER1
 62
     7
  6
CONTINUOUS
 10
11.5771
 20
1.1314
  0
VERTEX
  8
LAYER1
 62
     7
  6
CONTINUOUS
 10
11.5755
 20
1.1312
  0
VERTEX
  8
LAYER1
 62
     7
  6
CONTINUOUS
 10
11.5740
 20
1.1310
  0
VERTEX
  8
LAYER1
 62
     7
  6
CONTINUOUS
 10
11.5725
 20
1.1309
  0
VERTEX
  8
LAYER1
 62
     7
  6
CONTINUOUS
 10
11.5712
 20
1.1309
  0
VERTEX
  8
LAYER1
 62
     7
  6
CONTINUOUS
 10
11.5699
 20
1.1309
  0
VERTEX
  8
LAYER1
 62
     7
  6
CONTINUOUS
 10
11.5688
 20
1.1311
  0
VERTEX
  8
LAYER1
 62
     7
  6
CONTINUOUS
 10
11.5679
 20
1.1313
  0
VERTEX
  8
LAYER1
 62
     7
  6
CONTINUOUS
 10
11.5671
 20
1.1317
  0
VERTEX
  8
LAYER1
 62
     7
  6
CONTINUOUS
 10
11.5666
 20
1.1322
  0
VERTEX
  8
LAYER1
 62
     7
  6
CONTINUOUS
 10
11.5661
 20
1.1332
  0
VERTEX
  8
LAYER1
 62
     7
  6
CONTINUOUS
 10
11.5661
 20
1.1344
  0
VERTEX
  8
LAYER1
 62
     7
  6
CONTINUOUS
 10
11.5663
 20
1.1358
  0
VERTEX
  8
LAYER1
 62
     7
  6
CONTINUOUS
 10
11.5668
 20
1.1374
  0
VERTEX
  8
LAYER1
 62
     7
  6
CONTINUOUS
 10
11.5674
 20
1.1391
  0
VERTEX
  8
LAYER1
 62
     7
  6
CONTINUOUS
 10
11.5681
 20
1.1410
  0
VERTEX
  8
LAYER1
 62
     7
  6
CONTINUOUS
 10
11.5690
 20
1.1429
  0
VERTEX
  8
LAYER1
 62
     7
  6
CONTINUOUS
 10
11.5698
 20
1.1449
  0
VERTEX
  8
LAYER1
 62
     7
  6
CONTINUOUS
 10
11.5705
 20
1.1469
  0
VERTEX
  8
LAYER1
 62
     7
  6
CONTINUOUS
 10
11.5711
 20
1.1489
  0
VERTEX
  8
LAYER1
 62
     7
  6
CONTINUOUS
 10
11.5715
 20
1.1508
  0
VERTEX
  8
LAYER1
 62
     7
  6
CONTINUOUS
 10
11.5717
 20
1.1527
  0
VERTEX
  8
LAYER1
 62
     7
  6
CONTINUOUS
 10
11.5716
 20
1.1542
  0
VERTEX
  8
LAYER1
 62
     7
  6
CONTINUOUS
 10
11.5713
 20
1.1556
  0
VERTEX
  8
LAYER1
 62
     7
  6
CONTINUOUS
 10
11.5708
 20
1.1569
  0
VERTEX
  8
LAYER1
 62
     7
  6
CONTINUOUS
 10
11.5701
 20
1.1582
  0
VERTEX
  8
LAYER1
 62
     7
  6
CONTINUOUS
 10
11.5693
 20
1.1595
  0
VERTEX
  8
LAYER1
 62
     7
  6
CONTINUOUS
 10
11.5683
 20
1.1607
  0
VERTEX
  8
LAYER1
 62
     7
  6
CONTINUOUS
 10
11.5673
 20
1.1619
  0
VERTEX
  8
LAYER1
 62
     7
  6
CONTINUOUS
 10
11.5662
 20
1.1631
  0
VERTEX
  8
LAYER1
 62
     7
  6
CONTINUOUS
 10
11.5650
 20
1.1643
  0
VERTEX
  8
LAYER1
 62
     7
  6
CONTINUOUS
 10
11.5638
 20
1.1655
  0
VERTEX
  8
LAYER1
 62
     7
  6
CONTINUOUS
 10
11.5626
 20
1.1667
  0
VERTEX
  8
LAYER1
 62
     7
  6
CONTINUOUS
 10
11.5614
 20
1.1680
  0
VERTEX
  8
LAYER1
 62
     7
  6
CONTINUOUS
 10
11.5607
 20
1.1688
  0
VERTEX
  8
LAYER1
 62
     7
  6
CONTINUOUS
 10
11.5600
 20
1.1697
  0
VERTEX
  8
LAYER1
 62
     7
  6
CONTINUOUS
 10
11.5594
 20
1.1705
  0
VERTEX
  8
LAYER1
 62
     7
  6
CONTINUOUS
 10
11.5587
 20
1.1714
  0
VERTEX
  8
LAYER1
 62
     7
  6
CONTINUOUS
 10
11.5582
 20
1.1722
  0
VERTEX
  8
LAYER1
 62
     7
  6
CONTINUOUS
 10
11.5577
 20
1.1731
  0
VERTEX
  8
LAYER1
 62
     7
  6
CONTINUOUS
 10
11.5572
 20
1.1740
  0
VERTEX
  8
LAYER1
 62
     7
  6
CONTINUOUS
 10
11.5569
 20
1.1749
  0
VERTEX
  8
LAYER1
 62
     7
  6
CONTINUOUS
 10
11.5566
 20
1.1757
  0
VERTEX
  8
LAYER1
 62
     7
  6
CONTINUOUS
 10
11.5564
 20
1.1766
  0
VERTEX
  8
LAYER1
 62
     7
  6
CONTINUOUS
 10
11.5563
 20
1.1774
  0
VERTEX
  8
LAYER1
 62
     7
  6
CONTINUOUS
 10
11.5563
 20
1.1782
  0
SEQEND
  8
LAYER1
  0
CIRCLE
  8
LAYER1
 62
     7
  6
CONTINUOUS
 10
11.6228
 20
1.1834
 40
0.0051
  0
CIRCLE
  8
LAYER1
 62
     7
  6
CONTINUOUS
 10
11.8094
 20
1.1095
 40
0.0130
  0
CIRCLE
  8
LAYER1
 62
     7
  6
CONTINUOUS
 10
11.7379
 20
1.0506
 40
0.0171
  0
CIRCLE
  8
LAYER1
 62
     7
  6
CONTINUOUS
 10
11.8453
 20
1.0098
 40
0.0286
  0
CIRCLE
  8
LAYER1
 62
     7
  6
CONTINUOUS
 10
11.7918
 20
0.8819
 40
0.0153
  0
CIRCLE
  8
LAYER1
 62
     7
  6
CONTINUOUS
 10
11.6640
 20
0.8716
 40
0.0162
  0
CIRCLE
  8
LAYER1
 62
     7
  6
CONTINUOUS
 10
11.5515
 20
0.8587
 40
0.0164
  0
CIRCLE
  8
LAYER1
 62
     7
  6
CONTINUOUS
 10
11.5080
 20
0.8791
 40
0.0130
  0
CIRCLE
  8
LAYER1
 62
     7
  6
CONTINUOUS
 10
12.0112
 20
1.2196
 40
0.0162
  0
CIRCLE
  8
LAYER1
 62
     7
  6
CONTINUOUS
 10
11.7860
 20
1.5082
 40
0.0179
  0
CIRCLE
  8
LAYER1
 62
     7
  6
CONTINUOUS
 10
11.6252
 20
1.3265
 40
0.0155
  0
CIRCLE
  8
LAYER1
 62
     7
  6
CONTINUOUS
 10
11.5790
 20
1.4415
 40
0.0181
  0
CIRCLE
  8
LAYER1
 62
     7
  6
CONTINUOUS
 10
11.4461
 20
1.4465
 40
0.0232
  0
CIRCLE
  8
LAYER1
 62
     7
  6
CONTINUOUS
 10
11.4846
 20
1.3213
 40
0.0114
  0
CIRCLE
  8
LAYER1
 62
     7
  6
CONTINUOUS
 10
11.6252
 20
1.3189
 40
0.0081
  0
CIRCLE
  8
LAYER1
 62
     7
  6
CONTINUOUS
 10
11.3006
 20
1.3109
 40
0.0162
  0
CIRCLE
  8
LAYER1
 62
     7
  6
CONTINUOUS
 10
11.2597
 20
1.2648
 40
0.0072
  0
CIRCLE
  8
LAYER1
 62
     7
  6
CONTINUOUS
 10
11.2981
 20
1.2418
 40
0.0081
  0
CIRCLE
  8
LAYER1
 62
     7
  6
CONTINUOUS
 10
11.0961
 20
1.3030
 40
0.0105
  0
ARC
  8
LAYER1
 62
     7
  6
CONTINUOUS
 10
11.4562
 20
1.5641
 40
0.0081
 50
177.5493
 51
-71.4814
  0
POLYLINE
  8
LAYER1
 62
     7
 66
     1
  6
CONTINUOUS
  0
VERTEX
  8
LAYER1
 62
     7
  6
CONTINUOUS
 10
11.3622
 20
1.5644
  0
VERTEX
  8
LAYER1
 62
     7
  6
CONTINUOUS
 10
11.3618
 20
1.5637
  0
VERTEX
  8
LAYER1
 62
     7
  6
CONTINUOUS
 10
11.3614
 20
1.5629
  0
VERTEX
  8
LAYER1
 62
     7
  6
CONTINUOUS
 10
11.3610
 20
1.5622
  0
VERTEX
  8
LAYER1
 62
     7
  6
CONTINUOUS
 10
11.3605
 20
1.5615
  0
VERTEX
  8
LAYER1
 62
     7
  6
CONTINUOUS
 10
11.3601
 20
1.5608
  0
VERTEX
  8
LAYER1
 62
     7
  6
CONTINUOUS
 10
11.3596
 20
1.5601
  0
VERTEX
  8
LAYER1
 62
     7
  6
CONTINUOUS
 10
11.3592
 20
1.5594
  0
VERTEX
  8
LAYER1
 62
     7
  6
CONTINUOUS
 10
11.3587
 20
1.5587
  0
VERTEX
  8
LAYER1
 62
     7
  6
CONTINUOUS
 10
11.3582
 20
1.5581
  0
VERTEX
  8
LAYER1
 62
     7
  6
CONTINUOUS
 10
11.3577
 20
1.5575
  0
VERTEX
  8
LAYER1
 62
     7
  6
CONTINUOUS
 10
11.3571
 20
1.5569
  0
VERTEX
  8
LAYER1
 62
     7
  6
CONTINUOUS
 10
11.3565
 20
1.5563
  0
VERTEX
  8
LAYER1
 62
     7
  6
CONTINUOUS
 10
11.3552
 20
1.5552
  0
VERTEX
  8
LAYER1
 62
     7
  6
CONTINUOUS
 10
11.3538
 20
1.5543
  0
VERTEX
  8
LAYER1
 62
     7
  6
CONTINUOUS
 10
11.3523
 20
1.5534
  0
VERTEX
  8
LAYER1
 62
     7
  6
CONTINUOUS
 10
11.3506
 20
1.5528
  0
VERTEX
  8
LAYER1
 62
     7
  6
CONTINUOUS
 10
11.3489
 20
1.5522
  0
VERTEX
  8
LAYER1
 62
     7
  6
CONTINUOUS
 10
11.3472
 20
1.5517
  0
VERTEX
  8
LAYER1
 62
     7
  6
CONTINUOUS
 10
11.3454
 20
1.5514
  0
VERTEX
  8
LAYER1
 62
     7
  6
CONTINUOUS
 10
11.3435
 20
1.5512
  0
VERTEX
  8
LAYER1
 62
     7
  6
CONTINUOUS
 10
11.3417
 20
1.5510
  0
VERTEX
  8
LAYER1
 62
     7
  6
CONTINUOUS
 10
11.3398
 20
1.5510
  0
VERTEX
  8
LAYER1
 62
     7
  6
CONTINUOUS
 10
11.3379
 20
1.5510
  0
VERTEX
  8
LAYER1
 62
     7
  6
CONTINUOUS
 10
11.3361
 20
1.5512
  0
VERTEX
  8
LAYER1
 62
     7
  6
CONTINUOUS
 10
11.3331
 20
1.5515
  0
VERTEX
  8
LAYER1
 62
     7
  6
CONTINUOUS
 10
11.3302
 20
1.5521
  0
VERTEX
  8
LAYER1
 62
     7
  6
CONTINUOUS
 10
11.3274
 20
1.5529
  0
VERTEX
  8
LAYER1
 62
     7
  6
CONTINUOUS
 10
11.3247
 20
1.5538
  0
VERTEX
  8
LAYER1
 62
     7
  6
CONTINUOUS
 10
11.3220
 20
1.5548
  0
VERTEX
  8
LAYER1
 62
     7
  6
CONTINUOUS
 10
11.3193
 20
1.5559
  0
VERTEX
  8
LAYER1
 62
     7
  6
CONTINUOUS
 10
11.3167
 20
1.5572
  0
VERTEX
  8
LAYER1
 62
     7
  6
CONTINUOUS
 10
11.3142
 20
1.5585
  0
VERTEX
  8
LAYER1
 62
     7
  6
CONTINUOUS
 10
11.3116
 20
1.5599
  0
VERTEX
  8
LAYER1
 62
     7
  6
CONTINUOUS
 10
11.3091
 20
1.5614
  0
VERTEX
  8
LAYER1
 62
     7
  6
CONTINUOUS
 10
11.3066
 20
1.5629
  0
VERTEX
  8
LAYER1
 62
     7
  6
CONTINUOUS
 10
11.3041
 20
1.5644
  0
SEQEND
  8
LAYER1
  0
POLYLINE
  8
LAYER1
 62
     7
 66
     1
  6
CONTINUOUS
  0
VERTEX
  8
LAYER1
 62
     7
  6
CONTINUOUS
 10
11.3041
 20
1.5644
  0
VERTEX
  8
LAYER1
 62
     7
  6
CONTINUOUS
 10
11.3041
 20
1.5644
  0
VERTEX
  8
LAYER1
 62
     7
  6
CONTINUOUS
 10
11.3041
 20
1.5644
  0
VERTEX
  8
LAYER1
 62
     7
  6
CONTINUOUS
 10
11.3041
 20
1.5644
  0
VERTEX
  8
LAYER1
 62
     7
  6
CONTINUOUS
 10
11.3041
 20
1.5644
  0
VERTEX
  8
LAYER1
 62
     7
  6
CONTINUOUS
 10
11.3041
 20
1.5644
  0
VERTEX
  8
LAYER1
 62
     7
  6
CONTINUOUS
 10
11.3041
 20
1.5644
  0
VERTEX
  8
LAYER1
 62
     7
  6
CONTINUOUS
 10
11.3041
 20
1.5644
  0
VERTEX
  8
LAYER1
 62
     7
  6
CONTINUOUS
 10
11.3041
 20
1.5644
  0
VERTEX
  8
LAYER1
 62
     7
  6
CONTINUOUS
 10
11.3041
 20
1.5644
  0
VERTEX
  8
LAYER1
 62
     7
  6
CONTINUOUS
 10
11.3041
 20
1.5644
  0
VERTEX
  8
LAYER1
 62
     7
  6
CONTINUOUS
 10
11.3041
 20
1.5644
  0
VERTEX
  8
LAYER1
 62
     7
  6
CONTINUOUS
 10
11.3041
 20
1.5644
  0
VERTEX
  8
LAYER1
 62
     7
  6
CONTINUOUS
 10
11.3041
 20
1.5644
  0
VERTEX
  8
LAYER1
 62
     7
  6
CONTINUOUS
 10
11.3041
 20
1.5644
  0
VERTEX
  8
LAYER1
 62
     7
  6
CONTINUOUS
 10
11.3041
 20
1.5644
  0
VERTEX
  8
LAYER1
 62
     7
  6
CONTINUOUS
 10
11.3041
 20
1.5644
  0
VERTEX
  8
LAYER1
 62
     7
  6
CONTINUOUS
 10
11.3041
 20
1.5644
  0
VERTEX
  8
LAYER1
 62
     7
  6
CONTINUOUS
 10
11.3041
 20
1.5644
  0
VERTEX
  8
LAYER1
 62
     7
  6
CONTINUOUS
 10
11.3041
 20
1.5644
  0
VERTEX
  8
LAYER1
 62
     7
  6
CONTINUOUS
 10
11.3041
 20
1.5644
  0
VERTEX
  8
LAYER1
 62
     7
  6
CONTINUOUS
 10
11.3041
 20
1.5644
  0
VERTEX
  8
LAYER1
 62
     7
  6
CONTINUOUS
 10
11.3041
 20
1.5644
  0
VERTEX
  8
LAYER1
 62
     7
  6
CONTINUOUS
 10
11.3041
 20
1.5644
  0
VERTEX
  8
LAYER1
 62
     7
  6
CONTINUOUS
 10
11.3041
 20
1.5644
  0
SEQEND
  8
LAYER1
  0
POLYLINE
  8
LAYER1
 62
     7
 66
     1
  6
CONTINUOUS
  0
VERTEX
  8
LAYER1
 62
     7
  6
CONTINUOUS
 10
11.3041
 20
1.5644
  0
VERTEX
  8
LAYER1
 62
     7
  6
CONTINUOUS
 10
11.3041
 20
1.5644
  0
VERTEX
  8
LAYER1
 62
     7
  6
CONTINUOUS
 10
11.3041
 20
1.5644
  0
VERTEX
  8
LAYER1
 62
     7
  6
CONTINUOUS
 10
11.3041
 20
1.5644
  0
VERTEX
  8
LAYER1
 62
     7
  6
CONTINUOUS
 10
11.3041
 20
1.5644
  0
VERTEX
  8
LAYER1
 62
     7
  6
CONTINUOUS
 10
11.3041
 20
1.5644
  0
VERTEX
  8
LAYER1
 62
     7
  6
CONTINUOUS
 10
11.3041
 20
1.5644
  0
VERTEX
  8
LAYER1
 62
     7
  6
CONTINUOUS
 10
11.3041
 20
1.5644
  0
VERTEX
  8
LAYER1
 62
     7
  6
CONTINUOUS
 10
11.3041
 20
1.5644
  0
VERTEX
  8
LAYER1
 62
     7
  6
CONTINUOUS
 10
11.3041
 20
1.5644
  0
VERTEX
  8
LAYER1
 62
     7
  6
CONTINUOUS
 10
11.3041
 20
1.5644
  0
VERTEX
  8
LAYER1
 62
     7
  6
CONTINUOUS
 10
11.3041
 20
1.5644
  0
VERTEX
  8
LAYER1
 62
     7
  6
CONTINUOUS
 10
11.3041
 20
1.5644
  0
VERTEX
  8
LAYER1
 62
     7
  6
CONTINUOUS
 10
11.3041
 20
1.5644
  0
VERTEX
  8
LAYER1
 62
     7
  6
CONTINUOUS
 10
11.3041
 20
1.5644
  0
VERTEX
  8
LAYER1
 62
     7
  6
CONTINUOUS
 10
11.3041
 20
1.5644
  0
VERTEX
  8
LAYER1
 62
     7
  6
CONTINUOUS
 10
11.3041
 20
1.5644
  0
VERTEX
  8
LAYER1
 62
     7
  6
CONTINUOUS
 10
11.3041
 20
1.5644
  0
VERTEX
  8
LAYER1
 62
     7
  6
CONTINUOUS
 10
11.3041
 20
1.5644
  0
VERTEX
  8
LAYER1
 62
     7
  6
CONTINUOUS
 10
11.3041
 20
1.5644
  0
VERTEX
  8
LAYER1
 62
     7
  6
CONTINUOUS
 10
11.3041
 20
1.5644
  0
VERTEX
  8
LAYER1
 62
     7
  6
CONTINUOUS
 10
11.3041
 20
1.5644
  0
VERTEX
  8
LAYER1
 62
     7
  6
CONTINUOUS
 10
11.3041
 20
1.5644
  0
VERTEX
  8
LAYER1
 62
     7
  6
CONTINUOUS
 10
11.3041
 20
1.5644
  0
VERTEX
  8
LAYER1
 62
     7
  6
CONTINUOUS
 10
11.3041
 20
1.5644
  0
SEQEND
  8
LAYER1
  0
ARC
  8
LAYER1
 62
     7
  6
CONTINUOUS
 10
12.0341
 20
1.3167
 40
0.0206
 50
-97.0528
 51
-50.4239
  0
ARC
  8
LAYER1
 62
     7
  6
CONTINUOUS
 10
12.0341
 20
1.3167
 40
0.0206
 50
50.4237
 51
-97.0528
  0
ARC
  8
LAYER1
 62
     7
  6
CONTINUOUS
 10
11.4562
 20
1.5641
 40
0.0081
 50
-71.4785
 51
2.4490
  0
POLYLINE
  8
LAYER12
 62
     5
 66
     1
  6
CONTINUOUS
  0
VERTEX
  8
LAYER12
 62
     5
  6
CONTINUOUS
 10
11.0248
 20
0.5426
  0
VERTEX
  8
LAYER12
 62
     5
  6
CONTINUOUS
 10
11.0284
 20
0.5426
  0
SEQEND
  8
LAYER12
  0
POLYLINE
  8
LAYER12
 62
     5
 66
     1
  6
CONTINUOUS
  0
VERTEX
  8
LAYER12
 62
     5
  6
CONTINUOUS
 10
11.0284
 20
0.5426
  0
VERTEX
  8
LAYER12
 62
     5
  6
CONTINUOUS
 10
12.0473
 20
0.5426
  0
SEQEND
  8
LAYER12
  0
POLYLINE
  8
LAYER12
 62
     5
 66
     1
  6
CONTINUOUS
  0
VERTEX
  8
LAYER12
 62
     5
  6
CONTINUOUS
 10
11.0235
 20
0.5435
  0
VERTEX
  8
LAYER12
 62
     5
  6
CONTINUOUS
 10
11.0235
 20
0.5439
  0
SEQEND
  8
LAYER12
  0
POLYLINE
  8
LAYER12
 62
     5
 66
     1
  6
CONTINUOUS
  0
VERTEX
  8
LAYER12
 62
     5
  6
CONTINUOUS
 10
11.0221
 20
0.5426
  0
VERTEX
  8
LAYER12
 62
     5
  6
CONTINUOUS
 10
11.0248
 20
0.5426
  0
SEQEND
  8
LAYER12
  0
POLYLINE
  8
LAYER12
 62
     5
 66
     1
  6
CONTINUOUS
  0
VERTEX
  8
LAYER12
 62
     5
  6
CONTINUOUS
 10
12.0473
 20
1.5657
  0
VERTEX
  8
LAYER12
 62
     5
  6
CONTINUOUS
 10
11.0248
 20
1.5657
  0
SEQEND
  8
LAYER12
  0
POLYLINE
  8
LAYER12
 62
     5
 66
     1
  6
CONTINUOUS
  0
VERTEX
  8
LAYER12
 62
     5
  6
CONTINUOUS
 10
11.0235
 20
1.5645
  0
VERTEX
  8
LAYER12
 62
     5
  6
CONTINUOUS
 10
11.0235
 20
1.5644
  0
SEQEND
  8
LAYER12
  0
POLYLINE
  8
LAYER12
 62
     5
 66
     1
  6
CONTINUOUS
  0
VERTEX
  8
LAYER12
 62
     5
  6
CONTINUOUS
 10
11.0235
 20
0.5439
  0
VERTEX
  8
LAYER12
 62
     5
  6
CONTINUOUS
 10
11.0235
 20
1.5644
  0
SEQEND
  8
LAYER12
  0
POLYLINE
  8
LAYER12
 62
     5
 66
     1
  6
CONTINUOUS
  0
VERTEX
  8
LAYER12
 62
     5
  6
CONTINUOUS
 10
11.0235
 20
1.5644
  0
VERTEX
  8
LAYER12
 62
     5
  6
CONTINUOUS
 10
11.0235
 20
1.5645
  0
SEQEND
  8
LAYER12
  0
POLYLINE
  8
LAYER12
 62
     5
 66
     1
  6
CONTINUOUS
  0
VERTEX
  8
LAYER12
 62
     5
  6
CONTINUOUS
 10
11.0248
 20
1.5657
  0
VERTEX
  8
LAYER12
 62
     5
  6
CONTINUOUS
 10
11.0221
 20
1.5657
  0
SEQEND
  8
LAYER12
  0
POLYLINE
  8
LAYER12
 62
     5
 66
     1
  6
CONTINUOUS
  0
VERTEX
  8
LAYER12
 62
     5
  6
CONTINUOUS
 10
12.0465
 20
1.5644
  0
VERTEX
  8
LAYER12
 62
     5
  6
CONTINUOUS
 10
12.0465
 20
0.5435
  0
SEQEND
  8
LAYER12
  0
ENDSEC
  0
EOF
