  0
SECTION
  2
HEADER
  9
$ACADVER
  1
AC1004
  9
$EXTMIN
 10
7.0490
 20
0.5426
  9
$EXTMAX
 10
8.0340
 20
1.5661
  9
$LIMMIN
 10
7.0490
 20
0.5426
  9
$LIMMAX
 10
8.0340
 20
1.5661
  9
$INSBASE
 10
0.0
 20
0.0
  9
$VIEWCTR
 10
7.21903
 20
4.5
  9
$VIEWSIZE
 40
9.0
  9
$SNAPMODE
 70
     0
  9
$SNAPUNIT
 10
1.0
 20
1.0
  9
$SNAPBASE
 10
0.0
 20
0.0
  9
$SNAPANG
 50
0.0
  9
$SNAPSTYLE
 70
     0
  9
$SNAPISOPAIR
 70
     0
  9
$GRIDMODE
 70
     0
  9
$GRIDUNIT
 10
0.0
 20
0.0
  9
$ORTHOMODE
 70
     0
  9
$REGENMODE
 70
     1
  9
$FILLMODE
 70
     1
  9
$QTEXTMODE
 70
     0
  9
$DRAGMODE
 70
     2
  9
$LTSCALE
 40
1.0
  9
$OSMODE
 70
     0
  9
$ATTMODE
 70
     1
  9
$TEXTSIZE
 40
0.2
  9
$TRACEWID
 40
0.05
  9
$TEXTSTYLE
  7
STANDARD
  9
$CLAYER
  8
0
  9
$CELTYPE
  6
BYLAYER
  9
$CECOLOR
 62
   256
  9
$DIMSCALE
 40
1.0
  9
$DIMASZ
 40
0.18
  9
$DIMEXO
 40
0.0625
  9
$DIMDLI
 40
0.38
  9
$DIMRND
 40
0.0
  9
$DIMDLE
 40
0.0
  9
$DIMEXE
 40
0.18
  9
$DIMTP
 40
0.0
  9
$DIMTM
 40
0.0
  9
$DIMTXT
 40
0.18
  9
$DIMCEN
 40
0.09
  9
$DIMTSZ
 40
0.0
  9
$DIMTOL
 70
     0
  9
$DIMLIM
 70
     0
  9
$DIMTIH
 70
     1
  9
$DIMTOH
 70
     1
  9
$DIMSE1
 70
     0
  9
$DIMSE2
 70
     0
  9
$DIMTAD
 70
     0
  9
$DIMZIN
 70
     0
  9
$DIMBLK
  1

  9
$DIMASO
 70
     1
  9
$DIMSHO
 70
     0
  9
$DIMPOST
  1

  9
$DIMAPOST
  1

  9
$DIMALT
 70
     0
  9
$DIMALTD
 70
     2
  9
$DIMALTF
 40
25.4
  9
$DIMLFAC
 40
1.0
  9
$LUNITS
 70
     2
  9
$LUPREC
 70
     4
  9
$AXISMODE
 70
     0
  9
$AXISUNIT
 10
0.0
 20
0.0
  9
$SKETCHINC
 40
0.1
  9
$FILLETRAD
 40
0.0
  9
$AUNITS
 70
     0
  9
$AUPREC
 70
     0
  9
$MENU
  1
acad
  9
$ELEVATION
 40
0.0
  9
$THICKNESS
 40
0.0
  9
$VIEWDIR
 10
0.0
 20
0.0
 30
1.0
  9
$LIMCHECK
 70
     0
  9
$BLIPMODE
 70
     1
  9
$CHAMFERA
 40
0.0
  9
$CHAMFERB
 40
0.0
  9
$FASTZOOM
 70
     1
  9
$SKPOLY
 70
     0
  9
$TDCREATE
 40
2447222.5666886573
  9
$TDUPDATE
 40
2447222.5666886573
  9
$TDINDWG
 40
0.0000000000
  9
$TDUSRTIMER
 40
0.0000000000
  9
$USRTIMER
 70
     1
  9
$ANGBASE
 50
0.0
  9
$ANGDIR
 70
     0
  9
$PDMODE
 70
     0
  9
$PDSIZE
 40
0.0
  9
$PLINEWID
 40
0.0
  9
$COORDS
 70
     0
  9
$SPLFRAME
 70
     0
  9
$SPLINESEGS
 70
     8
  9
$ATTDIA
 70
     0
  9
$ATTREQ
 70
     1
  9
$USERI1
 70
     0
  9
$USERI2
 70
     0
  9
$USERI3
 70
     0
  9
$USERI4
 70
     0
  9
$USERI5
 70
     0
  9
$USERR1
 40
0.0
  9
$USERR2
 40
0.0
  9
$USERR3
 40
0.0
  9
$USERR4
 40
0.0
  9
$USERR5
 40
0.0
  0
ENDSEC
  0
SECTION
  2
TABLES
  0
TABLE
  2
LTYPE
 70
     13
  0
LTYPE
  2
CONTINUOUS
 70
    64
  3
Solid line
 72
    65
 73
     0
 40
0.0
  0
LTYPE
  2
DASHED
 70
    64
  3
__ __ __ __ __ __ __ __ __ __ __ __ __ __ __
 72
    65
 73
     2
 40
0.75
 49
0.5
 49
-0.25
  0
LTYPE
  2
HIDDEN
 70
    64
  3
_ _ _ _ _ _ _ _ _ _ _ _ _ _ _ _ _ _ _ _ _ _ _
 72
    65
 73
     2
 40
0.375
 49
0.25
 49
-0.125
  0
LTYPE
  2
CENTER
 70
    64
  3
____ _ ____ _ ____ _ ____ _ ____ _ ____ _ ____
 72
    65
 73
     4
 40
2.0
 49
1.25
 49
-0.25
 49
0.25
 49
-0.25
  0
LTYPE
  2
PHANTOM
 70
    64
  3
_____ _ _ _____ _ _ _____ _ _ _____ _ _ ____
 72
    65
 73
     6
 40
2.5
 49
1.25
 49
-0.25
 49
0.25
 49
-0.25
 49
0.25
 49
-0.25
  0
LTYPE
  2
DOT
 70
    64
  3
...............................................
 72
    65
 73
     2
 40
0.25
 49
0.0
 49
-0.25
  0
LTYPE
  2
DASHDOT
 70
    64
  3
__ . __ . __ . __ . __ . __ . __ . __ . __ . __
 72
    65
 73
     4
 40
1.0
 49
0.5
 49
-0.25
 49
0.0
 49
-0.25
  0
LTYPE
  2
BORDER
 70
    64
  3
__ __ . __ __ . __ __ . __ __ . __ __ . __ __
 72
    65
 73
     6
 40
1.75
 49
0.5
 49
-0.25
 49
0.5
 49
-0.25
 49
0.0
 49
-0.25
  0
LTYPE
  2
DIVIDE
 70
    64
  3
__ . . __ . . __ . . __ . . __ . . __ . . __
 72
    65
 73
     6
 40
1.25
 49
0.5
 49
-0.25
 49
0.0
 49
-0.25
 49
0.0
 49
-0.25
  0
LTYPE
  2
DCTYPE1
 70
    64
  3
__ . . __ . . __ . . __ . . __ . . __ . . __
 72
    65
 73
     8
 40
2.5
 49
0.5
 49
-0.25
 49
0.125
 49
-0.25
 49
0.25
 49
-0.25
 49
0.125
 49
-0.25
  0
LTYPE
  2
DCTYPE2
 70
    64
  3
__ . . __ . . __ . . __ . . __ . . __ . . __
 72
    65
 73
     6
 40
2.05
 49
1.0
 49
-0.3
 49
0.15
 49
-0.15
 49
0.15
 49
-0.3
  0
LTYPE
  2
DCTYPE3
 70
    64
  3
__ . . __ . . __ . . __ . . __ . . __ . . __
 72
    65
 73
     6
 40
2.5
 49
0.8
 49
-0.2
 49
0.8
 49
-0.2
 49
0.3
 49
-0.2
  0
LTYPE
  2
DCTYPE4
 70
    64
  3
__ . . __ . . __ . . __ . . __ . . __ . . __
 72
    65
 73
     10
 40
3.97
 49
1.75
 49
-0.3
 49
0.3
 49
-0.3
 49
0.06
 49
-0.3
 49
0.06
 49
-0.3
 49
0.3
 49
-0.3
  0
ENDTAB
  0
TABLE
  2
LAYER
 70
    153
  0
LAYER
  2
LAYER1
 70
 64
 62
     7
  6
CONTINUOUS
  0
LAYER
  2
LAYER12
 70
 64
 62
     5
  6
CONTINUOUS
  0
ENDTAB
  0
ENDSEC
  0
SECTION
  2
BLOCKS
  0
ENDSEC
  0
SECTION
  2
ENTITIES
  0
CIRCLE
  8
LAYER1
 62
     7
  6
CONTINUOUS
 10
7.1502
 20
0.6215
 40
0.0162
  0
CIRCLE
  8
LAYER1
 62
     7
  6
CONTINUOUS
 10
7.2344
 20
0.6983
 40
0.0128
  0
CIRCLE
  8
LAYER1
 62
     7
  6
CONTINUOUS
 10
7.1833
 20
0.7443
 40
0.0164
  0
CIRCLE
  8
LAYER1
 62
     7
  6
CONTINUOUS
 10
7.0856
 20
1.2579
 40
0.0231
  0
CIRCLE
  8
LAYER1
 62
     7
  6
CONTINUOUS
 10
7.3057
 20
1.0307
 40
0.0200
  0
CIRCLE
  8
LAYER1
 62
     7
  6
CONTINUOUS
 10
7.4642
 20
0.9491
 40
0.0206
  0
CIRCLE
  8
LAYER1
 62
     7
  6
CONTINUOUS
 10
7.6304
 20
0.9364
 40
0.0164
  0
CIRCLE
  8
LAYER1
 62
     7
  6
CONTINUOUS
 10
7.7021
 20
0.7959
 40
0.0205
  0
CIRCLE
  8
LAYER1
 62
     7
  6
CONTINUOUS
 10
7.8886
 20
0.9188
 40
0.0218
  0
CIRCLE
  8
LAYER1
 62
     7
  6
CONTINUOUS
 10
7.9424
 20
0.7732
 40
0.0128
  0
CIRCLE
  8
LAYER1
 62
     7
  6
CONTINUOUS
 10
7.9451
 20
0.6888
 40
0.0155
  0
CIRCLE
  8
LAYER1
 62
     7
  6
CONTINUOUS
 10
7.8832
 20
1.1386
 40
0.0155
  0
CIRCLE
  8
LAYER1
 62
     7
  6
CONTINUOUS
 10
7.8295
 20
1.1769
 40
0.0138
  0
CIRCLE
  8
LAYER1
 62
     7
  6
CONTINUOUS
 10
7.7861
 20
1.1411
 40
0.0130
  0
CIRCLE
  8
LAYER1
 62
     7
  6
CONTINUOUS
 10
7.4433
 20
1.4654
 40
0.0128
  0
CIRCLE
  8
LAYER1
 62
     7
  6
CONTINUOUS
 10
7.5251
 20
1.4629
 40
0.0181
  0
CIRCLE
  8
LAYER1
 62
     7
  6
CONTINUOUS
 10
7.5864
 20
1.4783
 40
0.0130
  0
CIRCLE
  8
LAYER1
 62
     7
  6
CONTINUOUS
 10
7.9212
 20
1.5093
 40
0.0186
  0
POLYLINE
  8
LAYER1
 62
     7
 66
     1
  6
CONTINUOUS
  0
VERTEX
  8
LAYER1
 62
     7
  6
CONTINUOUS
 10
7.0501
 20
0.5426
  0
VERTEX
  8
LAYER1
 62
     7
  6
CONTINUOUS
 10
7.0501
 20
0.5426
  0
VERTEX
  8
LAYER1
 62
     7
  6
CONTINUOUS
 10
7.0501
 20
0.5426
  0
VERTEX
  8
LAYER1
 62
     7
  6
CONTINUOUS
 10
7.0501
 20
0.5426
  0
VERTEX
  8
LAYER1
 62
     7
  6
CONTINUOUS
 10
7.0501
 20
0.5426
  0
VERTEX
  8
LAYER1
 62
     7
  6
CONTINUOUS
 10
7.0501
 20
0.5426
  0
VERTEX
  8
LAYER1
 62
     7
  6
CONTINUOUS
 10
7.0501
 20
0.5426
  0
VERTEX
  8
LAYER1
 62
     7
  6
CONTINUOUS
 10
7.0501
 20
0.5426
  0
VERTEX
  8
LAYER1
 62
     7
  6
CONTINUOUS
 10
7.0501
 20
0.5426
  0
VERTEX
  8
LAYER1
 62
     7
  6
CONTINUOUS
 10
7.0501
 20
0.5426
  0
VERTEX
  8
LAYER1
 62
     7
  6
CONTINUOUS
 10
7.0501
 20
0.5426
  0
VERTEX
  8
LAYER1
 62
     7
  6
CONTINUOUS
 10
7.0501
 20
0.5426
  0
VERTEX
  8
LAYER1
 62
     7
  6
CONTINUOUS
 10
7.0501
 20
0.5426
  0
VERTEX
  8
LAYER1
 62
     7
  6
CONTINUOUS
 10
7.0501
 20
0.5426
  0
VERTEX
  8
LAYER1
 62
     7
  6
CONTINUOUS
 10
7.0501
 20
0.5426
  0
VERTEX
  8
LAYER1
 62
     7
  6
CONTINUOUS
 10
7.0501
 20
0.5426
  0
VERTEX
  8
LAYER1
 62
     7
  6
CONTINUOUS
 10
7.0501
 20
0.5426
  0
VERTEX
  8
LAYER1
 62
     7
  6
CONTINUOUS
 10
7.0501
 20
0.5426
  0
VERTEX
  8
LAYER1
 62
     7
  6
CONTINUOUS
 10
7.0501
 20
0.5426
  0
VERTEX
  8
LAYER1
 62
     7
  6
CONTINUOUS
 10
7.0501
 20
0.5426
  0
VERTEX
  8
LAYER1
 62
     7
  6
CONTINUOUS
 10
7.0501
 20
0.5426
  0
VERTEX
  8
LAYER1
 62
     7
  6
CONTINUOUS
 10
7.0501
 20
0.5426
  0
VERTEX
  8
LAYER1
 62
     7
  6
CONTINUOUS
 10
7.0501
 20
0.5426
  0
VERTEX
  8
LAYER1
 62
     7
  6
CONTINUOUS
 10
7.0501
 20
0.5426
  0
VERTEX
  8
LAYER1
 62
     7
  6
CONTINUOUS
 10
7.0501
 20
0.5426
  0
SEQEND
  8
LAYER1
  0
POLYLINE
  8
LAYER1
 62
     7
 66
     1
  6
CONTINUOUS
  0
VERTEX
  8
LAYER1
 62
     7
  6
CONTINUOUS
 10
7.0730
 20
0.5426
  0
VERTEX
  8
LAYER1
 62
     7
  6
CONTINUOUS
 10
7.0730
 20
0.5426
  0
VERTEX
  8
LAYER1
 62
     7
  6
CONTINUOUS
 10
7.0730
 20
0.5426
  0
VERTEX
  8
LAYER1
 62
     7
  6
CONTINUOUS
 10
7.0730
 20
0.5426
  0
VERTEX
  8
LAYER1
 62
     7
  6
CONTINUOUS
 10
7.0730
 20
0.5426
  0
VERTEX
  8
LAYER1
 62
     7
  6
CONTINUOUS
 10
7.0730
 20
0.5426
  0
VERTEX
  8
LAYER1
 62
     7
  6
CONTINUOUS
 10
7.0730
 20
0.5426
  0
VERTEX
  8
LAYER1
 62
     7
  6
CONTINUOUS
 10
7.0730
 20
0.5426
  0
VERTEX
  8
LAYER1
 62
     7
  6
CONTINUOUS
 10
7.0730
 20
0.5426
  0
VERTEX
  8
LAYER1
 62
     7
  6
CONTINUOUS
 10
7.0730
 20
0.5426
  0
VERTEX
  8
LAYER1
 62
     7
  6
CONTINUOUS
 10
7.0730
 20
0.5426
  0
VERTEX
  8
LAYER1
 62
     7
  6
CONTINUOUS
 10
7.0730
 20
0.5426
  0
VERTEX
  8
LAYER1
 62
     7
  6
CONTINUOUS
 10
7.0730
 20
0.5426
  0
VERTEX
  8
LAYER1
 62
     7
  6
CONTINUOUS
 10
7.0730
 20
0.5426
  0
VERTEX
  8
LAYER1
 62
     7
  6
CONTINUOUS
 10
7.0730
 20
0.5426
  0
VERTEX
  8
LAYER1
 62
     7
  6
CONTINUOUS
 10
7.0730
 20
0.5426
  0
VERTEX
  8
LAYER1
 62
     7
  6
CONTINUOUS
 10
7.0730
 20
0.5426
  0
VERTEX
  8
LAYER1
 62
     7
  6
CONTINUOUS
 10
7.0730
 20
0.5426
  0
VERTEX
  8
LAYER1
 62
     7
  6
CONTINUOUS
 10
7.0730
 20
0.5426
  0
VERTEX
  8
LAYER1
 62
     7
  6
CONTINUOUS
 10
7.0730
 20
0.5426
  0
VERTEX
  8
LAYER1
 62
     7
  6
CONTINUOUS
 10
7.0730
 20
0.5426
  0
VERTEX
  8
LAYER1
 62
     7
  6
CONTINUOUS
 10
7.0730
 20
0.5426
  0
VERTEX
  8
LAYER1
 62
     7
  6
CONTINUOUS
 10
7.0730
 20
0.5426
  0
VERTEX
  8
LAYER1
 62
     7
  6
CONTINUOUS
 10
7.0730
 20
0.5426
  0
VERTEX
  8
LAYER1
 62
     7
  6
CONTINUOUS
 10
7.0730
 20
0.5426
  0
SEQEND
  8
LAYER1
  0
ARC
  8
LAYER1
 62
     7
  6
CONTINUOUS
 10
8.0344
 20
0.8321
 40
0.0072
 50
100.5806
 51
-100.5806
  0
ARC
  8
LAYER1
 62
     7
  6
CONTINUOUS
 10
8.0393
 20
1.0417
 40
0.0153
 50
113.9556
 51
-113.9601
  0
POLYLINE
  8
LAYER1
 62
     7
 66
     1
  6
CONTINUOUS
  0
VERTEX
  8
LAYER1
 62
     7
  6
CONTINUOUS
 10
7.0493
 20
0.5587
  0
VERTEX
  8
LAYER1
 62
     7
  6
CONTINUOUS
 10
7.0493
 20
0.5587
  0
VERTEX
  8
LAYER1
 62
     7
  6
CONTINUOUS
 10
7.0493
 20
0.5587
  0
VERTEX
  8
LAYER1
 62
     7
  6
CONTINUOUS
 10
7.0493
 20
0.5587
  0
VERTEX
  8
LAYER1
 62
     7
  6
CONTINUOUS
 10
7.0493
 20
0.5587
  0
VERTEX
  8
LAYER1
 62
     7
  6
CONTINUOUS
 10
7.0493
 20
0.5587
  0
VERTEX
  8
LAYER1
 62
     7
  6
CONTINUOUS
 10
7.0493
 20
0.5587
  0
VERTEX
  8
LAYER1
 62
     7
  6
CONTINUOUS
 10
7.0493
 20
0.5587
  0
VERTEX
  8
LAYER1
 62
     7
  6
CONTINUOUS
 10
7.0493
 20
0.5587
  0
VERTEX
  8
LAYER1
 62
     7
  6
CONTINUOUS
 10
7.0493
 20
0.5587
  0
VERTEX
  8
LAYER1
 62
     7
  6
CONTINUOUS
 10
7.0493
 20
0.5587
  0
VERTEX
  8
LAYER1
 62
     7
  6
CONTINUOUS
 10
7.0493
 20
0.5587
  0
VERTEX
  8
LAYER1
 62
     7
  6
CONTINUOUS
 10
7.0493
 20
0.5587
  0
VERTEX
  8
LAYER1
 62
     7
  6
CONTINUOUS
 10
7.0493
 20
0.5587
  0
VERTEX
  8
LAYER1
 62
     7
  6
CONTINUOUS
 10
7.0493
 20
0.5587
  0
VERTEX
  8
LAYER1
 62
     7
  6
CONTINUOUS
 10
7.0493
 20
0.5587
  0
VERTEX
  8
LAYER1
 62
     7
  6
CONTINUOUS
 10
7.0493
 20
0.5587
  0
VERTEX
  8
LAYER1
 62
     7
  6
CONTINUOUS
 10
7.0493
 20
0.5587
  0
VERTEX
  8
LAYER1
 62
     7
  6
CONTINUOUS
 10
7.0493
 20
0.5587
  0
VERTEX
  8
LAYER1
 62
     7
  6
CONTINUOUS
 10
7.0493
 20
0.5587
  0
VERTEX
  8
LAYER1
 62
     7
  6
CONTINUOUS
 10
7.0493
 20
0.5587
  0
VERTEX
  8
LAYER1
 62
     7
  6
CONTINUOUS
 10
7.0493
 20
0.5587
  0
VERTEX
  8
LAYER1
 62
     7
  6
CONTINUOUS
 10
7.0493
 20
0.5587
  0
VERTEX
  8
LAYER1
 62
     7
  6
CONTINUOUS
 10
7.0493
 20
0.5587
  0
VERTEX
  8
LAYER1
 62
     7
  6
CONTINUOUS
 10
7.0493
 20
0.5587
  0
SEQEND
  8
LAYER1
  0
POLYLINE
  8
LAYER1
 62
     7
 66
     1
  6
CONTINUOUS
  0
VERTEX
  8
LAYER1
 62
     7
  6
CONTINUOUS
 10
7.0493
 20
0.5587
  0
VERTEX
  8
LAYER1
 62
     7
  6
CONTINUOUS
 10
7.0493
 20
0.5587
  0
VERTEX
  8
LAYER1
 62
     7
  6
CONTINUOUS
 10
7.0493
 20
0.5587
  0
VERTEX
  8
LAYER1
 62
     7
  6
CONTINUOUS
 10
7.0493
 20
0.5587
  0
VERTEX
  8
LAYER1
 62
     7
  6
CONTINUOUS
 10
7.0493
 20
0.5587
  0
VERTEX
  8
LAYER1
 62
     7
  6
CONTINUOUS
 10
7.0493
 20
0.5587
  0
VERTEX
  8
LAYER1
 62
     7
  6
CONTINUOUS
 10
7.0493
 20
0.5587
  0
VERTEX
  8
LAYER1
 62
     7
  6
CONTINUOUS
 10
7.0493
 20
0.5587
  0
VERTEX
  8
LAYER1
 62
     7
  6
CONTINUOUS
 10
7.0493
 20
0.5587
  0
VERTEX
  8
LAYER1
 62
     7
  6
CONTINUOUS
 10
7.0493
 20
0.5587
  0
VERTEX
  8
LAYER1
 62
     7
  6
CONTINUOUS
 10
7.0493
 20
0.5587
  0
VERTEX
  8
LAYER1
 62
     7
  6
CONTINUOUS
 10
7.0493
 20
0.5587
  0
VERTEX
  8
LAYER1
 62
     7
  6
CONTINUOUS
 10
7.0493
 20
0.5587
  0
VERTEX
  8
LAYER1
 62
     7
  6
CONTINUOUS
 10
7.0493
 20
0.5587
  0
VERTEX
  8
LAYER1
 62
     7
  6
CONTINUOUS
 10
7.0493
 20
0.5587
  0
VERTEX
  8
LAYER1
 62
     7
  6
CONTINUOUS
 10
7.0493
 20
0.5587
  0
VERTEX
  8
LAYER1
 62
     7
  6
CONTINUOUS
 10
7.0493
 20
0.5587
  0
VERTEX
  8
LAYER1
 62
     7
  6
CONTINUOUS
 10
7.0493
 20
0.5587
  0
VERTEX
  8
LAYER1
 62
     7
  6
CONTINUOUS
 10
7.0493
 20
0.5587
  0
VERTEX
  8
LAYER1
 62
     7
  6
CONTINUOUS
 10
7.0493
 20
0.5587
  0
VERTEX
  8
LAYER1
 62
     7
  6
CONTINUOUS
 10
7.0493
 20
0.5587
  0
VERTEX
  8
LAYER1
 62
     7
  6
CONTINUOUS
 10
7.0493
 20
0.5587
  0
VERTEX
  8
LAYER1
 62
     7
  6
CONTINUOUS
 10
7.0493
 20
0.5587
  0
VERTEX
  8
LAYER1
 62
     7
  6
CONTINUOUS
 10
7.0493
 20
0.5587
  0
VERTEX
  8
LAYER1
 62
     7
  6
CONTINUOUS
 10
7.0493
 20
0.5587
  0
SEQEND
  8
LAYER1
  0
POLYLINE
  8
LAYER1
 62
     7
 66
     1
  6
CONTINUOUS
  0
VERTEX
  8
LAYER1
 62
     7
  6
CONTINUOUS
 10
7.0493
 20
0.5587
  0
VERTEX
  8
LAYER1
 62
     7
  6
CONTINUOUS
 10
7.0497
 20
0.5586
  0
VERTEX
  8
LAYER1
 62
     7
  6
CONTINUOUS
 10
7.0501
 20
0.5585
  0
VERTEX
  8
LAYER1
 62
     7
  6
CONTINUOUS
 10
7.0505
 20
0.5584
  0
VERTEX
  8
LAYER1
 62
     7
  6
CONTINUOUS
 10
7.0509
 20
0.5583
  0
VERTEX
  8
LAYER1
 62
     7
  6
CONTINUOUS
 10
7.0512
 20
0.5582
  0
VERTEX
  8
LAYER1
 62
     7
  6
CONTINUOUS
 10
7.0516
 20
0.5582
  0
VERTEX
  8
LAYER1
 62
     7
  6
CONTINUOUS
 10
7.0519
 20
0.5581
  0
VERTEX
  8
LAYER1
 62
     7
  6
CONTINUOUS
 10
7.0522
 20
0.5580
  0
VERTEX
  8
LAYER1
 62
     7
  6
CONTINUOUS
 10
7.0525
 20
0.5580
  0
VERTEX
  8
LAYER1
 62
     7
  6
CONTINUOUS
 10
7.0527
 20
0.5579
  0
VERTEX
  8
LAYER1
 62
     7
  6
CONTINUOUS
 10
7.0529
 20
0.5578
  0
VERTEX
  8
LAYER1
 62
     7
  6
CONTINUOUS
 10
7.0531
 20
0.5578
  0
VERTEX
  8
LAYER1
 62
     7
  6
CONTINUOUS
 10
7.0533
 20
0.5578
  0
VERTEX
  8
LAYER1
 62
     7
  6
CONTINUOUS
 10
7.0534
 20
0.5577
  0
VERTEX
  8
LAYER1
 62
     7
  6
CONTINUOUS
 10
7.0535
 20
0.5577
  0
VERTEX
  8
LAYER1
 62
     7
  6
CONTINUOUS
 10
7.0536
 20
0.5577
  0
VERTEX
  8
LAYER1
 62
     7
  6
CONTINUOUS
 10
7.0536
 20
0.5577
  0
VERTEX
  8
LAYER1
 62
     7
  6
CONTINUOUS
 10
7.0536
 20
0.5577
  0
VERTEX
  8
LAYER1
 62
     7
  6
CONTINUOUS
 10
7.0535
 20
0.5577
  0
VERTEX
  8
LAYER1
 62
     7
  6
CONTINUOUS
 10
7.0535
 20
0.5577
  0
VERTEX
  8
LAYER1
 62
     7
  6
CONTINUOUS
 10
7.0534
 20
0.5577
  0
VERTEX
  8
LAYER1
 62
     7
  6
CONTINUOUS
 10
7.0533
 20
0.5578
  0
VERTEX
  8
LAYER1
 62
     7
  6
CONTINUOUS
 10
7.0532
 20
0.5578
  0
VERTEX
  8
LAYER1
 62
     7
  6
CONTINUOUS
 10
7.0531
 20
0.5578
  0
SEQEND
  8
LAYER1
  0
POLYLINE
  8
LAYER1
 62
     7
 66
     1
  6
CONTINUOUS
  0
VERTEX
  8
LAYER1
 62
     7
  6
CONTINUOUS
 10
7.0501
 20
0.5426
  0
VERTEX
  8
LAYER1
 62
     7
  6
CONTINUOUS
 10
7.0501
 20
0.5426
  0
VERTEX
  8
LAYER1
 62
     7
  6
CONTINUOUS
 10
7.0501
 20
0.5426
  0
VERTEX
  8
LAYER1
 62
     7
  6
CONTINUOUS
 10
7.0501
 20
0.5426
  0
VERTEX
  8
LAYER1
 62
     7
  6
CONTINUOUS
 10
7.0501
 20
0.5426
  0
VERTEX
  8
LAYER1
 62
     7
  6
CONTINUOUS
 10
7.0501
 20
0.5426
  0
VERTEX
  8
LAYER1
 62
     7
  6
CONTINUOUS
 10
7.0501
 20
0.5426
  0
VERTEX
  8
LAYER1
 62
     7
  6
CONTINUOUS
 10
7.0501
 20
0.5426
  0
VERTEX
  8
LAYER1
 62
     7
  6
CONTINUOUS
 10
7.0501
 20
0.5426
  0
VERTEX
  8
LAYER1
 62
     7
  6
CONTINUOUS
 10
7.0501
 20
0.5426
  0
VERTEX
  8
LAYER1
 62
     7
  6
CONTINUOUS
 10
7.0501
 20
0.5426
  0
VERTEX
  8
LAYER1
 62
     7
  6
CONTINUOUS
 10
7.0501
 20
0.5426
  0
VERTEX
  8
LAYER1
 62
     7
  6
CONTINUOUS
 10
7.0501
 20
0.5426
  0
VERTEX
  8
LAYER1
 62
     7
  6
CONTINUOUS
 10
7.0501
 20
0.5426
  0
VERTEX
  8
LAYER1
 62
     7
  6
CONTINUOUS
 10
7.0501
 20
0.5426
  0
VERTEX
  8
LAYER1
 62
     7
  6
CONTINUOUS
 10
7.0501
 20
0.5426
  0
VERTEX
  8
LAYER1
 62
     7
  6
CONTINUOUS
 10
7.0501
 20
0.5426
  0
VERTEX
  8
LAYER1
 62
     7
  6
CONTINUOUS
 10
7.0501
 20
0.5426
  0
VERTEX
  8
LAYER1
 62
     7
  6
CONTINUOUS
 10
7.0501
 20
0.5426
  0
VERTEX
  8
LAYER1
 62
     7
  6
CONTINUOUS
 10
7.0501
 20
0.5426
  0
VERTEX
  8
LAYER1
 62
     7
  6
CONTINUOUS
 10
7.0501
 20
0.5426
  0
VERTEX
  8
LAYER1
 62
     7
  6
CONTINUOUS
 10
7.0501
 20
0.5426
  0
VERTEX
  8
LAYER1
 62
     7
  6
CONTINUOUS
 10
7.0501
 20
0.5426
  0
VERTEX
  8
LAYER1
 62
     7
  6
CONTINUOUS
 10
7.0501
 20
0.5426
  0
VERTEX
  8
LAYER1
 62
     7
  6
CONTINUOUS
 10
7.0501
 20
0.5426
  0
SEQEND
  8
LAYER1
  0
POLYLINE
  8
LAYER1
 62
     7
 66
     1
  6
CONTINUOUS
  0
VERTEX
  8
LAYER1
 62
     7
  6
CONTINUOUS
 10
7.0531
 20
0.5578
  0
VERTEX
  8
LAYER1
 62
     7
  6
CONTINUOUS
 10
7.0546
 20
0.5573
  0
VERTEX
  8
LAYER1
 62
     7
  6
CONTINUOUS
 10
7.0560
 20
0.5569
  0
VERTEX
  8
LAYER1
 62
     7
  6
CONTINUOUS
 10
7.0574
 20
0.5564
  0
VERTEX
  8
LAYER1
 62
     7
  6
CONTINUOUS
 10
7.0589
 20
0.5558
  0
VERTEX
  8
LAYER1
 62
     7
  6
CONTINUOUS
 10
7.0602
 20
0.5553
  0
VERTEX
  8
LAYER1
 62
     7
  6
CONTINUOUS
 10
7.0616
 20
0.5547
  0
VERTEX
  8
LAYER1
 62
     7
  6
CONTINUOUS
 10
7.0629
 20
0.5541
  0
VERTEX
  8
LAYER1
 62
     7
  6
CONTINUOUS
 10
7.0641
 20
0.5534
  0
VERTEX
  8
LAYER1
 62
     7
  6
CONTINUOUS
 10
7.0653
 20
0.5526
  0
VERTEX
  8
LAYER1
 62
     7
  6
CONTINUOUS
 10
7.0664
 20
0.5518
  0
VERTEX
  8
LAYER1
 62
     7
  6
CONTINUOUS
 10
7.0675
 20
0.5509
  0
VERTEX
  8
LAYER1
 62
     7
  6
CONTINUOUS
 10
7.0685
 20
0.5499
  0
VERTEX
  8
LAYER1
 62
     7
  6
CONTINUOUS
 10
7.0689
 20
0.5494
  0
VERTEX
  8
LAYER1
 62
     7
  6
CONTINUOUS
 10
7.0693
 20
0.5488
  0
VERTEX
  8
LAYER1
 62
     7
  6
CONTINUOUS
 10
7.0698
 20
0.5483
  0
VERTEX
  8
LAYER1
 62
     7
  6
CONTINUOUS
 10
7.0702
 20
0.5477
  0
VERTEX
  8
LAYER1
 62
     7
  6
CONTINUOUS
 10
7.0706
 20
0.5471
  0
VERTEX
  8
LAYER1
 62
     7
  6
CONTINUOUS
 10
7.0709
 20
0.5465
  0
VERTEX
  8
LAYER1
 62
     7
  6
CONTINUOUS
 10
7.0713
 20
0.5458
  0
VERTEX
  8
LAYER1
 62
     7
  6
CONTINUOUS
 10
7.0717
 20
0.5452
  0
VERTEX
  8
LAYER1
 62
     7
  6
CONTINUOUS
 10
7.0720
 20
0.5446
  0
VERTEX
  8
LAYER1
 62
     7
  6
CONTINUOUS
 10
7.0723
 20
0.5439
  0
VERTEX
  8
LAYER1
 62
     7
  6
CONTINUOUS
 10
7.0727
 20
0.5433
  0
VERTEX
  8
LAYER1
 62
     7
  6
CONTINUOUS
 10
7.0730
 20
0.5426
  0
SEQEND
  8
LAYER1
  0
POLYLINE
  8
LAYER1
 62
     7
 66
     1
  6
CONTINUOUS
  0
VERTEX
  8
LAYER1
 62
     7
  6
CONTINUOUS
 10
7.0730
 20
0.5426
  0
VERTEX
  8
LAYER1
 62
     7
  6
CONTINUOUS
 10
7.0730
 20
0.5426
  0
VERTEX
  8
LAYER1
 62
     7
  6
CONTINUOUS
 10
7.0730
 20
0.5426
  0
VERTEX
  8
LAYER1
 62
     7
  6
CONTINUOUS
 10
7.0730
 20
0.5426
  0
VERTEX
  8
LAYER1
 62
     7
  6
CONTINUOUS
 10
7.0730
 20
0.5426
  0
VERTEX
  8
LAYER1
 62
     7
  6
CONTINUOUS
 10
7.0730
 20
0.5426
  0
VERTEX
  8
LAYER1
 62
     7
  6
CONTINUOUS
 10
7.0730
 20
0.5426
  0
VERTEX
  8
LAYER1
 62
     7
  6
CONTINUOUS
 10
7.0730
 20
0.5426
  0
VERTEX
  8
LAYER1
 62
     7
  6
CONTINUOUS
 10
7.0730
 20
0.5426
  0
VERTEX
  8
LAYER1
 62
     7
  6
CONTINUOUS
 10
7.0730
 20
0.5426
  0
VERTEX
  8
LAYER1
 62
     7
  6
CONTINUOUS
 10
7.0730
 20
0.5426
  0
VERTEX
  8
LAYER1
 62
     7
  6
CONTINUOUS
 10
7.0730
 20
0.5426
  0
VERTEX
  8
LAYER1
 62
     7
  6
CONTINUOUS
 10
7.0730
 20
0.5426
  0
VERTEX
  8
LAYER1
 62
     7
  6
CONTINUOUS
 10
7.0727
 20
0.5426
  0
VERTEX
  8
LAYER1
 62
     7
  6
CONTINUOUS
 10
7.0724
 20
0.5426
  0
VERTEX
  8
LAYER1
 62
     7
  6
CONTINUOUS
 10
7.0723
 20
0.5426
  0
VERTEX
  8
LAYER1
 62
     7
  6
CONTINUOUS
 10
7.0722
 20
0.5426
  0
VERTEX
  8
LAYER1
 62
     7
  6
CONTINUOUS
 10
7.0722
 20
0.5426
  0
VERTEX
  8
LAYER1
 62
     7
  6
CONTINUOUS
 10
7.0722
 20
0.5426
  0
VERTEX
  8
LAYER1
 62
     7
  6
CONTINUOUS
 10
7.0722
 20
0.5426
  0
VERTEX
  8
LAYER1
 62
     7
  6
CONTINUOUS
 10
7.0724
 20
0.5426
  0
VERTEX
  8
LAYER1
 62
     7
  6
CONTINUOUS
 10
7.0725
 20
0.5426
  0
VERTEX
  8
LAYER1
 62
     7
  6
CONTINUOUS
 10
7.0727
 20
0.5426
  0
VERTEX
  8
LAYER1
 62
     7
  6
CONTINUOUS
 10
7.0728
 20
0.5426
  0
VERTEX
  8
LAYER1
 62
     7
  6
CONTINUOUS
 10
7.0730
 20
0.5426
  0
SEQEND
  8
LAYER1
  0
POLYLINE
  8
LAYER1
 62
     7
 66
     1
  6
CONTINUOUS
  0
VERTEX
  8
LAYER1
 62
     7
  6
CONTINUOUS
 10
7.0730
 20
0.5426
  0
VERTEX
  8
LAYER1
 62
     7
  6
CONTINUOUS
 10
7.0730
 20
0.5426
  0
VERTEX
  8
LAYER1
 62
     7
  6
CONTINUOUS
 10
7.0730
 20
0.5426
  0
VERTEX
  8
LAYER1
 62
     7
  6
CONTINUOUS
 10
7.0730
 20
0.5426
  0
VERTEX
  8
LAYER1
 62
     7
  6
CONTINUOUS
 10
7.0730
 20
0.5426
  0
VERTEX
  8
LAYER1
 62
     7
  6
CONTINUOUS
 10
7.0730
 20
0.5426
  0
VERTEX
  8
LAYER1
 62
     7
  6
CONTINUOUS
 10
7.0730
 20
0.5426
  0
VERTEX
  8
LAYER1
 62
     7
  6
CONTINUOUS
 10
7.0730
 20
0.5426
  0
VERTEX
  8
LAYER1
 62
     7
  6
CONTINUOUS
 10
7.0730
 20
0.5426
  0
VERTEX
  8
LAYER1
 62
     7
  6
CONTINUOUS
 10
7.0730
 20
0.5426
  0
VERTEX
  8
LAYER1
 62
     7
  6
CONTINUOUS
 10
7.0730
 20
0.5426
  0
VERTEX
  8
LAYER1
 62
     7
  6
CONTINUOUS
 10
7.0730
 20
0.5426
  0
VERTEX
  8
LAYER1
 62
     7
  6
CONTINUOUS
 10
7.0730
 20
0.5426
  0
VERTEX
  8
LAYER1
 62
     7
  6
CONTINUOUS
 10
7.0730
 20
0.5426
  0
VERTEX
  8
LAYER1
 62
     7
  6
CONTINUOUS
 10
7.0730
 20
0.5426
  0
VERTEX
  8
LAYER1
 62
     7
  6
CONTINUOUS
 10
7.0730
 20
0.5426
  0
VERTEX
  8
LAYER1
 62
     7
  6
CONTINUOUS
 10
7.0730
 20
0.5426
  0
VERTEX
  8
LAYER1
 62
     7
  6
CONTINUOUS
 10
7.0730
 20
0.5426
  0
VERTEX
  8
LAYER1
 62
     7
  6
CONTINUOUS
 10
7.0730
 20
0.5426
  0
VERTEX
  8
LAYER1
 62
     7
  6
CONTINUOUS
 10
7.0730
 20
0.5426
  0
VERTEX
  8
LAYER1
 62
     7
  6
CONTINUOUS
 10
7.0730
 20
0.5426
  0
VERTEX
  8
LAYER1
 62
     7
  6
CONTINUOUS
 10
7.0730
 20
0.5426
  0
VERTEX
  8
LAYER1
 62
     7
  6
CONTINUOUS
 10
7.0730
 20
0.5426
  0
VERTEX
  8
LAYER1
 62
     7
  6
CONTINUOUS
 10
7.0730
 20
0.5426
  0
VERTEX
  8
LAYER1
 62
     7
  6
CONTINUOUS
 10
7.0730
 20
0.5426
  0
SEQEND
  8
LAYER1
  0
POLYLINE
  8
LAYER1
 62
     7
 66
     1
  6
CONTINUOUS
  0
VERTEX
  8
LAYER1
 62
     7
  6
CONTINUOUS
 10
7.0730
 20
0.5426
  0
VERTEX
  8
LAYER1
 62
     7
  6
CONTINUOUS
 10
7.0730
 20
0.5426
  0
VERTEX
  8
LAYER1
 62
     7
  6
CONTINUOUS
 10
7.0730
 20
0.5426
  0
VERTEX
  8
LAYER1
 62
     7
  6
CONTINUOUS
 10
7.0730
 20
0.5426
  0
VERTEX
  8
LAYER1
 62
     7
  6
CONTINUOUS
 10
7.0730
 20
0.5426
  0
VERTEX
  8
LAYER1
 62
     7
  6
CONTINUOUS
 10
7.0730
 20
0.5426
  0
VERTEX
  8
LAYER1
 62
     7
  6
CONTINUOUS
 10
7.0730
 20
0.5426
  0
VERTEX
  8
LAYER1
 62
     7
  6
CONTINUOUS
 10
7.0730
 20
0.5426
  0
VERTEX
  8
LAYER1
 62
     7
  6
CONTINUOUS
 10
7.0730
 20
0.5426
  0
VERTEX
  8
LAYER1
 62
     7
  6
CONTINUOUS
 10
7.0730
 20
0.5426
  0
VERTEX
  8
LAYER1
 62
     7
  6
CONTINUOUS
 10
7.0730
 20
0.5426
  0
VERTEX
  8
LAYER1
 62
     7
  6
CONTINUOUS
 10
7.0730
 20
0.5426
  0
VERTEX
  8
LAYER1
 62
     7
  6
CONTINUOUS
 10
7.0730
 20
0.5426
  0
VERTEX
  8
LAYER1
 62
     7
  6
CONTINUOUS
 10
7.0730
 20
0.5426
  0
VERTEX
  8
LAYER1
 62
     7
  6
CONTINUOUS
 10
7.0730
 20
0.5426
  0
VERTEX
  8
LAYER1
 62
     7
  6
CONTINUOUS
 10
7.0730
 20
0.5426
  0
VERTEX
  8
LAYER1
 62
     7
  6
CONTINUOUS
 10
7.0730
 20
0.5426
  0
VERTEX
  8
LAYER1
 62
     7
  6
CONTINUOUS
 10
7.0730
 20
0.5426
  0
VERTEX
  8
LAYER1
 62
     7
  6
CONTINUOUS
 10
7.0730
 20
0.5426
  0
VERTEX
  8
LAYER1
 62
     7
  6
CONTINUOUS
 10
7.0730
 20
0.5426
  0
VERTEX
  8
LAYER1
 62
     7
  6
CONTINUOUS
 10
7.0730
 20
0.5426
  0
VERTEX
  8
LAYER1
 62
     7
  6
CONTINUOUS
 10
7.0730
 20
0.5426
  0
VERTEX
  8
LAYER1
 62
     7
  6
CONTINUOUS
 10
7.0730
 20
0.5426
  0
VERTEX
  8
LAYER1
 62
     7
  6
CONTINUOUS
 10
7.0730
 20
0.5426
  0
VERTEX
  8
LAYER1
 62
     7
  6
CONTINUOUS
 10
7.0730
 20
0.5426
  0
SEQEND
  8
LAYER1
  0
POLYLINE
  8
LAYER1
 62
     7
 66
     1
  6
CONTINUOUS
  0
VERTEX
  8
LAYER1
 62
     7
  6
CONTINUOUS
 10
7.0493
 20
0.5443
  0
VERTEX
  8
LAYER1
 62
     7
  6
CONTINUOUS
 10
7.0493
 20
0.5443
  0
VERTEX
  8
LAYER1
 62
     7
  6
CONTINUOUS
 10
7.0493
 20
0.5443
  0
VERTEX
  8
LAYER1
 62
     7
  6
CONTINUOUS
 10
7.0493
 20
0.5443
  0
VERTEX
  8
LAYER1
 62
     7
  6
CONTINUOUS
 10
7.0493
 20
0.5443
  0
VERTEX
  8
LAYER1
 62
     7
  6
CONTINUOUS
 10
7.0493
 20
0.5443
  0
VERTEX
  8
LAYER1
 62
     7
  6
CONTINUOUS
 10
7.0493
 20
0.5443
  0
VERTEX
  8
LAYER1
 62
     7
  6
CONTINUOUS
 10
7.0493
 20
0.5443
  0
VERTEX
  8
LAYER1
 62
     7
  6
CONTINUOUS
 10
7.0493
 20
0.5443
  0
VERTEX
  8
LAYER1
 62
     7
  6
CONTINUOUS
 10
7.0493
 20
0.5443
  0
VERTEX
  8
LAYER1
 62
     7
  6
CONTINUOUS
 10
7.0493
 20
0.5443
  0
VERTEX
  8
LAYER1
 62
     7
  6
CONTINUOUS
 10
7.0493
 20
0.5443
  0
VERTEX
  8
LAYER1
 62
     7
  6
CONTINUOUS
 10
7.0493
 20
0.5443
  0
VERTEX
  8
LAYER1
 62
     7
  6
CONTINUOUS
 10
7.0493
 20
0.5443
  0
VERTEX
  8
LAYER1
 62
     7
  6
CONTINUOUS
 10
7.0493
 20
0.5443
  0
VERTEX
  8
LAYER1
 62
     7
  6
CONTINUOUS
 10
7.0493
 20
0.5443
  0
VERTEX
  8
LAYER1
 62
     7
  6
CONTINUOUS
 10
7.0493
 20
0.5443
  0
VERTEX
  8
LAYER1
 62
     7
  6
CONTINUOUS
 10
7.0493
 20
0.5443
  0
VERTEX
  8
LAYER1
 62
     7
  6
CONTINUOUS
 10
7.0493
 20
0.5443
  0
VERTEX
  8
LAYER1
 62
     7
  6
CONTINUOUS
 10
7.0493
 20
0.5443
  0
VERTEX
  8
LAYER1
 62
     7
  6
CONTINUOUS
 10
7.0493
 20
0.5443
  0
VERTEX
  8
LAYER1
 62
     7
  6
CONTINUOUS
 10
7.0493
 20
0.5443
  0
VERTEX
  8
LAYER1
 62
     7
  6
CONTINUOUS
 10
7.0493
 20
0.5443
  0
VERTEX
  8
LAYER1
 62
     7
  6
CONTINUOUS
 10
7.0493
 20
0.5443
  0
VERTEX
  8
LAYER1
 62
     7
  6
CONTINUOUS
 10
7.0493
 20
0.5443
  0
SEQEND
  8
LAYER1
  0
POLYLINE
  8
LAYER1
 62
     7
 66
     1
  6
CONTINUOUS
  0
VERTEX
  8
LAYER1
 62
     7
  6
CONTINUOUS
 10
7.0493
 20
0.5443
  0
VERTEX
  8
LAYER1
 62
     7
  6
CONTINUOUS
 10
7.0493
 20
0.5443
  0
VERTEX
  8
LAYER1
 62
     7
  6
CONTINUOUS
 10
7.0493
 20
0.5443
  0
VERTEX
  8
LAYER1
 62
     7
  6
CONTINUOUS
 10
7.0493
 20
0.5443
  0
VERTEX
  8
LAYER1
 62
     7
  6
CONTINUOUS
 10
7.0493
 20
0.5443
  0
VERTEX
  8
LAYER1
 62
     7
  6
CONTINUOUS
 10
7.0493
 20
0.5443
  0
VERTEX
  8
LAYER1
 62
     7
  6
CONTINUOUS
 10
7.0493
 20
0.5443
  0
VERTEX
  8
LAYER1
 62
     7
  6
CONTINUOUS
 10
7.0493
 20
0.5443
  0
VERTEX
  8
LAYER1
 62
     7
  6
CONTINUOUS
 10
7.0493
 20
0.5443
  0
VERTEX
  8
LAYER1
 62
     7
  6
CONTINUOUS
 10
7.0493
 20
0.5443
  0
VERTEX
  8
LAYER1
 62
     7
  6
CONTINUOUS
 10
7.0493
 20
0.5443
  0
VERTEX
  8
LAYER1
 62
     7
  6
CONTINUOUS
 10
7.0493
 20
0.5443
  0
VERTEX
  8
LAYER1
 62
     7
  6
CONTINUOUS
 10
7.0493
 20
0.5443
  0
VERTEX
  8
LAYER1
 62
     7
  6
CONTINUOUS
 10
7.0493
 20
0.5443
  0
VERTEX
  8
LAYER1
 62
     7
  6
CONTINUOUS
 10
7.0493
 20
0.5443
  0
VERTEX
  8
LAYER1
 62
     7
  6
CONTINUOUS
 10
7.0493
 20
0.5443
  0
VERTEX
  8
LAYER1
 62
     7
  6
CONTINUOUS
 10
7.0493
 20
0.5443
  0
VERTEX
  8
LAYER1
 62
     7
  6
CONTINUOUS
 10
7.0493
 20
0.5443
  0
VERTEX
  8
LAYER1
 62
     7
  6
CONTINUOUS
 10
7.0493
 20
0.5443
  0
VERTEX
  8
LAYER1
 62
     7
  6
CONTINUOUS
 10
7.0493
 20
0.5443
  0
VERTEX
  8
LAYER1
 62
     7
  6
CONTINUOUS
 10
7.0493
 20
0.5443
  0
VERTEX
  8
LAYER1
 62
     7
  6
CONTINUOUS
 10
7.0493
 20
0.5443
  0
VERTEX
  8
LAYER1
 62
     7
  6
CONTINUOUS
 10
7.0493
 20
0.5443
  0
VERTEX
  8
LAYER1
 62
     7
  6
CONTINUOUS
 10
7.0493
 20
0.5443
  0
VERTEX
  8
LAYER1
 62
     7
  6
CONTINUOUS
 10
7.0493
 20
0.5443
  0
SEQEND
  8
LAYER1
  0
POLYLINE
  8
LAYER1
 62
     7
 66
     1
  6
CONTINUOUS
  0
VERTEX
  8
LAYER1
 62
     7
  6
CONTINUOUS
 10
7.0493
 20
0.5443
  0
VERTEX
  8
LAYER1
 62
     7
  6
CONTINUOUS
 10
7.0494
 20
0.5442
  0
VERTEX
  8
LAYER1
 62
     7
  6
CONTINUOUS
 10
7.0495
 20
0.5440
  0
VERTEX
  8
LAYER1
 62
     7
  6
CONTINUOUS
 10
7.0496
 20
0.5438
  0
VERTEX
  8
LAYER1
 62
     7
  6
CONTINUOUS
 10
7.0496
 20
0.5437
  0
VERTEX
  8
LAYER1
 62
     7
  6
CONTINUOUS
 10
7.0497
 20
0.5435
  0
VERTEX
  8
LAYER1
 62
     7
  6
CONTINUOUS
 10
7.0498
 20
0.5434
  0
VERTEX
  8
LAYER1
 62
     7
  6
CONTINUOUS
 10
7.0498
 20
0.5432
  0
VERTEX
  8
LAYER1
 62
     7
  6
CONTINUOUS
 10
7.0499
 20
0.5431
  0
VERTEX
  8
LAYER1
 62
     7
  6
CONTINUOUS
 10
7.0500
 20
0.5430
  0
VERTEX
  8
LAYER1
 62
     7
  6
CONTINUOUS
 10
7.0500
 20
0.5428
  0
VERTEX
  8
LAYER1
 62
     7
  6
CONTINUOUS
 10
7.0501
 20
0.5427
  0
VERTEX
  8
LAYER1
 62
     7
  6
CONTINUOUS
 10
7.0501
 20
0.5426
  0
VERTEX
  8
LAYER1
 62
     7
  6
CONTINUOUS
 10
7.0502
 20
0.5424
  0
VERTEX
  8
LAYER1
 62
     7
  6
CONTINUOUS
 10
7.0503
 20
0.5423
  0
VERTEX
  8
LAYER1
 62
     7
  6
CONTINUOUS
 10
7.0503
 20
0.5422
  0
VERTEX
  8
LAYER1
 62
     7
  6
CONTINUOUS
 10
7.0504
 20
0.5421
  0
VERTEX
  8
LAYER1
 62
     7
  6
CONTINUOUS
 10
7.0504
 20
0.5421
  0
VERTEX
  8
LAYER1
 62
     7
  6
CONTINUOUS
 10
7.0504
 20
0.5421
  0
VERTEX
  8
LAYER1
 62
     7
  6
CONTINUOUS
 10
7.0503
 20
0.5421
  0
VERTEX
  8
LAYER1
 62
     7
  6
CONTINUOUS
 10
7.0503
 20
0.5422
  0
VERTEX
  8
LAYER1
 62
     7
  6
CONTINUOUS
 10
7.0503
 20
0.5423
  0
VERTEX
  8
LAYER1
 62
     7
  6
CONTINUOUS
 10
7.0502
 20
0.5424
  0
VERTEX
  8
LAYER1
 62
     7
  6
CONTINUOUS
 10
7.0502
 20
0.5425
  0
VERTEX
  8
LAYER1
 62
     7
  6
CONTINUOUS
 10
7.0501
 20
0.5426
  0
SEQEND
  8
LAYER1
  0
POLYLINE
  8
LAYER1
 62
     7
 66
     1
  6
CONTINUOUS
  0
VERTEX
  8
LAYER1
 62
     7
  6
CONTINUOUS
 10
7.0501
 20
0.5426
  0
VERTEX
  8
LAYER1
 62
     7
  6
CONTINUOUS
 10
7.0501
 20
0.5426
  0
VERTEX
  8
LAYER1
 62
     7
  6
CONTINUOUS
 10
7.0501
 20
0.5426
  0
VERTEX
  8
LAYER1
 62
     7
  6
CONTINUOUS
 10
7.0501
 20
0.5426
  0
VERTEX
  8
LAYER1
 62
     7
  6
CONTINUOUS
 10
7.0501
 20
0.5426
  0
VERTEX
  8
LAYER1
 62
     7
  6
CONTINUOUS
 10
7.0501
 20
0.5426
  0
VERTEX
  8
LAYER1
 62
     7
  6
CONTINUOUS
 10
7.0501
 20
0.5426
  0
VERTEX
  8
LAYER1
 62
     7
  6
CONTINUOUS
 10
7.0501
 20
0.5426
  0
VERTEX
  8
LAYER1
 62
     7
  6
CONTINUOUS
 10
7.0501
 20
0.5426
  0
VERTEX
  8
LAYER1
 62
     7
  6
CONTINUOUS
 10
7.0501
 20
0.5426
  0
VERTEX
  8
LAYER1
 62
     7
  6
CONTINUOUS
 10
7.0501
 20
0.5426
  0
VERTEX
  8
LAYER1
 62
     7
  6
CONTINUOUS
 10
7.0501
 20
0.5426
  0
VERTEX
  8
LAYER1
 62
     7
  6
CONTINUOUS
 10
7.0501
 20
0.5426
  0
VERTEX
  8
LAYER1
 62
     7
  6
CONTINUOUS
 10
7.0501
 20
0.5426
  0
VERTEX
  8
LAYER1
 62
     7
  6
CONTINUOUS
 10
7.0501
 20
0.5426
  0
VERTEX
  8
LAYER1
 62
     7
  6
CONTINUOUS
 10
7.0501
 20
0.5426
  0
VERTEX
  8
LAYER1
 62
     7
  6
CONTINUOUS
 10
7.0501
 20
0.5426
  0
VERTEX
  8
LAYER1
 62
     7
  6
CONTINUOUS
 10
7.0501
 20
0.5426
  0
VERTEX
  8
LAYER1
 62
     7
  6
CONTINUOUS
 10
7.0501
 20
0.5426
  0
VERTEX
  8
LAYER1
 62
     7
  6
CONTINUOUS
 10
7.0501
 20
0.5426
  0
VERTEX
  8
LAYER1
 62
     7
  6
CONTINUOUS
 10
7.0501
 20
0.5426
  0
VERTEX
  8
LAYER1
 62
     7
  6
CONTINUOUS
 10
7.0501
 20
0.5426
  0
VERTEX
  8
LAYER1
 62
     7
  6
CONTINUOUS
 10
7.0501
 20
0.5426
  0
VERTEX
  8
LAYER1
 62
     7
  6
CONTINUOUS
 10
7.0501
 20
0.5426
  0
VERTEX
  8
LAYER1
 62
     7
  6
CONTINUOUS
 10
7.0501
 20
0.5426
  0
SEQEND
  8
LAYER1
  0
POLYLINE
  8
LAYER1
 62
     7
 66
     1
  6
CONTINUOUS
  0
VERTEX
  8
LAYER1
 62
     7
  6
CONTINUOUS
 10
7.0501
 20
0.5426
  0
VERTEX
  8
LAYER1
 62
     7
  6
CONTINUOUS
 10
7.0501
 20
0.5426
  0
VERTEX
  8
LAYER1
 62
     7
  6
CONTINUOUS
 10
7.0501
 20
0.5426
  0
VERTEX
  8
LAYER1
 62
     7
  6
CONTINUOUS
 10
7.0501
 20
0.5426
  0
VERTEX
  8
LAYER1
 62
     7
  6
CONTINUOUS
 10
7.0501
 20
0.5426
  0
VERTEX
  8
LAYER1
 62
     7
  6
CONTINUOUS
 10
7.0501
 20
0.5426
  0
VERTEX
  8
LAYER1
 62
     7
  6
CONTINUOUS
 10
7.0501
 20
0.5426
  0
VERTEX
  8
LAYER1
 62
     7
  6
CONTINUOUS
 10
7.0501
 20
0.5426
  0
VERTEX
  8
LAYER1
 62
     7
  6
CONTINUOUS
 10
7.0501
 20
0.5426
  0
VERTEX
  8
LAYER1
 62
     7
  6
CONTINUOUS
 10
7.0501
 20
0.5426
  0
VERTEX
  8
LAYER1
 62
     7
  6
CONTINUOUS
 10
7.0501
 20
0.5426
  0
VERTEX
  8
LAYER1
 62
     7
  6
CONTINUOUS
 10
7.0501
 20
0.5426
  0
VERTEX
  8
LAYER1
 62
     7
  6
CONTINUOUS
 10
7.0501
 20
0.5426
  0
VERTEX
  8
LAYER1
 62
     7
  6
CONTINUOUS
 10
7.0505
 20
0.5426
  0
VERTEX
  8
LAYER1
 62
     7
  6
CONTINUOUS
 10
7.0507
 20
0.5426
  0
VERTEX
  8
LAYER1
 62
     7
  6
CONTINUOUS
 10
7.0509
 20
0.5426
  0
VERTEX
  8
LAYER1
 62
     7
  6
CONTINUOUS
 10
7.0510
 20
0.5426
  0
VERTEX
  8
LAYER1
 62
     7
  6
CONTINUOUS
 10
7.0510
 20
0.5426
  0
VERTEX
  8
LAYER1
 62
     7
  6
CONTINUOUS
 10
7.0510
 20
0.5426
  0
VERTEX
  8
LAYER1
 62
     7
  6
CONTINUOUS
 10
7.0509
 20
0.5426
  0
VERTEX
  8
LAYER1
 62
     7
  6
CONTINUOUS
 10
7.0508
 20
0.5426
  0
VERTEX
  8
LAYER1
 62
     7
  6
CONTINUOUS
 10
7.0507
 20
0.5426
  0
VERTEX
  8
LAYER1
 62
     7
  6
CONTINUOUS
 10
7.0505
 20
0.5426
  0
VERTEX
  8
LAYER1
 62
     7
  6
CONTINUOUS
 10
7.0503
 20
0.5426
  0
VERTEX
  8
LAYER1
 62
     7
  6
CONTINUOUS
 10
7.0501
 20
0.5426
  0
SEQEND
  8
LAYER1
  0
ARC
  8
LAYER1
 62
     7
  6
CONTINUOUS
 10
8.0344
 20
0.8321
 40
0.0072
 50
92.5550
 51
100.5791
  0
ARC
  8
LAYER1
 62
     7
  6
CONTINUOUS
 10
8.0344
 20
0.8321
 40
0.0072
 50
-100.5806
 51
-92.5554
  0
ARC
  8
LAYER1
 62
     7
  6
CONTINUOUS
 10
8.0393
 20
1.0417
 40
0.0153
 50
109.9081
 51
113.9567
  0
ARC
  8
LAYER1
 62
     7
  6
CONTINUOUS
 10
8.0393
 20
1.0417
 40
0.0153
 50
-113.9627
 51
-109.9088
  0
ARC
  8
LAYER1
 62
     7
  6
CONTINUOUS
 10
7.6323
 20
1.5525
 40
0.0206
 50
138.5995
 51
41.3998
  0
ARC
  8
LAYER1
 62
     7
  6
CONTINUOUS
 10
7.7064
 20
1.5755
 40
0.0155
 50
-142.5652
 51
-37.4359
  0
POLYLINE
  8
LAYER12
 62
     5
 66
     1
  6
CONTINUOUS
  0
VERTEX
  8
LAYER12
 62
     5
  6
CONTINUOUS
 10
7.0490
 20
0.5426
  0
VERTEX
  8
LAYER12
 62
     5
  6
CONTINUOUS
 10
7.0490
 20
0.5426
  0
SEQEND
  8
LAYER12
  0
POLYLINE
  8
LAYER12
 62
     5
 66
     1
  6
CONTINUOUS
  0
VERTEX
  8
LAYER12
 62
     5
  6
CONTINUOUS
 10
8.0330
 20
1.5657
  0
VERTEX
  8
LAYER12
 62
     5
  6
CONTINUOUS
 10
7.0531
 20
1.5657
  0
SEQEND
  8
LAYER12
  0
POLYLINE
  8
LAYER12
 62
     5
 66
     1
  6
CONTINUOUS
  0
VERTEX
  8
LAYER12
 62
     5
  6
CONTINUOUS
 10
8.0340
 20
1.5657
  0
VERTEX
  8
LAYER12
 62
     5
  6
CONTINUOUS
 10
8.0330
 20
1.5657
  0
SEQEND
  8
LAYER12
  0
POLYLINE
  8
LAYER12
 62
     5
 66
     1
  6
CONTINUOUS
  0
VERTEX
  8
LAYER12
 62
     5
  6
CONTINUOUS
 10
7.0531
 20
1.5657
  0
VERTEX
  8
LAYER12
 62
     5
  6
CONTINUOUS
 10
7.0493
 20
1.5657
  0
SEQEND
  8
LAYER12
  0
POLYLINE
  8
LAYER12
 62
     5
 66
     1
  6
CONTINUOUS
  0
VERTEX
  8
LAYER12
 62
     5
  6
CONTINUOUS
 10
7.0493
 20
1.5657
  0
VERTEX
  8
LAYER12
 62
     5
  6
CONTINUOUS
 10
7.0490
 20
1.5657
  0
SEQEND
  8
LAYER12
  0
POLYLINE
  8
LAYER12
 62
     5
 66
     1
  6
CONTINUOUS
  0
VERTEX
  8
LAYER12
 62
     5
  6
CONTINUOUS
 10
7.0531
 20
0.5426
  0
VERTEX
  8
LAYER12
 62
     5
  6
CONTINUOUS
 10
8.0340
 20
0.5426
  0
SEQEND
  8
LAYER12
  0
POLYLINE
  8
LAYER12
 62
     5
 66
     1
  6
CONTINUOUS
  0
VERTEX
  8
LAYER12
 62
     5
  6
CONTINUOUS
 10
7.0493
 20
0.5426
  0
VERTEX
  8
LAYER12
 62
     5
  6
CONTINUOUS
 10
7.0490
 20
0.5426
  0
SEQEND
  8
LAYER12
  0
POLYLINE
  8
LAYER12
 62
     5
 66
     1
  6
CONTINUOUS
  0
VERTEX
  8
LAYER12
 62
     5
  6
CONTINUOUS
 10
7.0490
 20
0.5426
  0
VERTEX
  8
LAYER12
 62
     5
  6
CONTINUOUS
 10
7.0531
 20
0.5426
  0
SEQEND
  8
LAYER12
  0
POLYLINE
  8
LAYER12
 62
     5
 66
     1
  6
CONTINUOUS
  0
VERTEX
  8
LAYER12
 62
     5
  6
CONTINUOUS
 10
7.0493
 20
0.5426
  0
VERTEX
  8
LAYER12
 62
     5
  6
CONTINUOUS
 10
7.0493
 20
1.5661
  0
SEQEND
  8
LAYER12
  0
POLYLINE
  8
LAYER12
 62
     5
 66
     1
  6
CONTINUOUS
  0
VERTEX
  8
LAYER12
 62
     5
  6
CONTINUOUS
 10
8.0330
 20
1.5661
  0
VERTEX
  8
LAYER12
 62
     5
  6
CONTINUOUS
 10
8.0330
 20
0.5426
  0
SEQEND
  8
LAYER12
  0
ENDSEC
  0
EOF
