  0
SECTION
  2
HEADER
  9
$ACADVER
  1
AC1004
  9
$EXTMIN
 10
2.0492
 20
0.5393
  9
$EXTMAX
 10
3.0752
 20
1.5667
  9
$LIMMIN
 10
2.0492
 20
0.5393
  9
$LIMMAX
 10
3.0752
 20
1.5667
  9
$INSBASE
 10
0.0
 20
0.0
  9
$VIEWCTR
 10
7.21903
 20
4.5
  9
$VIEWSIZE
 40
9.0
  9
$SNAPMODE
 70
     0
  9
$SNAPUNIT
 10
1.0
 20
1.0
  9
$SNAPBASE
 10
0.0
 20
0.0
  9
$SNAPANG
 50
0.0
  9
$SNAPSTYLE
 70
     0
  9
$SNAPISOPAIR
 70
     0
  9
$GRIDMODE
 70
     0
  9
$GRIDUNIT
 10
0.0
 20
0.0
  9
$ORTHOMODE
 70
     0
  9
$REGENMODE
 70
     1
  9
$FILLMODE
 70
     1
  9
$QTEXTMODE
 70
     0
  9
$DRAGMODE
 70
     2
  9
$LTSCALE
 40
1.0
  9
$OSMODE
 70
     0
  9
$ATTMODE
 70
     1
  9
$TEXTSIZE
 40
0.2
  9
$TRACEWID
 40
0.05
  9
$TEXTSTYLE
  7
STANDARD
  9
$CLAYER
  8
0
  9
$CELTYPE
  6
BYLAYER
  9
$CECOLOR
 62
   256
  9
$DIMSCALE
 40
1.0
  9
$DIMASZ
 40
0.18
  9
$DIMEXO
 40
0.0625
  9
$DIMDLI
 40
0.38
  9
$DIMRND
 40
0.0
  9
$DIMDLE
 40
0.0
  9
$DIMEXE
 40
0.18
  9
$DIMTP
 40
0.0
  9
$DIMTM
 40
0.0
  9
$DIMTXT
 40
0.18
  9
$DIMCEN
 40
0.09
  9
$DIMTSZ
 40
0.0
  9
$DIMTOL
 70
     0
  9
$DIMLIM
 70
     0
  9
$DIMTIH
 70
     1
  9
$DIMTOH
 70
     1
  9
$DIMSE1
 70
     0
  9
$DIMSE2
 70
     0
  9
$DIMTAD
 70
     0
  9
$DIMZIN
 70
     0
  9
$DIMBLK
  1

  9
$DIMASO
 70
     1
  9
$DIMSHO
 70
     0
  9
$DIMPOST
  1

  9
$DIMAPOST
  1

  9
$DIMALT
 70
     0
  9
$DIMALTD
 70
     2
  9
$DIMALTF
 40
25.4
  9
$DIMLFAC
 40
1.0
  9
$LUNITS
 70
     2
  9
$LUPREC
 70
     4
  9
$AXISMODE
 70
     0
  9
$AXISUNIT
 10
0.0
 20
0.0
  9
$SKETCHINC
 40
0.1
  9
$FILLETRAD
 40
0.0
  9
$AUNITS
 70
     0
  9
$AUPREC
 70
     0
  9
$MENU
  1
acad
  9
$ELEVATION
 40
0.0
  9
$THICKNESS
 40
0.0
  9
$VIEWDIR
 10
0.0
 20
0.0
 30
1.0
  9
$LIMCHECK
 70
     0
  9
$BLIPMODE
 70
     1
  9
$CHAMFERA
 40
0.0
  9
$CHAMFERB
 40
0.0
  9
$FASTZOOM
 70
     1
  9
$SKPOLY
 70
     0
  9
$TDCREATE
 40
2447222.5666886573
  9
$TDUPDATE
 40
2447222.5666886573
  9
$TDINDWG
 40
0.0000000000
  9
$TDUSRTIMER
 40
0.0000000000
  9
$USRTIMER
 70
     1
  9
$ANGBASE
 50
0.0
  9
$ANGDIR
 70
     0
  9
$PDMODE
 70
     0
  9
$PDSIZE
 40
0.0
  9
$PLINEWID
 40
0.0
  9
$COORDS
 70
     0
  9
$SPLFRAME
 70
     0
  9
$SPLINESEGS
 70
     8
  9
$ATTDIA
 70
     0
  9
$ATTREQ
 70
     1
  9
$USERI1
 70
     0
  9
$USERI2
 70
     0
  9
$USERI3
 70
     0
  9
$USERI4
 70
     0
  9
$USERI5
 70
     0
  9
$USERR1
 40
0.0
  9
$USERR2
 40
0.0
  9
$USERR3
 40
0.0
  9
$USERR4
 40
0.0
  9
$USERR5
 40
0.0
  0
ENDSEC
  0
SECTION
  2
TABLES
  0
TABLE
  2
LTYPE
 70
     13
  0
LTYPE
  2
CONTINUOUS
 70
    64
  3
Solid line
 72
    65
 73
     0
 40
0.0
  0
LTYPE
  2
DASHED
 70
    64
  3
__ __ __ __ __ __ __ __ __ __ __ __ __ __ __
 72
    65
 73
     2
 40
0.75
 49
0.5
 49
-0.25
  0
LTYPE
  2
HIDDEN
 70
    64
  3
_ _ _ _ _ _ _ _ _ _ _ _ _ _ _ _ _ _ _ _ _ _ _
 72
    65
 73
     2
 40
0.375
 49
0.25
 49
-0.125
  0
LTYPE
  2
CENTER
 70
    64
  3
____ _ ____ _ ____ _ ____ _ ____ _ ____ _ ____
 72
    65
 73
     4
 40
2.0
 49
1.25
 49
-0.25
 49
0.25
 49
-0.25
  0
LTYPE
  2
PHANTOM
 70
    64
  3
_____ _ _ _____ _ _ _____ _ _ _____ _ _ ____
 72
    65
 73
     6
 40
2.5
 49
1.25
 49
-0.25
 49
0.25
 49
-0.25
 49
0.25
 49
-0.25
  0
LTYPE
  2
DOT
 70
    64
  3
...............................................
 72
    65
 73
     2
 40
0.25
 49
0.0
 49
-0.25
  0
LTYPE
  2
DASHDOT
 70
    64
  3
__ . __ . __ . __ . __ . __ . __ . __ . __ . __
 72
    65
 73
     4
 40
1.0
 49
0.5
 49
-0.25
 49
0.0
 49
-0.25
  0
LTYPE
  2
BORDER
 70
    64
  3
__ __ . __ __ . __ __ . __ __ . __ __ . __ __
 72
    65
 73
     6
 40
1.75
 49
0.5
 49
-0.25
 49
0.5
 49
-0.25
 49
0.0
 49
-0.25
  0
LTYPE
  2
DIVIDE
 70
    64
  3
__ . . __ . . __ . . __ . . __ . . __ . . __
 72
    65
 73
     6
 40
1.25
 49
0.5
 49
-0.25
 49
0.0
 49
-0.25
 49
0.0
 49
-0.25
  0
LTYPE
  2
DCTYPE1
 70
    64
  3
__ . . __ . . __ . . __ . . __ . . __ . . __
 72
    65
 73
     8
 40
2.5
 49
0.5
 49
-0.25
 49
0.125
 49
-0.25
 49
0.25
 49
-0.25
 49
0.125
 49
-0.25
  0
LTYPE
  2
DCTYPE2
 70
    64
  3
__ . . __ . . __ . . __ . . __ . . __ . . __
 72
    65
 73
     6
 40
2.05
 49
1.0
 49
-0.3
 49
0.15
 49
-0.15
 49
0.15
 49
-0.3
  0
LTYPE
  2
DCTYPE3
 70
    64
  3
__ . . __ . . __ . . __ . . __ . . __ . . __
 72
    65
 73
     6
 40
2.5
 49
0.8
 49
-0.2
 49
0.8
 49
-0.2
 49
0.3
 49
-0.2
  0
LTYPE
  2
DCTYPE4
 70
    64
  3
__ . . __ . . __ . . __ . . __ . . __ . . __
 72
    65
 73
     10
 40
3.97
 49
1.75
 49
-0.3
 49
0.3
 49
-0.3
 49
0.06
 49
-0.3
 49
0.06
 49
-0.3
 49
0.3
 49
-0.3
  0
ENDTAB
  0
TABLE
  2
LAYER
 70
    153
  0
LAYER
  2
LAYER1
 70
 64
 62
     7
  6
CONTINUOUS
  0
LAYER
  2
LAYER10
 70
 64
 62
     1
  6
CONTINUOUS
  0
LAYER
  2
LAYER12
 70
 64
 62
     5
  6
CONTINUOUS
  0
ENDTAB
  0
ENDSEC
  0
SECTION
  2
BLOCKS
  0
ENDSEC
  0
SECTION
  2
ENTITIES
  0
CIRCLE
  8
LAYER1
 62
     7
  6
CONTINUOUS
 10
2.5824
 20
1.5290
 40
0.0185
  0
CIRCLE
  8
LAYER1
 62
     7
  6
CONTINUOUS
 10
2.8157
 20
1.4294
 40
0.0179
  0
CIRCLE
  8
LAYER1
 62
     7
  6
CONTINUOUS
 10
2.2009
 20
1.2786
 40
0.0148
  0
CIRCLE
  8
LAYER1
 62
     7
  6
CONTINUOUS
 10
2.4196
 20
1.4278
 40
0.0205
  0
CIRCLE
  8
LAYER1
 62
     7
  6
CONTINUOUS
 10
2.4958
 20
1.4277
 40
0.0105
  0
CIRCLE
  8
LAYER1
 62
     7
  6
CONTINUOUS
 10
2.5491
 20
1.4250
 40
0.0185
  0
CIRCLE
  8
LAYER1
 62
     7
  6
CONTINUOUS
 10
2.6075
 20
1.4249
 40
0.0193
  0
CIRCLE
  8
LAYER1
 62
     7
  6
CONTINUOUS
 10
2.6125
 20
1.3868
 40
0.0127
  0
CIRCLE
  8
LAYER1
 62
     7
  6
CONTINUOUS
 10
2.5769
 20
1.3411
 40
0.0127
  0
CIRCLE
  8
LAYER1
 62
     7
  6
CONTINUOUS
 10
2.4296
 20
1.3415
 40
0.0105
  0
CIRCLE
  8
LAYER1
 62
     7
  6
CONTINUOUS
 10
2.3256
 20
1.4001
 40
0.0092
  0
CIRCLE
  8
LAYER1
 62
     7
  6
CONTINUOUS
 10
2.3862
 20
1.2502
 40
0.0152
  0
CIRCLE
  8
LAYER1
 62
     7
  6
CONTINUOUS
 10
2.5792
 20
1.2472
 40
0.0137
  0
CIRCLE
  8
LAYER1
 62
     7
  6
CONTINUOUS
 10
2.5663
 20
1.1634
 40
0.0163
  0
CIRCLE
  8
LAYER1
 62
     7
  6
CONTINUOUS
 10
2.6451
 20
1.1988
 40
0.0102
  0
CIRCLE
  8
LAYER1
 62
     7
  6
CONTINUOUS
 10
2.6859
 20
1.2977
 40
0.0076
  0
CIRCLE
  8
LAYER1
 62
     7
  6
CONTINUOUS
 10
3.0057
 20
1.2259
 40
0.0234
  0
CIRCLE
  8
LAYER1
 62
     7
  6
CONTINUOUS
 10
3.0080
 20
1.1446
 40
0.0108
  0
CIRCLE
  8
LAYER1
 62
     7
  6
CONTINUOUS
 10
3.0557
 20
0.8983
 40
0.0152
  0
CIRCLE
  8
LAYER1
 62
     7
  6
CONTINUOUS
 10
2.9768
 20
0.8223
 40
0.0154
  0
ARC
  8
LAYER1
 62
     7
  6
CONTINUOUS
 10
2.8920
 20
1.4648
 40
0.0180
 50
-98.2620
 51
-61.9304
  0
ARC
  8
LAYER1
 62
     7
  6
CONTINUOUS
 10
2.8920
 20
1.4648
 40
0.0180
 50
-61.9302
 51
-118.0698
  0
ARC
  8
LAYER1
 62
     7
  6
CONTINUOUS
 10
2.8920
 20
1.4648
 40
0.0180
 50
-118.0698
 51
-98.2616
  0
ARC
  8
LAYER1
 62
     7
  6
CONTINUOUS
 10
2.0642
 20
1.4312
 40
0.0180
 50
-81.7380
 51
98.2621
  0
ARC
  8
LAYER1
 62
     7
  6
CONTINUOUS
 10
3.0808
 20
0.7763
 40
0.0144
 50
112.7108
 51
134.8603
  0
ARC
  8
LAYER1
 62
     7
  6
CONTINUOUS
 10
2.8440
 20
1.5690
 40
0.0152
 50
-167.2895
 51
-90.1524
  0
ARC
  8
LAYER1
 62
     7
  6
CONTINUOUS
 10
2.6410
 20
0.5438
 40
0.0306
 50
4.0473
 51
85.1096
  0
ARC
  8
LAYER1
 62
     7
  6
CONTINUOUS
 10
2.0642
 20
1.4312
 40
0.0180
 50
-146.5478
 51
-81.7388
  0
ARC
  8
LAYER1
 62
     7
  6
CONTINUOUS
 10
2.0642
 20
1.4312
 40
0.0180
 50
-146.5478
 51
81.7388
  0
ARC
  8
LAYER1
 62
     7
  6
CONTINUOUS
 10
2.8440
 20
1.5690
 40
0.0152
 50
-12.7107
 51
-8.8798
  0
ARC
  8
LAYER1
 62
     7
  6
CONTINUOUS
 10
2.8440
 20
1.5690
 40
0.0152
 50
-12.7107
 51
-8.8798
  0
ARC
  8
LAYER1
 62
     7
  6
CONTINUOUS
 10
2.6410
 20
0.5438
 40
0.0306
 50
85.1095
 51
175.9527
  0
ARC
  8
LAYER1
 62
     7
  6
CONTINUOUS
 10
2.6410
 20
0.5438
 40
0.0306
 50
175.9527
 51
-177.8136
  0
ARC
  8
LAYER1
 62
     7
  6
CONTINUOUS
 10
2.8440
 20
1.5690
 40
0.0152
 50
-90.1525
 51
-12.7104
  0
ARC
  8
LAYER1
 62
     7
  6
CONTINUOUS
 10
2.8440
 20
1.5690
 40
0.0152
 50
-171.1204
 51
-167.2899
  0
ARC
  8
LAYER1
 62
     7
  6
CONTINUOUS
 10
2.8440
 20
1.5690
 40
0.0152
 50
-171.1204
 51
-167.2899
  0
ARC
  8
LAYER1
 62
     7
  6
CONTINUOUS
 10
2.8440
 20
1.5690
 40
0.0152
 50
-167.2895
 51
-12.7105
  0
ARC
  8
LAYER1
 62
     7
  6
CONTINUOUS
 10
2.0642
 20
1.4312
 40
0.0180
 50
-81.7380
 51
146.5479
  0
ARC
  8
LAYER1
 62
     7
  6
CONTINUOUS
 10
2.0642
 20
1.4312
 40
0.0180
 50
-146.5478
 51
146.5478
  0
ARC
  8
LAYER1
 62
     7
  6
CONTINUOUS
 10
2.0642
 20
1.4312
 40
0.0180
 50
-146.5478
 51
146.5478
  0
ARC
  8
LAYER1
 62
     7
  6
CONTINUOUS
 10
2.0642
 20
1.4312
 40
0.0180
 50
98.2620
 51
146.5483
  0
ARC
  8
LAYER1
 62
     7
  6
CONTINUOUS
 10
2.0642
 20
1.4312
 40
0.0180
 50
-146.5478
 51
146.5478
  0
ARC
  8
LAYER1
 62
     7
  6
CONTINUOUS
 10
2.0642
 20
1.4312
 40
0.0180
 50
-146.5478
 51
146.5478
  0
ARC
  8
LAYER1
 62
     7
  6
CONTINUOUS
 10
2.6410
 20
0.5438
 40
0.0306
 50
-177.8136
 51
-171.5537
  0
ARC
  8
LAYER1
 62
     7
  6
CONTINUOUS
 10
2.6410
 20
0.5438
 40
0.0306
 50
-8.4463
 51
-2.1864
  0
ARC
  8
LAYER1
 62
     7
  6
CONTINUOUS
 10
2.6410
 20
0.5438
 40
0.0306
 50
-8.4463
 51
4.0473
  0
ARC
  8
LAYER1
 62
     7
  6
CONTINUOUS
 10
3.0808
 20
0.7763
 40
0.0144
 50
134.8601
 51
-112.7109
  0
ARC
  8
LAYER1
 62
     7
  6
CONTINUOUS
 10
3.0808
 20
0.7763
 40
0.0144
 50
112.7108
 51
-112.7108
  0
ARC
  8
LAYER1
 62
     7
  6
CONTINUOUS
 10
3.0808
 20
0.7763
 40
0.0144
 50
112.7108
 51
-112.7108
  0
ARC
  8
LAYER1
 62
     7
  6
CONTINUOUS
 10
3.0808
 20
0.7763
 40
0.0144
 50
112.7108
 51
-112.7108
  0
POLYLINE
  8
LAYER10
 62
     1
 66
     1
  6
CONTINUOUS
  0
VERTEX
  8
LAYER10
 62
     1
  6
CONTINUOUS
 10
2.8226
 20
1.1019
  0
VERTEX
  8
LAYER10
 62
     1
  6
CONTINUOUS
 10
2.8235
 20
1.1007
  0
VERTEX
  8
LAYER10
 62
     1
  6
CONTINUOUS
 10
2.8243
 20
1.0994
  0
VERTEX
  8
LAYER10
 62
     1
  6
CONTINUOUS
 10
2.8252
 20
1.0982
  0
VERTEX
  8
LAYER10
 62
     1
  6
CONTINUOUS
 10
2.8261
 20
1.0969
  0
VERTEX
  8
LAYER10
 62
     1
  6
CONTINUOUS
 10
2.8269
 20
1.0957
  0
VERTEX
  8
LAYER10
 62
     1
  6
CONTINUOUS
 10
2.8278
 20
1.0944
  0
VERTEX
  8
LAYER10
 62
     1
  6
CONTINUOUS
 10
2.8286
 20
1.0931
  0
VERTEX
  8
LAYER10
 62
     1
  6
CONTINUOUS
 10
2.8295
 20
1.0919
  0
VERTEX
  8
LAYER10
 62
     1
  6
CONTINUOUS
 10
2.8303
 20
1.0906
  0
VERTEX
  8
LAYER10
 62
     1
  6
CONTINUOUS
 10
2.8311
 20
1.0893
  0
VERTEX
  8
LAYER10
 62
     1
  6
CONTINUOUS
 10
2.8319
 20
1.0880
  0
VERTEX
  8
LAYER10
 62
     1
  6
CONTINUOUS
 10
2.8327
 20
1.0867
  0
VERTEX
  8
LAYER10
 62
     1
  6
CONTINUOUS
 10
2.8350
 20
1.0827
  0
VERTEX
  8
LAYER10
 62
     1
  6
CONTINUOUS
 10
2.8372
 20
1.0787
  0
VERTEX
  8
LAYER10
 62
     1
  6
CONTINUOUS
 10
2.8393
 20
1.0746
  0
VERTEX
  8
LAYER10
 62
     1
  6
CONTINUOUS
 10
2.8413
 20
1.0705
  0
VERTEX
  8
LAYER10
 62
     1
  6
CONTINUOUS
 10
2.8432
 20
1.0663
  0
VERTEX
  8
LAYER10
 62
     1
  6
CONTINUOUS
 10
2.8449
 20
1.0621
  0
VERTEX
  8
LAYER10
 62
     1
  6
CONTINUOUS
 10
2.8466
 20
1.0578
  0
VERTEX
  8
LAYER10
 62
     1
  6
CONTINUOUS
 10
2.8481
 20
1.0535
  0
VERTEX
  8
LAYER10
 62
     1
  6
CONTINUOUS
 10
2.8495
 20
1.0491
  0
VERTEX
  8
LAYER10
 62
     1
  6
CONTINUOUS
 10
2.8508
 20
1.0447
  0
VERTEX
  8
LAYER10
 62
     1
  6
CONTINUOUS
 10
2.8519
 20
1.0403
  0
VERTEX
  8
LAYER10
 62
     1
  6
CONTINUOUS
 10
2.8529
 20
1.0358
  0
VERTEX
  8
LAYER10
 62
     1
  6
CONTINUOUS
 10
2.8539
 20
1.0300
  0
VERTEX
  8
LAYER10
 62
     1
  6
CONTINUOUS
 10
2.8548
 20
1.0241
  0
VERTEX
  8
LAYER10
 62
     1
  6
CONTINUOUS
 10
2.8554
 20
1.0182
  0
VERTEX
  8
LAYER10
 62
     1
  6
CONTINUOUS
 10
2.8557
 20
1.0123
  0
VERTEX
  8
LAYER10
 62
     1
  6
CONTINUOUS
 10
2.8559
 20
1.0063
  0
VERTEX
  8
LAYER10
 62
     1
  6
CONTINUOUS
 10
2.8559
 20
1.0003
  0
VERTEX
  8
LAYER10
 62
     1
  6
CONTINUOUS
 10
2.8558
 20
0.9944
  0
VERTEX
  8
LAYER10
 62
     1
  6
CONTINUOUS
 10
2.8554
 20
0.9884
  0
VERTEX
  8
LAYER10
 62
     1
  6
CONTINUOUS
 10
2.8549
 20
0.9824
  0
VERTEX
  8
LAYER10
 62
     1
  6
CONTINUOUS
 10
2.8543
 20
0.9765
  0
VERTEX
  8
LAYER10
 62
     1
  6
CONTINUOUS
 10
2.8536
 20
0.9706
  0
VERTEX
  8
LAYER10
 62
     1
  6
CONTINUOUS
 10
2.8527
 20
0.9647
  0
VERTEX
  8
LAYER10
 62
     1
  6
CONTINUOUS
 10
2.8520
 20
0.9605
  0
VERTEX
  8
LAYER10
 62
     1
  6
CONTINUOUS
 10
2.8513
 20
0.9563
  0
VERTEX
  8
LAYER10
 62
     1
  6
CONTINUOUS
 10
2.8505
 20
0.9521
  0
VERTEX
  8
LAYER10
 62
     1
  6
CONTINUOUS
 10
2.8497
 20
0.9478
  0
VERTEX
  8
LAYER10
 62
     1
  6
CONTINUOUS
 10
2.8489
 20
0.9436
  0
VERTEX
  8
LAYER10
 62
     1
  6
CONTINUOUS
 10
2.8480
 20
0.9394
  0
VERTEX
  8
LAYER10
 62
     1
  6
CONTINUOUS
 10
2.8471
 20
0.9352
  0
VERTEX
  8
LAYER10
 62
     1
  6
CONTINUOUS
 10
2.8462
 20
0.9310
  0
VERTEX
  8
LAYER10
 62
     1
  6
CONTINUOUS
 10
2.8453
 20
0.9268
  0
VERTEX
  8
LAYER10
 62
     1
  6
CONTINUOUS
 10
2.8443
 20
0.9226
  0
VERTEX
  8
LAYER10
 62
     1
  6
CONTINUOUS
 10
2.8434
 20
0.9183
  0
VERTEX
  8
LAYER10
 62
     1
  6
CONTINUOUS
 10
2.8424
 20
0.9140
  0
VERTEX
  8
LAYER10
 62
     1
  6
CONTINUOUS
 10
2.8412
 20
0.9081
  0
VERTEX
  8
LAYER10
 62
     1
  6
CONTINUOUS
 10
2.8398
 20
0.9021
  0
VERTEX
  8
LAYER10
 62
     1
  6
CONTINUOUS
 10
2.8385
 20
0.8962
  0
VERTEX
  8
LAYER10
 62
     1
  6
CONTINUOUS
 10
2.8370
 20
0.8903
  0
VERTEX
  8
LAYER10
 62
     1
  6
CONTINUOUS
 10
2.8354
 20
0.8844
  0
VERTEX
  8
LAYER10
 62
     1
  6
CONTINUOUS
 10
2.8336
 20
0.8787
  0
VERTEX
  8
LAYER10
 62
     1
  6
CONTINUOUS
 10
2.8316
 20
0.8731
  0
VERTEX
  8
LAYER10
 62
     1
  6
CONTINUOUS
 10
2.8293
 20
0.8676
  0
VERTEX
  8
LAYER10
 62
     1
  6
CONTINUOUS
 10
2.8267
 20
0.8624
  0
VERTEX
  8
LAYER10
 62
     1
  6
CONTINUOUS
 10
2.8238
 20
0.8573
  0
VERTEX
  8
LAYER10
 62
     1
  6
CONTINUOUS
 10
2.8206
 20
0.8525
  0
VERTEX
  8
LAYER10
 62
     1
  6
CONTINUOUS
 10
2.8169
 20
0.8480
  0
VERTEX
  8
LAYER10
 62
     1
  6
CONTINUOUS
 10
2.8161
 20
0.8472
  0
VERTEX
  8
LAYER10
 62
     1
  6
CONTINUOUS
 10
2.8153
 20
0.8463
  0
VERTEX
  8
LAYER10
 62
     1
  6
CONTINUOUS
 10
2.8145
 20
0.8454
  0
VERTEX
  8
LAYER10
 62
     1
  6
CONTINUOUS
 10
2.8136
 20
0.8446
  0
VERTEX
  8
LAYER10
 62
     1
  6
CONTINUOUS
 10
2.8128
 20
0.8438
  0
VERTEX
  8
LAYER10
 62
     1
  6
CONTINUOUS
 10
2.8119
 20
0.8429
  0
VERTEX
  8
LAYER10
 62
     1
  6
CONTINUOUS
 10
2.8110
 20
0.8421
  0
VERTEX
  8
LAYER10
 62
     1
  6
CONTINUOUS
 10
2.8102
 20
0.8413
  0
VERTEX
  8
LAYER10
 62
     1
  6
CONTINUOUS
 10
2.8093
 20
0.8404
  0
VERTEX
  8
LAYER10
 62
     1
  6
CONTINUOUS
 10
2.8084
 20
0.8396
  0
VERTEX
  8
LAYER10
 62
     1
  6
CONTINUOUS
 10
2.8076
 20
0.8388
  0
VERTEX
  8
LAYER10
 62
     1
  6
CONTINUOUS
 10
2.8067
 20
0.8379
  0
VERTEX
  8
LAYER10
 62
     1
  6
CONTINUOUS
 10
2.8038
 20
0.8349
  0
VERTEX
  8
LAYER10
 62
     1
  6
CONTINUOUS
 10
2.8009
 20
0.8318
  0
VERTEX
  8
LAYER10
 62
     1
  6
CONTINUOUS
 10
2.7980
 20
0.8287
  0
VERTEX
  8
LAYER10
 62
     1
  6
CONTINUOUS
 10
2.7952
 20
0.8255
  0
VERTEX
  8
LAYER10
 62
     1
  6
CONTINUOUS
 10
2.7924
 20
0.8224
  0
VERTEX
  8
LAYER10
 62
     1
  6
CONTINUOUS
 10
2.7895
 20
0.8192
  0
VERTEX
  8
LAYER10
 62
     1
  6
CONTINUOUS
 10
2.7867
 20
0.8162
  0
VERTEX
  8
LAYER10
 62
     1
  6
CONTINUOUS
 10
2.7837
 20
0.8132
  0
VERTEX
  8
LAYER10
 62
     1
  6
CONTINUOUS
 10
2.7807
 20
0.8103
  0
VERTEX
  8
LAYER10
 62
     1
  6
CONTINUOUS
 10
2.7776
 20
0.8075
  0
VERTEX
  8
LAYER10
 62
     1
  6
CONTINUOUS
 10
2.7744
 20
0.8049
  0
VERTEX
  8
LAYER10
 62
     1
  6
CONTINUOUS
 10
2.7711
 20
0.8024
  0
VERTEX
  8
LAYER10
 62
     1
  6
CONTINUOUS
 10
2.7678
 20
0.8003
  0
VERTEX
  8
LAYER10
 62
     1
  6
CONTINUOUS
 10
2.7643
 20
0.7983
  0
VERTEX
  8
LAYER10
 62
     1
  6
CONTINUOUS
 10
2.7607
 20
0.7965
  0
VERTEX
  8
LAYER10
 62
     1
  6
CONTINUOUS
 10
2.7570
 20
0.7949
  0
VERTEX
  8
LAYER10
 62
     1
  6
CONTINUOUS
 10
2.7532
 20
0.7934
  0
VERTEX
  8
LAYER10
 62
     1
  6
CONTINUOUS
 10
2.7494
 20
0.7921
  0
VERTEX
  8
LAYER10
 62
     1
  6
CONTINUOUS
 10
2.7455
 20
0.7909
  0
VERTEX
  8
LAYER10
 62
     1
  6
CONTINUOUS
 10
2.7415
 20
0.7899
  0
VERTEX
  8
LAYER10
 62
     1
  6
CONTINUOUS
 10
2.7375
 20
0.7890
  0
VERTEX
  8
LAYER10
 62
     1
  6
CONTINUOUS
 10
2.7335
 20
0.7883
  0
VERTEX
  8
LAYER10
 62
     1
  6
CONTINUOUS
 10
2.7294
 20
0.7878
  0
VERTEX
  8
LAYER10
 62
     1
  6
CONTINUOUS
 10
2.7254
 20
0.7873
  0
VERTEX
  8
LAYER10
 62
     1
  6
CONTINUOUS
 10
2.7211
 20
0.7870
  0
VERTEX
  8
LAYER10
 62
     1
  6
CONTINUOUS
 10
2.7168
 20
0.7868
  0
VERTEX
  8
LAYER10
 62
     1
  6
CONTINUOUS
 10
2.7126
 20
0.7867
  0
VERTEX
  8
LAYER10
 62
     1
  6
CONTINUOUS
 10
2.7084
 20
0.7867
  0
VERTEX
  8
LAYER10
 62
     1
  6
CONTINUOUS
 10
2.7042
 20
0.7868
  0
VERTEX
  8
LAYER10
 62
     1
  6
CONTINUOUS
 10
2.6999
 20
0.7869
  0
VERTEX
  8
LAYER10
 62
     1
  6
CONTINUOUS
 10
2.6957
 20
0.7870
  0
VERTEX
  8
LAYER10
 62
     1
  6
CONTINUOUS
 10
2.6915
 20
0.7872
  0
VERTEX
  8
LAYER10
 62
     1
  6
CONTINUOUS
 10
2.6873
 20
0.7873
  0
VERTEX
  8
LAYER10
 62
     1
  6
CONTINUOUS
 10
2.6830
 20
0.7874
  0
VERTEX
  8
LAYER10
 62
     1
  6
CONTINUOUS
 10
2.6788
 20
0.7875
  0
VERTEX
  8
LAYER10
 62
     1
  6
CONTINUOUS
 10
2.6746
 20
0.7874
  0
VERTEX
  8
LAYER10
 62
     1
  6
CONTINUOUS
 10
2.6703
 20
0.7873
  0
VERTEX
  8
LAYER10
 62
     1
  6
CONTINUOUS
 10
2.6661
 20
0.7872
  0
VERTEX
  8
LAYER10
 62
     1
  6
CONTINUOUS
 10
2.6618
 20
0.7870
  0
VERTEX
  8
LAYER10
 62
     1
  6
CONTINUOUS
 10
2.6575
 20
0.7868
  0
VERTEX
  8
LAYER10
 62
     1
  6
CONTINUOUS
 10
2.6533
 20
0.7865
  0
VERTEX
  8
LAYER10
 62
     1
  6
CONTINUOUS
 10
2.6490
 20
0.7864
  0
VERTEX
  8
LAYER10
 62
     1
  6
CONTINUOUS
 10
2.6448
 20
0.7863
  0
VERTEX
  8
LAYER10
 62
     1
  6
CONTINUOUS
 10
2.6406
 20
0.7863
  0
VERTEX
  8
LAYER10
 62
     1
  6
CONTINUOUS
 10
2.6363
 20
0.7863
  0
VERTEX
  8
LAYER10
 62
     1
  6
CONTINUOUS
 10
2.6321
 20
0.7866
  0
VERTEX
  8
LAYER10
 62
     1
  6
CONTINUOUS
 10
2.6280
 20
0.7870
  0
VERTEX
  8
LAYER10
 62
     1
  6
CONTINUOUS
 10
2.6238
 20
0.7876
  0
VERTEX
  8
LAYER10
 62
     1
  6
CONTINUOUS
 10
2.6197
 20
0.7883
  0
VERTEX
  8
LAYER10
 62
     1
  6
CONTINUOUS
 10
2.6157
 20
0.7893
  0
VERTEX
  8
LAYER10
 62
     1
  6
CONTINUOUS
 10
2.6117
 20
0.7905
  0
VERTEX
  8
LAYER10
 62
     1
  6
CONTINUOUS
 10
2.6077
 20
0.7918
  0
VERTEX
  8
LAYER10
 62
     1
  6
CONTINUOUS
 10
2.6038
 20
0.7934
  0
VERTEX
  8
LAYER10
 62
     1
  6
CONTINUOUS
 10
2.6000
 20
0.7950
  0
VERTEX
  8
LAYER10
 62
     1
  6
CONTINUOUS
 10
2.5962
 20
0.7969
  0
VERTEX
  8
LAYER10
 62
     1
  6
CONTINUOUS
 10
2.5924
 20
0.7988
  0
VERTEX
  8
LAYER10
 62
     1
  6
CONTINUOUS
 10
2.5887
 20
0.8009
  0
VERTEX
  8
LAYER10
 62
     1
  6
CONTINUOUS
 10
2.5851
 20
0.8032
  0
VERTEX
  8
LAYER10
 62
     1
  6
CONTINUOUS
 10
2.5816
 20
0.8055
  0
VERTEX
  8
LAYER10
 62
     1
  6
CONTINUOUS
 10
2.5781
 20
0.8080
  0
VERTEX
  8
LAYER10
 62
     1
  6
CONTINUOUS
 10
2.5752
 20
0.8102
  0
VERTEX
  8
LAYER10
 62
     1
  6
CONTINUOUS
 10
2.5724
 20
0.8124
  0
VERTEX
  8
LAYER10
 62
     1
  6
CONTINUOUS
 10
2.5696
 20
0.8148
  0
VERTEX
  8
LAYER10
 62
     1
  6
CONTINUOUS
 10
2.5669
 20
0.8172
  0
VERTEX
  8
LAYER10
 62
     1
  6
CONTINUOUS
 10
2.5643
 20
0.8196
  0
VERTEX
  8
LAYER10
 62
     1
  6
CONTINUOUS
 10
2.5617
 20
0.8221
  0
VERTEX
  8
LAYER10
 62
     1
  6
CONTINUOUS
 10
2.5592
 20
0.8247
  0
VERTEX
  8
LAYER10
 62
     1
  6
CONTINUOUS
 10
2.5568
 20
0.8274
  0
VERTEX
  8
LAYER10
 62
     1
  6
CONTINUOUS
 10
2.5544
 20
0.8301
  0
VERTEX
  8
LAYER10
 62
     1
  6
CONTINUOUS
 10
2.5521
 20
0.8328
  0
VERTEX
  8
LAYER10
 62
     1
  6
CONTINUOUS
 10
2.5499
 20
0.8356
  0
VERTEX
  8
LAYER10
 62
     1
  6
CONTINUOUS
 10
2.5477
 20
0.8385
  0
VERTEX
  8
LAYER10
 62
     1
  6
CONTINUOUS
 10
2.5458
 20
0.8413
  0
VERTEX
  8
LAYER10
 62
     1
  6
CONTINUOUS
 10
2.5439
 20
0.8441
  0
VERTEX
  8
LAYER10
 62
     1
  6
CONTINUOUS
 10
2.5420
 20
0.8470
  0
VERTEX
  8
LAYER10
 62
     1
  6
CONTINUOUS
 10
2.5402
 20
0.8499
  0
VERTEX
  8
LAYER10
 62
     1
  6
CONTINUOUS
 10
2.5385
 20
0.8528
  0
VERTEX
  8
LAYER10
 62
     1
  6
CONTINUOUS
 10
2.5368
 20
0.8558
  0
VERTEX
  8
LAYER10
 62
     1
  6
CONTINUOUS
 10
2.5352
 20
0.8588
  0
VERTEX
  8
LAYER10
 62
     1
  6
CONTINUOUS
 10
2.5336
 20
0.8618
  0
VERTEX
  8
LAYER10
 62
     1
  6
CONTINUOUS
 10
2.5320
 20
0.8648
  0
VERTEX
  8
LAYER10
 62
     1
  6
CONTINUOUS
 10
2.5305
 20
0.8679
  0
VERTEX
  8
LAYER10
 62
     1
  6
CONTINUOUS
 10
2.5290
 20
0.8710
  0
VERTEX
  8
LAYER10
 62
     1
  6
CONTINUOUS
 10
2.5275
 20
0.8741
  0
VERTEX
  8
LAYER10
 62
     1
  6
CONTINUOUS
 10
2.5253
 20
0.8790
  0
VERTEX
  8
LAYER10
 62
     1
  6
CONTINUOUS
 10
2.5231
 20
0.8840
  0
VERTEX
  8
LAYER10
 62
     1
  6
CONTINUOUS
 10
2.5210
 20
0.8889
  0
VERTEX
  8
LAYER10
 62
     1
  6
CONTINUOUS
 10
2.5190
 20
0.8939
  0
VERTEX
  8
LAYER10
 62
     1
  6
CONTINUOUS
 10
2.5171
 20
0.8990
  0
VERTEX
  8
LAYER10
 62
     1
  6
CONTINUOUS
 10
2.5153
 20
0.9041
  0
VERTEX
  8
LAYER10
 62
     1
  6
CONTINUOUS
 10
2.5136
 20
0.9092
  0
VERTEX
  8
LAYER10
 62
     1
  6
CONTINUOUS
 10
2.5121
 20
0.9143
  0
VERTEX
  8
LAYER10
 62
     1
  6
CONTINUOUS
 10
2.5106
 20
0.9195
  0
VERTEX
  8
LAYER10
 62
     1
  6
CONTINUOUS
 10
2.5094
 20
0.9246
  0
VERTEX
  8
LAYER10
 62
     1
  6
CONTINUOUS
 10
2.5083
 20
0.9298
  0
VERTEX
  8
LAYER10
 62
     1
  6
CONTINUOUS
 10
2.5074
 20
0.9351
  0
VERTEX
  8
LAYER10
 62
     1
  6
CONTINUOUS
 10
2.5064
 20
0.9417
  0
VERTEX
  8
LAYER10
 62
     1
  6
CONTINUOUS
 10
2.5058
 20
0.9484
  0
VERTEX
  8
LAYER10
 62
     1
  6
CONTINUOUS
 10
2.5053
 20
0.9552
  0
VERTEX
  8
LAYER10
 62
     1
  6
CONTINUOUS
 10
2.5051
 20
0.9619
  0
VERTEX
  8
LAYER10
 62
     1
  6
CONTINUOUS
 10
2.5051
 20
0.9687
  0
VERTEX
  8
LAYER10
 62
     1
  6
CONTINUOUS
 10
2.5052
 20
0.9755
  0
VERTEX
  8
LAYER10
 62
     1
  6
CONTINUOUS
 10
2.5054
 20
0.9823
  0
VERTEX
  8
LAYER10
 62
     1
  6
CONTINUOUS
 10
2.5057
 20
0.9891
  0
VERTEX
  8
LAYER10
 62
     1
  6
CONTINUOUS
 10
2.5061
 20
0.9959
  0
VERTEX
  8
LAYER10
 62
     1
  6
CONTINUOUS
 10
2.5066
 20
1.0027
  0
VERTEX
  8
LAYER10
 62
     1
  6
CONTINUOUS
 10
2.5071
 20
1.0095
  0
VERTEX
  8
LAYER10
 62
     1
  6
CONTINUOUS
 10
2.5075
 20
1.0163
  0
VERTEX
  8
LAYER10
 62
     1
  6
CONTINUOUS
 10
2.5078
 20
1.0202
  0
VERTEX
  8
LAYER10
 62
     1
  6
CONTINUOUS
 10
2.5080
 20
1.0240
  0
VERTEX
  8
LAYER10
 62
     1
  6
CONTINUOUS
 10
2.5083
 20
1.0279
  0
VERTEX
  8
LAYER10
 62
     1
  6
CONTINUOUS
 10
2.5086
 20
1.0317
  0
VERTEX
  8
LAYER10
 62
     1
  6
CONTINUOUS
 10
2.5089
 20
1.0355
  0
VERTEX
  8
LAYER10
 62
     1
  6
CONTINUOUS
 10
2.5092
 20
1.0393
  0
VERTEX
  8
LAYER10
 62
     1
  6
CONTINUOUS
 10
2.5096
 20
1.0432
  0
VERTEX
  8
LAYER10
 62
     1
  6
CONTINUOUS
 10
2.5101
 20
1.0469
  0
VERTEX
  8
LAYER10
 62
     1
  6
CONTINUOUS
 10
2.5106
 20
1.0507
  0
VERTEX
  8
LAYER10
 62
     1
  6
CONTINUOUS
 10
2.5112
 20
1.0545
  0
VERTEX
  8
LAYER10
 62
     1
  6
CONTINUOUS
 10
2.5119
 20
1.0583
  0
VERTEX
  8
LAYER10
 62
     1
  6
CONTINUOUS
 10
2.5127
 20
1.0620
  0
VERTEX
  8
LAYER10
 62
     1
  6
CONTINUOUS
 10
2.5137
 20
1.0661
  0
VERTEX
  8
LAYER10
 62
     1
  6
CONTINUOUS
 10
2.5148
 20
1.0701
  0
VERTEX
  8
LAYER10
 62
     1
  6
CONTINUOUS
 10
2.5161
 20
1.0741
  0
VERTEX
  8
LAYER10
 62
     1
  6
CONTINUOUS
 10
2.5175
 20
1.0781
  0
VERTEX
  8
LAYER10
 62
     1
  6
CONTINUOUS
 10
2.5190
 20
1.0820
  0
VERTEX
  8
LAYER10
 62
     1
  6
CONTINUOUS
 10
2.5206
 20
1.0859
  0
VERTEX
  8
LAYER10
 62
     1
  6
CONTINUOUS
 10
2.5224
 20
1.0897
  0
VERTEX
  8
LAYER10
 62
     1
  6
CONTINUOUS
 10
2.5243
 20
1.0934
  0
VERTEX
  8
LAYER10
 62
     1
  6
CONTINUOUS
 10
2.5263
 20
1.0971
  0
VERTEX
  8
LAYER10
 62
     1
  6
CONTINUOUS
 10
2.5285
 20
1.1007
  0
VERTEX
  8
LAYER10
 62
     1
  6
CONTINUOUS
 10
2.5307
 20
1.1042
  0
VERTEX
  8
LAYER10
 62
     1
  6
CONTINUOUS
 10
2.5331
 20
1.1077
  0
VERTEX
  8
LAYER10
 62
     1
  6
CONTINUOUS
 10
2.5349
 20
1.1101
  0
VERTEX
  8
LAYER10
 62
     1
  6
CONTINUOUS
 10
2.5368
 20
1.1124
  0
VERTEX
  8
LAYER10
 62
     1
  6
CONTINUOUS
 10
2.5387
 20
1.1147
  0
VERTEX
  8
LAYER10
 62
     1
  6
CONTINUOUS
 10
2.5407
 20
1.1170
  0
VERTEX
  8
LAYER10
 62
     1
  6
CONTINUOUS
 10
2.5428
 20
1.1192
  0
VERTEX
  8
LAYER10
 62
     1
  6
CONTINUOUS
 10
2.5449
 20
1.1213
  0
VERTEX
  8
LAYER10
 62
     1
  6
CONTINUOUS
 10
2.5470
 20
1.1234
  0
VERTEX
  8
LAYER10
 62
     1
  6
CONTINUOUS
 10
2.5493
 20
1.1254
  0
VERTEX
  8
LAYER10
 62
     1
  6
CONTINUOUS
 10
2.5515
 20
1.1274
  0
VERTEX
  8
LAYER10
 62
     1
  6
CONTINUOUS
 10
2.5538
 20
1.1293
  0
VERTEX
  8
LAYER10
 62
     1
  6
CONTINUOUS
 10
2.5562
 20
1.1312
  0
VERTEX
  8
LAYER10
 62
     1
  6
CONTINUOUS
 10
2.5586
 20
1.1330
  0
VERTEX
  8
LAYER10
 62
     1
  6
CONTINUOUS
 10
2.5631
 20
1.1362
  0
VERTEX
  8
LAYER10
 62
     1
  6
CONTINUOUS
 10
2.5678
 20
1.1391
  0
VERTEX
  8
LAYER10
 62
     1
  6
CONTINUOUS
 10
2.5726
 20
1.1419
  0
VERTEX
  8
LAYER10
 62
     1
  6
CONTINUOUS
 10
2.5775
 20
1.1444
  0
VERTEX
  8
LAYER10
 62
     1
  6
CONTINUOUS
 10
2.5825
 20
1.1468
  0
VERTEX
  8
LAYER10
 62
     1
  6
CONTINUOUS
 10
2.5876
 20
1.1490
  0
VERTEX
  8
LAYER10
 62
     1
  6
CONTINUOUS
 10
2.5928
 20
1.1510
  0
VERTEX
  8
LAYER10
 62
     1
  6
CONTINUOUS
 10
2.5981
 20
1.1528
  0
VERTEX
  8
LAYER10
 62
     1
  6
CONTINUOUS
 10
2.6034
 20
1.1544
  0
VERTEX
  8
LAYER10
 62
     1
  6
CONTINUOUS
 10
2.6088
 20
1.1559
  0
VERTEX
  8
LAYER10
 62
     1
  6
CONTINUOUS
 10
2.6142
 20
1.1571
  0
VERTEX
  8
LAYER10
 62
     1
  6
CONTINUOUS
 10
2.6196
 20
1.1582
  0
VERTEX
  8
LAYER10
 62
     1
  6
CONTINUOUS
 10
2.6230
 20
1.1588
  0
VERTEX
  8
LAYER10
 62
     1
  6
CONTINUOUS
 10
2.6263
 20
1.1594
  0
VERTEX
  8
LAYER10
 62
     1
  6
CONTINUOUS
 10
2.6297
 20
1.1599
  0
VERTEX
  8
LAYER10
 62
     1
  6
CONTINUOUS
 10
2.6331
 20
1.1603
  0
VERTEX
  8
LAYER10
 62
     1
  6
CONTINUOUS
 10
2.6365
 20
1.1608
  0
VERTEX
  8
LAYER10
 62
     1
  6
CONTINUOUS
 10
2.6399
 20
1.1611
  0
VERTEX
  8
LAYER10
 62
     1
  6
CONTINUOUS
 10
2.6433
 20
1.1615
  0
VERTEX
  8
LAYER10
 62
     1
  6
CONTINUOUS
 10
2.6467
 20
1.1618
  0
VERTEX
  8
LAYER10
 62
     1
  6
CONTINUOUS
 10
2.6501
 20
1.1622
  0
VERTEX
  8
LAYER10
 62
     1
  6
CONTINUOUS
 10
2.6535
 20
1.1625
  0
VERTEX
  8
LAYER10
 62
     1
  6
CONTINUOUS
 10
2.6568
 20
1.1629
  0
VERTEX
  8
LAYER10
 62
     1
  6
CONTINUOUS
 10
2.6602
 20
1.1632
  0
VERTEX
  8
LAYER10
 62
     1
  6
CONTINUOUS
 10
2.6640
 20
1.1637
  0
VERTEX
  8
LAYER10
 62
     1
  6
CONTINUOUS
 10
2.6678
 20
1.1641
  0
VERTEX
  8
LAYER10
 62
     1
  6
CONTINUOUS
 10
2.6716
 20
1.1645
  0
VERTEX
  8
LAYER10
 62
     1
  6
CONTINUOUS
 10
2.6754
 20
1.1650
  0
VERTEX
  8
LAYER10
 62
     1
  6
CONTINUOUS
 10
2.6792
 20
1.1655
  0
VERTEX
  8
LAYER10
 62
     1
  6
CONTINUOUS
 10
2.6830
 20
1.1659
  0
VERTEX
  8
LAYER10
 62
     1
  6
CONTINUOUS
 10
2.6868
 20
1.1664
  0
VERTEX
  8
LAYER10
 62
     1
  6
CONTINUOUS
 10
2.6906
 20
1.1668
  0
VERTEX
  8
LAYER10
 62
     1
  6
CONTINUOUS
 10
2.6944
 20
1.1672
  0
VERTEX
  8
LAYER10
 62
     1
  6
CONTINUOUS
 10
2.6982
 20
1.1676
  0
VERTEX
  8
LAYER10
 62
     1
  6
CONTINUOUS
 10
2.7021
 20
1.1679
  0
VERTEX
  8
LAYER10
 62
     1
  6
CONTINUOUS
 10
2.7059
 20
1.1682
  0
VERTEX
  8
LAYER10
 62
     1
  6
CONTINUOUS
 10
2.7102
 20
1.1685
  0
VERTEX
  8
LAYER10
 62
     1
  6
CONTINUOUS
 10
2.7146
 20
1.1686
  0
VERTEX
  8
LAYER10
 62
     1
  6
CONTINUOUS
 10
2.7189
 20
1.1687
  0
VERTEX
  8
LAYER10
 62
     1
  6
CONTINUOUS
 10
2.7232
 20
1.1687
  0
VERTEX
  8
LAYER10
 62
     1
  6
CONTINUOUS
 10
2.7276
 20
1.1686
  0
VERTEX
  8
LAYER10
 62
     1
  6
CONTINUOUS
 10
2.7319
 20
1.1683
  0
VERTEX
  8
LAYER10
 62
     1
  6
CONTINUOUS
 10
2.7361
 20
1.1679
  0
VERTEX
  8
LAYER10
 62
     1
  6
CONTINUOUS
 10
2.7404
 20
1.1673
  0
VERTEX
  8
LAYER10
 62
     1
  6
CONTINUOUS
 10
2.7445
 20
1.1666
  0
VERTEX
  8
LAYER10
 62
     1
  6
CONTINUOUS
 10
2.7487
 20
1.1656
  0
VERTEX
  8
LAYER10
 62
     1
  6
CONTINUOUS
 10
2.7527
 20
1.1644
  0
VERTEX
  8
LAYER10
 62
     1
  6
CONTINUOUS
 10
2.7567
 20
1.1630
  0
VERTEX
  8
LAYER10
 62
     1
  6
CONTINUOUS
 10
2.7590
 20
1.1621
  0
VERTEX
  8
LAYER10
 62
     1
  6
CONTINUOUS
 10
2.7612
 20
1.1611
  0
VERTEX
  8
LAYER10
 62
     1
  6
CONTINUOUS
 10
2.7634
 20
1.1600
  0
VERTEX
  8
LAYER10
 62
     1
  6
CONTINUOUS
 10
2.7656
 20
1.1589
  0
VERTEX
  8
LAYER10
 62
     1
  6
CONTINUOUS
 10
2.7678
 20
1.1576
  0
VERTEX
  8
LAYER10
 62
     1
  6
CONTINUOUS
 10
2.7699
 20
1.1564
  0
VERTEX
  8
LAYER10
 62
     1
  6
CONTINUOUS
 10
2.7720
 20
1.1550
  0
VERTEX
  8
LAYER10
 62
     1
  6
CONTINUOUS
 10
2.7741
 20
1.1537
  0
VERTEX
  8
LAYER10
 62
     1
  6
CONTINUOUS
 10
2.7761
 20
1.1522
  0
VERTEX
  8
LAYER10
 62
     1
  6
CONTINUOUS
 10
2.7781
 20
1.1508
  0
VERTEX
  8
LAYER10
 62
     1
  6
CONTINUOUS
 10
2.7801
 20
1.1493
  0
VERTEX
  8
LAYER10
 62
     1
  6
CONTINUOUS
 10
2.7820
 20
1.1477
  0
VERTEX
  8
LAYER10
 62
     1
  6
CONTINUOUS
 10
2.7860
 20
1.1444
  0
VERTEX
  8
LAYER10
 62
     1
  6
CONTINUOUS
 10
2.7898
 20
1.1410
  0
VERTEX
  8
LAYER10
 62
     1
  6
CONTINUOUS
 10
2.7935
 20
1.1375
  0
VERTEX
  8
LAYER10
 62
     1
  6
CONTINUOUS
 10
2.7971
 20
1.1338
  0
VERTEX
  8
LAYER10
 62
     1
  6
CONTINUOUS
 10
2.8006
 20
1.1301
  0
VERTEX
  8
LAYER10
 62
     1
  6
CONTINUOUS
 10
2.8040
 20
1.1263
  0
VERTEX
  8
LAYER10
 62
     1
  6
CONTINUOUS
 10
2.8073
 20
1.1224
  0
VERTEX
  8
LAYER10
 62
     1
  6
CONTINUOUS
 10
2.8105
 20
1.1184
  0
VERTEX
  8
LAYER10
 62
     1
  6
CONTINUOUS
 10
2.8136
 20
1.1144
  0
VERTEX
  8
LAYER10
 62
     1
  6
CONTINUOUS
 10
2.8167
 20
1.1103
  0
VERTEX
  8
LAYER10
 62
     1
  6
CONTINUOUS
 10
2.8196
 20
1.1061
  0
VERTEX
  8
LAYER10
 62
     1
  6
CONTINUOUS
 10
2.8226
 20
1.1019
  0
SEQEND
  8
LAYER10
  0
POLYLINE
  8
LAYER12
 62
     5
 66
     1
  6
CONTINUOUS
  0
VERTEX
  8
LAYER12
 62
     5
  6
CONTINUOUS
 10
3.0752
 20
0.5459
  0
VERTEX
  8
LAYER12
 62
     5
  6
CONTINUOUS
 10
3.0752
 20
0.5459
  0
SEQEND
  8
LAYER12
  0
POLYLINE
  8
LAYER12
 62
     5
 66
     1
  6
CONTINUOUS
  0
VERTEX
  8
LAYER12
 62
     5
  6
CONTINUOUS
 10
3.0752
 20
0.5459
  0
VERTEX
  8
LAYER12
 62
     5
  6
CONTINUOUS
 10
3.0752
 20
0.5459
  0
SEQEND
  8
LAYER12
  0
POLYLINE
  8
LAYER12
 62
     5
 66
     1
  6
CONTINUOUS
  0
VERTEX
  8
LAYER12
 62
     5
  6
CONTINUOUS
 10
2.0522
 20
0.6773
  0
VERTEX
  8
LAYER12
 62
     5
  6
CONTINUOUS
 10
2.0522
 20
0.5459
  0
SEQEND
  8
LAYER12
  0
POLYLINE
  8
LAYER12
 62
     5
 66
     1
  6
CONTINUOUS
  0
VERTEX
  8
LAYER12
 62
     5
  6
CONTINUOUS
 10
2.0522
 20
0.5459
  0
VERTEX
  8
LAYER12
 62
     5
  6
CONTINUOUS
 10
2.0522
 20
0.5459
  0
SEQEND
  8
LAYER12
  0
POLYLINE
  8
LAYER12
 62
     5
 66
     1
  6
CONTINUOUS
  0
VERTEX
  8
LAYER12
 62
     5
  6
CONTINUOUS
 10
2.0522
 20
0.5459
  0
VERTEX
  8
LAYER12
 62
     5
  6
CONTINUOUS
 10
2.0522
 20
0.5459
  0
SEQEND
  8
LAYER12
  0
POLYLINE
  8
LAYER12
 62
     5
 66
     1
  6
CONTINUOUS
  0
VERTEX
  8
LAYER12
 62
     5
  6
CONTINUOUS
 10
2.0522
 20
0.5459
  0
VERTEX
  8
LAYER12
 62
     5
  6
CONTINUOUS
 10
2.0522
 20
0.5426
  0
SEQEND
  8
LAYER12
  0
POLYLINE
  8
LAYER12
 62
     5
 66
     1
  6
CONTINUOUS
  0
VERTEX
  8
LAYER12
 62
     5
  6
CONTINUOUS
 10
2.0492
 20
0.5426
  0
VERTEX
  8
LAYER12
 62
     5
  6
CONTINUOUS
 10
3.0752
 20
0.5426
  0
SEQEND
  8
LAYER12
  0
POLYLINE
  8
LAYER12
 62
     5
 66
     1
  6
CONTINUOUS
  0
VERTEX
  8
LAYER12
 62
     5
  6
CONTINUOUS
 10
2.0522
 20
1.5657
  0
VERTEX
  8
LAYER12
 62
     5
  6
CONTINUOUS
 10
2.0522
 20
0.6773
  0
SEQEND
  8
LAYER12
  0
POLYLINE
  8
LAYER12
 62
     5
 66
     1
  6
CONTINUOUS
  0
VERTEX
  8
LAYER12
 62
     5
  6
CONTINUOUS
 10
2.0668
 20
1.5657
  0
VERTEX
  8
LAYER12
 62
     5
  6
CONTINUOUS
 10
2.0492
 20
1.5657
  0
SEQEND
  8
LAYER12
  0
POLYLINE
  8
LAYER12
 62
     5
 66
     1
  6
CONTINUOUS
  0
VERTEX
  8
LAYER12
 62
     5
  6
CONTINUOUS
 10
3.0752
 20
0.5393
  0
VERTEX
  8
LAYER12
 62
     5
  6
CONTINUOUS
 10
3.0752
 20
0.5426
  0
SEQEND
  8
LAYER12
  0
POLYLINE
  8
LAYER12
 62
     5
 66
     1
  6
CONTINUOUS
  0
VERTEX
  8
LAYER12
 62
     5
  6
CONTINUOUS
 10
3.0752
 20
0.5426
  0
VERTEX
  8
LAYER12
 62
     5
  6
CONTINUOUS
 10
3.0752
 20
0.5459
  0
SEQEND
  8
LAYER12
  0
POLYLINE
  8
LAYER12
 62
     5
 66
     1
  6
CONTINUOUS
  0
VERTEX
  8
LAYER12
 62
     5
  6
CONTINUOUS
 10
3.0752
 20
0.5459
  0
VERTEX
  8
LAYER12
 62
     5
  6
CONTINUOUS
 10
3.0752
 20
0.6773
  0
SEQEND
  8
LAYER12
  0
POLYLINE
  8
LAYER12
 62
     5
 66
     1
  6
CONTINUOUS
  0
VERTEX
  8
LAYER12
 62
     5
  6
CONTINUOUS
 10
3.0752
 20
0.6773
  0
VERTEX
  8
LAYER12
 62
     5
  6
CONTINUOUS
 10
3.0752
 20
1.4490
  0
SEQEND
  8
LAYER12
  0
POLYLINE
  8
LAYER12
 62
     5
 66
     1
  6
CONTINUOUS
  0
VERTEX
  8
LAYER12
 62
     5
  6
CONTINUOUS
 10
2.0522
 20
1.5667
  0
VERTEX
  8
LAYER12
 62
     5
  6
CONTINUOUS
 10
2.0522
 20
1.5657
  0
SEQEND
  8
LAYER12
  0
POLYLINE
  8
LAYER12
 62
     5
 66
     1
  6
CONTINUOUS
  0
VERTEX
  8
LAYER12
 62
     5
  6
CONTINUOUS
 10
2.0522
 20
0.5426
  0
VERTEX
  8
LAYER12
 62
     5
  6
CONTINUOUS
 10
2.0522
 20
0.5393
  0
SEQEND
  8
LAYER12
  0
POLYLINE
  8
LAYER12
 62
     5
 66
     1
  6
CONTINUOUS
  0
VERTEX
  8
LAYER12
 62
     5
  6
CONTINUOUS
 10
3.0752
 20
1.5657
  0
VERTEX
  8
LAYER12
 62
     5
  6
CONTINUOUS
 10
2.0668
 20
1.5657
  0
SEQEND
  8
LAYER12
  0
POLYLINE
  8
LAYER12
 62
     5
 66
     1
  6
CONTINUOUS
  0
VERTEX
  8
LAYER12
 62
     5
  6
CONTINUOUS
 10
3.0752
 20
1.4490
  0
VERTEX
  8
LAYER12
 62
     5
  6
CONTINUOUS
 10
3.0752
 20
1.5667
  0
SEQEND
  8
LAYER12
  0
POLYLINE
  8
LAYER12
 62
     5
 66
     1
  6
CONTINUOUS
  0
VERTEX
  8
LAYER12
 62
     5
  6
CONTINUOUS
 10
3.0752
 20
1.5667
  0
VERTEX
  8
LAYER12
 62
     5
  6
CONTINUOUS
 10
3.0752
 20
1.5657
  0
SEQEND
  8
LAYER12
  0
POLYLINE
  8
LAYER12
 62
     5
 66
     1
  6
CONTINUOUS
  0
VERTEX
  8
LAYER12
 62
     5
  6
CONTINUOUS
 10
3.0752
 20
1.5657
  0
VERTEX
  8
LAYER12
 62
     5
  6
CONTINUOUS
 10
3.0752
 20
1.5667
  0
SEQEND
  8
LAYER12
  0
POLYLINE
  8
LAYER12
 62
     5
 66
     1
  6
CONTINUOUS
  0
VERTEX
  8
LAYER12
 62
     5
  6
CONTINUOUS
 10
3.0752
 20
1.5667
  0
VERTEX
  8
LAYER12
 62
     5
  6
CONTINUOUS
 10
3.0752
 20
1.5657
  0
SEQEND
  8
LAYER12
  0
POLYLINE
  8
LAYER12
 62
     5
 66
     1
  6
CONTINUOUS
  0
VERTEX
  8
LAYER12
 62
     5
  6
CONTINUOUS
 10
3.0752
 20
1.5657
  0
VERTEX
  8
LAYER12
 62
     5
  6
CONTINUOUS
 10
3.0752
 20
1.5667
  0
SEQEND
  8
LAYER12
  0
POLYLINE
  8
LAYER12
 62
     5
 66
     1
  6
CONTINUOUS
  0
VERTEX
  8
LAYER12
 62
     5
  6
CONTINUOUS
 10
3.0752
 20
1.5667
  0
VERTEX
  8
LAYER12
 62
     5
  6
CONTINUOUS
 10
3.0752
 20
1.5657
  0
SEQEND
  8
LAYER12
  0
ENDSEC
  0
EOF
