  0
SECTION
  2
HEADER
  9
$ACADVER
  1
AC1004
  9
$EXTMIN
 10
13.0274
 20
0.5356
  9
$EXTMAX
 10
13.3056
 20
1.5674
  9
$LIMMIN
 10
13.0274
 20
0.5356
  9
$LIMMAX
 10
13.3056
 20
1.5674
  9
$INSBASE
 10
0.0
 20
0.0
  9
$VIEWCTR
 10
7.21903
 20
4.5
  9
$VIEWSIZE
 40
9.0
  9
$SNAPMODE
 70
     0
  9
$SNAPUNIT
 10
1.0
 20
1.0
  9
$SNAPBASE
 10
0.0
 20
0.0
  9
$SNAPANG
 50
0.0
  9
$SNAPSTYLE
 70
     0
  9
$SNAPISOPAIR
 70
     0
  9
$GRIDMODE
 70
     0
  9
$GRIDUNIT
 10
0.0
 20
0.0
  9
$ORTHOMODE
 70
     0
  9
$REGENMODE
 70
     1
  9
$FILLMODE
 70
     1
  9
$QTEXTMODE
 70
     0
  9
$DRAGMODE
 70
     2
  9
$LTSCALE
 40
1.0
  9
$OSMODE
 70
     0
  9
$ATTMODE
 70
     1
  9
$TEXTSIZE
 40
0.2
  9
$TRACEWID
 40
0.05
  9
$TEXTSTYLE
  7
STANDARD
  9
$CLAYER
  8
0
  9
$CELTYPE
  6
BYLAYER
  9
$CECOLOR
 62
   256
  9
$DIMSCALE
 40
1.0
  9
$DIMASZ
 40
0.18
  9
$DIMEXO
 40
0.0625
  9
$DIMDLI
 40
0.38
  9
$DIMRND
 40
0.0
  9
$DIMDLE
 40
0.0
  9
$DIMEXE
 40
0.18
  9
$DIMTP
 40
0.0
  9
$DIMTM
 40
0.0
  9
$DIMTXT
 40
0.18
  9
$DIMCEN
 40
0.09
  9
$DIMTSZ
 40
0.0
  9
$DIMTOL
 70
     0
  9
$DIMLIM
 70
     0
  9
$DIMTIH
 70
     1
  9
$DIMTOH
 70
     1
  9
$DIMSE1
 70
     0
  9
$DIMSE2
 70
     0
  9
$DIMTAD
 70
     0
  9
$DIMZIN
 70
     0
  9
$DIMBLK
  1

  9
$DIMASO
 70
     1
  9
$DIMSHO
 70
     0
  9
$DIMPOST
  1

  9
$DIMAPOST
  1

  9
$DIMALT
 70
     0
  9
$DIMALTD
 70
     2
  9
$DIMALTF
 40
25.4
  9
$DIMLFAC
 40
1.0
  9
$LUNITS
 70
     2
  9
$LUPREC
 70
     4
  9
$AXISMODE
 70
     0
  9
$AXISUNIT
 10
0.0
 20
0.0
  9
$SKETCHINC
 40
0.1
  9
$FILLETRAD
 40
0.0
  9
$AUNITS
 70
     0
  9
$AUPREC
 70
     0
  9
$MENU
  1
acad
  9
$ELEVATION
 40
0.0
  9
$THICKNESS
 40
0.0
  9
$VIEWDIR
 10
0.0
 20
0.0
 30
1.0
  9
$LIMCHECK
 70
     0
  9
$BLIPMODE
 70
     1
  9
$CHAMFERA
 40
0.0
  9
$CHAMFERB
 40
0.0
  9
$FASTZOOM
 70
     1
  9
$SKPOLY
 70
     0
  9
$TDCREATE
 40
2447222.5666886573
  9
$TDUPDATE
 40
2447222.5666886573
  9
$TDINDWG
 40
0.0000000000
  9
$TDUSRTIMER
 40
0.0000000000
  9
$USRTIMER
 70
     1
  9
$ANGBASE
 50
0.0
  9
$ANGDIR
 70
     0
  9
$PDMODE
 70
     0
  9
$PDSIZE
 40
0.0
  9
$PLINEWID
 40
0.0
  9
$COORDS
 70
     0
  9
$SPLFRAME
 70
     0
  9
$SPLINESEGS
 70
     8
  9
$ATTDIA
 70
     0
  9
$ATTREQ
 70
     1
  9
$USERI1
 70
     0
  9
$USERI2
 70
     0
  9
$USERI3
 70
     0
  9
$USERI4
 70
     0
  9
$USERI5
 70
     0
  9
$USERR1
 40
0.0
  9
$USERR2
 40
0.0
  9
$USERR3
 40
0.0
  9
$USERR4
 40
0.0
  9
$USERR5
 40
0.0
  0
ENDSEC
  0
SECTION
  2
TABLES
  0
TABLE
  2
LTYPE
 70
     13
  0
LTYPE
  2
CONTINUOUS
 70
    64
  3
Solid line
 72
    65
 73
     0
 40
0.0
  0
LTYPE
  2
DASHED
 70
    64
  3
__ __ __ __ __ __ __ __ __ __ __ __ __ __ __
 72
    65
 73
     2
 40
0.75
 49
0.5
 49
-0.25
  0
LTYPE
  2
HIDDEN
 70
    64
  3
_ _ _ _ _ _ _ _ _ _ _ _ _ _ _ _ _ _ _ _ _ _ _
 72
    65
 73
     2
 40
0.375
 49
0.25
 49
-0.125
  0
LTYPE
  2
CENTER
 70
    64
  3
____ _ ____ _ ____ _ ____ _ ____ _ ____ _ ____
 72
    65
 73
     4
 40
2.0
 49
1.25
 49
-0.25
 49
0.25
 49
-0.25
  0
LTYPE
  2
PHANTOM
 70
    64
  3
_____ _ _ _____ _ _ _____ _ _ _____ _ _ ____
 72
    65
 73
     6
 40
2.5
 49
1.25
 49
-0.25
 49
0.25
 49
-0.25
 49
0.25
 49
-0.25
  0
LTYPE
  2
DOT
 70
    64
  3
...............................................
 72
    65
 73
     2
 40
0.25
 49
0.0
 49
-0.25
  0
LTYPE
  2
DASHDOT
 70
    64
  3
__ . __ . __ . __ . __ . __ . __ . __ . __ . __
 72
    65
 73
     4
 40
1.0
 49
0.5
 49
-0.25
 49
0.0
 49
-0.25
  0
LTYPE
  2
BORDER
 70
    64
  3
__ __ . __ __ . __ __ . __ __ . __ __ . __ __
 72
    65
 73
     6
 40
1.75
 49
0.5
 49
-0.25
 49
0.5
 49
-0.25
 49
0.0
 49
-0.25
  0
LTYPE
  2
DIVIDE
 70
    64
  3
__ . . __ . . __ . . __ . . __ . . __ . . __
 72
    65
 73
     6
 40
1.25
 49
0.5
 49
-0.25
 49
0.0
 49
-0.25
 49
0.0
 49
-0.25
  0
LTYPE
  2
DCTYPE1
 70
    64
  3
__ . . __ . . __ . . __ . . __ . . __ . . __
 72
    65
 73
     8
 40
2.5
 49
0.5
 49
-0.25
 49
0.125
 49
-0.25
 49
0.25
 49
-0.25
 49
0.125
 49
-0.25
  0
LTYPE
  2
DCTYPE2
 70
    64
  3
__ . . __ . . __ . . __ . . __ . . __ . . __
 72
    65
 73
     6
 40
2.05
 49
1.0
 49
-0.3
 49
0.15
 49
-0.15
 49
0.15
 49
-0.3
  0
LTYPE
  2
DCTYPE3
 70
    64
  3
__ . . __ . . __ . . __ . . __ . . __ . . __
 72
    65
 73
     6
 40
2.5
 49
0.8
 49
-0.2
 49
0.8
 49
-0.2
 49
0.3
 49
-0.2
  0
LTYPE
  2
DCTYPE4
 70
    64
  3
__ . . __ . . __ . . __ . . __ . . __ . . __
 72
    65
 73
     10
 40
3.97
 49
1.75
 49
-0.3
 49
0.3
 49
-0.3
 49
0.06
 49
-0.3
 49
0.06
 49
-0.3
 49
0.3
 49
-0.3
  0
ENDTAB
  0
TABLE
  2
LAYER
 70
    153
  0
LAYER
  2
LAYER1
 70
 64
 62
     7
  6
CONTINUOUS
  0
LAYER
  2
LAYER12
 70
 64
 62
     5
  6
CONTINUOUS
  0
ENDTAB
  0
ENDSEC
  0
SECTION
  2
BLOCKS
  0
ENDSEC
  0
SECTION
  2
ENTITIES
  0
CIRCLE
  8
LAYER1
 62
     7
  6
CONTINUOUS
 10
13.0638
 20
1.0282
 40
0.0125
  0
CIRCLE
  8
LAYER1
 62
     7
  6
CONTINUOUS
 10
13.1439
 20
1.2210
 40
0.0103
  0
CIRCLE
  8
LAYER1
 62
     7
  6
CONTINUOUS
 10
13.1902
 20
1.3162
 40
0.0150
  0
CIRCLE
  8
LAYER1
 62
     7
  6
CONTINUOUS
 10
13.2287
 20
1.4388
 40
0.0125
  0
CIRCLE
  8
LAYER1
 62
     7
  6
CONTINUOUS
 10
13.2307
 20
1.4812
 40
0.0103
  0
CIRCLE
  8
LAYER1
 62
     7
  6
CONTINUOUS
 10
13.1487
 20
1.4653
 40
0.0199
  0
CIRCLE
  8
LAYER1
 62
     7
  6
CONTINUOUS
 10
13.2749
 20
1.5464
 40
0.0167
  0
ARC
  8
LAYER1
 62
     7
  6
CONTINUOUS
 10
13.0226
 20
0.9306
 40
0.0103
 50
-36.6958
 51
36.6961
  0
ARC
  8
LAYER1
 62
     7
  6
CONTINUOUS
 10
13.0347
 20
1.4092
 40
0.0150
 50
-89.3604
 51
104.9719
  0
ARC
  8
LAYER1
 62
     7
  6
CONTINUOUS
 10
13.0347
 20
1.4092
 40
0.0150
 50
-104.9723
 51
-89.3604
  0
ARC
  8
LAYER1
 62
     7
  6
CONTINUOUS
 10
13.0219
 20
0.9879
 40
0.0079
 50
-46.0857
 51
46.1115
  0
ARC
  8
LAYER1
 62
     7
  6
CONTINUOUS
 10
13.3039
 20
1.3972
 40
0.0111
 50
117.2133
 51
-90.6178
  0
ARC
  8
LAYER1
 62
     7
  6
CONTINUOUS
 10
13.3039
 20
1.3972
 40
0.0111
 50
90.6177
 51
117.2110
  0
ARC
  8
LAYER1
 62
     7
  6
CONTINUOUS
 10
13.0226
 20
0.9306
 40
0.0103
 50
-62.0162
 51
-36.6947
  0
ARC
  8
LAYER1
 62
     7
  6
CONTINUOUS
 10
13.0226
 20
0.9306
 40
0.0103
 50
36.6961
 51
62.0174
  0
ARC
  8
LAYER1
 62
     7
  6
CONTINUOUS
 10
13.0347
 20
1.4092
 40
0.0150
 50
104.9723
 51
119.1467
  0
ARC
  8
LAYER1
 62
     7
  6
CONTINUOUS
 10
13.0347
 20
1.4092
 40
0.0149
 50
-119.1480
 51
-104.9731
  0
POLYLINE
  8
LAYER12
 62
     5
 66
     1
  6
CONTINUOUS
  0
VERTEX
  8
LAYER12
 62
     5
  6
CONTINUOUS
 10
13.0302
 20
0.5426
  0
VERTEX
  8
LAYER12
 62
     5
  6
CONTINUOUS
 10
13.0302
 20
0.5397
  0
SEQEND
  8
LAYER12
  0
POLYLINE
  8
LAYER12
 62
     5
 66
     1
  6
CONTINUOUS
  0
VERTEX
  8
LAYER12
 62
     5
  6
CONTINUOUS
 10
13.0302
 20
0.5426
  0
VERTEX
  8
LAYER12
 62
     5
  6
CONTINUOUS
 10
13.0302
 20
0.5432
  0
SEQEND
  8
LAYER12
  0
POLYLINE
  8
LAYER12
 62
     5
 66
     1
  6
CONTINUOUS
  0
VERTEX
  8
LAYER12
 62
     5
  6
CONTINUOUS
 10
13.0308
 20
0.5426
  0
VERTEX
  8
LAYER12
 62
     5
  6
CONTINUOUS
 10
13.0308
 20
0.5426
  0
SEQEND
  8
LAYER12
  0
POLYLINE
  8
LAYER12
 62
     5
 66
     1
  6
CONTINUOUS
  0
VERTEX
  8
LAYER12
 62
     5
  6
CONTINUOUS
 10
13.0308
 20
0.5426
  0
VERTEX
  8
LAYER12
 62
     5
  6
CONTINUOUS
 10
13.0302
 20
0.5426
  0
SEQEND
  8
LAYER12
  0
POLYLINE
  8
LAYER12
 62
     5
 66
     1
  6
CONTINUOUS
  0
VERTEX
  8
LAYER12
 62
     5
  6
CONTINUOUS
 10
13.3056
 20
1.5657
  0
VERTEX
  8
LAYER12
 62
     5
  6
CONTINUOUS
 10
13.3056
 20
1.5635
  0
SEQEND
  8
LAYER12
  0
POLYLINE
  8
LAYER12
 62
     5
 66
     1
  6
CONTINUOUS
  0
VERTEX
  8
LAYER12
 62
     5
  6
CONTINUOUS
 10
13.3056
 20
1.5635
  0
VERTEX
  8
LAYER12
 62
     5
  6
CONTINUOUS
 10
13.3056
 20
0.5426
  0
SEQEND
  8
LAYER12
  0
POLYLINE
  8
LAYER12
 62
     5
 66
     1
  6
CONTINUOUS
  0
VERTEX
  8
LAYER12
 62
     5
  6
CONTINUOUS
 10
13.0302
 20
1.5634
  0
VERTEX
  8
LAYER12
 62
     5
  6
CONTINUOUS
 10
13.0302
 20
1.5635
  0
SEQEND
  8
LAYER12
  0
POLYLINE
  8
LAYER12
 62
     5
 66
     1
  6
CONTINUOUS
  0
VERTEX
  8
LAYER12
 62
     5
  6
CONTINUOUS
 10
13.0302
 20
1.5635
  0
VERTEX
  8
LAYER12
 62
     5
  6
CONTINUOUS
 10
13.0302
 20
1.5670
  0
SEQEND
  8
LAYER12
  0
POLYLINE
  8
LAYER12
 62
     5
 66
     1
  6
CONTINUOUS
  0
VERTEX
  8
LAYER12
 62
     5
  6
CONTINUOUS
 10
13.0302
 20
0.5432
  0
VERTEX
  8
LAYER12
 62
     5
  6
CONTINUOUS
 10
13.0302
 20
1.5635
  0
SEQEND
  8
LAYER12
  0
POLYLINE
  8
LAYER12
 62
     5
 66
     1
  6
CONTINUOUS
  0
VERTEX
  8
LAYER12
 62
     5
  6
CONTINUOUS
 10
13.0302
 20
1.5635
  0
VERTEX
  8
LAYER12
 62
     5
  6
CONTINUOUS
 10
13.0302
 20
1.5634
  0
SEQEND
  8
LAYER12
  0
POLYLINE
  8
LAYER12
 62
     5
 66
     1
  6
CONTINUOUS
  0
VERTEX
  8
LAYER12
 62
     5
  6
CONTINUOUS
 10
13.0274
 20
0.5426
  0
VERTEX
  8
LAYER12
 62
     5
  6
CONTINUOUS
 10
13.0302
 20
0.5426
  0
SEQEND
  8
LAYER12
  0
POLYLINE
  8
LAYER12
 62
     5
 66
     1
  6
CONTINUOUS
  0
VERTEX
  8
LAYER12
 62
     5
  6
CONTINUOUS
 10
13.3056
 20
1.5657
  0
VERTEX
  8
LAYER12
 62
     5
  6
CONTINUOUS
 10
13.3038
 20
1.5657
  0
SEQEND
  8
LAYER12
  0
POLYLINE
  8
LAYER12
 62
     5
 66
     1
  6
CONTINUOUS
  0
VERTEX
  8
LAYER12
 62
     5
  6
CONTINUOUS
 10
13.3038
 20
1.5657
  0
VERTEX
  8
LAYER12
 62
     5
  6
CONTINUOUS
 10
13.0308
 20
1.5657
  0
SEQEND
  8
LAYER12
  0
POLYLINE
  8
LAYER12
 62
     5
 66
     1
  6
CONTINUOUS
  0
VERTEX
  8
LAYER12
 62
     5
  6
CONTINUOUS
 10
13.3056
 20
0.5426
  0
VERTEX
  8
LAYER12
 62
     5
  6
CONTINUOUS
 10
13.3038
 20
0.5426
  0
SEQEND
  8
LAYER12
  0
POLYLINE
  8
LAYER12
 62
     5
 66
     1
  6
CONTINUOUS
  0
VERTEX
  8
LAYER12
 62
     5
  6
CONTINUOUS
 10
13.3038
 20
0.5426
  0
VERTEX
  8
LAYER12
 62
     5
  6
CONTINUOUS
 10
13.0308
 20
0.5426
  0
SEQEND
  8
LAYER12
  0
POLYLINE
  8
LAYER12
 62
     5
 66
     1
  6
CONTINUOUS
  0
VERTEX
  8
LAYER12
 62
     5
  6
CONTINUOUS
 10
13.0302
 20
0.5397
  0
VERTEX
  8
LAYER12
 62
     5
  6
CONTINUOUS
 10
13.0302
 20
0.5356
  0
SEQEND
  8
LAYER12
  0
POLYLINE
  8
LAYER12
 62
     5
 66
     1
  6
CONTINUOUS
  0
VERTEX
  8
LAYER12
 62
     5
  6
CONTINUOUS
 10
13.0302
 20
1.5670
  0
VERTEX
  8
LAYER12
 62
     5
  6
CONTINUOUS
 10
13.0302
 20
1.5674
  0
SEQEND
  8
LAYER12
  0
POLYLINE
  8
LAYER12
 62
     5
 66
     1
  6
CONTINUOUS
  0
VERTEX
  8
LAYER12
 62
     5
  6
CONTINUOUS
 10
13.0308
 20
1.5657
  0
VERTEX
  8
LAYER12
 62
     5
  6
CONTINUOUS
 10
13.0274
 20
1.5657
  0
SEQEND
  8
LAYER12
  0
ENDSEC
  0
EOF
