  0
SECTION
  2
HEADER
  9
$ACADVER
  1
AC1004
  9
$EXTMIN
 10
4.0574
 20
1.5633
  9
$EXTMAX
 10
5.0426
 20
2.5508
  9
$LIMMIN
 10
4.0574
 20
1.5633
  9
$LIMMAX
 10
5.0426
 20
2.5508
  9
$INSBASE
 10
0.0
 20
0.0
  9
$VIEWCTR
 10
7.21903
 20
4.5
  9
$VIEWSIZE
 40
9.0
  9
$SNAPMODE
 70
     0
  9
$SNAPUNIT
 10
1.0
 20
1.0
  9
$SNAPBASE
 10
0.0
 20
0.0
  9
$SNAPANG
 50
0.0
  9
$SNAPSTYLE
 70
     0
  9
$SNAPISOPAIR
 70
     0
  9
$GRIDMODE
 70
     0
  9
$GRIDUNIT
 10
0.0
 20
0.0
  9
$ORTHOMODE
 70
     0
  9
$REGENMODE
 70
     1
  9
$FILLMODE
 70
     1
  9
$QTEXTMODE
 70
     0
  9
$DRAGMODE
 70
     2
  9
$LTSCALE
 40
1.0
  9
$OSMODE
 70
     0
  9
$ATTMODE
 70
     1
  9
$TEXTSIZE
 40
0.2
  9
$TRACEWID
 40
0.05
  9
$TEXTSTYLE
  7
STANDARD
  9
$CLAYER
  8
0
  9
$CELTYPE
  6
BYLAYER
  9
$CECOLOR
 62
   256
  9
$DIMSCALE
 40
1.0
  9
$DIMASZ
 40
0.18
  9
$DIMEXO
 40
0.0625
  9
$DIMDLI
 40
0.38
  9
$DIMRND
 40
0.0
  9
$DIMDLE
 40
0.0
  9
$DIMEXE
 40
0.18
  9
$DIMTP
 40
0.0
  9
$DIMTM
 40
0.0
  9
$DIMTXT
 40
0.18
  9
$DIMCEN
 40
0.09
  9
$DIMTSZ
 40
0.0
  9
$DIMTOL
 70
     0
  9
$DIMLIM
 70
     0
  9
$DIMTIH
 70
     1
  9
$DIMTOH
 70
     1
  9
$DIMSE1
 70
     0
  9
$DIMSE2
 70
     0
  9
$DIMTAD
 70
     0
  9
$DIMZIN
 70
     0
  9
$DIMBLK
  1

  9
$DIMASO
 70
     1
  9
$DIMSHO
 70
     0
  9
$DIMPOST
  1

  9
$DIMAPOST
  1

  9
$DIMALT
 70
     0
  9
$DIMALTD
 70
     2
  9
$DIMALTF
 40
25.4
  9
$DIMLFAC
 40
1.0
  9
$LUNITS
 70
     2
  9
$LUPREC
 70
     4
  9
$AXISMODE
 70
     0
  9
$AXISUNIT
 10
0.0
 20
0.0
  9
$SKETCHINC
 40
0.1
  9
$FILLETRAD
 40
0.0
  9
$AUNITS
 70
     0
  9
$AUPREC
 70
     0
  9
$MENU
  1
acad
  9
$ELEVATION
 40
0.0
  9
$THICKNESS
 40
0.0
  9
$VIEWDIR
 10
0.0
 20
0.0
 30
1.0
  9
$LIMCHECK
 70
     0
  9
$BLIPMODE
 70
     1
  9
$CHAMFERA
 40
0.0
  9
$CHAMFERB
 40
0.0
  9
$FASTZOOM
 70
     1
  9
$SKPOLY
 70
     0
  9
$TDCREATE
 40
2447222.5666886573
  9
$TDUPDATE
 40
2447222.5666886573
  9
$TDINDWG
 40
0.0000000000
  9
$TDUSRTIMER
 40
0.0000000000
  9
$USRTIMER
 70
     1
  9
$ANGBASE
 50
0.0
  9
$ANGDIR
 70
     0
  9
$PDMODE
 70
     0
  9
$PDSIZE
 40
0.0
  9
$PLINEWID
 40
0.0
  9
$COORDS
 70
     0
  9
$SPLFRAME
 70
     0
  9
$SPLINESEGS
 70
     8
  9
$ATTDIA
 70
     0
  9
$ATTREQ
 70
     1
  9
$USERI1
 70
     0
  9
$USERI2
 70
     0
  9
$USERI3
 70
     0
  9
$USERI4
 70
     0
  9
$USERI5
 70
     0
  9
$USERR1
 40
0.0
  9
$USERR2
 40
0.0
  9
$USERR3
 40
0.0
  9
$USERR4
 40
0.0
  9
$USERR5
 40
0.0
  0
ENDSEC
  0
SECTION
  2
TABLES
  0
TABLE
  2
LTYPE
 70
     13
  0
LTYPE
  2
CONTINUOUS
 70
    64
  3
Solid line
 72
    65
 73
     0
 40
0.0
  0
LTYPE
  2
DASHED
 70
    64
  3
__ __ __ __ __ __ __ __ __ __ __ __ __ __ __
 72
    65
 73
     2
 40
0.75
 49
0.5
 49
-0.25
  0
LTYPE
  2
HIDDEN
 70
    64
  3
_ _ _ _ _ _ _ _ _ _ _ _ _ _ _ _ _ _ _ _ _ _ _
 72
    65
 73
     2
 40
0.375
 49
0.25
 49
-0.125
  0
LTYPE
  2
CENTER
 70
    64
  3
____ _ ____ _ ____ _ ____ _ ____ _ ____ _ ____
 72
    65
 73
     4
 40
2.0
 49
1.25
 49
-0.25
 49
0.25
 49
-0.25
  0
LTYPE
  2
PHANTOM
 70
    64
  3
_____ _ _ _____ _ _ _____ _ _ _____ _ _ ____
 72
    65
 73
     6
 40
2.5
 49
1.25
 49
-0.25
 49
0.25
 49
-0.25
 49
0.25
 49
-0.25
  0
LTYPE
  2
DOT
 70
    64
  3
...............................................
 72
    65
 73
     2
 40
0.25
 49
0.0
 49
-0.25
  0
LTYPE
  2
DASHDOT
 70
    64
  3
__ . __ . __ . __ . __ . __ . __ . __ . __ . __
 72
    65
 73
     4
 40
1.0
 49
0.5
 49
-0.25
 49
0.0
 49
-0.25
  0
LTYPE
  2
BORDER
 70
    64
  3
__ __ . __ __ . __ __ . __ __ . __ __ . __ __
 72
    65
 73
     6
 40
1.75
 49
0.5
 49
-0.25
 49
0.5
 49
-0.25
 49
0.0
 49
-0.25
  0
LTYPE
  2
DIVIDE
 70
    64
  3
__ . . __ . . __ . . __ . . __ . . __ . . __
 72
    65
 73
     6
 40
1.25
 49
0.5
 49
-0.25
 49
0.0
 49
-0.25
 49
0.0
 49
-0.25
  0
LTYPE
  2
DCTYPE1
 70
    64
  3
__ . . __ . . __ . . __ . . __ . . __ . . __
 72
    65
 73
     8
 40
2.5
 49
0.5
 49
-0.25
 49
0.125
 49
-0.25
 49
0.25
 49
-0.25
 49
0.125
 49
-0.25
  0
LTYPE
  2
DCTYPE2
 70
    64
  3
__ . . __ . . __ . . __ . . __ . . __ . . __
 72
    65
 73
     6
 40
2.05
 49
1.0
 49
-0.3
 49
0.15
 49
-0.15
 49
0.15
 49
-0.3
  0
LTYPE
  2
DCTYPE3
 70
    64
  3
__ . . __ . . __ . . __ . . __ . . __ . . __
 72
    65
 73
     6
 40
2.5
 49
0.8
 49
-0.2
 49
0.8
 49
-0.2
 49
0.3
 49
-0.2
  0
LTYPE
  2
DCTYPE4
 70
    64
  3
__ . . __ . . __ . . __ . . __ . . __ . . __
 72
    65
 73
     10
 40
3.97
 49
1.75
 49
-0.3
 49
0.3
 49
-0.3
 49
0.06
 49
-0.3
 49
0.06
 49
-0.3
 49
0.3
 49
-0.3
  0
ENDTAB
  0
TABLE
  2
LAYER
 70
    153
  0
LAYER
  2
LAYER1
 70
 64
 62
     7
  6
CONTINUOUS
  0
LAYER
  2
LAYER12
 70
 64
 62
     5
  6
CONTINUOUS
  0
ENDTAB
  0
ENDSEC
  0
SECTION
  2
BLOCKS
  0
ENDSEC
  0
SECTION
  2
ENTITIES
  0
CIRCLE
  8
LAYER1
 62
     7
  6
CONTINUOUS
 10
4.7719
 20
2.3715
 40
0.0342
  0
CIRCLE
  8
LAYER1
 62
     7
  6
CONTINUOUS
 10
4.8433
 20
2.2541
 40
0.0100
  0
CIRCLE
  8
LAYER1
 62
     7
  6
CONTINUOUS
 10
4.8716
 20
2.1840
 40
0.0153
  0
CIRCLE
  8
LAYER1
 62
     7
  6
CONTINUOUS
 10
4.6937
 20
2.1422
 40
0.0318
  0
CIRCLE
  8
LAYER1
 62
     7
  6
CONTINUOUS
 10
4.6693
 20
2.3303
 40
0.0178
  0
CIRCLE
  8
LAYER1
 62
     7
  6
CONTINUOUS
 10
4.6131
 20
2.4353
 40
0.0146
  0
CIRCLE
  8
LAYER1
 62
     7
  6
CONTINUOUS
 10
4.0924
 20
2.5182
 40
0.0100
  0
CIRCLE
  8
LAYER1
 62
     7
  6
CONTINUOUS
 10
4.2436
 20
2.1931
 40
0.0202
  0
CIRCLE
  8
LAYER1
 62
     7
  6
CONTINUOUS
 10
4.1485
 20
2.1596
 40
0.0178
  0
CIRCLE
  8
LAYER1
 62
     7
  6
CONTINUOUS
 10
4.0774
 20
2.0707
 40
0.0154
  0
CIRCLE
  8
LAYER1
 62
     7
  6
CONTINUOUS
 10
4.0950
 20
1.9517
 40
0.0127
  0
CIRCLE
  8
LAYER1
 62
     7
  6
CONTINUOUS
 10
4.1152
 20
1.8632
 40
0.0152
  0
CIRCLE
  8
LAYER1
 62
     7
  6
CONTINUOUS
 10
4.1658
 20
1.8176
 40
0.0209
  0
CIRCLE
  8
LAYER1
 62
     7
  6
CONTINUOUS
 10
4.0923
 20
1.7240
 40
0.0279
  0
CIRCLE
  8
LAYER1
 62
     7
  6
CONTINUOUS
 10
4.4038
 20
2.0300
 40
0.0202
  0
CIRCLE
  8
LAYER1
 62
     7
  6
CONTINUOUS
 10
4.3405
 20
2.0073
 40
0.0229
  0
CIRCLE
  8
LAYER1
 62
     7
  6
CONTINUOUS
 10
4.7453
 20
1.9134
 40
0.0239
  0
CIRCLE
  8
LAYER1
 62
     7
  6
CONTINUOUS
 10
4.7200
 20
1.8754
 40
0.0218
  0
CIRCLE
  8
LAYER1
 62
     7
  6
CONTINUOUS
 10
4.7098
 20
1.7767
 40
0.0204
  0
POLYLINE
  8
LAYER1
 62
     7
 66
     1
  6
HIDDEN
  0
VERTEX
  8
LAYER1
 62
     7
  6
HIDDEN
 10
4.9656
 20
2.1359
  0
VERTEX
  8
LAYER1
 62
     7
  6
HIDDEN
 10
4.9672
 20
2.1334
  0
VERTEX
  8
LAYER1
 62
     7
  6
HIDDEN
 10
4.9686
 20
2.1308
  0
VERTEX
  8
LAYER1
 62
     7
  6
HIDDEN
 10
4.9697
 20
2.1280
  0
VERTEX
  8
LAYER1
 62
     7
  6
HIDDEN
 10
4.9706
 20
2.1251
  0
VERTEX
  8
LAYER1
 62
     7
  6
HIDDEN
 10
4.9713
 20
2.1222
  0
VERTEX
  8
LAYER1
 62
     7
  6
HIDDEN
 10
4.9718
 20
2.1191
  0
VERTEX
  8
LAYER1
 62
     7
  6
HIDDEN
 10
4.9720
 20
2.1160
  0
VERTEX
  8
LAYER1
 62
     7
  6
HIDDEN
 10
4.9721
 20
2.1129
  0
VERTEX
  8
LAYER1
 62
     7
  6
HIDDEN
 10
4.9720
 20
2.1097
  0
VERTEX
  8
LAYER1
 62
     7
  6
HIDDEN
 10
4.9717
 20
2.1066
  0
VERTEX
  8
LAYER1
 62
     7
  6
HIDDEN
 10
4.9713
 20
2.1035
  0
VERTEX
  8
LAYER1
 62
     7
  6
HIDDEN
 10
4.9706
 20
2.1005
  0
VERTEX
  8
LAYER1
 62
     7
  6
HIDDEN
 10
4.9697
 20
2.0971
  0
VERTEX
  8
LAYER1
 62
     7
  6
HIDDEN
 10
4.9686
 20
2.0938
  0
VERTEX
  8
LAYER1
 62
     7
  6
HIDDEN
 10
4.9673
 20
2.0906
  0
VERTEX
  8
LAYER1
 62
     7
  6
HIDDEN
 10
4.9658
 20
2.0874
  0
VERTEX
  8
LAYER1
 62
     7
  6
HIDDEN
 10
4.9642
 20
2.0844
  0
VERTEX
  8
LAYER1
 62
     7
  6
HIDDEN
 10
4.9625
 20
2.0814
  0
VERTEX
  8
LAYER1
 62
     7
  6
HIDDEN
 10
4.9606
 20
2.0785
  0
VERTEX
  8
LAYER1
 62
     7
  6
HIDDEN
 10
4.9587
 20
2.0757
  0
VERTEX
  8
LAYER1
 62
     7
  6
HIDDEN
 10
4.9567
 20
2.0730
  0
VERTEX
  8
LAYER1
 62
     7
  6
HIDDEN
 10
4.9546
 20
2.0703
  0
VERTEX
  8
LAYER1
 62
     7
  6
HIDDEN
 10
4.9525
 20
2.0676
  0
VERTEX
  8
LAYER1
 62
     7
  6
HIDDEN
 10
4.9504
 20
2.0651
  0
VERTEX
  8
LAYER1
 62
     7
  6
HIDDEN
 10
4.9485
 20
2.0628
  0
VERTEX
  8
LAYER1
 62
     7
  6
HIDDEN
 10
4.9466
 20
2.0607
  0
VERTEX
  8
LAYER1
 62
     7
  6
HIDDEN
 10
4.9446
 20
2.0585
  0
VERTEX
  8
LAYER1
 62
     7
  6
HIDDEN
 10
4.9427
 20
2.0564
  0
VERTEX
  8
LAYER1
 62
     7
  6
HIDDEN
 10
4.9407
 20
2.0543
  0
VERTEX
  8
LAYER1
 62
     7
  6
HIDDEN
 10
4.9387
 20
2.0522
  0
VERTEX
  8
LAYER1
 62
     7
  6
HIDDEN
 10
4.9366
 20
2.0501
  0
VERTEX
  8
LAYER1
 62
     7
  6
HIDDEN
 10
4.9344
 20
2.0481
  0
VERTEX
  8
LAYER1
 62
     7
  6
HIDDEN
 10
4.9322
 20
2.0460
  0
VERTEX
  8
LAYER1
 62
     7
  6
HIDDEN
 10
4.9299
 20
2.0439
  0
VERTEX
  8
LAYER1
 62
     7
  6
HIDDEN
 10
4.9275
 20
2.0419
  0
VERTEX
  8
LAYER1
 62
     7
  6
HIDDEN
 10
4.9250
 20
2.0398
  0
VERTEX
  8
LAYER1
 62
     7
  6
HIDDEN
 10
4.9234
 20
2.0384
  0
VERTEX
  8
LAYER1
 62
     7
  6
HIDDEN
 10
4.9218
 20
2.0371
  0
VERTEX
  8
LAYER1
 62
     7
  6
HIDDEN
 10
4.9201
 20
2.0359
  0
VERTEX
  8
LAYER1
 62
     7
  6
HIDDEN
 10
4.9184
 20
2.0346
  0
VERTEX
  8
LAYER1
 62
     7
  6
HIDDEN
 10
4.9167
 20
2.0335
  0
VERTEX
  8
LAYER1
 62
     7
  6
HIDDEN
 10
4.9149
 20
2.0325
  0
VERTEX
  8
LAYER1
 62
     7
  6
HIDDEN
 10
4.9132
 20
2.0316
  0
VERTEX
  8
LAYER1
 62
     7
  6
HIDDEN
 10
4.9115
 20
2.0308
  0
VERTEX
  8
LAYER1
 62
     7
  6
HIDDEN
 10
4.9098
 20
2.0302
  0
VERTEX
  8
LAYER1
 62
     7
  6
HIDDEN
 10
4.9081
 20
2.0298
  0
VERTEX
  8
LAYER1
 62
     7
  6
HIDDEN
 10
4.9064
 20
2.0296
  0
VERTEX
  8
LAYER1
 62
     7
  6
HIDDEN
 10
4.9048
 20
2.0297
  0
VERTEX
  8
LAYER1
 62
     7
  6
HIDDEN
 10
4.9030
 20
2.0300
  0
VERTEX
  8
LAYER1
 62
     7
  6
HIDDEN
 10
4.9012
 20
2.0306
  0
VERTEX
  8
LAYER1
 62
     7
  6
HIDDEN
 10
4.8995
 20
2.0315
  0
VERTEX
  8
LAYER1
 62
     7
  6
HIDDEN
 10
4.8978
 20
2.0326
  0
VERTEX
  8
LAYER1
 62
     7
  6
HIDDEN
 10
4.8962
 20
2.0338
  0
VERTEX
  8
LAYER1
 62
     7
  6
HIDDEN
 10
4.8945
 20
2.0353
  0
VERTEX
  8
LAYER1
 62
     7
  6
HIDDEN
 10
4.8929
 20
2.0368
  0
VERTEX
  8
LAYER1
 62
     7
  6
HIDDEN
 10
4.8912
 20
2.0384
  0
VERTEX
  8
LAYER1
 62
     7
  6
HIDDEN
 10
4.8896
 20
2.0400
  0
VERTEX
  8
LAYER1
 62
     7
  6
HIDDEN
 10
4.8879
 20
2.0417
  0
VERTEX
  8
LAYER1
 62
     7
  6
HIDDEN
 10
4.8863
 20
2.0433
  0
VERTEX
  8
LAYER1
 62
     7
  6
HIDDEN
 10
4.8846
 20
2.0449
  0
VERTEX
  8
LAYER1
 62
     7
  6
HIDDEN
 10
4.8828
 20
2.0463
  0
VERTEX
  8
LAYER1
 62
     7
  6
HIDDEN
 10
4.8811
 20
2.0477
  0
VERTEX
  8
LAYER1
 62
     7
  6
HIDDEN
 10
4.8793
 20
2.0490
  0
VERTEX
  8
LAYER1
 62
     7
  6
HIDDEN
 10
4.8776
 20
2.0503
  0
VERTEX
  8
LAYER1
 62
     7
  6
HIDDEN
 10
4.8758
 20
2.0515
  0
VERTEX
  8
LAYER1
 62
     7
  6
HIDDEN
 10
4.8741
 20
2.0527
  0
VERTEX
  8
LAYER1
 62
     7
  6
HIDDEN
 10
4.8724
 20
2.0539
  0
VERTEX
  8
LAYER1
 62
     7
  6
HIDDEN
 10
4.8707
 20
2.0551
  0
VERTEX
  8
LAYER1
 62
     7
  6
HIDDEN
 10
4.8690
 20
2.0563
  0
VERTEX
  8
LAYER1
 62
     7
  6
HIDDEN
 10
4.8674
 20
2.0575
  0
VERTEX
  8
LAYER1
 62
     7
  6
HIDDEN
 10
4.8658
 20
2.0587
  0
VERTEX
  8
LAYER1
 62
     7
  6
HIDDEN
 10
4.8643
 20
2.0600
  0
VERTEX
  8
LAYER1
 62
     7
  6
HIDDEN
 10
4.8620
 20
2.0623
  0
VERTEX
  8
LAYER1
 62
     7
  6
HIDDEN
 10
4.8599
 20
2.0647
  0
VERTEX
  8
LAYER1
 62
     7
  6
HIDDEN
 10
4.8580
 20
2.0673
  0
VERTEX
  8
LAYER1
 62
     7
  6
HIDDEN
 10
4.8561
 20
2.0700
  0
VERTEX
  8
LAYER1
 62
     7
  6
HIDDEN
 10
4.8544
 20
2.0729
  0
VERTEX
  8
LAYER1
 62
     7
  6
HIDDEN
 10
4.8528
 20
2.0758
  0
VERTEX
  8
LAYER1
 62
     7
  6
HIDDEN
 10
4.8512
 20
2.0789
  0
VERTEX
  8
LAYER1
 62
     7
  6
HIDDEN
 10
4.8497
 20
2.0821
  0
VERTEX
  8
LAYER1
 62
     7
  6
HIDDEN
 10
4.8483
 20
2.0853
  0
VERTEX
  8
LAYER1
 62
     7
  6
HIDDEN
 10
4.8469
 20
2.0887
  0
VERTEX
  8
LAYER1
 62
     7
  6
HIDDEN
 10
4.8455
 20
2.0920
  0
VERTEX
  8
LAYER1
 62
     7
  6
HIDDEN
 10
4.8441
 20
2.0955
  0
VERTEX
  8
LAYER1
 62
     7
  6
HIDDEN
 10
4.8432
 20
2.0977
  0
VERTEX
  8
LAYER1
 62
     7
  6
HIDDEN
 10
4.8423
 20
2.0999
  0
VERTEX
  8
LAYER1
 62
     7
  6
HIDDEN
 10
4.8415
 20
2.1021
  0
VERTEX
  8
LAYER1
 62
     7
  6
HIDDEN
 10
4.8407
 20
2.1043
  0
VERTEX
  8
LAYER1
 62
     7
  6
HIDDEN
 10
4.8400
 20
2.1064
  0
VERTEX
  8
LAYER1
 62
     7
  6
HIDDEN
 10
4.8394
 20
2.1086
  0
VERTEX
  8
LAYER1
 62
     7
  6
HIDDEN
 10
4.8389
 20
2.1107
  0
VERTEX
  8
LAYER1
 62
     7
  6
HIDDEN
 10
4.8386
 20
2.1128
  0
VERTEX
  8
LAYER1
 62
     7
  6
HIDDEN
 10
4.8384
 20
2.1149
  0
VERTEX
  8
LAYER1
 62
     7
  6
HIDDEN
 10
4.8384
 20
2.1169
  0
VERTEX
  8
LAYER1
 62
     7
  6
HIDDEN
 10
4.8386
 20
2.1189
  0
VERTEX
  8
LAYER1
 62
     7
  6
HIDDEN
 10
4.8391
 20
2.1208
  0
VERTEX
  8
LAYER1
 62
     7
  6
HIDDEN
 10
4.8397
 20
2.1226
  0
VERTEX
  8
LAYER1
 62
     7
  6
HIDDEN
 10
4.8406
 20
2.1243
  0
VERTEX
  8
LAYER1
 62
     7
  6
HIDDEN
 10
4.8416
 20
2.1261
  0
VERTEX
  8
LAYER1
 62
     7
  6
HIDDEN
 10
4.8428
 20
2.1277
  0
VERTEX
  8
LAYER1
 62
     7
  6
HIDDEN
 10
4.8441
 20
2.1294
  0
VERTEX
  8
LAYER1
 62
     7
  6
HIDDEN
 10
4.8455
 20
2.1310
  0
VERTEX
  8
LAYER1
 62
     7
  6
HIDDEN
 10
4.8470
 20
2.1326
  0
VERTEX
  8
LAYER1
 62
     7
  6
HIDDEN
 10
4.8485
 20
2.1343
  0
VERTEX
  8
LAYER1
 62
     7
  6
HIDDEN
 10
4.8500
 20
2.1359
  0
VERTEX
  8
LAYER1
 62
     7
  6
HIDDEN
 10
4.8515
 20
2.1376
  0
VERTEX
  8
LAYER1
 62
     7
  6
HIDDEN
 10
4.8529
 20
2.1393
  0
VERTEX
  8
LAYER1
 62
     7
  6
HIDDEN
 10
4.8543
 20
2.1410
  0
VERTEX
  8
LAYER1
 62
     7
  6
HIDDEN
 10
4.8552
 20
2.1423
  0
VERTEX
  8
LAYER1
 62
     7
  6
HIDDEN
 10
4.8560
 20
2.1436
  0
VERTEX
  8
LAYER1
 62
     7
  6
HIDDEN
 10
4.8569
 20
2.1450
  0
VERTEX
  8
LAYER1
 62
     7
  6
HIDDEN
 10
4.8577
 20
2.1463
  0
VERTEX
  8
LAYER1
 62
     7
  6
HIDDEN
 10
4.8584
 20
2.1476
  0
VERTEX
  8
LAYER1
 62
     7
  6
HIDDEN
 10
4.8592
 20
2.1489
  0
VERTEX
  8
LAYER1
 62
     7
  6
HIDDEN
 10
4.8600
 20
2.1502
  0
VERTEX
  8
LAYER1
 62
     7
  6
HIDDEN
 10
4.8608
 20
2.1515
  0
VERTEX
  8
LAYER1
 62
     7
  6
HIDDEN
 10
4.8616
 20
2.1528
  0
VERTEX
  8
LAYER1
 62
     7
  6
HIDDEN
 10
4.8625
 20
2.1540
  0
VERTEX
  8
LAYER1
 62
     7
  6
HIDDEN
 10
4.8634
 20
2.1551
  0
VERTEX
  8
LAYER1
 62
     7
  6
HIDDEN
 10
4.8644
 20
2.1562
  0
VERTEX
  8
LAYER1
 62
     7
  6
HIDDEN
 10
4.8662
 20
2.1580
  0
VERTEX
  8
LAYER1
 62
     7
  6
HIDDEN
 10
4.8683
 20
2.1595
  0
VERTEX
  8
LAYER1
 62
     7
  6
HIDDEN
 10
4.8705
 20
2.1609
  0
VERTEX
  8
LAYER1
 62
     7
  6
HIDDEN
 10
4.8729
 20
2.1621
  0
VERTEX
  8
LAYER1
 62
     7
  6
HIDDEN
 10
4.8754
 20
2.1631
  0
VERTEX
  8
LAYER1
 62
     7
  6
HIDDEN
 10
4.8780
 20
2.1640
  0
VERTEX
  8
LAYER1
 62
     7
  6
HIDDEN
 10
4.8807
 20
2.1647
  0
VERTEX
  8
LAYER1
 62
     7
  6
HIDDEN
 10
4.8835
 20
2.1653
  0
VERTEX
  8
LAYER1
 62
     7
  6
HIDDEN
 10
4.8863
 20
2.1657
  0
VERTEX
  8
LAYER1
 62
     7
  6
HIDDEN
 10
4.8891
 20
2.1661
  0
VERTEX
  8
LAYER1
 62
     7
  6
HIDDEN
 10
4.8919
 20
2.1662
  0
VERTEX
  8
LAYER1
 62
     7
  6
HIDDEN
 10
4.8948
 20
2.1663
  0
VERTEX
  8
LAYER1
 62
     7
  6
HIDDEN
 10
4.8970
 20
2.1663
  0
VERTEX
  8
LAYER1
 62
     7
  6
HIDDEN
 10
4.8992
 20
2.1662
  0
VERTEX
  8
LAYER1
 62
     7
  6
HIDDEN
 10
4.9014
 20
2.1660
  0
VERTEX
  8
LAYER1
 62
     7
  6
HIDDEN
 10
4.9036
 20
2.1658
  0
VERTEX
  8
LAYER1
 62
     7
  6
HIDDEN
 10
4.9058
 20
2.1655
  0
VERTEX
  8
LAYER1
 62
     7
  6
HIDDEN
 10
4.9079
 20
2.1651
  0
VERTEX
  8
LAYER1
 62
     7
  6
HIDDEN
 10
4.9100
 20
2.1646
  0
VERTEX
  8
LAYER1
 62
     7
  6
HIDDEN
 10
4.9121
 20
2.1641
  0
VERTEX
  8
LAYER1
 62
     7
  6
HIDDEN
 10
4.9141
 20
2.1635
  0
VERTEX
  8
LAYER1
 62
     7
  6
HIDDEN
 10
4.9161
 20
2.1628
  0
VERTEX
  8
LAYER1
 62
     7
  6
HIDDEN
 10
4.9181
 20
2.1621
  0
VERTEX
  8
LAYER1
 62
     7
  6
HIDDEN
 10
4.9201
 20
2.1612
  0
VERTEX
  8
LAYER1
 62
     7
  6
HIDDEN
 10
4.9218
 20
2.1604
  0
VERTEX
  8
LAYER1
 62
     7
  6
HIDDEN
 10
4.9234
 20
2.1596
  0
VERTEX
  8
LAYER1
 62
     7
  6
HIDDEN
 10
4.9251
 20
2.1587
  0
VERTEX
  8
LAYER1
 62
     7
  6
HIDDEN
 10
4.9267
 20
2.1578
  0
VERTEX
  8
LAYER1
 62
     7
  6
HIDDEN
 10
4.9284
 20
2.1569
  0
VERTEX
  8
LAYER1
 62
     7
  6
HIDDEN
 10
4.9301
 20
2.1559
  0
VERTEX
  8
LAYER1
 62
     7
  6
HIDDEN
 10
4.9317
 20
2.1550
  0
VERTEX
  8
LAYER1
 62
     7
  6
HIDDEN
 10
4.9334
 20
2.1541
  0
VERTEX
  8
LAYER1
 62
     7
  6
HIDDEN
 10
4.9351
 20
2.1533
  0
VERTEX
  8
LAYER1
 62
     7
  6
HIDDEN
 10
4.9368
 20
2.1525
  0
VERTEX
  8
LAYER1
 62
     7
  6
HIDDEN
 10
4.9385
 20
2.1518
  0
VERTEX
  8
LAYER1
 62
     7
  6
HIDDEN
 10
4.9403
 20
2.1511
  0
VERTEX
  8
LAYER1
 62
     7
  6
HIDDEN
 10
4.9416
 20
2.1507
  0
VERTEX
  8
LAYER1
 62
     7
  6
HIDDEN
 10
4.9428
 20
2.1503
  0
VERTEX
  8
LAYER1
 62
     7
  6
HIDDEN
 10
4.9441
 20
2.1499
  0
VERTEX
  8
LAYER1
 62
     7
  6
HIDDEN
 10
4.9454
 20
2.1496
  0
VERTEX
  8
LAYER1
 62
     7
  6
HIDDEN
 10
4.9467
 20
2.1492
  0
VERTEX
  8
LAYER1
 62
     7
  6
HIDDEN
 10
4.9480
 20
2.1489
  0
VERTEX
  8
LAYER1
 62
     7
  6
HIDDEN
 10
4.9493
 20
2.1485
  0
VERTEX
  8
LAYER1
 62
     7
  6
HIDDEN
 10
4.9506
 20
2.1481
  0
VERTEX
  8
LAYER1
 62
     7
  6
HIDDEN
 10
4.9518
 20
2.1476
  0
VERTEX
  8
LAYER1
 62
     7
  6
HIDDEN
 10
4.9531
 20
2.1472
  0
VERTEX
  8
LAYER1
 62
     7
  6
HIDDEN
 10
4.9543
 20
2.1466
  0
VERTEX
  8
LAYER1
 62
     7
  6
HIDDEN
 10
4.9555
 20
2.1460
  0
VERTEX
  8
LAYER1
 62
     7
  6
HIDDEN
 10
4.9565
 20
2.1454
  0
VERTEX
  8
LAYER1
 62
     7
  6
HIDDEN
 10
4.9575
 20
2.1448
  0
VERTEX
  8
LAYER1
 62
     7
  6
HIDDEN
 10
4.9585
 20
2.1441
  0
VERTEX
  8
LAYER1
 62
     7
  6
HIDDEN
 10
4.9594
 20
2.1433
  0
VERTEX
  8
LAYER1
 62
     7
  6
HIDDEN
 10
4.9603
 20
2.1425
  0
VERTEX
  8
LAYER1
 62
     7
  6
HIDDEN
 10
4.9612
 20
2.1416
  0
VERTEX
  8
LAYER1
 62
     7
  6
HIDDEN
 10
4.9620
 20
2.1408
  0
VERTEX
  8
LAYER1
 62
     7
  6
HIDDEN
 10
4.9628
 20
2.1398
  0
VERTEX
  8
LAYER1
 62
     7
  6
HIDDEN
 10
4.9636
 20
2.1389
  0
VERTEX
  8
LAYER1
 62
     7
  6
HIDDEN
 10
4.9643
 20
2.1379
  0
VERTEX
  8
LAYER1
 62
     7
  6
HIDDEN
 10
4.9650
 20
2.1369
  0
VERTEX
  8
LAYER1
 62
     7
  6
HIDDEN
 10
4.9656
 20
2.1359
  0
SEQEND
  8
LAYER1
  0
CIRCLE
  8
LAYER1
 62
     7
  6
CONTINUOUS
 10
4.6214
 20
1.6740
 40
0.0297
  0
CIRCLE
  8
LAYER1
 62
     7
  6
CONTINUOUS
 10
4.9820
 20
1.6986
 40
0.0250
  0
ARC
  8
LAYER1
 62
     7
  6
CONTINUOUS
 10
4.0569
 20
1.6810
 40
0.0104
 50
-76.0368
 51
-68.1042
  0
ARC
  8
LAYER1
 62
     7
  6
CONTINUOUS
 10
4.0569
 20
1.6810
 40
0.0104
 50
-68.1042
 51
68.1042
  0
ARC
  8
LAYER1
 62
     7
  6
CONTINUOUS
 10
4.0569
 20
1.6810
 40
0.0104
 50
-78.7635
 51
-76.0360
  0
ARC
  8
LAYER1
 62
     7
  6
CONTINUOUS
 10
4.0569
 20
1.6810
 40
0.0104
 50
68.1045
 51
78.7643
  0
ARC
  8
LAYER1
 62
     7
  6
CONTINUOUS
 10
4.0569
 20
1.6810
 40
0.0104
 50
78.7635
 51
86.9179
  0
ARC
  8
LAYER1
 62
     7
  6
CONTINUOUS
 10
4.0569
 20
1.6810
 40
0.0104
 50
-86.9176
 51
-78.7650
  0
POLYLINE
  8
LAYER12
 62
     5
 66
     1
  6
CONTINUOUS
  0
VERTEX
  8
LAYER12
 62
     5
  6
CONTINUOUS
 10
4.0608
 20
1.5657
  0
VERTEX
  8
LAYER12
 62
     5
  6
CONTINUOUS
 10
4.0589
 20
1.5657
  0
SEQEND
  8
LAYER12
  0
POLYLINE
  8
LAYER12
 62
     5
 66
     1
  6
CONTINUOUS
  0
VERTEX
  8
LAYER12
 62
     5
  6
CONTINUOUS
 10
4.0589
 20
1.5667
  0
VERTEX
  8
LAYER12
 62
     5
  6
CONTINUOUS
 10
4.0589
 20
1.5657
  0
SEQEND
  8
LAYER12
  0
POLYLINE
  8
LAYER12
 62
     5
 66
     1
  6
CONTINUOUS
  0
VERTEX
  8
LAYER12
 62
     5
  6
CONTINUOUS
 10
4.0589
 20
2.5494
  0
VERTEX
  8
LAYER12
 62
     5
  6
CONTINUOUS
 10
4.0589
 20
2.5494
  0
SEQEND
  8
LAYER12
  0
POLYLINE
  8
LAYER12
 62
     5
 66
     1
  6
CONTINUOUS
  0
VERTEX
  8
LAYER12
 62
     5
  6
CONTINUOUS
 10
4.0589
 20
2.5494
  0
VERTEX
  8
LAYER12
 62
     5
  6
CONTINUOUS
 10
4.0608
 20
2.5494
  0
SEQEND
  8
LAYER12
  0
POLYLINE
  8
LAYER12
 62
     5
 66
     1
  6
CONTINUOUS
  0
VERTEX
  8
LAYER12
 62
     5
  6
CONTINUOUS
 10
5.0426
 20
1.5657
  0
VERTEX
  8
LAYER12
 62
     5
  6
CONTINUOUS
 10
4.0608
 20
1.5657
  0
SEQEND
  8
LAYER12
  0
POLYLINE
  8
LAYER12
 62
     5
 66
     1
  6
CONTINUOUS
  0
VERTEX
  8
LAYER12
 62
     5
  6
CONTINUOUS
 10
4.0589
 20
1.5657
  0
VERTEX
  8
LAYER12
 62
     5
  6
CONTINUOUS
 10
4.0574
 20
1.5657
  0
SEQEND
  8
LAYER12
  0
POLYLINE
  8
LAYER12
 62
     5
 66
     1
  6
CONTINUOUS
  0
VERTEX
  8
LAYER12
 62
     5
  6
CONTINUOUS
 10
4.0589
 20
1.5657
  0
VERTEX
  8
LAYER12
 62
     5
  6
CONTINUOUS
 10
4.0589
 20
1.5633
  0
SEQEND
  8
LAYER12
  0
POLYLINE
  8
LAYER12
 62
     5
 66
     1
  6
CONTINUOUS
  0
VERTEX
  8
LAYER12
 62
     5
  6
CONTINUOUS
 10
4.0574
 20
2.5494
  0
VERTEX
  8
LAYER12
 62
     5
  6
CONTINUOUS
 10
4.0589
 20
2.5494
  0
SEQEND
  8
LAYER12
  0
POLYLINE
  8
LAYER12
 62
     5
 66
     1
  6
CONTINUOUS
  0
VERTEX
  8
LAYER12
 62
     5
  6
CONTINUOUS
 10
4.0608
 20
2.5494
  0
VERTEX
  8
LAYER12
 62
     5
  6
CONTINUOUS
 10
5.0426
 20
2.5494
  0
SEQEND
  8
LAYER12
  0
POLYLINE
  8
LAYER12
 62
     5
 66
     1
  6
CONTINUOUS
  0
VERTEX
  8
LAYER12
 62
     5
  6
CONTINUOUS
 10
5.0426
 20
2.5494
  0
VERTEX
  8
LAYER12
 62
     5
  6
CONTINUOUS
 10
5.0426
 20
2.5494
  0
SEQEND
  8
LAYER12
  0
POLYLINE
  8
LAYER12
 62
     5
 66
     1
  6
CONTINUOUS
  0
VERTEX
  8
LAYER12
 62
     5
  6
CONTINUOUS
 10
4.0589
 20
2.5508
  0
VERTEX
  8
LAYER12
 62
     5
  6
CONTINUOUS
 10
4.0589
 20
2.5508
  0
SEQEND
  8
LAYER12
  0
POLYLINE
  8
LAYER12
 62
     5
 66
     1
  6
CONTINUOUS
  0
VERTEX
  8
LAYER12
 62
     5
  6
CONTINUOUS
 10
4.0589
 20
2.5508
  0
VERTEX
  8
LAYER12
 62
     5
  6
CONTINUOUS
 10
4.0589
 20
2.5494
  0
SEQEND
  8
LAYER12
  0
POLYLINE
  8
LAYER12
 62
     5
 66
     1
  6
CONTINUOUS
  0
VERTEX
  8
LAYER12
 62
     5
  6
CONTINUOUS
 10
4.0589
 20
2.5494
  0
VERTEX
  8
LAYER12
 62
     5
  6
CONTINUOUS
 10
4.0589
 20
2.5508
  0
SEQEND
  8
LAYER12
  0
POLYLINE
  8
LAYER12
 62
     5
 66
     1
  6
CONTINUOUS
  0
VERTEX
  8
LAYER12
 62
     5
  6
CONTINUOUS
 10
4.0589
 20
2.5508
  0
VERTEX
  8
LAYER12
 62
     5
  6
CONTINUOUS
 10
4.0589
 20
2.5508
  0
SEQEND
  8
LAYER12
  0
POLYLINE
  8
LAYER12
 62
     5
 66
     1
  6
CONTINUOUS
  0
VERTEX
  8
LAYER12
 62
     5
  6
CONTINUOUS
 10
4.0589
 20
2.5508
  0
VERTEX
  8
LAYER12
 62
     5
  6
CONTINUOUS
 10
4.0589
 20
2.5508
  0
SEQEND
  8
LAYER12
  0
POLYLINE
  8
LAYER12
 62
     5
 66
     1
  6
CONTINUOUS
  0
VERTEX
  8
LAYER12
 62
     5
  6
CONTINUOUS
 10
4.0589
 20
2.5508
  0
VERTEX
  8
LAYER12
 62
     5
  6
CONTINUOUS
 10
4.0589
 20
1.5667
  0
SEQEND
  8
LAYER12
  0
POLYLINE
  8
LAYER12
 62
     5
 66
     1
  6
CONTINUOUS
  0
VERTEX
  8
LAYER12
 62
     5
  6
CONTINUOUS
 10
4.0589
 20
2.5508
  0
VERTEX
  8
LAYER12
 62
     5
  6
CONTINUOUS
 10
4.0589
 20
2.5494
  0
SEQEND
  8
LAYER12
  0
POLYLINE
  8
LAYER12
 62
     5
 66
     1
  6
CONTINUOUS
  0
VERTEX
  8
LAYER12
 62
     5
  6
CONTINUOUS
 10
4.0589
 20
2.5494
  0
VERTEX
  8
LAYER12
 62
     5
  6
CONTINUOUS
 10
4.0589
 20
2.5508
  0
SEQEND
  8
LAYER12
  0
POLYLINE
  8
LAYER12
 62
     5
 66
     1
  6
CONTINUOUS
  0
VERTEX
  8
LAYER12
 62
     5
  6
CONTINUOUS
 10
4.0589
 20
2.5508
  0
VERTEX
  8
LAYER12
 62
     5
  6
CONTINUOUS
 10
4.0589
 20
2.5508
  0
SEQEND
  8
LAYER12
  0
POLYLINE
  8
LAYER12
 62
     5
 66
     1
  6
CONTINUOUS
  0
VERTEX
  8
LAYER12
 62
     5
  6
CONTINUOUS
 10
5.0426
 20
1.5633
  0
VERTEX
  8
LAYER12
 62
     5
  6
CONTINUOUS
 10
5.0426
 20
1.5657
  0
SEQEND
  8
LAYER12
  0
POLYLINE
  8
LAYER12
 62
     5
 66
     1
  6
CONTINUOUS
  0
VERTEX
  8
LAYER12
 62
     5
  6
CONTINUOUS
 10
5.0426
 20
1.5657
  0
VERTEX
  8
LAYER12
 62
     5
  6
CONTINUOUS
 10
5.0426
 20
2.5508
  0
SEQEND
  8
LAYER12
  0
POLYLINE
  8
LAYER12
 62
     5
 66
     1
  6
CONTINUOUS
  0
VERTEX
  8
LAYER12
 62
     5
  6
CONTINUOUS
 10
5.0426
 20
2.5508
  0
VERTEX
  8
LAYER12
 62
     5
  6
CONTINUOUS
 10
5.0426
 20
2.5494
  0
SEQEND
  8
LAYER12
  0
POLYLINE
  8
LAYER12
 62
     5
 66
     1
  6
CONTINUOUS
  0
VERTEX
  8
LAYER12
 62
     5
  6
CONTINUOUS
 10
5.0426
 20
2.5494
  0
VERTEX
  8
LAYER12
 62
     5
  6
CONTINUOUS
 10
5.0426
 20
2.5508
  0
SEQEND
  8
LAYER12
  0
ENDSEC
  0
EOF
