  0
SECTION
  2
HEADER
  9
$ACADVER
  1
AC1004
  9
$EXTMIN
 10
8.0319
 20
1.5657
  9
$EXTMAX
 10
9.0561
 20
2.5511
  9
$LIMMIN
 10
8.0319
 20
1.5657
  9
$LIMMAX
 10
9.0561
 20
2.5511
  9
$INSBASE
 10
0.0
 20
0.0
  9
$VIEWCTR
 10
7.21903
 20
4.5
  9
$VIEWSIZE
 40
9.0
  9
$SNAPMODE
 70
     0
  9
$SNAPUNIT
 10
1.0
 20
1.0
  9
$SNAPBASE
 10
0.0
 20
0.0
  9
$SNAPANG
 50
0.0
  9
$SNAPSTYLE
 70
     0
  9
$SNAPISOPAIR
 70
     0
  9
$GRIDMODE
 70
     0
  9
$GRIDUNIT
 10
0.0
 20
0.0
  9
$ORTHOMODE
 70
     0
  9
$REGENMODE
 70
     1
  9
$FILLMODE
 70
     1
  9
$QTEXTMODE
 70
     0
  9
$DRAGMODE
 70
     2
  9
$LTSCALE
 40
1.0
  9
$OSMODE
 70
     0
  9
$ATTMODE
 70
     1
  9
$TEXTSIZE
 40
0.2
  9
$TRACEWID
 40
0.05
  9
$TEXTSTYLE
  7
STANDARD
  9
$CLAYER
  8
0
  9
$CELTYPE
  6
BYLAYER
  9
$CECOLOR
 62
   256
  9
$DIMSCALE
 40
1.0
  9
$DIMASZ
 40
0.18
  9
$DIMEXO
 40
0.0625
  9
$DIMDLI
 40
0.38
  9
$DIMRND
 40
0.0
  9
$DIMDLE
 40
0.0
  9
$DIMEXE
 40
0.18
  9
$DIMTP
 40
0.0
  9
$DIMTM
 40
0.0
  9
$DIMTXT
 40
0.18
  9
$DIMCEN
 40
0.09
  9
$DIMTSZ
 40
0.0
  9
$DIMTOL
 70
     0
  9
$DIMLIM
 70
     0
  9
$DIMTIH
 70
     1
  9
$DIMTOH
 70
     1
  9
$DIMSE1
 70
     0
  9
$DIMSE2
 70
     0
  9
$DIMTAD
 70
     0
  9
$DIMZIN
 70
     0
  9
$DIMBLK
  1

  9
$DIMASO
 70
     1
  9
$DIMSHO
 70
     0
  9
$DIMPOST
  1

  9
$DIMAPOST
  1

  9
$DIMALT
 70
     0
  9
$DIMALTD
 70
     2
  9
$DIMALTF
 40
25.4
  9
$DIMLFAC
 40
1.0
  9
$LUNITS
 70
     2
  9
$LUPREC
 70
     4
  9
$AXISMODE
 70
     0
  9
$AXISUNIT
 10
0.0
 20
0.0
  9
$SKETCHINC
 40
0.1
  9
$FILLETRAD
 40
0.0
  9
$AUNITS
 70
     0
  9
$AUPREC
 70
     0
  9
$MENU
  1
acad
  9
$ELEVATION
 40
0.0
  9
$THICKNESS
 40
0.0
  9
$VIEWDIR
 10
0.0
 20
0.0
 30
1.0
  9
$LIMCHECK
 70
     0
  9
$BLIPMODE
 70
     1
  9
$CHAMFERA
 40
0.0
  9
$CHAMFERB
 40
0.0
  9
$FASTZOOM
 70
     1
  9
$SKPOLY
 70
     0
  9
$TDCREATE
 40
2447222.5666886573
  9
$TDUPDATE
 40
2447222.5666886573
  9
$TDINDWG
 40
0.0000000000
  9
$TDUSRTIMER
 40
0.0000000000
  9
$USRTIMER
 70
     1
  9
$ANGBASE
 50
0.0
  9
$ANGDIR
 70
     0
  9
$PDMODE
 70
     0
  9
$PDSIZE
 40
0.0
  9
$PLINEWID
 40
0.0
  9
$COORDS
 70
     0
  9
$SPLFRAME
 70
     0
  9
$SPLINESEGS
 70
     8
  9
$ATTDIA
 70
     0
  9
$ATTREQ
 70
     1
  9
$USERI1
 70
     0
  9
$USERI2
 70
     0
  9
$USERI3
 70
     0
  9
$USERI4
 70
     0
  9
$USERI5
 70
     0
  9
$USERR1
 40
0.0
  9
$USERR2
 40
0.0
  9
$USERR3
 40
0.0
  9
$USERR4
 40
0.0
  9
$USERR5
 40
0.0
  0
ENDSEC
  0
SECTION
  2
TABLES
  0
TABLE
  2
LTYPE
 70
     13
  0
LTYPE
  2
CONTINUOUS
 70
    64
  3
Solid line
 72
    65
 73
     0
 40
0.0
  0
LTYPE
  2
DASHED
 70
    64
  3
__ __ __ __ __ __ __ __ __ __ __ __ __ __ __
 72
    65
 73
     2
 40
0.75
 49
0.5
 49
-0.25
  0
LTYPE
  2
HIDDEN
 70
    64
  3
_ _ _ _ _ _ _ _ _ _ _ _ _ _ _ _ _ _ _ _ _ _ _
 72
    65
 73
     2
 40
0.375
 49
0.25
 49
-0.125
  0
LTYPE
  2
CENTER
 70
    64
  3
____ _ ____ _ ____ _ ____ _ ____ _ ____ _ ____
 72
    65
 73
     4
 40
2.0
 49
1.25
 49
-0.25
 49
0.25
 49
-0.25
  0
LTYPE
  2
PHANTOM
 70
    64
  3
_____ _ _ _____ _ _ _____ _ _ _____ _ _ ____
 72
    65
 73
     6
 40
2.5
 49
1.25
 49
-0.25
 49
0.25
 49
-0.25
 49
0.25
 49
-0.25
  0
LTYPE
  2
DOT
 70
    64
  3
...............................................
 72
    65
 73
     2
 40
0.25
 49
0.0
 49
-0.25
  0
LTYPE
  2
DASHDOT
 70
    64
  3
__ . __ . __ . __ . __ . __ . __ . __ . __ . __
 72
    65
 73
     4
 40
1.0
 49
0.5
 49
-0.25
 49
0.0
 49
-0.25
  0
LTYPE
  2
BORDER
 70
    64
  3
__ __ . __ __ . __ __ . __ __ . __ __ . __ __
 72
    65
 73
     6
 40
1.75
 49
0.5
 49
-0.25
 49
0.5
 49
-0.25
 49
0.0
 49
-0.25
  0
LTYPE
  2
DIVIDE
 70
    64
  3
__ . . __ . . __ . . __ . . __ . . __ . . __
 72
    65
 73
     6
 40
1.25
 49
0.5
 49
-0.25
 49
0.0
 49
-0.25
 49
0.0
 49
-0.25
  0
LTYPE
  2
DCTYPE1
 70
    64
  3
__ . . __ . . __ . . __ . . __ . . __ . . __
 72
    65
 73
     8
 40
2.5
 49
0.5
 49
-0.25
 49
0.125
 49
-0.25
 49
0.25
 49
-0.25
 49
0.125
 49
-0.25
  0
LTYPE
  2
DCTYPE2
 70
    64
  3
__ . . __ . . __ . . __ . . __ . . __ . . __
 72
    65
 73
     6
 40
2.05
 49
1.0
 49
-0.3
 49
0.15
 49
-0.15
 49
0.15
 49
-0.3
  0
LTYPE
  2
DCTYPE3
 70
    64
  3
__ . . __ . . __ . . __ . . __ . . __ . . __
 72
    65
 73
     6
 40
2.5
 49
0.8
 49
-0.2
 49
0.8
 49
-0.2
 49
0.3
 49
-0.2
  0
LTYPE
  2
DCTYPE4
 70
    64
  3
__ . . __ . . __ . . __ . . __ . . __ . . __
 72
    65
 73
     10
 40
3.97
 49
1.75
 49
-0.3
 49
0.3
 49
-0.3
 49
0.06
 49
-0.3
 49
0.06
 49
-0.3
 49
0.3
 49
-0.3
  0
ENDTAB
  0
TABLE
  2
LAYER
 70
    153
  0
LAYER
  2
LAYER1
 70
 64
 62
     7
  6
CONTINUOUS
  0
LAYER
  2
LAYER12
 70
 64
 62
     5
  6
CONTINUOUS
  0
ENDTAB
  0
ENDSEC
  0
SECTION
  2
BLOCKS
  0
ENDSEC
  0
SECTION
  2
ENTITIES
  0
CIRCLE
  8
LAYER1
 62
     7
  6
CONTINUOUS
 10
8.4857
 20
1.8856
 40
0.0257
  0
CIRCLE
  8
LAYER1
 62
     7
  6
CONTINUOUS
 10
8.4041
 20
1.7066
 40
0.0206
  0
CIRCLE
  8
LAYER1
 62
     7
  6
CONTINUOUS
 10
8.5037
 20
1.7936
 40
0.0162
  0
CIRCLE
  8
LAYER1
 62
     7
  6
CONTINUOUS
 10
8.5549
 20
1.7093
 40
0.0138
  0
CIRCLE
  8
LAYER1
 62
     7
  6
CONTINUOUS
 10
8.8993
 20
2.3845
 40
0.0195
  0
CIRCLE
  8
LAYER1
 62
     7
  6
CONTINUOUS
 10
8.8841
 20
2.2209
 40
0.0108
  0
CIRCLE
  8
LAYER1
 62
     7
  6
CONTINUOUS
 10
8.6668
 20
2.2386
 40
0.0211
  0
ARC
  8
LAYER1
 62
     7
  6
CONTINUOUS
 10
8.0176
 20
2.2609
 40
0.0179
 50
-22.8414
 51
22.8407
  0
POLYLINE
  8
LAYER1
 62
     7
 66
     1
  6
CONTINUOUS
  0
VERTEX
  8
LAYER1
 62
     7
  6
CONTINUOUS
 10
8.5273
 20
2.5494
  0
VERTEX
  8
LAYER1
 62
     7
  6
CONTINUOUS
 10
8.5368
 20
2.5468
  0
VERTEX
  8
LAYER1
 62
     7
  6
CONTINUOUS
 10
8.5463
 20
2.5444
  0
VERTEX
  8
LAYER1
 62
     7
  6
CONTINUOUS
 10
8.5559
 20
2.5419
  0
VERTEX
  8
LAYER1
 62
     7
  6
CONTINUOUS
 10
8.5654
 20
2.5396
  0
VERTEX
  8
LAYER1
 62
     7
  6
CONTINUOUS
 10
8.5749
 20
2.5375
  0
VERTEX
  8
LAYER1
 62
     7
  6
CONTINUOUS
 10
8.5845
 20
2.5355
  0
VERTEX
  8
LAYER1
 62
     7
  6
CONTINUOUS
 10
8.5940
 20
2.5338
  0
VERTEX
  8
LAYER1
 62
     7
  6
CONTINUOUS
 10
8.6036
 20
2.5324
  0
VERTEX
  8
LAYER1
 62
     7
  6
CONTINUOUS
 10
8.6132
 20
2.5312
  0
VERTEX
  8
LAYER1
 62
     7
  6
CONTINUOUS
 10
8.6228
 20
2.5304
  0
VERTEX
  8
LAYER1
 62
     7
  6
CONTINUOUS
 10
8.6324
 20
2.5300
  0
VERTEX
  8
LAYER1
 62
     7
  6
CONTINUOUS
 10
8.6420
 20
2.5300
  0
VERTEX
  8
LAYER1
 62
     7
  6
CONTINUOUS
 10
8.6478
 20
2.5302
  0
VERTEX
  8
LAYER1
 62
     7
  6
CONTINUOUS
 10
8.6537
 20
2.5306
  0
VERTEX
  8
LAYER1
 62
     7
  6
CONTINUOUS
 10
8.6595
 20
2.5310
  0
VERTEX
  8
LAYER1
 62
     7
  6
CONTINUOUS
 10
8.6654
 20
2.5316
  0
VERTEX
  8
LAYER1
 62
     7
  6
CONTINUOUS
 10
8.6712
 20
2.5322
  0
VERTEX
  8
LAYER1
 62
     7
  6
CONTINUOUS
 10
8.6770
 20
2.5329
  0
VERTEX
  8
LAYER1
 62
     7
  6
CONTINUOUS
 10
8.6829
 20
2.5335
  0
VERTEX
  8
LAYER1
 62
     7
  6
CONTINUOUS
 10
8.6887
 20
2.5342
  0
VERTEX
  8
LAYER1
 62
     7
  6
CONTINUOUS
 10
8.6946
 20
2.5348
  0
VERTEX
  8
LAYER1
 62
     7
  6
CONTINUOUS
 10
8.7004
 20
2.5353
  0
VERTEX
  8
LAYER1
 62
     7
  6
CONTINUOUS
 10
8.7063
 20
2.5358
  0
VERTEX
  8
LAYER1
 62
     7
  6
CONTINUOUS
 10
8.7121
 20
2.5361
  0
VERTEX
  8
LAYER1
 62
     7
  6
CONTINUOUS
 10
8.7217
 20
2.5363
  0
VERTEX
  8
LAYER1
 62
     7
  6
CONTINUOUS
 10
8.7312
 20
2.5361
  0
VERTEX
  8
LAYER1
 62
     7
  6
CONTINUOUS
 10
8.7408
 20
2.5357
  0
VERTEX
  8
LAYER1
 62
     7
  6
CONTINUOUS
 10
8.7503
 20
2.5350
  0
VERTEX
  8
LAYER1
 62
     7
  6
CONTINUOUS
 10
8.7599
 20
2.5342
  0
VERTEX
  8
LAYER1
 62
     7
  6
CONTINUOUS
 10
8.7695
 20
2.5332
  0
VERTEX
  8
LAYER1
 62
     7
  6
CONTINUOUS
 10
8.7791
 20
2.5321
  0
VERTEX
  8
LAYER1
 62
     7
  6
CONTINUOUS
 10
8.7887
 20
2.5311
  0
VERTEX
  8
LAYER1
 62
     7
  6
CONTINUOUS
 10
8.7983
 20
2.5300
  0
VERTEX
  8
LAYER1
 62
     7
  6
CONTINUOUS
 10
8.8080
 20
2.5291
  0
VERTEX
  8
LAYER1
 62
     7
  6
CONTINUOUS
 10
8.8177
 20
2.5283
  0
VERTEX
  8
LAYER1
 62
     7
  6
CONTINUOUS
 10
8.8275
 20
2.5278
  0
VERTEX
  8
LAYER1
 62
     7
  6
CONTINUOUS
 10
8.8361
 20
2.5275
  0
VERTEX
  8
LAYER1
 62
     7
  6
CONTINUOUS
 10
8.8447
 20
2.5275
  0
VERTEX
  8
LAYER1
 62
     7
  6
CONTINUOUS
 10
8.8533
 20
2.5277
  0
VERTEX
  8
LAYER1
 62
     7
  6
CONTINUOUS
 10
8.8619
 20
2.5282
  0
VERTEX
  8
LAYER1
 62
     7
  6
CONTINUOUS
 10
8.8704
 20
2.5289
  0
VERTEX
  8
LAYER1
 62
     7
  6
CONTINUOUS
 10
8.8789
 20
2.5300
  0
VERTEX
  8
LAYER1
 62
     7
  6
CONTINUOUS
 10
8.8873
 20
2.5314
  0
VERTEX
  8
LAYER1
 62
     7
  6
CONTINUOUS
 10
8.8956
 20
2.5332
  0
VERTEX
  8
LAYER1
 62
     7
  6
CONTINUOUS
 10
8.9038
 20
2.5354
  0
VERTEX
  8
LAYER1
 62
     7
  6
CONTINUOUS
 10
8.9119
 20
2.5379
  0
VERTEX
  8
LAYER1
 62
     7
  6
CONTINUOUS
 10
8.9197
 20
2.5409
  0
VERTEX
  8
LAYER1
 62
     7
  6
CONTINUOUS
 10
8.9274
 20
2.5443
  0
VERTEX
  8
LAYER1
 62
     7
  6
CONTINUOUS
 10
8.9283
 20
2.5447
  0
VERTEX
  8
LAYER1
 62
     7
  6
CONTINUOUS
 10
8.9291
 20
2.5451
  0
VERTEX
  8
LAYER1
 62
     7
  6
CONTINUOUS
 10
8.9299
 20
2.5455
  0
VERTEX
  8
LAYER1
 62
     7
  6
CONTINUOUS
 10
8.9307
 20
2.5460
  0
VERTEX
  8
LAYER1
 62
     7
  6
CONTINUOUS
 10
8.9316
 20
2.5464
  0
VERTEX
  8
LAYER1
 62
     7
  6
CONTINUOUS
 10
8.9324
 20
2.5468
  0
VERTEX
  8
LAYER1
 62
     7
  6
CONTINUOUS
 10
8.9332
 20
2.5472
  0
VERTEX
  8
LAYER1
 62
     7
  6
CONTINUOUS
 10
8.9340
 20
2.5476
  0
VERTEX
  8
LAYER1
 62
     7
  6
CONTINUOUS
 10
8.9348
 20
2.5481
  0
VERTEX
  8
LAYER1
 62
     7
  6
CONTINUOUS
 10
8.9356
 20
2.5485
  0
VERTEX
  8
LAYER1
 62
     7
  6
CONTINUOUS
 10
8.9365
 20
2.5489
  0
VERTEX
  8
LAYER1
 62
     7
  6
CONTINUOUS
 10
8.9373
 20
2.5494
  0
SEQEND
  8
LAYER1
  0
POLYLINE
  8
LAYER1
 62
     7
 66
     1
  6
CONTINUOUS
  0
VERTEX
  8
LAYER1
 62
     7
  6
CONTINUOUS
 10
8.9405
 20
2.5511
  0
VERTEX
  8
LAYER1
 62
     7
  6
CONTINUOUS
 10
8.9405
 20
2.5511
  0
VERTEX
  8
LAYER1
 62
     7
  6
CONTINUOUS
 10
8.9405
 20
2.5511
  0
VERTEX
  8
LAYER1
 62
     7
  6
CONTINUOUS
 10
8.9405
 20
2.5511
  0
VERTEX
  8
LAYER1
 62
     7
  6
CONTINUOUS
 10
8.9405
 20
2.5511
  0
VERTEX
  8
LAYER1
 62
     7
  6
CONTINUOUS
 10
8.9405
 20
2.5511
  0
VERTEX
  8
LAYER1
 62
     7
  6
CONTINUOUS
 10
8.9405
 20
2.5511
  0
VERTEX
  8
LAYER1
 62
     7
  6
CONTINUOUS
 10
8.9405
 20
2.5511
  0
VERTEX
  8
LAYER1
 62
     7
  6
CONTINUOUS
 10
8.9405
 20
2.5511
  0
VERTEX
  8
LAYER1
 62
     7
  6
CONTINUOUS
 10
8.9405
 20
2.5511
  0
VERTEX
  8
LAYER1
 62
     7
  6
CONTINUOUS
 10
8.9405
 20
2.5511
  0
VERTEX
  8
LAYER1
 62
     7
  6
CONTINUOUS
 10
8.9405
 20
2.5511
  0
VERTEX
  8
LAYER1
 62
     7
  6
CONTINUOUS
 10
8.9405
 20
2.5511
  0
VERTEX
  8
LAYER1
 62
     7
  6
CONTINUOUS
 10
8.9405
 20
2.5511
  0
VERTEX
  8
LAYER1
 62
     7
  6
CONTINUOUS
 10
8.9405
 20
2.5511
  0
VERTEX
  8
LAYER1
 62
     7
  6
CONTINUOUS
 10
8.9405
 20
2.5511
  0
VERTEX
  8
LAYER1
 62
     7
  6
CONTINUOUS
 10
8.9405
 20
2.5511
  0
VERTEX
  8
LAYER1
 62
     7
  6
CONTINUOUS
 10
8.9405
 20
2.5511
  0
VERTEX
  8
LAYER1
 62
     7
  6
CONTINUOUS
 10
8.9405
 20
2.5511
  0
VERTEX
  8
LAYER1
 62
     7
  6
CONTINUOUS
 10
8.9405
 20
2.5511
  0
VERTEX
  8
LAYER1
 62
     7
  6
CONTINUOUS
 10
8.9405
 20
2.5511
  0
VERTEX
  8
LAYER1
 62
     7
  6
CONTINUOUS
 10
8.9405
 20
2.5511
  0
VERTEX
  8
LAYER1
 62
     7
  6
CONTINUOUS
 10
8.9405
 20
2.5511
  0
VERTEX
  8
LAYER1
 62
     7
  6
CONTINUOUS
 10
8.9405
 20
2.5511
  0
VERTEX
  8
LAYER1
 62
     7
  6
CONTINUOUS
 10
8.9405
 20
2.5511
  0
SEQEND
  8
LAYER1
  0
ARC
  8
LAYER1
 62
     7
  6
CONTINUOUS
 10
8.0176
 20
2.2609
 40
0.0179
 50
-30.0691
 51
-22.8407
  0
ARC
  8
LAYER1
 62
     7
  6
CONTINUOUS
 10
8.0176
 20
2.2609
 40
0.0179
 50
22.8407
 51
30.0691
  0
POLYLINE
  8
LAYER1
 62
     7
 66
     1
  6
CONTINUOUS
  0
VERTEX
  8
LAYER1
 62
     7
  6
CONTINUOUS
 10
8.5209
 20
2.5511
  0
VERTEX
  8
LAYER1
 62
     7
  6
CONTINUOUS
 10
8.5209
 20
2.5511
  0
VERTEX
  8
LAYER1
 62
     7
  6
CONTINUOUS
 10
8.5209
 20
2.5511
  0
VERTEX
  8
LAYER1
 62
     7
  6
CONTINUOUS
 10
8.5209
 20
2.5511
  0
VERTEX
  8
LAYER1
 62
     7
  6
CONTINUOUS
 10
8.5209
 20
2.5511
  0
VERTEX
  8
LAYER1
 62
     7
  6
CONTINUOUS
 10
8.5209
 20
2.5511
  0
VERTEX
  8
LAYER1
 62
     7
  6
CONTINUOUS
 10
8.5209
 20
2.5511
  0
VERTEX
  8
LAYER1
 62
     7
  6
CONTINUOUS
 10
8.5209
 20
2.5511
  0
VERTEX
  8
LAYER1
 62
     7
  6
CONTINUOUS
 10
8.5209
 20
2.5511
  0
VERTEX
  8
LAYER1
 62
     7
  6
CONTINUOUS
 10
8.5209
 20
2.5511
  0
VERTEX
  8
LAYER1
 62
     7
  6
CONTINUOUS
 10
8.5209
 20
2.5511
  0
VERTEX
  8
LAYER1
 62
     7
  6
CONTINUOUS
 10
8.5209
 20
2.5511
  0
VERTEX
  8
LAYER1
 62
     7
  6
CONTINUOUS
 10
8.5209
 20
2.5511
  0
VERTEX
  8
LAYER1
 62
     7
  6
CONTINUOUS
 10
8.5209
 20
2.5511
  0
VERTEX
  8
LAYER1
 62
     7
  6
CONTINUOUS
 10
8.5209
 20
2.5511
  0
VERTEX
  8
LAYER1
 62
     7
  6
CONTINUOUS
 10
8.5209
 20
2.5511
  0
VERTEX
  8
LAYER1
 62
     7
  6
CONTINUOUS
 10
8.5209
 20
2.5511
  0
VERTEX
  8
LAYER1
 62
     7
  6
CONTINUOUS
 10
8.5209
 20
2.5511
  0
VERTEX
  8
LAYER1
 62
     7
  6
CONTINUOUS
 10
8.5209
 20
2.5511
  0
VERTEX
  8
LAYER1
 62
     7
  6
CONTINUOUS
 10
8.5209
 20
2.5511
  0
VERTEX
  8
LAYER1
 62
     7
  6
CONTINUOUS
 10
8.5209
 20
2.5511
  0
VERTEX
  8
LAYER1
 62
     7
  6
CONTINUOUS
 10
8.5209
 20
2.5511
  0
VERTEX
  8
LAYER1
 62
     7
  6
CONTINUOUS
 10
8.5209
 20
2.5511
  0
VERTEX
  8
LAYER1
 62
     7
  6
CONTINUOUS
 10
8.5209
 20
2.5511
  0
VERTEX
  8
LAYER1
 62
     7
  6
CONTINUOUS
 10
8.5209
 20
2.5511
  0
SEQEND
  8
LAYER1
  0
POLYLINE
  8
LAYER1
 62
     7
 66
     1
  6
CONTINUOUS
  0
VERTEX
  8
LAYER1
 62
     7
  6
CONTINUOUS
 10
8.5209
 20
2.5511
  0
VERTEX
  8
LAYER1
 62
     7
  6
CONTINUOUS
 10
8.5209
 20
2.5511
  0
VERTEX
  8
LAYER1
 62
     7
  6
CONTINUOUS
 10
8.5209
 20
2.5511
  0
VERTEX
  8
LAYER1
 62
     7
  6
CONTINUOUS
 10
8.5209
 20
2.5511
  0
VERTEX
  8
LAYER1
 62
     7
  6
CONTINUOUS
 10
8.5209
 20
2.5511
  0
VERTEX
  8
LAYER1
 62
     7
  6
CONTINUOUS
 10
8.5209
 20
2.5511
  0
VERTEX
  8
LAYER1
 62
     7
  6
CONTINUOUS
 10
8.5209
 20
2.5511
  0
VERTEX
  8
LAYER1
 62
     7
  6
CONTINUOUS
 10
8.5209
 20
2.5511
  0
VERTEX
  8
LAYER1
 62
     7
  6
CONTINUOUS
 10
8.5209
 20
2.5511
  0
VERTEX
  8
LAYER1
 62
     7
  6
CONTINUOUS
 10
8.5209
 20
2.5511
  0
VERTEX
  8
LAYER1
 62
     7
  6
CONTINUOUS
 10
8.5209
 20
2.5511
  0
VERTEX
  8
LAYER1
 62
     7
  6
CONTINUOUS
 10
8.5209
 20
2.5511
  0
VERTEX
  8
LAYER1
 62
     7
  6
CONTINUOUS
 10
8.5209
 20
2.5511
  0
VERTEX
  8
LAYER1
 62
     7
  6
CONTINUOUS
 10
8.5209
 20
2.5511
  0
VERTEX
  8
LAYER1
 62
     7
  6
CONTINUOUS
 10
8.5209
 20
2.5511
  0
VERTEX
  8
LAYER1
 62
     7
  6
CONTINUOUS
 10
8.5209
 20
2.5511
  0
VERTEX
  8
LAYER1
 62
     7
  6
CONTINUOUS
 10
8.5209
 20
2.5511
  0
VERTEX
  8
LAYER1
 62
     7
  6
CONTINUOUS
 10
8.5209
 20
2.5511
  0
VERTEX
  8
LAYER1
 62
     7
  6
CONTINUOUS
 10
8.5209
 20
2.5511
  0
VERTEX
  8
LAYER1
 62
     7
  6
CONTINUOUS
 10
8.5209
 20
2.5511
  0
VERTEX
  8
LAYER1
 62
     7
  6
CONTINUOUS
 10
8.5209
 20
2.5511
  0
VERTEX
  8
LAYER1
 62
     7
  6
CONTINUOUS
 10
8.5209
 20
2.5511
  0
VERTEX
  8
LAYER1
 62
     7
  6
CONTINUOUS
 10
8.5209
 20
2.5511
  0
VERTEX
  8
LAYER1
 62
     7
  6
CONTINUOUS
 10
8.5209
 20
2.5511
  0
VERTEX
  8
LAYER1
 62
     7
  6
CONTINUOUS
 10
8.5209
 20
2.5511
  0
SEQEND
  8
LAYER1
  0
POLYLINE
  8
LAYER1
 62
     7
 66
     1
  6
CONTINUOUS
  0
VERTEX
  8
LAYER1
 62
     7
  6
CONTINUOUS
 10
8.9405
 20
2.5511
  0
VERTEX
  8
LAYER1
 62
     7
  6
CONTINUOUS
 10
8.9405
 20
2.5511
  0
VERTEX
  8
LAYER1
 62
     7
  6
CONTINUOUS
 10
8.9405
 20
2.5511
  0
VERTEX
  8
LAYER1
 62
     7
  6
CONTINUOUS
 10
8.9405
 20
2.5511
  0
VERTEX
  8
LAYER1
 62
     7
  6
CONTINUOUS
 10
8.9405
 20
2.5511
  0
VERTEX
  8
LAYER1
 62
     7
  6
CONTINUOUS
 10
8.9405
 20
2.5511
  0
VERTEX
  8
LAYER1
 62
     7
  6
CONTINUOUS
 10
8.9405
 20
2.5511
  0
VERTEX
  8
LAYER1
 62
     7
  6
CONTINUOUS
 10
8.9405
 20
2.5511
  0
VERTEX
  8
LAYER1
 62
     7
  6
CONTINUOUS
 10
8.9405
 20
2.5511
  0
VERTEX
  8
LAYER1
 62
     7
  6
CONTINUOUS
 10
8.9405
 20
2.5511
  0
VERTEX
  8
LAYER1
 62
     7
  6
CONTINUOUS
 10
8.9405
 20
2.5511
  0
VERTEX
  8
LAYER1
 62
     7
  6
CONTINUOUS
 10
8.9405
 20
2.5511
  0
VERTEX
  8
LAYER1
 62
     7
  6
CONTINUOUS
 10
8.9405
 20
2.5511
  0
VERTEX
  8
LAYER1
 62
     7
  6
CONTINUOUS
 10
8.9405
 20
2.5511
  0
VERTEX
  8
LAYER1
 62
     7
  6
CONTINUOUS
 10
8.9405
 20
2.5511
  0
VERTEX
  8
LAYER1
 62
     7
  6
CONTINUOUS
 10
8.9405
 20
2.5511
  0
VERTEX
  8
LAYER1
 62
     7
  6
CONTINUOUS
 10
8.9405
 20
2.5511
  0
VERTEX
  8
LAYER1
 62
     7
  6
CONTINUOUS
 10
8.9405
 20
2.5511
  0
VERTEX
  8
LAYER1
 62
     7
  6
CONTINUOUS
 10
8.9405
 20
2.5511
  0
VERTEX
  8
LAYER1
 62
     7
  6
CONTINUOUS
 10
8.9405
 20
2.5511
  0
VERTEX
  8
LAYER1
 62
     7
  6
CONTINUOUS
 10
8.9405
 20
2.5511
  0
VERTEX
  8
LAYER1
 62
     7
  6
CONTINUOUS
 10
8.9405
 20
2.5511
  0
VERTEX
  8
LAYER1
 62
     7
  6
CONTINUOUS
 10
8.9405
 20
2.5511
  0
VERTEX
  8
LAYER1
 62
     7
  6
CONTINUOUS
 10
8.9405
 20
2.5511
  0
VERTEX
  8
LAYER1
 62
     7
  6
CONTINUOUS
 10
8.9405
 20
2.5511
  0
SEQEND
  8
LAYER1
  0
POLYLINE
  8
LAYER1
 62
     7
 66
     1
  6
CONTINUOUS
  0
VERTEX
  8
LAYER1
 62
     7
  6
CONTINUOUS
 10
8.5209
 20
2.5511
  0
VERTEX
  8
LAYER1
 62
     7
  6
CONTINUOUS
 10
8.5209
 20
2.5511
  0
VERTEX
  8
LAYER1
 62
     7
  6
CONTINUOUS
 10
8.5209
 20
2.5511
  0
VERTEX
  8
LAYER1
 62
     7
  6
CONTINUOUS
 10
8.5209
 20
2.5511
  0
VERTEX
  8
LAYER1
 62
     7
  6
CONTINUOUS
 10
8.5209
 20
2.5511
  0
VERTEX
  8
LAYER1
 62
     7
  6
CONTINUOUS
 10
8.5209
 20
2.5511
  0
VERTEX
  8
LAYER1
 62
     7
  6
CONTINUOUS
 10
8.5209
 20
2.5511
  0
VERTEX
  8
LAYER1
 62
     7
  6
CONTINUOUS
 10
8.5209
 20
2.5511
  0
VERTEX
  8
LAYER1
 62
     7
  6
CONTINUOUS
 10
8.5209
 20
2.5511
  0
VERTEX
  8
LAYER1
 62
     7
  6
CONTINUOUS
 10
8.5209
 20
2.5511
  0
VERTEX
  8
LAYER1
 62
     7
  6
CONTINUOUS
 10
8.5209
 20
2.5511
  0
VERTEX
  8
LAYER1
 62
     7
  6
CONTINUOUS
 10
8.5209
 20
2.5511
  0
VERTEX
  8
LAYER1
 62
     7
  6
CONTINUOUS
 10
8.5209
 20
2.5511
  0
VERTEX
  8
LAYER1
 62
     7
  6
CONTINUOUS
 10
8.5209
 20
2.5511
  0
VERTEX
  8
LAYER1
 62
     7
  6
CONTINUOUS
 10
8.5209
 20
2.5511
  0
VERTEX
  8
LAYER1
 62
     7
  6
CONTINUOUS
 10
8.5209
 20
2.5511
  0
VERTEX
  8
LAYER1
 62
     7
  6
CONTINUOUS
 10
8.5209
 20
2.5511
  0
VERTEX
  8
LAYER1
 62
     7
  6
CONTINUOUS
 10
8.5209
 20
2.5511
  0
VERTEX
  8
LAYER1
 62
     7
  6
CONTINUOUS
 10
8.5209
 20
2.5511
  0
VERTEX
  8
LAYER1
 62
     7
  6
CONTINUOUS
 10
8.5209
 20
2.5511
  0
VERTEX
  8
LAYER1
 62
     7
  6
CONTINUOUS
 10
8.5209
 20
2.5511
  0
VERTEX
  8
LAYER1
 62
     7
  6
CONTINUOUS
 10
8.5209
 20
2.5511
  0
VERTEX
  8
LAYER1
 62
     7
  6
CONTINUOUS
 10
8.5209
 20
2.5511
  0
VERTEX
  8
LAYER1
 62
     7
  6
CONTINUOUS
 10
8.5209
 20
2.5511
  0
VERTEX
  8
LAYER1
 62
     7
  6
CONTINUOUS
 10
8.5209
 20
2.5511
  0
SEQEND
  8
LAYER1
  0
POLYLINE
  8
LAYER1
 62
     7
 66
     1
  6
CONTINUOUS
  0
VERTEX
  8
LAYER1
 62
     7
  6
CONTINUOUS
 10
8.5209
 20
2.5511
  0
VERTEX
  8
LAYER1
 62
     7
  6
CONTINUOUS
 10
8.5209
 20
2.5511
  0
VERTEX
  8
LAYER1
 62
     7
  6
CONTINUOUS
 10
8.5209
 20
2.5511
  0
VERTEX
  8
LAYER1
 62
     7
  6
CONTINUOUS
 10
8.5209
 20
2.5511
  0
VERTEX
  8
LAYER1
 62
     7
  6
CONTINUOUS
 10
8.5209
 20
2.5511
  0
VERTEX
  8
LAYER1
 62
     7
  6
CONTINUOUS
 10
8.5209
 20
2.5511
  0
VERTEX
  8
LAYER1
 62
     7
  6
CONTINUOUS
 10
8.5209
 20
2.5511
  0
VERTEX
  8
LAYER1
 62
     7
  6
CONTINUOUS
 10
8.5209
 20
2.5511
  0
VERTEX
  8
LAYER1
 62
     7
  6
CONTINUOUS
 10
8.5209
 20
2.5511
  0
VERTEX
  8
LAYER1
 62
     7
  6
CONTINUOUS
 10
8.5209
 20
2.5511
  0
VERTEX
  8
LAYER1
 62
     7
  6
CONTINUOUS
 10
8.5209
 20
2.5511
  0
VERTEX
  8
LAYER1
 62
     7
  6
CONTINUOUS
 10
8.5209
 20
2.5511
  0
VERTEX
  8
LAYER1
 62
     7
  6
CONTINUOUS
 10
8.5209
 20
2.5511
  0
VERTEX
  8
LAYER1
 62
     7
  6
CONTINUOUS
 10
8.5209
 20
2.5511
  0
VERTEX
  8
LAYER1
 62
     7
  6
CONTINUOUS
 10
8.5209
 20
2.5511
  0
VERTEX
  8
LAYER1
 62
     7
  6
CONTINUOUS
 10
8.5209
 20
2.5511
  0
VERTEX
  8
LAYER1
 62
     7
  6
CONTINUOUS
 10
8.5209
 20
2.5511
  0
VERTEX
  8
LAYER1
 62
     7
  6
CONTINUOUS
 10
8.5209
 20
2.5511
  0
VERTEX
  8
LAYER1
 62
     7
  6
CONTINUOUS
 10
8.5209
 20
2.5511
  0
VERTEX
  8
LAYER1
 62
     7
  6
CONTINUOUS
 10
8.5209
 20
2.5511
  0
VERTEX
  8
LAYER1
 62
     7
  6
CONTINUOUS
 10
8.5209
 20
2.5511
  0
VERTEX
  8
LAYER1
 62
     7
  6
CONTINUOUS
 10
8.5209
 20
2.5511
  0
VERTEX
  8
LAYER1
 62
     7
  6
CONTINUOUS
 10
8.5209
 20
2.5511
  0
VERTEX
  8
LAYER1
 62
     7
  6
CONTINUOUS
 10
8.5209
 20
2.5511
  0
VERTEX
  8
LAYER1
 62
     7
  6
CONTINUOUS
 10
8.5209
 20
2.5511
  0
SEQEND
  8
LAYER1
  0
POLYLINE
  8
LAYER1
 62
     7
 66
     1
  6
CONTINUOUS
  0
VERTEX
  8
LAYER1
 62
     7
  6
CONTINUOUS
 10
8.5209
 20
2.5511
  0
VERTEX
  8
LAYER1
 62
     7
  6
CONTINUOUS
 10
8.5215
 20
2.5509
  0
VERTEX
  8
LAYER1
 62
     7
  6
CONTINUOUS
 10
8.5222
 20
2.5507
  0
VERTEX
  8
LAYER1
 62
     7
  6
CONTINUOUS
 10
8.5229
 20
2.5506
  0
VERTEX
  8
LAYER1
 62
     7
  6
CONTINUOUS
 10
8.5236
 20
2.5504
  0
VERTEX
  8
LAYER1
 62
     7
  6
CONTINUOUS
 10
8.5242
 20
2.5502
  0
VERTEX
  8
LAYER1
 62
     7
  6
CONTINUOUS
 10
8.5248
 20
2.5500
  0
VERTEX
  8
LAYER1
 62
     7
  6
CONTINUOUS
 10
8.5253
 20
2.5499
  0
VERTEX
  8
LAYER1
 62
     7
  6
CONTINUOUS
 10
8.5258
 20
2.5498
  0
VERTEX
  8
LAYER1
 62
     7
  6
CONTINUOUS
 10
8.5263
 20
2.5496
  0
VERTEX
  8
LAYER1
 62
     7
  6
CONTINUOUS
 10
8.5267
 20
2.5495
  0
VERTEX
  8
LAYER1
 62
     7
  6
CONTINUOUS
 10
8.5270
 20
2.5494
  0
VERTEX
  8
LAYER1
 62
     7
  6
CONTINUOUS
 10
8.5273
 20
2.5494
  0
VERTEX
  8
LAYER1
 62
     7
  6
CONTINUOUS
 10
8.5274
 20
2.5493
  0
VERTEX
  8
LAYER1
 62
     7
  6
CONTINUOUS
 10
8.5275
 20
2.5493
  0
VERTEX
  8
LAYER1
 62
     7
  6
CONTINUOUS
 10
8.5276
 20
2.5493
  0
VERTEX
  8
LAYER1
 62
     7
  6
CONTINUOUS
 10
8.5276
 20
2.5493
  0
VERTEX
  8
LAYER1
 62
     7
  6
CONTINUOUS
 10
8.5276
 20
2.5493
  0
VERTEX
  8
LAYER1
 62
     7
  6
CONTINUOUS
 10
8.5276
 20
2.5493
  0
VERTEX
  8
LAYER1
 62
     7
  6
CONTINUOUS
 10
8.5276
 20
2.5493
  0
VERTEX
  8
LAYER1
 62
     7
  6
CONTINUOUS
 10
8.5275
 20
2.5493
  0
VERTEX
  8
LAYER1
 62
     7
  6
CONTINUOUS
 10
8.5275
 20
2.5493
  0
VERTEX
  8
LAYER1
 62
     7
  6
CONTINUOUS
 10
8.5274
 20
2.5493
  0
VERTEX
  8
LAYER1
 62
     7
  6
CONTINUOUS
 10
8.5274
 20
2.5493
  0
VERTEX
  8
LAYER1
 62
     7
  6
CONTINUOUS
 10
8.5273
 20
2.5494
  0
SEQEND
  8
LAYER1
  0
POLYLINE
  8
LAYER1
 62
     7
 66
     1
  6
CONTINUOUS
  0
VERTEX
  8
LAYER1
 62
     7
  6
CONTINUOUS
 10
8.9373
 20
2.5494
  0
VERTEX
  8
LAYER1
 62
     7
  6
CONTINUOUS
 10
8.9376
 20
2.5495
  0
VERTEX
  8
LAYER1
 62
     7
  6
CONTINUOUS
 10
8.9379
 20
2.5497
  0
VERTEX
  8
LAYER1
 62
     7
  6
CONTINUOUS
 10
8.9382
 20
2.5499
  0
VERTEX
  8
LAYER1
 62
     7
  6
CONTINUOUS
 10
8.9386
 20
2.5501
  0
VERTEX
  8
LAYER1
 62
     7
  6
CONTINUOUS
 10
8.9389
 20
2.5502
  0
VERTEX
  8
LAYER1
 62
     7
  6
CONTINUOUS
 10
8.9392
 20
2.5504
  0
VERTEX
  8
LAYER1
 62
     7
  6
CONTINUOUS
 10
8.9394
 20
2.5505
  0
VERTEX
  8
LAYER1
 62
     7
  6
CONTINUOUS
 10
8.9397
 20
2.5507
  0
VERTEX
  8
LAYER1
 62
     7
  6
CONTINUOUS
 10
8.9399
 20
2.5508
  0
VERTEX
  8
LAYER1
 62
     7
  6
CONTINUOUS
 10
8.9402
 20
2.5509
  0
VERTEX
  8
LAYER1
 62
     7
  6
CONTINUOUS
 10
8.9403
 20
2.5510
  0
VERTEX
  8
LAYER1
 62
     7
  6
CONTINUOUS
 10
8.9405
 20
2.5511
  0
VERTEX
  8
LAYER1
 62
     7
  6
CONTINUOUS
 10
8.9407
 20
2.5512
  0
VERTEX
  8
LAYER1
 62
     7
  6
CONTINUOUS
 10
8.9408
 20
2.5513
  0
VERTEX
  8
LAYER1
 62
     7
  6
CONTINUOUS
 10
8.9409
 20
2.5513
  0
VERTEX
  8
LAYER1
 62
     7
  6
CONTINUOUS
 10
8.9409
 20
2.5513
  0
VERTEX
  8
LAYER1
 62
     7
  6
CONTINUOUS
 10
8.9409
 20
2.5513
  0
VERTEX
  8
LAYER1
 62
     7
  6
CONTINUOUS
 10
8.9409
 20
2.5513
  0
VERTEX
  8
LAYER1
 62
     7
  6
CONTINUOUS
 10
8.9409
 20
2.5513
  0
VERTEX
  8
LAYER1
 62
     7
  6
CONTINUOUS
 10
8.9408
 20
2.5513
  0
VERTEX
  8
LAYER1
 62
     7
  6
CONTINUOUS
 10
8.9408
 20
2.5512
  0
VERTEX
  8
LAYER1
 62
     7
  6
CONTINUOUS
 10
8.9407
 20
2.5512
  0
VERTEX
  8
LAYER1
 62
     7
  6
CONTINUOUS
 10
8.9406
 20
2.5512
  0
VERTEX
  8
LAYER1
 62
     7
  6
CONTINUOUS
 10
8.9405
 20
2.5511
  0
SEQEND
  8
LAYER1
  0
POLYLINE
  8
LAYER1
 62
     7
 66
     1
  6
CONTINUOUS
  0
VERTEX
  8
LAYER1
 62
     7
  6
CONTINUOUS
 10
8.9405
 20
2.5511
  0
VERTEX
  8
LAYER1
 62
     7
  6
CONTINUOUS
 10
8.9405
 20
2.5511
  0
VERTEX
  8
LAYER1
 62
     7
  6
CONTINUOUS
 10
8.9405
 20
2.5511
  0
VERTEX
  8
LAYER1
 62
     7
  6
CONTINUOUS
 10
8.9405
 20
2.5511
  0
VERTEX
  8
LAYER1
 62
     7
  6
CONTINUOUS
 10
8.9405
 20
2.5511
  0
VERTEX
  8
LAYER1
 62
     7
  6
CONTINUOUS
 10
8.9405
 20
2.5511
  0
VERTEX
  8
LAYER1
 62
     7
  6
CONTINUOUS
 10
8.9405
 20
2.5511
  0
VERTEX
  8
LAYER1
 62
     7
  6
CONTINUOUS
 10
8.9405
 20
2.5511
  0
VERTEX
  8
LAYER1
 62
     7
  6
CONTINUOUS
 10
8.9405
 20
2.5511
  0
VERTEX
  8
LAYER1
 62
     7
  6
CONTINUOUS
 10
8.9405
 20
2.5511
  0
VERTEX
  8
LAYER1
 62
     7
  6
CONTINUOUS
 10
8.9405
 20
2.5511
  0
VERTEX
  8
LAYER1
 62
     7
  6
CONTINUOUS
 10
8.9405
 20
2.5511
  0
VERTEX
  8
LAYER1
 62
     7
  6
CONTINUOUS
 10
8.9405
 20
2.5511
  0
VERTEX
  8
LAYER1
 62
     7
  6
CONTINUOUS
 10
8.9405
 20
2.5511
  0
VERTEX
  8
LAYER1
 62
     7
  6
CONTINUOUS
 10
8.9405
 20
2.5511
  0
VERTEX
  8
LAYER1
 62
     7
  6
CONTINUOUS
 10
8.9405
 20
2.5511
  0
VERTEX
  8
LAYER1
 62
     7
  6
CONTINUOUS
 10
8.9405
 20
2.5511
  0
VERTEX
  8
LAYER1
 62
     7
  6
CONTINUOUS
 10
8.9405
 20
2.5511
  0
VERTEX
  8
LAYER1
 62
     7
  6
CONTINUOUS
 10
8.9405
 20
2.5511
  0
VERTEX
  8
LAYER1
 62
     7
  6
CONTINUOUS
 10
8.9405
 20
2.5511
  0
VERTEX
  8
LAYER1
 62
     7
  6
CONTINUOUS
 10
8.9405
 20
2.5511
  0
VERTEX
  8
LAYER1
 62
     7
  6
CONTINUOUS
 10
8.9405
 20
2.5511
  0
VERTEX
  8
LAYER1
 62
     7
  6
CONTINUOUS
 10
8.9405
 20
2.5511
  0
VERTEX
  8
LAYER1
 62
     7
  6
CONTINUOUS
 10
8.9405
 20
2.5511
  0
VERTEX
  8
LAYER1
 62
     7
  6
CONTINUOUS
 10
8.9405
 20
2.5511
  0
SEQEND
  8
LAYER1
  0
ARC
  8
LAYER1
 62
     7
  6
CONTINUOUS
 10
8.0176
 20
2.2609
 40
0.0179
 50
-36.4851
 51
-30.0687
  0
ARC
  8
LAYER1
 62
     7
  6
CONTINUOUS
 10
8.0176
 20
2.2609
 40
0.0179
 50
30.0685
 51
36.4839
  0
POLYLINE
  8
LAYER12
 62
     5
 66
     1
  6
CONTINUOUS
  0
VERTEX
  8
LAYER12
 62
     5
  6
CONTINUOUS
 10
8.0340
 20
1.5657
  0
VERTEX
  8
LAYER12
 62
     5
  6
CONTINUOUS
 10
8.0330
 20
1.5657
  0
SEQEND
  8
LAYER12
  0
POLYLINE
  8
LAYER12
 62
     5
 66
     1
  6
CONTINUOUS
  0
VERTEX
  8
LAYER12
 62
     5
  6
CONTINUOUS
 10
8.0330
 20
1.5661
  0
VERTEX
  8
LAYER12
 62
     5
  6
CONTINUOUS
 10
8.0330
 20
1.5657
  0
SEQEND
  8
LAYER12
  0
POLYLINE
  8
LAYER12
 62
     5
 66
     1
  6
CONTINUOUS
  0
VERTEX
  8
LAYER12
 62
     5
  6
CONTINUOUS
 10
8.0330
 20
2.5494
  0
VERTEX
  8
LAYER12
 62
     5
  6
CONTINUOUS
 10
8.0330
 20
2.5494
  0
SEQEND
  8
LAYER12
  0
POLYLINE
  8
LAYER12
 62
     5
 66
     1
  6
CONTINUOUS
  0
VERTEX
  8
LAYER12
 62
     5
  6
CONTINUOUS
 10
8.0330
 20
2.5494
  0
VERTEX
  8
LAYER12
 62
     5
  6
CONTINUOUS
 10
8.0340
 20
2.5494
  0
SEQEND
  8
LAYER12
  0
POLYLINE
  8
LAYER12
 62
     5
 66
     1
  6
CONTINUOUS
  0
VERTEX
  8
LAYER12
 62
     5
  6
CONTINUOUS
 10
9.0561
 20
1.5657
  0
VERTEX
  8
LAYER12
 62
     5
  6
CONTINUOUS
 10
8.0340
 20
1.5657
  0
SEQEND
  8
LAYER12
  0
POLYLINE
  8
LAYER12
 62
     5
 66
     1
  6
CONTINUOUS
  0
VERTEX
  8
LAYER12
 62
     5
  6
CONTINUOUS
 10
8.0330
 20
1.5657
  0
VERTEX
  8
LAYER12
 62
     5
  6
CONTINUOUS
 10
8.0319
 20
1.5657
  0
SEQEND
  8
LAYER12
  0
POLYLINE
  8
LAYER12
 62
     5
 66
     1
  6
CONTINUOUS
  0
VERTEX
  8
LAYER12
 62
     5
  6
CONTINUOUS
 10
8.0340
 20
2.5494
  0
VERTEX
  8
LAYER12
 62
     5
  6
CONTINUOUS
 10
9.0561
 20
2.5494
  0
SEQEND
  8
LAYER12
  0
POLYLINE
  8
LAYER12
 62
     5
 66
     1
  6
CONTINUOUS
  0
VERTEX
  8
LAYER12
 62
     5
  6
CONTINUOUS
 10
9.0561
 20
2.5494
  0
VERTEX
  8
LAYER12
 62
     5
  6
CONTINUOUS
 10
9.0561
 20
2.5494
  0
SEQEND
  8
LAYER12
  0
POLYLINE
  8
LAYER12
 62
     5
 66
     1
  6
CONTINUOUS
  0
VERTEX
  8
LAYER12
 62
     5
  6
CONTINUOUS
 10
9.0561
 20
2.5494
  0
VERTEX
  8
LAYER12
 62
     5
  6
CONTINUOUS
 10
9.0561
 20
2.5494
  0
SEQEND
  8
LAYER12
  0
POLYLINE
  8
LAYER12
 62
     5
 66
     1
  6
CONTINUOUS
  0
VERTEX
  8
LAYER12
 62
     5
  6
CONTINUOUS
 10
9.0561
 20
2.5494
  0
VERTEX
  8
LAYER12
 62
     5
  6
CONTINUOUS
 10
9.0561
 20
2.5494
  0
SEQEND
  8
LAYER12
  0
POLYLINE
  8
LAYER12
 62
     5
 66
     1
  6
CONTINUOUS
  0
VERTEX
  8
LAYER12
 62
     5
  6
CONTINUOUS
 10
8.0330
 20
2.5494
  0
VERTEX
  8
LAYER12
 62
     5
  6
CONTINUOUS
 10
8.0330
 20
1.5665
  0
SEQEND
  8
LAYER12
  0
POLYLINE
  8
LAYER12
 62
     5
 66
     1
  6
CONTINUOUS
  0
VERTEX
  8
LAYER12
 62
     5
  6
CONTINUOUS
 10
8.0330
 20
1.5665
  0
VERTEX
  8
LAYER12
 62
     5
  6
CONTINUOUS
 10
8.0330
 20
1.5661
  0
SEQEND
  8
LAYER12
  0
POLYLINE
  8
LAYER12
 62
     5
 66
     1
  6
CONTINUOUS
  0
VERTEX
  8
LAYER12
 62
     5
  6
CONTINUOUS
 10
8.0319
 20
2.5494
  0
VERTEX
  8
LAYER12
 62
     5
  6
CONTINUOUS
 10
8.0330
 20
2.5494
  0
SEQEND
  8
LAYER12
  0
POLYLINE
  8
LAYER12
 62
     5
 66
     1
  6
CONTINUOUS
  0
VERTEX
  8
LAYER12
 62
     5
  6
CONTINUOUS
 10
9.0561
 20
1.5665
  0
VERTEX
  8
LAYER12
 62
     5
  6
CONTINUOUS
 10
9.0561
 20
1.5657
  0
SEQEND
  8
LAYER12
  0
POLYLINE
  8
LAYER12
 62
     5
 66
     1
  6
CONTINUOUS
  0
VERTEX
  8
LAYER12
 62
     5
  6
CONTINUOUS
 10
9.0561
 20
1.5657
  0
VERTEX
  8
LAYER12
 62
     5
  6
CONTINUOUS
 10
9.0561
 20
1.5665
  0
SEQEND
  8
LAYER12
  0
POLYLINE
  8
LAYER12
 62
     5
 66
     1
  6
CONTINUOUS
  0
VERTEX
  8
LAYER12
 62
     5
  6
CONTINUOUS
 10
9.0561
 20
1.5665
  0
VERTEX
  8
LAYER12
 62
     5
  6
CONTINUOUS
 10
9.0561
 20
2.5494
  0
SEQEND
  8
LAYER12
  0
POLYLINE
  8
LAYER12
 62
     5
 66
     1
  6
CONTINUOUS
  0
VERTEX
  8
LAYER12
 62
     5
  6
CONTINUOUS
 10
9.0561
 20
2.5494
  0
VERTEX
  8
LAYER12
 62
     5
  6
CONTINUOUS
 10
9.0561
 20
2.5511
  0
SEQEND
  8
LAYER12
  0
POLYLINE
  8
LAYER12
 62
     5
 66
     1
  6
CONTINUOUS
  0
VERTEX
  8
LAYER12
 62
     5
  6
CONTINUOUS
 10
8.0330
 20
2.5511
  0
VERTEX
  8
LAYER12
 62
     5
  6
CONTINUOUS
 10
8.0330
 20
2.5511
  0
SEQEND
  8
LAYER12
  0
POLYLINE
  8
LAYER12
 62
     5
 66
     1
  6
CONTINUOUS
  0
VERTEX
  8
LAYER12
 62
     5
  6
CONTINUOUS
 10
8.0330
 20
2.5511
  0
VERTEX
  8
LAYER12
 62
     5
  6
CONTINUOUS
 10
8.0330
 20
2.5494
  0
SEQEND
  8
LAYER12
  0
POLYLINE
  8
LAYER12
 62
     5
 66
     1
  6
CONTINUOUS
  0
VERTEX
  8
LAYER12
 62
     5
  6
CONTINUOUS
 10
8.0330
 20
2.5511
  0
VERTEX
  8
LAYER12
 62
     5
  6
CONTINUOUS
 10
8.0330
 20
2.5511
  0
SEQEND
  8
LAYER12
  0
ENDSEC
  0
EOF
