  0
SECTION
  2
HEADER
  9
$ACADVER
  1
AC1004
  9
$EXTMIN
 10
2.0492
 20
1.5657
  9
$EXTMAX
 10
3.0766
 20
2.5508
  9
$LIMMIN
 10
2.0492
 20
1.5657
  9
$LIMMAX
 10
3.0766
 20
2.5508
  9
$INSBASE
 10
0.0
 20
0.0
  9
$VIEWCTR
 10
7.21903
 20
4.5
  9
$VIEWSIZE
 40
9.0
  9
$SNAPMODE
 70
     0
  9
$SNAPUNIT
 10
1.0
 20
1.0
  9
$SNAPBASE
 10
0.0
 20
0.0
  9
$SNAPANG
 50
0.0
  9
$SNAPSTYLE
 70
     0
  9
$SNAPISOPAIR
 70
     0
  9
$GRIDMODE
 70
     0
  9
$GRIDUNIT
 10
0.0
 20
0.0
  9
$ORTHOMODE
 70
     0
  9
$REGENMODE
 70
     1
  9
$FILLMODE
 70
     1
  9
$QTEXTMODE
 70
     0
  9
$DRAGMODE
 70
     2
  9
$LTSCALE
 40
1.0
  9
$OSMODE
 70
     0
  9
$ATTMODE
 70
     1
  9
$TEXTSIZE
 40
0.2
  9
$TRACEWID
 40
0.05
  9
$TEXTSTYLE
  7
STANDARD
  9
$CLAYER
  8
0
  9
$CELTYPE
  6
BYLAYER
  9
$CECOLOR
 62
   256
  9
$DIMSCALE
 40
1.0
  9
$DIMASZ
 40
0.18
  9
$DIMEXO
 40
0.0625
  9
$DIMDLI
 40
0.38
  9
$DIMRND
 40
0.0
  9
$DIMDLE
 40
0.0
  9
$DIMEXE
 40
0.18
  9
$DIMTP
 40
0.0
  9
$DIMTM
 40
0.0
  9
$DIMTXT
 40
0.18
  9
$DIMCEN
 40
0.09
  9
$DIMTSZ
 40
0.0
  9
$DIMTOL
 70
     0
  9
$DIMLIM
 70
     0
  9
$DIMTIH
 70
     1
  9
$DIMTOH
 70
     1
  9
$DIMSE1
 70
     0
  9
$DIMSE2
 70
     0
  9
$DIMTAD
 70
     0
  9
$DIMZIN
 70
     0
  9
$DIMBLK
  1

  9
$DIMASO
 70
     1
  9
$DIMSHO
 70
     0
  9
$DIMPOST
  1

  9
$DIMAPOST
  1

  9
$DIMALT
 70
     0
  9
$DIMALTD
 70
     2
  9
$DIMALTF
 40
25.4
  9
$DIMLFAC
 40
1.0
  9
$LUNITS
 70
     2
  9
$LUPREC
 70
     4
  9
$AXISMODE
 70
     0
  9
$AXISUNIT
 10
0.0
 20
0.0
  9
$SKETCHINC
 40
0.1
  9
$FILLETRAD
 40
0.0
  9
$AUNITS
 70
     0
  9
$AUPREC
 70
     0
  9
$MENU
  1
acad
  9
$ELEVATION
 40
0.0
  9
$THICKNESS
 40
0.0
  9
$VIEWDIR
 10
0.0
 20
0.0
 30
1.0
  9
$LIMCHECK
 70
     0
  9
$BLIPMODE
 70
     1
  9
$CHAMFERA
 40
0.0
  9
$CHAMFERB
 40
0.0
  9
$FASTZOOM
 70
     1
  9
$SKPOLY
 70
     0
  9
$TDCREATE
 40
2447222.5666886573
  9
$TDUPDATE
 40
2447222.5666886573
  9
$TDINDWG
 40
0.0000000000
  9
$TDUSRTIMER
 40
0.0000000000
  9
$USRTIMER
 70
     1
  9
$ANGBASE
 50
0.0
  9
$ANGDIR
 70
     0
  9
$PDMODE
 70
     0
  9
$PDSIZE
 40
0.0
  9
$PLINEWID
 40
0.0
  9
$COORDS
 70
     0
  9
$SPLFRAME
 70
     0
  9
$SPLINESEGS
 70
     8
  9
$ATTDIA
 70
     0
  9
$ATTREQ
 70
     1
  9
$USERI1
 70
     0
  9
$USERI2
 70
     0
  9
$USERI3
 70
     0
  9
$USERI4
 70
     0
  9
$USERI5
 70
     0
  9
$USERR1
 40
0.0
  9
$USERR2
 40
0.0
  9
$USERR3
 40
0.0
  9
$USERR4
 40
0.0
  9
$USERR5
 40
0.0
  0
ENDSEC
  0
SECTION
  2
TABLES
  0
TABLE
  2
LTYPE
 70
     13
  0
LTYPE
  2
CONTINUOUS
 70
    64
  3
Solid line
 72
    65
 73
     0
 40
0.0
  0
LTYPE
  2
DASHED
 70
    64
  3
__ __ __ __ __ __ __ __ __ __ __ __ __ __ __
 72
    65
 73
     2
 40
0.75
 49
0.5
 49
-0.25
  0
LTYPE
  2
HIDDEN
 70
    64
  3
_ _ _ _ _ _ _ _ _ _ _ _ _ _ _ _ _ _ _ _ _ _ _
 72
    65
 73
     2
 40
0.375
 49
0.25
 49
-0.125
  0
LTYPE
  2
CENTER
 70
    64
  3
____ _ ____ _ ____ _ ____ _ ____ _ ____ _ ____
 72
    65
 73
     4
 40
2.0
 49
1.25
 49
-0.25
 49
0.25
 49
-0.25
  0
LTYPE
  2
PHANTOM
 70
    64
  3
_____ _ _ _____ _ _ _____ _ _ _____ _ _ ____
 72
    65
 73
     6
 40
2.5
 49
1.25
 49
-0.25
 49
0.25
 49
-0.25
 49
0.25
 49
-0.25
  0
LTYPE
  2
DOT
 70
    64
  3
...............................................
 72
    65
 73
     2
 40
0.25
 49
0.0
 49
-0.25
  0
LTYPE
  2
DASHDOT
 70
    64
  3
__ . __ . __ . __ . __ . __ . __ . __ . __ . __
 72
    65
 73
     4
 40
1.0
 49
0.5
 49
-0.25
 49
0.0
 49
-0.25
  0
LTYPE
  2
BORDER
 70
    64
  3
__ __ . __ __ . __ __ . __ __ . __ __ . __ __
 72
    65
 73
     6
 40
1.75
 49
0.5
 49
-0.25
 49
0.5
 49
-0.25
 49
0.0
 49
-0.25
  0
LTYPE
  2
DIVIDE
 70
    64
  3
__ . . __ . . __ . . __ . . __ . . __ . . __
 72
    65
 73
     6
 40
1.25
 49
0.5
 49
-0.25
 49
0.0
 49
-0.25
 49
0.0
 49
-0.25
  0
LTYPE
  2
DCTYPE1
 70
    64
  3
__ . . __ . . __ . . __ . . __ . . __ . . __
 72
    65
 73
     8
 40
2.5
 49
0.5
 49
-0.25
 49
0.125
 49
-0.25
 49
0.25
 49
-0.25
 49
0.125
 49
-0.25
  0
LTYPE
  2
DCTYPE2
 70
    64
  3
__ . . __ . . __ . . __ . . __ . . __ . . __
 72
    65
 73
     6
 40
2.05
 49
1.0
 49
-0.3
 49
0.15
 49
-0.15
 49
0.15
 49
-0.3
  0
LTYPE
  2
DCTYPE3
 70
    64
  3
__ . . __ . . __ . . __ . . __ . . __ . . __
 72
    65
 73
     6
 40
2.5
 49
0.8
 49
-0.2
 49
0.8
 49
-0.2
 49
0.3
 49
-0.2
  0
LTYPE
  2
DCTYPE4
 70
    64
  3
__ . . __ . . __ . . __ . . __ . . __ . . __
 72
    65
 73
     10
 40
3.97
 49
1.75
 49
-0.3
 49
0.3
 49
-0.3
 49
0.06
 49
-0.3
 49
0.06
 49
-0.3
 49
0.3
 49
-0.3
  0
ENDTAB
  0
TABLE
  2
LAYER
 70
    153
  0
LAYER
  2
LAYER1
 70
 64
 62
     7
  6
CONTINUOUS
  0
LAYER
  2
LAYER10
 70
 64
 62
     1
  6
CONTINUOUS
  0
LAYER
  2
LAYER12
 70
 64
 62
     5
  6
CONTINUOUS
  0
ENDTAB
  0
ENDSEC
  0
SECTION
  2
BLOCKS
  0
ENDSEC
  0
SECTION
  2
ENTITIES
  0
CIRCLE
  8
LAYER1
 62
     7
  6
CONTINUOUS
 10
2.9803
 20
2.1937
 40
0.0232
  0
CIRCLE
  8
LAYER1
 62
     7
  6
CONTINUOUS
 10
2.8562
 20
2.2955
 40
0.0281
  0
CIRCLE
  8
LAYER1
 62
     7
  6
CONTINUOUS
 10
2.8346
 20
2.1923
 40
0.0202
  0
CIRCLE
  8
LAYER1
 62
     7
  6
CONTINUOUS
 10
2.7091
 20
2.1886
 40
0.0112
  0
CIRCLE
  8
LAYER1
 62
     7
  6
CONTINUOUS
 10
2.6961
 20
2.2261
 40
0.0146
  0
CIRCLE
  8
LAYER1
 62
     7
  6
CONTINUOUS
 10
2.5713
 20
2.1446
 40
0.0178
  0
CIRCLE
  8
LAYER1
 62
     7
  6
CONTINUOUS
 10
2.5434
 20
2.1744
 40
0.0090
  0
CIRCLE
  8
LAYER1
 62
     7
  6
CONTINUOUS
 10
2.5082
 20
2.1867
 40
0.0071
  0
CIRCLE
  8
LAYER1
 62
     7
  6
CONTINUOUS
 10
2.5130
 20
2.2068
 40
0.0151
  0
CIRCLE
  8
LAYER1
 62
     7
  6
CONTINUOUS
 10
2.4661
 20
2.1210
 40
0.0126
  0
CIRCLE
  8
LAYER1
 62
     7
  6
CONTINUOUS
 10
2.3518
 20
2.5117
 40
0.0153
  0
CIRCLE
  8
LAYER1
 62
     7
  6
CONTINUOUS
 10
2.3192
 20
2.5114
 40
0.0159
  0
CIRCLE
  8
LAYER1
 62
     7
  6
CONTINUOUS
 10
2.2263
 20
2.2443
 40
0.0112
  0
CIRCLE
  8
LAYER1
 62
     7
  6
CONTINUOUS
 10
2.1908
 20
2.2791
 40
0.0207
  0
CIRCLE
  8
LAYER1
 62
     7
  6
CONTINUOUS
 10
2.1286
 20
2.2157
 40
0.0128
  0
CIRCLE
  8
LAYER1
 62
     7
  6
CONTINUOUS
 10
2.1273
 20
2.3563
 40
0.0128
  0
CIRCLE
  8
LAYER1
 62
     7
  6
CONTINUOUS
 10
2.1285
 20
2.4945
 40
0.0159
  0
CIRCLE
  8
LAYER1
 62
     7
  6
CONTINUOUS
 10
2.8374
 20
2.0032
 40
0.0193
  0
CIRCLE
  8
LAYER1
 62
     7
  6
CONTINUOUS
 10
2.7843
 20
2.0487
 40
0.0126
  0
CIRCLE
  8
LAYER1
 62
     7
  6
CONTINUOUS
 10
2.7185
 20
2.0539
 40
0.0126
  0
CIRCLE
  8
LAYER1
 62
     7
  6
CONTINUOUS
 10
2.5616
 20
2.0211
 40
0.0113
  0
CIRCLE
  8
LAYER1
 62
     7
  6
CONTINUOUS
 10
2.6173
 20
1.9780
 40
0.0177
  0
CIRCLE
  8
LAYER1
 62
     7
  6
CONTINUOUS
 10
2.7109
 20
1.8919
 40
0.0240
  0
CIRCLE
  8
LAYER1
 62
     7
  6
CONTINUOUS
 10
2.6552
 20
1.8489
 40
0.0104
  0
CIRCLE
  8
LAYER1
 62
     7
  6
CONTINUOUS
 10
2.6450
 20
1.7604
 40
0.0129
  0
CIRCLE
  8
LAYER1
 62
     7
  6
CONTINUOUS
 10
2.5741
 20
1.6870
 40
0.0104
  0
CIRCLE
  8
LAYER1
 62
     7
  6
CONTINUOUS
 10
2.5614
 20
1.6415
 40
0.0160
  0
CIRCLE
  8
LAYER1
 62
     7
  6
CONTINUOUS
 10
2.9740
 20
1.9019
 40
0.0129
  0
CIRCLE
  8
LAYER1
 62
     7
  6
CONTINUOUS
 10
2.9714
 20
1.8487
 40
0.0101
  0
POLYLINE
  8
LAYER1
 62
     7
 66
     1
  6
CONTINUOUS
  0
VERTEX
  8
LAYER1
 62
     7
  6
CONTINUOUS
 10
2.7286
 20
2.0210
  0
VERTEX
  8
LAYER1
 62
     7
  6
CONTINUOUS
 10
2.7314
 20
2.0200
  0
VERTEX
  8
LAYER1
 62
     7
  6
CONTINUOUS
 10
2.7340
 20
2.0188
  0
VERTEX
  8
LAYER1
 62
     7
  6
CONTINUOUS
 10
2.7366
 20
2.0174
  0
VERTEX
  8
LAYER1
 62
     7
  6
CONTINUOUS
 10
2.7390
 20
2.0156
  0
VERTEX
  8
LAYER1
 62
     7
  6
CONTINUOUS
 10
2.7413
 20
2.0136
  0
VERTEX
  8
LAYER1
 62
     7
  6
CONTINUOUS
 10
2.7435
 20
2.0115
  0
VERTEX
  8
LAYER1
 62
     7
  6
CONTINUOUS
 10
2.7456
 20
2.0091
  0
VERTEX
  8
LAYER1
 62
     7
  6
CONTINUOUS
 10
2.7475
 20
2.0066
  0
VERTEX
  8
LAYER1
 62
     7
  6
CONTINUOUS
 10
2.7494
 20
2.0040
  0
VERTEX
  8
LAYER1
 62
     7
  6
CONTINUOUS
 10
2.7510
 20
2.0013
  0
VERTEX
  8
LAYER1
 62
     7
  6
CONTINUOUS
 10
2.7526
 20
1.9985
  0
VERTEX
  8
LAYER1
 62
     7
  6
CONTINUOUS
 10
2.7539
 20
1.9956
  0
VERTEX
  8
LAYER1
 62
     7
  6
CONTINUOUS
 10
2.7548
 20
1.9936
  0
VERTEX
  8
LAYER1
 62
     7
  6
CONTINUOUS
 10
2.7556
 20
1.9915
  0
VERTEX
  8
LAYER1
 62
     7
  6
CONTINUOUS
 10
2.7564
 20
1.9894
  0
VERTEX
  8
LAYER1
 62
     7
  6
CONTINUOUS
 10
2.7570
 20
1.9873
  0
VERTEX
  8
LAYER1
 62
     7
  6
CONTINUOUS
 10
2.7576
 20
1.9852
  0
VERTEX
  8
LAYER1
 62
     7
  6
CONTINUOUS
 10
2.7580
 20
1.9831
  0
VERTEX
  8
LAYER1
 62
     7
  6
CONTINUOUS
 10
2.7584
 20
1.9809
  0
VERTEX
  8
LAYER1
 62
     7
  6
CONTINUOUS
 10
2.7587
 20
1.9788
  0
VERTEX
  8
LAYER1
 62
     7
  6
CONTINUOUS
 10
2.7589
 20
1.9767
  0
VERTEX
  8
LAYER1
 62
     7
  6
CONTINUOUS
 10
2.7590
 20
1.9746
  0
VERTEX
  8
LAYER1
 62
     7
  6
CONTINUOUS
 10
2.7590
 20
1.9724
  0
VERTEX
  8
LAYER1
 62
     7
  6
CONTINUOUS
 10
2.7590
 20
1.9703
  0
VERTEX
  8
LAYER1
 62
     7
  6
CONTINUOUS
 10
2.7588
 20
1.9682
  0
VERTEX
  8
LAYER1
 62
     7
  6
CONTINUOUS
 10
2.7586
 20
1.9661
  0
VERTEX
  8
LAYER1
 62
     7
  6
CONTINUOUS
 10
2.7583
 20
1.9640
  0
VERTEX
  8
LAYER1
 62
     7
  6
CONTINUOUS
 10
2.7579
 20
1.9619
  0
VERTEX
  8
LAYER1
 62
     7
  6
CONTINUOUS
 10
2.7575
 20
1.9598
  0
VERTEX
  8
LAYER1
 62
     7
  6
CONTINUOUS
 10
2.7570
 20
1.9577
  0
VERTEX
  8
LAYER1
 62
     7
  6
CONTINUOUS
 10
2.7565
 20
1.9556
  0
VERTEX
  8
LAYER1
 62
     7
  6
CONTINUOUS
 10
2.7560
 20
1.9535
  0
VERTEX
  8
LAYER1
 62
     7
  6
CONTINUOUS
 10
2.7555
 20
1.9514
  0
VERTEX
  8
LAYER1
 62
     7
  6
CONTINUOUS
 10
2.7549
 20
1.9493
  0
VERTEX
  8
LAYER1
 62
     7
  6
CONTINUOUS
 10
2.7544
 20
1.9471
  0
VERTEX
  8
LAYER1
 62
     7
  6
CONTINUOUS
 10
2.7539
 20
1.9450
  0
VERTEX
  8
LAYER1
 62
     7
  6
CONTINUOUS
 10
2.7534
 20
1.9429
  0
VERTEX
  8
LAYER1
 62
     7
  6
CONTINUOUS
 10
2.7530
 20
1.9408
  0
VERTEX
  8
LAYER1
 62
     7
  6
CONTINUOUS
 10
2.7525
 20
1.9387
  0
VERTEX
  8
LAYER1
 62
     7
  6
CONTINUOUS
 10
2.7521
 20
1.9365
  0
VERTEX
  8
LAYER1
 62
     7
  6
CONTINUOUS
 10
2.7517
 20
1.9344
  0
VERTEX
  8
LAYER1
 62
     7
  6
CONTINUOUS
 10
2.7513
 20
1.9323
  0
VERTEX
  8
LAYER1
 62
     7
  6
CONTINUOUS
 10
2.7509
 20
1.9302
  0
VERTEX
  8
LAYER1
 62
     7
  6
CONTINUOUS
 10
2.7505
 20
1.9281
  0
VERTEX
  8
LAYER1
 62
     7
  6
CONTINUOUS
 10
2.7501
 20
1.9260
  0
VERTEX
  8
LAYER1
 62
     7
  6
CONTINUOUS
 10
2.7497
 20
1.9239
  0
VERTEX
  8
LAYER1
 62
     7
  6
CONTINUOUS
 10
2.7493
 20
1.9218
  0
VERTEX
  8
LAYER1
 62
     7
  6
CONTINUOUS
 10
2.7488
 20
1.9197
  0
VERTEX
  8
LAYER1
 62
     7
  6
CONTINUOUS
 10
2.7482
 20
1.9169
  0
VERTEX
  8
LAYER1
 62
     7
  6
CONTINUOUS
 10
2.7475
 20
1.9141
  0
VERTEX
  8
LAYER1
 62
     7
  6
CONTINUOUS
 10
2.7469
 20
1.9112
  0
VERTEX
  8
LAYER1
 62
     7
  6
CONTINUOUS
 10
2.7462
 20
1.9084
  0
VERTEX
  8
LAYER1
 62
     7
  6
CONTINUOUS
 10
2.7456
 20
1.9056
  0
VERTEX
  8
LAYER1
 62
     7
  6
CONTINUOUS
 10
2.7450
 20
1.9027
  0
VERTEX
  8
LAYER1
 62
     7
  6
CONTINUOUS
 10
2.7445
 20
1.8998
  0
VERTEX
  8
LAYER1
 62
     7
  6
CONTINUOUS
 10
2.7441
 20
1.8969
  0
VERTEX
  8
LAYER1
 62
     7
  6
CONTINUOUS
 10
2.7438
 20
1.8938
  0
VERTEX
  8
LAYER1
 62
     7
  6
CONTINUOUS
 10
2.7436
 20
1.8907
  0
VERTEX
  8
LAYER1
 62
     7
  6
CONTINUOUS
 10
2.7436
 20
1.8876
  0
VERTEX
  8
LAYER1
 62
     7
  6
CONTINUOUS
 10
2.7437
 20
1.8843
  0
VERTEX
  8
LAYER1
 62
     7
  6
CONTINUOUS
 10
2.7440
 20
1.8814
  0
VERTEX
  8
LAYER1
 62
     7
  6
CONTINUOUS
 10
2.7443
 20
1.8786
  0
VERTEX
  8
LAYER1
 62
     7
  6
CONTINUOUS
 10
2.7447
 20
1.8756
  0
VERTEX
  8
LAYER1
 62
     7
  6
CONTINUOUS
 10
2.7451
 20
1.8727
  0
VERTEX
  8
LAYER1
 62
     7
  6
CONTINUOUS
 10
2.7454
 20
1.8699
  0
VERTEX
  8
LAYER1
 62
     7
  6
CONTINUOUS
 10
2.7457
 20
1.8671
  0
VERTEX
  8
LAYER1
 62
     7
  6
CONTINUOUS
 10
2.7459
 20
1.8645
  0
VERTEX
  8
LAYER1
 62
     7
  6
CONTINUOUS
 10
2.7459
 20
1.8620
  0
VERTEX
  8
LAYER1
 62
     7
  6
CONTINUOUS
 10
2.7458
 20
1.8596
  0
VERTEX
  8
LAYER1
 62
     7
  6
CONTINUOUS
 10
2.7454
 20
1.8575
  0
VERTEX
  8
LAYER1
 62
     7
  6
CONTINUOUS
 10
2.7447
 20
1.8556
  0
VERTEX
  8
LAYER1
 62
     7
  6
CONTINUOUS
 10
2.7437
 20
1.8539
  0
VERTEX
  8
LAYER1
 62
     7
  6
CONTINUOUS
 10
2.7424
 20
1.8526
  0
VERTEX
  8
LAYER1
 62
     7
  6
CONTINUOUS
 10
2.7407
 20
1.8515
  0
VERTEX
  8
LAYER1
 62
     7
  6
CONTINUOUS
 10
2.7387
 20
1.8506
  0
VERTEX
  8
LAYER1
 62
     7
  6
CONTINUOUS
 10
2.7365
 20
1.8500
  0
VERTEX
  8
LAYER1
 62
     7
  6
CONTINUOUS
 10
2.7340
 20
1.8496
  0
VERTEX
  8
LAYER1
 62
     7
  6
CONTINUOUS
 10
2.7314
 20
1.8493
  0
VERTEX
  8
LAYER1
 62
     7
  6
CONTINUOUS
 10
2.7286
 20
1.8491
  0
VERTEX
  8
LAYER1
 62
     7
  6
CONTINUOUS
 10
2.7257
 20
1.8490
  0
VERTEX
  8
LAYER1
 62
     7
  6
CONTINUOUS
 10
2.7226
 20
1.8490
  0
VERTEX
  8
LAYER1
 62
     7
  6
CONTINUOUS
 10
2.7195
 20
1.8489
  0
VERTEX
  8
LAYER1
 62
     7
  6
CONTINUOUS
 10
2.7164
 20
1.8489
  0
VERTEX
  8
LAYER1
 62
     7
  6
CONTINUOUS
 10
2.7133
 20
1.8489
  0
VERTEX
  8
LAYER1
 62
     7
  6
CONTINUOUS
 10
2.7113
 20
1.8488
  0
VERTEX
  8
LAYER1
 62
     7
  6
CONTINUOUS
 10
2.7092
 20
1.8487
  0
VERTEX
  8
LAYER1
 62
     7
  6
CONTINUOUS
 10
2.7072
 20
1.8486
  0
VERTEX
  8
LAYER1
 62
     7
  6
CONTINUOUS
 10
2.7053
 20
1.8484
  0
VERTEX
  8
LAYER1
 62
     7
  6
CONTINUOUS
 10
2.7034
 20
1.8481
  0
VERTEX
  8
LAYER1
 62
     7
  6
CONTINUOUS
 10
2.7016
 20
1.8478
  0
VERTEX
  8
LAYER1
 62
     7
  6
CONTINUOUS
 10
2.6999
 20
1.8474
  0
VERTEX
  8
LAYER1
 62
     7
  6
CONTINUOUS
 10
2.6983
 20
1.8469
  0
VERTEX
  8
LAYER1
 62
     7
  6
CONTINUOUS
 10
2.6968
 20
1.8463
  0
VERTEX
  8
LAYER1
 62
     7
  6
CONTINUOUS
 10
2.6954
 20
1.8456
  0
VERTEX
  8
LAYER1
 62
     7
  6
CONTINUOUS
 10
2.6942
 20
1.8448
  0
VERTEX
  8
LAYER1
 62
     7
  6
CONTINUOUS
 10
2.6931
 20
1.8438
  0
VERTEX
  8
LAYER1
 62
     7
  6
CONTINUOUS
 10
2.6916
 20
1.8420
  0
VERTEX
  8
LAYER1
 62
     7
  6
CONTINUOUS
 10
2.6905
 20
1.8398
  0
VERTEX
  8
LAYER1
 62
     7
  6
CONTINUOUS
 10
2.6898
 20
1.8374
  0
VERTEX
  8
LAYER1
 62
     7
  6
CONTINUOUS
 10
2.6894
 20
1.8347
  0
VERTEX
  8
LAYER1
 62
     7
  6
CONTINUOUS
 10
2.6893
 20
1.8318
  0
VERTEX
  8
LAYER1
 62
     7
  6
CONTINUOUS
 10
2.6895
 20
1.8287
  0
VERTEX
  8
LAYER1
 62
     7
  6
CONTINUOUS
 10
2.6898
 20
1.8254
  0
VERTEX
  8
LAYER1
 62
     7
  6
CONTINUOUS
 10
2.6903
 20
1.8221
  0
VERTEX
  8
LAYER1
 62
     7
  6
CONTINUOUS
 10
2.6910
 20
1.8187
  0
VERTEX
  8
LAYER1
 62
     7
  6
CONTINUOUS
 10
2.6917
 20
1.8152
  0
VERTEX
  8
LAYER1
 62
     7
  6
CONTINUOUS
 10
2.6924
 20
1.8118
  0
VERTEX
  8
LAYER1
 62
     7
  6
CONTINUOUS
 10
2.6931
 20
1.8084
  0
VERTEX
  8
LAYER1
 62
     7
  6
CONTINUOUS
 10
2.6936
 20
1.8056
  0
VERTEX
  8
LAYER1
 62
     7
  6
CONTINUOUS
 10
2.6941
 20
1.8028
  0
VERTEX
  8
LAYER1
 62
     7
  6
CONTINUOUS
 10
2.6946
 20
1.8001
  0
VERTEX
  8
LAYER1
 62
     7
  6
CONTINUOUS
 10
2.6949
 20
1.7974
  0
VERTEX
  8
LAYER1
 62
     7
  6
CONTINUOUS
 10
2.6952
 20
1.7948
  0
VERTEX
  8
LAYER1
 62
     7
  6
CONTINUOUS
 10
2.6953
 20
1.7922
  0
VERTEX
  8
LAYER1
 62
     7
  6
CONTINUOUS
 10
2.6953
 20
1.7897
  0
VERTEX
  8
LAYER1
 62
     7
  6
CONTINUOUS
 10
2.6952
 20
1.7873
  0
VERTEX
  8
LAYER1
 62
     7
  6
CONTINUOUS
 10
2.6949
 20
1.7849
  0
VERTEX
  8
LAYER1
 62
     7
  6
CONTINUOUS
 10
2.6945
 20
1.7825
  0
VERTEX
  8
LAYER1
 62
     7
  6
CONTINUOUS
 10
2.6939
 20
1.7803
  0
VERTEX
  8
LAYER1
 62
     7
  6
CONTINUOUS
 10
2.6931
 20
1.7781
  0
VERTEX
  8
LAYER1
 62
     7
  6
CONTINUOUS
 10
2.6918
 20
1.7755
  0
VERTEX
  8
LAYER1
 62
     7
  6
CONTINUOUS
 10
2.6903
 20
1.7729
  0
VERTEX
  8
LAYER1
 62
     7
  6
CONTINUOUS
 10
2.6886
 20
1.7705
  0
VERTEX
  8
LAYER1
 62
     7
  6
CONTINUOUS
 10
2.6868
 20
1.7680
  0
VERTEX
  8
LAYER1
 62
     7
  6
CONTINUOUS
 10
2.6848
 20
1.7656
  0
VERTEX
  8
LAYER1
 62
     7
  6
CONTINUOUS
 10
2.6828
 20
1.7631
  0
VERTEX
  8
LAYER1
 62
     7
  6
CONTINUOUS
 10
2.6809
 20
1.7607
  0
VERTEX
  8
LAYER1
 62
     7
  6
CONTINUOUS
 10
2.6789
 20
1.7582
  0
VERTEX
  8
LAYER1
 62
     7
  6
CONTINUOUS
 10
2.6771
 20
1.7557
  0
VERTEX
  8
LAYER1
 62
     7
  6
CONTINUOUS
 10
2.6755
 20
1.7531
  0
VERTEX
  8
LAYER1
 62
     7
  6
CONTINUOUS
 10
2.6740
 20
1.7505
  0
VERTEX
  8
LAYER1
 62
     7
  6
CONTINUOUS
 10
2.6728
 20
1.7477
  0
VERTEX
  8
LAYER1
 62
     7
  6
CONTINUOUS
 10
2.6721
 20
1.7457
  0
VERTEX
  8
LAYER1
 62
     7
  6
CONTINUOUS
 10
2.6716
 20
1.7437
  0
VERTEX
  8
LAYER1
 62
     7
  6
CONTINUOUS
 10
2.6712
 20
1.7417
  0
VERTEX
  8
LAYER1
 62
     7
  6
CONTINUOUS
 10
2.6710
 20
1.7396
  0
VERTEX
  8
LAYER1
 62
     7
  6
CONTINUOUS
 10
2.6709
 20
1.7375
  0
VERTEX
  8
LAYER1
 62
     7
  6
CONTINUOUS
 10
2.6709
 20
1.7353
  0
VERTEX
  8
LAYER1
 62
     7
  6
CONTINUOUS
 10
2.6709
 20
1.7332
  0
VERTEX
  8
LAYER1
 62
     7
  6
CONTINUOUS
 10
2.6711
 20
1.7310
  0
VERTEX
  8
LAYER1
 62
     7
  6
CONTINUOUS
 10
2.6714
 20
1.7288
  0
VERTEX
  8
LAYER1
 62
     7
  6
CONTINUOUS
 10
2.6718
 20
1.7267
  0
VERTEX
  8
LAYER1
 62
     7
  6
CONTINUOUS
 10
2.6723
 20
1.7245
  0
VERTEX
  8
LAYER1
 62
     7
  6
CONTINUOUS
 10
2.6728
 20
1.7224
  0
VERTEX
  8
LAYER1
 62
     7
  6
CONTINUOUS
 10
2.6733
 20
1.7207
  0
VERTEX
  8
LAYER1
 62
     7
  6
CONTINUOUS
 10
2.6738
 20
1.7189
  0
VERTEX
  8
LAYER1
 62
     7
  6
CONTINUOUS
 10
2.6743
 20
1.7172
  0
VERTEX
  8
LAYER1
 62
     7
  6
CONTINUOUS
 10
2.6749
 20
1.7155
  0
VERTEX
  8
LAYER1
 62
     7
  6
CONTINUOUS
 10
2.6754
 20
1.7138
  0
VERTEX
  8
LAYER1
 62
     7
  6
CONTINUOUS
 10
2.6759
 20
1.7122
  0
VERTEX
  8
LAYER1
 62
     7
  6
CONTINUOUS
 10
2.6764
 20
1.7105
  0
VERTEX
  8
LAYER1
 62
     7
  6
CONTINUOUS
 10
2.6768
 20
1.7088
  0
VERTEX
  8
LAYER1
 62
     7
  6
CONTINUOUS
 10
2.6772
 20
1.7071
  0
VERTEX
  8
LAYER1
 62
     7
  6
CONTINUOUS
 10
2.6775
 20
1.7055
  0
VERTEX
  8
LAYER1
 62
     7
  6
CONTINUOUS
 10
2.6777
 20
1.7038
  0
VERTEX
  8
LAYER1
 62
     7
  6
CONTINUOUS
 10
2.6778
 20
1.7022
  0
VERTEX
  8
LAYER1
 62
     7
  6
CONTINUOUS
 10
2.6778
 20
1.6994
  0
VERTEX
  8
LAYER1
 62
     7
  6
CONTINUOUS
 10
2.6775
 20
1.6967
  0
VERTEX
  8
LAYER1
 62
     7
  6
CONTINUOUS
 10
2.6769
 20
1.6940
  0
VERTEX
  8
LAYER1
 62
     7
  6
CONTINUOUS
 10
2.6761
 20
1.6913
  0
VERTEX
  8
LAYER1
 62
     7
  6
CONTINUOUS
 10
2.6750
 20
1.6887
  0
VERTEX
  8
LAYER1
 62
     7
  6
CONTINUOUS
 10
2.6738
 20
1.6861
  0
VERTEX
  8
LAYER1
 62
     7
  6
CONTINUOUS
 10
2.6723
 20
1.6835
  0
VERTEX
  8
LAYER1
 62
     7
  6
CONTINUOUS
 10
2.6707
 20
1.6810
  0
VERTEX
  8
LAYER1
 62
     7
  6
CONTINUOUS
 10
2.6688
 20
1.6786
  0
VERTEX
  8
LAYER1
 62
     7
  6
CONTINUOUS
 10
2.6669
 20
1.6762
  0
VERTEX
  8
LAYER1
 62
     7
  6
CONTINUOUS
 10
2.6648
 20
1.6740
  0
VERTEX
  8
LAYER1
 62
     7
  6
CONTINUOUS
 10
2.6626
 20
1.6718
  0
VERTEX
  8
LAYER1
 62
     7
  6
CONTINUOUS
 10
2.6611
 20
1.6704
  0
VERTEX
  8
LAYER1
 62
     7
  6
CONTINUOUS
 10
2.6596
 20
1.6691
  0
VERTEX
  8
LAYER1
 62
     7
  6
CONTINUOUS
 10
2.6580
 20
1.6678
  0
VERTEX
  8
LAYER1
 62
     7
  6
CONTINUOUS
 10
2.6563
 20
1.6667
  0
VERTEX
  8
LAYER1
 62
     7
  6
CONTINUOUS
 10
2.6547
 20
1.6656
  0
VERTEX
  8
LAYER1
 62
     7
  6
CONTINUOUS
 10
2.6530
 20
1.6646
  0
VERTEX
  8
LAYER1
 62
     7
  6
CONTINUOUS
 10
2.6513
 20
1.6638
  0
VERTEX
  8
LAYER1
 62
     7
  6
CONTINUOUS
 10
2.6495
 20
1.6630
  0
VERTEX
  8
LAYER1
 62
     7
  6
CONTINUOUS
 10
2.6478
 20
1.6625
  0
VERTEX
  8
LAYER1
 62
     7
  6
CONTINUOUS
 10
2.6460
 20
1.6620
  0
VERTEX
  8
LAYER1
 62
     7
  6
CONTINUOUS
 10
2.6442
 20
1.6618
  0
VERTEX
  8
LAYER1
 62
     7
  6
CONTINUOUS
 10
2.6424
 20
1.6617
  0
VERTEX
  8
LAYER1
 62
     7
  6
CONTINUOUS
 10
2.6411
 20
1.6618
  0
VERTEX
  8
LAYER1
 62
     7
  6
CONTINUOUS
 10
2.6398
 20
1.6619
  0
VERTEX
  8
LAYER1
 62
     7
  6
CONTINUOUS
 10
2.6385
 20
1.6621
  0
VERTEX
  8
LAYER1
 62
     7
  6
CONTINUOUS
 10
2.6372
 20
1.6624
  0
VERTEX
  8
LAYER1
 62
     7
  6
CONTINUOUS
 10
2.6360
 20
1.6628
  0
VERTEX
  8
LAYER1
 62
     7
  6
CONTINUOUS
 10
2.6347
 20
1.6632
  0
VERTEX
  8
LAYER1
 62
     7
  6
CONTINUOUS
 10
2.6334
 20
1.6637
  0
VERTEX
  8
LAYER1
 62
     7
  6
CONTINUOUS
 10
2.6321
 20
1.6643
  0
VERTEX
  8
LAYER1
 62
     7
  6
CONTINUOUS
 10
2.6309
 20
1.6648
  0
VERTEX
  8
LAYER1
 62
     7
  6
CONTINUOUS
 10
2.6296
 20
1.6655
  0
VERTEX
  8
LAYER1
 62
     7
  6
CONTINUOUS
 10
2.6284
 20
1.6661
  0
VERTEX
  8
LAYER1
 62
     7
  6
CONTINUOUS
 10
2.6272
 20
1.6668
  0
VERTEX
  8
LAYER1
 62
     7
  6
CONTINUOUS
 10
2.6248
 20
1.6682
  0
VERTEX
  8
LAYER1
 62
     7
  6
CONTINUOUS
 10
2.6224
 20
1.6696
  0
VERTEX
  8
LAYER1
 62
     7
  6
CONTINUOUS
 10
2.6202
 20
1.6711
  0
VERTEX
  8
LAYER1
 62
     7
  6
CONTINUOUS
 10
2.6179
 20
1.6727
  0
VERTEX
  8
LAYER1
 62
     7
  6
CONTINUOUS
 10
2.6158
 20
1.6743
  0
VERTEX
  8
LAYER1
 62
     7
  6
CONTINUOUS
 10
2.6137
 20
1.6760
  0
VERTEX
  8
LAYER1
 62
     7
  6
CONTINUOUS
 10
2.6116
 20
1.6777
  0
VERTEX
  8
LAYER1
 62
     7
  6
CONTINUOUS
 10
2.6096
 20
1.6795
  0
VERTEX
  8
LAYER1
 62
     7
  6
CONTINUOUS
 10
2.6076
 20
1.6813
  0
VERTEX
  8
LAYER1
 62
     7
  6
CONTINUOUS
 10
2.6057
 20
1.6831
  0
VERTEX
  8
LAYER1
 62
     7
  6
CONTINUOUS
 10
2.6038
 20
1.6851
  0
VERTEX
  8
LAYER1
 62
     7
  6
CONTINUOUS
 10
2.6019
 20
1.6870
  0
VERTEX
  8
LAYER1
 62
     7
  6
CONTINUOUS
 10
2.6007
 20
1.6883
  0
VERTEX
  8
LAYER1
 62
     7
  6
CONTINUOUS
 10
2.5995
 20
1.6897
  0
VERTEX
  8
LAYER1
 62
     7
  6
CONTINUOUS
 10
2.5983
 20
1.6910
  0
VERTEX
  8
LAYER1
 62
     7
  6
CONTINUOUS
 10
2.5971
 20
1.6924
  0
VERTEX
  8
LAYER1
 62
     7
  6
CONTINUOUS
 10
2.5959
 20
1.6937
  0
VERTEX
  8
LAYER1
 62
     7
  6
CONTINUOUS
 10
2.5946
 20
1.6950
  0
VERTEX
  8
LAYER1
 62
     7
  6
CONTINUOUS
 10
2.5934
 20
1.6963
  0
VERTEX
  8
LAYER1
 62
     7
  6
CONTINUOUS
 10
2.5921
 20
1.6976
  0
VERTEX
  8
LAYER1
 62
     7
  6
CONTINUOUS
 10
2.5908
 20
1.6988
  0
VERTEX
  8
LAYER1
 62
     7
  6
CONTINUOUS
 10
2.5895
 20
1.7000
  0
VERTEX
  8
LAYER1
 62
     7
  6
CONTINUOUS
 10
2.5881
 20
1.7011
  0
VERTEX
  8
LAYER1
 62
     7
  6
CONTINUOUS
 10
2.5867
 20
1.7022
  0
VERTEX
  8
LAYER1
 62
     7
  6
CONTINUOUS
 10
2.5852
 20
1.7033
  0
VERTEX
  8
LAYER1
 62
     7
  6
CONTINUOUS
 10
2.5836
 20
1.7043
  0
VERTEX
  8
LAYER1
 62
     7
  6
CONTINUOUS
 10
2.5820
 20
1.7053
  0
VERTEX
  8
LAYER1
 62
     7
  6
CONTINUOUS
 10
2.5803
 20
1.7062
  0
VERTEX
  8
LAYER1
 62
     7
  6
CONTINUOUS
 10
2.5786
 20
1.7070
  0
VERTEX
  8
LAYER1
 62
     7
  6
CONTINUOUS
 10
2.5769
 20
1.7079
  0
VERTEX
  8
LAYER1
 62
     7
  6
CONTINUOUS
 10
2.5752
 20
1.7087
  0
VERTEX
  8
LAYER1
 62
     7
  6
CONTINUOUS
 10
2.5735
 20
1.7094
  0
VERTEX
  8
LAYER1
 62
     7
  6
CONTINUOUS
 10
2.5717
 20
1.7102
  0
VERTEX
  8
LAYER1
 62
     7
  6
CONTINUOUS
 10
2.5700
 20
1.7109
  0
VERTEX
  8
LAYER1
 62
     7
  6
CONTINUOUS
 10
2.5682
 20
1.7116
  0
VERTEX
  8
LAYER1
 62
     7
  6
CONTINUOUS
 10
2.5665
 20
1.7123
  0
VERTEX
  8
LAYER1
 62
     7
  6
CONTINUOUS
 10
2.5653
 20
1.7129
  0
VERTEX
  8
LAYER1
 62
     7
  6
CONTINUOUS
 10
2.5641
 20
1.7134
  0
VERTEX
  8
LAYER1
 62
     7
  6
CONTINUOUS
 10
2.5629
 20
1.7139
  0
VERTEX
  8
LAYER1
 62
     7
  6
CONTINUOUS
 10
2.5617
 20
1.7144
  0
VERTEX
  8
LAYER1
 62
     7
  6
CONTINUOUS
 10
2.5605
 20
1.7149
  0
VERTEX
  8
LAYER1
 62
     7
  6
CONTINUOUS
 10
2.5592
 20
1.7153
  0
VERTEX
  8
LAYER1
 62
     7
  6
CONTINUOUS
 10
2.5580
 20
1.7158
  0
VERTEX
  8
LAYER1
 62
     7
  6
CONTINUOUS
 10
2.5567
 20
1.7162
  0
VERTEX
  8
LAYER1
 62
     7
  6
CONTINUOUS
 10
2.5554
 20
1.7165
  0
VERTEX
  8
LAYER1
 62
     7
  6
CONTINUOUS
 10
2.5541
 20
1.7169
  0
VERTEX
  8
LAYER1
 62
     7
  6
CONTINUOUS
 10
2.5527
 20
1.7172
  0
VERTEX
  8
LAYER1
 62
     7
  6
CONTINUOUS
 10
2.5513
 20
1.7174
  0
VERTEX
  8
LAYER1
 62
     7
  6
CONTINUOUS
 10
2.5499
 20
1.7176
  0
VERTEX
  8
LAYER1
 62
     7
  6
CONTINUOUS
 10
2.5484
 20
1.7178
  0
VERTEX
  8
LAYER1
 62
     7
  6
CONTINUOUS
 10
2.5469
 20
1.7180
  0
VERTEX
  8
LAYER1
 62
     7
  6
CONTINUOUS
 10
2.5454
 20
1.7182
  0
VERTEX
  8
LAYER1
 62
     7
  6
CONTINUOUS
 10
2.5440
 20
1.7184
  0
VERTEX
  8
LAYER1
 62
     7
  6
CONTINUOUS
 10
2.5426
 20
1.7186
  0
VERTEX
  8
LAYER1
 62
     7
  6
CONTINUOUS
 10
2.5413
 20
1.7190
  0
VERTEX
  8
LAYER1
 62
     7
  6
CONTINUOUS
 10
2.5400
 20
1.7194
  0
VERTEX
  8
LAYER1
 62
     7
  6
CONTINUOUS
 10
2.5388
 20
1.7199
  0
VERTEX
  8
LAYER1
 62
     7
  6
CONTINUOUS
 10
2.5378
 20
1.7206
  0
VERTEX
  8
LAYER1
 62
     7
  6
CONTINUOUS
 10
2.5369
 20
1.7215
  0
VERTEX
  8
LAYER1
 62
     7
  6
CONTINUOUS
 10
2.5361
 20
1.7225
  0
VERTEX
  8
LAYER1
 62
     7
  6
CONTINUOUS
 10
2.5354
 20
1.7240
  0
VERTEX
  8
LAYER1
 62
     7
  6
CONTINUOUS
 10
2.5349
 20
1.7259
  0
VERTEX
  8
LAYER1
 62
     7
  6
CONTINUOUS
 10
2.5347
 20
1.7278
  0
VERTEX
  8
LAYER1
 62
     7
  6
CONTINUOUS
 10
2.5346
 20
1.7299
  0
VERTEX
  8
LAYER1
 62
     7
  6
CONTINUOUS
 10
2.5346
 20
1.7321
  0
VERTEX
  8
LAYER1
 62
     7
  6
CONTINUOUS
 10
2.5348
 20
1.7342
  0
VERTEX
  8
LAYER1
 62
     7
  6
CONTINUOUS
 10
2.5350
 20
1.7362
  0
VERTEX
  8
LAYER1
 62
     7
  6
CONTINUOUS
 10
2.5353
 20
1.7381
  0
VERTEX
  8
LAYER1
 62
     7
  6
CONTINUOUS
 10
2.5356
 20
1.7398
  0
VERTEX
  8
LAYER1
 62
     7
  6
CONTINUOUS
 10
2.5358
 20
1.7411
  0
VERTEX
  8
LAYER1
 62
     7
  6
CONTINUOUS
 10
2.5360
 20
1.7421
  0
VERTEX
  8
LAYER1
 62
     7
  6
CONTINUOUS
 10
2.5362
 20
1.7427
  0
VERTEX
  8
LAYER1
 62
     7
  6
CONTINUOUS
 10
2.5362
 20
1.7428
  0
VERTEX
  8
LAYER1
 62
     7
  6
CONTINUOUS
 10
2.5362
 20
1.7428
  0
VERTEX
  8
LAYER1
 62
     7
  6
CONTINUOUS
 10
2.5362
 20
1.7429
  0
VERTEX
  8
LAYER1
 62
     7
  6
CONTINUOUS
 10
2.5362
 20
1.7429
  0
VERTEX
  8
LAYER1
 62
     7
  6
CONTINUOUS
 10
2.5362
 20
1.7429
  0
VERTEX
  8
LAYER1
 62
     7
  6
CONTINUOUS
 10
2.5362
 20
1.7429
  0
VERTEX
  8
LAYER1
 62
     7
  6
CONTINUOUS
 10
2.5362
 20
1.7428
  0
VERTEX
  8
LAYER1
 62
     7
  6
CONTINUOUS
 10
2.5362
 20
1.7428
  0
VERTEX
  8
LAYER1
 62
     7
  6
CONTINUOUS
 10
2.5362
 20
1.7428
  0
VERTEX
  8
LAYER1
 62
     7
  6
CONTINUOUS
 10
2.5361
 20
1.7428
  0
VERTEX
  8
LAYER1
 62
     7
  6
CONTINUOUS
 10
2.5362
 20
1.7427
  0
VERTEX
  8
LAYER1
 62
     7
  6
CONTINUOUS
 10
2.5362
 20
1.7427
  0
VERTEX
  8
LAYER1
 62
     7
  6
CONTINUOUS
 10
2.5365
 20
1.7432
  0
VERTEX
  8
LAYER1
 62
     7
  6
CONTINUOUS
 10
2.5374
 20
1.7446
  0
VERTEX
  8
LAYER1
 62
     7
  6
CONTINUOUS
 10
2.5387
 20
1.7469
  0
VERTEX
  8
LAYER1
 62
     7
  6
CONTINUOUS
 10
2.5404
 20
1.7500
  0
VERTEX
  8
LAYER1
 62
     7
  6
CONTINUOUS
 10
2.5424
 20
1.7536
  0
VERTEX
  8
LAYER1
 62
     7
  6
CONTINUOUS
 10
2.5447
 20
1.7576
  0
VERTEX
  8
LAYER1
 62
     7
  6
CONTINUOUS
 10
2.5472
 20
1.7619
  0
VERTEX
  8
LAYER1
 62
     7
  6
CONTINUOUS
 10
2.5500
 20
1.7664
  0
VERTEX
  8
LAYER1
 62
     7
  6
CONTINUOUS
 10
2.5528
 20
1.7709
  0
VERTEX
  8
LAYER1
 62
     7
  6
CONTINUOUS
 10
2.5557
 20
1.7753
  0
VERTEX
  8
LAYER1
 62
     7
  6
CONTINUOUS
 10
2.5586
 20
1.7795
  0
VERTEX
  8
LAYER1
 62
     7
  6
CONTINUOUS
 10
2.5615
 20
1.7832
  0
VERTEX
  8
LAYER1
 62
     7
  6
CONTINUOUS
 10
2.5623
 20
1.7842
  0
VERTEX
  8
LAYER1
 62
     7
  6
CONTINUOUS
 10
2.5632
 20
1.7852
  0
VERTEX
  8
LAYER1
 62
     7
  6
CONTINUOUS
 10
2.5640
 20
1.7861
  0
VERTEX
  8
LAYER1
 62
     7
  6
CONTINUOUS
 10
2.5648
 20
1.7870
  0
VERTEX
  8
LAYER1
 62
     7
  6
CONTINUOUS
 10
2.5657
 20
1.7879
  0
VERTEX
  8
LAYER1
 62
     7
  6
CONTINUOUS
 10
2.5665
 20
1.7887
  0
VERTEX
  8
LAYER1
 62
     7
  6
CONTINUOUS
 10
2.5673
 20
1.7895
  0
VERTEX
  8
LAYER1
 62
     7
  6
CONTINUOUS
 10
2.5682
 20
1.7903
  0
VERTEX
  8
LAYER1
 62
     7
  6
CONTINUOUS
 10
2.5690
 20
1.7911
  0
VERTEX
  8
LAYER1
 62
     7
  6
CONTINUOUS
 10
2.5699
 20
1.7918
  0
SEQEND
  8
LAYER1
  0
POLYLINE
  8
LAYER1
 62
     7
 66
     1
  6
CONTINUOUS
  0
VERTEX
  8
LAYER1
 62
     7
  6
CONTINUOUS
 10
2.5699
 20
1.7918
  0
VERTEX
  8
LAYER1
 62
     7
  6
CONTINUOUS
 10
2.5707
 20
1.7926
  0
VERTEX
  8
LAYER1
 62
     7
  6
CONTINUOUS
 10
2.5716
 20
1.7933
  0
VERTEX
  8
LAYER1
 62
     7
  6
CONTINUOUS
 10
2.5728
 20
1.7942
  0
VERTEX
  8
LAYER1
 62
     7
  6
CONTINUOUS
 10
2.5739
 20
1.7952
  0
VERTEX
  8
LAYER1
 62
     7
  6
CONTINUOUS
 10
2.5751
 20
1.7961
  0
VERTEX
  8
LAYER1
 62
     7
  6
CONTINUOUS
 10
2.5763
 20
1.7970
  0
VERTEX
  8
LAYER1
 62
     7
  6
CONTINUOUS
 10
2.5776
 20
1.7978
  0
VERTEX
  8
LAYER1
 62
     7
  6
CONTINUOUS
 10
2.5788
 20
1.7987
  0
VERTEX
  8
LAYER1
 62
     7
  6
CONTINUOUS
 10
2.5801
 20
1.7996
  0
VERTEX
  8
LAYER1
 62
     7
  6
CONTINUOUS
 10
2.5814
 20
1.8004
  0
VERTEX
  8
LAYER1
 62
     7
  6
CONTINUOUS
 10
2.5827
 20
1.8012
  0
VERTEX
  8
LAYER1
 62
     7
  6
CONTINUOUS
 10
2.5841
 20
1.8020
  0
VERTEX
  8
LAYER1
 62
     7
  6
CONTINUOUS
 10
2.5854
 20
1.8027
  0
VERTEX
  8
LAYER1
 62
     7
  6
CONTINUOUS
 10
2.5868
 20
1.8034
  0
VERTEX
  8
LAYER1
 62
     7
  6
CONTINUOUS
 10
2.5885
 20
1.8043
  0
VERTEX
  8
LAYER1
 62
     7
  6
CONTINUOUS
 10
2.5902
 20
1.8051
  0
VERTEX
  8
LAYER1
 62
     7
  6
CONTINUOUS
 10
2.5920
 20
1.8059
  0
VERTEX
  8
LAYER1
 62
     7
  6
CONTINUOUS
 10
2.5937
 20
1.8067
  0
VERTEX
  8
LAYER1
 62
     7
  6
CONTINUOUS
 10
2.5955
 20
1.8075
  0
VERTEX
  8
LAYER1
 62
     7
  6
CONTINUOUS
 10
2.5972
 20
1.8082
  0
VERTEX
  8
LAYER1
 62
     7
  6
CONTINUOUS
 10
2.5989
 20
1.8090
  0
VERTEX
  8
LAYER1
 62
     7
  6
CONTINUOUS
 10
2.6006
 20
1.8098
  0
VERTEX
  8
LAYER1
 62
     7
  6
CONTINUOUS
 10
2.6023
 20
1.8107
  0
VERTEX
  8
LAYER1
 62
     7
  6
CONTINUOUS
 10
2.6039
 20
1.8116
  0
VERTEX
  8
LAYER1
 62
     7
  6
CONTINUOUS
 10
2.6055
 20
1.8125
  0
VERTEX
  8
LAYER1
 62
     7
  6
CONTINUOUS
 10
2.6071
 20
1.8135
  0
VERTEX
  8
LAYER1
 62
     7
  6
CONTINUOUS
 10
2.6085
 20
1.8146
  0
VERTEX
  8
LAYER1
 62
     7
  6
CONTINUOUS
 10
2.6099
 20
1.8157
  0
VERTEX
  8
LAYER1
 62
     7
  6
CONTINUOUS
 10
2.6112
 20
1.8168
  0
VERTEX
  8
LAYER1
 62
     7
  6
CONTINUOUS
 10
2.6125
 20
1.8180
  0
VERTEX
  8
LAYER1
 62
     7
  6
CONTINUOUS
 10
2.6138
 20
1.8192
  0
VERTEX
  8
LAYER1
 62
     7
  6
CONTINUOUS
 10
2.6151
 20
1.8205
  0
VERTEX
  8
LAYER1
 62
     7
  6
CONTINUOUS
 10
2.6163
 20
1.8218
  0
VERTEX
  8
LAYER1
 62
     7
  6
CONTINUOUS
 10
2.6175
 20
1.8232
  0
VERTEX
  8
LAYER1
 62
     7
  6
CONTINUOUS
 10
2.6187
 20
1.8245
  0
VERTEX
  8
LAYER1
 62
     7
  6
CONTINUOUS
 10
2.6199
 20
1.8259
  0
VERTEX
  8
LAYER1
 62
     7
  6
CONTINUOUS
 10
2.6211
 20
1.8273
  0
VERTEX
  8
LAYER1
 62
     7
  6
CONTINUOUS
 10
2.6222
 20
1.8287
  0
VERTEX
  8
LAYER1
 62
     7
  6
CONTINUOUS
 10
2.6232
 20
1.8299
  0
VERTEX
  8
LAYER1
 62
     7
  6
CONTINUOUS
 10
2.6242
 20
1.8311
  0
VERTEX
  8
LAYER1
 62
     7
  6
CONTINUOUS
 10
2.6252
 20
1.8323
  0
VERTEX
  8
LAYER1
 62
     7
  6
CONTINUOUS
 10
2.6261
 20
1.8335
  0
VERTEX
  8
LAYER1
 62
     7
  6
CONTINUOUS
 10
2.6271
 20
1.8347
  0
VERTEX
  8
LAYER1
 62
     7
  6
CONTINUOUS
 10
2.6280
 20
1.8360
  0
VERTEX
  8
LAYER1
 62
     7
  6
CONTINUOUS
 10
2.6288
 20
1.8372
  0
VERTEX
  8
LAYER1
 62
     7
  6
CONTINUOUS
 10
2.6296
 20
1.8385
  0
VERTEX
  8
LAYER1
 62
     7
  6
CONTINUOUS
 10
2.6304
 20
1.8398
  0
VERTEX
  8
LAYER1
 62
     7
  6
CONTINUOUS
 10
2.6311
 20
1.8411
  0
VERTEX
  8
LAYER1
 62
     7
  6
CONTINUOUS
 10
2.6318
 20
1.8425
  0
VERTEX
  8
LAYER1
 62
     7
  6
CONTINUOUS
 10
2.6324
 20
1.8439
  0
VERTEX
  8
LAYER1
 62
     7
  6
CONTINUOUS
 10
2.6328
 20
1.8451
  0
VERTEX
  8
LAYER1
 62
     7
  6
CONTINUOUS
 10
2.6333
 20
1.8464
  0
VERTEX
  8
LAYER1
 62
     7
  6
CONTINUOUS
 10
2.6336
 20
1.8477
  0
VERTEX
  8
LAYER1
 62
     7
  6
CONTINUOUS
 10
2.6340
 20
1.8490
  0
VERTEX
  8
LAYER1
 62
     7
  6
CONTINUOUS
 10
2.6344
 20
1.8503
  0
VERTEX
  8
LAYER1
 62
     7
  6
CONTINUOUS
 10
2.6347
 20
1.8516
  0
VERTEX
  8
LAYER1
 62
     7
  6
CONTINUOUS
 10
2.6351
 20
1.8529
  0
VERTEX
  8
LAYER1
 62
     7
  6
CONTINUOUS
 10
2.6355
 20
1.8542
  0
VERTEX
  8
LAYER1
 62
     7
  6
CONTINUOUS
 10
2.6359
 20
1.8554
  0
VERTEX
  8
LAYER1
 62
     7
  6
CONTINUOUS
 10
2.6363
 20
1.8567
  0
VERTEX
  8
LAYER1
 62
     7
  6
CONTINUOUS
 10
2.6369
 20
1.8579
  0
VERTEX
  8
LAYER1
 62
     7
  6
CONTINUOUS
 10
2.6374
 20
1.8591
  0
VERTEX
  8
LAYER1
 62
     7
  6
CONTINUOUS
 10
2.6394
 20
1.8620
  0
VERTEX
  8
LAYER1
 62
     7
  6
CONTINUOUS
 10
2.6418
 20
1.8647
  0
VERTEX
  8
LAYER1
 62
     7
  6
CONTINUOUS
 10
2.6445
 20
1.8672
  0
VERTEX
  8
LAYER1
 62
     7
  6
CONTINUOUS
 10
2.6475
 20
1.8696
  0
VERTEX
  8
LAYER1
 62
     7
  6
CONTINUOUS
 10
2.6506
 20
1.8719
  0
VERTEX
  8
LAYER1
 62
     7
  6
CONTINUOUS
 10
2.6538
 20
1.8741
  0
VERTEX
  8
LAYER1
 62
     7
  6
CONTINUOUS
 10
2.6569
 20
1.8764
  0
VERTEX
  8
LAYER1
 62
     7
  6
CONTINUOUS
 10
2.6599
 20
1.8786
  0
VERTEX
  8
LAYER1
 62
     7
  6
CONTINUOUS
 10
2.6625
 20
1.8810
  0
VERTEX
  8
LAYER1
 62
     7
  6
CONTINUOUS
 10
2.6648
 20
1.8836
  0
VERTEX
  8
LAYER1
 62
     7
  6
CONTINUOUS
 10
2.6666
 20
1.8864
  0
VERTEX
  8
LAYER1
 62
     7
  6
CONTINUOUS
 10
2.6678
 20
1.8894
  0
VERTEX
  8
LAYER1
 62
     7
  6
CONTINUOUS
 10
2.6681
 20
1.8906
  0
VERTEX
  8
LAYER1
 62
     7
  6
CONTINUOUS
 10
2.6683
 20
1.8917
  0
VERTEX
  8
LAYER1
 62
     7
  6
CONTINUOUS
 10
2.6684
 20
1.8929
  0
VERTEX
  8
LAYER1
 62
     7
  6
CONTINUOUS
 10
2.6685
 20
1.8942
  0
VERTEX
  8
LAYER1
 62
     7
  6
CONTINUOUS
 10
2.6685
 20
1.8954
  0
VERTEX
  8
LAYER1
 62
     7
  6
CONTINUOUS
 10
2.6685
 20
1.8967
  0
VERTEX
  8
LAYER1
 62
     7
  6
CONTINUOUS
 10
2.6684
 20
1.8980
  0
VERTEX
  8
LAYER1
 62
     7
  6
CONTINUOUS
 10
2.6683
 20
1.8993
  0
VERTEX
  8
LAYER1
 62
     7
  6
CONTINUOUS
 10
2.6682
 20
1.9006
  0
VERTEX
  8
LAYER1
 62
     7
  6
CONTINUOUS
 10
2.6681
 20
1.9020
  0
VERTEX
  8
LAYER1
 62
     7
  6
CONTINUOUS
 10
2.6680
 20
1.9033
  0
VERTEX
  8
LAYER1
 62
     7
  6
CONTINUOUS
 10
2.6678
 20
1.9046
  0
VERTEX
  8
LAYER1
 62
     7
  6
CONTINUOUS
 10
2.6677
 20
1.9072
  0
VERTEX
  8
LAYER1
 62
     7
  6
CONTINUOUS
 10
2.6675
 20
1.9098
  0
VERTEX
  8
LAYER1
 62
     7
  6
CONTINUOUS
 10
2.6675
 20
1.9123
  0
VERTEX
  8
LAYER1
 62
     7
  6
CONTINUOUS
 10
2.6674
 20
1.9149
  0
VERTEX
  8
LAYER1
 62
     7
  6
CONTINUOUS
 10
2.6674
 20
1.9174
  0
VERTEX
  8
LAYER1
 62
     7
  6
CONTINUOUS
 10
2.6675
 20
1.9199
  0
VERTEX
  8
LAYER1
 62
     7
  6
CONTINUOUS
 10
2.6675
 20
1.9224
  0
VERTEX
  8
LAYER1
 62
     7
  6
CONTINUOUS
 10
2.6676
 20
1.9249
  0
VERTEX
  8
LAYER1
 62
     7
  6
CONTINUOUS
 10
2.6677
 20
1.9274
  0
VERTEX
  8
LAYER1
 62
     7
  6
CONTINUOUS
 10
2.6677
 20
1.9299
  0
VERTEX
  8
LAYER1
 62
     7
  6
CONTINUOUS
 10
2.6678
 20
1.9324
  0
VERTEX
  8
LAYER1
 62
     7
  6
CONTINUOUS
 10
2.6679
 20
1.9350
  0
VERTEX
  8
LAYER1
 62
     7
  6
CONTINUOUS
 10
2.6679
 20
1.9358
  0
VERTEX
  8
LAYER1
 62
     7
  6
CONTINUOUS
 10
2.6679
 20
1.9367
  0
VERTEX
  8
LAYER1
 62
     7
  6
CONTINUOUS
 10
2.6679
 20
1.9375
  0
VERTEX
  8
LAYER1
 62
     7
  6
CONTINUOUS
 10
2.6679
 20
1.9383
  0
VERTEX
  8
LAYER1
 62
     7
  6
CONTINUOUS
 10
2.6679
 20
1.9392
  0
VERTEX
  8
LAYER1
 62
     7
  6
CONTINUOUS
 10
2.6679
 20
1.9400
  0
VERTEX
  8
LAYER1
 62
     7
  6
CONTINUOUS
 10
2.6679
 20
1.9409
  0
VERTEX
  8
LAYER1
 62
     7
  6
CONTINUOUS
 10
2.6679
 20
1.9417
  0
VERTEX
  8
LAYER1
 62
     7
  6
CONTINUOUS
 10
2.6679
 20
1.9426
  0
VERTEX
  8
LAYER1
 62
     7
  6
CONTINUOUS
 10
2.6679
 20
1.9434
  0
VERTEX
  8
LAYER1
 62
     7
  6
CONTINUOUS
 10
2.6679
 20
1.9443
  0
VERTEX
  8
LAYER1
 62
     7
  6
CONTINUOUS
 10
2.6679
 20
1.9451
  0
VERTEX
  8
LAYER1
 62
     7
  6
CONTINUOUS
 10
2.6678
 20
1.9476
  0
VERTEX
  8
LAYER1
 62
     7
  6
CONTINUOUS
 10
2.6678
 20
1.9501
  0
VERTEX
  8
LAYER1
 62
     7
  6
CONTINUOUS
 10
2.6677
 20
1.9525
  0
VERTEX
  8
LAYER1
 62
     7
  6
CONTINUOUS
 10
2.6678
 20
1.9549
  0
VERTEX
  8
LAYER1
 62
     7
  6
CONTINUOUS
 10
2.6679
 20
1.9574
  0
VERTEX
  8
LAYER1
 62
     7
  6
CONTINUOUS
 10
2.6681
 20
1.9598
  0
VERTEX
  8
LAYER1
 62
     7
  6
CONTINUOUS
 10
2.6684
 20
1.9623
  0
VERTEX
  8
LAYER1
 62
     7
  6
CONTINUOUS
 10
2.6689
 20
1.9648
  0
VERTEX
  8
LAYER1
 62
     7
  6
CONTINUOUS
 10
2.6696
 20
1.9674
  0
VERTEX
  8
LAYER1
 62
     7
  6
CONTINUOUS
 10
2.6705
 20
1.9700
  0
VERTEX
  8
LAYER1
 62
     7
  6
CONTINUOUS
 10
2.6716
 20
1.9727
  0
VERTEX
  8
LAYER1
 62
     7
  6
CONTINUOUS
 10
2.6729
 20
1.9754
  0
VERTEX
  8
LAYER1
 62
     7
  6
CONTINUOUS
 10
2.6743
 20
1.9778
  0
VERTEX
  8
LAYER1
 62
     7
  6
CONTINUOUS
 10
2.6757
 20
1.9801
  0
VERTEX
  8
LAYER1
 62
     7
  6
CONTINUOUS
 10
2.6773
 20
1.9824
  0
VERTEX
  8
LAYER1
 62
     7
  6
CONTINUOUS
 10
2.6789
 20
1.9847
  0
VERTEX
  8
LAYER1
 62
     7
  6
CONTINUOUS
 10
2.6805
 20
1.9869
  0
VERTEX
  8
LAYER1
 62
     7
  6
CONTINUOUS
 10
2.6821
 20
1.9889
  0
VERTEX
  8
LAYER1
 62
     7
  6
CONTINUOUS
 10
2.6836
 20
1.9907
  0
VERTEX
  8
LAYER1
 62
     7
  6
CONTINUOUS
 10
2.6850
 20
1.9923
  0
VERTEX
  8
LAYER1
 62
     7
  6
CONTINUOUS
 10
2.6862
 20
1.9937
  0
VERTEX
  8
LAYER1
 62
     7
  6
CONTINUOUS
 10
2.6871
 20
1.9947
  0
VERTEX
  8
LAYER1
 62
     7
  6
CONTINUOUS
 10
2.6878
 20
1.9954
  0
VERTEX
  8
LAYER1
 62
     7
  6
CONTINUOUS
 10
2.6881
 20
1.9957
  0
VERTEX
  8
LAYER1
 62
     7
  6
CONTINUOUS
 10
2.6882
 20
1.9957
  0
VERTEX
  8
LAYER1
 62
     7
  6
CONTINUOUS
 10
2.6882
 20
1.9957
  0
VERTEX
  8
LAYER1
 62
     7
  6
CONTINUOUS
 10
2.6882
 20
1.9957
  0
VERTEX
  8
LAYER1
 62
     7
  6
CONTINUOUS
 10
2.6882
 20
1.9957
  0
VERTEX
  8
LAYER1
 62
     7
  6
CONTINUOUS
 10
2.6882
 20
1.9956
  0
VERTEX
  8
LAYER1
 62
     7
  6
CONTINUOUS
 10
2.6882
 20
1.9956
  0
VERTEX
  8
LAYER1
 62
     7
  6
CONTINUOUS
 10
2.6882
 20
1.9956
  0
VERTEX
  8
LAYER1
 62
     7
  6
CONTINUOUS
 10
2.6882
 20
1.9956
  0
VERTEX
  8
LAYER1
 62
     7
  6
CONTINUOUS
 10
2.6882
 20
1.9956
  0
VERTEX
  8
LAYER1
 62
     7
  6
CONTINUOUS
 10
2.6881
 20
1.9956
  0
VERTEX
  8
LAYER1
 62
     7
  6
CONTINUOUS
 10
2.6881
 20
1.9956
  0
VERTEX
  8
LAYER1
 62
     7
  6
CONTINUOUS
 10
2.6881
 20
1.9957
  0
VERTEX
  8
LAYER1
 62
     7
  6
CONTINUOUS
 10
2.6882
 20
1.9962
  0
VERTEX
  8
LAYER1
 62
     7
  6
CONTINUOUS
 10
2.6885
 20
1.9971
  0
VERTEX
  8
LAYER1
 62
     7
  6
CONTINUOUS
 10
2.6889
 20
1.9984
  0
VERTEX
  8
LAYER1
 62
     7
  6
CONTINUOUS
 10
2.6895
 20
2.0001
  0
VERTEX
  8
LAYER1
 62
     7
  6
CONTINUOUS
 10
2.6902
 20
2.0019
  0
VERTEX
  8
LAYER1
 62
     7
  6
CONTINUOUS
 10
2.6910
 20
2.0039
  0
VERTEX
  8
LAYER1
 62
     7
  6
CONTINUOUS
 10
2.6919
 20
2.0061
  0
VERTEX
  8
LAYER1
 62
     7
  6
CONTINUOUS
 10
2.6930
 20
2.0082
  0
VERTEX
  8
LAYER1
 62
     7
  6
CONTINUOUS
 10
2.6942
 20
2.0104
  0
VERTEX
  8
LAYER1
 62
     7
  6
CONTINUOUS
 10
2.6955
 20
2.0124
  0
VERTEX
  8
LAYER1
 62
     7
  6
CONTINUOUS
 10
2.6968
 20
2.0143
  0
VERTEX
  8
LAYER1
 62
     7
  6
CONTINUOUS
 10
2.6983
 20
2.0159
  0
VERTEX
  8
LAYER1
 62
     7
  6
CONTINUOUS
 10
2.6990
 20
2.0166
  0
VERTEX
  8
LAYER1
 62
     7
  6
CONTINUOUS
 10
2.6998
 20
2.0173
  0
VERTEX
  8
LAYER1
 62
     7
  6
CONTINUOUS
 10
2.7006
 20
2.0178
  0
VERTEX
  8
LAYER1
 62
     7
  6
CONTINUOUS
 10
2.7014
 20
2.0184
  0
VERTEX
  8
LAYER1
 62
     7
  6
CONTINUOUS
 10
2.7022
 20
2.0188
  0
VERTEX
  8
LAYER1
 62
     7
  6
CONTINUOUS
 10
2.7031
 20
2.0192
  0
VERTEX
  8
LAYER1
 62
     7
  6
CONTINUOUS
 10
2.7039
 20
2.0196
  0
VERTEX
  8
LAYER1
 62
     7
  6
CONTINUOUS
 10
2.7048
 20
2.0199
  0
VERTEX
  8
LAYER1
 62
     7
  6
CONTINUOUS
 10
2.7057
 20
2.0202
  0
VERTEX
  8
LAYER1
 62
     7
  6
CONTINUOUS
 10
2.7066
 20
2.0205
  0
VERTEX
  8
LAYER1
 62
     7
  6
CONTINUOUS
 10
2.7075
 20
2.0207
  0
VERTEX
  8
LAYER1
 62
     7
  6
CONTINUOUS
 10
2.7084
 20
2.0210
  0
VERTEX
  8
LAYER1
 62
     7
  6
CONTINUOUS
 10
2.7101
 20
2.0213
  0
VERTEX
  8
LAYER1
 62
     7
  6
CONTINUOUS
 10
2.7118
 20
2.0216
  0
VERTEX
  8
LAYER1
 62
     7
  6
CONTINUOUS
 10
2.7135
 20
2.0219
  0
VERTEX
  8
LAYER1
 62
     7
  6
CONTINUOUS
 10
2.7152
 20
2.0221
  0
VERTEX
  8
LAYER1
 62
     7
  6
CONTINUOUS
 10
2.7169
 20
2.0222
  0
VERTEX
  8
LAYER1
 62
     7
  6
CONTINUOUS
 10
2.7187
 20
2.0223
  0
VERTEX
  8
LAYER1
 62
     7
  6
CONTINUOUS
 10
2.7204
 20
2.0223
  0
VERTEX
  8
LAYER1
 62
     7
  6
CONTINUOUS
 10
2.7221
 20
2.0222
  0
VERTEX
  8
LAYER1
 62
     7
  6
CONTINUOUS
 10
2.7238
 20
2.0220
  0
VERTEX
  8
LAYER1
 62
     7
  6
CONTINUOUS
 10
2.7255
 20
2.0217
  0
VERTEX
  8
LAYER1
 62
     7
  6
CONTINUOUS
 10
2.7271
 20
2.0214
  0
VERTEX
  8
LAYER1
 62
     7
  6
CONTINUOUS
 10
2.7286
 20
2.0210
  0
SEQEND
  8
LAYER1
  0
CIRCLE
  8
LAYER1
 62
     7
  6
CONTINUOUS
 10
3.0298
 20
1.7590
 40
0.0129
  0
CIRCLE
  8
LAYER1
 62
     7
  6
CONTINUOUS
 10
2.6919
 20
1.6989
 40
0.0137
  0
CIRCLE
  8
LAYER1
 62
     7
  6
CONTINUOUS
 10
2.8111
 20
1.6427
 40
0.0230
  0
CIRCLE
  8
LAYER1
 62
     7
  6
CONTINUOUS
 10
2.9354
 20
1.5993
 40
0.0114
  0
CIRCLE
  8
LAYER1
 62
     7
  6
CONTINUOUS
 10
2.6943
 20
1.6024
 40
0.0148
  0
ARC
  8
LAYER1
 62
     7
  6
CONTINUOUS
 10
2.2257
 20
2.5683
 40
0.0178
 50
-100.9814
 51
-81.3255
  0
ARC
  8
LAYER1
 62
     7
  6
CONTINUOUS
 10
2.9920
 20
2.5429
 40
0.0151
 50
148.2645
 51
-89.4381
  0
ARC
  8
LAYER1
 62
     7
  6
CONTINUOUS
 10
2.0766
 20
2.4061
 40
0.0191
 50
67.3450
 51
120.7694
  0
ARC
  8
LAYER1
 62
     7
  6
CONTINUOUS
 10
2.0766
 20
2.4061
 40
0.0191
 50
120.7691
 51
-120.7695
  0
ARC
  8
LAYER1
 62
     7
  6
CONTINUOUS
 10
2.0766
 20
2.4061
 40
0.0191
 50
-120.7699
 51
67.3451
  0
ARC
  8
LAYER1
 62
     7
  6
CONTINUOUS
 10
2.0319
 20
2.0867
 40
0.0181
 50
-16.8325
 51
16.8318
  0
ARC
  8
LAYER1
 62
     7
  6
CONTINUOUS
 10
2.8440
 20
1.5690
 40
0.0152
 50
-8.8802
 51
-171.1198
  0
ARC
  8
LAYER1
 62
     7
  6
CONTINUOUS
 10
2.2257
 20
2.5683
 40
0.0178
 50
-81.3258
 51
-79.0345
  0
ARC
  8
LAYER1
 62
     7
  6
CONTINUOUS
 10
2.9920
 20
2.5429
 40
0.0151
 50
-89.4380
 51
31.7369
  0
ARC
  8
LAYER1
 62
     7
  6
HIDDEN
 10
2.5003
 20
2.4830
 40
0.0731
 50
111.8882
 51
68.1118
  0
POLYLINE
  8
LAYER10
 62
     1
 66
     1
  6
CONTINUOUS
  0
VERTEX
  8
LAYER10
 62
     1
  6
CONTINUOUS
 10
3.0752
 20
1.8827
  0
VERTEX
  8
LAYER10
 62
     1
  6
CONTINUOUS
 10
3.0752
 20
1.8827
  0
VERTEX
  8
LAYER10
 62
     1
  6
CONTINUOUS
 10
3.0752
 20
1.8827
  0
VERTEX
  8
LAYER10
 62
     1
  6
CONTINUOUS
 10
3.0752
 20
1.8827
  0
VERTEX
  8
LAYER10
 62
     1
  6
CONTINUOUS
 10
3.0752
 20
1.8827
  0
VERTEX
  8
LAYER10
 62
     1
  6
CONTINUOUS
 10
3.0752
 20
1.8827
  0
VERTEX
  8
LAYER10
 62
     1
  6
CONTINUOUS
 10
3.0752
 20
1.8827
  0
VERTEX
  8
LAYER10
 62
     1
  6
CONTINUOUS
 10
3.0752
 20
1.8827
  0
VERTEX
  8
LAYER10
 62
     1
  6
CONTINUOUS
 10
3.0752
 20
1.8827
  0
VERTEX
  8
LAYER10
 62
     1
  6
CONTINUOUS
 10
3.0752
 20
1.8827
  0
VERTEX
  8
LAYER10
 62
     1
  6
CONTINUOUS
 10
3.0752
 20
1.8827
  0
VERTEX
  8
LAYER10
 62
     1
  6
CONTINUOUS
 10
3.0752
 20
1.8827
  0
VERTEX
  8
LAYER10
 62
     1
  6
CONTINUOUS
 10
3.0752
 20
1.8827
  0
VERTEX
  8
LAYER10
 62
     1
  6
CONTINUOUS
 10
3.0752
 20
1.8827
  0
VERTEX
  8
LAYER10
 62
     1
  6
CONTINUOUS
 10
3.0752
 20
1.8827
  0
VERTEX
  8
LAYER10
 62
     1
  6
CONTINUOUS
 10
3.0752
 20
1.8827
  0
VERTEX
  8
LAYER10
 62
     1
  6
CONTINUOUS
 10
3.0752
 20
1.8827
  0
VERTEX
  8
LAYER10
 62
     1
  6
CONTINUOUS
 10
3.0752
 20
1.8827
  0
VERTEX
  8
LAYER10
 62
     1
  6
CONTINUOUS
 10
3.0752
 20
1.8827
  0
VERTEX
  8
LAYER10
 62
     1
  6
CONTINUOUS
 10
3.0752
 20
1.8827
  0
VERTEX
  8
LAYER10
 62
     1
  6
CONTINUOUS
 10
3.0752
 20
1.8827
  0
VERTEX
  8
LAYER10
 62
     1
  6
CONTINUOUS
 10
3.0752
 20
1.8827
  0
VERTEX
  8
LAYER10
 62
     1
  6
CONTINUOUS
 10
3.0752
 20
1.8827
  0
VERTEX
  8
LAYER10
 62
     1
  6
CONTINUOUS
 10
3.0752
 20
1.8827
  0
VERTEX
  8
LAYER10
 62
     1
  6
CONTINUOUS
 10
3.0752
 20
1.8827
  0
SEQEND
  8
LAYER10
  0
POLYLINE
  8
LAYER10
 62
     1
 66
     1
  6
CONTINUOUS
  0
VERTEX
  8
LAYER10
 62
     1
  6
CONTINUOUS
 10
3.0752
 20
1.8827
  0
VERTEX
  8
LAYER10
 62
     1
  6
CONTINUOUS
 10
3.0752
 20
1.8827
  0
VERTEX
  8
LAYER10
 62
     1
  6
CONTINUOUS
 10
3.0752
 20
1.8827
  0
VERTEX
  8
LAYER10
 62
     1
  6
CONTINUOUS
 10
3.0752
 20
1.8827
  0
VERTEX
  8
LAYER10
 62
     1
  6
CONTINUOUS
 10
3.0752
 20
1.8827
  0
VERTEX
  8
LAYER10
 62
     1
  6
CONTINUOUS
 10
3.0752
 20
1.8827
  0
VERTEX
  8
LAYER10
 62
     1
  6
CONTINUOUS
 10
3.0752
 20
1.8827
  0
VERTEX
  8
LAYER10
 62
     1
  6
CONTINUOUS
 10
3.0752
 20
1.8827
  0
VERTEX
  8
LAYER10
 62
     1
  6
CONTINUOUS
 10
3.0752
 20
1.8827
  0
VERTEX
  8
LAYER10
 62
     1
  6
CONTINUOUS
 10
3.0752
 20
1.8827
  0
VERTEX
  8
LAYER10
 62
     1
  6
CONTINUOUS
 10
3.0752
 20
1.8827
  0
VERTEX
  8
LAYER10
 62
     1
  6
CONTINUOUS
 10
3.0752
 20
1.8827
  0
VERTEX
  8
LAYER10
 62
     1
  6
CONTINUOUS
 10
3.0752
 20
1.8827
  0
VERTEX
  8
LAYER10
 62
     1
  6
CONTINUOUS
 10
3.0752
 20
1.8827
  0
VERTEX
  8
LAYER10
 62
     1
  6
CONTINUOUS
 10
3.0752
 20
1.8827
  0
VERTEX
  8
LAYER10
 62
     1
  6
CONTINUOUS
 10
3.0752
 20
1.8827
  0
VERTEX
  8
LAYER10
 62
     1
  6
CONTINUOUS
 10
3.0752
 20
1.8827
  0
VERTEX
  8
LAYER10
 62
     1
  6
CONTINUOUS
 10
3.0752
 20
1.8827
  0
VERTEX
  8
LAYER10
 62
     1
  6
CONTINUOUS
 10
3.0752
 20
1.8827
  0
VERTEX
  8
LAYER10
 62
     1
  6
CONTINUOUS
 10
3.0752
 20
1.8827
  0
VERTEX
  8
LAYER10
 62
     1
  6
CONTINUOUS
 10
3.0752
 20
1.8827
  0
VERTEX
  8
LAYER10
 62
     1
  6
CONTINUOUS
 10
3.0752
 20
1.8827
  0
VERTEX
  8
LAYER10
 62
     1
  6
CONTINUOUS
 10
3.0752
 20
1.8827
  0
VERTEX
  8
LAYER10
 62
     1
  6
CONTINUOUS
 10
3.0752
 20
1.8827
  0
VERTEX
  8
LAYER10
 62
     1
  6
CONTINUOUS
 10
3.0752
 20
1.8827
  0
SEQEND
  8
LAYER10
  0
POLYLINE
  8
LAYER10
 62
     1
 66
     1
  6
CONTINUOUS
  0
VERTEX
  8
LAYER10
 62
     1
  6
CONTINUOUS
 10
3.0752
 20
1.8827
  0
VERTEX
  8
LAYER10
 62
     1
  6
CONTINUOUS
 10
3.0746
 20
1.8841
  0
VERTEX
  8
LAYER10
 62
     1
  6
CONTINUOUS
 10
3.0739
 20
1.8854
  0
VERTEX
  8
LAYER10
 62
     1
  6
CONTINUOUS
 10
3.0733
 20
1.8868
  0
VERTEX
  8
LAYER10
 62
     1
  6
CONTINUOUS
 10
3.0726
 20
1.8881
  0
VERTEX
  8
LAYER10
 62
     1
  6
CONTINUOUS
 10
3.0720
 20
1.8895
  0
VERTEX
  8
LAYER10
 62
     1
  6
CONTINUOUS
 10
3.0714
 20
1.8909
  0
VERTEX
  8
LAYER10
 62
     1
  6
CONTINUOUS
 10
3.0707
 20
1.8922
  0
VERTEX
  8
LAYER10
 62
     1
  6
CONTINUOUS
 10
3.0701
 20
1.8936
  0
VERTEX
  8
LAYER10
 62
     1
  6
CONTINUOUS
 10
3.0695
 20
1.8950
  0
VERTEX
  8
LAYER10
 62
     1
  6
CONTINUOUS
 10
3.0689
 20
1.8964
  0
VERTEX
  8
LAYER10
 62
     1
  6
CONTINUOUS
 10
3.0682
 20
1.8978
  0
VERTEX
  8
LAYER10
 62
     1
  6
CONTINUOUS
 10
3.0676
 20
1.8993
  0
VERTEX
  8
LAYER10
 62
     1
  6
CONTINUOUS
 10
3.0673
 20
1.9002
  0
VERTEX
  8
LAYER10
 62
     1
  6
CONTINUOUS
 10
3.0669
 20
1.9011
  0
VERTEX
  8
LAYER10
 62
     1
  6
CONTINUOUS
 10
3.0665
 20
1.9020
  0
VERTEX
  8
LAYER10
 62
     1
  6
CONTINUOUS
 10
3.0661
 20
1.9028
  0
VERTEX
  8
LAYER10
 62
     1
  6
CONTINUOUS
 10
3.0657
 20
1.9037
  0
VERTEX
  8
LAYER10
 62
     1
  6
CONTINUOUS
 10
3.0653
 20
1.9046
  0
VERTEX
  8
LAYER10
 62
     1
  6
CONTINUOUS
 10
3.0649
 20
1.9055
  0
VERTEX
  8
LAYER10
 62
     1
  6
CONTINUOUS
 10
3.0645
 20
1.9063
  0
VERTEX
  8
LAYER10
 62
     1
  6
CONTINUOUS
 10
3.0641
 20
1.9071
  0
VERTEX
  8
LAYER10
 62
     1
  6
CONTINUOUS
 10
3.0636
 20
1.9079
  0
VERTEX
  8
LAYER10
 62
     1
  6
CONTINUOUS
 10
3.0631
 20
1.9087
  0
VERTEX
  8
LAYER10
 62
     1
  6
CONTINUOUS
 10
3.0626
 20
1.9094
  0
VERTEX
  8
LAYER10
 62
     1
  6
CONTINUOUS
 10
3.0607
 20
1.9115
  0
VERTEX
  8
LAYER10
 62
     1
  6
CONTINUOUS
 10
3.0586
 20
1.9133
  0
VERTEX
  8
LAYER10
 62
     1
  6
CONTINUOUS
 10
3.0561
 20
1.9148
  0
VERTEX
  8
LAYER10
 62
     1
  6
CONTINUOUS
 10
3.0535
 20
1.9160
  0
VERTEX
  8
LAYER10
 62
     1
  6
CONTINUOUS
 10
3.0506
 20
1.9170
  0
VERTEX
  8
LAYER10
 62
     1
  6
CONTINUOUS
 10
3.0476
 20
1.9177
  0
VERTEX
  8
LAYER10
 62
     1
  6
CONTINUOUS
 10
3.0444
 20
1.9183
  0
VERTEX
  8
LAYER10
 62
     1
  6
CONTINUOUS
 10
3.0411
 20
1.9187
  0
VERTEX
  8
LAYER10
 62
     1
  6
CONTINUOUS
 10
3.0377
 20
1.9190
  0
VERTEX
  8
LAYER10
 62
     1
  6
CONTINUOUS
 10
3.0343
 20
1.9192
  0
VERTEX
  8
LAYER10
 62
     1
  6
CONTINUOUS
 10
3.0307
 20
1.9194
  0
VERTEX
  8
LAYER10
 62
     1
  6
CONTINUOUS
 10
3.0272
 20
1.9195
  0
VERTEX
  8
LAYER10
 62
     1
  6
CONTINUOUS
 10
3.0251
 20
1.9196
  0
VERTEX
  8
LAYER10
 62
     1
  6
CONTINUOUS
 10
3.0231
 20
1.9197
  0
VERTEX
  8
LAYER10
 62
     1
  6
CONTINUOUS
 10
3.0212
 20
1.9198
  0
VERTEX
  8
LAYER10
 62
     1
  6
CONTINUOUS
 10
3.0192
 20
1.9200
  0
VERTEX
  8
LAYER10
 62
     1
  6
CONTINUOUS
 10
3.0174
 20
1.9202
  0
VERTEX
  8
LAYER10
 62
     1
  6
CONTINUOUS
 10
3.0156
 20
1.9206
  0
VERTEX
  8
LAYER10
 62
     1
  6
CONTINUOUS
 10
3.0138
 20
1.9209
  0
VERTEX
  8
LAYER10
 62
     1
  6
CONTINUOUS
 10
3.0122
 20
1.9214
  0
VERTEX
  8
LAYER10
 62
     1
  6
CONTINUOUS
 10
3.0107
 20
1.9220
  0
VERTEX
  8
LAYER10
 62
     1
  6
CONTINUOUS
 10
3.0093
 20
1.9227
  0
VERTEX
  8
LAYER10
 62
     1
  6
CONTINUOUS
 10
3.0080
 20
1.9236
  0
VERTEX
  8
LAYER10
 62
     1
  6
CONTINUOUS
 10
3.0069
 20
1.9246
  0
VERTEX
  8
LAYER10
 62
     1
  6
CONTINUOUS
 10
3.0060
 20
1.9258
  0
VERTEX
  8
LAYER10
 62
     1
  6
CONTINUOUS
 10
3.0052
 20
1.9271
  0
VERTEX
  8
LAYER10
 62
     1
  6
CONTINUOUS
 10
3.0045
 20
1.9286
  0
VERTEX
  8
LAYER10
 62
     1
  6
CONTINUOUS
 10
3.0040
 20
1.9301
  0
VERTEX
  8
LAYER10
 62
     1
  6
CONTINUOUS
 10
3.0035
 20
1.9318
  0
VERTEX
  8
LAYER10
 62
     1
  6
CONTINUOUS
 10
3.0031
 20
1.9336
  0
VERTEX
  8
LAYER10
 62
     1
  6
CONTINUOUS
 10
3.0028
 20
1.9354
  0
VERTEX
  8
LAYER10
 62
     1
  6
CONTINUOUS
 10
3.0026
 20
1.9373
  0
VERTEX
  8
LAYER10
 62
     1
  6
CONTINUOUS
 10
3.0024
 20
1.9391
  0
VERTEX
  8
LAYER10
 62
     1
  6
CONTINUOUS
 10
3.0022
 20
1.9411
  0
VERTEX
  8
LAYER10
 62
     1
  6
CONTINUOUS
 10
3.0021
 20
1.9430
  0
VERTEX
  8
LAYER10
 62
     1
  6
CONTINUOUS
 10
3.0019
 20
1.9449
  0
VERTEX
  8
LAYER10
 62
     1
  6
CONTINUOUS
 10
3.0018
 20
1.9458
  0
VERTEX
  8
LAYER10
 62
     1
  6
CONTINUOUS
 10
3.0017
 20
1.9467
  0
VERTEX
  8
LAYER10
 62
     1
  6
CONTINUOUS
 10
3.0016
 20
1.9475
  0
VERTEX
  8
LAYER10
 62
     1
  6
CONTINUOUS
 10
3.0015
 20
1.9484
  0
VERTEX
  8
LAYER10
 62
     1
  6
CONTINUOUS
 10
3.0015
 20
1.9493
  0
VERTEX
  8
LAYER10
 62
     1
  6
CONTINUOUS
 10
3.0014
 20
1.9501
  0
VERTEX
  8
LAYER10
 62
     1
  6
CONTINUOUS
 10
3.0014
 20
1.9510
  0
VERTEX
  8
LAYER10
 62
     1
  6
CONTINUOUS
 10
3.0014
 20
1.9518
  0
VERTEX
  8
LAYER10
 62
     1
  6
CONTINUOUS
 10
3.0015
 20
1.9526
  0
VERTEX
  8
LAYER10
 62
     1
  6
CONTINUOUS
 10
3.0016
 20
1.9534
  0
VERTEX
  8
LAYER10
 62
     1
  6
CONTINUOUS
 10
3.0017
 20
1.9542
  0
VERTEX
  8
LAYER10
 62
     1
  6
CONTINUOUS
 10
3.0019
 20
1.9550
  0
VERTEX
  8
LAYER10
 62
     1
  6
CONTINUOUS
 10
3.0023
 20
1.9560
  0
VERTEX
  8
LAYER10
 62
     1
  6
CONTINUOUS
 10
3.0027
 20
1.9571
  0
VERTEX
  8
LAYER10
 62
     1
  6
CONTINUOUS
 10
3.0033
 20
1.9581
  0
VERTEX
  8
LAYER10
 62
     1
  6
CONTINUOUS
 10
3.0040
 20
1.9590
  0
VERTEX
  8
LAYER10
 62
     1
  6
CONTINUOUS
 10
3.0047
 20
1.9599
  0
VERTEX
  8
LAYER10
 62
     1
  6
CONTINUOUS
 10
3.0056
 20
1.9608
  0
VERTEX
  8
LAYER10
 62
     1
  6
CONTINUOUS
 10
3.0065
 20
1.9616
  0
VERTEX
  8
LAYER10
 62
     1
  6
CONTINUOUS
 10
3.0075
 20
1.9624
  0
VERTEX
  8
LAYER10
 62
     1
  6
CONTINUOUS
 10
3.0085
 20
1.9632
  0
VERTEX
  8
LAYER10
 62
     1
  6
CONTINUOUS
 10
3.0097
 20
1.9639
  0
VERTEX
  8
LAYER10
 62
     1
  6
CONTINUOUS
 10
3.0108
 20
1.9645
  0
VERTEX
  8
LAYER10
 62
     1
  6
CONTINUOUS
 10
3.0120
 20
1.9651
  0
VERTEX
  8
LAYER10
 62
     1
  6
CONTINUOUS
 10
3.0130
 20
1.9655
  0
VERTEX
  8
LAYER10
 62
     1
  6
CONTINUOUS
 10
3.0140
 20
1.9659
  0
VERTEX
  8
LAYER10
 62
     1
  6
CONTINUOUS
 10
3.0150
 20
1.9663
  0
VERTEX
  8
LAYER10
 62
     1
  6
CONTINUOUS
 10
3.0159
 20
1.9667
  0
VERTEX
  8
LAYER10
 62
     1
  6
CONTINUOUS
 10
3.0169
 20
1.9671
  0
VERTEX
  8
LAYER10
 62
     1
  6
CONTINUOUS
 10
3.0178
 20
1.9674
  0
VERTEX
  8
LAYER10
 62
     1
  6
CONTINUOUS
 10
3.0187
 20
1.9678
  0
VERTEX
  8
LAYER10
 62
     1
  6
CONTINUOUS
 10
3.0195
 20
1.9682
  0
VERTEX
  8
LAYER10
 62
     1
  6
CONTINUOUS
 10
3.0203
 20
1.9686
  0
VERTEX
  8
LAYER10
 62
     1
  6
CONTINUOUS
 10
3.0210
 20
1.9691
  0
VERTEX
  8
LAYER10
 62
     1
  6
CONTINUOUS
 10
3.0216
 20
1.9696
  0
VERTEX
  8
LAYER10
 62
     1
  6
CONTINUOUS
 10
3.0221
 20
1.9702
  0
VERTEX
  8
LAYER10
 62
     1
  6
CONTINUOUS
 10
3.0228
 20
1.9713
  0
VERTEX
  8
LAYER10
 62
     1
  6
CONTINUOUS
 10
3.0232
 20
1.9726
  0
VERTEX
  8
LAYER10
 62
     1
  6
CONTINUOUS
 10
3.0233
 20
1.9741
  0
VERTEX
  8
LAYER10
 62
     1
  6
CONTINUOUS
 10
3.0231
 20
1.9756
  0
VERTEX
  8
LAYER10
 62
     1
  6
CONTINUOUS
 10
3.0227
 20
1.9773
  0
VERTEX
  8
LAYER10
 62
     1
  6
CONTINUOUS
 10
3.0222
 20
1.9791
  0
VERTEX
  8
LAYER10
 62
     1
  6
CONTINUOUS
 10
3.0215
 20
1.9809
  0
VERTEX
  8
LAYER10
 62
     1
  6
CONTINUOUS
 10
3.0207
 20
1.9828
  0
VERTEX
  8
LAYER10
 62
     1
  6
CONTINUOUS
 10
3.0198
 20
1.9847
  0
VERTEX
  8
LAYER10
 62
     1
  6
CONTINUOUS
 10
3.0189
 20
1.9866
  0
VERTEX
  8
LAYER10
 62
     1
  6
CONTINUOUS
 10
3.0180
 20
1.9885
  0
VERTEX
  8
LAYER10
 62
     1
  6
CONTINUOUS
 10
3.0171
 20
1.9904
  0
VERTEX
  8
LAYER10
 62
     1
  6
CONTINUOUS
 10
3.0163
 20
1.9922
  0
VERTEX
  8
LAYER10
 62
     1
  6
CONTINUOUS
 10
3.0156
 20
1.9940
  0
VERTEX
  8
LAYER10
 62
     1
  6
CONTINUOUS
 10
3.0149
 20
1.9957
  0
VERTEX
  8
LAYER10
 62
     1
  6
CONTINUOUS
 10
3.0143
 20
1.9975
  0
VERTEX
  8
LAYER10
 62
     1
  6
CONTINUOUS
 10
3.0138
 20
1.9991
  0
VERTEX
  8
LAYER10
 62
     1
  6
CONTINUOUS
 10
3.0133
 20
2.0008
  0
VERTEX
  8
LAYER10
 62
     1
  6
CONTINUOUS
 10
3.0130
 20
2.0024
  0
VERTEX
  8
LAYER10
 62
     1
  6
CONTINUOUS
 10
3.0126
 20
2.0041
  0
VERTEX
  8
LAYER10
 62
     1
  6
CONTINUOUS
 10
3.0124
 20
2.0057
  0
VERTEX
  8
LAYER10
 62
     1
  6
CONTINUOUS
 10
3.0122
 20
2.0073
  0
VERTEX
  8
LAYER10
 62
     1
  6
CONTINUOUS
 10
3.0121
 20
2.0090
  0
VERTEX
  8
LAYER10
 62
     1
  6
CONTINUOUS
 10
3.0120
 20
2.0106
  0
VERTEX
  8
LAYER10
 62
     1
  6
CONTINUOUS
 10
3.0121
 20
2.0132
  0
VERTEX
  8
LAYER10
 62
     1
  6
CONTINUOUS
 10
3.0123
 20
2.0159
  0
VERTEX
  8
LAYER10
 62
     1
  6
CONTINUOUS
 10
3.0126
 20
2.0185
  0
VERTEX
  8
LAYER10
 62
     1
  6
CONTINUOUS
 10
3.0131
 20
2.0211
  0
VERTEX
  8
LAYER10
 62
     1
  6
CONTINUOUS
 10
3.0137
 20
2.0238
  0
VERTEX
  8
LAYER10
 62
     1
  6
CONTINUOUS
 10
3.0145
 20
2.0264
  0
VERTEX
  8
LAYER10
 62
     1
  6
CONTINUOUS
 10
3.0154
 20
2.0290
  0
VERTEX
  8
LAYER10
 62
     1
  6
CONTINUOUS
 10
3.0165
 20
2.0316
  0
VERTEX
  8
LAYER10
 62
     1
  6
CONTINUOUS
 10
3.0177
 20
2.0341
  0
VERTEX
  8
LAYER10
 62
     1
  6
CONTINUOUS
 10
3.0191
 20
2.0365
  0
VERTEX
  8
LAYER10
 62
     1
  6
CONTINUOUS
 10
3.0206
 20
2.0388
  0
VERTEX
  8
LAYER10
 62
     1
  6
CONTINUOUS
 10
3.0222
 20
2.0410
  0
VERTEX
  8
LAYER10
 62
     1
  6
CONTINUOUS
 10
3.0236
 20
2.0427
  0
VERTEX
  8
LAYER10
 62
     1
  6
CONTINUOUS
 10
3.0250
 20
2.0443
  0
VERTEX
  8
LAYER10
 62
     1
  6
CONTINUOUS
 10
3.0266
 20
2.0458
  0
VERTEX
  8
LAYER10
 62
     1
  6
CONTINUOUS
 10
3.0282
 20
2.0473
  0
VERTEX
  8
LAYER10
 62
     1
  6
CONTINUOUS
 10
3.0298
 20
2.0486
  0
VERTEX
  8
LAYER10
 62
     1
  6
CONTINUOUS
 10
3.0315
 20
2.0499
  0
VERTEX
  8
LAYER10
 62
     1
  6
CONTINUOUS
 10
3.0333
 20
2.0512
  0
VERTEX
  8
LAYER10
 62
     1
  6
CONTINUOUS
 10
3.0351
 20
2.0523
  0
VERTEX
  8
LAYER10
 62
     1
  6
CONTINUOUS
 10
3.0369
 20
2.0534
  0
VERTEX
  8
LAYER10
 62
     1
  6
CONTINUOUS
 10
3.0387
 20
2.0544
  0
VERTEX
  8
LAYER10
 62
     1
  6
CONTINUOUS
 10
3.0406
 20
2.0553
  0
VERTEX
  8
LAYER10
 62
     1
  6
CONTINUOUS
 10
3.0424
 20
2.0562
  0
VERTEX
  8
LAYER10
 62
     1
  6
CONTINUOUS
 10
3.0436
 20
2.0567
  0
VERTEX
  8
LAYER10
 62
     1
  6
CONTINUOUS
 10
3.0448
 20
2.0571
  0
VERTEX
  8
LAYER10
 62
     1
  6
CONTINUOUS
 10
3.0460
 20
2.0576
  0
VERTEX
  8
LAYER10
 62
     1
  6
CONTINUOUS
 10
3.0472
 20
2.0580
  0
VERTEX
  8
LAYER10
 62
     1
  6
CONTINUOUS
 10
3.0484
 20
2.0584
  0
VERTEX
  8
LAYER10
 62
     1
  6
CONTINUOUS
 10
3.0496
 20
2.0588
  0
VERTEX
  8
LAYER10
 62
     1
  6
CONTINUOUS
 10
3.0509
 20
2.0592
  0
VERTEX
  8
LAYER10
 62
     1
  6
CONTINUOUS
 10
3.0521
 20
2.0596
  0
VERTEX
  8
LAYER10
 62
     1
  6
CONTINUOUS
 10
3.0535
 20
2.0600
  0
VERTEX
  8
LAYER10
 62
     1
  6
CONTINUOUS
 10
3.0548
 20
2.0604
  0
VERTEX
  8
LAYER10
 62
     1
  6
CONTINUOUS
 10
3.0562
 20
2.0608
  0
VERTEX
  8
LAYER10
 62
     1
  6
CONTINUOUS
 10
3.0576
 20
2.0612
  0
VERTEX
  8
LAYER10
 62
     1
  6
CONTINUOUS
 10
3.0587
 20
2.0615
  0
VERTEX
  8
LAYER10
 62
     1
  6
CONTINUOUS
 10
3.0597
 20
2.0618
  0
VERTEX
  8
LAYER10
 62
     1
  6
CONTINUOUS
 10
3.0608
 20
2.0622
  0
VERTEX
  8
LAYER10
 62
     1
  6
CONTINUOUS
 10
3.0618
 20
2.0625
  0
VERTEX
  8
LAYER10
 62
     1
  6
CONTINUOUS
 10
3.0628
 20
2.0629
  0
VERTEX
  8
LAYER10
 62
     1
  6
CONTINUOUS
 10
3.0637
 20
2.0633
  0
VERTEX
  8
LAYER10
 62
     1
  6
CONTINUOUS
 10
3.0646
 20
2.0637
  0
VERTEX
  8
LAYER10
 62
     1
  6
CONTINUOUS
 10
3.0654
 20
2.0641
  0
VERTEX
  8
LAYER10
 62
     1
  6
CONTINUOUS
 10
3.0662
 20
2.0646
  0
VERTEX
  8
LAYER10
 62
     1
  6
CONTINUOUS
 10
3.0668
 20
2.0651
  0
VERTEX
  8
LAYER10
 62
     1
  6
CONTINUOUS
 10
3.0673
 20
2.0657
  0
VERTEX
  8
LAYER10
 62
     1
  6
CONTINUOUS
 10
3.0677
 20
2.0663
  0
VERTEX
  8
LAYER10
 62
     1
  6
CONTINUOUS
 10
3.0681
 20
2.0672
  0
VERTEX
  8
LAYER10
 62
     1
  6
CONTINUOUS
 10
3.0682
 20
2.0682
  0
VERTEX
  8
LAYER10
 62
     1
  6
CONTINUOUS
 10
3.0680
 20
2.0693
  0
VERTEX
  8
LAYER10
 62
     1
  6
CONTINUOUS
 10
3.0677
 20
2.0704
  0
VERTEX
  8
LAYER10
 62
     1
  6
CONTINUOUS
 10
3.0673
 20
2.0716
  0
VERTEX
  8
LAYER10
 62
     1
  6
CONTINUOUS
 10
3.0667
 20
2.0729
  0
VERTEX
  8
LAYER10
 62
     1
  6
CONTINUOUS
 10
3.0660
 20
2.0742
  0
VERTEX
  8
LAYER10
 62
     1
  6
CONTINUOUS
 10
3.0653
 20
2.0756
  0
VERTEX
  8
LAYER10
 62
     1
  6
CONTINUOUS
 10
3.0646
 20
2.0770
  0
VERTEX
  8
LAYER10
 62
     1
  6
CONTINUOUS
 10
3.0639
 20
2.0785
  0
VERTEX
  8
LAYER10
 62
     1
  6
CONTINUOUS
 10
3.0633
 20
2.0800
  0
VERTEX
  8
LAYER10
 62
     1
  6
CONTINUOUS
 10
3.0627
 20
2.0815
  0
VERTEX
  8
LAYER10
 62
     1
  6
CONTINUOUS
 10
3.0621
 20
2.0835
  0
VERTEX
  8
LAYER10
 62
     1
  6
CONTINUOUS
 10
3.0618
 20
2.0855
  0
VERTEX
  8
LAYER10
 62
     1
  6
CONTINUOUS
 10
3.0616
 20
2.0875
  0
VERTEX
  8
LAYER10
 62
     1
  6
CONTINUOUS
 10
3.0616
 20
2.0894
  0
VERTEX
  8
LAYER10
 62
     1
  6
CONTINUOUS
 10
3.0618
 20
2.0913
  0
VERTEX
  8
LAYER10
 62
     1
  6
CONTINUOUS
 10
3.0621
 20
2.0932
  0
VERTEX
  8
LAYER10
 62
     1
  6
CONTINUOUS
 10
3.0627
 20
2.0949
  0
VERTEX
  8
LAYER10
 62
     1
  6
CONTINUOUS
 10
3.0634
 20
2.0966
  0
VERTEX
  8
LAYER10
 62
     1
  6
CONTINUOUS
 10
3.0642
 20
2.0981
  0
VERTEX
  8
LAYER10
 62
     1
  6
CONTINUOUS
 10
3.0653
 20
2.0995
  0
VERTEX
  8
LAYER10
 62
     1
  6
CONTINUOUS
 10
3.0664
 20
2.1007
  0
VERTEX
  8
LAYER10
 62
     1
  6
CONTINUOUS
 10
3.0678
 20
2.1017
  0
VERTEX
  8
LAYER10
 62
     1
  6
CONTINUOUS
 10
3.0683
 20
2.1020
  0
VERTEX
  8
LAYER10
 62
     1
  6
CONTINUOUS
 10
3.0689
 20
2.1023
  0
VERTEX
  8
LAYER10
 62
     1
  6
CONTINUOUS
 10
3.0695
 20
2.1026
  0
VERTEX
  8
LAYER10
 62
     1
  6
CONTINUOUS
 10
3.0701
 20
2.1029
  0
VERTEX
  8
LAYER10
 62
     1
  6
CONTINUOUS
 10
3.0707
 20
2.1031
  0
VERTEX
  8
LAYER10
 62
     1
  6
CONTINUOUS
 10
3.0713
 20
2.1033
  0
VERTEX
  8
LAYER10
 62
     1
  6
CONTINUOUS
 10
3.0719
 20
2.1035
  0
VERTEX
  8
LAYER10
 62
     1
  6
CONTINUOUS
 10
3.0726
 20
2.1037
  0
VERTEX
  8
LAYER10
 62
     1
  6
CONTINUOUS
 10
3.0732
 20
2.1039
  0
VERTEX
  8
LAYER10
 62
     1
  6
CONTINUOUS
 10
3.0739
 20
2.1041
  0
VERTEX
  8
LAYER10
 62
     1
  6
CONTINUOUS
 10
3.0746
 20
2.1043
  0
VERTEX
  8
LAYER10
 62
     1
  6
CONTINUOUS
 10
3.0752
 20
2.1044
  0
SEQEND
  8
LAYER10
  0
POLYLINE
  8
LAYER12
 62
     5
 66
     1
  6
CONTINUOUS
  0
VERTEX
  8
LAYER12
 62
     5
  6
CONTINUOUS
 10
2.0522
 20
2.5508
  0
VERTEX
  8
LAYER12
 62
     5
  6
CONTINUOUS
 10
2.0522
 20
2.5508
  0
SEQEND
  8
LAYER12
  0
POLYLINE
  8
LAYER12
 62
     5
 66
     1
  6
CONTINUOUS
  0
VERTEX
  8
LAYER12
 62
     5
  6
CONTINUOUS
 10
2.0522
 20
2.5508
  0
VERTEX
  8
LAYER12
 62
     5
  6
CONTINUOUS
 10
2.0522
 20
2.5508
  0
SEQEND
  8
LAYER12
  0
POLYLINE
  8
LAYER12
 62
     5
 66
     1
  6
CONTINUOUS
  0
VERTEX
  8
LAYER12
 62
     5
  6
CONTINUOUS
 10
2.0522
 20
2.5508
  0
VERTEX
  8
LAYER12
 62
     5
  6
CONTINUOUS
 10
2.0522
 20
1.5667
  0
SEQEND
  8
LAYER12
  0
POLYLINE
  8
LAYER12
 62
     5
 66
     1
  6
CONTINUOUS
  0
VERTEX
  8
LAYER12
 62
     5
  6
CONTINUOUS
 10
3.0752
 20
1.5657
  0
VERTEX
  8
LAYER12
 62
     5
  6
CONTINUOUS
 10
2.0668
 20
1.5657
  0
SEQEND
  8
LAYER12
  0
POLYLINE
  8
LAYER12
 62
     5
 66
     1
  6
CONTINUOUS
  0
VERTEX
  8
LAYER12
 62
     5
  6
CONTINUOUS
 10
2.0668
 20
1.5657
  0
VERTEX
  8
LAYER12
 62
     5
  6
CONTINUOUS
 10
2.0492
 20
1.5657
  0
SEQEND
  8
LAYER12
  0
POLYLINE
  8
LAYER12
 62
     5
 66
     1
  6
CONTINUOUS
  0
VERTEX
  8
LAYER12
 62
     5
  6
CONTINUOUS
 10
2.0492
 20
2.5494
  0
VERTEX
  8
LAYER12
 62
     5
  6
CONTINUOUS
 10
2.0492
 20
2.5494
  0
SEQEND
  8
LAYER12
  0
POLYLINE
  8
LAYER12
 62
     5
 66
     1
  6
CONTINUOUS
  0
VERTEX
  8
LAYER12
 62
     5
  6
CONTINUOUS
 10
2.0492
 20
2.5494
  0
VERTEX
  8
LAYER12
 62
     5
  6
CONTINUOUS
 10
2.0668
 20
2.5494
  0
SEQEND
  8
LAYER12
  0
POLYLINE
  8
LAYER12
 62
     5
 66
     1
  6
CONTINUOUS
  0
VERTEX
  8
LAYER12
 62
     5
  6
CONTINUOUS
 10
2.0668
 20
2.5494
  0
VERTEX
  8
LAYER12
 62
     5
  6
CONTINUOUS
 10
3.0752
 20
2.5494
  0
SEQEND
  8
LAYER12
  0
POLYLINE
  8
LAYER12
 62
     5
 66
     1
  6
CONTINUOUS
  0
VERTEX
  8
LAYER12
 62
     5
  6
CONTINUOUS
 10
3.0752
 20
2.5494
  0
VERTEX
  8
LAYER12
 62
     5
  6
CONTINUOUS
 10
3.0766
 20
2.5494
  0
SEQEND
  8
LAYER12
  0
POLYLINE
  8
LAYER12
 62
     5
 66
     1
  6
CONTINUOUS
  0
VERTEX
  8
LAYER12
 62
     5
  6
CONTINUOUS
 10
3.0752
 20
1.5667
  0
VERTEX
  8
LAYER12
 62
     5
  6
CONTINUOUS
 10
3.0752
 20
2.5508
  0
SEQEND
  8
LAYER12
  0
ENDSEC
  0
EOF
