  0
SECTION
  2
HEADER
  9
$ACADVER
  1
AC1004
  9
$EXTMIN
 10
11.0213
 20
1.5644
  9
$EXTMAX
 10
12.0515
 20
2.5516
  9
$LIMMIN
 10
11.0213
 20
1.5644
  9
$LIMMAX
 10
12.0515
 20
2.5516
  9
$INSBASE
 10
0.0
 20
0.0
  9
$VIEWCTR
 10
7.21903
 20
4.5
  9
$VIEWSIZE
 40
9.0
  9
$SNAPMODE
 70
     0
  9
$SNAPUNIT
 10
1.0
 20
1.0
  9
$SNAPBASE
 10
0.0
 20
0.0
  9
$SNAPANG
 50
0.0
  9
$SNAPSTYLE
 70
     0
  9
$SNAPISOPAIR
 70
     0
  9
$GRIDMODE
 70
     0
  9
$GRIDUNIT
 10
0.0
 20
0.0
  9
$ORTHOMODE
 70
     0
  9
$REGENMODE
 70
     1
  9
$FILLMODE
 70
     1
  9
$QTEXTMODE
 70
     0
  9
$DRAGMODE
 70
     2
  9
$LTSCALE
 40
1.0
  9
$OSMODE
 70
     0
  9
$ATTMODE
 70
     1
  9
$TEXTSIZE
 40
0.2
  9
$TRACEWID
 40
0.05
  9
$TEXTSTYLE
  7
STANDARD
  9
$CLAYER
  8
0
  9
$CELTYPE
  6
BYLAYER
  9
$CECOLOR
 62
   256
  9
$DIMSCALE
 40
1.0
  9
$DIMASZ
 40
0.18
  9
$DIMEXO
 40
0.0625
  9
$DIMDLI
 40
0.38
  9
$DIMRND
 40
0.0
  9
$DIMDLE
 40
0.0
  9
$DIMEXE
 40
0.18
  9
$DIMTP
 40
0.0
  9
$DIMTM
 40
0.0
  9
$DIMTXT
 40
0.18
  9
$DIMCEN
 40
0.09
  9
$DIMTSZ
 40
0.0
  9
$DIMTOL
 70
     0
  9
$DIMLIM
 70
     0
  9
$DIMTIH
 70
     1
  9
$DIMTOH
 70
     1
  9
$DIMSE1
 70
     0
  9
$DIMSE2
 70
     0
  9
$DIMTAD
 70
     0
  9
$DIMZIN
 70
     0
  9
$DIMBLK
  1

  9
$DIMASO
 70
     1
  9
$DIMSHO
 70
     0
  9
$DIMPOST
  1

  9
$DIMAPOST
  1

  9
$DIMALT
 70
     0
  9
$DIMALTD
 70
     2
  9
$DIMALTF
 40
25.4
  9
$DIMLFAC
 40
1.0
  9
$LUNITS
 70
     2
  9
$LUPREC
 70
     4
  9
$AXISMODE
 70
     0
  9
$AXISUNIT
 10
0.0
 20
0.0
  9
$SKETCHINC
 40
0.1
  9
$FILLETRAD
 40
0.0
  9
$AUNITS
 70
     0
  9
$AUPREC
 70
     0
  9
$MENU
  1
acad
  9
$ELEVATION
 40
0.0
  9
$THICKNESS
 40
0.0
  9
$VIEWDIR
 10
0.0
 20
0.0
 30
1.0
  9
$LIMCHECK
 70
     0
  9
$BLIPMODE
 70
     1
  9
$CHAMFERA
 40
0.0
  9
$CHAMFERB
 40
0.0
  9
$FASTZOOM
 70
     1
  9
$SKPOLY
 70
     0
  9
$TDCREATE
 40
2447222.5666886573
  9
$TDUPDATE
 40
2447222.5666886573
  9
$TDINDWG
 40
0.0000000000
  9
$TDUSRTIMER
 40
0.0000000000
  9
$USRTIMER
 70
     1
  9
$ANGBASE
 50
0.0
  9
$ANGDIR
 70
     0
  9
$PDMODE
 70
     0
  9
$PDSIZE
 40
0.0
  9
$PLINEWID
 40
0.0
  9
$COORDS
 70
     0
  9
$SPLFRAME
 70
     0
  9
$SPLINESEGS
 70
     8
  9
$ATTDIA
 70
     0
  9
$ATTREQ
 70
     1
  9
$USERI1
 70
     0
  9
$USERI2
 70
     0
  9
$USERI3
 70
     0
  9
$USERI4
 70
     0
  9
$USERI5
 70
     0
  9
$USERR1
 40
0.0
  9
$USERR2
 40
0.0
  9
$USERR3
 40
0.0
  9
$USERR4
 40
0.0
  9
$USERR5
 40
0.0
  0
ENDSEC
  0
SECTION
  2
TABLES
  0
TABLE
  2
LTYPE
 70
     13
  0
LTYPE
  2
CONTINUOUS
 70
    64
  3
Solid line
 72
    65
 73
     0
 40
0.0
  0
LTYPE
  2
DASHED
 70
    64
  3
__ __ __ __ __ __ __ __ __ __ __ __ __ __ __
 72
    65
 73
     2
 40
0.75
 49
0.5
 49
-0.25
  0
LTYPE
  2
HIDDEN
 70
    64
  3
_ _ _ _ _ _ _ _ _ _ _ _ _ _ _ _ _ _ _ _ _ _ _
 72
    65
 73
     2
 40
0.375
 49
0.25
 49
-0.125
  0
LTYPE
  2
CENTER
 70
    64
  3
____ _ ____ _ ____ _ ____ _ ____ _ ____ _ ____
 72
    65
 73
     4
 40
2.0
 49
1.25
 49
-0.25
 49
0.25
 49
-0.25
  0
LTYPE
  2
PHANTOM
 70
    64
  3
_____ _ _ _____ _ _ _____ _ _ _____ _ _ ____
 72
    65
 73
     6
 40
2.5
 49
1.25
 49
-0.25
 49
0.25
 49
-0.25
 49
0.25
 49
-0.25
  0
LTYPE
  2
DOT
 70
    64
  3
...............................................
 72
    65
 73
     2
 40
0.25
 49
0.0
 49
-0.25
  0
LTYPE
  2
DASHDOT
 70
    64
  3
__ . __ . __ . __ . __ . __ . __ . __ . __ . __
 72
    65
 73
     4
 40
1.0
 49
0.5
 49
-0.25
 49
0.0
 49
-0.25
  0
LTYPE
  2
BORDER
 70
    64
  3
__ __ . __ __ . __ __ . __ __ . __ __ . __ __
 72
    65
 73
     6
 40
1.75
 49
0.5
 49
-0.25
 49
0.5
 49
-0.25
 49
0.0
 49
-0.25
  0
LTYPE
  2
DIVIDE
 70
    64
  3
__ . . __ . . __ . . __ . . __ . . __ . . __
 72
    65
 73
     6
 40
1.25
 49
0.5
 49
-0.25
 49
0.0
 49
-0.25
 49
0.0
 49
-0.25
  0
LTYPE
  2
DCTYPE1
 70
    64
  3
__ . . __ . . __ . . __ . . __ . . __ . . __
 72
    65
 73
     8
 40
2.5
 49
0.5
 49
-0.25
 49
0.125
 49
-0.25
 49
0.25
 49
-0.25
 49
0.125
 49
-0.25
  0
LTYPE
  2
DCTYPE2
 70
    64
  3
__ . . __ . . __ . . __ . . __ . . __ . . __
 72
    65
 73
     6
 40
2.05
 49
1.0
 49
-0.3
 49
0.15
 49
-0.15
 49
0.15
 49
-0.3
  0
LTYPE
  2
DCTYPE3
 70
    64
  3
__ . . __ . . __ . . __ . . __ . . __ . . __
 72
    65
 73
     6
 40
2.5
 49
0.8
 49
-0.2
 49
0.8
 49
-0.2
 49
0.3
 49
-0.2
  0
LTYPE
  2
DCTYPE4
 70
    64
  3
__ . . __ . . __ . . __ . . __ . . __ . . __
 72
    65
 73
     10
 40
3.97
 49
1.75
 49
-0.3
 49
0.3
 49
-0.3
 49
0.06
 49
-0.3
 49
0.06
 49
-0.3
 49
0.3
 49
-0.3
  0
ENDTAB
  0
TABLE
  2
LAYER
 70
    153
  0
LAYER
  2
LAYER1
 70
 64
 62
     7
  6
CONTINUOUS
  0
LAYER
  2
LAYER10
 70
 64
 62
     1
  6
CONTINUOUS
  0
LAYER
  2
LAYER12
 70
 64
 62
     5
  6
CONTINUOUS
  0
ENDTAB
  0
ENDSEC
  0
SECTION
  2
BLOCKS
  0
ENDSEC
  0
SECTION
  2
ENTITIES
  0
CIRCLE
  8
LAYER1
 62
     7
  6
CONTINUOUS
 10
11.9137
 20
1.5927
 40
0.0211
  0
CIRCLE
  8
LAYER1
 62
     7
  6
CONTINUOUS
 10
11.1028
 20
2.1951
 40
0.0155
  0
CIRCLE
  8
LAYER1
 62
     7
  6
CONTINUOUS
 10
11.1693
 20
2.1568
 40
0.0232
  0
CIRCLE
  8
LAYER1
 62
     7
  6
CONTINUOUS
 10
11.2564
 20
1.9524
 40
0.0181
  0
CIRCLE
  8
LAYER1
 62
     7
  6
CONTINUOUS
 10
11.4353
 20
2.0369
 40
0.0105
  0
CIRCLE
  8
LAYER1
 62
     7
  6
CONTINUOUS
 10
11.4328
 20
1.9935
 40
0.0186
  0
CIRCLE
  8
LAYER1
 62
     7
  6
CONTINUOUS
 10
11.6606
 20
1.6946
 40
0.0179
  0
CIRCLE
  8
LAYER1
 62
     7
  6
CONTINUOUS
 10
11.6554
 20
1.7943
 40
0.0231
  0
CIRCLE
  8
LAYER1
 62
     7
  6
CONTINUOUS
 10
11.8699
 20
1.9581
 40
0.0384
  0
CIRCLE
  8
LAYER1
 62
     7
  6
CONTINUOUS
 10
11.9411
 20
2.2854
 40
0.0108
  0
CIRCLE
  8
LAYER1
 62
     7
  6
CONTINUOUS
 10
11.8286
 20
2.3415
 40
0.0220
  0
CIRCLE
  8
LAYER1
 62
     7
  6
CONTINUOUS
 10
11.6828
 20
2.4257
 40
0.0217
  0
CIRCLE
  8
LAYER1
 62
     7
  6
CONTINUOUS
 10
11.5959
 20
2.4640
 40
0.0186
  0
CIRCLE
  8
LAYER1
 62
     7
  6
CONTINUOUS
 10
11.6114
 20
2.3132
 40
0.0323
  0
ARC
  8
LAYER1
 62
     7
  6
CONTINUOUS
 10
11.0267
 20
1.6148
 40
0.0130
 50
-101.2372
 51
-98.4751
  0
ARC
  8
LAYER1
 62
     7
  6
CONTINUOUS
 10
11.0267
 20
1.6148
 40
0.0130
 50
-98.4750
 51
98.4751
  0
ARC
  8
LAYER1
 62
     7
  6
CONTINUOUS
 10
11.6188
 20
2.5228
 40
0.0332
 50
-112.5591
 51
47.7640
  0
ARC
  8
LAYER1
 62
     7
  6
CONTINUOUS
 10
11.6188
 20
2.5228
 40
0.0332
 50
132.2369
 51
-112.5588
  0
ARC
  8
LAYER1
 62
     7
  6
CONTINUOUS
 10
11.5463
 20
2.5631
 40
0.0216
 50
-133.3169
 51
-46.6876
  0
POLYLINE
  8
LAYER1
 62
     7
 66
     1
  6
CONTINUOUS
  0
VERTEX
  8
LAYER1
 62
     7
  6
CONTINUOUS
 10
11.2798
 20
1.6176
  0
VERTEX
  8
LAYER1
 62
     7
  6
CONTINUOUS
 10
11.2819
 20
1.6181
  0
VERTEX
  8
LAYER1
 62
     7
  6
CONTINUOUS
 10
11.2841
 20
1.6187
  0
VERTEX
  8
LAYER1
 62
     7
  6
CONTINUOUS
 10
11.2862
 20
1.6192
  0
VERTEX
  8
LAYER1
 62
     7
  6
CONTINUOUS
 10
11.2883
 20
1.6198
  0
VERTEX
  8
LAYER1
 62
     7
  6
CONTINUOUS
 10
11.2904
 20
1.6203
  0
VERTEX
  8
LAYER1
 62
     7
  6
CONTINUOUS
 10
11.2926
 20
1.6208
  0
VERTEX
  8
LAYER1
 62
     7
  6
CONTINUOUS
 10
11.2947
 20
1.6212
  0
VERTEX
  8
LAYER1
 62
     7
  6
CONTINUOUS
 10
11.2968
 20
1.6216
  0
VERTEX
  8
LAYER1
 62
     7
  6
CONTINUOUS
 10
11.2990
 20
1.6220
  0
VERTEX
  8
LAYER1
 62
     7
  6
CONTINUOUS
 10
11.3011
 20
1.6223
  0
VERTEX
  8
LAYER1
 62
     7
  6
CONTINUOUS
 10
11.3032
 20
1.6225
  0
VERTEX
  8
LAYER1
 62
     7
  6
CONTINUOUS
 10
11.3053
 20
1.6227
  0
VERTEX
  8
LAYER1
 62
     7
  6
CONTINUOUS
 10
11.3079
 20
1.6228
  0
VERTEX
  8
LAYER1
 62
     7
  6
CONTINUOUS
 10
11.3104
 20
1.6229
  0
VERTEX
  8
LAYER1
 62
     7
  6
CONTINUOUS
 10
11.3129
 20
1.6229
  0
VERTEX
  8
LAYER1
 62
     7
  6
CONTINUOUS
 10
11.3154
 20
1.6228
  0
VERTEX
  8
LAYER1
 62
     7
  6
CONTINUOUS
 10
11.3179
 20
1.6227
  0
VERTEX
  8
LAYER1
 62
     7
  6
CONTINUOUS
 10
11.3205
 20
1.6226
  0
VERTEX
  8
LAYER1
 62
     7
  6
CONTINUOUS
 10
11.3230
 20
1.6225
  0
VERTEX
  8
LAYER1
 62
     7
  6
CONTINUOUS
 10
11.3256
 20
1.6225
  0
VERTEX
  8
LAYER1
 62
     7
  6
CONTINUOUS
 10
11.3281
 20
1.6224
  0
VERTEX
  8
LAYER1
 62
     7
  6
CONTINUOUS
 10
11.3308
 20
1.6225
  0
VERTEX
  8
LAYER1
 62
     7
  6
CONTINUOUS
 10
11.3334
 20
1.6226
  0
VERTEX
  8
LAYER1
 62
     7
  6
CONTINUOUS
 10
11.3360
 20
1.6227
  0
VERTEX
  8
LAYER1
 62
     7
  6
CONTINUOUS
 10
11.3382
 20
1.6230
  0
VERTEX
  8
LAYER1
 62
     7
  6
CONTINUOUS
 10
11.3405
 20
1.6233
  0
VERTEX
  8
LAYER1
 62
     7
  6
CONTINUOUS
 10
11.3427
 20
1.6236
  0
VERTEX
  8
LAYER1
 62
     7
  6
CONTINUOUS
 10
11.3449
 20
1.6238
  0
VERTEX
  8
LAYER1
 62
     7
  6
CONTINUOUS
 10
11.3472
 20
1.6241
  0
VERTEX
  8
LAYER1
 62
     7
  6
CONTINUOUS
 10
11.3494
 20
1.6243
  0
VERTEX
  8
LAYER1
 62
     7
  6
CONTINUOUS
 10
11.3515
 20
1.6244
  0
VERTEX
  8
LAYER1
 62
     7
  6
CONTINUOUS
 10
11.3536
 20
1.6244
  0
VERTEX
  8
LAYER1
 62
     7
  6
CONTINUOUS
 10
11.3557
 20
1.6243
  0
VERTEX
  8
LAYER1
 62
     7
  6
CONTINUOUS
 10
11.3577
 20
1.6240
  0
VERTEX
  8
LAYER1
 62
     7
  6
CONTINUOUS
 10
11.3597
 20
1.6235
  0
VERTEX
  8
LAYER1
 62
     7
  6
CONTINUOUS
 10
11.3616
 20
1.6228
  0
VERTEX
  8
LAYER1
 62
     7
  6
CONTINUOUS
 10
11.3635
 20
1.6217
  0
VERTEX
  8
LAYER1
 62
     7
  6
CONTINUOUS
 10
11.3653
 20
1.6204
  0
VERTEX
  8
LAYER1
 62
     7
  6
CONTINUOUS
 10
11.3670
 20
1.6189
  0
VERTEX
  8
LAYER1
 62
     7
  6
CONTINUOUS
 10
11.3685
 20
1.6171
  0
VERTEX
  8
LAYER1
 62
     7
  6
CONTINUOUS
 10
11.3699
 20
1.6151
  0
VERTEX
  8
LAYER1
 62
     7
  6
CONTINUOUS
 10
11.3710
 20
1.6129
  0
VERTEX
  8
LAYER1
 62
     7
  6
CONTINUOUS
 10
11.3719
 20
1.6106
  0
VERTEX
  8
LAYER1
 62
     7
  6
CONTINUOUS
 10
11.3725
 20
1.6081
  0
VERTEX
  8
LAYER1
 62
     7
  6
CONTINUOUS
 10
11.3728
 20
1.6055
  0
VERTEX
  8
LAYER1
 62
     7
  6
CONTINUOUS
 10
11.3728
 20
1.6028
  0
VERTEX
  8
LAYER1
 62
     7
  6
CONTINUOUS
 10
11.3725
 20
1.6001
  0
VERTEX
  8
LAYER1
 62
     7
  6
CONTINUOUS
 10
11.3718
 20
1.5972
  0
VERTEX
  8
LAYER1
 62
     7
  6
CONTINUOUS
 10
11.3714
 20
1.5960
  0
VERTEX
  8
LAYER1
 62
     7
  6
CONTINUOUS
 10
11.3710
 20
1.5948
  0
VERTEX
  8
LAYER1
 62
     7
  6
CONTINUOUS
 10
11.3705
 20
1.5937
  0
VERTEX
  8
LAYER1
 62
     7
  6
CONTINUOUS
 10
11.3700
 20
1.5926
  0
VERTEX
  8
LAYER1
 62
     7
  6
CONTINUOUS
 10
11.3695
 20
1.5915
  0
VERTEX
  8
LAYER1
 62
     7
  6
CONTINUOUS
 10
11.3690
 20
1.5905
  0
VERTEX
  8
LAYER1
 62
     7
  6
CONTINUOUS
 10
11.3685
 20
1.5896
  0
VERTEX
  8
LAYER1
 62
     7
  6
CONTINUOUS
 10
11.3680
 20
1.5888
  0
VERTEX
  8
LAYER1
 62
     7
  6
CONTINUOUS
 10
11.3676
 20
1.5882
  0
VERTEX
  8
LAYER1
 62
     7
  6
CONTINUOUS
 10
11.3672
 20
1.5876
  0
VERTEX
  8
LAYER1
 62
     7
  6
CONTINUOUS
 10
11.3669
 20
1.5872
  0
VERTEX
  8
LAYER1
 62
     7
  6
CONTINUOUS
 10
11.3667
 20
1.5870
  0
VERTEX
  8
LAYER1
 62
     7
  6
CONTINUOUS
 10
11.3667
 20
1.5870
  0
VERTEX
  8
LAYER1
 62
     7
  6
CONTINUOUS
 10
11.3666
 20
1.5869
  0
VERTEX
  8
LAYER1
 62
     7
  6
CONTINUOUS
 10
11.3666
 20
1.5869
  0
VERTEX
  8
LAYER1
 62
     7
  6
CONTINUOUS
 10
11.3666
 20
1.5869
  0
VERTEX
  8
LAYER1
 62
     7
  6
CONTINUOUS
 10
11.3666
 20
1.5870
  0
VERTEX
  8
LAYER1
 62
     7
  6
CONTINUOUS
 10
11.3666
 20
1.5870
  0
VERTEX
  8
LAYER1
 62
     7
  6
CONTINUOUS
 10
11.3666
 20
1.5870
  0
VERTEX
  8
LAYER1
 62
     7
  6
CONTINUOUS
 10
11.3666
 20
1.5870
  0
VERTEX
  8
LAYER1
 62
     7
  6
CONTINUOUS
 10
11.3666
 20
1.5871
  0
VERTEX
  8
LAYER1
 62
     7
  6
CONTINUOUS
 10
11.3667
 20
1.5871
  0
VERTEX
  8
LAYER1
 62
     7
  6
CONTINUOUS
 10
11.3667
 20
1.5870
  0
VERTEX
  8
LAYER1
 62
     7
  6
CONTINUOUS
 10
11.3667
 20
1.5870
  0
VERTEX
  8
LAYER1
 62
     7
  6
CONTINUOUS
 10
11.3669
 20
1.5866
  0
VERTEX
  8
LAYER1
 62
     7
  6
CONTINUOUS
 10
11.3670
 20
1.5860
  0
VERTEX
  8
LAYER1
 62
     7
  6
CONTINUOUS
 10
11.3672
 20
1.5850
  0
VERTEX
  8
LAYER1
 62
     7
  6
CONTINUOUS
 10
11.3673
 20
1.5839
  0
VERTEX
  8
LAYER1
 62
     7
  6
CONTINUOUS
 10
11.3675
 20
1.5826
  0
VERTEX
  8
LAYER1
 62
     7
  6
CONTINUOUS
 10
11.3676
 20
1.5811
  0
VERTEX
  8
LAYER1
 62
     7
  6
CONTINUOUS
 10
11.3676
 20
1.5795
  0
VERTEX
  8
LAYER1
 62
     7
  6
CONTINUOUS
 10
11.3676
 20
1.5779
  0
VERTEX
  8
LAYER1
 62
     7
  6
CONTINUOUS
 10
11.3675
 20
1.5763
  0
VERTEX
  8
LAYER1
 62
     7
  6
CONTINUOUS
 10
11.3674
 20
1.5747
  0
VERTEX
  8
LAYER1
 62
     7
  6
CONTINUOUS
 10
11.3671
 20
1.5731
  0
VERTEX
  8
LAYER1
 62
     7
  6
CONTINUOUS
 10
11.3667
 20
1.5717
  0
VERTEX
  8
LAYER1
 62
     7
  6
CONTINUOUS
 10
11.3665
 20
1.5709
  0
VERTEX
  8
LAYER1
 62
     7
  6
CONTINUOUS
 10
11.3662
 20
1.5702
  0
VERTEX
  8
LAYER1
 62
     7
  6
CONTINUOUS
 10
11.3659
 20
1.5695
  0
VERTEX
  8
LAYER1
 62
     7
  6
CONTINUOUS
 10
11.3656
 20
1.5689
  0
VERTEX
  8
LAYER1
 62
     7
  6
CONTINUOUS
 10
11.3652
 20
1.5682
  0
VERTEX
  8
LAYER1
 62
     7
  6
CONTINUOUS
 10
11.3648
 20
1.5676
  0
VERTEX
  8
LAYER1
 62
     7
  6
CONTINUOUS
 10
11.3644
 20
1.5671
  0
VERTEX
  8
LAYER1
 62
     7
  6
CONTINUOUS
 10
11.3640
 20
1.5665
  0
VERTEX
  8
LAYER1
 62
     7
  6
CONTINUOUS
 10
11.3636
 20
1.5660
  0
VERTEX
  8
LAYER1
 62
     7
  6
CONTINUOUS
 10
11.3631
 20
1.5655
  0
VERTEX
  8
LAYER1
 62
     7
  6
CONTINUOUS
 10
11.3627
 20
1.5649
  0
VERTEX
  8
LAYER1
 62
     7
  6
CONTINUOUS
 10
11.3622
 20
1.5644
  0
SEQEND
  8
LAYER1
  0
POLYLINE
  8
LAYER1
 62
     7
 66
     1
  6
CONTINUOUS
  0
VERTEX
  8
LAYER1
 62
     7
  6
CONTINUOUS
 10
11.3041
 20
1.5644
  0
VERTEX
  8
LAYER1
 62
     7
  6
CONTINUOUS
 10
11.3037
 20
1.5646
  0
VERTEX
  8
LAYER1
 62
     7
  6
CONTINUOUS
 10
11.3033
 20
1.5649
  0
VERTEX
  8
LAYER1
 62
     7
  6
CONTINUOUS
 10
11.3029
 20
1.5651
  0
VERTEX
  8
LAYER1
 62
     7
  6
CONTINUOUS
 10
11.3026
 20
1.5653
  0
VERTEX
  8
LAYER1
 62
     7
  6
CONTINUOUS
 10
11.3022
 20
1.5655
  0
VERTEX
  8
LAYER1
 62
     7
  6
CONTINUOUS
 10
11.3018
 20
1.5657
  0
VERTEX
  8
LAYER1
 62
     7
  6
CONTINUOUS
 10
11.3015
 20
1.5659
  0
VERTEX
  8
LAYER1
 62
     7
  6
CONTINUOUS
 10
11.3012
 20
1.5660
  0
VERTEX
  8
LAYER1
 62
     7
  6
CONTINUOUS
 10
11.3009
 20
1.5662
  0
VERTEX
  8
LAYER1
 62
     7
  6
CONTINUOUS
 10
11.3007
 20
1.5663
  0
VERTEX
  8
LAYER1
 62
     7
  6
CONTINUOUS
 10
11.3005
 20
1.5664
  0
VERTEX
  8
LAYER1
 62
     7
  6
CONTINUOUS
 10
11.3003
 20
1.5665
  0
VERTEX
  8
LAYER1
 62
     7
  6
CONTINUOUS
 10
11.3002
 20
1.5665
  0
VERTEX
  8
LAYER1
 62
     7
  6
CONTINUOUS
 10
11.3001
 20
1.5666
  0
VERTEX
  8
LAYER1
 62
     7
  6
CONTINUOUS
 10
11.3000
 20
1.5666
  0
VERTEX
  8
LAYER1
 62
     7
  6
CONTINUOUS
 10
11.3000
 20
1.5666
  0
VERTEX
  8
LAYER1
 62
     7
  6
CONTINUOUS
 10
11.3000
 20
1.5666
  0
VERTEX
  8
LAYER1
 62
     7
  6
CONTINUOUS
 10
11.3000
 20
1.5665
  0
VERTEX
  8
LAYER1
 62
     7
  6
CONTINUOUS
 10
11.3001
 20
1.5665
  0
VERTEX
  8
LAYER1
 62
     7
  6
CONTINUOUS
 10
11.3001
 20
1.5665
  0
VERTEX
  8
LAYER1
 62
     7
  6
CONTINUOUS
 10
11.3002
 20
1.5665
  0
VERTEX
  8
LAYER1
 62
     7
  6
CONTINUOUS
 10
11.3002
 20
1.5665
  0
VERTEX
  8
LAYER1
 62
     7
  6
CONTINUOUS
 10
11.3003
 20
1.5665
  0
VERTEX
  8
LAYER1
 62
     7
  6
CONTINUOUS
 10
11.3003
 20
1.5665
  0
VERTEX
  8
LAYER1
 62
     7
  6
CONTINUOUS
 10
11.3002
 20
1.5667
  0
VERTEX
  8
LAYER1
 62
     7
  6
CONTINUOUS
 10
11.2999
 20
1.5673
  0
VERTEX
  8
LAYER1
 62
     7
  6
CONTINUOUS
 10
11.2994
 20
1.5681
  0
VERTEX
  8
LAYER1
 62
     7
  6
CONTINUOUS
 10
11.2986
 20
1.5691
  0
VERTEX
  8
LAYER1
 62
     7
  6
CONTINUOUS
 10
11.2977
 20
1.5704
  0
VERTEX
  8
LAYER1
 62
     7
  6
CONTINUOUS
 10
11.2967
 20
1.5718
  0
VERTEX
  8
LAYER1
 62
     7
  6
CONTINUOUS
 10
11.2956
 20
1.5733
  0
VERTEX
  8
LAYER1
 62
     7
  6
CONTINUOUS
 10
11.2944
 20
1.5750
  0
VERTEX
  8
LAYER1
 62
     7
  6
CONTINUOUS
 10
11.2933
 20
1.5767
  0
VERTEX
  8
LAYER1
 62
     7
  6
CONTINUOUS
 10
11.2921
 20
1.5784
  0
VERTEX
  8
LAYER1
 62
     7
  6
CONTINUOUS
 10
11.2910
 20
1.5801
  0
VERTEX
  8
LAYER1
 62
     7
  6
CONTINUOUS
 10
11.2901
 20
1.5818
  0
VERTEX
  8
LAYER1
 62
     7
  6
CONTINUOUS
 10
11.2893
 20
1.5832
  0
VERTEX
  8
LAYER1
 62
     7
  6
CONTINUOUS
 10
11.2886
 20
1.5846
  0
VERTEX
  8
LAYER1
 62
     7
  6
CONTINUOUS
 10
11.2880
 20
1.5860
  0
VERTEX
  8
LAYER1
 62
     7
  6
CONTINUOUS
 10
11.2875
 20
1.5873
  0
VERTEX
  8
LAYER1
 62
     7
  6
CONTINUOUS
 10
11.2871
 20
1.5885
  0
VERTEX
  8
LAYER1
 62
     7
  6
CONTINUOUS
 10
11.2867
 20
1.5898
  0
VERTEX
  8
LAYER1
 62
     7
  6
CONTINUOUS
 10
11.2863
 20
1.5910
  0
VERTEX
  8
LAYER1
 62
     7
  6
CONTINUOUS
 10
11.2860
 20
1.5923
  0
VERTEX
  8
LAYER1
 62
     7
  6
CONTINUOUS
 10
11.2857
 20
1.5935
  0
VERTEX
  8
LAYER1
 62
     7
  6
CONTINUOUS
 10
11.2855
 20
1.5947
  0
VERTEX
  8
LAYER1
 62
     7
  6
CONTINUOUS
 10
11.2852
 20
1.5959
  0
VERTEX
  8
LAYER1
 62
     7
  6
CONTINUOUS
 10
11.2849
 20
1.5971
  0
VERTEX
  8
LAYER1
 62
     7
  6
CONTINUOUS
 10
11.2846
 20
1.5987
  0
VERTEX
  8
LAYER1
 62
     7
  6
CONTINUOUS
 10
11.2842
 20
1.6004
  0
VERTEX
  8
LAYER1
 62
     7
  6
CONTINUOUS
 10
11.2838
 20
1.6020
  0
VERTEX
  8
LAYER1
 62
     7
  6
CONTINUOUS
 10
11.2834
 20
1.6037
  0
VERTEX
  8
LAYER1
 62
     7
  6
CONTINUOUS
 10
11.2830
 20
1.6054
  0
VERTEX
  8
LAYER1
 62
     7
  6
CONTINUOUS
 10
11.2825
 20
1.6071
  0
VERTEX
  8
LAYER1
 62
     7
  6
CONTINUOUS
 10
11.2821
 20
1.6088
  0
VERTEX
  8
LAYER1
 62
     7
  6
CONTINUOUS
 10
11.2816
 20
1.6106
  0
VERTEX
  8
LAYER1
 62
     7
  6
CONTINUOUS
 10
11.2812
 20
1.6123
  0
VERTEX
  8
LAYER1
 62
     7
  6
CONTINUOUS
 10
11.2807
 20
1.6141
  0
VERTEX
  8
LAYER1
 62
     7
  6
CONTINUOUS
 10
11.2803
 20
1.6158
  0
VERTEX
  8
LAYER1
 62
     7
  6
CONTINUOUS
 10
11.2798
 20
1.6176
  0
SEQEND
  8
LAYER1
  0
ARC
  8
LAYER1
 62
     7
  6
CONTINUOUS
 10
11.4562
 20
1.5641
 40
0.0081
 50
2.4501
 51
177.5496
  0
ARC
  8
LAYER1
 62
     7
  6
CONTINUOUS
 10
12.0486
 20
2.2216
 40
0.0206
 50
-82.8204
 51
-81.8008
  0
ARC
  8
LAYER1
 62
     7
  6
CONTINUOUS
 10
12.0486
 20
2.2216
 40
0.0206
 50
81.8007
 51
-82.8202
  0
ARC
  8
LAYER1
 62
     7
  6
CONTINUOUS
 10
11.0267
 20
1.6148
 40
0.0130
 50
-114.8374
 51
-110.7255
  0
ARC
  8
LAYER1
 62
     7
  6
CONTINUOUS
 10
11.0267
 20
1.6148
 40
0.0130
 50
-110.7270
 51
-101.2360
  0
ARC
  8
LAYER1
 62
     7
  6
CONTINUOUS
 10
11.0267
 20
1.6148
 40
0.0130
 50
98.4751
 51
110.7252
  0
ARC
  8
LAYER1
 62
     7
  6
CONTINUOUS
 10
11.0267
 20
1.6148
 40
0.0130
 50
110.7270
 51
114.8345
  0
ARC
  8
LAYER1
 62
     7
  6
CONTINUOUS
 10
11.6188
 20
2.5228
 40
0.0332
 50
47.7643
 51
60.1519
  0
ARC
  8
LAYER1
 62
     7
  6
CONTINUOUS
 10
11.6188
 20
2.5228
 40
0.0332
 50
119.8501
 51
132.2377
  0
ARC
  8
LAYER1
 62
     7
  6
CONTINUOUS
 10
11.5463
 20
2.5631
 40
0.0216
 50
-147.8145
 51
-133.3173
  0
ARC
  8
LAYER1
 62
     7
  6
CONTINUOUS
 10
11.5463
 20
2.5631
 40
0.0216
 50
-46.6886
 51
-32.1850
  0
POLYLINE
  8
LAYER10
 62
     1
 66
     1
  6
CONTINUOUS
  0
VERTEX
  8
LAYER10
 62
     1
  6
CONTINUOUS
 10
11.8108
 20
2.2827
  0
VERTEX
  8
LAYER10
 62
     1
  6
CONTINUOUS
 10
11.8142
 20
2.2830
  0
VERTEX
  8
LAYER10
 62
     1
  6
CONTINUOUS
 10
11.8175
 20
2.2836
  0
VERTEX
  8
LAYER10
 62
     1
  6
CONTINUOUS
 10
11.8209
 20
2.2843
  0
VERTEX
  8
LAYER10
 62
     1
  6
CONTINUOUS
 10
11.8242
 20
2.2852
  0
VERTEX
  8
LAYER10
 62
     1
  6
CONTINUOUS
 10
11.8275
 20
2.2862
  0
VERTEX
  8
LAYER10
 62
     1
  6
CONTINUOUS
 10
11.8309
 20
2.2873
  0
VERTEX
  8
LAYER10
 62
     1
  6
CONTINUOUS
 10
11.8343
 20
2.2884
  0
VERTEX
  8
LAYER10
 62
     1
  6
CONTINUOUS
 10
11.8377
 20
2.2894
  0
VERTEX
  8
LAYER10
 62
     1
  6
CONTINUOUS
 10
11.8411
 20
2.2905
  0
VERTEX
  8
LAYER10
 62
     1
  6
CONTINUOUS
 10
11.8446
 20
2.2915
  0
VERTEX
  8
LAYER10
 62
     1
  6
CONTINUOUS
 10
11.8481
 20
2.2923
  0
VERTEX
  8
LAYER10
 62
     1
  6
CONTINUOUS
 10
11.8517
 20
2.2930
  0
VERTEX
  8
LAYER10
 62
     1
  6
CONTINUOUS
 10
11.8557
 20
2.2935
  0
VERTEX
  8
LAYER10
 62
     1
  6
CONTINUOUS
 10
11.8598
 20
2.2938
  0
VERTEX
  8
LAYER10
 62
     1
  6
CONTINUOUS
 10
11.8640
 20
2.2938
  0
VERTEX
  8
LAYER10
 62
     1
  6
CONTINUOUS
 10
11.8681
 20
2.2936
  0
VERTEX
  8
LAYER10
 62
     1
  6
CONTINUOUS
 10
11.8722
 20
2.2931
  0
VERTEX
  8
LAYER10
 62
     1
  6
CONTINUOUS
 10
11.8762
 20
2.2924
  0
VERTEX
  8
LAYER10
 62
     1
  6
CONTINUOUS
 10
11.8802
 20
2.2914
  0
VERTEX
  8
LAYER10
 62
     1
  6
CONTINUOUS
 10
11.8840
 20
2.2902
  0
VERTEX
  8
LAYER10
 62
     1
  6
CONTINUOUS
 10
11.8877
 20
2.2887
  0
VERTEX
  8
LAYER10
 62
     1
  6
CONTINUOUS
 10
11.8913
 20
2.2870
  0
VERTEX
  8
LAYER10
 62
     1
  6
CONTINUOUS
 10
11.8946
 20
2.2850
  0
VERTEX
  8
LAYER10
 62
     1
  6
CONTINUOUS
 10
11.8977
 20
2.2828
  0
VERTEX
  8
LAYER10
 62
     1
  6
CONTINUOUS
 10
11.9010
 20
2.2799
  0
VERTEX
  8
LAYER10
 62
     1
  6
CONTINUOUS
 10
11.9040
 20
2.2766
  0
VERTEX
  8
LAYER10
 62
     1
  6
CONTINUOUS
 10
11.9068
 20
2.2731
  0
VERTEX
  8
LAYER10
 62
     1
  6
CONTINUOUS
 10
11.9094
 20
2.2694
  0
VERTEX
  8
LAYER10
 62
     1
  6
CONTINUOUS
 10
11.9118
 20
2.2655
  0
VERTEX
  8
LAYER10
 62
     1
  6
CONTINUOUS
 10
11.9141
 20
2.2615
  0
VERTEX
  8
LAYER10
 62
     1
  6
CONTINUOUS
 10
11.9164
 20
2.2574
  0
VERTEX
  8
LAYER10
 62
     1
  6
CONTINUOUS
 10
11.9186
 20
2.2532
  0
VERTEX
  8
LAYER10
 62
     1
  6
CONTINUOUS
 10
11.9209
 20
2.2490
  0
VERTEX
  8
LAYER10
 62
     1
  6
CONTINUOUS
 10
11.9232
 20
2.2449
  0
VERTEX
  8
LAYER10
 62
     1
  6
CONTINUOUS
 10
11.9257
 20
2.2408
  0
VERTEX
  8
LAYER10
 62
     1
  6
CONTINUOUS
 10
11.9284
 20
2.2368
  0
VERTEX
  8
LAYER10
 62
     1
  6
CONTINUOUS
 10
11.9310
 20
2.2333
  0
VERTEX
  8
LAYER10
 62
     1
  6
CONTINUOUS
 10
11.9338
 20
2.2298
  0
VERTEX
  8
LAYER10
 62
     1
  6
CONTINUOUS
 10
11.9367
 20
2.2265
  0
VERTEX
  8
LAYER10
 62
     1
  6
CONTINUOUS
 10
11.9397
 20
2.2232
  0
VERTEX
  8
LAYER10
 62
     1
  6
CONTINUOUS
 10
11.9426
 20
2.2199
  0
VERTEX
  8
LAYER10
 62
     1
  6
CONTINUOUS
 10
11.9455
 20
2.2167
  0
VERTEX
  8
LAYER10
 62
     1
  6
CONTINUOUS
 10
11.9483
 20
2.2134
  0
VERTEX
  8
LAYER10
 62
     1
  6
CONTINUOUS
 10
11.9510
 20
2.2101
  0
VERTEX
  8
LAYER10
 62
     1
  6
CONTINUOUS
 10
11.9534
 20
2.2067
  0
VERTEX
  8
LAYER10
 62
     1
  6
CONTINUOUS
 10
11.9556
 20
2.2032
  0
VERTEX
  8
LAYER10
 62
     1
  6
CONTINUOUS
 10
11.9575
 20
2.1997
  0
VERTEX
  8
LAYER10
 62
     1
  6
CONTINUOUS
 10
11.9591
 20
2.1959
  0
VERTEX
  8
LAYER10
 62
     1
  6
CONTINUOUS
 10
11.9601
 20
2.1929
  0
VERTEX
  8
LAYER10
 62
     1
  6
CONTINUOUS
 10
11.9608
 20
2.1897
  0
VERTEX
  8
LAYER10
 62
     1
  6
CONTINUOUS
 10
11.9614
 20
2.1864
  0
VERTEX
  8
LAYER10
 62
     1
  6
CONTINUOUS
 10
11.9617
 20
2.1831
  0
VERTEX
  8
LAYER10
 62
     1
  6
CONTINUOUS
 10
11.9619
 20
2.1797
  0
VERTEX
  8
LAYER10
 62
     1
  6
CONTINUOUS
 10
11.9618
 20
2.1762
  0
VERTEX
  8
LAYER10
 62
     1
  6
CONTINUOUS
 10
11.9617
 20
2.1727
  0
VERTEX
  8
LAYER10
 62
     1
  6
CONTINUOUS
 10
11.9614
 20
2.1692
  0
VERTEX
  8
LAYER10
 62
     1
  6
CONTINUOUS
 10
11.9609
 20
2.1657
  0
VERTEX
  8
LAYER10
 62
     1
  6
CONTINUOUS
 10
11.9604
 20
2.1621
  0
VERTEX
  8
LAYER10
 62
     1
  6
CONTINUOUS
 10
11.9598
 20
2.1586
  0
VERTEX
  8
LAYER10
 62
     1
  6
CONTINUOUS
 10
11.9592
 20
2.1551
  0
VERTEX
  8
LAYER10
 62
     1
  6
CONTINUOUS
 10
11.9584
 20
2.1513
  0
VERTEX
  8
LAYER10
 62
     1
  6
CONTINUOUS
 10
11.9576
 20
2.1476
  0
VERTEX
  8
LAYER10
 62
     1
  6
CONTINUOUS
 10
11.9566
 20
2.1440
  0
VERTEX
  8
LAYER10
 62
     1
  6
CONTINUOUS
 10
11.9557
 20
2.1404
  0
VERTEX
  8
LAYER10
 62
     1
  6
CONTINUOUS
 10
11.9546
 20
2.1368
  0
VERTEX
  8
LAYER10
 62
     1
  6
CONTINUOUS
 10
11.9534
 20
2.1333
  0
VERTEX
  8
LAYER10
 62
     1
  6
CONTINUOUS
 10
11.9521
 20
2.1299
  0
VERTEX
  8
LAYER10
 62
     1
  6
CONTINUOUS
 10
11.9507
 20
2.1266
  0
VERTEX
  8
LAYER10
 62
     1
  6
CONTINUOUS
 10
11.9492
 20
2.1233
  0
VERTEX
  8
LAYER10
 62
     1
  6
CONTINUOUS
 10
11.9476
 20
2.1202
  0
VERTEX
  8
LAYER10
 62
     1
  6
CONTINUOUS
 10
11.9458
 20
2.1171
  0
VERTEX
  8
LAYER10
 62
     1
  6
CONTINUOUS
 10
11.9439
 20
2.1141
  0
VERTEX
  8
LAYER10
 62
     1
  6
CONTINUOUS
 10
11.9414
 20
2.1108
  0
VERTEX
  8
LAYER10
 62
     1
  6
CONTINUOUS
 10
11.9388
 20
2.1077
  0
VERTEX
  8
LAYER10
 62
     1
  6
CONTINUOUS
 10
11.9361
 20
2.1046
  0
VERTEX
  8
LAYER10
 62
     1
  6
CONTINUOUS
 10
11.9332
 20
2.1016
  0
VERTEX
  8
LAYER10
 62
     1
  6
CONTINUOUS
 10
11.9301
 20
2.0987
  0
VERTEX
  8
LAYER10
 62
     1
  6
CONTINUOUS
 10
11.9271
 20
2.0958
  0
VERTEX
  8
LAYER10
 62
     1
  6
CONTINUOUS
 10
11.9239
 20
2.0930
  0
VERTEX
  8
LAYER10
 62
     1
  6
CONTINUOUS
 10
11.9207
 20
2.0901
  0
VERTEX
  8
LAYER10
 62
     1
  6
CONTINUOUS
 10
11.9175
 20
2.0873
  0
VERTEX
  8
LAYER10
 62
     1
  6
CONTINUOUS
 10
11.9143
 20
2.0844
  0
VERTEX
  8
LAYER10
 62
     1
  6
CONTINUOUS
 10
11.9112
 20
2.0814
  0
VERTEX
  8
LAYER10
 62
     1
  6
CONTINUOUS
 10
11.9081
 20
2.0783
  0
VERTEX
  8
LAYER10
 62
     1
  6
CONTINUOUS
 10
11.9047
 20
2.0747
  0
VERTEX
  8
LAYER10
 62
     1
  6
CONTINUOUS
 10
11.9014
 20
2.0710
  0
VERTEX
  8
LAYER10
 62
     1
  6
CONTINUOUS
 10
11.8981
 20
2.0672
  0
VERTEX
  8
LAYER10
 62
     1
  6
CONTINUOUS
 10
11.8949
 20
2.0634
  0
VERTEX
  8
LAYER10
 62
     1
  6
CONTINUOUS
 10
11.8917
 20
2.0597
  0
VERTEX
  8
LAYER10
 62
     1
  6
CONTINUOUS
 10
11.8885
 20
2.0560
  0
VERTEX
  8
LAYER10
 62
     1
  6
CONTINUOUS
 10
11.8852
 20
2.0524
  0
VERTEX
  8
LAYER10
 62
     1
  6
CONTINUOUS
 10
11.8818
 20
2.0489
  0
VERTEX
  8
LAYER10
 62
     1
  6
CONTINUOUS
 10
11.8784
 20
2.0457
  0
VERTEX
  8
LAYER10
 62
     1
  6
CONTINUOUS
 10
11.8748
 20
2.0426
  0
VERTEX
  8
LAYER10
 62
     1
  6
CONTINUOUS
 10
11.8711
 20
2.0399
  0
VERTEX
  8
LAYER10
 62
     1
  6
CONTINUOUS
 10
11.8673
 20
2.0374
  0
VERTEX
  8
LAYER10
 62
     1
  6
CONTINUOUS
 10
11.8629
 20
2.0351
  0
VERTEX
  8
LAYER10
 62
     1
  6
CONTINUOUS
 10
11.8583
 20
2.0332
  0
VERTEX
  8
LAYER10
 62
     1
  6
CONTINUOUS
 10
11.8535
 20
2.0316
  0
VERTEX
  8
LAYER10
 62
     1
  6
CONTINUOUS
 10
11.8485
 20
2.0303
  0
VERTEX
  8
LAYER10
 62
     1
  6
CONTINUOUS
 10
11.8434
 20
2.0293
  0
VERTEX
  8
LAYER10
 62
     1
  6
CONTINUOUS
 10
11.8382
 20
2.0285
  0
VERTEX
  8
LAYER10
 62
     1
  6
CONTINUOUS
 10
11.8329
 20
2.0280
  0
VERTEX
  8
LAYER10
 62
     1
  6
CONTINUOUS
 10
11.8276
 20
2.0276
  0
VERTEX
  8
LAYER10
 62
     1
  6
CONTINUOUS
 10
11.8222
 20
2.0273
  0
VERTEX
  8
LAYER10
 62
     1
  6
CONTINUOUS
 10
11.8167
 20
2.0272
  0
VERTEX
  8
LAYER10
 62
     1
  6
CONTINUOUS
 10
11.8113
 20
2.0271
  0
VERTEX
  8
LAYER10
 62
     1
  6
CONTINUOUS
 10
11.8059
 20
2.0271
  0
VERTEX
  8
LAYER10
 62
     1
  6
CONTINUOUS
 10
11.8011
 20
2.0271
  0
VERTEX
  8
LAYER10
 62
     1
  6
CONTINUOUS
 10
11.7963
 20
2.0271
  0
VERTEX
  8
LAYER10
 62
     1
  6
CONTINUOUS
 10
11.7915
 20
2.0272
  0
VERTEX
  8
LAYER10
 62
     1
  6
CONTINUOUS
 10
11.7867
 20
2.0273
  0
VERTEX
  8
LAYER10
 62
     1
  6
CONTINUOUS
 10
11.7820
 20
2.0275
  0
VERTEX
  8
LAYER10
 62
     1
  6
CONTINUOUS
 10
11.7774
 20
2.0278
  0
VERTEX
  8
LAYER10
 62
     1
  6
CONTINUOUS
 10
11.7727
 20
2.0282
  0
VERTEX
  8
LAYER10
 62
     1
  6
CONTINUOUS
 10
11.7681
 20
2.0287
  0
VERTEX
  8
LAYER10
 62
     1
  6
CONTINUOUS
 10
11.7634
 20
2.0293
  0
VERTEX
  8
LAYER10
 62
     1
  6
CONTINUOUS
 10
11.7588
 20
2.0301
  0
VERTEX
  8
LAYER10
 62
     1
  6
CONTINUOUS
 10
11.7543
 20
2.0310
  0
VERTEX
  8
LAYER10
 62
     1
  6
CONTINUOUS
 10
11.7497
 20
2.0321
  0
VERTEX
  8
LAYER10
 62
     1
  6
CONTINUOUS
 10
11.7454
 20
2.0333
  0
VERTEX
  8
LAYER10
 62
     1
  6
CONTINUOUS
 10
11.7412
 20
2.0347
  0
VERTEX
  8
LAYER10
 62
     1
  6
CONTINUOUS
 10
11.7370
 20
2.0363
  0
VERTEX
  8
LAYER10
 62
     1
  6
CONTINUOUS
 10
11.7328
 20
2.0380
  0
VERTEX
  8
LAYER10
 62
     1
  6
CONTINUOUS
 10
11.7288
 20
2.0398
  0
VERTEX
  8
LAYER10
 62
     1
  6
CONTINUOUS
 10
11.7248
 20
2.0419
  0
VERTEX
  8
LAYER10
 62
     1
  6
CONTINUOUS
 10
11.7209
 20
2.0441
  0
VERTEX
  8
LAYER10
 62
     1
  6
CONTINUOUS
 10
11.7171
 20
2.0464
  0
VERTEX
  8
LAYER10
 62
     1
  6
CONTINUOUS
 10
11.7135
 20
2.0490
  0
VERTEX
  8
LAYER10
 62
     1
  6
CONTINUOUS
 10
11.7101
 20
2.0517
  0
VERTEX
  8
LAYER10
 62
     1
  6
CONTINUOUS
 10
11.7068
 20
2.0546
  0
VERTEX
  8
LAYER10
 62
     1
  6
CONTINUOUS
 10
11.7036
 20
2.0577
  0
VERTEX
  8
LAYER10
 62
     1
  6
CONTINUOUS
 10
11.7003
 20
2.0615
  0
VERTEX
  8
LAYER10
 62
     1
  6
CONTINUOUS
 10
11.6971
 20
2.0655
  0
VERTEX
  8
LAYER10
 62
     1
  6
CONTINUOUS
 10
11.6943
 20
2.0697
  0
VERTEX
  8
LAYER10
 62
     1
  6
CONTINUOUS
 10
11.6916
 20
2.0741
  0
VERTEX
  8
LAYER10
 62
     1
  6
CONTINUOUS
 10
11.6892
 20
2.0787
  0
VERTEX
  8
LAYER10
 62
     1
  6
CONTINUOUS
 10
11.6871
 20
2.0834
  0
VERTEX
  8
LAYER10
 62
     1
  6
CONTINUOUS
 10
11.6851
 20
2.0883
  0
VERTEX
  8
LAYER10
 62
     1
  6
CONTINUOUS
 10
11.6833
 20
2.0932
  0
VERTEX
  8
LAYER10
 62
     1
  6
CONTINUOUS
 10
11.6818
 20
2.0983
  0
VERTEX
  8
LAYER10
 62
     1
  6
CONTINUOUS
 10
11.6804
 20
2.1034
  0
VERTEX
  8
LAYER10
 62
     1
  6
CONTINUOUS
 10
11.6791
 20
2.1086
  0
VERTEX
  8
LAYER10
 62
     1
  6
CONTINUOUS
 10
11.6780
 20
2.1139
  0
VERTEX
  8
LAYER10
 62
     1
  6
CONTINUOUS
 10
11.6774
 20
2.1173
  0
VERTEX
  8
LAYER10
 62
     1
  6
CONTINUOUS
 10
11.6768
 20
2.1208
  0
VERTEX
  8
LAYER10
 62
     1
  6
CONTINUOUS
 10
11.6763
 20
2.1243
  0
VERTEX
  8
LAYER10
 62
     1
  6
CONTINUOUS
 10
11.6760
 20
2.1278
  0
VERTEX
  8
LAYER10
 62
     1
  6
CONTINUOUS
 10
11.6757
 20
2.1313
  0
VERTEX
  8
LAYER10
 62
     1
  6
CONTINUOUS
 10
11.6755
 20
2.1347
  0
VERTEX
  8
LAYER10
 62
     1
  6
CONTINUOUS
 10
11.6755
 20
2.1382
  0
VERTEX
  8
LAYER10
 62
     1
  6
CONTINUOUS
 10
11.6757
 20
2.1416
  0
VERTEX
  8
LAYER10
 62
     1
  6
CONTINUOUS
 10
11.6760
 20
2.1449
  0
VERTEX
  8
LAYER10
 62
     1
  6
CONTINUOUS
 10
11.6765
 20
2.1483
  0
VERTEX
  8
LAYER10
 62
     1
  6
CONTINUOUS
 10
11.6771
 20
2.1515
  0
VERTEX
  8
LAYER10
 62
     1
  6
CONTINUOUS
 10
11.6780
 20
2.1548
  0
VERTEX
  8
LAYER10
 62
     1
  6
CONTINUOUS
 10
11.6792
 20
2.1583
  0
VERTEX
  8
LAYER10
 62
     1
  6
CONTINUOUS
 10
11.6806
 20
2.1618
  0
VERTEX
  8
LAYER10
 62
     1
  6
CONTINUOUS
 10
11.6823
 20
2.1652
  0
VERTEX
  8
LAYER10
 62
     1
  6
CONTINUOUS
 10
11.6840
 20
2.1686
  0
VERTEX
  8
LAYER10
 62
     1
  6
CONTINUOUS
 10
11.6859
 20
2.1719
  0
VERTEX
  8
LAYER10
 62
     1
  6
CONTINUOUS
 10
11.6878
 20
2.1753
  0
VERTEX
  8
LAYER10
 62
     1
  6
CONTINUOUS
 10
11.6898
 20
2.1786
  0
VERTEX
  8
LAYER10
 62
     1
  6
CONTINUOUS
 10
11.6917
 20
2.1820
  0
VERTEX
  8
LAYER10
 62
     1
  6
CONTINUOUS
 10
11.6936
 20
2.1853
  0
VERTEX
  8
LAYER10
 62
     1
  6
CONTINUOUS
 10
11.6953
 20
2.1887
  0
VERTEX
  8
LAYER10
 62
     1
  6
CONTINUOUS
 10
11.6970
 20
2.1922
  0
VERTEX
  8
LAYER10
 62
     1
  6
CONTINUOUS
 10
11.6984
 20
2.1957
  0
VERTEX
  8
LAYER10
 62
     1
  6
CONTINUOUS
 10
11.6997
 20
2.1993
  0
VERTEX
  8
LAYER10
 62
     1
  6
CONTINUOUS
 10
11.7007
 20
2.2031
  0
VERTEX
  8
LAYER10
 62
     1
  6
CONTINUOUS
 10
11.7016
 20
2.2069
  0
VERTEX
  8
LAYER10
 62
     1
  6
CONTINUOUS
 10
11.7024
 20
2.2107
  0
VERTEX
  8
LAYER10
 62
     1
  6
CONTINUOUS
 10
11.7031
 20
2.2146
  0
VERTEX
  8
LAYER10
 62
     1
  6
CONTINUOUS
 10
11.7037
 20
2.2184
  0
VERTEX
  8
LAYER10
 62
     1
  6
CONTINUOUS
 10
11.7044
 20
2.2223
  0
VERTEX
  8
LAYER10
 62
     1
  6
CONTINUOUS
 10
11.7050
 20
2.2262
  0
VERTEX
  8
LAYER10
 62
     1
  6
CONTINUOUS
 10
11.7057
 20
2.2301
  0
VERTEX
  8
LAYER10
 62
     1
  6
CONTINUOUS
 10
11.7065
 20
2.2340
  0
VERTEX
  8
LAYER10
 62
     1
  6
CONTINUOUS
 10
11.7075
 20
2.2379
  0
VERTEX
  8
LAYER10
 62
     1
  6
CONTINUOUS
 10
11.7086
 20
2.2417
  0
VERTEX
  8
LAYER10
 62
     1
  6
CONTINUOUS
 10
11.7098
 20
2.2452
  0
VERTEX
  8
LAYER10
 62
     1
  6
CONTINUOUS
 10
11.7112
 20
2.2487
  0
VERTEX
  8
LAYER10
 62
     1
  6
CONTINUOUS
 10
11.7127
 20
2.2521
  0
VERTEX
  8
LAYER10
 62
     1
  6
CONTINUOUS
 10
11.7145
 20
2.2554
  0
VERTEX
  8
LAYER10
 62
     1
  6
CONTINUOUS
 10
11.7164
 20
2.2587
  0
VERTEX
  8
LAYER10
 62
     1
  6
CONTINUOUS
 10
11.7184
 20
2.2618
  0
VERTEX
  8
LAYER10
 62
     1
  6
CONTINUOUS
 10
11.7207
 20
2.2648
  0
VERTEX
  8
LAYER10
 62
     1
  6
CONTINUOUS
 10
11.7231
 20
2.2677
  0
VERTEX
  8
LAYER10
 62
     1
  6
CONTINUOUS
 10
11.7256
 20
2.2704
  0
VERTEX
  8
LAYER10
 62
     1
  6
CONTINUOUS
 10
11.7283
 20
2.2729
  0
VERTEX
  8
LAYER10
 62
     1
  6
CONTINUOUS
 10
11.7311
 20
2.2753
  0
VERTEX
  8
LAYER10
 62
     1
  6
CONTINUOUS
 10
11.7341
 20
2.2775
  0
VERTEX
  8
LAYER10
 62
     1
  6
CONTINUOUS
 10
11.7374
 20
2.2796
  0
VERTEX
  8
LAYER10
 62
     1
  6
CONTINUOUS
 10
11.7409
 20
2.2815
  0
VERTEX
  8
LAYER10
 62
     1
  6
CONTINUOUS
 10
11.7446
 20
2.2832
  0
VERTEX
  8
LAYER10
 62
     1
  6
CONTINUOUS
 10
11.7483
 20
2.2846
  0
VERTEX
  8
LAYER10
 62
     1
  6
CONTINUOUS
 10
11.7521
 20
2.2858
  0
VERTEX
  8
LAYER10
 62
     1
  6
CONTINUOUS
 10
11.7560
 20
2.2867
  0
VERTEX
  8
LAYER10
 62
     1
  6
CONTINUOUS
 10
11.7600
 20
2.2874
  0
VERTEX
  8
LAYER10
 62
     1
  6
CONTINUOUS
 10
11.7640
 20
2.2879
  0
VERTEX
  8
LAYER10
 62
     1
  6
CONTINUOUS
 10
11.7680
 20
2.2882
  0
VERTEX
  8
LAYER10
 62
     1
  6
CONTINUOUS
 10
11.7721
 20
2.2883
  0
VERTEX
  8
LAYER10
 62
     1
  6
CONTINUOUS
 10
11.7761
 20
2.2882
  0
VERTEX
  8
LAYER10
 62
     1
  6
CONTINUOUS
 10
11.7801
 20
2.2878
  0
VERTEX
  8
LAYER10
 62
     1
  6
CONTINUOUS
 10
11.7827
 20
2.2874
  0
VERTEX
  8
LAYER10
 62
     1
  6
CONTINUOUS
 10
11.7853
 20
2.2870
  0
VERTEX
  8
LAYER10
 62
     1
  6
CONTINUOUS
 10
11.7879
 20
2.2865
  0
VERTEX
  8
LAYER10
 62
     1
  6
CONTINUOUS
 10
11.7905
 20
2.2860
  0
VERTEX
  8
LAYER10
 62
     1
  6
CONTINUOUS
 10
11.7931
 20
2.2854
  0
VERTEX
  8
LAYER10
 62
     1
  6
CONTINUOUS
 10
11.7956
 20
2.2849
  0
VERTEX
  8
LAYER10
 62
     1
  6
CONTINUOUS
 10
11.7982
 20
2.2844
  0
VERTEX
  8
LAYER10
 62
     1
  6
CONTINUOUS
 10
11.8007
 20
2.2839
  0
VERTEX
  8
LAYER10
 62
     1
  6
CONTINUOUS
 10
11.8032
 20
2.2835
  0
VERTEX
  8
LAYER10
 62
     1
  6
CONTINUOUS
 10
11.8057
 20
2.2831
  0
VERTEX
  8
LAYER10
 62
     1
  6
CONTINUOUS
 10
11.8083
 20
2.2828
  0
VERTEX
  8
LAYER10
 62
     1
  6
CONTINUOUS
 10
11.8108
 20
2.2827
  0
SEQEND
  8
LAYER10
  0
POLYLINE
  8
LAYER12
 62
     5
 66
     1
  6
CONTINUOUS
  0
VERTEX
  8
LAYER12
 62
     5
  6
CONTINUOUS
 10
11.0213
 20
2.5494
  0
VERTEX
  8
LAYER12
 62
     5
  6
CONTINUOUS
 10
11.0213
 20
2.5494
  0
SEQEND
  8
LAYER12
  0
POLYLINE
  8
LAYER12
 62
     5
 66
     1
  6
CONTINUOUS
  0
VERTEX
  8
LAYER12
 62
     5
  6
CONTINUOUS
 10
11.0248
 20
2.5494
  0
VERTEX
  8
LAYER12
 62
     5
  6
CONTINUOUS
 10
11.0248
 20
2.5494
  0
SEQEND
  8
LAYER12
  0
POLYLINE
  8
LAYER12
 62
     5
 66
     1
  6
CONTINUOUS
  0
VERTEX
  8
LAYER12
 62
     5
  6
CONTINUOUS
 10
11.0235
 20
1.5681
  0
VERTEX
  8
LAYER12
 62
     5
  6
CONTINUOUS
 10
11.0235
 20
2.5474
  0
SEQEND
  8
LAYER12
  0
POLYLINE
  8
LAYER12
 62
     5
 66
     1
  6
CONTINUOUS
  0
VERTEX
  8
LAYER12
 62
     5
  6
CONTINUOUS
 10
11.0235
 20
2.5474
  0
VERTEX
  8
LAYER12
 62
     5
  6
CONTINUOUS
 10
11.0235
 20
2.5496
  0
SEQEND
  8
LAYER12
  0
POLYLINE
  8
LAYER12
 62
     5
 66
     1
  6
CONTINUOUS
  0
VERTEX
  8
LAYER12
 62
     5
  6
CONTINUOUS
 10
11.0213
 20
2.5494
  0
VERTEX
  8
LAYER12
 62
     5
  6
CONTINUOUS
 10
11.0221
 20
2.5494
  0
SEQEND
  8
LAYER12
  0
POLYLINE
  8
LAYER12
 62
     5
 66
     1
  6
CONTINUOUS
  0
VERTEX
  8
LAYER12
 62
     5
  6
CONTINUOUS
 10
11.0221
 20
2.5494
  0
VERTEX
  8
LAYER12
 62
     5
  6
CONTINUOUS
 10
11.0248
 20
2.5494
  0
SEQEND
  8
LAYER12
  0
POLYLINE
  8
LAYER12
 62
     5
 66
     1
  6
CONTINUOUS
  0
VERTEX
  8
LAYER12
 62
     5
  6
CONTINUOUS
 10
12.0515
 20
1.5657
  0
VERTEX
  8
LAYER12
 62
     5
  6
CONTINUOUS
 10
11.0248
 20
1.5657
  0
SEQEND
  8
LAYER12
  0
POLYLINE
  8
LAYER12
 62
     5
 66
     1
  6
CONTINUOUS
  0
VERTEX
  8
LAYER12
 62
     5
  6
CONTINUOUS
 10
11.0235
 20
1.5645
  0
VERTEX
  8
LAYER12
 62
     5
  6
CONTINUOUS
 10
11.0235
 20
1.5644
  0
SEQEND
  8
LAYER12
  0
POLYLINE
  8
LAYER12
 62
     5
 66
     1
  6
CONTINUOUS
  0
VERTEX
  8
LAYER12
 62
     5
  6
CONTINUOUS
 10
11.0235
 20
1.5644
  0
VERTEX
  8
LAYER12
 62
     5
  6
CONTINUOUS
 10
11.0235
 20
1.5681
  0
SEQEND
  8
LAYER12
  0
POLYLINE
  8
LAYER12
 62
     5
 66
     1
  6
CONTINUOUS
  0
VERTEX
  8
LAYER12
 62
     5
  6
CONTINUOUS
 10
11.0235
 20
1.5644
  0
VERTEX
  8
LAYER12
 62
     5
  6
CONTINUOUS
 10
11.0235
 20
1.5645
  0
SEQEND
  8
LAYER12
  0
POLYLINE
  8
LAYER12
 62
     5
 66
     1
  6
CONTINUOUS
  0
VERTEX
  8
LAYER12
 62
     5
  6
CONTINUOUS
 10
11.0248
 20
1.5657
  0
VERTEX
  8
LAYER12
 62
     5
  6
CONTINUOUS
 10
11.0221
 20
1.5657
  0
SEQEND
  8
LAYER12
  0
POLYLINE
  8
LAYER12
 62
     5
 66
     1
  6
CONTINUOUS
  0
VERTEX
  8
LAYER12
 62
     5
  6
CONTINUOUS
 10
11.0235
 20
2.5496
  0
VERTEX
  8
LAYER12
 62
     5
  6
CONTINUOUS
 10
11.0235
 20
2.5516
  0
SEQEND
  8
LAYER12
  0
POLYLINE
  8
LAYER12
 62
     5
 66
     1
  6
CONTINUOUS
  0
VERTEX
  8
LAYER12
 62
     5
  6
CONTINUOUS
 10
11.0248
 20
2.5494
  0
VERTEX
  8
LAYER12
 62
     5
  6
CONTINUOUS
 10
12.0515
 20
2.5494
  0
SEQEND
  8
LAYER12
  0
POLYLINE
  8
LAYER12
 62
     5
 66
     1
  6
CONTINUOUS
  0
VERTEX
  8
LAYER12
 62
     5
  6
CONTINUOUS
 10
12.0465
 20
2.5516
  0
VERTEX
  8
LAYER12
 62
     5
  6
CONTINUOUS
 10
12.0465
 20
2.5474
  0
SEQEND
  8
LAYER12
  0
POLYLINE
  8
LAYER12
 62
     5
 66
     1
  6
CONTINUOUS
  0
VERTEX
  8
LAYER12
 62
     5
  6
CONTINUOUS
 10
12.0465
 20
2.5474
  0
VERTEX
  8
LAYER12
 62
     5
  6
CONTINUOUS
 10
12.0465
 20
1.5644
  0
SEQEND
  8
LAYER12
  0
ENDSEC
  0
EOF
