  0
SECTION
  2
HEADER
  9
$ACADVER
  1
AC1004
  9
$EXTMIN
 10
9.0521
 20
1.5656
  9
$EXTMAX
 10
10.0428
 20
2.5523
  9
$LIMMIN
 10
9.0521
 20
1.5656
  9
$LIMMAX
 10
10.0428
 20
2.5523
  9
$INSBASE
 10
0.0
 20
0.0
  9
$VIEWCTR
 10
7.21903
 20
4.5
  9
$VIEWSIZE
 40
9.0
  9
$SNAPMODE
 70
     0
  9
$SNAPUNIT
 10
1.0
 20
1.0
  9
$SNAPBASE
 10
0.0
 20
0.0
  9
$SNAPANG
 50
0.0
  9
$SNAPSTYLE
 70
     0
  9
$SNAPISOPAIR
 70
     0
  9
$GRIDMODE
 70
     0
  9
$GRIDUNIT
 10
0.0
 20
0.0
  9
$ORTHOMODE
 70
     0
  9
$REGENMODE
 70
     1
  9
$FILLMODE
 70
     1
  9
$QTEXTMODE
 70
     0
  9
$DRAGMODE
 70
     2
  9
$LTSCALE
 40
1.0
  9
$OSMODE
 70
     0
  9
$ATTMODE
 70
     1
  9
$TEXTSIZE
 40
0.2
  9
$TRACEWID
 40
0.05
  9
$TEXTSTYLE
  7
STANDARD
  9
$CLAYER
  8
0
  9
$CELTYPE
  6
BYLAYER
  9
$CECOLOR
 62
   256
  9
$DIMSCALE
 40
1.0
  9
$DIMASZ
 40
0.18
  9
$DIMEXO
 40
0.0625
  9
$DIMDLI
 40
0.38
  9
$DIMRND
 40
0.0
  9
$DIMDLE
 40
0.0
  9
$DIMEXE
 40
0.18
  9
$DIMTP
 40
0.0
  9
$DIMTM
 40
0.0
  9
$DIMTXT
 40
0.18
  9
$DIMCEN
 40
0.09
  9
$DIMTSZ
 40
0.0
  9
$DIMTOL
 70
     0
  9
$DIMLIM
 70
     0
  9
$DIMTIH
 70
     1
  9
$DIMTOH
 70
     1
  9
$DIMSE1
 70
     0
  9
$DIMSE2
 70
     0
  9
$DIMTAD
 70
     0
  9
$DIMZIN
 70
     0
  9
$DIMBLK
  1

  9
$DIMASO
 70
     1
  9
$DIMSHO
 70
     0
  9
$DIMPOST
  1

  9
$DIMAPOST
  1

  9
$DIMALT
 70
     0
  9
$DIMALTD
 70
     2
  9
$DIMALTF
 40
25.4
  9
$DIMLFAC
 40
1.0
  9
$LUNITS
 70
     2
  9
$LUPREC
 70
     4
  9
$AXISMODE
 70
     0
  9
$AXISUNIT
 10
0.0
 20
0.0
  9
$SKETCHINC
 40
0.1
  9
$FILLETRAD
 40
0.0
  9
$AUNITS
 70
     0
  9
$AUPREC
 70
     0
  9
$MENU
  1
acad
  9
$ELEVATION
 40
0.0
  9
$THICKNESS
 40
0.0
  9
$VIEWDIR
 10
0.0
 20
0.0
 30
1.0
  9
$LIMCHECK
 70
     0
  9
$BLIPMODE
 70
     1
  9
$CHAMFERA
 40
0.0
  9
$CHAMFERB
 40
0.0
  9
$FASTZOOM
 70
     1
  9
$SKPOLY
 70
     0
  9
$TDCREATE
 40
2447222.5666886573
  9
$TDUPDATE
 40
2447222.5666886573
  9
$TDINDWG
 40
0.0000000000
  9
$TDUSRTIMER
 40
0.0000000000
  9
$USRTIMER
 70
     1
  9
$ANGBASE
 50
0.0
  9
$ANGDIR
 70
     0
  9
$PDMODE
 70
     0
  9
$PDSIZE
 40
0.0
  9
$PLINEWID
 40
0.0
  9
$COORDS
 70
     0
  9
$SPLFRAME
 70
     0
  9
$SPLINESEGS
 70
     8
  9
$ATTDIA
 70
     0
  9
$ATTREQ
 70
     1
  9
$USERI1
 70
     0
  9
$USERI2
 70
     0
  9
$USERI3
 70
     0
  9
$USERI4
 70
     0
  9
$USERI5
 70
     0
  9
$USERR1
 40
0.0
  9
$USERR2
 40
0.0
  9
$USERR3
 40
0.0
  9
$USERR4
 40
0.0
  9
$USERR5
 40
0.0
  0
ENDSEC
  0
SECTION
  2
TABLES
  0
TABLE
  2
LTYPE
 70
     13
  0
LTYPE
  2
CONTINUOUS
 70
    64
  3
Solid line
 72
    65
 73
     0
 40
0.0
  0
LTYPE
  2
DASHED
 70
    64
  3
__ __ __ __ __ __ __ __ __ __ __ __ __ __ __
 72
    65
 73
     2
 40
0.75
 49
0.5
 49
-0.25
  0
LTYPE
  2
HIDDEN
 70
    64
  3
_ _ _ _ _ _ _ _ _ _ _ _ _ _ _ _ _ _ _ _ _ _ _
 72
    65
 73
     2
 40
0.375
 49
0.25
 49
-0.125
  0
LTYPE
  2
CENTER
 70
    64
  3
____ _ ____ _ ____ _ ____ _ ____ _ ____ _ ____
 72
    65
 73
     4
 40
2.0
 49
1.25
 49
-0.25
 49
0.25
 49
-0.25
  0
LTYPE
  2
PHANTOM
 70
    64
  3
_____ _ _ _____ _ _ _____ _ _ _____ _ _ ____
 72
    65
 73
     6
 40
2.5
 49
1.25
 49
-0.25
 49
0.25
 49
-0.25
 49
0.25
 49
-0.25
  0
LTYPE
  2
DOT
 70
    64
  3
...............................................
 72
    65
 73
     2
 40
0.25
 49
0.0
 49
-0.25
  0
LTYPE
  2
DASHDOT
 70
    64
  3
__ . __ . __ . __ . __ . __ . __ . __ . __ . __
 72
    65
 73
     4
 40
1.0
 49
0.5
 49
-0.25
 49
0.0
 49
-0.25
  0
LTYPE
  2
BORDER
 70
    64
  3
__ __ . __ __ . __ __ . __ __ . __ __ . __ __
 72
    65
 73
     6
 40
1.75
 49
0.5
 49
-0.25
 49
0.5
 49
-0.25
 49
0.0
 49
-0.25
  0
LTYPE
  2
DIVIDE
 70
    64
  3
__ . . __ . . __ . . __ . . __ . . __ . . __
 72
    65
 73
     6
 40
1.25
 49
0.5
 49
-0.25
 49
0.0
 49
-0.25
 49
0.0
 49
-0.25
  0
LTYPE
  2
DCTYPE1
 70
    64
  3
__ . . __ . . __ . . __ . . __ . . __ . . __
 72
    65
 73
     8
 40
2.5
 49
0.5
 49
-0.25
 49
0.125
 49
-0.25
 49
0.25
 49
-0.25
 49
0.125
 49
-0.25
  0
LTYPE
  2
DCTYPE2
 70
    64
  3
__ . . __ . . __ . . __ . . __ . . __ . . __
 72
    65
 73
     6
 40
2.05
 49
1.0
 49
-0.3
 49
0.15
 49
-0.15
 49
0.15
 49
-0.3
  0
LTYPE
  2
DCTYPE3
 70
    64
  3
__ . . __ . . __ . . __ . . __ . . __ . . __
 72
    65
 73
     6
 40
2.5
 49
0.8
 49
-0.2
 49
0.8
 49
-0.2
 49
0.3
 49
-0.2
  0
LTYPE
  2
DCTYPE4
 70
    64
  3
__ . . __ . . __ . . __ . . __ . . __ . . __
 72
    65
 73
     10
 40
3.97
 49
1.75
 49
-0.3
 49
0.3
 49
-0.3
 49
0.06
 49
-0.3
 49
0.06
 49
-0.3
 49
0.3
 49
-0.3
  0
ENDTAB
  0
TABLE
  2
LAYER
 70
    153
  0
LAYER
  2
LAYER1
 70
 64
 62
     7
  6
CONTINUOUS
  0
LAYER
  2
LAYER10
 70
 64
 62
     1
  6
CONTINUOUS
  0
LAYER
  2
LAYER12
 70
 64
 62
     5
  6
CONTINUOUS
  0
ENDTAB
  0
ENDSEC
  0
SECTION
  2
BLOCKS
  0
ENDSEC
  0
SECTION
  2
ENTITIES
  0
CIRCLE
  8
LAYER1
 62
     7
  6
CONTINUOUS
 10
9.0918
 20
1.6076
 40
0.0186
  0
CIRCLE
  8
LAYER1
 62
     7
  6
CONTINUOUS
 10
9.9071
 20
1.6673
 40
0.0218
  0
CIRCLE
  8
LAYER1
 62
     7
  6
CONTINUOUS
 10
9.7964
 20
2.4851
 40
0.0256
  0
CIRCLE
  8
LAYER1
 62
     7
  6
CONTINUOUS
 10
9.4924
 20
2.3059
 40
0.0206
  0
CIRCLE
  8
LAYER1
 62
     7
  6
CONTINUOUS
 10
9.5769
 20
2.1884
 40
0.0261
  0
CIRCLE
  8
LAYER1
 62
     7
  6
CONTINUOUS
 10
9.5998
 20
2.2830
 40
0.0231
  0
CIRCLE
  8
LAYER1
 62
     7
  6
CONTINUOUS
 10
9.6714
 20
2.2243
 40
0.0257
  0
CIRCLE
  8
LAYER1
 62
     7
  6
CONTINUOUS
 10
9.7839
 20
2.1988
 40
0.0206
  0
CIRCLE
  8
LAYER1
 62
     7
  6
CONTINUOUS
 10
9.8479
 20
2.0379
 40
0.0186
  0
ARC
  8
LAYER1
 62
     7
  6
CONTINUOUS
 10
10.0451
 20
1.6751
 40
0.0130
 50
100.5113
 51
-100.5113
  0
ARC
  8
LAYER1
 62
     7
  6
CONTINUOUS
 10
10.0197
 20
2.5558
 40
0.0050
 50
-136.3349
 51
-43.6576
  0
POLYLINE
  8
LAYER10
 62
     1
 66
     1
  6
CONTINUOUS
  0
VERTEX
  8
LAYER10
 62
     1
  6
CONTINUOUS
 10
10.0428
 20
2.1072
  0
VERTEX
  8
LAYER10
 62
     1
  6
CONTINUOUS
 10
10.0385
 20
2.1075
  0
VERTEX
  8
LAYER10
 62
     1
  6
CONTINUOUS
 10
10.0342
 20
2.1077
  0
VERTEX
  8
LAYER10
 62
     1
  6
CONTINUOUS
 10
10.0300
 20
2.1081
  0
VERTEX
  8
LAYER10
 62
     1
  6
CONTINUOUS
 10
10.0258
 20
2.1084
  0
VERTEX
  8
LAYER10
 62
     1
  6
CONTINUOUS
 10
10.0217
 20
2.1089
  0
VERTEX
  8
LAYER10
 62
     1
  6
CONTINUOUS
 10
10.0176
 20
2.1095
  0
VERTEX
  8
LAYER10
 62
     1
  6
CONTINUOUS
 10
10.0137
 20
2.1103
  0
VERTEX
  8
LAYER10
 62
     1
  6
CONTINUOUS
 10
10.0099
 20
2.1112
  0
VERTEX
  8
LAYER10
 62
     1
  6
CONTINUOUS
 10
10.0062
 20
2.1124
  0
VERTEX
  8
LAYER10
 62
     1
  6
CONTINUOUS
 10
10.0027
 20
2.1137
  0
VERTEX
  8
LAYER10
 62
     1
  6
CONTINUOUS
 10
9.9993
 20
2.1154
  0
VERTEX
  8
LAYER10
 62
     1
  6
CONTINUOUS
 10
9.9961
 20
2.1172
  0
VERTEX
  8
LAYER10
 62
     1
  6
CONTINUOUS
 10
9.9927
 20
2.1198
  0
VERTEX
  8
LAYER10
 62
     1
  6
CONTINUOUS
 10
9.9895
 20
2.1226
  0
VERTEX
  8
LAYER10
 62
     1
  6
CONTINUOUS
 10
9.9865
 20
2.1257
  0
VERTEX
  8
LAYER10
 62
     1
  6
CONTINUOUS
 10
9.9837
 20
2.1291
  0
VERTEX
  8
LAYER10
 62
     1
  6
CONTINUOUS
 10
9.9809
 20
2.1326
  0
VERTEX
  8
LAYER10
 62
     1
  6
CONTINUOUS
 10
9.9781
 20
2.1363
  0
VERTEX
  8
LAYER10
 62
     1
  6
CONTINUOUS
 10
9.9754
 20
2.1401
  0
VERTEX
  8
LAYER10
 62
     1
  6
CONTINUOUS
 10
9.9726
 20
2.1438
  0
VERTEX
  8
LAYER10
 62
     1
  6
CONTINUOUS
 10
9.9698
 20
2.1476
  0
VERTEX
  8
LAYER10
 62
     1
  6
CONTINUOUS
 10
9.9668
 20
2.1512
  0
VERTEX
  8
LAYER10
 62
     1
  6
CONTINUOUS
 10
9.9636
 20
2.1548
  0
VERTEX
  8
LAYER10
 62
     1
  6
CONTINUOUS
 10
9.9603
 20
2.1581
  0
VERTEX
  8
LAYER10
 62
     1
  6
CONTINUOUS
 10
9.9572
 20
2.1608
  0
VERTEX
  8
LAYER10
 62
     1
  6
CONTINUOUS
 10
9.9540
 20
2.1634
  0
VERTEX
  8
LAYER10
 62
     1
  6
CONTINUOUS
 10
9.9506
 20
2.1658
  0
VERTEX
  8
LAYER10
 62
     1
  6
CONTINUOUS
 10
9.9473
 20
2.1682
  0
VERTEX
  8
LAYER10
 62
     1
  6
CONTINUOUS
 10
9.9439
 20
2.1706
  0
VERTEX
  8
LAYER10
 62
     1
  6
CONTINUOUS
 10
9.9406
 20
2.1729
  0
VERTEX
  8
LAYER10
 62
     1
  6
CONTINUOUS
 10
9.9374
 20
2.1753
  0
VERTEX
  8
LAYER10
 62
     1
  6
CONTINUOUS
 10
9.9343
 20
2.1777
  0
VERTEX
  8
LAYER10
 62
     1
  6
CONTINUOUS
 10
9.9314
 20
2.1802
  0
VERTEX
  8
LAYER10
 62
     1
  6
CONTINUOUS
 10
9.9288
 20
2.1829
  0
VERTEX
  8
LAYER10
 62
     1
  6
CONTINUOUS
 10
9.9265
 20
2.1857
  0
VERTEX
  8
LAYER10
 62
     1
  6
CONTINUOUS
 10
9.9245
 20
2.1887
  0
VERTEX
  8
LAYER10
 62
     1
  6
CONTINUOUS
 10
9.9230
 20
2.1916
  0
VERTEX
  8
LAYER10
 62
     1
  6
CONTINUOUS
 10
9.9219
 20
2.1946
  0
VERTEX
  8
LAYER10
 62
     1
  6
CONTINUOUS
 10
9.9210
 20
2.1977
  0
VERTEX
  8
LAYER10
 62
     1
  6
CONTINUOUS
 10
9.9203
 20
2.2010
  0
VERTEX
  8
LAYER10
 62
     1
  6
CONTINUOUS
 10
9.9198
 20
2.2044
  0
VERTEX
  8
LAYER10
 62
     1
  6
CONTINUOUS
 10
9.9194
 20
2.2079
  0
VERTEX
  8
LAYER10
 62
     1
  6
CONTINUOUS
 10
9.9192
 20
2.2114
  0
VERTEX
  8
LAYER10
 62
     1
  6
CONTINUOUS
 10
9.9191
 20
2.2150
  0
VERTEX
  8
LAYER10
 62
     1
  6
CONTINUOUS
 10
9.9191
 20
2.2187
  0
VERTEX
  8
LAYER10
 62
     1
  6
CONTINUOUS
 10
9.9192
 20
2.2223
  0
VERTEX
  8
LAYER10
 62
     1
  6
CONTINUOUS
 10
9.9192
 20
2.2260
  0
VERTEX
  8
LAYER10
 62
     1
  6
CONTINUOUS
 10
9.9193
 20
2.2296
  0
VERTEX
  8
LAYER10
 62
     1
  6
CONTINUOUS
 10
9.9194
 20
2.2345
  0
VERTEX
  8
LAYER10
 62
     1
  6
CONTINUOUS
 10
9.9195
 20
2.2394
  0
VERTEX
  8
LAYER10
 62
     1
  6
CONTINUOUS
 10
9.9195
 20
2.2441
  0
VERTEX
  8
LAYER10
 62
     1
  6
CONTINUOUS
 10
9.9195
 20
2.2489
  0
VERTEX
  8
LAYER10
 62
     1
  6
CONTINUOUS
 10
9.9195
 20
2.2536
  0
VERTEX
  8
LAYER10
 62
     1
  6
CONTINUOUS
 10
9.9194
 20
2.2582
  0
VERTEX
  8
LAYER10
 62
     1
  6
CONTINUOUS
 10
9.9194
 20
2.2628
  0
VERTEX
  8
LAYER10
 62
     1
  6
CONTINUOUS
 10
9.9193
 20
2.2674
  0
VERTEX
  8
LAYER10
 62
     1
  6
CONTINUOUS
 10
9.9193
 20
2.2720
  0
VERTEX
  8
LAYER10
 62
     1
  6
CONTINUOUS
 10
9.9193
 20
2.2766
  0
VERTEX
  8
LAYER10
 62
     1
  6
CONTINUOUS
 10
9.9193
 20
2.2812
  0
VERTEX
  8
LAYER10
 62
     1
  6
CONTINUOUS
 10
9.9193
 20
2.2859
  0
VERTEX
  8
LAYER10
 62
     1
  6
CONTINUOUS
 10
9.9193
 20
2.2905
  0
VERTEX
  8
LAYER10
 62
     1
  6
CONTINUOUS
 10
9.9194
 20
2.2952
  0
VERTEX
  8
LAYER10
 62
     1
  6
CONTINUOUS
 10
9.9195
 20
2.2999
  0
VERTEX
  8
LAYER10
 62
     1
  6
CONTINUOUS
 10
9.9197
 20
2.3046
  0
VERTEX
  8
LAYER10
 62
     1
  6
CONTINUOUS
 10
9.9199
 20
2.3093
  0
VERTEX
  8
LAYER10
 62
     1
  6
CONTINUOUS
 10
9.9202
 20
2.3140
  0
VERTEX
  8
LAYER10
 62
     1
  6
CONTINUOUS
 10
9.9206
 20
2.3187
  0
VERTEX
  8
LAYER10
 62
     1
  6
CONTINUOUS
 10
9.9211
 20
2.3234
  0
VERTEX
  8
LAYER10
 62
     1
  6
CONTINUOUS
 10
9.9218
 20
2.3281
  0
VERTEX
  8
LAYER10
 62
     1
  6
CONTINUOUS
 10
9.9225
 20
2.3328
  0
VERTEX
  8
LAYER10
 62
     1
  6
CONTINUOUS
 10
9.9233
 20
2.3375
  0
VERTEX
  8
LAYER10
 62
     1
  6
CONTINUOUS
 10
9.9243
 20
2.3421
  0
VERTEX
  8
LAYER10
 62
     1
  6
CONTINUOUS
 10
9.9254
 20
2.3466
  0
VERTEX
  8
LAYER10
 62
     1
  6
CONTINUOUS
 10
9.9267
 20
2.3511
  0
VERTEX
  8
LAYER10
 62
     1
  6
CONTINUOUS
 10
9.9280
 20
2.3556
  0
VERTEX
  8
LAYER10
 62
     1
  6
CONTINUOUS
 10
9.9295
 20
2.3600
  0
VERTEX
  8
LAYER10
 62
     1
  6
CONTINUOUS
 10
9.9311
 20
2.3643
  0
VERTEX
  8
LAYER10
 62
     1
  6
CONTINUOUS
 10
9.9328
 20
2.3687
  0
VERTEX
  8
LAYER10
 62
     1
  6
CONTINUOUS
 10
9.9346
 20
2.3729
  0
VERTEX
  8
LAYER10
 62
     1
  6
CONTINUOUS
 10
9.9364
 20
2.3771
  0
VERTEX
  8
LAYER10
 62
     1
  6
CONTINUOUS
 10
9.9384
 20
2.3813
  0
VERTEX
  8
LAYER10
 62
     1
  6
CONTINUOUS
 10
9.9404
 20
2.3853
  0
VERTEX
  8
LAYER10
 62
     1
  6
CONTINUOUS
 10
9.9425
 20
2.3893
  0
VERTEX
  8
LAYER10
 62
     1
  6
CONTINUOUS
 10
9.9447
 20
2.3932
  0
VERTEX
  8
LAYER10
 62
     1
  6
CONTINUOUS
 10
9.9470
 20
2.3971
  0
VERTEX
  8
LAYER10
 62
     1
  6
CONTINUOUS
 10
9.9493
 20
2.4008
  0
VERTEX
  8
LAYER10
 62
     1
  6
CONTINUOUS
 10
9.9516
 20
2.4046
  0
VERTEX
  8
LAYER10
 62
     1
  6
CONTINUOUS
 10
9.9540
 20
2.4083
  0
VERTEX
  8
LAYER10
 62
     1
  6
CONTINUOUS
 10
9.9565
 20
2.4119
  0
VERTEX
  8
LAYER10
 62
     1
  6
CONTINUOUS
 10
9.9590
 20
2.4156
  0
VERTEX
  8
LAYER10
 62
     1
  6
CONTINUOUS
 10
9.9616
 20
2.4194
  0
VERTEX
  8
LAYER10
 62
     1
  6
CONTINUOUS
 10
9.9642
 20
2.4232
  0
VERTEX
  8
LAYER10
 62
     1
  6
CONTINUOUS
 10
9.9669
 20
2.4270
  0
VERTEX
  8
LAYER10
 62
     1
  6
CONTINUOUS
 10
9.9697
 20
2.4310
  0
VERTEX
  8
LAYER10
 62
     1
  6
CONTINUOUS
 10
9.9725
 20
2.4351
  0
VERTEX
  8
LAYER10
 62
     1
  6
CONTINUOUS
 10
9.9753
 20
2.4393
  0
VERTEX
  8
LAYER10
 62
     1
  6
CONTINUOUS
 10
9.9782
 20
2.4436
  0
VERTEX
  8
LAYER10
 62
     1
  6
CONTINUOUS
 10
9.9811
 20
2.4479
  0
VERTEX
  8
LAYER10
 62
     1
  6
CONTINUOUS
 10
9.9842
 20
2.4523
  0
VERTEX
  8
LAYER10
 62
     1
  6
CONTINUOUS
 10
9.9873
 20
2.4565
  0
VERTEX
  8
LAYER10
 62
     1
  6
CONTINUOUS
 10
9.9904
 20
2.4605
  0
VERTEX
  8
LAYER10
 62
     1
  6
CONTINUOUS
 10
9.9937
 20
2.4642
  0
VERTEX
  8
LAYER10
 62
     1
  6
CONTINUOUS
 10
9.9971
 20
2.4675
  0
VERTEX
  8
LAYER10
 62
     1
  6
CONTINUOUS
 10
10.0007
 20
2.4703
  0
VERTEX
  8
LAYER10
 62
     1
  6
CONTINUOUS
 10
10.0043
 20
2.4726
  0
VERTEX
  8
LAYER10
 62
     1
  6
CONTINUOUS
 10
10.0081
 20
2.4742
  0
VERTEX
  8
LAYER10
 62
     1
  6
CONTINUOUS
 10
10.0121
 20
2.4751
  0
VERTEX
  8
LAYER10
 62
     1
  6
CONTINUOUS
 10
10.0162
 20
2.4751
  0
VERTEX
  8
LAYER10
 62
     1
  6
CONTINUOUS
 10
10.0182
 20
2.4748
  0
VERTEX
  8
LAYER10
 62
     1
  6
CONTINUOUS
 10
10.0203
 20
2.4743
  0
VERTEX
  8
LAYER10
 62
     1
  6
CONTINUOUS
 10
10.0224
 20
2.4737
  0
VERTEX
  8
LAYER10
 62
     1
  6
CONTINUOUS
 10
10.0245
 20
2.4731
  0
VERTEX
  8
LAYER10
 62
     1
  6
CONTINUOUS
 10
10.0267
 20
2.4723
  0
VERTEX
  8
LAYER10
 62
     1
  6
CONTINUOUS
 10
10.0288
 20
2.4716
  0
VERTEX
  8
LAYER10
 62
     1
  6
CONTINUOUS
 10
10.0310
 20
2.4710
  0
VERTEX
  8
LAYER10
 62
     1
  6
CONTINUOUS
 10
10.0332
 20
2.4704
  0
VERTEX
  8
LAYER10
 62
     1
  6
CONTINUOUS
 10
10.0353
 20
2.4700
  0
VERTEX
  8
LAYER10
 62
     1
  6
CONTINUOUS
 10
10.0375
 20
2.4698
  0
VERTEX
  8
LAYER10
 62
     1
  6
CONTINUOUS
 10
10.0396
 20
2.4698
  0
VERTEX
  8
LAYER10
 62
     1
  6
CONTINUOUS
 10
10.0418
 20
2.4700
  0
VERTEX
  8
LAYER10
 62
     1
  6
CONTINUOUS
 10
10.0418
 20
2.4700
  0
VERTEX
  8
LAYER10
 62
     1
  6
CONTINUOUS
 10
10.0419
 20
2.4701
  0
VERTEX
  8
LAYER10
 62
     1
  6
CONTINUOUS
 10
10.0420
 20
2.4701
  0
VERTEX
  8
LAYER10
 62
     1
  6
CONTINUOUS
 10
10.0421
 20
2.4701
  0
VERTEX
  8
LAYER10
 62
     1
  6
CONTINUOUS
 10
10.0422
 20
2.4701
  0
VERTEX
  8
LAYER10
 62
     1
  6
CONTINUOUS
 10
10.0423
 20
2.4701
  0
VERTEX
  8
LAYER10
 62
     1
  6
CONTINUOUS
 10
10.0423
 20
2.4702
  0
VERTEX
  8
LAYER10
 62
     1
  6
CONTINUOUS
 10
10.0424
 20
2.4702
  0
VERTEX
  8
LAYER10
 62
     1
  6
CONTINUOUS
 10
10.0425
 20
2.4702
  0
VERTEX
  8
LAYER10
 62
     1
  6
CONTINUOUS
 10
10.0426
 20
2.4702
  0
VERTEX
  8
LAYER10
 62
     1
  6
CONTINUOUS
 10
10.0427
 20
2.4702
  0
VERTEX
  8
LAYER10
 62
     1
  6
CONTINUOUS
 10
10.0428
 20
2.4703
  0
SEQEND
  8
LAYER10
  0
POLYLINE
  8
LAYER12
 62
     5
 66
     1
  6
CONTINUOUS
  0
VERTEX
  8
LAYER12
 62
     5
  6
CONTINUOUS
 10
9.0561
 20
2.5494
  0
VERTEX
  8
LAYER12
 62
     5
  6
CONTINUOUS
 10
9.0561
 20
2.5494
  0
SEQEND
  8
LAYER12
  0
POLYLINE
  8
LAYER12
 62
     5
 66
     1
  6
CONTINUOUS
  0
VERTEX
  8
LAYER12
 62
     5
  6
CONTINUOUS
 10
9.0561
 20
2.5494
  0
VERTEX
  8
LAYER12
 62
     5
  6
CONTINUOUS
 10
9.0561
 20
2.5511
  0
SEQEND
  8
LAYER12
  0
POLYLINE
  8
LAYER12
 62
     5
 66
     1
  6
CONTINUOUS
  0
VERTEX
  8
LAYER12
 62
     5
  6
CONTINUOUS
 10
9.0561
 20
2.5494
  0
VERTEX
  8
LAYER12
 62
     5
  6
CONTINUOUS
 10
9.0560
 20
2.5494
  0
SEQEND
  8
LAYER12
  0
POLYLINE
  8
LAYER12
 62
     5
 66
     1
  6
CONTINUOUS
  0
VERTEX
  8
LAYER12
 62
     5
  6
CONTINUOUS
 10
9.0560
 20
2.5494
  0
VERTEX
  8
LAYER12
 62
     5
  6
CONTINUOUS
 10
9.0561
 20
2.5494
  0
SEQEND
  8
LAYER12
  0
POLYLINE
  8
LAYER12
 62
     5
 66
     1
  6
CONTINUOUS
  0
VERTEX
  8
LAYER12
 62
     5
  6
CONTINUOUS
 10
9.0561
 20
2.5494
  0
VERTEX
  8
LAYER12
 62
     5
  6
CONTINUOUS
 10
9.0560
 20
2.5494
  0
SEQEND
  8
LAYER12
  0
POLYLINE
  8
LAYER12
 62
     5
 66
     1
  6
CONTINUOUS
  0
VERTEX
  8
LAYER12
 62
     5
  6
CONTINUOUS
 10
9.0560
 20
2.5494
  0
VERTEX
  8
LAYER12
 62
     5
  6
CONTINUOUS
 10
9.0561
 20
2.5494
  0
SEQEND
  8
LAYER12
  0
POLYLINE
  8
LAYER12
 62
     5
 66
     1
  6
CONTINUOUS
  0
VERTEX
  8
LAYER12
 62
     5
  6
CONTINUOUS
 10
9.0561
 20
2.5494
  0
VERTEX
  8
LAYER12
 62
     5
  6
CONTINUOUS
 10
9.0560
 20
2.5494
  0
SEQEND
  8
LAYER12
  0
POLYLINE
  8
LAYER12
 62
     5
 66
     1
  6
CONTINUOUS
  0
VERTEX
  8
LAYER12
 62
     5
  6
CONTINUOUS
 10
9.0561
 20
1.5665
  0
VERTEX
  8
LAYER12
 62
     5
  6
CONTINUOUS
 10
9.0561
 20
2.5484
  0
SEQEND
  8
LAYER12
  0
POLYLINE
  8
LAYER12
 62
     5
 66
     1
  6
CONTINUOUS
  0
VERTEX
  8
LAYER12
 62
     5
  6
CONTINUOUS
 10
9.0561
 20
2.5484
  0
VERTEX
  8
LAYER12
 62
     5
  6
CONTINUOUS
 10
9.0561
 20
2.5494
  0
SEQEND
  8
LAYER12
  0
POLYLINE
  8
LAYER12
 62
     5
 66
     1
  6
CONTINUOUS
  0
VERTEX
  8
LAYER12
 62
     5
  6
CONTINUOUS
 10
9.0560
 20
2.5494
  0
VERTEX
  8
LAYER12
 62
     5
  6
CONTINUOUS
 10
9.0561
 20
2.5494
  0
SEQEND
  8
LAYER12
  0
POLYLINE
  8
LAYER12
 62
     5
 66
     1
  6
CONTINUOUS
  0
VERTEX
  8
LAYER12
 62
     5
  6
CONTINUOUS
 10
9.0599
 20
1.5657
  0
VERTEX
  8
LAYER12
 62
     5
  6
CONTINUOUS
 10
9.0561
 20
1.5657
  0
SEQEND
  8
LAYER12
  0
POLYLINE
  8
LAYER12
 62
     5
 66
     1
  6
CONTINUOUS
  0
VERTEX
  8
LAYER12
 62
     5
  6
CONTINUOUS
 10
9.0560
 20
2.5494
  0
VERTEX
  8
LAYER12
 62
     5
  6
CONTINUOUS
 10
9.0599
 20
2.5494
  0
SEQEND
  8
LAYER12
  0
POLYLINE
  8
LAYER12
 62
     5
 66
     1
  6
CONTINUOUS
  0
VERTEX
  8
LAYER12
 62
     5
  6
CONTINUOUS
 10
9.0561
 20
1.5665
  0
VERTEX
  8
LAYER12
 62
     5
  6
CONTINUOUS
 10
9.0561
 20
1.5656
  0
SEQEND
  8
LAYER12
  0
POLYLINE
  8
LAYER12
 62
     5
 66
     1
  6
CONTINUOUS
  0
VERTEX
  8
LAYER12
 62
     5
  6
CONTINUOUS
 10
9.0561
 20
1.5656
  0
VERTEX
  8
LAYER12
 62
     5
  6
CONTINUOUS
 10
9.0561
 20
1.5657
  0
SEQEND
  8
LAYER12
  0
POLYLINE
  8
LAYER12
 62
     5
 66
     1
  6
CONTINUOUS
  0
VERTEX
  8
LAYER12
 62
     5
  6
CONTINUOUS
 10
9.0561
 20
1.5657
  0
VERTEX
  8
LAYER12
 62
     5
  6
CONTINUOUS
 10
9.0561
 20
1.5656
  0
SEQEND
  8
LAYER12
  0
POLYLINE
  8
LAYER12
 62
     5
 66
     1
  6
CONTINUOUS
  0
VERTEX
  8
LAYER12
 62
     5
  6
CONTINUOUS
 10
9.0561
 20
1.5656
  0
VERTEX
  8
LAYER12
 62
     5
  6
CONTINUOUS
 10
9.0561
 20
1.5665
  0
SEQEND
  8
LAYER12
  0
POLYLINE
  8
LAYER12
 62
     5
 66
     1
  6
CONTINUOUS
  0
VERTEX
  8
LAYER12
 62
     5
  6
CONTINUOUS
 10
9.0561
 20
1.5656
  0
VERTEX
  8
LAYER12
 62
     5
  6
CONTINUOUS
 10
9.0561
 20
1.5665
  0
SEQEND
  8
LAYER12
  0
POLYLINE
  8
LAYER12
 62
     5
 66
     1
  6
CONTINUOUS
  0
VERTEX
  8
LAYER12
 62
     5
  6
CONTINUOUS
 10
9.0561
 20
1.5657
  0
VERTEX
  8
LAYER12
 62
     5
  6
CONTINUOUS
 10
9.0521
 20
1.5657
  0
SEQEND
  8
LAYER12
  0
POLYLINE
  8
LAYER12
 62
     5
 66
     1
  6
CONTINUOUS
  0
VERTEX
  8
LAYER12
 62
     5
  6
CONTINUOUS
 10
9.0561
 20
2.5511
  0
VERTEX
  8
LAYER12
 62
     5
  6
CONTINUOUS
 10
9.0561
 20
2.5523
  0
SEQEND
  8
LAYER12
  0
POLYLINE
  8
LAYER12
 62
     5
 66
     1
  6
CONTINUOUS
  0
VERTEX
  8
LAYER12
 62
     5
  6
CONTINUOUS
 10
9.0561
 20
2.5523
  0
VERTEX
  8
LAYER12
 62
     5
  6
CONTINUOUS
 10
9.0561
 20
2.5523
  0
SEQEND
  8
LAYER12
  0
POLYLINE
  8
LAYER12
 62
     5
 66
     1
  6
CONTINUOUS
  0
VERTEX
  8
LAYER12
 62
     5
  6
CONTINUOUS
 10
9.0561
 20
2.5523
  0
VERTEX
  8
LAYER12
 62
     5
  6
CONTINUOUS
 10
9.0561
 20
2.5523
  0
SEQEND
  8
LAYER12
  0
POLYLINE
  8
LAYER12
 62
     5
 66
     1
  6
CONTINUOUS
  0
VERTEX
  8
LAYER12
 62
     5
  6
CONTINUOUS
 10
9.0521
 20
2.5494
  0
VERTEX
  8
LAYER12
 62
     5
  6
CONTINUOUS
 10
9.0560
 20
2.5494
  0
SEQEND
  8
LAYER12
  0
POLYLINE
  8
LAYER12
 62
     5
 66
     1
  6
CONTINUOUS
  0
VERTEX
  8
LAYER12
 62
     5
  6
CONTINUOUS
 10
10.0428
 20
1.5657
  0
VERTEX
  8
LAYER12
 62
     5
  6
CONTINUOUS
 10
9.0599
 20
1.5657
  0
SEQEND
  8
LAYER12
  0
POLYLINE
  8
LAYER12
 62
     5
 66
     1
  6
CONTINUOUS
  0
VERTEX
  8
LAYER12
 62
     5
  6
CONTINUOUS
 10
9.0599
 20
2.5494
  0
VERTEX
  8
LAYER12
 62
     5
  6
CONTINUOUS
 10
10.0428
 20
2.5494
  0
SEQEND
  8
LAYER12
  0
POLYLINE
  8
LAYER12
 62
     5
 66
     1
  6
CONTINUOUS
  0
VERTEX
  8
LAYER12
 62
     5
  6
CONTINUOUS
 10
10.0398
 20
2.5523
  0
VERTEX
  8
LAYER12
 62
     5
  6
CONTINUOUS
 10
10.0398
 20
2.5484
  0
SEQEND
  8
LAYER12
  0
POLYLINE
  8
LAYER12
 62
     5
 66
     1
  6
CONTINUOUS
  0
VERTEX
  8
LAYER12
 62
     5
  6
CONTINUOUS
 10
10.0398
 20
2.5484
  0
VERTEX
  8
LAYER12
 62
     5
  6
CONTINUOUS
 10
10.0398
 20
1.5656
  0
SEQEND
  8
LAYER12
  0
ENDSEC
  0
EOF
