  0
SECTION
  2
HEADER
  9
$ACADVER
  1
AC1004
  9
$EXTMIN
 10
10.0398
 20
1.5645
  9
$EXTMAX
 10
11.0248
 20
2.5496
  9
$LIMMIN
 10
10.0398
 20
1.5645
  9
$LIMMAX
 10
11.0248
 20
2.5496
  9
$INSBASE
 10
0.0
 20
0.0
  9
$VIEWCTR
 10
7.21903
 20
4.5
  9
$VIEWSIZE
 40
9.0
  9
$SNAPMODE
 70
     0
  9
$SNAPUNIT
 10
1.0
 20
1.0
  9
$SNAPBASE
 10
0.0
 20
0.0
  9
$SNAPANG
 50
0.0
  9
$SNAPSTYLE
 70
     0
  9
$SNAPISOPAIR
 70
     0
  9
$GRIDMODE
 70
     0
  9
$GRIDUNIT
 10
0.0
 20
0.0
  9
$ORTHOMODE
 70
     0
  9
$REGENMODE
 70
     1
  9
$FILLMODE
 70
     1
  9
$QTEXTMODE
 70
     0
  9
$DRAGMODE
 70
     2
  9
$LTSCALE
 40
1.0
  9
$OSMODE
 70
     0
  9
$ATTMODE
 70
     1
  9
$TEXTSIZE
 40
0.2
  9
$TRACEWID
 40
0.05
  9
$TEXTSTYLE
  7
STANDARD
  9
$CLAYER
  8
0
  9
$CELTYPE
  6
BYLAYER
  9
$CECOLOR
 62
   256
  9
$DIMSCALE
 40
1.0
  9
$DIMASZ
 40
0.18
  9
$DIMEXO
 40
0.0625
  9
$DIMDLI
 40
0.38
  9
$DIMRND
 40
0.0
  9
$DIMDLE
 40
0.0
  9
$DIMEXE
 40
0.18
  9
$DIMTP
 40
0.0
  9
$DIMTM
 40
0.0
  9
$DIMTXT
 40
0.18
  9
$DIMCEN
 40
0.09
  9
$DIMTSZ
 40
0.0
  9
$DIMTOL
 70
     0
  9
$DIMLIM
 70
     0
  9
$DIMTIH
 70
     1
  9
$DIMTOH
 70
     1
  9
$DIMSE1
 70
     0
  9
$DIMSE2
 70
     0
  9
$DIMTAD
 70
     0
  9
$DIMZIN
 70
     0
  9
$DIMBLK
  1

  9
$DIMASO
 70
     1
  9
$DIMSHO
 70
     0
  9
$DIMPOST
  1

  9
$DIMAPOST
  1

  9
$DIMALT
 70
     0
  9
$DIMALTD
 70
     2
  9
$DIMALTF
 40
25.4
  9
$DIMLFAC
 40
1.0
  9
$LUNITS
 70
     2
  9
$LUPREC
 70
     4
  9
$AXISMODE
 70
     0
  9
$AXISUNIT
 10
0.0
 20
0.0
  9
$SKETCHINC
 40
0.1
  9
$FILLETRAD
 40
0.0
  9
$AUNITS
 70
     0
  9
$AUPREC
 70
     0
  9
$MENU
  1
acad
  9
$ELEVATION
 40
0.0
  9
$THICKNESS
 40
0.0
  9
$VIEWDIR
 10
0.0
 20
0.0
 30
1.0
  9
$LIMCHECK
 70
     0
  9
$BLIPMODE
 70
     1
  9
$CHAMFERA
 40
0.0
  9
$CHAMFERB
 40
0.0
  9
$FASTZOOM
 70
     1
  9
$SKPOLY
 70
     0
  9
$TDCREATE
 40
2447222.5666886573
  9
$TDUPDATE
 40
2447222.5666886573
  9
$TDINDWG
 40
0.0000000000
  9
$TDUSRTIMER
 40
0.0000000000
  9
$USRTIMER
 70
     1
  9
$ANGBASE
 50
0.0
  9
$ANGDIR
 70
     0
  9
$PDMODE
 70
     0
  9
$PDSIZE
 40
0.0
  9
$PLINEWID
 40
0.0
  9
$COORDS
 70
     0
  9
$SPLFRAME
 70
     0
  9
$SPLINESEGS
 70
     8
  9
$ATTDIA
 70
     0
  9
$ATTREQ
 70
     1
  9
$USERI1
 70
     0
  9
$USERI2
 70
     0
  9
$USERI3
 70
     0
  9
$USERI4
 70
     0
  9
$USERI5
 70
     0
  9
$USERR1
 40
0.0
  9
$USERR2
 40
0.0
  9
$USERR3
 40
0.0
  9
$USERR4
 40
0.0
  9
$USERR5
 40
0.0
  0
ENDSEC
  0
SECTION
  2
TABLES
  0
TABLE
  2
LTYPE
 70
     13
  0
LTYPE
  2
CONTINUOUS
 70
    64
  3
Solid line
 72
    65
 73
     0
 40
0.0
  0
LTYPE
  2
DASHED
 70
    64
  3
__ __ __ __ __ __ __ __ __ __ __ __ __ __ __
 72
    65
 73
     2
 40
0.75
 49
0.5
 49
-0.25
  0
LTYPE
  2
HIDDEN
 70
    64
  3
_ _ _ _ _ _ _ _ _ _ _ _ _ _ _ _ _ _ _ _ _ _ _
 72
    65
 73
     2
 40
0.375
 49
0.25
 49
-0.125
  0
LTYPE
  2
CENTER
 70
    64
  3
____ _ ____ _ ____ _ ____ _ ____ _ ____ _ ____
 72
    65
 73
     4
 40
2.0
 49
1.25
 49
-0.25
 49
0.25
 49
-0.25
  0
LTYPE
  2
PHANTOM
 70
    64
  3
_____ _ _ _____ _ _ _____ _ _ _____ _ _ ____
 72
    65
 73
     6
 40
2.5
 49
1.25
 49
-0.25
 49
0.25
 49
-0.25
 49
0.25
 49
-0.25
  0
LTYPE
  2
DOT
 70
    64
  3
...............................................
 72
    65
 73
     2
 40
0.25
 49
0.0
 49
-0.25
  0
LTYPE
  2
DASHDOT
 70
    64
  3
__ . __ . __ . __ . __ . __ . __ . __ . __ . __
 72
    65
 73
     4
 40
1.0
 49
0.5
 49
-0.25
 49
0.0
 49
-0.25
  0
LTYPE
  2
BORDER
 70
    64
  3
__ __ . __ __ . __ __ . __ __ . __ __ . __ __
 72
    65
 73
     6
 40
1.75
 49
0.5
 49
-0.25
 49
0.5
 49
-0.25
 49
0.0
 49
-0.25
  0
LTYPE
  2
DIVIDE
 70
    64
  3
__ . . __ . . __ . . __ . . __ . . __ . . __
 72
    65
 73
     6
 40
1.25
 49
0.5
 49
-0.25
 49
0.0
 49
-0.25
 49
0.0
 49
-0.25
  0
LTYPE
  2
DCTYPE1
 70
    64
  3
__ . . __ . . __ . . __ . . __ . . __ . . __
 72
    65
 73
     8
 40
2.5
 49
0.5
 49
-0.25
 49
0.125
 49
-0.25
 49
0.25
 49
-0.25
 49
0.125
 49
-0.25
  0
LTYPE
  2
DCTYPE2
 70
    64
  3
__ . . __ . . __ . . __ . . __ . . __ . . __
 72
    65
 73
     6
 40
2.05
 49
1.0
 49
-0.3
 49
0.15
 49
-0.15
 49
0.15
 49
-0.3
  0
LTYPE
  2
DCTYPE3
 70
    64
  3
__ . . __ . . __ . . __ . . __ . . __ . . __
 72
    65
 73
     6
 40
2.5
 49
0.8
 49
-0.2
 49
0.8
 49
-0.2
 49
0.3
 49
-0.2
  0
LTYPE
  2
DCTYPE4
 70
    64
  3
__ . . __ . . __ . . __ . . __ . . __ . . __
 72
    65
 73
     10
 40
3.97
 49
1.75
 49
-0.3
 49
0.3
 49
-0.3
 49
0.06
 49
-0.3
 49
0.06
 49
-0.3
 49
0.3
 49
-0.3
  0
ENDTAB
  0
TABLE
  2
LAYER
 70
    153
  0
LAYER
  2
LAYER1
 70
 64
 62
     7
  6
CONTINUOUS
  0
LAYER
  2
LAYER10
 70
 64
 62
     1
  6
CONTINUOUS
  0
LAYER
  2
LAYER12
 70
 64
 62
     5
  6
CONTINUOUS
  0
ENDTAB
  0
ENDSEC
  0
SECTION
  2
BLOCKS
  0
ENDSEC
  0
SECTION
  2
ENTITIES
  0
CIRCLE
  8
LAYER1
 62
     7
  6
CONTINUOUS
 10
10.8299
 20
1.6120
 40
0.0114
  0
CIRCLE
  8
LAYER1
 62
     7
  6
CONTINUOUS
 10
10.7584
 20
1.6145
 40
0.0171
  0
CIRCLE
  8
LAYER1
 62
     7
  6
CONTINUOUS
 10
10.1523
 20
1.8337
 40
0.0181
  0
CIRCLE
  8
LAYER1
 62
     7
  6
CONTINUOUS
 10
10.3032
 20
1.7367
 40
0.0236
  0
CIRCLE
  8
LAYER1
 62
     7
  6
CONTINUOUS
 10
10.2542
 20
2.1840
 40
0.0155
  0
CIRCLE
  8
LAYER1
 62
     7
  6
CONTINUOUS
 10
10.7353
 20
1.6860
 40
0.0232
  0
CIRCLE
  8
LAYER1
 62
     7
  6
CONTINUOUS
 10
10.8043
 20
1.7117
 40
0.0186
  0
CIRCLE
  8
LAYER1
 62
     7
  6
CONTINUOUS
 10
10.6329
 20
1.8495
 40
0.0181
  0
CIRCLE
  8
LAYER1
 62
     7
  6
CONTINUOUS
 10
10.5588
 20
1.8188
 40
0.0252
  0
CIRCLE
  8
LAYER1
 62
     7
  6
CONTINUOUS
 10
10.4693
 20
1.8110
 40
0.0128
  0
CIRCLE
  8
LAYER1
 62
     7
  6
CONTINUOUS
 10
10.3898
 20
2.0333
 40
0.0186
  0
CIRCLE
  8
LAYER1
 62
     7
  6
CONTINUOUS
 10
10.4716
 20
2.0308
 40
0.0162
  0
CIRCLE
  8
LAYER1
 62
     7
  6
CONTINUOUS
 10
10.5049
 20
2.0360
 40
0.0206
  0
CIRCLE
  8
LAYER1
 62
     7
  6
CONTINUOUS
 10
10.5075
 20
1.9925
 40
0.0128
  0
CIRCLE
  8
LAYER1
 62
     7
  6
CONTINUOUS
 10
10.5714
 20
1.9721
 40
0.0231
  0
CIRCLE
  8
LAYER1
 62
     7
  6
CONTINUOUS
 10
10.5329
 20
2.1178
 40
0.0211
  0
CIRCLE
  8
LAYER1
 62
     7
  6
CONTINUOUS
 10
10.5661
 20
2.1792
 40
0.0218
  0
CIRCLE
  8
LAYER1
 62
     7
  6
CONTINUOUS
 10
10.6044
 20
2.2176
 40
0.0186
  0
CIRCLE
  8
LAYER1
 62
     7
  6
CONTINUOUS
 10
10.5557
 20
2.2789
 40
0.0149
  0
CIRCLE
  8
LAYER1
 62
     7
  6
CONTINUOUS
 10
10.6401
 20
2.2943
 40
0.0186
  0
CIRCLE
  8
LAYER1
 62
     7
  6
CONTINUOUS
 10
10.6784
 20
2.2892
 40
0.0130
  0
CIRCLE
  8
LAYER1
 62
     7
  6
CONTINUOUS
 10
10.6834
 20
2.3966
 40
0.0282
  0
CIRCLE
  8
LAYER1
 62
     7
  6
CONTINUOUS
 10
10.7370
 20
2.4835
 40
0.0186
  0
CIRCLE
  8
LAYER1
 62
     7
  6
CONTINUOUS
 10
10.4406
 20
2.4219
 40
0.0236
  0
ARC
  8
LAYER1
 62
     7
  6
CONTINUOUS
 10
10.0451
 20
1.6751
 40
0.0130
 50
-100.5113
 51
78.7629
  0
ARC
  8
LAYER1
 62
     7
  6
CONTINUOUS
 10
10.0451
 20
1.6751
 40
0.0130
 50
78.7628
 51
100.5114
  0
ARC
  8
LAYER1
 62
     7
  6
CONTINUOUS
 10
10.8398
 20
2.5516
 40
0.0091
 50
-167.2780
 51
-55.3470
  0
ARC
  8
LAYER1
 62
     7
  6
CONTINUOUS
 10
11.0267
 20
1.6148
 40
0.0130
 50
114.8374
 51
-114.8374
  0
ARC
  8
LAYER1
 62
     7
  6
CONTINUOUS
 10
11.0267
 20
1.6148
 40
0.0130
 50
-114.8374
 51
-101.2375
  0
ARC
  8
LAYER1
 62
     7
  6
CONTINUOUS
 10
10.9885
 20
1.5636
 40
0.0179
 50
14.5058
 51
165.4935
  0
ARC
  8
LAYER1
 62
     7
  6
CONTINUOUS
 10
10.0989
 20
1.5550
 40
0.0261
 50
30.0908
 51
149.9085
  0
ARC
  8
LAYER1
 62
     7
  6
CONTINUOUS
 10
10.0451
 20
1.6751
 40
0.0130
 50
-114.3506
 51
-100.5129
  0
ARC
  8
LAYER1
 62
     7
  6
CONTINUOUS
 10
11.0267
 20
1.6148
 40
0.0130
 50
-101.2372
 51
-98.4751
  0
ARC
  8
LAYER1
 62
     7
  6
CONTINUOUS
 10
11.0267
 20
1.6148
 40
0.0130
 50
98.4751
 51
114.8367
  0
ARC
  8
LAYER1
 62
     7
  6
CONTINUOUS
 10
10.9885
 20
1.5636
 40
0.0179
 50
2.9601
 51
14.5058
  0
ARC
  8
LAYER1
 62
     7
  6
CONTINUOUS
 10
10.9885
 20
1.5636
 40
0.0179
 50
165.4934
 51
177.0395
  0
ARC
  8
LAYER1
 62
     7
  6
CONTINUOUS
 10
10.0989
 20
1.5550
 40
0.0261
 50
21.4021
 51
30.0918
  0
ARC
  8
LAYER1
 62
     7
  6
CONTINUOUS
 10
10.0989
 20
1.5550
 40
0.0261
 50
149.9092
 51
158.5983
  0
ARC
  8
LAYER1
 62
     7
  6
CONTINUOUS
 10
10.0451
 20
1.6751
 40
0.0130
 50
100.5113
 51
114.3609
  0
ARC
  8
LAYER1
 62
     7
  6
CONTINUOUS
 10
10.8398
 20
2.5516
 40
0.0091
 50
-55.3453
 51
-12.7220
  0
ARC
  8
LAYER1
 62
     7
  6
CONTINUOUS
 10
10.8398
 20
2.5516
 40
0.0091
 50
-167.2780
 51
-12.7220
  0
ARC
  8
LAYER1
 62
     7
  6
CONTINUOUS
 10
10.9330
 20
2.5405
 40
0.0169
 50
147.5275
 51
32.4711
  0
POLYLINE
  8
LAYER10
 62
     1
 66
     1
  6
CONTINUOUS
  0
VERTEX
  8
LAYER10
 62
     1
  6
CONTINUOUS
 10
10.8089
 20
2.1487
  0
VERTEX
  8
LAYER10
 62
     1
  6
CONTINUOUS
 10
10.8127
 20
2.1495
  0
VERTEX
  8
LAYER10
 62
     1
  6
CONTINUOUS
 10
10.8165
 20
2.1500
  0
VERTEX
  8
LAYER10
 62
     1
  6
CONTINUOUS
 10
10.8204
 20
2.1503
  0
VERTEX
  8
LAYER10
 62
     1
  6
CONTINUOUS
 10
10.8242
 20
2.1503
  0
VERTEX
  8
LAYER10
 62
     1
  6
CONTINUOUS
 10
10.8281
 20
2.1501
  0
VERTEX
  8
LAYER10
 62
     1
  6
CONTINUOUS
 10
10.8320
 20
2.1498
  0
VERTEX
  8
LAYER10
 62
     1
  6
CONTINUOUS
 10
10.8359
 20
2.1492
  0
VERTEX
  8
LAYER10
 62
     1
  6
CONTINUOUS
 10
10.8398
 20
2.1484
  0
VERTEX
  8
LAYER10
 62
     1
  6
CONTINUOUS
 10
10.8436
 20
2.1475
  0
VERTEX
  8
LAYER10
 62
     1
  6
CONTINUOUS
 10
10.8475
 20
2.1464
  0
VERTEX
  8
LAYER10
 62
     1
  6
CONTINUOUS
 10
10.8512
 20
2.1451
  0
VERTEX
  8
LAYER10
 62
     1
  6
CONTINUOUS
 10
10.8549
 20
2.1437
  0
VERTEX
  8
LAYER10
 62
     1
  6
CONTINUOUS
 10
10.8590
 20
2.1419
  0
VERTEX
  8
LAYER10
 62
     1
  6
CONTINUOUS
 10
10.8629
 20
2.1400
  0
VERTEX
  8
LAYER10
 62
     1
  6
CONTINUOUS
 10
10.8667
 20
2.1380
  0
VERTEX
  8
LAYER10
 62
     1
  6
CONTINUOUS
 10
10.8705
 20
2.1357
  0
VERTEX
  8
LAYER10
 62
     1
  6
CONTINUOUS
 10
10.8741
 20
2.1334
  0
VERTEX
  8
LAYER10
 62
     1
  6
CONTINUOUS
 10
10.8776
 20
2.1308
  0
VERTEX
  8
LAYER10
 62
     1
  6
CONTINUOUS
 10
10.8810
 20
2.1282
  0
VERTEX
  8
LAYER10
 62
     1
  6
CONTINUOUS
 10
10.8842
 20
2.1254
  0
VERTEX
  8
LAYER10
 62
     1
  6
CONTINUOUS
 10
10.8874
 20
2.1225
  0
VERTEX
  8
LAYER10
 62
     1
  6
CONTINUOUS
 10
10.8903
 20
2.1194
  0
VERTEX
  8
LAYER10
 62
     1
  6
CONTINUOUS
 10
10.8932
 20
2.1163
  0
VERTEX
  8
LAYER10
 62
     1
  6
CONTINUOUS
 10
10.8959
 20
2.1131
  0
VERTEX
  8
LAYER10
 62
     1
  6
CONTINUOUS
 10
10.8987
 20
2.1093
  0
VERTEX
  8
LAYER10
 62
     1
  6
CONTINUOUS
 10
10.9013
 20
2.1055
  0
VERTEX
  8
LAYER10
 62
     1
  6
CONTINUOUS
 10
10.9038
 20
2.1015
  0
VERTEX
  8
LAYER10
 62
     1
  6
CONTINUOUS
 10
10.9061
 20
2.0974
  0
VERTEX
  8
LAYER10
 62
     1
  6
CONTINUOUS
 10
10.9083
 20
2.0933
  0
VERTEX
  8
LAYER10
 62
     1
  6
CONTINUOUS
 10
10.9104
 20
2.0890
  0
VERTEX
  8
LAYER10
 62
     1
  6
CONTINUOUS
 10
10.9124
 20
2.0847
  0
VERTEX
  8
LAYER10
 62
     1
  6
CONTINUOUS
 10
10.9143
 20
2.0803
  0
VERTEX
  8
LAYER10
 62
     1
  6
CONTINUOUS
 10
10.9161
 20
2.0758
  0
VERTEX
  8
LAYER10
 62
     1
  6
CONTINUOUS
 10
10.9179
 20
2.0712
  0
VERTEX
  8
LAYER10
 62
     1
  6
CONTINUOUS
 10
10.9197
 20
2.0666
  0
VERTEX
  8
LAYER10
 62
     1
  6
CONTINUOUS
 10
10.9215
 20
2.0620
  0
VERTEX
  8
LAYER10
 62
     1
  6
CONTINUOUS
 10
10.9233
 20
2.0573
  0
VERTEX
  8
LAYER10
 62
     1
  6
CONTINUOUS
 10
10.9250
 20
2.0525
  0
VERTEX
  8
LAYER10
 62
     1
  6
CONTINUOUS
 10
10.9267
 20
2.0478
  0
VERTEX
  8
LAYER10
 62
     1
  6
CONTINUOUS
 10
10.9282
 20
2.0430
  0
VERTEX
  8
LAYER10
 62
     1
  6
CONTINUOUS
 10
10.9296
 20
2.0382
  0
VERTEX
  8
LAYER10
 62
     1
  6
CONTINUOUS
 10
10.9308
 20
2.0335
  0
VERTEX
  8
LAYER10
 62
     1
  6
CONTINUOUS
 10
10.9318
 20
2.0287
  0
VERTEX
  8
LAYER10
 62
     1
  6
CONTINUOUS
 10
10.9325
 20
2.0240
  0
VERTEX
  8
LAYER10
 62
     1
  6
CONTINUOUS
 10
10.9329
 20
2.0193
  0
VERTEX
  8
LAYER10
 62
     1
  6
CONTINUOUS
 10
10.9329
 20
2.0147
  0
VERTEX
  8
LAYER10
 62
     1
  6
CONTINUOUS
 10
10.9326
 20
2.0102
  0
VERTEX
  8
LAYER10
 62
     1
  6
CONTINUOUS
 10
10.9318
 20
2.0057
  0
VERTEX
  8
LAYER10
 62
     1
  6
CONTINUOUS
 10
10.9309
 20
2.0026
  0
VERTEX
  8
LAYER10
 62
     1
  6
CONTINUOUS
 10
10.9298
 20
1.9995
  0
VERTEX
  8
LAYER10
 62
     1
  6
CONTINUOUS
 10
10.9285
 20
1.9964
  0
VERTEX
  8
LAYER10
 62
     1
  6
CONTINUOUS
 10
10.9270
 20
1.9933
  0
VERTEX
  8
LAYER10
 62
     1
  6
CONTINUOUS
 10
10.9254
 20
1.9903
  0
VERTEX
  8
LAYER10
 62
     1
  6
CONTINUOUS
 10
10.9236
 20
1.9873
  0
VERTEX
  8
LAYER10
 62
     1
  6
CONTINUOUS
 10
10.9217
 20
1.9844
  0
VERTEX
  8
LAYER10
 62
     1
  6
CONTINUOUS
 10
10.9197
 20
1.9815
  0
VERTEX
  8
LAYER10
 62
     1
  6
CONTINUOUS
 10
10.9177
 20
1.9786
  0
VERTEX
  8
LAYER10
 62
     1
  6
CONTINUOUS
 10
10.9156
 20
1.9757
  0
VERTEX
  8
LAYER10
 62
     1
  6
CONTINUOUS
 10
10.9135
 20
1.9728
  0
VERTEX
  8
LAYER10
 62
     1
  6
CONTINUOUS
 10
10.9114
 20
1.9699
  0
VERTEX
  8
LAYER10
 62
     1
  6
CONTINUOUS
 10
10.9077
 20
1.9649
  0
VERTEX
  8
LAYER10
 62
     1
  6
CONTINUOUS
 10
10.9040
 20
1.9599
  0
VERTEX
  8
LAYER10
 62
     1
  6
CONTINUOUS
 10
10.9004
 20
1.9550
  0
VERTEX
  8
LAYER10
 62
     1
  6
CONTINUOUS
 10
10.8968
 20
1.9501
  0
VERTEX
  8
LAYER10
 62
     1
  6
CONTINUOUS
 10
10.8932
 20
1.9452
  0
VERTEX
  8
LAYER10
 62
     1
  6
CONTINUOUS
 10
10.8895
 20
1.9405
  0
VERTEX
  8
LAYER10
 62
     1
  6
CONTINUOUS
 10
10.8858
 20
1.9358
  0
VERTEX
  8
LAYER10
 62
     1
  6
CONTINUOUS
 10
10.8820
 20
1.9312
  0
VERTEX
  8
LAYER10
 62
     1
  6
CONTINUOUS
 10
10.8780
 20
1.9266
  0
VERTEX
  8
LAYER10
 62
     1
  6
CONTINUOUS
 10
10.8740
 20
1.9222
  0
VERTEX
  8
LAYER10
 62
     1
  6
CONTINUOUS
 10
10.8698
 20
1.9179
  0
VERTEX
  8
LAYER10
 62
     1
  6
CONTINUOUS
 10
10.8654
 20
1.9137
  0
VERTEX
  8
LAYER10
 62
     1
  6
CONTINUOUS
 10
10.8624
 20
1.9109
  0
VERTEX
  8
LAYER10
 62
     1
  6
CONTINUOUS
 10
10.8593
 20
1.9083
  0
VERTEX
  8
LAYER10
 62
     1
  6
CONTINUOUS
 10
10.8561
 20
1.9057
  0
VERTEX
  8
LAYER10
 62
     1
  6
CONTINUOUS
 10
10.8529
 20
1.9032
  0
VERTEX
  8
LAYER10
 62
     1
  6
CONTINUOUS
 10
10.8496
 20
1.9008
  0
VERTEX
  8
LAYER10
 62
     1
  6
CONTINUOUS
 10
10.8462
 20
1.8985
  0
VERTEX
  8
LAYER10
 62
     1
  6
CONTINUOUS
 10
10.8427
 20
1.8964
  0
VERTEX
  8
LAYER10
 62
     1
  6
CONTINUOUS
 10
10.8392
 20
1.8944
  0
VERTEX
  8
LAYER10
 62
     1
  6
CONTINUOUS
 10
10.8356
 20
1.8925
  0
VERTEX
  8
LAYER10
 62
     1
  6
CONTINUOUS
 10
10.8320
 20
1.8908
  0
VERTEX
  8
LAYER10
 62
     1
  6
CONTINUOUS
 10
10.8283
 20
1.8893
  0
VERTEX
  8
LAYER10
 62
     1
  6
CONTINUOUS
 10
10.8245
 20
1.8880
  0
VERTEX
  8
LAYER10
 62
     1
  6
CONTINUOUS
 10
10.8221
 20
1.8873
  0
VERTEX
  8
LAYER10
 62
     1
  6
CONTINUOUS
 10
10.8196
 20
1.8867
  0
VERTEX
  8
LAYER10
 62
     1
  6
CONTINUOUS
 10
10.8171
 20
1.8861
  0
VERTEX
  8
LAYER10
 62
     1
  6
CONTINUOUS
 10
10.8146
 20
1.8856
  0
VERTEX
  8
LAYER10
 62
     1
  6
CONTINUOUS
 10
10.8121
 20
1.8851
  0
VERTEX
  8
LAYER10
 62
     1
  6
CONTINUOUS
 10
10.8096
 20
1.8847
  0
VERTEX
  8
LAYER10
 62
     1
  6
CONTINUOUS
 10
10.8070
 20
1.8843
  0
VERTEX
  8
LAYER10
 62
     1
  6
CONTINUOUS
 10
10.8044
 20
1.8840
  0
VERTEX
  8
LAYER10
 62
     1
  6
CONTINUOUS
 10
10.8018
 20
1.8837
  0
VERTEX
  8
LAYER10
 62
     1
  6
CONTINUOUS
 10
10.7992
 20
1.8834
  0
VERTEX
  8
LAYER10
 62
     1
  6
CONTINUOUS
 10
10.7965
 20
1.8832
  0
VERTEX
  8
LAYER10
 62
     1
  6
CONTINUOUS
 10
10.7939
 20
1.8829
  0
VERTEX
  8
LAYER10
 62
     1
  6
CONTINUOUS
 10
10.7889
 20
1.8825
  0
VERTEX
  8
LAYER10
 62
     1
  6
CONTINUOUS
 10
10.7840
 20
1.8820
  0
VERTEX
  8
LAYER10
 62
     1
  6
CONTINUOUS
 10
10.7790
 20
1.8817
  0
VERTEX
  8
LAYER10
 62
     1
  6
CONTINUOUS
 10
10.7740
 20
1.8815
  0
VERTEX
  8
LAYER10
 62
     1
  6
CONTINUOUS
 10
10.7691
 20
1.8814
  0
VERTEX
  8
LAYER10
 62
     1
  6
CONTINUOUS
 10
10.7642
 20
1.8815
  0
VERTEX
  8
LAYER10
 62
     1
  6
CONTINUOUS
 10
10.7594
 20
1.8819
  0
VERTEX
  8
LAYER10
 62
     1
  6
CONTINUOUS
 10
10.7547
 20
1.8824
  0
VERTEX
  8
LAYER10
 62
     1
  6
CONTINUOUS
 10
10.7501
 20
1.8833
  0
VERTEX
  8
LAYER10
 62
     1
  6
CONTINUOUS
 10
10.7458
 20
1.8845
  0
VERTEX
  8
LAYER10
 62
     1
  6
CONTINUOUS
 10
10.7416
 20
1.8860
  0
VERTEX
  8
LAYER10
 62
     1
  6
CONTINUOUS
 10
10.7376
 20
1.8880
  0
VERTEX
  8
LAYER10
 62
     1
  6
CONTINUOUS
 10
10.7338
 20
1.8904
  0
VERTEX
  8
LAYER10
 62
     1
  6
CONTINUOUS
 10
10.7302
 20
1.8932
  0
VERTEX
  8
LAYER10
 62
     1
  6
CONTINUOUS
 10
10.7268
 20
1.8964
  0
VERTEX
  8
LAYER10
 62
     1
  6
CONTINUOUS
 10
10.7236
 20
1.9000
  0
VERTEX
  8
LAYER10
 62
     1
  6
CONTINUOUS
 10
10.7206
 20
1.9038
  0
VERTEX
  8
LAYER10
 62
     1
  6
CONTINUOUS
 10
10.7177
 20
1.9078
  0
VERTEX
  8
LAYER10
 62
     1
  6
CONTINUOUS
 10
10.7150
 20
1.9120
  0
VERTEX
  8
LAYER10
 62
     1
  6
CONTINUOUS
 10
10.7123
 20
1.9163
  0
VERTEX
  8
LAYER10
 62
     1
  6
CONTINUOUS
 10
10.7096
 20
1.9207
  0
VERTEX
  8
LAYER10
 62
     1
  6
CONTINUOUS
 10
10.7070
 20
1.9251
  0
VERTEX
  8
LAYER10
 62
     1
  6
CONTINUOUS
 10
10.7044
 20
1.9296
  0
VERTEX
  8
LAYER10
 62
     1
  6
CONTINUOUS
 10
10.7018
 20
1.9339
  0
VERTEX
  8
LAYER10
 62
     1
  6
CONTINUOUS
 10
10.6999
 20
1.9370
  0
VERTEX
  8
LAYER10
 62
     1
  6
CONTINUOUS
 10
10.6980
 20
1.9400
  0
VERTEX
  8
LAYER10
 62
     1
  6
CONTINUOUS
 10
10.6961
 20
1.9429
  0
VERTEX
  8
LAYER10
 62
     1
  6
CONTINUOUS
 10
10.6943
 20
1.9459
  0
VERTEX
  8
LAYER10
 62
     1
  6
CONTINUOUS
 10
10.6924
 20
1.9488
  0
VERTEX
  8
LAYER10
 62
     1
  6
CONTINUOUS
 10
10.6906
 20
1.9517
  0
VERTEX
  8
LAYER10
 62
     1
  6
CONTINUOUS
 10
10.6889
 20
1.9546
  0
VERTEX
  8
LAYER10
 62
     1
  6
CONTINUOUS
 10
10.6872
 20
1.9576
  0
VERTEX
  8
LAYER10
 62
     1
  6
CONTINUOUS
 10
10.6855
 20
1.9605
  0
VERTEX
  8
LAYER10
 62
     1
  6
CONTINUOUS
 10
10.6840
 20
1.9635
  0
VERTEX
  8
LAYER10
 62
     1
  6
CONTINUOUS
 10
10.6826
 20
1.9666
  0
VERTEX
  8
LAYER10
 62
     1
  6
CONTINUOUS
 10
10.6813
 20
1.9697
  0
VERTEX
  8
LAYER10
 62
     1
  6
CONTINUOUS
 10
10.6797
 20
1.9740
  0
VERTEX
  8
LAYER10
 62
     1
  6
CONTINUOUS
 10
10.6784
 20
1.9785
  0
VERTEX
  8
LAYER10
 62
     1
  6
CONTINUOUS
 10
10.6773
 20
1.9831
  0
VERTEX
  8
LAYER10
 62
     1
  6
CONTINUOUS
 10
10.6763
 20
1.9877
  0
VERTEX
  8
LAYER10
 62
     1
  6
CONTINUOUS
 10
10.6757
 20
1.9924
  0
VERTEX
  8
LAYER10
 62
     1
  6
CONTINUOUS
 10
10.6752
 20
1.9972
  0
VERTEX
  8
LAYER10
 62
     1
  6
CONTINUOUS
 10
10.6749
 20
2.0019
  0
VERTEX
  8
LAYER10
 62
     1
  6
CONTINUOUS
 10
10.6748
 20
2.0068
  0
VERTEX
  8
LAYER10
 62
     1
  6
CONTINUOUS
 10
10.6749
 20
2.0116
  0
VERTEX
  8
LAYER10
 62
     1
  6
CONTINUOUS
 10
10.6751
 20
2.0164
  0
VERTEX
  8
LAYER10
 62
     1
  6
CONTINUOUS
 10
10.6755
 20
2.0212
  0
VERTEX
  8
LAYER10
 62
     1
  6
CONTINUOUS
 10
10.6761
 20
2.0259
  0
VERTEX
  8
LAYER10
 62
     1
  6
CONTINUOUS
 10
10.6766
 20
2.0290
  0
VERTEX
  8
LAYER10
 62
     1
  6
CONTINUOUS
 10
10.6771
 20
2.0321
  0
VERTEX
  8
LAYER10
 62
     1
  6
CONTINUOUS
 10
10.6777
 20
2.0352
  0
VERTEX
  8
LAYER10
 62
     1
  6
CONTINUOUS
 10
10.6784
 20
2.0382
  0
VERTEX
  8
LAYER10
 62
     1
  6
CONTINUOUS
 10
10.6792
 20
2.0412
  0
VERTEX
  8
LAYER10
 62
     1
  6
CONTINUOUS
 10
10.6800
 20
2.0442
  0
VERTEX
  8
LAYER10
 62
     1
  6
CONTINUOUS
 10
10.6808
 20
2.0472
  0
VERTEX
  8
LAYER10
 62
     1
  6
CONTINUOUS
 10
10.6818
 20
2.0502
  0
VERTEX
  8
LAYER10
 62
     1
  6
CONTINUOUS
 10
10.6828
 20
2.0531
  0
VERTEX
  8
LAYER10
 62
     1
  6
CONTINUOUS
 10
10.6839
 20
2.0560
  0
VERTEX
  8
LAYER10
 62
     1
  6
CONTINUOUS
 10
10.6851
 20
2.0589
  0
VERTEX
  8
LAYER10
 62
     1
  6
CONTINUOUS
 10
10.6863
 20
2.0617
  0
VERTEX
  8
LAYER10
 62
     1
  6
CONTINUOUS
 10
10.6884
 20
2.0661
  0
VERTEX
  8
LAYER10
 62
     1
  6
CONTINUOUS
 10
10.6907
 20
2.0705
  0
VERTEX
  8
LAYER10
 62
     1
  6
CONTINUOUS
 10
10.6931
 20
2.0747
  0
VERTEX
  8
LAYER10
 62
     1
  6
CONTINUOUS
 10
10.6957
 20
2.0789
  0
VERTEX
  8
LAYER10
 62
     1
  6
CONTINUOUS
 10
10.6985
 20
2.0830
  0
VERTEX
  8
LAYER10
 62
     1
  6
CONTINUOUS
 10
10.7014
 20
2.0869
  0
VERTEX
  8
LAYER10
 62
     1
  6
CONTINUOUS
 10
10.7045
 20
2.0908
  0
VERTEX
  8
LAYER10
 62
     1
  6
CONTINUOUS
 10
10.7077
 20
2.0945
  0
VERTEX
  8
LAYER10
 62
     1
  6
CONTINUOUS
 10
10.7111
 20
2.0980
  0
VERTEX
  8
LAYER10
 62
     1
  6
CONTINUOUS
 10
10.7146
 20
2.1014
  0
VERTEX
  8
LAYER10
 62
     1
  6
CONTINUOUS
 10
10.7183
 20
2.1047
  0
VERTEX
  8
LAYER10
 62
     1
  6
CONTINUOUS
 10
10.7221
 20
2.1078
  0
VERTEX
  8
LAYER10
 62
     1
  6
CONTINUOUS
 10
10.7248
 20
2.1098
  0
VERTEX
  8
LAYER10
 62
     1
  6
CONTINUOUS
 10
10.7276
 20
2.1118
  0
VERTEX
  8
LAYER10
 62
     1
  6
CONTINUOUS
 10
10.7305
 20
2.1137
  0
VERTEX
  8
LAYER10
 62
     1
  6
CONTINUOUS
 10
10.7334
 20
2.1155
  0
VERTEX
  8
LAYER10
 62
     1
  6
CONTINUOUS
 10
10.7364
 20
2.1173
  0
VERTEX
  8
LAYER10
 62
     1
  6
CONTINUOUS
 10
10.7393
 20
2.1190
  0
VERTEX
  8
LAYER10
 62
     1
  6
CONTINUOUS
 10
10.7424
 20
2.1207
  0
VERTEX
  8
LAYER10
 62
     1
  6
CONTINUOUS
 10
10.7454
 20
2.1222
  0
VERTEX
  8
LAYER10
 62
     1
  6
CONTINUOUS
 10
10.7485
 20
2.1238
  0
VERTEX
  8
LAYER10
 62
     1
  6
CONTINUOUS
 10
10.7516
 20
2.1253
  0
VERTEX
  8
LAYER10
 62
     1
  6
CONTINUOUS
 10
10.7547
 20
2.1268
  0
VERTEX
  8
LAYER10
 62
     1
  6
CONTINUOUS
 10
10.7578
 20
2.1283
  0
VERTEX
  8
LAYER10
 62
     1
  6
CONTINUOUS
 10
10.7608
 20
2.1296
  0
VERTEX
  8
LAYER10
 62
     1
  6
CONTINUOUS
 10
10.7637
 20
2.1309
  0
VERTEX
  8
LAYER10
 62
     1
  6
CONTINUOUS
 10
10.7667
 20
2.1323
  0
VERTEX
  8
LAYER10
 62
     1
  6
CONTINUOUS
 10
10.7696
 20
2.1336
  0
VERTEX
  8
LAYER10
 62
     1
  6
CONTINUOUS
 10
10.7726
 20
2.1349
  0
VERTEX
  8
LAYER10
 62
     1
  6
CONTINUOUS
 10
10.7756
 20
2.1362
  0
VERTEX
  8
LAYER10
 62
     1
  6
CONTINUOUS
 10
10.7785
 20
2.1374
  0
VERTEX
  8
LAYER10
 62
     1
  6
CONTINUOUS
 10
10.7815
 20
2.1387
  0
VERTEX
  8
LAYER10
 62
     1
  6
CONTINUOUS
 10
10.7845
 20
2.1399
  0
VERTEX
  8
LAYER10
 62
     1
  6
CONTINUOUS
 10
10.7875
 20
2.1412
  0
VERTEX
  8
LAYER10
 62
     1
  6
CONTINUOUS
 10
10.7906
 20
2.1424
  0
VERTEX
  8
LAYER10
 62
     1
  6
CONTINUOUS
 10
10.7936
 20
2.1436
  0
VERTEX
  8
LAYER10
 62
     1
  6
CONTINUOUS
 10
10.7949
 20
2.1441
  0
VERTEX
  8
LAYER10
 62
     1
  6
CONTINUOUS
 10
10.7961
 20
2.1446
  0
VERTEX
  8
LAYER10
 62
     1
  6
CONTINUOUS
 10
10.7974
 20
2.1451
  0
VERTEX
  8
LAYER10
 62
     1
  6
CONTINUOUS
 10
10.7987
 20
2.1456
  0
VERTEX
  8
LAYER10
 62
     1
  6
CONTINUOUS
 10
10.7999
 20
2.1461
  0
VERTEX
  8
LAYER10
 62
     1
  6
CONTINUOUS
 10
10.8012
 20
2.1465
  0
VERTEX
  8
LAYER10
 62
     1
  6
CONTINUOUS
 10
10.8025
 20
2.1470
  0
VERTEX
  8
LAYER10
 62
     1
  6
CONTINUOUS
 10
10.8038
 20
2.1474
  0
VERTEX
  8
LAYER10
 62
     1
  6
CONTINUOUS
 10
10.8050
 20
2.1478
  0
VERTEX
  8
LAYER10
 62
     1
  6
CONTINUOUS
 10
10.8063
 20
2.1481
  0
VERTEX
  8
LAYER10
 62
     1
  6
CONTINUOUS
 10
10.8076
 20
2.1485
  0
VERTEX
  8
LAYER10
 62
     1
  6
CONTINUOUS
 10
10.8089
 20
2.1487
  0
SEQEND
  8
LAYER10
  0
POLYLINE
  8
LAYER10
 62
     1
 66
     1
  6
CONTINUOUS
  0
VERTEX
  8
LAYER10
 62
     1
  6
CONTINUOUS
 10
10.0622
 20
2.4752
  0
VERTEX
  8
LAYER10
 62
     1
  6
CONTINUOUS
 10
10.0657
 20
2.4761
  0
VERTEX
  8
LAYER10
 62
     1
  6
CONTINUOUS
 10
10.0692
 20
2.4770
  0
VERTEX
  8
LAYER10
 62
     1
  6
CONTINUOUS
 10
10.0727
 20
2.4778
  0
VERTEX
  8
LAYER10
 62
     1
  6
CONTINUOUS
 10
10.0762
 20
2.4786
  0
VERTEX
  8
LAYER10
 62
     1
  6
CONTINUOUS
 10
10.0797
 20
2.4794
  0
VERTEX
  8
LAYER10
 62
     1
  6
CONTINUOUS
 10
10.0831
 20
2.4800
  0
VERTEX
  8
LAYER10
 62
     1
  6
CONTINUOUS
 10
10.0865
 20
2.4805
  0
VERTEX
  8
LAYER10
 62
     1
  6
CONTINUOUS
 10
10.0899
 20
2.4808
  0
VERTEX
  8
LAYER10
 62
     1
  6
CONTINUOUS
 10
10.0933
 20
2.4810
  0
VERTEX
  8
LAYER10
 62
     1
  6
CONTINUOUS
 10
10.0966
 20
2.4810
  0
VERTEX
  8
LAYER10
 62
     1
  6
CONTINUOUS
 10
10.0999
 20
2.4808
  0
VERTEX
  8
LAYER10
 62
     1
  6
CONTINUOUS
 10
10.1031
 20
2.4803
  0
VERTEX
  8
LAYER10
 62
     1
  6
CONTINUOUS
 10
10.1072
 20
2.4794
  0
VERTEX
  8
LAYER10
 62
     1
  6
CONTINUOUS
 10
10.1111
 20
2.4781
  0
VERTEX
  8
LAYER10
 62
     1
  6
CONTINUOUS
 10
10.1151
 20
2.4765
  0
VERTEX
  8
LAYER10
 62
     1
  6
CONTINUOUS
 10
10.1189
 20
2.4747
  0
VERTEX
  8
LAYER10
 62
     1
  6
CONTINUOUS
 10
10.1227
 20
2.4726
  0
VERTEX
  8
LAYER10
 62
     1
  6
CONTINUOUS
 10
10.1265
 20
2.4703
  0
VERTEX
  8
LAYER10
 62
     1
  6
CONTINUOUS
 10
10.1303
 20
2.4678
  0
VERTEX
  8
LAYER10
 62
     1
  6
CONTINUOUS
 10
10.1341
 20
2.4653
  0
VERTEX
  8
LAYER10
 62
     1
  6
CONTINUOUS
 10
10.1378
 20
2.4627
  0
VERTEX
  8
LAYER10
 62
     1
  6
CONTINUOUS
 10
10.1416
 20
2.4600
  0
VERTEX
  8
LAYER10
 62
     1
  6
CONTINUOUS
 10
10.1453
 20
2.4574
  0
VERTEX
  8
LAYER10
 62
     1
  6
CONTINUOUS
 10
10.1491
 20
2.4548
  0
VERTEX
  8
LAYER10
 62
     1
  6
CONTINUOUS
 10
10.1523
 20
2.4527
  0
VERTEX
  8
LAYER10
 62
     1
  6
CONTINUOUS
 10
10.1555
 20
2.4507
  0
VERTEX
  8
LAYER10
 62
     1
  6
CONTINUOUS
 10
10.1587
 20
2.4487
  0
VERTEX
  8
LAYER10
 62
     1
  6
CONTINUOUS
 10
10.1619
 20
2.4467
  0
VERTEX
  8
LAYER10
 62
     1
  6
CONTINUOUS
 10
10.1651
 20
2.4447
  0
VERTEX
  8
LAYER10
 62
     1
  6
CONTINUOUS
 10
10.1682
 20
2.4427
  0
VERTEX
  8
LAYER10
 62
     1
  6
CONTINUOUS
 10
10.1712
 20
2.4407
  0
VERTEX
  8
LAYER10
 62
     1
  6
CONTINUOUS
 10
10.1742
 20
2.4386
  0
VERTEX
  8
LAYER10
 62
     1
  6
CONTINUOUS
 10
10.1771
 20
2.4364
  0
VERTEX
  8
LAYER10
 62
     1
  6
CONTINUOUS
 10
10.1798
 20
2.4342
  0
VERTEX
  8
LAYER10
 62
     1
  6
CONTINUOUS
 10
10.1824
 20
2.4318
  0
VERTEX
  8
LAYER10
 62
     1
  6
CONTINUOUS
 10
10.1849
 20
2.4293
  0
VERTEX
  8
LAYER10
 62
     1
  6
CONTINUOUS
 10
10.1877
 20
2.4261
  0
VERTEX
  8
LAYER10
 62
     1
  6
CONTINUOUS
 10
10.1904
 20
2.4227
  0
VERTEX
  8
LAYER10
 62
     1
  6
CONTINUOUS
 10
10.1928
 20
2.4192
  0
VERTEX
  8
LAYER10
 62
     1
  6
CONTINUOUS
 10
10.1951
 20
2.4155
  0
VERTEX
  8
LAYER10
 62
     1
  6
CONTINUOUS
 10
10.1972
 20
2.4117
  0
VERTEX
  8
LAYER10
 62
     1
  6
CONTINUOUS
 10
10.1993
 20
2.4078
  0
VERTEX
  8
LAYER10
 62
     1
  6
CONTINUOUS
 10
10.2012
 20
2.4038
  0
VERTEX
  8
LAYER10
 62
     1
  6
CONTINUOUS
 10
10.2031
 20
2.3997
  0
VERTEX
  8
LAYER10
 62
     1
  6
CONTINUOUS
 10
10.2050
 20
2.3956
  0
VERTEX
  8
LAYER10
 62
     1
  6
CONTINUOUS
 10
10.2068
 20
2.3915
  0
VERTEX
  8
LAYER10
 62
     1
  6
CONTINUOUS
 10
10.2087
 20
2.3874
  0
VERTEX
  8
LAYER10
 62
     1
  6
CONTINUOUS
 10
10.2106
 20
2.3833
  0
VERTEX
  8
LAYER10
 62
     1
  6
CONTINUOUS
 10
10.2124
 20
2.3794
  0
VERTEX
  8
LAYER10
 62
     1
  6
CONTINUOUS
 10
10.2142
 20
2.3756
  0
VERTEX
  8
LAYER10
 62
     1
  6
CONTINUOUS
 10
10.2161
 20
2.3718
  0
VERTEX
  8
LAYER10
 62
     1
  6
CONTINUOUS
 10
10.2180
 20
2.3680
  0
VERTEX
  8
LAYER10
 62
     1
  6
CONTINUOUS
 10
10.2199
 20
2.3642
  0
VERTEX
  8
LAYER10
 62
     1
  6
CONTINUOUS
 10
10.2217
 20
2.3605
  0
VERTEX
  8
LAYER10
 62
     1
  6
CONTINUOUS
 10
10.2235
 20
2.3567
  0
VERTEX
  8
LAYER10
 62
     1
  6
CONTINUOUS
 10
10.2252
 20
2.3529
  0
VERTEX
  8
LAYER10
 62
     1
  6
CONTINUOUS
 10
10.2268
 20
2.3490
  0
VERTEX
  8
LAYER10
 62
     1
  6
CONTINUOUS
 10
10.2283
 20
2.3452
  0
VERTEX
  8
LAYER10
 62
     1
  6
CONTINUOUS
 10
10.2298
 20
2.3413
  0
VERTEX
  8
LAYER10
 62
     1
  6
CONTINUOUS
 10
10.2311
 20
2.3373
  0
VERTEX
  8
LAYER10
 62
     1
  6
CONTINUOUS
 10
10.2320
 20
2.3340
  0
VERTEX
  8
LAYER10
 62
     1
  6
CONTINUOUS
 10
10.2329
 20
2.3307
  0
VERTEX
  8
LAYER10
 62
     1
  6
CONTINUOUS
 10
10.2336
 20
2.3273
  0
VERTEX
  8
LAYER10
 62
     1
  6
CONTINUOUS
 10
10.2343
 20
2.3240
  0
VERTEX
  8
LAYER10
 62
     1
  6
CONTINUOUS
 10
10.2349
 20
2.3205
  0
VERTEX
  8
LAYER10
 62
     1
  6
CONTINUOUS
 10
10.2354
 20
2.3171
  0
VERTEX
  8
LAYER10
 62
     1
  6
CONTINUOUS
 10
10.2358
 20
2.3137
  0
VERTEX
  8
LAYER10
 62
     1
  6
CONTINUOUS
 10
10.2360
 20
2.3102
  0
VERTEX
  8
LAYER10
 62
     1
  6
CONTINUOUS
 10
10.2362
 20
2.3068
  0
VERTEX
  8
LAYER10
 62
     1
  6
CONTINUOUS
 10
10.2363
 20
2.3033
  0
VERTEX
  8
LAYER10
 62
     1
  6
CONTINUOUS
 10
10.2363
 20
2.2999
  0
VERTEX
  8
LAYER10
 62
     1
  6
CONTINUOUS
 10
10.2362
 20
2.2964
  0
VERTEX
  8
LAYER10
 62
     1
  6
CONTINUOUS
 10
10.2359
 20
2.2912
  0
VERTEX
  8
LAYER10
 62
     1
  6
CONTINUOUS
 10
10.2353
 20
2.2861
  0
VERTEX
  8
LAYER10
 62
     1
  6
CONTINUOUS
 10
10.2346
 20
2.2809
  0
VERTEX
  8
LAYER10
 62
     1
  6
CONTINUOUS
 10
10.2338
 20
2.2758
  0
VERTEX
  8
LAYER10
 62
     1
  6
CONTINUOUS
 10
10.2328
 20
2.2707
  0
VERTEX
  8
LAYER10
 62
     1
  6
CONTINUOUS
 10
10.2318
 20
2.2656
  0
VERTEX
  8
LAYER10
 62
     1
  6
CONTINUOUS
 10
10.2308
 20
2.2605
  0
VERTEX
  8
LAYER10
 62
     1
  6
CONTINUOUS
 10
10.2297
 20
2.2555
  0
VERTEX
  8
LAYER10
 62
     1
  6
CONTINUOUS
 10
10.2287
 20
2.2504
  0
VERTEX
  8
LAYER10
 62
     1
  6
CONTINUOUS
 10
10.2277
 20
2.2453
  0
VERTEX
  8
LAYER10
 62
     1
  6
CONTINUOUS
 10
10.2268
 20
2.2402
  0
VERTEX
  8
LAYER10
 62
     1
  6
CONTINUOUS
 10
10.2260
 20
2.2351
  0
VERTEX
  8
LAYER10
 62
     1
  6
CONTINUOUS
 10
10.2256
 20
2.2317
  0
VERTEX
  8
LAYER10
 62
     1
  6
CONTINUOUS
 10
10.2252
 20
2.2283
  0
VERTEX
  8
LAYER10
 62
     1
  6
CONTINUOUS
 10
10.2249
 20
2.2249
  0
VERTEX
  8
LAYER10
 62
     1
  6
CONTINUOUS
 10
10.2245
 20
2.2214
  0
VERTEX
  8
LAYER10
 62
     1
  6
CONTINUOUS
 10
10.2242
 20
2.2180
  0
VERTEX
  8
LAYER10
 62
     1
  6
CONTINUOUS
 10
10.2239
 20
2.2146
  0
VERTEX
  8
LAYER10
 62
     1
  6
CONTINUOUS
 10
10.2235
 20
2.2112
  0
VERTEX
  8
LAYER10
 62
     1
  6
CONTINUOUS
 10
10.2231
 20
2.2078
  0
VERTEX
  8
LAYER10
 62
     1
  6
CONTINUOUS
 10
10.2227
 20
2.2044
  0
VERTEX
  8
LAYER10
 62
     1
  6
CONTINUOUS
 10
10.2222
 20
2.2010
  0
VERTEX
  8
LAYER10
 62
     1
  6
CONTINUOUS
 10
10.2216
 20
2.1976
  0
VERTEX
  8
LAYER10
 62
     1
  6
CONTINUOUS
 10
10.2210
 20
2.1942
  0
VERTEX
  8
LAYER10
 62
     1
  6
CONTINUOUS
 10
10.2203
 20
2.1910
  0
VERTEX
  8
LAYER10
 62
     1
  6
CONTINUOUS
 10
10.2194
 20
2.1878
  0
VERTEX
  8
LAYER10
 62
     1
  6
CONTINUOUS
 10
10.2185
 20
2.1846
  0
VERTEX
  8
LAYER10
 62
     1
  6
CONTINUOUS
 10
10.2175
 20
2.1815
  0
VERTEX
  8
LAYER10
 62
     1
  6
CONTINUOUS
 10
10.2164
 20
2.1784
  0
VERTEX
  8
LAYER10
 62
     1
  6
CONTINUOUS
 10
10.2152
 20
2.1753
  0
VERTEX
  8
LAYER10
 62
     1
  6
CONTINUOUS
 10
10.2139
 20
2.1723
  0
VERTEX
  8
LAYER10
 62
     1
  6
CONTINUOUS
 10
10.2125
 20
2.1694
  0
VERTEX
  8
LAYER10
 62
     1
  6
CONTINUOUS
 10
10.2109
 20
2.1665
  0
VERTEX
  8
LAYER10
 62
     1
  6
CONTINUOUS
 10
10.2093
 20
2.1637
  0
VERTEX
  8
LAYER10
 62
     1
  6
CONTINUOUS
 10
10.2075
 20
2.1610
  0
VERTEX
  8
LAYER10
 62
     1
  6
CONTINUOUS
 10
10.2057
 20
2.1584
  0
VERTEX
  8
LAYER10
 62
     1
  6
CONTINUOUS
 10
10.2033
 20
2.1553
  0
VERTEX
  8
LAYER10
 62
     1
  6
CONTINUOUS
 10
10.2007
 20
2.1524
  0
VERTEX
  8
LAYER10
 62
     1
  6
CONTINUOUS
 10
10.1980
 20
2.1496
  0
VERTEX
  8
LAYER10
 62
     1
  6
CONTINUOUS
 10
10.1952
 20
2.1469
  0
VERTEX
  8
LAYER10
 62
     1
  6
CONTINUOUS
 10
10.1922
 20
2.1443
  0
VERTEX
  8
LAYER10
 62
     1
  6
CONTINUOUS
 10
10.1892
 20
2.1418
  0
VERTEX
  8
LAYER10
 62
     1
  6
CONTINUOUS
 10
10.1861
 20
2.1394
  0
VERTEX
  8
LAYER10
 62
     1
  6
CONTINUOUS
 10
10.1829
 20
2.1370
  0
VERTEX
  8
LAYER10
 62
     1
  6
CONTINUOUS
 10
10.1797
 20
2.1346
  0
VERTEX
  8
LAYER10
 62
     1
  6
CONTINUOUS
 10
10.1765
 20
2.1323
  0
VERTEX
  8
LAYER10
 62
     1
  6
CONTINUOUS
 10
10.1732
 20
2.1300
  0
VERTEX
  8
LAYER10
 62
     1
  6
CONTINUOUS
 10
10.1699
 20
2.1276
  0
VERTEX
  8
LAYER10
 62
     1
  6
CONTINUOUS
 10
10.1679
 20
2.1262
  0
VERTEX
  8
LAYER10
 62
     1
  6
CONTINUOUS
 10
10.1658
 20
2.1247
  0
VERTEX
  8
LAYER10
 62
     1
  6
CONTINUOUS
 10
10.1637
 20
2.1233
  0
VERTEX
  8
LAYER10
 62
     1
  6
CONTINUOUS
 10
10.1616
 20
2.1218
  0
VERTEX
  8
LAYER10
 62
     1
  6
CONTINUOUS
 10
10.1596
 20
2.1204
  0
VERTEX
  8
LAYER10
 62
     1
  6
CONTINUOUS
 10
10.1575
 20
2.1191
  0
VERTEX
  8
LAYER10
 62
     1
  6
CONTINUOUS
 10
10.1553
 20
2.1178
  0
VERTEX
  8
LAYER10
 62
     1
  6
CONTINUOUS
 10
10.1532
 20
2.1165
  0
VERTEX
  8
LAYER10
 62
     1
  6
CONTINUOUS
 10
10.1511
 20
2.1153
  0
VERTEX
  8
LAYER10
 62
     1
  6
CONTINUOUS
 10
10.1489
 20
2.1142
  0
VERTEX
  8
LAYER10
 62
     1
  6
CONTINUOUS
 10
10.1466
 20
2.1132
  0
VERTEX
  8
LAYER10
 62
     1
  6
CONTINUOUS
 10
10.1444
 20
2.1123
  0
VERTEX
  8
LAYER10
 62
     1
  6
CONTINUOUS
 10
10.1416
 20
2.1113
  0
VERTEX
  8
LAYER10
 62
     1
  6
CONTINUOUS
 10
10.1387
 20
2.1105
  0
VERTEX
  8
LAYER10
 62
     1
  6
CONTINUOUS
 10
10.1358
 20
2.1097
  0
VERTEX
  8
LAYER10
 62
     1
  6
CONTINUOUS
 10
10.1329
 20
2.1091
  0
VERTEX
  8
LAYER10
 62
     1
  6
CONTINUOUS
 10
10.1299
 20
2.1087
  0
VERTEX
  8
LAYER10
 62
     1
  6
CONTINUOUS
 10
10.1269
 20
2.1083
  0
VERTEX
  8
LAYER10
 62
     1
  6
CONTINUOUS
 10
10.1239
 20
2.1079
  0
VERTEX
  8
LAYER10
 62
     1
  6
CONTINUOUS
 10
10.1209
 20
2.1077
  0
VERTEX
  8
LAYER10
 62
     1
  6
CONTINUOUS
 10
10.1178
 20
2.1075
  0
VERTEX
  8
LAYER10
 62
     1
  6
CONTINUOUS
 10
10.1147
 20
2.1074
  0
VERTEX
  8
LAYER10
 62
     1
  6
CONTINUOUS
 10
10.1117
 20
2.1072
  0
VERTEX
  8
LAYER10
 62
     1
  6
CONTINUOUS
 10
10.1086
 20
2.1071
  0
VERTEX
  8
LAYER10
 62
     1
  6
CONTINUOUS
 10
10.1034
 20
2.1070
  0
VERTEX
  8
LAYER10
 62
     1
  6
CONTINUOUS
 10
10.0983
 20
2.1069
  0
VERTEX
  8
LAYER10
 62
     1
  6
CONTINUOUS
 10
10.0931
 20
2.1067
  0
VERTEX
  8
LAYER10
 62
     1
  6
CONTINUOUS
 10
10.0880
 20
2.1067
  0
VERTEX
  8
LAYER10
 62
     1
  6
CONTINUOUS
 10
10.0829
 20
2.1066
  0
VERTEX
  8
LAYER10
 62
     1
  6
CONTINUOUS
 10
10.0778
 20
2.1066
  0
VERTEX
  8
LAYER10
 62
     1
  6
CONTINUOUS
 10
10.0727
 20
2.1066
  0
VERTEX
  8
LAYER10
 62
     1
  6
CONTINUOUS
 10
10.0676
 20
2.1066
  0
VERTEX
  8
LAYER10
 62
     1
  6
CONTINUOUS
 10
10.0625
 20
2.1067
  0
VERTEX
  8
LAYER10
 62
     1
  6
CONTINUOUS
 10
10.0574
 20
2.1068
  0
VERTEX
  8
LAYER10
 62
     1
  6
CONTINUOUS
 10
10.0524
 20
2.1069
  0
VERTEX
  8
LAYER10
 62
     1
  6
CONTINUOUS
 10
10.0473
 20
2.1071
  0
VERTEX
  8
LAYER10
 62
     1
  6
CONTINUOUS
 10
10.0469
 20
2.1071
  0
VERTEX
  8
LAYER10
 62
     1
  6
CONTINUOUS
 10
10.0465
 20
2.1071
  0
VERTEX
  8
LAYER10
 62
     1
  6
CONTINUOUS
 10
10.0461
 20
2.1071
  0
VERTEX
  8
LAYER10
 62
     1
  6
CONTINUOUS
 10
10.0458
 20
2.1071
  0
VERTEX
  8
LAYER10
 62
     1
  6
CONTINUOUS
 10
10.0454
 20
2.1071
  0
VERTEX
  8
LAYER10
 62
     1
  6
CONTINUOUS
 10
10.0450
 20
2.1072
  0
VERTEX
  8
LAYER10
 62
     1
  6
CONTINUOUS
 10
10.0446
 20
2.1072
  0
VERTEX
  8
LAYER10
 62
     1
  6
CONTINUOUS
 10
10.0443
 20
2.1072
  0
VERTEX
  8
LAYER10
 62
     1
  6
CONTINUOUS
 10
10.0439
 20
2.1072
  0
VERTEX
  8
LAYER10
 62
     1
  6
CONTINUOUS
 10
10.0435
 20
2.1072
  0
VERTEX
  8
LAYER10
 62
     1
  6
CONTINUOUS
 10
10.0431
 20
2.1072
  0
VERTEX
  8
LAYER10
 62
     1
  6
CONTINUOUS
 10
10.0428
 20
2.1072
  0
SEQEND
  8
LAYER10
  0
POLYLINE
  8
LAYER10
 62
     1
 66
     1
  6
CONTINUOUS
  0
VERTEX
  8
LAYER10
 62
     1
  6
CONTINUOUS
 10
10.0428
 20
2.4703
  0
VERTEX
  8
LAYER10
 62
     1
  6
CONTINUOUS
 10
10.0450
 20
2.4708
  0
VERTEX
  8
LAYER10
 62
     1
  6
CONTINUOUS
 10
10.0473
 20
2.4714
  0
VERTEX
  8
LAYER10
 62
     1
  6
CONTINUOUS
 10
10.0495
 20
2.4720
  0
VERTEX
  8
LAYER10
 62
     1
  6
CONTINUOUS
 10
10.0516
 20
2.4725
  0
VERTEX
  8
LAYER10
 62
     1
  6
CONTINUOUS
 10
10.0536
 20
2.4730
  0
VERTEX
  8
LAYER10
 62
     1
  6
CONTINUOUS
 10
10.0555
 20
2.4735
  0
VERTEX
  8
LAYER10
 62
     1
  6
CONTINUOUS
 10
10.0572
 20
2.4739
  0
VERTEX
  8
LAYER10
 62
     1
  6
CONTINUOUS
 10
10.0587
 20
2.4743
  0
VERTEX
  8
LAYER10
 62
     1
  6
CONTINUOUS
 10
10.0600
 20
2.4746
  0
VERTEX
  8
LAYER10
 62
     1
  6
CONTINUOUS
 10
10.0610
 20
2.4749
  0
VERTEX
  8
LAYER10
 62
     1
  6
CONTINUOUS
 10
10.0618
 20
2.4750
  0
VERTEX
  8
LAYER10
 62
     1
  6
CONTINUOUS
 10
10.0622
 20
2.4752
  0
VERTEX
  8
LAYER10
 62
     1
  6
CONTINUOUS
 10
10.0623
 20
2.4752
  0
VERTEX
  8
LAYER10
 62
     1
  6
CONTINUOUS
 10
10.0623
 20
2.4752
  0
VERTEX
  8
LAYER10
 62
     1
  6
CONTINUOUS
 10
10.0623
 20
2.4752
  0
VERTEX
  8
LAYER10
 62
     1
  6
CONTINUOUS
 10
10.0624
 20
2.4752
  0
VERTEX
  8
LAYER10
 62
     1
  6
CONTINUOUS
 10
10.0624
 20
2.4752
  0
VERTEX
  8
LAYER10
 62
     1
  6
CONTINUOUS
 10
10.0624
 20
2.4752
  0
VERTEX
  8
LAYER10
 62
     1
  6
CONTINUOUS
 10
10.0623
 20
2.4752
  0
VERTEX
  8
LAYER10
 62
     1
  6
CONTINUOUS
 10
10.0623
 20
2.4752
  0
VERTEX
  8
LAYER10
 62
     1
  6
CONTINUOUS
 10
10.0623
 20
2.4752
  0
VERTEX
  8
LAYER10
 62
     1
  6
CONTINUOUS
 10
10.0623
 20
2.4752
  0
VERTEX
  8
LAYER10
 62
     1
  6
CONTINUOUS
 10
10.0622
 20
2.4752
  0
VERTEX
  8
LAYER10
 62
     1
  6
CONTINUOUS
 10
10.0622
 20
2.4752
  0
SEQEND
  8
LAYER10
  0
POLYLINE
  8
LAYER10
 62
     1
 66
     1
  6
CONTINUOUS
  0
VERTEX
  8
LAYER10
 62
     1
  6
CONTINUOUS
 10
10.0428
 20
2.1072
  0
VERTEX
  8
LAYER10
 62
     1
  6
CONTINUOUS
 10
10.0425
 20
2.1073
  0
VERTEX
  8
LAYER10
 62
     1
  6
CONTINUOUS
 10
10.0422
 20
2.1073
  0
VERTEX
  8
LAYER10
 62
     1
  6
CONTINUOUS
 10
10.0419
 20
2.1073
  0
VERTEX
  8
LAYER10
 62
     1
  6
CONTINUOUS
 10
10.0416
 20
2.1073
  0
VERTEX
  8
LAYER10
 62
     1
  6
CONTINUOUS
 10
10.0413
 20
2.1073
  0
VERTEX
  8
LAYER10
 62
     1
  6
CONTINUOUS
 10
10.0410
 20
2.1074
  0
VERTEX
  8
LAYER10
 62
     1
  6
CONTINUOUS
 10
10.0408
 20
2.1074
  0
VERTEX
  8
LAYER10
 62
     1
  6
CONTINUOUS
 10
10.0405
 20
2.1074
  0
VERTEX
  8
LAYER10
 62
     1
  6
CONTINUOUS
 10
10.0403
 20
2.1074
  0
VERTEX
  8
LAYER10
 62
     1
  6
CONTINUOUS
 10
10.0401
 20
2.1074
  0
VERTEX
  8
LAYER10
 62
     1
  6
CONTINUOUS
 10
10.0399
 20
2.1074
  0
VERTEX
  8
LAYER10
 62
     1
  6
CONTINUOUS
 10
10.0398
 20
2.1074
  0
VERTEX
  8
LAYER10
 62
     1
  6
CONTINUOUS
 10
10.0396
 20
2.1075
  0
VERTEX
  8
LAYER10
 62
     1
  6
CONTINUOUS
 10
10.0394
 20
2.1075
  0
VERTEX
  8
LAYER10
 62
     1
  6
CONTINUOUS
 10
10.0393
 20
2.1075
  0
VERTEX
  8
LAYER10
 62
     1
  6
CONTINUOUS
 10
10.0393
 20
2.1075
  0
VERTEX
  8
LAYER10
 62
     1
  6
CONTINUOUS
 10
10.0392
 20
2.1075
  0
VERTEX
  8
LAYER10
 62
     1
  6
CONTINUOUS
 10
10.0393
 20
2.1075
  0
VERTEX
  8
LAYER10
 62
     1
  6
CONTINUOUS
 10
10.0393
 20
2.1075
  0
VERTEX
  8
LAYER10
 62
     1
  6
CONTINUOUS
 10
10.0394
 20
2.1075
  0
VERTEX
  8
LAYER10
 62
     1
  6
CONTINUOUS
 10
10.0395
 20
2.1075
  0
VERTEX
  8
LAYER10
 62
     1
  6
CONTINUOUS
 10
10.0395
 20
2.1075
  0
VERTEX
  8
LAYER10
 62
     1
  6
CONTINUOUS
 10
10.0397
 20
2.1075
  0
VERTEX
  8
LAYER10
 62
     1
  6
CONTINUOUS
 10
10.0398
 20
2.1074
  0
SEQEND
  8
LAYER10
  0
POLYLINE
  8
LAYER10
 62
     1
 66
     1
  6
CONTINUOUS
  0
VERTEX
  8
LAYER10
 62
     1
  6
CONTINUOUS
 10
10.0398
 20
2.1074
  0
VERTEX
  8
LAYER10
 62
     1
  6
CONTINUOUS
 10
10.0398
 20
2.1074
  0
VERTEX
  8
LAYER10
 62
     1
  6
CONTINUOUS
 10
10.0398
 20
2.1074
  0
VERTEX
  8
LAYER10
 62
     1
  6
CONTINUOUS
 10
10.0398
 20
2.1074
  0
VERTEX
  8
LAYER10
 62
     1
  6
CONTINUOUS
 10
10.0398
 20
2.1074
  0
VERTEX
  8
LAYER10
 62
     1
  6
CONTINUOUS
 10
10.0398
 20
2.1074
  0
VERTEX
  8
LAYER10
 62
     1
  6
CONTINUOUS
 10
10.0398
 20
2.1074
  0
VERTEX
  8
LAYER10
 62
     1
  6
CONTINUOUS
 10
10.0398
 20
2.1074
  0
VERTEX
  8
LAYER10
 62
     1
  6
CONTINUOUS
 10
10.0398
 20
2.1074
  0
VERTEX
  8
LAYER10
 62
     1
  6
CONTINUOUS
 10
10.0398
 20
2.1074
  0
VERTEX
  8
LAYER10
 62
     1
  6
CONTINUOUS
 10
10.0398
 20
2.1074
  0
VERTEX
  8
LAYER10
 62
     1
  6
CONTINUOUS
 10
10.0398
 20
2.1074
  0
VERTEX
  8
LAYER10
 62
     1
  6
CONTINUOUS
 10
10.0398
 20
2.1074
  0
VERTEX
  8
LAYER10
 62
     1
  6
CONTINUOUS
 10
10.0398
 20
2.1074
  0
VERTEX
  8
LAYER10
 62
     1
  6
CONTINUOUS
 10
10.0398
 20
2.1074
  0
VERTEX
  8
LAYER10
 62
     1
  6
CONTINUOUS
 10
10.0398
 20
2.1074
  0
VERTEX
  8
LAYER10
 62
     1
  6
CONTINUOUS
 10
10.0398
 20
2.1074
  0
VERTEX
  8
LAYER10
 62
     1
  6
CONTINUOUS
 10
10.0398
 20
2.1074
  0
VERTEX
  8
LAYER10
 62
     1
  6
CONTINUOUS
 10
10.0398
 20
2.1074
  0
VERTEX
  8
LAYER10
 62
     1
  6
CONTINUOUS
 10
10.0398
 20
2.1074
  0
VERTEX
  8
LAYER10
 62
     1
  6
CONTINUOUS
 10
10.0398
 20
2.1074
  0
VERTEX
  8
LAYER10
 62
     1
  6
CONTINUOUS
 10
10.0398
 20
2.1074
  0
VERTEX
  8
LAYER10
 62
     1
  6
CONTINUOUS
 10
10.0398
 20
2.1074
  0
VERTEX
  8
LAYER10
 62
     1
  6
CONTINUOUS
 10
10.0398
 20
2.1074
  0
VERTEX
  8
LAYER10
 62
     1
  6
CONTINUOUS
 10
10.0398
 20
2.1074
  0
SEQEND
  8
LAYER10
  0
POLYLINE
  8
LAYER10
 62
     1
 66
     1
  6
CONTINUOUS
  0
VERTEX
  8
LAYER10
 62
     1
  6
CONTINUOUS
 10
10.0398
 20
2.4702
  0
VERTEX
  8
LAYER10
 62
     1
  6
CONTINUOUS
 10
10.0398
 20
2.4702
  0
VERTEX
  8
LAYER10
 62
     1
  6
CONTINUOUS
 10
10.0398
 20
2.4702
  0
VERTEX
  8
LAYER10
 62
     1
  6
CONTINUOUS
 10
10.0398
 20
2.4702
  0
VERTEX
  8
LAYER10
 62
     1
  6
CONTINUOUS
 10
10.0398
 20
2.4702
  0
VERTEX
  8
LAYER10
 62
     1
  6
CONTINUOUS
 10
10.0398
 20
2.4702
  0
VERTEX
  8
LAYER10
 62
     1
  6
CONTINUOUS
 10
10.0398
 20
2.4702
  0
VERTEX
  8
LAYER10
 62
     1
  6
CONTINUOUS
 10
10.0398
 20
2.4702
  0
VERTEX
  8
LAYER10
 62
     1
  6
CONTINUOUS
 10
10.0398
 20
2.4702
  0
VERTEX
  8
LAYER10
 62
     1
  6
CONTINUOUS
 10
10.0398
 20
2.4702
  0
VERTEX
  8
LAYER10
 62
     1
  6
CONTINUOUS
 10
10.0398
 20
2.4702
  0
VERTEX
  8
LAYER10
 62
     1
  6
CONTINUOUS
 10
10.0398
 20
2.4702
  0
VERTEX
  8
LAYER10
 62
     1
  6
CONTINUOUS
 10
10.0398
 20
2.4702
  0
VERTEX
  8
LAYER10
 62
     1
  6
CONTINUOUS
 10
10.0398
 20
2.4702
  0
VERTEX
  8
LAYER10
 62
     1
  6
CONTINUOUS
 10
10.0398
 20
2.4702
  0
VERTEX
  8
LAYER10
 62
     1
  6
CONTINUOUS
 10
10.0398
 20
2.4702
  0
VERTEX
  8
LAYER10
 62
     1
  6
CONTINUOUS
 10
10.0398
 20
2.4702
  0
VERTEX
  8
LAYER10
 62
     1
  6
CONTINUOUS
 10
10.0398
 20
2.4702
  0
VERTEX
  8
LAYER10
 62
     1
  6
CONTINUOUS
 10
10.0398
 20
2.4702
  0
VERTEX
  8
LAYER10
 62
     1
  6
CONTINUOUS
 10
10.0398
 20
2.4702
  0
VERTEX
  8
LAYER10
 62
     1
  6
CONTINUOUS
 10
10.0398
 20
2.4702
  0
VERTEX
  8
LAYER10
 62
     1
  6
CONTINUOUS
 10
10.0398
 20
2.4702
  0
VERTEX
  8
LAYER10
 62
     1
  6
CONTINUOUS
 10
10.0398
 20
2.4702
  0
VERTEX
  8
LAYER10
 62
     1
  6
CONTINUOUS
 10
10.0398
 20
2.4702
  0
VERTEX
  8
LAYER10
 62
     1
  6
CONTINUOUS
 10
10.0398
 20
2.4702
  0
SEQEND
  8
LAYER10
  0
POLYLINE
  8
LAYER10
 62
     1
 66
     1
  6
CONTINUOUS
  0
VERTEX
  8
LAYER10
 62
     1
  6
CONTINUOUS
 10
10.0398
 20
2.4702
  0
VERTEX
  8
LAYER10
 62
     1
  6
CONTINUOUS
 10
10.0399
 20
2.4702
  0
VERTEX
  8
LAYER10
 62
     1
  6
CONTINUOUS
 10
10.0401
 20
2.4702
  0
VERTEX
  8
LAYER10
 62
     1
  6
CONTINUOUS
 10
10.0403
 20
2.4701
  0
VERTEX
  8
LAYER10
 62
     1
  6
CONTINUOUS
 10
10.0404
 20
2.4701
  0
VERTEX
  8
LAYER10
 62
     1
  6
CONTINUOUS
 10
10.0406
 20
2.4701
  0
VERTEX
  8
LAYER10
 62
     1
  6
CONTINUOUS
 10
10.0408
 20
2.4701
  0
VERTEX
  8
LAYER10
 62
     1
  6
CONTINUOUS
 10
10.0409
 20
2.4700
  0
VERTEX
  8
LAYER10
 62
     1
  6
CONTINUOUS
 10
10.0411
 20
2.4700
  0
VERTEX
  8
LAYER10
 62
     1
  6
CONTINUOUS
 10
10.0413
 20
2.4700
  0
VERTEX
  8
LAYER10
 62
     1
  6
CONTINUOUS
 10
10.0414
 20
2.4700
  0
VERTEX
  8
LAYER10
 62
     1
  6
CONTINUOUS
 10
10.0416
 20
2.4700
  0
VERTEX
  8
LAYER10
 62
     1
  6
CONTINUOUS
 10
10.0418
 20
2.4700
  0
VERTEX
  8
LAYER10
 62
     1
  6
CONTINUOUS
 10
10.0418
 20
2.4700
  0
VERTEX
  8
LAYER10
 62
     1
  6
CONTINUOUS
 10
10.0419
 20
2.4701
  0
VERTEX
  8
LAYER10
 62
     1
  6
CONTINUOUS
 10
10.0420
 20
2.4701
  0
VERTEX
  8
LAYER10
 62
     1
  6
CONTINUOUS
 10
10.0421
 20
2.4701
  0
VERTEX
  8
LAYER10
 62
     1
  6
CONTINUOUS
 10
10.0422
 20
2.4701
  0
VERTEX
  8
LAYER10
 62
     1
  6
CONTINUOUS
 10
10.0423
 20
2.4701
  0
VERTEX
  8
LAYER10
 62
     1
  6
CONTINUOUS
 10
10.0423
 20
2.4701
  0
VERTEX
  8
LAYER10
 62
     1
  6
CONTINUOUS
 10
10.0424
 20
2.4702
  0
VERTEX
  8
LAYER10
 62
     1
  6
CONTINUOUS
 10
10.0425
 20
2.4702
  0
VERTEX
  8
LAYER10
 62
     1
  6
CONTINUOUS
 10
10.0426
 20
2.4702
  0
VERTEX
  8
LAYER10
 62
     1
  6
CONTINUOUS
 10
10.0427
 20
2.4702
  0
VERTEX
  8
LAYER10
 62
     1
  6
CONTINUOUS
 10
10.0428
 20
2.4703
  0
SEQEND
  8
LAYER10
  0
POLYLINE
  8
LAYER12
 62
     5
 66
     1
  6
CONTINUOUS
  0
VERTEX
  8
LAYER12
 62
     5
  6
CONTINUOUS
 10
10.0428
 20
2.5494
  0
VERTEX
  8
LAYER12
 62
     5
  6
CONTINUOUS
 10
11.0213
 20
2.5494
  0
SEQEND
  8
LAYER12
  0
POLYLINE
  8
LAYER12
 62
     5
 66
     1
  6
CONTINUOUS
  0
VERTEX
  8
LAYER12
 62
     5
  6
CONTINUOUS
 10
11.0213
 20
2.5494
  0
VERTEX
  8
LAYER12
 62
     5
  6
CONTINUOUS
 10
11.0213
 20
2.5494
  0
SEQEND
  8
LAYER12
  0
POLYLINE
  8
LAYER12
 62
     5
 66
     1
  6
CONTINUOUS
  0
VERTEX
  8
LAYER12
 62
     5
  6
CONTINUOUS
 10
11.0248
 20
1.5657
  0
VERTEX
  8
LAYER12
 62
     5
  6
CONTINUOUS
 10
10.0428
 20
1.5657
  0
SEQEND
  8
LAYER12
  0
POLYLINE
  8
LAYER12
 62
     5
 66
     1
  6
CONTINUOUS
  0
VERTEX
  8
LAYER12
 62
     5
  6
CONTINUOUS
 10
10.0398
 20
1.5656
  0
VERTEX
  8
LAYER12
 62
     5
  6
CONTINUOUS
 10
10.0398
 20
1.5645
  0
SEQEND
  8
LAYER12
  0
POLYLINE
  8
LAYER12
 62
     5
 66
     1
  6
CONTINUOUS
  0
VERTEX
  8
LAYER12
 62
     5
  6
CONTINUOUS
 10
10.0428
 20
1.5657
  0
VERTEX
  8
LAYER12
 62
     5
  6
CONTINUOUS
 10
10.0398
 20
1.5657
  0
SEQEND
  8
LAYER12
  0
POLYLINE
  8
LAYER12
 62
     5
 66
     1
  6
CONTINUOUS
  0
VERTEX
  8
LAYER12
 62
     5
  6
CONTINUOUS
 10
11.0235
 20
1.5645
  0
VERTEX
  8
LAYER12
 62
     5
  6
CONTINUOUS
 10
11.0235
 20
2.5496
  0
SEQEND
  8
LAYER12
  0
POLYLINE
  8
LAYER12
 62
     5
 66
     1
  6
CONTINUOUS
  0
VERTEX
  8
LAYER12
 62
     5
  6
CONTINUOUS
 10
10.0398
 20
1.5695
  0
VERTEX
  8
LAYER12
 62
     5
  6
CONTINUOUS
 10
10.0398
 20
1.5681
  0
SEQEND
  8
LAYER12
  0
POLYLINE
  8
LAYER12
 62
     5
 66
     1
  6
CONTINUOUS
  0
VERTEX
  8
LAYER12
 62
     5
  6
CONTINUOUS
 10
10.0398
 20
1.5681
  0
VERTEX
  8
LAYER12
 62
     5
  6
CONTINUOUS
 10
10.0398
 20
1.5656
  0
SEQEND
  8
LAYER12
  0
POLYLINE
  8
LAYER12
 62
     5
 66
     1
  6
CONTINUOUS
  0
VERTEX
  8
LAYER12
 62
     5
  6
CONTINUOUS
 10
11.0213
 20
2.5494
  0
VERTEX
  8
LAYER12
 62
     5
  6
CONTINUOUS
 10
11.0248
 20
2.5494
  0
SEQEND
  8
LAYER12
  0
POLYLINE
  8
LAYER12
 62
     5
 66
     1
  6
CONTINUOUS
  0
VERTEX
  8
LAYER12
 62
     5
  6
CONTINUOUS
 10
11.0248
 20
2.5494
  0
VERTEX
  8
LAYER12
 62
     5
  6
CONTINUOUS
 10
11.0248
 20
2.5494
  0
SEQEND
  8
LAYER12
  0
POLYLINE
  8
LAYER12
 62
     5
 66
     1
  6
CONTINUOUS
  0
VERTEX
  8
LAYER12
 62
     5
  6
CONTINUOUS
 10
10.0398
 20
2.5496
  0
VERTEX
  8
LAYER12
 62
     5
  6
CONTINUOUS
 10
10.0398
 20
2.5496
  0
SEQEND
  8
LAYER12
  0
POLYLINE
  8
LAYER12
 62
     5
 66
     1
  6
CONTINUOUS
  0
VERTEX
  8
LAYER12
 62
     5
  6
CONTINUOUS
 10
10.0398
 20
2.5496
  0
VERTEX
  8
LAYER12
 62
     5
  6
CONTINUOUS
 10
10.0398
 20
2.5484
  0
SEQEND
  8
LAYER12
  0
POLYLINE
  8
LAYER12
 62
     5
 66
     1
  6
CONTINUOUS
  0
VERTEX
  8
LAYER12
 62
     5
  6
CONTINUOUS
 10
10.0398
 20
2.5484
  0
VERTEX
  8
LAYER12
 62
     5
  6
CONTINUOUS
 10
10.0398
 20
2.5496
  0
SEQEND
  8
LAYER12
  0
POLYLINE
  8
LAYER12
 62
     5
 66
     1
  6
CONTINUOUS
  0
VERTEX
  8
LAYER12
 62
     5
  6
CONTINUOUS
 10
10.0398
 20
2.5496
  0
VERTEX
  8
LAYER12
 62
     5
  6
CONTINUOUS
 10
10.0398
 20
2.5496
  0
SEQEND
  8
LAYER12
  0
POLYLINE
  8
LAYER12
 62
     5
 66
     1
  6
CONTINUOUS
  0
VERTEX
  8
LAYER12
 62
     5
  6
CONTINUOUS
 10
10.0398
 20
2.5496
  0
VERTEX
  8
LAYER12
 62
     5
  6
CONTINUOUS
 10
10.0398
 20
1.5695
  0
SEQEND
  8
LAYER12
  0
POLYLINE
  8
LAYER12
 62
     5
 66
     1
  6
CONTINUOUS
  0
VERTEX
  8
LAYER12
 62
     5
  6
CONTINUOUS
 10
10.0398
 20
2.5494
  0
VERTEX
  8
LAYER12
 62
     5
  6
CONTINUOUS
 10
10.0428
 20
2.5494
  0
SEQEND
  8
LAYER12
  0
ENDSEC
  0
EOF
