  0
SECTION
  2
HEADER
  9
$ACADVER
  1
AC1004
  9
$EXTMIN
 10
12.0456
 20
2.5474
  9
$EXTMAX
 10
13.0308
 20
3.5360
  9
$LIMMIN
 10
12.0456
 20
2.5474
  9
$LIMMAX
 10
13.0308
 20
3.5360
  9
$INSBASE
 10
0.0
 20
0.0
  9
$VIEWCTR
 10
7.21903
 20
4.5
  9
$VIEWSIZE
 40
9.0
  9
$SNAPMODE
 70
     0
  9
$SNAPUNIT
 10
1.0
 20
1.0
  9
$SNAPBASE
 10
0.0
 20
0.0
  9
$SNAPANG
 50
0.0
  9
$SNAPSTYLE
 70
     0
  9
$SNAPISOPAIR
 70
     0
  9
$GRIDMODE
 70
     0
  9
$GRIDUNIT
 10
0.0
 20
0.0
  9
$ORTHOMODE
 70
     0
  9
$REGENMODE
 70
     1
  9
$FILLMODE
 70
     1
  9
$QTEXTMODE
 70
     0
  9
$DRAGMODE
 70
     2
  9
$LTSCALE
 40
1.0
  9
$OSMODE
 70
     0
  9
$ATTMODE
 70
     1
  9
$TEXTSIZE
 40
0.2
  9
$TRACEWID
 40
0.05
  9
$TEXTSTYLE
  7
STANDARD
  9
$CLAYER
  8
0
  9
$CELTYPE
  6
BYLAYER
  9
$CECOLOR
 62
   256
  9
$DIMSCALE
 40
1.0
  9
$DIMASZ
 40
0.18
  9
$DIMEXO
 40
0.0625
  9
$DIMDLI
 40
0.38
  9
$DIMRND
 40
0.0
  9
$DIMDLE
 40
0.0
  9
$DIMEXE
 40
0.18
  9
$DIMTP
 40
0.0
  9
$DIMTM
 40
0.0
  9
$DIMTXT
 40
0.18
  9
$DIMCEN
 40
0.09
  9
$DIMTSZ
 40
0.0
  9
$DIMTOL
 70
     0
  9
$DIMLIM
 70
     0
  9
$DIMTIH
 70
     1
  9
$DIMTOH
 70
     1
  9
$DIMSE1
 70
     0
  9
$DIMSE2
 70
     0
  9
$DIMTAD
 70
     0
  9
$DIMZIN
 70
     0
  9
$DIMBLK
  1

  9
$DIMASO
 70
     1
  9
$DIMSHO
 70
     0
  9
$DIMPOST
  1

  9
$DIMAPOST
  1

  9
$DIMALT
 70
     0
  9
$DIMALTD
 70
     2
  9
$DIMALTF
 40
25.4
  9
$DIMLFAC
 40
1.0
  9
$LUNITS
 70
     2
  9
$LUPREC
 70
     4
  9
$AXISMODE
 70
     0
  9
$AXISUNIT
 10
0.0
 20
0.0
  9
$SKETCHINC
 40
0.1
  9
$FILLETRAD
 40
0.0
  9
$AUNITS
 70
     0
  9
$AUPREC
 70
     0
  9
$MENU
  1
acad
  9
$ELEVATION
 40
0.0
  9
$THICKNESS
 40
0.0
  9
$VIEWDIR
 10
0.0
 20
0.0
 30
1.0
  9
$LIMCHECK
 70
     0
  9
$BLIPMODE
 70
     1
  9
$CHAMFERA
 40
0.0
  9
$CHAMFERB
 40
0.0
  9
$FASTZOOM
 70
     1
  9
$SKPOLY
 70
     0
  9
$TDCREATE
 40
2447222.5666886573
  9
$TDUPDATE
 40
2447222.5666886573
  9
$TDINDWG
 40
0.0000000000
  9
$TDUSRTIMER
 40
0.0000000000
  9
$USRTIMER
 70
     1
  9
$ANGBASE
 50
0.0
  9
$ANGDIR
 70
     0
  9
$PDMODE
 70
     0
  9
$PDSIZE
 40
0.0
  9
$PLINEWID
 40
0.0
  9
$COORDS
 70
     0
  9
$SPLFRAME
 70
     0
  9
$SPLINESEGS
 70
     8
  9
$ATTDIA
 70
     0
  9
$ATTREQ
 70
     1
  9
$USERI1
 70
     0
  9
$USERI2
 70
     0
  9
$USERI3
 70
     0
  9
$USERI4
 70
     0
  9
$USERI5
 70
     0
  9
$USERR1
 40
0.0
  9
$USERR2
 40
0.0
  9
$USERR3
 40
0.0
  9
$USERR4
 40
0.0
  9
$USERR5
 40
0.0
  0
ENDSEC
  0
SECTION
  2
TABLES
  0
TABLE
  2
LTYPE
 70
     13
  0
LTYPE
  2
CONTINUOUS
 70
    64
  3
Solid line
 72
    65
 73
     0
 40
0.0
  0
LTYPE
  2
DASHED
 70
    64
  3
__ __ __ __ __ __ __ __ __ __ __ __ __ __ __
 72
    65
 73
     2
 40
0.75
 49
0.5
 49
-0.25
  0
LTYPE
  2
HIDDEN
 70
    64
  3
_ _ _ _ _ _ _ _ _ _ _ _ _ _ _ _ _ _ _ _ _ _ _
 72
    65
 73
     2
 40
0.375
 49
0.25
 49
-0.125
  0
LTYPE
  2
CENTER
 70
    64
  3
____ _ ____ _ ____ _ ____ _ ____ _ ____ _ ____
 72
    65
 73
     4
 40
2.0
 49
1.25
 49
-0.25
 49
0.25
 49
-0.25
  0
LTYPE
  2
PHANTOM
 70
    64
  3
_____ _ _ _____ _ _ _____ _ _ _____ _ _ ____
 72
    65
 73
     6
 40
2.5
 49
1.25
 49
-0.25
 49
0.25
 49
-0.25
 49
0.25
 49
-0.25
  0
LTYPE
  2
DOT
 70
    64
  3
...............................................
 72
    65
 73
     2
 40
0.25
 49
0.0
 49
-0.25
  0
LTYPE
  2
DASHDOT
 70
    64
  3
__ . __ . __ . __ . __ . __ . __ . __ . __ . __
 72
    65
 73
     4
 40
1.0
 49
0.5
 49
-0.25
 49
0.0
 49
-0.25
  0
LTYPE
  2
BORDER
 70
    64
  3
__ __ . __ __ . __ __ . __ __ . __ __ . __ __
 72
    65
 73
     6
 40
1.75
 49
0.5
 49
-0.25
 49
0.5
 49
-0.25
 49
0.0
 49
-0.25
  0
LTYPE
  2
DIVIDE
 70
    64
  3
__ . . __ . . __ . . __ . . __ . . __ . . __
 72
    65
 73
     6
 40
1.25
 49
0.5
 49
-0.25
 49
0.0
 49
-0.25
 49
0.0
 49
-0.25
  0
LTYPE
  2
DCTYPE1
 70
    64
  3
__ . . __ . . __ . . __ . . __ . . __ . . __
 72
    65
 73
     8
 40
2.5
 49
0.5
 49
-0.25
 49
0.125
 49
-0.25
 49
0.25
 49
-0.25
 49
0.125
 49
-0.25
  0
LTYPE
  2
DCTYPE2
 70
    64
  3
__ . . __ . . __ . . __ . . __ . . __ . . __
 72
    65
 73
     6
 40
2.05
 49
1.0
 49
-0.3
 49
0.15
 49
-0.15
 49
0.15
 49
-0.3
  0
LTYPE
  2
DCTYPE3
 70
    64
  3
__ . . __ . . __ . . __ . . __ . . __ . . __
 72
    65
 73
     6
 40
2.5
 49
0.8
 49
-0.2
 49
0.8
 49
-0.2
 49
0.3
 49
-0.2
  0
LTYPE
  2
DCTYPE4
 70
    64
  3
__ . . __ . . __ . . __ . . __ . . __ . . __
 72
    65
 73
     10
 40
3.97
 49
1.75
 49
-0.3
 49
0.3
 49
-0.3
 49
0.06
 49
-0.3
 49
0.06
 49
-0.3
 49
0.3
 49
-0.3
  0
ENDTAB
  0
TABLE
  2
LAYER
 70
    153
  0
LAYER
  2
LAYER1
 70
 64
 62
     7
  6
CONTINUOUS
  0
LAYER
  2
LAYER10
 70
 64
 62
     1
  6
CONTINUOUS
  0
LAYER
  2
LAYER12
 70
 64
 62
     5
  6
CONTINUOUS
  0
ENDTAB
  0
ENDSEC
  0
SECTION
  2
BLOCKS
  0
ENDSEC
  0
SECTION
  2
ENTITIES
  0
CIRCLE
  8
LAYER1
 62
     7
  6
CONTINUOUS
 10
12.8993
 20
3.3473
 40
0.0201
  0
CIRCLE
  8
LAYER1
 62
     7
  6
CONTINUOUS
 10
12.8935
 20
3.0832
 40
0.0135
  0
CIRCLE
  8
LAYER1
 62
     7
  6
CONTINUOUS
 10
12.8714
 20
3.0501
 40
0.0075
  0
CIRCLE
  8
LAYER1
 62
     7
  6
CONTINUOUS
 10
12.8994
 20
3.0304
 40
0.0071
  0
CIRCLE
  8
LAYER1
 62
     7
  6
CONTINUOUS
 10
12.6501
 20
3.2024
 40
0.0142
  0
CIRCLE
  8
LAYER1
 62
     7
  6
CONTINUOUS
 10
12.7015
 20
3.2913
 40
0.0079
  0
CIRCLE
  8
LAYER1
 62
     7
  6
CONTINUOUS
 10
12.6202
 20
3.3428
 40
0.0169
  0
CIRCLE
  8
LAYER1
 62
     7
  6
CONTINUOUS
 10
12.6998
 20
3.3919
 40
0.0178
  0
CIRCLE
  8
LAYER1
 62
     7
  6
CONTINUOUS
 10
12.4941
 20
3.3634
 40
0.0178
  0
POLYLINE
  8
LAYER1
 62
     7
 66
     1
  6
CONTINUOUS
  0
VERTEX
  8
LAYER1
 62
     7
  6
CONTINUOUS
 10
12.6167
 20
3.4031
  0
VERTEX
  8
LAYER1
 62
     7
  6
CONTINUOUS
 10
12.6147
 20
3.4064
  0
VERTEX
  8
LAYER1
 62
     7
  6
CONTINUOUS
 10
12.6126
 20
3.4097
  0
VERTEX
  8
LAYER1
 62
     7
  6
CONTINUOUS
 10
12.6104
 20
3.4128
  0
VERTEX
  8
LAYER1
 62
     7
  6
CONTINUOUS
 10
12.6080
 20
3.4159
  0
VERTEX
  8
LAYER1
 62
     7
  6
CONTINUOUS
 10
12.6056
 20
3.4189
  0
VERTEX
  8
LAYER1
 62
     7
  6
CONTINUOUS
 10
12.6030
 20
3.4219
  0
VERTEX
  8
LAYER1
 62
     7
  6
CONTINUOUS
 10
12.6004
 20
3.4247
  0
VERTEX
  8
LAYER1
 62
     7
  6
CONTINUOUS
 10
12.5977
 20
3.4275
  0
VERTEX
  8
LAYER1
 62
     7
  6
CONTINUOUS
 10
12.5948
 20
3.4302
  0
VERTEX
  8
LAYER1
 62
     7
  6
CONTINUOUS
 10
12.5919
 20
3.4328
  0
VERTEX
  8
LAYER1
 62
     7
  6
CONTINUOUS
 10
12.5890
 20
3.4353
  0
VERTEX
  8
LAYER1
 62
     7
  6
CONTINUOUS
 10
12.5859
 20
3.4378
  0
VERTEX
  8
LAYER1
 62
     7
  6
CONTINUOUS
 10
12.5832
 20
3.4399
  0
VERTEX
  8
LAYER1
 62
     7
  6
CONTINUOUS
 10
12.5804
 20
3.4419
  0
VERTEX
  8
LAYER1
 62
     7
  6
CONTINUOUS
 10
12.5776
 20
3.4438
  0
VERTEX
  8
LAYER1
 62
     7
  6
CONTINUOUS
 10
12.5747
 20
3.4457
  0
VERTEX
  8
LAYER1
 62
     7
  6
CONTINUOUS
 10
12.5718
 20
3.4475
  0
VERTEX
  8
LAYER1
 62
     7
  6
CONTINUOUS
 10
12.5688
 20
3.4491
  0
VERTEX
  8
LAYER1
 62
     7
  6
CONTINUOUS
 10
12.5659
 20
3.4508
  0
VERTEX
  8
LAYER1
 62
     7
  6
CONTINUOUS
 10
12.5628
 20
3.4523
  0
VERTEX
  8
LAYER1
 62
     7
  6
CONTINUOUS
 10
12.5598
 20
3.4537
  0
VERTEX
  8
LAYER1
 62
     7
  6
CONTINUOUS
 10
12.5567
 20
3.4550
  0
VERTEX
  8
LAYER1
 62
     7
  6
CONTINUOUS
 10
12.5535
 20
3.4562
  0
VERTEX
  8
LAYER1
 62
     7
  6
CONTINUOUS
 10
12.5504
 20
3.4573
  0
VERTEX
  8
LAYER1
 62
     7
  6
CONTINUOUS
 10
12.5474
 20
3.4583
  0
VERTEX
  8
LAYER1
 62
     7
  6
CONTINUOUS
 10
12.5443
 20
3.4592
  0
VERTEX
  8
LAYER1
 62
     7
  6
CONTINUOUS
 10
12.5413
 20
3.4600
  0
VERTEX
  8
LAYER1
 62
     7
  6
CONTINUOUS
 10
12.5382
 20
3.4609
  0
VERTEX
  8
LAYER1
 62
     7
  6
CONTINUOUS
 10
12.5352
 20
3.4618
  0
VERTEX
  8
LAYER1
 62
     7
  6
CONTINUOUS
 10
12.5322
 20
3.4627
  0
VERTEX
  8
LAYER1
 62
     7
  6
CONTINUOUS
 10
12.5292
 20
3.4638
  0
VERTEX
  8
LAYER1
 62
     7
  6
CONTINUOUS
 10
12.5263
 20
3.4650
  0
VERTEX
  8
LAYER1
 62
     7
  6
CONTINUOUS
 10
12.5233
 20
3.4664
  0
VERTEX
  8
LAYER1
 62
     7
  6
CONTINUOUS
 10
12.5205
 20
3.4680
  0
VERTEX
  8
LAYER1
 62
     7
  6
CONTINUOUS
 10
12.5177
 20
3.4698
  0
VERTEX
  8
LAYER1
 62
     7
  6
CONTINUOUS
 10
12.5149
 20
3.4719
  0
VERTEX
  8
LAYER1
 62
     7
  6
CONTINUOUS
 10
12.5136
 20
3.4729
  0
VERTEX
  8
LAYER1
 62
     7
  6
CONTINUOUS
 10
12.5124
 20
3.4741
  0
VERTEX
  8
LAYER1
 62
     7
  6
CONTINUOUS
 10
12.5111
 20
3.4752
  0
VERTEX
  8
LAYER1
 62
     7
  6
CONTINUOUS
 10
12.5099
 20
3.4763
  0
VERTEX
  8
LAYER1
 62
     7
  6
CONTINUOUS
 10
12.5086
 20
3.4774
  0
VERTEX
  8
LAYER1
 62
     7
  6
CONTINUOUS
 10
12.5074
 20
3.4784
  0
VERTEX
  8
LAYER1
 62
     7
  6
CONTINUOUS
 10
12.5061
 20
3.4794
  0
VERTEX
  8
LAYER1
 62
     7
  6
CONTINUOUS
 10
12.5049
 20
3.4802
  0
VERTEX
  8
LAYER1
 62
     7
  6
CONTINUOUS
 10
12.5036
 20
3.4808
  0
VERTEX
  8
LAYER1
 62
     7
  6
CONTINUOUS
 10
12.5023
 20
3.4813
  0
VERTEX
  8
LAYER1
 62
     7
  6
CONTINUOUS
 10
12.5010
 20
3.4816
  0
VERTEX
  8
LAYER1
 62
     7
  6
CONTINUOUS
 10
12.4997
 20
3.4817
  0
VERTEX
  8
LAYER1
 62
     7
  6
CONTINUOUS
 10
12.4985
 20
3.4815
  0
VERTEX
  8
LAYER1
 62
     7
  6
CONTINUOUS
 10
12.4973
 20
3.4812
  0
VERTEX
  8
LAYER1
 62
     7
  6
CONTINUOUS
 10
12.4960
 20
3.4807
  0
VERTEX
  8
LAYER1
 62
     7
  6
CONTINUOUS
 10
12.4948
 20
3.4802
  0
VERTEX
  8
LAYER1
 62
     7
  6
CONTINUOUS
 10
12.4935
 20
3.4796
  0
VERTEX
  8
LAYER1
 62
     7
  6
CONTINUOUS
 10
12.4923
 20
3.4789
  0
VERTEX
  8
LAYER1
 62
     7
  6
CONTINUOUS
 10
12.4910
 20
3.4783
  0
VERTEX
  8
LAYER1
 62
     7
  6
CONTINUOUS
 10
12.4897
 20
3.4777
  0
VERTEX
  8
LAYER1
 62
     7
  6
CONTINUOUS
 10
12.4885
 20
3.4772
  0
VERTEX
  8
LAYER1
 62
     7
  6
CONTINUOUS
 10
12.4872
 20
3.4768
  0
VERTEX
  8
LAYER1
 62
     7
  6
CONTINUOUS
 10
12.4859
 20
3.4765
  0
VERTEX
  8
LAYER1
 62
     7
  6
CONTINUOUS
 10
12.4847
 20
3.4764
  0
VERTEX
  8
LAYER1
 62
     7
  6
CONTINUOUS
 10
12.4838
 20
3.4764
  0
VERTEX
  8
LAYER1
 62
     7
  6
CONTINUOUS
 10
12.4829
 20
3.4766
  0
VERTEX
  8
LAYER1
 62
     7
  6
CONTINUOUS
 10
12.4820
 20
3.4768
  0
VERTEX
  8
LAYER1
 62
     7
  6
CONTINUOUS
 10
12.4812
 20
3.4771
  0
VERTEX
  8
LAYER1
 62
     7
  6
CONTINUOUS
 10
12.4803
 20
3.4775
  0
VERTEX
  8
LAYER1
 62
     7
  6
CONTINUOUS
 10
12.4795
 20
3.4779
  0
VERTEX
  8
LAYER1
 62
     7
  6
CONTINUOUS
 10
12.4786
 20
3.4784
  0
VERTEX
  8
LAYER1
 62
     7
  6
CONTINUOUS
 10
12.4778
 20
3.4789
  0
VERTEX
  8
LAYER1
 62
     7
  6
CONTINUOUS
 10
12.4770
 20
3.4794
  0
VERTEX
  8
LAYER1
 62
     7
  6
CONTINUOUS
 10
12.4761
 20
3.4800
  0
VERTEX
  8
LAYER1
 62
     7
  6
CONTINUOUS
 10
12.4753
 20
3.4806
  0
VERTEX
  8
LAYER1
 62
     7
  6
CONTINUOUS
 10
12.4745
 20
3.4812
  0
VERTEX
  8
LAYER1
 62
     7
  6
CONTINUOUS
 10
12.4717
 20
3.4834
  0
VERTEX
  8
LAYER1
 62
     7
  6
CONTINUOUS
 10
12.4690
 20
3.4856
  0
VERTEX
  8
LAYER1
 62
     7
  6
CONTINUOUS
 10
12.4663
 20
3.4878
  0
VERTEX
  8
LAYER1
 62
     7
  6
CONTINUOUS
 10
12.4636
 20
3.4898
  0
VERTEX
  8
LAYER1
 62
     7
  6
CONTINUOUS
 10
12.4609
 20
3.4918
  0
VERTEX
  8
LAYER1
 62
     7
  6
CONTINUOUS
 10
12.4582
 20
3.4936
  0
VERTEX
  8
LAYER1
 62
     7
  6
CONTINUOUS
 10
12.4554
 20
3.4953
  0
VERTEX
  8
LAYER1
 62
     7
  6
CONTINUOUS
 10
12.4524
 20
3.4969
  0
VERTEX
  8
LAYER1
 62
     7
  6
CONTINUOUS
 10
12.4494
 20
3.4982
  0
VERTEX
  8
LAYER1
 62
     7
  6
CONTINUOUS
 10
12.4461
 20
3.4993
  0
VERTEX
  8
LAYER1
 62
     7
  6
CONTINUOUS
 10
12.4427
 20
3.5002
  0
VERTEX
  8
LAYER1
 62
     7
  6
CONTINUOUS
 10
12.4390
 20
3.5008
  0
VERTEX
  8
LAYER1
 62
     7
  6
CONTINUOUS
 10
12.4380
 20
3.5009
  0
VERTEX
  8
LAYER1
 62
     7
  6
CONTINUOUS
 10
12.4371
 20
3.5010
  0
VERTEX
  8
LAYER1
 62
     7
  6
CONTINUOUS
 10
12.4361
 20
3.5010
  0
VERTEX
  8
LAYER1
 62
     7
  6
CONTINUOUS
 10
12.4351
 20
3.5011
  0
VERTEX
  8
LAYER1
 62
     7
  6
CONTINUOUS
 10
12.4342
 20
3.5011
  0
VERTEX
  8
LAYER1
 62
     7
  6
CONTINUOUS
 10
12.4333
 20
3.5011
  0
VERTEX
  8
LAYER1
 62
     7
  6
CONTINUOUS
 10
12.4324
 20
3.5011
  0
VERTEX
  8
LAYER1
 62
     7
  6
CONTINUOUS
 10
12.4316
 20
3.5010
  0
VERTEX
  8
LAYER1
 62
     7
  6
CONTINUOUS
 10
12.4308
 20
3.5010
  0
VERTEX
  8
LAYER1
 62
     7
  6
CONTINUOUS
 10
12.4301
 20
3.5009
  0
VERTEX
  8
LAYER1
 62
     7
  6
CONTINUOUS
 10
12.4295
 20
3.5008
  0
VERTEX
  8
LAYER1
 62
     7
  6
CONTINUOUS
 10
12.4289
 20
3.5006
  0
VERTEX
  8
LAYER1
 62
     7
  6
CONTINUOUS
 10
12.4276
 20
3.4998
  0
VERTEX
  8
LAYER1
 62
     7
  6
CONTINUOUS
 10
12.4274
 20
3.4986
  0
VERTEX
  8
LAYER1
 62
     7
  6
CONTINUOUS
 10
12.4284
 20
3.4971
  0
VERTEX
  8
LAYER1
 62
     7
  6
CONTINUOUS
 10
12.4302
 20
3.4953
  0
VERTEX
  8
LAYER1
 62
     7
  6
CONTINUOUS
 10
12.4328
 20
3.4933
  0
VERTEX
  8
LAYER1
 62
     7
  6
CONTINUOUS
 10
12.4360
 20
3.4911
  0
VERTEX
  8
LAYER1
 62
     7
  6
CONTINUOUS
 10
12.4397
 20
3.4887
  0
VERTEX
  8
LAYER1
 62
     7
  6
CONTINUOUS
 10
12.4436
 20
3.4862
  0
VERTEX
  8
LAYER1
 62
     7
  6
CONTINUOUS
 10
12.4478
 20
3.4836
  0
VERTEX
  8
LAYER1
 62
     7
  6
CONTINUOUS
 10
12.4519
 20
3.4810
  0
VERTEX
  8
LAYER1
 62
     7
  6
CONTINUOUS
 10
12.4558
 20
3.4785
  0
VERTEX
  8
LAYER1
 62
     7
  6
CONTINUOUS
 10
12.4595
 20
3.4760
  0
VERTEX
  8
LAYER1
 62
     7
  6
CONTINUOUS
 10
12.4619
 20
3.4742
  0
VERTEX
  8
LAYER1
 62
     7
  6
CONTINUOUS
 10
12.4641
 20
3.4725
  0
VERTEX
  8
LAYER1
 62
     7
  6
CONTINUOUS
 10
12.4661
 20
3.4708
  0
VERTEX
  8
LAYER1
 62
     7
  6
CONTINUOUS
 10
12.4679
 20
3.4692
  0
VERTEX
  8
LAYER1
 62
     7
  6
CONTINUOUS
 10
12.4697
 20
3.4676
  0
VERTEX
  8
LAYER1
 62
     7
  6
CONTINUOUS
 10
12.4713
 20
3.4660
  0
VERTEX
  8
LAYER1
 62
     7
  6
CONTINUOUS
 10
12.4728
 20
3.4644
  0
VERTEX
  8
LAYER1
 62
     7
  6
CONTINUOUS
 10
12.4742
 20
3.4628
  0
VERTEX
  8
LAYER1
 62
     7
  6
CONTINUOUS
 10
12.4756
 20
3.4612
  0
VERTEX
  8
LAYER1
 62
     7
  6
CONTINUOUS
 10
12.4771
 20
3.4595
  0
VERTEX
  8
LAYER1
 62
     7
  6
CONTINUOUS
 10
12.4785
 20
3.4579
  0
VERTEX
  8
LAYER1
 62
     7
  6
CONTINUOUS
 10
12.4800
 20
3.4562
  0
VERTEX
  8
LAYER1
 62
     7
  6
CONTINUOUS
 10
12.4811
 20
3.4549
  0
VERTEX
  8
LAYER1
 62
     7
  6
CONTINUOUS
 10
12.4823
 20
3.4536
  0
VERTEX
  8
LAYER1
 62
     7
  6
CONTINUOUS
 10
12.4835
 20
3.4523
  0
VERTEX
  8
LAYER1
 62
     7
  6
CONTINUOUS
 10
12.4848
 20
3.4509
  0
VERTEX
  8
LAYER1
 62
     7
  6
CONTINUOUS
 10
12.4860
 20
3.4496
  0
VERTEX
  8
LAYER1
 62
     7
  6
CONTINUOUS
 10
12.4873
 20
3.4483
  0
VERTEX
  8
LAYER1
 62
     7
  6
CONTINUOUS
 10
12.4886
 20
3.4470
  0
VERTEX
  8
LAYER1
 62
     7
  6
CONTINUOUS
 10
12.4900
 20
3.4458
  0
VERTEX
  8
LAYER1
 62
     7
  6
CONTINUOUS
 10
12.4913
 20
3.4446
  0
VERTEX
  8
LAYER1
 62
     7
  6
CONTINUOUS
 10
12.4926
 20
3.4435
  0
VERTEX
  8
LAYER1
 62
     7
  6
CONTINUOUS
 10
12.4940
 20
3.4424
  0
VERTEX
  8
LAYER1
 62
     7
  6
CONTINUOUS
 10
12.4953
 20
3.4413
  0
VERTEX
  8
LAYER1
 62
     7
  6
CONTINUOUS
 10
12.4971
 20
3.4401
  0
VERTEX
  8
LAYER1
 62
     7
  6
CONTINUOUS
 10
12.4990
 20
3.4389
  0
VERTEX
  8
LAYER1
 62
     7
  6
CONTINUOUS
 10
12.5008
 20
3.4378
  0
VERTEX
  8
LAYER1
 62
     7
  6
CONTINUOUS
 10
12.5027
 20
3.4367
  0
VERTEX
  8
LAYER1
 62
     7
  6
CONTINUOUS
 10
12.5046
 20
3.4357
  0
VERTEX
  8
LAYER1
 62
     7
  6
CONTINUOUS
 10
12.5066
 20
3.4347
  0
VERTEX
  8
LAYER1
 62
     7
  6
CONTINUOUS
 10
12.5087
 20
3.4336
  0
VERTEX
  8
LAYER1
 62
     7
  6
CONTINUOUS
 10
12.5109
 20
3.4325
  0
VERTEX
  8
LAYER1
 62
     7
  6
CONTINUOUS
 10
12.5131
 20
3.4312
  0
VERTEX
  8
LAYER1
 62
     7
  6
CONTINUOUS
 10
12.5155
 20
3.4299
  0
VERTEX
  8
LAYER1
 62
     7
  6
CONTINUOUS
 10
12.5180
 20
3.4284
  0
VERTEX
  8
LAYER1
 62
     7
  6
CONTINUOUS
 10
12.5207
 20
3.4267
  0
VERTEX
  8
LAYER1
 62
     7
  6
CONTINUOUS
 10
12.5228
 20
3.4252
  0
VERTEX
  8
LAYER1
 62
     7
  6
CONTINUOUS
 10
12.5250
 20
3.4237
  0
VERTEX
  8
LAYER1
 62
     7
  6
CONTINUOUS
 10
12.5272
 20
3.4222
  0
VERTEX
  8
LAYER1
 62
     7
  6
CONTINUOUS
 10
12.5294
 20
3.4207
  0
VERTEX
  8
LAYER1
 62
     7
  6
CONTINUOUS
 10
12.5315
 20
3.4194
  0
VERTEX
  8
LAYER1
 62
     7
  6
CONTINUOUS
 10
12.5335
 20
3.4181
  0
VERTEX
  8
LAYER1
 62
     7
  6
CONTINUOUS
 10
12.5354
 20
3.4171
  0
VERTEX
  8
LAYER1
 62
     7
  6
CONTINUOUS
 10
12.5370
 20
3.4163
  0
VERTEX
  8
LAYER1
 62
     7
  6
CONTINUOUS
 10
12.5385
 20
3.4159
  0
VERTEX
  8
LAYER1
 62
     7
  6
CONTINUOUS
 10
12.5396
 20
3.4158
  0
VERTEX
  8
LAYER1
 62
     7
  6
CONTINUOUS
 10
12.5405
 20
3.4161
  0
VERTEX
  8
LAYER1
 62
     7
  6
CONTINUOUS
 10
12.5410
 20
3.4169
  0
VERTEX
  8
LAYER1
 62
     7
  6
CONTINUOUS
 10
12.5411
 20
3.4175
  0
VERTEX
  8
LAYER1
 62
     7
  6
CONTINUOUS
 10
12.5411
 20
3.4181
  0
VERTEX
  8
LAYER1
 62
     7
  6
CONTINUOUS
 10
12.5411
 20
3.4188
  0
VERTEX
  8
LAYER1
 62
     7
  6
CONTINUOUS
 10
12.5410
 20
3.4196
  0
VERTEX
  8
LAYER1
 62
     7
  6
CONTINUOUS
 10
12.5409
 20
3.4204
  0
VERTEX
  8
LAYER1
 62
     7
  6
CONTINUOUS
 10
12.5409
 20
3.4213
  0
VERTEX
  8
LAYER1
 62
     7
  6
CONTINUOUS
 10
12.5408
 20
3.4222
  0
VERTEX
  8
LAYER1
 62
     7
  6
CONTINUOUS
 10
12.5407
 20
3.4232
  0
VERTEX
  8
LAYER1
 62
     7
  6
CONTINUOUS
 10
12.5406
 20
3.4242
  0
VERTEX
  8
LAYER1
 62
     7
  6
CONTINUOUS
 10
12.5406
 20
3.4251
  0
VERTEX
  8
LAYER1
 62
     7
  6
CONTINUOUS
 10
12.5407
 20
3.4261
  0
VERTEX
  8
LAYER1
 62
     7
  6
CONTINUOUS
 10
12.5408
 20
3.4270
  0
VERTEX
  8
LAYER1
 62
     7
  6
CONTINUOUS
 10
12.5412
 20
3.4286
  0
VERTEX
  8
LAYER1
 62
     7
  6
CONTINUOUS
 10
12.5419
 20
3.4301
  0
VERTEX
  8
LAYER1
 62
     7
  6
CONTINUOUS
 10
12.5427
 20
3.4314
  0
VERTEX
  8
LAYER1
 62
     7
  6
CONTINUOUS
 10
12.5438
 20
3.4327
  0
VERTEX
  8
LAYER1
 62
     7
  6
CONTINUOUS
 10
12.5450
 20
3.4338
  0
VERTEX
  8
LAYER1
 62
     7
  6
CONTINUOUS
 10
12.5463
 20
3.4347
  0
VERTEX
  8
LAYER1
 62
     7
  6
CONTINUOUS
 10
12.5478
 20
3.4355
  0
VERTEX
  8
LAYER1
 62
     7
  6
CONTINUOUS
 10
12.5493
 20
3.4362
  0
VERTEX
  8
LAYER1
 62
     7
  6
CONTINUOUS
 10
12.5509
 20
3.4367
  0
VERTEX
  8
LAYER1
 62
     7
  6
CONTINUOUS
 10
12.5525
 20
3.4371
  0
VERTEX
  8
LAYER1
 62
     7
  6
CONTINUOUS
 10
12.5541
 20
3.4373
  0
VERTEX
  8
LAYER1
 62
     7
  6
CONTINUOUS
 10
12.5557
 20
3.4373
  0
VERTEX
  8
LAYER1
 62
     7
  6
CONTINUOUS
 10
12.5578
 20
3.4371
  0
VERTEX
  8
LAYER1
 62
     7
  6
CONTINUOUS
 10
12.5598
 20
3.4365
  0
VERTEX
  8
LAYER1
 62
     7
  6
CONTINUOUS
 10
12.5618
 20
3.4357
  0
VERTEX
  8
LAYER1
 62
     7
  6
CONTINUOUS
 10
12.5636
 20
3.4347
  0
VERTEX
  8
LAYER1
 62
     7
  6
CONTINUOUS
 10
12.5654
 20
3.4335
  0
VERTEX
  8
LAYER1
 62
     7
  6
CONTINUOUS
 10
12.5671
 20
3.4321
  0
VERTEX
  8
LAYER1
 62
     7
  6
CONTINUOUS
 10
12.5687
 20
3.4306
  0
VERTEX
  8
LAYER1
 62
     7
  6
CONTINUOUS
 10
12.5703
 20
3.4290
  0
VERTEX
  8
LAYER1
 62
     7
  6
CONTINUOUS
 10
12.5718
 20
3.4274
  0
VERTEX
  8
LAYER1
 62
     7
  6
CONTINUOUS
 10
12.5733
 20
3.4257
  0
VERTEX
  8
LAYER1
 62
     7
  6
CONTINUOUS
 10
12.5747
 20
3.4241
  0
VERTEX
  8
LAYER1
 62
     7
  6
CONTINUOUS
 10
12.5761
 20
3.4225
  0
VERTEX
  8
LAYER1
 62
     7
  6
CONTINUOUS
 10
12.5779
 20
3.4207
  0
VERTEX
  8
LAYER1
 62
     7
  6
CONTINUOUS
 10
12.5796
 20
3.4189
  0
VERTEX
  8
LAYER1
 62
     7
  6
CONTINUOUS
 10
12.5814
 20
3.4173
  0
VERTEX
  8
LAYER1
 62
     7
  6
CONTINUOUS
 10
12.5831
 20
3.4158
  0
VERTEX
  8
LAYER1
 62
     7
  6
CONTINUOUS
 10
12.5850
 20
3.4143
  0
VERTEX
  8
LAYER1
 62
     7
  6
CONTINUOUS
 10
12.5869
 20
3.4128
  0
VERTEX
  8
LAYER1
 62
     7
  6
CONTINUOUS
 10
12.5889
 20
3.4113
  0
VERTEX
  8
LAYER1
 62
     7
  6
CONTINUOUS
 10
12.5911
 20
3.4098
  0
VERTEX
  8
LAYER1
 62
     7
  6
CONTINUOUS
 10
12.5934
 20
3.4082
  0
VERTEX
  8
LAYER1
 62
     7
  6
CONTINUOUS
 10
12.5959
 20
3.4065
  0
VERTEX
  8
LAYER1
 62
     7
  6
CONTINUOUS
 10
12.5986
 20
3.4048
  0
VERTEX
  8
LAYER1
 62
     7
  6
CONTINUOUS
 10
12.6016
 20
3.4028
  0
VERTEX
  8
LAYER1
 62
     7
  6
CONTINUOUS
 10
12.6038
 20
3.4014
  0
VERTEX
  8
LAYER1
 62
     7
  6
CONTINUOUS
 10
12.6060
 20
3.4000
  0
VERTEX
  8
LAYER1
 62
     7
  6
CONTINUOUS
 10
12.6083
 20
3.3985
  0
VERTEX
  8
LAYER1
 62
     7
  6
CONTINUOUS
 10
12.6106
 20
3.3971
  0
VERTEX
  8
LAYER1
 62
     7
  6
CONTINUOUS
 10
12.6127
 20
3.3958
  0
VERTEX
  8
LAYER1
 62
     7
  6
CONTINUOUS
 10
12.6148
 20
3.3946
  0
VERTEX
  8
LAYER1
 62
     7
  6
CONTINUOUS
 10
12.6167
 20
3.3937
  0
VERTEX
  8
LAYER1
 62
     7
  6
CONTINUOUS
 10
12.6184
 20
3.3929
  0
VERTEX
  8
LAYER1
 62
     7
  6
CONTINUOUS
 10
12.6198
 20
3.3924
  0
VERTEX
  8
LAYER1
 62
     7
  6
CONTINUOUS
 10
12.6208
 20
3.3923
  0
VERTEX
  8
LAYER1
 62
     7
  6
CONTINUOUS
 10
12.6216
 20
3.3925
  0
VERTEX
  8
LAYER1
 62
     7
  6
CONTINUOUS
 10
12.6218
 20
3.3931
  0
VERTEX
  8
LAYER1
 62
     7
  6
CONTINUOUS
 10
12.6218
 20
3.3936
  0
VERTEX
  8
LAYER1
 62
     7
  6
CONTINUOUS
 10
12.6217
 20
3.3942
  0
VERTEX
  8
LAYER1
 62
     7
  6
CONTINUOUS
 10
12.6215
 20
3.3948
  0
VERTEX
  8
LAYER1
 62
     7
  6
CONTINUOUS
 10
12.6211
 20
3.3956
  0
VERTEX
  8
LAYER1
 62
     7
  6
CONTINUOUS
 10
12.6207
 20
3.3964
  0
VERTEX
  8
LAYER1
 62
     7
  6
CONTINUOUS
 10
12.6203
 20
3.3972
  0
VERTEX
  8
LAYER1
 62
     7
  6
CONTINUOUS
 10
12.6198
 20
3.3982
  0
VERTEX
  8
LAYER1
 62
     7
  6
CONTINUOUS
 10
12.6192
 20
3.3991
  0
VERTEX
  8
LAYER1
 62
     7
  6
CONTINUOUS
 10
12.6186
 20
3.4001
  0
VERTEX
  8
LAYER1
 62
     7
  6
CONTINUOUS
 10
12.6180
 20
3.4011
  0
VERTEX
  8
LAYER1
 62
     7
  6
CONTINUOUS
 10
12.6173
 20
3.4021
  0
VERTEX
  8
LAYER1
 62
     7
  6
CONTINUOUS
 10
12.6167
 20
3.4031
  0
SEQEND
  8
LAYER1
  0
CIRCLE
  8
LAYER1
 62
     7
  6
CONTINUOUS
 10
12.3525
 20
3.4088
 40
0.0153
  0
CIRCLE
  8
LAYER1
 62
     7
  6
CONTINUOUS
 10
12.2973
 20
3.4004
 40
0.0178
  0
CIRCLE
  8
LAYER1
 62
     7
  6
CONTINUOUS
 10
12.0794
 20
3.1881
 40
0.0104
  0
CIRCLE
  8
LAYER1
 62
     7
  6
CONTINUOUS
 10
12.1173
 20
3.3320
 40
0.0036
  0
CIRCLE
  8
LAYER1
 62
     7
  6
CONTINUOUS
 10
12.1772
 20
3.3582
 40
0.0147
  0
CIRCLE
  8
LAYER1
 62
     7
  6
CONTINUOUS
 10
12.2108
 20
3.3059
 40
0.0201
  0
CIRCLE
  8
LAYER1
 62
     7
  6
CONTINUOUS
 10
12.2255
 20
3.3263
 40
0.0050
  0
CIRCLE
  8
LAYER1
 62
     7
  6
CONTINUOUS
 10
12.2554
 20
3.3469
 40
0.0112
  0
CIRCLE
  8
LAYER1
 62
     7
  6
CONTINUOUS
 10
12.3045
 20
3.2647
 40
0.0178
  0
CIRCLE
  8
LAYER1
 62
     7
  6
CONTINUOUS
 10
12.3107
 20
3.1944
 40
0.0228
  0
CIRCLE
  8
LAYER1
 62
     7
  6
CONTINUOUS
 10
12.1985
 20
3.1347
 40
0.0159
  0
CIRCLE
  8
LAYER1
 62
     7
  6
CONTINUOUS
 10
12.1734
 20
3.1292
 40
0.0101
  0
CIRCLE
  8
LAYER1
 62
     7
  6
CONTINUOUS
 10
12.4512
 20
3.0608
 40
0.0277
  0
CIRCLE
  8
LAYER1
 62
     7
  6
CONTINUOUS
 10
12.4531
 20
3.0986
 40
0.0104
  0
CIRCLE
  8
LAYER1
 62
     7
  6
CONTINUOUS
 10
12.4015
 20
3.0223
 40
0.0101
  0
CIRCLE
  8
LAYER1
 62
     7
  6
CONTINUOUS
 10
12.3381
 20
2.9056
 40
0.0225
  0
CIRCLE
  8
LAYER1
 62
     7
  6
CONTINUOUS
 10
12.6547
 20
2.7699
 40
0.0203
  0
CIRCLE
  8
LAYER1
 62
     7
  6
CONTINUOUS
 10
12.5357
 20
2.9692
 40
0.0056
  0
CIRCLE
  8
LAYER1
 62
     7
  6
CONTINUOUS
 10
12.5753
 20
3.0100
 40
0.0104
  0
CIRCLE
  8
LAYER1
 62
     7
  6
CONTINUOUS
 10
12.5792
 20
3.0755
 40
0.0056
  0
CIRCLE
  8
LAYER1
 62
     7
  6
CONTINUOUS
 10
12.8669
 20
2.7105
 40
0.0228
  0
CIRCLE
  8
LAYER1
 62
     7
  6
CONTINUOUS
 10
12.2973
 20
2.6282
 40
0.0151
  0
ARC
  8
LAYER1
 62
     7
  6
CONTINUOUS
 10
12.0354
 20
2.6516
 40
0.0183
 50
-28.1867
 51
28.1754
  0
ARC
  8
LAYER1
 62
     7
  6
CONTINUOUS
 10
12.7284
 20
2.5674
 40
0.0178
 50
82.7832
 51
-116.7436
  0
ARC
  8
LAYER1
 62
     7
  6
CONTINUOUS
 10
12.7284
 20
2.5674
 40
0.0178
 50
-116.7433
 51
-63.2532
  0
ARC
  8
LAYER1
 62
     7
  6
CONTINUOUS
 10
12.7284
 20
2.5674
 40
0.0178
 50
-63.2539
 51
82.7827
  0
ARC
  8
LAYER1
 62
     7
  6
CONTINUOUS
 10
12.0354
 20
2.6516
 40
0.0183
 50
-53.2534
 51
-28.1867
  0
ARC
  8
LAYER1
 62
     7
  6
CONTINUOUS
 10
12.2070
 20
3.5347
 40
0.0091
 50
172.1245
 51
-149.7527
  0
ARC
  8
LAYER1
 62
     7
  6
CONTINUOUS
 10
12.2070
 20
3.5347
 40
0.0091
 50
172.1245
 51
-30.2434
  0
ARC
  8
LAYER1
 62
     7
  6
CONTINUOUS
 10
12.1544
 20
3.5263
 40
0.0237
 50
155.9898
 51
170.6755
  0
ARC
  8
LAYER1
 62
     7
  6
CONTINUOUS
 10
12.1544
 20
3.5263
 40
0.0237
 50
155.9898
 51
9.3243
  0
ARC
  8
LAYER1
 62
     7
  6
CONTINUOUS
 10
12.0354
 20
2.6516
 40
0.0183
 50
28.1742
 51
53.2546
  0
ARC
  8
LAYER1
 62
     7
  6
CONTINUOUS
 10
12.2070
 20
3.5347
 40
0.0091
 50
-30.2443
 51
7.8738
  0
ARC
  8
LAYER1
 62
     7
  6
CONTINUOUS
 10
12.1544
 20
3.5263
 40
0.0237
 50
9.3242
 51
24.0094
  0
ARC
  8
LAYER1
 62
     7
  6
CONTINUOUS
 10
12.2070
 20
3.5347
 40
0.0091
 50
-30.2443
 51
7.8738
  0
ARC
  8
LAYER1
 62
     7
  6
CONTINUOUS
 10
12.1544
 20
3.5263
 40
0.0237
 50
9.3242
 51
24.0094
  0
POLYLINE
  8
LAYER10
 62
     1
 66
     1
  6
CONTINUOUS
  0
VERTEX
  8
LAYER10
 62
     1
  6
CONTINUOUS
 10
12.1472
 20
3.5011
  0
VERTEX
  8
LAYER10
 62
     1
  6
CONTINUOUS
 10
12.1488
 20
3.4982
  0
VERTEX
  8
LAYER10
 62
     1
  6
CONTINUOUS
 10
12.1504
 20
3.4954
  0
VERTEX
  8
LAYER10
 62
     1
  6
CONTINUOUS
 10
12.1519
 20
3.4926
  0
VERTEX
  8
LAYER10
 62
     1
  6
CONTINUOUS
 10
12.1535
 20
3.4898
  0
VERTEX
  8
LAYER10
 62
     1
  6
CONTINUOUS
 10
12.1549
 20
3.4869
  0
VERTEX
  8
LAYER10
 62
     1
  6
CONTINUOUS
 10
12.1563
 20
3.4840
  0
VERTEX
  8
LAYER10
 62
     1
  6
CONTINUOUS
 10
12.1577
 20
3.4811
  0
VERTEX
  8
LAYER10
 62
     1
  6
CONTINUOUS
 10
12.1589
 20
3.4782
  0
VERTEX
  8
LAYER10
 62
     1
  6
CONTINUOUS
 10
12.1601
 20
3.4753
  0
VERTEX
  8
LAYER10
 62
     1
  6
CONTINUOUS
 10
12.1611
 20
3.4722
  0
VERTEX
  8
LAYER10
 62
     1
  6
CONTINUOUS
 10
12.1621
 20
3.4692
  0
VERTEX
  8
LAYER10
 62
     1
  6
CONTINUOUS
 10
12.1629
 20
3.4661
  0
VERTEX
  8
LAYER10
 62
     1
  6
CONTINUOUS
 10
12.1639
 20
3.4610
  0
VERTEX
  8
LAYER10
 62
     1
  6
CONTINUOUS
 10
12.1645
 20
3.4557
  0
VERTEX
  8
LAYER10
 62
     1
  6
CONTINUOUS
 10
12.1647
 20
3.4504
  0
VERTEX
  8
LAYER10
 62
     1
  6
CONTINUOUS
 10
12.1646
 20
3.4451
  0
VERTEX
  8
LAYER10
 62
     1
  6
CONTINUOUS
 10
12.1640
 20
3.4397
  0
VERTEX
  8
LAYER10
 62
     1
  6
CONTINUOUS
 10
12.1631
 20
3.4344
  0
VERTEX
  8
LAYER10
 62
     1
  6
CONTINUOUS
 10
12.1618
 20
3.4292
  0
VERTEX
  8
LAYER10
 62
     1
  6
CONTINUOUS
 10
12.1600
 20
3.4241
  0
VERTEX
  8
LAYER10
 62
     1
  6
CONTINUOUS
 10
12.1578
 20
3.4191
  0
VERTEX
  8
LAYER10
 62
     1
  6
CONTINUOUS
 10
12.1552
 20
3.4144
  0
VERTEX
  8
LAYER10
 62
     1
  6
CONTINUOUS
 10
12.1522
 20
3.4098
  0
VERTEX
  8
LAYER10
 62
     1
  6
CONTINUOUS
 10
12.1488
 20
3.4055
  0
VERTEX
  8
LAYER10
 62
     1
  6
CONTINUOUS
 10
12.1451
 20
3.4017
  0
VERTEX
  8
LAYER10
 62
     1
  6
CONTINUOUS
 10
12.1412
 20
3.3982
  0
VERTEX
  8
LAYER10
 62
     1
  6
CONTINUOUS
 10
12.1369
 20
3.3950
  0
VERTEX
  8
LAYER10
 62
     1
  6
CONTINUOUS
 10
12.1324
 20
3.3921
  0
VERTEX
  8
LAYER10
 62
     1
  6
CONTINUOUS
 10
12.1277
 20
3.3896
  0
VERTEX
  8
LAYER10
 62
     1
  6
CONTINUOUS
 10
12.1229
 20
3.3875
  0
VERTEX
  8
LAYER10
 62
     1
  6
CONTINUOUS
 10
12.1180
 20
3.3858
  0
VERTEX
  8
LAYER10
 62
     1
  6
CONTINUOUS
 10
12.1130
 20
3.3846
  0
VERTEX
  8
LAYER10
 62
     1
  6
CONTINUOUS
 10
12.1081
 20
3.3838
  0
VERTEX
  8
LAYER10
 62
     1
  6
CONTINUOUS
 10
12.1032
 20
3.3835
  0
VERTEX
  8
LAYER10
 62
     1
  6
CONTINUOUS
 10
12.0984
 20
3.3837
  0
VERTEX
  8
LAYER10
 62
     1
  6
CONTINUOUS
 10
12.0938
 20
3.3845
  0
VERTEX
  8
LAYER10
 62
     1
  6
CONTINUOUS
 10
12.0896
 20
3.3857
  0
VERTEX
  8
LAYER10
 62
     1
  6
CONTINUOUS
 10
12.0856
 20
3.3874
  0
VERTEX
  8
LAYER10
 62
     1
  6
CONTINUOUS
 10
12.0818
 20
3.3895
  0
VERTEX
  8
LAYER10
 62
     1
  6
CONTINUOUS
 10
12.0780
 20
3.3920
  0
VERTEX
  8
LAYER10
 62
     1
  6
CONTINUOUS
 10
12.0745
 20
3.3948
  0
VERTEX
  8
LAYER10
 62
     1
  6
CONTINUOUS
 10
12.0710
 20
3.3979
  0
VERTEX
  8
LAYER10
 62
     1
  6
CONTINUOUS
 10
12.0676
 20
3.4013
  0
VERTEX
  8
LAYER10
 62
     1
  6
CONTINUOUS
 10
12.0643
 20
3.4049
  0
VERTEX
  8
LAYER10
 62
     1
  6
CONTINUOUS
 10
12.0610
 20
3.4086
  0
VERTEX
  8
LAYER10
 62
     1
  6
CONTINUOUS
 10
12.0578
 20
3.4125
  0
VERTEX
  8
LAYER10
 62
     1
  6
CONTINUOUS
 10
12.0546
 20
3.4164
  0
VERTEX
  8
LAYER10
 62
     1
  6
CONTINUOUS
 10
12.0515
 20
3.4204
  0
SEQEND
  8
LAYER10
  0
POLYLINE
  8
LAYER10
 62
     1
 66
     1
  6
CONTINUOUS
  0
VERTEX
  8
LAYER10
 62
     1
  6
CONTINUOUS
 10
12.0515
 20
3.4779
  0
VERTEX
  8
LAYER10
 62
     1
  6
CONTINUOUS
 10
12.0515
 20
3.4781
  0
VERTEX
  8
LAYER10
 62
     1
  6
CONTINUOUS
 10
12.0516
 20
3.4782
  0
VERTEX
  8
LAYER10
 62
     1
  6
CONTINUOUS
 10
12.0516
 20
3.4783
  0
VERTEX
  8
LAYER10
 62
     1
  6
CONTINUOUS
 10
12.0517
 20
3.4784
  0
VERTEX
  8
LAYER10
 62
     1
  6
CONTINUOUS
 10
12.0517
 20
3.4785
  0
VERTEX
  8
LAYER10
 62
     1
  6
CONTINUOUS
 10
12.0517
 20
3.4787
  0
VERTEX
  8
LAYER10
 62
     1
  6
CONTINUOUS
 10
12.0518
 20
3.4788
  0
VERTEX
  8
LAYER10
 62
     1
  6
CONTINUOUS
 10
12.0518
 20
3.4789
  0
VERTEX
  8
LAYER10
 62
     1
  6
CONTINUOUS
 10
12.0519
 20
3.4790
  0
VERTEX
  8
LAYER10
 62
     1
  6
CONTINUOUS
 10
12.0519
 20
3.4791
  0
VERTEX
  8
LAYER10
 62
     1
  6
CONTINUOUS
 10
12.0520
 20
3.4793
  0
VERTEX
  8
LAYER10
 62
     1
  6
CONTINUOUS
 10
12.0520
 20
3.4794
  0
VERTEX
  8
LAYER10
 62
     1
  6
CONTINUOUS
 10
12.0535
 20
3.4829
  0
VERTEX
  8
LAYER10
 62
     1
  6
CONTINUOUS
 10
12.0554
 20
3.4864
  0
VERTEX
  8
LAYER10
 62
     1
  6
CONTINUOUS
 10
12.0576
 20
3.4897
  0
VERTEX
  8
LAYER10
 62
     1
  6
CONTINUOUS
 10
12.0601
 20
3.4928
  0
VERTEX
  8
LAYER10
 62
     1
  6
CONTINUOUS
 10
12.0628
 20
3.4958
  0
VERTEX
  8
LAYER10
 62
     1
  6
CONTINUOUS
 10
12.0658
 20
3.4986
  0
VERTEX
  8
LAYER10
 62
     1
  6
CONTINUOUS
 10
12.0690
 20
3.5011
  0
VERTEX
  8
LAYER10
 62
     1
  6
CONTINUOUS
 10
12.0723
 20
3.5034
  0
VERTEX
  8
LAYER10
 62
     1
  6
CONTINUOUS
 10
12.0758
 20
3.5055
  0
VERTEX
  8
LAYER10
 62
     1
  6
CONTINUOUS
 10
12.0793
 20
3.5073
  0
VERTEX
  8
LAYER10
 62
     1
  6
CONTINUOUS
 10
12.0830
 20
3.5089
  0
VERTEX
  8
LAYER10
 62
     1
  6
CONTINUOUS
 10
12.0867
 20
3.5101
  0
VERTEX
  8
LAYER10
 62
     1
  6
CONTINUOUS
 10
12.0916
 20
3.5113
  0
VERTEX
  8
LAYER10
 62
     1
  6
CONTINUOUS
 10
12.0966
 20
3.5120
  0
VERTEX
  8
LAYER10
 62
     1
  6
CONTINUOUS
 10
12.1016
 20
3.5122
  0
VERTEX
  8
LAYER10
 62
     1
  6
CONTINUOUS
 10
12.1066
 20
3.5120
  0
VERTEX
  8
LAYER10
 62
     1
  6
CONTINUOUS
 10
12.1116
 20
3.5114
  0
VERTEX
  8
LAYER10
 62
     1
  6
CONTINUOUS
 10
12.1167
 20
3.5105
  0
VERTEX
  8
LAYER10
 62
     1
  6
CONTINUOUS
 10
12.1217
 20
3.5094
  0
VERTEX
  8
LAYER10
 62
     1
  6
CONTINUOUS
 10
12.1268
 20
3.5080
  0
VERTEX
  8
LAYER10
 62
     1
  6
CONTINUOUS
 10
12.1319
 20
3.5064
  0
VERTEX
  8
LAYER10
 62
     1
  6
CONTINUOUS
 10
12.1370
 20
3.5047
  0
VERTEX
  8
LAYER10
 62
     1
  6
CONTINUOUS
 10
12.1421
 20
3.5029
  0
VERTEX
  8
LAYER10
 62
     1
  6
CONTINUOUS
 10
12.1472
 20
3.5011
  0
SEQEND
  8
LAYER10
  0
POLYLINE
  8
LAYER10
 62
     1
 66
     1
  6
CONTINUOUS
  0
VERTEX
  8
LAYER10
 62
     1
  6
CONTINUOUS
 10
12.0515
 20
3.4204
  0
VERTEX
  8
LAYER10
 62
     1
  6
CONTINUOUS
 10
12.0511
 20
3.4211
  0
VERTEX
  8
LAYER10
 62
     1
  6
CONTINUOUS
 10
12.0508
 20
3.4218
  0
VERTEX
  8
LAYER10
 62
     1
  6
CONTINUOUS
 10
12.0504
 20
3.4225
  0
VERTEX
  8
LAYER10
 62
     1
  6
CONTINUOUS
 10
12.0501
 20
3.4232
  0
VERTEX
  8
LAYER10
 62
     1
  6
CONTINUOUS
 10
12.0498
 20
3.4239
  0
VERTEX
  8
LAYER10
 62
     1
  6
CONTINUOUS
 10
12.0494
 20
3.4247
  0
VERTEX
  8
LAYER10
 62
     1
  6
CONTINUOUS
 10
12.0491
 20
3.4254
  0
VERTEX
  8
LAYER10
 62
     1
  6
CONTINUOUS
 10
12.0488
 20
3.4261
  0
VERTEX
  8
LAYER10
 62
     1
  6
CONTINUOUS
 10
12.0485
 20
3.4268
  0
VERTEX
  8
LAYER10
 62
     1
  6
CONTINUOUS
 10
12.0483
 20
3.4275
  0
VERTEX
  8
LAYER10
 62
     1
  6
CONTINUOUS
 10
12.0480
 20
3.4283
  0
VERTEX
  8
LAYER10
 62
     1
  6
CONTINUOUS
 10
12.0478
 20
3.4290
  0
VERTEX
  8
LAYER10
 62
     1
  6
CONTINUOUS
 10
12.0476
 20
3.4297
  0
VERTEX
  8
LAYER10
 62
     1
  6
CONTINUOUS
 10
12.0474
 20
3.4304
  0
VERTEX
  8
LAYER10
 62
     1
  6
CONTINUOUS
 10
12.0473
 20
3.4311
  0
VERTEX
  8
LAYER10
 62
     1
  6
CONTINUOUS
 10
12.0471
 20
3.4318
  0
VERTEX
  8
LAYER10
 62
     1
  6
CONTINUOUS
 10
12.0470
 20
3.4326
  0
VERTEX
  8
LAYER10
 62
     1
  6
CONTINUOUS
 10
12.0469
 20
3.4333
  0
VERTEX
  8
LAYER10
 62
     1
  6
CONTINUOUS
 10
12.0468
 20
3.4340
  0
VERTEX
  8
LAYER10
 62
     1
  6
CONTINUOUS
 10
12.0467
 20
3.4347
  0
VERTEX
  8
LAYER10
 62
     1
  6
CONTINUOUS
 10
12.0466
 20
3.4355
  0
VERTEX
  8
LAYER10
 62
     1
  6
CONTINUOUS
 10
12.0465
 20
3.4362
  0
VERTEX
  8
LAYER10
 62
     1
  6
CONTINUOUS
 10
12.0464
 20
3.4369
  0
VERTEX
  8
LAYER10
 62
     1
  6
CONTINUOUS
 10
12.0463
 20
3.4377
  0
SEQEND
  8
LAYER10
  0
POLYLINE
  8
LAYER10
 62
     1
 66
     1
  6
CONTINUOUS
  0
VERTEX
  8
LAYER10
 62
     1
  6
CONTINUOUS
 10
12.0463
 20
3.4377
  0
VERTEX
  8
LAYER10
 62
     1
  6
CONTINUOUS
 10
12.0463
 20
3.4377
  0
VERTEX
  8
LAYER10
 62
     1
  6
CONTINUOUS
 10
12.0463
 20
3.4377
  0
VERTEX
  8
LAYER10
 62
     1
  6
CONTINUOUS
 10
12.0463
 20
3.4377
  0
VERTEX
  8
LAYER10
 62
     1
  6
CONTINUOUS
 10
12.0463
 20
3.4377
  0
VERTEX
  8
LAYER10
 62
     1
  6
CONTINUOUS
 10
12.0463
 20
3.4377
  0
VERTEX
  8
LAYER10
 62
     1
  6
CONTINUOUS
 10
12.0463
 20
3.4377
  0
VERTEX
  8
LAYER10
 62
     1
  6
CONTINUOUS
 10
12.0463
 20
3.4377
  0
VERTEX
  8
LAYER10
 62
     1
  6
CONTINUOUS
 10
12.0463
 20
3.4377
  0
VERTEX
  8
LAYER10
 62
     1
  6
CONTINUOUS
 10
12.0463
 20
3.4377
  0
VERTEX
  8
LAYER10
 62
     1
  6
CONTINUOUS
 10
12.0463
 20
3.4377
  0
VERTEX
  8
LAYER10
 62
     1
  6
CONTINUOUS
 10
12.0463
 20
3.4377
  0
VERTEX
  8
LAYER10
 62
     1
  6
CONTINUOUS
 10
12.0463
 20
3.4377
  0
VERTEX
  8
LAYER10
 62
     1
  6
CONTINUOUS
 10
12.0463
 20
3.4377
  0
VERTEX
  8
LAYER10
 62
     1
  6
CONTINUOUS
 10
12.0463
 20
3.4377
  0
VERTEX
  8
LAYER10
 62
     1
  6
CONTINUOUS
 10
12.0463
 20
3.4377
  0
VERTEX
  8
LAYER10
 62
     1
  6
CONTINUOUS
 10
12.0463
 20
3.4377
  0
VERTEX
  8
LAYER10
 62
     1
  6
CONTINUOUS
 10
12.0463
 20
3.4377
  0
VERTEX
  8
LAYER10
 62
     1
  6
CONTINUOUS
 10
12.0463
 20
3.4377
  0
VERTEX
  8
LAYER10
 62
     1
  6
CONTINUOUS
 10
12.0463
 20
3.4377
  0
VERTEX
  8
LAYER10
 62
     1
  6
CONTINUOUS
 10
12.0463
 20
3.4377
  0
VERTEX
  8
LAYER10
 62
     1
  6
CONTINUOUS
 10
12.0463
 20
3.4377
  0
VERTEX
  8
LAYER10
 62
     1
  6
CONTINUOUS
 10
12.0463
 20
3.4377
  0
VERTEX
  8
LAYER10
 62
     1
  6
CONTINUOUS
 10
12.0463
 20
3.4377
  0
VERTEX
  8
LAYER10
 62
     1
  6
CONTINUOUS
 10
12.0463
 20
3.4377
  0
SEQEND
  8
LAYER10
  0
POLYLINE
  8
LAYER10
 62
     1
 66
     1
  6
CONTINUOUS
  0
VERTEX
  8
LAYER10
 62
     1
  6
CONTINUOUS
 10
12.0463
 20
3.4377
  0
VERTEX
  8
LAYER10
 62
     1
  6
CONTINUOUS
 10
12.0463
 20
3.4394
  0
VERTEX
  8
LAYER10
 62
     1
  6
CONTINUOUS
 10
12.0463
 20
3.4412
  0
VERTEX
  8
LAYER10
 62
     1
  6
CONTINUOUS
 10
12.0463
 20
3.4428
  0
VERTEX
  8
LAYER10
 62
     1
  6
CONTINUOUS
 10
12.0463
 20
3.4445
  0
VERTEX
  8
LAYER10
 62
     1
  6
CONTINUOUS
 10
12.0463
 20
3.4460
  0
VERTEX
  8
LAYER10
 62
     1
  6
CONTINUOUS
 10
12.0463
 20
3.4475
  0
VERTEX
  8
LAYER10
 62
     1
  6
CONTINUOUS
 10
12.0463
 20
3.4488
  0
VERTEX
  8
LAYER10
 62
     1
  6
CONTINUOUS
 10
12.0463
 20
3.4500
  0
VERTEX
  8
LAYER10
 62
     1
  6
CONTINUOUS
 10
12.0463
 20
3.4510
  0
VERTEX
  8
LAYER10
 62
     1
  6
CONTINUOUS
 10
12.0463
 20
3.4518
  0
VERTEX
  8
LAYER10
 62
     1
  6
CONTINUOUS
 10
12.0463
 20
3.4525
  0
VERTEX
  8
LAYER10
 62
     1
  6
CONTINUOUS
 10
12.0463
 20
3.4529
  0
VERTEX
  8
LAYER10
 62
     1
  6
CONTINUOUS
 10
12.0463
 20
3.4530
  0
VERTEX
  8
LAYER10
 62
     1
  6
CONTINUOUS
 10
12.0463
 20
3.4530
  0
VERTEX
  8
LAYER10
 62
     1
  6
CONTINUOUS
 10
12.0463
 20
3.4530
  0
VERTEX
  8
LAYER10
 62
     1
  6
CONTINUOUS
 10
12.0463
 20
3.4531
  0
VERTEX
  8
LAYER10
 62
     1
  6
CONTINUOUS
 10
12.0463
 20
3.4531
  0
VERTEX
  8
LAYER10
 62
     1
  6
CONTINUOUS
 10
12.0463
 20
3.4531
  0
VERTEX
  8
LAYER10
 62
     1
  6
CONTINUOUS
 10
12.0463
 20
3.4531
  0
VERTEX
  8
LAYER10
 62
     1
  6
CONTINUOUS
 10
12.0463
 20
3.4530
  0
VERTEX
  8
LAYER10
 62
     1
  6
CONTINUOUS
 10
12.0463
 20
3.4530
  0
VERTEX
  8
LAYER10
 62
     1
  6
CONTINUOUS
 10
12.0463
 20
3.4530
  0
VERTEX
  8
LAYER10
 62
     1
  6
CONTINUOUS
 10
12.0463
 20
3.4529
  0
VERTEX
  8
LAYER10
 62
     1
  6
CONTINUOUS
 10
12.0463
 20
3.4529
  0
SEQEND
  8
LAYER10
  0
POLYLINE
  8
LAYER10
 62
     1
 66
     1
  6
CONTINUOUS
  0
VERTEX
  8
LAYER10
 62
     1
  6
CONTINUOUS
 10
12.0463
 20
3.4529
  0
VERTEX
  8
LAYER10
 62
     1
  6
CONTINUOUS
 10
12.0463
 20
3.4529
  0
VERTEX
  8
LAYER10
 62
     1
  6
CONTINUOUS
 10
12.0463
 20
3.4530
  0
VERTEX
  8
LAYER10
 62
     1
  6
CONTINUOUS
 10
12.0463
 20
3.4530
  0
VERTEX
  8
LAYER10
 62
     1
  6
CONTINUOUS
 10
12.0463
 20
3.4530
  0
VERTEX
  8
LAYER10
 62
     1
  6
CONTINUOUS
 10
12.0463
 20
3.4531
  0
VERTEX
  8
LAYER10
 62
     1
  6
CONTINUOUS
 10
12.0463
 20
3.4531
  0
VERTEX
  8
LAYER10
 62
     1
  6
CONTINUOUS
 10
12.0463
 20
3.4531
  0
VERTEX
  8
LAYER10
 62
     1
  6
CONTINUOUS
 10
12.0463
 20
3.4532
  0
VERTEX
  8
LAYER10
 62
     1
  6
CONTINUOUS
 10
12.0463
 20
3.4532
  0
VERTEX
  8
LAYER10
 62
     1
  6
CONTINUOUS
 10
12.0463
 20
3.4533
  0
VERTEX
  8
LAYER10
 62
     1
  6
CONTINUOUS
 10
12.0463
 20
3.4533
  0
VERTEX
  8
LAYER10
 62
     1
  6
CONTINUOUS
 10
12.0463
 20
3.4533
  0
VERTEX
  8
LAYER10
 62
     1
  6
CONTINUOUS
 10
12.0463
 20
3.4536
  0
VERTEX
  8
LAYER10
 62
     1
  6
CONTINUOUS
 10
12.0463
 20
3.4538
  0
VERTEX
  8
LAYER10
 62
     1
  6
CONTINUOUS
 10
12.0463
 20
3.4540
  0
VERTEX
  8
LAYER10
 62
     1
  6
CONTINUOUS
 10
12.0463
 20
3.4541
  0
VERTEX
  8
LAYER10
 62
     1
  6
CONTINUOUS
 10
12.0463
 20
3.4541
  0
VERTEX
  8
LAYER10
 62
     1
  6
CONTINUOUS
 10
12.0463
 20
3.4541
  0
VERTEX
  8
LAYER10
 62
     1
  6
CONTINUOUS
 10
12.0463
 20
3.4540
  0
VERTEX
  8
LAYER10
 62
     1
  6
CONTINUOUS
 10
12.0463
 20
3.4539
  0
VERTEX
  8
LAYER10
 62
     1
  6
CONTINUOUS
 10
12.0463
 20
3.4538
  0
VERTEX
  8
LAYER10
 62
     1
  6
CONTINUOUS
 10
12.0463
 20
3.4537
  0
VERTEX
  8
LAYER10
 62
     1
  6
CONTINUOUS
 10
12.0463
 20
3.4535
  0
VERTEX
  8
LAYER10
 62
     1
  6
CONTINUOUS
 10
12.0463
 20
3.4533
  0
SEQEND
  8
LAYER10
  0
POLYLINE
  8
LAYER10
 62
     1
 66
     1
  6
CONTINUOUS
  0
VERTEX
  8
LAYER10
 62
     1
  6
CONTINUOUS
 10
12.0463
 20
3.4533
  0
VERTEX
  8
LAYER10
 62
     1
  6
CONTINUOUS
 10
12.0463
 20
3.4533
  0
VERTEX
  8
LAYER10
 62
     1
  6
CONTINUOUS
 10
12.0463
 20
3.4533
  0
VERTEX
  8
LAYER10
 62
     1
  6
CONTINUOUS
 10
12.0463
 20
3.4533
  0
VERTEX
  8
LAYER10
 62
     1
  6
CONTINUOUS
 10
12.0463
 20
3.4533
  0
VERTEX
  8
LAYER10
 62
     1
  6
CONTINUOUS
 10
12.0463
 20
3.4533
  0
VERTEX
  8
LAYER10
 62
     1
  6
CONTINUOUS
 10
12.0463
 20
3.4533
  0
VERTEX
  8
LAYER10
 62
     1
  6
CONTINUOUS
 10
12.0463
 20
3.4533
  0
VERTEX
  8
LAYER10
 62
     1
  6
CONTINUOUS
 10
12.0463
 20
3.4533
  0
VERTEX
  8
LAYER10
 62
     1
  6
CONTINUOUS
 10
12.0463
 20
3.4533
  0
VERTEX
  8
LAYER10
 62
     1
  6
CONTINUOUS
 10
12.0463
 20
3.4533
  0
VERTEX
  8
LAYER10
 62
     1
  6
CONTINUOUS
 10
12.0463
 20
3.4533
  0
VERTEX
  8
LAYER10
 62
     1
  6
CONTINUOUS
 10
12.0463
 20
3.4533
  0
VERTEX
  8
LAYER10
 62
     1
  6
CONTINUOUS
 10
12.0463
 20
3.4533
  0
VERTEX
  8
LAYER10
 62
     1
  6
CONTINUOUS
 10
12.0463
 20
3.4533
  0
VERTEX
  8
LAYER10
 62
     1
  6
CONTINUOUS
 10
12.0463
 20
3.4533
  0
VERTEX
  8
LAYER10
 62
     1
  6
CONTINUOUS
 10
12.0463
 20
3.4533
  0
VERTEX
  8
LAYER10
 62
     1
  6
CONTINUOUS
 10
12.0463
 20
3.4533
  0
VERTEX
  8
LAYER10
 62
     1
  6
CONTINUOUS
 10
12.0463
 20
3.4533
  0
VERTEX
  8
LAYER10
 62
     1
  6
CONTINUOUS
 10
12.0463
 20
3.4533
  0
VERTEX
  8
LAYER10
 62
     1
  6
CONTINUOUS
 10
12.0463
 20
3.4533
  0
VERTEX
  8
LAYER10
 62
     1
  6
CONTINUOUS
 10
12.0463
 20
3.4533
  0
VERTEX
  8
LAYER10
 62
     1
  6
CONTINUOUS
 10
12.0463
 20
3.4533
  0
VERTEX
  8
LAYER10
 62
     1
  6
CONTINUOUS
 10
12.0463
 20
3.4533
  0
VERTEX
  8
LAYER10
 62
     1
  6
CONTINUOUS
 10
12.0463
 20
3.4533
  0
SEQEND
  8
LAYER10
  0
POLYLINE
  8
LAYER10
 62
     1
 66
     1
  6
CONTINUOUS
  0
VERTEX
  8
LAYER10
 62
     1
  6
CONTINUOUS
 10
12.0463
 20
3.4533
  0
VERTEX
  8
LAYER10
 62
     1
  6
CONTINUOUS
 10
12.0469
 20
3.4562
  0
VERTEX
  8
LAYER10
 62
     1
  6
CONTINUOUS
 10
12.0475
 20
3.4591
  0
VERTEX
  8
LAYER10
 62
     1
  6
CONTINUOUS
 10
12.0481
 20
3.4619
  0
VERTEX
  8
LAYER10
 62
     1
  6
CONTINUOUS
 10
12.0487
 20
3.4646
  0
VERTEX
  8
LAYER10
 62
     1
  6
CONTINUOUS
 10
12.0492
 20
3.4672
  0
VERTEX
  8
LAYER10
 62
     1
  6
CONTINUOUS
 10
12.0497
 20
3.4695
  0
VERTEX
  8
LAYER10
 62
     1
  6
CONTINUOUS
 10
12.0502
 20
3.4717
  0
VERTEX
  8
LAYER10
 62
     1
  6
CONTINUOUS
 10
12.0506
 20
3.4736
  0
VERTEX
  8
LAYER10
 62
     1
  6
CONTINUOUS
 10
12.0509
 20
3.4752
  0
VERTEX
  8
LAYER10
 62
     1
  6
CONTINUOUS
 10
12.0512
 20
3.4765
  0
VERTEX
  8
LAYER10
 62
     1
  6
CONTINUOUS
 10
12.0514
 20
3.4774
  0
VERTEX
  8
LAYER10
 62
     1
  6
CONTINUOUS
 10
12.0515
 20
3.4779
  0
VERTEX
  8
LAYER10
 62
     1
  6
CONTINUOUS
 10
12.0515
 20
3.4780
  0
VERTEX
  8
LAYER10
 62
     1
  6
CONTINUOUS
 10
12.0515
 20
3.4780
  0
VERTEX
  8
LAYER10
 62
     1
  6
CONTINUOUS
 10
12.0515
 20
3.4780
  0
VERTEX
  8
LAYER10
 62
     1
  6
CONTINUOUS
 10
12.0515
 20
3.4781
  0
VERTEX
  8
LAYER10
 62
     1
  6
CONTINUOUS
 10
12.0515
 20
3.4781
  0
VERTEX
  8
LAYER10
 62
     1
  6
CONTINUOUS
 10
12.0515
 20
3.4781
  0
VERTEX
  8
LAYER10
 62
     1
  6
CONTINUOUS
 10
12.0515
 20
3.4780
  0
VERTEX
  8
LAYER10
 62
     1
  6
CONTINUOUS
 10
12.0515
 20
3.4780
  0
VERTEX
  8
LAYER10
 62
     1
  6
CONTINUOUS
 10
12.0515
 20
3.4780
  0
VERTEX
  8
LAYER10
 62
     1
  6
CONTINUOUS
 10
12.0515
 20
3.4780
  0
VERTEX
  8
LAYER10
 62
     1
  6
CONTINUOUS
 10
12.0515
 20
3.4780
  0
VERTEX
  8
LAYER10
 62
     1
  6
CONTINUOUS
 10
12.0515
 20
3.4779
  0
SEQEND
  8
LAYER10
  0
POLYLINE
  8
LAYER12
 62
     5
 66
     1
  6
CONTINUOUS
  0
VERTEX
  8
LAYER12
 62
     5
  6
CONTINUOUS
 10
13.0265
 20
3.5331
  0
VERTEX
  8
LAYER12
 62
     5
  6
CONTINUOUS
 10
12.0515
 20
3.5331
  0
SEQEND
  8
LAYER12
  0
POLYLINE
  8
LAYER12
 62
     5
 66
     1
  6
CONTINUOUS
  0
VERTEX
  8
LAYER12
 62
     5
  6
CONTINUOUS
 10
12.0465
 20
3.5302
  0
VERTEX
  8
LAYER12
 62
     5
  6
CONTINUOUS
 10
12.0465
 20
3.5261
  0
SEQEND
  8
LAYER12
  0
POLYLINE
  8
LAYER12
 62
     5
 66
     1
  6
CONTINUOUS
  0
VERTEX
  8
LAYER12
 62
     5
  6
CONTINUOUS
 10
12.0465
 20
3.5261
  0
VERTEX
  8
LAYER12
 62
     5
  6
CONTINUOUS
 10
12.0465
 20
2.5515
  0
SEQEND
  8
LAYER12
  0
POLYLINE
  8
LAYER12
 62
     5
 66
     1
  6
CONTINUOUS
  0
VERTEX
  8
LAYER12
 62
     5
  6
CONTINUOUS
 10
12.0465
 20
2.5515
  0
VERTEX
  8
LAYER12
 62
     5
  6
CONTINUOUS
 10
12.0465
 20
2.5516
  0
SEQEND
  8
LAYER12
  0
POLYLINE
  8
LAYER12
 62
     5
 66
     1
  6
CONTINUOUS
  0
VERTEX
  8
LAYER12
 62
     5
  6
CONTINUOUS
 10
12.0465
 20
2.5516
  0
VERTEX
  8
LAYER12
 62
     5
  6
CONTINUOUS
 10
12.0465
 20
2.5515
  0
SEQEND
  8
LAYER12
  0
POLYLINE
  8
LAYER12
 62
     5
 66
     1
  6
CONTINUOUS
  0
VERTEX
  8
LAYER12
 62
     5
  6
CONTINUOUS
 10
13.0302
 20
2.5515
  0
VERTEX
  8
LAYER12
 62
     5
  6
CONTINUOUS
 10
13.0302
 20
3.5302
  0
SEQEND
  8
LAYER12
  0
POLYLINE
  8
LAYER12
 62
     5
 66
     1
  6
CONTINUOUS
  0
VERTEX
  8
LAYER12
 62
     5
  6
CONTINUOUS
 10
12.0515
 20
2.5494
  0
VERTEX
  8
LAYER12
 62
     5
  6
CONTINUOUS
 10
13.0308
 20
2.5494
  0
SEQEND
  8
LAYER12
  0
POLYLINE
  8
LAYER12
 62
     5
 66
     1
  6
CONTINUOUS
  0
VERTEX
  8
LAYER12
 62
     5
  6
CONTINUOUS
 10
12.0463
 20
2.5494
  0
VERTEX
  8
LAYER12
 62
     5
  6
CONTINUOUS
 10
12.0515
 20
2.5494
  0
SEQEND
  8
LAYER12
  0
POLYLINE
  8
LAYER12
 62
     5
 66
     1
  6
CONTINUOUS
  0
VERTEX
  8
LAYER12
 62
     5
  6
CONTINUOUS
 10
12.0465
 20
2.5515
  0
VERTEX
  8
LAYER12
 62
     5
  6
CONTINUOUS
 10
12.0465
 20
2.5479
  0
SEQEND
  8
LAYER12
  0
POLYLINE
  8
LAYER12
 62
     5
 66
     1
  6
CONTINUOUS
  0
VERTEX
  8
LAYER12
 62
     5
  6
CONTINUOUS
 10
12.0465
 20
2.5479
  0
VERTEX
  8
LAYER12
 62
     5
  6
CONTINUOUS
 10
12.0465
 20
2.5474
  0
SEQEND
  8
LAYER12
  0
POLYLINE
  8
LAYER12
 62
     5
 66
     1
  6
CONTINUOUS
  0
VERTEX
  8
LAYER12
 62
     5
  6
CONTINUOUS
 10
13.0302
 20
2.5479
  0
VERTEX
  8
LAYER12
 62
     5
  6
CONTINUOUS
 10
13.0302
 20
2.5515
  0
SEQEND
  8
LAYER12
  0
POLYLINE
  8
LAYER12
 62
     5
 66
     1
  6
CONTINUOUS
  0
VERTEX
  8
LAYER12
 62
     5
  6
CONTINUOUS
 10
13.0302
 20
3.5302
  0
VERTEX
  8
LAYER12
 62
     5
  6
CONTINUOUS
 10
13.0302
 20
3.5360
  0
SEQEND
  8
LAYER12
  0
POLYLINE
  8
LAYER12
 62
     5
 66
     1
  6
CONTINUOUS
  0
VERTEX
  8
LAYER12
 62
     5
  6
CONTINUOUS
 10
13.0308
 20
3.5331
  0
VERTEX
  8
LAYER12
 62
     5
  6
CONTINUOUS
 10
13.0265
 20
3.5331
  0
SEQEND
  8
LAYER12
  0
POLYLINE
  8
LAYER12
 62
     5
 66
     1
  6
CONTINUOUS
  0
VERTEX
  8
LAYER12
 62
     5
  6
CONTINUOUS
 10
12.0465
 20
3.5360
  0
VERTEX
  8
LAYER12
 62
     5
  6
CONTINUOUS
 10
12.0465
 20
3.5302
  0
SEQEND
  8
LAYER12
  0
POLYLINE
  8
LAYER12
 62
     5
 66
     1
  6
CONTINUOUS
  0
VERTEX
  8
LAYER12
 62
     5
  6
CONTINUOUS
 10
12.0515
 20
3.5331
  0
VERTEX
  8
LAYER12
 62
     5
  6
CONTINUOUS
 10
12.0463
 20
3.5331
  0
SEQEND
  8
LAYER12
  0
POLYLINE
  8
LAYER12
 62
     5
 66
     1
  6
CONTINUOUS
  0
VERTEX
  8
LAYER12
 62
     5
  6
CONTINUOUS
 10
12.0463
 20
3.5331
  0
VERTEX
  8
LAYER12
 62
     5
  6
CONTINUOUS
 10
12.0463
 20
3.5331
  0
SEQEND
  8
LAYER12
  0
POLYLINE
  8
LAYER12
 62
     5
 66
     1
  6
CONTINUOUS
  0
VERTEX
  8
LAYER12
 62
     5
  6
CONTINUOUS
 10
12.0463
 20
3.5331
  0
VERTEX
  8
LAYER12
 62
     5
  6
CONTINUOUS
 10
12.0456
 20
3.5331
  0
SEQEND
  8
LAYER12
  0
ENDSEC
  0
EOF
