  0
SECTION
  2
HEADER
  9
$ACADVER
  1
AC1004
  9
$EXTMIN
 10
8.0330
 20
2.5494
  9
$EXTMAX
 10
9.0570
 20
3.5341
  9
$LIMMIN
 10
8.0330
 20
2.5494
  9
$LIMMAX
 10
9.0570
 20
3.5341
  9
$INSBASE
 10
0.0
 20
0.0
  9
$VIEWCTR
 10
7.21903
 20
4.5
  9
$VIEWSIZE
 40
9.0
  9
$SNAPMODE
 70
     0
  9
$SNAPUNIT
 10
1.0
 20
1.0
  9
$SNAPBASE
 10
0.0
 20
0.0
  9
$SNAPANG
 50
0.0
  9
$SNAPSTYLE
 70
     0
  9
$SNAPISOPAIR
 70
     0
  9
$GRIDMODE
 70
     0
  9
$GRIDUNIT
 10
0.0
 20
0.0
  9
$ORTHOMODE
 70
     0
  9
$REGENMODE
 70
     1
  9
$FILLMODE
 70
     1
  9
$QTEXTMODE
 70
     0
  9
$DRAGMODE
 70
     2
  9
$LTSCALE
 40
1.0
  9
$OSMODE
 70
     0
  9
$ATTMODE
 70
     1
  9
$TEXTSIZE
 40
0.2
  9
$TRACEWID
 40
0.05
  9
$TEXTSTYLE
  7
STANDARD
  9
$CLAYER
  8
0
  9
$CELTYPE
  6
BYLAYER
  9
$CECOLOR
 62
   256
  9
$DIMSCALE
 40
1.0
  9
$DIMASZ
 40
0.18
  9
$DIMEXO
 40
0.0625
  9
$DIMDLI
 40
0.38
  9
$DIMRND
 40
0.0
  9
$DIMDLE
 40
0.0
  9
$DIMEXE
 40
0.18
  9
$DIMTP
 40
0.0
  9
$DIMTM
 40
0.0
  9
$DIMTXT
 40
0.18
  9
$DIMCEN
 40
0.09
  9
$DIMTSZ
 40
0.0
  9
$DIMTOL
 70
     0
  9
$DIMLIM
 70
     0
  9
$DIMTIH
 70
     1
  9
$DIMTOH
 70
     1
  9
$DIMSE1
 70
     0
  9
$DIMSE2
 70
     0
  9
$DIMTAD
 70
     0
  9
$DIMZIN
 70
     0
  9
$DIMBLK
  1

  9
$DIMASO
 70
     1
  9
$DIMSHO
 70
     0
  9
$DIMPOST
  1

  9
$DIMAPOST
  1

  9
$DIMALT
 70
     0
  9
$DIMALTD
 70
     2
  9
$DIMALTF
 40
25.4
  9
$DIMLFAC
 40
1.0
  9
$LUNITS
 70
     2
  9
$LUPREC
 70
     4
  9
$AXISMODE
 70
     0
  9
$AXISUNIT
 10
0.0
 20
0.0
  9
$SKETCHINC
 40
0.1
  9
$FILLETRAD
 40
0.0
  9
$AUNITS
 70
     0
  9
$AUPREC
 70
     0
  9
$MENU
  1
acad
  9
$ELEVATION
 40
0.0
  9
$THICKNESS
 40
0.0
  9
$VIEWDIR
 10
0.0
 20
0.0
 30
1.0
  9
$LIMCHECK
 70
     0
  9
$BLIPMODE
 70
     1
  9
$CHAMFERA
 40
0.0
  9
$CHAMFERB
 40
0.0
  9
$FASTZOOM
 70
     1
  9
$SKPOLY
 70
     0
  9
$TDCREATE
 40
2447222.5666886573
  9
$TDUPDATE
 40
2447222.5666886573
  9
$TDINDWG
 40
0.0000000000
  9
$TDUSRTIMER
 40
0.0000000000
  9
$USRTIMER
 70
     1
  9
$ANGBASE
 50
0.0
  9
$ANGDIR
 70
     0
  9
$PDMODE
 70
     0
  9
$PDSIZE
 40
0.0
  9
$PLINEWID
 40
0.0
  9
$COORDS
 70
     0
  9
$SPLFRAME
 70
     0
  9
$SPLINESEGS
 70
     8
  9
$ATTDIA
 70
     0
  9
$ATTREQ
 70
     1
  9
$USERI1
 70
     0
  9
$USERI2
 70
     0
  9
$USERI3
 70
     0
  9
$USERI4
 70
     0
  9
$USERI5
 70
     0
  9
$USERR1
 40
0.0
  9
$USERR2
 40
0.0
  9
$USERR3
 40
0.0
  9
$USERR4
 40
0.0
  9
$USERR5
 40
0.0
  0
ENDSEC
  0
SECTION
  2
TABLES
  0
TABLE
  2
LTYPE
 70
     13
  0
LTYPE
  2
CONTINUOUS
 70
    64
  3
Solid line
 72
    65
 73
     0
 40
0.0
  0
LTYPE
  2
DASHED
 70
    64
  3
__ __ __ __ __ __ __ __ __ __ __ __ __ __ __
 72
    65
 73
     2
 40
0.75
 49
0.5
 49
-0.25
  0
LTYPE
  2
HIDDEN
 70
    64
  3
_ _ _ _ _ _ _ _ _ _ _ _ _ _ _ _ _ _ _ _ _ _ _
 72
    65
 73
     2
 40
0.375
 49
0.25
 49
-0.125
  0
LTYPE
  2
CENTER
 70
    64
  3
____ _ ____ _ ____ _ ____ _ ____ _ ____ _ ____
 72
    65
 73
     4
 40
2.0
 49
1.25
 49
-0.25
 49
0.25
 49
-0.25
  0
LTYPE
  2
PHANTOM
 70
    64
  3
_____ _ _ _____ _ _ _____ _ _ _____ _ _ ____
 72
    65
 73
     6
 40
2.5
 49
1.25
 49
-0.25
 49
0.25
 49
-0.25
 49
0.25
 49
-0.25
  0
LTYPE
  2
DOT
 70
    64
  3
...............................................
 72
    65
 73
     2
 40
0.25
 49
0.0
 49
-0.25
  0
LTYPE
  2
DASHDOT
 70
    64
  3
__ . __ . __ . __ . __ . __ . __ . __ . __ . __
 72
    65
 73
     4
 40
1.0
 49
0.5
 49
-0.25
 49
0.0
 49
-0.25
  0
LTYPE
  2
BORDER
 70
    64
  3
__ __ . __ __ . __ __ . __ __ . __ __ . __ __
 72
    65
 73
     6
 40
1.75
 49
0.5
 49
-0.25
 49
0.5
 49
-0.25
 49
0.0
 49
-0.25
  0
LTYPE
  2
DIVIDE
 70
    64
  3
__ . . __ . . __ . . __ . . __ . . __ . . __
 72
    65
 73
     6
 40
1.25
 49
0.5
 49
-0.25
 49
0.0
 49
-0.25
 49
0.0
 49
-0.25
  0
LTYPE
  2
DCTYPE1
 70
    64
  3
__ . . __ . . __ . . __ . . __ . . __ . . __
 72
    65
 73
     8
 40
2.5
 49
0.5
 49
-0.25
 49
0.125
 49
-0.25
 49
0.25
 49
-0.25
 49
0.125
 49
-0.25
  0
LTYPE
  2
DCTYPE2
 70
    64
  3
__ . . __ . . __ . . __ . . __ . . __ . . __
 72
    65
 73
     6
 40
2.05
 49
1.0
 49
-0.3
 49
0.15
 49
-0.15
 49
0.15
 49
-0.3
  0
LTYPE
  2
DCTYPE3
 70
    64
  3
__ . . __ . . __ . . __ . . __ . . __ . . __
 72
    65
 73
     6
 40
2.5
 49
0.8
 49
-0.2
 49
0.8
 49
-0.2
 49
0.3
 49
-0.2
  0
LTYPE
  2
DCTYPE4
 70
    64
  3
__ . . __ . . __ . . __ . . __ . . __ . . __
 72
    65
 73
     10
 40
3.97
 49
1.75
 49
-0.3
 49
0.3
 49
-0.3
 49
0.06
 49
-0.3
 49
0.06
 49
-0.3
 49
0.3
 49
-0.3
  0
ENDTAB
  0
TABLE
  2
LAYER
 70
    153
  0
LAYER
  2
LAYER1
 70
 64
 62
     7
  6
CONTINUOUS
  0
LAYER
  2
LAYER10
 70
 64
 62
     1
  6
CONTINUOUS
  0
LAYER
  2
LAYER12
 70
 64
 62
     5
  6
CONTINUOUS
  0
ENDTAB
  0
ENDSEC
  0
SECTION
  2
BLOCKS
  0
ENDSEC
  0
SECTION
  2
ENTITIES
  0
CIRCLE
  8
LAYER1
 62
     7
  6
CONTINUOUS
 10
8.1807
 20
2.8814
 40
0.0202
  0
CIRCLE
  8
LAYER1
 62
     7
  6
CONTINUOUS
 10
8.2166
 20
2.6564
 40
0.0319
  0
CIRCLE
  8
LAYER1
 62
     7
  6
CONTINUOUS
 10
8.3240
 20
2.6806
 40
0.0158
  0
CIRCLE
  8
LAYER1
 62
     7
  6
CONTINUOUS
 10
8.4782
 20
2.7581
 40
0.0365
  0
CIRCLE
  8
LAYER1
 62
     7
  6
CONTINUOUS
 10
8.5214
 20
3.0519
 40
0.0177
  0
CIRCLE
  8
LAYER1
 62
     7
  6
CONTINUOUS
 10
9.0258
 20
3.3326
 40
0.0207
  0
POLYLINE
  8
LAYER1
 62
     7
 66
     1
  6
CONTINUOUS
  0
VERTEX
  8
LAYER1
 62
     7
  6
CONTINUOUS
 10
8.2187
 20
3.5341
  0
VERTEX
  8
LAYER1
 62
     7
  6
CONTINUOUS
 10
8.2187
 20
3.5341
  0
VERTEX
  8
LAYER1
 62
     7
  6
CONTINUOUS
 10
8.2187
 20
3.5341
  0
VERTEX
  8
LAYER1
 62
     7
  6
CONTINUOUS
 10
8.2187
 20
3.5341
  0
VERTEX
  8
LAYER1
 62
     7
  6
CONTINUOUS
 10
8.2187
 20
3.5341
  0
VERTEX
  8
LAYER1
 62
     7
  6
CONTINUOUS
 10
8.2187
 20
3.5341
  0
VERTEX
  8
LAYER1
 62
     7
  6
CONTINUOUS
 10
8.2187
 20
3.5341
  0
VERTEX
  8
LAYER1
 62
     7
  6
CONTINUOUS
 10
8.2187
 20
3.5341
  0
VERTEX
  8
LAYER1
 62
     7
  6
CONTINUOUS
 10
8.2187
 20
3.5341
  0
VERTEX
  8
LAYER1
 62
     7
  6
CONTINUOUS
 10
8.2187
 20
3.5341
  0
VERTEX
  8
LAYER1
 62
     7
  6
CONTINUOUS
 10
8.2187
 20
3.5341
  0
VERTEX
  8
LAYER1
 62
     7
  6
CONTINUOUS
 10
8.2187
 20
3.5341
  0
VERTEX
  8
LAYER1
 62
     7
  6
CONTINUOUS
 10
8.2187
 20
3.5341
  0
VERTEX
  8
LAYER1
 62
     7
  6
CONTINUOUS
 10
8.2187
 20
3.5341
  0
VERTEX
  8
LAYER1
 62
     7
  6
CONTINUOUS
 10
8.2187
 20
3.5341
  0
VERTEX
  8
LAYER1
 62
     7
  6
CONTINUOUS
 10
8.2187
 20
3.5341
  0
VERTEX
  8
LAYER1
 62
     7
  6
CONTINUOUS
 10
8.2187
 20
3.5341
  0
VERTEX
  8
LAYER1
 62
     7
  6
CONTINUOUS
 10
8.2187
 20
3.5341
  0
VERTEX
  8
LAYER1
 62
     7
  6
CONTINUOUS
 10
8.2187
 20
3.5341
  0
VERTEX
  8
LAYER1
 62
     7
  6
CONTINUOUS
 10
8.2187
 20
3.5341
  0
VERTEX
  8
LAYER1
 62
     7
  6
CONTINUOUS
 10
8.2187
 20
3.5341
  0
VERTEX
  8
LAYER1
 62
     7
  6
CONTINUOUS
 10
8.2187
 20
3.5341
  0
VERTEX
  8
LAYER1
 62
     7
  6
CONTINUOUS
 10
8.2187
 20
3.5341
  0
VERTEX
  8
LAYER1
 62
     7
  6
CONTINUOUS
 10
8.2187
 20
3.5341
  0
VERTEX
  8
LAYER1
 62
     7
  6
CONTINUOUS
 10
8.2187
 20
3.5341
  0
SEQEND
  8
LAYER1
  0
POLYLINE
  8
LAYER1
 62
     7
 66
     1
  6
CONTINUOUS
  0
VERTEX
  8
LAYER1
 62
     7
  6
CONTINUOUS
 10
8.2416
 20
2.8297
  0
VERTEX
  8
LAYER1
 62
     7
  6
CONTINUOUS
 10
8.2409
 20
2.8339
  0
VERTEX
  8
LAYER1
 62
     7
  6
CONTINUOUS
 10
8.2402
 20
2.8381
  0
VERTEX
  8
LAYER1
 62
     7
  6
CONTINUOUS
 10
8.2395
 20
2.8424
  0
VERTEX
  8
LAYER1
 62
     7
  6
CONTINUOUS
 10
8.2387
 20
2.8466
  0
VERTEX
  8
LAYER1
 62
     7
  6
CONTINUOUS
 10
8.2380
 20
2.8508
  0
VERTEX
  8
LAYER1
 62
     7
  6
CONTINUOUS
 10
8.2371
 20
2.8550
  0
VERTEX
  8
LAYER1
 62
     7
  6
CONTINUOUS
 10
8.2363
 20
2.8592
  0
VERTEX
  8
LAYER1
 62
     7
  6
CONTINUOUS
 10
8.2353
 20
2.8633
  0
VERTEX
  8
LAYER1
 62
     7
  6
CONTINUOUS
 10
8.2343
 20
2.8674
  0
VERTEX
  8
LAYER1
 62
     7
  6
CONTINUOUS
 10
8.2333
 20
2.8715
  0
VERTEX
  8
LAYER1
 62
     7
  6
CONTINUOUS
 10
8.2321
 20
2.8756
  0
VERTEX
  8
LAYER1
 62
     7
  6
CONTINUOUS
 10
8.2308
 20
2.8796
  0
VERTEX
  8
LAYER1
 62
     7
  6
CONTINUOUS
 10
8.2285
 20
2.8861
  0
VERTEX
  8
LAYER1
 62
     7
  6
CONTINUOUS
 10
8.2260
 20
2.8924
  0
VERTEX
  8
LAYER1
 62
     7
  6
CONTINUOUS
 10
8.2233
 20
2.8987
  0
VERTEX
  8
LAYER1
 62
     7
  6
CONTINUOUS
 10
8.2204
 20
2.9049
  0
VERTEX
  8
LAYER1
 62
     7
  6
CONTINUOUS
 10
8.2174
 20
2.9111
  0
VERTEX
  8
LAYER1
 62
     7
  6
CONTINUOUS
 10
8.2142
 20
2.9172
  0
VERTEX
  8
LAYER1
 62
     7
  6
CONTINUOUS
 10
8.2109
 20
2.9234
  0
VERTEX
  8
LAYER1
 62
     7
  6
CONTINUOUS
 10
8.2077
 20
2.9295
  0
VERTEX
  8
LAYER1
 62
     7
  6
CONTINUOUS
 10
8.2043
 20
2.9356
  0
VERTEX
  8
LAYER1
 62
     7
  6
CONTINUOUS
 10
8.2010
 20
2.9418
  0
VERTEX
  8
LAYER1
 62
     7
  6
CONTINUOUS
 10
8.1978
 20
2.9480
  0
VERTEX
  8
LAYER1
 62
     7
  6
CONTINUOUS
 10
8.1946
 20
2.9542
  0
VERTEX
  8
LAYER1
 62
     7
  6
CONTINUOUS
 10
8.1922
 20
2.9592
  0
VERTEX
  8
LAYER1
 62
     7
  6
CONTINUOUS
 10
8.1898
 20
2.9642
  0
VERTEX
  8
LAYER1
 62
     7
  6
CONTINUOUS
 10
8.1875
 20
2.9692
  0
VERTEX
  8
LAYER1
 62
     7
  6
CONTINUOUS
 10
8.1853
 20
2.9743
  0
VERTEX
  8
LAYER1
 62
     7
  6
CONTINUOUS
 10
8.1831
 20
2.9793
  0
VERTEX
  8
LAYER1
 62
     7
  6
CONTINUOUS
 10
8.1809
 20
2.9843
  0
VERTEX
  8
LAYER1
 62
     7
  6
CONTINUOUS
 10
8.1788
 20
2.9894
  0
VERTEX
  8
LAYER1
 62
     7
  6
CONTINUOUS
 10
8.1767
 20
2.9944
  0
VERTEX
  8
LAYER1
 62
     7
  6
CONTINUOUS
 10
8.1747
 20
2.9993
  0
VERTEX
  8
LAYER1
 62
     7
  6
CONTINUOUS
 10
8.1727
 20
3.0043
  0
VERTEX
  8
LAYER1
 62
     7
  6
CONTINUOUS
 10
8.1707
 20
3.0092
  0
VERTEX
  8
LAYER1
 62
     7
  6
CONTINUOUS
 10
8.1687
 20
3.0140
  0
VERTEX
  8
LAYER1
 62
     7
  6
CONTINUOUS
 10
8.1668
 20
3.0185
  0
VERTEX
  8
LAYER1
 62
     7
  6
CONTINUOUS
 10
8.1649
 20
3.0230
  0
VERTEX
  8
LAYER1
 62
     7
  6
CONTINUOUS
 10
8.1631
 20
3.0275
  0
VERTEX
  8
LAYER1
 62
     7
  6
CONTINUOUS
 10
8.1614
 20
3.0321
  0
VERTEX
  8
LAYER1
 62
     7
  6
CONTINUOUS
 10
8.1597
 20
3.0367
  0
VERTEX
  8
LAYER1
 62
     7
  6
CONTINUOUS
 10
8.1582
 20
3.0414
  0
VERTEX
  8
LAYER1
 62
     7
  6
CONTINUOUS
 10
8.1568
 20
3.0463
  0
VERTEX
  8
LAYER1
 62
     7
  6
CONTINUOUS
 10
8.1556
 20
3.0513
  0
VERTEX
  8
LAYER1
 62
     7
  6
CONTINUOUS
 10
8.1545
 20
3.0566
  0
VERTEX
  8
LAYER1
 62
     7
  6
CONTINUOUS
 10
8.1537
 20
3.0621
  0
VERTEX
  8
LAYER1
 62
     7
  6
CONTINUOUS
 10
8.1531
 20
3.0678
  0
VERTEX
  8
LAYER1
 62
     7
  6
CONTINUOUS
 10
8.1527
 20
3.0739
  0
VERTEX
  8
LAYER1
 62
     7
  6
CONTINUOUS
 10
8.1526
 20
3.0823
  0
VERTEX
  8
LAYER1
 62
     7
  6
CONTINUOUS
 10
8.1529
 20
3.0910
  0
VERTEX
  8
LAYER1
 62
     7
  6
CONTINUOUS
 10
8.1535
 20
3.1000
  0
VERTEX
  8
LAYER1
 62
     7
  6
CONTINUOUS
 10
8.1544
 20
3.1089
  0
VERTEX
  8
LAYER1
 62
     7
  6
CONTINUOUS
 10
8.1554
 20
3.1175
  0
VERTEX
  8
LAYER1
 62
     7
  6
CONTINUOUS
 10
8.1566
 20
3.1257
  0
VERTEX
  8
LAYER1
 62
     7
  6
CONTINUOUS
 10
8.1577
 20
3.1333
  0
VERTEX
  8
LAYER1
 62
     7
  6
CONTINUOUS
 10
8.1588
 20
3.1400
  0
VERTEX
  8
LAYER1
 62
     7
  6
CONTINUOUS
 10
8.1599
 20
3.1457
  0
VERTEX
  8
LAYER1
 62
     7
  6
CONTINUOUS
 10
8.1607
 20
3.1500
  0
VERTEX
  8
LAYER1
 62
     7
  6
CONTINUOUS
 10
8.1613
 20
3.1530
  0
VERTEX
  8
LAYER1
 62
     7
  6
CONTINUOUS
 10
8.1615
 20
3.1542
  0
VERTEX
  8
LAYER1
 62
     7
  6
CONTINUOUS
 10
8.1615
 20
3.1542
  0
VERTEX
  8
LAYER1
 62
     7
  6
CONTINUOUS
 10
8.1615
 20
3.1542
  0
VERTEX
  8
LAYER1
 62
     7
  6
CONTINUOUS
 10
8.1615
 20
3.1542
  0
VERTEX
  8
LAYER1
 62
     7
  6
CONTINUOUS
 10
8.1615
 20
3.1542
  0
VERTEX
  8
LAYER1
 62
     7
  6
CONTINUOUS
 10
8.1615
 20
3.1542
  0
VERTEX
  8
LAYER1
 62
     7
  6
CONTINUOUS
 10
8.1615
 20
3.1542
  0
VERTEX
  8
LAYER1
 62
     7
  6
CONTINUOUS
 10
8.1615
 20
3.1542
  0
VERTEX
  8
LAYER1
 62
     7
  6
CONTINUOUS
 10
8.1615
 20
3.1542
  0
VERTEX
  8
LAYER1
 62
     7
  6
CONTINUOUS
 10
8.1615
 20
3.1542
  0
VERTEX
  8
LAYER1
 62
     7
  6
CONTINUOUS
 10
8.1615
 20
3.1542
  0
VERTEX
  8
LAYER1
 62
     7
  6
CONTINUOUS
 10
8.1615
 20
3.1542
  0
VERTEX
  8
LAYER1
 62
     7
  6
CONTINUOUS
 10
8.1615
 20
3.1542
  0
VERTEX
  8
LAYER1
 62
     7
  6
CONTINUOUS
 10
8.1615
 20
3.1542
  0
VERTEX
  8
LAYER1
 62
     7
  6
CONTINUOUS
 10
8.1615
 20
3.1542
  0
VERTEX
  8
LAYER1
 62
     7
  6
CONTINUOUS
 10
8.1615
 20
3.1542
  0
VERTEX
  8
LAYER1
 62
     7
  6
CONTINUOUS
 10
8.1615
 20
3.1542
  0
VERTEX
  8
LAYER1
 62
     7
  6
CONTINUOUS
 10
8.1615
 20
3.1542
  0
VERTEX
  8
LAYER1
 62
     7
  6
CONTINUOUS
 10
8.1615
 20
3.1542
  0
VERTEX
  8
LAYER1
 62
     7
  6
CONTINUOUS
 10
8.1615
 20
3.1542
  0
VERTEX
  8
LAYER1
 62
     7
  6
CONTINUOUS
 10
8.1615
 20
3.1542
  0
VERTEX
  8
LAYER1
 62
     7
  6
CONTINUOUS
 10
8.1615
 20
3.1542
  0
VERTEX
  8
LAYER1
 62
     7
  6
CONTINUOUS
 10
8.1615
 20
3.1542
  0
VERTEX
  8
LAYER1
 62
     7
  6
CONTINUOUS
 10
8.1615
 20
3.1542
  0
VERTEX
  8
LAYER1
 62
     7
  6
CONTINUOUS
 10
8.1615
 20
3.1542
  0
VERTEX
  8
LAYER1
 62
     7
  6
CONTINUOUS
 10
8.1615
 20
3.1542
  0
VERTEX
  8
LAYER1
 62
     7
  6
CONTINUOUS
 10
8.1615
 20
3.1542
  0
VERTEX
  8
LAYER1
 62
     7
  6
CONTINUOUS
 10
8.1615
 20
3.1542
  0
VERTEX
  8
LAYER1
 62
     7
  6
CONTINUOUS
 10
8.1615
 20
3.1541
  0
VERTEX
  8
LAYER1
 62
     7
  6
CONTINUOUS
 10
8.1615
 20
3.1541
  0
VERTEX
  8
LAYER1
 62
     7
  6
CONTINUOUS
 10
8.1615
 20
3.1541
  0
VERTEX
  8
LAYER1
 62
     7
  6
CONTINUOUS
 10
8.1615
 20
3.1541
  0
VERTEX
  8
LAYER1
 62
     7
  6
CONTINUOUS
 10
8.1615
 20
3.1541
  0
VERTEX
  8
LAYER1
 62
     7
  6
CONTINUOUS
 10
8.1615
 20
3.1541
  0
VERTEX
  8
LAYER1
 62
     7
  6
CONTINUOUS
 10
8.1615
 20
3.1541
  0
VERTEX
  8
LAYER1
 62
     7
  6
CONTINUOUS
 10
8.1615
 20
3.1542
  0
VERTEX
  8
LAYER1
 62
     7
  6
CONTINUOUS
 10
8.1615
 20
3.1542
  0
VERTEX
  8
LAYER1
 62
     7
  6
CONTINUOUS
 10
8.1616
 20
3.1559
  0
VERTEX
  8
LAYER1
 62
     7
  6
CONTINUOUS
 10
8.1619
 20
3.1597
  0
VERTEX
  8
LAYER1
 62
     7
  6
CONTINUOUS
 10
8.1622
 20
3.1650
  0
VERTEX
  8
LAYER1
 62
     7
  6
CONTINUOUS
 10
8.1626
 20
3.1716
  0
VERTEX
  8
LAYER1
 62
     7
  6
CONTINUOUS
 10
8.1631
 20
3.1790
  0
VERTEX
  8
LAYER1
 62
     7
  6
CONTINUOUS
 10
8.1635
 20
3.1868
  0
VERTEX
  8
LAYER1
 62
     7
  6
CONTINUOUS
 10
8.1640
 20
3.1946
  0
VERTEX
  8
LAYER1
 62
     7
  6
CONTINUOUS
 10
8.1645
 20
3.2020
  0
VERTEX
  8
LAYER1
 62
     7
  6
CONTINUOUS
 10
8.1649
 20
3.2086
  0
VERTEX
  8
LAYER1
 62
     7
  6
CONTINUOUS
 10
8.1652
 20
3.2140
  0
VERTEX
  8
LAYER1
 62
     7
  6
CONTINUOUS
 10
8.1655
 20
3.2177
  0
VERTEX
  8
LAYER1
 62
     7
  6
CONTINUOUS
 10
8.1656
 20
3.2194
  0
VERTEX
  8
LAYER1
 62
     7
  6
CONTINUOUS
 10
8.1656
 20
3.2194
  0
VERTEX
  8
LAYER1
 62
     7
  6
CONTINUOUS
 10
8.1656
 20
3.2195
  0
VERTEX
  8
LAYER1
 62
     7
  6
CONTINUOUS
 10
8.1656
 20
3.2195
  0
VERTEX
  8
LAYER1
 62
     7
  6
CONTINUOUS
 10
8.1656
 20
3.2195
  0
VERTEX
  8
LAYER1
 62
     7
  6
CONTINUOUS
 10
8.1656
 20
3.2195
  0
VERTEX
  8
LAYER1
 62
     7
  6
CONTINUOUS
 10
8.1656
 20
3.2195
  0
VERTEX
  8
LAYER1
 62
     7
  6
CONTINUOUS
 10
8.1656
 20
3.2195
  0
VERTEX
  8
LAYER1
 62
     7
  6
CONTINUOUS
 10
8.1656
 20
3.2195
  0
VERTEX
  8
LAYER1
 62
     7
  6
CONTINUOUS
 10
8.1656
 20
3.2194
  0
VERTEX
  8
LAYER1
 62
     7
  6
CONTINUOUS
 10
8.1656
 20
3.2194
  0
VERTEX
  8
LAYER1
 62
     7
  6
CONTINUOUS
 10
8.1656
 20
3.2194
  0
VERTEX
  8
LAYER1
 62
     7
  6
CONTINUOUS
 10
8.1656
 20
3.2194
  0
VERTEX
  8
LAYER1
 62
     7
  6
CONTINUOUS
 10
8.1656
 20
3.2194
  0
VERTEX
  8
LAYER1
 62
     7
  6
CONTINUOUS
 10
8.1656
 20
3.2194
  0
VERTEX
  8
LAYER1
 62
     7
  6
CONTINUOUS
 10
8.1656
 20
3.2194
  0
VERTEX
  8
LAYER1
 62
     7
  6
CONTINUOUS
 10
8.1656
 20
3.2194
  0
VERTEX
  8
LAYER1
 62
     7
  6
CONTINUOUS
 10
8.1656
 20
3.2194
  0
VERTEX
  8
LAYER1
 62
     7
  6
CONTINUOUS
 10
8.1656
 20
3.2194
  0
VERTEX
  8
LAYER1
 62
     7
  6
CONTINUOUS
 10
8.1656
 20
3.2194
  0
VERTEX
  8
LAYER1
 62
     7
  6
CONTINUOUS
 10
8.1656
 20
3.2194
  0
VERTEX
  8
LAYER1
 62
     7
  6
CONTINUOUS
 10
8.1656
 20
3.2194
  0
VERTEX
  8
LAYER1
 62
     7
  6
CONTINUOUS
 10
8.1656
 20
3.2194
  0
VERTEX
  8
LAYER1
 62
     7
  6
CONTINUOUS
 10
8.1656
 20
3.2194
  0
VERTEX
  8
LAYER1
 62
     7
  6
CONTINUOUS
 10
8.1656
 20
3.2194
  0
VERTEX
  8
LAYER1
 62
     7
  6
CONTINUOUS
 10
8.1656
 20
3.2194
  0
VERTEX
  8
LAYER1
 62
     7
  6
CONTINUOUS
 10
8.1656
 20
3.2194
  0
VERTEX
  8
LAYER1
 62
     7
  6
CONTINUOUS
 10
8.1656
 20
3.2194
  0
VERTEX
  8
LAYER1
 62
     7
  6
CONTINUOUS
 10
8.1656
 20
3.2194
  0
VERTEX
  8
LAYER1
 62
     7
  6
CONTINUOUS
 10
8.1656
 20
3.2193
  0
VERTEX
  8
LAYER1
 62
     7
  6
CONTINUOUS
 10
8.1656
 20
3.2193
  0
VERTEX
  8
LAYER1
 62
     7
  6
CONTINUOUS
 10
8.1656
 20
3.2193
  0
VERTEX
  8
LAYER1
 62
     7
  6
CONTINUOUS
 10
8.1656
 20
3.2193
  0
VERTEX
  8
LAYER1
 62
     7
  6
CONTINUOUS
 10
8.1656
 20
3.2193
  0
VERTEX
  8
LAYER1
 62
     7
  6
CONTINUOUS
 10
8.1656
 20
3.2193
  0
VERTEX
  8
LAYER1
 62
     7
  6
CONTINUOUS
 10
8.1656
 20
3.2194
  0
VERTEX
  8
LAYER1
 62
     7
  6
CONTINUOUS
 10
8.1656
 20
3.2194
  0
VERTEX
  8
LAYER1
 62
     7
  6
CONTINUOUS
 10
8.1657
 20
3.2209
  0
VERTEX
  8
LAYER1
 62
     7
  6
CONTINUOUS
 10
8.1659
 20
3.2241
  0
VERTEX
  8
LAYER1
 62
     7
  6
CONTINUOUS
 10
8.1663
 20
3.2286
  0
VERTEX
  8
LAYER1
 62
     7
  6
CONTINUOUS
 10
8.1667
 20
3.2342
  0
VERTEX
  8
LAYER1
 62
     7
  6
CONTINUOUS
 10
8.1672
 20
3.2404
  0
VERTEX
  8
LAYER1
 62
     7
  6
CONTINUOUS
 10
8.1677
 20
3.2470
  0
VERTEX
  8
LAYER1
 62
     7
  6
CONTINUOUS
 10
8.1682
 20
3.2536
  0
VERTEX
  8
LAYER1
 62
     7
  6
CONTINUOUS
 10
8.1686
 20
3.2598
  0
VERTEX
  8
LAYER1
 62
     7
  6
CONTINUOUS
 10
8.1690
 20
3.2653
  0
VERTEX
  8
LAYER1
 62
     7
  6
CONTINUOUS
 10
8.1694
 20
3.2699
  0
VERTEX
  8
LAYER1
 62
     7
  6
CONTINUOUS
 10
8.1696
 20
3.2731
  0
VERTEX
  8
LAYER1
 62
     7
  6
CONTINUOUS
 10
8.1697
 20
3.2746
  0
VERTEX
  8
LAYER1
 62
     7
  6
CONTINUOUS
 10
8.1697
 20
3.2746
  0
VERTEX
  8
LAYER1
 62
     7
  6
CONTINUOUS
 10
8.1697
 20
3.2747
  0
VERTEX
  8
LAYER1
 62
     7
  6
CONTINUOUS
 10
8.1697
 20
3.2747
  0
VERTEX
  8
LAYER1
 62
     7
  6
CONTINUOUS
 10
8.1697
 20
3.2747
  0
VERTEX
  8
LAYER1
 62
     7
  6
CONTINUOUS
 10
8.1697
 20
3.2747
  0
VERTEX
  8
LAYER1
 62
     7
  6
CONTINUOUS
 10
8.1697
 20
3.2747
  0
VERTEX
  8
LAYER1
 62
     7
  6
CONTINUOUS
 10
8.1697
 20
3.2747
  0
VERTEX
  8
LAYER1
 62
     7
  6
CONTINUOUS
 10
8.1697
 20
3.2747
  0
VERTEX
  8
LAYER1
 62
     7
  6
CONTINUOUS
 10
8.1697
 20
3.2746
  0
VERTEX
  8
LAYER1
 62
     7
  6
CONTINUOUS
 10
8.1697
 20
3.2746
  0
VERTEX
  8
LAYER1
 62
     7
  6
CONTINUOUS
 10
8.1697
 20
3.2746
  0
VERTEX
  8
LAYER1
 62
     7
  6
CONTINUOUS
 10
8.1697
 20
3.2746
  0
VERTEX
  8
LAYER1
 62
     7
  6
CONTINUOUS
 10
8.1697
 20
3.2746
  0
VERTEX
  8
LAYER1
 62
     7
  6
CONTINUOUS
 10
8.1697
 20
3.2746
  0
VERTEX
  8
LAYER1
 62
     7
  6
CONTINUOUS
 10
8.1697
 20
3.2746
  0
VERTEX
  8
LAYER1
 62
     7
  6
CONTINUOUS
 10
8.1697
 20
3.2746
  0
VERTEX
  8
LAYER1
 62
     7
  6
CONTINUOUS
 10
8.1697
 20
3.2746
  0
VERTEX
  8
LAYER1
 62
     7
  6
CONTINUOUS
 10
8.1697
 20
3.2746
  0
VERTEX
  8
LAYER1
 62
     7
  6
CONTINUOUS
 10
8.1697
 20
3.2746
  0
VERTEX
  8
LAYER1
 62
     7
  6
CONTINUOUS
 10
8.1697
 20
3.2746
  0
VERTEX
  8
LAYER1
 62
     7
  6
CONTINUOUS
 10
8.1697
 20
3.2746
  0
VERTEX
  8
LAYER1
 62
     7
  6
CONTINUOUS
 10
8.1697
 20
3.2746
  0
VERTEX
  8
LAYER1
 62
     7
  6
CONTINUOUS
 10
8.1697
 20
3.2746
  0
VERTEX
  8
LAYER1
 62
     7
  6
CONTINUOUS
 10
8.1697
 20
3.2746
  0
VERTEX
  8
LAYER1
 62
     7
  6
CONTINUOUS
 10
8.1697
 20
3.2746
  0
VERTEX
  8
LAYER1
 62
     7
  6
CONTINUOUS
 10
8.1697
 20
3.2746
  0
VERTEX
  8
LAYER1
 62
     7
  6
CONTINUOUS
 10
8.1697
 20
3.2746
  0
VERTEX
  8
LAYER1
 62
     7
  6
CONTINUOUS
 10
8.1697
 20
3.2746
  0
VERTEX
  8
LAYER1
 62
     7
  6
CONTINUOUS
 10
8.1697
 20
3.2746
  0
VERTEX
  8
LAYER1
 62
     7
  6
CONTINUOUS
 10
8.1697
 20
3.2745
  0
VERTEX
  8
LAYER1
 62
     7
  6
CONTINUOUS
 10
8.1697
 20
3.2745
  0
VERTEX
  8
LAYER1
 62
     7
  6
CONTINUOUS
 10
8.1697
 20
3.2745
  0
VERTEX
  8
LAYER1
 62
     7
  6
CONTINUOUS
 10
8.1697
 20
3.2745
  0
VERTEX
  8
LAYER1
 62
     7
  6
CONTINUOUS
 10
8.1697
 20
3.2746
  0
VERTEX
  8
LAYER1
 62
     7
  6
CONTINUOUS
 10
8.1697
 20
3.2746
  0
VERTEX
  8
LAYER1
 62
     7
  6
CONTINUOUS
 10
8.1697
 20
3.2746
  0
VERTEX
  8
LAYER1
 62
     7
  6
CONTINUOUS
 10
8.1703
 20
3.2765
  0
VERTEX
  8
LAYER1
 62
     7
  6
CONTINUOUS
 10
8.1717
 20
3.2808
  0
VERTEX
  8
LAYER1
 62
     7
  6
CONTINUOUS
 10
8.1737
 20
3.2870
  0
VERTEX
  8
LAYER1
 62
     7
  6
CONTINUOUS
 10
8.1761
 20
3.2946
  0
VERTEX
  8
LAYER1
 62
     7
  6
CONTINUOUS
 10
8.1788
 20
3.3032
  0
VERTEX
  8
LAYER1
 62
     7
  6
CONTINUOUS
 10
8.1817
 20
3.3123
  0
VERTEX
  8
LAYER1
 62
     7
  6
CONTINUOUS
 10
8.1846
 20
3.3214
  0
VERTEX
  8
LAYER1
 62
     7
  6
CONTINUOUS
 10
8.1873
 20
3.3300
  0
VERTEX
  8
LAYER1
 62
     7
  6
CONTINUOUS
 10
8.1897
 20
3.3377
  0
VERTEX
  8
LAYER1
 62
     7
  6
CONTINUOUS
 10
8.1917
 20
3.3439
  0
VERTEX
  8
LAYER1
 62
     7
  6
CONTINUOUS
 10
8.1931
 20
3.3482
  0
VERTEX
  8
LAYER1
 62
     7
  6
CONTINUOUS
 10
8.1937
 20
3.3501
  0
VERTEX
  8
LAYER1
 62
     7
  6
CONTINUOUS
 10
8.1937
 20
3.3502
  0
VERTEX
  8
LAYER1
 62
     7
  6
CONTINUOUS
 10
8.1937
 20
3.3502
  0
VERTEX
  8
LAYER1
 62
     7
  6
CONTINUOUS
 10
8.1937
 20
3.3502
  0
VERTEX
  8
LAYER1
 62
     7
  6
CONTINUOUS
 10
8.1937
 20
3.3502
  0
VERTEX
  8
LAYER1
 62
     7
  6
CONTINUOUS
 10
8.1937
 20
3.3502
  0
VERTEX
  8
LAYER1
 62
     7
  6
CONTINUOUS
 10
8.1937
 20
3.3502
  0
VERTEX
  8
LAYER1
 62
     7
  6
CONTINUOUS
 10
8.1937
 20
3.3502
  0
VERTEX
  8
LAYER1
 62
     7
  6
CONTINUOUS
 10
8.1937
 20
3.3502
  0
VERTEX
  8
LAYER1
 62
     7
  6
CONTINUOUS
 10
8.1937
 20
3.3502
  0
VERTEX
  8
LAYER1
 62
     7
  6
CONTINUOUS
 10
8.1937
 20
3.3501
  0
VERTEX
  8
LAYER1
 62
     7
  6
CONTINUOUS
 10
8.1937
 20
3.3501
  0
VERTEX
  8
LAYER1
 62
     7
  6
CONTINUOUS
 10
8.1937
 20
3.3501
  0
VERTEX
  8
LAYER1
 62
     7
  6
CONTINUOUS
 10
8.1937
 20
3.3501
  0
VERTEX
  8
LAYER1
 62
     7
  6
CONTINUOUS
 10
8.1937
 20
3.3501
  0
VERTEX
  8
LAYER1
 62
     7
  6
CONTINUOUS
 10
8.1937
 20
3.3501
  0
VERTEX
  8
LAYER1
 62
     7
  6
CONTINUOUS
 10
8.1937
 20
3.3501
  0
VERTEX
  8
LAYER1
 62
     7
  6
CONTINUOUS
 10
8.1937
 20
3.3501
  0
VERTEX
  8
LAYER1
 62
     7
  6
CONTINUOUS
 10
8.1937
 20
3.3501
  0
VERTEX
  8
LAYER1
 62
     7
  6
CONTINUOUS
 10
8.1937
 20
3.3501
  0
VERTEX
  8
LAYER1
 62
     7
  6
CONTINUOUS
 10
8.1937
 20
3.3501
  0
VERTEX
  8
LAYER1
 62
     7
  6
CONTINUOUS
 10
8.1937
 20
3.3501
  0
VERTEX
  8
LAYER1
 62
     7
  6
CONTINUOUS
 10
8.1937
 20
3.3501
  0
VERTEX
  8
LAYER1
 62
     7
  6
CONTINUOUS
 10
8.1937
 20
3.3501
  0
VERTEX
  8
LAYER1
 62
     7
  6
CONTINUOUS
 10
8.1937
 20
3.3501
  0
VERTEX
  8
LAYER1
 62
     7
  6
CONTINUOUS
 10
8.1937
 20
3.3501
  0
VERTEX
  8
LAYER1
 62
     7
  6
CONTINUOUS
 10
8.1936
 20
3.3501
  0
VERTEX
  8
LAYER1
 62
     7
  6
CONTINUOUS
 10
8.1936
 20
3.3501
  0
VERTEX
  8
LAYER1
 62
     7
  6
CONTINUOUS
 10
8.1936
 20
3.3501
  0
VERTEX
  8
LAYER1
 62
     7
  6
CONTINUOUS
 10
8.1936
 20
3.3501
  0
VERTEX
  8
LAYER1
 62
     7
  6
CONTINUOUS
 10
8.1936
 20
3.3501
  0
VERTEX
  8
LAYER1
 62
     7
  6
CONTINUOUS
 10
8.1936
 20
3.3501
  0
VERTEX
  8
LAYER1
 62
     7
  6
CONTINUOUS
 10
8.1936
 20
3.3501
  0
VERTEX
  8
LAYER1
 62
     7
  6
CONTINUOUS
 10
8.1936
 20
3.3501
  0
VERTEX
  8
LAYER1
 62
     7
  6
CONTINUOUS
 10
8.1936
 20
3.3501
  0
VERTEX
  8
LAYER1
 62
     7
  6
CONTINUOUS
 10
8.1936
 20
3.3501
  0
VERTEX
  8
LAYER1
 62
     7
  6
CONTINUOUS
 10
8.1937
 20
3.3501
  0
VERTEX
  8
LAYER1
 62
     7
  6
CONTINUOUS
 10
8.1943
 20
3.3507
  0
VERTEX
  8
LAYER1
 62
     7
  6
CONTINUOUS
 10
8.1957
 20
3.3521
  0
VERTEX
  8
LAYER1
 62
     7
  6
CONTINUOUS
 10
8.1977
 20
3.3543
  0
VERTEX
  8
LAYER1
 62
     7
  6
CONTINUOUS
 10
8.2004
 20
3.3570
  0
VERTEX
  8
LAYER1
 62
     7
  6
CONTINUOUS
 10
8.2035
 20
3.3604
  0
VERTEX
  8
LAYER1
 62
     7
  6
CONTINUOUS
 10
8.2071
 20
3.3644
  0
VERTEX
  8
LAYER1
 62
     7
  6
CONTINUOUS
 10
8.2111
 20
3.3688
  0
VERTEX
  8
LAYER1
 62
     7
  6
CONTINUOUS
 10
8.2153
 20
3.3736
  0
VERTEX
  8
LAYER1
 62
     7
  6
CONTINUOUS
 10
8.2196
 20
3.3788
  0
VERTEX
  8
LAYER1
 62
     7
  6
CONTINUOUS
 10
8.2241
 20
3.3842
  0
VERTEX
  8
LAYER1
 62
     7
  6
CONTINUOUS
 10
8.2286
 20
3.3899
  0
VERTEX
  8
LAYER1
 62
     7
  6
CONTINUOUS
 10
8.2331
 20
3.3958
  0
VERTEX
  8
LAYER1
 62
     7
  6
CONTINUOUS
 10
8.2385
 20
3.4034
  0
VERTEX
  8
LAYER1
 62
     7
  6
CONTINUOUS
 10
8.2436
 20
3.4111
  0
VERTEX
  8
LAYER1
 62
     7
  6
CONTINUOUS
 10
8.2485
 20
3.4187
  0
VERTEX
  8
LAYER1
 62
     7
  6
CONTINUOUS
 10
8.2529
 20
3.4261
  0
VERTEX
  8
LAYER1
 62
     7
  6
CONTINUOUS
 10
8.2570
 20
3.4331
  0
VERTEX
  8
LAYER1
 62
     7
  6
CONTINUOUS
 10
8.2607
 20
3.4396
  0
VERTEX
  8
LAYER1
 62
     7
  6
CONTINUOUS
 10
8.2640
 20
3.4456
  0
VERTEX
  8
LAYER1
 62
     7
  6
CONTINUOUS
 10
8.2667
 20
3.4508
  0
VERTEX
  8
LAYER1
 62
     7
  6
CONTINUOUS
 10
8.2690
 20
3.4551
  0
VERTEX
  8
LAYER1
 62
     7
  6
CONTINUOUS
 10
8.2706
 20
3.4584
  0
VERTEX
  8
LAYER1
 62
     7
  6
CONTINUOUS
 10
8.2717
 20
3.4606
  0
VERTEX
  8
LAYER1
 62
     7
  6
CONTINUOUS
 10
8.2722
 20
3.4616
  0
VERTEX
  8
LAYER1
 62
     7
  6
CONTINUOUS
 10
8.2722
 20
3.4616
  0
VERTEX
  8
LAYER1
 62
     7
  6
CONTINUOUS
 10
8.2722
 20
3.4616
  0
VERTEX
  8
LAYER1
 62
     7
  6
CONTINUOUS
 10
8.2722
 20
3.4616
  0
VERTEX
  8
LAYER1
 62
     7
  6
CONTINUOUS
 10
8.2722
 20
3.4616
  0
VERTEX
  8
LAYER1
 62
     7
  6
CONTINUOUS
 10
8.2722
 20
3.4616
  0
VERTEX
  8
LAYER1
 62
     7
  6
CONTINUOUS
 10
8.2722
 20
3.4616
  0
VERTEX
  8
LAYER1
 62
     7
  6
CONTINUOUS
 10
8.2722
 20
3.4616
  0
VERTEX
  8
LAYER1
 62
     7
  6
CONTINUOUS
 10
8.2722
 20
3.4616
  0
VERTEX
  8
LAYER1
 62
     7
  6
CONTINUOUS
 10
8.2722
 20
3.4616
  0
VERTEX
  8
LAYER1
 62
     7
  6
CONTINUOUS
 10
8.2722
 20
3.4616
  0
VERTEX
  8
LAYER1
 62
     7
  6
CONTINUOUS
 10
8.2722
 20
3.4616
  0
VERTEX
  8
LAYER1
 62
     7
  6
CONTINUOUS
 10
8.2722
 20
3.4616
  0
VERTEX
  8
LAYER1
 62
     7
  6
CONTINUOUS
 10
8.2722
 20
3.4616
  0
VERTEX
  8
LAYER1
 62
     7
  6
CONTINUOUS
 10
8.2722
 20
3.4616
  0
VERTEX
  8
LAYER1
 62
     7
  6
CONTINUOUS
 10
8.2722
 20
3.4616
  0
VERTEX
  8
LAYER1
 62
     7
  6
CONTINUOUS
 10
8.2722
 20
3.4616
  0
VERTEX
  8
LAYER1
 62
     7
  6
CONTINUOUS
 10
8.2722
 20
3.4616
  0
VERTEX
  8
LAYER1
 62
     7
  6
CONTINUOUS
 10
8.2722
 20
3.4616
  0
VERTEX
  8
LAYER1
 62
     7
  6
CONTINUOUS
 10
8.2722
 20
3.4616
  0
VERTEX
  8
LAYER1
 62
     7
  6
CONTINUOUS
 10
8.2722
 20
3.4616
  0
VERTEX
  8
LAYER1
 62
     7
  6
CONTINUOUS
 10
8.2722
 20
3.4616
  0
VERTEX
  8
LAYER1
 62
     7
  6
CONTINUOUS
 10
8.2722
 20
3.4616
  0
VERTEX
  8
LAYER1
 62
     7
  6
CONTINUOUS
 10
8.2722
 20
3.4616
  0
VERTEX
  8
LAYER1
 62
     7
  6
CONTINUOUS
 10
8.2722
 20
3.4616
  0
VERTEX
  8
LAYER1
 62
     7
  6
CONTINUOUS
 10
8.2722
 20
3.4616
  0
VERTEX
  8
LAYER1
 62
     7
  6
CONTINUOUS
 10
8.2722
 20
3.4615
  0
VERTEX
  8
LAYER1
 62
     7
  6
CONTINUOUS
 10
8.2722
 20
3.4615
  0
VERTEX
  8
LAYER1
 62
     7
  6
CONTINUOUS
 10
8.2722
 20
3.4615
  0
VERTEX
  8
LAYER1
 62
     7
  6
CONTINUOUS
 10
8.2722
 20
3.4615
  0
VERTEX
  8
LAYER1
 62
     7
  6
CONTINUOUS
 10
8.2722
 20
3.4615
  0
VERTEX
  8
LAYER1
 62
     7
  6
CONTINUOUS
 10
8.2722
 20
3.4615
  0
VERTEX
  8
LAYER1
 62
     7
  6
CONTINUOUS
 10
8.2722
 20
3.4615
  0
VERTEX
  8
LAYER1
 62
     7
  6
CONTINUOUS
 10
8.2722
 20
3.4615
  0
VERTEX
  8
LAYER1
 62
     7
  6
CONTINUOUS
 10
8.2722
 20
3.4615
  0
SEQEND
  8
LAYER1
  0
POLYLINE
  8
LAYER1
 62
     7
 66
     1
  6
CONTINUOUS
  0
VERTEX
  8
LAYER1
 62
     7
  6
CONTINUOUS
 10
8.2722
 20
3.4615
  0
VERTEX
  8
LAYER1
 62
     7
  6
CONTINUOUS
 10
8.2722
 20
3.4615
  0
VERTEX
  8
LAYER1
 62
     7
  6
CONTINUOUS
 10
8.2722
 20
3.4616
  0
VERTEX
  8
LAYER1
 62
     7
  6
CONTINUOUS
 10
8.2722
 20
3.4622
  0
VERTEX
  8
LAYER1
 62
     7
  6
CONTINUOUS
 10
8.2724
 20
3.4633
  0
VERTEX
  8
LAYER1
 62
     7
  6
CONTINUOUS
 10
8.2727
 20
3.4649
  0
VERTEX
  8
LAYER1
 62
     7
  6
CONTINUOUS
 10
8.2731
 20
3.4670
  0
VERTEX
  8
LAYER1
 62
     7
  6
CONTINUOUS
 10
8.2736
 20
3.4695
  0
VERTEX
  8
LAYER1
 62
     7
  6
CONTINUOUS
 10
8.2743
 20
3.4722
  0
VERTEX
  8
LAYER1
 62
     7
  6
CONTINUOUS
 10
8.2751
 20
3.4752
  0
VERTEX
  8
LAYER1
 62
     7
  6
CONTINUOUS
 10
8.2761
 20
3.4784
  0
VERTEX
  8
LAYER1
 62
     7
  6
CONTINUOUS
 10
8.2772
 20
3.4817
  0
VERTEX
  8
LAYER1
 62
     7
  6
CONTINUOUS
 10
8.2785
 20
3.4851
  0
VERTEX
  8
LAYER1
 62
     7
  6
CONTINUOUS
 10
8.2800
 20
3.4885
  0
VERTEX
  8
LAYER1
 62
     7
  6
CONTINUOUS
 10
8.2817
 20
3.4918
  0
VERTEX
  8
LAYER1
 62
     7
  6
CONTINUOUS
 10
8.2843
 20
3.4961
  0
VERTEX
  8
LAYER1
 62
     7
  6
CONTINUOUS
 10
8.2872
 20
3.5001
  0
VERTEX
  8
LAYER1
 62
     7
  6
CONTINUOUS
 10
8.2903
 20
3.5039
  0
VERTEX
  8
LAYER1
 62
     7
  6
CONTINUOUS
 10
8.2934
 20
3.5074
  0
VERTEX
  8
LAYER1
 62
     7
  6
CONTINUOUS
 10
8.2966
 20
3.5106
  0
VERTEX
  8
LAYER1
 62
     7
  6
CONTINUOUS
 10
8.2997
 20
3.5134
  0
VERTEX
  8
LAYER1
 62
     7
  6
CONTINUOUS
 10
8.3026
 20
3.5159
  0
VERTEX
  8
LAYER1
 62
     7
  6
CONTINUOUS
 10
8.3053
 20
3.5180
  0
VERTEX
  8
LAYER1
 62
     7
  6
CONTINUOUS
 10
8.3076
 20
3.5198
  0
VERTEX
  8
LAYER1
 62
     7
  6
CONTINUOUS
 10
8.3094
 20
3.5211
  0
VERTEX
  8
LAYER1
 62
     7
  6
CONTINUOUS
 10
8.3107
 20
3.5219
  0
VERTEX
  8
LAYER1
 62
     7
  6
CONTINUOUS
 10
8.3113
 20
3.5223
  0
VERTEX
  8
LAYER1
 62
     7
  6
CONTINUOUS
 10
8.3114
 20
3.5223
  0
VERTEX
  8
LAYER1
 62
     7
  6
CONTINUOUS
 10
8.3114
 20
3.5223
  0
VERTEX
  8
LAYER1
 62
     7
  6
CONTINUOUS
 10
8.3114
 20
3.5223
  0
VERTEX
  8
LAYER1
 62
     7
  6
CONTINUOUS
 10
8.3114
 20
3.5223
  0
VERTEX
  8
LAYER1
 62
     7
  6
CONTINUOUS
 10
8.3114
 20
3.5223
  0
VERTEX
  8
LAYER1
 62
     7
  6
CONTINUOUS
 10
8.3114
 20
3.5223
  0
VERTEX
  8
LAYER1
 62
     7
  6
CONTINUOUS
 10
8.3114
 20
3.5223
  0
VERTEX
  8
LAYER1
 62
     7
  6
CONTINUOUS
 10
8.3114
 20
3.5223
  0
VERTEX
  8
LAYER1
 62
     7
  6
CONTINUOUS
 10
8.3114
 20
3.5223
  0
VERTEX
  8
LAYER1
 62
     7
  6
CONTINUOUS
 10
8.3114
 20
3.5223
  0
VERTEX
  8
LAYER1
 62
     7
  6
CONTINUOUS
 10
8.3114
 20
3.5223
  0
VERTEX
  8
LAYER1
 62
     7
  6
CONTINUOUS
 10
8.3113
 20
3.5223
  0
VERTEX
  8
LAYER1
 62
     7
  6
CONTINUOUS
 10
8.3113
 20
3.5223
  0
VERTEX
  8
LAYER1
 62
     7
  6
CONTINUOUS
 10
8.3113
 20
3.5223
  0
VERTEX
  8
LAYER1
 62
     7
  6
CONTINUOUS
 10
8.3113
 20
3.5223
  0
VERTEX
  8
LAYER1
 62
     7
  6
CONTINUOUS
 10
8.3113
 20
3.5223
  0
VERTEX
  8
LAYER1
 62
     7
  6
CONTINUOUS
 10
8.3113
 20
3.5223
  0
VERTEX
  8
LAYER1
 62
     7
  6
CONTINUOUS
 10
8.3113
 20
3.5223
  0
VERTEX
  8
LAYER1
 62
     7
  6
CONTINUOUS
 10
8.3113
 20
3.5223
  0
VERTEX
  8
LAYER1
 62
     7
  6
CONTINUOUS
 10
8.3113
 20
3.5223
  0
VERTEX
  8
LAYER1
 62
     7
  6
CONTINUOUS
 10
8.3113
 20
3.5223
  0
VERTEX
  8
LAYER1
 62
     7
  6
CONTINUOUS
 10
8.3113
 20
3.5223
  0
VERTEX
  8
LAYER1
 62
     7
  6
CONTINUOUS
 10
8.3113
 20
3.5223
  0
VERTEX
  8
LAYER1
 62
     7
  6
CONTINUOUS
 10
8.3113
 20
3.5223
  0
VERTEX
  8
LAYER1
 62
     7
  6
CONTINUOUS
 10
8.3118
 20
3.5218
  0
VERTEX
  8
LAYER1
 62
     7
  6
CONTINUOUS
 10
8.3126
 20
3.5209
  0
VERTEX
  8
LAYER1
 62
     7
  6
CONTINUOUS
 10
8.3137
 20
3.5195
  0
VERTEX
  8
LAYER1
 62
     7
  6
CONTINUOUS
 10
8.3151
 20
3.5178
  0
VERTEX
  8
LAYER1
 62
     7
  6
CONTINUOUS
 10
8.3168
 20
3.5157
  0
VERTEX
  8
LAYER1
 62
     7
  6
CONTINUOUS
 10
8.3186
 20
3.5135
  0
VERTEX
  8
LAYER1
 62
     7
  6
CONTINUOUS
 10
8.3206
 20
3.5110
  0
VERTEX
  8
LAYER1
 62
     7
  6
CONTINUOUS
 10
8.3228
 20
3.5084
  0
VERTEX
  8
LAYER1
 62
     7
  6
CONTINUOUS
 10
8.3250
 20
3.5057
  0
VERTEX
  8
LAYER1
 62
     7
  6
CONTINUOUS
 10
8.3273
 20
3.5029
  0
VERTEX
  8
LAYER1
 62
     7
  6
CONTINUOUS
 10
8.3295
 20
3.5002
  0
VERTEX
  8
LAYER1
 62
     7
  6
CONTINUOUS
 10
8.3318
 20
3.4975
  0
VERTEX
  8
LAYER1
 62
     7
  6
CONTINUOUS
 10
8.3344
 20
3.4945
  0
VERTEX
  8
LAYER1
 62
     7
  6
CONTINUOUS
 10
8.3369
 20
3.4915
  0
VERTEX
  8
LAYER1
 62
     7
  6
CONTINUOUS
 10
8.3393
 20
3.4888
  0
VERTEX
  8
LAYER1
 62
     7
  6
CONTINUOUS
 10
8.3417
 20
3.4863
  0
VERTEX
  8
LAYER1
 62
     7
  6
CONTINUOUS
 10
8.3440
 20
3.4839
  0
VERTEX
  8
LAYER1
 62
     7
  6
CONTINUOUS
 10
8.3464
 20
3.4818
  0
VERTEX
  8
LAYER1
 62
     7
  6
CONTINUOUS
 10
8.3488
 20
3.4798
  0
VERTEX
  8
LAYER1
 62
     7
  6
CONTINUOUS
 10
8.3512
 20
3.4781
  0
VERTEX
  8
LAYER1
 62
     7
  6
CONTINUOUS
 10
8.3538
 20
3.4765
  0
VERTEX
  8
LAYER1
 62
     7
  6
CONTINUOUS
 10
8.3564
 20
3.4751
  0
VERTEX
  8
LAYER1
 62
     7
  6
CONTINUOUS
 10
8.3592
 20
3.4739
  0
VERTEX
  8
LAYER1
 62
     7
  6
CONTINUOUS
 10
8.3622
 20
3.4729
  0
VERTEX
  8
LAYER1
 62
     7
  6
CONTINUOUS
 10
8.3642
 20
3.4724
  0
VERTEX
  8
LAYER1
 62
     7
  6
CONTINUOUS
 10
8.3662
 20
3.4720
  0
VERTEX
  8
LAYER1
 62
     7
  6
CONTINUOUS
 10
8.3684
 20
3.4716
  0
VERTEX
  8
LAYER1
 62
     7
  6
CONTINUOUS
 10
8.3705
 20
3.4714
  0
VERTEX
  8
LAYER1
 62
     7
  6
CONTINUOUS
 10
8.3727
 20
3.4712
  0
VERTEX
  8
LAYER1
 62
     7
  6
CONTINUOUS
 10
8.3748
 20
3.4712
  0
VERTEX
  8
LAYER1
 62
     7
  6
CONTINUOUS
 10
8.3770
 20
3.4713
  0
VERTEX
  8
LAYER1
 62
     7
  6
CONTINUOUS
 10
8.3792
 20
3.4714
  0
VERTEX
  8
LAYER1
 62
     7
  6
CONTINUOUS
 10
8.3813
 20
3.4717
  0
VERTEX
  8
LAYER1
 62
     7
  6
CONTINUOUS
 10
8.3833
 20
3.4721
  0
VERTEX
  8
LAYER1
 62
     7
  6
CONTINUOUS
 10
8.3853
 20
3.4727
  0
VERTEX
  8
LAYER1
 62
     7
  6
CONTINUOUS
 10
8.3873
 20
3.4733
  0
VERTEX
  8
LAYER1
 62
     7
  6
CONTINUOUS
 10
8.3893
 20
3.4742
  0
VERTEX
  8
LAYER1
 62
     7
  6
CONTINUOUS
 10
8.3913
 20
3.4753
  0
VERTEX
  8
LAYER1
 62
     7
  6
CONTINUOUS
 10
8.3931
 20
3.4765
  0
VERTEX
  8
LAYER1
 62
     7
  6
CONTINUOUS
 10
8.3949
 20
3.4779
  0
VERTEX
  8
LAYER1
 62
     7
  6
CONTINUOUS
 10
8.3966
 20
3.4794
  0
VERTEX
  8
LAYER1
 62
     7
  6
CONTINUOUS
 10
8.3982
 20
3.4811
  0
VERTEX
  8
LAYER1
 62
     7
  6
CONTINUOUS
 10
8.3997
 20
3.4829
  0
VERTEX
  8
LAYER1
 62
     7
  6
CONTINUOUS
 10
8.4012
 20
3.4848
  0
VERTEX
  8
LAYER1
 62
     7
  6
CONTINUOUS
 10
8.4027
 20
3.4869
  0
VERTEX
  8
LAYER1
 62
     7
  6
CONTINUOUS
 10
8.4041
 20
3.4890
  0
VERTEX
  8
LAYER1
 62
     7
  6
CONTINUOUS
 10
8.4056
 20
3.4913
  0
VERTEX
  8
LAYER1
 62
     7
  6
CONTINUOUS
 10
8.4070
 20
3.4937
  0
VERTEX
  8
LAYER1
 62
     7
  6
CONTINUOUS
 10
8.4084
 20
3.4961
  0
VERTEX
  8
LAYER1
 62
     7
  6
CONTINUOUS
 10
8.4098
 20
3.4986
  0
VERTEX
  8
LAYER1
 62
     7
  6
CONTINUOUS
 10
8.4113
 20
3.5011
  0
VERTEX
  8
LAYER1
 62
     7
  6
CONTINUOUS
 10
8.4127
 20
3.5035
  0
VERTEX
  8
LAYER1
 62
     7
  6
CONTINUOUS
 10
8.4143
 20
3.5058
  0
VERTEX
  8
LAYER1
 62
     7
  6
CONTINUOUS
 10
8.4158
 20
3.5079
  0
VERTEX
  8
LAYER1
 62
     7
  6
CONTINUOUS
 10
8.4174
 20
3.5098
  0
VERTEX
  8
LAYER1
 62
     7
  6
CONTINUOUS
 10
8.4191
 20
3.5114
  0
VERTEX
  8
LAYER1
 62
     7
  6
CONTINUOUS
 10
8.4209
 20
3.5127
  0
VERTEX
  8
LAYER1
 62
     7
  6
CONTINUOUS
 10
8.4227
 20
3.5136
  0
VERTEX
  8
LAYER1
 62
     7
  6
CONTINUOUS
 10
8.4247
 20
3.5141
  0
VERTEX
  8
LAYER1
 62
     7
  6
CONTINUOUS
 10
8.4267
 20
3.5140
  0
VERTEX
  8
LAYER1
 62
     7
  6
CONTINUOUS
 10
8.4279
 20
3.5138
  0
VERTEX
  8
LAYER1
 62
     7
  6
CONTINUOUS
 10
8.4291
 20
3.5134
  0
VERTEX
  8
LAYER1
 62
     7
  6
CONTINUOUS
 10
8.4304
 20
3.5129
  0
VERTEX
  8
LAYER1
 62
     7
  6
CONTINUOUS
 10
8.4316
 20
3.5123
  0
VERTEX
  8
LAYER1
 62
     7
  6
CONTINUOUS
 10
8.4329
 20
3.5117
  0
VERTEX
  8
LAYER1
 62
     7
  6
CONTINUOUS
 10
8.4342
 20
3.5111
  0
VERTEX
  8
LAYER1
 62
     7
  6
CONTINUOUS
 10
8.4355
 20
3.5105
  0
VERTEX
  8
LAYER1
 62
     7
  6
CONTINUOUS
 10
8.4368
 20
3.5100
  0
VERTEX
  8
LAYER1
 62
     7
  6
CONTINUOUS
 10
8.4381
 20
3.5096
  0
VERTEX
  8
LAYER1
 62
     7
  6
CONTINUOUS
 10
8.4394
 20
3.5093
  0
VERTEX
  8
LAYER1
 62
     7
  6
CONTINUOUS
 10
8.4406
 20
3.5091
  0
VERTEX
  8
LAYER1
 62
     7
  6
CONTINUOUS
 10
8.4418
 20
3.5092
  0
VERTEX
  8
LAYER1
 62
     7
  6
CONTINUOUS
 10
8.4432
 20
3.5096
  0
VERTEX
  8
LAYER1
 62
     7
  6
CONTINUOUS
 10
8.4445
 20
3.5102
  0
VERTEX
  8
LAYER1
 62
     7
  6
CONTINUOUS
 10
8.4458
 20
3.5111
  0
VERTEX
  8
LAYER1
 62
     7
  6
CONTINUOUS
 10
8.4469
 20
3.5121
  0
VERTEX
  8
LAYER1
 62
     7
  6
CONTINUOUS
 10
8.4480
 20
3.5134
  0
VERTEX
  8
LAYER1
 62
     7
  6
CONTINUOUS
 10
8.4490
 20
3.5148
  0
VERTEX
  8
LAYER1
 62
     7
  6
CONTINUOUS
 10
8.4498
 20
3.5163
  0
VERTEX
  8
LAYER1
 62
     7
  6
CONTINUOUS
 10
8.4505
 20
3.5179
  0
VERTEX
  8
LAYER1
 62
     7
  6
CONTINUOUS
 10
8.4510
 20
3.5195
  0
VERTEX
  8
LAYER1
 62
     7
  6
CONTINUOUS
 10
8.4514
 20
3.5212
  0
VERTEX
  8
LAYER1
 62
     7
  6
CONTINUOUS
 10
8.4516
 20
3.5228
  0
VERTEX
  8
LAYER1
 62
     7
  6
CONTINUOUS
 10
8.4516
 20
3.5244
  0
VERTEX
  8
LAYER1
 62
     7
  6
CONTINUOUS
 10
8.4516
 20
3.5249
  0
VERTEX
  8
LAYER1
 62
     7
  6
CONTINUOUS
 10
8.4515
 20
3.5254
  0
VERTEX
  8
LAYER1
 62
     7
  6
CONTINUOUS
 10
8.4514
 20
3.5259
  0
VERTEX
  8
LAYER1
 62
     7
  6
CONTINUOUS
 10
8.4513
 20
3.5265
  0
VERTEX
  8
LAYER1
 62
     7
  6
CONTINUOUS
 10
8.4512
 20
3.5269
  0
VERTEX
  8
LAYER1
 62
     7
  6
CONTINUOUS
 10
8.4511
 20
3.5274
  0
VERTEX
  8
LAYER1
 62
     7
  6
CONTINUOUS
 10
8.4509
 20
3.5279
  0
VERTEX
  8
LAYER1
 62
     7
  6
CONTINUOUS
 10
8.4508
 20
3.5284
  0
VERTEX
  8
LAYER1
 62
     7
  6
CONTINUOUS
 10
8.4506
 20
3.5289
  0
VERTEX
  8
LAYER1
 62
     7
  6
CONTINUOUS
 10
8.4504
 20
3.5294
  0
VERTEX
  8
LAYER1
 62
     7
  6
CONTINUOUS
 10
8.4502
 20
3.5298
  0
VERTEX
  8
LAYER1
 62
     7
  6
CONTINUOUS
 10
8.4501
 20
3.5303
  0
SEQEND
  8
LAYER1
  0
POLYLINE
  8
LAYER1
 62
     7
 66
     1
  6
CONTINUOUS
  0
VERTEX
  8
LAYER1
 62
     7
  6
CONTINUOUS
 10
8.2151
 20
3.5303
  0
VERTEX
  8
LAYER1
 62
     7
  6
CONTINUOUS
 10
8.2122
 20
3.5273
  0
VERTEX
  8
LAYER1
 62
     7
  6
CONTINUOUS
 10
8.2094
 20
3.5243
  0
VERTEX
  8
LAYER1
 62
     7
  6
CONTINUOUS
 10
8.2066
 20
3.5214
  0
VERTEX
  8
LAYER1
 62
     7
  6
CONTINUOUS
 10
8.2040
 20
3.5187
  0
VERTEX
  8
LAYER1
 62
     7
  6
CONTINUOUS
 10
8.2015
 20
3.5161
  0
VERTEX
  8
LAYER1
 62
     7
  6
CONTINUOUS
 10
8.1992
 20
3.5136
  0
VERTEX
  8
LAYER1
 62
     7
  6
CONTINUOUS
 10
8.1971
 20
3.5115
  0
VERTEX
  8
LAYER1
 62
     7
  6
CONTINUOUS
 10
8.1953
 20
3.5095
  0
VERTEX
  8
LAYER1
 62
     7
  6
CONTINUOUS
 10
8.1938
 20
3.5079
  0
VERTEX
  8
LAYER1
 62
     7
  6
CONTINUOUS
 10
8.1926
 20
3.5067
  0
VERTEX
  8
LAYER1
 62
     7
  6
CONTINUOUS
 10
8.1917
 20
3.5059
  0
VERTEX
  8
LAYER1
 62
     7
  6
CONTINUOUS
 10
8.1913
 20
3.5054
  0
VERTEX
  8
LAYER1
 62
     7
  6
CONTINUOUS
 10
8.1913
 20
3.5054
  0
VERTEX
  8
LAYER1
 62
     7
  6
CONTINUOUS
 10
8.1913
 20
3.5054
  0
VERTEX
  8
LAYER1
 62
     7
  6
CONTINUOUS
 10
8.1913
 20
3.5054
  0
VERTEX
  8
LAYER1
 62
     7
  6
CONTINUOUS
 10
8.1913
 20
3.5054
  0
VERTEX
  8
LAYER1
 62
     7
  6
CONTINUOUS
 10
8.1913
 20
3.5054
  0
VERTEX
  8
LAYER1
 62
     7
  6
CONTINUOUS
 10
8.1913
 20
3.5054
  0
VERTEX
  8
LAYER1
 62
     7
  6
CONTINUOUS
 10
8.1913
 20
3.5054
  0
VERTEX
  8
LAYER1
 62
     7
  6
CONTINUOUS
 10
8.1913
 20
3.5054
  0
VERTEX
  8
LAYER1
 62
     7
  6
CONTINUOUS
 10
8.1913
 20
3.5054
  0
VERTEX
  8
LAYER1
 62
     7
  6
CONTINUOUS
 10
8.1913
 20
3.5054
  0
VERTEX
  8
LAYER1
 62
     7
  6
CONTINUOUS
 10
8.1913
 20
3.5054
  0
VERTEX
  8
LAYER1
 62
     7
  6
CONTINUOUS
 10
8.1913
 20
3.5054
  0
VERTEX
  8
LAYER1
 62
     7
  6
CONTINUOUS
 10
8.1912
 20
3.5044
  0
VERTEX
  8
LAYER1
 62
     7
  6
CONTINUOUS
 10
8.1904
 20
3.5015
  0
VERTEX
  8
LAYER1
 62
     7
  6
CONTINUOUS
 10
8.1890
 20
3.4969
  0
VERTEX
  8
LAYER1
 62
     7
  6
CONTINUOUS
 10
8.1869
 20
3.4907
  0
VERTEX
  8
LAYER1
 62
     7
  6
CONTINUOUS
 10
8.1843
 20
3.4833
  0
VERTEX
  8
LAYER1
 62
     7
  6
CONTINUOUS
 10
8.1812
 20
3.4746
  0
VERTEX
  8
LAYER1
 62
     7
  6
CONTINUOUS
 10
8.1775
 20
3.4651
  0
VERTEX
  8
LAYER1
 62
     7
  6
CONTINUOUS
 10
8.1734
 20
3.4547
  0
VERTEX
  8
LAYER1
 62
     7
  6
CONTINUOUS
 10
8.1688
 20
3.4438
  0
VERTEX
  8
LAYER1
 62
     7
  6
CONTINUOUS
 10
8.1638
 20
3.4326
  0
VERTEX
  8
LAYER1
 62
     7
  6
CONTINUOUS
 10
8.1584
 20
3.4211
  0
VERTEX
  8
LAYER1
 62
     7
  6
CONTINUOUS
 10
8.1527
 20
3.4096
  0
VERTEX
  8
LAYER1
 62
     7
  6
CONTINUOUS
 10
8.1463
 20
3.3978
  0
VERTEX
  8
LAYER1
 62
     7
  6
CONTINUOUS
 10
8.1398
 20
3.3864
  0
VERTEX
  8
LAYER1
 62
     7
  6
CONTINUOUS
 10
8.1331
 20
3.3754
  0
VERTEX
  8
LAYER1
 62
     7
  6
CONTINUOUS
 10
8.1266
 20
3.3650
  0
VERTEX
  8
LAYER1
 62
     7
  6
CONTINUOUS
 10
8.1203
 20
3.3553
  0
VERTEX
  8
LAYER1
 62
     7
  6
CONTINUOUS
 10
8.1143
 20
3.3465
  0
VERTEX
  8
LAYER1
 62
     7
  6
CONTINUOUS
 10
8.1088
 20
3.3387
  0
VERTEX
  8
LAYER1
 62
     7
  6
CONTINUOUS
 10
8.1040
 20
3.3319
  0
VERTEX
  8
LAYER1
 62
     7
  6
CONTINUOUS
 10
8.0999
 20
3.3264
  0
VERTEX
  8
LAYER1
 62
     7
  6
CONTINUOUS
 10
8.0968
 20
3.3223
  0
VERTEX
  8
LAYER1
 62
     7
  6
CONTINUOUS
 10
8.0947
 20
3.3196
  0
VERTEX
  8
LAYER1
 62
     7
  6
CONTINUOUS
 10
8.0939
 20
3.3186
  0
VERTEX
  8
LAYER1
 62
     7
  6
CONTINUOUS
 10
8.0939
 20
3.3185
  0
VERTEX
  8
LAYER1
 62
     7
  6
CONTINUOUS
 10
8.0939
 20
3.3185
  0
VERTEX
  8
LAYER1
 62
     7
  6
CONTINUOUS
 10
8.0939
 20
3.3185
  0
VERTEX
  8
LAYER1
 62
     7
  6
CONTINUOUS
 10
8.0939
 20
3.3185
  0
VERTEX
  8
LAYER1
 62
     7
  6
CONTINUOUS
 10
8.0939
 20
3.3185
  0
VERTEX
  8
LAYER1
 62
     7
  6
CONTINUOUS
 10
8.0939
 20
3.3185
  0
VERTEX
  8
LAYER1
 62
     7
  6
CONTINUOUS
 10
8.0939
 20
3.3185
  0
VERTEX
  8
LAYER1
 62
     7
  6
CONTINUOUS
 10
8.0939
 20
3.3185
  0
VERTEX
  8
LAYER1
 62
     7
  6
CONTINUOUS
 10
8.0939
 20
3.3186
  0
VERTEX
  8
LAYER1
 62
     7
  6
CONTINUOUS
 10
8.0939
 20
3.3186
  0
VERTEX
  8
LAYER1
 62
     7
  6
CONTINUOUS
 10
8.0939
 20
3.3186
  0
VERTEX
  8
LAYER1
 62
     7
  6
CONTINUOUS
 10
8.0939
 20
3.3186
  0
VERTEX
  8
LAYER1
 62
     7
  6
CONTINUOUS
 10
8.0939
 20
3.3186
  0
VERTEX
  8
LAYER1
 62
     7
  6
CONTINUOUS
 10
8.0939
 20
3.3186
  0
VERTEX
  8
LAYER1
 62
     7
  6
CONTINUOUS
 10
8.0939
 20
3.3185
  0
VERTEX
  8
LAYER1
 62
     7
  6
CONTINUOUS
 10
8.0939
 20
3.3185
  0
VERTEX
  8
LAYER1
 62
     7
  6
CONTINUOUS
 10
8.0939
 20
3.3185
  0
VERTEX
  8
LAYER1
 62
     7
  6
CONTINUOUS
 10
8.0939
 20
3.3185
  0
VERTEX
  8
LAYER1
 62
     7
  6
CONTINUOUS
 10
8.0939
 20
3.3185
  0
VERTEX
  8
LAYER1
 62
     7
  6
CONTINUOUS
 10
8.0939
 20
3.3185
  0
VERTEX
  8
LAYER1
 62
     7
  6
CONTINUOUS
 10
8.0939
 20
3.3185
  0
VERTEX
  8
LAYER1
 62
     7
  6
CONTINUOUS
 10
8.0939
 20
3.3185
  0
VERTEX
  8
LAYER1
 62
     7
  6
CONTINUOUS
 10
8.0939
 20
3.3185
  0
VERTEX
  8
LAYER1
 62
     7
  6
CONTINUOUS
 10
8.0939
 20
3.3186
  0
VERTEX
  8
LAYER1
 62
     7
  6
CONTINUOUS
 10
8.0939
 20
3.3186
  0
VERTEX
  8
LAYER1
 62
     7
  6
CONTINUOUS
 10
8.0939
 20
3.3186
  0
VERTEX
  8
LAYER1
 62
     7
  6
CONTINUOUS
 10
8.0939
 20
3.3186
  0
VERTEX
  8
LAYER1
 62
     7
  6
CONTINUOUS
 10
8.0939
 20
3.3186
  0
VERTEX
  8
LAYER1
 62
     7
  6
CONTINUOUS
 10
8.0939
 20
3.3186
  0
VERTEX
  8
LAYER1
 62
     7
  6
CONTINUOUS
 10
8.0939
 20
3.3186
  0
VERTEX
  8
LAYER1
 62
     7
  6
CONTINUOUS
 10
8.0939
 20
3.3186
  0
VERTEX
  8
LAYER1
 62
     7
  6
CONTINUOUS
 10
8.0939
 20
3.3186
  0
VERTEX
  8
LAYER1
 62
     7
  6
CONTINUOUS
 10
8.0939
 20
3.3186
  0
VERTEX
  8
LAYER1
 62
     7
  6
CONTINUOUS
 10
8.0939
 20
3.3186
  0
VERTEX
  8
LAYER1
 62
     7
  6
CONTINUOUS
 10
8.0939
 20
3.3186
  0
VERTEX
  8
LAYER1
 62
     7
  6
CONTINUOUS
 10
8.0939
 20
3.3186
  0
VERTEX
  8
LAYER1
 62
     7
  6
CONTINUOUS
 10
8.0935
 20
3.3171
  0
VERTEX
  8
LAYER1
 62
     7
  6
CONTINUOUS
 10
8.0927
 20
3.3139
  0
VERTEX
  8
LAYER1
 62
     7
  6
CONTINUOUS
 10
8.0915
 20
3.3093
  0
VERTEX
  8
LAYER1
 62
     7
  6
CONTINUOUS
 10
8.0901
 20
3.3038
  0
VERTEX
  8
LAYER1
 62
     7
  6
CONTINUOUS
 10
8.0885
 20
3.2975
  0
VERTEX
  8
LAYER1
 62
     7
  6
CONTINUOUS
 10
8.0868
 20
3.2910
  0
VERTEX
  8
LAYER1
 62
     7
  6
CONTINUOUS
 10
8.0851
 20
3.2844
  0
VERTEX
  8
LAYER1
 62
     7
  6
CONTINUOUS
 10
8.0835
 20
3.2781
  0
VERTEX
  8
LAYER1
 62
     7
  6
CONTINUOUS
 10
8.0821
 20
3.2726
  0
VERTEX
  8
LAYER1
 62
     7
  6
CONTINUOUS
 10
8.0809
 20
3.2680
  0
VERTEX
  8
LAYER1
 62
     7
  6
CONTINUOUS
 10
8.0801
 20
3.2648
  0
VERTEX
  8
LAYER1
 62
     7
  6
CONTINUOUS
 10
8.0797
 20
3.2632
  0
VERTEX
  8
LAYER1
 62
     7
  6
CONTINUOUS
 10
8.0797
 20
3.2632
  0
VERTEX
  8
LAYER1
 62
     7
  6
CONTINUOUS
 10
8.0797
 20
3.2631
  0
VERTEX
  8
LAYER1
 62
     7
  6
CONTINUOUS
 10
8.0797
 20
3.2631
  0
VERTEX
  8
LAYER1
 62
     7
  6
CONTINUOUS
 10
8.0797
 20
3.2631
  0
VERTEX
  8
LAYER1
 62
     7
  6
CONTINUOUS
 10
8.0797
 20
3.2631
  0
VERTEX
  8
LAYER1
 62
     7
  6
CONTINUOUS
 10
8.0797
 20
3.2631
  0
VERTEX
  8
LAYER1
 62
     7
  6
CONTINUOUS
 10
8.0797
 20
3.2631
  0
VERTEX
  8
LAYER1
 62
     7
  6
CONTINUOUS
 10
8.0797
 20
3.2631
  0
VERTEX
  8
LAYER1
 62
     7
  6
CONTINUOUS
 10
8.0797
 20
3.2632
  0
VERTEX
  8
LAYER1
 62
     7
  6
CONTINUOUS
 10
8.0797
 20
3.2632
  0
VERTEX
  8
LAYER1
 62
     7
  6
CONTINUOUS
 10
8.0797
 20
3.2632
  0
VERTEX
  8
LAYER1
 62
     7
  6
CONTINUOUS
 10
8.0797
 20
3.2632
  0
VERTEX
  8
LAYER1
 62
     7
  6
CONTINUOUS
 10
8.0797
 20
3.2632
  0
VERTEX
  8
LAYER1
 62
     7
  6
CONTINUOUS
 10
8.0797
 20
3.2633
  0
VERTEX
  8
LAYER1
 62
     7
  6
CONTINUOUS
 10
8.0797
 20
3.2633
  0
VERTEX
  8
LAYER1
 62
     7
  6
CONTINUOUS
 10
8.0797
 20
3.2633
  0
VERTEX
  8
LAYER1
 62
     7
  6
CONTINUOUS
 10
8.0797
 20
3.2633
  0
VERTEX
  8
LAYER1
 62
     7
  6
CONTINUOUS
 10
8.0797
 20
3.2633
  0
VERTEX
  8
LAYER1
 62
     7
  6
CONTINUOUS
 10
8.0797
 20
3.2633
  0
VERTEX
  8
LAYER1
 62
     7
  6
CONTINUOUS
 10
8.0797
 20
3.2633
  0
VERTEX
  8
LAYER1
 62
     7
  6
CONTINUOUS
 10
8.0797
 20
3.2633
  0
VERTEX
  8
LAYER1
 62
     7
  6
CONTINUOUS
 10
8.0797
 20
3.2633
  0
VERTEX
  8
LAYER1
 62
     7
  6
CONTINUOUS
 10
8.0797
 20
3.2632
  0
VERTEX
  8
LAYER1
 62
     7
  6
CONTINUOUS
 10
8.0797
 20
3.2632
  0
VERTEX
  8
LAYER1
 62
     7
  6
CONTINUOUS
 10
8.0796
 20
3.2602
  0
VERTEX
  8
LAYER1
 62
     7
  6
CONTINUOUS
 10
8.0794
 20
3.2534
  0
VERTEX
  8
LAYER1
 62
     7
  6
CONTINUOUS
 10
8.0791
 20
3.2434
  0
VERTEX
  8
LAYER1
 62
     7
  6
CONTINUOUS
 10
8.0788
 20
3.2311
  0
VERTEX
  8
LAYER1
 62
     7
  6
CONTINUOUS
 10
8.0784
 20
3.2173
  0
VERTEX
  8
LAYER1
 62
     7
  6
CONTINUOUS
 10
8.0781
 20
3.2027
  0
VERTEX
  8
LAYER1
 62
     7
  6
CONTINUOUS
 10
8.0777
 20
3.1882
  0
VERTEX
  8
LAYER1
 62
     7
  6
CONTINUOUS
 10
8.0773
 20
3.1744
  0
VERTEX
  8
LAYER1
 62
     7
  6
CONTINUOUS
 10
8.0770
 20
3.1622
  0
VERTEX
  8
LAYER1
 62
     7
  6
CONTINUOUS
 10
8.0768
 20
3.1524
  0
VERTEX
  8
LAYER1
 62
     7
  6
CONTINUOUS
 10
8.0766
 20
3.1457
  0
VERTEX
  8
LAYER1
 62
     7
  6
CONTINUOUS
 10
8.0765
 20
3.1429
  0
VERTEX
  8
LAYER1
 62
     7
  6
CONTINUOUS
 10
8.0765
 20
3.1429
  0
VERTEX
  8
LAYER1
 62
     7
  6
CONTINUOUS
 10
8.0765
 20
3.1429
  0
VERTEX
  8
LAYER1
 62
     7
  6
CONTINUOUS
 10
8.0765
 20
3.1429
  0
VERTEX
  8
LAYER1
 62
     7
  6
CONTINUOUS
 10
8.0765
 20
3.1429
  0
VERTEX
  8
LAYER1
 62
     7
  6
CONTINUOUS
 10
8.0765
 20
3.1429
  0
VERTEX
  8
LAYER1
 62
     7
  6
CONTINUOUS
 10
8.0765
 20
3.1429
  0
VERTEX
  8
LAYER1
 62
     7
  6
CONTINUOUS
 10
8.0765
 20
3.1429
  0
VERTEX
  8
LAYER1
 62
     7
  6
CONTINUOUS
 10
8.0765
 20
3.1429
  0
VERTEX
  8
LAYER1
 62
     7
  6
CONTINUOUS
 10
8.0765
 20
3.1429
  0
VERTEX
  8
LAYER1
 62
     7
  6
CONTINUOUS
 10
8.0765
 20
3.1429
  0
VERTEX
  8
LAYER1
 62
     7
  6
CONTINUOUS
 10
8.0765
 20
3.1429
  0
VERTEX
  8
LAYER1
 62
     7
  6
CONTINUOUS
 10
8.0765
 20
3.1429
  0
VERTEX
  8
LAYER1
 62
     7
  6
CONTINUOUS
 10
8.0765
 20
3.1429
  0
VERTEX
  8
LAYER1
 62
     7
  6
CONTINUOUS
 10
8.0765
 20
3.1429
  0
VERTEX
  8
LAYER1
 62
     7
  6
CONTINUOUS
 10
8.0765
 20
3.1429
  0
VERTEX
  8
LAYER1
 62
     7
  6
CONTINUOUS
 10
8.0765
 20
3.1429
  0
VERTEX
  8
LAYER1
 62
     7
  6
CONTINUOUS
 10
8.0765
 20
3.1429
  0
VERTEX
  8
LAYER1
 62
     7
  6
CONTINUOUS
 10
8.0765
 20
3.1429
  0
VERTEX
  8
LAYER1
 62
     7
  6
CONTINUOUS
 10
8.0765
 20
3.1429
  0
VERTEX
  8
LAYER1
 62
     7
  6
CONTINUOUS
 10
8.0765
 20
3.1429
  0
VERTEX
  8
LAYER1
 62
     7
  6
CONTINUOUS
 10
8.0765
 20
3.1429
  0
VERTEX
  8
LAYER1
 62
     7
  6
CONTINUOUS
 10
8.0765
 20
3.1429
  0
VERTEX
  8
LAYER1
 62
     7
  6
CONTINUOUS
 10
8.0765
 20
3.1429
  0
VERTEX
  8
LAYER1
 62
     7
  6
CONTINUOUS
 10
8.0765
 20
3.1429
  0
VERTEX
  8
LAYER1
 62
     7
  6
CONTINUOUS
 10
8.0765
 20
3.1429
  0
VERTEX
  8
LAYER1
 62
     7
  6
CONTINUOUS
 10
8.0765
 20
3.1429
  0
VERTEX
  8
LAYER1
 62
     7
  6
CONTINUOUS
 10
8.0765
 20
3.1429
  0
VERTEX
  8
LAYER1
 62
     7
  6
CONTINUOUS
 10
8.0765
 20
3.1430
  0
VERTEX
  8
LAYER1
 62
     7
  6
CONTINUOUS
 10
8.0765
 20
3.1430
  0
VERTEX
  8
LAYER1
 62
     7
  6
CONTINUOUS
 10
8.0765
 20
3.1430
  0
VERTEX
  8
LAYER1
 62
     7
  6
CONTINUOUS
 10
8.0765
 20
3.1430
  0
VERTEX
  8
LAYER1
 62
     7
  6
CONTINUOUS
 10
8.0765
 20
3.1430
  0
VERTEX
  8
LAYER1
 62
     7
  6
CONTINUOUS
 10
8.0765
 20
3.1430
  0
VERTEX
  8
LAYER1
 62
     7
  6
CONTINUOUS
 10
8.0765
 20
3.1430
  0
VERTEX
  8
LAYER1
 62
     7
  6
CONTINUOUS
 10
8.0765
 20
3.1429
  0
VERTEX
  8
LAYER1
 62
     7
  6
CONTINUOUS
 10
8.0765
 20
3.1429
  0
VERTEX
  8
LAYER1
 62
     7
  6
CONTINUOUS
 10
8.0767
 20
3.1414
  0
VERTEX
  8
LAYER1
 62
     7
  6
CONTINUOUS
 10
8.0770
 20
3.1382
  0
VERTEX
  8
LAYER1
 62
     7
  6
CONTINUOUS
 10
8.0775
 20
3.1337
  0
VERTEX
  8
LAYER1
 62
     7
  6
CONTINUOUS
 10
8.0781
 20
3.1281
  0
VERTEX
  8
LAYER1
 62
     7
  6
CONTINUOUS
 10
8.0787
 20
3.1219
  0
VERTEX
  8
LAYER1
 62
     7
  6
CONTINUOUS
 10
8.0794
 20
3.1154
  0
VERTEX
  8
LAYER1
 62
     7
  6
CONTINUOUS
 10
8.0801
 20
3.1088
  0
VERTEX
  8
LAYER1
 62
     7
  6
CONTINUOUS
 10
8.0808
 20
3.1026
  0
VERTEX
  8
LAYER1
 62
     7
  6
CONTINUOUS
 10
8.0814
 20
3.0971
  0
VERTEX
  8
LAYER1
 62
     7
  6
CONTINUOUS
 10
8.0819
 20
3.0926
  0
VERTEX
  8
LAYER1
 62
     7
  6
CONTINUOUS
 10
8.0822
 20
3.0894
  0
VERTEX
  8
LAYER1
 62
     7
  6
CONTINUOUS
 10
8.0823
 20
3.0879
  0
VERTEX
  8
LAYER1
 62
     7
  6
CONTINUOUS
 10
8.0824
 20
3.0878
  0
VERTEX
  8
LAYER1
 62
     7
  6
CONTINUOUS
 10
8.0824
 20
3.0878
  0
VERTEX
  8
LAYER1
 62
     7
  6
CONTINUOUS
 10
8.0824
 20
3.0878
  0
VERTEX
  8
LAYER1
 62
     7
  6
CONTINUOUS
 10
8.0824
 20
3.0878
  0
VERTEX
  8
LAYER1
 62
     7
  6
CONTINUOUS
 10
8.0824
 20
3.0878
  0
VERTEX
  8
LAYER1
 62
     7
  6
CONTINUOUS
 10
8.0824
 20
3.0878
  0
VERTEX
  8
LAYER1
 62
     7
  6
CONTINUOUS
 10
8.0824
 20
3.0878
  0
VERTEX
  8
LAYER1
 62
     7
  6
CONTINUOUS
 10
8.0824
 20
3.0878
  0
VERTEX
  8
LAYER1
 62
     7
  6
CONTINUOUS
 10
8.0824
 20
3.0878
  0
VERTEX
  8
LAYER1
 62
     7
  6
CONTINUOUS
 10
8.0824
 20
3.0878
  0
VERTEX
  8
LAYER1
 62
     7
  6
CONTINUOUS
 10
8.0823
 20
3.0878
  0
VERTEX
  8
LAYER1
 62
     7
  6
CONTINUOUS
 10
8.0823
 20
3.0879
  0
VERTEX
  8
LAYER1
 62
     7
  6
CONTINUOUS
 10
8.0823
 20
3.0879
  0
VERTEX
  8
LAYER1
 62
     7
  6
CONTINUOUS
 10
8.0823
 20
3.0879
  0
VERTEX
  8
LAYER1
 62
     7
  6
CONTINUOUS
 10
8.0823
 20
3.0879
  0
VERTEX
  8
LAYER1
 62
     7
  6
CONTINUOUS
 10
8.0823
 20
3.0879
  0
VERTEX
  8
LAYER1
 62
     7
  6
CONTINUOUS
 10
8.0823
 20
3.0879
  0
VERTEX
  8
LAYER1
 62
     7
  6
CONTINUOUS
 10
8.0823
 20
3.0879
  0
VERTEX
  8
LAYER1
 62
     7
  6
CONTINUOUS
 10
8.0823
 20
3.0879
  0
VERTEX
  8
LAYER1
 62
     7
  6
CONTINUOUS
 10
8.0823
 20
3.0879
  0
VERTEX
  8
LAYER1
 62
     7
  6
CONTINUOUS
 10
8.0823
 20
3.0879
  0
VERTEX
  8
LAYER1
 62
     7
  6
CONTINUOUS
 10
8.0823
 20
3.0879
  0
VERTEX
  8
LAYER1
 62
     7
  6
CONTINUOUS
 10
8.0823
 20
3.0879
  0
VERTEX
  8
LAYER1
 62
     7
  6
CONTINUOUS
 10
8.0823
 20
3.0879
  0
VERTEX
  8
LAYER1
 62
     7
  6
CONTINUOUS
 10
8.0823
 20
3.0879
  0
VERTEX
  8
LAYER1
 62
     7
  6
CONTINUOUS
 10
8.0823
 20
3.0879
  0
VERTEX
  8
LAYER1
 62
     7
  6
CONTINUOUS
 10
8.0823
 20
3.0879
  0
VERTEX
  8
LAYER1
 62
     7
  6
CONTINUOUS
 10
8.0823
 20
3.0879
  0
VERTEX
  8
LAYER1
 62
     7
  6
CONTINUOUS
 10
8.0823
 20
3.0879
  0
VERTEX
  8
LAYER1
 62
     7
  6
CONTINUOUS
 10
8.0823
 20
3.0879
  0
VERTEX
  8
LAYER1
 62
     7
  6
CONTINUOUS
 10
8.0823
 20
3.0879
  0
VERTEX
  8
LAYER1
 62
     7
  6
CONTINUOUS
 10
8.0823
 20
3.0879
  0
VERTEX
  8
LAYER1
 62
     7
  6
CONTINUOUS
 10
8.0823
 20
3.0879
  0
VERTEX
  8
LAYER1
 62
     7
  6
CONTINUOUS
 10
8.0823
 20
3.0879
  0
VERTEX
  8
LAYER1
 62
     7
  6
CONTINUOUS
 10
8.0823
 20
3.0879
  0
VERTEX
  8
LAYER1
 62
     7
  6
CONTINUOUS
 10
8.0823
 20
3.0879
  0
VERTEX
  8
LAYER1
 62
     7
  6
CONTINUOUS
 10
8.0826
 20
3.0865
  0
VERTEX
  8
LAYER1
 62
     7
  6
CONTINUOUS
 10
8.0832
 20
3.0831
  0
VERTEX
  8
LAYER1
 62
     7
  6
CONTINUOUS
 10
8.0842
 20
3.0780
  0
VERTEX
  8
LAYER1
 62
     7
  6
CONTINUOUS
 10
8.0855
 20
3.0713
  0
VERTEX
  8
LAYER1
 62
     7
  6
CONTINUOUS
 10
8.0871
 20
3.0635
  0
VERTEX
  8
LAYER1
 62
     7
  6
CONTINUOUS
 10
8.0889
 20
3.0545
  0
VERTEX
  8
LAYER1
 62
     7
  6
CONTINUOUS
 10
8.0910
 20
3.0448
  0
VERTEX
  8
LAYER1
 62
     7
  6
CONTINUOUS
 10
8.0932
 20
3.0346
  0
VERTEX
  8
LAYER1
 62
     7
  6
CONTINUOUS
 10
8.0957
 20
3.0240
  0
VERTEX
  8
LAYER1
 62
     7
  6
CONTINUOUS
 10
8.0983
 20
3.0134
  0
VERTEX
  8
LAYER1
 62
     7
  6
CONTINUOUS
 10
8.1010
 20
3.0030
  0
VERTEX
  8
LAYER1
 62
     7
  6
CONTINUOUS
 10
8.1038
 20
2.9930
  0
VERTEX
  8
LAYER1
 62
     7
  6
CONTINUOUS
 10
8.1064
 20
2.9846
  0
VERTEX
  8
LAYER1
 62
     7
  6
CONTINUOUS
 10
8.1089
 20
2.9768
  0
VERTEX
  8
LAYER1
 62
     7
  6
CONTINUOUS
 10
8.1116
 20
2.9693
  0
VERTEX
  8
LAYER1
 62
     7
  6
CONTINUOUS
 10
8.1142
 20
2.9622
  0
VERTEX
  8
LAYER1
 62
     7
  6
CONTINUOUS
 10
8.1169
 20
2.9555
  0
VERTEX
  8
LAYER1
 62
     7
  6
CONTINUOUS
 10
8.1195
 20
2.9490
  0
VERTEX
  8
LAYER1
 62
     7
  6
CONTINUOUS
 10
8.1222
 20
2.9427
  0
VERTEX
  8
LAYER1
 62
     7
  6
CONTINUOUS
 10
8.1248
 20
2.9367
  0
VERTEX
  8
LAYER1
 62
     7
  6
CONTINUOUS
 10
8.1275
 20
2.9307
  0
VERTEX
  8
LAYER1
 62
     7
  6
CONTINUOUS
 10
8.1300
 20
2.9249
  0
VERTEX
  8
LAYER1
 62
     7
  6
CONTINUOUS
 10
8.1326
 20
2.9191
  0
VERTEX
  8
LAYER1
 62
     7
  6
CONTINUOUS
 10
8.1351
 20
2.9133
  0
VERTEX
  8
LAYER1
 62
     7
  6
CONTINUOUS
 10
8.1373
 20
2.9080
  0
VERTEX
  8
LAYER1
 62
     7
  6
CONTINUOUS
 10
8.1395
 20
2.9028
  0
VERTEX
  8
LAYER1
 62
     7
  6
CONTINUOUS
 10
8.1418
 20
2.8975
  0
VERTEX
  8
LAYER1
 62
     7
  6
CONTINUOUS
 10
8.1442
 20
2.8921
  0
VERTEX
  8
LAYER1
 62
     7
  6
CONTINUOUS
 10
8.1468
 20
2.8868
  0
VERTEX
  8
LAYER1
 62
     7
  6
CONTINUOUS
 10
8.1497
 20
2.8814
  0
VERTEX
  8
LAYER1
 62
     7
  6
CONTINUOUS
 10
8.1529
 20
2.8760
  0
VERTEX
  8
LAYER1
 62
     7
  6
CONTINUOUS
 10
8.1566
 20
2.8706
  0
VERTEX
  8
LAYER1
 62
     7
  6
CONTINUOUS
 10
8.1606
 20
2.8651
  0
VERTEX
  8
LAYER1
 62
     7
  6
CONTINUOUS
 10
8.1652
 20
2.8597
  0
VERTEX
  8
LAYER1
 62
     7
  6
CONTINUOUS
 10
8.1704
 20
2.8542
  0
VERTEX
  8
LAYER1
 62
     7
  6
CONTINUOUS
 10
8.1762
 20
2.8487
  0
VERTEX
  8
LAYER1
 62
     7
  6
CONTINUOUS
 10
8.1803
 20
2.8451
  0
VERTEX
  8
LAYER1
 62
     7
  6
CONTINUOUS
 10
8.1847
 20
2.8416
  0
VERTEX
  8
LAYER1
 62
     7
  6
CONTINUOUS
 10
8.1891
 20
2.8382
  0
VERTEX
  8
LAYER1
 62
     7
  6
CONTINUOUS
 10
8.1936
 20
2.8349
  0
VERTEX
  8
LAYER1
 62
     7
  6
CONTINUOUS
 10
8.1979
 20
2.8318
  0
VERTEX
  8
LAYER1
 62
     7
  6
CONTINUOUS
 10
8.2021
 20
2.8289
  0
VERTEX
  8
LAYER1
 62
     7
  6
CONTINUOUS
 10
8.2059
 20
2.8263
  0
VERTEX
  8
LAYER1
 62
     7
  6
CONTINUOUS
 10
8.2093
 20
2.8240
  0
VERTEX
  8
LAYER1
 62
     7
  6
CONTINUOUS
 10
8.2122
 20
2.8222
  0
VERTEX
  8
LAYER1
 62
     7
  6
CONTINUOUS
 10
8.2144
 20
2.8207
  0
VERTEX
  8
LAYER1
 62
     7
  6
CONTINUOUS
 10
8.2160
 20
2.8197
  0
VERTEX
  8
LAYER1
 62
     7
  6
CONTINUOUS
 10
8.2167
 20
2.8193
  0
VERTEX
  8
LAYER1
 62
     7
  6
CONTINUOUS
 10
8.2167
 20
2.8192
  0
VERTEX
  8
LAYER1
 62
     7
  6
CONTINUOUS
 10
8.2167
 20
2.8192
  0
VERTEX
  8
LAYER1
 62
     7
  6
CONTINUOUS
 10
8.2167
 20
2.8192
  0
VERTEX
  8
LAYER1
 62
     7
  6
CONTINUOUS
 10
8.2167
 20
2.8192
  0
VERTEX
  8
LAYER1
 62
     7
  6
CONTINUOUS
 10
8.2167
 20
2.8192
  0
VERTEX
  8
LAYER1
 62
     7
  6
CONTINUOUS
 10
8.2167
 20
2.8192
  0
VERTEX
  8
LAYER1
 62
     7
  6
CONTINUOUS
 10
8.2167
 20
2.8192
  0
VERTEX
  8
LAYER1
 62
     7
  6
CONTINUOUS
 10
8.2167
 20
2.8192
  0
VERTEX
  8
LAYER1
 62
     7
  6
CONTINUOUS
 10
8.2167
 20
2.8192
  0
VERTEX
  8
LAYER1
 62
     7
  6
CONTINUOUS
 10
8.2167
 20
2.8193
  0
VERTEX
  8
LAYER1
 62
     7
  6
CONTINUOUS
 10
8.2167
 20
2.8193
  0
VERTEX
  8
LAYER1
 62
     7
  6
CONTINUOUS
 10
8.2167
 20
2.8193
  0
VERTEX
  8
LAYER1
 62
     7
  6
CONTINUOUS
 10
8.2167
 20
2.8193
  0
VERTEX
  8
LAYER1
 62
     7
  6
CONTINUOUS
 10
8.2167
 20
2.8193
  0
VERTEX
  8
LAYER1
 62
     7
  6
CONTINUOUS
 10
8.2167
 20
2.8193
  0
VERTEX
  8
LAYER1
 62
     7
  6
CONTINUOUS
 10
8.2167
 20
2.8193
  0
VERTEX
  8
LAYER1
 62
     7
  6
CONTINUOUS
 10
8.2167
 20
2.8193
  0
VERTEX
  8
LAYER1
 62
     7
  6
CONTINUOUS
 10
8.2167
 20
2.8193
  0
VERTEX
  8
LAYER1
 62
     7
  6
CONTINUOUS
 10
8.2167
 20
2.8193
  0
VERTEX
  8
LAYER1
 62
     7
  6
CONTINUOUS
 10
8.2167
 20
2.8193
  0
VERTEX
  8
LAYER1
 62
     7
  6
CONTINUOUS
 10
8.2167
 20
2.8193
  0
VERTEX
  8
LAYER1
 62
     7
  6
CONTINUOUS
 10
8.2167
 20
2.8193
  0
VERTEX
  8
LAYER1
 62
     7
  6
CONTINUOUS
 10
8.2167
 20
2.8193
  0
VERTEX
  8
LAYER1
 62
     7
  6
CONTINUOUS
 10
8.2167
 20
2.8193
  0
VERTEX
  8
LAYER1
 62
     7
  6
CONTINUOUS
 10
8.2167
 20
2.8193
  0
VERTEX
  8
LAYER1
 62
     7
  6
CONTINUOUS
 10
8.2167
 20
2.8192
  0
VERTEX
  8
LAYER1
 62
     7
  6
CONTINUOUS
 10
8.2167
 20
2.8192
  0
VERTEX
  8
LAYER1
 62
     7
  6
CONTINUOUS
 10
8.2166
 20
2.8192
  0
VERTEX
  8
LAYER1
 62
     7
  6
CONTINUOUS
 10
8.2166
 20
2.8192
  0
VERTEX
  8
LAYER1
 62
     7
  6
CONTINUOUS
 10
8.2166
 20
2.8192
  0
VERTEX
  8
LAYER1
 62
     7
  6
CONTINUOUS
 10
8.2166
 20
2.8192
  0
VERTEX
  8
LAYER1
 62
     7
  6
CONTINUOUS
 10
8.2166
 20
2.8192
  0
VERTEX
  8
LAYER1
 62
     7
  6
CONTINUOUS
 10
8.2166
 20
2.8192
  0
VERTEX
  8
LAYER1
 62
     7
  6
CONTINUOUS
 10
8.2166
 20
2.8192
  0
SEQEND
  8
LAYER1
  0
POLYLINE
  8
LAYER1
 62
     7
 66
     1
  6
CONTINUOUS
  0
VERTEX
  8
LAYER1
 62
     7
  6
CONTINUOUS
 10
8.2166
 20
2.8192
  0
VERTEX
  8
LAYER1
 62
     7
  6
CONTINUOUS
 10
8.2167
 20
2.8192
  0
VERTEX
  8
LAYER1
 62
     7
  6
CONTINUOUS
 10
8.2167
 20
2.8193
  0
VERTEX
  8
LAYER1
 62
     7
  6
CONTINUOUS
 10
8.2172
 20
2.8195
  0
VERTEX
  8
LAYER1
 62
     7
  6
CONTINUOUS
 10
8.2181
 20
2.8198
  0
VERTEX
  8
LAYER1
 62
     7
  6
CONTINUOUS
 10
8.2193
 20
2.8204
  0
VERTEX
  8
LAYER1
 62
     7
  6
CONTINUOUS
 10
8.2210
 20
2.8211
  0
VERTEX
  8
LAYER1
 62
     7
  6
CONTINUOUS
 10
8.2229
 20
2.8219
  0
VERTEX
  8
LAYER1
 62
     7
  6
CONTINUOUS
 10
8.2251
 20
2.8228
  0
VERTEX
  8
LAYER1
 62
     7
  6
CONTINUOUS
 10
8.2275
 20
2.8238
  0
VERTEX
  8
LAYER1
 62
     7
  6
CONTINUOUS
 10
8.2301
 20
2.8249
  0
VERTEX
  8
LAYER1
 62
     7
  6
CONTINUOUS
 10
8.2328
 20
2.8260
  0
VERTEX
  8
LAYER1
 62
     7
  6
CONTINUOUS
 10
8.2357
 20
2.8272
  0
VERTEX
  8
LAYER1
 62
     7
  6
CONTINUOUS
 10
8.2386
 20
2.8284
  0
VERTEX
  8
LAYER1
 62
     7
  6
CONTINUOUS
 10
8.2416
 20
2.8297
  0
SEQEND
  8
LAYER1
  0
POLYLINE
  8
LAYER1
 62
     7
 66
     1
  6
CONTINUOUS
  0
VERTEX
  8
LAYER1
 62
     7
  6
CONTINUOUS
 10
8.5032
 20
2.5611
  0
VERTEX
  8
LAYER1
 62
     7
  6
CONTINUOUS
 10
8.5043
 20
2.5604
  0
VERTEX
  8
LAYER1
 62
     7
  6
CONTINUOUS
 10
8.5054
 20
2.5597
  0
VERTEX
  8
LAYER1
 62
     7
  6
CONTINUOUS
 10
8.5065
 20
2.5590
  0
VERTEX
  8
LAYER1
 62
     7
  6
CONTINUOUS
 10
8.5075
 20
2.5583
  0
VERTEX
  8
LAYER1
 62
     7
  6
CONTINUOUS
 10
8.5086
 20
2.5576
  0
VERTEX
  8
LAYER1
 62
     7
  6
CONTINUOUS
 10
8.5097
 20
2.5569
  0
VERTEX
  8
LAYER1
 62
     7
  6
CONTINUOUS
 10
8.5108
 20
2.5562
  0
VERTEX
  8
LAYER1
 62
     7
  6
CONTINUOUS
 10
8.5119
 20
2.5556
  0
VERTEX
  8
LAYER1
 62
     7
  6
CONTINUOUS
 10
8.5130
 20
2.5550
  0
VERTEX
  8
LAYER1
 62
     7
  6
CONTINUOUS
 10
8.5141
 20
2.5543
  0
VERTEX
  8
LAYER1
 62
     7
  6
CONTINUOUS
 10
8.5152
 20
2.5537
  0
VERTEX
  8
LAYER1
 62
     7
  6
CONTINUOUS
 10
8.5164
 20
2.5532
  0
VERTEX
  8
LAYER1
 62
     7
  6
CONTINUOUS
 10
8.5167
 20
2.5530
  0
VERTEX
  8
LAYER1
 62
     7
  6
CONTINUOUS
 10
8.5171
 20
2.5528
  0
VERTEX
  8
LAYER1
 62
     7
  6
CONTINUOUS
 10
8.5175
 20
2.5526
  0
VERTEX
  8
LAYER1
 62
     7
  6
CONTINUOUS
 10
8.5179
 20
2.5525
  0
VERTEX
  8
LAYER1
 62
     7
  6
CONTINUOUS
 10
8.5182
 20
2.5523
  0
VERTEX
  8
LAYER1
 62
     7
  6
CONTINUOUS
 10
8.5186
 20
2.5521
  0
VERTEX
  8
LAYER1
 62
     7
  6
CONTINUOUS
 10
8.5190
 20
2.5519
  0
VERTEX
  8
LAYER1
 62
     7
  6
CONTINUOUS
 10
8.5193
 20
2.5518
  0
VERTEX
  8
LAYER1
 62
     7
  6
CONTINUOUS
 10
8.5197
 20
2.5516
  0
VERTEX
  8
LAYER1
 62
     7
  6
CONTINUOUS
 10
8.5201
 20
2.5514
  0
VERTEX
  8
LAYER1
 62
     7
  6
CONTINUOUS
 10
8.5205
 20
2.5513
  0
VERTEX
  8
LAYER1
 62
     7
  6
CONTINUOUS
 10
8.5209
 20
2.5511
  0
SEQEND
  8
LAYER1
  0
POLYLINE
  8
LAYER1
 62
     7
 66
     1
  6
CONTINUOUS
  0
VERTEX
  8
LAYER1
 62
     7
  6
CONTINUOUS
 10
8.9405
 20
2.5511
  0
VERTEX
  8
LAYER1
 62
     7
  6
CONTINUOUS
 10
8.9425
 20
2.5523
  0
VERTEX
  8
LAYER1
 62
     7
  6
CONTINUOUS
 10
8.9444
 20
2.5534
  0
VERTEX
  8
LAYER1
 62
     7
  6
CONTINUOUS
 10
8.9463
 20
2.5546
  0
VERTEX
  8
LAYER1
 62
     7
  6
CONTINUOUS
 10
8.9481
 20
2.5556
  0
VERTEX
  8
LAYER1
 62
     7
  6
CONTINUOUS
 10
8.9499
 20
2.5567
  0
VERTEX
  8
LAYER1
 62
     7
  6
CONTINUOUS
 10
8.9515
 20
2.5576
  0
VERTEX
  8
LAYER1
 62
     7
  6
CONTINUOUS
 10
8.9530
 20
2.5585
  0
VERTEX
  8
LAYER1
 62
     7
  6
CONTINUOUS
 10
8.9543
 20
2.5593
  0
VERTEX
  8
LAYER1
 62
     7
  6
CONTINUOUS
 10
8.9554
 20
2.5599
  0
VERTEX
  8
LAYER1
 62
     7
  6
CONTINUOUS
 10
8.9563
 20
2.5605
  0
VERTEX
  8
LAYER1
 62
     7
  6
CONTINUOUS
 10
8.9569
 20
2.5609
  0
VERTEX
  8
LAYER1
 62
     7
  6
CONTINUOUS
 10
8.9573
 20
2.5611
  0
VERTEX
  8
LAYER1
 62
     7
  6
CONTINUOUS
 10
8.9574
 20
2.5611
  0
VERTEX
  8
LAYER1
 62
     7
  6
CONTINUOUS
 10
8.9574
 20
2.5612
  0
VERTEX
  8
LAYER1
 62
     7
  6
CONTINUOUS
 10
8.9574
 20
2.5612
  0
VERTEX
  8
LAYER1
 62
     7
  6
CONTINUOUS
 10
8.9575
 20
2.5612
  0
VERTEX
  8
LAYER1
 62
     7
  6
CONTINUOUS
 10
8.9575
 20
2.5612
  0
VERTEX
  8
LAYER1
 62
     7
  6
CONTINUOUS
 10
8.9575
 20
2.5612
  0
VERTEX
  8
LAYER1
 62
     7
  6
CONTINUOUS
 10
8.9575
 20
2.5612
  0
VERTEX
  8
LAYER1
 62
     7
  6
CONTINUOUS
 10
8.9574
 20
2.5612
  0
VERTEX
  8
LAYER1
 62
     7
  6
CONTINUOUS
 10
8.9574
 20
2.5612
  0
VERTEX
  8
LAYER1
 62
     7
  6
CONTINUOUS
 10
8.9574
 20
2.5611
  0
VERTEX
  8
LAYER1
 62
     7
  6
CONTINUOUS
 10
8.9574
 20
2.5611
  0
VERTEX
  8
LAYER1
 62
     7
  6
CONTINUOUS
 10
8.9573
 20
2.5611
  0
SEQEND
  8
LAYER1
  0
POLYLINE
  8
LAYER1
 62
     7
 66
     1
  6
CONTINUOUS
  0
VERTEX
  8
LAYER1
 62
     7
  6
CONTINUOUS
 10
8.4487
 20
3.5341
  0
VERTEX
  8
LAYER1
 62
     7
  6
CONTINUOUS
 10
8.4487
 20
3.5341
  0
VERTEX
  8
LAYER1
 62
     7
  6
CONTINUOUS
 10
8.4487
 20
3.5341
  0
VERTEX
  8
LAYER1
 62
     7
  6
CONTINUOUS
 10
8.4487
 20
3.5341
  0
VERTEX
  8
LAYER1
 62
     7
  6
CONTINUOUS
 10
8.4487
 20
3.5341
  0
VERTEX
  8
LAYER1
 62
     7
  6
CONTINUOUS
 10
8.4487
 20
3.5341
  0
VERTEX
  8
LAYER1
 62
     7
  6
CONTINUOUS
 10
8.4487
 20
3.5341
  0
VERTEX
  8
LAYER1
 62
     7
  6
CONTINUOUS
 10
8.4487
 20
3.5341
  0
VERTEX
  8
LAYER1
 62
     7
  6
CONTINUOUS
 10
8.4487
 20
3.5341
  0
VERTEX
  8
LAYER1
 62
     7
  6
CONTINUOUS
 10
8.4487
 20
3.5341
  0
VERTEX
  8
LAYER1
 62
     7
  6
CONTINUOUS
 10
8.4487
 20
3.5341
  0
VERTEX
  8
LAYER1
 62
     7
  6
CONTINUOUS
 10
8.4487
 20
3.5341
  0
VERTEX
  8
LAYER1
 62
     7
  6
CONTINUOUS
 10
8.4487
 20
3.5341
  0
VERTEX
  8
LAYER1
 62
     7
  6
CONTINUOUS
 10
8.4487
 20
3.5341
  0
VERTEX
  8
LAYER1
 62
     7
  6
CONTINUOUS
 10
8.4487
 20
3.5341
  0
VERTEX
  8
LAYER1
 62
     7
  6
CONTINUOUS
 10
8.4487
 20
3.5341
  0
VERTEX
  8
LAYER1
 62
     7
  6
CONTINUOUS
 10
8.4487
 20
3.5341
  0
VERTEX
  8
LAYER1
 62
     7
  6
CONTINUOUS
 10
8.4487
 20
3.5341
  0
VERTEX
  8
LAYER1
 62
     7
  6
CONTINUOUS
 10
8.4487
 20
3.5341
  0
VERTEX
  8
LAYER1
 62
     7
  6
CONTINUOUS
 10
8.4487
 20
3.5341
  0
VERTEX
  8
LAYER1
 62
     7
  6
CONTINUOUS
 10
8.4487
 20
3.5341
  0
VERTEX
  8
LAYER1
 62
     7
  6
CONTINUOUS
 10
8.4487
 20
3.5341
  0
VERTEX
  8
LAYER1
 62
     7
  6
CONTINUOUS
 10
8.4487
 20
3.5341
  0
VERTEX
  8
LAYER1
 62
     7
  6
CONTINUOUS
 10
8.4487
 20
3.5341
  0
VERTEX
  8
LAYER1
 62
     7
  6
CONTINUOUS
 10
8.4487
 20
3.5341
  0
SEQEND
  8
LAYER1
  0
POLYLINE
  8
LAYER1
 62
     7
 66
     1
  6
CONTINUOUS
  0
VERTEX
  8
LAYER1
 62
     7
  6
CONTINUOUS
 10
9.0570
 20
2.7431
  0
VERTEX
  8
LAYER1
 62
     7
  6
CONTINUOUS
 10
9.0569
 20
2.7430
  0
VERTEX
  8
LAYER1
 62
     7
  6
CONTINUOUS
 10
9.0568
 20
2.7430
  0
VERTEX
  8
LAYER1
 62
     7
  6
CONTINUOUS
 10
9.0567
 20
2.7429
  0
VERTEX
  8
LAYER1
 62
     7
  6
CONTINUOUS
 10
9.0566
 20
2.7428
  0
VERTEX
  8
LAYER1
 62
     7
  6
CONTINUOUS
 10
9.0566
 20
2.7427
  0
VERTEX
  8
LAYER1
 62
     7
  6
CONTINUOUS
 10
9.0565
 20
2.7426
  0
VERTEX
  8
LAYER1
 62
     7
  6
CONTINUOUS
 10
9.0564
 20
2.7426
  0
VERTEX
  8
LAYER1
 62
     7
  6
CONTINUOUS
 10
9.0563
 20
2.7425
  0
VERTEX
  8
LAYER1
 62
     7
  6
CONTINUOUS
 10
9.0563
 20
2.7424
  0
VERTEX
  8
LAYER1
 62
     7
  6
CONTINUOUS
 10
9.0562
 20
2.7424
  0
VERTEX
  8
LAYER1
 62
     7
  6
CONTINUOUS
 10
9.0561
 20
2.7423
  0
VERTEX
  8
LAYER1
 62
     7
  6
CONTINUOUS
 10
9.0561
 20
2.7422
  0
VERTEX
  8
LAYER1
 62
     7
  6
CONTINUOUS
 10
9.0559
 20
2.7421
  0
VERTEX
  8
LAYER1
 62
     7
  6
CONTINUOUS
 10
9.0558
 20
2.7419
  0
VERTEX
  8
LAYER1
 62
     7
  6
CONTINUOUS
 10
9.0557
 20
2.7418
  0
VERTEX
  8
LAYER1
 62
     7
  6
CONTINUOUS
 10
9.0556
 20
2.7418
  0
VERTEX
  8
LAYER1
 62
     7
  6
CONTINUOUS
 10
9.0556
 20
2.7418
  0
VERTEX
  8
LAYER1
 62
     7
  6
CONTINUOUS
 10
9.0556
 20
2.7418
  0
VERTEX
  8
LAYER1
 62
     7
  6
CONTINUOUS
 10
9.0557
 20
2.7418
  0
VERTEX
  8
LAYER1
 62
     7
  6
CONTINUOUS
 10
9.0557
 20
2.7419
  0
VERTEX
  8
LAYER1
 62
     7
  6
CONTINUOUS
 10
9.0558
 20
2.7420
  0
VERTEX
  8
LAYER1
 62
     7
  6
CONTINUOUS
 10
9.0559
 20
2.7420
  0
VERTEX
  8
LAYER1
 62
     7
  6
CONTINUOUS
 10
9.0560
 20
2.7421
  0
VERTEX
  8
LAYER1
 62
     7
  6
CONTINUOUS
 10
9.0561
 20
2.7422
  0
SEQEND
  8
LAYER1
  0
POLYLINE
  8
LAYER1
 62
     7
 66
     1
  6
CONTINUOUS
  0
VERTEX
  8
LAYER1
 62
     7
  6
CONTINUOUS
 10
9.0561
 20
2.7422
  0
VERTEX
  8
LAYER1
 62
     7
  6
CONTINUOUS
 10
9.0561
 20
2.7422
  0
VERTEX
  8
LAYER1
 62
     7
  6
CONTINUOUS
 10
9.0561
 20
2.7422
  0
VERTEX
  8
LAYER1
 62
     7
  6
CONTINUOUS
 10
9.0561
 20
2.7422
  0
VERTEX
  8
LAYER1
 62
     7
  6
CONTINUOUS
 10
9.0561
 20
2.7422
  0
VERTEX
  8
LAYER1
 62
     7
  6
CONTINUOUS
 10
9.0561
 20
2.7422
  0
VERTEX
  8
LAYER1
 62
     7
  6
CONTINUOUS
 10
9.0561
 20
2.7422
  0
VERTEX
  8
LAYER1
 62
     7
  6
CONTINUOUS
 10
9.0561
 20
2.7422
  0
VERTEX
  8
LAYER1
 62
     7
  6
CONTINUOUS
 10
9.0561
 20
2.7422
  0
VERTEX
  8
LAYER1
 62
     7
  6
CONTINUOUS
 10
9.0561
 20
2.7422
  0
VERTEX
  8
LAYER1
 62
     7
  6
CONTINUOUS
 10
9.0561
 20
2.7422
  0
VERTEX
  8
LAYER1
 62
     7
  6
CONTINUOUS
 10
9.0561
 20
2.7422
  0
VERTEX
  8
LAYER1
 62
     7
  6
CONTINUOUS
 10
9.0561
 20
2.7422
  0
VERTEX
  8
LAYER1
 62
     7
  6
CONTINUOUS
 10
9.0561
 20
2.7422
  0
VERTEX
  8
LAYER1
 62
     7
  6
CONTINUOUS
 10
9.0561
 20
2.7422
  0
VERTEX
  8
LAYER1
 62
     7
  6
CONTINUOUS
 10
9.0561
 20
2.7422
  0
VERTEX
  8
LAYER1
 62
     7
  6
CONTINUOUS
 10
9.0561
 20
2.7422
  0
VERTEX
  8
LAYER1
 62
     7
  6
CONTINUOUS
 10
9.0561
 20
2.7422
  0
VERTEX
  8
LAYER1
 62
     7
  6
CONTINUOUS
 10
9.0561
 20
2.7422
  0
VERTEX
  8
LAYER1
 62
     7
  6
CONTINUOUS
 10
9.0561
 20
2.7422
  0
VERTEX
  8
LAYER1
 62
     7
  6
CONTINUOUS
 10
9.0561
 20
2.7422
  0
VERTEX
  8
LAYER1
 62
     7
  6
CONTINUOUS
 10
9.0561
 20
2.7422
  0
VERTEX
  8
LAYER1
 62
     7
  6
CONTINUOUS
 10
9.0561
 20
2.7422
  0
VERTEX
  8
LAYER1
 62
     7
  6
CONTINUOUS
 10
9.0561
 20
2.7422
  0
VERTEX
  8
LAYER1
 62
     7
  6
CONTINUOUS
 10
9.0561
 20
2.7422
  0
SEQEND
  8
LAYER1
  0
POLYLINE
  8
LAYER1
 62
     7
 66
     1
  6
CONTINUOUS
  0
VERTEX
  8
LAYER1
 62
     7
  6
CONTINUOUS
 10
9.0561
 20
2.7422
  0
VERTEX
  8
LAYER1
 62
     7
  6
CONTINUOUS
 10
9.0561
 20
2.7422
  0
VERTEX
  8
LAYER1
 62
     7
  6
CONTINUOUS
 10
9.0561
 20
2.7422
  0
VERTEX
  8
LAYER1
 62
     7
  6
CONTINUOUS
 10
9.0561
 20
2.7422
  0
VERTEX
  8
LAYER1
 62
     7
  6
CONTINUOUS
 10
9.0561
 20
2.7422
  0
VERTEX
  8
LAYER1
 62
     7
  6
CONTINUOUS
 10
9.0561
 20
2.7422
  0
VERTEX
  8
LAYER1
 62
     7
  6
CONTINUOUS
 10
9.0561
 20
2.7422
  0
VERTEX
  8
LAYER1
 62
     7
  6
CONTINUOUS
 10
9.0561
 20
2.7422
  0
VERTEX
  8
LAYER1
 62
     7
  6
CONTINUOUS
 10
9.0561
 20
2.7422
  0
VERTEX
  8
LAYER1
 62
     7
  6
CONTINUOUS
 10
9.0561
 20
2.7422
  0
VERTEX
  8
LAYER1
 62
     7
  6
CONTINUOUS
 10
9.0561
 20
2.7422
  0
VERTEX
  8
LAYER1
 62
     7
  6
CONTINUOUS
 10
9.0561
 20
2.7422
  0
VERTEX
  8
LAYER1
 62
     7
  6
CONTINUOUS
 10
9.0561
 20
2.7422
  0
VERTEX
  8
LAYER1
 62
     7
  6
CONTINUOUS
 10
9.0561
 20
2.7422
  0
VERTEX
  8
LAYER1
 62
     7
  6
CONTINUOUS
 10
9.0561
 20
2.7422
  0
VERTEX
  8
LAYER1
 62
     7
  6
CONTINUOUS
 10
9.0561
 20
2.7422
  0
VERTEX
  8
LAYER1
 62
     7
  6
CONTINUOUS
 10
9.0561
 20
2.7422
  0
VERTEX
  8
LAYER1
 62
     7
  6
CONTINUOUS
 10
9.0561
 20
2.7422
  0
VERTEX
  8
LAYER1
 62
     7
  6
CONTINUOUS
 10
9.0561
 20
2.7422
  0
VERTEX
  8
LAYER1
 62
     7
  6
CONTINUOUS
 10
9.0561
 20
2.7422
  0
VERTEX
  8
LAYER1
 62
     7
  6
CONTINUOUS
 10
9.0561
 20
2.7422
  0
VERTEX
  8
LAYER1
 62
     7
  6
CONTINUOUS
 10
9.0561
 20
2.7422
  0
VERTEX
  8
LAYER1
 62
     7
  6
CONTINUOUS
 10
9.0561
 20
2.7422
  0
VERTEX
  8
LAYER1
 62
     7
  6
CONTINUOUS
 10
9.0561
 20
2.7422
  0
VERTEX
  8
LAYER1
 62
     7
  6
CONTINUOUS
 10
9.0561
 20
2.7422
  0
SEQEND
  8
LAYER1
  0
POLYLINE
  8
LAYER1
 62
     7
 66
     1
  6
CONTINUOUS
  0
VERTEX
  8
LAYER1
 62
     7
  6
CONTINUOUS
 10
9.0561
 20
2.7422
  0
VERTEX
  8
LAYER1
 62
     7
  6
CONTINUOUS
 10
9.0506
 20
2.7367
  0
VERTEX
  8
LAYER1
 62
     7
  6
CONTINUOUS
 10
9.0450
 20
2.7312
  0
VERTEX
  8
LAYER1
 62
     7
  6
CONTINUOUS
 10
9.0394
 20
2.7257
  0
VERTEX
  8
LAYER1
 62
     7
  6
CONTINUOUS
 10
9.0338
 20
2.7203
  0
VERTEX
  8
LAYER1
 62
     7
  6
CONTINUOUS
 10
9.0281
 20
2.7149
  0
VERTEX
  8
LAYER1
 62
     7
  6
CONTINUOUS
 10
9.0224
 20
2.7096
  0
VERTEX
  8
LAYER1
 62
     7
  6
CONTINUOUS
 10
9.0165
 20
2.7044
  0
VERTEX
  8
LAYER1
 62
     7
  6
CONTINUOUS
 10
9.0106
 20
2.6993
  0
VERTEX
  8
LAYER1
 62
     7
  6
CONTINUOUS
 10
9.0045
 20
2.6944
  0
VERTEX
  8
LAYER1
 62
     7
  6
CONTINUOUS
 10
8.9984
 20
2.6896
  0
VERTEX
  8
LAYER1
 62
     7
  6
CONTINUOUS
 10
8.9920
 20
2.6850
  0
VERTEX
  8
LAYER1
 62
     7
  6
CONTINUOUS
 10
8.9855
 20
2.6805
  0
VERTEX
  8
LAYER1
 62
     7
  6
CONTINUOUS
 10
8.9822
 20
2.6783
  0
VERTEX
  8
LAYER1
 62
     7
  6
CONTINUOUS
 10
8.9788
 20
2.6762
  0
VERTEX
  8
LAYER1
 62
     7
  6
CONTINUOUS
 10
8.9754
 20
2.6741
  0
VERTEX
  8
LAYER1
 62
     7
  6
CONTINUOUS
 10
8.9720
 20
2.6720
  0
VERTEX
  8
LAYER1
 62
     7
  6
CONTINUOUS
 10
8.9686
 20
2.6699
  0
VERTEX
  8
LAYER1
 62
     7
  6
CONTINUOUS
 10
8.9653
 20
2.6679
  0
VERTEX
  8
LAYER1
 62
     7
  6
CONTINUOUS
 10
8.9619
 20
2.6658
  0
VERTEX
  8
LAYER1
 62
     7
  6
CONTINUOUS
 10
8.9586
 20
2.6637
  0
VERTEX
  8
LAYER1
 62
     7
  6
CONTINUOUS
 10
8.9553
 20
2.6615
  0
VERTEX
  8
LAYER1
 62
     7
  6
CONTINUOUS
 10
8.9521
 20
2.6594
  0
VERTEX
  8
LAYER1
 62
     7
  6
CONTINUOUS
 10
8.9489
 20
2.6571
  0
VERTEX
  8
LAYER1
 62
     7
  6
CONTINUOUS
 10
8.9458
 20
2.6549
  0
VERTEX
  8
LAYER1
 62
     7
  6
CONTINUOUS
 10
8.9433
 20
2.6529
  0
VERTEX
  8
LAYER1
 62
     7
  6
CONTINUOUS
 10
8.9407
 20
2.6508
  0
VERTEX
  8
LAYER1
 62
     7
  6
CONTINUOUS
 10
8.9382
 20
2.6488
  0
VERTEX
  8
LAYER1
 62
     7
  6
CONTINUOUS
 10
8.9357
 20
2.6468
  0
VERTEX
  8
LAYER1
 62
     7
  6
CONTINUOUS
 10
8.9331
 20
2.6448
  0
VERTEX
  8
LAYER1
 62
     7
  6
CONTINUOUS
 10
8.9304
 20
2.6429
  0
VERTEX
  8
LAYER1
 62
     7
  6
CONTINUOUS
 10
8.9276
 20
2.6411
  0
VERTEX
  8
LAYER1
 62
     7
  6
CONTINUOUS
 10
8.9247
 20
2.6394
  0
VERTEX
  8
LAYER1
 62
     7
  6
CONTINUOUS
 10
8.9216
 20
2.6379
  0
VERTEX
  8
LAYER1
 62
     7
  6
CONTINUOUS
 10
8.9183
 20
2.6365
  0
VERTEX
  8
LAYER1
 62
     7
  6
CONTINUOUS
 10
8.9148
 20
2.6353
  0
VERTEX
  8
LAYER1
 62
     7
  6
CONTINUOUS
 10
8.9111
 20
2.6343
  0
VERTEX
  8
LAYER1
 62
     7
  6
CONTINUOUS
 10
8.9065
 20
2.6334
  0
VERTEX
  8
LAYER1
 62
     7
  6
CONTINUOUS
 10
8.9018
 20
2.6328
  0
VERTEX
  8
LAYER1
 62
     7
  6
CONTINUOUS
 10
8.8969
 20
2.6325
  0
VERTEX
  8
LAYER1
 62
     7
  6
CONTINUOUS
 10
8.8920
 20
2.6323
  0
VERTEX
  8
LAYER1
 62
     7
  6
CONTINUOUS
 10
8.8872
 20
2.6323
  0
VERTEX
  8
LAYER1
 62
     7
  6
CONTINUOUS
 10
8.8826
 20
2.6324
  0
VERTEX
  8
LAYER1
 62
     7
  6
CONTINUOUS
 10
8.8783
 20
2.6326
  0
VERTEX
  8
LAYER1
 62
     7
  6
CONTINUOUS
 10
8.8745
 20
2.6328
  0
VERTEX
  8
LAYER1
 62
     7
  6
CONTINUOUS
 10
8.8713
 20
2.6331
  0
VERTEX
  8
LAYER1
 62
     7
  6
CONTINUOUS
 10
8.8687
 20
2.6333
  0
VERTEX
  8
LAYER1
 62
     7
  6
CONTINUOUS
 10
8.8669
 20
2.6335
  0
VERTEX
  8
LAYER1
 62
     7
  6
CONTINUOUS
 10
8.8660
 20
2.6336
  0
VERTEX
  8
LAYER1
 62
     7
  6
CONTINUOUS
 10
8.8659
 20
2.6336
  0
VERTEX
  8
LAYER1
 62
     7
  6
CONTINUOUS
 10
8.8659
 20
2.6336
  0
VERTEX
  8
LAYER1
 62
     7
  6
CONTINUOUS
 10
8.8659
 20
2.6336
  0
VERTEX
  8
LAYER1
 62
     7
  6
CONTINUOUS
 10
8.8659
 20
2.6336
  0
VERTEX
  8
LAYER1
 62
     7
  6
CONTINUOUS
 10
8.8659
 20
2.6336
  0
VERTEX
  8
LAYER1
 62
     7
  6
CONTINUOUS
 10
8.8659
 20
2.6336
  0
VERTEX
  8
LAYER1
 62
     7
  6
CONTINUOUS
 10
8.8659
 20
2.6336
  0
VERTEX
  8
LAYER1
 62
     7
  6
CONTINUOUS
 10
8.8659
 20
2.6336
  0
VERTEX
  8
LAYER1
 62
     7
  6
CONTINUOUS
 10
8.8659
 20
2.6336
  0
VERTEX
  8
LAYER1
 62
     7
  6
CONTINUOUS
 10
8.8659
 20
2.6336
  0
VERTEX
  8
LAYER1
 62
     7
  6
CONTINUOUS
 10
8.8659
 20
2.6336
  0
VERTEX
  8
LAYER1
 62
     7
  6
CONTINUOUS
 10
8.8660
 20
2.6336
  0
VERTEX
  8
LAYER1
 62
     7
  6
CONTINUOUS
 10
8.8660
 20
2.6336
  0
VERTEX
  8
LAYER1
 62
     7
  6
CONTINUOUS
 10
8.8660
 20
2.6336
  0
VERTEX
  8
LAYER1
 62
     7
  6
CONTINUOUS
 10
8.8660
 20
2.6336
  0
VERTEX
  8
LAYER1
 62
     7
  6
CONTINUOUS
 10
8.8660
 20
2.6336
  0
VERTEX
  8
LAYER1
 62
     7
  6
CONTINUOUS
 10
8.8661
 20
2.6336
  0
VERTEX
  8
LAYER1
 62
     7
  6
CONTINUOUS
 10
8.8661
 20
2.6336
  0
VERTEX
  8
LAYER1
 62
     7
  6
CONTINUOUS
 10
8.8661
 20
2.6336
  0
VERTEX
  8
LAYER1
 62
     7
  6
CONTINUOUS
 10
8.8661
 20
2.6336
  0
VERTEX
  8
LAYER1
 62
     7
  6
CONTINUOUS
 10
8.8661
 20
2.6336
  0
VERTEX
  8
LAYER1
 62
     7
  6
CONTINUOUS
 10
8.8660
 20
2.6336
  0
VERTEX
  8
LAYER1
 62
     7
  6
CONTINUOUS
 10
8.8660
 20
2.6336
  0
VERTEX
  8
LAYER1
 62
     7
  6
CONTINUOUS
 10
8.8660
 20
2.6336
  0
VERTEX
  8
LAYER1
 62
     7
  6
CONTINUOUS
 10
8.8652
 20
2.6338
  0
VERTEX
  8
LAYER1
 62
     7
  6
CONTINUOUS
 10
8.8638
 20
2.6341
  0
VERTEX
  8
LAYER1
 62
     7
  6
CONTINUOUS
 10
8.8617
 20
2.6346
  0
VERTEX
  8
LAYER1
 62
     7
  6
CONTINUOUS
 10
8.8592
 20
2.6351
  0
VERTEX
  8
LAYER1
 62
     7
  6
CONTINUOUS
 10
8.8562
 20
2.6357
  0
VERTEX
  8
LAYER1
 62
     7
  6
CONTINUOUS
 10
8.8529
 20
2.6362
  0
VERTEX
  8
LAYER1
 62
     7
  6
CONTINUOUS
 10
8.8494
 20
2.6368
  0
VERTEX
  8
LAYER1
 62
     7
  6
CONTINUOUS
 10
8.8456
 20
2.6373
  0
VERTEX
  8
LAYER1
 62
     7
  6
CONTINUOUS
 10
8.8418
 20
2.6377
  0
VERTEX
  8
LAYER1
 62
     7
  6
CONTINUOUS
 10
8.8380
 20
2.6380
  0
VERTEX
  8
LAYER1
 62
     7
  6
CONTINUOUS
 10
8.8343
 20
2.6382
  0
VERTEX
  8
LAYER1
 62
     7
  6
CONTINUOUS
 10
8.8308
 20
2.6381
  0
VERTEX
  8
LAYER1
 62
     7
  6
CONTINUOUS
 10
8.8279
 20
2.6378
  0
VERTEX
  8
LAYER1
 62
     7
  6
CONTINUOUS
 10
8.8251
 20
2.6374
  0
VERTEX
  8
LAYER1
 62
     7
  6
CONTINUOUS
 10
8.8225
 20
2.6368
  0
VERTEX
  8
LAYER1
 62
     7
  6
CONTINUOUS
 10
8.8200
 20
2.6361
  0
VERTEX
  8
LAYER1
 62
     7
  6
CONTINUOUS
 10
8.8176
 20
2.6353
  0
VERTEX
  8
LAYER1
 62
     7
  6
CONTINUOUS
 10
8.8153
 20
2.6344
  0
VERTEX
  8
LAYER1
 62
     7
  6
CONTINUOUS
 10
8.8130
 20
2.6334
  0
VERTEX
  8
LAYER1
 62
     7
  6
CONTINUOUS
 10
8.8107
 20
2.6323
  0
VERTEX
  8
LAYER1
 62
     7
  6
CONTINUOUS
 10
8.8084
 20
2.6311
  0
VERTEX
  8
LAYER1
 62
     7
  6
CONTINUOUS
 10
8.8060
 20
2.6300
  0
VERTEX
  8
LAYER1
 62
     7
  6
CONTINUOUS
 10
8.8035
 20
2.6288
  0
VERTEX
  8
LAYER1
 62
     7
  6
CONTINUOUS
 10
8.8009
 20
2.6276
  0
VERTEX
  8
LAYER1
 62
     7
  6
CONTINUOUS
 10
8.7939
 20
2.6248
  0
VERTEX
  8
LAYER1
 62
     7
  6
CONTINUOUS
 10
8.7863
 20
2.6221
  0
VERTEX
  8
LAYER1
 62
     7
  6
CONTINUOUS
 10
8.7783
 20
2.6195
  0
VERTEX
  8
LAYER1
 62
     7
  6
CONTINUOUS
 10
8.7700
 20
2.6171
  0
VERTEX
  8
LAYER1
 62
     7
  6
CONTINUOUS
 10
8.7618
 20
2.6149
  0
VERTEX
  8
LAYER1
 62
     7
  6
CONTINUOUS
 10
8.7539
 20
2.6129
  0
VERTEX
  8
LAYER1
 62
     7
  6
CONTINUOUS
 10
8.7466
 20
2.6112
  0
VERTEX
  8
LAYER1
 62
     7
  6
CONTINUOUS
 10
8.7400
 20
2.6097
  0
VERTEX
  8
LAYER1
 62
     7
  6
CONTINUOUS
 10
8.7344
 20
2.6084
  0
VERTEX
  8
LAYER1
 62
     7
  6
CONTINUOUS
 10
8.7300
 20
2.6074
  0
VERTEX
  8
LAYER1
 62
     7
  6
CONTINUOUS
 10
8.7272
 20
2.6068
  0
VERTEX
  8
LAYER1
 62
     7
  6
CONTINUOUS
 10
8.7261
 20
2.6064
  0
VERTEX
  8
LAYER1
 62
     7
  6
CONTINUOUS
 10
8.7260
 20
2.6064
  0
VERTEX
  8
LAYER1
 62
     7
  6
CONTINUOUS
 10
8.7260
 20
2.6064
  0
VERTEX
  8
LAYER1
 62
     7
  6
CONTINUOUS
 10
8.7260
 20
2.6064
  0
VERTEX
  8
LAYER1
 62
     7
  6
CONTINUOUS
 10
8.7261
 20
2.6064
  0
VERTEX
  8
LAYER1
 62
     7
  6
CONTINUOUS
 10
8.7261
 20
2.6064
  0
VERTEX
  8
LAYER1
 62
     7
  6
CONTINUOUS
 10
8.7261
 20
2.6064
  0
VERTEX
  8
LAYER1
 62
     7
  6
CONTINUOUS
 10
8.7261
 20
2.6064
  0
VERTEX
  8
LAYER1
 62
     7
  6
CONTINUOUS
 10
8.7261
 20
2.6064
  0
VERTEX
  8
LAYER1
 62
     7
  6
CONTINUOUS
 10
8.7261
 20
2.6064
  0
VERTEX
  8
LAYER1
 62
     7
  6
CONTINUOUS
 10
8.7261
 20
2.6064
  0
VERTEX
  8
LAYER1
 62
     7
  6
CONTINUOUS
 10
8.7261
 20
2.6064
  0
VERTEX
  8
LAYER1
 62
     7
  6
CONTINUOUS
 10
8.7261
 20
2.6064
  0
VERTEX
  8
LAYER1
 62
     7
  6
CONTINUOUS
 10
8.7240
 20
2.6072
  0
VERTEX
  8
LAYER1
 62
     7
  6
CONTINUOUS
 10
8.7190
 20
2.6089
  0
VERTEX
  8
LAYER1
 62
     7
  6
CONTINUOUS
 10
8.7116
 20
2.6113
  0
VERTEX
  8
LAYER1
 62
     7
  6
CONTINUOUS
 10
8.7024
 20
2.6142
  0
VERTEX
  8
LAYER1
 62
     7
  6
CONTINUOUS
 10
8.6921
 20
2.6175
  0
VERTEX
  8
LAYER1
 62
     7
  6
CONTINUOUS
 10
8.6811
 20
2.6209
  0
VERTEX
  8
LAYER1
 62
     7
  6
CONTINUOUS
 10
8.6701
 20
2.6244
  0
VERTEX
  8
LAYER1
 62
     7
  6
CONTINUOUS
 10
8.6597
 20
2.6276
  0
VERTEX
  8
LAYER1
 62
     7
  6
CONTINUOUS
 10
8.6504
 20
2.6305
  0
VERTEX
  8
LAYER1
 62
     7
  6
CONTINUOUS
 10
8.6429
 20
2.6329
  0
VERTEX
  8
LAYER1
 62
     7
  6
CONTINUOUS
 10
8.6377
 20
2.6345
  0
VERTEX
  8
LAYER1
 62
     7
  6
CONTINUOUS
 10
8.6354
 20
2.6351
  0
VERTEX
  8
LAYER1
 62
     7
  6
CONTINUOUS
 10
8.6354
 20
2.6352
  0
VERTEX
  8
LAYER1
 62
     7
  6
CONTINUOUS
 10
8.6354
 20
2.6352
  0
VERTEX
  8
LAYER1
 62
     7
  6
CONTINUOUS
 10
8.6354
 20
2.6352
  0
VERTEX
  8
LAYER1
 62
     7
  6
CONTINUOUS
 10
8.6354
 20
2.6352
  0
VERTEX
  8
LAYER1
 62
     7
  6
CONTINUOUS
 10
8.6353
 20
2.6352
  0
VERTEX
  8
LAYER1
 62
     7
  6
CONTINUOUS
 10
8.6354
 20
2.6352
  0
VERTEX
  8
LAYER1
 62
     7
  6
CONTINUOUS
 10
8.6354
 20
2.6352
  0
VERTEX
  8
LAYER1
 62
     7
  6
CONTINUOUS
 10
8.6354
 20
2.6352
  0
VERTEX
  8
LAYER1
 62
     7
  6
CONTINUOUS
 10
8.6354
 20
2.6352
  0
VERTEX
  8
LAYER1
 62
     7
  6
CONTINUOUS
 10
8.6354
 20
2.6351
  0
VERTEX
  8
LAYER1
 62
     7
  6
CONTINUOUS
 10
8.6354
 20
2.6351
  0
VERTEX
  8
LAYER1
 62
     7
  6
CONTINUOUS
 10
8.6354
 20
2.6351
  0
VERTEX
  8
LAYER1
 62
     7
  6
CONTINUOUS
 10
8.6354
 20
2.6351
  0
VERTEX
  8
LAYER1
 62
     7
  6
CONTINUOUS
 10
8.6354
 20
2.6351
  0
VERTEX
  8
LAYER1
 62
     7
  6
CONTINUOUS
 10
8.6355
 20
2.6351
  0
VERTEX
  8
LAYER1
 62
     7
  6
CONTINUOUS
 10
8.6355
 20
2.6351
  0
VERTEX
  8
LAYER1
 62
     7
  6
CONTINUOUS
 10
8.6355
 20
2.6351
  0
VERTEX
  8
LAYER1
 62
     7
  6
CONTINUOUS
 10
8.6355
 20
2.6351
  0
VERTEX
  8
LAYER1
 62
     7
  6
CONTINUOUS
 10
8.6355
 20
2.6351
  0
VERTEX
  8
LAYER1
 62
     7
  6
CONTINUOUS
 10
8.6355
 20
2.6351
  0
VERTEX
  8
LAYER1
 62
     7
  6
CONTINUOUS
 10
8.6355
 20
2.6352
  0
VERTEX
  8
LAYER1
 62
     7
  6
CONTINUOUS
 10
8.6355
 20
2.6351
  0
VERTEX
  8
LAYER1
 62
     7
  6
CONTINUOUS
 10
8.6354
 20
2.6351
  0
VERTEX
  8
LAYER1
 62
     7
  6
CONTINUOUS
 10
8.6354
 20
2.6351
  0
VERTEX
  8
LAYER1
 62
     7
  6
CONTINUOUS
 10
8.6343
 20
2.6349
  0
VERTEX
  8
LAYER1
 62
     7
  6
CONTINUOUS
 10
8.6318
 20
2.6344
  0
VERTEX
  8
LAYER1
 62
     7
  6
CONTINUOUS
 10
8.6281
 20
2.6336
  0
VERTEX
  8
LAYER1
 62
     7
  6
CONTINUOUS
 10
8.6233
 20
2.6327
  0
VERTEX
  8
LAYER1
 62
     7
  6
CONTINUOUS
 10
8.6175
 20
2.6317
  0
VERTEX
  8
LAYER1
 62
     7
  6
CONTINUOUS
 10
8.6109
 20
2.6307
  0
VERTEX
  8
LAYER1
 62
     7
  6
CONTINUOUS
 10
8.6035
 20
2.6298
  0
VERTEX
  8
LAYER1
 62
     7
  6
CONTINUOUS
 10
8.5955
 20
2.6290
  0
VERTEX
  8
LAYER1
 62
     7
  6
CONTINUOUS
 10
8.5871
 20
2.6285
  0
VERTEX
  8
LAYER1
 62
     7
  6
CONTINUOUS
 10
8.5784
 20
2.6283
  0
VERTEX
  8
LAYER1
 62
     7
  6
CONTINUOUS
 10
8.5694
 20
2.6284
  0
VERTEX
  8
LAYER1
 62
     7
  6
CONTINUOUS
 10
8.5603
 20
2.6290
  0
VERTEX
  8
LAYER1
 62
     7
  6
CONTINUOUS
 10
8.5548
 20
2.6296
  0
VERTEX
  8
LAYER1
 62
     7
  6
CONTINUOUS
 10
8.5494
 20
2.6304
  0
VERTEX
  8
LAYER1
 62
     7
  6
CONTINUOUS
 10
8.5441
 20
2.6313
  0
VERTEX
  8
LAYER1
 62
     7
  6
CONTINUOUS
 10
8.5390
 20
2.6323
  0
VERTEX
  8
LAYER1
 62
     7
  6
CONTINUOUS
 10
8.5343
 20
2.6333
  0
VERTEX
  8
LAYER1
 62
     7
  6
CONTINUOUS
 10
8.5299
 20
2.6343
  0
VERTEX
  8
LAYER1
 62
     7
  6
CONTINUOUS
 10
8.5259
 20
2.6353
  0
VERTEX
  8
LAYER1
 62
     7
  6
CONTINUOUS
 10
8.5225
 20
2.6362
  0
VERTEX
  8
LAYER1
 62
     7
  6
CONTINUOUS
 10
8.5196
 20
2.6370
  0
VERTEX
  8
LAYER1
 62
     7
  6
CONTINUOUS
 10
8.5174
 20
2.6377
  0
VERTEX
  8
LAYER1
 62
     7
  6
CONTINUOUS
 10
8.5158
 20
2.6381
  0
VERTEX
  8
LAYER1
 62
     7
  6
CONTINUOUS
 10
8.5151
 20
2.6383
  0
VERTEX
  8
LAYER1
 62
     7
  6
CONTINUOUS
 10
8.5151
 20
2.6383
  0
VERTEX
  8
LAYER1
 62
     7
  6
CONTINUOUS
 10
8.5150
 20
2.6384
  0
VERTEX
  8
LAYER1
 62
     7
  6
CONTINUOUS
 10
8.5150
 20
2.6384
  0
VERTEX
  8
LAYER1
 62
     7
  6
CONTINUOUS
 10
8.5150
 20
2.6384
  0
VERTEX
  8
LAYER1
 62
     7
  6
CONTINUOUS
 10
8.5150
 20
2.6384
  0
VERTEX
  8
LAYER1
 62
     7
  6
CONTINUOUS
 10
8.5150
 20
2.6384
  0
VERTEX
  8
LAYER1
 62
     7
  6
CONTINUOUS
 10
8.5150
 20
2.6384
  0
VERTEX
  8
LAYER1
 62
     7
  6
CONTINUOUS
 10
8.5150
 20
2.6384
  0
VERTEX
  8
LAYER1
 62
     7
  6
CONTINUOUS
 10
8.5150
 20
2.6383
  0
VERTEX
  8
LAYER1
 62
     7
  6
CONTINUOUS
 10
8.5151
 20
2.6383
  0
VERTEX
  8
LAYER1
 62
     7
  6
CONTINUOUS
 10
8.5151
 20
2.6383
  0
VERTEX
  8
LAYER1
 62
     7
  6
CONTINUOUS
 10
8.5151
 20
2.6383
  0
VERTEX
  8
LAYER1
 62
     7
  6
CONTINUOUS
 10
8.5151
 20
2.6383
  0
VERTEX
  8
LAYER1
 62
     7
  6
CONTINUOUS
 10
8.5151
 20
2.6383
  0
VERTEX
  8
LAYER1
 62
     7
  6
CONTINUOUS
 10
8.5151
 20
2.6383
  0
VERTEX
  8
LAYER1
 62
     7
  6
CONTINUOUS
 10
8.5151
 20
2.6383
  0
VERTEX
  8
LAYER1
 62
     7
  6
CONTINUOUS
 10
8.5152
 20
2.6383
  0
VERTEX
  8
LAYER1
 62
     7
  6
CONTINUOUS
 10
8.5152
 20
2.6383
  0
VERTEX
  8
LAYER1
 62
     7
  6
CONTINUOUS
 10
8.5152
 20
2.6383
  0
VERTEX
  8
LAYER1
 62
     7
  6
CONTINUOUS
 10
8.5152
 20
2.6383
  0
VERTEX
  8
LAYER1
 62
     7
  6
CONTINUOUS
 10
8.5152
 20
2.6383
  0
VERTEX
  8
LAYER1
 62
     7
  6
CONTINUOUS
 10
8.5151
 20
2.6383
  0
VERTEX
  8
LAYER1
 62
     7
  6
CONTINUOUS
 10
8.5151
 20
2.6383
  0
VERTEX
  8
LAYER1
 62
     7
  6
CONTINUOUS
 10
8.5151
 20
2.6383
  0
VERTEX
  8
LAYER1
 62
     7
  6
CONTINUOUS
 10
8.5143
 20
2.6383
  0
VERTEX
  8
LAYER1
 62
     7
  6
CONTINUOUS
 10
8.5125
 20
2.6383
  0
VERTEX
  8
LAYER1
 62
     7
  6
CONTINUOUS
 10
8.5100
 20
2.6382
  0
VERTEX
  8
LAYER1
 62
     7
  6
CONTINUOUS
 10
8.5067
 20
2.6382
  0
VERTEX
  8
LAYER1
 62
     7
  6
CONTINUOUS
 10
8.5028
 20
2.6383
  0
VERTEX
  8
LAYER1
 62
     7
  6
CONTINUOUS
 10
8.4983
 20
2.6384
  0
VERTEX
  8
LAYER1
 62
     7
  6
CONTINUOUS
 10
8.4934
 20
2.6386
  0
VERTEX
  8
LAYER1
 62
     7
  6
CONTINUOUS
 10
8.4881
 20
2.6390
  0
VERTEX
  8
LAYER1
 62
     7
  6
CONTINUOUS
 10
8.4825
 20
2.6396
  0
VERTEX
  8
LAYER1
 62
     7
  6
CONTINUOUS
 10
8.4767
 20
2.6404
  0
VERTEX
  8
LAYER1
 62
     7
  6
CONTINUOUS
 10
8.4708
 20
2.6414
  0
VERTEX
  8
LAYER1
 62
     7
  6
CONTINUOUS
 10
8.4649
 20
2.6426
  0
VERTEX
  8
LAYER1
 62
     7
  6
CONTINUOUS
 10
8.4579
 20
2.6444
  0
VERTEX
  8
LAYER1
 62
     7
  6
CONTINUOUS
 10
8.4511
 20
2.6466
  0
VERTEX
  8
LAYER1
 62
     7
  6
CONTINUOUS
 10
8.4445
 20
2.6490
  0
VERTEX
  8
LAYER1
 62
     7
  6
CONTINUOUS
 10
8.4382
 20
2.6516
  0
VERTEX
  8
LAYER1
 62
     7
  6
CONTINUOUS
 10
8.4324
 20
2.6542
  0
VERTEX
  8
LAYER1
 62
     7
  6
CONTINUOUS
 10
8.4271
 20
2.6567
  0
VERTEX
  8
LAYER1
 62
     7
  6
CONTINUOUS
 10
8.4223
 20
2.6592
  0
VERTEX
  8
LAYER1
 62
     7
  6
CONTINUOUS
 10
8.4181
 20
2.6615
  0
VERTEX
  8
LAYER1
 62
     7
  6
CONTINUOUS
 10
8.4147
 20
2.6635
  0
VERTEX
  8
LAYER1
 62
     7
  6
CONTINUOUS
 10
8.4120
 20
2.6651
  0
VERTEX
  8
LAYER1
 62
     7
  6
CONTINUOUS
 10
8.4103
 20
2.6662
  0
VERTEX
  8
LAYER1
 62
     7
  6
CONTINUOUS
 10
8.4094
 20
2.6668
  0
VERTEX
  8
LAYER1
 62
     7
  6
CONTINUOUS
 10
8.4094
 20
2.6668
  0
VERTEX
  8
LAYER1
 62
     7
  6
CONTINUOUS
 10
8.4094
 20
2.6669
  0
VERTEX
  8
LAYER1
 62
     7
  6
CONTINUOUS
 10
8.4094
 20
2.6669
  0
VERTEX
  8
LAYER1
 62
     7
  6
CONTINUOUS
 10
8.4094
 20
2.6669
  0
VERTEX
  8
LAYER1
 62
     7
  6
CONTINUOUS
 10
8.4094
 20
2.6669
  0
VERTEX
  8
LAYER1
 62
     7
  6
CONTINUOUS
 10
8.4094
 20
2.6669
  0
VERTEX
  8
LAYER1
 62
     7
  6
CONTINUOUS
 10
8.4094
 20
2.6669
  0
VERTEX
  8
LAYER1
 62
     7
  6
CONTINUOUS
 10
8.4094
 20
2.6669
  0
VERTEX
  8
LAYER1
 62
     7
  6
CONTINUOUS
 10
8.4094
 20
2.6669
  0
VERTEX
  8
LAYER1
 62
     7
  6
CONTINUOUS
 10
8.4094
 20
2.6669
  0
VERTEX
  8
LAYER1
 62
     7
  6
CONTINUOUS
 10
8.4094
 20
2.6668
  0
VERTEX
  8
LAYER1
 62
     7
  6
CONTINUOUS
 10
8.4094
 20
2.6668
  0
VERTEX
  8
LAYER1
 62
     7
  6
CONTINUOUS
 10
8.4094
 20
2.6668
  0
VERTEX
  8
LAYER1
 62
     7
  6
CONTINUOUS
 10
8.4095
 20
2.6668
  0
VERTEX
  8
LAYER1
 62
     7
  6
CONTINUOUS
 10
8.4095
 20
2.6667
  0
VERTEX
  8
LAYER1
 62
     7
  6
CONTINUOUS
 10
8.4095
 20
2.6667
  0
VERTEX
  8
LAYER1
 62
     7
  6
CONTINUOUS
 10
8.4095
 20
2.6667
  0
VERTEX
  8
LAYER1
 62
     7
  6
CONTINUOUS
 10
8.4095
 20
2.6667
  0
VERTEX
  8
LAYER1
 62
     7
  6
CONTINUOUS
 10
8.4095
 20
2.6667
  0
VERTEX
  8
LAYER1
 62
     7
  6
CONTINUOUS
 10
8.4095
 20
2.6667
  0
VERTEX
  8
LAYER1
 62
     7
  6
CONTINUOUS
 10
8.4095
 20
2.6667
  0
VERTEX
  8
LAYER1
 62
     7
  6
CONTINUOUS
 10
8.4095
 20
2.6667
  0
VERTEX
  8
LAYER1
 62
     7
  6
CONTINUOUS
 10
8.4095
 20
2.6668
  0
VERTEX
  8
LAYER1
 62
     7
  6
CONTINUOUS
 10
8.4094
 20
2.6668
  0
VERTEX
  8
LAYER1
 62
     7
  6
CONTINUOUS
 10
8.4092
 20
2.6673
  0
VERTEX
  8
LAYER1
 62
     7
  6
CONTINUOUS
 10
8.4088
 20
2.6680
  0
VERTEX
  8
LAYER1
 62
     7
  6
CONTINUOUS
 10
8.4083
 20
2.6690
  0
VERTEX
  8
LAYER1
 62
     7
  6
CONTINUOUS
 10
8.4076
 20
2.6701
  0
VERTEX
  8
LAYER1
 62
     7
  6
CONTINUOUS
 10
8.4069
 20
2.6715
  0
VERTEX
  8
LAYER1
 62
     7
  6
CONTINUOUS
 10
8.4060
 20
2.6729
  0
VERTEX
  8
LAYER1
 62
     7
  6
CONTINUOUS
 10
8.4050
 20
2.6745
  0
VERTEX
  8
LAYER1
 62
     7
  6
CONTINUOUS
 10
8.4040
 20
2.6760
  0
VERTEX
  8
LAYER1
 62
     7
  6
CONTINUOUS
 10
8.4029
 20
2.6776
  0
VERTEX
  8
LAYER1
 62
     7
  6
CONTINUOUS
 10
8.4017
 20
2.6790
  0
VERTEX
  8
LAYER1
 62
     7
  6
CONTINUOUS
 10
8.4004
 20
2.6804
  0
VERTEX
  8
LAYER1
 62
     7
  6
CONTINUOUS
 10
8.3992
 20
2.6817
  0
VERTEX
  8
LAYER1
 62
     7
  6
CONTINUOUS
 10
8.3970
 20
2.6834
  0
VERTEX
  8
LAYER1
 62
     7
  6
CONTINUOUS
 10
8.3947
 20
2.6847
  0
VERTEX
  8
LAYER1
 62
     7
  6
CONTINUOUS
 10
8.3924
 20
2.6855
  0
VERTEX
  8
LAYER1
 62
     7
  6
CONTINUOUS
 10
8.3900
 20
2.6860
  0
VERTEX
  8
LAYER1
 62
     7
  6
CONTINUOUS
 10
8.3876
 20
2.6861
  0
VERTEX
  8
LAYER1
 62
     7
  6
CONTINUOUS
 10
8.3851
 20
2.6860
  0
VERTEX
  8
LAYER1
 62
     7
  6
CONTINUOUS
 10
8.3825
 20
2.6855
  0
VERTEX
  8
LAYER1
 62
     7
  6
CONTINUOUS
 10
8.3799
 20
2.6849
  0
VERTEX
  8
LAYER1
 62
     7
  6
CONTINUOUS
 10
8.3773
 20
2.6842
  0
VERTEX
  8
LAYER1
 62
     7
  6
CONTINUOUS
 10
8.3746
 20
2.6833
  0
VERTEX
  8
LAYER1
 62
     7
  6
CONTINUOUS
 10
8.3719
 20
2.6823
  0
VERTEX
  8
LAYER1
 62
     7
  6
CONTINUOUS
 10
8.3691
 20
2.6812
  0
VERTEX
  8
LAYER1
 62
     7
  6
CONTINUOUS
 10
8.3670
 20
2.6805
  0
VERTEX
  8
LAYER1
 62
     7
  6
CONTINUOUS
 10
8.3650
 20
2.6797
  0
VERTEX
  8
LAYER1
 62
     7
  6
CONTINUOUS
 10
8.3629
 20
2.6789
  0
VERTEX
  8
LAYER1
 62
     7
  6
CONTINUOUS
 10
8.3609
 20
2.6781
  0
VERTEX
  8
LAYER1
 62
     7
  6
CONTINUOUS
 10
8.3590
 20
2.6773
  0
VERTEX
  8
LAYER1
 62
     7
  6
CONTINUOUS
 10
8.3572
 20
2.6765
  0
VERTEX
  8
LAYER1
 62
     7
  6
CONTINUOUS
 10
8.3554
 20
2.6756
  0
VERTEX
  8
LAYER1
 62
     7
  6
CONTINUOUS
 10
8.3538
 20
2.6748
  0
VERTEX
  8
LAYER1
 62
     7
  6
CONTINUOUS
 10
8.3524
 20
2.6739
  0
VERTEX
  8
LAYER1
 62
     7
  6
CONTINUOUS
 10
8.3511
 20
2.6729
  0
VERTEX
  8
LAYER1
 62
     7
  6
CONTINUOUS
 10
8.3501
 20
2.6719
  0
VERTEX
  8
LAYER1
 62
     7
  6
CONTINUOUS
 10
8.3492
 20
2.6709
  0
VERTEX
  8
LAYER1
 62
     7
  6
CONTINUOUS
 10
8.3481
 20
2.6683
  0
VERTEX
  8
LAYER1
 62
     7
  6
CONTINUOUS
 10
8.3483
 20
2.6655
  0
VERTEX
  8
LAYER1
 62
     7
  6
CONTINUOUS
 10
8.3494
 20
2.6625
  0
VERTEX
  8
LAYER1
 62
     7
  6
CONTINUOUS
 10
8.3516
 20
2.6593
  0
VERTEX
  8
LAYER1
 62
     7
  6
CONTINUOUS
 10
8.3545
 20
2.6560
  0
VERTEX
  8
LAYER1
 62
     7
  6
CONTINUOUS
 10
8.3580
 20
2.6526
  0
VERTEX
  8
LAYER1
 62
     7
  6
CONTINUOUS
 10
8.3621
 20
2.6491
  0
VERTEX
  8
LAYER1
 62
     7
  6
CONTINUOUS
 10
8.3665
 20
2.6455
  0
VERTEX
  8
LAYER1
 62
     7
  6
CONTINUOUS
 10
8.3711
 20
2.6419
  0
VERTEX
  8
LAYER1
 62
     7
  6
CONTINUOUS
 10
8.3758
 20
2.6384
  0
SEQEND
  8
LAYER1
  0
POLYLINE
  8
LAYER1
 62
     7
 66
     1
  6
CONTINUOUS
  0
VERTEX
  8
LAYER1
 62
     7
  6
CONTINUOUS
 10
8.3758
 20
2.6384
  0
VERTEX
  8
LAYER1
 62
     7
  6
CONTINUOUS
 10
8.3805
 20
2.6348
  0
VERTEX
  8
LAYER1
 62
     7
  6
CONTINUOUS
 10
8.3849
 20
2.6314
  0
VERTEX
  8
LAYER1
 62
     7
  6
CONTINUOUS
 10
8.3885
 20
2.6284
  0
VERTEX
  8
LAYER1
 62
     7
  6
CONTINUOUS
 10
8.3919
 20
2.6256
  0
VERTEX
  8
LAYER1
 62
     7
  6
CONTINUOUS
 10
8.3951
 20
2.6228
  0
VERTEX
  8
LAYER1
 62
     7
  6
CONTINUOUS
 10
8.3981
 20
2.6201
  0
VERTEX
  8
LAYER1
 62
     7
  6
CONTINUOUS
 10
8.4010
 20
2.6175
  0
VERTEX
  8
LAYER1
 62
     7
  6
CONTINUOUS
 10
8.4038
 20
2.6150
  0
VERTEX
  8
LAYER1
 62
     7
  6
CONTINUOUS
 10
8.4065
 20
2.6125
  0
VERTEX
  8
LAYER1
 62
     7
  6
CONTINUOUS
 10
8.4092
 20
2.6102
  0
VERTEX
  8
LAYER1
 62
     7
  6
CONTINUOUS
 10
8.4119
 20
2.6079
  0
VERTEX
  8
LAYER1
 62
     7
  6
CONTINUOUS
 10
8.4147
 20
2.6058
  0
VERTEX
  8
LAYER1
 62
     7
  6
CONTINUOUS
 10
8.4175
 20
2.6038
  0
VERTEX
  8
LAYER1
 62
     7
  6
CONTINUOUS
 10
8.4204
 20
2.6018
  0
VERTEX
  8
LAYER1
 62
     7
  6
CONTINUOUS
 10
8.4245
 20
2.5995
  0
VERTEX
  8
LAYER1
 62
     7
  6
CONTINUOUS
 10
8.4287
 20
2.5973
  0
VERTEX
  8
LAYER1
 62
     7
  6
CONTINUOUS
 10
8.4331
 20
2.5952
  0
VERTEX
  8
LAYER1
 62
     7
  6
CONTINUOUS
 10
8.4377
 20
2.5932
  0
VERTEX
  8
LAYER1
 62
     7
  6
CONTINUOUS
 10
8.4424
 20
2.5913
  0
VERTEX
  8
LAYER1
 62
     7
  6
CONTINUOUS
 10
8.4472
 20
2.5894
  0
VERTEX
  8
LAYER1
 62
     7
  6
CONTINUOUS
 10
8.4520
 20
2.5876
  0
VERTEX
  8
LAYER1
 62
     7
  6
CONTINUOUS
 10
8.4569
 20
2.5857
  0
VERTEX
  8
LAYER1
 62
     7
  6
CONTINUOUS
 10
8.4617
 20
2.5839
  0
VERTEX
  8
LAYER1
 62
     7
  6
CONTINUOUS
 10
8.4665
 20
2.5819
  0
VERTEX
  8
LAYER1
 62
     7
  6
CONTINUOUS
 10
8.4713
 20
2.5798
  0
VERTEX
  8
LAYER1
 62
     7
  6
CONTINUOUS
 10
8.4759
 20
2.5776
  0
VERTEX
  8
LAYER1
 62
     7
  6
CONTINUOUS
 10
8.4783
 20
2.5764
  0
VERTEX
  8
LAYER1
 62
     7
  6
CONTINUOUS
 10
8.4807
 20
2.5751
  0
VERTEX
  8
LAYER1
 62
     7
  6
CONTINUOUS
 10
8.4830
 20
2.5738
  0
VERTEX
  8
LAYER1
 62
     7
  6
CONTINUOUS
 10
8.4853
 20
2.5725
  0
VERTEX
  8
LAYER1
 62
     7
  6
CONTINUOUS
 10
8.4876
 20
2.5711
  0
VERTEX
  8
LAYER1
 62
     7
  6
CONTINUOUS
 10
8.4899
 20
2.5698
  0
VERTEX
  8
LAYER1
 62
     7
  6
CONTINUOUS
 10
8.4922
 20
2.5683
  0
VERTEX
  8
LAYER1
 62
     7
  6
CONTINUOUS
 10
8.4944
 20
2.5669
  0
VERTEX
  8
LAYER1
 62
     7
  6
CONTINUOUS
 10
8.4966
 20
2.5655
  0
VERTEX
  8
LAYER1
 62
     7
  6
CONTINUOUS
 10
8.4988
 20
2.5640
  0
VERTEX
  8
LAYER1
 62
     7
  6
CONTINUOUS
 10
8.5010
 20
2.5626
  0
VERTEX
  8
LAYER1
 62
     7
  6
CONTINUOUS
 10
8.5032
 20
2.5611
  0
SEQEND
  8
LAYER1
  0
POLYLINE
  8
LAYER1
 62
     7
 66
     1
  6
CONTINUOUS
  0
VERTEX
  8
LAYER1
 62
     7
  6
CONTINUOUS
 10
8.5209
 20
2.5511
  0
VERTEX
  8
LAYER1
 62
     7
  6
CONTINUOUS
 10
8.5215
 20
2.5509
  0
VERTEX
  8
LAYER1
 62
     7
  6
CONTINUOUS
 10
8.5222
 20
2.5507
  0
VERTEX
  8
LAYER1
 62
     7
  6
CONTINUOUS
 10
8.5229
 20
2.5506
  0
VERTEX
  8
LAYER1
 62
     7
  6
CONTINUOUS
 10
8.5236
 20
2.5504
  0
VERTEX
  8
LAYER1
 62
     7
  6
CONTINUOUS
 10
8.5242
 20
2.5502
  0
VERTEX
  8
LAYER1
 62
     7
  6
CONTINUOUS
 10
8.5248
 20
2.5500
  0
VERTEX
  8
LAYER1
 62
     7
  6
CONTINUOUS
 10
8.5253
 20
2.5499
  0
VERTEX
  8
LAYER1
 62
     7
  6
CONTINUOUS
 10
8.5258
 20
2.5498
  0
VERTEX
  8
LAYER1
 62
     7
  6
CONTINUOUS
 10
8.5263
 20
2.5496
  0
VERTEX
  8
LAYER1
 62
     7
  6
CONTINUOUS
 10
8.5267
 20
2.5495
  0
VERTEX
  8
LAYER1
 62
     7
  6
CONTINUOUS
 10
8.5270
 20
2.5494
  0
VERTEX
  8
LAYER1
 62
     7
  6
CONTINUOUS
 10
8.5273
 20
2.5494
  0
VERTEX
  8
LAYER1
 62
     7
  6
CONTINUOUS
 10
8.5274
 20
2.5493
  0
VERTEX
  8
LAYER1
 62
     7
  6
CONTINUOUS
 10
8.5275
 20
2.5493
  0
VERTEX
  8
LAYER1
 62
     7
  6
CONTINUOUS
 10
8.5276
 20
2.5493
  0
VERTEX
  8
LAYER1
 62
     7
  6
CONTINUOUS
 10
8.5276
 20
2.5493
  0
VERTEX
  8
LAYER1
 62
     7
  6
CONTINUOUS
 10
8.5276
 20
2.5493
  0
VERTEX
  8
LAYER1
 62
     7
  6
CONTINUOUS
 10
8.5276
 20
2.5493
  0
VERTEX
  8
LAYER1
 62
     7
  6
CONTINUOUS
 10
8.5276
 20
2.5493
  0
VERTEX
  8
LAYER1
 62
     7
  6
CONTINUOUS
 10
8.5275
 20
2.5493
  0
VERTEX
  8
LAYER1
 62
     7
  6
CONTINUOUS
 10
8.5275
 20
2.5493
  0
VERTEX
  8
LAYER1
 62
     7
  6
CONTINUOUS
 10
8.5274
 20
2.5493
  0
VERTEX
  8
LAYER1
 62
     7
  6
CONTINUOUS
 10
8.5274
 20
2.5493
  0
VERTEX
  8
LAYER1
 62
     7
  6
CONTINUOUS
 10
8.5273
 20
2.5494
  0
SEQEND
  8
LAYER1
  0
POLYLINE
  8
LAYER1
 62
     7
 66
     1
  6
CONTINUOUS
  0
VERTEX
  8
LAYER1
 62
     7
  6
CONTINUOUS
 10
8.9373
 20
2.5494
  0
VERTEX
  8
LAYER1
 62
     7
  6
CONTINUOUS
 10
8.9376
 20
2.5495
  0
VERTEX
  8
LAYER1
 62
     7
  6
CONTINUOUS
 10
8.9379
 20
2.5497
  0
VERTEX
  8
LAYER1
 62
     7
  6
CONTINUOUS
 10
8.9382
 20
2.5499
  0
VERTEX
  8
LAYER1
 62
     7
  6
CONTINUOUS
 10
8.9386
 20
2.5501
  0
VERTEX
  8
LAYER1
 62
     7
  6
CONTINUOUS
 10
8.9389
 20
2.5502
  0
VERTEX
  8
LAYER1
 62
     7
  6
CONTINUOUS
 10
8.9392
 20
2.5504
  0
VERTEX
  8
LAYER1
 62
     7
  6
CONTINUOUS
 10
8.9394
 20
2.5505
  0
VERTEX
  8
LAYER1
 62
     7
  6
CONTINUOUS
 10
8.9397
 20
2.5507
  0
VERTEX
  8
LAYER1
 62
     7
  6
CONTINUOUS
 10
8.9399
 20
2.5508
  0
VERTEX
  8
LAYER1
 62
     7
  6
CONTINUOUS
 10
8.9402
 20
2.5509
  0
VERTEX
  8
LAYER1
 62
     7
  6
CONTINUOUS
 10
8.9403
 20
2.5510
  0
VERTEX
  8
LAYER1
 62
     7
  6
CONTINUOUS
 10
8.9405
 20
2.5511
  0
VERTEX
  8
LAYER1
 62
     7
  6
CONTINUOUS
 10
8.9407
 20
2.5512
  0
VERTEX
  8
LAYER1
 62
     7
  6
CONTINUOUS
 10
8.9408
 20
2.5513
  0
VERTEX
  8
LAYER1
 62
     7
  6
CONTINUOUS
 10
8.9409
 20
2.5513
  0
VERTEX
  8
LAYER1
 62
     7
  6
CONTINUOUS
 10
8.9409
 20
2.5513
  0
VERTEX
  8
LAYER1
 62
     7
  6
CONTINUOUS
 10
8.9409
 20
2.5513
  0
VERTEX
  8
LAYER1
 62
     7
  6
CONTINUOUS
 10
8.9409
 20
2.5513
  0
VERTEX
  8
LAYER1
 62
     7
  6
CONTINUOUS
 10
8.9409
 20
2.5513
  0
VERTEX
  8
LAYER1
 62
     7
  6
CONTINUOUS
 10
8.9408
 20
2.5513
  0
VERTEX
  8
LAYER1
 62
     7
  6
CONTINUOUS
 10
8.9408
 20
2.5512
  0
VERTEX
  8
LAYER1
 62
     7
  6
CONTINUOUS
 10
8.9407
 20
2.5512
  0
VERTEX
  8
LAYER1
 62
     7
  6
CONTINUOUS
 10
8.9406
 20
2.5512
  0
VERTEX
  8
LAYER1
 62
     7
  6
CONTINUOUS
 10
8.9405
 20
2.5511
  0
SEQEND
  8
LAYER1
  0
POLYLINE
  8
LAYER1
 62
     7
 66
     1
  6
CONTINUOUS
  0
VERTEX
  8
LAYER1
 62
     7
  6
CONTINUOUS
 10
8.9573
 20
2.5611
  0
VERTEX
  8
LAYER1
 62
     7
  6
CONTINUOUS
 10
8.9652
 20
2.5646
  0
VERTEX
  8
LAYER1
 62
     7
  6
CONTINUOUS
 10
8.9731
 20
2.5682
  0
VERTEX
  8
LAYER1
 62
     7
  6
CONTINUOUS
 10
8.9810
 20
2.5718
  0
VERTEX
  8
LAYER1
 62
     7
  6
CONTINUOUS
 10
8.9888
 20
2.5755
  0
VERTEX
  8
LAYER1
 62
     7
  6
CONTINUOUS
 10
8.9965
 20
2.5793
  0
VERTEX
  8
LAYER1
 62
     7
  6
CONTINUOUS
 10
9.0041
 20
2.5833
  0
VERTEX
  8
LAYER1
 62
     7
  6
CONTINUOUS
 10
9.0116
 20
2.5874
  0
VERTEX
  8
LAYER1
 62
     7
  6
CONTINUOUS
 10
9.0190
 20
2.5917
  0
VERTEX
  8
LAYER1
 62
     7
  6
CONTINUOUS
 10
9.0262
 20
2.5962
  0
VERTEX
  8
LAYER1
 62
     7
  6
CONTINUOUS
 10
9.0332
 20
2.6009
  0
VERTEX
  8
LAYER1
 62
     7
  6
CONTINUOUS
 10
9.0401
 20
2.6059
  0
VERTEX
  8
LAYER1
 62
     7
  6
CONTINUOUS
 10
9.0467
 20
2.6113
  0
VERTEX
  8
LAYER1
 62
     7
  6
CONTINUOUS
 10
9.0475
 20
2.6119
  0
VERTEX
  8
LAYER1
 62
     7
  6
CONTINUOUS
 10
9.0483
 20
2.6126
  0
VERTEX
  8
LAYER1
 62
     7
  6
CONTINUOUS
 10
9.0491
 20
2.6133
  0
VERTEX
  8
LAYER1
 62
     7
  6
CONTINUOUS
 10
9.0499
 20
2.6140
  0
VERTEX
  8
LAYER1
 62
     7
  6
CONTINUOUS
 10
9.0506
 20
2.6147
  0
VERTEX
  8
LAYER1
 62
     7
  6
CONTINUOUS
 10
9.0514
 20
2.6153
  0
VERTEX
  8
LAYER1
 62
     7
  6
CONTINUOUS
 10
9.0522
 20
2.6160
  0
VERTEX
  8
LAYER1
 62
     7
  6
CONTINUOUS
 10
9.0530
 20
2.6167
  0
VERTEX
  8
LAYER1
 62
     7
  6
CONTINUOUS
 10
9.0538
 20
2.6174
  0
VERTEX
  8
LAYER1
 62
     7
  6
CONTINUOUS
 10
9.0545
 20
2.6181
  0
VERTEX
  8
LAYER1
 62
     7
  6
CONTINUOUS
 10
9.0553
 20
2.6188
  0
VERTEX
  8
LAYER1
 62
     7
  6
CONTINUOUS
 10
9.0561
 20
2.6195
  0
SEQEND
  8
LAYER1
  0
POLYLINE
  8
LAYER1
 62
     7
 66
     1
  6
CONTINUOUS
  0
VERTEX
  8
LAYER1
 62
     7
  6
CONTINUOUS
 10
9.0561
 20
2.6195
  0
VERTEX
  8
LAYER1
 62
     7
  6
CONTINUOUS
 10
9.0561
 20
2.6195
  0
VERTEX
  8
LAYER1
 62
     7
  6
CONTINUOUS
 10
9.0561
 20
2.6195
  0
VERTEX
  8
LAYER1
 62
     7
  6
CONTINUOUS
 10
9.0561
 20
2.6195
  0
VERTEX
  8
LAYER1
 62
     7
  6
CONTINUOUS
 10
9.0561
 20
2.6195
  0
VERTEX
  8
LAYER1
 62
     7
  6
CONTINUOUS
 10
9.0561
 20
2.6195
  0
VERTEX
  8
LAYER1
 62
     7
  6
CONTINUOUS
 10
9.0561
 20
2.6195
  0
VERTEX
  8
LAYER1
 62
     7
  6
CONTINUOUS
 10
9.0561
 20
2.6195
  0
VERTEX
  8
LAYER1
 62
     7
  6
CONTINUOUS
 10
9.0561
 20
2.6195
  0
VERTEX
  8
LAYER1
 62
     7
  6
CONTINUOUS
 10
9.0561
 20
2.6195
  0
VERTEX
  8
LAYER1
 62
     7
  6
CONTINUOUS
 10
9.0561
 20
2.6195
  0
VERTEX
  8
LAYER1
 62
     7
  6
CONTINUOUS
 10
9.0561
 20
2.6195
  0
VERTEX
  8
LAYER1
 62
     7
  6
CONTINUOUS
 10
9.0561
 20
2.6195
  0
VERTEX
  8
LAYER1
 62
     7
  6
CONTINUOUS
 10
9.0561
 20
2.6195
  0
VERTEX
  8
LAYER1
 62
     7
  6
CONTINUOUS
 10
9.0561
 20
2.6195
  0
VERTEX
  8
LAYER1
 62
     7
  6
CONTINUOUS
 10
9.0561
 20
2.6195
  0
VERTEX
  8
LAYER1
 62
     7
  6
CONTINUOUS
 10
9.0561
 20
2.6195
  0
VERTEX
  8
LAYER1
 62
     7
  6
CONTINUOUS
 10
9.0561
 20
2.6195
  0
VERTEX
  8
LAYER1
 62
     7
  6
CONTINUOUS
 10
9.0561
 20
2.6195
  0
VERTEX
  8
LAYER1
 62
     7
  6
CONTINUOUS
 10
9.0561
 20
2.6195
  0
VERTEX
  8
LAYER1
 62
     7
  6
CONTINUOUS
 10
9.0561
 20
2.6195
  0
VERTEX
  8
LAYER1
 62
     7
  6
CONTINUOUS
 10
9.0561
 20
2.6195
  0
VERTEX
  8
LAYER1
 62
     7
  6
CONTINUOUS
 10
9.0561
 20
2.6195
  0
VERTEX
  8
LAYER1
 62
     7
  6
CONTINUOUS
 10
9.0561
 20
2.6195
  0
VERTEX
  8
LAYER1
 62
     7
  6
CONTINUOUS
 10
9.0561
 20
2.6195
  0
SEQEND
  8
LAYER1
  0
POLYLINE
  8
LAYER1
 62
     7
 66
     1
  6
CONTINUOUS
  0
VERTEX
  8
LAYER1
 62
     7
  6
CONTINUOUS
 10
9.0561
 20
2.6195
  0
VERTEX
  8
LAYER1
 62
     7
  6
CONTINUOUS
 10
9.0561
 20
2.6195
  0
VERTEX
  8
LAYER1
 62
     7
  6
CONTINUOUS
 10
9.0561
 20
2.6195
  0
VERTEX
  8
LAYER1
 62
     7
  6
CONTINUOUS
 10
9.0561
 20
2.6195
  0
VERTEX
  8
LAYER1
 62
     7
  6
CONTINUOUS
 10
9.0561
 20
2.6195
  0
VERTEX
  8
LAYER1
 62
     7
  6
CONTINUOUS
 10
9.0561
 20
2.6195
  0
VERTEX
  8
LAYER1
 62
     7
  6
CONTINUOUS
 10
9.0561
 20
2.6195
  0
VERTEX
  8
LAYER1
 62
     7
  6
CONTINUOUS
 10
9.0561
 20
2.6195
  0
VERTEX
  8
LAYER1
 62
     7
  6
CONTINUOUS
 10
9.0561
 20
2.6195
  0
VERTEX
  8
LAYER1
 62
     7
  6
CONTINUOUS
 10
9.0561
 20
2.6195
  0
VERTEX
  8
LAYER1
 62
     7
  6
CONTINUOUS
 10
9.0561
 20
2.6195
  0
VERTEX
  8
LAYER1
 62
     7
  6
CONTINUOUS
 10
9.0561
 20
2.6195
  0
VERTEX
  8
LAYER1
 62
     7
  6
CONTINUOUS
 10
9.0561
 20
2.6195
  0
VERTEX
  8
LAYER1
 62
     7
  6
CONTINUOUS
 10
9.0561
 20
2.6195
  0
VERTEX
  8
LAYER1
 62
     7
  6
CONTINUOUS
 10
9.0561
 20
2.6195
  0
VERTEX
  8
LAYER1
 62
     7
  6
CONTINUOUS
 10
9.0561
 20
2.6195
  0
VERTEX
  8
LAYER1
 62
     7
  6
CONTINUOUS
 10
9.0561
 20
2.6195
  0
VERTEX
  8
LAYER1
 62
     7
  6
CONTINUOUS
 10
9.0561
 20
2.6195
  0
VERTEX
  8
LAYER1
 62
     7
  6
CONTINUOUS
 10
9.0561
 20
2.6195
  0
VERTEX
  8
LAYER1
 62
     7
  6
CONTINUOUS
 10
9.0561
 20
2.6195
  0
VERTEX
  8
LAYER1
 62
     7
  6
CONTINUOUS
 10
9.0561
 20
2.6195
  0
VERTEX
  8
LAYER1
 62
     7
  6
CONTINUOUS
 10
9.0561
 20
2.6195
  0
VERTEX
  8
LAYER1
 62
     7
  6
CONTINUOUS
 10
9.0561
 20
2.6195
  0
VERTEX
  8
LAYER1
 62
     7
  6
CONTINUOUS
 10
9.0561
 20
2.6195
  0
VERTEX
  8
LAYER1
 62
     7
  6
CONTINUOUS
 10
9.0561
 20
2.6195
  0
SEQEND
  8
LAYER1
  0
POLYLINE
  8
LAYER1
 62
     7
 66
     1
  6
CONTINUOUS
  0
VERTEX
  8
LAYER1
 62
     7
  6
CONTINUOUS
 10
9.0561
 20
2.6195
  0
VERTEX
  8
LAYER1
 62
     7
  6
CONTINUOUS
 10
9.0562
 20
2.6196
  0
VERTEX
  8
LAYER1
 62
     7
  6
CONTINUOUS
 10
9.0562
 20
2.6196
  0
VERTEX
  8
LAYER1
 62
     7
  6
CONTINUOUS
 10
9.0563
 20
2.6197
  0
VERTEX
  8
LAYER1
 62
     7
  6
CONTINUOUS
 10
9.0564
 20
2.6198
  0
VERTEX
  8
LAYER1
 62
     7
  6
CONTINUOUS
 10
9.0565
 20
2.6199
  0
VERTEX
  8
LAYER1
 62
     7
  6
CONTINUOUS
 10
9.0566
 20
2.6199
  0
VERTEX
  8
LAYER1
 62
     7
  6
CONTINUOUS
 10
9.0566
 20
2.6200
  0
VERTEX
  8
LAYER1
 62
     7
  6
CONTINUOUS
 10
9.0567
 20
2.6201
  0
VERTEX
  8
LAYER1
 62
     7
  6
CONTINUOUS
 10
9.0568
 20
2.6201
  0
VERTEX
  8
LAYER1
 62
     7
  6
CONTINUOUS
 10
9.0568
 20
2.6202
  0
VERTEX
  8
LAYER1
 62
     7
  6
CONTINUOUS
 10
9.0569
 20
2.6202
  0
VERTEX
  8
LAYER1
 62
     7
  6
CONTINUOUS
 10
9.0570
 20
2.6203
  0
VERTEX
  8
LAYER1
 62
     7
  6
CONTINUOUS
 10
9.0572
 20
2.6205
  0
VERTEX
  8
LAYER1
 62
     7
  6
CONTINUOUS
 10
9.0573
 20
2.6206
  0
VERTEX
  8
LAYER1
 62
     7
  6
CONTINUOUS
 10
9.0574
 20
2.6207
  0
VERTEX
  8
LAYER1
 62
     7
  6
CONTINUOUS
 10
9.0575
 20
2.6207
  0
VERTEX
  8
LAYER1
 62
     7
  6
CONTINUOUS
 10
9.0575
 20
2.6207
  0
VERTEX
  8
LAYER1
 62
     7
  6
CONTINUOUS
 10
9.0575
 20
2.6207
  0
VERTEX
  8
LAYER1
 62
     7
  6
CONTINUOUS
 10
9.0574
 20
2.6207
  0
VERTEX
  8
LAYER1
 62
     7
  6
CONTINUOUS
 10
9.0574
 20
2.6206
  0
VERTEX
  8
LAYER1
 62
     7
  6
CONTINUOUS
 10
9.0573
 20
2.6206
  0
VERTEX
  8
LAYER1
 62
     7
  6
CONTINUOUS
 10
9.0572
 20
2.6205
  0
VERTEX
  8
LAYER1
 62
     7
  6
CONTINUOUS
 10
9.0571
 20
2.6204
  0
VERTEX
  8
LAYER1
 62
     7
  6
CONTINUOUS
 10
9.0570
 20
2.6203
  0
SEQEND
  8
LAYER1
  0
POLYLINE
  8
LAYER1
 62
     7
 66
     1
  6
CONTINUOUS
  0
VERTEX
  8
LAYER1
 62
     7
  6
CONTINUOUS
 10
8.4487
 20
3.5341
  0
VERTEX
  8
LAYER1
 62
     7
  6
CONTINUOUS
 10
8.4487
 20
3.5341
  0
VERTEX
  8
LAYER1
 62
     7
  6
CONTINUOUS
 10
8.4487
 20
3.5341
  0
VERTEX
  8
LAYER1
 62
     7
  6
CONTINUOUS
 10
8.4487
 20
3.5341
  0
VERTEX
  8
LAYER1
 62
     7
  6
CONTINUOUS
 10
8.4487
 20
3.5341
  0
VERTEX
  8
LAYER1
 62
     7
  6
CONTINUOUS
 10
8.4487
 20
3.5341
  0
VERTEX
  8
LAYER1
 62
     7
  6
CONTINUOUS
 10
8.4487
 20
3.5341
  0
VERTEX
  8
LAYER1
 62
     7
  6
CONTINUOUS
 10
8.4487
 20
3.5341
  0
VERTEX
  8
LAYER1
 62
     7
  6
CONTINUOUS
 10
8.4487
 20
3.5341
  0
VERTEX
  8
LAYER1
 62
     7
  6
CONTINUOUS
 10
8.4487
 20
3.5341
  0
VERTEX
  8
LAYER1
 62
     7
  6
CONTINUOUS
 10
8.4487
 20
3.5341
  0
VERTEX
  8
LAYER1
 62
     7
  6
CONTINUOUS
 10
8.4487
 20
3.5341
  0
VERTEX
  8
LAYER1
 62
     7
  6
CONTINUOUS
 10
8.4487
 20
3.5341
  0
VERTEX
  8
LAYER1
 62
     7
  6
CONTINUOUS
 10
8.4487
 20
3.5341
  0
VERTEX
  8
LAYER1
 62
     7
  6
CONTINUOUS
 10
8.4487
 20
3.5341
  0
VERTEX
  8
LAYER1
 62
     7
  6
CONTINUOUS
 10
8.4487
 20
3.5341
  0
VERTEX
  8
LAYER1
 62
     7
  6
CONTINUOUS
 10
8.4487
 20
3.5341
  0
VERTEX
  8
LAYER1
 62
     7
  6
CONTINUOUS
 10
8.4487
 20
3.5341
  0
VERTEX
  8
LAYER1
 62
     7
  6
CONTINUOUS
 10
8.4487
 20
3.5341
  0
VERTEX
  8
LAYER1
 62
     7
  6
CONTINUOUS
 10
8.4487
 20
3.5341
  0
VERTEX
  8
LAYER1
 62
     7
  6
CONTINUOUS
 10
8.4487
 20
3.5341
  0
VERTEX
  8
LAYER1
 62
     7
  6
CONTINUOUS
 10
8.4487
 20
3.5341
  0
VERTEX
  8
LAYER1
 62
     7
  6
CONTINUOUS
 10
8.4487
 20
3.5341
  0
VERTEX
  8
LAYER1
 62
     7
  6
CONTINUOUS
 10
8.4487
 20
3.5341
  0
VERTEX
  8
LAYER1
 62
     7
  6
CONTINUOUS
 10
8.4487
 20
3.5341
  0
SEQEND
  8
LAYER1
  0
POLYLINE
  8
LAYER1
 62
     7
 66
     1
  6
CONTINUOUS
  0
VERTEX
  8
LAYER1
 62
     7
  6
CONTINUOUS
 10
8.4487
 20
3.5341
  0
VERTEX
  8
LAYER1
 62
     7
  6
CONTINUOUS
 10
8.4487
 20
3.5341
  0
VERTEX
  8
LAYER1
 62
     7
  6
CONTINUOUS
 10
8.4487
 20
3.5341
  0
VERTEX
  8
LAYER1
 62
     7
  6
CONTINUOUS
 10
8.4487
 20
3.5341
  0
VERTEX
  8
LAYER1
 62
     7
  6
CONTINUOUS
 10
8.4487
 20
3.5341
  0
VERTEX
  8
LAYER1
 62
     7
  6
CONTINUOUS
 10
8.4487
 20
3.5341
  0
VERTEX
  8
LAYER1
 62
     7
  6
CONTINUOUS
 10
8.4487
 20
3.5341
  0
VERTEX
  8
LAYER1
 62
     7
  6
CONTINUOUS
 10
8.4487
 20
3.5341
  0
VERTEX
  8
LAYER1
 62
     7
  6
CONTINUOUS
 10
8.4487
 20
3.5341
  0
VERTEX
  8
LAYER1
 62
     7
  6
CONTINUOUS
 10
8.4487
 20
3.5341
  0
VERTEX
  8
LAYER1
 62
     7
  6
CONTINUOUS
 10
8.4487
 20
3.5341
  0
VERTEX
  8
LAYER1
 62
     7
  6
CONTINUOUS
 10
8.4487
 20
3.5341
  0
VERTEX
  8
LAYER1
 62
     7
  6
CONTINUOUS
 10
8.4487
 20
3.5341
  0
VERTEX
  8
LAYER1
 62
     7
  6
CONTINUOUS
 10
8.4487
 20
3.5341
  0
VERTEX
  8
LAYER1
 62
     7
  6
CONTINUOUS
 10
8.4487
 20
3.5341
  0
VERTEX
  8
LAYER1
 62
     7
  6
CONTINUOUS
 10
8.4487
 20
3.5341
  0
VERTEX
  8
LAYER1
 62
     7
  6
CONTINUOUS
 10
8.4487
 20
3.5341
  0
VERTEX
  8
LAYER1
 62
     7
  6
CONTINUOUS
 10
8.4487
 20
3.5341
  0
VERTEX
  8
LAYER1
 62
     7
  6
CONTINUOUS
 10
8.4487
 20
3.5341
  0
VERTEX
  8
LAYER1
 62
     7
  6
CONTINUOUS
 10
8.4487
 20
3.5341
  0
VERTEX
  8
LAYER1
 62
     7
  6
CONTINUOUS
 10
8.4487
 20
3.5341
  0
VERTEX
  8
LAYER1
 62
     7
  6
CONTINUOUS
 10
8.4487
 20
3.5341
  0
VERTEX
  8
LAYER1
 62
     7
  6
CONTINUOUS
 10
8.4487
 20
3.5341
  0
VERTEX
  8
LAYER1
 62
     7
  6
CONTINUOUS
 10
8.4487
 20
3.5341
  0
VERTEX
  8
LAYER1
 62
     7
  6
CONTINUOUS
 10
8.4487
 20
3.5341
  0
SEQEND
  8
LAYER1
  0
POLYLINE
  8
LAYER1
 62
     7
 66
     1
  6
CONTINUOUS
  0
VERTEX
  8
LAYER1
 62
     7
  6
CONTINUOUS
 10
8.2187
 20
3.5341
  0
VERTEX
  8
LAYER1
 62
     7
  6
CONTINUOUS
 10
8.2187
 20
3.5341
  0
VERTEX
  8
LAYER1
 62
     7
  6
CONTINUOUS
 10
8.2187
 20
3.5341
  0
VERTEX
  8
LAYER1
 62
     7
  6
CONTINUOUS
 10
8.2187
 20
3.5341
  0
VERTEX
  8
LAYER1
 62
     7
  6
CONTINUOUS
 10
8.2187
 20
3.5341
  0
VERTEX
  8
LAYER1
 62
     7
  6
CONTINUOUS
 10
8.2187
 20
3.5341
  0
VERTEX
  8
LAYER1
 62
     7
  6
CONTINUOUS
 10
8.2187
 20
3.5341
  0
VERTEX
  8
LAYER1
 62
     7
  6
CONTINUOUS
 10
8.2187
 20
3.5341
  0
VERTEX
  8
LAYER1
 62
     7
  6
CONTINUOUS
 10
8.2187
 20
3.5341
  0
VERTEX
  8
LAYER1
 62
     7
  6
CONTINUOUS
 10
8.2187
 20
3.5341
  0
VERTEX
  8
LAYER1
 62
     7
  6
CONTINUOUS
 10
8.2187
 20
3.5341
  0
VERTEX
  8
LAYER1
 62
     7
  6
CONTINUOUS
 10
8.2187
 20
3.5341
  0
VERTEX
  8
LAYER1
 62
     7
  6
CONTINUOUS
 10
8.2187
 20
3.5341
  0
VERTEX
  8
LAYER1
 62
     7
  6
CONTINUOUS
 10
8.2187
 20
3.5341
  0
VERTEX
  8
LAYER1
 62
     7
  6
CONTINUOUS
 10
8.2187
 20
3.5341
  0
VERTEX
  8
LAYER1
 62
     7
  6
CONTINUOUS
 10
8.2187
 20
3.5341
  0
VERTEX
  8
LAYER1
 62
     7
  6
CONTINUOUS
 10
8.2187
 20
3.5341
  0
VERTEX
  8
LAYER1
 62
     7
  6
CONTINUOUS
 10
8.2187
 20
3.5341
  0
VERTEX
  8
LAYER1
 62
     7
  6
CONTINUOUS
 10
8.2187
 20
3.5341
  0
VERTEX
  8
LAYER1
 62
     7
  6
CONTINUOUS
 10
8.2187
 20
3.5341
  0
VERTEX
  8
LAYER1
 62
     7
  6
CONTINUOUS
 10
8.2187
 20
3.5341
  0
VERTEX
  8
LAYER1
 62
     7
  6
CONTINUOUS
 10
8.2187
 20
3.5341
  0
VERTEX
  8
LAYER1
 62
     7
  6
CONTINUOUS
 10
8.2187
 20
3.5341
  0
VERTEX
  8
LAYER1
 62
     7
  6
CONTINUOUS
 10
8.2187
 20
3.5341
  0
VERTEX
  8
LAYER1
 62
     7
  6
CONTINUOUS
 10
8.2187
 20
3.5341
  0
SEQEND
  8
LAYER1
  0
POLYLINE
  8
LAYER1
 62
     7
 66
     1
  6
CONTINUOUS
  0
VERTEX
  8
LAYER1
 62
     7
  6
CONTINUOUS
 10
8.2187
 20
3.5341
  0
VERTEX
  8
LAYER1
 62
     7
  6
CONTINUOUS
 10
8.2187
 20
3.5341
  0
VERTEX
  8
LAYER1
 62
     7
  6
CONTINUOUS
 10
8.2187
 20
3.5341
  0
VERTEX
  8
LAYER1
 62
     7
  6
CONTINUOUS
 10
8.2187
 20
3.5341
  0
VERTEX
  8
LAYER1
 62
     7
  6
CONTINUOUS
 10
8.2187
 20
3.5341
  0
VERTEX
  8
LAYER1
 62
     7
  6
CONTINUOUS
 10
8.2187
 20
3.5341
  0
VERTEX
  8
LAYER1
 62
     7
  6
CONTINUOUS
 10
8.2187
 20
3.5341
  0
VERTEX
  8
LAYER1
 62
     7
  6
CONTINUOUS
 10
8.2187
 20
3.5341
  0
VERTEX
  8
LAYER1
 62
     7
  6
CONTINUOUS
 10
8.2187
 20
3.5341
  0
VERTEX
  8
LAYER1
 62
     7
  6
CONTINUOUS
 10
8.2187
 20
3.5341
  0
VERTEX
  8
LAYER1
 62
     7
  6
CONTINUOUS
 10
8.2187
 20
3.5341
  0
VERTEX
  8
LAYER1
 62
     7
  6
CONTINUOUS
 10
8.2187
 20
3.5341
  0
VERTEX
  8
LAYER1
 62
     7
  6
CONTINUOUS
 10
8.2187
 20
3.5341
  0
VERTEX
  8
LAYER1
 62
     7
  6
CONTINUOUS
 10
8.2187
 20
3.5341
  0
VERTEX
  8
LAYER1
 62
     7
  6
CONTINUOUS
 10
8.2187
 20
3.5341
  0
VERTEX
  8
LAYER1
 62
     7
  6
CONTINUOUS
 10
8.2187
 20
3.5341
  0
VERTEX
  8
LAYER1
 62
     7
  6
CONTINUOUS
 10
8.2187
 20
3.5341
  0
VERTEX
  8
LAYER1
 62
     7
  6
CONTINUOUS
 10
8.2187
 20
3.5341
  0
VERTEX
  8
LAYER1
 62
     7
  6
CONTINUOUS
 10
8.2187
 20
3.5341
  0
VERTEX
  8
LAYER1
 62
     7
  6
CONTINUOUS
 10
8.2187
 20
3.5341
  0
VERTEX
  8
LAYER1
 62
     7
  6
CONTINUOUS
 10
8.2187
 20
3.5341
  0
VERTEX
  8
LAYER1
 62
     7
  6
CONTINUOUS
 10
8.2187
 20
3.5341
  0
VERTEX
  8
LAYER1
 62
     7
  6
CONTINUOUS
 10
8.2187
 20
3.5341
  0
VERTEX
  8
LAYER1
 62
     7
  6
CONTINUOUS
 10
8.2187
 20
3.5341
  0
VERTEX
  8
LAYER1
 62
     7
  6
CONTINUOUS
 10
8.2187
 20
3.5341
  0
SEQEND
  8
LAYER1
  0
POLYLINE
  8
LAYER1
 62
     7
 66
     1
  6
CONTINUOUS
  0
VERTEX
  8
LAYER1
 62
     7
  6
CONTINUOUS
 10
8.2187
 20
3.5341
  0
VERTEX
  8
LAYER1
 62
     7
  6
CONTINUOUS
 10
8.2187
 20
3.5341
  0
VERTEX
  8
LAYER1
 62
     7
  6
CONTINUOUS
 10
8.2187
 20
3.5341
  0
VERTEX
  8
LAYER1
 62
     7
  6
CONTINUOUS
 10
8.2187
 20
3.5341
  0
VERTEX
  8
LAYER1
 62
     7
  6
CONTINUOUS
 10
8.2187
 20
3.5341
  0
VERTEX
  8
LAYER1
 62
     7
  6
CONTINUOUS
 10
8.2187
 20
3.5341
  0
VERTEX
  8
LAYER1
 62
     7
  6
CONTINUOUS
 10
8.2187
 20
3.5341
  0
VERTEX
  8
LAYER1
 62
     7
  6
CONTINUOUS
 10
8.2187
 20
3.5341
  0
VERTEX
  8
LAYER1
 62
     7
  6
CONTINUOUS
 10
8.2187
 20
3.5341
  0
VERTEX
  8
LAYER1
 62
     7
  6
CONTINUOUS
 10
8.2187
 20
3.5341
  0
VERTEX
  8
LAYER1
 62
     7
  6
CONTINUOUS
 10
8.2187
 20
3.5341
  0
VERTEX
  8
LAYER1
 62
     7
  6
CONTINUOUS
 10
8.2187
 20
3.5341
  0
VERTEX
  8
LAYER1
 62
     7
  6
CONTINUOUS
 10
8.2187
 20
3.5341
  0
VERTEX
  8
LAYER1
 62
     7
  6
CONTINUOUS
 10
8.2187
 20
3.5341
  0
VERTEX
  8
LAYER1
 62
     7
  6
CONTINUOUS
 10
8.2187
 20
3.5341
  0
VERTEX
  8
LAYER1
 62
     7
  6
CONTINUOUS
 10
8.2187
 20
3.5341
  0
VERTEX
  8
LAYER1
 62
     7
  6
CONTINUOUS
 10
8.2187
 20
3.5341
  0
VERTEX
  8
LAYER1
 62
     7
  6
CONTINUOUS
 10
8.2187
 20
3.5341
  0
VERTEX
  8
LAYER1
 62
     7
  6
CONTINUOUS
 10
8.2187
 20
3.5341
  0
VERTEX
  8
LAYER1
 62
     7
  6
CONTINUOUS
 10
8.2187
 20
3.5341
  0
VERTEX
  8
LAYER1
 62
     7
  6
CONTINUOUS
 10
8.2187
 20
3.5341
  0
VERTEX
  8
LAYER1
 62
     7
  6
CONTINUOUS
 10
8.2187
 20
3.5341
  0
VERTEX
  8
LAYER1
 62
     7
  6
CONTINUOUS
 10
8.2187
 20
3.5341
  0
VERTEX
  8
LAYER1
 62
     7
  6
CONTINUOUS
 10
8.2187
 20
3.5341
  0
VERTEX
  8
LAYER1
 62
     7
  6
CONTINUOUS
 10
8.2187
 20
3.5341
  0
SEQEND
  8
LAYER1
  0
POLYLINE
  8
LAYER1
 62
     7
 66
     1
  6
CONTINUOUS
  0
VERTEX
  8
LAYER1
 62
     7
  6
CONTINUOUS
 10
8.2187
 20
3.5341
  0
VERTEX
  8
LAYER1
 62
     7
  6
CONTINUOUS
 10
8.2187
 20
3.5341
  0
VERTEX
  8
LAYER1
 62
     7
  6
CONTINUOUS
 10
8.2187
 20
3.5341
  0
VERTEX
  8
LAYER1
 62
     7
  6
CONTINUOUS
 10
8.2187
 20
3.5341
  0
VERTEX
  8
LAYER1
 62
     7
  6
CONTINUOUS
 10
8.2187
 20
3.5341
  0
VERTEX
  8
LAYER1
 62
     7
  6
CONTINUOUS
 10
8.2187
 20
3.5341
  0
VERTEX
  8
LAYER1
 62
     7
  6
CONTINUOUS
 10
8.2187
 20
3.5341
  0
VERTEX
  8
LAYER1
 62
     7
  6
CONTINUOUS
 10
8.2187
 20
3.5341
  0
VERTEX
  8
LAYER1
 62
     7
  6
CONTINUOUS
 10
8.2187
 20
3.5341
  0
VERTEX
  8
LAYER1
 62
     7
  6
CONTINUOUS
 10
8.2187
 20
3.5341
  0
VERTEX
  8
LAYER1
 62
     7
  6
CONTINUOUS
 10
8.2187
 20
3.5341
  0
VERTEX
  8
LAYER1
 62
     7
  6
CONTINUOUS
 10
8.2187
 20
3.5341
  0
VERTEX
  8
LAYER1
 62
     7
  6
CONTINUOUS
 10
8.2187
 20
3.5341
  0
VERTEX
  8
LAYER1
 62
     7
  6
CONTINUOUS
 10
8.2187
 20
3.5341
  0
VERTEX
  8
LAYER1
 62
     7
  6
CONTINUOUS
 10
8.2187
 20
3.5341
  0
VERTEX
  8
LAYER1
 62
     7
  6
CONTINUOUS
 10
8.2187
 20
3.5341
  0
VERTEX
  8
LAYER1
 62
     7
  6
CONTINUOUS
 10
8.2187
 20
3.5341
  0
VERTEX
  8
LAYER1
 62
     7
  6
CONTINUOUS
 10
8.2187
 20
3.5341
  0
VERTEX
  8
LAYER1
 62
     7
  6
CONTINUOUS
 10
8.2187
 20
3.5341
  0
VERTEX
  8
LAYER1
 62
     7
  6
CONTINUOUS
 10
8.2187
 20
3.5341
  0
VERTEX
  8
LAYER1
 62
     7
  6
CONTINUOUS
 10
8.2187
 20
3.5341
  0
VERTEX
  8
LAYER1
 62
     7
  6
CONTINUOUS
 10
8.2187
 20
3.5341
  0
VERTEX
  8
LAYER1
 62
     7
  6
CONTINUOUS
 10
8.2187
 20
3.5341
  0
VERTEX
  8
LAYER1
 62
     7
  6
CONTINUOUS
 10
8.2187
 20
3.5341
  0
VERTEX
  8
LAYER1
 62
     7
  6
CONTINUOUS
 10
8.2187
 20
3.5341
  0
SEQEND
  8
LAYER1
  0
POLYLINE
  8
LAYER1
 62
     7
 66
     1
  6
CONTINUOUS
  0
VERTEX
  8
LAYER1
 62
     7
  6
CONTINUOUS
 10
8.2187
 20
3.5341
  0
VERTEX
  8
LAYER1
 62
     7
  6
CONTINUOUS
 10
8.2187
 20
3.5341
  0
VERTEX
  8
LAYER1
 62
     7
  6
CONTINUOUS
 10
8.2187
 20
3.5341
  0
VERTEX
  8
LAYER1
 62
     7
  6
CONTINUOUS
 10
8.2187
 20
3.5341
  0
VERTEX
  8
LAYER1
 62
     7
  6
CONTINUOUS
 10
8.2187
 20
3.5341
  0
VERTEX
  8
LAYER1
 62
     7
  6
CONTINUOUS
 10
8.2187
 20
3.5341
  0
VERTEX
  8
LAYER1
 62
     7
  6
CONTINUOUS
 10
8.2187
 20
3.5341
  0
VERTEX
  8
LAYER1
 62
     7
  6
CONTINUOUS
 10
8.2187
 20
3.5341
  0
VERTEX
  8
LAYER1
 62
     7
  6
CONTINUOUS
 10
8.2187
 20
3.5341
  0
VERTEX
  8
LAYER1
 62
     7
  6
CONTINUOUS
 10
8.2187
 20
3.5341
  0
VERTEX
  8
LAYER1
 62
     7
  6
CONTINUOUS
 10
8.2187
 20
3.5341
  0
VERTEX
  8
LAYER1
 62
     7
  6
CONTINUOUS
 10
8.2187
 20
3.5341
  0
VERTEX
  8
LAYER1
 62
     7
  6
CONTINUOUS
 10
8.2187
 20
3.5341
  0
VERTEX
  8
LAYER1
 62
     7
  6
CONTINUOUS
 10
8.2187
 20
3.5341
  0
VERTEX
  8
LAYER1
 62
     7
  6
CONTINUOUS
 10
8.2187
 20
3.5341
  0
VERTEX
  8
LAYER1
 62
     7
  6
CONTINUOUS
 10
8.2187
 20
3.5341
  0
VERTEX
  8
LAYER1
 62
     7
  6
CONTINUOUS
 10
8.2187
 20
3.5341
  0
VERTEX
  8
LAYER1
 62
     7
  6
CONTINUOUS
 10
8.2187
 20
3.5341
  0
VERTEX
  8
LAYER1
 62
     7
  6
CONTINUOUS
 10
8.2187
 20
3.5341
  0
VERTEX
  8
LAYER1
 62
     7
  6
CONTINUOUS
 10
8.2187
 20
3.5341
  0
VERTEX
  8
LAYER1
 62
     7
  6
CONTINUOUS
 10
8.2187
 20
3.5341
  0
VERTEX
  8
LAYER1
 62
     7
  6
CONTINUOUS
 10
8.2187
 20
3.5341
  0
VERTEX
  8
LAYER1
 62
     7
  6
CONTINUOUS
 10
8.2187
 20
3.5341
  0
VERTEX
  8
LAYER1
 62
     7
  6
CONTINUOUS
 10
8.2187
 20
3.5341
  0
VERTEX
  8
LAYER1
 62
     7
  6
CONTINUOUS
 10
8.2187
 20
3.5341
  0
SEQEND
  8
LAYER1
  0
POLYLINE
  8
LAYER1
 62
     7
 66
     1
  6
CONTINUOUS
  0
VERTEX
  8
LAYER1
 62
     7
  6
CONTINUOUS
 10
8.2187
 20
3.5341
  0
VERTEX
  8
LAYER1
 62
     7
  6
CONTINUOUS
 10
8.2187
 20
3.5341
  0
VERTEX
  8
LAYER1
 62
     7
  6
CONTINUOUS
 10
8.2187
 20
3.5341
  0
VERTEX
  8
LAYER1
 62
     7
  6
CONTINUOUS
 10
8.2187
 20
3.5341
  0
VERTEX
  8
LAYER1
 62
     7
  6
CONTINUOUS
 10
8.2187
 20
3.5341
  0
VERTEX
  8
LAYER1
 62
     7
  6
CONTINUOUS
 10
8.2187
 20
3.5341
  0
VERTEX
  8
LAYER1
 62
     7
  6
CONTINUOUS
 10
8.2187
 20
3.5341
  0
VERTEX
  8
LAYER1
 62
     7
  6
CONTINUOUS
 10
8.2187
 20
3.5341
  0
VERTEX
  8
LAYER1
 62
     7
  6
CONTINUOUS
 10
8.2187
 20
3.5341
  0
VERTEX
  8
LAYER1
 62
     7
  6
CONTINUOUS
 10
8.2187
 20
3.5341
  0
VERTEX
  8
LAYER1
 62
     7
  6
CONTINUOUS
 10
8.2187
 20
3.5341
  0
VERTEX
  8
LAYER1
 62
     7
  6
CONTINUOUS
 10
8.2187
 20
3.5341
  0
VERTEX
  8
LAYER1
 62
     7
  6
CONTINUOUS
 10
8.2187
 20
3.5341
  0
VERTEX
  8
LAYER1
 62
     7
  6
CONTINUOUS
 10
8.2187
 20
3.5341
  0
VERTEX
  8
LAYER1
 62
     7
  6
CONTINUOUS
 10
8.2187
 20
3.5341
  0
VERTEX
  8
LAYER1
 62
     7
  6
CONTINUOUS
 10
8.2187
 20
3.5341
  0
VERTEX
  8
LAYER1
 62
     7
  6
CONTINUOUS
 10
8.2187
 20
3.5341
  0
VERTEX
  8
LAYER1
 62
     7
  6
CONTINUOUS
 10
8.2187
 20
3.5341
  0
VERTEX
  8
LAYER1
 62
     7
  6
CONTINUOUS
 10
8.2187
 20
3.5341
  0
VERTEX
  8
LAYER1
 62
     7
  6
CONTINUOUS
 10
8.2187
 20
3.5341
  0
VERTEX
  8
LAYER1
 62
     7
  6
CONTINUOUS
 10
8.2187
 20
3.5341
  0
VERTEX
  8
LAYER1
 62
     7
  6
CONTINUOUS
 10
8.2187
 20
3.5341
  0
VERTEX
  8
LAYER1
 62
     7
  6
CONTINUOUS
 10
8.2187
 20
3.5341
  0
VERTEX
  8
LAYER1
 62
     7
  6
CONTINUOUS
 10
8.2187
 20
3.5341
  0
VERTEX
  8
LAYER1
 62
     7
  6
CONTINUOUS
 10
8.2187
 20
3.5341
  0
SEQEND
  8
LAYER1
  0
POLYLINE
  8
LAYER1
 62
     7
 66
     1
  6
CONTINUOUS
  0
VERTEX
  8
LAYER1
 62
     7
  6
CONTINUOUS
 10
8.4501
 20
3.5303
  0
VERTEX
  8
LAYER1
 62
     7
  6
CONTINUOUS
 10
8.4499
 20
3.5307
  0
VERTEX
  8
LAYER1
 62
     7
  6
CONTINUOUS
 10
8.4498
 20
3.5311
  0
VERTEX
  8
LAYER1
 62
     7
  6
CONTINUOUS
 10
8.4497
 20
3.5315
  0
VERTEX
  8
LAYER1
 62
     7
  6
CONTINUOUS
 10
8.4495
 20
3.5319
  0
VERTEX
  8
LAYER1
 62
     7
  6
CONTINUOUS
 10
8.4494
 20
3.5322
  0
VERTEX
  8
LAYER1
 62
     7
  6
CONTINUOUS
 10
8.4493
 20
3.5326
  0
VERTEX
  8
LAYER1
 62
     7
  6
CONTINUOUS
 10
8.4491
 20
3.5329
  0
VERTEX
  8
LAYER1
 62
     7
  6
CONTINUOUS
 10
8.4490
 20
3.5332
  0
VERTEX
  8
LAYER1
 62
     7
  6
CONTINUOUS
 10
8.4489
 20
3.5335
  0
VERTEX
  8
LAYER1
 62
     7
  6
CONTINUOUS
 10
8.4488
 20
3.5337
  0
VERTEX
  8
LAYER1
 62
     7
  6
CONTINUOUS
 10
8.4488
 20
3.5339
  0
VERTEX
  8
LAYER1
 62
     7
  6
CONTINUOUS
 10
8.4487
 20
3.5341
  0
VERTEX
  8
LAYER1
 62
     7
  6
CONTINUOUS
 10
8.4486
 20
3.5343
  0
VERTEX
  8
LAYER1
 62
     7
  6
CONTINUOUS
 10
8.4486
 20
3.5344
  0
VERTEX
  8
LAYER1
 62
     7
  6
CONTINUOUS
 10
8.4486
 20
3.5345
  0
VERTEX
  8
LAYER1
 62
     7
  6
CONTINUOUS
 10
8.4486
 20
3.5345
  0
VERTEX
  8
LAYER1
 62
     7
  6
CONTINUOUS
 10
8.4486
 20
3.5346
  0
VERTEX
  8
LAYER1
 62
     7
  6
CONTINUOUS
 10
8.4486
 20
3.5345
  0
VERTEX
  8
LAYER1
 62
     7
  6
CONTINUOUS
 10
8.4486
 20
3.5345
  0
VERTEX
  8
LAYER1
 62
     7
  6
CONTINUOUS
 10
8.4486
 20
3.5345
  0
VERTEX
  8
LAYER1
 62
     7
  6
CONTINUOUS
 10
8.4486
 20
3.5344
  0
VERTEX
  8
LAYER1
 62
     7
  6
CONTINUOUS
 10
8.4486
 20
3.5343
  0
VERTEX
  8
LAYER1
 62
     7
  6
CONTINUOUS
 10
8.4487
 20
3.5342
  0
VERTEX
  8
LAYER1
 62
     7
  6
CONTINUOUS
 10
8.4487
 20
3.5341
  0
SEQEND
  8
LAYER1
  0
POLYLINE
  8
LAYER1
 62
     7
 66
     1
  6
CONTINUOUS
  0
VERTEX
  8
LAYER1
 62
     7
  6
CONTINUOUS
 10
8.4487
 20
3.5341
  0
VERTEX
  8
LAYER1
 62
     7
  6
CONTINUOUS
 10
8.4487
 20
3.5341
  0
VERTEX
  8
LAYER1
 62
     7
  6
CONTINUOUS
 10
8.4487
 20
3.5341
  0
VERTEX
  8
LAYER1
 62
     7
  6
CONTINUOUS
 10
8.4487
 20
3.5341
  0
VERTEX
  8
LAYER1
 62
     7
  6
CONTINUOUS
 10
8.4487
 20
3.5341
  0
VERTEX
  8
LAYER1
 62
     7
  6
CONTINUOUS
 10
8.4487
 20
3.5341
  0
VERTEX
  8
LAYER1
 62
     7
  6
CONTINUOUS
 10
8.4487
 20
3.5341
  0
VERTEX
  8
LAYER1
 62
     7
  6
CONTINUOUS
 10
8.4487
 20
3.5341
  0
VERTEX
  8
LAYER1
 62
     7
  6
CONTINUOUS
 10
8.4487
 20
3.5341
  0
VERTEX
  8
LAYER1
 62
     7
  6
CONTINUOUS
 10
8.4487
 20
3.5341
  0
VERTEX
  8
LAYER1
 62
     7
  6
CONTINUOUS
 10
8.4487
 20
3.5341
  0
VERTEX
  8
LAYER1
 62
     7
  6
CONTINUOUS
 10
8.4487
 20
3.5341
  0
VERTEX
  8
LAYER1
 62
     7
  6
CONTINUOUS
 10
8.4487
 20
3.5341
  0
VERTEX
  8
LAYER1
 62
     7
  6
CONTINUOUS
 10
8.4487
 20
3.5341
  0
VERTEX
  8
LAYER1
 62
     7
  6
CONTINUOUS
 10
8.4487
 20
3.5341
  0
VERTEX
  8
LAYER1
 62
     7
  6
CONTINUOUS
 10
8.4487
 20
3.5341
  0
VERTEX
  8
LAYER1
 62
     7
  6
CONTINUOUS
 10
8.4487
 20
3.5341
  0
VERTEX
  8
LAYER1
 62
     7
  6
CONTINUOUS
 10
8.4487
 20
3.5341
  0
VERTEX
  8
LAYER1
 62
     7
  6
CONTINUOUS
 10
8.4487
 20
3.5341
  0
VERTEX
  8
LAYER1
 62
     7
  6
CONTINUOUS
 10
8.4487
 20
3.5341
  0
VERTEX
  8
LAYER1
 62
     7
  6
CONTINUOUS
 10
8.4487
 20
3.5341
  0
VERTEX
  8
LAYER1
 62
     7
  6
CONTINUOUS
 10
8.4487
 20
3.5341
  0
VERTEX
  8
LAYER1
 62
     7
  6
CONTINUOUS
 10
8.4487
 20
3.5341
  0
VERTEX
  8
LAYER1
 62
     7
  6
CONTINUOUS
 10
8.4487
 20
3.5341
  0
VERTEX
  8
LAYER1
 62
     7
  6
CONTINUOUS
 10
8.4487
 20
3.5341
  0
SEQEND
  8
LAYER1
  0
POLYLINE
  8
LAYER1
 62
     7
 66
     1
  6
CONTINUOUS
  0
VERTEX
  8
LAYER1
 62
     7
  6
CONTINUOUS
 10
8.2187
 20
3.5341
  0
VERTEX
  8
LAYER1
 62
     7
  6
CONTINUOUS
 10
8.2183
 20
3.5337
  0
VERTEX
  8
LAYER1
 62
     7
  6
CONTINUOUS
 10
8.2179
 20
3.5333
  0
VERTEX
  8
LAYER1
 62
     7
  6
CONTINUOUS
 10
8.2175
 20
3.5329
  0
VERTEX
  8
LAYER1
 62
     7
  6
CONTINUOUS
 10
8.2172
 20
3.5326
  0
VERTEX
  8
LAYER1
 62
     7
  6
CONTINUOUS
 10
8.2168
 20
3.5322
  0
VERTEX
  8
LAYER1
 62
     7
  6
CONTINUOUS
 10
8.2165
 20
3.5318
  0
VERTEX
  8
LAYER1
 62
     7
  6
CONTINUOUS
 10
8.2162
 20
3.5315
  0
VERTEX
  8
LAYER1
 62
     7
  6
CONTINUOUS
 10
8.2159
 20
3.5312
  0
VERTEX
  8
LAYER1
 62
     7
  6
CONTINUOUS
 10
8.2156
 20
3.5309
  0
VERTEX
  8
LAYER1
 62
     7
  6
CONTINUOUS
 10
8.2154
 20
3.5307
  0
VERTEX
  8
LAYER1
 62
     7
  6
CONTINUOUS
 10
8.2152
 20
3.5305
  0
VERTEX
  8
LAYER1
 62
     7
  6
CONTINUOUS
 10
8.2151
 20
3.5303
  0
VERTEX
  8
LAYER1
 62
     7
  6
CONTINUOUS
 10
8.2149
 20
3.5302
  0
VERTEX
  8
LAYER1
 62
     7
  6
CONTINUOUS
 10
8.2149
 20
3.5301
  0
VERTEX
  8
LAYER1
 62
     7
  6
CONTINUOUS
 10
8.2148
 20
3.5301
  0
VERTEX
  8
LAYER1
 62
     7
  6
CONTINUOUS
 10
8.2148
 20
3.5300
  0
VERTEX
  8
LAYER1
 62
     7
  6
CONTINUOUS
 10
8.2148
 20
3.5300
  0
VERTEX
  8
LAYER1
 62
     7
  6
CONTINUOUS
 10
8.2148
 20
3.5300
  0
VERTEX
  8
LAYER1
 62
     7
  6
CONTINUOUS
 10
8.2148
 20
3.5301
  0
VERTEX
  8
LAYER1
 62
     7
  6
CONTINUOUS
 10
8.2148
 20
3.5301
  0
VERTEX
  8
LAYER1
 62
     7
  6
CONTINUOUS
 10
8.2149
 20
3.5301
  0
VERTEX
  8
LAYER1
 62
     7
  6
CONTINUOUS
 10
8.2149
 20
3.5302
  0
VERTEX
  8
LAYER1
 62
     7
  6
CONTINUOUS
 10
8.2150
 20
3.5303
  0
VERTEX
  8
LAYER1
 62
     7
  6
CONTINUOUS
 10
8.2151
 20
3.5303
  0
SEQEND
  8
LAYER1
  0
POLYLINE
  8
LAYER10
 62
     1
 66
     1
  6
CONTINUOUS
  0
VERTEX
  8
LAYER10
 62
     1
  6
CONTINUOUS
 10
8.8026
 20
3.5147
  0
VERTEX
  8
LAYER10
 62
     1
  6
CONTINUOUS
 10
8.8054
 20
3.5132
  0
VERTEX
  8
LAYER10
 62
     1
  6
CONTINUOUS
 10
8.8081
 20
3.5115
  0
VERTEX
  8
LAYER10
 62
     1
  6
CONTINUOUS
 10
8.8109
 20
3.5098
  0
VERTEX
  8
LAYER10
 62
     1
  6
CONTINUOUS
 10
8.8135
 20
3.5079
  0
VERTEX
  8
LAYER10
 62
     1
  6
CONTINUOUS
 10
8.8161
 20
3.5060
  0
VERTEX
  8
LAYER10
 62
     1
  6
CONTINUOUS
 10
8.8187
 20
3.5039
  0
VERTEX
  8
LAYER10
 62
     1
  6
CONTINUOUS
 10
8.8212
 20
3.5018
  0
VERTEX
  8
LAYER10
 62
     1
  6
CONTINUOUS
 10
8.8237
 20
3.4995
  0
VERTEX
  8
LAYER10
 62
     1
  6
CONTINUOUS
 10
8.8261
 20
3.4972
  0
VERTEX
  8
LAYER10
 62
     1
  6
CONTINUOUS
 10
8.8285
 20
3.4949
  0
VERTEX
  8
LAYER10
 62
     1
  6
CONTINUOUS
 10
8.8308
 20
3.4925
  0
VERTEX
  8
LAYER10
 62
     1
  6
CONTINUOUS
 10
8.8330
 20
3.4901
  0
VERTEX
  8
LAYER10
 62
     1
  6
CONTINUOUS
 10
8.8374
 20
3.4850
  0
VERTEX
  8
LAYER10
 62
     1
  6
CONTINUOUS
 10
8.8416
 20
3.4799
  0
VERTEX
  8
LAYER10
 62
     1
  6
CONTINUOUS
 10
8.8456
 20
3.4746
  0
VERTEX
  8
LAYER10
 62
     1
  6
CONTINUOUS
 10
8.8495
 20
3.4693
  0
VERTEX
  8
LAYER10
 62
     1
  6
CONTINUOUS
 10
8.8533
 20
3.4639
  0
VERTEX
  8
LAYER10
 62
     1
  6
CONTINUOUS
 10
8.8570
 20
3.4585
  0
VERTEX
  8
LAYER10
 62
     1
  6
CONTINUOUS
 10
8.8606
 20
3.4530
  0
VERTEX
  8
LAYER10
 62
     1
  6
CONTINUOUS
 10
8.8642
 20
3.4475
  0
VERTEX
  8
LAYER10
 62
     1
  6
CONTINUOUS
 10
8.8678
 20
3.4420
  0
VERTEX
  8
LAYER10
 62
     1
  6
CONTINUOUS
 10
8.8715
 20
3.4365
  0
VERTEX
  8
LAYER10
 62
     1
  6
CONTINUOUS
 10
8.8753
 20
3.4310
  0
VERTEX
  8
LAYER10
 62
     1
  6
CONTINUOUS
 10
8.8791
 20
3.4256
  0
VERTEX
  8
LAYER10
 62
     1
  6
CONTINUOUS
 10
8.8832
 20
3.4199
  0
VERTEX
  8
LAYER10
 62
     1
  6
CONTINUOUS
 10
8.8875
 20
3.4143
  0
VERTEX
  8
LAYER10
 62
     1
  6
CONTINUOUS
 10
8.8918
 20
3.4087
  0
VERTEX
  8
LAYER10
 62
     1
  6
CONTINUOUS
 10
8.8961
 20
3.4031
  0
VERTEX
  8
LAYER10
 62
     1
  6
CONTINUOUS
 10
8.9004
 20
3.3975
  0
VERTEX
  8
LAYER10
 62
     1
  6
CONTINUOUS
 10
8.9046
 20
3.3919
  0
VERTEX
  8
LAYER10
 62
     1
  6
CONTINUOUS
 10
8.9086
 20
3.3862
  0
VERTEX
  8
LAYER10
 62
     1
  6
CONTINUOUS
 10
8.9125
 20
3.3804
  0
VERTEX
  8
LAYER10
 62
     1
  6
CONTINUOUS
 10
8.9161
 20
3.3745
  0
VERTEX
  8
LAYER10
 62
     1
  6
CONTINUOUS
 10
8.9195
 20
3.3686
  0
VERTEX
  8
LAYER10
 62
     1
  6
CONTINUOUS
 10
8.9225
 20
3.3624
  0
VERTEX
  8
LAYER10
 62
     1
  6
CONTINUOUS
 10
8.9252
 20
3.3561
  0
VERTEX
  8
LAYER10
 62
     1
  6
CONTINUOUS
 10
8.9271
 20
3.3511
  0
VERTEX
  8
LAYER10
 62
     1
  6
CONTINUOUS
 10
8.9287
 20
3.3459
  0
VERTEX
  8
LAYER10
 62
     1
  6
CONTINUOUS
 10
8.9301
 20
3.3406
  0
VERTEX
  8
LAYER10
 62
     1
  6
CONTINUOUS
 10
8.9313
 20
3.3353
  0
VERTEX
  8
LAYER10
 62
     1
  6
CONTINUOUS
 10
8.9323
 20
3.3298
  0
VERTEX
  8
LAYER10
 62
     1
  6
CONTINUOUS
 10
8.9332
 20
3.3244
  0
VERTEX
  8
LAYER10
 62
     1
  6
CONTINUOUS
 10
8.9339
 20
3.3189
  0
VERTEX
  8
LAYER10
 62
     1
  6
CONTINUOUS
 10
8.9345
 20
3.3133
  0
VERTEX
  8
LAYER10
 62
     1
  6
CONTINUOUS
 10
8.9350
 20
3.3078
  0
VERTEX
  8
LAYER10
 62
     1
  6
CONTINUOUS
 10
8.9355
 20
3.3022
  0
VERTEX
  8
LAYER10
 62
     1
  6
CONTINUOUS
 10
8.9359
 20
3.2967
  0
VERTEX
  8
LAYER10
 62
     1
  6
CONTINUOUS
 10
8.9362
 20
3.2912
  0
VERTEX
  8
LAYER10
 62
     1
  6
CONTINUOUS
 10
8.9365
 20
3.2861
  0
VERTEX
  8
LAYER10
 62
     1
  6
CONTINUOUS
 10
8.9368
 20
3.2811
  0
VERTEX
  8
LAYER10
 62
     1
  6
CONTINUOUS
 10
8.9371
 20
3.2761
  0
VERTEX
  8
LAYER10
 62
     1
  6
CONTINUOUS
 10
8.9373
 20
3.2711
  0
VERTEX
  8
LAYER10
 62
     1
  6
CONTINUOUS
 10
8.9375
 20
3.2662
  0
VERTEX
  8
LAYER10
 62
     1
  6
CONTINUOUS
 10
8.9377
 20
3.2612
  0
VERTEX
  8
LAYER10
 62
     1
  6
CONTINUOUS
 10
8.9377
 20
3.2562
  0
VERTEX
  8
LAYER10
 62
     1
  6
CONTINUOUS
 10
8.9378
 20
3.2512
  0
VERTEX
  8
LAYER10
 62
     1
  6
CONTINUOUS
 10
8.9377
 20
3.2462
  0
VERTEX
  8
LAYER10
 62
     1
  6
CONTINUOUS
 10
8.9376
 20
3.2412
  0
VERTEX
  8
LAYER10
 62
     1
  6
CONTINUOUS
 10
8.9374
 20
3.2361
  0
VERTEX
  8
LAYER10
 62
     1
  6
CONTINUOUS
 10
8.9371
 20
3.2310
  0
VERTEX
  8
LAYER10
 62
     1
  6
CONTINUOUS
 10
8.9368
 20
3.2262
  0
VERTEX
  8
LAYER10
 62
     1
  6
CONTINUOUS
 10
8.9363
 20
3.2213
  0
VERTEX
  8
LAYER10
 62
     1
  6
CONTINUOUS
 10
8.9358
 20
3.2165
  0
VERTEX
  8
LAYER10
 62
     1
  6
CONTINUOUS
 10
8.9350
 20
3.2116
  0
VERTEX
  8
LAYER10
 62
     1
  6
CONTINUOUS
 10
8.9342
 20
3.2068
  0
VERTEX
  8
LAYER10
 62
     1
  6
CONTINUOUS
 10
8.9332
 20
3.2021
  0
VERTEX
  8
LAYER10
 62
     1
  6
CONTINUOUS
 10
8.9320
 20
3.1974
  0
VERTEX
  8
LAYER10
 62
     1
  6
CONTINUOUS
 10
8.9306
 20
3.1928
  0
VERTEX
  8
LAYER10
 62
     1
  6
CONTINUOUS
 10
8.9290
 20
3.1883
  0
VERTEX
  8
LAYER10
 62
     1
  6
CONTINUOUS
 10
8.9273
 20
3.1840
  0
VERTEX
  8
LAYER10
 62
     1
  6
CONTINUOUS
 10
8.9252
 20
3.1798
  0
VERTEX
  8
LAYER10
 62
     1
  6
CONTINUOUS
 10
8.9229
 20
3.1757
  0
VERTEX
  8
LAYER10
 62
     1
  6
CONTINUOUS
 10
8.9203
 20
3.1716
  0
VERTEX
  8
LAYER10
 62
     1
  6
CONTINUOUS
 10
8.9173
 20
3.1677
  0
VERTEX
  8
LAYER10
 62
     1
  6
CONTINUOUS
 10
8.9141
 20
3.1639
  0
VERTEX
  8
LAYER10
 62
     1
  6
CONTINUOUS
 10
8.9107
 20
3.1603
  0
VERTEX
  8
LAYER10
 62
     1
  6
CONTINUOUS
 10
8.9071
 20
3.1568
  0
VERTEX
  8
LAYER10
 62
     1
  6
CONTINUOUS
 10
8.9033
 20
3.1535
  0
VERTEX
  8
LAYER10
 62
     1
  6
CONTINUOUS
 10
8.8994
 20
3.1502
  0
VERTEX
  8
LAYER10
 62
     1
  6
CONTINUOUS
 10
8.8953
 20
3.1470
  0
VERTEX
  8
LAYER10
 62
     1
  6
CONTINUOUS
 10
8.8912
 20
3.1439
  0
VERTEX
  8
LAYER10
 62
     1
  6
CONTINUOUS
 10
8.8870
 20
3.1409
  0
VERTEX
  8
LAYER10
 62
     1
  6
CONTINUOUS
 10
8.8827
 20
3.1379
  0
VERTEX
  8
LAYER10
 62
     1
  6
CONTINUOUS
 10
8.8785
 20
3.1349
  0
VERTEX
  8
LAYER10
 62
     1
  6
CONTINUOUS
 10
8.8724
 20
3.1308
  0
VERTEX
  8
LAYER10
 62
     1
  6
CONTINUOUS
 10
8.8664
 20
3.1267
  0
VERTEX
  8
LAYER10
 62
     1
  6
CONTINUOUS
 10
8.8604
 20
3.1226
  0
VERTEX
  8
LAYER10
 62
     1
  6
CONTINUOUS
 10
8.8543
 20
3.1187
  0
VERTEX
  8
LAYER10
 62
     1
  6
CONTINUOUS
 10
8.8482
 20
3.1149
  0
VERTEX
  8
LAYER10
 62
     1
  6
CONTINUOUS
 10
8.8421
 20
3.1112
  0
VERTEX
  8
LAYER10
 62
     1
  6
CONTINUOUS
 10
8.8359
 20
3.1077
  0
VERTEX
  8
LAYER10
 62
     1
  6
CONTINUOUS
 10
8.8297
 20
3.1044
  0
VERTEX
  8
LAYER10
 62
     1
  6
CONTINUOUS
 10
8.8234
 20
3.1013
  0
VERTEX
  8
LAYER10
 62
     1
  6
CONTINUOUS
 10
8.8170
 20
3.0985
  0
VERTEX
  8
LAYER10
 62
     1
  6
CONTINUOUS
 10
8.8105
 20
3.0960
  0
VERTEX
  8
LAYER10
 62
     1
  6
CONTINUOUS
 10
8.8039
 20
3.0937
  0
VERTEX
  8
LAYER10
 62
     1
  6
CONTINUOUS
 10
8.7970
 20
3.0917
  0
VERTEX
  8
LAYER10
 62
     1
  6
CONTINUOUS
 10
8.7900
 20
3.0900
  0
VERTEX
  8
LAYER10
 62
     1
  6
CONTINUOUS
 10
8.7829
 20
3.0885
  0
VERTEX
  8
LAYER10
 62
     1
  6
CONTINUOUS
 10
8.7758
 20
3.0871
  0
VERTEX
  8
LAYER10
 62
     1
  6
CONTINUOUS
 10
8.7686
 20
3.0858
  0
VERTEX
  8
LAYER10
 62
     1
  6
CONTINUOUS
 10
8.7614
 20
3.0844
  0
VERTEX
  8
LAYER10
 62
     1
  6
CONTINUOUS
 10
8.7542
 20
3.0830
  0
VERTEX
  8
LAYER10
 62
     1
  6
CONTINUOUS
 10
8.7471
 20
3.0815
  0
VERTEX
  8
LAYER10
 62
     1
  6
CONTINUOUS
 10
8.7400
 20
3.0797
  0
VERTEX
  8
LAYER10
 62
     1
  6
CONTINUOUS
 10
8.7329
 20
3.0776
  0
VERTEX
  8
LAYER10
 62
     1
  6
CONTINUOUS
 10
8.7259
 20
3.0752
  0
VERTEX
  8
LAYER10
 62
     1
  6
CONTINUOUS
 10
8.7190
 20
3.0724
  0
VERTEX
  8
LAYER10
 62
     1
  6
CONTINUOUS
 10
8.7143
 20
3.0702
  0
VERTEX
  8
LAYER10
 62
     1
  6
CONTINUOUS
 10
8.7097
 20
3.0678
  0
VERTEX
  8
LAYER10
 62
     1
  6
CONTINUOUS
 10
8.7051
 20
3.0652
  0
VERTEX
  8
LAYER10
 62
     1
  6
CONTINUOUS
 10
8.7006
 20
3.0626
  0
VERTEX
  8
LAYER10
 62
     1
  6
CONTINUOUS
 10
8.6960
 20
3.0600
  0
VERTEX
  8
LAYER10
 62
     1
  6
CONTINUOUS
 10
8.6915
 20
3.0575
  0
VERTEX
  8
LAYER10
 62
     1
  6
CONTINUOUS
 10
8.6870
 20
3.0551
  0
VERTEX
  8
LAYER10
 62
     1
  6
CONTINUOUS
 10
8.6825
 20
3.0528
  0
VERTEX
  8
LAYER10
 62
     1
  6
CONTINUOUS
 10
8.6780
 20
3.0507
  0
VERTEX
  8
LAYER10
 62
     1
  6
CONTINUOUS
 10
8.6734
 20
3.0490
  0
VERTEX
  8
LAYER10
 62
     1
  6
CONTINUOUS
 10
8.6689
 20
3.0475
  0
VERTEX
  8
LAYER10
 62
     1
  6
CONTINUOUS
 10
8.6643
 20
3.0465
  0
VERTEX
  8
LAYER10
 62
     1
  6
CONTINUOUS
 10
8.6574
 20
3.0458
  0
VERTEX
  8
LAYER10
 62
     1
  6
CONTINUOUS
 10
8.6504
 20
3.0459
  0
VERTEX
  8
LAYER10
 62
     1
  6
CONTINUOUS
 10
8.6433
 20
3.0469
  0
VERTEX
  8
LAYER10
 62
     1
  6
CONTINUOUS
 10
8.6362
 20
3.0486
  0
VERTEX
  8
LAYER10
 62
     1
  6
CONTINUOUS
 10
8.6290
 20
3.0509
  0
VERTEX
  8
LAYER10
 62
     1
  6
CONTINUOUS
 10
8.6218
 20
3.0537
  0
VERTEX
  8
LAYER10
 62
     1
  6
CONTINUOUS
 10
8.6146
 20
3.0569
  0
VERTEX
  8
LAYER10
 62
     1
  6
CONTINUOUS
 10
8.6074
 20
3.0603
  0
VERTEX
  8
LAYER10
 62
     1
  6
CONTINUOUS
 10
8.6001
 20
3.0640
  0
VERTEX
  8
LAYER10
 62
     1
  6
CONTINUOUS
 10
8.5929
 20
3.0678
  0
VERTEX
  8
LAYER10
 62
     1
  6
CONTINUOUS
 10
8.5858
 20
3.0716
  0
VERTEX
  8
LAYER10
 62
     1
  6
CONTINUOUS
 10
8.5787
 20
3.0753
  0
VERTEX
  8
LAYER10
 62
     1
  6
CONTINUOUS
 10
8.5725
 20
3.0783
  0
VERTEX
  8
LAYER10
 62
     1
  6
CONTINUOUS
 10
8.5664
 20
3.0813
  0
VERTEX
  8
LAYER10
 62
     1
  6
CONTINUOUS
 10
8.5604
 20
3.0841
  0
VERTEX
  8
LAYER10
 62
     1
  6
CONTINUOUS
 10
8.5544
 20
3.0868
  0
VERTEX
  8
LAYER10
 62
     1
  6
CONTINUOUS
 10
8.5484
 20
3.0895
  0
VERTEX
  8
LAYER10
 62
     1
  6
CONTINUOUS
 10
8.5425
 20
3.0922
  0
VERTEX
  8
LAYER10
 62
     1
  6
CONTINUOUS
 10
8.5367
 20
3.0949
  0
VERTEX
  8
LAYER10
 62
     1
  6
CONTINUOUS
 10
8.5308
 20
3.0976
  0
VERTEX
  8
LAYER10
 62
     1
  6
CONTINUOUS
 10
8.5251
 20
3.1004
  0
VERTEX
  8
LAYER10
 62
     1
  6
CONTINUOUS
 10
8.5193
 20
3.1032
  0
VERTEX
  8
LAYER10
 62
     1
  6
CONTINUOUS
 10
8.5136
 20
3.1062
  0
VERTEX
  8
LAYER10
 62
     1
  6
CONTINUOUS
 10
8.5080
 20
3.1093
  0
VERTEX
  8
LAYER10
 62
     1
  6
CONTINUOUS
 10
8.5012
 20
3.1133
  0
VERTEX
  8
LAYER10
 62
     1
  6
CONTINUOUS
 10
8.4944
 20
3.1176
  0
VERTEX
  8
LAYER10
 62
     1
  6
CONTINUOUS
 10
8.4878
 20
3.1220
  0
VERTEX
  8
LAYER10
 62
     1
  6
CONTINUOUS
 10
8.4813
 20
3.1268
  0
VERTEX
  8
LAYER10
 62
     1
  6
CONTINUOUS
 10
8.4750
 20
3.1317
  0
VERTEX
  8
LAYER10
 62
     1
  6
CONTINUOUS
 10
8.4688
 20
3.1370
  0
VERTEX
  8
LAYER10
 62
     1
  6
CONTINUOUS
 10
8.4629
 20
3.1424
  0
VERTEX
  8
LAYER10
 62
     1
  6
CONTINUOUS
 10
8.4571
 20
3.1481
  0
VERTEX
  8
LAYER10
 62
     1
  6
CONTINUOUS
 10
8.4516
 20
3.1541
  0
VERTEX
  8
LAYER10
 62
     1
  6
CONTINUOUS
 10
8.4464
 20
3.1603
  0
VERTEX
  8
LAYER10
 62
     1
  6
CONTINUOUS
 10
8.4415
 20
3.1667
  0
VERTEX
  8
LAYER10
 62
     1
  6
CONTINUOUS
 10
8.4369
 20
3.1734
  0
VERTEX
  8
LAYER10
 62
     1
  6
CONTINUOUS
 10
8.4351
 20
3.1761
  0
VERTEX
  8
LAYER10
 62
     1
  6
CONTINUOUS
 10
8.4334
 20
3.1789
  0
VERTEX
  8
LAYER10
 62
     1
  6
CONTINUOUS
 10
8.4318
 20
3.1817
  0
VERTEX
  8
LAYER10
 62
     1
  6
CONTINUOUS
 10
8.4303
 20
3.1845
  0
VERTEX
  8
LAYER10
 62
     1
  6
CONTINUOUS
 10
8.4288
 20
3.1874
  0
VERTEX
  8
LAYER10
 62
     1
  6
CONTINUOUS
 10
8.4274
 20
3.1903
  0
VERTEX
  8
LAYER10
 62
     1
  6
CONTINUOUS
 10
8.4261
 20
3.1932
  0
VERTEX
  8
LAYER10
 62
     1
  6
CONTINUOUS
 10
8.4249
 20
3.1962
  0
VERTEX
  8
LAYER10
 62
     1
  6
CONTINUOUS
 10
8.4239
 20
3.1992
  0
VERTEX
  8
LAYER10
 62
     1
  6
CONTINUOUS
 10
8.4229
 20
3.2022
  0
VERTEX
  8
LAYER10
 62
     1
  6
CONTINUOUS
 10
8.4220
 20
3.2052
  0
VERTEX
  8
LAYER10
 62
     1
  6
CONTINUOUS
 10
8.4213
 20
3.2082
  0
VERTEX
  8
LAYER10
 62
     1
  6
CONTINUOUS
 10
8.4203
 20
3.2143
  0
VERTEX
  8
LAYER10
 62
     1
  6
CONTINUOUS
 10
8.4196
 20
3.2204
  0
VERTEX
  8
LAYER10
 62
     1
  6
CONTINUOUS
 10
8.4194
 20
3.2266
  0
VERTEX
  8
LAYER10
 62
     1
  6
CONTINUOUS
 10
8.4195
 20
3.2328
  0
VERTEX
  8
LAYER10
 62
     1
  6
CONTINUOUS
 10
8.4199
 20
3.2391
  0
VERTEX
  8
LAYER10
 62
     1
  6
CONTINUOUS
 10
8.4205
 20
3.2454
  0
VERTEX
  8
LAYER10
 62
     1
  6
CONTINUOUS
 10
8.4213
 20
3.2517
  0
VERTEX
  8
LAYER10
 62
     1
  6
CONTINUOUS
 10
8.4221
 20
3.2580
  0
VERTEX
  8
LAYER10
 62
     1
  6
CONTINUOUS
 10
8.4230
 20
3.2644
  0
VERTEX
  8
LAYER10
 62
     1
  6
CONTINUOUS
 10
8.4238
 20
3.2708
  0
VERTEX
  8
LAYER10
 62
     1
  6
CONTINUOUS
 10
8.4246
 20
3.2771
  0
VERTEX
  8
LAYER10
 62
     1
  6
CONTINUOUS
 10
8.4252
 20
3.2835
  0
VERTEX
  8
LAYER10
 62
     1
  6
CONTINUOUS
 10
8.4256
 20
3.2889
  0
VERTEX
  8
LAYER10
 62
     1
  6
CONTINUOUS
 10
8.4258
 20
3.2944
  0
VERTEX
  8
LAYER10
 62
     1
  6
CONTINUOUS
 10
8.4259
 20
3.2999
  0
VERTEX
  8
LAYER10
 62
     1
  6
CONTINUOUS
 10
8.4260
 20
3.3054
  0
VERTEX
  8
LAYER10
 62
     1
  6
CONTINUOUS
 10
8.4261
 20
3.3108
  0
VERTEX
  8
LAYER10
 62
     1
  6
CONTINUOUS
 10
8.4262
 20
3.3162
  0
VERTEX
  8
LAYER10
 62
     1
  6
CONTINUOUS
 10
8.4264
 20
3.3217
  0
VERTEX
  8
LAYER10
 62
     1
  6
CONTINUOUS
 10
8.4266
 20
3.3271
  0
VERTEX
  8
LAYER10
 62
     1
  6
CONTINUOUS
 10
8.4270
 20
3.3325
  0
VERTEX
  8
LAYER10
 62
     1
  6
CONTINUOUS
 10
8.4275
 20
3.3379
  0
VERTEX
  8
LAYER10
 62
     1
  6
CONTINUOUS
 10
8.4283
 20
3.3433
  0
VERTEX
  8
LAYER10
 62
     1
  6
CONTINUOUS
 10
8.4292
 20
3.3487
  0
VERTEX
  8
LAYER10
 62
     1
  6
CONTINUOUS
 10
8.4305
 20
3.3544
  0
VERTEX
  8
LAYER10
 62
     1
  6
CONTINUOUS
 10
8.4321
 20
3.3601
  0
VERTEX
  8
LAYER10
 62
     1
  6
CONTINUOUS
 10
8.4340
 20
3.3657
  0
VERTEX
  8
LAYER10
 62
     1
  6
CONTINUOUS
 10
8.4362
 20
3.3712
  0
VERTEX
  8
LAYER10
 62
     1
  6
CONTINUOUS
 10
8.4387
 20
3.3767
  0
VERTEX
  8
LAYER10
 62
     1
  6
CONTINUOUS
 10
8.4414
 20
3.3820
  0
VERTEX
  8
LAYER10
 62
     1
  6
CONTINUOUS
 10
8.4444
 20
3.3871
  0
VERTEX
  8
LAYER10
 62
     1
  6
CONTINUOUS
 10
8.4477
 20
3.3920
  0
VERTEX
  8
LAYER10
 62
     1
  6
CONTINUOUS
 10
8.4513
 20
3.3967
  0
VERTEX
  8
LAYER10
 62
     1
  6
CONTINUOUS
 10
8.4551
 20
3.4012
  0
VERTEX
  8
LAYER10
 62
     1
  6
CONTINUOUS
 10
8.4591
 20
3.4054
  0
VERTEX
  8
LAYER10
 62
     1
  6
CONTINUOUS
 10
8.4634
 20
3.4093
  0
VERTEX
  8
LAYER10
 62
     1
  6
CONTINUOUS
 10
8.4670
 20
3.4122
  0
VERTEX
  8
LAYER10
 62
     1
  6
CONTINUOUS
 10
8.4708
 20
3.4150
  0
VERTEX
  8
LAYER10
 62
     1
  6
CONTINUOUS
 10
8.4747
 20
3.4175
  0
VERTEX
  8
LAYER10
 62
     1
  6
CONTINUOUS
 10
8.4787
 20
3.4199
  0
VERTEX
  8
LAYER10
 62
     1
  6
CONTINUOUS
 10
8.4828
 20
3.4221
  0
VERTEX
  8
LAYER10
 62
     1
  6
CONTINUOUS
 10
8.4870
 20
3.4242
  0
VERTEX
  8
LAYER10
 62
     1
  6
CONTINUOUS
 10
8.4912
 20
3.4262
  0
VERTEX
  8
LAYER10
 62
     1
  6
CONTINUOUS
 10
8.4955
 20
3.4281
  0
VERTEX
  8
LAYER10
 62
     1
  6
CONTINUOUS
 10
8.4999
 20
3.4300
  0
VERTEX
  8
LAYER10
 62
     1
  6
CONTINUOUS
 10
8.5043
 20
3.4317
  0
VERTEX
  8
LAYER10
 62
     1
  6
CONTINUOUS
 10
8.5087
 20
3.4334
  0
VERTEX
  8
LAYER10
 62
     1
  6
CONTINUOUS
 10
8.5131
 20
3.4351
  0
VERTEX
  8
LAYER10
 62
     1
  6
CONTINUOUS
 10
8.5191
 20
3.4374
  0
VERTEX
  8
LAYER10
 62
     1
  6
CONTINUOUS
 10
8.5251
 20
3.4396
  0
VERTEX
  8
LAYER10
 62
     1
  6
CONTINUOUS
 10
8.5310
 20
3.4419
  0
VERTEX
  8
LAYER10
 62
     1
  6
CONTINUOUS
 10
8.5370
 20
3.4442
  0
VERTEX
  8
LAYER10
 62
     1
  6
CONTINUOUS
 10
8.5429
 20
3.4466
  0
VERTEX
  8
LAYER10
 62
     1
  6
CONTINUOUS
 10
8.5487
 20
3.4490
  0
VERTEX
  8
LAYER10
 62
     1
  6
CONTINUOUS
 10
8.5545
 20
3.4515
  0
VERTEX
  8
LAYER10
 62
     1
  6
CONTINUOUS
 10
8.5603
 20
3.4541
  0
VERTEX
  8
LAYER10
 62
     1
  6
CONTINUOUS
 10
8.5660
 20
3.4569
  0
VERTEX
  8
LAYER10
 62
     1
  6
CONTINUOUS
 10
8.5717
 20
3.4598
  0
VERTEX
  8
LAYER10
 62
     1
  6
CONTINUOUS
 10
8.5773
 20
3.4629
  0
VERTEX
  8
LAYER10
 62
     1
  6
CONTINUOUS
 10
8.5828
 20
3.4662
  0
VERTEX
  8
LAYER10
 62
     1
  6
CONTINUOUS
 10
8.5902
 20
3.4710
  0
VERTEX
  8
LAYER10
 62
     1
  6
CONTINUOUS
 10
8.5975
 20
3.4761
  0
VERTEX
  8
LAYER10
 62
     1
  6
CONTINUOUS
 10
8.6048
 20
3.4813
  0
VERTEX
  8
LAYER10
 62
     1
  6
CONTINUOUS
 10
8.6120
 20
3.4867
  0
VERTEX
  8
LAYER10
 62
     1
  6
CONTINUOUS
 10
8.6192
 20
3.4919
  0
VERTEX
  8
LAYER10
 62
     1
  6
CONTINUOUS
 10
8.6265
 20
3.4970
  0
VERTEX
  8
LAYER10
 62
     1
  6
CONTINUOUS
 10
8.6338
 20
3.5018
  0
VERTEX
  8
LAYER10
 62
     1
  6
CONTINUOUS
 10
8.6412
 20
3.5062
  0
VERTEX
  8
LAYER10
 62
     1
  6
CONTINUOUS
 10
8.6487
 20
3.5101
  0
VERTEX
  8
LAYER10
 62
     1
  6
CONTINUOUS
 10
8.6564
 20
3.5134
  0
VERTEX
  8
LAYER10
 62
     1
  6
CONTINUOUS
 10
8.6642
 20
3.5160
  0
VERTEX
  8
LAYER10
 62
     1
  6
CONTINUOUS
 10
8.6722
 20
3.5177
  0
VERTEX
  8
LAYER10
 62
     1
  6
CONTINUOUS
 10
8.6754
 20
3.5181
  0
VERTEX
  8
LAYER10
 62
     1
  6
CONTINUOUS
 10
8.6786
 20
3.5184
  0
VERTEX
  8
LAYER10
 62
     1
  6
CONTINUOUS
 10
8.6819
 20
3.5186
  0
VERTEX
  8
LAYER10
 62
     1
  6
CONTINUOUS
 10
8.6852
 20
3.5187
  0
VERTEX
  8
LAYER10
 62
     1
  6
CONTINUOUS
 10
8.6885
 20
3.5187
  0
VERTEX
  8
LAYER10
 62
     1
  6
CONTINUOUS
 10
8.6918
 20
3.5187
  0
VERTEX
  8
LAYER10
 62
     1
  6
CONTINUOUS
 10
8.6952
 20
3.5186
  0
VERTEX
  8
LAYER10
 62
     1
  6
CONTINUOUS
 10
8.6986
 20
3.5185
  0
VERTEX
  8
LAYER10
 62
     1
  6
CONTINUOUS
 10
8.7020
 20
3.5184
  0
VERTEX
  8
LAYER10
 62
     1
  6
CONTINUOUS
 10
8.7054
 20
3.5183
  0
VERTEX
  8
LAYER10
 62
     1
  6
CONTINUOUS
 10
8.7088
 20
3.5183
  0
VERTEX
  8
LAYER10
 62
     1
  6
CONTINUOUS
 10
8.7123
 20
3.5183
  0
VERTEX
  8
LAYER10
 62
     1
  6
CONTINUOUS
 10
8.7202
 20
3.5185
  0
VERTEX
  8
LAYER10
 62
     1
  6
CONTINUOUS
 10
8.7281
 20
3.5190
  0
VERTEX
  8
LAYER10
 62
     1
  6
CONTINUOUS
 10
8.7360
 20
3.5197
  0
VERTEX
  8
LAYER10
 62
     1
  6
CONTINUOUS
 10
8.7439
 20
3.5203
  0
VERTEX
  8
LAYER10
 62
     1
  6
CONTINUOUS
 10
8.7518
 20
3.5209
  0
VERTEX
  8
LAYER10
 62
     1
  6
CONTINUOUS
 10
8.7596
 20
3.5214
  0
VERTEX
  8
LAYER10
 62
     1
  6
CONTINUOUS
 10
8.7672
 20
3.5215
  0
VERTEX
  8
LAYER10
 62
     1
  6
CONTINUOUS
 10
8.7747
 20
3.5213
  0
VERTEX
  8
LAYER10
 62
     1
  6
CONTINUOUS
 10
8.7821
 20
3.5206
  0
VERTEX
  8
LAYER10
 62
     1
  6
CONTINUOUS
 10
8.7892
 20
3.5194
  0
VERTEX
  8
LAYER10
 62
     1
  6
CONTINUOUS
 10
8.7960
 20
3.5174
  0
VERTEX
  8
LAYER10
 62
     1
  6
CONTINUOUS
 10
8.8026
 20
3.5147
  0
SEQEND
  8
LAYER10
  0
POLYLINE
  8
LAYER12
 62
     5
 66
     1
  6
CONTINUOUS
  0
VERTEX
  8
LAYER12
 62
     5
  6
CONTINUOUS
 10
8.0340
 20
3.5331
  0
VERTEX
  8
LAYER12
 62
     5
  6
CONTINUOUS
 10
8.0339
 20
3.5331
  0
SEQEND
  8
LAYER12
  0
ARC
  8
LAYER12
 62
     7
  6
CONTINUOUS
 10
8.4164
 20
3.5364
 40
0.0202
 50
-162.4706
 51
-17.5307
  0
ARC
  8
LAYER12
 62
     7
  6
CONTINUOUS
 10
8.3642
 20
3.5081
 40
0.0408
 50
146.9146
 51
33.0848
  0
ARC
  8
LAYER12
 62
     5
  6
CONTINUOUS
 10
8.4164
 20
3.5364
 40
0.0202
 50
-173.5458
 51
-162.4702
  0
ARC
  8
LAYER12
 62
     5
  6
CONTINUOUS
 10
8.3642
 20
3.5081
 40
0.0408
 50
140.2531
 51
146.9146
  0
POLYLINE
  8
LAYER12
 62
     5
 66
     1
  6
CONTINUOUS
  0
VERTEX
  8
LAYER12
 62
     5
  6
CONTINUOUS
 10
8.0340
 20
2.5494
  0
VERTEX
  8
LAYER12
 62
     5
  6
CONTINUOUS
 10
9.0561
 20
2.5494
  0
SEQEND
  8
LAYER12
  0
POLYLINE
  8
LAYER12
 62
     5
 66
     1
  6
CONTINUOUS
  0
VERTEX
  8
LAYER12
 62
     5
  6
CONTINUOUS
 10
8.0330
 20
2.5494
  0
VERTEX
  8
LAYER12
 62
     5
  6
CONTINUOUS
 10
8.0340
 20
2.5494
  0
SEQEND
  8
LAYER12
  0
POLYLINE
  8
LAYER12
 62
     5
 66
     1
  6
CONTINUOUS
  0
VERTEX
  8
LAYER12
 62
     5
  6
CONTINUOUS
 10
9.0561
 20
2.5494
  0
VERTEX
  8
LAYER12
 62
     5
  6
CONTINUOUS
 10
9.0561
 20
2.5511
  0
SEQEND
  8
LAYER12
  0
POLYLINE
  8
LAYER12
 62
     5
 66
     1
  6
CONTINUOUS
  0
VERTEX
  8
LAYER12
 62
     5
  6
CONTINUOUS
 10
9.0561
 20
2.5511
  0
VERTEX
  8
LAYER12
 62
     5
  6
CONTINUOUS
 10
9.0561
 20
2.5611
  0
SEQEND
  8
LAYER12
  0
POLYLINE
  8
LAYER12
 62
     5
 66
     1
  6
CONTINUOUS
  0
VERTEX
  8
LAYER12
 62
     5
  6
CONTINUOUS
 10
8.0330
 20
2.5511
  0
VERTEX
  8
LAYER12
 62
     5
  6
CONTINUOUS
 10
8.0330
 20
2.5511
  0
SEQEND
  8
LAYER12
  0
POLYLINE
  8
LAYER12
 62
     5
 66
     1
  6
CONTINUOUS
  0
VERTEX
  8
LAYER12
 62
     5
  6
CONTINUOUS
 10
8.0330
 20
2.5511
  0
VERTEX
  8
LAYER12
 62
     5
  6
CONTINUOUS
 10
8.0330
 20
2.5494
  0
SEQEND
  8
LAYER12
  0
POLYLINE
  8
LAYER12
 62
     5
 66
     1
  6
CONTINUOUS
  0
VERTEX
  8
LAYER12
 62
     5
  6
CONTINUOUS
 10
8.0330
 20
3.5341
  0
VERTEX
  8
LAYER12
 62
     5
  6
CONTINUOUS
 10
8.0330
 20
3.5331
  0
SEQEND
  8
LAYER12
  0
POLYLINE
  8
LAYER12
 62
     5
 66
     1
  6
CONTINUOUS
  0
VERTEX
  8
LAYER12
 62
     5
  6
CONTINUOUS
 10
9.0570
 20
3.5331
  0
VERTEX
  8
LAYER12
 62
     5
  6
CONTINUOUS
 10
9.0561
 20
3.5331
  0
SEQEND
  8
LAYER12
  0
POLYLINE
  8
LAYER12
 62
     5
 66
     1
  6
CONTINUOUS
  0
VERTEX
  8
LAYER12
 62
     5
  6
CONTINUOUS
 10
9.0561
 20
3.5331
  0
VERTEX
  8
LAYER12
 62
     5
  6
CONTINUOUS
 10
8.0340
 20
3.5331
  0
SEQEND
  8
LAYER12
  0
POLYLINE
  8
LAYER12
 62
     5
 66
     1
  6
CONTINUOUS
  0
VERTEX
  8
LAYER12
 62
     5
  6
CONTINUOUS
 10
8.0330
 20
3.5331
  0
VERTEX
  8
LAYER12
 62
     5
  6
CONTINUOUS
 10
8.0330
 20
3.5303
  0
SEQEND
  8
LAYER12
  0
POLYLINE
  8
LAYER12
 62
     5
 66
     1
  6
CONTINUOUS
  0
VERTEX
  8
LAYER12
 62
     5
  6
CONTINUOUS
 10
8.0330
 20
3.5303
  0
VERTEX
  8
LAYER12
 62
     5
  6
CONTINUOUS
 10
8.0330
 20
2.5511
  0
SEQEND
  8
LAYER12
  0
POLYLINE
  8
LAYER12
 62
     5
 66
     1
  6
CONTINUOUS
  0
VERTEX
  8
LAYER12
 62
     5
  6
CONTINUOUS
 10
8.0330
 20
2.5511
  0
VERTEX
  8
LAYER12
 62
     5
  6
CONTINUOUS
 10
8.0330
 20
2.5511
  0
SEQEND
  8
LAYER12
  0
POLYLINE
  8
LAYER12
 62
     5
 66
     1
  6
CONTINUOUS
  0
VERTEX
  8
LAYER12
 62
     5
  6
CONTINUOUS
 10
8.0339
 20
3.5331
  0
VERTEX
  8
LAYER12
 62
     5
  6
CONTINUOUS
 10
8.0330
 20
3.5331
  0
SEQEND
  8
LAYER12
  0
POLYLINE
  8
LAYER12
 62
     5
 66
     1
  6
CONTINUOUS
  0
VERTEX
  8
LAYER12
 62
     5
  6
CONTINUOUS
 10
9.0561
 20
2.5611
  0
VERTEX
  8
LAYER12
 62
     5
  6
CONTINUOUS
 10
9.0561
 20
3.5303
  0
SEQEND
  8
LAYER12
  0
POLYLINE
  8
LAYER12
 62
     5
 66
     1
  6
CONTINUOUS
  0
VERTEX
  8
LAYER12
 62
     5
  6
CONTINUOUS
 10
9.0561
 20
3.5303
  0
VERTEX
  8
LAYER12
 62
     5
  6
CONTINUOUS
 10
9.0561
 20
3.5341
  0
SEQEND
  8
LAYER12
  0
ARC
  8
LAYER12
 62
     5
  6
CONTINUOUS
 10
8.7068
 20
3.5533
 40
0.0207
 50
-111.8675
 51
-68.1298
  0
ARC
  8
LAYER12
 62
     5
  6
CONTINUOUS
 10
8.7068
 20
3.5533
 40
0.0207
 50
-111.8675
 51
-68.1298
  0
ARC
  8
LAYER12
 62
     5
  6
CONTINUOUS
 10
8.7068
 20
3.5533
 40
0.0207
 50
-111.8675
 51
-68.1298
  0
ARC
  8
LAYER12
 62
     5
  6
CONTINUOUS
 10
8.7068
 20
3.5533
 40
0.0207
 50
-111.8675
 51
-68.1298
  0
ARC
  8
LAYER12
 62
     5
  6
CONTINUOUS
 10
8.4164
 20
3.5364
 40
0.0202
 50
-17.5303
 51
-6.4549
  0
ARC
  8
LAYER12
 62
     5
  6
CONTINUOUS
 10
8.3642
 20
3.5081
 40
0.0408
 50
33.0846
 51
39.7460
  0
ENDSEC
  0
EOF
