  0
SECTION
  2
HEADER
  9
$ACADVER
  1
AC1004
  9
$EXTMIN
 10
4.0574
 20
2.5494
  9
$EXTMAX
 10
5.0426
 20
3.5331
  9
$LIMMIN
 10
4.0574
 20
2.5494
  9
$LIMMAX
 10
5.0426
 20
3.5331
  9
$INSBASE
 10
0.0
 20
0.0
  9
$VIEWCTR
 10
7.21903
 20
4.5
  9
$VIEWSIZE
 40
9.0
  9
$SNAPMODE
 70
     0
  9
$SNAPUNIT
 10
1.0
 20
1.0
  9
$SNAPBASE
 10
0.0
 20
0.0
  9
$SNAPANG
 50
0.0
  9
$SNAPSTYLE
 70
     0
  9
$SNAPISOPAIR
 70
     0
  9
$GRIDMODE
 70
     0
  9
$GRIDUNIT
 10
0.0
 20
0.0
  9
$ORTHOMODE
 70
     0
  9
$REGENMODE
 70
     1
  9
$FILLMODE
 70
     1
  9
$QTEXTMODE
 70
     0
  9
$DRAGMODE
 70
     2
  9
$LTSCALE
 40
1.0
  9
$OSMODE
 70
     0
  9
$ATTMODE
 70
     1
  9
$TEXTSIZE
 40
0.2
  9
$TRACEWID
 40
0.05
  9
$TEXTSTYLE
  7
STANDARD
  9
$CLAYER
  8
0
  9
$CELTYPE
  6
BYLAYER
  9
$CECOLOR
 62
   256
  9
$DIMSCALE
 40
1.0
  9
$DIMASZ
 40
0.18
  9
$DIMEXO
 40
0.0625
  9
$DIMDLI
 40
0.38
  9
$DIMRND
 40
0.0
  9
$DIMDLE
 40
0.0
  9
$DIMEXE
 40
0.18
  9
$DIMTP
 40
0.0
  9
$DIMTM
 40
0.0
  9
$DIMTXT
 40
0.18
  9
$DIMCEN
 40
0.09
  9
$DIMTSZ
 40
0.0
  9
$DIMTOL
 70
     0
  9
$DIMLIM
 70
     0
  9
$DIMTIH
 70
     1
  9
$DIMTOH
 70
     1
  9
$DIMSE1
 70
     0
  9
$DIMSE2
 70
     0
  9
$DIMTAD
 70
     0
  9
$DIMZIN
 70
     0
  9
$DIMBLK
  1

  9
$DIMASO
 70
     1
  9
$DIMSHO
 70
     0
  9
$DIMPOST
  1

  9
$DIMAPOST
  1

  9
$DIMALT
 70
     0
  9
$DIMALTD
 70
     2
  9
$DIMALTF
 40
25.4
  9
$DIMLFAC
 40
1.0
  9
$LUNITS
 70
     2
  9
$LUPREC
 70
     4
  9
$AXISMODE
 70
     0
  9
$AXISUNIT
 10
0.0
 20
0.0
  9
$SKETCHINC
 40
0.1
  9
$FILLETRAD
 40
0.0
  9
$AUNITS
 70
     0
  9
$AUPREC
 70
     0
  9
$MENU
  1
acad
  9
$ELEVATION
 40
0.0
  9
$THICKNESS
 40
0.0
  9
$VIEWDIR
 10
0.0
 20
0.0
 30
1.0
  9
$LIMCHECK
 70
     0
  9
$BLIPMODE
 70
     1
  9
$CHAMFERA
 40
0.0
  9
$CHAMFERB
 40
0.0
  9
$FASTZOOM
 70
     1
  9
$SKPOLY
 70
     0
  9
$TDCREATE
 40
2447222.5666886573
  9
$TDUPDATE
 40
2447222.5666886573
  9
$TDINDWG
 40
0.0000000000
  9
$TDUSRTIMER
 40
0.0000000000
  9
$USRTIMER
 70
     1
  9
$ANGBASE
 50
0.0
  9
$ANGDIR
 70
     0
  9
$PDMODE
 70
     0
  9
$PDSIZE
 40
0.0
  9
$PLINEWID
 40
0.0
  9
$COORDS
 70
     0
  9
$SPLFRAME
 70
     0
  9
$SPLINESEGS
 70
     8
  9
$ATTDIA
 70
     0
  9
$ATTREQ
 70
     1
  9
$USERI1
 70
     0
  9
$USERI2
 70
     0
  9
$USERI3
 70
     0
  9
$USERI4
 70
     0
  9
$USERI5
 70
     0
  9
$USERR1
 40
0.0
  9
$USERR2
 40
0.0
  9
$USERR3
 40
0.0
  9
$USERR4
 40
0.0
  9
$USERR5
 40
0.0
  0
ENDSEC
  0
SECTION
  2
TABLES
  0
TABLE
  2
LTYPE
 70
     13
  0
LTYPE
  2
CONTINUOUS
 70
    64
  3
Solid line
 72
    65
 73
     0
 40
0.0
  0
LTYPE
  2
DASHED
 70
    64
  3
__ __ __ __ __ __ __ __ __ __ __ __ __ __ __
 72
    65
 73
     2
 40
0.75
 49
0.5
 49
-0.25
  0
LTYPE
  2
HIDDEN
 70
    64
  3
_ _ _ _ _ _ _ _ _ _ _ _ _ _ _ _ _ _ _ _ _ _ _
 72
    65
 73
     2
 40
0.375
 49
0.25
 49
-0.125
  0
LTYPE
  2
CENTER
 70
    64
  3
____ _ ____ _ ____ _ ____ _ ____ _ ____ _ ____
 72
    65
 73
     4
 40
2.0
 49
1.25
 49
-0.25
 49
0.25
 49
-0.25
  0
LTYPE
  2
PHANTOM
 70
    64
  3
_____ _ _ _____ _ _ _____ _ _ _____ _ _ ____
 72
    65
 73
     6
 40
2.5
 49
1.25
 49
-0.25
 49
0.25
 49
-0.25
 49
0.25
 49
-0.25
  0
LTYPE
  2
DOT
 70
    64
  3
...............................................
 72
    65
 73
     2
 40
0.25
 49
0.0
 49
-0.25
  0
LTYPE
  2
DASHDOT
 70
    64
  3
__ . __ . __ . __ . __ . __ . __ . __ . __ . __
 72
    65
 73
     4
 40
1.0
 49
0.5
 49
-0.25
 49
0.0
 49
-0.25
  0
LTYPE
  2
BORDER
 70
    64
  3
__ __ . __ __ . __ __ . __ __ . __ __ . __ __
 72
    65
 73
     6
 40
1.75
 49
0.5
 49
-0.25
 49
0.5
 49
-0.25
 49
0.0
 49
-0.25
  0
LTYPE
  2
DIVIDE
 70
    64
  3
__ . . __ . . __ . . __ . . __ . . __ . . __
 72
    65
 73
     6
 40
1.25
 49
0.5
 49
-0.25
 49
0.0
 49
-0.25
 49
0.0
 49
-0.25
  0
LTYPE
  2
DCTYPE1
 70
    64
  3
__ . . __ . . __ . . __ . . __ . . __ . . __
 72
    65
 73
     8
 40
2.5
 49
0.5
 49
-0.25
 49
0.125
 49
-0.25
 49
0.25
 49
-0.25
 49
0.125
 49
-0.25
  0
LTYPE
  2
DCTYPE2
 70
    64
  3
__ . . __ . . __ . . __ . . __ . . __ . . __
 72
    65
 73
     6
 40
2.05
 49
1.0
 49
-0.3
 49
0.15
 49
-0.15
 49
0.15
 49
-0.3
  0
LTYPE
  2
DCTYPE3
 70
    64
  3
__ . . __ . . __ . . __ . . __ . . __ . . __
 72
    65
 73
     6
 40
2.5
 49
0.8
 49
-0.2
 49
0.8
 49
-0.2
 49
0.3
 49
-0.2
  0
LTYPE
  2
DCTYPE4
 70
    64
  3
__ . . __ . . __ . . __ . . __ . . __ . . __
 72
    65
 73
     10
 40
3.97
 49
1.75
 49
-0.3
 49
0.3
 49
-0.3
 49
0.06
 49
-0.3
 49
0.06
 49
-0.3
 49
0.3
 49
-0.3
  0
ENDTAB
  0
TABLE
  2
LAYER
 70
    153
  0
LAYER
  2
LAYER1
 70
 64
 62
     7
  6
CONTINUOUS
  0
LAYER
  2
LAYER12
 70
 64
 62
     5
  6
CONTINUOUS
  0
ENDTAB
  0
ENDSEC
  0
SECTION
  2
BLOCKS
  0
ENDSEC
  0
SECTION
  2
ENTITIES
  0
CIRCLE
  8
LAYER1
 62
     7
  6
CONTINUOUS
 10
4.9164
 20
3.2896
 40
0.0215
  0
CIRCLE
  8
LAYER1
 62
     7
  6
CONTINUOUS
 10
4.7328
 20
3.0492
 40
0.0227
  0
CIRCLE
  8
LAYER1
 62
     7
  6
CONTINUOUS
 10
4.5775
 20
3.2638
 40
0.0276
  0
CIRCLE
  8
LAYER1
 62
     7
  6
CONTINUOUS
 10
4.6328
 20
3.2643
 40
0.0161
  0
CIRCLE
  8
LAYER1
 62
     7
  6
CONTINUOUS
 10
4.1083
 20
3.4879
 40
0.0151
  0
CIRCLE
  8
LAYER1
 62
     7
  6
CONTINUOUS
 10
4.1511
 20
3.4707
 40
0.0128
  0
CIRCLE
  8
LAYER1
 62
     7
  6
CONTINUOUS
 10
4.1963
 20
3.4711
 40
0.0128
  0
CIRCLE
  8
LAYER1
 62
     7
  6
CONTINUOUS
 10
4.1640
 20
3.4356
 40
0.0176
  0
CIRCLE
  8
LAYER1
 62
     7
  6
CONTINUOUS
 10
4.1366
 20
3.4153
 40
0.0191
  0
CIRCLE
  8
LAYER1
 62
     7
  6
CONTINUOUS
 10
4.2298
 20
3.3835
 40
0.0251
  0
CIRCLE
  8
LAYER1
 62
     7
  6
CONTINUOUS
 10
4.3242
 20
2.9625
 40
0.0151
  0
CIRCLE
  8
LAYER1
 62
     7
  6
CONTINUOUS
 10
4.8267
 20
2.9446
 40
0.0276
  0
CIRCLE
  8
LAYER1
 62
     7
  6
CONTINUOUS
 10
4.9226
 20
2.8953
 40
0.0176
  0
CIRCLE
  8
LAYER1
 62
     7
  6
CONTINUOUS
 10
4.7752
 20
2.8161
 40
0.0104
  0
CIRCLE
  8
LAYER1
 62
     7
  6
CONTINUOUS
 10
4.7981
 20
2.7861
 40
0.0207
  0
CIRCLE
  8
LAYER1
 62
     7
  6
CONTINUOUS
 10
4.7192
 20
2.6347
 40
0.0159
  0
CIRCLE
  8
LAYER1
 62
     7
  6
CONTINUOUS
 10
4.7497
 20
2.5898
 40
0.0251
  0
CIRCLE
  8
LAYER1
 62
     7
  6
CONTINUOUS
 10
4.2930
 20
3.3364
 40
0.0216
  0
CIRCLE
  8
LAYER1
 62
     7
  6
CONTINUOUS
 10
4.2154
 20
3.3080
 40
0.0159
  0
CIRCLE
  8
LAYER1
 62
     7
  6
CONTINUOUS
 10
4.1553
 20
3.2974
 40
0.0207
  0
CIRCLE
  8
LAYER1
 62
     7
  6
CONTINUOUS
 10
4.1240
 20
3.1515
 40
0.0267
  0
CIRCLE
  8
LAYER1
 62
     7
  6
CONTINUOUS
 10
4.1519
 20
3.1216
 40
0.0142
  0
CIRCLE
  8
LAYER1
 62
     7
  6
CONTINUOUS
 10
4.1197
 20
3.0811
 40
0.0262
  0
CIRCLE
  8
LAYER1
 62
     7
  6
CONTINUOUS
 10
4.1850
 20
3.0742
 40
0.0286
  0
CIRCLE
  8
LAYER1
 62
     7
  6
CONTINUOUS
 10
4.2049
 20
3.1020
 40
0.0056
  0
CIRCLE
  8
LAYER1
 62
     7
  6
CONTINUOUS
 10
4.2333
 20
3.0144
 40
0.0126
  0
ARC
  8
LAYER1
 62
     7
  6
CONTINUOUS
 10
5.0682
 20
2.6455
 40
0.0277
 50
175.3433
 51
-157.1714
  0
ARC
  8
LAYER1
 62
     7
  6
CONTINUOUS
 10
5.0682
 20
2.6455
 40
0.0277
 50
157.1710
 51
175.3432
  0
POLYLINE
  8
LAYER12
 62
     5
 66
     1
  6
CONTINUOUS
  0
VERTEX
  8
LAYER12
 62
     5
  6
CONTINUOUS
 10
4.0589
 20
3.5331
  0
VERTEX
  8
LAYER12
 62
     5
  6
CONTINUOUS
 10
4.0589
 20
3.5331
  0
SEQEND
  8
LAYER12
  0
POLYLINE
  8
LAYER12
 62
     5
 66
     1
  6
CONTINUOUS
  0
VERTEX
  8
LAYER12
 62
     5
  6
CONTINUOUS
 10
4.0589
 20
3.5331
  0
VERTEX
  8
LAYER12
 62
     5
  6
CONTINUOUS
 10
4.0589
 20
3.5331
  0
SEQEND
  8
LAYER12
  0
POLYLINE
  8
LAYER12
 62
     5
 66
     1
  6
CONTINUOUS
  0
VERTEX
  8
LAYER12
 62
     5
  6
CONTINUOUS
 10
4.0589
 20
2.5494
  0
VERTEX
  8
LAYER12
 62
     5
  6
CONTINUOUS
 10
4.0608
 20
2.5494
  0
SEQEND
  8
LAYER12
  0
POLYLINE
  8
LAYER12
 62
     5
 66
     1
  6
CONTINUOUS
  0
VERTEX
  8
LAYER12
 62
     5
  6
CONTINUOUS
 10
4.0608
 20
2.5494
  0
VERTEX
  8
LAYER12
 62
     5
  6
CONTINUOUS
 10
5.0426
 20
2.5494
  0
SEQEND
  8
LAYER12
  0
POLYLINE
  8
LAYER12
 62
     5
 66
     1
  6
CONTINUOUS
  0
VERTEX
  8
LAYER12
 62
     5
  6
CONTINUOUS
 10
4.0589
 20
2.5508
  0
VERTEX
  8
LAYER12
 62
     5
  6
CONTINUOUS
 10
4.0589
 20
2.5508
  0
SEQEND
  8
LAYER12
  0
POLYLINE
  8
LAYER12
 62
     5
 66
     1
  6
CONTINUOUS
  0
VERTEX
  8
LAYER12
 62
     5
  6
CONTINUOUS
 10
4.0589
 20
2.5508
  0
VERTEX
  8
LAYER12
 62
     5
  6
CONTINUOUS
 10
4.0589
 20
2.5494
  0
SEQEND
  8
LAYER12
  0
POLYLINE
  8
LAYER12
 62
     5
 66
     1
  6
CONTINUOUS
  0
VERTEX
  8
LAYER12
 62
     5
  6
CONTINUOUS
 10
4.0589
 20
2.5494
  0
VERTEX
  8
LAYER12
 62
     5
  6
CONTINUOUS
 10
4.0589
 20
2.5508
  0
SEQEND
  8
LAYER12
  0
POLYLINE
  8
LAYER12
 62
     5
 66
     1
  6
CONTINUOUS
  0
VERTEX
  8
LAYER12
 62
     5
  6
CONTINUOUS
 10
4.0608
 20
3.5331
  0
VERTEX
  8
LAYER12
 62
     5
  6
CONTINUOUS
 10
4.0589
 20
3.5331
  0
SEQEND
  8
LAYER12
  0
POLYLINE
  8
LAYER12
 62
     5
 66
     1
  6
CONTINUOUS
  0
VERTEX
  8
LAYER12
 62
     5
  6
CONTINUOUS
 10
4.0589
 20
3.5331
  0
VERTEX
  8
LAYER12
 62
     5
  6
CONTINUOUS
 10
4.0589
 20
3.5331
  0
SEQEND
  8
LAYER12
  0
POLYLINE
  8
LAYER12
 62
     5
 66
     1
  6
CONTINUOUS
  0
VERTEX
  8
LAYER12
 62
     5
  6
CONTINUOUS
 10
5.0426
 20
3.5331
  0
VERTEX
  8
LAYER12
 62
     5
  6
CONTINUOUS
 10
4.0608
 20
3.5331
  0
SEQEND
  8
LAYER12
  0
POLYLINE
  8
LAYER12
 62
     5
 66
     1
  6
CONTINUOUS
  0
VERTEX
  8
LAYER12
 62
     5
  6
CONTINUOUS
 10
4.0589
 20
3.5331
  0
VERTEX
  8
LAYER12
 62
     5
  6
CONTINUOUS
 10
4.0574
 20
3.5331
  0
SEQEND
  8
LAYER12
  0
POLYLINE
  8
LAYER12
 62
     5
 66
     1
  6
CONTINUOUS
  0
VERTEX
  8
LAYER12
 62
     5
  6
CONTINUOUS
 10
4.0574
 20
3.5331
  0
VERTEX
  8
LAYER12
 62
     5
  6
CONTINUOUS
 10
4.0589
 20
3.5331
  0
SEQEND
  8
LAYER12
  0
POLYLINE
  8
LAYER12
 62
     5
 66
     1
  6
CONTINUOUS
  0
VERTEX
  8
LAYER12
 62
     5
  6
CONTINUOUS
 10
4.0589
 20
3.5331
  0
VERTEX
  8
LAYER12
 62
     5
  6
CONTINUOUS
 10
4.0589
 20
3.5317
  0
SEQEND
  8
LAYER12
  0
POLYLINE
  8
LAYER12
 62
     5
 66
     1
  6
CONTINUOUS
  0
VERTEX
  8
LAYER12
 62
     5
  6
CONTINUOUS
 10
4.0589
 20
3.5317
  0
VERTEX
  8
LAYER12
 62
     5
  6
CONTINUOUS
 10
4.0589
 20
2.5508
  0
SEQEND
  8
LAYER12
  0
POLYLINE
  8
LAYER12
 62
     5
 66
     1
  6
CONTINUOUS
  0
VERTEX
  8
LAYER12
 62
     5
  6
CONTINUOUS
 10
4.0589
 20
2.5508
  0
VERTEX
  8
LAYER12
 62
     5
  6
CONTINUOUS
 10
4.0589
 20
2.5508
  0
SEQEND
  8
LAYER12
  0
POLYLINE
  8
LAYER12
 62
     5
 66
     1
  6
CONTINUOUS
  0
VERTEX
  8
LAYER12
 62
     5
  6
CONTINUOUS
 10
5.0426
 20
2.5508
  0
VERTEX
  8
LAYER12
 62
     5
  6
CONTINUOUS
 10
5.0426
 20
3.5317
  0
SEQEND
  8
LAYER12
  0
POLYLINE
  8
LAYER12
 62
     5
 66
     1
  6
CONTINUOUS
  0
VERTEX
  8
LAYER12
 62
     5
  6
CONTINUOUS
 10
5.0426
 20
3.5317
  0
VERTEX
  8
LAYER12
 62
     5
  6
CONTINUOUS
 10
5.0426
 20
3.5331
  0
SEQEND
  8
LAYER12
  0
POLYLINE
  8
LAYER12
 62
     5
 66
     1
  6
CONTINUOUS
  0
VERTEX
  8
LAYER12
 62
     5
  6
CONTINUOUS
 10
5.0426
 20
3.5331
  0
VERTEX
  8
LAYER12
 62
     5
  6
CONTINUOUS
 10
5.0426
 20
3.5331
  0
SEQEND
  8
LAYER12
  0
ENDSEC
  0
EOF
