  0
SECTION
  2
HEADER
  9
$ACADVER
  1
AC1004
  9
$EXTMIN
 10
10.0386
 20
2.5484
  9
$EXTMAX
 10
11.0248
 20
3.5351
  9
$LIMMIN
 10
10.0386
 20
2.5484
  9
$LIMMAX
 10
11.0248
 20
3.5351
  9
$INSBASE
 10
0.0
 20
0.0
  9
$VIEWCTR
 10
7.21903
 20
4.5
  9
$VIEWSIZE
 40
9.0
  9
$SNAPMODE
 70
     0
  9
$SNAPUNIT
 10
1.0
 20
1.0
  9
$SNAPBASE
 10
0.0
 20
0.0
  9
$SNAPANG
 50
0.0
  9
$SNAPSTYLE
 70
     0
  9
$SNAPISOPAIR
 70
     0
  9
$GRIDMODE
 70
     0
  9
$GRIDUNIT
 10
0.0
 20
0.0
  9
$ORTHOMODE
 70
     0
  9
$REGENMODE
 70
     1
  9
$FILLMODE
 70
     1
  9
$QTEXTMODE
 70
     0
  9
$DRAGMODE
 70
     2
  9
$LTSCALE
 40
1.0
  9
$OSMODE
 70
     0
  9
$ATTMODE
 70
     1
  9
$TEXTSIZE
 40
0.2
  9
$TRACEWID
 40
0.05
  9
$TEXTSTYLE
  7
STANDARD
  9
$CLAYER
  8
0
  9
$CELTYPE
  6
BYLAYER
  9
$CECOLOR
 62
   256
  9
$DIMSCALE
 40
1.0
  9
$DIMASZ
 40
0.18
  9
$DIMEXO
 40
0.0625
  9
$DIMDLI
 40
0.38
  9
$DIMRND
 40
0.0
  9
$DIMDLE
 40
0.0
  9
$DIMEXE
 40
0.18
  9
$DIMTP
 40
0.0
  9
$DIMTM
 40
0.0
  9
$DIMTXT
 40
0.18
  9
$DIMCEN
 40
0.09
  9
$DIMTSZ
 40
0.0
  9
$DIMTOL
 70
     0
  9
$DIMLIM
 70
     0
  9
$DIMTIH
 70
     1
  9
$DIMTOH
 70
     1
  9
$DIMSE1
 70
     0
  9
$DIMSE2
 70
     0
  9
$DIMTAD
 70
     0
  9
$DIMZIN
 70
     0
  9
$DIMBLK
  1

  9
$DIMASO
 70
     1
  9
$DIMSHO
 70
     0
  9
$DIMPOST
  1

  9
$DIMAPOST
  1

  9
$DIMALT
 70
     0
  9
$DIMALTD
 70
     2
  9
$DIMALTF
 40
25.4
  9
$DIMLFAC
 40
1.0
  9
$LUNITS
 70
     2
  9
$LUPREC
 70
     4
  9
$AXISMODE
 70
     0
  9
$AXISUNIT
 10
0.0
 20
0.0
  9
$SKETCHINC
 40
0.1
  9
$FILLETRAD
 40
0.0
  9
$AUNITS
 70
     0
  9
$AUPREC
 70
     0
  9
$MENU
  1
acad
  9
$ELEVATION
 40
0.0
  9
$THICKNESS
 40
0.0
  9
$VIEWDIR
 10
0.0
 20
0.0
 30
1.0
  9
$LIMCHECK
 70
     0
  9
$BLIPMODE
 70
     1
  9
$CHAMFERA
 40
0.0
  9
$CHAMFERB
 40
0.0
  9
$FASTZOOM
 70
     1
  9
$SKPOLY
 70
     0
  9
$TDCREATE
 40
2447222.5666886573
  9
$TDUPDATE
 40
2447222.5666886573
  9
$TDINDWG
 40
0.0000000000
  9
$TDUSRTIMER
 40
0.0000000000
  9
$USRTIMER
 70
     1
  9
$ANGBASE
 50
0.0
  9
$ANGDIR
 70
     0
  9
$PDMODE
 70
     0
  9
$PDSIZE
 40
0.0
  9
$PLINEWID
 40
0.0
  9
$COORDS
 70
     0
  9
$SPLFRAME
 70
     0
  9
$SPLINESEGS
 70
     8
  9
$ATTDIA
 70
     0
  9
$ATTREQ
 70
     1
  9
$USERI1
 70
     0
  9
$USERI2
 70
     0
  9
$USERI3
 70
     0
  9
$USERI4
 70
     0
  9
$USERI5
 70
     0
  9
$USERR1
 40
0.0
  9
$USERR2
 40
0.0
  9
$USERR3
 40
0.0
  9
$USERR4
 40
0.0
  9
$USERR5
 40
0.0
  0
ENDSEC
  0
SECTION
  2
TABLES
  0
TABLE
  2
LTYPE
 70
     13
  0
LTYPE
  2
CONTINUOUS
 70
    64
  3
Solid line
 72
    65
 73
     0
 40
0.0
  0
LTYPE
  2
DASHED
 70
    64
  3
__ __ __ __ __ __ __ __ __ __ __ __ __ __ __
 72
    65
 73
     2
 40
0.75
 49
0.5
 49
-0.25
  0
LTYPE
  2
HIDDEN
 70
    64
  3
_ _ _ _ _ _ _ _ _ _ _ _ _ _ _ _ _ _ _ _ _ _ _
 72
    65
 73
     2
 40
0.375
 49
0.25
 49
-0.125
  0
LTYPE
  2
CENTER
 70
    64
  3
____ _ ____ _ ____ _ ____ _ ____ _ ____ _ ____
 72
    65
 73
     4
 40
2.0
 49
1.25
 49
-0.25
 49
0.25
 49
-0.25
  0
LTYPE
  2
PHANTOM
 70
    64
  3
_____ _ _ _____ _ _ _____ _ _ _____ _ _ ____
 72
    65
 73
     6
 40
2.5
 49
1.25
 49
-0.25
 49
0.25
 49
-0.25
 49
0.25
 49
-0.25
  0
LTYPE
  2
DOT
 70
    64
  3
...............................................
 72
    65
 73
     2
 40
0.25
 49
0.0
 49
-0.25
  0
LTYPE
  2
DASHDOT
 70
    64
  3
__ . __ . __ . __ . __ . __ . __ . __ . __ . __
 72
    65
 73
     4
 40
1.0
 49
0.5
 49
-0.25
 49
0.0
 49
-0.25
  0
LTYPE
  2
BORDER
 70
    64
  3
__ __ . __ __ . __ __ . __ __ . __ __ . __ __
 72
    65
 73
     6
 40
1.75
 49
0.5
 49
-0.25
 49
0.5
 49
-0.25
 49
0.0
 49
-0.25
  0
LTYPE
  2
DIVIDE
 70
    64
  3
__ . . __ . . __ . . __ . . __ . . __ . . __
 72
    65
 73
     6
 40
1.25
 49
0.5
 49
-0.25
 49
0.0
 49
-0.25
 49
0.0
 49
-0.25
  0
LTYPE
  2
DCTYPE1
 70
    64
  3
__ . . __ . . __ . . __ . . __ . . __ . . __
 72
    65
 73
     8
 40
2.5
 49
0.5
 49
-0.25
 49
0.125
 49
-0.25
 49
0.25
 49
-0.25
 49
0.125
 49
-0.25
  0
LTYPE
  2
DCTYPE2
 70
    64
  3
__ . . __ . . __ . . __ . . __ . . __ . . __
 72
    65
 73
     6
 40
2.05
 49
1.0
 49
-0.3
 49
0.15
 49
-0.15
 49
0.15
 49
-0.3
  0
LTYPE
  2
DCTYPE3
 70
    64
  3
__ . . __ . . __ . . __ . . __ . . __ . . __
 72
    65
 73
     6
 40
2.5
 49
0.8
 49
-0.2
 49
0.8
 49
-0.2
 49
0.3
 49
-0.2
  0
LTYPE
  2
DCTYPE4
 70
    64
  3
__ . . __ . . __ . . __ . . __ . . __ . . __
 72
    65
 73
     10
 40
3.97
 49
1.75
 49
-0.3
 49
0.3
 49
-0.3
 49
0.06
 49
-0.3
 49
0.06
 49
-0.3
 49
0.3
 49
-0.3
  0
ENDTAB
  0
TABLE
  2
LAYER
 70
    153
  0
LAYER
  2
LAYER1
 70
 64
 62
     7
  6
CONTINUOUS
  0
LAYER
  2
LAYER10
 70
 64
 62
     1
  6
CONTINUOUS
  0
LAYER
  2
LAYER12
 70
 64
 62
     5
  6
CONTINUOUS
  0
ENDTAB
  0
ENDSEC
  0
SECTION
  2
BLOCKS
  0
ENDSEC
  0
SECTION
  2
ENTITIES
  0
CIRCLE
  8
LAYER1
 62
     7
  6
CONTINUOUS
 10
10.7957
 20
2.5705
 40
0.0181
  0
CIRCLE
  8
LAYER1
 62
     7
  6
CONTINUOUS
 10
10.6832
 20
2.6036
 40
0.0155
  0
CIRCLE
  8
LAYER1
 62
     7
  6
CONTINUOUS
 10
10.7990
 20
2.8904
 40
0.0112
  0
CIRCLE
  8
LAYER1
 62
     7
  6
CONTINUOUS
 10
10.8434
 20
2.7906
 40
0.0104
  0
CIRCLE
  8
LAYER1
 62
     7
  6
CONTINUOUS
 10
10.8793
 20
2.7459
 40
0.0153
  0
CIRCLE
  8
LAYER1
 62
     7
  6
CONTINUOUS
 10
10.8801
 20
2.7006
 40
0.0303
  0
CIRCLE
  8
LAYER1
 62
     7
  6
CONTINUOUS
 10
10.9392
 20
2.7770
 40
0.0126
  0
CIRCLE
  8
LAYER1
 62
     7
  6
CONTINUOUS
 10
10.9091
 20
2.6181
 40
0.0203
  0
CIRCLE
  8
LAYER1
 62
     7
  6
CONTINUOUS
 10
10.9594
 20
2.6189
 40
0.0091
  0
CIRCLE
  8
LAYER1
 62
     7
  6
CONTINUOUS
 10
10.1009
 20
2.9746
 40
0.0453
  0
CIRCLE
  8
LAYER1
 62
     7
  6
CONTINUOUS
 10
10.1525
 20
3.0509
 40
0.0071
  0
CIRCLE
  8
LAYER1
 62
     7
  6
CONTINUOUS
 10
10.0993
 20
3.0727
 40
0.0107
  0
CIRCLE
  8
LAYER1
 62
     7
  6
CONTINUOUS
 10
10.0786
 20
3.1101
 40
0.0091
  0
CIRCLE
  8
LAYER1
 62
     7
  6
CONTINUOUS
 10
10.1161
 20
3.1207
 40
0.0101
  0
CIRCLE
  8
LAYER1
 62
     7
  6
CONTINUOUS
 10
10.1331
 20
3.1588
 40
0.0080
  0
CIRCLE
  8
LAYER1
 62
     7
  6
CONTINUOUS
 10
10.1546
 20
3.2320
 40
0.0050
  0
CIRCLE
  8
LAYER1
 62
     7
  6
CONTINUOUS
 10
10.1063
 20
3.2589
 40
0.0107
  0
CIRCLE
  8
LAYER1
 62
     7
  6
CONTINUOUS
 10
10.0759
 20
3.2735
 40
0.0147
  0
CIRCLE
  8
LAYER1
 62
     7
  6
CONTINUOUS
 10
10.0910
 20
3.4297
 40
0.0183
  0
CIRCLE
  8
LAYER1
 62
     7
  6
CONTINUOUS
 10
10.2821
 20
3.4328
 40
0.0126
  0
CIRCLE
  8
LAYER1
 62
     7
  6
CONTINUOUS
 10
10.3590
 20
3.3410
 40
0.0071
  0
CIRCLE
  8
LAYER1
 62
     7
  6
CONTINUOUS
 10
10.3257
 20
3.2273
 40
0.0135
  0
CIRCLE
  8
LAYER1
 62
     7
  6
CONTINUOUS
 10
10.3937
 20
3.2209
 40
0.0104
  0
CIRCLE
  8
LAYER1
 62
     7
  6
CONTINUOUS
 10
10.4774
 20
3.0260
 40
0.0311
  0
CIRCLE
  8
LAYER1
 62
     7
  6
CONTINUOUS
 10
10.5208
 20
3.2909
 40
0.0248
  0
CIRCLE
  8
LAYER1
 62
     7
  6
CONTINUOUS
 10
10.5766
 20
3.2616
 40
0.0126
  0
CIRCLE
  8
LAYER1
 62
     7
  6
CONTINUOUS
 10
10.6204
 20
3.1994
 40
0.0169
  0
CIRCLE
  8
LAYER1
 62
     7
  6
CONTINUOUS
 10
10.6862
 20
3.1728
 40
0.0128
  0
CIRCLE
  8
LAYER1
 62
     7
  6
CONTINUOUS
 10
10.7307
 20
3.2213
 40
0.0075
  0
CIRCLE
  8
LAYER1
 62
     7
  6
CONTINUOUS
 10
10.8004
 20
3.2652
 40
0.0080
  0
CIRCLE
  8
LAYER1
 62
     7
  6
CONTINUOUS
 10
10.8699
 20
3.3242
 40
0.0153
  0
CIRCLE
  8
LAYER1
 62
     7
  6
CONTINUOUS
 10
10.6971
 20
3.2786
 40
0.0196
  0
CIRCLE
  8
LAYER1
 62
     7
  6
CONTINUOUS
 10
10.7447
 20
3.2895
 40
0.0080
  0
CIRCLE
  8
LAYER1
 62
     7
  6
CONTINUOUS
 10
10.7166
 20
3.3167
 40
0.0071
  0
CIRCLE
  8
LAYER1
 62
     7
  6
CONTINUOUS
 10
10.5829
 20
3.4956
 40
0.0225
  0
CIRCLE
  8
LAYER1
 62
     7
  6
CONTINUOUS
 10
10.7387
 20
3.3497
 40
0.0080
  0
CIRCLE
  8
LAYER1
 62
     7
  6
CONTINUOUS
 10
10.7459
 20
3.3725
 40
0.0159
  0
CIRCLE
  8
LAYER1
 62
     7
  6
CONTINUOUS
 10
10.8001
 20
3.4363
 40
0.0135
  0
CIRCLE
  8
LAYER1
 62
     7
  6
CONTINUOUS
 10
10.8421
 20
3.4873
 40
0.0080
  0
CIRCLE
  8
LAYER1
 62
     7
  6
CONTINUOUS
 10
10.3766
 20
3.4973
 40
0.0142
  0
CIRCLE
  8
LAYER1
 62
     7
  6
CONTINUOUS
 10
10.4370
 20
3.4957
 40
0.0203
  0
POLYLINE
  8
LAYER1
 62
     7
 66
     1
  6
CONTINUOUS
  0
VERTEX
  8
LAYER1
 62
     7
  6
CONTINUOUS
 10
10.0386
 20
3.5312
  0
VERTEX
  8
LAYER1
 62
     7
  6
CONTINUOUS
 10
10.0386
 20
3.5312
  0
VERTEX
  8
LAYER1
 62
     7
  6
CONTINUOUS
 10
10.0386
 20
3.5312
  0
VERTEX
  8
LAYER1
 62
     7
  6
CONTINUOUS
 10
10.0386
 20
3.5312
  0
VERTEX
  8
LAYER1
 62
     7
  6
CONTINUOUS
 10
10.0386
 20
3.5312
  0
VERTEX
  8
LAYER1
 62
     7
  6
CONTINUOUS
 10
10.0386
 20
3.5312
  0
VERTEX
  8
LAYER1
 62
     7
  6
CONTINUOUS
 10
10.0386
 20
3.5312
  0
VERTEX
  8
LAYER1
 62
     7
  6
CONTINUOUS
 10
10.0386
 20
3.5312
  0
VERTEX
  8
LAYER1
 62
     7
  6
CONTINUOUS
 10
10.0386
 20
3.5312
  0
VERTEX
  8
LAYER1
 62
     7
  6
CONTINUOUS
 10
10.0386
 20
3.5312
  0
VERTEX
  8
LAYER1
 62
     7
  6
CONTINUOUS
 10
10.0386
 20
3.5312
  0
VERTEX
  8
LAYER1
 62
     7
  6
CONTINUOUS
 10
10.0386
 20
3.5312
  0
VERTEX
  8
LAYER1
 62
     7
  6
CONTINUOUS
 10
10.0386
 20
3.5312
  0
VERTEX
  8
LAYER1
 62
     7
  6
CONTINUOUS
 10
10.0386
 20
3.5312
  0
VERTEX
  8
LAYER1
 62
     7
  6
CONTINUOUS
 10
10.0386
 20
3.5312
  0
VERTEX
  8
LAYER1
 62
     7
  6
CONTINUOUS
 10
10.0386
 20
3.5312
  0
VERTEX
  8
LAYER1
 62
     7
  6
CONTINUOUS
 10
10.0386
 20
3.5312
  0
VERTEX
  8
LAYER1
 62
     7
  6
CONTINUOUS
 10
10.0386
 20
3.5312
  0
VERTEX
  8
LAYER1
 62
     7
  6
CONTINUOUS
 10
10.0386
 20
3.5312
  0
VERTEX
  8
LAYER1
 62
     7
  6
CONTINUOUS
 10
10.0386
 20
3.5312
  0
VERTEX
  8
LAYER1
 62
     7
  6
CONTINUOUS
 10
10.0386
 20
3.5312
  0
VERTEX
  8
LAYER1
 62
     7
  6
CONTINUOUS
 10
10.0386
 20
3.5312
  0
VERTEX
  8
LAYER1
 62
     7
  6
CONTINUOUS
 10
10.0386
 20
3.5312
  0
VERTEX
  8
LAYER1
 62
     7
  6
CONTINUOUS
 10
10.0386
 20
3.5312
  0
VERTEX
  8
LAYER1
 62
     7
  6
CONTINUOUS
 10
10.0386
 20
3.5312
  0
SEQEND
  8
LAYER1
  0
POLYLINE
  8
LAYER1
 62
     7
 66
     1
  6
CONTINUOUS
  0
VERTEX
  8
LAYER1
 62
     7
  6
CONTINUOUS
 10
10.0386
 20
3.5312
  0
VERTEX
  8
LAYER1
 62
     7
  6
CONTINUOUS
 10
10.0386
 20
3.5312
  0
VERTEX
  8
LAYER1
 62
     7
  6
CONTINUOUS
 10
10.0386
 20
3.5312
  0
VERTEX
  8
LAYER1
 62
     7
  6
CONTINUOUS
 10
10.0386
 20
3.5312
  0
VERTEX
  8
LAYER1
 62
     7
  6
CONTINUOUS
 10
10.0386
 20
3.5312
  0
VERTEX
  8
LAYER1
 62
     7
  6
CONTINUOUS
 10
10.0386
 20
3.5312
  0
VERTEX
  8
LAYER1
 62
     7
  6
CONTINUOUS
 10
10.0386
 20
3.5312
  0
VERTEX
  8
LAYER1
 62
     7
  6
CONTINUOUS
 10
10.0386
 20
3.5312
  0
VERTEX
  8
LAYER1
 62
     7
  6
CONTINUOUS
 10
10.0386
 20
3.5312
  0
VERTEX
  8
LAYER1
 62
     7
  6
CONTINUOUS
 10
10.0386
 20
3.5312
  0
VERTEX
  8
LAYER1
 62
     7
  6
CONTINUOUS
 10
10.0386
 20
3.5312
  0
VERTEX
  8
LAYER1
 62
     7
  6
CONTINUOUS
 10
10.0386
 20
3.5312
  0
VERTEX
  8
LAYER1
 62
     7
  6
CONTINUOUS
 10
10.0386
 20
3.5312
  0
VERTEX
  8
LAYER1
 62
     7
  6
CONTINUOUS
 10
10.0386
 20
3.5312
  0
VERTEX
  8
LAYER1
 62
     7
  6
CONTINUOUS
 10
10.0386
 20
3.5312
  0
VERTEX
  8
LAYER1
 62
     7
  6
CONTINUOUS
 10
10.0386
 20
3.5312
  0
VERTEX
  8
LAYER1
 62
     7
  6
CONTINUOUS
 10
10.0386
 20
3.5312
  0
VERTEX
  8
LAYER1
 62
     7
  6
CONTINUOUS
 10
10.0386
 20
3.5312
  0
VERTEX
  8
LAYER1
 62
     7
  6
CONTINUOUS
 10
10.0386
 20
3.5312
  0
VERTEX
  8
LAYER1
 62
     7
  6
CONTINUOUS
 10
10.0386
 20
3.5312
  0
VERTEX
  8
LAYER1
 62
     7
  6
CONTINUOUS
 10
10.0386
 20
3.5312
  0
VERTEX
  8
LAYER1
 62
     7
  6
CONTINUOUS
 10
10.0386
 20
3.5312
  0
VERTEX
  8
LAYER1
 62
     7
  6
CONTINUOUS
 10
10.0386
 20
3.5312
  0
VERTEX
  8
LAYER1
 62
     7
  6
CONTINUOUS
 10
10.0386
 20
3.5312
  0
VERTEX
  8
LAYER1
 62
     7
  6
CONTINUOUS
 10
10.0386
 20
3.5312
  0
SEQEND
  8
LAYER1
  0
POLYLINE
  8
LAYER1
 62
     7
 66
     1
  6
CONTINUOUS
  0
VERTEX
  8
LAYER1
 62
     7
  6
CONTINUOUS
 10
10.0386
 20
3.5312
  0
VERTEX
  8
LAYER1
 62
     7
  6
CONTINUOUS
 10
10.0386
 20
3.5312
  0
VERTEX
  8
LAYER1
 62
     7
  6
CONTINUOUS
 10
10.0386
 20
3.5313
  0
VERTEX
  8
LAYER1
 62
     7
  6
CONTINUOUS
 10
10.0387
 20
3.5313
  0
VERTEX
  8
LAYER1
 62
     7
  6
CONTINUOUS
 10
10.0387
 20
3.5314
  0
VERTEX
  8
LAYER1
 62
     7
  6
CONTINUOUS
 10
10.0387
 20
3.5314
  0
VERTEX
  8
LAYER1
 62
     7
  6
CONTINUOUS
 10
10.0387
 20
3.5315
  0
VERTEX
  8
LAYER1
 62
     7
  6
CONTINUOUS
 10
10.0387
 20
3.5315
  0
VERTEX
  8
LAYER1
 62
     7
  6
CONTINUOUS
 10
10.0388
 20
3.5315
  0
VERTEX
  8
LAYER1
 62
     7
  6
CONTINUOUS
 10
10.0388
 20
3.5316
  0
VERTEX
  8
LAYER1
 62
     7
  6
CONTINUOUS
 10
10.0388
 20
3.5316
  0
VERTEX
  8
LAYER1
 62
     7
  6
CONTINUOUS
 10
10.0388
 20
3.5316
  0
VERTEX
  8
LAYER1
 62
     7
  6
CONTINUOUS
 10
10.0388
 20
3.5317
  0
VERTEX
  8
LAYER1
 62
     7
  6
CONTINUOUS
 10
10.0390
 20
3.5319
  0
VERTEX
  8
LAYER1
 62
     7
  6
CONTINUOUS
 10
10.0391
 20
3.5321
  0
VERTEX
  8
LAYER1
 62
     7
  6
CONTINUOUS
 10
10.0392
 20
3.5323
  0
VERTEX
  8
LAYER1
 62
     7
  6
CONTINUOUS
 10
10.0392
 20
3.5323
  0
VERTEX
  8
LAYER1
 62
     7
  6
CONTINUOUS
 10
10.0392
 20
3.5324
  0
VERTEX
  8
LAYER1
 62
     7
  6
CONTINUOUS
 10
10.0392
 20
3.5323
  0
VERTEX
  8
LAYER1
 62
     7
  6
CONTINUOUS
 10
10.0392
 20
3.5323
  0
VERTEX
  8
LAYER1
 62
     7
  6
CONTINUOUS
 10
10.0391
 20
3.5322
  0
VERTEX
  8
LAYER1
 62
     7
  6
CONTINUOUS
 10
10.0391
 20
3.5321
  0
VERTEX
  8
LAYER1
 62
     7
  6
CONTINUOUS
 10
10.0390
 20
3.5320
  0
VERTEX
  8
LAYER1
 62
     7
  6
CONTINUOUS
 10
10.0389
 20
3.5318
  0
VERTEX
  8
LAYER1
 62
     7
  6
CONTINUOUS
 10
10.0388
 20
3.5317
  0
SEQEND
  8
LAYER1
  0
ARC
  8
LAYER1
 62
     7
  6
CONTINUOUS
 10
10.6980
 20
3.5277
 40
0.0112
 50
141.6789
 51
-115.6577
  0
POLYLINE
  8
LAYER1
 62
     7
 66
     1
  6
CONTINUOUS
  0
VERTEX
  8
LAYER1
 62
     7
  6
CONTINUOUS
 10
10.0405
 20
3.5346
  0
VERTEX
  8
LAYER1
 62
     7
  6
CONTINUOUS
 10
10.0405
 20
3.5346
  0
VERTEX
  8
LAYER1
 62
     7
  6
CONTINUOUS
 10
10.0405
 20
3.5346
  0
VERTEX
  8
LAYER1
 62
     7
  6
CONTINUOUS
 10
10.0405
 20
3.5346
  0
VERTEX
  8
LAYER1
 62
     7
  6
CONTINUOUS
 10
10.0405
 20
3.5346
  0
VERTEX
  8
LAYER1
 62
     7
  6
CONTINUOUS
 10
10.0405
 20
3.5346
  0
VERTEX
  8
LAYER1
 62
     7
  6
CONTINUOUS
 10
10.0405
 20
3.5346
  0
VERTEX
  8
LAYER1
 62
     7
  6
CONTINUOUS
 10
10.0405
 20
3.5346
  0
VERTEX
  8
LAYER1
 62
     7
  6
CONTINUOUS
 10
10.0405
 20
3.5346
  0
VERTEX
  8
LAYER1
 62
     7
  6
CONTINUOUS
 10
10.0405
 20
3.5346
  0
VERTEX
  8
LAYER1
 62
     7
  6
CONTINUOUS
 10
10.0405
 20
3.5346
  0
VERTEX
  8
LAYER1
 62
     7
  6
CONTINUOUS
 10
10.0405
 20
3.5346
  0
VERTEX
  8
LAYER1
 62
     7
  6
CONTINUOUS
 10
10.0405
 20
3.5346
  0
VERTEX
  8
LAYER1
 62
     7
  6
CONTINUOUS
 10
10.0405
 20
3.5346
  0
VERTEX
  8
LAYER1
 62
     7
  6
CONTINUOUS
 10
10.0405
 20
3.5346
  0
VERTEX
  8
LAYER1
 62
     7
  6
CONTINUOUS
 10
10.0405
 20
3.5346
  0
VERTEX
  8
LAYER1
 62
     7
  6
CONTINUOUS
 10
10.0405
 20
3.5346
  0
VERTEX
  8
LAYER1
 62
     7
  6
CONTINUOUS
 10
10.0405
 20
3.5346
  0
VERTEX
  8
LAYER1
 62
     7
  6
CONTINUOUS
 10
10.0405
 20
3.5346
  0
VERTEX
  8
LAYER1
 62
     7
  6
CONTINUOUS
 10
10.0405
 20
3.5346
  0
VERTEX
  8
LAYER1
 62
     7
  6
CONTINUOUS
 10
10.0405
 20
3.5346
  0
VERTEX
  8
LAYER1
 62
     7
  6
CONTINUOUS
 10
10.0405
 20
3.5346
  0
VERTEX
  8
LAYER1
 62
     7
  6
CONTINUOUS
 10
10.0405
 20
3.5346
  0
VERTEX
  8
LAYER1
 62
     7
  6
CONTINUOUS
 10
10.0405
 20
3.5346
  0
VERTEX
  8
LAYER1
 62
     7
  6
CONTINUOUS
 10
10.0405
 20
3.5346
  0
SEQEND
  8
LAYER1
  0
ARC
  8
LAYER1
 62
     7
  6
CONTINUOUS
 10
11.0316
 20
2.8163
 40
0.0176
 50
126.0214
 51
-126.0107
  0
ARC
  8
LAYER1
 62
     7
  6
CONTINUOUS
 10
10.9330
 20
2.5405
 40
0.0169
 50
32.4708
 51
64.3881
  0
POLYLINE
  8
LAYER1
 62
     7
 66
     1
  6
CONTINUOUS
  0
VERTEX
  8
LAYER1
 62
     7
  6
CONTINUOUS
 10
10.0388
 20
3.5317
  0
VERTEX
  8
LAYER1
 62
     7
  6
CONTINUOUS
 10
10.0389
 20
3.5318
  0
VERTEX
  8
LAYER1
 62
     7
  6
CONTINUOUS
 10
10.0390
 20
3.5320
  0
VERTEX
  8
LAYER1
 62
     7
  6
CONTINUOUS
 10
10.0391
 20
3.5322
  0
VERTEX
  8
LAYER1
 62
     7
  6
CONTINUOUS
 10
10.0392
 20
3.5323
  0
VERTEX
  8
LAYER1
 62
     7
  6
CONTINUOUS
 10
10.0393
 20
3.5325
  0
VERTEX
  8
LAYER1
 62
     7
  6
CONTINUOUS
 10
10.0394
 20
3.5326
  0
VERTEX
  8
LAYER1
 62
     7
  6
CONTINUOUS
 10
10.0394
 20
3.5327
  0
VERTEX
  8
LAYER1
 62
     7
  6
CONTINUOUS
 10
10.0395
 20
3.5329
  0
VERTEX
  8
LAYER1
 62
     7
  6
CONTINUOUS
 10
10.0396
 20
3.5330
  0
VERTEX
  8
LAYER1
 62
     7
  6
CONTINUOUS
 10
10.0396
 20
3.5331
  0
VERTEX
  8
LAYER1
 62
     7
  6
CONTINUOUS
 10
10.0397
 20
3.5332
  0
VERTEX
  8
LAYER1
 62
     7
  6
CONTINUOUS
 10
10.0398
 20
3.5333
  0
VERTEX
  8
LAYER1
 62
     7
  6
CONTINUOUS
 10
10.0399
 20
3.5335
  0
VERTEX
  8
LAYER1
 62
     7
  6
CONTINUOUS
 10
10.0400
 20
3.5337
  0
VERTEX
  8
LAYER1
 62
     7
  6
CONTINUOUS
 10
10.0400
 20
3.5338
  0
VERTEX
  8
LAYER1
 62
     7
  6
CONTINUOUS
 10
10.0400
 20
3.5339
  0
VERTEX
  8
LAYER1
 62
     7
  6
CONTINUOUS
 10
10.0401
 20
3.5339
  0
VERTEX
  8
LAYER1
 62
     7
  6
CONTINUOUS
 10
10.0401
 20
3.5339
  0
VERTEX
  8
LAYER1
 62
     7
  6
CONTINUOUS
 10
10.0400
 20
3.5338
  0
VERTEX
  8
LAYER1
 62
     7
  6
CONTINUOUS
 10
10.0400
 20
3.5337
  0
VERTEX
  8
LAYER1
 62
     7
  6
CONTINUOUS
 10
10.0399
 20
3.5337
  0
VERTEX
  8
LAYER1
 62
     7
  6
CONTINUOUS
 10
10.0399
 20
3.5336
  0
VERTEX
  8
LAYER1
 62
     7
  6
CONTINUOUS
 10
10.0398
 20
3.5335
  0
VERTEX
  8
LAYER1
 62
     7
  6
CONTINUOUS
 10
10.0398
 20
3.5333
  0
SEQEND
  8
LAYER1
  0
POLYLINE
  8
LAYER1
 62
     7
 66
     1
  6
CONTINUOUS
  0
VERTEX
  8
LAYER1
 62
     7
  6
CONTINUOUS
 10
10.0398
 20
3.5333
  0
VERTEX
  8
LAYER1
 62
     7
  6
CONTINUOUS
 10
10.0398
 20
3.5333
  0
VERTEX
  8
LAYER1
 62
     7
  6
CONTINUOUS
 10
10.0398
 20
3.5333
  0
VERTEX
  8
LAYER1
 62
     7
  6
CONTINUOUS
 10
10.0398
 20
3.5333
  0
VERTEX
  8
LAYER1
 62
     7
  6
CONTINUOUS
 10
10.0398
 20
3.5333
  0
VERTEX
  8
LAYER1
 62
     7
  6
CONTINUOUS
 10
10.0398
 20
3.5333
  0
VERTEX
  8
LAYER1
 62
     7
  6
CONTINUOUS
 10
10.0398
 20
3.5333
  0
VERTEX
  8
LAYER1
 62
     7
  6
CONTINUOUS
 10
10.0398
 20
3.5333
  0
VERTEX
  8
LAYER1
 62
     7
  6
CONTINUOUS
 10
10.0398
 20
3.5333
  0
VERTEX
  8
LAYER1
 62
     7
  6
CONTINUOUS
 10
10.0398
 20
3.5333
  0
VERTEX
  8
LAYER1
 62
     7
  6
CONTINUOUS
 10
10.0398
 20
3.5333
  0
VERTEX
  8
LAYER1
 62
     7
  6
CONTINUOUS
 10
10.0398
 20
3.5333
  0
VERTEX
  8
LAYER1
 62
     7
  6
CONTINUOUS
 10
10.0398
 20
3.5333
  0
VERTEX
  8
LAYER1
 62
     7
  6
CONTINUOUS
 10
10.0398
 20
3.5333
  0
VERTEX
  8
LAYER1
 62
     7
  6
CONTINUOUS
 10
10.0398
 20
3.5333
  0
VERTEX
  8
LAYER1
 62
     7
  6
CONTINUOUS
 10
10.0398
 20
3.5333
  0
VERTEX
  8
LAYER1
 62
     7
  6
CONTINUOUS
 10
10.0398
 20
3.5333
  0
VERTEX
  8
LAYER1
 62
     7
  6
CONTINUOUS
 10
10.0398
 20
3.5333
  0
VERTEX
  8
LAYER1
 62
     7
  6
CONTINUOUS
 10
10.0398
 20
3.5333
  0
VERTEX
  8
LAYER1
 62
     7
  6
CONTINUOUS
 10
10.0398
 20
3.5333
  0
VERTEX
  8
LAYER1
 62
     7
  6
CONTINUOUS
 10
10.0398
 20
3.5333
  0
VERTEX
  8
LAYER1
 62
     7
  6
CONTINUOUS
 10
10.0398
 20
3.5333
  0
VERTEX
  8
LAYER1
 62
     7
  6
CONTINUOUS
 10
10.0398
 20
3.5333
  0
VERTEX
  8
LAYER1
 62
     7
  6
CONTINUOUS
 10
10.0398
 20
3.5333
  0
VERTEX
  8
LAYER1
 62
     7
  6
CONTINUOUS
 10
10.0398
 20
3.5333
  0
SEQEND
  8
LAYER1
  0
POLYLINE
  8
LAYER1
 62
     7
 66
     1
  6
CONTINUOUS
  0
VERTEX
  8
LAYER1
 62
     7
  6
CONTINUOUS
 10
10.0398
 20
3.5333
  0
VERTEX
  8
LAYER1
 62
     7
  6
CONTINUOUS
 10
10.0398
 20
3.5333
  0
VERTEX
  8
LAYER1
 62
     7
  6
CONTINUOUS
 10
10.0398
 20
3.5333
  0
VERTEX
  8
LAYER1
 62
     7
  6
CONTINUOUS
 10
10.0398
 20
3.5333
  0
VERTEX
  8
LAYER1
 62
     7
  6
CONTINUOUS
 10
10.0398
 20
3.5333
  0
VERTEX
  8
LAYER1
 62
     7
  6
CONTINUOUS
 10
10.0398
 20
3.5333
  0
VERTEX
  8
LAYER1
 62
     7
  6
CONTINUOUS
 10
10.0398
 20
3.5333
  0
VERTEX
  8
LAYER1
 62
     7
  6
CONTINUOUS
 10
10.0398
 20
3.5333
  0
VERTEX
  8
LAYER1
 62
     7
  6
CONTINUOUS
 10
10.0398
 20
3.5333
  0
VERTEX
  8
LAYER1
 62
     7
  6
CONTINUOUS
 10
10.0398
 20
3.5333
  0
VERTEX
  8
LAYER1
 62
     7
  6
CONTINUOUS
 10
10.0398
 20
3.5333
  0
VERTEX
  8
LAYER1
 62
     7
  6
CONTINUOUS
 10
10.0398
 20
3.5333
  0
VERTEX
  8
LAYER1
 62
     7
  6
CONTINUOUS
 10
10.0398
 20
3.5333
  0
VERTEX
  8
LAYER1
 62
     7
  6
CONTINUOUS
 10
10.0398
 20
3.5333
  0
VERTEX
  8
LAYER1
 62
     7
  6
CONTINUOUS
 10
10.0398
 20
3.5333
  0
VERTEX
  8
LAYER1
 62
     7
  6
CONTINUOUS
 10
10.0398
 20
3.5333
  0
VERTEX
  8
LAYER1
 62
     7
  6
CONTINUOUS
 10
10.0398
 20
3.5333
  0
VERTEX
  8
LAYER1
 62
     7
  6
CONTINUOUS
 10
10.0398
 20
3.5333
  0
VERTEX
  8
LAYER1
 62
     7
  6
CONTINUOUS
 10
10.0398
 20
3.5333
  0
VERTEX
  8
LAYER1
 62
     7
  6
CONTINUOUS
 10
10.0398
 20
3.5333
  0
VERTEX
  8
LAYER1
 62
     7
  6
CONTINUOUS
 10
10.0398
 20
3.5333
  0
VERTEX
  8
LAYER1
 62
     7
  6
CONTINUOUS
 10
10.0398
 20
3.5333
  0
VERTEX
  8
LAYER1
 62
     7
  6
CONTINUOUS
 10
10.0398
 20
3.5333
  0
VERTEX
  8
LAYER1
 62
     7
  6
CONTINUOUS
 10
10.0398
 20
3.5333
  0
VERTEX
  8
LAYER1
 62
     7
  6
CONTINUOUS
 10
10.0398
 20
3.5333
  0
SEQEND
  8
LAYER1
  0
POLYLINE
  8
LAYER1
 62
     7
 66
     1
  6
CONTINUOUS
  0
VERTEX
  8
LAYER1
 62
     7
  6
CONTINUOUS
 10
10.0398
 20
3.5333
  0
VERTEX
  8
LAYER1
 62
     7
  6
CONTINUOUS
 10
10.0398
 20
3.5335
  0
VERTEX
  8
LAYER1
 62
     7
  6
CONTINUOUS
 10
10.0399
 20
3.5336
  0
VERTEX
  8
LAYER1
 62
     7
  6
CONTINUOUS
 10
10.0400
 20
3.5337
  0
VERTEX
  8
LAYER1
 62
     7
  6
CONTINUOUS
 10
10.0400
 20
3.5338
  0
VERTEX
  8
LAYER1
 62
     7
  6
CONTINUOUS
 10
10.0401
 20
3.5339
  0
VERTEX
  8
LAYER1
 62
     7
  6
CONTINUOUS
 10
10.0402
 20
3.5340
  0
VERTEX
  8
LAYER1
 62
     7
  6
CONTINUOUS
 10
10.0402
 20
3.5342
  0
VERTEX
  8
LAYER1
 62
     7
  6
CONTINUOUS
 10
10.0403
 20
3.5343
  0
VERTEX
  8
LAYER1
 62
     7
  6
CONTINUOUS
 10
10.0403
 20
3.5344
  0
VERTEX
  8
LAYER1
 62
     7
  6
CONTINUOUS
 10
10.0404
 20
3.5345
  0
VERTEX
  8
LAYER1
 62
     7
  6
CONTINUOUS
 10
10.0404
 20
3.5345
  0
VERTEX
  8
LAYER1
 62
     7
  6
CONTINUOUS
 10
10.0405
 20
3.5346
  0
VERTEX
  8
LAYER1
 62
     7
  6
CONTINUOUS
 10
10.0406
 20
3.5348
  0
VERTEX
  8
LAYER1
 62
     7
  6
CONTINUOUS
 10
10.0407
 20
3.5350
  0
VERTEX
  8
LAYER1
 62
     7
  6
CONTINUOUS
 10
10.0407
 20
3.5351
  0
VERTEX
  8
LAYER1
 62
     7
  6
CONTINUOUS
 10
10.0408
 20
3.5352
  0
VERTEX
  8
LAYER1
 62
     7
  6
CONTINUOUS
 10
10.0408
 20
3.5352
  0
VERTEX
  8
LAYER1
 62
     7
  6
CONTINUOUS
 10
10.0408
 20
3.5352
  0
VERTEX
  8
LAYER1
 62
     7
  6
CONTINUOUS
 10
10.0408
 20
3.5351
  0
VERTEX
  8
LAYER1
 62
     7
  6
CONTINUOUS
 10
10.0407
 20
3.5351
  0
VERTEX
  8
LAYER1
 62
     7
  6
CONTINUOUS
 10
10.0407
 20
3.5350
  0
VERTEX
  8
LAYER1
 62
     7
  6
CONTINUOUS
 10
10.0406
 20
3.5349
  0
VERTEX
  8
LAYER1
 62
     7
  6
CONTINUOUS
 10
10.0405
 20
3.5348
  0
VERTEX
  8
LAYER1
 62
     7
  6
CONTINUOUS
 10
10.0405
 20
3.5346
  0
SEQEND
  8
LAYER1
  0
POLYLINE
  8
LAYER1
 62
     7
 66
     1
  6
CONTINUOUS
  0
VERTEX
  8
LAYER1
 62
     7
  6
CONTINUOUS
 10
10.0405
 20
3.5346
  0
VERTEX
  8
LAYER1
 62
     7
  6
CONTINUOUS
 10
10.0405
 20
3.5346
  0
VERTEX
  8
LAYER1
 62
     7
  6
CONTINUOUS
 10
10.0405
 20
3.5346
  0
VERTEX
  8
LAYER1
 62
     7
  6
CONTINUOUS
 10
10.0405
 20
3.5346
  0
VERTEX
  8
LAYER1
 62
     7
  6
CONTINUOUS
 10
10.0405
 20
3.5346
  0
VERTEX
  8
LAYER1
 62
     7
  6
CONTINUOUS
 10
10.0405
 20
3.5346
  0
VERTEX
  8
LAYER1
 62
     7
  6
CONTINUOUS
 10
10.0405
 20
3.5346
  0
VERTEX
  8
LAYER1
 62
     7
  6
CONTINUOUS
 10
10.0405
 20
3.5346
  0
VERTEX
  8
LAYER1
 62
     7
  6
CONTINUOUS
 10
10.0405
 20
3.5346
  0
VERTEX
  8
LAYER1
 62
     7
  6
CONTINUOUS
 10
10.0405
 20
3.5346
  0
VERTEX
  8
LAYER1
 62
     7
  6
CONTINUOUS
 10
10.0405
 20
3.5346
  0
VERTEX
  8
LAYER1
 62
     7
  6
CONTINUOUS
 10
10.0405
 20
3.5346
  0
VERTEX
  8
LAYER1
 62
     7
  6
CONTINUOUS
 10
10.0405
 20
3.5346
  0
VERTEX
  8
LAYER1
 62
     7
  6
CONTINUOUS
 10
10.0405
 20
3.5346
  0
VERTEX
  8
LAYER1
 62
     7
  6
CONTINUOUS
 10
10.0405
 20
3.5346
  0
VERTEX
  8
LAYER1
 62
     7
  6
CONTINUOUS
 10
10.0405
 20
3.5346
  0
VERTEX
  8
LAYER1
 62
     7
  6
CONTINUOUS
 10
10.0405
 20
3.5346
  0
VERTEX
  8
LAYER1
 62
     7
  6
CONTINUOUS
 10
10.0405
 20
3.5346
  0
VERTEX
  8
LAYER1
 62
     7
  6
CONTINUOUS
 10
10.0405
 20
3.5346
  0
VERTEX
  8
LAYER1
 62
     7
  6
CONTINUOUS
 10
10.0405
 20
3.5346
  0
VERTEX
  8
LAYER1
 62
     7
  6
CONTINUOUS
 10
10.0405
 20
3.5346
  0
VERTEX
  8
LAYER1
 62
     7
  6
CONTINUOUS
 10
10.0405
 20
3.5346
  0
VERTEX
  8
LAYER1
 62
     7
  6
CONTINUOUS
 10
10.0405
 20
3.5346
  0
VERTEX
  8
LAYER1
 62
     7
  6
CONTINUOUS
 10
10.0405
 20
3.5346
  0
VERTEX
  8
LAYER1
 62
     7
  6
CONTINUOUS
 10
10.0405
 20
3.5346
  0
SEQEND
  8
LAYER1
  0
POLYLINE
  8
LAYER1
 62
     7
 66
     1
  6
CONTINUOUS
  0
VERTEX
  8
LAYER1
 62
     7
  6
CONTINUOUS
 10
10.0405
 20
3.5346
  0
VERTEX
  8
LAYER1
 62
     7
  6
CONTINUOUS
 10
10.0405
 20
3.5347
  0
VERTEX
  8
LAYER1
 62
     7
  6
CONTINUOUS
 10
10.0405
 20
3.5347
  0
VERTEX
  8
LAYER1
 62
     7
  6
CONTINUOUS
 10
10.0406
 20
3.5348
  0
VERTEX
  8
LAYER1
 62
     7
  6
CONTINUOUS
 10
10.0406
 20
3.5348
  0
VERTEX
  8
LAYER1
 62
     7
  6
CONTINUOUS
 10
10.0406
 20
3.5348
  0
VERTEX
  8
LAYER1
 62
     7
  6
CONTINUOUS
 10
10.0406
 20
3.5349
  0
VERTEX
  8
LAYER1
 62
     7
  6
CONTINUOUS
 10
10.0406
 20
3.5349
  0
VERTEX
  8
LAYER1
 62
     7
  6
CONTINUOUS
 10
10.0407
 20
3.5350
  0
VERTEX
  8
LAYER1
 62
     7
  6
CONTINUOUS
 10
10.0407
 20
3.5350
  0
VERTEX
  8
LAYER1
 62
     7
  6
CONTINUOUS
 10
10.0407
 20
3.5350
  0
VERTEX
  8
LAYER1
 62
     7
  6
CONTINUOUS
 10
10.0407
 20
3.5351
  0
VERTEX
  8
LAYER1
 62
     7
  6
CONTINUOUS
 10
10.0408
 20
3.5351
  0
VERTEX
  8
LAYER1
 62
     7
  6
CONTINUOUS
 10
10.0409
 20
3.5354
  0
VERTEX
  8
LAYER1
 62
     7
  6
CONTINUOUS
 10
10.0410
 20
3.5356
  0
VERTEX
  8
LAYER1
 62
     7
  6
CONTINUOUS
 10
10.0411
 20
3.5357
  0
VERTEX
  8
LAYER1
 62
     7
  6
CONTINUOUS
 10
10.0411
 20
3.5358
  0
VERTEX
  8
LAYER1
 62
     7
  6
CONTINUOUS
 10
10.0411
 20
3.5358
  0
VERTEX
  8
LAYER1
 62
     7
  6
CONTINUOUS
 10
10.0411
 20
3.5358
  0
VERTEX
  8
LAYER1
 62
     7
  6
CONTINUOUS
 10
10.0411
 20
3.5357
  0
VERTEX
  8
LAYER1
 62
     7
  6
CONTINUOUS
 10
10.0410
 20
3.5356
  0
VERTEX
  8
LAYER1
 62
     7
  6
CONTINUOUS
 10
10.0410
 20
3.5355
  0
VERTEX
  8
LAYER1
 62
     7
  6
CONTINUOUS
 10
10.0409
 20
3.5354
  0
VERTEX
  8
LAYER1
 62
     7
  6
CONTINUOUS
 10
10.0408
 20
3.5353
  0
VERTEX
  8
LAYER1
 62
     7
  6
CONTINUOUS
 10
10.0408
 20
3.5351
  0
SEQEND
  8
LAYER1
  0
ARC
  8
LAYER1
 62
     7
  6
CONTINUOUS
 10
11.0316
 20
2.8163
 40
0.0176
 50
112.7171
 51
126.0196
  0
ARC
  8
LAYER1
 62
     7
  6
CONTINUOUS
 10
11.0316
 20
2.8163
 40
0.0176
 50
-126.0123
 51
-112.7104
  0
ARC
  8
LAYER1
 62
     7
  6
CONTINUOUS
 10
10.9330
 20
2.5405
 40
0.0169
 50
64.3890
 51
147.5132
  0
ARC
  8
LAYER1
 62
     7
  6
CONTINUOUS
 10
10.6980
 20
3.5277
 40
0.0112
 50
-115.6566
 51
38.3270
  0
ARC
  8
LAYER1
 62
     7
  6
CONTINUOUS
 10
10.6980
 20
3.5277
 40
0.0112
 50
141.6789
 51
38.3251
  0
ARC
  8
LAYER1
 62
     7
  6
CONTINUOUS
 10
10.8865
 20
3.5408
 40
0.0161
 50
-157.4519
 51
-22.5502
  0
ARC
  8
LAYER1
 62
     7
  6
CONTINUOUS
 10
10.9394
 20
3.5341
 40
0.0161
 50
178.1805
 51
1.8195
  0
POLYLINE
  8
LAYER10
 62
     1
 66
     1
  6
CONTINUOUS
  0
VERTEX
  8
LAYER10
 62
     1
  6
CONTINUOUS
 10
10.9108
 20
3.5346
  0
VERTEX
  8
LAYER10
 62
     1
  6
CONTINUOUS
 10
10.9108
 20
3.5346
  0
VERTEX
  8
LAYER10
 62
     1
  6
CONTINUOUS
 10
10.9108
 20
3.5346
  0
VERTEX
  8
LAYER10
 62
     1
  6
CONTINUOUS
 10
10.9108
 20
3.5346
  0
VERTEX
  8
LAYER10
 62
     1
  6
CONTINUOUS
 10
10.9108
 20
3.5346
  0
VERTEX
  8
LAYER10
 62
     1
  6
CONTINUOUS
 10
10.9108
 20
3.5346
  0
VERTEX
  8
LAYER10
 62
     1
  6
CONTINUOUS
 10
10.9108
 20
3.5346
  0
VERTEX
  8
LAYER10
 62
     1
  6
CONTINUOUS
 10
10.9108
 20
3.5346
  0
VERTEX
  8
LAYER10
 62
     1
  6
CONTINUOUS
 10
10.9108
 20
3.5346
  0
VERTEX
  8
LAYER10
 62
     1
  6
CONTINUOUS
 10
10.9108
 20
3.5346
  0
VERTEX
  8
LAYER10
 62
     1
  6
CONTINUOUS
 10
10.9108
 20
3.5346
  0
VERTEX
  8
LAYER10
 62
     1
  6
CONTINUOUS
 10
10.9108
 20
3.5346
  0
VERTEX
  8
LAYER10
 62
     1
  6
CONTINUOUS
 10
10.9108
 20
3.5346
  0
VERTEX
  8
LAYER10
 62
     1
  6
CONTINUOUS
 10
10.9108
 20
3.5346
  0
VERTEX
  8
LAYER10
 62
     1
  6
CONTINUOUS
 10
10.9108
 20
3.5346
  0
VERTEX
  8
LAYER10
 62
     1
  6
CONTINUOUS
 10
10.9108
 20
3.5346
  0
VERTEX
  8
LAYER10
 62
     1
  6
CONTINUOUS
 10
10.9108
 20
3.5346
  0
VERTEX
  8
LAYER10
 62
     1
  6
CONTINUOUS
 10
10.9108
 20
3.5346
  0
VERTEX
  8
LAYER10
 62
     1
  6
CONTINUOUS
 10
10.9108
 20
3.5346
  0
VERTEX
  8
LAYER10
 62
     1
  6
CONTINUOUS
 10
10.9108
 20
3.5346
  0
VERTEX
  8
LAYER10
 62
     1
  6
CONTINUOUS
 10
10.9108
 20
3.5346
  0
VERTEX
  8
LAYER10
 62
     1
  6
CONTINUOUS
 10
10.9108
 20
3.5346
  0
VERTEX
  8
LAYER10
 62
     1
  6
CONTINUOUS
 10
10.9108
 20
3.5346
  0
VERTEX
  8
LAYER10
 62
     1
  6
CONTINUOUS
 10
10.9108
 20
3.5346
  0
VERTEX
  8
LAYER10
 62
     1
  6
CONTINUOUS
 10
10.9108
 20
3.5346
  0
SEQEND
  8
LAYER10
  0
POLYLINE
  8
LAYER10
 62
     1
 66
     1
  6
CONTINUOUS
  0
VERTEX
  8
LAYER10
 62
     1
  6
CONTINUOUS
 10
10.9108
 20
3.5346
  0
VERTEX
  8
LAYER10
 62
     1
  6
CONTINUOUS
 10
10.9108
 20
3.5346
  0
VERTEX
  8
LAYER10
 62
     1
  6
CONTINUOUS
 10
10.9108
 20
3.5346
  0
VERTEX
  8
LAYER10
 62
     1
  6
CONTINUOUS
 10
10.9108
 20
3.5346
  0
VERTEX
  8
LAYER10
 62
     1
  6
CONTINUOUS
 10
10.9108
 20
3.5346
  0
VERTEX
  8
LAYER10
 62
     1
  6
CONTINUOUS
 10
10.9108
 20
3.5346
  0
VERTEX
  8
LAYER10
 62
     1
  6
CONTINUOUS
 10
10.9108
 20
3.5346
  0
VERTEX
  8
LAYER10
 62
     1
  6
CONTINUOUS
 10
10.9108
 20
3.5346
  0
VERTEX
  8
LAYER10
 62
     1
  6
CONTINUOUS
 10
10.9108
 20
3.5346
  0
VERTEX
  8
LAYER10
 62
     1
  6
CONTINUOUS
 10
10.9108
 20
3.5346
  0
VERTEX
  8
LAYER10
 62
     1
  6
CONTINUOUS
 10
10.9108
 20
3.5346
  0
VERTEX
  8
LAYER10
 62
     1
  6
CONTINUOUS
 10
10.9108
 20
3.5346
  0
VERTEX
  8
LAYER10
 62
     1
  6
CONTINUOUS
 10
10.9108
 20
3.5346
  0
VERTEX
  8
LAYER10
 62
     1
  6
CONTINUOUS
 10
10.9108
 20
3.5346
  0
VERTEX
  8
LAYER10
 62
     1
  6
CONTINUOUS
 10
10.9108
 20
3.5346
  0
VERTEX
  8
LAYER10
 62
     1
  6
CONTINUOUS
 10
10.9108
 20
3.5346
  0
VERTEX
  8
LAYER10
 62
     1
  6
CONTINUOUS
 10
10.9108
 20
3.5346
  0
VERTEX
  8
LAYER10
 62
     1
  6
CONTINUOUS
 10
10.9108
 20
3.5346
  0
VERTEX
  8
LAYER10
 62
     1
  6
CONTINUOUS
 10
10.9108
 20
3.5346
  0
VERTEX
  8
LAYER10
 62
     1
  6
CONTINUOUS
 10
10.9108
 20
3.5346
  0
VERTEX
  8
LAYER10
 62
     1
  6
CONTINUOUS
 10
10.9108
 20
3.5346
  0
VERTEX
  8
LAYER10
 62
     1
  6
CONTINUOUS
 10
10.9108
 20
3.5346
  0
VERTEX
  8
LAYER10
 62
     1
  6
CONTINUOUS
 10
10.9108
 20
3.5346
  0
VERTEX
  8
LAYER10
 62
     1
  6
CONTINUOUS
 10
10.9108
 20
3.5346
  0
VERTEX
  8
LAYER10
 62
     1
  6
CONTINUOUS
 10
10.9108
 20
3.5346
  0
SEQEND
  8
LAYER10
  0
POLYLINE
  8
LAYER10
 62
     1
 66
     1
  6
CONTINUOUS
  0
VERTEX
  8
LAYER10
 62
     1
  6
CONTINUOUS
 10
10.9108
 20
3.5346
  0
VERTEX
  8
LAYER10
 62
     1
  6
CONTINUOUS
 10
10.9108
 20
3.5346
  0
VERTEX
  8
LAYER10
 62
     1
  6
CONTINUOUS
 10
10.9108
 20
3.5346
  0
VERTEX
  8
LAYER10
 62
     1
  6
CONTINUOUS
 10
10.9108
 20
3.5346
  0
VERTEX
  8
LAYER10
 62
     1
  6
CONTINUOUS
 10
10.9108
 20
3.5346
  0
VERTEX
  8
LAYER10
 62
     1
  6
CONTINUOUS
 10
10.9108
 20
3.5346
  0
VERTEX
  8
LAYER10
 62
     1
  6
CONTINUOUS
 10
10.9108
 20
3.5346
  0
VERTEX
  8
LAYER10
 62
     1
  6
CONTINUOUS
 10
10.9108
 20
3.5346
  0
VERTEX
  8
LAYER10
 62
     1
  6
CONTINUOUS
 10
10.9108
 20
3.5346
  0
VERTEX
  8
LAYER10
 62
     1
  6
CONTINUOUS
 10
10.9108
 20
3.5346
  0
VERTEX
  8
LAYER10
 62
     1
  6
CONTINUOUS
 10
10.9108
 20
3.5346
  0
VERTEX
  8
LAYER10
 62
     1
  6
CONTINUOUS
 10
10.9108
 20
3.5346
  0
VERTEX
  8
LAYER10
 62
     1
  6
CONTINUOUS
 10
10.9108
 20
3.5346
  0
VERTEX
  8
LAYER10
 62
     1
  6
CONTINUOUS
 10
10.9108
 20
3.5346
  0
VERTEX
  8
LAYER10
 62
     1
  6
CONTINUOUS
 10
10.9108
 20
3.5346
  0
VERTEX
  8
LAYER10
 62
     1
  6
CONTINUOUS
 10
10.9108
 20
3.5346
  0
VERTEX
  8
LAYER10
 62
     1
  6
CONTINUOUS
 10
10.9108
 20
3.5346
  0
VERTEX
  8
LAYER10
 62
     1
  6
CONTINUOUS
 10
10.9108
 20
3.5346
  0
VERTEX
  8
LAYER10
 62
     1
  6
CONTINUOUS
 10
10.9108
 20
3.5346
  0
VERTEX
  8
LAYER10
 62
     1
  6
CONTINUOUS
 10
10.9108
 20
3.5346
  0
VERTEX
  8
LAYER10
 62
     1
  6
CONTINUOUS
 10
10.9108
 20
3.5346
  0
VERTEX
  8
LAYER10
 62
     1
  6
CONTINUOUS
 10
10.9108
 20
3.5346
  0
VERTEX
  8
LAYER10
 62
     1
  6
CONTINUOUS
 10
10.9108
 20
3.5346
  0
VERTEX
  8
LAYER10
 62
     1
  6
CONTINUOUS
 10
10.9108
 20
3.5346
  0
VERTEX
  8
LAYER10
 62
     1
  6
CONTINUOUS
 10
10.9108
 20
3.5346
  0
SEQEND
  8
LAYER10
  0
POLYLINE
  8
LAYER10
 62
     1
 66
     1
  6
CONTINUOUS
  0
VERTEX
  8
LAYER10
 62
     1
  6
CONTINUOUS
 10
10.9108
 20
3.5346
  0
VERTEX
  8
LAYER10
 62
     1
  6
CONTINUOUS
 10
10.9108
 20
3.5346
  0
VERTEX
  8
LAYER10
 62
     1
  6
CONTINUOUS
 10
10.9108
 20
3.5346
  0
VERTEX
  8
LAYER10
 62
     1
  6
CONTINUOUS
 10
10.9108
 20
3.5346
  0
VERTEX
  8
LAYER10
 62
     1
  6
CONTINUOUS
 10
10.9108
 20
3.5346
  0
VERTEX
  8
LAYER10
 62
     1
  6
CONTINUOUS
 10
10.9108
 20
3.5346
  0
VERTEX
  8
LAYER10
 62
     1
  6
CONTINUOUS
 10
10.9108
 20
3.5346
  0
VERTEX
  8
LAYER10
 62
     1
  6
CONTINUOUS
 10
10.9108
 20
3.5346
  0
VERTEX
  8
LAYER10
 62
     1
  6
CONTINUOUS
 10
10.9108
 20
3.5346
  0
VERTEX
  8
LAYER10
 62
     1
  6
CONTINUOUS
 10
10.9108
 20
3.5346
  0
VERTEX
  8
LAYER10
 62
     1
  6
CONTINUOUS
 10
10.9108
 20
3.5346
  0
VERTEX
  8
LAYER10
 62
     1
  6
CONTINUOUS
 10
10.9108
 20
3.5346
  0
VERTEX
  8
LAYER10
 62
     1
  6
CONTINUOUS
 10
10.9108
 20
3.5346
  0
VERTEX
  8
LAYER10
 62
     1
  6
CONTINUOUS
 10
10.9108
 20
3.5346
  0
VERTEX
  8
LAYER10
 62
     1
  6
CONTINUOUS
 10
10.9108
 20
3.5346
  0
VERTEX
  8
LAYER10
 62
     1
  6
CONTINUOUS
 10
10.9108
 20
3.5346
  0
VERTEX
  8
LAYER10
 62
     1
  6
CONTINUOUS
 10
10.9108
 20
3.5346
  0
VERTEX
  8
LAYER10
 62
     1
  6
CONTINUOUS
 10
10.9108
 20
3.5346
  0
VERTEX
  8
LAYER10
 62
     1
  6
CONTINUOUS
 10
10.9108
 20
3.5346
  0
VERTEX
  8
LAYER10
 62
     1
  6
CONTINUOUS
 10
10.9108
 20
3.5346
  0
VERTEX
  8
LAYER10
 62
     1
  6
CONTINUOUS
 10
10.9108
 20
3.5346
  0
VERTEX
  8
LAYER10
 62
     1
  6
CONTINUOUS
 10
10.9108
 20
3.5346
  0
VERTEX
  8
LAYER10
 62
     1
  6
CONTINUOUS
 10
10.9108
 20
3.5346
  0
VERTEX
  8
LAYER10
 62
     1
  6
CONTINUOUS
 10
10.9108
 20
3.5346
  0
VERTEX
  8
LAYER10
 62
     1
  6
CONTINUOUS
 10
10.9108
 20
3.5346
  0
SEQEND
  8
LAYER10
  0
POLYLINE
  8
LAYER10
 62
     1
 66
     1
  6
CONTINUOUS
  0
VERTEX
  8
LAYER10
 62
     1
  6
CONTINUOUS
 10
10.9108
 20
3.5346
  0
VERTEX
  8
LAYER10
 62
     1
  6
CONTINUOUS
 10
10.9107
 20
3.5299
  0
VERTEX
  8
LAYER10
 62
     1
  6
CONTINUOUS
 10
10.9105
 20
3.5253
  0
VERTEX
  8
LAYER10
 62
     1
  6
CONTINUOUS
 10
10.9104
 20
3.5208
  0
VERTEX
  8
LAYER10
 62
     1
  6
CONTINUOUS
 10
10.9103
 20
3.5164
  0
VERTEX
  8
LAYER10
 62
     1
  6
CONTINUOUS
 10
10.9102
 20
3.5123
  0
VERTEX
  8
LAYER10
 62
     1
  6
CONTINUOUS
 10
10.9101
 20
3.5086
  0
VERTEX
  8
LAYER10
 62
     1
  6
CONTINUOUS
 10
10.9100
 20
3.5052
  0
VERTEX
  8
LAYER10
 62
     1
  6
CONTINUOUS
 10
10.9099
 20
3.5022
  0
VERTEX
  8
LAYER10
 62
     1
  6
CONTINUOUS
 10
10.9098
 20
3.4997
  0
VERTEX
  8
LAYER10
 62
     1
  6
CONTINUOUS
 10
10.9098
 20
3.4978
  0
VERTEX
  8
LAYER10
 62
     1
  6
CONTINUOUS
 10
10.9098
 20
3.4965
  0
VERTEX
  8
LAYER10
 62
     1
  6
CONTINUOUS
 10
10.9098
 20
3.4959
  0
VERTEX
  8
LAYER10
 62
     1
  6
CONTINUOUS
 10
10.9098
 20
3.4959
  0
VERTEX
  8
LAYER10
 62
     1
  6
CONTINUOUS
 10
10.9098
 20
3.4959
  0
VERTEX
  8
LAYER10
 62
     1
  6
CONTINUOUS
 10
10.9099
 20
3.4959
  0
VERTEX
  8
LAYER10
 62
     1
  6
CONTINUOUS
 10
10.9099
 20
3.4959
  0
VERTEX
  8
LAYER10
 62
     1
  6
CONTINUOUS
 10
10.9099
 20
3.4959
  0
VERTEX
  8
LAYER10
 62
     1
  6
CONTINUOUS
 10
10.9099
 20
3.4959
  0
VERTEX
  8
LAYER10
 62
     1
  6
CONTINUOUS
 10
10.9099
 20
3.4959
  0
VERTEX
  8
LAYER10
 62
     1
  6
CONTINUOUS
 10
10.9099
 20
3.4959
  0
VERTEX
  8
LAYER10
 62
     1
  6
CONTINUOUS
 10
10.9099
 20
3.4959
  0
VERTEX
  8
LAYER10
 62
     1
  6
CONTINUOUS
 10
10.9099
 20
3.4959
  0
VERTEX
  8
LAYER10
 62
     1
  6
CONTINUOUS
 10
10.9099
 20
3.4959
  0
VERTEX
  8
LAYER10
 62
     1
  6
CONTINUOUS
 10
10.9098
 20
3.4959
  0
VERTEX
  8
LAYER10
 62
     1
  6
CONTINUOUS
 10
10.9092
 20
3.4951
  0
VERTEX
  8
LAYER10
 62
     1
  6
CONTINUOUS
 10
10.9078
 20
3.4930
  0
VERTEX
  8
LAYER10
 62
     1
  6
CONTINUOUS
 10
10.9057
 20
3.4897
  0
VERTEX
  8
LAYER10
 62
     1
  6
CONTINUOUS
 10
10.9031
 20
3.4854
  0
VERTEX
  8
LAYER10
 62
     1
  6
CONTINUOUS
 10
10.8999
 20
3.4802
  0
VERTEX
  8
LAYER10
 62
     1
  6
CONTINUOUS
 10
10.8962
 20
3.4744
  0
VERTEX
  8
LAYER10
 62
     1
  6
CONTINUOUS
 10
10.8923
 20
3.4681
  0
VERTEX
  8
LAYER10
 62
     1
  6
CONTINUOUS
 10
10.8881
 20
3.4614
  0
VERTEX
  8
LAYER10
 62
     1
  6
CONTINUOUS
 10
10.8837
 20
3.4546
  0
VERTEX
  8
LAYER10
 62
     1
  6
CONTINUOUS
 10
10.8793
 20
3.4478
  0
VERTEX
  8
LAYER10
 62
     1
  6
CONTINUOUS
 10
10.8749
 20
3.4412
  0
VERTEX
  8
LAYER10
 62
     1
  6
CONTINUOUS
 10
10.8706
 20
3.4349
  0
VERTEX
  8
LAYER10
 62
     1
  6
CONTINUOUS
 10
10.8681
 20
3.4314
  0
VERTEX
  8
LAYER10
 62
     1
  6
CONTINUOUS
 10
10.8657
 20
3.4281
  0
VERTEX
  8
LAYER10
 62
     1
  6
CONTINUOUS
 10
10.8634
 20
3.4250
  0
VERTEX
  8
LAYER10
 62
     1
  6
CONTINUOUS
 10
10.8610
 20
3.4221
  0
VERTEX
  8
LAYER10
 62
     1
  6
CONTINUOUS
 10
10.8587
 20
3.4193
  0
VERTEX
  8
LAYER10
 62
     1
  6
CONTINUOUS
 10
10.8563
 20
3.4167
  0
VERTEX
  8
LAYER10
 62
     1
  6
CONTINUOUS
 10
10.8539
 20
3.4142
  0
VERTEX
  8
LAYER10
 62
     1
  6
CONTINUOUS
 10
10.8515
 20
3.4119
  0
VERTEX
  8
LAYER10
 62
     1
  6
CONTINUOUS
 10
10.8490
 20
3.4098
  0
VERTEX
  8
LAYER10
 62
     1
  6
CONTINUOUS
 10
10.8464
 20
3.4078
  0
VERTEX
  8
LAYER10
 62
     1
  6
CONTINUOUS
 10
10.8437
 20
3.4059
  0
VERTEX
  8
LAYER10
 62
     1
  6
CONTINUOUS
 10
10.8409
 20
3.4042
  0
VERTEX
  8
LAYER10
 62
     1
  6
CONTINUOUS
 10
10.8373
 20
3.4023
  0
VERTEX
  8
LAYER10
 62
     1
  6
CONTINUOUS
 10
10.8335
 20
3.4006
  0
VERTEX
  8
LAYER10
 62
     1
  6
CONTINUOUS
 10
10.8295
 20
3.3991
  0
VERTEX
  8
LAYER10
 62
     1
  6
CONTINUOUS
 10
10.8254
 20
3.3977
  0
VERTEX
  8
LAYER10
 62
     1
  6
CONTINUOUS
 10
10.8212
 20
3.3964
  0
VERTEX
  8
LAYER10
 62
     1
  6
CONTINUOUS
 10
10.8169
 20
3.3952
  0
VERTEX
  8
LAYER10
 62
     1
  6
CONTINUOUS
 10
10.8126
 20
3.3940
  0
VERTEX
  8
LAYER10
 62
     1
  6
CONTINUOUS
 10
10.8082
 20
3.3929
  0
VERTEX
  8
LAYER10
 62
     1
  6
CONTINUOUS
 10
10.8038
 20
3.3918
  0
VERTEX
  8
LAYER10
 62
     1
  6
CONTINUOUS
 10
10.7995
 20
3.3907
  0
VERTEX
  8
LAYER10
 62
     1
  6
CONTINUOUS
 10
10.7951
 20
3.3895
  0
VERTEX
  8
LAYER10
 62
     1
  6
CONTINUOUS
 10
10.7909
 20
3.3883
  0
VERTEX
  8
LAYER10
 62
     1
  6
CONTINUOUS
 10
10.7860
 20
3.3868
  0
VERTEX
  8
LAYER10
 62
     1
  6
CONTINUOUS
 10
10.7812
 20
3.3852
  0
VERTEX
  8
LAYER10
 62
     1
  6
CONTINUOUS
 10
10.7765
 20
3.3836
  0
VERTEX
  8
LAYER10
 62
     1
  6
CONTINUOUS
 10
10.7717
 20
3.3821
  0
VERTEX
  8
LAYER10
 62
     1
  6
CONTINUOUS
 10
10.7670
 20
3.3806
  0
VERTEX
  8
LAYER10
 62
     1
  6
CONTINUOUS
 10
10.7622
 20
3.3793
  0
VERTEX
  8
LAYER10
 62
     1
  6
CONTINUOUS
 10
10.7574
 20
3.3781
  0
VERTEX
  8
LAYER10
 62
     1
  6
CONTINUOUS
 10
10.7524
 20
3.3773
  0
VERTEX
  8
LAYER10
 62
     1
  6
CONTINUOUS
 10
10.7473
 20
3.3767
  0
VERTEX
  8
LAYER10
 62
     1
  6
CONTINUOUS
 10
10.7420
 20
3.3765
  0
VERTEX
  8
LAYER10
 62
     1
  6
CONTINUOUS
 10
10.7364
 20
3.3766
  0
VERTEX
  8
LAYER10
 62
     1
  6
CONTINUOUS
 10
10.7307
 20
3.3773
  0
VERTEX
  8
LAYER10
 62
     1
  6
CONTINUOUS
 10
10.7231
 20
3.3788
  0
VERTEX
  8
LAYER10
 62
     1
  6
CONTINUOUS
 10
10.7153
 20
3.3809
  0
VERTEX
  8
LAYER10
 62
     1
  6
CONTINUOUS
 10
10.7073
 20
3.3836
  0
VERTEX
  8
LAYER10
 62
     1
  6
CONTINUOUS
 10
10.6994
 20
3.3866
  0
VERTEX
  8
LAYER10
 62
     1
  6
CONTINUOUS
 10
10.6918
 20
3.3899
  0
VERTEX
  8
LAYER10
 62
     1
  6
CONTINUOUS
 10
10.6846
 20
3.3932
  0
VERTEX
  8
LAYER10
 62
     1
  6
CONTINUOUS
 10
10.6780
 20
3.3964
  0
VERTEX
  8
LAYER10
 62
     1
  6
CONTINUOUS
 10
10.6722
 20
3.3994
  0
VERTEX
  8
LAYER10
 62
     1
  6
CONTINUOUS
 10
10.6672
 20
3.4021
  0
VERTEX
  8
LAYER10
 62
     1
  6
CONTINUOUS
 10
10.6634
 20
3.4042
  0
VERTEX
  8
LAYER10
 62
     1
  6
CONTINUOUS
 10
10.6609
 20
3.4057
  0
VERTEX
  8
LAYER10
 62
     1
  6
CONTINUOUS
 10
10.6598
 20
3.4063
  0
VERTEX
  8
LAYER10
 62
     1
  6
CONTINUOUS
 10
10.6598
 20
3.4063
  0
VERTEX
  8
LAYER10
 62
     1
  6
CONTINUOUS
 10
10.6598
 20
3.4063
  0
VERTEX
  8
LAYER10
 62
     1
  6
CONTINUOUS
 10
10.6597
 20
3.4063
  0
VERTEX
  8
LAYER10
 62
     1
  6
CONTINUOUS
 10
10.6597
 20
3.4063
  0
VERTEX
  8
LAYER10
 62
     1
  6
CONTINUOUS
 10
10.6597
 20
3.4063
  0
VERTEX
  8
LAYER10
 62
     1
  6
CONTINUOUS
 10
10.6597
 20
3.4063
  0
VERTEX
  8
LAYER10
 62
     1
  6
CONTINUOUS
 10
10.6598
 20
3.4063
  0
VERTEX
  8
LAYER10
 62
     1
  6
CONTINUOUS
 10
10.6598
 20
3.4063
  0
VERTEX
  8
LAYER10
 62
     1
  6
CONTINUOUS
 10
10.6598
 20
3.4063
  0
VERTEX
  8
LAYER10
 62
     1
  6
CONTINUOUS
 10
10.6598
 20
3.4063
  0
VERTEX
  8
LAYER10
 62
     1
  6
CONTINUOUS
 10
10.6598
 20
3.4063
  0
VERTEX
  8
LAYER10
 62
     1
  6
CONTINUOUS
 10
10.6598
 20
3.4063
  0
VERTEX
  8
LAYER10
 62
     1
  6
CONTINUOUS
 10
10.6598
 20
3.4063
  0
VERTEX
  8
LAYER10
 62
     1
  6
CONTINUOUS
 10
10.6598
 20
3.4063
  0
VERTEX
  8
LAYER10
 62
     1
  6
CONTINUOUS
 10
10.6598
 20
3.4063
  0
VERTEX
  8
LAYER10
 62
     1
  6
CONTINUOUS
 10
10.6598
 20
3.4063
  0
VERTEX
  8
LAYER10
 62
     1
  6
CONTINUOUS
 10
10.6598
 20
3.4063
  0
VERTEX
  8
LAYER10
 62
     1
  6
CONTINUOUS
 10
10.6598
 20
3.4063
  0
VERTEX
  8
LAYER10
 62
     1
  6
CONTINUOUS
 10
10.6598
 20
3.4063
  0
VERTEX
  8
LAYER10
 62
     1
  6
CONTINUOUS
 10
10.6598
 20
3.4063
  0
VERTEX
  8
LAYER10
 62
     1
  6
CONTINUOUS
 10
10.6598
 20
3.4063
  0
VERTEX
  8
LAYER10
 62
     1
  6
CONTINUOUS
 10
10.6598
 20
3.4063
  0
VERTEX
  8
LAYER10
 62
     1
  6
CONTINUOUS
 10
10.6598
 20
3.4063
  0
VERTEX
  8
LAYER10
 62
     1
  6
CONTINUOUS
 10
10.6598
 20
3.4063
  0
VERTEX
  8
LAYER10
 62
     1
  6
CONTINUOUS
 10
10.6598
 20
3.4063
  0
VERTEX
  8
LAYER10
 62
     1
  6
CONTINUOUS
 10
10.6598
 20
3.4063
  0
VERTEX
  8
LAYER10
 62
     1
  6
CONTINUOUS
 10
10.6598
 20
3.4063
  0
VERTEX
  8
LAYER10
 62
     1
  6
CONTINUOUS
 10
10.6598
 20
3.4063
  0
VERTEX
  8
LAYER10
 62
     1
  6
CONTINUOUS
 10
10.6598
 20
3.4063
  0
VERTEX
  8
LAYER10
 62
     1
  6
CONTINUOUS
 10
10.6598
 20
3.4063
  0
VERTEX
  8
LAYER10
 62
     1
  6
CONTINUOUS
 10
10.6598
 20
3.4063
  0
VERTEX
  8
LAYER10
 62
     1
  6
CONTINUOUS
 10
10.6598
 20
3.4063
  0
VERTEX
  8
LAYER10
 62
     1
  6
CONTINUOUS
 10
10.6598
 20
3.4063
  0
VERTEX
  8
LAYER10
 62
     1
  6
CONTINUOUS
 10
10.6598
 20
3.4063
  0
VERTEX
  8
LAYER10
 62
     1
  6
CONTINUOUS
 10
10.6598
 20
3.4063
  0
VERTEX
  8
LAYER10
 62
     1
  6
CONTINUOUS
 10
10.6598
 20
3.4063
  0
VERTEX
  8
LAYER10
 62
     1
  6
CONTINUOUS
 10
10.6589
 20
3.4069
  0
VERTEX
  8
LAYER10
 62
     1
  6
CONTINUOUS
 10
10.6568
 20
3.4082
  0
VERTEX
  8
LAYER10
 62
     1
  6
CONTINUOUS
 10
10.6537
 20
3.4102
  0
VERTEX
  8
LAYER10
 62
     1
  6
CONTINUOUS
 10
10.6497
 20
3.4127
  0
VERTEX
  8
LAYER10
 62
     1
  6
CONTINUOUS
 10
10.6451
 20
3.4156
  0
VERTEX
  8
LAYER10
 62
     1
  6
CONTINUOUS
 10
10.6398
 20
3.4189
  0
VERTEX
  8
LAYER10
 62
     1
  6
CONTINUOUS
 10
10.6341
 20
3.4224
  0
VERTEX
  8
LAYER10
 62
     1
  6
CONTINUOUS
 10
10.6281
 20
3.4261
  0
VERTEX
  8
LAYER10
 62
     1
  6
CONTINUOUS
 10
10.6219
 20
3.4299
  0
VERTEX
  8
LAYER10
 62
     1
  6
CONTINUOUS
 10
10.6157
 20
3.4336
  0
VERTEX
  8
LAYER10
 62
     1
  6
CONTINUOUS
 10
10.6097
 20
3.4372
  0
VERTEX
  8
LAYER10
 62
     1
  6
CONTINUOUS
 10
10.6039
 20
3.4406
  0
VERTEX
  8
LAYER10
 62
     1
  6
CONTINUOUS
 10
10.6018
 20
3.4418
  0
VERTEX
  8
LAYER10
 62
     1
  6
CONTINUOUS
 10
10.5997
 20
3.4430
  0
VERTEX
  8
LAYER10
 62
     1
  6
CONTINUOUS
 10
10.5977
 20
3.4442
  0
VERTEX
  8
LAYER10
 62
     1
  6
CONTINUOUS
 10
10.5958
 20
3.4453
  0
VERTEX
  8
LAYER10
 62
     1
  6
CONTINUOUS
 10
10.5940
 20
3.4465
  0
VERTEX
  8
LAYER10
 62
     1
  6
CONTINUOUS
 10
10.5922
 20
3.4476
  0
VERTEX
  8
LAYER10
 62
     1
  6
CONTINUOUS
 10
10.5905
 20
3.4488
  0
VERTEX
  8
LAYER10
 62
     1
  6
CONTINUOUS
 10
10.5890
 20
3.4500
  0
VERTEX
  8
LAYER10
 62
     1
  6
CONTINUOUS
 10
10.5875
 20
3.4513
  0
VERTEX
  8
LAYER10
 62
     1
  6
CONTINUOUS
 10
10.5860
 20
3.4526
  0
VERTEX
  8
LAYER10
 62
     1
  6
CONTINUOUS
 10
10.5847
 20
3.4539
  0
VERTEX
  8
LAYER10
 62
     1
  6
CONTINUOUS
 10
10.5835
 20
3.4554
  0
VERTEX
  8
LAYER10
 62
     1
  6
CONTINUOUS
 10
10.5810
 20
3.4592
  0
VERTEX
  8
LAYER10
 62
     1
  6
CONTINUOUS
 10
10.5791
 20
3.4634
  0
VERTEX
  8
LAYER10
 62
     1
  6
CONTINUOUS
 10
10.5777
 20
3.4680
  0
VERTEX
  8
LAYER10
 62
     1
  6
CONTINUOUS
 10
10.5768
 20
3.4729
  0
VERTEX
  8
LAYER10
 62
     1
  6
CONTINUOUS
 10
10.5763
 20
3.4780
  0
VERTEX
  8
LAYER10
 62
     1
  6
CONTINUOUS
 10
10.5763
 20
3.4834
  0
VERTEX
  8
LAYER10
 62
     1
  6
CONTINUOUS
 10
10.5766
 20
3.4888
  0
VERTEX
  8
LAYER10
 62
     1
  6
CONTINUOUS
 10
10.5773
 20
3.4943
  0
VERTEX
  8
LAYER10
 62
     1
  6
CONTINUOUS
 10
10.5782
 20
3.4998
  0
VERTEX
  8
LAYER10
 62
     1
  6
CONTINUOUS
 10
10.5795
 20
3.5053
  0
VERTEX
  8
LAYER10
 62
     1
  6
CONTINUOUS
 10
10.5809
 20
3.5106
  0
VERTEX
  8
LAYER10
 62
     1
  6
CONTINUOUS
 10
10.5825
 20
3.5157
  0
VERTEX
  8
LAYER10
 62
     1
  6
CONTINUOUS
 10
10.5831
 20
3.5174
  0
VERTEX
  8
LAYER10
 62
     1
  6
CONTINUOUS
 10
10.5837
 20
3.5190
  0
VERTEX
  8
LAYER10
 62
     1
  6
CONTINUOUS
 10
10.5844
 20
3.5207
  0
VERTEX
  8
LAYER10
 62
     1
  6
CONTINUOUS
 10
10.5850
 20
3.5223
  0
VERTEX
  8
LAYER10
 62
     1
  6
CONTINUOUS
 10
10.5856
 20
3.5239
  0
VERTEX
  8
LAYER10
 62
     1
  6
CONTINUOUS
 10
10.5863
 20
3.5254
  0
VERTEX
  8
LAYER10
 62
     1
  6
CONTINUOUS
 10
10.5870
 20
3.5270
  0
VERTEX
  8
LAYER10
 62
     1
  6
CONTINUOUS
 10
10.5876
 20
3.5285
  0
VERTEX
  8
LAYER10
 62
     1
  6
CONTINUOUS
 10
10.5883
 20
3.5301
  0
VERTEX
  8
LAYER10
 62
     1
  6
CONTINUOUS
 10
10.5890
 20
3.5316
  0
VERTEX
  8
LAYER10
 62
     1
  6
CONTINUOUS
 10
10.5897
 20
3.5331
  0
VERTEX
  8
LAYER10
 62
     1
  6
CONTINUOUS
 10
10.5904
 20
3.5346
  0
SEQEND
  8
LAYER10
  0
POLYLINE
  8
LAYER10
 62
     1
 66
     1
  6
CONTINUOUS
  0
VERTEX
  8
LAYER10
 62
     1
  6
CONTINUOUS
 10
10.5904
 20
3.5346
  0
VERTEX
  8
LAYER10
 62
     1
  6
CONTINUOUS
 10
10.5904
 20
3.5346
  0
VERTEX
  8
LAYER10
 62
     1
  6
CONTINUOUS
 10
10.5904
 20
3.5346
  0
VERTEX
  8
LAYER10
 62
     1
  6
CONTINUOUS
 10
10.5904
 20
3.5346
  0
VERTEX
  8
LAYER10
 62
     1
  6
CONTINUOUS
 10
10.5904
 20
3.5346
  0
VERTEX
  8
LAYER10
 62
     1
  6
CONTINUOUS
 10
10.5904
 20
3.5346
  0
VERTEX
  8
LAYER10
 62
     1
  6
CONTINUOUS
 10
10.5904
 20
3.5346
  0
VERTEX
  8
LAYER10
 62
     1
  6
CONTINUOUS
 10
10.5904
 20
3.5346
  0
VERTEX
  8
LAYER10
 62
     1
  6
CONTINUOUS
 10
10.5904
 20
3.5346
  0
VERTEX
  8
LAYER10
 62
     1
  6
CONTINUOUS
 10
10.5904
 20
3.5346
  0
VERTEX
  8
LAYER10
 62
     1
  6
CONTINUOUS
 10
10.5904
 20
3.5346
  0
VERTEX
  8
LAYER10
 62
     1
  6
CONTINUOUS
 10
10.5904
 20
3.5346
  0
VERTEX
  8
LAYER10
 62
     1
  6
CONTINUOUS
 10
10.5904
 20
3.5346
  0
VERTEX
  8
LAYER10
 62
     1
  6
CONTINUOUS
 10
10.5904
 20
3.5346
  0
VERTEX
  8
LAYER10
 62
     1
  6
CONTINUOUS
 10
10.5904
 20
3.5346
  0
VERTEX
  8
LAYER10
 62
     1
  6
CONTINUOUS
 10
10.5904
 20
3.5346
  0
VERTEX
  8
LAYER10
 62
     1
  6
CONTINUOUS
 10
10.5904
 20
3.5346
  0
VERTEX
  8
LAYER10
 62
     1
  6
CONTINUOUS
 10
10.5904
 20
3.5346
  0
VERTEX
  8
LAYER10
 62
     1
  6
CONTINUOUS
 10
10.5904
 20
3.5346
  0
VERTEX
  8
LAYER10
 62
     1
  6
CONTINUOUS
 10
10.5904
 20
3.5346
  0
VERTEX
  8
LAYER10
 62
     1
  6
CONTINUOUS
 10
10.5904
 20
3.5346
  0
VERTEX
  8
LAYER10
 62
     1
  6
CONTINUOUS
 10
10.5904
 20
3.5346
  0
VERTEX
  8
LAYER10
 62
     1
  6
CONTINUOUS
 10
10.5904
 20
3.5346
  0
VERTEX
  8
LAYER10
 62
     1
  6
CONTINUOUS
 10
10.5904
 20
3.5346
  0
VERTEX
  8
LAYER10
 62
     1
  6
CONTINUOUS
 10
10.5904
 20
3.5346
  0
SEQEND
  8
LAYER10
  0
POLYLINE
  8
LAYER10
 62
     1
 66
     1
  6
CONTINUOUS
  0
VERTEX
  8
LAYER10
 62
     1
  6
CONTINUOUS
 10
10.5904
 20
3.5346
  0
VERTEX
  8
LAYER10
 62
     1
  6
CONTINUOUS
 10
10.5904
 20
3.5346
  0
VERTEX
  8
LAYER10
 62
     1
  6
CONTINUOUS
 10
10.5904
 20
3.5346
  0
VERTEX
  8
LAYER10
 62
     1
  6
CONTINUOUS
 10
10.5904
 20
3.5346
  0
VERTEX
  8
LAYER10
 62
     1
  6
CONTINUOUS
 10
10.5904
 20
3.5346
  0
VERTEX
  8
LAYER10
 62
     1
  6
CONTINUOUS
 10
10.5904
 20
3.5346
  0
VERTEX
  8
LAYER10
 62
     1
  6
CONTINUOUS
 10
10.5904
 20
3.5346
  0
VERTEX
  8
LAYER10
 62
     1
  6
CONTINUOUS
 10
10.5904
 20
3.5346
  0
VERTEX
  8
LAYER10
 62
     1
  6
CONTINUOUS
 10
10.5904
 20
3.5346
  0
VERTEX
  8
LAYER10
 62
     1
  6
CONTINUOUS
 10
10.5904
 20
3.5346
  0
VERTEX
  8
LAYER10
 62
     1
  6
CONTINUOUS
 10
10.5904
 20
3.5346
  0
VERTEX
  8
LAYER10
 62
     1
  6
CONTINUOUS
 10
10.5904
 20
3.5346
  0
VERTEX
  8
LAYER10
 62
     1
  6
CONTINUOUS
 10
10.5904
 20
3.5346
  0
VERTEX
  8
LAYER10
 62
     1
  6
CONTINUOUS
 10
10.5904
 20
3.5346
  0
VERTEX
  8
LAYER10
 62
     1
  6
CONTINUOUS
 10
10.5904
 20
3.5346
  0
VERTEX
  8
LAYER10
 62
     1
  6
CONTINUOUS
 10
10.5904
 20
3.5346
  0
VERTEX
  8
LAYER10
 62
     1
  6
CONTINUOUS
 10
10.5904
 20
3.5346
  0
VERTEX
  8
LAYER10
 62
     1
  6
CONTINUOUS
 10
10.5904
 20
3.5346
  0
VERTEX
  8
LAYER10
 62
     1
  6
CONTINUOUS
 10
10.5904
 20
3.5346
  0
VERTEX
  8
LAYER10
 62
     1
  6
CONTINUOUS
 10
10.5904
 20
3.5346
  0
VERTEX
  8
LAYER10
 62
     1
  6
CONTINUOUS
 10
10.5904
 20
3.5346
  0
VERTEX
  8
LAYER10
 62
     1
  6
CONTINUOUS
 10
10.5904
 20
3.5346
  0
VERTEX
  8
LAYER10
 62
     1
  6
CONTINUOUS
 10
10.5904
 20
3.5346
  0
VERTEX
  8
LAYER10
 62
     1
  6
CONTINUOUS
 10
10.5904
 20
3.5346
  0
VERTEX
  8
LAYER10
 62
     1
  6
CONTINUOUS
 10
10.5904
 20
3.5346
  0
SEQEND
  8
LAYER10
  0
POLYLINE
  8
LAYER10
 62
     1
 66
     1
  6
CONTINUOUS
  0
VERTEX
  8
LAYER10
 62
     1
  6
CONTINUOUS
 10
10.5904
 20
3.5346
  0
VERTEX
  8
LAYER10
 62
     1
  6
CONTINUOUS
 10
10.5904
 20
3.5346
  0
VERTEX
  8
LAYER10
 62
     1
  6
CONTINUOUS
 10
10.5904
 20
3.5346
  0
VERTEX
  8
LAYER10
 62
     1
  6
CONTINUOUS
 10
10.5904
 20
3.5346
  0
VERTEX
  8
LAYER10
 62
     1
  6
CONTINUOUS
 10
10.5904
 20
3.5346
  0
VERTEX
  8
LAYER10
 62
     1
  6
CONTINUOUS
 10
10.5904
 20
3.5346
  0
VERTEX
  8
LAYER10
 62
     1
  6
CONTINUOUS
 10
10.5904
 20
3.5346
  0
VERTEX
  8
LAYER10
 62
     1
  6
CONTINUOUS
 10
10.5904
 20
3.5346
  0
VERTEX
  8
LAYER10
 62
     1
  6
CONTINUOUS
 10
10.5904
 20
3.5346
  0
VERTEX
  8
LAYER10
 62
     1
  6
CONTINUOUS
 10
10.5904
 20
3.5346
  0
VERTEX
  8
LAYER10
 62
     1
  6
CONTINUOUS
 10
10.5904
 20
3.5346
  0
VERTEX
  8
LAYER10
 62
     1
  6
CONTINUOUS
 10
10.5904
 20
3.5346
  0
VERTEX
  8
LAYER10
 62
     1
  6
CONTINUOUS
 10
10.5904
 20
3.5346
  0
VERTEX
  8
LAYER10
 62
     1
  6
CONTINUOUS
 10
10.5904
 20
3.5346
  0
VERTEX
  8
LAYER10
 62
     1
  6
CONTINUOUS
 10
10.5904
 20
3.5346
  0
VERTEX
  8
LAYER10
 62
     1
  6
CONTINUOUS
 10
10.5904
 20
3.5346
  0
VERTEX
  8
LAYER10
 62
     1
  6
CONTINUOUS
 10
10.5904
 20
3.5346
  0
VERTEX
  8
LAYER10
 62
     1
  6
CONTINUOUS
 10
10.5904
 20
3.5346
  0
VERTEX
  8
LAYER10
 62
     1
  6
CONTINUOUS
 10
10.5904
 20
3.5346
  0
VERTEX
  8
LAYER10
 62
     1
  6
CONTINUOUS
 10
10.5904
 20
3.5346
  0
VERTEX
  8
LAYER10
 62
     1
  6
CONTINUOUS
 10
10.5904
 20
3.5346
  0
VERTEX
  8
LAYER10
 62
     1
  6
CONTINUOUS
 10
10.5904
 20
3.5346
  0
VERTEX
  8
LAYER10
 62
     1
  6
CONTINUOUS
 10
10.5904
 20
3.5346
  0
VERTEX
  8
LAYER10
 62
     1
  6
CONTINUOUS
 10
10.5904
 20
3.5346
  0
VERTEX
  8
LAYER10
 62
     1
  6
CONTINUOUS
 10
10.5904
 20
3.5346
  0
SEQEND
  8
LAYER10
  0
POLYLINE
  8
LAYER10
 62
     1
 66
     1
  6
CONTINUOUS
  0
VERTEX
  8
LAYER10
 62
     1
  6
CONTINUOUS
 10
10.5904
 20
3.5346
  0
VERTEX
  8
LAYER10
 62
     1
  6
CONTINUOUS
 10
10.5904
 20
3.5346
  0
VERTEX
  8
LAYER10
 62
     1
  6
CONTINUOUS
 10
10.5904
 20
3.5346
  0
VERTEX
  8
LAYER10
 62
     1
  6
CONTINUOUS
 10
10.5904
 20
3.5346
  0
VERTEX
  8
LAYER10
 62
     1
  6
CONTINUOUS
 10
10.5904
 20
3.5346
  0
VERTEX
  8
LAYER10
 62
     1
  6
CONTINUOUS
 10
10.5904
 20
3.5346
  0
VERTEX
  8
LAYER10
 62
     1
  6
CONTINUOUS
 10
10.5904
 20
3.5346
  0
VERTEX
  8
LAYER10
 62
     1
  6
CONTINUOUS
 10
10.5904
 20
3.5346
  0
VERTEX
  8
LAYER10
 62
     1
  6
CONTINUOUS
 10
10.5904
 20
3.5346
  0
VERTEX
  8
LAYER10
 62
     1
  6
CONTINUOUS
 10
10.5904
 20
3.5346
  0
VERTEX
  8
LAYER10
 62
     1
  6
CONTINUOUS
 10
10.5904
 20
3.5346
  0
VERTEX
  8
LAYER10
 62
     1
  6
CONTINUOUS
 10
10.5904
 20
3.5346
  0
VERTEX
  8
LAYER10
 62
     1
  6
CONTINUOUS
 10
10.5904
 20
3.5346
  0
VERTEX
  8
LAYER10
 62
     1
  6
CONTINUOUS
 10
10.5904
 20
3.5346
  0
VERTEX
  8
LAYER10
 62
     1
  6
CONTINUOUS
 10
10.5904
 20
3.5346
  0
VERTEX
  8
LAYER10
 62
     1
  6
CONTINUOUS
 10
10.5904
 20
3.5346
  0
VERTEX
  8
LAYER10
 62
     1
  6
CONTINUOUS
 10
10.5904
 20
3.5346
  0
VERTEX
  8
LAYER10
 62
     1
  6
CONTINUOUS
 10
10.5904
 20
3.5346
  0
VERTEX
  8
LAYER10
 62
     1
  6
CONTINUOUS
 10
10.5904
 20
3.5346
  0
VERTEX
  8
LAYER10
 62
     1
  6
CONTINUOUS
 10
10.5904
 20
3.5346
  0
VERTEX
  8
LAYER10
 62
     1
  6
CONTINUOUS
 10
10.5904
 20
3.5346
  0
VERTEX
  8
LAYER10
 62
     1
  6
CONTINUOUS
 10
10.5904
 20
3.5346
  0
VERTEX
  8
LAYER10
 62
     1
  6
CONTINUOUS
 10
10.5904
 20
3.5346
  0
VERTEX
  8
LAYER10
 62
     1
  6
CONTINUOUS
 10
10.5904
 20
3.5346
  0
VERTEX
  8
LAYER10
 62
     1
  6
CONTINUOUS
 10
10.5904
 20
3.5346
  0
SEQEND
  8
LAYER10
  0
POLYLINE
  8
LAYER12
 62
     5
 66
     1
  6
CONTINUOUS
  0
VERTEX
  8
LAYER12
 62
     5
  6
CONTINUOUS
 10
10.0428
 20
2.5494
  0
VERTEX
  8
LAYER12
 62
     5
  6
CONTINUOUS
 10
11.0213
 20
2.5494
  0
SEQEND
  8
LAYER12
  0
POLYLINE
  8
LAYER12
 62
     5
 66
     1
  6
CONTINUOUS
  0
VERTEX
  8
LAYER12
 62
     5
  6
CONTINUOUS
 10
11.0213
 20
3.5331
  0
VERTEX
  8
LAYER12
 62
     5
  6
CONTINUOUS
 10
10.0428
 20
3.5331
  0
SEQEND
  8
LAYER12
  0
POLYLINE
  8
LAYER12
 62
     5
 66
     1
  6
CONTINUOUS
  0
VERTEX
  8
LAYER12
 62
     5
  6
CONTINUOUS
 10
11.0235
 20
2.5496
  0
VERTEX
  8
LAYER12
 62
     5
  6
CONTINUOUS
 10
11.0235
 20
3.5346
  0
SEQEND
  8
LAYER12
  0
POLYLINE
  8
LAYER12
 62
     5
 66
     1
  6
CONTINUOUS
  0
VERTEX
  8
LAYER12
 62
     5
  6
CONTINUOUS
 10
11.0235
 20
3.5346
  0
VERTEX
  8
LAYER12
 62
     5
  6
CONTINUOUS
 10
11.0235
 20
3.5346
  0
SEQEND
  8
LAYER12
  0
POLYLINE
  8
LAYER12
 62
     5
 66
     1
  6
CONTINUOUS
  0
VERTEX
  8
LAYER12
 62
     5
  6
CONTINUOUS
 10
11.0235
 20
3.5346
  0
VERTEX
  8
LAYER12
 62
     5
  6
CONTINUOUS
 10
11.0235
 20
3.5346
  0
SEQEND
  8
LAYER12
  0
POLYLINE
  8
LAYER12
 62
     5
 66
     1
  6
CONTINUOUS
  0
VERTEX
  8
LAYER12
 62
     5
  6
CONTINUOUS
 10
10.0398
 20
3.5312
  0
VERTEX
  8
LAYER12
 62
     5
  6
CONTINUOUS
 10
10.0398
 20
2.5523
  0
SEQEND
  8
LAYER12
  0
POLYLINE
  8
LAYER12
 62
     5
 66
     1
  6
CONTINUOUS
  0
VERTEX
  8
LAYER12
 62
     5
  6
CONTINUOUS
 10
11.0213
 20
2.5494
  0
VERTEX
  8
LAYER12
 62
     5
  6
CONTINUOUS
 10
11.0248
 20
2.5494
  0
SEQEND
  8
LAYER12
  0
POLYLINE
  8
LAYER12
 62
     5
 66
     1
  6
CONTINUOUS
  0
VERTEX
  8
LAYER12
 62
     5
  6
CONTINUOUS
 10
10.0398
 20
2.5523
  0
VERTEX
  8
LAYER12
 62
     5
  6
CONTINUOUS
 10
10.0398
 20
2.5496
  0
SEQEND
  8
LAYER12
  0
POLYLINE
  8
LAYER12
 62
     5
 66
     1
  6
CONTINUOUS
  0
VERTEX
  8
LAYER12
 62
     5
  6
CONTINUOUS
 10
10.0398
 20
2.5496
  0
VERTEX
  8
LAYER12
 62
     5
  6
CONTINUOUS
 10
10.0398
 20
2.5484
  0
SEQEND
  8
LAYER12
  0
POLYLINE
  8
LAYER12
 62
     5
 66
     1
  6
CONTINUOUS
  0
VERTEX
  8
LAYER12
 62
     5
  6
CONTINUOUS
 10
10.0398
 20
2.5484
  0
VERTEX
  8
LAYER12
 62
     5
  6
CONTINUOUS
 10
10.0398
 20
2.5496
  0
SEQEND
  8
LAYER12
  0
POLYLINE
  8
LAYER12
 62
     5
 66
     1
  6
CONTINUOUS
  0
VERTEX
  8
LAYER12
 62
     5
  6
CONTINUOUS
 10
10.0398
 20
2.5496
  0
VERTEX
  8
LAYER12
 62
     5
  6
CONTINUOUS
 10
10.0398
 20
2.5496
  0
SEQEND
  8
LAYER12
  0
POLYLINE
  8
LAYER12
 62
     5
 66
     1
  6
CONTINUOUS
  0
VERTEX
  8
LAYER12
 62
     5
  6
CONTINUOUS
 10
10.0398
 20
2.5494
  0
VERTEX
  8
LAYER12
 62
     5
  6
CONTINUOUS
 10
10.0428
 20
2.5494
  0
SEQEND
  8
LAYER12
  0
POLYLINE
  8
LAYER12
 62
     5
 66
     1
  6
CONTINUOUS
  0
VERTEX
  8
LAYER12
 62
     5
  6
CONTINUOUS
 10
11.0248
 20
3.5331
  0
VERTEX
  8
LAYER12
 62
     5
  6
CONTINUOUS
 10
11.0213
 20
3.5331
  0
SEQEND
  8
LAYER12
  0
POLYLINE
  8
LAYER12
 62
     5
 66
     1
  6
CONTINUOUS
  0
VERTEX
  8
LAYER12
 62
     5
  6
CONTINUOUS
 10
10.0428
 20
3.5331
  0
VERTEX
  8
LAYER12
 62
     5
  6
CONTINUOUS
 10
10.0398
 20
3.5331
  0
SEQEND
  8
LAYER12
  0
POLYLINE
  8
LAYER12
 62
     5
 66
     1
  6
CONTINUOUS
  0
VERTEX
  8
LAYER12
 62
     5
  6
CONTINUOUS
 10
10.0398
 20
3.5331
  0
VERTEX
  8
LAYER12
 62
     5
  6
CONTINUOUS
 10
10.0388
 20
3.5331
  0
SEQEND
  8
LAYER12
  0
POLYLINE
  8
LAYER12
 62
     5
 66
     1
  6
CONTINUOUS
  0
VERTEX
  8
LAYER12
 62
     5
  6
CONTINUOUS
 10
10.0398
 20
3.5351
  0
VERTEX
  8
LAYER12
 62
     5
  6
CONTINUOUS
 10
10.0398
 20
3.5346
  0
SEQEND
  8
LAYER12
  0
POLYLINE
  8
LAYER12
 62
     5
 66
     1
  6
CONTINUOUS
  0
VERTEX
  8
LAYER12
 62
     5
  6
CONTINUOUS
 10
10.0398
 20
3.5346
  0
VERTEX
  8
LAYER12
 62
     5
  6
CONTINUOUS
 10
10.0398
 20
3.5312
  0
SEQEND
  8
LAYER12
  0
POLYLINE
  8
LAYER12
 62
     5
 66
     1
  6
CONTINUOUS
  0
VERTEX
  8
LAYER12
 62
     5
  6
CONTINUOUS
 10
10.0398
 20
3.5346
  0
VERTEX
  8
LAYER12
 62
     5
  6
CONTINUOUS
 10
10.0398
 20
3.5351
  0
SEQEND
  8
LAYER12
  0
ENDSEC
  0
EOF
