  0
SECTION
  2
HEADER
  9
$ACADVER
  1
AC1004
  9
$EXTMIN
 10
32.9869
 20
25.3848
  9
$EXTMAX
 10
35.7640
 20
28.1619
  9
$LIMMIN
 10
32.9869
 20
25.3848
  9
$LIMMAX
 10
35.7640
 20
28.1619
  9
$INSBASE
 10
0.0
 20
0.0
  9
$VIEWCTR
 10
7.21903
 20
4.5
  9
$VIEWSIZE
 40
9.0
  9
$SNAPMODE
 70
     0
  9
$SNAPUNIT
 10
1.0
 20
1.0
  9
$SNAPBASE
 10
0.0
 20
0.0
  9
$SNAPANG
 50
0.0
  9
$SNAPSTYLE
 70
     0
  9
$SNAPISOPAIR
 70
     0
  9
$GRIDMODE
 70
     0
  9
$GRIDUNIT
 10
0.0
 20
0.0
  9
$ORTHOMODE
 70
     0
  9
$REGENMODE
 70
     1
  9
$FILLMODE
 70
     1
  9
$QTEXTMODE
 70
     0
  9
$DRAGMODE
 70
     2
  9
$LTSCALE
 40
1.0
  9
$OSMODE
 70
     0
  9
$ATTMODE
 70
     1
  9
$TEXTSIZE
 40
0.2
  9
$TRACEWID
 40
0.05
  9
$TEXTSTYLE
  7
STANDARD
  9
$CLAYER
  8
0
  9
$CELTYPE
  6
BYLAYER
  9
$CECOLOR
 62
   256
  9
$DIMSCALE
 40
1.0
  9
$DIMASZ
 40
0.18
  9
$DIMEXO
 40
0.0625
  9
$DIMDLI
 40
0.38
  9
$DIMRND
 40
0.0
  9
$DIMDLE
 40
0.0
  9
$DIMEXE
 40
0.18
  9
$DIMTP
 40
0.0
  9
$DIMTM
 40
0.0
  9
$DIMTXT
 40
0.18
  9
$DIMCEN
 40
0.09
  9
$DIMTSZ
 40
0.0
  9
$DIMTOL
 70
     0
  9
$DIMLIM
 70
     0
  9
$DIMTIH
 70
     1
  9
$DIMTOH
 70
     1
  9
$DIMSE1
 70
     0
  9
$DIMSE2
 70
     0
  9
$DIMTAD
 70
     0
  9
$DIMZIN
 70
     0
  9
$DIMBLK
  1

  9
$DIMASO
 70
     1
  9
$DIMSHO
 70
     0
  9
$DIMPOST
  1

  9
$DIMAPOST
  1

  9
$DIMALT
 70
     0
  9
$DIMALTD
 70
     2
  9
$DIMALTF
 40
25.4
  9
$DIMLFAC
 40
1.0
  9
$LUNITS
 70
     2
  9
$LUPREC
 70
     4
  9
$AXISMODE
 70
     0
  9
$AXISUNIT
 10
0.0
 20
0.0
  9
$SKETCHINC
 40
0.1
  9
$FILLETRAD
 40
0.0
  9
$AUNITS
 70
     0
  9
$AUPREC
 70
     0
  9
$MENU
  1
acad
  9
$ELEVATION
 40
0.0
  9
$THICKNESS
 40
0.0
  9
$VIEWDIR
 10
0.0
 20
0.0
 30
1.0
  9
$LIMCHECK
 70
     0
  9
$BLIPMODE
 70
     1
  9
$CHAMFERA
 40
0.0
  9
$CHAMFERB
 40
0.0
  9
$FASTZOOM
 70
     1
  9
$SKPOLY
 70
     0
  9
$TDCREATE
 40
2447222.5666886573
  9
$TDUPDATE
 40
2447222.5666886573
  9
$TDINDWG
 40
0.0000000000
  9
$TDUSRTIMER
 40
0.0000000000
  9
$USRTIMER
 70
     1
  9
$ANGBASE
 50
0.0
  9
$ANGDIR
 70
     0
  9
$PDMODE
 70
     0
  9
$PDSIZE
 40
0.0
  9
$PLINEWID
 40
0.0
  9
$COORDS
 70
     0
  9
$SPLFRAME
 70
     0
  9
$SPLINESEGS
 70
     8
  9
$ATTDIA
 70
     0
  9
$ATTREQ
 70
     1
  9
$USERI1
 70
     0
  9
$USERI2
 70
     0
  9
$USERI3
 70
     0
  9
$USERI4
 70
     0
  9
$USERI5
 70
     0
  9
$USERR1
 40
0.0
  9
$USERR2
 40
0.0
  9
$USERR3
 40
0.0
  9
$USERR4
 40
0.0
  9
$USERR5
 40
0.0
  0
ENDSEC
  0
SECTION
  2
TABLES
  0
TABLE
  2
LTYPE
 70
     13
  0
LTYPE
  2
CONTINUOUS
 70
    64
  3
Solid line
 72
    65
 73
     0
 40
0.0
  0
LTYPE
  2
DASHED
 70
    64
  3
__ __ __ __ __ __ __ __ __ __ __ __ __ __ __
 72
    65
 73
     2
 40
0.75
 49
0.5
 49
-0.25
  0
LTYPE
  2
HIDDEN
 70
    64
  3
_ _ _ _ _ _ _ _ _ _ _ _ _ _ _ _ _ _ _ _ _ _ _
 72
    65
 73
     2
 40
0.375
 49
0.25
 49
-0.125
  0
LTYPE
  2
CENTER
 70
    64
  3
____ _ ____ _ ____ _ ____ _ ____ _ ____ _ ____
 72
    65
 73
     4
 40
2.0
 49
1.25
 49
-0.25
 49
0.25
 49
-0.25
  0
LTYPE
  2
PHANTOM
 70
    64
  3
_____ _ _ _____ _ _ _____ _ _ _____ _ _ ____
 72
    65
 73
     6
 40
2.5
 49
1.25
 49
-0.25
 49
0.25
 49
-0.25
 49
0.25
 49
-0.25
  0
LTYPE
  2
DOT
 70
    64
  3
...............................................
 72
    65
 73
     2
 40
0.25
 49
0.0
 49
-0.25
  0
LTYPE
  2
DASHDOT
 70
    64
  3
__ . __ . __ . __ . __ . __ . __ . __ . __ . __
 72
    65
 73
     4
 40
1.0
 49
0.5
 49
-0.25
 49
0.0
 49
-0.25
  0
LTYPE
  2
BORDER
 70
    64
  3
__ __ . __ __ . __ __ . __ __ . __ __ . __ __
 72
    65
 73
     6
 40
1.75
 49
0.5
 49
-0.25
 49
0.5
 49
-0.25
 49
0.0
 49
-0.25
  0
LTYPE
  2
DIVIDE
 70
    64
  3
__ . . __ . . __ . . __ . . __ . . __ . . __
 72
    65
 73
     6
 40
1.25
 49
0.5
 49
-0.25
 49
0.0
 49
-0.25
 49
0.0
 49
-0.25
  0
LTYPE
  2
DCTYPE1
 70
    64
  3
__ . . __ . . __ . . __ . . __ . . __ . . __
 72
    65
 73
     8
 40
2.5
 49
0.5
 49
-0.25
 49
0.125
 49
-0.25
 49
0.25
 49
-0.25
 49
0.125
 49
-0.25
  0
LTYPE
  2
DCTYPE2
 70
    64
  3
__ . . __ . . __ . . __ . . __ . . __ . . __
 72
    65
 73
     6
 40
2.05
 49
1.0
 49
-0.3
 49
0.15
 49
-0.15
 49
0.15
 49
-0.3
  0
LTYPE
  2
DCTYPE3
 70
    64
  3
__ . . __ . . __ . . __ . . __ . . __ . . __
 72
    65
 73
     6
 40
2.5
 49
0.8
 49
-0.2
 49
0.8
 49
-0.2
 49
0.3
 49
-0.2
  0
LTYPE
  2
DCTYPE4
 70
    64
  3
__ . . __ . . __ . . __ . . __ . . __ . . __
 72
    65
 73
     10
 40
3.97
 49
1.75
 49
-0.3
 49
0.3
 49
-0.3
 49
0.06
 49
-0.3
 49
0.06
 49
-0.3
 49
0.3
 49
-0.3
  0
ENDTAB
  0
TABLE
  2
LAYER
 70
    153
  0
LAYER
  2
LAYER8
 70
 64
 62
     7
  6
CONTINUOUS
  0
LAYER
  2
LAYER25
 70
 64
 62
     5
  6
CONTINUOUS
  0
LAYER
  2
LAYER52
 70
 64
 62
     7
  6
CONTINUOUS
  0
LAYER
  2
LAYER56
 70
 64
 62
     7
  6
CONTINUOUS
  0
ENDTAB
  0
ENDSEC
  0
SECTION
  2
BLOCKS
  0
ENDSEC
  0
SECTION
  2
ENTITIES
  0
CIRCLE
  8
LAYER8
 62
     7
  6
CONTINUOUS
 10
34.1436
 20
26.1223
 40
0.0508
  0
CIRCLE
  8
LAYER8
 62
     7
  6
CONTINUOUS
 10
34.1195
 20
26.4440
 40
0.0533
  0
POLYLINE
  8
LAYER8
 62
     7
 66
     1
  6
CONTINUOUS
  0
VERTEX
  8
LAYER8
 62
     7
  6
CONTINUOUS
 10
35.5388
 20
26.5903
  0
VERTEX
  8
LAYER8
 62
     7
  6
CONTINUOUS
 10
35.5388
 20
26.5903
  0
SEQEND
  8
LAYER8
  0
POLYLINE
  8
LAYER8
 62
     7
 66
     1
  6
CONTINUOUS
  0
VERTEX
  8
LAYER8
 62
     7
  6
CONTINUOUS
 10
35.5388
 20
26.5903
  0
VERTEX
  8
LAYER8
 62
     7
  6
CONTINUOUS
 10
35.4966
 20
26.6040
  0
SEQEND
  8
LAYER8
  0
CIRCLE
  8
LAYER8
 62
     7
  6
CONTINUOUS
 10
35.6942
 20
27.1657
 40
0.0469
  0
CIRCLE
  8
LAYER8
 62
     7
  6
CONTINUOUS
 10
35.0029
 20
27.7329
 40
0.0548
  0
CIRCLE
  8
LAYER8
 62
     7
  6
CONTINUOUS
 10
34.8693
 20
27.0738
 40
0.0288
  0
CIRCLE
  8
LAYER8
 62
     7
  6
CONTINUOUS
 10
35.2065
 20
26.9581
 40
0.0406
  0
CIRCLE
  8
LAYER8
 62
     7
  6
CONTINUOUS
 10
35.4249
 20
26.7783
 40
0.0252
  0
CIRCLE
  8
LAYER8
 62
     7
  6
CONTINUOUS
 10
35.2177
 20
26.4964
 40
0.0510
  0
CIRCLE
  8
LAYER8
 62
     7
  6
CONTINUOUS
 10
35.7047
 20
26.0532
 40
0.0407
  0
CIRCLE
  8
LAYER8
 62
     7
  6
CONTINUOUS
 10
35.0867
 20
25.5714
 40
0.0509
  0
POLYLINE
  8
LAYER8
 62
     7
 66
     1
  6
CONTINUOUS
  0
VERTEX
  8
LAYER8
 62
     7
  6
CONTINUOUS
 10
33.6138
 20
27.4118
  0
VERTEX
  8
LAYER8
 62
     7
  6
CONTINUOUS
 10
33.6190
 20
27.4136
  0
VERTEX
  8
LAYER8
 62
     7
  6
CONTINUOUS
 10
33.6245
 20
27.4153
  0
VERTEX
  8
LAYER8
 62
     7
  6
CONTINUOUS
 10
33.6300
 20
27.4169
  0
VERTEX
  8
LAYER8
 62
     7
  6
CONTINUOUS
 10
33.6355
 20
27.4182
  0
VERTEX
  8
LAYER8
 62
     7
  6
CONTINUOUS
 10
33.6409
 20
27.4191
  0
VERTEX
  8
LAYER8
 62
     7
  6
CONTINUOUS
 10
33.6461
 20
27.4198
  0
VERTEX
  8
LAYER8
 62
     7
  6
CONTINUOUS
 10
33.6511
 20
27.4199
  0
VERTEX
  8
LAYER8
 62
     7
  6
CONTINUOUS
 10
33.6557
 20
27.4196
  0
VERTEX
  8
LAYER8
 62
     7
  6
CONTINUOUS
 10
33.6600
 20
27.4188
  0
VERTEX
  8
LAYER8
 62
     7
  6
CONTINUOUS
 10
33.6638
 20
27.4173
  0
VERTEX
  8
LAYER8
 62
     7
  6
CONTINUOUS
 10
33.6670
 20
27.4152
  0
VERTEX
  8
LAYER8
 62
     7
  6
CONTINUOUS
 10
33.6696
 20
27.4123
  0
VERTEX
  8
LAYER8
 62
     7
  6
CONTINUOUS
 10
33.6711
 20
27.4094
  0
VERTEX
  8
LAYER8
 62
     7
  6
CONTINUOUS
 10
33.6723
 20
27.4062
  0
VERTEX
  8
LAYER8
 62
     7
  6
CONTINUOUS
 10
33.6732
 20
27.4026
  0
VERTEX
  8
LAYER8
 62
     7
  6
CONTINUOUS
 10
33.6740
 20
27.3988
  0
VERTEX
  8
LAYER8
 62
     7
  6
CONTINUOUS
 10
33.6746
 20
27.3948
  0
VERTEX
  8
LAYER8
 62
     7
  6
CONTINUOUS
 10
33.6752
 20
27.3908
  0
VERTEX
  8
LAYER8
 62
     7
  6
CONTINUOUS
 10
33.6760
 20
27.3868
  0
VERTEX
  8
LAYER8
 62
     7
  6
CONTINUOUS
 10
33.6769
 20
27.3830
  0
VERTEX
  8
LAYER8
 62
     7
  6
CONTINUOUS
 10
33.6781
 20
27.3793
  0
VERTEX
  8
LAYER8
 62
     7
  6
CONTINUOUS
 10
33.6796
 20
27.3759
  0
VERTEX
  8
LAYER8
 62
     7
  6
CONTINUOUS
 10
33.6816
 20
27.3730
  0
VERTEX
  8
LAYER8
 62
     7
  6
CONTINUOUS
 10
33.6841
 20
27.3705
  0
VERTEX
  8
LAYER8
 62
     7
  6
CONTINUOUS
 10
33.6881
 20
27.3681
  0
VERTEX
  8
LAYER8
 62
     7
  6
CONTINUOUS
 10
33.6929
 20
27.3666
  0
VERTEX
  8
LAYER8
 62
     7
  6
CONTINUOUS
 10
33.6983
 20
27.3657
  0
VERTEX
  8
LAYER8
 62
     7
  6
CONTINUOUS
 10
33.7041
 20
27.3654
  0
VERTEX
  8
LAYER8
 62
     7
  6
CONTINUOUS
 10
33.7101
 20
27.3656
  0
VERTEX
  8
LAYER8
 62
     7
  6
CONTINUOUS
 10
33.7160
 20
27.3661
  0
VERTEX
  8
LAYER8
 62
     7
  6
CONTINUOUS
 10
33.7218
 20
27.3669
  0
VERTEX
  8
LAYER8
 62
     7
  6
CONTINUOUS
 10
33.7271
 20
27.3679
  0
VERTEX
  8
LAYER8
 62
     7
  6
CONTINUOUS
 10
33.7317
 20
27.3689
  0
VERTEX
  8
LAYER8
 62
     7
  6
CONTINUOUS
 10
33.7355
 20
27.3698
  0
VERTEX
  8
LAYER8
 62
     7
  6
CONTINUOUS
 10
33.7383
 20
27.3706
  0
VERTEX
  8
LAYER8
 62
     7
  6
CONTINUOUS
 10
33.7399
 20
27.3710
  0
VERTEX
  8
LAYER8
 62
     7
  6
CONTINUOUS
 10
33.7400
 20
27.3711
  0
VERTEX
  8
LAYER8
 62
     7
  6
CONTINUOUS
 10
33.7401
 20
27.3711
  0
VERTEX
  8
LAYER8
 62
     7
  6
CONTINUOUS
 10
33.7402
 20
27.3712
  0
VERTEX
  8
LAYER8
 62
     7
  6
CONTINUOUS
 10
33.7402
 20
27.3712
  0
VERTEX
  8
LAYER8
 62
     7
  6
CONTINUOUS
 10
33.7401
 20
27.3712
  0
VERTEX
  8
LAYER8
 62
     7
  6
CONTINUOUS
 10
33.7401
 20
27.3712
  0
VERTEX
  8
LAYER8
 62
     7
  6
CONTINUOUS
 10
33.7400
 20
27.3712
  0
VERTEX
  8
LAYER8
 62
     7
  6
CONTINUOUS
 10
33.7399
 20
27.3711
  0
VERTEX
  8
LAYER8
 62
     7
  6
CONTINUOUS
 10
33.7399
 20
27.3711
  0
VERTEX
  8
LAYER8
 62
     7
  6
CONTINUOUS
 10
33.7398
 20
27.3711
  0
VERTEX
  8
LAYER8
 62
     7
  6
CONTINUOUS
 10
33.7398
 20
27.3711
  0
VERTEX
  8
LAYER8
 62
     7
  6
CONTINUOUS
 10
33.7399
 20
27.3710
  0
VERTEX
  8
LAYER8
 62
     7
  6
CONTINUOUS
 10
33.7410
 20
27.3710
  0
VERTEX
  8
LAYER8
 62
     7
  6
CONTINUOUS
 10
33.7436
 20
27.3712
  0
VERTEX
  8
LAYER8
 62
     7
  6
CONTINUOUS
 10
33.7475
 20
27.3716
  0
VERTEX
  8
LAYER8
 62
     7
  6
CONTINUOUS
 10
33.7524
 20
27.3722
  0
VERTEX
  8
LAYER8
 62
     7
  6
CONTINUOUS
 10
33.7583
 20
27.3730
  0
VERTEX
  8
LAYER8
 62
     7
  6
CONTINUOUS
 10
33.7649
 20
27.3741
  0
VERTEX
  8
LAYER8
 62
     7
  6
CONTINUOUS
 10
33.7721
 20
27.3754
  0
VERTEX
  8
LAYER8
 62
     7
  6
CONTINUOUS
 10
33.7796
 20
27.3769
  0
VERTEX
  8
LAYER8
 62
     7
  6
CONTINUOUS
 10
33.7873
 20
27.3787
  0
VERTEX
  8
LAYER8
 62
     7
  6
CONTINUOUS
 10
33.7950
 20
27.3807
  0
VERTEX
  8
LAYER8
 62
     7
  6
CONTINUOUS
 10
33.8026
 20
27.3831
  0
VERTEX
  8
LAYER8
 62
     7
  6
CONTINUOUS
 10
33.8097
 20
27.3857
  0
VERTEX
  8
LAYER8
 62
     7
  6
CONTINUOUS
 10
33.8155
 20
27.3882
  0
VERTEX
  8
LAYER8
 62
     7
  6
CONTINUOUS
 10
33.8210
 20
27.3909
  0
VERTEX
  8
LAYER8
 62
     7
  6
CONTINUOUS
 10
33.8261
 20
27.3937
  0
VERTEX
  8
LAYER8
 62
     7
  6
CONTINUOUS
 10
33.8309
 20
27.3966
  0
VERTEX
  8
LAYER8
 62
     7
  6
CONTINUOUS
 10
33.8355
 20
27.3995
  0
VERTEX
  8
LAYER8
 62
     7
  6
CONTINUOUS
 10
33.8399
 20
27.4022
  0
VERTEX
  8
LAYER8
 62
     7
  6
CONTINUOUS
 10
33.8442
 20
27.4049
  0
VERTEX
  8
LAYER8
 62
     7
  6
CONTINUOUS
 10
33.8484
 20
27.4074
  0
VERTEX
  8
LAYER8
 62
     7
  6
CONTINUOUS
 10
33.8526
 20
27.4096
  0
VERTEX
  8
LAYER8
 62
     7
  6
CONTINUOUS
 10
33.8568
 20
27.4115
  0
VERTEX
  8
LAYER8
 62
     7
  6
CONTINUOUS
 10
33.8610
 20
27.4131
  0
VERTEX
  8
LAYER8
 62
     7
  6
CONTINUOUS
 10
33.8654
 20
27.4142
  0
VERTEX
  8
LAYER8
 62
     7
  6
CONTINUOUS
 10
33.8695
 20
27.4148
  0
VERTEX
  8
LAYER8
 62
     7
  6
CONTINUOUS
 10
33.8738
 20
27.4151
  0
VERTEX
  8
LAYER8
 62
     7
  6
CONTINUOUS
 10
33.8782
 20
27.4149
  0
VERTEX
  8
LAYER8
 62
     7
  6
CONTINUOUS
 10
33.8828
 20
27.4144
  0
VERTEX
  8
LAYER8
 62
     7
  6
CONTINUOUS
 10
33.8874
 20
27.4136
  0
VERTEX
  8
LAYER8
 62
     7
  6
CONTINUOUS
 10
33.8921
 20
27.4125
  0
VERTEX
  8
LAYER8
 62
     7
  6
CONTINUOUS
 10
33.8969
 20
27.4111
  0
VERTEX
  8
LAYER8
 62
     7
  6
CONTINUOUS
 10
33.9017
 20
27.4095
  0
VERTEX
  8
LAYER8
 62
     7
  6
CONTINUOUS
 10
33.9066
 20
27.4076
  0
VERTEX
  8
LAYER8
 62
     7
  6
CONTINUOUS
 10
33.9116
 20
27.4055
  0
VERTEX
  8
LAYER8
 62
     7
  6
CONTINUOUS
 10
33.9166
 20
27.4032
  0
VERTEX
  8
LAYER8
 62
     7
  6
CONTINUOUS
 10
33.9216
 20
27.4007
  0
VERTEX
  8
LAYER8
 62
     7
  6
CONTINUOUS
 10
33.9285
 20
27.3971
  0
VERTEX
  8
LAYER8
 62
     7
  6
CONTINUOUS
 10
33.9353
 20
27.3932
  0
VERTEX
  8
LAYER8
 62
     7
  6
CONTINUOUS
 10
33.9420
 20
27.3891
  0
VERTEX
  8
LAYER8
 62
     7
  6
CONTINUOUS
 10
33.9484
 20
27.3848
  0
VERTEX
  8
LAYER8
 62
     7
  6
CONTINUOUS
 10
33.9544
 20
27.3803
  0
VERTEX
  8
LAYER8
 62
     7
  6
CONTINUOUS
 10
33.9599
 20
27.3756
  0
VERTEX
  8
LAYER8
 62
     7
  6
CONTINUOUS
 10
33.9649
 20
27.3708
  0
VERTEX
  8
LAYER8
 62
     7
  6
CONTINUOUS
 10
33.9693
 20
27.3658
  0
VERTEX
  8
LAYER8
 62
     7
  6
CONTINUOUS
 10
33.9728
 20
27.3608
  0
VERTEX
  8
LAYER8
 62
     7
  6
CONTINUOUS
 10
33.9755
 20
27.3557
  0
VERTEX
  8
LAYER8
 62
     7
  6
CONTINUOUS
 10
33.9772
 20
27.3505
  0
VERTEX
  8
LAYER8
 62
     7
  6
CONTINUOUS
 10
33.9779
 20
27.3453
  0
VERTEX
  8
LAYER8
 62
     7
  6
CONTINUOUS
 10
33.9775
 20
27.3407
  0
VERTEX
  8
LAYER8
 62
     7
  6
CONTINUOUS
 10
33.9763
 20
27.3360
  0
VERTEX
  8
LAYER8
 62
     7
  6
CONTINUOUS
 10
33.9744
 20
27.3314
  0
VERTEX
  8
LAYER8
 62
     7
  6
CONTINUOUS
 10
33.9718
 20
27.3267
  0
VERTEX
  8
LAYER8
 62
     7
  6
CONTINUOUS
 10
33.9686
 20
27.3221
  0
VERTEX
  8
LAYER8
 62
     7
  6
CONTINUOUS
 10
33.9649
 20
27.3174
  0
VERTEX
  8
LAYER8
 62
     7
  6
CONTINUOUS
 10
33.9607
 20
27.3127
  0
VERTEX
  8
LAYER8
 62
     7
  6
CONTINUOUS
 10
33.9562
 20
27.3080
  0
VERTEX
  8
LAYER8
 62
     7
  6
CONTINUOUS
 10
33.9515
 20
27.3032
  0
VERTEX
  8
LAYER8
 62
     7
  6
CONTINUOUS
 10
33.9465
 20
27.2985
  0
VERTEX
  8
LAYER8
 62
     7
  6
CONTINUOUS
 10
33.9415
 20
27.2937
  0
VERTEX
  8
LAYER8
 62
     7
  6
CONTINUOUS
 10
33.9364
 20
27.2889
  0
VERTEX
  8
LAYER8
 62
     7
  6
CONTINUOUS
 10
33.9306
 20
27.2833
  0
VERTEX
  8
LAYER8
 62
     7
  6
CONTINUOUS
 10
33.9249
 20
27.2776
  0
VERTEX
  8
LAYER8
 62
     7
  6
CONTINUOUS
 10
33.9195
 20
27.2719
  0
VERTEX
  8
LAYER8
 62
     7
  6
CONTINUOUS
 10
33.9144
 20
27.2662
  0
VERTEX
  8
LAYER8
 62
     7
  6
CONTINUOUS
 10
33.9097
 20
27.2604
  0
VERTEX
  8
LAYER8
 62
     7
  6
CONTINUOUS
 10
33.9056
 20
27.2546
  0
VERTEX
  8
LAYER8
 62
     7
  6
CONTINUOUS
 10
33.9019
 20
27.2487
  0
VERTEX
  8
LAYER8
 62
     7
  6
CONTINUOUS
 10
33.8990
 20
27.2428
  0
VERTEX
  8
LAYER8
 62
     7
  6
CONTINUOUS
 10
33.8968
 20
27.2368
  0
VERTEX
  8
LAYER8
 62
     7
  6
CONTINUOUS
 10
33.8954
 20
27.2308
  0
VERTEX
  8
LAYER8
 62
     7
  6
CONTINUOUS
 10
33.8949
 20
27.2247
  0
VERTEX
  8
LAYER8
 62
     7
  6
CONTINUOUS
 10
33.8954
 20
27.2185
  0
VERTEX
  8
LAYER8
 62
     7
  6
CONTINUOUS
 10
33.8968
 20
27.2128
  0
VERTEX
  8
LAYER8
 62
     7
  6
CONTINUOUS
 10
33.8989
 20
27.2070
  0
VERTEX
  8
LAYER8
 62
     7
  6
CONTINUOUS
 10
33.9015
 20
27.2012
  0
VERTEX
  8
LAYER8
 62
     7
  6
CONTINUOUS
 10
33.9046
 20
27.1954
  0
VERTEX
  8
LAYER8
 62
     7
  6
CONTINUOUS
 10
33.9080
 20
27.1895
  0
VERTEX
  8
LAYER8
 62
     7
  6
CONTINUOUS
 10
33.9114
 20
27.1837
  0
VERTEX
  8
LAYER8
 62
     7
  6
CONTINUOUS
 10
33.9147
 20
27.1778
  0
VERTEX
  8
LAYER8
 62
     7
  6
CONTINUOUS
 10
33.9177
 20
27.1720
  0
VERTEX
  8
LAYER8
 62
     7
  6
CONTINUOUS
 10
33.9204
 20
27.1662
  0
VERTEX
  8
LAYER8
 62
     7
  6
CONTINUOUS
 10
33.9224
 20
27.1603
  0
VERTEX
  8
LAYER8
 62
     7
  6
CONTINUOUS
 10
33.9236
 20
27.1546
  0
VERTEX
  8
LAYER8
 62
     7
  6
CONTINUOUS
 10
33.9240
 20
27.1488
  0
VERTEX
  8
LAYER8
 62
     7
  6
CONTINUOUS
 10
33.9236
 20
27.1450
  0
VERTEX
  8
LAYER8
 62
     7
  6
CONTINUOUS
 10
33.9227
 20
27.1412
  0
VERTEX
  8
LAYER8
 62
     7
  6
CONTINUOUS
 10
33.9215
 20
27.1375
  0
VERTEX
  8
LAYER8
 62
     7
  6
CONTINUOUS
 10
33.9198
 20
27.1338
  0
VERTEX
  8
LAYER8
 62
     7
  6
CONTINUOUS
 10
33.9178
 20
27.1301
  0
VERTEX
  8
LAYER8
 62
     7
  6
CONTINUOUS
 10
33.9154
 20
27.1265
  0
VERTEX
  8
LAYER8
 62
     7
  6
CONTINUOUS
 10
33.9128
 20
27.1230
  0
VERTEX
  8
LAYER8
 62
     7
  6
CONTINUOUS
 10
33.9099
 20
27.1195
  0
VERTEX
  8
LAYER8
 62
     7
  6
CONTINUOUS
 10
33.9068
 20
27.1162
  0
VERTEX
  8
LAYER8
 62
     7
  6
CONTINUOUS
 10
33.9034
 20
27.1129
  0
VERTEX
  8
LAYER8
 62
     7
  6
CONTINUOUS
 10
33.9000
 20
27.1097
  0
VERTEX
  8
LAYER8
 62
     7
  6
CONTINUOUS
 10
33.8964
 20
27.1066
  0
VERTEX
  8
LAYER8
 62
     7
  6
CONTINUOUS
 10
33.8941
 20
27.1047
  0
VERTEX
  8
LAYER8
 62
     7
  6
CONTINUOUS
 10
33.8918
 20
27.1029
  0
VERTEX
  8
LAYER8
 62
     7
  6
CONTINUOUS
 10
33.8895
 20
27.1012
  0
VERTEX
  8
LAYER8
 62
     7
  6
CONTINUOUS
 10
33.8871
 20
27.0995
  0
VERTEX
  8
LAYER8
 62
     7
  6
CONTINUOUS
 10
33.8848
 20
27.0980
  0
VERTEX
  8
LAYER8
 62
     7
  6
CONTINUOUS
 10
33.8824
 20
27.0967
  0
VERTEX
  8
LAYER8
 62
     7
  6
CONTINUOUS
 10
33.8800
 20
27.0954
  0
VERTEX
  8
LAYER8
 62
     7
  6
CONTINUOUS
 10
33.8777
 20
27.0944
  0
VERTEX
  8
LAYER8
 62
     7
  6
CONTINUOUS
 10
33.8754
 20
27.0935
  0
VERTEX
  8
LAYER8
 62
     7
  6
CONTINUOUS
 10
33.8731
 20
27.0929
  0
VERTEX
  8
LAYER8
 62
     7
  6
CONTINUOUS
 10
33.8708
 20
27.0925
  0
VERTEX
  8
LAYER8
 62
     7
  6
CONTINUOUS
 10
33.8685
 20
27.0924
  0
VERTEX
  8
LAYER8
 62
     7
  6
CONTINUOUS
 10
33.8644
 20
27.0928
  0
VERTEX
  8
LAYER8
 62
     7
  6
CONTINUOUS
 10
33.8603
 20
27.0941
  0
VERTEX
  8
LAYER8
 62
     7
  6
CONTINUOUS
 10
33.8564
 20
27.0962
  0
VERTEX
  8
LAYER8
 62
     7
  6
CONTINUOUS
 10
33.8526
 20
27.0989
  0
VERTEX
  8
LAYER8
 62
     7
  6
CONTINUOUS
 10
33.8490
 20
27.1023
  0
VERTEX
  8
LAYER8
 62
     7
  6
CONTINUOUS
 10
33.8454
 20
27.1061
  0
VERTEX
  8
LAYER8
 62
     7
  6
CONTINUOUS
 10
33.8420
 20
27.1104
  0
VERTEX
  8
LAYER8
 62
     7
  6
CONTINUOUS
 10
33.8386
 20
27.1149
  0
VERTEX
  8
LAYER8
 62
     7
  6
CONTINUOUS
 10
33.8354
 20
27.1196
  0
VERTEX
  8
LAYER8
 62
     7
  6
CONTINUOUS
 10
33.8322
 20
27.1244
  0
VERTEX
  8
LAYER8
 62
     7
  6
CONTINUOUS
 10
33.8291
 20
27.1292
  0
VERTEX
  8
LAYER8
 62
     7
  6
CONTINUOUS
 10
33.8260
 20
27.1339
  0
VERTEX
  8
LAYER8
 62
     7
  6
CONTINUOUS
 10
33.8241
 20
27.1369
  0
VERTEX
  8
LAYER8
 62
     7
  6
CONTINUOUS
 10
33.8221
 20
27.1399
  0
VERTEX
  8
LAYER8
 62
     7
  6
CONTINUOUS
 10
33.8201
 20
27.1427
  0
VERTEX
  8
LAYER8
 62
     7
  6
CONTINUOUS
 10
33.8181
 20
27.1454
  0
VERTEX
  8
LAYER8
 62
     7
  6
CONTINUOUS
 10
33.8160
 20
27.1480
  0
VERTEX
  8
LAYER8
 62
     7
  6
CONTINUOUS
 10
33.8138
 20
27.1504
  0
VERTEX
  8
LAYER8
 62
     7
  6
CONTINUOUS
 10
33.8115
 20
27.1527
  0
VERTEX
  8
LAYER8
 62
     7
  6
CONTINUOUS
 10
33.8091
 20
27.1549
  0
VERTEX
  8
LAYER8
 62
     7
  6
CONTINUOUS
 10
33.8065
 20
27.1568
  0
VERTEX
  8
LAYER8
 62
     7
  6
CONTINUOUS
 10
33.8038
 20
27.1586
  0
VERTEX
  8
LAYER8
 62
     7
  6
CONTINUOUS
 10
33.8009
 20
27.1602
  0
VERTEX
  8
LAYER8
 62
     7
  6
CONTINUOUS
 10
33.7977
 20
27.1616
  0
VERTEX
  8
LAYER8
 62
     7
  6
CONTINUOUS
 10
33.7954
 20
27.1625
  0
VERTEX
  8
LAYER8
 62
     7
  6
CONTINUOUS
 10
33.7930
 20
27.1632
  0
VERTEX
  8
LAYER8
 62
     7
  6
CONTINUOUS
 10
33.7905
 20
27.1638
  0
VERTEX
  8
LAYER8
 62
     7
  6
CONTINUOUS
 10
33.7880
 20
27.1643
  0
VERTEX
  8
LAYER8
 62
     7
  6
CONTINUOUS
 10
33.7854
 20
27.1646
  0
VERTEX
  8
LAYER8
 62
     7
  6
CONTINUOUS
 10
33.7829
 20
27.1648
  0
VERTEX
  8
LAYER8
 62
     7
  6
CONTINUOUS
 10
33.7805
 20
27.1647
  0
VERTEX
  8
LAYER8
 62
     7
  6
CONTINUOUS
 10
33.7781
 20
27.1645
  0
VERTEX
  8
LAYER8
 62
     7
  6
CONTINUOUS
 10
33.7759
 20
27.1641
  0
VERTEX
  8
LAYER8
 62
     7
  6
CONTINUOUS
 10
33.7737
 20
27.1634
  0
VERTEX
  8
LAYER8
 62
     7
  6
CONTINUOUS
 10
33.7718
 20
27.1625
  0
VERTEX
  8
LAYER8
 62
     7
  6
CONTINUOUS
 10
33.7700
 20
27.1614
  0
VERTEX
  8
LAYER8
 62
     7
  6
CONTINUOUS
 10
33.7683
 20
27.1598
  0
VERTEX
  8
LAYER8
 62
     7
  6
CONTINUOUS
 10
33.7668
 20
27.1579
  0
VERTEX
  8
LAYER8
 62
     7
  6
CONTINUOUS
 10
33.7655
 20
27.1558
  0
VERTEX
  8
LAYER8
 62
     7
  6
CONTINUOUS
 10
33.7643
 20
27.1535
  0
VERTEX
  8
LAYER8
 62
     7
  6
CONTINUOUS
 10
33.7633
 20
27.1510
  0
VERTEX
  8
LAYER8
 62
     7
  6
CONTINUOUS
 10
33.7624
 20
27.1484
  0
VERTEX
  8
LAYER8
 62
     7
  6
CONTINUOUS
 10
33.7615
 20
27.1458
  0
VERTEX
  8
LAYER8
 62
     7
  6
CONTINUOUS
 10
33.7606
 20
27.1431
  0
VERTEX
  8
LAYER8
 62
     7
  6
CONTINUOUS
 10
33.7597
 20
27.1405
  0
VERTEX
  8
LAYER8
 62
     7
  6
CONTINUOUS
 10
33.7587
 20
27.1379
  0
VERTEX
  8
LAYER8
 62
     7
  6
CONTINUOUS
 10
33.7575
 20
27.1355
  0
VERTEX
  8
LAYER8
 62
     7
  6
CONTINUOUS
 10
33.7562
 20
27.1332
  0
VERTEX
  8
LAYER8
 62
     7
  6
CONTINUOUS
 10
33.7547
 20
27.1312
  0
VERTEX
  8
LAYER8
 62
     7
  6
CONTINUOUS
 10
33.7531
 20
27.1293
  0
VERTEX
  8
LAYER8
 62
     7
  6
CONTINUOUS
 10
33.7512
 20
27.1276
  0
VERTEX
  8
LAYER8
 62
     7
  6
CONTINUOUS
 10
33.7492
 20
27.1261
  0
VERTEX
  8
LAYER8
 62
     7
  6
CONTINUOUS
 10
33.7470
 20
27.1248
  0
VERTEX
  8
LAYER8
 62
     7
  6
CONTINUOUS
 10
33.7447
 20
27.1236
  0
VERTEX
  8
LAYER8
 62
     7
  6
CONTINUOUS
 10
33.7422
 20
27.1226
  0
VERTEX
  8
LAYER8
 62
     7
  6
CONTINUOUS
 10
33.7397
 20
27.1216
  0
VERTEX
  8
LAYER8
 62
     7
  6
CONTINUOUS
 10
33.7370
 20
27.1208
  0
VERTEX
  8
LAYER8
 62
     7
  6
CONTINUOUS
 10
33.7342
 20
27.1201
  0
VERTEX
  8
LAYER8
 62
     7
  6
CONTINUOUS
 10
33.7313
 20
27.1195
  0
VERTEX
  8
LAYER8
 62
     7
  6
CONTINUOUS
 10
33.7284
 20
27.1190
  0
VERTEX
  8
LAYER8
 62
     7
  6
CONTINUOUS
 10
33.7228
 20
27.1182
  0
VERTEX
  8
LAYER8
 62
     7
  6
CONTINUOUS
 10
33.7171
 20
27.1176
  0
VERTEX
  8
LAYER8
 62
     7
  6
CONTINUOUS
 10
33.7113
 20
27.1174
  0
VERTEX
  8
LAYER8
 62
     7
  6
CONTINUOUS
 10
33.7056
 20
27.1175
  0
VERTEX
  8
LAYER8
 62
     7
  6
CONTINUOUS
 10
33.7000
 20
27.1179
  0
VERTEX
  8
LAYER8
 62
     7
  6
CONTINUOUS
 10
33.6946
 20
27.1187
  0
VERTEX
  8
LAYER8
 62
     7
  6
CONTINUOUS
 10
33.6896
 20
27.1198
  0
VERTEX
  8
LAYER8
 62
     7
  6
CONTINUOUS
 10
33.6850
 20
27.1214
  0
VERTEX
  8
LAYER8
 62
     7
  6
CONTINUOUS
 10
33.6808
 20
27.1234
  0
VERTEX
  8
LAYER8
 62
     7
  6
CONTINUOUS
 10
33.6773
 20
27.1259
  0
VERTEX
  8
LAYER8
 62
     7
  6
CONTINUOUS
 10
33.6744
 20
27.1289
  0
VERTEX
  8
LAYER8
 62
     7
  6
CONTINUOUS
 10
33.6722
 20
27.1325
  0
VERTEX
  8
LAYER8
 62
     7
  6
CONTINUOUS
 10
33.6715
 20
27.1344
  0
VERTEX
  8
LAYER8
 62
     7
  6
CONTINUOUS
 10
33.6709
 20
27.1364
  0
VERTEX
  8
LAYER8
 62
     7
  6
CONTINUOUS
 10
33.6706
 20
27.1385
  0
VERTEX
  8
LAYER8
 62
     7
  6
CONTINUOUS
 10
33.6703
 20
27.1407
  0
VERTEX
  8
LAYER8
 62
     7
  6
CONTINUOUS
 10
33.6702
 20
27.1430
  0
VERTEX
  8
LAYER8
 62
     7
  6
CONTINUOUS
 10
33.6702
 20
27.1454
  0
VERTEX
  8
LAYER8
 62
     7
  6
CONTINUOUS
 10
33.6703
 20
27.1478
  0
VERTEX
  8
LAYER8
 62
     7
  6
CONTINUOUS
 10
33.6705
 20
27.1503
  0
VERTEX
  8
LAYER8
 62
     7
  6
CONTINUOUS
 10
33.6708
 20
27.1528
  0
VERTEX
  8
LAYER8
 62
     7
  6
CONTINUOUS
 10
33.6711
 20
27.1554
  0
VERTEX
  8
LAYER8
 62
     7
  6
CONTINUOUS
 10
33.6714
 20
27.1579
  0
VERTEX
  8
LAYER8
 62
     7
  6
CONTINUOUS
 10
33.6717
 20
27.1604
  0
VERTEX
  8
LAYER8
 62
     7
  6
CONTINUOUS
 10
33.6724
 20
27.1655
  0
VERTEX
  8
LAYER8
 62
     7
  6
CONTINUOUS
 10
33.6731
 20
27.1705
  0
VERTEX
  8
LAYER8
 62
     7
  6
CONTINUOUS
 10
33.6736
 20
27.1754
  0
VERTEX
  8
LAYER8
 62
     7
  6
CONTINUOUS
 10
33.6741
 20
27.1803
  0
VERTEX
  8
LAYER8
 62
     7
  6
CONTINUOUS
 10
33.6744
 20
27.1851
  0
VERTEX
  8
LAYER8
 62
     7
  6
CONTINUOUS
 10
33.6746
 20
27.1898
  0
VERTEX
  8
LAYER8
 62
     7
  6
CONTINUOUS
 10
33.6747
 20
27.1945
  0
VERTEX
  8
LAYER8
 62
     7
  6
CONTINUOUS
 10
33.6745
 20
27.1990
  0
VERTEX
  8
LAYER8
 62
     7
  6
CONTINUOUS
 10
33.6741
 20
27.2035
  0
VERTEX
  8
LAYER8
 62
     7
  6
CONTINUOUS
 10
33.6734
 20
27.2079
  0
VERTEX
  8
LAYER8
 62
     7
  6
CONTINUOUS
 10
33.6725
 20
27.2122
  0
VERTEX
  8
LAYER8
 62
     7
  6
CONTINUOUS
 10
33.6713
 20
27.2164
  0
VERTEX
  8
LAYER8
 62
     7
  6
CONTINUOUS
 10
33.6690
 20
27.2221
  0
VERTEX
  8
LAYER8
 62
     7
  6
CONTINUOUS
 10
33.6660
 20
27.2277
  0
VERTEX
  8
LAYER8
 62
     7
  6
CONTINUOUS
 10
33.6626
 20
27.2330
  0
VERTEX
  8
LAYER8
 62
     7
  6
CONTINUOUS
 10
33.6586
 20
27.2382
  0
VERTEX
  8
LAYER8
 62
     7
  6
CONTINUOUS
 10
33.6542
 20
27.2431
  0
VERTEX
  8
LAYER8
 62
     7
  6
CONTINUOUS
 10
33.6493
 20
27.2478
  0
VERTEX
  8
LAYER8
 62
     7
  6
CONTINUOUS
 10
33.6442
 20
27.2523
  0
VERTEX
  8
LAYER8
 62
     7
  6
CONTINUOUS
 10
33.6387
 20
27.2566
  0
VERTEX
  8
LAYER8
 62
     7
  6
CONTINUOUS
 10
33.6330
 20
27.2607
  0
VERTEX
  8
LAYER8
 62
     7
  6
CONTINUOUS
 10
33.6271
 20
27.2646
  0
VERTEX
  8
LAYER8
 62
     7
  6
CONTINUOUS
 10
33.6210
 20
27.2683
  0
VERTEX
  8
LAYER8
 62
     7
  6
CONTINUOUS
 10
33.6149
 20
27.2718
  0
VERTEX
  8
LAYER8
 62
     7
  6
CONTINUOUS
 10
33.6109
 20
27.2740
  0
VERTEX
  8
LAYER8
 62
     7
  6
CONTINUOUS
 10
33.6070
 20
27.2760
  0
VERTEX
  8
LAYER8
 62
     7
  6
CONTINUOUS
 10
33.6031
 20
27.2781
  0
VERTEX
  8
LAYER8
 62
     7
  6
CONTINUOUS
 10
33.5992
 20
27.2801
  0
VERTEX
  8
LAYER8
 62
     7
  6
CONTINUOUS
 10
33.5954
 20
27.2822
  0
VERTEX
  8
LAYER8
 62
     7
  6
CONTINUOUS
 10
33.5917
 20
27.2843
  0
VERTEX
  8
LAYER8
 62
     7
  6
CONTINUOUS
 10
33.5882
 20
27.2865
  0
VERTEX
  8
LAYER8
 62
     7
  6
CONTINUOUS
 10
33.5847
 20
27.2888
  0
VERTEX
  8
LAYER8
 62
     7
  6
CONTINUOUS
 10
33.5814
 20
27.2912
  0
VERTEX
  8
LAYER8
 62
     7
  6
CONTINUOUS
 10
33.5783
 20
27.2938
  0
VERTEX
  8
LAYER8
 62
     7
  6
CONTINUOUS
 10
33.5753
 20
27.2965
  0
VERTEX
  8
LAYER8
 62
     7
  6
CONTINUOUS
 10
33.5726
 20
27.2994
  0
VERTEX
  8
LAYER8
 62
     7
  6
CONTINUOUS
 10
33.5711
 20
27.3014
  0
VERTEX
  8
LAYER8
 62
     7
  6
CONTINUOUS
 10
33.5696
 20
27.3034
  0
VERTEX
  8
LAYER8
 62
     7
  6
CONTINUOUS
 10
33.5682
 20
27.3055
  0
VERTEX
  8
LAYER8
 62
     7
  6
CONTINUOUS
 10
33.5669
 20
27.3077
  0
VERTEX
  8
LAYER8
 62
     7
  6
CONTINUOUS
 10
33.5657
 20
27.3099
  0
VERTEX
  8
LAYER8
 62
     7
  6
CONTINUOUS
 10
33.5645
 20
27.3122
  0
VERTEX
  8
LAYER8
 62
     7
  6
CONTINUOUS
 10
33.5634
 20
27.3146
  0
VERTEX
  8
LAYER8
 62
     7
  6
CONTINUOUS
 10
33.5623
 20
27.3170
  0
VERTEX
  8
LAYER8
 62
     7
  6
CONTINUOUS
 10
33.5613
 20
27.3195
  0
VERTEX
  8
LAYER8
 62
     7
  6
CONTINUOUS
 10
33.5604
 20
27.3221
  0
VERTEX
  8
LAYER8
 62
     7
  6
CONTINUOUS
 10
33.5595
 20
27.3246
  0
VERTEX
  8
LAYER8
 62
     7
  6
CONTINUOUS
 10
33.5586
 20
27.3273
  0
VERTEX
  8
LAYER8
 62
     7
  6
CONTINUOUS
 10
33.5571
 20
27.3321
  0
VERTEX
  8
LAYER8
 62
     7
  6
CONTINUOUS
 10
33.5558
 20
27.3370
  0
VERTEX
  8
LAYER8
 62
     7
  6
CONTINUOUS
 10
33.5547
 20
27.3419
  0
VERTEX
  8
LAYER8
 62
     7
  6
CONTINUOUS
 10
33.5538
 20
27.3469
  0
VERTEX
  8
LAYER8
 62
     7
  6
CONTINUOUS
 10
33.5531
 20
27.3518
  0
VERTEX
  8
LAYER8
 62
     7
  6
CONTINUOUS
 10
33.5527
 20
27.3567
  0
VERTEX
  8
LAYER8
 62
     7
  6
CONTINUOUS
 10
33.5526
 20
27.3615
  0
VERTEX
  8
LAYER8
 62
     7
  6
CONTINUOUS
 10
33.5529
 20
27.3662
  0
VERTEX
  8
LAYER8
 62
     7
  6
CONTINUOUS
 10
33.5535
 20
27.3708
  0
VERTEX
  8
LAYER8
 62
     7
  6
CONTINUOUS
 10
33.5544
 20
27.3752
  0
SEQEND
  8
LAYER8
  0
POLYLINE
  8
LAYER8
 62
     7
 66
     1
  6
CONTINUOUS
  0
VERTEX
  8
LAYER8
 62
     7
  6
CONTINUOUS
 10
33.5544
 20
27.3752
  0
VERTEX
  8
LAYER8
 62
     7
  6
CONTINUOUS
 10
33.5559
 20
27.3793
  0
VERTEX
  8
LAYER8
 62
     7
  6
CONTINUOUS
 10
33.5577
 20
27.3832
  0
VERTEX
  8
LAYER8
 62
     7
  6
CONTINUOUS
 10
33.5604
 20
27.3873
  0
VERTEX
  8
LAYER8
 62
     7
  6
CONTINUOUS
 10
33.5636
 20
27.3910
  0
VERTEX
  8
LAYER8
 62
     7
  6
CONTINUOUS
 10
33.5674
 20
27.3944
  0
VERTEX
  8
LAYER8
 62
     7
  6
CONTINUOUS
 10
33.5716
 20
27.3975
  0
VERTEX
  8
LAYER8
 62
     7
  6
CONTINUOUS
 10
33.5761
 20
27.4002
  0
VERTEX
  8
LAYER8
 62
     7
  6
CONTINUOUS
 10
33.5810
 20
27.4027
  0
VERTEX
  8
LAYER8
 62
     7
  6
CONTINUOUS
 10
33.5861
 20
27.4048
  0
VERTEX
  8
LAYER8
 62
     7
  6
CONTINUOUS
 10
33.5915
 20
27.4067
  0
VERTEX
  8
LAYER8
 62
     7
  6
CONTINUOUS
 10
33.5970
 20
27.4084
  0
VERTEX
  8
LAYER8
 62
     7
  6
CONTINUOUS
 10
33.6026
 20
27.4097
  0
VERTEX
  8
LAYER8
 62
     7
  6
CONTINUOUS
 10
33.6082
 20
27.4109
  0
VERTEX
  8
LAYER8
 62
     7
  6
CONTINUOUS
 10
33.6138
 20
27.4118
  0
SEQEND
  8
LAYER8
  0
CIRCLE
  8
LAYER8
 62
     7
  6
CONTINUOUS
 10
33.0634
 20
27.7480
 40
0.0756
  0
CIRCLE
  8
LAYER8
 62
     7
  6
CONTINUOUS
 10
33.8701
 20
26.9244
 40
0.0279
  0
CIRCLE
  8
LAYER8
 62
     7
  6
CONTINUOUS
 10
33.6979
 20
25.9011
 40
0.0443
  0
POLYLINE
  8
LAYER8
 62
     1
 66
     1
  6
CONTINUOUS
  0
VERTEX
  8
LAYER8
 62
     1
  6
CONTINUOUS
 10
34.6733
 20
25.4035
  0
VERTEX
  8
LAYER8
 62
     1
  6
CONTINUOUS
 10
34.6947
 20
25.5131
  0
VERTEX
  8
LAYER8
 62
     1
  6
CONTINUOUS
 10
34.6705
 20
25.6665
  0
VERTEX
  8
LAYER8
 62
     1
  6
CONTINUOUS
 10
34.6654
 20
25.7003
  0
VERTEX
  8
LAYER8
 62
     1
  6
CONTINUOUS
 10
34.6470
 20
25.8451
  0
VERTEX
  8
LAYER8
 62
     1
  6
CONTINUOUS
 10
34.6357
 20
25.8821
  0
VERTEX
  8
LAYER8
 62
     1
  6
CONTINUOUS
 10
34.6071
 20
25.9518
  0
VERTEX
  8
LAYER8
 62
     1
  6
CONTINUOUS
 10
34.6157
 20
26.0943
  0
VERTEX
  8
LAYER8
 62
     1
  6
CONTINUOUS
 10
34.6332
 20
26.1619
  0
VERTEX
  8
LAYER8
 62
     1
  6
CONTINUOUS
 10
34.6539
 20
26.3065
  0
VERTEX
  8
LAYER8
 62
     1
  6
CONTINUOUS
 10
34.6586
 20
26.4140
  0
VERTEX
  8
LAYER8
 62
     1
  6
CONTINUOUS
 10
34.6646
 20
26.5586
  0
VERTEX
  8
LAYER8
 62
     1
  6
CONTINUOUS
 10
34.6708
 20
26.6241
  0
VERTEX
  8
LAYER8
 62
     1
  6
CONTINUOUS
 10
34.6920
 20
26.7684
  0
VERTEX
  8
LAYER8
 62
     1
  6
CONTINUOUS
 10
34.6962
 20
26.8763
  0
VERTEX
  8
LAYER8
 62
     1
  6
CONTINUOUS
 10
34.6727
 20
27.0203
  0
VERTEX
  8
LAYER8
 62
     1
  6
CONTINUOUS
 10
34.6661
 20
27.0999
  0
VERTEX
  8
LAYER8
 62
     1
  6
CONTINUOUS
 10
34.6952
 20
27.2405
  0
VERTEX
  8
LAYER8
 62
     1
  6
CONTINUOUS
 10
34.7333
 20
27.3804
  0
VERTEX
  8
LAYER8
 62
     1
  6
CONTINUOUS
 10
34.7356
 20
27.5252
  0
VERTEX
  8
LAYER8
 62
     1
  6
CONTINUOUS
 10
34.7318
 20
27.5623
  0
VERTEX
  8
LAYER8
 62
     1
  6
CONTINUOUS
 10
34.7291
 20
27.5874
  0
SEQEND
  8
LAYER8
  0
POLYLINE
  8
LAYER8
 62
     1
 66
     1
  6
CONTINUOUS
  0
VERTEX
  8
LAYER8
 62
     1
  6
CONTINUOUS
 10
33.9751
 20
26.4722
  0
VERTEX
  8
LAYER8
 62
     1
  6
CONTINUOUS
 10
33.9873
 20
26.3937
  0
VERTEX
  8
LAYER8
 62
     1
  6
CONTINUOUS
 10
34.0155
 20
26.3520
  0
VERTEX
  8
LAYER8
 62
     1
  6
CONTINUOUS
 10
34.0165
 20
26.2401
  0
VERTEX
  8
LAYER8
 62
     1
  6
CONTINUOUS
 10
34.0174
 20
26.1561
  0
VERTEX
  8
LAYER8
 62
     1
  6
CONTINUOUS
 10
33.9764
 20
26.0297
  0
VERTEX
  8
LAYER8
 62
     1
  6
CONTINUOUS
 10
33.9628
 20
25.9876
  0
VERTEX
  8
LAYER8
 62
     1
  6
CONTINUOUS
 10
33.9217
 20
25.8893
  0
VERTEX
  8
LAYER8
 62
     1
  6
CONTINUOUS
 10
33.9368
 20
25.8054
  0
VERTEX
  8
LAYER8
 62
     1
  6
CONTINUOUS
 10
33.9097
 20
25.7212
  0
VERTEX
  8
LAYER8
 62
     1
  6
CONTINUOUS
 10
33.9520
 20
25.6516
  0
VERTEX
  8
LAYER8
 62
     1
  6
CONTINUOUS
 10
33.9811
 20
25.5539
  0
VERTEX
  8
LAYER8
 62
     1
  6
CONTINUOUS
 10
34.0233
 20
25.5403
  0
VERTEX
  8
LAYER8
 62
     1
  6
CONTINUOUS
 10
34.0514
 20
25.5126
  0
VERTEX
  8
LAYER8
 62
     1
  6
CONTINUOUS
 10
34.0521
 20
25.4286
  0
VERTEX
  8
LAYER8
 62
     1
  6
CONTINUOUS
 10
34.0178
 20
25.3848
  0
SEQEND
  8
LAYER8
  0
POLYLINE
  8
LAYER8
 62
     1
 66
     1
  6
CONTINUOUS
  0
VERTEX
  8
LAYER8
 62
     1
  6
CONTINUOUS
 10
34.6697
 20
25.3848
  0
VERTEX
  8
LAYER8
 62
     1
  6
CONTINUOUS
 10
34.6733
 20
25.4035
  0
SEQEND
  8
LAYER8
  0
ARC
  8
LAYER8
 62
     7
  6
CONTINUOUS
 10
33.2061
 20
25.3856
 40
0.0533
 50
-0.8876
 51
-179.1125
  0
ARC
  8
LAYER8
 62
     7
  6
CONTINUOUS
 10
35.3539
 20
25.4270
 40
0.0560
 50
-48.9817
 51
-131.0280
  0
POLYLINE
  8
LAYER8
 62
     7
 66
     1
  6
CONTINUOUS
  0
VERTEX
  8
LAYER8
 62
     7
  6
CONTINUOUS
 10
35.4966
 20
26.6040
  0
VERTEX
  8
LAYER8
 62
     7
  6
CONTINUOUS
 10
35.4938
 20
26.6061
  0
VERTEX
  8
LAYER8
 62
     7
  6
CONTINUOUS
 10
35.4910
 20
26.6083
  0
VERTEX
  8
LAYER8
 62
     7
  6
CONTINUOUS
 10
35.4882
 20
26.6104
  0
VERTEX
  8
LAYER8
 62
     7
  6
CONTINUOUS
 10
35.4855
 20
26.6126
  0
VERTEX
  8
LAYER8
 62
     7
  6
CONTINUOUS
 10
35.4829
 20
26.6148
  0
VERTEX
  8
LAYER8
 62
     7
  6
CONTINUOUS
 10
35.4803
 20
26.6171
  0
VERTEX
  8
LAYER8
 62
     7
  6
CONTINUOUS
 10
35.4779
 20
26.6193
  0
VERTEX
  8
LAYER8
 62
     7
  6
CONTINUOUS
 10
35.4756
 20
26.6217
  0
VERTEX
  8
LAYER8
 62
     7
  6
CONTINUOUS
 10
35.4735
 20
26.6241
  0
VERTEX
  8
LAYER8
 62
     7
  6
CONTINUOUS
 10
35.4715
 20
26.6265
  0
VERTEX
  8
LAYER8
 62
     7
  6
CONTINUOUS
 10
35.4697
 20
26.6291
  0
VERTEX
  8
LAYER8
 62
     7
  6
CONTINUOUS
 10
35.4681
 20
26.6317
  0
VERTEX
  8
LAYER8
 62
     7
  6
CONTINUOUS
 10
35.4655
 20
26.6375
  0
VERTEX
  8
LAYER8
 62
     7
  6
CONTINUOUS
 10
35.4637
 20
26.6437
  0
VERTEX
  8
LAYER8
 62
     7
  6
CONTINUOUS
 10
35.4627
 20
26.6502
  0
VERTEX
  8
LAYER8
 62
     7
  6
CONTINUOUS
 10
35.4624
 20
26.6569
  0
VERTEX
  8
LAYER8
 62
     7
  6
CONTINUOUS
 10
35.4625
 20
26.6639
  0
VERTEX
  8
LAYER8
 62
     7
  6
CONTINUOUS
 10
35.4631
 20
26.6711
  0
VERTEX
  8
LAYER8
 62
     7
  6
CONTINUOUS
 10
35.4639
 20
26.6784
  0
VERTEX
  8
LAYER8
 62
     7
  6
CONTINUOUS
 10
35.4648
 20
26.6858
  0
VERTEX
  8
LAYER8
 62
     7
  6
CONTINUOUS
 10
35.4658
 20
26.6933
  0
VERTEX
  8
LAYER8
 62
     7
  6
CONTINUOUS
 10
35.4667
 20
26.7008
  0
VERTEX
  8
LAYER8
 62
     7
  6
CONTINUOUS
 10
35.4673
 20
26.7083
  0
VERTEX
  8
LAYER8
 62
     7
  6
CONTINUOUS
 10
35.4677
 20
26.7157
  0
VERTEX
  8
LAYER8
 62
     7
  6
CONTINUOUS
 10
35.4676
 20
26.7193
  0
VERTEX
  8
LAYER8
 62
     7
  6
CONTINUOUS
 10
35.4676
 20
26.7230
  0
VERTEX
  8
LAYER8
 62
     7
  6
CONTINUOUS
 10
35.4674
 20
26.7266
  0
VERTEX
  8
LAYER8
 62
     7
  6
CONTINUOUS
 10
35.4672
 20
26.7302
  0
VERTEX
  8
LAYER8
 62
     7
  6
CONTINUOUS
 10
35.4670
 20
26.7337
  0
VERTEX
  8
LAYER8
 62
     7
  6
CONTINUOUS
 10
35.4668
 20
26.7372
  0
VERTEX
  8
LAYER8
 62
     7
  6
CONTINUOUS
 10
35.4666
 20
26.7407
  0
VERTEX
  8
LAYER8
 62
     7
  6
CONTINUOUS
 10
35.4665
 20
26.7442
  0
VERTEX
  8
LAYER8
 62
     7
  6
CONTINUOUS
 10
35.4665
 20
26.7476
  0
VERTEX
  8
LAYER8
 62
     7
  6
CONTINUOUS
 10
35.4665
 20
26.7510
  0
VERTEX
  8
LAYER8
 62
     7
  6
CONTINUOUS
 10
35.4668
 20
26.7543
  0
VERTEX
  8
LAYER8
 62
     7
  6
CONTINUOUS
 10
35.4672
 20
26.7577
  0
VERTEX
  8
LAYER8
 62
     7
  6
CONTINUOUS
 10
35.4682
 20
26.7631
  0
VERTEX
  8
LAYER8
 62
     7
  6
CONTINUOUS
 10
35.4698
 20
26.7684
  0
VERTEX
  8
LAYER8
 62
     7
  6
CONTINUOUS
 10
35.4718
 20
26.7736
  0
VERTEX
  8
LAYER8
 62
     7
  6
CONTINUOUS
 10
35.4743
 20
26.7787
  0
VERTEX
  8
LAYER8
 62
     7
  6
CONTINUOUS
 10
35.4773
 20
26.7837
  0
VERTEX
  8
LAYER8
 62
     7
  6
CONTINUOUS
 10
35.4806
 20
26.7885
  0
VERTEX
  8
LAYER8
 62
     7
  6
CONTINUOUS
 10
35.4844
 20
26.7931
  0
VERTEX
  8
LAYER8
 62
     7
  6
CONTINUOUS
 10
35.4886
 20
26.7976
  0
VERTEX
  8
LAYER8
 62
     7
  6
CONTINUOUS
 10
35.4931
 20
26.8020
  0
VERTEX
  8
LAYER8
 62
     7
  6
CONTINUOUS
 10
35.4980
 20
26.8062
  0
VERTEX
  8
LAYER8
 62
     7
  6
CONTINUOUS
 10
35.5032
 20
26.8102
  0
VERTEX
  8
LAYER8
 62
     7
  6
CONTINUOUS
 10
35.5087
 20
26.8140
  0
VERTEX
  8
LAYER8
 62
     7
  6
CONTINUOUS
 10
35.5144
 20
26.8177
  0
VERTEX
  8
LAYER8
 62
     7
  6
CONTINUOUS
 10
35.5204
 20
26.8212
  0
VERTEX
  8
LAYER8
 62
     7
  6
CONTINUOUS
 10
35.5263
 20
26.8246
  0
VERTEX
  8
LAYER8
 62
     7
  6
CONTINUOUS
 10
35.5323
 20
26.8279
  0
VERTEX
  8
LAYER8
 62
     7
  6
CONTINUOUS
 10
35.5380
 20
26.8312
  0
VERTEX
  8
LAYER8
 62
     7
  6
CONTINUOUS
 10
35.5435
 20
26.8345
  0
VERTEX
  8
LAYER8
 62
     7
  6
CONTINUOUS
 10
35.5486
 20
26.8379
  0
VERTEX
  8
LAYER8
 62
     7
  6
CONTINUOUS
 10
35.5532
 20
26.8413
  0
VERTEX
  8
LAYER8
 62
     7
  6
CONTINUOUS
 10
35.5571
 20
26.8448
  0
VERTEX
  8
LAYER8
 62
     7
  6
CONTINUOUS
 10
35.5603
 20
26.8485
  0
VERTEX
  8
LAYER8
 62
     7
  6
CONTINUOUS
 10
35.5627
 20
26.8524
  0
VERTEX
  8
LAYER8
 62
     7
  6
CONTINUOUS
 10
35.5641
 20
26.8566
  0
VERTEX
  8
LAYER8
 62
     7
  6
CONTINUOUS
 10
35.5644
 20
26.8613
  0
VERTEX
  8
LAYER8
 62
     7
  6
CONTINUOUS
 10
35.5637
 20
26.8663
  0
VERTEX
  8
LAYER8
 62
     7
  6
CONTINUOUS
 10
35.5620
 20
26.8716
  0
VERTEX
  8
LAYER8
 62
     7
  6
CONTINUOUS
 10
35.5597
 20
26.8771
  0
VERTEX
  8
LAYER8
 62
     7
  6
CONTINUOUS
 10
35.5567
 20
26.8829
  0
VERTEX
  8
LAYER8
 62
     7
  6
CONTINUOUS
 10
35.5534
 20
26.8887
  0
VERTEX
  8
LAYER8
 62
     7
  6
CONTINUOUS
 10
35.5499
 20
26.8948
  0
VERTEX
  8
LAYER8
 62
     7
  6
CONTINUOUS
 10
35.5464
 20
26.9010
  0
VERTEX
  8
LAYER8
 62
     7
  6
CONTINUOUS
 10
35.5431
 20
26.9072
  0
VERTEX
  8
LAYER8
 62
     7
  6
CONTINUOUS
 10
35.5400
 20
26.9135
  0
VERTEX
  8
LAYER8
 62
     7
  6
CONTINUOUS
 10
35.5375
 20
26.9199
  0
VERTEX
  8
LAYER8
 62
     7
  6
CONTINUOUS
 10
35.5356
 20
26.9263
  0
VERTEX
  8
LAYER8
 62
     7
  6
CONTINUOUS
 10
35.5348
 20
26.9311
  0
VERTEX
  8
LAYER8
 62
     7
  6
CONTINUOUS
 10
35.5344
 20
26.9360
  0
VERTEX
  8
LAYER8
 62
     7
  6
CONTINUOUS
 10
35.5344
 20
26.9408
  0
VERTEX
  8
LAYER8
 62
     7
  6
CONTINUOUS
 10
35.5349
 20
26.9456
  0
VERTEX
  8
LAYER8
 62
     7
  6
CONTINUOUS
 10
35.5357
 20
26.9504
  0
VERTEX
  8
LAYER8
 62
     7
  6
CONTINUOUS
 10
35.5368
 20
26.9551
  0
VERTEX
  8
LAYER8
 62
     7
  6
CONTINUOUS
 10
35.5383
 20
26.9598
  0
VERTEX
  8
LAYER8
 62
     7
  6
CONTINUOUS
 10
35.5400
 20
26.9645
  0
VERTEX
  8
LAYER8
 62
     7
  6
CONTINUOUS
 10
35.5420
 20
26.9690
  0
VERTEX
  8
LAYER8
 62
     7
  6
CONTINUOUS
 10
35.5441
 20
26.9735
  0
VERTEX
  8
LAYER8
 62
     7
  6
CONTINUOUS
 10
35.5465
 20
26.9780
  0
VERTEX
  8
LAYER8
 62
     7
  6
CONTINUOUS
 10
35.5490
 20
26.9824
  0
VERTEX
  8
LAYER8
 62
     7
  6
CONTINUOUS
 10
35.5530
 20
26.9890
  0
VERTEX
  8
LAYER8
 62
     7
  6
CONTINUOUS
 10
35.5573
 20
26.9954
  0
VERTEX
  8
LAYER8
 62
     7
  6
CONTINUOUS
 10
35.5620
 20
27.0015
  0
VERTEX
  8
LAYER8
 62
     7
  6
CONTINUOUS
 10
35.5669
 20
27.0074
  0
VERTEX
  8
LAYER8
 62
     7
  6
CONTINUOUS
 10
35.5721
 20
27.0129
  0
VERTEX
  8
LAYER8
 62
     7
  6
CONTINUOUS
 10
35.5776
 20
27.0180
  0
VERTEX
  8
LAYER8
 62
     7
  6
CONTINUOUS
 10
35.5835
 20
27.0227
  0
VERTEX
  8
LAYER8
 62
     7
  6
CONTINUOUS
 10
35.5897
 20
27.0270
  0
VERTEX
  8
LAYER8
 62
     7
  6
CONTINUOUS
 10
35.5963
 20
27.0308
  0
VERTEX
  8
LAYER8
 62
     7
  6
CONTINUOUS
 10
35.6033
 20
27.0341
  0
VERTEX
  8
LAYER8
 62
     7
  6
CONTINUOUS
 10
35.6107
 20
27.0368
  0
VERTEX
  8
LAYER8
 62
     7
  6
CONTINUOUS
 10
35.6185
 20
27.0390
  0
VERTEX
  8
LAYER8
 62
     7
  6
CONTINUOUS
 10
35.6225
 20
27.0399
  0
VERTEX
  8
LAYER8
 62
     7
  6
CONTINUOUS
 10
35.6265
 20
27.0406
  0
VERTEX
  8
LAYER8
 62
     7
  6
CONTINUOUS
 10
35.6306
 20
27.0413
  0
VERTEX
  8
LAYER8
 62
     7
  6
CONTINUOUS
 10
35.6346
 20
27.0420
  0
VERTEX
  8
LAYER8
 62
     7
  6
CONTINUOUS
 10
35.6386
 20
27.0427
  0
VERTEX
  8
LAYER8
 62
     7
  6
CONTINUOUS
 10
35.6424
 20
27.0436
  0
VERTEX
  8
LAYER8
 62
     7
  6
CONTINUOUS
 10
35.6460
 20
27.0446
  0
VERTEX
  8
LAYER8
 62
     7
  6
CONTINUOUS
 10
35.6495
 20
27.0458
  0
VERTEX
  8
LAYER8
 62
     7
  6
CONTINUOUS
 10
35.6526
 20
27.0472
  0
VERTEX
  8
LAYER8
 62
     7
  6
CONTINUOUS
 10
35.6555
 20
27.0489
  0
VERTEX
  8
LAYER8
 62
     7
  6
CONTINUOUS
 10
35.6580
 20
27.0510
  0
VERTEX
  8
LAYER8
 62
     7
  6
CONTINUOUS
 10
35.6602
 20
27.0534
  0
VERTEX
  8
LAYER8
 62
     7
  6
CONTINUOUS
 10
35.6619
 20
27.0563
  0
VERTEX
  8
LAYER8
 62
     7
  6
CONTINUOUS
 10
35.6632
 20
27.0595
  0
VERTEX
  8
LAYER8
 62
     7
  6
CONTINUOUS
 10
35.6643
 20
27.0631
  0
VERTEX
  8
LAYER8
 62
     7
  6
CONTINUOUS
 10
35.6652
 20
27.0668
  0
VERTEX
  8
LAYER8
 62
     7
  6
CONTINUOUS
 10
35.6659
 20
27.0707
  0
VERTEX
  8
LAYER8
 62
     7
  6
CONTINUOUS
 10
35.6665
 20
27.0747
  0
VERTEX
  8
LAYER8
 62
     7
  6
CONTINUOUS
 10
35.6672
 20
27.0786
  0
VERTEX
  8
LAYER8
 62
     7
  6
CONTINUOUS
 10
35.6680
 20
27.0825
  0
VERTEX
  8
LAYER8
 62
     7
  6
CONTINUOUS
 10
35.6690
 20
27.0862
  0
VERTEX
  8
LAYER8
 62
     7
  6
CONTINUOUS
 10
35.6702
 20
27.0897
  0
VERTEX
  8
LAYER8
 62
     7
  6
CONTINUOUS
 10
35.6717
 20
27.0928
  0
VERTEX
  8
LAYER8
 62
     7
  6
CONTINUOUS
 10
35.6737
 20
27.0955
  0
VERTEX
  8
LAYER8
 62
     7
  6
CONTINUOUS
 10
35.6770
 20
27.0984
  0
VERTEX
  8
LAYER8
 62
     7
  6
CONTINUOUS
 10
35.6809
 20
27.1006
  0
VERTEX
  8
LAYER8
 62
     7
  6
CONTINUOUS
 10
35.6854
 20
27.1019
  0
VERTEX
  8
LAYER8
 62
     7
  6
CONTINUOUS
 10
35.6904
 20
27.1025
  0
VERTEX
  8
LAYER8
 62
     7
  6
CONTINUOUS
 10
35.6957
 20
27.1023
  0
VERTEX
  8
LAYER8
 62
     7
  6
CONTINUOUS
 10
35.7011
 20
27.1015
  0
VERTEX
  8
LAYER8
 62
     7
  6
CONTINUOUS
 10
35.7066
 20
27.0999
  0
VERTEX
  8
LAYER8
 62
     7
  6
CONTINUOUS
 10
35.7120
 20
27.0976
  0
VERTEX
  8
LAYER8
 62
     7
  6
CONTINUOUS
 10
35.7171
 20
27.0947
  0
VERTEX
  8
LAYER8
 62
     7
  6
CONTINUOUS
 10
35.7220
 20
27.0911
  0
VERTEX
  8
LAYER8
 62
     7
  6
CONTINUOUS
 10
35.7263
 20
27.0869
  0
VERTEX
  8
LAYER8
 62
     7
  6
CONTINUOUS
 10
35.7300
 20
27.0820
  0
VERTEX
  8
LAYER8
 62
     7
  6
CONTINUOUS
 10
35.7317
 20
27.0792
  0
VERTEX
  8
LAYER8
 62
     7
  6
CONTINUOUS
 10
35.7332
 20
27.0762
  0
VERTEX
  8
LAYER8
 62
     7
  6
CONTINUOUS
 10
35.7345
 20
27.0732
  0
VERTEX
  8
LAYER8
 62
     7
  6
CONTINUOUS
 10
35.7357
 20
27.0702
  0
VERTEX
  8
LAYER8
 62
     7
  6
CONTINUOUS
 10
35.7368
 20
27.0672
  0
VERTEX
  8
LAYER8
 62
     7
  6
CONTINUOUS
 10
35.7379
 20
27.0644
  0
VERTEX
  8
LAYER8
 62
     7
  6
CONTINUOUS
 10
35.7389
 20
27.0618
  0
VERTEX
  8
LAYER8
 62
     7
  6
CONTINUOUS
 10
35.7398
 20
27.0595
  0
VERTEX
  8
LAYER8
 62
     7
  6
CONTINUOUS
 10
35.7408
 20
27.0575
  0
VERTEX
  8
LAYER8
 62
     7
  6
CONTINUOUS
 10
35.7418
 20
27.0559
  0
VERTEX
  8
LAYER8
 62
     7
  6
CONTINUOUS
 10
35.7429
 20
27.0548
  0
VERTEX
  8
LAYER8
 62
     7
  6
CONTINUOUS
 10
35.7440
 20
27.0542
  0
VERTEX
  8
LAYER8
 62
     7
  6
CONTINUOUS
 10
35.7453
 20
27.0541
  0
VERTEX
  8
LAYER8
 62
     7
  6
CONTINUOUS
 10
35.7466
 20
27.0546
  0
VERTEX
  8
LAYER8
 62
     7
  6
CONTINUOUS
 10
35.7481
 20
27.0555
  0
VERTEX
  8
LAYER8
 62
     7
  6
CONTINUOUS
 10
35.7496
 20
27.0569
  0
VERTEX
  8
LAYER8
 62
     7
  6
CONTINUOUS
 10
35.7513
 20
27.0587
  0
VERTEX
  8
LAYER8
 62
     7
  6
CONTINUOUS
 10
35.7530
 20
27.0607
  0
VERTEX
  8
LAYER8
 62
     7
  6
CONTINUOUS
 10
35.7547
 20
27.0631
  0
VERTEX
  8
LAYER8
 62
     7
  6
CONTINUOUS
 10
35.7565
 20
27.0657
  0
VERTEX
  8
LAYER8
 62
     7
  6
CONTINUOUS
 10
35.7584
 20
27.0685
  0
VERTEX
  8
LAYER8
 62
     7
  6
CONTINUOUS
 10
35.7602
 20
27.0714
  0
VERTEX
  8
LAYER8
 62
     7
  6
CONTINUOUS
 10
35.7621
 20
27.0744
  0
VERTEX
  8
LAYER8
 62
     7
  6
CONTINUOUS
 10
35.7640
 20
27.0775
  0
SEQEND
  8
LAYER8
  0
POLYLINE
  8
LAYER8
 62
     7
 66
     1
  6
CONTINUOUS
  0
VERTEX
  8
LAYER8
 62
     7
  6
CONTINUOUS
 10
35.7640
 20
26.4946
  0
VERTEX
  8
LAYER8
 62
     7
  6
CONTINUOUS
 10
35.7628
 20
26.4945
  0
VERTEX
  8
LAYER8
 62
     7
  6
CONTINUOUS
 10
35.7616
 20
26.4944
  0
VERTEX
  8
LAYER8
 62
     7
  6
CONTINUOUS
 10
35.7604
 20
26.4943
  0
VERTEX
  8
LAYER8
 62
     7
  6
CONTINUOUS
 10
35.7592
 20
26.4943
  0
VERTEX
  8
LAYER8
 62
     7
  6
CONTINUOUS
 10
35.7579
 20
26.4942
  0
VERTEX
  8
LAYER8
 62
     7
  6
CONTINUOUS
 10
35.7567
 20
26.4942
  0
VERTEX
  8
LAYER8
 62
     7
  6
CONTINUOUS
 10
35.7555
 20
26.4942
  0
VERTEX
  8
LAYER8
 62
     7
  6
CONTINUOUS
 10
35.7543
 20
26.4942
  0
VERTEX
  8
LAYER8
 62
     7
  6
CONTINUOUS
 10
35.7531
 20
26.4942
  0
VERTEX
  8
LAYER8
 62
     7
  6
CONTINUOUS
 10
35.7518
 20
26.4943
  0
VERTEX
  8
LAYER8
 62
     7
  6
CONTINUOUS
 10
35.7506
 20
26.4943
  0
VERTEX
  8
LAYER8
 62
     7
  6
CONTINUOUS
 10
35.7494
 20
26.4944
  0
VERTEX
  8
LAYER8
 62
     7
  6
CONTINUOUS
 10
35.7452
 20
26.4951
  0
VERTEX
  8
LAYER8
 62
     7
  6
CONTINUOUS
 10
35.7410
 20
26.4961
  0
VERTEX
  8
LAYER8
 62
     7
  6
CONTINUOUS
 10
35.7369
 20
26.4974
  0
VERTEX
  8
LAYER8
 62
     7
  6
CONTINUOUS
 10
35.7328
 20
26.4991
  0
VERTEX
  8
LAYER8
 62
     7
  6
CONTINUOUS
 10
35.7289
 20
26.5011
  0
VERTEX
  8
LAYER8
 62
     7
  6
CONTINUOUS
 10
35.7251
 20
26.5033
  0
VERTEX
  8
LAYER8
 62
     7
  6
CONTINUOUS
 10
35.7215
 20
26.5059
  0
VERTEX
  8
LAYER8
 62
     7
  6
CONTINUOUS
 10
35.7181
 20
26.5087
  0
VERTEX
  8
LAYER8
 62
     7
  6
CONTINUOUS
 10
35.7150
 20
26.5117
  0
VERTEX
  8
LAYER8
 62
     7
  6
CONTINUOUS
 10
35.7122
 20
26.5150
  0
VERTEX
  8
LAYER8
 62
     7
  6
CONTINUOUS
 10
35.7097
 20
26.5184
  0
VERTEX
  8
LAYER8
 62
     7
  6
CONTINUOUS
 10
35.7075
 20
26.5220
  0
VERTEX
  8
LAYER8
 62
     7
  6
CONTINUOUS
 10
35.7051
 20
26.5275
  0
VERTEX
  8
LAYER8
 62
     7
  6
CONTINUOUS
 10
35.7033
 20
26.5331
  0
VERTEX
  8
LAYER8
 62
     7
  6
CONTINUOUS
 10
35.7021
 20
26.5390
  0
VERTEX
  8
LAYER8
 62
     7
  6
CONTINUOUS
 10
35.7012
 20
26.5450
  0
VERTEX
  8
LAYER8
 62
     7
  6
CONTINUOUS
 10
35.7006
 20
26.5511
  0
VERTEX
  8
LAYER8
 62
     7
  6
CONTINUOUS
 10
35.7002
 20
26.5573
  0
VERTEX
  8
LAYER8
 62
     7
  6
CONTINUOUS
 10
35.6997
 20
26.5634
  0
VERTEX
  8
LAYER8
 62
     7
  6
CONTINUOUS
 10
35.6991
 20
26.5695
  0
VERTEX
  8
LAYER8
 62
     7
  6
CONTINUOUS
 10
35.6982
 20
26.5754
  0
VERTEX
  8
LAYER8
 62
     7
  6
CONTINUOUS
 10
35.6970
 20
26.5811
  0
VERTEX
  8
LAYER8
 62
     7
  6
CONTINUOUS
 10
35.6952
 20
26.5867
  0
VERTEX
  8
LAYER8
 62
     7
  6
CONTINUOUS
 10
35.6927
 20
26.5919
  0
VERTEX
  8
LAYER8
 62
     7
  6
CONTINUOUS
 10
35.6906
 20
26.5954
  0
VERTEX
  8
LAYER8
 62
     7
  6
CONTINUOUS
 10
35.6880
 20
26.5987
  0
VERTEX
  8
LAYER8
 62
     7
  6
CONTINUOUS
 10
35.6851
 20
26.6018
  0
VERTEX
  8
LAYER8
 62
     7
  6
CONTINUOUS
 10
35.6819
 20
26.6047
  0
VERTEX
  8
LAYER8
 62
     7
  6
CONTINUOUS
 10
35.6785
 20
26.6074
  0
VERTEX
  8
LAYER8
 62
     7
  6
CONTINUOUS
 10
35.6748
 20
26.6098
  0
VERTEX
  8
LAYER8
 62
     7
  6
CONTINUOUS
 10
35.6710
 20
26.6121
  0
VERTEX
  8
LAYER8
 62
     7
  6
CONTINUOUS
 10
35.6670
 20
26.6141
  0
VERTEX
  8
LAYER8
 62
     7
  6
CONTINUOUS
 10
35.6629
 20
26.6158
  0
VERTEX
  8
LAYER8
 62
     7
  6
CONTINUOUS
 10
35.6587
 20
26.6173
  0
VERTEX
  8
LAYER8
 62
     7
  6
CONTINUOUS
 10
35.6545
 20
26.6185
  0
VERTEX
  8
LAYER8
 62
     7
  6
CONTINUOUS
 10
35.6503
 20
26.6194
  0
VERTEX
  8
LAYER8
 62
     7
  6
CONTINUOUS
 10
35.6456
 20
26.6202
  0
VERTEX
  8
LAYER8
 62
     7
  6
CONTINUOUS
 10
35.6410
 20
26.6206
  0
VERTEX
  8
LAYER8
 62
     7
  6
CONTINUOUS
 10
35.6364
 20
26.6207
  0
VERTEX
  8
LAYER8
 62
     7
  6
CONTINUOUS
 10
35.6318
 20
26.6207
  0
VERTEX
  8
LAYER8
 62
     7
  6
CONTINUOUS
 10
35.6272
 20
26.6205
  0
VERTEX
  8
LAYER8
 62
     7
  6
CONTINUOUS
 10
35.6226
 20
26.6202
  0
VERTEX
  8
LAYER8
 62
     7
  6
CONTINUOUS
 10
35.6180
 20
26.6198
  0
VERTEX
  8
LAYER8
 62
     7
  6
CONTINUOUS
 10
35.6134
 20
26.6194
  0
VERTEX
  8
LAYER8
 62
     7
  6
CONTINUOUS
 10
35.6087
 20
26.6191
  0
VERTEX
  8
LAYER8
 62
     7
  6
CONTINUOUS
 10
35.6040
 20
26.6189
  0
VERTEX
  8
LAYER8
 62
     7
  6
CONTINUOUS
 10
35.5993
 20
26.6188
  0
VERTEX
  8
LAYER8
 62
     7
  6
CONTINUOUS
 10
35.5945
 20
26.6189
  0
VERTEX
  8
LAYER8
 62
     7
  6
CONTINUOUS
 10
35.5920
 20
26.6190
  0
VERTEX
  8
LAYER8
 62
     7
  6
CONTINUOUS
 10
35.5896
 20
26.6192
  0
VERTEX
  8
LAYER8
 62
     7
  6
CONTINUOUS
 10
35.5872
 20
26.6194
  0
VERTEX
  8
LAYER8
 62
     7
  6
CONTINUOUS
 10
35.5847
 20
26.6196
  0
VERTEX
  8
LAYER8
 62
     7
  6
CONTINUOUS
 10
35.5823
 20
26.6198
  0
VERTEX
  8
LAYER8
 62
     7
  6
CONTINUOUS
 10
35.5799
 20
26.6199
  0
VERTEX
  8
LAYER8
 62
     7
  6
CONTINUOUS
 10
35.5775
 20
26.6200
  0
VERTEX
  8
LAYER8
 62
     7
  6
CONTINUOUS
 10
35.5752
 20
26.6199
  0
VERTEX
  8
LAYER8
 62
     7
  6
CONTINUOUS
 10
35.5729
 20
26.6198
  0
VERTEX
  8
LAYER8
 62
     7
  6
CONTINUOUS
 10
35.5707
 20
26.6196
  0
VERTEX
  8
LAYER8
 62
     7
  6
CONTINUOUS
 10
35.5685
 20
26.6192
  0
VERTEX
  8
LAYER8
 62
     7
  6
CONTINUOUS
 10
35.5664
 20
26.6187
  0
VERTEX
  8
LAYER8
 62
     7
  6
CONTINUOUS
 10
35.5636
 20
26.6176
  0
VERTEX
  8
LAYER8
 62
     7
  6
CONTINUOUS
 10
35.5609
 20
26.6162
  0
VERTEX
  8
LAYER8
 62
     7
  6
CONTINUOUS
 10
35.5583
 20
26.6145
  0
VERTEX
  8
LAYER8
 62
     7
  6
CONTINUOUS
 10
35.5559
 20
26.6125
  0
VERTEX
  8
LAYER8
 62
     7
  6
CONTINUOUS
 10
35.5535
 20
26.6102
  0
VERTEX
  8
LAYER8
 62
     7
  6
CONTINUOUS
 10
35.5512
 20
26.6078
  0
VERTEX
  8
LAYER8
 62
     7
  6
CONTINUOUS
 10
35.5491
 20
26.6052
  0
VERTEX
  8
LAYER8
 62
     7
  6
CONTINUOUS
 10
35.5469
 20
26.6024
  0
VERTEX
  8
LAYER8
 62
     7
  6
CONTINUOUS
 10
35.5449
 20
26.5995
  0
VERTEX
  8
LAYER8
 62
     7
  6
CONTINUOUS
 10
35.5428
 20
26.5965
  0
VERTEX
  8
LAYER8
 62
     7
  6
CONTINUOUS
 10
35.5408
 20
26.5934
  0
VERTEX
  8
LAYER8
 62
     7
  6
CONTINUOUS
 10
35.5388
 20
26.5903
  0
SEQEND
  8
LAYER8
  0
POLYLINE
  8
LAYER8
 62
     1
 66
     1
  6
CONTINUOUS
  0
VERTEX
  8
LAYER8
 62
     1
  6
CONTINUOUS
 10
34.2969
 20
28.1619
  0
VERTEX
  8
LAYER8
 62
     1
  6
CONTINUOUS
 10
34.3207
 20
28.1042
  0
VERTEX
  8
LAYER8
 62
     1
  6
CONTINUOUS
 10
34.3353
 20
28.0484
  0
VERTEX
  8
LAYER8
 62
     1
  6
CONTINUOUS
 10
34.2655
 20
28.0058
  0
VERTEX
  8
LAYER8
 62
     1
  6
CONTINUOUS
 10
34.2523
 20
27.9217
  0
VERTEX
  8
LAYER8
 62
     1
  6
CONTINUOUS
 10
34.2806
 20
27.8940
  0
VERTEX
  8
LAYER8
 62
     1
  6
CONTINUOUS
 10
34.3234
 20
27.8244
  0
VERTEX
  8
LAYER8
 62
     1
  6
CONTINUOUS
 10
34.2963
 20
27.7402
  0
VERTEX
  8
LAYER8
 62
     1
  6
CONTINUOUS
 10
34.2430
 20
27.6053
  0
VERTEX
  8
LAYER8
 62
     1
  6
CONTINUOUS
 10
34.2416
 20
27.5997
  0
VERTEX
  8
LAYER8
 62
     1
  6
CONTINUOUS
 10
34.2145
 20
27.5015
  0
VERTEX
  8
LAYER8
 62
     1
  6
CONTINUOUS
 10
34.1732
 20
27.4171
  0
VERTEX
  8
LAYER8
 62
     1
  6
CONTINUOUS
 10
34.1606
 20
27.2771
  0
VERTEX
  8
LAYER8
 62
     1
  6
CONTINUOUS
 10
34.1620
 20
27.1371
  0
VERTEX
  8
LAYER8
 62
     1
  6
CONTINUOUS
 10
34.1914
 20
26.9974
  0
VERTEX
  8
LAYER8
 62
     1
  6
CONTINUOUS
 10
34.2341
 20
26.9139
  0
VERTEX
  8
LAYER8
 62
     1
  6
CONTINUOUS
 10
34.1644
 20
26.8852
  0
VERTEX
  8
LAYER8
 62
     1
  6
CONTINUOUS
 10
34.1930
 20
26.8155
  0
VERTEX
  8
LAYER8
 62
     1
  6
CONTINUOUS
 10
34.1092
 20
26.7868
  0
VERTEX
  8
LAYER8
 62
     1
  6
CONTINUOUS
 10
34.1239
 20
26.7309
  0
VERTEX
  8
LAYER8
 62
     1
  6
CONTINUOUS
 10
34.1107
 20
26.6468
  0
VERTEX
  8
LAYER8
 62
     1
  6
CONTINUOUS
 10
34.0133
 20
26.5759
  0
VERTEX
  8
LAYER8
 62
     1
  6
CONTINUOUS
 10
33.9722
 20
26.4915
  0
VERTEX
  8
LAYER8
 62
     1
  6
CONTINUOUS
 10
33.9751
 20
26.4722
  0
SEQEND
  8
LAYER8
  0
POLYLINE
  8
LAYER8
 62
     1
 66
     1
  6
CONTINUOUS
  0
VERTEX
  8
LAYER8
 62
     1
  6
CONTINUOUS
 10
34.7291
 20
27.5874
  0
VERTEX
  8
LAYER8
 62
     1
  6
CONTINUOUS
 10
34.7162
 20
27.7070
  0
VERTEX
  8
LAYER8
 62
     1
  6
CONTINUOUS
 10
34.7157
 20
27.7582
  0
VERTEX
  8
LAYER8
 62
     1
  6
CONTINUOUS
 10
34.7362
 20
27.9011
  0
VERTEX
  8
LAYER8
 62
     1
  6
CONTINUOUS
 10
34.7552
 20
28.0105
  0
VERTEX
  8
LAYER8
 62
     1
  6
CONTINUOUS
 10
34.7656
 20
28.1550
  0
VERTEX
  8
LAYER8
 62
     1
  6
CONTINUOUS
 10
34.7663
 20
28.1619
  0
SEQEND
  8
LAYER8
  0
POLYLINE
  8
LAYER8
 62
     7
 66
     1
  6
CONTINUOUS
  0
VERTEX
  8
LAYER8
 62
     7
  6
CONTINUOUS
 10
33.5299
 20
28.1619
  0
VERTEX
  8
LAYER8
 62
     7
  6
CONTINUOUS
 10
33.5356
 20
28.1576
  0
VERTEX
  8
LAYER8
 62
     7
  6
CONTINUOUS
 10
33.5413
 20
28.1533
  0
VERTEX
  8
LAYER8
 62
     7
  6
CONTINUOUS
 10
33.5469
 20
28.1492
  0
VERTEX
  8
LAYER8
 62
     7
  6
CONTINUOUS
 10
33.5522
 20
28.1452
  0
VERTEX
  8
LAYER8
 62
     7
  6
CONTINUOUS
 10
33.5573
 20
28.1414
  0
VERTEX
  8
LAYER8
 62
     7
  6
CONTINUOUS
 10
33.5620
 20
28.1379
  0
VERTEX
  8
LAYER8
 62
     7
  6
CONTINUOUS
 10
33.5663
 20
28.1347
  0
VERTEX
  8
LAYER8
 62
     7
  6
CONTINUOUS
 10
33.5701
 20
28.1318
  0
VERTEX
  8
LAYER8
 62
     7
  6
CONTINUOUS
 10
33.5733
 20
28.1294
  0
VERTEX
  8
LAYER8
 62
     7
  6
CONTINUOUS
 10
33.5759
 20
28.1275
  0
VERTEX
  8
LAYER8
 62
     7
  6
CONTINUOUS
 10
33.5778
 20
28.1261
  0
VERTEX
  8
LAYER8
 62
     7
  6
CONTINUOUS
 10
33.5789
 20
28.1252
  0
VERTEX
  8
LAYER8
 62
     7
  6
CONTINUOUS
 10
33.5790
 20
28.1251
  0
VERTEX
  8
LAYER8
 62
     7
  6
CONTINUOUS
 10
33.5791
 20
28.1251
  0
VERTEX
  8
LAYER8
 62
     7
  6
CONTINUOUS
 10
33.5791
 20
28.1250
  0
VERTEX
  8
LAYER8
 62
     7
  6
CONTINUOUS
 10
33.5792
 20
28.1250
  0
VERTEX
  8
LAYER8
 62
     7
  6
CONTINUOUS
 10
33.5792
 20
28.1250
  0
VERTEX
  8
LAYER8
 62
     7
  6
CONTINUOUS
 10
33.5792
 20
28.1250
  0
VERTEX
  8
LAYER8
 62
     7
  6
CONTINUOUS
 10
33.5792
 20
28.1250
  0
VERTEX
  8
LAYER8
 62
     7
  6
CONTINUOUS
 10
33.5791
 20
28.1250
  0
VERTEX
  8
LAYER8
 62
     7
  6
CONTINUOUS
 10
33.5791
 20
28.1251
  0
VERTEX
  8
LAYER8
 62
     7
  6
CONTINUOUS
 10
33.5790
 20
28.1251
  0
VERTEX
  8
LAYER8
 62
     7
  6
CONTINUOUS
 10
33.5789
 20
28.1252
  0
VERTEX
  8
LAYER8
 62
     7
  6
CONTINUOUS
 10
33.5789
 20
28.1252
  0
SEQEND
  8
LAYER8
  0
ARC
  8
LAYER8
 62
     7
  6
CONTINUOUS
 10
33.0673
 20
28.1468
 40
0.0314
 50
151.1968
 51
28.8001
  0
POLYLINE
  8
LAYER8
 62
     7
 66
     1
  6
CONTINUOUS
  0
VERTEX
  8
LAYER8
 62
     7
  6
CONTINUOUS
 10
33.5789
 20
28.1252
  0
VERTEX
  8
LAYER8
 62
     7
  6
CONTINUOUS
 10
33.5822
 20
28.1218
  0
VERTEX
  8
LAYER8
 62
     7
  6
CONTINUOUS
 10
33.5855
 20
28.1184
  0
VERTEX
  8
LAYER8
 62
     7
  6
CONTINUOUS
 10
33.5889
 20
28.1150
  0
VERTEX
  8
LAYER8
 62
     7
  6
CONTINUOUS
 10
33.5923
 20
28.1116
  0
VERTEX
  8
LAYER8
 62
     7
  6
CONTINUOUS
 10
33.5957
 20
28.1082
  0
VERTEX
  8
LAYER8
 62
     7
  6
CONTINUOUS
 10
33.5991
 20
28.1047
  0
VERTEX
  8
LAYER8
 62
     7
  6
CONTINUOUS
 10
33.6026
 20
28.1013
  0
VERTEX
  8
LAYER8
 62
     7
  6
CONTINUOUS
 10
33.6062
 20
28.0978
  0
VERTEX
  8
LAYER8
 62
     7
  6
CONTINUOUS
 10
33.6098
 20
28.0943
  0
VERTEX
  8
LAYER8
 62
     7
  6
CONTINUOUS
 10
33.6135
 20
28.0907
  0
VERTEX
  8
LAYER8
 62
     7
  6
CONTINUOUS
 10
33.6173
 20
28.0872
  0
VERTEX
  8
LAYER8
 62
     7
  6
CONTINUOUS
 10
33.6211
 20
28.0836
  0
VERTEX
  8
LAYER8
 62
     7
  6
CONTINUOUS
 10
33.6257
 20
28.0793
  0
VERTEX
  8
LAYER8
 62
     7
  6
CONTINUOUS
 10
33.6304
 20
28.0749
  0
VERTEX
  8
LAYER8
 62
     7
  6
CONTINUOUS
 10
33.6351
 20
28.0705
  0
VERTEX
  8
LAYER8
 62
     7
  6
CONTINUOUS
 10
33.6397
 20
28.0661
  0
VERTEX
  8
LAYER8
 62
     7
  6
CONTINUOUS
 10
33.6441
 20
28.0616
  0
VERTEX
  8
LAYER8
 62
     7
  6
CONTINUOUS
 10
33.6482
 20
28.0570
  0
VERTEX
  8
LAYER8
 62
     7
  6
CONTINUOUS
 10
33.6520
 20
28.0523
  0
VERTEX
  8
LAYER8
 62
     7
  6
CONTINUOUS
 10
33.6554
 20
28.0476
  0
VERTEX
  8
LAYER8
 62
     7
  6
CONTINUOUS
 10
33.6584
 20
28.0428
  0
VERTEX
  8
LAYER8
 62
     7
  6
CONTINUOUS
 10
33.6607
 20
28.0380
  0
VERTEX
  8
LAYER8
 62
     7
  6
CONTINUOUS
 10
33.6624
 20
28.0330
  0
VERTEX
  8
LAYER8
 62
     7
  6
CONTINUOUS
 10
33.6634
 20
28.0280
  0
VERTEX
  8
LAYER8
 62
     7
  6
CONTINUOUS
 10
33.6636
 20
28.0215
  0
VERTEX
  8
LAYER8
 62
     7
  6
CONTINUOUS
 10
33.6627
 20
28.0149
  0
VERTEX
  8
LAYER8
 62
     7
  6
CONTINUOUS
 10
33.6610
 20
28.0082
  0
VERTEX
  8
LAYER8
 62
     7
  6
CONTINUOUS
 10
33.6585
 20
28.0014
  0
VERTEX
  8
LAYER8
 62
     7
  6
CONTINUOUS
 10
33.6555
 20
27.9945
  0
VERTEX
  8
LAYER8
 62
     7
  6
CONTINUOUS
 10
33.6523
 20
27.9875
  0
VERTEX
  8
LAYER8
 62
     7
  6
CONTINUOUS
 10
33.6489
 20
27.9804
  0
VERTEX
  8
LAYER8
 62
     7
  6
CONTINUOUS
 10
33.6455
 20
27.9732
  0
VERTEX
  8
LAYER8
 62
     7
  6
CONTINUOUS
 10
33.6425
 20
27.9659
  0
VERTEX
  8
LAYER8
 62
     7
  6
CONTINUOUS
 10
33.6398
 20
27.9586
  0
VERTEX
  8
LAYER8
 62
     7
  6
CONTINUOUS
 10
33.6379
 20
27.9512
  0
VERTEX
  8
LAYER8
 62
     7
  6
CONTINUOUS
 10
33.6367
 20
27.9438
  0
VERTEX
  8
LAYER8
 62
     7
  6
CONTINUOUS
 10
33.6366
 20
27.9414
  0
VERTEX
  8
LAYER8
 62
     7
  6
CONTINUOUS
 10
33.6365
 20
27.9391
  0
VERTEX
  8
LAYER8
 62
     7
  6
CONTINUOUS
 10
33.6365
 20
27.9367
  0
VERTEX
  8
LAYER8
 62
     7
  6
CONTINUOUS
 10
33.6365
 20
27.9344
  0
VERTEX
  8
LAYER8
 62
     7
  6
CONTINUOUS
 10
33.6366
 20
27.9320
  0
VERTEX
  8
LAYER8
 62
     7
  6
CONTINUOUS
 10
33.6367
 20
27.9297
  0
VERTEX
  8
LAYER8
 62
     7
  6
CONTINUOUS
 10
33.6368
 20
27.9273
  0
VERTEX
  8
LAYER8
 62
     7
  6
CONTINUOUS
 10
33.6369
 20
27.9250
  0
VERTEX
  8
LAYER8
 62
     7
  6
CONTINUOUS
 10
33.6369
 20
27.9227
  0
VERTEX
  8
LAYER8
 62
     7
  6
CONTINUOUS
 10
33.6369
 20
27.9204
  0
VERTEX
  8
LAYER8
 62
     7
  6
CONTINUOUS
 10
33.6369
 20
27.9181
  0
VERTEX
  8
LAYER8
 62
     7
  6
CONTINUOUS
 10
33.6367
 20
27.9158
  0
VERTEX
  8
LAYER8
 62
     7
  6
CONTINUOUS
 10
33.6363
 20
27.9123
  0
VERTEX
  8
LAYER8
 62
     7
  6
CONTINUOUS
 10
33.6356
 20
27.9088
  0
VERTEX
  8
LAYER8
 62
     7
  6
CONTINUOUS
 10
33.6348
 20
27.9053
  0
VERTEX
  8
LAYER8
 62
     7
  6
CONTINUOUS
 10
33.6338
 20
27.9019
  0
VERTEX
  8
LAYER8
 62
     7
  6
CONTINUOUS
 10
33.6326
 20
27.8985
  0
VERTEX
  8
LAYER8
 62
     7
  6
CONTINUOUS
 10
33.6314
 20
27.8950
  0
VERTEX
  8
LAYER8
 62
     7
  6
CONTINUOUS
 10
33.6301
 20
27.8916
  0
VERTEX
  8
LAYER8
 62
     7
  6
CONTINUOUS
 10
33.6287
 20
27.8881
  0
VERTEX
  8
LAYER8
 62
     7
  6
CONTINUOUS
 10
33.6273
 20
27.8846
  0
VERTEX
  8
LAYER8
 62
     7
  6
CONTINUOUS
 10
33.6259
 20
27.8810
  0
VERTEX
  8
LAYER8
 62
     7
  6
CONTINUOUS
 10
33.6245
 20
27.8774
  0
VERTEX
  8
LAYER8
 62
     7
  6
CONTINUOUS
 10
33.6232
 20
27.8737
  0
VERTEX
  8
LAYER8
 62
     7
  6
CONTINUOUS
 10
33.6215
 20
27.8684
  0
VERTEX
  8
LAYER8
 62
     7
  6
CONTINUOUS
 10
33.6199
 20
27.8629
  0
VERTEX
  8
LAYER8
 62
     7
  6
CONTINUOUS
 10
33.6183
 20
27.8575
  0
VERTEX
  8
LAYER8
 62
     7
  6
CONTINUOUS
 10
33.6167
 20
27.8520
  0
VERTEX
  8
LAYER8
 62
     7
  6
CONTINUOUS
 10
33.6151
 20
27.8467
  0
VERTEX
  8
LAYER8
 62
     7
  6
CONTINUOUS
 10
33.6133
 20
27.8415
  0
VERTEX
  8
LAYER8
 62
     7
  6
CONTINUOUS
 10
33.6113
 20
27.8366
  0
VERTEX
  8
LAYER8
 62
     7
  6
CONTINUOUS
 10
33.6089
 20
27.8319
  0
VERTEX
  8
LAYER8
 62
     7
  6
CONTINUOUS
 10
33.6063
 20
27.8276
  0
VERTEX
  8
LAYER8
 62
     7
  6
CONTINUOUS
 10
33.6032
 20
27.8237
  0
VERTEX
  8
LAYER8
 62
     7
  6
CONTINUOUS
 10
33.5997
 20
27.8203
  0
VERTEX
  8
LAYER8
 62
     7
  6
CONTINUOUS
 10
33.5956
 20
27.8175
  0
VERTEX
  8
LAYER8
 62
     7
  6
CONTINUOUS
 10
33.5925
 20
27.8159
  0
VERTEX
  8
LAYER8
 62
     7
  6
CONTINUOUS
 10
33.5892
 20
27.8146
  0
VERTEX
  8
LAYER8
 62
     7
  6
CONTINUOUS
 10
33.5857
 20
27.8136
  0
VERTEX
  8
LAYER8
 62
     7
  6
CONTINUOUS
 10
33.5821
 20
27.8128
  0
VERTEX
  8
LAYER8
 62
     7
  6
CONTINUOUS
 10
33.5783
 20
27.8124
  0
VERTEX
  8
LAYER8
 62
     7
  6
CONTINUOUS
 10
33.5746
 20
27.8122
  0
VERTEX
  8
LAYER8
 62
     7
  6
CONTINUOUS
 10
33.5708
 20
27.8123
  0
VERTEX
  8
LAYER8
 62
     7
  6
CONTINUOUS
 10
33.5671
 20
27.8127
  0
VERTEX
  8
LAYER8
 62
     7
  6
CONTINUOUS
 10
33.5635
 20
27.8133
  0
VERTEX
  8
LAYER8
 62
     7
  6
CONTINUOUS
 10
33.5600
 20
27.8143
  0
VERTEX
  8
LAYER8
 62
     7
  6
CONTINUOUS
 10
33.5567
 20
27.8155
  0
VERTEX
  8
LAYER8
 62
     7
  6
CONTINUOUS
 10
33.5536
 20
27.8171
  0
VERTEX
  8
LAYER8
 62
     7
  6
CONTINUOUS
 10
33.5502
 20
27.8193
  0
VERTEX
  8
LAYER8
 62
     7
  6
CONTINUOUS
 10
33.5472
 20
27.8218
  0
VERTEX
  8
LAYER8
 62
     7
  6
CONTINUOUS
 10
33.5445
 20
27.8248
  0
VERTEX
  8
LAYER8
 62
     7
  6
CONTINUOUS
 10
33.5421
 20
27.8280
  0
VERTEX
  8
LAYER8
 62
     7
  6
CONTINUOUS
 10
33.5398
 20
27.8314
  0
VERTEX
  8
LAYER8
 62
     7
  6
CONTINUOUS
 10
33.5377
 20
27.8351
  0
VERTEX
  8
LAYER8
 62
     7
  6
CONTINUOUS
 10
33.5357
 20
27.8389
  0
VERTEX
  8
LAYER8
 62
     7
  6
CONTINUOUS
 10
33.5337
 20
27.8428
  0
VERTEX
  8
LAYER8
 62
     7
  6
CONTINUOUS
 10
33.5317
 20
27.8468
  0
VERTEX
  8
LAYER8
 62
     7
  6
CONTINUOUS
 10
33.5297
 20
27.8508
  0
VERTEX
  8
LAYER8
 62
     7
  6
CONTINUOUS
 10
33.5276
 20
27.8548
  0
VERTEX
  8
LAYER8
 62
     7
  6
CONTINUOUS
 10
33.5253
 20
27.8588
  0
VERTEX
  8
LAYER8
 62
     7
  6
CONTINUOUS
 10
33.5228
 20
27.8626
  0
VERTEX
  8
LAYER8
 62
     7
  6
CONTINUOUS
 10
33.5201
 20
27.8663
  0
VERTEX
  8
LAYER8
 62
     7
  6
CONTINUOUS
 10
33.5172
 20
27.8698
  0
VERTEX
  8
LAYER8
 62
     7
  6
CONTINUOUS
 10
33.5141
 20
27.8731
  0
VERTEX
  8
LAYER8
 62
     7
  6
CONTINUOUS
 10
33.5108
 20
27.8761
  0
VERTEX
  8
LAYER8
 62
     7
  6
CONTINUOUS
 10
33.5074
 20
27.8788
  0
VERTEX
  8
LAYER8
 62
     7
  6
CONTINUOUS
 10
33.5037
 20
27.8812
  0
VERTEX
  8
LAYER8
 62
     7
  6
CONTINUOUS
 10
33.4999
 20
27.8832
  0
VERTEX
  8
LAYER8
 62
     7
  6
CONTINUOUS
 10
33.4960
 20
27.8847
  0
VERTEX
  8
LAYER8
 62
     7
  6
CONTINUOUS
 10
33.4919
 20
27.8858
  0
VERTEX
  8
LAYER8
 62
     7
  6
CONTINUOUS
 10
33.4876
 20
27.8864
  0
VERTEX
  8
LAYER8
 62
     7
  6
CONTINUOUS
 10
33.4832
 20
27.8864
  0
VERTEX
  8
LAYER8
 62
     7
  6
CONTINUOUS
 10
33.4803
 20
27.8861
  0
VERTEX
  8
LAYER8
 62
     7
  6
CONTINUOUS
 10
33.4775
 20
27.8856
  0
VERTEX
  8
LAYER8
 62
     7
  6
CONTINUOUS
 10
33.4746
 20
27.8849
  0
VERTEX
  8
LAYER8
 62
     7
  6
CONTINUOUS
 10
33.4718
 20
27.8840
  0
VERTEX
  8
LAYER8
 62
     7
  6
CONTINUOUS
 10
33.4691
 20
27.8830
  0
VERTEX
  8
LAYER8
 62
     7
  6
CONTINUOUS
 10
33.4665
 20
27.8818
  0
VERTEX
  8
LAYER8
 62
     7
  6
CONTINUOUS
 10
33.4641
 20
27.8804
  0
VERTEX
  8
LAYER8
 62
     7
  6
CONTINUOUS
 10
33.4618
 20
27.8789
  0
VERTEX
  8
LAYER8
 62
     7
  6
CONTINUOUS
 10
33.4597
 20
27.8774
  0
VERTEX
  8
LAYER8
 62
     7
  6
CONTINUOUS
 10
33.4579
 20
27.8757
  0
VERTEX
  8
LAYER8
 62
     7
  6
CONTINUOUS
 10
33.4564
 20
27.8739
  0
VERTEX
  8
LAYER8
 62
     7
  6
CONTINUOUS
 10
33.4552
 20
27.8721
  0
VERTEX
  8
LAYER8
 62
     7
  6
CONTINUOUS
 10
33.4538
 20
27.8683
  0
VERTEX
  8
LAYER8
 62
     7
  6
CONTINUOUS
 10
33.4536
 20
27.8644
  0
VERTEX
  8
LAYER8
 62
     7
  6
CONTINUOUS
 10
33.4545
 20
27.8602
  0
VERTEX
  8
LAYER8
 62
     7
  6
CONTINUOUS
 10
33.4564
 20
27.8559
  0
VERTEX
  8
LAYER8
 62
     7
  6
CONTINUOUS
 10
33.4589
 20
27.8514
  0
VERTEX
  8
LAYER8
 62
     7
  6
CONTINUOUS
 10
33.4620
 20
27.8468
  0
VERTEX
  8
LAYER8
 62
     7
  6
CONTINUOUS
 10
33.4656
 20
27.8420
  0
VERTEX
  8
LAYER8
 62
     7
  6
CONTINUOUS
 10
33.4694
 20
27.8371
  0
VERTEX
  8
LAYER8
 62
     7
  6
CONTINUOUS
 10
33.4732
 20
27.8321
  0
VERTEX
  8
LAYER8
 62
     7
  6
CONTINUOUS
 10
33.4771
 20
27.8270
  0
VERTEX
  8
LAYER8
 62
     7
  6
CONTINUOUS
 10
33.4806
 20
27.8217
  0
VERTEX
  8
LAYER8
 62
     7
  6
CONTINUOUS
 10
33.4838
 20
27.8164
  0
VERTEX
  8
LAYER8
 62
     7
  6
CONTINUOUS
 10
33.4872
 20
27.8090
  0
VERTEX
  8
LAYER8
 62
     7
  6
CONTINUOUS
 10
33.4896
 20
27.8015
  0
VERTEX
  8
LAYER8
 62
     7
  6
CONTINUOUS
 10
33.4911
 20
27.7940
  0
VERTEX
  8
LAYER8
 62
     7
  6
CONTINUOUS
 10
33.4916
 20
27.7864
  0
VERTEX
  8
LAYER8
 62
     7
  6
CONTINUOUS
 10
33.4914
 20
27.7789
  0
VERTEX
  8
LAYER8
 62
     7
  6
CONTINUOUS
 10
33.4903
 20
27.7715
  0
VERTEX
  8
LAYER8
 62
     7
  6
CONTINUOUS
 10
33.4886
 20
27.7643
  0
VERTEX
  8
LAYER8
 62
     7
  6
CONTINUOUS
 10
33.4861
 20
27.7573
  0
VERTEX
  8
LAYER8
 62
     7
  6
CONTINUOUS
 10
33.4830
 20
27.7505
  0
VERTEX
  8
LAYER8
 62
     7
  6
CONTINUOUS
 10
33.4794
 20
27.7440
  0
VERTEX
  8
LAYER8
 62
     7
  6
CONTINUOUS
 10
33.4752
 20
27.7380
  0
VERTEX
  8
LAYER8
 62
     7
  6
CONTINUOUS
 10
33.4706
 20
27.7323
  0
VERTEX
  8
LAYER8
 62
     7
  6
CONTINUOUS
 10
33.4652
 20
27.7269
  0
VERTEX
  8
LAYER8
 62
     7
  6
CONTINUOUS
 10
33.4596
 20
27.7218
  0
VERTEX
  8
LAYER8
 62
     7
  6
CONTINUOUS
 10
33.4536
 20
27.7171
  0
VERTEX
  8
LAYER8
 62
     7
  6
CONTINUOUS
 10
33.4474
 20
27.7127
  0
VERTEX
  8
LAYER8
 62
     7
  6
CONTINUOUS
 10
33.4411
 20
27.7085
  0
VERTEX
  8
LAYER8
 62
     7
  6
CONTINUOUS
 10
33.4348
 20
27.7043
  0
VERTEX
  8
LAYER8
 62
     7
  6
CONTINUOUS
 10
33.4285
 20
27.7001
  0
VERTEX
  8
LAYER8
 62
     7
  6
CONTINUOUS
 10
33.4224
 20
27.6958
  0
VERTEX
  8
LAYER8
 62
     7
  6
CONTINUOUS
 10
33.4165
 20
27.6913
  0
VERTEX
  8
LAYER8
 62
     7
  6
CONTINUOUS
 10
33.4109
 20
27.6865
  0
VERTEX
  8
LAYER8
 62
     7
  6
CONTINUOUS
 10
33.4057
 20
27.6813
  0
VERTEX
  8
LAYER8
 62
     7
  6
CONTINUOUS
 10
33.4010
 20
27.6757
  0
VERTEX
  8
LAYER8
 62
     7
  6
CONTINUOUS
 10
33.3995
 20
27.6736
  0
VERTEX
  8
LAYER8
 62
     7
  6
CONTINUOUS
 10
33.3980
 20
27.6714
  0
VERTEX
  8
LAYER8
 62
     7
  6
CONTINUOUS
 10
33.3967
 20
27.6692
  0
VERTEX
  8
LAYER8
 62
     7
  6
CONTINUOUS
 10
33.3954
 20
27.6669
  0
VERTEX
  8
LAYER8
 62
     7
  6
CONTINUOUS
 10
33.3941
 20
27.6646
  0
VERTEX
  8
LAYER8
 62
     7
  6
CONTINUOUS
 10
33.3930
 20
27.6623
  0
VERTEX
  8
LAYER8
 62
     7
  6
CONTINUOUS
 10
33.3919
 20
27.6599
  0
VERTEX
  8
LAYER8
 62
     7
  6
CONTINUOUS
 10
33.3908
 20
27.6574
  0
VERTEX
  8
LAYER8
 62
     7
  6
CONTINUOUS
 10
33.3899
 20
27.6550
  0
VERTEX
  8
LAYER8
 62
     7
  6
CONTINUOUS
 10
33.3889
 20
27.6525
  0
VERTEX
  8
LAYER8
 62
     7
  6
CONTINUOUS
 10
33.3881
 20
27.6500
  0
VERTEX
  8
LAYER8
 62
     7
  6
CONTINUOUS
 10
33.3873
 20
27.6475
  0
VERTEX
  8
LAYER8
 62
     7
  6
CONTINUOUS
 10
33.3846
 20
27.6363
  0
VERTEX
  8
LAYER8
 62
     7
  6
CONTINUOUS
 10
33.3830
 20
27.6249
  0
VERTEX
  8
LAYER8
 62
     7
  6
CONTINUOUS
 10
33.3823
 20
27.6135
  0
VERTEX
  8
LAYER8
 62
     7
  6
CONTINUOUS
 10
33.3823
 20
27.6020
  0
VERTEX
  8
LAYER8
 62
     7
  6
CONTINUOUS
 10
33.3829
 20
27.5904
  0
VERTEX
  8
LAYER8
 62
     7
  6
CONTINUOUS
 10
33.3840
 20
27.5787
  0
VERTEX
  8
LAYER8
 62
     7
  6
CONTINUOUS
 10
33.3852
 20
27.5670
  0
VERTEX
  8
LAYER8
 62
     7
  6
CONTINUOUS
 10
33.3865
 20
27.5552
  0
VERTEX
  8
LAYER8
 62
     7
  6
CONTINUOUS
 10
33.3876
 20
27.5434
  0
VERTEX
  8
LAYER8
 62
     7
  6
CONTINUOUS
 10
33.3885
 20
27.5315
  0
VERTEX
  8
LAYER8
 62
     7
  6
CONTINUOUS
 10
33.3888
 20
27.5196
  0
VERTEX
  8
LAYER8
 62
     7
  6
CONTINUOUS
 10
33.3885
 20
27.5076
  0
VERTEX
  8
LAYER8
 62
     7
  6
CONTINUOUS
 10
33.3883
 20
27.5039
  0
VERTEX
  8
LAYER8
 62
     7
  6
CONTINUOUS
 10
33.3879
 20
27.5001
  0
VERTEX
  8
LAYER8
 62
     7
  6
CONTINUOUS
 10
33.3875
 20
27.4963
  0
VERTEX
  8
LAYER8
 62
     7
  6
CONTINUOUS
 10
33.3868
 20
27.4926
  0
VERTEX
  8
LAYER8
 62
     7
  6
CONTINUOUS
 10
33.3861
 20
27.4890
  0
VERTEX
  8
LAYER8
 62
     7
  6
CONTINUOUS
 10
33.3852
 20
27.4854
  0
VERTEX
  8
LAYER8
 62
     7
  6
CONTINUOUS
 10
33.3841
 20
27.4818
  0
VERTEX
  8
LAYER8
 62
     7
  6
CONTINUOUS
 10
33.3828
 20
27.4783
  0
VERTEX
  8
LAYER8
 62
     7
  6
CONTINUOUS
 10
33.3812
 20
27.4750
  0
VERTEX
  8
LAYER8
 62
     7
  6
CONTINUOUS
 10
33.3795
 20
27.4717
  0
VERTEX
  8
LAYER8
 62
     7
  6
CONTINUOUS
 10
33.3775
 20
27.4685
  0
VERTEX
  8
LAYER8
 62
     7
  6
CONTINUOUS
 10
33.3753
 20
27.4655
  0
VERTEX
  8
LAYER8
 62
     7
  6
CONTINUOUS
 10
33.3730
 20
27.4629
  0
VERTEX
  8
LAYER8
 62
     7
  6
CONTINUOUS
 10
33.3706
 20
27.4604
  0
VERTEX
  8
LAYER8
 62
     7
  6
CONTINUOUS
 10
33.3681
 20
27.4579
  0
VERTEX
  8
LAYER8
 62
     7
  6
CONTINUOUS
 10
33.3654
 20
27.4556
  0
VERTEX
  8
LAYER8
 62
     7
  6
CONTINUOUS
 10
33.3628
 20
27.4533
  0
VERTEX
  8
LAYER8
 62
     7
  6
CONTINUOUS
 10
33.3602
 20
27.4510
  0
VERTEX
  8
LAYER8
 62
     7
  6
CONTINUOUS
 10
33.3576
 20
27.4487
  0
VERTEX
  8
LAYER8
 62
     7
  6
CONTINUOUS
 10
33.3552
 20
27.4465
  0
VERTEX
  8
LAYER8
 62
     7
  6
CONTINUOUS
 10
33.3529
 20
27.4442
  0
VERTEX
  8
LAYER8
 62
     7
  6
CONTINUOUS
 10
33.3509
 20
27.4419
  0
VERTEX
  8
LAYER8
 62
     7
  6
CONTINUOUS
 10
33.3491
 20
27.4396
  0
VERTEX
  8
LAYER8
 62
     7
  6
CONTINUOUS
 10
33.3477
 20
27.4373
  0
VERTEX
  8
LAYER8
 62
     7
  6
CONTINUOUS
 10
33.3456
 20
27.4314
  0
VERTEX
  8
LAYER8
 62
     7
  6
CONTINUOUS
 10
33.3453
 20
27.4252
  0
VERTEX
  8
LAYER8
 62
     7
  6
CONTINUOUS
 10
33.3467
 20
27.4187
  0
VERTEX
  8
LAYER8
 62
     7
  6
CONTINUOUS
 10
33.3493
 20
27.4120
  0
VERTEX
  8
LAYER8
 62
     7
  6
CONTINUOUS
 10
33.3531
 20
27.4051
  0
VERTEX
  8
LAYER8
 62
     7
  6
CONTINUOUS
 10
33.3577
 20
27.3980
  0
VERTEX
  8
LAYER8
 62
     7
  6
CONTINUOUS
 10
33.3629
 20
27.3907
  0
VERTEX
  8
LAYER8
 62
     7
  6
CONTINUOUS
 10
33.3686
 20
27.3834
  0
VERTEX
  8
LAYER8
 62
     7
  6
CONTINUOUS
 10
33.3743
 20
27.3760
  0
VERTEX
  8
LAYER8
 62
     7
  6
CONTINUOUS
 10
33.3800
 20
27.3685
  0
VERTEX
  8
LAYER8
 62
     7
  6
CONTINUOUS
 10
33.3853
 20
27.3611
  0
VERTEX
  8
LAYER8
 62
     7
  6
CONTINUOUS
 10
33.3900
 20
27.3537
  0
VERTEX
  8
LAYER8
 62
     7
  6
CONTINUOUS
 10
33.3925
 20
27.3491
  0
VERTEX
  8
LAYER8
 62
     7
  6
CONTINUOUS
 10
33.3948
 20
27.3446
  0
VERTEX
  8
LAYER8
 62
     7
  6
CONTINUOUS
 10
33.3967
 20
27.3401
  0
VERTEX
  8
LAYER8
 62
     7
  6
CONTINUOUS
 10
33.3985
 20
27.3356
  0
VERTEX
  8
LAYER8
 62
     7
  6
CONTINUOUS
 10
33.3999
 20
27.3311
  0
VERTEX
  8
LAYER8
 62
     7
  6
CONTINUOUS
 10
33.4011
 20
27.3265
  0
VERTEX
  8
LAYER8
 62
     7
  6
CONTINUOUS
 10
33.4022
 20
27.3219
  0
VERTEX
  8
LAYER8
 62
     7
  6
CONTINUOUS
 10
33.4030
 20
27.3173
  0
VERTEX
  8
LAYER8
 62
     7
  6
CONTINUOUS
 10
33.4036
 20
27.3125
  0
VERTEX
  8
LAYER8
 62
     7
  6
CONTINUOUS
 10
33.4041
 20
27.3077
  0
VERTEX
  8
LAYER8
 62
     7
  6
CONTINUOUS
 10
33.4045
 20
27.3028
  0
VERTEX
  8
LAYER8
 62
     7
  6
CONTINUOUS
 10
33.4047
 20
27.2978
  0
VERTEX
  8
LAYER8
 62
     7
  6
CONTINUOUS
 10
33.4048
 20
27.2927
  0
VERTEX
  8
LAYER8
 62
     7
  6
CONTINUOUS
 10
33.4047
 20
27.2876
  0
VERTEX
  8
LAYER8
 62
     7
  6
CONTINUOUS
 10
33.4045
 20
27.2824
  0
VERTEX
  8
LAYER8
 62
     7
  6
CONTINUOUS
 10
33.4041
 20
27.2772
  0
VERTEX
  8
LAYER8
 62
     7
  6
CONTINUOUS
 10
33.4035
 20
27.2721
  0
VERTEX
  8
LAYER8
 62
     7
  6
CONTINUOUS
 10
33.4027
 20
27.2670
  0
VERTEX
  8
LAYER8
 62
     7
  6
CONTINUOUS
 10
33.4016
 20
27.2622
  0
VERTEX
  8
LAYER8
 62
     7
  6
CONTINUOUS
 10
33.4002
 20
27.2575
  0
VERTEX
  8
LAYER8
 62
     7
  6
CONTINUOUS
 10
33.3985
 20
27.2531
  0
VERTEX
  8
LAYER8
 62
     7
  6
CONTINUOUS
 10
33.3965
 20
27.2490
  0
VERTEX
  8
LAYER8
 62
     7
  6
CONTINUOUS
 10
33.3941
 20
27.2451
  0
VERTEX
  8
LAYER8
 62
     7
  6
CONTINUOUS
 10
33.3914
 20
27.2417
  0
VERTEX
  8
LAYER8
 62
     7
  6
CONTINUOUS
 10
33.3879
 20
27.2384
  0
VERTEX
  8
LAYER8
 62
     7
  6
CONTINUOUS
 10
33.3840
 20
27.2356
  0
VERTEX
  8
LAYER8
 62
     7
  6
CONTINUOUS
 10
33.3798
 20
27.2331
  0
VERTEX
  8
LAYER8
 62
     7
  6
CONTINUOUS
 10
33.3752
 20
27.2308
  0
VERTEX
  8
LAYER8
 62
     7
  6
CONTINUOUS
 10
33.3705
 20
27.2287
  0
VERTEX
  8
LAYER8
 62
     7
  6
CONTINUOUS
 10
33.3655
 20
27.2268
  0
VERTEX
  8
LAYER8
 62
     7
  6
CONTINUOUS
 10
33.3604
 20
27.2249
  0
VERTEX
  8
LAYER8
 62
     7
  6
CONTINUOUS
 10
33.3553
 20
27.2229
  0
VERTEX
  8
LAYER8
 62
     7
  6
CONTINUOUS
 10
33.3501
 20
27.2209
  0
VERTEX
  8
LAYER8
 62
     7
  6
CONTINUOUS
 10
33.3451
 20
27.2186
  0
VERTEX
  8
LAYER8
 62
     7
  6
CONTINUOUS
 10
33.3401
 20
27.2161
  0
VERTEX
  8
LAYER8
 62
     7
  6
CONTINUOUS
 10
33.3353
 20
27.2132
  0
VERTEX
  8
LAYER8
 62
     7
  6
CONTINUOUS
 10
33.3317
 20
27.2106
  0
VERTEX
  8
LAYER8
 62
     7
  6
CONTINUOUS
 10
33.3282
 20
27.2078
  0
VERTEX
  8
LAYER8
 62
     7
  6
CONTINUOUS
 10
33.3249
 20
27.2047
  0
VERTEX
  8
LAYER8
 62
     7
  6
CONTINUOUS
 10
33.3219
 20
27.2014
  0
VERTEX
  8
LAYER8
 62
     7
  6
CONTINUOUS
 10
33.3191
 20
27.1980
  0
VERTEX
  8
LAYER8
 62
     7
  6
CONTINUOUS
 10
33.3165
 20
27.1944
  0
VERTEX
  8
LAYER8
 62
     7
  6
CONTINUOUS
 10
33.3143
 20
27.1907
  0
VERTEX
  8
LAYER8
 62
     7
  6
CONTINUOUS
 10
33.3123
 20
27.1868
  0
VERTEX
  8
LAYER8
 62
     7
  6
CONTINUOUS
 10
33.3107
 20
27.1829
  0
VERTEX
  8
LAYER8
 62
     7
  6
CONTINUOUS
 10
33.3095
 20
27.1790
  0
VERTEX
  8
LAYER8
 62
     7
  6
CONTINUOUS
 10
33.3086
 20
27.1750
  0
VERTEX
  8
LAYER8
 62
     7
  6
CONTINUOUS
 10
33.3081
 20
27.1710
  0
VERTEX
  8
LAYER8
 62
     7
  6
CONTINUOUS
 10
33.3081
 20
27.1660
  0
VERTEX
  8
LAYER8
 62
     7
  6
CONTINUOUS
 10
33.3087
 20
27.1611
  0
VERTEX
  8
LAYER8
 62
     7
  6
CONTINUOUS
 10
33.3098
 20
27.1562
  0
VERTEX
  8
LAYER8
 62
     7
  6
CONTINUOUS
 10
33.3114
 20
27.1514
  0
VERTEX
  8
LAYER8
 62
     7
  6
CONTINUOUS
 10
33.3135
 20
27.1466
  0
VERTEX
  8
LAYER8
 62
     7
  6
CONTINUOUS
 10
33.3159
 20
27.1419
  0
VERTEX
  8
LAYER8
 62
     7
  6
CONTINUOUS
 10
33.3188
 20
27.1372
  0
VERTEX
  8
LAYER8
 62
     7
  6
CONTINUOUS
 10
33.3219
 20
27.1327
  0
VERTEX
  8
LAYER8
 62
     7
  6
CONTINUOUS
 10
33.3252
 20
27.1282
  0
VERTEX
  8
LAYER8
 62
     7
  6
CONTINUOUS
 10
33.3288
 20
27.1238
  0
VERTEX
  8
LAYER8
 62
     7
  6
CONTINUOUS
 10
33.3325
 20
27.1194
  0
VERTEX
  8
LAYER8
 62
     7
  6
CONTINUOUS
 10
33.3363
 20
27.1152
  0
VERTEX
  8
LAYER8
 62
     7
  6
CONTINUOUS
 10
33.3406
 20
27.1106
  0
VERTEX
  8
LAYER8
 62
     7
  6
CONTINUOUS
 10
33.3449
 20
27.1062
  0
VERTEX
  8
LAYER8
 62
     7
  6
CONTINUOUS
 10
33.3492
 20
27.1017
  0
VERTEX
  8
LAYER8
 62
     7
  6
CONTINUOUS
 10
33.3534
 20
27.0974
  0
VERTEX
  8
LAYER8
 62
     7
  6
CONTINUOUS
 10
33.3575
 20
27.0930
  0
VERTEX
  8
LAYER8
 62
     7
  6
CONTINUOUS
 10
33.3615
 20
27.0886
  0
VERTEX
  8
LAYER8
 62
     7
  6
CONTINUOUS
 10
33.3652
 20
27.0841
  0
VERTEX
  8
LAYER8
 62
     7
  6
CONTINUOUS
 10
33.3686
 20
27.0796
  0
VERTEX
  8
LAYER8
 62
     7
  6
CONTINUOUS
 10
33.3718
 20
27.0749
  0
VERTEX
  8
LAYER8
 62
     7
  6
CONTINUOUS
 10
33.3746
 20
27.0700
  0
VERTEX
  8
LAYER8
 62
     7
  6
CONTINUOUS
 10
33.3770
 20
27.0650
  0
VERTEX
  8
LAYER8
 62
     7
  6
CONTINUOUS
 10
33.3789
 20
27.0597
  0
VERTEX
  8
LAYER8
 62
     7
  6
CONTINUOUS
 10
33.3799
 20
27.0564
  0
VERTEX
  8
LAYER8
 62
     7
  6
CONTINUOUS
 10
33.3806
 20
27.0530
  0
VERTEX
  8
LAYER8
 62
     7
  6
CONTINUOUS
 10
33.3812
 20
27.0496
  0
VERTEX
  8
LAYER8
 62
     7
  6
CONTINUOUS
 10
33.3817
 20
27.0461
  0
VERTEX
  8
LAYER8
 62
     7
  6
CONTINUOUS
 10
33.3819
 20
27.0425
  0
VERTEX
  8
LAYER8
 62
     7
  6
CONTINUOUS
 10
33.3820
 20
27.0390
  0
VERTEX
  8
LAYER8
 62
     7
  6
CONTINUOUS
 10
33.3820
 20
27.0354
  0
VERTEX
  8
LAYER8
 62
     7
  6
CONTINUOUS
 10
33.3818
 20
27.0318
  0
VERTEX
  8
LAYER8
 62
     7
  6
CONTINUOUS
 10
33.3814
 20
27.0282
  0
VERTEX
  8
LAYER8
 62
     7
  6
CONTINUOUS
 10
33.3808
 20
27.0247
  0
SEQEND
  8
LAYER8
  0
POLYLINE
  8
LAYER8
 62
     7
 66
     1
  6
CONTINUOUS
  0
VERTEX
  8
LAYER8
 62
     7
  6
CONTINUOUS
 10
33.3808
 20
27.0247
  0
VERTEX
  8
LAYER8
 62
     7
  6
CONTINUOUS
 10
33.3801
 20
27.0212
  0
VERTEX
  8
LAYER8
 62
     7
  6
CONTINUOUS
 10
33.3793
 20
27.0177
  0
VERTEX
  8
LAYER8
 62
     7
  6
CONTINUOUS
 10
33.3775
 20
27.0120
  0
VERTEX
  8
LAYER8
 62
     7
  6
CONTINUOUS
 10
33.3753
 20
27.0066
  0
VERTEX
  8
LAYER8
 62
     7
  6
CONTINUOUS
 10
33.3728
 20
27.0013
  0
VERTEX
  8
LAYER8
 62
     7
  6
CONTINUOUS
 10
33.3699
 20
26.9962
  0
VERTEX
  8
LAYER8
 62
     7
  6
CONTINUOUS
 10
33.3667
 20
26.9912
  0
VERTEX
  8
LAYER8
 62
     7
  6
CONTINUOUS
 10
33.3632
 20
26.9865
  0
VERTEX
  8
LAYER8
 62
     7
  6
CONTINUOUS
 10
33.3595
 20
26.9818
  0
VERTEX
  8
LAYER8
 62
     7
  6
CONTINUOUS
 10
33.3555
 20
26.9774
  0
VERTEX
  8
LAYER8
 62
     7
  6
CONTINUOUS
 10
33.3513
 20
26.9731
  0
VERTEX
  8
LAYER8
 62
     7
  6
CONTINUOUS
 10
33.3469
 20
26.9690
  0
VERTEX
  8
LAYER8
 62
     7
  6
CONTINUOUS
 10
33.3424
 20
26.9651
  0
VERTEX
  8
LAYER8
 62
     7
  6
CONTINUOUS
 10
33.3378
 20
26.9613
  0
VERTEX
  8
LAYER8
 62
     7
  6
CONTINUOUS
 10
33.3317
 20
26.9567
  0
VERTEX
  8
LAYER8
 62
     7
  6
CONTINUOUS
 10
33.3255
 20
26.9523
  0
VERTEX
  8
LAYER8
 62
     7
  6
CONTINUOUS
 10
33.3192
 20
26.9480
  0
VERTEX
  8
LAYER8
 62
     7
  6
CONTINUOUS
 10
33.3130
 20
26.9438
  0
VERTEX
  8
LAYER8
 62
     7
  6
CONTINUOUS
 10
33.3068
 20
26.9396
  0
VERTEX
  8
LAYER8
 62
     7
  6
CONTINUOUS
 10
33.3006
 20
26.9353
  0
VERTEX
  8
LAYER8
 62
     7
  6
CONTINUOUS
 10
33.2947
 20
26.9309
  0
VERTEX
  8
LAYER8
 62
     7
  6
CONTINUOUS
 10
33.2889
 20
26.9263
  0
VERTEX
  8
LAYER8
 62
     7
  6
CONTINUOUS
 10
33.2833
 20
26.9215
  0
VERTEX
  8
LAYER8
 62
     7
  6
CONTINUOUS
 10
33.2780
 20
26.9163
  0
VERTEX
  8
LAYER8
 62
     7
  6
CONTINUOUS
 10
33.2731
 20
26.9107
  0
VERTEX
  8
LAYER8
 62
     7
  6
CONTINUOUS
 10
33.2686
 20
26.9046
  0
VERTEX
  8
LAYER8
 62
     7
  6
CONTINUOUS
 10
33.2659
 20
26.9005
  0
VERTEX
  8
LAYER8
 62
     7
  6
CONTINUOUS
 10
33.2634
 20
26.8961
  0
VERTEX
  8
LAYER8
 62
     7
  6
CONTINUOUS
 10
33.2611
 20
26.8916
  0
VERTEX
  8
LAYER8
 62
     7
  6
CONTINUOUS
 10
33.2591
 20
26.8870
  0
VERTEX
  8
LAYER8
 62
     7
  6
CONTINUOUS
 10
33.2573
 20
26.8822
  0
VERTEX
  8
LAYER8
 62
     7
  6
CONTINUOUS
 10
33.2559
 20
26.8774
  0
VERTEX
  8
LAYER8
 62
     7
  6
CONTINUOUS
 10
33.2548
 20
26.8725
  0
VERTEX
  8
LAYER8
 62
     7
  6
CONTINUOUS
 10
33.2541
 20
26.8677
  0
VERTEX
  8
LAYER8
 62
     7
  6
CONTINUOUS
 10
33.2537
 20
26.8628
  0
VERTEX
  8
LAYER8
 62
     7
  6
CONTINUOUS
 10
33.2537
 20
26.8580
  0
VERTEX
  8
LAYER8
 62
     7
  6
CONTINUOUS
 10
33.2541
 20
26.8532
  0
VERTEX
  8
LAYER8
 62
     7
  6
CONTINUOUS
 10
33.2550
 20
26.8486
  0
VERTEX
  8
LAYER8
 62
     7
  6
CONTINUOUS
 10
33.2557
 20
26.8461
  0
VERTEX
  8
LAYER8
 62
     7
  6
CONTINUOUS
 10
33.2565
 20
26.8436
  0
VERTEX
  8
LAYER8
 62
     7
  6
CONTINUOUS
 10
33.2574
 20
26.8412
  0
VERTEX
  8
LAYER8
 62
     7
  6
CONTINUOUS
 10
33.2584
 20
26.8389
  0
VERTEX
  8
LAYER8
 62
     7
  6
CONTINUOUS
 10
33.2596
 20
26.8365
  0
VERTEX
  8
LAYER8
 62
     7
  6
CONTINUOUS
 10
33.2608
 20
26.8342
  0
VERTEX
  8
LAYER8
 62
     7
  6
CONTINUOUS
 10
33.2621
 20
26.8319
  0
VERTEX
  8
LAYER8
 62
     7
  6
CONTINUOUS
 10
33.2635
 20
26.8296
  0
VERTEX
  8
LAYER8
 62
     7
  6
CONTINUOUS
 10
33.2649
 20
26.8274
  0
VERTEX
  8
LAYER8
 62
     7
  6
CONTINUOUS
 10
33.2664
 20
26.8251
  0
VERTEX
  8
LAYER8
 62
     7
  6
CONTINUOUS
 10
33.2680
 20
26.8229
  0
VERTEX
  8
LAYER8
 62
     7
  6
CONTINUOUS
 10
33.2695
 20
26.8207
  0
VERTEX
  8
LAYER8
 62
     7
  6
CONTINUOUS
 10
33.2737
 20
26.8151
  0
VERTEX
  8
LAYER8
 62
     7
  6
CONTINUOUS
 10
33.2780
 20
26.8095
  0
VERTEX
  8
LAYER8
 62
     7
  6
CONTINUOUS
 10
33.2823
 20
26.8039
  0
VERTEX
  8
LAYER8
 62
     7
  6
CONTINUOUS
 10
33.2866
 20
26.7984
  0
VERTEX
  8
LAYER8
 62
     7
  6
CONTINUOUS
 10
33.2907
 20
26.7928
  0
VERTEX
  8
LAYER8
 62
     7
  6
CONTINUOUS
 10
33.2948
 20
26.7872
  0
VERTEX
  8
LAYER8
 62
     7
  6
CONTINUOUS
 10
33.2985
 20
26.7815
  0
VERTEX
  8
LAYER8
 62
     7
  6
CONTINUOUS
 10
33.3020
 20
26.7757
  0
VERTEX
  8
LAYER8
 62
     7
  6
CONTINUOUS
 10
33.3052
 20
26.7698
  0
VERTEX
  8
LAYER8
 62
     7
  6
CONTINUOUS
 10
33.3079
 20
26.7638
  0
VERTEX
  8
LAYER8
 62
     7
  6
CONTINUOUS
 10
33.3102
 20
26.7576
  0
VERTEX
  8
LAYER8
 62
     7
  6
CONTINUOUS
 10
33.3119
 20
26.7512
  0
VERTEX
  8
LAYER8
 62
     7
  6
CONTINUOUS
 10
33.3123
 20
26.7489
  0
VERTEX
  8
LAYER8
 62
     7
  6
CONTINUOUS
 10
33.3127
 20
26.7466
  0
VERTEX
  8
LAYER8
 62
     7
  6
CONTINUOUS
 10
33.3130
 20
26.7443
  0
VERTEX
  8
LAYER8
 62
     7
  6
CONTINUOUS
 10
33.3132
 20
26.7420
  0
VERTEX
  8
LAYER8
 62
     7
  6
CONTINUOUS
 10
33.3134
 20
26.7397
  0
VERTEX
  8
LAYER8
 62
     7
  6
CONTINUOUS
 10
33.3135
 20
26.7373
  0
VERTEX
  8
LAYER8
 62
     7
  6
CONTINUOUS
 10
33.3135
 20
26.7350
  0
VERTEX
  8
LAYER8
 62
     7
  6
CONTINUOUS
 10
33.3134
 20
26.7326
  0
VERTEX
  8
LAYER8
 62
     7
  6
CONTINUOUS
 10
33.3132
 20
26.7303
  0
VERTEX
  8
LAYER8
 62
     7
  6
CONTINUOUS
 10
33.3130
 20
26.7279
  0
VERTEX
  8
LAYER8
 62
     7
  6
CONTINUOUS
 10
33.3127
 20
26.7255
  0
VERTEX
  8
LAYER8
 62
     7
  6
CONTINUOUS
 10
33.3122
 20
26.7232
  0
VERTEX
  8
LAYER8
 62
     7
  6
CONTINUOUS
 10
33.3117
 20
26.7205
  0
VERTEX
  8
LAYER8
 62
     7
  6
CONTINUOUS
 10
33.3110
 20
26.7179
  0
VERTEX
  8
LAYER8
 62
     7
  6
CONTINUOUS
 10
33.3103
 20
26.7153
  0
VERTEX
  8
LAYER8
 62
     7
  6
CONTINUOUS
 10
33.3094
 20
26.7128
  0
VERTEX
  8
LAYER8
 62
     7
  6
CONTINUOUS
 10
33.3084
 20
26.7103
  0
VERTEX
  8
LAYER8
 62
     7
  6
CONTINUOUS
 10
33.3073
 20
26.7078
  0
VERTEX
  8
LAYER8
 62
     7
  6
CONTINUOUS
 10
33.3061
 20
26.7055
  0
VERTEX
  8
LAYER8
 62
     7
  6
CONTINUOUS
 10
33.3048
 20
26.7032
  0
VERTEX
  8
LAYER8
 62
     7
  6
CONTINUOUS
 10
33.3034
 20
26.7010
  0
VERTEX
  8
LAYER8
 62
     7
  6
CONTINUOUS
 10
33.3019
 20
26.6989
  0
VERTEX
  8
LAYER8
 62
     7
  6
CONTINUOUS
 10
33.3002
 20
26.6969
  0
VERTEX
  8
LAYER8
 62
     7
  6
CONTINUOUS
 10
33.2985
 20
26.6950
  0
VERTEX
  8
LAYER8
 62
     7
  6
CONTINUOUS
 10
33.2949
 20
26.6919
  0
VERTEX
  8
LAYER8
 62
     7
  6
CONTINUOUS
 10
33.2911
 20
26.6893
  0
VERTEX
  8
LAYER8
 62
     7
  6
CONTINUOUS
 10
33.2869
 20
26.6870
  0
VERTEX
  8
LAYER8
 62
     7
  6
CONTINUOUS
 10
33.2825
 20
26.6851
  0
VERTEX
  8
LAYER8
 62
     7
  6
CONTINUOUS
 10
33.2778
 20
26.6836
  0
VERTEX
  8
LAYER8
 62
     7
  6
CONTINUOUS
 10
33.2730
 20
26.6824
  0
VERTEX
  8
LAYER8
 62
     7
  6
CONTINUOUS
 10
33.2681
 20
26.6815
  0
VERTEX
  8
LAYER8
 62
     7
  6
CONTINUOUS
 10
33.2630
 20
26.6809
  0
VERTEX
  8
LAYER8
 62
     7
  6
CONTINUOUS
 10
33.2579
 20
26.6805
  0
VERTEX
  8
LAYER8
 62
     7
  6
CONTINUOUS
 10
33.2527
 20
26.6803
  0
VERTEX
  8
LAYER8
 62
     7
  6
CONTINUOUS
 10
33.2476
 20
26.6803
  0
VERTEX
  8
LAYER8
 62
     7
  6
CONTINUOUS
 10
33.2425
 20
26.6805
  0
VERTEX
  8
LAYER8
 62
     7
  6
CONTINUOUS
 10
33.2402
 20
26.6806
  0
VERTEX
  8
LAYER8
 62
     7
  6
CONTINUOUS
 10
33.2378
 20
26.6808
  0
VERTEX
  8
LAYER8
 62
     7
  6
CONTINUOUS
 10
33.2354
 20
26.6810
  0
VERTEX
  8
LAYER8
 62
     7
  6
CONTINUOUS
 10
33.2331
 20
26.6811
  0
VERTEX
  8
LAYER8
 62
     7
  6
CONTINUOUS
 10
33.2308
 20
26.6812
  0
VERTEX
  8
LAYER8
 62
     7
  6
CONTINUOUS
 10
33.2285
 20
26.6813
  0
VERTEX
  8
LAYER8
 62
     7
  6
CONTINUOUS
 10
33.2262
 20
26.6814
  0
VERTEX
  8
LAYER8
 62
     7
  6
CONTINUOUS
 10
33.2239
 20
26.6813
  0
VERTEX
  8
LAYER8
 62
     7
  6
CONTINUOUS
 10
33.2216
 20
26.6812
  0
VERTEX
  8
LAYER8
 62
     7
  6
CONTINUOUS
 10
33.2194
 20
26.6810
  0
VERTEX
  8
LAYER8
 62
     7
  6
CONTINUOUS
 10
33.2171
 20
26.6807
  0
VERTEX
  8
LAYER8
 62
     7
  6
CONTINUOUS
 10
33.2149
 20
26.6803
  0
VERTEX
  8
LAYER8
 62
     7
  6
CONTINUOUS
 10
33.2100
 20
26.6789
  0
VERTEX
  8
LAYER8
 62
     7
  6
CONTINUOUS
 10
33.2052
 20
26.6769
  0
VERTEX
  8
LAYER8
 62
     7
  6
CONTINUOUS
 10
33.2005
 20
26.6744
  0
VERTEX
  8
LAYER8
 62
     7
  6
CONTINUOUS
 10
33.1960
 20
26.6715
  0
VERTEX
  8
LAYER8
 62
     7
  6
CONTINUOUS
 10
33.1917
 20
26.6681
  0
VERTEX
  8
LAYER8
 62
     7
  6
CONTINUOUS
 10
33.1877
 20
26.6644
  0
VERTEX
  8
LAYER8
 62
     7
  6
CONTINUOUS
 10
33.1841
 20
26.6604
  0
VERTEX
  8
LAYER8
 62
     7
  6
CONTINUOUS
 10
33.1808
 20
26.6561
  0
VERTEX
  8
LAYER8
 62
     7
  6
CONTINUOUS
 10
33.1780
 20
26.6517
  0
VERTEX
  8
LAYER8
 62
     7
  6
CONTINUOUS
 10
33.1758
 20
26.6471
  0
VERTEX
  8
LAYER8
 62
     7
  6
CONTINUOUS
 10
33.1740
 20
26.6425
  0
VERTEX
  8
LAYER8
 62
     7
  6
CONTINUOUS
 10
33.1730
 20
26.6378
  0
VERTEX
  8
LAYER8
 62
     7
  6
CONTINUOUS
 10
33.1726
 20
26.6323
  0
VERTEX
  8
LAYER8
 62
     7
  6
CONTINUOUS
 10
33.1730
 20
26.6268
  0
VERTEX
  8
LAYER8
 62
     7
  6
CONTINUOUS
 10
33.1740
 20
26.6213
  0
VERTEX
  8
LAYER8
 62
     7
  6
CONTINUOUS
 10
33.1756
 20
26.6158
  0
VERTEX
  8
LAYER8
 62
     7
  6
CONTINUOUS
 10
33.1776
 20
26.6102
  0
VERTEX
  8
LAYER8
 62
     7
  6
CONTINUOUS
 10
33.1797
 20
26.6046
  0
VERTEX
  8
LAYER8
 62
     7
  6
CONTINUOUS
 10
33.1819
 20
26.5989
  0
VERTEX
  8
LAYER8
 62
     7
  6
CONTINUOUS
 10
33.1840
 20
26.5930
  0
VERTEX
  8
LAYER8
 62
     7
  6
CONTINUOUS
 10
33.1857
 20
26.5871
  0
VERTEX
  8
LAYER8
 62
     7
  6
CONTINUOUS
 10
33.1871
 20
26.5809
  0
VERTEX
  8
LAYER8
 62
     7
  6
CONTINUOUS
 10
33.1879
 20
26.5746
  0
VERTEX
  8
LAYER8
 62
     7
  6
CONTINUOUS
 10
33.1879
 20
26.5680
  0
VERTEX
  8
LAYER8
 62
     7
  6
CONTINUOUS
 10
33.1876
 20
26.5651
  0
VERTEX
  8
LAYER8
 62
     7
  6
CONTINUOUS
 10
33.1871
 20
26.5621
  0
VERTEX
  8
LAYER8
 62
     7
  6
CONTINUOUS
 10
33.1865
 20
26.5592
  0
VERTEX
  8
LAYER8
 62
     7
  6
CONTINUOUS
 10
33.1858
 20
26.5563
  0
VERTEX
  8
LAYER8
 62
     7
  6
CONTINUOUS
 10
33.1848
 20
26.5535
  0
VERTEX
  8
LAYER8
 62
     7
  6
CONTINUOUS
 10
33.1837
 20
26.5509
  0
VERTEX
  8
LAYER8
 62
     7
  6
CONTINUOUS
 10
33.1825
 20
26.5484
  0
VERTEX
  8
LAYER8
 62
     7
  6
CONTINUOUS
 10
33.1811
 20
26.5462
  0
VERTEX
  8
LAYER8
 62
     7
  6
CONTINUOUS
 10
33.1795
 20
26.5441
  0
VERTEX
  8
LAYER8
 62
     7
  6
CONTINUOUS
 10
33.1778
 20
26.5424
  0
VERTEX
  8
LAYER8
 62
     7
  6
CONTINUOUS
 10
33.1759
 20
26.5410
  0
VERTEX
  8
LAYER8
 62
     7
  6
CONTINUOUS
 10
33.1740
 20
26.5399
  0
VERTEX
  8
LAYER8
 62
     7
  6
CONTINUOUS
 10
33.1699
 20
26.5389
  0
VERTEX
  8
LAYER8
 62
     7
  6
CONTINUOUS
 10
33.1656
 20
26.5390
  0
VERTEX
  8
LAYER8
 62
     7
  6
CONTINUOUS
 10
33.1609
 20
26.5400
  0
VERTEX
  8
LAYER8
 62
     7
  6
CONTINUOUS
 10
33.1559
 20
26.5416
  0
VERTEX
  8
LAYER8
 62
     7
  6
CONTINUOUS
 10
33.1509
 20
26.5437
  0
VERTEX
  8
LAYER8
 62
     7
  6
CONTINUOUS
 10
33.1457
 20
26.5461
  0
VERTEX
  8
LAYER8
 62
     7
  6
CONTINUOUS
 10
33.1406
 20
26.5484
  0
VERTEX
  8
LAYER8
 62
     7
  6
CONTINUOUS
 10
33.1356
 20
26.5506
  0
VERTEX
  8
LAYER8
 62
     7
  6
CONTINUOUS
 10
33.1307
 20
26.5524
  0
VERTEX
  8
LAYER8
 62
     7
  6
CONTINUOUS
 10
33.1261
 20
26.5536
  0
VERTEX
  8
LAYER8
 62
     7
  6
CONTINUOUS
 10
33.1218
 20
26.5540
  0
VERTEX
  8
LAYER8
 62
     7
  6
CONTINUOUS
 10
33.1179
 20
26.5534
  0
VERTEX
  8
LAYER8
 62
     7
  6
CONTINUOUS
 10
33.1149
 20
26.5518
  0
VERTEX
  8
LAYER8
 62
     7
  6
CONTINUOUS
 10
33.1122
 20
26.5494
  0
VERTEX
  8
LAYER8
 62
     7
  6
CONTINUOUS
 10
33.1098
 20
26.5464
  0
VERTEX
  8
LAYER8
 62
     7
  6
CONTINUOUS
 10
33.1075
 20
26.5428
  0
VERTEX
  8
LAYER8
 62
     7
  6
CONTINUOUS
 10
33.1054
 20
26.5388
  0
VERTEX
  8
LAYER8
 62
     7
  6
CONTINUOUS
 10
33.1034
 20
26.5346
  0
VERTEX
  8
LAYER8
 62
     7
  6
CONTINUOUS
 10
33.1015
 20
26.5302
  0
VERTEX
  8
LAYER8
 62
     7
  6
CONTINUOUS
 10
33.0995
 20
26.5258
  0
VERTEX
  8
LAYER8
 62
     7
  6
CONTINUOUS
 10
33.0974
 20
26.5216
  0
VERTEX
  8
LAYER8
 62
     7
  6
CONTINUOUS
 10
33.0952
 20
26.5176
  0
VERTEX
  8
LAYER8
 62
     7
  6
CONTINUOUS
 10
33.0929
 20
26.5141
  0
VERTEX
  8
LAYER8
 62
     7
  6
CONTINUOUS
 10
33.0902
 20
26.5111
  0
VERTEX
  8
LAYER8
 62
     7
  6
CONTINUOUS
 10
33.0857
 20
26.5079
  0
VERTEX
  8
LAYER8
 62
     7
  6
CONTINUOUS
 10
33.0807
 20
26.5061
  0
VERTEX
  8
LAYER8
 62
     7
  6
CONTINUOUS
 10
33.0751
 20
26.5056
  0
VERTEX
  8
LAYER8
 62
     7
  6
CONTINUOUS
 10
33.0692
 20
26.5063
  0
VERTEX
  8
LAYER8
 62
     7
  6
CONTINUOUS
 10
33.0630
 20
26.5081
  0
VERTEX
  8
LAYER8
 62
     7
  6
CONTINUOUS
 10
33.0566
 20
26.5107
  0
VERTEX
  8
LAYER8
 62
     7
  6
CONTINUOUS
 10
33.0501
 20
26.5141
  0
VERTEX
  8
LAYER8
 62
     7
  6
CONTINUOUS
 10
33.0436
 20
26.5182
  0
VERTEX
  8
LAYER8
 62
     7
  6
CONTINUOUS
 10
33.0373
 20
26.5228
  0
VERTEX
  8
LAYER8
 62
     7
  6
CONTINUOUS
 10
33.0311
 20
26.5278
  0
VERTEX
  8
LAYER8
 62
     7
  6
CONTINUOUS
 10
33.0253
 20
26.5330
  0
VERTEX
  8
LAYER8
 62
     7
  6
CONTINUOUS
 10
33.0199
 20
26.5385
  0
VERTEX
  8
LAYER8
 62
     7
  6
CONTINUOUS
 10
33.0158
 20
26.5430
  0
VERTEX
  8
LAYER8
 62
     7
  6
CONTINUOUS
 10
33.0120
 20
26.5475
  0
VERTEX
  8
LAYER8
 62
     7
  6
CONTINUOUS
 10
33.0086
 20
26.5520
  0
VERTEX
  8
LAYER8
 62
     7
  6
CONTINUOUS
 10
33.0055
 20
26.5566
  0
VERTEX
  8
LAYER8
 62
     7
  6
CONTINUOUS
 10
33.0027
 20
26.5612
  0
VERTEX
  8
LAYER8
 62
     7
  6
CONTINUOUS
 10
33.0002
 20
26.5658
  0
VERTEX
  8
LAYER8
 62
     7
  6
CONTINUOUS
 10
32.9981
 20
26.5704
  0
VERTEX
  8
LAYER8
 62
     7
  6
CONTINUOUS
 10
32.9962
 20
26.5751
  0
VERTEX
  8
LAYER8
 62
     7
  6
CONTINUOUS
 10
32.9946
 20
26.5798
  0
VERTEX
  8
LAYER8
 62
     7
  6
CONTINUOUS
 10
32.9933
 20
26.5846
  0
VERTEX
  8
LAYER8
 62
     7
  6
CONTINUOUS
 10
32.9923
 20
26.5893
  0
VERTEX
  8
LAYER8
 62
     7
  6
CONTINUOUS
 10
32.9916
 20
26.5942
  0
VERTEX
  8
LAYER8
 62
     7
  6
CONTINUOUS
 10
32.9909
 20
26.6023
  0
VERTEX
  8
LAYER8
 62
     7
  6
CONTINUOUS
 10
32.9909
 20
26.6104
  0
VERTEX
  8
LAYER8
 62
     7
  6
CONTINUOUS
 10
32.9916
 20
26.6187
  0
VERTEX
  8
LAYER8
 62
     7
  6
CONTINUOUS
 10
32.9929
 20
26.6270
  0
VERTEX
  8
LAYER8
 62
     7
  6
CONTINUOUS
 10
32.9949
 20
26.6353
  0
VERTEX
  8
LAYER8
 62
     7
  6
CONTINUOUS
 10
32.9975
 20
26.6436
  0
VERTEX
  8
LAYER8
 62
     7
  6
CONTINUOUS
 10
33.0007
 20
26.6519
  0
VERTEX
  8
LAYER8
 62
     7
  6
CONTINUOUS
 10
33.0045
 20
26.6601
  0
VERTEX
  8
LAYER8
 62
     7
  6
CONTINUOUS
 10
33.0088
 20
26.6682
  0
VERTEX
  8
LAYER8
 62
     7
  6
CONTINUOUS
 10
33.0138
 20
26.6762
  0
VERTEX
  8
LAYER8
 62
     7
  6
CONTINUOUS
 10
33.0193
 20
26.6840
  0
VERTEX
  8
LAYER8
 62
     7
  6
CONTINUOUS
 10
33.0253
 20
26.6917
  0
VERTEX
  8
LAYER8
 62
     7
  6
CONTINUOUS
 10
33.0296
 20
26.6968
  0
VERTEX
  8
LAYER8
 62
     7
  6
CONTINUOUS
 10
33.0341
 20
26.7018
  0
VERTEX
  8
LAYER8
 62
     7
  6
CONTINUOUS
 10
33.0387
 20
26.7067
  0
VERTEX
  8
LAYER8
 62
     7
  6
CONTINUOUS
 10
33.0432
 20
26.7115
  0
VERTEX
  8
LAYER8
 62
     7
  6
CONTINUOUS
 10
33.0476
 20
26.7162
  0
VERTEX
  8
LAYER8
 62
     7
  6
CONTINUOUS
 10
33.0518
 20
26.7209
  0
VERTEX
  8
LAYER8
 62
     7
  6
CONTINUOUS
 10
33.0557
 20
26.7255
  0
VERTEX
  8
LAYER8
 62
     7
  6
CONTINUOUS
 10
33.0593
 20
26.7300
  0
VERTEX
  8
LAYER8
 62
     7
  6
CONTINUOUS
 10
33.0623
 20
26.7344
  0
VERTEX
  8
LAYER8
 62
     7
  6
CONTINUOUS
 10
33.0648
 20
26.7388
  0
VERTEX
  8
LAYER8
 62
     7
  6
CONTINUOUS
 10
33.0666
 20
26.7430
  0
VERTEX
  8
LAYER8
 62
     7
  6
CONTINUOUS
 10
33.0677
 20
26.7473
  0
VERTEX
  8
LAYER8
 62
     7
  6
CONTINUOUS
 10
33.0679
 20
26.7537
  0
VERTEX
  8
LAYER8
 62
     7
  6
CONTINUOUS
 10
33.0662
 20
26.7600
  0
VERTEX
  8
LAYER8
 62
     7
  6
CONTINUOUS
 10
33.0629
 20
26.7661
  0
VERTEX
  8
LAYER8
 62
     7
  6
CONTINUOUS
 10
33.0582
 20
26.7722
  0
VERTEX
  8
LAYER8
 62
     7
  6
CONTINUOUS
 10
33.0521
 20
26.7781
  0
VERTEX
  8
LAYER8
 62
     7
  6
CONTINUOUS
 10
33.0449
 20
26.7840
  0
VERTEX
  8
LAYER8
 62
     7
  6
CONTINUOUS
 10
33.0368
 20
26.7898
  0
VERTEX
  8
LAYER8
 62
     7
  6
CONTINUOUS
 10
33.0278
 20
26.7956
  0
VERTEX
  8
LAYER8
 62
     7
  6
CONTINUOUS
 10
33.0181
 20
26.8013
  0
VERTEX
  8
LAYER8
 62
     7
  6
CONTINUOUS
 10
33.0080
 20
26.8070
  0
VERTEX
  8
LAYER8
 62
     7
  6
CONTINUOUS
 10
32.9976
 20
26.8126
  0
VERTEX
  8
LAYER8
 62
     7
  6
CONTINUOUS
 10
32.9869
 20
26.8183
  0
SEQEND
  8
LAYER8
  0
POLYLINE
  8
LAYER8
 62
     7
 66
     1
  6
CONTINUOUS
  0
VERTEX
  8
LAYER8
 62
     7
  6
CONTINUOUS
 10
32.9869
 20
26.8946
  0
VERTEX
  8
LAYER8
 62
     7
  6
CONTINUOUS
 10
32.9957
 20
26.8975
  0
VERTEX
  8
LAYER8
 62
     7
  6
CONTINUOUS
 10
33.0044
 20
26.9005
  0
VERTEX
  8
LAYER8
 62
     7
  6
CONTINUOUS
 10
33.0129
 20
26.9035
  0
VERTEX
  8
LAYER8
 62
     7
  6
CONTINUOUS
 10
33.0212
 20
26.9067
  0
VERTEX
  8
LAYER8
 62
     7
  6
CONTINUOUS
 10
33.0292
 20
26.9101
  0
VERTEX
  8
LAYER8
 62
     7
  6
CONTINUOUS
 10
33.0368
 20
26.9137
  0
VERTEX
  8
LAYER8
 62
     7
  6
CONTINUOUS
 10
33.0439
 20
26.9176
  0
VERTEX
  8
LAYER8
 62
     7
  6
CONTINUOUS
 10
33.0505
 20
26.9219
  0
VERTEX
  8
LAYER8
 62
     7
  6
CONTINUOUS
 10
33.0564
 20
26.9265
  0
VERTEX
  8
LAYER8
 62
     7
  6
CONTINUOUS
 10
33.0617
 20
26.9316
  0
VERTEX
  8
LAYER8
 62
     7
  6
CONTINUOUS
 10
33.0661
 20
26.9371
  0
VERTEX
  8
LAYER8
 62
     7
  6
CONTINUOUS
 10
33.0697
 20
26.9432
  0
VERTEX
  8
LAYER8
 62
     7
  6
CONTINUOUS
 10
33.0725
 20
26.9502
  0
VERTEX
  8
LAYER8
 62
     7
  6
CONTINUOUS
 10
33.0743
 20
26.9578
  0
VERTEX
  8
LAYER8
 62
     7
  6
CONTINUOUS
 10
33.0751
 20
26.9659
  0
VERTEX
  8
LAYER8
 62
     7
  6
CONTINUOUS
 10
33.0749
 20
26.9743
  0
VERTEX
  8
LAYER8
 62
     7
  6
CONTINUOUS
 10
33.0737
 20
26.9829
  0
VERTEX
  8
LAYER8
 62
     7
  6
CONTINUOUS
 10
33.0717
 20
26.9917
  0
VERTEX
  8
LAYER8
 62
     7
  6
CONTINUOUS
 10
33.0688
 20
27.0005
  0
VERTEX
  8
LAYER8
 62
     7
  6
CONTINUOUS
 10
33.0651
 20
27.0092
  0
VERTEX
  8
LAYER8
 62
     7
  6
CONTINUOUS
 10
33.0606
 20
27.0178
  0
VERTEX
  8
LAYER8
 62
     7
  6
CONTINUOUS
 10
33.0553
 20
27.0261
  0
VERTEX
  8
LAYER8
 62
     7
  6
CONTINUOUS
 10
33.0493
 20
27.0340
  0
VERTEX
  8
LAYER8
 62
     7
  6
CONTINUOUS
 10
33.0426
 20
27.0414
  0
VERTEX
  8
LAYER8
 62
     7
  6
CONTINUOUS
 10
33.0369
 20
27.0468
  0
VERTEX
  8
LAYER8
 62
     7
  6
CONTINUOUS
 10
33.0310
 20
27.0519
  0
VERTEX
  8
LAYER8
 62
     7
  6
CONTINUOUS
 10
33.0250
 20
27.0568
  0
VERTEX
  8
LAYER8
 62
     7
  6
CONTINUOUS
 10
33.0189
 20
27.0615
  0
VERTEX
  8
LAYER8
 62
     7
  6
CONTINUOUS
 10
33.0130
 20
27.0660
  0
VERTEX
  8
LAYER8
 62
     7
  6
CONTINUOUS
 10
33.0074
 20
27.0704
  0
VERTEX
  8
LAYER8
 62
     7
  6
CONTINUOUS
 10
33.0022
 20
27.0748
  0
VERTEX
  8
LAYER8
 62
     7
  6
CONTINUOUS
 10
32.9976
 20
27.0792
  0
VERTEX
  8
LAYER8
 62
     7
  6
CONTINUOUS
 10
32.9936
 20
27.0836
  0
VERTEX
  8
LAYER8
 62
     7
  6
CONTINUOUS
 10
32.9905
 20
27.0882
  0
VERTEX
  8
LAYER8
 62
     7
  6
CONTINUOUS
 10
32.9884
 20
27.0930
  0
VERTEX
  8
LAYER8
 62
     7
  6
CONTINUOUS
 10
32.9873
 20
27.0979
  0
VERTEX
  8
LAYER8
 62
     7
  6
CONTINUOUS
 10
32.9874
 20
27.1025
  0
VERTEX
  8
LAYER8
 62
     7
  6
CONTINUOUS
 10
32.9883
 20
27.1072
  0
VERTEX
  8
LAYER8
 62
     7
  6
CONTINUOUS
 10
32.9900
 20
27.1121
  0
VERTEX
  8
LAYER8
 62
     7
  6
CONTINUOUS
 10
32.9925
 20
27.1171
  0
VERTEX
  8
LAYER8
 62
     7
  6
CONTINUOUS
 10
32.9956
 20
27.1220
  0
VERTEX
  8
LAYER8
 62
     7
  6
CONTINUOUS
 10
32.9992
 20
27.1270
  0
VERTEX
  8
LAYER8
 62
     7
  6
CONTINUOUS
 10
33.0033
 20
27.1319
  0
VERTEX
  8
LAYER8
 62
     7
  6
CONTINUOUS
 10
33.0079
 20
27.1368
  0
VERTEX
  8
LAYER8
 62
     7
  6
CONTINUOUS
 10
33.0127
 20
27.1415
  0
VERTEX
  8
LAYER8
 62
     7
  6
CONTINUOUS
 10
33.0177
 20
27.1460
  0
VERTEX
  8
LAYER8
 62
     7
  6
CONTINUOUS
 10
33.0229
 20
27.1503
  0
VERTEX
  8
LAYER8
 62
     7
  6
CONTINUOUS
 10
33.0282
 20
27.1543
  0
VERTEX
  8
LAYER8
 62
     7
  6
CONTINUOUS
 10
33.0344
 20
27.1586
  0
VERTEX
  8
LAYER8
 62
     7
  6
CONTINUOUS
 10
33.0405
 20
27.1626
  0
VERTEX
  8
LAYER8
 62
     7
  6
CONTINUOUS
 10
33.0466
 20
27.1663
  0
VERTEX
  8
LAYER8
 62
     7
  6
CONTINUOUS
 10
33.0527
 20
27.1698
  0
VERTEX
  8
LAYER8
 62
     7
  6
CONTINUOUS
 10
33.0586
 20
27.1731
  0
VERTEX
  8
LAYER8
 62
     7
  6
CONTINUOUS
 10
33.0646
 20
27.1763
  0
VERTEX
  8
LAYER8
 62
     7
  6
CONTINUOUS
 10
33.0704
 20
27.1794
  0
VERTEX
  8
LAYER8
 62
     7
  6
CONTINUOUS
 10
33.0761
 20
27.1826
  0
VERTEX
  8
LAYER8
 62
     7
  6
CONTINUOUS
 10
33.0817
 20
27.1859
  0
VERTEX
  8
LAYER8
 62
     7
  6
CONTINUOUS
 10
33.0872
 20
27.1894
  0
VERTEX
  8
LAYER8
 62
     7
  6
CONTINUOUS
 10
33.0926
 20
27.1930
  0
VERTEX
  8
LAYER8
 62
     7
  6
CONTINUOUS
 10
33.0978
 20
27.1970
  0
VERTEX
  8
LAYER8
 62
     7
  6
CONTINUOUS
 10
33.1002
 20
27.1990
  0
VERTEX
  8
LAYER8
 62
     7
  6
CONTINUOUS
 10
33.1027
 20
27.2011
  0
VERTEX
  8
LAYER8
 62
     7
  6
CONTINUOUS
 10
33.1051
 20
27.2033
  0
VERTEX
  8
LAYER8
 62
     7
  6
CONTINUOUS
 10
33.1074
 20
27.2055
  0
VERTEX
  8
LAYER8
 62
     7
  6
CONTINUOUS
 10
33.1098
 20
27.2078
  0
VERTEX
  8
LAYER8
 62
     7
  6
CONTINUOUS
 10
33.1121
 20
27.2102
  0
VERTEX
  8
LAYER8
 62
     7
  6
CONTINUOUS
 10
33.1144
 20
27.2126
  0
VERTEX
  8
LAYER8
 62
     7
  6
CONTINUOUS
 10
33.1166
 20
27.2151
  0
VERTEX
  8
LAYER8
 62
     7
  6
CONTINUOUS
 10
33.1188
 20
27.2176
  0
VERTEX
  8
LAYER8
 62
     7
  6
CONTINUOUS
 10
33.1210
 20
27.2201
  0
VERTEX
  8
LAYER8
 62
     7
  6
CONTINUOUS
 10
33.1232
 20
27.2227
  0
VERTEX
  8
LAYER8
 62
     7
  6
CONTINUOUS
 10
33.1254
 20
27.2252
  0
VERTEX
  8
LAYER8
 62
     7
  6
CONTINUOUS
 10
33.1297
 20
27.2306
  0
VERTEX
  8
LAYER8
 62
     7
  6
CONTINUOUS
 10
33.1340
 20
27.2361
  0
VERTEX
  8
LAYER8
 62
     7
  6
CONTINUOUS
 10
33.1382
 20
27.2417
  0
VERTEX
  8
LAYER8
 62
     7
  6
CONTINUOUS
 10
33.1422
 20
27.2474
  0
VERTEX
  8
LAYER8
 62
     7
  6
CONTINUOUS
 10
33.1460
 20
27.2531
  0
VERTEX
  8
LAYER8
 62
     7
  6
CONTINUOUS
 10
33.1497
 20
27.2589
  0
VERTEX
  8
LAYER8
 62
     7
  6
CONTINUOUS
 10
33.1531
 20
27.2648
  0
VERTEX
  8
LAYER8
 62
     7
  6
CONTINUOUS
 10
33.1564
 20
27.2708
  0
VERTEX
  8
LAYER8
 62
     7
  6
CONTINUOUS
 10
33.1594
 20
27.2769
  0
VERTEX
  8
LAYER8
 62
     7
  6
CONTINUOUS
 10
33.1622
 20
27.2830
  0
VERTEX
  8
LAYER8
 62
     7
  6
CONTINUOUS
 10
33.1647
 20
27.2893
  0
VERTEX
  8
LAYER8
 62
     7
  6
CONTINUOUS
 10
33.1670
 20
27.2956
  0
VERTEX
  8
LAYER8
 62
     7
  6
CONTINUOUS
 10
33.1696
 20
27.3044
  0
VERTEX
  8
LAYER8
 62
     7
  6
CONTINUOUS
 10
33.1716
 20
27.3133
  0
VERTEX
  8
LAYER8
 62
     7
  6
CONTINUOUS
 10
33.1732
 20
27.3224
  0
VERTEX
  8
LAYER8
 62
     7
  6
CONTINUOUS
 10
33.1742
 20
27.3316
  0
VERTEX
  8
LAYER8
 62
     7
  6
CONTINUOUS
 10
33.1747
 20
27.3409
  0
VERTEX
  8
LAYER8
 62
     7
  6
CONTINUOUS
 10
33.1748
 20
27.3503
  0
VERTEX
  8
LAYER8
 62
     7
  6
CONTINUOUS
 10
33.1743
 20
27.3597
  0
VERTEX
  8
LAYER8
 62
     7
  6
CONTINUOUS
 10
33.1735
 20
27.3692
  0
VERTEX
  8
LAYER8
 62
     7
  6
CONTINUOUS
 10
33.1721
 20
27.3788
  0
VERTEX
  8
LAYER8
 62
     7
  6
CONTINUOUS
 10
33.1704
 20
27.3884
  0
VERTEX
  8
LAYER8
 62
     7
  6
CONTINUOUS
 10
33.1682
 20
27.3979
  0
VERTEX
  8
LAYER8
 62
     7
  6
CONTINUOUS
 10
33.1656
 20
27.4075
  0
VERTEX
  8
LAYER8
 62
     7
  6
CONTINUOUS
 10
33.1638
 20
27.4136
  0
VERTEX
  8
LAYER8
 62
     7
  6
CONTINUOUS
 10
33.1619
 20
27.4197
  0
VERTEX
  8
LAYER8
 62
     7
  6
CONTINUOUS
 10
33.1600
 20
27.4257
  0
VERTEX
  8
LAYER8
 62
     7
  6
CONTINUOUS
 10
33.1580
 20
27.4317
  0
VERTEX
  8
LAYER8
 62
     7
  6
CONTINUOUS
 10
33.1562
 20
27.4377
  0
VERTEX
  8
LAYER8
 62
     7
  6
CONTINUOUS
 10
33.1545
 20
27.4436
  0
VERTEX
  8
LAYER8
 62
     7
  6
CONTINUOUS
 10
33.1530
 20
27.4494
  0
VERTEX
  8
LAYER8
 62
     7
  6
CONTINUOUS
 10
33.1518
 20
27.4552
  0
VERTEX
  8
LAYER8
 62
     7
  6
CONTINUOUS
 10
33.1510
 20
27.4609
  0
VERTEX
  8
LAYER8
 62
     7
  6
CONTINUOUS
 10
33.1505
 20
27.4665
  0
VERTEX
  8
LAYER8
 62
     7
  6
CONTINUOUS
 10
33.1505
 20
27.4720
  0
VERTEX
  8
LAYER8
 62
     7
  6
CONTINUOUS
 10
33.1510
 20
27.4774
  0
VERTEX
  8
LAYER8
 62
     7
  6
CONTINUOUS
 10
33.1527
 20
27.4848
  0
VERTEX
  8
LAYER8
 62
     7
  6
CONTINUOUS
 10
33.1553
 20
27.4920
  0
VERTEX
  8
LAYER8
 62
     7
  6
CONTINUOUS
 10
33.1589
 20
27.4990
  0
VERTEX
  8
LAYER8
 62
     7
  6
CONTINUOUS
 10
33.1632
 20
27.5060
  0
VERTEX
  8
LAYER8
 62
     7
  6
CONTINUOUS
 10
33.1680
 20
27.5128
  0
VERTEX
  8
LAYER8
 62
     7
  6
CONTINUOUS
 10
33.1733
 20
27.5196
  0
VERTEX
  8
LAYER8
 62
     7
  6
CONTINUOUS
 10
33.1789
 20
27.5264
  0
VERTEX
  8
LAYER8
 62
     7
  6
CONTINUOUS
 10
33.1846
 20
27.5333
  0
VERTEX
  8
LAYER8
 62
     7
  6
CONTINUOUS
 10
33.1904
 20
27.5402
  0
VERTEX
  8
LAYER8
 62
     7
  6
CONTINUOUS
 10
33.1960
 20
27.5472
  0
VERTEX
  8
LAYER8
 62
     7
  6
CONTINUOUS
 10
33.2013
 20
27.5544
  0
VERTEX
  8
LAYER8
 62
     7
  6
CONTINUOUS
 10
33.2062
 20
27.5618
  0
VERTEX
  8
LAYER8
 62
     7
  6
CONTINUOUS
 10
33.2089
 20
27.5665
  0
VERTEX
  8
LAYER8
 62
     7
  6
CONTINUOUS
 10
33.2115
 20
27.5713
  0
VERTEX
  8
LAYER8
 62
     7
  6
CONTINUOUS
 10
33.2140
 20
27.5761
  0
VERTEX
  8
LAYER8
 62
     7
  6
CONTINUOUS
 10
33.2162
 20
27.5809
  0
VERTEX
  8
LAYER8
 62
     7
  6
CONTINUOUS
 10
33.2184
 20
27.5858
  0
VERTEX
  8
LAYER8
 62
     7
  6
CONTINUOUS
 10
33.2206
 20
27.5906
  0
VERTEX
  8
LAYER8
 62
     7
  6
CONTINUOUS
 10
33.2227
 20
27.5954
  0
VERTEX
  8
LAYER8
 62
     7
  6
CONTINUOUS
 10
33.2248
 20
27.6001
  0
VERTEX
  8
LAYER8
 62
     7
  6
CONTINUOUS
 10
33.2269
 20
27.6048
  0
VERTEX
  8
LAYER8
 62
     7
  6
CONTINUOUS
 10
33.2291
 20
27.6094
  0
VERTEX
  8
LAYER8
 62
     7
  6
CONTINUOUS
 10
33.2314
 20
27.6138
  0
VERTEX
  8
LAYER8
 62
     7
  6
CONTINUOUS
 10
33.2338
 20
27.6181
  0
VERTEX
  8
LAYER8
 62
     7
  6
CONTINUOUS
 10
33.2370
 20
27.6233
  0
VERTEX
  8
LAYER8
 62
     7
  6
CONTINUOUS
 10
33.2405
 20
27.6282
  0
VERTEX
  8
LAYER8
 62
     7
  6
CONTINUOUS
 10
33.2442
 20
27.6330
  0
VERTEX
  8
LAYER8
 62
     7
  6
CONTINUOUS
 10
33.2481
 20
27.6377
  0
VERTEX
  8
LAYER8
 62
     7
  6
CONTINUOUS
 10
33.2524
 20
27.6422
  0
VERTEX
  8
LAYER8
 62
     7
  6
CONTINUOUS
 10
33.2568
 20
27.6467
  0
VERTEX
  8
LAYER8
 62
     7
  6
CONTINUOUS
 10
33.2615
 20
27.6511
  0
VERTEX
  8
LAYER8
 62
     7
  6
CONTINUOUS
 10
33.2665
 20
27.6556
  0
VERTEX
  8
LAYER8
 62
     7
  6
CONTINUOUS
 10
33.2717
 20
27.6602
  0
VERTEX
  8
LAYER8
 62
     7
  6
CONTINUOUS
 10
33.2772
 20
27.6648
  0
VERTEX
  8
LAYER8
 62
     7
  6
CONTINUOUS
 10
33.2829
 20
27.6696
  0
VERTEX
  8
LAYER8
 62
     7
  6
CONTINUOUS
 10
33.2889
 20
27.6746
  0
VERTEX
  8
LAYER8
 62
     7
  6
CONTINUOUS
 10
33.2929
 20
27.6779
  0
VERTEX
  8
LAYER8
 62
     7
  6
CONTINUOUS
 10
33.2969
 20
27.6813
  0
VERTEX
  8
LAYER8
 62
     7
  6
CONTINUOUS
 10
33.3008
 20
27.6847
  0
VERTEX
  8
LAYER8
 62
     7
  6
CONTINUOUS
 10
33.3045
 20
27.6882
  0
VERTEX
  8
LAYER8
 62
     7
  6
CONTINUOUS
 10
33.3080
 20
27.6917
  0
VERTEX
  8
LAYER8
 62
     7
  6
CONTINUOUS
 10
33.3111
 20
27.6953
  0
VERTEX
  8
LAYER8
 62
     7
  6
CONTINUOUS
 10
33.3137
 20
27.6989
  0
VERTEX
  8
LAYER8
 62
     7
  6
CONTINUOUS
 10
33.3158
 20
27.7025
  0
VERTEX
  8
LAYER8
 62
     7
  6
CONTINUOUS
 10
33.3172
 20
27.7061
  0
VERTEX
  8
LAYER8
 62
     7
  6
CONTINUOUS
 10
33.3179
 20
27.7097
  0
VERTEX
  8
LAYER8
 62
     7
  6
CONTINUOUS
 10
33.3178
 20
27.7133
  0
VERTEX
  8
LAYER8
 62
     7
  6
CONTINUOUS
 10
33.3168
 20
27.7169
  0
VERTEX
  8
LAYER8
 62
     7
  6
CONTINUOUS
 10
33.3148
 20
27.7204
  0
VERTEX
  8
LAYER8
 62
     7
  6
CONTINUOUS
 10
33.3119
 20
27.7238
  0
VERTEX
  8
LAYER8
 62
     7
  6
CONTINUOUS
 10
33.3083
 20
27.7270
  0
VERTEX
  8
LAYER8
 62
     7
  6
CONTINUOUS
 10
33.3043
 20
27.7302
  0
VERTEX
  8
LAYER8
 62
     7
  6
CONTINUOUS
 10
33.2999
 20
27.7331
  0
VERTEX
  8
LAYER8
 62
     7
  6
CONTINUOUS
 10
33.2953
 20
27.7357
  0
VERTEX
  8
LAYER8
 62
     7
  6
CONTINUOUS
 10
33.2908
 20
27.7381
  0
VERTEX
  8
LAYER8
 62
     7
  6
CONTINUOUS
 10
33.2864
 20
27.7402
  0
VERTEX
  8
LAYER8
 62
     7
  6
CONTINUOUS
 10
33.2824
 20
27.7419
  0
VERTEX
  8
LAYER8
 62
     7
  6
CONTINUOUS
 10
33.2790
 20
27.7432
  0
VERTEX
  8
LAYER8
 62
     7
  6
CONTINUOUS
 10
33.2762
 20
27.7441
  0
VERTEX
  8
LAYER8
 62
     7
  6
CONTINUOUS
 10
33.2743
 20
27.7444
  0
VERTEX
  8
LAYER8
 62
     7
  6
CONTINUOUS
 10
33.2740
 20
27.7445
  0
VERTEX
  8
LAYER8
 62
     7
  6
CONTINUOUS
 10
33.2737
 20
27.7445
  0
VERTEX
  8
LAYER8
 62
     7
  6
CONTINUOUS
 10
33.2735
 20
27.7444
  0
VERTEX
  8
LAYER8
 62
     7
  6
CONTINUOUS
 10
33.2734
 20
27.7444
  0
VERTEX
  8
LAYER8
 62
     7
  6
CONTINUOUS
 10
33.2733
 20
27.7444
  0
VERTEX
  8
LAYER8
 62
     7
  6
CONTINUOUS
 10
33.2733
 20
27.7443
  0
VERTEX
  8
LAYER8
 62
     7
  6
CONTINUOUS
 10
33.2733
 20
27.7443
  0
VERTEX
  8
LAYER8
 62
     7
  6
CONTINUOUS
 10
33.2734
 20
27.7443
  0
VERTEX
  8
LAYER8
 62
     7
  6
CONTINUOUS
 10
33.2736
 20
27.7443
  0
VERTEX
  8
LAYER8
 62
     7
  6
CONTINUOUS
 10
33.2738
 20
27.7443
  0
VERTEX
  8
LAYER8
 62
     7
  6
CONTINUOUS
 10
33.2740
 20
27.7443
  0
VERTEX
  8
LAYER8
 62
     7
  6
CONTINUOUS
 10
33.2743
 20
27.7444
  0
VERTEX
  8
LAYER8
 62
     7
  6
CONTINUOUS
 10
33.2755
 20
27.7451
  0
VERTEX
  8
LAYER8
 62
     7
  6
CONTINUOUS
 10
33.2771
 20
27.7462
  0
VERTEX
  8
LAYER8
 62
     7
  6
CONTINUOUS
 10
33.2791
 20
27.7476
  0
VERTEX
  8
LAYER8
 62
     7
  6
CONTINUOUS
 10
33.2813
 20
27.7495
  0
VERTEX
  8
LAYER8
 62
     7
  6
CONTINUOUS
 10
33.2838
 20
27.7516
  0
VERTEX
  8
LAYER8
 62
     7
  6
CONTINUOUS
 10
33.2864
 20
27.7541
  0
VERTEX
  8
LAYER8
 62
     7
  6
CONTINUOUS
 10
33.2891
 20
27.7568
  0
VERTEX
  8
LAYER8
 62
     7
  6
CONTINUOUS
 10
33.2919
 20
27.7597
  0
VERTEX
  8
LAYER8
 62
     7
  6
CONTINUOUS
 10
33.2946
 20
27.7628
  0
VERTEX
  8
LAYER8
 62
     7
  6
CONTINUOUS
 10
33.2973
 20
27.7660
  0
VERTEX
  8
LAYER8
 62
     7
  6
CONTINUOUS
 10
33.2998
 20
27.7693
  0
VERTEX
  8
LAYER8
 62
     7
  6
CONTINUOUS
 10
33.3021
 20
27.7727
  0
VERTEX
  8
LAYER8
 62
     7
  6
CONTINUOUS
 10
33.3056
 20
27.7787
  0
VERTEX
  8
LAYER8
 62
     7
  6
CONTINUOUS
 10
33.3083
 20
27.7848
  0
VERTEX
  8
LAYER8
 62
     7
  6
CONTINUOUS
 10
33.3102
 20
27.7908
  0
VERTEX
  8
LAYER8
 62
     7
  6
CONTINUOUS
 10
33.3115
 20
27.7969
  0
VERTEX
  8
LAYER8
 62
     7
  6
CONTINUOUS
 10
33.3121
 20
27.8030
  0
VERTEX
  8
LAYER8
 62
     7
  6
CONTINUOUS
 10
33.3121
 20
27.8090
  0
VERTEX
  8
LAYER8
 62
     7
  6
CONTINUOUS
 10
33.3115
 20
27.8149
  0
VERTEX
  8
LAYER8
 62
     7
  6
CONTINUOUS
 10
33.3104
 20
27.8207
  0
VERTEX
  8
LAYER8
 62
     7
  6
CONTINUOUS
 10
33.3088
 20
27.8264
  0
VERTEX
  8
LAYER8
 62
     7
  6
CONTINUOUS
 10
33.3068
 20
27.8320
  0
VERTEX
  8
LAYER8
 62
     7
  6
CONTINUOUS
 10
33.3044
 20
27.8374
  0
VERTEX
  8
LAYER8
 62
     7
  6
CONTINUOUS
 10
33.3016
 20
27.8427
  0
VERTEX
  8
LAYER8
 62
     7
  6
CONTINUOUS
 10
33.2995
 20
27.8463
  0
VERTEX
  8
LAYER8
 62
     7
  6
CONTINUOUS
 10
33.2971
 20
27.8499
  0
VERTEX
  8
LAYER8
 62
     7
  6
CONTINUOUS
 10
33.2947
 20
27.8534
  0
VERTEX
  8
LAYER8
 62
     7
  6
CONTINUOUS
 10
33.2922
 20
27.8568
  0
VERTEX
  8
LAYER8
 62
     7
  6
CONTINUOUS
 10
33.2897
 20
27.8602
  0
VERTEX
  8
LAYER8
 62
     7
  6
CONTINUOUS
 10
33.2872
 20
27.8636
  0
VERTEX
  8
LAYER8
 62
     7
  6
CONTINUOUS
 10
33.2846
 20
27.8670
  0
VERTEX
  8
LAYER8
 62
     7
  6
CONTINUOUS
 10
33.2821
 20
27.8703
  0
VERTEX
  8
LAYER8
 62
     7
  6
CONTINUOUS
 10
33.2797
 20
27.8738
  0
VERTEX
  8
LAYER8
 62
     7
  6
CONTINUOUS
 10
33.2774
 20
27.8772
  0
VERTEX
  8
LAYER8
 62
     7
  6
CONTINUOUS
 10
33.2752
 20
27.8808
  0
VERTEX
  8
LAYER8
 62
     7
  6
CONTINUOUS
 10
33.2732
 20
27.8844
  0
VERTEX
  8
LAYER8
 62
     7
  6
CONTINUOUS
 10
33.2698
 20
27.8917
  0
VERTEX
  8
LAYER8
 62
     7
  6
CONTINUOUS
 10
33.2671
 20
27.8993
  0
VERTEX
  8
LAYER8
 62
     7
  6
CONTINUOUS
 10
33.2650
 20
27.9072
  0
VERTEX
  8
LAYER8
 62
     7
  6
CONTINUOUS
 10
33.2636
 20
27.9154
  0
VERTEX
  8
LAYER8
 62
     7
  6
CONTINUOUS
 10
33.2628
 20
27.9237
  0
VERTEX
  8
LAYER8
 62
     7
  6
CONTINUOUS
 10
33.2626
 20
27.9321
  0
VERTEX
  8
LAYER8
 62
     7
  6
CONTINUOUS
 10
33.2629
 20
27.9406
  0
VERTEX
  8
LAYER8
 62
     7
  6
CONTINUOUS
 10
33.2638
 20
27.9491
  0
VERTEX
  8
LAYER8
 62
     7
  6
CONTINUOUS
 10
33.2652
 20
27.9576
  0
VERTEX
  8
LAYER8
 62
     7
  6
CONTINUOUS
 10
33.2671
 20
27.9660
  0
VERTEX
  8
LAYER8
 62
     7
  6
CONTINUOUS
 10
33.2695
 20
27.9743
  0
VERTEX
  8
LAYER8
 62
     7
  6
CONTINUOUS
 10
33.2723
 20
27.9824
  0
VERTEX
  8
LAYER8
 62
     7
  6
CONTINUOUS
 10
33.2740
 20
27.9864
  0
VERTEX
  8
LAYER8
 62
     7
  6
CONTINUOUS
 10
33.2757
 20
27.9904
  0
VERTEX
  8
LAYER8
 62
     7
  6
CONTINUOUS
 10
33.2775
 20
27.9943
  0
VERTEX
  8
LAYER8
 62
     7
  6
CONTINUOUS
 10
33.2795
 20
27.9982
  0
VERTEX
  8
LAYER8
 62
     7
  6
CONTINUOUS
 10
33.2816
 20
28.0019
  0
VERTEX
  8
LAYER8
 62
     7
  6
CONTINUOUS
 10
33.2838
 20
28.0055
  0
VERTEX
  8
LAYER8
 62
     7
  6
CONTINUOUS
 10
33.2861
 20
28.0090
  0
VERTEX
  8
LAYER8
 62
     7
  6
CONTINUOUS
 10
33.2886
 20
28.0124
  0
VERTEX
  8
LAYER8
 62
     7
  6
CONTINUOUS
 10
33.2912
 20
28.0157
  0
VERTEX
  8
LAYER8
 62
     7
  6
CONTINUOUS
 10
33.2939
 20
28.0188
  0
VERTEX
  8
LAYER8
 62
     7
  6
CONTINUOUS
 10
33.2968
 20
28.0218
  0
VERTEX
  8
LAYER8
 62
     7
  6
CONTINUOUS
 10
33.2998
 20
28.0246
  0
VERTEX
  8
LAYER8
 62
     7
  6
CONTINUOUS
 10
33.3050
 20
28.0288
  0
VERTEX
  8
LAYER8
 62
     7
  6
CONTINUOUS
 10
33.3104
 20
28.0327
  0
VERTEX
  8
LAYER8
 62
     7
  6
CONTINUOUS
 10
33.3162
 20
28.0363
  0
VERTEX
  8
LAYER8
 62
     7
  6
CONTINUOUS
 10
33.3221
 20
28.0397
  0
VERTEX
  8
LAYER8
 62
     7
  6
CONTINUOUS
 10
33.3282
 20
28.0430
  0
VERTEX
  8
LAYER8
 62
     7
  6
CONTINUOUS
 10
33.3343
 20
28.0461
  0
VERTEX
  8
LAYER8
 62
     7
  6
CONTINUOUS
 10
33.3405
 20
28.0493
  0
VERTEX
  8
LAYER8
 62
     7
  6
CONTINUOUS
 10
33.3466
 20
28.0525
  0
VERTEX
  8
LAYER8
 62
     7
  6
CONTINUOUS
 10
33.3526
 20
28.0558
  0
VERTEX
  8
LAYER8
 62
     7
  6
CONTINUOUS
 10
33.3585
 20
28.0593
  0
VERTEX
  8
LAYER8
 62
     7
  6
CONTINUOUS
 10
33.3641
 20
28.0631
  0
VERTEX
  8
LAYER8
 62
     7
  6
CONTINUOUS
 10
33.3695
 20
28.0672
  0
VERTEX
  8
LAYER8
 62
     7
  6
CONTINUOUS
 10
33.3727
 20
28.0699
  0
VERTEX
  8
LAYER8
 62
     7
  6
CONTINUOUS
 10
33.3757
 20
28.0728
  0
VERTEX
  8
LAYER8
 62
     7
  6
CONTINUOUS
 10
33.3786
 20
28.0758
  0
VERTEX
  8
LAYER8
 62
     7
  6
CONTINUOUS
 10
33.3813
 20
28.0790
  0
VERTEX
  8
LAYER8
 62
     7
  6
CONTINUOUS
 10
33.3839
 20
28.0823
  0
VERTEX
  8
LAYER8
 62
     7
  6
CONTINUOUS
 10
33.3863
 20
28.0858
  0
VERTEX
  8
LAYER8
 62
     7
  6
CONTINUOUS
 10
33.3885
 20
28.0894
  0
VERTEX
  8
LAYER8
 62
     7
  6
CONTINUOUS
 10
33.3906
 20
28.0932
  0
VERTEX
  8
LAYER8
 62
     7
  6
CONTINUOUS
 10
33.3925
 20
28.0970
  0
VERTEX
  8
LAYER8
 62
     7
  6
CONTINUOUS
 10
33.3941
 20
28.1011
  0
VERTEX
  8
LAYER8
 62
     7
  6
CONTINUOUS
 10
33.3956
 20
28.1052
  0
VERTEX
  8
LAYER8
 62
     7
  6
CONTINUOUS
 10
33.3969
 20
28.1095
  0
VERTEX
  8
LAYER8
 62
     7
  6
CONTINUOUS
 10
33.3978
 20
28.1134
  0
VERTEX
  8
LAYER8
 62
     7
  6
CONTINUOUS
 10
33.3986
 20
28.1173
  0
VERTEX
  8
LAYER8
 62
     7
  6
CONTINUOUS
 10
33.3993
 20
28.1213
  0
VERTEX
  8
LAYER8
 62
     7
  6
CONTINUOUS
 10
33.4000
 20
28.1252
  0
VERTEX
  8
LAYER8
 62
     7
  6
CONTINUOUS
 10
33.4008
 20
28.1291
  0
VERTEX
  8
LAYER8
 62
     7
  6
CONTINUOUS
 10
33.4016
 20
28.1329
  0
VERTEX
  8
LAYER8
 62
     7
  6
CONTINUOUS
 10
33.4025
 20
28.1365
  0
VERTEX
  8
LAYER8
 62
     7
  6
CONTINUOUS
 10
33.4036
 20
28.1400
  0
VERTEX
  8
LAYER8
 62
     7
  6
CONTINUOUS
 10
33.4049
 20
28.1433
  0
VERTEX
  8
LAYER8
 62
     7
  6
CONTINUOUS
 10
33.4064
 20
28.1464
  0
VERTEX
  8
LAYER8
 62
     7
  6
CONTINUOUS
 10
33.4083
 20
28.1492
  0
VERTEX
  8
LAYER8
 62
     7
  6
CONTINUOUS
 10
33.4105
 20
28.1516
  0
VERTEX
  8
LAYER8
 62
     7
  6
CONTINUOUS
 10
33.4121
 20
28.1529
  0
VERTEX
  8
LAYER8
 62
     7
  6
CONTINUOUS
 10
33.4138
 20
28.1542
  0
VERTEX
  8
LAYER8
 62
     7
  6
CONTINUOUS
 10
33.4157
 20
28.1553
  0
VERTEX
  8
LAYER8
 62
     7
  6
CONTINUOUS
 10
33.4177
 20
28.1563
  0
VERTEX
  8
LAYER8
 62
     7
  6
CONTINUOUS
 10
33.4197
 20
28.1572
  0
VERTEX
  8
LAYER8
 62
     7
  6
CONTINUOUS
 10
33.4219
 20
28.1580
  0
VERTEX
  8
LAYER8
 62
     7
  6
CONTINUOUS
 10
33.4241
 20
28.1588
  0
VERTEX
  8
LAYER8
 62
     7
  6
CONTINUOUS
 10
33.4264
 20
28.1595
  0
VERTEX
  8
LAYER8
 62
     7
  6
CONTINUOUS
 10
33.4288
 20
28.1601
  0
VERTEX
  8
LAYER8
 62
     7
  6
CONTINUOUS
 10
33.4312
 20
28.1608
  0
VERTEX
  8
LAYER8
 62
     7
  6
CONTINUOUS
 10
33.4336
 20
28.1614
  0
VERTEX
  8
LAYER8
 62
     7
  6
CONTINUOUS
 10
33.4361
 20
28.1619
  0
SEQEND
  8
LAYER8
  0
POLYLINE
  8
LAYER25
 62
     5
 66
     1
  6
CONTINUOUS
  0
VERTEX
  8
LAYER25
 62
     5
  6
CONTINUOUS
 10
35.7640
 20
28.1619
  0
VERTEX
  8
LAYER25
 62
     5
  6
CONTINUOUS
 10
35.7640
 20
25.3848
  0
SEQEND
  8
LAYER25
  0
POLYLINE
  8
LAYER25
 62
     5
 66
     1
  6
CONTINUOUS
  0
VERTEX
  8
LAYER25
 62
     5
  6
CONTINUOUS
 10
32.9869
 20
25.3848
  0
VERTEX
  8
LAYER25
 62
     5
  6
CONTINUOUS
 10
35.7640
 20
25.3848
  0
SEQEND
  8
LAYER25
  0
POLYLINE
  8
LAYER25
 62
     5
 66
     1
  6
CONTINUOUS
  0
VERTEX
  8
LAYER25
 62
     5
  6
CONTINUOUS
 10
32.9869
 20
25.3848
  0
VERTEX
  8
LAYER25
 62
     5
  6
CONTINUOUS
 10
32.9869
 20
28.1619
  0
SEQEND
  8
LAYER25
  0
POLYLINE
  8
LAYER25
 62
     5
 66
     1
  6
CONTINUOUS
  0
VERTEX
  8
LAYER25
 62
     5
  6
CONTINUOUS
 10
35.7640
 20
28.1619
  0
VERTEX
  8
LAYER25
 62
     5
  6
CONTINUOUS
 10
32.9869
 20
28.1619
  0
SEQEND
  8
LAYER25
  0
POLYLINE
  8
LAYER52
 62
     7
 66
     1
  6
CONTINUOUS
  0
VERTEX
  8
LAYER52
 62
     7
  6
CONTINUOUS
 10
35.7640
 20
27.8414
  0
VERTEX
  8
LAYER52
 62
     7
  6
CONTINUOUS
 10
35.7630
 20
27.8434
  0
VERTEX
  8
LAYER52
 62
     7
  6
CONTINUOUS
 10
35.7619
 20
27.8455
  0
VERTEX
  8
LAYER52
 62
     7
  6
CONTINUOUS
 10
35.7609
 20
27.8475
  0
VERTEX
  8
LAYER52
 62
     7
  6
CONTINUOUS
 10
35.7598
 20
27.8495
  0
VERTEX
  8
LAYER52
 62
     7
  6
CONTINUOUS
 10
35.7587
 20
27.8516
  0
VERTEX
  8
LAYER52
 62
     7
  6
CONTINUOUS
 10
35.7576
 20
27.8536
  0
VERTEX
  8
LAYER52
 62
     7
  6
CONTINUOUS
 10
35.7565
 20
27.8557
  0
VERTEX
  8
LAYER52
 62
     7
  6
CONTINUOUS
 10
35.7553
 20
27.8577
  0
VERTEX
  8
LAYER52
 62
     7
  6
CONTINUOUS
 10
35.7541
 20
27.8598
  0
VERTEX
  8
LAYER52
 62
     7
  6
CONTINUOUS
 10
35.7529
 20
27.8618
  0
VERTEX
  8
LAYER52
 62
     7
  6
CONTINUOUS
 10
35.7517
 20
27.8639
  0
VERTEX
  8
LAYER52
 62
     7
  6
CONTINUOUS
 10
35.7504
 20
27.8660
  0
VERTEX
  8
LAYER52
 62
     7
  6
CONTINUOUS
 10
35.7489
 20
27.8683
  0
VERTEX
  8
LAYER52
 62
     7
  6
CONTINUOUS
 10
35.7474
 20
27.8706
  0
VERTEX
  8
LAYER52
 62
     7
  6
CONTINUOUS
 10
35.7458
 20
27.8729
  0
VERTEX
  8
LAYER52
 62
     7
  6
CONTINUOUS
 10
35.7443
 20
27.8753
  0
VERTEX
  8
LAYER52
 62
     7
  6
CONTINUOUS
 10
35.7429
 20
27.8776
  0
VERTEX
  8
LAYER52
 62
     7
  6
CONTINUOUS
 10
35.7415
 20
27.8799
  0
VERTEX
  8
LAYER52
 62
     7
  6
CONTINUOUS
 10
35.7402
 20
27.8823
  0
VERTEX
  8
LAYER52
 62
     7
  6
CONTINUOUS
 10
35.7391
 20
27.8846
  0
VERTEX
  8
LAYER52
 62
     7
  6
CONTINUOUS
 10
35.7381
 20
27.8869
  0
VERTEX
  8
LAYER52
 62
     7
  6
CONTINUOUS
 10
35.7372
 20
27.8893
  0
VERTEX
  8
LAYER52
 62
     7
  6
CONTINUOUS
 10
35.7366
 20
27.8916
  0
VERTEX
  8
LAYER52
 62
     7
  6
CONTINUOUS
 10
35.7362
 20
27.8939
  0
VERTEX
  8
LAYER52
 62
     7
  6
CONTINUOUS
 10
35.7361
 20
27.8976
  0
VERTEX
  8
LAYER52
 62
     7
  6
CONTINUOUS
 10
35.7366
 20
27.9014
  0
VERTEX
  8
LAYER52
 62
     7
  6
CONTINUOUS
 10
35.7377
 20
27.9051
  0
VERTEX
  8
LAYER52
 62
     7
  6
CONTINUOUS
 10
35.7393
 20
27.9088
  0
VERTEX
  8
LAYER52
 62
     7
  6
CONTINUOUS
 10
35.7414
 20
27.9124
  0
VERTEX
  8
LAYER52
 62
     7
  6
CONTINUOUS
 10
35.7439
 20
27.9160
  0
VERTEX
  8
LAYER52
 62
     7
  6
CONTINUOUS
 10
35.7467
 20
27.9197
  0
VERTEX
  8
LAYER52
 62
     7
  6
CONTINUOUS
 10
35.7498
 20
27.9232
  0
VERTEX
  8
LAYER52
 62
     7
  6
CONTINUOUS
 10
35.7532
 20
27.9268
  0
VERTEX
  8
LAYER52
 62
     7
  6
CONTINUOUS
 10
35.7567
 20
27.9304
  0
VERTEX
  8
LAYER52
 62
     7
  6
CONTINUOUS
 10
35.7603
 20
27.9340
  0
VERTEX
  8
LAYER52
 62
     7
  6
CONTINUOUS
 10
35.7640
 20
27.9375
  0
SEQEND
  8
LAYER52
  0
POLYLINE
  8
LAYER52
 62
     7
 66
     1
  6
CONTINUOUS
  0
VERTEX
  8
LAYER52
 62
     7
  6
CONTINUOUS
 10
35.6449
 20
28.1619
  0
VERTEX
  8
LAYER52
 62
     7
  6
CONTINUOUS
 10
35.6465
 20
28.1618
  0
VERTEX
  8
LAYER52
 62
     7
  6
CONTINUOUS
 10
35.6481
 20
28.1617
  0
VERTEX
  8
LAYER52
 62
     7
  6
CONTINUOUS
 10
35.6497
 20
28.1615
  0
VERTEX
  8
LAYER52
 62
     7
  6
CONTINUOUS
 10
35.6514
 20
28.1614
  0
VERTEX
  8
LAYER52
 62
     7
  6
CONTINUOUS
 10
35.6530
 20
28.1612
  0
VERTEX
  8
LAYER52
 62
     7
  6
CONTINUOUS
 10
35.6546
 20
28.1610
  0
VERTEX
  8
LAYER52
 62
     7
  6
CONTINUOUS
 10
35.6561
 20
28.1607
  0
VERTEX
  8
LAYER52
 62
     7
  6
CONTINUOUS
 10
35.6577
 20
28.1605
  0
VERTEX
  8
LAYER52
 62
     7
  6
CONTINUOUS
 10
35.6593
 20
28.1602
  0
VERTEX
  8
LAYER52
 62
     7
  6
CONTINUOUS
 10
35.6608
 20
28.1599
  0
VERTEX
  8
LAYER52
 62
     7
  6
CONTINUOUS
 10
35.6623
 20
28.1595
  0
VERTEX
  8
LAYER52
 62
     7
  6
CONTINUOUS
 10
35.6638
 20
28.1591
  0
VERTEX
  8
LAYER52
 62
     7
  6
CONTINUOUS
 10
35.6662
 20
28.1583
  0
VERTEX
  8
LAYER52
 62
     7
  6
CONTINUOUS
 10
35.6686
 20
28.1573
  0
VERTEX
  8
LAYER52
 62
     7
  6
CONTINUOUS
 10
35.6709
 20
28.1563
  0
VERTEX
  8
LAYER52
 62
     7
  6
CONTINUOUS
 10
35.6732
 20
28.1552
  0
VERTEX
  8
LAYER52
 62
     7
  6
CONTINUOUS
 10
35.6754
 20
28.1540
  0
VERTEX
  8
LAYER52
 62
     7
  6
CONTINUOUS
 10
35.6777
 20
28.1528
  0
VERTEX
  8
LAYER52
 62
     7
  6
CONTINUOUS
 10
35.6800
 20
28.1515
  0
VERTEX
  8
LAYER52
 62
     7
  6
CONTINUOUS
 10
35.6823
 20
28.1502
  0
VERTEX
  8
LAYER52
 62
     7
  6
CONTINUOUS
 10
35.6846
 20
28.1489
  0
VERTEX
  8
LAYER52
 62
     7
  6
CONTINUOUS
 10
35.6870
 20
28.1477
  0
VERTEX
  8
LAYER52
 62
     7
  6
CONTINUOUS
 10
35.6894
 20
28.1465
  0
VERTEX
  8
LAYER52
 62
     7
  6
CONTINUOUS
 10
35.6919
 20
28.1453
  0
VERTEX
  8
LAYER52
 62
     7
  6
CONTINUOUS
 10
35.6945
 20
28.1442
  0
VERTEX
  8
LAYER52
 62
     7
  6
CONTINUOUS
 10
35.6971
 20
28.1432
  0
VERTEX
  8
LAYER52
 62
     7
  6
CONTINUOUS
 10
35.6998
 20
28.1422
  0
VERTEX
  8
LAYER52
 62
     7
  6
CONTINUOUS
 10
35.7024
 20
28.1413
  0
VERTEX
  8
LAYER52
 62
     7
  6
CONTINUOUS
 10
35.7050
 20
28.1403
  0
VERTEX
  8
LAYER52
 62
     7
  6
CONTINUOUS
 10
35.7076
 20
28.1393
  0
VERTEX
  8
LAYER52
 62
     7
  6
CONTINUOUS
 10
35.7101
 20
28.1382
  0
VERTEX
  8
LAYER52
 62
     7
  6
CONTINUOUS
 10
35.7124
 20
28.1371
  0
VERTEX
  8
LAYER52
 62
     7
  6
CONTINUOUS
 10
35.7146
 20
28.1359
  0
VERTEX
  8
LAYER52
 62
     7
  6
CONTINUOUS
 10
35.7166
 20
28.1346
  0
VERTEX
  8
LAYER52
 62
     7
  6
CONTINUOUS
 10
35.7185
 20
28.1332
  0
VERTEX
  8
LAYER52
 62
     7
  6
CONTINUOUS
 10
35.7201
 20
28.1316
  0
VERTEX
  8
LAYER52
 62
     7
  6
CONTINUOUS
 10
35.7224
 20
28.1282
  0
VERTEX
  8
LAYER52
 62
     7
  6
CONTINUOUS
 10
35.7239
 20
28.1244
  0
VERTEX
  8
LAYER52
 62
     7
  6
CONTINUOUS
 10
35.7246
 20
28.1201
  0
VERTEX
  8
LAYER52
 62
     7
  6
CONTINUOUS
 10
35.7246
 20
28.1155
  0
VERTEX
  8
LAYER52
 62
     7
  6
CONTINUOUS
 10
35.7240
 20
28.1106
  0
VERTEX
  8
LAYER52
 62
     7
  6
CONTINUOUS
 10
35.7228
 20
28.1055
  0
VERTEX
  8
LAYER52
 62
     7
  6
CONTINUOUS
 10
35.7211
 20
28.1004
  0
VERTEX
  8
LAYER52
 62
     7
  6
CONTINUOUS
 10
35.7189
 20
28.0951
  0
VERTEX
  8
LAYER52
 62
     7
  6
CONTINUOUS
 10
35.7163
 20
28.0900
  0
VERTEX
  8
LAYER52
 62
     7
  6
CONTINUOUS
 10
35.7133
 20
28.0849
  0
VERTEX
  8
LAYER52
 62
     7
  6
CONTINUOUS
 10
35.7101
 20
28.0801
  0
VERTEX
  8
LAYER52
 62
     7
  6
CONTINUOUS
 10
35.7065
 20
28.0755
  0
VERTEX
  8
LAYER52
 62
     7
  6
CONTINUOUS
 10
35.7017
 20
28.0700
  0
VERTEX
  8
LAYER52
 62
     7
  6
CONTINUOUS
 10
35.6965
 20
28.0652
  0
VERTEX
  8
LAYER52
 62
     7
  6
CONTINUOUS
 10
35.6911
 20
28.0609
  0
VERTEX
  8
LAYER52
 62
     7
  6
CONTINUOUS
 10
35.6854
 20
28.0572
  0
VERTEX
  8
LAYER52
 62
     7
  6
CONTINUOUS
 10
35.6796
 20
28.0540
  0
VERTEX
  8
LAYER52
 62
     7
  6
CONTINUOUS
 10
35.6737
 20
28.0514
  0
VERTEX
  8
LAYER52
 62
     7
  6
CONTINUOUS
 10
35.6676
 20
28.0494
  0
VERTEX
  8
LAYER52
 62
     7
  6
CONTINUOUS
 10
35.6614
 20
28.0478
  0
VERTEX
  8
LAYER52
 62
     7
  6
CONTINUOUS
 10
35.6552
 20
28.0468
  0
VERTEX
  8
LAYER52
 62
     7
  6
CONTINUOUS
 10
35.6490
 20
28.0464
  0
VERTEX
  8
LAYER52
 62
     7
  6
CONTINUOUS
 10
35.6429
 20
28.0464
  0
VERTEX
  8
LAYER52
 62
     7
  6
CONTINUOUS
 10
35.6367
 20
28.0469
  0
VERTEX
  8
LAYER52
 62
     7
  6
CONTINUOUS
 10
35.6307
 20
28.0478
  0
VERTEX
  8
LAYER52
 62
     7
  6
CONTINUOUS
 10
35.6247
 20
28.0492
  0
VERTEX
  8
LAYER52
 62
     7
  6
CONTINUOUS
 10
35.6189
 20
28.0510
  0
VERTEX
  8
LAYER52
 62
     7
  6
CONTINUOUS
 10
35.6130
 20
28.0530
  0
VERTEX
  8
LAYER52
 62
     7
  6
CONTINUOUS
 10
35.6072
 20
28.0554
  0
VERTEX
  8
LAYER52
 62
     7
  6
CONTINUOUS
 10
35.6014
 20
28.0579
  0
VERTEX
  8
LAYER52
 62
     7
  6
CONTINUOUS
 10
35.5957
 20
28.0605
  0
VERTEX
  8
LAYER52
 62
     7
  6
CONTINUOUS
 10
35.5899
 20
28.0633
  0
VERTEX
  8
LAYER52
 62
     7
  6
CONTINUOUS
 10
35.5841
 20
28.0661
  0
VERTEX
  8
LAYER52
 62
     7
  6
CONTINUOUS
 10
35.5783
 20
28.0689
  0
VERTEX
  8
LAYER52
 62
     7
  6
CONTINUOUS
 10
35.5724
 20
28.0716
  0
VERTEX
  8
LAYER52
 62
     7
  6
CONTINUOUS
 10
35.5665
 20
28.0742
  0
VERTEX
  8
LAYER52
 62
     7
  6
CONTINUOUS
 10
35.5616
 20
28.0762
  0
VERTEX
  8
LAYER52
 62
     7
  6
CONTINUOUS
 10
35.5565
 20
28.0781
  0
VERTEX
  8
LAYER52
 62
     7
  6
CONTINUOUS
 10
35.5515
 20
28.0800
  0
VERTEX
  8
LAYER52
 62
     7
  6
CONTINUOUS
 10
35.5466
 20
28.0819
  0
VERTEX
  8
LAYER52
 62
     7
  6
CONTINUOUS
 10
35.5416
 20
28.0838
  0
VERTEX
  8
LAYER52
 62
     7
  6
CONTINUOUS
 10
35.5367
 20
28.0858
  0
VERTEX
  8
LAYER52
 62
     7
  6
CONTINUOUS
 10
35.5320
 20
28.0879
  0
VERTEX
  8
LAYER52
 62
     7
  6
CONTINUOUS
 10
35.5273
 20
28.0902
  0
VERTEX
  8
LAYER52
 62
     7
  6
CONTINUOUS
 10
35.5227
 20
28.0926
  0
VERTEX
  8
LAYER52
 62
     7
  6
CONTINUOUS
 10
35.5183
 20
28.0953
  0
VERTEX
  8
LAYER52
 62
     7
  6
CONTINUOUS
 10
35.5141
 20
28.0983
  0
VERTEX
  8
LAYER52
 62
     7
  6
CONTINUOUS
 10
35.5101
 20
28.1016
  0
VERTEX
  8
LAYER52
 62
     7
  6
CONTINUOUS
 10
35.5077
 20
28.1039
  0
VERTEX
  8
LAYER52
 62
     7
  6
CONTINUOUS
 10
35.5054
 20
28.1062
  0
VERTEX
  8
LAYER52
 62
     7
  6
CONTINUOUS
 10
35.5031
 20
28.1087
  0
VERTEX
  8
LAYER52
 62
     7
  6
CONTINUOUS
 10
35.5009
 20
28.1112
  0
VERTEX
  8
LAYER52
 62
     7
  6
CONTINUOUS
 10
35.4986
 20
28.1137
  0
VERTEX
  8
LAYER52
 62
     7
  6
CONTINUOUS
 10
35.4964
 20
28.1162
  0
VERTEX
  8
LAYER52
 62
     7
  6
CONTINUOUS
 10
35.4941
 20
28.1187
  0
VERTEX
  8
LAYER52
 62
     7
  6
CONTINUOUS
 10
35.4919
 20
28.1211
  0
VERTEX
  8
LAYER52
 62
     7
  6
CONTINUOUS
 10
35.4895
 20
28.1234
  0
VERTEX
  8
LAYER52
 62
     7
  6
CONTINUOUS
 10
35.4871
 20
28.1255
  0
VERTEX
  8
LAYER52
 62
     7
  6
CONTINUOUS
 10
35.4846
 20
28.1275
  0
VERTEX
  8
LAYER52
 62
     7
  6
CONTINUOUS
 10
35.4821
 20
28.1293
  0
VERTEX
  8
LAYER52
 62
     7
  6
CONTINUOUS
 10
35.4780
 20
28.1316
  0
VERTEX
  8
LAYER52
 62
     7
  6
CONTINUOUS
 10
35.4738
 20
28.1334
  0
VERTEX
  8
LAYER52
 62
     7
  6
CONTINUOUS
 10
35.4694
 20
28.1349
  0
VERTEX
  8
LAYER52
 62
     7
  6
CONTINUOUS
 10
35.4648
 20
28.1361
  0
VERTEX
  8
LAYER52
 62
     7
  6
CONTINUOUS
 10
35.4601
 20
28.1371
  0
VERTEX
  8
LAYER52
 62
     7
  6
CONTINUOUS
 10
35.4552
 20
28.1379
  0
VERTEX
  8
LAYER52
 62
     7
  6
CONTINUOUS
 10
35.4503
 20
28.1386
  0
VERTEX
  8
LAYER52
 62
     7
  6
CONTINUOUS
 10
35.4454
 20
28.1393
  0
VERTEX
  8
LAYER52
 62
     7
  6
CONTINUOUS
 10
35.4404
 20
28.1400
  0
VERTEX
  8
LAYER52
 62
     7
  6
CONTINUOUS
 10
35.4355
 20
28.1407
  0
VERTEX
  8
LAYER52
 62
     7
  6
CONTINUOUS
 10
35.4307
 20
28.1417
  0
VERTEX
  8
LAYER52
 62
     7
  6
CONTINUOUS
 10
35.4259
 20
28.1428
  0
VERTEX
  8
LAYER52
 62
     7
  6
CONTINUOUS
 10
35.4223
 20
28.1438
  0
VERTEX
  8
LAYER52
 62
     7
  6
CONTINUOUS
 10
35.4188
 20
28.1450
  0
VERTEX
  8
LAYER52
 62
     7
  6
CONTINUOUS
 10
35.4154
 20
28.1463
  0
VERTEX
  8
LAYER52
 62
     7
  6
CONTINUOUS
 10
35.4120
 20
28.1478
  0
VERTEX
  8
LAYER52
 62
     7
  6
CONTINUOUS
 10
35.4087
 20
28.1493
  0
VERTEX
  8
LAYER52
 62
     7
  6
CONTINUOUS
 10
35.4054
 20
28.1509
  0
VERTEX
  8
LAYER52
 62
     7
  6
CONTINUOUS
 10
35.4021
 20
28.1526
  0
VERTEX
  8
LAYER52
 62
     7
  6
CONTINUOUS
 10
35.3989
 20
28.1544
  0
VERTEX
  8
LAYER52
 62
     7
  6
CONTINUOUS
 10
35.3957
 20
28.1563
  0
VERTEX
  8
LAYER52
 62
     7
  6
CONTINUOUS
 10
35.3925
 20
28.1581
  0
VERTEX
  8
LAYER52
 62
     7
  6
CONTINUOUS
 10
35.3893
 20
28.1600
  0
VERTEX
  8
LAYER52
 62
     7
  6
CONTINUOUS
 10
35.3861
 20
28.1619
  0
SEQEND
  8
LAYER52
  0
CIRCLE
  8
LAYER56
 62
     7
  6
CONTINUOUS
 10
33.4813
 20
27.3125
 40
0.0470
  0
CIRCLE
  8
LAYER56
 62
     7
  6
CONTINUOUS
 10
33.4575
 20
26.9065
 40
0.0426
  0
ARC
  8
LAYER56
 62
     7
  6
CONTINUOUS
 10
33.0902
 20
25.4035
 40
0.0972
 50
-11.1137
 51
-168.8863
  0
ENDSEC
  0
EOF
