  0
SECTION
  2
HEADER
  9
$ACADVER
  1
AC1004
  9
$EXTMIN
 10
7.0490
 20
3.5331
  9
$EXTMAX
 10
8.0340
 20
4.5561
  9
$LIMMIN
 10
7.0490
 20
3.5331
  9
$LIMMAX
 10
8.0340
 20
4.5561
  9
$INSBASE
 10
0.0
 20
0.0
  9
$VIEWCTR
 10
7.21903
 20
4.5
  9
$VIEWSIZE
 40
9.0
  9
$SNAPMODE
 70
     0
  9
$SNAPUNIT
 10
1.0
 20
1.0
  9
$SNAPBASE
 10
0.0
 20
0.0
  9
$SNAPANG
 50
0.0
  9
$SNAPSTYLE
 70
     0
  9
$SNAPISOPAIR
 70
     0
  9
$GRIDMODE
 70
     0
  9
$GRIDUNIT
 10
0.0
 20
0.0
  9
$ORTHOMODE
 70
     0
  9
$REGENMODE
 70
     1
  9
$FILLMODE
 70
     1
  9
$QTEXTMODE
 70
     0
  9
$DRAGMODE
 70
     2
  9
$LTSCALE
 40
1.0
  9
$OSMODE
 70
     0
  9
$ATTMODE
 70
     1
  9
$TEXTSIZE
 40
0.2
  9
$TRACEWID
 40
0.05
  9
$TEXTSTYLE
  7
STANDARD
  9
$CLAYER
  8
0
  9
$CELTYPE
  6
BYLAYER
  9
$CECOLOR
 62
   256
  9
$DIMSCALE
 40
1.0
  9
$DIMASZ
 40
0.18
  9
$DIMEXO
 40
0.0625
  9
$DIMDLI
 40
0.38
  9
$DIMRND
 40
0.0
  9
$DIMDLE
 40
0.0
  9
$DIMEXE
 40
0.18
  9
$DIMTP
 40
0.0
  9
$DIMTM
 40
0.0
  9
$DIMTXT
 40
0.18
  9
$DIMCEN
 40
0.09
  9
$DIMTSZ
 40
0.0
  9
$DIMTOL
 70
     0
  9
$DIMLIM
 70
     0
  9
$DIMTIH
 70
     1
  9
$DIMTOH
 70
     1
  9
$DIMSE1
 70
     0
  9
$DIMSE2
 70
     0
  9
$DIMTAD
 70
     0
  9
$DIMZIN
 70
     0
  9
$DIMBLK
  1

  9
$DIMASO
 70
     1
  9
$DIMSHO
 70
     0
  9
$DIMPOST
  1

  9
$DIMAPOST
  1

  9
$DIMALT
 70
     0
  9
$DIMALTD
 70
     2
  9
$DIMALTF
 40
25.4
  9
$DIMLFAC
 40
1.0
  9
$LUNITS
 70
     2
  9
$LUPREC
 70
     4
  9
$AXISMODE
 70
     0
  9
$AXISUNIT
 10
0.0
 20
0.0
  9
$SKETCHINC
 40
0.1
  9
$FILLETRAD
 40
0.0
  9
$AUNITS
 70
     0
  9
$AUPREC
 70
     0
  9
$MENU
  1
acad
  9
$ELEVATION
 40
0.0
  9
$THICKNESS
 40
0.0
  9
$VIEWDIR
 10
0.0
 20
0.0
 30
1.0
  9
$LIMCHECK
 70
     0
  9
$BLIPMODE
 70
     1
  9
$CHAMFERA
 40
0.0
  9
$CHAMFERB
 40
0.0
  9
$FASTZOOM
 70
     1
  9
$SKPOLY
 70
     0
  9
$TDCREATE
 40
2447222.5666886573
  9
$TDUPDATE
 40
2447222.5666886573
  9
$TDINDWG
 40
0.0000000000
  9
$TDUSRTIMER
 40
0.0000000000
  9
$USRTIMER
 70
     1
  9
$ANGBASE
 50
0.0
  9
$ANGDIR
 70
     0
  9
$PDMODE
 70
     0
  9
$PDSIZE
 40
0.0
  9
$PLINEWID
 40
0.0
  9
$COORDS
 70
     0
  9
$SPLFRAME
 70
     0
  9
$SPLINESEGS
 70
     8
  9
$ATTDIA
 70
     0
  9
$ATTREQ
 70
     1
  9
$USERI1
 70
     0
  9
$USERI2
 70
     0
  9
$USERI3
 70
     0
  9
$USERI4
 70
     0
  9
$USERI5
 70
     0
  9
$USERR1
 40
0.0
  9
$USERR2
 40
0.0
  9
$USERR3
 40
0.0
  9
$USERR4
 40
0.0
  9
$USERR5
 40
0.0
  0
ENDSEC
  0
SECTION
  2
TABLES
  0
TABLE
  2
LTYPE
 70
     13
  0
LTYPE
  2
CONTINUOUS
 70
    64
  3
Solid line
 72
    65
 73
     0
 40
0.0
  0
LTYPE
  2
DASHED
 70
    64
  3
__ __ __ __ __ __ __ __ __ __ __ __ __ __ __
 72
    65
 73
     2
 40
0.75
 49
0.5
 49
-0.25
  0
LTYPE
  2
HIDDEN
 70
    64
  3
_ _ _ _ _ _ _ _ _ _ _ _ _ _ _ _ _ _ _ _ _ _ _
 72
    65
 73
     2
 40
0.375
 49
0.25
 49
-0.125
  0
LTYPE
  2
CENTER
 70
    64
  3
____ _ ____ _ ____ _ ____ _ ____ _ ____ _ ____
 72
    65
 73
     4
 40
2.0
 49
1.25
 49
-0.25
 49
0.25
 49
-0.25
  0
LTYPE
  2
PHANTOM
 70
    64
  3
_____ _ _ _____ _ _ _____ _ _ _____ _ _ ____
 72
    65
 73
     6
 40
2.5
 49
1.25
 49
-0.25
 49
0.25
 49
-0.25
 49
0.25
 49
-0.25
  0
LTYPE
  2
DOT
 70
    64
  3
...............................................
 72
    65
 73
     2
 40
0.25
 49
0.0
 49
-0.25
  0
LTYPE
  2
DASHDOT
 70
    64
  3
__ . __ . __ . __ . __ . __ . __ . __ . __ . __
 72
    65
 73
     4
 40
1.0
 49
0.5
 49
-0.25
 49
0.0
 49
-0.25
  0
LTYPE
  2
BORDER
 70
    64
  3
__ __ . __ __ . __ __ . __ __ . __ __ . __ __
 72
    65
 73
     6
 40
1.75
 49
0.5
 49
-0.25
 49
0.5
 49
-0.25
 49
0.0
 49
-0.25
  0
LTYPE
  2
DIVIDE
 70
    64
  3
__ . . __ . . __ . . __ . . __ . . __ . . __
 72
    65
 73
     6
 40
1.25
 49
0.5
 49
-0.25
 49
0.0
 49
-0.25
 49
0.0
 49
-0.25
  0
LTYPE
  2
DCTYPE1
 70
    64
  3
__ . . __ . . __ . . __ . . __ . . __ . . __
 72
    65
 73
     8
 40
2.5
 49
0.5
 49
-0.25
 49
0.125
 49
-0.25
 49
0.25
 49
-0.25
 49
0.125
 49
-0.25
  0
LTYPE
  2
DCTYPE2
 70
    64
  3
__ . . __ . . __ . . __ . . __ . . __ . . __
 72
    65
 73
     6
 40
2.05
 49
1.0
 49
-0.3
 49
0.15
 49
-0.15
 49
0.15
 49
-0.3
  0
LTYPE
  2
DCTYPE3
 70
    64
  3
__ . . __ . . __ . . __ . . __ . . __ . . __
 72
    65
 73
     6
 40
2.5
 49
0.8
 49
-0.2
 49
0.8
 49
-0.2
 49
0.3
 49
-0.2
  0
LTYPE
  2
DCTYPE4
 70
    64
  3
__ . . __ . . __ . . __ . . __ . . __ . . __
 72
    65
 73
     10
 40
3.97
 49
1.75
 49
-0.3
 49
0.3
 49
-0.3
 49
0.06
 49
-0.3
 49
0.06
 49
-0.3
 49
0.3
 49
-0.3
  0
ENDTAB
  0
TABLE
  2
LAYER
 70
    153
  0
LAYER
  2
LAYER1
 70
 64
 62
     7
  6
CONTINUOUS
  0
LAYER
  2
LAYER10
 70
 64
 62
     1
  6
CONTINUOUS
  0
LAYER
  2
LAYER12
 70
 64
 62
     5
  6
CONTINUOUS
  0
ENDTAB
  0
ENDSEC
  0
SECTION
  2
BLOCKS
  0
ENDSEC
  0
SECTION
  2
ENTITIES
  0
CIRCLE
  8
LAYER1
 62
     7
  6
CONTINUOUS
 10
7.3994
 20
3.6789
 40
0.0252
  0
CIRCLE
  8
LAYER1
 62
     7
  6
CONTINUOUS
 10
7.6313
 20
4.4166
 40
0.0341
  0
CIRCLE
  8
LAYER1
 62
     7
  6
CONTINUOUS
 10
7.8715
 20
4.1095
 40
0.0247
  0
CIRCLE
  8
LAYER1
 62
     7
  6
CONTINUOUS
 10
7.9005
 20
3.8468
 40
0.0251
  0
ARC
  8
LAYER1
 62
     7
  6
CONTINUOUS
 10
7.0748
 20
4.5210
 40
0.0301
 50
-149.1047
 51
-89.1610
  0
POLYLINE
  8
LAYER1
 62
     7
 66
     1
  6
CONTINUOUS
  0
VERTEX
  8
LAYER1
 62
     7
  6
CONTINUOUS
 10
7.0510
 20
4.5561
  0
VERTEX
  8
LAYER1
 62
     7
  6
CONTINUOUS
 10
8.0340
 20
4.5561
  0
SEQEND
  8
LAYER1
  0
POLYLINE
  8
LAYER1
 62
     7
 66
     1
  6
CONTINUOUS
  0
VERTEX
  8
LAYER1
 62
     7
  6
CONTINUOUS
 10
7.0490
 20
4.5561
  0
VERTEX
  8
LAYER1
 62
     7
  6
CONTINUOUS
 10
7.0510
 20
4.5561
  0
SEQEND
  8
LAYER1
  0
ARC
  8
LAYER1
 62
     7
  6
CONTINUOUS
 10
7.0748
 20
4.5210
 40
0.0301
 50
-89.1611
 51
149.1044
  0
ARC
  8
LAYER1
 62
     7
  6
CONTINUOUS
 10
7.0748
 20
4.5210
 40
0.0301
 50
-149.1047
 51
149.1047
  0
POLYLINE
  8
LAYER10
 62
     1
 66
     1
  6
CONTINUOUS
  0
VERTEX
  8
LAYER10
 62
     1
  6
CONTINUOUS
 10
7.9762
 20
3.8129
  0
VERTEX
  8
LAYER10
 62
     1
  6
CONTINUOUS
 10
7.9778
 20
3.8071
  0
VERTEX
  8
LAYER10
 62
     1
  6
CONTINUOUS
 10
7.9790
 20
3.8012
  0
VERTEX
  8
LAYER10
 62
     1
  6
CONTINUOUS
 10
7.9799
 20
3.7952
  0
VERTEX
  8
LAYER10
 62
     1
  6
CONTINUOUS
 10
7.9804
 20
3.7891
  0
VERTEX
  8
LAYER10
 62
     1
  6
CONTINUOUS
 10
7.9806
 20
3.7829
  0
VERTEX
  8
LAYER10
 62
     1
  6
CONTINUOUS
 10
7.9806
 20
3.7767
  0
VERTEX
  8
LAYER10
 62
     1
  6
CONTINUOUS
 10
7.9804
 20
3.7703
  0
VERTEX
  8
LAYER10
 62
     1
  6
CONTINUOUS
 10
7.9799
 20
3.7639
  0
VERTEX
  8
LAYER10
 62
     1
  6
CONTINUOUS
 10
7.9794
 20
3.7575
  0
VERTEX
  8
LAYER10
 62
     1
  6
CONTINUOUS
 10
7.9788
 20
3.7510
  0
VERTEX
  8
LAYER10
 62
     1
  6
CONTINUOUS
 10
7.9781
 20
3.7444
  0
VERTEX
  8
LAYER10
 62
     1
  6
CONTINUOUS
 10
7.9773
 20
3.7378
  0
VERTEX
  8
LAYER10
 62
     1
  6
CONTINUOUS
 10
7.9768
 20
3.7327
  0
VERTEX
  8
LAYER10
 62
     1
  6
CONTINUOUS
 10
7.9762
 20
3.7276
  0
VERTEX
  8
LAYER10
 62
     1
  6
CONTINUOUS
 10
7.9756
 20
3.7225
  0
VERTEX
  8
LAYER10
 62
     1
  6
CONTINUOUS
 10
7.9749
 20
3.7175
  0
VERTEX
  8
LAYER10
 62
     1
  6
CONTINUOUS
 10
7.9741
 20
3.7126
  0
VERTEX
  8
LAYER10
 62
     1
  6
CONTINUOUS
 10
7.9732
 20
3.7078
  0
VERTEX
  8
LAYER10
 62
     1
  6
CONTINUOUS
 10
7.9721
 20
3.7031
  0
VERTEX
  8
LAYER10
 62
     1
  6
CONTINUOUS
 10
7.9708
 20
3.6985
  0
VERTEX
  8
LAYER10
 62
     1
  6
CONTINUOUS
 10
7.9693
 20
3.6942
  0
VERTEX
  8
LAYER10
 62
     1
  6
CONTINUOUS
 10
7.9675
 20
3.6900
  0
VERTEX
  8
LAYER10
 62
     1
  6
CONTINUOUS
 10
7.9655
 20
3.6861
  0
VERTEX
  8
LAYER10
 62
     1
  6
CONTINUOUS
 10
7.9631
 20
3.6824
  0
VERTEX
  8
LAYER10
 62
     1
  6
CONTINUOUS
 10
7.9587
 20
3.6772
  0
VERTEX
  8
LAYER10
 62
     1
  6
CONTINUOUS
 10
7.9536
 20
3.6727
  0
VERTEX
  8
LAYER10
 62
     1
  6
CONTINUOUS
 10
7.9477
 20
3.6687
  0
VERTEX
  8
LAYER10
 62
     1
  6
CONTINUOUS
 10
7.9413
 20
3.6653
  0
VERTEX
  8
LAYER10
 62
     1
  6
CONTINUOUS
 10
7.9343
 20
3.6624
  0
VERTEX
  8
LAYER10
 62
     1
  6
CONTINUOUS
 10
7.9269
 20
3.6600
  0
VERTEX
  8
LAYER10
 62
     1
  6
CONTINUOUS
 10
7.9192
 20
3.6579
  0
VERTEX
  8
LAYER10
 62
     1
  6
CONTINUOUS
 10
7.9112
 20
3.6561
  0
VERTEX
  8
LAYER10
 62
     1
  6
CONTINUOUS
 10
7.9031
 20
3.6546
  0
VERTEX
  8
LAYER10
 62
     1
  6
CONTINUOUS
 10
7.8948
 20
3.6533
  0
VERTEX
  8
LAYER10
 62
     1
  6
CONTINUOUS
 10
7.8866
 20
3.6521
  0
VERTEX
  8
LAYER10
 62
     1
  6
CONTINUOUS
 10
7.8784
 20
3.6511
  0
VERTEX
  8
LAYER10
 62
     1
  6
CONTINUOUS
 10
7.8744
 20
3.6506
  0
VERTEX
  8
LAYER10
 62
     1
  6
CONTINUOUS
 10
7.8704
 20
3.6501
  0
VERTEX
  8
LAYER10
 62
     1
  6
CONTINUOUS
 10
7.8665
 20
3.6496
  0
VERTEX
  8
LAYER10
 62
     1
  6
CONTINUOUS
 10
7.8626
 20
3.6493
  0
VERTEX
  8
LAYER10
 62
     1
  6
CONTINUOUS
 10
7.8588
 20
3.6489
  0
VERTEX
  8
LAYER10
 62
     1
  6
CONTINUOUS
 10
7.8550
 20
3.6487
  0
VERTEX
  8
LAYER10
 62
     1
  6
CONTINUOUS
 10
7.8512
 20
3.6486
  0
VERTEX
  8
LAYER10
 62
     1
  6
CONTINUOUS
 10
7.8475
 20
3.6487
  0
VERTEX
  8
LAYER10
 62
     1
  6
CONTINUOUS
 10
7.8439
 20
3.6488
  0
VERTEX
  8
LAYER10
 62
     1
  6
CONTINUOUS
 10
7.8403
 20
3.6492
  0
VERTEX
  8
LAYER10
 62
     1
  6
CONTINUOUS
 10
7.8368
 20
3.6497
  0
VERTEX
  8
LAYER10
 62
     1
  6
CONTINUOUS
 10
7.8333
 20
3.6504
  0
VERTEX
  8
LAYER10
 62
     1
  6
CONTINUOUS
 10
7.8287
 20
3.6517
  0
VERTEX
  8
LAYER10
 62
     1
  6
CONTINUOUS
 10
7.8242
 20
3.6534
  0
VERTEX
  8
LAYER10
 62
     1
  6
CONTINUOUS
 10
7.8198
 20
3.6554
  0
VERTEX
  8
LAYER10
 62
     1
  6
CONTINUOUS
 10
7.8155
 20
3.6577
  0
VERTEX
  8
LAYER10
 62
     1
  6
CONTINUOUS
 10
7.8112
 20
3.6603
  0
VERTEX
  8
LAYER10
 62
     1
  6
CONTINUOUS
 10
7.8070
 20
3.6632
  0
VERTEX
  8
LAYER10
 62
     1
  6
CONTINUOUS
 10
7.8029
 20
3.6663
  0
VERTEX
  8
LAYER10
 62
     1
  6
CONTINUOUS
 10
7.7988
 20
3.6697
  0
VERTEX
  8
LAYER10
 62
     1
  6
CONTINUOUS
 10
7.7947
 20
3.6732
  0
VERTEX
  8
LAYER10
 62
     1
  6
CONTINUOUS
 10
7.7907
 20
3.6769
  0
VERTEX
  8
LAYER10
 62
     1
  6
CONTINUOUS
 10
7.7867
 20
3.6807
  0
VERTEX
  8
LAYER10
 62
     1
  6
CONTINUOUS
 10
7.7827
 20
3.6847
  0
VERTEX
  8
LAYER10
 62
     1
  6
CONTINUOUS
 10
7.7793
 20
3.6881
  0
VERTEX
  8
LAYER10
 62
     1
  6
CONTINUOUS
 10
7.7760
 20
3.6916
  0
VERTEX
  8
LAYER10
 62
     1
  6
CONTINUOUS
 10
7.7728
 20
3.6951
  0
VERTEX
  8
LAYER10
 62
     1
  6
CONTINUOUS
 10
7.7698
 20
3.6987
  0
VERTEX
  8
LAYER10
 62
     1
  6
CONTINUOUS
 10
7.7669
 20
3.7024
  0
VERTEX
  8
LAYER10
 62
     1
  6
CONTINUOUS
 10
7.7643
 20
3.7061
  0
VERTEX
  8
LAYER10
 62
     1
  6
CONTINUOUS
 10
7.7620
 20
3.7099
  0
VERTEX
  8
LAYER10
 62
     1
  6
CONTINUOUS
 10
7.7601
 20
3.7137
  0
VERTEX
  8
LAYER10
 62
     1
  6
CONTINUOUS
 10
7.7586
 20
3.7176
  0
VERTEX
  8
LAYER10
 62
     1
  6
CONTINUOUS
 10
7.7575
 20
3.7215
  0
VERTEX
  8
LAYER10
 62
     1
  6
CONTINUOUS
 10
7.7570
 20
3.7254
  0
VERTEX
  8
LAYER10
 62
     1
  6
CONTINUOUS
 10
7.7570
 20
3.7294
  0
VERTEX
  8
LAYER10
 62
     1
  6
CONTINUOUS
 10
7.7573
 20
3.7323
  0
VERTEX
  8
LAYER10
 62
     1
  6
CONTINUOUS
 10
7.7579
 20
3.7351
  0
VERTEX
  8
LAYER10
 62
     1
  6
CONTINUOUS
 10
7.7587
 20
3.7380
  0
VERTEX
  8
LAYER10
 62
     1
  6
CONTINUOUS
 10
7.7597
 20
3.7409
  0
VERTEX
  8
LAYER10
 62
     1
  6
CONTINUOUS
 10
7.7608
 20
3.7439
  0
VERTEX
  8
LAYER10
 62
     1
  6
CONTINUOUS
 10
7.7619
 20
3.7468
  0
VERTEX
  8
LAYER10
 62
     1
  6
CONTINUOUS
 10
7.7629
 20
3.7498
  0
VERTEX
  8
LAYER10
 62
     1
  6
CONTINUOUS
 10
7.7640
 20
3.7527
  0
VERTEX
  8
LAYER10
 62
     1
  6
CONTINUOUS
 10
7.7649
 20
3.7557
  0
VERTEX
  8
LAYER10
 62
     1
  6
CONTINUOUS
 10
7.7657
 20
3.7587
  0
VERTEX
  8
LAYER10
 62
     1
  6
CONTINUOUS
 10
7.7662
 20
3.7617
  0
VERTEX
  8
LAYER10
 62
     1
  6
CONTINUOUS
 10
7.7665
 20
3.7646
  0
VERTEX
  8
LAYER10
 62
     1
  6
CONTINUOUS
 10
7.7664
 20
3.7672
  0
VERTEX
  8
LAYER10
 62
     1
  6
CONTINUOUS
 10
7.7662
 20
3.7697
  0
VERTEX
  8
LAYER10
 62
     1
  6
CONTINUOUS
 10
7.7659
 20
3.7722
  0
VERTEX
  8
LAYER10
 62
     1
  6
CONTINUOUS
 10
7.7654
 20
3.7747
  0
VERTEX
  8
LAYER10
 62
     1
  6
CONTINUOUS
 10
7.7648
 20
3.7772
  0
VERTEX
  8
LAYER10
 62
     1
  6
CONTINUOUS
 10
7.7642
 20
3.7797
  0
VERTEX
  8
LAYER10
 62
     1
  6
CONTINUOUS
 10
7.7635
 20
3.7822
  0
VERTEX
  8
LAYER10
 62
     1
  6
CONTINUOUS
 10
7.7629
 20
3.7847
  0
VERTEX
  8
LAYER10
 62
     1
  6
CONTINUOUS
 10
7.7623
 20
3.7872
  0
VERTEX
  8
LAYER10
 62
     1
  6
CONTINUOUS
 10
7.7617
 20
3.7897
  0
VERTEX
  8
LAYER10
 62
     1
  6
CONTINUOUS
 10
7.7613
 20
3.7922
  0
VERTEX
  8
LAYER10
 62
     1
  6
CONTINUOUS
 10
7.7610
 20
3.7946
  0
VERTEX
  8
LAYER10
 62
     1
  6
CONTINUOUS
 10
7.7609
 20
3.7991
  0
VERTEX
  8
LAYER10
 62
     1
  6
CONTINUOUS
 10
7.7613
 20
3.8036
  0
VERTEX
  8
LAYER10
 62
     1
  6
CONTINUOUS
 10
7.7623
 20
3.8080
  0
VERTEX
  8
LAYER10
 62
     1
  6
CONTINUOUS
 10
7.7636
 20
3.8124
  0
VERTEX
  8
LAYER10
 62
     1
  6
CONTINUOUS
 10
7.7654
 20
3.8167
  0
VERTEX
  8
LAYER10
 62
     1
  6
CONTINUOUS
 10
7.7676
 20
3.8210
  0
VERTEX
  8
LAYER10
 62
     1
  6
CONTINUOUS
 10
7.7700
 20
3.8252
  0
VERTEX
  8
LAYER10
 62
     1
  6
CONTINUOUS
 10
7.7727
 20
3.8293
  0
VERTEX
  8
LAYER10
 62
     1
  6
CONTINUOUS
 10
7.7757
 20
3.8334
  0
VERTEX
  8
LAYER10
 62
     1
  6
CONTINUOUS
 10
7.7788
 20
3.8374
  0
VERTEX
  8
LAYER10
 62
     1
  6
CONTINUOUS
 10
7.7820
 20
3.8413
  0
VERTEX
  8
LAYER10
 62
     1
  6
CONTINUOUS
 10
7.7853
 20
3.8451
  0
VERTEX
  8
LAYER10
 62
     1
  6
CONTINUOUS
 10
7.7883
 20
3.8485
  0
VERTEX
  8
LAYER10
 62
     1
  6
CONTINUOUS
 10
7.7913
 20
3.8517
  0
VERTEX
  8
LAYER10
 62
     1
  6
CONTINUOUS
 10
7.7944
 20
3.8549
  0
VERTEX
  8
LAYER10
 62
     1
  6
CONTINUOUS
 10
7.7975
 20
3.8579
  0
VERTEX
  8
LAYER10
 62
     1
  6
CONTINUOUS
 10
7.8007
 20
3.8608
  0
VERTEX
  8
LAYER10
 62
     1
  6
CONTINUOUS
 10
7.8039
 20
3.8635
  0
VERTEX
  8
LAYER10
 62
     1
  6
CONTINUOUS
 10
7.8072
 20
3.8661
  0
VERTEX
  8
LAYER10
 62
     1
  6
CONTINUOUS
 10
7.8106
 20
3.8685
  0
VERTEX
  8
LAYER10
 62
     1
  6
CONTINUOUS
 10
7.8140
 20
3.8706
  0
VERTEX
  8
LAYER10
 62
     1
  6
CONTINUOUS
 10
7.8175
 20
3.8726
  0
VERTEX
  8
LAYER10
 62
     1
  6
CONTINUOUS
 10
7.8212
 20
3.8743
  0
VERTEX
  8
LAYER10
 62
     1
  6
CONTINUOUS
 10
7.8249
 20
3.8758
  0
VERTEX
  8
LAYER10
 62
     1
  6
CONTINUOUS
 10
7.8280
 20
3.8768
  0
VERTEX
  8
LAYER10
 62
     1
  6
CONTINUOUS
 10
7.8312
 20
3.8776
  0
VERTEX
  8
LAYER10
 62
     1
  6
CONTINUOUS
 10
7.8344
 20
3.8783
  0
VERTEX
  8
LAYER10
 62
     1
  6
CONTINUOUS
 10
7.8376
 20
3.8789
  0
VERTEX
  8
LAYER10
 62
     1
  6
CONTINUOUS
 10
7.8409
 20
3.8793
  0
VERTEX
  8
LAYER10
 62
     1
  6
CONTINUOUS
 10
7.8443
 20
3.8797
  0
VERTEX
  8
LAYER10
 62
     1
  6
CONTINUOUS
 10
7.8477
 20
3.8801
  0
VERTEX
  8
LAYER10
 62
     1
  6
CONTINUOUS
 10
7.8511
 20
3.8803
  0
VERTEX
  8
LAYER10
 62
     1
  6
CONTINUOUS
 10
7.8545
 20
3.8806
  0
VERTEX
  8
LAYER10
 62
     1
  6
CONTINUOUS
 10
7.8580
 20
3.8808
  0
VERTEX
  8
LAYER10
 62
     1
  6
CONTINUOUS
 10
7.8615
 20
3.8811
  0
VERTEX
  8
LAYER10
 62
     1
  6
CONTINUOUS
 10
7.8649
 20
3.8814
  0
VERTEX
  8
LAYER10
 62
     1
  6
CONTINUOUS
 10
7.8692
 20
3.8818
  0
VERTEX
  8
LAYER10
 62
     1
  6
CONTINUOUS
 10
7.8735
 20
3.8823
  0
VERTEX
  8
LAYER10
 62
     1
  6
CONTINUOUS
 10
7.8778
 20
3.8828
  0
VERTEX
  8
LAYER10
 62
     1
  6
CONTINUOUS
 10
7.8821
 20
3.8832
  0
VERTEX
  8
LAYER10
 62
     1
  6
CONTINUOUS
 10
7.8863
 20
3.8836
  0
VERTEX
  8
LAYER10
 62
     1
  6
CONTINUOUS
 10
7.8906
 20
3.8839
  0
VERTEX
  8
LAYER10
 62
     1
  6
CONTINUOUS
 10
7.8948
 20
3.8841
  0
VERTEX
  8
LAYER10
 62
     1
  6
CONTINUOUS
 10
7.8989
 20
3.8842
  0
VERTEX
  8
LAYER10
 62
     1
  6
CONTINUOUS
 10
7.9030
 20
3.8840
  0
VERTEX
  8
LAYER10
 62
     1
  6
CONTINUOUS
 10
7.9071
 20
3.8837
  0
VERTEX
  8
LAYER10
 62
     1
  6
CONTINUOUS
 10
7.9111
 20
3.8830
  0
VERTEX
  8
LAYER10
 62
     1
  6
CONTINUOUS
 10
7.9150
 20
3.8822
  0
VERTEX
  8
LAYER10
 62
     1
  6
CONTINUOUS
 10
7.9189
 20
3.8810
  0
VERTEX
  8
LAYER10
 62
     1
  6
CONTINUOUS
 10
7.9227
 20
3.8795
  0
VERTEX
  8
LAYER10
 62
     1
  6
CONTINUOUS
 10
7.9264
 20
3.8777
  0
VERTEX
  8
LAYER10
 62
     1
  6
CONTINUOUS
 10
7.9301
 20
3.8757
  0
VERTEX
  8
LAYER10
 62
     1
  6
CONTINUOUS
 10
7.9336
 20
3.8734
  0
VERTEX
  8
LAYER10
 62
     1
  6
CONTINUOUS
 10
7.9371
 20
3.8709
  0
VERTEX
  8
LAYER10
 62
     1
  6
CONTINUOUS
 10
7.9405
 20
3.8683
  0
VERTEX
  8
LAYER10
 62
     1
  6
CONTINUOUS
 10
7.9437
 20
3.8654
  0
VERTEX
  8
LAYER10
 62
     1
  6
CONTINUOUS
 10
7.9469
 20
3.8624
  0
VERTEX
  8
LAYER10
 62
     1
  6
CONTINUOUS
 10
7.9499
 20
3.8593
  0
VERTEX
  8
LAYER10
 62
     1
  6
CONTINUOUS
 10
7.9528
 20
3.8560
  0
VERTEX
  8
LAYER10
 62
     1
  6
CONTINUOUS
 10
7.9556
 20
3.8527
  0
VERTEX
  8
LAYER10
 62
     1
  6
CONTINUOUS
 10
7.9579
 20
3.8496
  0
VERTEX
  8
LAYER10
 62
     1
  6
CONTINUOUS
 10
7.9602
 20
3.8465
  0
VERTEX
  8
LAYER10
 62
     1
  6
CONTINUOUS
 10
7.9623
 20
3.8434
  0
VERTEX
  8
LAYER10
 62
     1
  6
CONTINUOUS
 10
7.9644
 20
3.8402
  0
VERTEX
  8
LAYER10
 62
     1
  6
CONTINUOUS
 10
7.9663
 20
3.8369
  0
VERTEX
  8
LAYER10
 62
     1
  6
CONTINUOUS
 10
7.9681
 20
3.8336
  0
VERTEX
  8
LAYER10
 62
     1
  6
CONTINUOUS
 10
7.9697
 20
3.8302
  0
VERTEX
  8
LAYER10
 62
     1
  6
CONTINUOUS
 10
7.9713
 20
3.8268
  0
VERTEX
  8
LAYER10
 62
     1
  6
CONTINUOUS
 10
7.9727
 20
3.8234
  0
VERTEX
  8
LAYER10
 62
     1
  6
CONTINUOUS
 10
7.9740
 20
3.8199
  0
VERTEX
  8
LAYER10
 62
     1
  6
CONTINUOUS
 10
7.9752
 20
3.8164
  0
VERTEX
  8
LAYER10
 62
     1
  6
CONTINUOUS
 10
7.9762
 20
3.8129
  0
SEQEND
  8
LAYER10
  0
POLYLINE
  8
LAYER12
 62
     5
 66
     1
  6
CONTINUOUS
  0
VERTEX
  8
LAYER12
 62
     5
  6
CONTINUOUS
 10
7.0493
 20
3.5341
  0
VERTEX
  8
LAYER12
 62
     5
  6
CONTINUOUS
 10
7.0493
 20
4.5550
  0
SEQEND
  8
LAYER12
  0
POLYLINE
  8
LAYER12
 62
     5
 66
     1
  6
CONTINUOUS
  0
VERTEX
  8
LAYER12
 62
     5
  6
CONTINUOUS
 10
7.0510
 20
4.5561
  0
VERTEX
  8
LAYER12
 62
     5
  6
CONTINUOUS
 10
8.0340
 20
4.5561
  0
SEQEND
  8
LAYER12
  0
POLYLINE
  8
LAYER12
 62
     5
 66
     1
  6
CONTINUOUS
  0
VERTEX
  8
LAYER12
 62
     5
  6
CONTINUOUS
 10
7.0490
 20
4.5561
  0
VERTEX
  8
LAYER12
 62
     5
  6
CONTINUOUS
 10
7.0510
 20
4.5561
  0
SEQEND
  8
LAYER12
  0
POLYLINE
  8
LAYER12
 62
     5
 66
     1
  6
CONTINUOUS
  0
VERTEX
  8
LAYER12
 62
     5
  6
CONTINUOUS
 10
7.0493
 20
4.5550
  0
VERTEX
  8
LAYER12
 62
     5
  6
CONTINUOUS
 10
7.0493
 20
4.5561
  0
SEQEND
  8
LAYER12
  0
POLYLINE
  8
LAYER12
 62
     5
 66
     1
  6
CONTINUOUS
  0
VERTEX
  8
LAYER12
 62
     5
  6
CONTINUOUS
 10
7.0493
 20
4.5561
  0
VERTEX
  8
LAYER12
 62
     5
  6
CONTINUOUS
 10
7.0493
 20
4.5561
  0
SEQEND
  8
LAYER12
  0
POLYLINE
  8
LAYER12
 62
     5
 66
     1
  6
CONTINUOUS
  0
VERTEX
  8
LAYER12
 62
     5
  6
CONTINUOUS
 10
7.0493
 20
4.5561
  0
VERTEX
  8
LAYER12
 62
     5
  6
CONTINUOUS
 10
7.0493
 20
4.5561
  0
SEQEND
  8
LAYER12
  0
POLYLINE
  8
LAYER12
 62
     5
 66
     1
  6
CONTINUOUS
  0
VERTEX
  8
LAYER12
 62
     5
  6
CONTINUOUS
 10
8.0339
 20
3.5331
  0
VERTEX
  8
LAYER12
 62
     5
  6
CONTINUOUS
 10
7.1279
 20
3.5331
  0
SEQEND
  8
LAYER12
  0
POLYLINE
  8
LAYER12
 62
     5
 66
     1
  6
CONTINUOUS
  0
VERTEX
  8
LAYER12
 62
     5
  6
CONTINUOUS
 10
7.1279
 20
3.5331
  0
VERTEX
  8
LAYER12
 62
     5
  6
CONTINUOUS
 10
7.0530
 20
3.5331
  0
SEQEND
  8
LAYER12
  0
POLYLINE
  8
LAYER12
 62
     5
 66
     1
  6
CONTINUOUS
  0
VERTEX
  8
LAYER12
 62
     5
  6
CONTINUOUS
 10
7.0490
 20
3.5331
  0
VERTEX
  8
LAYER12
 62
     5
  6
CONTINUOUS
 10
7.0490
 20
3.5331
  0
SEQEND
  8
LAYER12
  0
POLYLINE
  8
LAYER12
 62
     5
 66
     1
  6
CONTINUOUS
  0
VERTEX
  8
LAYER12
 62
     5
  6
CONTINUOUS
 10
8.0340
 20
3.5331
  0
VERTEX
  8
LAYER12
 62
     5
  6
CONTINUOUS
 10
8.0339
 20
3.5331
  0
SEQEND
  8
LAYER12
  0
POLYLINE
  8
LAYER12
 62
     5
 66
     1
  6
CONTINUOUS
  0
VERTEX
  8
LAYER12
 62
     5
  6
CONTINUOUS
 10
7.0530
 20
3.5331
  0
VERTEX
  8
LAYER12
 62
     5
  6
CONTINUOUS
 10
7.0493
 20
3.5331
  0
SEQEND
  8
LAYER12
  0
POLYLINE
  8
LAYER12
 62
     5
 66
     1
  6
CONTINUOUS
  0
VERTEX
  8
LAYER12
 62
     5
  6
CONTINUOUS
 10
7.0493
 20
3.5331
  0
VERTEX
  8
LAYER12
 62
     5
  6
CONTINUOUS
 10
7.0490
 20
3.5331
  0
SEQEND
  8
LAYER12
  0
POLYLINE
  8
LAYER12
 62
     5
 66
     1
  6
CONTINUOUS
  0
VERTEX
  8
LAYER12
 62
     5
  6
CONTINUOUS
 10
7.0493
 20
3.5331
  0
VERTEX
  8
LAYER12
 62
     5
  6
CONTINUOUS
 10
7.0493
 20
3.5341
  0
SEQEND
  8
LAYER12
  0
POLYLINE
  8
LAYER12
 62
     5
 66
     1
  6
CONTINUOUS
  0
VERTEX
  8
LAYER12
 62
     5
  6
CONTINUOUS
 10
8.0330
 20
4.5561
  0
VERTEX
  8
LAYER12
 62
     5
  6
CONTINUOUS
 10
8.0330
 20
3.5341
  0
SEQEND
  8
LAYER12
  0
POLYLINE
  8
LAYER12
 62
     5
 66
     1
  6
CONTINUOUS
  0
VERTEX
  8
LAYER12
 62
     5
  6
CONTINUOUS
 10
8.0330
 20
3.5341
  0
VERTEX
  8
LAYER12
 62
     5
  6
CONTINUOUS
 10
8.0330
 20
3.5331
  0
SEQEND
  8
LAYER12
  0
ENDSEC
  0
EOF
