  0
SECTION
  2
HEADER
  9
$ACADVER
  1
AC1004
  9
$EXTMIN
 10
10.0388
 20
3.5331
  9
$EXTMAX
 10
11.0284
 20
4.5588
  9
$LIMMIN
 10
10.0388
 20
3.5331
  9
$LIMMAX
 10
11.0284
 20
4.5588
  9
$INSBASE
 10
0.0
 20
0.0
  9
$VIEWCTR
 10
7.21903
 20
4.5
  9
$VIEWSIZE
 40
9.0
  9
$SNAPMODE
 70
     0
  9
$SNAPUNIT
 10
1.0
 20
1.0
  9
$SNAPBASE
 10
0.0
 20
0.0
  9
$SNAPANG
 50
0.0
  9
$SNAPSTYLE
 70
     0
  9
$SNAPISOPAIR
 70
     0
  9
$GRIDMODE
 70
     0
  9
$GRIDUNIT
 10
0.0
 20
0.0
  9
$ORTHOMODE
 70
     0
  9
$REGENMODE
 70
     1
  9
$FILLMODE
 70
     1
  9
$QTEXTMODE
 70
     0
  9
$DRAGMODE
 70
     2
  9
$LTSCALE
 40
1.0
  9
$OSMODE
 70
     0
  9
$ATTMODE
 70
     1
  9
$TEXTSIZE
 40
0.2
  9
$TRACEWID
 40
0.05
  9
$TEXTSTYLE
  7
STANDARD
  9
$CLAYER
  8
0
  9
$CELTYPE
  6
BYLAYER
  9
$CECOLOR
 62
   256
  9
$DIMSCALE
 40
1.0
  9
$DIMASZ
 40
0.18
  9
$DIMEXO
 40
0.0625
  9
$DIMDLI
 40
0.38
  9
$DIMRND
 40
0.0
  9
$DIMDLE
 40
0.0
  9
$DIMEXE
 40
0.18
  9
$DIMTP
 40
0.0
  9
$DIMTM
 40
0.0
  9
$DIMTXT
 40
0.18
  9
$DIMCEN
 40
0.09
  9
$DIMTSZ
 40
0.0
  9
$DIMTOL
 70
     0
  9
$DIMLIM
 70
     0
  9
$DIMTIH
 70
     1
  9
$DIMTOH
 70
     1
  9
$DIMSE1
 70
     0
  9
$DIMSE2
 70
     0
  9
$DIMTAD
 70
     0
  9
$DIMZIN
 70
     0
  9
$DIMBLK
  1

  9
$DIMASO
 70
     1
  9
$DIMSHO
 70
     0
  9
$DIMPOST
  1

  9
$DIMAPOST
  1

  9
$DIMALT
 70
     0
  9
$DIMALTD
 70
     2
  9
$DIMALTF
 40
25.4
  9
$DIMLFAC
 40
1.0
  9
$LUNITS
 70
     2
  9
$LUPREC
 70
     4
  9
$AXISMODE
 70
     0
  9
$AXISUNIT
 10
0.0
 20
0.0
  9
$SKETCHINC
 40
0.1
  9
$FILLETRAD
 40
0.0
  9
$AUNITS
 70
     0
  9
$AUPREC
 70
     0
  9
$MENU
  1
acad
  9
$ELEVATION
 40
0.0
  9
$THICKNESS
 40
0.0
  9
$VIEWDIR
 10
0.0
 20
0.0
 30
1.0
  9
$LIMCHECK
 70
     0
  9
$BLIPMODE
 70
     1
  9
$CHAMFERA
 40
0.0
  9
$CHAMFERB
 40
0.0
  9
$FASTZOOM
 70
     1
  9
$SKPOLY
 70
     0
  9
$TDCREATE
 40
2447222.5666886573
  9
$TDUPDATE
 40
2447222.5666886573
  9
$TDINDWG
 40
0.0000000000
  9
$TDUSRTIMER
 40
0.0000000000
  9
$USRTIMER
 70
     1
  9
$ANGBASE
 50
0.0
  9
$ANGDIR
 70
     0
  9
$PDMODE
 70
     0
  9
$PDSIZE
 40
0.0
  9
$PLINEWID
 40
0.0
  9
$COORDS
 70
     0
  9
$SPLFRAME
 70
     0
  9
$SPLINESEGS
 70
     8
  9
$ATTDIA
 70
     0
  9
$ATTREQ
 70
     1
  9
$USERI1
 70
     0
  9
$USERI2
 70
     0
  9
$USERI3
 70
     0
  9
$USERI4
 70
     0
  9
$USERI5
 70
     0
  9
$USERR1
 40
0.0
  9
$USERR2
 40
0.0
  9
$USERR3
 40
0.0
  9
$USERR4
 40
0.0
  9
$USERR5
 40
0.0
  0
ENDSEC
  0
SECTION
  2
TABLES
  0
TABLE
  2
LTYPE
 70
     13
  0
LTYPE
  2
CONTINUOUS
 70
    64
  3
Solid line
 72
    65
 73
     0
 40
0.0
  0
LTYPE
  2
DASHED
 70
    64
  3
__ __ __ __ __ __ __ __ __ __ __ __ __ __ __
 72
    65
 73
     2
 40
0.75
 49
0.5
 49
-0.25
  0
LTYPE
  2
HIDDEN
 70
    64
  3
_ _ _ _ _ _ _ _ _ _ _ _ _ _ _ _ _ _ _ _ _ _ _
 72
    65
 73
     2
 40
0.375
 49
0.25
 49
-0.125
  0
LTYPE
  2
CENTER
 70
    64
  3
____ _ ____ _ ____ _ ____ _ ____ _ ____ _ ____
 72
    65
 73
     4
 40
2.0
 49
1.25
 49
-0.25
 49
0.25
 49
-0.25
  0
LTYPE
  2
PHANTOM
 70
    64
  3
_____ _ _ _____ _ _ _____ _ _ _____ _ _ ____
 72
    65
 73
     6
 40
2.5
 49
1.25
 49
-0.25
 49
0.25
 49
-0.25
 49
0.25
 49
-0.25
  0
LTYPE
  2
DOT
 70
    64
  3
...............................................
 72
    65
 73
     2
 40
0.25
 49
0.0
 49
-0.25
  0
LTYPE
  2
DASHDOT
 70
    64
  3
__ . __ . __ . __ . __ . __ . __ . __ . __ . __
 72
    65
 73
     4
 40
1.0
 49
0.5
 49
-0.25
 49
0.0
 49
-0.25
  0
LTYPE
  2
BORDER
 70
    64
  3
__ __ . __ __ . __ __ . __ __ . __ __ . __ __
 72
    65
 73
     6
 40
1.75
 49
0.5
 49
-0.25
 49
0.5
 49
-0.25
 49
0.0
 49
-0.25
  0
LTYPE
  2
DIVIDE
 70
    64
  3
__ . . __ . . __ . . __ . . __ . . __ . . __
 72
    65
 73
     6
 40
1.25
 49
0.5
 49
-0.25
 49
0.0
 49
-0.25
 49
0.0
 49
-0.25
  0
LTYPE
  2
DCTYPE1
 70
    64
  3
__ . . __ . . __ . . __ . . __ . . __ . . __
 72
    65
 73
     8
 40
2.5
 49
0.5
 49
-0.25
 49
0.125
 49
-0.25
 49
0.25
 49
-0.25
 49
0.125
 49
-0.25
  0
LTYPE
  2
DCTYPE2
 70
    64
  3
__ . . __ . . __ . . __ . . __ . . __ . . __
 72
    65
 73
     6
 40
2.05
 49
1.0
 49
-0.3
 49
0.15
 49
-0.15
 49
0.15
 49
-0.3
  0
LTYPE
  2
DCTYPE3
 70
    64
  3
__ . . __ . . __ . . __ . . __ . . __ . . __
 72
    65
 73
     6
 40
2.5
 49
0.8
 49
-0.2
 49
0.8
 49
-0.2
 49
0.3
 49
-0.2
  0
LTYPE
  2
DCTYPE4
 70
    64
  3
__ . . __ . . __ . . __ . . __ . . __ . . __
 72
    65
 73
     10
 40
3.97
 49
1.75
 49
-0.3
 49
0.3
 49
-0.3
 49
0.06
 49
-0.3
 49
0.06
 49
-0.3
 49
0.3
 49
-0.3
  0
ENDTAB
  0
TABLE
  2
LAYER
 70
    153
  0
LAYER
  2
LAYER1
 70
 64
 62
     7
  6
CONTINUOUS
  0
LAYER
  2
LAYER10
 70
 64
 62
     1
  6
CONTINUOUS
  0
LAYER
  2
LAYER12
 70
 64
 62
     5
  6
CONTINUOUS
  0
ENDTAB
  0
ENDSEC
  0
SECTION
  2
BLOCKS
  0
ENDSEC
  0
SECTION
  2
ENTITIES
  0
CIRCLE
  8
LAYER1
 62
     7
  6
CONTINUOUS
 10
10.7515
 20
3.6442
 40
0.0050
  0
CIRCLE
  8
LAYER1
 62
     7
  6
CONTINUOUS
 10
10.7268
 20
3.6136
 40
0.0151
  0
CIRCLE
  8
LAYER1
 62
     7
  6
CONTINUOUS
 10
10.9555
 20
3.6249
 40
0.0147
  0
CIRCLE
  8
LAYER1
 62
     7
  6
CONTINUOUS
 10
10.1073
 20
3.8148
 40
0.0091
  0
CIRCLE
  8
LAYER1
 62
     7
  6
CONTINUOUS
 10
10.1646
 20
3.6925
 40
0.0192
  0
CIRCLE
  8
LAYER1
 62
     7
  6
CONTINUOUS
 10
10.2438
 20
3.7743
 40
0.0249
  0
CIRCLE
  8
LAYER1
 62
     7
  6
CONTINUOUS
 10
10.2870
 20
3.7473
 40
0.0159
  0
CIRCLE
  8
LAYER1
 62
     7
  6
CONTINUOUS
 10
10.4117
 20
3.6588
 40
0.0126
  0
CIRCLE
  8
LAYER1
 62
     7
  6
CONTINUOUS
 10
10.4273
 20
3.6264
 40
0.0128
  0
CIRCLE
  8
LAYER1
 62
     7
  6
CONTINUOUS
 10
10.5355
 20
3.6256
 40
0.0112
  0
CIRCLE
  8
LAYER1
 62
     7
  6
CONTINUOUS
 10
10.5805
 20
3.6414
 40
0.0071
  0
CIRCLE
  8
LAYER1
 62
     7
  6
CONTINUOUS
 10
10.6227
 20
3.6773
 40
0.0104
  0
CIRCLE
  8
LAYER1
 62
     7
  6
CONTINUOUS
 10
10.6802
 20
3.6984
 40
0.0071
  0
CIRCLE
  8
LAYER1
 62
     7
  6
CONTINUOUS
 10
10.7647
 20
3.7551
 40
0.0225
  0
CIRCLE
  8
LAYER1
 62
     7
  6
CONTINUOUS
 10
10.9028
 20
3.7725
 40
0.0135
  0
CIRCLE
  8
LAYER1
 62
     7
  6
CONTINUOUS
 10
10.7257
 20
3.8350
 40
0.0153
  0
CIRCLE
  8
LAYER1
 62
     7
  6
CONTINUOUS
 10
10.8222
 20
3.9321
 40
0.0050
  0
CIRCLE
  8
LAYER1
 62
     7
  6
CONTINUOUS
 10
10.9337
 20
3.8811
 40
0.0135
  0
CIRCLE
  8
LAYER1
 62
     7
  6
CONTINUOUS
 10
10.9494
 20
3.8437
 40
0.0181
  0
CIRCLE
  8
LAYER1
 62
     7
  6
CONTINUOUS
 10
10.9869
 20
3.8594
 40
0.0153
  0
POLYLINE
  8
LAYER1
 62
     7
 66
     1
  6
CONTINUOUS
  0
VERTEX
  8
LAYER1
 62
     7
  6
CONTINUOUS
 10
10.3166
 20
4.0899
  0
VERTEX
  8
LAYER1
 62
     7
  6
CONTINUOUS
 10
10.3156
 20
4.0887
  0
VERTEX
  8
LAYER1
 62
     7
  6
CONTINUOUS
 10
10.3143
 20
4.0879
  0
VERTEX
  8
LAYER1
 62
     7
  6
CONTINUOUS
 10
10.3128
 20
4.0874
  0
VERTEX
  8
LAYER1
 62
     7
  6
CONTINUOUS
 10
10.3109
 20
4.0871
  0
VERTEX
  8
LAYER1
 62
     7
  6
CONTINUOUS
 10
10.3089
 20
4.0870
  0
VERTEX
  8
LAYER1
 62
     7
  6
CONTINUOUS
 10
10.3067
 20
4.0870
  0
VERTEX
  8
LAYER1
 62
     7
  6
CONTINUOUS
 10
10.3043
 20
4.0873
  0
VERTEX
  8
LAYER1
 62
     7
  6
CONTINUOUS
 10
10.3018
 20
4.0876
  0
VERTEX
  8
LAYER1
 62
     7
  6
CONTINUOUS
 10
10.2993
 20
4.0880
  0
VERTEX
  8
LAYER1
 62
     7
  6
CONTINUOUS
 10
10.2967
 20
4.0885
  0
VERTEX
  8
LAYER1
 62
     7
  6
CONTINUOUS
 10
10.2940
 20
4.0890
  0
VERTEX
  8
LAYER1
 62
     7
  6
CONTINUOUS
 10
10.2915
 20
4.0894
  0
VERTEX
  8
LAYER1
 62
     7
  6
CONTINUOUS
 10
10.2854
 20
4.0904
  0
VERTEX
  8
LAYER1
 62
     7
  6
CONTINUOUS
 10
10.2796
 20
4.0912
  0
VERTEX
  8
LAYER1
 62
     7
  6
CONTINUOUS
 10
10.2741
 20
4.0918
  0
VERTEX
  8
LAYER1
 62
     7
  6
CONTINUOUS
 10
10.2689
 20
4.0922
  0
VERTEX
  8
LAYER1
 62
     7
  6
CONTINUOUS
 10
10.2638
 20
4.0926
  0
VERTEX
  8
LAYER1
 62
     7
  6
CONTINUOUS
 10
10.2589
 20
4.0931
  0
VERTEX
  8
LAYER1
 62
     7
  6
CONTINUOUS
 10
10.2541
 20
4.0935
  0
VERTEX
  8
LAYER1
 62
     7
  6
CONTINUOUS
 10
10.2495
 20
4.0941
  0
VERTEX
  8
LAYER1
 62
     7
  6
CONTINUOUS
 10
10.2448
 20
4.0948
  0
VERTEX
  8
LAYER1
 62
     7
  6
CONTINUOUS
 10
10.2402
 20
4.0958
  0
VERTEX
  8
LAYER1
 62
     7
  6
CONTINUOUS
 10
10.2356
 20
4.0970
  0
VERTEX
  8
LAYER1
 62
     7
  6
CONTINUOUS
 10
10.2309
 20
4.0985
  0
VERTEX
  8
LAYER1
 62
     7
  6
CONTINUOUS
 10
10.2285
 20
4.0994
  0
VERTEX
  8
LAYER1
 62
     7
  6
CONTINUOUS
 10
10.2260
 20
4.1005
  0
VERTEX
  8
LAYER1
 62
     7
  6
CONTINUOUS
 10
10.2235
 20
4.1015
  0
VERTEX
  8
LAYER1
 62
     7
  6
CONTINUOUS
 10
10.2210
 20
4.1026
  0
VERTEX
  8
LAYER1
 62
     7
  6
CONTINUOUS
 10
10.2184
 20
4.1036
  0
VERTEX
  8
LAYER1
 62
     7
  6
CONTINUOUS
 10
10.2159
 20
4.1046
  0
VERTEX
  8
LAYER1
 62
     7
  6
CONTINUOUS
 10
10.2134
 20
4.1056
  0
VERTEX
  8
LAYER1
 62
     7
  6
CONTINUOUS
 10
10.2108
 20
4.1064
  0
VERTEX
  8
LAYER1
 62
     7
  6
CONTINUOUS
 10
10.2082
 20
4.1071
  0
VERTEX
  8
LAYER1
 62
     7
  6
CONTINUOUS
 10
10.2057
 20
4.1076
  0
VERTEX
  8
LAYER1
 62
     7
  6
CONTINUOUS
 10
10.2031
 20
4.1080
  0
VERTEX
  8
LAYER1
 62
     7
  6
CONTINUOUS
 10
10.2006
 20
4.1081
  0
VERTEX
  8
LAYER1
 62
     7
  6
CONTINUOUS
 10
10.1976
 20
4.1079
  0
VERTEX
  8
LAYER1
 62
     7
  6
CONTINUOUS
 10
10.1945
 20
4.1074
  0
VERTEX
  8
LAYER1
 62
     7
  6
CONTINUOUS
 10
10.1915
 20
4.1066
  0
VERTEX
  8
LAYER1
 62
     7
  6
CONTINUOUS
 10
10.1885
 20
4.1055
  0
VERTEX
  8
LAYER1
 62
     7
  6
CONTINUOUS
 10
10.1856
 20
4.1043
  0
VERTEX
  8
LAYER1
 62
     7
  6
CONTINUOUS
 10
10.1826
 20
4.1028
  0
VERTEX
  8
LAYER1
 62
     7
  6
CONTINUOUS
 10
10.1797
 20
4.1012
  0
VERTEX
  8
LAYER1
 62
     7
  6
CONTINUOUS
 10
10.1768
 20
4.0995
  0
VERTEX
  8
LAYER1
 62
     7
  6
CONTINUOUS
 10
10.1740
 20
4.0977
  0
VERTEX
  8
LAYER1
 62
     7
  6
CONTINUOUS
 10
10.1712
 20
4.0959
  0
VERTEX
  8
LAYER1
 62
     7
  6
CONTINUOUS
 10
10.1684
 20
4.0942
  0
VERTEX
  8
LAYER1
 62
     7
  6
CONTINUOUS
 10
10.1656
 20
4.0924
  0
VERTEX
  8
LAYER1
 62
     7
  6
CONTINUOUS
 10
10.1629
 20
4.0908
  0
VERTEX
  8
LAYER1
 62
     7
  6
CONTINUOUS
 10
10.1603
 20
4.0892
  0
VERTEX
  8
LAYER1
 62
     7
  6
CONTINUOUS
 10
10.1576
 20
4.0876
  0
VERTEX
  8
LAYER1
 62
     7
  6
CONTINUOUS
 10
10.1549
 20
4.0862
  0
VERTEX
  8
LAYER1
 62
     7
  6
CONTINUOUS
 10
10.1522
 20
4.0848
  0
VERTEX
  8
LAYER1
 62
     7
  6
CONTINUOUS
 10
10.1494
 20
4.0835
  0
VERTEX
  8
LAYER1
 62
     7
  6
CONTINUOUS
 10
10.1466
 20
4.0823
  0
VERTEX
  8
LAYER1
 62
     7
  6
CONTINUOUS
 10
10.1437
 20
4.0811
  0
VERTEX
  8
LAYER1
 62
     7
  6
CONTINUOUS
 10
10.1406
 20
4.0799
  0
VERTEX
  8
LAYER1
 62
     7
  6
CONTINUOUS
 10
10.1375
 20
4.0788
  0
VERTEX
  8
LAYER1
 62
     7
  6
CONTINUOUS
 10
10.1342
 20
4.0778
  0
VERTEX
  8
LAYER1
 62
     7
  6
CONTINUOUS
 10
10.1307
 20
4.0768
  0
VERTEX
  8
LAYER1
 62
     7
  6
CONTINUOUS
 10
10.1288
 20
4.0762
  0
VERTEX
  8
LAYER1
 62
     7
  6
CONTINUOUS
 10
10.1269
 20
4.0758
  0
VERTEX
  8
LAYER1
 62
     7
  6
CONTINUOUS
 10
10.1249
 20
4.0753
  0
VERTEX
  8
LAYER1
 62
     7
  6
CONTINUOUS
 10
10.1230
 20
4.0749
  0
VERTEX
  8
LAYER1
 62
     7
  6
CONTINUOUS
 10
10.1211
 20
4.0746
  0
VERTEX
  8
LAYER1
 62
     7
  6
CONTINUOUS
 10
10.1193
 20
4.0745
  0
VERTEX
  8
LAYER1
 62
     7
  6
CONTINUOUS
 10
10.1175
 20
4.0744
  0
VERTEX
  8
LAYER1
 62
     7
  6
CONTINUOUS
 10
10.1159
 20
4.0744
  0
VERTEX
  8
LAYER1
 62
     7
  6
CONTINUOUS
 10
10.1143
 20
4.0747
  0
VERTEX
  8
LAYER1
 62
     7
  6
CONTINUOUS
 10
10.1129
 20
4.0751
  0
VERTEX
  8
LAYER1
 62
     7
  6
CONTINUOUS
 10
10.1117
 20
4.0756
  0
VERTEX
  8
LAYER1
 62
     7
  6
CONTINUOUS
 10
10.1106
 20
4.0764
  0
VERTEX
  8
LAYER1
 62
     7
  6
CONTINUOUS
 10
10.1097
 20
4.0775
  0
VERTEX
  8
LAYER1
 62
     7
  6
CONTINUOUS
 10
10.1090
 20
4.0787
  0
VERTEX
  8
LAYER1
 62
     7
  6
CONTINUOUS
 10
10.1084
 20
4.0802
  0
VERTEX
  8
LAYER1
 62
     7
  6
CONTINUOUS
 10
10.1079
 20
4.0818
  0
VERTEX
  8
LAYER1
 62
     7
  6
CONTINUOUS
 10
10.1076
 20
4.0835
  0
VERTEX
  8
LAYER1
 62
     7
  6
CONTINUOUS
 10
10.1073
 20
4.0853
  0
VERTEX
  8
LAYER1
 62
     7
  6
CONTINUOUS
 10
10.1070
 20
4.0872
  0
VERTEX
  8
LAYER1
 62
     7
  6
CONTINUOUS
 10
10.1068
 20
4.0891
  0
VERTEX
  8
LAYER1
 62
     7
  6
CONTINUOUS
 10
10.1065
 20
4.0910
  0
VERTEX
  8
LAYER1
 62
     7
  6
CONTINUOUS
 10
10.1062
 20
4.0929
  0
VERTEX
  8
LAYER1
 62
     7
  6
CONTINUOUS
 10
10.1058
 20
4.0947
  0
VERTEX
  8
LAYER1
 62
     7
  6
CONTINUOUS
 10
10.1052
 20
4.0965
  0
VERTEX
  8
LAYER1
 62
     7
  6
CONTINUOUS
 10
10.1046
 20
4.0979
  0
VERTEX
  8
LAYER1
 62
     7
  6
CONTINUOUS
 10
10.1040
 20
4.0993
  0
VERTEX
  8
LAYER1
 62
     7
  6
CONTINUOUS
 10
10.1032
 20
4.1006
  0
VERTEX
  8
LAYER1
 62
     7
  6
CONTINUOUS
 10
10.1024
 20
4.1019
  0
VERTEX
  8
LAYER1
 62
     7
  6
CONTINUOUS
 10
10.1015
 20
4.1031
  0
VERTEX
  8
LAYER1
 62
     7
  6
CONTINUOUS
 10
10.1005
 20
4.1043
  0
VERTEX
  8
LAYER1
 62
     7
  6
CONTINUOUS
 10
10.0996
 20
4.1054
  0
VERTEX
  8
LAYER1
 62
     7
  6
CONTINUOUS
 10
10.0986
 20
4.1066
  0
VERTEX
  8
LAYER1
 62
     7
  6
CONTINUOUS
 10
10.0976
 20
4.1078
  0
VERTEX
  8
LAYER1
 62
     7
  6
CONTINUOUS
 10
10.0967
 20
4.1089
  0
VERTEX
  8
LAYER1
 62
     7
  6
CONTINUOUS
 10
10.0958
 20
4.1101
  0
VERTEX
  8
LAYER1
 62
     7
  6
CONTINUOUS
 10
10.0949
 20
4.1114
  0
VERTEX
  8
LAYER1
 62
     7
  6
CONTINUOUS
 10
10.0942
 20
4.1125
  0
VERTEX
  8
LAYER1
 62
     7
  6
CONTINUOUS
 10
10.0935
 20
4.1137
  0
VERTEX
  8
LAYER1
 62
     7
  6
CONTINUOUS
 10
10.0929
 20
4.1149
  0
VERTEX
  8
LAYER1
 62
     7
  6
CONTINUOUS
 10
10.0923
 20
4.1161
  0
VERTEX
  8
LAYER1
 62
     7
  6
CONTINUOUS
 10
10.0918
 20
4.1173
  0
VERTEX
  8
LAYER1
 62
     7
  6
CONTINUOUS
 10
10.0913
 20
4.1186
  0
VERTEX
  8
LAYER1
 62
     7
  6
CONTINUOUS
 10
10.0909
 20
4.1199
  0
VERTEX
  8
LAYER1
 62
     7
  6
CONTINUOUS
 10
10.0905
 20
4.1211
  0
VERTEX
  8
LAYER1
 62
     7
  6
CONTINUOUS
 10
10.0902
 20
4.1224
  0
VERTEX
  8
LAYER1
 62
     7
  6
CONTINUOUS
 10
10.0900
 20
4.1238
  0
VERTEX
  8
LAYER1
 62
     7
  6
CONTINUOUS
 10
10.0898
 20
4.1251
  0
VERTEX
  8
LAYER1
 62
     7
  6
CONTINUOUS
 10
10.0896
 20
4.1264
  0
VERTEX
  8
LAYER1
 62
     7
  6
CONTINUOUS
 10
10.0895
 20
4.1290
  0
VERTEX
  8
LAYER1
 62
     7
  6
CONTINUOUS
 10
10.0897
 20
4.1316
  0
VERTEX
  8
LAYER1
 62
     7
  6
CONTINUOUS
 10
10.0900
 20
4.1342
  0
VERTEX
  8
LAYER1
 62
     7
  6
CONTINUOUS
 10
10.0905
 20
4.1368
  0
VERTEX
  8
LAYER1
 62
     7
  6
CONTINUOUS
 10
10.0912
 20
4.1394
  0
VERTEX
  8
LAYER1
 62
     7
  6
CONTINUOUS
 10
10.0920
 20
4.1419
  0
VERTEX
  8
LAYER1
 62
     7
  6
CONTINUOUS
 10
10.0930
 20
4.1445
  0
VERTEX
  8
LAYER1
 62
     7
  6
CONTINUOUS
 10
10.0940
 20
4.1470
  0
VERTEX
  8
LAYER1
 62
     7
  6
CONTINUOUS
 10
10.0952
 20
4.1495
  0
VERTEX
  8
LAYER1
 62
     7
  6
CONTINUOUS
 10
10.0965
 20
4.1519
  0
VERTEX
  8
LAYER1
 62
     7
  6
CONTINUOUS
 10
10.0978
 20
4.1543
  0
VERTEX
  8
LAYER1
 62
     7
  6
CONTINUOUS
 10
10.0992
 20
4.1567
  0
VERTEX
  8
LAYER1
 62
     7
  6
CONTINUOUS
 10
10.1005
 20
4.1588
  0
VERTEX
  8
LAYER1
 62
     7
  6
CONTINUOUS
 10
10.1018
 20
4.1609
  0
VERTEX
  8
LAYER1
 62
     7
  6
CONTINUOUS
 10
10.1031
 20
4.1629
  0
VERTEX
  8
LAYER1
 62
     7
  6
CONTINUOUS
 10
10.1045
 20
4.1649
  0
VERTEX
  8
LAYER1
 62
     7
  6
CONTINUOUS
 10
10.1060
 20
4.1668
  0
VERTEX
  8
LAYER1
 62
     7
  6
CONTINUOUS
 10
10.1075
 20
4.1686
  0
VERTEX
  8
LAYER1
 62
     7
  6
CONTINUOUS
 10
10.1092
 20
4.1703
  0
VERTEX
  8
LAYER1
 62
     7
  6
CONTINUOUS
 10
10.1109
 20
4.1720
  0
VERTEX
  8
LAYER1
 62
     7
  6
CONTINUOUS
 10
10.1127
 20
4.1735
  0
VERTEX
  8
LAYER1
 62
     7
  6
CONTINUOUS
 10
10.1147
 20
4.1748
  0
VERTEX
  8
LAYER1
 62
     7
  6
CONTINUOUS
 10
10.1168
 20
4.1761
  0
VERTEX
  8
LAYER1
 62
     7
  6
CONTINUOUS
 10
10.1190
 20
4.1772
  0
VERTEX
  8
LAYER1
 62
     7
  6
CONTINUOUS
 10
10.1212
 20
4.1781
  0
VERTEX
  8
LAYER1
 62
     7
  6
CONTINUOUS
 10
10.1236
 20
4.1789
  0
VERTEX
  8
LAYER1
 62
     7
  6
CONTINUOUS
 10
10.1260
 20
4.1796
  0
VERTEX
  8
LAYER1
 62
     7
  6
CONTINUOUS
 10
10.1284
 20
4.1802
  0
VERTEX
  8
LAYER1
 62
     7
  6
CONTINUOUS
 10
10.1308
 20
4.1809
  0
VERTEX
  8
LAYER1
 62
     7
  6
CONTINUOUS
 10
10.1331
 20
4.1815
  0
VERTEX
  8
LAYER1
 62
     7
  6
CONTINUOUS
 10
10.1354
 20
4.1822
  0
VERTEX
  8
LAYER1
 62
     7
  6
CONTINUOUS
 10
10.1375
 20
4.1830
  0
VERTEX
  8
LAYER1
 62
     7
  6
CONTINUOUS
 10
10.1395
 20
4.1839
  0
VERTEX
  8
LAYER1
 62
     7
  6
CONTINUOUS
 10
10.1412
 20
4.1850
  0
VERTEX
  8
LAYER1
 62
     7
  6
CONTINUOUS
 10
10.1427
 20
4.1862
  0
VERTEX
  8
LAYER1
 62
     7
  6
CONTINUOUS
 10
10.1440
 20
4.1876
  0
VERTEX
  8
LAYER1
 62
     7
  6
CONTINUOUS
 10
10.1449
 20
4.1892
  0
VERTEX
  8
LAYER1
 62
     7
  6
CONTINUOUS
 10
10.1455
 20
4.1910
  0
VERTEX
  8
LAYER1
 62
     7
  6
CONTINUOUS
 10
10.1460
 20
4.1929
  0
VERTEX
  8
LAYER1
 62
     7
  6
CONTINUOUS
 10
10.1463
 20
4.1950
  0
VERTEX
  8
LAYER1
 62
     7
  6
CONTINUOUS
 10
10.1465
 20
4.1971
  0
VERTEX
  8
LAYER1
 62
     7
  6
CONTINUOUS
 10
10.1466
 20
4.1994
  0
VERTEX
  8
LAYER1
 62
     7
  6
CONTINUOUS
 10
10.1467
 20
4.2017
  0
VERTEX
  8
LAYER1
 62
     7
  6
CONTINUOUS
 10
10.1469
 20
4.2040
  0
VERTEX
  8
LAYER1
 62
     7
  6
CONTINUOUS
 10
10.1471
 20
4.2063
  0
VERTEX
  8
LAYER1
 62
     7
  6
CONTINUOUS
 10
10.1474
 20
4.2086
  0
VERTEX
  8
LAYER1
 62
     7
  6
CONTINUOUS
 10
10.1479
 20
4.2108
  0
VERTEX
  8
LAYER1
 62
     7
  6
CONTINUOUS
 10
10.1486
 20
4.2129
  0
VERTEX
  8
LAYER1
 62
     7
  6
CONTINUOUS
 10
10.1491
 20
4.2140
  0
VERTEX
  8
LAYER1
 62
     7
  6
CONTINUOUS
 10
10.1496
 20
4.2151
  0
VERTEX
  8
LAYER1
 62
     7
  6
CONTINUOUS
 10
10.1503
 20
4.2161
  0
VERTEX
  8
LAYER1
 62
     7
  6
CONTINUOUS
 10
10.1510
 20
4.2171
  0
VERTEX
  8
LAYER1
 62
     7
  6
CONTINUOUS
 10
10.1517
 20
4.2180
  0
VERTEX
  8
LAYER1
 62
     7
  6
CONTINUOUS
 10
10.1525
 20
4.2189
  0
VERTEX
  8
LAYER1
 62
     7
  6
CONTINUOUS
 10
10.1534
 20
4.2198
  0
VERTEX
  8
LAYER1
 62
     7
  6
CONTINUOUS
 10
10.1543
 20
4.2206
  0
VERTEX
  8
LAYER1
 62
     7
  6
CONTINUOUS
 10
10.1553
 20
4.2213
  0
VERTEX
  8
LAYER1
 62
     7
  6
CONTINUOUS
 10
10.1563
 20
4.2219
  0
VERTEX
  8
LAYER1
 62
     7
  6
CONTINUOUS
 10
10.1574
 20
4.2226
  0
VERTEX
  8
LAYER1
 62
     7
  6
CONTINUOUS
 10
10.1585
 20
4.2231
  0
VERTEX
  8
LAYER1
 62
     7
  6
CONTINUOUS
 10
10.1606
 20
4.2239
  0
VERTEX
  8
LAYER1
 62
     7
  6
CONTINUOUS
 10
10.1627
 20
4.2244
  0
VERTEX
  8
LAYER1
 62
     7
  6
CONTINUOUS
 10
10.1649
 20
4.2248
  0
VERTEX
  8
LAYER1
 62
     7
  6
CONTINUOUS
 10
10.1672
 20
4.2249
  0
VERTEX
  8
LAYER1
 62
     7
  6
CONTINUOUS
 10
10.1695
 20
4.2249
  0
VERTEX
  8
LAYER1
 62
     7
  6
CONTINUOUS
 10
10.1718
 20
4.2246
  0
VERTEX
  8
LAYER1
 62
     7
  6
CONTINUOUS
 10
10.1740
 20
4.2241
  0
VERTEX
  8
LAYER1
 62
     7
  6
CONTINUOUS
 10
10.1762
 20
4.2233
  0
VERTEX
  8
LAYER1
 62
     7
  6
CONTINUOUS
 10
10.1783
 20
4.2224
  0
VERTEX
  8
LAYER1
 62
     7
  6
CONTINUOUS
 10
10.1802
 20
4.2213
  0
VERTEX
  8
LAYER1
 62
     7
  6
CONTINUOUS
 10
10.1820
 20
4.2200
  0
VERTEX
  8
LAYER1
 62
     7
  6
CONTINUOUS
 10
10.1837
 20
4.2185
  0
VERTEX
  8
LAYER1
 62
     7
  6
CONTINUOUS
 10
10.1849
 20
4.2171
  0
VERTEX
  8
LAYER1
 62
     7
  6
CONTINUOUS
 10
10.1860
 20
4.2156
  0
VERTEX
  8
LAYER1
 62
     7
  6
CONTINUOUS
 10
10.1869
 20
4.2141
  0
VERTEX
  8
LAYER1
 62
     7
  6
CONTINUOUS
 10
10.1877
 20
4.2124
  0
VERTEX
  8
LAYER1
 62
     7
  6
CONTINUOUS
 10
10.1884
 20
4.2107
  0
VERTEX
  8
LAYER1
 62
     7
  6
CONTINUOUS
 10
10.1889
 20
4.2089
  0
VERTEX
  8
LAYER1
 62
     7
  6
CONTINUOUS
 10
10.1893
 20
4.2072
  0
VERTEX
  8
LAYER1
 62
     7
  6
CONTINUOUS
 10
10.1896
 20
4.2054
  0
VERTEX
  8
LAYER1
 62
     7
  6
CONTINUOUS
 10
10.1897
 20
4.2036
  0
VERTEX
  8
LAYER1
 62
     7
  6
CONTINUOUS
 10
10.1896
 20
4.2018
  0
VERTEX
  8
LAYER1
 62
     7
  6
CONTINUOUS
 10
10.1894
 20
4.2001
  0
VERTEX
  8
LAYER1
 62
     7
  6
CONTINUOUS
 10
10.1891
 20
4.1984
  0
VERTEX
  8
LAYER1
 62
     7
  6
CONTINUOUS
 10
10.1883
 20
4.1963
  0
VERTEX
  8
LAYER1
 62
     7
  6
CONTINUOUS
 10
10.1873
 20
4.1942
  0
VERTEX
  8
LAYER1
 62
     7
  6
CONTINUOUS
 10
10.1861
 20
4.1923
  0
VERTEX
  8
LAYER1
 62
     7
  6
CONTINUOUS
 10
10.1846
 20
4.1905
  0
VERTEX
  8
LAYER1
 62
     7
  6
CONTINUOUS
 10
10.1830
 20
4.1888
  0
VERTEX
  8
LAYER1
 62
     7
  6
CONTINUOUS
 10
10.1813
 20
4.1871
  0
VERTEX
  8
LAYER1
 62
     7
  6
CONTINUOUS
 10
10.1794
 20
4.1855
  0
VERTEX
  8
LAYER1
 62
     7
  6
CONTINUOUS
 10
10.1774
 20
4.1839
  0
VERTEX
  8
LAYER1
 62
     7
  6
CONTINUOUS
 10
10.1754
 20
4.1824
  0
VERTEX
  8
LAYER1
 62
     7
  6
CONTINUOUS
 10
10.1733
 20
4.1809
  0
VERTEX
  8
LAYER1
 62
     7
  6
CONTINUOUS
 10
10.1713
 20
4.1795
  0
VERTEX
  8
LAYER1
 62
     7
  6
CONTINUOUS
 10
10.1693
 20
4.1780
  0
VERTEX
  8
LAYER1
 62
     7
  6
CONTINUOUS
 10
10.1678
 20
4.1769
  0
VERTEX
  8
LAYER1
 62
     7
  6
CONTINUOUS
 10
10.1664
 20
4.1757
  0
VERTEX
  8
LAYER1
 62
     7
  6
CONTINUOUS
 10
10.1650
 20
4.1746
  0
VERTEX
  8
LAYER1
 62
     7
  6
CONTINUOUS
 10
10.1636
 20
4.1734
  0
VERTEX
  8
LAYER1
 62
     7
  6
CONTINUOUS
 10
10.1623
 20
4.1722
  0
VERTEX
  8
LAYER1
 62
     7
  6
CONTINUOUS
 10
10.1610
 20
4.1710
  0
VERTEX
  8
LAYER1
 62
     7
  6
CONTINUOUS
 10
10.1598
 20
4.1697
  0
VERTEX
  8
LAYER1
 62
     7
  6
CONTINUOUS
 10
10.1586
 20
4.1684
  0
VERTEX
  8
LAYER1
 62
     7
  6
CONTINUOUS
 10
10.1575
 20
4.1670
  0
VERTEX
  8
LAYER1
 62
     7
  6
CONTINUOUS
 10
10.1564
 20
4.1656
  0
VERTEX
  8
LAYER1
 62
     7
  6
CONTINUOUS
 10
10.1554
 20
4.1642
  0
VERTEX
  8
LAYER1
 62
     7
  6
CONTINUOUS
 10
10.1544
 20
4.1627
  0
VERTEX
  8
LAYER1
 62
     7
  6
CONTINUOUS
 10
10.1535
 20
4.1611
  0
VERTEX
  8
LAYER1
 62
     7
  6
CONTINUOUS
 10
10.1527
 20
4.1595
  0
VERTEX
  8
LAYER1
 62
     7
  6
CONTINUOUS
 10
10.1520
 20
4.1579
  0
VERTEX
  8
LAYER1
 62
     7
  6
CONTINUOUS
 10
10.1513
 20
4.1562
  0
VERTEX
  8
LAYER1
 62
     7
  6
CONTINUOUS
 10
10.1507
 20
4.1545
  0
VERTEX
  8
LAYER1
 62
     7
  6
CONTINUOUS
 10
10.1502
 20
4.1528
  0
VERTEX
  8
LAYER1
 62
     7
  6
CONTINUOUS
 10
10.1498
 20
4.1511
  0
VERTEX
  8
LAYER1
 62
     7
  6
CONTINUOUS
 10
10.1495
 20
4.1493
  0
VERTEX
  8
LAYER1
 62
     7
  6
CONTINUOUS
 10
10.1494
 20
4.1476
  0
VERTEX
  8
LAYER1
 62
     7
  6
CONTINUOUS
 10
10.1493
 20
4.1459
  0
VERTEX
  8
LAYER1
 62
     7
  6
CONTINUOUS
 10
10.1495
 20
4.1441
  0
VERTEX
  8
LAYER1
 62
     7
  6
CONTINUOUS
 10
10.1497
 20
4.1425
  0
VERTEX
  8
LAYER1
 62
     7
  6
CONTINUOUS
 10
10.1501
 20
4.1410
  0
VERTEX
  8
LAYER1
 62
     7
  6
CONTINUOUS
 10
10.1506
 20
4.1396
  0
VERTEX
  8
LAYER1
 62
     7
  6
CONTINUOUS
 10
10.1512
 20
4.1382
  0
VERTEX
  8
LAYER1
 62
     7
  6
CONTINUOUS
 10
10.1519
 20
4.1368
  0
VERTEX
  8
LAYER1
 62
     7
  6
CONTINUOUS
 10
10.1526
 20
4.1355
  0
VERTEX
  8
LAYER1
 62
     7
  6
CONTINUOUS
 10
10.1535
 20
4.1342
  0
VERTEX
  8
LAYER1
 62
     7
  6
CONTINUOUS
 10
10.1544
 20
4.1330
  0
VERTEX
  8
LAYER1
 62
     7
  6
CONTINUOUS
 10
10.1555
 20
4.1318
  0
VERTEX
  8
LAYER1
 62
     7
  6
CONTINUOUS
 10
10.1565
 20
4.1307
  0
VERTEX
  8
LAYER1
 62
     7
  6
CONTINUOUS
 10
10.1577
 20
4.1296
  0
VERTEX
  8
LAYER1
 62
     7
  6
CONTINUOUS
 10
10.1588
 20
4.1285
  0
VERTEX
  8
LAYER1
 62
     7
  6
CONTINUOUS
 10
10.1600
 20
4.1275
  0
VERTEX
  8
LAYER1
 62
     7
  6
CONTINUOUS
 10
10.1622
 20
4.1260
  0
VERTEX
  8
LAYER1
 62
     7
  6
CONTINUOUS
 10
10.1645
 20
4.1245
  0
VERTEX
  8
LAYER1
 62
     7
  6
CONTINUOUS
 10
10.1669
 20
4.1233
  0
VERTEX
  8
LAYER1
 62
     7
  6
CONTINUOUS
 10
10.1694
 20
4.1222
  0
VERTEX
  8
LAYER1
 62
     7
  6
CONTINUOUS
 10
10.1719
 20
4.1212
  0
VERTEX
  8
LAYER1
 62
     7
  6
CONTINUOUS
 10
10.1744
 20
4.1204
  0
VERTEX
  8
LAYER1
 62
     7
  6
CONTINUOUS
 10
10.1770
 20
4.1197
  0
VERTEX
  8
LAYER1
 62
     7
  6
CONTINUOUS
 10
10.1797
 20
4.1192
  0
VERTEX
  8
LAYER1
 62
     7
  6
CONTINUOUS
 10
10.1823
 20
4.1187
  0
VERTEX
  8
LAYER1
 62
     7
  6
CONTINUOUS
 10
10.1850
 20
4.1184
  0
VERTEX
  8
LAYER1
 62
     7
  6
CONTINUOUS
 10
10.1877
 20
4.1181
  0
VERTEX
  8
LAYER1
 62
     7
  6
CONTINUOUS
 10
10.1904
 20
4.1180
  0
VERTEX
  8
LAYER1
 62
     7
  6
CONTINUOUS
 10
10.1933
 20
4.1179
  0
VERTEX
  8
LAYER1
 62
     7
  6
CONTINUOUS
 10
10.1963
 20
4.1179
  0
VERTEX
  8
LAYER1
 62
     7
  6
CONTINUOUS
 10
10.1992
 20
4.1179
  0
VERTEX
  8
LAYER1
 62
     7
  6
CONTINUOUS
 10
10.2022
 20
4.1180
  0
VERTEX
  8
LAYER1
 62
     7
  6
CONTINUOUS
 10
10.2051
 20
4.1181
  0
VERTEX
  8
LAYER1
 62
     7
  6
CONTINUOUS
 10
10.2080
 20
4.1183
  0
VERTEX
  8
LAYER1
 62
     7
  6
CONTINUOUS
 10
10.2110
 20
4.1184
  0
VERTEX
  8
LAYER1
 62
     7
  6
CONTINUOUS
 10
10.2139
 20
4.1185
  0
VERTEX
  8
LAYER1
 62
     7
  6
CONTINUOUS
 10
10.2168
 20
4.1186
  0
VERTEX
  8
LAYER1
 62
     7
  6
CONTINUOUS
 10
10.2197
 20
4.1187
  0
VERTEX
  8
LAYER1
 62
     7
  6
CONTINUOUS
 10
10.2227
 20
4.1186
  0
VERTEX
  8
LAYER1
 62
     7
  6
CONTINUOUS
 10
10.2256
 20
4.1186
  0
VERTEX
  8
LAYER1
 62
     7
  6
CONTINUOUS
 10
10.2281
 20
4.1184
  0
VERTEX
  8
LAYER1
 62
     7
  6
CONTINUOUS
 10
10.2307
 20
4.1182
  0
VERTEX
  8
LAYER1
 62
     7
  6
CONTINUOUS
 10
10.2332
 20
4.1179
  0
VERTEX
  8
LAYER1
 62
     7
  6
CONTINUOUS
 10
10.2358
 20
4.1176
  0
VERTEX
  8
LAYER1
 62
     7
  6
CONTINUOUS
 10
10.2383
 20
4.1172
  0
VERTEX
  8
LAYER1
 62
     7
  6
CONTINUOUS
 10
10.2409
 20
4.1168
  0
VERTEX
  8
LAYER1
 62
     7
  6
CONTINUOUS
 10
10.2434
 20
4.1164
  0
VERTEX
  8
LAYER1
 62
     7
  6
CONTINUOUS
 10
10.2459
 20
4.1159
  0
VERTEX
  8
LAYER1
 62
     7
  6
CONTINUOUS
 10
10.2484
 20
4.1155
  0
VERTEX
  8
LAYER1
 62
     7
  6
CONTINUOUS
 10
10.2509
 20
4.1150
  0
VERTEX
  8
LAYER1
 62
     7
  6
CONTINUOUS
 10
10.2534
 20
4.1145
  0
VERTEX
  8
LAYER1
 62
     7
  6
CONTINUOUS
 10
10.2558
 20
4.1140
  0
VERTEX
  8
LAYER1
 62
     7
  6
CONTINUOUS
 10
10.2591
 20
4.1134
  0
VERTEX
  8
LAYER1
 62
     7
  6
CONTINUOUS
 10
10.2623
 20
4.1128
  0
VERTEX
  8
LAYER1
 62
     7
  6
CONTINUOUS
 10
10.2654
 20
4.1122
  0
VERTEX
  8
LAYER1
 62
     7
  6
CONTINUOUS
 10
10.2686
 20
4.1117
  0
VERTEX
  8
LAYER1
 62
     7
  6
CONTINUOUS
 10
10.2719
 20
4.1112
  0
VERTEX
  8
LAYER1
 62
     7
  6
CONTINUOUS
 10
10.2751
 20
4.1108
  0
VERTEX
  8
LAYER1
 62
     7
  6
CONTINUOUS
 10
10.2784
 20
4.1104
  0
VERTEX
  8
LAYER1
 62
     7
  6
CONTINUOUS
 10
10.2818
 20
4.1101
  0
VERTEX
  8
LAYER1
 62
     7
  6
CONTINUOUS
 10
10.2852
 20
4.1099
  0
VERTEX
  8
LAYER1
 62
     7
  6
CONTINUOUS
 10
10.2887
 20
4.1097
  0
VERTEX
  8
LAYER1
 62
     7
  6
CONTINUOUS
 10
10.2924
 20
4.1096
  0
VERTEX
  8
LAYER1
 62
     7
  6
CONTINUOUS
 10
10.2962
 20
4.1096
  0
VERTEX
  8
LAYER1
 62
     7
  6
CONTINUOUS
 10
10.2981
 20
4.1097
  0
VERTEX
  8
LAYER1
 62
     7
  6
CONTINUOUS
 10
10.3001
 20
4.1097
  0
VERTEX
  8
LAYER1
 62
     7
  6
CONTINUOUS
 10
10.3021
 20
4.1097
  0
VERTEX
  8
LAYER1
 62
     7
  6
CONTINUOUS
 10
10.3041
 20
4.1097
  0
VERTEX
  8
LAYER1
 62
     7
  6
CONTINUOUS
 10
10.3060
 20
4.1096
  0
VERTEX
  8
LAYER1
 62
     7
  6
CONTINUOUS
 10
10.3078
 20
4.1094
  0
VERTEX
  8
LAYER1
 62
     7
  6
CONTINUOUS
 10
10.3096
 20
4.1091
  0
VERTEX
  8
LAYER1
 62
     7
  6
CONTINUOUS
 10
10.3112
 20
4.1086
  0
VERTEX
  8
LAYER1
 62
     7
  6
CONTINUOUS
 10
10.3128
 20
4.1080
  0
VERTEX
  8
LAYER1
 62
     7
  6
CONTINUOUS
 10
10.3141
 20
4.1072
  0
SEQEND
  8
LAYER1
  0
POLYLINE
  8
LAYER1
 62
     7
 66
     1
  6
CONTINUOUS
  0
VERTEX
  8
LAYER1
 62
     7
  6
CONTINUOUS
 10
10.3141
 20
4.1072
  0
VERTEX
  8
LAYER1
 62
     7
  6
CONTINUOUS
 10
10.3153
 20
4.1062
  0
VERTEX
  8
LAYER1
 62
     7
  6
CONTINUOUS
 10
10.3164
 20
4.1049
  0
VERTEX
  8
LAYER1
 62
     7
  6
CONTINUOUS
 10
10.3170
 20
4.1039
  0
VERTEX
  8
LAYER1
 62
     7
  6
CONTINUOUS
 10
10.3175
 20
4.1027
  0
VERTEX
  8
LAYER1
 62
     7
  6
CONTINUOUS
 10
10.3179
 20
4.1014
  0
VERTEX
  8
LAYER1
 62
     7
  6
CONTINUOUS
 10
10.3181
 20
4.1001
  0
VERTEX
  8
LAYER1
 62
     7
  6
CONTINUOUS
 10
10.3183
 20
4.0987
  0
VERTEX
  8
LAYER1
 62
     7
  6
CONTINUOUS
 10
10.3184
 20
4.0974
  0
VERTEX
  8
LAYER1
 62
     7
  6
CONTINUOUS
 10
10.3183
 20
4.0960
  0
VERTEX
  8
LAYER1
 62
     7
  6
CONTINUOUS
 10
10.3182
 20
4.0946
  0
VERTEX
  8
LAYER1
 62
     7
  6
CONTINUOUS
 10
10.3179
 20
4.0933
  0
VERTEX
  8
LAYER1
 62
     7
  6
CONTINUOUS
 10
10.3176
 20
4.0920
  0
VERTEX
  8
LAYER1
 62
     7
  6
CONTINUOUS
 10
10.3172
 20
4.0909
  0
VERTEX
  8
LAYER1
 62
     7
  6
CONTINUOUS
 10
10.3166
 20
4.0899
  0
SEQEND
  8
LAYER1
  0
CIRCLE
  8
LAYER1
 62
     7
  6
CONTINUOUS
 10
10.2068
 20
4.0378
 40
0.0159
  0
CIRCLE
  8
LAYER1
 62
     7
  6
CONTINUOUS
 10
10.2104
 20
3.9724
 40
0.0153
  0
CIRCLE
  8
LAYER1
 62
     7
  6
CONTINUOUS
 10
10.0875
 20
4.2571
 40
0.0207
  0
CIRCLE
  8
LAYER1
 62
     7
  6
CONTINUOUS
 10
10.1329
 20
4.2503
 40
0.0126
  0
CIRCLE
  8
LAYER1
 62
     7
  6
CONTINUOUS
 10
10.7324
 20
4.0438
 40
0.0080
  0
CIRCLE
  8
LAYER1
 62
     7
  6
CONTINUOUS
 10
10.5331
 20
4.0808
 40
0.0135
  0
CIRCLE
  8
LAYER1
 62
     7
  6
CONTINUOUS
 10
10.5321
 20
4.1412
 40
0.0135
  0
CIRCLE
  8
LAYER1
 62
     7
  6
CONTINUOUS
 10
10.5410
 20
4.2117
 40
0.0126
  0
CIRCLE
  8
LAYER1
 62
     7
  6
CONTINUOUS
 10
10.5081
 20
4.2213
 40
0.0080
  0
CIRCLE
  8
LAYER1
 62
     7
  6
CONTINUOUS
 10
10.5051
 20
4.2514
 40
0.0056
  0
CIRCLE
  8
LAYER1
 62
     7
  6
CONTINUOUS
 10
10.5329
 20
4.2418
 40
0.0107
  0
CIRCLE
  8
LAYER1
 62
     7
  6
CONTINUOUS
 10
10.5756
 20
4.2500
 40
0.0112
  0
CIRCLE
  8
LAYER1
 62
     7
  6
CONTINUOUS
 10
10.6486
 20
4.2462
 40
0.0263
  0
CIRCLE
  8
LAYER1
 62
     7
  6
CONTINUOUS
 10
10.3419
 20
4.2336
 40
0.0178
  0
CIRCLE
  8
LAYER1
 62
     7
  6
CONTINUOUS
 10
10.2885
 20
4.2680
 40
0.0183
  0
CIRCLE
  8
LAYER1
 62
     7
  6
CONTINUOUS
 10
10.2792
 20
4.3760
 40
0.0215
  0
CIRCLE
  8
LAYER1
 62
     7
  6
CONTINUOUS
 10
10.3009
 20
4.4367
 40
0.0112
  0
CIRCLE
  8
LAYER1
 62
     7
  6
CONTINUOUS
 10
10.3281
 20
4.4623
 40
0.0215
  0
CIRCLE
  8
LAYER1
 62
     7
  6
CONTINUOUS
 10
10.3802
 20
4.3550
 40
0.0080
  0
CIRCLE
  8
LAYER1
 62
     7
  6
CONTINUOUS
 10
10.4196
 20
4.4059
 40
0.0178
  0
CIRCLE
  8
LAYER1
 62
     7
  6
CONTINUOUS
 10
10.4291
 20
4.4363
 40
0.0147
  0
CIRCLE
  8
LAYER1
 62
     7
  6
CONTINUOUS
 10
10.5390
 20
4.3349
 40
0.0201
  0
CIRCLE
  8
LAYER1
 62
     7
  6
CONTINUOUS
 10
10.5243
 20
4.3070
 40
0.0169
  0
CIRCLE
  8
LAYER1
 62
     7
  6
CONTINUOUS
 10
10.5949
 20
4.2956
 40
0.0151
  0
CIRCLE
  8
LAYER1
 62
     7
  6
CONTINUOUS
 10
10.8442
 20
4.1287
 40
0.0159
  0
CIRCLE
  8
LAYER1
 62
     7
  6
CONTINUOUS
 10
10.7726
 20
4.2004
 40
0.0126
  0
CIRCLE
  8
LAYER1
 62
     7
  6
CONTINUOUS
 10
10.8457
 20
4.1865
 40
0.0080
  0
CIRCLE
  8
LAYER1
 62
     7
  6
CONTINUOUS
 10
10.8881
 20
4.2099
 40
0.0112
  0
CIRCLE
  8
LAYER1
 62
     7
  6
CONTINUOUS
 10
10.8628
 20
4.2195
 40
0.0159
  0
CIRCLE
  8
LAYER1
 62
     7
  6
CONTINUOUS
 10
10.8518
 20
4.2772
 40
0.0126
  0
CIRCLE
  8
LAYER1
 62
     7
  6
CONTINUOUS
 10
10.7001
 20
4.3250
 40
0.0183
  0
CIRCLE
  8
LAYER1
 62
     7
  6
CONTINUOUS
 10
10.6341
 20
4.3617
 40
0.0256
  0
POLYLINE
  8
LAYER1
 62
     7
 66
     1
  6
CONTINUOUS
  0
VERTEX
  8
LAYER1
 62
     7
  6
CONTINUOUS
 10
10.6324
 20
4.4673
  0
VERTEX
  8
LAYER1
 62
     7
  6
CONTINUOUS
 10
10.6333
 20
4.4688
  0
VERTEX
  8
LAYER1
 62
     7
  6
CONTINUOUS
 10
10.6343
 20
4.4704
  0
VERTEX
  8
LAYER1
 62
     7
  6
CONTINUOUS
 10
10.6353
 20
4.4719
  0
VERTEX
  8
LAYER1
 62
     7
  6
CONTINUOUS
 10
10.6364
 20
4.4734
  0
VERTEX
  8
LAYER1
 62
     7
  6
CONTINUOUS
 10
10.6376
 20
4.4748
  0
VERTEX
  8
LAYER1
 62
     7
  6
CONTINUOUS
 10
10.6388
 20
4.4761
  0
VERTEX
  8
LAYER1
 62
     7
  6
CONTINUOUS
 10
10.6400
 20
4.4774
  0
VERTEX
  8
LAYER1
 62
     7
  6
CONTINUOUS
 10
10.6413
 20
4.4786
  0
VERTEX
  8
LAYER1
 62
     7
  6
CONTINUOUS
 10
10.6427
 20
4.4798
  0
VERTEX
  8
LAYER1
 62
     7
  6
CONTINUOUS
 10
10.6442
 20
4.4808
  0
VERTEX
  8
LAYER1
 62
     7
  6
CONTINUOUS
 10
10.6457
 20
4.4818
  0
VERTEX
  8
LAYER1
 62
     7
  6
CONTINUOUS
 10
10.6472
 20
4.4826
  0
VERTEX
  8
LAYER1
 62
     7
  6
CONTINUOUS
 10
10.6499
 20
4.4837
  0
VERTEX
  8
LAYER1
 62
     7
  6
CONTINUOUS
 10
10.6528
 20
4.4846
  0
VERTEX
  8
LAYER1
 62
     7
  6
CONTINUOUS
 10
10.6558
 20
4.4851
  0
VERTEX
  8
LAYER1
 62
     7
  6
CONTINUOUS
 10
10.6589
 20
4.4853
  0
VERTEX
  8
LAYER1
 62
     7
  6
CONTINUOUS
 10
10.6620
 20
4.4853
  0
VERTEX
  8
LAYER1
 62
     7
  6
CONTINUOUS
 10
10.6651
 20
4.4850
  0
VERTEX
  8
LAYER1
 62
     7
  6
CONTINUOUS
 10
10.6682
 20
4.4844
  0
VERTEX
  8
LAYER1
 62
     7
  6
CONTINUOUS
 10
10.6713
 20
4.4836
  0
VERTEX
  8
LAYER1
 62
     7
  6
CONTINUOUS
 10
10.6743
 20
4.4826
  0
VERTEX
  8
LAYER1
 62
     7
  6
CONTINUOUS
 10
10.6772
 20
4.4813
  0
VERTEX
  8
LAYER1
 62
     7
  6
CONTINUOUS
 10
10.6799
 20
4.4798
  0
VERTEX
  8
LAYER1
 62
     7
  6
CONTINUOUS
 10
10.6825
 20
4.4781
  0
VERTEX
  8
LAYER1
 62
     7
  6
CONTINUOUS
 10
10.6842
 20
4.4768
  0
VERTEX
  8
LAYER1
 62
     7
  6
CONTINUOUS
 10
10.6858
 20
4.4755
  0
VERTEX
  8
LAYER1
 62
     7
  6
CONTINUOUS
 10
10.6873
 20
4.4740
  0
VERTEX
  8
LAYER1
 62
     7
  6
CONTINUOUS
 10
10.6888
 20
4.4724
  0
VERTEX
  8
LAYER1
 62
     7
  6
CONTINUOUS
 10
10.6901
 20
4.4708
  0
VERTEX
  8
LAYER1
 62
     7
  6
CONTINUOUS
 10
10.6914
 20
4.4692
  0
VERTEX
  8
LAYER1
 62
     7
  6
CONTINUOUS
 10
10.6926
 20
4.4674
  0
VERTEX
  8
LAYER1
 62
     7
  6
CONTINUOUS
 10
10.6938
 20
4.4657
  0
VERTEX
  8
LAYER1
 62
     7
  6
CONTINUOUS
 10
10.6949
 20
4.4639
  0
VERTEX
  8
LAYER1
 62
     7
  6
CONTINUOUS
 10
10.6959
 20
4.4620
  0
VERTEX
  8
LAYER1
 62
     7
  6
CONTINUOUS
 10
10.6969
 20
4.4602
  0
VERTEX
  8
LAYER1
 62
     7
  6
CONTINUOUS
 10
10.6979
 20
4.4583
  0
VERTEX
  8
LAYER1
 62
     7
  6
CONTINUOUS
 10
10.6989
 20
4.4562
  0
VERTEX
  8
LAYER1
 62
     7
  6
CONTINUOUS
 10
10.6999
 20
4.4542
  0
VERTEX
  8
LAYER1
 62
     7
  6
CONTINUOUS
 10
10.7009
 20
4.4521
  0
VERTEX
  8
LAYER1
 62
     7
  6
CONTINUOUS
 10
10.7018
 20
4.4500
  0
VERTEX
  8
LAYER1
 62
     7
  6
CONTINUOUS
 10
10.7027
 20
4.4479
  0
VERTEX
  8
LAYER1
 62
     7
  6
CONTINUOUS
 10
10.7035
 20
4.4459
  0
VERTEX
  8
LAYER1
 62
     7
  6
CONTINUOUS
 10
10.7044
 20
4.4438
  0
VERTEX
  8
LAYER1
 62
     7
  6
CONTINUOUS
 10
10.7052
 20
4.4417
  0
VERTEX
  8
LAYER1
 62
     7
  6
CONTINUOUS
 10
10.7060
 20
4.4396
  0
VERTEX
  8
LAYER1
 62
     7
  6
CONTINUOUS
 10
10.7068
 20
4.4375
  0
VERTEX
  8
LAYER1
 62
     7
  6
CONTINUOUS
 10
10.7076
 20
4.4354
  0
VERTEX
  8
LAYER1
 62
     7
  6
CONTINUOUS
 10
10.7084
 20
4.4333
  0
VERTEX
  8
LAYER1
 62
     7
  6
CONTINUOUS
 10
10.7091
 20
4.4313
  0
VERTEX
  8
LAYER1
 62
     7
  6
CONTINUOUS
 10
10.7098
 20
4.4293
  0
VERTEX
  8
LAYER1
 62
     7
  6
CONTINUOUS
 10
10.7105
 20
4.4274
  0
VERTEX
  8
LAYER1
 62
     7
  6
CONTINUOUS
 10
10.7111
 20
4.4254
  0
VERTEX
  8
LAYER1
 62
     7
  6
CONTINUOUS
 10
10.7117
 20
4.4234
  0
VERTEX
  8
LAYER1
 62
     7
  6
CONTINUOUS
 10
10.7123
 20
4.4213
  0
VERTEX
  8
LAYER1
 62
     7
  6
CONTINUOUS
 10
10.7128
 20
4.4193
  0
VERTEX
  8
LAYER1
 62
     7
  6
CONTINUOUS
 10
10.7132
 20
4.4171
  0
VERTEX
  8
LAYER1
 62
     7
  6
CONTINUOUS
 10
10.7135
 20
4.4150
  0
VERTEX
  8
LAYER1
 62
     7
  6
CONTINUOUS
 10
10.7137
 20
4.4128
  0
VERTEX
  8
LAYER1
 62
     7
  6
CONTINUOUS
 10
10.7138
 20
4.4105
  0
VERTEX
  8
LAYER1
 62
     7
  6
CONTINUOUS
 10
10.7138
 20
4.4082
  0
VERTEX
  8
LAYER1
 62
     7
  6
CONTINUOUS
 10
10.7138
 20
4.4068
  0
VERTEX
  8
LAYER1
 62
     7
  6
CONTINUOUS
 10
10.7137
 20
4.4053
  0
VERTEX
  8
LAYER1
 62
     7
  6
CONTINUOUS
 10
10.7135
 20
4.4038
  0
VERTEX
  8
LAYER1
 62
     7
  6
CONTINUOUS
 10
10.7133
 20
4.4024
  0
VERTEX
  8
LAYER1
 62
     7
  6
CONTINUOUS
 10
10.7130
 20
4.4009
  0
VERTEX
  8
LAYER1
 62
     7
  6
CONTINUOUS
 10
10.7127
 20
4.3996
  0
VERTEX
  8
LAYER1
 62
     7
  6
CONTINUOUS
 10
10.7122
 20
4.3982
  0
VERTEX
  8
LAYER1
 62
     7
  6
CONTINUOUS
 10
10.7118
 20
4.3970
  0
VERTEX
  8
LAYER1
 62
     7
  6
CONTINUOUS
 10
10.7112
 20
4.3958
  0
VERTEX
  8
LAYER1
 62
     7
  6
CONTINUOUS
 10
10.7106
 20
4.3948
  0
VERTEX
  8
LAYER1
 62
     7
  6
CONTINUOUS
 10
10.7098
 20
4.3939
  0
VERTEX
  8
LAYER1
 62
     7
  6
CONTINUOUS
 10
10.7090
 20
4.3931
  0
VERTEX
  8
LAYER1
 62
     7
  6
CONTINUOUS
 10
10.7076
 20
4.3921
  0
VERTEX
  8
LAYER1
 62
     7
  6
CONTINUOUS
 10
10.7059
 20
4.3914
  0
VERTEX
  8
LAYER1
 62
     7
  6
CONTINUOUS
 10
10.7041
 20
4.3911
  0
VERTEX
  8
LAYER1
 62
     7
  6
CONTINUOUS
 10
10.7021
 20
4.3909
  0
VERTEX
  8
LAYER1
 62
     7
  6
CONTINUOUS
 10
10.7000
 20
4.3910
  0
VERTEX
  8
LAYER1
 62
     7
  6
CONTINUOUS
 10
10.6978
 20
4.3912
  0
VERTEX
  8
LAYER1
 62
     7
  6
CONTINUOUS
 10
10.6956
 20
4.3915
  0
VERTEX
  8
LAYER1
 62
     7
  6
CONTINUOUS
 10
10.6932
 20
4.3918
  0
VERTEX
  8
LAYER1
 62
     7
  6
CONTINUOUS
 10
10.6909
 20
4.3921
  0
VERTEX
  8
LAYER1
 62
     7
  6
CONTINUOUS
 10
10.6885
 20
4.3924
  0
VERTEX
  8
LAYER1
 62
     7
  6
CONTINUOUS
 10
10.6862
 20
4.3926
  0
VERTEX
  8
LAYER1
 62
     7
  6
CONTINUOUS
 10
10.6839
 20
4.3927
  0
VERTEX
  8
LAYER1
 62
     7
  6
CONTINUOUS
 10
10.6816
 20
4.3925
  0
VERTEX
  8
LAYER1
 62
     7
  6
CONTINUOUS
 10
10.6794
 20
4.3923
  0
VERTEX
  8
LAYER1
 62
     7
  6
CONTINUOUS
 10
10.6773
 20
4.3918
  0
VERTEX
  8
LAYER1
 62
     7
  6
CONTINUOUS
 10
10.6752
 20
4.3913
  0
VERTEX
  8
LAYER1
 62
     7
  6
CONTINUOUS
 10
10.6731
 20
4.3907
  0
VERTEX
  8
LAYER1
 62
     7
  6
CONTINUOUS
 10
10.6710
 20
4.3901
  0
VERTEX
  8
LAYER1
 62
     7
  6
CONTINUOUS
 10
10.6690
 20
4.3895
  0
VERTEX
  8
LAYER1
 62
     7
  6
CONTINUOUS
 10
10.6670
 20
4.3889
  0
VERTEX
  8
LAYER1
 62
     7
  6
CONTINUOUS
 10
10.6650
 20
4.3883
  0
VERTEX
  8
LAYER1
 62
     7
  6
CONTINUOUS
 10
10.6630
 20
4.3878
  0
VERTEX
  8
LAYER1
 62
     7
  6
CONTINUOUS
 10
10.6609
 20
4.3875
  0
VERTEX
  8
LAYER1
 62
     7
  6
CONTINUOUS
 10
10.6588
 20
4.3872
  0
VERTEX
  8
LAYER1
 62
     7
  6
CONTINUOUS
 10
10.6566
 20
4.3871
  0
VERTEX
  8
LAYER1
 62
     7
  6
CONTINUOUS
 10
10.6543
 20
4.3872
  0
VERTEX
  8
LAYER1
 62
     7
  6
CONTINUOUS
 10
10.6521
 20
4.3875
  0
VERTEX
  8
LAYER1
 62
     7
  6
CONTINUOUS
 10
10.6498
 20
4.3880
  0
VERTEX
  8
LAYER1
 62
     7
  6
CONTINUOUS
 10
10.6476
 20
4.3886
  0
VERTEX
  8
LAYER1
 62
     7
  6
CONTINUOUS
 10
10.6453
 20
4.3894
  0
VERTEX
  8
LAYER1
 62
     7
  6
CONTINUOUS
 10
10.6432
 20
4.3903
  0
VERTEX
  8
LAYER1
 62
     7
  6
CONTINUOUS
 10
10.6411
 20
4.3913
  0
VERTEX
  8
LAYER1
 62
     7
  6
CONTINUOUS
 10
10.6390
 20
4.3925
  0
VERTEX
  8
LAYER1
 62
     7
  6
CONTINUOUS
 10
10.6371
 20
4.3938
  0
VERTEX
  8
LAYER1
 62
     7
  6
CONTINUOUS
 10
10.6352
 20
4.3953
  0
VERTEX
  8
LAYER1
 62
     7
  6
CONTINUOUS
 10
10.6335
 20
4.3969
  0
VERTEX
  8
LAYER1
 62
     7
  6
CONTINUOUS
 10
10.6322
 20
4.3982
  0
VERTEX
  8
LAYER1
 62
     7
  6
CONTINUOUS
 10
10.6310
 20
4.3997
  0
VERTEX
  8
LAYER1
 62
     7
  6
CONTINUOUS
 10
10.6298
 20
4.4012
  0
VERTEX
  8
LAYER1
 62
     7
  6
CONTINUOUS
 10
10.6288
 20
4.4028
  0
VERTEX
  8
LAYER1
 62
     7
  6
CONTINUOUS
 10
10.6278
 20
4.4044
  0
VERTEX
  8
LAYER1
 62
     7
  6
CONTINUOUS
 10
10.6269
 20
4.4061
  0
VERTEX
  8
LAYER1
 62
     7
  6
CONTINUOUS
 10
10.6261
 20
4.4078
  0
VERTEX
  8
LAYER1
 62
     7
  6
CONTINUOUS
 10
10.6254
 20
4.4096
  0
VERTEX
  8
LAYER1
 62
     7
  6
CONTINUOUS
 10
10.6247
 20
4.4113
  0
VERTEX
  8
LAYER1
 62
     7
  6
CONTINUOUS
 10
10.6241
 20
4.4131
  0
VERTEX
  8
LAYER1
 62
     7
  6
CONTINUOUS
 10
10.6236
 20
4.4150
  0
VERTEX
  8
LAYER1
 62
     7
  6
CONTINUOUS
 10
10.6231
 20
4.4168
  0
VERTEX
  8
LAYER1
 62
     7
  6
CONTINUOUS
 10
10.6227
 20
4.4189
  0
VERTEX
  8
LAYER1
 62
     7
  6
CONTINUOUS
 10
10.6224
 20
4.4210
  0
VERTEX
  8
LAYER1
 62
     7
  6
CONTINUOUS
 10
10.6221
 20
4.4230
  0
VERTEX
  8
LAYER1
 62
     7
  6
CONTINUOUS
 10
10.6219
 20
4.4251
  0
VERTEX
  8
LAYER1
 62
     7
  6
CONTINUOUS
 10
10.6218
 20
4.4272
  0
VERTEX
  8
LAYER1
 62
     7
  6
CONTINUOUS
 10
10.6217
 20
4.4293
  0
VERTEX
  8
LAYER1
 62
     7
  6
CONTINUOUS
 10
10.6217
 20
4.4314
  0
VERTEX
  8
LAYER1
 62
     7
  6
CONTINUOUS
 10
10.6218
 20
4.4335
  0
VERTEX
  8
LAYER1
 62
     7
  6
CONTINUOUS
 10
10.6219
 20
4.4356
  0
VERTEX
  8
LAYER1
 62
     7
  6
CONTINUOUS
 10
10.6221
 20
4.4377
  0
VERTEX
  8
LAYER1
 62
     7
  6
CONTINUOUS
 10
10.6224
 20
4.4399
  0
VERTEX
  8
LAYER1
 62
     7
  6
CONTINUOUS
 10
10.6227
 20
4.4420
  0
VERTEX
  8
LAYER1
 62
     7
  6
CONTINUOUS
 10
10.6231
 20
4.4442
  0
VERTEX
  8
LAYER1
 62
     7
  6
CONTINUOUS
 10
10.6236
 20
4.4465
  0
VERTEX
  8
LAYER1
 62
     7
  6
CONTINUOUS
 10
10.6241
 20
4.4487
  0
VERTEX
  8
LAYER1
 62
     7
  6
CONTINUOUS
 10
10.6247
 20
4.4509
  0
VERTEX
  8
LAYER1
 62
     7
  6
CONTINUOUS
 10
10.6254
 20
4.4531
  0
VERTEX
  8
LAYER1
 62
     7
  6
CONTINUOUS
 10
10.6262
 20
4.4553
  0
VERTEX
  8
LAYER1
 62
     7
  6
CONTINUOUS
 10
10.6270
 20
4.4574
  0
VERTEX
  8
LAYER1
 62
     7
  6
CONTINUOUS
 10
10.6279
 20
4.4595
  0
VERTEX
  8
LAYER1
 62
     7
  6
CONTINUOUS
 10
10.6289
 20
4.4615
  0
VERTEX
  8
LAYER1
 62
     7
  6
CONTINUOUS
 10
10.6300
 20
4.4635
  0
VERTEX
  8
LAYER1
 62
     7
  6
CONTINUOUS
 10
10.6311
 20
4.4654
  0
VERTEX
  8
LAYER1
 62
     7
  6
CONTINUOUS
 10
10.6324
 20
4.4673
  0
SEQEND
  8
LAYER1
  0
POLYLINE
  8
LAYER1
 62
     7
 66
     1
  6
CONTINUOUS
  0
VERTEX
  8
LAYER1
 62
     7
  6
CONTINUOUS
 10
10.6324
 20
4.4673
  0
VERTEX
  8
LAYER1
 62
     7
  6
CONTINUOUS
 10
10.6316
 20
4.4681
  0
VERTEX
  8
LAYER1
 62
     7
  6
CONTINUOUS
 10
10.6309
 20
4.4689
  0
VERTEX
  8
LAYER1
 62
     7
  6
CONTINUOUS
 10
10.6301
 20
4.4698
  0
VERTEX
  8
LAYER1
 62
     7
  6
CONTINUOUS
 10
10.6294
 20
4.4706
  0
VERTEX
  8
LAYER1
 62
     7
  6
CONTINUOUS
 10
10.6286
 20
4.4714
  0
VERTEX
  8
LAYER1
 62
     7
  6
CONTINUOUS
 10
10.6278
 20
4.4722
  0
VERTEX
  8
LAYER1
 62
     7
  6
CONTINUOUS
 10
10.6269
 20
4.4731
  0
VERTEX
  8
LAYER1
 62
     7
  6
CONTINUOUS
 10
10.6261
 20
4.4739
  0
VERTEX
  8
LAYER1
 62
     7
  6
CONTINUOUS
 10
10.6252
 20
4.4747
  0
VERTEX
  8
LAYER1
 62
     7
  6
CONTINUOUS
 10
10.6242
 20
4.4755
  0
VERTEX
  8
LAYER1
 62
     7
  6
CONTINUOUS
 10
10.6232
 20
4.4763
  0
VERTEX
  8
LAYER1
 62
     7
  6
CONTINUOUS
 10
10.6222
 20
4.4772
  0
VERTEX
  8
LAYER1
 62
     7
  6
CONTINUOUS
 10
10.6210
 20
4.4780
  0
VERTEX
  8
LAYER1
 62
     7
  6
CONTINUOUS
 10
10.6199
 20
4.4788
  0
VERTEX
  8
LAYER1
 62
     7
  6
CONTINUOUS
 10
10.6188
 20
4.4796
  0
VERTEX
  8
LAYER1
 62
     7
  6
CONTINUOUS
 10
10.6176
 20
4.4804
  0
VERTEX
  8
LAYER1
 62
     7
  6
CONTINUOUS
 10
10.6165
 20
4.4812
  0
VERTEX
  8
LAYER1
 62
     7
  6
CONTINUOUS
 10
10.6155
 20
4.4820
  0
VERTEX
  8
LAYER1
 62
     7
  6
CONTINUOUS
 10
10.6145
 20
4.4828
  0
VERTEX
  8
LAYER1
 62
     7
  6
CONTINUOUS
 10
10.6137
 20
4.4837
  0
VERTEX
  8
LAYER1
 62
     7
  6
CONTINUOUS
 10
10.6130
 20
4.4845
  0
VERTEX
  8
LAYER1
 62
     7
  6
CONTINUOUS
 10
10.6125
 20
4.4853
  0
VERTEX
  8
LAYER1
 62
     7
  6
CONTINUOUS
 10
10.6121
 20
4.4862
  0
VERTEX
  8
LAYER1
 62
     7
  6
CONTINUOUS
 10
10.6119
 20
4.4871
  0
VERTEX
  8
LAYER1
 62
     7
  6
CONTINUOUS
 10
10.6120
 20
4.4879
  0
VERTEX
  8
LAYER1
 62
     7
  6
CONTINUOUS
 10
10.6123
 20
4.4888
  0
VERTEX
  8
LAYER1
 62
     7
  6
CONTINUOUS
 10
10.6127
 20
4.4897
  0
VERTEX
  8
LAYER1
 62
     7
  6
CONTINUOUS
 10
10.6133
 20
4.4906
  0
VERTEX
  8
LAYER1
 62
     7
  6
CONTINUOUS
 10
10.6141
 20
4.4914
  0
VERTEX
  8
LAYER1
 62
     7
  6
CONTINUOUS
 10
10.6150
 20
4.4923
  0
VERTEX
  8
LAYER1
 62
     7
  6
CONTINUOUS
 10
10.6160
 20
4.4932
  0
VERTEX
  8
LAYER1
 62
     7
  6
CONTINUOUS
 10
10.6171
 20
4.4940
  0
VERTEX
  8
LAYER1
 62
     7
  6
CONTINUOUS
 10
10.6182
 20
4.4949
  0
VERTEX
  8
LAYER1
 62
     7
  6
CONTINUOUS
 10
10.6194
 20
4.4957
  0
VERTEX
  8
LAYER1
 62
     7
  6
CONTINUOUS
 10
10.6206
 20
4.4965
  0
VERTEX
  8
LAYER1
 62
     7
  6
CONTINUOUS
 10
10.6218
 20
4.4973
  0
VERTEX
  8
LAYER1
 62
     7
  6
CONTINUOUS
 10
10.6242
 20
4.4987
  0
VERTEX
  8
LAYER1
 62
     7
  6
CONTINUOUS
 10
10.6265
 20
4.5001
  0
VERTEX
  8
LAYER1
 62
     7
  6
CONTINUOUS
 10
10.6286
 20
4.5015
  0
VERTEX
  8
LAYER1
 62
     7
  6
CONTINUOUS
 10
10.6307
 20
4.5029
  0
VERTEX
  8
LAYER1
 62
     7
  6
CONTINUOUS
 10
10.6326
 20
4.5042
  0
VERTEX
  8
LAYER1
 62
     7
  6
CONTINUOUS
 10
10.6344
 20
4.5057
  0
VERTEX
  8
LAYER1
 62
     7
  6
CONTINUOUS
 10
10.6361
 20
4.5072
  0
VERTEX
  8
LAYER1
 62
     7
  6
CONTINUOUS
 10
10.6376
 20
4.5089
  0
VERTEX
  8
LAYER1
 62
     7
  6
CONTINUOUS
 10
10.6389
 20
4.5108
  0
VERTEX
  8
LAYER1
 62
     7
  6
CONTINUOUS
 10
10.6400
 20
4.5128
  0
VERTEX
  8
LAYER1
 62
     7
  6
CONTINUOUS
 10
10.6409
 20
4.5151
  0
VERTEX
  8
LAYER1
 62
     7
  6
CONTINUOUS
 10
10.6416
 20
4.5177
  0
VERTEX
  8
LAYER1
 62
     7
  6
CONTINUOUS
 10
10.6418
 20
4.5187
  0
VERTEX
  8
LAYER1
 62
     7
  6
CONTINUOUS
 10
10.6420
 20
4.5197
  0
VERTEX
  8
LAYER1
 62
     7
  6
CONTINUOUS
 10
10.6421
 20
4.5207
  0
VERTEX
  8
LAYER1
 62
     7
  6
CONTINUOUS
 10
10.6422
 20
4.5217
  0
VERTEX
  8
LAYER1
 62
     7
  6
CONTINUOUS
 10
10.6423
 20
4.5227
  0
VERTEX
  8
LAYER1
 62
     7
  6
CONTINUOUS
 10
10.6423
 20
4.5237
  0
VERTEX
  8
LAYER1
 62
     7
  6
CONTINUOUS
 10
10.6423
 20
4.5246
  0
VERTEX
  8
LAYER1
 62
     7
  6
CONTINUOUS
 10
10.6422
 20
4.5254
  0
VERTEX
  8
LAYER1
 62
     7
  6
CONTINUOUS
 10
10.6421
 20
4.5262
  0
VERTEX
  8
LAYER1
 62
     7
  6
CONTINUOUS
 10
10.6419
 20
4.5268
  0
VERTEX
  8
LAYER1
 62
     7
  6
CONTINUOUS
 10
10.6417
 20
4.5274
  0
VERTEX
  8
LAYER1
 62
     7
  6
CONTINUOUS
 10
10.6414
 20
4.5278
  0
VERTEX
  8
LAYER1
 62
     7
  6
CONTINUOUS
 10
10.6408
 20
4.5282
  0
VERTEX
  8
LAYER1
 62
     7
  6
CONTINUOUS
 10
10.6400
 20
4.5282
  0
VERTEX
  8
LAYER1
 62
     7
  6
CONTINUOUS
 10
10.6391
 20
4.5278
  0
VERTEX
  8
LAYER1
 62
     7
  6
CONTINUOUS
 10
10.6380
 20
4.5271
  0
VERTEX
  8
LAYER1
 62
     7
  6
CONTINUOUS
 10
10.6368
 20
4.5262
  0
VERTEX
  8
LAYER1
 62
     7
  6
CONTINUOUS
 10
10.6355
 20
4.5251
  0
VERTEX
  8
LAYER1
 62
     7
  6
CONTINUOUS
 10
10.6341
 20
4.5239
  0
VERTEX
  8
LAYER1
 62
     7
  6
CONTINUOUS
 10
10.6327
 20
4.5225
  0
VERTEX
  8
LAYER1
 62
     7
  6
CONTINUOUS
 10
10.6312
 20
4.5212
  0
VERTEX
  8
LAYER1
 62
     7
  6
CONTINUOUS
 10
10.6296
 20
4.5198
  0
VERTEX
  8
LAYER1
 62
     7
  6
CONTINUOUS
 10
10.6281
 20
4.5186
  0
VERTEX
  8
LAYER1
 62
     7
  6
CONTINUOUS
 10
10.6265
 20
4.5175
  0
VERTEX
  8
LAYER1
 62
     7
  6
CONTINUOUS
 10
10.6248
 20
4.5164
  0
VERTEX
  8
LAYER1
 62
     7
  6
CONTINUOUS
 10
10.6230
 20
4.5156
  0
VERTEX
  8
LAYER1
 62
     7
  6
CONTINUOUS
 10
10.6213
 20
4.5149
  0
VERTEX
  8
LAYER1
 62
     7
  6
CONTINUOUS
 10
10.6195
 20
4.5144
  0
VERTEX
  8
LAYER1
 62
     7
  6
CONTINUOUS
 10
10.6179
 20
4.5140
  0
VERTEX
  8
LAYER1
 62
     7
  6
CONTINUOUS
 10
10.6162
 20
4.5137
  0
VERTEX
  8
LAYER1
 62
     7
  6
CONTINUOUS
 10
10.6145
 20
4.5135
  0
VERTEX
  8
LAYER1
 62
     7
  6
CONTINUOUS
 10
10.6129
 20
4.5133
  0
VERTEX
  8
LAYER1
 62
     7
  6
CONTINUOUS
 10
10.6112
 20
4.5131
  0
VERTEX
  8
LAYER1
 62
     7
  6
CONTINUOUS
 10
10.6096
 20
4.5128
  0
VERTEX
  8
LAYER1
 62
     7
  6
CONTINUOUS
 10
10.6081
 20
4.5125
  0
VERTEX
  8
LAYER1
 62
     7
  6
CONTINUOUS
 10
10.6065
 20
4.5121
  0
VERTEX
  8
LAYER1
 62
     7
  6
CONTINUOUS
 10
10.6040
 20
4.5112
  0
VERTEX
  8
LAYER1
 62
     7
  6
CONTINUOUS
 10
10.6015
 20
4.5100
  0
VERTEX
  8
LAYER1
 62
     7
  6
CONTINUOUS
 10
10.5991
 20
4.5086
  0
VERTEX
  8
LAYER1
 62
     7
  6
CONTINUOUS
 10
10.5966
 20
4.5071
  0
VERTEX
  8
LAYER1
 62
     7
  6
CONTINUOUS
 10
10.5942
 20
4.5054
  0
VERTEX
  8
LAYER1
 62
     7
  6
CONTINUOUS
 10
10.5918
 20
4.5038
  0
VERTEX
  8
LAYER1
 62
     7
  6
CONTINUOUS
 10
10.5894
 20
4.5021
  0
VERTEX
  8
LAYER1
 62
     7
  6
CONTINUOUS
 10
10.5869
 20
4.5006
  0
VERTEX
  8
LAYER1
 62
     7
  6
CONTINUOUS
 10
10.5844
 20
4.4992
  0
VERTEX
  8
LAYER1
 62
     7
  6
CONTINUOUS
 10
10.5818
 20
4.4980
  0
VERTEX
  8
LAYER1
 62
     7
  6
CONTINUOUS
 10
10.5792
 20
4.4971
  0
VERTEX
  8
LAYER1
 62
     7
  6
CONTINUOUS
 10
10.5766
 20
4.4965
  0
VERTEX
  8
LAYER1
 62
     7
  6
CONTINUOUS
 10
10.5753
 20
4.4964
  0
VERTEX
  8
LAYER1
 62
     7
  6
CONTINUOUS
 10
10.5740
 20
4.4964
  0
VERTEX
  8
LAYER1
 62
     7
  6
CONTINUOUS
 10
10.5727
 20
4.4964
  0
VERTEX
  8
LAYER1
 62
     7
  6
CONTINUOUS
 10
10.5714
 20
4.4966
  0
VERTEX
  8
LAYER1
 62
     7
  6
CONTINUOUS
 10
10.5700
 20
4.4968
  0
VERTEX
  8
LAYER1
 62
     7
  6
CONTINUOUS
 10
10.5688
 20
4.4972
  0
VERTEX
  8
LAYER1
 62
     7
  6
CONTINUOUS
 10
10.5675
 20
4.4976
  0
VERTEX
  8
LAYER1
 62
     7
  6
CONTINUOUS
 10
10.5662
 20
4.4981
  0
VERTEX
  8
LAYER1
 62
     7
  6
CONTINUOUS
 10
10.5649
 20
4.4988
  0
VERTEX
  8
LAYER1
 62
     7
  6
CONTINUOUS
 10
10.5637
 20
4.4995
  0
VERTEX
  8
LAYER1
 62
     7
  6
CONTINUOUS
 10
10.5625
 20
4.5004
  0
VERTEX
  8
LAYER1
 62
     7
  6
CONTINUOUS
 10
10.5614
 20
4.5013
  0
VERTEX
  8
LAYER1
 62
     7
  6
CONTINUOUS
 10
10.5604
 20
4.5023
  0
VERTEX
  8
LAYER1
 62
     7
  6
CONTINUOUS
 10
10.5594
 20
4.5033
  0
VERTEX
  8
LAYER1
 62
     7
  6
CONTINUOUS
 10
10.5585
 20
4.5043
  0
VERTEX
  8
LAYER1
 62
     7
  6
CONTINUOUS
 10
10.5576
 20
4.5054
  0
VERTEX
  8
LAYER1
 62
     7
  6
CONTINUOUS
 10
10.5567
 20
4.5064
  0
VERTEX
  8
LAYER1
 62
     7
  6
CONTINUOUS
 10
10.5559
 20
4.5074
  0
VERTEX
  8
LAYER1
 62
     7
  6
CONTINUOUS
 10
10.5550
 20
4.5083
  0
VERTEX
  8
LAYER1
 62
     7
  6
CONTINUOUS
 10
10.5542
 20
4.5092
  0
VERTEX
  8
LAYER1
 62
     7
  6
CONTINUOUS
 10
10.5534
 20
4.5099
  0
VERTEX
  8
LAYER1
 62
     7
  6
CONTINUOUS
 10
10.5527
 20
4.5105
  0
VERTEX
  8
LAYER1
 62
     7
  6
CONTINUOUS
 10
10.5519
 20
4.5110
  0
VERTEX
  8
LAYER1
 62
     7
  6
CONTINUOUS
 10
10.5512
 20
4.5112
  0
VERTEX
  8
LAYER1
 62
     7
  6
CONTINUOUS
 10
10.5501
 20
4.5112
  0
VERTEX
  8
LAYER1
 62
     7
  6
CONTINUOUS
 10
10.5490
 20
4.5108
  0
VERTEX
  8
LAYER1
 62
     7
  6
CONTINUOUS
 10
10.5479
 20
4.5100
  0
VERTEX
  8
LAYER1
 62
     7
  6
CONTINUOUS
 10
10.5468
 20
4.5089
  0
VERTEX
  8
LAYER1
 62
     7
  6
CONTINUOUS
 10
10.5457
 20
4.5076
  0
VERTEX
  8
LAYER1
 62
     7
  6
CONTINUOUS
 10
10.5445
 20
4.5060
  0
VERTEX
  8
LAYER1
 62
     7
  6
CONTINUOUS
 10
10.5433
 20
4.5044
  0
VERTEX
  8
LAYER1
 62
     7
  6
CONTINUOUS
 10
10.5421
 20
4.5026
  0
VERTEX
  8
LAYER1
 62
     7
  6
CONTINUOUS
 10
10.5408
 20
4.5008
  0
VERTEX
  8
LAYER1
 62
     7
  6
CONTINUOUS
 10
10.5394
 20
4.4991
  0
VERTEX
  8
LAYER1
 62
     7
  6
CONTINUOUS
 10
10.5379
 20
4.4974
  0
VERTEX
  8
LAYER1
 62
     7
  6
CONTINUOUS
 10
10.5363
 20
4.4959
  0
VERTEX
  8
LAYER1
 62
     7
  6
CONTINUOUS
 10
10.5349
 20
4.4947
  0
VERTEX
  8
LAYER1
 62
     7
  6
CONTINUOUS
 10
10.5334
 20
4.4937
  0
VERTEX
  8
LAYER1
 62
     7
  6
CONTINUOUS
 10
10.5320
 20
4.4928
  0
VERTEX
  8
LAYER1
 62
     7
  6
CONTINUOUS
 10
10.5305
 20
4.4919
  0
VERTEX
  8
LAYER1
 62
     7
  6
CONTINUOUS
 10
10.5290
 20
4.4911
  0
VERTEX
  8
LAYER1
 62
     7
  6
CONTINUOUS
 10
10.5276
 20
4.4904
  0
VERTEX
  8
LAYER1
 62
     7
  6
CONTINUOUS
 10
10.5262
 20
4.4896
  0
VERTEX
  8
LAYER1
 62
     7
  6
CONTINUOUS
 10
10.5249
 20
4.4889
  0
VERTEX
  8
LAYER1
 62
     7
  6
CONTINUOUS
 10
10.5238
 20
4.4882
  0
VERTEX
  8
LAYER1
 62
     7
  6
CONTINUOUS
 10
10.5228
 20
4.4874
  0
VERTEX
  8
LAYER1
 62
     7
  6
CONTINUOUS
 10
10.5220
 20
4.4865
  0
VERTEX
  8
LAYER1
 62
     7
  6
CONTINUOUS
 10
10.5214
 20
4.4856
  0
VERTEX
  8
LAYER1
 62
     7
  6
CONTINUOUS
 10
10.5210
 20
4.4844
  0
VERTEX
  8
LAYER1
 62
     7
  6
CONTINUOUS
 10
10.5208
 20
4.4830
  0
VERTEX
  8
LAYER1
 62
     7
  6
CONTINUOUS
 10
10.5209
 20
4.4816
  0
VERTEX
  8
LAYER1
 62
     7
  6
CONTINUOUS
 10
10.5211
 20
4.4801
  0
VERTEX
  8
LAYER1
 62
     7
  6
CONTINUOUS
 10
10.5216
 20
4.4784
  0
VERTEX
  8
LAYER1
 62
     7
  6
CONTINUOUS
 10
10.5221
 20
4.4767
  0
VERTEX
  8
LAYER1
 62
     7
  6
CONTINUOUS
 10
10.5228
 20
4.4750
  0
VERTEX
  8
LAYER1
 62
     7
  6
CONTINUOUS
 10
10.5236
 20
4.4731
  0
VERTEX
  8
LAYER1
 62
     7
  6
CONTINUOUS
 10
10.5244
 20
4.4713
  0
VERTEX
  8
LAYER1
 62
     7
  6
CONTINUOUS
 10
10.5252
 20
4.4694
  0
VERTEX
  8
LAYER1
 62
     7
  6
CONTINUOUS
 10
10.5260
 20
4.4675
  0
VERTEX
  8
LAYER1
 62
     7
  6
CONTINUOUS
 10
10.5268
 20
4.4655
  0
VERTEX
  8
LAYER1
 62
     7
  6
CONTINUOUS
 10
10.5278
 20
4.4626
  0
VERTEX
  8
LAYER1
 62
     7
  6
CONTINUOUS
 10
10.5287
 20
4.4597
  0
VERTEX
  8
LAYER1
 62
     7
  6
CONTINUOUS
 10
10.5294
 20
4.4568
  0
VERTEX
  8
LAYER1
 62
     7
  6
CONTINUOUS
 10
10.5301
 20
4.4540
  0
VERTEX
  8
LAYER1
 62
     7
  6
CONTINUOUS
 10
10.5308
 20
4.4513
  0
VERTEX
  8
LAYER1
 62
     7
  6
CONTINUOUS
 10
10.5315
 20
4.4487
  0
VERTEX
  8
LAYER1
 62
     7
  6
CONTINUOUS
 10
10.5321
 20
4.4461
  0
VERTEX
  8
LAYER1
 62
     7
  6
CONTINUOUS
 10
10.5329
 20
4.4437
  0
VERTEX
  8
LAYER1
 62
     7
  6
CONTINUOUS
 10
10.5338
 20
4.4414
  0
VERTEX
  8
LAYER1
 62
     7
  6
CONTINUOUS
 10
10.5348
 20
4.4393
  0
VERTEX
  8
LAYER1
 62
     7
  6
CONTINUOUS
 10
10.5359
 20
4.4373
  0
VERTEX
  8
LAYER1
 62
     7
  6
CONTINUOUS
 10
10.5373
 20
4.4355
  0
VERTEX
  8
LAYER1
 62
     7
  6
CONTINUOUS
 10
10.5394
 20
4.4335
  0
VERTEX
  8
LAYER1
 62
     7
  6
CONTINUOUS
 10
10.5419
 20
4.4318
  0
VERTEX
  8
LAYER1
 62
     7
  6
CONTINUOUS
 10
10.5446
 20
4.4302
  0
VERTEX
  8
LAYER1
 62
     7
  6
CONTINUOUS
 10
10.5476
 20
4.4288
  0
VERTEX
  8
LAYER1
 62
     7
  6
CONTINUOUS
 10
10.5507
 20
4.4275
  0
VERTEX
  8
LAYER1
 62
     7
  6
CONTINUOUS
 10
10.5540
 20
4.4262
  0
VERTEX
  8
LAYER1
 62
     7
  6
CONTINUOUS
 10
10.5573
 20
4.4249
  0
VERTEX
  8
LAYER1
 62
     7
  6
CONTINUOUS
 10
10.5606
 20
4.4235
  0
VERTEX
  8
LAYER1
 62
     7
  6
CONTINUOUS
 10
10.5639
 20
4.4220
  0
VERTEX
  8
LAYER1
 62
     7
  6
CONTINUOUS
 10
10.5671
 20
4.4203
  0
VERTEX
  8
LAYER1
 62
     7
  6
CONTINUOUS
 10
10.5701
 20
4.4183
  0
VERTEX
  8
LAYER1
 62
     7
  6
CONTINUOUS
 10
10.5728
 20
4.4160
  0
VERTEX
  8
LAYER1
 62
     7
  6
CONTINUOUS
 10
10.5742
 20
4.4146
  0
VERTEX
  8
LAYER1
 62
     7
  6
CONTINUOUS
 10
10.5755
 20
4.4132
  0
VERTEX
  8
LAYER1
 62
     7
  6
CONTINUOUS
 10
10.5768
 20
4.4118
  0
VERTEX
  8
LAYER1
 62
     7
  6
CONTINUOUS
 10
10.5780
 20
4.4103
  0
VERTEX
  8
LAYER1
 62
     7
  6
CONTINUOUS
 10
10.5792
 20
4.4088
  0
VERTEX
  8
LAYER1
 62
     7
  6
CONTINUOUS
 10
10.5804
 20
4.4074
  0
VERTEX
  8
LAYER1
 62
     7
  6
CONTINUOUS
 10
10.5816
 20
4.4060
  0
VERTEX
  8
LAYER1
 62
     7
  6
CONTINUOUS
 10
10.5828
 20
4.4047
  0
VERTEX
  8
LAYER1
 62
     7
  6
CONTINUOUS
 10
10.5840
 20
4.4036
  0
VERTEX
  8
LAYER1
 62
     7
  6
CONTINUOUS
 10
10.5854
 20
4.4026
  0
VERTEX
  8
LAYER1
 62
     7
  6
CONTINUOUS
 10
10.5867
 20
4.4018
  0
VERTEX
  8
LAYER1
 62
     7
  6
CONTINUOUS
 10
10.5882
 20
4.4011
  0
VERTEX
  8
LAYER1
 62
     7
  6
CONTINUOUS
 10
10.5900
 20
4.4007
  0
VERTEX
  8
LAYER1
 62
     7
  6
CONTINUOUS
 10
10.5919
 20
4.4005
  0
VERTEX
  8
LAYER1
 62
     7
  6
CONTINUOUS
 10
10.5940
 20
4.4006
  0
VERTEX
  8
LAYER1
 62
     7
  6
CONTINUOUS
 10
10.5961
 20
4.4008
  0
VERTEX
  8
LAYER1
 62
     7
  6
CONTINUOUS
 10
10.5982
 20
4.4011
  0
VERTEX
  8
LAYER1
 62
     7
  6
CONTINUOUS
 10
10.6004
 20
4.4014
  0
VERTEX
  8
LAYER1
 62
     7
  6
CONTINUOUS
 10
10.6026
 20
4.4018
  0
VERTEX
  8
LAYER1
 62
     7
  6
CONTINUOUS
 10
10.6049
 20
4.4021
  0
VERTEX
  8
LAYER1
 62
     7
  6
CONTINUOUS
 10
10.6070
 20
4.4022
  0
VERTEX
  8
LAYER1
 62
     7
  6
CONTINUOUS
 10
10.6092
 20
4.4023
  0
VERTEX
  8
LAYER1
 62
     7
  6
CONTINUOUS
 10
10.6113
 20
4.4020
  0
VERTEX
  8
LAYER1
 62
     7
  6
CONTINUOUS
 10
10.6133
 20
4.4016
  0
VERTEX
  8
LAYER1
 62
     7
  6
CONTINUOUS
 10
10.6142
 20
4.4012
  0
VERTEX
  8
LAYER1
 62
     7
  6
CONTINUOUS
 10
10.6151
 20
4.4009
  0
VERTEX
  8
LAYER1
 62
     7
  6
CONTINUOUS
 10
10.6159
 20
4.4005
  0
VERTEX
  8
LAYER1
 62
     7
  6
CONTINUOUS
 10
10.6168
 20
4.4000
  0
VERTEX
  8
LAYER1
 62
     7
  6
CONTINUOUS
 10
10.6176
 20
4.3995
  0
VERTEX
  8
LAYER1
 62
     7
  6
CONTINUOUS
 10
10.6184
 20
4.3991
  0
VERTEX
  8
LAYER1
 62
     7
  6
CONTINUOUS
 10
10.6192
 20
4.3986
  0
VERTEX
  8
LAYER1
 62
     7
  6
CONTINUOUS
 10
10.6201
 20
4.3981
  0
VERTEX
  8
LAYER1
 62
     7
  6
CONTINUOUS
 10
10.6209
 20
4.3977
  0
VERTEX
  8
LAYER1
 62
     7
  6
CONTINUOUS
 10
10.6217
 20
4.3973
  0
VERTEX
  8
LAYER1
 62
     7
  6
CONTINUOUS
 10
10.6226
 20
4.3970
  0
VERTEX
  8
LAYER1
 62
     7
  6
CONTINUOUS
 10
10.6235
 20
4.3967
  0
VERTEX
  8
LAYER1
 62
     7
  6
CONTINUOUS
 10
10.6243
 20
4.3965
  0
VERTEX
  8
LAYER1
 62
     7
  6
CONTINUOUS
 10
10.6251
 20
4.3964
  0
VERTEX
  8
LAYER1
 62
     7
  6
CONTINUOUS
 10
10.6259
 20
4.3963
  0
VERTEX
  8
LAYER1
 62
     7
  6
CONTINUOUS
 10
10.6267
 20
4.3962
  0
VERTEX
  8
LAYER1
 62
     7
  6
CONTINUOUS
 10
10.6275
 20
4.3962
  0
VERTEX
  8
LAYER1
 62
     7
  6
CONTINUOUS
 10
10.6284
 20
4.3962
  0
VERTEX
  8
LAYER1
 62
     7
  6
CONTINUOUS
 10
10.6292
 20
4.3963
  0
VERTEX
  8
LAYER1
 62
     7
  6
CONTINUOUS
 10
10.6301
 20
4.3964
  0
VERTEX
  8
LAYER1
 62
     7
  6
CONTINUOUS
 10
10.6309
 20
4.3965
  0
VERTEX
  8
LAYER1
 62
     7
  6
CONTINUOUS
 10
10.6318
 20
4.3966
  0
VERTEX
  8
LAYER1
 62
     7
  6
CONTINUOUS
 10
10.6327
 20
4.3967
  0
VERTEX
  8
LAYER1
 62
     7
  6
CONTINUOUS
 10
10.6335
 20
4.3969
  0
SEQEND
  8
LAYER1
  0
CIRCLE
  8
LAYER1
 62
     7
  6
CONTINUOUS
 10
10.8341
 20
4.4379
 40
0.0104
  0
CIRCLE
  8
LAYER1
 62
     7
  6
CONTINUOUS
 10
10.8870
 20
4.4337
 40
0.0107
  0
CIRCLE
  8
LAYER1
 62
     7
  6
CONTINUOUS
 10
10.9481
 20
4.5378
 40
0.0159
  0
ARC
  8
LAYER1
 62
     7
  6
CONTINUOUS
 10
10.0532
 20
3.8944
 40
0.0159
 50
-130.9611
 51
-70.6459
  0
ARC
  8
LAYER1
 62
     7
  6
CONTINUOUS
 10
10.0482
 20
4.0477
 40
0.0128
 50
-114.8861
 51
-77.7212
  0
POLYLINE
  8
LAYER1
 62
     7
 66
     1
  6
CONTINUOUS
  0
VERTEX
  8
LAYER1
 62
     7
  6
CONTINUOUS
 10
10.0872
 20
3.6585
  0
VERTEX
  8
LAYER1
 62
     7
  6
CONTINUOUS
 10
10.0877
 20
3.6569
  0
VERTEX
  8
LAYER1
 62
     7
  6
CONTINUOUS
 10
10.0883
 20
3.6553
  0
VERTEX
  8
LAYER1
 62
     7
  6
CONTINUOUS
 10
10.0888
 20
3.6537
  0
VERTEX
  8
LAYER1
 62
     7
  6
CONTINUOUS
 10
10.0893
 20
3.6520
  0
VERTEX
  8
LAYER1
 62
     7
  6
CONTINUOUS
 10
10.0898
 20
3.6504
  0
VERTEX
  8
LAYER1
 62
     7
  6
CONTINUOUS
 10
10.0903
 20
3.6487
  0
VERTEX
  8
LAYER1
 62
     7
  6
CONTINUOUS
 10
10.0907
 20
3.6471
  0
VERTEX
  8
LAYER1
 62
     7
  6
CONTINUOUS
 10
10.0911
 20
3.6454
  0
VERTEX
  8
LAYER1
 62
     7
  6
CONTINUOUS
 10
10.0916
 20
3.6437
  0
VERTEX
  8
LAYER1
 62
     7
  6
CONTINUOUS
 10
10.0919
 20
3.6420
  0
VERTEX
  8
LAYER1
 62
     7
  6
CONTINUOUS
 10
10.0923
 20
3.6403
  0
VERTEX
  8
LAYER1
 62
     7
  6
CONTINUOUS
 10
10.0926
 20
3.6385
  0
VERTEX
  8
LAYER1
 62
     7
  6
CONTINUOUS
 10
10.0927
 20
3.6376
  0
VERTEX
  8
LAYER1
 62
     7
  6
CONTINUOUS
 10
10.0928
 20
3.6368
  0
VERTEX
  8
LAYER1
 62
     7
  6
CONTINUOUS
 10
10.0930
 20
3.6359
  0
VERTEX
  8
LAYER1
 62
     7
  6
CONTINUOUS
 10
10.0930
 20
3.6350
  0
VERTEX
  8
LAYER1
 62
     7
  6
CONTINUOUS
 10
10.0931
 20
3.6342
  0
VERTEX
  8
LAYER1
 62
     7
  6
CONTINUOUS
 10
10.0932
 20
3.6333
  0
VERTEX
  8
LAYER1
 62
     7
  6
CONTINUOUS
 10
10.0932
 20
3.6325
  0
VERTEX
  8
LAYER1
 62
     7
  6
CONTINUOUS
 10
10.0932
 20
3.6316
  0
VERTEX
  8
LAYER1
 62
     7
  6
CONTINUOUS
 10
10.0931
 20
3.6308
  0
VERTEX
  8
LAYER1
 62
     7
  6
CONTINUOUS
 10
10.0930
 20
3.6300
  0
VERTEX
  8
LAYER1
 62
     7
  6
CONTINUOUS
 10
10.0929
 20
3.6292
  0
VERTEX
  8
LAYER1
 62
     7
  6
CONTINUOUS
 10
10.0927
 20
3.6284
  0
VERTEX
  8
LAYER1
 62
     7
  6
CONTINUOUS
 10
10.0919
 20
3.6261
  0
VERTEX
  8
LAYER1
 62
     7
  6
CONTINUOUS
 10
10.0907
 20
3.6240
  0
VERTEX
  8
LAYER1
 62
     7
  6
CONTINUOUS
 10
10.0891
 20
3.6221
  0
VERTEX
  8
LAYER1
 62
     7
  6
CONTINUOUS
 10
10.0872
 20
3.6204
  0
VERTEX
  8
LAYER1
 62
     7
  6
CONTINUOUS
 10
10.0851
 20
3.6187
  0
VERTEX
  8
LAYER1
 62
     7
  6
CONTINUOUS
 10
10.0828
 20
3.6172
  0
VERTEX
  8
LAYER1
 62
     7
  6
CONTINUOUS
 10
10.0803
 20
3.6157
  0
VERTEX
  8
LAYER1
 62
     7
  6
CONTINUOUS
 10
10.0778
 20
3.6142
  0
VERTEX
  8
LAYER1
 62
     7
  6
CONTINUOUS
 10
10.0752
 20
3.6127
  0
VERTEX
  8
LAYER1
 62
     7
  6
CONTINUOUS
 10
10.0727
 20
3.6112
  0
VERTEX
  8
LAYER1
 62
     7
  6
CONTINUOUS
 10
10.0703
 20
3.6096
  0
VERTEX
  8
LAYER1
 62
     7
  6
CONTINUOUS
 10
10.0679
 20
3.6079
  0
VERTEX
  8
LAYER1
 62
     7
  6
CONTINUOUS
 10
10.0660
 20
3.6063
  0
VERTEX
  8
LAYER1
 62
     7
  6
CONTINUOUS
 10
10.0643
 20
3.6046
  0
VERTEX
  8
LAYER1
 62
     7
  6
CONTINUOUS
 10
10.0626
 20
3.6029
  0
VERTEX
  8
LAYER1
 62
     7
  6
CONTINUOUS
 10
10.0610
 20
3.6011
  0
VERTEX
  8
LAYER1
 62
     7
  6
CONTINUOUS
 10
10.0594
 20
3.5992
  0
VERTEX
  8
LAYER1
 62
     7
  6
CONTINUOUS
 10
10.0579
 20
3.5974
  0
VERTEX
  8
LAYER1
 62
     7
  6
CONTINUOUS
 10
10.0564
 20
3.5956
  0
VERTEX
  8
LAYER1
 62
     7
  6
CONTINUOUS
 10
10.0549
 20
3.5938
  0
VERTEX
  8
LAYER1
 62
     7
  6
CONTINUOUS
 10
10.0533
 20
3.5921
  0
VERTEX
  8
LAYER1
 62
     7
  6
CONTINUOUS
 10
10.0517
 20
3.5904
  0
VERTEX
  8
LAYER1
 62
     7
  6
CONTINUOUS
 10
10.0500
 20
3.5889
  0
VERTEX
  8
LAYER1
 62
     7
  6
CONTINUOUS
 10
10.0481
 20
3.5875
  0
VERTEX
  8
LAYER1
 62
     7
  6
CONTINUOUS
 10
10.0477
 20
3.5872
  0
VERTEX
  8
LAYER1
 62
     7
  6
CONTINUOUS
 10
10.0473
 20
3.5869
  0
VERTEX
  8
LAYER1
 62
     7
  6
CONTINUOUS
 10
10.0469
 20
3.5866
  0
VERTEX
  8
LAYER1
 62
     7
  6
CONTINUOUS
 10
10.0464
 20
3.5863
  0
VERTEX
  8
LAYER1
 62
     7
  6
CONTINUOUS
 10
10.0460
 20
3.5860
  0
VERTEX
  8
LAYER1
 62
     7
  6
CONTINUOUS
 10
10.0455
 20
3.5857
  0
VERTEX
  8
LAYER1
 62
     7
  6
CONTINUOUS
 10
10.0451
 20
3.5855
  0
VERTEX
  8
LAYER1
 62
     7
  6
CONTINUOUS
 10
10.0446
 20
3.5852
  0
VERTEX
  8
LAYER1
 62
     7
  6
CONTINUOUS
 10
10.0441
 20
3.5849
  0
VERTEX
  8
LAYER1
 62
     7
  6
CONTINUOUS
 10
10.0437
 20
3.5847
  0
VERTEX
  8
LAYER1
 62
     7
  6
CONTINUOUS
 10
10.0432
 20
3.5844
  0
VERTEX
  8
LAYER1
 62
     7
  6
CONTINUOUS
 10
10.0428
 20
3.5841
  0
SEQEND
  8
LAYER1
  0
POLYLINE
  8
LAYER1
 62
     7
 66
     1
  6
CONTINUOUS
  0
VERTEX
  8
LAYER1
 62
     7
  6
CONTINUOUS
 10
10.0428
 20
3.5387
  0
VERTEX
  8
LAYER1
 62
     7
  6
CONTINUOUS
 10
10.0428
 20
3.5387
  0
VERTEX
  8
LAYER1
 62
     7
  6
CONTINUOUS
 10
10.0428
 20
3.5387
  0
VERTEX
  8
LAYER1
 62
     7
  6
CONTINUOUS
 10
10.0428
 20
3.5387
  0
VERTEX
  8
LAYER1
 62
     7
  6
CONTINUOUS
 10
10.0428
 20
3.5387
  0
VERTEX
  8
LAYER1
 62
     7
  6
CONTINUOUS
 10
10.0428
 20
3.5387
  0
VERTEX
  8
LAYER1
 62
     7
  6
CONTINUOUS
 10
10.0428
 20
3.5387
  0
VERTEX
  8
LAYER1
 62
     7
  6
CONTINUOUS
 10
10.0428
 20
3.5387
  0
VERTEX
  8
LAYER1
 62
     7
  6
CONTINUOUS
 10
10.0428
 20
3.5387
  0
VERTEX
  8
LAYER1
 62
     7
  6
CONTINUOUS
 10
10.0428
 20
3.5387
  0
VERTEX
  8
LAYER1
 62
     7
  6
CONTINUOUS
 10
10.0428
 20
3.5387
  0
VERTEX
  8
LAYER1
 62
     7
  6
CONTINUOUS
 10
10.0428
 20
3.5387
  0
VERTEX
  8
LAYER1
 62
     7
  6
CONTINUOUS
 10
10.0428
 20
3.5387
  0
VERTEX
  8
LAYER1
 62
     7
  6
CONTINUOUS
 10
10.0428
 20
3.5387
  0
VERTEX
  8
LAYER1
 62
     7
  6
CONTINUOUS
 10
10.0428
 20
3.5387
  0
VERTEX
  8
LAYER1
 62
     7
  6
CONTINUOUS
 10
10.0428
 20
3.5387
  0
VERTEX
  8
LAYER1
 62
     7
  6
CONTINUOUS
 10
10.0428
 20
3.5387
  0
VERTEX
  8
LAYER1
 62
     7
  6
CONTINUOUS
 10
10.0428
 20
3.5387
  0
VERTEX
  8
LAYER1
 62
     7
  6
CONTINUOUS
 10
10.0428
 20
3.5387
  0
VERTEX
  8
LAYER1
 62
     7
  6
CONTINUOUS
 10
10.0428
 20
3.5387
  0
VERTEX
  8
LAYER1
 62
     7
  6
CONTINUOUS
 10
10.0428
 20
3.5387
  0
VERTEX
  8
LAYER1
 62
     7
  6
CONTINUOUS
 10
10.0428
 20
3.5387
  0
VERTEX
  8
LAYER1
 62
     7
  6
CONTINUOUS
 10
10.0428
 20
3.5387
  0
VERTEX
  8
LAYER1
 62
     7
  6
CONTINUOUS
 10
10.0428
 20
3.5387
  0
VERTEX
  8
LAYER1
 62
     7
  6
CONTINUOUS
 10
10.0428
 20
3.5387
  0
SEQEND
  8
LAYER1
  0
POLYLINE
  8
LAYER1
 62
     7
 66
     1
  6
CONTINUOUS
  0
VERTEX
  8
LAYER1
 62
     7
  6
CONTINUOUS
 10
10.0428
 20
3.5387
  0
VERTEX
  8
LAYER1
 62
     7
  6
CONTINUOUS
 10
10.0432
 20
3.5395
  0
VERTEX
  8
LAYER1
 62
     7
  6
CONTINUOUS
 10
10.0437
 20
3.5402
  0
VERTEX
  8
LAYER1
 62
     7
  6
CONTINUOUS
 10
10.0442
 20
3.5410
  0
VERTEX
  8
LAYER1
 62
     7
  6
CONTINUOUS
 10
10.0447
 20
3.5417
  0
VERTEX
  8
LAYER1
 62
     7
  6
CONTINUOUS
 10
10.0451
 20
3.5424
  0
VERTEX
  8
LAYER1
 62
     7
  6
CONTINUOUS
 10
10.0456
 20
3.5431
  0
VERTEX
  8
LAYER1
 62
     7
  6
CONTINUOUS
 10
10.0461
 20
3.5439
  0
VERTEX
  8
LAYER1
 62
     7
  6
CONTINUOUS
 10
10.0466
 20
3.5446
  0
VERTEX
  8
LAYER1
 62
     7
  6
CONTINUOUS
 10
10.0472
 20
3.5452
  0
VERTEX
  8
LAYER1
 62
     7
  6
CONTINUOUS
 10
10.0477
 20
3.5459
  0
VERTEX
  8
LAYER1
 62
     7
  6
CONTINUOUS
 10
10.0482
 20
3.5466
  0
VERTEX
  8
LAYER1
 62
     7
  6
CONTINUOUS
 10
10.0488
 20
3.5472
  0
VERTEX
  8
LAYER1
 62
     7
  6
CONTINUOUS
 10
10.0514
 20
3.5498
  0
VERTEX
  8
LAYER1
 62
     7
  6
CONTINUOUS
 10
10.0542
 20
3.5521
  0
VERTEX
  8
LAYER1
 62
     7
  6
CONTINUOUS
 10
10.0573
 20
3.5541
  0
VERTEX
  8
LAYER1
 62
     7
  6
CONTINUOUS
 10
10.0605
 20
3.5559
  0
VERTEX
  8
LAYER1
 62
     7
  6
CONTINUOUS
 10
10.0639
 20
3.5576
  0
VERTEX
  8
LAYER1
 62
     7
  6
CONTINUOUS
 10
10.0674
 20
3.5591
  0
VERTEX
  8
LAYER1
 62
     7
  6
CONTINUOUS
 10
10.0710
 20
3.5605
  0
VERTEX
  8
LAYER1
 62
     7
  6
CONTINUOUS
 10
10.0746
 20
3.5619
  0
VERTEX
  8
LAYER1
 62
     7
  6
CONTINUOUS
 10
10.0782
 20
3.5633
  0
VERTEX
  8
LAYER1
 62
     7
  6
CONTINUOUS
 10
10.0818
 20
3.5648
  0
VERTEX
  8
LAYER1
 62
     7
  6
CONTINUOUS
 10
10.0853
 20
3.5663
  0
VERTEX
  8
LAYER1
 62
     7
  6
CONTINUOUS
 10
10.0887
 20
3.5680
  0
VERTEX
  8
LAYER1
 62
     7
  6
CONTINUOUS
 10
10.0923
 20
3.5701
  0
VERTEX
  8
LAYER1
 62
     7
  6
CONTINUOUS
 10
10.0957
 20
3.5723
  0
VERTEX
  8
LAYER1
 62
     7
  6
CONTINUOUS
 10
10.0990
 20
3.5748
  0
VERTEX
  8
LAYER1
 62
     7
  6
CONTINUOUS
 10
10.1021
 20
3.5774
  0
VERTEX
  8
LAYER1
 62
     7
  6
CONTINUOUS
 10
10.1051
 20
3.5802
  0
VERTEX
  8
LAYER1
 62
     7
  6
CONTINUOUS
 10
10.1079
 20
3.5832
  0
VERTEX
  8
LAYER1
 62
     7
  6
CONTINUOUS
 10
10.1107
 20
3.5863
  0
VERTEX
  8
LAYER1
 62
     7
  6
CONTINUOUS
 10
10.1134
 20
3.5896
  0
VERTEX
  8
LAYER1
 62
     7
  6
CONTINUOUS
 10
10.1159
 20
3.5930
  0
VERTEX
  8
LAYER1
 62
     7
  6
CONTINUOUS
 10
10.1185
 20
3.5965
  0
VERTEX
  8
LAYER1
 62
     7
  6
CONTINUOUS
 10
10.1209
 20
3.6001
  0
VERTEX
  8
LAYER1
 62
     7
  6
CONTINUOUS
 10
10.1233
 20
3.6038
  0
VERTEX
  8
LAYER1
 62
     7
  6
CONTINUOUS
 10
10.1246
 20
3.6058
  0
VERTEX
  8
LAYER1
 62
     7
  6
CONTINUOUS
 10
10.1259
 20
3.6079
  0
VERTEX
  8
LAYER1
 62
     7
  6
CONTINUOUS
 10
10.1271
 20
3.6100
  0
VERTEX
  8
LAYER1
 62
     7
  6
CONTINUOUS
 10
10.1283
 20
3.6121
  0
VERTEX
  8
LAYER1
 62
     7
  6
CONTINUOUS
 10
10.1293
 20
3.6142
  0
VERTEX
  8
LAYER1
 62
     7
  6
CONTINUOUS
 10
10.1303
 20
3.6163
  0
VERTEX
  8
LAYER1
 62
     7
  6
CONTINUOUS
 10
10.1312
 20
3.6185
  0
VERTEX
  8
LAYER1
 62
     7
  6
CONTINUOUS
 10
10.1319
 20
3.6206
  0
VERTEX
  8
LAYER1
 62
     7
  6
CONTINUOUS
 10
10.1324
 20
3.6227
  0
VERTEX
  8
LAYER1
 62
     7
  6
CONTINUOUS
 10
10.1328
 20
3.6248
  0
VERTEX
  8
LAYER1
 62
     7
  6
CONTINUOUS
 10
10.1330
 20
3.6270
  0
VERTEX
  8
LAYER1
 62
     7
  6
CONTINUOUS
 10
10.1330
 20
3.6291
  0
VERTEX
  8
LAYER1
 62
     7
  6
CONTINUOUS
 10
10.1327
 20
3.6312
  0
VERTEX
  8
LAYER1
 62
     7
  6
CONTINUOUS
 10
10.1323
 20
3.6333
  0
VERTEX
  8
LAYER1
 62
     7
  6
CONTINUOUS
 10
10.1317
 20
3.6354
  0
VERTEX
  8
LAYER1
 62
     7
  6
CONTINUOUS
 10
10.1309
 20
3.6374
  0
VERTEX
  8
LAYER1
 62
     7
  6
CONTINUOUS
 10
10.1300
 20
3.6395
  0
VERTEX
  8
LAYER1
 62
     7
  6
CONTINUOUS
 10
10.1290
 20
3.6416
  0
VERTEX
  8
LAYER1
 62
     7
  6
CONTINUOUS
 10
10.1279
 20
3.6437
  0
VERTEX
  8
LAYER1
 62
     7
  6
CONTINUOUS
 10
10.1268
 20
3.6457
  0
VERTEX
  8
LAYER1
 62
     7
  6
CONTINUOUS
 10
10.1257
 20
3.6478
  0
VERTEX
  8
LAYER1
 62
     7
  6
CONTINUOUS
 10
10.1246
 20
3.6499
  0
VERTEX
  8
LAYER1
 62
     7
  6
CONTINUOUS
 10
10.1235
 20
3.6520
  0
VERTEX
  8
LAYER1
 62
     7
  6
CONTINUOUS
 10
10.1225
 20
3.6541
  0
VERTEX
  8
LAYER1
 62
     7
  6
CONTINUOUS
 10
10.1220
 20
3.6553
  0
VERTEX
  8
LAYER1
 62
     7
  6
CONTINUOUS
 10
10.1214
 20
3.6565
  0
VERTEX
  8
LAYER1
 62
     7
  6
CONTINUOUS
 10
10.1209
 20
3.6578
  0
VERTEX
  8
LAYER1
 62
     7
  6
CONTINUOUS
 10
10.1205
 20
3.6590
  0
VERTEX
  8
LAYER1
 62
     7
  6
CONTINUOUS
 10
10.1200
 20
3.6603
  0
VERTEX
  8
LAYER1
 62
     7
  6
CONTINUOUS
 10
10.1196
 20
3.6615
  0
VERTEX
  8
LAYER1
 62
     7
  6
CONTINUOUS
 10
10.1192
 20
3.6628
  0
VERTEX
  8
LAYER1
 62
     7
  6
CONTINUOUS
 10
10.1188
 20
3.6640
  0
VERTEX
  8
LAYER1
 62
     7
  6
CONTINUOUS
 10
10.1184
 20
3.6653
  0
VERTEX
  8
LAYER1
 62
     7
  6
CONTINUOUS
 10
10.1180
 20
3.6666
  0
VERTEX
  8
LAYER1
 62
     7
  6
CONTINUOUS
 10
10.1176
 20
3.6678
  0
VERTEX
  8
LAYER1
 62
     7
  6
CONTINUOUS
 10
10.1172
 20
3.6691
  0
SEQEND
  8
LAYER1
  0
ARC
  8
LAYER1
 62
     7
  6
CONTINUOUS
 10
10.0532
 20
3.8944
 40
0.0159
 50
-70.6447
 51
130.9634
  0
ARC
  8
LAYER1
 62
     7
  6
CONTINUOUS
 10
10.0482
 20
4.0477
 40
0.0128
 50
-77.7207
 51
114.8870
  0
POLYLINE
  8
LAYER1
 62
     7
 66
     1
  6
CONTINUOUS
  0
VERTEX
  8
LAYER1
 62
     7
  6
CONTINUOUS
 10
10.0408
 20
3.5351
  0
VERTEX
  8
LAYER1
 62
     7
  6
CONTINUOUS
 10
10.0410
 20
3.5355
  0
VERTEX
  8
LAYER1
 62
     7
  6
CONTINUOUS
 10
10.0412
 20
3.5359
  0
VERTEX
  8
LAYER1
 62
     7
  6
CONTINUOUS
 10
10.0414
 20
3.5362
  0
VERTEX
  8
LAYER1
 62
     7
  6
CONTINUOUS
 10
10.0416
 20
3.5366
  0
VERTEX
  8
LAYER1
 62
     7
  6
CONTINUOUS
 10
10.0418
 20
3.5369
  0
VERTEX
  8
LAYER1
 62
     7
  6
CONTINUOUS
 10
10.0419
 20
3.5373
  0
VERTEX
  8
LAYER1
 62
     7
  6
CONTINUOUS
 10
10.0421
 20
3.5376
  0
VERTEX
  8
LAYER1
 62
     7
  6
CONTINUOUS
 10
10.0423
 20
3.5379
  0
VERTEX
  8
LAYER1
 62
     7
  6
CONTINUOUS
 10
10.0424
 20
3.5381
  0
VERTEX
  8
LAYER1
 62
     7
  6
CONTINUOUS
 10
10.0426
 20
3.5384
  0
VERTEX
  8
LAYER1
 62
     7
  6
CONTINUOUS
 10
10.0427
 20
3.5386
  0
VERTEX
  8
LAYER1
 62
     7
  6
CONTINUOUS
 10
10.0428
 20
3.5387
  0
VERTEX
  8
LAYER1
 62
     7
  6
CONTINUOUS
 10
10.0428
 20
3.5389
  0
VERTEX
  8
LAYER1
 62
     7
  6
CONTINUOUS
 10
10.0429
 20
3.5390
  0
VERTEX
  8
LAYER1
 62
     7
  6
CONTINUOUS
 10
10.0429
 20
3.5391
  0
VERTEX
  8
LAYER1
 62
     7
  6
CONTINUOUS
 10
10.0430
 20
3.5391
  0
VERTEX
  8
LAYER1
 62
     7
  6
CONTINUOUS
 10
10.0430
 20
3.5391
  0
VERTEX
  8
LAYER1
 62
     7
  6
CONTINUOUS
 10
10.0430
 20
3.5391
  0
VERTEX
  8
LAYER1
 62
     7
  6
CONTINUOUS
 10
10.0430
 20
3.5391
  0
VERTEX
  8
LAYER1
 62
     7
  6
CONTINUOUS
 10
10.0429
 20
3.5390
  0
VERTEX
  8
LAYER1
 62
     7
  6
CONTINUOUS
 10
10.0429
 20
3.5390
  0
VERTEX
  8
LAYER1
 62
     7
  6
CONTINUOUS
 10
10.0429
 20
3.5389
  0
VERTEX
  8
LAYER1
 62
     7
  6
CONTINUOUS
 10
10.0428
 20
3.5388
  0
VERTEX
  8
LAYER1
 62
     7
  6
CONTINUOUS
 10
10.0428
 20
3.5387
  0
SEQEND
  8
LAYER1
  0
POLYLINE
  8
LAYER1
 62
     7
 66
     1
  6
CONTINUOUS
  0
VERTEX
  8
LAYER1
 62
     7
  6
CONTINUOUS
 10
10.5454
 20
4.5552
  0
VERTEX
  8
LAYER1
 62
     7
  6
CONTINUOUS
 10
10.5450
 20
4.5549
  0
VERTEX
  8
LAYER1
 62
     7
  6
CONTINUOUS
 10
10.5446
 20
4.5545
  0
VERTEX
  8
LAYER1
 62
     7
  6
CONTINUOUS
 10
10.5442
 20
4.5542
  0
VERTEX
  8
LAYER1
 62
     7
  6
CONTINUOUS
 10
10.5438
 20
4.5538
  0
VERTEX
  8
LAYER1
 62
     7
  6
CONTINUOUS
 10
10.5434
 20
4.5535
  0
VERTEX
  8
LAYER1
 62
     7
  6
CONTINUOUS
 10
10.5430
 20
4.5531
  0
VERTEX
  8
LAYER1
 62
     7
  6
CONTINUOUS
 10
10.5425
 20
4.5528
  0
VERTEX
  8
LAYER1
 62
     7
  6
CONTINUOUS
 10
10.5421
 20
4.5525
  0
VERTEX
  8
LAYER1
 62
     7
  6
CONTINUOUS
 10
10.5417
 20
4.5522
  0
VERTEX
  8
LAYER1
 62
     7
  6
CONTINUOUS
 10
10.5413
 20
4.5519
  0
VERTEX
  8
LAYER1
 62
     7
  6
CONTINUOUS
 10
10.5409
 20
4.5516
  0
VERTEX
  8
LAYER1
 62
     7
  6
CONTINUOUS
 10
10.5405
 20
4.5513
  0
VERTEX
  8
LAYER1
 62
     7
  6
CONTINUOUS
 10
10.5379
 20
4.5499
  0
VERTEX
  8
LAYER1
 62
     7
  6
CONTINUOUS
 10
10.5351
 20
4.5490
  0
VERTEX
  8
LAYER1
 62
     7
  6
CONTINUOUS
 10
10.5323
 20
4.5484
  0
VERTEX
  8
LAYER1
 62
     7
  6
CONTINUOUS
 10
10.5293
 20
4.5483
  0
VERTEX
  8
LAYER1
 62
     7
  6
CONTINUOUS
 10
10.5263
 20
4.5484
  0
VERTEX
  8
LAYER1
 62
     7
  6
CONTINUOUS
 10
10.5232
 20
4.5489
  0
VERTEX
  8
LAYER1
 62
     7
  6
CONTINUOUS
 10
10.5200
 20
4.5496
  0
VERTEX
  8
LAYER1
 62
     7
  6
CONTINUOUS
 10
10.5167
 20
4.5505
  0
VERTEX
  8
LAYER1
 62
     7
  6
CONTINUOUS
 10
10.5134
 20
4.5515
  0
VERTEX
  8
LAYER1
 62
     7
  6
CONTINUOUS
 10
10.5100
 20
4.5527
  0
VERTEX
  8
LAYER1
 62
     7
  6
CONTINUOUS
 10
10.5067
 20
4.5539
  0
VERTEX
  8
LAYER1
 62
     7
  6
CONTINUOUS
 10
10.5033
 20
4.5552
  0
SEQEND
  8
LAYER1
  0
POLYLINE
  8
LAYER1
 62
     7
 66
     1
  6
CONTINUOUS
  0
VERTEX
  8
LAYER1
 62
     7
  6
CONTINUOUS
 10
10.5033
 20
4.5552
  0
VERTEX
  8
LAYER1
 62
     7
  6
CONTINUOUS
 10
10.5030
 20
4.5553
  0
VERTEX
  8
LAYER1
 62
     7
  6
CONTINUOUS
 10
10.5028
 20
4.5553
  0
VERTEX
  8
LAYER1
 62
     7
  6
CONTINUOUS
 10
10.5025
 20
4.5554
  0
VERTEX
  8
LAYER1
 62
     7
  6
CONTINUOUS
 10
10.5022
 20
4.5554
  0
VERTEX
  8
LAYER1
 62
     7
  6
CONTINUOUS
 10
10.5020
 20
4.5555
  0
VERTEX
  8
LAYER1
 62
     7
  6
CONTINUOUS
 10
10.5017
 20
4.5555
  0
VERTEX
  8
LAYER1
 62
     7
  6
CONTINUOUS
 10
10.5015
 20
4.5555
  0
VERTEX
  8
LAYER1
 62
     7
  6
CONTINUOUS
 10
10.5012
 20
4.5556
  0
VERTEX
  8
LAYER1
 62
     7
  6
CONTINUOUS
 10
10.5009
 20
4.5556
  0
VERTEX
  8
LAYER1
 62
     7
  6
CONTINUOUS
 10
10.5007
 20
4.5556
  0
VERTEX
  8
LAYER1
 62
     7
  6
CONTINUOUS
 10
10.5004
 20
4.5556
  0
VERTEX
  8
LAYER1
 62
     7
  6
CONTINUOUS
 10
10.5001
 20
4.5557
  0
VERTEX
  8
LAYER1
 62
     7
  6
CONTINUOUS
 10
10.4998
 20
4.5557
  0
VERTEX
  8
LAYER1
 62
     7
  6
CONTINUOUS
 10
10.4994
 20
4.5557
  0
VERTEX
  8
LAYER1
 62
     7
  6
CONTINUOUS
 10
10.4990
 20
4.5556
  0
VERTEX
  8
LAYER1
 62
     7
  6
CONTINUOUS
 10
10.4986
 20
4.5556
  0
VERTEX
  8
LAYER1
 62
     7
  6
CONTINUOUS
 10
10.4983
 20
4.5556
  0
VERTEX
  8
LAYER1
 62
     7
  6
CONTINUOUS
 10
10.4979
 20
4.5556
  0
VERTEX
  8
LAYER1
 62
     7
  6
CONTINUOUS
 10
10.4975
 20
4.5555
  0
VERTEX
  8
LAYER1
 62
     7
  6
CONTINUOUS
 10
10.4971
 20
4.5555
  0
VERTEX
  8
LAYER1
 62
     7
  6
CONTINUOUS
 10
10.4968
 20
4.5554
  0
VERTEX
  8
LAYER1
 62
     7
  6
CONTINUOUS
 10
10.4964
 20
4.5554
  0
VERTEX
  8
LAYER1
 62
     7
  6
CONTINUOUS
 10
10.4960
 20
4.5553
  0
VERTEX
  8
LAYER1
 62
     7
  6
CONTINUOUS
 10
10.4956
 20
4.5552
  0
SEQEND
  8
LAYER1
  0
POLYLINE
  8
LAYER1
 62
     7
 66
     1
  6
CONTINUOUS
  0
VERTEX
  8
LAYER1
 62
     7
  6
CONTINUOUS
 10
10.4956
 20
4.5552
  0
VERTEX
  8
LAYER1
 62
     7
  6
CONTINUOUS
 10
10.4933
 20
4.5546
  0
VERTEX
  8
LAYER1
 62
     7
  6
CONTINUOUS
 10
10.4909
 20
4.5540
  0
VERTEX
  8
LAYER1
 62
     7
  6
CONTINUOUS
 10
10.4886
 20
4.5534
  0
VERTEX
  8
LAYER1
 62
     7
  6
CONTINUOUS
 10
10.4863
 20
4.5529
  0
VERTEX
  8
LAYER1
 62
     7
  6
CONTINUOUS
 10
10.4840
 20
4.5525
  0
VERTEX
  8
LAYER1
 62
     7
  6
CONTINUOUS
 10
10.4818
 20
4.5523
  0
VERTEX
  8
LAYER1
 62
     7
  6
CONTINUOUS
 10
10.4796
 20
4.5522
  0
VERTEX
  8
LAYER1
 62
     7
  6
CONTINUOUS
 10
10.4775
 20
4.5523
  0
VERTEX
  8
LAYER1
 62
     7
  6
CONTINUOUS
 10
10.4755
 20
4.5526
  0
VERTEX
  8
LAYER1
 62
     7
  6
CONTINUOUS
 10
10.4736
 20
4.5532
  0
VERTEX
  8
LAYER1
 62
     7
  6
CONTINUOUS
 10
10.4717
 20
4.5540
  0
VERTEX
  8
LAYER1
 62
     7
  6
CONTINUOUS
 10
10.4700
 20
4.5552
  0
VERTEX
  8
LAYER1
 62
     7
  6
CONTINUOUS
 10
10.4700
 20
4.5552
  0
VERTEX
  8
LAYER1
 62
     7
  6
CONTINUOUS
 10
10.4699
 20
4.5552
  0
VERTEX
  8
LAYER1
 62
     7
  6
CONTINUOUS
 10
10.4699
 20
4.5552
  0
VERTEX
  8
LAYER1
 62
     7
  6
CONTINUOUS
 10
10.4699
 20
4.5552
  0
VERTEX
  8
LAYER1
 62
     7
  6
CONTINUOUS
 10
10.4699
 20
4.5552
  0
VERTEX
  8
LAYER1
 62
     7
  6
CONTINUOUS
 10
10.4699
 20
4.5552
  0
VERTEX
  8
LAYER1
 62
     7
  6
CONTINUOUS
 10
10.4699
 20
4.5552
  0
VERTEX
  8
LAYER1
 62
     7
  6
CONTINUOUS
 10
10.4699
 20
4.5552
  0
VERTEX
  8
LAYER1
 62
     7
  6
CONTINUOUS
 10
10.4699
 20
4.5552
  0
VERTEX
  8
LAYER1
 62
     7
  6
CONTINUOUS
 10
10.4699
 20
4.5552
  0
VERTEX
  8
LAYER1
 62
     7
  6
CONTINUOUS
 10
10.4699
 20
4.5552
  0
VERTEX
  8
LAYER1
 62
     7
  6
CONTINUOUS
 10
10.4698
 20
4.5552
  0
SEQEND
  8
LAYER1
  0
POLYLINE
  8
LAYER1
 62
     7
 66
     1
  6
CONTINUOUS
  0
VERTEX
  8
LAYER1
 62
     7
  6
CONTINUOUS
 10
10.0428
 20
4.5561
  0
VERTEX
  8
LAYER1
 62
     7
  6
CONTINUOUS
 10
11.0213
 20
4.5561
  0
SEQEND
  8
LAYER1
  0
POLYLINE
  8
LAYER1
 62
     7
 66
     1
  6
CONTINUOUS
  0
VERTEX
  8
LAYER1
 62
     7
  6
CONTINUOUS
 10
11.0213
 20
4.5561
  0
VERTEX
  8
LAYER1
 62
     7
  6
CONTINUOUS
 10
11.0248
 20
4.5561
  0
SEQEND
  8
LAYER1
  0
ARC
  8
LAYER1
 62
     7
  6
CONTINUOUS
 10
10.8865
 20
3.5408
 40
0.0161
 50
-22.5507
 51
39.5985
  0
ARC
  8
LAYER1
 62
     7
  6
CONTINUOUS
 10
10.9394
 20
3.5341
 40
0.0161
 50
1.8196
 51
52.2897
  0
ARC
  8
LAYER1
 62
     7
  6
CONTINUOUS
 10
11.0430
 20
3.6565
 40
0.0263
 50
145.9909
 51
-145.9829
  0
ARC
  8
LAYER1
 62
     7
  6
CONTINUOUS
 10
11.0231
 20
4.2573
 40
0.0159
 50
96.7893
 51
-96.7895
  0
ARC
  8
LAYER1
 62
     7
  6
CONTINUOUS
 10
11.0144
 20
4.1792
 40
0.0342
 50
78.3514
 51
-78.3533
  0
ARC
  8
LAYER1
 62
     7
  6
CONTINUOUS
 10
10.0532
 20
3.8944
 40
0.0159
 50
-147.5417
 51
-130.9524
  0
ARC
  8
LAYER1
 62
     7
  6
CONTINUOUS
 10
10.0482
 20
4.0477
 40
0.0128
 50
-130.8716
 51
-114.8876
  0
POLYLINE
  8
LAYER1
 62
     7
 66
     1
  6
CONTINUOUS
  0
VERTEX
  8
LAYER1
 62
     7
  6
CONTINUOUS
 10
11.0248
 20
4.5561
  0
VERTEX
  8
LAYER1
 62
     7
  6
CONTINUOUS
 10
11.0284
 20
4.5561
  0
SEQEND
  8
LAYER1
  0
POLYLINE
  8
LAYER1
 62
     7
 66
     1
  6
CONTINUOUS
  0
VERTEX
  8
LAYER1
 62
     7
  6
CONTINUOUS
 10
10.0388
 20
4.5561
  0
VERTEX
  8
LAYER1
 62
     7
  6
CONTINUOUS
 10
10.0398
 20
4.5561
  0
SEQEND
  8
LAYER1
  0
POLYLINE
  8
LAYER1
 62
     7
 66
     1
  6
CONTINUOUS
  0
VERTEX
  8
LAYER1
 62
     7
  6
CONTINUOUS
 10
10.0398
 20
4.5561
  0
VERTEX
  8
LAYER1
 62
     7
  6
CONTINUOUS
 10
10.0428
 20
4.5561
  0
SEQEND
  8
LAYER1
  0
POLYLINE
  8
LAYER1
 62
     7
 66
     1
  6
CONTINUOUS
  0
VERTEX
  8
LAYER1
 62
     7
  6
CONTINUOUS
 10
10.0428
 20
3.5841
  0
VERTEX
  8
LAYER1
 62
     7
  6
CONTINUOUS
 10
10.0425
 20
3.5840
  0
VERTEX
  8
LAYER1
 62
     7
  6
CONTINUOUS
 10
10.0422
 20
3.5838
  0
VERTEX
  8
LAYER1
 62
     7
  6
CONTINUOUS
 10
10.0419
 20
3.5836
  0
VERTEX
  8
LAYER1
 62
     7
  6
CONTINUOUS
 10
10.0416
 20
3.5835
  0
VERTEX
  8
LAYER1
 62
     7
  6
CONTINUOUS
 10
10.0413
 20
3.5833
  0
VERTEX
  8
LAYER1
 62
     7
  6
CONTINUOUS
 10
10.0410
 20
3.5832
  0
VERTEX
  8
LAYER1
 62
     7
  6
CONTINUOUS
 10
10.0408
 20
3.5831
  0
VERTEX
  8
LAYER1
 62
     7
  6
CONTINUOUS
 10
10.0405
 20
3.5829
  0
VERTEX
  8
LAYER1
 62
     7
  6
CONTINUOUS
 10
10.0403
 20
3.5828
  0
VERTEX
  8
LAYER1
 62
     7
  6
CONTINUOUS
 10
10.0401
 20
3.5827
  0
VERTEX
  8
LAYER1
 62
     7
  6
CONTINUOUS
 10
10.0399
 20
3.5826
  0
VERTEX
  8
LAYER1
 62
     7
  6
CONTINUOUS
 10
10.0398
 20
3.5825
  0
VERTEX
  8
LAYER1
 62
     7
  6
CONTINUOUS
 10
10.0396
 20
3.5824
  0
VERTEX
  8
LAYER1
 62
     7
  6
CONTINUOUS
 10
10.0395
 20
3.5824
  0
VERTEX
  8
LAYER1
 62
     7
  6
CONTINUOUS
 10
10.0394
 20
3.5823
  0
VERTEX
  8
LAYER1
 62
     7
  6
CONTINUOUS
 10
10.0393
 20
3.5823
  0
VERTEX
  8
LAYER1
 62
     7
  6
CONTINUOUS
 10
10.0393
 20
3.5823
  0
VERTEX
  8
LAYER1
 62
     7
  6
CONTINUOUS
 10
10.0393
 20
3.5823
  0
VERTEX
  8
LAYER1
 62
     7
  6
CONTINUOUS
 10
10.0394
 20
3.5823
  0
VERTEX
  8
LAYER1
 62
     7
  6
CONTINUOUS
 10
10.0394
 20
3.5823
  0
VERTEX
  8
LAYER1
 62
     7
  6
CONTINUOUS
 10
10.0395
 20
3.5824
  0
VERTEX
  8
LAYER1
 62
     7
  6
CONTINUOUS
 10
10.0396
 20
3.5824
  0
VERTEX
  8
LAYER1
 62
     7
  6
CONTINUOUS
 10
10.0397
 20
3.5825
  0
VERTEX
  8
LAYER1
 62
     7
  6
CONTINUOUS
 10
10.0398
 20
3.5825
  0
SEQEND
  8
LAYER1
  0
POLYLINE
  8
LAYER1
 62
     7
 66
     1
  6
CONTINUOUS
  0
VERTEX
  8
LAYER1
 62
     7
  6
CONTINUOUS
 10
10.0398
 20
3.5825
  0
VERTEX
  8
LAYER1
 62
     7
  6
CONTINUOUS
 10
10.0398
 20
3.5825
  0
VERTEX
  8
LAYER1
 62
     7
  6
CONTINUOUS
 10
10.0398
 20
3.5825
  0
VERTEX
  8
LAYER1
 62
     7
  6
CONTINUOUS
 10
10.0398
 20
3.5825
  0
VERTEX
  8
LAYER1
 62
     7
  6
CONTINUOUS
 10
10.0398
 20
3.5825
  0
VERTEX
  8
LAYER1
 62
     7
  6
CONTINUOUS
 10
10.0398
 20
3.5825
  0
VERTEX
  8
LAYER1
 62
     7
  6
CONTINUOUS
 10
10.0398
 20
3.5825
  0
VERTEX
  8
LAYER1
 62
     7
  6
CONTINUOUS
 10
10.0398
 20
3.5825
  0
VERTEX
  8
LAYER1
 62
     7
  6
CONTINUOUS
 10
10.0398
 20
3.5825
  0
VERTEX
  8
LAYER1
 62
     7
  6
CONTINUOUS
 10
10.0398
 20
3.5825
  0
VERTEX
  8
LAYER1
 62
     7
  6
CONTINUOUS
 10
10.0398
 20
3.5825
  0
VERTEX
  8
LAYER1
 62
     7
  6
CONTINUOUS
 10
10.0398
 20
3.5825
  0
VERTEX
  8
LAYER1
 62
     7
  6
CONTINUOUS
 10
10.0398
 20
3.5825
  0
VERTEX
  8
LAYER1
 62
     7
  6
CONTINUOUS
 10
10.0398
 20
3.5825
  0
VERTEX
  8
LAYER1
 62
     7
  6
CONTINUOUS
 10
10.0398
 20
3.5825
  0
VERTEX
  8
LAYER1
 62
     7
  6
CONTINUOUS
 10
10.0398
 20
3.5825
  0
VERTEX
  8
LAYER1
 62
     7
  6
CONTINUOUS
 10
10.0398
 20
3.5825
  0
VERTEX
  8
LAYER1
 62
     7
  6
CONTINUOUS
 10
10.0398
 20
3.5825
  0
VERTEX
  8
LAYER1
 62
     7
  6
CONTINUOUS
 10
10.0398
 20
3.5825
  0
VERTEX
  8
LAYER1
 62
     7
  6
CONTINUOUS
 10
10.0398
 20
3.5825
  0
VERTEX
  8
LAYER1
 62
     7
  6
CONTINUOUS
 10
10.0398
 20
3.5825
  0
VERTEX
  8
LAYER1
 62
     7
  6
CONTINUOUS
 10
10.0398
 20
3.5825
  0
VERTEX
  8
LAYER1
 62
     7
  6
CONTINUOUS
 10
10.0398
 20
3.5825
  0
VERTEX
  8
LAYER1
 62
     7
  6
CONTINUOUS
 10
10.0398
 20
3.5825
  0
VERTEX
  8
LAYER1
 62
     7
  6
CONTINUOUS
 10
10.0398
 20
3.5825
  0
SEQEND
  8
LAYER1
  0
POLYLINE
  8
LAYER1
 62
     7
 66
     1
  6
CONTINUOUS
  0
VERTEX
  8
LAYER1
 62
     7
  6
CONTINUOUS
 10
10.0405
 20
3.5346
  0
VERTEX
  8
LAYER1
 62
     7
  6
CONTINUOUS
 10
10.0405
 20
3.5346
  0
VERTEX
  8
LAYER1
 62
     7
  6
CONTINUOUS
 10
10.0405
 20
3.5346
  0
VERTEX
  8
LAYER1
 62
     7
  6
CONTINUOUS
 10
10.0405
 20
3.5346
  0
VERTEX
  8
LAYER1
 62
     7
  6
CONTINUOUS
 10
10.0405
 20
3.5346
  0
VERTEX
  8
LAYER1
 62
     7
  6
CONTINUOUS
 10
10.0405
 20
3.5346
  0
VERTEX
  8
LAYER1
 62
     7
  6
CONTINUOUS
 10
10.0405
 20
3.5346
  0
VERTEX
  8
LAYER1
 62
     7
  6
CONTINUOUS
 10
10.0405
 20
3.5346
  0
VERTEX
  8
LAYER1
 62
     7
  6
CONTINUOUS
 10
10.0405
 20
3.5346
  0
VERTEX
  8
LAYER1
 62
     7
  6
CONTINUOUS
 10
10.0405
 20
3.5346
  0
VERTEX
  8
LAYER1
 62
     7
  6
CONTINUOUS
 10
10.0405
 20
3.5346
  0
VERTEX
  8
LAYER1
 62
     7
  6
CONTINUOUS
 10
10.0405
 20
3.5346
  0
VERTEX
  8
LAYER1
 62
     7
  6
CONTINUOUS
 10
10.0405
 20
3.5346
  0
VERTEX
  8
LAYER1
 62
     7
  6
CONTINUOUS
 10
10.0405
 20
3.5346
  0
VERTEX
  8
LAYER1
 62
     7
  6
CONTINUOUS
 10
10.0405
 20
3.5346
  0
VERTEX
  8
LAYER1
 62
     7
  6
CONTINUOUS
 10
10.0405
 20
3.5346
  0
VERTEX
  8
LAYER1
 62
     7
  6
CONTINUOUS
 10
10.0405
 20
3.5346
  0
VERTEX
  8
LAYER1
 62
     7
  6
CONTINUOUS
 10
10.0405
 20
3.5346
  0
VERTEX
  8
LAYER1
 62
     7
  6
CONTINUOUS
 10
10.0405
 20
3.5346
  0
VERTEX
  8
LAYER1
 62
     7
  6
CONTINUOUS
 10
10.0405
 20
3.5346
  0
VERTEX
  8
LAYER1
 62
     7
  6
CONTINUOUS
 10
10.0405
 20
3.5346
  0
VERTEX
  8
LAYER1
 62
     7
  6
CONTINUOUS
 10
10.0405
 20
3.5346
  0
VERTEX
  8
LAYER1
 62
     7
  6
CONTINUOUS
 10
10.0405
 20
3.5346
  0
VERTEX
  8
LAYER1
 62
     7
  6
CONTINUOUS
 10
10.0405
 20
3.5346
  0
VERTEX
  8
LAYER1
 62
     7
  6
CONTINUOUS
 10
10.0405
 20
3.5346
  0
SEQEND
  8
LAYER1
  0
POLYLINE
  8
LAYER1
 62
     7
 66
     1
  6
CONTINUOUS
  0
VERTEX
  8
LAYER1
 62
     7
  6
CONTINUOUS
 10
10.0405
 20
3.5346
  0
VERTEX
  8
LAYER1
 62
     7
  6
CONTINUOUS
 10
10.0405
 20
3.5347
  0
VERTEX
  8
LAYER1
 62
     7
  6
CONTINUOUS
 10
10.0405
 20
3.5347
  0
VERTEX
  8
LAYER1
 62
     7
  6
CONTINUOUS
 10
10.0406
 20
3.5348
  0
VERTEX
  8
LAYER1
 62
     7
  6
CONTINUOUS
 10
10.0406
 20
3.5348
  0
VERTEX
  8
LAYER1
 62
     7
  6
CONTINUOUS
 10
10.0406
 20
3.5348
  0
VERTEX
  8
LAYER1
 62
     7
  6
CONTINUOUS
 10
10.0406
 20
3.5349
  0
VERTEX
  8
LAYER1
 62
     7
  6
CONTINUOUS
 10
10.0406
 20
3.5349
  0
VERTEX
  8
LAYER1
 62
     7
  6
CONTINUOUS
 10
10.0407
 20
3.5350
  0
VERTEX
  8
LAYER1
 62
     7
  6
CONTINUOUS
 10
10.0407
 20
3.5350
  0
VERTEX
  8
LAYER1
 62
     7
  6
CONTINUOUS
 10
10.0407
 20
3.5350
  0
VERTEX
  8
LAYER1
 62
     7
  6
CONTINUOUS
 10
10.0407
 20
3.5351
  0
VERTEX
  8
LAYER1
 62
     7
  6
CONTINUOUS
 10
10.0408
 20
3.5351
  0
VERTEX
  8
LAYER1
 62
     7
  6
CONTINUOUS
 10
10.0409
 20
3.5354
  0
VERTEX
  8
LAYER1
 62
     7
  6
CONTINUOUS
 10
10.0410
 20
3.5356
  0
VERTEX
  8
LAYER1
 62
     7
  6
CONTINUOUS
 10
10.0411
 20
3.5357
  0
VERTEX
  8
LAYER1
 62
     7
  6
CONTINUOUS
 10
10.0411
 20
3.5358
  0
VERTEX
  8
LAYER1
 62
     7
  6
CONTINUOUS
 10
10.0411
 20
3.5358
  0
VERTEX
  8
LAYER1
 62
     7
  6
CONTINUOUS
 10
10.0411
 20
3.5358
  0
VERTEX
  8
LAYER1
 62
     7
  6
CONTINUOUS
 10
10.0411
 20
3.5357
  0
VERTEX
  8
LAYER1
 62
     7
  6
CONTINUOUS
 10
10.0410
 20
3.5356
  0
VERTEX
  8
LAYER1
 62
     7
  6
CONTINUOUS
 10
10.0410
 20
3.5355
  0
VERTEX
  8
LAYER1
 62
     7
  6
CONTINUOUS
 10
10.0409
 20
3.5354
  0
VERTEX
  8
LAYER1
 62
     7
  6
CONTINUOUS
 10
10.0408
 20
3.5353
  0
VERTEX
  8
LAYER1
 62
     7
  6
CONTINUOUS
 10
10.0408
 20
3.5351
  0
SEQEND
  8
LAYER1
  0
POLYLINE
  8
LAYER1
 62
     7
 66
     1
  6
CONTINUOUS
  0
VERTEX
  8
LAYER1
 62
     7
  6
CONTINUOUS
 10
10.5475
 20
4.5588
  0
VERTEX
  8
LAYER1
 62
     7
  6
CONTINUOUS
 10
10.5475
 20
4.5588
  0
VERTEX
  8
LAYER1
 62
     7
  6
CONTINUOUS
 10
10.5475
 20
4.5588
  0
VERTEX
  8
LAYER1
 62
     7
  6
CONTINUOUS
 10
10.5475
 20
4.5588
  0
VERTEX
  8
LAYER1
 62
     7
  6
CONTINUOUS
 10
10.5475
 20
4.5588
  0
VERTEX
  8
LAYER1
 62
     7
  6
CONTINUOUS
 10
10.5475
 20
4.5588
  0
VERTEX
  8
LAYER1
 62
     7
  6
CONTINUOUS
 10
10.5475
 20
4.5588
  0
VERTEX
  8
LAYER1
 62
     7
  6
CONTINUOUS
 10
10.5475
 20
4.5588
  0
VERTEX
  8
LAYER1
 62
     7
  6
CONTINUOUS
 10
10.5475
 20
4.5588
  0
VERTEX
  8
LAYER1
 62
     7
  6
CONTINUOUS
 10
10.5475
 20
4.5588
  0
VERTEX
  8
LAYER1
 62
     7
  6
CONTINUOUS
 10
10.5475
 20
4.5588
  0
VERTEX
  8
LAYER1
 62
     7
  6
CONTINUOUS
 10
10.5475
 20
4.5588
  0
VERTEX
  8
LAYER1
 62
     7
  6
CONTINUOUS
 10
10.5475
 20
4.5588
  0
VERTEX
  8
LAYER1
 62
     7
  6
CONTINUOUS
 10
10.5475
 20
4.5591
  0
VERTEX
  8
LAYER1
 62
     7
  6
CONTINUOUS
 10
10.5475
 20
4.5594
  0
VERTEX
  8
LAYER1
 62
     7
  6
CONTINUOUS
 10
10.5475
 20
4.5595
  0
VERTEX
  8
LAYER1
 62
     7
  6
CONTINUOUS
 10
10.5475
 20
4.5596
  0
VERTEX
  8
LAYER1
 62
     7
  6
CONTINUOUS
 10
10.5475
 20
4.5597
  0
VERTEX
  8
LAYER1
 62
     7
  6
CONTINUOUS
 10
10.5475
 20
4.5596
  0
VERTEX
  8
LAYER1
 62
     7
  6
CONTINUOUS
 10
10.5475
 20
4.5596
  0
VERTEX
  8
LAYER1
 62
     7
  6
CONTINUOUS
 10
10.5475
 20
4.5595
  0
VERTEX
  8
LAYER1
 62
     7
  6
CONTINUOUS
 10
10.5475
 20
4.5593
  0
VERTEX
  8
LAYER1
 62
     7
  6
CONTINUOUS
 10
10.5475
 20
4.5592
  0
VERTEX
  8
LAYER1
 62
     7
  6
CONTINUOUS
 10
10.5475
 20
4.5590
  0
VERTEX
  8
LAYER1
 62
     7
  6
CONTINUOUS
 10
10.5475
 20
4.5588
  0
SEQEND
  8
LAYER1
  0
POLYLINE
  8
LAYER1
 62
     7
 66
     1
  6
CONTINUOUS
  0
VERTEX
  8
LAYER1
 62
     7
  6
CONTINUOUS
 10
10.5475
 20
4.5588
  0
VERTEX
  8
LAYER1
 62
     7
  6
CONTINUOUS
 10
10.5473
 20
4.5584
  0
VERTEX
  8
LAYER1
 62
     7
  6
CONTINUOUS
 10
10.5471
 20
4.5581
  0
VERTEX
  8
LAYER1
 62
     7
  6
CONTINUOUS
 10
10.5469
 20
4.5577
  0
VERTEX
  8
LAYER1
 62
     7
  6
CONTINUOUS
 10
10.5467
 20
4.5574
  0
VERTEX
  8
LAYER1
 62
     7
  6
CONTINUOUS
 10
10.5465
 20
4.5570
  0
VERTEX
  8
LAYER1
 62
     7
  6
CONTINUOUS
 10
10.5463
 20
4.5567
  0
VERTEX
  8
LAYER1
 62
     7
  6
CONTINUOUS
 10
10.5461
 20
4.5564
  0
VERTEX
  8
LAYER1
 62
     7
  6
CONTINUOUS
 10
10.5459
 20
4.5561
  0
VERTEX
  8
LAYER1
 62
     7
  6
CONTINUOUS
 10
10.5458
 20
4.5559
  0
VERTEX
  8
LAYER1
 62
     7
  6
CONTINUOUS
 10
10.5456
 20
4.5556
  0
VERTEX
  8
LAYER1
 62
     7
  6
CONTINUOUS
 10
10.5455
 20
4.5554
  0
VERTEX
  8
LAYER1
 62
     7
  6
CONTINUOUS
 10
10.5454
 20
4.5552
  0
VERTEX
  8
LAYER1
 62
     7
  6
CONTINUOUS
 10
10.5453
 20
4.5551
  0
VERTEX
  8
LAYER1
 62
     7
  6
CONTINUOUS
 10
10.5452
 20
4.5550
  0
VERTEX
  8
LAYER1
 62
     7
  6
CONTINUOUS
 10
10.5452
 20
4.5549
  0
VERTEX
  8
LAYER1
 62
     7
  6
CONTINUOUS
 10
10.5452
 20
4.5549
  0
VERTEX
  8
LAYER1
 62
     7
  6
CONTINUOUS
 10
10.5452
 20
4.5549
  0
VERTEX
  8
LAYER1
 62
     7
  6
CONTINUOUS
 10
10.5452
 20
4.5549
  0
VERTEX
  8
LAYER1
 62
     7
  6
CONTINUOUS
 10
10.5452
 20
4.5549
  0
VERTEX
  8
LAYER1
 62
     7
  6
CONTINUOUS
 10
10.5452
 20
4.5549
  0
VERTEX
  8
LAYER1
 62
     7
  6
CONTINUOUS
 10
10.5452
 20
4.5550
  0
VERTEX
  8
LAYER1
 62
     7
  6
CONTINUOUS
 10
10.5453
 20
4.5551
  0
VERTEX
  8
LAYER1
 62
     7
  6
CONTINUOUS
 10
10.5453
 20
4.5552
  0
VERTEX
  8
LAYER1
 62
     7
  6
CONTINUOUS
 10
10.5454
 20
4.5552
  0
SEQEND
  8
LAYER1
  0
POLYLINE
  8
LAYER1
 62
     7
 66
     1
  6
CONTINUOUS
  0
VERTEX
  8
LAYER1
 62
     7
  6
CONTINUOUS
 10
10.4698
 20
4.5552
  0
VERTEX
  8
LAYER1
 62
     7
  6
CONTINUOUS
 10
10.4695
 20
4.5556
  0
VERTEX
  8
LAYER1
 62
     7
  6
CONTINUOUS
 10
10.4692
 20
4.5560
  0
VERTEX
  8
LAYER1
 62
     7
  6
CONTINUOUS
 10
10.4688
 20
4.5563
  0
VERTEX
  8
LAYER1
 62
     7
  6
CONTINUOUS
 10
10.4685
 20
4.5567
  0
VERTEX
  8
LAYER1
 62
     7
  6
CONTINUOUS
 10
10.4682
 20
4.5570
  0
VERTEX
  8
LAYER1
 62
     7
  6
CONTINUOUS
 10
10.4679
 20
4.5574
  0
VERTEX
  8
LAYER1
 62
     7
  6
CONTINUOUS
 10
10.4676
 20
4.5577
  0
VERTEX
  8
LAYER1
 62
     7
  6
CONTINUOUS
 10
10.4673
 20
4.5580
  0
VERTEX
  8
LAYER1
 62
     7
  6
CONTINUOUS
 10
10.4671
 20
4.5582
  0
VERTEX
  8
LAYER1
 62
     7
  6
CONTINUOUS
 10
10.4669
 20
4.5584
  0
VERTEX
  8
LAYER1
 62
     7
  6
CONTINUOUS
 10
10.4667
 20
4.5586
  0
VERTEX
  8
LAYER1
 62
     7
  6
CONTINUOUS
 10
10.4665
 20
4.5588
  0
VERTEX
  8
LAYER1
 62
     7
  6
CONTINUOUS
 10
10.4664
 20
4.5589
  0
VERTEX
  8
LAYER1
 62
     7
  6
CONTINUOUS
 10
10.4663
 20
4.5590
  0
VERTEX
  8
LAYER1
 62
     7
  6
CONTINUOUS
 10
10.4663
 20
4.5591
  0
VERTEX
  8
LAYER1
 62
     7
  6
CONTINUOUS
 10
10.4663
 20
4.5591
  0
VERTEX
  8
LAYER1
 62
     7
  6
CONTINUOUS
 10
10.4662
 20
4.5591
  0
VERTEX
  8
LAYER1
 62
     7
  6
CONTINUOUS
 10
10.4662
 20
4.5591
  0
VERTEX
  8
LAYER1
 62
     7
  6
CONTINUOUS
 10
10.4663
 20
4.5591
  0
VERTEX
  8
LAYER1
 62
     7
  6
CONTINUOUS
 10
10.4663
 20
4.5590
  0
VERTEX
  8
LAYER1
 62
     7
  6
CONTINUOUS
 10
10.4664
 20
4.5590
  0
VERTEX
  8
LAYER1
 62
     7
  6
CONTINUOUS
 10
10.4664
 20
4.5589
  0
VERTEX
  8
LAYER1
 62
     7
  6
CONTINUOUS
 10
10.4665
 20
4.5589
  0
VERTEX
  8
LAYER1
 62
     7
  6
CONTINUOUS
 10
10.4665
 20
4.5588
  0
SEQEND
  8
LAYER1
  0
POLYLINE
  8
LAYER1
 62
     7
 66
     1
  6
CONTINUOUS
  0
VERTEX
  8
LAYER1
 62
     7
  6
CONTINUOUS
 10
10.4665
 20
4.5588
  0
VERTEX
  8
LAYER1
 62
     7
  6
CONTINUOUS
 10
10.4665
 20
4.5588
  0
VERTEX
  8
LAYER1
 62
     7
  6
CONTINUOUS
 10
10.4665
 20
4.5588
  0
VERTEX
  8
LAYER1
 62
     7
  6
CONTINUOUS
 10
10.4665
 20
4.5588
  0
VERTEX
  8
LAYER1
 62
     7
  6
CONTINUOUS
 10
10.4665
 20
4.5588
  0
VERTEX
  8
LAYER1
 62
     7
  6
CONTINUOUS
 10
10.4665
 20
4.5588
  0
VERTEX
  8
LAYER1
 62
     7
  6
CONTINUOUS
 10
10.4665
 20
4.5588
  0
VERTEX
  8
LAYER1
 62
     7
  6
CONTINUOUS
 10
10.4665
 20
4.5588
  0
VERTEX
  8
LAYER1
 62
     7
  6
CONTINUOUS
 10
10.4665
 20
4.5588
  0
VERTEX
  8
LAYER1
 62
     7
  6
CONTINUOUS
 10
10.4665
 20
4.5588
  0
VERTEX
  8
LAYER1
 62
     7
  6
CONTINUOUS
 10
10.4665
 20
4.5588
  0
VERTEX
  8
LAYER1
 62
     7
  6
CONTINUOUS
 10
10.4665
 20
4.5588
  0
VERTEX
  8
LAYER1
 62
     7
  6
CONTINUOUS
 10
10.4665
 20
4.5588
  0
VERTEX
  8
LAYER1
 62
     7
  6
CONTINUOUS
 10
10.4665
 20
4.5585
  0
VERTEX
  8
LAYER1
 62
     7
  6
CONTINUOUS
 10
10.4665
 20
4.5582
  0
VERTEX
  8
LAYER1
 62
     7
  6
CONTINUOUS
 10
10.4665
 20
4.5581
  0
VERTEX
  8
LAYER1
 62
     7
  6
CONTINUOUS
 10
10.4665
 20
4.5580
  0
VERTEX
  8
LAYER1
 62
     7
  6
CONTINUOUS
 10
10.4665
 20
4.5579
  0
VERTEX
  8
LAYER1
 62
     7
  6
CONTINUOUS
 10
10.4665
 20
4.5580
  0
VERTEX
  8
LAYER1
 62
     7
  6
CONTINUOUS
 10
10.4665
 20
4.5580
  0
VERTEX
  8
LAYER1
 62
     7
  6
CONTINUOUS
 10
10.4665
 20
4.5581
  0
VERTEX
  8
LAYER1
 62
     7
  6
CONTINUOUS
 10
10.4665
 20
4.5583
  0
VERTEX
  8
LAYER1
 62
     7
  6
CONTINUOUS
 10
10.4665
 20
4.5584
  0
VERTEX
  8
LAYER1
 62
     7
  6
CONTINUOUS
 10
10.4665
 20
4.5586
  0
VERTEX
  8
LAYER1
 62
     7
  6
CONTINUOUS
 10
10.4665
 20
4.5588
  0
SEQEND
  8
LAYER1
  0
POLYLINE
  8
LAYER1
 62
     7
 66
     1
  6
CONTINUOUS
  0
VERTEX
  8
LAYER1
 62
     7
  6
CONTINUOUS
 10
10.4665
 20
4.5588
  0
VERTEX
  8
LAYER1
 62
     7
  6
CONTINUOUS
 10
10.4665
 20
4.5588
  0
VERTEX
  8
LAYER1
 62
     7
  6
CONTINUOUS
 10
10.4665
 20
4.5588
  0
VERTEX
  8
LAYER1
 62
     7
  6
CONTINUOUS
 10
10.4665
 20
4.5588
  0
VERTEX
  8
LAYER1
 62
     7
  6
CONTINUOUS
 10
10.4665
 20
4.5588
  0
VERTEX
  8
LAYER1
 62
     7
  6
CONTINUOUS
 10
10.4665
 20
4.5588
  0
VERTEX
  8
LAYER1
 62
     7
  6
CONTINUOUS
 10
10.4665
 20
4.5588
  0
VERTEX
  8
LAYER1
 62
     7
  6
CONTINUOUS
 10
10.4665
 20
4.5588
  0
VERTEX
  8
LAYER1
 62
     7
  6
CONTINUOUS
 10
10.4665
 20
4.5588
  0
VERTEX
  8
LAYER1
 62
     7
  6
CONTINUOUS
 10
10.4665
 20
4.5588
  0
VERTEX
  8
LAYER1
 62
     7
  6
CONTINUOUS
 10
10.4665
 20
4.5588
  0
VERTEX
  8
LAYER1
 62
     7
  6
CONTINUOUS
 10
10.4665
 20
4.5588
  0
VERTEX
  8
LAYER1
 62
     7
  6
CONTINUOUS
 10
10.4665
 20
4.5588
  0
VERTEX
  8
LAYER1
 62
     7
  6
CONTINUOUS
 10
10.4665
 20
4.5591
  0
VERTEX
  8
LAYER1
 62
     7
  6
CONTINUOUS
 10
10.4665
 20
4.5594
  0
VERTEX
  8
LAYER1
 62
     7
  6
CONTINUOUS
 10
10.4665
 20
4.5595
  0
VERTEX
  8
LAYER1
 62
     7
  6
CONTINUOUS
 10
10.4665
 20
4.5596
  0
VERTEX
  8
LAYER1
 62
     7
  6
CONTINUOUS
 10
10.4665
 20
4.5597
  0
VERTEX
  8
LAYER1
 62
     7
  6
CONTINUOUS
 10
10.4665
 20
4.5596
  0
VERTEX
  8
LAYER1
 62
     7
  6
CONTINUOUS
 10
10.4665
 20
4.5596
  0
VERTEX
  8
LAYER1
 62
     7
  6
CONTINUOUS
 10
10.4665
 20
4.5595
  0
VERTEX
  8
LAYER1
 62
     7
  6
CONTINUOUS
 10
10.4665
 20
4.5593
  0
VERTEX
  8
LAYER1
 62
     7
  6
CONTINUOUS
 10
10.4665
 20
4.5592
  0
VERTEX
  8
LAYER1
 62
     7
  6
CONTINUOUS
 10
10.4665
 20
4.5590
  0
VERTEX
  8
LAYER1
 62
     7
  6
CONTINUOUS
 10
10.4665
 20
4.5588
  0
SEQEND
  8
LAYER1
  0
ARC
  8
LAYER1
 62
     7
  6
CONTINUOUS
 10
10.8865
 20
3.5408
 40
0.0161
 50
39.5972
 51
-157.4514
  0
ARC
  8
LAYER1
 62
     7
  6
CONTINUOUS
 10
10.9394
 20
3.5341
 40
0.0161
 50
52.2881
 51
178.1805
  0
ARC
  8
LAYER1
 62
     7
  6
CONTINUOUS
 10
11.0430
 20
3.6565
 40
0.0263
 50
123.9230
 51
145.9919
  0
ARC
  8
LAYER1
 62
     7
  6
CONTINUOUS
 10
11.0430
 20
3.6565
 40
0.0263
 50
-145.9827
 51
-123.9238
  0
ARC
  8
LAYER1
 62
     7
  6
CONTINUOUS
 10
11.0231
 20
4.2573
 40
0.0159
 50
70.7952
 51
96.7885
  0
ARC
  8
LAYER1
 62
     7
  6
CONTINUOUS
 10
11.0231
 20
4.2573
 40
0.0159
 50
-96.7875
 51
-70.8012
  0
ARC
  8
LAYER1
 62
     7
  6
CONTINUOUS
 10
11.0144
 20
4.1792
 40
0.0342
 50
65.8054
 51
78.3524
  0
ARC
  8
LAYER1
 62
     7
  6
CONTINUOUS
 10
11.0144
 20
4.1792
 40
0.0342
 50
-78.3531
 51
-65.8091
  0
ARC
  8
LAYER1
 62
     7
  6
CONTINUOUS
 10
10.0532
 20
3.8944
 40
0.0159
 50
130.9509
 51
147.5413
  0
ARC
  8
LAYER1
 62
     7
  6
CONTINUOUS
 10
10.0482
 20
4.0477
 40
0.0128
 50
-114.8861
 51
130.8855
  0
POLYLINE
  8
LAYER10
 62
     1
 66
     1
  6
CONTINUOUS
  0
VERTEX
  8
LAYER10
 62
     1
  6
CONTINUOUS
 10
10.0428
 20
3.8482
  0
VERTEX
  8
LAYER10
 62
     1
  6
CONTINUOUS
 10
10.0428
 20
3.8482
  0
VERTEX
  8
LAYER10
 62
     1
  6
CONTINUOUS
 10
10.0428
 20
3.8482
  0
VERTEX
  8
LAYER10
 62
     1
  6
CONTINUOUS
 10
10.0428
 20
3.8482
  0
VERTEX
  8
LAYER10
 62
     1
  6
CONTINUOUS
 10
10.0428
 20
3.8482
  0
VERTEX
  8
LAYER10
 62
     1
  6
CONTINUOUS
 10
10.0428
 20
3.8482
  0
VERTEX
  8
LAYER10
 62
     1
  6
CONTINUOUS
 10
10.0428
 20
3.8482
  0
VERTEX
  8
LAYER10
 62
     1
  6
CONTINUOUS
 10
10.0428
 20
3.8482
  0
VERTEX
  8
LAYER10
 62
     1
  6
CONTINUOUS
 10
10.0428
 20
3.8482
  0
VERTEX
  8
LAYER10
 62
     1
  6
CONTINUOUS
 10
10.0428
 20
3.8482
  0
VERTEX
  8
LAYER10
 62
     1
  6
CONTINUOUS
 10
10.0428
 20
3.8482
  0
VERTEX
  8
LAYER10
 62
     1
  6
CONTINUOUS
 10
10.0428
 20
3.8482
  0
VERTEX
  8
LAYER10
 62
     1
  6
CONTINUOUS
 10
10.0428
 20
3.8482
  0
VERTEX
  8
LAYER10
 62
     1
  6
CONTINUOUS
 10
10.0428
 20
3.8482
  0
VERTEX
  8
LAYER10
 62
     1
  6
CONTINUOUS
 10
10.0428
 20
3.8482
  0
VERTEX
  8
LAYER10
 62
     1
  6
CONTINUOUS
 10
10.0428
 20
3.8482
  0
VERTEX
  8
LAYER10
 62
     1
  6
CONTINUOUS
 10
10.0428
 20
3.8482
  0
VERTEX
  8
LAYER10
 62
     1
  6
CONTINUOUS
 10
10.0428
 20
3.8482
  0
VERTEX
  8
LAYER10
 62
     1
  6
CONTINUOUS
 10
10.0428
 20
3.8482
  0
VERTEX
  8
LAYER10
 62
     1
  6
CONTINUOUS
 10
10.0428
 20
3.8482
  0
VERTEX
  8
LAYER10
 62
     1
  6
CONTINUOUS
 10
10.0428
 20
3.8482
  0
VERTEX
  8
LAYER10
 62
     1
  6
CONTINUOUS
 10
10.0428
 20
3.8482
  0
VERTEX
  8
LAYER10
 62
     1
  6
CONTINUOUS
 10
10.0428
 20
3.8482
  0
VERTEX
  8
LAYER10
 62
     1
  6
CONTINUOUS
 10
10.0428
 20
3.8482
  0
VERTEX
  8
LAYER10
 62
     1
  6
CONTINUOUS
 10
10.0428
 20
3.8482
  0
SEQEND
  8
LAYER10
  0
POLYLINE
  8
LAYER10
 62
     1
 66
     1
  6
CONTINUOUS
  0
VERTEX
  8
LAYER10
 62
     1
  6
CONTINUOUS
 10
10.0428
 20
3.8482
  0
VERTEX
  8
LAYER10
 62
     1
  6
CONTINUOUS
 10
10.0450
 20
3.8471
  0
VERTEX
  8
LAYER10
 62
     1
  6
CONTINUOUS
 10
10.0472
 20
3.8460
  0
VERTEX
  8
LAYER10
 62
     1
  6
CONTINUOUS
 10
10.0494
 20
3.8448
  0
VERTEX
  8
LAYER10
 62
     1
  6
CONTINUOUS
 10
10.0516
 20
3.8437
  0
VERTEX
  8
LAYER10
 62
     1
  6
CONTINUOUS
 10
10.0539
 20
3.8425
  0
VERTEX
  8
LAYER10
 62
     1
  6
CONTINUOUS
 10
10.0561
 20
3.8414
  0
VERTEX
  8
LAYER10
 62
     1
  6
CONTINUOUS
 10
10.0583
 20
3.8402
  0
VERTEX
  8
LAYER10
 62
     1
  6
CONTINUOUS
 10
10.0605
 20
3.8391
  0
VERTEX
  8
LAYER10
 62
     1
  6
CONTINUOUS
 10
10.0627
 20
3.8379
  0
VERTEX
  8
LAYER10
 62
     1
  6
CONTINUOUS
 10
10.0649
 20
3.8367
  0
VERTEX
  8
LAYER10
 62
     1
  6
CONTINUOUS
 10
10.0671
 20
3.8355
  0
VERTEX
  8
LAYER10
 62
     1
  6
CONTINUOUS
 10
10.0693
 20
3.8343
  0
VERTEX
  8
LAYER10
 62
     1
  6
CONTINUOUS
 10
10.0724
 20
3.8325
  0
VERTEX
  8
LAYER10
 62
     1
  6
CONTINUOUS
 10
10.0755
 20
3.8307
  0
VERTEX
  8
LAYER10
 62
     1
  6
CONTINUOUS
 10
10.0786
 20
3.8289
  0
VERTEX
  8
LAYER10
 62
     1
  6
CONTINUOUS
 10
10.0817
 20
3.8270
  0
VERTEX
  8
LAYER10
 62
     1
  6
CONTINUOUS
 10
10.0847
 20
3.8250
  0
VERTEX
  8
LAYER10
 62
     1
  6
CONTINUOUS
 10
10.0877
 20
3.8230
  0
VERTEX
  8
LAYER10
 62
     1
  6
CONTINUOUS
 10
10.0907
 20
3.8210
  0
VERTEX
  8
LAYER10
 62
     1
  6
CONTINUOUS
 10
10.0936
 20
3.8189
  0
VERTEX
  8
LAYER10
 62
     1
  6
CONTINUOUS
 10
10.0965
 20
3.8167
  0
VERTEX
  8
LAYER10
 62
     1
  6
CONTINUOUS
 10
10.0994
 20
3.8144
  0
VERTEX
  8
LAYER10
 62
     1
  6
CONTINUOUS
 10
10.1021
 20
3.8121
  0
VERTEX
  8
LAYER10
 62
     1
  6
CONTINUOUS
 10
10.1049
 20
3.8097
  0
VERTEX
  8
LAYER10
 62
     1
  6
CONTINUOUS
 10
10.1082
 20
3.8066
  0
VERTEX
  8
LAYER10
 62
     1
  6
CONTINUOUS
 10
10.1115
 20
3.8033
  0
VERTEX
  8
LAYER10
 62
     1
  6
CONTINUOUS
 10
10.1146
 20
3.7999
  0
VERTEX
  8
LAYER10
 62
     1
  6
CONTINUOUS
 10
10.1176
 20
3.7964
  0
VERTEX
  8
LAYER10
 62
     1
  6
CONTINUOUS
 10
10.1205
 20
3.7928
  0
VERTEX
  8
LAYER10
 62
     1
  6
CONTINUOUS
 10
10.1233
 20
3.7891
  0
VERTEX
  8
LAYER10
 62
     1
  6
CONTINUOUS
 10
10.1258
 20
3.7853
  0
VERTEX
  8
LAYER10
 62
     1
  6
CONTINUOUS
 10
10.1282
 20
3.7814
  0
VERTEX
  8
LAYER10
 62
     1
  6
CONTINUOUS
 10
10.1304
 20
3.7774
  0
VERTEX
  8
LAYER10
 62
     1
  6
CONTINUOUS
 10
10.1324
 20
3.7733
  0
VERTEX
  8
LAYER10
 62
     1
  6
CONTINUOUS
 10
10.1342
 20
3.7692
  0
VERTEX
  8
LAYER10
 62
     1
  6
CONTINUOUS
 10
10.1358
 20
3.7650
  0
VERTEX
  8
LAYER10
 62
     1
  6
CONTINUOUS
 10
10.1373
 20
3.7602
  0
VERTEX
  8
LAYER10
 62
     1
  6
CONTINUOUS
 10
10.1385
 20
3.7554
  0
VERTEX
  8
LAYER10
 62
     1
  6
CONTINUOUS
 10
10.1394
 20
3.7505
  0
VERTEX
  8
LAYER10
 62
     1
  6
CONTINUOUS
 10
10.1400
 20
3.7456
  0
VERTEX
  8
LAYER10
 62
     1
  6
CONTINUOUS
 10
10.1405
 20
3.7406
  0
VERTEX
  8
LAYER10
 62
     1
  6
CONTINUOUS
 10
10.1406
 20
3.7356
  0
VERTEX
  8
LAYER10
 62
     1
  6
CONTINUOUS
 10
10.1405
 20
3.7305
  0
VERTEX
  8
LAYER10
 62
     1
  6
CONTINUOUS
 10
10.1402
 20
3.7254
  0
VERTEX
  8
LAYER10
 62
     1
  6
CONTINUOUS
 10
10.1397
 20
3.7202
  0
VERTEX
  8
LAYER10
 62
     1
  6
CONTINUOUS
 10
10.1389
 20
3.7151
  0
VERTEX
  8
LAYER10
 62
     1
  6
CONTINUOUS
 10
10.1379
 20
3.7098
  0
VERTEX
  8
LAYER10
 62
     1
  6
CONTINUOUS
 10
10.1368
 20
3.7046
  0
VERTEX
  8
LAYER10
 62
     1
  6
CONTINUOUS
 10
10.1359
 20
3.7011
  0
VERTEX
  8
LAYER10
 62
     1
  6
CONTINUOUS
 10
10.1349
 20
3.6976
  0
VERTEX
  8
LAYER10
 62
     1
  6
CONTINUOUS
 10
10.1338
 20
3.6941
  0
VERTEX
  8
LAYER10
 62
     1
  6
CONTINUOUS
 10
10.1326
 20
3.6907
  0
VERTEX
  8
LAYER10
 62
     1
  6
CONTINUOUS
 10
10.1312
 20
3.6874
  0
VERTEX
  8
LAYER10
 62
     1
  6
CONTINUOUS
 10
10.1297
 20
3.6843
  0
VERTEX
  8
LAYER10
 62
     1
  6
CONTINUOUS
 10
10.1281
 20
3.6812
  0
VERTEX
  8
LAYER10
 62
     1
  6
CONTINUOUS
 10
10.1263
 20
3.6783
  0
VERTEX
  8
LAYER10
 62
     1
  6
CONTINUOUS
 10
10.1243
 20
3.6757
  0
VERTEX
  8
LAYER10
 62
     1
  6
CONTINUOUS
 10
10.1221
 20
3.6732
  0
VERTEX
  8
LAYER10
 62
     1
  6
CONTINUOUS
 10
10.1198
 20
3.6710
  0
VERTEX
  8
LAYER10
 62
     1
  6
CONTINUOUS
 10
10.1172
 20
3.6691
  0
VERTEX
  8
LAYER10
 62
     1
  6
CONTINUOUS
 10
10.1151
 20
3.6678
  0
VERTEX
  8
LAYER10
 62
     1
  6
CONTINUOUS
 10
10.1128
 20
3.6666
  0
VERTEX
  8
LAYER10
 62
     1
  6
CONTINUOUS
 10
10.1104
 20
3.6656
  0
VERTEX
  8
LAYER10
 62
     1
  6
CONTINUOUS
 10
10.1080
 20
3.6647
  0
VERTEX
  8
LAYER10
 62
     1
  6
CONTINUOUS
 10
10.1055
 20
3.6638
  0
VERTEX
  8
LAYER10
 62
     1
  6
CONTINUOUS
 10
10.1029
 20
3.6631
  0
VERTEX
  8
LAYER10
 62
     1
  6
CONTINUOUS
 10
10.1003
 20
3.6623
  0
VERTEX
  8
LAYER10
 62
     1
  6
CONTINUOUS
 10
10.0976
 20
3.6616
  0
VERTEX
  8
LAYER10
 62
     1
  6
CONTINUOUS
 10
10.0950
 20
3.6609
  0
VERTEX
  8
LAYER10
 62
     1
  6
CONTINUOUS
 10
10.0924
 20
3.6602
  0
VERTEX
  8
LAYER10
 62
     1
  6
CONTINUOUS
 10
10.0898
 20
3.6594
  0
VERTEX
  8
LAYER10
 62
     1
  6
CONTINUOUS
 10
10.0872
 20
3.6585
  0
VERTEX
  8
LAYER10
 62
     1
  6
CONTINUOUS
 10
10.0829
 20
3.6567
  0
VERTEX
  8
LAYER10
 62
     1
  6
CONTINUOUS
 10
10.0787
 20
3.6547
  0
VERTEX
  8
LAYER10
 62
     1
  6
CONTINUOUS
 10
10.0746
 20
3.6524
  0
VERTEX
  8
LAYER10
 62
     1
  6
CONTINUOUS
 10
10.0707
 20
3.6498
  0
VERTEX
  8
LAYER10
 62
     1
  6
CONTINUOUS
 10
10.0670
 20
3.6471
  0
VERTEX
  8
LAYER10
 62
     1
  6
CONTINUOUS
 10
10.0633
 20
3.6441
  0
VERTEX
  8
LAYER10
 62
     1
  6
CONTINUOUS
 10
10.0597
 20
3.6410
  0
VERTEX
  8
LAYER10
 62
     1
  6
CONTINUOUS
 10
10.0562
 20
3.6378
  0
VERTEX
  8
LAYER10
 62
     1
  6
CONTINUOUS
 10
10.0528
 20
3.6345
  0
VERTEX
  8
LAYER10
 62
     1
  6
CONTINUOUS
 10
10.0494
 20
3.6310
  0
VERTEX
  8
LAYER10
 62
     1
  6
CONTINUOUS
 10
10.0461
 20
3.6276
  0
VERTEX
  8
LAYER10
 62
     1
  6
CONTINUOUS
 10
10.0428
 20
3.6241
  0
SEQEND
  8
LAYER10
  0
POLYLINE
  8
LAYER10
 62
     1
 66
     1
  6
CONTINUOUS
  0
VERTEX
  8
LAYER10
 62
     1
  6
CONTINUOUS
 10
10.7766
 20
3.6446
  0
VERTEX
  8
LAYER10
 62
     1
  6
CONTINUOUS
 10
10.7805
 20
3.6432
  0
VERTEX
  8
LAYER10
 62
     1
  6
CONTINUOUS
 10
10.7844
 20
3.6417
  0
VERTEX
  8
LAYER10
 62
     1
  6
CONTINUOUS
 10
10.7882
 20
3.6402
  0
VERTEX
  8
LAYER10
 62
     1
  6
CONTINUOUS
 10
10.7921
 20
3.6387
  0
VERTEX
  8
LAYER10
 62
     1
  6
CONTINUOUS
 10
10.7959
 20
3.6371
  0
VERTEX
  8
LAYER10
 62
     1
  6
CONTINUOUS
 10
10.7998
 20
3.6355
  0
VERTEX
  8
LAYER10
 62
     1
  6
CONTINUOUS
 10
10.8036
 20
3.6340
  0
VERTEX
  8
LAYER10
 62
     1
  6
CONTINUOUS
 10
10.8073
 20
3.6323
  0
VERTEX
  8
LAYER10
 62
     1
  6
CONTINUOUS
 10
10.8111
 20
3.6306
  0
VERTEX
  8
LAYER10
 62
     1
  6
CONTINUOUS
 10
10.8148
 20
3.6289
  0
VERTEX
  8
LAYER10
 62
     1
  6
CONTINUOUS
 10
10.8185
 20
3.6271
  0
VERTEX
  8
LAYER10
 62
     1
  6
CONTINUOUS
 10
10.8222
 20
3.6253
  0
VERTEX
  8
LAYER10
 62
     1
  6
CONTINUOUS
 10
10.8262
 20
3.6232
  0
VERTEX
  8
LAYER10
 62
     1
  6
CONTINUOUS
 10
10.8301
 20
3.6210
  0
VERTEX
  8
LAYER10
 62
     1
  6
CONTINUOUS
 10
10.8340
 20
3.6187
  0
VERTEX
  8
LAYER10
 62
     1
  6
CONTINUOUS
 10
10.8379
 20
3.6164
  0
VERTEX
  8
LAYER10
 62
     1
  6
CONTINUOUS
 10
10.8417
 20
3.6140
  0
VERTEX
  8
LAYER10
 62
     1
  6
CONTINUOUS
 10
10.8455
 20
3.6116
  0
VERTEX
  8
LAYER10
 62
     1
  6
CONTINUOUS
 10
10.8493
 20
3.6091
  0
VERTEX
  8
LAYER10
 62
     1
  6
CONTINUOUS
 10
10.8530
 20
3.6065
  0
VERTEX
  8
LAYER10
 62
     1
  6
CONTINUOUS
 10
10.8568
 20
3.6039
  0
VERTEX
  8
LAYER10
 62
     1
  6
CONTINUOUS
 10
10.8605
 20
3.6013
  0
VERTEX
  8
LAYER10
 62
     1
  6
CONTINUOUS
 10
10.8642
 20
3.5986
  0
VERTEX
  8
LAYER10
 62
     1
  6
CONTINUOUS
 10
10.8680
 20
3.5958
  0
VERTEX
  8
LAYER10
 62
     1
  6
CONTINUOUS
 10
10.8709
 20
3.5937
  0
VERTEX
  8
LAYER10
 62
     1
  6
CONTINUOUS
 10
10.8738
 20
3.5915
  0
VERTEX
  8
LAYER10
 62
     1
  6
CONTINUOUS
 10
10.8766
 20
3.5892
  0
VERTEX
  8
LAYER10
 62
     1
  6
CONTINUOUS
 10
10.8794
 20
3.5869
  0
VERTEX
  8
LAYER10
 62
     1
  6
CONTINUOUS
 10
10.8822
 20
3.5846
  0
VERTEX
  8
LAYER10
 62
     1
  6
CONTINUOUS
 10
10.8849
 20
3.5822
  0
VERTEX
  8
LAYER10
 62
     1
  6
CONTINUOUS
 10
10.8875
 20
3.5797
  0
VERTEX
  8
LAYER10
 62
     1
  6
CONTINUOUS
 10
10.8900
 20
3.5772
  0
VERTEX
  8
LAYER10
 62
     1
  6
CONTINUOUS
 10
10.8924
 20
3.5746
  0
VERTEX
  8
LAYER10
 62
     1
  6
CONTINUOUS
 10
10.8946
 20
3.5719
  0
VERTEX
  8
LAYER10
 62
     1
  6
CONTINUOUS
 10
10.8967
 20
3.5691
  0
VERTEX
  8
LAYER10
 62
     1
  6
CONTINUOUS
 10
10.8986
 20
3.5662
  0
VERTEX
  8
LAYER10
 62
     1
  6
CONTINUOUS
 10
10.9000
 20
3.5638
  0
VERTEX
  8
LAYER10
 62
     1
  6
CONTINUOUS
 10
10.9013
 20
3.5613
  0
VERTEX
  8
LAYER10
 62
     1
  6
CONTINUOUS
 10
10.9025
 20
3.5588
  0
VERTEX
  8
LAYER10
 62
     1
  6
CONTINUOUS
 10
10.9037
 20
3.5563
  0
VERTEX
  8
LAYER10
 62
     1
  6
CONTINUOUS
 10
10.9047
 20
3.5537
  0
VERTEX
  8
LAYER10
 62
     1
  6
CONTINUOUS
 10
10.9057
 20
3.5510
  0
VERTEX
  8
LAYER10
 62
     1
  6
CONTINUOUS
 10
10.9067
 20
3.5483
  0
VERTEX
  8
LAYER10
 62
     1
  6
CONTINUOUS
 10
10.9075
 20
3.5456
  0
VERTEX
  8
LAYER10
 62
     1
  6
CONTINUOUS
 10
10.9084
 20
3.5429
  0
VERTEX
  8
LAYER10
 62
     1
  6
CONTINUOUS
 10
10.9092
 20
3.5402
  0
VERTEX
  8
LAYER10
 62
     1
  6
CONTINUOUS
 10
10.9100
 20
3.5374
  0
VERTEX
  8
LAYER10
 62
     1
  6
CONTINUOUS
 10
10.9108
 20
3.5346
  0
SEQEND
  8
LAYER10
  0
POLYLINE
  8
LAYER10
 62
     1
 66
     1
  6
CONTINUOUS
  0
VERTEX
  8
LAYER10
 62
     1
  6
CONTINUOUS
 10
10.9108
 20
3.5346
  0
VERTEX
  8
LAYER10
 62
     1
  6
CONTINUOUS
 10
10.9108
 20
3.5346
  0
VERTEX
  8
LAYER10
 62
     1
  6
CONTINUOUS
 10
10.9108
 20
3.5346
  0
VERTEX
  8
LAYER10
 62
     1
  6
CONTINUOUS
 10
10.9108
 20
3.5346
  0
VERTEX
  8
LAYER10
 62
     1
  6
CONTINUOUS
 10
10.9108
 20
3.5346
  0
VERTEX
  8
LAYER10
 62
     1
  6
CONTINUOUS
 10
10.9108
 20
3.5346
  0
VERTEX
  8
LAYER10
 62
     1
  6
CONTINUOUS
 10
10.9108
 20
3.5346
  0
VERTEX
  8
LAYER10
 62
     1
  6
CONTINUOUS
 10
10.9108
 20
3.5346
  0
VERTEX
  8
LAYER10
 62
     1
  6
CONTINUOUS
 10
10.9108
 20
3.5346
  0
VERTEX
  8
LAYER10
 62
     1
  6
CONTINUOUS
 10
10.9108
 20
3.5346
  0
VERTEX
  8
LAYER10
 62
     1
  6
CONTINUOUS
 10
10.9108
 20
3.5346
  0
VERTEX
  8
LAYER10
 62
     1
  6
CONTINUOUS
 10
10.9108
 20
3.5346
  0
VERTEX
  8
LAYER10
 62
     1
  6
CONTINUOUS
 10
10.9108
 20
3.5346
  0
VERTEX
  8
LAYER10
 62
     1
  6
CONTINUOUS
 10
10.9108
 20
3.5346
  0
VERTEX
  8
LAYER10
 62
     1
  6
CONTINUOUS
 10
10.9108
 20
3.5346
  0
VERTEX
  8
LAYER10
 62
     1
  6
CONTINUOUS
 10
10.9108
 20
3.5346
  0
VERTEX
  8
LAYER10
 62
     1
  6
CONTINUOUS
 10
10.9108
 20
3.5346
  0
VERTEX
  8
LAYER10
 62
     1
  6
CONTINUOUS
 10
10.9108
 20
3.5346
  0
VERTEX
  8
LAYER10
 62
     1
  6
CONTINUOUS
 10
10.9108
 20
3.5346
  0
VERTEX
  8
LAYER10
 62
     1
  6
CONTINUOUS
 10
10.9108
 20
3.5346
  0
VERTEX
  8
LAYER10
 62
     1
  6
CONTINUOUS
 10
10.9108
 20
3.5346
  0
VERTEX
  8
LAYER10
 62
     1
  6
CONTINUOUS
 10
10.9108
 20
3.5346
  0
VERTEX
  8
LAYER10
 62
     1
  6
CONTINUOUS
 10
10.9108
 20
3.5346
  0
VERTEX
  8
LAYER10
 62
     1
  6
CONTINUOUS
 10
10.9108
 20
3.5346
  0
VERTEX
  8
LAYER10
 62
     1
  6
CONTINUOUS
 10
10.9108
 20
3.5346
  0
SEQEND
  8
LAYER10
  0
POLYLINE
  8
LAYER10
 62
     1
 66
     1
  6
CONTINUOUS
  0
VERTEX
  8
LAYER10
 62
     1
  6
CONTINUOUS
 10
10.5904
 20
3.5346
  0
VERTEX
  8
LAYER10
 62
     1
  6
CONTINUOUS
 10
10.5904
 20
3.5346
  0
VERTEX
  8
LAYER10
 62
     1
  6
CONTINUOUS
 10
10.5904
 20
3.5346
  0
VERTEX
  8
LAYER10
 62
     1
  6
CONTINUOUS
 10
10.5904
 20
3.5346
  0
VERTEX
  8
LAYER10
 62
     1
  6
CONTINUOUS
 10
10.5904
 20
3.5346
  0
VERTEX
  8
LAYER10
 62
     1
  6
CONTINUOUS
 10
10.5904
 20
3.5346
  0
VERTEX
  8
LAYER10
 62
     1
  6
CONTINUOUS
 10
10.5904
 20
3.5346
  0
VERTEX
  8
LAYER10
 62
     1
  6
CONTINUOUS
 10
10.5904
 20
3.5346
  0
VERTEX
  8
LAYER10
 62
     1
  6
CONTINUOUS
 10
10.5904
 20
3.5346
  0
VERTEX
  8
LAYER10
 62
     1
  6
CONTINUOUS
 10
10.5904
 20
3.5346
  0
VERTEX
  8
LAYER10
 62
     1
  6
CONTINUOUS
 10
10.5904
 20
3.5346
  0
VERTEX
  8
LAYER10
 62
     1
  6
CONTINUOUS
 10
10.5904
 20
3.5346
  0
VERTEX
  8
LAYER10
 62
     1
  6
CONTINUOUS
 10
10.5904
 20
3.5346
  0
VERTEX
  8
LAYER10
 62
     1
  6
CONTINUOUS
 10
10.5904
 20
3.5346
  0
VERTEX
  8
LAYER10
 62
     1
  6
CONTINUOUS
 10
10.5904
 20
3.5346
  0
VERTEX
  8
LAYER10
 62
     1
  6
CONTINUOUS
 10
10.5904
 20
3.5346
  0
VERTEX
  8
LAYER10
 62
     1
  6
CONTINUOUS
 10
10.5904
 20
3.5346
  0
VERTEX
  8
LAYER10
 62
     1
  6
CONTINUOUS
 10
10.5904
 20
3.5346
  0
VERTEX
  8
LAYER10
 62
     1
  6
CONTINUOUS
 10
10.5904
 20
3.5346
  0
VERTEX
  8
LAYER10
 62
     1
  6
CONTINUOUS
 10
10.5904
 20
3.5346
  0
VERTEX
  8
LAYER10
 62
     1
  6
CONTINUOUS
 10
10.5904
 20
3.5346
  0
VERTEX
  8
LAYER10
 62
     1
  6
CONTINUOUS
 10
10.5904
 20
3.5346
  0
VERTEX
  8
LAYER10
 62
     1
  6
CONTINUOUS
 10
10.5904
 20
3.5346
  0
VERTEX
  8
LAYER10
 62
     1
  6
CONTINUOUS
 10
10.5904
 20
3.5346
  0
VERTEX
  8
LAYER10
 62
     1
  6
CONTINUOUS
 10
10.5904
 20
3.5346
  0
SEQEND
  8
LAYER10
  0
POLYLINE
  8
LAYER10
 62
     1
 66
     1
  6
CONTINUOUS
  0
VERTEX
  8
LAYER10
 62
     1
  6
CONTINUOUS
 10
10.5904
 20
3.5346
  0
VERTEX
  8
LAYER10
 62
     1
  6
CONTINUOUS
 10
10.5918
 20
3.5372
  0
VERTEX
  8
LAYER10
 62
     1
  6
CONTINUOUS
 10
10.5932
 20
3.5398
  0
VERTEX
  8
LAYER10
 62
     1
  6
CONTINUOUS
 10
10.5947
 20
3.5423
  0
VERTEX
  8
LAYER10
 62
     1
  6
CONTINUOUS
 10
10.5962
 20
3.5449
  0
VERTEX
  8
LAYER10
 62
     1
  6
CONTINUOUS
 10
10.5978
 20
3.5475
  0
VERTEX
  8
LAYER10
 62
     1
  6
CONTINUOUS
 10
10.5994
 20
3.5502
  0
VERTEX
  8
LAYER10
 62
     1
  6
CONTINUOUS
 10
10.6012
 20
3.5528
  0
VERTEX
  8
LAYER10
 62
     1
  6
CONTINUOUS
 10
10.6030
 20
3.5555
  0
VERTEX
  8
LAYER10
 62
     1
  6
CONTINUOUS
 10
10.6050
 20
3.5582
  0
VERTEX
  8
LAYER10
 62
     1
  6
CONTINUOUS
 10
10.6071
 20
3.5609
  0
VERTEX
  8
LAYER10
 62
     1
  6
CONTINUOUS
 10
10.6094
 20
3.5637
  0
VERTEX
  8
LAYER10
 62
     1
  6
CONTINUOUS
 10
10.6119
 20
3.5665
  0
VERTEX
  8
LAYER10
 62
     1
  6
CONTINUOUS
 10
10.6169
 20
3.5718
  0
VERTEX
  8
LAYER10
 62
     1
  6
CONTINUOUS
 10
10.6225
 20
3.5772
  0
VERTEX
  8
LAYER10
 62
     1
  6
CONTINUOUS
 10
10.6283
 20
3.5826
  0
VERTEX
  8
LAYER10
 62
     1
  6
CONTINUOUS
 10
10.6343
 20
3.5878
  0
VERTEX
  8
LAYER10
 62
     1
  6
CONTINUOUS
 10
10.6403
 20
3.5928
  0
VERTEX
  8
LAYER10
 62
     1
  6
CONTINUOUS
 10
10.6461
 20
3.5974
  0
VERTEX
  8
LAYER10
 62
     1
  6
CONTINUOUS
 10
10.6514
 20
3.6016
  0
VERTEX
  8
LAYER10
 62
     1
  6
CONTINUOUS
 10
10.6562
 20
3.6053
  0
VERTEX
  8
LAYER10
 62
     1
  6
CONTINUOUS
 10
10.6603
 20
3.6083
  0
VERTEX
  8
LAYER10
 62
     1
  6
CONTINUOUS
 10
10.6635
 20
3.6106
  0
VERTEX
  8
LAYER10
 62
     1
  6
CONTINUOUS
 10
10.6656
 20
3.6121
  0
VERTEX
  8
LAYER10
 62
     1
  6
CONTINUOUS
 10
10.6665
 20
3.6127
  0
VERTEX
  8
LAYER10
 62
     1
  6
CONTINUOUS
 10
10.6665
 20
3.6127
  0
VERTEX
  8
LAYER10
 62
     1
  6
CONTINUOUS
 10
10.6665
 20
3.6127
  0
VERTEX
  8
LAYER10
 62
     1
  6
CONTINUOUS
 10
10.6665
 20
3.6127
  0
VERTEX
  8
LAYER10
 62
     1
  6
CONTINUOUS
 10
10.6665
 20
3.6126
  0
VERTEX
  8
LAYER10
 62
     1
  6
CONTINUOUS
 10
10.6665
 20
3.6126
  0
VERTEX
  8
LAYER10
 62
     1
  6
CONTINUOUS
 10
10.6665
 20
3.6126
  0
VERTEX
  8
LAYER10
 62
     1
  6
CONTINUOUS
 10
10.6665
 20
3.6126
  0
VERTEX
  8
LAYER10
 62
     1
  6
CONTINUOUS
 10
10.6665
 20
3.6126
  0
VERTEX
  8
LAYER10
 62
     1
  6
CONTINUOUS
 10
10.6665
 20
3.6126
  0
VERTEX
  8
LAYER10
 62
     1
  6
CONTINUOUS
 10
10.6665
 20
3.6126
  0
VERTEX
  8
LAYER10
 62
     1
  6
CONTINUOUS
 10
10.6665
 20
3.6126
  0
VERTEX
  8
LAYER10
 62
     1
  6
CONTINUOUS
 10
10.6665
 20
3.6127
  0
VERTEX
  8
LAYER10
 62
     1
  6
CONTINUOUS
 10
10.6671
 20
3.6134
  0
VERTEX
  8
LAYER10
 62
     1
  6
CONTINUOUS
 10
10.6686
 20
3.6151
  0
VERTEX
  8
LAYER10
 62
     1
  6
CONTINUOUS
 10
10.6709
 20
3.6176
  0
VERTEX
  8
LAYER10
 62
     1
  6
CONTINUOUS
 10
10.6738
 20
3.6206
  0
VERTEX
  8
LAYER10
 62
     1
  6
CONTINUOUS
 10
10.6774
 20
3.6242
  0
VERTEX
  8
LAYER10
 62
     1
  6
CONTINUOUS
 10
10.6814
 20
3.6280
  0
VERTEX
  8
LAYER10
 62
     1
  6
CONTINUOUS
 10
10.6859
 20
3.6320
  0
VERTEX
  8
LAYER10
 62
     1
  6
CONTINUOUS
 10
10.6907
 20
3.6360
  0
VERTEX
  8
LAYER10
 62
     1
  6
CONTINUOUS
 10
10.6957
 20
3.6398
  0
VERTEX
  8
LAYER10
 62
     1
  6
CONTINUOUS
 10
10.7008
 20
3.6433
  0
VERTEX
  8
LAYER10
 62
     1
  6
CONTINUOUS
 10
10.7060
 20
3.6462
  0
VERTEX
  8
LAYER10
 62
     1
  6
CONTINUOUS
 10
10.7112
 20
3.6486
  0
VERTEX
  8
LAYER10
 62
     1
  6
CONTINUOUS
 10
10.7143
 20
3.6497
  0
VERTEX
  8
LAYER10
 62
     1
  6
CONTINUOUS
 10
10.7173
 20
3.6505
  0
VERTEX
  8
LAYER10
 62
     1
  6
CONTINUOUS
 10
10.7203
 20
3.6510
  0
VERTEX
  8
LAYER10
 62
     1
  6
CONTINUOUS
 10
10.7233
 20
3.6514
  0
VERTEX
  8
LAYER10
 62
     1
  6
CONTINUOUS
 10
10.7262
 20
3.6515
  0
VERTEX
  8
LAYER10
 62
     1
  6
CONTINUOUS
 10
10.7291
 20
3.6515
  0
VERTEX
  8
LAYER10
 62
     1
  6
CONTINUOUS
 10
10.7320
 20
3.6513
  0
VERTEX
  8
LAYER10
 62
     1
  6
CONTINUOUS
 10
10.7349
 20
3.6510
  0
VERTEX
  8
LAYER10
 62
     1
  6
CONTINUOUS
 10
10.7378
 20
3.6506
  0
VERTEX
  8
LAYER10
 62
     1
  6
CONTINUOUS
 10
10.7406
 20
3.6502
  0
VERTEX
  8
LAYER10
 62
     1
  6
CONTINUOUS
 10
10.7435
 20
3.6497
  0
VERTEX
  8
LAYER10
 62
     1
  6
CONTINUOUS
 10
10.7464
 20
3.6492
  0
VERTEX
  8
LAYER10
 62
     1
  6
CONTINUOUS
 10
10.7489
 20
3.6488
  0
VERTEX
  8
LAYER10
 62
     1
  6
CONTINUOUS
 10
10.7514
 20
3.6484
  0
VERTEX
  8
LAYER10
 62
     1
  6
CONTINUOUS
 10
10.7539
 20
3.6480
  0
VERTEX
  8
LAYER10
 62
     1
  6
CONTINUOUS
 10
10.7564
 20
3.6476
  0
VERTEX
  8
LAYER10
 62
     1
  6
CONTINUOUS
 10
10.7589
 20
3.6472
  0
VERTEX
  8
LAYER10
 62
     1
  6
CONTINUOUS
 10
10.7614
 20
3.6468
  0
VERTEX
  8
LAYER10
 62
     1
  6
CONTINUOUS
 10
10.7639
 20
3.6464
  0
VERTEX
  8
LAYER10
 62
     1
  6
CONTINUOUS
 10
10.7665
 20
3.6461
  0
VERTEX
  8
LAYER10
 62
     1
  6
CONTINUOUS
 10
10.7690
 20
3.6457
  0
VERTEX
  8
LAYER10
 62
     1
  6
CONTINUOUS
 10
10.7715
 20
3.6454
  0
VERTEX
  8
LAYER10
 62
     1
  6
CONTINUOUS
 10
10.7741
 20
3.6450
  0
VERTEX
  8
LAYER10
 62
     1
  6
CONTINUOUS
 10
10.7766
 20
3.6446
  0
SEQEND
  8
LAYER10
  0
POLYLINE
  8
LAYER10
 62
     1
 66
     1
  6
CONTINUOUS
  0
VERTEX
  8
LAYER10
 62
     1
  6
CONTINUOUS
 10
10.0398
 20
3.8490
  0
VERTEX
  8
LAYER10
 62
     1
  6
CONTINUOUS
 10
10.0398
 20
3.8490
  0
VERTEX
  8
LAYER10
 62
     1
  6
CONTINUOUS
 10
10.0398
 20
3.8490
  0
VERTEX
  8
LAYER10
 62
     1
  6
CONTINUOUS
 10
10.0398
 20
3.8490
  0
VERTEX
  8
LAYER10
 62
     1
  6
CONTINUOUS
 10
10.0398
 20
3.8490
  0
VERTEX
  8
LAYER10
 62
     1
  6
CONTINUOUS
 10
10.0398
 20
3.8490
  0
VERTEX
  8
LAYER10
 62
     1
  6
CONTINUOUS
 10
10.0398
 20
3.8490
  0
VERTEX
  8
LAYER10
 62
     1
  6
CONTINUOUS
 10
10.0398
 20
3.8490
  0
VERTEX
  8
LAYER10
 62
     1
  6
CONTINUOUS
 10
10.0398
 20
3.8490
  0
VERTEX
  8
LAYER10
 62
     1
  6
CONTINUOUS
 10
10.0398
 20
3.8490
  0
VERTEX
  8
LAYER10
 62
     1
  6
CONTINUOUS
 10
10.0398
 20
3.8490
  0
VERTEX
  8
LAYER10
 62
     1
  6
CONTINUOUS
 10
10.0398
 20
3.8490
  0
VERTEX
  8
LAYER10
 62
     1
  6
CONTINUOUS
 10
10.0398
 20
3.8490
  0
VERTEX
  8
LAYER10
 62
     1
  6
CONTINUOUS
 10
10.0398
 20
3.8490
  0
VERTEX
  8
LAYER10
 62
     1
  6
CONTINUOUS
 10
10.0398
 20
3.8490
  0
VERTEX
  8
LAYER10
 62
     1
  6
CONTINUOUS
 10
10.0398
 20
3.8490
  0
VERTEX
  8
LAYER10
 62
     1
  6
CONTINUOUS
 10
10.0398
 20
3.8490
  0
VERTEX
  8
LAYER10
 62
     1
  6
CONTINUOUS
 10
10.0398
 20
3.8490
  0
VERTEX
  8
LAYER10
 62
     1
  6
CONTINUOUS
 10
10.0398
 20
3.8490
  0
VERTEX
  8
LAYER10
 62
     1
  6
CONTINUOUS
 10
10.0398
 20
3.8490
  0
VERTEX
  8
LAYER10
 62
     1
  6
CONTINUOUS
 10
10.0398
 20
3.8490
  0
VERTEX
  8
LAYER10
 62
     1
  6
CONTINUOUS
 10
10.0398
 20
3.8490
  0
VERTEX
  8
LAYER10
 62
     1
  6
CONTINUOUS
 10
10.0398
 20
3.8490
  0
VERTEX
  8
LAYER10
 62
     1
  6
CONTINUOUS
 10
10.0398
 20
3.8490
  0
VERTEX
  8
LAYER10
 62
     1
  6
CONTINUOUS
 10
10.0398
 20
3.8490
  0
SEQEND
  8
LAYER10
  0
POLYLINE
  8
LAYER10
 62
     1
 66
     1
  6
CONTINUOUS
  0
VERTEX
  8
LAYER10
 62
     1
  6
CONTINUOUS
 10
10.0398
 20
3.8490
  0
VERTEX
  8
LAYER10
 62
     1
  6
CONTINUOUS
 10
10.0401
 20
3.8489
  0
VERTEX
  8
LAYER10
 62
     1
  6
CONTINUOUS
 10
10.0404
 20
3.8488
  0
VERTEX
  8
LAYER10
 62
     1
  6
CONTINUOUS
 10
10.0407
 20
3.8488
  0
VERTEX
  8
LAYER10
 62
     1
  6
CONTINUOUS
 10
10.0409
 20
3.8487
  0
VERTEX
  8
LAYER10
 62
     1
  6
CONTINUOUS
 10
10.0412
 20
3.8486
  0
VERTEX
  8
LAYER10
 62
     1
  6
CONTINUOUS
 10
10.0415
 20
3.8486
  0
VERTEX
  8
LAYER10
 62
     1
  6
CONTINUOUS
 10
10.0417
 20
3.8485
  0
VERTEX
  8
LAYER10
 62
     1
  6
CONTINUOUS
 10
10.0420
 20
3.8484
  0
VERTEX
  8
LAYER10
 62
     1
  6
CONTINUOUS
 10
10.0422
 20
3.8484
  0
VERTEX
  8
LAYER10
 62
     1
  6
CONTINUOUS
 10
10.0424
 20
3.8483
  0
VERTEX
  8
LAYER10
 62
     1
  6
CONTINUOUS
 10
10.0426
 20
3.8483
  0
VERTEX
  8
LAYER10
 62
     1
  6
CONTINUOUS
 10
10.0428
 20
3.8482
  0
VERTEX
  8
LAYER10
 62
     1
  6
CONTINUOUS
 10
10.0430
 20
3.8482
  0
VERTEX
  8
LAYER10
 62
     1
  6
CONTINUOUS
 10
10.0431
 20
3.8481
  0
VERTEX
  8
LAYER10
 62
     1
  6
CONTINUOUS
 10
10.0432
 20
3.8481
  0
VERTEX
  8
LAYER10
 62
     1
  6
CONTINUOUS
 10
10.0432
 20
3.8481
  0
VERTEX
  8
LAYER10
 62
     1
  6
CONTINUOUS
 10
10.0433
 20
3.8481
  0
VERTEX
  8
LAYER10
 62
     1
  6
CONTINUOUS
 10
10.0432
 20
3.8481
  0
VERTEX
  8
LAYER10
 62
     1
  6
CONTINUOUS
 10
10.0432
 20
3.8481
  0
VERTEX
  8
LAYER10
 62
     1
  6
CONTINUOUS
 10
10.0431
 20
3.8481
  0
VERTEX
  8
LAYER10
 62
     1
  6
CONTINUOUS
 10
10.0431
 20
3.8481
  0
VERTEX
  8
LAYER10
 62
     1
  6
CONTINUOUS
 10
10.0430
 20
3.8482
  0
VERTEX
  8
LAYER10
 62
     1
  6
CONTINUOUS
 10
10.0429
 20
3.8482
  0
VERTEX
  8
LAYER10
 62
     1
  6
CONTINUOUS
 10
10.0428
 20
3.8482
  0
SEQEND
  8
LAYER10
  0
POLYLINE
  8
LAYER10
 62
     1
 66
     1
  6
CONTINUOUS
  0
VERTEX
  8
LAYER10
 62
     1
  6
CONTINUOUS
 10
10.0428
 20
3.6241
  0
VERTEX
  8
LAYER10
 62
     1
  6
CONTINUOUS
 10
10.0425
 20
3.6239
  0
VERTEX
  8
LAYER10
 62
     1
  6
CONTINUOUS
 10
10.0422
 20
3.6237
  0
VERTEX
  8
LAYER10
 62
     1
  6
CONTINUOUS
 10
10.0419
 20
3.6235
  0
VERTEX
  8
LAYER10
 62
     1
  6
CONTINUOUS
 10
10.0416
 20
3.6233
  0
VERTEX
  8
LAYER10
 62
     1
  6
CONTINUOUS
 10
10.0413
 20
3.6231
  0
VERTEX
  8
LAYER10
 62
     1
  6
CONTINUOUS
 10
10.0410
 20
3.6229
  0
VERTEX
  8
LAYER10
 62
     1
  6
CONTINUOUS
 10
10.0408
 20
3.6228
  0
VERTEX
  8
LAYER10
 62
     1
  6
CONTINUOUS
 10
10.0405
 20
3.6226
  0
VERTEX
  8
LAYER10
 62
     1
  6
CONTINUOUS
 10
10.0403
 20
3.6225
  0
VERTEX
  8
LAYER10
 62
     1
  6
CONTINUOUS
 10
10.0401
 20
3.6223
  0
VERTEX
  8
LAYER10
 62
     1
  6
CONTINUOUS
 10
10.0399
 20
3.6222
  0
VERTEX
  8
LAYER10
 62
     1
  6
CONTINUOUS
 10
10.0398
 20
3.6221
  0
VERTEX
  8
LAYER10
 62
     1
  6
CONTINUOUS
 10
10.0396
 20
3.6220
  0
VERTEX
  8
LAYER10
 62
     1
  6
CONTINUOUS
 10
10.0395
 20
3.6219
  0
VERTEX
  8
LAYER10
 62
     1
  6
CONTINUOUS
 10
10.0394
 20
3.6219
  0
VERTEX
  8
LAYER10
 62
     1
  6
CONTINUOUS
 10
10.0394
 20
3.6219
  0
VERTEX
  8
LAYER10
 62
     1
  6
CONTINUOUS
 10
10.0394
 20
3.6219
  0
VERTEX
  8
LAYER10
 62
     1
  6
CONTINUOUS
 10
10.0394
 20
3.6219
  0
VERTEX
  8
LAYER10
 62
     1
  6
CONTINUOUS
 10
10.0394
 20
3.6219
  0
VERTEX
  8
LAYER10
 62
     1
  6
CONTINUOUS
 10
10.0395
 20
3.6219
  0
VERTEX
  8
LAYER10
 62
     1
  6
CONTINUOUS
 10
10.0395
 20
3.6220
  0
VERTEX
  8
LAYER10
 62
     1
  6
CONTINUOUS
 10
10.0396
 20
3.6220
  0
VERTEX
  8
LAYER10
 62
     1
  6
CONTINUOUS
 10
10.0397
 20
3.6221
  0
VERTEX
  8
LAYER10
 62
     1
  6
CONTINUOUS
 10
10.0398
 20
3.6221
  0
SEQEND
  8
LAYER10
  0
POLYLINE
  8
LAYER10
 62
     1
 66
     1
  6
CONTINUOUS
  0
VERTEX
  8
LAYER10
 62
     1
  6
CONTINUOUS
 10
10.0398
 20
3.6221
  0
VERTEX
  8
LAYER10
 62
     1
  6
CONTINUOUS
 10
10.0398
 20
3.6221
  0
VERTEX
  8
LAYER10
 62
     1
  6
CONTINUOUS
 10
10.0398
 20
3.6221
  0
VERTEX
  8
LAYER10
 62
     1
  6
CONTINUOUS
 10
10.0398
 20
3.6221
  0
VERTEX
  8
LAYER10
 62
     1
  6
CONTINUOUS
 10
10.0398
 20
3.6221
  0
VERTEX
  8
LAYER10
 62
     1
  6
CONTINUOUS
 10
10.0398
 20
3.6221
  0
VERTEX
  8
LAYER10
 62
     1
  6
CONTINUOUS
 10
10.0398
 20
3.6221
  0
VERTEX
  8
LAYER10
 62
     1
  6
CONTINUOUS
 10
10.0398
 20
3.6221
  0
VERTEX
  8
LAYER10
 62
     1
  6
CONTINUOUS
 10
10.0398
 20
3.6221
  0
VERTEX
  8
LAYER10
 62
     1
  6
CONTINUOUS
 10
10.0398
 20
3.6221
  0
VERTEX
  8
LAYER10
 62
     1
  6
CONTINUOUS
 10
10.0398
 20
3.6221
  0
VERTEX
  8
LAYER10
 62
     1
  6
CONTINUOUS
 10
10.0398
 20
3.6221
  0
VERTEX
  8
LAYER10
 62
     1
  6
CONTINUOUS
 10
10.0398
 20
3.6221
  0
VERTEX
  8
LAYER10
 62
     1
  6
CONTINUOUS
 10
10.0398
 20
3.6221
  0
VERTEX
  8
LAYER10
 62
     1
  6
CONTINUOUS
 10
10.0398
 20
3.6221
  0
VERTEX
  8
LAYER10
 62
     1
  6
CONTINUOUS
 10
10.0398
 20
3.6221
  0
VERTEX
  8
LAYER10
 62
     1
  6
CONTINUOUS
 10
10.0398
 20
3.6221
  0
VERTEX
  8
LAYER10
 62
     1
  6
CONTINUOUS
 10
10.0398
 20
3.6221
  0
VERTEX
  8
LAYER10
 62
     1
  6
CONTINUOUS
 10
10.0398
 20
3.6221
  0
VERTEX
  8
LAYER10
 62
     1
  6
CONTINUOUS
 10
10.0398
 20
3.6221
  0
VERTEX
  8
LAYER10
 62
     1
  6
CONTINUOUS
 10
10.0398
 20
3.6221
  0
VERTEX
  8
LAYER10
 62
     1
  6
CONTINUOUS
 10
10.0398
 20
3.6221
  0
VERTEX
  8
LAYER10
 62
     1
  6
CONTINUOUS
 10
10.0398
 20
3.6221
  0
VERTEX
  8
LAYER10
 62
     1
  6
CONTINUOUS
 10
10.0398
 20
3.6221
  0
VERTEX
  8
LAYER10
 62
     1
  6
CONTINUOUS
 10
10.0398
 20
3.6221
  0
SEQEND
  8
LAYER10
  0
POLYLINE
  8
LAYER12
 62
     5
 66
     1
  6
CONTINUOUS
  0
VERTEX
  8
LAYER12
 62
     5
  6
CONTINUOUS
 10
11.0213
 20
3.5331
  0
VERTEX
  8
LAYER12
 62
     5
  6
CONTINUOUS
 10
10.0428
 20
3.5331
  0
SEQEND
  8
LAYER12
  0
POLYLINE
  8
LAYER12
 62
     5
 66
     1
  6
CONTINUOUS
  0
VERTEX
  8
LAYER12
 62
     5
  6
CONTINUOUS
 10
10.0428
 20
4.5561
  0
VERTEX
  8
LAYER12
 62
     5
  6
CONTINUOUS
 10
11.0213
 20
4.5561
  0
SEQEND
  8
LAYER12
  0
POLYLINE
  8
LAYER12
 62
     5
 66
     1
  6
CONTINUOUS
  0
VERTEX
  8
LAYER12
 62
     5
  6
CONTINUOUS
 10
11.0213
 20
4.5561
  0
VERTEX
  8
LAYER12
 62
     5
  6
CONTINUOUS
 10
11.0248
 20
4.5561
  0
SEQEND
  8
LAYER12
  0
POLYLINE
  8
LAYER12
 62
     5
 66
     1
  6
CONTINUOUS
  0
VERTEX
  8
LAYER12
 62
     5
  6
CONTINUOUS
 10
11.0248
 20
4.5561
  0
VERTEX
  8
LAYER12
 62
     5
  6
CONTINUOUS
 10
11.0284
 20
4.5561
  0
SEQEND
  8
LAYER12
  0
POLYLINE
  8
LAYER12
 62
     5
 66
     1
  6
CONTINUOUS
  0
VERTEX
  8
LAYER12
 62
     5
  6
CONTINUOUS
 10
11.0235
 20
3.5346
  0
VERTEX
  8
LAYER12
 62
     5
  6
CONTINUOUS
 10
11.0235
 20
4.5552
  0
SEQEND
  8
LAYER12
  0
POLYLINE
  8
LAYER12
 62
     5
 66
     1
  6
CONTINUOUS
  0
VERTEX
  8
LAYER12
 62
     5
  6
CONTINUOUS
 10
11.0235
 20
4.5552
  0
VERTEX
  8
LAYER12
 62
     5
  6
CONTINUOUS
 10
11.0235
 20
4.5588
  0
SEQEND
  8
LAYER12
  0
POLYLINE
  8
LAYER12
 62
     5
 66
     1
  6
CONTINUOUS
  0
VERTEX
  8
LAYER12
 62
     5
  6
CONTINUOUS
 10
10.0388
 20
4.5561
  0
VERTEX
  8
LAYER12
 62
     5
  6
CONTINUOUS
 10
10.0398
 20
4.5561
  0
SEQEND
  8
LAYER12
  0
POLYLINE
  8
LAYER12
 62
     5
 66
     1
  6
CONTINUOUS
  0
VERTEX
  8
LAYER12
 62
     5
  6
CONTINUOUS
 10
10.0398
 20
4.5561
  0
VERTEX
  8
LAYER12
 62
     5
  6
CONTINUOUS
 10
10.0428
 20
4.5561
  0
SEQEND
  8
LAYER12
  0
POLYLINE
  8
LAYER12
 62
     5
 66
     1
  6
CONTINUOUS
  0
VERTEX
  8
LAYER12
 62
     5
  6
CONTINUOUS
 10
11.0284
 20
3.5331
  0
VERTEX
  8
LAYER12
 62
     5
  6
CONTINUOUS
 10
11.0213
 20
3.5331
  0
SEQEND
  8
LAYER12
  0
POLYLINE
  8
LAYER12
 62
     5
 66
     1
  6
CONTINUOUS
  0
VERTEX
  8
LAYER12
 62
     5
  6
CONTINUOUS
 10
10.0428
 20
3.5331
  0
VERTEX
  8
LAYER12
 62
     5
  6
CONTINUOUS
 10
10.0398
 20
3.5331
  0
SEQEND
  8
LAYER12
  0
POLYLINE
  8
LAYER12
 62
     5
 66
     1
  6
CONTINUOUS
  0
VERTEX
  8
LAYER12
 62
     5
  6
CONTINUOUS
 10
10.0398
 20
3.5331
  0
VERTEX
  8
LAYER12
 62
     5
  6
CONTINUOUS
 10
10.0388
 20
3.5331
  0
SEQEND
  8
LAYER12
  0
POLYLINE
  8
LAYER12
 62
     5
 66
     1
  6
CONTINUOUS
  0
VERTEX
  8
LAYER12
 62
     5
  6
CONTINUOUS
 10
10.0398
 20
3.5351
  0
VERTEX
  8
LAYER12
 62
     5
  6
CONTINUOUS
 10
10.0398
 20
3.5346
  0
SEQEND
  8
LAYER12
  0
POLYLINE
  8
LAYER12
 62
     5
 66
     1
  6
CONTINUOUS
  0
VERTEX
  8
LAYER12
 62
     5
  6
CONTINUOUS
 10
10.0398
 20
4.5571
  0
VERTEX
  8
LAYER12
 62
     5
  6
CONTINUOUS
 10
10.0398
 20
4.5552
  0
SEQEND
  8
LAYER12
  0
POLYLINE
  8
LAYER12
 62
     5
 66
     1
  6
CONTINUOUS
  0
VERTEX
  8
LAYER12
 62
     5
  6
CONTINUOUS
 10
10.0398
 20
4.5552
  0
VERTEX
  8
LAYER12
 62
     5
  6
CONTINUOUS
 10
10.0398
 20
3.5351
  0
SEQEND
  8
LAYER12
  0
POLYLINE
  8
LAYER12
 62
     5
 66
     1
  6
CONTINUOUS
  0
VERTEX
  8
LAYER12
 62
     5
  6
CONTINUOUS
 10
10.0398
 20
4.5588
  0
VERTEX
  8
LAYER12
 62
     5
  6
CONTINUOUS
 10
10.0398
 20
4.5571
  0
SEQEND
  8
LAYER12
  0
ENDSEC
  0
EOF
