  0
SECTION
  2
HEADER
  9
$ACADVER
  1
AC1004
  9
$EXTMIN
 10
11.0213
 20
3.5261
  9
$EXTMAX
 10
12.0515
 20
4.5597
  9
$LIMMIN
 10
11.0213
 20
3.5261
  9
$LIMMAX
 10
12.0515
 20
4.5597
  9
$INSBASE
 10
0.0
 20
0.0
  9
$VIEWCTR
 10
7.21903
 20
4.5
  9
$VIEWSIZE
 40
9.0
  9
$SNAPMODE
 70
     0
  9
$SNAPUNIT
 10
1.0
 20
1.0
  9
$SNAPBASE
 10
0.0
 20
0.0
  9
$SNAPANG
 50
0.0
  9
$SNAPSTYLE
 70
     0
  9
$SNAPISOPAIR
 70
     0
  9
$GRIDMODE
 70
     0
  9
$GRIDUNIT
 10
0.0
 20
0.0
  9
$ORTHOMODE
 70
     0
  9
$REGENMODE
 70
     1
  9
$FILLMODE
 70
     1
  9
$QTEXTMODE
 70
     0
  9
$DRAGMODE
 70
     2
  9
$LTSCALE
 40
1.0
  9
$OSMODE
 70
     0
  9
$ATTMODE
 70
     1
  9
$TEXTSIZE
 40
0.2
  9
$TRACEWID
 40
0.05
  9
$TEXTSTYLE
  7
STANDARD
  9
$CLAYER
  8
0
  9
$CELTYPE
  6
BYLAYER
  9
$CECOLOR
 62
   256
  9
$DIMSCALE
 40
1.0
  9
$DIMASZ
 40
0.18
  9
$DIMEXO
 40
0.0625
  9
$DIMDLI
 40
0.38
  9
$DIMRND
 40
0.0
  9
$DIMDLE
 40
0.0
  9
$DIMEXE
 40
0.18
  9
$DIMTP
 40
0.0
  9
$DIMTM
 40
0.0
  9
$DIMTXT
 40
0.18
  9
$DIMCEN
 40
0.09
  9
$DIMTSZ
 40
0.0
  9
$DIMTOL
 70
     0
  9
$DIMLIM
 70
     0
  9
$DIMTIH
 70
     1
  9
$DIMTOH
 70
     1
  9
$DIMSE1
 70
     0
  9
$DIMSE2
 70
     0
  9
$DIMTAD
 70
     0
  9
$DIMZIN
 70
     0
  9
$DIMBLK
  1

  9
$DIMASO
 70
     1
  9
$DIMSHO
 70
     0
  9
$DIMPOST
  1

  9
$DIMAPOST
  1

  9
$DIMALT
 70
     0
  9
$DIMALTD
 70
     2
  9
$DIMALTF
 40
25.4
  9
$DIMLFAC
 40
1.0
  9
$LUNITS
 70
     2
  9
$LUPREC
 70
     4
  9
$AXISMODE
 70
     0
  9
$AXISUNIT
 10
0.0
 20
0.0
  9
$SKETCHINC
 40
0.1
  9
$FILLETRAD
 40
0.0
  9
$AUNITS
 70
     0
  9
$AUPREC
 70
     0
  9
$MENU
  1
acad
  9
$ELEVATION
 40
0.0
  9
$THICKNESS
 40
0.0
  9
$VIEWDIR
 10
0.0
 20
0.0
 30
1.0
  9
$LIMCHECK
 70
     0
  9
$BLIPMODE
 70
     1
  9
$CHAMFERA
 40
0.0
  9
$CHAMFERB
 40
0.0
  9
$FASTZOOM
 70
     1
  9
$SKPOLY
 70
     0
  9
$TDCREATE
 40
2447222.5666886573
  9
$TDUPDATE
 40
2447222.5666886573
  9
$TDINDWG
 40
0.0000000000
  9
$TDUSRTIMER
 40
0.0000000000
  9
$USRTIMER
 70
     1
  9
$ANGBASE
 50
0.0
  9
$ANGDIR
 70
     0
  9
$PDMODE
 70
     0
  9
$PDSIZE
 40
0.0
  9
$PLINEWID
 40
0.0
  9
$COORDS
 70
     0
  9
$SPLFRAME
 70
     0
  9
$SPLINESEGS
 70
     8
  9
$ATTDIA
 70
     0
  9
$ATTREQ
 70
     1
  9
$USERI1
 70
     0
  9
$USERI2
 70
     0
  9
$USERI3
 70
     0
  9
$USERI4
 70
     0
  9
$USERI5
 70
     0
  9
$USERR1
 40
0.0
  9
$USERR2
 40
0.0
  9
$USERR3
 40
0.0
  9
$USERR4
 40
0.0
  9
$USERR5
 40
0.0
  0
ENDSEC
  0
SECTION
  2
TABLES
  0
TABLE
  2
LTYPE
 70
     13
  0
LTYPE
  2
CONTINUOUS
 70
    64
  3
Solid line
 72
    65
 73
     0
 40
0.0
  0
LTYPE
  2
DASHED
 70
    64
  3
__ __ __ __ __ __ __ __ __ __ __ __ __ __ __
 72
    65
 73
     2
 40
0.75
 49
0.5
 49
-0.25
  0
LTYPE
  2
HIDDEN
 70
    64
  3
_ _ _ _ _ _ _ _ _ _ _ _ _ _ _ _ _ _ _ _ _ _ _
 72
    65
 73
     2
 40
0.375
 49
0.25
 49
-0.125
  0
LTYPE
  2
CENTER
 70
    64
  3
____ _ ____ _ ____ _ ____ _ ____ _ ____ _ ____
 72
    65
 73
     4
 40
2.0
 49
1.25
 49
-0.25
 49
0.25
 49
-0.25
  0
LTYPE
  2
PHANTOM
 70
    64
  3
_____ _ _ _____ _ _ _____ _ _ _____ _ _ ____
 72
    65
 73
     6
 40
2.5
 49
1.25
 49
-0.25
 49
0.25
 49
-0.25
 49
0.25
 49
-0.25
  0
LTYPE
  2
DOT
 70
    64
  3
...............................................
 72
    65
 73
     2
 40
0.25
 49
0.0
 49
-0.25
  0
LTYPE
  2
DASHDOT
 70
    64
  3
__ . __ . __ . __ . __ . __ . __ . __ . __ . __
 72
    65
 73
     4
 40
1.0
 49
0.5
 49
-0.25
 49
0.0
 49
-0.25
  0
LTYPE
  2
BORDER
 70
    64
  3
__ __ . __ __ . __ __ . __ __ . __ __ . __ __
 72
    65
 73
     6
 40
1.75
 49
0.5
 49
-0.25
 49
0.5
 49
-0.25
 49
0.0
 49
-0.25
  0
LTYPE
  2
DIVIDE
 70
    64
  3
__ . . __ . . __ . . __ . . __ . . __ . . __
 72
    65
 73
     6
 40
1.25
 49
0.5
 49
-0.25
 49
0.0
 49
-0.25
 49
0.0
 49
-0.25
  0
LTYPE
  2
DCTYPE1
 70
    64
  3
__ . . __ . . __ . . __ . . __ . . __ . . __
 72
    65
 73
     8
 40
2.5
 49
0.5
 49
-0.25
 49
0.125
 49
-0.25
 49
0.25
 49
-0.25
 49
0.125
 49
-0.25
  0
LTYPE
  2
DCTYPE2
 70
    64
  3
__ . . __ . . __ . . __ . . __ . . __ . . __
 72
    65
 73
     6
 40
2.05
 49
1.0
 49
-0.3
 49
0.15
 49
-0.15
 49
0.15
 49
-0.3
  0
LTYPE
  2
DCTYPE3
 70
    64
  3
__ . . __ . . __ . . __ . . __ . . __ . . __
 72
    65
 73
     6
 40
2.5
 49
0.8
 49
-0.2
 49
0.8
 49
-0.2
 49
0.3
 49
-0.2
  0
LTYPE
  2
DCTYPE4
 70
    64
  3
__ . . __ . . __ . . __ . . __ . . __ . . __
 72
    65
 73
     10
 40
3.97
 49
1.75
 49
-0.3
 49
0.3
 49
-0.3
 49
0.06
 49
-0.3
 49
0.06
 49
-0.3
 49
0.3
 49
-0.3
  0
ENDTAB
  0
TABLE
  2
LAYER
 70
    153
  0
LAYER
  2
LAYER1
 70
 64
 62
     7
  6
CONTINUOUS
  0
LAYER
  2
LAYER10
 70
 64
 62
     1
  6
CONTINUOUS
  0
LAYER
  2
LAYER12
 70
 64
 62
     5
  6
CONTINUOUS
  0
ENDTAB
  0
ENDSEC
  0
SECTION
  2
BLOCKS
  0
ENDSEC
  0
SECTION
  2
ENTITIES
  0
CIRCLE
  8
LAYER1
 62
     7
  6
CONTINUOUS
 10
11.9519
 20
4.5266
 40
0.0239
  0
CIRCLE
  8
LAYER1
 62
     7
  6
CONTINUOUS
 10
11.2381
 20
4.4923
 40
0.0203
  0
CIRCLE
  8
LAYER1
 62
     7
  6
CONTINUOUS
 10
11.2018
 20
4.4087
 40
0.0203
  0
CIRCLE
  8
LAYER1
 62
     7
  6
CONTINUOUS
 10
11.1978
 20
4.3432
 40
0.0153
  0
CIRCLE
  8
LAYER1
 62
     7
  6
CONTINUOUS
 10
11.3150
 20
4.2546
 40
0.0232
  0
CIRCLE
  8
LAYER1
 62
     7
  6
CONTINUOUS
 10
11.4033
 20
4.2334
 40
0.0135
  0
CIRCLE
  8
LAYER1
 62
     7
  6
CONTINUOUS
 10
11.4260
 20
4.2312
 40
0.0126
  0
CIRCLE
  8
LAYER1
 62
     7
  6
CONTINUOUS
 10
11.4887
 20
4.2398
 40
0.0153
  0
CIRCLE
  8
LAYER1
 62
     7
  6
CONTINUOUS
 10
11.5509
 20
4.2836
 40
0.0126
  0
CIRCLE
  8
LAYER1
 62
     7
  6
CONTINUOUS
 10
11.5790
 20
4.2589
 40
0.0178
  0
CIRCLE
  8
LAYER1
 62
     7
  6
CONTINUOUS
 10
11.6033
 20
4.3121
 40
0.0056
  0
CIRCLE
  8
LAYER1
 62
     7
  6
CONTINUOUS
 10
11.5371
 20
4.3563
 40
0.0267
  0
CIRCLE
  8
LAYER1
 62
     7
  6
CONTINUOUS
 10
11.4978
 20
4.4538
 40
0.0303
  0
CIRCLE
  8
LAYER1
 62
     7
  6
CONTINUOUS
 10
11.5943
 20
4.4000
 40
0.0277
  0
CIRCLE
  8
LAYER1
 62
     7
  6
CONTINUOUS
 10
11.6101
 20
4.5084
 40
0.0203
  0
CIRCLE
  8
LAYER1
 62
     7
  6
CONTINUOUS
 10
11.7253
 20
4.2311
 40
0.0107
  0
CIRCLE
  8
LAYER1
 62
     7
  6
CONTINUOUS
 10
11.7831
 20
4.2371
 40
0.0203
  0
CIRCLE
  8
LAYER1
 62
     7
  6
CONTINUOUS
 10
11.7770
 20
4.2973
 40
0.0091
  0
POLYLINE
  8
LAYER1
 62
     7
 66
     1
  6
CONTINUOUS
  0
VERTEX
  8
LAYER1
 62
     7
  6
CONTINUOUS
 10
11.8682
 20
4.2611
  0
VERTEX
  8
LAYER1
 62
     7
  6
CONTINUOUS
 10
11.8699
 20
4.2639
  0
VERTEX
  8
LAYER1
 62
     7
  6
CONTINUOUS
 10
11.8719
 20
4.2666
  0
VERTEX
  8
LAYER1
 62
     7
  6
CONTINUOUS
 10
11.8740
 20
4.2693
  0
VERTEX
  8
LAYER1
 62
     7
  6
CONTINUOUS
 10
11.8762
 20
4.2718
  0
VERTEX
  8
LAYER1
 62
     7
  6
CONTINUOUS
 10
11.8786
 20
4.2742
  0
VERTEX
  8
LAYER1
 62
     7
  6
CONTINUOUS
 10
11.8811
 20
4.2765
  0
VERTEX
  8
LAYER1
 62
     7
  6
CONTINUOUS
 10
11.8837
 20
4.2786
  0
VERTEX
  8
LAYER1
 62
     7
  6
CONTINUOUS
 10
11.8864
 20
4.2806
  0
VERTEX
  8
LAYER1
 62
     7
  6
CONTINUOUS
 10
11.8892
 20
4.2824
  0
VERTEX
  8
LAYER1
 62
     7
  6
CONTINUOUS
 10
11.8920
 20
4.2840
  0
VERTEX
  8
LAYER1
 62
     7
  6
CONTINUOUS
 10
11.8950
 20
4.2855
  0
VERTEX
  8
LAYER1
 62
     7
  6
CONTINUOUS
 10
11.8979
 20
4.2867
  0
VERTEX
  8
LAYER1
 62
     7
  6
CONTINUOUS
 10
11.9015
 20
4.2880
  0
VERTEX
  8
LAYER1
 62
     7
  6
CONTINUOUS
 10
11.9050
 20
4.2889
  0
VERTEX
  8
LAYER1
 62
     7
  6
CONTINUOUS
 10
11.9087
 20
4.2897
  0
VERTEX
  8
LAYER1
 62
     7
  6
CONTINUOUS
 10
11.9123
 20
4.2902
  0
VERTEX
  8
LAYER1
 62
     7
  6
CONTINUOUS
 10
11.9161
 20
4.2907
  0
VERTEX
  8
LAYER1
 62
     7
  6
CONTINUOUS
 10
11.9198
 20
4.2910
  0
VERTEX
  8
LAYER1
 62
     7
  6
CONTINUOUS
 10
11.9236
 20
4.2912
  0
VERTEX
  8
LAYER1
 62
     7
  6
CONTINUOUS
 10
11.9275
 20
4.2914
  0
VERTEX
  8
LAYER1
 62
     7
  6
CONTINUOUS
 10
11.9313
 20
4.2916
  0
VERTEX
  8
LAYER1
 62
     7
  6
CONTINUOUS
 10
11.9352
 20
4.2918
  0
VERTEX
  8
LAYER1
 62
     7
  6
CONTINUOUS
 10
11.9392
 20
4.2921
  0
VERTEX
  8
LAYER1
 62
     7
  6
CONTINUOUS
 10
11.9431
 20
4.2925
  0
VERTEX
  8
LAYER1
 62
     7
  6
CONTINUOUS
 10
11.9471
 20
4.2930
  0
VERTEX
  8
LAYER1
 62
     7
  6
CONTINUOUS
 10
11.9511
 20
4.2936
  0
VERTEX
  8
LAYER1
 62
     7
  6
CONTINUOUS
 10
11.9550
 20
4.2942
  0
VERTEX
  8
LAYER1
 62
     7
  6
CONTINUOUS
 10
11.9590
 20
4.2948
  0
VERTEX
  8
LAYER1
 62
     7
  6
CONTINUOUS
 10
11.9629
 20
4.2953
  0
VERTEX
  8
LAYER1
 62
     7
  6
CONTINUOUS
 10
11.9668
 20
4.2957
  0
VERTEX
  8
LAYER1
 62
     7
  6
CONTINUOUS
 10
11.9706
 20
4.2960
  0
VERTEX
  8
LAYER1
 62
     7
  6
CONTINUOUS
 10
11.9743
 20
4.2960
  0
VERTEX
  8
LAYER1
 62
     7
  6
CONTINUOUS
 10
11.9780
 20
4.2958
  0
VERTEX
  8
LAYER1
 62
     7
  6
CONTINUOUS
 10
11.9816
 20
4.2953
  0
VERTEX
  8
LAYER1
 62
     7
  6
CONTINUOUS
 10
11.9850
 20
4.2945
  0
VERTEX
  8
LAYER1
 62
     7
  6
CONTINUOUS
 10
11.9884
 20
4.2933
  0
VERTEX
  8
LAYER1
 62
     7
  6
CONTINUOUS
 10
11.9907
 20
4.2921
  0
VERTEX
  8
LAYER1
 62
     7
  6
CONTINUOUS
 10
11.9929
 20
4.2908
  0
VERTEX
  8
LAYER1
 62
     7
  6
CONTINUOUS
 10
11.9950
 20
4.2892
  0
VERTEX
  8
LAYER1
 62
     7
  6
CONTINUOUS
 10
11.9971
 20
4.2875
  0
VERTEX
  8
LAYER1
 62
     7
  6
CONTINUOUS
 10
11.9990
 20
4.2856
  0
VERTEX
  8
LAYER1
 62
     7
  6
CONTINUOUS
 10
12.0009
 20
4.2835
  0
VERTEX
  8
LAYER1
 62
     7
  6
CONTINUOUS
 10
12.0026
 20
4.2813
  0
VERTEX
  8
LAYER1
 62
     7
  6
CONTINUOUS
 10
12.0041
 20
4.2789
  0
VERTEX
  8
LAYER1
 62
     7
  6
CONTINUOUS
 10
12.0056
 20
4.2764
  0
VERTEX
  8
LAYER1
 62
     7
  6
CONTINUOUS
 10
12.0068
 20
4.2739
  0
VERTEX
  8
LAYER1
 62
     7
  6
CONTINUOUS
 10
12.0080
 20
4.2712
  0
VERTEX
  8
LAYER1
 62
     7
  6
CONTINUOUS
 10
12.0089
 20
4.2684
  0
VERTEX
  8
LAYER1
 62
     7
  6
CONTINUOUS
 10
12.0098
 20
4.2653
  0
VERTEX
  8
LAYER1
 62
     7
  6
CONTINUOUS
 10
12.0104
 20
4.2621
  0
VERTEX
  8
LAYER1
 62
     7
  6
CONTINUOUS
 10
12.0108
 20
4.2589
  0
VERTEX
  8
LAYER1
 62
     7
  6
CONTINUOUS
 10
12.0110
 20
4.2557
  0
VERTEX
  8
LAYER1
 62
     7
  6
CONTINUOUS
 10
12.0110
 20
4.2525
  0
VERTEX
  8
LAYER1
 62
     7
  6
CONTINUOUS
 10
12.0107
 20
4.2494
  0
VERTEX
  8
LAYER1
 62
     7
  6
CONTINUOUS
 10
12.0103
 20
4.2463
  0
VERTEX
  8
LAYER1
 62
     7
  6
CONTINUOUS
 10
12.0096
 20
4.2434
  0
VERTEX
  8
LAYER1
 62
     7
  6
CONTINUOUS
 10
12.0086
 20
4.2406
  0
VERTEX
  8
LAYER1
 62
     7
  6
CONTINUOUS
 10
12.0075
 20
4.2379
  0
VERTEX
  8
LAYER1
 62
     7
  6
CONTINUOUS
 10
12.0061
 20
4.2354
  0
VERTEX
  8
LAYER1
 62
     7
  6
CONTINUOUS
 10
12.0045
 20
4.2332
  0
VERTEX
  8
LAYER1
 62
     7
  6
CONTINUOUS
 10
12.0022
 20
4.2307
  0
VERTEX
  8
LAYER1
 62
     7
  6
CONTINUOUS
 10
11.9996
 20
4.2286
  0
VERTEX
  8
LAYER1
 62
     7
  6
CONTINUOUS
 10
11.9968
 20
4.2268
  0
VERTEX
  8
LAYER1
 62
     7
  6
CONTINUOUS
 10
11.9937
 20
4.2252
  0
VERTEX
  8
LAYER1
 62
     7
  6
CONTINUOUS
 10
11.9904
 20
4.2238
  0
VERTEX
  8
LAYER1
 62
     7
  6
CONTINUOUS
 10
11.9869
 20
4.2226
  0
VERTEX
  8
LAYER1
 62
     7
  6
CONTINUOUS
 10
11.9833
 20
4.2216
  0
VERTEX
  8
LAYER1
 62
     7
  6
CONTINUOUS
 10
11.9796
 20
4.2207
  0
VERTEX
  8
LAYER1
 62
     7
  6
CONTINUOUS
 10
11.9758
 20
4.2198
  0
VERTEX
  8
LAYER1
 62
     7
  6
CONTINUOUS
 10
11.9720
 20
4.2190
  0
VERTEX
  8
LAYER1
 62
     7
  6
CONTINUOUS
 10
11.9682
 20
4.2182
  0
VERTEX
  8
LAYER1
 62
     7
  6
CONTINUOUS
 10
11.9645
 20
4.2174
  0
VERTEX
  8
LAYER1
 62
     7
  6
CONTINUOUS
 10
11.9613
 20
4.2167
  0
VERTEX
  8
LAYER1
 62
     7
  6
CONTINUOUS
 10
11.9582
 20
4.2159
  0
VERTEX
  8
LAYER1
 62
     7
  6
CONTINUOUS
 10
11.9552
 20
4.2151
  0
VERTEX
  8
LAYER1
 62
     7
  6
CONTINUOUS
 10
11.9522
 20
4.2143
  0
VERTEX
  8
LAYER1
 62
     7
  6
CONTINUOUS
 10
11.9492
 20
4.2134
  0
VERTEX
  8
LAYER1
 62
     7
  6
CONTINUOUS
 10
11.9463
 20
4.2125
  0
VERTEX
  8
LAYER1
 62
     7
  6
CONTINUOUS
 10
11.9434
 20
4.2116
  0
VERTEX
  8
LAYER1
 62
     7
  6
CONTINUOUS
 10
11.9406
 20
4.2107
  0
VERTEX
  8
LAYER1
 62
     7
  6
CONTINUOUS
 10
11.9378
 20
4.2097
  0
VERTEX
  8
LAYER1
 62
     7
  6
CONTINUOUS
 10
11.9350
 20
4.2088
  0
VERTEX
  8
LAYER1
 62
     7
  6
CONTINUOUS
 10
11.9322
 20
4.2078
  0
VERTEX
  8
LAYER1
 62
     7
  6
CONTINUOUS
 10
11.9294
 20
4.2068
  0
VERTEX
  8
LAYER1
 62
     7
  6
CONTINUOUS
 10
11.9267
 20
4.2058
  0
VERTEX
  8
LAYER1
 62
     7
  6
CONTINUOUS
 10
11.9240
 20
4.2048
  0
VERTEX
  8
LAYER1
 62
     7
  6
CONTINUOUS
 10
11.9212
 20
4.2038
  0
VERTEX
  8
LAYER1
 62
     7
  6
CONTINUOUS
 10
11.9185
 20
4.2028
  0
VERTEX
  8
LAYER1
 62
     7
  6
CONTINUOUS
 10
11.9157
 20
4.2018
  0
VERTEX
  8
LAYER1
 62
     7
  6
CONTINUOUS
 10
11.9128
 20
4.2009
  0
VERTEX
  8
LAYER1
 62
     7
  6
CONTINUOUS
 10
11.9100
 20
4.1999
  0
VERTEX
  8
LAYER1
 62
     7
  6
CONTINUOUS
 10
11.9070
 20
4.1991
  0
VERTEX
  8
LAYER1
 62
     7
  6
CONTINUOUS
 10
11.9040
 20
4.1983
  0
VERTEX
  8
LAYER1
 62
     7
  6
CONTINUOUS
 10
11.9009
 20
4.1975
  0
VERTEX
  8
LAYER1
 62
     7
  6
CONTINUOUS
 10
11.8977
 20
4.1968
  0
VERTEX
  8
LAYER1
 62
     7
  6
CONTINUOUS
 10
11.8944
 20
4.1961
  0
VERTEX
  8
LAYER1
 62
     7
  6
CONTINUOUS
 10
11.8911
 20
4.1956
  0
VERTEX
  8
LAYER1
 62
     7
  6
CONTINUOUS
 10
11.8877
 20
4.1951
  0
VERTEX
  8
LAYER1
 62
     7
  6
CONTINUOUS
 10
11.8843
 20
4.1948
  0
VERTEX
  8
LAYER1
 62
     7
  6
CONTINUOUS
 10
11.8809
 20
4.1946
  0
VERTEX
  8
LAYER1
 62
     7
  6
CONTINUOUS
 10
11.8775
 20
4.1946
  0
VERTEX
  8
LAYER1
 62
     7
  6
CONTINUOUS
 10
11.8743
 20
4.1947
  0
VERTEX
  8
LAYER1
 62
     7
  6
CONTINUOUS
 10
11.8712
 20
4.1951
  0
VERTEX
  8
LAYER1
 62
     7
  6
CONTINUOUS
 10
11.8682
 20
4.1956
  0
VERTEX
  8
LAYER1
 62
     7
  6
CONTINUOUS
 10
11.8655
 20
4.1965
  0
VERTEX
  8
LAYER1
 62
     7
  6
CONTINUOUS
 10
11.8631
 20
4.1975
  0
VERTEX
  8
LAYER1
 62
     7
  6
CONTINUOUS
 10
11.8609
 20
4.1989
  0
VERTEX
  8
LAYER1
 62
     7
  6
CONTINUOUS
 10
11.8591
 20
4.2006
  0
VERTEX
  8
LAYER1
 62
     7
  6
CONTINUOUS
 10
11.8577
 20
4.2026
  0
VERTEX
  8
LAYER1
 62
     7
  6
CONTINUOUS
 10
11.8566
 20
4.2049
  0
VERTEX
  8
LAYER1
 62
     7
  6
CONTINUOUS
 10
11.8559
 20
4.2074
  0
VERTEX
  8
LAYER1
 62
     7
  6
CONTINUOUS
 10
11.8554
 20
4.2101
  0
VERTEX
  8
LAYER1
 62
     7
  6
CONTINUOUS
 10
11.8552
 20
4.2131
  0
VERTEX
  8
LAYER1
 62
     7
  6
CONTINUOUS
 10
11.8553
 20
4.2162
  0
VERTEX
  8
LAYER1
 62
     7
  6
CONTINUOUS
 10
11.8555
 20
4.2194
  0
VERTEX
  8
LAYER1
 62
     7
  6
CONTINUOUS
 10
11.8559
 20
4.2226
  0
VERTEX
  8
LAYER1
 62
     7
  6
CONTINUOUS
 10
11.8564
 20
4.2259
  0
VERTEX
  8
LAYER1
 62
     7
  6
CONTINUOUS
 10
11.8571
 20
4.2293
  0
VERTEX
  8
LAYER1
 62
     7
  6
CONTINUOUS
 10
11.8578
 20
4.2326
  0
VERTEX
  8
LAYER1
 62
     7
  6
CONTINUOUS
 10
11.8585
 20
4.2358
  0
VERTEX
  8
LAYER1
 62
     7
  6
CONTINUOUS
 10
11.8591
 20
4.2382
  0
VERTEX
  8
LAYER1
 62
     7
  6
CONTINUOUS
 10
11.8597
 20
4.2406
  0
VERTEX
  8
LAYER1
 62
     7
  6
CONTINUOUS
 10
11.8604
 20
4.2429
  0
VERTEX
  8
LAYER1
 62
     7
  6
CONTINUOUS
 10
11.8610
 20
4.2451
  0
VERTEX
  8
LAYER1
 62
     7
  6
CONTINUOUS
 10
11.8617
 20
4.2473
  0
VERTEX
  8
LAYER1
 62
     7
  6
CONTINUOUS
 10
11.8625
 20
4.2495
  0
VERTEX
  8
LAYER1
 62
     7
  6
CONTINUOUS
 10
11.8633
 20
4.2515
  0
VERTEX
  8
LAYER1
 62
     7
  6
CONTINUOUS
 10
11.8641
 20
4.2536
  0
VERTEX
  8
LAYER1
 62
     7
  6
CONTINUOUS
 10
11.8650
 20
4.2555
  0
VERTEX
  8
LAYER1
 62
     7
  6
CONTINUOUS
 10
11.8660
 20
4.2574
  0
VERTEX
  8
LAYER1
 62
     7
  6
CONTINUOUS
 10
11.8670
 20
4.2593
  0
VERTEX
  8
LAYER1
 62
     7
  6
CONTINUOUS
 10
11.8682
 20
4.2611
  0
SEQEND
  8
LAYER1
  0
CIRCLE
  8
LAYER1
 62
     7
  6
CONTINUOUS
 10
11.9753
 20
4.3257
 40
0.0147
  0
CIRCLE
  8
LAYER1
 62
     7
  6
CONTINUOUS
 10
11.9844
 20
4.3862
 40
0.0128
  0
POLYLINE
  8
LAYER1
 62
     7
 66
     1
  6
CONTINUOUS
  0
VERTEX
  8
LAYER1
 62
     7
  6
CONTINUOUS
 10
11.9056
 20
4.1259
  0
VERTEX
  8
LAYER1
 62
     7
  6
CONTINUOUS
 10
11.9070
 20
4.1278
  0
VERTEX
  8
LAYER1
 62
     7
  6
CONTINUOUS
 10
11.9087
 20
4.1295
  0
VERTEX
  8
LAYER1
 62
     7
  6
CONTINUOUS
 10
11.9107
 20
4.1309
  0
VERTEX
  8
LAYER1
 62
     7
  6
CONTINUOUS
 10
11.9129
 20
4.1322
  0
VERTEX
  8
LAYER1
 62
     7
  6
CONTINUOUS
 10
11.9154
 20
4.1333
  0
VERTEX
  8
LAYER1
 62
     7
  6
CONTINUOUS
 10
11.9181
 20
4.1343
  0
VERTEX
  8
LAYER1
 62
     7
  6
CONTINUOUS
 10
11.9209
 20
4.1350
  0
VERTEX
  8
LAYER1
 62
     7
  6
CONTINUOUS
 10
11.9238
 20
4.1356
  0
VERTEX
  8
LAYER1
 62
     7
  6
CONTINUOUS
 10
11.9268
 20
4.1360
  0
VERTEX
  8
LAYER1
 62
     7
  6
CONTINUOUS
 10
11.9298
 20
4.1363
  0
VERTEX
  8
LAYER1
 62
     7
  6
CONTINUOUS
 10
11.9327
 20
4.1365
  0
VERTEX
  8
LAYER1
 62
     7
  6
CONTINUOUS
 10
11.9356
 20
4.1365
  0
VERTEX
  8
LAYER1
 62
     7
  6
CONTINUOUS
 10
11.9375
 20
4.1364
  0
VERTEX
  8
LAYER1
 62
     7
  6
CONTINUOUS
 10
11.9393
 20
4.1362
  0
VERTEX
  8
LAYER1
 62
     7
  6
CONTINUOUS
 10
11.9410
 20
4.1361
  0
VERTEX
  8
LAYER1
 62
     7
  6
CONTINUOUS
 10
11.9428
 20
4.1358
  0
VERTEX
  8
LAYER1
 62
     7
  6
CONTINUOUS
 10
11.9444
 20
4.1355
  0
VERTEX
  8
LAYER1
 62
     7
  6
CONTINUOUS
 10
11.9461
 20
4.1351
  0
VERTEX
  8
LAYER1
 62
     7
  6
CONTINUOUS
 10
11.9478
 20
4.1347
  0
VERTEX
  8
LAYER1
 62
     7
  6
CONTINUOUS
 10
11.9494
 20
4.1343
  0
VERTEX
  8
LAYER1
 62
     7
  6
CONTINUOUS
 10
11.9510
 20
4.1337
  0
VERTEX
  8
LAYER1
 62
     7
  6
CONTINUOUS
 10
11.9526
 20
4.1331
  0
VERTEX
  8
LAYER1
 62
     7
  6
CONTINUOUS
 10
11.9542
 20
4.1325
  0
VERTEX
  8
LAYER1
 62
     7
  6
CONTINUOUS
 10
11.9558
 20
4.1317
  0
VERTEX
  8
LAYER1
 62
     7
  6
CONTINUOUS
 10
11.9580
 20
4.1307
  0
VERTEX
  8
LAYER1
 62
     7
  6
CONTINUOUS
 10
11.9602
 20
4.1295
  0
VERTEX
  8
LAYER1
 62
     7
  6
CONTINUOUS
 10
11.9623
 20
4.1282
  0
VERTEX
  8
LAYER1
 62
     7
  6
CONTINUOUS
 10
11.9643
 20
4.1268
  0
VERTEX
  8
LAYER1
 62
     7
  6
CONTINUOUS
 10
11.9663
 20
4.1253
  0
VERTEX
  8
LAYER1
 62
     7
  6
CONTINUOUS
 10
11.9682
 20
4.1237
  0
VERTEX
  8
LAYER1
 62
     7
  6
CONTINUOUS
 10
11.9700
 20
4.1219
  0
VERTEX
  8
LAYER1
 62
     7
  6
CONTINUOUS
 10
11.9716
 20
4.1201
  0
VERTEX
  8
LAYER1
 62
     7
  6
CONTINUOUS
 10
11.9730
 20
4.1182
  0
VERTEX
  8
LAYER1
 62
     7
  6
CONTINUOUS
 10
11.9743
 20
4.1162
  0
VERTEX
  8
LAYER1
 62
     7
  6
CONTINUOUS
 10
11.9754
 20
4.1141
  0
VERTEX
  8
LAYER1
 62
     7
  6
CONTINUOUS
 10
11.9763
 20
4.1120
  0
VERTEX
  8
LAYER1
 62
     7
  6
CONTINUOUS
 10
11.9768
 20
4.1099
  0
VERTEX
  8
LAYER1
 62
     7
  6
CONTINUOUS
 10
11.9772
 20
4.1078
  0
VERTEX
  8
LAYER1
 62
     7
  6
CONTINUOUS
 10
11.9774
 20
4.1057
  0
VERTEX
  8
LAYER1
 62
     7
  6
CONTINUOUS
 10
11.9774
 20
4.1035
  0
VERTEX
  8
LAYER1
 62
     7
  6
CONTINUOUS
 10
11.9773
 20
4.1013
  0
VERTEX
  8
LAYER1
 62
     7
  6
CONTINUOUS
 10
11.9770
 20
4.0992
  0
VERTEX
  8
LAYER1
 62
     7
  6
CONTINUOUS
 10
11.9765
 20
4.0970
  0
VERTEX
  8
LAYER1
 62
     7
  6
CONTINUOUS
 10
11.9758
 20
4.0948
  0
VERTEX
  8
LAYER1
 62
     7
  6
CONTINUOUS
 10
11.9750
 20
4.0927
  0
VERTEX
  8
LAYER1
 62
     7
  6
CONTINUOUS
 10
11.9740
 20
4.0907
  0
VERTEX
  8
LAYER1
 62
     7
  6
CONTINUOUS
 10
11.9729
 20
4.0887
  0
VERTEX
  8
LAYER1
 62
     7
  6
CONTINUOUS
 10
11.9716
 20
4.0867
  0
VERTEX
  8
LAYER1
 62
     7
  6
CONTINUOUS
 10
11.9707
 20
4.0854
  0
VERTEX
  8
LAYER1
 62
     7
  6
CONTINUOUS
 10
11.9696
 20
4.0842
  0
VERTEX
  8
LAYER1
 62
     7
  6
CONTINUOUS
 10
11.9685
 20
4.0830
  0
VERTEX
  8
LAYER1
 62
     7
  6
CONTINUOUS
 10
11.9674
 20
4.0819
  0
VERTEX
  8
LAYER1
 62
     7
  6
CONTINUOUS
 10
11.9662
 20
4.0808
  0
VERTEX
  8
LAYER1
 62
     7
  6
CONTINUOUS
 10
11.9649
 20
4.0799
  0
VERTEX
  8
LAYER1
 62
     7
  6
CONTINUOUS
 10
11.9636
 20
4.0790
  0
VERTEX
  8
LAYER1
 62
     7
  6
CONTINUOUS
 10
11.9623
 20
4.0783
  0
VERTEX
  8
LAYER1
 62
     7
  6
CONTINUOUS
 10
11.9609
 20
4.0776
  0
VERTEX
  8
LAYER1
 62
     7
  6
CONTINUOUS
 10
11.9596
 20
4.0771
  0
VERTEX
  8
LAYER1
 62
     7
  6
CONTINUOUS
 10
11.9581
 20
4.0767
  0
VERTEX
  8
LAYER1
 62
     7
  6
CONTINUOUS
 10
11.9567
 20
4.0764
  0
VERTEX
  8
LAYER1
 62
     7
  6
CONTINUOUS
 10
11.9549
 20
4.0763
  0
VERTEX
  8
LAYER1
 62
     7
  6
CONTINUOUS
 10
11.9531
 20
4.0764
  0
VERTEX
  8
LAYER1
 62
     7
  6
CONTINUOUS
 10
11.9513
 20
4.0767
  0
VERTEX
  8
LAYER1
 62
     7
  6
CONTINUOUS
 10
11.9495
 20
4.0771
  0
VERTEX
  8
LAYER1
 62
     7
  6
CONTINUOUS
 10
11.9477
 20
4.0778
  0
VERTEX
  8
LAYER1
 62
     7
  6
CONTINUOUS
 10
11.9460
 20
4.0786
  0
VERTEX
  8
LAYER1
 62
     7
  6
CONTINUOUS
 10
11.9442
 20
4.0795
  0
VERTEX
  8
LAYER1
 62
     7
  6
CONTINUOUS
 10
11.9426
 20
4.0806
  0
VERTEX
  8
LAYER1
 62
     7
  6
CONTINUOUS
 10
11.9409
 20
4.0818
  0
VERTEX
  8
LAYER1
 62
     7
  6
CONTINUOUS
 10
11.9394
 20
4.0832
  0
VERTEX
  8
LAYER1
 62
     7
  6
CONTINUOUS
 10
11.9379
 20
4.0846
  0
VERTEX
  8
LAYER1
 62
     7
  6
CONTINUOUS
 10
11.9364
 20
4.0862
  0
VERTEX
  8
LAYER1
 62
     7
  6
CONTINUOUS
 10
11.9352
 20
4.0877
  0
VERTEX
  8
LAYER1
 62
     7
  6
CONTINUOUS
 10
11.9340
 20
4.0893
  0
VERTEX
  8
LAYER1
 62
     7
  6
CONTINUOUS
 10
11.9328
 20
4.0909
  0
VERTEX
  8
LAYER1
 62
     7
  6
CONTINUOUS
 10
11.9316
 20
4.0924
  0
VERTEX
  8
LAYER1
 62
     7
  6
CONTINUOUS
 10
11.9305
 20
4.0940
  0
VERTEX
  8
LAYER1
 62
     7
  6
CONTINUOUS
 10
11.9293
 20
4.0954
  0
VERTEX
  8
LAYER1
 62
     7
  6
CONTINUOUS
 10
11.9282
 20
4.0968
  0
VERTEX
  8
LAYER1
 62
     7
  6
CONTINUOUS
 10
11.9269
 20
4.0980
  0
VERTEX
  8
LAYER1
 62
     7
  6
CONTINUOUS
 10
11.9256
 20
4.0991
  0
VERTEX
  8
LAYER1
 62
     7
  6
CONTINUOUS
 10
11.9242
 20
4.0999
  0
VERTEX
  8
LAYER1
 62
     7
  6
CONTINUOUS
 10
11.9227
 20
4.1006
  0
VERTEX
  8
LAYER1
 62
     7
  6
CONTINUOUS
 10
11.9211
 20
4.1010
  0
VERTEX
  8
LAYER1
 62
     7
  6
CONTINUOUS
 10
11.9199
 20
4.1011
  0
VERTEX
  8
LAYER1
 62
     7
  6
CONTINUOUS
 10
11.9186
 20
4.1011
  0
VERTEX
  8
LAYER1
 62
     7
  6
CONTINUOUS
 10
11.9173
 20
4.1011
  0
VERTEX
  8
LAYER1
 62
     7
  6
CONTINUOUS
 10
11.9159
 20
4.1009
  0
VERTEX
  8
LAYER1
 62
     7
  6
CONTINUOUS
 10
11.9146
 20
4.1007
  0
VERTEX
  8
LAYER1
 62
     7
  6
CONTINUOUS
 10
11.9132
 20
4.1006
  0
VERTEX
  8
LAYER1
 62
     7
  6
CONTINUOUS
 10
11.9119
 20
4.1004
  0
VERTEX
  8
LAYER1
 62
     7
  6
CONTINUOUS
 10
11.9106
 20
4.1003
  0
VERTEX
  8
LAYER1
 62
     7
  6
CONTINUOUS
 10
11.9093
 20
4.1002
  0
VERTEX
  8
LAYER1
 62
     7
  6
CONTINUOUS
 10
11.9081
 20
4.1003
  0
VERTEX
  8
LAYER1
 62
     7
  6
CONTINUOUS
 10
11.9070
 20
4.1004
  0
VERTEX
  8
LAYER1
 62
     7
  6
CONTINUOUS
 10
11.9060
 20
4.1008
  0
VERTEX
  8
LAYER1
 62
     7
  6
CONTINUOUS
 10
11.9046
 20
4.1017
  0
VERTEX
  8
LAYER1
 62
     7
  6
CONTINUOUS
 10
11.9035
 20
4.1030
  0
VERTEX
  8
LAYER1
 62
     7
  6
CONTINUOUS
 10
11.9026
 20
4.1047
  0
VERTEX
  8
LAYER1
 62
     7
  6
CONTINUOUS
 10
11.9020
 20
4.1067
  0
VERTEX
  8
LAYER1
 62
     7
  6
CONTINUOUS
 10
11.9017
 20
4.1089
  0
VERTEX
  8
LAYER1
 62
     7
  6
CONTINUOUS
 10
11.9016
 20
4.1113
  0
VERTEX
  8
LAYER1
 62
     7
  6
CONTINUOUS
 10
11.9018
 20
4.1138
  0
VERTEX
  8
LAYER1
 62
     7
  6
CONTINUOUS
 10
11.9022
 20
4.1164
  0
VERTEX
  8
LAYER1
 62
     7
  6
CONTINUOUS
 10
11.9028
 20
4.1189
  0
VERTEX
  8
LAYER1
 62
     7
  6
CONTINUOUS
 10
11.9035
 20
4.1214
  0
VERTEX
  8
LAYER1
 62
     7
  6
CONTINUOUS
 10
11.9045
 20
4.1238
  0
VERTEX
  8
LAYER1
 62
     7
  6
CONTINUOUS
 10
11.9056
 20
4.1259
  0
SEQEND
  8
LAYER1
  0
CIRCLE
  8
LAYER1
 62
     7
  6
CONTINUOUS
 10
11.9554
 20
4.0010
 40
0.0169
  0
CIRCLE
  8
LAYER1
 62
     7
  6
CONTINUOUS
 10
12.0041
 20
3.9489
 40
0.0176
  0
CIRCLE
  8
LAYER1
 62
     7
  6
CONTINUOUS
 10
11.3274
 20
3.9530
 40
0.0178
  0
CIRCLE
  8
LAYER1
 62
     7
  6
CONTINUOUS
 10
11.3534
 20
3.9056
 40
0.0215
  0
CIRCLE
  8
LAYER1
 62
     7
  6
CONTINUOUS
 10
11.2526
 20
3.7631
 40
0.0256
  0
CIRCLE
  8
LAYER1
 62
     7
  6
CONTINUOUS
 10
11.3437
 20
3.7294
 40
0.0201
  0
CIRCLE
  8
LAYER1
 62
     7
  6
CONTINUOUS
 10
11.3761
 20
3.7475
 40
0.0216
  0
CIRCLE
  8
LAYER1
 62
     7
  6
CONTINUOUS
 10
11.3773
 20
3.6721
 40
0.0228
  0
CIRCLE
  8
LAYER1
 62
     7
  6
CONTINUOUS
 10
11.4669
 20
3.7314
 40
0.0104
  0
CIRCLE
  8
LAYER1
 62
     7
  6
CONTINUOUS
 10
11.4486
 20
3.6179
 40
0.0147
  0
CIRCLE
  8
LAYER1
 62
     7
  6
CONTINUOUS
 10
11.4823
 20
3.5581
 40
0.0161
  0
CIRCLE
  8
LAYER1
 62
     7
  6
CONTINUOUS
 10
11.6266
 20
3.6510
 40
0.0126
  0
CIRCLE
  8
LAYER1
 62
     7
  6
CONTINUOUS
 10
11.6845
 20
3.6494
 40
0.0104
  0
CIRCLE
  8
LAYER1
 62
     7
  6
CONTINUOUS
 10
11.8521
 20
4.0118
 40
0.0248
  0
CIRCLE
  8
LAYER1
 62
     7
  6
CONTINUOUS
 10
11.8165
 20
3.8830
 40
0.0104
  0
CIRCLE
  8
LAYER1
 62
     7
  6
CONTINUOUS
 10
11.8548
 20
3.8509
 40
0.0203
  0
CIRCLE
  8
LAYER1
 62
     7
  6
CONTINUOUS
 10
11.8150
 20
3.8201
 40
0.0126
  0
CIRCLE
  8
LAYER1
 62
     7
  6
CONTINUOUS
 10
11.7770
 20
3.8371
 40
0.0161
  0
CIRCLE
  8
LAYER1
 62
     7
  6
CONTINUOUS
 10
11.7379
 20
3.7685
 40
0.0147
  0
CIRCLE
  8
LAYER1
 62
     7
  6
CONTINUOUS
 10
11.8009
 20
3.7595
 40
0.0161
  0
CIRCLE
  8
LAYER1
 62
     7
  6
CONTINUOUS
 10
11.9779
 20
3.8580
 40
0.0128
  0
CIRCLE
  8
LAYER1
 62
     7
  6
CONTINUOUS
 10
12.0011
 20
3.8206
 40
0.0101
  0
CIRCLE
  8
LAYER1
 62
     7
  6
CONTINUOUS
 10
11.9534
 20
3.6639
 40
0.0159
  0
CIRCLE
  8
LAYER1
 62
     7
  6
CONTINUOUS
 10
11.9963
 20
3.6570
 40
0.0128
  0
CIRCLE
  8
LAYER1
 62
     7
  6
CONTINUOUS
 10
11.0527
 20
3.8328
 40
0.0080
  0
CIRCLE
  8
LAYER1
 62
     7
  6
CONTINUOUS
 10
11.1078
 20
3.8513
 40
0.0248
  0
CIRCLE
  8
LAYER1
 62
     7
  6
CONTINUOUS
 10
11.1559
 20
3.8269
 40
0.0159
  0
CIRCLE
  8
LAYER1
 62
     7
  6
CONTINUOUS
 10
11.1525
 20
3.8822
 40
0.0104
  0
CIRCLE
  8
LAYER1
 62
     7
  6
CONTINUOUS
 10
11.0981
 20
3.9819
 40
0.0207
  0
CIRCLE
  8
LAYER1
 62
     7
  6
CONTINUOUS
 10
11.0533
 20
3.9485
 40
0.0126
  0
CIRCLE
  8
LAYER1
 62
     7
  6
CONTINUOUS
 10
11.0746
 20
4.0343
 40
0.0178
  0
CIRCLE
  8
LAYER1
 62
     7
  6
CONTINUOUS
 10
11.1348
 20
4.0429
 40
0.0153
  0
CIRCLE
  8
LAYER1
 62
     7
  6
CONTINUOUS
 10
11.1464
 20
4.1034
 40
0.0201
  0
POLYLINE
  8
LAYER1
 62
     7
 66
     1
  6
CONTINUOUS
  0
VERTEX
  8
LAYER1
 62
     7
  6
CONTINUOUS
 10
11.0248
 20
4.5561
  0
VERTEX
  8
LAYER1
 62
     7
  6
CONTINUOUS
 10
11.0284
 20
4.5561
  0
SEQEND
  8
LAYER1
  0
ARC
  8
LAYER1
 62
     7
  6
CONTINUOUS
 10
11.0430
 20
3.6565
 40
0.0263
 50
17.6358
 51
123.9230
  0
ARC
  8
LAYER1
 62
     7
  6
CONTINUOUS
 10
11.0430
 20
3.6565
 40
0.0263
 50
-123.9235
 51
17.6358
  0
ARC
  8
LAYER1
 62
     7
  6
CONTINUOUS
 10
11.0231
 20
4.2573
 40
0.0159
 50
-70.6263
 51
70.7942
  0
ARC
  8
LAYER1
 62
     7
  6
CONTINUOUS
 10
11.0144
 20
4.1792
 40
0.0342
 50
-53.0363
 51
65.8062
  0
ARC
  8
LAYER1
 62
     7
  6
CONTINUOUS
 10
11.0144
 20
4.1792
 40
0.0342
 50
-65.8090
 51
-53.0405
  0
POLYLINE
  8
LAYER1
 62
     7
 66
     1
  6
CONTINUOUS
  0
VERTEX
  8
LAYER1
 62
     7
  6
CONTINUOUS
 10
11.1562
 20
4.5555
  0
VERTEX
  8
LAYER1
 62
     7
  6
CONTINUOUS
 10
11.1553
 20
4.5539
  0
VERTEX
  8
LAYER1
 62
     7
  6
CONTINUOUS
 10
11.1545
 20
4.5524
  0
VERTEX
  8
LAYER1
 62
     7
  6
CONTINUOUS
 10
11.1536
 20
4.5508
  0
VERTEX
  8
LAYER1
 62
     7
  6
CONTINUOUS
 10
11.1527
 20
4.5494
  0
VERTEX
  8
LAYER1
 62
     7
  6
CONTINUOUS
 10
11.1518
 20
4.5479
  0
VERTEX
  8
LAYER1
 62
     7
  6
CONTINUOUS
 10
11.1509
 20
4.5466
  0
VERTEX
  8
LAYER1
 62
     7
  6
CONTINUOUS
 10
11.1499
 20
4.5453
  0
VERTEX
  8
LAYER1
 62
     7
  6
CONTINUOUS
 10
11.1489
 20
4.5442
  0
VERTEX
  8
LAYER1
 62
     7
  6
CONTINUOUS
 10
11.1478
 20
4.5432
  0
VERTEX
  8
LAYER1
 62
     7
  6
CONTINUOUS
 10
11.1467
 20
4.5423
  0
VERTEX
  8
LAYER1
 62
     7
  6
CONTINUOUS
 10
11.1455
 20
4.5416
  0
VERTEX
  8
LAYER1
 62
     7
  6
CONTINUOUS
 10
11.1443
 20
4.5410
  0
VERTEX
  8
LAYER1
 62
     7
  6
CONTINUOUS
 10
11.1432
 20
4.5407
  0
VERTEX
  8
LAYER1
 62
     7
  6
CONTINUOUS
 10
11.1421
 20
4.5405
  0
VERTEX
  8
LAYER1
 62
     7
  6
CONTINUOUS
 10
11.1410
 20
4.5404
  0
VERTEX
  8
LAYER1
 62
     7
  6
CONTINUOUS
 10
11.1398
 20
4.5403
  0
VERTEX
  8
LAYER1
 62
     7
  6
CONTINUOUS
 10
11.1386
 20
4.5403
  0
VERTEX
  8
LAYER1
 62
     7
  6
CONTINUOUS
 10
11.1373
 20
4.5404
  0
VERTEX
  8
LAYER1
 62
     7
  6
CONTINUOUS
 10
11.1360
 20
4.5405
  0
VERTEX
  8
LAYER1
 62
     7
  6
CONTINUOUS
 10
11.1347
 20
4.5406
  0
VERTEX
  8
LAYER1
 62
     7
  6
CONTINUOUS
 10
11.1333
 20
4.5407
  0
VERTEX
  8
LAYER1
 62
     7
  6
CONTINUOUS
 10
11.1320
 20
4.5407
  0
VERTEX
  8
LAYER1
 62
     7
  6
CONTINUOUS
 10
11.1306
 20
4.5408
  0
VERTEX
  8
LAYER1
 62
     7
  6
CONTINUOUS
 10
11.1292
 20
4.5408
  0
VERTEX
  8
LAYER1
 62
     7
  6
CONTINUOUS
 10
11.1268
 20
4.5407
  0
VERTEX
  8
LAYER1
 62
     7
  6
CONTINUOUS
 10
11.1244
 20
4.5404
  0
VERTEX
  8
LAYER1
 62
     7
  6
CONTINUOUS
 10
11.1220
 20
4.5400
  0
VERTEX
  8
LAYER1
 62
     7
  6
CONTINUOUS
 10
11.1196
 20
4.5396
  0
VERTEX
  8
LAYER1
 62
     7
  6
CONTINUOUS
 10
11.1172
 20
4.5392
  0
VERTEX
  8
LAYER1
 62
     7
  6
CONTINUOUS
 10
11.1150
 20
4.5389
  0
VERTEX
  8
LAYER1
 62
     7
  6
CONTINUOUS
 10
11.1128
 20
4.5387
  0
VERTEX
  8
LAYER1
 62
     7
  6
CONTINUOUS
 10
11.1107
 20
4.5385
  0
VERTEX
  8
LAYER1
 62
     7
  6
CONTINUOUS
 10
11.1088
 20
4.5386
  0
VERTEX
  8
LAYER1
 62
     7
  6
CONTINUOUS
 10
11.1070
 20
4.5389
  0
VERTEX
  8
LAYER1
 62
     7
  6
CONTINUOUS
 10
11.1054
 20
4.5395
  0
VERTEX
  8
LAYER1
 62
     7
  6
CONTINUOUS
 10
11.1040
 20
4.5404
  0
VERTEX
  8
LAYER1
 62
     7
  6
CONTINUOUS
 10
11.1033
 20
4.5411
  0
VERTEX
  8
LAYER1
 62
     7
  6
CONTINUOUS
 10
11.1026
 20
4.5420
  0
VERTEX
  8
LAYER1
 62
     7
  6
CONTINUOUS
 10
11.1020
 20
4.5430
  0
VERTEX
  8
LAYER1
 62
     7
  6
CONTINUOUS
 10
11.1015
 20
4.5441
  0
VERTEX
  8
LAYER1
 62
     7
  6
CONTINUOUS
 10
11.1010
 20
4.5453
  0
VERTEX
  8
LAYER1
 62
     7
  6
CONTINUOUS
 10
11.1006
 20
4.5466
  0
VERTEX
  8
LAYER1
 62
     7
  6
CONTINUOUS
 10
11.1002
 20
4.5480
  0
VERTEX
  8
LAYER1
 62
     7
  6
CONTINUOUS
 10
11.0999
 20
4.5494
  0
VERTEX
  8
LAYER1
 62
     7
  6
CONTINUOUS
 10
11.0996
 20
4.5509
  0
VERTEX
  8
LAYER1
 62
     7
  6
CONTINUOUS
 10
11.0993
 20
4.5524
  0
VERTEX
  8
LAYER1
 62
     7
  6
CONTINUOUS
 10
11.0991
 20
4.5539
  0
VERTEX
  8
LAYER1
 62
     7
  6
CONTINUOUS
 10
11.0988
 20
4.5555
  0
SEQEND
  8
LAYER1
  0
POLYLINE
  8
LAYER1
 62
     7
 66
     1
  6
CONTINUOUS
  0
VERTEX
  8
LAYER1
 62
     7
  6
CONTINUOUS
 10
12.0515
 20
4.2969
  0
VERTEX
  8
LAYER1
 62
     7
  6
CONTINUOUS
 10
12.0503
 20
4.2964
  0
VERTEX
  8
LAYER1
 62
     7
  6
CONTINUOUS
 10
12.0491
 20
4.2959
  0
VERTEX
  8
LAYER1
 62
     7
  6
CONTINUOUS
 10
12.0479
 20
4.2954
  0
VERTEX
  8
LAYER1
 62
     7
  6
CONTINUOUS
 10
12.0467
 20
4.2950
  0
VERTEX
  8
LAYER1
 62
     7
  6
CONTINUOUS
 10
12.0455
 20
4.2946
  0
VERTEX
  8
LAYER1
 62
     7
  6
CONTINUOUS
 10
12.0444
 20
4.2943
  0
VERTEX
  8
LAYER1
 62
     7
  6
CONTINUOUS
 10
12.0433
 20
4.2940
  0
VERTEX
  8
LAYER1
 62
     7
  6
CONTINUOUS
 10
12.0423
 20
4.2938
  0
VERTEX
  8
LAYER1
 62
     7
  6
CONTINUOUS
 10
12.0413
 20
4.2937
  0
VERTEX
  8
LAYER1
 62
     7
  6
CONTINUOUS
 10
12.0404
 20
4.2937
  0
VERTEX
  8
LAYER1
 62
     7
  6
CONTINUOUS
 10
12.0395
 20
4.2938
  0
VERTEX
  8
LAYER1
 62
     7
  6
CONTINUOUS
 10
12.0387
 20
4.2941
  0
VERTEX
  8
LAYER1
 62
     7
  6
CONTINUOUS
 10
12.0375
 20
4.2947
  0
VERTEX
  8
LAYER1
 62
     7
  6
CONTINUOUS
 10
12.0366
 20
4.2956
  0
VERTEX
  8
LAYER1
 62
     7
  6
CONTINUOUS
 10
12.0358
 20
4.2968
  0
VERTEX
  8
LAYER1
 62
     7
  6
CONTINUOUS
 10
12.0351
 20
4.2982
  0
VERTEX
  8
LAYER1
 62
     7
  6
CONTINUOUS
 10
12.0346
 20
4.2999
  0
VERTEX
  8
LAYER1
 62
     7
  6
CONTINUOUS
 10
12.0341
 20
4.3017
  0
VERTEX
  8
LAYER1
 62
     7
  6
CONTINUOUS
 10
12.0338
 20
4.3036
  0
VERTEX
  8
LAYER1
 62
     7
  6
CONTINUOUS
 10
12.0336
 20
4.3056
  0
VERTEX
  8
LAYER1
 62
     7
  6
CONTINUOUS
 10
12.0334
 20
4.3077
  0
VERTEX
  8
LAYER1
 62
     7
  6
CONTINUOUS
 10
12.0334
 20
4.3099
  0
VERTEX
  8
LAYER1
 62
     7
  6
CONTINUOUS
 10
12.0333
 20
4.3120
  0
VERTEX
  8
LAYER1
 62
     7
  6
CONTINUOUS
 10
12.0333
 20
4.3141
  0
VERTEX
  8
LAYER1
 62
     7
  6
CONTINUOUS
 10
12.0334
 20
4.3162
  0
VERTEX
  8
LAYER1
 62
     7
  6
CONTINUOUS
 10
12.0334
 20
4.3182
  0
VERTEX
  8
LAYER1
 62
     7
  6
CONTINUOUS
 10
12.0335
 20
4.3201
  0
VERTEX
  8
LAYER1
 62
     7
  6
CONTINUOUS
 10
12.0337
 20
4.3220
  0
VERTEX
  8
LAYER1
 62
     7
  6
CONTINUOUS
 10
12.0339
 20
4.3238
  0
VERTEX
  8
LAYER1
 62
     7
  6
CONTINUOUS
 10
12.0342
 20
4.3255
  0
VERTEX
  8
LAYER1
 62
     7
  6
CONTINUOUS
 10
12.0346
 20
4.3272
  0
VERTEX
  8
LAYER1
 62
     7
  6
CONTINUOUS
 10
12.0351
 20
4.3287
  0
VERTEX
  8
LAYER1
 62
     7
  6
CONTINUOUS
 10
12.0356
 20
4.3302
  0
VERTEX
  8
LAYER1
 62
     7
  6
CONTINUOUS
 10
12.0363
 20
4.3317
  0
VERTEX
  8
LAYER1
 62
     7
  6
CONTINUOUS
 10
12.0371
 20
4.3330
  0
VERTEX
  8
LAYER1
 62
     7
  6
CONTINUOUS
 10
12.0380
 20
4.3343
  0
VERTEX
  8
LAYER1
 62
     7
  6
CONTINUOUS
 10
12.0388
 20
4.3352
  0
VERTEX
  8
LAYER1
 62
     7
  6
CONTINUOUS
 10
12.0397
 20
4.3361
  0
VERTEX
  8
LAYER1
 62
     7
  6
CONTINUOUS
 10
12.0407
 20
4.3370
  0
VERTEX
  8
LAYER1
 62
     7
  6
CONTINUOUS
 10
12.0418
 20
4.3378
  0
VERTEX
  8
LAYER1
 62
     7
  6
CONTINUOUS
 10
12.0428
 20
4.3386
  0
VERTEX
  8
LAYER1
 62
     7
  6
CONTINUOUS
 10
12.0440
 20
4.3393
  0
VERTEX
  8
LAYER1
 62
     7
  6
CONTINUOUS
 10
12.0452
 20
4.3401
  0
VERTEX
  8
LAYER1
 62
     7
  6
CONTINUOUS
 10
12.0464
 20
4.3408
  0
VERTEX
  8
LAYER1
 62
     7
  6
CONTINUOUS
 10
12.0476
 20
4.3415
  0
VERTEX
  8
LAYER1
 62
     7
  6
CONTINUOUS
 10
12.0489
 20
4.3421
  0
VERTEX
  8
LAYER1
 62
     7
  6
CONTINUOUS
 10
12.0502
 20
4.3428
  0
VERTEX
  8
LAYER1
 62
     7
  6
CONTINUOUS
 10
12.0515
 20
4.3435
  0
SEQEND
  8
LAYER1
  0
POLYLINE
  8
LAYER1
 62
     7
 66
     1
  6
CONTINUOUS
  0
VERTEX
  8
LAYER1
 62
     7
  6
CONTINUOUS
 10
11.1582
 20
4.5597
  0
VERTEX
  8
LAYER1
 62
     7
  6
CONTINUOUS
 10
11.1580
 20
4.5593
  0
VERTEX
  8
LAYER1
 62
     7
  6
CONTINUOUS
 10
11.1578
 20
4.5588
  0
VERTEX
  8
LAYER1
 62
     7
  6
CONTINUOUS
 10
11.1576
 20
4.5584
  0
VERTEX
  8
LAYER1
 62
     7
  6
CONTINUOUS
 10
11.1574
 20
4.5580
  0
VERTEX
  8
LAYER1
 62
     7
  6
CONTINUOUS
 10
11.1572
 20
4.5576
  0
VERTEX
  8
LAYER1
 62
     7
  6
CONTINUOUS
 10
11.1570
 20
4.5572
  0
VERTEX
  8
LAYER1
 62
     7
  6
CONTINUOUS
 10
11.1568
 20
4.5568
  0
VERTEX
  8
LAYER1
 62
     7
  6
CONTINUOUS
 10
11.1567
 20
4.5565
  0
VERTEX
  8
LAYER1
 62
     7
  6
CONTINUOUS
 10
11.1565
 20
4.5562
  0
VERTEX
  8
LAYER1
 62
     7
  6
CONTINUOUS
 10
11.1564
 20
4.5559
  0
VERTEX
  8
LAYER1
 62
     7
  6
CONTINUOUS
 10
11.1563
 20
4.5557
  0
VERTEX
  8
LAYER1
 62
     7
  6
CONTINUOUS
 10
11.1562
 20
4.5555
  0
VERTEX
  8
LAYER1
 62
     7
  6
CONTINUOUS
 10
11.1561
 20
4.5553
  0
VERTEX
  8
LAYER1
 62
     7
  6
CONTINUOUS
 10
11.1561
 20
4.5552
  0
VERTEX
  8
LAYER1
 62
     7
  6
CONTINUOUS
 10
11.1560
 20
4.5552
  0
VERTEX
  8
LAYER1
 62
     7
  6
CONTINUOUS
 10
11.1560
 20
4.5551
  0
VERTEX
  8
LAYER1
 62
     7
  6
CONTINUOUS
 10
11.1560
 20
4.5551
  0
VERTEX
  8
LAYER1
 62
     7
  6
CONTINUOUS
 10
11.1560
 20
4.5551
  0
VERTEX
  8
LAYER1
 62
     7
  6
CONTINUOUS
 10
11.1560
 20
4.5551
  0
VERTEX
  8
LAYER1
 62
     7
  6
CONTINUOUS
 10
11.1561
 20
4.5552
  0
VERTEX
  8
LAYER1
 62
     7
  6
CONTINUOUS
 10
11.1561
 20
4.5552
  0
VERTEX
  8
LAYER1
 62
     7
  6
CONTINUOUS
 10
11.1561
 20
4.5553
  0
VERTEX
  8
LAYER1
 62
     7
  6
CONTINUOUS
 10
11.1562
 20
4.5554
  0
VERTEX
  8
LAYER1
 62
     7
  6
CONTINUOUS
 10
11.1562
 20
4.5555
  0
SEQEND
  8
LAYER1
  0
POLYLINE
  8
LAYER1
 62
     7
 66
     1
  6
CONTINUOUS
  0
VERTEX
  8
LAYER1
 62
     7
  6
CONTINUOUS
 10
11.0988
 20
4.5555
  0
VERTEX
  8
LAYER1
 62
     7
  6
CONTINUOUS
 10
11.0988
 20
4.5559
  0
VERTEX
  8
LAYER1
 62
     7
  6
CONTINUOUS
 10
11.0988
 20
4.5563
  0
VERTEX
  8
LAYER1
 62
     7
  6
CONTINUOUS
 10
11.0988
 20
4.5568
  0
VERTEX
  8
LAYER1
 62
     7
  6
CONTINUOUS
 10
11.0988
 20
4.5572
  0
VERTEX
  8
LAYER1
 62
     7
  6
CONTINUOUS
 10
11.0987
 20
4.5576
  0
VERTEX
  8
LAYER1
 62
     7
  6
CONTINUOUS
 10
11.0987
 20
4.5580
  0
VERTEX
  8
LAYER1
 62
     7
  6
CONTINUOUS
 10
11.0987
 20
4.5583
  0
VERTEX
  8
LAYER1
 62
     7
  6
CONTINUOUS
 10
11.0987
 20
4.5587
  0
VERTEX
  8
LAYER1
 62
     7
  6
CONTINUOUS
 10
11.0987
 20
4.5590
  0
VERTEX
  8
LAYER1
 62
     7
  6
CONTINUOUS
 10
11.0987
 20
4.5593
  0
VERTEX
  8
LAYER1
 62
     7
  6
CONTINUOUS
 10
11.0987
 20
4.5595
  0
VERTEX
  8
LAYER1
 62
     7
  6
CONTINUOUS
 10
11.0987
 20
4.5597
  0
VERTEX
  8
LAYER1
 62
     7
  6
CONTINUOUS
 10
11.0987
 20
4.5599
  0
VERTEX
  8
LAYER1
 62
     7
  6
CONTINUOUS
 10
11.0987
 20
4.5600
  0
VERTEX
  8
LAYER1
 62
     7
  6
CONTINUOUS
 10
11.0987
 20
4.5601
  0
VERTEX
  8
LAYER1
 62
     7
  6
CONTINUOUS
 10
11.0987
 20
4.5601
  0
VERTEX
  8
LAYER1
 62
     7
  6
CONTINUOUS
 10
11.0987
 20
4.5601
  0
VERTEX
  8
LAYER1
 62
     7
  6
CONTINUOUS
 10
11.0987
 20
4.5601
  0
VERTEX
  8
LAYER1
 62
     7
  6
CONTINUOUS
 10
11.0987
 20
4.5601
  0
VERTEX
  8
LAYER1
 62
     7
  6
CONTINUOUS
 10
11.0987
 20
4.5600
  0
VERTEX
  8
LAYER1
 62
     7
  6
CONTINUOUS
 10
11.0987
 20
4.5600
  0
VERTEX
  8
LAYER1
 62
     7
  6
CONTINUOUS
 10
11.0987
 20
4.5599
  0
VERTEX
  8
LAYER1
 62
     7
  6
CONTINUOUS
 10
11.0987
 20
4.5598
  0
VERTEX
  8
LAYER1
 62
     7
  6
CONTINUOUS
 10
11.0987
 20
4.5597
  0
SEQEND
  8
LAYER1
  0
POLYLINE
  8
LAYER1
 62
     7
 66
     1
  6
CONTINUOUS
  0
VERTEX
  8
LAYER1
 62
     7
  6
CONTINUOUS
 10
11.0213
 20
4.5561
  0
VERTEX
  8
LAYER1
 62
     7
  6
CONTINUOUS
 10
11.0221
 20
4.5561
  0
SEQEND
  8
LAYER1
  0
POLYLINE
  8
LAYER1
 62
     7
 66
     1
  6
CONTINUOUS
  0
VERTEX
  8
LAYER1
 62
     7
  6
CONTINUOUS
 10
11.0221
 20
4.5561
  0
VERTEX
  8
LAYER1
 62
     7
  6
CONTINUOUS
 10
11.0248
 20
4.5561
  0
SEQEND
  8
LAYER1
  0
POLYLINE
  8
LAYER1
 62
     7
 66
     1
  6
CONTINUOUS
  0
VERTEX
  8
LAYER1
 62
     7
  6
CONTINUOUS
 10
11.0284
 20
4.5561
  0
VERTEX
  8
LAYER1
 62
     7
  6
CONTINUOUS
 10
12.0515
 20
4.5561
  0
SEQEND
  8
LAYER1
  0
POLYLINE
  8
LAYER1
 62
     7
 66
     1
  6
CONTINUOUS
  0
VERTEX
  8
LAYER1
 62
     7
  6
CONTINUOUS
 10
12.0515
 20
4.5561
  0
VERTEX
  8
LAYER1
 62
     7
  6
CONTINUOUS
 10
12.0515
 20
4.5561
  0
SEQEND
  8
LAYER1
  0
ARC
  8
LAYER1
 62
     7
  6
CONTINUOUS
 10
12.0498
 20
3.9220
 40
0.0181
 50
124.6080
 51
-84.6203
  0
ARC
  8
LAYER1
 62
     7
  6
CONTINUOUS
 10
12.0498
 20
3.9220
 40
0.0181
 50
84.6195
 51
124.6085
  0
ARC
  8
LAYER1
 62
     7
  6
CONTINUOUS
 10
12.0867
 20
3.9729
 40
0.0360
 50
167.8216
 51
-167.8223
  0
ARC
  8
LAYER1
 62
     7
  6
CONTINUOUS
 10
11.0430
 20
3.6565
 40
0.0263
 50
123.9230
 51
142.7555
  0
ARC
  8
LAYER1
 62
     7
  6
CONTINUOUS
 10
11.0430
 20
3.6565
 40
0.0263
 50
142.7564
 51
145.9913
  0
ARC
  8
LAYER1
 62
     7
  6
CONTINUOUS
 10
11.0430
 20
3.6565
 40
0.0263
 50
-145.9838
 51
-142.7485
  0
ARC
  8
LAYER1
 62
     7
  6
CONTINUOUS
 10
11.0430
 20
3.6565
 40
0.0263
 50
-142.7485
 51
-123.9189
  0
ARC
  8
LAYER1
 62
     7
  6
CONTINUOUS
 10
11.0231
 20
4.2573
 40
0.0159
 50
70.7946
 51
93.6758
  0
ARC
  8
LAYER1
 62
     7
  6
CONTINUOUS
 10
11.0231
 20
4.2573
 40
0.0159
 50
93.6758
 51
96.7919
  0
ARC
  8
LAYER1
 62
     7
  6
CONTINUOUS
 10
11.0231
 20
4.2573
 40
0.0159
 50
-96.7909
 51
-93.6752
  0
ARC
  8
LAYER1
 62
     7
  6
CONTINUOUS
 10
11.0231
 20
4.2573
 40
0.0159
 50
-93.6747
 51
-70.8008
  0
ARC
  8
LAYER1
 62
     7
  6
CONTINUOUS
 10
11.0144
 20
4.1792
 40
0.0342
 50
65.8057
 51
76.8735
  0
ARC
  8
LAYER1
 62
     7
  6
CONTINUOUS
 10
11.0144
 20
4.1792
 40
0.0342
 50
76.8747
 51
78.3518
  0
ARC
  8
LAYER1
 62
     7
  6
CONTINUOUS
 10
11.0144
 20
4.1792
 40
0.0342
 50
-78.3547
 51
-76.8779
  0
ARC
  8
LAYER1
 62
     7
  6
CONTINUOUS
 10
11.0144
 20
4.1792
 40
0.0342
 50
-76.8779
 51
-65.8124
  0
POLYLINE
  8
LAYER10
 62
     1
 66
     1
  6
CONTINUOUS
  0
VERTEX
  8
LAYER10
 62
     1
  6
CONTINUOUS
 10
11.5033
 20
4.1193
  0
VERTEX
  8
LAYER10
 62
     1
  6
CONTINUOUS
 10
11.5065
 20
4.1216
  0
VERTEX
  8
LAYER10
 62
     1
  6
CONTINUOUS
 10
11.5098
 20
4.1238
  0
VERTEX
  8
LAYER10
 62
     1
  6
CONTINUOUS
 10
11.5133
 20
4.1257
  0
VERTEX
  8
LAYER10
 62
     1
  6
CONTINUOUS
 10
11.5169
 20
4.1275
  0
VERTEX
  8
LAYER10
 62
     1
  6
CONTINUOUS
 10
11.5206
 20
4.1291
  0
VERTEX
  8
LAYER10
 62
     1
  6
CONTINUOUS
 10
11.5244
 20
4.1305
  0
VERTEX
  8
LAYER10
 62
     1
  6
CONTINUOUS
 10
11.5283
 20
4.1318
  0
VERTEX
  8
LAYER10
 62
     1
  6
CONTINUOUS
 10
11.5322
 20
4.1328
  0
VERTEX
  8
LAYER10
 62
     1
  6
CONTINUOUS
 10
11.5362
 20
4.1337
  0
VERTEX
  8
LAYER10
 62
     1
  6
CONTINUOUS
 10
11.5402
 20
4.1344
  0
VERTEX
  8
LAYER10
 62
     1
  6
CONTINUOUS
 10
11.5443
 20
4.1349
  0
VERTEX
  8
LAYER10
 62
     1
  6
CONTINUOUS
 10
11.5483
 20
4.1351
  0
VERTEX
  8
LAYER10
 62
     1
  6
CONTINUOUS
 10
11.5535
 20
4.1352
  0
VERTEX
  8
LAYER10
 62
     1
  6
CONTINUOUS
 10
11.5587
 20
4.1350
  0
VERTEX
  8
LAYER10
 62
     1
  6
CONTINUOUS
 10
11.5639
 20
4.1345
  0
VERTEX
  8
LAYER10
 62
     1
  6
CONTINUOUS
 10
11.5690
 20
4.1337
  0
VERTEX
  8
LAYER10
 62
     1
  6
CONTINUOUS
 10
11.5741
 20
4.1327
  0
VERTEX
  8
LAYER10
 62
     1
  6
CONTINUOUS
 10
11.5792
 20
4.1315
  0
VERTEX
  8
LAYER10
 62
     1
  6
CONTINUOUS
 10
11.5843
 20
4.1301
  0
VERTEX
  8
LAYER10
 62
     1
  6
CONTINUOUS
 10
11.5893
 20
4.1285
  0
VERTEX
  8
LAYER10
 62
     1
  6
CONTINUOUS
 10
11.5942
 20
4.1268
  0
VERTEX
  8
LAYER10
 62
     1
  6
CONTINUOUS
 10
11.5992
 20
4.1250
  0
VERTEX
  8
LAYER10
 62
     1
  6
CONTINUOUS
 10
11.6040
 20
4.1231
  0
VERTEX
  8
LAYER10
 62
     1
  6
CONTINUOUS
 10
11.6089
 20
4.1210
  0
VERTEX
  8
LAYER10
 62
     1
  6
CONTINUOUS
 10
11.6143
 20
4.1187
  0
VERTEX
  8
LAYER10
 62
     1
  6
CONTINUOUS
 10
11.6197
 20
4.1163
  0
VERTEX
  8
LAYER10
 62
     1
  6
CONTINUOUS
 10
11.6250
 20
4.1139
  0
VERTEX
  8
LAYER10
 62
     1
  6
CONTINUOUS
 10
11.6302
 20
4.1113
  0
VERTEX
  8
LAYER10
 62
     1
  6
CONTINUOUS
 10
11.6354
 20
4.1087
  0
VERTEX
  8
LAYER10
 62
     1
  6
CONTINUOUS
 10
11.6405
 20
4.1059
  0
VERTEX
  8
LAYER10
 62
     1
  6
CONTINUOUS
 10
11.6456
 20
4.1031
  0
VERTEX
  8
LAYER10
 62
     1
  6
CONTINUOUS
 10
11.6506
 20
4.1001
  0
VERTEX
  8
LAYER10
 62
     1
  6
CONTINUOUS
 10
11.6555
 20
4.0970
  0
VERTEX
  8
LAYER10
 62
     1
  6
CONTINUOUS
 10
11.6604
 20
4.0937
  0
VERTEX
  8
LAYER10
 62
     1
  6
CONTINUOUS
 10
11.6651
 20
4.0904
  0
VERTEX
  8
LAYER10
 62
     1
  6
CONTINUOUS
 10
11.6698
 20
4.0868
  0
VERTEX
  8
LAYER10
 62
     1
  6
CONTINUOUS
 10
11.6729
 20
4.0844
  0
VERTEX
  8
LAYER10
 62
     1
  6
CONTINUOUS
 10
11.6759
 20
4.0819
  0
VERTEX
  8
LAYER10
 62
     1
  6
CONTINUOUS
 10
11.6789
 20
4.0793
  0
VERTEX
  8
LAYER10
 62
     1
  6
CONTINUOUS
 10
11.6818
 20
4.0767
  0
VERTEX
  8
LAYER10
 62
     1
  6
CONTINUOUS
 10
11.6846
 20
4.0739
  0
VERTEX
  8
LAYER10
 62
     1
  6
CONTINUOUS
 10
11.6873
 20
4.0711
  0
VERTEX
  8
LAYER10
 62
     1
  6
CONTINUOUS
 10
11.6898
 20
4.0682
  0
VERTEX
  8
LAYER10
 62
     1
  6
CONTINUOUS
 10
11.6923
 20
4.0652
  0
VERTEX
  8
LAYER10
 62
     1
  6
CONTINUOUS
 10
11.6946
 20
4.0620
  0
VERTEX
  8
LAYER10
 62
     1
  6
CONTINUOUS
 10
11.6968
 20
4.0588
  0
VERTEX
  8
LAYER10
 62
     1
  6
CONTINUOUS
 10
11.6988
 20
4.0555
  0
VERTEX
  8
LAYER10
 62
     1
  6
CONTINUOUS
 10
11.7006
 20
4.0521
  0
VERTEX
  8
LAYER10
 62
     1
  6
CONTINUOUS
 10
11.7025
 20
4.0479
  0
VERTEX
  8
LAYER10
 62
     1
  6
CONTINUOUS
 10
11.7041
 20
4.0435
  0
VERTEX
  8
LAYER10
 62
     1
  6
CONTINUOUS
 10
11.7055
 20
4.0390
  0
VERTEX
  8
LAYER10
 62
     1
  6
CONTINUOUS
 10
11.7066
 20
4.0345
  0
VERTEX
  8
LAYER10
 62
     1
  6
CONTINUOUS
 10
11.7075
 20
4.0298
  0
VERTEX
  8
LAYER10
 62
     1
  6
CONTINUOUS
 10
11.7081
 20
4.0251
  0
VERTEX
  8
LAYER10
 62
     1
  6
CONTINUOUS
 10
11.7084
 20
4.0204
  0
VERTEX
  8
LAYER10
 62
     1
  6
CONTINUOUS
 10
11.7085
 20
4.0156
  0
VERTEX
  8
LAYER10
 62
     1
  6
CONTINUOUS
 10
11.7084
 20
4.0109
  0
VERTEX
  8
LAYER10
 62
     1
  6
CONTINUOUS
 10
11.7080
 20
4.0061
  0
VERTEX
  8
LAYER10
 62
     1
  6
CONTINUOUS
 10
11.7074
 20
4.0015
  0
VERTEX
  8
LAYER10
 62
     1
  6
CONTINUOUS
 10
11.7065
 20
3.9969
  0
VERTEX
  8
LAYER10
 62
     1
  6
CONTINUOUS
 10
11.7051
 20
3.9910
  0
VERTEX
  8
LAYER10
 62
     1
  6
CONTINUOUS
 10
11.7033
 20
3.9853
  0
VERTEX
  8
LAYER10
 62
     1
  6
CONTINUOUS
 10
11.7013
 20
3.9797
  0
VERTEX
  8
LAYER10
 62
     1
  6
CONTINUOUS
 10
11.6990
 20
3.9742
  0
VERTEX
  8
LAYER10
 62
     1
  6
CONTINUOUS
 10
11.6965
 20
3.9688
  0
VERTEX
  8
LAYER10
 62
     1
  6
CONTINUOUS
 10
11.6939
 20
3.9634
  0
VERTEX
  8
LAYER10
 62
     1
  6
CONTINUOUS
 10
11.6911
 20
3.9581
  0
VERTEX
  8
LAYER10
 62
     1
  6
CONTINUOUS
 10
11.6883
 20
3.9527
  0
VERTEX
  8
LAYER10
 62
     1
  6
CONTINUOUS
 10
11.6855
 20
3.9474
  0
VERTEX
  8
LAYER10
 62
     1
  6
CONTINUOUS
 10
11.6827
 20
3.9420
  0
VERTEX
  8
LAYER10
 62
     1
  6
CONTINUOUS
 10
11.6800
 20
3.9365
  0
VERTEX
  8
LAYER10
 62
     1
  6
CONTINUOUS
 10
11.6774
 20
3.9310
  0
VERTEX
  8
LAYER10
 62
     1
  6
CONTINUOUS
 10
11.6751
 20
3.9258
  0
VERTEX
  8
LAYER10
 62
     1
  6
CONTINUOUS
 10
11.6729
 20
3.9205
  0
VERTEX
  8
LAYER10
 62
     1
  6
CONTINUOUS
 10
11.6708
 20
3.9152
  0
VERTEX
  8
LAYER10
 62
     1
  6
CONTINUOUS
 10
11.6687
 20
3.9098
  0
VERTEX
  8
LAYER10
 62
     1
  6
CONTINUOUS
 10
11.6666
 20
3.9045
  0
VERTEX
  8
LAYER10
 62
     1
  6
CONTINUOUS
 10
11.6644
 20
3.8993
  0
VERTEX
  8
LAYER10
 62
     1
  6
CONTINUOUS
 10
11.6622
 20
3.8941
  0
VERTEX
  8
LAYER10
 62
     1
  6
CONTINUOUS
 10
11.6598
 20
3.8890
  0
VERTEX
  8
LAYER10
 62
     1
  6
CONTINUOUS
 10
11.6573
 20
3.8840
  0
VERTEX
  8
LAYER10
 62
     1
  6
CONTINUOUS
 10
11.6545
 20
3.8792
  0
VERTEX
  8
LAYER10
 62
     1
  6
CONTINUOUS
 10
11.6515
 20
3.8746
  0
VERTEX
  8
LAYER10
 62
     1
  6
CONTINUOUS
 10
11.6482
 20
3.8702
  0
VERTEX
  8
LAYER10
 62
     1
  6
CONTINUOUS
 10
11.6453
 20
3.8668
  0
VERTEX
  8
LAYER10
 62
     1
  6
CONTINUOUS
 10
11.6422
 20
3.8635
  0
VERTEX
  8
LAYER10
 62
     1
  6
CONTINUOUS
 10
11.6390
 20
3.8604
  0
VERTEX
  8
LAYER10
 62
     1
  6
CONTINUOUS
 10
11.6355
 20
3.8574
  0
VERTEX
  8
LAYER10
 62
     1
  6
CONTINUOUS
 10
11.6319
 20
3.8546
  0
VERTEX
  8
LAYER10
 62
     1
  6
CONTINUOUS
 10
11.6282
 20
3.8519
  0
VERTEX
  8
LAYER10
 62
     1
  6
CONTINUOUS
 10
11.6243
 20
3.8494
  0
VERTEX
  8
LAYER10
 62
     1
  6
CONTINUOUS
 10
11.6203
 20
3.8471
  0
VERTEX
  8
LAYER10
 62
     1
  6
CONTINUOUS
 10
11.6162
 20
3.8449
  0
VERTEX
  8
LAYER10
 62
     1
  6
CONTINUOUS
 10
11.6120
 20
3.8429
  0
VERTEX
  8
LAYER10
 62
     1
  6
CONTINUOUS
 10
11.6078
 20
3.8410
  0
VERTEX
  8
LAYER10
 62
     1
  6
CONTINUOUS
 10
11.6034
 20
3.8393
  0
VERTEX
  8
LAYER10
 62
     1
  6
CONTINUOUS
 10
11.5974
 20
3.8371
  0
VERTEX
  8
LAYER10
 62
     1
  6
CONTINUOUS
 10
11.5912
 20
3.8353
  0
VERTEX
  8
LAYER10
 62
     1
  6
CONTINUOUS
 10
11.5850
 20
3.8338
  0
VERTEX
  8
LAYER10
 62
     1
  6
CONTINUOUS
 10
11.5787
 20
3.8325
  0
VERTEX
  8
LAYER10
 62
     1
  6
CONTINUOUS
 10
11.5724
 20
3.8316
  0
VERTEX
  8
LAYER10
 62
     1
  6
CONTINUOUS
 10
11.5660
 20
3.8310
  0
VERTEX
  8
LAYER10
 62
     1
  6
CONTINUOUS
 10
11.5597
 20
3.8306
  0
VERTEX
  8
LAYER10
 62
     1
  6
CONTINUOUS
 10
11.5533
 20
3.8305
  0
VERTEX
  8
LAYER10
 62
     1
  6
CONTINUOUS
 10
11.5470
 20
3.8307
  0
VERTEX
  8
LAYER10
 62
     1
  6
CONTINUOUS
 10
11.5406
 20
3.8312
  0
VERTEX
  8
LAYER10
 62
     1
  6
CONTINUOUS
 10
11.5343
 20
3.8320
  0
VERTEX
  8
LAYER10
 62
     1
  6
CONTINUOUS
 10
11.5281
 20
3.8330
  0
VERTEX
  8
LAYER10
 62
     1
  6
CONTINUOUS
 10
11.5216
 20
3.8343
  0
VERTEX
  8
LAYER10
 62
     1
  6
CONTINUOUS
 10
11.5153
 20
3.8360
  0
VERTEX
  8
LAYER10
 62
     1
  6
CONTINUOUS
 10
11.5090
 20
3.8379
  0
VERTEX
  8
LAYER10
 62
     1
  6
CONTINUOUS
 10
11.5028
 20
3.8401
  0
VERTEX
  8
LAYER10
 62
     1
  6
CONTINUOUS
 10
11.4967
 20
3.8425
  0
VERTEX
  8
LAYER10
 62
     1
  6
CONTINUOUS
 10
11.4907
 20
3.8452
  0
VERTEX
  8
LAYER10
 62
     1
  6
CONTINUOUS
 10
11.4848
 20
3.8482
  0
VERTEX
  8
LAYER10
 62
     1
  6
CONTINUOUS
 10
11.4790
 20
3.8515
  0
VERTEX
  8
LAYER10
 62
     1
  6
CONTINUOUS
 10
11.4733
 20
3.8550
  0
VERTEX
  8
LAYER10
 62
     1
  6
CONTINUOUS
 10
11.4678
 20
3.8588
  0
VERTEX
  8
LAYER10
 62
     1
  6
CONTINUOUS
 10
11.4624
 20
3.8628
  0
VERTEX
  8
LAYER10
 62
     1
  6
CONTINUOUS
 10
11.4571
 20
3.8670
  0
VERTEX
  8
LAYER10
 62
     1
  6
CONTINUOUS
 10
11.4521
 20
3.8714
  0
VERTEX
  8
LAYER10
 62
     1
  6
CONTINUOUS
 10
11.4473
 20
3.8761
  0
VERTEX
  8
LAYER10
 62
     1
  6
CONTINUOUS
 10
11.4427
 20
3.8809
  0
VERTEX
  8
LAYER10
 62
     1
  6
CONTINUOUS
 10
11.4383
 20
3.8859
  0
VERTEX
  8
LAYER10
 62
     1
  6
CONTINUOUS
 10
11.4342
 20
3.8911
  0
VERTEX
  8
LAYER10
 62
     1
  6
CONTINUOUS
 10
11.4304
 20
3.8965
  0
VERTEX
  8
LAYER10
 62
     1
  6
CONTINUOUS
 10
11.4270
 20
3.9020
  0
VERTEX
  8
LAYER10
 62
     1
  6
CONTINUOUS
 10
11.4239
 20
3.9077
  0
VERTEX
  8
LAYER10
 62
     1
  6
CONTINUOUS
 10
11.4212
 20
3.9135
  0
VERTEX
  8
LAYER10
 62
     1
  6
CONTINUOUS
 10
11.4189
 20
3.9195
  0
VERTEX
  8
LAYER10
 62
     1
  6
CONTINUOUS
 10
11.4171
 20
3.9256
  0
VERTEX
  8
LAYER10
 62
     1
  6
CONTINUOUS
 10
11.4158
 20
3.9318
  0
VERTEX
  8
LAYER10
 62
     1
  6
CONTINUOUS
 10
11.4151
 20
3.9376
  0
VERTEX
  8
LAYER10
 62
     1
  6
CONTINUOUS
 10
11.4147
 20
3.9436
  0
VERTEX
  8
LAYER10
 62
     1
  6
CONTINUOUS
 10
11.4148
 20
3.9496
  0
VERTEX
  8
LAYER10
 62
     1
  6
CONTINUOUS
 10
11.4153
 20
3.9556
  0
VERTEX
  8
LAYER10
 62
     1
  6
CONTINUOUS
 10
11.4162
 20
3.9616
  0
VERTEX
  8
LAYER10
 62
     1
  6
CONTINUOUS
 10
11.4173
 20
3.9676
  0
VERTEX
  8
LAYER10
 62
     1
  6
CONTINUOUS
 10
11.4188
 20
3.9736
  0
VERTEX
  8
LAYER10
 62
     1
  6
CONTINUOUS
 10
11.4205
 20
3.9795
  0
VERTEX
  8
LAYER10
 62
     1
  6
CONTINUOUS
 10
11.4225
 20
3.9854
  0
VERTEX
  8
LAYER10
 62
     1
  6
CONTINUOUS
 10
11.4248
 20
3.9912
  0
VERTEX
  8
LAYER10
 62
     1
  6
CONTINUOUS
 10
11.4272
 20
3.9969
  0
VERTEX
  8
LAYER10
 62
     1
  6
CONTINUOUS
 10
11.4297
 20
4.0024
  0
VERTEX
  8
LAYER10
 62
     1
  6
CONTINUOUS
 10
11.4326
 20
4.0082
  0
VERTEX
  8
LAYER10
 62
     1
  6
CONTINUOUS
 10
11.4357
 20
4.0138
  0
VERTEX
  8
LAYER10
 62
     1
  6
CONTINUOUS
 10
11.4389
 20
4.0193
  0
VERTEX
  8
LAYER10
 62
     1
  6
CONTINUOUS
 10
11.4421
 20
4.0248
  0
VERTEX
  8
LAYER10
 62
     1
  6
CONTINUOUS
 10
11.4454
 20
4.0302
  0
VERTEX
  8
LAYER10
 62
     1
  6
CONTINUOUS
 10
11.4488
 20
4.0355
  0
VERTEX
  8
LAYER10
 62
     1
  6
CONTINUOUS
 10
11.4522
 20
4.0409
  0
VERTEX
  8
LAYER10
 62
     1
  6
CONTINUOUS
 10
11.4556
 20
4.0462
  0
VERTEX
  8
LAYER10
 62
     1
  6
CONTINUOUS
 10
11.4590
 20
4.0517
  0
VERTEX
  8
LAYER10
 62
     1
  6
CONTINUOUS
 10
11.4624
 20
4.0572
  0
VERTEX
  8
LAYER10
 62
     1
  6
CONTINUOUS
 10
11.4657
 20
4.0627
  0
VERTEX
  8
LAYER10
 62
     1
  6
CONTINUOUS
 10
11.4689
 20
4.0685
  0
VERTEX
  8
LAYER10
 62
     1
  6
CONTINUOUS
 10
11.4714
 20
4.0731
  0
VERTEX
  8
LAYER10
 62
     1
  6
CONTINUOUS
 10
11.4739
 20
4.0778
  0
VERTEX
  8
LAYER10
 62
     1
  6
CONTINUOUS
 10
11.4764
 20
4.0826
  0
VERTEX
  8
LAYER10
 62
     1
  6
CONTINUOUS
 10
11.4789
 20
4.0873
  0
VERTEX
  8
LAYER10
 62
     1
  6
CONTINUOUS
 10
11.4814
 20
4.0919
  0
VERTEX
  8
LAYER10
 62
     1
  6
CONTINUOUS
 10
11.4840
 20
4.0965
  0
VERTEX
  8
LAYER10
 62
     1
  6
CONTINUOUS
 10
11.4868
 20
4.1009
  0
VERTEX
  8
LAYER10
 62
     1
  6
CONTINUOUS
 10
11.4897
 20
4.1051
  0
VERTEX
  8
LAYER10
 62
     1
  6
CONTINUOUS
 10
11.4927
 20
4.1091
  0
VERTEX
  8
LAYER10
 62
     1
  6
CONTINUOUS
 10
11.4960
 20
4.1128
  0
VERTEX
  8
LAYER10
 62
     1
  6
CONTINUOUS
 10
11.4995
 20
4.1162
  0
VERTEX
  8
LAYER10
 62
     1
  6
CONTINUOUS
 10
11.5033
 20
4.1193
  0
SEQEND
  8
LAYER10
  0
POLYLINE
  8
LAYER12
 62
     5
 66
     1
  6
CONTINUOUS
  0
VERTEX
  8
LAYER12
 62
     5
  6
CONTINUOUS
 10
11.0248
 20
4.5561
  0
VERTEX
  8
LAYER12
 62
     5
  6
CONTINUOUS
 10
11.0284
 20
4.5561
  0
SEQEND
  8
LAYER12
  0
POLYLINE
  8
LAYER12
 62
     5
 66
     1
  6
CONTINUOUS
  0
VERTEX
  8
LAYER12
 62
     5
  6
CONTINUOUS
 10
11.0235
 20
3.5346
  0
VERTEX
  8
LAYER12
 62
     5
  6
CONTINUOUS
 10
11.0235
 20
3.5346
  0
SEQEND
  8
LAYER12
  0
POLYLINE
  8
LAYER12
 62
     5
 66
     1
  6
CONTINUOUS
  0
VERTEX
  8
LAYER12
 62
     5
  6
CONTINUOUS
 10
11.0235
 20
3.5346
  0
VERTEX
  8
LAYER12
 62
     5
  6
CONTINUOUS
 10
11.0235
 20
3.5346
  0
SEQEND
  8
LAYER12
  0
POLYLINE
  8
LAYER12
 62
     5
 66
     1
  6
CONTINUOUS
  0
VERTEX
  8
LAYER12
 62
     5
  6
CONTINUOUS
 10
11.0235
 20
3.5346
  0
VERTEX
  8
LAYER12
 62
     5
  6
CONTINUOUS
 10
11.0235
 20
4.5552
  0
SEQEND
  8
LAYER12
  0
POLYLINE
  8
LAYER12
 62
     5
 66
     1
  6
CONTINUOUS
  0
VERTEX
  8
LAYER12
 62
     5
  6
CONTINUOUS
 10
11.0284
 20
3.5331
  0
VERTEX
  8
LAYER12
 62
     5
  6
CONTINUOUS
 10
11.0248
 20
3.5331
  0
SEQEND
  8
LAYER12
  0
POLYLINE
  8
LAYER12
 62
     5
 66
     1
  6
CONTINUOUS
  0
VERTEX
  8
LAYER12
 62
     5
  6
CONTINUOUS
 10
11.0235
 20
4.5552
  0
VERTEX
  8
LAYER12
 62
     5
  6
CONTINUOUS
 10
11.0235
 20
4.5555
  0
SEQEND
  8
LAYER12
  0
POLYLINE
  8
LAYER12
 62
     5
 66
     1
  6
CONTINUOUS
  0
VERTEX
  8
LAYER12
 62
     5
  6
CONTINUOUS
 10
11.0235
 20
4.5555
  0
VERTEX
  8
LAYER12
 62
     5
  6
CONTINUOUS
 10
11.0235
 20
4.5588
  0
SEQEND
  8
LAYER12
  0
POLYLINE
  8
LAYER12
 62
     5
 66
     1
  6
CONTINUOUS
  0
VERTEX
  8
LAYER12
 62
     5
  6
CONTINUOUS
 10
12.0515
 20
3.5331
  0
VERTEX
  8
LAYER12
 62
     5
  6
CONTINUOUS
 10
11.0284
 20
3.5331
  0
SEQEND
  8
LAYER12
  0
POLYLINE
  8
LAYER12
 62
     5
 66
     1
  6
CONTINUOUS
  0
VERTEX
  8
LAYER12
 62
     5
  6
CONTINUOUS
 10
11.0248
 20
3.5331
  0
VERTEX
  8
LAYER12
 62
     5
  6
CONTINUOUS
 10
11.0221
 20
3.5331
  0
SEQEND
  8
LAYER12
  0
POLYLINE
  8
LAYER12
 62
     5
 66
     1
  6
CONTINUOUS
  0
VERTEX
  8
LAYER12
 62
     5
  6
CONTINUOUS
 10
11.0221
 20
3.5331
  0
VERTEX
  8
LAYER12
 62
     5
  6
CONTINUOUS
 10
11.0213
 20
3.5331
  0
SEQEND
  8
LAYER12
  0
POLYLINE
  8
LAYER12
 62
     5
 66
     1
  6
CONTINUOUS
  0
VERTEX
  8
LAYER12
 62
     5
  6
CONTINUOUS
 10
11.0235
 20
3.5261
  0
VERTEX
  8
LAYER12
 62
     5
  6
CONTINUOUS
 10
11.0235
 20
3.5346
  0
SEQEND
  8
LAYER12
  0
POLYLINE
  8
LAYER12
 62
     5
 66
     1
  6
CONTINUOUS
  0
VERTEX
  8
LAYER12
 62
     5
  6
CONTINUOUS
 10
11.0235
 20
4.5588
  0
VERTEX
  8
LAYER12
 62
     5
  6
CONTINUOUS
 10
11.0235
 20
4.5597
  0
SEQEND
  8
LAYER12
  0
POLYLINE
  8
LAYER12
 62
     5
 66
     1
  6
CONTINUOUS
  0
VERTEX
  8
LAYER12
 62
     5
  6
CONTINUOUS
 10
11.0213
 20
4.5561
  0
VERTEX
  8
LAYER12
 62
     5
  6
CONTINUOUS
 10
11.0221
 20
4.5561
  0
SEQEND
  8
LAYER12
  0
POLYLINE
  8
LAYER12
 62
     5
 66
     1
  6
CONTINUOUS
  0
VERTEX
  8
LAYER12
 62
     5
  6
CONTINUOUS
 10
11.0221
 20
4.5561
  0
VERTEX
  8
LAYER12
 62
     5
  6
CONTINUOUS
 10
11.0248
 20
4.5561
  0
SEQEND
  8
LAYER12
  0
POLYLINE
  8
LAYER12
 62
     5
 66
     1
  6
CONTINUOUS
  0
VERTEX
  8
LAYER12
 62
     5
  6
CONTINUOUS
 10
11.0284
 20
4.5561
  0
VERTEX
  8
LAYER12
 62
     5
  6
CONTINUOUS
 10
12.0515
 20
4.5561
  0
SEQEND
  8
LAYER12
  0
POLYLINE
  8
LAYER12
 62
     5
 66
     1
  6
CONTINUOUS
  0
VERTEX
  8
LAYER12
 62
     5
  6
CONTINUOUS
 10
12.0515
 20
4.5561
  0
VERTEX
  8
LAYER12
 62
     5
  6
CONTINUOUS
 10
12.0515
 20
4.5561
  0
SEQEND
  8
LAYER12
  0
POLYLINE
  8
LAYER12
 62
     5
 66
     1
  6
CONTINUOUS
  0
VERTEX
  8
LAYER12
 62
     5
  6
CONTINUOUS
 10
12.0465
 20
4.5597
  0
VERTEX
  8
LAYER12
 62
     5
  6
CONTINUOUS
 10
12.0465
 20
4.5555
  0
SEQEND
  8
LAYER12
  0
POLYLINE
  8
LAYER12
 62
     5
 66
     1
  6
CONTINUOUS
  0
VERTEX
  8
LAYER12
 62
     5
  6
CONTINUOUS
 10
12.0465
 20
4.5555
  0
VERTEX
  8
LAYER12
 62
     5
  6
CONTINUOUS
 10
12.0465
 20
3.5261
  0
SEQEND
  8
LAYER12
  0
ENDSEC
  0
EOF
