  0
SECTION
  2
HEADER
  9
$ACADVER
  1
AC1004
  9
$EXTMIN
 10
2.0492
 20
3.5317
  9
$EXTMAX
 10
3.0766
 20
4.5561
  9
$LIMMIN
 10
2.0492
 20
3.5317
  9
$LIMMAX
 10
3.0766
 20
4.5561
  9
$INSBASE
 10
0.0
 20
0.0
  9
$VIEWCTR
 10
7.21903
 20
4.5
  9
$VIEWSIZE
 40
9.0
  9
$SNAPMODE
 70
     0
  9
$SNAPUNIT
 10
1.0
 20
1.0
  9
$SNAPBASE
 10
0.0
 20
0.0
  9
$SNAPANG
 50
0.0
  9
$SNAPSTYLE
 70
     0
  9
$SNAPISOPAIR
 70
     0
  9
$GRIDMODE
 70
     0
  9
$GRIDUNIT
 10
0.0
 20
0.0
  9
$ORTHOMODE
 70
     0
  9
$REGENMODE
 70
     1
  9
$FILLMODE
 70
     1
  9
$QTEXTMODE
 70
     0
  9
$DRAGMODE
 70
     2
  9
$LTSCALE
 40
1.0
  9
$OSMODE
 70
     0
  9
$ATTMODE
 70
     1
  9
$TEXTSIZE
 40
0.2
  9
$TRACEWID
 40
0.05
  9
$TEXTSTYLE
  7
STANDARD
  9
$CLAYER
  8
0
  9
$CELTYPE
  6
BYLAYER
  9
$CECOLOR
 62
   256
  9
$DIMSCALE
 40
1.0
  9
$DIMASZ
 40
0.18
  9
$DIMEXO
 40
0.0625
  9
$DIMDLI
 40
0.38
  9
$DIMRND
 40
0.0
  9
$DIMDLE
 40
0.0
  9
$DIMEXE
 40
0.18
  9
$DIMTP
 40
0.0
  9
$DIMTM
 40
0.0
  9
$DIMTXT
 40
0.18
  9
$DIMCEN
 40
0.09
  9
$DIMTSZ
 40
0.0
  9
$DIMTOL
 70
     0
  9
$DIMLIM
 70
     0
  9
$DIMTIH
 70
     1
  9
$DIMTOH
 70
     1
  9
$DIMSE1
 70
     0
  9
$DIMSE2
 70
     0
  9
$DIMTAD
 70
     0
  9
$DIMZIN
 70
     0
  9
$DIMBLK
  1

  9
$DIMASO
 70
     1
  9
$DIMSHO
 70
     0
  9
$DIMPOST
  1

  9
$DIMAPOST
  1

  9
$DIMALT
 70
     0
  9
$DIMALTD
 70
     2
  9
$DIMALTF
 40
25.4
  9
$DIMLFAC
 40
1.0
  9
$LUNITS
 70
     2
  9
$LUPREC
 70
     4
  9
$AXISMODE
 70
     0
  9
$AXISUNIT
 10
0.0
 20
0.0
  9
$SKETCHINC
 40
0.1
  9
$FILLETRAD
 40
0.0
  9
$AUNITS
 70
     0
  9
$AUPREC
 70
     0
  9
$MENU
  1
acad
  9
$ELEVATION
 40
0.0
  9
$THICKNESS
 40
0.0
  9
$VIEWDIR
 10
0.0
 20
0.0
 30
1.0
  9
$LIMCHECK
 70
     0
  9
$BLIPMODE
 70
     1
  9
$CHAMFERA
 40
0.0
  9
$CHAMFERB
 40
0.0
  9
$FASTZOOM
 70
     1
  9
$SKPOLY
 70
     0
  9
$TDCREATE
 40
2447222.5666886573
  9
$TDUPDATE
 40
2447222.5666886573
  9
$TDINDWG
 40
0.0000000000
  9
$TDUSRTIMER
 40
0.0000000000
  9
$USRTIMER
 70
     1
  9
$ANGBASE
 50
0.0
  9
$ANGDIR
 70
     0
  9
$PDMODE
 70
     0
  9
$PDSIZE
 40
0.0
  9
$PLINEWID
 40
0.0
  9
$COORDS
 70
     0
  9
$SPLFRAME
 70
     0
  9
$SPLINESEGS
 70
     8
  9
$ATTDIA
 70
     0
  9
$ATTREQ
 70
     1
  9
$USERI1
 70
     0
  9
$USERI2
 70
     0
  9
$USERI3
 70
     0
  9
$USERI4
 70
     0
  9
$USERI5
 70
     0
  9
$USERR1
 40
0.0
  9
$USERR2
 40
0.0
  9
$USERR3
 40
0.0
  9
$USERR4
 40
0.0
  9
$USERR5
 40
0.0
  0
ENDSEC
  0
SECTION
  2
TABLES
  0
TABLE
  2
LTYPE
 70
     13
  0
LTYPE
  2
CONTINUOUS
 70
    64
  3
Solid line
 72
    65
 73
     0
 40
0.0
  0
LTYPE
  2
DASHED
 70
    64
  3
__ __ __ __ __ __ __ __ __ __ __ __ __ __ __
 72
    65
 73
     2
 40
0.75
 49
0.5
 49
-0.25
  0
LTYPE
  2
HIDDEN
 70
    64
  3
_ _ _ _ _ _ _ _ _ _ _ _ _ _ _ _ _ _ _ _ _ _ _
 72
    65
 73
     2
 40
0.375
 49
0.25
 49
-0.125
  0
LTYPE
  2
CENTER
 70
    64
  3
____ _ ____ _ ____ _ ____ _ ____ _ ____ _ ____
 72
    65
 73
     4
 40
2.0
 49
1.25
 49
-0.25
 49
0.25
 49
-0.25
  0
LTYPE
  2
PHANTOM
 70
    64
  3
_____ _ _ _____ _ _ _____ _ _ _____ _ _ ____
 72
    65
 73
     6
 40
2.5
 49
1.25
 49
-0.25
 49
0.25
 49
-0.25
 49
0.25
 49
-0.25
  0
LTYPE
  2
DOT
 70
    64
  3
...............................................
 72
    65
 73
     2
 40
0.25
 49
0.0
 49
-0.25
  0
LTYPE
  2
DASHDOT
 70
    64
  3
__ . __ . __ . __ . __ . __ . __ . __ . __ . __
 72
    65
 73
     4
 40
1.0
 49
0.5
 49
-0.25
 49
0.0
 49
-0.25
  0
LTYPE
  2
BORDER
 70
    64
  3
__ __ . __ __ . __ __ . __ __ . __ __ . __ __
 72
    65
 73
     6
 40
1.75
 49
0.5
 49
-0.25
 49
0.5
 49
-0.25
 49
0.0
 49
-0.25
  0
LTYPE
  2
DIVIDE
 70
    64
  3
__ . . __ . . __ . . __ . . __ . . __ . . __
 72
    65
 73
     6
 40
1.25
 49
0.5
 49
-0.25
 49
0.0
 49
-0.25
 49
0.0
 49
-0.25
  0
LTYPE
  2
DCTYPE1
 70
    64
  3
__ . . __ . . __ . . __ . . __ . . __ . . __
 72
    65
 73
     8
 40
2.5
 49
0.5
 49
-0.25
 49
0.125
 49
-0.25
 49
0.25
 49
-0.25
 49
0.125
 49
-0.25
  0
LTYPE
  2
DCTYPE2
 70
    64
  3
__ . . __ . . __ . . __ . . __ . . __ . . __
 72
    65
 73
     6
 40
2.05
 49
1.0
 49
-0.3
 49
0.15
 49
-0.15
 49
0.15
 49
-0.3
  0
LTYPE
  2
DCTYPE3
 70
    64
  3
__ . . __ . . __ . . __ . . __ . . __ . . __
 72
    65
 73
     6
 40
2.5
 49
0.8
 49
-0.2
 49
0.8
 49
-0.2
 49
0.3
 49
-0.2
  0
LTYPE
  2
DCTYPE4
 70
    64
  3
__ . . __ . . __ . . __ . . __ . . __ . . __
 72
    65
 73
     10
 40
3.97
 49
1.75
 49
-0.3
 49
0.3
 49
-0.3
 49
0.06
 49
-0.3
 49
0.06
 49
-0.3
 49
0.3
 49
-0.3
  0
ENDTAB
  0
TABLE
  2
LAYER
 70
    153
  0
LAYER
  2
LAYER1
 70
 64
 62
     7
  6
CONTINUOUS
  0
LAYER
  2
LAYER10
 70
 64
 62
     1
  6
CONTINUOUS
  0
LAYER
  2
LAYER12
 70
 64
 62
     5
  6
CONTINUOUS
  0
ENDTAB
  0
ENDSEC
  0
SECTION
  2
BLOCKS
  0
ENDSEC
  0
SECTION
  2
ENTITIES
  0
CIRCLE
  8
LAYER1
 62
     7
  6
CONTINUOUS
 10
2.6616
 20
4.0040
 40
0.0453
  0
CIRCLE
  8
LAYER1
 62
     7
  6
CONTINUOUS
 10
2.7281
 20
4.1453
 40
0.0178
  0
CIRCLE
  8
LAYER1
 62
     7
  6
CONTINUOUS
 10
2.8238
 20
4.1236
 40
0.0203
  0
CIRCLE
  8
LAYER1
 62
     7
  6
CONTINUOUS
 10
2.8327
 20
4.2393
 40
0.0237
  0
CIRCLE
  8
LAYER1
 62
     7
  6
CONTINUOUS
 10
2.9864
 20
4.1880
 40
0.0135
  0
CIRCLE
  8
LAYER1
 62
     7
  6
CONTINUOUS
 10
3.0096
 20
4.1279
 40
0.0191
  0
CIRCLE
  8
LAYER1
 62
     7
  6
CONTINUOUS
 10
3.0347
 20
4.3944
 40
0.0272
  0
CIRCLE
  8
LAYER1
 62
     7
  6
CONTINUOUS
 10
2.9384
 20
4.4839
 40
0.0183
  0
CIRCLE
  8
LAYER1
 62
     7
  6
CONTINUOUS
 10
2.9781
 20
4.5320
 40
0.0181
  0
CIRCLE
  8
LAYER1
 62
     7
  6
CONTINUOUS
 10
3.0333
 20
4.5376
 40
0.0112
  0
CIRCLE
  8
LAYER1
 62
     7
  6
CONTINUOUS
 10
2.9157
 20
3.9663
 40
0.0146
  0
CIRCLE
  8
LAYER1
 62
     7
  6
CONTINUOUS
 10
2.6976
 20
4.1852
 40
0.0146
  0
CIRCLE
  8
LAYER1
 62
     7
  6
CONTINUOUS
 10
2.6270
 20
4.2147
 40
0.0178
  0
CIRCLE
  8
LAYER1
 62
     7
  6
CONTINUOUS
 10
2.5502
 20
4.3647
 40
0.0227
  0
CIRCLE
  8
LAYER1
 62
     7
  6
CONTINUOUS
 10
2.5138
 20
4.4924
 40
0.0203
  0
CIRCLE
  8
LAYER1
 62
     7
  6
CONTINUOUS
 10
2.4315
 20
4.1676
 40
0.0249
  0
CIRCLE
  8
LAYER1
 62
     7
  6
CONTINUOUS
 10
2.4645
 20
4.1303
 40
0.0142
  0
CIRCLE
  8
LAYER1
 62
     7
  6
CONTINUOUS
 10
2.3161
 20
4.1565
 40
0.0227
  0
CIRCLE
  8
LAYER1
 62
     7
  6
CONTINUOUS
 10
2.2984
 20
3.9052
 40
0.0191
  0
CIRCLE
  8
LAYER1
 62
     7
  6
CONTINUOUS
 10
2.3993
 20
3.8634
 40
0.0281
  0
CIRCLE
  8
LAYER1
 62
     7
  6
CONTINUOUS
 10
2.5368
 20
3.9225
 40
0.0135
  0
CIRCLE
  8
LAYER1
 62
     7
  6
CONTINUOUS
 10
2.5844
 20
3.9380
 40
0.0178
  0
CIRCLE
  8
LAYER1
 62
     7
  6
CONTINUOUS
 10
2.5772
 20
3.9003
 40
0.0207
  0
CIRCLE
  8
LAYER1
 62
     7
  6
CONTINUOUS
 10
2.5482
 20
3.7895
 40
0.0159
  0
CIRCLE
  8
LAYER1
 62
     7
  6
CONTINUOUS
 10
2.6258
 20
3.8103
 40
0.0202
  0
CIRCLE
  8
LAYER1
 62
     7
  6
CONTINUOUS
 10
2.6886
 20
3.8159
 40
0.0112
  0
CIRCLE
  8
LAYER1
 62
     7
  6
CONTINUOUS
 10
2.7054
 20
3.8914
 40
0.0153
  0
CIRCLE
  8
LAYER1
 62
     7
  6
CONTINUOUS
 10
2.7535
 20
3.8517
 40
0.0181
  0
CIRCLE
  8
LAYER1
 62
     7
  6
CONTINUOUS
 10
2.7931
 20
3.9199
 40
0.0237
  0
CIRCLE
  8
LAYER1
 62
     7
  6
CONTINUOUS
 10
2.4580
 20
4.0297
 40
0.0104
  0
CIRCLE
  8
LAYER1
 62
     7
  6
CONTINUOUS
 10
2.4381
 20
4.0019
 40
0.0128
  0
CIRCLE
  8
LAYER1
 62
     7
  6
CONTINUOUS
 10
2.6228
 20
4.1242
 40
0.0107
  0
CIRCLE
  8
LAYER1
 62
     7
  6
CONTINUOUS
 10
2.5728
 20
4.0986
 40
0.0227
  0
POLYLINE
  8
LAYER1
 62
     7
 66
     1
  6
HIDDEN
  0
VERTEX
  8
LAYER1
 62
     7
  6
HIDDEN
 10
2.8892
 20
4.3754
  0
VERTEX
  8
LAYER1
 62
     7
  6
HIDDEN
 10
2.8923
 20
4.3760
  0
VERTEX
  8
LAYER1
 62
     7
  6
HIDDEN
 10
2.8954
 20
4.3762
  0
VERTEX
  8
LAYER1
 62
     7
  6
HIDDEN
 10
2.8987
 20
4.3760
  0
VERTEX
  8
LAYER1
 62
     7
  6
HIDDEN
 10
2.9020
 20
4.3754
  0
VERTEX
  8
LAYER1
 62
     7
  6
HIDDEN
 10
2.9053
 20
4.3745
  0
VERTEX
  8
LAYER1
 62
     7
  6
HIDDEN
 10
2.9086
 20
4.3733
  0
VERTEX
  8
LAYER1
 62
     7
  6
HIDDEN
 10
2.9118
 20
4.3717
  0
VERTEX
  8
LAYER1
 62
     7
  6
HIDDEN
 10
2.9148
 20
4.3700
  0
VERTEX
  8
LAYER1
 62
     7
  6
HIDDEN
 10
2.9176
 20
4.3680
  0
VERTEX
  8
LAYER1
 62
     7
  6
HIDDEN
 10
2.9202
 20
4.3657
  0
VERTEX
  8
LAYER1
 62
     7
  6
HIDDEN
 10
2.9225
 20
4.3633
  0
VERTEX
  8
LAYER1
 62
     7
  6
HIDDEN
 10
2.9245
 20
4.3607
  0
VERTEX
  8
LAYER1
 62
     7
  6
HIDDEN
 10
2.9250
 20
4.3599
  0
VERTEX
  8
LAYER1
 62
     7
  6
HIDDEN
 10
2.9255
 20
4.3591
  0
VERTEX
  8
LAYER1
 62
     7
  6
HIDDEN
 10
2.9260
 20
4.3583
  0
VERTEX
  8
LAYER1
 62
     7
  6
HIDDEN
 10
2.9264
 20
4.3575
  0
VERTEX
  8
LAYER1
 62
     7
  6
HIDDEN
 10
2.9268
 20
4.3566
  0
VERTEX
  8
LAYER1
 62
     7
  6
HIDDEN
 10
2.9272
 20
4.3558
  0
VERTEX
  8
LAYER1
 62
     7
  6
HIDDEN
 10
2.9276
 20
4.3550
  0
VERTEX
  8
LAYER1
 62
     7
  6
HIDDEN
 10
2.9280
 20
4.3541
  0
VERTEX
  8
LAYER1
 62
     7
  6
HIDDEN
 10
2.9284
 20
4.3533
  0
VERTEX
  8
LAYER1
 62
     7
  6
HIDDEN
 10
2.9288
 20
4.3524
  0
VERTEX
  8
LAYER1
 62
     7
  6
HIDDEN
 10
2.9292
 20
4.3516
  0
VERTEX
  8
LAYER1
 62
     7
  6
HIDDEN
 10
2.9296
 20
4.3507
  0
VERTEX
  8
LAYER1
 62
     7
  6
HIDDEN
 10
2.9306
 20
4.3486
  0
VERTEX
  8
LAYER1
 62
     7
  6
HIDDEN
 10
2.9317
 20
4.3466
  0
VERTEX
  8
LAYER1
 62
     7
  6
HIDDEN
 10
2.9327
 20
4.3445
  0
VERTEX
  8
LAYER1
 62
     7
  6
HIDDEN
 10
2.9338
 20
4.3424
  0
VERTEX
  8
LAYER1
 62
     7
  6
HIDDEN
 10
2.9349
 20
4.3404
  0
VERTEX
  8
LAYER1
 62
     7
  6
HIDDEN
 10
2.9359
 20
4.3383
  0
VERTEX
  8
LAYER1
 62
     7
  6
HIDDEN
 10
2.9368
 20
4.3362
  0
VERTEX
  8
LAYER1
 62
     7
  6
HIDDEN
 10
2.9377
 20
4.3341
  0
VERTEX
  8
LAYER1
 62
     7
  6
HIDDEN
 10
2.9385
 20
4.3320
  0
VERTEX
  8
LAYER1
 62
     7
  6
HIDDEN
 10
2.9391
 20
4.3299
  0
VERTEX
  8
LAYER1
 62
     7
  6
HIDDEN
 10
2.9396
 20
4.3278
  0
VERTEX
  8
LAYER1
 62
     7
  6
HIDDEN
 10
2.9399
 20
4.3257
  0
VERTEX
  8
LAYER1
 62
     7
  6
HIDDEN
 10
2.9400
 20
4.3228
  0
VERTEX
  8
LAYER1
 62
     7
  6
HIDDEN
 10
2.9399
 20
4.3199
  0
VERTEX
  8
LAYER1
 62
     7
  6
HIDDEN
 10
2.9394
 20
4.3170
  0
VERTEX
  8
LAYER1
 62
     7
  6
HIDDEN
 10
2.9388
 20
4.3141
  0
VERTEX
  8
LAYER1
 62
     7
  6
HIDDEN
 10
2.9379
 20
4.3111
  0
VERTEX
  8
LAYER1
 62
     7
  6
HIDDEN
 10
2.9369
 20
4.3082
  0
VERTEX
  8
LAYER1
 62
     7
  6
HIDDEN
 10
2.9358
 20
4.3053
  0
VERTEX
  8
LAYER1
 62
     7
  6
HIDDEN
 10
2.9347
 20
4.3023
  0
VERTEX
  8
LAYER1
 62
     7
  6
HIDDEN
 10
2.9335
 20
4.2993
  0
VERTEX
  8
LAYER1
 62
     7
  6
HIDDEN
 10
2.9323
 20
4.2964
  0
VERTEX
  8
LAYER1
 62
     7
  6
HIDDEN
 10
2.9312
 20
4.2934
  0
VERTEX
  8
LAYER1
 62
     7
  6
HIDDEN
 10
2.9302
 20
4.2904
  0
VERTEX
  8
LAYER1
 62
     7
  6
HIDDEN
 10
2.9298
 20
4.2891
  0
VERTEX
  8
LAYER1
 62
     7
  6
HIDDEN
 10
2.9294
 20
4.2878
  0
VERTEX
  8
LAYER1
 62
     7
  6
HIDDEN
 10
2.9290
 20
4.2866
  0
VERTEX
  8
LAYER1
 62
     7
  6
HIDDEN
 10
2.9287
 20
4.2853
  0
VERTEX
  8
LAYER1
 62
     7
  6
HIDDEN
 10
2.9283
 20
4.2840
  0
VERTEX
  8
LAYER1
 62
     7
  6
HIDDEN
 10
2.9279
 20
4.2827
  0
VERTEX
  8
LAYER1
 62
     7
  6
HIDDEN
 10
2.9275
 20
4.2815
  0
VERTEX
  8
LAYER1
 62
     7
  6
HIDDEN
 10
2.9272
 20
4.2802
  0
VERTEX
  8
LAYER1
 62
     7
  6
HIDDEN
 10
2.9267
 20
4.2790
  0
VERTEX
  8
LAYER1
 62
     7
  6
HIDDEN
 10
2.9263
 20
4.2777
  0
VERTEX
  8
LAYER1
 62
     7
  6
HIDDEN
 10
2.9258
 20
4.2765
  0
VERTEX
  8
LAYER1
 62
     7
  6
HIDDEN
 10
2.9253
 20
4.2753
  0
VERTEX
  8
LAYER1
 62
     7
  6
HIDDEN
 10
2.9247
 20
4.2740
  0
VERTEX
  8
LAYER1
 62
     7
  6
HIDDEN
 10
2.9240
 20
4.2726
  0
VERTEX
  8
LAYER1
 62
     7
  6
HIDDEN
 10
2.9232
 20
4.2713
  0
VERTEX
  8
LAYER1
 62
     7
  6
HIDDEN
 10
2.9224
 20
4.2700
  0
VERTEX
  8
LAYER1
 62
     7
  6
HIDDEN
 10
2.9216
 20
4.2687
  0
VERTEX
  8
LAYER1
 62
     7
  6
HIDDEN
 10
2.9208
 20
4.2674
  0
VERTEX
  8
LAYER1
 62
     7
  6
HIDDEN
 10
2.9199
 20
4.2662
  0
VERTEX
  8
LAYER1
 62
     7
  6
HIDDEN
 10
2.9190
 20
4.2650
  0
VERTEX
  8
LAYER1
 62
     7
  6
HIDDEN
 10
2.9181
 20
4.2637
  0
VERTEX
  8
LAYER1
 62
     7
  6
HIDDEN
 10
2.9172
 20
4.2625
  0
VERTEX
  8
LAYER1
 62
     7
  6
HIDDEN
 10
2.9163
 20
4.2613
  0
VERTEX
  8
LAYER1
 62
     7
  6
HIDDEN
 10
2.9154
 20
4.2601
  0
VERTEX
  8
LAYER1
 62
     7
  6
HIDDEN
 10
2.9145
 20
4.2590
  0
VERTEX
  8
LAYER1
 62
     7
  6
HIDDEN
 10
2.9136
 20
4.2578
  0
VERTEX
  8
LAYER1
 62
     7
  6
HIDDEN
 10
2.9128
 20
4.2566
  0
VERTEX
  8
LAYER1
 62
     7
  6
HIDDEN
 10
2.9119
 20
4.2555
  0
VERTEX
  8
LAYER1
 62
     7
  6
HIDDEN
 10
2.9111
 20
4.2543
  0
VERTEX
  8
LAYER1
 62
     7
  6
HIDDEN
 10
2.9103
 20
4.2531
  0
VERTEX
  8
LAYER1
 62
     7
  6
HIDDEN
 10
2.9095
 20
4.2518
  0
VERTEX
  8
LAYER1
 62
     7
  6
HIDDEN
 10
2.9086
 20
4.2506
  0
VERTEX
  8
LAYER1
 62
     7
  6
HIDDEN
 10
2.9078
 20
4.2492
  0
VERTEX
  8
LAYER1
 62
     7
  6
HIDDEN
 10
2.9071
 20
4.2479
  0
VERTEX
  8
LAYER1
 62
     7
  6
HIDDEN
 10
2.9063
 20
4.2465
  0
VERTEX
  8
LAYER1
 62
     7
  6
HIDDEN
 10
2.9055
 20
4.2450
  0
VERTEX
  8
LAYER1
 62
     7
  6
HIDDEN
 10
2.9047
 20
4.2434
  0
VERTEX
  8
LAYER1
 62
     7
  6
HIDDEN
 10
2.9040
 20
4.2418
  0
VERTEX
  8
LAYER1
 62
     7
  6
HIDDEN
 10
2.9032
 20
4.2403
  0
VERTEX
  8
LAYER1
 62
     7
  6
HIDDEN
 10
2.9024
 20
4.2387
  0
VERTEX
  8
LAYER1
 62
     7
  6
HIDDEN
 10
2.9016
 20
4.2371
  0
VERTEX
  8
LAYER1
 62
     7
  6
HIDDEN
 10
2.9009
 20
4.2357
  0
VERTEX
  8
LAYER1
 62
     7
  6
HIDDEN
 10
2.9000
 20
4.2343
  0
VERTEX
  8
LAYER1
 62
     7
  6
HIDDEN
 10
2.8992
 20
4.2330
  0
VERTEX
  8
LAYER1
 62
     7
  6
HIDDEN
 10
2.8984
 20
4.2319
  0
VERTEX
  8
LAYER1
 62
     7
  6
HIDDEN
 10
2.8975
 20
4.2310
  0
VERTEX
  8
LAYER1
 62
     7
  6
HIDDEN
 10
2.8966
 20
4.2303
  0
VERTEX
  8
LAYER1
 62
     7
  6
HIDDEN
 10
2.8956
 20
4.2298
  0
VERTEX
  8
LAYER1
 62
     7
  6
HIDDEN
 10
2.8942
 20
4.2296
  0
VERTEX
  8
LAYER1
 62
     7
  6
HIDDEN
 10
2.8927
 20
4.2298
  0
VERTEX
  8
LAYER1
 62
     7
  6
HIDDEN
 10
2.8912
 20
4.2304
  0
VERTEX
  8
LAYER1
 62
     7
  6
HIDDEN
 10
2.8896
 20
4.2313
  0
VERTEX
  8
LAYER1
 62
     7
  6
HIDDEN
 10
2.8880
 20
4.2326
  0
VERTEX
  8
LAYER1
 62
     7
  6
HIDDEN
 10
2.8863
 20
4.2340
  0
VERTEX
  8
LAYER1
 62
     7
  6
HIDDEN
 10
2.8845
 20
4.2357
  0
VERTEX
  8
LAYER1
 62
     7
  6
HIDDEN
 10
2.8827
 20
4.2375
  0
VERTEX
  8
LAYER1
 62
     7
  6
HIDDEN
 10
2.8809
 20
4.2393
  0
VERTEX
  8
LAYER1
 62
     7
  6
HIDDEN
 10
2.8791
 20
4.2412
  0
VERTEX
  8
LAYER1
 62
     7
  6
HIDDEN
 10
2.8772
 20
4.2430
  0
VERTEX
  8
LAYER1
 62
     7
  6
HIDDEN
 10
2.8754
 20
4.2447
  0
VERTEX
  8
LAYER1
 62
     7
  6
HIDDEN
 10
2.8735
 20
4.2463
  0
VERTEX
  8
LAYER1
 62
     7
  6
HIDDEN
 10
2.8716
 20
4.2477
  0
VERTEX
  8
LAYER1
 62
     7
  6
HIDDEN
 10
2.8697
 20
4.2491
  0
VERTEX
  8
LAYER1
 62
     7
  6
HIDDEN
 10
2.8679
 20
4.2503
  0
VERTEX
  8
LAYER1
 62
     7
  6
HIDDEN
 10
2.8661
 20
4.2515
  0
VERTEX
  8
LAYER1
 62
     7
  6
HIDDEN
 10
2.8643
 20
4.2527
  0
VERTEX
  8
LAYER1
 62
     7
  6
HIDDEN
 10
2.8626
 20
4.2538
  0
VERTEX
  8
LAYER1
 62
     7
  6
HIDDEN
 10
2.8609
 20
4.2549
  0
VERTEX
  8
LAYER1
 62
     7
  6
HIDDEN
 10
2.8593
 20
4.2560
  0
VERTEX
  8
LAYER1
 62
     7
  6
HIDDEN
 10
2.8578
 20
4.2571
  0
VERTEX
  8
LAYER1
 62
     7
  6
HIDDEN
 10
2.8564
 20
4.2583
  0
VERTEX
  8
LAYER1
 62
     7
  6
HIDDEN
 10
2.8551
 20
4.2596
  0
VERTEX
  8
LAYER1
 62
     7
  6
HIDDEN
 10
2.8539
 20
4.2609
  0
VERTEX
  8
LAYER1
 62
     7
  6
HIDDEN
 10
2.8528
 20
4.2624
  0
VERTEX
  8
LAYER1
 62
     7
  6
HIDDEN
 10
2.8517
 20
4.2639
  0
VERTEX
  8
LAYER1
 62
     7
  6
HIDDEN
 10
2.8507
 20
4.2655
  0
VERTEX
  8
LAYER1
 62
     7
  6
HIDDEN
 10
2.8497
 20
4.2671
  0
VERTEX
  8
LAYER1
 62
     7
  6
HIDDEN
 10
2.8486
 20
4.2688
  0
VERTEX
  8
LAYER1
 62
     7
  6
HIDDEN
 10
2.8475
 20
4.2705
  0
VERTEX
  8
LAYER1
 62
     7
  6
HIDDEN
 10
2.8462
 20
4.2723
  0
VERTEX
  8
LAYER1
 62
     7
  6
HIDDEN
 10
2.8449
 20
4.2741
  0
VERTEX
  8
LAYER1
 62
     7
  6
HIDDEN
 10
2.8434
 20
4.2759
  0
VERTEX
  8
LAYER1
 62
     7
  6
HIDDEN
 10
2.8417
 20
4.2777
  0
VERTEX
  8
LAYER1
 62
     7
  6
HIDDEN
 10
2.8399
 20
4.2795
  0
VERTEX
  8
LAYER1
 62
     7
  6
HIDDEN
 10
2.8381
 20
4.2811
  0
VERTEX
  8
LAYER1
 62
     7
  6
HIDDEN
 10
2.8362
 20
4.2826
  0
VERTEX
  8
LAYER1
 62
     7
  6
HIDDEN
 10
2.8343
 20
4.2841
  0
VERTEX
  8
LAYER1
 62
     7
  6
HIDDEN
 10
2.8324
 20
4.2855
  0
VERTEX
  8
LAYER1
 62
     7
  6
HIDDEN
 10
2.8306
 20
4.2869
  0
VERTEX
  8
LAYER1
 62
     7
  6
HIDDEN
 10
2.8289
 20
4.2883
  0
VERTEX
  8
LAYER1
 62
     7
  6
HIDDEN
 10
2.8273
 20
4.2895
  0
VERTEX
  8
LAYER1
 62
     7
  6
HIDDEN
 10
2.8261
 20
4.2907
  0
VERTEX
  8
LAYER1
 62
     7
  6
HIDDEN
 10
2.8251
 20
4.2918
  0
VERTEX
  8
LAYER1
 62
     7
  6
HIDDEN
 10
2.8245
 20
4.2928
  0
VERTEX
  8
LAYER1
 62
     7
  6
HIDDEN
 10
2.8243
 20
4.2937
  0
VERTEX
  8
LAYER1
 62
     7
  6
HIDDEN
 10
2.8247
 20
4.2944
  0
VERTEX
  8
LAYER1
 62
     7
  6
HIDDEN
 10
2.8252
 20
4.2949
  0
VERTEX
  8
LAYER1
 62
     7
  6
HIDDEN
 10
2.8261
 20
4.2953
  0
VERTEX
  8
LAYER1
 62
     7
  6
HIDDEN
 10
2.8271
 20
4.2957
  0
VERTEX
  8
LAYER1
 62
     7
  6
HIDDEN
 10
2.8284
 20
4.2960
  0
VERTEX
  8
LAYER1
 62
     7
  6
HIDDEN
 10
2.8298
 20
4.2963
  0
VERTEX
  8
LAYER1
 62
     7
  6
HIDDEN
 10
2.8312
 20
4.2967
  0
VERTEX
  8
LAYER1
 62
     7
  6
HIDDEN
 10
2.8328
 20
4.2970
  0
VERTEX
  8
LAYER1
 62
     7
  6
HIDDEN
 10
2.8343
 20
4.2974
  0
VERTEX
  8
LAYER1
 62
     7
  6
HIDDEN
 10
2.8358
 20
4.2978
  0
VERTEX
  8
LAYER1
 62
     7
  6
HIDDEN
 10
2.8372
 20
4.2983
  0
VERTEX
  8
LAYER1
 62
     7
  6
HIDDEN
 10
2.8385
 20
4.2989
  0
VERTEX
  8
LAYER1
 62
     7
  6
HIDDEN
 10
2.8397
 20
4.2996
  0
VERTEX
  8
LAYER1
 62
     7
  6
HIDDEN
 10
2.8408
 20
4.3006
  0
VERTEX
  8
LAYER1
 62
     7
  6
HIDDEN
 10
2.8417
 20
4.3018
  0
VERTEX
  8
LAYER1
 62
     7
  6
HIDDEN
 10
2.8423
 20
4.3032
  0
VERTEX
  8
LAYER1
 62
     7
  6
HIDDEN
 10
2.8427
 20
4.3047
  0
VERTEX
  8
LAYER1
 62
     7
  6
HIDDEN
 10
2.8428
 20
4.3063
  0
VERTEX
  8
LAYER1
 62
     7
  6
HIDDEN
 10
2.8427
 20
4.3080
  0
VERTEX
  8
LAYER1
 62
     7
  6
HIDDEN
 10
2.8425
 20
4.3098
  0
VERTEX
  8
LAYER1
 62
     7
  6
HIDDEN
 10
2.8421
 20
4.3117
  0
VERTEX
  8
LAYER1
 62
     7
  6
HIDDEN
 10
2.8416
 20
4.3136
  0
VERTEX
  8
LAYER1
 62
     7
  6
HIDDEN
 10
2.8409
 20
4.3156
  0
VERTEX
  8
LAYER1
 62
     7
  6
HIDDEN
 10
2.8402
 20
4.3177
  0
VERTEX
  8
LAYER1
 62
     7
  6
HIDDEN
 10
2.8395
 20
4.3197
  0
VERTEX
  8
LAYER1
 62
     7
  6
HIDDEN
 10
2.8383
 20
4.3228
  0
VERTEX
  8
LAYER1
 62
     7
  6
HIDDEN
 10
2.8371
 20
4.3259
  0
VERTEX
  8
LAYER1
 62
     7
  6
HIDDEN
 10
2.8359
 20
4.3289
  0
VERTEX
  8
LAYER1
 62
     7
  6
HIDDEN
 10
2.8348
 20
4.3318
  0
VERTEX
  8
LAYER1
 62
     7
  6
HIDDEN
 10
2.8339
 20
4.3347
  0
VERTEX
  8
LAYER1
 62
     7
  6
HIDDEN
 10
2.8331
 20
4.3374
  0
VERTEX
  8
LAYER1
 62
     7
  6
HIDDEN
 10
2.8325
 20
4.3400
  0
VERTEX
  8
LAYER1
 62
     7
  6
HIDDEN
 10
2.8321
 20
4.3424
  0
VERTEX
  8
LAYER1
 62
     7
  6
HIDDEN
 10
2.8321
 20
4.3446
  0
VERTEX
  8
LAYER1
 62
     7
  6
HIDDEN
 10
2.8324
 20
4.3466
  0
VERTEX
  8
LAYER1
 62
     7
  6
HIDDEN
 10
2.8331
 20
4.3483
  0
VERTEX
  8
LAYER1
 62
     7
  6
HIDDEN
 10
2.8342
 20
4.3498
  0
VERTEX
  8
LAYER1
 62
     7
  6
HIDDEN
 10
2.8352
 20
4.3506
  0
VERTEX
  8
LAYER1
 62
     7
  6
HIDDEN
 10
2.8364
 20
4.3514
  0
VERTEX
  8
LAYER1
 62
     7
  6
HIDDEN
 10
2.8378
 20
4.3520
  0
VERTEX
  8
LAYER1
 62
     7
  6
HIDDEN
 10
2.8393
 20
4.3525
  0
VERTEX
  8
LAYER1
 62
     7
  6
HIDDEN
 10
2.8410
 20
4.3529
  0
VERTEX
  8
LAYER1
 62
     7
  6
HIDDEN
 10
2.8428
 20
4.3533
  0
VERTEX
  8
LAYER1
 62
     7
  6
HIDDEN
 10
2.8446
 20
4.3536
  0
VERTEX
  8
LAYER1
 62
     7
  6
HIDDEN
 10
2.8465
 20
4.3539
  0
VERTEX
  8
LAYER1
 62
     7
  6
HIDDEN
 10
2.8485
 20
4.3542
  0
VERTEX
  8
LAYER1
 62
     7
  6
HIDDEN
 10
2.8504
 20
4.3545
  0
VERTEX
  8
LAYER1
 62
     7
  6
HIDDEN
 10
2.8523
 20
4.3547
  0
VERTEX
  8
LAYER1
 62
     7
  6
HIDDEN
 10
2.8542
 20
4.3550
  0
VERTEX
  8
LAYER1
 62
     7
  6
HIDDEN
 10
2.8556
 20
4.3552
  0
VERTEX
  8
LAYER1
 62
     7
  6
HIDDEN
 10
2.8570
 20
4.3555
  0
VERTEX
  8
LAYER1
 62
     7
  6
HIDDEN
 10
2.8584
 20
4.3558
  0
VERTEX
  8
LAYER1
 62
     7
  6
HIDDEN
 10
2.8597
 20
4.3561
  0
VERTEX
  8
LAYER1
 62
     7
  6
HIDDEN
 10
2.8609
 20
4.3565
  0
VERTEX
  8
LAYER1
 62
     7
  6
HIDDEN
 10
2.8622
 20
4.3569
  0
VERTEX
  8
LAYER1
 62
     7
  6
HIDDEN
 10
2.8634
 20
4.3573
  0
VERTEX
  8
LAYER1
 62
     7
  6
HIDDEN
 10
2.8646
 20
4.3578
  0
VERTEX
  8
LAYER1
 62
     7
  6
HIDDEN
 10
2.8658
 20
4.3583
  0
VERTEX
  8
LAYER1
 62
     7
  6
HIDDEN
 10
2.8670
 20
4.3589
  0
VERTEX
  8
LAYER1
 62
     7
  6
HIDDEN
 10
2.8681
 20
4.3595
  0
VERTEX
  8
LAYER1
 62
     7
  6
HIDDEN
 10
2.8692
 20
4.3602
  0
VERTEX
  8
LAYER1
 62
     7
  6
HIDDEN
 10
2.8710
 20
4.3614
  0
VERTEX
  8
LAYER1
 62
     7
  6
HIDDEN
 10
2.8727
 20
4.3627
  0
VERTEX
  8
LAYER1
 62
     7
  6
HIDDEN
 10
2.8744
 20
4.3641
  0
VERTEX
  8
LAYER1
 62
     7
  6
HIDDEN
 10
2.8760
 20
4.3656
  0
VERTEX
  8
LAYER1
 62
     7
  6
HIDDEN
 10
2.8776
 20
4.3671
  0
VERTEX
  8
LAYER1
 62
     7
  6
HIDDEN
 10
2.8793
 20
4.3685
  0
VERTEX
  8
LAYER1
 62
     7
  6
HIDDEN
 10
2.8809
 20
4.3700
  0
VERTEX
  8
LAYER1
 62
     7
  6
HIDDEN
 10
2.8825
 20
4.3714
  0
VERTEX
  8
LAYER1
 62
     7
  6
HIDDEN
 10
2.8842
 20
4.3726
  0
VERTEX
  8
LAYER1
 62
     7
  6
HIDDEN
 10
2.8858
 20
4.3737
  0
VERTEX
  8
LAYER1
 62
     7
  6
HIDDEN
 10
2.8875
 20
4.3747
  0
VERTEX
  8
LAYER1
 62
     7
  6
HIDDEN
 10
2.8892
 20
4.3754
  0
SEQEND
  8
LAYER1
  0
POLYLINE
  8
LAYER1
 62
     7
 66
     1
  6
HIDDEN
  0
VERTEX
  8
LAYER1
 62
     7
  6
HIDDEN
 10
2.3801
 20
4.0340
  0
VERTEX
  8
LAYER1
 62
     7
  6
HIDDEN
 10
2.3782
 20
4.0340
  0
VERTEX
  8
LAYER1
 62
     7
  6
HIDDEN
 10
2.3764
 20
4.0342
  0
VERTEX
  8
LAYER1
 62
     7
  6
HIDDEN
 10
2.3745
 20
4.0346
  0
VERTEX
  8
LAYER1
 62
     7
  6
HIDDEN
 10
2.3727
 20
4.0351
  0
VERTEX
  8
LAYER1
 62
     7
  6
HIDDEN
 10
2.3709
 20
4.0358
  0
VERTEX
  8
LAYER1
 62
     7
  6
HIDDEN
 10
2.3691
 20
4.0366
  0
VERTEX
  8
LAYER1
 62
     7
  6
HIDDEN
 10
2.3673
 20
4.0376
  0
VERTEX
  8
LAYER1
 62
     7
  6
HIDDEN
 10
2.3656
 20
4.0386
  0
VERTEX
  8
LAYER1
 62
     7
  6
HIDDEN
 10
2.3641
 20
4.0398
  0
VERTEX
  8
LAYER1
 62
     7
  6
HIDDEN
 10
2.3625
 20
4.0411
  0
VERTEX
  8
LAYER1
 62
     7
  6
HIDDEN
 10
2.3611
 20
4.0424
  0
VERTEX
  8
LAYER1
 62
     7
  6
HIDDEN
 10
2.3599
 20
4.0439
  0
VERTEX
  8
LAYER1
 62
     7
  6
HIDDEN
 10
2.3581
 20
4.0463
  0
VERTEX
  8
LAYER1
 62
     7
  6
HIDDEN
 10
2.3567
 20
4.0489
  0
VERTEX
  8
LAYER1
 62
     7
  6
HIDDEN
 10
2.3555
 20
4.0516
  0
VERTEX
  8
LAYER1
 62
     7
  6
HIDDEN
 10
2.3547
 20
4.0544
  0
VERTEX
  8
LAYER1
 62
     7
  6
HIDDEN
 10
2.3540
 20
4.0573
  0
VERTEX
  8
LAYER1
 62
     7
  6
HIDDEN
 10
2.3536
 20
4.0603
  0
VERTEX
  8
LAYER1
 62
     7
  6
HIDDEN
 10
2.3534
 20
4.0633
  0
VERTEX
  8
LAYER1
 62
     7
  6
HIDDEN
 10
2.3534
 20
4.0664
  0
VERTEX
  8
LAYER1
 62
     7
  6
HIDDEN
 10
2.3535
 20
4.0696
  0
VERTEX
  8
LAYER1
 62
     7
  6
HIDDEN
 10
2.3537
 20
4.0727
  0
VERTEX
  8
LAYER1
 62
     7
  6
HIDDEN
 10
2.3541
 20
4.0759
  0
VERTEX
  8
LAYER1
 62
     7
  6
HIDDEN
 10
2.3545
 20
4.0790
  0
VERTEX
  8
LAYER1
 62
     7
  6
HIDDEN
 10
2.3547
 20
4.0804
  0
VERTEX
  8
LAYER1
 62
     7
  6
HIDDEN
 10
2.3550
 20
4.0817
  0
VERTEX
  8
LAYER1
 62
     7
  6
HIDDEN
 10
2.3552
 20
4.0831
  0
VERTEX
  8
LAYER1
 62
     7
  6
HIDDEN
 10
2.3555
 20
4.0844
  0
VERTEX
  8
LAYER1
 62
     7
  6
HIDDEN
 10
2.3558
 20
4.0858
  0
VERTEX
  8
LAYER1
 62
     7
  6
HIDDEN
 10
2.3562
 20
4.0871
  0
VERTEX
  8
LAYER1
 62
     7
  6
HIDDEN
 10
2.3566
 20
4.0883
  0
VERTEX
  8
LAYER1
 62
     7
  6
HIDDEN
 10
2.3570
 20
4.0896
  0
VERTEX
  8
LAYER1
 62
     7
  6
HIDDEN
 10
2.3575
 20
4.0908
  0
VERTEX
  8
LAYER1
 62
     7
  6
HIDDEN
 10
2.3581
 20
4.0919
  0
VERTEX
  8
LAYER1
 62
     7
  6
HIDDEN
 10
2.3587
 20
4.0930
  0
VERTEX
  8
LAYER1
 62
     7
  6
HIDDEN
 10
2.3594
 20
4.0941
  0
VERTEX
  8
LAYER1
 62
     7
  6
HIDDEN
 10
2.3603
 20
4.0953
  0
VERTEX
  8
LAYER1
 62
     7
  6
HIDDEN
 10
2.3613
 20
4.0964
  0
VERTEX
  8
LAYER1
 62
     7
  6
HIDDEN
 10
2.3623
 20
4.0974
  0
VERTEX
  8
LAYER1
 62
     7
  6
HIDDEN
 10
2.3635
 20
4.0984
  0
VERTEX
  8
LAYER1
 62
     7
  6
HIDDEN
 10
2.3647
 20
4.0993
  0
VERTEX
  8
LAYER1
 62
     7
  6
HIDDEN
 10
2.3660
 20
4.1002
  0
VERTEX
  8
LAYER1
 62
     7
  6
HIDDEN
 10
2.3673
 20
4.1010
  0
VERTEX
  8
LAYER1
 62
     7
  6
HIDDEN
 10
2.3687
 20
4.1018
  0
VERTEX
  8
LAYER1
 62
     7
  6
HIDDEN
 10
2.3701
 20
4.1025
  0
VERTEX
  8
LAYER1
 62
     7
  6
HIDDEN
 10
2.3715
 20
4.1031
  0
VERTEX
  8
LAYER1
 62
     7
  6
HIDDEN
 10
2.3729
 20
4.1037
  0
VERTEX
  8
LAYER1
 62
     7
  6
HIDDEN
 10
2.3744
 20
4.1043
  0
VERTEX
  8
LAYER1
 62
     7
  6
HIDDEN
 10
2.3764
 20
4.1050
  0
VERTEX
  8
LAYER1
 62
     7
  6
HIDDEN
 10
2.3785
 20
4.1056
  0
VERTEX
  8
LAYER1
 62
     7
  6
HIDDEN
 10
2.3805
 20
4.1062
  0
VERTEX
  8
LAYER1
 62
     7
  6
HIDDEN
 10
2.3826
 20
4.1067
  0
VERTEX
  8
LAYER1
 62
     7
  6
HIDDEN
 10
2.3846
 20
4.1071
  0
VERTEX
  8
LAYER1
 62
     7
  6
HIDDEN
 10
2.3867
 20
4.1075
  0
VERTEX
  8
LAYER1
 62
     7
  6
HIDDEN
 10
2.3888
 20
4.1079
  0
VERTEX
  8
LAYER1
 62
     7
  6
HIDDEN
 10
2.3909
 20
4.1083
  0
VERTEX
  8
LAYER1
 62
     7
  6
HIDDEN
 10
2.3930
 20
4.1086
  0
VERTEX
  8
LAYER1
 62
     7
  6
HIDDEN
 10
2.3951
 20
4.1089
  0
VERTEX
  8
LAYER1
 62
     7
  6
HIDDEN
 10
2.3973
 20
4.1092
  0
VERTEX
  8
LAYER1
 62
     7
  6
HIDDEN
 10
2.3994
 20
4.1096
  0
VERTEX
  8
LAYER1
 62
     7
  6
HIDDEN
 10
2.4016
 20
4.1099
  0
VERTEX
  8
LAYER1
 62
     7
  6
HIDDEN
 10
2.4037
 20
4.1103
  0
VERTEX
  8
LAYER1
 62
     7
  6
HIDDEN
 10
2.4059
 20
4.1106
  0
VERTEX
  8
LAYER1
 62
     7
  6
HIDDEN
 10
2.4081
 20
4.1109
  0
VERTEX
  8
LAYER1
 62
     7
  6
HIDDEN
 10
2.4102
 20
4.1111
  0
VERTEX
  8
LAYER1
 62
     7
  6
HIDDEN
 10
2.4124
 20
4.1113
  0
VERTEX
  8
LAYER1
 62
     7
  6
HIDDEN
 10
2.4145
 20
4.1114
  0
VERTEX
  8
LAYER1
 62
     7
  6
HIDDEN
 10
2.4166
 20
4.1114
  0
VERTEX
  8
LAYER1
 62
     7
  6
HIDDEN
 10
2.4186
 20
4.1112
  0
VERTEX
  8
LAYER1
 62
     7
  6
HIDDEN
 10
2.4207
 20
4.1109
  0
VERTEX
  8
LAYER1
 62
     7
  6
HIDDEN
 10
2.4226
 20
4.1105
  0
VERTEX
  8
LAYER1
 62
     7
  6
HIDDEN
 10
2.4245
 20
4.1098
  0
VERTEX
  8
LAYER1
 62
     7
  6
HIDDEN
 10
2.4264
 20
4.1089
  0
VERTEX
  8
LAYER1
 62
     7
  6
HIDDEN
 10
2.4282
 20
4.1079
  0
VERTEX
  8
LAYER1
 62
     7
  6
HIDDEN
 10
2.4299
 20
4.1067
  0
VERTEX
  8
LAYER1
 62
     7
  6
HIDDEN
 10
2.4315
 20
4.1053
  0
VERTEX
  8
LAYER1
 62
     7
  6
HIDDEN
 10
2.4330
 20
4.1037
  0
VERTEX
  8
LAYER1
 62
     7
  6
HIDDEN
 10
2.4344
 20
4.1020
  0
VERTEX
  8
LAYER1
 62
     7
  6
HIDDEN
 10
2.4356
 20
4.1002
  0
VERTEX
  8
LAYER1
 62
     7
  6
HIDDEN
 10
2.4368
 20
4.0983
  0
VERTEX
  8
LAYER1
 62
     7
  6
HIDDEN
 10
2.4378
 20
4.0963
  0
VERTEX
  8
LAYER1
 62
     7
  6
HIDDEN
 10
2.4386
 20
4.0942
  0
VERTEX
  8
LAYER1
 62
     7
  6
HIDDEN
 10
2.4393
 20
4.0921
  0
VERTEX
  8
LAYER1
 62
     7
  6
HIDDEN
 10
2.4398
 20
4.0899
  0
VERTEX
  8
LAYER1
 62
     7
  6
HIDDEN
 10
2.4401
 20
4.0880
  0
VERTEX
  8
LAYER1
 62
     7
  6
HIDDEN
 10
2.4403
 20
4.0861
  0
VERTEX
  8
LAYER1
 62
     7
  6
HIDDEN
 10
2.4403
 20
4.0843
  0
VERTEX
  8
LAYER1
 62
     7
  6
HIDDEN
 10
2.4402
 20
4.0824
  0
VERTEX
  8
LAYER1
 62
     7
  6
HIDDEN
 10
2.4400
 20
4.0806
  0
VERTEX
  8
LAYER1
 62
     7
  6
HIDDEN
 10
2.4397
 20
4.0788
  0
VERTEX
  8
LAYER1
 62
     7
  6
HIDDEN
 10
2.4392
 20
4.0770
  0
VERTEX
  8
LAYER1
 62
     7
  6
HIDDEN
 10
2.4386
 20
4.0754
  0
VERTEX
  8
LAYER1
 62
     7
  6
HIDDEN
 10
2.4379
 20
4.0738
  0
VERTEX
  8
LAYER1
 62
     7
  6
HIDDEN
 10
2.4370
 20
4.0723
  0
VERTEX
  8
LAYER1
 62
     7
  6
HIDDEN
 10
2.4361
 20
4.0710
  0
VERTEX
  8
LAYER1
 62
     7
  6
HIDDEN
 10
2.4350
 20
4.0697
  0
VERTEX
  8
LAYER1
 62
     7
  6
HIDDEN
 10
2.4336
 20
4.0685
  0
VERTEX
  8
LAYER1
 62
     7
  6
HIDDEN
 10
2.4322
 20
4.0674
  0
VERTEX
  8
LAYER1
 62
     7
  6
HIDDEN
 10
2.4306
 20
4.0665
  0
VERTEX
  8
LAYER1
 62
     7
  6
HIDDEN
 10
2.4289
 20
4.0657
  0
VERTEX
  8
LAYER1
 62
     7
  6
HIDDEN
 10
2.4272
 20
4.0649
  0
VERTEX
  8
LAYER1
 62
     7
  6
HIDDEN
 10
2.4254
 20
4.0641
  0
VERTEX
  8
LAYER1
 62
     7
  6
HIDDEN
 10
2.4236
 20
4.0634
  0
VERTEX
  8
LAYER1
 62
     7
  6
HIDDEN
 10
2.4218
 20
4.0627
  0
VERTEX
  8
LAYER1
 62
     7
  6
HIDDEN
 10
2.4200
 20
4.0620
  0
VERTEX
  8
LAYER1
 62
     7
  6
HIDDEN
 10
2.4183
 20
4.0612
  0
VERTEX
  8
LAYER1
 62
     7
  6
HIDDEN
 10
2.4166
 20
4.0604
  0
VERTEX
  8
LAYER1
 62
     7
  6
HIDDEN
 10
2.4150
 20
4.0595
  0
VERTEX
  8
LAYER1
 62
     7
  6
HIDDEN
 10
2.4135
 20
4.0585
  0
VERTEX
  8
LAYER1
 62
     7
  6
HIDDEN
 10
2.4122
 20
4.0574
  0
VERTEX
  8
LAYER1
 62
     7
  6
HIDDEN
 10
2.4109
 20
4.0563
  0
VERTEX
  8
LAYER1
 62
     7
  6
HIDDEN
 10
2.4097
 20
4.0551
  0
VERTEX
  8
LAYER1
 62
     7
  6
HIDDEN
 10
2.4085
 20
4.0538
  0
VERTEX
  8
LAYER1
 62
     7
  6
HIDDEN
 10
2.4073
 20
4.0525
  0
VERTEX
  8
LAYER1
 62
     7
  6
HIDDEN
 10
2.4061
 20
4.0511
  0
VERTEX
  8
LAYER1
 62
     7
  6
HIDDEN
 10
2.4050
 20
4.0498
  0
VERTEX
  8
LAYER1
 62
     7
  6
HIDDEN
 10
2.4038
 20
4.0484
  0
VERTEX
  8
LAYER1
 62
     7
  6
HIDDEN
 10
2.4026
 20
4.0470
  0
VERTEX
  8
LAYER1
 62
     7
  6
HIDDEN
 10
2.4014
 20
4.0456
  0
VERTEX
  8
LAYER1
 62
     7
  6
HIDDEN
 10
2.4001
 20
4.0443
  0
VERTEX
  8
LAYER1
 62
     7
  6
HIDDEN
 10
2.3986
 20
4.0429
  0
VERTEX
  8
LAYER1
 62
     7
  6
HIDDEN
 10
2.3971
 20
4.0415
  0
VERTEX
  8
LAYER1
 62
     7
  6
HIDDEN
 10
2.3956
 20
4.0403
  0
VERTEX
  8
LAYER1
 62
     7
  6
HIDDEN
 10
2.3939
 20
4.0391
  0
VERTEX
  8
LAYER1
 62
     7
  6
HIDDEN
 10
2.3923
 20
4.0380
  0
VERTEX
  8
LAYER1
 62
     7
  6
HIDDEN
 10
2.3906
 20
4.0370
  0
VERTEX
  8
LAYER1
 62
     7
  6
HIDDEN
 10
2.3889
 20
4.0361
  0
VERTEX
  8
LAYER1
 62
     7
  6
HIDDEN
 10
2.3871
 20
4.0354
  0
VERTEX
  8
LAYER1
 62
     7
  6
HIDDEN
 10
2.3853
 20
4.0348
  0
VERTEX
  8
LAYER1
 62
     7
  6
HIDDEN
 10
2.3836
 20
4.0344
  0
VERTEX
  8
LAYER1
 62
     7
  6
HIDDEN
 10
2.3818
 20
4.0341
  0
VERTEX
  8
LAYER1
 62
     7
  6
HIDDEN
 10
2.3801
 20
4.0340
  0
SEQEND
  8
LAYER1
  0
CIRCLE
  8
LAYER1
 62
     7
  6
CONTINUOUS
 10
2.4423
 20
3.5675
 40
0.0196
  0
CIRCLE
  8
LAYER1
 62
     7
  6
CONTINUOUS
 10
2.5426
 20
3.5860
 40
0.0128
  0
CIRCLE
  8
LAYER1
 62
     7
  6
CONTINUOUS
 10
2.9444
 20
3.5898
 40
0.0178
  0
CIRCLE
  8
LAYER1
 62
     7
  6
CONTINUOUS
 10
2.7409
 20
3.5979
 40
0.0135
  0
POLYLINE
  8
LAYER1
 62
     7
 66
     1
  6
CONTINUOUS
  0
VERTEX
  8
LAYER1
 62
     7
  6
CONTINUOUS
 10
2.6162
 20
4.0262
  0
VERTEX
  8
LAYER1
 62
     7
  6
CONTINUOUS
 10
2.6157
 20
4.0279
  0
VERTEX
  8
LAYER1
 62
     7
  6
CONTINUOUS
 10
2.6152
 20
4.0295
  0
VERTEX
  8
LAYER1
 62
     7
  6
CONTINUOUS
 10
2.6147
 20
4.0312
  0
VERTEX
  8
LAYER1
 62
     7
  6
CONTINUOUS
 10
2.6142
 20
4.0329
  0
VERTEX
  8
LAYER1
 62
     7
  6
CONTINUOUS
 10
2.6138
 20
4.0345
  0
VERTEX
  8
LAYER1
 62
     7
  6
CONTINUOUS
 10
2.6133
 20
4.0362
  0
VERTEX
  8
LAYER1
 62
     7
  6
CONTINUOUS
 10
2.6129
 20
4.0379
  0
VERTEX
  8
LAYER1
 62
     7
  6
CONTINUOUS
 10
2.6124
 20
4.0395
  0
VERTEX
  8
LAYER1
 62
     7
  6
CONTINUOUS
 10
2.6120
 20
4.0412
  0
VERTEX
  8
LAYER1
 62
     7
  6
CONTINUOUS
 10
2.6117
 20
4.0429
  0
VERTEX
  8
LAYER1
 62
     7
  6
CONTINUOUS
 10
2.6113
 20
4.0446
  0
VERTEX
  8
LAYER1
 62
     7
  6
CONTINUOUS
 10
2.6110
 20
4.0463
  0
VERTEX
  8
LAYER1
 62
     7
  6
CONTINUOUS
 10
2.6106
 20
4.0487
  0
VERTEX
  8
LAYER1
 62
     7
  6
CONTINUOUS
 10
2.6103
 20
4.0512
  0
VERTEX
  8
LAYER1
 62
     7
  6
CONTINUOUS
 10
2.6100
 20
4.0537
  0
VERTEX
  8
LAYER1
 62
     7
  6
CONTINUOUS
 10
2.6099
 20
4.0562
  0
VERTEX
  8
LAYER1
 62
     7
  6
CONTINUOUS
 10
2.6097
 20
4.0587
  0
VERTEX
  8
LAYER1
 62
     7
  6
CONTINUOUS
 10
2.6097
 20
4.0612
  0
VERTEX
  8
LAYER1
 62
     7
  6
CONTINUOUS
 10
2.6097
 20
4.0637
  0
VERTEX
  8
LAYER1
 62
     7
  6
CONTINUOUS
 10
2.6098
 20
4.0662
  0
VERTEX
  8
LAYER1
 62
     7
  6
CONTINUOUS
 10
2.6099
 20
4.0688
  0
VERTEX
  8
LAYER1
 62
     7
  6
CONTINUOUS
 10
2.6101
 20
4.0713
  0
VERTEX
  8
LAYER1
 62
     7
  6
CONTINUOUS
 10
2.6104
 20
4.0739
  0
VERTEX
  8
LAYER1
 62
     7
  6
CONTINUOUS
 10
2.6107
 20
4.0764
  0
VERTEX
  8
LAYER1
 62
     7
  6
CONTINUOUS
 10
2.6111
 20
4.0787
  0
VERTEX
  8
LAYER1
 62
     7
  6
CONTINUOUS
 10
2.6115
 20
4.0810
  0
VERTEX
  8
LAYER1
 62
     7
  6
CONTINUOUS
 10
2.6119
 20
4.0833
  0
VERTEX
  8
LAYER1
 62
     7
  6
CONTINUOUS
 10
2.6125
 20
4.0855
  0
VERTEX
  8
LAYER1
 62
     7
  6
CONTINUOUS
 10
2.6131
 20
4.0877
  0
VERTEX
  8
LAYER1
 62
     7
  6
CONTINUOUS
 10
2.6138
 20
4.0899
  0
VERTEX
  8
LAYER1
 62
     7
  6
CONTINUOUS
 10
2.6146
 20
4.0920
  0
VERTEX
  8
LAYER1
 62
     7
  6
CONTINUOUS
 10
2.6155
 20
4.0941
  0
VERTEX
  8
LAYER1
 62
     7
  6
CONTINUOUS
 10
2.6166
 20
4.0961
  0
VERTEX
  8
LAYER1
 62
     7
  6
CONTINUOUS
 10
2.6177
 20
4.0980
  0
VERTEX
  8
LAYER1
 62
     7
  6
CONTINUOUS
 10
2.6191
 20
4.0999
  0
VERTEX
  8
LAYER1
 62
     7
  6
CONTINUOUS
 10
2.6205
 20
4.1016
  0
VERTEX
  8
LAYER1
 62
     7
  6
CONTINUOUS
 10
2.6225
 20
4.1036
  0
VERTEX
  8
LAYER1
 62
     7
  6
CONTINUOUS
 10
2.6246
 20
4.1054
  0
VERTEX
  8
LAYER1
 62
     7
  6
CONTINUOUS
 10
2.6269
 20
4.1071
  0
VERTEX
  8
LAYER1
 62
     7
  6
CONTINUOUS
 10
2.6292
 20
4.1087
  0
VERTEX
  8
LAYER1
 62
     7
  6
CONTINUOUS
 10
2.6316
 20
4.1103
  0
VERTEX
  8
LAYER1
 62
     7
  6
CONTINUOUS
 10
2.6340
 20
4.1119
  0
VERTEX
  8
LAYER1
 62
     7
  6
CONTINUOUS
 10
2.6363
 20
4.1134
  0
VERTEX
  8
LAYER1
 62
     7
  6
CONTINUOUS
 10
2.6385
 20
4.1150
  0
VERTEX
  8
LAYER1
 62
     7
  6
CONTINUOUS
 10
2.6406
 20
4.1166
  0
VERTEX
  8
LAYER1
 62
     7
  6
CONTINUOUS
 10
2.6425
 20
4.1183
  0
VERTEX
  8
LAYER1
 62
     7
  6
CONTINUOUS
 10
2.6441
 20
4.1201
  0
VERTEX
  8
LAYER1
 62
     7
  6
CONTINUOUS
 10
2.6455
 20
4.1219
  0
VERTEX
  8
LAYER1
 62
     7
  6
CONTINUOUS
 10
2.6469
 20
4.1252
  0
VERTEX
  8
LAYER1
 62
     7
  6
CONTINUOUS
 10
2.6477
 20
4.1287
  0
VERTEX
  8
LAYER1
 62
     7
  6
CONTINUOUS
 10
2.6479
 20
4.1324
  0
VERTEX
  8
LAYER1
 62
     7
  6
CONTINUOUS
 10
2.6475
 20
4.1364
  0
VERTEX
  8
LAYER1
 62
     7
  6
CONTINUOUS
 10
2.6468
 20
4.1406
  0
VERTEX
  8
LAYER1
 62
     7
  6
CONTINUOUS
 10
2.6458
 20
4.1449
  0
VERTEX
  8
LAYER1
 62
     7
  6
CONTINUOUS
 10
2.6446
 20
4.1494
  0
VERTEX
  8
LAYER1
 62
     7
  6
CONTINUOUS
 10
2.6434
 20
4.1539
  0
VERTEX
  8
LAYER1
 62
     7
  6
CONTINUOUS
 10
2.6422
 20
4.1585
  0
VERTEX
  8
LAYER1
 62
     7
  6
CONTINUOUS
 10
2.6411
 20
4.1631
  0
VERTEX
  8
LAYER1
 62
     7
  6
CONTINUOUS
 10
2.6404
 20
4.1676
  0
VERTEX
  8
LAYER1
 62
     7
  6
CONTINUOUS
 10
2.6400
 20
4.1721
  0
VERTEX
  8
LAYER1
 62
     7
  6
CONTINUOUS
 10
2.6399
 20
4.1739
  0
VERTEX
  8
LAYER1
 62
     7
  6
CONTINUOUS
 10
2.6400
 20
4.1757
  0
VERTEX
  8
LAYER1
 62
     7
  6
CONTINUOUS
 10
2.6401
 20
4.1775
  0
VERTEX
  8
LAYER1
 62
     7
  6
CONTINUOUS
 10
2.6403
 20
4.1793
  0
VERTEX
  8
LAYER1
 62
     7
  6
CONTINUOUS
 10
2.6406
 20
4.1810
  0
VERTEX
  8
LAYER1
 62
     7
  6
CONTINUOUS
 10
2.6410
 20
4.1827
  0
VERTEX
  8
LAYER1
 62
     7
  6
CONTINUOUS
 10
2.6414
 20
4.1844
  0
VERTEX
  8
LAYER1
 62
     7
  6
CONTINUOUS
 10
2.6419
 20
4.1860
  0
VERTEX
  8
LAYER1
 62
     7
  6
CONTINUOUS
 10
2.6425
 20
4.1877
  0
VERTEX
  8
LAYER1
 62
     7
  6
CONTINUOUS
 10
2.6432
 20
4.1892
  0
VERTEX
  8
LAYER1
 62
     7
  6
CONTINUOUS
 10
2.6440
 20
4.1908
  0
VERTEX
  8
LAYER1
 62
     7
  6
CONTINUOUS
 10
2.6448
 20
4.1923
  0
VERTEX
  8
LAYER1
 62
     7
  6
CONTINUOUS
 10
2.6462
 20
4.1945
  0
VERTEX
  8
LAYER1
 62
     7
  6
CONTINUOUS
 10
2.6478
 20
4.1967
  0
VERTEX
  8
LAYER1
 62
     7
  6
CONTINUOUS
 10
2.6495
 20
4.1988
  0
VERTEX
  8
LAYER1
 62
     7
  6
CONTINUOUS
 10
2.6513
 20
4.2008
  0
VERTEX
  8
LAYER1
 62
     7
  6
CONTINUOUS
 10
2.6531
 20
4.2029
  0
VERTEX
  8
LAYER1
 62
     7
  6
CONTINUOUS
 10
2.6549
 20
4.2049
  0
VERTEX
  8
LAYER1
 62
     7
  6
CONTINUOUS
 10
2.6568
 20
4.2069
  0
VERTEX
  8
LAYER1
 62
     7
  6
CONTINUOUS
 10
2.6586
 20
4.2089
  0
VERTEX
  8
LAYER1
 62
     7
  6
CONTINUOUS
 10
2.6603
 20
4.2110
  0
VERTEX
  8
LAYER1
 62
     7
  6
CONTINUOUS
 10
2.6619
 20
4.2131
  0
VERTEX
  8
LAYER1
 62
     7
  6
CONTINUOUS
 10
2.6634
 20
4.2153
  0
VERTEX
  8
LAYER1
 62
     7
  6
CONTINUOUS
 10
2.6646
 20
4.2176
  0
VERTEX
  8
LAYER1
 62
     7
  6
CONTINUOUS
 10
2.6655
 20
4.2195
  0
VERTEX
  8
LAYER1
 62
     7
  6
CONTINUOUS
 10
2.6663
 20
4.2214
  0
VERTEX
  8
LAYER1
 62
     7
  6
CONTINUOUS
 10
2.6669
 20
4.2234
  0
VERTEX
  8
LAYER1
 62
     7
  6
CONTINUOUS
 10
2.6675
 20
4.2255
  0
VERTEX
  8
LAYER1
 62
     7
  6
CONTINUOUS
 10
2.6680
 20
4.2276
  0
VERTEX
  8
LAYER1
 62
     7
  6
CONTINUOUS
 10
2.6683
 20
4.2297
  0
VERTEX
  8
LAYER1
 62
     7
  6
CONTINUOUS
 10
2.6686
 20
4.2318
  0
VERTEX
  8
LAYER1
 62
     7
  6
CONTINUOUS
 10
2.6689
 20
4.2340
  0
VERTEX
  8
LAYER1
 62
     7
  6
CONTINUOUS
 10
2.6691
 20
4.2362
  0
VERTEX
  8
LAYER1
 62
     7
  6
CONTINUOUS
 10
2.6692
 20
4.2384
  0
VERTEX
  8
LAYER1
 62
     7
  6
CONTINUOUS
 10
2.6693
 20
4.2406
  0
VERTEX
  8
LAYER1
 62
     7
  6
CONTINUOUS
 10
2.6694
 20
4.2427
  0
VERTEX
  8
LAYER1
 62
     7
  6
CONTINUOUS
 10
2.6695
 20
4.2449
  0
VERTEX
  8
LAYER1
 62
     7
  6
CONTINUOUS
 10
2.6696
 20
4.2470
  0
VERTEX
  8
LAYER1
 62
     7
  6
CONTINUOUS
 10
2.6696
 20
4.2491
  0
VERTEX
  8
LAYER1
 62
     7
  6
CONTINUOUS
 10
2.6696
 20
4.2512
  0
VERTEX
  8
LAYER1
 62
     7
  6
CONTINUOUS
 10
2.6696
 20
4.2533
  0
VERTEX
  8
LAYER1
 62
     7
  6
CONTINUOUS
 10
2.6696
 20
4.2553
  0
VERTEX
  8
LAYER1
 62
     7
  6
CONTINUOUS
 10
2.6696
 20
4.2574
  0
VERTEX
  8
LAYER1
 62
     7
  6
CONTINUOUS
 10
2.6696
 20
4.2595
  0
VERTEX
  8
LAYER1
 62
     7
  6
CONTINUOUS
 10
2.6695
 20
4.2616
  0
VERTEX
  8
LAYER1
 62
     7
  6
CONTINUOUS
 10
2.6694
 20
4.2637
  0
VERTEX
  8
LAYER1
 62
     7
  6
CONTINUOUS
 10
2.6693
 20
4.2658
  0
VERTEX
  8
LAYER1
 62
     7
  6
CONTINUOUS
 10
2.6692
 20
4.2678
  0
VERTEX
  8
LAYER1
 62
     7
  6
CONTINUOUS
 10
2.6689
 20
4.2712
  0
VERTEX
  8
LAYER1
 62
     7
  6
CONTINUOUS
 10
2.6687
 20
4.2746
  0
VERTEX
  8
LAYER1
 62
     7
  6
CONTINUOUS
 10
2.6684
 20
4.2780
  0
VERTEX
  8
LAYER1
 62
     7
  6
CONTINUOUS
 10
2.6681
 20
4.2814
  0
VERTEX
  8
LAYER1
 62
     7
  6
CONTINUOUS
 10
2.6678
 20
4.2848
  0
VERTEX
  8
LAYER1
 62
     7
  6
CONTINUOUS
 10
2.6676
 20
4.2882
  0
VERTEX
  8
LAYER1
 62
     7
  6
CONTINUOUS
 10
2.6675
 20
4.2916
  0
VERTEX
  8
LAYER1
 62
     7
  6
CONTINUOUS
 10
2.6675
 20
4.2949
  0
VERTEX
  8
LAYER1
 62
     7
  6
CONTINUOUS
 10
2.6676
 20
4.2983
  0
VERTEX
  8
LAYER1
 62
     7
  6
CONTINUOUS
 10
2.6678
 20
4.3016
  0
VERTEX
  8
LAYER1
 62
     7
  6
CONTINUOUS
 10
2.6682
 20
4.3048
  0
VERTEX
  8
LAYER1
 62
     7
  6
CONTINUOUS
 10
2.6688
 20
4.3080
  0
VERTEX
  8
LAYER1
 62
     7
  6
CONTINUOUS
 10
2.6698
 20
4.3119
  0
VERTEX
  8
LAYER1
 62
     7
  6
CONTINUOUS
 10
2.6711
 20
4.3157
  0
VERTEX
  8
LAYER1
 62
     7
  6
CONTINUOUS
 10
2.6726
 20
4.3195
  0
VERTEX
  8
LAYER1
 62
     7
  6
CONTINUOUS
 10
2.6743
 20
4.3233
  0
VERTEX
  8
LAYER1
 62
     7
  6
CONTINUOUS
 10
2.6761
 20
4.3270
  0
VERTEX
  8
LAYER1
 62
     7
  6
CONTINUOUS
 10
2.6780
 20
4.3307
  0
VERTEX
  8
LAYER1
 62
     7
  6
CONTINUOUS
 10
2.6799
 20
4.3344
  0
VERTEX
  8
LAYER1
 62
     7
  6
CONTINUOUS
 10
2.6818
 20
4.3381
  0
VERTEX
  8
LAYER1
 62
     7
  6
CONTINUOUS
 10
2.6837
 20
4.3419
  0
VERTEX
  8
LAYER1
 62
     7
  6
CONTINUOUS
 10
2.6854
 20
4.3457
  0
VERTEX
  8
LAYER1
 62
     7
  6
CONTINUOUS
 10
2.6871
 20
4.3495
  0
VERTEX
  8
LAYER1
 62
     7
  6
CONTINUOUS
 10
2.6885
 20
4.3534
  0
VERTEX
  8
LAYER1
 62
     7
  6
CONTINUOUS
 10
2.6895
 20
4.3568
  0
VERTEX
  8
LAYER1
 62
     7
  6
CONTINUOUS
 10
2.6903
 20
4.3602
  0
VERTEX
  8
LAYER1
 62
     7
  6
CONTINUOUS
 10
2.6911
 20
4.3636
  0
VERTEX
  8
LAYER1
 62
     7
  6
CONTINUOUS
 10
2.6918
 20
4.3670
  0
VERTEX
  8
LAYER1
 62
     7
  6
CONTINUOUS
 10
2.6924
 20
4.3705
  0
VERTEX
  8
LAYER1
 62
     7
  6
CONTINUOUS
 10
2.6930
 20
4.3739
  0
VERTEX
  8
LAYER1
 62
     7
  6
CONTINUOUS
 10
2.6936
 20
4.3773
  0
VERTEX
  8
LAYER1
 62
     7
  6
CONTINUOUS
 10
2.6943
 20
4.3807
  0
VERTEX
  8
LAYER1
 62
     7
  6
CONTINUOUS
 10
2.6951
 20
4.3841
  0
VERTEX
  8
LAYER1
 62
     7
  6
CONTINUOUS
 10
2.6959
 20
4.3873
  0
VERTEX
  8
LAYER1
 62
     7
  6
CONTINUOUS
 10
2.6969
 20
4.3906
  0
VERTEX
  8
LAYER1
 62
     7
  6
CONTINUOUS
 10
2.6981
 20
4.3937
  0
VERTEX
  8
LAYER1
 62
     7
  6
CONTINUOUS
 10
2.6999
 20
4.3976
  0
VERTEX
  8
LAYER1
 62
     7
  6
CONTINUOUS
 10
2.7021
 20
4.4014
  0
VERTEX
  8
LAYER1
 62
     7
  6
CONTINUOUS
 10
2.7045
 20
4.4050
  0
VERTEX
  8
LAYER1
 62
     7
  6
CONTINUOUS
 10
2.7071
 20
4.4085
  0
VERTEX
  8
LAYER1
 62
     7
  6
CONTINUOUS
 10
2.7100
 20
4.4120
  0
VERTEX
  8
LAYER1
 62
     7
  6
CONTINUOUS
 10
2.7130
 20
4.4153
  0
VERTEX
  8
LAYER1
 62
     7
  6
CONTINUOUS
 10
2.7162
 20
4.4186
  0
VERTEX
  8
LAYER1
 62
     7
  6
CONTINUOUS
 10
2.7194
 20
4.4218
  0
VERTEX
  8
LAYER1
 62
     7
  6
CONTINUOUS
 10
2.7228
 20
4.4249
  0
VERTEX
  8
LAYER1
 62
     7
  6
CONTINUOUS
 10
2.7262
 20
4.4280
  0
VERTEX
  8
LAYER1
 62
     7
  6
CONTINUOUS
 10
2.7295
 20
4.4311
  0
VERTEX
  8
LAYER1
 62
     7
  6
CONTINUOUS
 10
2.7329
 20
4.4342
  0
VERTEX
  8
LAYER1
 62
     7
  6
CONTINUOUS
 10
2.7356
 20
4.4367
  0
VERTEX
  8
LAYER1
 62
     7
  6
CONTINUOUS
 10
2.7382
 20
4.4392
  0
VERTEX
  8
LAYER1
 62
     7
  6
CONTINUOUS
 10
2.7407
 20
4.4417
  0
VERTEX
  8
LAYER1
 62
     7
  6
CONTINUOUS
 10
2.7433
 20
4.4442
  0
VERTEX
  8
LAYER1
 62
     7
  6
CONTINUOUS
 10
2.7458
 20
4.4467
  0
VERTEX
  8
LAYER1
 62
     7
  6
CONTINUOUS
 10
2.7483
 20
4.4492
  0
VERTEX
  8
LAYER1
 62
     7
  6
CONTINUOUS
 10
2.7507
 20
4.4517
  0
VERTEX
  8
LAYER1
 62
     7
  6
CONTINUOUS
 10
2.7532
 20
4.4543
  0
VERTEX
  8
LAYER1
 62
     7
  6
CONTINUOUS
 10
2.7556
 20
4.4569
  0
VERTEX
  8
LAYER1
 62
     7
  6
CONTINUOUS
 10
2.7580
 20
4.4594
  0
VERTEX
  8
LAYER1
 62
     7
  6
CONTINUOUS
 10
2.7604
 20
4.4620
  0
VERTEX
  8
LAYER1
 62
     7
  6
CONTINUOUS
 10
2.7628
 20
4.4646
  0
VERTEX
  8
LAYER1
 62
     7
  6
CONTINUOUS
 10
2.7647
 20
4.4668
  0
VERTEX
  8
LAYER1
 62
     7
  6
CONTINUOUS
 10
2.7667
 20
4.4690
  0
VERTEX
  8
LAYER1
 62
     7
  6
CONTINUOUS
 10
2.7687
 20
4.4712
  0
VERTEX
  8
LAYER1
 62
     7
  6
CONTINUOUS
 10
2.7707
 20
4.4734
  0
VERTEX
  8
LAYER1
 62
     7
  6
CONTINUOUS
 10
2.7727
 20
4.4756
  0
VERTEX
  8
LAYER1
 62
     7
  6
CONTINUOUS
 10
2.7747
 20
4.4778
  0
VERTEX
  8
LAYER1
 62
     7
  6
CONTINUOUS
 10
2.7768
 20
4.4799
  0
VERTEX
  8
LAYER1
 62
     7
  6
CONTINUOUS
 10
2.7789
 20
4.4820
  0
VERTEX
  8
LAYER1
 62
     7
  6
CONTINUOUS
 10
2.7810
 20
4.4841
  0
VERTEX
  8
LAYER1
 62
     7
  6
CONTINUOUS
 10
2.7832
 20
4.4861
  0
VERTEX
  8
LAYER1
 62
     7
  6
CONTINUOUS
 10
2.7854
 20
4.4881
  0
VERTEX
  8
LAYER1
 62
     7
  6
CONTINUOUS
 10
2.7876
 20
4.4900
  0
VERTEX
  8
LAYER1
 62
     7
  6
CONTINUOUS
 10
2.7905
 20
4.4922
  0
VERTEX
  8
LAYER1
 62
     7
  6
CONTINUOUS
 10
2.7934
 20
4.4944
  0
VERTEX
  8
LAYER1
 62
     7
  6
CONTINUOUS
 10
2.7963
 20
4.4965
  0
VERTEX
  8
LAYER1
 62
     7
  6
CONTINUOUS
 10
2.7993
 20
4.4985
  0
VERTEX
  8
LAYER1
 62
     7
  6
CONTINUOUS
 10
2.8023
 20
4.5006
  0
VERTEX
  8
LAYER1
 62
     7
  6
CONTINUOUS
 10
2.8053
 20
4.5026
  0
VERTEX
  8
LAYER1
 62
     7
  6
CONTINUOUS
 10
2.8083
 20
4.5046
  0
VERTEX
  8
LAYER1
 62
     7
  6
CONTINUOUS
 10
2.8113
 20
4.5067
  0
VERTEX
  8
LAYER1
 62
     7
  6
CONTINUOUS
 10
2.8142
 20
4.5087
  0
VERTEX
  8
LAYER1
 62
     7
  6
CONTINUOUS
 10
2.8171
 20
4.5109
  0
VERTEX
  8
LAYER1
 62
     7
  6
CONTINUOUS
 10
2.8199
 20
4.5131
  0
VERTEX
  8
LAYER1
 62
     7
  6
CONTINUOUS
 10
2.8226
 20
4.5154
  0
VERTEX
  8
LAYER1
 62
     7
  6
CONTINUOUS
 10
2.8255
 20
4.5183
  0
VERTEX
  8
LAYER1
 62
     7
  6
CONTINUOUS
 10
2.8284
 20
4.5212
  0
VERTEX
  8
LAYER1
 62
     7
  6
CONTINUOUS
 10
2.8311
 20
4.5243
  0
VERTEX
  8
LAYER1
 62
     7
  6
CONTINUOUS
 10
2.8337
 20
4.5275
  0
VERTEX
  8
LAYER1
 62
     7
  6
CONTINUOUS
 10
2.8363
 20
4.5308
  0
VERTEX
  8
LAYER1
 62
     7
  6
CONTINUOUS
 10
2.8387
 20
4.5342
  0
VERTEX
  8
LAYER1
 62
     7
  6
CONTINUOUS
 10
2.8411
 20
4.5377
  0
VERTEX
  8
LAYER1
 62
     7
  6
CONTINUOUS
 10
2.8434
 20
4.5412
  0
VERTEX
  8
LAYER1
 62
     7
  6
CONTINUOUS
 10
2.8456
 20
4.5448
  0
VERTEX
  8
LAYER1
 62
     7
  6
CONTINUOUS
 10
2.8478
 20
4.5484
  0
VERTEX
  8
LAYER1
 62
     7
  6
CONTINUOUS
 10
2.8500
 20
4.5521
  0
VERTEX
  8
LAYER1
 62
     7
  6
CONTINUOUS
 10
2.8522
 20
4.5557
  0
SEQEND
  8
LAYER1
  0
POLYLINE
  8
LAYER1
 62
     7
 66
     1
  6
CONTINUOUS
  0
VERTEX
  8
LAYER1
 62
     7
  6
CONTINUOUS
 10
2.8522
 20
4.5557
  0
VERTEX
  8
LAYER1
 62
     7
  6
CONTINUOUS
 10
2.8522
 20
4.5557
  0
VERTEX
  8
LAYER1
 62
     7
  6
CONTINUOUS
 10
2.8522
 20
4.5557
  0
VERTEX
  8
LAYER1
 62
     7
  6
CONTINUOUS
 10
2.8522
 20
4.5557
  0
VERTEX
  8
LAYER1
 62
     7
  6
CONTINUOUS
 10
2.8522
 20
4.5557
  0
VERTEX
  8
LAYER1
 62
     7
  6
CONTINUOUS
 10
2.8522
 20
4.5557
  0
VERTEX
  8
LAYER1
 62
     7
  6
CONTINUOUS
 10
2.8522
 20
4.5557
  0
VERTEX
  8
LAYER1
 62
     7
  6
CONTINUOUS
 10
2.8522
 20
4.5557
  0
VERTEX
  8
LAYER1
 62
     7
  6
CONTINUOUS
 10
2.8522
 20
4.5557
  0
VERTEX
  8
LAYER1
 62
     7
  6
CONTINUOUS
 10
2.8522
 20
4.5557
  0
VERTEX
  8
LAYER1
 62
     7
  6
CONTINUOUS
 10
2.8522
 20
4.5557
  0
VERTEX
  8
LAYER1
 62
     7
  6
CONTINUOUS
 10
2.8522
 20
4.5557
  0
VERTEX
  8
LAYER1
 62
     7
  6
CONTINUOUS
 10
2.8522
 20
4.5557
  0
VERTEX
  8
LAYER1
 62
     7
  6
CONTINUOUS
 10
2.8522
 20
4.5557
  0
VERTEX
  8
LAYER1
 62
     7
  6
CONTINUOUS
 10
2.8522
 20
4.5557
  0
VERTEX
  8
LAYER1
 62
     7
  6
CONTINUOUS
 10
2.8522
 20
4.5557
  0
VERTEX
  8
LAYER1
 62
     7
  6
CONTINUOUS
 10
2.8522
 20
4.5557
  0
VERTEX
  8
LAYER1
 62
     7
  6
CONTINUOUS
 10
2.8522
 20
4.5557
  0
VERTEX
  8
LAYER1
 62
     7
  6
CONTINUOUS
 10
2.8522
 20
4.5557
  0
VERTEX
  8
LAYER1
 62
     7
  6
CONTINUOUS
 10
2.8522
 20
4.5557
  0
VERTEX
  8
LAYER1
 62
     7
  6
CONTINUOUS
 10
2.8522
 20
4.5557
  0
VERTEX
  8
LAYER1
 62
     7
  6
CONTINUOUS
 10
2.8522
 20
4.5557
  0
VERTEX
  8
LAYER1
 62
     7
  6
CONTINUOUS
 10
2.8522
 20
4.5557
  0
VERTEX
  8
LAYER1
 62
     7
  6
CONTINUOUS
 10
2.8522
 20
4.5557
  0
VERTEX
  8
LAYER1
 62
     7
  6
CONTINUOUS
 10
2.8522
 20
4.5557
  0
SEQEND
  8
LAYER1
  0
POLYLINE
  8
LAYER1
 62
     7
 66
     1
  6
CONTINUOUS
  0
VERTEX
  8
LAYER1
 62
     7
  6
CONTINUOUS
 10
2.9313
 20
4.5557
  0
VERTEX
  8
LAYER1
 62
     7
  6
CONTINUOUS
 10
2.9313
 20
4.5557
  0
VERTEX
  8
LAYER1
 62
     7
  6
CONTINUOUS
 10
2.9313
 20
4.5557
  0
VERTEX
  8
LAYER1
 62
     7
  6
CONTINUOUS
 10
2.9313
 20
4.5557
  0
VERTEX
  8
LAYER1
 62
     7
  6
CONTINUOUS
 10
2.9313
 20
4.5557
  0
VERTEX
  8
LAYER1
 62
     7
  6
CONTINUOUS
 10
2.9313
 20
4.5557
  0
VERTEX
  8
LAYER1
 62
     7
  6
CONTINUOUS
 10
2.9313
 20
4.5557
  0
VERTEX
  8
LAYER1
 62
     7
  6
CONTINUOUS
 10
2.9313
 20
4.5557
  0
VERTEX
  8
LAYER1
 62
     7
  6
CONTINUOUS
 10
2.9313
 20
4.5557
  0
VERTEX
  8
LAYER1
 62
     7
  6
CONTINUOUS
 10
2.9313
 20
4.5557
  0
VERTEX
  8
LAYER1
 62
     7
  6
CONTINUOUS
 10
2.9313
 20
4.5557
  0
VERTEX
  8
LAYER1
 62
     7
  6
CONTINUOUS
 10
2.9313
 20
4.5557
  0
VERTEX
  8
LAYER1
 62
     7
  6
CONTINUOUS
 10
2.9313
 20
4.5557
  0
VERTEX
  8
LAYER1
 62
     7
  6
CONTINUOUS
 10
2.9313
 20
4.5557
  0
VERTEX
  8
LAYER1
 62
     7
  6
CONTINUOUS
 10
2.9313
 20
4.5557
  0
VERTEX
  8
LAYER1
 62
     7
  6
CONTINUOUS
 10
2.9313
 20
4.5557
  0
VERTEX
  8
LAYER1
 62
     7
  6
CONTINUOUS
 10
2.9313
 20
4.5557
  0
VERTEX
  8
LAYER1
 62
     7
  6
CONTINUOUS
 10
2.9313
 20
4.5557
  0
VERTEX
  8
LAYER1
 62
     7
  6
CONTINUOUS
 10
2.9313
 20
4.5557
  0
VERTEX
  8
LAYER1
 62
     7
  6
CONTINUOUS
 10
2.9313
 20
4.5557
  0
VERTEX
  8
LAYER1
 62
     7
  6
CONTINUOUS
 10
2.9313
 20
4.5557
  0
VERTEX
  8
LAYER1
 62
     7
  6
CONTINUOUS
 10
2.9313
 20
4.5557
  0
VERTEX
  8
LAYER1
 62
     7
  6
CONTINUOUS
 10
2.9313
 20
4.5557
  0
VERTEX
  8
LAYER1
 62
     7
  6
CONTINUOUS
 10
2.9313
 20
4.5557
  0
VERTEX
  8
LAYER1
 62
     7
  6
CONTINUOUS
 10
2.9313
 20
4.5557
  0
SEQEND
  8
LAYER1
  0
POLYLINE
  8
LAYER1
 62
     7
 66
     1
  6
CONTINUOUS
  0
VERTEX
  8
LAYER1
 62
     7
  6
CONTINUOUS
 10
2.9313
 20
4.5557
  0
VERTEX
  8
LAYER1
 62
     7
  6
CONTINUOUS
 10
2.9311
 20
4.5545
  0
VERTEX
  8
LAYER1
 62
     7
  6
CONTINUOUS
 10
2.9309
 20
4.5533
  0
VERTEX
  8
LAYER1
 62
     7
  6
CONTINUOUS
 10
2.9307
 20
4.5521
  0
VERTEX
  8
LAYER1
 62
     7
  6
CONTINUOUS
 10
2.9304
 20
4.5508
  0
VERTEX
  8
LAYER1
 62
     7
  6
CONTINUOUS
 10
2.9302
 20
4.5496
  0
VERTEX
  8
LAYER1
 62
     7
  6
CONTINUOUS
 10
2.9299
 20
4.5484
  0
VERTEX
  8
LAYER1
 62
     7
  6
CONTINUOUS
 10
2.9296
 20
4.5473
  0
VERTEX
  8
LAYER1
 62
     7
  6
CONTINUOUS
 10
2.9293
 20
4.5461
  0
VERTEX
  8
LAYER1
 62
     7
  6
CONTINUOUS
 10
2.9290
 20
4.5449
  0
VERTEX
  8
LAYER1
 62
     7
  6
CONTINUOUS
 10
2.9286
 20
4.5438
  0
VERTEX
  8
LAYER1
 62
     7
  6
CONTINUOUS
 10
2.9282
 20
4.5427
  0
VERTEX
  8
LAYER1
 62
     7
  6
CONTINUOUS
 10
2.9278
 20
4.5416
  0
VERTEX
  8
LAYER1
 62
     7
  6
CONTINUOUS
 10
2.9263
 20
4.5385
  0
VERTEX
  8
LAYER1
 62
     7
  6
CONTINUOUS
 10
2.9245
 20
4.5356
  0
VERTEX
  8
LAYER1
 62
     7
  6
CONTINUOUS
 10
2.9224
 20
4.5328
  0
VERTEX
  8
LAYER1
 62
     7
  6
CONTINUOUS
 10
2.9201
 20
4.5302
  0
VERTEX
  8
LAYER1
 62
     7
  6
CONTINUOUS
 10
2.9176
 20
4.5277
  0
VERTEX
  8
LAYER1
 62
     7
  6
CONTINUOUS
 10
2.9149
 20
4.5253
  0
VERTEX
  8
LAYER1
 62
     7
  6
CONTINUOUS
 10
2.9122
 20
4.5229
  0
VERTEX
  8
LAYER1
 62
     7
  6
CONTINUOUS
 10
2.9093
 20
4.5206
  0
VERTEX
  8
LAYER1
 62
     7
  6
CONTINUOUS
 10
2.9064
 20
4.5182
  0
VERTEX
  8
LAYER1
 62
     7
  6
CONTINUOUS
 10
2.9036
 20
4.5159
  0
VERTEX
  8
LAYER1
 62
     7
  6
CONTINUOUS
 10
2.9007
 20
4.5136
  0
VERTEX
  8
LAYER1
 62
     7
  6
CONTINUOUS
 10
2.8979
 20
4.5111
  0
VERTEX
  8
LAYER1
 62
     7
  6
CONTINUOUS
 10
2.8955
 20
4.5089
  0
VERTEX
  8
LAYER1
 62
     7
  6
CONTINUOUS
 10
2.8931
 20
4.5065
  0
VERTEX
  8
LAYER1
 62
     7
  6
CONTINUOUS
 10
2.8909
 20
4.5041
  0
VERTEX
  8
LAYER1
 62
     7
  6
CONTINUOUS
 10
2.8887
 20
4.5017
  0
VERTEX
  8
LAYER1
 62
     7
  6
CONTINUOUS
 10
2.8865
 20
4.4992
  0
VERTEX
  8
LAYER1
 62
     7
  6
CONTINUOUS
 10
2.8845
 20
4.4967
  0
VERTEX
  8
LAYER1
 62
     7
  6
CONTINUOUS
 10
2.8825
 20
4.4941
  0
VERTEX
  8
LAYER1
 62
     7
  6
CONTINUOUS
 10
2.8805
 20
4.4915
  0
VERTEX
  8
LAYER1
 62
     7
  6
CONTINUOUS
 10
2.8786
 20
4.4888
  0
VERTEX
  8
LAYER1
 62
     7
  6
CONTINUOUS
 10
2.8768
 20
4.4862
  0
VERTEX
  8
LAYER1
 62
     7
  6
CONTINUOUS
 10
2.8749
 20
4.4835
  0
VERTEX
  8
LAYER1
 62
     7
  6
CONTINUOUS
 10
2.8731
 20
4.4808
  0
VERTEX
  8
LAYER1
 62
     7
  6
CONTINUOUS
 10
2.8710
 20
4.4775
  0
VERTEX
  8
LAYER1
 62
     7
  6
CONTINUOUS
 10
2.8688
 20
4.4742
  0
VERTEX
  8
LAYER1
 62
     7
  6
CONTINUOUS
 10
2.8667
 20
4.4708
  0
VERTEX
  8
LAYER1
 62
     7
  6
CONTINUOUS
 10
2.8647
 20
4.4675
  0
VERTEX
  8
LAYER1
 62
     7
  6
CONTINUOUS
 10
2.8626
 20
4.4641
  0
VERTEX
  8
LAYER1
 62
     7
  6
CONTINUOUS
 10
2.8605
 20
4.4607
  0
VERTEX
  8
LAYER1
 62
     7
  6
CONTINUOUS
 10
2.8585
 20
4.4573
  0
VERTEX
  8
LAYER1
 62
     7
  6
CONTINUOUS
 10
2.8565
 20
4.4539
  0
VERTEX
  8
LAYER1
 62
     7
  6
CONTINUOUS
 10
2.8545
 20
4.4505
  0
VERTEX
  8
LAYER1
 62
     7
  6
CONTINUOUS
 10
2.8524
 20
4.4471
  0
VERTEX
  8
LAYER1
 62
     7
  6
CONTINUOUS
 10
2.8504
 20
4.4437
  0
VERTEX
  8
LAYER1
 62
     7
  6
CONTINUOUS
 10
2.8484
 20
4.4403
  0
VERTEX
  8
LAYER1
 62
     7
  6
CONTINUOUS
 10
2.8459
 20
4.4362
  0
VERTEX
  8
LAYER1
 62
     7
  6
CONTINUOUS
 10
2.8434
 20
4.4320
  0
VERTEX
  8
LAYER1
 62
     7
  6
CONTINUOUS
 10
2.8408
 20
4.4278
  0
VERTEX
  8
LAYER1
 62
     7
  6
CONTINUOUS
 10
2.8383
 20
4.4236
  0
VERTEX
  8
LAYER1
 62
     7
  6
CONTINUOUS
 10
2.8358
 20
4.4194
  0
VERTEX
  8
LAYER1
 62
     7
  6
CONTINUOUS
 10
2.8333
 20
4.4152
  0
VERTEX
  8
LAYER1
 62
     7
  6
CONTINUOUS
 10
2.8308
 20
4.4110
  0
VERTEX
  8
LAYER1
 62
     7
  6
CONTINUOUS
 10
2.8284
 20
4.4068
  0
VERTEX
  8
LAYER1
 62
     7
  6
CONTINUOUS
 10
2.8259
 20
4.4026
  0
VERTEX
  8
LAYER1
 62
     7
  6
CONTINUOUS
 10
2.8235
 20
4.3983
  0
VERTEX
  8
LAYER1
 62
     7
  6
CONTINUOUS
 10
2.8211
 20
4.3941
  0
VERTEX
  8
LAYER1
 62
     7
  6
CONTINUOUS
 10
2.8187
 20
4.3898
  0
VERTEX
  8
LAYER1
 62
     7
  6
CONTINUOUS
 10
2.8176
 20
4.3877
  0
VERTEX
  8
LAYER1
 62
     7
  6
CONTINUOUS
 10
2.8164
 20
4.3855
  0
VERTEX
  8
LAYER1
 62
     7
  6
CONTINUOUS
 10
2.8152
 20
4.3834
  0
VERTEX
  8
LAYER1
 62
     7
  6
CONTINUOUS
 10
2.8141
 20
4.3813
  0
VERTEX
  8
LAYER1
 62
     7
  6
CONTINUOUS
 10
2.8129
 20
4.3791
  0
VERTEX
  8
LAYER1
 62
     7
  6
CONTINUOUS
 10
2.8117
 20
4.3770
  0
VERTEX
  8
LAYER1
 62
     7
  6
CONTINUOUS
 10
2.8105
 20
4.3749
  0
VERTEX
  8
LAYER1
 62
     7
  6
CONTINUOUS
 10
2.8092
 20
4.3728
  0
VERTEX
  8
LAYER1
 62
     7
  6
CONTINUOUS
 10
2.8079
 20
4.3707
  0
VERTEX
  8
LAYER1
 62
     7
  6
CONTINUOUS
 10
2.8066
 20
4.3686
  0
VERTEX
  8
LAYER1
 62
     7
  6
CONTINUOUS
 10
2.8053
 20
4.3666
  0
VERTEX
  8
LAYER1
 62
     7
  6
CONTINUOUS
 10
2.8039
 20
4.3646
  0
VERTEX
  8
LAYER1
 62
     7
  6
CONTINUOUS
 10
2.8018
 20
4.3616
  0
VERTEX
  8
LAYER1
 62
     7
  6
CONTINUOUS
 10
2.7995
 20
4.3588
  0
VERTEX
  8
LAYER1
 62
     7
  6
CONTINUOUS
 10
2.7973
 20
4.3559
  0
VERTEX
  8
LAYER1
 62
     7
  6
CONTINUOUS
 10
2.7950
 20
4.3531
  0
VERTEX
  8
LAYER1
 62
     7
  6
CONTINUOUS
 10
2.7927
 20
4.3502
  0
VERTEX
  8
LAYER1
 62
     7
  6
CONTINUOUS
 10
2.7904
 20
4.3474
  0
VERTEX
  8
LAYER1
 62
     7
  6
CONTINUOUS
 10
2.7882
 20
4.3445
  0
VERTEX
  8
LAYER1
 62
     7
  6
CONTINUOUS
 10
2.7861
 20
4.3416
  0
VERTEX
  8
LAYER1
 62
     7
  6
CONTINUOUS
 10
2.7841
 20
4.3386
  0
VERTEX
  8
LAYER1
 62
     7
  6
CONTINUOUS
 10
2.7823
 20
4.3356
  0
VERTEX
  8
LAYER1
 62
     7
  6
CONTINUOUS
 10
2.7806
 20
4.3324
  0
VERTEX
  8
LAYER1
 62
     7
  6
CONTINUOUS
 10
2.7791
 20
4.3292
  0
VERTEX
  8
LAYER1
 62
     7
  6
CONTINUOUS
 10
2.7776
 20
4.3251
  0
VERTEX
  8
LAYER1
 62
     7
  6
CONTINUOUS
 10
2.7764
 20
4.3209
  0
VERTEX
  8
LAYER1
 62
     7
  6
CONTINUOUS
 10
2.7754
 20
4.3165
  0
VERTEX
  8
LAYER1
 62
     7
  6
CONTINUOUS
 10
2.7745
 20
4.3121
  0
VERTEX
  8
LAYER1
 62
     7
  6
CONTINUOUS
 10
2.7737
 20
4.3077
  0
VERTEX
  8
LAYER1
 62
     7
  6
CONTINUOUS
 10
2.7729
 20
4.3033
  0
VERTEX
  8
LAYER1
 62
     7
  6
CONTINUOUS
 10
2.7720
 20
4.2989
  0
VERTEX
  8
LAYER1
 62
     7
  6
CONTINUOUS
 10
2.7710
 20
4.2946
  0
VERTEX
  8
LAYER1
 62
     7
  6
CONTINUOUS
 10
2.7699
 20
4.2904
  0
VERTEX
  8
LAYER1
 62
     7
  6
CONTINUOUS
 10
2.7684
 20
4.2863
  0
VERTEX
  8
LAYER1
 62
     7
  6
CONTINUOUS
 10
2.7667
 20
4.2825
  0
VERTEX
  8
LAYER1
 62
     7
  6
CONTINUOUS
 10
2.7645
 20
4.2788
  0
VERTEX
  8
LAYER1
 62
     7
  6
CONTINUOUS
 10
2.7625
 20
4.2760
  0
VERTEX
  8
LAYER1
 62
     7
  6
CONTINUOUS
 10
2.7602
 20
4.2734
  0
VERTEX
  8
LAYER1
 62
     7
  6
CONTINUOUS
 10
2.7577
 20
4.2708
  0
VERTEX
  8
LAYER1
 62
     7
  6
CONTINUOUS
 10
2.7550
 20
4.2684
  0
VERTEX
  8
LAYER1
 62
     7
  6
CONTINUOUS
 10
2.7523
 20
4.2660
  0
VERTEX
  8
LAYER1
 62
     7
  6
CONTINUOUS
 10
2.7495
 20
4.2636
  0
VERTEX
  8
LAYER1
 62
     7
  6
CONTINUOUS
 10
2.7467
 20
4.2612
  0
VERTEX
  8
LAYER1
 62
     7
  6
CONTINUOUS
 10
2.7440
 20
4.2588
  0
VERTEX
  8
LAYER1
 62
     7
  6
CONTINUOUS
 10
2.7414
 20
4.2564
  0
VERTEX
  8
LAYER1
 62
     7
  6
CONTINUOUS
 10
2.7389
 20
4.2538
  0
VERTEX
  8
LAYER1
 62
     7
  6
CONTINUOUS
 10
2.7367
 20
4.2512
  0
VERTEX
  8
LAYER1
 62
     7
  6
CONTINUOUS
 10
2.7347
 20
4.2484
  0
VERTEX
  8
LAYER1
 62
     7
  6
CONTINUOUS
 10
2.7330
 20
4.2455
  0
VERTEX
  8
LAYER1
 62
     7
  6
CONTINUOUS
 10
2.7317
 20
4.2425
  0
VERTEX
  8
LAYER1
 62
     7
  6
CONTINUOUS
 10
2.7305
 20
4.2393
  0
VERTEX
  8
LAYER1
 62
     7
  6
CONTINUOUS
 10
2.7296
 20
4.2361
  0
VERTEX
  8
LAYER1
 62
     7
  6
CONTINUOUS
 10
2.7288
 20
4.2327
  0
VERTEX
  8
LAYER1
 62
     7
  6
CONTINUOUS
 10
2.7281
 20
4.2293
  0
VERTEX
  8
LAYER1
 62
     7
  6
CONTINUOUS
 10
2.7276
 20
4.2258
  0
VERTEX
  8
LAYER1
 62
     7
  6
CONTINUOUS
 10
2.7271
 20
4.2223
  0
VERTEX
  8
LAYER1
 62
     7
  6
CONTINUOUS
 10
2.7266
 20
4.2187
  0
VERTEX
  8
LAYER1
 62
     7
  6
CONTINUOUS
 10
2.7261
 20
4.2151
  0
VERTEX
  8
LAYER1
 62
     7
  6
CONTINUOUS
 10
2.7256
 20
4.2116
  0
VERTEX
  8
LAYER1
 62
     7
  6
CONTINUOUS
 10
2.7250
 20
4.2081
  0
VERTEX
  8
LAYER1
 62
     7
  6
CONTINUOUS
 10
2.7241
 20
4.2037
  0
VERTEX
  8
LAYER1
 62
     7
  6
CONTINUOUS
 10
2.7231
 20
4.1994
  0
VERTEX
  8
LAYER1
 62
     7
  6
CONTINUOUS
 10
2.7220
 20
4.1951
  0
VERTEX
  8
LAYER1
 62
     7
  6
CONTINUOUS
 10
2.7208
 20
4.1909
  0
VERTEX
  8
LAYER1
 62
     7
  6
CONTINUOUS
 10
2.7195
 20
4.1868
  0
VERTEX
  8
LAYER1
 62
     7
  6
CONTINUOUS
 10
2.7181
 20
4.1826
  0
VERTEX
  8
LAYER1
 62
     7
  6
CONTINUOUS
 10
2.7167
 20
4.1785
  0
VERTEX
  8
LAYER1
 62
     7
  6
CONTINUOUS
 10
2.7154
 20
4.1744
  0
VERTEX
  8
LAYER1
 62
     7
  6
CONTINUOUS
 10
2.7140
 20
4.1702
  0
VERTEX
  8
LAYER1
 62
     7
  6
CONTINUOUS
 10
2.7127
 20
4.1661
  0
VERTEX
  8
LAYER1
 62
     7
  6
CONTINUOUS
 10
2.7115
 20
4.1619
  0
VERTEX
  8
LAYER1
 62
     7
  6
CONTINUOUS
 10
2.7104
 20
4.1577
  0
VERTEX
  8
LAYER1
 62
     7
  6
CONTINUOUS
 10
2.7095
 20
4.1540
  0
VERTEX
  8
LAYER1
 62
     7
  6
CONTINUOUS
 10
2.7087
 20
4.1502
  0
VERTEX
  8
LAYER1
 62
     7
  6
CONTINUOUS
 10
2.7080
 20
4.1464
  0
VERTEX
  8
LAYER1
 62
     7
  6
CONTINUOUS
 10
2.7073
 20
4.1426
  0
VERTEX
  8
LAYER1
 62
     7
  6
CONTINUOUS
 10
2.7066
 20
4.1388
  0
VERTEX
  8
LAYER1
 62
     7
  6
CONTINUOUS
 10
2.7059
 20
4.1350
  0
VERTEX
  8
LAYER1
 62
     7
  6
CONTINUOUS
 10
2.7052
 20
4.1312
  0
VERTEX
  8
LAYER1
 62
     7
  6
CONTINUOUS
 10
2.7044
 20
4.1274
  0
VERTEX
  8
LAYER1
 62
     7
  6
CONTINUOUS
 10
2.7037
 20
4.1236
  0
VERTEX
  8
LAYER1
 62
     7
  6
CONTINUOUS
 10
2.7028
 20
4.1198
  0
VERTEX
  8
LAYER1
 62
     7
  6
CONTINUOUS
 10
2.7019
 20
4.1161
  0
VERTEX
  8
LAYER1
 62
     7
  6
CONTINUOUS
 10
2.7008
 20
4.1124
  0
VERTEX
  8
LAYER1
 62
     7
  6
CONTINUOUS
 10
2.6996
 20
4.1088
  0
VERTEX
  8
LAYER1
 62
     7
  6
CONTINUOUS
 10
2.6984
 20
4.1051
  0
VERTEX
  8
LAYER1
 62
     7
  6
CONTINUOUS
 10
2.6971
 20
4.1015
  0
VERTEX
  8
LAYER1
 62
     7
  6
CONTINUOUS
 10
2.6958
 20
4.0979
  0
VERTEX
  8
LAYER1
 62
     7
  6
CONTINUOUS
 10
2.6946
 20
4.0943
  0
VERTEX
  8
LAYER1
 62
     7
  6
CONTINUOUS
 10
2.6935
 20
4.0906
  0
VERTEX
  8
LAYER1
 62
     7
  6
CONTINUOUS
 10
2.6925
 20
4.0869
  0
VERTEX
  8
LAYER1
 62
     7
  6
CONTINUOUS
 10
2.6917
 20
4.0831
  0
VERTEX
  8
LAYER1
 62
     7
  6
CONTINUOUS
 10
2.6911
 20
4.0793
  0
VERTEX
  8
LAYER1
 62
     7
  6
CONTINUOUS
 10
2.6908
 20
4.0753
  0
VERTEX
  8
LAYER1
 62
     7
  6
CONTINUOUS
 10
2.6908
 20
4.0713
  0
VERTEX
  8
LAYER1
 62
     7
  6
CONTINUOUS
 10
2.6912
 20
4.0671
  0
VERTEX
  8
LAYER1
 62
     7
  6
CONTINUOUS
 10
2.6915
 20
4.0653
  0
VERTEX
  8
LAYER1
 62
     7
  6
CONTINUOUS
 10
2.6918
 20
4.0634
  0
VERTEX
  8
LAYER1
 62
     7
  6
CONTINUOUS
 10
2.6921
 20
4.0616
  0
VERTEX
  8
LAYER1
 62
     7
  6
CONTINUOUS
 10
2.6925
 20
4.0597
  0
VERTEX
  8
LAYER1
 62
     7
  6
CONTINUOUS
 10
2.6928
 20
4.0579
  0
VERTEX
  8
LAYER1
 62
     7
  6
CONTINUOUS
 10
2.6930
 20
4.0561
  0
VERTEX
  8
LAYER1
 62
     7
  6
CONTINUOUS
 10
2.6931
 20
4.0544
  0
VERTEX
  8
LAYER1
 62
     7
  6
CONTINUOUS
 10
2.6932
 20
4.0528
  0
VERTEX
  8
LAYER1
 62
     7
  6
CONTINUOUS
 10
2.6930
 20
4.0512
  0
VERTEX
  8
LAYER1
 62
     7
  6
CONTINUOUS
 10
2.6927
 20
4.0497
  0
VERTEX
  8
LAYER1
 62
     7
  6
CONTINUOUS
 10
2.6922
 20
4.0483
  0
VERTEX
  8
LAYER1
 62
     7
  6
CONTINUOUS
 10
2.6914
 20
4.0470
  0
VERTEX
  8
LAYER1
 62
     7
  6
CONTINUOUS
 10
2.6908
 20
4.0464
  0
VERTEX
  8
LAYER1
 62
     7
  6
CONTINUOUS
 10
2.6902
 20
4.0458
  0
VERTEX
  8
LAYER1
 62
     7
  6
CONTINUOUS
 10
2.6895
 20
4.0452
  0
VERTEX
  8
LAYER1
 62
     7
  6
CONTINUOUS
 10
2.6888
 20
4.0447
  0
VERTEX
  8
LAYER1
 62
     7
  6
CONTINUOUS
 10
2.6880
 20
4.0442
  0
VERTEX
  8
LAYER1
 62
     7
  6
CONTINUOUS
 10
2.6871
 20
4.0437
  0
VERTEX
  8
LAYER1
 62
     7
  6
CONTINUOUS
 10
2.6862
 20
4.0433
  0
VERTEX
  8
LAYER1
 62
     7
  6
CONTINUOUS
 10
2.6853
 20
4.0430
  0
VERTEX
  8
LAYER1
 62
     7
  6
CONTINUOUS
 10
2.6843
 20
4.0426
  0
VERTEX
  8
LAYER1
 62
     7
  6
CONTINUOUS
 10
2.6834
 20
4.0423
  0
VERTEX
  8
LAYER1
 62
     7
  6
CONTINUOUS
 10
2.6824
 20
4.0421
  0
VERTEX
  8
LAYER1
 62
     7
  6
CONTINUOUS
 10
2.6814
 20
4.0419
  0
VERTEX
  8
LAYER1
 62
     7
  6
CONTINUOUS
 10
2.6783
 20
4.0416
  0
VERTEX
  8
LAYER1
 62
     7
  6
CONTINUOUS
 10
2.6752
 20
4.0416
  0
VERTEX
  8
LAYER1
 62
     7
  6
CONTINUOUS
 10
2.6722
 20
4.0419
  0
VERTEX
  8
LAYER1
 62
     7
  6
CONTINUOUS
 10
2.6692
 20
4.0424
  0
VERTEX
  8
LAYER1
 62
     7
  6
CONTINUOUS
 10
2.6663
 20
4.0431
  0
VERTEX
  8
LAYER1
 62
     7
  6
CONTINUOUS
 10
2.6633
 20
4.0439
  0
VERTEX
  8
LAYER1
 62
     7
  6
CONTINUOUS
 10
2.6604
 20
4.0447
  0
VERTEX
  8
LAYER1
 62
     7
  6
CONTINUOUS
 10
2.6576
 20
4.0454
  0
VERTEX
  8
LAYER1
 62
     7
  6
CONTINUOUS
 10
2.6547
 20
4.0460
  0
VERTEX
  8
LAYER1
 62
     7
  6
CONTINUOUS
 10
2.6518
 20
4.0465
  0
VERTEX
  8
LAYER1
 62
     7
  6
CONTINUOUS
 10
2.6490
 20
4.0467
  0
VERTEX
  8
LAYER1
 62
     7
  6
CONTINUOUS
 10
2.6462
 20
4.0466
  0
VERTEX
  8
LAYER1
 62
     7
  6
CONTINUOUS
 10
2.6444
 20
4.0463
  0
VERTEX
  8
LAYER1
 62
     7
  6
CONTINUOUS
 10
2.6426
 20
4.0459
  0
VERTEX
  8
LAYER1
 62
     7
  6
CONTINUOUS
 10
2.6408
 20
4.0454
  0
VERTEX
  8
LAYER1
 62
     7
  6
CONTINUOUS
 10
2.6391
 20
4.0447
  0
VERTEX
  8
LAYER1
 62
     7
  6
CONTINUOUS
 10
2.6374
 20
4.0440
  0
VERTEX
  8
LAYER1
 62
     7
  6
CONTINUOUS
 10
2.6357
 20
4.0431
  0
VERTEX
  8
LAYER1
 62
     7
  6
CONTINUOUS
 10
2.6340
 20
4.0421
  0
VERTEX
  8
LAYER1
 62
     7
  6
CONTINUOUS
 10
2.6323
 20
4.0411
  0
VERTEX
  8
LAYER1
 62
     7
  6
CONTINUOUS
 10
2.6307
 20
4.0400
  0
VERTEX
  8
LAYER1
 62
     7
  6
CONTINUOUS
 10
2.6292
 20
4.0388
  0
VERTEX
  8
LAYER1
 62
     7
  6
CONTINUOUS
 10
2.6276
 20
4.0376
  0
VERTEX
  8
LAYER1
 62
     7
  6
CONTINUOUS
 10
2.6262
 20
4.0364
  0
VERTEX
  8
LAYER1
 62
     7
  6
CONTINUOUS
 10
2.6253
 20
4.0356
  0
VERTEX
  8
LAYER1
 62
     7
  6
CONTINUOUS
 10
2.6244
 20
4.0347
  0
VERTEX
  8
LAYER1
 62
     7
  6
CONTINUOUS
 10
2.6235
 20
4.0339
  0
VERTEX
  8
LAYER1
 62
     7
  6
CONTINUOUS
 10
2.6227
 20
4.0331
  0
VERTEX
  8
LAYER1
 62
     7
  6
CONTINUOUS
 10
2.6218
 20
4.0322
  0
VERTEX
  8
LAYER1
 62
     7
  6
CONTINUOUS
 10
2.6210
 20
4.0314
  0
VERTEX
  8
LAYER1
 62
     7
  6
CONTINUOUS
 10
2.6202
 20
4.0305
  0
VERTEX
  8
LAYER1
 62
     7
  6
CONTINUOUS
 10
2.6194
 20
4.0297
  0
VERTEX
  8
LAYER1
 62
     7
  6
CONTINUOUS
 10
2.6186
 20
4.0288
  0
VERTEX
  8
LAYER1
 62
     7
  6
CONTINUOUS
 10
2.6178
 20
4.0280
  0
VERTEX
  8
LAYER1
 62
     7
  6
CONTINUOUS
 10
2.6170
 20
4.0271
  0
VERTEX
  8
LAYER1
 62
     7
  6
CONTINUOUS
 10
2.6162
 20
4.0262
  0
SEQEND
  8
LAYER1
  0
POLYLINE
  8
LAYER1
 62
     7
 66
     1
  6
CONTINUOUS
  0
VERTEX
  8
LAYER1
 62
     7
  6
CONTINUOUS
 10
3.0766
 20
3.9581
  0
VERTEX
  8
LAYER1
 62
     7
  6
CONTINUOUS
 10
3.0764
 20
3.9583
  0
VERTEX
  8
LAYER1
 62
     7
  6
CONTINUOUS
 10
3.0762
 20
3.9585
  0
VERTEX
  8
LAYER1
 62
     7
  6
CONTINUOUS
 10
3.0759
 20
3.9587
  0
VERTEX
  8
LAYER1
 62
     7
  6
CONTINUOUS
 10
3.0757
 20
3.9588
  0
VERTEX
  8
LAYER1
 62
     7
  6
CONTINUOUS
 10
3.0755
 20
3.9590
  0
VERTEX
  8
LAYER1
 62
     7
  6
CONTINUOUS
 10
3.0753
 20
3.9592
  0
VERTEX
  8
LAYER1
 62
     7
  6
CONTINUOUS
 10
3.0750
 20
3.9593
  0
VERTEX
  8
LAYER1
 62
     7
  6
CONTINUOUS
 10
3.0748
 20
3.9595
  0
VERTEX
  8
LAYER1
 62
     7
  6
CONTINUOUS
 10
3.0746
 20
3.9597
  0
VERTEX
  8
LAYER1
 62
     7
  6
CONTINUOUS
 10
3.0744
 20
3.9599
  0
VERTEX
  8
LAYER1
 62
     7
  6
CONTINUOUS
 10
3.0742
 20
3.9601
  0
VERTEX
  8
LAYER1
 62
     7
  6
CONTINUOUS
 10
3.0740
 20
3.9603
  0
VERTEX
  8
LAYER1
 62
     7
  6
CONTINUOUS
 10
3.0727
 20
3.9615
  0
VERTEX
  8
LAYER1
 62
     7
  6
CONTINUOUS
 10
3.0715
 20
3.9629
  0
VERTEX
  8
LAYER1
 62
     7
  6
CONTINUOUS
 10
3.0704
 20
3.9644
  0
VERTEX
  8
LAYER1
 62
     7
  6
CONTINUOUS
 10
3.0694
 20
3.9660
  0
VERTEX
  8
LAYER1
 62
     7
  6
CONTINUOUS
 10
3.0685
 20
3.9676
  0
VERTEX
  8
LAYER1
 62
     7
  6
CONTINUOUS
 10
3.0677
 20
3.9693
  0
VERTEX
  8
LAYER1
 62
     7
  6
CONTINUOUS
 10
3.0670
 20
3.9711
  0
VERTEX
  8
LAYER1
 62
     7
  6
CONTINUOUS
 10
3.0663
 20
3.9729
  0
VERTEX
  8
LAYER1
 62
     7
  6
CONTINUOUS
 10
3.0656
 20
3.9747
  0
VERTEX
  8
LAYER1
 62
     7
  6
CONTINUOUS
 10
3.0650
 20
3.9765
  0
VERTEX
  8
LAYER1
 62
     7
  6
CONTINUOUS
 10
3.0644
 20
3.9784
  0
VERTEX
  8
LAYER1
 62
     7
  6
CONTINUOUS
 10
3.0637
 20
3.9803
  0
VERTEX
  8
LAYER1
 62
     7
  6
CONTINUOUS
 10
3.0627
 20
3.9834
  0
VERTEX
  8
LAYER1
 62
     7
  6
CONTINUOUS
 10
3.0616
 20
3.9865
  0
VERTEX
  8
LAYER1
 62
     7
  6
CONTINUOUS
 10
3.0605
 20
3.9896
  0
VERTEX
  8
LAYER1
 62
     7
  6
CONTINUOUS
 10
3.0593
 20
3.9926
  0
VERTEX
  8
LAYER1
 62
     7
  6
CONTINUOUS
 10
3.0581
 20
3.9956
  0
VERTEX
  8
LAYER1
 62
     7
  6
CONTINUOUS
 10
3.0569
 20
3.9986
  0
VERTEX
  8
LAYER1
 62
     7
  6
CONTINUOUS
 10
3.0556
 20
4.0015
  0
VERTEX
  8
LAYER1
 62
     7
  6
CONTINUOUS
 10
3.0542
 20
4.0044
  0
VERTEX
  8
LAYER1
 62
     7
  6
CONTINUOUS
 10
3.0529
 20
4.0072
  0
VERTEX
  8
LAYER1
 62
     7
  6
CONTINUOUS
 10
3.0514
 20
4.0099
  0
VERTEX
  8
LAYER1
 62
     7
  6
CONTINUOUS
 10
3.0499
 20
4.0126
  0
VERTEX
  8
LAYER1
 62
     7
  6
CONTINUOUS
 10
3.0483
 20
4.0153
  0
VERTEX
  8
LAYER1
 62
     7
  6
CONTINUOUS
 10
3.0473
 20
4.0170
  0
VERTEX
  8
LAYER1
 62
     7
  6
CONTINUOUS
 10
3.0462
 20
4.0186
  0
VERTEX
  8
LAYER1
 62
     7
  6
CONTINUOUS
 10
3.0450
 20
4.0203
  0
VERTEX
  8
LAYER1
 62
     7
  6
CONTINUOUS
 10
3.0439
 20
4.0219
  0
VERTEX
  8
LAYER1
 62
     7
  6
CONTINUOUS
 10
3.0427
 20
4.0236
  0
VERTEX
  8
LAYER1
 62
     7
  6
CONTINUOUS
 10
3.0414
 20
4.0252
  0
VERTEX
  8
LAYER1
 62
     7
  6
CONTINUOUS
 10
3.0402
 20
4.0268
  0
VERTEX
  8
LAYER1
 62
     7
  6
CONTINUOUS
 10
3.0388
 20
4.0285
  0
VERTEX
  8
LAYER1
 62
     7
  6
CONTINUOUS
 10
3.0375
 20
4.0301
  0
VERTEX
  8
LAYER1
 62
     7
  6
CONTINUOUS
 10
3.0361
 20
4.0318
  0
VERTEX
  8
LAYER1
 62
     7
  6
CONTINUOUS
 10
3.0346
 20
4.0335
  0
VERTEX
  8
LAYER1
 62
     7
  6
CONTINUOUS
 10
3.0331
 20
4.0352
  0
VERTEX
  8
LAYER1
 62
     7
  6
CONTINUOUS
 10
3.0298
 20
4.0389
  0
VERTEX
  8
LAYER1
 62
     7
  6
CONTINUOUS
 10
3.0264
 20
4.0426
  0
VERTEX
  8
LAYER1
 62
     7
  6
CONTINUOUS
 10
3.0230
 20
4.0465
  0
VERTEX
  8
LAYER1
 62
     7
  6
CONTINUOUS
 10
3.0196
 20
4.0504
  0
VERTEX
  8
LAYER1
 62
     7
  6
CONTINUOUS
 10
3.0164
 20
4.0543
  0
VERTEX
  8
LAYER1
 62
     7
  6
CONTINUOUS
 10
3.0135
 20
4.0583
  0
VERTEX
  8
LAYER1
 62
     7
  6
CONTINUOUS
 10
3.0110
 20
4.0622
  0
VERTEX
  8
LAYER1
 62
     7
  6
CONTINUOUS
 10
3.0089
 20
4.0660
  0
VERTEX
  8
LAYER1
 62
     7
  6
CONTINUOUS
 10
3.0075
 20
4.0698
  0
VERTEX
  8
LAYER1
 62
     7
  6
CONTINUOUS
 10
3.0067
 20
4.0734
  0
VERTEX
  8
LAYER1
 62
     7
  6
CONTINUOUS
 10
3.0067
 20
4.0769
  0
VERTEX
  8
LAYER1
 62
     7
  6
CONTINUOUS
 10
3.0075
 20
4.0802
  0
VERTEX
  8
LAYER1
 62
     7
  6
CONTINUOUS
 10
3.0087
 20
4.0823
  0
VERTEX
  8
LAYER1
 62
     7
  6
CONTINUOUS
 10
3.0102
 20
4.0844
  0
VERTEX
  8
LAYER1
 62
     7
  6
CONTINUOUS
 10
3.0121
 20
4.0864
  0
VERTEX
  8
LAYER1
 62
     7
  6
CONTINUOUS
 10
3.0142
 20
4.0884
  0
VERTEX
  8
LAYER1
 62
     7
  6
CONTINUOUS
 10
3.0165
 20
4.0904
  0
VERTEX
  8
LAYER1
 62
     7
  6
CONTINUOUS
 10
3.0190
 20
4.0923
  0
VERTEX
  8
LAYER1
 62
     7
  6
CONTINUOUS
 10
3.0214
 20
4.0943
  0
VERTEX
  8
LAYER1
 62
     7
  6
CONTINUOUS
 10
3.0239
 20
4.0964
  0
VERTEX
  8
LAYER1
 62
     7
  6
CONTINUOUS
 10
3.0263
 20
4.0985
  0
VERTEX
  8
LAYER1
 62
     7
  6
CONTINUOUS
 10
3.0286
 20
4.1007
  0
VERTEX
  8
LAYER1
 62
     7
  6
CONTINUOUS
 10
3.0306
 20
4.1031
  0
VERTEX
  8
LAYER1
 62
     7
  6
CONTINUOUS
 10
3.0324
 20
4.1055
  0
VERTEX
  8
LAYER1
 62
     7
  6
CONTINUOUS
 10
3.0339
 20
4.1082
  0
VERTEX
  8
LAYER1
 62
     7
  6
CONTINUOUS
 10
3.0350
 20
4.1111
  0
VERTEX
  8
LAYER1
 62
     7
  6
CONTINUOUS
 10
3.0359
 20
4.1140
  0
VERTEX
  8
LAYER1
 62
     7
  6
CONTINUOUS
 10
3.0367
 20
4.1170
  0
VERTEX
  8
LAYER1
 62
     7
  6
CONTINUOUS
 10
3.0372
 20
4.1201
  0
VERTEX
  8
LAYER1
 62
     7
  6
CONTINUOUS
 10
3.0377
 20
4.1232
  0
VERTEX
  8
LAYER1
 62
     7
  6
CONTINUOUS
 10
3.0382
 20
4.1263
  0
VERTEX
  8
LAYER1
 62
     7
  6
CONTINUOUS
 10
3.0387
 20
4.1294
  0
VERTEX
  8
LAYER1
 62
     7
  6
CONTINUOUS
 10
3.0392
 20
4.1324
  0
VERTEX
  8
LAYER1
 62
     7
  6
CONTINUOUS
 10
3.0400
 20
4.1353
  0
VERTEX
  8
LAYER1
 62
     7
  6
CONTINUOUS
 10
3.0409
 20
4.1381
  0
VERTEX
  8
LAYER1
 62
     7
  6
CONTINUOUS
 10
3.0421
 20
4.1408
  0
VERTEX
  8
LAYER1
 62
     7
  6
CONTINUOUS
 10
3.0433
 20
4.1427
  0
VERTEX
  8
LAYER1
 62
     7
  6
CONTINUOUS
 10
3.0446
 20
4.1446
  0
VERTEX
  8
LAYER1
 62
     7
  6
CONTINUOUS
 10
3.0460
 20
4.1464
  0
VERTEX
  8
LAYER1
 62
     7
  6
CONTINUOUS
 10
3.0476
 20
4.1481
  0
VERTEX
  8
LAYER1
 62
     7
  6
CONTINUOUS
 10
3.0493
 20
4.1497
  0
VERTEX
  8
LAYER1
 62
     7
  6
CONTINUOUS
 10
3.0511
 20
4.1514
  0
VERTEX
  8
LAYER1
 62
     7
  6
CONTINUOUS
 10
3.0529
 20
4.1530
  0
VERTEX
  8
LAYER1
 62
     7
  6
CONTINUOUS
 10
3.0548
 20
4.1546
  0
VERTEX
  8
LAYER1
 62
     7
  6
CONTINUOUS
 10
3.0566
 20
4.1561
  0
VERTEX
  8
LAYER1
 62
     7
  6
CONTINUOUS
 10
3.0585
 20
4.1578
  0
VERTEX
  8
LAYER1
 62
     7
  6
CONTINUOUS
 10
3.0603
 20
4.1594
  0
VERTEX
  8
LAYER1
 62
     7
  6
CONTINUOUS
 10
3.0620
 20
4.1611
  0
VERTEX
  8
LAYER1
 62
     7
  6
CONTINUOUS
 10
3.0635
 20
4.1626
  0
VERTEX
  8
LAYER1
 62
     7
  6
CONTINUOUS
 10
3.0648
 20
4.1641
  0
VERTEX
  8
LAYER1
 62
     7
  6
CONTINUOUS
 10
3.0662
 20
4.1657
  0
VERTEX
  8
LAYER1
 62
     7
  6
CONTINUOUS
 10
3.0675
 20
4.1673
  0
VERTEX
  8
LAYER1
 62
     7
  6
CONTINUOUS
 10
3.0687
 20
4.1690
  0
VERTEX
  8
LAYER1
 62
     7
  6
CONTINUOUS
 10
3.0699
 20
4.1706
  0
VERTEX
  8
LAYER1
 62
     7
  6
CONTINUOUS
 10
3.0711
 20
4.1723
  0
VERTEX
  8
LAYER1
 62
     7
  6
CONTINUOUS
 10
3.0722
 20
4.1740
  0
VERTEX
  8
LAYER1
 62
     7
  6
CONTINUOUS
 10
3.0733
 20
4.1757
  0
VERTEX
  8
LAYER1
 62
     7
  6
CONTINUOUS
 10
3.0744
 20
4.1775
  0
VERTEX
  8
LAYER1
 62
     7
  6
CONTINUOUS
 10
3.0755
 20
4.1792
  0
VERTEX
  8
LAYER1
 62
     7
  6
CONTINUOUS
 10
3.0766
 20
4.1809
  0
SEQEND
  8
LAYER1
  0
POLYLINE
  8
LAYER1
 62
     7
 66
     1
  6
CONTINUOUS
  0
VERTEX
  8
LAYER1
 62
     7
  6
CONTINUOUS
 10
2.0492
 20
4.5561
  0
VERTEX
  8
LAYER1
 62
     7
  6
CONTINUOUS
 10
2.0492
 20
4.5561
  0
SEQEND
  8
LAYER1
  0
POLYLINE
  8
LAYER1
 62
     7
 66
     1
  6
CONTINUOUS
  0
VERTEX
  8
LAYER1
 62
     7
  6
CONTINUOUS
 10
2.0492
 20
4.5561
  0
VERTEX
  8
LAYER1
 62
     7
  6
CONTINUOUS
 10
3.0733
 20
4.5561
  0
SEQEND
  8
LAYER1
  0
POLYLINE
  8
LAYER1
 62
     7
 66
     1
  6
CONTINUOUS
  0
VERTEX
  8
LAYER1
 62
     7
  6
CONTINUOUS
 10
2.8522
 20
4.5557
  0
VERTEX
  8
LAYER1
 62
     7
  6
CONTINUOUS
 10
2.8522
 20
4.5557
  0
VERTEX
  8
LAYER1
 62
     7
  6
CONTINUOUS
 10
2.8522
 20
4.5558
  0
VERTEX
  8
LAYER1
 62
     7
  6
CONTINUOUS
 10
2.8522
 20
4.5558
  0
VERTEX
  8
LAYER1
 62
     7
  6
CONTINUOUS
 10
2.8522
 20
4.5558
  0
VERTEX
  8
LAYER1
 62
     7
  6
CONTINUOUS
 10
2.8522
 20
4.5558
  0
VERTEX
  8
LAYER1
 62
     7
  6
CONTINUOUS
 10
2.8523
 20
4.5558
  0
VERTEX
  8
LAYER1
 62
     7
  6
CONTINUOUS
 10
2.8523
 20
4.5558
  0
VERTEX
  8
LAYER1
 62
     7
  6
CONTINUOUS
 10
2.8523
 20
4.5559
  0
VERTEX
  8
LAYER1
 62
     7
  6
CONTINUOUS
 10
2.8523
 20
4.5559
  0
VERTEX
  8
LAYER1
 62
     7
  6
CONTINUOUS
 10
2.8523
 20
4.5559
  0
VERTEX
  8
LAYER1
 62
     7
  6
CONTINUOUS
 10
2.8523
 20
4.5559
  0
VERTEX
  8
LAYER1
 62
     7
  6
CONTINUOUS
 10
2.8523
 20
4.5559
  0
VERTEX
  8
LAYER1
 62
     7
  6
CONTINUOUS
 10
2.8523
 20
4.5559
  0
VERTEX
  8
LAYER1
 62
     7
  6
CONTINUOUS
 10
2.8523
 20
4.5559
  0
VERTEX
  8
LAYER1
 62
     7
  6
CONTINUOUS
 10
2.8523
 20
4.5560
  0
VERTEX
  8
LAYER1
 62
     7
  6
CONTINUOUS
 10
2.8523
 20
4.5560
  0
VERTEX
  8
LAYER1
 62
     7
  6
CONTINUOUS
 10
2.8523
 20
4.5560
  0
VERTEX
  8
LAYER1
 62
     7
  6
CONTINUOUS
 10
2.8523
 20
4.5560
  0
VERTEX
  8
LAYER1
 62
     7
  6
CONTINUOUS
 10
2.8523
 20
4.5560
  0
VERTEX
  8
LAYER1
 62
     7
  6
CONTINUOUS
 10
2.8524
 20
4.5560
  0
VERTEX
  8
LAYER1
 62
     7
  6
CONTINUOUS
 10
2.8524
 20
4.5561
  0
VERTEX
  8
LAYER1
 62
     7
  6
CONTINUOUS
 10
2.8524
 20
4.5561
  0
VERTEX
  8
LAYER1
 62
     7
  6
CONTINUOUS
 10
2.8524
 20
4.5561
  0
VERTEX
  8
LAYER1
 62
     7
  6
CONTINUOUS
 10
2.8524
 20
4.5561
  0
SEQEND
  8
LAYER1
  0
POLYLINE
  8
LAYER1
 62
     7
 66
     1
  6
CONTINUOUS
  0
VERTEX
  8
LAYER1
 62
     7
  6
CONTINUOUS
 10
2.9314
 20
4.5561
  0
VERTEX
  8
LAYER1
 62
     7
  6
CONTINUOUS
 10
2.9314
 20
4.5561
  0
VERTEX
  8
LAYER1
 62
     7
  6
CONTINUOUS
 10
2.9314
 20
4.5560
  0
VERTEX
  8
LAYER1
 62
     7
  6
CONTINUOUS
 10
2.9314
 20
4.5560
  0
VERTEX
  8
LAYER1
 62
     7
  6
CONTINUOUS
 10
2.9314
 20
4.5560
  0
VERTEX
  8
LAYER1
 62
     7
  6
CONTINUOUS
 10
2.9314
 20
4.5559
  0
VERTEX
  8
LAYER1
 62
     7
  6
CONTINUOUS
 10
2.9314
 20
4.5559
  0
VERTEX
  8
LAYER1
 62
     7
  6
CONTINUOUS
 10
2.9314
 20
4.5559
  0
VERTEX
  8
LAYER1
 62
     7
  6
CONTINUOUS
 10
2.9314
 20
4.5558
  0
VERTEX
  8
LAYER1
 62
     7
  6
CONTINUOUS
 10
2.9313
 20
4.5558
  0
VERTEX
  8
LAYER1
 62
     7
  6
CONTINUOUS
 10
2.9313
 20
4.5558
  0
VERTEX
  8
LAYER1
 62
     7
  6
CONTINUOUS
 10
2.9313
 20
4.5558
  0
VERTEX
  8
LAYER1
 62
     7
  6
CONTINUOUS
 10
2.9313
 20
4.5557
  0
VERTEX
  8
LAYER1
 62
     7
  6
CONTINUOUS
 10
2.9313
 20
4.5554
  0
VERTEX
  8
LAYER1
 62
     7
  6
CONTINUOUS
 10
2.9312
 20
4.5552
  0
VERTEX
  8
LAYER1
 62
     7
  6
CONTINUOUS
 10
2.9312
 20
4.5551
  0
VERTEX
  8
LAYER1
 62
     7
  6
CONTINUOUS
 10
2.9312
 20
4.5550
  0
VERTEX
  8
LAYER1
 62
     7
  6
CONTINUOUS
 10
2.9312
 20
4.5550
  0
VERTEX
  8
LAYER1
 62
     7
  6
CONTINUOUS
 10
2.9312
 20
4.5550
  0
VERTEX
  8
LAYER1
 62
     7
  6
CONTINUOUS
 10
2.9312
 20
4.5550
  0
VERTEX
  8
LAYER1
 62
     7
  6
CONTINUOUS
 10
2.9312
 20
4.5551
  0
VERTEX
  8
LAYER1
 62
     7
  6
CONTINUOUS
 10
2.9312
 20
4.5553
  0
VERTEX
  8
LAYER1
 62
     7
  6
CONTINUOUS
 10
2.9313
 20
4.5554
  0
VERTEX
  8
LAYER1
 62
     7
  6
CONTINUOUS
 10
2.9313
 20
4.5556
  0
VERTEX
  8
LAYER1
 62
     7
  6
CONTINUOUS
 10
2.9313
 20
4.5557
  0
SEQEND
  8
LAYER1
  0
POLYLINE
  8
LAYER1
 62
     7
 66
     1
  6
CONTINUOUS
  0
VERTEX
  8
LAYER1
 62
     7
  6
CONTINUOUS
 10
3.0733
 20
4.5561
  0
VERTEX
  8
LAYER1
 62
     7
  6
CONTINUOUS
 10
3.0766
 20
4.5561
  0
SEQEND
  8
LAYER1
  0
ARC
  8
LAYER1
 62
     7
  6
CONTINUOUS
 10
2.0570
 20
4.1992
 40
0.0183
 50
-73.5042
 51
115.1561
  0
ARC
  8
LAYER1
 62
     7
  6
CONTINUOUS
 10
2.0570
 20
4.1992
 40
0.0183
 50
-115.1554
 51
-73.5047
  0
ARC
  8
LAYER1
 62
     7
  6
CONTINUOUS
 10
3.0251
 20
3.5529
 40
0.0349
 50
-37.4830
 51
-142.5172
  0
ARC
  8
LAYER1
 62
     7
  6
CONTINUOUS
 10
2.9526
 20
3.5196
 40
0.0226
 50
32.3776
 51
147.6224
  0
ARC
  8
LAYER1
 62
     7
  6
CONTINUOUS
 10
2.8369
 20
3.5310
 40
0.0181
 50
2.0445
 51
177.9555
  0
POLYLINE
  8
LAYER10
 62
     1
 66
     1
  6
CONTINUOUS
  0
VERTEX
  8
LAYER10
 62
     1
  6
CONTINUOUS
 10
2.6788
 20
3.7857
  0
VERTEX
  8
LAYER10
 62
     1
  6
CONTINUOUS
 10
2.6793
 20
3.7849
  0
VERTEX
  8
LAYER10
 62
     1
  6
CONTINUOUS
 10
2.6804
 20
3.7832
  0
VERTEX
  8
LAYER10
 62
     1
  6
CONTINUOUS
 10
2.6819
 20
3.7809
  0
VERTEX
  8
LAYER10
 62
     1
  6
CONTINUOUS
 10
2.6839
 20
3.7779
  0
VERTEX
  8
LAYER10
 62
     1
  6
CONTINUOUS
 10
2.6863
 20
3.7746
  0
VERTEX
  8
LAYER10
 62
     1
  6
CONTINUOUS
 10
2.6890
 20
3.7710
  0
VERTEX
  8
LAYER10
 62
     1
  6
CONTINUOUS
 10
2.6920
 20
3.7672
  0
VERTEX
  8
LAYER10
 62
     1
  6
CONTINUOUS
 10
2.6952
 20
3.7634
  0
VERTEX
  8
LAYER10
 62
     1
  6
CONTINUOUS
 10
2.6986
 20
3.7598
  0
VERTEX
  8
LAYER10
 62
     1
  6
CONTINUOUS
 10
2.7021
 20
3.7564
  0
VERTEX
  8
LAYER10
 62
     1
  6
CONTINUOUS
 10
2.7057
 20
3.7533
  0
VERTEX
  8
LAYER10
 62
     1
  6
CONTINUOUS
 10
2.7093
 20
3.7508
  0
VERTEX
  8
LAYER10
 62
     1
  6
CONTINUOUS
 10
2.7101
 20
3.7503
  0
VERTEX
  8
LAYER10
 62
     1
  6
CONTINUOUS
 10
2.7110
 20
3.7498
  0
VERTEX
  8
LAYER10
 62
     1
  6
CONTINUOUS
 10
2.7119
 20
3.7494
  0
VERTEX
  8
LAYER10
 62
     1
  6
CONTINUOUS
 10
2.7127
 20
3.7490
  0
VERTEX
  8
LAYER10
 62
     1
  6
CONTINUOUS
 10
2.7136
 20
3.7486
  0
VERTEX
  8
LAYER10
 62
     1
  6
CONTINUOUS
 10
2.7144
 20
3.7482
  0
VERTEX
  8
LAYER10
 62
     1
  6
CONTINUOUS
 10
2.7153
 20
3.7478
  0
VERTEX
  8
LAYER10
 62
     1
  6
CONTINUOUS
 10
2.7161
 20
3.7474
  0
VERTEX
  8
LAYER10
 62
     1
  6
CONTINUOUS
 10
2.7169
 20
3.7471
  0
VERTEX
  8
LAYER10
 62
     1
  6
CONTINUOUS
 10
2.7177
 20
3.7467
  0
VERTEX
  8
LAYER10
 62
     1
  6
CONTINUOUS
 10
2.7186
 20
3.7463
  0
VERTEX
  8
LAYER10
 62
     1
  6
CONTINUOUS
 10
2.7194
 20
3.7459
  0
VERTEX
  8
LAYER10
 62
     1
  6
CONTINUOUS
 10
2.7216
 20
3.7447
  0
VERTEX
  8
LAYER10
 62
     1
  6
CONTINUOUS
 10
2.7238
 20
3.7433
  0
VERTEX
  8
LAYER10
 62
     1
  6
CONTINUOUS
 10
2.7260
 20
3.7419
  0
VERTEX
  8
LAYER10
 62
     1
  6
CONTINUOUS
 10
2.7281
 20
3.7403
  0
VERTEX
  8
LAYER10
 62
     1
  6
CONTINUOUS
 10
2.7302
 20
3.7386
  0
VERTEX
  8
LAYER10
 62
     1
  6
CONTINUOUS
 10
2.7322
 20
3.7369
  0
VERTEX
  8
LAYER10
 62
     1
  6
CONTINUOUS
 10
2.7343
 20
3.7351
  0
VERTEX
  8
LAYER10
 62
     1
  6
CONTINUOUS
 10
2.7363
 20
3.7333
  0
VERTEX
  8
LAYER10
 62
     1
  6
CONTINUOUS
 10
2.7384
 20
3.7315
  0
VERTEX
  8
LAYER10
 62
     1
  6
CONTINUOUS
 10
2.7404
 20
3.7297
  0
VERTEX
  8
LAYER10
 62
     1
  6
CONTINUOUS
 10
2.7425
 20
3.7279
  0
VERTEX
  8
LAYER10
 62
     1
  6
CONTINUOUS
 10
2.7447
 20
3.7261
  0
VERTEX
  8
LAYER10
 62
     1
  6
CONTINUOUS
 10
2.7461
 20
3.7249
  0
VERTEX
  8
LAYER10
 62
     1
  6
CONTINUOUS
 10
2.7475
 20
3.7237
  0
VERTEX
  8
LAYER10
 62
     1
  6
CONTINUOUS
 10
2.7490
 20
3.7226
  0
VERTEX
  8
LAYER10
 62
     1
  6
CONTINUOUS
 10
2.7504
 20
3.7214
  0
VERTEX
  8
LAYER10
 62
     1
  6
CONTINUOUS
 10
2.7518
 20
3.7202
  0
VERTEX
  8
LAYER10
 62
     1
  6
CONTINUOUS
 10
2.7532
 20
3.7190
  0
VERTEX
  8
LAYER10
 62
     1
  6
CONTINUOUS
 10
2.7545
 20
3.7178
  0
VERTEX
  8
LAYER10
 62
     1
  6
CONTINUOUS
 10
2.7557
 20
3.7166
  0
VERTEX
  8
LAYER10
 62
     1
  6
CONTINUOUS
 10
2.7569
 20
3.7153
  0
VERTEX
  8
LAYER10
 62
     1
  6
CONTINUOUS
 10
2.7580
 20
3.7139
  0
VERTEX
  8
LAYER10
 62
     1
  6
CONTINUOUS
 10
2.7590
 20
3.7126
  0
VERTEX
  8
LAYER10
 62
     1
  6
CONTINUOUS
 10
2.7599
 20
3.7111
  0
VERTEX
  8
LAYER10
 62
     1
  6
CONTINUOUS
 10
2.7605
 20
3.7100
  0
VERTEX
  8
LAYER10
 62
     1
  6
CONTINUOUS
 10
2.7610
 20
3.7089
  0
VERTEX
  8
LAYER10
 62
     1
  6
CONTINUOUS
 10
2.7615
 20
3.7077
  0
VERTEX
  8
LAYER10
 62
     1
  6
CONTINUOUS
 10
2.7619
 20
3.7065
  0
VERTEX
  8
LAYER10
 62
     1
  6
CONTINUOUS
 10
2.7623
 20
3.7052
  0
VERTEX
  8
LAYER10
 62
     1
  6
CONTINUOUS
 10
2.7627
 20
3.7040
  0
VERTEX
  8
LAYER10
 62
     1
  6
CONTINUOUS
 10
2.7631
 20
3.7027
  0
VERTEX
  8
LAYER10
 62
     1
  6
CONTINUOUS
 10
2.7635
 20
3.7014
  0
VERTEX
  8
LAYER10
 62
     1
  6
CONTINUOUS
 10
2.7638
 20
3.7001
  0
VERTEX
  8
LAYER10
 62
     1
  6
CONTINUOUS
 10
2.7642
 20
3.6988
  0
VERTEX
  8
LAYER10
 62
     1
  6
CONTINUOUS
 10
2.7646
 20
3.6974
  0
VERTEX
  8
LAYER10
 62
     1
  6
CONTINUOUS
 10
2.7650
 20
3.6961
  0
VERTEX
  8
LAYER10
 62
     1
  6
CONTINUOUS
 10
2.7657
 20
3.6943
  0
VERTEX
  8
LAYER10
 62
     1
  6
CONTINUOUS
 10
2.7663
 20
3.6926
  0
VERTEX
  8
LAYER10
 62
     1
  6
CONTINUOUS
 10
2.7670
 20
3.6908
  0
VERTEX
  8
LAYER10
 62
     1
  6
CONTINUOUS
 10
2.7677
 20
3.6891
  0
VERTEX
  8
LAYER10
 62
     1
  6
CONTINUOUS
 10
2.7683
 20
3.6874
  0
VERTEX
  8
LAYER10
 62
     1
  6
CONTINUOUS
 10
2.7689
 20
3.6856
  0
VERTEX
  8
LAYER10
 62
     1
  6
CONTINUOUS
 10
2.7695
 20
3.6840
  0
VERTEX
  8
LAYER10
 62
     1
  6
CONTINUOUS
 10
2.7699
 20
3.6823
  0
VERTEX
  8
LAYER10
 62
     1
  6
CONTINUOUS
 10
2.7702
 20
3.6807
  0
VERTEX
  8
LAYER10
 62
     1
  6
CONTINUOUS
 10
2.7704
 20
3.6791
  0
VERTEX
  8
LAYER10
 62
     1
  6
CONTINUOUS
 10
2.7704
 20
3.6775
  0
VERTEX
  8
LAYER10
 62
     1
  6
CONTINUOUS
 10
2.7703
 20
3.6761
  0
VERTEX
  8
LAYER10
 62
     1
  6
CONTINUOUS
 10
2.7697
 20
3.6741
  0
VERTEX
  8
LAYER10
 62
     1
  6
CONTINUOUS
 10
2.7688
 20
3.6723
  0
VERTEX
  8
LAYER10
 62
     1
  6
CONTINUOUS
 10
2.7677
 20
3.6705
  0
VERTEX
  8
LAYER10
 62
     1
  6
CONTINUOUS
 10
2.7662
 20
3.6688
  0
VERTEX
  8
LAYER10
 62
     1
  6
CONTINUOUS
 10
2.7645
 20
3.6671
  0
VERTEX
  8
LAYER10
 62
     1
  6
CONTINUOUS
 10
2.7627
 20
3.6655
  0
VERTEX
  8
LAYER10
 62
     1
  6
CONTINUOUS
 10
2.7607
 20
3.6639
  0
VERTEX
  8
LAYER10
 62
     1
  6
CONTINUOUS
 10
2.7587
 20
3.6623
  0
VERTEX
  8
LAYER10
 62
     1
  6
CONTINUOUS
 10
2.7566
 20
3.6607
  0
VERTEX
  8
LAYER10
 62
     1
  6
CONTINUOUS
 10
2.7544
 20
3.6591
  0
VERTEX
  8
LAYER10
 62
     1
  6
CONTINUOUS
 10
2.7524
 20
3.6575
  0
VERTEX
  8
LAYER10
 62
     1
  6
CONTINUOUS
 10
2.7504
 20
3.6558
  0
VERTEX
  8
LAYER10
 62
     1
  6
CONTINUOUS
 10
2.7478
 20
3.6534
  0
VERTEX
  8
LAYER10
 62
     1
  6
CONTINUOUS
 10
2.7454
 20
3.6509
  0
VERTEX
  8
LAYER10
 62
     1
  6
CONTINUOUS
 10
2.7432
 20
3.6483
  0
VERTEX
  8
LAYER10
 62
     1
  6
CONTINUOUS
 10
2.7411
 20
3.6456
  0
VERTEX
  8
LAYER10
 62
     1
  6
CONTINUOUS
 10
2.7391
 20
3.6430
  0
VERTEX
  8
LAYER10
 62
     1
  6
CONTINUOUS
 10
2.7372
 20
3.6403
  0
VERTEX
  8
LAYER10
 62
     1
  6
CONTINUOUS
 10
2.7353
 20
3.6377
  0
VERTEX
  8
LAYER10
 62
     1
  6
CONTINUOUS
 10
2.7335
 20
3.6351
  0
VERTEX
  8
LAYER10
 62
     1
  6
CONTINUOUS
 10
2.7316
 20
3.6325
  0
VERTEX
  8
LAYER10
 62
     1
  6
CONTINUOUS
 10
2.7297
 20
3.6300
  0
VERTEX
  8
LAYER10
 62
     1
  6
CONTINUOUS
 10
2.7277
 20
3.6277
  0
VERTEX
  8
LAYER10
 62
     1
  6
CONTINUOUS
 10
2.7255
 20
3.6254
  0
VERTEX
  8
LAYER10
 62
     1
  6
CONTINUOUS
 10
2.7245
 20
3.6244
  0
VERTEX
  8
LAYER10
 62
     1
  6
CONTINUOUS
 10
2.7234
 20
3.6234
  0
VERTEX
  8
LAYER10
 62
     1
  6
CONTINUOUS
 10
2.7223
 20
3.6225
  0
VERTEX
  8
LAYER10
 62
     1
  6
CONTINUOUS
 10
2.7212
 20
3.6216
  0
VERTEX
  8
LAYER10
 62
     1
  6
CONTINUOUS
 10
2.7200
 20
3.6207
  0
VERTEX
  8
LAYER10
 62
     1
  6
CONTINUOUS
 10
2.7188
 20
3.6199
  0
VERTEX
  8
LAYER10
 62
     1
  6
CONTINUOUS
 10
2.7175
 20
3.6190
  0
VERTEX
  8
LAYER10
 62
     1
  6
CONTINUOUS
 10
2.7162
 20
3.6182
  0
VERTEX
  8
LAYER10
 62
     1
  6
CONTINUOUS
 10
2.7149
 20
3.6174
  0
VERTEX
  8
LAYER10
 62
     1
  6
CONTINUOUS
 10
2.7135
 20
3.6167
  0
VERTEX
  8
LAYER10
 62
     1
  6
CONTINUOUS
 10
2.7121
 20
3.6159
  0
VERTEX
  8
LAYER10
 62
     1
  6
CONTINUOUS
 10
2.7106
 20
3.6152
  0
VERTEX
  8
LAYER10
 62
     1
  6
CONTINUOUS
 10
2.7084
 20
3.6142
  0
VERTEX
  8
LAYER10
 62
     1
  6
CONTINUOUS
 10
2.7062
 20
3.6133
  0
VERTEX
  8
LAYER10
 62
     1
  6
CONTINUOUS
 10
2.7040
 20
3.6124
  0
VERTEX
  8
LAYER10
 62
     1
  6
CONTINUOUS
 10
2.7018
 20
3.6114
  0
VERTEX
  8
LAYER10
 62
     1
  6
CONTINUOUS
 10
2.6997
 20
3.6103
  0
VERTEX
  8
LAYER10
 62
     1
  6
CONTINUOUS
 10
2.6977
 20
3.6093
  0
VERTEX
  8
LAYER10
 62
     1
  6
CONTINUOUS
 10
2.6958
 20
3.6081
  0
VERTEX
  8
LAYER10
 62
     1
  6
CONTINUOUS
 10
2.6942
 20
3.6068
  0
VERTEX
  8
LAYER10
 62
     1
  6
CONTINUOUS
 10
2.6928
 20
3.6053
  0
VERTEX
  8
LAYER10
 62
     1
  6
CONTINUOUS
 10
2.6917
 20
3.6037
  0
VERTEX
  8
LAYER10
 62
     1
  6
CONTINUOUS
 10
2.6910
 20
3.6019
  0
VERTEX
  8
LAYER10
 62
     1
  6
CONTINUOUS
 10
2.6906
 20
3.6000
  0
VERTEX
  8
LAYER10
 62
     1
  6
CONTINUOUS
 10
2.6906
 20
3.5991
  0
VERTEX
  8
LAYER10
 62
     1
  6
CONTINUOUS
 10
2.6906
 20
3.5982
  0
VERTEX
  8
LAYER10
 62
     1
  6
CONTINUOUS
 10
2.6907
 20
3.5973
  0
VERTEX
  8
LAYER10
 62
     1
  6
CONTINUOUS
 10
2.6908
 20
3.5964
  0
VERTEX
  8
LAYER10
 62
     1
  6
CONTINUOUS
 10
2.6909
 20
3.5955
  0
VERTEX
  8
LAYER10
 62
     1
  6
CONTINUOUS
 10
2.6910
 20
3.5946
  0
VERTEX
  8
LAYER10
 62
     1
  6
CONTINUOUS
 10
2.6910
 20
3.5937
  0
VERTEX
  8
LAYER10
 62
     1
  6
CONTINUOUS
 10
2.6911
 20
3.5929
  0
VERTEX
  8
LAYER10
 62
     1
  6
CONTINUOUS
 10
2.6911
 20
3.5921
  0
VERTEX
  8
LAYER10
 62
     1
  6
CONTINUOUS
 10
2.6910
 20
3.5913
  0
VERTEX
  8
LAYER10
 62
     1
  6
CONTINUOUS
 10
2.6909
 20
3.5906
  0
VERTEX
  8
LAYER10
 62
     1
  6
CONTINUOUS
 10
2.6907
 20
3.5899
  0
VERTEX
  8
LAYER10
 62
     1
  6
CONTINUOUS
 10
2.6902
 20
3.5890
  0
VERTEX
  8
LAYER10
 62
     1
  6
CONTINUOUS
 10
2.6894
 20
3.5883
  0
VERTEX
  8
LAYER10
 62
     1
  6
CONTINUOUS
 10
2.6885
 20
3.5877
  0
VERTEX
  8
LAYER10
 62
     1
  6
CONTINUOUS
 10
2.6873
 20
3.5872
  0
VERTEX
  8
LAYER10
 62
     1
  6
CONTINUOUS
 10
2.6861
 20
3.5868
  0
VERTEX
  8
LAYER10
 62
     1
  6
CONTINUOUS
 10
2.6847
 20
3.5865
  0
VERTEX
  8
LAYER10
 62
     1
  6
CONTINUOUS
 10
2.6832
 20
3.5862
  0
VERTEX
  8
LAYER10
 62
     1
  6
CONTINUOUS
 10
2.6817
 20
3.5859
  0
VERTEX
  8
LAYER10
 62
     1
  6
CONTINUOUS
 10
2.6802
 20
3.5857
  0
VERTEX
  8
LAYER10
 62
     1
  6
CONTINUOUS
 10
2.6786
 20
3.5854
  0
VERTEX
  8
LAYER10
 62
     1
  6
CONTINUOUS
 10
2.6771
 20
3.5851
  0
VERTEX
  8
LAYER10
 62
     1
  6
CONTINUOUS
 10
2.6757
 20
3.5847
  0
VERTEX
  8
LAYER10
 62
     1
  6
CONTINUOUS
 10
2.6747
 20
3.5844
  0
VERTEX
  8
LAYER10
 62
     1
  6
CONTINUOUS
 10
2.6738
 20
3.5841
  0
VERTEX
  8
LAYER10
 62
     1
  6
CONTINUOUS
 10
2.6729
 20
3.5837
  0
VERTEX
  8
LAYER10
 62
     1
  6
CONTINUOUS
 10
2.6720
 20
3.5833
  0
VERTEX
  8
LAYER10
 62
     1
  6
CONTINUOUS
 10
2.6712
 20
3.5829
  0
VERTEX
  8
LAYER10
 62
     1
  6
CONTINUOUS
 10
2.6704
 20
3.5825
  0
VERTEX
  8
LAYER10
 62
     1
  6
CONTINUOUS
 10
2.6696
 20
3.5820
  0
VERTEX
  8
LAYER10
 62
     1
  6
CONTINUOUS
 10
2.6688
 20
3.5815
  0
VERTEX
  8
LAYER10
 62
     1
  6
CONTINUOUS
 10
2.6680
 20
3.5810
  0
VERTEX
  8
LAYER10
 62
     1
  6
CONTINUOUS
 10
2.6672
 20
3.5806
  0
VERTEX
  8
LAYER10
 62
     1
  6
CONTINUOUS
 10
2.6665
 20
3.5801
  0
VERTEX
  8
LAYER10
 62
     1
  6
CONTINUOUS
 10
2.6657
 20
3.5796
  0
VERTEX
  8
LAYER10
 62
     1
  6
CONTINUOUS
 10
2.6635
 20
3.5783
  0
VERTEX
  8
LAYER10
 62
     1
  6
CONTINUOUS
 10
2.6612
 20
3.5772
  0
VERTEX
  8
LAYER10
 62
     1
  6
CONTINUOUS
 10
2.6588
 20
3.5761
  0
VERTEX
  8
LAYER10
 62
     1
  6
CONTINUOUS
 10
2.6564
 20
3.5750
  0
VERTEX
  8
LAYER10
 62
     1
  6
CONTINUOUS
 10
2.6540
 20
3.5741
  0
VERTEX
  8
LAYER10
 62
     1
  6
CONTINUOUS
 10
2.6515
 20
3.5732
  0
VERTEX
  8
LAYER10
 62
     1
  6
CONTINUOUS
 10
2.6489
 20
3.5724
  0
VERTEX
  8
LAYER10
 62
     1
  6
CONTINUOUS
 10
2.6463
 20
3.5716
  0
VERTEX
  8
LAYER10
 62
     1
  6
CONTINUOUS
 10
2.6437
 20
3.5710
  0
VERTEX
  8
LAYER10
 62
     1
  6
CONTINUOUS
 10
2.6410
 20
3.5704
  0
VERTEX
  8
LAYER10
 62
     1
  6
CONTINUOUS
 10
2.6384
 20
3.5698
  0
VERTEX
  8
LAYER10
 62
     1
  6
CONTINUOUS
 10
2.6356
 20
3.5693
  0
VERTEX
  8
LAYER10
 62
     1
  6
CONTINUOUS
 10
2.6344
 20
3.5691
  0
VERTEX
  8
LAYER10
 62
     1
  6
CONTINUOUS
 10
2.6331
 20
3.5689
  0
VERTEX
  8
LAYER10
 62
     1
  6
CONTINUOUS
 10
2.6318
 20
3.5687
  0
VERTEX
  8
LAYER10
 62
     1
  6
CONTINUOUS
 10
2.6305
 20
3.5685
  0
VERTEX
  8
LAYER10
 62
     1
  6
CONTINUOUS
 10
2.6292
 20
3.5684
  0
VERTEX
  8
LAYER10
 62
     1
  6
CONTINUOUS
 10
2.6279
 20
3.5684
  0
VERTEX
  8
LAYER10
 62
     1
  6
CONTINUOUS
 10
2.6266
 20
3.5683
  0
VERTEX
  8
LAYER10
 62
     1
  6
CONTINUOUS
 10
2.6254
 20
3.5684
  0
VERTEX
  8
LAYER10
 62
     1
  6
CONTINUOUS
 10
2.6241
 20
3.5685
  0
VERTEX
  8
LAYER10
 62
     1
  6
CONTINUOUS
 10
2.6229
 20
3.5686
  0
VERTEX
  8
LAYER10
 62
     1
  6
CONTINUOUS
 10
2.6217
 20
3.5688
  0
VERTEX
  8
LAYER10
 62
     1
  6
CONTINUOUS
 10
2.6206
 20
3.5691
  0
VERTEX
  8
LAYER10
 62
     1
  6
CONTINUOUS
 10
2.6192
 20
3.5696
  0
VERTEX
  8
LAYER10
 62
     1
  6
CONTINUOUS
 10
2.6179
 20
3.5702
  0
VERTEX
  8
LAYER10
 62
     1
  6
CONTINUOUS
 10
2.6166
 20
3.5709
  0
VERTEX
  8
LAYER10
 62
     1
  6
CONTINUOUS
 10
2.6153
 20
3.5716
  0
VERTEX
  8
LAYER10
 62
     1
  6
CONTINUOUS
 10
2.6140
 20
3.5724
  0
VERTEX
  8
LAYER10
 62
     1
  6
CONTINUOUS
 10
2.6128
 20
3.5733
  0
VERTEX
  8
LAYER10
 62
     1
  6
CONTINUOUS
 10
2.6116
 20
3.5742
  0
VERTEX
  8
LAYER10
 62
     1
  6
CONTINUOUS
 10
2.6104
 20
3.5752
  0
VERTEX
  8
LAYER10
 62
     1
  6
CONTINUOUS
 10
2.6091
 20
3.5762
  0
VERTEX
  8
LAYER10
 62
     1
  6
CONTINUOUS
 10
2.6079
 20
3.5771
  0
VERTEX
  8
LAYER10
 62
     1
  6
CONTINUOUS
 10
2.6067
 20
3.5781
  0
VERTEX
  8
LAYER10
 62
     1
  6
CONTINUOUS
 10
2.6054
 20
3.5790
  0
VERTEX
  8
LAYER10
 62
     1
  6
CONTINUOUS
 10
2.6036
 20
3.5803
  0
VERTEX
  8
LAYER10
 62
     1
  6
CONTINUOUS
 10
2.6019
 20
3.5815
  0
VERTEX
  8
LAYER10
 62
     1
  6
CONTINUOUS
 10
2.6000
 20
3.5827
  0
VERTEX
  8
LAYER10
 62
     1
  6
CONTINUOUS
 10
2.5982
 20
3.5838
  0
VERTEX
  8
LAYER10
 62
     1
  6
CONTINUOUS
 10
2.5964
 20
3.5850
  0
VERTEX
  8
LAYER10
 62
     1
  6
CONTINUOUS
 10
2.5947
 20
3.5861
  0
VERTEX
  8
LAYER10
 62
     1
  6
CONTINUOUS
 10
2.5929
 20
3.5873
  0
VERTEX
  8
LAYER10
 62
     1
  6
CONTINUOUS
 10
2.5912
 20
3.5885
  0
VERTEX
  8
LAYER10
 62
     1
  6
CONTINUOUS
 10
2.5896
 20
3.5897
  0
VERTEX
  8
LAYER10
 62
     1
  6
CONTINUOUS
 10
2.5880
 20
3.5910
  0
VERTEX
  8
LAYER10
 62
     1
  6
CONTINUOUS
 10
2.5866
 20
3.5924
  0
VERTEX
  8
LAYER10
 62
     1
  6
CONTINUOUS
 10
2.5852
 20
3.5939
  0
VERTEX
  8
LAYER10
 62
     1
  6
CONTINUOUS
 10
2.5840
 20
3.5954
  0
VERTEX
  8
LAYER10
 62
     1
  6
CONTINUOUS
 10
2.5830
 20
3.5969
  0
VERTEX
  8
LAYER10
 62
     1
  6
CONTINUOUS
 10
2.5820
 20
3.5984
  0
VERTEX
  8
LAYER10
 62
     1
  6
CONTINUOUS
 10
2.5810
 20
3.6000
  0
VERTEX
  8
LAYER10
 62
     1
  6
CONTINUOUS
 10
2.5802
 20
3.6017
  0
VERTEX
  8
LAYER10
 62
     1
  6
CONTINUOUS
 10
2.5793
 20
3.6034
  0
VERTEX
  8
LAYER10
 62
     1
  6
CONTINUOUS
 10
2.5786
 20
3.6052
  0
VERTEX
  8
LAYER10
 62
     1
  6
CONTINUOUS
 10
2.5778
 20
3.6069
  0
VERTEX
  8
LAYER10
 62
     1
  6
CONTINUOUS
 10
2.5771
 20
3.6087
  0
VERTEX
  8
LAYER10
 62
     1
  6
CONTINUOUS
 10
2.5764
 20
3.6104
  0
VERTEX
  8
LAYER10
 62
     1
  6
CONTINUOUS
 10
2.5756
 20
3.6122
  0
VERTEX
  8
LAYER10
 62
     1
  6
CONTINUOUS
 10
2.5749
 20
3.6139
  0
VERTEX
  8
LAYER10
 62
     1
  6
CONTINUOUS
 10
2.5736
 20
3.6170
  0
VERTEX
  8
LAYER10
 62
     1
  6
CONTINUOUS
 10
2.5723
 20
3.6201
  0
VERTEX
  8
LAYER10
 62
     1
  6
CONTINUOUS
 10
2.5710
 20
3.6231
  0
VERTEX
  8
LAYER10
 62
     1
  6
CONTINUOUS
 10
2.5698
 20
3.6261
  0
VERTEX
  8
LAYER10
 62
     1
  6
CONTINUOUS
 10
2.5686
 20
3.6291
  0
VERTEX
  8
LAYER10
 62
     1
  6
CONTINUOUS
 10
2.5675
 20
3.6322
  0
VERTEX
  8
LAYER10
 62
     1
  6
CONTINUOUS
 10
2.5666
 20
3.6354
  0
VERTEX
  8
LAYER10
 62
     1
  6
CONTINUOUS
 10
2.5658
 20
3.6387
  0
VERTEX
  8
LAYER10
 62
     1
  6
CONTINUOUS
 10
2.5651
 20
3.6422
  0
VERTEX
  8
LAYER10
 62
     1
  6
CONTINUOUS
 10
2.5647
 20
3.6459
  0
VERTEX
  8
LAYER10
 62
     1
  6
CONTINUOUS
 10
2.5645
 20
3.6498
  0
VERTEX
  8
LAYER10
 62
     1
  6
CONTINUOUS
 10
2.5645
 20
3.6540
  0
VERTEX
  8
LAYER10
 62
     1
  6
CONTINUOUS
 10
2.5647
 20
3.6573
  0
VERTEX
  8
LAYER10
 62
     1
  6
CONTINUOUS
 10
2.5650
 20
3.6606
  0
VERTEX
  8
LAYER10
 62
     1
  6
CONTINUOUS
 10
2.5654
 20
3.6640
  0
VERTEX
  8
LAYER10
 62
     1
  6
CONTINUOUS
 10
2.5659
 20
3.6673
  0
VERTEX
  8
LAYER10
 62
     1
  6
CONTINUOUS
 10
2.5664
 20
3.6706
  0
VERTEX
  8
LAYER10
 62
     1
  6
CONTINUOUS
 10
2.5670
 20
3.6736
  0
VERTEX
  8
LAYER10
 62
     1
  6
CONTINUOUS
 10
2.5675
 20
3.6764
  0
VERTEX
  8
LAYER10
 62
     1
  6
CONTINUOUS
 10
2.5680
 20
3.6789
  0
VERTEX
  8
LAYER10
 62
     1
  6
CONTINUOUS
 10
2.5685
 20
3.6809
  0
VERTEX
  8
LAYER10
 62
     1
  6
CONTINUOUS
 10
2.5689
 20
3.6826
  0
VERTEX
  8
LAYER10
 62
     1
  6
CONTINUOUS
 10
2.5691
 20
3.6837
  0
VERTEX
  8
LAYER10
 62
     1
  6
CONTINUOUS
 10
2.5693
 20
3.6842
  0
VERTEX
  8
LAYER10
 62
     1
  6
CONTINUOUS
 10
2.5693
 20
3.6842
  0
VERTEX
  8
LAYER10
 62
     1
  6
CONTINUOUS
 10
2.5693
 20
3.6842
  0
VERTEX
  8
LAYER10
 62
     1
  6
CONTINUOUS
 10
2.5693
 20
3.6842
  0
VERTEX
  8
LAYER10
 62
     1
  6
CONTINUOUS
 10
2.5693
 20
3.6842
  0
VERTEX
  8
LAYER10
 62
     1
  6
CONTINUOUS
 10
2.5693
 20
3.6842
  0
VERTEX
  8
LAYER10
 62
     1
  6
CONTINUOUS
 10
2.5693
 20
3.6842
  0
VERTEX
  8
LAYER10
 62
     1
  6
CONTINUOUS
 10
2.5693
 20
3.6842
  0
VERTEX
  8
LAYER10
 62
     1
  6
CONTINUOUS
 10
2.5693
 20
3.6842
  0
VERTEX
  8
LAYER10
 62
     1
  6
CONTINUOUS
 10
2.5692
 20
3.6842
  0
VERTEX
  8
LAYER10
 62
     1
  6
CONTINUOUS
 10
2.5692
 20
3.6842
  0
VERTEX
  8
LAYER10
 62
     1
  6
CONTINUOUS
 10
2.5692
 20
3.6842
  0
VERTEX
  8
LAYER10
 62
     1
  6
CONTINUOUS
 10
2.5693
 20
3.6842
  0
VERTEX
  8
LAYER10
 62
     1
  6
CONTINUOUS
 10
2.5694
 20
3.6847
  0
VERTEX
  8
LAYER10
 62
     1
  6
CONTINUOUS
 10
2.5696
 20
3.6859
  0
VERTEX
  8
LAYER10
 62
     1
  6
CONTINUOUS
 10
2.5700
 20
3.6877
  0
VERTEX
  8
LAYER10
 62
     1
  6
CONTINUOUS
 10
2.5706
 20
3.6899
  0
VERTEX
  8
LAYER10
 62
     1
  6
CONTINUOUS
 10
2.5712
 20
3.6925
  0
VERTEX
  8
LAYER10
 62
     1
  6
CONTINUOUS
 10
2.5720
 20
3.6954
  0
VERTEX
  8
LAYER10
 62
     1
  6
CONTINUOUS
 10
2.5729
 20
3.6985
  0
VERTEX
  8
LAYER10
 62
     1
  6
CONTINUOUS
 10
2.5740
 20
3.7017
  0
VERTEX
  8
LAYER10
 62
     1
  6
CONTINUOUS
 10
2.5751
 20
3.7050
  0
VERTEX
  8
LAYER10
 62
     1
  6
CONTINUOUS
 10
2.5763
 20
3.7083
  0
VERTEX
  8
LAYER10
 62
     1
  6
CONTINUOUS
 10
2.5776
 20
3.7115
  0
VERTEX
  8
LAYER10
 62
     1
  6
CONTINUOUS
 10
2.5790
 20
3.7144
  0
VERTEX
  8
LAYER10
 62
     1
  6
CONTINUOUS
 10
2.5802
 20
3.7166
  0
VERTEX
  8
LAYER10
 62
     1
  6
CONTINUOUS
 10
2.5814
 20
3.7186
  0
VERTEX
  8
LAYER10
 62
     1
  6
CONTINUOUS
 10
2.5826
 20
3.7205
  0
VERTEX
  8
LAYER10
 62
     1
  6
CONTINUOUS
 10
2.5839
 20
3.7222
  0
VERTEX
  8
LAYER10
 62
     1
  6
CONTINUOUS
 10
2.5852
 20
3.7239
  0
VERTEX
  8
LAYER10
 62
     1
  6
CONTINUOUS
 10
2.5865
 20
3.7255
  0
VERTEX
  8
LAYER10
 62
     1
  6
CONTINUOUS
 10
2.5877
 20
3.7270
  0
VERTEX
  8
LAYER10
 62
     1
  6
CONTINUOUS
 10
2.5890
 20
3.7285
  0
VERTEX
  8
LAYER10
 62
     1
  6
CONTINUOUS
 10
2.5903
 20
3.7300
  0
VERTEX
  8
LAYER10
 62
     1
  6
CONTINUOUS
 10
2.5915
 20
3.7315
  0
VERTEX
  8
LAYER10
 62
     1
  6
CONTINUOUS
 10
2.5927
 20
3.7331
  0
VERTEX
  8
LAYER10
 62
     1
  6
CONTINUOUS
 10
2.5939
 20
3.7347
  0
VERTEX
  8
LAYER10
 62
     1
  6
CONTINUOUS
 10
2.5952
 20
3.7366
  0
VERTEX
  8
LAYER10
 62
     1
  6
CONTINUOUS
 10
2.5964
 20
3.7386
  0
VERTEX
  8
LAYER10
 62
     1
  6
CONTINUOUS
 10
2.5976
 20
3.7406
  0
VERTEX
  8
LAYER10
 62
     1
  6
CONTINUOUS
 10
2.5988
 20
3.7428
  0
VERTEX
  8
LAYER10
 62
     1
  6
CONTINUOUS
 10
2.5999
 20
3.7449
  0
VERTEX
  8
LAYER10
 62
     1
  6
CONTINUOUS
 10
2.6011
 20
3.7471
  0
VERTEX
  8
LAYER10
 62
     1
  6
CONTINUOUS
 10
2.6022
 20
3.7493
  0
VERTEX
  8
LAYER10
 62
     1
  6
CONTINUOUS
 10
2.6034
 20
3.7515
  0
VERTEX
  8
LAYER10
 62
     1
  6
CONTINUOUS
 10
2.6046
 20
3.7536
  0
VERTEX
  8
LAYER10
 62
     1
  6
CONTINUOUS
 10
2.6059
 20
3.7558
  0
VERTEX
  8
LAYER10
 62
     1
  6
CONTINUOUS
 10
2.6073
 20
3.7579
  0
VERTEX
  8
LAYER10
 62
     1
  6
CONTINUOUS
 10
2.6087
 20
3.7599
  0
VERTEX
  8
LAYER10
 62
     1
  6
CONTINUOUS
 10
2.6104
 20
3.7621
  0
VERTEX
  8
LAYER10
 62
     1
  6
CONTINUOUS
 10
2.6122
 20
3.7641
  0
VERTEX
  8
LAYER10
 62
     1
  6
CONTINUOUS
 10
2.6141
 20
3.7661
  0
VERTEX
  8
LAYER10
 62
     1
  6
CONTINUOUS
 10
2.6160
 20
3.7680
  0
VERTEX
  8
LAYER10
 62
     1
  6
CONTINUOUS
 10
2.6181
 20
3.7699
  0
VERTEX
  8
LAYER10
 62
     1
  6
CONTINUOUS
 10
2.6202
 20
3.7716
  0
VERTEX
  8
LAYER10
 62
     1
  6
CONTINUOUS
 10
2.6224
 20
3.7732
  0
VERTEX
  8
LAYER10
 62
     1
  6
CONTINUOUS
 10
2.6246
 20
3.7748
  0
VERTEX
  8
LAYER10
 62
     1
  6
CONTINUOUS
 10
2.6268
 20
3.7763
  0
VERTEX
  8
LAYER10
 62
     1
  6
CONTINUOUS
 10
2.6291
 20
3.7777
  0
SEQEND
  8
LAYER10
  0
POLYLINE
  8
LAYER10
 62
     1
 66
     1
  6
CONTINUOUS
  0
VERTEX
  8
LAYER10
 62
     1
  6
CONTINUOUS
 10
2.6291
 20
3.7777
  0
VERTEX
  8
LAYER10
 62
     1
  6
CONTINUOUS
 10
2.6314
 20
3.7790
  0
VERTEX
  8
LAYER10
 62
     1
  6
CONTINUOUS
 10
2.6336
 20
3.7803
  0
VERTEX
  8
LAYER10
 62
     1
  6
CONTINUOUS
 10
2.6348
 20
3.7808
  0
VERTEX
  8
LAYER10
 62
     1
  6
CONTINUOUS
 10
2.6359
 20
3.7814
  0
VERTEX
  8
LAYER10
 62
     1
  6
CONTINUOUS
 10
2.6370
 20
3.7819
  0
VERTEX
  8
LAYER10
 62
     1
  6
CONTINUOUS
 10
2.6382
 20
3.7824
  0
VERTEX
  8
LAYER10
 62
     1
  6
CONTINUOUS
 10
2.6394
 20
3.7829
  0
VERTEX
  8
LAYER10
 62
     1
  6
CONTINUOUS
 10
2.6406
 20
3.7834
  0
VERTEX
  8
LAYER10
 62
     1
  6
CONTINUOUS
 10
2.6418
 20
3.7838
  0
VERTEX
  8
LAYER10
 62
     1
  6
CONTINUOUS
 10
2.6431
 20
3.7842
  0
VERTEX
  8
LAYER10
 62
     1
  6
CONTINUOUS
 10
2.6444
 20
3.7845
  0
VERTEX
  8
LAYER10
 62
     1
  6
CONTINUOUS
 10
2.6458
 20
3.7849
  0
VERTEX
  8
LAYER10
 62
     1
  6
CONTINUOUS
 10
2.6472
 20
3.7852
  0
VERTEX
  8
LAYER10
 62
     1
  6
CONTINUOUS
 10
2.6487
 20
3.7854
  0
VERTEX
  8
LAYER10
 62
     1
  6
CONTINUOUS
 10
2.6517
 20
3.7858
  0
VERTEX
  8
LAYER10
 62
     1
  6
CONTINUOUS
 10
2.6548
 20
3.7860
  0
VERTEX
  8
LAYER10
 62
     1
  6
CONTINUOUS
 10
2.6581
 20
3.7862
  0
VERTEX
  8
LAYER10
 62
     1
  6
CONTINUOUS
 10
2.6613
 20
3.7862
  0
VERTEX
  8
LAYER10
 62
     1
  6
CONTINUOUS
 10
2.6645
 20
3.7862
  0
VERTEX
  8
LAYER10
 62
     1
  6
CONTINUOUS
 10
2.6676
 20
3.7862
  0
VERTEX
  8
LAYER10
 62
     1
  6
CONTINUOUS
 10
2.6704
 20
3.7861
  0
VERTEX
  8
LAYER10
 62
     1
  6
CONTINUOUS
 10
2.6730
 20
3.7860
  0
VERTEX
  8
LAYER10
 62
     1
  6
CONTINUOUS
 10
2.6752
 20
3.7858
  0
VERTEX
  8
LAYER10
 62
     1
  6
CONTINUOUS
 10
2.6769
 20
3.7858
  0
VERTEX
  8
LAYER10
 62
     1
  6
CONTINUOUS
 10
2.6782
 20
3.7857
  0
VERTEX
  8
LAYER10
 62
     1
  6
CONTINUOUS
 10
2.6788
 20
3.7857
  0
VERTEX
  8
LAYER10
 62
     1
  6
CONTINUOUS
 10
2.6788
 20
3.7857
  0
VERTEX
  8
LAYER10
 62
     1
  6
CONTINUOUS
 10
2.6789
 20
3.7857
  0
VERTEX
  8
LAYER10
 62
     1
  6
CONTINUOUS
 10
2.6789
 20
3.7857
  0
VERTEX
  8
LAYER10
 62
     1
  6
CONTINUOUS
 10
2.6789
 20
3.7857
  0
VERTEX
  8
LAYER10
 62
     1
  6
CONTINUOUS
 10
2.6789
 20
3.7857
  0
VERTEX
  8
LAYER10
 62
     1
  6
CONTINUOUS
 10
2.6789
 20
3.7857
  0
VERTEX
  8
LAYER10
 62
     1
  6
CONTINUOUS
 10
2.6789
 20
3.7858
  0
VERTEX
  8
LAYER10
 62
     1
  6
CONTINUOUS
 10
2.6789
 20
3.7858
  0
VERTEX
  8
LAYER10
 62
     1
  6
CONTINUOUS
 10
2.6788
 20
3.7857
  0
VERTEX
  8
LAYER10
 62
     1
  6
CONTINUOUS
 10
2.6788
 20
3.7857
  0
VERTEX
  8
LAYER10
 62
     1
  6
CONTINUOUS
 10
2.6788
 20
3.7857
  0
VERTEX
  8
LAYER10
 62
     1
  6
CONTINUOUS
 10
2.6788
 20
3.7857
  0
SEQEND
  8
LAYER10
  0
POLYLINE
  8
LAYER10
 62
     1
 66
     1
  6
CONTINUOUS
  0
VERTEX
  8
LAYER10
 62
     1
  6
CONTINUOUS
 10
2.0889
 20
4.0162
  0
VERTEX
  8
LAYER10
 62
     1
  6
CONTINUOUS
 10
2.0908
 20
4.0156
  0
VERTEX
  8
LAYER10
 62
     1
  6
CONTINUOUS
 10
2.0926
 20
4.0150
  0
VERTEX
  8
LAYER10
 62
     1
  6
CONTINUOUS
 10
2.0945
 20
4.0143
  0
VERTEX
  8
LAYER10
 62
     1
  6
CONTINUOUS
 10
2.0963
 20
4.0137
  0
VERTEX
  8
LAYER10
 62
     1
  6
CONTINUOUS
 10
2.0981
 20
4.0130
  0
VERTEX
  8
LAYER10
 62
     1
  6
CONTINUOUS
 10
2.0999
 20
4.0122
  0
VERTEX
  8
LAYER10
 62
     1
  6
CONTINUOUS
 10
2.1016
 20
4.0114
  0
VERTEX
  8
LAYER10
 62
     1
  6
CONTINUOUS
 10
2.1032
 20
4.0106
  0
VERTEX
  8
LAYER10
 62
     1
  6
CONTINUOUS
 10
2.1048
 20
4.0096
  0
VERTEX
  8
LAYER10
 62
     1
  6
CONTINUOUS
 10
2.1063
 20
4.0086
  0
VERTEX
  8
LAYER10
 62
     1
  6
CONTINUOUS
 10
2.1077
 20
4.0075
  0
VERTEX
  8
LAYER10
 62
     1
  6
CONTINUOUS
 10
2.1091
 20
4.0063
  0
VERTEX
  8
LAYER10
 62
     1
  6
CONTINUOUS
 10
2.1103
 20
4.0050
  0
VERTEX
  8
LAYER10
 62
     1
  6
CONTINUOUS
 10
2.1114
 20
4.0036
  0
VERTEX
  8
LAYER10
 62
     1
  6
CONTINUOUS
 10
2.1125
 20
4.0022
  0
VERTEX
  8
LAYER10
 62
     1
  6
CONTINUOUS
 10
2.1135
 20
4.0006
  0
VERTEX
  8
LAYER10
 62
     1
  6
CONTINUOUS
 10
2.1144
 20
3.9990
  0
VERTEX
  8
LAYER10
 62
     1
  6
CONTINUOUS
 10
2.1152
 20
3.9973
  0
VERTEX
  8
LAYER10
 62
     1
  6
CONTINUOUS
 10
2.1160
 20
3.9955
  0
VERTEX
  8
LAYER10
 62
     1
  6
CONTINUOUS
 10
2.1167
 20
3.9937
  0
VERTEX
  8
LAYER10
 62
     1
  6
CONTINUOUS
 10
2.1174
 20
3.9919
  0
VERTEX
  8
LAYER10
 62
     1
  6
CONTINUOUS
 10
2.1181
 20
3.9901
  0
VERTEX
  8
LAYER10
 62
     1
  6
CONTINUOUS
 10
2.1187
 20
3.9882
  0
VERTEX
  8
LAYER10
 62
     1
  6
CONTINUOUS
 10
2.1193
 20
3.9863
  0
VERTEX
  8
LAYER10
 62
     1
  6
CONTINUOUS
 10
2.1201
 20
3.9838
  0
VERTEX
  8
LAYER10
 62
     1
  6
CONTINUOUS
 10
2.1208
 20
3.9813
  0
VERTEX
  8
LAYER10
 62
     1
  6
CONTINUOUS
 10
2.1216
 20
3.9788
  0
VERTEX
  8
LAYER10
 62
     1
  6
CONTINUOUS
 10
2.1222
 20
3.9762
  0
VERTEX
  8
LAYER10
 62
     1
  6
CONTINUOUS
 10
2.1228
 20
3.9737
  0
VERTEX
  8
LAYER10
 62
     1
  6
CONTINUOUS
 10
2.1233
 20
3.9712
  0
VERTEX
  8
LAYER10
 62
     1
  6
CONTINUOUS
 10
2.1238
 20
3.9687
  0
VERTEX
  8
LAYER10
 62
     1
  6
CONTINUOUS
 10
2.1241
 20
3.9662
  0
VERTEX
  8
LAYER10
 62
     1
  6
CONTINUOUS
 10
2.1244
 20
3.9637
  0
VERTEX
  8
LAYER10
 62
     1
  6
CONTINUOUS
 10
2.1246
 20
3.9612
  0
VERTEX
  8
LAYER10
 62
     1
  6
CONTINUOUS
 10
2.1247
 20
3.9587
  0
VERTEX
  8
LAYER10
 62
     1
  6
CONTINUOUS
 10
2.1246
 20
3.9562
  0
VERTEX
  8
LAYER10
 62
     1
  6
CONTINUOUS
 10
2.1245
 20
3.9542
  0
VERTEX
  8
LAYER10
 62
     1
  6
CONTINUOUS
 10
2.1243
 20
3.9521
  0
VERTEX
  8
LAYER10
 62
     1
  6
CONTINUOUS
 10
2.1240
 20
3.9500
  0
VERTEX
  8
LAYER10
 62
     1
  6
CONTINUOUS
 10
2.1236
 20
3.9479
  0
VERTEX
  8
LAYER10
 62
     1
  6
CONTINUOUS
 10
2.1232
 20
3.9458
  0
VERTEX
  8
LAYER10
 62
     1
  6
CONTINUOUS
 10
2.1228
 20
3.9437
  0
VERTEX
  8
LAYER10
 62
     1
  6
CONTINUOUS
 10
2.1223
 20
3.9416
  0
VERTEX
  8
LAYER10
 62
     1
  6
CONTINUOUS
 10
2.1218
 20
3.9395
  0
VERTEX
  8
LAYER10
 62
     1
  6
CONTINUOUS
 10
2.1213
 20
3.9374
  0
VERTEX
  8
LAYER10
 62
     1
  6
CONTINUOUS
 10
2.1208
 20
3.9353
  0
VERTEX
  8
LAYER10
 62
     1
  6
CONTINUOUS
 10
2.1203
 20
3.9332
  0
VERTEX
  8
LAYER10
 62
     1
  6
CONTINUOUS
 10
2.1198
 20
3.9311
  0
VERTEX
  8
LAYER10
 62
     1
  6
CONTINUOUS
 10
2.1191
 20
3.9277
  0
VERTEX
  8
LAYER10
 62
     1
  6
CONTINUOUS
 10
2.1183
 20
3.9243
  0
VERTEX
  8
LAYER10
 62
     1
  6
CONTINUOUS
 10
2.1177
 20
3.9208
  0
VERTEX
  8
LAYER10
 62
     1
  6
CONTINUOUS
 10
2.1170
 20
3.9174
  0
VERTEX
  8
LAYER10
 62
     1
  6
CONTINUOUS
 10
2.1163
 20
3.9140
  0
VERTEX
  8
LAYER10
 62
     1
  6
CONTINUOUS
 10
2.1156
 20
3.9106
  0
VERTEX
  8
LAYER10
 62
     1
  6
CONTINUOUS
 10
2.1148
 20
3.9073
  0
VERTEX
  8
LAYER10
 62
     1
  6
CONTINUOUS
 10
2.1141
 20
3.9039
  0
VERTEX
  8
LAYER10
 62
     1
  6
CONTINUOUS
 10
2.1132
 20
3.9006
  0
VERTEX
  8
LAYER10
 62
     1
  6
CONTINUOUS
 10
2.1123
 20
3.8973
  0
VERTEX
  8
LAYER10
 62
     1
  6
CONTINUOUS
 10
2.1113
 20
3.8940
  0
VERTEX
  8
LAYER10
 62
     1
  6
CONTINUOUS
 10
2.1102
 20
3.8908
  0
VERTEX
  8
LAYER10
 62
     1
  6
CONTINUOUS
 10
2.1094
 20
3.8887
  0
VERTEX
  8
LAYER10
 62
     1
  6
CONTINUOUS
 10
2.1085
 20
3.8866
  0
VERTEX
  8
LAYER10
 62
     1
  6
CONTINUOUS
 10
2.1077
 20
3.8846
  0
VERTEX
  8
LAYER10
 62
     1
  6
CONTINUOUS
 10
2.1068
 20
3.8825
  0
VERTEX
  8
LAYER10
 62
     1
  6
CONTINUOUS
 10
2.1059
 20
3.8805
  0
VERTEX
  8
LAYER10
 62
     1
  6
CONTINUOUS
 10
2.1050
 20
3.8784
  0
VERTEX
  8
LAYER10
 62
     1
  6
CONTINUOUS
 10
2.1041
 20
3.8763
  0
VERTEX
  8
LAYER10
 62
     1
  6
CONTINUOUS
 10
2.1033
 20
3.8742
  0
VERTEX
  8
LAYER10
 62
     1
  6
CONTINUOUS
 10
2.1025
 20
3.8721
  0
VERTEX
  8
LAYER10
 62
     1
  6
CONTINUOUS
 10
2.1017
 20
3.8700
  0
VERTEX
  8
LAYER10
 62
     1
  6
CONTINUOUS
 10
2.1010
 20
3.8678
  0
VERTEX
  8
LAYER10
 62
     1
  6
CONTINUOUS
 10
2.1004
 20
3.8656
  0
VERTEX
  8
LAYER10
 62
     1
  6
CONTINUOUS
 10
2.0999
 20
3.8639
  0
VERTEX
  8
LAYER10
 62
     1
  6
CONTINUOUS
 10
2.0996
 20
3.8622
  0
VERTEX
  8
LAYER10
 62
     1
  6
CONTINUOUS
 10
2.0993
 20
3.8605
  0
VERTEX
  8
LAYER10
 62
     1
  6
CONTINUOUS
 10
2.0990
 20
3.8588
  0
VERTEX
  8
LAYER10
 62
     1
  6
CONTINUOUS
 10
2.0989
 20
3.8571
  0
VERTEX
  8
LAYER10
 62
     1
  6
CONTINUOUS
 10
2.0988
 20
3.8554
  0
VERTEX
  8
LAYER10
 62
     1
  6
CONTINUOUS
 10
2.0988
 20
3.8537
  0
VERTEX
  8
LAYER10
 62
     1
  6
CONTINUOUS
 10
2.0989
 20
3.8520
  0
VERTEX
  8
LAYER10
 62
     1
  6
CONTINUOUS
 10
2.0991
 20
3.8504
  0
VERTEX
  8
LAYER10
 62
     1
  6
CONTINUOUS
 10
2.0995
 20
3.8487
  0
VERTEX
  8
LAYER10
 62
     1
  6
CONTINUOUS
 10
2.1000
 20
3.8471
  0
VERTEX
  8
LAYER10
 62
     1
  6
CONTINUOUS
 10
2.1006
 20
3.8455
  0
VERTEX
  8
LAYER10
 62
     1
  6
CONTINUOUS
 10
2.1017
 20
3.8432
  0
VERTEX
  8
LAYER10
 62
     1
  6
CONTINUOUS
 10
2.1030
 20
3.8410
  0
VERTEX
  8
LAYER10
 62
     1
  6
CONTINUOUS
 10
2.1045
 20
3.8389
  0
VERTEX
  8
LAYER10
 62
     1
  6
CONTINUOUS
 10
2.1062
 20
3.8368
  0
VERTEX
  8
LAYER10
 62
     1
  6
CONTINUOUS
 10
2.1079
 20
3.8348
  0
VERTEX
  8
LAYER10
 62
     1
  6
CONTINUOUS
 10
2.1096
 20
3.8327
  0
VERTEX
  8
LAYER10
 62
     1
  6
CONTINUOUS
 10
2.1112
 20
3.8307
  0
VERTEX
  8
LAYER10
 62
     1
  6
CONTINUOUS
 10
2.1126
 20
3.8287
  0
VERTEX
  8
LAYER10
 62
     1
  6
CONTINUOUS
 10
2.1139
 20
3.8267
  0
VERTEX
  8
LAYER10
 62
     1
  6
CONTINUOUS
 10
2.1149
 20
3.8247
  0
VERTEX
  8
LAYER10
 62
     1
  6
CONTINUOUS
 10
2.1156
 20
3.8226
  0
VERTEX
  8
LAYER10
 62
     1
  6
CONTINUOUS
 10
2.1159
 20
3.8205
  0
VERTEX
  8
LAYER10
 62
     1
  6
CONTINUOUS
 10
2.1158
 20
3.8194
  0
VERTEX
  8
LAYER10
 62
     1
  6
CONTINUOUS
 10
2.1157
 20
3.8182
  0
VERTEX
  8
LAYER10
 62
     1
  6
CONTINUOUS
 10
2.1155
 20
3.8170
  0
VERTEX
  8
LAYER10
 62
     1
  6
CONTINUOUS
 10
2.1151
 20
3.8158
  0
VERTEX
  8
LAYER10
 62
     1
  6
CONTINUOUS
 10
2.1147
 20
3.8146
  0
VERTEX
  8
LAYER10
 62
     1
  6
CONTINUOUS
 10
2.1142
 20
3.8134
  0
VERTEX
  8
LAYER10
 62
     1
  6
CONTINUOUS
 10
2.1137
 20
3.8121
  0
VERTEX
  8
LAYER10
 62
     1
  6
CONTINUOUS
 10
2.1132
 20
3.8108
  0
VERTEX
  8
LAYER10
 62
     1
  6
CONTINUOUS
 10
2.1126
 20
3.8095
  0
VERTEX
  8
LAYER10
 62
     1
  6
CONTINUOUS
 10
2.1121
 20
3.8082
  0
VERTEX
  8
LAYER10
 62
     1
  6
CONTINUOUS
 10
2.1115
 20
3.8068
  0
VERTEX
  8
LAYER10
 62
     1
  6
CONTINUOUS
 10
2.1110
 20
3.8054
  0
VERTEX
  8
LAYER10
 62
     1
  6
CONTINUOUS
 10
2.1097
 20
3.8015
  0
VERTEX
  8
LAYER10
 62
     1
  6
CONTINUOUS
 10
2.1087
 20
3.7974
  0
VERTEX
  8
LAYER10
 62
     1
  6
CONTINUOUS
 10
2.1079
 20
3.7932
  0
VERTEX
  8
LAYER10
 62
     1
  6
CONTINUOUS
 10
2.1071
 20
3.7891
  0
VERTEX
  8
LAYER10
 62
     1
  6
CONTINUOUS
 10
2.1063
 20
3.7850
  0
VERTEX
  8
LAYER10
 62
     1
  6
CONTINUOUS
 10
2.1056
 20
3.7811
  0
VERTEX
  8
LAYER10
 62
     1
  6
CONTINUOUS
 10
2.1047
 20
3.7774
  0
VERTEX
  8
LAYER10
 62
     1
  6
CONTINUOUS
 10
2.1036
 20
3.7740
  0
VERTEX
  8
LAYER10
 62
     1
  6
CONTINUOUS
 10
2.1023
 20
3.7710
  0
VERTEX
  8
LAYER10
 62
     1
  6
CONTINUOUS
 10
2.1007
 20
3.7684
  0
VERTEX
  8
LAYER10
 62
     1
  6
CONTINUOUS
 10
2.0987
 20
3.7665
  0
VERTEX
  8
LAYER10
 62
     1
  6
CONTINUOUS
 10
2.0963
 20
3.7651
  0
VERTEX
  8
LAYER10
 62
     1
  6
CONTINUOUS
 10
2.0946
 20
3.7646
  0
VERTEX
  8
LAYER10
 62
     1
  6
CONTINUOUS
 10
2.0929
 20
3.7643
  0
VERTEX
  8
LAYER10
 62
     1
  6
CONTINUOUS
 10
2.0909
 20
3.7642
  0
VERTEX
  8
LAYER10
 62
     1
  6
CONTINUOUS
 10
2.0889
 20
3.7642
  0
VERTEX
  8
LAYER10
 62
     1
  6
CONTINUOUS
 10
2.0868
 20
3.7643
  0
VERTEX
  8
LAYER10
 62
     1
  6
CONTINUOUS
 10
2.0846
 20
3.7645
  0
VERTEX
  8
LAYER10
 62
     1
  6
CONTINUOUS
 10
2.0823
 20
3.7647
  0
VERTEX
  8
LAYER10
 62
     1
  6
CONTINUOUS
 10
2.0801
 20
3.7649
  0
VERTEX
  8
LAYER10
 62
     1
  6
CONTINUOUS
 10
2.0778
 20
3.7650
  0
VERTEX
  8
LAYER10
 62
     1
  6
CONTINUOUS
 10
2.0756
 20
3.7651
  0
VERTEX
  8
LAYER10
 62
     1
  6
CONTINUOUS
 10
2.0733
 20
3.7651
  0
VERTEX
  8
LAYER10
 62
     1
  6
CONTINUOUS
 10
2.0712
 20
3.7649
  0
VERTEX
  8
LAYER10
 62
     1
  6
CONTINUOUS
 10
2.0691
 20
3.7645
  0
VERTEX
  8
LAYER10
 62
     1
  6
CONTINUOUS
 10
2.0670
 20
3.7639
  0
VERTEX
  8
LAYER10
 62
     1
  6
CONTINUOUS
 10
2.0651
 20
3.7632
  0
VERTEX
  8
LAYER10
 62
     1
  6
CONTINUOUS
 10
2.0631
 20
3.7623
  0
VERTEX
  8
LAYER10
 62
     1
  6
CONTINUOUS
 10
2.0613
 20
3.7613
  0
VERTEX
  8
LAYER10
 62
     1
  6
CONTINUOUS
 10
2.0595
 20
3.7602
  0
VERTEX
  8
LAYER10
 62
     1
  6
CONTINUOUS
 10
2.0577
 20
3.7590
  0
VERTEX
  8
LAYER10
 62
     1
  6
CONTINUOUS
 10
2.0560
 20
3.7577
  0
VERTEX
  8
LAYER10
 62
     1
  6
CONTINUOUS
 10
2.0543
 20
3.7563
  0
VERTEX
  8
LAYER10
 62
     1
  6
CONTINUOUS
 10
2.0526
 20
3.7549
  0
VERTEX
  8
LAYER10
 62
     1
  6
CONTINUOUS
 10
2.0509
 20
3.7535
  0
VERTEX
  8
LAYER10
 62
     1
  6
CONTINUOUS
 10
2.0492
 20
3.7520
  0
SEQEND
  8
LAYER10
  0
POLYLINE
  8
LAYER10
 62
     1
 66
     1
  6
CONTINUOUS
  0
VERTEX
  8
LAYER10
 62
     1
  6
CONTINUOUS
 10
2.0492
 20
4.0077
  0
VERTEX
  8
LAYER10
 62
     1
  6
CONTINUOUS
 10
2.0500
 20
4.0080
  0
VERTEX
  8
LAYER10
 62
     1
  6
CONTINUOUS
 10
2.0508
 20
4.0083
  0
VERTEX
  8
LAYER10
 62
     1
  6
CONTINUOUS
 10
2.0516
 20
4.0085
  0
VERTEX
  8
LAYER10
 62
     1
  6
CONTINUOUS
 10
2.0524
 20
4.0088
  0
VERTEX
  8
LAYER10
 62
     1
  6
CONTINUOUS
 10
2.0532
 20
4.0091
  0
VERTEX
  8
LAYER10
 62
     1
  6
CONTINUOUS
 10
2.0540
 20
4.0094
  0
VERTEX
  8
LAYER10
 62
     1
  6
CONTINUOUS
 10
2.0548
 20
4.0096
  0
VERTEX
  8
LAYER10
 62
     1
  6
CONTINUOUS
 10
2.0556
 20
4.0099
  0
VERTEX
  8
LAYER10
 62
     1
  6
CONTINUOUS
 10
2.0564
 20
4.0101
  0
VERTEX
  8
LAYER10
 62
     1
  6
CONTINUOUS
 10
2.0572
 20
4.0104
  0
VERTEX
  8
LAYER10
 62
     1
  6
CONTINUOUS
 10
2.0580
 20
4.0106
  0
VERTEX
  8
LAYER10
 62
     1
  6
CONTINUOUS
 10
2.0588
 20
4.0109
  0
VERTEX
  8
LAYER10
 62
     1
  6
CONTINUOUS
 10
2.0612
 20
4.0116
  0
VERTEX
  8
LAYER10
 62
     1
  6
CONTINUOUS
 10
2.0637
 20
4.0122
  0
VERTEX
  8
LAYER10
 62
     1
  6
CONTINUOUS
 10
2.0662
 20
4.0127
  0
VERTEX
  8
LAYER10
 62
     1
  6
CONTINUOUS
 10
2.0687
 20
4.0133
  0
VERTEX
  8
LAYER10
 62
     1
  6
CONTINUOUS
 10
2.0712
 20
4.0137
  0
VERTEX
  8
LAYER10
 62
     1
  6
CONTINUOUS
 10
2.0737
 20
4.0141
  0
VERTEX
  8
LAYER10
 62
     1
  6
CONTINUOUS
 10
2.0762
 20
4.0145
  0
VERTEX
  8
LAYER10
 62
     1
  6
CONTINUOUS
 10
2.0787
 20
4.0149
  0
VERTEX
  8
LAYER10
 62
     1
  6
CONTINUOUS
 10
2.0813
 20
4.0152
  0
VERTEX
  8
LAYER10
 62
     1
  6
CONTINUOUS
 10
2.0838
 20
4.0156
  0
VERTEX
  8
LAYER10
 62
     1
  6
CONTINUOUS
 10
2.0863
 20
4.0159
  0
VERTEX
  8
LAYER10
 62
     1
  6
CONTINUOUS
 10
2.0889
 20
4.0162
  0
SEQEND
  8
LAYER10
  0
POLYLINE
  8
LAYER12
 62
     5
 66
     1
  6
CONTINUOUS
  0
VERTEX
  8
LAYER12
 62
     5
  6
CONTINUOUS
 10
3.0766
 20
3.5331
  0
VERTEX
  8
LAYER12
 62
     5
  6
CONTINUOUS
 10
2.0492
 20
3.5331
  0
SEQEND
  8
LAYER12
  0
POLYLINE
  8
LAYER12
 62
     5
 66
     1
  6
CONTINUOUS
  0
VERTEX
  8
LAYER12
 62
     5
  6
CONTINUOUS
 10
2.0492
 20
4.5561
  0
VERTEX
  8
LAYER12
 62
     5
  6
CONTINUOUS
 10
2.0492
 20
4.5561
  0
SEQEND
  8
LAYER12
  0
POLYLINE
  8
LAYER12
 62
     5
 66
     1
  6
CONTINUOUS
  0
VERTEX
  8
LAYER12
 62
     5
  6
CONTINUOUS
 10
2.0492
 20
4.5561
  0
VERTEX
  8
LAYER12
 62
     5
  6
CONTINUOUS
 10
3.0733
 20
4.5561
  0
SEQEND
  8
LAYER12
  0
POLYLINE
  8
LAYER12
 62
     5
 66
     1
  6
CONTINUOUS
  0
VERTEX
  8
LAYER12
 62
     5
  6
CONTINUOUS
 10
3.0752
 20
3.5317
  0
VERTEX
  8
LAYER12
 62
     5
  6
CONTINUOUS
 10
3.0752
 20
4.5557
  0
SEQEND
  8
LAYER12
  0
POLYLINE
  8
LAYER12
 62
     5
 66
     1
  6
CONTINUOUS
  0
VERTEX
  8
LAYER12
 62
     5
  6
CONTINUOUS
 10
3.0752
 20
4.5557
  0
VERTEX
  8
LAYER12
 62
     5
  6
CONTINUOUS
 10
3.0752
 20
4.5561
  0
SEQEND
  8
LAYER12
  0
POLYLINE
  8
LAYER12
 62
     5
 66
     1
  6
CONTINUOUS
  0
VERTEX
  8
LAYER12
 62
     5
  6
CONTINUOUS
 10
3.0733
 20
4.5561
  0
VERTEX
  8
LAYER12
 62
     5
  6
CONTINUOUS
 10
3.0766
 20
4.5561
  0
SEQEND
  8
LAYER12
  0
POLYLINE
  8
LAYER12
 62
     5
 66
     1
  6
CONTINUOUS
  0
VERTEX
  8
LAYER12
 62
     5
  6
CONTINUOUS
 10
2.0522
 20
4.5561
  0
VERTEX
  8
LAYER12
 62
     5
  6
CONTINUOUS
 10
2.0522
 20
4.5557
  0
SEQEND
  8
LAYER12
  0
POLYLINE
  8
LAYER12
 62
     5
 66
     1
  6
CONTINUOUS
  0
VERTEX
  8
LAYER12
 62
     5
  6
CONTINUOUS
 10
2.0522
 20
4.5557
  0
VERTEX
  8
LAYER12
 62
     5
  6
CONTINUOUS
 10
2.0522
 20
3.5317
  0
SEQEND
  8
LAYER12
  0
ENDSEC
  0
EOF
