  0
SECTION
  2
HEADER
  9
$ACADVER
  1
AC1004
  9
$EXTMIN
 10
9.0560
 20
3.5303
  9
$EXTMAX
 10
10.0428
 20
4.5571
  9
$LIMMIN
 10
9.0560
 20
3.5303
  9
$LIMMAX
 10
10.0428
 20
4.5571
  9
$INSBASE
 10
0.0
 20
0.0
  9
$VIEWCTR
 10
7.21903
 20
4.5
  9
$VIEWSIZE
 40
9.0
  9
$SNAPMODE
 70
     0
  9
$SNAPUNIT
 10
1.0
 20
1.0
  9
$SNAPBASE
 10
0.0
 20
0.0
  9
$SNAPANG
 50
0.0
  9
$SNAPSTYLE
 70
     0
  9
$SNAPISOPAIR
 70
     0
  9
$GRIDMODE
 70
     0
  9
$GRIDUNIT
 10
0.0
 20
0.0
  9
$ORTHOMODE
 70
     0
  9
$REGENMODE
 70
     1
  9
$FILLMODE
 70
     1
  9
$QTEXTMODE
 70
     0
  9
$DRAGMODE
 70
     2
  9
$LTSCALE
 40
1.0
  9
$OSMODE
 70
     0
  9
$ATTMODE
 70
     1
  9
$TEXTSIZE
 40
0.2
  9
$TRACEWID
 40
0.05
  9
$TEXTSTYLE
  7
STANDARD
  9
$CLAYER
  8
0
  9
$CELTYPE
  6
BYLAYER
  9
$CECOLOR
 62
   256
  9
$DIMSCALE
 40
1.0
  9
$DIMASZ
 40
0.18
  9
$DIMEXO
 40
0.0625
  9
$DIMDLI
 40
0.38
  9
$DIMRND
 40
0.0
  9
$DIMDLE
 40
0.0
  9
$DIMEXE
 40
0.18
  9
$DIMTP
 40
0.0
  9
$DIMTM
 40
0.0
  9
$DIMTXT
 40
0.18
  9
$DIMCEN
 40
0.09
  9
$DIMTSZ
 40
0.0
  9
$DIMTOL
 70
     0
  9
$DIMLIM
 70
     0
  9
$DIMTIH
 70
     1
  9
$DIMTOH
 70
     1
  9
$DIMSE1
 70
     0
  9
$DIMSE2
 70
     0
  9
$DIMTAD
 70
     0
  9
$DIMZIN
 70
     0
  9
$DIMBLK
  1

  9
$DIMASO
 70
     1
  9
$DIMSHO
 70
     0
  9
$DIMPOST
  1

  9
$DIMAPOST
  1

  9
$DIMALT
 70
     0
  9
$DIMALTD
 70
     2
  9
$DIMALTF
 40
25.4
  9
$DIMLFAC
 40
1.0
  9
$LUNITS
 70
     2
  9
$LUPREC
 70
     4
  9
$AXISMODE
 70
     0
  9
$AXISUNIT
 10
0.0
 20
0.0
  9
$SKETCHINC
 40
0.1
  9
$FILLETRAD
 40
0.0
  9
$AUNITS
 70
     0
  9
$AUPREC
 70
     0
  9
$MENU
  1
acad
  9
$ELEVATION
 40
0.0
  9
$THICKNESS
 40
0.0
  9
$VIEWDIR
 10
0.0
 20
0.0
 30
1.0
  9
$LIMCHECK
 70
     0
  9
$BLIPMODE
 70
     1
  9
$CHAMFERA
 40
0.0
  9
$CHAMFERB
 40
0.0
  9
$FASTZOOM
 70
     1
  9
$SKPOLY
 70
     0
  9
$TDCREATE
 40
2447222.5666886573
  9
$TDUPDATE
 40
2447222.5666886573
  9
$TDINDWG
 40
0.0000000000
  9
$TDUSRTIMER
 40
0.0000000000
  9
$USRTIMER
 70
     1
  9
$ANGBASE
 50
0.0
  9
$ANGDIR
 70
     0
  9
$PDMODE
 70
     0
  9
$PDSIZE
 40
0.0
  9
$PLINEWID
 40
0.0
  9
$COORDS
 70
     0
  9
$SPLFRAME
 70
     0
  9
$SPLINESEGS
 70
     8
  9
$ATTDIA
 70
     0
  9
$ATTREQ
 70
     1
  9
$USERI1
 70
     0
  9
$USERI2
 70
     0
  9
$USERI3
 70
     0
  9
$USERI4
 70
     0
  9
$USERI5
 70
     0
  9
$USERR1
 40
0.0
  9
$USERR2
 40
0.0
  9
$USERR3
 40
0.0
  9
$USERR4
 40
0.0
  9
$USERR5
 40
0.0
  0
ENDSEC
  0
SECTION
  2
TABLES
  0
TABLE
  2
LTYPE
 70
     13
  0
LTYPE
  2
CONTINUOUS
 70
    64
  3
Solid line
 72
    65
 73
     0
 40
0.0
  0
LTYPE
  2
DASHED
 70
    64
  3
__ __ __ __ __ __ __ __ __ __ __ __ __ __ __
 72
    65
 73
     2
 40
0.75
 49
0.5
 49
-0.25
  0
LTYPE
  2
HIDDEN
 70
    64
  3
_ _ _ _ _ _ _ _ _ _ _ _ _ _ _ _ _ _ _ _ _ _ _
 72
    65
 73
     2
 40
0.375
 49
0.25
 49
-0.125
  0
LTYPE
  2
CENTER
 70
    64
  3
____ _ ____ _ ____ _ ____ _ ____ _ ____ _ ____
 72
    65
 73
     4
 40
2.0
 49
1.25
 49
-0.25
 49
0.25
 49
-0.25
  0
LTYPE
  2
PHANTOM
 70
    64
  3
_____ _ _ _____ _ _ _____ _ _ _____ _ _ ____
 72
    65
 73
     6
 40
2.5
 49
1.25
 49
-0.25
 49
0.25
 49
-0.25
 49
0.25
 49
-0.25
  0
LTYPE
  2
DOT
 70
    64
  3
...............................................
 72
    65
 73
     2
 40
0.25
 49
0.0
 49
-0.25
  0
LTYPE
  2
DASHDOT
 70
    64
  3
__ . __ . __ . __ . __ . __ . __ . __ . __ . __
 72
    65
 73
     4
 40
1.0
 49
0.5
 49
-0.25
 49
0.0
 49
-0.25
  0
LTYPE
  2
BORDER
 70
    64
  3
__ __ . __ __ . __ __ . __ __ . __ __ . __ __
 72
    65
 73
     6
 40
1.75
 49
0.5
 49
-0.25
 49
0.5
 49
-0.25
 49
0.0
 49
-0.25
  0
LTYPE
  2
DIVIDE
 70
    64
  3
__ . . __ . . __ . . __ . . __ . . __ . . __
 72
    65
 73
     6
 40
1.25
 49
0.5
 49
-0.25
 49
0.0
 49
-0.25
 49
0.0
 49
-0.25
  0
LTYPE
  2
DCTYPE1
 70
    64
  3
__ . . __ . . __ . . __ . . __ . . __ . . __
 72
    65
 73
     8
 40
2.5
 49
0.5
 49
-0.25
 49
0.125
 49
-0.25
 49
0.25
 49
-0.25
 49
0.125
 49
-0.25
  0
LTYPE
  2
DCTYPE2
 70
    64
  3
__ . . __ . . __ . . __ . . __ . . __ . . __
 72
    65
 73
     6
 40
2.05
 49
1.0
 49
-0.3
 49
0.15
 49
-0.15
 49
0.15
 49
-0.3
  0
LTYPE
  2
DCTYPE3
 70
    64
  3
__ . . __ . . __ . . __ . . __ . . __ . . __
 72
    65
 73
     6
 40
2.5
 49
0.8
 49
-0.2
 49
0.8
 49
-0.2
 49
0.3
 49
-0.2
  0
LTYPE
  2
DCTYPE4
 70
    64
  3
__ . . __ . . __ . . __ . . __ . . __ . . __
 72
    65
 73
     10
 40
3.97
 49
1.75
 49
-0.3
 49
0.3
 49
-0.3
 49
0.06
 49
-0.3
 49
0.06
 49
-0.3
 49
0.3
 49
-0.3
  0
ENDTAB
  0
TABLE
  2
LAYER
 70
    153
  0
LAYER
  2
LAYER1
 70
 64
 62
     7
  6
CONTINUOUS
  0
LAYER
  2
LAYER10
 70
 64
 62
     1
  6
CONTINUOUS
  0
LAYER
  2
LAYER12
 70
 64
 62
     5
  6
CONTINUOUS
  0
ENDTAB
  0
ENDSEC
  0
SECTION
  2
BLOCKS
  0
ENDSEC
  0
SECTION
  2
ENTITIES
  0
CIRCLE
  8
LAYER1
 62
     7
  6
CONTINUOUS
 10
9.5832
 20
3.5673
 40
0.0287
  0
CIRCLE
  8
LAYER1
 62
     7
  6
CONTINUOUS
 10
9.5616
 20
3.8109
 40
0.0207
  0
CIRCLE
  8
LAYER1
 62
     7
  6
CONTINUOUS
 10
9.6476
 20
3.7771
 40
0.0207
  0
CIRCLE
  8
LAYER1
 62
     7
  6
CONTINUOUS
 10
9.6930
 20
3.7703
 40
0.0126
  0
CIRCLE
  8
LAYER1
 62
     7
  6
CONTINUOUS
 10
9.7461
 20
3.7561
 40
0.0228
  0
CIRCLE
  8
LAYER1
 62
     7
  6
CONTINUOUS
 10
9.6872
 20
3.6646
 40
0.0178
  0
CIRCLE
  8
LAYER1
 62
     7
  6
CONTINUOUS
 10
9.7826
 20
3.6737
 40
0.0153
  0
POLYLINE
  8
LAYER1
 62
     7
 66
     1
  6
CONTINUOUS
  0
VERTEX
  8
LAYER1
 62
     7
  6
CONTINUOUS
 10
9.8843
 20
3.7659
  0
VERTEX
  8
LAYER1
 62
     7
  6
CONTINUOUS
 10
9.8817
 20
3.7666
  0
VERTEX
  8
LAYER1
 62
     7
  6
CONTINUOUS
 10
9.8791
 20
3.7673
  0
VERTEX
  8
LAYER1
 62
     7
  6
CONTINUOUS
 10
9.8766
 20
3.7680
  0
VERTEX
  8
LAYER1
 62
     7
  6
CONTINUOUS
 10
9.8740
 20
3.7687
  0
VERTEX
  8
LAYER1
 62
     7
  6
CONTINUOUS
 10
9.8715
 20
3.7694
  0
VERTEX
  8
LAYER1
 62
     7
  6
CONTINUOUS
 10
9.8689
 20
3.7702
  0
VERTEX
  8
LAYER1
 62
     7
  6
CONTINUOUS
 10
9.8664
 20
3.7710
  0
VERTEX
  8
LAYER1
 62
     7
  6
CONTINUOUS
 10
9.8639
 20
3.7718
  0
VERTEX
  8
LAYER1
 62
     7
  6
CONTINUOUS
 10
9.8613
 20
3.7726
  0
VERTEX
  8
LAYER1
 62
     7
  6
CONTINUOUS
 10
9.8589
 20
3.7735
  0
VERTEX
  8
LAYER1
 62
     7
  6
CONTINUOUS
 10
9.8564
 20
3.7744
  0
VERTEX
  8
LAYER1
 62
     7
  6
CONTINUOUS
 10
9.8539
 20
3.7754
  0
VERTEX
  8
LAYER1
 62
     7
  6
CONTINUOUS
 10
9.8508
 20
3.7768
  0
VERTEX
  8
LAYER1
 62
     7
  6
CONTINUOUS
 10
9.8477
 20
3.7782
  0
VERTEX
  8
LAYER1
 62
     7
  6
CONTINUOUS
 10
9.8447
 20
3.7797
  0
VERTEX
  8
LAYER1
 62
     7
  6
CONTINUOUS
 10
9.8417
 20
3.7812
  0
VERTEX
  8
LAYER1
 62
     7
  6
CONTINUOUS
 10
9.8387
 20
3.7828
  0
VERTEX
  8
LAYER1
 62
     7
  6
CONTINUOUS
 10
9.8357
 20
3.7845
  0
VERTEX
  8
LAYER1
 62
     7
  6
CONTINUOUS
 10
9.8328
 20
3.7862
  0
VERTEX
  8
LAYER1
 62
     7
  6
CONTINUOUS
 10
9.8298
 20
3.7879
  0
VERTEX
  8
LAYER1
 62
     7
  6
CONTINUOUS
 10
9.8269
 20
3.7897
  0
VERTEX
  8
LAYER1
 62
     7
  6
CONTINUOUS
 10
9.8241
 20
3.7914
  0
VERTEX
  8
LAYER1
 62
     7
  6
CONTINUOUS
 10
9.8212
 20
3.7932
  0
VERTEX
  8
LAYER1
 62
     7
  6
CONTINUOUS
 10
9.8184
 20
3.7950
  0
VERTEX
  8
LAYER1
 62
     7
  6
CONTINUOUS
 10
9.8149
 20
3.7971
  0
VERTEX
  8
LAYER1
 62
     7
  6
CONTINUOUS
 10
9.8115
 20
3.7992
  0
VERTEX
  8
LAYER1
 62
     7
  6
CONTINUOUS
 10
9.8081
 20
3.8013
  0
VERTEX
  8
LAYER1
 62
     7
  6
CONTINUOUS
 10
9.8046
 20
3.8033
  0
VERTEX
  8
LAYER1
 62
     7
  6
CONTINUOUS
 10
9.8010
 20
3.8052
  0
VERTEX
  8
LAYER1
 62
     7
  6
CONTINUOUS
 10
9.7974
 20
3.8070
  0
VERTEX
  8
LAYER1
 62
     7
  6
CONTINUOUS
 10
9.7937
 20
3.8087
  0
VERTEX
  8
LAYER1
 62
     7
  6
CONTINUOUS
 10
9.7898
 20
3.8102
  0
VERTEX
  8
LAYER1
 62
     7
  6
CONTINUOUS
 10
9.7858
 20
3.8115
  0
VERTEX
  8
LAYER1
 62
     7
  6
CONTINUOUS
 10
9.7817
 20
3.8127
  0
VERTEX
  8
LAYER1
 62
     7
  6
CONTINUOUS
 10
9.7773
 20
3.8136
  0
VERTEX
  8
LAYER1
 62
     7
  6
CONTINUOUS
 10
9.7728
 20
3.8144
  0
VERTEX
  8
LAYER1
 62
     7
  6
CONTINUOUS
 10
9.7693
 20
3.8147
  0
VERTEX
  8
LAYER1
 62
     7
  6
CONTINUOUS
 10
9.7657
 20
3.8150
  0
VERTEX
  8
LAYER1
 62
     7
  6
CONTINUOUS
 10
9.7622
 20
3.8153
  0
VERTEX
  8
LAYER1
 62
     7
  6
CONTINUOUS
 10
9.7586
 20
3.8156
  0
VERTEX
  8
LAYER1
 62
     7
  6
CONTINUOUS
 10
9.7551
 20
3.8159
  0
VERTEX
  8
LAYER1
 62
     7
  6
CONTINUOUS
 10
9.7518
 20
3.8163
  0
VERTEX
  8
LAYER1
 62
     7
  6
CONTINUOUS
 10
9.7486
 20
3.8169
  0
VERTEX
  8
LAYER1
 62
     7
  6
CONTINUOUS
 10
9.7457
 20
3.8177
  0
VERTEX
  8
LAYER1
 62
     7
  6
CONTINUOUS
 10
9.7431
 20
3.8187
  0
VERTEX
  8
LAYER1
 62
     7
  6
CONTINUOUS
 10
9.7408
 20
3.8201
  0
VERTEX
  8
LAYER1
 62
     7
  6
CONTINUOUS
 10
9.7389
 20
3.8218
  0
VERTEX
  8
LAYER1
 62
     7
  6
CONTINUOUS
 10
9.7374
 20
3.8238
  0
VERTEX
  8
LAYER1
 62
     7
  6
CONTINUOUS
 10
9.7368
 20
3.8252
  0
VERTEX
  8
LAYER1
 62
     7
  6
CONTINUOUS
 10
9.7364
 20
3.8266
  0
VERTEX
  8
LAYER1
 62
     7
  6
CONTINUOUS
 10
9.7360
 20
3.8281
  0
VERTEX
  8
LAYER1
 62
     7
  6
CONTINUOUS
 10
9.7358
 20
3.8298
  0
VERTEX
  8
LAYER1
 62
     7
  6
CONTINUOUS
 10
9.7357
 20
3.8315
  0
VERTEX
  8
LAYER1
 62
     7
  6
CONTINUOUS
 10
9.7357
 20
3.8332
  0
VERTEX
  8
LAYER1
 62
     7
  6
CONTINUOUS
 10
9.7358
 20
3.8350
  0
VERTEX
  8
LAYER1
 62
     7
  6
CONTINUOUS
 10
9.7359
 20
3.8368
  0
VERTEX
  8
LAYER1
 62
     7
  6
CONTINUOUS
 10
9.7361
 20
3.8386
  0
VERTEX
  8
LAYER1
 62
     7
  6
CONTINUOUS
 10
9.7364
 20
3.8404
  0
VERTEX
  8
LAYER1
 62
     7
  6
CONTINUOUS
 10
9.7367
 20
3.8422
  0
VERTEX
  8
LAYER1
 62
     7
  6
CONTINUOUS
 10
9.7371
 20
3.8440
  0
VERTEX
  8
LAYER1
 62
     7
  6
CONTINUOUS
 10
9.7374
 20
3.8453
  0
VERTEX
  8
LAYER1
 62
     7
  6
CONTINUOUS
 10
9.7377
 20
3.8466
  0
VERTEX
  8
LAYER1
 62
     7
  6
CONTINUOUS
 10
9.7381
 20
3.8479
  0
VERTEX
  8
LAYER1
 62
     7
  6
CONTINUOUS
 10
9.7384
 20
3.8491
  0
VERTEX
  8
LAYER1
 62
     7
  6
CONTINUOUS
 10
9.7388
 20
3.8504
  0
VERTEX
  8
LAYER1
 62
     7
  6
CONTINUOUS
 10
9.7392
 20
3.8516
  0
VERTEX
  8
LAYER1
 62
     7
  6
CONTINUOUS
 10
9.7396
 20
3.8528
  0
VERTEX
  8
LAYER1
 62
     7
  6
CONTINUOUS
 10
9.7400
 20
3.8541
  0
VERTEX
  8
LAYER1
 62
     7
  6
CONTINUOUS
 10
9.7404
 20
3.8553
  0
VERTEX
  8
LAYER1
 62
     7
  6
CONTINUOUS
 10
9.7409
 20
3.8566
  0
VERTEX
  8
LAYER1
 62
     7
  6
CONTINUOUS
 10
9.7414
 20
3.8578
  0
VERTEX
  8
LAYER1
 62
     7
  6
CONTINUOUS
 10
9.7419
 20
3.8591
  0
VERTEX
  8
LAYER1
 62
     7
  6
CONTINUOUS
 10
9.7427
 20
3.8612
  0
VERTEX
  8
LAYER1
 62
     7
  6
CONTINUOUS
 10
9.7436
 20
3.8633
  0
VERTEX
  8
LAYER1
 62
     7
  6
CONTINUOUS
 10
9.7446
 20
3.8655
  0
VERTEX
  8
LAYER1
 62
     7
  6
CONTINUOUS
 10
9.7456
 20
3.8676
  0
VERTEX
  8
LAYER1
 62
     7
  6
CONTINUOUS
 10
9.7467
 20
3.8696
  0
VERTEX
  8
LAYER1
 62
     7
  6
CONTINUOUS
 10
9.7479
 20
3.8716
  0
VERTEX
  8
LAYER1
 62
     7
  6
CONTINUOUS
 10
9.7491
 20
3.8734
  0
VERTEX
  8
LAYER1
 62
     7
  6
CONTINUOUS
 10
9.7504
 20
3.8751
  0
VERTEX
  8
LAYER1
 62
     7
  6
CONTINUOUS
 10
9.7518
 20
3.8765
  0
VERTEX
  8
LAYER1
 62
     7
  6
CONTINUOUS
 10
9.7533
 20
3.8778
  0
VERTEX
  8
LAYER1
 62
     7
  6
CONTINUOUS
 10
9.7549
 20
3.8788
  0
VERTEX
  8
LAYER1
 62
     7
  6
CONTINUOUS
 10
9.7566
 20
3.8795
  0
VERTEX
  8
LAYER1
 62
     7
  6
CONTINUOUS
 10
9.7581
 20
3.8798
  0
VERTEX
  8
LAYER1
 62
     7
  6
CONTINUOUS
 10
9.7597
 20
3.8800
  0
VERTEX
  8
LAYER1
 62
     7
  6
CONTINUOUS
 10
9.7612
 20
3.8800
  0
VERTEX
  8
LAYER1
 62
     7
  6
CONTINUOUS
 10
9.7629
 20
3.8798
  0
VERTEX
  8
LAYER1
 62
     7
  6
CONTINUOUS
 10
9.7646
 20
3.8794
  0
VERTEX
  8
LAYER1
 62
     7
  6
CONTINUOUS
 10
9.7663
 20
3.8790
  0
VERTEX
  8
LAYER1
 62
     7
  6
CONTINUOUS
 10
9.7680
 20
3.8784
  0
VERTEX
  8
LAYER1
 62
     7
  6
CONTINUOUS
 10
9.7698
 20
3.8778
  0
VERTEX
  8
LAYER1
 62
     7
  6
CONTINUOUS
 10
9.7715
 20
3.8771
  0
VERTEX
  8
LAYER1
 62
     7
  6
CONTINUOUS
 10
9.7733
 20
3.8763
  0
VERTEX
  8
LAYER1
 62
     7
  6
CONTINUOUS
 10
9.7751
 20
3.8756
  0
VERTEX
  8
LAYER1
 62
     7
  6
CONTINUOUS
 10
9.7768
 20
3.8748
  0
VERTEX
  8
LAYER1
 62
     7
  6
CONTINUOUS
 10
9.7810
 20
3.8730
  0
VERTEX
  8
LAYER1
 62
     7
  6
CONTINUOUS
 10
9.7850
 20
3.8712
  0
VERTEX
  8
LAYER1
 62
     7
  6
CONTINUOUS
 10
9.7889
 20
3.8695
  0
VERTEX
  8
LAYER1
 62
     7
  6
CONTINUOUS
 10
9.7928
 20
3.8678
  0
VERTEX
  8
LAYER1
 62
     7
  6
CONTINUOUS
 10
9.7966
 20
3.8662
  0
VERTEX
  8
LAYER1
 62
     7
  6
CONTINUOUS
 10
9.8003
 20
3.8646
  0
VERTEX
  8
LAYER1
 62
     7
  6
CONTINUOUS
 10
9.8041
 20
3.8631
  0
VERTEX
  8
LAYER1
 62
     7
  6
CONTINUOUS
 10
9.8077
 20
3.8615
  0
VERTEX
  8
LAYER1
 62
     7
  6
CONTINUOUS
 10
9.8114
 20
3.8600
  0
VERTEX
  8
LAYER1
 62
     7
  6
CONTINUOUS
 10
9.8151
 20
3.8585
  0
VERTEX
  8
LAYER1
 62
     7
  6
CONTINUOUS
 10
9.8187
 20
3.8569
  0
VERTEX
  8
LAYER1
 62
     7
  6
CONTINUOUS
 10
9.8224
 20
3.8554
  0
VERTEX
  8
LAYER1
 62
     7
  6
CONTINUOUS
 10
9.8261
 20
3.8539
  0
VERTEX
  8
LAYER1
 62
     7
  6
CONTINUOUS
 10
9.8299
 20
3.8523
  0
VERTEX
  8
LAYER1
 62
     7
  6
CONTINUOUS
 10
9.8336
 20
3.8507
  0
VERTEX
  8
LAYER1
 62
     7
  6
CONTINUOUS
 10
9.8374
 20
3.8491
  0
VERTEX
  8
LAYER1
 62
     7
  6
CONTINUOUS
 10
9.8412
 20
3.8475
  0
VERTEX
  8
LAYER1
 62
     7
  6
CONTINUOUS
 10
9.8450
 20
3.8459
  0
VERTEX
  8
LAYER1
 62
     7
  6
CONTINUOUS
 10
9.8489
 20
3.8442
  0
VERTEX
  8
LAYER1
 62
     7
  6
CONTINUOUS
 10
9.8527
 20
3.8426
  0
VERTEX
  8
LAYER1
 62
     7
  6
CONTINUOUS
 10
9.8565
 20
3.8410
  0
VERTEX
  8
LAYER1
 62
     7
  6
CONTINUOUS
 10
9.8604
 20
3.8393
  0
VERTEX
  8
LAYER1
 62
     7
  6
CONTINUOUS
 10
9.8642
 20
3.8377
  0
VERTEX
  8
LAYER1
 62
     7
  6
CONTINUOUS
 10
9.8680
 20
3.8360
  0
VERTEX
  8
LAYER1
 62
     7
  6
CONTINUOUS
 10
9.8706
 20
3.8349
  0
VERTEX
  8
LAYER1
 62
     7
  6
CONTINUOUS
 10
9.8732
 20
3.8338
  0
VERTEX
  8
LAYER1
 62
     7
  6
CONTINUOUS
 10
9.8758
 20
3.8327
  0
VERTEX
  8
LAYER1
 62
     7
  6
CONTINUOUS
 10
9.8784
 20
3.8315
  0
VERTEX
  8
LAYER1
 62
     7
  6
CONTINUOUS
 10
9.8809
 20
3.8304
  0
VERTEX
  8
LAYER1
 62
     7
  6
CONTINUOUS
 10
9.8835
 20
3.8292
  0
VERTEX
  8
LAYER1
 62
     7
  6
CONTINUOUS
 10
9.8860
 20
3.8280
  0
VERTEX
  8
LAYER1
 62
     7
  6
CONTINUOUS
 10
9.8886
 20
3.8267
  0
VERTEX
  8
LAYER1
 62
     7
  6
CONTINUOUS
 10
9.8911
 20
3.8255
  0
VERTEX
  8
LAYER1
 62
     7
  6
CONTINUOUS
 10
9.8935
 20
3.8242
  0
VERTEX
  8
LAYER1
 62
     7
  6
CONTINUOUS
 10
9.8960
 20
3.8228
  0
VERTEX
  8
LAYER1
 62
     7
  6
CONTINUOUS
 10
9.8984
 20
3.8214
  0
VERTEX
  8
LAYER1
 62
     7
  6
CONTINUOUS
 10
9.8997
 20
3.8207
  0
VERTEX
  8
LAYER1
 62
     7
  6
CONTINUOUS
 10
9.9010
 20
3.8199
  0
VERTEX
  8
LAYER1
 62
     7
  6
CONTINUOUS
 10
9.9023
 20
3.8191
  0
VERTEX
  8
LAYER1
 62
     7
  6
CONTINUOUS
 10
9.9036
 20
3.8183
  0
VERTEX
  8
LAYER1
 62
     7
  6
CONTINUOUS
 10
9.9049
 20
3.8175
  0
VERTEX
  8
LAYER1
 62
     7
  6
CONTINUOUS
 10
9.9061
 20
3.8167
  0
VERTEX
  8
LAYER1
 62
     7
  6
CONTINUOUS
 10
9.9074
 20
3.8158
  0
VERTEX
  8
LAYER1
 62
     7
  6
CONTINUOUS
 10
9.9087
 20
3.8150
  0
VERTEX
  8
LAYER1
 62
     7
  6
CONTINUOUS
 10
9.9099
 20
3.8142
  0
VERTEX
  8
LAYER1
 62
     7
  6
CONTINUOUS
 10
9.9112
 20
3.8133
  0
VERTEX
  8
LAYER1
 62
     7
  6
CONTINUOUS
 10
9.9124
 20
3.8125
  0
VERTEX
  8
LAYER1
 62
     7
  6
CONTINUOUS
 10
9.9137
 20
3.8116
  0
SEQEND
  8
LAYER1
  0
CIRCLE
  8
LAYER1
 62
     7
  6
CONTINUOUS
 10
9.7990
 20
3.9053
 40
0.0153
  0
CIRCLE
  8
LAYER1
 62
     7
  6
CONTINUOUS
 10
9.9592
 20
3.9532
 40
0.0104
  0
CIRCLE
  8
LAYER1
 62
     7
  6
CONTINUOUS
 10
10.0033
 20
3.8659
 40
0.0104
  0
CIRCLE
  8
LAYER1
 62
     7
  6
CONTINUOUS
 10
9.9395
 20
4.0787
 40
0.0207
  0
CIRCLE
  8
LAYER1
 62
     7
  6
CONTINUOUS
 10
9.8490
 20
4.0772
 40
0.0251
  0
CIRCLE
  8
LAYER1
 62
     7
  6
CONTINUOUS
 10
10.0162
 20
4.1579
 40
0.0107
  0
CIRCLE
  8
LAYER1
 62
     7
  6
CONTINUOUS
 10
9.6360
 20
4.0284
 40
0.0176
  0
CIRCLE
  8
LAYER1
 62
     7
  6
CONTINUOUS
 10
9.5182
 20
4.0039
 40
0.0126
  0
CIRCLE
  8
LAYER1
 62
     7
  6
CONTINUOUS
 10
9.5394
 20
4.0897
 40
0.0178
  0
CIRCLE
  8
LAYER1
 62
     7
  6
CONTINUOUS
 10
9.5898
 20
4.0855
 40
0.0080
  0
CIRCLE
  8
LAYER1
 62
     7
  6
CONTINUOUS
 10
9.6323
 20
4.1013
 40
0.0135
  0
CIRCLE
  8
LAYER1
 62
     7
  6
CONTINUOUS
 10
9.5937
 20
4.1535
 40
0.0215
  0
CIRCLE
  8
LAYER1
 62
     7
  6
CONTINUOUS
 10
9.7142
 20
4.1680
 40
0.0128
  0
CIRCLE
  8
LAYER1
 62
     7
  6
CONTINUOUS
 10
9.6406
 20
4.2071
 40
0.0135
  0
CIRCLE
  8
LAYER1
 62
     7
  6
CONTINUOUS
 10
9.7463
 20
4.2038
 40
0.0091
  0
CIRCLE
  8
LAYER1
 62
     7
  6
CONTINUOUS
 10
9.7469
 20
4.1686
 40
0.0104
  0
CIRCLE
  8
LAYER1
 62
     7
  6
CONTINUOUS
 10
9.7983
 20
4.2549
 40
0.0259
  0
CIRCLE
  8
LAYER1
 62
     7
  6
CONTINUOUS
 10
9.8273
 20
4.3258
 40
0.0128
  0
CIRCLE
  8
LAYER1
 62
     7
  6
CONTINUOUS
 10
9.9449
 20
4.3655
 40
0.0159
  0
CIRCLE
  8
LAYER1
 62
     7
  6
CONTINUOUS
 10
9.7414
 20
4.3521
 40
0.0153
  0
CIRCLE
  8
LAYER1
 62
     7
  6
CONTINUOUS
 10
9.7180
 20
4.3945
 40
0.0126
  0
CIRCLE
  8
LAYER1
 62
     7
  6
CONTINUOUS
 10
9.5886
 20
4.4653
 40
0.0104
  0
CIRCLE
  8
LAYER1
 62
     7
  6
CONTINUOUS
 10
9.6997
 20
4.4420
 40
0.0237
  0
CIRCLE
  8
LAYER1
 62
     7
  6
CONTINUOUS
 10
9.7191
 20
4.4850
 40
0.0239
  0
CIRCLE
  8
LAYER1
 62
     7
  6
CONTINUOUS
 10
9.7108
 20
4.5302
 40
0.0176
  0
CIRCLE
  8
LAYER1
 62
     7
  6
CONTINUOUS
 10
9.7547
 20
4.4605
 40
0.0216
  0
CIRCLE
  8
LAYER1
 62
     7
  6
CONTINUOUS
 10
9.4103
 20
4.4473
 40
0.0306
  0
CIRCLE
  8
LAYER1
 62
     7
  6
CONTINUOUS
 10
9.2752
 20
4.4073
 40
0.0342
  0
CIRCLE
  8
LAYER1
 62
     7
  6
CONTINUOUS
 10
9.3483
 20
3.7133
 40
0.0214
  0
POLYLINE
  8
LAYER1
 62
     7
 66
     1
  6
CONTINUOUS
  0
VERTEX
  8
LAYER1
 62
     7
  6
CONTINUOUS
 10
9.0561
 20
3.8104
  0
VERTEX
  8
LAYER1
 62
     7
  6
CONTINUOUS
 10
9.0561
 20
3.8104
  0
VERTEX
  8
LAYER1
 62
     7
  6
CONTINUOUS
 10
9.0561
 20
3.8104
  0
VERTEX
  8
LAYER1
 62
     7
  6
CONTINUOUS
 10
9.0561
 20
3.8104
  0
VERTEX
  8
LAYER1
 62
     7
  6
CONTINUOUS
 10
9.0561
 20
3.8104
  0
VERTEX
  8
LAYER1
 62
     7
  6
CONTINUOUS
 10
9.0561
 20
3.8104
  0
VERTEX
  8
LAYER1
 62
     7
  6
CONTINUOUS
 10
9.0561
 20
3.8104
  0
VERTEX
  8
LAYER1
 62
     7
  6
CONTINUOUS
 10
9.0561
 20
3.8104
  0
VERTEX
  8
LAYER1
 62
     7
  6
CONTINUOUS
 10
9.0561
 20
3.8104
  0
VERTEX
  8
LAYER1
 62
     7
  6
CONTINUOUS
 10
9.0561
 20
3.8104
  0
VERTEX
  8
LAYER1
 62
     7
  6
CONTINUOUS
 10
9.0561
 20
3.8104
  0
VERTEX
  8
LAYER1
 62
     7
  6
CONTINUOUS
 10
9.0561
 20
3.8104
  0
VERTEX
  8
LAYER1
 62
     7
  6
CONTINUOUS
 10
9.0561
 20
3.8104
  0
VERTEX
  8
LAYER1
 62
     7
  6
CONTINUOUS
 10
9.0561
 20
3.8104
  0
VERTEX
  8
LAYER1
 62
     7
  6
CONTINUOUS
 10
9.0561
 20
3.8104
  0
VERTEX
  8
LAYER1
 62
     7
  6
CONTINUOUS
 10
9.0561
 20
3.8104
  0
VERTEX
  8
LAYER1
 62
     7
  6
CONTINUOUS
 10
9.0561
 20
3.8104
  0
VERTEX
  8
LAYER1
 62
     7
  6
CONTINUOUS
 10
9.0561
 20
3.8104
  0
VERTEX
  8
LAYER1
 62
     7
  6
CONTINUOUS
 10
9.0561
 20
3.8104
  0
VERTEX
  8
LAYER1
 62
     7
  6
CONTINUOUS
 10
9.0561
 20
3.8104
  0
VERTEX
  8
LAYER1
 62
     7
  6
CONTINUOUS
 10
9.0561
 20
3.8104
  0
VERTEX
  8
LAYER1
 62
     7
  6
CONTINUOUS
 10
9.0561
 20
3.8104
  0
VERTEX
  8
LAYER1
 62
     7
  6
CONTINUOUS
 10
9.0561
 20
3.8104
  0
VERTEX
  8
LAYER1
 62
     7
  6
CONTINUOUS
 10
9.0561
 20
3.8104
  0
VERTEX
  8
LAYER1
 62
     7
  6
CONTINUOUS
 10
9.0561
 20
3.8104
  0
SEQEND
  8
LAYER1
  0
POLYLINE
  8
LAYER1
 62
     7
 66
     1
  6
CONTINUOUS
  0
VERTEX
  8
LAYER1
 62
     7
  6
CONTINUOUS
 10
9.0561
 20
3.8104
  0
VERTEX
  8
LAYER1
 62
     7
  6
CONTINUOUS
 10
9.0561
 20
3.8104
  0
VERTEX
  8
LAYER1
 62
     7
  6
CONTINUOUS
 10
9.0561
 20
3.8104
  0
VERTEX
  8
LAYER1
 62
     7
  6
CONTINUOUS
 10
9.0561
 20
3.8104
  0
VERTEX
  8
LAYER1
 62
     7
  6
CONTINUOUS
 10
9.0561
 20
3.8104
  0
VERTEX
  8
LAYER1
 62
     7
  6
CONTINUOUS
 10
9.0561
 20
3.8104
  0
VERTEX
  8
LAYER1
 62
     7
  6
CONTINUOUS
 10
9.0561
 20
3.8104
  0
VERTEX
  8
LAYER1
 62
     7
  6
CONTINUOUS
 10
9.0561
 20
3.8104
  0
VERTEX
  8
LAYER1
 62
     7
  6
CONTINUOUS
 10
9.0561
 20
3.8104
  0
VERTEX
  8
LAYER1
 62
     7
  6
CONTINUOUS
 10
9.0561
 20
3.8104
  0
VERTEX
  8
LAYER1
 62
     7
  6
CONTINUOUS
 10
9.0561
 20
3.8104
  0
VERTEX
  8
LAYER1
 62
     7
  6
CONTINUOUS
 10
9.0561
 20
3.8104
  0
VERTEX
  8
LAYER1
 62
     7
  6
CONTINUOUS
 10
9.0561
 20
3.8104
  0
VERTEX
  8
LAYER1
 62
     7
  6
CONTINUOUS
 10
9.0561
 20
3.8104
  0
VERTEX
  8
LAYER1
 62
     7
  6
CONTINUOUS
 10
9.0561
 20
3.8104
  0
VERTEX
  8
LAYER1
 62
     7
  6
CONTINUOUS
 10
9.0561
 20
3.8104
  0
VERTEX
  8
LAYER1
 62
     7
  6
CONTINUOUS
 10
9.0561
 20
3.8104
  0
VERTEX
  8
LAYER1
 62
     7
  6
CONTINUOUS
 10
9.0561
 20
3.8104
  0
VERTEX
  8
LAYER1
 62
     7
  6
CONTINUOUS
 10
9.0561
 20
3.8104
  0
VERTEX
  8
LAYER1
 62
     7
  6
CONTINUOUS
 10
9.0561
 20
3.8104
  0
VERTEX
  8
LAYER1
 62
     7
  6
CONTINUOUS
 10
9.0561
 20
3.8104
  0
VERTEX
  8
LAYER1
 62
     7
  6
CONTINUOUS
 10
9.0561
 20
3.8104
  0
VERTEX
  8
LAYER1
 62
     7
  6
CONTINUOUS
 10
9.0561
 20
3.8104
  0
VERTEX
  8
LAYER1
 62
     7
  6
CONTINUOUS
 10
9.0561
 20
3.8104
  0
VERTEX
  8
LAYER1
 62
     7
  6
CONTINUOUS
 10
9.0561
 20
3.8104
  0
SEQEND
  8
LAYER1
  0
POLYLINE
  8
LAYER1
 62
     7
 66
     1
  6
CONTINUOUS
  0
VERTEX
  8
LAYER1
 62
     7
  6
CONTINUOUS
 10
9.0561
 20
3.8104
  0
VERTEX
  8
LAYER1
 62
     7
  6
CONTINUOUS
 10
9.0561
 20
3.8104
  0
VERTEX
  8
LAYER1
 62
     7
  6
CONTINUOUS
 10
9.0561
 20
3.8104
  0
VERTEX
  8
LAYER1
 62
     7
  6
CONTINUOUS
 10
9.0561
 20
3.8104
  0
VERTEX
  8
LAYER1
 62
     7
  6
CONTINUOUS
 10
9.0561
 20
3.8104
  0
VERTEX
  8
LAYER1
 62
     7
  6
CONTINUOUS
 10
9.0561
 20
3.8104
  0
VERTEX
  8
LAYER1
 62
     7
  6
CONTINUOUS
 10
9.0561
 20
3.8104
  0
VERTEX
  8
LAYER1
 62
     7
  6
CONTINUOUS
 10
9.0561
 20
3.8104
  0
VERTEX
  8
LAYER1
 62
     7
  6
CONTINUOUS
 10
9.0561
 20
3.8104
  0
VERTEX
  8
LAYER1
 62
     7
  6
CONTINUOUS
 10
9.0561
 20
3.8104
  0
VERTEX
  8
LAYER1
 62
     7
  6
CONTINUOUS
 10
9.0561
 20
3.8104
  0
VERTEX
  8
LAYER1
 62
     7
  6
CONTINUOUS
 10
9.0561
 20
3.8104
  0
VERTEX
  8
LAYER1
 62
     7
  6
CONTINUOUS
 10
9.0561
 20
3.8104
  0
VERTEX
  8
LAYER1
 62
     7
  6
CONTINUOUS
 10
9.0561
 20
3.8104
  0
VERTEX
  8
LAYER1
 62
     7
  6
CONTINUOUS
 10
9.0561
 20
3.8104
  0
VERTEX
  8
LAYER1
 62
     7
  6
CONTINUOUS
 10
9.0561
 20
3.8104
  0
VERTEX
  8
LAYER1
 62
     7
  6
CONTINUOUS
 10
9.0561
 20
3.8104
  0
VERTEX
  8
LAYER1
 62
     7
  6
CONTINUOUS
 10
9.0561
 20
3.8104
  0
VERTEX
  8
LAYER1
 62
     7
  6
CONTINUOUS
 10
9.0561
 20
3.8104
  0
VERTEX
  8
LAYER1
 62
     7
  6
CONTINUOUS
 10
9.0561
 20
3.8104
  0
VERTEX
  8
LAYER1
 62
     7
  6
CONTINUOUS
 10
9.0561
 20
3.8104
  0
VERTEX
  8
LAYER1
 62
     7
  6
CONTINUOUS
 10
9.0561
 20
3.8104
  0
VERTEX
  8
LAYER1
 62
     7
  6
CONTINUOUS
 10
9.0561
 20
3.8104
  0
VERTEX
  8
LAYER1
 62
     7
  6
CONTINUOUS
 10
9.0561
 20
3.8104
  0
VERTEX
  8
LAYER1
 62
     7
  6
CONTINUOUS
 10
9.0561
 20
3.8104
  0
SEQEND
  8
LAYER1
  0
POLYLINE
  8
LAYER1
 62
     7
 66
     1
  6
CONTINUOUS
  0
VERTEX
  8
LAYER1
 62
     7
  6
CONTINUOUS
 10
9.0561
 20
4.5561
  0
VERTEX
  8
LAYER1
 62
     7
  6
CONTINUOUS
 10
9.0561
 20
4.5561
  0
SEQEND
  8
LAYER1
  0
POLYLINE
  8
LAYER1
 62
     7
 66
     1
  6
CONTINUOUS
  0
VERTEX
  8
LAYER1
 62
     7
  6
CONTINUOUS
 10
10.0428
 20
3.5841
  0
VERTEX
  8
LAYER1
 62
     7
  6
CONTINUOUS
 10
10.0410
 20
3.5832
  0
VERTEX
  8
LAYER1
 62
     7
  6
CONTINUOUS
 10
10.0392
 20
3.5823
  0
VERTEX
  8
LAYER1
 62
     7
  6
CONTINUOUS
 10
10.0375
 20
3.5814
  0
VERTEX
  8
LAYER1
 62
     7
  6
CONTINUOUS
 10
10.0357
 20
3.5805
  0
VERTEX
  8
LAYER1
 62
     7
  6
CONTINUOUS
 10
10.0340
 20
3.5796
  0
VERTEX
  8
LAYER1
 62
     7
  6
CONTINUOUS
 10
10.0323
 20
3.5786
  0
VERTEX
  8
LAYER1
 62
     7
  6
CONTINUOUS
 10
10.0307
 20
3.5776
  0
VERTEX
  8
LAYER1
 62
     7
  6
CONTINUOUS
 10
10.0291
 20
3.5766
  0
VERTEX
  8
LAYER1
 62
     7
  6
CONTINUOUS
 10
10.0275
 20
3.5755
  0
VERTEX
  8
LAYER1
 62
     7
  6
CONTINUOUS
 10
10.0260
 20
3.5744
  0
VERTEX
  8
LAYER1
 62
     7
  6
CONTINUOUS
 10
10.0246
 20
3.5732
  0
VERTEX
  8
LAYER1
 62
     7
  6
CONTINUOUS
 10
10.0232
 20
3.5720
  0
VERTEX
  8
LAYER1
 62
     7
  6
CONTINUOUS
 10
10.0213
 20
3.5699
  0
VERTEX
  8
LAYER1
 62
     7
  6
CONTINUOUS
 10
10.0194
 20
3.5678
  0
VERTEX
  8
LAYER1
 62
     7
  6
CONTINUOUS
 10
10.0177
 20
3.5656
  0
VERTEX
  8
LAYER1
 62
     7
  6
CONTINUOUS
 10
10.0160
 20
3.5633
  0
VERTEX
  8
LAYER1
 62
     7
  6
CONTINUOUS
 10
10.0142
 20
3.5609
  0
VERTEX
  8
LAYER1
 62
     7
  6
CONTINUOUS
 10
10.0125
 20
3.5586
  0
VERTEX
  8
LAYER1
 62
     7
  6
CONTINUOUS
 10
10.0106
 20
3.5563
  0
VERTEX
  8
LAYER1
 62
     7
  6
CONTINUOUS
 10
10.0087
 20
3.5541
  0
VERTEX
  8
LAYER1
 62
     7
  6
CONTINUOUS
 10
10.0065
 20
3.5520
  0
VERTEX
  8
LAYER1
 62
     7
  6
CONTINUOUS
 10
10.0041
 20
3.5500
  0
VERTEX
  8
LAYER1
 62
     7
  6
CONTINUOUS
 10
10.0015
 20
3.5481
  0
VERTEX
  8
LAYER1
 62
     7
  6
CONTINUOUS
 10
9.9985
 20
3.5464
  0
VERTEX
  8
LAYER1
 62
     7
  6
CONTINUOUS
 10
9.9969
 20
3.5456
  0
VERTEX
  8
LAYER1
 62
     7
  6
CONTINUOUS
 10
9.9952
 20
3.5449
  0
VERTEX
  8
LAYER1
 62
     7
  6
CONTINUOUS
 10
9.9935
 20
3.5442
  0
VERTEX
  8
LAYER1
 62
     7
  6
CONTINUOUS
 10
9.9918
 20
3.5435
  0
VERTEX
  8
LAYER1
 62
     7
  6
CONTINUOUS
 10
9.9902
 20
3.5427
  0
VERTEX
  8
LAYER1
 62
     7
  6
CONTINUOUS
 10
9.9886
 20
3.5420
  0
VERTEX
  8
LAYER1
 62
     7
  6
CONTINUOUS
 10
9.9872
 20
3.5412
  0
VERTEX
  8
LAYER1
 62
     7
  6
CONTINUOUS
 10
9.9860
 20
3.5404
  0
VERTEX
  8
LAYER1
 62
     7
  6
CONTINUOUS
 10
9.9850
 20
3.5394
  0
VERTEX
  8
LAYER1
 62
     7
  6
CONTINUOUS
 10
9.9842
 20
3.5384
  0
VERTEX
  8
LAYER1
 62
     7
  6
CONTINUOUS
 10
9.9837
 20
3.5373
  0
VERTEX
  8
LAYER1
 62
     7
  6
CONTINUOUS
 10
9.9836
 20
3.5361
  0
VERTEX
  8
LAYER1
 62
     7
  6
CONTINUOUS
 10
9.9836
 20
3.5357
  0
VERTEX
  8
LAYER1
 62
     7
  6
CONTINUOUS
 10
9.9837
 20
3.5354
  0
VERTEX
  8
LAYER1
 62
     7
  6
CONTINUOUS
 10
9.9837
 20
3.5350
  0
VERTEX
  8
LAYER1
 62
     7
  6
CONTINUOUS
 10
9.9838
 20
3.5346
  0
VERTEX
  8
LAYER1
 62
     7
  6
CONTINUOUS
 10
9.9839
 20
3.5342
  0
VERTEX
  8
LAYER1
 62
     7
  6
CONTINUOUS
 10
9.9840
 20
3.5338
  0
VERTEX
  8
LAYER1
 62
     7
  6
CONTINUOUS
 10
9.9842
 20
3.5333
  0
VERTEX
  8
LAYER1
 62
     7
  6
CONTINUOUS
 10
9.9843
 20
3.5329
  0
VERTEX
  8
LAYER1
 62
     7
  6
CONTINUOUS
 10
9.9845
 20
3.5325
  0
VERTEX
  8
LAYER1
 62
     7
  6
CONTINUOUS
 10
9.9847
 20
3.5321
  0
VERTEX
  8
LAYER1
 62
     7
  6
CONTINUOUS
 10
9.9849
 20
3.5316
  0
VERTEX
  8
LAYER1
 62
     7
  6
CONTINUOUS
 10
9.9850
 20
3.5312
  0
SEQEND
  8
LAYER1
  0
POLYLINE
  8
LAYER1
 62
     7
 66
     1
  6
CONTINUOUS
  0
VERTEX
  8
LAYER1
 62
     7
  6
CONTINUOUS
 10
10.0386
 20
3.5312
  0
VERTEX
  8
LAYER1
 62
     7
  6
CONTINUOUS
 10
10.0386
 20
3.5312
  0
VERTEX
  8
LAYER1
 62
     7
  6
CONTINUOUS
 10
10.0386
 20
3.5312
  0
VERTEX
  8
LAYER1
 62
     7
  6
CONTINUOUS
 10
10.0386
 20
3.5312
  0
VERTEX
  8
LAYER1
 62
     7
  6
CONTINUOUS
 10
10.0386
 20
3.5312
  0
VERTEX
  8
LAYER1
 62
     7
  6
CONTINUOUS
 10
10.0386
 20
3.5312
  0
VERTEX
  8
LAYER1
 62
     7
  6
CONTINUOUS
 10
10.0386
 20
3.5312
  0
VERTEX
  8
LAYER1
 62
     7
  6
CONTINUOUS
 10
10.0386
 20
3.5312
  0
VERTEX
  8
LAYER1
 62
     7
  6
CONTINUOUS
 10
10.0386
 20
3.5312
  0
VERTEX
  8
LAYER1
 62
     7
  6
CONTINUOUS
 10
10.0386
 20
3.5312
  0
VERTEX
  8
LAYER1
 62
     7
  6
CONTINUOUS
 10
10.0386
 20
3.5312
  0
VERTEX
  8
LAYER1
 62
     7
  6
CONTINUOUS
 10
10.0386
 20
3.5312
  0
VERTEX
  8
LAYER1
 62
     7
  6
CONTINUOUS
 10
10.0386
 20
3.5312
  0
VERTEX
  8
LAYER1
 62
     7
  6
CONTINUOUS
 10
10.0386
 20
3.5312
  0
VERTEX
  8
LAYER1
 62
     7
  6
CONTINUOUS
 10
10.0386
 20
3.5312
  0
VERTEX
  8
LAYER1
 62
     7
  6
CONTINUOUS
 10
10.0386
 20
3.5312
  0
VERTEX
  8
LAYER1
 62
     7
  6
CONTINUOUS
 10
10.0386
 20
3.5312
  0
VERTEX
  8
LAYER1
 62
     7
  6
CONTINUOUS
 10
10.0386
 20
3.5312
  0
VERTEX
  8
LAYER1
 62
     7
  6
CONTINUOUS
 10
10.0386
 20
3.5312
  0
VERTEX
  8
LAYER1
 62
     7
  6
CONTINUOUS
 10
10.0386
 20
3.5312
  0
VERTEX
  8
LAYER1
 62
     7
  6
CONTINUOUS
 10
10.0386
 20
3.5312
  0
VERTEX
  8
LAYER1
 62
     7
  6
CONTINUOUS
 10
10.0386
 20
3.5312
  0
VERTEX
  8
LAYER1
 62
     7
  6
CONTINUOUS
 10
10.0386
 20
3.5312
  0
VERTEX
  8
LAYER1
 62
     7
  6
CONTINUOUS
 10
10.0386
 20
3.5312
  0
VERTEX
  8
LAYER1
 62
     7
  6
CONTINUOUS
 10
10.0386
 20
3.5312
  0
SEQEND
  8
LAYER1
  0
POLYLINE
  8
LAYER1
 62
     7
 66
     1
  6
CONTINUOUS
  0
VERTEX
  8
LAYER1
 62
     7
  6
CONTINUOUS
 10
10.0386
 20
3.5312
  0
VERTEX
  8
LAYER1
 62
     7
  6
CONTINUOUS
 10
10.0386
 20
3.5312
  0
VERTEX
  8
LAYER1
 62
     7
  6
CONTINUOUS
 10
10.0386
 20
3.5312
  0
VERTEX
  8
LAYER1
 62
     7
  6
CONTINUOUS
 10
10.0386
 20
3.5312
  0
VERTEX
  8
LAYER1
 62
     7
  6
CONTINUOUS
 10
10.0386
 20
3.5312
  0
VERTEX
  8
LAYER1
 62
     7
  6
CONTINUOUS
 10
10.0386
 20
3.5312
  0
VERTEX
  8
LAYER1
 62
     7
  6
CONTINUOUS
 10
10.0386
 20
3.5312
  0
VERTEX
  8
LAYER1
 62
     7
  6
CONTINUOUS
 10
10.0386
 20
3.5312
  0
VERTEX
  8
LAYER1
 62
     7
  6
CONTINUOUS
 10
10.0386
 20
3.5312
  0
VERTEX
  8
LAYER1
 62
     7
  6
CONTINUOUS
 10
10.0386
 20
3.5312
  0
VERTEX
  8
LAYER1
 62
     7
  6
CONTINUOUS
 10
10.0386
 20
3.5312
  0
VERTEX
  8
LAYER1
 62
     7
  6
CONTINUOUS
 10
10.0386
 20
3.5312
  0
VERTEX
  8
LAYER1
 62
     7
  6
CONTINUOUS
 10
10.0386
 20
3.5312
  0
VERTEX
  8
LAYER1
 62
     7
  6
CONTINUOUS
 10
10.0386
 20
3.5312
  0
VERTEX
  8
LAYER1
 62
     7
  6
CONTINUOUS
 10
10.0386
 20
3.5312
  0
VERTEX
  8
LAYER1
 62
     7
  6
CONTINUOUS
 10
10.0386
 20
3.5312
  0
VERTEX
  8
LAYER1
 62
     7
  6
CONTINUOUS
 10
10.0386
 20
3.5312
  0
VERTEX
  8
LAYER1
 62
     7
  6
CONTINUOUS
 10
10.0386
 20
3.5312
  0
VERTEX
  8
LAYER1
 62
     7
  6
CONTINUOUS
 10
10.0386
 20
3.5312
  0
VERTEX
  8
LAYER1
 62
     7
  6
CONTINUOUS
 10
10.0386
 20
3.5312
  0
VERTEX
  8
LAYER1
 62
     7
  6
CONTINUOUS
 10
10.0386
 20
3.5312
  0
VERTEX
  8
LAYER1
 62
     7
  6
CONTINUOUS
 10
10.0386
 20
3.5312
  0
VERTEX
  8
LAYER1
 62
     7
  6
CONTINUOUS
 10
10.0386
 20
3.5312
  0
VERTEX
  8
LAYER1
 62
     7
  6
CONTINUOUS
 10
10.0386
 20
3.5312
  0
VERTEX
  8
LAYER1
 62
     7
  6
CONTINUOUS
 10
10.0386
 20
3.5312
  0
SEQEND
  8
LAYER1
  0
POLYLINE
  8
LAYER1
 62
     7
 66
     1
  6
CONTINUOUS
  0
VERTEX
  8
LAYER1
 62
     7
  6
CONTINUOUS
 10
10.0386
 20
3.5312
  0
VERTEX
  8
LAYER1
 62
     7
  6
CONTINUOUS
 10
10.0390
 20
3.5320
  0
VERTEX
  8
LAYER1
 62
     7
  6
CONTINUOUS
 10
10.0395
 20
3.5329
  0
VERTEX
  8
LAYER1
 62
     7
  6
CONTINUOUS
 10
10.0400
 20
3.5337
  0
VERTEX
  8
LAYER1
 62
     7
  6
CONTINUOUS
 10
10.0404
 20
3.5345
  0
VERTEX
  8
LAYER1
 62
     7
  6
CONTINUOUS
 10
10.0408
 20
3.5352
  0
VERTEX
  8
LAYER1
 62
     7
  6
CONTINUOUS
 10
10.0412
 20
3.5359
  0
VERTEX
  8
LAYER1
 62
     7
  6
CONTINUOUS
 10
10.0416
 20
3.5366
  0
VERTEX
  8
LAYER1
 62
     7
  6
CONTINUOUS
 10
10.0419
 20
3.5372
  0
VERTEX
  8
LAYER1
 62
     7
  6
CONTINUOUS
 10
10.0422
 20
3.5377
  0
VERTEX
  8
LAYER1
 62
     7
  6
CONTINUOUS
 10
10.0424
 20
3.5381
  0
VERTEX
  8
LAYER1
 62
     7
  6
CONTINUOUS
 10
10.0426
 20
3.5385
  0
VERTEX
  8
LAYER1
 62
     7
  6
CONTINUOUS
 10
10.0428
 20
3.5387
  0
VERTEX
  8
LAYER1
 62
     7
  6
CONTINUOUS
 10
10.0428
 20
3.5388
  0
VERTEX
  8
LAYER1
 62
     7
  6
CONTINUOUS
 10
10.0429
 20
3.5389
  0
VERTEX
  8
LAYER1
 62
     7
  6
CONTINUOUS
 10
10.0429
 20
3.5390
  0
VERTEX
  8
LAYER1
 62
     7
  6
CONTINUOUS
 10
10.0429
 20
3.5390
  0
VERTEX
  8
LAYER1
 62
     7
  6
CONTINUOUS
 10
10.0429
 20
3.5390
  0
VERTEX
  8
LAYER1
 62
     7
  6
CONTINUOUS
 10
10.0429
 20
3.5390
  0
VERTEX
  8
LAYER1
 62
     7
  6
CONTINUOUS
 10
10.0429
 20
3.5390
  0
VERTEX
  8
LAYER1
 62
     7
  6
CONTINUOUS
 10
10.0429
 20
3.5389
  0
VERTEX
  8
LAYER1
 62
     7
  6
CONTINUOUS
 10
10.0428
 20
3.5389
  0
VERTEX
  8
LAYER1
 62
     7
  6
CONTINUOUS
 10
10.0428
 20
3.5389
  0
VERTEX
  8
LAYER1
 62
     7
  6
CONTINUOUS
 10
10.0428
 20
3.5388
  0
VERTEX
  8
LAYER1
 62
     7
  6
CONTINUOUS
 10
10.0428
 20
3.5387
  0
SEQEND
  8
LAYER1
  0
POLYLINE
  8
LAYER1
 62
     7
 66
     1
  6
CONTINUOUS
  0
VERTEX
  8
LAYER1
 62
     7
  6
CONTINUOUS
 10
10.0428
 20
3.5387
  0
VERTEX
  8
LAYER1
 62
     7
  6
CONTINUOUS
 10
10.0428
 20
3.5387
  0
VERTEX
  8
LAYER1
 62
     7
  6
CONTINUOUS
 10
10.0428
 20
3.5387
  0
VERTEX
  8
LAYER1
 62
     7
  6
CONTINUOUS
 10
10.0428
 20
3.5387
  0
VERTEX
  8
LAYER1
 62
     7
  6
CONTINUOUS
 10
10.0428
 20
3.5387
  0
VERTEX
  8
LAYER1
 62
     7
  6
CONTINUOUS
 10
10.0428
 20
3.5387
  0
VERTEX
  8
LAYER1
 62
     7
  6
CONTINUOUS
 10
10.0428
 20
3.5387
  0
VERTEX
  8
LAYER1
 62
     7
  6
CONTINUOUS
 10
10.0428
 20
3.5387
  0
VERTEX
  8
LAYER1
 62
     7
  6
CONTINUOUS
 10
10.0428
 20
3.5387
  0
VERTEX
  8
LAYER1
 62
     7
  6
CONTINUOUS
 10
10.0428
 20
3.5387
  0
VERTEX
  8
LAYER1
 62
     7
  6
CONTINUOUS
 10
10.0428
 20
3.5387
  0
VERTEX
  8
LAYER1
 62
     7
  6
CONTINUOUS
 10
10.0428
 20
3.5387
  0
VERTEX
  8
LAYER1
 62
     7
  6
CONTINUOUS
 10
10.0428
 20
3.5387
  0
VERTEX
  8
LAYER1
 62
     7
  6
CONTINUOUS
 10
10.0428
 20
3.5387
  0
VERTEX
  8
LAYER1
 62
     7
  6
CONTINUOUS
 10
10.0428
 20
3.5387
  0
VERTEX
  8
LAYER1
 62
     7
  6
CONTINUOUS
 10
10.0428
 20
3.5387
  0
VERTEX
  8
LAYER1
 62
     7
  6
CONTINUOUS
 10
10.0428
 20
3.5387
  0
VERTEX
  8
LAYER1
 62
     7
  6
CONTINUOUS
 10
10.0428
 20
3.5387
  0
VERTEX
  8
LAYER1
 62
     7
  6
CONTINUOUS
 10
10.0428
 20
3.5387
  0
VERTEX
  8
LAYER1
 62
     7
  6
CONTINUOUS
 10
10.0428
 20
3.5387
  0
VERTEX
  8
LAYER1
 62
     7
  6
CONTINUOUS
 10
10.0428
 20
3.5387
  0
VERTEX
  8
LAYER1
 62
     7
  6
CONTINUOUS
 10
10.0428
 20
3.5387
  0
VERTEX
  8
LAYER1
 62
     7
  6
CONTINUOUS
 10
10.0428
 20
3.5387
  0
VERTEX
  8
LAYER1
 62
     7
  6
CONTINUOUS
 10
10.0428
 20
3.5387
  0
VERTEX
  8
LAYER1
 62
     7
  6
CONTINUOUS
 10
10.0428
 20
3.5387
  0
SEQEND
  8
LAYER1
  0
POLYLINE
  8
LAYER1
 62
     7
 66
     1
  6
CONTINUOUS
  0
VERTEX
  8
LAYER1
 62
     7
  6
CONTINUOUS
 10
9.0561
 20
3.7453
  0
VERTEX
  8
LAYER1
 62
     7
  6
CONTINUOUS
 10
9.0561
 20
3.7453
  0
VERTEX
  8
LAYER1
 62
     7
  6
CONTINUOUS
 10
9.0561
 20
3.7453
  0
VERTEX
  8
LAYER1
 62
     7
  6
CONTINUOUS
 10
9.0561
 20
3.7453
  0
VERTEX
  8
LAYER1
 62
     7
  6
CONTINUOUS
 10
9.0561
 20
3.7454
  0
VERTEX
  8
LAYER1
 62
     7
  6
CONTINUOUS
 10
9.0561
 20
3.7454
  0
VERTEX
  8
LAYER1
 62
     7
  6
CONTINUOUS
 10
9.0561
 20
3.7454
  0
VERTEX
  8
LAYER1
 62
     7
  6
CONTINUOUS
 10
9.0560
 20
3.7454
  0
VERTEX
  8
LAYER1
 62
     7
  6
CONTINUOUS
 10
9.0560
 20
3.7454
  0
VERTEX
  8
LAYER1
 62
     7
  6
CONTINUOUS
 10
9.0560
 20
3.7454
  0
VERTEX
  8
LAYER1
 62
     7
  6
CONTINUOUS
 10
9.0560
 20
3.7454
  0
VERTEX
  8
LAYER1
 62
     7
  6
CONTINUOUS
 10
9.0560
 20
3.7454
  0
VERTEX
  8
LAYER1
 62
     7
  6
CONTINUOUS
 10
9.0560
 20
3.7454
  0
VERTEX
  8
LAYER1
 62
     7
  6
CONTINUOUS
 10
9.0557
 20
3.7455
  0
VERTEX
  8
LAYER1
 62
     7
  6
CONTINUOUS
 10
9.0555
 20
3.7456
  0
VERTEX
  8
LAYER1
 62
     7
  6
CONTINUOUS
 10
9.0553
 20
3.7456
  0
VERTEX
  8
LAYER1
 62
     7
  6
CONTINUOUS
 10
9.0553
 20
3.7456
  0
VERTEX
  8
LAYER1
 62
     7
  6
CONTINUOUS
 10
9.0552
 20
3.7457
  0
VERTEX
  8
LAYER1
 62
     7
  6
CONTINUOUS
 10
9.0552
 20
3.7456
  0
VERTEX
  8
LAYER1
 62
     7
  6
CONTINUOUS
 10
9.0553
 20
3.7456
  0
VERTEX
  8
LAYER1
 62
     7
  6
CONTINUOUS
 10
9.0554
 20
3.7456
  0
VERTEX
  8
LAYER1
 62
     7
  6
CONTINUOUS
 10
9.0555
 20
3.7455
  0
VERTEX
  8
LAYER1
 62
     7
  6
CONTINUOUS
 10
9.0557
 20
3.7455
  0
VERTEX
  8
LAYER1
 62
     7
  6
CONTINUOUS
 10
9.0558
 20
3.7454
  0
VERTEX
  8
LAYER1
 62
     7
  6
CONTINUOUS
 10
9.0560
 20
3.7454
  0
SEQEND
  8
LAYER1
  0
POLYLINE
  8
LAYER1
 62
     7
 66
     1
  6
CONTINUOUS
  0
VERTEX
  8
LAYER1
 62
     7
  6
CONTINUOUS
 10
9.0560
 20
3.7454
  0
VERTEX
  8
LAYER1
 62
     7
  6
CONTINUOUS
 10
9.0560
 20
3.7454
  0
VERTEX
  8
LAYER1
 62
     7
  6
CONTINUOUS
 10
9.0560
 20
3.7454
  0
VERTEX
  8
LAYER1
 62
     7
  6
CONTINUOUS
 10
9.0560
 20
3.7454
  0
VERTEX
  8
LAYER1
 62
     7
  6
CONTINUOUS
 10
9.0560
 20
3.7454
  0
VERTEX
  8
LAYER1
 62
     7
  6
CONTINUOUS
 10
9.0560
 20
3.7454
  0
VERTEX
  8
LAYER1
 62
     7
  6
CONTINUOUS
 10
9.0560
 20
3.7454
  0
VERTEX
  8
LAYER1
 62
     7
  6
CONTINUOUS
 10
9.0560
 20
3.7454
  0
VERTEX
  8
LAYER1
 62
     7
  6
CONTINUOUS
 10
9.0560
 20
3.7454
  0
VERTEX
  8
LAYER1
 62
     7
  6
CONTINUOUS
 10
9.0560
 20
3.7454
  0
VERTEX
  8
LAYER1
 62
     7
  6
CONTINUOUS
 10
9.0560
 20
3.7454
  0
VERTEX
  8
LAYER1
 62
     7
  6
CONTINUOUS
 10
9.0560
 20
3.7454
  0
VERTEX
  8
LAYER1
 62
     7
  6
CONTINUOUS
 10
9.0560
 20
3.7454
  0
VERTEX
  8
LAYER1
 62
     7
  6
CONTINUOUS
 10
9.0560
 20
3.7454
  0
VERTEX
  8
LAYER1
 62
     7
  6
CONTINUOUS
 10
9.0560
 20
3.7454
  0
VERTEX
  8
LAYER1
 62
     7
  6
CONTINUOUS
 10
9.0560
 20
3.7454
  0
VERTEX
  8
LAYER1
 62
     7
  6
CONTINUOUS
 10
9.0560
 20
3.7454
  0
VERTEX
  8
LAYER1
 62
     7
  6
CONTINUOUS
 10
9.0560
 20
3.7454
  0
VERTEX
  8
LAYER1
 62
     7
  6
CONTINUOUS
 10
9.0560
 20
3.7454
  0
VERTEX
  8
LAYER1
 62
     7
  6
CONTINUOUS
 10
9.0560
 20
3.7454
  0
VERTEX
  8
LAYER1
 62
     7
  6
CONTINUOUS
 10
9.0560
 20
3.7454
  0
VERTEX
  8
LAYER1
 62
     7
  6
CONTINUOUS
 10
9.0560
 20
3.7454
  0
VERTEX
  8
LAYER1
 62
     7
  6
CONTINUOUS
 10
9.0560
 20
3.7454
  0
VERTEX
  8
LAYER1
 62
     7
  6
CONTINUOUS
 10
9.0560
 20
3.7454
  0
VERTEX
  8
LAYER1
 62
     7
  6
CONTINUOUS
 10
9.0560
 20
3.7454
  0
SEQEND
  8
LAYER1
  0
POLYLINE
  8
LAYER1
 62
     7
 66
     1
  6
CONTINUOUS
  0
VERTEX
  8
LAYER1
 62
     7
  6
CONTINUOUS
 10
9.0560
 20
3.7454
  0
VERTEX
  8
LAYER1
 62
     7
  6
CONTINUOUS
 10
9.0560
 20
3.7454
  0
VERTEX
  8
LAYER1
 62
     7
  6
CONTINUOUS
 10
9.0560
 20
3.7454
  0
VERTEX
  8
LAYER1
 62
     7
  6
CONTINUOUS
 10
9.0560
 20
3.7454
  0
VERTEX
  8
LAYER1
 62
     7
  6
CONTINUOUS
 10
9.0560
 20
3.7454
  0
VERTEX
  8
LAYER1
 62
     7
  6
CONTINUOUS
 10
9.0560
 20
3.7454
  0
VERTEX
  8
LAYER1
 62
     7
  6
CONTINUOUS
 10
9.0560
 20
3.7454
  0
VERTEX
  8
LAYER1
 62
     7
  6
CONTINUOUS
 10
9.0560
 20
3.7454
  0
VERTEX
  8
LAYER1
 62
     7
  6
CONTINUOUS
 10
9.0560
 20
3.7454
  0
VERTEX
  8
LAYER1
 62
     7
  6
CONTINUOUS
 10
9.0560
 20
3.7454
  0
VERTEX
  8
LAYER1
 62
     7
  6
CONTINUOUS
 10
9.0560
 20
3.7454
  0
VERTEX
  8
LAYER1
 62
     7
  6
CONTINUOUS
 10
9.0560
 20
3.7454
  0
VERTEX
  8
LAYER1
 62
     7
  6
CONTINUOUS
 10
9.0560
 20
3.7454
  0
VERTEX
  8
LAYER1
 62
     7
  6
CONTINUOUS
 10
9.0560
 20
3.7450
  0
VERTEX
  8
LAYER1
 62
     7
  6
CONTINUOUS
 10
9.0560
 20
3.7448
  0
VERTEX
  8
LAYER1
 62
     7
  6
CONTINUOUS
 10
9.0560
 20
3.7446
  0
VERTEX
  8
LAYER1
 62
     7
  6
CONTINUOUS
 10
9.0560
 20
3.7445
  0
VERTEX
  8
LAYER1
 62
     7
  6
CONTINUOUS
 10
9.0560
 20
3.7445
  0
VERTEX
  8
LAYER1
 62
     7
  6
CONTINUOUS
 10
9.0560
 20
3.7445
  0
VERTEX
  8
LAYER1
 62
     7
  6
CONTINUOUS
 10
9.0560
 20
3.7446
  0
VERTEX
  8
LAYER1
 62
     7
  6
CONTINUOUS
 10
9.0560
 20
3.7447
  0
VERTEX
  8
LAYER1
 62
     7
  6
CONTINUOUS
 10
9.0560
 20
3.7448
  0
VERTEX
  8
LAYER1
 62
     7
  6
CONTINUOUS
 10
9.0560
 20
3.7450
  0
VERTEX
  8
LAYER1
 62
     7
  6
CONTINUOUS
 10
9.0560
 20
3.7452
  0
VERTEX
  8
LAYER1
 62
     7
  6
CONTINUOUS
 10
9.0560
 20
3.7454
  0
SEQEND
  8
LAYER1
  0
POLYLINE
  8
LAYER1
 62
     7
 66
     1
  6
CONTINUOUS
  0
VERTEX
  8
LAYER1
 62
     7
  6
CONTINUOUS
 10
9.0560
 20
3.7454
  0
VERTEX
  8
LAYER1
 62
     7
  6
CONTINUOUS
 10
9.0619
 20
3.7436
  0
VERTEX
  8
LAYER1
 62
     7
  6
CONTINUOUS
 10
9.0678
 20
3.7418
  0
VERTEX
  8
LAYER1
 62
     7
  6
CONTINUOUS
 10
9.0737
 20
3.7399
  0
VERTEX
  8
LAYER1
 62
     7
  6
CONTINUOUS
 10
9.0798
 20
3.7379
  0
VERTEX
  8
LAYER1
 62
     7
  6
CONTINUOUS
 10
9.0860
 20
3.7358
  0
VERTEX
  8
LAYER1
 62
     7
  6
CONTINUOUS
 10
9.0923
 20
3.7336
  0
VERTEX
  8
LAYER1
 62
     7
  6
CONTINUOUS
 10
9.0988
 20
3.7312
  0
VERTEX
  8
LAYER1
 62
     7
  6
CONTINUOUS
 10
9.1056
 20
3.7285
  0
VERTEX
  8
LAYER1
 62
     7
  6
CONTINUOUS
 10
9.1126
 20
3.7256
  0
VERTEX
  8
LAYER1
 62
     7
  6
CONTINUOUS
 10
9.1198
 20
3.7224
  0
VERTEX
  8
LAYER1
 62
     7
  6
CONTINUOUS
 10
9.1274
 20
3.7190
  0
VERTEX
  8
LAYER1
 62
     7
  6
CONTINUOUS
 10
9.1353
 20
3.7151
  0
VERTEX
  8
LAYER1
 62
     7
  6
CONTINUOUS
 10
9.1432
 20
3.7111
  0
VERTEX
  8
LAYER1
 62
     7
  6
CONTINUOUS
 10
9.1512
 20
3.7069
  0
VERTEX
  8
LAYER1
 62
     7
  6
CONTINUOUS
 10
9.1593
 20
3.7026
  0
VERTEX
  8
LAYER1
 62
     7
  6
CONTINUOUS
 10
9.1672
 20
3.6983
  0
VERTEX
  8
LAYER1
 62
     7
  6
CONTINUOUS
 10
9.1748
 20
3.6940
  0
VERTEX
  8
LAYER1
 62
     7
  6
CONTINUOUS
 10
9.1819
 20
3.6900
  0
VERTEX
  8
LAYER1
 62
     7
  6
CONTINUOUS
 10
9.1884
 20
3.6863
  0
VERTEX
  8
LAYER1
 62
     7
  6
CONTINUOUS
 10
9.1942
 20
3.6830
  0
VERTEX
  8
LAYER1
 62
     7
  6
CONTINUOUS
 10
9.1990
 20
3.6802
  0
VERTEX
  8
LAYER1
 62
     7
  6
CONTINUOUS
 10
9.2026
 20
3.6780
  0
VERTEX
  8
LAYER1
 62
     7
  6
CONTINUOUS
 10
9.2051
 20
3.6766
  0
VERTEX
  8
LAYER1
 62
     7
  6
CONTINUOUS
 10
9.2061
 20
3.6761
  0
VERTEX
  8
LAYER1
 62
     7
  6
CONTINUOUS
 10
9.2061
 20
3.6761
  0
VERTEX
  8
LAYER1
 62
     7
  6
CONTINUOUS
 10
9.2061
 20
3.6761
  0
VERTEX
  8
LAYER1
 62
     7
  6
CONTINUOUS
 10
9.2061
 20
3.6761
  0
VERTEX
  8
LAYER1
 62
     7
  6
CONTINUOUS
 10
9.2061
 20
3.6761
  0
VERTEX
  8
LAYER1
 62
     7
  6
CONTINUOUS
 10
9.2061
 20
3.6761
  0
VERTEX
  8
LAYER1
 62
     7
  6
CONTINUOUS
 10
9.2061
 20
3.6761
  0
VERTEX
  8
LAYER1
 62
     7
  6
CONTINUOUS
 10
9.2061
 20
3.6761
  0
VERTEX
  8
LAYER1
 62
     7
  6
CONTINUOUS
 10
9.2061
 20
3.6761
  0
VERTEX
  8
LAYER1
 62
     7
  6
CONTINUOUS
 10
9.2061
 20
3.6761
  0
VERTEX
  8
LAYER1
 62
     7
  6
CONTINUOUS
 10
9.2061
 20
3.6761
  0
VERTEX
  8
LAYER1
 62
     7
  6
CONTINUOUS
 10
9.2061
 20
3.6761
  0
VERTEX
  8
LAYER1
 62
     7
  6
CONTINUOUS
 10
9.2061
 20
3.6761
  0
VERTEX
  8
LAYER1
 62
     7
  6
CONTINUOUS
 10
9.2069
 20
3.6751
  0
VERTEX
  8
LAYER1
 62
     7
  6
CONTINUOUS
 10
9.2091
 20
3.6726
  0
VERTEX
  8
LAYER1
 62
     7
  6
CONTINUOUS
 10
9.2125
 20
3.6688
  0
VERTEX
  8
LAYER1
 62
     7
  6
CONTINUOUS
 10
9.2169
 20
3.6638
  0
VERTEX
  8
LAYER1
 62
     7
  6
CONTINUOUS
 10
9.2221
 20
3.6578
  0
VERTEX
  8
LAYER1
 62
     7
  6
CONTINUOUS
 10
9.2281
 20
3.6509
  0
VERTEX
  8
LAYER1
 62
     7
  6
CONTINUOUS
 10
9.2344
 20
3.6434
  0
VERTEX
  8
LAYER1
 62
     7
  6
CONTINUOUS
 10
9.2411
 20
3.6355
  0
VERTEX
  8
LAYER1
 62
     7
  6
CONTINUOUS
 10
9.2479
 20
3.6271
  0
VERTEX
  8
LAYER1
 62
     7
  6
CONTINUOUS
 10
9.2547
 20
3.6186
  0
VERTEX
  8
LAYER1
 62
     7
  6
CONTINUOUS
 10
9.2612
 20
3.6102
  0
VERTEX
  8
LAYER1
 62
     7
  6
CONTINUOUS
 10
9.2673
 20
3.6018
  0
VERTEX
  8
LAYER1
 62
     7
  6
CONTINUOUS
 10
9.2720
 20
3.5951
  0
VERTEX
  8
LAYER1
 62
     7
  6
CONTINUOUS
 10
9.2763
 20
3.5886
  0
VERTEX
  8
LAYER1
 62
     7
  6
CONTINUOUS
 10
9.2803
 20
3.5823
  0
VERTEX
  8
LAYER1
 62
     7
  6
CONTINUOUS
 10
9.2839
 20
3.5762
  0
VERTEX
  8
LAYER1
 62
     7
  6
CONTINUOUS
 10
9.2873
 20
3.5702
  0
VERTEX
  8
LAYER1
 62
     7
  6
CONTINUOUS
 10
9.2904
 20
3.5644
  0
VERTEX
  8
LAYER1
 62
     7
  6
CONTINUOUS
 10
9.2933
 20
3.5587
  0
VERTEX
  8
LAYER1
 62
     7
  6
CONTINUOUS
 10
9.2961
 20
3.5531
  0
VERTEX
  8
LAYER1
 62
     7
  6
CONTINUOUS
 10
9.2987
 20
3.5475
  0
VERTEX
  8
LAYER1
 62
     7
  6
CONTINUOUS
 10
9.3012
 20
3.5421
  0
VERTEX
  8
LAYER1
 62
     7
  6
CONTINUOUS
 10
9.3037
 20
3.5366
  0
VERTEX
  8
LAYER1
 62
     7
  6
CONTINUOUS
 10
9.3061
 20
3.5312
  0
SEQEND
  8
LAYER1
  0
POLYLINE
  8
LAYER1
 62
     7
 66
     1
  6
CONTINUOUS
  0
VERTEX
  8
LAYER1
 62
     7
  6
CONTINUOUS
 10
9.3061
 20
3.5312
  0
VERTEX
  8
LAYER1
 62
     7
  6
CONTINUOUS
 10
9.3061
 20
3.5312
  0
VERTEX
  8
LAYER1
 62
     7
  6
CONTINUOUS
 10
9.3061
 20
3.5312
  0
VERTEX
  8
LAYER1
 62
     7
  6
CONTINUOUS
 10
9.3061
 20
3.5312
  0
VERTEX
  8
LAYER1
 62
     7
  6
CONTINUOUS
 10
9.3061
 20
3.5312
  0
VERTEX
  8
LAYER1
 62
     7
  6
CONTINUOUS
 10
9.3061
 20
3.5312
  0
VERTEX
  8
LAYER1
 62
     7
  6
CONTINUOUS
 10
9.3061
 20
3.5312
  0
VERTEX
  8
LAYER1
 62
     7
  6
CONTINUOUS
 10
9.3061
 20
3.5312
  0
VERTEX
  8
LAYER1
 62
     7
  6
CONTINUOUS
 10
9.3061
 20
3.5312
  0
VERTEX
  8
LAYER1
 62
     7
  6
CONTINUOUS
 10
9.3061
 20
3.5312
  0
VERTEX
  8
LAYER1
 62
     7
  6
CONTINUOUS
 10
9.3061
 20
3.5312
  0
VERTEX
  8
LAYER1
 62
     7
  6
CONTINUOUS
 10
9.3061
 20
3.5312
  0
VERTEX
  8
LAYER1
 62
     7
  6
CONTINUOUS
 10
9.3061
 20
3.5312
  0
VERTEX
  8
LAYER1
 62
     7
  6
CONTINUOUS
 10
9.3064
 20
3.5312
  0
VERTEX
  8
LAYER1
 62
     7
  6
CONTINUOUS
 10
9.3066
 20
3.5312
  0
VERTEX
  8
LAYER1
 62
     7
  6
CONTINUOUS
 10
9.3068
 20
3.5312
  0
VERTEX
  8
LAYER1
 62
     7
  6
CONTINUOUS
 10
9.3069
 20
3.5312
  0
VERTEX
  8
LAYER1
 62
     7
  6
CONTINUOUS
 10
9.3069
 20
3.5312
  0
VERTEX
  8
LAYER1
 62
     7
  6
CONTINUOUS
 10
9.3069
 20
3.5312
  0
VERTEX
  8
LAYER1
 62
     7
  6
CONTINUOUS
 10
9.3068
 20
3.5312
  0
VERTEX
  8
LAYER1
 62
     7
  6
CONTINUOUS
 10
9.3067
 20
3.5312
  0
VERTEX
  8
LAYER1
 62
     7
  6
CONTINUOUS
 10
9.3066
 20
3.5312
  0
VERTEX
  8
LAYER1
 62
     7
  6
CONTINUOUS
 10
9.3064
 20
3.5312
  0
VERTEX
  8
LAYER1
 62
     7
  6
CONTINUOUS
 10
9.3063
 20
3.5312
  0
VERTEX
  8
LAYER1
 62
     7
  6
CONTINUOUS
 10
9.3061
 20
3.5312
  0
SEQEND
  8
LAYER1
  0
POLYLINE
  8
LAYER1
 62
     7
 66
     1
  6
CONTINUOUS
  0
VERTEX
  8
LAYER1
 62
     7
  6
CONTINUOUS
 10
9.3061
 20
3.5312
  0
VERTEX
  8
LAYER1
 62
     7
  6
CONTINUOUS
 10
9.3061
 20
3.5312
  0
VERTEX
  8
LAYER1
 62
     7
  6
CONTINUOUS
 10
9.3061
 20
3.5312
  0
VERTEX
  8
LAYER1
 62
     7
  6
CONTINUOUS
 10
9.3061
 20
3.5312
  0
VERTEX
  8
LAYER1
 62
     7
  6
CONTINUOUS
 10
9.3061
 20
3.5312
  0
VERTEX
  8
LAYER1
 62
     7
  6
CONTINUOUS
 10
9.3061
 20
3.5312
  0
VERTEX
  8
LAYER1
 62
     7
  6
CONTINUOUS
 10
9.3061
 20
3.5312
  0
VERTEX
  8
LAYER1
 62
     7
  6
CONTINUOUS
 10
9.3061
 20
3.5312
  0
VERTEX
  8
LAYER1
 62
     7
  6
CONTINUOUS
 10
9.3061
 20
3.5312
  0
VERTEX
  8
LAYER1
 62
     7
  6
CONTINUOUS
 10
9.3061
 20
3.5312
  0
VERTEX
  8
LAYER1
 62
     7
  6
CONTINUOUS
 10
9.3061
 20
3.5312
  0
VERTEX
  8
LAYER1
 62
     7
  6
CONTINUOUS
 10
9.3061
 20
3.5312
  0
VERTEX
  8
LAYER1
 62
     7
  6
CONTINUOUS
 10
9.3061
 20
3.5312
  0
VERTEX
  8
LAYER1
 62
     7
  6
CONTINUOUS
 10
9.3061
 20
3.5312
  0
VERTEX
  8
LAYER1
 62
     7
  6
CONTINUOUS
 10
9.3061
 20
3.5312
  0
VERTEX
  8
LAYER1
 62
     7
  6
CONTINUOUS
 10
9.3061
 20
3.5312
  0
VERTEX
  8
LAYER1
 62
     7
  6
CONTINUOUS
 10
9.3061
 20
3.5312
  0
VERTEX
  8
LAYER1
 62
     7
  6
CONTINUOUS
 10
9.3061
 20
3.5312
  0
VERTEX
  8
LAYER1
 62
     7
  6
CONTINUOUS
 10
9.3061
 20
3.5312
  0
VERTEX
  8
LAYER1
 62
     7
  6
CONTINUOUS
 10
9.3061
 20
3.5312
  0
VERTEX
  8
LAYER1
 62
     7
  6
CONTINUOUS
 10
9.3061
 20
3.5312
  0
VERTEX
  8
LAYER1
 62
     7
  6
CONTINUOUS
 10
9.3061
 20
3.5312
  0
VERTEX
  8
LAYER1
 62
     7
  6
CONTINUOUS
 10
9.3061
 20
3.5312
  0
VERTEX
  8
LAYER1
 62
     7
  6
CONTINUOUS
 10
9.3061
 20
3.5312
  0
VERTEX
  8
LAYER1
 62
     7
  6
CONTINUOUS
 10
9.3061
 20
3.5312
  0
SEQEND
  8
LAYER1
  0
POLYLINE
  8
LAYER1
 62
     7
 66
     1
  6
CONTINUOUS
  0
VERTEX
  8
LAYER1
 62
     7
  6
CONTINUOUS
 10
9.4075
 20
3.5312
  0
VERTEX
  8
LAYER1
 62
     7
  6
CONTINUOUS
 10
9.4075
 20
3.5312
  0
VERTEX
  8
LAYER1
 62
     7
  6
CONTINUOUS
 10
9.4075
 20
3.5312
  0
VERTEX
  8
LAYER1
 62
     7
  6
CONTINUOUS
 10
9.4075
 20
3.5312
  0
VERTEX
  8
LAYER1
 62
     7
  6
CONTINUOUS
 10
9.4075
 20
3.5312
  0
VERTEX
  8
LAYER1
 62
     7
  6
CONTINUOUS
 10
9.4075
 20
3.5312
  0
VERTEX
  8
LAYER1
 62
     7
  6
CONTINUOUS
 10
9.4075
 20
3.5312
  0
VERTEX
  8
LAYER1
 62
     7
  6
CONTINUOUS
 10
9.4075
 20
3.5312
  0
VERTEX
  8
LAYER1
 62
     7
  6
CONTINUOUS
 10
9.4075
 20
3.5312
  0
VERTEX
  8
LAYER1
 62
     7
  6
CONTINUOUS
 10
9.4075
 20
3.5312
  0
VERTEX
  8
LAYER1
 62
     7
  6
CONTINUOUS
 10
9.4075
 20
3.5312
  0
VERTEX
  8
LAYER1
 62
     7
  6
CONTINUOUS
 10
9.4075
 20
3.5312
  0
VERTEX
  8
LAYER1
 62
     7
  6
CONTINUOUS
 10
9.4075
 20
3.5312
  0
VERTEX
  8
LAYER1
 62
     7
  6
CONTINUOUS
 10
9.4075
 20
3.5312
  0
VERTEX
  8
LAYER1
 62
     7
  6
CONTINUOUS
 10
9.4075
 20
3.5312
  0
VERTEX
  8
LAYER1
 62
     7
  6
CONTINUOUS
 10
9.4075
 20
3.5312
  0
VERTEX
  8
LAYER1
 62
     7
  6
CONTINUOUS
 10
9.4075
 20
3.5312
  0
VERTEX
  8
LAYER1
 62
     7
  6
CONTINUOUS
 10
9.4075
 20
3.5312
  0
VERTEX
  8
LAYER1
 62
     7
  6
CONTINUOUS
 10
9.4075
 20
3.5312
  0
VERTEX
  8
LAYER1
 62
     7
  6
CONTINUOUS
 10
9.4075
 20
3.5312
  0
VERTEX
  8
LAYER1
 62
     7
  6
CONTINUOUS
 10
9.4075
 20
3.5312
  0
VERTEX
  8
LAYER1
 62
     7
  6
CONTINUOUS
 10
9.4075
 20
3.5312
  0
VERTEX
  8
LAYER1
 62
     7
  6
CONTINUOUS
 10
9.4075
 20
3.5312
  0
VERTEX
  8
LAYER1
 62
     7
  6
CONTINUOUS
 10
9.4075
 20
3.5312
  0
VERTEX
  8
LAYER1
 62
     7
  6
CONTINUOUS
 10
9.4075
 20
3.5312
  0
SEQEND
  8
LAYER1
  0
POLYLINE
  8
LAYER1
 62
     7
 66
     1
  6
CONTINUOUS
  0
VERTEX
  8
LAYER1
 62
     7
  6
CONTINUOUS
 10
9.4075
 20
3.5312
  0
VERTEX
  8
LAYER1
 62
     7
  6
CONTINUOUS
 10
9.4030
 20
3.5380
  0
VERTEX
  8
LAYER1
 62
     7
  6
CONTINUOUS
 10
9.3984
 20
3.5448
  0
VERTEX
  8
LAYER1
 62
     7
  6
CONTINUOUS
 10
9.3938
 20
3.5516
  0
VERTEX
  8
LAYER1
 62
     7
  6
CONTINUOUS
 10
9.3892
 20
3.5584
  0
VERTEX
  8
LAYER1
 62
     7
  6
CONTINUOUS
 10
9.3847
 20
3.5652
  0
VERTEX
  8
LAYER1
 62
     7
  6
CONTINUOUS
 10
9.3801
 20
3.5720
  0
VERTEX
  8
LAYER1
 62
     7
  6
CONTINUOUS
 10
9.3755
 20
3.5788
  0
VERTEX
  8
LAYER1
 62
     7
  6
CONTINUOUS
 10
9.3709
 20
3.5856
  0
VERTEX
  8
LAYER1
 62
     7
  6
CONTINUOUS
 10
9.3663
 20
3.5925
  0
VERTEX
  8
LAYER1
 62
     7
  6
CONTINUOUS
 10
9.3616
 20
3.5994
  0
VERTEX
  8
LAYER1
 62
     7
  6
CONTINUOUS
 10
9.3570
 20
3.6062
  0
VERTEX
  8
LAYER1
 62
     7
  6
CONTINUOUS
 10
9.3523
 20
3.6131
  0
VERTEX
  8
LAYER1
 62
     7
  6
CONTINUOUS
 10
9.3453
 20
3.6236
  0
VERTEX
  8
LAYER1
 62
     7
  6
CONTINUOUS
 10
9.3381
 20
3.6341
  0
VERTEX
  8
LAYER1
 62
     7
  6
CONTINUOUS
 10
9.3309
 20
3.6445
  0
VERTEX
  8
LAYER1
 62
     7
  6
CONTINUOUS
 10
9.3235
 20
3.6548
  0
VERTEX
  8
LAYER1
 62
     7
  6
CONTINUOUS
 10
9.3159
 20
3.6650
  0
VERTEX
  8
LAYER1
 62
     7
  6
CONTINUOUS
 10
9.3082
 20
3.6749
  0
VERTEX
  8
LAYER1
 62
     7
  6
CONTINUOUS
 10
9.3002
 20
3.6846
  0
VERTEX
  8
LAYER1
 62
     7
  6
CONTINUOUS
 10
9.2919
 20
3.6939
  0
VERTEX
  8
LAYER1
 62
     7
  6
CONTINUOUS
 10
9.2833
 20
3.7029
  0
VERTEX
  8
LAYER1
 62
     7
  6
CONTINUOUS
 10
9.2744
 20
3.7114
  0
VERTEX
  8
LAYER1
 62
     7
  6
CONTINUOUS
 10
9.2651
 20
3.7194
  0
VERTEX
  8
LAYER1
 62
     7
  6
CONTINUOUS
 10
9.2554
 20
3.7269
  0
VERTEX
  8
LAYER1
 62
     7
  6
CONTINUOUS
 10
9.2468
 20
3.7329
  0
VERTEX
  8
LAYER1
 62
     7
  6
CONTINUOUS
 10
9.2379
 20
3.7385
  0
VERTEX
  8
LAYER1
 62
     7
  6
CONTINUOUS
 10
9.2287
 20
3.7437
  0
VERTEX
  8
LAYER1
 62
     7
  6
CONTINUOUS
 10
9.2193
 20
3.7485
  0
VERTEX
  8
LAYER1
 62
     7
  6
CONTINUOUS
 10
9.2097
 20
3.7531
  0
VERTEX
  8
LAYER1
 62
     7
  6
CONTINUOUS
 10
9.1999
 20
3.7575
  0
VERTEX
  8
LAYER1
 62
     7
  6
CONTINUOUS
 10
9.1900
 20
3.7616
  0
VERTEX
  8
LAYER1
 62
     7
  6
CONTINUOUS
 10
9.1799
 20
3.7656
  0
VERTEX
  8
LAYER1
 62
     7
  6
CONTINUOUS
 10
9.1698
 20
3.7694
  0
VERTEX
  8
LAYER1
 62
     7
  6
CONTINUOUS
 10
9.1597
 20
3.7731
  0
VERTEX
  8
LAYER1
 62
     7
  6
CONTINUOUS
 10
9.1495
 20
3.7767
  0
VERTEX
  8
LAYER1
 62
     7
  6
CONTINUOUS
 10
9.1393
 20
3.7803
  0
VERTEX
  8
LAYER1
 62
     7
  6
CONTINUOUS
 10
9.1323
 20
3.7828
  0
VERTEX
  8
LAYER1
 62
     7
  6
CONTINUOUS
 10
9.1253
 20
3.7853
  0
VERTEX
  8
LAYER1
 62
     7
  6
CONTINUOUS
 10
9.1183
 20
3.7878
  0
VERTEX
  8
LAYER1
 62
     7
  6
CONTINUOUS
 10
9.1114
 20
3.7903
  0
VERTEX
  8
LAYER1
 62
     7
  6
CONTINUOUS
 10
9.1044
 20
3.7928
  0
VERTEX
  8
LAYER1
 62
     7
  6
CONTINUOUS
 10
9.0975
 20
3.7953
  0
VERTEX
  8
LAYER1
 62
     7
  6
CONTINUOUS
 10
9.0906
 20
3.7979
  0
VERTEX
  8
LAYER1
 62
     7
  6
CONTINUOUS
 10
9.0836
 20
3.8004
  0
VERTEX
  8
LAYER1
 62
     7
  6
CONTINUOUS
 10
9.0767
 20
3.8029
  0
VERTEX
  8
LAYER1
 62
     7
  6
CONTINUOUS
 10
9.0698
 20
3.8054
  0
VERTEX
  8
LAYER1
 62
     7
  6
CONTINUOUS
 10
9.0629
 20
3.8079
  0
VERTEX
  8
LAYER1
 62
     7
  6
CONTINUOUS
 10
9.0560
 20
3.8104
  0
SEQEND
  8
LAYER1
  0
POLYLINE
  8
LAYER1
 62
     7
 66
     1
  6
CONTINUOUS
  0
VERTEX
  8
LAYER1
 62
     7
  6
CONTINUOUS
 10
9.0560
 20
3.8104
  0
VERTEX
  8
LAYER1
 62
     7
  6
CONTINUOUS
 10
9.0560
 20
3.8104
  0
VERTEX
  8
LAYER1
 62
     7
  6
CONTINUOUS
 10
9.0560
 20
3.8104
  0
VERTEX
  8
LAYER1
 62
     7
  6
CONTINUOUS
 10
9.0560
 20
3.8104
  0
VERTEX
  8
LAYER1
 62
     7
  6
CONTINUOUS
 10
9.0560
 20
3.8104
  0
VERTEX
  8
LAYER1
 62
     7
  6
CONTINUOUS
 10
9.0560
 20
3.8104
  0
VERTEX
  8
LAYER1
 62
     7
  6
CONTINUOUS
 10
9.0561
 20
3.8104
  0
VERTEX
  8
LAYER1
 62
     7
  6
CONTINUOUS
 10
9.0561
 20
3.8104
  0
VERTEX
  8
LAYER1
 62
     7
  6
CONTINUOUS
 10
9.0561
 20
3.8104
  0
VERTEX
  8
LAYER1
 62
     7
  6
CONTINUOUS
 10
9.0561
 20
3.8104
  0
VERTEX
  8
LAYER1
 62
     7
  6
CONTINUOUS
 10
9.0561
 20
3.8104
  0
VERTEX
  8
LAYER1
 62
     7
  6
CONTINUOUS
 10
9.0561
 20
3.8104
  0
VERTEX
  8
LAYER1
 62
     7
  6
CONTINUOUS
 10
9.0561
 20
3.8104
  0
VERTEX
  8
LAYER1
 62
     7
  6
CONTINUOUS
 10
9.0564
 20
3.8103
  0
VERTEX
  8
LAYER1
 62
     7
  6
CONTINUOUS
 10
9.0566
 20
3.8102
  0
VERTEX
  8
LAYER1
 62
     7
  6
CONTINUOUS
 10
9.0568
 20
3.8101
  0
VERTEX
  8
LAYER1
 62
     7
  6
CONTINUOUS
 10
9.0569
 20
3.8101
  0
VERTEX
  8
LAYER1
 62
     7
  6
CONTINUOUS
 10
9.0569
 20
3.8101
  0
VERTEX
  8
LAYER1
 62
     7
  6
CONTINUOUS
 10
9.0569
 20
3.8101
  0
VERTEX
  8
LAYER1
 62
     7
  6
CONTINUOUS
 10
9.0568
 20
3.8101
  0
VERTEX
  8
LAYER1
 62
     7
  6
CONTINUOUS
 10
9.0567
 20
3.8102
  0
VERTEX
  8
LAYER1
 62
     7
  6
CONTINUOUS
 10
9.0566
 20
3.8102
  0
VERTEX
  8
LAYER1
 62
     7
  6
CONTINUOUS
 10
9.0564
 20
3.8103
  0
VERTEX
  8
LAYER1
 62
     7
  6
CONTINUOUS
 10
9.0563
 20
3.8103
  0
VERTEX
  8
LAYER1
 62
     7
  6
CONTINUOUS
 10
9.0561
 20
3.8104
  0
SEQEND
  8
LAYER1
  0
POLYLINE
  8
LAYER1
 62
     7
 66
     1
  6
CONTINUOUS
  0
VERTEX
  8
LAYER1
 62
     7
  6
CONTINUOUS
 10
9.0560
 20
3.7454
  0
VERTEX
  8
LAYER1
 62
     7
  6
CONTINUOUS
 10
9.0560
 20
3.7454
  0
VERTEX
  8
LAYER1
 62
     7
  6
CONTINUOUS
 10
9.0560
 20
3.7454
  0
VERTEX
  8
LAYER1
 62
     7
  6
CONTINUOUS
 10
9.0560
 20
3.7454
  0
VERTEX
  8
LAYER1
 62
     7
  6
CONTINUOUS
 10
9.0560
 20
3.7454
  0
VERTEX
  8
LAYER1
 62
     7
  6
CONTINUOUS
 10
9.0560
 20
3.7454
  0
VERTEX
  8
LAYER1
 62
     7
  6
CONTINUOUS
 10
9.0560
 20
3.7454
  0
VERTEX
  8
LAYER1
 62
     7
  6
CONTINUOUS
 10
9.0560
 20
3.7454
  0
VERTEX
  8
LAYER1
 62
     7
  6
CONTINUOUS
 10
9.0560
 20
3.7454
  0
VERTEX
  8
LAYER1
 62
     7
  6
CONTINUOUS
 10
9.0560
 20
3.7454
  0
VERTEX
  8
LAYER1
 62
     7
  6
CONTINUOUS
 10
9.0560
 20
3.7454
  0
VERTEX
  8
LAYER1
 62
     7
  6
CONTINUOUS
 10
9.0560
 20
3.7454
  0
VERTEX
  8
LAYER1
 62
     7
  6
CONTINUOUS
 10
9.0560
 20
3.7454
  0
VERTEX
  8
LAYER1
 62
     7
  6
CONTINUOUS
 10
9.0560
 20
3.7450
  0
VERTEX
  8
LAYER1
 62
     7
  6
CONTINUOUS
 10
9.0560
 20
3.7448
  0
VERTEX
  8
LAYER1
 62
     7
  6
CONTINUOUS
 10
9.0560
 20
3.7446
  0
VERTEX
  8
LAYER1
 62
     7
  6
CONTINUOUS
 10
9.0560
 20
3.7445
  0
VERTEX
  8
LAYER1
 62
     7
  6
CONTINUOUS
 10
9.0560
 20
3.7445
  0
VERTEX
  8
LAYER1
 62
     7
  6
CONTINUOUS
 10
9.0560
 20
3.7445
  0
VERTEX
  8
LAYER1
 62
     7
  6
CONTINUOUS
 10
9.0560
 20
3.7446
  0
VERTEX
  8
LAYER1
 62
     7
  6
CONTINUOUS
 10
9.0560
 20
3.7447
  0
VERTEX
  8
LAYER1
 62
     7
  6
CONTINUOUS
 10
9.0560
 20
3.7448
  0
VERTEX
  8
LAYER1
 62
     7
  6
CONTINUOUS
 10
9.0560
 20
3.7450
  0
VERTEX
  8
LAYER1
 62
     7
  6
CONTINUOUS
 10
9.0560
 20
3.7452
  0
VERTEX
  8
LAYER1
 62
     7
  6
CONTINUOUS
 10
9.0560
 20
3.7454
  0
SEQEND
  8
LAYER1
  0
POLYLINE
  8
LAYER1
 62
     7
 66
     1
  6
CONTINUOUS
  0
VERTEX
  8
LAYER1
 62
     7
  6
CONTINUOUS
 10
9.0560
 20
3.7454
  0
VERTEX
  8
LAYER1
 62
     7
  6
CONTINUOUS
 10
9.0560
 20
3.7454
  0
VERTEX
  8
LAYER1
 62
     7
  6
CONTINUOUS
 10
9.0560
 20
3.7454
  0
VERTEX
  8
LAYER1
 62
     7
  6
CONTINUOUS
 10
9.0560
 20
3.7454
  0
VERTEX
  8
LAYER1
 62
     7
  6
CONTINUOUS
 10
9.0560
 20
3.7454
  0
VERTEX
  8
LAYER1
 62
     7
  6
CONTINUOUS
 10
9.0560
 20
3.7454
  0
VERTEX
  8
LAYER1
 62
     7
  6
CONTINUOUS
 10
9.0561
 20
3.7454
  0
VERTEX
  8
LAYER1
 62
     7
  6
CONTINUOUS
 10
9.0561
 20
3.7454
  0
VERTEX
  8
LAYER1
 62
     7
  6
CONTINUOUS
 10
9.0561
 20
3.7453
  0
VERTEX
  8
LAYER1
 62
     7
  6
CONTINUOUS
 10
9.0561
 20
3.7453
  0
VERTEX
  8
LAYER1
 62
     7
  6
CONTINUOUS
 10
9.0561
 20
3.7453
  0
VERTEX
  8
LAYER1
 62
     7
  6
CONTINUOUS
 10
9.0561
 20
3.7453
  0
VERTEX
  8
LAYER1
 62
     7
  6
CONTINUOUS
 10
9.0561
 20
3.7453
  0
VERTEX
  8
LAYER1
 62
     7
  6
CONTINUOUS
 10
9.0564
 20
3.7453
  0
VERTEX
  8
LAYER1
 62
     7
  6
CONTINUOUS
 10
9.0566
 20
3.7452
  0
VERTEX
  8
LAYER1
 62
     7
  6
CONTINUOUS
 10
9.0568
 20
3.7451
  0
VERTEX
  8
LAYER1
 62
     7
  6
CONTINUOUS
 10
9.0569
 20
3.7451
  0
VERTEX
  8
LAYER1
 62
     7
  6
CONTINUOUS
 10
9.0569
 20
3.7451
  0
VERTEX
  8
LAYER1
 62
     7
  6
CONTINUOUS
 10
9.0569
 20
3.7451
  0
VERTEX
  8
LAYER1
 62
     7
  6
CONTINUOUS
 10
9.0568
 20
3.7451
  0
VERTEX
  8
LAYER1
 62
     7
  6
CONTINUOUS
 10
9.0567
 20
3.7452
  0
VERTEX
  8
LAYER1
 62
     7
  6
CONTINUOUS
 10
9.0566
 20
3.7452
  0
VERTEX
  8
LAYER1
 62
     7
  6
CONTINUOUS
 10
9.0564
 20
3.7452
  0
VERTEX
  8
LAYER1
 62
     7
  6
CONTINUOUS
 10
9.0563
 20
3.7453
  0
VERTEX
  8
LAYER1
 62
     7
  6
CONTINUOUS
 10
9.0561
 20
3.7453
  0
SEQEND
  8
LAYER1
  0
POLYLINE
  8
LAYER1
 62
     7
 66
     1
  6
CONTINUOUS
  0
VERTEX
  8
LAYER1
 62
     7
  6
CONTINUOUS
 10
9.0561
 20
3.8104
  0
VERTEX
  8
LAYER1
 62
     7
  6
CONTINUOUS
 10
9.0561
 20
3.8104
  0
VERTEX
  8
LAYER1
 62
     7
  6
CONTINUOUS
 10
9.0561
 20
3.8104
  0
VERTEX
  8
LAYER1
 62
     7
  6
CONTINUOUS
 10
9.0561
 20
3.8104
  0
VERTEX
  8
LAYER1
 62
     7
  6
CONTINUOUS
 10
9.0561
 20
3.8104
  0
VERTEX
  8
LAYER1
 62
     7
  6
CONTINUOUS
 10
9.0561
 20
3.8104
  0
VERTEX
  8
LAYER1
 62
     7
  6
CONTINUOUS
 10
9.0561
 20
3.8104
  0
VERTEX
  8
LAYER1
 62
     7
  6
CONTINUOUS
 10
9.0560
 20
3.8104
  0
VERTEX
  8
LAYER1
 62
     7
  6
CONTINUOUS
 10
9.0560
 20
3.8104
  0
VERTEX
  8
LAYER1
 62
     7
  6
CONTINUOUS
 10
9.0560
 20
3.8104
  0
VERTEX
  8
LAYER1
 62
     7
  6
CONTINUOUS
 10
9.0560
 20
3.8104
  0
VERTEX
  8
LAYER1
 62
     7
  6
CONTINUOUS
 10
9.0560
 20
3.8104
  0
VERTEX
  8
LAYER1
 62
     7
  6
CONTINUOUS
 10
9.0560
 20
3.8104
  0
VERTEX
  8
LAYER1
 62
     7
  6
CONTINUOUS
 10
9.0557
 20
3.8105
  0
VERTEX
  8
LAYER1
 62
     7
  6
CONTINUOUS
 10
9.0555
 20
3.8106
  0
VERTEX
  8
LAYER1
 62
     7
  6
CONTINUOUS
 10
9.0553
 20
3.8107
  0
VERTEX
  8
LAYER1
 62
     7
  6
CONTINUOUS
 10
9.0553
 20
3.8107
  0
VERTEX
  8
LAYER1
 62
     7
  6
CONTINUOUS
 10
9.0552
 20
3.8107
  0
VERTEX
  8
LAYER1
 62
     7
  6
CONTINUOUS
 10
9.0552
 20
3.8107
  0
VERTEX
  8
LAYER1
 62
     7
  6
CONTINUOUS
 10
9.0553
 20
3.8107
  0
VERTEX
  8
LAYER1
 62
     7
  6
CONTINUOUS
 10
9.0554
 20
3.8106
  0
VERTEX
  8
LAYER1
 62
     7
  6
CONTINUOUS
 10
9.0555
 20
3.8106
  0
VERTEX
  8
LAYER1
 62
     7
  6
CONTINUOUS
 10
9.0557
 20
3.8105
  0
VERTEX
  8
LAYER1
 62
     7
  6
CONTINUOUS
 10
9.0559
 20
3.8105
  0
VERTEX
  8
LAYER1
 62
     7
  6
CONTINUOUS
 10
9.0560
 20
3.8104
  0
SEQEND
  8
LAYER1
  0
POLYLINE
  8
LAYER1
 62
     7
 66
     1
  6
CONTINUOUS
  0
VERTEX
  8
LAYER1
 62
     7
  6
CONTINUOUS
 10
9.0560
 20
3.8104
  0
VERTEX
  8
LAYER1
 62
     7
  6
CONTINUOUS
 10
9.0560
 20
3.8104
  0
VERTEX
  8
LAYER1
 62
     7
  6
CONTINUOUS
 10
9.0560
 20
3.8104
  0
VERTEX
  8
LAYER1
 62
     7
  6
CONTINUOUS
 10
9.0560
 20
3.8104
  0
VERTEX
  8
LAYER1
 62
     7
  6
CONTINUOUS
 10
9.0560
 20
3.8104
  0
VERTEX
  8
LAYER1
 62
     7
  6
CONTINUOUS
 10
9.0560
 20
3.8104
  0
VERTEX
  8
LAYER1
 62
     7
  6
CONTINUOUS
 10
9.0560
 20
3.8104
  0
VERTEX
  8
LAYER1
 62
     7
  6
CONTINUOUS
 10
9.0560
 20
3.8104
  0
VERTEX
  8
LAYER1
 62
     7
  6
CONTINUOUS
 10
9.0560
 20
3.8104
  0
VERTEX
  8
LAYER1
 62
     7
  6
CONTINUOUS
 10
9.0560
 20
3.8104
  0
VERTEX
  8
LAYER1
 62
     7
  6
CONTINUOUS
 10
9.0560
 20
3.8104
  0
VERTEX
  8
LAYER1
 62
     7
  6
CONTINUOUS
 10
9.0560
 20
3.8104
  0
VERTEX
  8
LAYER1
 62
     7
  6
CONTINUOUS
 10
9.0560
 20
3.8104
  0
VERTEX
  8
LAYER1
 62
     7
  6
CONTINUOUS
 10
9.0560
 20
3.8104
  0
VERTEX
  8
LAYER1
 62
     7
  6
CONTINUOUS
 10
9.0560
 20
3.8104
  0
VERTEX
  8
LAYER1
 62
     7
  6
CONTINUOUS
 10
9.0560
 20
3.8104
  0
VERTEX
  8
LAYER1
 62
     7
  6
CONTINUOUS
 10
9.0560
 20
3.8104
  0
VERTEX
  8
LAYER1
 62
     7
  6
CONTINUOUS
 10
9.0560
 20
3.8104
  0
VERTEX
  8
LAYER1
 62
     7
  6
CONTINUOUS
 10
9.0560
 20
3.8104
  0
VERTEX
  8
LAYER1
 62
     7
  6
CONTINUOUS
 10
9.0560
 20
3.8104
  0
VERTEX
  8
LAYER1
 62
     7
  6
CONTINUOUS
 10
9.0560
 20
3.8104
  0
VERTEX
  8
LAYER1
 62
     7
  6
CONTINUOUS
 10
9.0560
 20
3.8104
  0
VERTEX
  8
LAYER1
 62
     7
  6
CONTINUOUS
 10
9.0560
 20
3.8104
  0
VERTEX
  8
LAYER1
 62
     7
  6
CONTINUOUS
 10
9.0560
 20
3.8104
  0
VERTEX
  8
LAYER1
 62
     7
  6
CONTINUOUS
 10
9.0560
 20
3.8104
  0
SEQEND
  8
LAYER1
  0
POLYLINE
  8
LAYER1
 62
     7
 66
     1
  6
CONTINUOUS
  0
VERTEX
  8
LAYER1
 62
     7
  6
CONTINUOUS
 10
9.0561
 20
4.5561
  0
VERTEX
  8
LAYER1
 62
     7
  6
CONTINUOUS
 10
9.0560
 20
4.5561
  0
SEQEND
  8
LAYER1
  0
POLYLINE
  8
LAYER1
 62
     7
 66
     1
  6
CONTINUOUS
  0
VERTEX
  8
LAYER1
 62
     7
  6
CONTINUOUS
 10
9.0560
 20
4.5561
  0
VERTEX
  8
LAYER1
 62
     7
  6
CONTINUOUS
 10
9.0560
 20
4.5561
  0
SEQEND
  8
LAYER1
  0
POLYLINE
  8
LAYER1
 62
     7
 66
     1
  6
CONTINUOUS
  0
VERTEX
  8
LAYER1
 62
     7
  6
CONTINUOUS
 10
9.0560
 20
4.5561
  0
VERTEX
  8
LAYER1
 62
     7
  6
CONTINUOUS
 10
9.0560
 20
4.5561
  0
SEQEND
  8
LAYER1
  0
POLYLINE
  8
LAYER1
 62
     7
 66
     1
  6
CONTINUOUS
  0
VERTEX
  8
LAYER1
 62
     7
  6
CONTINUOUS
 10
9.0560
 20
4.5561
  0
VERTEX
  8
LAYER1
 62
     7
  6
CONTINUOUS
 10
10.0388
 20
4.5561
  0
SEQEND
  8
LAYER1
  0
POLYLINE
  8
LAYER1
 62
     7
 66
     1
  6
CONTINUOUS
  0
VERTEX
  8
LAYER1
 62
     7
  6
CONTINUOUS
 10
10.0388
 20
4.5561
  0
VERTEX
  8
LAYER1
 62
     7
  6
CONTINUOUS
 10
10.0428
 20
4.5561
  0
SEQEND
  8
LAYER1
  0
POLYLINE
  8
LAYER1
 62
     7
 66
     1
  6
CONTINUOUS
  0
VERTEX
  8
LAYER1
 62
     7
  6
CONTINUOUS
 10
9.0560
 20
4.5561
  0
VERTEX
  8
LAYER1
 62
     7
  6
CONTINUOUS
 10
9.0561
 20
4.5561
  0
SEQEND
  8
LAYER1
  0
ARC
  8
LAYER1
 62
     7
  6
CONTINUOUS
 10
10.0532
 20
3.8944
 40
0.0159
 50
130.9509
 51
-130.9606
  0
POLYLINE
  8
LAYER10
 62
     1
 66
     1
  6
CONTINUOUS
  0
VERTEX
  8
LAYER10
 62
     1
  6
CONTINUOUS
 10
10.0035
 20
3.8584
  0
VERTEX
  8
LAYER10
 62
     1
  6
CONTINUOUS
 10
10.0082
 20
3.8571
  0
VERTEX
  8
LAYER10
 62
     1
  6
CONTINUOUS
 10
10.0129
 20
3.8559
  0
VERTEX
  8
LAYER10
 62
     1
  6
CONTINUOUS
 10
10.0174
 20
3.8548
  0
VERTEX
  8
LAYER10
 62
     1
  6
CONTINUOUS
 10
10.0218
 20
3.8536
  0
VERTEX
  8
LAYER10
 62
     1
  6
CONTINUOUS
 10
10.0259
 20
3.8526
  0
VERTEX
  8
LAYER10
 62
     1
  6
CONTINUOUS
 10
10.0297
 20
3.8516
  0
VERTEX
  8
LAYER10
 62
     1
  6
CONTINUOUS
 10
10.0332
 20
3.8507
  0
VERTEX
  8
LAYER10
 62
     1
  6
CONTINUOUS
 10
10.0362
 20
3.8499
  0
VERTEX
  8
LAYER10
 62
     1
  6
CONTINUOUS
 10
10.0387
 20
3.8493
  0
VERTEX
  8
LAYER10
 62
     1
  6
CONTINUOUS
 10
10.0407
 20
3.8488
  0
VERTEX
  8
LAYER10
 62
     1
  6
CONTINUOUS
 10
10.0421
 20
3.8484
  0
VERTEX
  8
LAYER10
 62
     1
  6
CONTINUOUS
 10
10.0428
 20
3.8482
  0
VERTEX
  8
LAYER10
 62
     1
  6
CONTINUOUS
 10
10.0428
 20
3.8482
  0
VERTEX
  8
LAYER10
 62
     1
  6
CONTINUOUS
 10
10.0428
 20
3.8482
  0
VERTEX
  8
LAYER10
 62
     1
  6
CONTINUOUS
 10
10.0428
 20
3.8482
  0
VERTEX
  8
LAYER10
 62
     1
  6
CONTINUOUS
 10
10.0428
 20
3.8482
  0
VERTEX
  8
LAYER10
 62
     1
  6
CONTINUOUS
 10
10.0428
 20
3.8482
  0
VERTEX
  8
LAYER10
 62
     1
  6
CONTINUOUS
 10
10.0428
 20
3.8482
  0
VERTEX
  8
LAYER10
 62
     1
  6
CONTINUOUS
 10
10.0428
 20
3.8482
  0
VERTEX
  8
LAYER10
 62
     1
  6
CONTINUOUS
 10
10.0428
 20
3.8482
  0
VERTEX
  8
LAYER10
 62
     1
  6
CONTINUOUS
 10
10.0428
 20
3.8482
  0
VERTEX
  8
LAYER10
 62
     1
  6
CONTINUOUS
 10
10.0428
 20
3.8482
  0
VERTEX
  8
LAYER10
 62
     1
  6
CONTINUOUS
 10
10.0428
 20
3.8482
  0
VERTEX
  8
LAYER10
 62
     1
  6
CONTINUOUS
 10
10.0428
 20
3.8482
  0
SEQEND
  8
LAYER10
  0
POLYLINE
  8
LAYER10
 62
     1
 66
     1
  6
CONTINUOUS
  0
VERTEX
  8
LAYER10
 62
     1
  6
CONTINUOUS
 10
10.0428
 20
3.8482
  0
VERTEX
  8
LAYER10
 62
     1
  6
CONTINUOUS
 10
10.0428
 20
3.8482
  0
VERTEX
  8
LAYER10
 62
     1
  6
CONTINUOUS
 10
10.0428
 20
3.8482
  0
VERTEX
  8
LAYER10
 62
     1
  6
CONTINUOUS
 10
10.0428
 20
3.8482
  0
VERTEX
  8
LAYER10
 62
     1
  6
CONTINUOUS
 10
10.0428
 20
3.8482
  0
VERTEX
  8
LAYER10
 62
     1
  6
CONTINUOUS
 10
10.0428
 20
3.8482
  0
VERTEX
  8
LAYER10
 62
     1
  6
CONTINUOUS
 10
10.0428
 20
3.8482
  0
VERTEX
  8
LAYER10
 62
     1
  6
CONTINUOUS
 10
10.0428
 20
3.8482
  0
VERTEX
  8
LAYER10
 62
     1
  6
CONTINUOUS
 10
10.0428
 20
3.8482
  0
VERTEX
  8
LAYER10
 62
     1
  6
CONTINUOUS
 10
10.0428
 20
3.8482
  0
VERTEX
  8
LAYER10
 62
     1
  6
CONTINUOUS
 10
10.0428
 20
3.8482
  0
VERTEX
  8
LAYER10
 62
     1
  6
CONTINUOUS
 10
10.0428
 20
3.8482
  0
VERTEX
  8
LAYER10
 62
     1
  6
CONTINUOUS
 10
10.0428
 20
3.8482
  0
VERTEX
  8
LAYER10
 62
     1
  6
CONTINUOUS
 10
10.0428
 20
3.8482
  0
VERTEX
  8
LAYER10
 62
     1
  6
CONTINUOUS
 10
10.0428
 20
3.8482
  0
VERTEX
  8
LAYER10
 62
     1
  6
CONTINUOUS
 10
10.0428
 20
3.8482
  0
VERTEX
  8
LAYER10
 62
     1
  6
CONTINUOUS
 10
10.0428
 20
3.8482
  0
VERTEX
  8
LAYER10
 62
     1
  6
CONTINUOUS
 10
10.0428
 20
3.8482
  0
VERTEX
  8
LAYER10
 62
     1
  6
CONTINUOUS
 10
10.0428
 20
3.8482
  0
VERTEX
  8
LAYER10
 62
     1
  6
CONTINUOUS
 10
10.0428
 20
3.8482
  0
VERTEX
  8
LAYER10
 62
     1
  6
CONTINUOUS
 10
10.0428
 20
3.8482
  0
VERTEX
  8
LAYER10
 62
     1
  6
CONTINUOUS
 10
10.0428
 20
3.8482
  0
VERTEX
  8
LAYER10
 62
     1
  6
CONTINUOUS
 10
10.0428
 20
3.8482
  0
VERTEX
  8
LAYER10
 62
     1
  6
CONTINUOUS
 10
10.0428
 20
3.8482
  0
VERTEX
  8
LAYER10
 62
     1
  6
CONTINUOUS
 10
10.0428
 20
3.8482
  0
SEQEND
  8
LAYER10
  0
POLYLINE
  8
LAYER10
 62
     1
 66
     1
  6
CONTINUOUS
  0
VERTEX
  8
LAYER10
 62
     1
  6
CONTINUOUS
 10
10.0428
 20
3.6241
  0
VERTEX
  8
LAYER10
 62
     1
  6
CONTINUOUS
 10
10.0419
 20
3.6235
  0
VERTEX
  8
LAYER10
 62
     1
  6
CONTINUOUS
 10
10.0411
 20
3.6229
  0
VERTEX
  8
LAYER10
 62
     1
  6
CONTINUOUS
 10
10.0403
 20
3.6223
  0
VERTEX
  8
LAYER10
 62
     1
  6
CONTINUOUS
 10
10.0394
 20
3.6217
  0
VERTEX
  8
LAYER10
 62
     1
  6
CONTINUOUS
 10
10.0386
 20
3.6211
  0
VERTEX
  8
LAYER10
 62
     1
  6
CONTINUOUS
 10
10.0377
 20
3.6205
  0
VERTEX
  8
LAYER10
 62
     1
  6
CONTINUOUS
 10
10.0369
 20
3.6200
  0
VERTEX
  8
LAYER10
 62
     1
  6
CONTINUOUS
 10
10.0360
 20
3.6194
  0
VERTEX
  8
LAYER10
 62
     1
  6
CONTINUOUS
 10
10.0352
 20
3.6189
  0
VERTEX
  8
LAYER10
 62
     1
  6
CONTINUOUS
 10
10.0343
 20
3.6184
  0
VERTEX
  8
LAYER10
 62
     1
  6
CONTINUOUS
 10
10.0334
 20
3.6179
  0
VERTEX
  8
LAYER10
 62
     1
  6
CONTINUOUS
 10
10.0326
 20
3.6174
  0
VERTEX
  8
LAYER10
 62
     1
  6
CONTINUOUS
 10
10.0289
 20
3.6156
  0
VERTEX
  8
LAYER10
 62
     1
  6
CONTINUOUS
 10
10.0251
 20
3.6142
  0
VERTEX
  8
LAYER10
 62
     1
  6
CONTINUOUS
 10
10.0211
 20
3.6131
  0
VERTEX
  8
LAYER10
 62
     1
  6
CONTINUOUS
 10
10.0171
 20
3.6123
  0
VERTEX
  8
LAYER10
 62
     1
  6
CONTINUOUS
 10
10.0130
 20
3.6117
  0
VERTEX
  8
LAYER10
 62
     1
  6
CONTINUOUS
 10
10.0088
 20
3.6113
  0
VERTEX
  8
LAYER10
 62
     1
  6
CONTINUOUS
 10
10.0045
 20
3.6111
  0
VERTEX
  8
LAYER10
 62
     1
  6
CONTINUOUS
 10
10.0002
 20
3.6110
  0
VERTEX
  8
LAYER10
 62
     1
  6
CONTINUOUS
 10
9.9958
 20
3.6111
  0
VERTEX
  8
LAYER10
 62
     1
  6
CONTINUOUS
 10
9.9913
 20
3.6112
  0
VERTEX
  8
LAYER10
 62
     1
  6
CONTINUOUS
 10
9.9869
 20
3.6114
  0
VERTEX
  8
LAYER10
 62
     1
  6
CONTINUOUS
 10
9.9824
 20
3.6115
  0
VERTEX
  8
LAYER10
 62
     1
  6
CONTINUOUS
 10
9.9778
 20
3.6117
  0
VERTEX
  8
LAYER10
 62
     1
  6
CONTINUOUS
 10
9.9732
 20
3.6118
  0
VERTEX
  8
LAYER10
 62
     1
  6
CONTINUOUS
 10
9.9686
 20
3.6120
  0
VERTEX
  8
LAYER10
 62
     1
  6
CONTINUOUS
 10
9.9641
 20
3.6123
  0
VERTEX
  8
LAYER10
 62
     1
  6
CONTINUOUS
 10
9.9596
 20
3.6127
  0
VERTEX
  8
LAYER10
 62
     1
  6
CONTINUOUS
 10
9.9552
 20
3.6131
  0
VERTEX
  8
LAYER10
 62
     1
  6
CONTINUOUS
 10
9.9509
 20
3.6138
  0
VERTEX
  8
LAYER10
 62
     1
  6
CONTINUOUS
 10
9.9468
 20
3.6147
  0
VERTEX
  8
LAYER10
 62
     1
  6
CONTINUOUS
 10
9.9428
 20
3.6158
  0
VERTEX
  8
LAYER10
 62
     1
  6
CONTINUOUS
 10
9.9390
 20
3.6171
  0
VERTEX
  8
LAYER10
 62
     1
  6
CONTINUOUS
 10
9.9353
 20
3.6188
  0
VERTEX
  8
LAYER10
 62
     1
  6
CONTINUOUS
 10
9.9319
 20
3.6208
  0
VERTEX
  8
LAYER10
 62
     1
  6
CONTINUOUS
 10
9.9285
 20
3.6233
  0
VERTEX
  8
LAYER10
 62
     1
  6
CONTINUOUS
 10
9.9254
 20
3.6261
  0
VERTEX
  8
LAYER10
 62
     1
  6
CONTINUOUS
 10
9.9225
 20
3.6293
  0
VERTEX
  8
LAYER10
 62
     1
  6
CONTINUOUS
 10
9.9197
 20
3.6328
  0
VERTEX
  8
LAYER10
 62
     1
  6
CONTINUOUS
 10
9.9171
 20
3.6365
  0
VERTEX
  8
LAYER10
 62
     1
  6
CONTINUOUS
 10
9.9147
 20
3.6404
  0
VERTEX
  8
LAYER10
 62
     1
  6
CONTINUOUS
 10
9.9123
 20
3.6444
  0
VERTEX
  8
LAYER10
 62
     1
  6
CONTINUOUS
 10
9.9100
 20
3.6486
  0
VERTEX
  8
LAYER10
 62
     1
  6
CONTINUOUS
 10
9.9078
 20
3.6528
  0
VERTEX
  8
LAYER10
 62
     1
  6
CONTINUOUS
 10
9.9055
 20
3.6571
  0
VERTEX
  8
LAYER10
 62
     1
  6
CONTINUOUS
 10
9.9033
 20
3.6613
  0
VERTEX
  8
LAYER10
 62
     1
  6
CONTINUOUS
 10
9.9010
 20
3.6655
  0
VERTEX
  8
LAYER10
 62
     1
  6
CONTINUOUS
 10
9.8990
 20
3.6689
  0
VERTEX
  8
LAYER10
 62
     1
  6
CONTINUOUS
 10
9.8971
 20
3.6723
  0
VERTEX
  8
LAYER10
 62
     1
  6
CONTINUOUS
 10
9.8951
 20
3.6756
  0
VERTEX
  8
LAYER10
 62
     1
  6
CONTINUOUS
 10
9.8931
 20
3.6789
  0
VERTEX
  8
LAYER10
 62
     1
  6
CONTINUOUS
 10
9.8912
 20
3.6821
  0
VERTEX
  8
LAYER10
 62
     1
  6
CONTINUOUS
 10
9.8893
 20
3.6854
  0
VERTEX
  8
LAYER10
 62
     1
  6
CONTINUOUS
 10
9.8875
 20
3.6886
  0
VERTEX
  8
LAYER10
 62
     1
  6
CONTINUOUS
 10
9.8858
 20
3.6919
  0
VERTEX
  8
LAYER10
 62
     1
  6
CONTINUOUS
 10
9.8842
 20
3.6952
  0
VERTEX
  8
LAYER10
 62
     1
  6
CONTINUOUS
 10
9.8827
 20
3.6986
  0
VERTEX
  8
LAYER10
 62
     1
  6
CONTINUOUS
 10
9.8814
 20
3.7020
  0
VERTEX
  8
LAYER10
 62
     1
  6
CONTINUOUS
 10
9.8802
 20
3.7054
  0
VERTEX
  8
LAYER10
 62
     1
  6
CONTINUOUS
 10
9.8789
 20
3.7102
  0
VERTEX
  8
LAYER10
 62
     1
  6
CONTINUOUS
 10
9.8780
 20
3.7151
  0
VERTEX
  8
LAYER10
 62
     1
  6
CONTINUOUS
 10
9.8774
 20
3.7202
  0
VERTEX
  8
LAYER10
 62
     1
  6
CONTINUOUS
 10
9.8771
 20
3.7252
  0
VERTEX
  8
LAYER10
 62
     1
  6
CONTINUOUS
 10
9.8770
 20
3.7304
  0
VERTEX
  8
LAYER10
 62
     1
  6
CONTINUOUS
 10
9.8773
 20
3.7356
  0
VERTEX
  8
LAYER10
 62
     1
  6
CONTINUOUS
 10
9.8778
 20
3.7407
  0
VERTEX
  8
LAYER10
 62
     1
  6
CONTINUOUS
 10
9.8786
 20
3.7459
  0
VERTEX
  8
LAYER10
 62
     1
  6
CONTINUOUS
 10
9.8797
 20
3.7510
  0
VERTEX
  8
LAYER10
 62
     1
  6
CONTINUOUS
 10
9.8810
 20
3.7560
  0
VERTEX
  8
LAYER10
 62
     1
  6
CONTINUOUS
 10
9.8825
 20
3.7610
  0
VERTEX
  8
LAYER10
 62
     1
  6
CONTINUOUS
 10
9.8843
 20
3.7659
  0
VERTEX
  8
LAYER10
 62
     1
  6
CONTINUOUS
 10
9.8860
 20
3.7701
  0
VERTEX
  8
LAYER10
 62
     1
  6
CONTINUOUS
 10
9.8879
 20
3.7743
  0
VERTEX
  8
LAYER10
 62
     1
  6
CONTINUOUS
 10
9.8899
 20
3.7783
  0
VERTEX
  8
LAYER10
 62
     1
  6
CONTINUOUS
 10
9.8921
 20
3.7823
  0
VERTEX
  8
LAYER10
 62
     1
  6
CONTINUOUS
 10
9.8944
 20
3.7862
  0
VERTEX
  8
LAYER10
 62
     1
  6
CONTINUOUS
 10
9.8969
 20
3.7900
  0
VERTEX
  8
LAYER10
 62
     1
  6
CONTINUOUS
 10
9.8994
 20
3.7938
  0
VERTEX
  8
LAYER10
 62
     1
  6
CONTINUOUS
 10
9.9021
 20
3.7974
  0
VERTEX
  8
LAYER10
 62
     1
  6
CONTINUOUS
 10
9.9049
 20
3.8011
  0
VERTEX
  8
LAYER10
 62
     1
  6
CONTINUOUS
 10
9.9077
 20
3.8046
  0
VERTEX
  8
LAYER10
 62
     1
  6
CONTINUOUS
 10
9.9107
 20
3.8082
  0
VERTEX
  8
LAYER10
 62
     1
  6
CONTINUOUS
 10
9.9137
 20
3.8116
  0
VERTEX
  8
LAYER10
 62
     1
  6
CONTINUOUS
 10
9.9169
 20
3.8153
  0
VERTEX
  8
LAYER10
 62
     1
  6
CONTINUOUS
 10
9.9203
 20
3.8188
  0
VERTEX
  8
LAYER10
 62
     1
  6
CONTINUOUS
 10
9.9237
 20
3.8223
  0
VERTEX
  8
LAYER10
 62
     1
  6
CONTINUOUS
 10
9.9272
 20
3.8257
  0
VERTEX
  8
LAYER10
 62
     1
  6
CONTINUOUS
 10
9.9307
 20
3.8290
  0
VERTEX
  8
LAYER10
 62
     1
  6
CONTINUOUS
 10
9.9344
 20
3.8322
  0
VERTEX
  8
LAYER10
 62
     1
  6
CONTINUOUS
 10
9.9382
 20
3.8352
  0
VERTEX
  8
LAYER10
 62
     1
  6
CONTINUOUS
 10
9.9420
 20
3.8381
  0
VERTEX
  8
LAYER10
 62
     1
  6
CONTINUOUS
 10
9.9459
 20
3.8408
  0
VERTEX
  8
LAYER10
 62
     1
  6
CONTINUOUS
 10
9.9500
 20
3.8433
  0
VERTEX
  8
LAYER10
 62
     1
  6
CONTINUOUS
 10
9.9541
 20
3.8455
  0
VERTEX
  8
LAYER10
 62
     1
  6
CONTINUOUS
 10
9.9584
 20
3.8476
  0
VERTEX
  8
LAYER10
 62
     1
  6
CONTINUOUS
 10
9.9619
 20
3.8490
  0
VERTEX
  8
LAYER10
 62
     1
  6
CONTINUOUS
 10
9.9655
 20
3.8504
  0
VERTEX
  8
LAYER10
 62
     1
  6
CONTINUOUS
 10
9.9691
 20
3.8516
  0
VERTEX
  8
LAYER10
 62
     1
  6
CONTINUOUS
 10
9.9728
 20
3.8526
  0
VERTEX
  8
LAYER10
 62
     1
  6
CONTINUOUS
 10
9.9765
 20
3.8536
  0
VERTEX
  8
LAYER10
 62
     1
  6
CONTINUOUS
 10
9.9803
 20
3.8544
  0
VERTEX
  8
LAYER10
 62
     1
  6
CONTINUOUS
 10
9.9841
 20
3.8552
  0
VERTEX
  8
LAYER10
 62
     1
  6
CONTINUOUS
 10
9.9879
 20
3.8559
  0
VERTEX
  8
LAYER10
 62
     1
  6
CONTINUOUS
 10
9.9918
 20
3.8566
  0
VERTEX
  8
LAYER10
 62
     1
  6
CONTINUOUS
 10
9.9957
 20
3.8572
  0
VERTEX
  8
LAYER10
 62
     1
  6
CONTINUOUS
 10
9.9996
 20
3.8578
  0
VERTEX
  8
LAYER10
 62
     1
  6
CONTINUOUS
 10
10.0035
 20
3.8584
  0
SEQEND
  8
LAYER10
  0
POLYLINE
  8
LAYER12
 62
     5
 66
     1
  6
CONTINUOUS
  0
VERTEX
  8
LAYER12
 62
     5
  6
CONTINUOUS
 10
9.0561
 20
4.5561
  0
VERTEX
  8
LAYER12
 62
     5
  6
CONTINUOUS
 10
9.0561
 20
4.5561
  0
SEQEND
  8
LAYER12
  0
POLYLINE
  8
LAYER12
 62
     5
 66
     1
  6
CONTINUOUS
  0
VERTEX
  8
LAYER12
 62
     5
  6
CONTINUOUS
 10
9.0561
 20
3.5448
  0
VERTEX
  8
LAYER12
 62
     5
  6
CONTINUOUS
 10
9.0561
 20
4.5561
  0
SEQEND
  8
LAYER12
  0
POLYLINE
  8
LAYER12
 62
     5
 66
     1
  6
CONTINUOUS
  0
VERTEX
  8
LAYER12
 62
     5
  6
CONTINUOUS
 10
9.0561
 20
3.5341
  0
VERTEX
  8
LAYER12
 62
     5
  6
CONTINUOUS
 10
9.0561
 20
3.5448
  0
SEQEND
  8
LAYER12
  0
POLYLINE
  8
LAYER12
 62
     5
 66
     1
  6
CONTINUOUS
  0
VERTEX
  8
LAYER12
 62
     5
  6
CONTINUOUS
 10
10.0428
 20
3.5331
  0
VERTEX
  8
LAYER12
 62
     5
  6
CONTINUOUS
 10
9.0570
 20
3.5331
  0
SEQEND
  8
LAYER12
  0
POLYLINE
  8
LAYER12
 62
     5
 66
     1
  6
CONTINUOUS
  0
VERTEX
  8
LAYER12
 62
     5
  6
CONTINUOUS
 10
9.0570
 20
3.5331
  0
VERTEX
  8
LAYER12
 62
     5
  6
CONTINUOUS
 10
9.0560
 20
3.5331
  0
SEQEND
  8
LAYER12
  0
POLYLINE
  8
LAYER12
 62
     5
 66
     1
  6
CONTINUOUS
  0
VERTEX
  8
LAYER12
 62
     5
  6
CONTINUOUS
 10
9.0560
 20
3.5331
  0
VERTEX
  8
LAYER12
 62
     5
  6
CONTINUOUS
 10
9.0561
 20
3.5331
  0
SEQEND
  8
LAYER12
  0
POLYLINE
  8
LAYER12
 62
     5
 66
     1
  6
CONTINUOUS
  0
VERTEX
  8
LAYER12
 62
     5
  6
CONTINUOUS
 10
9.0561
 20
3.5303
  0
VERTEX
  8
LAYER12
 62
     5
  6
CONTINUOUS
 10
9.0561
 20
3.5312
  0
SEQEND
  8
LAYER12
  0
POLYLINE
  8
LAYER12
 62
     5
 66
     1
  6
CONTINUOUS
  0
VERTEX
  8
LAYER12
 62
     5
  6
CONTINUOUS
 10
9.0561
 20
3.5312
  0
VERTEX
  8
LAYER12
 62
     5
  6
CONTINUOUS
 10
9.0561
 20
3.5341
  0
SEQEND
  8
LAYER12
  0
POLYLINE
  8
LAYER12
 62
     5
 66
     1
  6
CONTINUOUS
  0
VERTEX
  8
LAYER12
 62
     5
  6
CONTINUOUS
 10
9.0561
 20
3.5331
  0
VERTEX
  8
LAYER12
 62
     5
  6
CONTINUOUS
 10
9.0560
 20
3.5331
  0
SEQEND
  8
LAYER12
  0
POLYLINE
  8
LAYER12
 62
     5
 66
     1
  6
CONTINUOUS
  0
VERTEX
  8
LAYER12
 62
     5
  6
CONTINUOUS
 10
9.0561
 20
4.5561
  0
VERTEX
  8
LAYER12
 62
     5
  6
CONTINUOUS
 10
9.0560
 20
4.5561
  0
SEQEND
  8
LAYER12
  0
POLYLINE
  8
LAYER12
 62
     5
 66
     1
  6
CONTINUOUS
  0
VERTEX
  8
LAYER12
 62
     5
  6
CONTINUOUS
 10
9.0560
 20
4.5561
  0
VERTEX
  8
LAYER12
 62
     5
  6
CONTINUOUS
 10
9.0560
 20
4.5561
  0
SEQEND
  8
LAYER12
  0
POLYLINE
  8
LAYER12
 62
     5
 66
     1
  6
CONTINUOUS
  0
VERTEX
  8
LAYER12
 62
     5
  6
CONTINUOUS
 10
9.0560
 20
4.5561
  0
VERTEX
  8
LAYER12
 62
     5
  6
CONTINUOUS
 10
9.0560
 20
4.5561
  0
SEQEND
  8
LAYER12
  0
POLYLINE
  8
LAYER12
 62
     5
 66
     1
  6
CONTINUOUS
  0
VERTEX
  8
LAYER12
 62
     5
  6
CONTINUOUS
 10
9.0560
 20
4.5561
  0
VERTEX
  8
LAYER12
 62
     5
  6
CONTINUOUS
 10
10.0388
 20
4.5561
  0
SEQEND
  8
LAYER12
  0
POLYLINE
  8
LAYER12
 62
     5
 66
     1
  6
CONTINUOUS
  0
VERTEX
  8
LAYER12
 62
     5
  6
CONTINUOUS
 10
10.0388
 20
4.5561
  0
VERTEX
  8
LAYER12
 62
     5
  6
CONTINUOUS
 10
10.0428
 20
4.5561
  0
SEQEND
  8
LAYER12
  0
POLYLINE
  8
LAYER12
 62
     5
 66
     1
  6
CONTINUOUS
  0
VERTEX
  8
LAYER12
 62
     5
  6
CONTINUOUS
 10
9.0561
 20
4.5561
  0
VERTEX
  8
LAYER12
 62
     5
  6
CONTINUOUS
 10
9.0561
 20
4.5571
  0
SEQEND
  8
LAYER12
  0
POLYLINE
  8
LAYER12
 62
     5
 66
     1
  6
CONTINUOUS
  0
VERTEX
  8
LAYER12
 62
     5
  6
CONTINUOUS
 10
9.0560
 20
4.5561
  0
VERTEX
  8
LAYER12
 62
     5
  6
CONTINUOUS
 10
9.0561
 20
4.5561
  0
SEQEND
  8
LAYER12
  0
POLYLINE
  8
LAYER12
 62
     5
 66
     1
  6
CONTINUOUS
  0
VERTEX
  8
LAYER12
 62
     5
  6
CONTINUOUS
 10
10.0398
 20
4.5571
  0
VERTEX
  8
LAYER12
 62
     5
  6
CONTINUOUS
 10
10.0398
 20
3.5312
  0
SEQEND
  8
LAYER12
  0
ENDSEC
  0
EOF
