  0
SECTION
  2
HEADER
  9
$ACADVER
  1
AC1004
  9
$EXTMIN
 10
2.0518
 20
4.5557
  9
$EXTMAX
 10
3.0757
 20
5.5399
  9
$LIMMIN
 10
2.0518
 20
4.5557
  9
$LIMMAX
 10
3.0757
 20
5.5399
  9
$INSBASE
 10
0.0
 20
0.0
  9
$VIEWCTR
 10
7.21903
 20
4.5
  9
$VIEWSIZE
 40
9.0
  9
$SNAPMODE
 70
     0
  9
$SNAPUNIT
 10
1.0
 20
1.0
  9
$SNAPBASE
 10
0.0
 20
0.0
  9
$SNAPANG
 50
0.0
  9
$SNAPSTYLE
 70
     0
  9
$SNAPISOPAIR
 70
     0
  9
$GRIDMODE
 70
     0
  9
$GRIDUNIT
 10
0.0
 20
0.0
  9
$ORTHOMODE
 70
     0
  9
$REGENMODE
 70
     1
  9
$FILLMODE
 70
     1
  9
$QTEXTMODE
 70
     0
  9
$DRAGMODE
 70
     2
  9
$LTSCALE
 40
1.0
  9
$OSMODE
 70
     0
  9
$ATTMODE
 70
     1
  9
$TEXTSIZE
 40
0.2
  9
$TRACEWID
 40
0.05
  9
$TEXTSTYLE
  7
STANDARD
  9
$CLAYER
  8
0
  9
$CELTYPE
  6
BYLAYER
  9
$CECOLOR
 62
   256
  9
$DIMSCALE
 40
1.0
  9
$DIMASZ
 40
0.18
  9
$DIMEXO
 40
0.0625
  9
$DIMDLI
 40
0.38
  9
$DIMRND
 40
0.0
  9
$DIMDLE
 40
0.0
  9
$DIMEXE
 40
0.18
  9
$DIMTP
 40
0.0
  9
$DIMTM
 40
0.0
  9
$DIMTXT
 40
0.18
  9
$DIMCEN
 40
0.09
  9
$DIMTSZ
 40
0.0
  9
$DIMTOL
 70
     0
  9
$DIMLIM
 70
     0
  9
$DIMTIH
 70
     1
  9
$DIMTOH
 70
     1
  9
$DIMSE1
 70
     0
  9
$DIMSE2
 70
     0
  9
$DIMTAD
 70
     0
  9
$DIMZIN
 70
     0
  9
$DIMBLK
  1

  9
$DIMASO
 70
     1
  9
$DIMSHO
 70
     0
  9
$DIMPOST
  1

  9
$DIMAPOST
  1

  9
$DIMALT
 70
     0
  9
$DIMALTD
 70
     2
  9
$DIMALTF
 40
25.4
  9
$DIMLFAC
 40
1.0
  9
$LUNITS
 70
     2
  9
$LUPREC
 70
     4
  9
$AXISMODE
 70
     0
  9
$AXISUNIT
 10
0.0
 20
0.0
  9
$SKETCHINC
 40
0.1
  9
$FILLETRAD
 40
0.0
  9
$AUNITS
 70
     0
  9
$AUPREC
 70
     0
  9
$MENU
  1
acad
  9
$ELEVATION
 40
0.0
  9
$THICKNESS
 40
0.0
  9
$VIEWDIR
 10
0.0
 20
0.0
 30
1.0
  9
$LIMCHECK
 70
     0
  9
$BLIPMODE
 70
     1
  9
$CHAMFERA
 40
0.0
  9
$CHAMFERB
 40
0.0
  9
$FASTZOOM
 70
     1
  9
$SKPOLY
 70
     0
  9
$TDCREATE
 40
2447222.5666886573
  9
$TDUPDATE
 40
2447222.5666886573
  9
$TDINDWG
 40
0.0000000000
  9
$TDUSRTIMER
 40
0.0000000000
  9
$USRTIMER
 70
     1
  9
$ANGBASE
 50
0.0
  9
$ANGDIR
 70
     0
  9
$PDMODE
 70
     0
  9
$PDSIZE
 40
0.0
  9
$PLINEWID
 40
0.0
  9
$COORDS
 70
     0
  9
$SPLFRAME
 70
     0
  9
$SPLINESEGS
 70
     8
  9
$ATTDIA
 70
     0
  9
$ATTREQ
 70
     1
  9
$USERI1
 70
     0
  9
$USERI2
 70
     0
  9
$USERI3
 70
     0
  9
$USERI4
 70
     0
  9
$USERI5
 70
     0
  9
$USERR1
 40
0.0
  9
$USERR2
 40
0.0
  9
$USERR3
 40
0.0
  9
$USERR4
 40
0.0
  9
$USERR5
 40
0.0
  0
ENDSEC
  0
SECTION
  2
TABLES
  0
TABLE
  2
LTYPE
 70
     13
  0
LTYPE
  2
CONTINUOUS
 70
    64
  3
Solid line
 72
    65
 73
     0
 40
0.0
  0
LTYPE
  2
DASHED
 70
    64
  3
__ __ __ __ __ __ __ __ __ __ __ __ __ __ __
 72
    65
 73
     2
 40
0.75
 49
0.5
 49
-0.25
  0
LTYPE
  2
HIDDEN
 70
    64
  3
_ _ _ _ _ _ _ _ _ _ _ _ _ _ _ _ _ _ _ _ _ _ _
 72
    65
 73
     2
 40
0.375
 49
0.25
 49
-0.125
  0
LTYPE
  2
CENTER
 70
    64
  3
____ _ ____ _ ____ _ ____ _ ____ _ ____ _ ____
 72
    65
 73
     4
 40
2.0
 49
1.25
 49
-0.25
 49
0.25
 49
-0.25
  0
LTYPE
  2
PHANTOM
 70
    64
  3
_____ _ _ _____ _ _ _____ _ _ _____ _ _ ____
 72
    65
 73
     6
 40
2.5
 49
1.25
 49
-0.25
 49
0.25
 49
-0.25
 49
0.25
 49
-0.25
  0
LTYPE
  2
DOT
 70
    64
  3
...............................................
 72
    65
 73
     2
 40
0.25
 49
0.0
 49
-0.25
  0
LTYPE
  2
DASHDOT
 70
    64
  3
__ . __ . __ . __ . __ . __ . __ . __ . __ . __
 72
    65
 73
     4
 40
1.0
 49
0.5
 49
-0.25
 49
0.0
 49
-0.25
  0
LTYPE
  2
BORDER
 70
    64
  3
__ __ . __ __ . __ __ . __ __ . __ __ . __ __
 72
    65
 73
     6
 40
1.75
 49
0.5
 49
-0.25
 49
0.5
 49
-0.25
 49
0.0
 49
-0.25
  0
LTYPE
  2
DIVIDE
 70
    64
  3
__ . . __ . . __ . . __ . . __ . . __ . . __
 72
    65
 73
     6
 40
1.25
 49
0.5
 49
-0.25
 49
0.0
 49
-0.25
 49
0.0
 49
-0.25
  0
LTYPE
  2
DCTYPE1
 70
    64
  3
__ . . __ . . __ . . __ . . __ . . __ . . __
 72
    65
 73
     8
 40
2.5
 49
0.5
 49
-0.25
 49
0.125
 49
-0.25
 49
0.25
 49
-0.25
 49
0.125
 49
-0.25
  0
LTYPE
  2
DCTYPE2
 70
    64
  3
__ . . __ . . __ . . __ . . __ . . __ . . __
 72
    65
 73
     6
 40
2.05
 49
1.0
 49
-0.3
 49
0.15
 49
-0.15
 49
0.15
 49
-0.3
  0
LTYPE
  2
DCTYPE3
 70
    64
  3
__ . . __ . . __ . . __ . . __ . . __ . . __
 72
    65
 73
     6
 40
2.5
 49
0.8
 49
-0.2
 49
0.8
 49
-0.2
 49
0.3
 49
-0.2
  0
LTYPE
  2
DCTYPE4
 70
    64
  3
__ . . __ . . __ . . __ . . __ . . __ . . __
 72
    65
 73
     10
 40
3.97
 49
1.75
 49
-0.3
 49
0.3
 49
-0.3
 49
0.06
 49
-0.3
 49
0.06
 49
-0.3
 49
0.3
 49
-0.3
  0
ENDTAB
  0
TABLE
  2
LAYER
 70
    153
  0
LAYER
  2
LAYER1
 70
 64
 62
     7
  6
CONTINUOUS
  0
LAYER
  2
LAYER12
 70
 64
 62
     5
  6
CONTINUOUS
  0
ENDTAB
  0
ENDSEC
  0
SECTION
  2
BLOCKS
  0
ENDSEC
  0
SECTION
  2
ENTITIES
  0
CIRCLE
  8
LAYER1
 62
     7
  6
CONTINUOUS
 10
2.0833
 20
4.8626
 40
0.0227
  0
CIRCLE
  8
LAYER1
 62
     7
  6
CONTINUOUS
 10
2.1870
 20
5.0569
 40
0.0135
  0
CIRCLE
  8
LAYER1
 62
     7
  6
CONTINUOUS
 10
2.1270
 20
5.0262
 40
0.0153
  0
CIRCLE
  8
LAYER1
 62
     7
  6
CONTINUOUS
 10
2.0766
 20
5.0433
 40
0.0146
  0
CIRCLE
  8
LAYER1
 62
     7
  6
CONTINUOUS
 10
2.1138
 20
5.0914
 40
0.0159
  0
CIRCLE
  8
LAYER1
 62
     7
  6
CONTINUOUS
 10
2.1407
 20
5.1670
 40
0.0104
  0
CIRCLE
  8
LAYER1
 62
     7
  6
CONTINUOUS
 10
2.1505
 20
5.1922
 40
0.0168
  0
CIRCLE
  8
LAYER1
 62
     7
  6
CONTINUOUS
 10
2.1881
 20
5.1976
 40
0.0225
  0
CIRCLE
  8
LAYER1
 62
     7
  6
CONTINUOUS
 10
2.0822
 20
5.2418
 40
0.0256
  0
CIRCLE
  8
LAYER1
 62
     7
  6
CONTINUOUS
 10
2.1393
 20
5.3127
 40
0.0153
  0
CIRCLE
  8
LAYER1
 62
     7
  6
CONTINUOUS
 10
2.1414
 20
5.3604
 40
0.0135
  0
CIRCLE
  8
LAYER1
 62
     7
  6
CONTINUOUS
 10
2.0812
 20
5.3548
 40
0.0231
  0
CIRCLE
  8
LAYER1
 62
     7
  6
CONTINUOUS
 10
2.1098
 20
5.5158
 40
0.0075
  0
CIRCLE
  8
LAYER1
 62
     7
  6
CONTINUOUS
 10
2.6509
 20
5.3979
 40
0.0215
  0
CIRCLE
  8
LAYER1
 62
     7
  6
CONTINUOUS
 10
3.0393
 20
5.4920
 40
0.0306
  0
CIRCLE
  8
LAYER1
 62
     7
  6
CONTINUOUS
 10
3.0300
 20
5.4141
 40
0.0247
  0
CIRCLE
  8
LAYER1
 62
     7
  6
CONTINUOUS
 10
2.9978
 20
5.3635
 40
0.0146
  0
CIRCLE
  8
LAYER1
 62
     7
  6
CONTINUOUS
 10
2.9376
 20
5.3605
 40
0.0169
  0
CIRCLE
  8
LAYER1
 62
     7
  6
CONTINUOUS
 10
2.9278
 20
5.3302
 40
0.0153
  0
CIRCLE
  8
LAYER1
 62
     7
  6
CONTINUOUS
 10
2.8740
 20
5.4402
 40
0.0207
  0
CIRCLE
  8
LAYER1
 62
     7
  6
CONTINUOUS
 10
2.8545
 20
5.3848
 40
0.0201
  0
CIRCLE
  8
LAYER1
 62
     7
  6
CONTINUOUS
 10
2.8069
 20
5.3693
 40
0.0215
  0
CIRCLE
  8
LAYER1
 62
     7
  6
CONTINUOUS
 10
2.8378
 20
5.2842
 40
0.0153
  0
CIRCLE
  8
LAYER1
 62
     7
  6
CONTINUOUS
 10
2.7160
 20
5.1549
 40
0.0226
  0
CIRCLE
  8
LAYER1
 62
     7
  6
CONTINUOUS
 10
2.6564
 20
5.0865
 40
0.0159
  0
CIRCLE
  8
LAYER1
 62
     7
  6
CONTINUOUS
 10
2.6852
 20
4.9562
 40
0.0153
  0
CIRCLE
  8
LAYER1
 62
     7
  6
CONTINUOUS
 10
2.8791
 20
4.9028
 40
0.0225
  0
CIRCLE
  8
LAYER1
 62
     7
  6
CONTINUOUS
 10
3.0315
 20
4.7334
 40
0.0251
  0
CIRCLE
  8
LAYER1
 62
     7
  6
CONTINUOUS
 10
3.0194
 20
4.6806
 40
0.0146
  0
CIRCLE
  8
LAYER1
 62
     7
  6
CONTINUOUS
 10
2.8652
 20
4.7846
 40
0.0247
  0
CIRCLE
  8
LAYER1
 62
     7
  6
CONTINUOUS
 10
2.8515
 20
4.6388
 40
0.0247
  0
CIRCLE
  8
LAYER1
 62
     7
  6
CONTINUOUS
 10
2.7861
 20
4.6482
 40
0.0183
  0
CIRCLE
  8
LAYER1
 62
     7
  6
CONTINUOUS
 10
2.7739
 20
4.6155
 40
0.0168
  0
POLYLINE
  8
LAYER1
 62
     7
 66
     1
  6
CONTINUOUS
  0
VERTEX
  8
LAYER1
 62
     7
  6
CONTINUOUS
 10
2.9284
 20
5.5399
  0
VERTEX
  8
LAYER1
 62
     7
  6
CONTINUOUS
 10
2.9284
 20
5.5399
  0
SEQEND
  8
LAYER1
  0
POLYLINE
  8
LAYER1
 62
     7
 66
     1
  6
CONTINUOUS
  0
VERTEX
  8
LAYER1
 62
     7
  6
CONTINUOUS
 10
2.9284
 20
5.5399
  0
VERTEX
  8
LAYER1
 62
     7
  6
CONTINUOUS
 10
2.9284
 20
5.5399
  0
SEQEND
  8
LAYER1
  0
POLYLINE
  8
LAYER1
 62
     7
 66
     1
  6
CONTINUOUS
  0
VERTEX
  8
LAYER1
 62
     7
  6
CONTINUOUS
 10
2.9284
 20
5.5399
  0
VERTEX
  8
LAYER1
 62
     7
  6
CONTINUOUS
 10
2.9284
 20
5.5399
  0
SEQEND
  8
LAYER1
  0
POLYLINE
  8
LAYER1
 62
     7
 66
     1
  6
CONTINUOUS
  0
VERTEX
  8
LAYER1
 62
     7
  6
CONTINUOUS
 10
2.9284
 20
5.5399
  0
VERTEX
  8
LAYER1
 62
     7
  6
CONTINUOUS
 10
2.9284
 20
5.5399
  0
SEQEND
  8
LAYER1
  0
ARC
  8
LAYER1
 62
     7
  6
CONTINUOUS
 10
3.0599
 20
5.4370
 40
0.0181
 50
-55.7662
 51
-42.4483
  0
ARC
  8
LAYER1
 62
     7
  6
CONTINUOUS
 10
3.0599
 20
5.4370
 40
0.0181
 50
42.4495
 51
-55.7666
  0
POLYLINE
  8
LAYER1
 62
     7
 66
     1
  6
CONTINUOUS
  0
VERTEX
  8
LAYER1
 62
     7
  6
CONTINUOUS
 10
2.8522
 20
4.5557
  0
VERTEX
  8
LAYER1
 62
     7
  6
CONTINUOUS
 10
2.8522
 20
4.5557
  0
VERTEX
  8
LAYER1
 62
     7
  6
CONTINUOUS
 10
2.8522
 20
4.5557
  0
VERTEX
  8
LAYER1
 62
     7
  6
CONTINUOUS
 10
2.8522
 20
4.5557
  0
VERTEX
  8
LAYER1
 62
     7
  6
CONTINUOUS
 10
2.8522
 20
4.5557
  0
VERTEX
  8
LAYER1
 62
     7
  6
CONTINUOUS
 10
2.8522
 20
4.5557
  0
VERTEX
  8
LAYER1
 62
     7
  6
CONTINUOUS
 10
2.8522
 20
4.5557
  0
VERTEX
  8
LAYER1
 62
     7
  6
CONTINUOUS
 10
2.8522
 20
4.5557
  0
VERTEX
  8
LAYER1
 62
     7
  6
CONTINUOUS
 10
2.8522
 20
4.5557
  0
VERTEX
  8
LAYER1
 62
     7
  6
CONTINUOUS
 10
2.8522
 20
4.5557
  0
VERTEX
  8
LAYER1
 62
     7
  6
CONTINUOUS
 10
2.8522
 20
4.5557
  0
VERTEX
  8
LAYER1
 62
     7
  6
CONTINUOUS
 10
2.8522
 20
4.5557
  0
VERTEX
  8
LAYER1
 62
     7
  6
CONTINUOUS
 10
2.8522
 20
4.5557
  0
VERTEX
  8
LAYER1
 62
     7
  6
CONTINUOUS
 10
2.8522
 20
4.5557
  0
VERTEX
  8
LAYER1
 62
     7
  6
CONTINUOUS
 10
2.8522
 20
4.5557
  0
VERTEX
  8
LAYER1
 62
     7
  6
CONTINUOUS
 10
2.8522
 20
4.5557
  0
VERTEX
  8
LAYER1
 62
     7
  6
CONTINUOUS
 10
2.8522
 20
4.5557
  0
VERTEX
  8
LAYER1
 62
     7
  6
CONTINUOUS
 10
2.8522
 20
4.5557
  0
VERTEX
  8
LAYER1
 62
     7
  6
CONTINUOUS
 10
2.8522
 20
4.5557
  0
VERTEX
  8
LAYER1
 62
     7
  6
CONTINUOUS
 10
2.8522
 20
4.5557
  0
VERTEX
  8
LAYER1
 62
     7
  6
CONTINUOUS
 10
2.8522
 20
4.5557
  0
VERTEX
  8
LAYER1
 62
     7
  6
CONTINUOUS
 10
2.8522
 20
4.5557
  0
VERTEX
  8
LAYER1
 62
     7
  6
CONTINUOUS
 10
2.8522
 20
4.5557
  0
VERTEX
  8
LAYER1
 62
     7
  6
CONTINUOUS
 10
2.8522
 20
4.5557
  0
VERTEX
  8
LAYER1
 62
     7
  6
CONTINUOUS
 10
2.8522
 20
4.5557
  0
SEQEND
  8
LAYER1
  0
POLYLINE
  8
LAYER1
 62
     7
 66
     1
  6
CONTINUOUS
  0
VERTEX
  8
LAYER1
 62
     7
  6
CONTINUOUS
 10
2.8522
 20
4.5557
  0
VERTEX
  8
LAYER1
 62
     7
  6
CONTINUOUS
 10
2.8522
 20
4.5557
  0
VERTEX
  8
LAYER1
 62
     7
  6
CONTINUOUS
 10
2.8522
 20
4.5558
  0
VERTEX
  8
LAYER1
 62
     7
  6
CONTINUOUS
 10
2.8522
 20
4.5558
  0
VERTEX
  8
LAYER1
 62
     7
  6
CONTINUOUS
 10
2.8522
 20
4.5558
  0
VERTEX
  8
LAYER1
 62
     7
  6
CONTINUOUS
 10
2.8522
 20
4.5558
  0
VERTEX
  8
LAYER1
 62
     7
  6
CONTINUOUS
 10
2.8523
 20
4.5558
  0
VERTEX
  8
LAYER1
 62
     7
  6
CONTINUOUS
 10
2.8523
 20
4.5558
  0
VERTEX
  8
LAYER1
 62
     7
  6
CONTINUOUS
 10
2.8523
 20
4.5559
  0
VERTEX
  8
LAYER1
 62
     7
  6
CONTINUOUS
 10
2.8523
 20
4.5559
  0
VERTEX
  8
LAYER1
 62
     7
  6
CONTINUOUS
 10
2.8523
 20
4.5559
  0
VERTEX
  8
LAYER1
 62
     7
  6
CONTINUOUS
 10
2.8523
 20
4.5559
  0
VERTEX
  8
LAYER1
 62
     7
  6
CONTINUOUS
 10
2.8523
 20
4.5559
  0
VERTEX
  8
LAYER1
 62
     7
  6
CONTINUOUS
 10
2.8533
 20
4.5579
  0
VERTEX
  8
LAYER1
 62
     7
  6
CONTINUOUS
 10
2.8542
 20
4.5600
  0
VERTEX
  8
LAYER1
 62
     7
  6
CONTINUOUS
 10
2.8551
 20
4.5621
  0
VERTEX
  8
LAYER1
 62
     7
  6
CONTINUOUS
 10
2.8559
 20
4.5642
  0
VERTEX
  8
LAYER1
 62
     7
  6
CONTINUOUS
 10
2.8567
 20
4.5663
  0
VERTEX
  8
LAYER1
 62
     7
  6
CONTINUOUS
 10
2.8574
 20
4.5684
  0
VERTEX
  8
LAYER1
 62
     7
  6
CONTINUOUS
 10
2.8582
 20
4.5706
  0
VERTEX
  8
LAYER1
 62
     7
  6
CONTINUOUS
 10
2.8590
 20
4.5727
  0
VERTEX
  8
LAYER1
 62
     7
  6
CONTINUOUS
 10
2.8597
 20
4.5748
  0
VERTEX
  8
LAYER1
 62
     7
  6
CONTINUOUS
 10
2.8605
 20
4.5769
  0
VERTEX
  8
LAYER1
 62
     7
  6
CONTINUOUS
 10
2.8613
 20
4.5790
  0
VERTEX
  8
LAYER1
 62
     7
  6
CONTINUOUS
 10
2.8621
 20
4.5811
  0
VERTEX
  8
LAYER1
 62
     7
  6
CONTINUOUS
 10
2.8641
 20
4.5858
  0
VERTEX
  8
LAYER1
 62
     7
  6
CONTINUOUS
 10
2.8664
 20
4.5904
  0
VERTEX
  8
LAYER1
 62
     7
  6
CONTINUOUS
 10
2.8688
 20
4.5949
  0
VERTEX
  8
LAYER1
 62
     7
  6
CONTINUOUS
 10
2.8714
 20
4.5993
  0
VERTEX
  8
LAYER1
 62
     7
  6
CONTINUOUS
 10
2.8741
 20
4.6036
  0
VERTEX
  8
LAYER1
 62
     7
  6
CONTINUOUS
 10
2.8770
 20
4.6078
  0
VERTEX
  8
LAYER1
 62
     7
  6
CONTINUOUS
 10
2.8800
 20
4.6119
  0
VERTEX
  8
LAYER1
 62
     7
  6
CONTINUOUS
 10
2.8832
 20
4.6160
  0
VERTEX
  8
LAYER1
 62
     7
  6
CONTINUOUS
 10
2.8865
 20
4.6200
  0
VERTEX
  8
LAYER1
 62
     7
  6
CONTINUOUS
 10
2.8898
 20
4.6240
  0
VERTEX
  8
LAYER1
 62
     7
  6
CONTINUOUS
 10
2.8933
 20
4.6279
  0
VERTEX
  8
LAYER1
 62
     7
  6
CONTINUOUS
 10
2.8968
 20
4.6317
  0
VERTEX
  8
LAYER1
 62
     7
  6
CONTINUOUS
 10
2.8991
 20
4.6341
  0
VERTEX
  8
LAYER1
 62
     7
  6
CONTINUOUS
 10
2.9014
 20
4.6365
  0
VERTEX
  8
LAYER1
 62
     7
  6
CONTINUOUS
 10
2.9037
 20
4.6389
  0
VERTEX
  8
LAYER1
 62
     7
  6
CONTINUOUS
 10
2.9061
 20
4.6412
  0
VERTEX
  8
LAYER1
 62
     7
  6
CONTINUOUS
 10
2.9085
 20
4.6434
  0
VERTEX
  8
LAYER1
 62
     7
  6
CONTINUOUS
 10
2.9110
 20
4.6456
  0
VERTEX
  8
LAYER1
 62
     7
  6
CONTINUOUS
 10
2.9135
 20
4.6477
  0
VERTEX
  8
LAYER1
 62
     7
  6
CONTINUOUS
 10
2.9160
 20
4.6498
  0
VERTEX
  8
LAYER1
 62
     7
  6
CONTINUOUS
 10
2.9186
 20
4.6518
  0
VERTEX
  8
LAYER1
 62
     7
  6
CONTINUOUS
 10
2.9213
 20
4.6536
  0
VERTEX
  8
LAYER1
 62
     7
  6
CONTINUOUS
 10
2.9239
 20
4.6554
  0
VERTEX
  8
LAYER1
 62
     7
  6
CONTINUOUS
 10
2.9267
 20
4.6571
  0
VERTEX
  8
LAYER1
 62
     7
  6
CONTINUOUS
 10
2.9294
 20
4.6586
  0
VERTEX
  8
LAYER1
 62
     7
  6
CONTINUOUS
 10
2.9322
 20
4.6600
  0
VERTEX
  8
LAYER1
 62
     7
  6
CONTINUOUS
 10
2.9350
 20
4.6614
  0
VERTEX
  8
LAYER1
 62
     7
  6
CONTINUOUS
 10
2.9379
 20
4.6627
  0
VERTEX
  8
LAYER1
 62
     7
  6
CONTINUOUS
 10
2.9408
 20
4.6639
  0
VERTEX
  8
LAYER1
 62
     7
  6
CONTINUOUS
 10
2.9437
 20
4.6651
  0
VERTEX
  8
LAYER1
 62
     7
  6
CONTINUOUS
 10
2.9467
 20
4.6663
  0
VERTEX
  8
LAYER1
 62
     7
  6
CONTINUOUS
 10
2.9497
 20
4.6675
  0
VERTEX
  8
LAYER1
 62
     7
  6
CONTINUOUS
 10
2.9527
 20
4.6687
  0
VERTEX
  8
LAYER1
 62
     7
  6
CONTINUOUS
 10
2.9557
 20
4.6699
  0
VERTEX
  8
LAYER1
 62
     7
  6
CONTINUOUS
 10
2.9587
 20
4.6712
  0
VERTEX
  8
LAYER1
 62
     7
  6
CONTINUOUS
 10
2.9617
 20
4.6725
  0
VERTEX
  8
LAYER1
 62
     7
  6
CONTINUOUS
 10
2.9630
 20
4.6731
  0
VERTEX
  8
LAYER1
 62
     7
  6
CONTINUOUS
 10
2.9642
 20
4.6737
  0
VERTEX
  8
LAYER1
 62
     7
  6
CONTINUOUS
 10
2.9655
 20
4.6742
  0
VERTEX
  8
LAYER1
 62
     7
  6
CONTINUOUS
 10
2.9667
 20
4.6748
  0
VERTEX
  8
LAYER1
 62
     7
  6
CONTINUOUS
 10
2.9680
 20
4.6753
  0
VERTEX
  8
LAYER1
 62
     7
  6
CONTINUOUS
 10
2.9692
 20
4.6758
  0
VERTEX
  8
LAYER1
 62
     7
  6
CONTINUOUS
 10
2.9705
 20
4.6763
  0
VERTEX
  8
LAYER1
 62
     7
  6
CONTINUOUS
 10
2.9717
 20
4.6767
  0
VERTEX
  8
LAYER1
 62
     7
  6
CONTINUOUS
 10
2.9730
 20
4.6770
  0
VERTEX
  8
LAYER1
 62
     7
  6
CONTINUOUS
 10
2.9742
 20
4.6773
  0
VERTEX
  8
LAYER1
 62
     7
  6
CONTINUOUS
 10
2.9755
 20
4.6775
  0
VERTEX
  8
LAYER1
 62
     7
  6
CONTINUOUS
 10
2.9767
 20
4.6777
  0
VERTEX
  8
LAYER1
 62
     7
  6
CONTINUOUS
 10
2.9785
 20
4.6777
  0
VERTEX
  8
LAYER1
 62
     7
  6
CONTINUOUS
 10
2.9803
 20
4.6775
  0
VERTEX
  8
LAYER1
 62
     7
  6
CONTINUOUS
 10
2.9821
 20
4.6772
  0
VERTEX
  8
LAYER1
 62
     7
  6
CONTINUOUS
 10
2.9838
 20
4.6767
  0
VERTEX
  8
LAYER1
 62
     7
  6
CONTINUOUS
 10
2.9856
 20
4.6760
  0
VERTEX
  8
LAYER1
 62
     7
  6
CONTINUOUS
 10
2.9873
 20
4.6752
  0
VERTEX
  8
LAYER1
 62
     7
  6
CONTINUOUS
 10
2.9890
 20
4.6743
  0
VERTEX
  8
LAYER1
 62
     7
  6
CONTINUOUS
 10
2.9906
 20
4.6732
  0
VERTEX
  8
LAYER1
 62
     7
  6
CONTINUOUS
 10
2.9923
 20
4.6720
  0
VERTEX
  8
LAYER1
 62
     7
  6
CONTINUOUS
 10
2.9939
 20
4.6707
  0
VERTEX
  8
LAYER1
 62
     7
  6
CONTINUOUS
 10
2.9954
 20
4.6693
  0
VERTEX
  8
LAYER1
 62
     7
  6
CONTINUOUS
 10
2.9969
 20
4.6678
  0
VERTEX
  8
LAYER1
 62
     7
  6
CONTINUOUS
 10
2.9987
 20
4.6659
  0
VERTEX
  8
LAYER1
 62
     7
  6
CONTINUOUS
 10
3.0003
 20
4.6639
  0
VERTEX
  8
LAYER1
 62
     7
  6
CONTINUOUS
 10
3.0018
 20
4.6618
  0
VERTEX
  8
LAYER1
 62
     7
  6
CONTINUOUS
 10
3.0032
 20
4.6596
  0
VERTEX
  8
LAYER1
 62
     7
  6
CONTINUOUS
 10
3.0044
 20
4.6574
  0
VERTEX
  8
LAYER1
 62
     7
  6
CONTINUOUS
 10
3.0055
 20
4.6552
  0
VERTEX
  8
LAYER1
 62
     7
  6
CONTINUOUS
 10
3.0064
 20
4.6530
  0
VERTEX
  8
LAYER1
 62
     7
  6
CONTINUOUS
 10
3.0070
 20
4.6508
  0
VERTEX
  8
LAYER1
 62
     7
  6
CONTINUOUS
 10
3.0075
 20
4.6487
  0
VERTEX
  8
LAYER1
 62
     7
  6
CONTINUOUS
 10
3.0077
 20
4.6466
  0
VERTEX
  8
LAYER1
 62
     7
  6
CONTINUOUS
 10
3.0076
 20
4.6447
  0
VERTEX
  8
LAYER1
 62
     7
  6
CONTINUOUS
 10
3.0072
 20
4.6428
  0
VERTEX
  8
LAYER1
 62
     7
  6
CONTINUOUS
 10
3.0062
 20
4.6405
  0
VERTEX
  8
LAYER1
 62
     7
  6
CONTINUOUS
 10
3.0048
 20
4.6384
  0
VERTEX
  8
LAYER1
 62
     7
  6
CONTINUOUS
 10
3.0029
 20
4.6365
  0
VERTEX
  8
LAYER1
 62
     7
  6
CONTINUOUS
 10
3.0007
 20
4.6348
  0
VERTEX
  8
LAYER1
 62
     7
  6
CONTINUOUS
 10
2.9982
 20
4.6331
  0
VERTEX
  8
LAYER1
 62
     7
  6
CONTINUOUS
 10
2.9954
 20
4.6316
  0
VERTEX
  8
LAYER1
 62
     7
  6
CONTINUOUS
 10
2.9924
 20
4.6301
  0
VERTEX
  8
LAYER1
 62
     7
  6
CONTINUOUS
 10
2.9894
 20
4.6286
  0
VERTEX
  8
LAYER1
 62
     7
  6
CONTINUOUS
 10
2.9863
 20
4.6271
  0
VERTEX
  8
LAYER1
 62
     7
  6
CONTINUOUS
 10
2.9832
 20
4.6256
  0
VERTEX
  8
LAYER1
 62
     7
  6
CONTINUOUS
 10
2.9801
 20
4.6241
  0
VERTEX
  8
LAYER1
 62
     7
  6
CONTINUOUS
 10
2.9773
 20
4.6224
  0
VERTEX
  8
LAYER1
 62
     7
  6
CONTINUOUS
 10
2.9738
 20
4.6201
  0
VERTEX
  8
LAYER1
 62
     7
  6
CONTINUOUS
 10
2.9707
 20
4.6176
  0
VERTEX
  8
LAYER1
 62
     7
  6
CONTINUOUS
 10
2.9678
 20
4.6150
  0
VERTEX
  8
LAYER1
 62
     7
  6
CONTINUOUS
 10
2.9651
 20
4.6122
  0
VERTEX
  8
LAYER1
 62
     7
  6
CONTINUOUS
 10
2.9627
 20
4.6092
  0
VERTEX
  8
LAYER1
 62
     7
  6
CONTINUOUS
 10
2.9603
 20
4.6062
  0
VERTEX
  8
LAYER1
 62
     7
  6
CONTINUOUS
 10
2.9581
 20
4.6031
  0
VERTEX
  8
LAYER1
 62
     7
  6
CONTINUOUS
 10
2.9560
 20
4.5999
  0
VERTEX
  8
LAYER1
 62
     7
  6
CONTINUOUS
 10
2.9539
 20
4.5967
  0
VERTEX
  8
LAYER1
 62
     7
  6
CONTINUOUS
 10
2.9518
 20
4.5934
  0
VERTEX
  8
LAYER1
 62
     7
  6
CONTINUOUS
 10
2.9496
 20
4.5902
  0
VERTEX
  8
LAYER1
 62
     7
  6
CONTINUOUS
 10
2.9475
 20
4.5870
  0
VERTEX
  8
LAYER1
 62
     7
  6
CONTINUOUS
 10
2.9460
 20
4.5849
  0
VERTEX
  8
LAYER1
 62
     7
  6
CONTINUOUS
 10
2.9446
 20
4.5829
  0
VERTEX
  8
LAYER1
 62
     7
  6
CONTINUOUS
 10
2.9431
 20
4.5809
  0
VERTEX
  8
LAYER1
 62
     7
  6
CONTINUOUS
 10
2.9417
 20
4.5789
  0
VERTEX
  8
LAYER1
 62
     7
  6
CONTINUOUS
 10
2.9403
 20
4.5768
  0
VERTEX
  8
LAYER1
 62
     7
  6
CONTINUOUS
 10
2.9389
 20
4.5748
  0
VERTEX
  8
LAYER1
 62
     7
  6
CONTINUOUS
 10
2.9376
 20
4.5727
  0
VERTEX
  8
LAYER1
 62
     7
  6
CONTINUOUS
 10
2.9364
 20
4.5706
  0
VERTEX
  8
LAYER1
 62
     7
  6
CONTINUOUS
 10
2.9353
 20
4.5684
  0
VERTEX
  8
LAYER1
 62
     7
  6
CONTINUOUS
 10
2.9342
 20
4.5662
  0
VERTEX
  8
LAYER1
 62
     7
  6
CONTINUOUS
 10
2.9334
 20
4.5640
  0
VERTEX
  8
LAYER1
 62
     7
  6
CONTINUOUS
 10
2.9326
 20
4.5617
  0
VERTEX
  8
LAYER1
 62
     7
  6
CONTINUOUS
 10
2.9325
 20
4.5612
  0
VERTEX
  8
LAYER1
 62
     7
  6
CONTINUOUS
 10
2.9324
 20
4.5607
  0
VERTEX
  8
LAYER1
 62
     7
  6
CONTINUOUS
 10
2.9322
 20
4.5602
  0
VERTEX
  8
LAYER1
 62
     7
  6
CONTINUOUS
 10
2.9321
 20
4.5597
  0
VERTEX
  8
LAYER1
 62
     7
  6
CONTINUOUS
 10
2.9320
 20
4.5592
  0
VERTEX
  8
LAYER1
 62
     7
  6
CONTINUOUS
 10
2.9319
 20
4.5587
  0
VERTEX
  8
LAYER1
 62
     7
  6
CONTINUOUS
 10
2.9318
 20
4.5582
  0
VERTEX
  8
LAYER1
 62
     7
  6
CONTINUOUS
 10
2.9317
 20
4.5577
  0
VERTEX
  8
LAYER1
 62
     7
  6
CONTINUOUS
 10
2.9316
 20
4.5572
  0
VERTEX
  8
LAYER1
 62
     7
  6
CONTINUOUS
 10
2.9315
 20
4.5567
  0
VERTEX
  8
LAYER1
 62
     7
  6
CONTINUOUS
 10
2.9314
 20
4.5562
  0
VERTEX
  8
LAYER1
 62
     7
  6
CONTINUOUS
 10
2.9313
 20
4.5557
  0
SEQEND
  8
LAYER1
  0
POLYLINE
  8
LAYER1
 62
     7
 66
     1
  6
CONTINUOUS
  0
VERTEX
  8
LAYER1
 62
     7
  6
CONTINUOUS
 10
2.9313
 20
4.5557
  0
VERTEX
  8
LAYER1
 62
     7
  6
CONTINUOUS
 10
2.9313
 20
4.5557
  0
VERTEX
  8
LAYER1
 62
     7
  6
CONTINUOUS
 10
2.9313
 20
4.5557
  0
VERTEX
  8
LAYER1
 62
     7
  6
CONTINUOUS
 10
2.9313
 20
4.5557
  0
VERTEX
  8
LAYER1
 62
     7
  6
CONTINUOUS
 10
2.9313
 20
4.5557
  0
VERTEX
  8
LAYER1
 62
     7
  6
CONTINUOUS
 10
2.9313
 20
4.5557
  0
VERTEX
  8
LAYER1
 62
     7
  6
CONTINUOUS
 10
2.9313
 20
4.5557
  0
VERTEX
  8
LAYER1
 62
     7
  6
CONTINUOUS
 10
2.9313
 20
4.5557
  0
VERTEX
  8
LAYER1
 62
     7
  6
CONTINUOUS
 10
2.9313
 20
4.5557
  0
VERTEX
  8
LAYER1
 62
     7
  6
CONTINUOUS
 10
2.9313
 20
4.5557
  0
VERTEX
  8
LAYER1
 62
     7
  6
CONTINUOUS
 10
2.9313
 20
4.5557
  0
VERTEX
  8
LAYER1
 62
     7
  6
CONTINUOUS
 10
2.9313
 20
4.5557
  0
VERTEX
  8
LAYER1
 62
     7
  6
CONTINUOUS
 10
2.9313
 20
4.5557
  0
VERTEX
  8
LAYER1
 62
     7
  6
CONTINUOUS
 10
2.9313
 20
4.5557
  0
VERTEX
  8
LAYER1
 62
     7
  6
CONTINUOUS
 10
2.9313
 20
4.5557
  0
VERTEX
  8
LAYER1
 62
     7
  6
CONTINUOUS
 10
2.9313
 20
4.5557
  0
VERTEX
  8
LAYER1
 62
     7
  6
CONTINUOUS
 10
2.9313
 20
4.5557
  0
VERTEX
  8
LAYER1
 62
     7
  6
CONTINUOUS
 10
2.9313
 20
4.5557
  0
VERTEX
  8
LAYER1
 62
     7
  6
CONTINUOUS
 10
2.9313
 20
4.5557
  0
VERTEX
  8
LAYER1
 62
     7
  6
CONTINUOUS
 10
2.9313
 20
4.5557
  0
VERTEX
  8
LAYER1
 62
     7
  6
CONTINUOUS
 10
2.9313
 20
4.5557
  0
VERTEX
  8
LAYER1
 62
     7
  6
CONTINUOUS
 10
2.9313
 20
4.5557
  0
VERTEX
  8
LAYER1
 62
     7
  6
CONTINUOUS
 10
2.9313
 20
4.5557
  0
VERTEX
  8
LAYER1
 62
     7
  6
CONTINUOUS
 10
2.9313
 20
4.5557
  0
VERTEX
  8
LAYER1
 62
     7
  6
CONTINUOUS
 10
2.9313
 20
4.5557
  0
SEQEND
  8
LAYER1
  0
POLYLINE
  8
LAYER1
 62
     7
 66
     1
  6
CONTINUOUS
  0
VERTEX
  8
LAYER1
 62
     7
  6
CONTINUOUS
 10
2.9285
 20
5.5398
  0
VERTEX
  8
LAYER1
 62
     7
  6
CONTINUOUS
 10
2.9285
 20
5.5398
  0
SEQEND
  8
LAYER1
  0
POLYLINE
  8
LAYER1
 62
     7
 66
     1
  6
CONTINUOUS
  0
VERTEX
  8
LAYER1
 62
     7
  6
CONTINUOUS
 10
2.9285
 20
5.5398
  0
VERTEX
  8
LAYER1
 62
     7
  6
CONTINUOUS
 10
2.9285
 20
5.5398
  0
SEQEND
  8
LAYER1
  0
POLYLINE
  8
LAYER1
 62
     7
 66
     1
  6
CONTINUOUS
  0
VERTEX
  8
LAYER1
 62
     7
  6
CONTINUOUS
 10
2.9285
 20
5.5398
  0
VERTEX
  8
LAYER1
 62
     7
  6
CONTINUOUS
 10
2.9284
 20
5.5399
  0
SEQEND
  8
LAYER1
  0
POLYLINE
  8
LAYER1
 62
     7
 66
     1
  6
CONTINUOUS
  0
VERTEX
  8
LAYER1
 62
     7
  6
CONTINUOUS
 10
2.9284
 20
5.5399
  0
VERTEX
  8
LAYER1
 62
     7
  6
CONTINUOUS
 10
2.9286
 20
5.5398
  0
SEQEND
  8
LAYER1
  0
POLYLINE
  8
LAYER1
 62
     7
 66
     1
  6
CONTINUOUS
  0
VERTEX
  8
LAYER1
 62
     7
  6
CONTINUOUS
 10
2.9286
 20
5.5398
  0
VERTEX
  8
LAYER1
 62
     7
  6
CONTINUOUS
 10
2.9286
 20
5.5398
  0
SEQEND
  8
LAYER1
  0
POLYLINE
  8
LAYER1
 62
     7
 66
     1
  6
CONTINUOUS
  0
VERTEX
  8
LAYER1
 62
     7
  6
CONTINUOUS
 10
2.9286
 20
5.5398
  0
VERTEX
  8
LAYER1
 62
     7
  6
CONTINUOUS
 10
2.9286
 20
5.5398
  0
SEQEND
  8
LAYER1
  0
POLYLINE
  8
LAYER1
 62
     7
 66
     1
  6
CONTINUOUS
  0
VERTEX
  8
LAYER1
 62
     7
  6
CONTINUOUS
 10
2.9286
 20
5.5398
  0
VERTEX
  8
LAYER1
 62
     7
  6
CONTINUOUS
 10
2.9284
 20
5.5399
  0
SEQEND
  8
LAYER1
  0
POLYLINE
  8
LAYER1
 62
     7
 66
     1
  6
CONTINUOUS
  0
VERTEX
  8
LAYER1
 62
     7
  6
CONTINUOUS
 10
2.9284
 20
5.5399
  0
VERTEX
  8
LAYER1
 62
     7
  6
CONTINUOUS
 10
2.9283
 20
5.5398
  0
SEQEND
  8
LAYER1
  0
POLYLINE
  8
LAYER1
 62
     7
 66
     1
  6
CONTINUOUS
  0
VERTEX
  8
LAYER1
 62
     7
  6
CONTINUOUS
 10
2.9283
 20
5.5398
  0
VERTEX
  8
LAYER1
 62
     7
  6
CONTINUOUS
 10
2.9283
 20
5.5398
  0
SEQEND
  8
LAYER1
  0
POLYLINE
  8
LAYER1
 62
     7
 66
     1
  6
CONTINUOUS
  0
VERTEX
  8
LAYER1
 62
     7
  6
CONTINUOUS
 10
2.9283
 20
5.5398
  0
VERTEX
  8
LAYER1
 62
     7
  6
CONTINUOUS
 10
2.9283
 20
5.5398
  0
SEQEND
  8
LAYER1
  0
POLYLINE
  8
LAYER1
 62
     7
 66
     1
  6
CONTINUOUS
  0
VERTEX
  8
LAYER1
 62
     7
  6
CONTINUOUS
 10
2.9283
 20
5.5398
  0
VERTEX
  8
LAYER1
 62
     7
  6
CONTINUOUS
 10
2.9284
 20
5.5399
  0
SEQEND
  8
LAYER1
  0
POLYLINE
  8
LAYER1
 62
     7
 66
     1
  6
CONTINUOUS
  0
VERTEX
  8
LAYER1
 62
     7
  6
CONTINUOUS
 10
2.9284
 20
5.5399
  0
VERTEX
  8
LAYER1
 62
     7
  6
CONTINUOUS
 10
2.9283
 20
5.5398
  0
SEQEND
  8
LAYER1
  0
POLYLINE
  8
LAYER1
 62
     7
 66
     1
  6
CONTINUOUS
  0
VERTEX
  8
LAYER1
 62
     7
  6
CONTINUOUS
 10
2.9283
 20
5.5398
  0
VERTEX
  8
LAYER1
 62
     7
  6
CONTINUOUS
 10
2.9283
 20
5.5398
  0
SEQEND
  8
LAYER1
  0
POLYLINE
  8
LAYER1
 62
     7
 66
     1
  6
CONTINUOUS
  0
VERTEX
  8
LAYER1
 62
     7
  6
CONTINUOUS
 10
2.9283
 20
5.5398
  0
VERTEX
  8
LAYER1
 62
     7
  6
CONTINUOUS
 10
2.9283
 20
5.5398
  0
SEQEND
  8
LAYER1
  0
POLYLINE
  8
LAYER1
 62
     7
 66
     1
  6
CONTINUOUS
  0
VERTEX
  8
LAYER1
 62
     7
  6
CONTINUOUS
 10
2.9283
 20
5.5398
  0
VERTEX
  8
LAYER1
 62
     7
  6
CONTINUOUS
 10
2.9284
 20
5.5399
  0
SEQEND
  8
LAYER1
  0
POLYLINE
  8
LAYER1
 62
     7
 66
     1
  6
CONTINUOUS
  0
VERTEX
  8
LAYER1
 62
     7
  6
CONTINUOUS
 10
2.9284
 20
5.5399
  0
VERTEX
  8
LAYER1
 62
     7
  6
CONTINUOUS
 10
2.9285
 20
5.5398
  0
SEQEND
  8
LAYER1
  0
POLYLINE
  8
LAYER1
 62
     7
 66
     1
  6
CONTINUOUS
  0
VERTEX
  8
LAYER1
 62
     7
  6
CONTINUOUS
 10
2.9285
 20
5.5398
  0
VERTEX
  8
LAYER1
 62
     7
  6
CONTINUOUS
 10
2.9285
 20
5.5398
  0
SEQEND
  8
LAYER1
  0
POLYLINE
  8
LAYER1
 62
     7
 66
     1
  6
CONTINUOUS
  0
VERTEX
  8
LAYER1
 62
     7
  6
CONTINUOUS
 10
2.9285
 20
5.5398
  0
VERTEX
  8
LAYER1
 62
     7
  6
CONTINUOUS
 10
2.9285
 20
5.5398
  0
SEQEND
  8
LAYER1
  0
POLYLINE
  8
LAYER1
 62
     7
 66
     1
  6
CONTINUOUS
  0
VERTEX
  8
LAYER1
 62
     7
  6
CONTINUOUS
 10
2.9285
 20
5.5398
  0
VERTEX
  8
LAYER1
 62
     7
  6
CONTINUOUS
 10
2.9334
 20
5.5362
  0
VERTEX
  8
LAYER1
 62
     7
  6
CONTINUOUS
 10
2.9535
 20
5.5364
  0
VERTEX
  8
LAYER1
 62
     7
  6
CONTINUOUS
 10
2.9543
 20
5.5398
  0
SEQEND
  8
LAYER1
  0
POLYLINE
  8
LAYER1
 62
     7
 66
     1
  6
CONTINUOUS
  0
VERTEX
  8
LAYER1
 62
     7
  6
CONTINUOUS
 10
2.9543
 20
5.5398
  0
VERTEX
  8
LAYER1
 62
     7
  6
CONTINUOUS
 10
2.9543
 20
5.5398
  0
SEQEND
  8
LAYER1
  0
POLYLINE
  8
LAYER1
 62
     7
 66
     1
  6
CONTINUOUS
  0
VERTEX
  8
LAYER1
 62
     7
  6
CONTINUOUS
 10
2.9543
 20
5.5398
  0
VERTEX
  8
LAYER1
 62
     7
  6
CONTINUOUS
 10
2.9543
 20
5.5398
  0
SEQEND
  8
LAYER1
  0
POLYLINE
  8
LAYER1
 62
     7
 66
     1
  6
CONTINUOUS
  0
VERTEX
  8
LAYER1
 62
     7
  6
CONTINUOUS
 10
2.9543
 20
5.5398
  0
VERTEX
  8
LAYER1
 62
     7
  6
CONTINUOUS
 10
2.9543
 20
5.5399
  0
SEQEND
  8
LAYER1
  0
POLYLINE
  8
LAYER1
 62
     7
 66
     1
  6
CONTINUOUS
  0
VERTEX
  8
LAYER1
 62
     7
  6
CONTINUOUS
 10
2.9543
 20
5.5399
  0
VERTEX
  8
LAYER1
 62
     7
  6
CONTINUOUS
 10
2.9543
 20
5.5398
  0
SEQEND
  8
LAYER1
  0
POLYLINE
  8
LAYER1
 62
     7
 66
     1
  6
CONTINUOUS
  0
VERTEX
  8
LAYER1
 62
     7
  6
CONTINUOUS
 10
2.9543
 20
5.5398
  0
VERTEX
  8
LAYER1
 62
     7
  6
CONTINUOUS
 10
2.9543
 20
5.5398
  0
SEQEND
  8
LAYER1
  0
POLYLINE
  8
LAYER1
 62
     7
 66
     1
  6
CONTINUOUS
  0
VERTEX
  8
LAYER1
 62
     7
  6
CONTINUOUS
 10
2.9543
 20
5.5398
  0
VERTEX
  8
LAYER1
 62
     7
  6
CONTINUOUS
 10
2.9543
 20
5.5398
  0
SEQEND
  8
LAYER1
  0
POLYLINE
  8
LAYER1
 62
     7
 66
     1
  6
CONTINUOUS
  0
VERTEX
  8
LAYER1
 62
     7
  6
CONTINUOUS
 10
2.9543
 20
5.5398
  0
VERTEX
  8
LAYER1
 62
     7
  6
CONTINUOUS
 10
2.9543
 20
5.5399
  0
SEQEND
  8
LAYER1
  0
POLYLINE
  8
LAYER1
 62
     7
 66
     1
  6
CONTINUOUS
  0
VERTEX
  8
LAYER1
 62
     7
  6
CONTINUOUS
 10
2.9543
 20
5.5399
  0
VERTEX
  8
LAYER1
 62
     7
  6
CONTINUOUS
 10
2.9543
 20
5.5398
  0
SEQEND
  8
LAYER1
  0
POLYLINE
  8
LAYER1
 62
     7
 66
     1
  6
CONTINUOUS
  0
VERTEX
  8
LAYER1
 62
     7
  6
CONTINUOUS
 10
2.9543
 20
5.5398
  0
VERTEX
  8
LAYER1
 62
     7
  6
CONTINUOUS
 10
2.9543
 20
5.5398
  0
SEQEND
  8
LAYER1
  0
POLYLINE
  8
LAYER1
 62
     7
 66
     1
  6
CONTINUOUS
  0
VERTEX
  8
LAYER1
 62
     7
  6
CONTINUOUS
 10
2.9543
 20
5.5398
  0
VERTEX
  8
LAYER1
 62
     7
  6
CONTINUOUS
 10
2.9543
 20
5.5398
  0
SEQEND
  8
LAYER1
  0
POLYLINE
  8
LAYER1
 62
     7
 66
     1
  6
CONTINUOUS
  0
VERTEX
  8
LAYER1
 62
     7
  6
CONTINUOUS
 10
2.9543
 20
5.5398
  0
VERTEX
  8
LAYER1
 62
     7
  6
CONTINUOUS
 10
2.9543
 20
5.5399
  0
SEQEND
  8
LAYER1
  0
POLYLINE
  8
LAYER1
 62
     7
 66
     1
  6
CONTINUOUS
  0
VERTEX
  8
LAYER1
 62
     7
  6
CONTINUOUS
 10
2.9543
 20
5.5399
  0
VERTEX
  8
LAYER1
 62
     7
  6
CONTINUOUS
 10
2.9543
 20
5.5398
  0
SEQEND
  8
LAYER1
  0
POLYLINE
  8
LAYER1
 62
     7
 66
     1
  6
CONTINUOUS
  0
VERTEX
  8
LAYER1
 62
     7
  6
CONTINUOUS
 10
2.9543
 20
5.5398
  0
VERTEX
  8
LAYER1
 62
     7
  6
CONTINUOUS
 10
2.9543
 20
5.5398
  0
SEQEND
  8
LAYER1
  0
POLYLINE
  8
LAYER1
 62
     7
 66
     1
  6
CONTINUOUS
  0
VERTEX
  8
LAYER1
 62
     7
  6
CONTINUOUS
 10
2.9543
 20
5.5398
  0
VERTEX
  8
LAYER1
 62
     7
  6
CONTINUOUS
 10
2.9543
 20
5.5398
  0
SEQEND
  8
LAYER1
  0
ARC
  8
LAYER1
 62
     7
  6
CONTINUOUS
 10
2.0602
 20
5.1813
 40
0.0103
 50
76.5119
 51
144.3340
  0
ARC
  8
LAYER1
 62
     7
  6
CONTINUOUS
 10
2.0602
 20
5.1813
 40
0.0103
 50
-144.3334
 51
76.5118
  0
POLYLINE
  8
LAYER1
 62
     7
 66
     1
  6
CONTINUOUS
  0
VERTEX
  8
LAYER1
 62
     7
  6
CONTINUOUS
 10
2.0518
 20
4.5561
  0
VERTEX
  8
LAYER1
 62
     7
  6
CONTINUOUS
 10
3.0733
 20
4.5561
  0
SEQEND
  8
LAYER1
  0
POLYLINE
  8
LAYER1
 62
     7
 66
     1
  6
CONTINUOUS
  0
VERTEX
  8
LAYER1
 62
     7
  6
CONTINUOUS
 10
3.0733
 20
4.5561
  0
VERTEX
  8
LAYER1
 62
     7
  6
CONTINUOUS
 10
3.0756
 20
4.5561
  0
SEQEND
  8
LAYER1
  0
ARC
  8
LAYER1
 62
     7
  6
CONTINUOUS
 10
3.0874
 20
4.6662
 40
0.0126
 50
162.4258
 51
-162.4258
  0
ARC
  8
LAYER1
 62
     7
  6
CONTINUOUS
 10
3.0599
 20
5.4370
 40
0.0181
 50
-42.4484
 51
-29.7046
  0
ARC
  8
LAYER1
 62
     7
  6
CONTINUOUS
 10
3.0599
 20
5.4370
 40
0.0181
 50
29.7161
 51
42.4485
  0
POLYLINE
  8
LAYER12
 62
     5
 66
     1
  6
CONTINUOUS
  0
VERTEX
  8
LAYER12
 62
     5
  6
CONTINUOUS
 10
3.0752
 20
5.5398
  0
VERTEX
  8
LAYER12
 62
     5
  6
CONTINUOUS
 10
3.0752
 20
5.5398
  0
SEQEND
  8
LAYER12
  0
POLYLINE
  8
LAYER12
 62
     5
 66
     1
  6
CONTINUOUS
  0
VERTEX
  8
LAYER12
 62
     5
  6
CONTINUOUS
 10
3.0752
 20
5.5398
  0
VERTEX
  8
LAYER12
 62
     5
  6
CONTINUOUS
 10
3.0752
 20
5.5399
  0
SEQEND
  8
LAYER12
  0
POLYLINE
  8
LAYER12
 62
     5
 66
     1
  6
CONTINUOUS
  0
VERTEX
  8
LAYER12
 62
     5
  6
CONTINUOUS
 10
3.0752
 20
5.5399
  0
VERTEX
  8
LAYER12
 62
     5
  6
CONTINUOUS
 10
3.0752
 20
5.5398
  0
SEQEND
  8
LAYER12
  0
POLYLINE
  8
LAYER12
 62
     5
 66
     1
  6
CONTINUOUS
  0
VERTEX
  8
LAYER12
 62
     5
  6
CONTINUOUS
 10
3.0752
 20
5.5398
  0
VERTEX
  8
LAYER12
 62
     5
  6
CONTINUOUS
 10
3.0752
 20
5.5398
  0
SEQEND
  8
LAYER12
  0
POLYLINE
  8
LAYER12
 62
     5
 66
     1
  6
CONTINUOUS
  0
VERTEX
  8
LAYER12
 62
     5
  6
CONTINUOUS
 10
3.0752
 20
5.5398
  0
VERTEX
  8
LAYER12
 62
     5
  6
CONTINUOUS
 10
3.0752
 20
5.5398
  0
SEQEND
  8
LAYER12
  0
POLYLINE
  8
LAYER12
 62
     5
 66
     1
  6
CONTINUOUS
  0
VERTEX
  8
LAYER12
 62
     5
  6
CONTINUOUS
 10
3.0752
 20
5.5398
  0
VERTEX
  8
LAYER12
 62
     5
  6
CONTINUOUS
 10
3.0752
 20
5.5399
  0
SEQEND
  8
LAYER12
  0
POLYLINE
  8
LAYER12
 62
     5
 66
     1
  6
CONTINUOUS
  0
VERTEX
  8
LAYER12
 62
     5
  6
CONTINUOUS
 10
3.0752
 20
5.5399
  0
VERTEX
  8
LAYER12
 62
     5
  6
CONTINUOUS
 10
3.0752
 20
5.5398
  0
SEQEND
  8
LAYER12
  0
POLYLINE
  8
LAYER12
 62
     5
 66
     1
  6
CONTINUOUS
  0
VERTEX
  8
LAYER12
 62
     5
  6
CONTINUOUS
 10
3.0752
 20
5.5398
  0
VERTEX
  8
LAYER12
 62
     5
  6
CONTINUOUS
 10
3.0752
 20
5.5398
  0
SEQEND
  8
LAYER12
  0
POLYLINE
  8
LAYER12
 62
     5
 66
     1
  6
CONTINUOUS
  0
VERTEX
  8
LAYER12
 62
     5
  6
CONTINUOUS
 10
3.0752
 20
4.5557
  0
VERTEX
  8
LAYER12
 62
     5
  6
CONTINUOUS
 10
3.0752
 20
5.5398
  0
SEQEND
  8
LAYER12
  0
POLYLINE
  8
LAYER12
 62
     5
 66
     1
  6
CONTINUOUS
  0
VERTEX
  8
LAYER12
 62
     5
  6
CONTINUOUS
 10
3.0752
 20
5.5398
  0
VERTEX
  8
LAYER12
 62
     5
  6
CONTINUOUS
 10
3.0752
 20
5.5399
  0
SEQEND
  8
LAYER12
  0
POLYLINE
  8
LAYER12
 62
     5
 66
     1
  6
CONTINUOUS
  0
VERTEX
  8
LAYER12
 62
     5
  6
CONTINUOUS
 10
3.0752
 20
5.5399
  0
VERTEX
  8
LAYER12
 62
     5
  6
CONTINUOUS
 10
3.0752
 20
5.5398
  0
SEQEND
  8
LAYER12
  0
POLYLINE
  8
LAYER12
 62
     5
 66
     1
  6
CONTINUOUS
  0
VERTEX
  8
LAYER12
 62
     5
  6
CONTINUOUS
 10
3.0752
 20
5.5398
  0
VERTEX
  8
LAYER12
 62
     5
  6
CONTINUOUS
 10
3.0752
 20
5.5399
  0
SEQEND
  8
LAYER12
  0
POLYLINE
  8
LAYER12
 62
     5
 66
     1
  6
CONTINUOUS
  0
VERTEX
  8
LAYER12
 62
     5
  6
CONTINUOUS
 10
3.0752
 20
5.5399
  0
VERTEX
  8
LAYER12
 62
     5
  6
CONTINUOUS
 10
3.0752
 20
5.5398
  0
SEQEND
  8
LAYER12
  0
POLYLINE
  8
LAYER12
 62
     5
 66
     1
  6
CONTINUOUS
  0
VERTEX
  8
LAYER12
 62
     5
  6
CONTINUOUS
 10
3.0752
 20
5.5398
  0
VERTEX
  8
LAYER12
 62
     5
  6
CONTINUOUS
 10
3.0752
 20
5.5399
  0
SEQEND
  8
LAYER12
  0
POLYLINE
  8
LAYER12
 62
     5
 66
     1
  6
CONTINUOUS
  0
VERTEX
  8
LAYER12
 62
     5
  6
CONTINUOUS
 10
3.0752
 20
5.5399
  0
VERTEX
  8
LAYER12
 62
     5
  6
CONTINUOUS
 10
3.0752
 20
5.5398
  0
SEQEND
  8
LAYER12
  0
POLYLINE
  8
LAYER12
 62
     5
 66
     1
  6
CONTINUOUS
  0
VERTEX
  8
LAYER12
 62
     5
  6
CONTINUOUS
 10
3.0752
 20
5.5398
  0
VERTEX
  8
LAYER12
 62
     5
  6
CONTINUOUS
 10
3.0733
 20
5.5398
  0
SEQEND
  8
LAYER12
  0
POLYLINE
  8
LAYER12
 62
     5
 66
     1
  6
CONTINUOUS
  0
VERTEX
  8
LAYER12
 62
     5
  6
CONTINUOUS
 10
2.0522
 20
5.5398
  0
VERTEX
  8
LAYER12
 62
     5
  6
CONTINUOUS
 10
2.0522
 20
5.5398
  0
SEQEND
  8
LAYER12
  0
POLYLINE
  8
LAYER12
 62
     5
 66
     1
  6
CONTINUOUS
  0
VERTEX
  8
LAYER12
 62
     5
  6
CONTINUOUS
 10
2.0522
 20
5.5398
  0
VERTEX
  8
LAYER12
 62
     5
  6
CONTINUOUS
 10
2.0522
 20
5.5398
  0
SEQEND
  8
LAYER12
  0
POLYLINE
  8
LAYER12
 62
     5
 66
     1
  6
CONTINUOUS
  0
VERTEX
  8
LAYER12
 62
     5
  6
CONTINUOUS
 10
2.0522
 20
5.5398
  0
VERTEX
  8
LAYER12
 62
     5
  6
CONTINUOUS
 10
2.0522
 20
5.5399
  0
SEQEND
  8
LAYER12
  0
POLYLINE
  8
LAYER12
 62
     5
 66
     1
  6
CONTINUOUS
  0
VERTEX
  8
LAYER12
 62
     5
  6
CONTINUOUS
 10
2.0522
 20
5.5399
  0
VERTEX
  8
LAYER12
 62
     5
  6
CONTINUOUS
 10
2.0522
 20
5.5398
  0
SEQEND
  8
LAYER12
  0
POLYLINE
  8
LAYER12
 62
     5
 66
     1
  6
CONTINUOUS
  0
VERTEX
  8
LAYER12
 62
     5
  6
CONTINUOUS
 10
2.0522
 20
5.5398
  0
VERTEX
  8
LAYER12
 62
     5
  6
CONTINUOUS
 10
2.0522
 20
5.5398
  0
SEQEND
  8
LAYER12
  0
POLYLINE
  8
LAYER12
 62
     5
 66
     1
  6
CONTINUOUS
  0
VERTEX
  8
LAYER12
 62
     5
  6
CONTINUOUS
 10
2.0522
 20
5.5398
  0
VERTEX
  8
LAYER12
 62
     5
  6
CONTINUOUS
 10
2.0522
 20
5.5398
  0
SEQEND
  8
LAYER12
  0
POLYLINE
  8
LAYER12
 62
     5
 66
     1
  6
CONTINUOUS
  0
VERTEX
  8
LAYER12
 62
     5
  6
CONTINUOUS
 10
2.0522
 20
5.5398
  0
VERTEX
  8
LAYER12
 62
     5
  6
CONTINUOUS
 10
2.0522
 20
5.5399
  0
SEQEND
  8
LAYER12
  0
POLYLINE
  8
LAYER12
 62
     5
 66
     1
  6
CONTINUOUS
  0
VERTEX
  8
LAYER12
 62
     5
  6
CONTINUOUS
 10
2.0522
 20
5.5399
  0
VERTEX
  8
LAYER12
 62
     5
  6
CONTINUOUS
 10
2.0522
 20
5.5398
  0
SEQEND
  8
LAYER12
  0
POLYLINE
  8
LAYER12
 62
     5
 66
     1
  6
CONTINUOUS
  0
VERTEX
  8
LAYER12
 62
     5
  6
CONTINUOUS
 10
2.0522
 20
5.5398
  0
VERTEX
  8
LAYER12
 62
     5
  6
CONTINUOUS
 10
2.0522
 20
5.5398
  0
SEQEND
  8
LAYER12
  0
POLYLINE
  8
LAYER12
 62
     5
 66
     1
  6
CONTINUOUS
  0
VERTEX
  8
LAYER12
 62
     5
  6
CONTINUOUS
 10
2.0522
 20
5.5398
  0
VERTEX
  8
LAYER12
 62
     5
  6
CONTINUOUS
 10
2.0522
 20
5.5398
  0
SEQEND
  8
LAYER12
  0
POLYLINE
  8
LAYER12
 62
     5
 66
     1
  6
CONTINUOUS
  0
VERTEX
  8
LAYER12
 62
     5
  6
CONTINUOUS
 10
2.0522
 20
5.5398
  0
VERTEX
  8
LAYER12
 62
     5
  6
CONTINUOUS
 10
2.0522
 20
5.5399
  0
SEQEND
  8
LAYER12
  0
POLYLINE
  8
LAYER12
 62
     5
 66
     1
  6
CONTINUOUS
  0
VERTEX
  8
LAYER12
 62
     5
  6
CONTINUOUS
 10
2.0522
 20
5.5399
  0
VERTEX
  8
LAYER12
 62
     5
  6
CONTINUOUS
 10
2.0522
 20
5.5398
  0
SEQEND
  8
LAYER12
  0
POLYLINE
  8
LAYER12
 62
     5
 66
     1
  6
CONTINUOUS
  0
VERTEX
  8
LAYER12
 62
     5
  6
CONTINUOUS
 10
2.0522
 20
5.5398
  0
VERTEX
  8
LAYER12
 62
     5
  6
CONTINUOUS
 10
2.0522
 20
5.5398
  0
SEQEND
  8
LAYER12
  0
POLYLINE
  8
LAYER12
 62
     5
 66
     1
  6
CONTINUOUS
  0
VERTEX
  8
LAYER12
 62
     5
  6
CONTINUOUS
 10
2.0522
 20
5.5398
  0
VERTEX
  8
LAYER12
 62
     5
  6
CONTINUOUS
 10
2.0522
 20
5.5398
  0
SEQEND
  8
LAYER12
  0
POLYLINE
  8
LAYER12
 62
     5
 66
     1
  6
CONTINUOUS
  0
VERTEX
  8
LAYER12
 62
     5
  6
CONTINUOUS
 10
3.0733
 20
5.5398
  0
VERTEX
  8
LAYER12
 62
     5
  6
CONTINUOUS
 10
2.0521
 20
5.5398
  0
SEQEND
  8
LAYER12
  0
POLYLINE
  8
LAYER12
 62
     5
 66
     1
  6
CONTINUOUS
  0
VERTEX
  8
LAYER12
 62
     5
  6
CONTINUOUS
 10
2.0522
 20
5.5398
  0
VERTEX
  8
LAYER12
 62
     5
  6
CONTINUOUS
 10
2.0522
 20
5.5320
  0
SEQEND
  8
LAYER12
  0
POLYLINE
  8
LAYER12
 62
     5
 66
     1
  6
CONTINUOUS
  0
VERTEX
  8
LAYER12
 62
     5
  6
CONTINUOUS
 10
2.0522
 20
5.5320
  0
VERTEX
  8
LAYER12
 62
     5
  6
CONTINUOUS
 10
2.0522
 20
4.5557
  0
SEQEND
  8
LAYER12
  0
POLYLINE
  8
LAYER12
 62
     5
 66
     1
  6
CONTINUOUS
  0
VERTEX
  8
LAYER12
 62
     5
  6
CONTINUOUS
 10
2.0521
 20
5.5398
  0
VERTEX
  8
LAYER12
 62
     5
  6
CONTINUOUS
 10
2.0518
 20
5.5398
  0
SEQEND
  8
LAYER12
  0
POLYLINE
  8
LAYER12
 62
     5
 66
     1
  6
CONTINUOUS
  0
VERTEX
  8
LAYER12
 62
     5
  6
CONTINUOUS
 10
2.0518
 20
4.5561
  0
VERTEX
  8
LAYER12
 62
     5
  6
CONTINUOUS
 10
3.0733
 20
4.5561
  0
SEQEND
  8
LAYER12
  0
POLYLINE
  8
LAYER12
 62
     5
 66
     1
  6
CONTINUOUS
  0
VERTEX
  8
LAYER12
 62
     5
  6
CONTINUOUS
 10
3.0733
 20
4.5561
  0
VERTEX
  8
LAYER12
 62
     5
  6
CONTINUOUS
 10
3.0756
 20
4.5561
  0
SEQEND
  8
LAYER12
  0
POLYLINE
  8
LAYER12
 62
     5
 66
     1
  6
CONTINUOUS
  0
VERTEX
  8
LAYER12
 62
     5
  6
CONTINUOUS
 10
3.0754
 20
5.5398
  0
VERTEX
  8
LAYER12
 62
     5
  6
CONTINUOUS
 10
3.0752
 20
5.5398
  0
SEQEND
  8
LAYER12
  0
ENDSEC
  0
EOF
