  0
SECTION
  2
HEADER
  9
$ACADVER
  1
AC1004
  9
$EXTMIN
 10
9.0560
 20
4.5561
  9
$EXTMAX
 10
10.0398
 20
5.5399
  9
$LIMMIN
 10
9.0560
 20
4.5561
  9
$LIMMAX
 10
10.0398
 20
5.5399
  9
$INSBASE
 10
0.0
 20
0.0
  9
$VIEWCTR
 10
7.21903
 20
4.5
  9
$VIEWSIZE
 40
9.0
  9
$SNAPMODE
 70
     0
  9
$SNAPUNIT
 10
1.0
 20
1.0
  9
$SNAPBASE
 10
0.0
 20
0.0
  9
$SNAPANG
 50
0.0
  9
$SNAPSTYLE
 70
     0
  9
$SNAPISOPAIR
 70
     0
  9
$GRIDMODE
 70
     0
  9
$GRIDUNIT
 10
0.0
 20
0.0
  9
$ORTHOMODE
 70
     0
  9
$REGENMODE
 70
     1
  9
$FILLMODE
 70
     1
  9
$QTEXTMODE
 70
     0
  9
$DRAGMODE
 70
     2
  9
$LTSCALE
 40
1.0
  9
$OSMODE
 70
     0
  9
$ATTMODE
 70
     1
  9
$TEXTSIZE
 40
0.2
  9
$TRACEWID
 40
0.05
  9
$TEXTSTYLE
  7
STANDARD
  9
$CLAYER
  8
0
  9
$CELTYPE
  6
BYLAYER
  9
$CECOLOR
 62
   256
  9
$DIMSCALE
 40
1.0
  9
$DIMASZ
 40
0.18
  9
$DIMEXO
 40
0.0625
  9
$DIMDLI
 40
0.38
  9
$DIMRND
 40
0.0
  9
$DIMDLE
 40
0.0
  9
$DIMEXE
 40
0.18
  9
$DIMTP
 40
0.0
  9
$DIMTM
 40
0.0
  9
$DIMTXT
 40
0.18
  9
$DIMCEN
 40
0.09
  9
$DIMTSZ
 40
0.0
  9
$DIMTOL
 70
     0
  9
$DIMLIM
 70
     0
  9
$DIMTIH
 70
     1
  9
$DIMTOH
 70
     1
  9
$DIMSE1
 70
     0
  9
$DIMSE2
 70
     0
  9
$DIMTAD
 70
     0
  9
$DIMZIN
 70
     0
  9
$DIMBLK
  1

  9
$DIMASO
 70
     1
  9
$DIMSHO
 70
     0
  9
$DIMPOST
  1

  9
$DIMAPOST
  1

  9
$DIMALT
 70
     0
  9
$DIMALTD
 70
     2
  9
$DIMALTF
 40
25.4
  9
$DIMLFAC
 40
1.0
  9
$LUNITS
 70
     2
  9
$LUPREC
 70
     4
  9
$AXISMODE
 70
     0
  9
$AXISUNIT
 10
0.0
 20
0.0
  9
$SKETCHINC
 40
0.1
  9
$FILLETRAD
 40
0.0
  9
$AUNITS
 70
     0
  9
$AUPREC
 70
     0
  9
$MENU
  1
acad
  9
$ELEVATION
 40
0.0
  9
$THICKNESS
 40
0.0
  9
$VIEWDIR
 10
0.0
 20
0.0
 30
1.0
  9
$LIMCHECK
 70
     0
  9
$BLIPMODE
 70
     1
  9
$CHAMFERA
 40
0.0
  9
$CHAMFERB
 40
0.0
  9
$FASTZOOM
 70
     1
  9
$SKPOLY
 70
     0
  9
$TDCREATE
 40
2447222.5666886573
  9
$TDUPDATE
 40
2447222.5666886573
  9
$TDINDWG
 40
0.0000000000
  9
$TDUSRTIMER
 40
0.0000000000
  9
$USRTIMER
 70
     1
  9
$ANGBASE
 50
0.0
  9
$ANGDIR
 70
     0
  9
$PDMODE
 70
     0
  9
$PDSIZE
 40
0.0
  9
$PLINEWID
 40
0.0
  9
$COORDS
 70
     0
  9
$SPLFRAME
 70
     0
  9
$SPLINESEGS
 70
     8
  9
$ATTDIA
 70
     0
  9
$ATTREQ
 70
     1
  9
$USERI1
 70
     0
  9
$USERI2
 70
     0
  9
$USERI3
 70
     0
  9
$USERI4
 70
     0
  9
$USERI5
 70
     0
  9
$USERR1
 40
0.0
  9
$USERR2
 40
0.0
  9
$USERR3
 40
0.0
  9
$USERR4
 40
0.0
  9
$USERR5
 40
0.0
  0
ENDSEC
  0
SECTION
  2
TABLES
  0
TABLE
  2
LTYPE
 70
     13
  0
LTYPE
  2
CONTINUOUS
 70
    64
  3
Solid line
 72
    65
 73
     0
 40
0.0
  0
LTYPE
  2
DASHED
 70
    64
  3
__ __ __ __ __ __ __ __ __ __ __ __ __ __ __
 72
    65
 73
     2
 40
0.75
 49
0.5
 49
-0.25
  0
LTYPE
  2
HIDDEN
 70
    64
  3
_ _ _ _ _ _ _ _ _ _ _ _ _ _ _ _ _ _ _ _ _ _ _
 72
    65
 73
     2
 40
0.375
 49
0.25
 49
-0.125
  0
LTYPE
  2
CENTER
 70
    64
  3
____ _ ____ _ ____ _ ____ _ ____ _ ____ _ ____
 72
    65
 73
     4
 40
2.0
 49
1.25
 49
-0.25
 49
0.25
 49
-0.25
  0
LTYPE
  2
PHANTOM
 70
    64
  3
_____ _ _ _____ _ _ _____ _ _ _____ _ _ ____
 72
    65
 73
     6
 40
2.5
 49
1.25
 49
-0.25
 49
0.25
 49
-0.25
 49
0.25
 49
-0.25
  0
LTYPE
  2
DOT
 70
    64
  3
...............................................
 72
    65
 73
     2
 40
0.25
 49
0.0
 49
-0.25
  0
LTYPE
  2
DASHDOT
 70
    64
  3
__ . __ . __ . __ . __ . __ . __ . __ . __ . __
 72
    65
 73
     4
 40
1.0
 49
0.5
 49
-0.25
 49
0.0
 49
-0.25
  0
LTYPE
  2
BORDER
 70
    64
  3
__ __ . __ __ . __ __ . __ __ . __ __ . __ __
 72
    65
 73
     6
 40
1.75
 49
0.5
 49
-0.25
 49
0.5
 49
-0.25
 49
0.0
 49
-0.25
  0
LTYPE
  2
DIVIDE
 70
    64
  3
__ . . __ . . __ . . __ . . __ . . __ . . __
 72
    65
 73
     6
 40
1.25
 49
0.5
 49
-0.25
 49
0.0
 49
-0.25
 49
0.0
 49
-0.25
  0
LTYPE
  2
DCTYPE1
 70
    64
  3
__ . . __ . . __ . . __ . . __ . . __ . . __
 72
    65
 73
     8
 40
2.5
 49
0.5
 49
-0.25
 49
0.125
 49
-0.25
 49
0.25
 49
-0.25
 49
0.125
 49
-0.25
  0
LTYPE
  2
DCTYPE2
 70
    64
  3
__ . . __ . . __ . . __ . . __ . . __ . . __
 72
    65
 73
     6
 40
2.05
 49
1.0
 49
-0.3
 49
0.15
 49
-0.15
 49
0.15
 49
-0.3
  0
LTYPE
  2
DCTYPE3
 70
    64
  3
__ . . __ . . __ . . __ . . __ . . __ . . __
 72
    65
 73
     6
 40
2.5
 49
0.8
 49
-0.2
 49
0.8
 49
-0.2
 49
0.3
 49
-0.2
  0
LTYPE
  2
DCTYPE4
 70
    64
  3
__ . . __ . . __ . . __ . . __ . . __ . . __
 72
    65
 73
     10
 40
3.97
 49
1.75
 49
-0.3
 49
0.3
 49
-0.3
 49
0.06
 49
-0.3
 49
0.06
 49
-0.3
 49
0.3
 49
-0.3
  0
ENDTAB
  0
TABLE
  2
LAYER
 70
    153
  0
LAYER
  2
LAYER1
 70
 64
 62
     7
  6
CONTINUOUS
  0
LAYER
  2
LAYER12
 70
 64
 62
     5
  6
CONTINUOUS
  0
ENDTAB
  0
ENDSEC
  0
SECTION
  2
BLOCKS
  0
ENDSEC
  0
SECTION
  2
ENTITIES
  0
CIRCLE
  8
LAYER1
 62
     7
  6
CONTINUOUS
 10
9.7955
 20
4.5768
 40
0.0153
  0
CIRCLE
  8
LAYER1
 62
     7
  6
CONTINUOUS
 10
9.8481
 20
4.5903
 40
0.0203
  0
CIRCLE
  8
LAYER1
 62
     7
  6
CONTINUOUS
 10
9.8762
 20
4.5656
 40
0.0071
  0
CIRCLE
  8
LAYER1
 62
     7
  6
CONTINUOUS
 10
9.8981
 20
4.6087
 40
0.0178
  0
CIRCLE
  8
LAYER1
 62
     7
  6
CONTINUOUS
 10
9.9887
 20
4.6102
 40
0.0128
  0
CIRCLE
  8
LAYER1
 62
     7
  6
CONTINUOUS
 10
9.5804
 20
4.6563
 40
0.0153
  0
CIRCLE
  8
LAYER1
 62
     7
  6
CONTINUOUS
 10
9.9493
 20
4.7076
 40
0.0271
  0
CIRCLE
  8
LAYER1
 62
     7
  6
CONTINUOUS
 10
9.4415
 20
4.6968
 40
0.0281
  0
CIRCLE
  8
LAYER1
 62
     7
  6
CONTINUOUS
 10
9.1340
 20
4.8905
 40
0.0104
  0
CIRCLE
  8
LAYER1
 62
     7
  6
CONTINUOUS
 10
9.1971
 20
4.8714
 40
0.0112
  0
CIRCLE
  8
LAYER1
 62
     7
  6
CONTINUOUS
 10
9.3298
 20
4.9113
 40
0.0080
  0
CIRCLE
  8
LAYER1
 62
     7
  6
CONTINUOUS
 10
9.3758
 20
4.8642
 40
0.0104
  0
CIRCLE
  8
LAYER1
 62
     7
  6
CONTINUOUS
 10
9.4031
 20
4.8873
 40
0.0091
  0
CIRCLE
  8
LAYER1
 62
     7
  6
CONTINUOUS
 10
9.3897
 20
5.0933
 40
0.0075
  0
CIRCLE
  8
LAYER1
 62
     7
  6
CONTINUOUS
 10
9.4303
 20
5.0689
 40
0.0075
  0
CIRCLE
  8
LAYER1
 62
     7
  6
CONTINUOUS
 10
9.4620
 20
5.1323
 40
0.0126
  0
CIRCLE
  8
LAYER1
 62
     7
  6
CONTINUOUS
 10
9.4772
 20
4.9715
 40
0.0159
  0
CIRCLE
  8
LAYER1
 62
     7
  6
CONTINUOUS
 10
9.5353
 20
4.9574
 40
0.0169
  0
CIRCLE
  8
LAYER1
 62
     7
  6
CONTINUOUS
 10
9.1117
 20
5.0184
 40
0.0128
  0
CIRCLE
  8
LAYER1
 62
     7
  6
CONTINUOUS
 10
9.1174
 20
4.9807
 40
0.0056
  0
CIRCLE
  8
LAYER1
 62
     7
  6
CONTINUOUS
 10
9.1492
 20
5.0316
 40
0.0207
  0
CIRCLE
  8
LAYER1
 62
     7
  6
CONTINUOUS
 10
9.1670
 20
5.1752
 40
0.0215
  0
CIRCLE
  8
LAYER1
 62
     7
  6
CONTINUOUS
 10
9.1216
 20
5.1845
 40
0.0253
  0
CIRCLE
  8
LAYER1
 62
     7
  6
CONTINUOUS
 10
9.0936
 20
5.2017
 40
0.0153
  0
CIRCLE
  8
LAYER1
 62
     7
  6
CONTINUOUS
 10
9.2967
 20
5.3962
 40
0.0281
  0
CIRCLE
  8
LAYER1
 62
     7
  6
CONTINUOUS
 10
9.2320
 20
5.3574
 40
0.0147
  0
CIRCLE
  8
LAYER1
 62
     7
  6
CONTINUOUS
 10
9.1975
 20
5.3115
 40
0.0080
  0
CIRCLE
  8
LAYER1
 62
     7
  6
CONTINUOUS
 10
9.6675
 20
5.1759
 40
0.0203
  0
CIRCLE
  8
LAYER1
 62
     7
  6
CONTINUOUS
 10
9.6237
 20
5.0871
 40
0.0178
  0
CIRCLE
  8
LAYER1
 62
     7
  6
CONTINUOUS
 10
9.7127
 20
5.0282
 40
0.0161
  0
CIRCLE
  8
LAYER1
 62
     7
  6
CONTINUOUS
 10
9.7966
 20
5.1302
 40
0.0126
  0
CIRCLE
  8
LAYER1
 62
     7
  6
CONTINUOUS
 10
9.8010
 20
5.1680
 40
0.0101
  0
CIRCLE
  8
LAYER1
 62
     7
  6
CONTINUOUS
 10
9.8790
 20
5.1617
 40
0.0178
  0
CIRCLE
  8
LAYER1
 62
     7
  6
CONTINUOUS
 10
9.9129
 20
5.0918
 40
0.0176
  0
CIRCLE
  8
LAYER1
 62
     7
  6
CONTINUOUS
 10
9.8728
 20
4.9277
 40
0.0253
  0
CIRCLE
  8
LAYER1
 62
     7
  6
CONTINUOUS
 10
9.9728
 20
5.4248
 40
0.0126
  0
CIRCLE
  8
LAYER1
 62
     7
  6
CONTINUOUS
 10
9.9518
 20
5.3264
 40
0.0153
  0
CIRCLE
  8
LAYER1
 62
     7
  6
CONTINUOUS
 10
9.4158
 20
5.4962
 40
0.0178
  0
ARC
  8
LAYER1
 62
     7
  6
CONTINUOUS
 10
9.0692
 20
5.0076
 40
0.0226
 50
-89.0679
 51
125.2828
  0
ARC
  8
LAYER1
 62
     7
  6
CONTINUOUS
 10
9.0692
 20
5.0076
 40
0.0226
 50
-125.2822
 51
-89.0679
  0
ARC
  8
LAYER1
 62
     7
  6
CONTINUOUS
 10
9.0569
 20
5.2942
 40
0.0128
 50
-77.7582
 51
93.7526
  0
ARC
  8
LAYER1
 62
     7
  6
CONTINUOUS
 10
9.0569
 20
5.2942
 40
0.0128
 50
-93.7524
 51
-77.7591
  0
ARC
  8
LAYER1
 62
     7
  6
CONTINUOUS
 10
9.0515
 20
5.4726
 40
0.0181
 50
-55.3714
 51
75.3261
  0
ARC
  8
LAYER1
 62
     7
  6
CONTINUOUS
 10
9.0515
 20
5.4726
 40
0.0181
 50
-75.3258
 51
-55.3706
  0
POLYLINE
  8
LAYER1
 62
     7
 66
     1
  6
CONTINUOUS
  0
VERTEX
  8
LAYER1
 62
     7
  6
CONTINUOUS
 10
9.0561
 20
4.5561
  0
VERTEX
  8
LAYER1
 62
     7
  6
CONTINUOUS
 10
9.0561
 20
4.5561
  0
SEQEND
  8
LAYER1
  0
ARC
  8
LAYER1
 62
     7
  6
CONTINUOUS
 10
9.9988
 20
5.5284
 40
0.0303
 50
157.5759
 51
-84.2950
  0
ARC
  8
LAYER1
 62
     7
  6
CONTINUOUS
 10
9.2313
 20
5.5485
 40
0.0126
 50
-136.8934
 51
-89.0569
  0
POLYLINE
  8
LAYER1
 62
     7
 66
     1
  6
CONTINUOUS
  0
VERTEX
  8
LAYER1
 62
     7
  6
CONTINUOUS
 10
9.0561
 20
4.5561
  0
VERTEX
  8
LAYER1
 62
     7
  6
CONTINUOUS
 10
9.0560
 20
4.5561
  0
SEQEND
  8
LAYER1
  0
POLYLINE
  8
LAYER1
 62
     7
 66
     1
  6
CONTINUOUS
  0
VERTEX
  8
LAYER1
 62
     7
  6
CONTINUOUS
 10
9.0560
 20
4.5561
  0
VERTEX
  8
LAYER1
 62
     7
  6
CONTINUOUS
 10
10.0388
 20
4.5561
  0
SEQEND
  8
LAYER1
  0
POLYLINE
  8
LAYER1
 62
     7
 66
     1
  6
CONTINUOUS
  0
VERTEX
  8
LAYER1
 62
     7
  6
CONTINUOUS
 10
9.0560
 20
4.5561
  0
VERTEX
  8
LAYER1
 62
     7
  6
CONTINUOUS
 10
9.0561
 20
4.5561
  0
SEQEND
  8
LAYER1
  0
ARC
  8
LAYER1
 62
     7
  6
CONTINUOUS
 10
10.0265
 20
4.7567
 40
0.0178
 50
-97.2033
 51
-46.0919
  0
ARC
  8
LAYER1
 62
     7
  6
CONTINUOUS
 10
10.0265
 20
4.7567
 40
0.0178
 50
46.1027
 51
-97.2031
  0
ARC
  8
LAYER1
 62
     7
  6
CONTINUOUS
 10
10.0500
 20
4.7017
 40
0.0232
 50
118.8796
 51
-118.8802
  0
ARC
  8
LAYER1
 62
     7
  6
CONTINUOUS
 10
10.0480
 20
5.2877
 40
0.0169
 50
122.9068
 51
-122.9068
  0
ARC
  8
LAYER1
 62
     7
  6
CONTINUOUS
 10
9.9988
 20
5.5284
 40
0.0303
 50
-84.2949
 51
22.4240
  0
ARC
  8
LAYER1
 62
     7
  6
CONTINUOUS
 10
9.5659
 20
5.5439
 40
0.0192
 50
-167.9377
 51
-12.0629
  0
ARC
  8
LAYER1
 62
     7
  6
CONTINUOUS
 10
9.2313
 20
5.5485
 40
0.0126
 50
-89.0569
 51
-43.1036
  0
POLYLINE
  8
LAYER12
 62
     5
 66
     1
  6
CONTINUOUS
  0
VERTEX
  8
LAYER12
 62
     5
  6
CONTINUOUS
 10
9.0561
 20
5.5398
  0
VERTEX
  8
LAYER12
 62
     5
  6
CONTINUOUS
 10
9.0561
 20
5.5398
  0
SEQEND
  8
LAYER12
  0
POLYLINE
  8
LAYER12
 62
     5
 66
     1
  6
CONTINUOUS
  0
VERTEX
  8
LAYER12
 62
     5
  6
CONTINUOUS
 10
9.0561
 20
4.5561
  0
VERTEX
  8
LAYER12
 62
     5
  6
CONTINUOUS
 10
9.0561
 20
4.5561
  0
SEQEND
  8
LAYER12
  0
POLYLINE
  8
LAYER12
 62
     5
 66
     1
  6
CONTINUOUS
  0
VERTEX
  8
LAYER12
 62
     5
  6
CONTINUOUS
 10
9.0561
 20
4.5561
  0
VERTEX
  8
LAYER12
 62
     5
  6
CONTINUOUS
 10
9.0560
 20
4.5561
  0
SEQEND
  8
LAYER12
  0
POLYLINE
  8
LAYER12
 62
     5
 66
     1
  6
CONTINUOUS
  0
VERTEX
  8
LAYER12
 62
     5
  6
CONTINUOUS
 10
9.0560
 20
4.5561
  0
VERTEX
  8
LAYER12
 62
     5
  6
CONTINUOUS
 10
10.0388
 20
4.5561
  0
SEQEND
  8
LAYER12
  0
POLYLINE
  8
LAYER12
 62
     5
 66
     1
  6
CONTINUOUS
  0
VERTEX
  8
LAYER12
 62
     5
  6
CONTINUOUS
 10
9.0561
 20
4.5561
  0
VERTEX
  8
LAYER12
 62
     5
  6
CONTINUOUS
 10
9.0561
 20
4.5571
  0
SEQEND
  8
LAYER12
  0
POLYLINE
  8
LAYER12
 62
     5
 66
     1
  6
CONTINUOUS
  0
VERTEX
  8
LAYER12
 62
     5
  6
CONTINUOUS
 10
9.0561
 20
4.5571
  0
VERTEX
  8
LAYER12
 62
     5
  6
CONTINUOUS
 10
9.0561
 20
5.5350
  0
SEQEND
  8
LAYER12
  0
POLYLINE
  8
LAYER12
 62
     5
 66
     1
  6
CONTINUOUS
  0
VERTEX
  8
LAYER12
 62
     5
  6
CONTINUOUS
 10
9.0560
 20
4.5561
  0
VERTEX
  8
LAYER12
 62
     5
  6
CONTINUOUS
 10
9.0561
 20
4.5561
  0
SEQEND
  8
LAYER12
  0
POLYLINE
  8
LAYER12
 62
     5
 66
     1
  6
CONTINUOUS
  0
VERTEX
  8
LAYER12
 62
     5
  6
CONTINUOUS
 10
10.0388
 20
5.5398
  0
VERTEX
  8
LAYER12
 62
     5
  6
CONTINUOUS
 10
10.0388
 20
5.5398
  0
SEQEND
  8
LAYER12
  0
POLYLINE
  8
LAYER12
 62
     5
 66
     1
  6
CONTINUOUS
  0
VERTEX
  8
LAYER12
 62
     5
  6
CONTINUOUS
 10
10.0388
 20
5.5398
  0
VERTEX
  8
LAYER12
 62
     5
  6
CONTINUOUS
 10
9.0560
 20
5.5398
  0
SEQEND
  8
LAYER12
  0
POLYLINE
  8
LAYER12
 62
     5
 66
     1
  6
CONTINUOUS
  0
VERTEX
  8
LAYER12
 62
     5
  6
CONTINUOUS
 10
9.0560
 20
5.5398
  0
VERTEX
  8
LAYER12
 62
     5
  6
CONTINUOUS
 10
9.0561
 20
5.5398
  0
SEQEND
  8
LAYER12
  0
POLYLINE
  8
LAYER12
 62
     5
 66
     1
  6
CONTINUOUS
  0
VERTEX
  8
LAYER12
 62
     5
  6
CONTINUOUS
 10
9.0561
 20
5.5350
  0
VERTEX
  8
LAYER12
 62
     5
  6
CONTINUOUS
 10
9.0561
 20
5.5399
  0
SEQEND
  8
LAYER12
  0
POLYLINE
  8
LAYER12
 62
     5
 66
     1
  6
CONTINUOUS
  0
VERTEX
  8
LAYER12
 62
     5
  6
CONTINUOUS
 10
9.0561
 20
5.5399
  0
VERTEX
  8
LAYER12
 62
     5
  6
CONTINUOUS
 10
9.0561
 20
5.5398
  0
SEQEND
  8
LAYER12
  0
POLYLINE
  8
LAYER12
 62
     5
 66
     1
  6
CONTINUOUS
  0
VERTEX
  8
LAYER12
 62
     5
  6
CONTINUOUS
 10
9.0561
 20
5.5398
  0
VERTEX
  8
LAYER12
 62
     5
  6
CONTINUOUS
 10
9.0560
 20
5.5398
  0
SEQEND
  8
LAYER12
  0
POLYLINE
  8
LAYER12
 62
     5
 66
     1
  6
CONTINUOUS
  0
VERTEX
  8
LAYER12
 62
     5
  6
CONTINUOUS
 10
9.0561
 20
5.5398
  0
VERTEX
  8
LAYER12
 62
     5
  6
CONTINUOUS
 10
9.0561
 20
5.5399
  0
SEQEND
  8
LAYER12
  0
POLYLINE
  8
LAYER12
 62
     5
 66
     1
  6
CONTINUOUS
  0
VERTEX
  8
LAYER12
 62
     5
  6
CONTINUOUS
 10
10.0398
 20
5.5399
  0
VERTEX
  8
LAYER12
 62
     5
  6
CONTINUOUS
 10
10.0398
 20
4.5571
  0
SEQEND
  8
LAYER12
  0
ENDSEC
  0
EOF
