  0
SECTION
  2
HEADER
  9
$ACADVER
  1
AC1004
  9
$EXTMIN
 10
8.0330
 20
4.5561
  9
$EXTMAX
 10
9.0561
 20
5.5400
  9
$LIMMIN
 10
8.0330
 20
4.5561
  9
$LIMMAX
 10
9.0561
 20
5.5400
  9
$INSBASE
 10
0.0
 20
0.0
  9
$VIEWCTR
 10
7.21903
 20
4.5
  9
$VIEWSIZE
 40
9.0
  9
$SNAPMODE
 70
     0
  9
$SNAPUNIT
 10
1.0
 20
1.0
  9
$SNAPBASE
 10
0.0
 20
0.0
  9
$SNAPANG
 50
0.0
  9
$SNAPSTYLE
 70
     0
  9
$SNAPISOPAIR
 70
     0
  9
$GRIDMODE
 70
     0
  9
$GRIDUNIT
 10
0.0
 20
0.0
  9
$ORTHOMODE
 70
     0
  9
$REGENMODE
 70
     1
  9
$FILLMODE
 70
     1
  9
$QTEXTMODE
 70
     0
  9
$DRAGMODE
 70
     2
  9
$LTSCALE
 40
1.0
  9
$OSMODE
 70
     0
  9
$ATTMODE
 70
     1
  9
$TEXTSIZE
 40
0.2
  9
$TRACEWID
 40
0.05
  9
$TEXTSTYLE
  7
STANDARD
  9
$CLAYER
  8
0
  9
$CELTYPE
  6
BYLAYER
  9
$CECOLOR
 62
   256
  9
$DIMSCALE
 40
1.0
  9
$DIMASZ
 40
0.18
  9
$DIMEXO
 40
0.0625
  9
$DIMDLI
 40
0.38
  9
$DIMRND
 40
0.0
  9
$DIMDLE
 40
0.0
  9
$DIMEXE
 40
0.18
  9
$DIMTP
 40
0.0
  9
$DIMTM
 40
0.0
  9
$DIMTXT
 40
0.18
  9
$DIMCEN
 40
0.09
  9
$DIMTSZ
 40
0.0
  9
$DIMTOL
 70
     0
  9
$DIMLIM
 70
     0
  9
$DIMTIH
 70
     1
  9
$DIMTOH
 70
     1
  9
$DIMSE1
 70
     0
  9
$DIMSE2
 70
     0
  9
$DIMTAD
 70
     0
  9
$DIMZIN
 70
     0
  9
$DIMBLK
  1

  9
$DIMASO
 70
     1
  9
$DIMSHO
 70
     0
  9
$DIMPOST
  1

  9
$DIMAPOST
  1

  9
$DIMALT
 70
     0
  9
$DIMALTD
 70
     2
  9
$DIMALTF
 40
25.4
  9
$DIMLFAC
 40
1.0
  9
$LUNITS
 70
     2
  9
$LUPREC
 70
     4
  9
$AXISMODE
 70
     0
  9
$AXISUNIT
 10
0.0
 20
0.0
  9
$SKETCHINC
 40
0.1
  9
$FILLETRAD
 40
0.0
  9
$AUNITS
 70
     0
  9
$AUPREC
 70
     0
  9
$MENU
  1
acad
  9
$ELEVATION
 40
0.0
  9
$THICKNESS
 40
0.0
  9
$VIEWDIR
 10
0.0
 20
0.0
 30
1.0
  9
$LIMCHECK
 70
     0
  9
$BLIPMODE
 70
     1
  9
$CHAMFERA
 40
0.0
  9
$CHAMFERB
 40
0.0
  9
$FASTZOOM
 70
     1
  9
$SKPOLY
 70
     0
  9
$TDCREATE
 40
2447222.5666886573
  9
$TDUPDATE
 40
2447222.5666886573
  9
$TDINDWG
 40
0.0000000000
  9
$TDUSRTIMER
 40
0.0000000000
  9
$USRTIMER
 70
     1
  9
$ANGBASE
 50
0.0
  9
$ANGDIR
 70
     0
  9
$PDMODE
 70
     0
  9
$PDSIZE
 40
0.0
  9
$PLINEWID
 40
0.0
  9
$COORDS
 70
     0
  9
$SPLFRAME
 70
     0
  9
$SPLINESEGS
 70
     8
  9
$ATTDIA
 70
     0
  9
$ATTREQ
 70
     1
  9
$USERI1
 70
     0
  9
$USERI2
 70
     0
  9
$USERI3
 70
     0
  9
$USERI4
 70
     0
  9
$USERI5
 70
     0
  9
$USERR1
 40
0.0
  9
$USERR2
 40
0.0
  9
$USERR3
 40
0.0
  9
$USERR4
 40
0.0
  9
$USERR5
 40
0.0
  0
ENDSEC
  0
SECTION
  2
TABLES
  0
TABLE
  2
LTYPE
 70
     13
  0
LTYPE
  2
CONTINUOUS
 70
    64
  3
Solid line
 72
    65
 73
     0
 40
0.0
  0
LTYPE
  2
DASHED
 70
    64
  3
__ __ __ __ __ __ __ __ __ __ __ __ __ __ __
 72
    65
 73
     2
 40
0.75
 49
0.5
 49
-0.25
  0
LTYPE
  2
HIDDEN
 70
    64
  3
_ _ _ _ _ _ _ _ _ _ _ _ _ _ _ _ _ _ _ _ _ _ _
 72
    65
 73
     2
 40
0.375
 49
0.25
 49
-0.125
  0
LTYPE
  2
CENTER
 70
    64
  3
____ _ ____ _ ____ _ ____ _ ____ _ ____ _ ____
 72
    65
 73
     4
 40
2.0
 49
1.25
 49
-0.25
 49
0.25
 49
-0.25
  0
LTYPE
  2
PHANTOM
 70
    64
  3
_____ _ _ _____ _ _ _____ _ _ _____ _ _ ____
 72
    65
 73
     6
 40
2.5
 49
1.25
 49
-0.25
 49
0.25
 49
-0.25
 49
0.25
 49
-0.25
  0
LTYPE
  2
DOT
 70
    64
  3
...............................................
 72
    65
 73
     2
 40
0.25
 49
0.0
 49
-0.25
  0
LTYPE
  2
DASHDOT
 70
    64
  3
__ . __ . __ . __ . __ . __ . __ . __ . __ . __
 72
    65
 73
     4
 40
1.0
 49
0.5
 49
-0.25
 49
0.0
 49
-0.25
  0
LTYPE
  2
BORDER
 70
    64
  3
__ __ . __ __ . __ __ . __ __ . __ __ . __ __
 72
    65
 73
     6
 40
1.75
 49
0.5
 49
-0.25
 49
0.5
 49
-0.25
 49
0.0
 49
-0.25
  0
LTYPE
  2
DIVIDE
 70
    64
  3
__ . . __ . . __ . . __ . . __ . . __ . . __
 72
    65
 73
     6
 40
1.25
 49
0.5
 49
-0.25
 49
0.0
 49
-0.25
 49
0.0
 49
-0.25
  0
LTYPE
  2
DCTYPE1
 70
    64
  3
__ . . __ . . __ . . __ . . __ . . __ . . __
 72
    65
 73
     8
 40
2.5
 49
0.5
 49
-0.25
 49
0.125
 49
-0.25
 49
0.25
 49
-0.25
 49
0.125
 49
-0.25
  0
LTYPE
  2
DCTYPE2
 70
    64
  3
__ . . __ . . __ . . __ . . __ . . __ . . __
 72
    65
 73
     6
 40
2.05
 49
1.0
 49
-0.3
 49
0.15
 49
-0.15
 49
0.15
 49
-0.3
  0
LTYPE
  2
DCTYPE3
 70
    64
  3
__ . . __ . . __ . . __ . . __ . . __ . . __
 72
    65
 73
     6
 40
2.5
 49
0.8
 49
-0.2
 49
0.8
 49
-0.2
 49
0.3
 49
-0.2
  0
LTYPE
  2
DCTYPE4
 70
    64
  3
__ . . __ . . __ . . __ . . __ . . __ . . __
 72
    65
 73
     10
 40
3.97
 49
1.75
 49
-0.3
 49
0.3
 49
-0.3
 49
0.06
 49
-0.3
 49
0.06
 49
-0.3
 49
0.3
 49
-0.3
  0
ENDTAB
  0
TABLE
  2
LAYER
 70
    153
  0
LAYER
  2
LAYER1
 70
 64
 62
     7
  6
CONTINUOUS
  0
LAYER
  2
LAYER12
 70
 64
 62
     5
  6
CONTINUOUS
  0
ENDTAB
  0
ENDSEC
  0
SECTION
  2
BLOCKS
  0
ENDSEC
  0
SECTION
  2
ENTITIES
  0
CIRCLE
  8
LAYER1
 62
     7
  6
CONTINUOUS
 10
9.0397
 20
4.8084
 40
0.0104
  0
CIRCLE
  8
LAYER1
 62
     7
  6
CONTINUOUS
 10
9.0326
 20
5.0925
 40
0.0135
  0
CIRCLE
  8
LAYER1
 62
     7
  6
CONTINUOUS
 10
8.9605
 20
5.5041
 40
0.0227
  0
CIRCLE
  8
LAYER1
 62
     7
  6
CONTINUOUS
 10
8.1015
 20
5.4736
 40
0.0181
  0
CIRCLE
  8
LAYER1
 62
     7
  6
CONTINUOUS
 10
8.1937
 20
5.5075
 40
0.0128
  0
CIRCLE
  8
LAYER1
 62
     7
  6
CONTINUOUS
 10
8.3019
 20
5.4816
 40
0.0207
  0
CIRCLE
  8
LAYER1
 62
     7
  6
CONTINUOUS
 10
8.5245
 20
5.5075
 40
0.0128
  0
CIRCLE
  8
LAYER1
 62
     7
  6
CONTINUOUS
 10
8.0939
 20
5.3131
 40
0.0336
  0
CIRCLE
  8
LAYER1
 62
     7
  6
CONTINUOUS
 10
8.2238
 20
5.3376
 40
0.0231
  0
CIRCLE
  8
LAYER1
 62
     7
  6
CONTINUOUS
 10
8.2797
 20
5.2883
 40
0.0135
  0
CIRCLE
  8
LAYER1
 62
     7
  6
CONTINUOUS
 10
8.3972
 20
5.3076
 40
0.0160
  0
CIRCLE
  8
LAYER1
 62
     7
  6
CONTINUOUS
 10
8.4774
 20
5.3038
 40
0.0326
  0
CIRCLE
  8
LAYER1
 62
     7
  6
CONTINUOUS
 10
8.4905
 20
5.4318
 40
0.0177
  0
CIRCLE
  8
LAYER1
 62
     7
  6
CONTINUOUS
 10
8.5064
 20
5.3794
 40
0.0125
  0
CIRCLE
  8
LAYER1
 62
     7
  6
CONTINUOUS
 10
8.5959
 20
5.4209
 40
0.0168
  0
CIRCLE
  8
LAYER1
 62
     7
  6
CONTINUOUS
 10
8.7112
 20
5.4201
 40
0.0146
  0
CIRCLE
  8
LAYER1
 62
     7
  6
CONTINUOUS
 10
8.7354
 20
5.3102
 40
0.0182
  0
CIRCLE
  8
LAYER1
 62
     7
  6
CONTINUOUS
 10
8.7914
 20
5.2560
 40
0.0125
  0
CIRCLE
  8
LAYER1
 62
     7
  6
CONTINUOUS
 10
8.6487
 20
5.2488
 40
0.0146
  0
CIRCLE
  8
LAYER1
 62
     7
  6
CONTINUOUS
 10
8.6835
 20
5.2618
 40
0.0135
  0
CIRCLE
  8
LAYER1
 62
     7
  6
CONTINUOUS
 10
8.7019
 20
5.2045
 40
0.0231
  0
CIRCLE
  8
LAYER1
 62
     7
  6
CONTINUOUS
 10
8.7550
 20
5.1777
 40
0.0168
  0
CIRCLE
  8
LAYER1
 62
     7
  6
CONTINUOUS
 10
8.8033
 20
5.1283
 40
0.0200
  0
CIRCLE
  8
LAYER1
 62
     7
  6
CONTINUOUS
 10
8.8479
 20
5.1641
 40
0.0213
  0
CIRCLE
  8
LAYER1
 62
     7
  6
CONTINUOUS
 10
8.8725
 20
5.0267
 40
0.0106
  0
CIRCLE
  8
LAYER1
 62
     7
  6
CONTINUOUS
 10
8.6520
 20
5.0258
 40
0.0103
  0
CIRCLE
  8
LAYER1
 62
     7
  6
CONTINUOUS
 10
8.8830
 20
4.8264
 40
0.0293
  0
CIRCLE
  8
LAYER1
 62
     7
  6
CONTINUOUS
 10
8.4463
 20
4.8749
 40
0.0135
  0
CIRCLE
  8
LAYER1
 62
     7
  6
CONTINUOUS
 10
8.4919
 20
4.8430
 40
0.0150
  0
CIRCLE
  8
LAYER1
 62
     7
  6
CONTINUOUS
 10
8.4141
 20
4.8544
 40
0.0079
  0
CIRCLE
  8
LAYER1
 62
     7
  6
CONTINUOUS
 10
8.2638
 20
4.6792
 40
0.0213
  0
POLYLINE
  8
LAYER1
 62
     7
 66
     1
  6
CONTINUOUS
  0
VERTEX
  8
LAYER1
 62
     7
  6
CONTINUOUS
 10
9.0246
 20
5.5350
  0
VERTEX
  8
LAYER1
 62
     7
  6
CONTINUOUS
 10
9.0262
 20
5.5310
  0
VERTEX
  8
LAYER1
 62
     7
  6
CONTINUOUS
 10
9.0278
 20
5.5271
  0
VERTEX
  8
LAYER1
 62
     7
  6
CONTINUOUS
 10
9.0294
 20
5.5233
  0
VERTEX
  8
LAYER1
 62
     7
  6
CONTINUOUS
 10
9.0309
 20
5.5197
  0
VERTEX
  8
LAYER1
 62
     7
  6
CONTINUOUS
 10
9.0323
 20
5.5162
  0
VERTEX
  8
LAYER1
 62
     7
  6
CONTINUOUS
 10
9.0336
 20
5.5131
  0
VERTEX
  8
LAYER1
 62
     7
  6
CONTINUOUS
 10
9.0348
 20
5.5102
  0
VERTEX
  8
LAYER1
 62
     7
  6
CONTINUOUS
 10
9.0358
 20
5.5078
  0
VERTEX
  8
LAYER1
 62
     7
  6
CONTINUOUS
 10
9.0367
 20
5.5057
  0
VERTEX
  8
LAYER1
 62
     7
  6
CONTINUOUS
 10
9.0374
 20
5.5042
  0
VERTEX
  8
LAYER1
 62
     7
  6
CONTINUOUS
 10
9.0379
 20
5.5032
  0
VERTEX
  8
LAYER1
 62
     7
  6
CONTINUOUS
 10
9.0382
 20
5.5027
  0
VERTEX
  8
LAYER1
 62
     7
  6
CONTINUOUS
 10
9.0382
 20
5.5027
  0
VERTEX
  8
LAYER1
 62
     7
  6
CONTINUOUS
 10
9.0383
 20
5.5027
  0
VERTEX
  8
LAYER1
 62
     7
  6
CONTINUOUS
 10
9.0383
 20
5.5027
  0
VERTEX
  8
LAYER1
 62
     7
  6
CONTINUOUS
 10
9.0383
 20
5.5027
  0
VERTEX
  8
LAYER1
 62
     7
  6
CONTINUOUS
 10
9.0383
 20
5.5027
  0
VERTEX
  8
LAYER1
 62
     7
  6
CONTINUOUS
 10
9.0383
 20
5.5028
  0
VERTEX
  8
LAYER1
 62
     7
  6
CONTINUOUS
 10
9.0383
 20
5.5028
  0
VERTEX
  8
LAYER1
 62
     7
  6
CONTINUOUS
 10
9.0383
 20
5.5028
  0
VERTEX
  8
LAYER1
 62
     7
  6
CONTINUOUS
 10
9.0383
 20
5.5028
  0
VERTEX
  8
LAYER1
 62
     7
  6
CONTINUOUS
 10
9.0383
 20
5.5028
  0
VERTEX
  8
LAYER1
 62
     7
  6
CONTINUOUS
 10
9.0382
 20
5.5028
  0
VERTEX
  8
LAYER1
 62
     7
  6
CONTINUOUS
 10
9.0382
 20
5.5027
  0
VERTEX
  8
LAYER1
 62
     7
  6
CONTINUOUS
 10
9.0380
 20
5.5022
  0
VERTEX
  8
LAYER1
 62
     7
  6
CONTINUOUS
 10
9.0377
 20
5.5010
  0
VERTEX
  8
LAYER1
 62
     7
  6
CONTINUOUS
 10
9.0372
 20
5.4994
  0
VERTEX
  8
LAYER1
 62
     7
  6
CONTINUOUS
 10
9.0366
 20
5.4973
  0
VERTEX
  8
LAYER1
 62
     7
  6
CONTINUOUS
 10
9.0359
 20
5.4948
  0
VERTEX
  8
LAYER1
 62
     7
  6
CONTINUOUS
 10
9.0351
 20
5.4919
  0
VERTEX
  8
LAYER1
 62
     7
  6
CONTINUOUS
 10
9.0342
 20
5.4889
  0
VERTEX
  8
LAYER1
 62
     7
  6
CONTINUOUS
 10
9.0332
 20
5.4857
  0
VERTEX
  8
LAYER1
 62
     7
  6
CONTINUOUS
 10
9.0322
 20
5.4824
  0
VERTEX
  8
LAYER1
 62
     7
  6
CONTINUOUS
 10
9.0311
 20
5.4790
  0
VERTEX
  8
LAYER1
 62
     7
  6
CONTINUOUS
 10
9.0299
 20
5.4757
  0
VERTEX
  8
LAYER1
 62
     7
  6
CONTINUOUS
 10
9.0286
 20
5.4725
  0
VERTEX
  8
LAYER1
 62
     7
  6
CONTINUOUS
 10
9.0274
 20
5.4695
  0
VERTEX
  8
LAYER1
 62
     7
  6
CONTINUOUS
 10
9.0260
 20
5.4666
  0
VERTEX
  8
LAYER1
 62
     7
  6
CONTINUOUS
 10
9.0246
 20
5.4639
  0
VERTEX
  8
LAYER1
 62
     7
  6
CONTINUOUS
 10
9.0232
 20
5.4614
  0
VERTEX
  8
LAYER1
 62
     7
  6
CONTINUOUS
 10
9.0217
 20
5.4590
  0
VERTEX
  8
LAYER1
 62
     7
  6
CONTINUOUS
 10
9.0201
 20
5.4568
  0
VERTEX
  8
LAYER1
 62
     7
  6
CONTINUOUS
 10
9.0185
 20
5.4548
  0
VERTEX
  8
LAYER1
 62
     7
  6
CONTINUOUS
 10
9.0168
 20
5.4530
  0
VERTEX
  8
LAYER1
 62
     7
  6
CONTINUOUS
 10
9.0150
 20
5.4513
  0
VERTEX
  8
LAYER1
 62
     7
  6
CONTINUOUS
 10
9.0131
 20
5.4498
  0
VERTEX
  8
LAYER1
 62
     7
  6
CONTINUOUS
 10
9.0111
 20
5.4484
  0
VERTEX
  8
LAYER1
 62
     7
  6
CONTINUOUS
 10
9.0090
 20
5.4472
  0
VERTEX
  8
LAYER1
 62
     7
  6
CONTINUOUS
 10
9.0052
 20
5.4454
  0
VERTEX
  8
LAYER1
 62
     7
  6
CONTINUOUS
 10
9.0011
 20
5.4440
  0
VERTEX
  8
LAYER1
 62
     7
  6
CONTINUOUS
 10
8.9968
 20
5.4430
  0
VERTEX
  8
LAYER1
 62
     7
  6
CONTINUOUS
 10
8.9922
 20
5.4423
  0
VERTEX
  8
LAYER1
 62
     7
  6
CONTINUOUS
 10
8.9876
 20
5.4420
  0
VERTEX
  8
LAYER1
 62
     7
  6
CONTINUOUS
 10
8.9828
 20
5.4419
  0
VERTEX
  8
LAYER1
 62
     7
  6
CONTINUOUS
 10
8.9779
 20
5.4422
  0
VERTEX
  8
LAYER1
 62
     7
  6
CONTINUOUS
 10
8.9731
 20
5.4426
  0
VERTEX
  8
LAYER1
 62
     7
  6
CONTINUOUS
 10
8.9682
 20
5.4433
  0
VERTEX
  8
LAYER1
 62
     7
  6
CONTINUOUS
 10
8.9633
 20
5.4442
  0
VERTEX
  8
LAYER1
 62
     7
  6
CONTINUOUS
 10
8.9585
 20
5.4452
  0
VERTEX
  8
LAYER1
 62
     7
  6
CONTINUOUS
 10
8.9539
 20
5.4463
  0
VERTEX
  8
LAYER1
 62
     7
  6
CONTINUOUS
 10
8.9509
 20
5.4472
  0
VERTEX
  8
LAYER1
 62
     7
  6
CONTINUOUS
 10
8.9480
 20
5.4480
  0
VERTEX
  8
LAYER1
 62
     7
  6
CONTINUOUS
 10
8.9452
 20
5.4490
  0
VERTEX
  8
LAYER1
 62
     7
  6
CONTINUOUS
 10
8.9424
 20
5.4501
  0
VERTEX
  8
LAYER1
 62
     7
  6
CONTINUOUS
 10
8.9397
 20
5.4514
  0
VERTEX
  8
LAYER1
 62
     7
  6
CONTINUOUS
 10
8.9371
 20
5.4528
  0
VERTEX
  8
LAYER1
 62
     7
  6
CONTINUOUS
 10
8.9346
 20
5.4544
  0
VERTEX
  8
LAYER1
 62
     7
  6
CONTINUOUS
 10
8.9322
 20
5.4562
  0
VERTEX
  8
LAYER1
 62
     7
  6
CONTINUOUS
 10
8.9299
 20
5.4582
  0
VERTEX
  8
LAYER1
 62
     7
  6
CONTINUOUS
 10
8.9277
 20
5.4605
  0
VERTEX
  8
LAYER1
 62
     7
  6
CONTINUOUS
 10
8.9255
 20
5.4630
  0
VERTEX
  8
LAYER1
 62
     7
  6
CONTINUOUS
 10
8.9235
 20
5.4659
  0
VERTEX
  8
LAYER1
 62
     7
  6
CONTINUOUS
 10
8.9212
 20
5.4697
  0
VERTEX
  8
LAYER1
 62
     7
  6
CONTINUOUS
 10
8.9191
 20
5.4738
  0
VERTEX
  8
LAYER1
 62
     7
  6
CONTINUOUS
 10
8.9172
 20
5.4782
  0
VERTEX
  8
LAYER1
 62
     7
  6
CONTINUOUS
 10
8.9154
 20
5.4826
  0
VERTEX
  8
LAYER1
 62
     7
  6
CONTINUOUS
 10
8.9138
 20
5.4870
  0
VERTEX
  8
LAYER1
 62
     7
  6
CONTINUOUS
 10
8.9124
 20
5.4912
  0
VERTEX
  8
LAYER1
 62
     7
  6
CONTINUOUS
 10
8.9111
 20
5.4951
  0
VERTEX
  8
LAYER1
 62
     7
  6
CONTINUOUS
 10
8.9101
 20
5.4986
  0
VERTEX
  8
LAYER1
 62
     7
  6
CONTINUOUS
 10
8.9092
 20
5.5015
  0
VERTEX
  8
LAYER1
 62
     7
  6
CONTINUOUS
 10
8.9085
 20
5.5038
  0
VERTEX
  8
LAYER1
 62
     7
  6
CONTINUOUS
 10
8.9081
 20
5.5052
  0
VERTEX
  8
LAYER1
 62
     7
  6
CONTINUOUS
 10
8.9079
 20
5.5058
  0
VERTEX
  8
LAYER1
 62
     7
  6
CONTINUOUS
 10
8.9079
 20
5.5058
  0
VERTEX
  8
LAYER1
 62
     7
  6
CONTINUOUS
 10
8.9079
 20
5.5058
  0
VERTEX
  8
LAYER1
 62
     7
  6
CONTINUOUS
 10
8.9079
 20
5.5057
  0
VERTEX
  8
LAYER1
 62
     7
  6
CONTINUOUS
 10
8.9078
 20
5.5057
  0
VERTEX
  8
LAYER1
 62
     7
  6
CONTINUOUS
 10
8.9078
 20
5.5057
  0
VERTEX
  8
LAYER1
 62
     7
  6
CONTINUOUS
 10
8.9078
 20
5.5057
  0
VERTEX
  8
LAYER1
 62
     7
  6
CONTINUOUS
 10
8.9078
 20
5.5057
  0
VERTEX
  8
LAYER1
 62
     7
  6
CONTINUOUS
 10
8.9079
 20
5.5057
  0
VERTEX
  8
LAYER1
 62
     7
  6
CONTINUOUS
 10
8.9079
 20
5.5057
  0
VERTEX
  8
LAYER1
 62
     7
  6
CONTINUOUS
 10
8.9079
 20
5.5057
  0
VERTEX
  8
LAYER1
 62
     7
  6
CONTINUOUS
 10
8.9079
 20
5.5057
  0
VERTEX
  8
LAYER1
 62
     7
  6
CONTINUOUS
 10
8.9079
 20
5.5058
  0
VERTEX
  8
LAYER1
 62
     7
  6
CONTINUOUS
 10
8.9079
 20
5.5063
  0
VERTEX
  8
LAYER1
 62
     7
  6
CONTINUOUS
 10
8.9080
 20
5.5071
  0
VERTEX
  8
LAYER1
 62
     7
  6
CONTINUOUS
 10
8.9081
 20
5.5083
  0
VERTEX
  8
LAYER1
 62
     7
  6
CONTINUOUS
 10
8.9081
 20
5.5098
  0
VERTEX
  8
LAYER1
 62
     7
  6
CONTINUOUS
 10
8.9082
 20
5.5115
  0
VERTEX
  8
LAYER1
 62
     7
  6
CONTINUOUS
 10
8.9082
 20
5.5133
  0
VERTEX
  8
LAYER1
 62
     7
  6
CONTINUOUS
 10
8.9082
 20
5.5154
  0
VERTEX
  8
LAYER1
 62
     7
  6
CONTINUOUS
 10
8.9082
 20
5.5175
  0
VERTEX
  8
LAYER1
 62
     7
  6
CONTINUOUS
 10
8.9081
 20
5.5196
  0
VERTEX
  8
LAYER1
 62
     7
  6
CONTINUOUS
 10
8.9080
 20
5.5218
  0
VERTEX
  8
LAYER1
 62
     7
  6
CONTINUOUS
 10
8.9078
 20
5.5238
  0
VERTEX
  8
LAYER1
 62
     7
  6
CONTINUOUS
 10
8.9076
 20
5.5258
  0
VERTEX
  8
LAYER1
 62
     7
  6
CONTINUOUS
 10
8.9074
 20
5.5267
  0
VERTEX
  8
LAYER1
 62
     7
  6
CONTINUOUS
 10
8.9073
 20
5.5276
  0
VERTEX
  8
LAYER1
 62
     7
  6
CONTINUOUS
 10
8.9071
 20
5.5284
  0
VERTEX
  8
LAYER1
 62
     7
  6
CONTINUOUS
 10
8.9069
 20
5.5292
  0
VERTEX
  8
LAYER1
 62
     7
  6
CONTINUOUS
 10
8.9067
 20
5.5300
  0
VERTEX
  8
LAYER1
 62
     7
  6
CONTINUOUS
 10
8.9065
 20
5.5307
  0
VERTEX
  8
LAYER1
 62
     7
  6
CONTINUOUS
 10
8.9063
 20
5.5315
  0
VERTEX
  8
LAYER1
 62
     7
  6
CONTINUOUS
 10
8.9061
 20
5.5322
  0
VERTEX
  8
LAYER1
 62
     7
  6
CONTINUOUS
 10
8.9058
 20
5.5329
  0
VERTEX
  8
LAYER1
 62
     7
  6
CONTINUOUS
 10
8.9056
 20
5.5336
  0
VERTEX
  8
LAYER1
 62
     7
  6
CONTINUOUS
 10
8.9054
 20
5.5343
  0
VERTEX
  8
LAYER1
 62
     7
  6
CONTINUOUS
 10
8.9051
 20
5.5350
  0
SEQEND
  8
LAYER1
  0
ARC
  8
LAYER1
 62
     7
  6
CONTINUOUS
 10
8.2585
 20
5.5336
 40
0.0146
 50
-58.1784
 51
5.6377
  0
ARC
  8
LAYER1
 62
     7
  6
CONTINUOUS
 10
8.2585
 20
5.5336
 40
0.0146
 50
154.7714
 51
174.3605
  0
ARC
  8
LAYER1
 62
     7
  6
CONTINUOUS
 10
8.2585
 20
5.5336
 40
0.0146
 50
174.3609
 51
-58.1772
  0
POLYLINE
  8
LAYER1
 62
     7
 66
     1
  6
CONTINUOUS
  0
VERTEX
  8
LAYER1
 62
     7
  6
CONTINUOUS
 10
8.0340
 20
4.5561
  0
VERTEX
  8
LAYER1
 62
     7
  6
CONTINUOUS
 10
9.0561
 20
4.5561
  0
SEQEND
  8
LAYER1
  0
POLYLINE
  8
LAYER1
 62
     7
 66
     1
  6
CONTINUOUS
  0
VERTEX
  8
LAYER1
 62
     7
  6
CONTINUOUS
 10
8.0330
 20
4.5561
  0
VERTEX
  8
LAYER1
 62
     7
  6
CONTINUOUS
 10
8.0340
 20
4.5561
  0
SEQEND
  8
LAYER1
  0
POLYLINE
  8
LAYER1
 62
     7
 66
     1
  6
CONTINUOUS
  0
VERTEX
  8
LAYER1
 62
     7
  6
CONTINUOUS
 10
9.0227
 20
5.5398
  0
VERTEX
  8
LAYER1
 62
     7
  6
CONTINUOUS
 10
9.0227
 20
5.5398
  0
VERTEX
  8
LAYER1
 62
     7
  6
CONTINUOUS
 10
9.0227
 20
5.5398
  0
VERTEX
  8
LAYER1
 62
     7
  6
CONTINUOUS
 10
9.0227
 20
5.5398
  0
VERTEX
  8
LAYER1
 62
     7
  6
CONTINUOUS
 10
9.0227
 20
5.5398
  0
VERTEX
  8
LAYER1
 62
     7
  6
CONTINUOUS
 10
9.0227
 20
5.5398
  0
VERTEX
  8
LAYER1
 62
     7
  6
CONTINUOUS
 10
9.0227
 20
5.5398
  0
VERTEX
  8
LAYER1
 62
     7
  6
CONTINUOUS
 10
9.0227
 20
5.5398
  0
VERTEX
  8
LAYER1
 62
     7
  6
CONTINUOUS
 10
9.0227
 20
5.5398
  0
VERTEX
  8
LAYER1
 62
     7
  6
CONTINUOUS
 10
9.0227
 20
5.5398
  0
VERTEX
  8
LAYER1
 62
     7
  6
CONTINUOUS
 10
9.0227
 20
5.5398
  0
VERTEX
  8
LAYER1
 62
     7
  6
CONTINUOUS
 10
9.0227
 20
5.5398
  0
VERTEX
  8
LAYER1
 62
     7
  6
CONTINUOUS
 10
9.0227
 20
5.5398
  0
VERTEX
  8
LAYER1
 62
     7
  6
CONTINUOUS
 10
9.0227
 20
5.5398
  0
VERTEX
  8
LAYER1
 62
     7
  6
CONTINUOUS
 10
9.0227
 20
5.5398
  0
VERTEX
  8
LAYER1
 62
     7
  6
CONTINUOUS
 10
9.0227
 20
5.5398
  0
VERTEX
  8
LAYER1
 62
     7
  6
CONTINUOUS
 10
9.0227
 20
5.5398
  0
VERTEX
  8
LAYER1
 62
     7
  6
CONTINUOUS
 10
9.0227
 20
5.5398
  0
VERTEX
  8
LAYER1
 62
     7
  6
CONTINUOUS
 10
9.0227
 20
5.5398
  0
VERTEX
  8
LAYER1
 62
     7
  6
CONTINUOUS
 10
9.0227
 20
5.5398
  0
VERTEX
  8
LAYER1
 62
     7
  6
CONTINUOUS
 10
9.0227
 20
5.5398
  0
VERTEX
  8
LAYER1
 62
     7
  6
CONTINUOUS
 10
9.0227
 20
5.5398
  0
VERTEX
  8
LAYER1
 62
     7
  6
CONTINUOUS
 10
9.0227
 20
5.5398
  0
VERTEX
  8
LAYER1
 62
     7
  6
CONTINUOUS
 10
9.0227
 20
5.5398
  0
VERTEX
  8
LAYER1
 62
     7
  6
CONTINUOUS
 10
9.0227
 20
5.5398
  0
SEQEND
  8
LAYER1
  0
POLYLINE
  8
LAYER1
 62
     7
 66
     1
  6
CONTINUOUS
  0
VERTEX
  8
LAYER1
 62
     7
  6
CONTINUOUS
 10
8.9032
 20
5.5398
  0
VERTEX
  8
LAYER1
 62
     7
  6
CONTINUOUS
 10
8.9032
 20
5.5398
  0
VERTEX
  8
LAYER1
 62
     7
  6
CONTINUOUS
 10
8.9032
 20
5.5398
  0
VERTEX
  8
LAYER1
 62
     7
  6
CONTINUOUS
 10
8.9032
 20
5.5398
  0
VERTEX
  8
LAYER1
 62
     7
  6
CONTINUOUS
 10
8.9032
 20
5.5398
  0
VERTEX
  8
LAYER1
 62
     7
  6
CONTINUOUS
 10
8.9032
 20
5.5398
  0
VERTEX
  8
LAYER1
 62
     7
  6
CONTINUOUS
 10
8.9032
 20
5.5398
  0
VERTEX
  8
LAYER1
 62
     7
  6
CONTINUOUS
 10
8.9032
 20
5.5398
  0
VERTEX
  8
LAYER1
 62
     7
  6
CONTINUOUS
 10
8.9032
 20
5.5398
  0
VERTEX
  8
LAYER1
 62
     7
  6
CONTINUOUS
 10
8.9032
 20
5.5398
  0
VERTEX
  8
LAYER1
 62
     7
  6
CONTINUOUS
 10
8.9032
 20
5.5398
  0
VERTEX
  8
LAYER1
 62
     7
  6
CONTINUOUS
 10
8.9032
 20
5.5398
  0
VERTEX
  8
LAYER1
 62
     7
  6
CONTINUOUS
 10
8.9032
 20
5.5398
  0
VERTEX
  8
LAYER1
 62
     7
  6
CONTINUOUS
 10
8.9032
 20
5.5398
  0
VERTEX
  8
LAYER1
 62
     7
  6
CONTINUOUS
 10
8.9032
 20
5.5398
  0
VERTEX
  8
LAYER1
 62
     7
  6
CONTINUOUS
 10
8.9032
 20
5.5398
  0
VERTEX
  8
LAYER1
 62
     7
  6
CONTINUOUS
 10
8.9032
 20
5.5398
  0
VERTEX
  8
LAYER1
 62
     7
  6
CONTINUOUS
 10
8.9032
 20
5.5398
  0
VERTEX
  8
LAYER1
 62
     7
  6
CONTINUOUS
 10
8.9032
 20
5.5398
  0
VERTEX
  8
LAYER1
 62
     7
  6
CONTINUOUS
 10
8.9032
 20
5.5398
  0
VERTEX
  8
LAYER1
 62
     7
  6
CONTINUOUS
 10
8.9032
 20
5.5398
  0
VERTEX
  8
LAYER1
 62
     7
  6
CONTINUOUS
 10
8.9032
 20
5.5398
  0
VERTEX
  8
LAYER1
 62
     7
  6
CONTINUOUS
 10
8.9032
 20
5.5398
  0
VERTEX
  8
LAYER1
 62
     7
  6
CONTINUOUS
 10
8.9032
 20
5.5398
  0
VERTEX
  8
LAYER1
 62
     7
  6
CONTINUOUS
 10
8.9032
 20
5.5398
  0
SEQEND
  8
LAYER1
  0
POLYLINE
  8
LAYER1
 62
     7
 66
     1
  6
CONTINUOUS
  0
VERTEX
  8
LAYER1
 62
     7
  6
CONTINUOUS
 10
9.0227
 20
5.5398
  0
VERTEX
  8
LAYER1
 62
     7
  6
CONTINUOUS
 10
9.0227
 20
5.5398
  0
VERTEX
  8
LAYER1
 62
     7
  6
CONTINUOUS
 10
9.0227
 20
5.5398
  0
VERTEX
  8
LAYER1
 62
     7
  6
CONTINUOUS
 10
9.0227
 20
5.5398
  0
VERTEX
  8
LAYER1
 62
     7
  6
CONTINUOUS
 10
9.0227
 20
5.5398
  0
VERTEX
  8
LAYER1
 62
     7
  6
CONTINUOUS
 10
9.0227
 20
5.5398
  0
VERTEX
  8
LAYER1
 62
     7
  6
CONTINUOUS
 10
9.0227
 20
5.5398
  0
VERTEX
  8
LAYER1
 62
     7
  6
CONTINUOUS
 10
9.0227
 20
5.5398
  0
VERTEX
  8
LAYER1
 62
     7
  6
CONTINUOUS
 10
9.0227
 20
5.5398
  0
VERTEX
  8
LAYER1
 62
     7
  6
CONTINUOUS
 10
9.0227
 20
5.5398
  0
VERTEX
  8
LAYER1
 62
     7
  6
CONTINUOUS
 10
9.0227
 20
5.5398
  0
VERTEX
  8
LAYER1
 62
     7
  6
CONTINUOUS
 10
9.0227
 20
5.5398
  0
VERTEX
  8
LAYER1
 62
     7
  6
CONTINUOUS
 10
9.0227
 20
5.5398
  0
VERTEX
  8
LAYER1
 62
     7
  6
CONTINUOUS
 10
9.0223
 20
5.5398
  0
VERTEX
  8
LAYER1
 62
     7
  6
CONTINUOUS
 10
9.0221
 20
5.5398
  0
VERTEX
  8
LAYER1
 62
     7
  6
CONTINUOUS
 10
9.0219
 20
5.5398
  0
VERTEX
  8
LAYER1
 62
     7
  6
CONTINUOUS
 10
9.0218
 20
5.5398
  0
VERTEX
  8
LAYER1
 62
     7
  6
CONTINUOUS
 10
9.0218
 20
5.5398
  0
VERTEX
  8
LAYER1
 62
     7
  6
CONTINUOUS
 10
9.0218
 20
5.5398
  0
VERTEX
  8
LAYER1
 62
     7
  6
CONTINUOUS
 10
9.0219
 20
5.5398
  0
VERTEX
  8
LAYER1
 62
     7
  6
CONTINUOUS
 10
9.0220
 20
5.5398
  0
VERTEX
  8
LAYER1
 62
     7
  6
CONTINUOUS
 10
9.0221
 20
5.5398
  0
VERTEX
  8
LAYER1
 62
     7
  6
CONTINUOUS
 10
9.0223
 20
5.5398
  0
VERTEX
  8
LAYER1
 62
     7
  6
CONTINUOUS
 10
9.0225
 20
5.5398
  0
VERTEX
  8
LAYER1
 62
     7
  6
CONTINUOUS
 10
9.0227
 20
5.5398
  0
SEQEND
  8
LAYER1
  0
POLYLINE
  8
LAYER1
 62
     7
 66
     1
  6
CONTINUOUS
  0
VERTEX
  8
LAYER1
 62
     7
  6
CONTINUOUS
 10
9.0227
 20
5.5398
  0
VERTEX
  8
LAYER1
 62
     7
  6
CONTINUOUS
 10
9.0229
 20
5.5393
  0
VERTEX
  8
LAYER1
 62
     7
  6
CONTINUOUS
 10
9.0231
 20
5.5388
  0
VERTEX
  8
LAYER1
 62
     7
  6
CONTINUOUS
 10
9.0233
 20
5.5383
  0
VERTEX
  8
LAYER1
 62
     7
  6
CONTINUOUS
 10
9.0235
 20
5.5378
  0
VERTEX
  8
LAYER1
 62
     7
  6
CONTINUOUS
 10
9.0237
 20
5.5374
  0
VERTEX
  8
LAYER1
 62
     7
  6
CONTINUOUS
 10
9.0238
 20
5.5369
  0
VERTEX
  8
LAYER1
 62
     7
  6
CONTINUOUS
 10
9.0240
 20
5.5365
  0
VERTEX
  8
LAYER1
 62
     7
  6
CONTINUOUS
 10
9.0242
 20
5.5361
  0
VERTEX
  8
LAYER1
 62
     7
  6
CONTINUOUS
 10
9.0243
 20
5.5358
  0
VERTEX
  8
LAYER1
 62
     7
  6
CONTINUOUS
 10
9.0244
 20
5.5355
  0
VERTEX
  8
LAYER1
 62
     7
  6
CONTINUOUS
 10
9.0245
 20
5.5352
  0
VERTEX
  8
LAYER1
 62
     7
  6
CONTINUOUS
 10
9.0246
 20
5.5350
  0
VERTEX
  8
LAYER1
 62
     7
  6
CONTINUOUS
 10
9.0247
 20
5.5349
  0
VERTEX
  8
LAYER1
 62
     7
  6
CONTINUOUS
 10
9.0247
 20
5.5348
  0
VERTEX
  8
LAYER1
 62
     7
  6
CONTINUOUS
 10
9.0247
 20
5.5347
  0
VERTEX
  8
LAYER1
 62
     7
  6
CONTINUOUS
 10
9.0248
 20
5.5346
  0
VERTEX
  8
LAYER1
 62
     7
  6
CONTINUOUS
 10
9.0248
 20
5.5346
  0
VERTEX
  8
LAYER1
 62
     7
  6
CONTINUOUS
 10
9.0248
 20
5.5346
  0
VERTEX
  8
LAYER1
 62
     7
  6
CONTINUOUS
 10
9.0247
 20
5.5347
  0
VERTEX
  8
LAYER1
 62
     7
  6
CONTINUOUS
 10
9.0247
 20
5.5347
  0
VERTEX
  8
LAYER1
 62
     7
  6
CONTINUOUS
 10
9.0247
 20
5.5348
  0
VERTEX
  8
LAYER1
 62
     7
  6
CONTINUOUS
 10
9.0247
 20
5.5349
  0
VERTEX
  8
LAYER1
 62
     7
  6
CONTINUOUS
 10
9.0246
 20
5.5349
  0
VERTEX
  8
LAYER1
 62
     7
  6
CONTINUOUS
 10
9.0246
 20
5.5350
  0
SEQEND
  8
LAYER1
  0
POLYLINE
  8
LAYER1
 62
     7
 66
     1
  6
CONTINUOUS
  0
VERTEX
  8
LAYER1
 62
     7
  6
CONTINUOUS
 10
8.9051
 20
5.5350
  0
VERTEX
  8
LAYER1
 62
     7
  6
CONTINUOUS
 10
8.9049
 20
5.5355
  0
VERTEX
  8
LAYER1
 62
     7
  6
CONTINUOUS
 10
8.9047
 20
5.5360
  0
VERTEX
  8
LAYER1
 62
     7
  6
CONTINUOUS
 10
8.9045
 20
5.5365
  0
VERTEX
  8
LAYER1
 62
     7
  6
CONTINUOUS
 10
8.9043
 20
5.5370
  0
VERTEX
  8
LAYER1
 62
     7
  6
CONTINUOUS
 10
8.9041
 20
5.5374
  0
VERTEX
  8
LAYER1
 62
     7
  6
CONTINUOUS
 10
8.9039
 20
5.5379
  0
VERTEX
  8
LAYER1
 62
     7
  6
CONTINUOUS
 10
8.9038
 20
5.5383
  0
VERTEX
  8
LAYER1
 62
     7
  6
CONTINUOUS
 10
8.9036
 20
5.5387
  0
VERTEX
  8
LAYER1
 62
     7
  6
CONTINUOUS
 10
8.9035
 20
5.5390
  0
VERTEX
  8
LAYER1
 62
     7
  6
CONTINUOUS
 10
8.9034
 20
5.5393
  0
VERTEX
  8
LAYER1
 62
     7
  6
CONTINUOUS
 10
8.9032
 20
5.5396
  0
VERTEX
  8
LAYER1
 62
     7
  6
CONTINUOUS
 10
8.9032
 20
5.5398
  0
VERTEX
  8
LAYER1
 62
     7
  6
CONTINUOUS
 10
8.9031
 20
5.5399
  0
VERTEX
  8
LAYER1
 62
     7
  6
CONTINUOUS
 10
8.9031
 20
5.5400
  0
VERTEX
  8
LAYER1
 62
     7
  6
CONTINUOUS
 10
8.9030
 20
5.5401
  0
VERTEX
  8
LAYER1
 62
     7
  6
CONTINUOUS
 10
8.9030
 20
5.5402
  0
VERTEX
  8
LAYER1
 62
     7
  6
CONTINUOUS
 10
8.9030
 20
5.5402
  0
VERTEX
  8
LAYER1
 62
     7
  6
CONTINUOUS
 10
8.9030
 20
5.5402
  0
VERTEX
  8
LAYER1
 62
     7
  6
CONTINUOUS
 10
8.9030
 20
5.5401
  0
VERTEX
  8
LAYER1
 62
     7
  6
CONTINUOUS
 10
8.9030
 20
5.5401
  0
VERTEX
  8
LAYER1
 62
     7
  6
CONTINUOUS
 10
8.9031
 20
5.5400
  0
VERTEX
  8
LAYER1
 62
     7
  6
CONTINUOUS
 10
8.9031
 20
5.5400
  0
VERTEX
  8
LAYER1
 62
     7
  6
CONTINUOUS
 10
8.9031
 20
5.5399
  0
VERTEX
  8
LAYER1
 62
     7
  6
CONTINUOUS
 10
8.9032
 20
5.5398
  0
SEQEND
  8
LAYER1
  0
POLYLINE
  8
LAYER1
 62
     7
 66
     1
  6
CONTINUOUS
  0
VERTEX
  8
LAYER1
 62
     7
  6
CONTINUOUS
 10
8.9032
 20
5.5398
  0
VERTEX
  8
LAYER1
 62
     7
  6
CONTINUOUS
 10
8.9032
 20
5.5398
  0
VERTEX
  8
LAYER1
 62
     7
  6
CONTINUOUS
 10
8.9032
 20
5.5398
  0
VERTEX
  8
LAYER1
 62
     7
  6
CONTINUOUS
 10
8.9032
 20
5.5398
  0
VERTEX
  8
LAYER1
 62
     7
  6
CONTINUOUS
 10
8.9032
 20
5.5398
  0
VERTEX
  8
LAYER1
 62
     7
  6
CONTINUOUS
 10
8.9032
 20
5.5398
  0
VERTEX
  8
LAYER1
 62
     7
  6
CONTINUOUS
 10
8.9032
 20
5.5398
  0
VERTEX
  8
LAYER1
 62
     7
  6
CONTINUOUS
 10
8.9032
 20
5.5398
  0
VERTEX
  8
LAYER1
 62
     7
  6
CONTINUOUS
 10
8.9032
 20
5.5398
  0
VERTEX
  8
LAYER1
 62
     7
  6
CONTINUOUS
 10
8.9032
 20
5.5398
  0
VERTEX
  8
LAYER1
 62
     7
  6
CONTINUOUS
 10
8.9032
 20
5.5398
  0
VERTEX
  8
LAYER1
 62
     7
  6
CONTINUOUS
 10
8.9032
 20
5.5398
  0
VERTEX
  8
LAYER1
 62
     7
  6
CONTINUOUS
 10
8.9032
 20
5.5398
  0
VERTEX
  8
LAYER1
 62
     7
  6
CONTINUOUS
 10
8.9032
 20
5.5398
  0
VERTEX
  8
LAYER1
 62
     7
  6
CONTINUOUS
 10
8.9032
 20
5.5398
  0
VERTEX
  8
LAYER1
 62
     7
  6
CONTINUOUS
 10
8.9032
 20
5.5398
  0
VERTEX
  8
LAYER1
 62
     7
  6
CONTINUOUS
 10
8.9032
 20
5.5398
  0
VERTEX
  8
LAYER1
 62
     7
  6
CONTINUOUS
 10
8.9032
 20
5.5398
  0
VERTEX
  8
LAYER1
 62
     7
  6
CONTINUOUS
 10
8.9032
 20
5.5398
  0
VERTEX
  8
LAYER1
 62
     7
  6
CONTINUOUS
 10
8.9032
 20
5.5398
  0
VERTEX
  8
LAYER1
 62
     7
  6
CONTINUOUS
 10
8.9032
 20
5.5398
  0
VERTEX
  8
LAYER1
 62
     7
  6
CONTINUOUS
 10
8.9032
 20
5.5398
  0
VERTEX
  8
LAYER1
 62
     7
  6
CONTINUOUS
 10
8.9032
 20
5.5398
  0
VERTEX
  8
LAYER1
 62
     7
  6
CONTINUOUS
 10
8.9032
 20
5.5398
  0
VERTEX
  8
LAYER1
 62
     7
  6
CONTINUOUS
 10
8.9032
 20
5.5398
  0
SEQEND
  8
LAYER1
  0
ARC
  8
LAYER1
 62
     7
  6
CONTINUOUS
 10
9.0692
 20
5.0076
 40
0.0226
 50
125.2829
 51
-125.2822
  0
ARC
  8
LAYER1
 62
     7
  6
CONTINUOUS
 10
9.0569
 20
5.2942
 40
0.0128
 50
93.7524
 51
-93.7523
  0
ARC
  8
LAYER1
 62
     7
  6
CONTINUOUS
 10
9.0515
 20
5.4726
 40
0.0181
 50
75.3261
 51
-75.3258
  0
ARC
  8
LAYER1
 62
     7
  6
CONTINUOUS
 10
8.2585
 20
5.5336
 40
0.0146
 50
5.6384
 51
25.2255
  0
POLYLINE
  8
LAYER12
 62
     5
 66
     1
  6
CONTINUOUS
  0
VERTEX
  8
LAYER12
 62
     5
  6
CONTINUOUS
 10
8.0340
 20
4.5561
  0
VERTEX
  8
LAYER12
 62
     5
  6
CONTINUOUS
 10
9.0561
 20
4.5561
  0
SEQEND
  8
LAYER12
  0
POLYLINE
  8
LAYER12
 62
     5
 66
     1
  6
CONTINUOUS
  0
VERTEX
  8
LAYER12
 62
     5
  6
CONTINUOUS
 10
8.0330
 20
4.5561
  0
VERTEX
  8
LAYER12
 62
     5
  6
CONTINUOUS
 10
8.0330
 20
4.5561
  0
SEQEND
  8
LAYER12
  0
POLYLINE
  8
LAYER12
 62
     5
 66
     1
  6
CONTINUOUS
  0
VERTEX
  8
LAYER12
 62
     5
  6
CONTINUOUS
 10
8.0330
 20
4.5561
  0
VERTEX
  8
LAYER12
 62
     5
  6
CONTINUOUS
 10
8.0340
 20
4.5561
  0
SEQEND
  8
LAYER12
  0
POLYLINE
  8
LAYER12
 62
     5
 66
     1
  6
CONTINUOUS
  0
VERTEX
  8
LAYER12
 62
     5
  6
CONTINUOUS
 10
8.0340
 20
5.5398
  0
VERTEX
  8
LAYER12
 62
     5
  6
CONTINUOUS
 10
8.0340
 20
5.5398
  0
SEQEND
  8
LAYER12
  0
POLYLINE
  8
LAYER12
 62
     5
 66
     1
  6
CONTINUOUS
  0
VERTEX
  8
LAYER12
 62
     5
  6
CONTINUOUS
 10
8.0330
 20
5.5400
  0
VERTEX
  8
LAYER12
 62
     5
  6
CONTINUOUS
 10
8.0330
 20
5.5398
  0
SEQEND
  8
LAYER12
  0
POLYLINE
  8
LAYER12
 62
     5
 66
     1
  6
CONTINUOUS
  0
VERTEX
  8
LAYER12
 62
     5
  6
CONTINUOUS
 10
8.0330
 20
5.5398
  0
VERTEX
  8
LAYER12
 62
     5
  6
CONTINUOUS
 10
8.0330
 20
5.5400
  0
SEQEND
  8
LAYER12
  0
POLYLINE
  8
LAYER12
 62
     5
 66
     1
  6
CONTINUOUS
  0
VERTEX
  8
LAYER12
 62
     5
  6
CONTINUOUS
 10
8.0340
 20
5.5398
  0
VERTEX
  8
LAYER12
 62
     5
  6
CONTINUOUS
 10
8.0330
 20
5.5398
  0
SEQEND
  8
LAYER12
  0
POLYLINE
  8
LAYER12
 62
     5
 66
     1
  6
CONTINUOUS
  0
VERTEX
  8
LAYER12
 62
     5
  6
CONTINUOUS
 10
8.0330
 20
5.5398
  0
VERTEX
  8
LAYER12
 62
     5
  6
CONTINUOUS
 10
8.0330
 20
5.5398
  0
SEQEND
  8
LAYER12
  0
POLYLINE
  8
LAYER12
 62
     5
 66
     1
  6
CONTINUOUS
  0
VERTEX
  8
LAYER12
 62
     5
  6
CONTINUOUS
 10
8.0330
 20
5.5398
  0
VERTEX
  8
LAYER12
 62
     5
  6
CONTINUOUS
 10
8.0330
 20
5.5350
  0
SEQEND
  8
LAYER12
  0
POLYLINE
  8
LAYER12
 62
     5
 66
     1
  6
CONTINUOUS
  0
VERTEX
  8
LAYER12
 62
     5
  6
CONTINUOUS
 10
8.0330
 20
5.5350
  0
VERTEX
  8
LAYER12
 62
     5
  6
CONTINUOUS
 10
8.0330
 20
4.5561
  0
SEQEND
  8
LAYER12
  0
POLYLINE
  8
LAYER12
 62
     5
 66
     1
  6
CONTINUOUS
  0
VERTEX
  8
LAYER12
 62
     5
  6
CONTINUOUS
 10
8.0330
 20
4.5561
  0
VERTEX
  8
LAYER12
 62
     5
  6
CONTINUOUS
 10
8.0330
 20
4.5561
  0
SEQEND
  8
LAYER12
  0
POLYLINE
  8
LAYER12
 62
     5
 66
     1
  6
CONTINUOUS
  0
VERTEX
  8
LAYER12
 62
     5
  6
CONTINUOUS
 10
9.0561
 20
5.5398
  0
VERTEX
  8
LAYER12
 62
     5
  6
CONTINUOUS
 10
9.0561
 20
5.5398
  0
SEQEND
  8
LAYER12
  0
POLYLINE
  8
LAYER12
 62
     5
 66
     1
  6
CONTINUOUS
  0
VERTEX
  8
LAYER12
 62
     5
  6
CONTINUOUS
 10
9.0561
 20
5.5398
  0
VERTEX
  8
LAYER12
 62
     5
  6
CONTINUOUS
 10
8.0340
 20
5.5398
  0
SEQEND
  8
LAYER12
  0
POLYLINE
  8
LAYER12
 62
     5
 66
     1
  6
CONTINUOUS
  0
VERTEX
  8
LAYER12
 62
     5
  6
CONTINUOUS
 10
8.0330
 20
5.5398
  0
VERTEX
  8
LAYER12
 62
     5
  6
CONTINUOUS
 10
8.0330
 20
5.5398
  0
SEQEND
  8
LAYER12
  0
POLYLINE
  8
LAYER12
 62
     5
 66
     1
  6
CONTINUOUS
  0
VERTEX
  8
LAYER12
 62
     5
  6
CONTINUOUS
 10
9.0561
 20
4.5561
  0
VERTEX
  8
LAYER12
 62
     5
  6
CONTINUOUS
 10
9.0561
 20
5.5350
  0
SEQEND
  8
LAYER12
  0
POLYLINE
  8
LAYER12
 62
     5
 66
     1
  6
CONTINUOUS
  0
VERTEX
  8
LAYER12
 62
     5
  6
CONTINUOUS
 10
9.0561
 20
5.5350
  0
VERTEX
  8
LAYER12
 62
     5
  6
CONTINUOUS
 10
9.0561
 20
5.5398
  0
SEQEND
  8
LAYER12
  0
ENDSEC
  0
EOF
