  0
SECTION
  2
HEADER
  9
$ACADVER
  1
AC1004
  9
$EXTMIN
 10
6.0657
 20
4.5550
  9
$EXTMAX
 10
7.0510
 20
5.5400
  9
$LIMMIN
 10
6.0657
 20
4.5550
  9
$LIMMAX
 10
7.0510
 20
5.5400
  9
$INSBASE
 10
0.0
 20
0.0
  9
$VIEWCTR
 10
7.21903
 20
4.5
  9
$VIEWSIZE
 40
9.0
  9
$SNAPMODE
 70
     0
  9
$SNAPUNIT
 10
1.0
 20
1.0
  9
$SNAPBASE
 10
0.0
 20
0.0
  9
$SNAPANG
 50
0.0
  9
$SNAPSTYLE
 70
     0
  9
$SNAPISOPAIR
 70
     0
  9
$GRIDMODE
 70
     0
  9
$GRIDUNIT
 10
0.0
 20
0.0
  9
$ORTHOMODE
 70
     0
  9
$REGENMODE
 70
     1
  9
$FILLMODE
 70
     1
  9
$QTEXTMODE
 70
     0
  9
$DRAGMODE
 70
     2
  9
$LTSCALE
 40
1.0
  9
$OSMODE
 70
     0
  9
$ATTMODE
 70
     1
  9
$TEXTSIZE
 40
0.2
  9
$TRACEWID
 40
0.05
  9
$TEXTSTYLE
  7
STANDARD
  9
$CLAYER
  8
0
  9
$CELTYPE
  6
BYLAYER
  9
$CECOLOR
 62
   256
  9
$DIMSCALE
 40
1.0
  9
$DIMASZ
 40
0.18
  9
$DIMEXO
 40
0.0625
  9
$DIMDLI
 40
0.38
  9
$DIMRND
 40
0.0
  9
$DIMDLE
 40
0.0
  9
$DIMEXE
 40
0.18
  9
$DIMTP
 40
0.0
  9
$DIMTM
 40
0.0
  9
$DIMTXT
 40
0.18
  9
$DIMCEN
 40
0.09
  9
$DIMTSZ
 40
0.0
  9
$DIMTOL
 70
     0
  9
$DIMLIM
 70
     0
  9
$DIMTIH
 70
     1
  9
$DIMTOH
 70
     1
  9
$DIMSE1
 70
     0
  9
$DIMSE2
 70
     0
  9
$DIMTAD
 70
     0
  9
$DIMZIN
 70
     0
  9
$DIMBLK
  1

  9
$DIMASO
 70
     1
  9
$DIMSHO
 70
     0
  9
$DIMPOST
  1

  9
$DIMAPOST
  1

  9
$DIMALT
 70
     0
  9
$DIMALTD
 70
     2
  9
$DIMALTF
 40
25.4
  9
$DIMLFAC
 40
1.0
  9
$LUNITS
 70
     2
  9
$LUPREC
 70
     4
  9
$AXISMODE
 70
     0
  9
$AXISUNIT
 10
0.0
 20
0.0
  9
$SKETCHINC
 40
0.1
  9
$FILLETRAD
 40
0.0
  9
$AUNITS
 70
     0
  9
$AUPREC
 70
     0
  9
$MENU
  1
acad
  9
$ELEVATION
 40
0.0
  9
$THICKNESS
 40
0.0
  9
$VIEWDIR
 10
0.0
 20
0.0
 30
1.0
  9
$LIMCHECK
 70
     0
  9
$BLIPMODE
 70
     1
  9
$CHAMFERA
 40
0.0
  9
$CHAMFERB
 40
0.0
  9
$FASTZOOM
 70
     1
  9
$SKPOLY
 70
     0
  9
$TDCREATE
 40
2447222.5666886573
  9
$TDUPDATE
 40
2447222.5666886573
  9
$TDINDWG
 40
0.0000000000
  9
$TDUSRTIMER
 40
0.0000000000
  9
$USRTIMER
 70
     1
  9
$ANGBASE
 50
0.0
  9
$ANGDIR
 70
     0
  9
$PDMODE
 70
     0
  9
$PDSIZE
 40
0.0
  9
$PLINEWID
 40
0.0
  9
$COORDS
 70
     0
  9
$SPLFRAME
 70
     0
  9
$SPLINESEGS
 70
     8
  9
$ATTDIA
 70
     0
  9
$ATTREQ
 70
     1
  9
$USERI1
 70
     0
  9
$USERI2
 70
     0
  9
$USERI3
 70
     0
  9
$USERI4
 70
     0
  9
$USERI5
 70
     0
  9
$USERR1
 40
0.0
  9
$USERR2
 40
0.0
  9
$USERR3
 40
0.0
  9
$USERR4
 40
0.0
  9
$USERR5
 40
0.0
  0
ENDSEC
  0
SECTION
  2
TABLES
  0
TABLE
  2
LTYPE
 70
     13
  0
LTYPE
  2
CONTINUOUS
 70
    64
  3
Solid line
 72
    65
 73
     0
 40
0.0
  0
LTYPE
  2
DASHED
 70
    64
  3
__ __ __ __ __ __ __ __ __ __ __ __ __ __ __
 72
    65
 73
     2
 40
0.75
 49
0.5
 49
-0.25
  0
LTYPE
  2
HIDDEN
 70
    64
  3
_ _ _ _ _ _ _ _ _ _ _ _ _ _ _ _ _ _ _ _ _ _ _
 72
    65
 73
     2
 40
0.375
 49
0.25
 49
-0.125
  0
LTYPE
  2
CENTER
 70
    64
  3
____ _ ____ _ ____ _ ____ _ ____ _ ____ _ ____
 72
    65
 73
     4
 40
2.0
 49
1.25
 49
-0.25
 49
0.25
 49
-0.25
  0
LTYPE
  2
PHANTOM
 70
    64
  3
_____ _ _ _____ _ _ _____ _ _ _____ _ _ ____
 72
    65
 73
     6
 40
2.5
 49
1.25
 49
-0.25
 49
0.25
 49
-0.25
 49
0.25
 49
-0.25
  0
LTYPE
  2
DOT
 70
    64
  3
...............................................
 72
    65
 73
     2
 40
0.25
 49
0.0
 49
-0.25
  0
LTYPE
  2
DASHDOT
 70
    64
  3
__ . __ . __ . __ . __ . __ . __ . __ . __ . __
 72
    65
 73
     4
 40
1.0
 49
0.5
 49
-0.25
 49
0.0
 49
-0.25
  0
LTYPE
  2
BORDER
 70
    64
  3
__ __ . __ __ . __ __ . __ __ . __ __ . __ __
 72
    65
 73
     6
 40
1.75
 49
0.5
 49
-0.25
 49
0.5
 49
-0.25
 49
0.0
 49
-0.25
  0
LTYPE
  2
DIVIDE
 70
    64
  3
__ . . __ . . __ . . __ . . __ . . __ . . __
 72
    65
 73
     6
 40
1.25
 49
0.5
 49
-0.25
 49
0.0
 49
-0.25
 49
0.0
 49
-0.25
  0
LTYPE
  2
DCTYPE1
 70
    64
  3
__ . . __ . . __ . . __ . . __ . . __ . . __
 72
    65
 73
     8
 40
2.5
 49
0.5
 49
-0.25
 49
0.125
 49
-0.25
 49
0.25
 49
-0.25
 49
0.125
 49
-0.25
  0
LTYPE
  2
DCTYPE2
 70
    64
  3
__ . . __ . . __ . . __ . . __ . . __ . . __
 72
    65
 73
     6
 40
2.05
 49
1.0
 49
-0.3
 49
0.15
 49
-0.15
 49
0.15
 49
-0.3
  0
LTYPE
  2
DCTYPE3
 70
    64
  3
__ . . __ . . __ . . __ . . __ . . __ . . __
 72
    65
 73
     6
 40
2.5
 49
0.8
 49
-0.2
 49
0.8
 49
-0.2
 49
0.3
 49
-0.2
  0
LTYPE
  2
DCTYPE4
 70
    64
  3
__ . . __ . . __ . . __ . . __ . . __ . . __
 72
    65
 73
     10
 40
3.97
 49
1.75
 49
-0.3
 49
0.3
 49
-0.3
 49
0.06
 49
-0.3
 49
0.06
 49
-0.3
 49
0.3
 49
-0.3
  0
ENDTAB
  0
TABLE
  2
LAYER
 70
    153
  0
LAYER
  2
LAYER1
 70
 64
 62
     7
  6
CONTINUOUS
  0
LAYER
  2
LAYER12
 70
 64
 62
     5
  6
CONTINUOUS
  0
ENDTAB
  0
ENDSEC
  0
SECTION
  2
BLOCKS
  0
ENDSEC
  0
SECTION
  2
ENTITIES
  0
CIRCLE
  8
LAYER1
 62
     7
  6
CONTINUOUS
 10
6.2350
 20
5.2479
 40
0.0177
  0
CIRCLE
  8
LAYER1
 62
     7
  6
CONTINUOUS
 10
6.8458
 20
5.2818
 40
0.0555
  0
POLYLINE
  8
LAYER1
 62
     7
 66
     1
  6
CONTINUOUS
  0
VERTEX
  8
LAYER1
 62
     7
  6
CONTINUOUS
 10
6.0950
 20
5.3352
  0
VERTEX
  8
LAYER1
 62
     7
  6
CONTINUOUS
 10
6.0985
 20
5.3342
  0
VERTEX
  8
LAYER1
 62
     7
  6
CONTINUOUS
 10
6.1020
 20
5.3331
  0
VERTEX
  8
LAYER1
 62
     7
  6
CONTINUOUS
 10
6.1055
 20
5.3321
  0
VERTEX
  8
LAYER1
 62
     7
  6
CONTINUOUS
 10
6.1089
 20
5.3310
  0
VERTEX
  8
LAYER1
 62
     7
  6
CONTINUOUS
 10
6.1124
 20
5.3298
  0
VERTEX
  8
LAYER1
 62
     7
  6
CONTINUOUS
 10
6.1158
 20
5.3287
  0
VERTEX
  8
LAYER1
 62
     7
  6
CONTINUOUS
 10
6.1192
 20
5.3275
  0
VERTEX
  8
LAYER1
 62
     7
  6
CONTINUOUS
 10
6.1225
 20
5.3262
  0
VERTEX
  8
LAYER1
 62
     7
  6
CONTINUOUS
 10
6.1258
 20
5.3249
  0
VERTEX
  8
LAYER1
 62
     7
  6
CONTINUOUS
 10
6.1290
 20
5.3235
  0
VERTEX
  8
LAYER1
 62
     7
  6
CONTINUOUS
 10
6.1322
 20
5.3221
  0
VERTEX
  8
LAYER1
 62
     7
  6
CONTINUOUS
 10
6.1353
 20
5.3206
  0
VERTEX
  8
LAYER1
 62
     7
  6
CONTINUOUS
 10
6.1391
 20
5.3185
  0
VERTEX
  8
LAYER1
 62
     7
  6
CONTINUOUS
 10
6.1427
 20
5.3164
  0
VERTEX
  8
LAYER1
 62
     7
  6
CONTINUOUS
 10
6.1462
 20
5.3140
  0
VERTEX
  8
LAYER1
 62
     7
  6
CONTINUOUS
 10
6.1496
 20
5.3115
  0
VERTEX
  8
LAYER1
 62
     7
  6
CONTINUOUS
 10
6.1528
 20
5.3087
  0
VERTEX
  8
LAYER1
 62
     7
  6
CONTINUOUS
 10
6.1559
 20
5.3057
  0
VERTEX
  8
LAYER1
 62
     7
  6
CONTINUOUS
 10
6.1588
 20
5.3023
  0
VERTEX
  8
LAYER1
 62
     7
  6
CONTINUOUS
 10
6.1616
 20
5.2987
  0
VERTEX
  8
LAYER1
 62
     7
  6
CONTINUOUS
 10
6.1642
 20
5.2948
  0
VERTEX
  8
LAYER1
 62
     7
  6
CONTINUOUS
 10
6.1666
 20
5.2905
  0
VERTEX
  8
LAYER1
 62
     7
  6
CONTINUOUS
 10
6.1688
 20
5.2858
  0
VERTEX
  8
LAYER1
 62
     7
  6
CONTINUOUS
 10
6.1708
 20
5.2807
  0
VERTEX
  8
LAYER1
 62
     7
  6
CONTINUOUS
 10
6.1726
 20
5.2755
  0
VERTEX
  8
LAYER1
 62
     7
  6
CONTINUOUS
 10
6.1742
 20
5.2700
  0
VERTEX
  8
LAYER1
 62
     7
  6
CONTINUOUS
 10
6.1756
 20
5.2643
  0
VERTEX
  8
LAYER1
 62
     7
  6
CONTINUOUS
 10
6.1768
 20
5.2587
  0
VERTEX
  8
LAYER1
 62
     7
  6
CONTINUOUS
 10
6.1779
 20
5.2532
  0
VERTEX
  8
LAYER1
 62
     7
  6
CONTINUOUS
 10
6.1788
 20
5.2481
  0
VERTEX
  8
LAYER1
 62
     7
  6
CONTINUOUS
 10
6.1796
 20
5.2433
  0
VERTEX
  8
LAYER1
 62
     7
  6
CONTINUOUS
 10
6.1802
 20
5.2391
  0
VERTEX
  8
LAYER1
 62
     7
  6
CONTINUOUS
 10
6.1807
 20
5.2356
  0
VERTEX
  8
LAYER1
 62
     7
  6
CONTINUOUS
 10
6.1810
 20
5.2329
  0
VERTEX
  8
LAYER1
 62
     7
  6
CONTINUOUS
 10
6.1813
 20
5.2312
  0
VERTEX
  8
LAYER1
 62
     7
  6
CONTINUOUS
 10
6.1814
 20
5.2306
  0
VERTEX
  8
LAYER1
 62
     7
  6
CONTINUOUS
 10
6.1814
 20
5.2306
  0
VERTEX
  8
LAYER1
 62
     7
  6
CONTINUOUS
 10
6.1814
 20
5.2306
  0
VERTEX
  8
LAYER1
 62
     7
  6
CONTINUOUS
 10
6.1814
 20
5.2306
  0
VERTEX
  8
LAYER1
 62
     7
  6
CONTINUOUS
 10
6.1814
 20
5.2306
  0
VERTEX
  8
LAYER1
 62
     7
  6
CONTINUOUS
 10
6.1814
 20
5.2306
  0
VERTEX
  8
LAYER1
 62
     7
  6
CONTINUOUS
 10
6.1814
 20
5.2307
  0
VERTEX
  8
LAYER1
 62
     7
  6
CONTINUOUS
 10
6.1814
 20
5.2307
  0
VERTEX
  8
LAYER1
 62
     7
  6
CONTINUOUS
 10
6.1814
 20
5.2307
  0
VERTEX
  8
LAYER1
 62
     7
  6
CONTINUOUS
 10
6.1814
 20
5.2307
  0
VERTEX
  8
LAYER1
 62
     7
  6
CONTINUOUS
 10
6.1814
 20
5.2307
  0
VERTEX
  8
LAYER1
 62
     7
  6
CONTINUOUS
 10
6.1814
 20
5.2306
  0
VERTEX
  8
LAYER1
 62
     7
  6
CONTINUOUS
 10
6.1814
 20
5.2306
  0
VERTEX
  8
LAYER1
 62
     7
  6
CONTINUOUS
 10
6.1813
 20
5.2294
  0
VERTEX
  8
LAYER1
 62
     7
  6
CONTINUOUS
 10
6.1813
 20
5.2271
  0
VERTEX
  8
LAYER1
 62
     7
  6
CONTINUOUS
 10
6.1813
 20
5.2238
  0
VERTEX
  8
LAYER1
 62
     7
  6
CONTINUOUS
 10
6.1813
 20
5.2198
  0
VERTEX
  8
LAYER1
 62
     7
  6
CONTINUOUS
 10
6.1814
 20
5.2153
  0
VERTEX
  8
LAYER1
 62
     7
  6
CONTINUOUS
 10
6.1814
 20
5.2106
  0
VERTEX
  8
LAYER1
 62
     7
  6
CONTINUOUS
 10
6.1814
 20
5.2058
  0
VERTEX
  8
LAYER1
 62
     7
  6
CONTINUOUS
 10
6.1814
 20
5.2013
  0
VERTEX
  8
LAYER1
 62
     7
  6
CONTINUOUS
 10
6.1815
 20
5.1973
  0
VERTEX
  8
LAYER1
 62
     7
  6
CONTINUOUS
 10
6.1816
 20
5.1940
  0
VERTEX
  8
LAYER1
 62
     7
  6
CONTINUOUS
 10
6.1816
 20
5.1916
  0
VERTEX
  8
LAYER1
 62
     7
  6
CONTINUOUS
 10
6.1817
 20
5.1904
  0
VERTEX
  8
LAYER1
 62
     7
  6
CONTINUOUS
 10
6.1818
 20
5.1903
  0
VERTEX
  8
LAYER1
 62
     7
  6
CONTINUOUS
 10
6.1818
 20
5.1903
  0
VERTEX
  8
LAYER1
 62
     7
  6
CONTINUOUS
 10
6.1818
 20
5.1903
  0
VERTEX
  8
LAYER1
 62
     7
  6
CONTINUOUS
 10
6.1818
 20
5.1903
  0
VERTEX
  8
LAYER1
 62
     7
  6
CONTINUOUS
 10
6.1818
 20
5.1903
  0
VERTEX
  8
LAYER1
 62
     7
  6
CONTINUOUS
 10
6.1818
 20
5.1903
  0
VERTEX
  8
LAYER1
 62
     7
  6
CONTINUOUS
 10
6.1818
 20
5.1903
  0
VERTEX
  8
LAYER1
 62
     7
  6
CONTINUOUS
 10
6.1818
 20
5.1903
  0
VERTEX
  8
LAYER1
 62
     7
  6
CONTINUOUS
 10
6.1818
 20
5.1903
  0
VERTEX
  8
LAYER1
 62
     7
  6
CONTINUOUS
 10
6.1818
 20
5.1904
  0
VERTEX
  8
LAYER1
 62
     7
  6
CONTINUOUS
 10
6.1818
 20
5.1904
  0
VERTEX
  8
LAYER1
 62
     7
  6
CONTINUOUS
 10
6.1817
 20
5.1904
  0
VERTEX
  8
LAYER1
 62
     7
  6
CONTINUOUS
 10
6.1810
 20
5.1901
  0
VERTEX
  8
LAYER1
 62
     7
  6
CONTINUOUS
 10
6.1794
 20
5.1891
  0
VERTEX
  8
LAYER1
 62
     7
  6
CONTINUOUS
 10
6.1770
 20
5.1874
  0
VERTEX
  8
LAYER1
 62
     7
  6
CONTINUOUS
 10
6.1740
 20
5.1852
  0
VERTEX
  8
LAYER1
 62
     7
  6
CONTINUOUS
 10
6.1703
 20
5.1825
  0
VERTEX
  8
LAYER1
 62
     7
  6
CONTINUOUS
 10
6.1663
 20
5.1795
  0
VERTEX
  8
LAYER1
 62
     7
  6
CONTINUOUS
 10
6.1618
 20
5.1762
  0
VERTEX
  8
LAYER1
 62
     7
  6
CONTINUOUS
 10
6.1570
 20
5.1728
  0
VERTEX
  8
LAYER1
 62
     7
  6
CONTINUOUS
 10
6.1520
 20
5.1694
  0
VERTEX
  8
LAYER1
 62
     7
  6
CONTINUOUS
 10
6.1470
 20
5.1660
  0
VERTEX
  8
LAYER1
 62
     7
  6
CONTINUOUS
 10
6.1418
 20
5.1628
  0
VERTEX
  8
LAYER1
 62
     7
  6
CONTINUOUS
 10
6.1368
 20
5.1598
  0
VERTEX
  8
LAYER1
 62
     7
  6
CONTINUOUS
 10
6.1322
 20
5.1574
  0
VERTEX
  8
LAYER1
 62
     7
  6
CONTINUOUS
 10
6.1278
 20
5.1553
  0
VERTEX
  8
LAYER1
 62
     7
  6
CONTINUOUS
 10
6.1234
 20
5.1535
  0
VERTEX
  8
LAYER1
 62
     7
  6
CONTINUOUS
 10
6.1191
 20
5.1520
  0
VERTEX
  8
LAYER1
 62
     7
  6
CONTINUOUS
 10
6.1150
 20
5.1507
  0
VERTEX
  8
LAYER1
 62
     7
  6
CONTINUOUS
 10
6.1109
 20
5.1498
  0
VERTEX
  8
LAYER1
 62
     7
  6
CONTINUOUS
 10
6.1068
 20
5.1491
  0
VERTEX
  8
LAYER1
 62
     7
  6
CONTINUOUS
 10
6.1028
 20
5.1487
  0
VERTEX
  8
LAYER1
 62
     7
  6
CONTINUOUS
 10
6.0988
 20
5.1485
  0
VERTEX
  8
LAYER1
 62
     7
  6
CONTINUOUS
 10
6.0948
 20
5.1486
  0
VERTEX
  8
LAYER1
 62
     7
  6
CONTINUOUS
 10
6.0908
 20
5.1488
  0
VERTEX
  8
LAYER1
 62
     7
  6
CONTINUOUS
 10
6.0867
 20
5.1493
  0
VERTEX
  8
LAYER1
 62
     7
  6
CONTINUOUS
 10
6.0850
 20
5.1496
  0
VERTEX
  8
LAYER1
 62
     7
  6
CONTINUOUS
 10
6.0832
 20
5.1499
  0
VERTEX
  8
LAYER1
 62
     7
  6
CONTINUOUS
 10
6.0815
 20
5.1502
  0
VERTEX
  8
LAYER1
 62
     7
  6
CONTINUOUS
 10
6.0798
 20
5.1505
  0
VERTEX
  8
LAYER1
 62
     7
  6
CONTINUOUS
 10
6.0780
 20
5.1509
  0
VERTEX
  8
LAYER1
 62
     7
  6
CONTINUOUS
 10
6.0763
 20
5.1513
  0
VERTEX
  8
LAYER1
 62
     7
  6
CONTINUOUS
 10
6.0745
 20
5.1517
  0
VERTEX
  8
LAYER1
 62
     7
  6
CONTINUOUS
 10
6.0727
 20
5.1521
  0
VERTEX
  8
LAYER1
 62
     7
  6
CONTINUOUS
 10
6.0710
 20
5.1525
  0
VERTEX
  8
LAYER1
 62
     7
  6
CONTINUOUS
 10
6.0692
 20
5.1530
  0
VERTEX
  8
LAYER1
 62
     7
  6
CONTINUOUS
 10
6.0674
 20
5.1534
  0
VERTEX
  8
LAYER1
 62
     7
  6
CONTINUOUS
 10
6.0657
 20
5.1539
  0
SEQEND
  8
LAYER1
  0
POLYLINE
  8
LAYER1
 62
     7
 66
     1
  6
CONTINUOUS
  0
VERTEX
  8
LAYER1
 62
     7
  6
CONTINUOUS
 10
6.0657
 20
5.3302
  0
VERTEX
  8
LAYER1
 62
     7
  6
CONTINUOUS
 10
6.0691
 20
5.3308
  0
VERTEX
  8
LAYER1
 62
     7
  6
CONTINUOUS
 10
6.0726
 20
5.3314
  0
VERTEX
  8
LAYER1
 62
     7
  6
CONTINUOUS
 10
6.0760
 20
5.3320
  0
VERTEX
  8
LAYER1
 62
     7
  6
CONTINUOUS
 10
6.0792
 20
5.3325
  0
VERTEX
  8
LAYER1
 62
     7
  6
CONTINUOUS
 10
6.0823
 20
5.3331
  0
VERTEX
  8
LAYER1
 62
     7
  6
CONTINUOUS
 10
6.0851
 20
5.3335
  0
VERTEX
  8
LAYER1
 62
     7
  6
CONTINUOUS
 10
6.0877
 20
5.3340
  0
VERTEX
  8
LAYER1
 62
     7
  6
CONTINUOUS
 10
6.0899
 20
5.3344
  0
VERTEX
  8
LAYER1
 62
     7
  6
CONTINUOUS
 10
6.0918
 20
5.3347
  0
VERTEX
  8
LAYER1
 62
     7
  6
CONTINUOUS
 10
6.0933
 20
5.3350
  0
VERTEX
  8
LAYER1
 62
     7
  6
CONTINUOUS
 10
6.0944
 20
5.3351
  0
VERTEX
  8
LAYER1
 62
     7
  6
CONTINUOUS
 10
6.0950
 20
5.3352
  0
VERTEX
  8
LAYER1
 62
     7
  6
CONTINUOUS
 10
6.0950
 20
5.3353
  0
VERTEX
  8
LAYER1
 62
     7
  6
CONTINUOUS
 10
6.0950
 20
5.3353
  0
VERTEX
  8
LAYER1
 62
     7
  6
CONTINUOUS
 10
6.0951
 20
5.3353
  0
VERTEX
  8
LAYER1
 62
     7
  6
CONTINUOUS
 10
6.0951
 20
5.3353
  0
VERTEX
  8
LAYER1
 62
     7
  6
CONTINUOUS
 10
6.0951
 20
5.3353
  0
VERTEX
  8
LAYER1
 62
     7
  6
CONTINUOUS
 10
6.0951
 20
5.3353
  0
VERTEX
  8
LAYER1
 62
     7
  6
CONTINUOUS
 10
6.0951
 20
5.3353
  0
VERTEX
  8
LAYER1
 62
     7
  6
CONTINUOUS
 10
6.0951
 20
5.3353
  0
VERTEX
  8
LAYER1
 62
     7
  6
CONTINUOUS
 10
6.0950
 20
5.3353
  0
VERTEX
  8
LAYER1
 62
     7
  6
CONTINUOUS
 10
6.0950
 20
5.3353
  0
VERTEX
  8
LAYER1
 62
     7
  6
CONTINUOUS
 10
6.0950
 20
5.3353
  0
VERTEX
  8
LAYER1
 62
     7
  6
CONTINUOUS
 10
6.0950
 20
5.3352
  0
SEQEND
  8
LAYER1
  0
POLYLINE
  8
LAYER1
 62
     7
 66
     1
  6
CONTINUOUS
  0
VERTEX
  8
LAYER1
 62
     7
  6
CONTINUOUS
 10
6.0657
 20
4.5561
  0
VERTEX
  8
LAYER1
 62
     7
  6
CONTINUOUS
 10
7.0510
 20
4.5561
  0
SEQEND
  8
LAYER1
  0
POLYLINE
  8
LAYER12
 62
     5
 66
     1
  6
CONTINUOUS
  0
VERTEX
  8
LAYER12
 62
     5
  6
CONTINUOUS
 10
6.0657
 20
4.5561
  0
VERTEX
  8
LAYER12
 62
     5
  6
CONTINUOUS
 10
7.0510
 20
4.5561
  0
SEQEND
  8
LAYER12
  0
POLYLINE
  8
LAYER12
 62
     5
 66
     1
  6
CONTINUOUS
  0
VERTEX
  8
LAYER12
 62
     5
  6
CONTINUOUS
 10
7.0510
 20
5.5398
  0
VERTEX
  8
LAYER12
 62
     5
  6
CONTINUOUS
 10
7.0490
 20
5.5398
  0
SEQEND
  8
LAYER12
  0
POLYLINE
  8
LAYER12
 62
     5
 66
     1
  6
CONTINUOUS
  0
VERTEX
  8
LAYER12
 62
     5
  6
CONTINUOUS
 10
7.0490
 20
5.5398
  0
VERTEX
  8
LAYER12
 62
     5
  6
CONTINUOUS
 10
6.0657
 20
5.5398
  0
SEQEND
  8
LAYER12
  0
POLYLINE
  8
LAYER12
 62
     5
 66
     1
  6
CONTINUOUS
  0
VERTEX
  8
LAYER12
 62
     5
  6
CONTINUOUS
 10
6.0657
 20
5.5398
  0
VERTEX
  8
LAYER12
 62
     5
  6
CONTINUOUS
 10
6.0657
 20
5.5398
  0
SEQEND
  8
LAYER12
  0
POLYLINE
  8
LAYER12
 62
     5
 66
     1
  6
CONTINUOUS
  0
VERTEX
  8
LAYER12
 62
     5
  6
CONTINUOUS
 10
6.0657
 20
5.5398
  0
VERTEX
  8
LAYER12
 62
     5
  6
CONTINUOUS
 10
6.0657
 20
5.5400
  0
SEQEND
  8
LAYER12
  0
POLYLINE
  8
LAYER12
 62
     5
 66
     1
  6
CONTINUOUS
  0
VERTEX
  8
LAYER12
 62
     5
  6
CONTINUOUS
 10
6.0657
 20
5.5400
  0
VERTEX
  8
LAYER12
 62
     5
  6
CONTINUOUS
 10
6.0657
 20
4.5550
  0
SEQEND
  8
LAYER12
  0
POLYLINE
  8
LAYER12
 62
     5
 66
     1
  6
CONTINUOUS
  0
VERTEX
  8
LAYER12
 62
     5
  6
CONTINUOUS
 10
7.0493
 20
4.5550
  0
VERTEX
  8
LAYER12
 62
     5
  6
CONTINUOUS
 10
7.0493
 20
5.5398
  0
SEQEND
  8
LAYER12
  0
POLYLINE
  8
LAYER12
 62
     5
 66
     1
  6
CONTINUOUS
  0
VERTEX
  8
LAYER12
 62
     5
  6
CONTINUOUS
 10
7.0493
 20
5.5398
  0
VERTEX
  8
LAYER12
 62
     5
  6
CONTINUOUS
 10
7.0493
 20
5.5400
  0
SEQEND
  8
LAYER12
  0
ENDSEC
  0
EOF
