  0
SECTION
  2
HEADER
  9
$ACADVER
  1
AC1004
  9
$EXTMIN
 10
33.3160
 20
25.3172
  9
$EXTMAX
 10
36.0931
 20
28.0944
  9
$LIMMIN
 10
33.3160
 20
25.3172
  9
$LIMMAX
 10
36.0931
 20
28.0944
  9
$INSBASE
 10
0.0
 20
0.0
  9
$VIEWCTR
 10
7.21903
 20
4.5
  9
$VIEWSIZE
 40
9.0
  9
$SNAPMODE
 70
     0
  9
$SNAPUNIT
 10
1.0
 20
1.0
  9
$SNAPBASE
 10
0.0
 20
0.0
  9
$SNAPANG
 50
0.0
  9
$SNAPSTYLE
 70
     0
  9
$SNAPISOPAIR
 70
     0
  9
$GRIDMODE
 70
     0
  9
$GRIDUNIT
 10
0.0
 20
0.0
  9
$ORTHOMODE
 70
     0
  9
$REGENMODE
 70
     1
  9
$FILLMODE
 70
     1
  9
$QTEXTMODE
 70
     0
  9
$DRAGMODE
 70
     2
  9
$LTSCALE
 40
1.0
  9
$OSMODE
 70
     0
  9
$ATTMODE
 70
     1
  9
$TEXTSIZE
 40
0.2
  9
$TRACEWID
 40
0.05
  9
$TEXTSTYLE
  7
STANDARD
  9
$CLAYER
  8
0
  9
$CELTYPE
  6
BYLAYER
  9
$CECOLOR
 62
   256
  9
$DIMSCALE
 40
1.0
  9
$DIMASZ
 40
0.18
  9
$DIMEXO
 40
0.0625
  9
$DIMDLI
 40
0.38
  9
$DIMRND
 40
0.0
  9
$DIMDLE
 40
0.0
  9
$DIMEXE
 40
0.18
  9
$DIMTP
 40
0.0
  9
$DIMTM
 40
0.0
  9
$DIMTXT
 40
0.18
  9
$DIMCEN
 40
0.09
  9
$DIMTSZ
 40
0.0
  9
$DIMTOL
 70
     0
  9
$DIMLIM
 70
     0
  9
$DIMTIH
 70
     1
  9
$DIMTOH
 70
     1
  9
$DIMSE1
 70
     0
  9
$DIMSE2
 70
     0
  9
$DIMTAD
 70
     0
  9
$DIMZIN
 70
     0
  9
$DIMBLK
  1

  9
$DIMASO
 70
     1
  9
$DIMSHO
 70
     0
  9
$DIMPOST
  1

  9
$DIMAPOST
  1

  9
$DIMALT
 70
     0
  9
$DIMALTD
 70
     2
  9
$DIMALTF
 40
25.4
  9
$DIMLFAC
 40
1.0
  9
$LUNITS
 70
     2
  9
$LUPREC
 70
     4
  9
$AXISMODE
 70
     0
  9
$AXISUNIT
 10
0.0
 20
0.0
  9
$SKETCHINC
 40
0.1
  9
$FILLETRAD
 40
0.0
  9
$AUNITS
 70
     0
  9
$AUPREC
 70
     0
  9
$MENU
  1
acad
  9
$ELEVATION
 40
0.0
  9
$THICKNESS
 40
0.0
  9
$VIEWDIR
 10
0.0
 20
0.0
 30
1.0
  9
$LIMCHECK
 70
     0
  9
$BLIPMODE
 70
     1
  9
$CHAMFERA
 40
0.0
  9
$CHAMFERB
 40
0.0
  9
$FASTZOOM
 70
     1
  9
$SKPOLY
 70
     0
  9
$TDCREATE
 40
2447222.5666886573
  9
$TDUPDATE
 40
2447222.5666886573
  9
$TDINDWG
 40
0.0000000000
  9
$TDUSRTIMER
 40
0.0000000000
  9
$USRTIMER
 70
     1
  9
$ANGBASE
 50
0.0
  9
$ANGDIR
 70
     0
  9
$PDMODE
 70
     0
  9
$PDSIZE
 40
0.0
  9
$PLINEWID
 40
0.0
  9
$COORDS
 70
     0
  9
$SPLFRAME
 70
     0
  9
$SPLINESEGS
 70
     8
  9
$ATTDIA
 70
     0
  9
$ATTREQ
 70
     1
  9
$USERI1
 70
     0
  9
$USERI2
 70
     0
  9
$USERI3
 70
     0
  9
$USERI4
 70
     0
  9
$USERI5
 70
     0
  9
$USERR1
 40
0.0
  9
$USERR2
 40
0.0
  9
$USERR3
 40
0.0
  9
$USERR4
 40
0.0
  9
$USERR5
 40
0.0
  0
ENDSEC
  0
SECTION
  2
TABLES
  0
TABLE
  2
LTYPE
 70
     13
  0
LTYPE
  2
CONTINUOUS
 70
    64
  3
Solid line
 72
    65
 73
     0
 40
0.0
  0
LTYPE
  2
DASHED
 70
    64
  3
__ __ __ __ __ __ __ __ __ __ __ __ __ __ __
 72
    65
 73
     2
 40
0.75
 49
0.5
 49
-0.25
  0
LTYPE
  2
HIDDEN
 70
    64
  3
_ _ _ _ _ _ _ _ _ _ _ _ _ _ _ _ _ _ _ _ _ _ _
 72
    65
 73
     2
 40
0.375
 49
0.25
 49
-0.125
  0
LTYPE
  2
CENTER
 70
    64
  3
____ _ ____ _ ____ _ ____ _ ____ _ ____ _ ____
 72
    65
 73
     4
 40
2.0
 49
1.25
 49
-0.25
 49
0.25
 49
-0.25
  0
LTYPE
  2
PHANTOM
 70
    64
  3
_____ _ _ _____ _ _ _____ _ _ _____ _ _ ____
 72
    65
 73
     6
 40
2.5
 49
1.25
 49
-0.25
 49
0.25
 49
-0.25
 49
0.25
 49
-0.25
  0
LTYPE
  2
DOT
 70
    64
  3
...............................................
 72
    65
 73
     2
 40
0.25
 49
0.0
 49
-0.25
  0
LTYPE
  2
DASHDOT
 70
    64
  3
__ . __ . __ . __ . __ . __ . __ . __ . __ . __
 72
    65
 73
     4
 40
1.0
 49
0.5
 49
-0.25
 49
0.0
 49
-0.25
  0
LTYPE
  2
BORDER
 70
    64
  3
__ __ . __ __ . __ __ . __ __ . __ __ . __ __
 72
    65
 73
     6
 40
1.75
 49
0.5
 49
-0.25
 49
0.5
 49
-0.25
 49
0.0
 49
-0.25
  0
LTYPE
  2
DIVIDE
 70
    64
  3
__ . . __ . . __ . . __ . . __ . . __ . . __
 72
    65
 73
     6
 40
1.25
 49
0.5
 49
-0.25
 49
0.0
 49
-0.25
 49
0.0
 49
-0.25
  0
LTYPE
  2
DCTYPE1
 70
    64
  3
__ . . __ . . __ . . __ . . __ . . __ . . __
 72
    65
 73
     8
 40
2.5
 49
0.5
 49
-0.25
 49
0.125
 49
-0.25
 49
0.25
 49
-0.25
 49
0.125
 49
-0.25
  0
LTYPE
  2
DCTYPE2
 70
    64
  3
__ . . __ . . __ . . __ . . __ . . __ . . __
 72
    65
 73
     6
 40
2.05
 49
1.0
 49
-0.3
 49
0.15
 49
-0.15
 49
0.15
 49
-0.3
  0
LTYPE
  2
DCTYPE3
 70
    64
  3
__ . . __ . . __ . . __ . . __ . . __ . . __
 72
    65
 73
     6
 40
2.5
 49
0.8
 49
-0.2
 49
0.8
 49
-0.2
 49
0.3
 49
-0.2
  0
LTYPE
  2
DCTYPE4
 70
    64
  3
__ . . __ . . __ . . __ . . __ . . __ . . __
 72
    65
 73
     10
 40
3.97
 49
1.75
 49
-0.3
 49
0.3
 49
-0.3
 49
0.06
 49
-0.3
 49
0.06
 49
-0.3
 49
0.3
 49
-0.3
  0
ENDTAB
  0
TABLE
  2
LAYER
 70
    153
  0
LAYER
  2
LAYER1
 70
 64
 62
     5
  6
CONTINUOUS
  0
LAYER
  2
LAYER8
 70
 64
 62
     7
  6
CONTINUOUS
  0
LAYER
  2
LAYER25
 70
 64
 62
     5
  6
CONTINUOUS
  0
LAYER
  2
LAYER52
 70
 64
 62
     7
  6
CONTINUOUS
  0
LAYER
  2
LAYER56
 70
 64
 62
     7
  6
CONTINUOUS
  0
ENDTAB
  0
ENDSEC
  0
SECTION
  2
BLOCKS
  0
ENDSEC
  0
SECTION
  2
ENTITIES
  0
POLYLINE
  8
LAYER1
 62
     5
 66
     1
  6
CONTINUOUS
  0
VERTEX
  8
LAYER1
 62
     5
  6
CONTINUOUS
 10
36.0931
 20
25.4923
  0
VERTEX
  8
LAYER1
 62
     5
  6
CONTINUOUS
 10
36.0931
 20
25.3172
  0
SEQEND
  8
LAYER1
  0
CIRCLE
  8
LAYER8
 62
     7
  6
CONTINUOUS
 10
33.8763
 20
27.8483
 40
0.0409
  0
CIRCLE
  8
LAYER8
 62
     7
  6
CONTINUOUS
 10
33.9488
 20
27.5901
 40
0.1831
  0
CIRCLE
  8
LAYER8
 62
     7
  6
CONTINUOUS
 10
34.7430
 20
25.7572
 40
0.0645
  0
CIRCLE
  8
LAYER8
 62
     7
  6
CONTINUOUS
 10
34.7585
 20
25.6105
 40
0.0840
  0
CIRCLE
  8
LAYER8
 62
     7
  6
CONTINUOUS
 10
35.2174
 20
25.9018
 40
0.0376
  0
CIRCLE
  8
LAYER8
 62
     7
  6
CONTINUOUS
 10
35.5085
 20
27.6819
 40
0.0490
  0
CIRCLE
  8
LAYER8
 62
     7
  6
CONTINUOUS
 10
35.7788
 20
27.9644
 40
0.0357
  0
CIRCLE
  8
LAYER8
 62
     7
  6
CONTINUOUS
 10
35.8700
 20
27.9163
 40
0.0313
  0
CIRCLE
  8
LAYER8
 62
     7
  6
CONTINUOUS
 10
33.7622
 20
26.6087
 40
0.0426
  0
CIRCLE
  8
LAYER8
 62
     7
  6
CONTINUOUS
 10
35.5026
 20
26.8211
 40
0.0397
  0
CIRCLE
  8
LAYER8
 62
     7
  6
CONTINUOUS
 10
35.7411
 20
26.7465
 40
0.0210
  0
CIRCLE
  8
LAYER8
 62
     7
  6
CONTINUOUS
 10
35.7504
 20
26.5086
 40
0.0299
  0
CIRCLE
  8
LAYER8
 62
     7
  6
CONTINUOUS
 10
35.9047
 20
26.4821
 40
0.0356
  0
CIRCLE
  8
LAYER8
 62
     7
  6
CONTINUOUS
 10
35.3987
 20
25.9944
 40
0.0397
  0
POLYLINE
  8
LAYER8
 62
     7
 66
     1
  6
CONTINUOUS
  0
VERTEX
  8
LAYER8
 62
     7
  6
CONTINUOUS
 10
35.7737
 20
26.2920
  0
VERTEX
  8
LAYER8
 62
     7
  6
CONTINUOUS
 10
35.7768
 20
26.2871
  0
VERTEX
  8
LAYER8
 62
     7
  6
CONTINUOUS
 10
35.7801
 20
26.2822
  0
VERTEX
  8
LAYER8
 62
     7
  6
CONTINUOUS
 10
35.7835
 20
26.2773
  0
VERTEX
  8
LAYER8
 62
     7
  6
CONTINUOUS
 10
35.7868
 20
26.2724
  0
VERTEX
  8
LAYER8
 62
     7
  6
CONTINUOUS
 10
35.7901
 20
26.2675
  0
VERTEX
  8
LAYER8
 62
     7
  6
CONTINUOUS
 10
35.7932
 20
26.2626
  0
VERTEX
  8
LAYER8
 62
     7
  6
CONTINUOUS
 10
35.7960
 20
26.2579
  0
VERTEX
  8
LAYER8
 62
     7
  6
CONTINUOUS
 10
35.7984
 20
26.2532
  0
VERTEX
  8
LAYER8
 62
     7
  6
CONTINUOUS
 10
35.8003
 20
26.2487
  0
VERTEX
  8
LAYER8
 62
     7
  6
CONTINUOUS
 10
35.8017
 20
26.2443
  0
VERTEX
  8
LAYER8
 62
     7
  6
CONTINUOUS
 10
35.8023
 20
26.2401
  0
VERTEX
  8
LAYER8
 62
     7
  6
CONTINUOUS
 10
35.8022
 20
26.2362
  0
VERTEX
  8
LAYER8
 62
     7
  6
CONTINUOUS
 10
35.8009
 20
26.2314
  0
VERTEX
  8
LAYER8
 62
     7
  6
CONTINUOUS
 10
35.7982
 20
26.2269
  0
VERTEX
  8
LAYER8
 62
     7
  6
CONTINUOUS
 10
35.7944
 20
26.2228
  0
VERTEX
  8
LAYER8
 62
     7
  6
CONTINUOUS
 10
35.7895
 20
26.2190
  0
VERTEX
  8
LAYER8
 62
     7
  6
CONTINUOUS
 10
35.7838
 20
26.2154
  0
VERTEX
  8
LAYER8
 62
     7
  6
CONTINUOUS
 10
35.7774
 20
26.2120
  0
VERTEX
  8
LAYER8
 62
     7
  6
CONTINUOUS
 10
35.7704
 20
26.2088
  0
VERTEX
  8
LAYER8
 62
     7
  6
CONTINUOUS
 10
35.7630
 20
26.2057
  0
VERTEX
  8
LAYER8
 62
     7
  6
CONTINUOUS
 10
35.7554
 20
26.2027
  0
VERTEX
  8
LAYER8
 62
     7
  6
CONTINUOUS
 10
35.7477
 20
26.1996
  0
VERTEX
  8
LAYER8
 62
     7
  6
CONTINUOUS
 10
35.7400
 20
26.1966
  0
VERTEX
  8
LAYER8
 62
     7
  6
CONTINUOUS
 10
35.7326
 20
26.1935
  0
VERTEX
  8
LAYER8
 62
     7
  6
CONTINUOUS
 10
35.7238
 20
26.1896
  0
VERTEX
  8
LAYER8
 62
     7
  6
CONTINUOUS
 10
35.7155
 20
26.1855
  0
VERTEX
  8
LAYER8
 62
     7
  6
CONTINUOUS
 10
35.7077
 20
26.1813
  0
VERTEX
  8
LAYER8
 62
     7
  6
CONTINUOUS
 10
35.7002
 20
26.1769
  0
VERTEX
  8
LAYER8
 62
     7
  6
CONTINUOUS
 10
35.6931
 20
26.1723
  0
VERTEX
  8
LAYER8
 62
     7
  6
CONTINUOUS
 10
35.6864
 20
26.1677
  0
VERTEX
  8
LAYER8
 62
     7
  6
CONTINUOUS
 10
35.6798
 20
26.1628
  0
VERTEX
  8
LAYER8
 62
     7
  6
CONTINUOUS
 10
35.6735
 20
26.1579
  0
VERTEX
  8
LAYER8
 62
     7
  6
CONTINUOUS
 10
35.6673
 20
26.1528
  0
VERTEX
  8
LAYER8
 62
     7
  6
CONTINUOUS
 10
35.6612
 20
26.1476
  0
VERTEX
  8
LAYER8
 62
     7
  6
CONTINUOUS
 10
35.6552
 20
26.1422
  0
VERTEX
  8
LAYER8
 62
     7
  6
CONTINUOUS
 10
35.6492
 20
26.1368
  0
VERTEX
  8
LAYER8
 62
     7
  6
CONTINUOUS
 10
35.6438
 20
26.1318
  0
VERTEX
  8
LAYER8
 62
     7
  6
CONTINUOUS
 10
35.6384
 20
26.1268
  0
VERTEX
  8
LAYER8
 62
     7
  6
CONTINUOUS
 10
35.6329
 20
26.1217
  0
VERTEX
  8
LAYER8
 62
     7
  6
CONTINUOUS
 10
35.6273
 20
26.1167
  0
VERTEX
  8
LAYER8
 62
     7
  6
CONTINUOUS
 10
35.6217
 20
26.1116
  0
VERTEX
  8
LAYER8
 62
     7
  6
CONTINUOUS
 10
35.6160
 20
26.1067
  0
VERTEX
  8
LAYER8
 62
     7
  6
CONTINUOUS
 10
35.6102
 20
26.1018
  0
VERTEX
  8
LAYER8
 62
     7
  6
CONTINUOUS
 10
35.6043
 20
26.0971
  0
VERTEX
  8
LAYER8
 62
     7
  6
CONTINUOUS
 10
35.5983
 20
26.0925
  0
VERTEX
  8
LAYER8
 62
     7
  6
CONTINUOUS
 10
35.5922
 20
26.0882
  0
VERTEX
  8
LAYER8
 62
     7
  6
CONTINUOUS
 10
35.5859
 20
26.0840
  0
VERTEX
  8
LAYER8
 62
     7
  6
CONTINUOUS
 10
35.5795
 20
26.0802
  0
VERTEX
  8
LAYER8
 62
     7
  6
CONTINUOUS
 10
35.5749
 20
26.0776
  0
VERTEX
  8
LAYER8
 62
     7
  6
CONTINUOUS
 10
35.5703
 20
26.0752
  0
VERTEX
  8
LAYER8
 62
     7
  6
CONTINUOUS
 10
35.5656
 20
26.0729
  0
VERTEX
  8
LAYER8
 62
     7
  6
CONTINUOUS
 10
35.5609
 20
26.0706
  0
VERTEX
  8
LAYER8
 62
     7
  6
CONTINUOUS
 10
35.5562
 20
26.0684
  0
VERTEX
  8
LAYER8
 62
     7
  6
CONTINUOUS
 10
35.5514
 20
26.0662
  0
VERTEX
  8
LAYER8
 62
     7
  6
CONTINUOUS
 10
35.5467
 20
26.0639
  0
VERTEX
  8
LAYER8
 62
     7
  6
CONTINUOUS
 10
35.5420
 20
26.0617
  0
VERTEX
  8
LAYER8
 62
     7
  6
CONTINUOUS
 10
35.5374
 20
26.0593
  0
VERTEX
  8
LAYER8
 62
     7
  6
CONTINUOUS
 10
35.5328
 20
26.0569
  0
VERTEX
  8
LAYER8
 62
     7
  6
CONTINUOUS
 10
35.5282
 20
26.0543
  0
VERTEX
  8
LAYER8
 62
     7
  6
CONTINUOUS
 10
35.5238
 20
26.0516
  0
VERTEX
  8
LAYER8
 62
     7
  6
CONTINUOUS
 10
35.5194
 20
26.0487
  0
VERTEX
  8
LAYER8
 62
     7
  6
CONTINUOUS
 10
35.5152
 20
26.0457
  0
VERTEX
  8
LAYER8
 62
     7
  6
CONTINUOUS
 10
35.5109
 20
26.0427
  0
VERTEX
  8
LAYER8
 62
     7
  6
CONTINUOUS
 10
35.5066
 20
26.0397
  0
VERTEX
  8
LAYER8
 62
     7
  6
CONTINUOUS
 10
35.5023
 20
26.0367
  0
VERTEX
  8
LAYER8
 62
     7
  6
CONTINUOUS
 10
35.4980
 20
26.0339
  0
VERTEX
  8
LAYER8
 62
     7
  6
CONTINUOUS
 10
35.4935
 20
26.0313
  0
VERTEX
  8
LAYER8
 62
     7
  6
CONTINUOUS
 10
35.4888
 20
26.0289
  0
VERTEX
  8
LAYER8
 62
     7
  6
CONTINUOUS
 10
35.4840
 20
26.0268
  0
VERTEX
  8
LAYER8
 62
     7
  6
CONTINUOUS
 10
35.4790
 20
26.0251
  0
VERTEX
  8
LAYER8
 62
     7
  6
CONTINUOUS
 10
35.4737
 20
26.0238
  0
VERTEX
  8
LAYER8
 62
     7
  6
CONTINUOUS
 10
35.4681
 20
26.0231
  0
VERTEX
  8
LAYER8
 62
     7
  6
CONTINUOUS
 10
35.4640
 20
26.0229
  0
VERTEX
  8
LAYER8
 62
     7
  6
CONTINUOUS
 10
35.4599
 20
26.0229
  0
VERTEX
  8
LAYER8
 62
     7
  6
CONTINUOUS
 10
35.4556
 20
26.0233
  0
VERTEX
  8
LAYER8
 62
     7
  6
CONTINUOUS
 10
35.4514
 20
26.0238
  0
VERTEX
  8
LAYER8
 62
     7
  6
CONTINUOUS
 10
35.4473
 20
26.0247
  0
VERTEX
  8
LAYER8
 62
     7
  6
CONTINUOUS
 10
35.4434
 20
26.0257
  0
VERTEX
  8
LAYER8
 62
     7
  6
CONTINUOUS
 10
35.4396
 20
26.0270
  0
VERTEX
  8
LAYER8
 62
     7
  6
CONTINUOUS
 10
35.4362
 20
26.0285
  0
VERTEX
  8
LAYER8
 62
     7
  6
CONTINUOUS
 10
35.4330
 20
26.0303
  0
VERTEX
  8
LAYER8
 62
     7
  6
CONTINUOUS
 10
35.4303
 20
26.0322
  0
VERTEX
  8
LAYER8
 62
     7
  6
CONTINUOUS
 10
35.4280
 20
26.0343
  0
VERTEX
  8
LAYER8
 62
     7
  6
CONTINUOUS
 10
35.4263
 20
26.0367
  0
VERTEX
  8
LAYER8
 62
     7
  6
CONTINUOUS
 10
35.4247
 20
26.0408
  0
VERTEX
  8
LAYER8
 62
     7
  6
CONTINUOUS
 10
35.4244
 20
26.0452
  0
VERTEX
  8
LAYER8
 62
     7
  6
CONTINUOUS
 10
35.4254
 20
26.0500
  0
VERTEX
  8
LAYER8
 62
     7
  6
CONTINUOUS
 10
35.4274
 20
26.0550
  0
VERTEX
  8
LAYER8
 62
     7
  6
CONTINUOUS
 10
35.4304
 20
26.0602
  0
VERTEX
  8
LAYER8
 62
     7
  6
CONTINUOUS
 10
35.4343
 20
26.0653
  0
VERTEX
  8
LAYER8
 62
     7
  6
CONTINUOUS
 10
35.4388
 20
26.0705
  0
VERTEX
  8
LAYER8
 62
     7
  6
CONTINUOUS
 10
35.4439
 20
26.0756
  0
VERTEX
  8
LAYER8
 62
     7
  6
CONTINUOUS
 10
35.4495
 20
26.0804
  0
VERTEX
  8
LAYER8
 62
     7
  6
CONTINUOUS
 10
35.4554
 20
26.0850
  0
VERTEX
  8
LAYER8
 62
     7
  6
CONTINUOUS
 10
35.4615
 20
26.0893
  0
VERTEX
  8
LAYER8
 62
     7
  6
CONTINUOUS
 10
35.4677
 20
26.0931
  0
VERTEX
  8
LAYER8
 62
     7
  6
CONTINUOUS
 10
35.4742
 20
26.0966
  0
VERTEX
  8
LAYER8
 62
     7
  6
CONTINUOUS
 10
35.4807
 20
26.0996
  0
VERTEX
  8
LAYER8
 62
     7
  6
CONTINUOUS
 10
35.4871
 20
26.1022
  0
VERTEX
  8
LAYER8
 62
     7
  6
CONTINUOUS
 10
35.4933
 20
26.1045
  0
VERTEX
  8
LAYER8
 62
     7
  6
CONTINUOUS
 10
35.4994
 20
26.1065
  0
VERTEX
  8
LAYER8
 62
     7
  6
CONTINUOUS
 10
35.5054
 20
26.1084
  0
VERTEX
  8
LAYER8
 62
     7
  6
CONTINUOUS
 10
35.5112
 20
26.1102
  0
VERTEX
  8
LAYER8
 62
     7
  6
CONTINUOUS
 10
35.5168
 20
26.1121
  0
VERTEX
  8
LAYER8
 62
     7
  6
CONTINUOUS
 10
35.5222
 20
26.1141
  0
VERTEX
  8
LAYER8
 62
     7
  6
CONTINUOUS
 10
35.5275
 20
26.1163
  0
VERTEX
  8
LAYER8
 62
     7
  6
CONTINUOUS
 10
35.5325
 20
26.1188
  0
VERTEX
  8
LAYER8
 62
     7
  6
CONTINUOUS
 10
35.5372
 20
26.1217
  0
VERTEX
  8
LAYER8
 62
     7
  6
CONTINUOUS
 10
35.5415
 20
26.1249
  0
VERTEX
  8
LAYER8
 62
     7
  6
CONTINUOUS
 10
35.5455
 20
26.1285
  0
VERTEX
  8
LAYER8
 62
     7
  6
CONTINUOUS
 10
35.5493
 20
26.1324
  0
VERTEX
  8
LAYER8
 62
     7
  6
CONTINUOUS
 10
35.5530
 20
26.1366
  0
VERTEX
  8
LAYER8
 62
     7
  6
CONTINUOUS
 10
35.5565
 20
26.1412
  0
VERTEX
  8
LAYER8
 62
     7
  6
CONTINUOUS
 10
35.5600
 20
26.1460
  0
VERTEX
  8
LAYER8
 62
     7
  6
CONTINUOUS
 10
35.5633
 20
26.1510
  0
VERTEX
  8
LAYER8
 62
     7
  6
CONTINUOUS
 10
35.5665
 20
26.1562
  0
VERTEX
  8
LAYER8
 62
     7
  6
CONTINUOUS
 10
35.5696
 20
26.1615
  0
VERTEX
  8
LAYER8
 62
     7
  6
CONTINUOUS
 10
35.5727
 20
26.1670
  0
VERTEX
  8
LAYER8
 62
     7
  6
CONTINUOUS
 10
35.5758
 20
26.1725
  0
VERTEX
  8
LAYER8
 62
     7
  6
CONTINUOUS
 10
35.5789
 20
26.1781
  0
VERTEX
  8
LAYER8
 62
     7
  6
CONTINUOUS
 10
35.5828
 20
26.1853
  0
VERTEX
  8
LAYER8
 62
     7
  6
CONTINUOUS
 10
35.5867
 20
26.1924
  0
VERTEX
  8
LAYER8
 62
     7
  6
CONTINUOUS
 10
35.5907
 20
26.1994
  0
VERTEX
  8
LAYER8
 62
     7
  6
CONTINUOUS
 10
35.5948
 20
26.2063
  0
VERTEX
  8
LAYER8
 62
     7
  6
CONTINUOUS
 10
35.5990
 20
26.2129
  0
VERTEX
  8
LAYER8
 62
     7
  6
CONTINUOUS
 10
35.6034
 20
26.2193
  0
VERTEX
  8
LAYER8
 62
     7
  6
CONTINUOUS
 10
35.6079
 20
26.2253
  0
VERTEX
  8
LAYER8
 62
     7
  6
CONTINUOUS
 10
35.6127
 20
26.2310
  0
VERTEX
  8
LAYER8
 62
     7
  6
CONTINUOUS
 10
35.6176
 20
26.2362
  0
VERTEX
  8
LAYER8
 62
     7
  6
CONTINUOUS
 10
35.6229
 20
26.2409
  0
VERTEX
  8
LAYER8
 62
     7
  6
CONTINUOUS
 10
35.6283
 20
26.2451
  0
VERTEX
  8
LAYER8
 62
     7
  6
CONTINUOUS
 10
35.6342
 20
26.2486
  0
VERTEX
  8
LAYER8
 62
     7
  6
CONTINUOUS
 10
35.6393
 20
26.2510
  0
VERTEX
  8
LAYER8
 62
     7
  6
CONTINUOUS
 10
35.6446
 20
26.2531
  0
VERTEX
  8
LAYER8
 62
     7
  6
CONTINUOUS
 10
35.6502
 20
26.2550
  0
VERTEX
  8
LAYER8
 62
     7
  6
CONTINUOUS
 10
35.6559
 20
26.2566
  0
VERTEX
  8
LAYER8
 62
     7
  6
CONTINUOUS
 10
35.6617
 20
26.2582
  0
VERTEX
  8
LAYER8
 62
     7
  6
CONTINUOUS
 10
35.6676
 20
26.2599
  0
VERTEX
  8
LAYER8
 62
     7
  6
CONTINUOUS
 10
35.6736
 20
26.2618
  0
VERTEX
  8
LAYER8
 62
     7
  6
CONTINUOUS
 10
35.6797
 20
26.2639
  0
VERTEX
  8
LAYER8
 62
     7
  6
CONTINUOUS
 10
35.6857
 20
26.2664
  0
VERTEX
  8
LAYER8
 62
     7
  6
CONTINUOUS
 10
35.6918
 20
26.2694
  0
VERTEX
  8
LAYER8
 62
     7
  6
CONTINUOUS
 10
35.6979
 20
26.2730
  0
VERTEX
  8
LAYER8
 62
     7
  6
CONTINUOUS
 10
35.7039
 20
26.2773
  0
VERTEX
  8
LAYER8
 62
     7
  6
CONTINUOUS
 10
35.7093
 20
26.2819
  0
VERTEX
  8
LAYER8
 62
     7
  6
CONTINUOUS
 10
35.7147
 20
26.2870
  0
VERTEX
  8
LAYER8
 62
     7
  6
CONTINUOUS
 10
35.7200
 20
26.2924
  0
VERTEX
  8
LAYER8
 62
     7
  6
CONTINUOUS
 10
35.7251
 20
26.2979
  0
VERTEX
  8
LAYER8
 62
     7
  6
CONTINUOUS
 10
35.7301
 20
26.3033
  0
VERTEX
  8
LAYER8
 62
     7
  6
CONTINUOUS
 10
35.7350
 20
26.3083
  0
VERTEX
  8
LAYER8
 62
     7
  6
CONTINUOUS
 10
35.7396
 20
26.3128
  0
VERTEX
  8
LAYER8
 62
     7
  6
CONTINUOUS
 10
35.7440
 20
26.3165
  0
VERTEX
  8
LAYER8
 62
     7
  6
CONTINUOUS
 10
35.7482
 20
26.3193
  0
VERTEX
  8
LAYER8
 62
     7
  6
CONTINUOUS
 10
35.7521
 20
26.3209
  0
VERTEX
  8
LAYER8
 62
     7
  6
CONTINUOUS
 10
35.7558
 20
26.3211
  0
VERTEX
  8
LAYER8
 62
     7
  6
CONTINUOUS
 10
35.7592
 20
26.3198
  0
VERTEX
  8
LAYER8
 62
     7
  6
CONTINUOUS
 10
35.7606
 20
26.3186
  0
VERTEX
  8
LAYER8
 62
     7
  6
CONTINUOUS
 10
35.7619
 20
26.3171
  0
VERTEX
  8
LAYER8
 62
     7
  6
CONTINUOUS
 10
35.7632
 20
26.3153
  0
VERTEX
  8
LAYER8
 62
     7
  6
CONTINUOUS
 10
35.7645
 20
26.3133
  0
VERTEX
  8
LAYER8
 62
     7
  6
CONTINUOUS
 10
35.7657
 20
26.3110
  0
VERTEX
  8
LAYER8
 62
     7
  6
CONTINUOUS
 10
35.7669
 20
26.3086
  0
VERTEX
  8
LAYER8
 62
     7
  6
CONTINUOUS
 10
35.7681
 20
26.3060
  0
VERTEX
  8
LAYER8
 62
     7
  6
CONTINUOUS
 10
35.7692
 20
26.3033
  0
VERTEX
  8
LAYER8
 62
     7
  6
CONTINUOUS
 10
35.7703
 20
26.3005
  0
VERTEX
  8
LAYER8
 62
     7
  6
CONTINUOUS
 10
35.7715
 20
26.2977
  0
VERTEX
  8
LAYER8
 62
     7
  6
CONTINUOUS
 10
35.7726
 20
26.2948
  0
VERTEX
  8
LAYER8
 62
     7
  6
CONTINUOUS
 10
35.7737
 20
26.2920
  0
SEQEND
  8
LAYER8
  0
POLYLINE
  8
LAYER8
 62
     1
 66
     1
  6
CONTINUOUS
  0
VERTEX
  8
LAYER8
 62
     1
  6
CONTINUOUS
 10
34.6365
 20
27.3864
  0
VERTEX
  8
LAYER8
 62
     1
  6
CONTINUOUS
 10
34.6161
 20
27.3305
  0
VERTEX
  8
LAYER8
 62
     1
  6
CONTINUOUS
 10
34.6869
 20
27.2472
  0
VERTEX
  8
LAYER8
 62
     1
  6
CONTINUOUS
 10
34.7294
 20
27.1776
  0
VERTEX
  8
LAYER8
 62
     1
  6
CONTINUOUS
 10
34.8002
 20
27.1083
  0
VERTEX
  8
LAYER8
 62
     1
  6
CONTINUOUS
 10
34.7733
 20
26.9681
  0
VERTEX
  8
LAYER8
 62
     1
  6
CONTINUOUS
 10
34.7323
 20
26.8978
  0
VERTEX
  8
LAYER8
 62
     1
  6
CONTINUOUS
 10
34.7186
 20
26.8417
  0
VERTEX
  8
LAYER8
 62
     1
  6
CONTINUOUS
 10
34.7606
 20
26.8421
  0
VERTEX
  8
LAYER8
 62
     1
  6
CONTINUOUS
 10
34.8031
 20
26.8145
  0
VERTEX
  8
LAYER8
 62
     1
  6
CONTINUOUS
 10
34.7758
 20
26.7163
  0
VERTEX
  8
LAYER8
 62
     1
  6
CONTINUOUS
 10
34.7201
 20
26.6877
  0
VERTEX
  8
LAYER8
 62
     1
  6
CONTINUOUS
 10
34.6929
 20
26.6175
  0
VERTEX
  8
LAYER8
 62
     1
  6
CONTINUOUS
 10
34.6935
 20
26.5476
  0
VERTEX
  8
LAYER8
 62
     1
  6
CONTINUOUS
 10
34.7080
 20
26.4917
  0
VERTEX
  8
LAYER8
 62
     1
  6
CONTINUOUS
 10
34.6659
 20
26.4913
  0
VERTEX
  8
LAYER8
 62
     1
  6
CONTINUOUS
 10
34.6107
 20
26.4208
  0
VERTEX
  8
LAYER8
 62
     1
  6
CONTINUOUS
 10
34.5414
 20
26.3501
  0
VERTEX
  8
LAYER8
 62
     1
  6
CONTINUOUS
 10
34.5140
 20
26.2939
  0
VERTEX
  8
LAYER8
 62
     1
  6
CONTINUOUS
 10
34.4727
 20
26.2515
  0
VERTEX
  8
LAYER8
 62
     1
  6
CONTINUOUS
 10
34.5009
 20
26.2098
  0
VERTEX
  8
LAYER8
 62
     1
  6
CONTINUOUS
 10
34.5155
 20
26.1400
  0
VERTEX
  8
LAYER8
 62
     1
  6
CONTINUOUS
 10
34.5302
 20
26.0702
  0
VERTEX
  8
LAYER8
 62
     1
  6
CONTINUOUS
 10
34.5311
 20
25.9442
  0
VERTEX
  8
LAYER8
 62
     1
  6
CONTINUOUS
 10
34.5321
 20
25.8463
  0
VERTEX
  8
LAYER8
 62
     1
  6
CONTINUOUS
 10
34.5614
 20
25.7205
  0
VERTEX
  8
LAYER8
 62
     1
  6
CONTINUOUS
 10
34.6034
 20
25.7070
  0
VERTEX
  8
LAYER8
 62
     1
  6
CONTINUOUS
 10
34.6185
 20
25.5951
  0
VERTEX
  8
LAYER8
 62
     1
  6
CONTINUOUS
 10
34.6471
 20
25.5394
  0
VERTEX
  8
LAYER8
 62
     1
  6
CONTINUOUS
 10
34.6454
 20
25.5360
  0
SEQEND
  8
LAYER8
  0
POLYLINE
  8
LAYER8
 62
     1
 66
     1
  6
CONTINUOUS
  0
VERTEX
  8
LAYER8
 62
     1
  6
CONTINUOUS
 10
34.6454
 20
25.5360
  0
VERTEX
  8
LAYER8
 62
     1
  6
CONTINUOUS
 10
34.6241
 20
25.4923
  0
SEQEND
  8
LAYER8
  0
POLYLINE
  8
LAYER8
 62
     1
 66
     1
  6
CONTINUOUS
  0
VERTEX
  8
LAYER8
 62
     1
  6
CONTINUOUS
 10
35.1339
 20
25.4923
  0
VERTEX
  8
LAYER8
 62
     1
  6
CONTINUOUS
 10
35.1783
 20
25.6005
  0
VERTEX
  8
LAYER8
 62
     1
  6
CONTINUOUS
 10
35.2333
 20
25.7129
  0
VERTEX
  8
LAYER8
 62
     1
  6
CONTINUOUS
 10
35.2599
 20
25.8532
  0
VERTEX
  8
LAYER8
 62
     1
  6
CONTINUOUS
 10
35.2850
 20
25.9967
  0
VERTEX
  8
LAYER8
 62
     1
  6
CONTINUOUS
 10
35.2861
 20
26.0353
  0
VERTEX
  8
LAYER8
 62
     1
  6
CONTINUOUS
 10
35.2617
 20
26.1785
  0
VERTEX
  8
LAYER8
 62
     1
  6
CONTINUOUS
 10
35.2562
 20
26.2310
  0
VERTEX
  8
LAYER8
 62
     1
  6
CONTINUOUS
 10
35.2776
 20
26.3741
  0
VERTEX
  8
LAYER8
 62
     1
  6
CONTINUOUS
 10
35.2826
 20
26.3992
  0
VERTEX
  8
LAYER8
 62
     1
  6
CONTINUOUS
 10
35.2954
 20
26.5435
  0
VERTEX
  8
LAYER8
 62
     1
  6
CONTINUOUS
 10
35.2951
 20
26.5673
  0
VERTEX
  8
LAYER8
 62
     1
  6
CONTINUOUS
 10
35.2881
 20
26.7132
  0
VERTEX
  8
LAYER8
 62
     1
  6
CONTINUOUS
 10
35.2931
 20
26.7772
  0
VERTEX
  8
LAYER8
 62
     1
  6
CONTINUOUS
 10
35.3408
 20
26.9073
  0
SEQEND
  8
LAYER8
  0
ARC
  8
LAYER8
 62
     7
  6
CONTINUOUS
 10
34.2133
 20
25.5213
 40
0.0420
 50
-43.6003
 51
-136.3978
  0
ARC
  8
LAYER8
 62
     7
  6
CONTINUOUS
 10
34.2133
 20
25.5213
 40
0.0420
 50
-136.4105
 51
-43.5988
  0
ARC
  8
LAYER8
 62
     7
  6
CONTINUOUS
 10
34.3466
 20
25.5016
 40
0.0357
 50
-15.0578
 51
-164.9392
  0
ARC
  8
LAYER8
 62
     7
  6
CONTINUOUS
 10
34.3466
 20
25.5016
 40
0.0356
 50
-164.9406
 51
-15.0564
  0
ARC
  8
LAYER8
 62
     7
  6
CONTINUOUS
 10
36.0321
 20
27.8198
 40
0.0703
 50
-84.0183
 51
-29.7250
  0
ARC
  8
LAYER8
 62
     7
  6
CONTINUOUS
 10
36.0321
 20
27.8198
 40
0.0703
 50
29.7250
 51
-84.0183
  0
POLYLINE
  8
LAYER8
 62
     7
 66
     1
  6
CONTINUOUS
  0
VERTEX
  8
LAYER8
 62
     7
  6
CONTINUOUS
 10
33.7684
 20
25.3172
  0
VERTEX
  8
LAYER8
 62
     7
  6
CONTINUOUS
 10
33.7695
 20
25.3176
  0
VERTEX
  8
LAYER8
 62
     7
  6
CONTINUOUS
 10
33.7706
 20
25.3179
  0
VERTEX
  8
LAYER8
 62
     7
  6
CONTINUOUS
 10
33.7717
 20
25.3183
  0
VERTEX
  8
LAYER8
 62
     7
  6
CONTINUOUS
 10
33.7727
 20
25.3186
  0
VERTEX
  8
LAYER8
 62
     7
  6
CONTINUOUS
 10
33.7738
 20
25.3189
  0
VERTEX
  8
LAYER8
 62
     7
  6
CONTINUOUS
 10
33.7749
 20
25.3193
  0
VERTEX
  8
LAYER8
 62
     7
  6
CONTINUOUS
 10
33.7760
 20
25.3196
  0
VERTEX
  8
LAYER8
 62
     7
  6
CONTINUOUS
 10
33.7771
 20
25.3199
  0
VERTEX
  8
LAYER8
 62
     7
  6
CONTINUOUS
 10
33.7783
 20
25.3203
  0
VERTEX
  8
LAYER8
 62
     7
  6
CONTINUOUS
 10
33.7794
 20
25.3206
  0
VERTEX
  8
LAYER8
 62
     7
  6
CONTINUOUS
 10
33.7805
 20
25.3209
  0
VERTEX
  8
LAYER8
 62
     7
  6
CONTINUOUS
 10
33.7816
 20
25.3213
  0
VERTEX
  8
LAYER8
 62
     7
  6
CONTINUOUS
 10
33.7874
 20
25.3229
  0
VERTEX
  8
LAYER8
 62
     7
  6
CONTINUOUS
 10
33.7933
 20
25.3244
  0
VERTEX
  8
LAYER8
 62
     7
  6
CONTINUOUS
 10
33.7993
 20
25.3257
  0
VERTEX
  8
LAYER8
 62
     7
  6
CONTINUOUS
 10
33.8053
 20
25.3268
  0
VERTEX
  8
LAYER8
 62
     7
  6
CONTINUOUS
 10
33.8114
 20
25.3276
  0
VERTEX
  8
LAYER8
 62
     7
  6
CONTINUOUS
 10
33.8174
 20
25.3282
  0
VERTEX
  8
LAYER8
 62
     7
  6
CONTINUOUS
 10
33.8234
 20
25.3283
  0
VERTEX
  8
LAYER8
 62
     7
  6
CONTINUOUS
 10
33.8294
 20
25.3281
  0
VERTEX
  8
LAYER8
 62
     7
  6
CONTINUOUS
 10
33.8352
 20
25.3274
  0
VERTEX
  8
LAYER8
 62
     7
  6
CONTINUOUS
 10
33.8408
 20
25.3261
  0
VERTEX
  8
LAYER8
 62
     7
  6
CONTINUOUS
 10
33.8462
 20
25.3243
  0
VERTEX
  8
LAYER8
 62
     7
  6
CONTINUOUS
 10
33.8514
 20
25.3219
  0
VERTEX
  8
LAYER8
 62
     7
  6
CONTINUOUS
 10
33.8521
 20
25.3216
  0
VERTEX
  8
LAYER8
 62
     7
  6
CONTINUOUS
 10
33.8527
 20
25.3212
  0
VERTEX
  8
LAYER8
 62
     7
  6
CONTINUOUS
 10
33.8534
 20
25.3208
  0
VERTEX
  8
LAYER8
 62
     7
  6
CONTINUOUS
 10
33.8540
 20
25.3205
  0
VERTEX
  8
LAYER8
 62
     7
  6
CONTINUOUS
 10
33.8546
 20
25.3201
  0
VERTEX
  8
LAYER8
 62
     7
  6
CONTINUOUS
 10
33.8553
 20
25.3197
  0
VERTEX
  8
LAYER8
 62
     7
  6
CONTINUOUS
 10
33.8559
 20
25.3193
  0
VERTEX
  8
LAYER8
 62
     7
  6
CONTINUOUS
 10
33.8565
 20
25.3189
  0
VERTEX
  8
LAYER8
 62
     7
  6
CONTINUOUS
 10
33.8571
 20
25.3185
  0
VERTEX
  8
LAYER8
 62
     7
  6
CONTINUOUS
 10
33.8578
 20
25.3181
  0
VERTEX
  8
LAYER8
 62
     7
  6
CONTINUOUS
 10
33.8584
 20
25.3176
  0
VERTEX
  8
LAYER8
 62
     7
  6
CONTINUOUS
 10
33.8590
 20
25.3172
  0
SEQEND
  8
LAYER8
  0
POLYLINE
  8
LAYER8
 62
     1
 66
     1
  6
CONTINUOUS
  0
VERTEX
  8
LAYER8
 62
     1
  6
CONTINUOUS
 10
34.6241
 20
25.4923
  0
VERTEX
  8
LAYER8
 62
     1
  6
CONTINUOUS
 10
34.6060
 20
25.4550
  0
VERTEX
  8
LAYER8
 62
     1
  6
CONTINUOUS
 10
34.5927
 20
25.3850
  0
VERTEX
  8
LAYER8
 62
     1
  6
CONTINUOUS
 10
34.6211
 20
25.3293
  0
VERTEX
  8
LAYER8
 62
     1
  6
CONTINUOUS
 10
34.6260
 20
25.3172
  0
SEQEND
  8
LAYER8
  0
POLYLINE
  8
LAYER8
 62
     1
 66
     1
  6
CONTINUOUS
  0
VERTEX
  8
LAYER8
 62
     1
  6
CONTINUOUS
 10
35.0954
 20
25.3172
  0
VERTEX
  8
LAYER8
 62
     1
  6
CONTINUOUS
 10
35.0970
 20
25.3338
  0
VERTEX
  8
LAYER8
 62
     1
  6
CONTINUOUS
 10
35.1271
 20
25.4757
  0
VERTEX
  8
LAYER8
 62
     1
  6
CONTINUOUS
 10
35.1339
 20
25.4923
  0
SEQEND
  8
LAYER8
  0
ARC
  8
LAYER8
 62
     7
  6
CONTINUOUS
 10
33.3964
 20
25.3021
 40
0.0314
 50
28.7998
 51
151.2002
  0
ARC
  8
LAYER8
 62
     7
  6
CONTINUOUS
 10
33.3795
 20
27.9613
 40
0.0851
 50
-80.9209
 51
138.2045
  0
ARC
  8
LAYER8
 62
     7
  6
CONTINUOUS
 10
33.3795
 20
27.9613
 40
0.0851
 50
-138.2084
 51
-80.9205
  0
ARC
  8
LAYER8
 62
     7
  6
CONTINUOUS
 10
33.3221
 20
27.8079
 40
0.0447
 50
-97.8378
 51
97.8330
  0
POLYLINE
  8
LAYER8
 62
     1
 66
     1
  6
CONTINUOUS
  0
VERTEX
  8
LAYER8
 62
     1
  6
CONTINUOUS
 10
34.7252
 20
28.0944
  0
VERTEX
  8
LAYER8
 62
     1
  6
CONTINUOUS
 10
34.6377
 20
28.0305
  0
VERTEX
  8
LAYER8
 62
     1
  6
CONTINUOUS
 10
34.6942
 20
27.9331
  0
VERTEX
  8
LAYER8
 62
     1
  6
CONTINUOUS
 10
34.6952
 20
27.8211
  0
VERTEX
  8
LAYER8
 62
     1
  6
CONTINUOUS
 10
34.6689
 20
27.6809
  0
VERTEX
  8
LAYER8
 62
     1
  6
CONTINUOUS
 10
34.6841
 20
27.5550
  0
VERTEX
  8
LAYER8
 62
     1
  6
CONTINUOUS
 10
34.6571
 20
27.4429
  0
VERTEX
  8
LAYER8
 62
     1
  6
CONTINUOUS
 10
34.6365
 20
27.3864
  0
SEQEND
  8
LAYER8
  0
POLYLINE
  8
LAYER8
 62
     1
 66
     1
  6
CONTINUOUS
  0
VERTEX
  8
LAYER8
 62
     1
  6
CONTINUOUS
 10
35.3408
 20
26.9073
  0
VERTEX
  8
LAYER8
 62
     1
  6
CONTINUOUS
 10
35.3428
 20
26.9127
  0
VERTEX
  8
LAYER8
 62
     1
  6
CONTINUOUS
 10
35.3615
 20
26.9457
  0
VERTEX
  8
LAYER8
 62
     1
  6
CONTINUOUS
 10
35.4336
 20
27.0728
  0
VERTEX
  8
LAYER8
 62
     1
  6
CONTINUOUS
 10
35.4440
 20
27.1005
  0
VERTEX
  8
LAYER8
 62
     1
  6
CONTINUOUS
 10
35.4557
 20
27.2406
  0
VERTEX
  8
LAYER8
 62
     1
  6
CONTINUOUS
 10
35.4349
 20
27.3885
  0
VERTEX
  8
LAYER8
 62
     1
  6
CONTINUOUS
 10
35.4268
 20
27.4502
  0
VERTEX
  8
LAYER8
 62
     1
  6
CONTINUOUS
 10
35.4226
 20
27.5954
  0
VERTEX
  8
LAYER8
 62
     1
  6
CONTINUOUS
 10
35.4247
 20
27.6462
  0
VERTEX
  8
LAYER8
 62
     1
  6
CONTINUOUS
 10
35.4302
 20
27.7909
  0
VERTEX
  8
LAYER8
 62
     1
  6
CONTINUOUS
 10
35.4226
 20
27.8840
  0
VERTEX
  8
LAYER8
 62
     1
  6
CONTINUOUS
 10
35.3932
 20
28.0282
  0
VERTEX
  8
LAYER8
 62
     1
  6
CONTINUOUS
 10
35.3924
 20
28.0937
  0
VERTEX
  8
LAYER8
 62
     1
  6
CONTINUOUS
 10
35.3927
 20
28.0944
  0
SEQEND
  8
LAYER8
  0
POLYLINE
  8
LAYER25
 62
     5
 66
     1
  6
CONTINUOUS
  0
VERTEX
  8
LAYER25
 62
     5
  6
CONTINUOUS
 10
33.3160
 20
25.3172
  0
VERTEX
  8
LAYER25
 62
     5
  6
CONTINUOUS
 10
33.3160
 20
25.4923
  0
SEQEND
  8
LAYER25
  0
POLYLINE
  8
LAYER25
 62
     5
 66
     1
  6
CONTINUOUS
  0
VERTEX
  8
LAYER25
 62
     5
  6
CONTINUOUS
 10
36.0931
 20
25.3172
  0
VERTEX
  8
LAYER25
 62
     5
  6
CONTINUOUS
 10
33.3160
 20
25.3172
  0
SEQEND
  8
LAYER25
  0
POLYLINE
  8
LAYER25
 62
     5
 66
     1
  6
CONTINUOUS
  0
VERTEX
  8
LAYER25
 62
     5
  6
CONTINUOUS
 10
36.0931
 20
28.0944
  0
VERTEX
  8
LAYER25
 62
     5
  6
CONTINUOUS
 10
36.0931
 20
25.4923
  0
SEQEND
  8
LAYER25
  0
POLYLINE
  8
LAYER25
 62
     5
 66
     1
  6
CONTINUOUS
  0
VERTEX
  8
LAYER25
 62
     5
  6
CONTINUOUS
 10
33.3160
 20
25.4923
  0
VERTEX
  8
LAYER25
 62
     5
  6
CONTINUOUS
 10
33.3160
 20
28.0944
  0
SEQEND
  8
LAYER25
  0
POLYLINE
  8
LAYER25
 62
     5
 66
     1
  6
CONTINUOUS
  0
VERTEX
  8
LAYER25
 62
     5
  6
CONTINUOUS
 10
33.3160
 20
28.0944
  0
VERTEX
  8
LAYER25
 62
     5
  6
CONTINUOUS
 10
36.0931
 20
28.0944
  0
SEQEND
  8
LAYER25
  0
CIRCLE
  8
LAYER52
 62
     7
  6
CONTINUOUS
 10
33.4344
 20
25.8447
 40
0.0476
  0
CIRCLE
  8
LAYER52
 62
     7
  6
CONTINUOUS
 10
33.9300
 20
27.3450
 40
0.0350
  0
CIRCLE
  8
LAYER52
 62
     7
  6
CONTINUOUS
 10
33.4056
 20
27.7442
 40
0.0690
  0
CIRCLE
  8
LAYER52
 62
     7
  6
CONTINUOUS
 10
34.6776
 20
26.7433
 40
0.0443
  0
CIRCLE
  8
LAYER52
 62
     7
  6
CONTINUOUS
 10
35.8008
 20
26.3692
 40
0.0251
  0
CIRCLE
  8
LAYER52
 62
     7
  6
CONTINUOUS
 10
35.7333
 20
26.1236
 40
0.0506
  0
CIRCLE
  8
LAYER52
 62
     7
  6
CONTINUOUS
 10
35.3507
 20
25.8680
 40
0.0289
  0
CIRCLE
  8
LAYER52
 62
     7
  6
CONTINUOUS
 10
35.4989
 20
25.7365
 40
0.0377
  0
CIRCLE
  8
LAYER52
 62
     7
  6
CONTINUOUS
 10
35.4372
 20
25.6099
 40
0.0297
  0
CIRCLE
  8
LAYER52
 62
     7
  6
CONTINUOUS
 10
34.0550
 20
25.9956
 40
0.0560
  0
CIRCLE
  8
LAYER52
 62
     7
  6
CONTINUOUS
 10
34.0072
 20
25.8832
 40
0.0565
  0
CIRCLE
  8
LAYER52
 62
     7
  6
CONTINUOUS
 10
33.8041
 20
25.8743
 40
0.0490
  0
CIRCLE
  8
LAYER52
 62
     7
  6
CONTINUOUS
 10
33.6581
 20
25.7959
 40
0.0350
  0
CIRCLE
  8
LAYER52
 62
     7
  6
CONTINUOUS
 10
33.5321
 20
25.7807
 40
0.0351
  0
CIRCLE
  8
LAYER52
 62
     7
  6
CONTINUOUS
 10
33.5536
 20
25.7390
 40
0.0140
  0
CIRCLE
  8
LAYER52
 62
     7
  6
CONTINUOUS
 10
33.4847
 20
25.6333
 40
0.0350
  0
CIRCLE
  8
LAYER52
 62
     7
  6
CONTINUOUS
 10
33.3863
 20
25.6604
 40
0.0349
  0
CIRCLE
  8
LAYER52
 62
     7
  6
CONTINUOUS
 10
33.4349
 20
25.7006
 40
0.0407
  0
POLYLINE
  8
LAYER52
 62
     7
 66
     1
  6
CONTINUOUS
  0
VERTEX
  8
LAYER52
 62
     7
  6
CONTINUOUS
 10
35.3875
 20
25.4923
  0
VERTEX
  8
LAYER52
 62
     7
  6
CONTINUOUS
 10
35.3853
 20
25.4945
  0
VERTEX
  8
LAYER52
 62
     7
  6
CONTINUOUS
 10
35.3831
 20
25.4967
  0
VERTEX
  8
LAYER52
 62
     7
  6
CONTINUOUS
 10
35.3809
 20
25.4989
  0
VERTEX
  8
LAYER52
 62
     7
  6
CONTINUOUS
 10
35.3787
 20
25.5010
  0
VERTEX
  8
LAYER52
 62
     7
  6
CONTINUOUS
 10
35.3765
 20
25.5032
  0
VERTEX
  8
LAYER52
 62
     7
  6
CONTINUOUS
 10
35.3743
 20
25.5054
  0
VERTEX
  8
LAYER52
 62
     7
  6
CONTINUOUS
 10
35.3721
 20
25.5075
  0
VERTEX
  8
LAYER52
 62
     7
  6
CONTINUOUS
 10
35.3699
 20
25.5097
  0
VERTEX
  8
LAYER52
 62
     7
  6
CONTINUOUS
 10
35.3677
 20
25.5118
  0
VERTEX
  8
LAYER52
 62
     7
  6
CONTINUOUS
 10
35.3656
 20
25.5139
  0
VERTEX
  8
LAYER52
 62
     7
  6
CONTINUOUS
 10
35.3634
 20
25.5161
  0
VERTEX
  8
LAYER52
 62
     7
  6
CONTINUOUS
 10
35.3612
 20
25.5182
  0
VERTEX
  8
LAYER52
 62
     7
  6
CONTINUOUS
 10
35.3559
 20
25.5233
  0
VERTEX
  8
LAYER52
 62
     7
  6
CONTINUOUS
 10
35.3506
 20
25.5283
  0
VERTEX
  8
LAYER52
 62
     7
  6
CONTINUOUS
 10
35.3452
 20
25.5332
  0
VERTEX
  8
LAYER52
 62
     7
  6
CONTINUOUS
 10
35.3398
 20
25.5381
  0
VERTEX
  8
LAYER52
 62
     7
  6
CONTINUOUS
 10
35.3343
 20
25.5429
  0
VERTEX
  8
LAYER52
 62
     7
  6
CONTINUOUS
 10
35.3287
 20
25.5476
  0
VERTEX
  8
LAYER52
 62
     7
  6
CONTINUOUS
 10
35.3229
 20
25.5522
  0
VERTEX
  8
LAYER52
 62
     7
  6
CONTINUOUS
 10
35.3169
 20
25.5566
  0
VERTEX
  8
LAYER52
 62
     7
  6
CONTINUOUS
 10
35.3106
 20
25.5610
  0
VERTEX
  8
LAYER52
 62
     7
  6
CONTINUOUS
 10
35.3042
 20
25.5653
  0
VERTEX
  8
LAYER52
 62
     7
  6
CONTINUOUS
 10
35.2975
 20
25.5695
  0
VERTEX
  8
LAYER52
 62
     7
  6
CONTINUOUS
 10
35.2904
 20
25.5735
  0
VERTEX
  8
LAYER52
 62
     7
  6
CONTINUOUS
 10
35.2847
 20
25.5766
  0
VERTEX
  8
LAYER52
 62
     7
  6
CONTINUOUS
 10
35.2789
 20
25.5797
  0
VERTEX
  8
LAYER52
 62
     7
  6
CONTINUOUS
 10
35.2731
 20
25.5827
  0
VERTEX
  8
LAYER52
 62
     7
  6
CONTINUOUS
 10
35.2673
 20
25.5857
  0
VERTEX
  8
LAYER52
 62
     7
  6
CONTINUOUS
 10
35.2617
 20
25.5889
  0
VERTEX
  8
LAYER52
 62
     7
  6
CONTINUOUS
 10
35.2564
 20
25.5921
  0
VERTEX
  8
LAYER52
 62
     7
  6
CONTINUOUS
 10
35.2513
 20
25.5954
  0
VERTEX
  8
LAYER52
 62
     7
  6
CONTINUOUS
 10
35.2467
 20
25.5989
  0
VERTEX
  8
LAYER52
 62
     7
  6
CONTINUOUS
 10
35.2426
 20
25.6025
  0
VERTEX
  8
LAYER52
 62
     7
  6
CONTINUOUS
 10
35.2391
 20
25.6064
  0
VERTEX
  8
LAYER52
 62
     7
  6
CONTINUOUS
 10
35.2363
 20
25.6106
  0
VERTEX
  8
LAYER52
 62
     7
  6
CONTINUOUS
 10
35.2342
 20
25.6150
  0
VERTEX
  8
LAYER52
 62
     7
  6
CONTINUOUS
 10
35.2330
 20
25.6201
  0
VERTEX
  8
LAYER52
 62
     7
  6
CONTINUOUS
 10
35.2327
 20
25.6256
  0
VERTEX
  8
LAYER52
 62
     7
  6
CONTINUOUS
 10
35.2332
 20
25.6313
  0
VERTEX
  8
LAYER52
 62
     7
  6
CONTINUOUS
 10
35.2344
 20
25.6372
  0
VERTEX
  8
LAYER52
 62
     7
  6
CONTINUOUS
 10
35.2364
 20
25.6432
  0
VERTEX
  8
LAYER52
 62
     7
  6
CONTINUOUS
 10
35.2389
 20
25.6494
  0
VERTEX
  8
LAYER52
 62
     7
  6
CONTINUOUS
 10
35.2419
 20
25.6556
  0
VERTEX
  8
LAYER52
 62
     7
  6
CONTINUOUS
 10
35.2454
 20
25.6617
  0
VERTEX
  8
LAYER52
 62
     7
  6
CONTINUOUS
 10
35.2492
 20
25.6679
  0
VERTEX
  8
LAYER52
 62
     7
  6
CONTINUOUS
 10
35.2532
 20
25.6738
  0
VERTEX
  8
LAYER52
 62
     7
  6
CONTINUOUS
 10
35.2574
 20
25.6797
  0
VERTEX
  8
LAYER52
 62
     7
  6
CONTINUOUS
 10
35.2617
 20
25.6852
  0
VERTEX
  8
LAYER52
 62
     7
  6
CONTINUOUS
 10
35.2650
 20
25.6893
  0
VERTEX
  8
LAYER52
 62
     7
  6
CONTINUOUS
 10
35.2682
 20
25.6932
  0
VERTEX
  8
LAYER52
 62
     7
  6
CONTINUOUS
 10
35.2715
 20
25.6969
  0
VERTEX
  8
LAYER52
 62
     7
  6
CONTINUOUS
 10
35.2747
 20
25.7006
  0
VERTEX
  8
LAYER52
 62
     7
  6
CONTINUOUS
 10
35.2780
 20
25.7041
  0
VERTEX
  8
LAYER52
 62
     7
  6
CONTINUOUS
 10
35.2812
 20
25.7075
  0
VERTEX
  8
LAYER52
 62
     7
  6
CONTINUOUS
 10
35.2845
 20
25.7109
  0
VERTEX
  8
LAYER52
 62
     7
  6
CONTINUOUS
 10
35.2877
 20
25.7142
  0
VERTEX
  8
LAYER52
 62
     7
  6
CONTINUOUS
 10
35.2909
 20
25.7174
  0
VERTEX
  8
LAYER52
 62
     7
  6
CONTINUOUS
 10
35.2942
 20
25.7206
  0
VERTEX
  8
LAYER52
 62
     7
  6
CONTINUOUS
 10
35.2974
 20
25.7238
  0
VERTEX
  8
LAYER52
 62
     7
  6
CONTINUOUS
 10
35.3007
 20
25.7269
  0
SEQEND
  8
LAYER52
  0
POLYLINE
  8
LAYER52
 62
     7
 66
     1
  6
CONTINUOUS
  0
VERTEX
  8
LAYER52
 62
     7
  6
CONTINUOUS
 10
35.3007
 20
25.7269
  0
VERTEX
  8
LAYER52
 62
     7
  6
CONTINUOUS
 10
35.3007
 20
25.7269
  0
VERTEX
  8
LAYER52
 62
     7
  6
CONTINUOUS
 10
35.3007
 20
25.7269
  0
VERTEX
  8
LAYER52
 62
     7
  6
CONTINUOUS
 10
35.3007
 20
25.7269
  0
VERTEX
  8
LAYER52
 62
     7
  6
CONTINUOUS
 10
35.3007
 20
25.7269
  0
VERTEX
  8
LAYER52
 62
     7
  6
CONTINUOUS
 10
35.3007
 20
25.7269
  0
VERTEX
  8
LAYER52
 62
     7
  6
CONTINUOUS
 10
35.3007
 20
25.7269
  0
VERTEX
  8
LAYER52
 62
     7
  6
CONTINUOUS
 10
35.3007
 20
25.7269
  0
VERTEX
  8
LAYER52
 62
     7
  6
CONTINUOUS
 10
35.3007
 20
25.7269
  0
VERTEX
  8
LAYER52
 62
     7
  6
CONTINUOUS
 10
35.3007
 20
25.7269
  0
VERTEX
  8
LAYER52
 62
     7
  6
CONTINUOUS
 10
35.3007
 20
25.7269
  0
VERTEX
  8
LAYER52
 62
     7
  6
CONTINUOUS
 10
35.3007
 20
25.7269
  0
VERTEX
  8
LAYER52
 62
     7
  6
CONTINUOUS
 10
35.3007
 20
25.7269
  0
VERTEX
  8
LAYER52
 62
     7
  6
CONTINUOUS
 10
35.3007
 20
25.7269
  0
VERTEX
  8
LAYER52
 62
     7
  6
CONTINUOUS
 10
35.3007
 20
25.7269
  0
VERTEX
  8
LAYER52
 62
     7
  6
CONTINUOUS
 10
35.3007
 20
25.7269
  0
VERTEX
  8
LAYER52
 62
     7
  6
CONTINUOUS
 10
35.3007
 20
25.7269
  0
VERTEX
  8
LAYER52
 62
     7
  6
CONTINUOUS
 10
35.3007
 20
25.7269
  0
VERTEX
  8
LAYER52
 62
     7
  6
CONTINUOUS
 10
35.3007
 20
25.7269
  0
VERTEX
  8
LAYER52
 62
     7
  6
CONTINUOUS
 10
35.3007
 20
25.7269
  0
VERTEX
  8
LAYER52
 62
     7
  6
CONTINUOUS
 10
35.3007
 20
25.7269
  0
VERTEX
  8
LAYER52
 62
     7
  6
CONTINUOUS
 10
35.3007
 20
25.7269
  0
VERTEX
  8
LAYER52
 62
     7
  6
CONTINUOUS
 10
35.3007
 20
25.7269
  0
VERTEX
  8
LAYER52
 62
     7
  6
CONTINUOUS
 10
35.3007
 20
25.7269
  0
VERTEX
  8
LAYER52
 62
     7
  6
CONTINUOUS
 10
35.3007
 20
25.7269
  0
SEQEND
  8
LAYER52
  0
POLYLINE
  8
LAYER52
 62
     7
 66
     1
  6
CONTINUOUS
  0
VERTEX
  8
LAYER52
 62
     7
  6
CONTINUOUS
 10
35.3007
 20
25.7269
  0
VERTEX
  8
LAYER52
 62
     7
  6
CONTINUOUS
 10
35.3007
 20
25.7269
  0
VERTEX
  8
LAYER52
 62
     7
  6
CONTINUOUS
 10
35.3007
 20
25.7269
  0
VERTEX
  8
LAYER52
 62
     7
  6
CONTINUOUS
 10
35.3007
 20
25.7269
  0
VERTEX
  8
LAYER52
 62
     7
  6
CONTINUOUS
 10
35.3007
 20
25.7269
  0
VERTEX
  8
LAYER52
 62
     7
  6
CONTINUOUS
 10
35.3008
 20
25.7269
  0
VERTEX
  8
LAYER52
 62
     7
  6
CONTINUOUS
 10
35.3008
 20
25.7269
  0
VERTEX
  8
LAYER52
 62
     7
  6
CONTINUOUS
 10
35.3008
 20
25.7269
  0
VERTEX
  8
LAYER52
 62
     7
  6
CONTINUOUS
 10
35.3008
 20
25.7269
  0
VERTEX
  8
LAYER52
 62
     7
  6
CONTINUOUS
 10
35.3008
 20
25.7269
  0
VERTEX
  8
LAYER52
 62
     7
  6
CONTINUOUS
 10
35.3007
 20
25.7269
  0
VERTEX
  8
LAYER52
 62
     7
  6
CONTINUOUS
 10
35.3007
 20
25.7269
  0
VERTEX
  8
LAYER52
 62
     7
  6
CONTINUOUS
 10
35.3007
 20
25.7269
  0
VERTEX
  8
LAYER52
 62
     7
  6
CONTINUOUS
 10
35.3006
 20
25.7269
  0
VERTEX
  8
LAYER52
 62
     7
  6
CONTINUOUS
 10
35.3006
 20
25.7269
  0
VERTEX
  8
LAYER52
 62
     7
  6
CONTINUOUS
 10
35.3005
 20
25.7269
  0
VERTEX
  8
LAYER52
 62
     7
  6
CONTINUOUS
 10
35.3005
 20
25.7269
  0
VERTEX
  8
LAYER52
 62
     7
  6
CONTINUOUS
 10
35.3004
 20
25.7269
  0
VERTEX
  8
LAYER52
 62
     7
  6
CONTINUOUS
 10
35.3004
 20
25.7269
  0
VERTEX
  8
LAYER52
 62
     7
  6
CONTINUOUS
 10
35.3004
 20
25.7269
  0
VERTEX
  8
LAYER52
 62
     7
  6
CONTINUOUS
 10
35.3004
 20
25.7269
  0
VERTEX
  8
LAYER52
 62
     7
  6
CONTINUOUS
 10
35.3004
 20
25.7269
  0
VERTEX
  8
LAYER52
 62
     7
  6
CONTINUOUS
 10
35.3005
 20
25.7269
  0
VERTEX
  8
LAYER52
 62
     7
  6
CONTINUOUS
 10
35.3005
 20
25.7269
  0
VERTEX
  8
LAYER52
 62
     7
  6
CONTINUOUS
 10
35.3007
 20
25.7269
  0
VERTEX
  8
LAYER52
 62
     7
  6
CONTINUOUS
 10
35.3022
 20
25.7270
  0
VERTEX
  8
LAYER52
 62
     7
  6
CONTINUOUS
 10
35.3051
 20
25.7271
  0
VERTEX
  8
LAYER52
 62
     7
  6
CONTINUOUS
 10
35.3092
 20
25.7271
  0
VERTEX
  8
LAYER52
 62
     7
  6
CONTINUOUS
 10
35.3142
 20
25.7271
  0
VERTEX
  8
LAYER52
 62
     7
  6
CONTINUOUS
 10
35.3202
 20
25.7268
  0
VERTEX
  8
LAYER52
 62
     7
  6
CONTINUOUS
 10
35.3268
 20
25.7263
  0
VERTEX
  8
LAYER52
 62
     7
  6
CONTINUOUS
 10
35.3340
 20
25.7255
  0
VERTEX
  8
LAYER52
 62
     7
  6
CONTINUOUS
 10
35.3416
 20
25.7243
  0
VERTEX
  8
LAYER52
 62
     7
  6
CONTINUOUS
 10
35.3495
 20
25.7227
  0
VERTEX
  8
LAYER52
 62
     7
  6
CONTINUOUS
 10
35.3575
 20
25.7205
  0
VERTEX
  8
LAYER52
 62
     7
  6
CONTINUOUS
 10
35.3654
 20
25.7177
  0
VERTEX
  8
LAYER52
 62
     7
  6
CONTINUOUS
 10
35.3732
 20
25.7143
  0
VERTEX
  8
LAYER52
 62
     7
  6
CONTINUOUS
 10
35.3817
 20
25.7095
  0
VERTEX
  8
LAYER52
 62
     7
  6
CONTINUOUS
 10
35.3898
 20
25.7040
  0
VERTEX
  8
LAYER52
 62
     7
  6
CONTINUOUS
 10
35.3973
 20
25.6979
  0
VERTEX
  8
LAYER52
 62
     7
  6
CONTINUOUS
 10
35.4043
 20
25.6915
  0
VERTEX
  8
LAYER52
 62
     7
  6
CONTINUOUS
 10
35.4106
 20
25.6850
  0
VERTEX
  8
LAYER52
 62
     7
  6
CONTINUOUS
 10
35.4162
 20
25.6785
  0
VERTEX
  8
LAYER52
 62
     7
  6
CONTINUOUS
 10
35.4212
 20
25.6725
  0
VERTEX
  8
LAYER52
 62
     7
  6
CONTINUOUS
 10
35.4253
 20
25.6669
  0
VERTEX
  8
LAYER52
 62
     7
  6
CONTINUOUS
 10
35.4286
 20
25.6621
  0
VERTEX
  8
LAYER52
 62
     7
  6
CONTINUOUS
 10
35.4311
 20
25.6583
  0
VERTEX
  8
LAYER52
 62
     7
  6
CONTINUOUS
 10
35.4327
 20
25.6556
  0
VERTEX
  8
LAYER52
 62
     7
  6
CONTINUOUS
 10
35.4333
 20
25.6544
  0
VERTEX
  8
LAYER52
 62
     7
  6
CONTINUOUS
 10
35.4333
 20
25.6543
  0
VERTEX
  8
LAYER52
 62
     7
  6
CONTINUOUS
 10
35.4333
 20
25.6543
  0
VERTEX
  8
LAYER52
 62
     7
  6
CONTINUOUS
 10
35.4332
 20
25.6543
  0
VERTEX
  8
LAYER52
 62
     7
  6
CONTINUOUS
 10
35.4332
 20
25.6543
  0
VERTEX
  8
LAYER52
 62
     7
  6
CONTINUOUS
 10
35.4332
 20
25.6543
  0
VERTEX
  8
LAYER52
 62
     7
  6
CONTINUOUS
 10
35.4332
 20
25.6543
  0
VERTEX
  8
LAYER52
 62
     7
  6
CONTINUOUS
 10
35.4331
 20
25.6544
  0
VERTEX
  8
LAYER52
 62
     7
  6
CONTINUOUS
 10
35.4331
 20
25.6544
  0
VERTEX
  8
LAYER52
 62
     7
  6
CONTINUOUS
 10
35.4331
 20
25.6544
  0
VERTEX
  8
LAYER52
 62
     7
  6
CONTINUOUS
 10
35.4331
 20
25.6544
  0
VERTEX
  8
LAYER52
 62
     7
  6
CONTINUOUS
 10
35.4332
 20
25.6544
  0
VERTEX
  8
LAYER52
 62
     7
  6
CONTINUOUS
 10
35.4333
 20
25.6544
  0
VERTEX
  8
LAYER52
 62
     7
  6
CONTINUOUS
 10
35.4341
 20
25.6537
  0
VERTEX
  8
LAYER52
 62
     7
  6
CONTINUOUS
 10
35.4357
 20
25.6523
  0
VERTEX
  8
LAYER52
 62
     7
  6
CONTINUOUS
 10
35.4379
 20
25.6504
  0
VERTEX
  8
LAYER52
 62
     7
  6
CONTINUOUS
 10
35.4407
 20
25.6478
  0
VERTEX
  8
LAYER52
 62
     7
  6
CONTINUOUS
 10
35.4440
 20
25.6448
  0
VERTEX
  8
LAYER52
 62
     7
  6
CONTINUOUS
 10
35.4478
 20
25.6413
  0
VERTEX
  8
LAYER52
 62
     7
  6
CONTINUOUS
 10
35.4520
 20
25.6374
  0
VERTEX
  8
LAYER52
 62
     7
  6
CONTINUOUS
 10
35.4566
 20
25.6332
  0
VERTEX
  8
LAYER52
 62
     7
  6
CONTINUOUS
 10
35.4614
 20
25.6287
  0
VERTEX
  8
LAYER52
 62
     7
  6
CONTINUOUS
 10
35.4663
 20
25.6240
  0
VERTEX
  8
LAYER52
 62
     7
  6
CONTINUOUS
 10
35.4715
 20
25.6191
  0
VERTEX
  8
LAYER52
 62
     7
  6
CONTINUOUS
 10
35.4767
 20
25.6142
  0
VERTEX
  8
LAYER52
 62
     7
  6
CONTINUOUS
 10
35.4831
 20
25.6080
  0
VERTEX
  8
LAYER52
 62
     7
  6
CONTINUOUS
 10
35.4895
 20
25.6018
  0
VERTEX
  8
LAYER52
 62
     7
  6
CONTINUOUS
 10
35.4958
 20
25.5957
  0
VERTEX
  8
LAYER52
 62
     7
  6
CONTINUOUS
 10
35.5017
 20
25.5899
  0
VERTEX
  8
LAYER52
 62
     7
  6
CONTINUOUS
 10
35.5073
 20
25.5843
  0
VERTEX
  8
LAYER52
 62
     7
  6
CONTINUOUS
 10
35.5125
 20
25.5792
  0
VERTEX
  8
LAYER52
 62
     7
  6
CONTINUOUS
 10
35.5171
 20
25.5746
  0
VERTEX
  8
LAYER52
 62
     7
  6
CONTINUOUS
 10
35.5211
 20
25.5705
  0
VERTEX
  8
LAYER52
 62
     7
  6
CONTINUOUS
 10
35.5243
 20
25.5671
  0
VERTEX
  8
LAYER52
 62
     7
  6
CONTINUOUS
 10
35.5267
 20
25.5645
  0
VERTEX
  8
LAYER52
 62
     7
  6
CONTINUOUS
 10
35.5283
 20
25.5627
  0
VERTEX
  8
LAYER52
 62
     7
  6
CONTINUOUS
 10
35.5288
 20
25.5618
  0
VERTEX
  8
LAYER52
 62
     7
  6
CONTINUOUS
 10
35.5288
 20
25.5618
  0
VERTEX
  8
LAYER52
 62
     7
  6
CONTINUOUS
 10
35.5288
 20
25.5617
  0
VERTEX
  8
LAYER52
 62
     7
  6
CONTINUOUS
 10
35.5287
 20
25.5617
  0
VERTEX
  8
LAYER52
 62
     7
  6
CONTINUOUS
 10
35.5286
 20
25.5617
  0
VERTEX
  8
LAYER52
 62
     7
  6
CONTINUOUS
 10
35.5286
 20
25.5618
  0
VERTEX
  8
LAYER52
 62
     7
  6
CONTINUOUS
 10
35.5285
 20
25.5618
  0
VERTEX
  8
LAYER52
 62
     7
  6
CONTINUOUS
 10
35.5285
 20
25.5618
  0
VERTEX
  8
LAYER52
 62
     7
  6
CONTINUOUS
 10
35.5285
 20
25.5618
  0
VERTEX
  8
LAYER52
 62
     7
  6
CONTINUOUS
 10
35.5285
 20
25.5619
  0
VERTEX
  8
LAYER52
 62
     7
  6
CONTINUOUS
 10
35.5286
 20
25.5619
  0
VERTEX
  8
LAYER52
 62
     7
  6
CONTINUOUS
 10
35.5287
 20
25.5618
  0
VERTEX
  8
LAYER52
 62
     7
  6
CONTINUOUS
 10
35.5288
 20
25.5618
  0
VERTEX
  8
LAYER52
 62
     7
  6
CONTINUOUS
 10
35.5308
 20
25.5611
  0
VERTEX
  8
LAYER52
 62
     7
  6
CONTINUOUS
 10
35.5345
 20
25.5596
  0
VERTEX
  8
LAYER52
 62
     7
  6
CONTINUOUS
 10
35.5396
 20
25.5577
  0
VERTEX
  8
LAYER52
 62
     7
  6
CONTINUOUS
 10
35.5458
 20
25.5554
  0
VERTEX
  8
LAYER52
 62
     7
  6
CONTINUOUS
 10
35.5528
 20
25.5530
  0
VERTEX
  8
LAYER52
 62
     7
  6
CONTINUOUS
 10
35.5603
 20
25.5506
  0
VERTEX
  8
LAYER52
 62
     7
  6
CONTINUOUS
 10
35.5680
 20
25.5485
  0
VERTEX
  8
LAYER52
 62
     7
  6
CONTINUOUS
 10
35.5756
 20
25.5469
  0
VERTEX
  8
LAYER52
 62
     7
  6
CONTINUOUS
 10
35.5827
 20
25.5458
  0
VERTEX
  8
LAYER52
 62
     7
  6
CONTINUOUS
 10
35.5891
 20
25.5456
  0
VERTEX
  8
LAYER52
 62
     7
  6
CONTINUOUS
 10
35.5946
 20
25.5464
  0
VERTEX
  8
LAYER52
 62
     7
  6
CONTINUOUS
 10
35.5986
 20
25.5485
  0
VERTEX
  8
LAYER52
 62
     7
  6
CONTINUOUS
 10
35.6012
 20
25.5518
  0
VERTEX
  8
LAYER52
 62
     7
  6
CONTINUOUS
 10
35.6024
 20
25.5563
  0
VERTEX
  8
LAYER52
 62
     7
  6
CONTINUOUS
 10
35.6025
 20
25.5617
  0
VERTEX
  8
LAYER52
 62
     7
  6
CONTINUOUS
 10
35.6018
 20
25.5678
  0
VERTEX
  8
LAYER52
 62
     7
  6
CONTINUOUS
 10
35.6006
 20
25.5745
  0
VERTEX
  8
LAYER52
 62
     7
  6
CONTINUOUS
 10
35.5991
 20
25.5815
  0
VERTEX
  8
LAYER52
 62
     7
  6
CONTINUOUS
 10
35.5975
 20
25.5886
  0
VERTEX
  8
LAYER52
 62
     7
  6
CONTINUOUS
 10
35.5962
 20
25.5956
  0
VERTEX
  8
LAYER52
 62
     7
  6
CONTINUOUS
 10
35.5953
 20
25.6023
  0
VERTEX
  8
LAYER52
 62
     7
  6
CONTINUOUS
 10
35.5952
 20
25.6085
  0
VERTEX
  8
LAYER52
 62
     7
  6
CONTINUOUS
 10
35.5961
 20
25.6140
  0
VERTEX
  8
LAYER52
 62
     7
  6
CONTINUOUS
 10
35.5981
 20
25.6185
  0
VERTEX
  8
LAYER52
 62
     7
  6
CONTINUOUS
 10
35.6001
 20
25.6207
  0
VERTEX
  8
LAYER52
 62
     7
  6
CONTINUOUS
 10
35.6025
 20
25.6224
  0
VERTEX
  8
LAYER52
 62
     7
  6
CONTINUOUS
 10
35.6053
 20
25.6238
  0
VERTEX
  8
LAYER52
 62
     7
  6
CONTINUOUS
 10
35.6085
 20
25.6248
  0
VERTEX
  8
LAYER52
 62
     7
  6
CONTINUOUS
 10
35.6120
 20
25.6254
  0
VERTEX
  8
LAYER52
 62
     7
  6
CONTINUOUS
 10
35.6157
 20
25.6256
  0
VERTEX
  8
LAYER52
 62
     7
  6
CONTINUOUS
 10
35.6197
 20
25.6254
  0
VERTEX
  8
LAYER52
 62
     7
  6
CONTINUOUS
 10
35.6237
 20
25.6248
  0
VERTEX
  8
LAYER52
 62
     7
  6
CONTINUOUS
 10
35.6278
 20
25.6239
  0
VERTEX
  8
LAYER52
 62
     7
  6
CONTINUOUS
 10
35.6320
 20
25.6225
  0
VERTEX
  8
LAYER52
 62
     7
  6
CONTINUOUS
 10
35.6360
 20
25.6209
  0
VERTEX
  8
LAYER52
 62
     7
  6
CONTINUOUS
 10
35.6400
 20
25.6188
  0
VERTEX
  8
LAYER52
 62
     7
  6
CONTINUOUS
 10
35.6463
 20
25.6146
  0
VERTEX
  8
LAYER52
 62
     7
  6
CONTINUOUS
 10
35.6521
 20
25.6096
  0
VERTEX
  8
LAYER52
 62
     7
  6
CONTINUOUS
 10
35.6575
 20
25.6040
  0
VERTEX
  8
LAYER52
 62
     7
  6
CONTINUOUS
 10
35.6623
 20
25.5981
  0
VERTEX
  8
LAYER52
 62
     7
  6
CONTINUOUS
 10
35.6667
 20
25.5920
  0
VERTEX
  8
LAYER52
 62
     7
  6
CONTINUOUS
 10
35.6705
 20
25.5860
  0
VERTEX
  8
LAYER52
 62
     7
  6
CONTINUOUS
 10
35.6739
 20
25.5802
  0
VERTEX
  8
LAYER52
 62
     7
  6
CONTINUOUS
 10
35.6767
 20
25.5750
  0
VERTEX
  8
LAYER52
 62
     7
  6
CONTINUOUS
 10
35.6790
 20
25.5704
  0
VERTEX
  8
LAYER52
 62
     7
  6
CONTINUOUS
 10
35.6807
 20
25.5668
  0
VERTEX
  8
LAYER52
 62
     7
  6
CONTINUOUS
 10
35.6819
 20
25.5644
  0
VERTEX
  8
LAYER52
 62
     7
  6
CONTINUOUS
 10
35.6825
 20
25.5633
  0
VERTEX
  8
LAYER52
 62
     7
  6
CONTINUOUS
 10
35.6825
 20
25.5632
  0
VERTEX
  8
LAYER52
 62
     7
  6
CONTINUOUS
 10
35.6826
 20
25.5633
  0
VERTEX
  8
LAYER52
 62
     7
  6
CONTINUOUS
 10
35.6826
 20
25.5633
  0
VERTEX
  8
LAYER52
 62
     7
  6
CONTINUOUS
 10
35.6826
 20
25.5633
  0
VERTEX
  8
LAYER52
 62
     7
  6
CONTINUOUS
 10
35.6826
 20
25.5634
  0
VERTEX
  8
LAYER52
 62
     7
  6
CONTINUOUS
 10
35.6826
 20
25.5635
  0
VERTEX
  8
LAYER52
 62
     7
  6
CONTINUOUS
 10
35.6826
 20
25.5635
  0
VERTEX
  8
LAYER52
 62
     7
  6
CONTINUOUS
 10
35.6826
 20
25.5636
  0
VERTEX
  8
LAYER52
 62
     7
  6
CONTINUOUS
 10
35.6826
 20
25.5636
  0
VERTEX
  8
LAYER52
 62
     7
  6
CONTINUOUS
 10
35.6825
 20
25.5635
  0
VERTEX
  8
LAYER52
 62
     7
  6
CONTINUOUS
 10
35.6825
 20
25.5634
  0
VERTEX
  8
LAYER52
 62
     7
  6
CONTINUOUS
 10
35.6825
 20
25.5633
  0
VERTEX
  8
LAYER52
 62
     7
  6
CONTINUOUS
 10
35.6825
 20
25.5622
  0
VERTEX
  8
LAYER52
 62
     7
  6
CONTINUOUS
 10
35.6826
 20
25.5604
  0
VERTEX
  8
LAYER52
 62
     7
  6
CONTINUOUS
 10
35.6829
 20
25.5579
  0
VERTEX
  8
LAYER52
 62
     7
  6
CONTINUOUS
 10
35.6833
 20
25.5548
  0
VERTEX
  8
LAYER52
 62
     7
  6
CONTINUOUS
 10
35.6840
 20
25.5512
  0
VERTEX
  8
LAYER52
 62
     7
  6
CONTINUOUS
 10
35.6849
 20
25.5473
  0
VERTEX
  8
LAYER52
 62
     7
  6
CONTINUOUS
 10
35.6860
 20
25.5431
  0
VERTEX
  8
LAYER52
 62
     7
  6
CONTINUOUS
 10
35.6875
 20
25.5387
  0
VERTEX
  8
LAYER52
 62
     7
  6
CONTINUOUS
 10
35.6893
 20
25.5343
  0
VERTEX
  8
LAYER52
 62
     7
  6
CONTINUOUS
 10
35.6915
 20
25.5298
  0
VERTEX
  8
LAYER52
 62
     7
  6
CONTINUOUS
 10
35.6940
 20
25.5255
  0
VERTEX
  8
LAYER52
 62
     7
  6
CONTINUOUS
 10
35.6970
 20
25.5214
  0
VERTEX
  8
LAYER52
 62
     7
  6
CONTINUOUS
 10
35.7020
 20
25.5162
  0
VERTEX
  8
LAYER52
 62
     7
  6
CONTINUOUS
 10
35.7077
 20
25.5116
  0
VERTEX
  8
LAYER52
 62
     7
  6
CONTINUOUS
 10
35.7138
 20
25.5076
  0
VERTEX
  8
LAYER52
 62
     7
  6
CONTINUOUS
 10
35.7202
 20
25.5041
  0
VERTEX
  8
LAYER52
 62
     7
  6
CONTINUOUS
 10
35.7266
 20
25.5012
  0
VERTEX
  8
LAYER52
 62
     7
  6
CONTINUOUS
 10
35.7329
 20
25.4988
  0
VERTEX
  8
LAYER52
 62
     7
  6
CONTINUOUS
 10
35.7386
 20
25.4969
  0
VERTEX
  8
LAYER52
 62
     7
  6
CONTINUOUS
 10
35.7438
 20
25.4955
  0
VERTEX
  8
LAYER52
 62
     7
  6
CONTINUOUS
 10
35.7480
 20
25.4945
  0
VERTEX
  8
LAYER52
 62
     7
  6
CONTINUOUS
 10
35.7512
 20
25.4940
  0
VERTEX
  8
LAYER52
 62
     7
  6
CONTINUOUS
 10
35.7530
 20
25.4938
  0
VERTEX
  8
LAYER52
 62
     7
  6
CONTINUOUS
 10
35.7533
 20
25.4940
  0
VERTEX
  8
LAYER52
 62
     7
  6
CONTINUOUS
 10
35.7532
 20
25.4940
  0
VERTEX
  8
LAYER52
 62
     7
  6
CONTINUOUS
 10
35.7530
 20
25.4941
  0
VERTEX
  8
LAYER52
 62
     7
  6
CONTINUOUS
 10
35.7527
 20
25.4942
  0
VERTEX
  8
LAYER52
 62
     7
  6
CONTINUOUS
 10
35.7525
 20
25.4943
  0
VERTEX
  8
LAYER52
 62
     7
  6
CONTINUOUS
 10
35.7523
 20
25.4944
  0
VERTEX
  8
LAYER52
 62
     7
  6
CONTINUOUS
 10
35.7521
 20
25.4944
  0
VERTEX
  8
LAYER52
 62
     7
  6
CONTINUOUS
 10
35.7520
 20
25.4944
  0
VERTEX
  8
LAYER52
 62
     7
  6
CONTINUOUS
 10
35.7520
 20
25.4944
  0
VERTEX
  8
LAYER52
 62
     7
  6
CONTINUOUS
 10
35.7521
 20
25.4944
  0
VERTEX
  8
LAYER52
 62
     7
  6
CONTINUOUS
 10
35.7524
 20
25.4943
  0
VERTEX
  8
LAYER52
 62
     7
  6
CONTINUOUS
 10
35.7527
 20
25.4942
  0
VERTEX
  8
LAYER52
 62
     7
  6
CONTINUOUS
 10
35.7533
 20
25.4940
  0
VERTEX
  8
LAYER52
 62
     7
  6
CONTINUOUS
 10
35.7536
 20
25.4939
  0
VERTEX
  8
LAYER52
 62
     7
  6
CONTINUOUS
 10
35.7539
 20
25.4938
  0
VERTEX
  8
LAYER52
 62
     7
  6
CONTINUOUS
 10
35.7543
 20
25.4937
  0
VERTEX
  8
LAYER52
 62
     7
  6
CONTINUOUS
 10
35.7547
 20
25.4935
  0
VERTEX
  8
LAYER52
 62
     7
  6
CONTINUOUS
 10
35.7551
 20
25.4934
  0
VERTEX
  8
LAYER52
 62
     7
  6
CONTINUOUS
 10
35.7555
 20
25.4933
  0
VERTEX
  8
LAYER52
 62
     7
  6
CONTINUOUS
 10
35.7559
 20
25.4931
  0
VERTEX
  8
LAYER52
 62
     7
  6
CONTINUOUS
 10
35.7564
 20
25.4930
  0
VERTEX
  8
LAYER52
 62
     7
  6
CONTINUOUS
 10
35.7569
 20
25.4928
  0
VERTEX
  8
LAYER52
 62
     7
  6
CONTINUOUS
 10
35.7573
 20
25.4927
  0
VERTEX
  8
LAYER52
 62
     7
  6
CONTINUOUS
 10
35.7578
 20
25.4925
  0
VERTEX
  8
LAYER52
 62
     7
  6
CONTINUOUS
 10
35.7583
 20
25.4923
  0
SEQEND
  8
LAYER52
  0
POLYLINE
  8
LAYER52
 62
     7
 66
     1
  6
CONTINUOUS
  0
VERTEX
  8
LAYER52
 62
     7
  6
CONTINUOUS
 10
35.7583
 20
25.4923
  0
VERTEX
  8
LAYER52
 62
     7
  6
CONTINUOUS
 10
35.7616
 20
25.4917
  0
VERTEX
  8
LAYER52
 62
     7
  6
CONTINUOUS
 10
35.7649
 20
25.4910
  0
VERTEX
  8
LAYER52
 62
     7
  6
CONTINUOUS
 10
35.7682
 20
25.4903
  0
VERTEX
  8
LAYER52
 62
     7
  6
CONTINUOUS
 10
35.7715
 20
25.4896
  0
VERTEX
  8
LAYER52
 62
     7
  6
CONTINUOUS
 10
35.7747
 20
25.4888
  0
VERTEX
  8
LAYER52
 62
     7
  6
CONTINUOUS
 10
35.7779
 20
25.4879
  0
VERTEX
  8
LAYER52
 62
     7
  6
CONTINUOUS
 10
35.7810
 20
25.4869
  0
VERTEX
  8
LAYER52
 62
     7
  6
CONTINUOUS
 10
35.7841
 20
25.4859
  0
VERTEX
  8
LAYER52
 62
     7
  6
CONTINUOUS
 10
35.7870
 20
25.4847
  0
VERTEX
  8
LAYER52
 62
     7
  6
CONTINUOUS
 10
35.7899
 20
25.4834
  0
VERTEX
  8
LAYER52
 62
     7
  6
CONTINUOUS
 10
35.7926
 20
25.4820
  0
VERTEX
  8
LAYER52
 62
     7
  6
CONTINUOUS
 10
35.7953
 20
25.4804
  0
VERTEX
  8
LAYER52
 62
     7
  6
CONTINUOUS
 10
35.7997
 20
25.4771
  0
VERTEX
  8
LAYER52
 62
     7
  6
CONTINUOUS
 10
35.8039
 20
25.4733
  0
VERTEX
  8
LAYER52
 62
     7
  6
CONTINUOUS
 10
35.8077
 20
25.4692
  0
VERTEX
  8
LAYER52
 62
     7
  6
CONTINUOUS
 10
35.8112
 20
25.4647
  0
VERTEX
  8
LAYER52
 62
     7
  6
CONTINUOUS
 10
35.8146
 20
25.4599
  0
VERTEX
  8
LAYER52
 62
     7
  6
CONTINUOUS
 10
35.8179
 20
25.4549
  0
VERTEX
  8
LAYER52
 62
     7
  6
CONTINUOUS
 10
35.8211
 20
25.4498
  0
VERTEX
  8
LAYER52
 62
     7
  6
CONTINUOUS
 10
35.8242
 20
25.4446
  0
VERTEX
  8
LAYER52
 62
     7
  6
CONTINUOUS
 10
35.8274
 20
25.4395
  0
VERTEX
  8
LAYER52
 62
     7
  6
CONTINUOUS
 10
35.8307
 20
25.4344
  0
VERTEX
  8
LAYER52
 62
     7
  6
CONTINUOUS
 10
35.8341
 20
25.4295
  0
VERTEX
  8
LAYER52
 62
     7
  6
CONTINUOUS
 10
35.8378
 20
25.4248
  0
VERTEX
  8
LAYER52
 62
     7
  6
CONTINUOUS
 10
35.8410
 20
25.4210
  0
VERTEX
  8
LAYER52
 62
     7
  6
CONTINUOUS
 10
35.8444
 20
25.4174
  0
VERTEX
  8
LAYER52
 62
     7
  6
CONTINUOUS
 10
35.8480
 20
25.4140
  0
VERTEX
  8
LAYER52
 62
     7
  6
CONTINUOUS
 10
35.8516
 20
25.4106
  0
VERTEX
  8
LAYER52
 62
     7
  6
CONTINUOUS
 10
35.8553
 20
25.4073
  0
VERTEX
  8
LAYER52
 62
     7
  6
CONTINUOUS
 10
35.8590
 20
25.4041
  0
VERTEX
  8
LAYER52
 62
     7
  6
CONTINUOUS
 10
35.8628
 20
25.4008
  0
VERTEX
  8
LAYER52
 62
     7
  6
CONTINUOUS
 10
35.8665
 20
25.3975
  0
VERTEX
  8
LAYER52
 62
     7
  6
CONTINUOUS
 10
35.8701
 20
25.3941
  0
VERTEX
  8
LAYER52
 62
     7
  6
CONTINUOUS
 10
35.8737
 20
25.3907
  0
VERTEX
  8
LAYER52
 62
     7
  6
CONTINUOUS
 10
35.8771
 20
25.3870
  0
VERTEX
  8
LAYER52
 62
     7
  6
CONTINUOUS
 10
35.8804
 20
25.3832
  0
VERTEX
  8
LAYER52
 62
     7
  6
CONTINUOUS
 10
35.8840
 20
25.3785
  0
VERTEX
  8
LAYER52
 62
     7
  6
CONTINUOUS
 10
35.8875
 20
25.3735
  0
VERTEX
  8
LAYER52
 62
     7
  6
CONTINUOUS
 10
35.8908
 20
25.3684
  0
VERTEX
  8
LAYER52
 62
     7
  6
CONTINUOUS
 10
35.8940
 20
25.3632
  0
VERTEX
  8
LAYER52
 62
     7
  6
CONTINUOUS
 10
35.8972
 20
25.3581
  0
VERTEX
  8
LAYER52
 62
     7
  6
CONTINUOUS
 10
35.9004
 20
25.3529
  0
VERTEX
  8
LAYER52
 62
     7
  6
CONTINUOUS
 10
35.9036
 20
25.3479
  0
VERTEX
  8
LAYER52
 62
     7
  6
CONTINUOUS
 10
35.9070
 20
25.3432
  0
VERTEX
  8
LAYER52
 62
     7
  6
CONTINUOUS
 10
35.9105
 20
25.3387
  0
VERTEX
  8
LAYER52
 62
     7
  6
CONTINUOUS
 10
35.9143
 20
25.3345
  0
VERTEX
  8
LAYER52
 62
     7
  6
CONTINUOUS
 10
35.9184
 20
25.3308
  0
VERTEX
  8
LAYER52
 62
     7
  6
CONTINUOUS
 10
35.9227
 20
25.3277
  0
VERTEX
  8
LAYER52
 62
     7
  6
CONTINUOUS
 10
35.9263
 20
25.3256
  0
VERTEX
  8
LAYER52
 62
     7
  6
CONTINUOUS
 10
35.9302
 20
25.3238
  0
VERTEX
  8
LAYER52
 62
     7
  6
CONTINUOUS
 10
35.9342
 20
25.3223
  0
VERTEX
  8
LAYER52
 62
     7
  6
CONTINUOUS
 10
35.9384
 20
25.3211
  0
VERTEX
  8
LAYER52
 62
     7
  6
CONTINUOUS
 10
35.9427
 20
25.3201
  0
VERTEX
  8
LAYER52
 62
     7
  6
CONTINUOUS
 10
35.9472
 20
25.3193
  0
VERTEX
  8
LAYER52
 62
     7
  6
CONTINUOUS
 10
35.9518
 20
25.3187
  0
VERTEX
  8
LAYER52
 62
     7
  6
CONTINUOUS
 10
35.9564
 20
25.3182
  0
VERTEX
  8
LAYER52
 62
     7
  6
CONTINUOUS
 10
35.9612
 20
25.3179
  0
VERTEX
  8
LAYER52
 62
     7
  6
CONTINUOUS
 10
35.9660
 20
25.3176
  0
VERTEX
  8
LAYER52
 62
     7
  6
CONTINUOUS
 10
35.9708
 20
25.3174
  0
VERTEX
  8
LAYER52
 62
     7
  6
CONTINUOUS
 10
35.9757
 20
25.3172
  0
SEQEND
  8
LAYER52
  0
POLYLINE
  8
LAYER52
 62
     7
 66
     1
  6
CONTINUOUS
  0
VERTEX
  8
LAYER52
 62
     7
  6
CONTINUOUS
 10
35.7183
 20
25.3172
  0
VERTEX
  8
LAYER52
 62
     7
  6
CONTINUOUS
 10
35.7154
 20
25.3190
  0
VERTEX
  8
LAYER52
 62
     7
  6
CONTINUOUS
 10
35.7125
 20
25.3207
  0
VERTEX
  8
LAYER52
 62
     7
  6
CONTINUOUS
 10
35.7097
 20
25.3224
  0
VERTEX
  8
LAYER52
 62
     7
  6
CONTINUOUS
 10
35.7068
 20
25.3242
  0
VERTEX
  8
LAYER52
 62
     7
  6
CONTINUOUS
 10
35.7039
 20
25.3260
  0
VERTEX
  8
LAYER52
 62
     7
  6
CONTINUOUS
 10
35.7011
 20
25.3278
  0
VERTEX
  8
LAYER52
 62
     7
  6
CONTINUOUS
 10
35.6983
 20
25.3296
  0
VERTEX
  8
LAYER52
 62
     7
  6
CONTINUOUS
 10
35.6955
 20
25.3315
  0
VERTEX
  8
LAYER52
 62
     7
  6
CONTINUOUS
 10
35.6927
 20
25.3334
  0
VERTEX
  8
LAYER52
 62
     7
  6
CONTINUOUS
 10
35.6900
 20
25.3353
  0
VERTEX
  8
LAYER52
 62
     7
  6
CONTINUOUS
 10
35.6873
 20
25.3373
  0
VERTEX
  8
LAYER52
 62
     7
  6
CONTINUOUS
 10
35.6847
 20
25.3394
  0
VERTEX
  8
LAYER52
 62
     7
  6
CONTINUOUS
 10
35.6822
 20
25.3415
  0
VERTEX
  8
LAYER52
 62
     7
  6
CONTINUOUS
 10
35.6797
 20
25.3436
  0
VERTEX
  8
LAYER52
 62
     7
  6
CONTINUOUS
 10
35.6772
 20
25.3457
  0
VERTEX
  8
LAYER52
 62
     7
  6
CONTINUOUS
 10
35.6748
 20
25.3480
  0
VERTEX
  8
LAYER52
 62
     7
  6
CONTINUOUS
 10
35.6724
 20
25.3502
  0
VERTEX
  8
LAYER52
 62
     7
  6
CONTINUOUS
 10
35.6701
 20
25.3525
  0
VERTEX
  8
LAYER52
 62
     7
  6
CONTINUOUS
 10
35.6678
 20
25.3549
  0
VERTEX
  8
LAYER52
 62
     7
  6
CONTINUOUS
 10
35.6655
 20
25.3573
  0
VERTEX
  8
LAYER52
 62
     7
  6
CONTINUOUS
 10
35.6632
 20
25.3597
  0
VERTEX
  8
LAYER52
 62
     7
  6
CONTINUOUS
 10
35.6610
 20
25.3621
  0
VERTEX
  8
LAYER52
 62
     7
  6
CONTINUOUS
 10
35.6587
 20
25.3646
  0
VERTEX
  8
LAYER52
 62
     7
  6
CONTINUOUS
 10
35.6565
 20
25.3671
  0
VERTEX
  8
LAYER52
 62
     7
  6
CONTINUOUS
 10
35.6510
 20
25.3735
  0
VERTEX
  8
LAYER52
 62
     7
  6
CONTINUOUS
 10
35.6455
 20
25.3799
  0
VERTEX
  8
LAYER52
 62
     7
  6
CONTINUOUS
 10
35.6400
 20
25.3864
  0
VERTEX
  8
LAYER52
 62
     7
  6
CONTINUOUS
 10
35.6345
 20
25.3928
  0
VERTEX
  8
LAYER52
 62
     7
  6
CONTINUOUS
 10
35.6290
 20
25.3991
  0
VERTEX
  8
LAYER52
 62
     7
  6
CONTINUOUS
 10
35.6233
 20
25.4053
  0
VERTEX
  8
LAYER52
 62
     7
  6
CONTINUOUS
 10
35.6175
 20
25.4113
  0
VERTEX
  8
LAYER52
 62
     7
  6
CONTINUOUS
 10
35.6116
 20
25.4171
  0
VERTEX
  8
LAYER52
 62
     7
  6
CONTINUOUS
 10
35.6055
 20
25.4225
  0
VERTEX
  8
LAYER52
 62
     7
  6
CONTINUOUS
 10
35.5992
 20
25.4276
  0
VERTEX
  8
LAYER52
 62
     7
  6
CONTINUOUS
 10
35.5926
 20
25.4322
  0
VERTEX
  8
LAYER52
 62
     7
  6
CONTINUOUS
 10
35.5858
 20
25.4364
  0
VERTEX
  8
LAYER52
 62
     7
  6
CONTINUOUS
 10
35.5836
 20
25.4376
  0
VERTEX
  8
LAYER52
 62
     7
  6
CONTINUOUS
 10
35.5813
 20
25.4388
  0
VERTEX
  8
LAYER52
 62
     7
  6
CONTINUOUS
 10
35.5790
 20
25.4399
  0
VERTEX
  8
LAYER52
 62
     7
  6
CONTINUOUS
 10
35.5767
 20
25.4410
  0
VERTEX
  8
LAYER52
 62
     7
  6
CONTINUOUS
 10
35.5744
 20
25.4421
  0
VERTEX
  8
LAYER52
 62
     7
  6
CONTINUOUS
 10
35.5720
 20
25.4432
  0
VERTEX
  8
LAYER52
 62
     7
  6
CONTINUOUS
 10
35.5696
 20
25.4443
  0
VERTEX
  8
LAYER52
 62
     7
  6
CONTINUOUS
 10
35.5672
 20
25.4454
  0
VERTEX
  8
LAYER52
 62
     7
  6
CONTINUOUS
 10
35.5648
 20
25.4465
  0
VERTEX
  8
LAYER52
 62
     7
  6
CONTINUOUS
 10
35.5624
 20
25.4477
  0
VERTEX
  8
LAYER52
 62
     7
  6
CONTINUOUS
 10
35.5600
 20
25.4489
  0
VERTEX
  8
LAYER52
 62
     7
  6
CONTINUOUS
 10
35.5575
 20
25.4501
  0
VERTEX
  8
LAYER52
 62
     7
  6
CONTINUOUS
 10
35.5516
 20
25.4534
  0
VERTEX
  8
LAYER52
 62
     7
  6
CONTINUOUS
 10
35.5457
 20
25.4569
  0
VERTEX
  8
LAYER52
 62
     7
  6
CONTINUOUS
 10
35.5397
 20
25.4605
  0
VERTEX
  8
LAYER52
 62
     7
  6
CONTINUOUS
 10
35.5338
 20
25.4641
  0
VERTEX
  8
LAYER52
 62
     7
  6
CONTINUOUS
 10
35.5278
 20
25.4676
  0
VERTEX
  8
LAYER52
 62
     7
  6
CONTINUOUS
 10
35.5219
 20
25.4708
  0
VERTEX
  8
LAYER52
 62
     7
  6
CONTINUOUS
 10
35.5160
 20
25.4736
  0
VERTEX
  8
LAYER52
 62
     7
  6
CONTINUOUS
 10
35.5101
 20
25.4759
  0
VERTEX
  8
LAYER52
 62
     7
  6
CONTINUOUS
 10
35.5043
 20
25.4775
  0
VERTEX
  8
LAYER52
 62
     7
  6
CONTINUOUS
 10
35.4986
 20
25.4784
  0
VERTEX
  8
LAYER52
 62
     7
  6
CONTINUOUS
 10
35.4930
 20
25.4784
  0
VERTEX
  8
LAYER52
 62
     7
  6
CONTINUOUS
 10
35.4874
 20
25.4774
  0
VERTEX
  8
LAYER52
 62
     7
  6
CONTINUOUS
 10
35.4852
 20
25.4767
  0
VERTEX
  8
LAYER52
 62
     7
  6
CONTINUOUS
 10
35.4829
 20
25.4758
  0
VERTEX
  8
LAYER52
 62
     7
  6
CONTINUOUS
 10
35.4806
 20
25.4747
  0
VERTEX
  8
LAYER52
 62
     7
  6
CONTINUOUS
 10
35.4784
 20
25.4735
  0
VERTEX
  8
LAYER52
 62
     7
  6
CONTINUOUS
 10
35.4761
 20
25.4723
  0
VERTEX
  8
LAYER52
 62
     7
  6
CONTINUOUS
 10
35.4739
 20
25.4710
  0
VERTEX
  8
LAYER52
 62
     7
  6
CONTINUOUS
 10
35.4716
 20
25.4696
  0
VERTEX
  8
LAYER52
 62
     7
  6
CONTINUOUS
 10
35.4693
 20
25.4682
  0
VERTEX
  8
LAYER52
 62
     7
  6
CONTINUOUS
 10
35.4669
 20
25.4669
  0
VERTEX
  8
LAYER52
 62
     7
  6
CONTINUOUS
 10
35.4645
 20
25.4656
  0
VERTEX
  8
LAYER52
 62
     7
  6
CONTINUOUS
 10
35.4621
 20
25.4643
  0
VERTEX
  8
LAYER52
 62
     7
  6
CONTINUOUS
 10
35.4596
 20
25.4632
  0
VERTEX
  8
LAYER52
 62
     7
  6
CONTINUOUS
 10
35.4562
 20
25.4619
  0
VERTEX
  8
LAYER52
 62
     7
  6
CONTINUOUS
 10
35.4527
 20
25.4608
  0
VERTEX
  8
LAYER52
 62
     7
  6
CONTINUOUS
 10
35.4491
 20
25.4599
  0
VERTEX
  8
LAYER52
 62
     7
  6
CONTINUOUS
 10
35.4455
 20
25.4593
  0
VERTEX
  8
LAYER52
 62
     7
  6
CONTINUOUS
 10
35.4418
 20
25.4589
  0
VERTEX
  8
LAYER52
 62
     7
  6
CONTINUOUS
 10
35.4382
 20
25.4587
  0
VERTEX
  8
LAYER52
 62
     7
  6
CONTINUOUS
 10
35.4346
 20
25.4588
  0
VERTEX
  8
LAYER52
 62
     7
  6
CONTINUOUS
 10
35.4310
 20
25.4591
  0
VERTEX
  8
LAYER52
 62
     7
  6
CONTINUOUS
 10
35.4275
 20
25.4597
  0
VERTEX
  8
LAYER52
 62
     7
  6
CONTINUOUS
 10
35.4241
 20
25.4605
  0
VERTEX
  8
LAYER52
 62
     7
  6
CONTINUOUS
 10
35.4208
 20
25.4615
  0
VERTEX
  8
LAYER52
 62
     7
  6
CONTINUOUS
 10
35.4176
 20
25.4628
  0
VERTEX
  8
LAYER52
 62
     7
  6
CONTINUOUS
 10
35.4146
 20
25.4644
  0
VERTEX
  8
LAYER52
 62
     7
  6
CONTINUOUS
 10
35.4116
 20
25.4662
  0
VERTEX
  8
LAYER52
 62
     7
  6
CONTINUOUS
 10
35.4089
 20
25.4682
  0
VERTEX
  8
LAYER52
 62
     7
  6
CONTINUOUS
 10
35.4062
 20
25.4704
  0
VERTEX
  8
LAYER52
 62
     7
  6
CONTINUOUS
 10
35.4036
 20
25.4728
  0
VERTEX
  8
LAYER52
 62
     7
  6
CONTINUOUS
 10
35.4012
 20
25.4753
  0
VERTEX
  8
LAYER52
 62
     7
  6
CONTINUOUS
 10
35.3988
 20
25.4779
  0
VERTEX
  8
LAYER52
 62
     7
  6
CONTINUOUS
 10
35.3964
 20
25.4807
  0
VERTEX
  8
LAYER52
 62
     7
  6
CONTINUOUS
 10
35.3941
 20
25.4835
  0
VERTEX
  8
LAYER52
 62
     7
  6
CONTINUOUS
 10
35.3919
 20
25.4864
  0
VERTEX
  8
LAYER52
 62
     7
  6
CONTINUOUS
 10
35.3897
 20
25.4894
  0
VERTEX
  8
LAYER52
 62
     7
  6
CONTINUOUS
 10
35.3875
 20
25.4923
  0
SEQEND
  8
LAYER52
  0
CIRCLE
  8
LAYER56
 62
     7
  6
CONTINUOUS
 10
34.5830
 20
27.8690
 40
0.0630
  0
CIRCLE
  8
LAYER56
 62
     7
  6
CONTINUOUS
 10
34.4320
 20
27.5667
 40
0.0700
  0
CIRCLE
  8
LAYER56
 62
     7
  6
CONTINUOUS
 10
34.3768
 20
26.7195
 40
0.0495
  0
CIRCLE
  8
LAYER56
 62
     7
  6
CONTINUOUS
 10
34.3778
 20
26.6215
 40
0.0494
  0
CIRCLE
  8
LAYER56
 62
     7
  6
CONTINUOUS
 10
34.2539
 20
26.4104
 40
0.0532
  0
CIRCLE
  8
LAYER56
 62
     7
  6
CONTINUOUS
 10
34.1069
 20
25.6882
 40
0.0426
  0
CIRCLE
  8
LAYER56
 62
     7
  6
CONTINUOUS
 10
34.0675
 20
25.4080
 40
0.0470
  0
ENDSEC
  0
EOF
