  0
SECTION
  2
HEADER
  9
$ACADVER
  1
AC1004
  9
$EXTMIN
 10
1.0671
 20
5.5385
  9
$EXTMAX
 10
2.0528
 20
6.5242
  9
$LIMMIN
 10
1.0671
 20
5.5385
  9
$LIMMAX
 10
2.0528
 20
6.5242
  9
$INSBASE
 10
0.0
 20
0.0
  9
$VIEWCTR
 10
7.21903
 20
4.5
  9
$VIEWSIZE
 40
9.0
  9
$SNAPMODE
 70
     0
  9
$SNAPUNIT
 10
1.0
 20
1.0
  9
$SNAPBASE
 10
0.0
 20
0.0
  9
$SNAPANG
 50
0.0
  9
$SNAPSTYLE
 70
     0
  9
$SNAPISOPAIR
 70
     0
  9
$GRIDMODE
 70
     0
  9
$GRIDUNIT
 10
0.0
 20
0.0
  9
$ORTHOMODE
 70
     0
  9
$REGENMODE
 70
     1
  9
$FILLMODE
 70
     1
  9
$QTEXTMODE
 70
     0
  9
$DRAGMODE
 70
     2
  9
$LTSCALE
 40
1.0
  9
$OSMODE
 70
     0
  9
$ATTMODE
 70
     1
  9
$TEXTSIZE
 40
0.2
  9
$TRACEWID
 40
0.05
  9
$TEXTSTYLE
  7
STANDARD
  9
$CLAYER
  8
0
  9
$CELTYPE
  6
BYLAYER
  9
$CECOLOR
 62
   256
  9
$DIMSCALE
 40
1.0
  9
$DIMASZ
 40
0.18
  9
$DIMEXO
 40
0.0625
  9
$DIMDLI
 40
0.38
  9
$DIMRND
 40
0.0
  9
$DIMDLE
 40
0.0
  9
$DIMEXE
 40
0.18
  9
$DIMTP
 40
0.0
  9
$DIMTM
 40
0.0
  9
$DIMTXT
 40
0.18
  9
$DIMCEN
 40
0.09
  9
$DIMTSZ
 40
0.0
  9
$DIMTOL
 70
     0
  9
$DIMLIM
 70
     0
  9
$DIMTIH
 70
     1
  9
$DIMTOH
 70
     1
  9
$DIMSE1
 70
     0
  9
$DIMSE2
 70
     0
  9
$DIMTAD
 70
     0
  9
$DIMZIN
 70
     0
  9
$DIMBLK
  1

  9
$DIMASO
 70
     1
  9
$DIMSHO
 70
     0
  9
$DIMPOST
  1

  9
$DIMAPOST
  1

  9
$DIMALT
 70
     0
  9
$DIMALTD
 70
     2
  9
$DIMALTF
 40
25.4
  9
$DIMLFAC
 40
1.0
  9
$LUNITS
 70
     2
  9
$LUPREC
 70
     4
  9
$AXISMODE
 70
     0
  9
$AXISUNIT
 10
0.0
 20
0.0
  9
$SKETCHINC
 40
0.1
  9
$FILLETRAD
 40
0.0
  9
$AUNITS
 70
     0
  9
$AUPREC
 70
     0
  9
$MENU
  1
acad
  9
$ELEVATION
 40
0.0
  9
$THICKNESS
 40
0.0
  9
$VIEWDIR
 10
0.0
 20
0.0
 30
1.0
  9
$LIMCHECK
 70
     0
  9
$BLIPMODE
 70
     1
  9
$CHAMFERA
 40
0.0
  9
$CHAMFERB
 40
0.0
  9
$FASTZOOM
 70
     1
  9
$SKPOLY
 70
     0
  9
$TDCREATE
 40
2447222.5666886573
  9
$TDUPDATE
 40
2447222.5666886573
  9
$TDINDWG
 40
0.0000000000
  9
$TDUSRTIMER
 40
0.0000000000
  9
$USRTIMER
 70
     1
  9
$ANGBASE
 50
0.0
  9
$ANGDIR
 70
     0
  9
$PDMODE
 70
     0
  9
$PDSIZE
 40
0.0
  9
$PLINEWID
 40
0.0
  9
$COORDS
 70
     0
  9
$SPLFRAME
 70
     0
  9
$SPLINESEGS
 70
     8
  9
$ATTDIA
 70
     0
  9
$ATTREQ
 70
     1
  9
$USERI1
 70
     0
  9
$USERI2
 70
     0
  9
$USERI3
 70
     0
  9
$USERI4
 70
     0
  9
$USERI5
 70
     0
  9
$USERR1
 40
0.0
  9
$USERR2
 40
0.0
  9
$USERR3
 40
0.0
  9
$USERR4
 40
0.0
  9
$USERR5
 40
0.0
  0
ENDSEC
  0
SECTION
  2
TABLES
  0
TABLE
  2
LTYPE
 70
     13
  0
LTYPE
  2
CONTINUOUS
 70
    64
  3
Solid line
 72
    65
 73
     0
 40
0.0
  0
LTYPE
  2
DASHED
 70
    64
  3
__ __ __ __ __ __ __ __ __ __ __ __ __ __ __
 72
    65
 73
     2
 40
0.75
 49
0.5
 49
-0.25
  0
LTYPE
  2
HIDDEN
 70
    64
  3
_ _ _ _ _ _ _ _ _ _ _ _ _ _ _ _ _ _ _ _ _ _ _
 72
    65
 73
     2
 40
0.375
 49
0.25
 49
-0.125
  0
LTYPE
  2
CENTER
 70
    64
  3
____ _ ____ _ ____ _ ____ _ ____ _ ____ _ ____
 72
    65
 73
     4
 40
2.0
 49
1.25
 49
-0.25
 49
0.25
 49
-0.25
  0
LTYPE
  2
PHANTOM
 70
    64
  3
_____ _ _ _____ _ _ _____ _ _ _____ _ _ ____
 72
    65
 73
     6
 40
2.5
 49
1.25
 49
-0.25
 49
0.25
 49
-0.25
 49
0.25
 49
-0.25
  0
LTYPE
  2
DOT
 70
    64
  3
...............................................
 72
    65
 73
     2
 40
0.25
 49
0.0
 49
-0.25
  0
LTYPE
  2
DASHDOT
 70
    64
  3
__ . __ . __ . __ . __ . __ . __ . __ . __ . __
 72
    65
 73
     4
 40
1.0
 49
0.5
 49
-0.25
 49
0.0
 49
-0.25
  0
LTYPE
  2
BORDER
 70
    64
  3
__ __ . __ __ . __ __ . __ __ . __ __ . __ __
 72
    65
 73
     6
 40
1.75
 49
0.5
 49
-0.25
 49
0.5
 49
-0.25
 49
0.0
 49
-0.25
  0
LTYPE
  2
DIVIDE
 70
    64
  3
__ . . __ . . __ . . __ . . __ . . __ . . __
 72
    65
 73
     6
 40
1.25
 49
0.5
 49
-0.25
 49
0.0
 49
-0.25
 49
0.0
 49
-0.25
  0
LTYPE
  2
DCTYPE1
 70
    64
  3
__ . . __ . . __ . . __ . . __ . . __ . . __
 72
    65
 73
     8
 40
2.5
 49
0.5
 49
-0.25
 49
0.125
 49
-0.25
 49
0.25
 49
-0.25
 49
0.125
 49
-0.25
  0
LTYPE
  2
DCTYPE2
 70
    64
  3
__ . . __ . . __ . . __ . . __ . . __ . . __
 72
    65
 73
     6
 40
2.05
 49
1.0
 49
-0.3
 49
0.15
 49
-0.15
 49
0.15
 49
-0.3
  0
LTYPE
  2
DCTYPE3
 70
    64
  3
__ . . __ . . __ . . __ . . __ . . __ . . __
 72
    65
 73
     6
 40
2.5
 49
0.8
 49
-0.2
 49
0.8
 49
-0.2
 49
0.3
 49
-0.2
  0
LTYPE
  2
DCTYPE4
 70
    64
  3
__ . . __ . . __ . . __ . . __ . . __ . . __
 72
    65
 73
     10
 40
3.97
 49
1.75
 49
-0.3
 49
0.3
 49
-0.3
 49
0.06
 49
-0.3
 49
0.06
 49
-0.3
 49
0.3
 49
-0.3
  0
ENDTAB
  0
TABLE
  2
LAYER
 70
    153
  0
LAYER
  2
LAYER1
 70
 64
 62
     7
  6
CONTINUOUS
  0
LAYER
  2
LAYER12
 70
 64
 62
     5
  6
CONTINUOUS
  0
ENDTAB
  0
ENDSEC
  0
SECTION
  2
BLOCKS
  0
ENDSEC
  0
SECTION
  2
ENTITIES
  0
CIRCLE
  8
LAYER1
 62
     7
  6
CONTINUOUS
 10
1.8090
 20
6.4303
 40
0.0135
  0
CIRCLE
  8
LAYER1
 62
     7
  6
CONTINUOUS
 10
1.9741
 20
6.3107
 40
0.0302
  0
CIRCLE
  8
LAYER1
 62
     7
  6
CONTINUOUS
 10
1.9639
 20
6.0645
 40
0.0251
  0
CIRCLE
  8
LAYER1
 62
     7
  6
CONTINUOUS
 10
1.8284
 20
6.3169
 40
0.0238
  0
CIRCLE
  8
LAYER1
 62
     7
  6
CONTINUOUS
 10
1.7749
 20
6.1330
 40
0.0203
  0
CIRCLE
  8
LAYER1
 62
     7
  6
CONTINUOUS
 10
1.5643
 20
6.3495
 40
0.0203
  0
CIRCLE
  8
LAYER1
 62
     7
  6
CONTINUOUS
 10
1.4485
 20
6.3786
 40
0.0281
  0
CIRCLE
  8
LAYER1
 62
     7
  6
CONTINUOUS
 10
1.2986
 20
6.2943
 40
0.0142
  0
CIRCLE
  8
LAYER1
 62
     7
  6
CONTINUOUS
 10
1.3747
 20
5.9559
 40
0.0128
  0
CIRCLE
  8
LAYER1
 62
     7
  6
CONTINUOUS
 10
1.7745
 20
5.6433
 40
0.0128
  0
CIRCLE
  8
LAYER1
 62
     7
  6
CONTINUOUS
 10
2.0214
 20
5.8264
 40
0.0247
  0
CIRCLE
  8
LAYER1
 62
     7
  6
CONTINUOUS
 10
1.9968
 20
5.7735
 40
0.0159
  0
CIRCLE
  8
LAYER1
 62
     7
  6
CONTINUOUS
 10
1.9745
 20
5.7381
 40
0.0202
  0
CIRCLE
  8
LAYER1
 62
     7
  6
CONTINUOUS
 10
1.9152
 20
5.6396
 40
0.0079
  0
CIRCLE
  8
LAYER1
 62
     7
  6
CONTINUOUS
 10
1.9182
 20
5.5869
 40
0.0151
  0
ARC
  8
LAYER1
 62
     7
  6
CONTINUOUS
 10
1.6952
 20
6.5149
 40
0.0128
 50
138.1498
 51
149.4046
  0
ARC
  8
LAYER1
 62
     7
  6
CONTINUOUS
 10
1.4813
 20
6.5183
 40
0.0075
 50
136.1060
 51
154.8827
  0
ARC
  8
LAYER1
 62
     7
  6
CONTINUOUS
 10
1.7782
 20
6.5081
 40
0.0101
 50
-89.5405
 51
51.9007
  0
ARC
  8
LAYER1
 62
     7
  6
CONTINUOUS
 10
1.7782
 20
6.5081
 40
0.0101
 50
51.9002
 51
128.1003
  0
ARC
  8
LAYER1
 62
     7
  6
CONTINUOUS
 10
1.7782
 20
6.5081
 40
0.0101
 50
128.1003
 51
-89.5405
  0
ARC
  8
LAYER1
 62
     7
  6
CONTINUOUS
 10
1.6952
 20
6.5149
 40
0.0128
 50
-78.2456
 51
4.6772
  0
ARC
  8
LAYER1
 62
     7
  6
CONTINUOUS
 10
1.6952
 20
6.5149
 40
0.0128
 50
4.6780
 51
30.5942
  0
ARC
  8
LAYER1
 62
     7
  6
CONTINUOUS
 10
1.6952
 20
6.5149
 40
0.0128
 50
149.4040
 51
175.3223
  0
ARC
  8
LAYER1
 62
     7
  6
CONTINUOUS
 10
1.6952
 20
6.5149
 40
0.0128
 50
175.3221
 51
-78.2455
  0
ARC
  8
LAYER1
 62
     7
  6
CONTINUOUS
 10
1.4813
 20
6.5183
 40
0.0075
 50
-89.5565
 51
-17.5408
  0
ARC
  8
LAYER1
 62
     7
  6
CONTINUOUS
 10
1.4813
 20
6.5183
 40
0.0075
 50
-17.5392
 51
25.1189
  0
ARC
  8
LAYER1
 62
     7
  6
CONTINUOUS
 10
1.4813
 20
6.5183
 40
0.0075
 50
154.8796
 51
-162.4597
  0
ARC
  8
LAYER1
 62
     7
  6
CONTINUOUS
 10
1.4813
 20
6.5183
 40
0.0075
 50
-162.4605
 51
-89.5566
  0
ARC
  8
LAYER1
 62
     7
  6
CONTINUOUS
 10
2.0484
 20
5.8995
 40
0.0169
 50
-115.9926
 51
-84.0890
  0
ARC
  8
LAYER1
 62
     7
  6
CONTINUOUS
 10
2.0484
 20
5.8995
 40
0.0169
 50
84.0900
 51
-115.9926
  0
ARC
  8
LAYER1
 62
     7
  6
CONTINUOUS
 10
1.0759
 20
5.6793
 40
0.0153
 50
-80.0039
 51
119.1627
  0
ARC
  8
LAYER1
 62
     7
  6
CONTINUOUS
 10
1.0759
 20
5.6793
 40
0.0153
 50
-119.1632
 51
-80.0040
  0
ARC
  8
LAYER1
 62
     7
  6
CONTINUOUS
 10
1.1852
 20
5.5422
 40
0.0183
 50
-7.5570
 51
-172.4430
  0
ARC
  8
LAYER1
 62
     7
  6
CONTINUOUS
 10
1.6702
 20
5.5192
 40
0.0327
 50
39.1335
 51
140.8664
  0
ARC
  8
LAYER1
 62
     7
  6
CONTINUOUS
 10
1.6952
 20
6.5149
 40
0.0128
 50
30.5957
 51
41.8509
  0
ARC
  8
LAYER1
 62
     7
  6
CONTINUOUS
 10
1.6952
 20
6.5149
 40
0.0128
 50
133.7387
 51
138.1519
  0
ARC
  8
LAYER1
 62
     7
  6
CONTINUOUS
 10
1.4813
 20
6.5183
 40
0.0075
 50
25.1200
 51
43.8916
  0
ARC
  8
LAYER1
 62
     7
  6
CONTINUOUS
 10
1.4813
 20
6.5183
 40
0.0075
 50
128.0677
 51
136.1042
  0
ARC
  8
LAYER1
 62
     7
  6
CONTINUOUS
 10
2.0740
 20
5.8470
 40
0.0216
 50
168.0395
 51
-168.0537
  0
ARC
  8
LAYER1
 62
     7
  6
CONTINUOUS
 10
1.6952
 20
6.5149
 40
0.0128
 50
41.8502
 51
46.2752
  0
ARC
  8
LAYER1
 62
     7
  6
CONTINUOUS
 10
1.4813
 20
6.5183
 40
0.0075
 50
43.8940
 51
51.9779
  0
ARC
  8
LAYER1
 62
     7
  6
CONTINUOUS
 10
2.0484
 20
5.8995
 40
0.0169
 50
-84.0896
 51
-74.6180
  0
ARC
  8
LAYER1
 62
     7
  6
CONTINUOUS
 10
2.0484
 20
5.8995
 40
0.0169
 50
74.6140
 51
84.0895
  0
ARC
  8
LAYER1
 62
     7
  6
CONTINUOUS
 10
1.0759
 20
5.6793
 40
0.0153
 50
119.1632
 51
125.2914
  0
ARC
  8
LAYER1
 62
     7
  6
CONTINUOUS
 10
1.0759
 20
5.6793
 40
0.0153
 50
-125.2905
 51
-119.1626
  0
ARC
  8
LAYER1
 62
     7
  6
CONTINUOUS
 10
1.1852
 20
5.5422
 40
0.0183
 50
-11.7370
 51
-7.5573
  0
ARC
  8
LAYER1
 62
     7
  6
CONTINUOUS
 10
1.1852
 20
5.5422
 40
0.0183
 50
-172.4430
 51
-168.2621
  0
ARC
  8
LAYER1
 62
     7
  6
CONTINUOUS
 10
1.6702
 20
5.5192
 40
0.0327
 50
36.2199
 51
39.1330
  0
ARC
  8
LAYER1
 62
     7
  6
CONTINUOUS
 10
1.6702
 20
5.5192
 40
0.0327
 50
140.8665
 51
143.7801
  0
ARC
  8
LAYER1
 62
     7
  6
CONTINUOUS
 10
1.8960
 20
5.5414
 40
0.0135
 50
-12.6245
 51
-6.9712
  0
ARC
  8
LAYER1
 62
     7
  6
CONTINUOUS
 10
1.8960
 20
5.5414
 40
0.0135
 50
-12.6245
 51
-173.0287
  0
ARC
  8
LAYER1
 62
     7
  6
CONTINUOUS
 10
1.8960
 20
5.5414
 40
0.0135
 50
-173.0297
 51
-167.3752
  0
POLYLINE
  8
LAYER12
 62
     5
 66
     1
  6
CONTINUOUS
  0
VERTEX
  8
LAYER12
 62
     5
  6
CONTINUOUS
 10
1.0685
 20
6.5235
  0
VERTEX
  8
LAYER12
 62
     5
  6
CONTINUOUS
 10
1.0685
 20
6.5235
  0
SEQEND
  8
LAYER12
  0
POLYLINE
  8
LAYER12
 62
     5
 66
     1
  6
CONTINUOUS
  0
VERTEX
  8
LAYER12
 62
     5
  6
CONTINUOUS
 10
1.0685
 20
6.5215
  0
VERTEX
  8
LAYER12
 62
     5
  6
CONTINUOUS
 10
1.0685
 20
6.5235
  0
SEQEND
  8
LAYER12
  0
POLYLINE
  8
LAYER12
 62
     5
 66
     1
  6
CONTINUOUS
  0
VERTEX
  8
LAYER12
 62
     5
  6
CONTINUOUS
 10
1.0685
 20
6.5235
  0
VERTEX
  8
LAYER12
 62
     5
  6
CONTINUOUS
 10
2.0501
 20
6.5235
  0
SEQEND
  8
LAYER12
  0
POLYLINE
  8
LAYER12
 62
     5
 66
     1
  6
CONTINUOUS
  0
VERTEX
  8
LAYER12
 62
     5
  6
CONTINUOUS
 10
1.0685
 20
5.5398
  0
VERTEX
  8
LAYER12
 62
     5
  6
CONTINUOUS
 10
1.0685
 20
6.5160
  0
SEQEND
  8
LAYER12
  0
POLYLINE
  8
LAYER12
 62
     5
 66
     1
  6
CONTINUOUS
  0
VERTEX
  8
LAYER12
 62
     5
  6
CONTINUOUS
 10
1.0685
 20
6.5160
  0
VERTEX
  8
LAYER12
 62
     5
  6
CONTINUOUS
 10
1.0685
 20
6.5215
  0
SEQEND
  8
LAYER12
  0
POLYLINE
  8
LAYER12
 62
     5
 66
     1
  6
CONTINUOUS
  0
VERTEX
  8
LAYER12
 62
     5
  6
CONTINUOUS
 10
2.0522
 20
6.5242
  0
VERTEX
  8
LAYER12
 62
     5
  6
CONTINUOUS
 10
2.0522
 20
6.5160
  0
SEQEND
  8
LAYER12
  0
POLYLINE
  8
LAYER12
 62
     5
 66
     1
  6
CONTINUOUS
  0
VERTEX
  8
LAYER12
 62
     5
  6
CONTINUOUS
 10
2.0522
 20
6.5160
  0
VERTEX
  8
LAYER12
 62
     5
  6
CONTINUOUS
 10
2.0522
 20
5.5385
  0
SEQEND
  8
LAYER12
  0
POLYLINE
  8
LAYER12
 62
     5
 66
     1
  6
CONTINUOUS
  0
VERTEX
  8
LAYER12
 62
     5
  6
CONTINUOUS
 10
2.0528
 20
5.5398
  0
VERTEX
  8
LAYER12
 62
     5
  6
CONTINUOUS
 10
1.0685
 20
5.5398
  0
SEQEND
  8
LAYER12
  0
POLYLINE
  8
LAYER12
 62
     5
 66
     1
  6
CONTINUOUS
  0
VERTEX
  8
LAYER12
 62
     5
  6
CONTINUOUS
 10
1.0685
 20
6.5242
  0
VERTEX
  8
LAYER12
 62
     5
  6
CONTINUOUS
 10
1.0685
 20
6.5242
  0
SEQEND
  8
LAYER12
  0
POLYLINE
  8
LAYER12
 62
     5
 66
     1
  6
CONTINUOUS
  0
VERTEX
  8
LAYER12
 62
     5
  6
CONTINUOUS
 10
1.0685
 20
6.5242
  0
VERTEX
  8
LAYER12
 62
     5
  6
CONTINUOUS
 10
1.0685
 20
6.5235
  0
SEQEND
  8
LAYER12
  0
POLYLINE
  8
LAYER12
 62
     5
 66
     1
  6
CONTINUOUS
  0
VERTEX
  8
LAYER12
 62
     5
  6
CONTINUOUS
 10
1.0685
 20
6.5235
  0
VERTEX
  8
LAYER12
 62
     5
  6
CONTINUOUS
 10
1.0685
 20
6.5242
  0
SEQEND
  8
LAYER12
  0
POLYLINE
  8
LAYER12
 62
     5
 66
     1
  6
CONTINUOUS
  0
VERTEX
  8
LAYER12
 62
     5
  6
CONTINUOUS
 10
1.0685
 20
6.5235
  0
VERTEX
  8
LAYER12
 62
     5
  6
CONTINUOUS
 10
1.0685
 20
6.5242
  0
SEQEND
  8
LAYER12
  0
POLYLINE
  8
LAYER12
 62
     5
 66
     1
  6
CONTINUOUS
  0
VERTEX
  8
LAYER12
 62
     5
  6
CONTINUOUS
 10
1.0685
 20
6.5242
  0
VERTEX
  8
LAYER12
 62
     5
  6
CONTINUOUS
 10
1.0685
 20
6.5242
  0
SEQEND
  8
LAYER12
  0
POLYLINE
  8
LAYER12
 62
     5
 66
     1
  6
CONTINUOUS
  0
VERTEX
  8
LAYER12
 62
     5
  6
CONTINUOUS
 10
1.0685
 20
5.5385
  0
VERTEX
  8
LAYER12
 62
     5
  6
CONTINUOUS
 10
1.0685
 20
5.5398
  0
SEQEND
  8
LAYER12
  0
POLYLINE
  8
LAYER12
 62
     5
 66
     1
  6
CONTINUOUS
  0
VERTEX
  8
LAYER12
 62
     5
  6
CONTINUOUS
 10
2.0501
 20
6.5235
  0
VERTEX
  8
LAYER12
 62
     5
  6
CONTINUOUS
 10
2.0528
 20
6.5235
  0
SEQEND
  8
LAYER12
  0
ENDSEC
  0
EOF
