  0
SECTION
  2
HEADER
  9
$ACADVER
  1
AC1004
  9
$EXTMIN
 10
4.0574
 20
5.5398
  9
$EXTMAX
 10
5.0426
 20
6.5235
  9
$LIMMIN
 10
4.0574
 20
5.5398
  9
$LIMMAX
 10
5.0426
 20
6.5235
  9
$INSBASE
 10
0.0
 20
0.0
  9
$VIEWCTR
 10
7.21903
 20
4.5
  9
$VIEWSIZE
 40
9.0
  9
$SNAPMODE
 70
     0
  9
$SNAPUNIT
 10
1.0
 20
1.0
  9
$SNAPBASE
 10
0.0
 20
0.0
  9
$SNAPANG
 50
0.0
  9
$SNAPSTYLE
 70
     0
  9
$SNAPISOPAIR
 70
     0
  9
$GRIDMODE
 70
     0
  9
$GRIDUNIT
 10
0.0
 20
0.0
  9
$ORTHOMODE
 70
     0
  9
$REGENMODE
 70
     1
  9
$FILLMODE
 70
     1
  9
$QTEXTMODE
 70
     0
  9
$DRAGMODE
 70
     2
  9
$LTSCALE
 40
1.0
  9
$OSMODE
 70
     0
  9
$ATTMODE
 70
     1
  9
$TEXTSIZE
 40
0.2
  9
$TRACEWID
 40
0.05
  9
$TEXTSTYLE
  7
STANDARD
  9
$CLAYER
  8
0
  9
$CELTYPE
  6
BYLAYER
  9
$CECOLOR
 62
   256
  9
$DIMSCALE
 40
1.0
  9
$DIMASZ
 40
0.18
  9
$DIMEXO
 40
0.0625
  9
$DIMDLI
 40
0.38
  9
$DIMRND
 40
0.0
  9
$DIMDLE
 40
0.0
  9
$DIMEXE
 40
0.18
  9
$DIMTP
 40
0.0
  9
$DIMTM
 40
0.0
  9
$DIMTXT
 40
0.18
  9
$DIMCEN
 40
0.09
  9
$DIMTSZ
 40
0.0
  9
$DIMTOL
 70
     0
  9
$DIMLIM
 70
     0
  9
$DIMTIH
 70
     1
  9
$DIMTOH
 70
     1
  9
$DIMSE1
 70
     0
  9
$DIMSE2
 70
     0
  9
$DIMTAD
 70
     0
  9
$DIMZIN
 70
     0
  9
$DIMBLK
  1

  9
$DIMASO
 70
     1
  9
$DIMSHO
 70
     0
  9
$DIMPOST
  1

  9
$DIMAPOST
  1

  9
$DIMALT
 70
     0
  9
$DIMALTD
 70
     2
  9
$DIMALTF
 40
25.4
  9
$DIMLFAC
 40
1.0
  9
$LUNITS
 70
     2
  9
$LUPREC
 70
     4
  9
$AXISMODE
 70
     0
  9
$AXISUNIT
 10
0.0
 20
0.0
  9
$SKETCHINC
 40
0.1
  9
$FILLETRAD
 40
0.0
  9
$AUNITS
 70
     0
  9
$AUPREC
 70
     0
  9
$MENU
  1
acad
  9
$ELEVATION
 40
0.0
  9
$THICKNESS
 40
0.0
  9
$VIEWDIR
 10
0.0
 20
0.0
 30
1.0
  9
$LIMCHECK
 70
     0
  9
$BLIPMODE
 70
     1
  9
$CHAMFERA
 40
0.0
  9
$CHAMFERB
 40
0.0
  9
$FASTZOOM
 70
     1
  9
$SKPOLY
 70
     0
  9
$TDCREATE
 40
2447222.5666886573
  9
$TDUPDATE
 40
2447222.5666886573
  9
$TDINDWG
 40
0.0000000000
  9
$TDUSRTIMER
 40
0.0000000000
  9
$USRTIMER
 70
     1
  9
$ANGBASE
 50
0.0
  9
$ANGDIR
 70
     0
  9
$PDMODE
 70
     0
  9
$PDSIZE
 40
0.0
  9
$PLINEWID
 40
0.0
  9
$COORDS
 70
     0
  9
$SPLFRAME
 70
     0
  9
$SPLINESEGS
 70
     8
  9
$ATTDIA
 70
     0
  9
$ATTREQ
 70
     1
  9
$USERI1
 70
     0
  9
$USERI2
 70
     0
  9
$USERI3
 70
     0
  9
$USERI4
 70
     0
  9
$USERI5
 70
     0
  9
$USERR1
 40
0.0
  9
$USERR2
 40
0.0
  9
$USERR3
 40
0.0
  9
$USERR4
 40
0.0
  9
$USERR5
 40
0.0
  0
ENDSEC
  0
SECTION
  2
TABLES
  0
TABLE
  2
LTYPE
 70
     13
  0
LTYPE
  2
CONTINUOUS
 70
    64
  3
Solid line
 72
    65
 73
     0
 40
0.0
  0
LTYPE
  2
DASHED
 70
    64
  3
__ __ __ __ __ __ __ __ __ __ __ __ __ __ __
 72
    65
 73
     2
 40
0.75
 49
0.5
 49
-0.25
  0
LTYPE
  2
HIDDEN
 70
    64
  3
_ _ _ _ _ _ _ _ _ _ _ _ _ _ _ _ _ _ _ _ _ _ _
 72
    65
 73
     2
 40
0.375
 49
0.25
 49
-0.125
  0
LTYPE
  2
CENTER
 70
    64
  3
____ _ ____ _ ____ _ ____ _ ____ _ ____ _ ____
 72
    65
 73
     4
 40
2.0
 49
1.25
 49
-0.25
 49
0.25
 49
-0.25
  0
LTYPE
  2
PHANTOM
 70
    64
  3
_____ _ _ _____ _ _ _____ _ _ _____ _ _ ____
 72
    65
 73
     6
 40
2.5
 49
1.25
 49
-0.25
 49
0.25
 49
-0.25
 49
0.25
 49
-0.25
  0
LTYPE
  2
DOT
 70
    64
  3
...............................................
 72
    65
 73
     2
 40
0.25
 49
0.0
 49
-0.25
  0
LTYPE
  2
DASHDOT
 70
    64
  3
__ . __ . __ . __ . __ . __ . __ . __ . __ . __
 72
    65
 73
     4
 40
1.0
 49
0.5
 49
-0.25
 49
0.0
 49
-0.25
  0
LTYPE
  2
BORDER
 70
    64
  3
__ __ . __ __ . __ __ . __ __ . __ __ . __ __
 72
    65
 73
     6
 40
1.75
 49
0.5
 49
-0.25
 49
0.5
 49
-0.25
 49
0.0
 49
-0.25
  0
LTYPE
  2
DIVIDE
 70
    64
  3
__ . . __ . . __ . . __ . . __ . . __ . . __
 72
    65
 73
     6
 40
1.25
 49
0.5
 49
-0.25
 49
0.0
 49
-0.25
 49
0.0
 49
-0.25
  0
LTYPE
  2
DCTYPE1
 70
    64
  3
__ . . __ . . __ . . __ . . __ . . __ . . __
 72
    65
 73
     8
 40
2.5
 49
0.5
 49
-0.25
 49
0.125
 49
-0.25
 49
0.25
 49
-0.25
 49
0.125
 49
-0.25
  0
LTYPE
  2
DCTYPE2
 70
    64
  3
__ . . __ . . __ . . __ . . __ . . __ . . __
 72
    65
 73
     6
 40
2.05
 49
1.0
 49
-0.3
 49
0.15
 49
-0.15
 49
0.15
 49
-0.3
  0
LTYPE
  2
DCTYPE3
 70
    64
  3
__ . . __ . . __ . . __ . . __ . . __ . . __
 72
    65
 73
     6
 40
2.5
 49
0.8
 49
-0.2
 49
0.8
 49
-0.2
 49
0.3
 49
-0.2
  0
LTYPE
  2
DCTYPE4
 70
    64
  3
__ . . __ . . __ . . __ . . __ . . __ . . __
 72
    65
 73
     10
 40
3.97
 49
1.75
 49
-0.3
 49
0.3
 49
-0.3
 49
0.06
 49
-0.3
 49
0.06
 49
-0.3
 49
0.3
 49
-0.3
  0
ENDTAB
  0
TABLE
  2
LAYER
 70
    153
  0
LAYER
  2
LAYER1
 70
 64
 62
     7
  6
CONTINUOUS
  0
LAYER
  2
LAYER12
 70
 64
 62
     5
  6
CONTINUOUS
  0
ENDTAB
  0
ENDSEC
  0
SECTION
  2
BLOCKS
  0
ENDSEC
  0
SECTION
  2
ENTITIES
  0
CIRCLE
  8
LAYER1
 62
     7
  6
CONTINUOUS
 10
4.1509
 20
5.6056
 40
0.0128
  0
CIRCLE
  8
LAYER1
 62
     7
  6
CONTINUOUS
 10
4.2585
 20
5.6493
 40
0.0100
  0
CIRCLE
  8
LAYER1
 62
     7
  6
CONTINUOUS
 10
4.3376
 20
5.7807
 40
0.0207
  0
CIRCLE
  8
LAYER1
 62
     7
  6
CONTINUOUS
 10
4.5620
 20
5.6924
 40
0.0153
  0
CIRCLE
  8
LAYER1
 62
     7
  6
CONTINUOUS
 10
4.7477
 20
5.7092
 40
0.0104
  0
CIRCLE
  8
LAYER1
 62
     7
  6
CONTINUOUS
 10
4.6542
 20
5.7611
 40
0.0126
  0
CIRCLE
  8
LAYER1
 62
     7
  6
CONTINUOUS
 10
4.6080
 20
5.8737
 40
0.0159
  0
CIRCLE
  8
LAYER1
 62
     7
  6
CONTINUOUS
 10
4.7765
 20
5.8451
 40
0.0237
  0
CIRCLE
  8
LAYER1
 62
     7
  6
CONTINUOUS
 10
4.7305
 20
5.9326
 40
0.0178
  0
CIRCLE
  8
LAYER1
 62
     7
  6
CONTINUOUS
 10
4.7502
 20
5.9679
 40
0.0146
  0
CIRCLE
  8
LAYER1
 62
     7
  6
CONTINUOUS
 10
4.7954
 20
5.9709
 40
0.0307
  0
CIRCLE
  8
LAYER1
 62
     7
  6
CONTINUOUS
 10
4.8553
 20
6.0091
 40
0.0128
  0
CIRCLE
  8
LAYER1
 62
     7
  6
CONTINUOUS
 10
4.9464
 20
6.2059
 40
0.0126
  0
CIRCLE
  8
LAYER1
 62
     7
  6
CONTINUOUS
 10
4.5679
 20
6.3882
 40
0.0226
  0
CIRCLE
  8
LAYER1
 62
     7
  6
CONTINUOUS
 10
4.6588
 20
6.3388
 40
0.0226
  0
CIRCLE
  8
LAYER1
 62
     7
  6
CONTINUOUS
 10
4.7400
 20
6.2517
 40
0.0256
  0
CIRCLE
  8
LAYER1
 62
     7
  6
CONTINUOUS
 10
4.6486
 20
6.0951
 40
0.0202
  0
CIRCLE
  8
LAYER1
 62
     7
  6
CONTINUOUS
 10
4.5859
 20
6.0819
 40
0.0232
  0
CIRCLE
  8
LAYER1
 62
     7
  6
CONTINUOUS
 10
4.5347
 20
6.1869
 40
0.0161
  0
CIRCLE
  8
LAYER1
 62
     7
  6
CONTINUOUS
 10
4.4719
 20
6.1888
 40
0.0203
  0
CIRCLE
  8
LAYER1
 62
     7
  6
CONTINUOUS
 10
4.4684
 20
6.2918
 40
0.0104
  0
CIRCLE
  8
LAYER1
 62
     7
  6
CONTINUOUS
 10
4.3979
 20
6.3087
 40
0.0100
  0
CIRCLE
  8
LAYER1
 62
     7
  6
CONTINUOUS
 10
4.3674
 20
6.3436
 40
0.0151
  0
CIRCLE
  8
LAYER1
 62
     7
  6
CONTINUOUS
 10
4.2946
 20
6.3379
 40
0.0215
  0
CIRCLE
  8
LAYER1
 62
     7
  6
CONTINUOUS
 10
4.2222
 20
6.2919
 40
0.0251
  0
CIRCLE
  8
LAYER1
 62
     7
  6
CONTINUOUS
 10
4.1821
 20
6.2891
 40
0.0075
  0
CIRCLE
  8
LAYER1
 62
     7
  6
CONTINUOUS
 10
4.1178
 20
6.4416
 40
0.0153
  0
CIRCLE
  8
LAYER1
 62
     7
  6
CONTINUOUS
 10
4.1309
 20
6.3840
 40
0.0126
  0
CIRCLE
  8
LAYER1
 62
     7
  6
CONTINUOUS
 10
4.0909
 20
6.3635
 40
0.0090
  0
CIRCLE
  8
LAYER1
 62
     7
  6
CONTINUOUS
 10
4.0887
 20
6.3359
 40
0.0169
  0
CIRCLE
  8
LAYER1
 62
     7
  6
CONTINUOUS
 10
4.8231
 20
6.4986
 40
0.0159
  0
CIRCLE
  8
LAYER1
 62
     7
  6
CONTINUOUS
 10
4.8836
 20
6.4665
 40
0.0126
  0
CIRCLE
  8
LAYER1
 62
     7
  6
CONTINUOUS
 10
4.8938
 20
6.4541
 40
0.0112
  0
CIRCLE
  8
LAYER1
 62
     7
  6
CONTINUOUS
 10
5.0225
 20
6.3875
 40
0.0128
  0
CIRCLE
  8
LAYER1
 62
     7
  6
CONTINUOUS
 10
4.9470
 20
6.4094
 40
0.0196
  0
CIRCLE
  8
LAYER1
 62
     7
  6
CONTINUOUS
 10
4.8907
 20
6.5143
 40
0.0056
  0
CIRCLE
  8
LAYER1
 62
     7
  6
CONTINUOUS
 10
4.9260
 20
6.5021
 40
0.0079
  0
CIRCLE
  8
LAYER1
 62
     7
  6
CONTINUOUS
 10
4.9888
 20
6.4977
 40
0.0091
  0
CIRCLE
  8
LAYER1
 62
     7
  6
CONTINUOUS
 10
4.8819
 20
5.5925
 40
0.0176
  0
CIRCLE
  8
LAYER1
 62
     7
  6
CONTINUOUS
 10
4.9744
 20
5.6335
 40
0.0128
  0
ARC
  8
LAYER1
 62
     7
  6
CONTINUOUS
 10
4.0636
 20
6.0694
 40
0.0151
 50
-89.4542
 51
100.7783
  0
ARC
  8
LAYER1
 62
     7
  6
CONTINUOUS
 10
4.0636
 20
6.0694
 40
0.0151
 50
-100.7783
 51
-89.4542
  0
ARC
  8
LAYER1
 62
     7
  6
CONTINUOUS
 10
5.0315
 20
6.4981
 40
0.0178
 50
51.3479
 51
-97.5653
  0
ARC
  8
LAYER1
 62
     7
  6
CONTINUOUS
 10
4.0636
 20
6.0694
 40
0.0151
 50
100.7783
 51
108.0794
  0
ARC
  8
LAYER1
 62
     7
  6
CONTINUOUS
 10
4.0636
 20
6.0694
 40
0.0151
 50
-108.0726
 51
-100.7780
  0
POLYLINE
  8
LAYER1
 62
     7
 66
     1
  6
CONTINUOUS
  0
VERTEX
  8
LAYER1
 62
     7
  6
CONTINUOUS
 10
4.8550
 20
6.5235
  0
VERTEX
  8
LAYER1
 62
     7
  6
CONTINUOUS
 10
4.8550
 20
6.5235
  0
VERTEX
  8
LAYER1
 62
     7
  6
CONTINUOUS
 10
4.8550
 20
6.5235
  0
VERTEX
  8
LAYER1
 62
     7
  6
CONTINUOUS
 10
4.8550
 20
6.5235
  0
VERTEX
  8
LAYER1
 62
     7
  6
CONTINUOUS
 10
4.8550
 20
6.5235
  0
VERTEX
  8
LAYER1
 62
     7
  6
CONTINUOUS
 10
4.8550
 20
6.5235
  0
VERTEX
  8
LAYER1
 62
     7
  6
CONTINUOUS
 10
4.8550
 20
6.5235
  0
VERTEX
  8
LAYER1
 62
     7
  6
CONTINUOUS
 10
4.8550
 20
6.5235
  0
VERTEX
  8
LAYER1
 62
     7
  6
CONTINUOUS
 10
4.8550
 20
6.5235
  0
VERTEX
  8
LAYER1
 62
     7
  6
CONTINUOUS
 10
4.8550
 20
6.5235
  0
VERTEX
  8
LAYER1
 62
     7
  6
CONTINUOUS
 10
4.8550
 20
6.5235
  0
VERTEX
  8
LAYER1
 62
     7
  6
CONTINUOUS
 10
4.8550
 20
6.5235
  0
VERTEX
  8
LAYER1
 62
     7
  6
CONTINUOUS
 10
4.8550
 20
6.5235
  0
VERTEX
  8
LAYER1
 62
     7
  6
CONTINUOUS
 10
4.8550
 20
6.5235
  0
VERTEX
  8
LAYER1
 62
     7
  6
CONTINUOUS
 10
4.8550
 20
6.5235
  0
VERTEX
  8
LAYER1
 62
     7
  6
CONTINUOUS
 10
4.8550
 20
6.5235
  0
VERTEX
  8
LAYER1
 62
     7
  6
CONTINUOUS
 10
4.8550
 20
6.5235
  0
VERTEX
  8
LAYER1
 62
     7
  6
CONTINUOUS
 10
4.8550
 20
6.5235
  0
VERTEX
  8
LAYER1
 62
     7
  6
CONTINUOUS
 10
4.8550
 20
6.5235
  0
VERTEX
  8
LAYER1
 62
     7
  6
CONTINUOUS
 10
4.8550
 20
6.5235
  0
VERTEX
  8
LAYER1
 62
     7
  6
CONTINUOUS
 10
4.8550
 20
6.5235
  0
VERTEX
  8
LAYER1
 62
     7
  6
CONTINUOUS
 10
4.8550
 20
6.5235
  0
VERTEX
  8
LAYER1
 62
     7
  6
CONTINUOUS
 10
4.8550
 20
6.5235
  0
VERTEX
  8
LAYER1
 62
     7
  6
CONTINUOUS
 10
4.8550
 20
6.5235
  0
VERTEX
  8
LAYER1
 62
     7
  6
CONTINUOUS
 10
4.8550
 20
6.5235
  0
SEQEND
  8
LAYER1
  0
POLYLINE
  8
LAYER1
 62
     7
 66
     1
  6
CONTINUOUS
  0
VERTEX
  8
LAYER1
 62
     7
  6
CONTINUOUS
 10
4.8550
 20
6.5235
  0
VERTEX
  8
LAYER1
 62
     7
  6
CONTINUOUS
 10
4.8550
 20
6.5235
  0
VERTEX
  8
LAYER1
 62
     7
  6
CONTINUOUS
 10
4.8550
 20
6.5235
  0
VERTEX
  8
LAYER1
 62
     7
  6
CONTINUOUS
 10
4.8550
 20
6.5235
  0
VERTEX
  8
LAYER1
 62
     7
  6
CONTINUOUS
 10
4.8550
 20
6.5235
  0
VERTEX
  8
LAYER1
 62
     7
  6
CONTINUOUS
 10
4.8550
 20
6.5235
  0
VERTEX
  8
LAYER1
 62
     7
  6
CONTINUOUS
 10
4.8550
 20
6.5235
  0
VERTEX
  8
LAYER1
 62
     7
  6
CONTINUOUS
 10
4.8550
 20
6.5235
  0
VERTEX
  8
LAYER1
 62
     7
  6
CONTINUOUS
 10
4.8550
 20
6.5235
  0
VERTEX
  8
LAYER1
 62
     7
  6
CONTINUOUS
 10
4.8550
 20
6.5235
  0
VERTEX
  8
LAYER1
 62
     7
  6
CONTINUOUS
 10
4.8550
 20
6.5235
  0
VERTEX
  8
LAYER1
 62
     7
  6
CONTINUOUS
 10
4.8550
 20
6.5235
  0
VERTEX
  8
LAYER1
 62
     7
  6
CONTINUOUS
 10
4.8550
 20
6.5235
  0
VERTEX
  8
LAYER1
 62
     7
  6
CONTINUOUS
 10
4.8550
 20
6.5235
  0
VERTEX
  8
LAYER1
 62
     7
  6
CONTINUOUS
 10
4.8550
 20
6.5235
  0
VERTEX
  8
LAYER1
 62
     7
  6
CONTINUOUS
 10
4.8550
 20
6.5235
  0
VERTEX
  8
LAYER1
 62
     7
  6
CONTINUOUS
 10
4.8550
 20
6.5235
  0
VERTEX
  8
LAYER1
 62
     7
  6
CONTINUOUS
 10
4.8550
 20
6.5235
  0
VERTEX
  8
LAYER1
 62
     7
  6
CONTINUOUS
 10
4.8550
 20
6.5235
  0
VERTEX
  8
LAYER1
 62
     7
  6
CONTINUOUS
 10
4.8550
 20
6.5235
  0
VERTEX
  8
LAYER1
 62
     7
  6
CONTINUOUS
 10
4.8550
 20
6.5235
  0
VERTEX
  8
LAYER1
 62
     7
  6
CONTINUOUS
 10
4.8550
 20
6.5235
  0
VERTEX
  8
LAYER1
 62
     7
  6
CONTINUOUS
 10
4.8550
 20
6.5235
  0
VERTEX
  8
LAYER1
 62
     7
  6
CONTINUOUS
 10
4.8550
 20
6.5235
  0
VERTEX
  8
LAYER1
 62
     7
  6
CONTINUOUS
 10
4.8550
 20
6.5235
  0
SEQEND
  8
LAYER1
  0
POLYLINE
  8
LAYER1
 62
     7
 66
     1
  6
CONTINUOUS
  0
VERTEX
  8
LAYER1
 62
     7
  6
CONTINUOUS
 10
4.8550
 20
6.5235
  0
VERTEX
  8
LAYER1
 62
     7
  6
CONTINUOUS
 10
4.8559
 20
6.5214
  0
VERTEX
  8
LAYER1
 62
     7
  6
CONTINUOUS
 10
4.8569
 20
6.5192
  0
VERTEX
  8
LAYER1
 62
     7
  6
CONTINUOUS
 10
4.8579
 20
6.5171
  0
VERTEX
  8
LAYER1
 62
     7
  6
CONTINUOUS
 10
4.8589
 20
6.5150
  0
VERTEX
  8
LAYER1
 62
     7
  6
CONTINUOUS
 10
4.8600
 20
6.5129
  0
VERTEX
  8
LAYER1
 62
     7
  6
CONTINUOUS
 10
4.8610
 20
6.5108
  0
VERTEX
  8
LAYER1
 62
     7
  6
CONTINUOUS
 10
4.8621
 20
6.5088
  0
VERTEX
  8
LAYER1
 62
     7
  6
CONTINUOUS
 10
4.8633
 20
6.5067
  0
VERTEX
  8
LAYER1
 62
     7
  6
CONTINUOUS
 10
4.8644
 20
6.5047
  0
VERTEX
  8
LAYER1
 62
     7
  6
CONTINUOUS
 10
4.8657
 20
6.5028
  0
VERTEX
  8
LAYER1
 62
     7
  6
CONTINUOUS
 10
4.8669
 20
6.5009
  0
VERTEX
  8
LAYER1
 62
     7
  6
CONTINUOUS
 10
4.8683
 20
6.4990
  0
VERTEX
  8
LAYER1
 62
     7
  6
CONTINUOUS
 10
4.8704
 20
6.4963
  0
VERTEX
  8
LAYER1
 62
     7
  6
CONTINUOUS
 10
4.8727
 20
6.4936
  0
VERTEX
  8
LAYER1
 62
     7
  6
CONTINUOUS
 10
4.8751
 20
6.4911
  0
VERTEX
  8
LAYER1
 62
     7
  6
CONTINUOUS
 10
4.8776
 20
6.4886
  0
VERTEX
  8
LAYER1
 62
     7
  6
CONTINUOUS
 10
4.8801
 20
6.4861
  0
VERTEX
  8
LAYER1
 62
     7
  6
CONTINUOUS
 10
4.8828
 20
6.4837
  0
VERTEX
  8
LAYER1
 62
     7
  6
CONTINUOUS
 10
4.8854
 20
6.4814
  0
VERTEX
  8
LAYER1
 62
     7
  6
CONTINUOUS
 10
4.8881
 20
6.4790
  0
VERTEX
  8
LAYER1
 62
     7
  6
CONTINUOUS
 10
4.8908
 20
6.4766
  0
VERTEX
  8
LAYER1
 62
     7
  6
CONTINUOUS
 10
4.8935
 20
6.4742
  0
VERTEX
  8
LAYER1
 62
     7
  6
CONTINUOUS
 10
4.8961
 20
6.4717
  0
VERTEX
  8
LAYER1
 62
     7
  6
CONTINUOUS
 10
4.8987
 20
6.4692
  0
VERTEX
  8
LAYER1
 62
     7
  6
CONTINUOUS
 10
4.9015
 20
6.4663
  0
VERTEX
  8
LAYER1
 62
     7
  6
CONTINUOUS
 10
4.9042
 20
6.4633
  0
VERTEX
  8
LAYER1
 62
     7
  6
CONTINUOUS
 10
4.9068
 20
6.4602
  0
VERTEX
  8
LAYER1
 62
     7
  6
CONTINUOUS
 10
4.9092
 20
6.4570
  0
VERTEX
  8
LAYER1
 62
     7
  6
CONTINUOUS
 10
4.9116
 20
6.4538
  0
VERTEX
  8
LAYER1
 62
     7
  6
CONTINUOUS
 10
4.9138
 20
6.4505
  0
VERTEX
  8
LAYER1
 62
     7
  6
CONTINUOUS
 10
4.9159
 20
6.4471
  0
VERTEX
  8
LAYER1
 62
     7
  6
CONTINUOUS
 10
4.9179
 20
6.4436
  0
VERTEX
  8
LAYER1
 62
     7
  6
CONTINUOUS
 10
4.9197
 20
6.4401
  0
VERTEX
  8
LAYER1
 62
     7
  6
CONTINUOUS
 10
4.9214
 20
6.4365
  0
VERTEX
  8
LAYER1
 62
     7
  6
CONTINUOUS
 10
4.9229
 20
6.4329
  0
VERTEX
  8
LAYER1
 62
     7
  6
CONTINUOUS
 10
4.9242
 20
6.4292
  0
VERTEX
  8
LAYER1
 62
     7
  6
CONTINUOUS
 10
4.9248
 20
6.4272
  0
VERTEX
  8
LAYER1
 62
     7
  6
CONTINUOUS
 10
4.9254
 20
6.4252
  0
VERTEX
  8
LAYER1
 62
     7
  6
CONTINUOUS
 10
4.9259
 20
6.4232
  0
VERTEX
  8
LAYER1
 62
     7
  6
CONTINUOUS
 10
4.9264
 20
6.4212
  0
VERTEX
  8
LAYER1
 62
     7
  6
CONTINUOUS
 10
4.9269
 20
6.4191
  0
VERTEX
  8
LAYER1
 62
     7
  6
CONTINUOUS
 10
4.9273
 20
6.4170
  0
VERTEX
  8
LAYER1
 62
     7
  6
CONTINUOUS
 10
4.9277
 20
6.4149
  0
VERTEX
  8
LAYER1
 62
     7
  6
CONTINUOUS
 10
4.9281
 20
6.4128
  0
VERTEX
  8
LAYER1
 62
     7
  6
CONTINUOUS
 10
4.9285
 20
6.4107
  0
VERTEX
  8
LAYER1
 62
     7
  6
CONTINUOUS
 10
4.9288
 20
6.4085
  0
VERTEX
  8
LAYER1
 62
     7
  6
CONTINUOUS
 10
4.9291
 20
6.4064
  0
VERTEX
  8
LAYER1
 62
     7
  6
CONTINUOUS
 10
4.9294
 20
6.4042
  0
VERTEX
  8
LAYER1
 62
     7
  6
CONTINUOUS
 10
4.9300
 20
6.4000
  0
VERTEX
  8
LAYER1
 62
     7
  6
CONTINUOUS
 10
4.9306
 20
6.3958
  0
VERTEX
  8
LAYER1
 62
     7
  6
CONTINUOUS
 10
4.9312
 20
6.3916
  0
VERTEX
  8
LAYER1
 62
     7
  6
CONTINUOUS
 10
4.9320
 20
6.3875
  0
VERTEX
  8
LAYER1
 62
     7
  6
CONTINUOUS
 10
4.9328
 20
6.3833
  0
VERTEX
  8
LAYER1
 62
     7
  6
CONTINUOUS
 10
4.9338
 20
6.3793
  0
VERTEX
  8
LAYER1
 62
     7
  6
CONTINUOUS
 10
4.9350
 20
6.3754
  0
VERTEX
  8
LAYER1
 62
     7
  6
CONTINUOUS
 10
4.9364
 20
6.3717
  0
VERTEX
  8
LAYER1
 62
     7
  6
CONTINUOUS
 10
4.9381
 20
6.3682
  0
VERTEX
  8
LAYER1
 62
     7
  6
CONTINUOUS
 10
4.9400
 20
6.3649
  0
VERTEX
  8
LAYER1
 62
     7
  6
CONTINUOUS
 10
4.9423
 20
6.3618
  0
VERTEX
  8
LAYER1
 62
     7
  6
CONTINUOUS
 10
4.9449
 20
6.3591
  0
VERTEX
  8
LAYER1
 62
     7
  6
CONTINUOUS
 10
4.9460
 20
6.3582
  0
VERTEX
  8
LAYER1
 62
     7
  6
CONTINUOUS
 10
4.9472
 20
6.3572
  0
VERTEX
  8
LAYER1
 62
     7
  6
CONTINUOUS
 10
4.9484
 20
6.3564
  0
VERTEX
  8
LAYER1
 62
     7
  6
CONTINUOUS
 10
4.9496
 20
6.3555
  0
VERTEX
  8
LAYER1
 62
     7
  6
CONTINUOUS
 10
4.9509
 20
6.3547
  0
VERTEX
  8
LAYER1
 62
     7
  6
CONTINUOUS
 10
4.9522
 20
6.3539
  0
VERTEX
  8
LAYER1
 62
     7
  6
CONTINUOUS
 10
4.9535
 20
6.3531
  0
VERTEX
  8
LAYER1
 62
     7
  6
CONTINUOUS
 10
4.9548
 20
6.3524
  0
VERTEX
  8
LAYER1
 62
     7
  6
CONTINUOUS
 10
4.9562
 20
6.3516
  0
VERTEX
  8
LAYER1
 62
     7
  6
CONTINUOUS
 10
4.9575
 20
6.3508
  0
VERTEX
  8
LAYER1
 62
     7
  6
CONTINUOUS
 10
4.9588
 20
6.3500
  0
VERTEX
  8
LAYER1
 62
     7
  6
CONTINUOUS
 10
4.9601
 20
6.3492
  0
VERTEX
  8
LAYER1
 62
     7
  6
CONTINUOUS
 10
4.9629
 20
6.3474
  0
VERTEX
  8
LAYER1
 62
     7
  6
CONTINUOUS
 10
4.9655
 20
6.3454
  0
VERTEX
  8
LAYER1
 62
     7
  6
CONTINUOUS
 10
4.9681
 20
6.3434
  0
VERTEX
  8
LAYER1
 62
     7
  6
CONTINUOUS
 10
4.9706
 20
6.3414
  0
VERTEX
  8
LAYER1
 62
     7
  6
CONTINUOUS
 10
4.9731
 20
6.3392
  0
VERTEX
  8
LAYER1
 62
     7
  6
CONTINUOUS
 10
4.9756
 20
6.3371
  0
VERTEX
  8
LAYER1
 62
     7
  6
CONTINUOUS
 10
4.9780
 20
6.3349
  0
VERTEX
  8
LAYER1
 62
     7
  6
CONTINUOUS
 10
4.9805
 20
6.3328
  0
VERTEX
  8
LAYER1
 62
     7
  6
CONTINUOUS
 10
4.9829
 20
6.3306
  0
VERTEX
  8
LAYER1
 62
     7
  6
CONTINUOUS
 10
4.9854
 20
6.3285
  0
VERTEX
  8
LAYER1
 62
     7
  6
CONTINUOUS
 10
4.9879
 20
6.3264
  0
VERTEX
  8
LAYER1
 62
     7
  6
CONTINUOUS
 10
4.9905
 20
6.3244
  0
VERTEX
  8
LAYER1
 62
     7
  6
CONTINUOUS
 10
4.9934
 20
6.3222
  0
VERTEX
  8
LAYER1
 62
     7
  6
CONTINUOUS
 10
4.9963
 20
6.3202
  0
VERTEX
  8
LAYER1
 62
     7
  6
CONTINUOUS
 10
4.9993
 20
6.3182
  0
VERTEX
  8
LAYER1
 62
     7
  6
CONTINUOUS
 10
5.0024
 20
6.3162
  0
VERTEX
  8
LAYER1
 62
     7
  6
CONTINUOUS
 10
5.0054
 20
6.3143
  0
VERTEX
  8
LAYER1
 62
     7
  6
CONTINUOUS
 10
5.0085
 20
6.3123
  0
VERTEX
  8
LAYER1
 62
     7
  6
CONTINUOUS
 10
5.0115
 20
6.3103
  0
VERTEX
  8
LAYER1
 62
     7
  6
CONTINUOUS
 10
5.0145
 20
6.3083
  0
VERTEX
  8
LAYER1
 62
     7
  6
CONTINUOUS
 10
5.0175
 20
6.3063
  0
VERTEX
  8
LAYER1
 62
     7
  6
CONTINUOUS
 10
5.0204
 20
6.3042
  0
VERTEX
  8
LAYER1
 62
     7
  6
CONTINUOUS
 10
5.0232
 20
6.3019
  0
VERTEX
  8
LAYER1
 62
     7
  6
CONTINUOUS
 10
5.0259
 20
6.2996
  0
VERTEX
  8
LAYER1
 62
     7
  6
CONTINUOUS
 10
5.0274
 20
6.2982
  0
VERTEX
  8
LAYER1
 62
     7
  6
CONTINUOUS
 10
5.0289
 20
6.2967
  0
VERTEX
  8
LAYER1
 62
     7
  6
CONTINUOUS
 10
5.0304
 20
6.2952
  0
VERTEX
  8
LAYER1
 62
     7
  6
CONTINUOUS
 10
5.0318
 20
6.2936
  0
VERTEX
  8
LAYER1
 62
     7
  6
CONTINUOUS
 10
5.0332
 20
6.2921
  0
VERTEX
  8
LAYER1
 62
     7
  6
CONTINUOUS
 10
5.0346
 20
6.2905
  0
VERTEX
  8
LAYER1
 62
     7
  6
CONTINUOUS
 10
5.0360
 20
6.2888
  0
VERTEX
  8
LAYER1
 62
     7
  6
CONTINUOUS
 10
5.0373
 20
6.2872
  0
VERTEX
  8
LAYER1
 62
     7
  6
CONTINUOUS
 10
5.0387
 20
6.2856
  0
VERTEX
  8
LAYER1
 62
     7
  6
CONTINUOUS
 10
5.0400
 20
6.2839
  0
VERTEX
  8
LAYER1
 62
     7
  6
CONTINUOUS
 10
5.0413
 20
6.2822
  0
VERTEX
  8
LAYER1
 62
     7
  6
CONTINUOUS
 10
5.0426
 20
6.2805
  0
SEQEND
  8
LAYER1
  0
POLYLINE
  8
LAYER1
 62
     7
 66
     1
  6
CONTINUOUS
  0
VERTEX
  8
LAYER1
 62
     7
  6
CONTINUOUS
 10
4.9568
 20
6.5235
  0
VERTEX
  8
LAYER1
 62
     7
  6
CONTINUOUS
 10
4.9568
 20
6.5235
  0
VERTEX
  8
LAYER1
 62
     7
  6
CONTINUOUS
 10
4.9568
 20
6.5235
  0
VERTEX
  8
LAYER1
 62
     7
  6
CONTINUOUS
 10
4.9568
 20
6.5235
  0
VERTEX
  8
LAYER1
 62
     7
  6
CONTINUOUS
 10
4.9568
 20
6.5235
  0
VERTEX
  8
LAYER1
 62
     7
  6
CONTINUOUS
 10
4.9568
 20
6.5235
  0
VERTEX
  8
LAYER1
 62
     7
  6
CONTINUOUS
 10
4.9568
 20
6.5235
  0
VERTEX
  8
LAYER1
 62
     7
  6
CONTINUOUS
 10
4.9568
 20
6.5235
  0
VERTEX
  8
LAYER1
 62
     7
  6
CONTINUOUS
 10
4.9568
 20
6.5235
  0
VERTEX
  8
LAYER1
 62
     7
  6
CONTINUOUS
 10
4.9568
 20
6.5235
  0
VERTEX
  8
LAYER1
 62
     7
  6
CONTINUOUS
 10
4.9568
 20
6.5235
  0
VERTEX
  8
LAYER1
 62
     7
  6
CONTINUOUS
 10
4.9568
 20
6.5235
  0
VERTEX
  8
LAYER1
 62
     7
  6
CONTINUOUS
 10
4.9568
 20
6.5235
  0
VERTEX
  8
LAYER1
 62
     7
  6
CONTINUOUS
 10
4.9568
 20
6.5235
  0
VERTEX
  8
LAYER1
 62
     7
  6
CONTINUOUS
 10
4.9568
 20
6.5235
  0
VERTEX
  8
LAYER1
 62
     7
  6
CONTINUOUS
 10
4.9568
 20
6.5235
  0
VERTEX
  8
LAYER1
 62
     7
  6
CONTINUOUS
 10
4.9568
 20
6.5235
  0
VERTEX
  8
LAYER1
 62
     7
  6
CONTINUOUS
 10
4.9568
 20
6.5235
  0
VERTEX
  8
LAYER1
 62
     7
  6
CONTINUOUS
 10
4.9568
 20
6.5235
  0
VERTEX
  8
LAYER1
 62
     7
  6
CONTINUOUS
 10
4.9568
 20
6.5235
  0
VERTEX
  8
LAYER1
 62
     7
  6
CONTINUOUS
 10
4.9568
 20
6.5235
  0
VERTEX
  8
LAYER1
 62
     7
  6
CONTINUOUS
 10
4.9568
 20
6.5235
  0
VERTEX
  8
LAYER1
 62
     7
  6
CONTINUOUS
 10
4.9568
 20
6.5235
  0
VERTEX
  8
LAYER1
 62
     7
  6
CONTINUOUS
 10
4.9568
 20
6.5235
  0
VERTEX
  8
LAYER1
 62
     7
  6
CONTINUOUS
 10
4.9568
 20
6.5235
  0
SEQEND
  8
LAYER1
  0
POLYLINE
  8
LAYER1
 62
     7
 66
     1
  6
CONTINUOUS
  0
VERTEX
  8
LAYER1
 62
     7
  6
CONTINUOUS
 10
4.9568
 20
6.5235
  0
VERTEX
  8
LAYER1
 62
     7
  6
CONTINUOUS
 10
4.9568
 20
6.5235
  0
VERTEX
  8
LAYER1
 62
     7
  6
CONTINUOUS
 10
4.9568
 20
6.5235
  0
VERTEX
  8
LAYER1
 62
     7
  6
CONTINUOUS
 10
4.9568
 20
6.5235
  0
VERTEX
  8
LAYER1
 62
     7
  6
CONTINUOUS
 10
4.9568
 20
6.5235
  0
VERTEX
  8
LAYER1
 62
     7
  6
CONTINUOUS
 10
4.9568
 20
6.5235
  0
VERTEX
  8
LAYER1
 62
     7
  6
CONTINUOUS
 10
4.9568
 20
6.5235
  0
VERTEX
  8
LAYER1
 62
     7
  6
CONTINUOUS
 10
4.9568
 20
6.5235
  0
VERTEX
  8
LAYER1
 62
     7
  6
CONTINUOUS
 10
4.9568
 20
6.5235
  0
VERTEX
  8
LAYER1
 62
     7
  6
CONTINUOUS
 10
4.9568
 20
6.5235
  0
VERTEX
  8
LAYER1
 62
     7
  6
CONTINUOUS
 10
4.9568
 20
6.5235
  0
VERTEX
  8
LAYER1
 62
     7
  6
CONTINUOUS
 10
4.9568
 20
6.5235
  0
VERTEX
  8
LAYER1
 62
     7
  6
CONTINUOUS
 10
4.9568
 20
6.5235
  0
VERTEX
  8
LAYER1
 62
     7
  6
CONTINUOUS
 10
4.9568
 20
6.5235
  0
VERTEX
  8
LAYER1
 62
     7
  6
CONTINUOUS
 10
4.9568
 20
6.5235
  0
VERTEX
  8
LAYER1
 62
     7
  6
CONTINUOUS
 10
4.9568
 20
6.5235
  0
VERTEX
  8
LAYER1
 62
     7
  6
CONTINUOUS
 10
4.9568
 20
6.5235
  0
VERTEX
  8
LAYER1
 62
     7
  6
CONTINUOUS
 10
4.9568
 20
6.5235
  0
VERTEX
  8
LAYER1
 62
     7
  6
CONTINUOUS
 10
4.9568
 20
6.5235
  0
VERTEX
  8
LAYER1
 62
     7
  6
CONTINUOUS
 10
4.9568
 20
6.5235
  0
VERTEX
  8
LAYER1
 62
     7
  6
CONTINUOUS
 10
4.9568
 20
6.5235
  0
VERTEX
  8
LAYER1
 62
     7
  6
CONTINUOUS
 10
4.9568
 20
6.5235
  0
VERTEX
  8
LAYER1
 62
     7
  6
CONTINUOUS
 10
4.9568
 20
6.5235
  0
VERTEX
  8
LAYER1
 62
     7
  6
CONTINUOUS
 10
4.9568
 20
6.5235
  0
VERTEX
  8
LAYER1
 62
     7
  6
CONTINUOUS
 10
4.9568
 20
6.5235
  0
SEQEND
  8
LAYER1
  0
POLYLINE
  8
LAYER1
 62
     7
 66
     1
  6
CONTINUOUS
  0
VERTEX
  8
LAYER1
 62
     7
  6
CONTINUOUS
 10
4.9568
 20
6.5235
  0
VERTEX
  8
LAYER1
 62
     7
  6
CONTINUOUS
 10
4.9568
 20
6.5235
  0
VERTEX
  8
LAYER1
 62
     7
  6
CONTINUOUS
 10
4.9568
 20
6.5235
  0
VERTEX
  8
LAYER1
 62
     7
  6
CONTINUOUS
 10
4.9568
 20
6.5235
  0
VERTEX
  8
LAYER1
 62
     7
  6
CONTINUOUS
 10
4.9568
 20
6.5235
  0
VERTEX
  8
LAYER1
 62
     7
  6
CONTINUOUS
 10
4.9568
 20
6.5235
  0
VERTEX
  8
LAYER1
 62
     7
  6
CONTINUOUS
 10
4.9568
 20
6.5235
  0
VERTEX
  8
LAYER1
 62
     7
  6
CONTINUOUS
 10
4.9568
 20
6.5235
  0
VERTEX
  8
LAYER1
 62
     7
  6
CONTINUOUS
 10
4.9568
 20
6.5235
  0
VERTEX
  8
LAYER1
 62
     7
  6
CONTINUOUS
 10
4.9568
 20
6.5235
  0
VERTEX
  8
LAYER1
 62
     7
  6
CONTINUOUS
 10
4.9568
 20
6.5235
  0
VERTEX
  8
LAYER1
 62
     7
  6
CONTINUOUS
 10
4.9568
 20
6.5235
  0
VERTEX
  8
LAYER1
 62
     7
  6
CONTINUOUS
 10
4.9568
 20
6.5235
  0
VERTEX
  8
LAYER1
 62
     7
  6
CONTINUOUS
 10
4.9568
 20
6.5235
  0
VERTEX
  8
LAYER1
 62
     7
  6
CONTINUOUS
 10
4.9568
 20
6.5235
  0
VERTEX
  8
LAYER1
 62
     7
  6
CONTINUOUS
 10
4.9568
 20
6.5235
  0
VERTEX
  8
LAYER1
 62
     7
  6
CONTINUOUS
 10
4.9568
 20
6.5235
  0
VERTEX
  8
LAYER1
 62
     7
  6
CONTINUOUS
 10
4.9568
 20
6.5235
  0
VERTEX
  8
LAYER1
 62
     7
  6
CONTINUOUS
 10
4.9568
 20
6.5235
  0
VERTEX
  8
LAYER1
 62
     7
  6
CONTINUOUS
 10
4.9568
 20
6.5235
  0
VERTEX
  8
LAYER1
 62
     7
  6
CONTINUOUS
 10
4.9568
 20
6.5235
  0
VERTEX
  8
LAYER1
 62
     7
  6
CONTINUOUS
 10
4.9568
 20
6.5235
  0
VERTEX
  8
LAYER1
 62
     7
  6
CONTINUOUS
 10
4.9568
 20
6.5235
  0
VERTEX
  8
LAYER1
 62
     7
  6
CONTINUOUS
 10
4.9568
 20
6.5235
  0
VERTEX
  8
LAYER1
 62
     7
  6
CONTINUOUS
 10
4.9568
 20
6.5235
  0
SEQEND
  8
LAYER1
  0
POLYLINE
  8
LAYER1
 62
     7
 66
     1
  6
CONTINUOUS
  0
VERTEX
  8
LAYER1
 62
     7
  6
CONTINUOUS
 10
4.9568
 20
6.5235
  0
VERTEX
  8
LAYER1
 62
     7
  6
CONTINUOUS
 10
4.9568
 20
6.5235
  0
VERTEX
  8
LAYER1
 62
     7
  6
CONTINUOUS
 10
4.9568
 20
6.5235
  0
VERTEX
  8
LAYER1
 62
     7
  6
CONTINUOUS
 10
4.9568
 20
6.5235
  0
VERTEX
  8
LAYER1
 62
     7
  6
CONTINUOUS
 10
4.9568
 20
6.5235
  0
VERTEX
  8
LAYER1
 62
     7
  6
CONTINUOUS
 10
4.9568
 20
6.5235
  0
VERTEX
  8
LAYER1
 62
     7
  6
CONTINUOUS
 10
4.9568
 20
6.5235
  0
VERTEX
  8
LAYER1
 62
     7
  6
CONTINUOUS
 10
4.9568
 20
6.5235
  0
VERTEX
  8
LAYER1
 62
     7
  6
CONTINUOUS
 10
4.9568
 20
6.5235
  0
VERTEX
  8
LAYER1
 62
     7
  6
CONTINUOUS
 10
4.9568
 20
6.5235
  0
VERTEX
  8
LAYER1
 62
     7
  6
CONTINUOUS
 10
4.9568
 20
6.5235
  0
VERTEX
  8
LAYER1
 62
     7
  6
CONTINUOUS
 10
4.9568
 20
6.5235
  0
VERTEX
  8
LAYER1
 62
     7
  6
CONTINUOUS
 10
4.9568
 20
6.5235
  0
VERTEX
  8
LAYER1
 62
     7
  6
CONTINUOUS
 10
4.9568
 20
6.5235
  0
VERTEX
  8
LAYER1
 62
     7
  6
CONTINUOUS
 10
4.9568
 20
6.5235
  0
VERTEX
  8
LAYER1
 62
     7
  6
CONTINUOUS
 10
4.9568
 20
6.5235
  0
VERTEX
  8
LAYER1
 62
     7
  6
CONTINUOUS
 10
4.9568
 20
6.5235
  0
VERTEX
  8
LAYER1
 62
     7
  6
CONTINUOUS
 10
4.9568
 20
6.5235
  0
VERTEX
  8
LAYER1
 62
     7
  6
CONTINUOUS
 10
4.9568
 20
6.5235
  0
VERTEX
  8
LAYER1
 62
     7
  6
CONTINUOUS
 10
4.9568
 20
6.5235
  0
VERTEX
  8
LAYER1
 62
     7
  6
CONTINUOUS
 10
4.9568
 20
6.5235
  0
VERTEX
  8
LAYER1
 62
     7
  6
CONTINUOUS
 10
4.9568
 20
6.5235
  0
VERTEX
  8
LAYER1
 62
     7
  6
CONTINUOUS
 10
4.9568
 20
6.5235
  0
VERTEX
  8
LAYER1
 62
     7
  6
CONTINUOUS
 10
4.9568
 20
6.5235
  0
VERTEX
  8
LAYER1
 62
     7
  6
CONTINUOUS
 10
4.9568
 20
6.5235
  0
SEQEND
  8
LAYER1
  0
POLYLINE
  8
LAYER1
 62
     7
 66
     1
  6
CONTINUOUS
  0
VERTEX
  8
LAYER1
 62
     7
  6
CONTINUOUS
 10
4.9568
 20
6.5235
  0
VERTEX
  8
LAYER1
 62
     7
  6
CONTINUOUS
 10
4.9593
 20
6.5209
  0
VERTEX
  8
LAYER1
 62
     7
  6
CONTINUOUS
 10
4.9618
 20
6.5182
  0
VERTEX
  8
LAYER1
 62
     7
  6
CONTINUOUS
 10
4.9643
 20
6.5156
  0
VERTEX
  8
LAYER1
 62
     7
  6
CONTINUOUS
 10
4.9667
 20
6.5129
  0
VERTEX
  8
LAYER1
 62
     7
  6
CONTINUOUS
 10
4.9691
 20
6.5102
  0
VERTEX
  8
LAYER1
 62
     7
  6
CONTINUOUS
 10
4.9715
 20
6.5075
  0
VERTEX
  8
LAYER1
 62
     7
  6
CONTINUOUS
 10
4.9738
 20
6.5048
  0
VERTEX
  8
LAYER1
 62
     7
  6
CONTINUOUS
 10
4.9760
 20
6.5019
  0
VERTEX
  8
LAYER1
 62
     7
  6
CONTINUOUS
 10
4.9781
 20
6.4991
  0
VERTEX
  8
LAYER1
 62
     7
  6
CONTINUOUS
 10
4.9802
 20
6.4961
  0
VERTEX
  8
LAYER1
 62
     7
  6
CONTINUOUS
 10
4.9821
 20
6.4932
  0
VERTEX
  8
LAYER1
 62
     7
  6
CONTINUOUS
 10
4.9839
 20
6.4901
  0
VERTEX
  8
LAYER1
 62
     7
  6
CONTINUOUS
 10
4.9864
 20
6.4853
  0
VERTEX
  8
LAYER1
 62
     7
  6
CONTINUOUS
 10
4.9886
 20
6.4803
  0
VERTEX
  8
LAYER1
 62
     7
  6
CONTINUOUS
 10
4.9907
 20
6.4752
  0
VERTEX
  8
LAYER1
 62
     7
  6
CONTINUOUS
 10
4.9926
 20
6.4701
  0
VERTEX
  8
LAYER1
 62
     7
  6
CONTINUOUS
 10
4.9945
 20
6.4649
  0
VERTEX
  8
LAYER1
 62
     7
  6
CONTINUOUS
 10
4.9963
 20
6.4597
  0
VERTEX
  8
LAYER1
 62
     7
  6
CONTINUOUS
 10
4.9981
 20
6.4545
  0
VERTEX
  8
LAYER1
 62
     7
  6
CONTINUOUS
 10
5.0001
 20
6.4493
  0
VERTEX
  8
LAYER1
 62
     7
  6
CONTINUOUS
 10
5.0021
 20
6.4443
  0
VERTEX
  8
LAYER1
 62
     7
  6
CONTINUOUS
 10
5.0043
 20
6.4394
  0
VERTEX
  8
LAYER1
 62
     7
  6
CONTINUOUS
 10
5.0068
 20
6.4346
  0
VERTEX
  8
LAYER1
 62
     7
  6
CONTINUOUS
 10
5.0096
 20
6.4300
  0
VERTEX
  8
LAYER1
 62
     7
  6
CONTINUOUS
 10
5.0117
 20
6.4270
  0
VERTEX
  8
LAYER1
 62
     7
  6
CONTINUOUS
 10
5.0140
 20
6.4240
  0
VERTEX
  8
LAYER1
 62
     7
  6
CONTINUOUS
 10
5.0165
 20
6.4211
  0
VERTEX
  8
LAYER1
 62
     7
  6
CONTINUOUS
 10
5.0191
 20
6.4183
  0
VERTEX
  8
LAYER1
 62
     7
  6
CONTINUOUS
 10
5.0217
 20
6.4156
  0
VERTEX
  8
LAYER1
 62
     7
  6
CONTINUOUS
 10
5.0245
 20
6.4129
  0
VERTEX
  8
LAYER1
 62
     7
  6
CONTINUOUS
 10
5.0274
 20
6.4103
  0
VERTEX
  8
LAYER1
 62
     7
  6
CONTINUOUS
 10
5.0304
 20
6.4077
  0
VERTEX
  8
LAYER1
 62
     7
  6
CONTINUOUS
 10
5.0334
 20
6.4052
  0
VERTEX
  8
LAYER1
 62
     7
  6
CONTINUOUS
 10
5.0364
 20
6.4027
  0
VERTEX
  8
LAYER1
 62
     7
  6
CONTINUOUS
 10
5.0395
 20
6.4003
  0
VERTEX
  8
LAYER1
 62
     7
  6
CONTINUOUS
 10
5.0426
 20
6.3978
  0
SEQEND
  8
LAYER1
  0
ARC
  8
LAYER1
 62
     7
  6
CONTINUOUS
 10
5.0315
 20
6.4981
 40
0.0178
 50
-97.5645
 51
-51.3484
  0
ARC
  8
LAYER1
 62
     7
  6
CONTINUOUS
 10
4.0636
 20
6.0694
 40
0.0151
 50
108.0782
 51
114.0768
  0
ARC
  8
LAYER1
 62
     7
  6
CONTINUOUS
 10
4.0636
 20
6.0694
 40
0.0151
 50
-114.0763
 51
-108.0725
  0
ARC
  8
LAYER1
 62
     7
  6
CONTINUOUS
 10
4.9886
 20
6.5178
 40
0.0135
 50
154.8716
 51
25.1284
  0
POLYLINE
  8
LAYER12
 62
     5
 66
     1
  6
CONTINUOUS
  0
VERTEX
  8
LAYER12
 62
     5
  6
CONTINUOUS
 10
4.0589
 20
5.5398
  0
VERTEX
  8
LAYER12
 62
     5
  6
CONTINUOUS
 10
4.0589
 20
5.5398
  0
SEQEND
  8
LAYER12
  0
POLYLINE
  8
LAYER12
 62
     5
 66
     1
  6
CONTINUOUS
  0
VERTEX
  8
LAYER12
 62
     5
  6
CONTINUOUS
 10
4.0589
 20
5.5398
  0
VERTEX
  8
LAYER12
 62
     5
  6
CONTINUOUS
 10
4.0589
 20
5.5398
  0
SEQEND
  8
LAYER12
  0
POLYLINE
  8
LAYER12
 62
     5
 66
     1
  6
CONTINUOUS
  0
VERTEX
  8
LAYER12
 62
     5
  6
CONTINUOUS
 10
4.0608
 20
5.5398
  0
VERTEX
  8
LAYER12
 62
     5
  6
CONTINUOUS
 10
4.0589
 20
5.5398
  0
SEQEND
  8
LAYER12
  0
POLYLINE
  8
LAYER12
 62
     5
 66
     1
  6
CONTINUOUS
  0
VERTEX
  8
LAYER12
 62
     5
  6
CONTINUOUS
 10
5.0426
 20
5.5398
  0
VERTEX
  8
LAYER12
 62
     5
  6
CONTINUOUS
 10
4.0608
 20
5.5398
  0
SEQEND
  8
LAYER12
  0
POLYLINE
  8
LAYER12
 62
     5
 66
     1
  6
CONTINUOUS
  0
VERTEX
  8
LAYER12
 62
     5
  6
CONTINUOUS
 10
4.0589
 20
5.5398
  0
VERTEX
  8
LAYER12
 62
     5
  6
CONTINUOUS
 10
4.0574
 20
5.5398
  0
SEQEND
  8
LAYER12
  0
POLYLINE
  8
LAYER12
 62
     5
 66
     1
  6
CONTINUOUS
  0
VERTEX
  8
LAYER12
 62
     5
  6
CONTINUOUS
 10
4.0589
 20
5.5398
  0
VERTEX
  8
LAYER12
 62
     5
  6
CONTINUOUS
 10
4.0589
 20
5.5399
  0
SEQEND
  8
LAYER12
  0
POLYLINE
  8
LAYER12
 62
     5
 66
     1
  6
CONTINUOUS
  0
VERTEX
  8
LAYER12
 62
     5
  6
CONTINUOUS
 10
4.0574
 20
6.5235
  0
VERTEX
  8
LAYER12
 62
     5
  6
CONTINUOUS
 10
4.0589
 20
6.5235
  0
SEQEND
  8
LAYER12
  0
POLYLINE
  8
LAYER12
 62
     5
 66
     1
  6
CONTINUOUS
  0
VERTEX
  8
LAYER12
 62
     5
  6
CONTINUOUS
 10
4.0589
 20
6.5235
  0
VERTEX
  8
LAYER12
 62
     5
  6
CONTINUOUS
 10
4.0608
 20
6.5235
  0
SEQEND
  8
LAYER12
  0
POLYLINE
  8
LAYER12
 62
     5
 66
     1
  6
CONTINUOUS
  0
VERTEX
  8
LAYER12
 62
     5
  6
CONTINUOUS
 10
4.0608
 20
6.5235
  0
VERTEX
  8
LAYER12
 62
     5
  6
CONTINUOUS
 10
5.0426
 20
6.5235
  0
SEQEND
  8
LAYER12
  0
POLYLINE
  8
LAYER12
 62
     5
 66
     1
  6
CONTINUOUS
  0
VERTEX
  8
LAYER12
 62
     5
  6
CONTINUOUS
 10
4.0589
 20
6.5235
  0
VERTEX
  8
LAYER12
 62
     5
  6
CONTINUOUS
 10
4.0589
 20
5.5399
  0
SEQEND
  8
LAYER12
  0
POLYLINE
  8
LAYER12
 62
     5
 66
     1
  6
CONTINUOUS
  0
VERTEX
  8
LAYER12
 62
     5
  6
CONTINUOUS
 10
4.0589
 20
5.5399
  0
VERTEX
  8
LAYER12
 62
     5
  6
CONTINUOUS
 10
4.0589
 20
5.5398
  0
SEQEND
  8
LAYER12
  0
POLYLINE
  8
LAYER12
 62
     5
 66
     1
  6
CONTINUOUS
  0
VERTEX
  8
LAYER12
 62
     5
  6
CONTINUOUS
 10
5.0426
 20
5.5399
  0
VERTEX
  8
LAYER12
 62
     5
  6
CONTINUOUS
 10
5.0426
 20
5.5398
  0
SEQEND
  8
LAYER12
  0
POLYLINE
  8
LAYER12
 62
     5
 66
     1
  6
CONTINUOUS
  0
VERTEX
  8
LAYER12
 62
     5
  6
CONTINUOUS
 10
5.0426
 20
5.5398
  0
VERTEX
  8
LAYER12
 62
     5
  6
CONTINUOUS
 10
5.0426
 20
5.5399
  0
SEQEND
  8
LAYER12
  0
POLYLINE
  8
LAYER12
 62
     5
 66
     1
  6
CONTINUOUS
  0
VERTEX
  8
LAYER12
 62
     5
  6
CONTINUOUS
 10
5.0426
 20
5.5399
  0
VERTEX
  8
LAYER12
 62
     5
  6
CONTINUOUS
 10
5.0426
 20
6.5235
  0
SEQEND
  8
LAYER12
  0
ENDSEC
  0
EOF
