  0
SECTION
  2
HEADER
  9
$ACADVER
  1
AC1004
  9
$EXTMIN
 10
5.0426
 20
5.5398
  9
$EXTMAX
 10
6.0688
 20
6.5235
  9
$LIMMIN
 10
5.0426
 20
5.5398
  9
$LIMMAX
 10
6.0688
 20
6.5235
  9
$INSBASE
 10
0.0
 20
0.0
  9
$VIEWCTR
 10
7.21903
 20
4.5
  9
$VIEWSIZE
 40
9.0
  9
$SNAPMODE
 70
     0
  9
$SNAPUNIT
 10
1.0
 20
1.0
  9
$SNAPBASE
 10
0.0
 20
0.0
  9
$SNAPANG
 50
0.0
  9
$SNAPSTYLE
 70
     0
  9
$SNAPISOPAIR
 70
     0
  9
$GRIDMODE
 70
     0
  9
$GRIDUNIT
 10
0.0
 20
0.0
  9
$ORTHOMODE
 70
     0
  9
$REGENMODE
 70
     1
  9
$FILLMODE
 70
     1
  9
$QTEXTMODE
 70
     0
  9
$DRAGMODE
 70
     2
  9
$LTSCALE
 40
1.0
  9
$OSMODE
 70
     0
  9
$ATTMODE
 70
     1
  9
$TEXTSIZE
 40
0.2
  9
$TRACEWID
 40
0.05
  9
$TEXTSTYLE
  7
STANDARD
  9
$CLAYER
  8
0
  9
$CELTYPE
  6
BYLAYER
  9
$CECOLOR
 62
   256
  9
$DIMSCALE
 40
1.0
  9
$DIMASZ
 40
0.18
  9
$DIMEXO
 40
0.0625
  9
$DIMDLI
 40
0.38
  9
$DIMRND
 40
0.0
  9
$DIMDLE
 40
0.0
  9
$DIMEXE
 40
0.18
  9
$DIMTP
 40
0.0
  9
$DIMTM
 40
0.0
  9
$DIMTXT
 40
0.18
  9
$DIMCEN
 40
0.09
  9
$DIMTSZ
 40
0.0
  9
$DIMTOL
 70
     0
  9
$DIMLIM
 70
     0
  9
$DIMTIH
 70
     1
  9
$DIMTOH
 70
     1
  9
$DIMSE1
 70
     0
  9
$DIMSE2
 70
     0
  9
$DIMTAD
 70
     0
  9
$DIMZIN
 70
     0
  9
$DIMBLK
  1

  9
$DIMASO
 70
     1
  9
$DIMSHO
 70
     0
  9
$DIMPOST
  1

  9
$DIMAPOST
  1

  9
$DIMALT
 70
     0
  9
$DIMALTD
 70
     2
  9
$DIMALTF
 40
25.4
  9
$DIMLFAC
 40
1.0
  9
$LUNITS
 70
     2
  9
$LUPREC
 70
     4
  9
$AXISMODE
 70
     0
  9
$AXISUNIT
 10
0.0
 20
0.0
  9
$SKETCHINC
 40
0.1
  9
$FILLETRAD
 40
0.0
  9
$AUNITS
 70
     0
  9
$AUPREC
 70
     0
  9
$MENU
  1
acad
  9
$ELEVATION
 40
0.0
  9
$THICKNESS
 40
0.0
  9
$VIEWDIR
 10
0.0
 20
0.0
 30
1.0
  9
$LIMCHECK
 70
     0
  9
$BLIPMODE
 70
     1
  9
$CHAMFERA
 40
0.0
  9
$CHAMFERB
 40
0.0
  9
$FASTZOOM
 70
     1
  9
$SKPOLY
 70
     0
  9
$TDCREATE
 40
2447222.5666886573
  9
$TDUPDATE
 40
2447222.5666886573
  9
$TDINDWG
 40
0.0000000000
  9
$TDUSRTIMER
 40
0.0000000000
  9
$USRTIMER
 70
     1
  9
$ANGBASE
 50
0.0
  9
$ANGDIR
 70
     0
  9
$PDMODE
 70
     0
  9
$PDSIZE
 40
0.0
  9
$PLINEWID
 40
0.0
  9
$COORDS
 70
     0
  9
$SPLFRAME
 70
     0
  9
$SPLINESEGS
 70
     8
  9
$ATTDIA
 70
     0
  9
$ATTREQ
 70
     1
  9
$USERI1
 70
     0
  9
$USERI2
 70
     0
  9
$USERI3
 70
     0
  9
$USERI4
 70
     0
  9
$USERI5
 70
     0
  9
$USERR1
 40
0.0
  9
$USERR2
 40
0.0
  9
$USERR3
 40
0.0
  9
$USERR4
 40
0.0
  9
$USERR5
 40
0.0
  0
ENDSEC
  0
SECTION
  2
TABLES
  0
TABLE
  2
LTYPE
 70
     13
  0
LTYPE
  2
CONTINUOUS
 70
    64
  3
Solid line
 72
    65
 73
     0
 40
0.0
  0
LTYPE
  2
DASHED
 70
    64
  3
__ __ __ __ __ __ __ __ __ __ __ __ __ __ __
 72
    65
 73
     2
 40
0.75
 49
0.5
 49
-0.25
  0
LTYPE
  2
HIDDEN
 70
    64
  3
_ _ _ _ _ _ _ _ _ _ _ _ _ _ _ _ _ _ _ _ _ _ _
 72
    65
 73
     2
 40
0.375
 49
0.25
 49
-0.125
  0
LTYPE
  2
CENTER
 70
    64
  3
____ _ ____ _ ____ _ ____ _ ____ _ ____ _ ____
 72
    65
 73
     4
 40
2.0
 49
1.25
 49
-0.25
 49
0.25
 49
-0.25
  0
LTYPE
  2
PHANTOM
 70
    64
  3
_____ _ _ _____ _ _ _____ _ _ _____ _ _ ____
 72
    65
 73
     6
 40
2.5
 49
1.25
 49
-0.25
 49
0.25
 49
-0.25
 49
0.25
 49
-0.25
  0
LTYPE
  2
DOT
 70
    64
  3
...............................................
 72
    65
 73
     2
 40
0.25
 49
0.0
 49
-0.25
  0
LTYPE
  2
DASHDOT
 70
    64
  3
__ . __ . __ . __ . __ . __ . __ . __ . __ . __
 72
    65
 73
     4
 40
1.0
 49
0.5
 49
-0.25
 49
0.0
 49
-0.25
  0
LTYPE
  2
BORDER
 70
    64
  3
__ __ . __ __ . __ __ . __ __ . __ __ . __ __
 72
    65
 73
     6
 40
1.75
 49
0.5
 49
-0.25
 49
0.5
 49
-0.25
 49
0.0
 49
-0.25
  0
LTYPE
  2
DIVIDE
 70
    64
  3
__ . . __ . . __ . . __ . . __ . . __ . . __
 72
    65
 73
     6
 40
1.25
 49
0.5
 49
-0.25
 49
0.0
 49
-0.25
 49
0.0
 49
-0.25
  0
LTYPE
  2
DCTYPE1
 70
    64
  3
__ . . __ . . __ . . __ . . __ . . __ . . __
 72
    65
 73
     8
 40
2.5
 49
0.5
 49
-0.25
 49
0.125
 49
-0.25
 49
0.25
 49
-0.25
 49
0.125
 49
-0.25
  0
LTYPE
  2
DCTYPE2
 70
    64
  3
__ . . __ . . __ . . __ . . __ . . __ . . __
 72
    65
 73
     6
 40
2.05
 49
1.0
 49
-0.3
 49
0.15
 49
-0.15
 49
0.15
 49
-0.3
  0
LTYPE
  2
DCTYPE3
 70
    64
  3
__ . . __ . . __ . . __ . . __ . . __ . . __
 72
    65
 73
     6
 40
2.5
 49
0.8
 49
-0.2
 49
0.8
 49
-0.2
 49
0.3
 49
-0.2
  0
LTYPE
  2
DCTYPE4
 70
    64
  3
__ . . __ . . __ . . __ . . __ . . __ . . __
 72
    65
 73
     10
 40
3.97
 49
1.75
 49
-0.3
 49
0.3
 49
-0.3
 49
0.06
 49
-0.3
 49
0.06
 49
-0.3
 49
0.3
 49
-0.3
  0
ENDTAB
  0
TABLE
  2
LAYER
 70
    153
  0
LAYER
  2
LAYER1
 70
 64
 62
     7
  6
CONTINUOUS
  0
LAYER
  2
LAYER10
 70
 64
 62
     1
  6
CONTINUOUS
  0
LAYER
  2
LAYER12
 70
 64
 62
     5
  6
CONTINUOUS
  0
ENDTAB
  0
ENDSEC
  0
SECTION
  2
BLOCKS
  0
ENDSEC
  0
SECTION
  2
ENTITIES
  0
CIRCLE
  8
LAYER1
 62
     7
  6
CONTINUOUS
 10
5.6795
 20
6.4967
 40
0.0153
  0
CIRCLE
  8
LAYER1
 62
     7
  6
CONTINUOUS
 10
5.6497
 20
6.4688
 40
0.0146
  0
CIRCLE
  8
LAYER1
 62
     7
  6
CONTINUOUS
 10
5.5875
 20
6.4054
 40
0.0159
  0
CIRCLE
  8
LAYER1
 62
     7
  6
CONTINUOUS
 10
5.6231
 20
6.3580
 40
0.0126
  0
CIRCLE
  8
LAYER1
 62
     7
  6
CONTINUOUS
 10
5.5477
 20
6.3598
 40
0.0201
  0
CIRCLE
  8
LAYER1
 62
     7
  6
CONTINUOUS
 10
5.5324
 20
6.3898
 40
0.0181
  0
CIRCLE
  8
LAYER1
 62
     7
  6
CONTINUOUS
 10
5.3664
 20
6.4159
 40
0.0104
  0
CIRCLE
  8
LAYER1
 62
     7
  6
CONTINUOUS
 10
5.3043
 20
6.3424
 40
0.0153
  0
CIRCLE
  8
LAYER1
 62
     7
  6
CONTINUOUS
 10
5.2387
 20
6.3745
 40
0.0128
  0
CIRCLE
  8
LAYER1
 62
     7
  6
CONTINUOUS
 10
5.1961
 20
6.3640
 40
0.0135
  0
CIRCLE
  8
LAYER1
 62
     7
  6
CONTINUOUS
 10
5.2566
 20
6.3370
 40
0.0159
  0
CIRCLE
  8
LAYER1
 62
     7
  6
CONTINUOUS
 10
5.2402
 20
6.2162
 40
0.0104
  0
CIRCLE
  8
LAYER1
 62
     7
  6
CONTINUOUS
 10
5.2724
 20
6.2618
 40
0.0142
  0
CIRCLE
  8
LAYER1
 62
     7
  6
CONTINUOUS
 10
5.1897
 20
6.2409
 40
0.0104
  0
CIRCLE
  8
LAYER1
 62
     7
  6
CONTINUOUS
 10
5.1368
 20
6.2554
 40
0.0112
  0
CIRCLE
  8
LAYER1
 62
     7
  6
CONTINUOUS
 10
5.0917
 20
6.2475
 40
0.0196
  0
CIRCLE
  8
LAYER1
 62
     7
  6
CONTINUOUS
 10
5.0631
 20
6.3502
 40
0.0126
  0
CIRCLE
  8
LAYER1
 62
     7
  6
CONTINUOUS
 10
5.0993
 20
6.4987
 40
0.0183
  0
CIRCLE
  8
LAYER1
 62
     7
  6
CONTINUOUS
 10
5.2207
 20
6.1533
 40
0.0178
  0
CIRCLE
  8
LAYER1
 62
     7
  6
CONTINUOUS
 10
5.2962
 20
6.1289
 40
0.0178
  0
CIRCLE
  8
LAYER1
 62
     7
  6
CONTINUOUS
 10
5.3588
 20
6.1571
 40
0.0159
  0
CIRCLE
  8
LAYER1
 62
     7
  6
CONTINUOUS
 10
5.2226
 20
5.9498
 40
0.0153
  0
CIRCLE
  8
LAYER1
 62
     7
  6
CONTINUOUS
 10
5.2628
 20
5.9477
 40
0.0191
  0
CIRCLE
  8
LAYER1
 62
     7
  6
CONTINUOUS
 10
5.5628
 20
6.0912
 40
0.0178
  0
CIRCLE
  8
LAYER1
 62
     7
  6
CONTINUOUS
 10
5.7086
 20
6.0851
 40
0.0153
  0
CIRCLE
  8
LAYER1
 62
     7
  6
CONTINUOUS
 10
5.7676
 20
6.2187
 40
0.0178
  0
CIRCLE
  8
LAYER1
 62
     7
  6
CONTINUOUS
 10
5.9284
 20
6.2102
 40
0.0128
  0
CIRCLE
  8
LAYER1
 62
     7
  6
CONTINUOUS
 10
5.9540
 20
6.1577
 40
0.0104
  0
POLYLINE
  8
LAYER1
 62
     7
 66
     1
  6
CONTINUOUS
  0
VERTEX
  8
LAYER1
 62
     7
  6
CONTINUOUS
 10
5.8218
 20
6.0610
  0
VERTEX
  8
LAYER1
 62
     7
  6
CONTINUOUS
 10
5.8226
 20
6.0599
  0
VERTEX
  8
LAYER1
 62
     7
  6
CONTINUOUS
 10
5.8233
 20
6.0586
  0
VERTEX
  8
LAYER1
 62
     7
  6
CONTINUOUS
 10
5.8239
 20
6.0571
  0
VERTEX
  8
LAYER1
 62
     7
  6
CONTINUOUS
 10
5.8244
 20
6.0555
  0
VERTEX
  8
LAYER1
 62
     7
  6
CONTINUOUS
 10
5.8249
 20
6.0539
  0
VERTEX
  8
LAYER1
 62
     7
  6
CONTINUOUS
 10
5.8253
 20
6.0522
  0
VERTEX
  8
LAYER1
 62
     7
  6
CONTINUOUS
 10
5.8256
 20
6.0504
  0
VERTEX
  8
LAYER1
 62
     7
  6
CONTINUOUS
 10
5.8259
 20
6.0485
  0
VERTEX
  8
LAYER1
 62
     7
  6
CONTINUOUS
 10
5.8262
 20
6.0466
  0
VERTEX
  8
LAYER1
 62
     7
  6
CONTINUOUS
 10
5.8264
 20
6.0447
  0
VERTEX
  8
LAYER1
 62
     7
  6
CONTINUOUS
 10
5.8267
 20
6.0429
  0
VERTEX
  8
LAYER1
 62
     7
  6
CONTINUOUS
 10
5.8270
 20
6.0410
  0
VERTEX
  8
LAYER1
 62
     7
  6
CONTINUOUS
 10
5.8277
 20
6.0378
  0
VERTEX
  8
LAYER1
 62
     7
  6
CONTINUOUS
 10
5.8284
 20
6.0346
  0
VERTEX
  8
LAYER1
 62
     7
  6
CONTINUOUS
 10
5.8292
 20
6.0316
  0
VERTEX
  8
LAYER1
 62
     7
  6
CONTINUOUS
 10
5.8300
 20
6.0286
  0
VERTEX
  8
LAYER1
 62
     7
  6
CONTINUOUS
 10
5.8309
 20
6.0257
  0
VERTEX
  8
LAYER1
 62
     7
  6
CONTINUOUS
 10
5.8319
 20
6.0228
  0
VERTEX
  8
LAYER1
 62
     7
  6
CONTINUOUS
 10
5.8328
 20
6.0200
  0
VERTEX
  8
LAYER1
 62
     7
  6
CONTINUOUS
 10
5.8338
 20
6.0172
  0
VERTEX
  8
LAYER1
 62
     7
  6
CONTINUOUS
 10
5.8347
 20
6.0144
  0
VERTEX
  8
LAYER1
 62
     7
  6
CONTINUOUS
 10
5.8357
 20
6.0116
  0
VERTEX
  8
LAYER1
 62
     7
  6
CONTINUOUS
 10
5.8366
 20
6.0088
  0
VERTEX
  8
LAYER1
 62
     7
  6
CONTINUOUS
 10
5.8374
 20
6.0059
  0
VERTEX
  8
LAYER1
 62
     7
  6
CONTINUOUS
 10
5.8382
 20
6.0031
  0
VERTEX
  8
LAYER1
 62
     7
  6
CONTINUOUS
 10
5.8389
 20
6.0003
  0
VERTEX
  8
LAYER1
 62
     7
  6
CONTINUOUS
 10
5.8395
 20
5.9974
  0
VERTEX
  8
LAYER1
 62
     7
  6
CONTINUOUS
 10
5.8401
 20
5.9945
  0
VERTEX
  8
LAYER1
 62
     7
  6
CONTINUOUS
 10
5.8406
 20
5.9916
  0
VERTEX
  8
LAYER1
 62
     7
  6
CONTINUOUS
 10
5.8411
 20
5.9887
  0
VERTEX
  8
LAYER1
 62
     7
  6
CONTINUOUS
 10
5.8415
 20
5.9857
  0
VERTEX
  8
LAYER1
 62
     7
  6
CONTINUOUS
 10
5.8419
 20
5.9827
  0
VERTEX
  8
LAYER1
 62
     7
  6
CONTINUOUS
 10
5.8422
 20
5.9798
  0
VERTEX
  8
LAYER1
 62
     7
  6
CONTINUOUS
 10
5.8424
 20
5.9768
  0
VERTEX
  8
LAYER1
 62
     7
  6
CONTINUOUS
 10
5.8426
 20
5.9738
  0
VERTEX
  8
LAYER1
 62
     7
  6
CONTINUOUS
 10
5.8428
 20
5.9708
  0
VERTEX
  8
LAYER1
 62
     7
  6
CONTINUOUS
 10
5.8429
 20
5.9682
  0
VERTEX
  8
LAYER1
 62
     7
  6
CONTINUOUS
 10
5.8429
 20
5.9657
  0
VERTEX
  8
LAYER1
 62
     7
  6
CONTINUOUS
 10
5.8429
 20
5.9631
  0
VERTEX
  8
LAYER1
 62
     7
  6
CONTINUOUS
 10
5.8428
 20
5.9606
  0
VERTEX
  8
LAYER1
 62
     7
  6
CONTINUOUS
 10
5.8426
 20
5.9580
  0
VERTEX
  8
LAYER1
 62
     7
  6
CONTINUOUS
 10
5.8424
 20
5.9555
  0
VERTEX
  8
LAYER1
 62
     7
  6
CONTINUOUS
 10
5.8420
 20
5.9530
  0
VERTEX
  8
LAYER1
 62
     7
  6
CONTINUOUS
 10
5.8415
 20
5.9505
  0
VERTEX
  8
LAYER1
 62
     7
  6
CONTINUOUS
 10
5.8409
 20
5.9480
  0
VERTEX
  8
LAYER1
 62
     7
  6
CONTINUOUS
 10
5.8401
 20
5.9455
  0
VERTEX
  8
LAYER1
 62
     7
  6
CONTINUOUS
 10
5.8392
 20
5.9431
  0
VERTEX
  8
LAYER1
 62
     7
  6
CONTINUOUS
 10
5.8380
 20
5.9406
  0
VERTEX
  8
LAYER1
 62
     7
  6
CONTINUOUS
 10
5.8372
 20
5.9389
  0
VERTEX
  8
LAYER1
 62
     7
  6
CONTINUOUS
 10
5.8362
 20
5.9373
  0
VERTEX
  8
LAYER1
 62
     7
  6
CONTINUOUS
 10
5.8352
 20
5.9356
  0
VERTEX
  8
LAYER1
 62
     7
  6
CONTINUOUS
 10
5.8340
 20
5.9341
  0
VERTEX
  8
LAYER1
 62
     7
  6
CONTINUOUS
 10
5.8329
 20
5.9326
  0
VERTEX
  8
LAYER1
 62
     7
  6
CONTINUOUS
 10
5.8316
 20
5.9312
  0
VERTEX
  8
LAYER1
 62
     7
  6
CONTINUOUS
 10
5.8303
 20
5.9299
  0
VERTEX
  8
LAYER1
 62
     7
  6
CONTINUOUS
 10
5.8290
 20
5.9287
  0
VERTEX
  8
LAYER1
 62
     7
  6
CONTINUOUS
 10
5.8276
 20
5.9276
  0
VERTEX
  8
LAYER1
 62
     7
  6
CONTINUOUS
 10
5.8261
 20
5.9267
  0
VERTEX
  8
LAYER1
 62
     7
  6
CONTINUOUS
 10
5.8246
 20
5.9260
  0
VERTEX
  8
LAYER1
 62
     7
  6
CONTINUOUS
 10
5.8231
 20
5.9254
  0
VERTEX
  8
LAYER1
 62
     7
  6
CONTINUOUS
 10
5.8207
 20
5.9249
  0
VERTEX
  8
LAYER1
 62
     7
  6
CONTINUOUS
 10
5.8182
 20
5.9249
  0
VERTEX
  8
LAYER1
 62
     7
  6
CONTINUOUS
 10
5.8156
 20
5.9252
  0
VERTEX
  8
LAYER1
 62
     7
  6
CONTINUOUS
 10
5.8131
 20
5.9259
  0
VERTEX
  8
LAYER1
 62
     7
  6
CONTINUOUS
 10
5.8105
 20
5.9270
  0
VERTEX
  8
LAYER1
 62
     7
  6
CONTINUOUS
 10
5.8079
 20
5.9283
  0
VERTEX
  8
LAYER1
 62
     7
  6
CONTINUOUS
 10
5.8053
 20
5.9299
  0
VERTEX
  8
LAYER1
 62
     7
  6
CONTINUOUS
 10
5.8027
 20
5.9317
  0
VERTEX
  8
LAYER1
 62
     7
  6
CONTINUOUS
 10
5.8002
 20
5.9337
  0
VERTEX
  8
LAYER1
 62
     7
  6
CONTINUOUS
 10
5.7977
 20
5.9358
  0
VERTEX
  8
LAYER1
 62
     7
  6
CONTINUOUS
 10
5.7952
 20
5.9380
  0
VERTEX
  8
LAYER1
 62
     7
  6
CONTINUOUS
 10
5.7928
 20
5.9402
  0
VERTEX
  8
LAYER1
 62
     7
  6
CONTINUOUS
 10
5.7908
 20
5.9421
  0
VERTEX
  8
LAYER1
 62
     7
  6
CONTINUOUS
 10
5.7889
 20
5.9441
  0
VERTEX
  8
LAYER1
 62
     7
  6
CONTINUOUS
 10
5.7870
 20
5.9461
  0
VERTEX
  8
LAYER1
 62
     7
  6
CONTINUOUS
 10
5.7853
 20
5.9481
  0
VERTEX
  8
LAYER1
 62
     7
  6
CONTINUOUS
 10
5.7837
 20
5.9501
  0
VERTEX
  8
LAYER1
 62
     7
  6
CONTINUOUS
 10
5.7822
 20
5.9522
  0
VERTEX
  8
LAYER1
 62
     7
  6
CONTINUOUS
 10
5.7809
 20
5.9542
  0
VERTEX
  8
LAYER1
 62
     7
  6
CONTINUOUS
 10
5.7798
 20
5.9564
  0
VERTEX
  8
LAYER1
 62
     7
  6
CONTINUOUS
 10
5.7789
 20
5.9585
  0
VERTEX
  8
LAYER1
 62
     7
  6
CONTINUOUS
 10
5.7782
 20
5.9607
  0
VERTEX
  8
LAYER1
 62
     7
  6
CONTINUOUS
 10
5.7777
 20
5.9629
  0
VERTEX
  8
LAYER1
 62
     7
  6
CONTINUOUS
 10
5.7775
 20
5.9652
  0
VERTEX
  8
LAYER1
 62
     7
  6
CONTINUOUS
 10
5.7776
 20
5.9672
  0
VERTEX
  8
LAYER1
 62
     7
  6
CONTINUOUS
 10
5.7778
 20
5.9692
  0
VERTEX
  8
LAYER1
 62
     7
  6
CONTINUOUS
 10
5.7782
 20
5.9713
  0
VERTEX
  8
LAYER1
 62
     7
  6
CONTINUOUS
 10
5.7786
 20
5.9734
  0
VERTEX
  8
LAYER1
 62
     7
  6
CONTINUOUS
 10
5.7792
 20
5.9755
  0
VERTEX
  8
LAYER1
 62
     7
  6
CONTINUOUS
 10
5.7798
 20
5.9777
  0
VERTEX
  8
LAYER1
 62
     7
  6
CONTINUOUS
 10
5.7804
 20
5.9798
  0
VERTEX
  8
LAYER1
 62
     7
  6
CONTINUOUS
 10
5.7810
 20
5.9819
  0
VERTEX
  8
LAYER1
 62
     7
  6
CONTINUOUS
 10
5.7815
 20
5.9840
  0
VERTEX
  8
LAYER1
 62
     7
  6
CONTINUOUS
 10
5.7819
 20
5.9862
  0
VERTEX
  8
LAYER1
 62
     7
  6
CONTINUOUS
 10
5.7822
 20
5.9883
  0
VERTEX
  8
LAYER1
 62
     7
  6
CONTINUOUS
 10
5.7823
 20
5.9903
  0
VERTEX
  8
LAYER1
 62
     7
  6
CONTINUOUS
 10
5.7822
 20
5.9929
  0
VERTEX
  8
LAYER1
 62
     7
  6
CONTINUOUS
 10
5.7819
 20
5.9954
  0
VERTEX
  8
LAYER1
 62
     7
  6
CONTINUOUS
 10
5.7813
 20
5.9978
  0
VERTEX
  8
LAYER1
 62
     7
  6
CONTINUOUS
 10
5.7805
 20
6.0003
  0
VERTEX
  8
LAYER1
 62
     7
  6
CONTINUOUS
 10
5.7796
 20
6.0028
  0
VERTEX
  8
LAYER1
 62
     7
  6
CONTINUOUS
 10
5.7785
 20
6.0052
  0
VERTEX
  8
LAYER1
 62
     7
  6
CONTINUOUS
 10
5.7774
 20
6.0077
  0
VERTEX
  8
LAYER1
 62
     7
  6
CONTINUOUS
 10
5.7763
 20
6.0101
  0
VERTEX
  8
LAYER1
 62
     7
  6
CONTINUOUS
 10
5.7751
 20
6.0126
  0
VERTEX
  8
LAYER1
 62
     7
  6
CONTINUOUS
 10
5.7740
 20
6.0152
  0
VERTEX
  8
LAYER1
 62
     7
  6
CONTINUOUS
 10
5.7729
 20
6.0177
  0
VERTEX
  8
LAYER1
 62
     7
  6
CONTINUOUS
 10
5.7720
 20
6.0204
  0
VERTEX
  8
LAYER1
 62
     7
  6
CONTINUOUS
 10
5.7713
 20
6.0225
  0
VERTEX
  8
LAYER1
 62
     7
  6
CONTINUOUS
 10
5.7708
 20
6.0246
  0
VERTEX
  8
LAYER1
 62
     7
  6
CONTINUOUS
 10
5.7703
 20
6.0268
  0
VERTEX
  8
LAYER1
 62
     7
  6
CONTINUOUS
 10
5.7700
 20
6.0289
  0
VERTEX
  8
LAYER1
 62
     7
  6
CONTINUOUS
 10
5.7698
 20
6.0311
  0
VERTEX
  8
LAYER1
 62
     7
  6
CONTINUOUS
 10
5.7697
 20
6.0332
  0
VERTEX
  8
LAYER1
 62
     7
  6
CONTINUOUS
 10
5.7697
 20
6.0354
  0
VERTEX
  8
LAYER1
 62
     7
  6
CONTINUOUS
 10
5.7698
 20
6.0375
  0
VERTEX
  8
LAYER1
 62
     7
  6
CONTINUOUS
 10
5.7701
 20
6.0396
  0
VERTEX
  8
LAYER1
 62
     7
  6
CONTINUOUS
 10
5.7705
 20
6.0416
  0
VERTEX
  8
LAYER1
 62
     7
  6
CONTINUOUS
 10
5.7710
 20
6.0436
  0
VERTEX
  8
LAYER1
 62
     7
  6
CONTINUOUS
 10
5.7717
 20
6.0455
  0
VERTEX
  8
LAYER1
 62
     7
  6
CONTINUOUS
 10
5.7724
 20
6.0471
  0
VERTEX
  8
LAYER1
 62
     7
  6
CONTINUOUS
 10
5.7733
 20
6.0486
  0
VERTEX
  8
LAYER1
 62
     7
  6
CONTINUOUS
 10
5.7742
 20
6.0500
  0
VERTEX
  8
LAYER1
 62
     7
  6
CONTINUOUS
 10
5.7752
 20
6.0515
  0
VERTEX
  8
LAYER1
 62
     7
  6
CONTINUOUS
 10
5.7763
 20
6.0528
  0
VERTEX
  8
LAYER1
 62
     7
  6
CONTINUOUS
 10
5.7775
 20
6.0541
  0
VERTEX
  8
LAYER1
 62
     7
  6
CONTINUOUS
 10
5.7788
 20
6.0554
  0
VERTEX
  8
LAYER1
 62
     7
  6
CONTINUOUS
 10
5.7802
 20
6.0565
  0
VERTEX
  8
LAYER1
 62
     7
  6
CONTINUOUS
 10
5.7817
 20
6.0577
  0
VERTEX
  8
LAYER1
 62
     7
  6
CONTINUOUS
 10
5.7833
 20
6.0587
  0
VERTEX
  8
LAYER1
 62
     7
  6
CONTINUOUS
 10
5.7849
 20
6.0597
  0
VERTEX
  8
LAYER1
 62
     7
  6
CONTINUOUS
 10
5.7867
 20
6.0607
  0
VERTEX
  8
LAYER1
 62
     7
  6
CONTINUOUS
 10
5.7897
 20
6.0621
  0
VERTEX
  8
LAYER1
 62
     7
  6
CONTINUOUS
 10
5.7929
 20
6.0633
  0
VERTEX
  8
LAYER1
 62
     7
  6
CONTINUOUS
 10
5.7961
 20
6.0644
  0
VERTEX
  8
LAYER1
 62
     7
  6
CONTINUOUS
 10
5.7995
 20
6.0652
  0
VERTEX
  8
LAYER1
 62
     7
  6
CONTINUOUS
 10
5.8028
 20
6.0657
  0
VERTEX
  8
LAYER1
 62
     7
  6
CONTINUOUS
 10
5.8061
 20
6.0660
  0
VERTEX
  8
LAYER1
 62
     7
  6
CONTINUOUS
 10
5.8092
 20
6.0660
  0
VERTEX
  8
LAYER1
 62
     7
  6
CONTINUOUS
 10
5.8123
 20
6.0657
  0
VERTEX
  8
LAYER1
 62
     7
  6
CONTINUOUS
 10
5.8151
 20
6.0650
  0
VERTEX
  8
LAYER1
 62
     7
  6
CONTINUOUS
 10
5.8177
 20
6.0641
  0
VERTEX
  8
LAYER1
 62
     7
  6
CONTINUOUS
 10
5.8199
 20
6.0627
  0
VERTEX
  8
LAYER1
 62
     7
  6
CONTINUOUS
 10
5.8218
 20
6.0610
  0
SEQEND
  8
LAYER1
  0
CIRCLE
  8
LAYER1
 62
     7
  6
CONTINUOUS
 10
5.6223
 20
5.9160
 40
0.0135
  0
CIRCLE
  8
LAYER1
 62
     7
  6
CONTINUOUS
 10
5.6232
 20
5.8205
 40
0.0183
  0
CIRCLE
  8
LAYER1
 62
     7
  6
CONTINUOUS
 10
5.7233
 20
5.8541
 40
0.0151
  0
CIRCLE
  8
LAYER1
 62
     7
  6
CONTINUOUS
 10
5.8610
 20
5.9007
 40
0.0202
  0
CIRCLE
  8
LAYER1
 62
     7
  6
CONTINUOUS
 10
5.9548
 20
5.8161
 40
0.0142
  0
CIRCLE
  8
LAYER1
 62
     7
  6
CONTINUOUS
 10
5.4905
 20
5.7715
 40
0.0103
  0
CIRCLE
  8
LAYER1
 62
     7
  6
CONTINUOUS
 10
5.5521
 20
5.6390
 40
0.0128
  0
CIRCLE
  8
LAYER1
 62
     7
  6
CONTINUOUS
 10
5.5276
 20
5.5685
 40
0.0079
  0
POLYLINE
  8
LAYER1
 62
     7
 66
     1
  6
CONTINUOUS
  0
VERTEX
  8
LAYER1
 62
     7
  6
CONTINUOUS
 10
5.0426
 20
6.2805
  0
VERTEX
  8
LAYER1
 62
     7
  6
CONTINUOUS
 10
5.0429
 20
6.2801
  0
VERTEX
  8
LAYER1
 62
     7
  6
CONTINUOUS
 10
5.0432
 20
6.2796
  0
VERTEX
  8
LAYER1
 62
     7
  6
CONTINUOUS
 10
5.0435
 20
6.2791
  0
VERTEX
  8
LAYER1
 62
     7
  6
CONTINUOUS
 10
5.0438
 20
6.2786
  0
VERTEX
  8
LAYER1
 62
     7
  6
CONTINUOUS
 10
5.0441
 20
6.2781
  0
VERTEX
  8
LAYER1
 62
     7
  6
CONTINUOUS
 10
5.0444
 20
6.2776
  0
VERTEX
  8
LAYER1
 62
     7
  6
CONTINUOUS
 10
5.0447
 20
6.2771
  0
VERTEX
  8
LAYER1
 62
     7
  6
CONTINUOUS
 10
5.0450
 20
6.2767
  0
VERTEX
  8
LAYER1
 62
     7
  6
CONTINUOUS
 10
5.0453
 20
6.2762
  0
VERTEX
  8
LAYER1
 62
     7
  6
CONTINUOUS
 10
5.0456
 20
6.2757
  0
VERTEX
  8
LAYER1
 62
     7
  6
CONTINUOUS
 10
5.0459
 20
6.2752
  0
VERTEX
  8
LAYER1
 62
     7
  6
CONTINUOUS
 10
5.0462
 20
6.2747
  0
VERTEX
  8
LAYER1
 62
     7
  6
CONTINUOUS
 10
5.0475
 20
6.2722
  0
VERTEX
  8
LAYER1
 62
     7
  6
CONTINUOUS
 10
5.0488
 20
6.2697
  0
VERTEX
  8
LAYER1
 62
     7
  6
CONTINUOUS
 10
5.0500
 20
6.2671
  0
VERTEX
  8
LAYER1
 62
     7
  6
CONTINUOUS
 10
5.0512
 20
6.2645
  0
VERTEX
  8
LAYER1
 62
     7
  6
CONTINUOUS
 10
5.0523
 20
6.2619
  0
VERTEX
  8
LAYER1
 62
     7
  6
CONTINUOUS
 10
5.0535
 20
6.2594
  0
VERTEX
  8
LAYER1
 62
     7
  6
CONTINUOUS
 10
5.0547
 20
6.2568
  0
VERTEX
  8
LAYER1
 62
     7
  6
CONTINUOUS
 10
5.0559
 20
6.2543
  0
VERTEX
  8
LAYER1
 62
     7
  6
CONTINUOUS
 10
5.0572
 20
6.2518
  0
VERTEX
  8
LAYER1
 62
     7
  6
CONTINUOUS
 10
5.0585
 20
6.2493
  0
VERTEX
  8
LAYER1
 62
     7
  6
CONTINUOUS
 10
5.0600
 20
6.2470
  0
VERTEX
  8
LAYER1
 62
     7
  6
CONTINUOUS
 10
5.0616
 20
6.2447
  0
VERTEX
  8
LAYER1
 62
     7
  6
CONTINUOUS
 10
5.0632
 20
6.2426
  0
VERTEX
  8
LAYER1
 62
     7
  6
CONTINUOUS
 10
5.0650
 20
6.2406
  0
VERTEX
  8
LAYER1
 62
     7
  6
CONTINUOUS
 10
5.0668
 20
6.2387
  0
VERTEX
  8
LAYER1
 62
     7
  6
CONTINUOUS
 10
5.0688
 20
6.2368
  0
VERTEX
  8
LAYER1
 62
     7
  6
CONTINUOUS
 10
5.0708
 20
6.2351
  0
VERTEX
  8
LAYER1
 62
     7
  6
CONTINUOUS
 10
5.0730
 20
6.2334
  0
VERTEX
  8
LAYER1
 62
     7
  6
CONTINUOUS
 10
5.0752
 20
6.2318
  0
VERTEX
  8
LAYER1
 62
     7
  6
CONTINUOUS
 10
5.0774
 20
6.2303
  0
VERTEX
  8
LAYER1
 62
     7
  6
CONTINUOUS
 10
5.0798
 20
6.2288
  0
VERTEX
  8
LAYER1
 62
     7
  6
CONTINUOUS
 10
5.0821
 20
6.2274
  0
VERTEX
  8
LAYER1
 62
     7
  6
CONTINUOUS
 10
5.0845
 20
6.2261
  0
VERTEX
  8
LAYER1
 62
     7
  6
CONTINUOUS
 10
5.0869
 20
6.2248
  0
VERTEX
  8
LAYER1
 62
     7
  6
CONTINUOUS
 10
5.0877
 20
6.2244
  0
VERTEX
  8
LAYER1
 62
     7
  6
CONTINUOUS
 10
5.0885
 20
6.2240
  0
VERTEX
  8
LAYER1
 62
     7
  6
CONTINUOUS
 10
5.0894
 20
6.2236
  0
VERTEX
  8
LAYER1
 62
     7
  6
CONTINUOUS
 10
5.0902
 20
6.2232
  0
VERTEX
  8
LAYER1
 62
     7
  6
CONTINUOUS
 10
5.0911
 20
6.2227
  0
VERTEX
  8
LAYER1
 62
     7
  6
CONTINUOUS
 10
5.0919
 20
6.2223
  0
VERTEX
  8
LAYER1
 62
     7
  6
CONTINUOUS
 10
5.0927
 20
6.2219
  0
VERTEX
  8
LAYER1
 62
     7
  6
CONTINUOUS
 10
5.0936
 20
6.2215
  0
VERTEX
  8
LAYER1
 62
     7
  6
CONTINUOUS
 10
5.0944
 20
6.2211
  0
VERTEX
  8
LAYER1
 62
     7
  6
CONTINUOUS
 10
5.0953
 20
6.2207
  0
VERTEX
  8
LAYER1
 62
     7
  6
CONTINUOUS
 10
5.0961
 20
6.2203
  0
VERTEX
  8
LAYER1
 62
     7
  6
CONTINUOUS
 10
5.0970
 20
6.2199
  0
VERTEX
  8
LAYER1
 62
     7
  6
CONTINUOUS
 10
5.1007
 20
6.2180
  0
VERTEX
  8
LAYER1
 62
     7
  6
CONTINUOUS
 10
5.1044
 20
6.2161
  0
VERTEX
  8
LAYER1
 62
     7
  6
CONTINUOUS
 10
5.1081
 20
6.2141
  0
VERTEX
  8
LAYER1
 62
     7
  6
CONTINUOUS
 10
5.1118
 20
6.2121
  0
VERTEX
  8
LAYER1
 62
     7
  6
CONTINUOUS
 10
5.1155
 20
6.2101
  0
VERTEX
  8
LAYER1
 62
     7
  6
CONTINUOUS
 10
5.1192
 20
6.2083
  0
VERTEX
  8
LAYER1
 62
     7
  6
CONTINUOUS
 10
5.1230
 20
6.2065
  0
VERTEX
  8
LAYER1
 62
     7
  6
CONTINUOUS
 10
5.1268
 20
6.2048
  0
VERTEX
  8
LAYER1
 62
     7
  6
CONTINUOUS
 10
5.1306
 20
6.2033
  0
VERTEX
  8
LAYER1
 62
     7
  6
CONTINUOUS
 10
5.1345
 20
6.2021
  0
VERTEX
  8
LAYER1
 62
     7
  6
CONTINUOUS
 10
5.1384
 20
6.2010
  0
VERTEX
  8
LAYER1
 62
     7
  6
CONTINUOUS
 10
5.1424
 20
6.2002
  0
VERTEX
  8
LAYER1
 62
     7
  6
CONTINUOUS
 10
5.1456
 20
6.1998
  0
VERTEX
  8
LAYER1
 62
     7
  6
CONTINUOUS
 10
5.1489
 20
6.1996
  0
VERTEX
  8
LAYER1
 62
     7
  6
CONTINUOUS
 10
5.1522
 20
6.1995
  0
VERTEX
  8
LAYER1
 62
     7
  6
CONTINUOUS
 10
5.1555
 20
6.1995
  0
VERTEX
  8
LAYER1
 62
     7
  6
CONTINUOUS
 10
5.1589
 20
6.1996
  0
VERTEX
  8
LAYER1
 62
     7
  6
CONTINUOUS
 10
5.1623
 20
6.1998
  0
VERTEX
  8
LAYER1
 62
     7
  6
CONTINUOUS
 10
5.1656
 20
6.2000
  0
VERTEX
  8
LAYER1
 62
     7
  6
CONTINUOUS
 10
5.1690
 20
6.2002
  0
VERTEX
  8
LAYER1
 62
     7
  6
CONTINUOUS
 10
5.1724
 20
6.2004
  0
VERTEX
  8
LAYER1
 62
     7
  6
CONTINUOUS
 10
5.1758
 20
6.2006
  0
VERTEX
  8
LAYER1
 62
     7
  6
CONTINUOUS
 10
5.1792
 20
6.2007
  0
VERTEX
  8
LAYER1
 62
     7
  6
CONTINUOUS
 10
5.1825
 20
6.2006
  0
VERTEX
  8
LAYER1
 62
     7
  6
CONTINUOUS
 10
5.1863
 20
6.2004
  0
VERTEX
  8
LAYER1
 62
     7
  6
CONTINUOUS
 10
5.1901
 20
6.2001
  0
VERTEX
  8
LAYER1
 62
     7
  6
CONTINUOUS
 10
5.1939
 20
6.1997
  0
VERTEX
  8
LAYER1
 62
     7
  6
CONTINUOUS
 10
5.1976
 20
6.1991
  0
VERTEX
  8
LAYER1
 62
     7
  6
CONTINUOUS
 10
5.2014
 20
6.1986
  0
VERTEX
  8
LAYER1
 62
     7
  6
CONTINUOUS
 10
5.2051
 20
6.1980
  0
VERTEX
  8
LAYER1
 62
     7
  6
CONTINUOUS
 10
5.2089
 20
6.1975
  0
VERTEX
  8
LAYER1
 62
     7
  6
CONTINUOUS
 10
5.2126
 20
6.1970
  0
VERTEX
  8
LAYER1
 62
     7
  6
CONTINUOUS
 10
5.2164
 20
6.1965
  0
VERTEX
  8
LAYER1
 62
     7
  6
CONTINUOUS
 10
5.2202
 20
6.1962
  0
VERTEX
  8
LAYER1
 62
     7
  6
CONTINUOUS
 10
5.2240
 20
6.1960
  0
VERTEX
  8
LAYER1
 62
     7
  6
CONTINUOUS
 10
5.2278
 20
6.1960
  0
VERTEX
  8
LAYER1
 62
     7
  6
CONTINUOUS
 10
5.2316
 20
6.1962
  0
VERTEX
  8
LAYER1
 62
     7
  6
CONTINUOUS
 10
5.2355
 20
6.1966
  0
VERTEX
  8
LAYER1
 62
     7
  6
CONTINUOUS
 10
5.2393
 20
6.1971
  0
VERTEX
  8
LAYER1
 62
     7
  6
CONTINUOUS
 10
5.2432
 20
6.1977
  0
VERTEX
  8
LAYER1
 62
     7
  6
CONTINUOUS
 10
5.2470
 20
6.1983
  0
VERTEX
  8
LAYER1
 62
     7
  6
CONTINUOUS
 10
5.2509
 20
6.1990
  0
VERTEX
  8
LAYER1
 62
     7
  6
CONTINUOUS
 10
5.2547
 20
6.1996
  0
VERTEX
  8
LAYER1
 62
     7
  6
CONTINUOUS
 10
5.2584
 20
6.2002
  0
VERTEX
  8
LAYER1
 62
     7
  6
CONTINUOUS
 10
5.2622
 20
6.2008
  0
VERTEX
  8
LAYER1
 62
     7
  6
CONTINUOUS
 10
5.2658
 20
6.2012
  0
VERTEX
  8
LAYER1
 62
     7
  6
CONTINUOUS
 10
5.2694
 20
6.2014
  0
VERTEX
  8
LAYER1
 62
     7
  6
CONTINUOUS
 10
5.2730
 20
6.2015
  0
VERTEX
  8
LAYER1
 62
     7
  6
CONTINUOUS
 10
5.2765
 20
6.2013
  0
VERTEX
  8
LAYER1
 62
     7
  6
CONTINUOUS
 10
5.2799
 20
6.2009
  0
VERTEX
  8
LAYER1
 62
     7
  6
CONTINUOUS
 10
5.2834
 20
6.2004
  0
VERTEX
  8
LAYER1
 62
     7
  6
CONTINUOUS
 10
5.2868
 20
6.1997
  0
VERTEX
  8
LAYER1
 62
     7
  6
CONTINUOUS
 10
5.2903
 20
6.1988
  0
VERTEX
  8
LAYER1
 62
     7
  6
CONTINUOUS
 10
5.2939
 20
6.1979
  0
VERTEX
  8
LAYER1
 62
     7
  6
CONTINUOUS
 10
5.2975
 20
6.1969
  0
VERTEX
  8
LAYER1
 62
     7
  6
CONTINUOUS
 10
5.3013
 20
6.1959
  0
VERTEX
  8
LAYER1
 62
     7
  6
CONTINUOUS
 10
5.3052
 20
6.1948
  0
VERTEX
  8
LAYER1
 62
     7
  6
CONTINUOUS
 10
5.3093
 20
6.1938
  0
VERTEX
  8
LAYER1
 62
     7
  6
CONTINUOUS
 10
5.3137
 20
6.1928
  0
VERTEX
  8
LAYER1
 62
     7
  6
CONTINUOUS
 10
5.3183
 20
6.1919
  0
VERTEX
  8
LAYER1
 62
     7
  6
CONTINUOUS
 10
5.3241
 20
6.1909
  0
VERTEX
  8
LAYER1
 62
     7
  6
CONTINUOUS
 10
5.3302
 20
6.1900
  0
VERTEX
  8
LAYER1
 62
     7
  6
CONTINUOUS
 10
5.3363
 20
6.1893
  0
VERTEX
  8
LAYER1
 62
     7
  6
CONTINUOUS
 10
5.3425
 20
6.1887
  0
VERTEX
  8
LAYER1
 62
     7
  6
CONTINUOUS
 10
5.3485
 20
6.1882
  0
VERTEX
  8
LAYER1
 62
     7
  6
CONTINUOUS
 10
5.3542
 20
6.1879
  0
VERTEX
  8
LAYER1
 62
     7
  6
CONTINUOUS
 10
5.3594
 20
6.1876
  0
VERTEX
  8
LAYER1
 62
     7
  6
CONTINUOUS
 10
5.3640
 20
6.1874
  0
VERTEX
  8
LAYER1
 62
     7
  6
CONTINUOUS
 10
5.3678
 20
6.1873
  0
VERTEX
  8
LAYER1
 62
     7
  6
CONTINUOUS
 10
5.3708
 20
6.1872
  0
VERTEX
  8
LAYER1
 62
     7
  6
CONTINUOUS
 10
5.3728
 20
6.1873
  0
VERTEX
  8
LAYER1
 62
     7
  6
CONTINUOUS
 10
5.3736
 20
6.1874
  0
VERTEX
  8
LAYER1
 62
     7
  6
CONTINUOUS
 10
5.3736
 20
6.1874
  0
VERTEX
  8
LAYER1
 62
     7
  6
CONTINUOUS
 10
5.3736
 20
6.1874
  0
VERTEX
  8
LAYER1
 62
     7
  6
CONTINUOUS
 10
5.3736
 20
6.1874
  0
VERTEX
  8
LAYER1
 62
     7
  6
CONTINUOUS
 10
5.3736
 20
6.1874
  0
VERTEX
  8
LAYER1
 62
     7
  6
CONTINUOUS
 10
5.3735
 20
6.1874
  0
VERTEX
  8
LAYER1
 62
     7
  6
CONTINUOUS
 10
5.3735
 20
6.1874
  0
VERTEX
  8
LAYER1
 62
     7
  6
CONTINUOUS
 10
5.3735
 20
6.1874
  0
VERTEX
  8
LAYER1
 62
     7
  6
CONTINUOUS
 10
5.3735
 20
6.1874
  0
VERTEX
  8
LAYER1
 62
     7
  6
CONTINUOUS
 10
5.3735
 20
6.1874
  0
VERTEX
  8
LAYER1
 62
     7
  6
CONTINUOUS
 10
5.3735
 20
6.1874
  0
VERTEX
  8
LAYER1
 62
     7
  6
CONTINUOUS
 10
5.3735
 20
6.1874
  0
VERTEX
  8
LAYER1
 62
     7
  6
CONTINUOUS
 10
5.3736
 20
6.1874
  0
VERTEX
  8
LAYER1
 62
     7
  6
CONTINUOUS
 10
5.3741
 20
6.1870
  0
VERTEX
  8
LAYER1
 62
     7
  6
CONTINUOUS
 10
5.3751
 20
6.1864
  0
VERTEX
  8
LAYER1
 62
     7
  6
CONTINUOUS
 10
5.3767
 20
6.1856
  0
VERTEX
  8
LAYER1
 62
     7
  6
CONTINUOUS
 10
5.3787
 20
6.1845
  0
VERTEX
  8
LAYER1
 62
     7
  6
CONTINUOUS
 10
5.3812
 20
6.1832
  0
VERTEX
  8
LAYER1
 62
     7
  6
CONTINUOUS
 10
5.3839
 20
6.1818
  0
VERTEX
  8
LAYER1
 62
     7
  6
CONTINUOUS
 10
5.3869
 20
6.1803
  0
VERTEX
  8
LAYER1
 62
     7
  6
CONTINUOUS
 10
5.3901
 20
6.1788
  0
VERTEX
  8
LAYER1
 62
     7
  6
CONTINUOUS
 10
5.3935
 20
6.1772
  0
VERTEX
  8
LAYER1
 62
     7
  6
CONTINUOUS
 10
5.3969
 20
6.1756
  0
VERTEX
  8
LAYER1
 62
     7
  6
CONTINUOUS
 10
5.4004
 20
6.1741
  0
VERTEX
  8
LAYER1
 62
     7
  6
CONTINUOUS
 10
5.4038
 20
6.1726
  0
VERTEX
  8
LAYER1
 62
     7
  6
CONTINUOUS
 10
5.4078
 20
6.1710
  0
VERTEX
  8
LAYER1
 62
     7
  6
CONTINUOUS
 10
5.4117
 20
6.1695
  0
VERTEX
  8
LAYER1
 62
     7
  6
CONTINUOUS
 10
5.4155
 20
6.1683
  0
VERTEX
  8
LAYER1
 62
     7
  6
CONTINUOUS
 10
5.4191
 20
6.1673
  0
VERTEX
  8
LAYER1
 62
     7
  6
CONTINUOUS
 10
5.4226
 20
6.1665
  0
VERTEX
  8
LAYER1
 62
     7
  6
CONTINUOUS
 10
5.4260
 20
6.1659
  0
VERTEX
  8
LAYER1
 62
     7
  6
CONTINUOUS
 10
5.4293
 20
6.1655
  0
VERTEX
  8
LAYER1
 62
     7
  6
CONTINUOUS
 10
5.4324
 20
6.1655
  0
VERTEX
  8
LAYER1
 62
     7
  6
CONTINUOUS
 10
5.4355
 20
6.1656
  0
VERTEX
  8
LAYER1
 62
     7
  6
CONTINUOUS
 10
5.4384
 20
6.1661
  0
VERTEX
  8
LAYER1
 62
     7
  6
CONTINUOUS
 10
5.4413
 20
6.1669
  0
VERTEX
  8
LAYER1
 62
     7
  6
CONTINUOUS
 10
5.4441
 20
6.1679
  0
VERTEX
  8
LAYER1
 62
     7
  6
CONTINUOUS
 10
5.4473
 20
6.1697
  0
VERTEX
  8
LAYER1
 62
     7
  6
CONTINUOUS
 10
5.4505
 20
6.1718
  0
VERTEX
  8
LAYER1
 62
     7
  6
CONTINUOUS
 10
5.4535
 20
6.1744
  0
VERTEX
  8
LAYER1
 62
     7
  6
CONTINUOUS
 10
5.4565
 20
6.1772
  0
VERTEX
  8
LAYER1
 62
     7
  6
CONTINUOUS
 10
5.4594
 20
6.1803
  0
VERTEX
  8
LAYER1
 62
     7
  6
CONTINUOUS
 10
5.4622
 20
6.1835
  0
VERTEX
  8
LAYER1
 62
     7
  6
CONTINUOUS
 10
5.4650
 20
6.1869
  0
VERTEX
  8
LAYER1
 62
     7
  6
CONTINUOUS
 10
5.4677
 20
6.1903
  0
VERTEX
  8
LAYER1
 62
     7
  6
CONTINUOUS
 10
5.4705
 20
6.1937
  0
VERTEX
  8
LAYER1
 62
     7
  6
CONTINUOUS
 10
5.4733
 20
6.1971
  0
VERTEX
  8
LAYER1
 62
     7
  6
CONTINUOUS
 10
5.4761
 20
6.2004
  0
VERTEX
  8
LAYER1
 62
     7
  6
CONTINUOUS
 10
5.4789
 20
6.2034
  0
VERTEX
  8
LAYER1
 62
     7
  6
CONTINUOUS
 10
5.4826
 20
6.2070
  0
VERTEX
  8
LAYER1
 62
     7
  6
CONTINUOUS
 10
5.4863
 20
6.2102
  0
VERTEX
  8
LAYER1
 62
     7
  6
CONTINUOUS
 10
5.4902
 20
6.2132
  0
VERTEX
  8
LAYER1
 62
     7
  6
CONTINUOUS
 10
5.4943
 20
6.2159
  0
VERTEX
  8
LAYER1
 62
     7
  6
CONTINUOUS
 10
5.4985
 20
6.2183
  0
VERTEX
  8
LAYER1
 62
     7
  6
CONTINUOUS
 10
5.5028
 20
6.2207
  0
VERTEX
  8
LAYER1
 62
     7
  6
CONTINUOUS
 10
5.5074
 20
6.2229
  0
VERTEX
  8
LAYER1
 62
     7
  6
CONTINUOUS
 10
5.5122
 20
6.2251
  0
VERTEX
  8
LAYER1
 62
     7
  6
CONTINUOUS
 10
5.5172
 20
6.2272
  0
VERTEX
  8
LAYER1
 62
     7
  6
CONTINUOUS
 10
5.5225
 20
6.2294
  0
VERTEX
  8
LAYER1
 62
     7
  6
CONTINUOUS
 10
5.5280
 20
6.2317
  0
VERTEX
  8
LAYER1
 62
     7
  6
CONTINUOUS
 10
5.5339
 20
6.2341
  0
VERTEX
  8
LAYER1
 62
     7
  6
CONTINUOUS
 10
5.5413
 20
6.2372
  0
VERTEX
  8
LAYER1
 62
     7
  6
CONTINUOUS
 10
5.5490
 20
6.2405
  0
VERTEX
  8
LAYER1
 62
     7
  6
CONTINUOUS
 10
5.5569
 20
6.2439
  0
VERTEX
  8
LAYER1
 62
     7
  6
CONTINUOUS
 10
5.5646
 20
6.2473
  0
VERTEX
  8
LAYER1
 62
     7
  6
CONTINUOUS
 10
5.5721
 20
6.2506
  0
VERTEX
  8
LAYER1
 62
     7
  6
CONTINUOUS
 10
5.5793
 20
6.2538
  0
VERTEX
  8
LAYER1
 62
     7
  6
CONTINUOUS
 10
5.5858
 20
6.2567
  0
VERTEX
  8
LAYER1
 62
     7
  6
CONTINUOUS
 10
5.5916
 20
6.2593
  0
VERTEX
  8
LAYER1
 62
     7
  6
CONTINUOUS
 10
5.5965
 20
6.2615
  0
VERTEX
  8
LAYER1
 62
     7
  6
CONTINUOUS
 10
5.6003
 20
6.2633
  0
VERTEX
  8
LAYER1
 62
     7
  6
CONTINUOUS
 10
5.6028
 20
6.2644
  0
VERTEX
  8
LAYER1
 62
     7
  6
CONTINUOUS
 10
5.6039
 20
6.2649
  0
VERTEX
  8
LAYER1
 62
     7
  6
CONTINUOUS
 10
5.6039
 20
6.2649
  0
VERTEX
  8
LAYER1
 62
     7
  6
CONTINUOUS
 10
5.6039
 20
6.2649
  0
VERTEX
  8
LAYER1
 62
     7
  6
CONTINUOUS
 10
5.6039
 20
6.2649
  0
VERTEX
  8
LAYER1
 62
     7
  6
CONTINUOUS
 10
5.6039
 20
6.2649
  0
VERTEX
  8
LAYER1
 62
     7
  6
CONTINUOUS
 10
5.6039
 20
6.2649
  0
VERTEX
  8
LAYER1
 62
     7
  6
CONTINUOUS
 10
5.6039
 20
6.2649
  0
VERTEX
  8
LAYER1
 62
     7
  6
CONTINUOUS
 10
5.6039
 20
6.2649
  0
VERTEX
  8
LAYER1
 62
     7
  6
CONTINUOUS
 10
5.6039
 20
6.2649
  0
VERTEX
  8
LAYER1
 62
     7
  6
CONTINUOUS
 10
5.6039
 20
6.2649
  0
VERTEX
  8
LAYER1
 62
     7
  6
CONTINUOUS
 10
5.6039
 20
6.2649
  0
VERTEX
  8
LAYER1
 62
     7
  6
CONTINUOUS
 10
5.6039
 20
6.2649
  0
VERTEX
  8
LAYER1
 62
     7
  6
CONTINUOUS
 10
5.6039
 20
6.2649
  0
VERTEX
  8
LAYER1
 62
     7
  6
CONTINUOUS
 10
5.6039
 20
6.2649
  0
VERTEX
  8
LAYER1
 62
     7
  6
CONTINUOUS
 10
5.6039
 20
6.2649
  0
VERTEX
  8
LAYER1
 62
     7
  6
CONTINUOUS
 10
5.6039
 20
6.2649
  0
VERTEX
  8
LAYER1
 62
     7
  6
CONTINUOUS
 10
5.6039
 20
6.2649
  0
VERTEX
  8
LAYER1
 62
     7
  6
CONTINUOUS
 10
5.6039
 20
6.2649
  0
VERTEX
  8
LAYER1
 62
     7
  6
CONTINUOUS
 10
5.6039
 20
6.2649
  0
VERTEX
  8
LAYER1
 62
     7
  6
CONTINUOUS
 10
5.6039
 20
6.2649
  0
VERTEX
  8
LAYER1
 62
     7
  6
CONTINUOUS
 10
5.6039
 20
6.2649
  0
VERTEX
  8
LAYER1
 62
     7
  6
CONTINUOUS
 10
5.6039
 20
6.2649
  0
VERTEX
  8
LAYER1
 62
     7
  6
CONTINUOUS
 10
5.6039
 20
6.2649
  0
VERTEX
  8
LAYER1
 62
     7
  6
CONTINUOUS
 10
5.6039
 20
6.2649
  0
VERTEX
  8
LAYER1
 62
     7
  6
CONTINUOUS
 10
5.6039
 20
6.2649
  0
VERTEX
  8
LAYER1
 62
     7
  6
CONTINUOUS
 10
5.6039
 20
6.2649
  0
VERTEX
  8
LAYER1
 62
     7
  6
CONTINUOUS
 10
5.6039
 20
6.2649
  0
VERTEX
  8
LAYER1
 62
     7
  6
CONTINUOUS
 10
5.6039
 20
6.2649
  0
VERTEX
  8
LAYER1
 62
     7
  6
CONTINUOUS
 10
5.6039
 20
6.2649
  0
VERTEX
  8
LAYER1
 62
     7
  6
CONTINUOUS
 10
5.6039
 20
6.2649
  0
VERTEX
  8
LAYER1
 62
     7
  6
CONTINUOUS
 10
5.6039
 20
6.2649
  0
VERTEX
  8
LAYER1
 62
     7
  6
CONTINUOUS
 10
5.6039
 20
6.2649
  0
VERTEX
  8
LAYER1
 62
     7
  6
CONTINUOUS
 10
5.6039
 20
6.2649
  0
VERTEX
  8
LAYER1
 62
     7
  6
CONTINUOUS
 10
5.6039
 20
6.2649
  0
VERTEX
  8
LAYER1
 62
     7
  6
CONTINUOUS
 10
5.6039
 20
6.2649
  0
VERTEX
  8
LAYER1
 62
     7
  6
CONTINUOUS
 10
5.6039
 20
6.2649
  0
VERTEX
  8
LAYER1
 62
     7
  6
CONTINUOUS
 10
5.6039
 20
6.2649
  0
VERTEX
  8
LAYER1
 62
     7
  6
CONTINUOUS
 10
5.6039
 20
6.2649
  0
VERTEX
  8
LAYER1
 62
     7
  6
CONTINUOUS
 10
5.6039
 20
6.2649
  0
VERTEX
  8
LAYER1
 62
     7
  6
CONTINUOUS
 10
5.6039
 20
6.2649
  0
VERTEX
  8
LAYER1
 62
     7
  6
CONTINUOUS
 10
5.6039
 20
6.2649
  0
VERTEX
  8
LAYER1
 62
     7
  6
CONTINUOUS
 10
5.6039
 20
6.2649
  0
VERTEX
  8
LAYER1
 62
     7
  6
CONTINUOUS
 10
5.6038
 20
6.2649
  0
VERTEX
  8
LAYER1
 62
     7
  6
CONTINUOUS
 10
5.6038
 20
6.2649
  0
VERTEX
  8
LAYER1
 62
     7
  6
CONTINUOUS
 10
5.6038
 20
6.2649
  0
VERTEX
  8
LAYER1
 62
     7
  6
CONTINUOUS
 10
5.6038
 20
6.2649
  0
VERTEX
  8
LAYER1
 62
     7
  6
CONTINUOUS
 10
5.6039
 20
6.2649
  0
VERTEX
  8
LAYER1
 62
     7
  6
CONTINUOUS
 10
5.6039
 20
6.2649
  0
VERTEX
  8
LAYER1
 62
     7
  6
CONTINUOUS
 10
5.6039
 20
6.2649
  0
VERTEX
  8
LAYER1
 62
     7
  6
CONTINUOUS
 10
5.6049
 20
6.2656
  0
VERTEX
  8
LAYER1
 62
     7
  6
CONTINUOUS
 10
5.6071
 20
6.2672
  0
VERTEX
  8
LAYER1
 62
     7
  6
CONTINUOUS
 10
5.6105
 20
6.2696
  0
VERTEX
  8
LAYER1
 62
     7
  6
CONTINUOUS
 10
5.6147
 20
6.2727
  0
VERTEX
  8
LAYER1
 62
     7
  6
CONTINUOUS
 10
5.6196
 20
6.2764
  0
VERTEX
  8
LAYER1
 62
     7
  6
CONTINUOUS
 10
5.6250
 20
6.2806
  0
VERTEX
  8
LAYER1
 62
     7
  6
CONTINUOUS
 10
5.6308
 20
6.2852
  0
VERTEX
  8
LAYER1
 62
     7
  6
CONTINUOUS
 10
5.6368
 20
6.2901
  0
VERTEX
  8
LAYER1
 62
     7
  6
CONTINUOUS
 10
5.6427
 20
6.2952
  0
VERTEX
  8
LAYER1
 62
     7
  6
CONTINUOUS
 10
5.6485
 20
6.3004
  0
VERTEX
  8
LAYER1
 62
     7
  6
CONTINUOUS
 10
5.6539
 20
6.3056
  0
VERTEX
  8
LAYER1
 62
     7
  6
CONTINUOUS
 10
5.6587
 20
6.3106
  0
VERTEX
  8
LAYER1
 62
     7
  6
CONTINUOUS
 10
5.6613
 20
6.3136
  0
VERTEX
  8
LAYER1
 62
     7
  6
CONTINUOUS
 10
5.6636
 20
6.3164
  0
VERTEX
  8
LAYER1
 62
     7
  6
CONTINUOUS
 10
5.6658
 20
6.3192
  0
VERTEX
  8
LAYER1
 62
     7
  6
CONTINUOUS
 10
5.6680
 20
6.3219
  0
VERTEX
  8
LAYER1
 62
     7
  6
CONTINUOUS
 10
5.6701
 20
6.3246
  0
VERTEX
  8
LAYER1
 62
     7
  6
CONTINUOUS
 10
5.6722
 20
6.3271
  0
VERTEX
  8
LAYER1
 62
     7
  6
CONTINUOUS
 10
5.6744
 20
6.3296
  0
VERTEX
  8
LAYER1
 62
     7
  6
CONTINUOUS
 10
5.6767
 20
6.3321
  0
VERTEX
  8
LAYER1
 62
     7
  6
CONTINUOUS
 10
5.6792
 20
6.3344
  0
VERTEX
  8
LAYER1
 62
     7
  6
CONTINUOUS
 10
5.6820
 20
6.3367
  0
VERTEX
  8
LAYER1
 62
     7
  6
CONTINUOUS
 10
5.6851
 20
6.3389
  0
VERTEX
  8
LAYER1
 62
     7
  6
CONTINUOUS
 10
5.6886
 20
6.3411
  0
VERTEX
  8
LAYER1
 62
     7
  6
CONTINUOUS
 10
5.6904
 20
6.3421
  0
VERTEX
  8
LAYER1
 62
     7
  6
CONTINUOUS
 10
5.6923
 20
6.3431
  0
VERTEX
  8
LAYER1
 62
     7
  6
CONTINUOUS
 10
5.6942
 20
6.3440
  0
VERTEX
  8
LAYER1
 62
     7
  6
CONTINUOUS
 10
5.6962
 20
6.3448
  0
VERTEX
  8
LAYER1
 62
     7
  6
CONTINUOUS
 10
5.6981
 20
6.3456
  0
VERTEX
  8
LAYER1
 62
     7
  6
CONTINUOUS
 10
5.7000
 20
6.3462
  0
VERTEX
  8
LAYER1
 62
     7
  6
CONTINUOUS
 10
5.7018
 20
6.3467
  0
VERTEX
  8
LAYER1
 62
     7
  6
CONTINUOUS
 10
5.7035
 20
6.3470
  0
VERTEX
  8
LAYER1
 62
     7
  6
CONTINUOUS
 10
5.7050
 20
6.3471
  0
VERTEX
  8
LAYER1
 62
     7
  6
CONTINUOUS
 10
5.7064
 20
6.3471
  0
VERTEX
  8
LAYER1
 62
     7
  6
CONTINUOUS
 10
5.7076
 20
6.3468
  0
VERTEX
  8
LAYER1
 62
     7
  6
CONTINUOUS
 10
5.7086
 20
6.3463
  0
VERTEX
  8
LAYER1
 62
     7
  6
CONTINUOUS
 10
5.7096
 20
6.3451
  0
VERTEX
  8
LAYER1
 62
     7
  6
CONTINUOUS
 10
5.7101
 20
6.3434
  0
VERTEX
  8
LAYER1
 62
     7
  6
CONTINUOUS
 10
5.7103
 20
6.3412
  0
VERTEX
  8
LAYER1
 62
     7
  6
CONTINUOUS
 10
5.7101
 20
6.3388
  0
VERTEX
  8
LAYER1
 62
     7
  6
CONTINUOUS
 10
5.7098
 20
6.3361
  0
VERTEX
  8
LAYER1
 62
     7
  6
CONTINUOUS
 10
5.7094
 20
6.3332
  0
VERTEX
  8
LAYER1
 62
     7
  6
CONTINUOUS
 10
5.7089
 20
6.3302
  0
VERTEX
  8
LAYER1
 62
     7
  6
CONTINUOUS
 10
5.7084
 20
6.3272
  0
VERTEX
  8
LAYER1
 62
     7
  6
CONTINUOUS
 10
5.7081
 20
6.3242
  0
VERTEX
  8
LAYER1
 62
     7
  6
CONTINUOUS
 10
5.7081
 20
6.3213
  0
VERTEX
  8
LAYER1
 62
     7
  6
CONTINUOUS
 10
5.7083
 20
6.3186
  0
VERTEX
  8
LAYER1
 62
     7
  6
CONTINUOUS
 10
5.7089
 20
6.3161
  0
VERTEX
  8
LAYER1
 62
     7
  6
CONTINUOUS
 10
5.7098
 20
6.3142
  0
VERTEX
  8
LAYER1
 62
     7
  6
CONTINUOUS
 10
5.7111
 20
6.3126
  0
VERTEX
  8
LAYER1
 62
     7
  6
CONTINUOUS
 10
5.7127
 20
6.3112
  0
VERTEX
  8
LAYER1
 62
     7
  6
CONTINUOUS
 10
5.7145
 20
6.3100
  0
VERTEX
  8
LAYER1
 62
     7
  6
CONTINUOUS
 10
5.7166
 20
6.3090
  0
VERTEX
  8
LAYER1
 62
     7
  6
CONTINUOUS
 10
5.7188
 20
6.3082
  0
VERTEX
  8
LAYER1
 62
     7
  6
CONTINUOUS
 10
5.7212
 20
6.3076
  0
VERTEX
  8
LAYER1
 62
     7
  6
CONTINUOUS
 10
5.7237
 20
6.3071
  0
VERTEX
  8
LAYER1
 62
     7
  6
CONTINUOUS
 10
5.7263
 20
6.3067
  0
VERTEX
  8
LAYER1
 62
     7
  6
CONTINUOUS
 10
5.7289
 20
6.3065
  0
SEQEND
  8
LAYER1
  0
POLYLINE
  8
LAYER1
 62
     7
 66
     1
  6
CONTINUOUS
  0
VERTEX
  8
LAYER1
 62
     7
  6
CONTINUOUS
 10
5.7289
 20
6.3065
  0
VERTEX
  8
LAYER1
 62
     7
  6
CONTINUOUS
 10
5.7315
 20
6.3064
  0
VERTEX
  8
LAYER1
 62
     7
  6
CONTINUOUS
 10
5.7341
 20
6.3063
  0
VERTEX
  8
LAYER1
 62
     7
  6
CONTINUOUS
 10
5.7369
 20
6.3064
  0
VERTEX
  8
LAYER1
 62
     7
  6
CONTINUOUS
 10
5.7396
 20
6.3065
  0
VERTEX
  8
LAYER1
 62
     7
  6
CONTINUOUS
 10
5.7423
 20
6.3067
  0
VERTEX
  8
LAYER1
 62
     7
  6
CONTINUOUS
 10
5.7448
 20
6.3069
  0
VERTEX
  8
LAYER1
 62
     7
  6
CONTINUOUS
 10
5.7473
 20
6.3073
  0
VERTEX
  8
LAYER1
 62
     7
  6
CONTINUOUS
 10
5.7498
 20
6.3077
  0
VERTEX
  8
LAYER1
 62
     7
  6
CONTINUOUS
 10
5.7522
 20
6.3082
  0
VERTEX
  8
LAYER1
 62
     7
  6
CONTINUOUS
 10
5.7546
 20
6.3087
  0
VERTEX
  8
LAYER1
 62
     7
  6
CONTINUOUS
 10
5.7570
 20
6.3094
  0
VERTEX
  8
LAYER1
 62
     7
  6
CONTINUOUS
 10
5.7594
 20
6.3101
  0
VERTEX
  8
LAYER1
 62
     7
  6
CONTINUOUS
 10
5.7618
 20
6.3108
  0
VERTEX
  8
LAYER1
 62
     7
  6
CONTINUOUS
 10
5.7642
 20
6.3116
  0
VERTEX
  8
LAYER1
 62
     7
  6
CONTINUOUS
 10
5.7671
 20
6.3127
  0
VERTEX
  8
LAYER1
 62
     7
  6
CONTINUOUS
 10
5.7700
 20
6.3138
  0
VERTEX
  8
LAYER1
 62
     7
  6
CONTINUOUS
 10
5.7729
 20
6.3151
  0
VERTEX
  8
LAYER1
 62
     7
  6
CONTINUOUS
 10
5.7758
 20
6.3164
  0
VERTEX
  8
LAYER1
 62
     7
  6
CONTINUOUS
 10
5.7786
 20
6.3179
  0
VERTEX
  8
LAYER1
 62
     7
  6
CONTINUOUS
 10
5.7813
 20
6.3195
  0
VERTEX
  8
LAYER1
 62
     7
  6
CONTINUOUS
 10
5.7839
 20
6.3212
  0
VERTEX
  8
LAYER1
 62
     7
  6
CONTINUOUS
 10
5.7863
 20
6.3231
  0
VERTEX
  8
LAYER1
 62
     7
  6
CONTINUOUS
 10
5.7886
 20
6.3251
  0
VERTEX
  8
LAYER1
 62
     7
  6
CONTINUOUS
 10
5.7907
 20
6.3272
  0
VERTEX
  8
LAYER1
 62
     7
  6
CONTINUOUS
 10
5.7925
 20
6.3295
  0
VERTEX
  8
LAYER1
 62
     7
  6
CONTINUOUS
 10
5.7941
 20
6.3320
  0
VERTEX
  8
LAYER1
 62
     7
  6
CONTINUOUS
 10
5.7949
 20
6.3335
  0
VERTEX
  8
LAYER1
 62
     7
  6
CONTINUOUS
 10
5.7956
 20
6.3351
  0
VERTEX
  8
LAYER1
 62
     7
  6
CONTINUOUS
 10
5.7963
 20
6.3367
  0
VERTEX
  8
LAYER1
 62
     7
  6
CONTINUOUS
 10
5.7968
 20
6.3383
  0
VERTEX
  8
LAYER1
 62
     7
  6
CONTINUOUS
 10
5.7973
 20
6.3400
  0
VERTEX
  8
LAYER1
 62
     7
  6
CONTINUOUS
 10
5.7977
 20
6.3417
  0
VERTEX
  8
LAYER1
 62
     7
  6
CONTINUOUS
 10
5.7980
 20
6.3434
  0
VERTEX
  8
LAYER1
 62
     7
  6
CONTINUOUS
 10
5.7983
 20
6.3451
  0
VERTEX
  8
LAYER1
 62
     7
  6
CONTINUOUS
 10
5.7985
 20
6.3469
  0
VERTEX
  8
LAYER1
 62
     7
  6
CONTINUOUS
 10
5.7987
 20
6.3486
  0
VERTEX
  8
LAYER1
 62
     7
  6
CONTINUOUS
 10
5.7989
 20
6.3504
  0
VERTEX
  8
LAYER1
 62
     7
  6
CONTINUOUS
 10
5.7990
 20
6.3522
  0
VERTEX
  8
LAYER1
 62
     7
  6
CONTINUOUS
 10
5.7991
 20
6.3555
  0
VERTEX
  8
LAYER1
 62
     7
  6
CONTINUOUS
 10
5.7991
 20
6.3589
  0
VERTEX
  8
LAYER1
 62
     7
  6
CONTINUOUS
 10
5.7990
 20
6.3622
  0
VERTEX
  8
LAYER1
 62
     7
  6
CONTINUOUS
 10
5.7988
 20
6.3655
  0
VERTEX
  8
LAYER1
 62
     7
  6
CONTINUOUS
 10
5.7987
 20
6.3688
  0
VERTEX
  8
LAYER1
 62
     7
  6
CONTINUOUS
 10
5.7985
 20
6.3721
  0
VERTEX
  8
LAYER1
 62
     7
  6
CONTINUOUS
 10
5.7983
 20
6.3754
  0
VERTEX
  8
LAYER1
 62
     7
  6
CONTINUOUS
 10
5.7982
 20
6.3787
  0
VERTEX
  8
LAYER1
 62
     7
  6
CONTINUOUS
 10
5.7981
 20
6.3820
  0
VERTEX
  8
LAYER1
 62
     7
  6
CONTINUOUS
 10
5.7982
 20
6.3854
  0
VERTEX
  8
LAYER1
 62
     7
  6
CONTINUOUS
 10
5.7983
 20
6.3889
  0
VERTEX
  8
LAYER1
 62
     7
  6
CONTINUOUS
 10
5.7986
 20
6.3923
  0
VERTEX
  8
LAYER1
 62
     7
  6
CONTINUOUS
 10
5.7987
 20
6.3937
  0
VERTEX
  8
LAYER1
 62
     7
  6
CONTINUOUS
 10
5.7989
 20
6.3951
  0
VERTEX
  8
LAYER1
 62
     7
  6
CONTINUOUS
 10
5.7991
 20
6.3965
  0
VERTEX
  8
LAYER1
 62
     7
  6
CONTINUOUS
 10
5.7994
 20
6.3979
  0
VERTEX
  8
LAYER1
 62
     7
  6
CONTINUOUS
 10
5.7997
 20
6.3993
  0
VERTEX
  8
LAYER1
 62
     7
  6
CONTINUOUS
 10
5.8001
 20
6.4006
  0
VERTEX
  8
LAYER1
 62
     7
  6
CONTINUOUS
 10
5.8005
 20
6.4019
  0
VERTEX
  8
LAYER1
 62
     7
  6
CONTINUOUS
 10
5.8009
 20
6.4031
  0
VERTEX
  8
LAYER1
 62
     7
  6
CONTINUOUS
 10
5.8014
 20
6.4043
  0
VERTEX
  8
LAYER1
 62
     7
  6
CONTINUOUS
 10
5.8020
 20
6.4054
  0
VERTEX
  8
LAYER1
 62
     7
  6
CONTINUOUS
 10
5.8027
 20
6.4065
  0
VERTEX
  8
LAYER1
 62
     7
  6
CONTINUOUS
 10
5.8035
 20
6.4075
  0
VERTEX
  8
LAYER1
 62
     7
  6
CONTINUOUS
 10
5.8049
 20
6.4089
  0
VERTEX
  8
LAYER1
 62
     7
  6
CONTINUOUS
 10
5.8066
 20
6.4102
  0
VERTEX
  8
LAYER1
 62
     7
  6
CONTINUOUS
 10
5.8084
 20
6.4113
  0
VERTEX
  8
LAYER1
 62
     7
  6
CONTINUOUS
 10
5.8104
 20
6.4122
  0
VERTEX
  8
LAYER1
 62
     7
  6
CONTINUOUS
 10
5.8126
 20
6.4130
  0
VERTEX
  8
LAYER1
 62
     7
  6
CONTINUOUS
 10
5.8148
 20
6.4137
  0
VERTEX
  8
LAYER1
 62
     7
  6
CONTINUOUS
 10
5.8171
 20
6.4143
  0
VERTEX
  8
LAYER1
 62
     7
  6
CONTINUOUS
 10
5.8194
 20
6.4149
  0
VERTEX
  8
LAYER1
 62
     7
  6
CONTINUOUS
 10
5.8217
 20
6.4155
  0
VERTEX
  8
LAYER1
 62
     7
  6
CONTINUOUS
 10
5.8240
 20
6.4162
  0
VERTEX
  8
LAYER1
 62
     7
  6
CONTINUOUS
 10
5.8263
 20
6.4169
  0
VERTEX
  8
LAYER1
 62
     7
  6
CONTINUOUS
 10
5.8285
 20
6.4177
  0
VERTEX
  8
LAYER1
 62
     7
  6
CONTINUOUS
 10
5.8322
 20
6.4196
  0
VERTEX
  8
LAYER1
 62
     7
  6
CONTINUOUS
 10
5.8357
 20
6.4218
  0
VERTEX
  8
LAYER1
 62
     7
  6
CONTINUOUS
 10
5.8389
 20
6.4244
  0
VERTEX
  8
LAYER1
 62
     7
  6
CONTINUOUS
 10
5.8418
 20
6.4273
  0
VERTEX
  8
LAYER1
 62
     7
  6
CONTINUOUS
 10
5.8446
 20
6.4303
  0
VERTEX
  8
LAYER1
 62
     7
  6
CONTINUOUS
 10
5.8473
 20
6.4336
  0
VERTEX
  8
LAYER1
 62
     7
  6
CONTINUOUS
 10
5.8499
 20
6.4369
  0
VERTEX
  8
LAYER1
 62
     7
  6
CONTINUOUS
 10
5.8525
 20
6.4403
  0
VERTEX
  8
LAYER1
 62
     7
  6
CONTINUOUS
 10
5.8550
 20
6.4437
  0
VERTEX
  8
LAYER1
 62
     7
  6
CONTINUOUS
 10
5.8577
 20
6.4470
  0
VERTEX
  8
LAYER1
 62
     7
  6
CONTINUOUS
 10
5.8604
 20
6.4502
  0
VERTEX
  8
LAYER1
 62
     7
  6
CONTINUOUS
 10
5.8633
 20
6.4532
  0
VERTEX
  8
LAYER1
 62
     7
  6
CONTINUOUS
 10
5.8660
 20
6.4557
  0
VERTEX
  8
LAYER1
 62
     7
  6
CONTINUOUS
 10
5.8688
 20
6.4580
  0
VERTEX
  8
LAYER1
 62
     7
  6
CONTINUOUS
 10
5.8717
 20
6.4602
  0
VERTEX
  8
LAYER1
 62
     7
  6
CONTINUOUS
 10
5.8746
 20
6.4623
  0
VERTEX
  8
LAYER1
 62
     7
  6
CONTINUOUS
 10
5.8777
 20
6.4643
  0
VERTEX
  8
LAYER1
 62
     7
  6
CONTINUOUS
 10
5.8807
 20
6.4663
  0
VERTEX
  8
LAYER1
 62
     7
  6
CONTINUOUS
 10
5.8838
 20
6.4682
  0
VERTEX
  8
LAYER1
 62
     7
  6
CONTINUOUS
 10
5.8868
 20
6.4702
  0
VERTEX
  8
LAYER1
 62
     7
  6
CONTINUOUS
 10
5.8898
 20
6.4722
  0
VERTEX
  8
LAYER1
 62
     7
  6
CONTINUOUS
 10
5.8927
 20
6.4743
  0
VERTEX
  8
LAYER1
 62
     7
  6
CONTINUOUS
 10
5.8955
 20
6.4764
  0
VERTEX
  8
LAYER1
 62
     7
  6
CONTINUOUS
 10
5.8982
 20
6.4787
  0
VERTEX
  8
LAYER1
 62
     7
  6
CONTINUOUS
 10
5.9013
 20
6.4817
  0
VERTEX
  8
LAYER1
 62
     7
  6
CONTINUOUS
 10
5.9042
 20
6.4848
  0
VERTEX
  8
LAYER1
 62
     7
  6
CONTINUOUS
 10
5.9070
 20
6.4882
  0
VERTEX
  8
LAYER1
 62
     7
  6
CONTINUOUS
 10
5.9095
 20
6.4917
  0
VERTEX
  8
LAYER1
 62
     7
  6
CONTINUOUS
 10
5.9119
 20
6.4954
  0
VERTEX
  8
LAYER1
 62
     7
  6
CONTINUOUS
 10
5.9142
 20
6.4992
  0
VERTEX
  8
LAYER1
 62
     7
  6
CONTINUOUS
 10
5.9164
 20
6.5030
  0
VERTEX
  8
LAYER1
 62
     7
  6
CONTINUOUS
 10
5.9185
 20
6.5070
  0
VERTEX
  8
LAYER1
 62
     7
  6
CONTINUOUS
 10
5.9205
 20
6.5111
  0
VERTEX
  8
LAYER1
 62
     7
  6
CONTINUOUS
 10
5.9225
 20
6.5152
  0
VERTEX
  8
LAYER1
 62
     7
  6
CONTINUOUS
 10
5.9244
 20
6.5193
  0
VERTEX
  8
LAYER1
 62
     7
  6
CONTINUOUS
 10
5.9263
 20
6.5235
  0
SEQEND
  8
LAYER1
  0
POLYLINE
  8
LAYER1
 62
     7
 66
     1
  6
CONTINUOUS
  0
VERTEX
  8
LAYER1
 62
     7
  6
CONTINUOUS
 10
5.0426
 20
6.3978
  0
VERTEX
  8
LAYER1
 62
     7
  6
CONTINUOUS
 10
5.0426
 20
6.3978
  0
VERTEX
  8
LAYER1
 62
     7
  6
CONTINUOUS
 10
5.0426
 20
6.3978
  0
VERTEX
  8
LAYER1
 62
     7
  6
CONTINUOUS
 10
5.0426
 20
6.3978
  0
VERTEX
  8
LAYER1
 62
     7
  6
CONTINUOUS
 10
5.0426
 20
6.3978
  0
VERTEX
  8
LAYER1
 62
     7
  6
CONTINUOUS
 10
5.0426
 20
6.3978
  0
VERTEX
  8
LAYER1
 62
     7
  6
CONTINUOUS
 10
5.0426
 20
6.3978
  0
VERTEX
  8
LAYER1
 62
     7
  6
CONTINUOUS
 10
5.0426
 20
6.3978
  0
VERTEX
  8
LAYER1
 62
     7
  6
CONTINUOUS
 10
5.0426
 20
6.3978
  0
VERTEX
  8
LAYER1
 62
     7
  6
CONTINUOUS
 10
5.0426
 20
6.3978
  0
VERTEX
  8
LAYER1
 62
     7
  6
CONTINUOUS
 10
5.0426
 20
6.3978
  0
VERTEX
  8
LAYER1
 62
     7
  6
CONTINUOUS
 10
5.0426
 20
6.3978
  0
VERTEX
  8
LAYER1
 62
     7
  6
CONTINUOUS
 10
5.0426
 20
6.3978
  0
VERTEX
  8
LAYER1
 62
     7
  6
CONTINUOUS
 10
5.0426
 20
6.3978
  0
VERTEX
  8
LAYER1
 62
     7
  6
CONTINUOUS
 10
5.0426
 20
6.3978
  0
VERTEX
  8
LAYER1
 62
     7
  6
CONTINUOUS
 10
5.0426
 20
6.3978
  0
VERTEX
  8
LAYER1
 62
     7
  6
CONTINUOUS
 10
5.0426
 20
6.3978
  0
VERTEX
  8
LAYER1
 62
     7
  6
CONTINUOUS
 10
5.0426
 20
6.3978
  0
VERTEX
  8
LAYER1
 62
     7
  6
CONTINUOUS
 10
5.0426
 20
6.3978
  0
VERTEX
  8
LAYER1
 62
     7
  6
CONTINUOUS
 10
5.0426
 20
6.3978
  0
VERTEX
  8
LAYER1
 62
     7
  6
CONTINUOUS
 10
5.0426
 20
6.3978
  0
VERTEX
  8
LAYER1
 62
     7
  6
CONTINUOUS
 10
5.0426
 20
6.3978
  0
VERTEX
  8
LAYER1
 62
     7
  6
CONTINUOUS
 10
5.0426
 20
6.3978
  0
VERTEX
  8
LAYER1
 62
     7
  6
CONTINUOUS
 10
5.0426
 20
6.3978
  0
VERTEX
  8
LAYER1
 62
     7
  6
CONTINUOUS
 10
5.0426
 20
6.3978
  0
SEQEND
  8
LAYER1
  0
POLYLINE
  8
LAYER1
 62
     7
 66
     1
  6
CONTINUOUS
  0
VERTEX
  8
LAYER1
 62
     7
  6
CONTINUOUS
 10
5.0426
 20
6.3978
  0
VERTEX
  8
LAYER1
 62
     7
  6
CONTINUOUS
 10
5.0436
 20
6.3972
  0
VERTEX
  8
LAYER1
 62
     7
  6
CONTINUOUS
 10
5.0447
 20
6.3965
  0
VERTEX
  8
LAYER1
 62
     7
  6
CONTINUOUS
 10
5.0457
 20
6.3959
  0
VERTEX
  8
LAYER1
 62
     7
  6
CONTINUOUS
 10
5.0467
 20
6.3953
  0
VERTEX
  8
LAYER1
 62
     7
  6
CONTINUOUS
 10
5.0477
 20
6.3946
  0
VERTEX
  8
LAYER1
 62
     7
  6
CONTINUOUS
 10
5.0488
 20
6.3940
  0
VERTEX
  8
LAYER1
 62
     7
  6
CONTINUOUS
 10
5.0498
 20
6.3934
  0
VERTEX
  8
LAYER1
 62
     7
  6
CONTINUOUS
 10
5.0509
 20
6.3927
  0
VERTEX
  8
LAYER1
 62
     7
  6
CONTINUOUS
 10
5.0519
 20
6.3921
  0
VERTEX
  8
LAYER1
 62
     7
  6
CONTINUOUS
 10
5.0530
 20
6.3915
  0
VERTEX
  8
LAYER1
 62
     7
  6
CONTINUOUS
 10
5.0541
 20
6.3909
  0
VERTEX
  8
LAYER1
 62
     7
  6
CONTINUOUS
 10
5.0552
 20
6.3903
  0
VERTEX
  8
LAYER1
 62
     7
  6
CONTINUOUS
 10
5.0584
 20
6.3886
  0
VERTEX
  8
LAYER1
 62
     7
  6
CONTINUOUS
 10
5.0617
 20
6.3868
  0
VERTEX
  8
LAYER1
 62
     7
  6
CONTINUOUS
 10
5.0651
 20
6.3851
  0
VERTEX
  8
LAYER1
 62
     7
  6
CONTINUOUS
 10
5.0684
 20
6.3834
  0
VERTEX
  8
LAYER1
 62
     7
  6
CONTINUOUS
 10
5.0717
 20
6.3816
  0
VERTEX
  8
LAYER1
 62
     7
  6
CONTINUOUS
 10
5.0749
 20
6.3798
  0
VERTEX
  8
LAYER1
 62
     7
  6
CONTINUOUS
 10
5.0780
 20
6.3778
  0
VERTEX
  8
LAYER1
 62
     7
  6
CONTINUOUS
 10
5.0809
 20
6.3758
  0
VERTEX
  8
LAYER1
 62
     7
  6
CONTINUOUS
 10
5.0837
 20
6.3735
  0
VERTEX
  8
LAYER1
 62
     7
  6
CONTINUOUS
 10
5.0862
 20
6.3711
  0
VERTEX
  8
LAYER1
 62
     7
  6
CONTINUOUS
 10
5.0885
 20
6.3684
  0
VERTEX
  8
LAYER1
 62
     7
  6
CONTINUOUS
 10
5.0906
 20
6.3655
  0
VERTEX
  8
LAYER1
 62
     7
  6
CONTINUOUS
 10
5.0923
 20
6.3624
  0
VERTEX
  8
LAYER1
 62
     7
  6
CONTINUOUS
 10
5.0937
 20
6.3590
  0
VERTEX
  8
LAYER1
 62
     7
  6
CONTINUOUS
 10
5.0950
 20
6.3555
  0
VERTEX
  8
LAYER1
 62
     7
  6
CONTINUOUS
 10
5.0961
 20
6.3519
  0
VERTEX
  8
LAYER1
 62
     7
  6
CONTINUOUS
 10
5.0971
 20
6.3483
  0
VERTEX
  8
LAYER1
 62
     7
  6
CONTINUOUS
 10
5.0981
 20
6.3446
  0
VERTEX
  8
LAYER1
 62
     7
  6
CONTINUOUS
 10
5.0991
 20
6.3410
  0
VERTEX
  8
LAYER1
 62
     7
  6
CONTINUOUS
 10
5.1001
 20
6.3374
  0
VERTEX
  8
LAYER1
 62
     7
  6
CONTINUOUS
 10
5.1013
 20
6.3341
  0
VERTEX
  8
LAYER1
 62
     7
  6
CONTINUOUS
 10
5.1026
 20
6.3309
  0
VERTEX
  8
LAYER1
 62
     7
  6
CONTINUOUS
 10
5.1042
 20
6.3280
  0
VERTEX
  8
LAYER1
 62
     7
  6
CONTINUOUS
 10
5.1060
 20
6.3255
  0
VERTEX
  8
LAYER1
 62
     7
  6
CONTINUOUS
 10
5.1090
 20
6.3226
  0
VERTEX
  8
LAYER1
 62
     7
  6
CONTINUOUS
 10
5.1124
 20
6.3203
  0
VERTEX
  8
LAYER1
 62
     7
  6
CONTINUOUS
 10
5.1164
 20
6.3185
  0
VERTEX
  8
LAYER1
 62
     7
  6
CONTINUOUS
 10
5.1207
 20
6.3171
  0
VERTEX
  8
LAYER1
 62
     7
  6
CONTINUOUS
 10
5.1254
 20
6.3160
  0
VERTEX
  8
LAYER1
 62
     7
  6
CONTINUOUS
 10
5.1303
 20
6.3152
  0
VERTEX
  8
LAYER1
 62
     7
  6
CONTINUOUS
 10
5.1354
 20
6.3145
  0
VERTEX
  8
LAYER1
 62
     7
  6
CONTINUOUS
 10
5.1406
 20
6.3140
  0
VERTEX
  8
LAYER1
 62
     7
  6
CONTINUOUS
 10
5.1459
 20
6.3134
  0
VERTEX
  8
LAYER1
 62
     7
  6
CONTINUOUS
 10
5.1512
 20
6.3128
  0
VERTEX
  8
LAYER1
 62
     7
  6
CONTINUOUS
 10
5.1563
 20
6.3120
  0
VERTEX
  8
LAYER1
 62
     7
  6
CONTINUOUS
 10
5.1614
 20
6.3109
  0
VERTEX
  8
LAYER1
 62
     7
  6
CONTINUOUS
 10
5.1651
 20
6.3100
  0
VERTEX
  8
LAYER1
 62
     7
  6
CONTINUOUS
 10
5.1686
 20
6.3089
  0
VERTEX
  8
LAYER1
 62
     7
  6
CONTINUOUS
 10
5.1721
 20
6.3076
  0
VERTEX
  8
LAYER1
 62
     7
  6
CONTINUOUS
 10
5.1755
 20
6.3063
  0
VERTEX
  8
LAYER1
 62
     7
  6
CONTINUOUS
 10
5.1788
 20
6.3049
  0
VERTEX
  8
LAYER1
 62
     7
  6
CONTINUOUS
 10
5.1821
 20
6.3035
  0
VERTEX
  8
LAYER1
 62
     7
  6
CONTINUOUS
 10
5.1853
 20
6.3021
  0
VERTEX
  8
LAYER1
 62
     7
  6
CONTINUOUS
 10
5.1886
 20
6.3007
  0
VERTEX
  8
LAYER1
 62
     7
  6
CONTINUOUS
 10
5.1918
 20
6.2994
  0
VERTEX
  8
LAYER1
 62
     7
  6
CONTINUOUS
 10
5.1951
 20
6.2982
  0
VERTEX
  8
LAYER1
 62
     7
  6
CONTINUOUS
 10
5.1984
 20
6.2972
  0
VERTEX
  8
LAYER1
 62
     7
  6
CONTINUOUS
 10
5.2017
 20
6.2962
  0
VERTEX
  8
LAYER1
 62
     7
  6
CONTINUOUS
 10
5.2053
 20
6.2955
  0
VERTEX
  8
LAYER1
 62
     7
  6
CONTINUOUS
 10
5.2089
 20
6.2949
  0
VERTEX
  8
LAYER1
 62
     7
  6
CONTINUOUS
 10
5.2126
 20
6.2945
  0
VERTEX
  8
LAYER1
 62
     7
  6
CONTINUOUS
 10
5.2164
 20
6.2943
  0
VERTEX
  8
LAYER1
 62
     7
  6
CONTINUOUS
 10
5.2201
 20
6.2942
  0
VERTEX
  8
LAYER1
 62
     7
  6
CONTINUOUS
 10
5.2239
 20
6.2943
  0
VERTEX
  8
LAYER1
 62
     7
  6
CONTINUOUS
 10
5.2278
 20
6.2945
  0
VERTEX
  8
LAYER1
 62
     7
  6
CONTINUOUS
 10
5.2316
 20
6.2948
  0
VERTEX
  8
LAYER1
 62
     7
  6
CONTINUOUS
 10
5.2354
 20
6.2951
  0
VERTEX
  8
LAYER1
 62
     7
  6
CONTINUOUS
 10
5.2393
 20
6.2956
  0
VERTEX
  8
LAYER1
 62
     7
  6
CONTINUOUS
 10
5.2431
 20
6.2961
  0
VERTEX
  8
LAYER1
 62
     7
  6
CONTINUOUS
 10
5.2469
 20
6.2967
  0
VERTEX
  8
LAYER1
 62
     7
  6
CONTINUOUS
 10
5.2529
 20
6.2976
  0
VERTEX
  8
LAYER1
 62
     7
  6
CONTINUOUS
 10
5.2588
 20
6.2986
  0
VERTEX
  8
LAYER1
 62
     7
  6
CONTINUOUS
 10
5.2646
 20
6.2997
  0
VERTEX
  8
LAYER1
 62
     7
  6
CONTINUOUS
 10
5.2705
 20
6.3007
  0
VERTEX
  8
LAYER1
 62
     7
  6
CONTINUOUS
 10
5.2763
 20
6.3018
  0
VERTEX
  8
LAYER1
 62
     7
  6
CONTINUOUS
 10
5.2821
 20
6.3028
  0
VERTEX
  8
LAYER1
 62
     7
  6
CONTINUOUS
 10
5.2879
 20
6.3038
  0
VERTEX
  8
LAYER1
 62
     7
  6
CONTINUOUS
 10
5.2937
 20
6.3047
  0
VERTEX
  8
LAYER1
 62
     7
  6
CONTINUOUS
 10
5.2995
 20
6.3055
  0
VERTEX
  8
LAYER1
 62
     7
  6
CONTINUOUS
 10
5.3053
 20
6.3063
  0
VERTEX
  8
LAYER1
 62
     7
  6
CONTINUOUS
 10
5.3112
 20
6.3069
  0
VERTEX
  8
LAYER1
 62
     7
  6
CONTINUOUS
 10
5.3171
 20
6.3074
  0
VERTEX
  8
LAYER1
 62
     7
  6
CONTINUOUS
 10
5.3231
 20
6.3077
  0
VERTEX
  8
LAYER1
 62
     7
  6
CONTINUOUS
 10
5.3291
 20
6.3079
  0
VERTEX
  8
LAYER1
 62
     7
  6
CONTINUOUS
 10
5.3351
 20
6.3079
  0
VERTEX
  8
LAYER1
 62
     7
  6
CONTINUOUS
 10
5.3411
 20
6.3078
  0
VERTEX
  8
LAYER1
 62
     7
  6
CONTINUOUS
 10
5.3471
 20
6.3076
  0
VERTEX
  8
LAYER1
 62
     7
  6
CONTINUOUS
 10
5.3531
 20
6.3073
  0
VERTEX
  8
LAYER1
 62
     7
  6
CONTINUOUS
 10
5.3590
 20
6.3068
  0
VERTEX
  8
LAYER1
 62
     7
  6
CONTINUOUS
 10
5.3649
 20
6.3062
  0
VERTEX
  8
LAYER1
 62
     7
  6
CONTINUOUS
 10
5.3707
 20
6.3056
  0
VERTEX
  8
LAYER1
 62
     7
  6
CONTINUOUS
 10
5.3764
 20
6.3048
  0
VERTEX
  8
LAYER1
 62
     7
  6
CONTINUOUS
 10
5.3820
 20
6.3040
  0
VERTEX
  8
LAYER1
 62
     7
  6
CONTINUOUS
 10
5.3875
 20
6.3030
  0
VERTEX
  8
LAYER1
 62
     7
  6
CONTINUOUS
 10
5.3914
 20
6.3023
  0
VERTEX
  8
LAYER1
 62
     7
  6
CONTINUOUS
 10
5.3952
 20
6.3016
  0
VERTEX
  8
LAYER1
 62
     7
  6
CONTINUOUS
 10
5.3990
 20
6.3009
  0
VERTEX
  8
LAYER1
 62
     7
  6
CONTINUOUS
 10
5.4028
 20
6.3002
  0
VERTEX
  8
LAYER1
 62
     7
  6
CONTINUOUS
 10
5.4067
 20
6.2996
  0
VERTEX
  8
LAYER1
 62
     7
  6
CONTINUOUS
 10
5.4107
 20
6.2991
  0
VERTEX
  8
LAYER1
 62
     7
  6
CONTINUOUS
 10
5.4148
 20
6.2986
  0
VERTEX
  8
LAYER1
 62
     7
  6
CONTINUOUS
 10
5.4190
 20
6.2983
  0
VERTEX
  8
LAYER1
 62
     7
  6
CONTINUOUS
 10
5.4233
 20
6.2981
  0
VERTEX
  8
LAYER1
 62
     7
  6
CONTINUOUS
 10
5.4279
 20
6.2980
  0
VERTEX
  8
LAYER1
 62
     7
  6
CONTINUOUS
 10
5.4327
 20
6.2981
  0
VERTEX
  8
LAYER1
 62
     7
  6
CONTINUOUS
 10
5.4378
 20
6.2985
  0
VERTEX
  8
LAYER1
 62
     7
  6
CONTINUOUS
 10
5.4437
 20
6.2991
  0
VERTEX
  8
LAYER1
 62
     7
  6
CONTINUOUS
 10
5.4499
 20
6.3000
  0
VERTEX
  8
LAYER1
 62
     7
  6
CONTINUOUS
 10
5.4561
 20
6.3010
  0
VERTEX
  8
LAYER1
 62
     7
  6
CONTINUOUS
 10
5.4623
 20
6.3022
  0
VERTEX
  8
LAYER1
 62
     7
  6
CONTINUOUS
 10
5.4683
 20
6.3034
  0
VERTEX
  8
LAYER1
 62
     7
  6
CONTINUOUS
 10
5.4739
 20
6.3046
  0
VERTEX
  8
LAYER1
 62
     7
  6
CONTINUOUS
 10
5.4791
 20
6.3058
  0
VERTEX
  8
LAYER1
 62
     7
  6
CONTINUOUS
 10
5.4837
 20
6.3068
  0
VERTEX
  8
LAYER1
 62
     7
  6
CONTINUOUS
 10
5.4875
 20
6.3078
  0
VERTEX
  8
LAYER1
 62
     7
  6
CONTINUOUS
 10
5.4904
 20
6.3085
  0
VERTEX
  8
LAYER1
 62
     7
  6
CONTINUOUS
 10
5.4922
 20
6.3089
  0
VERTEX
  8
LAYER1
 62
     7
  6
CONTINUOUS
 10
5.4930
 20
6.3091
  0
VERTEX
  8
LAYER1
 62
     7
  6
CONTINUOUS
 10
5.4930
 20
6.3091
  0
VERTEX
  8
LAYER1
 62
     7
  6
CONTINUOUS
 10
5.4930
 20
6.3091
  0
VERTEX
  8
LAYER1
 62
     7
  6
CONTINUOUS
 10
5.4929
 20
6.3090
  0
VERTEX
  8
LAYER1
 62
     7
  6
CONTINUOUS
 10
5.4929
 20
6.3090
  0
VERTEX
  8
LAYER1
 62
     7
  6
CONTINUOUS
 10
5.4929
 20
6.3090
  0
VERTEX
  8
LAYER1
 62
     7
  6
CONTINUOUS
 10
5.4929
 20
6.3090
  0
VERTEX
  8
LAYER1
 62
     7
  6
CONTINUOUS
 10
5.4929
 20
6.3090
  0
VERTEX
  8
LAYER1
 62
     7
  6
CONTINUOUS
 10
5.4929
 20
6.3090
  0
VERTEX
  8
LAYER1
 62
     7
  6
CONTINUOUS
 10
5.4929
 20
6.3090
  0
VERTEX
  8
LAYER1
 62
     7
  6
CONTINUOUS
 10
5.4929
 20
6.3090
  0
VERTEX
  8
LAYER1
 62
     7
  6
CONTINUOUS
 10
5.4929
 20
6.3090
  0
VERTEX
  8
LAYER1
 62
     7
  6
CONTINUOUS
 10
5.4930
 20
6.3091
  0
VERTEX
  8
LAYER1
 62
     7
  6
CONTINUOUS
 10
5.4942
 20
6.3096
  0
VERTEX
  8
LAYER1
 62
     7
  6
CONTINUOUS
 10
5.4968
 20
6.3109
  0
VERTEX
  8
LAYER1
 62
     7
  6
CONTINUOUS
 10
5.5005
 20
6.3126
  0
VERTEX
  8
LAYER1
 62
     7
  6
CONTINUOUS
 10
5.5051
 20
6.3146
  0
VERTEX
  8
LAYER1
 62
     7
  6
CONTINUOUS
 10
5.5102
 20
6.3170
  0
VERTEX
  8
LAYER1
 62
     7
  6
CONTINUOUS
 10
5.5156
 20
6.3194
  0
VERTEX
  8
LAYER1
 62
     7
  6
CONTINUOUS
 10
5.5210
 20
6.3219
  0
VERTEX
  8
LAYER1
 62
     7
  6
CONTINUOUS
 10
5.5261
 20
6.3242
  0
VERTEX
  8
LAYER1
 62
     7
  6
CONTINUOUS
 10
5.5306
 20
6.3263
  0
VERTEX
  8
LAYER1
 62
     7
  6
CONTINUOUS
 10
5.5343
 20
6.3279
  0
VERTEX
  8
LAYER1
 62
     7
  6
CONTINUOUS
 10
5.5368
 20
6.3291
  0
VERTEX
  8
LAYER1
 62
     7
  6
CONTINUOUS
 10
5.5380
 20
6.3296
  0
VERTEX
  8
LAYER1
 62
     7
  6
CONTINUOUS
 10
5.5380
 20
6.3296
  0
VERTEX
  8
LAYER1
 62
     7
  6
CONTINUOUS
 10
5.5380
 20
6.3296
  0
VERTEX
  8
LAYER1
 62
     7
  6
CONTINUOUS
 10
5.5380
 20
6.3296
  0
VERTEX
  8
LAYER1
 62
     7
  6
CONTINUOUS
 10
5.5380
 20
6.3296
  0
VERTEX
  8
LAYER1
 62
     7
  6
CONTINUOUS
 10
5.5380
 20
6.3296
  0
VERTEX
  8
LAYER1
 62
     7
  6
CONTINUOUS
 10
5.5380
 20
6.3296
  0
VERTEX
  8
LAYER1
 62
     7
  6
CONTINUOUS
 10
5.5380
 20
6.3296
  0
VERTEX
  8
LAYER1
 62
     7
  6
CONTINUOUS
 10
5.5380
 20
6.3296
  0
VERTEX
  8
LAYER1
 62
     7
  6
CONTINUOUS
 10
5.5380
 20
6.3296
  0
VERTEX
  8
LAYER1
 62
     7
  6
CONTINUOUS
 10
5.5380
 20
6.3296
  0
VERTEX
  8
LAYER1
 62
     7
  6
CONTINUOUS
 10
5.5380
 20
6.3296
  0
VERTEX
  8
LAYER1
 62
     7
  6
CONTINUOUS
 10
5.5380
 20
6.3296
  0
VERTEX
  8
LAYER1
 62
     7
  6
CONTINUOUS
 10
5.5385
 20
6.3298
  0
VERTEX
  8
LAYER1
 62
     7
  6
CONTINUOUS
 10
5.5395
 20
6.3304
  0
VERTEX
  8
LAYER1
 62
     7
  6
CONTINUOUS
 10
5.5412
 20
6.3312
  0
VERTEX
  8
LAYER1
 62
     7
  6
CONTINUOUS
 10
5.5432
 20
6.3323
  0
VERTEX
  8
LAYER1
 62
     7
  6
CONTINUOUS
 10
5.5457
 20
6.3336
  0
VERTEX
  8
LAYER1
 62
     7
  6
CONTINUOUS
 10
5.5485
 20
6.3350
  0
VERTEX
  8
LAYER1
 62
     7
  6
CONTINUOUS
 10
5.5516
 20
6.3365
  0
VERTEX
  8
LAYER1
 62
     7
  6
CONTINUOUS
 10
5.5548
 20
6.3382
  0
VERTEX
  8
LAYER1
 62
     7
  6
CONTINUOUS
 10
5.5581
 20
6.3399
  0
VERTEX
  8
LAYER1
 62
     7
  6
CONTINUOUS
 10
5.5614
 20
6.3416
  0
VERTEX
  8
LAYER1
 62
     7
  6
CONTINUOUS
 10
5.5648
 20
6.3433
  0
VERTEX
  8
LAYER1
 62
     7
  6
CONTINUOUS
 10
5.5680
 20
6.3449
  0
VERTEX
  8
LAYER1
 62
     7
  6
CONTINUOUS
 10
5.5710
 20
6.3465
  0
VERTEX
  8
LAYER1
 62
     7
  6
CONTINUOUS
 10
5.5739
 20
6.3480
  0
VERTEX
  8
LAYER1
 62
     7
  6
CONTINUOUS
 10
5.5766
 20
6.3494
  0
VERTEX
  8
LAYER1
 62
     7
  6
CONTINUOUS
 10
5.5792
 20
6.3507
  0
VERTEX
  8
LAYER1
 62
     7
  6
CONTINUOUS
 10
5.5817
 20
6.3520
  0
VERTEX
  8
LAYER1
 62
     7
  6
CONTINUOUS
 10
5.5841
 20
6.3533
  0
VERTEX
  8
LAYER1
 62
     7
  6
CONTINUOUS
 10
5.5865
 20
6.3545
  0
VERTEX
  8
LAYER1
 62
     7
  6
CONTINUOUS
 10
5.5888
 20
6.3557
  0
VERTEX
  8
LAYER1
 62
     7
  6
CONTINUOUS
 10
5.5911
 20
6.3568
  0
VERTEX
  8
LAYER1
 62
     7
  6
CONTINUOUS
 10
5.5933
 20
6.3580
  0
VERTEX
  8
LAYER1
 62
     7
  6
CONTINUOUS
 10
5.5956
 20
6.3591
  0
VERTEX
  8
LAYER1
 62
     7
  6
CONTINUOUS
 10
5.5980
 20
6.3603
  0
VERTEX
  8
LAYER1
 62
     7
  6
CONTINUOUS
 10
5.6021
 20
6.3623
  0
VERTEX
  8
LAYER1
 62
     7
  6
CONTINUOUS
 10
5.6064
 20
6.3645
  0
VERTEX
  8
LAYER1
 62
     7
  6
CONTINUOUS
 10
5.6108
 20
6.3667
  0
VERTEX
  8
LAYER1
 62
     7
  6
CONTINUOUS
 10
5.6152
 20
6.3689
  0
VERTEX
  8
LAYER1
 62
     7
  6
CONTINUOUS
 10
5.6197
 20
6.3713
  0
VERTEX
  8
LAYER1
 62
     7
  6
CONTINUOUS
 10
5.6241
 20
6.3737
  0
VERTEX
  8
LAYER1
 62
     7
  6
CONTINUOUS
 10
5.6284
 20
6.3763
  0
VERTEX
  8
LAYER1
 62
     7
  6
CONTINUOUS
 10
5.6327
 20
6.3789
  0
VERTEX
  8
LAYER1
 62
     7
  6
CONTINUOUS
 10
5.6368
 20
6.3817
  0
VERTEX
  8
LAYER1
 62
     7
  6
CONTINUOUS
 10
5.6407
 20
6.3847
  0
VERTEX
  8
LAYER1
 62
     7
  6
CONTINUOUS
 10
5.6444
 20
6.3877
  0
VERTEX
  8
LAYER1
 62
     7
  6
CONTINUOUS
 10
5.6479
 20
6.3909
  0
VERTEX
  8
LAYER1
 62
     7
  6
CONTINUOUS
 10
5.6504
 20
6.3935
  0
VERTEX
  8
LAYER1
 62
     7
  6
CONTINUOUS
 10
5.6528
 20
6.3963
  0
VERTEX
  8
LAYER1
 62
     7
  6
CONTINUOUS
 10
5.6551
 20
6.3991
  0
VERTEX
  8
LAYER1
 62
     7
  6
CONTINUOUS
 10
5.6573
 20
6.4020
  0
VERTEX
  8
LAYER1
 62
     7
  6
CONTINUOUS
 10
5.6595
 20
6.4049
  0
VERTEX
  8
LAYER1
 62
     7
  6
CONTINUOUS
 10
5.6618
 20
6.4079
  0
VERTEX
  8
LAYER1
 62
     7
  6
CONTINUOUS
 10
5.6640
 20
6.4109
  0
VERTEX
  8
LAYER1
 62
     7
  6
CONTINUOUS
 10
5.6664
 20
6.4140
  0
VERTEX
  8
LAYER1
 62
     7
  6
CONTINUOUS
 10
5.6689
 20
6.4171
  0
VERTEX
  8
LAYER1
 62
     7
  6
CONTINUOUS
 10
5.6716
 20
6.4202
  0
VERTEX
  8
LAYER1
 62
     7
  6
CONTINUOUS
 10
5.6745
 20
6.4233
  0
VERTEX
  8
LAYER1
 62
     7
  6
CONTINUOUS
 10
5.6777
 20
6.4264
  0
VERTEX
  8
LAYER1
 62
     7
  6
CONTINUOUS
 10
5.6836
 20
6.4315
  0
VERTEX
  8
LAYER1
 62
     7
  6
CONTINUOUS
 10
5.6900
 20
6.4365
  0
VERTEX
  8
LAYER1
 62
     7
  6
CONTINUOUS
 10
5.6969
 20
6.4413
  0
VERTEX
  8
LAYER1
 62
     7
  6
CONTINUOUS
 10
5.7040
 20
6.4459
  0
VERTEX
  8
LAYER1
 62
     7
  6
CONTINUOUS
 10
5.7110
 20
6.4502
  0
VERTEX
  8
LAYER1
 62
     7
  6
CONTINUOUS
 10
5.7179
 20
6.4542
  0
VERTEX
  8
LAYER1
 62
     7
  6
CONTINUOUS
 10
5.7243
 20
6.4578
  0
VERTEX
  8
LAYER1
 62
     7
  6
CONTINUOUS
 10
5.7300
 20
6.4608
  0
VERTEX
  8
LAYER1
 62
     7
  6
CONTINUOUS
 10
5.7350
 20
6.4634
  0
VERTEX
  8
LAYER1
 62
     7
  6
CONTINUOUS
 10
5.7389
 20
6.4653
  0
VERTEX
  8
LAYER1
 62
     7
  6
CONTINUOUS
 10
5.7415
 20
6.4666
  0
VERTEX
  8
LAYER1
 62
     7
  6
CONTINUOUS
 10
5.7426
 20
6.4672
  0
VERTEX
  8
LAYER1
 62
     7
  6
CONTINUOUS
 10
5.7426
 20
6.4672
  0
VERTEX
  8
LAYER1
 62
     7
  6
CONTINUOUS
 10
5.7426
 20
6.4672
  0
VERTEX
  8
LAYER1
 62
     7
  6
CONTINUOUS
 10
5.7427
 20
6.4672
  0
VERTEX
  8
LAYER1
 62
     7
  6
CONTINUOUS
 10
5.7427
 20
6.4672
  0
VERTEX
  8
LAYER1
 62
     7
  6
CONTINUOUS
 10
5.7427
 20
6.4672
  0
VERTEX
  8
LAYER1
 62
     7
  6
CONTINUOUS
 10
5.7427
 20
6.4672
  0
VERTEX
  8
LAYER1
 62
     7
  6
CONTINUOUS
 10
5.7427
 20
6.4672
  0
VERTEX
  8
LAYER1
 62
     7
  6
CONTINUOUS
 10
5.7426
 20
6.4672
  0
VERTEX
  8
LAYER1
 62
     7
  6
CONTINUOUS
 10
5.7426
 20
6.4672
  0
VERTEX
  8
LAYER1
 62
     7
  6
CONTINUOUS
 10
5.7426
 20
6.4672
  0
VERTEX
  8
LAYER1
 62
     7
  6
CONTINUOUS
 10
5.7426
 20
6.4672
  0
VERTEX
  8
LAYER1
 62
     7
  6
CONTINUOUS
 10
5.7426
 20
6.4672
  0
VERTEX
  8
LAYER1
 62
     7
  6
CONTINUOUS
 10
5.7426
 20
6.4672
  0
VERTEX
  8
LAYER1
 62
     7
  6
CONTINUOUS
 10
5.7426
 20
6.4672
  0
VERTEX
  8
LAYER1
 62
     7
  6
CONTINUOUS
 10
5.7426
 20
6.4672
  0
VERTEX
  8
LAYER1
 62
     7
  6
CONTINUOUS
 10
5.7426
 20
6.4672
  0
VERTEX
  8
LAYER1
 62
     7
  6
CONTINUOUS
 10
5.7426
 20
6.4672
  0
VERTEX
  8
LAYER1
 62
     7
  6
CONTINUOUS
 10
5.7426
 20
6.4672
  0
VERTEX
  8
LAYER1
 62
     7
  6
CONTINUOUS
 10
5.7426
 20
6.4672
  0
VERTEX
  8
LAYER1
 62
     7
  6
CONTINUOUS
 10
5.7426
 20
6.4672
  0
VERTEX
  8
LAYER1
 62
     7
  6
CONTINUOUS
 10
5.7426
 20
6.4672
  0
VERTEX
  8
LAYER1
 62
     7
  6
CONTINUOUS
 10
5.7426
 20
6.4672
  0
VERTEX
  8
LAYER1
 62
     7
  6
CONTINUOUS
 10
5.7426
 20
6.4672
  0
VERTEX
  8
LAYER1
 62
     7
  6
CONTINUOUS
 10
5.7426
 20
6.4672
  0
VERTEX
  8
LAYER1
 62
     7
  6
CONTINUOUS
 10
5.7426
 20
6.4672
  0
VERTEX
  8
LAYER1
 62
     7
  6
CONTINUOUS
 10
5.7426
 20
6.4672
  0
VERTEX
  8
LAYER1
 62
     7
  6
CONTINUOUS
 10
5.7426
 20
6.4672
  0
VERTEX
  8
LAYER1
 62
     7
  6
CONTINUOUS
 10
5.7426
 20
6.4672
  0
VERTEX
  8
LAYER1
 62
     7
  6
CONTINUOUS
 10
5.7426
 20
6.4672
  0
VERTEX
  8
LAYER1
 62
     7
  6
CONTINUOUS
 10
5.7426
 20
6.4672
  0
VERTEX
  8
LAYER1
 62
     7
  6
CONTINUOUS
 10
5.7426
 20
6.4672
  0
VERTEX
  8
LAYER1
 62
     7
  6
CONTINUOUS
 10
5.7426
 20
6.4672
  0
VERTEX
  8
LAYER1
 62
     7
  6
CONTINUOUS
 10
5.7426
 20
6.4672
  0
VERTEX
  8
LAYER1
 62
     7
  6
CONTINUOUS
 10
5.7426
 20
6.4672
  0
VERTEX
  8
LAYER1
 62
     7
  6
CONTINUOUS
 10
5.7426
 20
6.4672
  0
VERTEX
  8
LAYER1
 62
     7
  6
CONTINUOUS
 10
5.7426
 20
6.4672
  0
VERTEX
  8
LAYER1
 62
     7
  6
CONTINUOUS
 10
5.7426
 20
6.4672
  0
VERTEX
  8
LAYER1
 62
     7
  6
CONTINUOUS
 10
5.7426
 20
6.4671
  0
VERTEX
  8
LAYER1
 62
     7
  6
CONTINUOUS
 10
5.7426
 20
6.4671
  0
VERTEX
  8
LAYER1
 62
     7
  6
CONTINUOUS
 10
5.7426
 20
6.4671
  0
VERTEX
  8
LAYER1
 62
     7
  6
CONTINUOUS
 10
5.7426
 20
6.4671
  0
VERTEX
  8
LAYER1
 62
     7
  6
CONTINUOUS
 10
5.7426
 20
6.4671
  0
VERTEX
  8
LAYER1
 62
     7
  6
CONTINUOUS
 10
5.7426
 20
6.4671
  0
VERTEX
  8
LAYER1
 62
     7
  6
CONTINUOUS
 10
5.7426
 20
6.4671
  0
VERTEX
  8
LAYER1
 62
     7
  6
CONTINUOUS
 10
5.7426
 20
6.4671
  0
VERTEX
  8
LAYER1
 62
     7
  6
CONTINUOUS
 10
5.7426
 20
6.4671
  0
VERTEX
  8
LAYER1
 62
     7
  6
CONTINUOUS
 10
5.7426
 20
6.4671
  0
VERTEX
  8
LAYER1
 62
     7
  6
CONTINUOUS
 10
5.7426
 20
6.4672
  0
VERTEX
  8
LAYER1
 62
     7
  6
CONTINUOUS
 10
5.7438
 20
6.4684
  0
VERTEX
  8
LAYER1
 62
     7
  6
CONTINUOUS
 10
5.7465
 20
6.4712
  0
VERTEX
  8
LAYER1
 62
     7
  6
CONTINUOUS
 10
5.7503
 20
6.4750
  0
VERTEX
  8
LAYER1
 62
     7
  6
CONTINUOUS
 10
5.7549
 20
6.4798
  0
VERTEX
  8
LAYER1
 62
     7
  6
CONTINUOUS
 10
5.7601
 20
6.4851
  0
VERTEX
  8
LAYER1
 62
     7
  6
CONTINUOUS
 10
5.7655
 20
6.4907
  0
VERTEX
  8
LAYER1
 62
     7
  6
CONTINUOUS
 10
5.7710
 20
6.4962
  0
VERTEX
  8
LAYER1
 62
     7
  6
CONTINUOUS
 10
5.7760
 20
6.5014
  0
VERTEX
  8
LAYER1
 62
     7
  6
CONTINUOUS
 10
5.7805
 20
6.5060
  0
VERTEX
  8
LAYER1
 62
     7
  6
CONTINUOUS
 10
5.7841
 20
6.5096
  0
VERTEX
  8
LAYER1
 62
     7
  6
CONTINUOUS
 10
5.7865
 20
6.5120
  0
VERTEX
  8
LAYER1
 62
     7
  6
CONTINUOUS
 10
5.7874
 20
6.5128
  0
VERTEX
  8
LAYER1
 62
     7
  6
CONTINUOUS
 10
5.7874
 20
6.5128
  0
VERTEX
  8
LAYER1
 62
     7
  6
CONTINUOUS
 10
5.7874
 20
6.5128
  0
VERTEX
  8
LAYER1
 62
     7
  6
CONTINUOUS
 10
5.7874
 20
6.5128
  0
VERTEX
  8
LAYER1
 62
     7
  6
CONTINUOUS
 10
5.7874
 20
6.5127
  0
VERTEX
  8
LAYER1
 62
     7
  6
CONTINUOUS
 10
5.7873
 20
6.5127
  0
VERTEX
  8
LAYER1
 62
     7
  6
CONTINUOUS
 10
5.7873
 20
6.5127
  0
VERTEX
  8
LAYER1
 62
     7
  6
CONTINUOUS
 10
5.7873
 20
6.5127
  0
VERTEX
  8
LAYER1
 62
     7
  6
CONTINUOUS
 10
5.7873
 20
6.5127
  0
VERTEX
  8
LAYER1
 62
     7
  6
CONTINUOUS
 10
5.7873
 20
6.5127
  0
VERTEX
  8
LAYER1
 62
     7
  6
CONTINUOUS
 10
5.7873
 20
6.5127
  0
VERTEX
  8
LAYER1
 62
     7
  6
CONTINUOUS
 10
5.7874
 20
6.5128
  0
VERTEX
  8
LAYER1
 62
     7
  6
CONTINUOUS
 10
5.7874
 20
6.5128
  0
VERTEX
  8
LAYER1
 62
     7
  6
CONTINUOUS
 10
5.7876
 20
6.5131
  0
VERTEX
  8
LAYER1
 62
     7
  6
CONTINUOUS
 10
5.7879
 20
6.5135
  0
VERTEX
  8
LAYER1
 62
     7
  6
CONTINUOUS
 10
5.7884
 20
6.5141
  0
VERTEX
  8
LAYER1
 62
     7
  6
CONTINUOUS
 10
5.7889
 20
6.5148
  0
VERTEX
  8
LAYER1
 62
     7
  6
CONTINUOUS
 10
5.7895
 20
6.5156
  0
VERTEX
  8
LAYER1
 62
     7
  6
CONTINUOUS
 10
5.7903
 20
6.5166
  0
VERTEX
  8
LAYER1
 62
     7
  6
CONTINUOUS
 10
5.7910
 20
6.5176
  0
VERTEX
  8
LAYER1
 62
     7
  6
CONTINUOUS
 10
5.7919
 20
6.5187
  0
VERTEX
  8
LAYER1
 62
     7
  6
CONTINUOUS
 10
5.7928
 20
6.5198
  0
VERTEX
  8
LAYER1
 62
     7
  6
CONTINUOUS
 10
5.7937
 20
6.5210
  0
SEQEND
  8
LAYER1
  0
POLYLINE
  8
LAYER1
 62
     7
 66
     1
  6
CONTINUOUS
  0
VERTEX
  8
LAYER1
 62
     7
  6
CONTINUOUS
 10
5.7937
 20
6.5210
  0
VERTEX
  8
LAYER1
 62
     7
  6
CONTINUOUS
 10
5.7946
 20
6.5223
  0
VERTEX
  8
LAYER1
 62
     7
  6
CONTINUOUS
 10
5.7956
 20
6.5235
  0
SEQEND
  8
LAYER1
  0
POLYLINE
  8
LAYER1
 62
     7
 66
     1
  6
CONTINUOUS
  0
VERTEX
  8
LAYER1
 62
     7
  6
CONTINUOUS
 10
5.6208
 20
5.5467
  0
VERTEX
  8
LAYER1
 62
     7
  6
CONTINUOUS
 10
5.6222
 20
5.5496
  0
VERTEX
  8
LAYER1
 62
     7
  6
CONTINUOUS
 10
5.6236
 20
5.5525
  0
VERTEX
  8
LAYER1
 62
     7
  6
CONTINUOUS
 10
5.6250
 20
5.5554
  0
VERTEX
  8
LAYER1
 62
     7
  6
CONTINUOUS
 10
5.6263
 20
5.5584
  0
VERTEX
  8
LAYER1
 62
     7
  6
CONTINUOUS
 10
5.6277
 20
5.5613
  0
VERTEX
  8
LAYER1
 62
     7
  6
CONTINUOUS
 10
5.6290
 20
5.5642
  0
VERTEX
  8
LAYER1
 62
     7
  6
CONTINUOUS
 10
5.6302
 20
5.5671
  0
VERTEX
  8
LAYER1
 62
     7
  6
CONTINUOUS
 10
5.6314
 20
5.5701
  0
VERTEX
  8
LAYER1
 62
     7
  6
CONTINUOUS
 10
5.6325
 20
5.5731
  0
VERTEX
  8
LAYER1
 62
     7
  6
CONTINUOUS
 10
5.6336
 20
5.5760
  0
VERTEX
  8
LAYER1
 62
     7
  6
CONTINUOUS
 10
5.6346
 20
5.5790
  0
VERTEX
  8
LAYER1
 62
     7
  6
CONTINUOUS
 10
5.6355
 20
5.5820
  0
VERTEX
  8
LAYER1
 62
     7
  6
CONTINUOUS
 10
5.6362
 20
5.5845
  0
VERTEX
  8
LAYER1
 62
     7
  6
CONTINUOUS
 10
5.6368
 20
5.5869
  0
VERTEX
  8
LAYER1
 62
     7
  6
CONTINUOUS
 10
5.6373
 20
5.5893
  0
VERTEX
  8
LAYER1
 62
     7
  6
CONTINUOUS
 10
5.6378
 20
5.5918
  0
VERTEX
  8
LAYER1
 62
     7
  6
CONTINUOUS
 10
5.6383
 20
5.5943
  0
VERTEX
  8
LAYER1
 62
     7
  6
CONTINUOUS
 10
5.6387
 20
5.5968
  0
VERTEX
  8
LAYER1
 62
     7
  6
CONTINUOUS
 10
5.6390
 20
5.5993
  0
VERTEX
  8
LAYER1
 62
     7
  6
CONTINUOUS
 10
5.6393
 20
5.6019
  0
VERTEX
  8
LAYER1
 62
     7
  6
CONTINUOUS
 10
5.6396
 20
5.6044
  0
VERTEX
  8
LAYER1
 62
     7
  6
CONTINUOUS
 10
5.6399
 20
5.6070
  0
VERTEX
  8
LAYER1
 62
     7
  6
CONTINUOUS
 10
5.6401
 20
5.6096
  0
VERTEX
  8
LAYER1
 62
     7
  6
CONTINUOUS
 10
5.6402
 20
5.6122
  0
VERTEX
  8
LAYER1
 62
     7
  6
CONTINUOUS
 10
5.6404
 20
5.6153
  0
VERTEX
  8
LAYER1
 62
     7
  6
CONTINUOUS
 10
5.6405
 20
5.6184
  0
VERTEX
  8
LAYER1
 62
     7
  6
CONTINUOUS
 10
5.6405
 20
5.6215
  0
VERTEX
  8
LAYER1
 62
     7
  6
CONTINUOUS
 10
5.6405
 20
5.6246
  0
VERTEX
  8
LAYER1
 62
     7
  6
CONTINUOUS
 10
5.6403
 20
5.6277
  0
VERTEX
  8
LAYER1
 62
     7
  6
CONTINUOUS
 10
5.6400
 20
5.6307
  0
VERTEX
  8
LAYER1
 62
     7
  6
CONTINUOUS
 10
5.6396
 20
5.6337
  0
VERTEX
  8
LAYER1
 62
     7
  6
CONTINUOUS
 10
5.6390
 20
5.6366
  0
VERTEX
  8
LAYER1
 62
     7
  6
CONTINUOUS
 10
5.6383
 20
5.6394
  0
VERTEX
  8
LAYER1
 62
     7
  6
CONTINUOUS
 10
5.6373
 20
5.6422
  0
VERTEX
  8
LAYER1
 62
     7
  6
CONTINUOUS
 10
5.6362
 20
5.6448
  0
VERTEX
  8
LAYER1
 62
     7
  6
CONTINUOUS
 10
5.6349
 20
5.6473
  0
VERTEX
  8
LAYER1
 62
     7
  6
CONTINUOUS
 10
5.6336
 20
5.6492
  0
VERTEX
  8
LAYER1
 62
     7
  6
CONTINUOUS
 10
5.6323
 20
5.6511
  0
VERTEX
  8
LAYER1
 62
     7
  6
CONTINUOUS
 10
5.6308
 20
5.6528
  0
VERTEX
  8
LAYER1
 62
     7
  6
CONTINUOUS
 10
5.6292
 20
5.6546
  0
VERTEX
  8
LAYER1
 62
     7
  6
CONTINUOUS
 10
5.6275
 20
5.6562
  0
VERTEX
  8
LAYER1
 62
     7
  6
CONTINUOUS
 10
5.6257
 20
5.6578
  0
VERTEX
  8
LAYER1
 62
     7
  6
CONTINUOUS
 10
5.6239
 20
5.6594
  0
VERTEX
  8
LAYER1
 62
     7
  6
CONTINUOUS
 10
5.6221
 20
5.6610
  0
VERTEX
  8
LAYER1
 62
     7
  6
CONTINUOUS
 10
5.6202
 20
5.6625
  0
VERTEX
  8
LAYER1
 62
     7
  6
CONTINUOUS
 10
5.6183
 20
5.6641
  0
VERTEX
  8
LAYER1
 62
     7
  6
CONTINUOUS
 10
5.6165
 20
5.6657
  0
VERTEX
  8
LAYER1
 62
     7
  6
CONTINUOUS
 10
5.6146
 20
5.6672
  0
VERTEX
  8
LAYER1
 62
     7
  6
CONTINUOUS
 10
5.6127
 20
5.6689
  0
VERTEX
  8
LAYER1
 62
     7
  6
CONTINUOUS
 10
5.6109
 20
5.6706
  0
VERTEX
  8
LAYER1
 62
     7
  6
CONTINUOUS
 10
5.6092
 20
5.6723
  0
VERTEX
  8
LAYER1
 62
     7
  6
CONTINUOUS
 10
5.6075
 20
5.6742
  0
VERTEX
  8
LAYER1
 62
     7
  6
CONTINUOUS
 10
5.6059
 20
5.6760
  0
VERTEX
  8
LAYER1
 62
     7
  6
CONTINUOUS
 10
5.6045
 20
5.6780
  0
VERTEX
  8
LAYER1
 62
     7
  6
CONTINUOUS
 10
5.6032
 20
5.6801
  0
VERTEX
  8
LAYER1
 62
     7
  6
CONTINUOUS
 10
5.6020
 20
5.6822
  0
VERTEX
  8
LAYER1
 62
     7
  6
CONTINUOUS
 10
5.6011
 20
5.6845
  0
VERTEX
  8
LAYER1
 62
     7
  6
CONTINUOUS
 10
5.6003
 20
5.6870
  0
VERTEX
  8
LAYER1
 62
     7
  6
CONTINUOUS
 10
5.5997
 20
5.6895
  0
VERTEX
  8
LAYER1
 62
     7
  6
CONTINUOUS
 10
5.5993
 20
5.6922
  0
VERTEX
  8
LAYER1
 62
     7
  6
CONTINUOUS
 10
5.5991
 20
5.6948
  0
VERTEX
  8
LAYER1
 62
     7
  6
CONTINUOUS
 10
5.5992
 20
5.6976
  0
VERTEX
  8
LAYER1
 62
     7
  6
CONTINUOUS
 10
5.5994
 20
5.7003
  0
VERTEX
  8
LAYER1
 62
     7
  6
CONTINUOUS
 10
5.5998
 20
5.7030
  0
VERTEX
  8
LAYER1
 62
     7
  6
CONTINUOUS
 10
5.6004
 20
5.7057
  0
VERTEX
  8
LAYER1
 62
     7
  6
CONTINUOUS
 10
5.6012
 20
5.7082
  0
VERTEX
  8
LAYER1
 62
     7
  6
CONTINUOUS
 10
5.6021
 20
5.7105
  0
VERTEX
  8
LAYER1
 62
     7
  6
CONTINUOUS
 10
5.6032
 20
5.7126
  0
VERTEX
  8
LAYER1
 62
     7
  6
CONTINUOUS
 10
5.6045
 20
5.7144
  0
VERTEX
  8
LAYER1
 62
     7
  6
CONTINUOUS
 10
5.6059
 20
5.7158
  0
VERTEX
  8
LAYER1
 62
     7
  6
CONTINUOUS
 10
5.6074
 20
5.7168
  0
VERTEX
  8
LAYER1
 62
     7
  6
CONTINUOUS
 10
5.6091
 20
5.7174
  0
VERTEX
  8
LAYER1
 62
     7
  6
CONTINUOUS
 10
5.6109
 20
5.7175
  0
VERTEX
  8
LAYER1
 62
     7
  6
CONTINUOUS
 10
5.6128
 20
5.7172
  0
VERTEX
  8
LAYER1
 62
     7
  6
CONTINUOUS
 10
5.6149
 20
5.7165
  0
VERTEX
  8
LAYER1
 62
     7
  6
CONTINUOUS
 10
5.6170
 20
5.7155
  0
VERTEX
  8
LAYER1
 62
     7
  6
CONTINUOUS
 10
5.6191
 20
5.7144
  0
VERTEX
  8
LAYER1
 62
     7
  6
CONTINUOUS
 10
5.6213
 20
5.7131
  0
VERTEX
  8
LAYER1
 62
     7
  6
CONTINUOUS
 10
5.6235
 20
5.7118
  0
VERTEX
  8
LAYER1
 62
     7
  6
CONTINUOUS
 10
5.6258
 20
5.7106
  0
VERTEX
  8
LAYER1
 62
     7
  6
CONTINUOUS
 10
5.6280
 20
5.7095
  0
VERTEX
  8
LAYER1
 62
     7
  6
CONTINUOUS
 10
5.6301
 20
5.7085
  0
VERTEX
  8
LAYER1
 62
     7
  6
CONTINUOUS
 10
5.6323
 20
5.7079
  0
VERTEX
  8
LAYER1
 62
     7
  6
CONTINUOUS
 10
5.6343
 20
5.7076
  0
VERTEX
  8
LAYER1
 62
     7
  6
CONTINUOUS
 10
5.6361
 20
5.7077
  0
VERTEX
  8
LAYER1
 62
     7
  6
CONTINUOUS
 10
5.6379
 20
5.7082
  0
VERTEX
  8
LAYER1
 62
     7
  6
CONTINUOUS
 10
5.6396
 20
5.7090
  0
VERTEX
  8
LAYER1
 62
     7
  6
CONTINUOUS
 10
5.6412
 20
5.7100
  0
VERTEX
  8
LAYER1
 62
     7
  6
CONTINUOUS
 10
5.6429
 20
5.7112
  0
VERTEX
  8
LAYER1
 62
     7
  6
CONTINUOUS
 10
5.6445
 20
5.7127
  0
VERTEX
  8
LAYER1
 62
     7
  6
CONTINUOUS
 10
5.6461
 20
5.7142
  0
VERTEX
  8
LAYER1
 62
     7
  6
CONTINUOUS
 10
5.6476
 20
5.7159
  0
VERTEX
  8
LAYER1
 62
     7
  6
CONTINUOUS
 10
5.6492
 20
5.7177
  0
VERTEX
  8
LAYER1
 62
     7
  6
CONTINUOUS
 10
5.6509
 20
5.7194
  0
VERTEX
  8
LAYER1
 62
     7
  6
CONTINUOUS
 10
5.6525
 20
5.7212
  0
VERTEX
  8
LAYER1
 62
     7
  6
CONTINUOUS
 10
5.6543
 20
5.7229
  0
VERTEX
  8
LAYER1
 62
     7
  6
CONTINUOUS
 10
5.6562
 20
5.7246
  0
VERTEX
  8
LAYER1
 62
     7
  6
CONTINUOUS
 10
5.6581
 20
5.7262
  0
VERTEX
  8
LAYER1
 62
     7
  6
CONTINUOUS
 10
5.6601
 20
5.7277
  0
VERTEX
  8
LAYER1
 62
     7
  6
CONTINUOUS
 10
5.6622
 20
5.7290
  0
VERTEX
  8
LAYER1
 62
     7
  6
CONTINUOUS
 10
5.6643
 20
5.7302
  0
VERTEX
  8
LAYER1
 62
     7
  6
CONTINUOUS
 10
5.6664
 20
5.7312
  0
VERTEX
  8
LAYER1
 62
     7
  6
CONTINUOUS
 10
5.6685
 20
5.7320
  0
VERTEX
  8
LAYER1
 62
     7
  6
CONTINUOUS
 10
5.6707
 20
5.7327
  0
VERTEX
  8
LAYER1
 62
     7
  6
CONTINUOUS
 10
5.6729
 20
5.7331
  0
VERTEX
  8
LAYER1
 62
     7
  6
CONTINUOUS
 10
5.6750
 20
5.7334
  0
VERTEX
  8
LAYER1
 62
     7
  6
CONTINUOUS
 10
5.6772
 20
5.7334
  0
VERTEX
  8
LAYER1
 62
     7
  6
CONTINUOUS
 10
5.6793
 20
5.7331
  0
VERTEX
  8
LAYER1
 62
     7
  6
CONTINUOUS
 10
5.6812
 20
5.7327
  0
VERTEX
  8
LAYER1
 62
     7
  6
CONTINUOUS
 10
5.6831
 20
5.7321
  0
VERTEX
  8
LAYER1
 62
     7
  6
CONTINUOUS
 10
5.6850
 20
5.7313
  0
VERTEX
  8
LAYER1
 62
     7
  6
CONTINUOUS
 10
5.6869
 20
5.7303
  0
VERTEX
  8
LAYER1
 62
     7
  6
CONTINUOUS
 10
5.6887
 20
5.7292
  0
VERTEX
  8
LAYER1
 62
     7
  6
CONTINUOUS
 10
5.6904
 20
5.7279
  0
VERTEX
  8
LAYER1
 62
     7
  6
CONTINUOUS
 10
5.6921
 20
5.7265
  0
VERTEX
  8
LAYER1
 62
     7
  6
CONTINUOUS
 10
5.6937
 20
5.7250
  0
VERTEX
  8
LAYER1
 62
     7
  6
CONTINUOUS
 10
5.6953
 20
5.7234
  0
VERTEX
  8
LAYER1
 62
     7
  6
CONTINUOUS
 10
5.6968
 20
5.7218
  0
VERTEX
  8
LAYER1
 62
     7
  6
CONTINUOUS
 10
5.6982
 20
5.7200
  0
VERTEX
  8
LAYER1
 62
     7
  6
CONTINUOUS
 10
5.6995
 20
5.7183
  0
VERTEX
  8
LAYER1
 62
     7
  6
CONTINUOUS
 10
5.7012
 20
5.7158
  0
VERTEX
  8
LAYER1
 62
     7
  6
CONTINUOUS
 10
5.7027
 20
5.7134
  0
VERTEX
  8
LAYER1
 62
     7
  6
CONTINUOUS
 10
5.7041
 20
5.7109
  0
VERTEX
  8
LAYER1
 62
     7
  6
CONTINUOUS
 10
5.7054
 20
5.7083
  0
VERTEX
  8
LAYER1
 62
     7
  6
CONTINUOUS
 10
5.7066
 20
5.7058
  0
VERTEX
  8
LAYER1
 62
     7
  6
CONTINUOUS
 10
5.7078
 20
5.7032
  0
VERTEX
  8
LAYER1
 62
     7
  6
CONTINUOUS
 10
5.7089
 20
5.7006
  0
VERTEX
  8
LAYER1
 62
     7
  6
CONTINUOUS
 10
5.7100
 20
5.6981
  0
VERTEX
  8
LAYER1
 62
     7
  6
CONTINUOUS
 10
5.7112
 20
5.6956
  0
VERTEX
  8
LAYER1
 62
     7
  6
CONTINUOUS
 10
5.7123
 20
5.6931
  0
VERTEX
  8
LAYER1
 62
     7
  6
CONTINUOUS
 10
5.7136
 20
5.6907
  0
VERTEX
  8
LAYER1
 62
     7
  6
CONTINUOUS
 10
5.7149
 20
5.6883
  0
VERTEX
  8
LAYER1
 62
     7
  6
CONTINUOUS
 10
5.7159
 20
5.6866
  0
VERTEX
  8
LAYER1
 62
     7
  6
CONTINUOUS
 10
5.7170
 20
5.6849
  0
VERTEX
  8
LAYER1
 62
     7
  6
CONTINUOUS
 10
5.7181
 20
5.6832
  0
VERTEX
  8
LAYER1
 62
     7
  6
CONTINUOUS
 10
5.7193
 20
5.6815
  0
VERTEX
  8
LAYER1
 62
     7
  6
CONTINUOUS
 10
5.7205
 20
5.6799
  0
VERTEX
  8
LAYER1
 62
     7
  6
CONTINUOUS
 10
5.7217
 20
5.6782
  0
VERTEX
  8
LAYER1
 62
     7
  6
CONTINUOUS
 10
5.7230
 20
5.6766
  0
VERTEX
  8
LAYER1
 62
     7
  6
CONTINUOUS
 10
5.7244
 20
5.6750
  0
VERTEX
  8
LAYER1
 62
     7
  6
CONTINUOUS
 10
5.7258
 20
5.6733
  0
VERTEX
  8
LAYER1
 62
     7
  6
CONTINUOUS
 10
5.7272
 20
5.6717
  0
VERTEX
  8
LAYER1
 62
     7
  6
CONTINUOUS
 10
5.7286
 20
5.6700
  0
VERTEX
  8
LAYER1
 62
     7
  6
CONTINUOUS
 10
5.7301
 20
5.6683
  0
VERTEX
  8
LAYER1
 62
     7
  6
CONTINUOUS
 10
5.7329
 20
5.6652
  0
VERTEX
  8
LAYER1
 62
     7
  6
CONTINUOUS
 10
5.7356
 20
5.6621
  0
VERTEX
  8
LAYER1
 62
     7
  6
CONTINUOUS
 10
5.7384
 20
5.6588
  0
VERTEX
  8
LAYER1
 62
     7
  6
CONTINUOUS
 10
5.7410
 20
5.6555
  0
VERTEX
  8
LAYER1
 62
     7
  6
CONTINUOUS
 10
5.7435
 20
5.6522
  0
VERTEX
  8
LAYER1
 62
     7
  6
CONTINUOUS
 10
5.7457
 20
5.6488
  0
VERTEX
  8
LAYER1
 62
     7
  6
CONTINUOUS
 10
5.7477
 20
5.6454
  0
VERTEX
  8
LAYER1
 62
     7
  6
CONTINUOUS
 10
5.7493
 20
5.6420
  0
VERTEX
  8
LAYER1
 62
     7
  6
CONTINUOUS
 10
5.7504
 20
5.6385
  0
VERTEX
  8
LAYER1
 62
     7
  6
CONTINUOUS
 10
5.7511
 20
5.6351
  0
VERTEX
  8
LAYER1
 62
     7
  6
CONTINUOUS
 10
5.7511
 20
5.6317
  0
VERTEX
  8
LAYER1
 62
     7
  6
CONTINUOUS
 10
5.7506
 20
5.6283
  0
VERTEX
  8
LAYER1
 62
     7
  6
CONTINUOUS
 10
5.7502
 20
5.6270
  0
VERTEX
  8
LAYER1
 62
     7
  6
CONTINUOUS
 10
5.7497
 20
5.6257
  0
VERTEX
  8
LAYER1
 62
     7
  6
CONTINUOUS
 10
5.7490
 20
5.6243
  0
VERTEX
  8
LAYER1
 62
     7
  6
CONTINUOUS
 10
5.7483
 20
5.6230
  0
VERTEX
  8
LAYER1
 62
     7
  6
CONTINUOUS
 10
5.7476
 20
5.6217
  0
VERTEX
  8
LAYER1
 62
     7
  6
CONTINUOUS
 10
5.7467
 20
5.6204
  0
VERTEX
  8
LAYER1
 62
     7
  6
CONTINUOUS
 10
5.7458
 20
5.6191
  0
VERTEX
  8
LAYER1
 62
     7
  6
CONTINUOUS
 10
5.7448
 20
5.6179
  0
VERTEX
  8
LAYER1
 62
     7
  6
CONTINUOUS
 10
5.7438
 20
5.6167
  0
VERTEX
  8
LAYER1
 62
     7
  6
CONTINUOUS
 10
5.7428
 20
5.6155
  0
VERTEX
  8
LAYER1
 62
     7
  6
CONTINUOUS
 10
5.7418
 20
5.6143
  0
VERTEX
  8
LAYER1
 62
     7
  6
CONTINUOUS
 10
5.7407
 20
5.6132
  0
VERTEX
  8
LAYER1
 62
     7
  6
CONTINUOUS
 10
5.7389
 20
5.6114
  0
VERTEX
  8
LAYER1
 62
     7
  6
CONTINUOUS
 10
5.7372
 20
5.6097
  0
VERTEX
  8
LAYER1
 62
     7
  6
CONTINUOUS
 10
5.7354
 20
5.6081
  0
VERTEX
  8
LAYER1
 62
     7
  6
CONTINUOUS
 10
5.7335
 20
5.6066
  0
VERTEX
  8
LAYER1
 62
     7
  6
CONTINUOUS
 10
5.7316
 20
5.6052
  0
VERTEX
  8
LAYER1
 62
     7
  6
CONTINUOUS
 10
5.7296
 20
5.6038
  0
VERTEX
  8
LAYER1
 62
     7
  6
CONTINUOUS
 10
5.7276
 20
5.6026
  0
VERTEX
  8
LAYER1
 62
     7
  6
CONTINUOUS
 10
5.7254
 20
5.6015
  0
VERTEX
  8
LAYER1
 62
     7
  6
CONTINUOUS
 10
5.7232
 20
5.6004
  0
VERTEX
  8
LAYER1
 62
     7
  6
CONTINUOUS
 10
5.7208
 20
5.5995
  0
VERTEX
  8
LAYER1
 62
     7
  6
CONTINUOUS
 10
5.7183
 20
5.5986
  0
VERTEX
  8
LAYER1
 62
     7
  6
CONTINUOUS
 10
5.7157
 20
5.5979
  0
VERTEX
  8
LAYER1
 62
     7
  6
CONTINUOUS
 10
5.7142
 20
5.5975
  0
VERTEX
  8
LAYER1
 62
     7
  6
CONTINUOUS
 10
5.7127
 20
5.5972
  0
VERTEX
  8
LAYER1
 62
     7
  6
CONTINUOUS
 10
5.7112
 20
5.5968
  0
VERTEX
  8
LAYER1
 62
     7
  6
CONTINUOUS
 10
5.7097
 20
5.5965
  0
VERTEX
  8
LAYER1
 62
     7
  6
CONTINUOUS
 10
5.7083
 20
5.5962
  0
VERTEX
  8
LAYER1
 62
     7
  6
CONTINUOUS
 10
5.7069
 20
5.5958
  0
VERTEX
  8
LAYER1
 62
     7
  6
CONTINUOUS
 10
5.7056
 20
5.5954
  0
VERTEX
  8
LAYER1
 62
     7
  6
CONTINUOUS
 10
5.7043
 20
5.5950
  0
VERTEX
  8
LAYER1
 62
     7
  6
CONTINUOUS
 10
5.7032
 20
5.5945
  0
VERTEX
  8
LAYER1
 62
     7
  6
CONTINUOUS
 10
5.7022
 20
5.5940
  0
VERTEX
  8
LAYER1
 62
     7
  6
CONTINUOUS
 10
5.7014
 20
5.5934
  0
VERTEX
  8
LAYER1
 62
     7
  6
CONTINUOUS
 10
5.7007
 20
5.5927
  0
VERTEX
  8
LAYER1
 62
     7
  6
CONTINUOUS
 10
5.7000
 20
5.5913
  0
VERTEX
  8
LAYER1
 62
     7
  6
CONTINUOUS
 10
5.6997
 20
5.5897
  0
VERTEX
  8
LAYER1
 62
     7
  6
CONTINUOUS
 10
5.6999
 20
5.5879
  0
VERTEX
  8
LAYER1
 62
     7
  6
CONTINUOUS
 10
5.7005
 20
5.5860
  0
VERTEX
  8
LAYER1
 62
     7
  6
CONTINUOUS
 10
5.7014
 20
5.5838
  0
VERTEX
  8
LAYER1
 62
     7
  6
CONTINUOUS
 10
5.7025
 20
5.5816
  0
VERTEX
  8
LAYER1
 62
     7
  6
CONTINUOUS
 10
5.7038
 20
5.5793
  0
VERTEX
  8
LAYER1
 62
     7
  6
CONTINUOUS
 10
5.7052
 20
5.5770
  0
VERTEX
  8
LAYER1
 62
     7
  6
CONTINUOUS
 10
5.7067
 20
5.5746
  0
VERTEX
  8
LAYER1
 62
     7
  6
CONTINUOUS
 10
5.7082
 20
5.5722
  0
VERTEX
  8
LAYER1
 62
     7
  6
CONTINUOUS
 10
5.7097
 20
5.5699
  0
VERTEX
  8
LAYER1
 62
     7
  6
CONTINUOUS
 10
5.7110
 20
5.5677
  0
VERTEX
  8
LAYER1
 62
     7
  6
CONTINUOUS
 10
5.7115
 20
5.5668
  0
VERTEX
  8
LAYER1
 62
     7
  6
CONTINUOUS
 10
5.7120
 20
5.5659
  0
VERTEX
  8
LAYER1
 62
     7
  6
CONTINUOUS
 10
5.7124
 20
5.5650
  0
VERTEX
  8
LAYER1
 62
     7
  6
CONTINUOUS
 10
5.7129
 20
5.5642
  0
VERTEX
  8
LAYER1
 62
     7
  6
CONTINUOUS
 10
5.7133
 20
5.5633
  0
VERTEX
  8
LAYER1
 62
     7
  6
CONTINUOUS
 10
5.7137
 20
5.5625
  0
VERTEX
  8
LAYER1
 62
     7
  6
CONTINUOUS
 10
5.7141
 20
5.5617
  0
VERTEX
  8
LAYER1
 62
     7
  6
CONTINUOUS
 10
5.7145
 20
5.5609
  0
VERTEX
  8
LAYER1
 62
     7
  6
CONTINUOUS
 10
5.7149
 20
5.5601
  0
VERTEX
  8
LAYER1
 62
     7
  6
CONTINUOUS
 10
5.7153
 20
5.5593
  0
VERTEX
  8
LAYER1
 62
     7
  6
CONTINUOUS
 10
5.7157
 20
5.5585
  0
VERTEX
  8
LAYER1
 62
     7
  6
CONTINUOUS
 10
5.7161
 20
5.5577
  0
VERTEX
  8
LAYER1
 62
     7
  6
CONTINUOUS
 10
5.7169
 20
5.5562
  0
VERTEX
  8
LAYER1
 62
     7
  6
CONTINUOUS
 10
5.7178
 20
5.5547
  0
VERTEX
  8
LAYER1
 62
     7
  6
CONTINUOUS
 10
5.7188
 20
5.5531
  0
VERTEX
  8
LAYER1
 62
     7
  6
CONTINUOUS
 10
5.7198
 20
5.5516
  0
VERTEX
  8
LAYER1
 62
     7
  6
CONTINUOUS
 10
5.7208
 20
5.5502
  0
VERTEX
  8
LAYER1
 62
     7
  6
CONTINUOUS
 10
5.7218
 20
5.5487
  0
VERTEX
  8
LAYER1
 62
     7
  6
CONTINUOUS
 10
5.7229
 20
5.5472
  0
VERTEX
  8
LAYER1
 62
     7
  6
CONTINUOUS
 10
5.7240
 20
5.5457
  0
VERTEX
  8
LAYER1
 62
     7
  6
CONTINUOUS
 10
5.7251
 20
5.5442
  0
VERTEX
  8
LAYER1
 62
     7
  6
CONTINUOUS
 10
5.7262
 20
5.5427
  0
VERTEX
  8
LAYER1
 62
     7
  6
CONTINUOUS
 10
5.7274
 20
5.5413
  0
VERTEX
  8
LAYER1
 62
     7
  6
CONTINUOUS
 10
5.7285
 20
5.5398
  0
SEQEND
  8
LAYER1
  0
POLYLINE
  8
LAYER1
 62
     7
 66
     1
  6
CONTINUOUS
  0
VERTEX
  8
LAYER1
 62
     7
  6
CONTINUOUS
 10
5.7285
 20
5.5398
  0
VERTEX
  8
LAYER1
 62
     7
  6
CONTINUOUS
 10
5.7285
 20
5.5398
  0
VERTEX
  8
LAYER1
 62
     7
  6
CONTINUOUS
 10
5.7285
 20
5.5398
  0
VERTEX
  8
LAYER1
 62
     7
  6
CONTINUOUS
 10
5.7285
 20
5.5398
  0
VERTEX
  8
LAYER1
 62
     7
  6
CONTINUOUS
 10
5.7285
 20
5.5398
  0
VERTEX
  8
LAYER1
 62
     7
  6
CONTINUOUS
 10
5.7285
 20
5.5398
  0
VERTEX
  8
LAYER1
 62
     7
  6
CONTINUOUS
 10
5.7285
 20
5.5398
  0
VERTEX
  8
LAYER1
 62
     7
  6
CONTINUOUS
 10
5.7284
 20
5.5399
  0
VERTEX
  8
LAYER1
 62
     7
  6
CONTINUOUS
 10
5.7284
 20
5.5399
  0
VERTEX
  8
LAYER1
 62
     7
  6
CONTINUOUS
 10
5.7284
 20
5.5399
  0
VERTEX
  8
LAYER1
 62
     7
  6
CONTINUOUS
 10
5.7284
 20
5.5399
  0
VERTEX
  8
LAYER1
 62
     7
  6
CONTINUOUS
 10
5.7284
 20
5.5399
  0
VERTEX
  8
LAYER1
 62
     7
  6
CONTINUOUS
 10
5.7284
 20
5.5399
  0
VERTEX
  8
LAYER1
 62
     7
  6
CONTINUOUS
 10
5.7282
 20
5.5401
  0
VERTEX
  8
LAYER1
 62
     7
  6
CONTINUOUS
 10
5.7281
 20
5.5403
  0
VERTEX
  8
LAYER1
 62
     7
  6
CONTINUOUS
 10
5.7280
 20
5.5404
  0
VERTEX
  8
LAYER1
 62
     7
  6
CONTINUOUS
 10
5.7279
 20
5.5405
  0
VERTEX
  8
LAYER1
 62
     7
  6
CONTINUOUS
 10
5.7279
 20
5.5405
  0
VERTEX
  8
LAYER1
 62
     7
  6
CONTINUOUS
 10
5.7279
 20
5.5405
  0
VERTEX
  8
LAYER1
 62
     7
  6
CONTINUOUS
 10
5.7279
 20
5.5405
  0
VERTEX
  8
LAYER1
 62
     7
  6
CONTINUOUS
 10
5.7280
 20
5.5404
  0
VERTEX
  8
LAYER1
 62
     7
  6
CONTINUOUS
 10
5.7281
 20
5.5403
  0
VERTEX
  8
LAYER1
 62
     7
  6
CONTINUOUS
 10
5.7282
 20
5.5402
  0
VERTEX
  8
LAYER1
 62
     7
  6
CONTINUOUS
 10
5.7283
 20
5.5400
  0
VERTEX
  8
LAYER1
 62
     7
  6
CONTINUOUS
 10
5.7284
 20
5.5399
  0
SEQEND
  8
LAYER1
  0
POLYLINE
  8
LAYER1
 62
     7
 66
     1
  6
CONTINUOUS
  0
VERTEX
  8
LAYER1
 62
     7
  6
CONTINUOUS
 10
5.7284
 20
5.5399
  0
VERTEX
  8
LAYER1
 62
     7
  6
CONTINUOUS
 10
5.7284
 20
5.5399
  0
VERTEX
  8
LAYER1
 62
     7
  6
CONTINUOUS
 10
5.7284
 20
5.5399
  0
VERTEX
  8
LAYER1
 62
     7
  6
CONTINUOUS
 10
5.7284
 20
5.5399
  0
VERTEX
  8
LAYER1
 62
     7
  6
CONTINUOUS
 10
5.7284
 20
5.5399
  0
VERTEX
  8
LAYER1
 62
     7
  6
CONTINUOUS
 10
5.7284
 20
5.5399
  0
VERTEX
  8
LAYER1
 62
     7
  6
CONTINUOUS
 10
5.7285
 20
5.5398
  0
VERTEX
  8
LAYER1
 62
     7
  6
CONTINUOUS
 10
5.7285
 20
5.5398
  0
VERTEX
  8
LAYER1
 62
     7
  6
CONTINUOUS
 10
5.7285
 20
5.5398
  0
VERTEX
  8
LAYER1
 62
     7
  6
CONTINUOUS
 10
5.7285
 20
5.5398
  0
VERTEX
  8
LAYER1
 62
     7
  6
CONTINUOUS
 10
5.7285
 20
5.5398
  0
VERTEX
  8
LAYER1
 62
     7
  6
CONTINUOUS
 10
5.7285
 20
5.5398
  0
VERTEX
  8
LAYER1
 62
     7
  6
CONTINUOUS
 10
5.7285
 20
5.5398
  0
VERTEX
  8
LAYER1
 62
     7
  6
CONTINUOUS
 10
5.7287
 20
5.5396
  0
VERTEX
  8
LAYER1
 62
     7
  6
CONTINUOUS
 10
5.7289
 20
5.5394
  0
VERTEX
  8
LAYER1
 62
     7
  6
CONTINUOUS
 10
5.7290
 20
5.5393
  0
VERTEX
  8
LAYER1
 62
     7
  6
CONTINUOUS
 10
5.7290
 20
5.5392
  0
VERTEX
  8
LAYER1
 62
     7
  6
CONTINUOUS
 10
5.7290
 20
5.5392
  0
VERTEX
  8
LAYER1
 62
     7
  6
CONTINUOUS
 10
5.7290
 20
5.5392
  0
VERTEX
  8
LAYER1
 62
     7
  6
CONTINUOUS
 10
5.7290
 20
5.5392
  0
VERTEX
  8
LAYER1
 62
     7
  6
CONTINUOUS
 10
5.7289
 20
5.5393
  0
VERTEX
  8
LAYER1
 62
     7
  6
CONTINUOUS
 10
5.7288
 20
5.5394
  0
VERTEX
  8
LAYER1
 62
     7
  6
CONTINUOUS
 10
5.7287
 20
5.5395
  0
VERTEX
  8
LAYER1
 62
     7
  6
CONTINUOUS
 10
5.7286
 20
5.5397
  0
VERTEX
  8
LAYER1
 62
     7
  6
CONTINUOUS
 10
5.7285
 20
5.5398
  0
SEQEND
  8
LAYER1
  0
POLYLINE
  8
LAYER1
 62
     7
 66
     1
  6
CONTINUOUS
  0
VERTEX
  8
LAYER1
 62
     7
  6
CONTINUOUS
 10
5.6233
 20
5.5398
  0
VERTEX
  8
LAYER1
 62
     7
  6
CONTINUOUS
 10
5.6233
 20
5.5398
  0
VERTEX
  8
LAYER1
 62
     7
  6
CONTINUOUS
 10
5.6233
 20
5.5398
  0
VERTEX
  8
LAYER1
 62
     7
  6
CONTINUOUS
 10
5.6233
 20
5.5398
  0
VERTEX
  8
LAYER1
 62
     7
  6
CONTINUOUS
 10
5.6233
 20
5.5398
  0
VERTEX
  8
LAYER1
 62
     7
  6
CONTINUOUS
 10
5.6233
 20
5.5398
  0
VERTEX
  8
LAYER1
 62
     7
  6
CONTINUOUS
 10
5.6233
 20
5.5398
  0
VERTEX
  8
LAYER1
 62
     7
  6
CONTINUOUS
 10
5.6233
 20
5.5399
  0
VERTEX
  8
LAYER1
 62
     7
  6
CONTINUOUS
 10
5.6233
 20
5.5399
  0
VERTEX
  8
LAYER1
 62
     7
  6
CONTINUOUS
 10
5.6233
 20
5.5399
  0
VERTEX
  8
LAYER1
 62
     7
  6
CONTINUOUS
 10
5.6233
 20
5.5399
  0
VERTEX
  8
LAYER1
 62
     7
  6
CONTINUOUS
 10
5.6233
 20
5.5399
  0
VERTEX
  8
LAYER1
 62
     7
  6
CONTINUOUS
 10
5.6233
 20
5.5399
  0
VERTEX
  8
LAYER1
 62
     7
  6
CONTINUOUS
 10
5.6232
 20
5.5402
  0
VERTEX
  8
LAYER1
 62
     7
  6
CONTINUOUS
 10
5.6231
 20
5.5404
  0
VERTEX
  8
LAYER1
 62
     7
  6
CONTINUOUS
 10
5.6230
 20
5.5406
  0
VERTEX
  8
LAYER1
 62
     7
  6
CONTINUOUS
 10
5.6230
 20
5.5406
  0
VERTEX
  8
LAYER1
 62
     7
  6
CONTINUOUS
 10
5.6230
 20
5.5407
  0
VERTEX
  8
LAYER1
 62
     7
  6
CONTINUOUS
 10
5.6230
 20
5.5407
  0
VERTEX
  8
LAYER1
 62
     7
  6
CONTINUOUS
 10
5.6230
 20
5.5406
  0
VERTEX
  8
LAYER1
 62
     7
  6
CONTINUOUS
 10
5.6230
 20
5.5405
  0
VERTEX
  8
LAYER1
 62
     7
  6
CONTINUOUS
 10
5.6231
 20
5.5404
  0
VERTEX
  8
LAYER1
 62
     7
  6
CONTINUOUS
 10
5.6231
 20
5.5402
  0
VERTEX
  8
LAYER1
 62
     7
  6
CONTINUOUS
 10
5.6232
 20
5.5401
  0
VERTEX
  8
LAYER1
 62
     7
  6
CONTINUOUS
 10
5.6233
 20
5.5399
  0
SEQEND
  8
LAYER1
  0
POLYLINE
  8
LAYER1
 62
     7
 66
     1
  6
CONTINUOUS
  0
VERTEX
  8
LAYER1
 62
     7
  6
CONTINUOUS
 10
5.6233
 20
5.5399
  0
VERTEX
  8
LAYER1
 62
     7
  6
CONTINUOUS
 10
5.6233
 20
5.5399
  0
VERTEX
  8
LAYER1
 62
     7
  6
CONTINUOUS
 10
5.6233
 20
5.5399
  0
VERTEX
  8
LAYER1
 62
     7
  6
CONTINUOUS
 10
5.6233
 20
5.5399
  0
VERTEX
  8
LAYER1
 62
     7
  6
CONTINUOUS
 10
5.6233
 20
5.5399
  0
VERTEX
  8
LAYER1
 62
     7
  6
CONTINUOUS
 10
5.6233
 20
5.5398
  0
VERTEX
  8
LAYER1
 62
     7
  6
CONTINUOUS
 10
5.6233
 20
5.5398
  0
VERTEX
  8
LAYER1
 62
     7
  6
CONTINUOUS
 10
5.6233
 20
5.5398
  0
VERTEX
  8
LAYER1
 62
     7
  6
CONTINUOUS
 10
5.6233
 20
5.5398
  0
VERTEX
  8
LAYER1
 62
     7
  6
CONTINUOUS
 10
5.6233
 20
5.5398
  0
VERTEX
  8
LAYER1
 62
     7
  6
CONTINUOUS
 10
5.6233
 20
5.5398
  0
VERTEX
  8
LAYER1
 62
     7
  6
CONTINUOUS
 10
5.6233
 20
5.5398
  0
VERTEX
  8
LAYER1
 62
     7
  6
CONTINUOUS
 10
5.6233
 20
5.5398
  0
VERTEX
  8
LAYER1
 62
     7
  6
CONTINUOUS
 10
5.6234
 20
5.5395
  0
VERTEX
  8
LAYER1
 62
     7
  6
CONTINUOUS
 10
5.6235
 20
5.5393
  0
VERTEX
  8
LAYER1
 62
     7
  6
CONTINUOUS
 10
5.6236
 20
5.5391
  0
VERTEX
  8
LAYER1
 62
     7
  6
CONTINUOUS
 10
5.6236
 20
5.5390
  0
VERTEX
  8
LAYER1
 62
     7
  6
CONTINUOUS
 10
5.6236
 20
5.5390
  0
VERTEX
  8
LAYER1
 62
     7
  6
CONTINUOUS
 10
5.6236
 20
5.5390
  0
VERTEX
  8
LAYER1
 62
     7
  6
CONTINUOUS
 10
5.6236
 20
5.5391
  0
VERTEX
  8
LAYER1
 62
     7
  6
CONTINUOUS
 10
5.6235
 20
5.5392
  0
VERTEX
  8
LAYER1
 62
     7
  6
CONTINUOUS
 10
5.6235
 20
5.5393
  0
VERTEX
  8
LAYER1
 62
     7
  6
CONTINUOUS
 10
5.6234
 20
5.5395
  0
VERTEX
  8
LAYER1
 62
     7
  6
CONTINUOUS
 10
5.6234
 20
5.5396
  0
VERTEX
  8
LAYER1
 62
     7
  6
CONTINUOUS
 10
5.6233
 20
5.5398
  0
SEQEND
  8
LAYER1
  0
POLYLINE
  8
LAYER1
 62
     7
 66
     1
  6
CONTINUOUS
  0
VERTEX
  8
LAYER1
 62
     7
  6
CONTINUOUS
 10
5.6233
 20
5.5398
  0
VERTEX
  8
LAYER1
 62
     7
  6
CONTINUOUS
 10
5.6230
 20
5.5406
  0
VERTEX
  8
LAYER1
 62
     7
  6
CONTINUOUS
 10
5.6228
 20
5.5413
  0
VERTEX
  8
LAYER1
 62
     7
  6
CONTINUOUS
 10
5.6225
 20
5.5420
  0
VERTEX
  8
LAYER1
 62
     7
  6
CONTINUOUS
 10
5.6222
 20
5.5427
  0
VERTEX
  8
LAYER1
 62
     7
  6
CONTINUOUS
 10
5.6220
 20
5.5434
  0
VERTEX
  8
LAYER1
 62
     7
  6
CONTINUOUS
 10
5.6217
 20
5.5441
  0
VERTEX
  8
LAYER1
 62
     7
  6
CONTINUOUS
 10
5.6215
 20
5.5447
  0
VERTEX
  8
LAYER1
 62
     7
  6
CONTINUOUS
 10
5.6213
 20
5.5452
  0
VERTEX
  8
LAYER1
 62
     7
  6
CONTINUOUS
 10
5.6211
 20
5.5457
  0
VERTEX
  8
LAYER1
 62
     7
  6
CONTINUOUS
 10
5.6210
 20
5.5461
  0
VERTEX
  8
LAYER1
 62
     7
  6
CONTINUOUS
 10
5.6209
 20
5.5465
  0
VERTEX
  8
LAYER1
 62
     7
  6
CONTINUOUS
 10
5.6208
 20
5.5467
  0
VERTEX
  8
LAYER1
 62
     7
  6
CONTINUOUS
 10
5.6207
 20
5.5468
  0
VERTEX
  8
LAYER1
 62
     7
  6
CONTINUOUS
 10
5.6207
 20
5.5469
  0
VERTEX
  8
LAYER1
 62
     7
  6
CONTINUOUS
 10
5.6207
 20
5.5470
  0
VERTEX
  8
LAYER1
 62
     7
  6
CONTINUOUS
 10
5.6207
 20
5.5470
  0
VERTEX
  8
LAYER1
 62
     7
  6
CONTINUOUS
 10
5.6207
 20
5.5470
  0
VERTEX
  8
LAYER1
 62
     7
  6
CONTINUOUS
 10
5.6207
 20
5.5470
  0
VERTEX
  8
LAYER1
 62
     7
  6
CONTINUOUS
 10
5.6207
 20
5.5470
  0
VERTEX
  8
LAYER1
 62
     7
  6
CONTINUOUS
 10
5.6207
 20
5.5470
  0
VERTEX
  8
LAYER1
 62
     7
  6
CONTINUOUS
 10
5.6207
 20
5.5469
  0
VERTEX
  8
LAYER1
 62
     7
  6
CONTINUOUS
 10
5.6207
 20
5.5469
  0
VERTEX
  8
LAYER1
 62
     7
  6
CONTINUOUS
 10
5.6207
 20
5.5468
  0
VERTEX
  8
LAYER1
 62
     7
  6
CONTINUOUS
 10
5.6208
 20
5.5467
  0
SEQEND
  8
LAYER1
  0
ARC
  8
LAYER1
 62
     7
  6
CONTINUOUS
 10
6.0826
 20
5.8475
 40
0.0153
 50
154.3093
 51
-154.3076
  0
ARC
  8
LAYER1
 62
     7
  6
CONTINUOUS
 10
5.0315
 20
6.4981
 40
0.0178
 50
-51.3488
 51
51.3488
  0
POLYLINE
  8
LAYER10
 62
     1
 66
     1
  6
CONTINUOUS
  0
VERTEX
  8
LAYER10
 62
     1
  6
CONTINUOUS
 10
5.3778
 20
5.7403
  0
VERTEX
  8
LAYER10
 62
     1
  6
CONTINUOUS
 10
5.3786
 20
5.7379
  0
VERTEX
  8
LAYER10
 62
     1
  6
CONTINUOUS
 10
5.3793
 20
5.7355
  0
VERTEX
  8
LAYER10
 62
     1
  6
CONTINUOUS
 10
5.3800
 20
5.7330
  0
VERTEX
  8
LAYER10
 62
     1
  6
CONTINUOUS
 10
5.3806
 20
5.7306
  0
VERTEX
  8
LAYER10
 62
     1
  6
CONTINUOUS
 10
5.3811
 20
5.7281
  0
VERTEX
  8
LAYER10
 62
     1
  6
CONTINUOUS
 10
5.3816
 20
5.7256
  0
VERTEX
  8
LAYER10
 62
     1
  6
CONTINUOUS
 10
5.3820
 20
5.7230
  0
VERTEX
  8
LAYER10
 62
     1
  6
CONTINUOUS
 10
5.3823
 20
5.7205
  0
VERTEX
  8
LAYER10
 62
     1
  6
CONTINUOUS
 10
5.3826
 20
5.7179
  0
VERTEX
  8
LAYER10
 62
     1
  6
CONTINUOUS
 10
5.3828
 20
5.7154
  0
VERTEX
  8
LAYER10
 62
     1
  6
CONTINUOUS
 10
5.3830
 20
5.7128
  0
VERTEX
  8
LAYER10
 62
     1
  6
CONTINUOUS
 10
5.3831
 20
5.7103
  0
VERTEX
  8
LAYER10
 62
     1
  6
CONTINUOUS
 10
5.3832
 20
5.7055
  0
VERTEX
  8
LAYER10
 62
     1
  6
CONTINUOUS
 10
5.3831
 20
5.7008
  0
VERTEX
  8
LAYER10
 62
     1
  6
CONTINUOUS
 10
5.3828
 20
5.6961
  0
VERTEX
  8
LAYER10
 62
     1
  6
CONTINUOUS
 10
5.3823
 20
5.6914
  0
VERTEX
  8
LAYER10
 62
     1
  6
CONTINUOUS
 10
5.3817
 20
5.6867
  0
VERTEX
  8
LAYER10
 62
     1
  6
CONTINUOUS
 10
5.3810
 20
5.6820
  0
VERTEX
  8
LAYER10
 62
     1
  6
CONTINUOUS
 10
5.3801
 20
5.6774
  0
VERTEX
  8
LAYER10
 62
     1
  6
CONTINUOUS
 10
5.3791
 20
5.6728
  0
VERTEX
  8
LAYER10
 62
     1
  6
CONTINUOUS
 10
5.3779
 20
5.6682
  0
VERTEX
  8
LAYER10
 62
     1
  6
CONTINUOUS
 10
5.3766
 20
5.6637
  0
VERTEX
  8
LAYER10
 62
     1
  6
CONTINUOUS
 10
5.3751
 20
5.6593
  0
VERTEX
  8
LAYER10
 62
     1
  6
CONTINUOUS
 10
5.3736
 20
5.6549
  0
VERTEX
  8
LAYER10
 62
     1
  6
CONTINUOUS
 10
5.3719
 20
5.6506
  0
VERTEX
  8
LAYER10
 62
     1
  6
CONTINUOUS
 10
5.3702
 20
5.6463
  0
VERTEX
  8
LAYER10
 62
     1
  6
CONTINUOUS
 10
5.3683
 20
5.6421
  0
VERTEX
  8
LAYER10
 62
     1
  6
CONTINUOUS
 10
5.3664
 20
5.6379
  0
VERTEX
  8
LAYER10
 62
     1
  6
CONTINUOUS
 10
5.3644
 20
5.6338
  0
VERTEX
  8
LAYER10
 62
     1
  6
CONTINUOUS
 10
5.3623
 20
5.6296
  0
VERTEX
  8
LAYER10
 62
     1
  6
CONTINUOUS
 10
5.3601
 20
5.6255
  0
VERTEX
  8
LAYER10
 62
     1
  6
CONTINUOUS
 10
5.3580
 20
5.6214
  0
VERTEX
  8
LAYER10
 62
     1
  6
CONTINUOUS
 10
5.3557
 20
5.6172
  0
VERTEX
  8
LAYER10
 62
     1
  6
CONTINUOUS
 10
5.3535
 20
5.6130
  0
VERTEX
  8
LAYER10
 62
     1
  6
CONTINUOUS
 10
5.3512
 20
5.6087
  0
VERTEX
  8
LAYER10
 62
     1
  6
CONTINUOUS
 10
5.3490
 20
5.6044
  0
VERTEX
  8
LAYER10
 62
     1
  6
CONTINUOUS
 10
5.3469
 20
5.6005
  0
VERTEX
  8
LAYER10
 62
     1
  6
CONTINUOUS
 10
5.3449
 20
5.5966
  0
VERTEX
  8
LAYER10
 62
     1
  6
CONTINUOUS
 10
5.3428
 20
5.5927
  0
VERTEX
  8
LAYER10
 62
     1
  6
CONTINUOUS
 10
5.3406
 20
5.5888
  0
VERTEX
  8
LAYER10
 62
     1
  6
CONTINUOUS
 10
5.3384
 20
5.5851
  0
VERTEX
  8
LAYER10
 62
     1
  6
CONTINUOUS
 10
5.3361
 20
5.5814
  0
VERTEX
  8
LAYER10
 62
     1
  6
CONTINUOUS
 10
5.3337
 20
5.5779
  0
VERTEX
  8
LAYER10
 62
     1
  6
CONTINUOUS
 10
5.3311
 20
5.5746
  0
VERTEX
  8
LAYER10
 62
     1
  6
CONTINUOUS
 10
5.3284
 20
5.5715
  0
VERTEX
  8
LAYER10
 62
     1
  6
CONTINUOUS
 10
5.3255
 20
5.5687
  0
VERTEX
  8
LAYER10
 62
     1
  6
CONTINUOUS
 10
5.3225
 20
5.5662
  0
VERTEX
  8
LAYER10
 62
     1
  6
CONTINUOUS
 10
5.3192
 20
5.5640
  0
VERTEX
  8
LAYER10
 62
     1
  6
CONTINUOUS
 10
5.3163
 20
5.5624
  0
VERTEX
  8
LAYER10
 62
     1
  6
CONTINUOUS
 10
5.3133
 20
5.5611
  0
VERTEX
  8
LAYER10
 62
     1
  6
CONTINUOUS
 10
5.3102
 20
5.5599
  0
VERTEX
  8
LAYER10
 62
     1
  6
CONTINUOUS
 10
5.3070
 20
5.5590
  0
VERTEX
  8
LAYER10
 62
     1
  6
CONTINUOUS
 10
5.3037
 20
5.5581
  0
VERTEX
  8
LAYER10
 62
     1
  6
CONTINUOUS
 10
5.3003
 20
5.5574
  0
VERTEX
  8
LAYER10
 62
     1
  6
CONTINUOUS
 10
5.2968
 20
5.5567
  0
VERTEX
  8
LAYER10
 62
     1
  6
CONTINUOUS
 10
5.2933
 20
5.5561
  0
VERTEX
  8
LAYER10
 62
     1
  6
CONTINUOUS
 10
5.2898
 20
5.5555
  0
VERTEX
  8
LAYER10
 62
     1
  6
CONTINUOUS
 10
5.2862
 20
5.5549
  0
VERTEX
  8
LAYER10
 62
     1
  6
CONTINUOUS
 10
5.2827
 20
5.5542
  0
VERTEX
  8
LAYER10
 62
     1
  6
CONTINUOUS
 10
5.2791
 20
5.5535
  0
VERTEX
  8
LAYER10
 62
     1
  6
CONTINUOUS
 10
5.2748
 20
5.5525
  0
VERTEX
  8
LAYER10
 62
     1
  6
CONTINUOUS
 10
5.2705
 20
5.5514
  0
VERTEX
  8
LAYER10
 62
     1
  6
CONTINUOUS
 10
5.2662
 20
5.5503
  0
VERTEX
  8
LAYER10
 62
     1
  6
CONTINUOUS
 10
5.2620
 20
5.5491
  0
VERTEX
  8
LAYER10
 62
     1
  6
CONTINUOUS
 10
5.2578
 20
5.5479
  0
VERTEX
  8
LAYER10
 62
     1
  6
CONTINUOUS
 10
5.2537
 20
5.5467
  0
VERTEX
  8
LAYER10
 62
     1
  6
CONTINUOUS
 10
5.2495
 20
5.5457
  0
VERTEX
  8
LAYER10
 62
     1
  6
CONTINUOUS
 10
5.2454
 20
5.5447
  0
VERTEX
  8
LAYER10
 62
     1
  6
CONTINUOUS
 10
5.2413
 20
5.5440
  0
VERTEX
  8
LAYER10
 62
     1
  6
CONTINUOUS
 10
5.2372
 20
5.5434
  0
VERTEX
  8
LAYER10
 62
     1
  6
CONTINUOUS
 10
5.2331
 20
5.5431
  0
VERTEX
  8
LAYER10
 62
     1
  6
CONTINUOUS
 10
5.2290
 20
5.5430
  0
VERTEX
  8
LAYER10
 62
     1
  6
CONTINUOUS
 10
5.2253
 20
5.5432
  0
VERTEX
  8
LAYER10
 62
     1
  6
CONTINUOUS
 10
5.2215
 20
5.5436
  0
VERTEX
  8
LAYER10
 62
     1
  6
CONTINUOUS
 10
5.2178
 20
5.5443
  0
VERTEX
  8
LAYER10
 62
     1
  6
CONTINUOUS
 10
5.2141
 20
5.5451
  0
VERTEX
  8
LAYER10
 62
     1
  6
CONTINUOUS
 10
5.2103
 20
5.5459
  0
VERTEX
  8
LAYER10
 62
     1
  6
CONTINUOUS
 10
5.2065
 20
5.5469
  0
VERTEX
  8
LAYER10
 62
     1
  6
CONTINUOUS
 10
5.2028
 20
5.5480
  0
VERTEX
  8
LAYER10
 62
     1
  6
CONTINUOUS
 10
5.1990
 20
5.5490
  0
VERTEX
  8
LAYER10
 62
     1
  6
CONTINUOUS
 10
5.1952
 20
5.5500
  0
VERTEX
  8
LAYER10
 62
     1
  6
CONTINUOUS
 10
5.1914
 20
5.5510
  0
VERTEX
  8
LAYER10
 62
     1
  6
CONTINUOUS
 10
5.1875
 20
5.5519
  0
VERTEX
  8
LAYER10
 62
     1
  6
CONTINUOUS
 10
5.1837
 20
5.5526
  0
VERTEX
  8
LAYER10
 62
     1
  6
CONTINUOUS
 10
5.1811
 20
5.5530
  0
VERTEX
  8
LAYER10
 62
     1
  6
CONTINUOUS
 10
5.1786
 20
5.5534
  0
VERTEX
  8
LAYER10
 62
     1
  6
CONTINUOUS
 10
5.1760
 20
5.5537
  0
VERTEX
  8
LAYER10
 62
     1
  6
CONTINUOUS
 10
5.1735
 20
5.5540
  0
VERTEX
  8
LAYER10
 62
     1
  6
CONTINUOUS
 10
5.1709
 20
5.5543
  0
VERTEX
  8
LAYER10
 62
     1
  6
CONTINUOUS
 10
5.1684
 20
5.5546
  0
VERTEX
  8
LAYER10
 62
     1
  6
CONTINUOUS
 10
5.1659
 20
5.5549
  0
VERTEX
  8
LAYER10
 62
     1
  6
CONTINUOUS
 10
5.1634
 20
5.5553
  0
VERTEX
  8
LAYER10
 62
     1
  6
CONTINUOUS
 10
5.1609
 20
5.5557
  0
VERTEX
  8
LAYER10
 62
     1
  6
CONTINUOUS
 10
5.1584
 20
5.5562
  0
VERTEX
  8
LAYER10
 62
     1
  6
CONTINUOUS
 10
5.1559
 20
5.5567
  0
VERTEX
  8
LAYER10
 62
     1
  6
CONTINUOUS
 10
5.1535
 20
5.5574
  0
VERTEX
  8
LAYER10
 62
     1
  6
CONTINUOUS
 10
5.1501
 20
5.5585
  0
VERTEX
  8
LAYER10
 62
     1
  6
CONTINUOUS
 10
5.1468
 20
5.5598
  0
VERTEX
  8
LAYER10
 62
     1
  6
CONTINUOUS
 10
5.1435
 20
5.5613
  0
VERTEX
  8
LAYER10
 62
     1
  6
CONTINUOUS
 10
5.1403
 20
5.5631
  0
VERTEX
  8
LAYER10
 62
     1
  6
CONTINUOUS
 10
5.1372
 20
5.5650
  0
VERTEX
  8
LAYER10
 62
     1
  6
CONTINUOUS
 10
5.1341
 20
5.5670
  0
VERTEX
  8
LAYER10
 62
     1
  6
CONTINUOUS
 10
5.1312
 20
5.5692
  0
VERTEX
  8
LAYER10
 62
     1
  6
CONTINUOUS
 10
5.1284
 20
5.5716
  0
VERTEX
  8
LAYER10
 62
     1
  6
CONTINUOUS
 10
5.1256
 20
5.5741
  0
VERTEX
  8
LAYER10
 62
     1
  6
CONTINUOUS
 10
5.1230
 20
5.5767
  0
VERTEX
  8
LAYER10
 62
     1
  6
CONTINUOUS
 10
5.1205
 20
5.5794
  0
VERTEX
  8
LAYER10
 62
     1
  6
CONTINUOUS
 10
5.1181
 20
5.5821
  0
VERTEX
  8
LAYER10
 62
     1
  6
CONTINUOUS
 10
5.1154
 20
5.5856
  0
VERTEX
  8
LAYER10
 62
     1
  6
CONTINUOUS
 10
5.1129
 20
5.5891
  0
VERTEX
  8
LAYER10
 62
     1
  6
CONTINUOUS
 10
5.1105
 20
5.5927
  0
VERTEX
  8
LAYER10
 62
     1
  6
CONTINUOUS
 10
5.1083
 20
5.5964
  0
VERTEX
  8
LAYER10
 62
     1
  6
CONTINUOUS
 10
5.1061
 20
5.6002
  0
VERTEX
  8
LAYER10
 62
     1
  6
CONTINUOUS
 10
5.1041
 20
5.6040
  0
VERTEX
  8
LAYER10
 62
     1
  6
CONTINUOUS
 10
5.1021
 20
5.6078
  0
VERTEX
  8
LAYER10
 62
     1
  6
CONTINUOUS
 10
5.1002
 20
5.6117
  0
VERTEX
  8
LAYER10
 62
     1
  6
CONTINUOUS
 10
5.0983
 20
5.6155
  0
VERTEX
  8
LAYER10
 62
     1
  6
CONTINUOUS
 10
5.0964
 20
5.6194
  0
VERTEX
  8
LAYER10
 62
     1
  6
CONTINUOUS
 10
5.0945
 20
5.6233
  0
VERTEX
  8
LAYER10
 62
     1
  6
CONTINUOUS
 10
5.0926
 20
5.6271
  0
VERTEX
  8
LAYER10
 62
     1
  6
CONTINUOUS
 10
5.0917
 20
5.6288
  0
VERTEX
  8
LAYER10
 62
     1
  6
CONTINUOUS
 10
5.0908
 20
5.6304
  0
VERTEX
  8
LAYER10
 62
     1
  6
CONTINUOUS
 10
5.0900
 20
5.6321
  0
VERTEX
  8
LAYER10
 62
     1
  6
CONTINUOUS
 10
5.0891
 20
5.6337
  0
VERTEX
  8
LAYER10
 62
     1
  6
CONTINUOUS
 10
5.0882
 20
5.6354
  0
VERTEX
  8
LAYER10
 62
     1
  6
CONTINUOUS
 10
5.0874
 20
5.6370
  0
VERTEX
  8
LAYER10
 62
     1
  6
CONTINUOUS
 10
5.0865
 20
5.6387
  0
VERTEX
  8
LAYER10
 62
     1
  6
CONTINUOUS
 10
5.0857
 20
5.6404
  0
VERTEX
  8
LAYER10
 62
     1
  6
CONTINUOUS
 10
5.0848
 20
5.6420
  0
VERTEX
  8
LAYER10
 62
     1
  6
CONTINUOUS
 10
5.0840
 20
5.6437
  0
VERTEX
  8
LAYER10
 62
     1
  6
CONTINUOUS
 10
5.0831
 20
5.6454
  0
VERTEX
  8
LAYER10
 62
     1
  6
CONTINUOUS
 10
5.0823
 20
5.6471
  0
VERTEX
  8
LAYER10
 62
     1
  6
CONTINUOUS
 10
5.0808
 20
5.6503
  0
VERTEX
  8
LAYER10
 62
     1
  6
CONTINUOUS
 10
5.0794
 20
5.6535
  0
VERTEX
  8
LAYER10
 62
     1
  6
CONTINUOUS
 10
5.0781
 20
5.6568
  0
VERTEX
  8
LAYER10
 62
     1
  6
CONTINUOUS
 10
5.0769
 20
5.6601
  0
VERTEX
  8
LAYER10
 62
     1
  6
CONTINUOUS
 10
5.0758
 20
5.6634
  0
VERTEX
  8
LAYER10
 62
     1
  6
CONTINUOUS
 10
5.0747
 20
5.6668
  0
VERTEX
  8
LAYER10
 62
     1
  6
CONTINUOUS
 10
5.0739
 20
5.6702
  0
VERTEX
  8
LAYER10
 62
     1
  6
CONTINUOUS
 10
5.0731
 20
5.6736
  0
VERTEX
  8
LAYER10
 62
     1
  6
CONTINUOUS
 10
5.0726
 20
5.6770
  0
VERTEX
  8
LAYER10
 62
     1
  6
CONTINUOUS
 10
5.0721
 20
5.6804
  0
VERTEX
  8
LAYER10
 62
     1
  6
CONTINUOUS
 10
5.0719
 20
5.6838
  0
VERTEX
  8
LAYER10
 62
     1
  6
CONTINUOUS
 10
5.0719
 20
5.6872
  0
VERTEX
  8
LAYER10
 62
     1
  6
CONTINUOUS
 10
5.0721
 20
5.6911
  0
VERTEX
  8
LAYER10
 62
     1
  6
CONTINUOUS
 10
5.0726
 20
5.6950
  0
VERTEX
  8
LAYER10
 62
     1
  6
CONTINUOUS
 10
5.0733
 20
5.6988
  0
VERTEX
  8
LAYER10
 62
     1
  6
CONTINUOUS
 10
5.0742
 20
5.7027
  0
VERTEX
  8
LAYER10
 62
     1
  6
CONTINUOUS
 10
5.0753
 20
5.7065
  0
VERTEX
  8
LAYER10
 62
     1
  6
CONTINUOUS
 10
5.0766
 20
5.7103
  0
VERTEX
  8
LAYER10
 62
     1
  6
CONTINUOUS
 10
5.0780
 20
5.7141
  0
VERTEX
  8
LAYER10
 62
     1
  6
CONTINUOUS
 10
5.0796
 20
5.7178
  0
VERTEX
  8
LAYER10
 62
     1
  6
CONTINUOUS
 10
5.0812
 20
5.7215
  0
VERTEX
  8
LAYER10
 62
     1
  6
CONTINUOUS
 10
5.0829
 20
5.7252
  0
VERTEX
  8
LAYER10
 62
     1
  6
CONTINUOUS
 10
5.0847
 20
5.7289
  0
VERTEX
  8
LAYER10
 62
     1
  6
CONTINUOUS
 10
5.0865
 20
5.7325
  0
VERTEX
  8
LAYER10
 62
     1
  6
CONTINUOUS
 10
5.0883
 20
5.7361
  0
VERTEX
  8
LAYER10
 62
     1
  6
CONTINUOUS
 10
5.0902
 20
5.7397
  0
VERTEX
  8
LAYER10
 62
     1
  6
CONTINUOUS
 10
5.0920
 20
5.7432
  0
VERTEX
  8
LAYER10
 62
     1
  6
CONTINUOUS
 10
5.0939
 20
5.7467
  0
VERTEX
  8
LAYER10
 62
     1
  6
CONTINUOUS
 10
5.0959
 20
5.7501
  0
VERTEX
  8
LAYER10
 62
     1
  6
CONTINUOUS
 10
5.0978
 20
5.7535
  0
VERTEX
  8
LAYER10
 62
     1
  6
CONTINUOUS
 10
5.0999
 20
5.7569
  0
VERTEX
  8
LAYER10
 62
     1
  6
CONTINUOUS
 10
5.1020
 20
5.7602
  0
VERTEX
  8
LAYER10
 62
     1
  6
CONTINUOUS
 10
5.1042
 20
5.7634
  0
VERTEX
  8
LAYER10
 62
     1
  6
CONTINUOUS
 10
5.1064
 20
5.7667
  0
VERTEX
  8
LAYER10
 62
     1
  6
CONTINUOUS
 10
5.1088
 20
5.7698
  0
VERTEX
  8
LAYER10
 62
     1
  6
CONTINUOUS
 10
5.1113
 20
5.7730
  0
VERTEX
  8
LAYER10
 62
     1
  6
CONTINUOUS
 10
5.1146
 20
5.7769
  0
VERTEX
  8
LAYER10
 62
     1
  6
CONTINUOUS
 10
5.1181
 20
5.7808
  0
VERTEX
  8
LAYER10
 62
     1
  6
CONTINUOUS
 10
5.1218
 20
5.7845
  0
VERTEX
  8
LAYER10
 62
     1
  6
CONTINUOUS
 10
5.1256
 20
5.7881
  0
VERTEX
  8
LAYER10
 62
     1
  6
CONTINUOUS
 10
5.1296
 20
5.7915
  0
VERTEX
  8
LAYER10
 62
     1
  6
CONTINUOUS
 10
5.1338
 20
5.7947
  0
VERTEX
  8
LAYER10
 62
     1
  6
CONTINUOUS
 10
5.1380
 20
5.7977
  0
VERTEX
  8
LAYER10
 62
     1
  6
CONTINUOUS
 10
5.1424
 20
5.8004
  0
VERTEX
  8
LAYER10
 62
     1
  6
CONTINUOUS
 10
5.1469
 20
5.8029
  0
VERTEX
  8
LAYER10
 62
     1
  6
CONTINUOUS
 10
5.1516
 20
5.8051
  0
VERTEX
  8
LAYER10
 62
     1
  6
CONTINUOUS
 10
5.1563
 20
5.8070
  0
VERTEX
  8
LAYER10
 62
     1
  6
CONTINUOUS
 10
5.1612
 20
5.8086
  0
VERTEX
  8
LAYER10
 62
     1
  6
CONTINUOUS
 10
5.1636
 20
5.8093
  0
VERTEX
  8
LAYER10
 62
     1
  6
CONTINUOUS
 10
5.1661
 20
5.8098
  0
VERTEX
  8
LAYER10
 62
     1
  6
CONTINUOUS
 10
5.1686
 20
5.8104
  0
VERTEX
  8
LAYER10
 62
     1
  6
CONTINUOUS
 10
5.1710
 20
5.8108
  0
VERTEX
  8
LAYER10
 62
     1
  6
CONTINUOUS
 10
5.1736
 20
5.8112
  0
VERTEX
  8
LAYER10
 62
     1
  6
CONTINUOUS
 10
5.1761
 20
5.8116
  0
VERTEX
  8
LAYER10
 62
     1
  6
CONTINUOUS
 10
5.1786
 20
5.8120
  0
VERTEX
  8
LAYER10
 62
     1
  6
CONTINUOUS
 10
5.1811
 20
5.8124
  0
VERTEX
  8
LAYER10
 62
     1
  6
CONTINUOUS
 10
5.1837
 20
5.8127
  0
VERTEX
  8
LAYER10
 62
     1
  6
CONTINUOUS
 10
5.1862
 20
5.8131
  0
VERTEX
  8
LAYER10
 62
     1
  6
CONTINUOUS
 10
5.1887
 20
5.8135
  0
VERTEX
  8
LAYER10
 62
     1
  6
CONTINUOUS
 10
5.1912
 20
5.8139
  0
VERTEX
  8
LAYER10
 62
     1
  6
CONTINUOUS
 10
5.1950
 20
5.8146
  0
VERTEX
  8
LAYER10
 62
     1
  6
CONTINUOUS
 10
5.1988
 20
5.8155
  0
VERTEX
  8
LAYER10
 62
     1
  6
CONTINUOUS
 10
5.2026
 20
5.8164
  0
VERTEX
  8
LAYER10
 62
     1
  6
CONTINUOUS
 10
5.2064
 20
5.8173
  0
VERTEX
  8
LAYER10
 62
     1
  6
CONTINUOUS
 10
5.2101
 20
5.8183
  0
VERTEX
  8
LAYER10
 62
     1
  6
CONTINUOUS
 10
5.2138
 20
5.8192
  0
VERTEX
  8
LAYER10
 62
     1
  6
CONTINUOUS
 10
5.2176
 20
5.8202
  0
VERTEX
  8
LAYER10
 62
     1
  6
CONTINUOUS
 10
5.2213
 20
5.8212
  0
VERTEX
  8
LAYER10
 62
     1
  6
CONTINUOUS
 10
5.2251
 20
5.8221
  0
VERTEX
  8
LAYER10
 62
     1
  6
CONTINUOUS
 10
5.2288
 20
5.8229
  0
VERTEX
  8
LAYER10
 62
     1
  6
CONTINUOUS
 10
5.2326
 20
5.8237
  0
VERTEX
  8
LAYER10
 62
     1
  6
CONTINUOUS
 10
5.2364
 20
5.8244
  0
VERTEX
  8
LAYER10
 62
     1
  6
CONTINUOUS
 10
5.2401
 20
5.8249
  0
VERTEX
  8
LAYER10
 62
     1
  6
CONTINUOUS
 10
5.2438
 20
5.8254
  0
VERTEX
  8
LAYER10
 62
     1
  6
CONTINUOUS
 10
5.2475
 20
5.8257
  0
VERTEX
  8
LAYER10
 62
     1
  6
CONTINUOUS
 10
5.2512
 20
5.8260
  0
VERTEX
  8
LAYER10
 62
     1
  6
CONTINUOUS
 10
5.2550
 20
5.8261
  0
VERTEX
  8
LAYER10
 62
     1
  6
CONTINUOUS
 10
5.2588
 20
5.8262
  0
VERTEX
  8
LAYER10
 62
     1
  6
CONTINUOUS
 10
5.2625
 20
5.8262
  0
VERTEX
  8
LAYER10
 62
     1
  6
CONTINUOUS
 10
5.2663
 20
5.8261
  0
VERTEX
  8
LAYER10
 62
     1
  6
CONTINUOUS
 10
5.2701
 20
5.8259
  0
VERTEX
  8
LAYER10
 62
     1
  6
CONTINUOUS
 10
5.2739
 20
5.8256
  0
VERTEX
  8
LAYER10
 62
     1
  6
CONTINUOUS
 10
5.2777
 20
5.8252
  0
VERTEX
  8
LAYER10
 62
     1
  6
CONTINUOUS
 10
5.2816
 20
5.8248
  0
VERTEX
  8
LAYER10
 62
     1
  6
CONTINUOUS
 10
5.2856
 20
5.8243
  0
VERTEX
  8
LAYER10
 62
     1
  6
CONTINUOUS
 10
5.2896
 20
5.8237
  0
VERTEX
  8
LAYER10
 62
     1
  6
CONTINUOUS
 10
5.2936
 20
5.8230
  0
VERTEX
  8
LAYER10
 62
     1
  6
CONTINUOUS
 10
5.2976
 20
5.8222
  0
VERTEX
  8
LAYER10
 62
     1
  6
CONTINUOUS
 10
5.3016
 20
5.8212
  0
VERTEX
  8
LAYER10
 62
     1
  6
CONTINUOUS
 10
5.3054
 20
5.8201
  0
VERTEX
  8
LAYER10
 62
     1
  6
CONTINUOUS
 10
5.3093
 20
5.8189
  0
VERTEX
  8
LAYER10
 62
     1
  6
CONTINUOUS
 10
5.3130
 20
5.8175
  0
VERTEX
  8
LAYER10
 62
     1
  6
CONTINUOUS
 10
5.3167
 20
5.8160
  0
VERTEX
  8
LAYER10
 62
     1
  6
CONTINUOUS
 10
5.3202
 20
5.8142
  0
VERTEX
  8
LAYER10
 62
     1
  6
CONTINUOUS
 10
5.3236
 20
5.8123
  0
VERTEX
  8
LAYER10
 62
     1
  6
CONTINUOUS
 10
5.3269
 20
5.8102
  0
VERTEX
  8
LAYER10
 62
     1
  6
CONTINUOUS
 10
5.3288
 20
5.8088
  0
VERTEX
  8
LAYER10
 62
     1
  6
CONTINUOUS
 10
5.3307
 20
5.8074
  0
VERTEX
  8
LAYER10
 62
     1
  6
CONTINUOUS
 10
5.3325
 20
5.8058
  0
VERTEX
  8
LAYER10
 62
     1
  6
CONTINUOUS
 10
5.3342
 20
5.8043
  0
VERTEX
  8
LAYER10
 62
     1
  6
CONTINUOUS
 10
5.3360
 20
5.8026
  0
VERTEX
  8
LAYER10
 62
     1
  6
CONTINUOUS
 10
5.3376
 20
5.8010
  0
VERTEX
  8
LAYER10
 62
     1
  6
CONTINUOUS
 10
5.3393
 20
5.7992
  0
VERTEX
  8
LAYER10
 62
     1
  6
CONTINUOUS
 10
5.3409
 20
5.7975
  0
VERTEX
  8
LAYER10
 62
     1
  6
CONTINUOUS
 10
5.3425
 20
5.7957
  0
VERTEX
  8
LAYER10
 62
     1
  6
CONTINUOUS
 10
5.3441
 20
5.7939
  0
VERTEX
  8
LAYER10
 62
     1
  6
CONTINUOUS
 10
5.3456
 20
5.7921
  0
VERTEX
  8
LAYER10
 62
     1
  6
CONTINUOUS
 10
5.3472
 20
5.7903
  0
VERTEX
  8
LAYER10
 62
     1
  6
CONTINUOUS
 10
5.3485
 20
5.7887
  0
VERTEX
  8
LAYER10
 62
     1
  6
CONTINUOUS
 10
5.3499
 20
5.7870
  0
VERTEX
  8
LAYER10
 62
     1
  6
CONTINUOUS
 10
5.3512
 20
5.7854
  0
VERTEX
  8
LAYER10
 62
     1
  6
CONTINUOUS
 10
5.3525
 20
5.7838
  0
VERTEX
  8
LAYER10
 62
     1
  6
CONTINUOUS
 10
5.3538
 20
5.7821
  0
VERTEX
  8
LAYER10
 62
     1
  6
CONTINUOUS
 10
5.3551
 20
5.7805
  0
VERTEX
  8
LAYER10
 62
     1
  6
CONTINUOUS
 10
5.3563
 20
5.7788
  0
VERTEX
  8
LAYER10
 62
     1
  6
CONTINUOUS
 10
5.3576
 20
5.7771
  0
VERTEX
  8
LAYER10
 62
     1
  6
CONTINUOUS
 10
5.3588
 20
5.7755
  0
VERTEX
  8
LAYER10
 62
     1
  6
CONTINUOUS
 10
5.3601
 20
5.7738
  0
VERTEX
  8
LAYER10
 62
     1
  6
CONTINUOUS
 10
5.3613
 20
5.7721
  0
VERTEX
  8
LAYER10
 62
     1
  6
CONTINUOUS
 10
5.3624
 20
5.7703
  0
VERTEX
  8
LAYER10
 62
     1
  6
CONTINUOUS
 10
5.3640
 20
5.7680
  0
VERTEX
  8
LAYER10
 62
     1
  6
CONTINUOUS
 10
5.3656
 20
5.7656
  0
VERTEX
  8
LAYER10
 62
     1
  6
CONTINUOUS
 10
5.3671
 20
5.7632
  0
VERTEX
  8
LAYER10
 62
     1
  6
CONTINUOUS
 10
5.3685
 20
5.7608
  0
VERTEX
  8
LAYER10
 62
     1
  6
CONTINUOUS
 10
5.3699
 20
5.7583
  0
VERTEX
  8
LAYER10
 62
     1
  6
CONTINUOUS
 10
5.3713
 20
5.7558
  0
VERTEX
  8
LAYER10
 62
     1
  6
CONTINUOUS
 10
5.3725
 20
5.7533
  0
VERTEX
  8
LAYER10
 62
     1
  6
CONTINUOUS
 10
5.3737
 20
5.7508
  0
VERTEX
  8
LAYER10
 62
     1
  6
CONTINUOUS
 10
5.3749
 20
5.7482
  0
VERTEX
  8
LAYER10
 62
     1
  6
CONTINUOUS
 10
5.3759
 20
5.7456
  0
VERTEX
  8
LAYER10
 62
     1
  6
CONTINUOUS
 10
5.3769
 20
5.7430
  0
VERTEX
  8
LAYER10
 62
     1
  6
CONTINUOUS
 10
5.3778
 20
5.7403
  0
SEQEND
  8
LAYER10
  0
POLYLINE
  8
LAYER12
 62
     5
 66
     1
  6
CONTINUOUS
  0
VERTEX
  8
LAYER12
 62
     5
  6
CONTINUOUS
 10
5.0426
 20
6.5235
  0
VERTEX
  8
LAYER12
 62
     5
  6
CONTINUOUS
 10
6.0688
 20
6.5235
  0
SEQEND
  8
LAYER12
  0
POLYLINE
  8
LAYER12
 62
     5
 66
     1
  6
CONTINUOUS
  0
VERTEX
  8
LAYER12
 62
     5
  6
CONTINUOUS
 10
6.0688
 20
5.5398
  0
VERTEX
  8
LAYER12
 62
     5
  6
CONTINUOUS
 10
5.0426
 20
5.5398
  0
SEQEND
  8
LAYER12
  0
POLYLINE
  8
LAYER12
 62
     5
 66
     1
  6
CONTINUOUS
  0
VERTEX
  8
LAYER12
 62
     5
  6
CONTINUOUS
 10
5.0426
 20
5.5399
  0
VERTEX
  8
LAYER12
 62
     5
  6
CONTINUOUS
 10
5.0426
 20
5.5398
  0
SEQEND
  8
LAYER12
  0
POLYLINE
  8
LAYER12
 62
     5
 66
     1
  6
CONTINUOUS
  0
VERTEX
  8
LAYER12
 62
     5
  6
CONTINUOUS
 10
5.0426
 20
5.5398
  0
VERTEX
  8
LAYER12
 62
     5
  6
CONTINUOUS
 10
5.0426
 20
5.5398
  0
SEQEND
  8
LAYER12
  0
POLYLINE
  8
LAYER12
 62
     5
 66
     1
  6
CONTINUOUS
  0
VERTEX
  8
LAYER12
 62
     5
  6
CONTINUOUS
 10
5.0426
 20
5.5398
  0
VERTEX
  8
LAYER12
 62
     5
  6
CONTINUOUS
 10
5.0426
 20
5.5398
  0
SEQEND
  8
LAYER12
  0
POLYLINE
  8
LAYER12
 62
     5
 66
     1
  6
CONTINUOUS
  0
VERTEX
  8
LAYER12
 62
     5
  6
CONTINUOUS
 10
5.0426
 20
5.5398
  0
VERTEX
  8
LAYER12
 62
     5
  6
CONTINUOUS
 10
5.0426
 20
5.5399
  0
SEQEND
  8
LAYER12
  0
POLYLINE
  8
LAYER12
 62
     5
 66
     1
  6
CONTINUOUS
  0
VERTEX
  8
LAYER12
 62
     5
  6
CONTINUOUS
 10
5.0426
 20
5.5399
  0
VERTEX
  8
LAYER12
 62
     5
  6
CONTINUOUS
 10
5.0426
 20
5.5398
  0
SEQEND
  8
LAYER12
  0
POLYLINE
  8
LAYER12
 62
     5
 66
     1
  6
CONTINUOUS
  0
VERTEX
  8
LAYER12
 62
     5
  6
CONTINUOUS
 10
5.0426
 20
5.5398
  0
VERTEX
  8
LAYER12
 62
     5
  6
CONTINUOUS
 10
5.0426
 20
6.5235
  0
SEQEND
  8
LAYER12
  0
POLYLINE
  8
LAYER12
 62
     5
 66
     1
  6
CONTINUOUS
  0
VERTEX
  8
LAYER12
 62
     5
  6
CONTINUOUS
 10
5.0426
 20
5.5398
  0
VERTEX
  8
LAYER12
 62
     5
  6
CONTINUOUS
 10
5.0426
 20
5.5399
  0
SEQEND
  8
LAYER12
  0
POLYLINE
  8
LAYER12
 62
     5
 66
     1
  6
CONTINUOUS
  0
VERTEX
  8
LAYER12
 62
     5
  6
CONTINUOUS
 10
6.0657
 20
6.5235
  0
VERTEX
  8
LAYER12
 62
     5
  6
CONTINUOUS
 10
6.0657
 20
5.5398
  0
SEQEND
  8
LAYER12
  0
POLYLINE
  8
LAYER12
 62
     5
 66
     1
  6
CONTINUOUS
  0
VERTEX
  8
LAYER12
 62
     5
  6
CONTINUOUS
 10
6.0657
 20
5.5398
  0
VERTEX
  8
LAYER12
 62
     5
  6
CONTINUOUS
 10
6.0657
 20
5.5399
  0
SEQEND
  8
LAYER12
  0
POLYLINE
  8
LAYER12
 62
     5
 66
     1
  6
CONTINUOUS
  0
VERTEX
  8
LAYER12
 62
     5
  6
CONTINUOUS
 10
6.0657
 20
5.5399
  0
VERTEX
  8
LAYER12
 62
     5
  6
CONTINUOUS
 10
6.0657
 20
5.5398
  0
SEQEND
  8
LAYER12
  0
ENDSEC
  0
EOF
