  0
SECTION
  2
HEADER
  9
$ACADVER
  1
AC1004
  9
$EXTMIN
 10
10.0388
 20
5.5398
  9
$EXTMAX
 10
11.0248
 20
6.5267
  9
$LIMMIN
 10
10.0388
 20
5.5398
  9
$LIMMAX
 10
11.0248
 20
6.5267
  9
$INSBASE
 10
0.0
 20
0.0
  9
$VIEWCTR
 10
7.21903
 20
4.5
  9
$VIEWSIZE
 40
9.0
  9
$SNAPMODE
 70
     0
  9
$SNAPUNIT
 10
1.0
 20
1.0
  9
$SNAPBASE
 10
0.0
 20
0.0
  9
$SNAPANG
 50
0.0
  9
$SNAPSTYLE
 70
     0
  9
$SNAPISOPAIR
 70
     0
  9
$GRIDMODE
 70
     0
  9
$GRIDUNIT
 10
0.0
 20
0.0
  9
$ORTHOMODE
 70
     0
  9
$REGENMODE
 70
     1
  9
$FILLMODE
 70
     1
  9
$QTEXTMODE
 70
     0
  9
$DRAGMODE
 70
     2
  9
$LTSCALE
 40
1.0
  9
$OSMODE
 70
     0
  9
$ATTMODE
 70
     1
  9
$TEXTSIZE
 40
0.2
  9
$TRACEWID
 40
0.05
  9
$TEXTSTYLE
  7
STANDARD
  9
$CLAYER
  8
0
  9
$CELTYPE
  6
BYLAYER
  9
$CECOLOR
 62
   256
  9
$DIMSCALE
 40
1.0
  9
$DIMASZ
 40
0.18
  9
$DIMEXO
 40
0.0625
  9
$DIMDLI
 40
0.38
  9
$DIMRND
 40
0.0
  9
$DIMDLE
 40
0.0
  9
$DIMEXE
 40
0.18
  9
$DIMTP
 40
0.0
  9
$DIMTM
 40
0.0
  9
$DIMTXT
 40
0.18
  9
$DIMCEN
 40
0.09
  9
$DIMTSZ
 40
0.0
  9
$DIMTOL
 70
     0
  9
$DIMLIM
 70
     0
  9
$DIMTIH
 70
     1
  9
$DIMTOH
 70
     1
  9
$DIMSE1
 70
     0
  9
$DIMSE2
 70
     0
  9
$DIMTAD
 70
     0
  9
$DIMZIN
 70
     0
  9
$DIMBLK
  1

  9
$DIMASO
 70
     1
  9
$DIMSHO
 70
     0
  9
$DIMPOST
  1

  9
$DIMAPOST
  1

  9
$DIMALT
 70
     0
  9
$DIMALTD
 70
     2
  9
$DIMALTF
 40
25.4
  9
$DIMLFAC
 40
1.0
  9
$LUNITS
 70
     2
  9
$LUPREC
 70
     4
  9
$AXISMODE
 70
     0
  9
$AXISUNIT
 10
0.0
 20
0.0
  9
$SKETCHINC
 40
0.1
  9
$FILLETRAD
 40
0.0
  9
$AUNITS
 70
     0
  9
$AUPREC
 70
     0
  9
$MENU
  1
acad
  9
$ELEVATION
 40
0.0
  9
$THICKNESS
 40
0.0
  9
$VIEWDIR
 10
0.0
 20
0.0
 30
1.0
  9
$LIMCHECK
 70
     0
  9
$BLIPMODE
 70
     1
  9
$CHAMFERA
 40
0.0
  9
$CHAMFERB
 40
0.0
  9
$FASTZOOM
 70
     1
  9
$SKPOLY
 70
     0
  9
$TDCREATE
 40
2447222.5666886573
  9
$TDUPDATE
 40
2447222.5666886573
  9
$TDINDWG
 40
0.0000000000
  9
$TDUSRTIMER
 40
0.0000000000
  9
$USRTIMER
 70
     1
  9
$ANGBASE
 50
0.0
  9
$ANGDIR
 70
     0
  9
$PDMODE
 70
     0
  9
$PDSIZE
 40
0.0
  9
$PLINEWID
 40
0.0
  9
$COORDS
 70
     0
  9
$SPLFRAME
 70
     0
  9
$SPLINESEGS
 70
     8
  9
$ATTDIA
 70
     0
  9
$ATTREQ
 70
     1
  9
$USERI1
 70
     0
  9
$USERI2
 70
     0
  9
$USERI3
 70
     0
  9
$USERI4
 70
     0
  9
$USERI5
 70
     0
  9
$USERR1
 40
0.0
  9
$USERR2
 40
0.0
  9
$USERR3
 40
0.0
  9
$USERR4
 40
0.0
  9
$USERR5
 40
0.0
  0
ENDSEC
  0
SECTION
  2
TABLES
  0
TABLE
  2
LTYPE
 70
     13
  0
LTYPE
  2
CONTINUOUS
 70
    64
  3
Solid line
 72
    65
 73
     0
 40
0.0
  0
LTYPE
  2
DASHED
 70
    64
  3
__ __ __ __ __ __ __ __ __ __ __ __ __ __ __
 72
    65
 73
     2
 40
0.75
 49
0.5
 49
-0.25
  0
LTYPE
  2
HIDDEN
 70
    64
  3
_ _ _ _ _ _ _ _ _ _ _ _ _ _ _ _ _ _ _ _ _ _ _
 72
    65
 73
     2
 40
0.375
 49
0.25
 49
-0.125
  0
LTYPE
  2
CENTER
 70
    64
  3
____ _ ____ _ ____ _ ____ _ ____ _ ____ _ ____
 72
    65
 73
     4
 40
2.0
 49
1.25
 49
-0.25
 49
0.25
 49
-0.25
  0
LTYPE
  2
PHANTOM
 70
    64
  3
_____ _ _ _____ _ _ _____ _ _ _____ _ _ ____
 72
    65
 73
     6
 40
2.5
 49
1.25
 49
-0.25
 49
0.25
 49
-0.25
 49
0.25
 49
-0.25
  0
LTYPE
  2
DOT
 70
    64
  3
...............................................
 72
    65
 73
     2
 40
0.25
 49
0.0
 49
-0.25
  0
LTYPE
  2
DASHDOT
 70
    64
  3
__ . __ . __ . __ . __ . __ . __ . __ . __ . __
 72
    65
 73
     4
 40
1.0
 49
0.5
 49
-0.25
 49
0.0
 49
-0.25
  0
LTYPE
  2
BORDER
 70
    64
  3
__ __ . __ __ . __ __ . __ __ . __ __ . __ __
 72
    65
 73
     6
 40
1.75
 49
0.5
 49
-0.25
 49
0.5
 49
-0.25
 49
0.0
 49
-0.25
  0
LTYPE
  2
DIVIDE
 70
    64
  3
__ . . __ . . __ . . __ . . __ . . __ . . __
 72
    65
 73
     6
 40
1.25
 49
0.5
 49
-0.25
 49
0.0
 49
-0.25
 49
0.0
 49
-0.25
  0
LTYPE
  2
DCTYPE1
 70
    64
  3
__ . . __ . . __ . . __ . . __ . . __ . . __
 72
    65
 73
     8
 40
2.5
 49
0.5
 49
-0.25
 49
0.125
 49
-0.25
 49
0.25
 49
-0.25
 49
0.125
 49
-0.25
  0
LTYPE
  2
DCTYPE2
 70
    64
  3
__ . . __ . . __ . . __ . . __ . . __ . . __
 72
    65
 73
     6
 40
2.05
 49
1.0
 49
-0.3
 49
0.15
 49
-0.15
 49
0.15
 49
-0.3
  0
LTYPE
  2
DCTYPE3
 70
    64
  3
__ . . __ . . __ . . __ . . __ . . __ . . __
 72
    65
 73
     6
 40
2.5
 49
0.8
 49
-0.2
 49
0.8
 49
-0.2
 49
0.3
 49
-0.2
  0
LTYPE
  2
DCTYPE4
 70
    64
  3
__ . . __ . . __ . . __ . . __ . . __ . . __
 72
    65
 73
     10
 40
3.97
 49
1.75
 49
-0.3
 49
0.3
 49
-0.3
 49
0.06
 49
-0.3
 49
0.06
 49
-0.3
 49
0.3
 49
-0.3
  0
ENDTAB
  0
TABLE
  2
LAYER
 70
    153
  0
LAYER
  2
LAYER1
 70
 64
 62
     7
  6
CONTINUOUS
  0
LAYER
  2
LAYER12
 70
 64
 62
     5
  6
CONTINUOUS
  0
ENDTAB
  0
ENDSEC
  0
SECTION
  2
BLOCKS
  0
ENDSEC
  0
SECTION
  2
ENTITIES
  0
CIRCLE
  8
LAYER1
 62
     7
  6
CONTINUOUS
 10
10.8319
 20
6.4897
 40
0.0203
  0
CIRCLE
  8
LAYER1
 62
     7
  6
CONTINUOUS
 10
10.9338
 20
6.4452
 40
0.0253
  0
POLYLINE
  8
LAYER1
 62
     7
 66
     1
  6
CONTINUOUS
  0
VERTEX
  8
LAYER1
 62
     7
  6
CONTINUOUS
 10
10.5137
 20
6.3848
  0
VERTEX
  8
LAYER1
 62
     7
  6
CONTINUOUS
 10
10.5142
 20
6.3839
  0
VERTEX
  8
LAYER1
 62
     7
  6
CONTINUOUS
 10
10.5145
 20
6.3828
  0
VERTEX
  8
LAYER1
 62
     7
  6
CONTINUOUS
 10
10.5144
 20
6.3814
  0
VERTEX
  8
LAYER1
 62
     7
  6
CONTINUOUS
 10
10.5141
 20
6.3799
  0
VERTEX
  8
LAYER1
 62
     7
  6
CONTINUOUS
 10
10.5137
 20
6.3782
  0
VERTEX
  8
LAYER1
 62
     7
  6
CONTINUOUS
 10
10.5131
 20
6.3764
  0
VERTEX
  8
LAYER1
 62
     7
  6
CONTINUOUS
 10
10.5124
 20
6.3745
  0
VERTEX
  8
LAYER1
 62
     7
  6
CONTINUOUS
 10
10.5116
 20
6.3725
  0
VERTEX
  8
LAYER1
 62
     7
  6
CONTINUOUS
 10
10.5108
 20
6.3705
  0
VERTEX
  8
LAYER1
 62
     7
  6
CONTINUOUS
 10
10.5101
 20
6.3685
  0
VERTEX
  8
LAYER1
 62
     7
  6
CONTINUOUS
 10
10.5094
 20
6.3664
  0
VERTEX
  8
LAYER1
 62
     7
  6
CONTINUOUS
 10
10.5088
 20
6.3645
  0
VERTEX
  8
LAYER1
 62
     7
  6
CONTINUOUS
 10
10.5084
 20
6.3626
  0
VERTEX
  8
LAYER1
 62
     7
  6
CONTINUOUS
 10
10.5082
 20
6.3608
  0
VERTEX
  8
LAYER1
 62
     7
  6
CONTINUOUS
 10
10.5080
 20
6.3590
  0
VERTEX
  8
LAYER1
 62
     7
  6
CONTINUOUS
 10
10.5079
 20
6.3573
  0
VERTEX
  8
LAYER1
 62
     7
  6
CONTINUOUS
 10
10.5080
 20
6.3556
  0
VERTEX
  8
LAYER1
 62
     7
  6
CONTINUOUS
 10
10.5080
 20
6.3539
  0
VERTEX
  8
LAYER1
 62
     7
  6
CONTINUOUS
 10
10.5082
 20
6.3523
  0
VERTEX
  8
LAYER1
 62
     7
  6
CONTINUOUS
 10
10.5084
 20
6.3506
  0
VERTEX
  8
LAYER1
 62
     7
  6
CONTINUOUS
 10
10.5086
 20
6.3490
  0
VERTEX
  8
LAYER1
 62
     7
  6
CONTINUOUS
 10
10.5087
 20
6.3474
  0
VERTEX
  8
LAYER1
 62
     7
  6
CONTINUOUS
 10
10.5089
 20
6.3458
  0
VERTEX
  8
LAYER1
 62
     7
  6
CONTINUOUS
 10
10.5091
 20
6.3442
  0
VERTEX
  8
LAYER1
 62
     7
  6
CONTINUOUS
 10
10.5091
 20
6.3434
  0
VERTEX
  8
LAYER1
 62
     7
  6
CONTINUOUS
 10
10.5092
 20
6.3425
  0
VERTEX
  8
LAYER1
 62
     7
  6
CONTINUOUS
 10
10.5092
 20
6.3417
  0
VERTEX
  8
LAYER1
 62
     7
  6
CONTINUOUS
 10
10.5093
 20
6.3409
  0
VERTEX
  8
LAYER1
 62
     7
  6
CONTINUOUS
 10
10.5093
 20
6.3401
  0
VERTEX
  8
LAYER1
 62
     7
  6
CONTINUOUS
 10
10.5093
 20
6.3392
  0
VERTEX
  8
LAYER1
 62
     7
  6
CONTINUOUS
 10
10.5093
 20
6.3384
  0
VERTEX
  8
LAYER1
 62
     7
  6
CONTINUOUS
 10
10.5093
 20
6.3375
  0
VERTEX
  8
LAYER1
 62
     7
  6
CONTINUOUS
 10
10.5093
 20
6.3367
  0
VERTEX
  8
LAYER1
 62
     7
  6
CONTINUOUS
 10
10.5093
 20
6.3358
  0
VERTEX
  8
LAYER1
 62
     7
  6
CONTINUOUS
 10
10.5092
 20
6.3349
  0
VERTEX
  8
LAYER1
 62
     7
  6
CONTINUOUS
 10
10.5092
 20
6.3340
  0
VERTEX
  8
LAYER1
 62
     7
  6
CONTINUOUS
 10
10.5090
 20
6.3306
  0
VERTEX
  8
LAYER1
 62
     7
  6
CONTINUOUS
 10
10.5087
 20
6.3272
  0
VERTEX
  8
LAYER1
 62
     7
  6
CONTINUOUS
 10
10.5083
 20
6.3237
  0
VERTEX
  8
LAYER1
 62
     7
  6
CONTINUOUS
 10
10.5077
 20
6.3202
  0
VERTEX
  8
LAYER1
 62
     7
  6
CONTINUOUS
 10
10.5069
 20
6.3168
  0
VERTEX
  8
LAYER1
 62
     7
  6
CONTINUOUS
 10
10.5060
 20
6.3135
  0
VERTEX
  8
LAYER1
 62
     7
  6
CONTINUOUS
 10
10.5048
 20
6.3104
  0
VERTEX
  8
LAYER1
 62
     7
  6
CONTINUOUS
 10
10.5033
 20
6.3074
  0
VERTEX
  8
LAYER1
 62
     7
  6
CONTINUOUS
 10
10.5016
 20
6.3047
  0
VERTEX
  8
LAYER1
 62
     7
  6
CONTINUOUS
 10
10.4995
 20
6.3023
  0
VERTEX
  8
LAYER1
 62
     7
  6
CONTINUOUS
 10
10.4971
 20
6.3001
  0
VERTEX
  8
LAYER1
 62
     7
  6
CONTINUOUS
 10
10.4944
 20
6.2984
  0
VERTEX
  8
LAYER1
 62
     7
  6
CONTINUOUS
 10
10.4928
 20
6.2976
  0
VERTEX
  8
LAYER1
 62
     7
  6
CONTINUOUS
 10
10.4911
 20
6.2970
  0
VERTEX
  8
LAYER1
 62
     7
  6
CONTINUOUS
 10
10.4894
 20
6.2965
  0
VERTEX
  8
LAYER1
 62
     7
  6
CONTINUOUS
 10
10.4876
 20
6.2961
  0
VERTEX
  8
LAYER1
 62
     7
  6
CONTINUOUS
 10
10.4858
 20
6.2958
  0
VERTEX
  8
LAYER1
 62
     7
  6
CONTINUOUS
 10
10.4840
 20
6.2957
  0
VERTEX
  8
LAYER1
 62
     7
  6
CONTINUOUS
 10
10.4822
 20
6.2957
  0
VERTEX
  8
LAYER1
 62
     7
  6
CONTINUOUS
 10
10.4804
 20
6.2959
  0
VERTEX
  8
LAYER1
 62
     7
  6
CONTINUOUS
 10
10.4787
 20
6.2962
  0
VERTEX
  8
LAYER1
 62
     7
  6
CONTINUOUS
 10
10.4771
 20
6.2967
  0
VERTEX
  8
LAYER1
 62
     7
  6
CONTINUOUS
 10
10.4755
 20
6.2974
  0
VERTEX
  8
LAYER1
 62
     7
  6
CONTINUOUS
 10
10.4741
 20
6.2982
  0
VERTEX
  8
LAYER1
 62
     7
  6
CONTINUOUS
 10
10.4729
 20
6.2990
  0
VERTEX
  8
LAYER1
 62
     7
  6
CONTINUOUS
 10
10.4719
 20
6.3000
  0
VERTEX
  8
LAYER1
 62
     7
  6
CONTINUOUS
 10
10.4709
 20
6.3011
  0
VERTEX
  8
LAYER1
 62
     7
  6
CONTINUOUS
 10
10.4700
 20
6.3023
  0
VERTEX
  8
LAYER1
 62
     7
  6
CONTINUOUS
 10
10.4691
 20
6.3036
  0
VERTEX
  8
LAYER1
 62
     7
  6
CONTINUOUS
 10
10.4683
 20
6.3049
  0
VERTEX
  8
LAYER1
 62
     7
  6
CONTINUOUS
 10
10.4675
 20
6.3063
  0
VERTEX
  8
LAYER1
 62
     7
  6
CONTINUOUS
 10
10.4668
 20
6.3077
  0
VERTEX
  8
LAYER1
 62
     7
  6
CONTINUOUS
 10
10.4661
 20
6.3091
  0
VERTEX
  8
LAYER1
 62
     7
  6
CONTINUOUS
 10
10.4653
 20
6.3105
  0
VERTEX
  8
LAYER1
 62
     7
  6
CONTINUOUS
 10
10.4646
 20
6.3119
  0
VERTEX
  8
LAYER1
 62
     7
  6
CONTINUOUS
 10
10.4638
 20
6.3133
  0
VERTEX
  8
LAYER1
 62
     7
  6
CONTINUOUS
 10
10.4632
 20
6.3143
  0
VERTEX
  8
LAYER1
 62
     7
  6
CONTINUOUS
 10
10.4625
 20
6.3153
  0
VERTEX
  8
LAYER1
 62
     7
  6
CONTINUOUS
 10
10.4618
 20
6.3163
  0
VERTEX
  8
LAYER1
 62
     7
  6
CONTINUOUS
 10
10.4611
 20
6.3172
  0
VERTEX
  8
LAYER1
 62
     7
  6
CONTINUOUS
 10
10.4603
 20
6.3181
  0
VERTEX
  8
LAYER1
 62
     7
  6
CONTINUOUS
 10
10.4595
 20
6.3189
  0
VERTEX
  8
LAYER1
 62
     7
  6
CONTINUOUS
 10
10.4586
 20
6.3198
  0
VERTEX
  8
LAYER1
 62
     7
  6
CONTINUOUS
 10
10.4577
 20
6.3205
  0
VERTEX
  8
LAYER1
 62
     7
  6
CONTINUOUS
 10
10.4568
 20
6.3213
  0
VERTEX
  8
LAYER1
 62
     7
  6
CONTINUOUS
 10
10.4558
 20
6.3220
  0
VERTEX
  8
LAYER1
 62
     7
  6
CONTINUOUS
 10
10.4547
 20
6.3227
  0
VERTEX
  8
LAYER1
 62
     7
  6
CONTINUOUS
 10
10.4535
 20
6.3233
  0
VERTEX
  8
LAYER1
 62
     7
  6
CONTINUOUS
 10
10.4526
 20
6.3238
  0
VERTEX
  8
LAYER1
 62
     7
  6
CONTINUOUS
 10
10.4516
 20
6.3242
  0
VERTEX
  8
LAYER1
 62
     7
  6
CONTINUOUS
 10
10.4506
 20
6.3246
  0
VERTEX
  8
LAYER1
 62
     7
  6
CONTINUOUS
 10
10.4497
 20
6.3251
  0
VERTEX
  8
LAYER1
 62
     7
  6
CONTINUOUS
 10
10.4487
 20
6.3255
  0
VERTEX
  8
LAYER1
 62
     7
  6
CONTINUOUS
 10
10.4477
 20
6.3259
  0
VERTEX
  8
LAYER1
 62
     7
  6
CONTINUOUS
 10
10.4468
 20
6.3262
  0
VERTEX
  8
LAYER1
 62
     7
  6
CONTINUOUS
 10
10.4460
 20
6.3266
  0
VERTEX
  8
LAYER1
 62
     7
  6
CONTINUOUS
 10
10.4452
 20
6.3270
  0
VERTEX
  8
LAYER1
 62
     7
  6
CONTINUOUS
 10
10.4445
 20
6.3274
  0
VERTEX
  8
LAYER1
 62
     7
  6
CONTINUOUS
 10
10.4439
 20
6.3278
  0
VERTEX
  8
LAYER1
 62
     7
  6
CONTINUOUS
 10
10.4434
 20
6.3283
  0
VERTEX
  8
LAYER1
 62
     7
  6
CONTINUOUS
 10
10.4425
 20
6.3297
  0
VERTEX
  8
LAYER1
 62
     7
  6
CONTINUOUS
 10
10.4427
 20
6.3313
  0
VERTEX
  8
LAYER1
 62
     7
  6
CONTINUOUS
 10
10.4438
 20
6.3330
  0
VERTEX
  8
LAYER1
 62
     7
  6
CONTINUOUS
 10
10.4457
 20
6.3349
  0
VERTEX
  8
LAYER1
 62
     7
  6
CONTINUOUS
 10
10.4481
 20
6.3369
  0
VERTEX
  8
LAYER1
 62
     7
  6
CONTINUOUS
 10
10.4510
 20
6.3390
  0
VERTEX
  8
LAYER1
 62
     7
  6
CONTINUOUS
 10
10.4541
 20
6.3412
  0
VERTEX
  8
LAYER1
 62
     7
  6
CONTINUOUS
 10
10.4574
 20
6.3436
  0
VERTEX
  8
LAYER1
 62
     7
  6
CONTINUOUS
 10
10.4606
 20
6.3460
  0
VERTEX
  8
LAYER1
 62
     7
  6
CONTINUOUS
 10
10.4636
 20
6.3486
  0
VERTEX
  8
LAYER1
 62
     7
  6
CONTINUOUS
 10
10.4663
 20
6.3512
  0
VERTEX
  8
LAYER1
 62
     7
  6
CONTINUOUS
 10
10.4684
 20
6.3539
  0
VERTEX
  8
LAYER1
 62
     7
  6
CONTINUOUS
 10
10.4690
 20
6.3547
  0
VERTEX
  8
LAYER1
 62
     7
  6
CONTINUOUS
 10
10.4695
 20
6.3556
  0
VERTEX
  8
LAYER1
 62
     7
  6
CONTINUOUS
 10
10.4699
 20
6.3565
  0
VERTEX
  8
LAYER1
 62
     7
  6
CONTINUOUS
 10
10.4703
 20
6.3574
  0
VERTEX
  8
LAYER1
 62
     7
  6
CONTINUOUS
 10
10.4707
 20
6.3582
  0
VERTEX
  8
LAYER1
 62
     7
  6
CONTINUOUS
 10
10.4711
 20
6.3591
  0
VERTEX
  8
LAYER1
 62
     7
  6
CONTINUOUS
 10
10.4714
 20
6.3600
  0
VERTEX
  8
LAYER1
 62
     7
  6
CONTINUOUS
 10
10.4718
 20
6.3608
  0
VERTEX
  8
LAYER1
 62
     7
  6
CONTINUOUS
 10
10.4722
 20
6.3616
  0
VERTEX
  8
LAYER1
 62
     7
  6
CONTINUOUS
 10
10.4725
 20
6.3625
  0
VERTEX
  8
LAYER1
 62
     7
  6
CONTINUOUS
 10
10.4729
 20
6.3633
  0
VERTEX
  8
LAYER1
 62
     7
  6
CONTINUOUS
 10
10.4734
 20
6.3641
  0
VERTEX
  8
LAYER1
 62
     7
  6
CONTINUOUS
 10
10.4740
 20
6.3650
  0
VERTEX
  8
LAYER1
 62
     7
  6
CONTINUOUS
 10
10.4747
 20
6.3660
  0
VERTEX
  8
LAYER1
 62
     7
  6
CONTINUOUS
 10
10.4754
 20
6.3669
  0
VERTEX
  8
LAYER1
 62
     7
  6
CONTINUOUS
 10
10.4762
 20
6.3678
  0
VERTEX
  8
LAYER1
 62
     7
  6
CONTINUOUS
 10
10.4770
 20
6.3686
  0
VERTEX
  8
LAYER1
 62
     7
  6
CONTINUOUS
 10
10.4779
 20
6.3695
  0
VERTEX
  8
LAYER1
 62
     7
  6
CONTINUOUS
 10
10.4788
 20
6.3703
  0
VERTEX
  8
LAYER1
 62
     7
  6
CONTINUOUS
 10
10.4797
 20
6.3711
  0
VERTEX
  8
LAYER1
 62
     7
  6
CONTINUOUS
 10
10.4806
 20
6.3719
  0
VERTEX
  8
LAYER1
 62
     7
  6
CONTINUOUS
 10
10.4815
 20
6.3727
  0
VERTEX
  8
LAYER1
 62
     7
  6
CONTINUOUS
 10
10.4825
 20
6.3735
  0
VERTEX
  8
LAYER1
 62
     7
  6
CONTINUOUS
 10
10.4834
 20
6.3743
  0
VERTEX
  8
LAYER1
 62
     7
  6
CONTINUOUS
 10
10.4845
 20
6.3753
  0
VERTEX
  8
LAYER1
 62
     7
  6
CONTINUOUS
 10
10.4857
 20
6.3763
  0
VERTEX
  8
LAYER1
 62
     7
  6
CONTINUOUS
 10
10.4868
 20
6.3773
  0
VERTEX
  8
LAYER1
 62
     7
  6
CONTINUOUS
 10
10.4879
 20
6.3783
  0
VERTEX
  8
LAYER1
 62
     7
  6
CONTINUOUS
 10
10.4891
 20
6.3792
  0
VERTEX
  8
LAYER1
 62
     7
  6
CONTINUOUS
 10
10.4903
 20
6.3801
  0
VERTEX
  8
LAYER1
 62
     7
  6
CONTINUOUS
 10
10.4915
 20
6.3810
  0
VERTEX
  8
LAYER1
 62
     7
  6
CONTINUOUS
 10
10.4927
 20
6.3819
  0
VERTEX
  8
LAYER1
 62
     7
  6
CONTINUOUS
 10
10.4941
 20
6.3826
  0
VERTEX
  8
LAYER1
 62
     7
  6
CONTINUOUS
 10
10.4955
 20
6.3834
  0
VERTEX
  8
LAYER1
 62
     7
  6
CONTINUOUS
 10
10.4969
 20
6.3840
  0
VERTEX
  8
LAYER1
 62
     7
  6
CONTINUOUS
 10
10.4985
 20
6.3846
  0
VERTEX
  8
LAYER1
 62
     7
  6
CONTINUOUS
 10
10.4999
 20
6.3851
  0
VERTEX
  8
LAYER1
 62
     7
  6
CONTINUOUS
 10
10.5013
 20
6.3854
  0
VERTEX
  8
LAYER1
 62
     7
  6
CONTINUOUS
 10
10.5027
 20
6.3858
  0
VERTEX
  8
LAYER1
 62
     7
  6
CONTINUOUS
 10
10.5042
 20
6.3860
  0
VERTEX
  8
LAYER1
 62
     7
  6
CONTINUOUS
 10
10.5056
 20
6.3862
  0
VERTEX
  8
LAYER1
 62
     7
  6
CONTINUOUS
 10
10.5071
 20
6.3863
  0
VERTEX
  8
LAYER1
 62
     7
  6
CONTINUOUS
 10
10.5084
 20
6.3863
  0
VERTEX
  8
LAYER1
 62
     7
  6
CONTINUOUS
 10
10.5097
 20
6.3862
  0
VERTEX
  8
LAYER1
 62
     7
  6
CONTINUOUS
 10
10.5109
 20
6.3860
  0
VERTEX
  8
LAYER1
 62
     7
  6
CONTINUOUS
 10
10.5120
 20
6.3857
  0
VERTEX
  8
LAYER1
 62
     7
  6
CONTINUOUS
 10
10.5129
 20
6.3853
  0
VERTEX
  8
LAYER1
 62
     7
  6
CONTINUOUS
 10
10.5137
 20
6.3848
  0
SEQEND
  8
LAYER1
  0
CIRCLE
  8
LAYER1
 62
     7
  6
CONTINUOUS
 10
10.8616
 20
6.3278
 40
0.0127
  0
CIRCLE
  8
LAYER1
 62
     7
  6
CONTINUOUS
 10
10.7345
 20
6.3594
 40
0.0261
  0
CIRCLE
  8
LAYER1
 62
     7
  6
CONTINUOUS
 10
10.6912
 20
6.3817
 40
0.0160
  0
CIRCLE
  8
LAYER1
 62
     7
  6
CONTINUOUS
 10
10.5206
 20
6.2176
 40
0.0152
  0
CIRCLE
  8
LAYER1
 62
     7
  6
CONTINUOUS
 10
10.3811
 20
6.2287
 40
0.0230
  0
CIRCLE
  8
LAYER1
 62
     7
  6
CONTINUOUS
 10
10.1960
 20
6.2368
 40
0.0217
  0
POLYLINE
  8
LAYER1
 62
     7
 66
     1
  6
CONTINUOUS
  0
VERTEX
  8
LAYER1
 62
     7
  6
CONTINUOUS
 10
10.9188
 20
6.0263
  0
VERTEX
  8
LAYER1
 62
     7
  6
CONTINUOUS
 10
10.9192
 20
6.0268
  0
VERTEX
  8
LAYER1
 62
     7
  6
CONTINUOUS
 10
10.9198
 20
6.0273
  0
VERTEX
  8
LAYER1
 62
     7
  6
CONTINUOUS
 10
10.9205
 20
6.0278
  0
VERTEX
  8
LAYER1
 62
     7
  6
CONTINUOUS
 10
10.9213
 20
6.0282
  0
VERTEX
  8
LAYER1
 62
     7
  6
CONTINUOUS
 10
10.9221
 20
6.0287
  0
VERTEX
  8
LAYER1
 62
     7
  6
CONTINUOUS
 10
10.9229
 20
6.0291
  0
VERTEX
  8
LAYER1
 62
     7
  6
CONTINUOUS
 10
10.9239
 20
6.0295
  0
VERTEX
  8
LAYER1
 62
     7
  6
CONTINUOUS
 10
10.9248
 20
6.0299
  0
VERTEX
  8
LAYER1
 62
     7
  6
CONTINUOUS
 10
10.9258
 20
6.0303
  0
VERTEX
  8
LAYER1
 62
     7
  6
CONTINUOUS
 10
10.9268
 20
6.0307
  0
VERTEX
  8
LAYER1
 62
     7
  6
CONTINUOUS
 10
10.9278
 20
6.0311
  0
VERTEX
  8
LAYER1
 62
     7
  6
CONTINUOUS
 10
10.9287
 20
6.0315
  0
VERTEX
  8
LAYER1
 62
     7
  6
CONTINUOUS
 10
10.9310
 20
6.0326
  0
VERTEX
  8
LAYER1
 62
     7
  6
CONTINUOUS
 10
10.9332
 20
6.0336
  0
VERTEX
  8
LAYER1
 62
     7
  6
CONTINUOUS
 10
10.9353
 20
6.0347
  0
VERTEX
  8
LAYER1
 62
     7
  6
CONTINUOUS
 10
10.9373
 20
6.0358
  0
VERTEX
  8
LAYER1
 62
     7
  6
CONTINUOUS
 10
10.9393
 20
6.0369
  0
VERTEX
  8
LAYER1
 62
     7
  6
CONTINUOUS
 10
10.9412
 20
6.0379
  0
VERTEX
  8
LAYER1
 62
     7
  6
CONTINUOUS
 10
10.9432
 20
6.0388
  0
VERTEX
  8
LAYER1
 62
     7
  6
CONTINUOUS
 10
10.9452
 20
6.0397
  0
VERTEX
  8
LAYER1
 62
     7
  6
CONTINUOUS
 10
10.9472
 20
6.0405
  0
VERTEX
  8
LAYER1
 62
     7
  6
CONTINUOUS
 10
10.9493
 20
6.0411
  0
VERTEX
  8
LAYER1
 62
     7
  6
CONTINUOUS
 10
10.9515
 20
6.0416
  0
VERTEX
  8
LAYER1
 62
     7
  6
CONTINUOUS
 10
10.9537
 20
6.0420
  0
VERTEX
  8
LAYER1
 62
     7
  6
CONTINUOUS
 10
10.9560
 20
6.0422
  0
VERTEX
  8
LAYER1
 62
     7
  6
CONTINUOUS
 10
10.9583
 20
6.0422
  0
VERTEX
  8
LAYER1
 62
     7
  6
CONTINUOUS
 10
10.9607
 20
6.0422
  0
VERTEX
  8
LAYER1
 62
     7
  6
CONTINUOUS
 10
10.9631
 20
6.0422
  0
VERTEX
  8
LAYER1
 62
     7
  6
CONTINUOUS
 10
10.9654
 20
6.0422
  0
VERTEX
  8
LAYER1
 62
     7
  6
CONTINUOUS
 10
10.9678
 20
6.0424
  0
VERTEX
  8
LAYER1
 62
     7
  6
CONTINUOUS
 10
10.9700
 20
6.0426
  0
VERTEX
  8
LAYER1
 62
     7
  6
CONTINUOUS
 10
10.9721
 20
6.0430
  0
VERTEX
  8
LAYER1
 62
     7
  6
CONTINUOUS
 10
10.9741
 20
6.0437
  0
VERTEX
  8
LAYER1
 62
     7
  6
CONTINUOUS
 10
10.9759
 20
6.0446
  0
VERTEX
  8
LAYER1
 62
     7
  6
CONTINUOUS
 10
10.9775
 20
6.0458
  0
VERTEX
  8
LAYER1
 62
     7
  6
CONTINUOUS
 10
10.9788
 20
6.0474
  0
VERTEX
  8
LAYER1
 62
     7
  6
CONTINUOUS
 10
10.9793
 20
6.0483
  0
VERTEX
  8
LAYER1
 62
     7
  6
CONTINUOUS
 10
10.9797
 20
6.0492
  0
VERTEX
  8
LAYER1
 62
     7
  6
CONTINUOUS
 10
10.9802
 20
6.0501
  0
VERTEX
  8
LAYER1
 62
     7
  6
CONTINUOUS
 10
10.9806
 20
6.0511
  0
VERTEX
  8
LAYER1
 62
     7
  6
CONTINUOUS
 10
10.9809
 20
6.0521
  0
VERTEX
  8
LAYER1
 62
     7
  6
CONTINUOUS
 10
10.9813
 20
6.0530
  0
VERTEX
  8
LAYER1
 62
     7
  6
CONTINUOUS
 10
10.9816
 20
6.0540
  0
VERTEX
  8
LAYER1
 62
     7
  6
CONTINUOUS
 10
10.9820
 20
6.0549
  0
VERTEX
  8
LAYER1
 62
     7
  6
CONTINUOUS
 10
10.9824
 20
6.0557
  0
VERTEX
  8
LAYER1
 62
     7
  6
CONTINUOUS
 10
10.9828
 20
6.0564
  0
VERTEX
  8
LAYER1
 62
     7
  6
CONTINUOUS
 10
10.9832
 20
6.0571
  0
VERTEX
  8
LAYER1
 62
     7
  6
CONTINUOUS
 10
10.9836
 20
6.0576
  0
VERTEX
  8
LAYER1
 62
     7
  6
CONTINUOUS
 10
10.9846
 20
6.0582
  0
VERTEX
  8
LAYER1
 62
     7
  6
CONTINUOUS
 10
10.9858
 20
6.0583
  0
VERTEX
  8
LAYER1
 62
     7
  6
CONTINUOUS
 10
10.9870
 20
6.0581
  0
VERTEX
  8
LAYER1
 62
     7
  6
CONTINUOUS
 10
10.9883
 20
6.0574
  0
VERTEX
  8
LAYER1
 62
     7
  6
CONTINUOUS
 10
10.9897
 20
6.0564
  0
VERTEX
  8
LAYER1
 62
     7
  6
CONTINUOUS
 10
10.9911
 20
6.0550
  0
VERTEX
  8
LAYER1
 62
     7
  6
CONTINUOUS
 10
10.9926
 20
6.0534
  0
VERTEX
  8
LAYER1
 62
     7
  6
CONTINUOUS
 10
10.9940
 20
6.0516
  0
VERTEX
  8
LAYER1
 62
     7
  6
CONTINUOUS
 10
10.9954
 20
6.0496
  0
VERTEX
  8
LAYER1
 62
     7
  6
CONTINUOUS
 10
10.9967
 20
6.0474
  0
VERTEX
  8
LAYER1
 62
     7
  6
CONTINUOUS
 10
10.9979
 20
6.0451
  0
VERTEX
  8
LAYER1
 62
     7
  6
CONTINUOUS
 10
10.9990
 20
6.0427
  0
VERTEX
  8
LAYER1
 62
     7
  6
CONTINUOUS
 10
11.0003
 20
6.0392
  0
VERTEX
  8
LAYER1
 62
     7
  6
CONTINUOUS
 10
11.0014
 20
6.0357
  0
VERTEX
  8
LAYER1
 62
     7
  6
CONTINUOUS
 10
11.0022
 20
6.0323
  0
VERTEX
  8
LAYER1
 62
     7
  6
CONTINUOUS
 10
11.0029
 20
6.0289
  0
VERTEX
  8
LAYER1
 62
     7
  6
CONTINUOUS
 10
11.0033
 20
6.0257
  0
VERTEX
  8
LAYER1
 62
     7
  6
CONTINUOUS
 10
11.0037
 20
6.0227
  0
VERTEX
  8
LAYER1
 62
     7
  6
CONTINUOUS
 10
11.0039
 20
6.0200
  0
VERTEX
  8
LAYER1
 62
     7
  6
CONTINUOUS
 10
11.0041
 20
6.0176
  0
VERTEX
  8
LAYER1
 62
     7
  6
CONTINUOUS
 10
11.0042
 20
6.0156
  0
VERTEX
  8
LAYER1
 62
     7
  6
CONTINUOUS
 10
11.0042
 20
6.0141
  0
VERTEX
  8
LAYER1
 62
     7
  6
CONTINUOUS
 10
11.0043
 20
6.0131
  0
VERTEX
  8
LAYER1
 62
     7
  6
CONTINUOUS
 10
11.0045
 20
6.0126
  0
VERTEX
  8
LAYER1
 62
     7
  6
CONTINUOUS
 10
11.0045
 20
6.0126
  0
VERTEX
  8
LAYER1
 62
     7
  6
CONTINUOUS
 10
11.0046
 20
6.0126
  0
VERTEX
  8
LAYER1
 62
     7
  6
CONTINUOUS
 10
11.0046
 20
6.0126
  0
VERTEX
  8
LAYER1
 62
     7
  6
CONTINUOUS
 10
11.0046
 20
6.0127
  0
VERTEX
  8
LAYER1
 62
     7
  6
CONTINUOUS
 10
11.0046
 20
6.0127
  0
VERTEX
  8
LAYER1
 62
     7
  6
CONTINUOUS
 10
11.0046
 20
6.0127
  0
VERTEX
  8
LAYER1
 62
     7
  6
CONTINUOUS
 10
11.0046
 20
6.0127
  0
VERTEX
  8
LAYER1
 62
     7
  6
CONTINUOUS
 10
11.0046
 20
6.0127
  0
VERTEX
  8
LAYER1
 62
     7
  6
CONTINUOUS
 10
11.0046
 20
6.0127
  0
VERTEX
  8
LAYER1
 62
     7
  6
CONTINUOUS
 10
11.0046
 20
6.0127
  0
VERTEX
  8
LAYER1
 62
     7
  6
CONTINUOUS
 10
11.0046
 20
6.0127
  0
VERTEX
  8
LAYER1
 62
     7
  6
CONTINUOUS
 10
11.0045
 20
6.0126
  0
VERTEX
  8
LAYER1
 62
     7
  6
CONTINUOUS
 10
11.0042
 20
6.0124
  0
VERTEX
  8
LAYER1
 62
     7
  6
CONTINUOUS
 10
11.0038
 20
6.0120
  0
VERTEX
  8
LAYER1
 62
     7
  6
CONTINUOUS
 10
11.0032
 20
6.0114
  0
VERTEX
  8
LAYER1
 62
     7
  6
CONTINUOUS
 10
11.0025
 20
6.0107
  0
VERTEX
  8
LAYER1
 62
     7
  6
CONTINUOUS
 10
11.0017
 20
6.0098
  0
VERTEX
  8
LAYER1
 62
     7
  6
CONTINUOUS
 10
11.0008
 20
6.0089
  0
VERTEX
  8
LAYER1
 62
     7
  6
CONTINUOUS
 10
10.9998
 20
6.0079
  0
VERTEX
  8
LAYER1
 62
     7
  6
CONTINUOUS
 10
10.9988
 20
6.0068
  0
VERTEX
  8
LAYER1
 62
     7
  6
CONTINUOUS
 10
10.9978
 20
6.0057
  0
VERTEX
  8
LAYER1
 62
     7
  6
CONTINUOUS
 10
10.9967
 20
6.0046
  0
VERTEX
  8
LAYER1
 62
     7
  6
CONTINUOUS
 10
10.9957
 20
6.0035
  0
VERTEX
  8
LAYER1
 62
     7
  6
CONTINUOUS
 10
10.9946
 20
6.0024
  0
VERTEX
  8
LAYER1
 62
     7
  6
CONTINUOUS
 10
10.9929
 20
6.0006
  0
VERTEX
  8
LAYER1
 62
     7
  6
CONTINUOUS
 10
10.9912
 20
5.9989
  0
VERTEX
  8
LAYER1
 62
     7
  6
CONTINUOUS
 10
10.9896
 20
5.9973
  0
VERTEX
  8
LAYER1
 62
     7
  6
CONTINUOUS
 10
10.9881
 20
5.9958
  0
VERTEX
  8
LAYER1
 62
     7
  6
CONTINUOUS
 10
10.9865
 20
5.9945
  0
VERTEX
  8
LAYER1
 62
     7
  6
CONTINUOUS
 10
10.9850
 20
5.9932
  0
VERTEX
  8
LAYER1
 62
     7
  6
CONTINUOUS
 10
10.9835
 20
5.9920
  0
VERTEX
  8
LAYER1
 62
     7
  6
CONTINUOUS
 10
10.9819
 20
5.9909
  0
VERTEX
  8
LAYER1
 62
     7
  6
CONTINUOUS
 10
10.9803
 20
5.9898
  0
VERTEX
  8
LAYER1
 62
     7
  6
CONTINUOUS
 10
10.9785
 20
5.9888
  0
VERTEX
  8
LAYER1
 62
     7
  6
CONTINUOUS
 10
10.9767
 20
5.9879
  0
VERTEX
  8
LAYER1
 62
     7
  6
CONTINUOUS
 10
10.9747
 20
5.9870
  0
VERTEX
  8
LAYER1
 62
     7
  6
CONTINUOUS
 10
10.9726
 20
5.9862
  0
VERTEX
  8
LAYER1
 62
     7
  6
CONTINUOUS
 10
10.9704
 20
5.9854
  0
VERTEX
  8
LAYER1
 62
     7
  6
CONTINUOUS
 10
10.9681
 20
5.9847
  0
VERTEX
  8
LAYER1
 62
     7
  6
CONTINUOUS
 10
10.9658
 20
5.9841
  0
VERTEX
  8
LAYER1
 62
     7
  6
CONTINUOUS
 10
10.9634
 20
5.9836
  0
VERTEX
  8
LAYER1
 62
     7
  6
CONTINUOUS
 10
10.9611
 20
5.9834
  0
VERTEX
  8
LAYER1
 62
     7
  6
CONTINUOUS
 10
10.9588
 20
5.9833
  0
VERTEX
  8
LAYER1
 62
     7
  6
CONTINUOUS
 10
10.9566
 20
5.9834
  0
VERTEX
  8
LAYER1
 62
     7
  6
CONTINUOUS
 10
10.9546
 20
5.9838
  0
VERTEX
  8
LAYER1
 62
     7
  6
CONTINUOUS
 10
10.9527
 20
5.9844
  0
VERTEX
  8
LAYER1
 62
     7
  6
CONTINUOUS
 10
10.9510
 20
5.9853
  0
VERTEX
  8
LAYER1
 62
     7
  6
CONTINUOUS
 10
10.9496
 20
5.9866
  0
VERTEX
  8
LAYER1
 62
     7
  6
CONTINUOUS
 10
10.9490
 20
5.9873
  0
VERTEX
  8
LAYER1
 62
     7
  6
CONTINUOUS
 10
10.9485
 20
5.9880
  0
VERTEX
  8
LAYER1
 62
     7
  6
CONTINUOUS
 10
10.9481
 20
5.9888
  0
VERTEX
  8
LAYER1
 62
     7
  6
CONTINUOUS
 10
10.9476
 20
5.9896
  0
VERTEX
  8
LAYER1
 62
     7
  6
CONTINUOUS
 10
10.9472
 20
5.9905
  0
VERTEX
  8
LAYER1
 62
     7
  6
CONTINUOUS
 10
10.9468
 20
5.9913
  0
VERTEX
  8
LAYER1
 62
     7
  6
CONTINUOUS
 10
10.9464
 20
5.9922
  0
VERTEX
  8
LAYER1
 62
     7
  6
CONTINUOUS
 10
10.9460
 20
5.9931
  0
VERTEX
  8
LAYER1
 62
     7
  6
CONTINUOUS
 10
10.9456
 20
5.9940
  0
VERTEX
  8
LAYER1
 62
     7
  6
CONTINUOUS
 10
10.9453
 20
5.9949
  0
VERTEX
  8
LAYER1
 62
     7
  6
CONTINUOUS
 10
10.9448
 20
5.9957
  0
VERTEX
  8
LAYER1
 62
     7
  6
CONTINUOUS
 10
10.9444
 20
5.9966
  0
VERTEX
  8
LAYER1
 62
     7
  6
CONTINUOUS
 10
10.9438
 20
5.9975
  0
VERTEX
  8
LAYER1
 62
     7
  6
CONTINUOUS
 10
10.9432
 20
5.9985
  0
VERTEX
  8
LAYER1
 62
     7
  6
CONTINUOUS
 10
10.9425
 20
5.9993
  0
VERTEX
  8
LAYER1
 62
     7
  6
CONTINUOUS
 10
10.9417
 20
6.0002
  0
VERTEX
  8
LAYER1
 62
     7
  6
CONTINUOUS
 10
10.9409
 20
6.0010
  0
VERTEX
  8
LAYER1
 62
     7
  6
CONTINUOUS
 10
10.9401
 20
6.0018
  0
VERTEX
  8
LAYER1
 62
     7
  6
CONTINUOUS
 10
10.9392
 20
6.0025
  0
VERTEX
  8
LAYER1
 62
     7
  6
CONTINUOUS
 10
10.9383
 20
6.0033
  0
VERTEX
  8
LAYER1
 62
     7
  6
CONTINUOUS
 10
10.9373
 20
6.0041
  0
VERTEX
  8
LAYER1
 62
     7
  6
CONTINUOUS
 10
10.9363
 20
6.0048
  0
VERTEX
  8
LAYER1
 62
     7
  6
CONTINUOUS
 10
10.9353
 20
6.0056
  0
VERTEX
  8
LAYER1
 62
     7
  6
CONTINUOUS
 10
10.9342
 20
6.0065
  0
VERTEX
  8
LAYER1
 62
     7
  6
CONTINUOUS
 10
10.9322
 20
6.0080
  0
VERTEX
  8
LAYER1
 62
     7
  6
CONTINUOUS
 10
10.9301
 20
6.0097
  0
VERTEX
  8
LAYER1
 62
     7
  6
CONTINUOUS
 10
10.9280
 20
6.0114
  0
VERTEX
  8
LAYER1
 62
     7
  6
CONTINUOUS
 10
10.9260
 20
6.0131
  0
VERTEX
  8
LAYER1
 62
     7
  6
CONTINUOUS
 10
10.9241
 20
6.0149
  0
VERTEX
  8
LAYER1
 62
     7
  6
CONTINUOUS
 10
10.9223
 20
6.0168
  0
VERTEX
  8
LAYER1
 62
     7
  6
CONTINUOUS
 10
10.9208
 20
6.0185
  0
VERTEX
  8
LAYER1
 62
     7
  6
CONTINUOUS
 10
10.9196
 20
6.0203
  0
VERTEX
  8
LAYER1
 62
     7
  6
CONTINUOUS
 10
10.9187
 20
6.0219
  0
VERTEX
  8
LAYER1
 62
     7
  6
CONTINUOUS
 10
10.9182
 20
6.0235
  0
VERTEX
  8
LAYER1
 62
     7
  6
CONTINUOUS
 10
10.9182
 20
6.0250
  0
VERTEX
  8
LAYER1
 62
     7
  6
CONTINUOUS
 10
10.9188
 20
6.0263
  0
SEQEND
  8
LAYER1
  0
CIRCLE
  8
LAYER1
 62
     7
  6
CONTINUOUS
 10
10.9557
 20
5.9213
 40
0.0151
  0
CIRCLE
  8
LAYER1
 62
     7
  6
CONTINUOUS
 10
10.8842
 20
5.6812
 40
0.0075
  0
CIRCLE
  8
LAYER1
 62
     7
  6
CONTINUOUS
 10
10.9380
 20
5.6167
 40
0.0328
  0
CIRCLE
  8
LAYER1
 62
     7
  6
CONTINUOUS
 10
10.9211
 20
5.5762
 40
0.0161
  0
CIRCLE
  8
LAYER1
 62
     7
  6
CONTINUOUS
 10
10.7880
 20
5.5614
 40
0.0153
  0
CIRCLE
  8
LAYER1
 62
     7
  6
CONTINUOUS
 10
10.5635
 20
5.7589
 40
0.0253
  0
CIRCLE
  8
LAYER1
 62
     7
  6
CONTINUOUS
 10
10.6505
 20
5.8207
 40
0.0151
  0
CIRCLE
  8
LAYER1
 62
     7
  6
CONTINUOUS
 10
10.5524
 20
5.9725
 40
0.0176
  0
CIRCLE
  8
LAYER1
 62
     7
  6
CONTINUOUS
 10
10.5180
 20
5.9242
 40
0.0151
  0
CIRCLE
  8
LAYER1
 62
     7
  6
CONTINUOUS
 10
10.3603
 20
6.0298
 40
0.0183
  0
CIRCLE
  8
LAYER1
 62
     7
  6
CONTINUOUS
 10
10.3595
 20
5.6198
 40
0.0263
  0
CIRCLE
  8
LAYER1
 62
     7
  6
CONTINUOUS
 10
10.2195
 20
5.5697
 40
0.0216
  0
CIRCLE
  8
LAYER1
 62
     7
  6
CONTINUOUS
 10
10.1782
 20
5.6294
 40
0.0287
  0
CIRCLE
  8
LAYER1
 62
     7
  6
CONTINUOUS
 10
10.1240
 20
5.5606
 40
0.0104
  0
POLYLINE
  8
LAYER1
 62
     7
 66
     1
  6
CONTINUOUS
  0
VERTEX
  8
LAYER1
 62
     7
  6
CONTINUOUS
 10
10.3541
 20
5.7958
  0
VERTEX
  8
LAYER1
 62
     7
  6
CONTINUOUS
 10
10.3527
 20
5.7938
  0
VERTEX
  8
LAYER1
 62
     7
  6
CONTINUOUS
 10
10.3513
 20
5.7918
  0
VERTEX
  8
LAYER1
 62
     7
  6
CONTINUOUS
 10
10.3500
 20
5.7897
  0
VERTEX
  8
LAYER1
 62
     7
  6
CONTINUOUS
 10
10.3487
 20
5.7876
  0
VERTEX
  8
LAYER1
 62
     7
  6
CONTINUOUS
 10
10.3474
 20
5.7855
  0
VERTEX
  8
LAYER1
 62
     7
  6
CONTINUOUS
 10
10.3462
 20
5.7835
  0
VERTEX
  8
LAYER1
 62
     7
  6
CONTINUOUS
 10
10.3450
 20
5.7816
  0
VERTEX
  8
LAYER1
 62
     7
  6
CONTINUOUS
 10
10.3438
 20
5.7799
  0
VERTEX
  8
LAYER1
 62
     7
  6
CONTINUOUS
 10
10.3427
 20
5.7784
  0
VERTEX
  8
LAYER1
 62
     7
  6
CONTINUOUS
 10
10.3415
 20
5.7771
  0
VERTEX
  8
LAYER1
 62
     7
  6
CONTINUOUS
 10
10.3404
 20
5.7761
  0
VERTEX
  8
LAYER1
 62
     7
  6
CONTINUOUS
 10
10.3393
 20
5.7754
  0
VERTEX
  8
LAYER1
 62
     7
  6
CONTINUOUS
 10
10.3372
 20
5.7751
  0
VERTEX
  8
LAYER1
 62
     7
  6
CONTINUOUS
 10
10.3351
 20
5.7761
  0
VERTEX
  8
LAYER1
 62
     7
  6
CONTINUOUS
 10
10.3329
 20
5.7782
  0
VERTEX
  8
LAYER1
 62
     7
  6
CONTINUOUS
 10
10.3308
 20
5.7813
  0
VERTEX
  8
LAYER1
 62
     7
  6
CONTINUOUS
 10
10.3285
 20
5.7850
  0
VERTEX
  8
LAYER1
 62
     7
  6
CONTINUOUS
 10
10.3262
 20
5.7893
  0
VERTEX
  8
LAYER1
 62
     7
  6
CONTINUOUS
 10
10.3237
 20
5.7939
  0
VERTEX
  8
LAYER1
 62
     7
  6
CONTINUOUS
 10
10.3211
 20
5.7986
  0
VERTEX
  8
LAYER1
 62
     7
  6
CONTINUOUS
 10
10.3183
 20
5.8033
  0
VERTEX
  8
LAYER1
 62
     7
  6
CONTINUOUS
 10
10.3153
 20
5.8078
  0
VERTEX
  8
LAYER1
 62
     7
  6
CONTINUOUS
 10
10.3120
 20
5.8118
  0
VERTEX
  8
LAYER1
 62
     7
  6
CONTINUOUS
 10
10.3085
 20
5.8151
  0
VERTEX
  8
LAYER1
 62
     7
  6
CONTINUOUS
 10
10.3073
 20
5.8160
  0
VERTEX
  8
LAYER1
 62
     7
  6
CONTINUOUS
 10
10.3061
 20
5.8169
  0
VERTEX
  8
LAYER1
 62
     7
  6
CONTINUOUS
 10
10.3049
 20
5.8176
  0
VERTEX
  8
LAYER1
 62
     7
  6
CONTINUOUS
 10
10.3037
 20
5.8182
  0
VERTEX
  8
LAYER1
 62
     7
  6
CONTINUOUS
 10
10.3024
 20
5.8188
  0
VERTEX
  8
LAYER1
 62
     7
  6
CONTINUOUS
 10
10.3011
 20
5.8193
  0
VERTEX
  8
LAYER1
 62
     7
  6
CONTINUOUS
 10
10.2998
 20
5.8196
  0
VERTEX
  8
LAYER1
 62
     7
  6
CONTINUOUS
 10
10.2985
 20
5.8199
  0
VERTEX
  8
LAYER1
 62
     7
  6
CONTINUOUS
 10
10.2972
 20
5.8201
  0
VERTEX
  8
LAYER1
 62
     7
  6
CONTINUOUS
 10
10.2959
 20
5.8201
  0
VERTEX
  8
LAYER1
 62
     7
  6
CONTINUOUS
 10
10.2946
 20
5.8201
  0
VERTEX
  8
LAYER1
 62
     7
  6
CONTINUOUS
 10
10.2933
 20
5.8199
  0
VERTEX
  8
LAYER1
 62
     7
  6
CONTINUOUS
 10
10.2921
 20
5.8197
  0
VERTEX
  8
LAYER1
 62
     7
  6
CONTINUOUS
 10
10.2908
 20
5.8193
  0
VERTEX
  8
LAYER1
 62
     7
  6
CONTINUOUS
 10
10.2895
 20
5.8189
  0
VERTEX
  8
LAYER1
 62
     7
  6
CONTINUOUS
 10
10.2882
 20
5.8184
  0
VERTEX
  8
LAYER1
 62
     7
  6
CONTINUOUS
 10
10.2870
 20
5.8179
  0
VERTEX
  8
LAYER1
 62
     7
  6
CONTINUOUS
 10
10.2857
 20
5.8174
  0
VERTEX
  8
LAYER1
 62
     7
  6
CONTINUOUS
 10
10.2845
 20
5.8168
  0
VERTEX
  8
LAYER1
 62
     7
  6
CONTINUOUS
 10
10.2832
 20
5.8163
  0
VERTEX
  8
LAYER1
 62
     7
  6
CONTINUOUS
 10
10.2820
 20
5.8158
  0
VERTEX
  8
LAYER1
 62
     7
  6
CONTINUOUS
 10
10.2808
 20
5.8153
  0
VERTEX
  8
LAYER1
 62
     7
  6
CONTINUOUS
 10
10.2795
 20
5.8149
  0
VERTEX
  8
LAYER1
 62
     7
  6
CONTINUOUS
 10
10.2783
 20
5.8146
  0
VERTEX
  8
LAYER1
 62
     7
  6
CONTINUOUS
 10
10.2751
 20
5.8143
  0
VERTEX
  8
LAYER1
 62
     7
  6
CONTINUOUS
 10
10.2719
 20
5.8147
  0
VERTEX
  8
LAYER1
 62
     7
  6
CONTINUOUS
 10
10.2688
 20
5.8157
  0
VERTEX
  8
LAYER1
 62
     7
  6
CONTINUOUS
 10
10.2657
 20
5.8172
  0
VERTEX
  8
LAYER1
 62
     7
  6
CONTINUOUS
 10
10.2627
 20
5.8191
  0
VERTEX
  8
LAYER1
 62
     7
  6
CONTINUOUS
 10
10.2597
 20
5.8215
  0
VERTEX
  8
LAYER1
 62
     7
  6
CONTINUOUS
 10
10.2568
 20
5.8241
  0
VERTEX
  8
LAYER1
 62
     7
  6
CONTINUOUS
 10
10.2539
 20
5.8270
  0
VERTEX
  8
LAYER1
 62
     7
  6
CONTINUOUS
 10
10.2510
 20
5.8300
  0
VERTEX
  8
LAYER1
 62
     7
  6
CONTINUOUS
 10
10.2482
 20
5.8331
  0
VERTEX
  8
LAYER1
 62
     7
  6
CONTINUOUS
 10
10.2455
 20
5.8362
  0
VERTEX
  8
LAYER1
 62
     7
  6
CONTINUOUS
 10
10.2427
 20
5.8392
  0
VERTEX
  8
LAYER1
 62
     7
  6
CONTINUOUS
 10
10.2407
 20
5.8414
  0
VERTEX
  8
LAYER1
 62
     7
  6
CONTINUOUS
 10
10.2387
 20
5.8435
  0
VERTEX
  8
LAYER1
 62
     7
  6
CONTINUOUS
 10
10.2368
 20
5.8455
  0
VERTEX
  8
LAYER1
 62
     7
  6
CONTINUOUS
 10
10.2349
 20
5.8475
  0
VERTEX
  8
LAYER1
 62
     7
  6
CONTINUOUS
 10
10.2330
 20
5.8495
  0
VERTEX
  8
LAYER1
 62
     7
  6
CONTINUOUS
 10
10.2312
 20
5.8515
  0
VERTEX
  8
LAYER1
 62
     7
  6
CONTINUOUS
 10
10.2295
 20
5.8535
  0
VERTEX
  8
LAYER1
 62
     7
  6
CONTINUOUS
 10
10.2279
 20
5.8555
  0
VERTEX
  8
LAYER1
 62
     7
  6
CONTINUOUS
 10
10.2263
 20
5.8575
  0
VERTEX
  8
LAYER1
 62
     7
  6
CONTINUOUS
 10
10.2248
 20
5.8596
  0
VERTEX
  8
LAYER1
 62
     7
  6
CONTINUOUS
 10
10.2235
 20
5.8618
  0
VERTEX
  8
LAYER1
 62
     7
  6
CONTINUOUS
 10
10.2222
 20
5.8640
  0
VERTEX
  8
LAYER1
 62
     7
  6
CONTINUOUS
 10
10.2211
 20
5.8663
  0
VERTEX
  8
LAYER1
 62
     7
  6
CONTINUOUS
 10
10.2201
 20
5.8686
  0
VERTEX
  8
LAYER1
 62
     7
  6
CONTINUOUS
 10
10.2193
 20
5.8709
  0
VERTEX
  8
LAYER1
 62
     7
  6
CONTINUOUS
 10
10.2185
 20
5.8734
  0
VERTEX
  8
LAYER1
 62
     7
  6
CONTINUOUS
 10
10.2179
 20
5.8759
  0
VERTEX
  8
LAYER1
 62
     7
  6
CONTINUOUS
 10
10.2173
 20
5.8784
  0
VERTEX
  8
LAYER1
 62
     7
  6
CONTINUOUS
 10
10.2169
 20
5.8810
  0
VERTEX
  8
LAYER1
 62
     7
  6
CONTINUOUS
 10
10.2166
 20
5.8836
  0
VERTEX
  8
LAYER1
 62
     7
  6
CONTINUOUS
 10
10.2165
 20
5.8862
  0
VERTEX
  8
LAYER1
 62
     7
  6
CONTINUOUS
 10
10.2164
 20
5.8889
  0
VERTEX
  8
LAYER1
 62
     7
  6
CONTINUOUS
 10
10.2165
 20
5.8915
  0
VERTEX
  8
LAYER1
 62
     7
  6
CONTINUOUS
 10
10.2167
 20
5.8941
  0
VERTEX
  8
LAYER1
 62
     7
  6
CONTINUOUS
 10
10.2169
 20
5.8964
  0
VERTEX
  8
LAYER1
 62
     7
  6
CONTINUOUS
 10
10.2173
 20
5.8988
  0
VERTEX
  8
LAYER1
 62
     7
  6
CONTINUOUS
 10
10.2178
 20
5.9010
  0
VERTEX
  8
LAYER1
 62
     7
  6
CONTINUOUS
 10
10.2184
 20
5.9033
  0
VERTEX
  8
LAYER1
 62
     7
  6
CONTINUOUS
 10
10.2190
 20
5.9055
  0
VERTEX
  8
LAYER1
 62
     7
  6
CONTINUOUS
 10
10.2198
 20
5.9077
  0
VERTEX
  8
LAYER1
 62
     7
  6
CONTINUOUS
 10
10.2206
 20
5.9098
  0
VERTEX
  8
LAYER1
 62
     7
  6
CONTINUOUS
 10
10.2216
 20
5.9119
  0
VERTEX
  8
LAYER1
 62
     7
  6
CONTINUOUS
 10
10.2226
 20
5.9139
  0
VERTEX
  8
LAYER1
 62
     7
  6
CONTINUOUS
 10
10.2238
 20
5.9158
  0
VERTEX
  8
LAYER1
 62
     7
  6
CONTINUOUS
 10
10.2250
 20
5.9177
  0
VERTEX
  8
LAYER1
 62
     7
  6
CONTINUOUS
 10
10.2263
 20
5.9194
  0
VERTEX
  8
LAYER1
 62
     7
  6
CONTINUOUS
 10
10.2285
 20
5.9219
  0
VERTEX
  8
LAYER1
 62
     7
  6
CONTINUOUS
 10
10.2308
 20
5.9243
  0
VERTEX
  8
LAYER1
 62
     7
  6
CONTINUOUS
 10
10.2334
 20
5.9264
  0
VERTEX
  8
LAYER1
 62
     7
  6
CONTINUOUS
 10
10.2360
 20
5.9284
  0
VERTEX
  8
LAYER1
 62
     7
  6
CONTINUOUS
 10
10.2389
 20
5.9303
  0
VERTEX
  8
LAYER1
 62
     7
  6
CONTINUOUS
 10
10.2418
 20
5.9320
  0
VERTEX
  8
LAYER1
 62
     7
  6
CONTINUOUS
 10
10.2449
 20
5.9336
  0
VERTEX
  8
LAYER1
 62
     7
  6
CONTINUOUS
 10
10.2480
 20
5.9350
  0
VERTEX
  8
LAYER1
 62
     7
  6
CONTINUOUS
 10
10.2513
 20
5.9364
  0
VERTEX
  8
LAYER1
 62
     7
  6
CONTINUOUS
 10
10.2545
 20
5.9377
  0
VERTEX
  8
LAYER1
 62
     7
  6
CONTINUOUS
 10
10.2579
 20
5.9390
  0
VERTEX
  8
LAYER1
 62
     7
  6
CONTINUOUS
 10
10.2612
 20
5.9401
  0
VERTEX
  8
LAYER1
 62
     7
  6
CONTINUOUS
 10
10.2637
 20
5.9410
  0
VERTEX
  8
LAYER1
 62
     7
  6
CONTINUOUS
 10
10.2663
 20
5.9418
  0
VERTEX
  8
LAYER1
 62
     7
  6
CONTINUOUS
 10
10.2688
 20
5.9425
  0
VERTEX
  8
LAYER1
 62
     7
  6
CONTINUOUS
 10
10.2713
 20
5.9432
  0
VERTEX
  8
LAYER1
 62
     7
  6
CONTINUOUS
 10
10.2738
 20
5.9439
  0
VERTEX
  8
LAYER1
 62
     7
  6
CONTINUOUS
 10
10.2764
 20
5.9444
  0
VERTEX
  8
LAYER1
 62
     7
  6
CONTINUOUS
 10
10.2789
 20
5.9449
  0
VERTEX
  8
LAYER1
 62
     7
  6
CONTINUOUS
 10
10.2814
 20
5.9453
  0
VERTEX
  8
LAYER1
 62
     7
  6
CONTINUOUS
 10
10.2839
 20
5.9456
  0
VERTEX
  8
LAYER1
 62
     7
  6
CONTINUOUS
 10
10.2864
 20
5.9457
  0
VERTEX
  8
LAYER1
 62
     7
  6
CONTINUOUS
 10
10.2888
 20
5.9458
  0
VERTEX
  8
LAYER1
 62
     7
  6
CONTINUOUS
 10
10.2913
 20
5.9457
  0
VERTEX
  8
LAYER1
 62
     7
  6
CONTINUOUS
 10
10.2938
 20
5.9454
  0
VERTEX
  8
LAYER1
 62
     7
  6
CONTINUOUS
 10
10.2963
 20
5.9450
  0
VERTEX
  8
LAYER1
 62
     7
  6
CONTINUOUS
 10
10.2989
 20
5.9445
  0
VERTEX
  8
LAYER1
 62
     7
  6
CONTINUOUS
 10
10.3014
 20
5.9438
  0
VERTEX
  8
LAYER1
 62
     7
  6
CONTINUOUS
 10
10.3039
 20
5.9431
  0
VERTEX
  8
LAYER1
 62
     7
  6
CONTINUOUS
 10
10.3064
 20
5.9422
  0
VERTEX
  8
LAYER1
 62
     7
  6
CONTINUOUS
 10
10.3089
 20
5.9413
  0
VERTEX
  8
LAYER1
 62
     7
  6
CONTINUOUS
 10
10.3114
 20
5.9403
  0
VERTEX
  8
LAYER1
 62
     7
  6
CONTINUOUS
 10
10.3139
 20
5.9393
  0
VERTEX
  8
LAYER1
 62
     7
  6
CONTINUOUS
 10
10.3165
 20
5.9382
  0
VERTEX
  8
LAYER1
 62
     7
  6
CONTINUOUS
 10
10.3190
 20
5.9372
  0
VERTEX
  8
LAYER1
 62
     7
  6
CONTINUOUS
 10
10.3216
 20
5.9361
  0
VERTEX
  8
LAYER1
 62
     7
  6
CONTINUOUS
 10
10.3261
 20
5.9342
  0
VERTEX
  8
LAYER1
 62
     7
  6
CONTINUOUS
 10
10.3307
 20
5.9324
  0
VERTEX
  8
LAYER1
 62
     7
  6
CONTINUOUS
 10
10.3352
 20
5.9305
  0
VERTEX
  8
LAYER1
 62
     7
  6
CONTINUOUS
 10
10.3397
 20
5.9286
  0
VERTEX
  8
LAYER1
 62
     7
  6
CONTINUOUS
 10
10.3440
 20
5.9265
  0
VERTEX
  8
LAYER1
 62
     7
  6
CONTINUOUS
 10
10.3482
 20
5.9243
  0
VERTEX
  8
LAYER1
 62
     7
  6
CONTINUOUS
 10
10.3522
 20
5.9220
  0
VERTEX
  8
LAYER1
 62
     7
  6
CONTINUOUS
 10
10.3559
 20
5.9194
  0
VERTEX
  8
LAYER1
 62
     7
  6
CONTINUOUS
 10
10.3594
 20
5.9167
  0
VERTEX
  8
LAYER1
 62
     7
  6
CONTINUOUS
 10
10.3625
 20
5.9136
  0
VERTEX
  8
LAYER1
 62
     7
  6
CONTINUOUS
 10
10.3651
 20
5.9103
  0
VERTEX
  8
LAYER1
 62
     7
  6
CONTINUOUS
 10
10.3674
 20
5.9067
  0
VERTEX
  8
LAYER1
 62
     7
  6
CONTINUOUS
 10
10.3683
 20
5.9048
  0
VERTEX
  8
LAYER1
 62
     7
  6
CONTINUOUS
 10
10.3690
 20
5.9029
  0
VERTEX
  8
LAYER1
 62
     7
  6
CONTINUOUS
 10
10.3697
 20
5.9009
  0
VERTEX
  8
LAYER1
 62
     7
  6
CONTINUOUS
 10
10.3703
 20
5.8989
  0
VERTEX
  8
LAYER1
 62
     7
  6
CONTINUOUS
 10
10.3708
 20
5.8968
  0
VERTEX
  8
LAYER1
 62
     7
  6
CONTINUOUS
 10
10.3713
 20
5.8947
  0
VERTEX
  8
LAYER1
 62
     7
  6
CONTINUOUS
 10
10.3717
 20
5.8926
  0
VERTEX
  8
LAYER1
 62
     7
  6
CONTINUOUS
 10
10.3720
 20
5.8904
  0
VERTEX
  8
LAYER1
 62
     7
  6
CONTINUOUS
 10
10.3722
 20
5.8882
  0
VERTEX
  8
LAYER1
 62
     7
  6
CONTINUOUS
 10
10.3725
 20
5.8860
  0
VERTEX
  8
LAYER1
 62
     7
  6
CONTINUOUS
 10
10.3727
 20
5.8838
  0
VERTEX
  8
LAYER1
 62
     7
  6
CONTINUOUS
 10
10.3728
 20
5.8816
  0
VERTEX
  8
LAYER1
 62
     7
  6
CONTINUOUS
 10
10.3730
 20
5.8790
  0
VERTEX
  8
LAYER1
 62
     7
  6
CONTINUOUS
 10
10.3731
 20
5.8764
  0
VERTEX
  8
LAYER1
 62
     7
  6
CONTINUOUS
 10
10.3732
 20
5.8739
  0
VERTEX
  8
LAYER1
 62
     7
  6
CONTINUOUS
 10
10.3733
 20
5.8714
  0
VERTEX
  8
LAYER1
 62
     7
  6
CONTINUOUS
 10
10.3734
 20
5.8688
  0
VERTEX
  8
LAYER1
 62
     7
  6
CONTINUOUS
 10
10.3734
 20
5.8663
  0
VERTEX
  8
LAYER1
 62
     7
  6
CONTINUOUS
 10
10.3734
 20
5.8638
  0
VERTEX
  8
LAYER1
 62
     7
  6
CONTINUOUS
 10
10.3734
 20
5.8613
  0
VERTEX
  8
LAYER1
 62
     7
  6
CONTINUOUS
 10
10.3734
 20
5.8588
  0
VERTEX
  8
LAYER1
 62
     7
  6
CONTINUOUS
 10
10.3734
 20
5.8564
  0
VERTEX
  8
LAYER1
 62
     7
  6
CONTINUOUS
 10
10.3734
 20
5.8539
  0
VERTEX
  8
LAYER1
 62
     7
  6
CONTINUOUS
 10
10.3733
 20
5.8514
  0
VERTEX
  8
LAYER1
 62
     7
  6
CONTINUOUS
 10
10.3733
 20
5.8490
  0
VERTEX
  8
LAYER1
 62
     7
  6
CONTINUOUS
 10
10.3732
 20
5.8465
  0
VERTEX
  8
LAYER1
 62
     7
  6
CONTINUOUS
 10
10.3731
 20
5.8440
  0
VERTEX
  8
LAYER1
 62
     7
  6
CONTINUOUS
 10
10.3731
 20
5.8416
  0
VERTEX
  8
LAYER1
 62
     7
  6
CONTINUOUS
 10
10.3731
 20
5.8391
  0
VERTEX
  8
LAYER1
 62
     7
  6
CONTINUOUS
 10
10.3730
 20
5.8366
  0
VERTEX
  8
LAYER1
 62
     7
  6
CONTINUOUS
 10
10.3731
 20
5.8341
  0
VERTEX
  8
LAYER1
 62
     7
  6
CONTINUOUS
 10
10.3731
 20
5.8316
  0
VERTEX
  8
LAYER1
 62
     7
  6
CONTINUOUS
 10
10.3732
 20
5.8290
  0
VERTEX
  8
LAYER1
 62
     7
  6
CONTINUOUS
 10
10.3733
 20
5.8265
  0
VERTEX
  8
LAYER1
 62
     7
  6
CONTINUOUS
 10
10.3735
 20
5.8239
  0
VERTEX
  8
LAYER1
 62
     7
  6
CONTINUOUS
 10
10.3738
 20
5.8212
  0
VERTEX
  8
LAYER1
 62
     7
  6
CONTINUOUS
 10
10.3739
 20
5.8204
  0
VERTEX
  8
LAYER1
 62
     7
  6
CONTINUOUS
 10
10.3740
 20
5.8195
  0
VERTEX
  8
LAYER1
 62
     7
  6
CONTINUOUS
 10
10.3741
 20
5.8186
  0
VERTEX
  8
LAYER1
 62
     7
  6
CONTINUOUS
 10
10.3742
 20
5.8177
  0
VERTEX
  8
LAYER1
 62
     7
  6
CONTINUOUS
 10
10.3743
 20
5.8168
  0
VERTEX
  8
LAYER1
 62
     7
  6
CONTINUOUS
 10
10.3743
 20
5.8160
  0
VERTEX
  8
LAYER1
 62
     7
  6
CONTINUOUS
 10
10.3744
 20
5.8151
  0
VERTEX
  8
LAYER1
 62
     7
  6
CONTINUOUS
 10
10.3744
 20
5.8143
  0
VERTEX
  8
LAYER1
 62
     7
  6
CONTINUOUS
 10
10.3743
 20
5.8135
  0
VERTEX
  8
LAYER1
 62
     7
  6
CONTINUOUS
 10
10.3743
 20
5.8127
  0
VERTEX
  8
LAYER1
 62
     7
  6
CONTINUOUS
 10
10.3741
 20
5.8119
  0
VERTEX
  8
LAYER1
 62
     7
  6
CONTINUOUS
 10
10.3740
 20
5.8112
  0
VERTEX
  8
LAYER1
 62
     7
  6
CONTINUOUS
 10
10.3733
 20
5.8094
  0
VERTEX
  8
LAYER1
 62
     7
  6
CONTINUOUS
 10
10.3723
 20
5.8079
  0
VERTEX
  8
LAYER1
 62
     7
  6
CONTINUOUS
 10
10.3710
 20
5.8064
  0
VERTEX
  8
LAYER1
 62
     7
  6
CONTINUOUS
 10
10.3695
 20
5.8051
  0
VERTEX
  8
LAYER1
 62
     7
  6
CONTINUOUS
 10
10.3678
 20
5.8039
  0
VERTEX
  8
LAYER1
 62
     7
  6
CONTINUOUS
 10
10.3660
 20
5.8027
  0
VERTEX
  8
LAYER1
 62
     7
  6
CONTINUOUS
 10
10.3640
 20
5.8016
  0
VERTEX
  8
LAYER1
 62
     7
  6
CONTINUOUS
 10
10.3620
 20
5.8005
  0
VERTEX
  8
LAYER1
 62
     7
  6
CONTINUOUS
 10
10.3600
 20
5.7994
  0
VERTEX
  8
LAYER1
 62
     7
  6
CONTINUOUS
 10
10.3579
 20
5.7982
  0
VERTEX
  8
LAYER1
 62
     7
  6
CONTINUOUS
 10
10.3560
 20
5.7970
  0
VERTEX
  8
LAYER1
 62
     7
  6
CONTINUOUS
 10
10.3541
 20
5.7958
  0
SEQEND
  8
LAYER1
  0
CIRCLE
  8
LAYER1
 62
     7
  6
CONTINUOUS
 10
10.0781
 20
5.9095
 40
0.0287
  0
CIRCLE
  8
LAYER1
 62
     7
  6
CONTINUOUS
 10
10.1334
 20
5.9129
 40
0.0253
  0
CIRCLE
  8
LAYER1
 62
     7
  6
CONTINUOUS
 10
10.1241
 20
5.8624
 40
0.0281
  0
CIRCLE
  8
LAYER1
 62
     7
  6
CONTINUOUS
 10
10.1465
 20
6.0338
 40
0.0056
  0
CIRCLE
  8
LAYER1
 62
     7
  6
CONTINUOUS
 10
10.1689
 20
6.0493
 40
0.0225
  0
ARC
  8
LAYER1
 62
     7
  6
CONTINUOUS
 10
10.0268
 20
5.9690
 40
0.0128
 50
-20.0825
 51
20.1210
  0
POLYLINE
  8
LAYER1
 62
     7
 66
     1
  6
CONTINUOUS
  0
VERTEX
  8
LAYER1
 62
     7
  6
CONTINUOUS
 10
10.4136
 20
6.5218
  0
VERTEX
  8
LAYER1
 62
     7
  6
CONTINUOUS
 10
10.4136
 20
6.5218
  0
VERTEX
  8
LAYER1
 62
     7
  6
CONTINUOUS
 10
10.4136
 20
6.5218
  0
VERTEX
  8
LAYER1
 62
     7
  6
CONTINUOUS
 10
10.4136
 20
6.5218
  0
VERTEX
  8
LAYER1
 62
     7
  6
CONTINUOUS
 10
10.4136
 20
6.5218
  0
VERTEX
  8
LAYER1
 62
     7
  6
CONTINUOUS
 10
10.4136
 20
6.5218
  0
VERTEX
  8
LAYER1
 62
     7
  6
CONTINUOUS
 10
10.4136
 20
6.5218
  0
VERTEX
  8
LAYER1
 62
     7
  6
CONTINUOUS
 10
10.4136
 20
6.5218
  0
VERTEX
  8
LAYER1
 62
     7
  6
CONTINUOUS
 10
10.4136
 20
6.5218
  0
VERTEX
  8
LAYER1
 62
     7
  6
CONTINUOUS
 10
10.4136
 20
6.5218
  0
VERTEX
  8
LAYER1
 62
     7
  6
CONTINUOUS
 10
10.4136
 20
6.5218
  0
VERTEX
  8
LAYER1
 62
     7
  6
CONTINUOUS
 10
10.4136
 20
6.5218
  0
VERTEX
  8
LAYER1
 62
     7
  6
CONTINUOUS
 10
10.4136
 20
6.5218
  0
VERTEX
  8
LAYER1
 62
     7
  6
CONTINUOUS
 10
10.4136
 20
6.5218
  0
VERTEX
  8
LAYER1
 62
     7
  6
CONTINUOUS
 10
10.4136
 20
6.5218
  0
VERTEX
  8
LAYER1
 62
     7
  6
CONTINUOUS
 10
10.4136
 20
6.5218
  0
VERTEX
  8
LAYER1
 62
     7
  6
CONTINUOUS
 10
10.4136
 20
6.5218
  0
VERTEX
  8
LAYER1
 62
     7
  6
CONTINUOUS
 10
10.4136
 20
6.5218
  0
VERTEX
  8
LAYER1
 62
     7
  6
CONTINUOUS
 10
10.4136
 20
6.5218
  0
VERTEX
  8
LAYER1
 62
     7
  6
CONTINUOUS
 10
10.4136
 20
6.5218
  0
VERTEX
  8
LAYER1
 62
     7
  6
CONTINUOUS
 10
10.4136
 20
6.5218
  0
VERTEX
  8
LAYER1
 62
     7
  6
CONTINUOUS
 10
10.4136
 20
6.5218
  0
VERTEX
  8
LAYER1
 62
     7
  6
CONTINUOUS
 10
10.4136
 20
6.5218
  0
VERTEX
  8
LAYER1
 62
     7
  6
CONTINUOUS
 10
10.4136
 20
6.5218
  0
VERTEX
  8
LAYER1
 62
     7
  6
CONTINUOUS
 10
10.4136
 20
6.5218
  0
SEQEND
  8
LAYER1
  0
POLYLINE
  8
LAYER1
 62
     7
 66
     1
  6
CONTINUOUS
  0
VERTEX
  8
LAYER1
 62
     7
  6
CONTINUOUS
 10
10.4136
 20
6.5218
  0
VERTEX
  8
LAYER1
 62
     7
  6
CONTINUOUS
 10
10.4136
 20
6.5218
  0
VERTEX
  8
LAYER1
 62
     7
  6
CONTINUOUS
 10
10.4136
 20
6.5218
  0
VERTEX
  8
LAYER1
 62
     7
  6
CONTINUOUS
 10
10.4136
 20
6.5218
  0
VERTEX
  8
LAYER1
 62
     7
  6
CONTINUOUS
 10
10.4136
 20
6.5218
  0
VERTEX
  8
LAYER1
 62
     7
  6
CONTINUOUS
 10
10.4136
 20
6.5218
  0
VERTEX
  8
LAYER1
 62
     7
  6
CONTINUOUS
 10
10.4136
 20
6.5218
  0
VERTEX
  8
LAYER1
 62
     7
  6
CONTINUOUS
 10
10.4136
 20
6.5218
  0
VERTEX
  8
LAYER1
 62
     7
  6
CONTINUOUS
 10
10.4136
 20
6.5218
  0
VERTEX
  8
LAYER1
 62
     7
  6
CONTINUOUS
 10
10.4136
 20
6.5218
  0
VERTEX
  8
LAYER1
 62
     7
  6
CONTINUOUS
 10
10.4136
 20
6.5218
  0
VERTEX
  8
LAYER1
 62
     7
  6
CONTINUOUS
 10
10.4136
 20
6.5218
  0
VERTEX
  8
LAYER1
 62
     7
  6
CONTINUOUS
 10
10.4136
 20
6.5218
  0
VERTEX
  8
LAYER1
 62
     7
  6
CONTINUOUS
 10
10.4133
 20
6.5218
  0
VERTEX
  8
LAYER1
 62
     7
  6
CONTINUOUS
 10
10.4130
 20
6.5218
  0
VERTEX
  8
LAYER1
 62
     7
  6
CONTINUOUS
 10
10.4129
 20
6.5218
  0
VERTEX
  8
LAYER1
 62
     7
  6
CONTINUOUS
 10
10.4128
 20
6.5218
  0
VERTEX
  8
LAYER1
 62
     7
  6
CONTINUOUS
 10
10.4127
 20
6.5218
  0
VERTEX
  8
LAYER1
 62
     7
  6
CONTINUOUS
 10
10.4128
 20
6.5218
  0
VERTEX
  8
LAYER1
 62
     7
  6
CONTINUOUS
 10
10.4128
 20
6.5218
  0
VERTEX
  8
LAYER1
 62
     7
  6
CONTINUOUS
 10
10.4129
 20
6.5218
  0
VERTEX
  8
LAYER1
 62
     7
  6
CONTINUOUS
 10
10.4131
 20
6.5218
  0
VERTEX
  8
LAYER1
 62
     7
  6
CONTINUOUS
 10
10.4132
 20
6.5218
  0
VERTEX
  8
LAYER1
 62
     7
  6
CONTINUOUS
 10
10.4134
 20
6.5218
  0
VERTEX
  8
LAYER1
 62
     7
  6
CONTINUOUS
 10
10.4136
 20
6.5218
  0
SEQEND
  8
LAYER1
  0
POLYLINE
  8
LAYER1
 62
     7
 66
     1
  6
CONTINUOUS
  0
VERTEX
  8
LAYER1
 62
     7
  6
CONTINUOUS
 10
10.4136
 20
6.5218
  0
VERTEX
  8
LAYER1
 62
     7
  6
CONTINUOUS
 10
10.4127
 20
6.5214
  0
VERTEX
  8
LAYER1
 62
     7
  6
CONTINUOUS
 10
10.4118
 20
6.5209
  0
VERTEX
  8
LAYER1
 62
     7
  6
CONTINUOUS
 10
10.4109
 20
6.5205
  0
VERTEX
  8
LAYER1
 62
     7
  6
CONTINUOUS
 10
10.4101
 20
6.5202
  0
VERTEX
  8
LAYER1
 62
     7
  6
CONTINUOUS
 10
10.4093
 20
6.5199
  0
VERTEX
  8
LAYER1
 62
     7
  6
CONTINUOUS
 10
10.4085
 20
6.5196
  0
VERTEX
  8
LAYER1
 62
     7
  6
CONTINUOUS
 10
10.4078
 20
6.5195
  0
VERTEX
  8
LAYER1
 62
     7
  6
CONTINUOUS
 10
10.4072
 20
6.5194
  0
VERTEX
  8
LAYER1
 62
     7
  6
CONTINUOUS
 10
10.4067
 20
6.5195
  0
VERTEX
  8
LAYER1
 62
     7
  6
CONTINUOUS
 10
10.4063
 20
6.5197
  0
VERTEX
  8
LAYER1
 62
     7
  6
CONTINUOUS
 10
10.4060
 20
6.5200
  0
VERTEX
  8
LAYER1
 62
     7
  6
CONTINUOUS
 10
10.4057
 20
6.5205
  0
VERTEX
  8
LAYER1
 62
     7
  6
CONTINUOUS
 10
10.4057
 20
6.5206
  0
VERTEX
  8
LAYER1
 62
     7
  6
CONTINUOUS
 10
10.4057
 20
6.5207
  0
VERTEX
  8
LAYER1
 62
     7
  6
CONTINUOUS
 10
10.4057
 20
6.5208
  0
VERTEX
  8
LAYER1
 62
     7
  6
CONTINUOUS
 10
10.4057
 20
6.5209
  0
VERTEX
  8
LAYER1
 62
     7
  6
CONTINUOUS
 10
10.4057
 20
6.5210
  0
VERTEX
  8
LAYER1
 62
     7
  6
CONTINUOUS
 10
10.4057
 20
6.5211
  0
VERTEX
  8
LAYER1
 62
     7
  6
CONTINUOUS
 10
10.4056
 20
6.5212
  0
VERTEX
  8
LAYER1
 62
     7
  6
CONTINUOUS
 10
10.4056
 20
6.5213
  0
VERTEX
  8
LAYER1
 62
     7
  6
CONTINUOUS
 10
10.4056
 20
6.5214
  0
VERTEX
  8
LAYER1
 62
     7
  6
CONTINUOUS
 10
10.4056
 20
6.5216
  0
VERTEX
  8
LAYER1
 62
     7
  6
CONTINUOUS
 10
10.4056
 20
6.5217
  0
VERTEX
  8
LAYER1
 62
     7
  6
CONTINUOUS
 10
10.4056
 20
6.5218
  0
SEQEND
  8
LAYER1
  0
POLYLINE
  8
LAYER1
 62
     7
 66
     1
  6
CONTINUOUS
  0
VERTEX
  8
LAYER1
 62
     7
  6
CONTINUOUS
 10
10.4056
 20
6.5218
  0
VERTEX
  8
LAYER1
 62
     7
  6
CONTINUOUS
 10
10.4056
 20
6.5218
  0
VERTEX
  8
LAYER1
 62
     7
  6
CONTINUOUS
 10
10.4056
 20
6.5218
  0
VERTEX
  8
LAYER1
 62
     7
  6
CONTINUOUS
 10
10.4056
 20
6.5218
  0
VERTEX
  8
LAYER1
 62
     7
  6
CONTINUOUS
 10
10.4056
 20
6.5218
  0
VERTEX
  8
LAYER1
 62
     7
  6
CONTINUOUS
 10
10.4056
 20
6.5218
  0
VERTEX
  8
LAYER1
 62
     7
  6
CONTINUOUS
 10
10.4056
 20
6.5218
  0
VERTEX
  8
LAYER1
 62
     7
  6
CONTINUOUS
 10
10.4056
 20
6.5218
  0
VERTEX
  8
LAYER1
 62
     7
  6
CONTINUOUS
 10
10.4056
 20
6.5218
  0
VERTEX
  8
LAYER1
 62
     7
  6
CONTINUOUS
 10
10.4056
 20
6.5218
  0
VERTEX
  8
LAYER1
 62
     7
  6
CONTINUOUS
 10
10.4056
 20
6.5218
  0
VERTEX
  8
LAYER1
 62
     7
  6
CONTINUOUS
 10
10.4056
 20
6.5218
  0
VERTEX
  8
LAYER1
 62
     7
  6
CONTINUOUS
 10
10.4056
 20
6.5218
  0
VERTEX
  8
LAYER1
 62
     7
  6
CONTINUOUS
 10
10.4056
 20
6.5218
  0
VERTEX
  8
LAYER1
 62
     7
  6
CONTINUOUS
 10
10.4056
 20
6.5218
  0
VERTEX
  8
LAYER1
 62
     7
  6
CONTINUOUS
 10
10.4056
 20
6.5218
  0
VERTEX
  8
LAYER1
 62
     7
  6
CONTINUOUS
 10
10.4056
 20
6.5218
  0
VERTEX
  8
LAYER1
 62
     7
  6
CONTINUOUS
 10
10.4056
 20
6.5218
  0
VERTEX
  8
LAYER1
 62
     7
  6
CONTINUOUS
 10
10.4056
 20
6.5218
  0
VERTEX
  8
LAYER1
 62
     7
  6
CONTINUOUS
 10
10.4056
 20
6.5218
  0
VERTEX
  8
LAYER1
 62
     7
  6
CONTINUOUS
 10
10.4056
 20
6.5218
  0
VERTEX
  8
LAYER1
 62
     7
  6
CONTINUOUS
 10
10.4056
 20
6.5218
  0
VERTEX
  8
LAYER1
 62
     7
  6
CONTINUOUS
 10
10.4056
 20
6.5218
  0
VERTEX
  8
LAYER1
 62
     7
  6
CONTINUOUS
 10
10.4056
 20
6.5218
  0
VERTEX
  8
LAYER1
 62
     7
  6
CONTINUOUS
 10
10.4056
 20
6.5218
  0
SEQEND
  8
LAYER1
  0
POLYLINE
  8
LAYER1
 62
     7
 66
     1
  6
CONTINUOUS
  0
VERTEX
  8
LAYER1
 62
     7
  6
CONTINUOUS
 10
10.4056
 20
6.5218
  0
VERTEX
  8
LAYER1
 62
     7
  6
CONTINUOUS
 10
10.4056
 20
6.5218
  0
VERTEX
  8
LAYER1
 62
     7
  6
CONTINUOUS
 10
10.4056
 20
6.5218
  0
VERTEX
  8
LAYER1
 62
     7
  6
CONTINUOUS
 10
10.4056
 20
6.5218
  0
VERTEX
  8
LAYER1
 62
     7
  6
CONTINUOUS
 10
10.4056
 20
6.5218
  0
VERTEX
  8
LAYER1
 62
     7
  6
CONTINUOUS
 10
10.4056
 20
6.5218
  0
VERTEX
  8
LAYER1
 62
     7
  6
CONTINUOUS
 10
10.4056
 20
6.5218
  0
VERTEX
  8
LAYER1
 62
     7
  6
CONTINUOUS
 10
10.4056
 20
6.5218
  0
VERTEX
  8
LAYER1
 62
     7
  6
CONTINUOUS
 10
10.4056
 20
6.5218
  0
VERTEX
  8
LAYER1
 62
     7
  6
CONTINUOUS
 10
10.4056
 20
6.5218
  0
VERTEX
  8
LAYER1
 62
     7
  6
CONTINUOUS
 10
10.4056
 20
6.5218
  0
VERTEX
  8
LAYER1
 62
     7
  6
CONTINUOUS
 10
10.4056
 20
6.5218
  0
VERTEX
  8
LAYER1
 62
     7
  6
CONTINUOUS
 10
10.4056
 20
6.5218
  0
VERTEX
  8
LAYER1
 62
     7
  6
CONTINUOUS
 10
10.4056
 20
6.5218
  0
VERTEX
  8
LAYER1
 62
     7
  6
CONTINUOUS
 10
10.4056
 20
6.5218
  0
VERTEX
  8
LAYER1
 62
     7
  6
CONTINUOUS
 10
10.4056
 20
6.5218
  0
VERTEX
  8
LAYER1
 62
     7
  6
CONTINUOUS
 10
10.4056
 20
6.5218
  0
VERTEX
  8
LAYER1
 62
     7
  6
CONTINUOUS
 10
10.4056
 20
6.5218
  0
VERTEX
  8
LAYER1
 62
     7
  6
CONTINUOUS
 10
10.4056
 20
6.5218
  0
VERTEX
  8
LAYER1
 62
     7
  6
CONTINUOUS
 10
10.4056
 20
6.5218
  0
VERTEX
  8
LAYER1
 62
     7
  6
CONTINUOUS
 10
10.4056
 20
6.5218
  0
VERTEX
  8
LAYER1
 62
     7
  6
CONTINUOUS
 10
10.4056
 20
6.5218
  0
VERTEX
  8
LAYER1
 62
     7
  6
CONTINUOUS
 10
10.4056
 20
6.5218
  0
VERTEX
  8
LAYER1
 62
     7
  6
CONTINUOUS
 10
10.4056
 20
6.5218
  0
VERTEX
  8
LAYER1
 62
     7
  6
CONTINUOUS
 10
10.4056
 20
6.5218
  0
SEQEND
  8
LAYER1
  0
ARC
  8
LAYER1
 62
     7
  6
CONTINUOUS
 10
11.0246
 20
6.0130
 40
0.0256
 50
102.2420
 51
-97.5193
  0
ARC
  8
LAYER1
 62
     7
  6
CONTINUOUS
 10
11.0246
 20
6.0130
 40
0.0256
 50
97.5192
 51
102.2418
  0
ARC
  8
LAYER1
 62
     7
  6
CONTINUOUS
 10
11.0024
 20
5.8315
 40
0.0257
 50
42.7757
 51
-42.7659
  0
ARC
  8
LAYER1
 62
     7
  6
CONTINUOUS
 10
10.0275
 20
6.0797
 40
0.0169
 50
43.4376
 51
47.8117
  0
ARC
  8
LAYER1
 62
     7
  6
CONTINUOUS
 10
10.0275
 20
6.0797
 40
0.0169
 50
-43.4388
 51
-25.6408
  0
ARC
  8
LAYER1
 62
     7
  6
CONTINUOUS
 10
10.0530
 20
6.0600
 40
0.0161
 50
145.2131
 51
151.4407
  0
ARC
  8
LAYER1
 62
     7
  6
CONTINUOUS
 10
10.0530
 20
6.0600
 40
0.0161
 50
-145.1853
 51
-50.4127
  0
ARC
  8
LAYER1
 62
     7
  6
CONTINUOUS
 10
11.0241
 20
6.5248
 40
0.0076
 50
175.6647
 51
-156.8704
  0
ARC
  8
LAYER1
 62
     7
  6
CONTINUOUS
 10
11.0241
 20
6.5248
 40
0.0076
 50
-156.8694
 51
-112.2583
  0
ARC
  8
LAYER1
 62
     7
  6
CONTINUOUS
 10
11.0241
 20
6.5248
 40
0.0076
 50
-112.2572
 51
-89.2874
  0
POLYLINE
  8
LAYER1
 62
     7
 66
     1
  6
CONTINUOUS
  0
VERTEX
  8
LAYER1
 62
     7
  6
CONTINUOUS
 10
10.4204
 20
6.5253
  0
VERTEX
  8
LAYER1
 62
     7
  6
CONTINUOUS
 10
10.4204
 20
6.5253
  0
VERTEX
  8
LAYER1
 62
     7
  6
CONTINUOUS
 10
10.4204
 20
6.5253
  0
VERTEX
  8
LAYER1
 62
     7
  6
CONTINUOUS
 10
10.4204
 20
6.5253
  0
VERTEX
  8
LAYER1
 62
     7
  6
CONTINUOUS
 10
10.4204
 20
6.5253
  0
VERTEX
  8
LAYER1
 62
     7
  6
CONTINUOUS
 10
10.4204
 20
6.5253
  0
VERTEX
  8
LAYER1
 62
     7
  6
CONTINUOUS
 10
10.4204
 20
6.5253
  0
VERTEX
  8
LAYER1
 62
     7
  6
CONTINUOUS
 10
10.4204
 20
6.5253
  0
VERTEX
  8
LAYER1
 62
     7
  6
CONTINUOUS
 10
10.4204
 20
6.5253
  0
VERTEX
  8
LAYER1
 62
     7
  6
CONTINUOUS
 10
10.4204
 20
6.5253
  0
VERTEX
  8
LAYER1
 62
     7
  6
CONTINUOUS
 10
10.4204
 20
6.5253
  0
VERTEX
  8
LAYER1
 62
     7
  6
CONTINUOUS
 10
10.4204
 20
6.5253
  0
VERTEX
  8
LAYER1
 62
     7
  6
CONTINUOUS
 10
10.4204
 20
6.5253
  0
VERTEX
  8
LAYER1
 62
     7
  6
CONTINUOUS
 10
10.4204
 20
6.5253
  0
VERTEX
  8
LAYER1
 62
     7
  6
CONTINUOUS
 10
10.4204
 20
6.5253
  0
VERTEX
  8
LAYER1
 62
     7
  6
CONTINUOUS
 10
10.4204
 20
6.5253
  0
VERTEX
  8
LAYER1
 62
     7
  6
CONTINUOUS
 10
10.4204
 20
6.5253
  0
VERTEX
  8
LAYER1
 62
     7
  6
CONTINUOUS
 10
10.4204
 20
6.5253
  0
VERTEX
  8
LAYER1
 62
     7
  6
CONTINUOUS
 10
10.4204
 20
6.5253
  0
VERTEX
  8
LAYER1
 62
     7
  6
CONTINUOUS
 10
10.4204
 20
6.5253
  0
VERTEX
  8
LAYER1
 62
     7
  6
CONTINUOUS
 10
10.4204
 20
6.5253
  0
VERTEX
  8
LAYER1
 62
     7
  6
CONTINUOUS
 10
10.4204
 20
6.5253
  0
VERTEX
  8
LAYER1
 62
     7
  6
CONTINUOUS
 10
10.4204
 20
6.5253
  0
VERTEX
  8
LAYER1
 62
     7
  6
CONTINUOUS
 10
10.4204
 20
6.5253
  0
VERTEX
  8
LAYER1
 62
     7
  6
CONTINUOUS
 10
10.4204
 20
6.5253
  0
SEQEND
  8
LAYER1
  0
POLYLINE
  8
LAYER1
 62
     7
 66
     1
  6
CONTINUOUS
  0
VERTEX
  8
LAYER1
 62
     7
  6
CONTINUOUS
 10
10.4204
 20
6.5253
  0
VERTEX
  8
LAYER1
 62
     7
  6
CONTINUOUS
 10
10.4204
 20
6.5253
  0
VERTEX
  8
LAYER1
 62
     7
  6
CONTINUOUS
 10
10.4204
 20
6.5253
  0
VERTEX
  8
LAYER1
 62
     7
  6
CONTINUOUS
 10
10.4204
 20
6.5253
  0
VERTEX
  8
LAYER1
 62
     7
  6
CONTINUOUS
 10
10.4204
 20
6.5253
  0
VERTEX
  8
LAYER1
 62
     7
  6
CONTINUOUS
 10
10.4204
 20
6.5253
  0
VERTEX
  8
LAYER1
 62
     7
  6
CONTINUOUS
 10
10.4204
 20
6.5253
  0
VERTEX
  8
LAYER1
 62
     7
  6
CONTINUOUS
 10
10.4204
 20
6.5253
  0
VERTEX
  8
LAYER1
 62
     7
  6
CONTINUOUS
 10
10.4204
 20
6.5253
  0
VERTEX
  8
LAYER1
 62
     7
  6
CONTINUOUS
 10
10.4204
 20
6.5253
  0
VERTEX
  8
LAYER1
 62
     7
  6
CONTINUOUS
 10
10.4204
 20
6.5253
  0
VERTEX
  8
LAYER1
 62
     7
  6
CONTINUOUS
 10
10.4204
 20
6.5253
  0
VERTEX
  8
LAYER1
 62
     7
  6
CONTINUOUS
 10
10.4204
 20
6.5253
  0
VERTEX
  8
LAYER1
 62
     7
  6
CONTINUOUS
 10
10.4204
 20
6.5253
  0
VERTEX
  8
LAYER1
 62
     7
  6
CONTINUOUS
 10
10.4204
 20
6.5253
  0
VERTEX
  8
LAYER1
 62
     7
  6
CONTINUOUS
 10
10.4204
 20
6.5253
  0
VERTEX
  8
LAYER1
 62
     7
  6
CONTINUOUS
 10
10.4204
 20
6.5253
  0
VERTEX
  8
LAYER1
 62
     7
  6
CONTINUOUS
 10
10.4204
 20
6.5253
  0
VERTEX
  8
LAYER1
 62
     7
  6
CONTINUOUS
 10
10.4204
 20
6.5253
  0
VERTEX
  8
LAYER1
 62
     7
  6
CONTINUOUS
 10
10.4204
 20
6.5253
  0
VERTEX
  8
LAYER1
 62
     7
  6
CONTINUOUS
 10
10.4204
 20
6.5253
  0
VERTEX
  8
LAYER1
 62
     7
  6
CONTINUOUS
 10
10.4204
 20
6.5253
  0
VERTEX
  8
LAYER1
 62
     7
  6
CONTINUOUS
 10
10.4204
 20
6.5253
  0
VERTEX
  8
LAYER1
 62
     7
  6
CONTINUOUS
 10
10.4204
 20
6.5253
  0
VERTEX
  8
LAYER1
 62
     7
  6
CONTINUOUS
 10
10.4204
 20
6.5253
  0
SEQEND
  8
LAYER1
  0
POLYLINE
  8
LAYER1
 62
     7
 66
     1
  6
CONTINUOUS
  0
VERTEX
  8
LAYER1
 62
     7
  6
CONTINUOUS
 10
10.4204
 20
6.5253
  0
VERTEX
  8
LAYER1
 62
     7
  6
CONTINUOUS
 10
10.4196
 20
6.5250
  0
VERTEX
  8
LAYER1
 62
     7
  6
CONTINUOUS
 10
10.4189
 20
6.5246
  0
VERTEX
  8
LAYER1
 62
     7
  6
CONTINUOUS
 10
10.4182
 20
6.5242
  0
VERTEX
  8
LAYER1
 62
     7
  6
CONTINUOUS
 10
10.4175
 20
6.5238
  0
VERTEX
  8
LAYER1
 62
     7
  6
CONTINUOUS
 10
10.4168
 20
6.5235
  0
VERTEX
  8
LAYER1
 62
     7
  6
CONTINUOUS
 10
10.4162
 20
6.5231
  0
VERTEX
  8
LAYER1
 62
     7
  6
CONTINUOUS
 10
10.4156
 20
6.5228
  0
VERTEX
  8
LAYER1
 62
     7
  6
CONTINUOUS
 10
10.4151
 20
6.5226
  0
VERTEX
  8
LAYER1
 62
     7
  6
CONTINUOUS
 10
10.4146
 20
6.5223
  0
VERTEX
  8
LAYER1
 62
     7
  6
CONTINUOUS
 10
10.4142
 20
6.5221
  0
VERTEX
  8
LAYER1
 62
     7
  6
CONTINUOUS
 10
10.4139
 20
6.5219
  0
VERTEX
  8
LAYER1
 62
     7
  6
CONTINUOUS
 10
10.4136
 20
6.5218
  0
VERTEX
  8
LAYER1
 62
     7
  6
CONTINUOUS
 10
10.4135
 20
6.5217
  0
VERTEX
  8
LAYER1
 62
     7
  6
CONTINUOUS
 10
10.4134
 20
6.5217
  0
VERTEX
  8
LAYER1
 62
     7
  6
CONTINUOUS
 10
10.4134
 20
6.5217
  0
VERTEX
  8
LAYER1
 62
     7
  6
CONTINUOUS
 10
10.4133
 20
6.5216
  0
VERTEX
  8
LAYER1
 62
     7
  6
CONTINUOUS
 10
10.4133
 20
6.5216
  0
VERTEX
  8
LAYER1
 62
     7
  6
CONTINUOUS
 10
10.4133
 20
6.5216
  0
VERTEX
  8
LAYER1
 62
     7
  6
CONTINUOUS
 10
10.4133
 20
6.5217
  0
VERTEX
  8
LAYER1
 62
     7
  6
CONTINUOUS
 10
10.4134
 20
6.5217
  0
VERTEX
  8
LAYER1
 62
     7
  6
CONTINUOUS
 10
10.4134
 20
6.5217
  0
VERTEX
  8
LAYER1
 62
     7
  6
CONTINUOUS
 10
10.4135
 20
6.5217
  0
VERTEX
  8
LAYER1
 62
     7
  6
CONTINUOUS
 10
10.4135
 20
6.5218
  0
VERTEX
  8
LAYER1
 62
     7
  6
CONTINUOUS
 10
10.4136
 20
6.5218
  0
SEQEND
  8
LAYER1
  0
POLYLINE
  8
LAYER1
 62
     7
 66
     1
  6
CONTINUOUS
  0
VERTEX
  8
LAYER1
 62
     7
  6
CONTINUOUS
 10
10.4056
 20
6.5218
  0
VERTEX
  8
LAYER1
 62
     7
  6
CONTINUOUS
 10
10.4056
 20
6.5222
  0
VERTEX
  8
LAYER1
 62
     7
  6
CONTINUOUS
 10
10.4057
 20
6.5225
  0
VERTEX
  8
LAYER1
 62
     7
  6
CONTINUOUS
 10
10.4057
 20
6.5229
  0
VERTEX
  8
LAYER1
 62
     7
  6
CONTINUOUS
 10
10.4057
 20
6.5232
  0
VERTEX
  8
LAYER1
 62
     7
  6
CONTINUOUS
 10
10.4057
 20
6.5235
  0
VERTEX
  8
LAYER1
 62
     7
  6
CONTINUOUS
 10
10.4057
 20
6.5239
  0
VERTEX
  8
LAYER1
 62
     7
  6
CONTINUOUS
 10
10.4058
 20
6.5242
  0
VERTEX
  8
LAYER1
 62
     7
  6
CONTINUOUS
 10
10.4058
 20
6.5245
  0
VERTEX
  8
LAYER1
 62
     7
  6
CONTINUOUS
 10
10.4058
 20
6.5247
  0
VERTEX
  8
LAYER1
 62
     7
  6
CONTINUOUS
 10
10.4058
 20
6.5250
  0
VERTEX
  8
LAYER1
 62
     7
  6
CONTINUOUS
 10
10.4058
 20
6.5252
  0
VERTEX
  8
LAYER1
 62
     7
  6
CONTINUOUS
 10
10.4058
 20
6.5253
  0
VERTEX
  8
LAYER1
 62
     7
  6
CONTINUOUS
 10
10.4058
 20
6.5255
  0
VERTEX
  8
LAYER1
 62
     7
  6
CONTINUOUS
 10
10.4058
 20
6.5257
  0
VERTEX
  8
LAYER1
 62
     7
  6
CONTINUOUS
 10
10.4058
 20
6.5258
  0
VERTEX
  8
LAYER1
 62
     7
  6
CONTINUOUS
 10
10.4058
 20
6.5258
  0
VERTEX
  8
LAYER1
 62
     7
  6
CONTINUOUS
 10
10.4058
 20
6.5258
  0
VERTEX
  8
LAYER1
 62
     7
  6
CONTINUOUS
 10
10.4058
 20
6.5258
  0
VERTEX
  8
LAYER1
 62
     7
  6
CONTINUOUS
 10
10.4058
 20
6.5258
  0
VERTEX
  8
LAYER1
 62
     7
  6
CONTINUOUS
 10
10.4058
 20
6.5257
  0
VERTEX
  8
LAYER1
 62
     7
  6
CONTINUOUS
 10
10.4058
 20
6.5256
  0
VERTEX
  8
LAYER1
 62
     7
  6
CONTINUOUS
 10
10.4058
 20
6.5256
  0
VERTEX
  8
LAYER1
 62
     7
  6
CONTINUOUS
 10
10.4058
 20
6.5255
  0
VERTEX
  8
LAYER1
 62
     7
  6
CONTINUOUS
 10
10.4058
 20
6.5253
  0
SEQEND
  8
LAYER1
  0
POLYLINE
  8
LAYER1
 62
     7
 66
     1
  6
CONTINUOUS
  0
VERTEX
  8
LAYER1
 62
     7
  6
CONTINUOUS
 10
10.4058
 20
6.5253
  0
VERTEX
  8
LAYER1
 62
     7
  6
CONTINUOUS
 10
10.4058
 20
6.5253
  0
VERTEX
  8
LAYER1
 62
     7
  6
CONTINUOUS
 10
10.4058
 20
6.5253
  0
VERTEX
  8
LAYER1
 62
     7
  6
CONTINUOUS
 10
10.4058
 20
6.5253
  0
VERTEX
  8
LAYER1
 62
     7
  6
CONTINUOUS
 10
10.4058
 20
6.5253
  0
VERTEX
  8
LAYER1
 62
     7
  6
CONTINUOUS
 10
10.4058
 20
6.5253
  0
VERTEX
  8
LAYER1
 62
     7
  6
CONTINUOUS
 10
10.4058
 20
6.5253
  0
VERTEX
  8
LAYER1
 62
     7
  6
CONTINUOUS
 10
10.4058
 20
6.5253
  0
VERTEX
  8
LAYER1
 62
     7
  6
CONTINUOUS
 10
10.4058
 20
6.5253
  0
VERTEX
  8
LAYER1
 62
     7
  6
CONTINUOUS
 10
10.4058
 20
6.5253
  0
VERTEX
  8
LAYER1
 62
     7
  6
CONTINUOUS
 10
10.4058
 20
6.5253
  0
VERTEX
  8
LAYER1
 62
     7
  6
CONTINUOUS
 10
10.4058
 20
6.5253
  0
VERTEX
  8
LAYER1
 62
     7
  6
CONTINUOUS
 10
10.4058
 20
6.5253
  0
VERTEX
  8
LAYER1
 62
     7
  6
CONTINUOUS
 10
10.4058
 20
6.5253
  0
VERTEX
  8
LAYER1
 62
     7
  6
CONTINUOUS
 10
10.4058
 20
6.5253
  0
VERTEX
  8
LAYER1
 62
     7
  6
CONTINUOUS
 10
10.4058
 20
6.5253
  0
VERTEX
  8
LAYER1
 62
     7
  6
CONTINUOUS
 10
10.4058
 20
6.5253
  0
VERTEX
  8
LAYER1
 62
     7
  6
CONTINUOUS
 10
10.4058
 20
6.5253
  0
VERTEX
  8
LAYER1
 62
     7
  6
CONTINUOUS
 10
10.4058
 20
6.5253
  0
VERTEX
  8
LAYER1
 62
     7
  6
CONTINUOUS
 10
10.4058
 20
6.5253
  0
VERTEX
  8
LAYER1
 62
     7
  6
CONTINUOUS
 10
10.4058
 20
6.5253
  0
VERTEX
  8
LAYER1
 62
     7
  6
CONTINUOUS
 10
10.4058
 20
6.5253
  0
VERTEX
  8
LAYER1
 62
     7
  6
CONTINUOUS
 10
10.4058
 20
6.5253
  0
VERTEX
  8
LAYER1
 62
     7
  6
CONTINUOUS
 10
10.4058
 20
6.5253
  0
VERTEX
  8
LAYER1
 62
     7
  6
CONTINUOUS
 10
10.4058
 20
6.5253
  0
SEQEND
  8
LAYER1
  0
POLYLINE
  8
LAYER1
 62
     7
 66
     1
  6
CONTINUOUS
  0
VERTEX
  8
LAYER1
 62
     7
  6
CONTINUOUS
 10
10.4058
 20
6.5253
  0
VERTEX
  8
LAYER1
 62
     7
  6
CONTINUOUS
 10
10.4058
 20
6.5253
  0
VERTEX
  8
LAYER1
 62
     7
  6
CONTINUOUS
 10
10.4058
 20
6.5253
  0
VERTEX
  8
LAYER1
 62
     7
  6
CONTINUOUS
 10
10.4058
 20
6.5253
  0
VERTEX
  8
LAYER1
 62
     7
  6
CONTINUOUS
 10
10.4058
 20
6.5253
  0
VERTEX
  8
LAYER1
 62
     7
  6
CONTINUOUS
 10
10.4058
 20
6.5253
  0
VERTEX
  8
LAYER1
 62
     7
  6
CONTINUOUS
 10
10.4058
 20
6.5253
  0
VERTEX
  8
LAYER1
 62
     7
  6
CONTINUOUS
 10
10.4058
 20
6.5253
  0
VERTEX
  8
LAYER1
 62
     7
  6
CONTINUOUS
 10
10.4058
 20
6.5253
  0
VERTEX
  8
LAYER1
 62
     7
  6
CONTINUOUS
 10
10.4058
 20
6.5253
  0
VERTEX
  8
LAYER1
 62
     7
  6
CONTINUOUS
 10
10.4058
 20
6.5253
  0
VERTEX
  8
LAYER1
 62
     7
  6
CONTINUOUS
 10
10.4058
 20
6.5253
  0
VERTEX
  8
LAYER1
 62
     7
  6
CONTINUOUS
 10
10.4058
 20
6.5253
  0
VERTEX
  8
LAYER1
 62
     7
  6
CONTINUOUS
 10
10.4061
 20
6.5253
  0
VERTEX
  8
LAYER1
 62
     7
  6
CONTINUOUS
 10
10.4064
 20
6.5253
  0
VERTEX
  8
LAYER1
 62
     7
  6
CONTINUOUS
 10
10.4066
 20
6.5253
  0
VERTEX
  8
LAYER1
 62
     7
  6
CONTINUOUS
 10
10.4066
 20
6.5253
  0
VERTEX
  8
LAYER1
 62
     7
  6
CONTINUOUS
 10
10.4067
 20
6.5253
  0
VERTEX
  8
LAYER1
 62
     7
  6
CONTINUOUS
 10
10.4067
 20
6.5253
  0
VERTEX
  8
LAYER1
 62
     7
  6
CONTINUOUS
 10
10.4066
 20
6.5253
  0
VERTEX
  8
LAYER1
 62
     7
  6
CONTINUOUS
 10
10.4065
 20
6.5253
  0
VERTEX
  8
LAYER1
 62
     7
  6
CONTINUOUS
 10
10.4063
 20
6.5253
  0
VERTEX
  8
LAYER1
 62
     7
  6
CONTINUOUS
 10
10.4062
 20
6.5253
  0
VERTEX
  8
LAYER1
 62
     7
  6
CONTINUOUS
 10
10.4060
 20
6.5253
  0
VERTEX
  8
LAYER1
 62
     7
  6
CONTINUOUS
 10
10.4058
 20
6.5253
  0
SEQEND
  8
LAYER1
  0
ARC
  8
LAYER1
 62
     7
  6
CONTINUOUS
 10
11.0241
 20
6.5248
 40
0.0076
 50
-89.2874
 51
-84.8763
  0
ARC
  8
LAYER1
 62
     7
  6
CONTINUOUS
 10
11.0246
 20
6.0130
 40
0.0256
 50
-97.5203
 51
-89.5589
  0
ARC
  8
LAYER1
 62
     7
  6
CONTINUOUS
 10
11.0246
 20
6.0130
 40
0.0256
 50
89.5590
 51
97.5192
  0
ARC
  8
LAYER1
 62
     7
  6
CONTINUOUS
 10
11.0024
 20
5.8315
 40
0.0257
 50
29.2335
 51
42.7747
  0
ARC
  8
LAYER1
 62
     7
  6
CONTINUOUS
 10
11.0024
 20
5.8315
 40
0.0257
 50
-42.7671
 51
-29.2249
  0
ARC
  8
LAYER1
 62
     7
  6
CONTINUOUS
 10
10.0275
 20
6.0797
 40
0.0169
 50
-25.6526
 51
43.4380
  0
ARC
  8
LAYER1
 62
     7
  6
CONTINUOUS
 10
10.0275
 20
6.0797
 40
0.0169
 50
-47.8137
 51
-43.4377
  0
ARC
  8
LAYER1
 62
     7
  6
CONTINUOUS
 10
10.0530
 20
6.0600
 40
0.0161
 50
-50.4131
 51
145.2125
  0
ARC
  8
LAYER1
 62
     7
  6
CONTINUOUS
 10
10.0530
 20
6.0600
 40
0.0161
 50
-151.4274
 51
-145.1856
  0
POLYLINE
  8
LAYER12
 62
     5
 66
     1
  6
CONTINUOUS
  0
VERTEX
  8
LAYER12
 62
     5
  6
CONTINUOUS
 10
10.0428
 20
6.5235
  0
VERTEX
  8
LAYER12
 62
     5
  6
CONTINUOUS
 10
10.0467
 20
6.5235
  0
SEQEND
  8
LAYER12
  0
POLYLINE
  8
LAYER12
 62
     5
 66
     1
  6
CONTINUOUS
  0
VERTEX
  8
LAYER12
 62
     5
  6
CONTINUOUS
 10
10.0388
 20
5.5398
  0
VERTEX
  8
LAYER12
 62
     5
  6
CONTINUOUS
 10
10.0388
 20
5.5398
  0
SEQEND
  8
LAYER12
  0
POLYLINE
  8
LAYER12
 62
     5
 66
     1
  6
CONTINUOUS
  0
VERTEX
  8
LAYER12
 62
     5
  6
CONTINUOUS
 10
10.0467
 20
6.5235
  0
VERTEX
  8
LAYER12
 62
     5
  6
CONTINUOUS
 10
11.0142
 20
6.5235
  0
SEQEND
  8
LAYER12
  0
POLYLINE
  8
LAYER12
 62
     5
 66
     1
  6
CONTINUOUS
  0
VERTEX
  8
LAYER12
 62
     5
  6
CONTINUOUS
 10
11.0142
 20
6.5235
  0
VERTEX
  8
LAYER12
 62
     5
  6
CONTINUOUS
 10
11.0213
 20
6.5235
  0
SEQEND
  8
LAYER12
  0
POLYLINE
  8
LAYER12
 62
     5
 66
     1
  6
CONTINUOUS
  0
VERTEX
  8
LAYER12
 62
     5
  6
CONTINUOUS
 10
11.0235
 20
5.5403
  0
VERTEX
  8
LAYER12
 62
     5
  6
CONTINUOUS
 10
11.0235
 20
6.5218
  0
SEQEND
  8
LAYER12
  0
POLYLINE
  8
LAYER12
 62
     5
 66
     1
  6
CONTINUOUS
  0
VERTEX
  8
LAYER12
 62
     5
  6
CONTINUOUS
 10
11.0235
 20
6.5218
  0
VERTEX
  8
LAYER12
 62
     5
  6
CONTINUOUS
 10
11.0235
 20
6.5253
  0
SEQEND
  8
LAYER12
  0
POLYLINE
  8
LAYER12
 62
     5
 66
     1
  6
CONTINUOUS
  0
VERTEX
  8
LAYER12
 62
     5
  6
CONTINUOUS
 10
11.0248
 20
5.5398
  0
VERTEX
  8
LAYER12
 62
     5
  6
CONTINUOUS
 10
11.0213
 20
5.5398
  0
SEQEND
  8
LAYER12
  0
POLYLINE
  8
LAYER12
 62
     5
 66
     1
  6
CONTINUOUS
  0
VERTEX
  8
LAYER12
 62
     5
  6
CONTINUOUS
 10
11.0213
 20
5.5398
  0
VERTEX
  8
LAYER12
 62
     5
  6
CONTINUOUS
 10
10.0398
 20
5.5398
  0
SEQEND
  8
LAYER12
  0
POLYLINE
  8
LAYER12
 62
     5
 66
     1
  6
CONTINUOUS
  0
VERTEX
  8
LAYER12
 62
     5
  6
CONTINUOUS
 10
10.0398
 20
5.5398
  0
VERTEX
  8
LAYER12
 62
     5
  6
CONTINUOUS
 10
10.0398
 20
5.5398
  0
SEQEND
  8
LAYER12
  0
POLYLINE
  8
LAYER12
 62
     5
 66
     1
  6
CONTINUOUS
  0
VERTEX
  8
LAYER12
 62
     5
  6
CONTINUOUS
 10
10.0398
 20
5.5398
  0
VERTEX
  8
LAYER12
 62
     5
  6
CONTINUOUS
 10
10.0398
 20
5.5398
  0
SEQEND
  8
LAYER12
  0
POLYLINE
  8
LAYER12
 62
     5
 66
     1
  6
CONTINUOUS
  0
VERTEX
  8
LAYER12
 62
     5
  6
CONTINUOUS
 10
10.0398
 20
5.5398
  0
VERTEX
  8
LAYER12
 62
     5
  6
CONTINUOUS
 10
10.0388
 20
5.5398
  0
SEQEND
  8
LAYER12
  0
POLYLINE
  8
LAYER12
 62
     5
 66
     1
  6
CONTINUOUS
  0
VERTEX
  8
LAYER12
 62
     5
  6
CONTINUOUS
 10
10.0398
 20
5.5399
  0
VERTEX
  8
LAYER12
 62
     5
  6
CONTINUOUS
 10
10.0398
 20
5.5403
  0
SEQEND
  8
LAYER12
  0
POLYLINE
  8
LAYER12
 62
     5
 66
     1
  6
CONTINUOUS
  0
VERTEX
  8
LAYER12
 62
     5
  6
CONTINUOUS
 10
10.0398
 20
5.5403
  0
VERTEX
  8
LAYER12
 62
     5
  6
CONTINUOUS
 10
10.0398
 20
5.5403
  0
SEQEND
  8
LAYER12
  0
POLYLINE
  8
LAYER12
 62
     5
 66
     1
  6
CONTINUOUS
  0
VERTEX
  8
LAYER12
 62
     5
  6
CONTINUOUS
 10
10.0398
 20
5.5403
  0
VERTEX
  8
LAYER12
 62
     5
  6
CONTINUOUS
 10
10.0398
 20
5.5403
  0
SEQEND
  8
LAYER12
  0
POLYLINE
  8
LAYER12
 62
     5
 66
     1
  6
CONTINUOUS
  0
VERTEX
  8
LAYER12
 62
     5
  6
CONTINUOUS
 10
11.0213
 20
6.5235
  0
VERTEX
  8
LAYER12
 62
     5
  6
CONTINUOUS
 10
11.0248
 20
6.5235
  0
SEQEND
  8
LAYER12
  0
POLYLINE
  8
LAYER12
 62
     5
 66
     1
  6
CONTINUOUS
  0
VERTEX
  8
LAYER12
 62
     5
  6
CONTINUOUS
 10
10.0388
 20
6.5235
  0
VERTEX
  8
LAYER12
 62
     5
  6
CONTINUOUS
 10
10.0398
 20
6.5235
  0
SEQEND
  8
LAYER12
  0
POLYLINE
  8
LAYER12
 62
     5
 66
     1
  6
CONTINUOUS
  0
VERTEX
  8
LAYER12
 62
     5
  6
CONTINUOUS
 10
10.0398
 20
6.5235
  0
VERTEX
  8
LAYER12
 62
     5
  6
CONTINUOUS
 10
10.0428
 20
6.5235
  0
SEQEND
  8
LAYER12
  0
POLYLINE
  8
LAYER12
 62
     5
 66
     1
  6
CONTINUOUS
  0
VERTEX
  8
LAYER12
 62
     5
  6
CONTINUOUS
 10
10.0398
 20
6.5253
  0
VERTEX
  8
LAYER12
 62
     5
  6
CONTINUOUS
 10
10.0398
 20
6.5267
  0
SEQEND
  8
LAYER12
  0
POLYLINE
  8
LAYER12
 62
     5
 66
     1
  6
CONTINUOUS
  0
VERTEX
  8
LAYER12
 62
     5
  6
CONTINUOUS
 10
10.0398
 20
6.5267
  0
VERTEX
  8
LAYER12
 62
     5
  6
CONTINUOUS
 10
10.0398
 20
6.5228
  0
SEQEND
  8
LAYER12
  0
POLYLINE
  8
LAYER12
 62
     5
 66
     1
  6
CONTINUOUS
  0
VERTEX
  8
LAYER12
 62
     5
  6
CONTINUOUS
 10
10.0398
 20
6.5228
  0
VERTEX
  8
LAYER12
 62
     5
  6
CONTINUOUS
 10
10.0398
 20
6.5218
  0
SEQEND
  8
LAYER12
  0
POLYLINE
  8
LAYER12
 62
     5
 66
     1
  6
CONTINUOUS
  0
VERTEX
  8
LAYER12
 62
     5
  6
CONTINUOUS
 10
10.0398
 20
6.5218
  0
VERTEX
  8
LAYER12
 62
     5
  6
CONTINUOUS
 10
10.0398
 20
5.5403
  0
SEQEND
  8
LAYER12
  0
POLYLINE
  8
LAYER12
 62
     5
 66
     1
  6
CONTINUOUS
  0
VERTEX
  8
LAYER12
 62
     5
  6
CONTINUOUS
 10
10.0398
 20
5.5403
  0
VERTEX
  8
LAYER12
 62
     5
  6
CONTINUOUS
 10
10.0398
 20
5.5399
  0
SEQEND
  8
LAYER12
  0
ENDSEC
  0
EOF
