  0
SECTION
  2
HEADER
  9
$ACADVER
  1
AC1004
  9
$EXTMIN
 10
12.0418
 20
5.5369
  9
$EXTMAX
 10
13.0359
 20
6.5259
  9
$LIMMIN
 10
12.0418
 20
5.5369
  9
$LIMMAX
 10
13.0359
 20
6.5259
  9
$INSBASE
 10
0.0
 20
0.0
  9
$VIEWCTR
 10
7.21903
 20
4.5
  9
$VIEWSIZE
 40
9.0
  9
$SNAPMODE
 70
     0
  9
$SNAPUNIT
 10
1.0
 20
1.0
  9
$SNAPBASE
 10
0.0
 20
0.0
  9
$SNAPANG
 50
0.0
  9
$SNAPSTYLE
 70
     0
  9
$SNAPISOPAIR
 70
     0
  9
$GRIDMODE
 70
     0
  9
$GRIDUNIT
 10
0.0
 20
0.0
  9
$ORTHOMODE
 70
     0
  9
$REGENMODE
 70
     1
  9
$FILLMODE
 70
     1
  9
$QTEXTMODE
 70
     0
  9
$DRAGMODE
 70
     2
  9
$LTSCALE
 40
1.0
  9
$OSMODE
 70
     0
  9
$ATTMODE
 70
     1
  9
$TEXTSIZE
 40
0.2
  9
$TRACEWID
 40
0.05
  9
$TEXTSTYLE
  7
STANDARD
  9
$CLAYER
  8
0
  9
$CELTYPE
  6
BYLAYER
  9
$CECOLOR
 62
   256
  9
$DIMSCALE
 40
1.0
  9
$DIMASZ
 40
0.18
  9
$DIMEXO
 40
0.0625
  9
$DIMDLI
 40
0.38
  9
$DIMRND
 40
0.0
  9
$DIMDLE
 40
0.0
  9
$DIMEXE
 40
0.18
  9
$DIMTP
 40
0.0
  9
$DIMTM
 40
0.0
  9
$DIMTXT
 40
0.18
  9
$DIMCEN
 40
0.09
  9
$DIMTSZ
 40
0.0
  9
$DIMTOL
 70
     0
  9
$DIMLIM
 70
     0
  9
$DIMTIH
 70
     1
  9
$DIMTOH
 70
     1
  9
$DIMSE1
 70
     0
  9
$DIMSE2
 70
     0
  9
$DIMTAD
 70
     0
  9
$DIMZIN
 70
     0
  9
$DIMBLK
  1

  9
$DIMASO
 70
     1
  9
$DIMSHO
 70
     0
  9
$DIMPOST
  1

  9
$DIMAPOST
  1

  9
$DIMALT
 70
     0
  9
$DIMALTD
 70
     2
  9
$DIMALTF
 40
25.4
  9
$DIMLFAC
 40
1.0
  9
$LUNITS
 70
     2
  9
$LUPREC
 70
     4
  9
$AXISMODE
 70
     0
  9
$AXISUNIT
 10
0.0
 20
0.0
  9
$SKETCHINC
 40
0.1
  9
$FILLETRAD
 40
0.0
  9
$AUNITS
 70
     0
  9
$AUPREC
 70
     0
  9
$MENU
  1
acad
  9
$ELEVATION
 40
0.0
  9
$THICKNESS
 40
0.0
  9
$VIEWDIR
 10
0.0
 20
0.0
 30
1.0
  9
$LIMCHECK
 70
     0
  9
$BLIPMODE
 70
     1
  9
$CHAMFERA
 40
0.0
  9
$CHAMFERB
 40
0.0
  9
$FASTZOOM
 70
     1
  9
$SKPOLY
 70
     0
  9
$TDCREATE
 40
2447222.5666886573
  9
$TDUPDATE
 40
2447222.5666886573
  9
$TDINDWG
 40
0.0000000000
  9
$TDUSRTIMER
 40
0.0000000000
  9
$USRTIMER
 70
     1
  9
$ANGBASE
 50
0.0
  9
$ANGDIR
 70
     0
  9
$PDMODE
 70
     0
  9
$PDSIZE
 40
0.0
  9
$PLINEWID
 40
0.0
  9
$COORDS
 70
     0
  9
$SPLFRAME
 70
     0
  9
$SPLINESEGS
 70
     8
  9
$ATTDIA
 70
     0
  9
$ATTREQ
 70
     1
  9
$USERI1
 70
     0
  9
$USERI2
 70
     0
  9
$USERI3
 70
     0
  9
$USERI4
 70
     0
  9
$USERI5
 70
     0
  9
$USERR1
 40
0.0
  9
$USERR2
 40
0.0
  9
$USERR3
 40
0.0
  9
$USERR4
 40
0.0
  9
$USERR5
 40
0.0
  0
ENDSEC
  0
SECTION
  2
TABLES
  0
TABLE
  2
LTYPE
 70
     13
  0
LTYPE
  2
CONTINUOUS
 70
    64
  3
Solid line
 72
    65
 73
     0
 40
0.0
  0
LTYPE
  2
DASHED
 70
    64
  3
__ __ __ __ __ __ __ __ __ __ __ __ __ __ __
 72
    65
 73
     2
 40
0.75
 49
0.5
 49
-0.25
  0
LTYPE
  2
HIDDEN
 70
    64
  3
_ _ _ _ _ _ _ _ _ _ _ _ _ _ _ _ _ _ _ _ _ _ _
 72
    65
 73
     2
 40
0.375
 49
0.25
 49
-0.125
  0
LTYPE
  2
CENTER
 70
    64
  3
____ _ ____ _ ____ _ ____ _ ____ _ ____ _ ____
 72
    65
 73
     4
 40
2.0
 49
1.25
 49
-0.25
 49
0.25
 49
-0.25
  0
LTYPE
  2
PHANTOM
 70
    64
  3
_____ _ _ _____ _ _ _____ _ _ _____ _ _ ____
 72
    65
 73
     6
 40
2.5
 49
1.25
 49
-0.25
 49
0.25
 49
-0.25
 49
0.25
 49
-0.25
  0
LTYPE
  2
DOT
 70
    64
  3
...............................................
 72
    65
 73
     2
 40
0.25
 49
0.0
 49
-0.25
  0
LTYPE
  2
DASHDOT
 70
    64
  3
__ . __ . __ . __ . __ . __ . __ . __ . __ . __
 72
    65
 73
     4
 40
1.0
 49
0.5
 49
-0.25
 49
0.0
 49
-0.25
  0
LTYPE
  2
BORDER
 70
    64
  3
__ __ . __ __ . __ __ . __ __ . __ __ . __ __
 72
    65
 73
     6
 40
1.75
 49
0.5
 49
-0.25
 49
0.5
 49
-0.25
 49
0.0
 49
-0.25
  0
LTYPE
  2
DIVIDE
 70
    64
  3
__ . . __ . . __ . . __ . . __ . . __ . . __
 72
    65
 73
     6
 40
1.25
 49
0.5
 49
-0.25
 49
0.0
 49
-0.25
 49
0.0
 49
-0.25
  0
LTYPE
  2
DCTYPE1
 70
    64
  3
__ . . __ . . __ . . __ . . __ . . __ . . __
 72
    65
 73
     8
 40
2.5
 49
0.5
 49
-0.25
 49
0.125
 49
-0.25
 49
0.25
 49
-0.25
 49
0.125
 49
-0.25
  0
LTYPE
  2
DCTYPE2
 70
    64
  3
__ . . __ . . __ . . __ . . __ . . __ . . __
 72
    65
 73
     6
 40
2.05
 49
1.0
 49
-0.3
 49
0.15
 49
-0.15
 49
0.15
 49
-0.3
  0
LTYPE
  2
DCTYPE3
 70
    64
  3
__ . . __ . . __ . . __ . . __ . . __ . . __
 72
    65
 73
     6
 40
2.5
 49
0.8
 49
-0.2
 49
0.8
 49
-0.2
 49
0.3
 49
-0.2
  0
LTYPE
  2
DCTYPE4
 70
    64
  3
__ . . __ . . __ . . __ . . __ . . __ . . __
 72
    65
 73
     10
 40
3.97
 49
1.75
 49
-0.3
 49
0.3
 49
-0.3
 49
0.06
 49
-0.3
 49
0.06
 49
-0.3
 49
0.3
 49
-0.3
  0
ENDTAB
  0
TABLE
  2
LAYER
 70
    153
  0
LAYER
  2
LAYER1
 70
 64
 62
     7
  6
CONTINUOUS
  0
LAYER
  2
LAYER10
 70
 64
 62
     1
  6
CONTINUOUS
  0
LAYER
  2
LAYER12
 70
 64
 62
     5
  6
CONTINUOUS
  0
ENDTAB
  0
ENDSEC
  0
SECTION
  2
BLOCKS
  0
ENDSEC
  0
SECTION
  2
ENTITIES
  0
CIRCLE
  8
LAYER1
 62
     7
  6
CONTINUOUS
 10
12.8812
 20
5.6811
 40
0.0450
  0
CIRCLE
  8
LAYER1
 62
     7
  6
CONTINUOUS
 10
12.6753
 20
6.1205
 40
0.0203
  0
CIRCLE
  8
LAYER1
 62
     7
  6
CONTINUOUS
 10
12.4851
 20
6.0645
 40
0.0239
  0
POLYLINE
  8
LAYER1
 62
     7
 66
     1
  6
CONTINUOUS
  0
VERTEX
  8
LAYER1
 62
     7
  6
CONTINUOUS
 10
12.0418
 20
5.6423
  0
VERTEX
  8
LAYER1
 62
     7
  6
CONTINUOUS
 10
12.0418
 20
5.6423
  0
VERTEX
  8
LAYER1
 62
     7
  6
CONTINUOUS
 10
12.0418
 20
5.6423
  0
VERTEX
  8
LAYER1
 62
     7
  6
CONTINUOUS
 10
12.0419
 20
5.6422
  0
VERTEX
  8
LAYER1
 62
     7
  6
CONTINUOUS
 10
12.0419
 20
5.6422
  0
VERTEX
  8
LAYER1
 62
     7
  6
CONTINUOUS
 10
12.0419
 20
5.6422
  0
VERTEX
  8
LAYER1
 62
     7
  6
CONTINUOUS
 10
12.0419
 20
5.6422
  0
VERTEX
  8
LAYER1
 62
     7
  6
CONTINUOUS
 10
12.0420
 20
5.6422
  0
VERTEX
  8
LAYER1
 62
     7
  6
CONTINUOUS
 10
12.0420
 20
5.6422
  0
VERTEX
  8
LAYER1
 62
     7
  6
CONTINUOUS
 10
12.0420
 20
5.6422
  0
VERTEX
  8
LAYER1
 62
     7
  6
CONTINUOUS
 10
12.0421
 20
5.6422
  0
VERTEX
  8
LAYER1
 62
     7
  6
CONTINUOUS
 10
12.0421
 20
5.6422
  0
VERTEX
  8
LAYER1
 62
     7
  6
CONTINUOUS
 10
12.0421
 20
5.6422
  0
VERTEX
  8
LAYER1
 62
     7
  6
CONTINUOUS
 10
12.0424
 20
5.6421
  0
VERTEX
  8
LAYER1
 62
     7
  6
CONTINUOUS
 10
12.0426
 20
5.6421
  0
VERTEX
  8
LAYER1
 62
     7
  6
CONTINUOUS
 10
12.0428
 20
5.6421
  0
VERTEX
  8
LAYER1
 62
     7
  6
CONTINUOUS
 10
12.0429
 20
5.6420
  0
VERTEX
  8
LAYER1
 62
     7
  6
CONTINUOUS
 10
12.0429
 20
5.6420
  0
VERTEX
  8
LAYER1
 62
     7
  6
CONTINUOUS
 10
12.0429
 20
5.6420
  0
VERTEX
  8
LAYER1
 62
     7
  6
CONTINUOUS
 10
12.0428
 20
5.6420
  0
VERTEX
  8
LAYER1
 62
     7
  6
CONTINUOUS
 10
12.0427
 20
5.6421
  0
VERTEX
  8
LAYER1
 62
     7
  6
CONTINUOUS
 10
12.0426
 20
5.6421
  0
VERTEX
  8
LAYER1
 62
     7
  6
CONTINUOUS
 10
12.0424
 20
5.6421
  0
VERTEX
  8
LAYER1
 62
     7
  6
CONTINUOUS
 10
12.0423
 20
5.6422
  0
VERTEX
  8
LAYER1
 62
     7
  6
CONTINUOUS
 10
12.0421
 20
5.6422
  0
SEQEND
  8
LAYER1
  0
POLYLINE
  8
LAYER1
 62
     7
 66
     1
  6
CONTINUOUS
  0
VERTEX
  8
LAYER1
 62
     7
  6
CONTINUOUS
 10
12.0421
 20
5.6422
  0
VERTEX
  8
LAYER1
 62
     7
  6
CONTINUOUS
 10
12.0431
 20
5.6420
  0
VERTEX
  8
LAYER1
 62
     7
  6
CONTINUOUS
 10
12.0442
 20
5.6417
  0
VERTEX
  8
LAYER1
 62
     7
  6
CONTINUOUS
 10
12.0452
 20
5.6415
  0
VERTEX
  8
LAYER1
 62
     7
  6
CONTINUOUS
 10
12.0462
 20
5.6413
  0
VERTEX
  8
LAYER1
 62
     7
  6
CONTINUOUS
 10
12.0471
 20
5.6411
  0
VERTEX
  8
LAYER1
 62
     7
  6
CONTINUOUS
 10
12.0480
 20
5.6409
  0
VERTEX
  8
LAYER1
 62
     7
  6
CONTINUOUS
 10
12.0488
 20
5.6408
  0
VERTEX
  8
LAYER1
 62
     7
  6
CONTINUOUS
 10
12.0495
 20
5.6406
  0
VERTEX
  8
LAYER1
 62
     7
  6
CONTINUOUS
 10
12.0502
 20
5.6405
  0
VERTEX
  8
LAYER1
 62
     7
  6
CONTINUOUS
 10
12.0507
 20
5.6403
  0
VERTEX
  8
LAYER1
 62
     7
  6
CONTINUOUS
 10
12.0512
 20
5.6402
  0
VERTEX
  8
LAYER1
 62
     7
  6
CONTINUOUS
 10
12.0515
 20
5.6402
  0
VERTEX
  8
LAYER1
 62
     7
  6
CONTINUOUS
 10
12.0516
 20
5.6402
  0
VERTEX
  8
LAYER1
 62
     7
  6
CONTINUOUS
 10
12.0517
 20
5.6401
  0
VERTEX
  8
LAYER1
 62
     7
  6
CONTINUOUS
 10
12.0517
 20
5.6401
  0
VERTEX
  8
LAYER1
 62
     7
  6
CONTINUOUS
 10
12.0517
 20
5.6401
  0
VERTEX
  8
LAYER1
 62
     7
  6
CONTINUOUS
 10
12.0518
 20
5.6401
  0
VERTEX
  8
LAYER1
 62
     7
  6
CONTINUOUS
 10
12.0518
 20
5.6401
  0
VERTEX
  8
LAYER1
 62
     7
  6
CONTINUOUS
 10
12.0517
 20
5.6401
  0
VERTEX
  8
LAYER1
 62
     7
  6
CONTINUOUS
 10
12.0517
 20
5.6401
  0
VERTEX
  8
LAYER1
 62
     7
  6
CONTINUOUS
 10
12.0517
 20
5.6401
  0
VERTEX
  8
LAYER1
 62
     7
  6
CONTINUOUS
 10
12.0516
 20
5.6402
  0
VERTEX
  8
LAYER1
 62
     7
  6
CONTINUOUS
 10
12.0515
 20
5.6402
  0
VERTEX
  8
LAYER1
 62
     7
  6
CONTINUOUS
 10
12.0515
 20
5.6402
  0
SEQEND
  8
LAYER1
  0
POLYLINE
  8
LAYER1
 62
     7
 66
     1
  6
CONTINUOUS
  0
VERTEX
  8
LAYER1
 62
     7
  6
CONTINUOUS
 10
12.0515
 20
5.6402
  0
VERTEX
  8
LAYER1
 62
     7
  6
CONTINUOUS
 10
12.0539
 20
5.6390
  0
VERTEX
  8
LAYER1
 62
     7
  6
CONTINUOUS
 10
12.0563
 20
5.6379
  0
VERTEX
  8
LAYER1
 62
     7
  6
CONTINUOUS
 10
12.0587
 20
5.6367
  0
VERTEX
  8
LAYER1
 62
     7
  6
CONTINUOUS
 10
12.0610
 20
5.6354
  0
VERTEX
  8
LAYER1
 62
     7
  6
CONTINUOUS
 10
12.0633
 20
5.6341
  0
VERTEX
  8
LAYER1
 62
     7
  6
CONTINUOUS
 10
12.0655
 20
5.6328
  0
VERTEX
  8
LAYER1
 62
     7
  6
CONTINUOUS
 10
12.0677
 20
5.6314
  0
VERTEX
  8
LAYER1
 62
     7
  6
CONTINUOUS
 10
12.0698
 20
5.6299
  0
VERTEX
  8
LAYER1
 62
     7
  6
CONTINUOUS
 10
12.0719
 20
5.6283
  0
VERTEX
  8
LAYER1
 62
     7
  6
CONTINUOUS
 10
12.0738
 20
5.6265
  0
VERTEX
  8
LAYER1
 62
     7
  6
CONTINUOUS
 10
12.0756
 20
5.6247
  0
VERTEX
  8
LAYER1
 62
     7
  6
CONTINUOUS
 10
12.0773
 20
5.6227
  0
VERTEX
  8
LAYER1
 62
     7
  6
CONTINUOUS
 10
12.0792
 20
5.6202
  0
VERTEX
  8
LAYER1
 62
     7
  6
CONTINUOUS
 10
12.0809
 20
5.6176
  0
VERTEX
  8
LAYER1
 62
     7
  6
CONTINUOUS
 10
12.0824
 20
5.6149
  0
VERTEX
  8
LAYER1
 62
     7
  6
CONTINUOUS
 10
12.0840
 20
5.6120
  0
VERTEX
  8
LAYER1
 62
     7
  6
CONTINUOUS
 10
12.0855
 20
5.6092
  0
VERTEX
  8
LAYER1
 62
     7
  6
CONTINUOUS
 10
12.0870
 20
5.6064
  0
VERTEX
  8
LAYER1
 62
     7
  6
CONTINUOUS
 10
12.0885
 20
5.6037
  0
VERTEX
  8
LAYER1
 62
     7
  6
CONTINUOUS
 10
12.0901
 20
5.6011
  0
VERTEX
  8
LAYER1
 62
     7
  6
CONTINUOUS
 10
12.0918
 20
5.5987
  0
VERTEX
  8
LAYER1
 62
     7
  6
CONTINUOUS
 10
12.0937
 20
5.5965
  0
VERTEX
  8
LAYER1
 62
     7
  6
CONTINUOUS
 10
12.0957
 20
5.5945
  0
VERTEX
  8
LAYER1
 62
     7
  6
CONTINUOUS
 10
12.0979
 20
5.5929
  0
VERTEX
  8
LAYER1
 62
     7
  6
CONTINUOUS
 10
12.0997
 20
5.5919
  0
VERTEX
  8
LAYER1
 62
     7
  6
CONTINUOUS
 10
12.1015
 20
5.5911
  0
VERTEX
  8
LAYER1
 62
     7
  6
CONTINUOUS
 10
12.1034
 20
5.5905
  0
VERTEX
  8
LAYER1
 62
     7
  6
CONTINUOUS
 10
12.1054
 20
5.5900
  0
VERTEX
  8
LAYER1
 62
     7
  6
CONTINUOUS
 10
12.1075
 20
5.5896
  0
VERTEX
  8
LAYER1
 62
     7
  6
CONTINUOUS
 10
12.1097
 20
5.5892
  0
VERTEX
  8
LAYER1
 62
     7
  6
CONTINUOUS
 10
12.1119
 20
5.5890
  0
VERTEX
  8
LAYER1
 62
     7
  6
CONTINUOUS
 10
12.1141
 20
5.5888
  0
VERTEX
  8
LAYER1
 62
     7
  6
CONTINUOUS
 10
12.1164
 20
5.5887
  0
VERTEX
  8
LAYER1
 62
     7
  6
CONTINUOUS
 10
12.1186
 20
5.5885
  0
VERTEX
  8
LAYER1
 62
     7
  6
CONTINUOUS
 10
12.1209
 20
5.5884
  0
VERTEX
  8
LAYER1
 62
     7
  6
CONTINUOUS
 10
12.1232
 20
5.5883
  0
VERTEX
  8
LAYER1
 62
     7
  6
CONTINUOUS
 10
12.1254
 20
5.5881
  0
VERTEX
  8
LAYER1
 62
     7
  6
CONTINUOUS
 10
12.1276
 20
5.5879
  0
VERTEX
  8
LAYER1
 62
     7
  6
CONTINUOUS
 10
12.1298
 20
5.5877
  0
VERTEX
  8
LAYER1
 62
     7
  6
CONTINUOUS
 10
12.1319
 20
5.5874
  0
VERTEX
  8
LAYER1
 62
     7
  6
CONTINUOUS
 10
12.1341
 20
5.5871
  0
VERTEX
  8
LAYER1
 62
     7
  6
CONTINUOUS
 10
12.1362
 20
5.5868
  0
VERTEX
  8
LAYER1
 62
     7
  6
CONTINUOUS
 10
12.1383
 20
5.5864
  0
VERTEX
  8
LAYER1
 62
     7
  6
CONTINUOUS
 10
12.1403
 20
5.5859
  0
VERTEX
  8
LAYER1
 62
     7
  6
CONTINUOUS
 10
12.1424
 20
5.5854
  0
VERTEX
  8
LAYER1
 62
     7
  6
CONTINUOUS
 10
12.1444
 20
5.5849
  0
VERTEX
  8
LAYER1
 62
     7
  6
CONTINUOUS
 10
12.1464
 20
5.5843
  0
VERTEX
  8
LAYER1
 62
     7
  6
CONTINUOUS
 10
12.1484
 20
5.5836
  0
VERTEX
  8
LAYER1
 62
     7
  6
CONTINUOUS
 10
12.1515
 20
5.5825
  0
VERTEX
  8
LAYER1
 62
     7
  6
CONTINUOUS
 10
12.1546
 20
5.5812
  0
VERTEX
  8
LAYER1
 62
     7
  6
CONTINUOUS
 10
12.1576
 20
5.5798
  0
VERTEX
  8
LAYER1
 62
     7
  6
CONTINUOUS
 10
12.1606
 20
5.5783
  0
VERTEX
  8
LAYER1
 62
     7
  6
CONTINUOUS
 10
12.1636
 20
5.5767
  0
VERTEX
  8
LAYER1
 62
     7
  6
CONTINUOUS
 10
12.1665
 20
5.5750
  0
VERTEX
  8
LAYER1
 62
     7
  6
CONTINUOUS
 10
12.1695
 20
5.5733
  0
VERTEX
  8
LAYER1
 62
     7
  6
CONTINUOUS
 10
12.1724
 20
5.5715
  0
VERTEX
  8
LAYER1
 62
     7
  6
CONTINUOUS
 10
12.1753
 20
5.5697
  0
VERTEX
  8
LAYER1
 62
     7
  6
CONTINUOUS
 10
12.1782
 20
5.5678
  0
VERTEX
  8
LAYER1
 62
     7
  6
CONTINUOUS
 10
12.1810
 20
5.5660
  0
VERTEX
  8
LAYER1
 62
     7
  6
CONTINUOUS
 10
12.1839
 20
5.5641
  0
VERTEX
  8
LAYER1
 62
     7
  6
CONTINUOUS
 10
12.1870
 20
5.5621
  0
VERTEX
  8
LAYER1
 62
     7
  6
CONTINUOUS
 10
12.1901
 20
5.5602
  0
VERTEX
  8
LAYER1
 62
     7
  6
CONTINUOUS
 10
12.1931
 20
5.5582
  0
VERTEX
  8
LAYER1
 62
     7
  6
CONTINUOUS
 10
12.1962
 20
5.5563
  0
VERTEX
  8
LAYER1
 62
     7
  6
CONTINUOUS
 10
12.1992
 20
5.5543
  0
VERTEX
  8
LAYER1
 62
     7
  6
CONTINUOUS
 10
12.2022
 20
5.5523
  0
VERTEX
  8
LAYER1
 62
     7
  6
CONTINUOUS
 10
12.2052
 20
5.5503
  0
VERTEX
  8
LAYER1
 62
     7
  6
CONTINUOUS
 10
12.2081
 20
5.5483
  0
VERTEX
  8
LAYER1
 62
     7
  6
CONTINUOUS
 10
12.2110
 20
5.5462
  0
VERTEX
  8
LAYER1
 62
     7
  6
CONTINUOUS
 10
12.2139
 20
5.5440
  0
VERTEX
  8
LAYER1
 62
     7
  6
CONTINUOUS
 10
12.2167
 20
5.5418
  0
VERTEX
  8
LAYER1
 62
     7
  6
CONTINUOUS
 10
12.2195
 20
5.5395
  0
VERTEX
  8
LAYER1
 62
     7
  6
CONTINUOUS
 10
12.2198
 20
5.5393
  0
VERTEX
  8
LAYER1
 62
     7
  6
CONTINUOUS
 10
12.2200
 20
5.5391
  0
VERTEX
  8
LAYER1
 62
     7
  6
CONTINUOUS
 10
12.2203
 20
5.5389
  0
VERTEX
  8
LAYER1
 62
     7
  6
CONTINUOUS
 10
12.2206
 20
5.5387
  0
VERTEX
  8
LAYER1
 62
     7
  6
CONTINUOUS
 10
12.2208
 20
5.5384
  0
VERTEX
  8
LAYER1
 62
     7
  6
CONTINUOUS
 10
12.2211
 20
5.5382
  0
VERTEX
  8
LAYER1
 62
     7
  6
CONTINUOUS
 10
12.2213
 20
5.5380
  0
VERTEX
  8
LAYER1
 62
     7
  6
CONTINUOUS
 10
12.2216
 20
5.5378
  0
VERTEX
  8
LAYER1
 62
     7
  6
CONTINUOUS
 10
12.2218
 20
5.5376
  0
VERTEX
  8
LAYER1
 62
     7
  6
CONTINUOUS
 10
12.2221
 20
5.5374
  0
VERTEX
  8
LAYER1
 62
     7
  6
CONTINUOUS
 10
12.2223
 20
5.5371
  0
VERTEX
  8
LAYER1
 62
     7
  6
CONTINUOUS
 10
12.2226
 20
5.5369
  0
SEQEND
  8
LAYER1
  0
POLYLINE
  8
LAYER1
 62
     7
 66
     1
  6
CONTINUOUS
  0
VERTEX
  8
LAYER1
 62
     7
  6
CONTINUOUS
 10
12.0745
 20
5.5369
  0
VERTEX
  8
LAYER1
 62
     7
  6
CONTINUOUS
 10
12.0740
 20
5.5373
  0
VERTEX
  8
LAYER1
 62
     7
  6
CONTINUOUS
 10
12.0734
 20
5.5377
  0
VERTEX
  8
LAYER1
 62
     7
  6
CONTINUOUS
 10
12.0729
 20
5.5382
  0
VERTEX
  8
LAYER1
 62
     7
  6
CONTINUOUS
 10
12.0724
 20
5.5386
  0
VERTEX
  8
LAYER1
 62
     7
  6
CONTINUOUS
 10
12.0719
 20
5.5390
  0
VERTEX
  8
LAYER1
 62
     7
  6
CONTINUOUS
 10
12.0714
 20
5.5394
  0
VERTEX
  8
LAYER1
 62
     7
  6
CONTINUOUS
 10
12.0709
 20
5.5398
  0
VERTEX
  8
LAYER1
 62
     7
  6
CONTINUOUS
 10
12.0704
 20
5.5403
  0
VERTEX
  8
LAYER1
 62
     7
  6
CONTINUOUS
 10
12.0700
 20
5.5407
  0
VERTEX
  8
LAYER1
 62
     7
  6
CONTINUOUS
 10
12.0695
 20
5.5412
  0
VERTEX
  8
LAYER1
 62
     7
  6
CONTINUOUS
 10
12.0690
 20
5.5416
  0
VERTEX
  8
LAYER1
 62
     7
  6
CONTINUOUS
 10
12.0686
 20
5.5421
  0
VERTEX
  8
LAYER1
 62
     7
  6
CONTINUOUS
 10
12.0666
 20
5.5445
  0
VERTEX
  8
LAYER1
 62
     7
  6
CONTINUOUS
 10
12.0649
 20
5.5471
  0
VERTEX
  8
LAYER1
 62
     7
  6
CONTINUOUS
 10
12.0634
 20
5.5498
  0
VERTEX
  8
LAYER1
 62
     7
  6
CONTINUOUS
 10
12.0620
 20
5.5527
  0
VERTEX
  8
LAYER1
 62
     7
  6
CONTINUOUS
 10
12.0609
 20
5.5557
  0
VERTEX
  8
LAYER1
 62
     7
  6
CONTINUOUS
 10
12.0598
 20
5.5588
  0
VERTEX
  8
LAYER1
 62
     7
  6
CONTINUOUS
 10
12.0588
 20
5.5619
  0
VERTEX
  8
LAYER1
 62
     7
  6
CONTINUOUS
 10
12.0577
 20
5.5650
  0
VERTEX
  8
LAYER1
 62
     7
  6
CONTINUOUS
 10
12.0567
 20
5.5681
  0
VERTEX
  8
LAYER1
 62
     7
  6
CONTINUOUS
 10
12.0556
 20
5.5712
  0
VERTEX
  8
LAYER1
 62
     7
  6
CONTINUOUS
 10
12.0543
 20
5.5742
  0
VERTEX
  8
LAYER1
 62
     7
  6
CONTINUOUS
 10
12.0529
 20
5.5771
  0
VERTEX
  8
LAYER1
 62
     7
  6
CONTINUOUS
 10
12.0528
 20
5.5773
  0
VERTEX
  8
LAYER1
 62
     7
  6
CONTINUOUS
 10
12.0527
 20
5.5775
  0
VERTEX
  8
LAYER1
 62
     7
  6
CONTINUOUS
 10
12.0526
 20
5.5777
  0
VERTEX
  8
LAYER1
 62
     7
  6
CONTINUOUS
 10
12.0524
 20
5.5779
  0
VERTEX
  8
LAYER1
 62
     7
  6
CONTINUOUS
 10
12.0523
 20
5.5781
  0
VERTEX
  8
LAYER1
 62
     7
  6
CONTINUOUS
 10
12.0522
 20
5.5783
  0
VERTEX
  8
LAYER1
 62
     7
  6
CONTINUOUS
 10
12.0521
 20
5.5785
  0
VERTEX
  8
LAYER1
 62
     7
  6
CONTINUOUS
 10
12.0520
 20
5.5787
  0
VERTEX
  8
LAYER1
 62
     7
  6
CONTINUOUS
 10
12.0519
 20
5.5790
  0
VERTEX
  8
LAYER1
 62
     7
  6
CONTINUOUS
 10
12.0517
 20
5.5792
  0
VERTEX
  8
LAYER1
 62
     7
  6
CONTINUOUS
 10
12.0516
 20
5.5794
  0
VERTEX
  8
LAYER1
 62
     7
  6
CONTINUOUS
 10
12.0515
 20
5.5796
  0
SEQEND
  8
LAYER1
  0
POLYLINE
  8
LAYER1
 62
     7
 66
     1
  6
CONTINUOUS
  0
VERTEX
  8
LAYER1
 62
     7
  6
CONTINUOUS
 10
12.0515
 20
5.5796
  0
VERTEX
  8
LAYER1
 62
     7
  6
CONTINUOUS
 10
12.0504
 20
5.5814
  0
VERTEX
  8
LAYER1
 62
     7
  6
CONTINUOUS
 10
12.0493
 20
5.5831
  0
VERTEX
  8
LAYER1
 62
     7
  6
CONTINUOUS
 10
12.0483
 20
5.5849
  0
VERTEX
  8
LAYER1
 62
     7
  6
CONTINUOUS
 10
12.0472
 20
5.5865
  0
VERTEX
  8
LAYER1
 62
     7
  6
CONTINUOUS
 10
12.0463
 20
5.5881
  0
VERTEX
  8
LAYER1
 62
     7
  6
CONTINUOUS
 10
12.0454
 20
5.5896
  0
VERTEX
  8
LAYER1
 62
     7
  6
CONTINUOUS
 10
12.0446
 20
5.5909
  0
VERTEX
  8
LAYER1
 62
     7
  6
CONTINUOUS
 10
12.0438
 20
5.5921
  0
VERTEX
  8
LAYER1
 62
     7
  6
CONTINUOUS
 10
12.0432
 20
5.5931
  0
VERTEX
  8
LAYER1
 62
     7
  6
CONTINUOUS
 10
12.0427
 20
5.5939
  0
VERTEX
  8
LAYER1
 62
     7
  6
CONTINUOUS
 10
12.0423
 20
5.5946
  0
VERTEX
  8
LAYER1
 62
     7
  6
CONTINUOUS
 10
12.0421
 20
5.5949
  0
VERTEX
  8
LAYER1
 62
     7
  6
CONTINUOUS
 10
12.0421
 20
5.5950
  0
VERTEX
  8
LAYER1
 62
     7
  6
CONTINUOUS
 10
12.0420
 20
5.5950
  0
VERTEX
  8
LAYER1
 62
     7
  6
CONTINUOUS
 10
12.0420
 20
5.5951
  0
VERTEX
  8
LAYER1
 62
     7
  6
CONTINUOUS
 10
12.0420
 20
5.5951
  0
VERTEX
  8
LAYER1
 62
     7
  6
CONTINUOUS
 10
12.0420
 20
5.5951
  0
VERTEX
  8
LAYER1
 62
     7
  6
CONTINUOUS
 10
12.0420
 20
5.5951
  0
VERTEX
  8
LAYER1
 62
     7
  6
CONTINUOUS
 10
12.0420
 20
5.5951
  0
VERTEX
  8
LAYER1
 62
     7
  6
CONTINUOUS
 10
12.0420
 20
5.5950
  0
VERTEX
  8
LAYER1
 62
     7
  6
CONTINUOUS
 10
12.0420
 20
5.5950
  0
VERTEX
  8
LAYER1
 62
     7
  6
CONTINUOUS
 10
12.0421
 20
5.5950
  0
VERTEX
  8
LAYER1
 62
     7
  6
CONTINUOUS
 10
12.0421
 20
5.5950
  0
VERTEX
  8
LAYER1
 62
     7
  6
CONTINUOUS
 10
12.0421
 20
5.5949
  0
SEQEND
  8
LAYER1
  0
ARC
  8
LAYER1
 62
     7
  6
CONTINUOUS
 10
12.1262
 20
5.5581
 40
0.0263
 50
-53.9110
 51
-126.0874
  0
POLYLINE
  8
LAYER10
 62
     1
 66
     1
  6
CONTINUOUS
  0
VERTEX
  8
LAYER10
 62
     1
  6
CONTINUOUS
 10
12.0515
 20
6.3612
  0
VERTEX
  8
LAYER10
 62
     1
  6
CONTINUOUS
 10
12.0546
 20
6.3604
  0
VERTEX
  8
LAYER10
 62
     1
  6
CONTINUOUS
 10
12.0577
 20
6.3596
  0
VERTEX
  8
LAYER10
 62
     1
  6
CONTINUOUS
 10
12.0608
 20
6.3587
  0
VERTEX
  8
LAYER10
 62
     1
  6
CONTINUOUS
 10
12.0639
 20
6.3578
  0
VERTEX
  8
LAYER10
 62
     1
  6
CONTINUOUS
 10
12.0669
 20
6.3569
  0
VERTEX
  8
LAYER10
 62
     1
  6
CONTINUOUS
 10
12.0698
 20
6.3558
  0
VERTEX
  8
LAYER10
 62
     1
  6
CONTINUOUS
 10
12.0727
 20
6.3547
  0
VERTEX
  8
LAYER10
 62
     1
  6
CONTINUOUS
 10
12.0755
 20
6.3535
  0
VERTEX
  8
LAYER10
 62
     1
  6
CONTINUOUS
 10
12.0782
 20
6.3521
  0
VERTEX
  8
LAYER10
 62
     1
  6
CONTINUOUS
 10
12.0808
 20
6.3507
  0
VERTEX
  8
LAYER10
 62
     1
  6
CONTINUOUS
 10
12.0833
 20
6.3490
  0
VERTEX
  8
LAYER10
 62
     1
  6
CONTINUOUS
 10
12.0856
 20
6.3472
  0
VERTEX
  8
LAYER10
 62
     1
  6
CONTINUOUS
 10
12.0882
 20
6.3449
  0
VERTEX
  8
LAYER10
 62
     1
  6
CONTINUOUS
 10
12.0906
 20
6.3424
  0
VERTEX
  8
LAYER10
 62
     1
  6
CONTINUOUS
 10
12.0928
 20
6.3396
  0
VERTEX
  8
LAYER10
 62
     1
  6
CONTINUOUS
 10
12.0950
 20
6.3368
  0
VERTEX
  8
LAYER10
 62
     1
  6
CONTINUOUS
 10
12.0970
 20
6.3338
  0
VERTEX
  8
LAYER10
 62
     1
  6
CONTINUOUS
 10
12.0990
 20
6.3307
  0
VERTEX
  8
LAYER10
 62
     1
  6
CONTINUOUS
 10
12.1010
 20
6.3276
  0
VERTEX
  8
LAYER10
 62
     1
  6
CONTINUOUS
 10
12.1029
 20
6.3245
  0
VERTEX
  8
LAYER10
 62
     1
  6
CONTINUOUS
 10
12.1049
 20
6.3214
  0
VERTEX
  8
LAYER10
 62
     1
  6
CONTINUOUS
 10
12.1070
 20
6.3183
  0
VERTEX
  8
LAYER10
 62
     1
  6
CONTINUOUS
 10
12.1091
 20
6.3153
  0
VERTEX
  8
LAYER10
 62
     1
  6
CONTINUOUS
 10
12.1113
 20
6.3124
  0
VERTEX
  8
LAYER10
 62
     1
  6
CONTINUOUS
 10
12.1142
 20
6.3091
  0
VERTEX
  8
LAYER10
 62
     1
  6
CONTINUOUS
 10
12.1174
 20
6.3059
  0
VERTEX
  8
LAYER10
 62
     1
  6
CONTINUOUS
 10
12.1206
 20
6.3030
  0
VERTEX
  8
LAYER10
 62
     1
  6
CONTINUOUS
 10
12.1240
 20
6.3001
  0
VERTEX
  8
LAYER10
 62
     1
  6
CONTINUOUS
 10
12.1275
 20
6.2973
  0
VERTEX
  8
LAYER10
 62
     1
  6
CONTINUOUS
 10
12.1310
 20
6.2946
  0
VERTEX
  8
LAYER10
 62
     1
  6
CONTINUOUS
 10
12.1346
 20
6.2920
  0
VERTEX
  8
LAYER10
 62
     1
  6
CONTINUOUS
 10
12.1382
 20
6.2893
  0
VERTEX
  8
LAYER10
 62
     1
  6
CONTINUOUS
 10
12.1418
 20
6.2866
  0
VERTEX
  8
LAYER10
 62
     1
  6
CONTINUOUS
 10
12.1453
 20
6.2838
  0
VERTEX
  8
LAYER10
 62
     1
  6
CONTINUOUS
 10
12.1488
 20
6.2809
  0
VERTEX
  8
LAYER10
 62
     1
  6
CONTINUOUS
 10
12.1521
 20
6.2779
  0
VERTEX
  8
LAYER10
 62
     1
  6
CONTINUOUS
 10
12.1543
 20
6.2758
  0
VERTEX
  8
LAYER10
 62
     1
  6
CONTINUOUS
 10
12.1565
 20
6.2735
  0
VERTEX
  8
LAYER10
 62
     1
  6
CONTINUOUS
 10
12.1585
 20
6.2713
  0
VERTEX
  8
LAYER10
 62
     1
  6
CONTINUOUS
 10
12.1605
 20
6.2689
  0
VERTEX
  8
LAYER10
 62
     1
  6
CONTINUOUS
 10
12.1624
 20
6.2665
  0
VERTEX
  8
LAYER10
 62
     1
  6
CONTINUOUS
 10
12.1642
 20
6.2640
  0
VERTEX
  8
LAYER10
 62
     1
  6
CONTINUOUS
 10
12.1659
 20
6.2615
  0
VERTEX
  8
LAYER10
 62
     1
  6
CONTINUOUS
 10
12.1675
 20
6.2589
  0
VERTEX
  8
LAYER10
 62
     1
  6
CONTINUOUS
 10
12.1690
 20
6.2562
  0
VERTEX
  8
LAYER10
 62
     1
  6
CONTINUOUS
 10
12.1704
 20
6.2536
  0
VERTEX
  8
LAYER10
 62
     1
  6
CONTINUOUS
 10
12.1716
 20
6.2508
  0
VERTEX
  8
LAYER10
 62
     1
  6
CONTINUOUS
 10
12.1727
 20
6.2481
  0
VERTEX
  8
LAYER10
 62
     1
  6
CONTINUOUS
 10
12.1739
 20
6.2445
  0
VERTEX
  8
LAYER10
 62
     1
  6
CONTINUOUS
 10
12.1750
 20
6.2409
  0
VERTEX
  8
LAYER10
 62
     1
  6
CONTINUOUS
 10
12.1758
 20
6.2373
  0
VERTEX
  8
LAYER10
 62
     1
  6
CONTINUOUS
 10
12.1765
 20
6.2336
  0
VERTEX
  8
LAYER10
 62
     1
  6
CONTINUOUS
 10
12.1770
 20
6.2299
  0
VERTEX
  8
LAYER10
 62
     1
  6
CONTINUOUS
 10
12.1774
 20
6.2261
  0
VERTEX
  8
LAYER10
 62
     1
  6
CONTINUOUS
 10
12.1777
 20
6.2223
  0
VERTEX
  8
LAYER10
 62
     1
  6
CONTINUOUS
 10
12.1780
 20
6.2185
  0
VERTEX
  8
LAYER10
 62
     1
  6
CONTINUOUS
 10
12.1782
 20
6.2146
  0
VERTEX
  8
LAYER10
 62
     1
  6
CONTINUOUS
 10
12.1783
 20
6.2107
  0
VERTEX
  8
LAYER10
 62
     1
  6
CONTINUOUS
 10
12.1784
 20
6.2068
  0
VERTEX
  8
LAYER10
 62
     1
  6
CONTINUOUS
 10
12.1785
 20
6.2029
  0
VERTEX
  8
LAYER10
 62
     1
  6
CONTINUOUS
 10
12.1786
 20
6.1994
  0
VERTEX
  8
LAYER10
 62
     1
  6
CONTINUOUS
 10
12.1787
 20
6.1958
  0
VERTEX
  8
LAYER10
 62
     1
  6
CONTINUOUS
 10
12.1787
 20
6.1923
  0
VERTEX
  8
LAYER10
 62
     1
  6
CONTINUOUS
 10
12.1787
 20
6.1888
  0
VERTEX
  8
LAYER10
 62
     1
  6
CONTINUOUS
 10
12.1787
 20
6.1854
  0
VERTEX
  8
LAYER10
 62
     1
  6
CONTINUOUS
 10
12.1785
 20
6.1819
  0
VERTEX
  8
LAYER10
 62
     1
  6
CONTINUOUS
 10
12.1782
 20
6.1785
  0
VERTEX
  8
LAYER10
 62
     1
  6
CONTINUOUS
 10
12.1778
 20
6.1752
  0
VERTEX
  8
LAYER10
 62
     1
  6
CONTINUOUS
 10
12.1772
 20
6.1719
  0
VERTEX
  8
LAYER10
 62
     1
  6
CONTINUOUS
 10
12.1764
 20
6.1687
  0
VERTEX
  8
LAYER10
 62
     1
  6
CONTINUOUS
 10
12.1754
 20
6.1656
  0
VERTEX
  8
LAYER10
 62
     1
  6
CONTINUOUS
 10
12.1741
 20
6.1626
  0
VERTEX
  8
LAYER10
 62
     1
  6
CONTINUOUS
 10
12.1732
 20
6.1607
  0
VERTEX
  8
LAYER10
 62
     1
  6
CONTINUOUS
 10
12.1723
 20
6.1589
  0
VERTEX
  8
LAYER10
 62
     1
  6
CONTINUOUS
 10
12.1712
 20
6.1572
  0
VERTEX
  8
LAYER10
 62
     1
  6
CONTINUOUS
 10
12.1701
 20
6.1554
  0
VERTEX
  8
LAYER10
 62
     1
  6
CONTINUOUS
 10
12.1689
 20
6.1537
  0
VERTEX
  8
LAYER10
 62
     1
  6
CONTINUOUS
 10
12.1676
 20
6.1520
  0
VERTEX
  8
LAYER10
 62
     1
  6
CONTINUOUS
 10
12.1663
 20
6.1504
  0
VERTEX
  8
LAYER10
 62
     1
  6
CONTINUOUS
 10
12.1650
 20
6.1487
  0
VERTEX
  8
LAYER10
 62
     1
  6
CONTINUOUS
 10
12.1636
 20
6.1471
  0
VERTEX
  8
LAYER10
 62
     1
  6
CONTINUOUS
 10
12.1622
 20
6.1454
  0
VERTEX
  8
LAYER10
 62
     1
  6
CONTINUOUS
 10
12.1608
 20
6.1438
  0
VERTEX
  8
LAYER10
 62
     1
  6
CONTINUOUS
 10
12.1594
 20
6.1422
  0
VERTEX
  8
LAYER10
 62
     1
  6
CONTINUOUS
 10
12.1560
 20
6.1383
  0
VERTEX
  8
LAYER10
 62
     1
  6
CONTINUOUS
 10
12.1525
 20
6.1344
  0
VERTEX
  8
LAYER10
 62
     1
  6
CONTINUOUS
 10
12.1491
 20
6.1306
  0
VERTEX
  8
LAYER10
 62
     1
  6
CONTINUOUS
 10
12.1456
 20
6.1268
  0
VERTEX
  8
LAYER10
 62
     1
  6
CONTINUOUS
 10
12.1421
 20
6.1231
  0
VERTEX
  8
LAYER10
 62
     1
  6
CONTINUOUS
 10
12.1385
 20
6.1195
  0
VERTEX
  8
LAYER10
 62
     1
  6
CONTINUOUS
 10
12.1348
 20
6.1160
  0
VERTEX
  8
LAYER10
 62
     1
  6
CONTINUOUS
 10
12.1311
 20
6.1127
  0
VERTEX
  8
LAYER10
 62
     1
  6
CONTINUOUS
 10
12.1272
 20
6.1095
  0
VERTEX
  8
LAYER10
 62
     1
  6
CONTINUOUS
 10
12.1232
 20
6.1065
  0
VERTEX
  8
LAYER10
 62
     1
  6
CONTINUOUS
 10
12.1191
 20
6.1038
  0
VERTEX
  8
LAYER10
 62
     1
  6
CONTINUOUS
 10
12.1148
 20
6.1012
  0
VERTEX
  8
LAYER10
 62
     1
  6
CONTINUOUS
 10
12.1111
 20
6.0993
  0
VERTEX
  8
LAYER10
 62
     1
  6
CONTINUOUS
 10
12.1074
 20
6.0976
  0
VERTEX
  8
LAYER10
 62
     1
  6
CONTINUOUS
 10
12.1036
 20
6.0959
  0
VERTEX
  8
LAYER10
 62
     1
  6
CONTINUOUS
 10
12.0998
 20
6.0943
  0
VERTEX
  8
LAYER10
 62
     1
  6
CONTINUOUS
 10
12.0959
 20
6.0928
  0
VERTEX
  8
LAYER10
 62
     1
  6
CONTINUOUS
 10
12.0920
 20
6.0913
  0
VERTEX
  8
LAYER10
 62
     1
  6
CONTINUOUS
 10
12.0882
 20
6.0897
  0
VERTEX
  8
LAYER10
 62
     1
  6
CONTINUOUS
 10
12.0843
 20
6.0881
  0
VERTEX
  8
LAYER10
 62
     1
  6
CONTINUOUS
 10
12.0806
 20
6.0864
  0
VERTEX
  8
LAYER10
 62
     1
  6
CONTINUOUS
 10
12.0769
 20
6.0845
  0
VERTEX
  8
LAYER10
 62
     1
  6
CONTINUOUS
 10
12.0733
 20
6.0825
  0
VERTEX
  8
LAYER10
 62
     1
  6
CONTINUOUS
 10
12.0698
 20
6.0804
  0
VERTEX
  8
LAYER10
 62
     1
  6
CONTINUOUS
 10
12.0682
 20
6.0792
  0
VERTEX
  8
LAYER10
 62
     1
  6
CONTINUOUS
 10
12.0666
 20
6.0780
  0
VERTEX
  8
LAYER10
 62
     1
  6
CONTINUOUS
 10
12.0650
 20
6.0768
  0
VERTEX
  8
LAYER10
 62
     1
  6
CONTINUOUS
 10
12.0634
 20
6.0755
  0
VERTEX
  8
LAYER10
 62
     1
  6
CONTINUOUS
 10
12.0619
 20
6.0742
  0
VERTEX
  8
LAYER10
 62
     1
  6
CONTINUOUS
 10
12.0603
 20
6.0728
  0
VERTEX
  8
LAYER10
 62
     1
  6
CONTINUOUS
 10
12.0588
 20
6.0714
  0
VERTEX
  8
LAYER10
 62
     1
  6
CONTINUOUS
 10
12.0574
 20
6.0700
  0
VERTEX
  8
LAYER10
 62
     1
  6
CONTINUOUS
 10
12.0559
 20
6.0686
  0
VERTEX
  8
LAYER10
 62
     1
  6
CONTINUOUS
 10
12.0544
 20
6.0672
  0
VERTEX
  8
LAYER10
 62
     1
  6
CONTINUOUS
 10
12.0529
 20
6.0657
  0
VERTEX
  8
LAYER10
 62
     1
  6
CONTINUOUS
 10
12.0515
 20
6.0643
  0
SEQEND
  8
LAYER10
  0
POLYLINE
  8
LAYER10
 62
     1
 66
     1
  6
CONTINUOUS
  0
VERTEX
  8
LAYER10
 62
     1
  6
CONTINUOUS
 10
12.0421
 20
6.3656
  0
VERTEX
  8
LAYER10
 62
     1
  6
CONTINUOUS
 10
12.0432
 20
6.3651
  0
VERTEX
  8
LAYER10
 62
     1
  6
CONTINUOUS
 10
12.0442
 20
6.3646
  0
VERTEX
  8
LAYER10
 62
     1
  6
CONTINUOUS
 10
12.0452
 20
6.3642
  0
VERTEX
  8
LAYER10
 62
     1
  6
CONTINUOUS
 10
12.0462
 20
6.3637
  0
VERTEX
  8
LAYER10
 62
     1
  6
CONTINUOUS
 10
12.0471
 20
6.3632
  0
VERTEX
  8
LAYER10
 62
     1
  6
CONTINUOUS
 10
12.0480
 20
6.3628
  0
VERTEX
  8
LAYER10
 62
     1
  6
CONTINUOUS
 10
12.0488
 20
6.3624
  0
VERTEX
  8
LAYER10
 62
     1
  6
CONTINUOUS
 10
12.0496
 20
6.3621
  0
VERTEX
  8
LAYER10
 62
     1
  6
CONTINUOUS
 10
12.0502
 20
6.3618
  0
VERTEX
  8
LAYER10
 62
     1
  6
CONTINUOUS
 10
12.0508
 20
6.3615
  0
VERTEX
  8
LAYER10
 62
     1
  6
CONTINUOUS
 10
12.0512
 20
6.3613
  0
VERTEX
  8
LAYER10
 62
     1
  6
CONTINUOUS
 10
12.0515
 20
6.3612
  0
VERTEX
  8
LAYER10
 62
     1
  6
CONTINUOUS
 10
12.0516
 20
6.3611
  0
VERTEX
  8
LAYER10
 62
     1
  6
CONTINUOUS
 10
12.0516
 20
6.3611
  0
VERTEX
  8
LAYER10
 62
     1
  6
CONTINUOUS
 10
12.0517
 20
6.3611
  0
VERTEX
  8
LAYER10
 62
     1
  6
CONTINUOUS
 10
12.0517
 20
6.3611
  0
VERTEX
  8
LAYER10
 62
     1
  6
CONTINUOUS
 10
12.0517
 20
6.3611
  0
VERTEX
  8
LAYER10
 62
     1
  6
CONTINUOUS
 10
12.0517
 20
6.3611
  0
VERTEX
  8
LAYER10
 62
     1
  6
CONTINUOUS
 10
12.0517
 20
6.3611
  0
VERTEX
  8
LAYER10
 62
     1
  6
CONTINUOUS
 10
12.0517
 20
6.3611
  0
VERTEX
  8
LAYER10
 62
     1
  6
CONTINUOUS
 10
12.0516
 20
6.3611
  0
VERTEX
  8
LAYER10
 62
     1
  6
CONTINUOUS
 10
12.0516
 20
6.3611
  0
VERTEX
  8
LAYER10
 62
     1
  6
CONTINUOUS
 10
12.0515
 20
6.3612
  0
VERTEX
  8
LAYER10
 62
     1
  6
CONTINUOUS
 10
12.0515
 20
6.3612
  0
SEQEND
  8
LAYER10
  0
POLYLINE
  8
LAYER10
 62
     1
 66
     1
  6
CONTINUOUS
  0
VERTEX
  8
LAYER10
 62
     1
  6
CONTINUOUS
 10
12.0515
 20
6.0643
  0
VERTEX
  8
LAYER10
 62
     1
  6
CONTINUOUS
 10
12.0510
 20
6.0638
  0
VERTEX
  8
LAYER10
 62
     1
  6
CONTINUOUS
 10
12.0505
 20
6.0633
  0
VERTEX
  8
LAYER10
 62
     1
  6
CONTINUOUS
 10
12.0500
 20
6.0628
  0
VERTEX
  8
LAYER10
 62
     1
  6
CONTINUOUS
 10
12.0495
 20
6.0623
  0
VERTEX
  8
LAYER10
 62
     1
  6
CONTINUOUS
 10
12.0490
 20
6.0618
  0
VERTEX
  8
LAYER10
 62
     1
  6
CONTINUOUS
 10
12.0484
 20
6.0614
  0
VERTEX
  8
LAYER10
 62
     1
  6
CONTINUOUS
 10
12.0479
 20
6.0610
  0
VERTEX
  8
LAYER10
 62
     1
  6
CONTINUOUS
 10
12.0474
 20
6.0607
  0
VERTEX
  8
LAYER10
 62
     1
  6
CONTINUOUS
 10
12.0468
 20
6.0604
  0
VERTEX
  8
LAYER10
 62
     1
  6
CONTINUOUS
 10
12.0462
 20
6.0601
  0
VERTEX
  8
LAYER10
 62
     1
  6
CONTINUOUS
 10
12.0456
 20
6.0599
  0
VERTEX
  8
LAYER10
 62
     1
  6
CONTINUOUS
 10
12.0450
 20
6.0598
  0
VERTEX
  8
LAYER10
 62
     1
  6
CONTINUOUS
 10
12.0448
 20
6.0598
  0
VERTEX
  8
LAYER10
 62
     1
  6
CONTINUOUS
 10
12.0446
 20
6.0598
  0
VERTEX
  8
LAYER10
 62
     1
  6
CONTINUOUS
 10
12.0443
 20
6.0598
  0
VERTEX
  8
LAYER10
 62
     1
  6
CONTINUOUS
 10
12.0441
 20
6.0598
  0
VERTEX
  8
LAYER10
 62
     1
  6
CONTINUOUS
 10
12.0438
 20
6.0598
  0
VERTEX
  8
LAYER10
 62
     1
  6
CONTINUOUS
 10
12.0436
 20
6.0598
  0
VERTEX
  8
LAYER10
 62
     1
  6
CONTINUOUS
 10
12.0433
 20
6.0598
  0
VERTEX
  8
LAYER10
 62
     1
  6
CONTINUOUS
 10
12.0431
 20
6.0599
  0
VERTEX
  8
LAYER10
 62
     1
  6
CONTINUOUS
 10
12.0428
 20
6.0599
  0
VERTEX
  8
LAYER10
 62
     1
  6
CONTINUOUS
 10
12.0426
 20
6.0599
  0
VERTEX
  8
LAYER10
 62
     1
  6
CONTINUOUS
 10
12.0423
 20
6.0600
  0
VERTEX
  8
LAYER10
 62
     1
  6
CONTINUOUS
 10
12.0421
 20
6.0600
  0
SEQEND
  8
LAYER10
  0
POLYLINE
  8
LAYER12
 62
     5
 66
     1
  6
CONTINUOUS
  0
VERTEX
  8
LAYER12
 62
     5
  6
CONTINUOUS
 10
12.0515
 20
6.5235
  0
VERTEX
  8
LAYER12
 62
     5
  6
CONTINUOUS
 10
13.0302
 20
6.5235
  0
SEQEND
  8
LAYER12
  0
POLYLINE
  8
LAYER12
 62
     5
 66
     1
  6
CONTINUOUS
  0
VERTEX
  8
LAYER12
 62
     5
  6
CONTINUOUS
 10
12.0465
 20
5.5427
  0
VERTEX
  8
LAYER12
 62
     5
  6
CONTINUOUS
 10
12.0465
 20
5.5384
  0
SEQEND
  8
LAYER12
  0
POLYLINE
  8
LAYER12
 62
     5
 66
     1
  6
CONTINUOUS
  0
VERTEX
  8
LAYER12
 62
     5
  6
CONTINUOUS
 10
12.0515
 20
5.5398
  0
VERTEX
  8
LAYER12
 62
     5
  6
CONTINUOUS
 10
12.0515
 20
5.5398
  0
SEQEND
  8
LAYER12
  0
POLYLINE
  8
LAYER12
 62
     5
 66
     1
  6
CONTINUOUS
  0
VERTEX
  8
LAYER12
 62
     5
  6
CONTINUOUS
 10
13.0302
 20
6.5211
  0
VERTEX
  8
LAYER12
 62
     5
  6
CONTINUOUS
 10
13.0302
 20
6.5235
  0
SEQEND
  8
LAYER12
  0
POLYLINE
  8
LAYER12
 62
     5
 66
     1
  6
CONTINUOUS
  0
VERTEX
  8
LAYER12
 62
     5
  6
CONTINUOUS
 10
12.0465
 20
6.5256
  0
VERTEX
  8
LAYER12
 62
     5
  6
CONTINUOUS
 10
12.0465
 20
6.5211
  0
SEQEND
  8
LAYER12
  0
POLYLINE
  8
LAYER12
 62
     5
 66
     1
  6
CONTINUOUS
  0
VERTEX
  8
LAYER12
 62
     5
  6
CONTINUOUS
 10
12.0465
 20
6.5211
  0
VERTEX
  8
LAYER12
 62
     5
  6
CONTINUOUS
 10
12.0465
 20
5.5427
  0
SEQEND
  8
LAYER12
  0
POLYLINE
  8
LAYER12
 62
     5
 66
     1
  6
CONTINUOUS
  0
VERTEX
  8
LAYER12
 62
     5
  6
CONTINUOUS
 10
13.0359
 20
5.5398
  0
VERTEX
  8
LAYER12
 62
     5
  6
CONTINUOUS
 10
12.0515
 20
5.5398
  0
SEQEND
  8
LAYER12
  0
POLYLINE
  8
LAYER12
 62
     5
 66
     1
  6
CONTINUOUS
  0
VERTEX
  8
LAYER12
 62
     5
  6
CONTINUOUS
 10
12.0465
 20
5.5384
  0
VERTEX
  8
LAYER12
 62
     5
  6
CONTINUOUS
 10
12.0465
 20
5.5369
  0
SEQEND
  8
LAYER12
  0
POLYLINE
  8
LAYER12
 62
     5
 66
     1
  6
CONTINUOUS
  0
VERTEX
  8
LAYER12
 62
     5
  6
CONTINUOUS
 10
12.0515
 20
5.5398
  0
VERTEX
  8
LAYER12
 62
     5
  6
CONTINUOUS
 10
12.0421
 20
5.5398
  0
SEQEND
  8
LAYER12
  0
POLYLINE
  8
LAYER12
 62
     5
 66
     1
  6
CONTINUOUS
  0
VERTEX
  8
LAYER12
 62
     5
  6
CONTINUOUS
 10
13.0302
 20
6.5259
  0
VERTEX
  8
LAYER12
 62
     5
  6
CONTINUOUS
 10
13.0302
 20
6.5235
  0
SEQEND
  8
LAYER12
  0
POLYLINE
  8
LAYER12
 62
     5
 66
     1
  6
CONTINUOUS
  0
VERTEX
  8
LAYER12
 62
     5
  6
CONTINUOUS
 10
12.0465
 20
6.5259
  0
VERTEX
  8
LAYER12
 62
     5
  6
CONTINUOUS
 10
12.0465
 20
6.5256
  0
SEQEND
  8
LAYER12
  0
POLYLINE
  8
LAYER12
 62
     5
 66
     1
  6
CONTINUOUS
  0
VERTEX
  8
LAYER12
 62
     5
  6
CONTINUOUS
 10
13.0302
 20
6.5235
  0
VERTEX
  8
LAYER12
 62
     5
  6
CONTINUOUS
 10
13.0359
 20
6.5235
  0
SEQEND
  8
LAYER12
  0
POLYLINE
  8
LAYER12
 62
     5
 66
     1
  6
CONTINUOUS
  0
VERTEX
  8
LAYER12
 62
     5
  6
CONTINUOUS
 10
13.0302
 20
5.5369
  0
VERTEX
  8
LAYER12
 62
     5
  6
CONTINUOUS
 10
13.0302
 20
6.5211
  0
SEQEND
  8
LAYER12
  0
POLYLINE
  8
LAYER12
 62
     5
 66
     1
  6
CONTINUOUS
  0
VERTEX
  8
LAYER12
 62
     5
  6
CONTINUOUS
 10
12.0421
 20
6.5235
  0
VERTEX
  8
LAYER12
 62
     5
  6
CONTINUOUS
 10
12.0515
 20
6.5235
  0
SEQEND
  8
LAYER12
  0
ENDSEC
  0
EOF
