  0
SECTION
  2
HEADER
  9
$ACADVER
  1
AC1004
  9
$EXTMIN
 10
7.0490
 20
5.5398
  9
$EXTMAX
 10
8.0340
 20
6.5235
  9
$LIMMIN
 10
7.0490
 20
5.5398
  9
$LIMMAX
 10
8.0340
 20
6.5235
  9
$INSBASE
 10
0.0
 20
0.0
  9
$VIEWCTR
 10
7.21903
 20
4.5
  9
$VIEWSIZE
 40
9.0
  9
$SNAPMODE
 70
     0
  9
$SNAPUNIT
 10
1.0
 20
1.0
  9
$SNAPBASE
 10
0.0
 20
0.0
  9
$SNAPANG
 50
0.0
  9
$SNAPSTYLE
 70
     0
  9
$SNAPISOPAIR
 70
     0
  9
$GRIDMODE
 70
     0
  9
$GRIDUNIT
 10
0.0
 20
0.0
  9
$ORTHOMODE
 70
     0
  9
$REGENMODE
 70
     1
  9
$FILLMODE
 70
     1
  9
$QTEXTMODE
 70
     0
  9
$DRAGMODE
 70
     2
  9
$LTSCALE
 40
1.0
  9
$OSMODE
 70
     0
  9
$ATTMODE
 70
     1
  9
$TEXTSIZE
 40
0.2
  9
$TRACEWID
 40
0.05
  9
$TEXTSTYLE
  7
STANDARD
  9
$CLAYER
  8
0
  9
$CELTYPE
  6
BYLAYER
  9
$CECOLOR
 62
   256
  9
$DIMSCALE
 40
1.0
  9
$DIMASZ
 40
0.18
  9
$DIMEXO
 40
0.0625
  9
$DIMDLI
 40
0.38
  9
$DIMRND
 40
0.0
  9
$DIMDLE
 40
0.0
  9
$DIMEXE
 40
0.18
  9
$DIMTP
 40
0.0
  9
$DIMTM
 40
0.0
  9
$DIMTXT
 40
0.18
  9
$DIMCEN
 40
0.09
  9
$DIMTSZ
 40
0.0
  9
$DIMTOL
 70
     0
  9
$DIMLIM
 70
     0
  9
$DIMTIH
 70
     1
  9
$DIMTOH
 70
     1
  9
$DIMSE1
 70
     0
  9
$DIMSE2
 70
     0
  9
$DIMTAD
 70
     0
  9
$DIMZIN
 70
     0
  9
$DIMBLK
  1

  9
$DIMASO
 70
     1
  9
$DIMSHO
 70
     0
  9
$DIMPOST
  1

  9
$DIMAPOST
  1

  9
$DIMALT
 70
     0
  9
$DIMALTD
 70
     2
  9
$DIMALTF
 40
25.4
  9
$DIMLFAC
 40
1.0
  9
$LUNITS
 70
     2
  9
$LUPREC
 70
     4
  9
$AXISMODE
 70
     0
  9
$AXISUNIT
 10
0.0
 20
0.0
  9
$SKETCHINC
 40
0.1
  9
$FILLETRAD
 40
0.0
  9
$AUNITS
 70
     0
  9
$AUPREC
 70
     0
  9
$MENU
  1
acad
  9
$ELEVATION
 40
0.0
  9
$THICKNESS
 40
0.0
  9
$VIEWDIR
 10
0.0
 20
0.0
 30
1.0
  9
$LIMCHECK
 70
     0
  9
$BLIPMODE
 70
     1
  9
$CHAMFERA
 40
0.0
  9
$CHAMFERB
 40
0.0
  9
$FASTZOOM
 70
     1
  9
$SKPOLY
 70
     0
  9
$TDCREATE
 40
2447222.5666886573
  9
$TDUPDATE
 40
2447222.5666886573
  9
$TDINDWG
 40
0.0000000000
  9
$TDUSRTIMER
 40
0.0000000000
  9
$USRTIMER
 70
     1
  9
$ANGBASE
 50
0.0
  9
$ANGDIR
 70
     0
  9
$PDMODE
 70
     0
  9
$PDSIZE
 40
0.0
  9
$PLINEWID
 40
0.0
  9
$COORDS
 70
     0
  9
$SPLFRAME
 70
     0
  9
$SPLINESEGS
 70
     8
  9
$ATTDIA
 70
     0
  9
$ATTREQ
 70
     1
  9
$USERI1
 70
     0
  9
$USERI2
 70
     0
  9
$USERI3
 70
     0
  9
$USERI4
 70
     0
  9
$USERI5
 70
     0
  9
$USERR1
 40
0.0
  9
$USERR2
 40
0.0
  9
$USERR3
 40
0.0
  9
$USERR4
 40
0.0
  9
$USERR5
 40
0.0
  0
ENDSEC
  0
SECTION
  2
TABLES
  0
TABLE
  2
LTYPE
 70
     13
  0
LTYPE
  2
CONTINUOUS
 70
    64
  3
Solid line
 72
    65
 73
     0
 40
0.0
  0
LTYPE
  2
DASHED
 70
    64
  3
__ __ __ __ __ __ __ __ __ __ __ __ __ __ __
 72
    65
 73
     2
 40
0.75
 49
0.5
 49
-0.25
  0
LTYPE
  2
HIDDEN
 70
    64
  3
_ _ _ _ _ _ _ _ _ _ _ _ _ _ _ _ _ _ _ _ _ _ _
 72
    65
 73
     2
 40
0.375
 49
0.25
 49
-0.125
  0
LTYPE
  2
CENTER
 70
    64
  3
____ _ ____ _ ____ _ ____ _ ____ _ ____ _ ____
 72
    65
 73
     4
 40
2.0
 49
1.25
 49
-0.25
 49
0.25
 49
-0.25
  0
LTYPE
  2
PHANTOM
 70
    64
  3
_____ _ _ _____ _ _ _____ _ _ _____ _ _ ____
 72
    65
 73
     6
 40
2.5
 49
1.25
 49
-0.25
 49
0.25
 49
-0.25
 49
0.25
 49
-0.25
  0
LTYPE
  2
DOT
 70
    64
  3
...............................................
 72
    65
 73
     2
 40
0.25
 49
0.0
 49
-0.25
  0
LTYPE
  2
DASHDOT
 70
    64
  3
__ . __ . __ . __ . __ . __ . __ . __ . __ . __
 72
    65
 73
     4
 40
1.0
 49
0.5
 49
-0.25
 49
0.0
 49
-0.25
  0
LTYPE
  2
BORDER
 70
    64
  3
__ __ . __ __ . __ __ . __ __ . __ __ . __ __
 72
    65
 73
     6
 40
1.75
 49
0.5
 49
-0.25
 49
0.5
 49
-0.25
 49
0.0
 49
-0.25
  0
LTYPE
  2
DIVIDE
 70
    64
  3
__ . . __ . . __ . . __ . . __ . . __ . . __
 72
    65
 73
     6
 40
1.25
 49
0.5
 49
-0.25
 49
0.0
 49
-0.25
 49
0.0
 49
-0.25
  0
LTYPE
  2
DCTYPE1
 70
    64
  3
__ . . __ . . __ . . __ . . __ . . __ . . __
 72
    65
 73
     8
 40
2.5
 49
0.5
 49
-0.25
 49
0.125
 49
-0.25
 49
0.25
 49
-0.25
 49
0.125
 49
-0.25
  0
LTYPE
  2
DCTYPE2
 70
    64
  3
__ . . __ . . __ . . __ . . __ . . __ . . __
 72
    65
 73
     6
 40
2.05
 49
1.0
 49
-0.3
 49
0.15
 49
-0.15
 49
0.15
 49
-0.3
  0
LTYPE
  2
DCTYPE3
 70
    64
  3
__ . . __ . . __ . . __ . . __ . . __ . . __
 72
    65
 73
     6
 40
2.5
 49
0.8
 49
-0.2
 49
0.8
 49
-0.2
 49
0.3
 49
-0.2
  0
LTYPE
  2
DCTYPE4
 70
    64
  3
__ . . __ . . __ . . __ . . __ . . __ . . __
 72
    65
 73
     10
 40
3.97
 49
1.75
 49
-0.3
 49
0.3
 49
-0.3
 49
0.06
 49
-0.3
 49
0.06
 49
-0.3
 49
0.3
 49
-0.3
  0
ENDTAB
  0
TABLE
  2
LAYER
 70
    153
  0
LAYER
  2
LAYER1
 70
 64
 62
     7
  6
CONTINUOUS
  0
LAYER
  2
LAYER12
 70
 64
 62
     5
  6
CONTINUOUS
  0
ENDTAB
  0
ENDSEC
  0
SECTION
  2
BLOCKS
  0
ENDSEC
  0
SECTION
  2
ENTITIES
  0
CIRCLE
  8
LAYER1
 62
     7
  6
CONTINUOUS
 10
7.7279
 20
6.4021
 40
0.0229
  0
CIRCLE
  8
LAYER1
 62
     7
  6
CONTINUOUS
 10
7.7636
 20
6.3847
 40
0.0091
  0
CIRCLE
  8
LAYER1
 62
     7
  6
CONTINUOUS
 10
7.8543
 20
6.4339
 40
0.0129
  0
CIRCLE
  8
LAYER1
 62
     7
  6
CONTINUOUS
 10
7.8972
 20
6.4496
 40
0.0162
  0
CIRCLE
  8
LAYER1
 62
     7
  6
CONTINUOUS
 10
7.9084
 20
6.3559
 40
0.0160
  0
CIRCLE
  8
LAYER1
 62
     7
  6
CONTINUOUS
 10
7.9270
 20
6.5082
 40
0.0152
  0
CIRCLE
  8
LAYER1
 62
     7
  6
CONTINUOUS
 10
7.0910
 20
5.9919
 40
0.0238
  0
CIRCLE
  8
LAYER1
 62
     7
  6
CONTINUOUS
 10
7.1437
 20
5.8173
 40
0.0327
  0
CIRCLE
  8
LAYER1
 62
     7
  6
CONTINUOUS
 10
7.1624
 20
6.4213
 40
0.0150
  0
CIRCLE
  8
LAYER1
 62
     7
  6
CONTINUOUS
 10
7.1594
 20
6.4564
 40
0.0103
  0
CIRCLE
  8
LAYER1
 62
     7
  6
CONTINUOUS
 10
7.4052
 20
5.9542
 40
0.0214
  0
CIRCLE
  8
LAYER1
 62
     7
  6
CONTINUOUS
 10
7.8543
 20
6.2491
 40
0.0293
  0
CIRCLE
  8
LAYER1
 62
     7
  6
CONTINUOUS
 10
7.8288
 20
5.7827
 40
0.0238
  0
CIRCLE
  8
LAYER1
 62
     7
  6
CONTINUOUS
 10
7.6499
 20
5.6798
 40
0.0177
  0
CIRCLE
  8
LAYER1
 62
     7
  6
CONTINUOUS
 10
7.7830
 20
5.6567
 40
0.0135
  0
CIRCLE
  8
LAYER1
 62
     7
  6
CONTINUOUS
 10
7.8384
 20
5.6400
 40
0.0213
  0
POLYLINE
  8
LAYER1
 62
     7
 66
     1
  6
CONTINUOUS
  0
VERTEX
  8
LAYER1
 62
     7
  6
CONTINUOUS
 10
7.0490
 20
6.4861
  0
VERTEX
  8
LAYER1
 62
     7
  6
CONTINUOUS
 10
7.0490
 20
6.4861
  0
VERTEX
  8
LAYER1
 62
     7
  6
CONTINUOUS
 10
7.0490
 20
6.4861
  0
VERTEX
  8
LAYER1
 62
     7
  6
CONTINUOUS
 10
7.0490
 20
6.4861
  0
VERTEX
  8
LAYER1
 62
     7
  6
CONTINUOUS
 10
7.0490
 20
6.4861
  0
VERTEX
  8
LAYER1
 62
     7
  6
CONTINUOUS
 10
7.0490
 20
6.4861
  0
VERTEX
  8
LAYER1
 62
     7
  6
CONTINUOUS
 10
7.0490
 20
6.4861
  0
VERTEX
  8
LAYER1
 62
     7
  6
CONTINUOUS
 10
7.0490
 20
6.4861
  0
VERTEX
  8
LAYER1
 62
     7
  6
CONTINUOUS
 10
7.0490
 20
6.4861
  0
VERTEX
  8
LAYER1
 62
     7
  6
CONTINUOUS
 10
7.0490
 20
6.4861
  0
VERTEX
  8
LAYER1
 62
     7
  6
CONTINUOUS
 10
7.0490
 20
6.4861
  0
VERTEX
  8
LAYER1
 62
     7
  6
CONTINUOUS
 10
7.0490
 20
6.4861
  0
VERTEX
  8
LAYER1
 62
     7
  6
CONTINUOUS
 10
7.0490
 20
6.4861
  0
VERTEX
  8
LAYER1
 62
     7
  6
CONTINUOUS
 10
7.0490
 20
6.4861
  0
VERTEX
  8
LAYER1
 62
     7
  6
CONTINUOUS
 10
7.0490
 20
6.4861
  0
VERTEX
  8
LAYER1
 62
     7
  6
CONTINUOUS
 10
7.0490
 20
6.4861
  0
VERTEX
  8
LAYER1
 62
     7
  6
CONTINUOUS
 10
7.0490
 20
6.4861
  0
VERTEX
  8
LAYER1
 62
     7
  6
CONTINUOUS
 10
7.0490
 20
6.4861
  0
VERTEX
  8
LAYER1
 62
     7
  6
CONTINUOUS
 10
7.0490
 20
6.4861
  0
VERTEX
  8
LAYER1
 62
     7
  6
CONTINUOUS
 10
7.0490
 20
6.4861
  0
VERTEX
  8
LAYER1
 62
     7
  6
CONTINUOUS
 10
7.0490
 20
6.4861
  0
VERTEX
  8
LAYER1
 62
     7
  6
CONTINUOUS
 10
7.0490
 20
6.4861
  0
VERTEX
  8
LAYER1
 62
     7
  6
CONTINUOUS
 10
7.0490
 20
6.4861
  0
VERTEX
  8
LAYER1
 62
     7
  6
CONTINUOUS
 10
7.0490
 20
6.4861
  0
VERTEX
  8
LAYER1
 62
     7
  6
CONTINUOUS
 10
7.0490
 20
6.4861
  0
SEQEND
  8
LAYER1
  0
ARC
  8
LAYER1
 62
     7
  6
CONTINUOUS
 10
7.7774
 20
6.5141
 40
0.0129
 50
133.5379
 51
-78.0578
  0
ARC
  8
LAYER1
 62
     7
  6
CONTINUOUS
 10
7.2009
 20
6.5346
 40
0.0225
 50
-150.4095
 51
-89.1661
  0
ARC
  8
LAYER1
 62
     7
  6
CONTINUOUS
 10
7.1438
 20
6.4987
 40
0.0327
 50
130.6671
 51
-93.5680
  0
ARC
  8
LAYER1
 62
     7
  6
CONTINUOUS
 10
8.0188
 20
6.1439
 40
0.0168
 50
-62.5595
 51
-31.8044
  0
ARC
  8
LAYER1
 62
     7
  6
CONTINUOUS
 10
8.0188
 20
6.1439
 40
0.0168
 50
31.8058
 51
-62.5610
  0
POLYLINE
  8
LAYER1
 62
     7
 66
     1
  6
CONTINUOUS
  0
VERTEX
  8
LAYER1
 62
     7
  6
CONTINUOUS
 10
7.0490
 20
6.4861
  0
VERTEX
  8
LAYER1
 62
     7
  6
CONTINUOUS
 10
7.0490
 20
6.4861
  0
VERTEX
  8
LAYER1
 62
     7
  6
CONTINUOUS
 10
7.0490
 20
6.4861
  0
VERTEX
  8
LAYER1
 62
     7
  6
CONTINUOUS
 10
7.0490
 20
6.4861
  0
VERTEX
  8
LAYER1
 62
     7
  6
CONTINUOUS
 10
7.0490
 20
6.4861
  0
VERTEX
  8
LAYER1
 62
     7
  6
CONTINUOUS
 10
7.0490
 20
6.4861
  0
VERTEX
  8
LAYER1
 62
     7
  6
CONTINUOUS
 10
7.0490
 20
6.4861
  0
VERTEX
  8
LAYER1
 62
     7
  6
CONTINUOUS
 10
7.0490
 20
6.4861
  0
VERTEX
  8
LAYER1
 62
     7
  6
CONTINUOUS
 10
7.0490
 20
6.4861
  0
VERTEX
  8
LAYER1
 62
     7
  6
CONTINUOUS
 10
7.0490
 20
6.4861
  0
VERTEX
  8
LAYER1
 62
     7
  6
CONTINUOUS
 10
7.0490
 20
6.4861
  0
VERTEX
  8
LAYER1
 62
     7
  6
CONTINUOUS
 10
7.0490
 20
6.4861
  0
VERTEX
  8
LAYER1
 62
     7
  6
CONTINUOUS
 10
7.0490
 20
6.4861
  0
VERTEX
  8
LAYER1
 62
     7
  6
CONTINUOUS
 10
7.0490
 20
6.4861
  0
VERTEX
  8
LAYER1
 62
     7
  6
CONTINUOUS
 10
7.0490
 20
6.4861
  0
VERTEX
  8
LAYER1
 62
     7
  6
CONTINUOUS
 10
7.0490
 20
6.4861
  0
VERTEX
  8
LAYER1
 62
     7
  6
CONTINUOUS
 10
7.0490
 20
6.4861
  0
VERTEX
  8
LAYER1
 62
     7
  6
CONTINUOUS
 10
7.0490
 20
6.4861
  0
VERTEX
  8
LAYER1
 62
     7
  6
CONTINUOUS
 10
7.0490
 20
6.4861
  0
VERTEX
  8
LAYER1
 62
     7
  6
CONTINUOUS
 10
7.0490
 20
6.4861
  0
VERTEX
  8
LAYER1
 62
     7
  6
CONTINUOUS
 10
7.0490
 20
6.4861
  0
VERTEX
  8
LAYER1
 62
     7
  6
CONTINUOUS
 10
7.0490
 20
6.4861
  0
VERTEX
  8
LAYER1
 62
     7
  6
CONTINUOUS
 10
7.0490
 20
6.4861
  0
VERTEX
  8
LAYER1
 62
     7
  6
CONTINUOUS
 10
7.0490
 20
6.4861
  0
VERTEX
  8
LAYER1
 62
     7
  6
CONTINUOUS
 10
7.0490
 20
6.4861
  0
SEQEND
  8
LAYER1
  0
POLYLINE
  8
LAYER1
 62
     7
 66
     1
  6
CONTINUOUS
  0
VERTEX
  8
LAYER1
 62
     7
  6
CONTINUOUS
 10
7.0490
 20
6.4861
  0
VERTEX
  8
LAYER1
 62
     7
  6
CONTINUOUS
 10
7.0500
 20
6.4864
  0
VERTEX
  8
LAYER1
 62
     7
  6
CONTINUOUS
 10
7.0511
 20
6.4868
  0
VERTEX
  8
LAYER1
 62
     7
  6
CONTINUOUS
 10
7.0521
 20
6.4872
  0
VERTEX
  8
LAYER1
 62
     7
  6
CONTINUOUS
 10
7.0531
 20
6.4876
  0
VERTEX
  8
LAYER1
 62
     7
  6
CONTINUOUS
 10
7.0541
 20
6.4879
  0
VERTEX
  8
LAYER1
 62
     7
  6
CONTINUOUS
 10
7.0551
 20
6.4883
  0
VERTEX
  8
LAYER1
 62
     7
  6
CONTINUOUS
 10
7.0561
 20
6.4886
  0
VERTEX
  8
LAYER1
 62
     7
  6
CONTINUOUS
 10
7.0572
 20
6.4890
  0
VERTEX
  8
LAYER1
 62
     7
  6
CONTINUOUS
 10
7.0582
 20
6.4893
  0
VERTEX
  8
LAYER1
 62
     7
  6
CONTINUOUS
 10
7.0592
 20
6.4895
  0
VERTEX
  8
LAYER1
 62
     7
  6
CONTINUOUS
 10
7.0602
 20
6.4898
  0
VERTEX
  8
LAYER1
 62
     7
  6
CONTINUOUS
 10
7.0612
 20
6.4900
  0
VERTEX
  8
LAYER1
 62
     7
  6
CONTINUOUS
 10
7.0641
 20
6.4905
  0
VERTEX
  8
LAYER1
 62
     7
  6
CONTINUOUS
 10
7.0670
 20
6.4907
  0
VERTEX
  8
LAYER1
 62
     7
  6
CONTINUOUS
 10
7.0699
 20
6.4908
  0
VERTEX
  8
LAYER1
 62
     7
  6
CONTINUOUS
 10
7.0728
 20
6.4905
  0
VERTEX
  8
LAYER1
 62
     7
  6
CONTINUOUS
 10
7.0757
 20
6.4901
  0
VERTEX
  8
LAYER1
 62
     7
  6
CONTINUOUS
 10
7.0787
 20
6.4894
  0
VERTEX
  8
LAYER1
 62
     7
  6
CONTINUOUS
 10
7.0816
 20
6.4885
  0
VERTEX
  8
LAYER1
 62
     7
  6
CONTINUOUS
 10
7.0845
 20
6.4874
  0
VERTEX
  8
LAYER1
 62
     7
  6
CONTINUOUS
 10
7.0875
 20
6.4860
  0
VERTEX
  8
LAYER1
 62
     7
  6
CONTINUOUS
 10
7.0905
 20
6.4844
  0
VERTEX
  8
LAYER1
 62
     7
  6
CONTINUOUS
 10
7.0934
 20
6.4826
  0
VERTEX
  8
LAYER1
 62
     7
  6
CONTINUOUS
 10
7.0964
 20
6.4805
  0
VERTEX
  8
LAYER1
 62
     7
  6
CONTINUOUS
 10
7.0988
 20
6.4787
  0
VERTEX
  8
LAYER1
 62
     7
  6
CONTINUOUS
 10
7.1012
 20
6.4768
  0
VERTEX
  8
LAYER1
 62
     7
  6
CONTINUOUS
 10
7.1035
 20
6.4747
  0
VERTEX
  8
LAYER1
 62
     7
  6
CONTINUOUS
 10
7.1056
 20
6.4726
  0
VERTEX
  8
LAYER1
 62
     7
  6
CONTINUOUS
 10
7.1076
 20
6.4705
  0
VERTEX
  8
LAYER1
 62
     7
  6
CONTINUOUS
 10
7.1093
 20
6.4683
  0
VERTEX
  8
LAYER1
 62
     7
  6
CONTINUOUS
 10
7.1107
 20
6.4661
  0
VERTEX
  8
LAYER1
 62
     7
  6
CONTINUOUS
 10
7.1118
 20
6.4639
  0
VERTEX
  8
LAYER1
 62
     7
  6
CONTINUOUS
 10
7.1125
 20
6.4617
  0
VERTEX
  8
LAYER1
 62
     7
  6
CONTINUOUS
 10
7.1128
 20
6.4596
  0
VERTEX
  8
LAYER1
 62
     7
  6
CONTINUOUS
 10
7.1126
 20
6.4576
  0
VERTEX
  8
LAYER1
 62
     7
  6
CONTINUOUS
 10
7.1118
 20
6.4557
  0
VERTEX
  8
LAYER1
 62
     7
  6
CONTINUOUS
 10
7.1109
 20
6.4543
  0
VERTEX
  8
LAYER1
 62
     7
  6
CONTINUOUS
 10
7.1098
 20
6.4531
  0
VERTEX
  8
LAYER1
 62
     7
  6
CONTINUOUS
 10
7.1084
 20
6.4518
  0
VERTEX
  8
LAYER1
 62
     7
  6
CONTINUOUS
 10
7.1069
 20
6.4506
  0
VERTEX
  8
LAYER1
 62
     7
  6
CONTINUOUS
 10
7.1054
 20
6.4494
  0
VERTEX
  8
LAYER1
 62
     7
  6
CONTINUOUS
 10
7.1038
 20
6.4482
  0
VERTEX
  8
LAYER1
 62
     7
  6
CONTINUOUS
 10
7.1022
 20
6.4470
  0
VERTEX
  8
LAYER1
 62
     7
  6
CONTINUOUS
 10
7.1008
 20
6.4458
  0
VERTEX
  8
LAYER1
 62
     7
  6
CONTINUOUS
 10
7.0995
 20
6.4446
  0
VERTEX
  8
LAYER1
 62
     7
  6
CONTINUOUS
 10
7.0984
 20
6.4432
  0
VERTEX
  8
LAYER1
 62
     7
  6
CONTINUOUS
 10
7.0975
 20
6.4419
  0
VERTEX
  8
LAYER1
 62
     7
  6
CONTINUOUS
 10
7.0970
 20
6.4404
  0
VERTEX
  8
LAYER1
 62
     7
  6
CONTINUOUS
 10
7.0969
 20
6.4391
  0
VERTEX
  8
LAYER1
 62
     7
  6
CONTINUOUS
 10
7.0970
 20
6.4378
  0
VERTEX
  8
LAYER1
 62
     7
  6
CONTINUOUS
 10
7.0973
 20
6.4364
  0
VERTEX
  8
LAYER1
 62
     7
  6
CONTINUOUS
 10
7.0979
 20
6.4350
  0
VERTEX
  8
LAYER1
 62
     7
  6
CONTINUOUS
 10
7.0986
 20
6.4336
  0
VERTEX
  8
LAYER1
 62
     7
  6
CONTINUOUS
 10
7.0995
 20
6.4323
  0
VERTEX
  8
LAYER1
 62
     7
  6
CONTINUOUS
 10
7.1006
 20
6.4310
  0
VERTEX
  8
LAYER1
 62
     7
  6
CONTINUOUS
 10
7.1017
 20
6.4297
  0
VERTEX
  8
LAYER1
 62
     7
  6
CONTINUOUS
 10
7.1030
 20
6.4285
  0
VERTEX
  8
LAYER1
 62
     7
  6
CONTINUOUS
 10
7.1044
 20
6.4274
  0
VERTEX
  8
LAYER1
 62
     7
  6
CONTINUOUS
 10
7.1058
 20
6.4264
  0
VERTEX
  8
LAYER1
 62
     7
  6
CONTINUOUS
 10
7.1073
 20
6.4255
  0
VERTEX
  8
LAYER1
 62
     7
  6
CONTINUOUS
 10
7.1098
 20
6.4244
  0
VERTEX
  8
LAYER1
 62
     7
  6
CONTINUOUS
 10
7.1123
 20
6.4236
  0
VERTEX
  8
LAYER1
 62
     7
  6
CONTINUOUS
 10
7.1149
 20
6.4230
  0
VERTEX
  8
LAYER1
 62
     7
  6
CONTINUOUS
 10
7.1175
 20
6.4227
  0
VERTEX
  8
LAYER1
 62
     7
  6
CONTINUOUS
 10
7.1201
 20
6.4225
  0
VERTEX
  8
LAYER1
 62
     7
  6
CONTINUOUS
 10
7.1227
 20
6.4225
  0
VERTEX
  8
LAYER1
 62
     7
  6
CONTINUOUS
 10
7.1253
 20
6.4225
  0
VERTEX
  8
LAYER1
 62
     7
  6
CONTINUOUS
 10
7.1278
 20
6.4225
  0
VERTEX
  8
LAYER1
 62
     7
  6
CONTINUOUS
 10
7.1303
 20
6.4224
  0
VERTEX
  8
LAYER1
 62
     7
  6
CONTINUOUS
 10
7.1328
 20
6.4221
  0
VERTEX
  8
LAYER1
 62
     7
  6
CONTINUOUS
 10
7.1351
 20
6.4217
  0
VERTEX
  8
LAYER1
 62
     7
  6
CONTINUOUS
 10
7.1374
 20
6.4210
  0
VERTEX
  8
LAYER1
 62
     7
  6
CONTINUOUS
 10
7.1392
 20
6.4202
  0
VERTEX
  8
LAYER1
 62
     7
  6
CONTINUOUS
 10
7.1409
 20
6.4192
  0
VERTEX
  8
LAYER1
 62
     7
  6
CONTINUOUS
 10
7.1427
 20
6.4180
  0
VERTEX
  8
LAYER1
 62
     7
  6
CONTINUOUS
 10
7.1443
 20
6.4168
  0
VERTEX
  8
LAYER1
 62
     7
  6
CONTINUOUS
 10
7.1460
 20
6.4154
  0
VERTEX
  8
LAYER1
 62
     7
  6
CONTINUOUS
 10
7.1476
 20
6.4140
  0
VERTEX
  8
LAYER1
 62
     7
  6
CONTINUOUS
 10
7.1492
 20
6.4126
  0
VERTEX
  8
LAYER1
 62
     7
  6
CONTINUOUS
 10
7.1509
 20
6.4112
  0
VERTEX
  8
LAYER1
 62
     7
  6
CONTINUOUS
 10
7.1525
 20
6.4098
  0
VERTEX
  8
LAYER1
 62
     7
  6
CONTINUOUS
 10
7.1542
 20
6.4085
  0
VERTEX
  8
LAYER1
 62
     7
  6
CONTINUOUS
 10
7.1559
 20
6.4073
  0
VERTEX
  8
LAYER1
 62
     7
  6
CONTINUOUS
 10
7.1577
 20
6.4062
  0
VERTEX
  8
LAYER1
 62
     7
  6
CONTINUOUS
 10
7.1606
 20
6.4048
  0
VERTEX
  8
LAYER1
 62
     7
  6
CONTINUOUS
 10
7.1637
 20
6.4038
  0
VERTEX
  8
LAYER1
 62
     7
  6
CONTINUOUS
 10
7.1669
 20
6.4031
  0
VERTEX
  8
LAYER1
 62
     7
  6
CONTINUOUS
 10
7.1702
 20
6.4027
  0
VERTEX
  8
LAYER1
 62
     7
  6
CONTINUOUS
 10
7.1735
 20
6.4025
  0
VERTEX
  8
LAYER1
 62
     7
  6
CONTINUOUS
 10
7.1769
 20
6.4024
  0
VERTEX
  8
LAYER1
 62
     7
  6
CONTINUOUS
 10
7.1804
 20
6.4024
  0
VERTEX
  8
LAYER1
 62
     7
  6
CONTINUOUS
 10
7.1839
 20
6.4025
  0
VERTEX
  8
LAYER1
 62
     7
  6
CONTINUOUS
 10
7.1874
 20
6.4025
  0
VERTEX
  8
LAYER1
 62
     7
  6
CONTINUOUS
 10
7.1909
 20
6.4024
  0
VERTEX
  8
LAYER1
 62
     7
  6
CONTINUOUS
 10
7.1944
 20
6.4022
  0
VERTEX
  8
LAYER1
 62
     7
  6
CONTINUOUS
 10
7.1978
 20
6.4018
  0
VERTEX
  8
LAYER1
 62
     7
  6
CONTINUOUS
 10
7.2009
 20
6.4012
  0
VERTEX
  8
LAYER1
 62
     7
  6
CONTINUOUS
 10
7.2039
 20
6.4005
  0
VERTEX
  8
LAYER1
 62
     7
  6
CONTINUOUS
 10
7.2068
 20
6.3996
  0
VERTEX
  8
LAYER1
 62
     7
  6
CONTINUOUS
 10
7.2098
 20
6.3986
  0
VERTEX
  8
LAYER1
 62
     7
  6
CONTINUOUS
 10
7.2127
 20
6.3976
  0
VERTEX
  8
LAYER1
 62
     7
  6
CONTINUOUS
 10
7.2156
 20
6.3966
  0
VERTEX
  8
LAYER1
 62
     7
  6
CONTINUOUS
 10
7.2185
 20
6.3956
  0
VERTEX
  8
LAYER1
 62
     7
  6
CONTINUOUS
 10
7.2214
 20
6.3946
  0
VERTEX
  8
LAYER1
 62
     7
  6
CONTINUOUS
 10
7.2243
 20
6.3938
  0
VERTEX
  8
LAYER1
 62
     7
  6
CONTINUOUS
 10
7.2272
 20
6.3931
  0
VERTEX
  8
LAYER1
 62
     7
  6
CONTINUOUS
 10
7.2301
 20
6.3926
  0
VERTEX
  8
LAYER1
 62
     7
  6
CONTINUOUS
 10
7.2330
 20
6.3923
  0
VERTEX
  8
LAYER1
 62
     7
  6
CONTINUOUS
 10
7.2367
 20
6.3923
  0
VERTEX
  8
LAYER1
 62
     7
  6
CONTINUOUS
 10
7.2404
 20
6.3926
  0
VERTEX
  8
LAYER1
 62
     7
  6
CONTINUOUS
 10
7.2442
 20
6.3932
  0
VERTEX
  8
LAYER1
 62
     7
  6
CONTINUOUS
 10
7.2480
 20
6.3939
  0
VERTEX
  8
LAYER1
 62
     7
  6
CONTINUOUS
 10
7.2518
 20
6.3948
  0
VERTEX
  8
LAYER1
 62
     7
  6
CONTINUOUS
 10
7.2556
 20
6.3957
  0
VERTEX
  8
LAYER1
 62
     7
  6
CONTINUOUS
 10
7.2594
 20
6.3966
  0
VERTEX
  8
LAYER1
 62
     7
  6
CONTINUOUS
 10
7.2632
 20
6.3974
  0
VERTEX
  8
LAYER1
 62
     7
  6
CONTINUOUS
 10
7.2669
 20
6.3980
  0
VERTEX
  8
LAYER1
 62
     7
  6
CONTINUOUS
 10
7.2707
 20
6.3983
  0
VERTEX
  8
LAYER1
 62
     7
  6
CONTINUOUS
 10
7.2744
 20
6.3983
  0
VERTEX
  8
LAYER1
 62
     7
  6
CONTINUOUS
 10
7.2780
 20
6.3980
  0
VERTEX
  8
LAYER1
 62
     7
  6
CONTINUOUS
 10
7.2798
 20
6.3976
  0
VERTEX
  8
LAYER1
 62
     7
  6
CONTINUOUS
 10
7.2816
 20
6.3971
  0
VERTEX
  8
LAYER1
 62
     7
  6
CONTINUOUS
 10
7.2834
 20
6.3966
  0
VERTEX
  8
LAYER1
 62
     7
  6
CONTINUOUS
 10
7.2851
 20
6.3959
  0
VERTEX
  8
LAYER1
 62
     7
  6
CONTINUOUS
 10
7.2868
 20
6.3952
  0
VERTEX
  8
LAYER1
 62
     7
  6
CONTINUOUS
 10
7.2885
 20
6.3943
  0
VERTEX
  8
LAYER1
 62
     7
  6
CONTINUOUS
 10
7.2902
 20
6.3934
  0
VERTEX
  8
LAYER1
 62
     7
  6
CONTINUOUS
 10
7.2919
 20
6.3925
  0
VERTEX
  8
LAYER1
 62
     7
  6
CONTINUOUS
 10
7.2935
 20
6.3915
  0
VERTEX
  8
LAYER1
 62
     7
  6
CONTINUOUS
 10
7.2951
 20
6.3904
  0
VERTEX
  8
LAYER1
 62
     7
  6
CONTINUOUS
 10
7.2967
 20
6.3893
  0
VERTEX
  8
LAYER1
 62
     7
  6
CONTINUOUS
 10
7.2982
 20
6.3882
  0
VERTEX
  8
LAYER1
 62
     7
  6
CONTINUOUS
 10
7.3004
 20
6.3866
  0
VERTEX
  8
LAYER1
 62
     7
  6
CONTINUOUS
 10
7.3025
 20
6.3849
  0
VERTEX
  8
LAYER1
 62
     7
  6
CONTINUOUS
 10
7.3045
 20
6.3832
  0
VERTEX
  8
LAYER1
 62
     7
  6
CONTINUOUS
 10
7.3065
 20
6.3815
  0
VERTEX
  8
LAYER1
 62
     7
  6
CONTINUOUS
 10
7.3086
 20
6.3798
  0
VERTEX
  8
LAYER1
 62
     7
  6
CONTINUOUS
 10
7.3106
 20
6.3781
  0
VERTEX
  8
LAYER1
 62
     7
  6
CONTINUOUS
 10
7.3126
 20
6.3764
  0
VERTEX
  8
LAYER1
 62
     7
  6
CONTINUOUS
 10
7.3147
 20
6.3747
  0
VERTEX
  8
LAYER1
 62
     7
  6
CONTINUOUS
 10
7.3168
 20
6.3731
  0
VERTEX
  8
LAYER1
 62
     7
  6
CONTINUOUS
 10
7.3190
 20
6.3715
  0
VERTEX
  8
LAYER1
 62
     7
  6
CONTINUOUS
 10
7.3212
 20
6.3700
  0
VERTEX
  8
LAYER1
 62
     7
  6
CONTINUOUS
 10
7.3236
 20
6.3685
  0
VERTEX
  8
LAYER1
 62
     7
  6
CONTINUOUS
 10
7.3268
 20
6.3667
  0
VERTEX
  8
LAYER1
 62
     7
  6
CONTINUOUS
 10
7.3303
 20
6.3650
  0
VERTEX
  8
LAYER1
 62
     7
  6
CONTINUOUS
 10
7.3337
 20
6.3634
  0
VERTEX
  8
LAYER1
 62
     7
  6
CONTINUOUS
 10
7.3373
 20
6.3618
  0
VERTEX
  8
LAYER1
 62
     7
  6
CONTINUOUS
 10
7.3407
 20
6.3601
  0
VERTEX
  8
LAYER1
 62
     7
  6
CONTINUOUS
 10
7.3441
 20
6.3584
  0
VERTEX
  8
LAYER1
 62
     7
  6
CONTINUOUS
 10
7.3473
 20
6.3565
  0
VERTEX
  8
LAYER1
 62
     7
  6
CONTINUOUS
 10
7.3503
 20
6.3545
  0
VERTEX
  8
LAYER1
 62
     7
  6
CONTINUOUS
 10
7.3530
 20
6.3523
  0
VERTEX
  8
LAYER1
 62
     7
  6
CONTINUOUS
 10
7.3554
 20
6.3499
  0
VERTEX
  8
LAYER1
 62
     7
  6
CONTINUOUS
 10
7.3574
 20
6.3471
  0
VERTEX
  8
LAYER1
 62
     7
  6
CONTINUOUS
 10
7.3590
 20
6.3440
  0
VERTEX
  8
LAYER1
 62
     7
  6
CONTINUOUS
 10
7.3598
 20
6.3416
  0
VERTEX
  8
LAYER1
 62
     7
  6
CONTINUOUS
 10
7.3604
 20
6.3391
  0
VERTEX
  8
LAYER1
 62
     7
  6
CONTINUOUS
 10
7.3607
 20
6.3364
  0
VERTEX
  8
LAYER1
 62
     7
  6
CONTINUOUS
 10
7.3608
 20
6.3336
  0
VERTEX
  8
LAYER1
 62
     7
  6
CONTINUOUS
 10
7.3607
 20
6.3309
  0
VERTEX
  8
LAYER1
 62
     7
  6
CONTINUOUS
 10
7.3604
 20
6.3281
  0
VERTEX
  8
LAYER1
 62
     7
  6
CONTINUOUS
 10
7.3599
 20
6.3254
  0
VERTEX
  8
LAYER1
 62
     7
  6
CONTINUOUS
 10
7.3592
 20
6.3228
  0
VERTEX
  8
LAYER1
 62
     7
  6
CONTINUOUS
 10
7.3583
 20
6.3202
  0
VERTEX
  8
LAYER1
 62
     7
  6
CONTINUOUS
 10
7.3571
 20
6.3179
  0
VERTEX
  8
LAYER1
 62
     7
  6
CONTINUOUS
 10
7.3559
 20
6.3158
  0
VERTEX
  8
LAYER1
 62
     7
  6
CONTINUOUS
 10
7.3544
 20
6.3139
  0
VERTEX
  8
LAYER1
 62
     7
  6
CONTINUOUS
 10
7.3525
 20
6.3120
  0
VERTEX
  8
LAYER1
 62
     7
  6
CONTINUOUS
 10
7.3504
 20
6.3105
  0
VERTEX
  8
LAYER1
 62
     7
  6
CONTINUOUS
 10
7.3481
 20
6.3093
  0
VERTEX
  8
LAYER1
 62
     7
  6
CONTINUOUS
 10
7.3456
 20
6.3085
  0
VERTEX
  8
LAYER1
 62
     7
  6
CONTINUOUS
 10
7.3429
 20
6.3078
  0
VERTEX
  8
LAYER1
 62
     7
  6
CONTINUOUS
 10
7.3400
 20
6.3075
  0
VERTEX
  8
LAYER1
 62
     7
  6
CONTINUOUS
 10
7.3370
 20
6.3073
  0
VERTEX
  8
LAYER1
 62
     7
  6
CONTINUOUS
 10
7.3337
 20
6.3073
  0
VERTEX
  8
LAYER1
 62
     7
  6
CONTINUOUS
 10
7.3304
 20
6.3074
  0
VERTEX
  8
LAYER1
 62
     7
  6
CONTINUOUS
 10
7.3269
 20
6.3077
  0
VERTEX
  8
LAYER1
 62
     7
  6
CONTINUOUS
 10
7.3232
 20
6.3080
  0
VERTEX
  8
LAYER1
 62
     7
  6
CONTINUOUS
 10
7.3194
 20
6.3084
  0
VERTEX
  8
LAYER1
 62
     7
  6
CONTINUOUS
 10
7.3150
 20
6.3088
  0
VERTEX
  8
LAYER1
 62
     7
  6
CONTINUOUS
 10
7.3104
 20
6.3093
  0
VERTEX
  8
LAYER1
 62
     7
  6
CONTINUOUS
 10
7.3059
 20
6.3098
  0
VERTEX
  8
LAYER1
 62
     7
  6
CONTINUOUS
 10
7.3015
 20
6.3103
  0
VERTEX
  8
LAYER1
 62
     7
  6
CONTINUOUS
 10
7.2972
 20
6.3108
  0
VERTEX
  8
LAYER1
 62
     7
  6
CONTINUOUS
 10
7.2932
 20
6.3112
  0
VERTEX
  8
LAYER1
 62
     7
  6
CONTINUOUS
 10
7.2896
 20
6.3116
  0
VERTEX
  8
LAYER1
 62
     7
  6
CONTINUOUS
 10
7.2863
 20
6.3120
  0
VERTEX
  8
LAYER1
 62
     7
  6
CONTINUOUS
 10
7.2836
 20
6.3123
  0
VERTEX
  8
LAYER1
 62
     7
  6
CONTINUOUS
 10
7.2815
 20
6.3126
  0
VERTEX
  8
LAYER1
 62
     7
  6
CONTINUOUS
 10
7.2800
 20
6.3127
  0
VERTEX
  8
LAYER1
 62
     7
  6
CONTINUOUS
 10
7.2793
 20
6.3128
  0
VERTEX
  8
LAYER1
 62
     7
  6
CONTINUOUS
 10
7.2792
 20
6.3128
  0
VERTEX
  8
LAYER1
 62
     7
  6
CONTINUOUS
 10
7.2792
 20
6.3128
  0
VERTEX
  8
LAYER1
 62
     7
  6
CONTINUOUS
 10
7.2792
 20
6.3128
  0
VERTEX
  8
LAYER1
 62
     7
  6
CONTINUOUS
 10
7.2792
 20
6.3128
  0
VERTEX
  8
LAYER1
 62
     7
  6
CONTINUOUS
 10
7.2792
 20
6.3128
  0
VERTEX
  8
LAYER1
 62
     7
  6
CONTINUOUS
 10
7.2792
 20
6.3128
  0
VERTEX
  8
LAYER1
 62
     7
  6
CONTINUOUS
 10
7.2792
 20
6.3128
  0
VERTEX
  8
LAYER1
 62
     7
  6
CONTINUOUS
 10
7.2792
 20
6.3128
  0
VERTEX
  8
LAYER1
 62
     7
  6
CONTINUOUS
 10
7.2792
 20
6.3128
  0
VERTEX
  8
LAYER1
 62
     7
  6
CONTINUOUS
 10
7.2792
 20
6.3128
  0
VERTEX
  8
LAYER1
 62
     7
  6
CONTINUOUS
 10
7.2793
 20
6.3128
  0
VERTEX
  8
LAYER1
 62
     7
  6
CONTINUOUS
 10
7.2793
 20
6.3128
  0
VERTEX
  8
LAYER1
 62
     7
  6
CONTINUOUS
 10
7.2793
 20
6.3128
  0
VERTEX
  8
LAYER1
 62
     7
  6
CONTINUOUS
 10
7.2793
 20
6.3128
  0
VERTEX
  8
LAYER1
 62
     7
  6
CONTINUOUS
 10
7.2793
 20
6.3128
  0
VERTEX
  8
LAYER1
 62
     7
  6
CONTINUOUS
 10
7.2793
 20
6.3128
  0
VERTEX
  8
LAYER1
 62
     7
  6
CONTINUOUS
 10
7.2793
 20
6.3128
  0
VERTEX
  8
LAYER1
 62
     7
  6
CONTINUOUS
 10
7.2793
 20
6.3128
  0
VERTEX
  8
LAYER1
 62
     7
  6
CONTINUOUS
 10
7.2793
 20
6.3128
  0
VERTEX
  8
LAYER1
 62
     7
  6
CONTINUOUS
 10
7.2793
 20
6.3128
  0
VERTEX
  8
LAYER1
 62
     7
  6
CONTINUOUS
 10
7.2793
 20
6.3128
  0
VERTEX
  8
LAYER1
 62
     7
  6
CONTINUOUS
 10
7.2793
 20
6.3128
  0
VERTEX
  8
LAYER1
 62
     7
  6
CONTINUOUS
 10
7.2793
 20
6.3128
  0
VERTEX
  8
LAYER1
 62
     7
  6
CONTINUOUS
 10
7.2793
 20
6.3128
  0
VERTEX
  8
LAYER1
 62
     7
  6
CONTINUOUS
 10
7.2793
 20
6.3128
  0
VERTEX
  8
LAYER1
 62
     7
  6
CONTINUOUS
 10
7.2793
 20
6.3128
  0
VERTEX
  8
LAYER1
 62
     7
  6
CONTINUOUS
 10
7.2793
 20
6.3128
  0
VERTEX
  8
LAYER1
 62
     7
  6
CONTINUOUS
 10
7.2793
 20
6.3127
  0
VERTEX
  8
LAYER1
 62
     7
  6
CONTINUOUS
 10
7.2793
 20
6.3127
  0
VERTEX
  8
LAYER1
 62
     7
  6
CONTINUOUS
 10
7.2793
 20
6.3127
  0
VERTEX
  8
LAYER1
 62
     7
  6
CONTINUOUS
 10
7.2793
 20
6.3127
  0
VERTEX
  8
LAYER1
 62
     7
  6
CONTINUOUS
 10
7.2793
 20
6.3127
  0
VERTEX
  8
LAYER1
 62
     7
  6
CONTINUOUS
 10
7.2793
 20
6.3127
  0
VERTEX
  8
LAYER1
 62
     7
  6
CONTINUOUS
 10
7.2793
 20
6.3127
  0
VERTEX
  8
LAYER1
 62
     7
  6
CONTINUOUS
 10
7.2793
 20
6.3128
  0
VERTEX
  8
LAYER1
 62
     7
  6
CONTINUOUS
 10
7.2793
 20
6.3128
  0
VERTEX
  8
LAYER1
 62
     7
  6
CONTINUOUS
 10
7.2788
 20
6.3135
  0
VERTEX
  8
LAYER1
 62
     7
  6
CONTINUOUS
 10
7.2780
 20
6.3148
  0
VERTEX
  8
LAYER1
 62
     7
  6
CONTINUOUS
 10
7.2767
 20
6.3166
  0
VERTEX
  8
LAYER1
 62
     7
  6
CONTINUOUS
 10
7.2750
 20
6.3189
  0
VERTEX
  8
LAYER1
 62
     7
  6
CONTINUOUS
 10
7.2731
 20
6.3214
  0
VERTEX
  8
LAYER1
 62
     7
  6
CONTINUOUS
 10
7.2708
 20
6.3241
  0
VERTEX
  8
LAYER1
 62
     7
  6
CONTINUOUS
 10
7.2684
 20
6.3269
  0
VERTEX
  8
LAYER1
 62
     7
  6
CONTINUOUS
 10
7.2657
 20
6.3296
  0
VERTEX
  8
LAYER1
 62
     7
  6
CONTINUOUS
 10
7.2629
 20
6.3321
  0
VERTEX
  8
LAYER1
 62
     7
  6
CONTINUOUS
 10
7.2599
 20
6.3343
  0
VERTEX
  8
LAYER1
 62
     7
  6
CONTINUOUS
 10
7.2569
 20
6.3362
  0
VERTEX
  8
LAYER1
 62
     7
  6
CONTINUOUS
 10
7.2539
 20
6.3375
  0
VERTEX
  8
LAYER1
 62
     7
  6
CONTINUOUS
 10
7.2515
 20
6.3381
  0
VERTEX
  8
LAYER1
 62
     7
  6
CONTINUOUS
 10
7.2492
 20
6.3383
  0
VERTEX
  8
LAYER1
 62
     7
  6
CONTINUOUS
 10
7.2470
 20
6.3382
  0
VERTEX
  8
LAYER1
 62
     7
  6
CONTINUOUS
 10
7.2447
 20
6.3379
  0
VERTEX
  8
LAYER1
 62
     7
  6
CONTINUOUS
 10
7.2425
 20
6.3372
  0
VERTEX
  8
LAYER1
 62
     7
  6
CONTINUOUS
 10
7.2403
 20
6.3363
  0
VERTEX
  8
LAYER1
 62
     7
  6
CONTINUOUS
 10
7.2383
 20
6.3352
  0
VERTEX
  8
LAYER1
 62
     7
  6
CONTINUOUS
 10
7.2362
 20
6.3339
  0
VERTEX
  8
LAYER1
 62
     7
  6
CONTINUOUS
 10
7.2343
 20
6.3324
  0
VERTEX
  8
LAYER1
 62
     7
  6
CONTINUOUS
 10
7.2324
 20
6.3307
  0
VERTEX
  8
LAYER1
 62
     7
  6
CONTINUOUS
 10
7.2306
 20
6.3290
  0
VERTEX
  8
LAYER1
 62
     7
  6
CONTINUOUS
 10
7.2290
 20
6.3271
  0
VERTEX
  8
LAYER1
 62
     7
  6
CONTINUOUS
 10
7.2271
 20
6.3248
  0
VERTEX
  8
LAYER1
 62
     7
  6
CONTINUOUS
 10
7.2254
 20
6.3223
  0
VERTEX
  8
LAYER1
 62
     7
  6
CONTINUOUS
 10
7.2238
 20
6.3199
  0
VERTEX
  8
LAYER1
 62
     7
  6
CONTINUOUS
 10
7.2222
 20
6.3174
  0
VERTEX
  8
LAYER1
 62
     7
  6
CONTINUOUS
 10
7.2207
 20
6.3150
  0
VERTEX
  8
LAYER1
 62
     7
  6
CONTINUOUS
 10
7.2193
 20
6.3126
  0
VERTEX
  8
LAYER1
 62
     7
  6
CONTINUOUS
 10
7.2178
 20
6.3103
  0
VERTEX
  8
LAYER1
 62
     7
  6
CONTINUOUS
 10
7.2163
 20
6.3082
  0
VERTEX
  8
LAYER1
 62
     7
  6
CONTINUOUS
 10
7.2147
 20
6.3062
  0
VERTEX
  8
LAYER1
 62
     7
  6
CONTINUOUS
 10
7.2130
 20
6.3045
  0
VERTEX
  8
LAYER1
 62
     7
  6
CONTINUOUS
 10
7.2112
 20
6.3030
  0
VERTEX
  8
LAYER1
 62
     7
  6
CONTINUOUS
 10
7.2093
 20
6.3018
  0
VERTEX
  8
LAYER1
 62
     7
  6
CONTINUOUS
 10
7.2069
 20
6.3007
  0
VERTEX
  8
LAYER1
 62
     7
  6
CONTINUOUS
 10
7.2044
 20
6.3001
  0
VERTEX
  8
LAYER1
 62
     7
  6
CONTINUOUS
 10
7.2017
 20
6.2998
  0
VERTEX
  8
LAYER1
 62
     7
  6
CONTINUOUS
 10
7.1989
 20
6.2997
  0
VERTEX
  8
LAYER1
 62
     7
  6
CONTINUOUS
 10
7.1960
 20
6.2999
  0
VERTEX
  8
LAYER1
 62
     7
  6
CONTINUOUS
 10
7.1929
 20
6.3004
  0
VERTEX
  8
LAYER1
 62
     7
  6
CONTINUOUS
 10
7.1898
 20
6.3010
  0
VERTEX
  8
LAYER1
 62
     7
  6
CONTINUOUS
 10
7.1867
 20
6.3019
  0
VERTEX
  8
LAYER1
 62
     7
  6
CONTINUOUS
 10
7.1835
 20
6.3028
  0
VERTEX
  8
LAYER1
 62
     7
  6
CONTINUOUS
 10
7.1803
 20
6.3039
  0
VERTEX
  8
LAYER1
 62
     7
  6
CONTINUOUS
 10
7.1772
 20
6.3050
  0
VERTEX
  8
LAYER1
 62
     7
  6
CONTINUOUS
 10
7.1741
 20
6.3062
  0
VERTEX
  8
LAYER1
 62
     7
  6
CONTINUOUS
 10
7.1713
 20
6.3074
  0
VERTEX
  8
LAYER1
 62
     7
  6
CONTINUOUS
 10
7.1685
 20
6.3086
  0
VERTEX
  8
LAYER1
 62
     7
  6
CONTINUOUS
 10
7.1658
 20
6.3098
  0
VERTEX
  8
LAYER1
 62
     7
  6
CONTINUOUS
 10
7.1631
 20
6.3110
  0
VERTEX
  8
LAYER1
 62
     7
  6
CONTINUOUS
 10
7.1605
 20
6.3122
  0
VERTEX
  8
LAYER1
 62
     7
  6
CONTINUOUS
 10
7.1580
 20
6.3134
  0
VERTEX
  8
LAYER1
 62
     7
  6
CONTINUOUS
 10
7.1555
 20
6.3146
  0
VERTEX
  8
LAYER1
 62
     7
  6
CONTINUOUS
 10
7.1531
 20
6.3159
  0
VERTEX
  8
LAYER1
 62
     7
  6
CONTINUOUS
 10
7.1507
 20
6.3171
  0
VERTEX
  8
LAYER1
 62
     7
  6
CONTINUOUS
 10
7.1484
 20
6.3183
  0
VERTEX
  8
LAYER1
 62
     7
  6
CONTINUOUS
 10
7.1461
 20
6.3196
  0
VERTEX
  8
LAYER1
 62
     7
  6
CONTINUOUS
 10
7.1439
 20
6.3208
  0
VERTEX
  8
LAYER1
 62
     7
  6
CONTINUOUS
 10
7.1419
 20
6.3219
  0
VERTEX
  8
LAYER1
 62
     7
  6
CONTINUOUS
 10
7.1400
 20
6.3230
  0
VERTEX
  8
LAYER1
 62
     7
  6
CONTINUOUS
 10
7.1381
 20
6.3241
  0
VERTEX
  8
LAYER1
 62
     7
  6
CONTINUOUS
 10
7.1362
 20
6.3253
  0
VERTEX
  8
LAYER1
 62
     7
  6
CONTINUOUS
 10
7.1343
 20
6.3264
  0
VERTEX
  8
LAYER1
 62
     7
  6
CONTINUOUS
 10
7.1323
 20
6.3276
  0
VERTEX
  8
LAYER1
 62
     7
  6
CONTINUOUS
 10
7.1302
 20
6.3288
  0
VERTEX
  8
LAYER1
 62
     7
  6
CONTINUOUS
 10
7.1281
 20
6.3300
  0
VERTEX
  8
LAYER1
 62
     7
  6
CONTINUOUS
 10
7.1259
 20
6.3313
  0
VERTEX
  8
LAYER1
 62
     7
  6
CONTINUOUS
 10
7.1236
 20
6.3327
  0
SEQEND
  8
LAYER1
  0
POLYLINE
  8
LAYER1
 62
     7
 66
     1
  6
CONTINUOUS
  0
VERTEX
  8
LAYER1
 62
     7
  6
CONTINUOUS
 10
7.1236
 20
6.3327
  0
VERTEX
  8
LAYER1
 62
     7
  6
CONTINUOUS
 10
7.1212
 20
6.3341
  0
VERTEX
  8
LAYER1
 62
     7
  6
CONTINUOUS
 10
7.1186
 20
6.3355
  0
VERTEX
  8
LAYER1
 62
     7
  6
CONTINUOUS
 10
7.1159
 20
6.3370
  0
VERTEX
  8
LAYER1
 62
     7
  6
CONTINUOUS
 10
7.1131
 20
6.3386
  0
VERTEX
  8
LAYER1
 62
     7
  6
CONTINUOUS
 10
7.1103
 20
6.3402
  0
VERTEX
  8
LAYER1
 62
     7
  6
CONTINUOUS
 10
7.1076
 20
6.3417
  0
VERTEX
  8
LAYER1
 62
     7
  6
CONTINUOUS
 10
7.1049
 20
6.3432
  0
VERTEX
  8
LAYER1
 62
     7
  6
CONTINUOUS
 10
7.1023
 20
6.3447
  0
VERTEX
  8
LAYER1
 62
     7
  6
CONTINUOUS
 10
7.1000
 20
6.3460
  0
VERTEX
  8
LAYER1
 62
     7
  6
CONTINUOUS
 10
7.0979
 20
6.3472
  0
VERTEX
  8
LAYER1
 62
     7
  6
CONTINUOUS
 10
7.0961
 20
6.3482
  0
VERTEX
  8
LAYER1
 62
     7
  6
CONTINUOUS
 10
7.0948
 20
6.3491
  0
VERTEX
  8
LAYER1
 62
     7
  6
CONTINUOUS
 10
7.0938
 20
6.3498
  0
VERTEX
  8
LAYER1
 62
     7
  6
CONTINUOUS
 10
7.0933
 20
6.3502
  0
VERTEX
  8
LAYER1
 62
     7
  6
CONTINUOUS
 10
7.0933
 20
6.3502
  0
VERTEX
  8
LAYER1
 62
     7
  6
CONTINUOUS
 10
7.0933
 20
6.3502
  0
VERTEX
  8
LAYER1
 62
     7
  6
CONTINUOUS
 10
7.0933
 20
6.3503
  0
VERTEX
  8
LAYER1
 62
     7
  6
CONTINUOUS
 10
7.0933
 20
6.3503
  0
VERTEX
  8
LAYER1
 62
     7
  6
CONTINUOUS
 10
7.0933
 20
6.3503
  0
VERTEX
  8
LAYER1
 62
     7
  6
CONTINUOUS
 10
7.0933
 20
6.3503
  0
VERTEX
  8
LAYER1
 62
     7
  6
CONTINUOUS
 10
7.0933
 20
6.3503
  0
VERTEX
  8
LAYER1
 62
     7
  6
CONTINUOUS
 10
7.0933
 20
6.3503
  0
VERTEX
  8
LAYER1
 62
     7
  6
CONTINUOUS
 10
7.0933
 20
6.3503
  0
VERTEX
  8
LAYER1
 62
     7
  6
CONTINUOUS
 10
7.0933
 20
6.3503
  0
VERTEX
  8
LAYER1
 62
     7
  6
CONTINUOUS
 10
7.0933
 20
6.3502
  0
VERTEX
  8
LAYER1
 62
     7
  6
CONTINUOUS
 10
7.0933
 20
6.3502
  0
VERTEX
  8
LAYER1
 62
     7
  6
CONTINUOUS
 10
7.0929
 20
6.3495
  0
VERTEX
  8
LAYER1
 62
     7
  6
CONTINUOUS
 10
7.0919
 20
6.3484
  0
VERTEX
  8
LAYER1
 62
     7
  6
CONTINUOUS
 10
7.0903
 20
6.3468
  0
VERTEX
  8
LAYER1
 62
     7
  6
CONTINUOUS
 10
7.0883
 20
6.3450
  0
VERTEX
  8
LAYER1
 62
     7
  6
CONTINUOUS
 10
7.0859
 20
6.3429
  0
VERTEX
  8
LAYER1
 62
     7
  6
CONTINUOUS
 10
7.0831
 20
6.3407
  0
VERTEX
  8
LAYER1
 62
     7
  6
CONTINUOUS
 10
7.0801
 20
6.3384
  0
VERTEX
  8
LAYER1
 62
     7
  6
CONTINUOUS
 10
7.0769
 20
6.3362
  0
VERTEX
  8
LAYER1
 62
     7
  6
CONTINUOUS
 10
7.0736
 20
6.3342
  0
VERTEX
  8
LAYER1
 62
     7
  6
CONTINUOUS
 10
7.0702
 20
6.3323
  0
VERTEX
  8
LAYER1
 62
     7
  6
CONTINUOUS
 10
7.0669
 20
6.3308
  0
VERTEX
  8
LAYER1
 62
     7
  6
CONTINUOUS
 10
7.0636
 20
6.3297
  0
VERTEX
  8
LAYER1
 62
     7
  6
CONTINUOUS
 10
7.0623
 20
6.3294
  0
VERTEX
  8
LAYER1
 62
     7
  6
CONTINUOUS
 10
7.0610
 20
6.3291
  0
VERTEX
  8
LAYER1
 62
     7
  6
CONTINUOUS
 10
7.0597
 20
6.3290
  0
VERTEX
  8
LAYER1
 62
     7
  6
CONTINUOUS
 10
7.0585
 20
6.3288
  0
VERTEX
  8
LAYER1
 62
     7
  6
CONTINUOUS
 10
7.0573
 20
6.3288
  0
VERTEX
  8
LAYER1
 62
     7
  6
CONTINUOUS
 10
7.0561
 20
6.3288
  0
VERTEX
  8
LAYER1
 62
     7
  6
CONTINUOUS
 10
7.0549
 20
6.3288
  0
VERTEX
  8
LAYER1
 62
     7
  6
CONTINUOUS
 10
7.0537
 20
6.3288
  0
VERTEX
  8
LAYER1
 62
     7
  6
CONTINUOUS
 10
7.0525
 20
6.3289
  0
VERTEX
  8
LAYER1
 62
     7
  6
CONTINUOUS
 10
7.0514
 20
6.3290
  0
VERTEX
  8
LAYER1
 62
     7
  6
CONTINUOUS
 10
7.0502
 20
6.3291
  0
VERTEX
  8
LAYER1
 62
     7
  6
CONTINUOUS
 10
7.0490
 20
6.3293
  0
SEQEND
  8
LAYER1
  0
POLYLINE
  8
LAYER1
 62
     7
 66
     1
  6
CONTINUOUS
  0
VERTEX
  8
LAYER1
 62
     7
  6
CONTINUOUS
 10
7.0490
 20
6.3293
  0
VERTEX
  8
LAYER1
 62
     7
  6
CONTINUOUS
 10
7.0490
 20
6.3293
  0
VERTEX
  8
LAYER1
 62
     7
  6
CONTINUOUS
 10
7.0490
 20
6.3293
  0
VERTEX
  8
LAYER1
 62
     7
  6
CONTINUOUS
 10
7.0490
 20
6.3293
  0
VERTEX
  8
LAYER1
 62
     7
  6
CONTINUOUS
 10
7.0490
 20
6.3293
  0
VERTEX
  8
LAYER1
 62
     7
  6
CONTINUOUS
 10
7.0490
 20
6.3293
  0
VERTEX
  8
LAYER1
 62
     7
  6
CONTINUOUS
 10
7.0490
 20
6.3293
  0
VERTEX
  8
LAYER1
 62
     7
  6
CONTINUOUS
 10
7.0490
 20
6.3293
  0
VERTEX
  8
LAYER1
 62
     7
  6
CONTINUOUS
 10
7.0490
 20
6.3293
  0
VERTEX
  8
LAYER1
 62
     7
  6
CONTINUOUS
 10
7.0490
 20
6.3293
  0
VERTEX
  8
LAYER1
 62
     7
  6
CONTINUOUS
 10
7.0490
 20
6.3293
  0
VERTEX
  8
LAYER1
 62
     7
  6
CONTINUOUS
 10
7.0490
 20
6.3293
  0
VERTEX
  8
LAYER1
 62
     7
  6
CONTINUOUS
 10
7.0490
 20
6.3293
  0
VERTEX
  8
LAYER1
 62
     7
  6
CONTINUOUS
 10
7.0490
 20
6.3293
  0
VERTEX
  8
LAYER1
 62
     7
  6
CONTINUOUS
 10
7.0490
 20
6.3293
  0
VERTEX
  8
LAYER1
 62
     7
  6
CONTINUOUS
 10
7.0490
 20
6.3293
  0
VERTEX
  8
LAYER1
 62
     7
  6
CONTINUOUS
 10
7.0490
 20
6.3293
  0
VERTEX
  8
LAYER1
 62
     7
  6
CONTINUOUS
 10
7.0490
 20
6.3293
  0
VERTEX
  8
LAYER1
 62
     7
  6
CONTINUOUS
 10
7.0490
 20
6.3293
  0
VERTEX
  8
LAYER1
 62
     7
  6
CONTINUOUS
 10
7.0490
 20
6.3293
  0
VERTEX
  8
LAYER1
 62
     7
  6
CONTINUOUS
 10
7.0490
 20
6.3293
  0
VERTEX
  8
LAYER1
 62
     7
  6
CONTINUOUS
 10
7.0490
 20
6.3293
  0
VERTEX
  8
LAYER1
 62
     7
  6
CONTINUOUS
 10
7.0490
 20
6.3293
  0
VERTEX
  8
LAYER1
 62
     7
  6
CONTINUOUS
 10
7.0490
 20
6.3293
  0
VERTEX
  8
LAYER1
 62
     7
  6
CONTINUOUS
 10
7.0490
 20
6.3293
  0
SEQEND
  8
LAYER1
  0
ARC
  8
LAYER1
 62
     7
  6
CONTINUOUS
 10
7.7774
 20
6.5141
 40
0.0129
 50
-78.0578
 51
46.4487
  0
ARC
  8
LAYER1
 62
     7
  6
CONTINUOUS
 10
7.2009
 20
6.5346
 40
0.0225
 50
-89.1662
 51
-29.5902
  0
ARC
  8
LAYER1
 62
     7
  6
CONTINUOUS
 10
7.1438
 20
6.4987
 40
0.0327
 50
-93.5680
 51
49.3341
  0
ARC
  8
LAYER1
 62
     7
  6
CONTINUOUS
 10
8.0188
 20
6.1439
 40
0.0168
 50
-31.8044
 51
-24.5317
  0
ARC
  8
LAYER1
 62
     7
  6
CONTINUOUS
 10
8.0188
 20
6.1439
 40
0.0168
 50
24.5316
 51
31.8048
  0
POLYLINE
  8
LAYER12
 62
     5
 66
     1
  6
CONTINUOUS
  0
VERTEX
  8
LAYER12
 62
     5
  6
CONTINUOUS
 10
7.0493
 20
5.5398
  0
VERTEX
  8
LAYER12
 62
     5
  6
CONTINUOUS
 10
7.0493
 20
5.5398
  0
SEQEND
  8
LAYER12
  0
POLYLINE
  8
LAYER12
 62
     5
 66
     1
  6
CONTINUOUS
  0
VERTEX
  8
LAYER12
 62
     5
  6
CONTINUOUS
 10
7.0493
 20
5.5398
  0
VERTEX
  8
LAYER12
 62
     5
  6
CONTINUOUS
 10
7.0493
 20
5.5398
  0
SEQEND
  8
LAYER12
  0
POLYLINE
  8
LAYER12
 62
     5
 66
     1
  6
CONTINUOUS
  0
VERTEX
  8
LAYER12
 62
     5
  6
CONTINUOUS
 10
7.0493
 20
5.5400
  0
VERTEX
  8
LAYER12
 62
     5
  6
CONTINUOUS
 10
7.0493
 20
5.5400
  0
SEQEND
  8
LAYER12
  0
POLYLINE
  8
LAYER12
 62
     5
 66
     1
  6
CONTINUOUS
  0
VERTEX
  8
LAYER12
 62
     5
  6
CONTINUOUS
 10
7.0493
 20
5.5400
  0
VERTEX
  8
LAYER12
 62
     5
  6
CONTINUOUS
 10
7.0493
 20
6.5231
  0
SEQEND
  8
LAYER12
  0
POLYLINE
  8
LAYER12
 62
     5
 66
     1
  6
CONTINUOUS
  0
VERTEX
  8
LAYER12
 62
     5
  6
CONTINUOUS
 10
8.0340
 20
5.5398
  0
VERTEX
  8
LAYER12
 62
     5
  6
CONTINUOUS
 10
8.0340
 20
5.5398
  0
SEQEND
  8
LAYER12
  0
POLYLINE
  8
LAYER12
 62
     5
 66
     1
  6
CONTINUOUS
  0
VERTEX
  8
LAYER12
 62
     5
  6
CONTINUOUS
 10
7.0490
 20
6.5235
  0
VERTEX
  8
LAYER12
 62
     5
  6
CONTINUOUS
 10
8.0330
 20
6.5235
  0
SEQEND
  8
LAYER12
  0
POLYLINE
  8
LAYER12
 62
     5
 66
     1
  6
CONTINUOUS
  0
VERTEX
  8
LAYER12
 62
     5
  6
CONTINUOUS
 10
8.0330
 20
6.5235
  0
VERTEX
  8
LAYER12
 62
     5
  6
CONTINUOUS
 10
8.0340
 20
6.5235
  0
SEQEND
  8
LAYER12
  0
POLYLINE
  8
LAYER12
 62
     5
 66
     1
  6
CONTINUOUS
  0
VERTEX
  8
LAYER12
 62
     5
  6
CONTINUOUS
 10
7.0493
 20
6.5231
  0
VERTEX
  8
LAYER12
 62
     5
  6
CONTINUOUS
 10
7.0493
 20
6.5235
  0
SEQEND
  8
LAYER12
  0
POLYLINE
  8
LAYER12
 62
     5
 66
     1
  6
CONTINUOUS
  0
VERTEX
  8
LAYER12
 62
     5
  6
CONTINUOUS
 10
8.0340
 20
5.5398
  0
VERTEX
  8
LAYER12
 62
     5
  6
CONTINUOUS
 10
7.0510
 20
5.5398
  0
SEQEND
  8
LAYER12
  0
POLYLINE
  8
LAYER12
 62
     5
 66
     1
  6
CONTINUOUS
  0
VERTEX
  8
LAYER12
 62
     5
  6
CONTINUOUS
 10
7.0510
 20
5.5398
  0
VERTEX
  8
LAYER12
 62
     5
  6
CONTINUOUS
 10
7.0490
 20
5.5398
  0
SEQEND
  8
LAYER12
  0
POLYLINE
  8
LAYER12
 62
     5
 66
     1
  6
CONTINUOUS
  0
VERTEX
  8
LAYER12
 62
     5
  6
CONTINUOUS
 10
7.0490
 20
5.5398
  0
VERTEX
  8
LAYER12
 62
     5
  6
CONTINUOUS
 10
7.0490
 20
5.5398
  0
SEQEND
  8
LAYER12
  0
POLYLINE
  8
LAYER12
 62
     5
 66
     1
  6
CONTINUOUS
  0
VERTEX
  8
LAYER12
 62
     5
  6
CONTINUOUS
 10
7.0490
 20
5.5398
  0
VERTEX
  8
LAYER12
 62
     5
  6
CONTINUOUS
 10
7.0490
 20
5.5398
  0
SEQEND
  8
LAYER12
  0
POLYLINE
  8
LAYER12
 62
     5
 66
     1
  6
CONTINUOUS
  0
VERTEX
  8
LAYER12
 62
     5
  6
CONTINUOUS
 10
7.0493
 20
5.5398
  0
VERTEX
  8
LAYER12
 62
     5
  6
CONTINUOUS
 10
7.0493
 20
5.5400
  0
SEQEND
  8
LAYER12
  0
POLYLINE
  8
LAYER12
 62
     5
 66
     1
  6
CONTINUOUS
  0
VERTEX
  8
LAYER12
 62
     5
  6
CONTINUOUS
 10
7.0493
 20
5.5400
  0
VERTEX
  8
LAYER12
 62
     5
  6
CONTINUOUS
 10
7.0493
 20
5.5400
  0
SEQEND
  8
LAYER12
  0
POLYLINE
  8
LAYER12
 62
     5
 66
     1
  6
CONTINUOUS
  0
VERTEX
  8
LAYER12
 62
     5
  6
CONTINUOUS
 10
8.0330
 20
6.5235
  0
VERTEX
  8
LAYER12
 62
     5
  6
CONTINUOUS
 10
8.0330
 20
5.5400
  0
SEQEND
  8
LAYER12
  0
POLYLINE
  8
LAYER12
 62
     5
 66
     1
  6
CONTINUOUS
  0
VERTEX
  8
LAYER12
 62
     5
  6
CONTINUOUS
 10
8.0330
 20
5.5400
  0
VERTEX
  8
LAYER12
 62
     5
  6
CONTINUOUS
 10
8.0330
 20
5.5398
  0
SEQEND
  8
LAYER12
  0
ENDSEC
  0
EOF
