  0
SECTION
  2
HEADER
  9
$ACADVER
  1
AC1004
  9
$EXTMIN
 10
2.0492
 20
5.5398
  9
$EXTMAX
 10
3.0766
 20
6.5241
  9
$LIMMIN
 10
2.0492
 20
5.5398
  9
$LIMMAX
 10
3.0766
 20
6.5241
  9
$INSBASE
 10
0.0
 20
0.0
  9
$VIEWCTR
 10
7.21903
 20
4.5
  9
$VIEWSIZE
 40
9.0
  9
$SNAPMODE
 70
     0
  9
$SNAPUNIT
 10
1.0
 20
1.0
  9
$SNAPBASE
 10
0.0
 20
0.0
  9
$SNAPANG
 50
0.0
  9
$SNAPSTYLE
 70
     0
  9
$SNAPISOPAIR
 70
     0
  9
$GRIDMODE
 70
     0
  9
$GRIDUNIT
 10
0.0
 20
0.0
  9
$ORTHOMODE
 70
     0
  9
$REGENMODE
 70
     1
  9
$FILLMODE
 70
     1
  9
$QTEXTMODE
 70
     0
  9
$DRAGMODE
 70
     2
  9
$LTSCALE
 40
1.0
  9
$OSMODE
 70
     0
  9
$ATTMODE
 70
     1
  9
$TEXTSIZE
 40
0.2
  9
$TRACEWID
 40
0.05
  9
$TEXTSTYLE
  7
STANDARD
  9
$CLAYER
  8
0
  9
$CELTYPE
  6
BYLAYER
  9
$CECOLOR
 62
   256
  9
$DIMSCALE
 40
1.0
  9
$DIMASZ
 40
0.18
  9
$DIMEXO
 40
0.0625
  9
$DIMDLI
 40
0.38
  9
$DIMRND
 40
0.0
  9
$DIMDLE
 40
0.0
  9
$DIMEXE
 40
0.18
  9
$DIMTP
 40
0.0
  9
$DIMTM
 40
0.0
  9
$DIMTXT
 40
0.18
  9
$DIMCEN
 40
0.09
  9
$DIMTSZ
 40
0.0
  9
$DIMTOL
 70
     0
  9
$DIMLIM
 70
     0
  9
$DIMTIH
 70
     1
  9
$DIMTOH
 70
     1
  9
$DIMSE1
 70
     0
  9
$DIMSE2
 70
     0
  9
$DIMTAD
 70
     0
  9
$DIMZIN
 70
     0
  9
$DIMBLK
  1

  9
$DIMASO
 70
     1
  9
$DIMSHO
 70
     0
  9
$DIMPOST
  1

  9
$DIMAPOST
  1

  9
$DIMALT
 70
     0
  9
$DIMALTD
 70
     2
  9
$DIMALTF
 40
25.4
  9
$DIMLFAC
 40
1.0
  9
$LUNITS
 70
     2
  9
$LUPREC
 70
     4
  9
$AXISMODE
 70
     0
  9
$AXISUNIT
 10
0.0
 20
0.0
  9
$SKETCHINC
 40
0.1
  9
$FILLETRAD
 40
0.0
  9
$AUNITS
 70
     0
  9
$AUPREC
 70
     0
  9
$MENU
  1
acad
  9
$ELEVATION
 40
0.0
  9
$THICKNESS
 40
0.0
  9
$VIEWDIR
 10
0.0
 20
0.0
 30
1.0
  9
$LIMCHECK
 70
     0
  9
$BLIPMODE
 70
     1
  9
$CHAMFERA
 40
0.0
  9
$CHAMFERB
 40
0.0
  9
$FASTZOOM
 70
     1
  9
$SKPOLY
 70
     0
  9
$TDCREATE
 40
2447222.5666886573
  9
$TDUPDATE
 40
2447222.5666886573
  9
$TDINDWG
 40
0.0000000000
  9
$TDUSRTIMER
 40
0.0000000000
  9
$USRTIMER
 70
     1
  9
$ANGBASE
 50
0.0
  9
$ANGDIR
 70
     0
  9
$PDMODE
 70
     0
  9
$PDSIZE
 40
0.0
  9
$PLINEWID
 40
0.0
  9
$COORDS
 70
     0
  9
$SPLFRAME
 70
     0
  9
$SPLINESEGS
 70
     8
  9
$ATTDIA
 70
     0
  9
$ATTREQ
 70
     1
  9
$USERI1
 70
     0
  9
$USERI2
 70
     0
  9
$USERI3
 70
     0
  9
$USERI4
 70
     0
  9
$USERI5
 70
     0
  9
$USERR1
 40
0.0
  9
$USERR2
 40
0.0
  9
$USERR3
 40
0.0
  9
$USERR4
 40
0.0
  9
$USERR5
 40
0.0
  0
ENDSEC
  0
SECTION
  2
TABLES
  0
TABLE
  2
LTYPE
 70
     13
  0
LTYPE
  2
CONTINUOUS
 70
    64
  3
Solid line
 72
    65
 73
     0
 40
0.0
  0
LTYPE
  2
DASHED
 70
    64
  3
__ __ __ __ __ __ __ __ __ __ __ __ __ __ __
 72
    65
 73
     2
 40
0.75
 49
0.5
 49
-0.25
  0
LTYPE
  2
HIDDEN
 70
    64
  3
_ _ _ _ _ _ _ _ _ _ _ _ _ _ _ _ _ _ _ _ _ _ _
 72
    65
 73
     2
 40
0.375
 49
0.25
 49
-0.125
  0
LTYPE
  2
CENTER
 70
    64
  3
____ _ ____ _ ____ _ ____ _ ____ _ ____ _ ____
 72
    65
 73
     4
 40
2.0
 49
1.25
 49
-0.25
 49
0.25
 49
-0.25
  0
LTYPE
  2
PHANTOM
 70
    64
  3
_____ _ _ _____ _ _ _____ _ _ _____ _ _ ____
 72
    65
 73
     6
 40
2.5
 49
1.25
 49
-0.25
 49
0.25
 49
-0.25
 49
0.25
 49
-0.25
  0
LTYPE
  2
DOT
 70
    64
  3
...............................................
 72
    65
 73
     2
 40
0.25
 49
0.0
 49
-0.25
  0
LTYPE
  2
DASHDOT
 70
    64
  3
__ . __ . __ . __ . __ . __ . __ . __ . __ . __
 72
    65
 73
     4
 40
1.0
 49
0.5
 49
-0.25
 49
0.0
 49
-0.25
  0
LTYPE
  2
BORDER
 70
    64
  3
__ __ . __ __ . __ __ . __ __ . __ __ . __ __
 72
    65
 73
     6
 40
1.75
 49
0.5
 49
-0.25
 49
0.5
 49
-0.25
 49
0.0
 49
-0.25
  0
LTYPE
  2
DIVIDE
 70
    64
  3
__ . . __ . . __ . . __ . . __ . . __ . . __
 72
    65
 73
     6
 40
1.25
 49
0.5
 49
-0.25
 49
0.0
 49
-0.25
 49
0.0
 49
-0.25
  0
LTYPE
  2
DCTYPE1
 70
    64
  3
__ . . __ . . __ . . __ . . __ . . __ . . __
 72
    65
 73
     8
 40
2.5
 49
0.5
 49
-0.25
 49
0.125
 49
-0.25
 49
0.25
 49
-0.25
 49
0.125
 49
-0.25
  0
LTYPE
  2
DCTYPE2
 70
    64
  3
__ . . __ . . __ . . __ . . __ . . __ . . __
 72
    65
 73
     6
 40
2.05
 49
1.0
 49
-0.3
 49
0.15
 49
-0.15
 49
0.15
 49
-0.3
  0
LTYPE
  2
DCTYPE3
 70
    64
  3
__ . . __ . . __ . . __ . . __ . . __ . . __
 72
    65
 73
     6
 40
2.5
 49
0.8
 49
-0.2
 49
0.8
 49
-0.2
 49
0.3
 49
-0.2
  0
LTYPE
  2
DCTYPE4
 70
    64
  3
__ . . __ . . __ . . __ . . __ . . __ . . __
 72
    65
 73
     10
 40
3.97
 49
1.75
 49
-0.3
 49
0.3
 49
-0.3
 49
0.06
 49
-0.3
 49
0.06
 49
-0.3
 49
0.3
 49
-0.3
  0
ENDTAB
  0
TABLE
  2
LAYER
 70
    153
  0
LAYER
  2
LAYER1
 70
 64
 62
     7
  6
CONTINUOUS
  0
LAYER
  2
LAYER12
 70
 64
 62
     5
  6
CONTINUOUS
  0
ENDTAB
  0
ENDSEC
  0
SECTION
  2
BLOCKS
  0
ENDSEC
  0
SECTION
  2
ENTITIES
  0
CIRCLE
  8
LAYER1
 62
     7
  6
CONTINUOUS
 10
2.1664
 20
6.4306
 40
0.0276
  0
CIRCLE
  8
LAYER1
 62
     7
  6
CONTINUOUS
 10
2.1471
 20
6.3476
 40
0.0151
  0
CIRCLE
  8
LAYER1
 62
     7
  6
CONTINUOUS
 10
2.1326
 20
6.2871
 40
0.0100
  0
CIRCLE
  8
LAYER1
 62
     7
  6
CONTINUOUS
 10
2.1159
 20
6.1890
 40
0.0128
  0
CIRCLE
  8
LAYER1
 62
     7
  6
CONTINUOUS
 10
2.0966
 20
6.1110
 40
0.0168
  0
CIRCLE
  8
LAYER1
 62
     7
  6
CONTINUOUS
 10
2.0847
 20
6.0380
 40
0.0203
  0
CIRCLE
  8
LAYER1
 62
     7
  6
CONTINUOUS
 10
2.0703
 20
5.9701
 40
0.0151
  0
CIRCLE
  8
LAYER1
 62
     7
  6
CONTINUOUS
 10
2.3040
 20
5.6885
 40
0.0135
  0
CIRCLE
  8
LAYER1
 62
     7
  6
CONTINUOUS
 10
2.1961
 20
5.6824
 40
0.0146
  0
CIRCLE
  8
LAYER1
 62
     7
  6
CONTINUOUS
 10
2.1349
 20
5.7798
 40
0.0203
  0
CIRCLE
  8
LAYER1
 62
     7
  6
CONTINUOUS
 10
2.1468
 20
5.8527
 40
0.0091
  0
CIRCLE
  8
LAYER1
 62
     7
  6
CONTINUOUS
 10
2.1040
 20
5.8599
 40
0.0153
  0
CIRCLE
  8
LAYER1
 62
     7
  6
CONTINUOUS
 10
2.1336
 20
5.9129
 40
0.0227
  0
CIRCLE
  8
LAYER1
 62
     7
  6
CONTINUOUS
 10
2.0740
 20
5.8470
 40
0.0216
  0
CIRCLE
  8
LAYER1
 62
     7
  6
CONTINUOUS
 10
2.2498
 20
6.1049
 40
0.0161
  0
CIRCLE
  8
LAYER1
 62
     7
  6
CONTINUOUS
 10
2.2309
 20
6.2479
 40
0.0232
  0
CIRCLE
  8
LAYER1
 62
     7
  6
CONTINUOUS
 10
2.3950
 20
6.4253
 40
0.0202
  0
CIRCLE
  8
LAYER1
 62
     7
  6
CONTINUOUS
 10
2.4423
 20
6.4634
 40
0.0125
  0
CIRCLE
  8
LAYER1
 62
     7
  6
CONTINUOUS
 10
2.5401
 20
6.4844
 40
0.0277
  0
CIRCLE
  8
LAYER1
 62
     7
  6
CONTINUOUS
 10
2.5076
 20
6.2078
 40
0.0178
  0
CIRCLE
  8
LAYER1
 62
     7
  6
CONTINUOUS
 10
2.6165
 20
6.1084
 40
0.0126
  0
CIRCLE
  8
LAYER1
 62
     7
  6
CONTINUOUS
 10
2.7175
 20
5.7904
 40
0.0203
  0
CIRCLE
  8
LAYER1
 62
     7
  6
CONTINUOUS
 10
3.0285
 20
6.3610
 40
0.0176
  0
CIRCLE
  8
LAYER1
 62
     7
  6
CONTINUOUS
 10
2.9935
 20
6.3431
 40
0.0146
  0
CIRCLE
  8
LAYER1
 62
     7
  6
CONTINUOUS
 10
2.8956
 20
6.0734
 40
0.0153
  0
CIRCLE
  8
LAYER1
 62
     7
  6
CONTINUOUS
 10
2.9508
 20
6.0839
 40
0.0135
  0
CIRCLE
  8
LAYER1
 62
     7
  6
CONTINUOUS
 10
2.9345
 20
5.9482
 40
0.0142
  0
CIRCLE
  8
LAYER1
 62
     7
  6
CONTINUOUS
 10
2.9350
 20
5.6342
 40
0.0216
  0
CIRCLE
  8
LAYER1
 62
     7
  6
CONTINUOUS
 10
2.9868
 20
5.7326
 40
0.0322
  0
CIRCLE
  8
LAYER1
 62
     7
  6
CONTINUOUS
 10
3.0342
 20
5.7658
 40
0.0146
  0
ARC
  8
LAYER1
 62
     7
  6
CONTINUOUS
 10
3.0731
 20
5.6330
 40
0.0251
 50
-89.6426
 51
-85.2047
  0
ARC
  8
LAYER1
 62
     7
  6
CONTINUOUS
 10
3.0778
 20
5.6657
 40
0.0202
 50
-103.0112
 51
-97.4219
  0
POLYLINE
  8
LAYER1
 62
     7
 66
     1
  6
CONTINUOUS
  0
VERTEX
  8
LAYER1
 62
     7
  6
CONTINUOUS
 10
3.0752
 20
6.2108
  0
VERTEX
  8
LAYER1
 62
     7
  6
CONTINUOUS
 10
3.0733
 20
6.2092
  0
SEQEND
  8
LAYER1
  0
POLYLINE
  8
LAYER1
 62
     7
 66
     1
  6
CONTINUOUS
  0
VERTEX
  8
LAYER1
 62
     7
  6
CONTINUOUS
 10
3.0733
 20
6.0571
  0
VERTEX
  8
LAYER1
 62
     7
  6
CONTINUOUS
 10
3.0752
 20
6.0581
  0
SEQEND
  8
LAYER1
  0
ARC
  8
LAYER1
 62
     7
  6
CONTINUOUS
 10
3.0731
 20
5.6330
 40
0.0251
 50
85.2041
 51
89.6426
  0
ARC
  8
LAYER1
 62
     7
  6
CONTINUOUS
 10
3.0731
 20
5.6330
 40
0.0251
 50
90.5325
 51
-89.6426
  0
ARC
  8
LAYER1
 62
     7
  6
CONTINUOUS
 10
3.0731
 20
5.6330
 40
0.0251
 50
85.2041
 51
89.6426
  0
ARC
  8
LAYER1
 62
     7
  6
CONTINUOUS
 10
3.0731
 20
5.6330
 40
0.0251
 50
89.6426
 51
-89.6426
  0
ARC
  8
LAYER1
 62
     7
  6
CONTINUOUS
 10
3.0778
 20
5.6657
 40
0.0202
 50
97.4219
 51
103.0112
  0
ARC
  8
LAYER1
 62
     7
  6
CONTINUOUS
 10
3.0778
 20
5.6657
 40
0.0202
 50
103.0109
 51
-103.0109
  0
POLYLINE
  8
LAYER1
 62
     7
 66
     1
  6
CONTINUOUS
  0
VERTEX
  8
LAYER1
 62
     7
  6
CONTINUOUS
 10
3.0766
 20
6.2119
  0
VERTEX
  8
LAYER1
 62
     7
  6
CONTINUOUS
 10
3.0752
 20
6.2108
  0
SEQEND
  8
LAYER1
  0
POLYLINE
  8
LAYER1
 62
     7
 66
     1
  6
CONTINUOUS
  0
VERTEX
  8
LAYER1
 62
     7
  6
CONTINUOUS
 10
3.0752
 20
6.0581
  0
VERTEX
  8
LAYER1
 62
     7
  6
CONTINUOUS
 10
3.0766
 20
6.0588
  0
SEQEND
  8
LAYER1
  0
POLYLINE
  8
LAYER1
 62
     7
 66
     1
  6
CONTINUOUS
  0
VERTEX
  8
LAYER1
 62
     7
  6
CONTINUOUS
 10
3.0733
 20
6.2092
  0
VERTEX
  8
LAYER1
 62
     7
  6
CONTINUOUS
 10
3.0627
 20
6.2005
  0
VERTEX
  8
LAYER1
 62
     7
  6
CONTINUOUS
 10
3.0129
 20
6.1599
  0
VERTEX
  8
LAYER1
 62
     7
  6
CONTINUOUS
 10
2.9778
 20
6.1495
  0
VERTEX
  8
LAYER1
 62
     7
  6
CONTINUOUS
 10
2.9579
 20
6.1242
  0
VERTEX
  8
LAYER1
 62
     7
  6
CONTINUOUS
 10
2.9381
 20
6.0989
  0
VERTEX
  8
LAYER1
 62
     7
  6
CONTINUOUS
 10
2.9333
 20
6.0737
  0
VERTEX
  8
LAYER1
 62
     7
  6
CONTINUOUS
 10
2.9487
 20
6.0387
  0
VERTEX
  8
LAYER1
 62
     7
  6
CONTINUOUS
 10
2.9390
 20
5.9984
  0
VERTEX
  8
LAYER1
 62
     7
  6
CONTINUOUS
 10
2.9342
 20
5.9783
  0
VERTEX
  8
LAYER1
 62
     7
  6
CONTINUOUS
 10
2.9496
 20
5.9483
  0
VERTEX
  8
LAYER1
 62
     7
  6
CONTINUOUS
 10
2.9349
 20
5.9080
  0
VERTEX
  8
LAYER1
 62
     7
  6
CONTINUOUS
 10
2.9201
 20
5.8777
  0
VERTEX
  8
LAYER1
 62
     7
  6
CONTINUOUS
 10
2.9104
 20
5.8374
  0
VERTEX
  8
LAYER1
 62
     7
  6
CONTINUOUS
 10
2.8957
 20
5.8071
  0
VERTEX
  8
LAYER1
 62
     7
  6
CONTINUOUS
 10
2.8960
 20
5.7720
  0
VERTEX
  8
LAYER1
 62
     7
  6
CONTINUOUS
 10
2.8963
 20
5.7368
  0
VERTEX
  8
LAYER1
 62
     7
  6
CONTINUOUS
 10
2.8917
 20
5.6966
  0
VERTEX
  8
LAYER1
 62
     7
  6
CONTINUOUS
 10
2.8970
 20
5.6615
  0
VERTEX
  8
LAYER1
 62
     7
  6
CONTINUOUS
 10
2.8974
 20
5.6213
  0
VERTEX
  8
LAYER1
 62
     7
  6
CONTINUOUS
 10
2.8927
 20
5.5911
  0
VERTEX
  8
LAYER1
 62
     7
  6
CONTINUOUS
 10
2.8978
 20
5.5811
  0
VERTEX
  8
LAYER1
 62
     7
  6
CONTINUOUS
 10
2.9132
 20
5.5511
  0
VERTEX
  8
LAYER1
 62
     7
  6
CONTINUOUS
 10
2.9284
 20
5.5399
  0
SEQEND
  8
LAYER1
  0
POLYLINE
  8
LAYER1
 62
     7
 66
     1
  6
CONTINUOUS
  0
VERTEX
  8
LAYER1
 62
     7
  6
CONTINUOUS
 10
2.9284
 20
5.5399
  0
VERTEX
  8
LAYER1
 62
     7
  6
CONTINUOUS
 10
2.9284
 20
5.5399
  0
SEQEND
  8
LAYER1
  0
POLYLINE
  8
LAYER1
 62
     7
 66
     1
  6
CONTINUOUS
  0
VERTEX
  8
LAYER1
 62
     7
  6
CONTINUOUS
 10
2.9284
 20
5.5399
  0
VERTEX
  8
LAYER1
 62
     7
  6
CONTINUOUS
 10
2.9284
 20
5.5399
  0
SEQEND
  8
LAYER1
  0
POLYLINE
  8
LAYER1
 62
     7
 66
     1
  6
CONTINUOUS
  0
VERTEX
  8
LAYER1
 62
     7
  6
CONTINUOUS
 10
2.9284
 20
5.5399
  0
VERTEX
  8
LAYER1
 62
     7
  6
CONTINUOUS
 10
2.9284
 20
5.5399
  0
SEQEND
  8
LAYER1
  0
POLYLINE
  8
LAYER1
 62
     7
 66
     1
  6
CONTINUOUS
  0
VERTEX
  8
LAYER1
 62
     7
  6
CONTINUOUS
 10
2.9284
 20
5.5399
  0
VERTEX
  8
LAYER1
 62
     7
  6
CONTINUOUS
 10
2.9284
 20
5.5399
  0
SEQEND
  8
LAYER1
  0
POLYLINE
  8
LAYER1
 62
     7
 66
     1
  6
CONTINUOUS
  0
VERTEX
  8
LAYER1
 62
     7
  6
CONTINUOUS
 10
2.9284
 20
5.5399
  0
VERTEX
  8
LAYER1
 62
     7
  6
CONTINUOUS
 10
2.9284
 20
5.5399
  0
SEQEND
  8
LAYER1
  0
POLYLINE
  8
LAYER1
 62
     7
 66
     1
  6
CONTINUOUS
  0
VERTEX
  8
LAYER1
 62
     7
  6
CONTINUOUS
 10
2.9284
 20
5.5399
  0
VERTEX
  8
LAYER1
 62
     7
  6
CONTINUOUS
 10
2.9284
 20
5.5399
  0
SEQEND
  8
LAYER1
  0
POLYLINE
  8
LAYER1
 62
     7
 66
     1
  6
CONTINUOUS
  0
VERTEX
  8
LAYER1
 62
     7
  6
CONTINUOUS
 10
2.9284
 20
5.5399
  0
VERTEX
  8
LAYER1
 62
     7
  6
CONTINUOUS
 10
2.9284
 20
5.5399
  0
SEQEND
  8
LAYER1
  0
POLYLINE
  8
LAYER1
 62
     7
 66
     1
  6
CONTINUOUS
  0
VERTEX
  8
LAYER1
 62
     7
  6
CONTINUOUS
 10
2.9543
 20
5.5399
  0
VERTEX
  8
LAYER1
 62
     7
  6
CONTINUOUS
 10
2.9543
 20
5.5399
  0
SEQEND
  8
LAYER1
  0
POLYLINE
  8
LAYER1
 62
     7
 66
     1
  6
CONTINUOUS
  0
VERTEX
  8
LAYER1
 62
     7
  6
CONTINUOUS
 10
2.9543
 20
5.5399
  0
VERTEX
  8
LAYER1
 62
     7
  6
CONTINUOUS
 10
2.9543
 20
5.5399
  0
SEQEND
  8
LAYER1
  0
POLYLINE
  8
LAYER1
 62
     7
 66
     1
  6
CONTINUOUS
  0
VERTEX
  8
LAYER1
 62
     7
  6
CONTINUOUS
 10
2.9543
 20
5.5399
  0
VERTEX
  8
LAYER1
 62
     7
  6
CONTINUOUS
 10
2.9583
 20
5.5566
  0
VERTEX
  8
LAYER1
 62
     7
  6
CONTINUOUS
 10
2.9579
 20
5.5967
  0
VERTEX
  8
LAYER1
 62
     7
  6
CONTINUOUS
 10
2.9625
 20
5.6420
  0
VERTEX
  8
LAYER1
 62
     7
  6
CONTINUOUS
 10
2.9471
 20
5.6770
  0
VERTEX
  8
LAYER1
 62
     7
  6
CONTINUOUS
 10
2.9417
 20
5.7222
  0
VERTEX
  8
LAYER1
 62
     7
  6
CONTINUOUS
 10
2.9513
 20
5.7625
  0
VERTEX
  8
LAYER1
 62
     7
  6
CONTINUOUS
 10
2.9610
 20
5.8078
  0
VERTEX
  8
LAYER1
 62
     7
  6
CONTINUOUS
 10
2.9805
 20
5.8682
  0
VERTEX
  8
LAYER1
 62
     7
  6
CONTINUOUS
 10
2.9851
 20
5.9085
  0
VERTEX
  8
LAYER1
 62
     7
  6
CONTINUOUS
 10
2.9998
 20
5.9488
  0
VERTEX
  8
LAYER1
 62
     7
  6
CONTINUOUS
 10
3.0146
 20
5.9791
  0
VERTEX
  8
LAYER1
 62
     7
  6
CONTINUOUS
 10
3.0194
 20
5.9992
  0
VERTEX
  8
LAYER1
 62
     7
  6
CONTINUOUS
 10
3.0291
 20
6.0395
  0
VERTEX
  8
LAYER1
 62
     7
  6
CONTINUOUS
 10
3.0491
 20
6.0447
  0
VERTEX
  8
LAYER1
 62
     7
  6
CONTINUOUS
 10
3.0733
 20
6.0571
  0
SEQEND
  8
LAYER1
  0
ARC
  8
LAYER1
 62
     7
  6
CONTINUOUS
 10
3.0778
 20
5.6657
 40
0.0202
 50
-97.4219
 51
-93.4929
  0
ARC
  8
LAYER1
 62
     7
  6
CONTINUOUS
 10
3.0778
 20
5.6657
 40
0.0202
 50
93.4932
 51
97.4220
  0
ARC
  8
LAYER1
 62
     7
  6
CONTINUOUS
 10
3.0731
 20
5.6330
 40
0.0251
 50
-89.6426
 51
-82.0306
  0
ARC
  8
LAYER1
 62
     7
  6
CONTINUOUS
 10
3.0731
 20
5.6330
 40
0.0251
 50
82.0306
 51
85.2047
  0
ARC
  8
LAYER1
 62
     7
  6
CONTINUOUS
 10
2.0484
 20
5.8995
 40
0.0169
 50
-87.0406
 51
87.0407
  0
POLYLINE
  8
LAYER12
 62
     5
 66
     1
  6
CONTINUOUS
  0
VERTEX
  8
LAYER12
 62
     5
  6
CONTINUOUS
 10
3.0733
 20
6.5235
  0
VERTEX
  8
LAYER12
 62
     5
  6
CONTINUOUS
 10
3.0752
 20
6.5235
  0
SEQEND
  8
LAYER12
  0
POLYLINE
  8
LAYER12
 62
     5
 66
     1
  6
CONTINUOUS
  0
VERTEX
  8
LAYER12
 62
     5
  6
CONTINUOUS
 10
3.0752
 20
5.5398
  0
VERTEX
  8
LAYER12
 62
     5
  6
CONTINUOUS
 10
3.0733
 20
5.5398
  0
SEQEND
  8
LAYER12
  0
POLYLINE
  8
LAYER12
 62
     5
 66
     1
  6
CONTINUOUS
  0
VERTEX
  8
LAYER12
 62
     5
  6
CONTINUOUS
 10
3.0752
 20
6.5235
  0
VERTEX
  8
LAYER12
 62
     5
  6
CONTINUOUS
 10
3.0766
 20
6.5235
  0
SEQEND
  8
LAYER12
  0
POLYLINE
  8
LAYER12
 62
     5
 66
     1
  6
CONTINUOUS
  0
VERTEX
  8
LAYER12
 62
     5
  6
CONTINUOUS
 10
3.0766
 20
5.5398
  0
VERTEX
  8
LAYER12
 62
     5
  6
CONTINUOUS
 10
3.0752
 20
5.5398
  0
SEQEND
  8
LAYER12
  0
POLYLINE
  8
LAYER12
 62
     5
 66
     1
  6
CONTINUOUS
  0
VERTEX
  8
LAYER12
 62
     5
  6
CONTINUOUS
 10
3.0752
 20
5.5398
  0
VERTEX
  8
LAYER12
 62
     5
  6
CONTINUOUS
 10
3.0752
 20
5.5399
  0
SEQEND
  8
LAYER12
  0
POLYLINE
  8
LAYER12
 62
     5
 66
     1
  6
CONTINUOUS
  0
VERTEX
  8
LAYER12
 62
     5
  6
CONTINUOUS
 10
3.0752
 20
5.5399
  0
VERTEX
  8
LAYER12
 62
     5
  6
CONTINUOUS
 10
3.0752
 20
5.5398
  0
SEQEND
  8
LAYER12
  0
POLYLINE
  8
LAYER12
 62
     5
 66
     1
  6
CONTINUOUS
  0
VERTEX
  8
LAYER12
 62
     5
  6
CONTINUOUS
 10
3.0752
 20
5.5398
  0
VERTEX
  8
LAYER12
 62
     5
  6
CONTINUOUS
 10
3.0752
 20
5.5399
  0
SEQEND
  8
LAYER12
  0
POLYLINE
  8
LAYER12
 62
     5
 66
     1
  6
CONTINUOUS
  0
VERTEX
  8
LAYER12
 62
     5
  6
CONTINUOUS
 10
3.0752
 20
5.5399
  0
VERTEX
  8
LAYER12
 62
     5
  6
CONTINUOUS
 10
3.0752
 20
5.5398
  0
SEQEND
  8
LAYER12
  0
POLYLINE
  8
LAYER12
 62
     5
 66
     1
  6
CONTINUOUS
  0
VERTEX
  8
LAYER12
 62
     5
  6
CONTINUOUS
 10
3.0752
 20
5.5399
  0
VERTEX
  8
LAYER12
 62
     5
  6
CONTINUOUS
 10
3.0752
 20
5.5399
  0
SEQEND
  8
LAYER12
  0
POLYLINE
  8
LAYER12
 62
     5
 66
     1
  6
CONTINUOUS
  0
VERTEX
  8
LAYER12
 62
     5
  6
CONTINUOUS
 10
3.0752
 20
5.5399
  0
VERTEX
  8
LAYER12
 62
     5
  6
CONTINUOUS
 10
3.0752
 20
5.5399
  0
SEQEND
  8
LAYER12
  0
POLYLINE
  8
LAYER12
 62
     5
 66
     1
  6
CONTINUOUS
  0
VERTEX
  8
LAYER12
 62
     5
  6
CONTINUOUS
 10
3.0752
 20
5.5399
  0
VERTEX
  8
LAYER12
 62
     5
  6
CONTINUOUS
 10
3.0752
 20
6.5207
  0
SEQEND
  8
LAYER12
  0
POLYLINE
  8
LAYER12
 62
     5
 66
     1
  6
CONTINUOUS
  0
VERTEX
  8
LAYER12
 62
     5
  6
CONTINUOUS
 10
3.0752
 20
6.5207
  0
VERTEX
  8
LAYER12
 62
     5
  6
CONTINUOUS
 10
3.0752
 20
6.5241
  0
SEQEND
  8
LAYER12
  0
POLYLINE
  8
LAYER12
 62
     5
 66
     1
  6
CONTINUOUS
  0
VERTEX
  8
LAYER12
 62
     5
  6
CONTINUOUS
 10
2.0492
 20
6.5235
  0
VERTEX
  8
LAYER12
 62
     5
  6
CONTINUOUS
 10
3.0733
 20
6.5235
  0
SEQEND
  8
LAYER12
  0
POLYLINE
  8
LAYER12
 62
     5
 66
     1
  6
CONTINUOUS
  0
VERTEX
  8
LAYER12
 62
     5
  6
CONTINUOUS
 10
3.0733
 20
5.5398
  0
VERTEX
  8
LAYER12
 62
     5
  6
CONTINUOUS
 10
2.0492
 20
5.5398
  0
SEQEND
  8
LAYER12
  0
POLYLINE
  8
LAYER12
 62
     5
 66
     1
  6
CONTINUOUS
  0
VERTEX
  8
LAYER12
 62
     5
  6
CONTINUOUS
 10
2.0492
 20
5.5398
  0
VERTEX
  8
LAYER12
 62
     5
  6
CONTINUOUS
 10
2.0492
 20
5.5399
  0
SEQEND
  8
LAYER12
  0
POLYLINE
  8
LAYER12
 62
     5
 66
     1
  6
CONTINUOUS
  0
VERTEX
  8
LAYER12
 62
     5
  6
CONTINUOUS
 10
2.0492
 20
5.5399
  0
VERTEX
  8
LAYER12
 62
     5
  6
CONTINUOUS
 10
2.0492
 20
5.5399
  0
SEQEND
  8
LAYER12
  0
POLYLINE
  8
LAYER12
 62
     5
 66
     1
  6
CONTINUOUS
  0
VERTEX
  8
LAYER12
 62
     5
  6
CONTINUOUS
 10
2.0492
 20
5.5399
  0
VERTEX
  8
LAYER12
 62
     5
  6
CONTINUOUS
 10
2.0492
 20
5.5399
  0
SEQEND
  8
LAYER12
  0
POLYLINE
  8
LAYER12
 62
     5
 66
     1
  6
CONTINUOUS
  0
VERTEX
  8
LAYER12
 62
     5
  6
CONTINUOUS
 10
2.0492
 20
5.5399
  0
VERTEX
  8
LAYER12
 62
     5
  6
CONTINUOUS
 10
2.0492
 20
5.5398
  0
SEQEND
  8
LAYER12
  0
POLYLINE
  8
LAYER12
 62
     5
 66
     1
  6
CONTINUOUS
  0
VERTEX
  8
LAYER12
 62
     5
  6
CONTINUOUS
 10
2.0492
 20
5.5398
  0
VERTEX
  8
LAYER12
 62
     5
  6
CONTINUOUS
 10
2.0492
 20
5.5399
  0
SEQEND
  8
LAYER12
  0
POLYLINE
  8
LAYER12
 62
     5
 66
     1
  6
CONTINUOUS
  0
VERTEX
  8
LAYER12
 62
     5
  6
CONTINUOUS
 10
2.0492
 20
5.5399
  0
VERTEX
  8
LAYER12
 62
     5
  6
CONTINUOUS
 10
2.0492
 20
5.5399
  0
SEQEND
  8
LAYER12
  0
POLYLINE
  8
LAYER12
 62
     5
 66
     1
  6
CONTINUOUS
  0
VERTEX
  8
LAYER12
 62
     5
  6
CONTINUOUS
 10
2.0492
 20
5.5399
  0
VERTEX
  8
LAYER12
 62
     5
  6
CONTINUOUS
 10
2.0492
 20
5.5399
  0
SEQEND
  8
LAYER12
  0
POLYLINE
  8
LAYER12
 62
     5
 66
     1
  6
CONTINUOUS
  0
VERTEX
  8
LAYER12
 62
     5
  6
CONTINUOUS
 10
2.0492
 20
5.5399
  0
VERTEX
  8
LAYER12
 62
     5
  6
CONTINUOUS
 10
2.0492
 20
5.5398
  0
SEQEND
  8
LAYER12
  0
POLYLINE
  8
LAYER12
 62
     5
 66
     1
  6
CONTINUOUS
  0
VERTEX
  8
LAYER12
 62
     5
  6
CONTINUOUS
 10
2.0522
 20
6.5241
  0
VERTEX
  8
LAYER12
 62
     5
  6
CONTINUOUS
 10
2.0522
 20
6.5207
  0
SEQEND
  8
LAYER12
  0
POLYLINE
  8
LAYER12
 62
     5
 66
     1
  6
CONTINUOUS
  0
VERTEX
  8
LAYER12
 62
     5
  6
CONTINUOUS
 10
2.0522
 20
6.5207
  0
VERTEX
  8
LAYER12
 62
     5
  6
CONTINUOUS
 10
2.0522
 20
5.5399
  0
SEQEND
  8
LAYER12
  0
POLYLINE
  8
LAYER12
 62
     5
 66
     1
  6
CONTINUOUS
  0
VERTEX
  8
LAYER12
 62
     5
  6
CONTINUOUS
 10
2.0522
 20
5.5399
  0
VERTEX
  8
LAYER12
 62
     5
  6
CONTINUOUS
 10
2.0522
 20
5.5399
  0
SEQEND
  8
LAYER12
  0
POLYLINE
  8
LAYER12
 62
     5
 66
     1
  6
CONTINUOUS
  0
VERTEX
  8
LAYER12
 62
     5
  6
CONTINUOUS
 10
2.0522
 20
5.5399
  0
VERTEX
  8
LAYER12
 62
     5
  6
CONTINUOUS
 10
2.0522
 20
5.5399
  0
SEQEND
  8
LAYER12
  0
ENDSEC
  0
EOF
