  0
SECTION
  2
HEADER
  9
$ACADVER
  1
AC1004
  9
$EXTMIN
 10
1.0671
 20
6.5160
  9
$EXTMAX
 10
2.0556
 20
7.5483
  9
$LIMMIN
 10
1.0671
 20
6.5160
  9
$LIMMAX
 10
2.0556
 20
7.5483
  9
$INSBASE
 10
0.0
 20
0.0
  9
$VIEWCTR
 10
7.21903
 20
4.5
  9
$VIEWSIZE
 40
9.0
  9
$SNAPMODE
 70
     0
  9
$SNAPUNIT
 10
1.0
 20
1.0
  9
$SNAPBASE
 10
0.0
 20
0.0
  9
$SNAPANG
 50
0.0
  9
$SNAPSTYLE
 70
     0
  9
$SNAPISOPAIR
 70
     0
  9
$GRIDMODE
 70
     0
  9
$GRIDUNIT
 10
0.0
 20
0.0
  9
$ORTHOMODE
 70
     0
  9
$REGENMODE
 70
     1
  9
$FILLMODE
 70
     1
  9
$QTEXTMODE
 70
     0
  9
$DRAGMODE
 70
     2
  9
$LTSCALE
 40
1.0
  9
$OSMODE
 70
     0
  9
$ATTMODE
 70
     1
  9
$TEXTSIZE
 40
0.2
  9
$TRACEWID
 40
0.05
  9
$TEXTSTYLE
  7
STANDARD
  9
$CLAYER
  8
0
  9
$CELTYPE
  6
BYLAYER
  9
$CECOLOR
 62
   256
  9
$DIMSCALE
 40
1.0
  9
$DIMASZ
 40
0.18
  9
$DIMEXO
 40
0.0625
  9
$DIMDLI
 40
0.38
  9
$DIMRND
 40
0.0
  9
$DIMDLE
 40
0.0
  9
$DIMEXE
 40
0.18
  9
$DIMTP
 40
0.0
  9
$DIMTM
 40
0.0
  9
$DIMTXT
 40
0.18
  9
$DIMCEN
 40
0.09
  9
$DIMTSZ
 40
0.0
  9
$DIMTOL
 70
     0
  9
$DIMLIM
 70
     0
  9
$DIMTIH
 70
     1
  9
$DIMTOH
 70
     1
  9
$DIMSE1
 70
     0
  9
$DIMSE2
 70
     0
  9
$DIMTAD
 70
     0
  9
$DIMZIN
 70
     0
  9
$DIMBLK
  1

  9
$DIMASO
 70
     1
  9
$DIMSHO
 70
     0
  9
$DIMPOST
  1

  9
$DIMAPOST
  1

  9
$DIMALT
 70
     0
  9
$DIMALTD
 70
     2
  9
$DIMALTF
 40
25.4
  9
$DIMLFAC
 40
1.0
  9
$LUNITS
 70
     2
  9
$LUPREC
 70
     4
  9
$AXISMODE
 70
     0
  9
$AXISUNIT
 10
0.0
 20
0.0
  9
$SKETCHINC
 40
0.1
  9
$FILLETRAD
 40
0.0
  9
$AUNITS
 70
     0
  9
$AUPREC
 70
     0
  9
$MENU
  1
acad
  9
$ELEVATION
 40
0.0
  9
$THICKNESS
 40
0.0
  9
$VIEWDIR
 10
0.0
 20
0.0
 30
1.0
  9
$LIMCHECK
 70
     0
  9
$BLIPMODE
 70
     1
  9
$CHAMFERA
 40
0.0
  9
$CHAMFERB
 40
0.0
  9
$FASTZOOM
 70
     1
  9
$SKPOLY
 70
     0
  9
$TDCREATE
 40
2447222.5666886573
  9
$TDUPDATE
 40
2447222.5666886573
  9
$TDINDWG
 40
0.0000000000
  9
$TDUSRTIMER
 40
0.0000000000
  9
$USRTIMER
 70
     1
  9
$ANGBASE
 50
0.0
  9
$ANGDIR
 70
     0
  9
$PDMODE
 70
     0
  9
$PDSIZE
 40
0.0
  9
$PLINEWID
 40
0.0
  9
$COORDS
 70
     0
  9
$SPLFRAME
 70
     0
  9
$SPLINESEGS
 70
     8
  9
$ATTDIA
 70
     0
  9
$ATTREQ
 70
     1
  9
$USERI1
 70
     0
  9
$USERI2
 70
     0
  9
$USERI3
 70
     0
  9
$USERI4
 70
     0
  9
$USERI5
 70
     0
  9
$USERR1
 40
0.0
  9
$USERR2
 40
0.0
  9
$USERR3
 40
0.0
  9
$USERR4
 40
0.0
  9
$USERR5
 40
0.0
  0
ENDSEC
  0
SECTION
  2
TABLES
  0
TABLE
  2
LTYPE
 70
     13
  0
LTYPE
  2
CONTINUOUS
 70
    64
  3
Solid line
 72
    65
 73
     0
 40
0.0
  0
LTYPE
  2
DASHED
 70
    64
  3
__ __ __ __ __ __ __ __ __ __ __ __ __ __ __
 72
    65
 73
     2
 40
0.75
 49
0.5
 49
-0.25
  0
LTYPE
  2
HIDDEN
 70
    64
  3
_ _ _ _ _ _ _ _ _ _ _ _ _ _ _ _ _ _ _ _ _ _ _
 72
    65
 73
     2
 40
0.375
 49
0.25
 49
-0.125
  0
LTYPE
  2
CENTER
 70
    64
  3
____ _ ____ _ ____ _ ____ _ ____ _ ____ _ ____
 72
    65
 73
     4
 40
2.0
 49
1.25
 49
-0.25
 49
0.25
 49
-0.25
  0
LTYPE
  2
PHANTOM
 70
    64
  3
_____ _ _ _____ _ _ _____ _ _ _____ _ _ ____
 72
    65
 73
     6
 40
2.5
 49
1.25
 49
-0.25
 49
0.25
 49
-0.25
 49
0.25
 49
-0.25
  0
LTYPE
  2
DOT
 70
    64
  3
...............................................
 72
    65
 73
     2
 40
0.25
 49
0.0
 49
-0.25
  0
LTYPE
  2
DASHDOT
 70
    64
  3
__ . __ . __ . __ . __ . __ . __ . __ . __ . __
 72
    65
 73
     4
 40
1.0
 49
0.5
 49
-0.25
 49
0.0
 49
-0.25
  0
LTYPE
  2
BORDER
 70
    64
  3
__ __ . __ __ . __ __ . __ __ . __ __ . __ __
 72
    65
 73
     6
 40
1.75
 49
0.5
 49
-0.25
 49
0.5
 49
-0.25
 49
0.0
 49
-0.25
  0
LTYPE
  2
DIVIDE
 70
    64
  3
__ . . __ . . __ . . __ . . __ . . __ . . __
 72
    65
 73
     6
 40
1.25
 49
0.5
 49
-0.25
 49
0.0
 49
-0.25
 49
0.0
 49
-0.25
  0
LTYPE
  2
DCTYPE1
 70
    64
  3
__ . . __ . . __ . . __ . . __ . . __ . . __
 72
    65
 73
     8
 40
2.5
 49
0.5
 49
-0.25
 49
0.125
 49
-0.25
 49
0.25
 49
-0.25
 49
0.125
 49
-0.25
  0
LTYPE
  2
DCTYPE2
 70
    64
  3
__ . . __ . . __ . . __ . . __ . . __ . . __
 72
    65
 73
     6
 40
2.05
 49
1.0
 49
-0.3
 49
0.15
 49
-0.15
 49
0.15
 49
-0.3
  0
LTYPE
  2
DCTYPE3
 70
    64
  3
__ . . __ . . __ . . __ . . __ . . __ . . __
 72
    65
 73
     6
 40
2.5
 49
0.8
 49
-0.2
 49
0.8
 49
-0.2
 49
0.3
 49
-0.2
  0
LTYPE
  2
DCTYPE4
 70
    64
  3
__ . . __ . . __ . . __ . . __ . . __ . . __
 72
    65
 73
     10
 40
3.97
 49
1.75
 49
-0.3
 49
0.3
 49
-0.3
 49
0.06
 49
-0.3
 49
0.06
 49
-0.3
 49
0.3
 49
-0.3
  0
ENDTAB
  0
TABLE
  2
LAYER
 70
    153
  0
LAYER
  2
LAYER1
 70
 64
 62
     7
  6
CONTINUOUS
  0
LAYER
  2
LAYER12
 70
 64
 62
     5
  6
CONTINUOUS
  0
ENDTAB
  0
ENDSEC
  0
SECTION
  2
BLOCKS
  0
ENDSEC
  0
SECTION
  2
ENTITIES
  0
POLYLINE
  8
LAYER1
 62
     7
 66
     1
  6
CONTINUOUS
  0
VERTEX
  8
LAYER1
 62
     7
  6
CONTINUOUS
 10
1.8368
 20
7.3587
  0
VERTEX
  8
LAYER1
 62
     7
  6
CONTINUOUS
 10
1.8366
 20
7.3575
  0
VERTEX
  8
LAYER1
 62
     7
  6
CONTINUOUS
 10
1.8362
 20
7.3576
  0
VERTEX
  8
LAYER1
 62
     7
  6
CONTINUOUS
 10
1.8356
 20
7.3588
  0
VERTEX
  8
LAYER1
 62
     7
  6
CONTINUOUS
 10
1.8348
 20
7.3609
  0
VERTEX
  8
LAYER1
 62
     7
  6
CONTINUOUS
 10
1.8338
 20
7.3638
  0
VERTEX
  8
LAYER1
 62
     7
  6
CONTINUOUS
 10
1.8326
 20
7.3672
  0
VERTEX
  8
LAYER1
 62
     7
  6
CONTINUOUS
 10
1.8313
 20
7.3710
  0
VERTEX
  8
LAYER1
 62
     7
  6
CONTINUOUS
 10
1.8297
 20
7.3749
  0
VERTEX
  8
LAYER1
 62
     7
  6
CONTINUOUS
 10
1.8279
 20
7.3789
  0
VERTEX
  8
LAYER1
 62
     7
  6
CONTINUOUS
 10
1.8260
 20
7.3826
  0
VERTEX
  8
LAYER1
 62
     7
  6
CONTINUOUS
 10
1.8238
 20
7.3860
  0
VERTEX
  8
LAYER1
 62
     7
  6
CONTINUOUS
 10
1.8215
 20
7.3888
  0
VERTEX
  8
LAYER1
 62
     7
  6
CONTINUOUS
 10
1.8188
 20
7.3909
  0
VERTEX
  8
LAYER1
 62
     7
  6
CONTINUOUS
 10
1.8160
 20
7.3924
  0
VERTEX
  8
LAYER1
 62
     7
  6
CONTINUOUS
 10
1.8130
 20
7.3932
  0
VERTEX
  8
LAYER1
 62
     7
  6
CONTINUOUS
 10
1.8099
 20
7.3936
  0
VERTEX
  8
LAYER1
 62
     7
  6
CONTINUOUS
 10
1.8068
 20
7.3936
  0
VERTEX
  8
LAYER1
 62
     7
  6
CONTINUOUS
 10
1.8036
 20
7.3933
  0
VERTEX
  8
LAYER1
 62
     7
  6
CONTINUOUS
 10
1.8005
 20
7.3930
  0
VERTEX
  8
LAYER1
 62
     7
  6
CONTINUOUS
 10
1.7974
 20
7.3926
  0
VERTEX
  8
LAYER1
 62
     7
  6
CONTINUOUS
 10
1.7944
 20
7.3923
  0
VERTEX
  8
LAYER1
 62
     7
  6
CONTINUOUS
 10
1.7915
 20
7.3923
  0
VERTEX
  8
LAYER1
 62
     7
  6
CONTINUOUS
 10
1.7888
 20
7.3927
  0
VERTEX
  8
LAYER1
 62
     7
  6
CONTINUOUS
 10
1.7862
 20
7.3935
  0
VERTEX
  8
LAYER1
 62
     7
  6
CONTINUOUS
 10
1.7850
 20
7.3942
  0
VERTEX
  8
LAYER1
 62
     7
  6
CONTINUOUS
 10
1.7839
 20
7.3949
  0
VERTEX
  8
LAYER1
 62
     7
  6
CONTINUOUS
 10
1.7828
 20
7.3959
  0
VERTEX
  8
LAYER1
 62
     7
  6
CONTINUOUS
 10
1.7818
 20
7.3969
  0
VERTEX
  8
LAYER1
 62
     7
  6
CONTINUOUS
 10
1.7808
 20
7.3981
  0
VERTEX
  8
LAYER1
 62
     7
  6
CONTINUOUS
 10
1.7800
 20
7.3993
  0
VERTEX
  8
LAYER1
 62
     7
  6
CONTINUOUS
 10
1.7791
 20
7.4007
  0
VERTEX
  8
LAYER1
 62
     7
  6
CONTINUOUS
 10
1.7784
 20
7.4021
  0
VERTEX
  8
LAYER1
 62
     7
  6
CONTINUOUS
 10
1.7777
 20
7.4037
  0
VERTEX
  8
LAYER1
 62
     7
  6
CONTINUOUS
 10
1.7771
 20
7.4052
  0
VERTEX
  8
LAYER1
 62
     7
  6
CONTINUOUS
 10
1.7765
 20
7.4069
  0
VERTEX
  8
LAYER1
 62
     7
  6
CONTINUOUS
 10
1.7760
 20
7.4085
  0
VERTEX
  8
LAYER1
 62
     7
  6
CONTINUOUS
 10
1.7755
 20
7.4109
  0
VERTEX
  8
LAYER1
 62
     7
  6
CONTINUOUS
 10
1.7751
 20
7.4133
  0
VERTEX
  8
LAYER1
 62
     7
  6
CONTINUOUS
 10
1.7748
 20
7.4158
  0
VERTEX
  8
LAYER1
 62
     7
  6
CONTINUOUS
 10
1.7747
 20
7.4182
  0
VERTEX
  8
LAYER1
 62
     7
  6
CONTINUOUS
 10
1.7748
 20
7.4206
  0
VERTEX
  8
LAYER1
 62
     7
  6
CONTINUOUS
 10
1.7751
 20
7.4229
  0
VERTEX
  8
LAYER1
 62
     7
  6
CONTINUOUS
 10
1.7755
 20
7.4251
  0
VERTEX
  8
LAYER1
 62
     7
  6
CONTINUOUS
 10
1.7762
 20
7.4271
  0
VERTEX
  8
LAYER1
 62
     7
  6
CONTINUOUS
 10
1.7770
 20
7.4291
  0
VERTEX
  8
LAYER1
 62
     7
  6
CONTINUOUS
 10
1.7781
 20
7.4308
  0
VERTEX
  8
LAYER1
 62
     7
  6
CONTINUOUS
 10
1.7794
 20
7.4324
  0
VERTEX
  8
LAYER1
 62
     7
  6
CONTINUOUS
 10
1.7809
 20
7.4337
  0
VERTEX
  8
LAYER1
 62
     7
  6
CONTINUOUS
 10
1.7816
 20
7.4342
  0
VERTEX
  8
LAYER1
 62
     7
  6
CONTINUOUS
 10
1.7824
 20
7.4347
  0
VERTEX
  8
LAYER1
 62
     7
  6
CONTINUOUS
 10
1.7832
 20
7.4351
  0
VERTEX
  8
LAYER1
 62
     7
  6
CONTINUOUS
 10
1.7840
 20
7.4355
  0
VERTEX
  8
LAYER1
 62
     7
  6
CONTINUOUS
 10
1.7849
 20
7.4359
  0
VERTEX
  8
LAYER1
 62
     7
  6
CONTINUOUS
 10
1.7857
 20
7.4363
  0
VERTEX
  8
LAYER1
 62
     7
  6
CONTINUOUS
 10
1.7866
 20
7.4367
  0
VERTEX
  8
LAYER1
 62
     7
  6
CONTINUOUS
 10
1.7875
 20
7.4371
  0
VERTEX
  8
LAYER1
 62
     7
  6
CONTINUOUS
 10
1.7884
 20
7.4375
  0
VERTEX
  8
LAYER1
 62
     7
  6
CONTINUOUS
 10
1.7892
 20
7.4379
  0
VERTEX
  8
LAYER1
 62
     7
  6
CONTINUOUS
 10
1.7901
 20
7.4383
  0
VERTEX
  8
LAYER1
 62
     7
  6
CONTINUOUS
 10
1.7909
 20
7.4388
  0
VERTEX
  8
LAYER1
 62
     7
  6
CONTINUOUS
 10
1.7924
 20
7.4399
  0
VERTEX
  8
LAYER1
 62
     7
  6
CONTINUOUS
 10
1.7937
 20
7.4410
  0
VERTEX
  8
LAYER1
 62
     7
  6
CONTINUOUS
 10
1.7950
 20
7.4423
  0
VERTEX
  8
LAYER1
 62
     7
  6
CONTINUOUS
 10
1.7962
 20
7.4437
  0
VERTEX
  8
LAYER1
 62
     7
  6
CONTINUOUS
 10
1.7974
 20
7.4451
  0
VERTEX
  8
LAYER1
 62
     7
  6
CONTINUOUS
 10
1.7986
 20
7.4465
  0
VERTEX
  8
LAYER1
 62
     7
  6
CONTINUOUS
 10
1.7997
 20
7.4479
  0
VERTEX
  8
LAYER1
 62
     7
  6
CONTINUOUS
 10
1.8009
 20
7.4493
  0
VERTEX
  8
LAYER1
 62
     7
  6
CONTINUOUS
 10
1.8021
 20
7.4507
  0
VERTEX
  8
LAYER1
 62
     7
  6
CONTINUOUS
 10
1.8033
 20
7.4519
  0
VERTEX
  8
LAYER1
 62
     7
  6
CONTINUOUS
 10
1.8045
 20
7.4530
  0
VERTEX
  8
LAYER1
 62
     7
  6
CONTINUOUS
 10
1.8059
 20
7.4540
  0
VERTEX
  8
LAYER1
 62
     7
  6
CONTINUOUS
 10
1.8069
 20
7.4547
  0
VERTEX
  8
LAYER1
 62
     7
  6
CONTINUOUS
 10
1.8080
 20
7.4552
  0
VERTEX
  8
LAYER1
 62
     7
  6
CONTINUOUS
 10
1.8091
 20
7.4557
  0
VERTEX
  8
LAYER1
 62
     7
  6
CONTINUOUS
 10
1.8103
 20
7.4561
  0
VERTEX
  8
LAYER1
 62
     7
  6
CONTINUOUS
 10
1.8115
 20
7.4565
  0
VERTEX
  8
LAYER1
 62
     7
  6
CONTINUOUS
 10
1.8128
 20
7.4568
  0
VERTEX
  8
LAYER1
 62
     7
  6
CONTINUOUS
 10
1.8141
 20
7.4572
  0
VERTEX
  8
LAYER1
 62
     7
  6
CONTINUOUS
 10
1.8154
 20
7.4575
  0
VERTEX
  8
LAYER1
 62
     7
  6
CONTINUOUS
 10
1.8167
 20
7.4579
  0
VERTEX
  8
LAYER1
 62
     7
  6
CONTINUOUS
 10
1.8181
 20
7.4583
  0
VERTEX
  8
LAYER1
 62
     7
  6
CONTINUOUS
 10
1.8195
 20
7.4587
  0
VERTEX
  8
LAYER1
 62
     7
  6
CONTINUOUS
 10
1.8209
 20
7.4592
  0
VERTEX
  8
LAYER1
 62
     7
  6
CONTINUOUS
 10
1.8223
 20
7.4597
  0
VERTEX
  8
LAYER1
 62
     7
  6
CONTINUOUS
 10
1.8238
 20
7.4603
  0
VERTEX
  8
LAYER1
 62
     7
  6
CONTINUOUS
 10
1.8252
 20
7.4609
  0
VERTEX
  8
LAYER1
 62
     7
  6
CONTINUOUS
 10
1.8266
 20
7.4616
  0
VERTEX
  8
LAYER1
 62
     7
  6
CONTINUOUS
 10
1.8280
 20
7.4622
  0
VERTEX
  8
LAYER1
 62
     7
  6
CONTINUOUS
 10
1.8293
 20
7.4628
  0
VERTEX
  8
LAYER1
 62
     7
  6
CONTINUOUS
 10
1.8306
 20
7.4633
  0
VERTEX
  8
LAYER1
 62
     7
  6
CONTINUOUS
 10
1.8318
 20
7.4637
  0
VERTEX
  8
LAYER1
 62
     7
  6
CONTINUOUS
 10
1.8330
 20
7.4641
  0
VERTEX
  8
LAYER1
 62
     7
  6
CONTINUOUS
 10
1.8341
 20
7.4643
  0
VERTEX
  8
LAYER1
 62
     7
  6
CONTINUOUS
 10
1.8351
 20
7.4644
  0
VERTEX
  8
LAYER1
 62
     7
  6
CONTINUOUS
 10
1.8360
 20
7.4643
  0
VERTEX
  8
LAYER1
 62
     7
  6
CONTINUOUS
 10
1.8372
 20
7.4638
  0
VERTEX
  8
LAYER1
 62
     7
  6
CONTINUOUS
 10
1.8382
 20
7.4628
  0
VERTEX
  8
LAYER1
 62
     7
  6
CONTINUOUS
 10
1.8390
 20
7.4614
  0
VERTEX
  8
LAYER1
 62
     7
  6
CONTINUOUS
 10
1.8397
 20
7.4596
  0
VERTEX
  8
LAYER1
 62
     7
  6
CONTINUOUS
 10
1.8402
 20
7.4575
  0
VERTEX
  8
LAYER1
 62
     7
  6
CONTINUOUS
 10
1.8408
 20
7.4552
  0
VERTEX
  8
LAYER1
 62
     7
  6
CONTINUOUS
 10
1.8413
 20
7.4526
  0
VERTEX
  8
LAYER1
 62
     7
  6
CONTINUOUS
 10
1.8419
 20
7.4500
  0
VERTEX
  8
LAYER1
 62
     7
  6
CONTINUOUS
 10
1.8426
 20
7.4473
  0
VERTEX
  8
LAYER1
 62
     7
  6
CONTINUOUS
 10
1.8436
 20
7.4445
  0
VERTEX
  8
LAYER1
 62
     7
  6
CONTINUOUS
 10
1.8447
 20
7.4418
  0
VERTEX
  8
LAYER1
 62
     7
  6
CONTINUOUS
 10
1.8462
 20
7.4393
  0
VERTEX
  8
LAYER1
 62
     7
  6
CONTINUOUS
 10
1.8471
 20
7.4380
  0
VERTEX
  8
LAYER1
 62
     7
  6
CONTINUOUS
 10
1.8481
 20
7.4367
  0
VERTEX
  8
LAYER1
 62
     7
  6
CONTINUOUS
 10
1.8491
 20
7.4355
  0
VERTEX
  8
LAYER1
 62
     7
  6
CONTINUOUS
 10
1.8502
 20
7.4344
  0
VERTEX
  8
LAYER1
 62
     7
  6
CONTINUOUS
 10
1.8512
 20
7.4334
  0
VERTEX
  8
LAYER1
 62
     7
  6
CONTINUOUS
 10
1.8523
 20
7.4324
  0
VERTEX
  8
LAYER1
 62
     7
  6
CONTINUOUS
 10
1.8532
 20
7.4316
  0
VERTEX
  8
LAYER1
 62
     7
  6
CONTINUOUS
 10
1.8541
 20
7.4309
  0
VERTEX
  8
LAYER1
 62
     7
  6
CONTINUOUS
 10
1.8549
 20
7.4303
  0
VERTEX
  8
LAYER1
 62
     7
  6
CONTINUOUS
 10
1.8556
 20
7.4298
  0
VERTEX
  8
LAYER1
 62
     7
  6
CONTINUOUS
 10
1.8560
 20
7.4295
  0
VERTEX
  8
LAYER1
 62
     7
  6
CONTINUOUS
 10
1.8564
 20
7.4293
  0
VERTEX
  8
LAYER1
 62
     7
  6
CONTINUOUS
 10
1.8564
 20
7.4293
  0
VERTEX
  8
LAYER1
 62
     7
  6
CONTINUOUS
 10
1.8565
 20
7.4292
  0
VERTEX
  8
LAYER1
 62
     7
  6
CONTINUOUS
 10
1.8565
 20
7.4292
  0
VERTEX
  8
LAYER1
 62
     7
  6
CONTINUOUS
 10
1.8565
 20
7.4292
  0
VERTEX
  8
LAYER1
 62
     7
  6
CONTINUOUS
 10
1.8565
 20
7.4293
  0
VERTEX
  8
LAYER1
 62
     7
  6
CONTINUOUS
 10
1.8565
 20
7.4293
  0
VERTEX
  8
LAYER1
 62
     7
  6
CONTINUOUS
 10
1.8565
 20
7.4293
  0
VERTEX
  8
LAYER1
 62
     7
  6
CONTINUOUS
 10
1.8564
 20
7.4293
  0
VERTEX
  8
LAYER1
 62
     7
  6
CONTINUOUS
 10
1.8564
 20
7.4293
  0
VERTEX
  8
LAYER1
 62
     7
  6
CONTINUOUS
 10
1.8564
 20
7.4293
  0
VERTEX
  8
LAYER1
 62
     7
  6
CONTINUOUS
 10
1.8564
 20
7.4293
  0
VERTEX
  8
LAYER1
 62
     7
  6
CONTINUOUS
 10
1.8564
 20
7.4293
  0
VERTEX
  8
LAYER1
 62
     7
  6
CONTINUOUS
 10
1.8565
 20
7.4288
  0
VERTEX
  8
LAYER1
 62
     7
  6
CONTINUOUS
 10
1.8569
 20
7.4276
  0
VERTEX
  8
LAYER1
 62
     7
  6
CONTINUOUS
 10
1.8577
 20
7.4259
  0
VERTEX
  8
LAYER1
 62
     7
  6
CONTINUOUS
 10
1.8586
 20
7.4237
  0
VERTEX
  8
LAYER1
 62
     7
  6
CONTINUOUS
 10
1.8597
 20
7.4211
  0
VERTEX
  8
LAYER1
 62
     7
  6
CONTINUOUS
 10
1.8609
 20
7.4182
  0
VERTEX
  8
LAYER1
 62
     7
  6
CONTINUOUS
 10
1.8621
 20
7.4151
  0
VERTEX
  8
LAYER1
 62
     7
  6
CONTINUOUS
 10
1.8633
 20
7.4118
  0
VERTEX
  8
LAYER1
 62
     7
  6
CONTINUOUS
 10
1.8644
 20
7.4085
  0
VERTEX
  8
LAYER1
 62
     7
  6
CONTINUOUS
 10
1.8654
 20
7.4053
  0
VERTEX
  8
LAYER1
 62
     7
  6
CONTINUOUS
 10
1.8662
 20
7.4021
  0
VERTEX
  8
LAYER1
 62
     7
  6
CONTINUOUS
 10
1.8667
 20
7.3992
  0
VERTEX
  8
LAYER1
 62
     7
  6
CONTINUOUS
 10
1.8668
 20
7.3983
  0
VERTEX
  8
LAYER1
 62
     7
  6
CONTINUOUS
 10
1.8668
 20
7.3974
  0
VERTEX
  8
LAYER1
 62
     7
  6
CONTINUOUS
 10
1.8669
 20
7.3966
  0
VERTEX
  8
LAYER1
 62
     7
  6
CONTINUOUS
 10
1.8669
 20
7.3958
  0
VERTEX
  8
LAYER1
 62
     7
  6
CONTINUOUS
 10
1.8669
 20
7.3950
  0
VERTEX
  8
LAYER1
 62
     7
  6
CONTINUOUS
 10
1.8669
 20
7.3942
  0
VERTEX
  8
LAYER1
 62
     7
  6
CONTINUOUS
 10
1.8668
 20
7.3934
  0
VERTEX
  8
LAYER1
 62
     7
  6
CONTINUOUS
 10
1.8668
 20
7.3925
  0
VERTEX
  8
LAYER1
 62
     7
  6
CONTINUOUS
 10
1.8668
 20
7.3917
  0
VERTEX
  8
LAYER1
 62
     7
  6
CONTINUOUS
 10
1.8668
 20
7.3909
  0
VERTEX
  8
LAYER1
 62
     7
  6
CONTINUOUS
 10
1.8668
 20
7.3900
  0
VERTEX
  8
LAYER1
 62
     7
  6
CONTINUOUS
 10
1.8668
 20
7.3891
  0
VERTEX
  8
LAYER1
 62
     7
  6
CONTINUOUS
 10
1.8668
 20
7.3867
  0
VERTEX
  8
LAYER1
 62
     7
  6
CONTINUOUS
 10
1.8669
 20
7.3842
  0
VERTEX
  8
LAYER1
 62
     7
  6
CONTINUOUS
 10
1.8670
 20
7.3816
  0
VERTEX
  8
LAYER1
 62
     7
  6
CONTINUOUS
 10
1.8671
 20
7.3790
  0
VERTEX
  8
LAYER1
 62
     7
  6
CONTINUOUS
 10
1.8672
 20
7.3764
  0
VERTEX
  8
LAYER1
 62
     7
  6
CONTINUOUS
 10
1.8671
 20
7.3739
  0
VERTEX
  8
LAYER1
 62
     7
  6
CONTINUOUS
 10
1.8668
 20
7.3715
  0
VERTEX
  8
LAYER1
 62
     7
  6
CONTINUOUS
 10
1.8664
 20
7.3694
  0
VERTEX
  8
LAYER1
 62
     7
  6
CONTINUOUS
 10
1.8657
 20
7.3675
  0
VERTEX
  8
LAYER1
 62
     7
  6
CONTINUOUS
 10
1.8648
 20
7.3659
  0
VERTEX
  8
LAYER1
 62
     7
  6
CONTINUOUS
 10
1.8635
 20
7.3647
  0
VERTEX
  8
LAYER1
 62
     7
  6
CONTINUOUS
 10
1.8619
 20
7.3639
  0
VERTEX
  8
LAYER1
 62
     7
  6
CONTINUOUS
 10
1.8600
 20
7.3636
  0
VERTEX
  8
LAYER1
 62
     7
  6
CONTINUOUS
 10
1.8577
 20
7.3637
  0
VERTEX
  8
LAYER1
 62
     7
  6
CONTINUOUS
 10
1.8552
 20
7.3640
  0
VERTEX
  8
LAYER1
 62
     7
  6
CONTINUOUS
 10
1.8526
 20
7.3646
  0
VERTEX
  8
LAYER1
 62
     7
  6
CONTINUOUS
 10
1.8499
 20
7.3652
  0
VERTEX
  8
LAYER1
 62
     7
  6
CONTINUOUS
 10
1.8473
 20
7.3658
  0
VERTEX
  8
LAYER1
 62
     7
  6
CONTINUOUS
 10
1.8447
 20
7.3663
  0
VERTEX
  8
LAYER1
 62
     7
  6
CONTINUOUS
 10
1.8424
 20
7.3666
  0
VERTEX
  8
LAYER1
 62
     7
  6
CONTINUOUS
 10
1.8404
 20
7.3665
  0
VERTEX
  8
LAYER1
 62
     7
  6
CONTINUOUS
 10
1.8387
 20
7.3661
  0
VERTEX
  8
LAYER1
 62
     7
  6
CONTINUOUS
 10
1.8375
 20
7.3652
  0
VERTEX
  8
LAYER1
 62
     7
  6
CONTINUOUS
 10
1.8368
 20
7.3637
  0
VERTEX
  8
LAYER1
 62
     7
  6
CONTINUOUS
 10
1.8367
 20
7.3634
  0
VERTEX
  8
LAYER1
 62
     7
  6
CONTINUOUS
 10
1.8366
 20
7.3630
  0
VERTEX
  8
LAYER1
 62
     7
  6
CONTINUOUS
 10
1.8366
 20
7.3625
  0
VERTEX
  8
LAYER1
 62
     7
  6
CONTINUOUS
 10
1.8366
 20
7.3621
  0
VERTEX
  8
LAYER1
 62
     7
  6
CONTINUOUS
 10
1.8366
 20
7.3617
  0
VERTEX
  8
LAYER1
 62
     7
  6
CONTINUOUS
 10
1.8366
 20
7.3612
  0
VERTEX
  8
LAYER1
 62
     7
  6
CONTINUOUS
 10
1.8367
 20
7.3608
  0
VERTEX
  8
LAYER1
 62
     7
  6
CONTINUOUS
 10
1.8367
 20
7.3603
  0
VERTEX
  8
LAYER1
 62
     7
  6
CONTINUOUS
 10
1.8367
 20
7.3599
  0
VERTEX
  8
LAYER1
 62
     7
  6
CONTINUOUS
 10
1.8367
 20
7.3595
  0
VERTEX
  8
LAYER1
 62
     7
  6
CONTINUOUS
 10
1.8368
 20
7.3591
  0
VERTEX
  8
LAYER1
 62
     7
  6
CONTINUOUS
 10
1.8368
 20
7.3587
  0
SEQEND
  8
LAYER1
  0
CIRCLE
  8
LAYER1
 62
     7
  6
CONTINUOUS
 10
1.4938
 20
7.4717
 40
0.0252
  0
CIRCLE
  8
LAYER1
 62
     7
  6
CONTINUOUS
 10
1.0878
 20
7.2898
 40
0.0135
  0
CIRCLE
  8
LAYER1
 62
     7
  6
CONTINUOUS
 10
1.9971
 20
6.8167
 40
0.0151
  0
CIRCLE
  8
LAYER1
 62
     7
  6
CONTINUOUS
 10
2.0128
 20
6.7464
 40
0.0159
  0
CIRCLE
  8
LAYER1
 62
     7
  6
CONTINUOUS
 10
1.9000
 20
6.6876
 40
0.0178
  0
CIRCLE
  8
LAYER1
 62
     7
  6
CONTINUOUS
 10
1.8618
 20
7.0621
 40
0.0303
  0
CIRCLE
  8
LAYER1
 62
     7
  6
CONTINUOUS
 10
1.6248
 20
7.1356
 40
0.0196
  0
CIRCLE
  8
LAYER1
 62
     7
  6
CONTINUOUS
 10
1.5924
 20
7.1002
 40
0.0252
  0
CIRCLE
  8
LAYER1
 62
     7
  6
CONTINUOUS
 10
1.6514
 20
6.6429
 40
0.0406
  0
CIRCLE
  8
LAYER1
 62
     7
  6
CONTINUOUS
 10
1.3341
 20
6.6906
 40
0.0159
  0
CIRCLE
  8
LAYER1
 62
     7
  6
CONTINUOUS
 10
1.3144
 20
6.6351
 40
0.0101
  0
CIRCLE
  8
LAYER1
 62
     7
  6
CONTINUOUS
 10
1.3941
 20
7.0433
 40
0.0253
  0
ARC
  8
LAYER1
 62
     7
  6
CONTINUOUS
 10
1.6952
 20
6.5149
 40
0.0128
 50
46.2617
 51
133.7387
  0
ARC
  8
LAYER1
 62
     7
  6
CONTINUOUS
 10
1.4813
 20
6.5183
 40
0.0075
 50
51.9315
 51
128.0677
  0
POLYLINE
  8
LAYER1
 62
     7
 66
     1
  6
CONTINUOUS
  0
VERTEX
  8
LAYER1
 62
     7
  6
CONTINUOUS
 10
1.1763
 20
7.5450
  0
VERTEX
  8
LAYER1
 62
     7
  6
CONTINUOUS
 10
1.1763
 20
7.5450
  0
VERTEX
  8
LAYER1
 62
     7
  6
CONTINUOUS
 10
1.1763
 20
7.5450
  0
VERTEX
  8
LAYER1
 62
     7
  6
CONTINUOUS
 10
1.1763
 20
7.5450
  0
VERTEX
  8
LAYER1
 62
     7
  6
CONTINUOUS
 10
1.1763
 20
7.5450
  0
VERTEX
  8
LAYER1
 62
     7
  6
CONTINUOUS
 10
1.1763
 20
7.5450
  0
VERTEX
  8
LAYER1
 62
     7
  6
CONTINUOUS
 10
1.1763
 20
7.5450
  0
VERTEX
  8
LAYER1
 62
     7
  6
CONTINUOUS
 10
1.1763
 20
7.5450
  0
VERTEX
  8
LAYER1
 62
     7
  6
CONTINUOUS
 10
1.1763
 20
7.5450
  0
VERTEX
  8
LAYER1
 62
     7
  6
CONTINUOUS
 10
1.1763
 20
7.5450
  0
VERTEX
  8
LAYER1
 62
     7
  6
CONTINUOUS
 10
1.1763
 20
7.5450
  0
VERTEX
  8
LAYER1
 62
     7
  6
CONTINUOUS
 10
1.1763
 20
7.5450
  0
VERTEX
  8
LAYER1
 62
     7
  6
CONTINUOUS
 10
1.1763
 20
7.5450
  0
VERTEX
  8
LAYER1
 62
     7
  6
CONTINUOUS
 10
1.1763
 20
7.5450
  0
VERTEX
  8
LAYER1
 62
     7
  6
CONTINUOUS
 10
1.1763
 20
7.5450
  0
VERTEX
  8
LAYER1
 62
     7
  6
CONTINUOUS
 10
1.1763
 20
7.5450
  0
VERTEX
  8
LAYER1
 62
     7
  6
CONTINUOUS
 10
1.1763
 20
7.5450
  0
VERTEX
  8
LAYER1
 62
     7
  6
CONTINUOUS
 10
1.1763
 20
7.5450
  0
VERTEX
  8
LAYER1
 62
     7
  6
CONTINUOUS
 10
1.1763
 20
7.5450
  0
VERTEX
  8
LAYER1
 62
     7
  6
CONTINUOUS
 10
1.1763
 20
7.5450
  0
VERTEX
  8
LAYER1
 62
     7
  6
CONTINUOUS
 10
1.1763
 20
7.5450
  0
VERTEX
  8
LAYER1
 62
     7
  6
CONTINUOUS
 10
1.1763
 20
7.5450
  0
VERTEX
  8
LAYER1
 62
     7
  6
CONTINUOUS
 10
1.1763
 20
7.5450
  0
VERTEX
  8
LAYER1
 62
     7
  6
CONTINUOUS
 10
1.1763
 20
7.5450
  0
VERTEX
  8
LAYER1
 62
     7
  6
CONTINUOUS
 10
1.1763
 20
7.5450
  0
SEQEND
  8
LAYER1
  0
POLYLINE
  8
LAYER1
 62
     7
 66
     1
  6
CONTINUOUS
  0
VERTEX
  8
LAYER1
 62
     7
  6
CONTINUOUS
 10
1.1763
 20
7.5450
  0
VERTEX
  8
LAYER1
 62
     7
  6
CONTINUOUS
 10
1.1763
 20
7.5450
  0
VERTEX
  8
LAYER1
 62
     7
  6
CONTINUOUS
 10
1.1763
 20
7.5450
  0
VERTEX
  8
LAYER1
 62
     7
  6
CONTINUOUS
 10
1.1763
 20
7.5450
  0
VERTEX
  8
LAYER1
 62
     7
  6
CONTINUOUS
 10
1.1763
 20
7.5450
  0
VERTEX
  8
LAYER1
 62
     7
  6
CONTINUOUS
 10
1.1763
 20
7.5450
  0
VERTEX
  8
LAYER1
 62
     7
  6
CONTINUOUS
 10
1.1763
 20
7.5450
  0
VERTEX
  8
LAYER1
 62
     7
  6
CONTINUOUS
 10
1.1763
 20
7.5450
  0
VERTEX
  8
LAYER1
 62
     7
  6
CONTINUOUS
 10
1.1763
 20
7.5450
  0
VERTEX
  8
LAYER1
 62
     7
  6
CONTINUOUS
 10
1.1763
 20
7.5450
  0
VERTEX
  8
LAYER1
 62
     7
  6
CONTINUOUS
 10
1.1763
 20
7.5450
  0
VERTEX
  8
LAYER1
 62
     7
  6
CONTINUOUS
 10
1.1763
 20
7.5450
  0
VERTEX
  8
LAYER1
 62
     7
  6
CONTINUOUS
 10
1.1763
 20
7.5450
  0
VERTEX
  8
LAYER1
 62
     7
  6
CONTINUOUS
 10
1.1763
 20
7.5450
  0
VERTEX
  8
LAYER1
 62
     7
  6
CONTINUOUS
 10
1.1763
 20
7.5450
  0
VERTEX
  8
LAYER1
 62
     7
  6
CONTINUOUS
 10
1.1763
 20
7.5450
  0
VERTEX
  8
LAYER1
 62
     7
  6
CONTINUOUS
 10
1.1763
 20
7.5450
  0
VERTEX
  8
LAYER1
 62
     7
  6
CONTINUOUS
 10
1.1763
 20
7.5450
  0
VERTEX
  8
LAYER1
 62
     7
  6
CONTINUOUS
 10
1.1763
 20
7.5450
  0
VERTEX
  8
LAYER1
 62
     7
  6
CONTINUOUS
 10
1.1763
 20
7.5450
  0
VERTEX
  8
LAYER1
 62
     7
  6
CONTINUOUS
 10
1.1763
 20
7.5450
  0
VERTEX
  8
LAYER1
 62
     7
  6
CONTINUOUS
 10
1.1763
 20
7.5450
  0
VERTEX
  8
LAYER1
 62
     7
  6
CONTINUOUS
 10
1.1763
 20
7.5450
  0
VERTEX
  8
LAYER1
 62
     7
  6
CONTINUOUS
 10
1.1763
 20
7.5450
  0
VERTEX
  8
LAYER1
 62
     7
  6
CONTINUOUS
 10
1.1763
 20
7.5450
  0
SEQEND
  8
LAYER1
  0
POLYLINE
  8
LAYER1
 62
     7
 66
     1
  6
CONTINUOUS
  0
VERTEX
  8
LAYER1
 62
     7
  6
CONTINUOUS
 10
1.1763
 20
7.5450
  0
VERTEX
  8
LAYER1
 62
     7
  6
CONTINUOUS
 10
1.1763
 20
7.5446
  0
VERTEX
  8
LAYER1
 62
     7
  6
CONTINUOUS
 10
1.1763
 20
7.5441
  0
VERTEX
  8
LAYER1
 62
     7
  6
CONTINUOUS
 10
1.1763
 20
7.5436
  0
VERTEX
  8
LAYER1
 62
     7
  6
CONTINUOUS
 10
1.1763
 20
7.5432
  0
VERTEX
  8
LAYER1
 62
     7
  6
CONTINUOUS
 10
1.1763
 20
7.5427
  0
VERTEX
  8
LAYER1
 62
     7
  6
CONTINUOUS
 10
1.1763
 20
7.5423
  0
VERTEX
  8
LAYER1
 62
     7
  6
CONTINUOUS
 10
1.1763
 20
7.5418
  0
VERTEX
  8
LAYER1
 62
     7
  6
CONTINUOUS
 10
1.1763
 20
7.5414
  0
VERTEX
  8
LAYER1
 62
     7
  6
CONTINUOUS
 10
1.1763
 20
7.5409
  0
VERTEX
  8
LAYER1
 62
     7
  6
CONTINUOUS
 10
1.1763
 20
7.5404
  0
VERTEX
  8
LAYER1
 62
     7
  6
CONTINUOUS
 10
1.1764
 20
7.5400
  0
VERTEX
  8
LAYER1
 62
     7
  6
CONTINUOUS
 10
1.1764
 20
7.5395
  0
VERTEX
  8
LAYER1
 62
     7
  6
CONTINUOUS
 10
1.1764
 20
7.5378
  0
VERTEX
  8
LAYER1
 62
     7
  6
CONTINUOUS
 10
1.1765
 20
7.5362
  0
VERTEX
  8
LAYER1
 62
     7
  6
CONTINUOUS
 10
1.1765
 20
7.5345
  0
VERTEX
  8
LAYER1
 62
     7
  6
CONTINUOUS
 10
1.1766
 20
7.5328
  0
VERTEX
  8
LAYER1
 62
     7
  6
CONTINUOUS
 10
1.1766
 20
7.5311
  0
VERTEX
  8
LAYER1
 62
     7
  6
CONTINUOUS
 10
1.1767
 20
7.5294
  0
VERTEX
  8
LAYER1
 62
     7
  6
CONTINUOUS
 10
1.1767
 20
7.5278
  0
VERTEX
  8
LAYER1
 62
     7
  6
CONTINUOUS
 10
1.1767
 20
7.5261
  0
VERTEX
  8
LAYER1
 62
     7
  6
CONTINUOUS
 10
1.1767
 20
7.5244
  0
VERTEX
  8
LAYER1
 62
     7
  6
CONTINUOUS
 10
1.1767
 20
7.5227
  0
VERTEX
  8
LAYER1
 62
     7
  6
CONTINUOUS
 10
1.1766
 20
7.5211
  0
VERTEX
  8
LAYER1
 62
     7
  6
CONTINUOUS
 10
1.1765
 20
7.5194
  0
VERTEX
  8
LAYER1
 62
     7
  6
CONTINUOUS
 10
1.1761
 20
7.5152
  0
VERTEX
  8
LAYER1
 62
     7
  6
CONTINUOUS
 10
1.1754
 20
7.5110
  0
VERTEX
  8
LAYER1
 62
     7
  6
CONTINUOUS
 10
1.1745
 20
7.5068
  0
VERTEX
  8
LAYER1
 62
     7
  6
CONTINUOUS
 10
1.1735
 20
7.5026
  0
VERTEX
  8
LAYER1
 62
     7
  6
CONTINUOUS
 10
1.1724
 20
7.4985
  0
VERTEX
  8
LAYER1
 62
     7
  6
CONTINUOUS
 10
1.1713
 20
7.4943
  0
VERTEX
  8
LAYER1
 62
     7
  6
CONTINUOUS
 10
1.1702
 20
7.4902
  0
VERTEX
  8
LAYER1
 62
     7
  6
CONTINUOUS
 10
1.1692
 20
7.4860
  0
VERTEX
  8
LAYER1
 62
     7
  6
CONTINUOUS
 10
1.1683
 20
7.4818
  0
VERTEX
  8
LAYER1
 62
     7
  6
CONTINUOUS
 10
1.1676
 20
7.4776
  0
VERTEX
  8
LAYER1
 62
     7
  6
CONTINUOUS
 10
1.1671
 20
7.4733
  0
VERTEX
  8
LAYER1
 62
     7
  6
CONTINUOUS
 10
1.1669
 20
7.4690
  0
VERTEX
  8
LAYER1
 62
     7
  6
CONTINUOUS
 10
1.1669
 20
7.4673
  0
VERTEX
  8
LAYER1
 62
     7
  6
CONTINUOUS
 10
1.1669
 20
7.4656
  0
VERTEX
  8
LAYER1
 62
     7
  6
CONTINUOUS
 10
1.1670
 20
7.4639
  0
VERTEX
  8
LAYER1
 62
     7
  6
CONTINUOUS
 10
1.1671
 20
7.4622
  0
VERTEX
  8
LAYER1
 62
     7
  6
CONTINUOUS
 10
1.1672
 20
7.4605
  0
VERTEX
  8
LAYER1
 62
     7
  6
CONTINUOUS
 10
1.1672
 20
7.4589
  0
VERTEX
  8
LAYER1
 62
     7
  6
CONTINUOUS
 10
1.1673
 20
7.4572
  0
VERTEX
  8
LAYER1
 62
     7
  6
CONTINUOUS
 10
1.1674
 20
7.4555
  0
VERTEX
  8
LAYER1
 62
     7
  6
CONTINUOUS
 10
1.1674
 20
7.4538
  0
VERTEX
  8
LAYER1
 62
     7
  6
CONTINUOUS
 10
1.1673
 20
7.4522
  0
VERTEX
  8
LAYER1
 62
     7
  6
CONTINUOUS
 10
1.1672
 20
7.4505
  0
VERTEX
  8
LAYER1
 62
     7
  6
CONTINUOUS
 10
1.1670
 20
7.4489
  0
VERTEX
  8
LAYER1
 62
     7
  6
CONTINUOUS
 10
1.1666
 20
7.4468
  0
VERTEX
  8
LAYER1
 62
     7
  6
CONTINUOUS
 10
1.1661
 20
7.4446
  0
VERTEX
  8
LAYER1
 62
     7
  6
CONTINUOUS
 10
1.1655
 20
7.4425
  0
VERTEX
  8
LAYER1
 62
     7
  6
CONTINUOUS
 10
1.1648
 20
7.4405
  0
VERTEX
  8
LAYER1
 62
     7
  6
CONTINUOUS
 10
1.1639
 20
7.4384
  0
VERTEX
  8
LAYER1
 62
     7
  6
CONTINUOUS
 10
1.1631
 20
7.4363
  0
VERTEX
  8
LAYER1
 62
     7
  6
CONTINUOUS
 10
1.1621
 20
7.4342
  0
VERTEX
  8
LAYER1
 62
     7
  6
CONTINUOUS
 10
1.1611
 20
7.4322
  0
VERTEX
  8
LAYER1
 62
     7
  6
CONTINUOUS
 10
1.1601
 20
7.4301
  0
VERTEX
  8
LAYER1
 62
     7
  6
CONTINUOUS
 10
1.1591
 20
7.4280
  0
VERTEX
  8
LAYER1
 62
     7
  6
CONTINUOUS
 10
1.1581
 20
7.4258
  0
VERTEX
  8
LAYER1
 62
     7
  6
CONTINUOUS
 10
1.1572
 20
7.4237
  0
VERTEX
  8
LAYER1
 62
     7
  6
CONTINUOUS
 10
1.1560
 20
7.4209
  0
VERTEX
  8
LAYER1
 62
     7
  6
CONTINUOUS
 10
1.1549
 20
7.4182
  0
VERTEX
  8
LAYER1
 62
     7
  6
CONTINUOUS
 10
1.1539
 20
7.4154
  0
VERTEX
  8
LAYER1
 62
     7
  6
CONTINUOUS
 10
1.1528
 20
7.4126
  0
VERTEX
  8
LAYER1
 62
     7
  6
CONTINUOUS
 10
1.1518
 20
7.4098
  0
VERTEX
  8
LAYER1
 62
     7
  6
CONTINUOUS
 10
1.1507
 20
7.4071
  0
VERTEX
  8
LAYER1
 62
     7
  6
CONTINUOUS
 10
1.1495
 20
7.4045
  0
VERTEX
  8
LAYER1
 62
     7
  6
CONTINUOUS
 10
1.1483
 20
7.4020
  0
VERTEX
  8
LAYER1
 62
     7
  6
CONTINUOUS
 10
1.1470
 20
7.3996
  0
VERTEX
  8
LAYER1
 62
     7
  6
CONTINUOUS
 10
1.1456
 20
7.3973
  0
VERTEX
  8
LAYER1
 62
     7
  6
CONTINUOUS
 10
1.1440
 20
7.3953
  0
VERTEX
  8
LAYER1
 62
     7
  6
CONTINUOUS
 10
1.1423
 20
7.3934
  0
VERTEX
  8
LAYER1
 62
     7
  6
CONTINUOUS
 10
1.1399
 20
7.3912
  0
VERTEX
  8
LAYER1
 62
     7
  6
CONTINUOUS
 10
1.1372
 20
7.3894
  0
VERTEX
  8
LAYER1
 62
     7
  6
CONTINUOUS
 10
1.1343
 20
7.3878
  0
VERTEX
  8
LAYER1
 62
     7
  6
CONTINUOUS
 10
1.1312
 20
7.3864
  0
VERTEX
  8
LAYER1
 62
     7
  6
CONTINUOUS
 10
1.1279
 20
7.3852
  0
VERTEX
  8
LAYER1
 62
     7
  6
CONTINUOUS
 10
1.1244
 20
7.3842
  0
VERTEX
  8
LAYER1
 62
     7
  6
CONTINUOUS
 10
1.1209
 20
7.3832
  0
VERTEX
  8
LAYER1
 62
     7
  6
CONTINUOUS
 10
1.1172
 20
7.3822
  0
VERTEX
  8
LAYER1
 62
     7
  6
CONTINUOUS
 10
1.1135
 20
7.3813
  0
VERTEX
  8
LAYER1
 62
     7
  6
CONTINUOUS
 10
1.1097
 20
7.3803
  0
VERTEX
  8
LAYER1
 62
     7
  6
CONTINUOUS
 10
1.1060
 20
7.3792
  0
VERTEX
  8
LAYER1
 62
     7
  6
CONTINUOUS
 10
1.1022
 20
7.3780
  0
VERTEX
  8
LAYER1
 62
     7
  6
CONTINUOUS
 10
1.1000
 20
7.3771
  0
VERTEX
  8
LAYER1
 62
     7
  6
CONTINUOUS
 10
1.0978
 20
7.3763
  0
VERTEX
  8
LAYER1
 62
     7
  6
CONTINUOUS
 10
1.0956
 20
7.3755
  0
VERTEX
  8
LAYER1
 62
     7
  6
CONTINUOUS
 10
1.0934
 20
7.3747
  0
VERTEX
  8
LAYER1
 62
     7
  6
CONTINUOUS
 10
1.0913
 20
7.3739
  0
VERTEX
  8
LAYER1
 62
     7
  6
CONTINUOUS
 10
1.0892
 20
7.3732
  0
VERTEX
  8
LAYER1
 62
     7
  6
CONTINUOUS
 10
1.0871
 20
7.3727
  0
VERTEX
  8
LAYER1
 62
     7
  6
CONTINUOUS
 10
1.0850
 20
7.3723
  0
VERTEX
  8
LAYER1
 62
     7
  6
CONTINUOUS
 10
1.0830
 20
7.3721
  0
VERTEX
  8
LAYER1
 62
     7
  6
CONTINUOUS
 10
1.0810
 20
7.3720
  0
VERTEX
  8
LAYER1
 62
     7
  6
CONTINUOUS
 10
1.0790
 20
7.3722
  0
VERTEX
  8
LAYER1
 62
     7
  6
CONTINUOUS
 10
1.0771
 20
7.3727
  0
VERTEX
  8
LAYER1
 62
     7
  6
CONTINUOUS
 10
1.0764
 20
7.3730
  0
VERTEX
  8
LAYER1
 62
     7
  6
CONTINUOUS
 10
1.0756
 20
7.3733
  0
VERTEX
  8
LAYER1
 62
     7
  6
CONTINUOUS
 10
1.0749
 20
7.3736
  0
VERTEX
  8
LAYER1
 62
     7
  6
CONTINUOUS
 10
1.0742
 20
7.3740
  0
VERTEX
  8
LAYER1
 62
     7
  6
CONTINUOUS
 10
1.0735
 20
7.3744
  0
VERTEX
  8
LAYER1
 62
     7
  6
CONTINUOUS
 10
1.0727
 20
7.3748
  0
VERTEX
  8
LAYER1
 62
     7
  6
CONTINUOUS
 10
1.0720
 20
7.3753
  0
VERTEX
  8
LAYER1
 62
     7
  6
CONTINUOUS
 10
1.0713
 20
7.3758
  0
VERTEX
  8
LAYER1
 62
     7
  6
CONTINUOUS
 10
1.0706
 20
7.3762
  0
VERTEX
  8
LAYER1
 62
     7
  6
CONTINUOUS
 10
1.0699
 20
7.3767
  0
VERTEX
  8
LAYER1
 62
     7
  6
CONTINUOUS
 10
1.0692
 20
7.3772
  0
VERTEX
  8
LAYER1
 62
     7
  6
CONTINUOUS
 10
1.0685
 20
7.3777
  0
SEQEND
  8
LAYER1
  0
ARC
  8
LAYER1
 62
     7
  6
CONTINUOUS
 10
1.6952
 20
6.5149
 40
0.0128
 50
30.5957
 51
41.8509
  0
ARC
  8
LAYER1
 62
     7
  6
CONTINUOUS
 10
1.6952
 20
6.5149
 40
0.0128
 50
41.8502
 51
46.2616
  0
ARC
  8
LAYER1
 62
     7
  6
CONTINUOUS
 10
1.6952
 20
6.5149
 40
0.0128
 50
133.7387
 51
138.1519
  0
ARC
  8
LAYER1
 62
     7
  6
CONTINUOUS
 10
1.6952
 20
6.5149
 40
0.0128
 50
138.1498
 51
149.4046
  0
ARC
  8
LAYER1
 62
     7
  6
CONTINUOUS
 10
1.4813
 20
6.5183
 40
0.0075
 50
25.1200
 51
43.8916
  0
ARC
  8
LAYER1
 62
     7
  6
CONTINUOUS
 10
1.4813
 20
6.5183
 40
0.0075
 50
43.8940
 51
51.9316
  0
ARC
  8
LAYER1
 62
     7
  6
CONTINUOUS
 10
1.4813
 20
6.5183
 40
0.0075
 50
128.0677
 51
136.1042
  0
ARC
  8
LAYER1
 62
     7
  6
CONTINUOUS
 10
1.4813
 20
6.5183
 40
0.0075
 50
136.1060
 51
154.8827
  0
POLYLINE
  8
LAYER1
 62
     7
 66
     1
  6
CONTINUOUS
  0
VERTEX
  8
LAYER1
 62
     7
  6
CONTINUOUS
 10
1.0685
 20
7.3777
  0
VERTEX
  8
LAYER1
 62
     7
  6
CONTINUOUS
 10
1.0684
 20
7.3778
  0
VERTEX
  8
LAYER1
 62
     7
  6
CONTINUOUS
 10
1.0682
 20
7.3779
  0
VERTEX
  8
LAYER1
 62
     7
  6
CONTINUOUS
 10
1.0681
 20
7.3780
  0
VERTEX
  8
LAYER1
 62
     7
  6
CONTINUOUS
 10
1.0680
 20
7.3781
  0
VERTEX
  8
LAYER1
 62
     7
  6
CONTINUOUS
 10
1.0678
 20
7.3782
  0
VERTEX
  8
LAYER1
 62
     7
  6
CONTINUOUS
 10
1.0677
 20
7.3782
  0
VERTEX
  8
LAYER1
 62
     7
  6
CONTINUOUS
 10
1.0676
 20
7.3783
  0
VERTEX
  8
LAYER1
 62
     7
  6
CONTINUOUS
 10
1.0675
 20
7.3784
  0
VERTEX
  8
LAYER1
 62
     7
  6
CONTINUOUS
 10
1.0674
 20
7.3785
  0
VERTEX
  8
LAYER1
 62
     7
  6
CONTINUOUS
 10
1.0673
 20
7.3785
  0
VERTEX
  8
LAYER1
 62
     7
  6
CONTINUOUS
 10
1.0672
 20
7.3786
  0
VERTEX
  8
LAYER1
 62
     7
  6
CONTINUOUS
 10
1.0671
 20
7.3786
  0
VERTEX
  8
LAYER1
 62
     7
  6
CONTINUOUS
 10
1.0669
 20
7.3788
  0
VERTEX
  8
LAYER1
 62
     7
  6
CONTINUOUS
 10
1.0668
 20
7.3789
  0
VERTEX
  8
LAYER1
 62
     7
  6
CONTINUOUS
 10
1.0666
 20
7.3789
  0
VERTEX
  8
LAYER1
 62
     7
  6
CONTINUOUS
 10
1.0666
 20
7.3790
  0
VERTEX
  8
LAYER1
 62
     7
  6
CONTINUOUS
 10
1.0666
 20
7.3790
  0
VERTEX
  8
LAYER1
 62
     7
  6
CONTINUOUS
 10
1.0666
 20
7.3790
  0
VERTEX
  8
LAYER1
 62
     7
  6
CONTINUOUS
 10
1.0666
 20
7.3790
  0
VERTEX
  8
LAYER1
 62
     7
  6
CONTINUOUS
 10
1.0667
 20
7.3789
  0
VERTEX
  8
LAYER1
 62
     7
  6
CONTINUOUS
 10
1.0668
 20
7.3789
  0
VERTEX
  8
LAYER1
 62
     7
  6
CONTINUOUS
 10
1.0669
 20
7.3788
  0
VERTEX
  8
LAYER1
 62
     7
  6
CONTINUOUS
 10
1.0670
 20
7.3787
  0
VERTEX
  8
LAYER1
 62
     7
  6
CONTINUOUS
 10
1.0671
 20
7.3786
  0
SEQEND
  8
LAYER1
  0
POLYLINE
  8
LAYER1
 62
     7
 66
     1
  6
CONTINUOUS
  0
VERTEX
  8
LAYER1
 62
     7
  6
CONTINUOUS
 10
1.0671
 20
7.3786
  0
VERTEX
  8
LAYER1
 62
     7
  6
CONTINUOUS
 10
1.0671
 20
7.3786
  0
VERTEX
  8
LAYER1
 62
     7
  6
CONTINUOUS
 10
1.0671
 20
7.3786
  0
VERTEX
  8
LAYER1
 62
     7
  6
CONTINUOUS
 10
1.0671
 20
7.3786
  0
VERTEX
  8
LAYER1
 62
     7
  6
CONTINUOUS
 10
1.0671
 20
7.3786
  0
VERTEX
  8
LAYER1
 62
     7
  6
CONTINUOUS
 10
1.0671
 20
7.3786
  0
VERTEX
  8
LAYER1
 62
     7
  6
CONTINUOUS
 10
1.0671
 20
7.3786
  0
VERTEX
  8
LAYER1
 62
     7
  6
CONTINUOUS
 10
1.0671
 20
7.3786
  0
VERTEX
  8
LAYER1
 62
     7
  6
CONTINUOUS
 10
1.0671
 20
7.3786
  0
VERTEX
  8
LAYER1
 62
     7
  6
CONTINUOUS
 10
1.0671
 20
7.3786
  0
VERTEX
  8
LAYER1
 62
     7
  6
CONTINUOUS
 10
1.0671
 20
7.3786
  0
VERTEX
  8
LAYER1
 62
     7
  6
CONTINUOUS
 10
1.0671
 20
7.3786
  0
VERTEX
  8
LAYER1
 62
     7
  6
CONTINUOUS
 10
1.0671
 20
7.3786
  0
VERTEX
  8
LAYER1
 62
     7
  6
CONTINUOUS
 10
1.0671
 20
7.3786
  0
VERTEX
  8
LAYER1
 62
     7
  6
CONTINUOUS
 10
1.0671
 20
7.3786
  0
VERTEX
  8
LAYER1
 62
     7
  6
CONTINUOUS
 10
1.0671
 20
7.3786
  0
VERTEX
  8
LAYER1
 62
     7
  6
CONTINUOUS
 10
1.0671
 20
7.3786
  0
VERTEX
  8
LAYER1
 62
     7
  6
CONTINUOUS
 10
1.0671
 20
7.3786
  0
VERTEX
  8
LAYER1
 62
     7
  6
CONTINUOUS
 10
1.0671
 20
7.3786
  0
VERTEX
  8
LAYER1
 62
     7
  6
CONTINUOUS
 10
1.0671
 20
7.3786
  0
VERTEX
  8
LAYER1
 62
     7
  6
CONTINUOUS
 10
1.0671
 20
7.3786
  0
VERTEX
  8
LAYER1
 62
     7
  6
CONTINUOUS
 10
1.0671
 20
7.3786
  0
VERTEX
  8
LAYER1
 62
     7
  6
CONTINUOUS
 10
1.0671
 20
7.3786
  0
VERTEX
  8
LAYER1
 62
     7
  6
CONTINUOUS
 10
1.0671
 20
7.3786
  0
VERTEX
  8
LAYER1
 62
     7
  6
CONTINUOUS
 10
1.0671
 20
7.3786
  0
SEQEND
  8
LAYER1
  0
POLYLINE
  8
LAYER1
 62
     7
 66
     1
  6
CONTINUOUS
  0
VERTEX
  8
LAYER1
 62
     7
  6
CONTINUOUS
 10
1.1765
 20
7.5483
  0
VERTEX
  8
LAYER1
 62
     7
  6
CONTINUOUS
 10
1.1765
 20
7.5483
  0
VERTEX
  8
LAYER1
 62
     7
  6
CONTINUOUS
 10
1.1765
 20
7.5483
  0
VERTEX
  8
LAYER1
 62
     7
  6
CONTINUOUS
 10
1.1765
 20
7.5483
  0
VERTEX
  8
LAYER1
 62
     7
  6
CONTINUOUS
 10
1.1765
 20
7.5483
  0
VERTEX
  8
LAYER1
 62
     7
  6
CONTINUOUS
 10
1.1765
 20
7.5483
  0
VERTEX
  8
LAYER1
 62
     7
  6
CONTINUOUS
 10
1.1765
 20
7.5483
  0
VERTEX
  8
LAYER1
 62
     7
  6
CONTINUOUS
 10
1.1765
 20
7.5483
  0
VERTEX
  8
LAYER1
 62
     7
  6
CONTINUOUS
 10
1.1765
 20
7.5483
  0
VERTEX
  8
LAYER1
 62
     7
  6
CONTINUOUS
 10
1.1765
 20
7.5483
  0
VERTEX
  8
LAYER1
 62
     7
  6
CONTINUOUS
 10
1.1765
 20
7.5483
  0
VERTEX
  8
LAYER1
 62
     7
  6
CONTINUOUS
 10
1.1765
 20
7.5483
  0
VERTEX
  8
LAYER1
 62
     7
  6
CONTINUOUS
 10
1.1765
 20
7.5483
  0
VERTEX
  8
LAYER1
 62
     7
  6
CONTINUOUS
 10
1.1765
 20
7.5483
  0
VERTEX
  8
LAYER1
 62
     7
  6
CONTINUOUS
 10
1.1765
 20
7.5483
  0
VERTEX
  8
LAYER1
 62
     7
  6
CONTINUOUS
 10
1.1765
 20
7.5483
  0
VERTEX
  8
LAYER1
 62
     7
  6
CONTINUOUS
 10
1.1765
 20
7.5483
  0
VERTEX
  8
LAYER1
 62
     7
  6
CONTINUOUS
 10
1.1765
 20
7.5483
  0
VERTEX
  8
LAYER1
 62
     7
  6
CONTINUOUS
 10
1.1765
 20
7.5483
  0
VERTEX
  8
LAYER1
 62
     7
  6
CONTINUOUS
 10
1.1765
 20
7.5483
  0
VERTEX
  8
LAYER1
 62
     7
  6
CONTINUOUS
 10
1.1765
 20
7.5483
  0
VERTEX
  8
LAYER1
 62
     7
  6
CONTINUOUS
 10
1.1765
 20
7.5483
  0
VERTEX
  8
LAYER1
 62
     7
  6
CONTINUOUS
 10
1.1765
 20
7.5483
  0
VERTEX
  8
LAYER1
 62
     7
  6
CONTINUOUS
 10
1.1765
 20
7.5483
  0
VERTEX
  8
LAYER1
 62
     7
  6
CONTINUOUS
 10
1.1765
 20
7.5483
  0
SEQEND
  8
LAYER1
  0
POLYLINE
  8
LAYER1
 62
     7
 66
     1
  6
CONTINUOUS
  0
VERTEX
  8
LAYER1
 62
     7
  6
CONTINUOUS
 10
1.1765
 20
7.5483
  0
VERTEX
  8
LAYER1
 62
     7
  6
CONTINUOUS
 10
1.1764
 20
7.5479
  0
VERTEX
  8
LAYER1
 62
     7
  6
CONTINUOUS
 10
1.1764
 20
7.5476
  0
VERTEX
  8
LAYER1
 62
     7
  6
CONTINUOUS
 10
1.1764
 20
7.5473
  0
VERTEX
  8
LAYER1
 62
     7
  6
CONTINUOUS
 10
1.1764
 20
7.5470
  0
VERTEX
  8
LAYER1
 62
     7
  6
CONTINUOUS
 10
1.1764
 20
7.5467
  0
VERTEX
  8
LAYER1
 62
     7
  6
CONTINUOUS
 10
1.1764
 20
7.5464
  0
VERTEX
  8
LAYER1
 62
     7
  6
CONTINUOUS
 10
1.1764
 20
7.5461
  0
VERTEX
  8
LAYER1
 62
     7
  6
CONTINUOUS
 10
1.1763
 20
7.5458
  0
VERTEX
  8
LAYER1
 62
     7
  6
CONTINUOUS
 10
1.1763
 20
7.5456
  0
VERTEX
  8
LAYER1
 62
     7
  6
CONTINUOUS
 10
1.1763
 20
7.5454
  0
VERTEX
  8
LAYER1
 62
     7
  6
CONTINUOUS
 10
1.1763
 20
7.5452
  0
VERTEX
  8
LAYER1
 62
     7
  6
CONTINUOUS
 10
1.1763
 20
7.5450
  0
VERTEX
  8
LAYER1
 62
     7
  6
CONTINUOUS
 10
1.1763
 20
7.5448
  0
VERTEX
  8
LAYER1
 62
     7
  6
CONTINUOUS
 10
1.1763
 20
7.5447
  0
VERTEX
  8
LAYER1
 62
     7
  6
CONTINUOUS
 10
1.1763
 20
7.5446
  0
VERTEX
  8
LAYER1
 62
     7
  6
CONTINUOUS
 10
1.1763
 20
7.5445
  0
VERTEX
  8
LAYER1
 62
     7
  6
CONTINUOUS
 10
1.1763
 20
7.5445
  0
VERTEX
  8
LAYER1
 62
     7
  6
CONTINUOUS
 10
1.1763
 20
7.5445
  0
VERTEX
  8
LAYER1
 62
     7
  6
CONTINUOUS
 10
1.1763
 20
7.5446
  0
VERTEX
  8
LAYER1
 62
     7
  6
CONTINUOUS
 10
1.1763
 20
7.5446
  0
VERTEX
  8
LAYER1
 62
     7
  6
CONTINUOUS
 10
1.1763
 20
7.5447
  0
VERTEX
  8
LAYER1
 62
     7
  6
CONTINUOUS
 10
1.1763
 20
7.5448
  0
VERTEX
  8
LAYER1
 62
     7
  6
CONTINUOUS
 10
1.1763
 20
7.5449
  0
VERTEX
  8
LAYER1
 62
     7
  6
CONTINUOUS
 10
1.1763
 20
7.5450
  0
SEQEND
  8
LAYER1
  0
POLYLINE
  8
LAYER1
 62
     7
 66
     1
  6
CONTINUOUS
  0
VERTEX
  8
LAYER1
 62
     7
  6
CONTINUOUS
 10
1.1765
 20
7.5483
  0
VERTEX
  8
LAYER1
 62
     7
  6
CONTINUOUS
 10
1.1765
 20
7.5483
  0
VERTEX
  8
LAYER1
 62
     7
  6
CONTINUOUS
 10
1.1765
 20
7.5483
  0
VERTEX
  8
LAYER1
 62
     7
  6
CONTINUOUS
 10
1.1765
 20
7.5483
  0
VERTEX
  8
LAYER1
 62
     7
  6
CONTINUOUS
 10
1.1765
 20
7.5483
  0
VERTEX
  8
LAYER1
 62
     7
  6
CONTINUOUS
 10
1.1765
 20
7.5483
  0
VERTEX
  8
LAYER1
 62
     7
  6
CONTINUOUS
 10
1.1765
 20
7.5483
  0
VERTEX
  8
LAYER1
 62
     7
  6
CONTINUOUS
 10
1.1765
 20
7.5483
  0
VERTEX
  8
LAYER1
 62
     7
  6
CONTINUOUS
 10
1.1765
 20
7.5483
  0
VERTEX
  8
LAYER1
 62
     7
  6
CONTINUOUS
 10
1.1765
 20
7.5483
  0
VERTEX
  8
LAYER1
 62
     7
  6
CONTINUOUS
 10
1.1765
 20
7.5483
  0
VERTEX
  8
LAYER1
 62
     7
  6
CONTINUOUS
 10
1.1765
 20
7.5483
  0
VERTEX
  8
LAYER1
 62
     7
  6
CONTINUOUS
 10
1.1765
 20
7.5483
  0
VERTEX
  8
LAYER1
 62
     7
  6
CONTINUOUS
 10
1.1765
 20
7.5483
  0
VERTEX
  8
LAYER1
 62
     7
  6
CONTINUOUS
 10
1.1765
 20
7.5483
  0
VERTEX
  8
LAYER1
 62
     7
  6
CONTINUOUS
 10
1.1765
 20
7.5483
  0
VERTEX
  8
LAYER1
 62
     7
  6
CONTINUOUS
 10
1.1765
 20
7.5483
  0
VERTEX
  8
LAYER1
 62
     7
  6
CONTINUOUS
 10
1.1765
 20
7.5483
  0
VERTEX
  8
LAYER1
 62
     7
  6
CONTINUOUS
 10
1.1765
 20
7.5483
  0
VERTEX
  8
LAYER1
 62
     7
  6
CONTINUOUS
 10
1.1765
 20
7.5483
  0
VERTEX
  8
LAYER1
 62
     7
  6
CONTINUOUS
 10
1.1765
 20
7.5483
  0
VERTEX
  8
LAYER1
 62
     7
  6
CONTINUOUS
 10
1.1765
 20
7.5483
  0
VERTEX
  8
LAYER1
 62
     7
  6
CONTINUOUS
 10
1.1765
 20
7.5483
  0
VERTEX
  8
LAYER1
 62
     7
  6
CONTINUOUS
 10
1.1765
 20
7.5483
  0
VERTEX
  8
LAYER1
 62
     7
  6
CONTINUOUS
 10
1.1765
 20
7.5483
  0
SEQEND
  8
LAYER1
  0
POLYLINE
  8
LAYER1
 62
     7
 66
     1
  6
CONTINUOUS
  0
VERTEX
  8
LAYER1
 62
     7
  6
CONTINUOUS
 10
1.1765
 20
7.5483
  0
VERTEX
  8
LAYER1
 62
     7
  6
CONTINUOUS
 10
1.1765
 20
7.5483
  0
VERTEX
  8
LAYER1
 62
     7
  6
CONTINUOUS
 10
1.1765
 20
7.5483
  0
VERTEX
  8
LAYER1
 62
     7
  6
CONTINUOUS
 10
1.1765
 20
7.5483
  0
VERTEX
  8
LAYER1
 62
     7
  6
CONTINUOUS
 10
1.1765
 20
7.5483
  0
VERTEX
  8
LAYER1
 62
     7
  6
CONTINUOUS
 10
1.1765
 20
7.5483
  0
VERTEX
  8
LAYER1
 62
     7
  6
CONTINUOUS
 10
1.1765
 20
7.5483
  0
VERTEX
  8
LAYER1
 62
     7
  6
CONTINUOUS
 10
1.1765
 20
7.5483
  0
VERTEX
  8
LAYER1
 62
     7
  6
CONTINUOUS
 10
1.1765
 20
7.5483
  0
VERTEX
  8
LAYER1
 62
     7
  6
CONTINUOUS
 10
1.1765
 20
7.5483
  0
VERTEX
  8
LAYER1
 62
     7
  6
CONTINUOUS
 10
1.1765
 20
7.5483
  0
VERTEX
  8
LAYER1
 62
     7
  6
CONTINUOUS
 10
1.1765
 20
7.5483
  0
VERTEX
  8
LAYER1
 62
     7
  6
CONTINUOUS
 10
1.1765
 20
7.5483
  0
VERTEX
  8
LAYER1
 62
     7
  6
CONTINUOUS
 10
1.1765
 20
7.5483
  0
VERTEX
  8
LAYER1
 62
     7
  6
CONTINUOUS
 10
1.1765
 20
7.5483
  0
VERTEX
  8
LAYER1
 62
     7
  6
CONTINUOUS
 10
1.1765
 20
7.5483
  0
VERTEX
  8
LAYER1
 62
     7
  6
CONTINUOUS
 10
1.1765
 20
7.5483
  0
VERTEX
  8
LAYER1
 62
     7
  6
CONTINUOUS
 10
1.1765
 20
7.5483
  0
VERTEX
  8
LAYER1
 62
     7
  6
CONTINUOUS
 10
1.1765
 20
7.5483
  0
VERTEX
  8
LAYER1
 62
     7
  6
CONTINUOUS
 10
1.1765
 20
7.5483
  0
VERTEX
  8
LAYER1
 62
     7
  6
CONTINUOUS
 10
1.1765
 20
7.5483
  0
VERTEX
  8
LAYER1
 62
     7
  6
CONTINUOUS
 10
1.1765
 20
7.5483
  0
VERTEX
  8
LAYER1
 62
     7
  6
CONTINUOUS
 10
1.1765
 20
7.5483
  0
VERTEX
  8
LAYER1
 62
     7
  6
CONTINUOUS
 10
1.1765
 20
7.5483
  0
VERTEX
  8
LAYER1
 62
     7
  6
CONTINUOUS
 10
1.1765
 20
7.5483
  0
SEQEND
  8
LAYER1
  0
ARC
  8
LAYER1
 62
     7
  6
CONTINUOUS
 10
1.7782
 20
6.5081
 40
0.0101
 50
51.9002
 51
128.1003
  0
ARC
  8
LAYER1
 62
     7
  6
CONTINUOUS
 10
1.6952
 20
6.5149
 40
0.0128
 50
4.6780
 51
30.5942
  0
ARC
  8
LAYER1
 62
     7
  6
CONTINUOUS
 10
1.6952
 20
6.5149
 40
0.0128
 50
149.4040
 51
175.3223
  0
ARC
  8
LAYER1
 62
     7
  6
CONTINUOUS
 10
1.4813
 20
6.5183
 40
0.0075
 50
-17.5392
 51
25.1189
  0
ARC
  8
LAYER1
 62
     7
  6
CONTINUOUS
 10
1.4813
 20
6.5183
 40
0.0075
 50
154.8796
 51
-162.4597
  0
POLYLINE
  8
LAYER12
 62
     5
 66
     1
  6
CONTINUOUS
  0
VERTEX
  8
LAYER12
 62
     5
  6
CONTINUOUS
 10
1.0685
 20
7.5465
  0
VERTEX
  8
LAYER12
 62
     5
  6
CONTINUOUS
 10
1.0685
 20
7.5465
  0
SEQEND
  8
LAYER12
  0
POLYLINE
  8
LAYER12
 62
     5
 66
     1
  6
CONTINUOUS
  0
VERTEX
  8
LAYER12
 62
     5
  6
CONTINUOUS
 10
1.0685
 20
6.5242
  0
VERTEX
  8
LAYER12
 62
     5
  6
CONTINUOUS
 10
1.0685
 20
7.5450
  0
SEQEND
  8
LAYER12
  0
POLYLINE
  8
LAYER12
 62
     5
 66
     1
  6
CONTINUOUS
  0
VERTEX
  8
LAYER12
 62
     5
  6
CONTINUOUS
 10
1.0685
 20
6.5235
  0
VERTEX
  8
LAYER12
 62
     5
  6
CONTINUOUS
 10
1.0685
 20
6.5235
  0
SEQEND
  8
LAYER12
  0
POLYLINE
  8
LAYER12
 62
     5
 66
     1
  6
CONTINUOUS
  0
VERTEX
  8
LAYER12
 62
     5
  6
CONTINUOUS
 10
1.0685
 20
6.5215
  0
VERTEX
  8
LAYER12
 62
     5
  6
CONTINUOUS
 10
1.0685
 20
6.5235
  0
SEQEND
  8
LAYER12
  0
POLYLINE
  8
LAYER12
 62
     5
 66
     1
  6
CONTINUOUS
  0
VERTEX
  8
LAYER12
 62
     5
  6
CONTINUOUS
 10
1.0685
 20
6.5235
  0
VERTEX
  8
LAYER12
 62
     5
  6
CONTINUOUS
 10
1.0685
 20
6.5242
  0
SEQEND
  8
LAYER12
  0
POLYLINE
  8
LAYER12
 62
     5
 66
     1
  6
CONTINUOUS
  0
VERTEX
  8
LAYER12
 62
     5
  6
CONTINUOUS
 10
2.0510
 20
7.5465
  0
VERTEX
  8
LAYER12
 62
     5
  6
CONTINUOUS
 10
2.0501
 20
7.5465
  0
SEQEND
  8
LAYER12
  0
POLYLINE
  8
LAYER12
 62
     5
 66
     1
  6
CONTINUOUS
  0
VERTEX
  8
LAYER12
 62
     5
  6
CONTINUOUS
 10
2.0501
 20
7.5465
  0
VERTEX
  8
LAYER12
 62
     5
  6
CONTINUOUS
 10
1.0685
 20
7.5465
  0
SEQEND
  8
LAYER12
  0
POLYLINE
  8
LAYER12
 62
     5
 66
     1
  6
CONTINUOUS
  0
VERTEX
  8
LAYER12
 62
     5
  6
CONTINUOUS
 10
1.0685
 20
6.5235
  0
VERTEX
  8
LAYER12
 62
     5
  6
CONTINUOUS
 10
2.0501
 20
6.5235
  0
SEQEND
  8
LAYER12
  0
POLYLINE
  8
LAYER12
 62
     5
 66
     1
  6
CONTINUOUS
  0
VERTEX
  8
LAYER12
 62
     5
  6
CONTINUOUS
 10
2.0522
 20
7.5483
  0
VERTEX
  8
LAYER12
 62
     5
  6
CONTINUOUS
 10
2.0522
 20
7.5450
  0
SEQEND
  8
LAYER12
  0
POLYLINE
  8
LAYER12
 62
     5
 66
     1
  6
CONTINUOUS
  0
VERTEX
  8
LAYER12
 62
     5
  6
CONTINUOUS
 10
2.0522
 20
7.5450
  0
VERTEX
  8
LAYER12
 62
     5
  6
CONTINUOUS
 10
2.0522
 20
6.5160
  0
SEQEND
  8
LAYER12
  0
POLYLINE
  8
LAYER12
 62
     5
 66
     1
  6
CONTINUOUS
  0
VERTEX
  8
LAYER12
 62
     5
  6
CONTINUOUS
 10
2.0556
 20
7.5465
  0
VERTEX
  8
LAYER12
 62
     5
  6
CONTINUOUS
 10
2.0510
 20
7.5465
  0
SEQEND
  8
LAYER12
  0
POLYLINE
  8
LAYER12
 62
     5
 66
     1
  6
CONTINUOUS
  0
VERTEX
  8
LAYER12
 62
     5
  6
CONTINUOUS
 10
1.0685
 20
6.5160
  0
VERTEX
  8
LAYER12
 62
     5
  6
CONTINUOUS
 10
1.0685
 20
6.5215
  0
SEQEND
  8
LAYER12
  0
POLYLINE
  8
LAYER12
 62
     5
 66
     1
  6
CONTINUOUS
  0
VERTEX
  8
LAYER12
 62
     5
  6
CONTINUOUS
 10
1.0685
 20
7.5450
  0
VERTEX
  8
LAYER12
 62
     5
  6
CONTINUOUS
 10
1.0685
 20
7.5483
  0
SEQEND
  8
LAYER12
  0
POLYLINE
  8
LAYER12
 62
     5
 66
     1
  6
CONTINUOUS
  0
VERTEX
  8
LAYER12
 62
     5
  6
CONTINUOUS
 10
2.0501
 20
6.5235
  0
VERTEX
  8
LAYER12
 62
     5
  6
CONTINUOUS
 10
2.0556
 20
6.5235
  0
SEQEND
  8
LAYER12
  0
ENDSEC
  0
EOF
