  0
SECTION
  2
HEADER
  9
$ACADVER
  1
AC1004
  9
$EXTMIN
 10
6.0657
 20
6.5231
  9
$EXTMAX
 10
7.0493
 20
7.5480
  9
$LIMMIN
 10
6.0657
 20
6.5231
  9
$LIMMAX
 10
7.0493
 20
7.5480
  9
$INSBASE
 10
0.0
 20
0.0
  9
$VIEWCTR
 10
7.21903
 20
4.5
  9
$VIEWSIZE
 40
9.0
  9
$SNAPMODE
 70
     0
  9
$SNAPUNIT
 10
1.0
 20
1.0
  9
$SNAPBASE
 10
0.0
 20
0.0
  9
$SNAPANG
 50
0.0
  9
$SNAPSTYLE
 70
     0
  9
$SNAPISOPAIR
 70
     0
  9
$GRIDMODE
 70
     0
  9
$GRIDUNIT
 10
0.0
 20
0.0
  9
$ORTHOMODE
 70
     0
  9
$REGENMODE
 70
     1
  9
$FILLMODE
 70
     1
  9
$QTEXTMODE
 70
     0
  9
$DRAGMODE
 70
     2
  9
$LTSCALE
 40
1.0
  9
$OSMODE
 70
     0
  9
$ATTMODE
 70
     1
  9
$TEXTSIZE
 40
0.2
  9
$TRACEWID
 40
0.05
  9
$TEXTSTYLE
  7
STANDARD
  9
$CLAYER
  8
0
  9
$CELTYPE
  6
BYLAYER
  9
$CECOLOR
 62
   256
  9
$DIMSCALE
 40
1.0
  9
$DIMASZ
 40
0.18
  9
$DIMEXO
 40
0.0625
  9
$DIMDLI
 40
0.38
  9
$DIMRND
 40
0.0
  9
$DIMDLE
 40
0.0
  9
$DIMEXE
 40
0.18
  9
$DIMTP
 40
0.0
  9
$DIMTM
 40
0.0
  9
$DIMTXT
 40
0.18
  9
$DIMCEN
 40
0.09
  9
$DIMTSZ
 40
0.0
  9
$DIMTOL
 70
     0
  9
$DIMLIM
 70
     0
  9
$DIMTIH
 70
     1
  9
$DIMTOH
 70
     1
  9
$DIMSE1
 70
     0
  9
$DIMSE2
 70
     0
  9
$DIMTAD
 70
     0
  9
$DIMZIN
 70
     0
  9
$DIMBLK
  1

  9
$DIMASO
 70
     1
  9
$DIMSHO
 70
     0
  9
$DIMPOST
  1

  9
$DIMAPOST
  1

  9
$DIMALT
 70
     0
  9
$DIMALTD
 70
     2
  9
$DIMALTF
 40
25.4
  9
$DIMLFAC
 40
1.0
  9
$LUNITS
 70
     2
  9
$LUPREC
 70
     4
  9
$AXISMODE
 70
     0
  9
$AXISUNIT
 10
0.0
 20
0.0
  9
$SKETCHINC
 40
0.1
  9
$FILLETRAD
 40
0.0
  9
$AUNITS
 70
     0
  9
$AUPREC
 70
     0
  9
$MENU
  1
acad
  9
$ELEVATION
 40
0.0
  9
$THICKNESS
 40
0.0
  9
$VIEWDIR
 10
0.0
 20
0.0
 30
1.0
  9
$LIMCHECK
 70
     0
  9
$BLIPMODE
 70
     1
  9
$CHAMFERA
 40
0.0
  9
$CHAMFERB
 40
0.0
  9
$FASTZOOM
 70
     1
  9
$SKPOLY
 70
     0
  9
$TDCREATE
 40
2447222.5666886573
  9
$TDUPDATE
 40
2447222.5666886573
  9
$TDINDWG
 40
0.0000000000
  9
$TDUSRTIMER
 40
0.0000000000
  9
$USRTIMER
 70
     1
  9
$ANGBASE
 50
0.0
  9
$ANGDIR
 70
     0
  9
$PDMODE
 70
     0
  9
$PDSIZE
 40
0.0
  9
$PLINEWID
 40
0.0
  9
$COORDS
 70
     0
  9
$SPLFRAME
 70
     0
  9
$SPLINESEGS
 70
     8
  9
$ATTDIA
 70
     0
  9
$ATTREQ
 70
     1
  9
$USERI1
 70
     0
  9
$USERI2
 70
     0
  9
$USERI3
 70
     0
  9
$USERI4
 70
     0
  9
$USERI5
 70
     0
  9
$USERR1
 40
0.0
  9
$USERR2
 40
0.0
  9
$USERR3
 40
0.0
  9
$USERR4
 40
0.0
  9
$USERR5
 40
0.0
  0
ENDSEC
  0
SECTION
  2
TABLES
  0
TABLE
  2
LTYPE
 70
     13
  0
LTYPE
  2
CONTINUOUS
 70
    64
  3
Solid line
 72
    65
 73
     0
 40
0.0
  0
LTYPE
  2
DASHED
 70
    64
  3
__ __ __ __ __ __ __ __ __ __ __ __ __ __ __
 72
    65
 73
     2
 40
0.75
 49
0.5
 49
-0.25
  0
LTYPE
  2
HIDDEN
 70
    64
  3
_ _ _ _ _ _ _ _ _ _ _ _ _ _ _ _ _ _ _ _ _ _ _
 72
    65
 73
     2
 40
0.375
 49
0.25
 49
-0.125
  0
LTYPE
  2
CENTER
 70
    64
  3
____ _ ____ _ ____ _ ____ _ ____ _ ____ _ ____
 72
    65
 73
     4
 40
2.0
 49
1.25
 49
-0.25
 49
0.25
 49
-0.25
  0
LTYPE
  2
PHANTOM
 70
    64
  3
_____ _ _ _____ _ _ _____ _ _ _____ _ _ ____
 72
    65
 73
     6
 40
2.5
 49
1.25
 49
-0.25
 49
0.25
 49
-0.25
 49
0.25
 49
-0.25
  0
LTYPE
  2
DOT
 70
    64
  3
...............................................
 72
    65
 73
     2
 40
0.25
 49
0.0
 49
-0.25
  0
LTYPE
  2
DASHDOT
 70
    64
  3
__ . __ . __ . __ . __ . __ . __ . __ . __ . __
 72
    65
 73
     4
 40
1.0
 49
0.5
 49
-0.25
 49
0.0
 49
-0.25
  0
LTYPE
  2
BORDER
 70
    64
  3
__ __ . __ __ . __ __ . __ __ . __ __ . __ __
 72
    65
 73
     6
 40
1.75
 49
0.5
 49
-0.25
 49
0.5
 49
-0.25
 49
0.0
 49
-0.25
  0
LTYPE
  2
DIVIDE
 70
    64
  3
__ . . __ . . __ . . __ . . __ . . __ . . __
 72
    65
 73
     6
 40
1.25
 49
0.5
 49
-0.25
 49
0.0
 49
-0.25
 49
0.0
 49
-0.25
  0
LTYPE
  2
DCTYPE1
 70
    64
  3
__ . . __ . . __ . . __ . . __ . . __ . . __
 72
    65
 73
     8
 40
2.5
 49
0.5
 49
-0.25
 49
0.125
 49
-0.25
 49
0.25
 49
-0.25
 49
0.125
 49
-0.25
  0
LTYPE
  2
DCTYPE2
 70
    64
  3
__ . . __ . . __ . . __ . . __ . . __ . . __
 72
    65
 73
     6
 40
2.05
 49
1.0
 49
-0.3
 49
0.15
 49
-0.15
 49
0.15
 49
-0.3
  0
LTYPE
  2
DCTYPE3
 70
    64
  3
__ . . __ . . __ . . __ . . __ . . __ . . __
 72
    65
 73
     6
 40
2.5
 49
0.8
 49
-0.2
 49
0.8
 49
-0.2
 49
0.3
 49
-0.2
  0
LTYPE
  2
DCTYPE4
 70
    64
  3
__ . . __ . . __ . . __ . . __ . . __ . . __
 72
    65
 73
     10
 40
3.97
 49
1.75
 49
-0.3
 49
0.3
 49
-0.3
 49
0.06
 49
-0.3
 49
0.06
 49
-0.3
 49
0.3
 49
-0.3
  0
ENDTAB
  0
TABLE
  2
LAYER
 70
    153
  0
LAYER
  2
LAYER1
 70
 64
 62
     7
  6
CONTINUOUS
  0
LAYER
  2
LAYER12
 70
 64
 62
     5
  6
CONTINUOUS
  0
ENDTAB
  0
ENDSEC
  0
SECTION
  2
BLOCKS
  0
ENDSEC
  0
SECTION
  2
ENTITIES
  0
CIRCLE
  8
LAYER1
 62
     7
  6
CONTINUOUS
 10
6.0937
 20
7.0521
 40
0.0075
  0
CIRCLE
  8
LAYER1
 62
     7
  6
CONTINUOUS
 10
6.1079
 20
7.3360
 40
0.0127
  0
CIRCLE
  8
LAYER1
 62
     7
  6
CONTINUOUS
 10
6.0814
 20
7.4900
 40
0.0079
  0
CIRCLE
  8
LAYER1
 62
     7
  6
CONTINUOUS
 10
6.1015
 20
7.4654
 40
0.0106
  0
CIRCLE
  8
LAYER1
 62
     7
  6
CONTINUOUS
 10
6.1886
 20
7.4713
 40
0.0125
  0
CIRCLE
  8
LAYER1
 62
     7
  6
CONTINUOUS
 10
6.2428
 20
7.5217
 40
0.0174
  0
CIRCLE
  8
LAYER1
 62
     7
  6
CONTINUOUS
 10
6.2515
 20
7.4122
 40
0.0079
  0
CIRCLE
  8
LAYER1
 62
     7
  6
CONTINUOUS
 10
6.2502
 20
7.3052
 40
0.0070
  0
CIRCLE
  8
LAYER1
 62
     7
  6
CONTINUOUS
 10
6.2978
 20
7.2709
 40
0.0056
  0
CIRCLE
  8
LAYER1
 62
     7
  6
CONTINUOUS
 10
6.2189
 20
7.2078
 40
0.0176
  0
POLYLINE
  8
LAYER1
 62
     7
 66
     1
  6
CONTINUOUS
  0
VERTEX
  8
LAYER1
 62
     7
  6
CONTINUOUS
 10
6.8916
 20
7.3720
  0
VERTEX
  8
LAYER1
 62
     7
  6
CONTINUOUS
 10
6.8926
 20
7.3704
  0
VERTEX
  8
LAYER1
 62
     7
  6
CONTINUOUS
 10
6.8935
 20
7.3688
  0
VERTEX
  8
LAYER1
 62
     7
  6
CONTINUOUS
 10
6.8945
 20
7.3672
  0
VERTEX
  8
LAYER1
 62
     7
  6
CONTINUOUS
 10
6.8954
 20
7.3656
  0
VERTEX
  8
LAYER1
 62
     7
  6
CONTINUOUS
 10
6.8963
 20
7.3640
  0
VERTEX
  8
LAYER1
 62
     7
  6
CONTINUOUS
 10
6.8972
 20
7.3623
  0
VERTEX
  8
LAYER1
 62
     7
  6
CONTINUOUS
 10
6.8980
 20
7.3607
  0
VERTEX
  8
LAYER1
 62
     7
  6
CONTINUOUS
 10
6.8989
 20
7.3590
  0
VERTEX
  8
LAYER1
 62
     7
  6
CONTINUOUS
 10
6.8997
 20
7.3574
  0
VERTEX
  8
LAYER1
 62
     7
  6
CONTINUOUS
 10
6.9004
 20
7.3557
  0
VERTEX
  8
LAYER1
 62
     7
  6
CONTINUOUS
 10
6.9011
 20
7.3539
  0
VERTEX
  8
LAYER1
 62
     7
  6
CONTINUOUS
 10
6.9018
 20
7.3522
  0
VERTEX
  8
LAYER1
 62
     7
  6
CONTINUOUS
 10
6.9028
 20
7.3493
  0
VERTEX
  8
LAYER1
 62
     7
  6
CONTINUOUS
 10
6.9037
 20
7.3464
  0
VERTEX
  8
LAYER1
 62
     7
  6
CONTINUOUS
 10
6.9045
 20
7.3434
  0
VERTEX
  8
LAYER1
 62
     7
  6
CONTINUOUS
 10
6.9052
 20
7.3404
  0
VERTEX
  8
LAYER1
 62
     7
  6
CONTINUOUS
 10
6.9059
 20
7.3374
  0
VERTEX
  8
LAYER1
 62
     7
  6
CONTINUOUS
 10
6.9066
 20
7.3345
  0
VERTEX
  8
LAYER1
 62
     7
  6
CONTINUOUS
 10
6.9073
 20
7.3315
  0
VERTEX
  8
LAYER1
 62
     7
  6
CONTINUOUS
 10
6.9081
 20
7.3285
  0
VERTEX
  8
LAYER1
 62
     7
  6
CONTINUOUS
 10
6.9089
 20
7.3257
  0
VERTEX
  8
LAYER1
 62
     7
  6
CONTINUOUS
 10
6.9099
 20
7.3228
  0
VERTEX
  8
LAYER1
 62
     7
  6
CONTINUOUS
 10
6.9109
 20
7.3201
  0
VERTEX
  8
LAYER1
 62
     7
  6
CONTINUOUS
 10
6.9121
 20
7.3175
  0
VERTEX
  8
LAYER1
 62
     7
  6
CONTINUOUS
 10
6.9126
 20
7.3167
  0
VERTEX
  8
LAYER1
 62
     7
  6
CONTINUOUS
 10
6.9130
 20
7.3159
  0
VERTEX
  8
LAYER1
 62
     7
  6
CONTINUOUS
 10
6.9134
 20
7.3151
  0
VERTEX
  8
LAYER1
 62
     7
  6
CONTINUOUS
 10
6.9138
 20
7.3143
  0
VERTEX
  8
LAYER1
 62
     7
  6
CONTINUOUS
 10
6.9143
 20
7.3135
  0
VERTEX
  8
LAYER1
 62
     7
  6
CONTINUOUS
 10
6.9147
 20
7.3127
  0
VERTEX
  8
LAYER1
 62
     7
  6
CONTINUOUS
 10
6.9152
 20
7.3119
  0
VERTEX
  8
LAYER1
 62
     7
  6
CONTINUOUS
 10
6.9156
 20
7.3111
  0
VERTEX
  8
LAYER1
 62
     7
  6
CONTINUOUS
 10
6.9160
 20
7.3103
  0
VERTEX
  8
LAYER1
 62
     7
  6
CONTINUOUS
 10
6.9164
 20
7.3094
  0
VERTEX
  8
LAYER1
 62
     7
  6
CONTINUOUS
 10
6.9168
 20
7.3085
  0
VERTEX
  8
LAYER1
 62
     7
  6
CONTINUOUS
 10
6.9172
 20
7.3076
  0
VERTEX
  8
LAYER1
 62
     7
  6
CONTINUOUS
 10
6.9186
 20
7.3035
  0
VERTEX
  8
LAYER1
 62
     7
  6
CONTINUOUS
 10
6.9197
 20
7.2990
  0
VERTEX
  8
LAYER1
 62
     7
  6
CONTINUOUS
 10
6.9206
 20
7.2942
  0
VERTEX
  8
LAYER1
 62
     7
  6
CONTINUOUS
 10
6.9213
 20
7.2892
  0
VERTEX
  8
LAYER1
 62
     7
  6
CONTINUOUS
 10
6.9217
 20
7.2843
  0
VERTEX
  8
LAYER1
 62
     7
  6
CONTINUOUS
 10
6.9220
 20
7.2796
  0
VERTEX
  8
LAYER1
 62
     7
  6
CONTINUOUS
 10
6.9223
 20
7.2751
  0
VERTEX
  8
LAYER1
 62
     7
  6
CONTINUOUS
 10
6.9224
 20
7.2712
  0
VERTEX
  8
LAYER1
 62
     7
  6
CONTINUOUS
 10
6.9225
 20
7.2678
  0
VERTEX
  8
LAYER1
 62
     7
  6
CONTINUOUS
 10
6.9225
 20
7.2652
  0
VERTEX
  8
LAYER1
 62
     7
  6
CONTINUOUS
 10
6.9226
 20
7.2635
  0
VERTEX
  8
LAYER1
 62
     7
  6
CONTINUOUS
 10
6.9227
 20
7.2628
  0
VERTEX
  8
LAYER1
 62
     7
  6
CONTINUOUS
 10
6.9227
 20
7.2628
  0
VERTEX
  8
LAYER1
 62
     7
  6
CONTINUOUS
 10
6.9227
 20
7.2628
  0
VERTEX
  8
LAYER1
 62
     7
  6
CONTINUOUS
 10
6.9228
 20
7.2628
  0
VERTEX
  8
LAYER1
 62
     7
  6
CONTINUOUS
 10
6.9228
 20
7.2629
  0
VERTEX
  8
LAYER1
 62
     7
  6
CONTINUOUS
 10
6.9228
 20
7.2629
  0
VERTEX
  8
LAYER1
 62
     7
  6
CONTINUOUS
 10
6.9228
 20
7.2629
  0
VERTEX
  8
LAYER1
 62
     7
  6
CONTINUOUS
 10
6.9228
 20
7.2629
  0
VERTEX
  8
LAYER1
 62
     7
  6
CONTINUOUS
 10
6.9228
 20
7.2629
  0
VERTEX
  8
LAYER1
 62
     7
  6
CONTINUOUS
 10
6.9228
 20
7.2629
  0
VERTEX
  8
LAYER1
 62
     7
  6
CONTINUOUS
 10
6.9228
 20
7.2629
  0
VERTEX
  8
LAYER1
 62
     7
  6
CONTINUOUS
 10
6.9227
 20
7.2629
  0
VERTEX
  8
LAYER1
 62
     7
  6
CONTINUOUS
 10
6.9227
 20
7.2628
  0
VERTEX
  8
LAYER1
 62
     7
  6
CONTINUOUS
 10
6.9225
 20
7.2624
  0
VERTEX
  8
LAYER1
 62
     7
  6
CONTINUOUS
 10
6.9221
 20
7.2618
  0
VERTEX
  8
LAYER1
 62
     7
  6
CONTINUOUS
 10
6.9216
 20
7.2609
  0
VERTEX
  8
LAYER1
 62
     7
  6
CONTINUOUS
 10
6.9210
 20
7.2598
  0
VERTEX
  8
LAYER1
 62
     7
  6
CONTINUOUS
 10
6.9203
 20
7.2585
  0
VERTEX
  8
LAYER1
 62
     7
  6
CONTINUOUS
 10
6.9194
 20
7.2570
  0
VERTEX
  8
LAYER1
 62
     7
  6
CONTINUOUS
 10
6.9185
 20
7.2555
  0
VERTEX
  8
LAYER1
 62
     7
  6
CONTINUOUS
 10
6.9175
 20
7.2539
  0
VERTEX
  8
LAYER1
 62
     7
  6
CONTINUOUS
 10
6.9164
 20
7.2523
  0
VERTEX
  8
LAYER1
 62
     7
  6
CONTINUOUS
 10
6.9153
 20
7.2508
  0
VERTEX
  8
LAYER1
 62
     7
  6
CONTINUOUS
 10
6.9141
 20
7.2492
  0
VERTEX
  8
LAYER1
 62
     7
  6
CONTINUOUS
 10
6.9129
 20
7.2478
  0
VERTEX
  8
LAYER1
 62
     7
  6
CONTINUOUS
 10
6.9104
 20
7.2453
  0
VERTEX
  8
LAYER1
 62
     7
  6
CONTINUOUS
 10
6.9078
 20
7.2432
  0
VERTEX
  8
LAYER1
 62
     7
  6
CONTINUOUS
 10
6.9050
 20
7.2416
  0
VERTEX
  8
LAYER1
 62
     7
  6
CONTINUOUS
 10
6.9022
 20
7.2403
  0
VERTEX
  8
LAYER1
 62
     7
  6
CONTINUOUS
 10
6.8994
 20
7.2394
  0
VERTEX
  8
LAYER1
 62
     7
  6
CONTINUOUS
 10
6.8965
 20
7.2387
  0
VERTEX
  8
LAYER1
 62
     7
  6
CONTINUOUS
 10
6.8935
 20
7.2382
  0
VERTEX
  8
LAYER1
 62
     7
  6
CONTINUOUS
 10
6.8905
 20
7.2379
  0
VERTEX
  8
LAYER1
 62
     7
  6
CONTINUOUS
 10
6.8874
 20
7.2378
  0
VERTEX
  8
LAYER1
 62
     7
  6
CONTINUOUS
 10
6.8844
 20
7.2377
  0
VERTEX
  8
LAYER1
 62
     7
  6
CONTINUOUS
 10
6.8813
 20
7.2376
  0
VERTEX
  8
LAYER1
 62
     7
  6
CONTINUOUS
 10
6.8782
 20
7.2374
  0
VERTEX
  8
LAYER1
 62
     7
  6
CONTINUOUS
 10
6.8748
 20
7.2372
  0
VERTEX
  8
LAYER1
 62
     7
  6
CONTINUOUS
 10
6.8714
 20
7.2369
  0
VERTEX
  8
LAYER1
 62
     7
  6
CONTINUOUS
 10
6.8680
 20
7.2366
  0
VERTEX
  8
LAYER1
 62
     7
  6
CONTINUOUS
 10
6.8647
 20
7.2362
  0
VERTEX
  8
LAYER1
 62
     7
  6
CONTINUOUS
 10
6.8613
 20
7.2359
  0
VERTEX
  8
LAYER1
 62
     7
  6
CONTINUOUS
 10
6.8580
 20
7.2356
  0
VERTEX
  8
LAYER1
 62
     7
  6
CONTINUOUS
 10
6.8546
 20
7.2354
  0
VERTEX
  8
LAYER1
 62
     7
  6
CONTINUOUS
 10
6.8513
 20
7.2354
  0
VERTEX
  8
LAYER1
 62
     7
  6
CONTINUOUS
 10
6.8481
 20
7.2355
  0
VERTEX
  8
LAYER1
 62
     7
  6
CONTINUOUS
 10
6.8448
 20
7.2358
  0
VERTEX
  8
LAYER1
 62
     7
  6
CONTINUOUS
 10
6.8416
 20
7.2363
  0
VERTEX
  8
LAYER1
 62
     7
  6
CONTINUOUS
 10
6.8384
 20
7.2370
  0
VERTEX
  8
LAYER1
 62
     7
  6
CONTINUOUS
 10
6.8375
 20
7.2373
  0
VERTEX
  8
LAYER1
 62
     7
  6
CONTINUOUS
 10
6.8366
 20
7.2376
  0
VERTEX
  8
LAYER1
 62
     7
  6
CONTINUOUS
 10
6.8357
 20
7.2379
  0
VERTEX
  8
LAYER1
 62
     7
  6
CONTINUOUS
 10
6.8348
 20
7.2382
  0
VERTEX
  8
LAYER1
 62
     7
  6
CONTINUOUS
 10
6.8340
 20
7.2386
  0
VERTEX
  8
LAYER1
 62
     7
  6
CONTINUOUS
 10
6.8331
 20
7.2390
  0
VERTEX
  8
LAYER1
 62
     7
  6
CONTINUOUS
 10
6.8323
 20
7.2394
  0
VERTEX
  8
LAYER1
 62
     7
  6
CONTINUOUS
 10
6.8315
 20
7.2398
  0
VERTEX
  8
LAYER1
 62
     7
  6
CONTINUOUS
 10
6.8306
 20
7.2403
  0
VERTEX
  8
LAYER1
 62
     7
  6
CONTINUOUS
 10
6.8299
 20
7.2408
  0
VERTEX
  8
LAYER1
 62
     7
  6
CONTINUOUS
 10
6.8291
 20
7.2413
  0
VERTEX
  8
LAYER1
 62
     7
  6
CONTINUOUS
 10
6.8284
 20
7.2419
  0
VERTEX
  8
LAYER1
 62
     7
  6
CONTINUOUS
 10
6.8267
 20
7.2434
  0
VERTEX
  8
LAYER1
 62
     7
  6
CONTINUOUS
 10
6.8251
 20
7.2450
  0
VERTEX
  8
LAYER1
 62
     7
  6
CONTINUOUS
 10
6.8237
 20
7.2468
  0
VERTEX
  8
LAYER1
 62
     7
  6
CONTINUOUS
 10
6.8224
 20
7.2488
  0
VERTEX
  8
LAYER1
 62
     7
  6
CONTINUOUS
 10
6.8213
 20
7.2508
  0
VERTEX
  8
LAYER1
 62
     7
  6
CONTINUOUS
 10
6.8204
 20
7.2529
  0
VERTEX
  8
LAYER1
 62
     7
  6
CONTINUOUS
 10
6.8196
 20
7.2552
  0
VERTEX
  8
LAYER1
 62
     7
  6
CONTINUOUS
 10
6.8190
 20
7.2574
  0
VERTEX
  8
LAYER1
 62
     7
  6
CONTINUOUS
 10
6.8185
 20
7.2597
  0
VERTEX
  8
LAYER1
 62
     7
  6
CONTINUOUS
 10
6.8182
 20
7.2621
  0
VERTEX
  8
LAYER1
 62
     7
  6
CONTINUOUS
 10
6.8181
 20
7.2644
  0
VERTEX
  8
LAYER1
 62
     7
  6
CONTINUOUS
 10
6.8181
 20
7.2667
  0
VERTEX
  8
LAYER1
 62
     7
  6
CONTINUOUS
 10
6.8183
 20
7.2684
  0
VERTEX
  8
LAYER1
 62
     7
  6
CONTINUOUS
 10
6.8185
 20
7.2701
  0
VERTEX
  8
LAYER1
 62
     7
  6
CONTINUOUS
 10
6.8188
 20
7.2718
  0
VERTEX
  8
LAYER1
 62
     7
  6
CONTINUOUS
 10
6.8192
 20
7.2735
  0
VERTEX
  8
LAYER1
 62
     7
  6
CONTINUOUS
 10
6.8196
 20
7.2751
  0
VERTEX
  8
LAYER1
 62
     7
  6
CONTINUOUS
 10
6.8201
 20
7.2768
  0
VERTEX
  8
LAYER1
 62
     7
  6
CONTINUOUS
 10
6.8205
 20
7.2784
  0
VERTEX
  8
LAYER1
 62
     7
  6
CONTINUOUS
 10
6.8210
 20
7.2801
  0
VERTEX
  8
LAYER1
 62
     7
  6
CONTINUOUS
 10
6.8215
 20
7.2817
  0
VERTEX
  8
LAYER1
 62
     7
  6
CONTINUOUS
 10
6.8220
 20
7.2833
  0
VERTEX
  8
LAYER1
 62
     7
  6
CONTINUOUS
 10
6.8225
 20
7.2850
  0
VERTEX
  8
LAYER1
 62
     7
  6
CONTINUOUS
 10
6.8229
 20
7.2866
  0
VERTEX
  8
LAYER1
 62
     7
  6
CONTINUOUS
 10
6.8233
 20
7.2886
  0
VERTEX
  8
LAYER1
 62
     7
  6
CONTINUOUS
 10
6.8236
 20
7.2907
  0
VERTEX
  8
LAYER1
 62
     7
  6
CONTINUOUS
 10
6.8239
 20
7.2927
  0
VERTEX
  8
LAYER1
 62
     7
  6
CONTINUOUS
 10
6.8241
 20
7.2948
  0
VERTEX
  8
LAYER1
 62
     7
  6
CONTINUOUS
 10
6.8242
 20
7.2968
  0
VERTEX
  8
LAYER1
 62
     7
  6
CONTINUOUS
 10
6.8242
 20
7.2989
  0
VERTEX
  8
LAYER1
 62
     7
  6
CONTINUOUS
 10
6.8242
 20
7.3010
  0
VERTEX
  8
LAYER1
 62
     7
  6
CONTINUOUS
 10
6.8240
 20
7.3031
  0
VERTEX
  8
LAYER1
 62
     7
  6
CONTINUOUS
 10
6.8238
 20
7.3052
  0
VERTEX
  8
LAYER1
 62
     7
  6
CONTINUOUS
 10
6.8235
 20
7.3073
  0
VERTEX
  8
LAYER1
 62
     7
  6
CONTINUOUS
 10
6.8231
 20
7.3094
  0
VERTEX
  8
LAYER1
 62
     7
  6
CONTINUOUS
 10
6.8226
 20
7.3115
  0
VERTEX
  8
LAYER1
 62
     7
  6
CONTINUOUS
 10
6.8218
 20
7.3145
  0
VERTEX
  8
LAYER1
 62
     7
  6
CONTINUOUS
 10
6.8208
 20
7.3175
  0
VERTEX
  8
LAYER1
 62
     7
  6
CONTINUOUS
 10
6.8198
 20
7.3205
  0
VERTEX
  8
LAYER1
 62
     7
  6
CONTINUOUS
 10
6.8188
 20
7.3235
  0
VERTEX
  8
LAYER1
 62
     7
  6
CONTINUOUS
 10
6.8179
 20
7.3265
  0
VERTEX
  8
LAYER1
 62
     7
  6
CONTINUOUS
 10
6.8170
 20
7.3294
  0
VERTEX
  8
LAYER1
 62
     7
  6
CONTINUOUS
 10
6.8163
 20
7.3323
  0
VERTEX
  8
LAYER1
 62
     7
  6
CONTINUOUS
 10
6.8159
 20
7.3352
  0
VERTEX
  8
LAYER1
 62
     7
  6
CONTINUOUS
 10
6.8157
 20
7.3381
  0
VERTEX
  8
LAYER1
 62
     7
  6
CONTINUOUS
 10
6.8158
 20
7.3409
  0
VERTEX
  8
LAYER1
 62
     7
  6
CONTINUOUS
 10
6.8163
 20
7.3436
  0
VERTEX
  8
LAYER1
 62
     7
  6
CONTINUOUS
 10
6.8172
 20
7.3463
  0
VERTEX
  8
LAYER1
 62
     7
  6
CONTINUOUS
 10
6.8176
 20
7.3471
  0
VERTEX
  8
LAYER1
 62
     7
  6
CONTINUOUS
 10
6.8181
 20
7.3480
  0
VERTEX
  8
LAYER1
 62
     7
  6
CONTINUOUS
 10
6.8185
 20
7.3488
  0
VERTEX
  8
LAYER1
 62
     7
  6
CONTINUOUS
 10
6.8190
 20
7.3496
  0
VERTEX
  8
LAYER1
 62
     7
  6
CONTINUOUS
 10
6.8195
 20
7.3504
  0
VERTEX
  8
LAYER1
 62
     7
  6
CONTINUOUS
 10
6.8200
 20
7.3513
  0
VERTEX
  8
LAYER1
 62
     7
  6
CONTINUOUS
 10
6.8204
 20
7.3521
  0
VERTEX
  8
LAYER1
 62
     7
  6
CONTINUOUS
 10
6.8209
 20
7.3529
  0
VERTEX
  8
LAYER1
 62
     7
  6
CONTINUOUS
 10
6.8213
 20
7.3538
  0
VERTEX
  8
LAYER1
 62
     7
  6
CONTINUOUS
 10
6.8216
 20
7.3546
  0
VERTEX
  8
LAYER1
 62
     7
  6
CONTINUOUS
 10
6.8219
 20
7.3554
  0
VERTEX
  8
LAYER1
 62
     7
  6
CONTINUOUS
 10
6.8221
 20
7.3563
  0
VERTEX
  8
LAYER1
 62
     7
  6
CONTINUOUS
 10
6.8222
 20
7.3571
  0
VERTEX
  8
LAYER1
 62
     7
  6
CONTINUOUS
 10
6.8223
 20
7.3579
  0
VERTEX
  8
LAYER1
 62
     7
  6
CONTINUOUS
 10
6.8223
 20
7.3587
  0
VERTEX
  8
LAYER1
 62
     7
  6
CONTINUOUS
 10
6.8223
 20
7.3595
  0
VERTEX
  8
LAYER1
 62
     7
  6
CONTINUOUS
 10
6.8223
 20
7.3603
  0
VERTEX
  8
LAYER1
 62
     7
  6
CONTINUOUS
 10
6.8222
 20
7.3611
  0
VERTEX
  8
LAYER1
 62
     7
  6
CONTINUOUS
 10
6.8221
 20
7.3619
  0
VERTEX
  8
LAYER1
 62
     7
  6
CONTINUOUS
 10
6.8220
 20
7.3628
  0
VERTEX
  8
LAYER1
 62
     7
  6
CONTINUOUS
 10
6.8220
 20
7.3636
  0
VERTEX
  8
LAYER1
 62
     7
  6
CONTINUOUS
 10
6.8220
 20
7.3645
  0
VERTEX
  8
LAYER1
 62
     7
  6
CONTINUOUS
 10
6.8220
 20
7.3654
  0
VERTEX
  8
LAYER1
 62
     7
  6
CONTINUOUS
 10
6.8220
 20
7.3663
  0
VERTEX
  8
LAYER1
 62
     7
  6
CONTINUOUS
 10
6.8221
 20
7.3673
  0
VERTEX
  8
LAYER1
 62
     7
  6
CONTINUOUS
 10
6.8223
 20
7.3683
  0
VERTEX
  8
LAYER1
 62
     7
  6
CONTINUOUS
 10
6.8225
 20
7.3693
  0
VERTEX
  8
LAYER1
 62
     7
  6
CONTINUOUS
 10
6.8228
 20
7.3703
  0
VERTEX
  8
LAYER1
 62
     7
  6
CONTINUOUS
 10
6.8231
 20
7.3712
  0
VERTEX
  8
LAYER1
 62
     7
  6
CONTINUOUS
 10
6.8235
 20
7.3721
  0
VERTEX
  8
LAYER1
 62
     7
  6
CONTINUOUS
 10
6.8240
 20
7.3730
  0
VERTEX
  8
LAYER1
 62
     7
  6
CONTINUOUS
 10
6.8245
 20
7.3738
  0
VERTEX
  8
LAYER1
 62
     7
  6
CONTINUOUS
 10
6.8250
 20
7.3746
  0
VERTEX
  8
LAYER1
 62
     7
  6
CONTINUOUS
 10
6.8256
 20
7.3752
  0
VERTEX
  8
LAYER1
 62
     7
  6
CONTINUOUS
 10
6.8262
 20
7.3758
  0
VERTEX
  8
LAYER1
 62
     7
  6
CONTINUOUS
 10
6.8269
 20
7.3763
  0
VERTEX
  8
LAYER1
 62
     7
  6
CONTINUOUS
 10
6.8282
 20
7.3769
  0
VERTEX
  8
LAYER1
 62
     7
  6
CONTINUOUS
 10
6.8296
 20
7.3771
  0
VERTEX
  8
LAYER1
 62
     7
  6
CONTINUOUS
 10
6.8312
 20
7.3771
  0
VERTEX
  8
LAYER1
 62
     7
  6
CONTINUOUS
 10
6.8328
 20
7.3768
  0
VERTEX
  8
LAYER1
 62
     7
  6
CONTINUOUS
 10
6.8345
 20
7.3763
  0
VERTEX
  8
LAYER1
 62
     7
  6
CONTINUOUS
 10
6.8362
 20
7.3757
  0
VERTEX
  8
LAYER1
 62
     7
  6
CONTINUOUS
 10
6.8380
 20
7.3750
  0
VERTEX
  8
LAYER1
 62
     7
  6
CONTINUOUS
 10
6.8398
 20
7.3742
  0
VERTEX
  8
LAYER1
 62
     7
  6
CONTINUOUS
 10
6.8416
 20
7.3735
  0
VERTEX
  8
LAYER1
 62
     7
  6
CONTINUOUS
 10
6.8434
 20
7.3727
  0
VERTEX
  8
LAYER1
 62
     7
  6
CONTINUOUS
 10
6.8451
 20
7.3721
  0
VERTEX
  8
LAYER1
 62
     7
  6
CONTINUOUS
 10
6.8468
 20
7.3715
  0
VERTEX
  8
LAYER1
 62
     7
  6
CONTINUOUS
 10
6.8476
 20
7.3713
  0
VERTEX
  8
LAYER1
 62
     7
  6
CONTINUOUS
 10
6.8485
 20
7.3712
  0
VERTEX
  8
LAYER1
 62
     7
  6
CONTINUOUS
 10
6.8492
 20
7.3710
  0
VERTEX
  8
LAYER1
 62
     7
  6
CONTINUOUS
 10
6.8500
 20
7.3710
  0
VERTEX
  8
LAYER1
 62
     7
  6
CONTINUOUS
 10
6.8508
 20
7.3709
  0
VERTEX
  8
LAYER1
 62
     7
  6
CONTINUOUS
 10
6.8516
 20
7.3709
  0
VERTEX
  8
LAYER1
 62
     7
  6
CONTINUOUS
 10
6.8525
 20
7.3710
  0
VERTEX
  8
LAYER1
 62
     7
  6
CONTINUOUS
 10
6.8533
 20
7.3710
  0
VERTEX
  8
LAYER1
 62
     7
  6
CONTINUOUS
 10
6.8541
 20
7.3711
  0
VERTEX
  8
LAYER1
 62
     7
  6
CONTINUOUS
 10
6.8550
 20
7.3713
  0
VERTEX
  8
LAYER1
 62
     7
  6
CONTINUOUS
 10
6.8559
 20
7.3714
  0
VERTEX
  8
LAYER1
 62
     7
  6
CONTINUOUS
 10
6.8568
 20
7.3716
  0
VERTEX
  8
LAYER1
 62
     7
  6
CONTINUOUS
 10
6.8583
 20
7.3720
  0
VERTEX
  8
LAYER1
 62
     7
  6
CONTINUOUS
 10
6.8598
 20
7.3725
  0
VERTEX
  8
LAYER1
 62
     7
  6
CONTINUOUS
 10
6.8614
 20
7.3729
  0
VERTEX
  8
LAYER1
 62
     7
  6
CONTINUOUS
 10
6.8630
 20
7.3735
  0
VERTEX
  8
LAYER1
 62
     7
  6
CONTINUOUS
 10
6.8645
 20
7.3740
  0
VERTEX
  8
LAYER1
 62
     7
  6
CONTINUOUS
 10
6.8660
 20
7.3745
  0
VERTEX
  8
LAYER1
 62
     7
  6
CONTINUOUS
 10
6.8673
 20
7.3750
  0
VERTEX
  8
LAYER1
 62
     7
  6
CONTINUOUS
 10
6.8686
 20
7.3755
  0
VERTEX
  8
LAYER1
 62
     7
  6
CONTINUOUS
 10
6.8696
 20
7.3759
  0
VERTEX
  8
LAYER1
 62
     7
  6
CONTINUOUS
 10
6.8705
 20
7.3763
  0
VERTEX
  8
LAYER1
 62
     7
  6
CONTINUOUS
 10
6.8712
 20
7.3766
  0
VERTEX
  8
LAYER1
 62
     7
  6
CONTINUOUS
 10
6.8717
 20
7.3768
  0
VERTEX
  8
LAYER1
 62
     7
  6
CONTINUOUS
 10
6.8717
 20
7.3768
  0
VERTEX
  8
LAYER1
 62
     7
  6
CONTINUOUS
 10
6.8718
 20
7.3768
  0
VERTEX
  8
LAYER1
 62
     7
  6
CONTINUOUS
 10
6.8718
 20
7.3768
  0
VERTEX
  8
LAYER1
 62
     7
  6
CONTINUOUS
 10
6.8719
 20
7.3768
  0
VERTEX
  8
LAYER1
 62
     7
  6
CONTINUOUS
 10
6.8719
 20
7.3769
  0
VERTEX
  8
LAYER1
 62
     7
  6
CONTINUOUS
 10
6.8719
 20
7.3769
  0
VERTEX
  8
LAYER1
 62
     7
  6
CONTINUOUS
 10
6.8718
 20
7.3768
  0
VERTEX
  8
LAYER1
 62
     7
  6
CONTINUOUS
 10
6.8718
 20
7.3768
  0
VERTEX
  8
LAYER1
 62
     7
  6
CONTINUOUS
 10
6.8718
 20
7.3768
  0
VERTEX
  8
LAYER1
 62
     7
  6
CONTINUOUS
 10
6.8718
 20
7.3768
  0
VERTEX
  8
LAYER1
 62
     7
  6
CONTINUOUS
 10
6.8717
 20
7.3768
  0
VERTEX
  8
LAYER1
 62
     7
  6
CONTINUOUS
 10
6.8717
 20
7.3768
  0
SEQEND
  8
LAYER1
  0
POLYLINE
  8
LAYER1
 62
     7
 66
     1
  6
CONTINUOUS
  0
VERTEX
  8
LAYER1
 62
     7
  6
CONTINUOUS
 10
6.8717
 20
7.3768
  0
VERTEX
  8
LAYER1
 62
     7
  6
CONTINUOUS
 10
6.8916
 20
7.3720
  0
SEQEND
  8
LAYER1
  0
CIRCLE
  8
LAYER1
 62
     7
  6
CONTINUOUS
 10
6.8827
 20
7.5063
 40
0.0201
  0
CIRCLE
  8
LAYER1
 62
     7
  6
CONTINUOUS
 10
6.4294
 20
7.5312
 40
0.0103
  0
CIRCLE
  8
LAYER1
 62
     7
  6
CONTINUOUS
 10
6.3703
 20
7.4758
 40
0.0349
  0
CIRCLE
  8
LAYER1
 62
     7
  6
CONTINUOUS
 10
6.4225
 20
7.4789
 40
0.0090
  0
CIRCLE
  8
LAYER1
 62
     7
  6
CONTINUOUS
 10
6.4155
 20
7.4340
 40
0.0127
  0
CIRCLE
  8
LAYER1
 62
     7
  6
CONTINUOUS
 10
6.3438
 20
7.3934
 40
0.0134
  0
CIRCLE
  8
LAYER1
 62
     7
  6
CONTINUOUS
 10
6.4439
 20
7.3447
 40
0.0274
  0
CIRCLE
  8
LAYER1
 62
     7
  6
CONTINUOUS
 10
6.3651
 20
7.2691
 40
0.0090
  0
CIRCLE
  8
LAYER1
 62
     7
  6
CONTINUOUS
 10
6.4148
 20
7.2772
 40
0.0100
  0
CIRCLE
  8
LAYER1
 62
     7
  6
CONTINUOUS
 10
6.4150
 20
7.2547
 40
0.0125
  0
CIRCLE
  8
LAYER1
 62
     7
  6
CONTINUOUS
 10
6.4079
 20
7.2223
 40
0.0103
  0
CIRCLE
  8
LAYER1
 62
     7
  6
CONTINUOUS
 10
6.3686
 20
7.1771
 40
0.0124
  0
CIRCLE
  8
LAYER1
 62
     7
  6
CONTINUOUS
 10
6.3837
 20
7.1598
 40
0.0106
  0
CIRCLE
  8
LAYER1
 62
     7
  6
CONTINUOUS
 10
6.4141
 20
7.1129
 40
0.0213
  0
CIRCLE
  8
LAYER1
 62
     7
  6
CONTINUOUS
 10
6.4620
 20
7.0586
 40
0.0149
  0
CIRCLE
  8
LAYER1
 62
     7
  6
CONTINUOUS
 10
6.5410
 20
7.1192
 40
0.0100
  0
CIRCLE
  8
LAYER1
 62
     7
  6
CONTINUOUS
 10
6.7011
 20
7.2703
 40
0.0056
  0
CIRCLE
  8
LAYER1
 62
     7
  6
CONTINUOUS
 10
6.7886
 20
7.2365
 40
0.0100
  0
CIRCLE
  8
LAYER1
 62
     7
  6
CONTINUOUS
 10
7.0211
 20
7.1469
 40
0.0275
  0
CIRCLE
  8
LAYER1
 62
     7
  6
CONTINUOUS
 10
7.0217
 20
7.3162
 40
0.0090
  0
CIRCLE
  8
LAYER1
 62
     7
  6
CONTINUOUS
 10
7.0383
 20
7.3886
 40
0.0103
  0
CIRCLE
  8
LAYER1
 62
     7
  6
CONTINUOUS
 10
6.8949
 20
7.0758
 40
0.0075
  0
CIRCLE
  8
LAYER1
 62
     7
  6
CONTINUOUS
 10
6.8606
 20
7.0232
 40
0.0100
  0
CIRCLE
  8
LAYER1
 62
     7
  6
CONTINUOUS
 10
6.8978
 20
7.0410
 40
0.0079
  0
CIRCLE
  8
LAYER1
 62
     7
  6
CONTINUOUS
 10
6.9178
 20
7.0288
 40
0.0103
  0
CIRCLE
  8
LAYER1
 62
     7
  6
CONTINUOUS
 10
6.8689
 20
6.9536
 40
0.0103
  0
CIRCLE
  8
LAYER1
 62
     7
  6
CONTINUOUS
 10
6.2183
 20
6.8095
 40
0.0127
  0
CIRCLE
  8
LAYER1
 62
     7
  6
CONTINUOUS
 10
6.3255
 20
6.7908
 40
0.0134
  0
CIRCLE
  8
LAYER1
 62
     7
  6
CONTINUOUS
 10
6.3119
 20
6.6736
 40
0.0100
  0
CIRCLE
  8
LAYER1
 62
     7
  6
CONTINUOUS
 10
6.4663
 20
6.6703
 40
0.0254
  0
CIRCLE
  8
LAYER1
 62
     7
  6
CONTINUOUS
 10
6.4123
 20
6.8241
 40
0.0102
  0
CIRCLE
  8
LAYER1
 62
     7
  6
CONTINUOUS
 10
6.4626
 20
6.7773
 40
0.0127
  0
CIRCLE
  8
LAYER1
 62
     7
  6
CONTINUOUS
 10
6.5103
 20
6.7380
 40
0.0124
  0
CIRCLE
  8
LAYER1
 62
     7
  6
CONTINUOUS
 10
6.4947
 20
6.8026
 40
0.0134
  0
CIRCLE
  8
LAYER1
 62
     7
  6
CONTINUOUS
 10
6.5221
 20
6.8004
 40
0.0134
  0
CIRCLE
  8
LAYER1
 62
     7
  6
CONTINUOUS
 10
6.5029
 20
6.9595
 40
0.0070
  0
CIRCLE
  8
LAYER1
 62
     7
  6
CONTINUOUS
 10
6.5205
 20
6.9448
 40
0.0159
  0
CIRCLE
  8
LAYER1
 62
     7
  6
CONTINUOUS
 10
6.5832
 20
6.8982
 40
0.0134
  0
CIRCLE
  8
LAYER1
 62
     7
  6
CONTINUOUS
 10
6.5893
 20
6.8011
 40
0.0050
  0
CIRCLE
  8
LAYER1
 62
     7
  6
CONTINUOUS
 10
6.6071
 20
6.7640
 40
0.0079
  0
CIRCLE
  8
LAYER1
 62
     7
  6
CONTINUOUS
 10
6.6147
 20
6.7516
 40
0.0070
  0
CIRCLE
  8
LAYER1
 62
     7
  6
CONTINUOUS
 10
6.5951
 20
6.7240
 40
0.0090
  0
CIRCLE
  8
LAYER1
 62
     7
  6
CONTINUOUS
 10
6.6077
 20
6.7092
 40
0.0106
  0
CIRCLE
  8
LAYER1
 62
     7
  6
CONTINUOUS
 10
6.6728
 20
6.6776
 40
0.0124
  0
CIRCLE
  8
LAYER1
 62
     7
  6
CONTINUOUS
 10
6.7098
 20
6.7079
 40
0.0100
  0
CIRCLE
  8
LAYER1
 62
     7
  6
CONTINUOUS
 10
6.7068
 20
6.7477
 40
0.0151
  0
CIRCLE
  8
LAYER1
 62
     7
  6
CONTINUOUS
 10
6.6490
 20
6.8018
 40
0.0070
  0
CIRCLE
  8
LAYER1
 62
     7
  6
CONTINUOUS
 10
6.7628
 20
6.8653
 40
0.0090
  0
CIRCLE
  8
LAYER1
 62
     7
  6
CONTINUOUS
 10
6.8166
 20
6.7315
 40
0.0079
  0
CIRCLE
  8
LAYER1
 62
     7
  6
CONTINUOUS
 10
6.9193
 20
6.8944
 40
0.0056
  0
CIRCLE
  8
LAYER1
 62
     7
  6
CONTINUOUS
 10
6.9942
 20
6.8703
 40
0.0103
  0
CIRCLE
  8
LAYER1
 62
     7
  6
CONTINUOUS
 10
6.6340
 20
6.5826
 40
0.0151
  0
CIRCLE
  8
LAYER1
 62
     7
  6
CONTINUOUS
 10
6.7088
 20
6.5660
 40
0.0079
  0
CIRCLE
  8
LAYER1
 62
     7
  6
CONTINUOUS
 10
6.7612
 20
6.5616
 40
0.0124
  0
CIRCLE
  8
LAYER1
 62
     7
  6
CONTINUOUS
 10
6.8433
 20
6.5650
 40
0.0075
  0
CIRCLE
  8
LAYER1
 62
     7
  6
CONTINUOUS
 10
6.8657
 20
6.5652
 40
0.0149
  0
CIRCLE
  8
LAYER1
 62
     7
  6
CONTINUOUS
 10
6.8601
 20
6.6199
 40
0.0100
  0
CIRCLE
  8
LAYER1
 62
     7
  6
CONTINUOUS
 10
6.9403
 20
6.5359
 40
0.0125
  0
POLYLINE
  8
LAYER1
 62
     7
 66
     1
  6
CONTINUOUS
  0
VERTEX
  8
LAYER1
 62
     7
  6
CONTINUOUS
 10
6.0657
 20
6.9118
  0
VERTEX
  8
LAYER1
 62
     7
  6
CONTINUOUS
 10
6.0663
 20
6.9137
  0
VERTEX
  8
LAYER1
 62
     7
  6
CONTINUOUS
 10
6.0670
 20
6.9157
  0
VERTEX
  8
LAYER1
 62
     7
  6
CONTINUOUS
 10
6.0677
 20
6.9176
  0
VERTEX
  8
LAYER1
 62
     7
  6
CONTINUOUS
 10
6.0684
 20
6.9196
  0
VERTEX
  8
LAYER1
 62
     7
  6
CONTINUOUS
 10
6.0692
 20
6.9215
  0
VERTEX
  8
LAYER1
 62
     7
  6
CONTINUOUS
 10
6.0699
 20
6.9234
  0
VERTEX
  8
LAYER1
 62
     7
  6
CONTINUOUS
 10
6.0707
 20
6.9254
  0
VERTEX
  8
LAYER1
 62
     7
  6
CONTINUOUS
 10
6.0715
 20
6.9273
  0
VERTEX
  8
LAYER1
 62
     7
  6
CONTINUOUS
 10
6.0723
 20
6.9292
  0
VERTEX
  8
LAYER1
 62
     7
  6
CONTINUOUS
 10
6.0732
 20
6.9311
  0
VERTEX
  8
LAYER1
 62
     7
  6
CONTINUOUS
 10
6.0741
 20
6.9330
  0
VERTEX
  8
LAYER1
 62
     7
  6
CONTINUOUS
 10
6.0750
 20
6.9349
  0
VERTEX
  8
LAYER1
 62
     7
  6
CONTINUOUS
 10
6.0771
 20
6.9387
  0
VERTEX
  8
LAYER1
 62
     7
  6
CONTINUOUS
 10
6.0794
 20
6.9425
  0
VERTEX
  8
LAYER1
 62
     7
  6
CONTINUOUS
 10
6.0818
 20
6.9463
  0
VERTEX
  8
LAYER1
 62
     7
  6
CONTINUOUS
 10
6.0842
 20
6.9500
  0
VERTEX
  8
LAYER1
 62
     7
  6
CONTINUOUS
 10
6.0866
 20
6.9537
  0
VERTEX
  8
LAYER1
 62
     7
  6
CONTINUOUS
 10
6.0890
 20
6.9575
  0
VERTEX
  8
LAYER1
 62
     7
  6
CONTINUOUS
 10
6.0912
 20
6.9612
  0
VERTEX
  8
LAYER1
 62
     7
  6
CONTINUOUS
 10
6.0934
 20
6.9649
  0
VERTEX
  8
LAYER1
 62
     7
  6
CONTINUOUS
 10
6.0953
 20
6.9686
  0
VERTEX
  8
LAYER1
 62
     7
  6
CONTINUOUS
 10
6.0970
 20
6.9724
  0
VERTEX
  8
LAYER1
 62
     7
  6
CONTINUOUS
 10
6.0984
 20
6.9761
  0
VERTEX
  8
LAYER1
 62
     7
  6
CONTINUOUS
 10
6.0994
 20
6.9799
  0
VERTEX
  8
LAYER1
 62
     7
  6
CONTINUOUS
 10
6.0999
 20
6.9826
  0
VERTEX
  8
LAYER1
 62
     7
  6
CONTINUOUS
 10
6.1003
 20
6.9853
  0
VERTEX
  8
LAYER1
 62
     7
  6
CONTINUOUS
 10
6.1005
 20
6.9880
  0
VERTEX
  8
LAYER1
 62
     7
  6
CONTINUOUS
 10
6.1007
 20
6.9907
  0
VERTEX
  8
LAYER1
 62
     7
  6
CONTINUOUS
 10
6.1008
 20
6.9935
  0
VERTEX
  8
LAYER1
 62
     7
  6
CONTINUOUS
 10
6.1009
 20
6.9963
  0
VERTEX
  8
LAYER1
 62
     7
  6
CONTINUOUS
 10
6.1011
 20
6.9992
  0
VERTEX
  8
LAYER1
 62
     7
  6
CONTINUOUS
 10
6.1014
 20
7.0022
  0
VERTEX
  8
LAYER1
 62
     7
  6
CONTINUOUS
 10
6.1017
 20
7.0052
  0
VERTEX
  8
LAYER1
 62
     7
  6
CONTINUOUS
 10
6.1023
 20
7.0084
  0
VERTEX
  8
LAYER1
 62
     7
  6
CONTINUOUS
 10
6.1030
 20
7.0116
  0
VERTEX
  8
LAYER1
 62
     7
  6
CONTINUOUS
 10
6.1040
 20
7.0148
  0
VERTEX
  8
LAYER1
 62
     7
  6
CONTINUOUS
 10
6.1057
 20
7.0194
  0
VERTEX
  8
LAYER1
 62
     7
  6
CONTINUOUS
 10
6.1078
 20
7.0240
  0
VERTEX
  8
LAYER1
 62
     7
  6
CONTINUOUS
 10
6.1103
 20
7.0286
  0
VERTEX
  8
LAYER1
 62
     7
  6
CONTINUOUS
 10
6.1129
 20
7.0331
  0
VERTEX
  8
LAYER1
 62
     7
  6
CONTINUOUS
 10
6.1155
 20
7.0374
  0
VERTEX
  8
LAYER1
 62
     7
  6
CONTINUOUS
 10
6.1182
 20
7.0415
  0
VERTEX
  8
LAYER1
 62
     7
  6
CONTINUOUS
 10
6.1208
 20
7.0452
  0
VERTEX
  8
LAYER1
 62
     7
  6
CONTINUOUS
 10
6.1231
 20
7.0484
  0
VERTEX
  8
LAYER1
 62
     7
  6
CONTINUOUS
 10
6.1252
 20
7.0511
  0
VERTEX
  8
LAYER1
 62
     7
  6
CONTINUOUS
 10
6.1268
 20
7.0531
  0
VERTEX
  8
LAYER1
 62
     7
  6
CONTINUOUS
 10
6.1280
 20
7.0544
  0
VERTEX
  8
LAYER1
 62
     7
  6
CONTINUOUS
 10
6.1285
 20
7.0549
  0
VERTEX
  8
LAYER1
 62
     7
  6
CONTINUOUS
 10
6.1285
 20
7.0549
  0
VERTEX
  8
LAYER1
 62
     7
  6
CONTINUOUS
 10
6.1285
 20
7.0549
  0
VERTEX
  8
LAYER1
 62
     7
  6
CONTINUOUS
 10
6.1285
 20
7.0549
  0
VERTEX
  8
LAYER1
 62
     7
  6
CONTINUOUS
 10
6.1285
 20
7.0549
  0
VERTEX
  8
LAYER1
 62
     7
  6
CONTINUOUS
 10
6.1285
 20
7.0549
  0
VERTEX
  8
LAYER1
 62
     7
  6
CONTINUOUS
 10
6.1285
 20
7.0549
  0
VERTEX
  8
LAYER1
 62
     7
  6
CONTINUOUS
 10
6.1285
 20
7.0549
  0
VERTEX
  8
LAYER1
 62
     7
  6
CONTINUOUS
 10
6.1285
 20
7.0549
  0
VERTEX
  8
LAYER1
 62
     7
  6
CONTINUOUS
 10
6.1285
 20
7.0549
  0
VERTEX
  8
LAYER1
 62
     7
  6
CONTINUOUS
 10
6.1285
 20
7.0549
  0
VERTEX
  8
LAYER1
 62
     7
  6
CONTINUOUS
 10
6.1285
 20
7.0549
  0
VERTEX
  8
LAYER1
 62
     7
  6
CONTINUOUS
 10
6.1285
 20
7.0549
  0
VERTEX
  8
LAYER1
 62
     7
  6
CONTINUOUS
 10
6.1286
 20
7.0555
  0
VERTEX
  8
LAYER1
 62
     7
  6
CONTINUOUS
 10
6.1290
 20
7.0567
  0
VERTEX
  8
LAYER1
 62
     7
  6
CONTINUOUS
 10
6.1296
 20
7.0583
  0
VERTEX
  8
LAYER1
 62
     7
  6
CONTINUOUS
 10
6.1303
 20
7.0604
  0
VERTEX
  8
LAYER1
 62
     7
  6
CONTINUOUS
 10
6.1311
 20
7.0629
  0
VERTEX
  8
LAYER1
 62
     7
  6
CONTINUOUS
 10
6.1321
 20
7.0657
  0
VERTEX
  8
LAYER1
 62
     7
  6
CONTINUOUS
 10
6.1331
 20
7.0687
  0
VERTEX
  8
LAYER1
 62
     7
  6
CONTINUOUS
 10
6.1341
 20
7.0719
  0
VERTEX
  8
LAYER1
 62
     7
  6
CONTINUOUS
 10
6.1352
 20
7.0752
  0
VERTEX
  8
LAYER1
 62
     7
  6
CONTINUOUS
 10
6.1362
 20
7.0785
  0
VERTEX
  8
LAYER1
 62
     7
  6
CONTINUOUS
 10
6.1372
 20
7.0818
  0
VERTEX
  8
LAYER1
 62
     7
  6
CONTINUOUS
 10
6.1381
 20
7.0849
  0
VERTEX
  8
LAYER1
 62
     7
  6
CONTINUOUS
 10
6.1389
 20
7.0879
  0
VERTEX
  8
LAYER1
 62
     7
  6
CONTINUOUS
 10
6.1396
 20
7.0907
  0
VERTEX
  8
LAYER1
 62
     7
  6
CONTINUOUS
 10
6.1403
 20
7.0934
  0
VERTEX
  8
LAYER1
 62
     7
  6
CONTINUOUS
 10
6.1410
 20
7.0960
  0
VERTEX
  8
LAYER1
 62
     7
  6
CONTINUOUS
 10
6.1416
 20
7.0985
  0
VERTEX
  8
LAYER1
 62
     7
  6
CONTINUOUS
 10
6.1422
 20
7.1009
  0
VERTEX
  8
LAYER1
 62
     7
  6
CONTINUOUS
 10
6.1429
 20
7.1032
  0
VERTEX
  8
LAYER1
 62
     7
  6
CONTINUOUS
 10
6.1437
 20
7.1055
  0
VERTEX
  8
LAYER1
 62
     7
  6
CONTINUOUS
 10
6.1445
 20
7.1078
  0
VERTEX
  8
LAYER1
 62
     7
  6
CONTINUOUS
 10
6.1454
 20
7.1102
  0
VERTEX
  8
LAYER1
 62
     7
  6
CONTINUOUS
 10
6.1465
 20
7.1125
  0
VERTEX
  8
LAYER1
 62
     7
  6
CONTINUOUS
 10
6.1477
 20
7.1149
  0
VERTEX
  8
LAYER1
 62
     7
  6
CONTINUOUS
 10
6.1491
 20
7.1174
  0
VERTEX
  8
LAYER1
 62
     7
  6
CONTINUOUS
 10
6.1507
 20
7.1199
  0
VERTEX
  8
LAYER1
 62
     7
  6
CONTINUOUS
 10
6.1524
 20
7.1224
  0
VERTEX
  8
LAYER1
 62
     7
  6
CONTINUOUS
 10
6.1543
 20
7.1248
  0
VERTEX
  8
LAYER1
 62
     7
  6
CONTINUOUS
 10
6.1563
 20
7.1271
  0
VERTEX
  8
LAYER1
 62
     7
  6
CONTINUOUS
 10
6.1584
 20
7.1292
  0
VERTEX
  8
LAYER1
 62
     7
  6
CONTINUOUS
 10
6.1606
 20
7.1311
  0
VERTEX
  8
LAYER1
 62
     7
  6
CONTINUOUS
 10
6.1628
 20
7.1327
  0
VERTEX
  8
LAYER1
 62
     7
  6
CONTINUOUS
 10
6.1652
 20
7.1339
  0
VERTEX
  8
LAYER1
 62
     7
  6
CONTINUOUS
 10
6.1675
 20
7.1347
  0
VERTEX
  8
LAYER1
 62
     7
  6
CONTINUOUS
 10
6.1700
 20
7.1352
  0
VERTEX
  8
LAYER1
 62
     7
  6
CONTINUOUS
 10
6.1724
 20
7.1351
  0
VERTEX
  8
LAYER1
 62
     7
  6
CONTINUOUS
 10
6.1732
 20
7.1349
  0
VERTEX
  8
LAYER1
 62
     7
  6
CONTINUOUS
 10
6.1741
 20
7.1347
  0
VERTEX
  8
LAYER1
 62
     7
  6
CONTINUOUS
 10
6.1749
 20
7.1344
  0
VERTEX
  8
LAYER1
 62
     7
  6
CONTINUOUS
 10
6.1758
 20
7.1341
  0
VERTEX
  8
LAYER1
 62
     7
  6
CONTINUOUS
 10
6.1766
 20
7.1337
  0
VERTEX
  8
LAYER1
 62
     7
  6
CONTINUOUS
 10
6.1775
 20
7.1333
  0
VERTEX
  8
LAYER1
 62
     7
  6
CONTINUOUS
 10
6.1783
 20
7.1329
  0
VERTEX
  8
LAYER1
 62
     7
  6
CONTINUOUS
 10
6.1791
 20
7.1324
  0
VERTEX
  8
LAYER1
 62
     7
  6
CONTINUOUS
 10
6.1800
 20
7.1319
  0
VERTEX
  8
LAYER1
 62
     7
  6
CONTINUOUS
 10
6.1808
 20
7.1313
  0
VERTEX
  8
LAYER1
 62
     7
  6
CONTINUOUS
 10
6.1816
 20
7.1308
  0
VERTEX
  8
LAYER1
 62
     7
  6
CONTINUOUS
 10
6.1824
 20
7.1302
  0
VERTEX
  8
LAYER1
 62
     7
  6
CONTINUOUS
 10
6.1847
 20
7.1285
  0
VERTEX
  8
LAYER1
 62
     7
  6
CONTINUOUS
 10
6.1868
 20
7.1268
  0
VERTEX
  8
LAYER1
 62
     7
  6
CONTINUOUS
 10
6.1889
 20
7.1250
  0
VERTEX
  8
LAYER1
 62
     7
  6
CONTINUOUS
 10
6.1909
 20
7.1231
  0
VERTEX
  8
LAYER1
 62
     7
  6
CONTINUOUS
 10
6.1928
 20
7.1211
  0
VERTEX
  8
LAYER1
 62
     7
  6
CONTINUOUS
 10
6.1946
 20
7.1191
  0
VERTEX
  8
LAYER1
 62
     7
  6
CONTINUOUS
 10
6.1963
 20
7.1170
  0
VERTEX
  8
LAYER1
 62
     7
  6
CONTINUOUS
 10
6.1978
 20
7.1148
  0
VERTEX
  8
LAYER1
 62
     7
  6
CONTINUOUS
 10
6.1992
 20
7.1126
  0
VERTEX
  8
LAYER1
 62
     7
  6
CONTINUOUS
 10
6.2005
 20
7.1103
  0
VERTEX
  8
LAYER1
 62
     7
  6
CONTINUOUS
 10
6.2016
 20
7.1080
  0
VERTEX
  8
LAYER1
 62
     7
  6
CONTINUOUS
 10
6.2026
 20
7.1055
  0
VERTEX
  8
LAYER1
 62
     7
  6
CONTINUOUS
 10
6.2035
 20
7.1028
  0
VERTEX
  8
LAYER1
 62
     7
  6
CONTINUOUS
 10
6.2042
 20
7.1001
  0
VERTEX
  8
LAYER1
 62
     7
  6
CONTINUOUS
 10
6.2047
 20
7.0972
  0
VERTEX
  8
LAYER1
 62
     7
  6
CONTINUOUS
 10
6.2050
 20
7.0944
  0
VERTEX
  8
LAYER1
 62
     7
  6
CONTINUOUS
 10
6.2052
 20
7.0915
  0
VERTEX
  8
LAYER1
 62
     7
  6
CONTINUOUS
 10
6.2053
 20
7.0885
  0
VERTEX
  8
LAYER1
 62
     7
  6
CONTINUOUS
 10
6.2052
 20
7.0856
  0
VERTEX
  8
LAYER1
 62
     7
  6
CONTINUOUS
 10
6.2050
 20
7.0826
  0
VERTEX
  8
LAYER1
 62
     7
  6
CONTINUOUS
 10
6.2046
 20
7.0796
  0
VERTEX
  8
LAYER1
 62
     7
  6
CONTINUOUS
 10
6.2042
 20
7.0766
  0
VERTEX
  8
LAYER1
 62
     7
  6
CONTINUOUS
 10
6.2036
 20
7.0736
  0
VERTEX
  8
LAYER1
 62
     7
  6
CONTINUOUS
 10
6.2030
 20
7.0707
  0
VERTEX
  8
LAYER1
 62
     7
  6
CONTINUOUS
 10
6.2022
 20
7.0676
  0
VERTEX
  8
LAYER1
 62
     7
  6
CONTINUOUS
 10
6.2014
 20
7.0646
  0
VERTEX
  8
LAYER1
 62
     7
  6
CONTINUOUS
 10
6.2005
 20
7.0616
  0
VERTEX
  8
LAYER1
 62
     7
  6
CONTINUOUS
 10
6.1996
 20
7.0587
  0
VERTEX
  8
LAYER1
 62
     7
  6
CONTINUOUS
 10
6.1987
 20
7.0557
  0
VERTEX
  8
LAYER1
 62
     7
  6
CONTINUOUS
 10
6.1978
 20
7.0528
  0
VERTEX
  8
LAYER1
 62
     7
  6
CONTINUOUS
 10
6.1969
 20
7.0499
  0
VERTEX
  8
LAYER1
 62
     7
  6
CONTINUOUS
 10
6.1960
 20
7.0470
  0
VERTEX
  8
LAYER1
 62
     7
  6
CONTINUOUS
 10
6.1952
 20
7.0442
  0
VERTEX
  8
LAYER1
 62
     7
  6
CONTINUOUS
 10
6.1945
 20
7.0414
  0
VERTEX
  8
LAYER1
 62
     7
  6
CONTINUOUS
 10
6.1939
 20
7.0385
  0
VERTEX
  8
LAYER1
 62
     7
  6
CONTINUOUS
 10
6.1934
 20
7.0357
  0
VERTEX
  8
LAYER1
 62
     7
  6
CONTINUOUS
 10
6.1930
 20
7.0327
  0
VERTEX
  8
LAYER1
 62
     7
  6
CONTINUOUS
 10
6.1927
 20
7.0296
  0
VERTEX
  8
LAYER1
 62
     7
  6
CONTINUOUS
 10
6.1926
 20
7.0265
  0
VERTEX
  8
LAYER1
 62
     7
  6
CONTINUOUS
 10
6.1924
 20
7.0234
  0
VERTEX
  8
LAYER1
 62
     7
  6
CONTINUOUS
 10
6.1923
 20
7.0203
  0
VERTEX
  8
LAYER1
 62
     7
  6
CONTINUOUS
 10
6.1922
 20
7.0171
  0
VERTEX
  8
LAYER1
 62
     7
  6
CONTINUOUS
 10
6.1920
 20
7.0138
  0
VERTEX
  8
LAYER1
 62
     7
  6
CONTINUOUS
 10
6.1917
 20
7.0104
  0
VERTEX
  8
LAYER1
 62
     7
  6
CONTINUOUS
 10
6.1913
 20
7.0070
  0
VERTEX
  8
LAYER1
 62
     7
  6
CONTINUOUS
 10
6.1907
 20
7.0034
  0
VERTEX
  8
LAYER1
 62
     7
  6
CONTINUOUS
 10
6.1899
 20
6.9997
  0
VERTEX
  8
LAYER1
 62
     7
  6
CONTINUOUS
 10
6.1889
 20
6.9959
  0
VERTEX
  8
LAYER1
 62
     7
  6
CONTINUOUS
 10
6.1874
 20
6.9914
  0
VERTEX
  8
LAYER1
 62
     7
  6
CONTINUOUS
 10
6.1856
 20
6.9869
  0
VERTEX
  8
LAYER1
 62
     7
  6
CONTINUOUS
 10
6.1836
 20
6.9823
  0
VERTEX
  8
LAYER1
 62
     7
  6
CONTINUOUS
 10
6.1815
 20
6.9778
  0
VERTEX
  8
LAYER1
 62
     7
  6
CONTINUOUS
 10
6.1794
 20
6.9735
  0
VERTEX
  8
LAYER1
 62
     7
  6
CONTINUOUS
 10
6.1773
 20
6.9694
  0
VERTEX
  8
LAYER1
 62
     7
  6
CONTINUOUS
 10
6.1753
 20
6.9657
  0
VERTEX
  8
LAYER1
 62
     7
  6
CONTINUOUS
 10
6.1734
 20
6.9625
  0
VERTEX
  8
LAYER1
 62
     7
  6
CONTINUOUS
 10
6.1719
 20
6.9598
  0
VERTEX
  8
LAYER1
 62
     7
  6
CONTINUOUS
 10
6.1706
 20
6.9577
  0
VERTEX
  8
LAYER1
 62
     7
  6
CONTINUOUS
 10
6.1698
 20
6.9564
  0
VERTEX
  8
LAYER1
 62
     7
  6
CONTINUOUS
 10
6.1694
 20
6.9558
  0
VERTEX
  8
LAYER1
 62
     7
  6
CONTINUOUS
 10
6.1694
 20
6.9558
  0
VERTEX
  8
LAYER1
 62
     7
  6
CONTINUOUS
 10
6.1694
 20
6.9558
  0
VERTEX
  8
LAYER1
 62
     7
  6
CONTINUOUS
 10
6.1694
 20
6.9558
  0
VERTEX
  8
LAYER1
 62
     7
  6
CONTINUOUS
 10
6.1694
 20
6.9558
  0
VERTEX
  8
LAYER1
 62
     7
  6
CONTINUOUS
 10
6.1694
 20
6.9559
  0
VERTEX
  8
LAYER1
 62
     7
  6
CONTINUOUS
 10
6.1694
 20
6.9559
  0
VERTEX
  8
LAYER1
 62
     7
  6
CONTINUOUS
 10
6.1694
 20
6.9559
  0
VERTEX
  8
LAYER1
 62
     7
  6
CONTINUOUS
 10
6.1694
 20
6.9559
  0
VERTEX
  8
LAYER1
 62
     7
  6
CONTINUOUS
 10
6.1694
 20
6.9559
  0
VERTEX
  8
LAYER1
 62
     7
  6
CONTINUOUS
 10
6.1694
 20
6.9559
  0
VERTEX
  8
LAYER1
 62
     7
  6
CONTINUOUS
 10
6.1694
 20
6.9559
  0
VERTEX
  8
LAYER1
 62
     7
  6
CONTINUOUS
 10
6.1694
 20
6.9558
  0
VERTEX
  8
LAYER1
 62
     7
  6
CONTINUOUS
 10
6.1689
 20
6.9546
  0
VERTEX
  8
LAYER1
 62
     7
  6
CONTINUOUS
 10
6.1678
 20
6.9520
  0
VERTEX
  8
LAYER1
 62
     7
  6
CONTINUOUS
 10
6.1662
 20
6.9483
  0
VERTEX
  8
LAYER1
 62
     7
  6
CONTINUOUS
 10
6.1642
 20
6.9437
  0
VERTEX
  8
LAYER1
 62
     7
  6
CONTINUOUS
 10
6.1620
 20
6.9386
  0
VERTEX
  8
LAYER1
 62
     7
  6
CONTINUOUS
 10
6.1596
 20
6.9332
  0
VERTEX
  8
LAYER1
 62
     7
  6
CONTINUOUS
 10
6.1573
 20
6.9278
  0
VERTEX
  8
LAYER1
 62
     7
  6
CONTINUOUS
 10
6.1551
 20
6.9227
  0
VERTEX
  8
LAYER1
 62
     7
  6
CONTINUOUS
 10
6.1531
 20
6.9182
  0
VERTEX
  8
LAYER1
 62
     7
  6
CONTINUOUS
 10
6.1515
 20
6.9145
  0
VERTEX
  8
LAYER1
 62
     7
  6
CONTINUOUS
 10
6.1504
 20
6.9119
  0
VERTEX
  8
LAYER1
 62
     7
  6
CONTINUOUS
 10
6.1500
 20
6.9108
  0
VERTEX
  8
LAYER1
 62
     7
  6
CONTINUOUS
 10
6.1500
 20
6.9108
  0
VERTEX
  8
LAYER1
 62
     7
  6
CONTINUOUS
 10
6.1500
 20
6.9108
  0
VERTEX
  8
LAYER1
 62
     7
  6
CONTINUOUS
 10
6.1500
 20
6.9108
  0
VERTEX
  8
LAYER1
 62
     7
  6
CONTINUOUS
 10
6.1500
 20
6.9108
  0
VERTEX
  8
LAYER1
 62
     7
  6
CONTINUOUS
 10
6.1500
 20
6.9108
  0
VERTEX
  8
LAYER1
 62
     7
  6
CONTINUOUS
 10
6.1500
 20
6.9108
  0
VERTEX
  8
LAYER1
 62
     7
  6
CONTINUOUS
 10
6.1500
 20
6.9108
  0
VERTEX
  8
LAYER1
 62
     7
  6
CONTINUOUS
 10
6.1500
 20
6.9108
  0
VERTEX
  8
LAYER1
 62
     7
  6
CONTINUOUS
 10
6.1500
 20
6.9108
  0
VERTEX
  8
LAYER1
 62
     7
  6
CONTINUOUS
 10
6.1500
 20
6.9108
  0
VERTEX
  8
LAYER1
 62
     7
  6
CONTINUOUS
 10
6.1500
 20
6.9108
  0
VERTEX
  8
LAYER1
 62
     7
  6
CONTINUOUS
 10
6.1500
 20
6.9108
  0
VERTEX
  8
LAYER1
 62
     7
  6
CONTINUOUS
 10
6.1497
 20
6.9104
  0
VERTEX
  8
LAYER1
 62
     7
  6
CONTINUOUS
 10
6.1492
 20
6.9094
  0
VERTEX
  8
LAYER1
 62
     7
  6
CONTINUOUS
 10
6.1485
 20
6.9080
  0
VERTEX
  8
LAYER1
 62
     7
  6
CONTINUOUS
 10
6.1475
 20
6.9063
  0
VERTEX
  8
LAYER1
 62
     7
  6
CONTINUOUS
 10
6.1464
 20
6.9042
  0
VERTEX
  8
LAYER1
 62
     7
  6
CONTINUOUS
 10
6.1451
 20
6.9019
  0
VERTEX
  8
LAYER1
 62
     7
  6
CONTINUOUS
 10
6.1436
 20
6.8993
  0
VERTEX
  8
LAYER1
 62
     7
  6
CONTINUOUS
 10
6.1421
 20
6.8966
  0
VERTEX
  8
LAYER1
 62
     7
  6
CONTINUOUS
 10
6.1404
 20
6.8939
  0
VERTEX
  8
LAYER1
 62
     7
  6
CONTINUOUS
 10
6.1388
 20
6.8911
  0
VERTEX
  8
LAYER1
 62
     7
  6
CONTINUOUS
 10
6.1370
 20
6.8884
  0
VERTEX
  8
LAYER1
 62
     7
  6
CONTINUOUS
 10
6.1353
 20
6.8857
  0
VERTEX
  8
LAYER1
 62
     7
  6
CONTINUOUS
 10
6.1330
 20
6.8825
  0
VERTEX
  8
LAYER1
 62
     7
  6
CONTINUOUS
 10
6.1308
 20
6.8794
  0
VERTEX
  8
LAYER1
 62
     7
  6
CONTINUOUS
 10
6.1286
 20
6.8766
  0
VERTEX
  8
LAYER1
 62
     7
  6
CONTINUOUS
 10
6.1264
 20
6.8740
  0
VERTEX
  8
LAYER1
 62
     7
  6
CONTINUOUS
 10
6.1243
 20
6.8716
  0
VERTEX
  8
LAYER1
 62
     7
  6
CONTINUOUS
 10
6.1222
 20
6.8692
  0
VERTEX
  8
LAYER1
 62
     7
  6
CONTINUOUS
 10
6.1202
 20
6.8670
  0
VERTEX
  8
LAYER1
 62
     7
  6
CONTINUOUS
 10
6.1182
 20
6.8647
  0
VERTEX
  8
LAYER1
 62
     7
  6
CONTINUOUS
 10
6.1163
 20
6.8625
  0
VERTEX
  8
LAYER1
 62
     7
  6
CONTINUOUS
 10
6.1144
 20
6.8603
  0
VERTEX
  8
LAYER1
 62
     7
  6
CONTINUOUS
 10
6.1125
 20
6.8580
  0
VERTEX
  8
LAYER1
 62
     7
  6
CONTINUOUS
 10
6.1108
 20
6.8556
  0
VERTEX
  8
LAYER1
 62
     7
  6
CONTINUOUS
 10
6.1092
 20
6.8533
  0
VERTEX
  8
LAYER1
 62
     7
  6
CONTINUOUS
 10
6.1076
 20
6.8509
  0
VERTEX
  8
LAYER1
 62
     7
  6
CONTINUOUS
 10
6.1060
 20
6.8484
  0
VERTEX
  8
LAYER1
 62
     7
  6
CONTINUOUS
 10
6.1045
 20
6.8459
  0
VERTEX
  8
LAYER1
 62
     7
  6
CONTINUOUS
 10
6.1030
 20
6.8433
  0
VERTEX
  8
LAYER1
 62
     7
  6
CONTINUOUS
 10
6.1014
 20
6.8407
  0
VERTEX
  8
LAYER1
 62
     7
  6
CONTINUOUS
 10
6.0998
 20
6.8380
  0
VERTEX
  8
LAYER1
 62
     7
  6
CONTINUOUS
 10
6.0982
 20
6.8354
  0
VERTEX
  8
LAYER1
 62
     7
  6
CONTINUOUS
 10
6.0966
 20
6.8329
  0
VERTEX
  8
LAYER1
 62
     7
  6
CONTINUOUS
 10
6.0948
 20
6.8303
  0
VERTEX
  8
LAYER1
 62
     7
  6
CONTINUOUS
 10
6.0930
 20
6.8279
  0
VERTEX
  8
LAYER1
 62
     7
  6
CONTINUOUS
 10
6.0912
 20
6.8255
  0
VERTEX
  8
LAYER1
 62
     7
  6
CONTINUOUS
 10
6.0900
 20
6.8242
  0
VERTEX
  8
LAYER1
 62
     7
  6
CONTINUOUS
 10
6.0888
 20
6.8229
  0
VERTEX
  8
LAYER1
 62
     7
  6
CONTINUOUS
 10
6.0876
 20
6.8216
  0
VERTEX
  8
LAYER1
 62
     7
  6
CONTINUOUS
 10
6.0864
 20
6.8203
  0
VERTEX
  8
LAYER1
 62
     7
  6
CONTINUOUS
 10
6.0852
 20
6.8191
  0
VERTEX
  8
LAYER1
 62
     7
  6
CONTINUOUS
 10
6.0839
 20
6.8178
  0
VERTEX
  8
LAYER1
 62
     7
  6
CONTINUOUS
 10
6.0827
 20
6.8166
  0
VERTEX
  8
LAYER1
 62
     7
  6
CONTINUOUS
 10
6.0814
 20
6.8154
  0
VERTEX
  8
LAYER1
 62
     7
  6
CONTINUOUS
 10
6.0801
 20
6.8141
  0
VERTEX
  8
LAYER1
 62
     7
  6
CONTINUOUS
 10
6.0789
 20
6.8129
  0
VERTEX
  8
LAYER1
 62
     7
  6
CONTINUOUS
 10
6.0776
 20
6.8117
  0
VERTEX
  8
LAYER1
 62
     7
  6
CONTINUOUS
 10
6.0764
 20
6.8104
  0
VERTEX
  8
LAYER1
 62
     7
  6
CONTINUOUS
 10
6.0755
 20
6.8095
  0
VERTEX
  8
LAYER1
 62
     7
  6
CONTINUOUS
 10
6.0745
 20
6.8085
  0
VERTEX
  8
LAYER1
 62
     7
  6
CONTINUOUS
 10
6.0736
 20
6.8075
  0
VERTEX
  8
LAYER1
 62
     7
  6
CONTINUOUS
 10
6.0727
 20
6.8065
  0
VERTEX
  8
LAYER1
 62
     7
  6
CONTINUOUS
 10
6.0718
 20
6.8055
  0
VERTEX
  8
LAYER1
 62
     7
  6
CONTINUOUS
 10
6.0709
 20
6.8045
  0
VERTEX
  8
LAYER1
 62
     7
  6
CONTINUOUS
 10
6.0700
 20
6.8034
  0
VERTEX
  8
LAYER1
 62
     7
  6
CONTINUOUS
 10
6.0692
 20
6.8024
  0
VERTEX
  8
LAYER1
 62
     7
  6
CONTINUOUS
 10
6.0683
 20
6.8014
  0
VERTEX
  8
LAYER1
 62
     7
  6
CONTINUOUS
 10
6.0674
 20
6.8004
  0
VERTEX
  8
LAYER1
 62
     7
  6
CONTINUOUS
 10
6.0665
 20
6.7993
  0
VERTEX
  8
LAYER1
 62
     7
  6
CONTINUOUS
 10
6.0657
 20
6.7983
  0
SEQEND
  8
LAYER1
  0
ARC
  8
LAYER1
 62
     7
  6
CONTINUOUS
 10
6.0629
 20
6.6833
 40
0.0075
 50
-68.1245
 51
68.1245
  0
ARC
  8
LAYER1
 62
     7
  6
CONTINUOUS
 10
6.0765
 20
7.2485
 40
0.0199
 50
-89.3809
 51
123.1990
  0
ARC
  8
LAYER1
 62
     7
  6
CONTINUOUS
 10
6.0765
 20
7.2485
 40
0.0199
 50
-123.1993
 51
-89.3809
  0
ARC
  8
LAYER1
 62
     7
  6
CONTINUOUS
 10
6.0696
 20
7.4277
 40
0.0100
 50
-89.3798
 51
113.3395
  0
ARC
  8
LAYER1
 62
     7
  6
CONTINUOUS
 10
6.0696
 20
7.4277
 40
0.0100
 50
-113.3315
 51
-89.3800
  0
ARC
  8
LAYER1
 62
     7
  6
CONTINUOUS
 10
6.7426
 20
6.5205
 40
0.0182
 50
164.8827
 51
171.7405
  0
ARC
  8
LAYER1
 62
     7
  6
CONTINUOUS
 10
6.7426
 20
6.5205
 40
0.0182
 50
8.2604
 51
164.8840
  0
ARC
  8
LAYER1
 62
     7
  6
CONTINUOUS
 10
6.6750
 20
6.5170
 40
0.0252
 50
14.0457
 51
165.9543
  0
ARC
  8
LAYER1
 62
     7
  6
CONTINUOUS
 10
6.9884
 20
6.5040
 40
0.0214
 50
70.2747
 51
116.8996
  0
ARC
  8
LAYER1
 62
     7
  6
CONTINUOUS
 10
6.9884
 20
6.5040
 40
0.0214
 50
63.1021
 51
70.2756
  0
ARC
  8
LAYER1
 62
     7
  6
CONTINUOUS
 10
6.9609
 20
6.5011
 40
0.0247
 50
66.8801
 51
116.9142
  0
ARC
  8
LAYER1
 62
     7
  6
CONTINUOUS
 10
6.9609
 20
6.5011
 40
0.0247
 50
63.0848
 51
66.8801
  0
POLYLINE
  8
LAYER12
 62
     5
 66
     1
  6
CONTINUOUS
  0
VERTEX
  8
LAYER12
 62
     5
  6
CONTINUOUS
 10
6.0657
 20
6.5235
  0
VERTEX
  8
LAYER12
 62
     5
  6
CONTINUOUS
 10
7.0490
 20
6.5235
  0
SEQEND
  8
LAYER12
  0
POLYLINE
  8
LAYER12
 62
     5
 66
     1
  6
CONTINUOUS
  0
VERTEX
  8
LAYER12
 62
     5
  6
CONTINUOUS
 10
7.0490
 20
7.5465
  0
VERTEX
  8
LAYER12
 62
     5
  6
CONTINUOUS
 10
6.0657
 20
7.5465
  0
SEQEND
  8
LAYER12
  0
POLYLINE
  8
LAYER12
 62
     5
 66
     1
  6
CONTINUOUS
  0
VERTEX
  8
LAYER12
 62
     5
  6
CONTINUOUS
 10
6.0657
 20
7.5480
  0
VERTEX
  8
LAYER12
 62
     5
  6
CONTINUOUS
 10
6.0657
 20
7.5460
  0
SEQEND
  8
LAYER12
  0
POLYLINE
  8
LAYER12
 62
     5
 66
     1
  6
CONTINUOUS
  0
VERTEX
  8
LAYER12
 62
     5
  6
CONTINUOUS
 10
6.0657
 20
7.5460
  0
VERTEX
  8
LAYER12
 62
     5
  6
CONTINUOUS
 10
6.0657
 20
6.5231
  0
SEQEND
  8
LAYER12
  0
POLYLINE
  8
LAYER12
 62
     5
 66
     1
  6
CONTINUOUS
  0
VERTEX
  8
LAYER12
 62
     5
  6
CONTINUOUS
 10
7.0493
 20
6.5231
  0
VERTEX
  8
LAYER12
 62
     5
  6
CONTINUOUS
 10
7.0493
 20
7.5460
  0
SEQEND
  8
LAYER12
  0
POLYLINE
  8
LAYER12
 62
     5
 66
     1
  6
CONTINUOUS
  0
VERTEX
  8
LAYER12
 62
     5
  6
CONTINUOUS
 10
7.0493
 20
7.5460
  0
VERTEX
  8
LAYER12
 62
     5
  6
CONTINUOUS
 10
7.0493
 20
7.5480
  0
SEQEND
  8
LAYER12
  0
ENDSEC
  0
EOF
