  0
SECTION
  2
HEADER
  9
$ACADVER
  1
AC1004
  9
$EXTMIN
 10
4.0574
 20
6.5235
  9
$EXTMAX
 10
5.0426
 20
7.5479
  9
$LIMMIN
 10
4.0574
 20
6.5235
  9
$LIMMAX
 10
5.0426
 20
7.5479
  9
$INSBASE
 10
0.0
 20
0.0
  9
$VIEWCTR
 10
7.21903
 20
4.5
  9
$VIEWSIZE
 40
9.0
  9
$SNAPMODE
 70
     0
  9
$SNAPUNIT
 10
1.0
 20
1.0
  9
$SNAPBASE
 10
0.0
 20
0.0
  9
$SNAPANG
 50
0.0
  9
$SNAPSTYLE
 70
     0
  9
$SNAPISOPAIR
 70
     0
  9
$GRIDMODE
 70
     0
  9
$GRIDUNIT
 10
0.0
 20
0.0
  9
$ORTHOMODE
 70
     0
  9
$REGENMODE
 70
     1
  9
$FILLMODE
 70
     1
  9
$QTEXTMODE
 70
     0
  9
$DRAGMODE
 70
     2
  9
$LTSCALE
 40
1.0
  9
$OSMODE
 70
     0
  9
$ATTMODE
 70
     1
  9
$TEXTSIZE
 40
0.2
  9
$TRACEWID
 40
0.05
  9
$TEXTSTYLE
  7
STANDARD
  9
$CLAYER
  8
0
  9
$CELTYPE
  6
BYLAYER
  9
$CECOLOR
 62
   256
  9
$DIMSCALE
 40
1.0
  9
$DIMASZ
 40
0.18
  9
$DIMEXO
 40
0.0625
  9
$DIMDLI
 40
0.38
  9
$DIMRND
 40
0.0
  9
$DIMDLE
 40
0.0
  9
$DIMEXE
 40
0.18
  9
$DIMTP
 40
0.0
  9
$DIMTM
 40
0.0
  9
$DIMTXT
 40
0.18
  9
$DIMCEN
 40
0.09
  9
$DIMTSZ
 40
0.0
  9
$DIMTOL
 70
     0
  9
$DIMLIM
 70
     0
  9
$DIMTIH
 70
     1
  9
$DIMTOH
 70
     1
  9
$DIMSE1
 70
     0
  9
$DIMSE2
 70
     0
  9
$DIMTAD
 70
     0
  9
$DIMZIN
 70
     0
  9
$DIMBLK
  1

  9
$DIMASO
 70
     1
  9
$DIMSHO
 70
     0
  9
$DIMPOST
  1

  9
$DIMAPOST
  1

  9
$DIMALT
 70
     0
  9
$DIMALTD
 70
     2
  9
$DIMALTF
 40
25.4
  9
$DIMLFAC
 40
1.0
  9
$LUNITS
 70
     2
  9
$LUPREC
 70
     4
  9
$AXISMODE
 70
     0
  9
$AXISUNIT
 10
0.0
 20
0.0
  9
$SKETCHINC
 40
0.1
  9
$FILLETRAD
 40
0.0
  9
$AUNITS
 70
     0
  9
$AUPREC
 70
     0
  9
$MENU
  1
acad
  9
$ELEVATION
 40
0.0
  9
$THICKNESS
 40
0.0
  9
$VIEWDIR
 10
0.0
 20
0.0
 30
1.0
  9
$LIMCHECK
 70
     0
  9
$BLIPMODE
 70
     1
  9
$CHAMFERA
 40
0.0
  9
$CHAMFERB
 40
0.0
  9
$FASTZOOM
 70
     1
  9
$SKPOLY
 70
     0
  9
$TDCREATE
 40
2447222.5666886573
  9
$TDUPDATE
 40
2447222.5666886573
  9
$TDINDWG
 40
0.0000000000
  9
$TDUSRTIMER
 40
0.0000000000
  9
$USRTIMER
 70
     1
  9
$ANGBASE
 50
0.0
  9
$ANGDIR
 70
     0
  9
$PDMODE
 70
     0
  9
$PDSIZE
 40
0.0
  9
$PLINEWID
 40
0.0
  9
$COORDS
 70
     0
  9
$SPLFRAME
 70
     0
  9
$SPLINESEGS
 70
     8
  9
$ATTDIA
 70
     0
  9
$ATTREQ
 70
     1
  9
$USERI1
 70
     0
  9
$USERI2
 70
     0
  9
$USERI3
 70
     0
  9
$USERI4
 70
     0
  9
$USERI5
 70
     0
  9
$USERR1
 40
0.0
  9
$USERR2
 40
0.0
  9
$USERR3
 40
0.0
  9
$USERR4
 40
0.0
  9
$USERR5
 40
0.0
  0
ENDSEC
  0
SECTION
  2
TABLES
  0
TABLE
  2
LTYPE
 70
     13
  0
LTYPE
  2
CONTINUOUS
 70
    64
  3
Solid line
 72
    65
 73
     0
 40
0.0
  0
LTYPE
  2
DASHED
 70
    64
  3
__ __ __ __ __ __ __ __ __ __ __ __ __ __ __
 72
    65
 73
     2
 40
0.75
 49
0.5
 49
-0.25
  0
LTYPE
  2
HIDDEN
 70
    64
  3
_ _ _ _ _ _ _ _ _ _ _ _ _ _ _ _ _ _ _ _ _ _ _
 72
    65
 73
     2
 40
0.375
 49
0.25
 49
-0.125
  0
LTYPE
  2
CENTER
 70
    64
  3
____ _ ____ _ ____ _ ____ _ ____ _ ____ _ ____
 72
    65
 73
     4
 40
2.0
 49
1.25
 49
-0.25
 49
0.25
 49
-0.25
  0
LTYPE
  2
PHANTOM
 70
    64
  3
_____ _ _ _____ _ _ _____ _ _ _____ _ _ ____
 72
    65
 73
     6
 40
2.5
 49
1.25
 49
-0.25
 49
0.25
 49
-0.25
 49
0.25
 49
-0.25
  0
LTYPE
  2
DOT
 70
    64
  3
...............................................
 72
    65
 73
     2
 40
0.25
 49
0.0
 49
-0.25
  0
LTYPE
  2
DASHDOT
 70
    64
  3
__ . __ . __ . __ . __ . __ . __ . __ . __ . __
 72
    65
 73
     4
 40
1.0
 49
0.5
 49
-0.25
 49
0.0
 49
-0.25
  0
LTYPE
  2
BORDER
 70
    64
  3
__ __ . __ __ . __ __ . __ __ . __ __ . __ __
 72
    65
 73
     6
 40
1.75
 49
0.5
 49
-0.25
 49
0.5
 49
-0.25
 49
0.0
 49
-0.25
  0
LTYPE
  2
DIVIDE
 70
    64
  3
__ . . __ . . __ . . __ . . __ . . __ . . __
 72
    65
 73
     6
 40
1.25
 49
0.5
 49
-0.25
 49
0.0
 49
-0.25
 49
0.0
 49
-0.25
  0
LTYPE
  2
DCTYPE1
 70
    64
  3
__ . . __ . . __ . . __ . . __ . . __ . . __
 72
    65
 73
     8
 40
2.5
 49
0.5
 49
-0.25
 49
0.125
 49
-0.25
 49
0.25
 49
-0.25
 49
0.125
 49
-0.25
  0
LTYPE
  2
DCTYPE2
 70
    64
  3
__ . . __ . . __ . . __ . . __ . . __ . . __
 72
    65
 73
     6
 40
2.05
 49
1.0
 49
-0.3
 49
0.15
 49
-0.15
 49
0.15
 49
-0.3
  0
LTYPE
  2
DCTYPE3
 70
    64
  3
__ . . __ . . __ . . __ . . __ . . __ . . __
 72
    65
 73
     6
 40
2.5
 49
0.8
 49
-0.2
 49
0.8
 49
-0.2
 49
0.3
 49
-0.2
  0
LTYPE
  2
DCTYPE4
 70
    64
  3
__ . . __ . . __ . . __ . . __ . . __ . . __
 72
    65
 73
     10
 40
3.97
 49
1.75
 49
-0.3
 49
0.3
 49
-0.3
 49
0.06
 49
-0.3
 49
0.06
 49
-0.3
 49
0.3
 49
-0.3
  0
ENDTAB
  0
TABLE
  2
LAYER
 70
    153
  0
LAYER
  2
LAYER1
 70
 64
 62
     7
  6
CONTINUOUS
  0
LAYER
  2
LAYER10
 70
 64
 62
     1
  6
CONTINUOUS
  0
LAYER
  2
LAYER12
 70
 64
 62
     5
  6
CONTINUOUS
  0
ENDTAB
  0
ENDSEC
  0
SECTION
  2
BLOCKS
  0
ENDSEC
  0
SECTION
  2
ENTITIES
  0
CIRCLE
  8
LAYER1
 62
     7
  6
CONTINUOUS
 10
4.1902
 20
7.4393
 40
0.0145
  0
CIRCLE
  8
LAYER1
 62
     7
  6
CONTINUOUS
 10
4.1131
 20
7.4310
 40
0.0157
  0
CIRCLE
  8
LAYER1
 62
     7
  6
CONTINUOUS
 10
4.0804
 20
7.4630
 40
0.0145
  0
POLYLINE
  8
LAYER1
 62
     7
 66
     1
  6
CONTINUOUS
  0
VERTEX
  8
LAYER1
 62
     7
  6
CONTINUOUS
 10
4.1291
 20
7.3316
  0
VERTEX
  8
LAYER1
 62
     7
  6
CONTINUOUS
 10
4.1390
 20
7.3367
  0
SEQEND
  8
LAYER1
  0
CIRCLE
  8
LAYER1
 62
     7
  6
CONTINUOUS
 10
4.3268
 20
7.4607
 40
0.0167
  0
CIRCLE
  8
LAYER1
 62
     7
  6
CONTINUOUS
 10
4.3328
 20
7.3687
 40
0.0179
  0
CIRCLE
  8
LAYER1
 62
     7
  6
CONTINUOUS
 10
4.3993
 20
7.4317
 40
0.0127
  0
CIRCLE
  8
LAYER1
 62
     7
  6
CONTINUOUS
 10
4.4757
 20
7.5022
 40
0.0167
  0
CIRCLE
  8
LAYER1
 62
     7
  6
CONTINUOUS
 10
4.6944
 20
7.5345
 40
0.0075
  0
CIRCLE
  8
LAYER1
 62
     7
  6
CONTINUOUS
 10
4.7148
 20
7.4874
 40
0.0111
  0
CIRCLE
  8
LAYER1
 62
     7
  6
CONTINUOUS
 10
4.6953
 20
7.4573
 40
0.0179
  0
CIRCLE
  8
LAYER1
 62
     7
  6
CONTINUOUS
 10
4.7606
 20
7.4033
 40
0.0100
  0
CIRCLE
  8
LAYER1
 62
     7
  6
CONTINUOUS
 10
4.6958
 20
7.4100
 40
0.0134
  0
CIRCLE
  8
LAYER1
 62
     7
  6
CONTINUOUS
 10
4.6863
 20
7.3651
 40
0.0174
  0
CIRCLE
  8
LAYER1
 62
     7
  6
CONTINUOUS
 10
4.7018
 20
7.3105
 40
0.0134
  0
CIRCLE
  8
LAYER1
 62
     7
  6
CONTINUOUS
 10
4.6621
 20
7.3001
 40
0.0075
  0
CIRCLE
  8
LAYER1
 62
     7
  6
CONTINUOUS
 10
4.6427
 20
7.2551
 40
0.0134
  0
CIRCLE
  8
LAYER1
 62
     7
  6
CONTINUOUS
 10
4.6076
 20
7.2771
 40
0.0157
  0
CIRCLE
  8
LAYER1
 62
     7
  6
CONTINUOUS
 10
4.7867
 20
7.2891
 40
0.0205
  0
CIRCLE
  8
LAYER1
 62
     7
  6
CONTINUOUS
 10
4.9882
 20
7.3037
 40
0.0079
  0
CIRCLE
  8
LAYER1
 62
     7
  6
CONTINUOUS
 10
4.6242
 20
7.1255
 40
0.0181
  0
CIRCLE
  8
LAYER1
 62
     7
  6
CONTINUOUS
 10
4.5144
 20
7.1516
 40
0.0100
  0
CIRCLE
  8
LAYER1
 62
     7
  6
CONTINUOUS
 10
4.4773
 20
7.1363
 40
0.0056
  0
CIRCLE
  8
LAYER1
 62
     7
  6
CONTINUOUS
 10
4.4450
 20
7.1260
 40
0.0050
  0
CIRCLE
  8
LAYER1
 62
     7
  6
CONTINUOUS
 10
4.4793
 20
7.1761
 40
0.0050
  0
CIRCLE
  8
LAYER1
 62
     7
  6
CONTINUOUS
 10
4.4665
 20
7.2084
 40
0.0176
  0
CIRCLE
  8
LAYER1
 62
     7
  6
CONTINUOUS
 10
4.4612
 20
7.2382
 40
0.0127
  0
CIRCLE
  8
LAYER1
 62
     7
  6
CONTINUOUS
 10
4.4413
 20
7.2380
 40
0.0127
  0
CIRCLE
  8
LAYER1
 62
     7
  6
CONTINUOUS
 10
4.4165
 20
7.2302
 40
0.0134
  0
CIRCLE
  8
LAYER1
 62
     7
  6
CONTINUOUS
 10
4.3688
 20
7.2621
 40
0.0090
  0
CIRCLE
  8
LAYER1
 62
     7
  6
CONTINUOUS
 10
4.3684
 20
7.3044
 40
0.0050
  0
CIRCLE
  8
LAYER1
 62
     7
  6
CONTINUOUS
 10
4.4033
 20
7.2998
 40
0.0149
  0
CIRCLE
  8
LAYER1
 62
     7
  6
CONTINUOUS
 10
4.4454
 20
7.3152
 40
0.0102
  0
CIRCLE
  8
LAYER1
 62
     7
  6
CONTINUOUS
 10
4.4496
 20
7.3849
 40
0.0201
  0
CIRCLE
  8
LAYER1
 62
     7
  6
CONTINUOUS
 10
4.5288
 20
7.4281
 40
0.0127
  0
CIRCLE
  8
LAYER1
 62
     7
  6
CONTINUOUS
 10
4.5638
 20
7.4160
 40
0.0103
  0
CIRCLE
  8
LAYER1
 62
     7
  6
CONTINUOUS
 10
4.5935
 20
7.4313
 40
0.0151
  0
CIRCLE
  8
LAYER1
 62
     7
  6
CONTINUOUS
 10
4.5469
 20
7.3661
 40
0.0199
  0
POLYLINE
  8
LAYER1
 62
     7
 66
     1
  6
CONTINUOUS
  0
VERTEX
  8
LAYER1
 62
     7
  6
CONTINUOUS
 10
4.5493
 20
7.1520
  0
VERTEX
  8
LAYER1
 62
     7
  6
CONTINUOUS
 10
4.5476
 20
7.1529
  0
VERTEX
  8
LAYER1
 62
     7
  6
CONTINUOUS
 10
4.5461
 20
7.1539
  0
VERTEX
  8
LAYER1
 62
     7
  6
CONTINUOUS
 10
4.5447
 20
7.1552
  0
VERTEX
  8
LAYER1
 62
     7
  6
CONTINUOUS
 10
4.5434
 20
7.1567
  0
VERTEX
  8
LAYER1
 62
     7
  6
CONTINUOUS
 10
4.5422
 20
7.1584
  0
VERTEX
  8
LAYER1
 62
     7
  6
CONTINUOUS
 10
4.5410
 20
7.1601
  0
VERTEX
  8
LAYER1
 62
     7
  6
CONTINUOUS
 10
4.5399
 20
7.1620
  0
VERTEX
  8
LAYER1
 62
     7
  6
CONTINUOUS
 10
4.5388
 20
7.1640
  0
VERTEX
  8
LAYER1
 62
     7
  6
CONTINUOUS
 10
4.5377
 20
7.1660
  0
VERTEX
  8
LAYER1
 62
     7
  6
CONTINUOUS
 10
4.5365
 20
7.1679
  0
VERTEX
  8
LAYER1
 62
     7
  6
CONTINUOUS
 10
4.5353
 20
7.1699
  0
VERTEX
  8
LAYER1
 62
     7
  6
CONTINUOUS
 10
4.5341
 20
7.1718
  0
VERTEX
  8
LAYER1
 62
     7
  6
CONTINUOUS
 10
4.5332
 20
7.1731
  0
VERTEX
  8
LAYER1
 62
     7
  6
CONTINUOUS
 10
4.5322
 20
7.1744
  0
VERTEX
  8
LAYER1
 62
     7
  6
CONTINUOUS
 10
4.5313
 20
7.1756
  0
VERTEX
  8
LAYER1
 62
     7
  6
CONTINUOUS
 10
4.5303
 20
7.1768
  0
VERTEX
  8
LAYER1
 62
     7
  6
CONTINUOUS
 10
4.5293
 20
7.1780
  0
VERTEX
  8
LAYER1
 62
     7
  6
CONTINUOUS
 10
4.5284
 20
7.1792
  0
VERTEX
  8
LAYER1
 62
     7
  6
CONTINUOUS
 10
4.5275
 20
7.1804
  0
VERTEX
  8
LAYER1
 62
     7
  6
CONTINUOUS
 10
4.5266
 20
7.1816
  0
VERTEX
  8
LAYER1
 62
     7
  6
CONTINUOUS
 10
4.5258
 20
7.1828
  0
VERTEX
  8
LAYER1
 62
     7
  6
CONTINUOUS
 10
4.5251
 20
7.1840
  0
VERTEX
  8
LAYER1
 62
     7
  6
CONTINUOUS
 10
4.5245
 20
7.1853
  0
VERTEX
  8
LAYER1
 62
     7
  6
CONTINUOUS
 10
4.5240
 20
7.1866
  0
VERTEX
  8
LAYER1
 62
     7
  6
CONTINUOUS
 10
4.5235
 20
7.1881
  0
VERTEX
  8
LAYER1
 62
     7
  6
CONTINUOUS
 10
4.5232
 20
7.1897
  0
VERTEX
  8
LAYER1
 62
     7
  6
CONTINUOUS
 10
4.5230
 20
7.1913
  0
VERTEX
  8
LAYER1
 62
     7
  6
CONTINUOUS
 10
4.5229
 20
7.1929
  0
VERTEX
  8
LAYER1
 62
     7
  6
CONTINUOUS
 10
4.5229
 20
7.1946
  0
VERTEX
  8
LAYER1
 62
     7
  6
CONTINUOUS
 10
4.5229
 20
7.1963
  0
VERTEX
  8
LAYER1
 62
     7
  6
CONTINUOUS
 10
4.5230
 20
7.1980
  0
VERTEX
  8
LAYER1
 62
     7
  6
CONTINUOUS
 10
4.5231
 20
7.1997
  0
VERTEX
  8
LAYER1
 62
     7
  6
CONTINUOUS
 10
4.5233
 20
7.2014
  0
VERTEX
  8
LAYER1
 62
     7
  6
CONTINUOUS
 10
4.5234
 20
7.2032
  0
VERTEX
  8
LAYER1
 62
     7
  6
CONTINUOUS
 10
4.5236
 20
7.2048
  0
VERTEX
  8
LAYER1
 62
     7
  6
CONTINUOUS
 10
4.5238
 20
7.2065
  0
VERTEX
  8
LAYER1
 62
     7
  6
CONTINUOUS
 10
4.5240
 20
7.2090
  0
VERTEX
  8
LAYER1
 62
     7
  6
CONTINUOUS
 10
4.5241
 20
7.2114
  0
VERTEX
  8
LAYER1
 62
     7
  6
CONTINUOUS
 10
4.5242
 20
7.2138
  0
VERTEX
  8
LAYER1
 62
     7
  6
CONTINUOUS
 10
4.5243
 20
7.2162
  0
VERTEX
  8
LAYER1
 62
     7
  6
CONTINUOUS
 10
4.5245
 20
7.2186
  0
VERTEX
  8
LAYER1
 62
     7
  6
CONTINUOUS
 10
4.5247
 20
7.2209
  0
VERTEX
  8
LAYER1
 62
     7
  6
CONTINUOUS
 10
4.5250
 20
7.2234
  0
VERTEX
  8
LAYER1
 62
     7
  6
CONTINUOUS
 10
4.5254
 20
7.2258
  0
VERTEX
  8
LAYER1
 62
     7
  6
CONTINUOUS
 10
4.5259
 20
7.2283
  0
VERTEX
  8
LAYER1
 62
     7
  6
CONTINUOUS
 10
4.5265
 20
7.2309
  0
VERTEX
  8
LAYER1
 62
     7
  6
CONTINUOUS
 10
4.5274
 20
7.2336
  0
VERTEX
  8
LAYER1
 62
     7
  6
CONTINUOUS
 10
4.5284
 20
7.2364
  0
VERTEX
  8
LAYER1
 62
     7
  6
CONTINUOUS
 10
4.5293
 20
7.2386
  0
VERTEX
  8
LAYER1
 62
     7
  6
CONTINUOUS
 10
4.5303
 20
7.2407
  0
VERTEX
  8
LAYER1
 62
     7
  6
CONTINUOUS
 10
4.5314
 20
7.2429
  0
VERTEX
  8
LAYER1
 62
     7
  6
CONTINUOUS
 10
4.5325
 20
7.2450
  0
VERTEX
  8
LAYER1
 62
     7
  6
CONTINUOUS
 10
4.5335
 20
7.2471
  0
VERTEX
  8
LAYER1
 62
     7
  6
CONTINUOUS
 10
4.5346
 20
7.2491
  0
VERTEX
  8
LAYER1
 62
     7
  6
CONTINUOUS
 10
4.5355
 20
7.2509
  0
VERTEX
  8
LAYER1
 62
     7
  6
CONTINUOUS
 10
4.5364
 20
7.2525
  0
VERTEX
  8
LAYER1
 62
     7
  6
CONTINUOUS
 10
4.5371
 20
7.2539
  0
VERTEX
  8
LAYER1
 62
     7
  6
CONTINUOUS
 10
4.5377
 20
7.2551
  0
VERTEX
  8
LAYER1
 62
     7
  6
CONTINUOUS
 10
4.5380
 20
7.2559
  0
VERTEX
  8
LAYER1
 62
     7
  6
CONTINUOUS
 10
4.5382
 20
7.2565
  0
VERTEX
  8
LAYER1
 62
     7
  6
CONTINUOUS
 10
4.5381
 20
7.2565
  0
VERTEX
  8
LAYER1
 62
     7
  6
CONTINUOUS
 10
4.5381
 20
7.2566
  0
VERTEX
  8
LAYER1
 62
     7
  6
CONTINUOUS
 10
4.5381
 20
7.2566
  0
VERTEX
  8
LAYER1
 62
     7
  6
CONTINUOUS
 10
4.5381
 20
7.2566
  0
VERTEX
  8
LAYER1
 62
     7
  6
CONTINUOUS
 10
4.5381
 20
7.2566
  0
VERTEX
  8
LAYER1
 62
     7
  6
CONTINUOUS
 10
4.5381
 20
7.2567
  0
VERTEX
  8
LAYER1
 62
     7
  6
CONTINUOUS
 10
4.5380
 20
7.2566
  0
VERTEX
  8
LAYER1
 62
     7
  6
CONTINUOUS
 10
4.5380
 20
7.2566
  0
VERTEX
  8
LAYER1
 62
     7
  6
CONTINUOUS
 10
4.5380
 20
7.2566
  0
VERTEX
  8
LAYER1
 62
     7
  6
CONTINUOUS
 10
4.5381
 20
7.2566
  0
VERTEX
  8
LAYER1
 62
     7
  6
CONTINUOUS
 10
4.5381
 20
7.2565
  0
VERTEX
  8
LAYER1
 62
     7
  6
CONTINUOUS
 10
4.5382
 20
7.2565
  0
VERTEX
  8
LAYER1
 62
     7
  6
CONTINUOUS
 10
4.5386
 20
7.2562
  0
VERTEX
  8
LAYER1
 62
     7
  6
CONTINUOUS
 10
4.5393
 20
7.2558
  0
VERTEX
  8
LAYER1
 62
     7
  6
CONTINUOUS
 10
4.5403
 20
7.2552
  0
VERTEX
  8
LAYER1
 62
     7
  6
CONTINUOUS
 10
4.5415
 20
7.2546
  0
VERTEX
  8
LAYER1
 62
     7
  6
CONTINUOUS
 10
4.5429
 20
7.2539
  0
VERTEX
  8
LAYER1
 62
     7
  6
CONTINUOUS
 10
4.5444
 20
7.2531
  0
VERTEX
  8
LAYER1
 62
     7
  6
CONTINUOUS
 10
4.5459
 20
7.2522
  0
VERTEX
  8
LAYER1
 62
     7
  6
CONTINUOUS
 10
4.5475
 20
7.2513
  0
VERTEX
  8
LAYER1
 62
     7
  6
CONTINUOUS
 10
4.5491
 20
7.2502
  0
VERTEX
  8
LAYER1
 62
     7
  6
CONTINUOUS
 10
4.5506
 20
7.2491
  0
VERTEX
  8
LAYER1
 62
     7
  6
CONTINUOUS
 10
4.5520
 20
7.2479
  0
VERTEX
  8
LAYER1
 62
     7
  6
CONTINUOUS
 10
4.5532
 20
7.2467
  0
VERTEX
  8
LAYER1
 62
     7
  6
CONTINUOUS
 10
4.5541
 20
7.2455
  0
VERTEX
  8
LAYER1
 62
     7
  6
CONTINUOUS
 10
4.5549
 20
7.2443
  0
VERTEX
  8
LAYER1
 62
     7
  6
CONTINUOUS
 10
4.5556
 20
7.2431
  0
VERTEX
  8
LAYER1
 62
     7
  6
CONTINUOUS
 10
4.5561
 20
7.2419
  0
VERTEX
  8
LAYER1
 62
     7
  6
CONTINUOUS
 10
4.5566
 20
7.2407
  0
VERTEX
  8
LAYER1
 62
     7
  6
CONTINUOUS
 10
4.5569
 20
7.2394
  0
VERTEX
  8
LAYER1
 62
     7
  6
CONTINUOUS
 10
4.5572
 20
7.2381
  0
VERTEX
  8
LAYER1
 62
     7
  6
CONTINUOUS
 10
4.5575
 20
7.2368
  0
VERTEX
  8
LAYER1
 62
     7
  6
CONTINUOUS
 10
4.5577
 20
7.2356
  0
VERTEX
  8
LAYER1
 62
     7
  6
CONTINUOUS
 10
4.5579
 20
7.2343
  0
VERTEX
  8
LAYER1
 62
     7
  6
CONTINUOUS
 10
4.5581
 20
7.2330
  0
VERTEX
  8
LAYER1
 62
     7
  6
CONTINUOUS
 10
4.5583
 20
7.2318
  0
VERTEX
  8
LAYER1
 62
     7
  6
CONTINUOUS
 10
4.5586
 20
7.2306
  0
VERTEX
  8
LAYER1
 62
     7
  6
CONTINUOUS
 10
4.5589
 20
7.2294
  0
VERTEX
  8
LAYER1
 62
     7
  6
CONTINUOUS
 10
4.5592
 20
7.2282
  0
VERTEX
  8
LAYER1
 62
     7
  6
CONTINUOUS
 10
4.5595
 20
7.2270
  0
VERTEX
  8
LAYER1
 62
     7
  6
CONTINUOUS
 10
4.5599
 20
7.2258
  0
VERTEX
  8
LAYER1
 62
     7
  6
CONTINUOUS
 10
4.5603
 20
7.2246
  0
VERTEX
  8
LAYER1
 62
     7
  6
CONTINUOUS
 10
4.5607
 20
7.2234
  0
VERTEX
  8
LAYER1
 62
     7
  6
CONTINUOUS
 10
4.5612
 20
7.2222
  0
VERTEX
  8
LAYER1
 62
     7
  6
CONTINUOUS
 10
4.5617
 20
7.2209
  0
VERTEX
  8
LAYER1
 62
     7
  6
CONTINUOUS
 10
4.5623
 20
7.2196
  0
VERTEX
  8
LAYER1
 62
     7
  6
CONTINUOUS
 10
4.5629
 20
7.2183
  0
VERTEX
  8
LAYER1
 62
     7
  6
CONTINUOUS
 10
4.5635
 20
7.2169
  0
VERTEX
  8
LAYER1
 62
     7
  6
CONTINUOUS
 10
4.5644
 20
7.2148
  0
VERTEX
  8
LAYER1
 62
     7
  6
CONTINUOUS
 10
4.5655
 20
7.2127
  0
VERTEX
  8
LAYER1
 62
     7
  6
CONTINUOUS
 10
4.5665
 20
7.2105
  0
VERTEX
  8
LAYER1
 62
     7
  6
CONTINUOUS
 10
4.5676
 20
7.2084
  0
VERTEX
  8
LAYER1
 62
     7
  6
CONTINUOUS
 10
4.5686
 20
7.2063
  0
VERTEX
  8
LAYER1
 62
     7
  6
CONTINUOUS
 10
4.5696
 20
7.2043
  0
VERTEX
  8
LAYER1
 62
     7
  6
CONTINUOUS
 10
4.5706
 20
7.2025
  0
VERTEX
  8
LAYER1
 62
     7
  6
CONTINUOUS
 10
4.5714
 20
7.2008
  0
VERTEX
  8
LAYER1
 62
     7
  6
CONTINUOUS
 10
4.5722
 20
7.1994
  0
VERTEX
  8
LAYER1
 62
     7
  6
CONTINUOUS
 10
4.5729
 20
7.1983
  0
VERTEX
  8
LAYER1
 62
     7
  6
CONTINUOUS
 10
4.5733
 20
7.1975
  0
VERTEX
  8
LAYER1
 62
     7
  6
CONTINUOUS
 10
4.5737
 20
7.1971
  0
VERTEX
  8
LAYER1
 62
     7
  6
CONTINUOUS
 10
4.5737
 20
7.1971
  0
VERTEX
  8
LAYER1
 62
     7
  6
CONTINUOUS
 10
4.5737
 20
7.1970
  0
VERTEX
  8
LAYER1
 62
     7
  6
CONTINUOUS
 10
4.5738
 20
7.1970
  0
VERTEX
  8
LAYER1
 62
     7
  6
CONTINUOUS
 10
4.5738
 20
7.1970
  0
VERTEX
  8
LAYER1
 62
     7
  6
CONTINUOUS
 10
4.5738
 20
7.1971
  0
VERTEX
  8
LAYER1
 62
     7
  6
CONTINUOUS
 10
4.5738
 20
7.1971
  0
VERTEX
  8
LAYER1
 62
     7
  6
CONTINUOUS
 10
4.5738
 20
7.1971
  0
VERTEX
  8
LAYER1
 62
     7
  6
CONTINUOUS
 10
4.5738
 20
7.1971
  0
VERTEX
  8
LAYER1
 62
     7
  6
CONTINUOUS
 10
4.5738
 20
7.1971
  0
VERTEX
  8
LAYER1
 62
     7
  6
CONTINUOUS
 10
4.5737
 20
7.1971
  0
VERTEX
  8
LAYER1
 62
     7
  6
CONTINUOUS
 10
4.5737
 20
7.1971
  0
VERTEX
  8
LAYER1
 62
     7
  6
CONTINUOUS
 10
4.5737
 20
7.1971
  0
VERTEX
  8
LAYER1
 62
     7
  6
CONTINUOUS
 10
4.5732
 20
7.1967
  0
VERTEX
  8
LAYER1
 62
     7
  6
CONTINUOUS
 10
4.5725
 20
7.1956
  0
VERTEX
  8
LAYER1
 62
     7
  6
CONTINUOUS
 10
4.5716
 20
7.1941
  0
VERTEX
  8
LAYER1
 62
     7
  6
CONTINUOUS
 10
4.5705
 20
7.1921
  0
VERTEX
  8
LAYER1
 62
     7
  6
CONTINUOUS
 10
4.5694
 20
7.1897
  0
VERTEX
  8
LAYER1
 62
     7
  6
CONTINUOUS
 10
4.5682
 20
7.1870
  0
VERTEX
  8
LAYER1
 62
     7
  6
CONTINUOUS
 10
4.5671
 20
7.1840
  0
VERTEX
  8
LAYER1
 62
     7
  6
CONTINUOUS
 10
4.5660
 20
7.1808
  0
VERTEX
  8
LAYER1
 62
     7
  6
CONTINUOUS
 10
4.5652
 20
7.1774
  0
VERTEX
  8
LAYER1
 62
     7
  6
CONTINUOUS
 10
4.5645
 20
7.1740
  0
VERTEX
  8
LAYER1
 62
     7
  6
CONTINUOUS
 10
4.5641
 20
7.1705
  0
VERTEX
  8
LAYER1
 62
     7
  6
CONTINUOUS
 10
4.5640
 20
7.1671
  0
VERTEX
  8
LAYER1
 62
     7
  6
CONTINUOUS
 10
4.5641
 20
7.1655
  0
VERTEX
  8
LAYER1
 62
     7
  6
CONTINUOUS
 10
4.5643
 20
7.1640
  0
VERTEX
  8
LAYER1
 62
     7
  6
CONTINUOUS
 10
4.5645
 20
7.1625
  0
VERTEX
  8
LAYER1
 62
     7
  6
CONTINUOUS
 10
4.5647
 20
7.1610
  0
VERTEX
  8
LAYER1
 62
     7
  6
CONTINUOUS
 10
4.5649
 20
7.1596
  0
VERTEX
  8
LAYER1
 62
     7
  6
CONTINUOUS
 10
4.5651
 20
7.1583
  0
VERTEX
  8
LAYER1
 62
     7
  6
CONTINUOUS
 10
4.5652
 20
7.1570
  0
VERTEX
  8
LAYER1
 62
     7
  6
CONTINUOUS
 10
4.5653
 20
7.1558
  0
VERTEX
  8
LAYER1
 62
     7
  6
CONTINUOUS
 10
4.5652
 20
7.1548
  0
VERTEX
  8
LAYER1
 62
     7
  6
CONTINUOUS
 10
4.5651
 20
7.1538
  0
VERTEX
  8
LAYER1
 62
     7
  6
CONTINUOUS
 10
4.5647
 20
7.1529
  0
VERTEX
  8
LAYER1
 62
     7
  6
CONTINUOUS
 10
4.5642
 20
7.1522
  0
VERTEX
  8
LAYER1
 62
     7
  6
CONTINUOUS
 10
4.5635
 20
7.1516
  0
VERTEX
  8
LAYER1
 62
     7
  6
CONTINUOUS
 10
4.5626
 20
7.1511
  0
VERTEX
  8
LAYER1
 62
     7
  6
CONTINUOUS
 10
4.5616
 20
7.1507
  0
VERTEX
  8
LAYER1
 62
     7
  6
CONTINUOUS
 10
4.5604
 20
7.1505
  0
VERTEX
  8
LAYER1
 62
     7
  6
CONTINUOUS
 10
4.5591
 20
7.1503
  0
VERTEX
  8
LAYER1
 62
     7
  6
CONTINUOUS
 10
4.5578
 20
7.1503
  0
VERTEX
  8
LAYER1
 62
     7
  6
CONTINUOUS
 10
4.5564
 20
7.1504
  0
VERTEX
  8
LAYER1
 62
     7
  6
CONTINUOUS
 10
4.5549
 20
7.1505
  0
VERTEX
  8
LAYER1
 62
     7
  6
CONTINUOUS
 10
4.5535
 20
7.1508
  0
VERTEX
  8
LAYER1
 62
     7
  6
CONTINUOUS
 10
4.5520
 20
7.1511
  0
VERTEX
  8
LAYER1
 62
     7
  6
CONTINUOUS
 10
4.5506
 20
7.1515
  0
VERTEX
  8
LAYER1
 62
     7
  6
CONTINUOUS
 10
4.5493
 20
7.1520
  0
SEQEND
  8
LAYER1
  0
CIRCLE
  8
LAYER1
 62
     7
  6
CONTINUOUS
 10
4.1984
 20
7.1382
 40
0.0151
  0
CIRCLE
  8
LAYER1
 62
     7
  6
CONTINUOUS
 10
4.2939
 20
7.0596
 40
0.0250
  0
CIRCLE
  8
LAYER1
 62
     7
  6
CONTINUOUS
 10
4.2870
 20
7.0048
 40
0.0050
  0
CIRCLE
  8
LAYER1
 62
     7
  6
CONTINUOUS
 10
4.2372
 20
7.0092
 40
0.0111
  0
CIRCLE
  8
LAYER1
 62
     7
  6
CONTINUOUS
 10
4.1575
 20
7.0133
 40
0.0100
  0
CIRCLE
  8
LAYER1
 62
     7
  6
CONTINUOUS
 10
4.1830
 20
6.9588
 40
0.0070
  0
CIRCLE
  8
LAYER1
 62
     7
  6
CONTINUOUS
 10
4.2956
 20
6.9078
 40
0.0275
  0
CIRCLE
  8
LAYER1
 62
     7
  6
CONTINUOUS
 10
4.2040
 20
6.8645
 40
0.0254
  0
POLYLINE
  8
LAYER1
 62
     7
 66
     1
  6
CONTINUOUS
  0
VERTEX
  8
LAYER1
 62
     7
  6
CONTINUOUS
 10
4.5930
 20
6.7941
  0
VERTEX
  8
LAYER1
 62
     7
  6
CONTINUOUS
 10
4.5949
 20
6.7921
  0
VERTEX
  8
LAYER1
 62
     7
  6
CONTINUOUS
 10
4.5968
 20
6.7901
  0
VERTEX
  8
LAYER1
 62
     7
  6
CONTINUOUS
 10
4.5987
 20
6.7882
  0
VERTEX
  8
LAYER1
 62
     7
  6
CONTINUOUS
 10
4.6007
 20
6.7863
  0
VERTEX
  8
LAYER1
 62
     7
  6
CONTINUOUS
 10
4.6027
 20
6.7845
  0
VERTEX
  8
LAYER1
 62
     7
  6
CONTINUOUS
 10
4.6047
 20
6.7827
  0
VERTEX
  8
LAYER1
 62
     7
  6
CONTINUOUS
 10
4.6068
 20
6.7810
  0
VERTEX
  8
LAYER1
 62
     7
  6
CONTINUOUS
 10
4.6089
 20
6.7795
  0
VERTEX
  8
LAYER1
 62
     7
  6
CONTINUOUS
 10
4.6111
 20
6.7780
  0
VERTEX
  8
LAYER1
 62
     7
  6
CONTINUOUS
 10
4.6133
 20
6.7767
  0
VERTEX
  8
LAYER1
 62
     7
  6
CONTINUOUS
 10
4.6157
 20
6.7755
  0
VERTEX
  8
LAYER1
 62
     7
  6
CONTINUOUS
 10
4.6181
 20
6.7744
  0
VERTEX
  8
LAYER1
 62
     7
  6
CONTINUOUS
 10
4.6214
 20
6.7733
  0
VERTEX
  8
LAYER1
 62
     7
  6
CONTINUOUS
 10
4.6248
 20
6.7725
  0
VERTEX
  8
LAYER1
 62
     7
  6
CONTINUOUS
 10
4.6283
 20
6.7718
  0
VERTEX
  8
LAYER1
 62
     7
  6
CONTINUOUS
 10
4.6319
 20
6.7712
  0
VERTEX
  8
LAYER1
 62
     7
  6
CONTINUOUS
 10
4.6355
 20
6.7707
  0
VERTEX
  8
LAYER1
 62
     7
  6
CONTINUOUS
 10
4.6391
 20
6.7703
  0
VERTEX
  8
LAYER1
 62
     7
  6
CONTINUOUS
 10
4.6426
 20
6.7698
  0
VERTEX
  8
LAYER1
 62
     7
  6
CONTINUOUS
 10
4.6460
 20
6.7692
  0
VERTEX
  8
LAYER1
 62
     7
  6
CONTINUOUS
 10
4.6493
 20
6.7685
  0
VERTEX
  8
LAYER1
 62
     7
  6
CONTINUOUS
 10
4.6524
 20
6.7675
  0
VERTEX
  8
LAYER1
 62
     7
  6
CONTINUOUS
 10
4.6554
 20
6.7664
  0
VERTEX
  8
LAYER1
 62
     7
  6
CONTINUOUS
 10
4.6581
 20
6.7649
  0
VERTEX
  8
LAYER1
 62
     7
  6
CONTINUOUS
 10
4.6615
 20
6.7623
  0
VERTEX
  8
LAYER1
 62
     7
  6
CONTINUOUS
 10
4.6644
 20
6.7591
  0
VERTEX
  8
LAYER1
 62
     7
  6
CONTINUOUS
 10
4.6670
 20
6.7553
  0
VERTEX
  8
LAYER1
 62
     7
  6
CONTINUOUS
 10
4.6692
 20
6.7512
  0
VERTEX
  8
LAYER1
 62
     7
  6
CONTINUOUS
 10
4.6714
 20
6.7468
  0
VERTEX
  8
LAYER1
 62
     7
  6
CONTINUOUS
 10
4.6734
 20
6.7421
  0
VERTEX
  8
LAYER1
 62
     7
  6
CONTINUOUS
 10
4.6754
 20
6.7374
  0
VERTEX
  8
LAYER1
 62
     7
  6
CONTINUOUS
 10
4.6775
 20
6.7326
  0
VERTEX
  8
LAYER1
 62
     7
  6
CONTINUOUS
 10
4.6797
 20
6.7279
  0
VERTEX
  8
LAYER1
 62
     7
  6
CONTINUOUS
 10
4.6823
 20
6.7235
  0
VERTEX
  8
LAYER1
 62
     7
  6
CONTINUOUS
 10
4.6852
 20
6.7193
  0
VERTEX
  8
LAYER1
 62
     7
  6
CONTINUOUS
 10
4.6885
 20
6.7155
  0
VERTEX
  8
LAYER1
 62
     7
  6
CONTINUOUS
 10
4.6899
 20
6.7141
  0
VERTEX
  8
LAYER1
 62
     7
  6
CONTINUOUS
 10
4.6914
 20
6.7129
  0
VERTEX
  8
LAYER1
 62
     7
  6
CONTINUOUS
 10
4.6929
 20
6.7117
  0
VERTEX
  8
LAYER1
 62
     7
  6
CONTINUOUS
 10
4.6945
 20
6.7106
  0
VERTEX
  8
LAYER1
 62
     7
  6
CONTINUOUS
 10
4.6962
 20
6.7096
  0
VERTEX
  8
LAYER1
 62
     7
  6
CONTINUOUS
 10
4.6979
 20
6.7087
  0
VERTEX
  8
LAYER1
 62
     7
  6
CONTINUOUS
 10
4.6996
 20
6.7080
  0
VERTEX
  8
LAYER1
 62
     7
  6
CONTINUOUS
 10
4.7014
 20
6.7073
  0
VERTEX
  8
LAYER1
 62
     7
  6
CONTINUOUS
 10
4.7031
 20
6.7067
  0
VERTEX
  8
LAYER1
 62
     7
  6
CONTINUOUS
 10
4.7049
 20
6.7063
  0
VERTEX
  8
LAYER1
 62
     7
  6
CONTINUOUS
 10
4.7067
 20
6.7059
  0
VERTEX
  8
LAYER1
 62
     7
  6
CONTINUOUS
 10
4.7085
 20
6.7057
  0
VERTEX
  8
LAYER1
 62
     7
  6
CONTINUOUS
 10
4.7105
 20
6.7057
  0
VERTEX
  8
LAYER1
 62
     7
  6
CONTINUOUS
 10
4.7126
 20
6.7058
  0
VERTEX
  8
LAYER1
 62
     7
  6
CONTINUOUS
 10
4.7146
 20
6.7060
  0
VERTEX
  8
LAYER1
 62
     7
  6
CONTINUOUS
 10
4.7166
 20
6.7064
  0
VERTEX
  8
LAYER1
 62
     7
  6
CONTINUOUS
 10
4.7187
 20
6.7068
  0
VERTEX
  8
LAYER1
 62
     7
  6
CONTINUOUS
 10
4.7207
 20
6.7073
  0
VERTEX
  8
LAYER1
 62
     7
  6
CONTINUOUS
 10
4.7227
 20
6.7079
  0
VERTEX
  8
LAYER1
 62
     7
  6
CONTINUOUS
 10
4.7248
 20
6.7085
  0
VERTEX
  8
LAYER1
 62
     7
  6
CONTINUOUS
 10
4.7269
 20
6.7092
  0
VERTEX
  8
LAYER1
 62
     7
  6
CONTINUOUS
 10
4.7290
 20
6.7098
  0
VERTEX
  8
LAYER1
 62
     7
  6
CONTINUOUS
 10
4.7312
 20
6.7104
  0
VERTEX
  8
LAYER1
 62
     7
  6
CONTINUOUS
 10
4.7333
 20
6.7110
  0
VERTEX
  8
LAYER1
 62
     7
  6
CONTINUOUS
 10
4.7351
 20
6.7114
  0
VERTEX
  8
LAYER1
 62
     7
  6
CONTINUOUS
 10
4.7368
 20
6.7118
  0
VERTEX
  8
LAYER1
 62
     7
  6
CONTINUOUS
 10
4.7386
 20
6.7121
  0
VERTEX
  8
LAYER1
 62
     7
  6
CONTINUOUS
 10
4.7403
 20
6.7123
  0
VERTEX
  8
LAYER1
 62
     7
  6
CONTINUOUS
 10
4.7421
 20
6.7125
  0
VERTEX
  8
LAYER1
 62
     7
  6
CONTINUOUS
 10
4.7438
 20
6.7126
  0
VERTEX
  8
LAYER1
 62
     7
  6
CONTINUOUS
 10
4.7455
 20
6.7126
  0
VERTEX
  8
LAYER1
 62
     7
  6
CONTINUOUS
 10
4.7472
 20
6.7125
  0
VERTEX
  8
LAYER1
 62
     7
  6
CONTINUOUS
 10
4.7488
 20
6.7124
  0
VERTEX
  8
LAYER1
 62
     7
  6
CONTINUOUS
 10
4.7503
 20
6.7121
  0
VERTEX
  8
LAYER1
 62
     7
  6
CONTINUOUS
 10
4.7518
 20
6.7117
  0
VERTEX
  8
LAYER1
 62
     7
  6
CONTINUOUS
 10
4.7533
 20
6.7112
  0
VERTEX
  8
LAYER1
 62
     7
  6
CONTINUOUS
 10
4.7561
 20
6.7097
  0
VERTEX
  8
LAYER1
 62
     7
  6
CONTINUOUS
 10
4.7585
 20
6.7077
  0
VERTEX
  8
LAYER1
 62
     7
  6
CONTINUOUS
 10
4.7608
 20
6.7053
  0
VERTEX
  8
LAYER1
 62
     7
  6
CONTINUOUS
 10
4.7628
 20
6.7025
  0
VERTEX
  8
LAYER1
 62
     7
  6
CONTINUOUS
 10
4.7647
 20
6.6995
  0
VERTEX
  8
LAYER1
 62
     7
  6
CONTINUOUS
 10
4.7664
 20
6.6962
  0
VERTEX
  8
LAYER1
 62
     7
  6
CONTINUOUS
 10
4.7682
 20
6.6928
  0
VERTEX
  8
LAYER1
 62
     7
  6
CONTINUOUS
 10
4.7700
 20
6.6894
  0
VERTEX
  8
LAYER1
 62
     7
  6
CONTINUOUS
 10
4.7718
 20
6.6860
  0
VERTEX
  8
LAYER1
 62
     7
  6
CONTINUOUS
 10
4.7739
 20
6.6826
  0
VERTEX
  8
LAYER1
 62
     7
  6
CONTINUOUS
 10
4.7761
 20
6.6795
  0
VERTEX
  8
LAYER1
 62
     7
  6
CONTINUOUS
 10
4.7785
 20
6.6766
  0
VERTEX
  8
LAYER1
 62
     7
  6
CONTINUOUS
 10
4.7794
 20
6.6758
  0
VERTEX
  8
LAYER1
 62
     7
  6
CONTINUOUS
 10
4.7803
 20
6.6749
  0
VERTEX
  8
LAYER1
 62
     7
  6
CONTINUOUS
 10
4.7812
 20
6.6741
  0
VERTEX
  8
LAYER1
 62
     7
  6
CONTINUOUS
 10
4.7821
 20
6.6733
  0
VERTEX
  8
LAYER1
 62
     7
  6
CONTINUOUS
 10
4.7830
 20
6.6725
  0
VERTEX
  8
LAYER1
 62
     7
  6
CONTINUOUS
 10
4.7839
 20
6.6717
  0
VERTEX
  8
LAYER1
 62
     7
  6
CONTINUOUS
 10
4.7848
 20
6.6709
  0
VERTEX
  8
LAYER1
 62
     7
  6
CONTINUOUS
 10
4.7857
 20
6.6701
  0
VERTEX
  8
LAYER1
 62
     7
  6
CONTINUOUS
 10
4.7865
 20
6.6693
  0
VERTEX
  8
LAYER1
 62
     7
  6
CONTINUOUS
 10
4.7873
 20
6.6685
  0
VERTEX
  8
LAYER1
 62
     7
  6
CONTINUOUS
 10
4.7880
 20
6.6677
  0
VERTEX
  8
LAYER1
 62
     7
  6
CONTINUOUS
 10
4.7886
 20
6.6668
  0
VERTEX
  8
LAYER1
 62
     7
  6
CONTINUOUS
 10
4.7898
 20
6.6645
  0
VERTEX
  8
LAYER1
 62
     7
  6
CONTINUOUS
 10
4.7907
 20
6.6620
  0
VERTEX
  8
LAYER1
 62
     7
  6
CONTINUOUS
 10
4.7912
 20
6.6594
  0
VERTEX
  8
LAYER1
 62
     7
  6
CONTINUOUS
 10
4.7914
 20
6.6566
  0
VERTEX
  8
LAYER1
 62
     7
  6
CONTINUOUS
 10
4.7913
 20
6.6537
  0
VERTEX
  8
LAYER1
 62
     7
  6
CONTINUOUS
 10
4.7911
 20
6.6507
  0
VERTEX
  8
LAYER1
 62
     7
  6
CONTINUOUS
 10
4.7907
 20
6.6477
  0
VERTEX
  8
LAYER1
 62
     7
  6
CONTINUOUS
 10
4.7903
 20
6.6446
  0
VERTEX
  8
LAYER1
 62
     7
  6
CONTINUOUS
 10
4.7898
 20
6.6414
  0
VERTEX
  8
LAYER1
 62
     7
  6
CONTINUOUS
 10
4.7894
 20
6.6382
  0
VERTEX
  8
LAYER1
 62
     7
  6
CONTINUOUS
 10
4.7891
 20
6.6351
  0
VERTEX
  8
LAYER1
 62
     7
  6
CONTINUOUS
 10
4.7890
 20
6.6320
  0
VERTEX
  8
LAYER1
 62
     7
  6
CONTINUOUS
 10
4.7890
 20
6.6292
  0
VERTEX
  8
LAYER1
 62
     7
  6
CONTINUOUS
 10
4.7893
 20
6.6264
  0
VERTEX
  8
LAYER1
 62
     7
  6
CONTINUOUS
 10
4.7897
 20
6.6238
  0
VERTEX
  8
LAYER1
 62
     7
  6
CONTINUOUS
 10
4.7902
 20
6.6211
  0
VERTEX
  8
LAYER1
 62
     7
  6
CONTINUOUS
 10
4.7909
 20
6.6185
  0
VERTEX
  8
LAYER1
 62
     7
  6
CONTINUOUS
 10
4.7917
 20
6.6160
  0
VERTEX
  8
LAYER1
 62
     7
  6
CONTINUOUS
 10
4.7927
 20
6.6136
  0
VERTEX
  8
LAYER1
 62
     7
  6
CONTINUOUS
 10
4.7938
 20
6.6111
  0
VERTEX
  8
LAYER1
 62
     7
  6
CONTINUOUS
 10
4.7950
 20
6.6088
  0
VERTEX
  8
LAYER1
 62
     7
  6
CONTINUOUS
 10
4.7963
 20
6.6065
  0
VERTEX
  8
LAYER1
 62
     7
  6
CONTINUOUS
 10
4.7977
 20
6.6043
  0
VERTEX
  8
LAYER1
 62
     7
  6
CONTINUOUS
 10
4.7993
 20
6.6022
  0
VERTEX
  8
LAYER1
 62
     7
  6
CONTINUOUS
 10
4.8007
 20
6.6003
  0
VERTEX
  8
LAYER1
 62
     7
  6
CONTINUOUS
 10
4.8022
 20
6.5986
  0
VERTEX
  8
LAYER1
 62
     7
  6
CONTINUOUS
 10
4.8037
 20
6.5968
  0
VERTEX
  8
LAYER1
 62
     7
  6
CONTINUOUS
 10
4.8054
 20
6.5951
  0
VERTEX
  8
LAYER1
 62
     7
  6
CONTINUOUS
 10
4.8070
 20
6.5934
  0
VERTEX
  8
LAYER1
 62
     7
  6
CONTINUOUS
 10
4.8087
 20
6.5918
  0
VERTEX
  8
LAYER1
 62
     7
  6
CONTINUOUS
 10
4.8104
 20
6.5902
  0
VERTEX
  8
LAYER1
 62
     7
  6
CONTINUOUS
 10
4.8122
 20
6.5886
  0
VERTEX
  8
LAYER1
 62
     7
  6
CONTINUOUS
 10
4.8140
 20
6.5871
  0
VERTEX
  8
LAYER1
 62
     7
  6
CONTINUOUS
 10
4.8158
 20
6.5856
  0
VERTEX
  8
LAYER1
 62
     7
  6
CONTINUOUS
 10
4.8176
 20
6.5840
  0
VERTEX
  8
LAYER1
 62
     7
  6
CONTINUOUS
 10
4.8194
 20
6.5825
  0
SEQEND
  8
LAYER1
  0
POLYLINE
  8
LAYER1
 62
     7
 66
     1
  6
CONTINUOUS
  0
VERTEX
  8
LAYER1
 62
     7
  6
CONTINUOUS
 10
4.7822
 20
6.7962
  0
VERTEX
  8
LAYER1
 62
     7
  6
CONTINUOUS
 10
4.7827
 20
6.7927
  0
VERTEX
  8
LAYER1
 62
     7
  6
CONTINUOUS
 10
4.7833
 20
6.7893
  0
VERTEX
  8
LAYER1
 62
     7
  6
CONTINUOUS
 10
4.7839
 20
6.7858
  0
VERTEX
  8
LAYER1
 62
     7
  6
CONTINUOUS
 10
4.7845
 20
6.7824
  0
VERTEX
  8
LAYER1
 62
     7
  6
CONTINUOUS
 10
4.7852
 20
6.7790
  0
VERTEX
  8
LAYER1
 62
     7
  6
CONTINUOUS
 10
4.7859
 20
6.7757
  0
VERTEX
  8
LAYER1
 62
     7
  6
CONTINUOUS
 10
4.7867
 20
6.7724
  0
VERTEX
  8
LAYER1
 62
     7
  6
CONTINUOUS
 10
4.7877
 20
6.7691
  0
VERTEX
  8
LAYER1
 62
     7
  6
CONTINUOUS
 10
4.7887
 20
6.7658
  0
VERTEX
  8
LAYER1
 62
     7
  6
CONTINUOUS
 10
4.7899
 20
6.7626
  0
VERTEX
  8
LAYER1
 62
     7
  6
CONTINUOUS
 10
4.7911
 20
6.7595
  0
VERTEX
  8
LAYER1
 62
     7
  6
CONTINUOUS
 10
4.7926
 20
6.7565
  0
VERTEX
  8
LAYER1
 62
     7
  6
CONTINUOUS
 10
4.7934
 20
6.7548
  0
VERTEX
  8
LAYER1
 62
     7
  6
CONTINUOUS
 10
4.7943
 20
6.7532
  0
VERTEX
  8
LAYER1
 62
     7
  6
CONTINUOUS
 10
4.7952
 20
6.7516
  0
VERTEX
  8
LAYER1
 62
     7
  6
CONTINUOUS
 10
4.7962
 20
6.7500
  0
VERTEX
  8
LAYER1
 62
     7
  6
CONTINUOUS
 10
4.7971
 20
6.7484
  0
VERTEX
  8
LAYER1
 62
     7
  6
CONTINUOUS
 10
4.7980
 20
6.7468
  0
VERTEX
  8
LAYER1
 62
     7
  6
CONTINUOUS
 10
4.7989
 20
6.7451
  0
VERTEX
  8
LAYER1
 62
     7
  6
CONTINUOUS
 10
4.7998
 20
6.7435
  0
VERTEX
  8
LAYER1
 62
     7
  6
CONTINUOUS
 10
4.8006
 20
6.7418
  0
VERTEX
  8
LAYER1
 62
     7
  6
CONTINUOUS
 10
4.8014
 20
6.7401
  0
VERTEX
  8
LAYER1
 62
     7
  6
CONTINUOUS
 10
4.8021
 20
6.7384
  0
VERTEX
  8
LAYER1
 62
     7
  6
CONTINUOUS
 10
4.8028
 20
6.7366
  0
VERTEX
  8
LAYER1
 62
     7
  6
CONTINUOUS
 10
4.8032
 20
6.7354
  0
VERTEX
  8
LAYER1
 62
     7
  6
CONTINUOUS
 10
4.8035
 20
6.7341
  0
VERTEX
  8
LAYER1
 62
     7
  6
CONTINUOUS
 10
4.8039
 20
6.7328
  0
VERTEX
  8
LAYER1
 62
     7
  6
CONTINUOUS
 10
4.8043
 20
6.7315
  0
VERTEX
  8
LAYER1
 62
     7
  6
CONTINUOUS
 10
4.8046
 20
6.7302
  0
VERTEX
  8
LAYER1
 62
     7
  6
CONTINUOUS
 10
4.8050
 20
6.7289
  0
VERTEX
  8
LAYER1
 62
     7
  6
CONTINUOUS
 10
4.8053
 20
6.7276
  0
VERTEX
  8
LAYER1
 62
     7
  6
CONTINUOUS
 10
4.8057
 20
6.7264
  0
VERTEX
  8
LAYER1
 62
     7
  6
CONTINUOUS
 10
4.8062
 20
6.7252
  0
VERTEX
  8
LAYER1
 62
     7
  6
CONTINUOUS
 10
4.8067
 20
6.7240
  0
VERTEX
  8
LAYER1
 62
     7
  6
CONTINUOUS
 10
4.8073
 20
6.7229
  0
VERTEX
  8
LAYER1
 62
     7
  6
CONTINUOUS
 10
4.8079
 20
6.7218
  0
VERTEX
  8
LAYER1
 62
     7
  6
CONTINUOUS
 10
4.8091
 20
6.7202
  0
VERTEX
  8
LAYER1
 62
     7
  6
CONTINUOUS
 10
4.8104
 20
6.7187
  0
VERTEX
  8
LAYER1
 62
     7
  6
CONTINUOUS
 10
4.8120
 20
6.7173
  0
VERTEX
  8
LAYER1
 62
     7
  6
CONTINUOUS
 10
4.8136
 20
6.7160
  0
VERTEX
  8
LAYER1
 62
     7
  6
CONTINUOUS
 10
4.8154
 20
6.7148
  0
VERTEX
  8
LAYER1
 62
     7
  6
CONTINUOUS
 10
4.8172
 20
6.7137
  0
VERTEX
  8
LAYER1
 62
     7
  6
CONTINUOUS
 10
4.8190
 20
6.7126
  0
VERTEX
  8
LAYER1
 62
     7
  6
CONTINUOUS
 10
4.8209
 20
6.7115
  0
VERTEX
  8
LAYER1
 62
     7
  6
CONTINUOUS
 10
4.8228
 20
6.7104
  0
VERTEX
  8
LAYER1
 62
     7
  6
CONTINUOUS
 10
4.8246
 20
6.7093
  0
VERTEX
  8
LAYER1
 62
     7
  6
CONTINUOUS
 10
4.8263
 20
6.7082
  0
VERTEX
  8
LAYER1
 62
     7
  6
CONTINUOUS
 10
4.8280
 20
6.7071
  0
VERTEX
  8
LAYER1
 62
     7
  6
CONTINUOUS
 10
4.8302
 20
6.7053
  0
VERTEX
  8
LAYER1
 62
     7
  6
CONTINUOUS
 10
4.8321
 20
6.7034
  0
VERTEX
  8
LAYER1
 62
     7
  6
CONTINUOUS
 10
4.8339
 20
6.7014
  0
VERTEX
  8
LAYER1
 62
     7
  6
CONTINUOUS
 10
4.8355
 20
6.6992
  0
VERTEX
  8
LAYER1
 62
     7
  6
CONTINUOUS
 10
4.8370
 20
6.6970
  0
VERTEX
  8
LAYER1
 62
     7
  6
CONTINUOUS
 10
4.8385
 20
6.6945
  0
VERTEX
  8
LAYER1
 62
     7
  6
CONTINUOUS
 10
4.8400
 20
6.6920
  0
VERTEX
  8
LAYER1
 62
     7
  6
CONTINUOUS
 10
4.8414
 20
6.6894
  0
VERTEX
  8
LAYER1
 62
     7
  6
CONTINUOUS
 10
4.8429
 20
6.6866
  0
VERTEX
  8
LAYER1
 62
     7
  6
CONTINUOUS
 10
4.8445
 20
6.6836
  0
VERTEX
  8
LAYER1
 62
     7
  6
CONTINUOUS
 10
4.8463
 20
6.6806
  0
VERTEX
  8
LAYER1
 62
     7
  6
CONTINUOUS
 10
4.8482
 20
6.6774
  0
VERTEX
  8
LAYER1
 62
     7
  6
CONTINUOUS
 10
4.8493
 20
6.6758
  0
VERTEX
  8
LAYER1
 62
     7
  6
CONTINUOUS
 10
4.8503
 20
6.6741
  0
VERTEX
  8
LAYER1
 62
     7
  6
CONTINUOUS
 10
4.8514
 20
6.6725
  0
VERTEX
  8
LAYER1
 62
     7
  6
CONTINUOUS
 10
4.8525
 20
6.6709
  0
VERTEX
  8
LAYER1
 62
     7
  6
CONTINUOUS
 10
4.8535
 20
6.6694
  0
VERTEX
  8
LAYER1
 62
     7
  6
CONTINUOUS
 10
4.8545
 20
6.6680
  0
VERTEX
  8
LAYER1
 62
     7
  6
CONTINUOUS
 10
4.8554
 20
6.6666
  0
VERTEX
  8
LAYER1
 62
     7
  6
CONTINUOUS
 10
4.8563
 20
6.6655
  0
VERTEX
  8
LAYER1
 62
     7
  6
CONTINUOUS
 10
4.8570
 20
6.6644
  0
VERTEX
  8
LAYER1
 62
     7
  6
CONTINUOUS
 10
4.8576
 20
6.6636
  0
VERTEX
  8
LAYER1
 62
     7
  6
CONTINUOUS
 10
4.8581
 20
6.6630
  0
VERTEX
  8
LAYER1
 62
     7
  6
CONTINUOUS
 10
4.8583
 20
6.6626
  0
VERTEX
  8
LAYER1
 62
     7
  6
CONTINUOUS
 10
4.8584
 20
6.6625
  0
VERTEX
  8
LAYER1
 62
     7
  6
CONTINUOUS
 10
4.8584
 20
6.6625
  0
VERTEX
  8
LAYER1
 62
     7
  6
CONTINUOUS
 10
4.8584
 20
6.6625
  0
VERTEX
  8
LAYER1
 62
     7
  6
CONTINUOUS
 10
4.8584
 20
6.6624
  0
VERTEX
  8
LAYER1
 62
     7
  6
CONTINUOUS
 10
4.8584
 20
6.6624
  0
VERTEX
  8
LAYER1
 62
     7
  6
CONTINUOUS
 10
4.8584
 20
6.6624
  0
VERTEX
  8
LAYER1
 62
     7
  6
CONTINUOUS
 10
4.8584
 20
6.6625
  0
VERTEX
  8
LAYER1
 62
     7
  6
CONTINUOUS
 10
4.8584
 20
6.6625
  0
VERTEX
  8
LAYER1
 62
     7
  6
CONTINUOUS
 10
4.8584
 20
6.6625
  0
VERTEX
  8
LAYER1
 62
     7
  6
CONTINUOUS
 10
4.8584
 20
6.6625
  0
VERTEX
  8
LAYER1
 62
     7
  6
CONTINUOUS
 10
4.8584
 20
6.6626
  0
VERTEX
  8
LAYER1
 62
     7
  6
CONTINUOUS
 10
4.8583
 20
6.6626
  0
SEQEND
  8
LAYER1
  0
CIRCLE
  8
LAYER1
 62
     7
  6
CONTINUOUS
 10
4.8860
 20
6.6405
 40
0.0354
  0
CIRCLE
  8
LAYER1
 62
     7
  6
CONTINUOUS
 10
4.7362
 20
6.6762
 40
0.0324
  0
CIRCLE
  8
LAYER1
 62
     7
  6
CONTINUOUS
 10
4.6460
 20
6.7349
 40
0.0151
  0
CIRCLE
  8
LAYER1
 62
     7
  6
CONTINUOUS
 10
4.4816
 20
6.7406
 40
0.0079
  0
CIRCLE
  8
LAYER1
 62
     7
  6
CONTINUOUS
 10
4.4819
 20
6.7157
 40
0.0079
  0
CIRCLE
  8
LAYER1
 62
     7
  6
CONTINUOUS
 10
4.5093
 20
6.7135
 40
0.0070
  0
CIRCLE
  8
LAYER1
 62
     7
  6
CONTINUOUS
 10
4.4108
 20
6.6153
 40
0.0230
  0
CIRCLE
  8
LAYER1
 62
     7
  6
CONTINUOUS
 10
4.5453
 20
6.6118
 40
0.0075
  0
POLYLINE
  8
LAYER1
 62
     7
 66
     1
  6
CONTINUOUS
  0
VERTEX
  8
LAYER1
 62
     7
  6
CONTINUOUS
 10
4.4799
 20
6.6684
  0
VERTEX
  8
LAYER1
 62
     7
  6
CONTINUOUS
 10
4.4654
 20
6.6284
  0
VERTEX
  8
LAYER1
 62
     7
  6
CONTINUOUS
 10
4.4608
 20
6.5985
  0
VERTEX
  8
LAYER1
 62
     7
  6
CONTINUOUS
 10
4.4711
 20
6.5687
  0
VERTEX
  8
LAYER1
 62
     7
  6
CONTINUOUS
 10
4.4813
 20
6.5439
  0
VERTEX
  8
LAYER1
 62
     7
  6
CONTINUOUS
 10
4.5064
 20
6.5243
  0
VERTEX
  8
LAYER1
 62
     7
  6
CONTINUOUS
 10
4.4862
 20
6.5539
  0
VERTEX
  8
LAYER1
 62
     7
  6
CONTINUOUS
 10
4.4810
 20
6.5688
  0
VERTEX
  8
LAYER1
 62
     7
  6
CONTINUOUS
 10
4.4757
 20
6.5986
  0
VERTEX
  8
LAYER1
 62
     7
  6
CONTINUOUS
 10
4.4754
 20
6.6235
  0
VERTEX
  8
LAYER1
 62
     7
  6
CONTINUOUS
 10
4.4802
 20
6.6435
  0
VERTEX
  8
LAYER1
 62
     7
  6
CONTINUOUS
 10
4.4799
 20
6.6684
  0
SEQEND
  8
LAYER1
  0
CIRCLE
  8
LAYER1
 62
     7
  6
CONTINUOUS
 10
4.7971
 20
6.5748
 40
0.0127
  0
CIRCLE
  8
LAYER1
 62
     7
  6
CONTINUOUS
 10
4.8565
 20
6.6078
 40
0.0090
  0
CIRCLE
  8
LAYER1
 62
     7
  6
CONTINUOUS
 10
4.8223
 20
6.7717
 40
0.0199
  0
CIRCLE
  8
LAYER1
 62
     7
  6
CONTINUOUS
 10
4.7660
 20
6.9130
 40
0.0134
  0
CIRCLE
  8
LAYER1
 62
     7
  6
CONTINUOUS
 10
4.8309
 20
6.8963
 40
0.0100
  0
CIRCLE
  8
LAYER1
 62
     7
  6
CONTINUOUS
 10
4.8755
 20
6.9117
 40
0.0149
  0
CIRCLE
  8
LAYER1
 62
     7
  6
CONTINUOUS
 10
4.9530
 20
6.8827
 40
0.0167
  0
CIRCLE
  8
LAYER1
 62
     7
  6
CONTINUOUS
 10
5.0227
 20
6.8810
 40
0.0127
  0
CIRCLE
  8
LAYER1
 62
     7
  6
CONTINUOUS
 10
4.2068
 20
6.5932
 40
0.0202
  0
POLYLINE
  8
LAYER1
 62
     7
 66
     1
  6
CONTINUOUS
  0
VERTEX
  8
LAYER1
 62
     7
  6
CONTINUOUS
 10
4.0632
 20
6.6421
  0
VERTEX
  8
LAYER1
 62
     7
  6
CONTINUOUS
 10
4.0882
 20
6.6523
  0
VERTEX
  8
LAYER1
 62
     7
  6
CONTINUOUS
 10
4.1182
 20
6.6627
  0
VERTEX
  8
LAYER1
 62
     7
  6
CONTINUOUS
 10
4.1483
 20
6.6730
  0
VERTEX
  8
LAYER1
 62
     7
  6
CONTINUOUS
 10
4.1683
 20
6.6832
  0
VERTEX
  8
LAYER1
 62
     7
  6
CONTINUOUS
 10
4.1933
 20
6.6885
  0
VERTEX
  8
LAYER1
 62
     7
  6
CONTINUOUS
 10
4.2135
 20
6.6787
  0
VERTEX
  8
LAYER1
 62
     7
  6
CONTINUOUS
 10
4.2336
 20
6.6839
  0
VERTEX
  8
LAYER1
 62
     7
  6
CONTINUOUS
 10
4.2483
 20
6.7141
  0
VERTEX
  8
LAYER1
 62
     7
  6
CONTINUOUS
 10
4.2432
 20
6.7242
  0
VERTEX
  8
LAYER1
 62
     7
  6
CONTINUOUS
 10
4.2282
 20
6.7190
  0
VERTEX
  8
LAYER1
 62
     7
  6
CONTINUOUS
 10
4.1930
 20
6.7187
  0
VERTEX
  8
LAYER1
 62
     7
  6
CONTINUOUS
 10
4.1529
 20
6.7132
  0
VERTEX
  8
LAYER1
 62
     7
  6
CONTINUOUS
 10
4.1279
 20
6.7030
  0
VERTEX
  8
LAYER1
 62
     7
  6
CONTINUOUS
 10
4.0878
 20
6.6975
  0
VERTEX
  8
LAYER1
 62
     7
  6
CONTINUOUS
 10
4.0677
 20
6.6923
  0
VERTEX
  8
LAYER1
 62
     7
  6
CONTINUOUS
 10
4.0608
 20
6.6923
  0
SEQEND
  8
LAYER1
  0
POLYLINE
  8
LAYER1
 62
     7
 66
     1
  6
CONTINUOUS
  0
VERTEX
  8
LAYER1
 62
     7
  6
CONTINUOUS
 10
4.0608
 20
6.6432
  0
VERTEX
  8
LAYER1
 62
     7
  6
CONTINUOUS
 10
4.0632
 20
6.6421
  0
SEQEND
  8
LAYER1
  0
POLYLINE
  8
LAYER1
 62
     7
 66
     1
  6
CONTINUOUS
  0
VERTEX
  8
LAYER1
 62
     7
  6
CONTINUOUS
 10
4.1291
 20
7.3316
  0
VERTEX
  8
LAYER1
 62
     7
  6
CONTINUOUS
 10
4.1192
 20
7.3315
  0
VERTEX
  8
LAYER1
 62
     7
  6
CONTINUOUS
 10
4.1092
 20
7.3314
  0
VERTEX
  8
LAYER1
 62
     7
  6
CONTINUOUS
 10
4.0990
 20
7.3512
  0
VERTEX
  8
LAYER1
 62
     7
  6
CONTINUOUS
 10
4.0888
 20
7.3760
  0
VERTEX
  8
LAYER1
 62
     7
  6
CONTINUOUS
 10
4.0886
 20
7.3959
  0
VERTEX
  8
LAYER1
 62
     7
  6
CONTINUOUS
 10
4.0933
 20
7.4208
  0
VERTEX
  8
LAYER1
 62
     7
  6
CONTINUOUS
 10
4.0980
 20
7.4458
  0
VERTEX
  8
LAYER1
 62
     7
  6
CONTINUOUS
 10
4.0978
 20
7.4657
  0
VERTEX
  8
LAYER1
 62
     7
  6
CONTINUOUS
 10
4.1073
 20
7.5006
  0
VERTEX
  8
LAYER1
 62
     7
  6
CONTINUOUS
 10
4.1072
 20
7.5106
  0
VERTEX
  8
LAYER1
 62
     7
  6
CONTINUOUS
 10
4.1219
 20
7.5307
  0
VERTEX
  8
LAYER1
 62
     7
  6
CONTINUOUS
 10
4.1467
 20
7.5459
  0
VERTEX
  8
LAYER1
 62
     7
  6
CONTINUOUS
 10
4.1486
 20
7.5465
  0
SEQEND
  8
LAYER1
  0
POLYLINE
  8
LAYER1
 62
     7
 66
     1
  6
CONTINUOUS
  0
VERTEX
  8
LAYER1
 62
     7
  6
CONTINUOUS
 10
4.1661
 20
7.5465
  0
VERTEX
  8
LAYER1
 62
     7
  6
CONTINUOUS
 10
4.1766
 20
7.5362
  0
VERTEX
  8
LAYER1
 62
     7
  6
CONTINUOUS
 10
4.1917
 20
7.5215
  0
VERTEX
  8
LAYER1
 62
     7
  6
CONTINUOUS
 10
4.1969
 20
7.5016
  0
VERTEX
  8
LAYER1
 62
     7
  6
CONTINUOUS
 10
4.1971
 20
7.4817
  0
VERTEX
  8
LAYER1
 62
     7
  6
CONTINUOUS
 10
4.1874
 20
7.4617
  0
VERTEX
  8
LAYER1
 62
     7
  6
CONTINUOUS
 10
4.1727
 20
7.4416
  0
VERTEX
  8
LAYER1
 62
     7
  6
CONTINUOUS
 10
4.1679
 20
7.4266
  0
VERTEX
  8
LAYER1
 62
     7
  6
CONTINUOUS
 10
4.1532
 20
7.4065
  0
VERTEX
  8
LAYER1
 62
     7
  6
CONTINUOUS
 10
4.1484
 20
7.3866
  0
VERTEX
  8
LAYER1
 62
     7
  6
CONTINUOUS
 10
4.1387
 20
7.3616
  0
VERTEX
  8
LAYER1
 62
     7
  6
CONTINUOUS
 10
4.1390
 20
7.3367
  0
SEQEND
  8
LAYER1
  0
POLYLINE
  8
LAYER1
 62
     7
 66
     1
  6
CONTINUOUS
  0
VERTEX
  8
LAYER1
 62
     7
  6
CONTINUOUS
 10
4.3294
 20
7.5465
  0
VERTEX
  8
LAYER1
 62
     7
  6
CONTINUOUS
 10
4.3294
 20
7.5465
  0
VERTEX
  8
LAYER1
 62
     7
  6
CONTINUOUS
 10
4.3294
 20
7.5465
  0
VERTEX
  8
LAYER1
 62
     7
  6
CONTINUOUS
 10
4.3294
 20
7.5465
  0
VERTEX
  8
LAYER1
 62
     7
  6
CONTINUOUS
 10
4.3294
 20
7.5465
  0
VERTEX
  8
LAYER1
 62
     7
  6
CONTINUOUS
 10
4.3294
 20
7.5465
  0
VERTEX
  8
LAYER1
 62
     7
  6
CONTINUOUS
 10
4.3294
 20
7.5465
  0
VERTEX
  8
LAYER1
 62
     7
  6
CONTINUOUS
 10
4.3294
 20
7.5465
  0
VERTEX
  8
LAYER1
 62
     7
  6
CONTINUOUS
 10
4.3294
 20
7.5465
  0
VERTEX
  8
LAYER1
 62
     7
  6
CONTINUOUS
 10
4.3294
 20
7.5465
  0
VERTEX
  8
LAYER1
 62
     7
  6
CONTINUOUS
 10
4.3294
 20
7.5465
  0
VERTEX
  8
LAYER1
 62
     7
  6
CONTINUOUS
 10
4.3294
 20
7.5465
  0
VERTEX
  8
LAYER1
 62
     7
  6
CONTINUOUS
 10
4.3294
 20
7.5465
  0
VERTEX
  8
LAYER1
 62
     7
  6
CONTINUOUS
 10
4.3294
 20
7.5465
  0
VERTEX
  8
LAYER1
 62
     7
  6
CONTINUOUS
 10
4.3294
 20
7.5465
  0
VERTEX
  8
LAYER1
 62
     7
  6
CONTINUOUS
 10
4.3294
 20
7.5465
  0
VERTEX
  8
LAYER1
 62
     7
  6
CONTINUOUS
 10
4.3294
 20
7.5465
  0
VERTEX
  8
LAYER1
 62
     7
  6
CONTINUOUS
 10
4.3294
 20
7.5465
  0
VERTEX
  8
LAYER1
 62
     7
  6
CONTINUOUS
 10
4.3294
 20
7.5465
  0
VERTEX
  8
LAYER1
 62
     7
  6
CONTINUOUS
 10
4.3294
 20
7.5465
  0
VERTEX
  8
LAYER1
 62
     7
  6
CONTINUOUS
 10
4.3294
 20
7.5465
  0
VERTEX
  8
LAYER1
 62
     7
  6
CONTINUOUS
 10
4.3294
 20
7.5465
  0
VERTEX
  8
LAYER1
 62
     7
  6
CONTINUOUS
 10
4.3294
 20
7.5465
  0
VERTEX
  8
LAYER1
 62
     7
  6
CONTINUOUS
 10
4.3294
 20
7.5465
  0
VERTEX
  8
LAYER1
 62
     7
  6
CONTINUOUS
 10
4.3294
 20
7.5465
  0
SEQEND
  8
LAYER1
  0
ARC
  8
LAYER1
 62
     7
  6
CONTINUOUS
 10
4.5025
 20
7.5572
 40
0.0176
 50
-81.2313
 51
-37.5007
  0
ARC
  8
LAYER1
 62
     7
  6
CONTINUOUS
 10
4.5025
 20
7.5572
 40
0.0176
 50
-142.4980
 51
-81.2324
  0
POLYLINE
  8
LAYER1
 62
     7
 66
     1
  6
CONTINUOUS
  0
VERTEX
  8
LAYER1
 62
     7
  6
CONTINUOUS
 10
5.0426
 20
7.2225
  0
VERTEX
  8
LAYER1
 62
     7
  6
CONTINUOUS
 10
5.0421
 20
7.2225
  0
VERTEX
  8
LAYER1
 62
     7
  6
CONTINUOUS
 10
5.0416
 20
7.2224
  0
VERTEX
  8
LAYER1
 62
     7
  6
CONTINUOUS
 10
5.0410
 20
7.2224
  0
VERTEX
  8
LAYER1
 62
     7
  6
CONTINUOUS
 10
5.0405
 20
7.2224
  0
VERTEX
  8
LAYER1
 62
     7
  6
CONTINUOUS
 10
5.0400
 20
7.2224
  0
VERTEX
  8
LAYER1
 62
     7
  6
CONTINUOUS
 10
5.0395
 20
7.2223
  0
VERTEX
  8
LAYER1
 62
     7
  6
CONTINUOUS
 10
5.0390
 20
7.2223
  0
VERTEX
  8
LAYER1
 62
     7
  6
CONTINUOUS
 10
5.0384
 20
7.2223
  0
VERTEX
  8
LAYER1
 62
     7
  6
CONTINUOUS
 10
5.0379
 20
7.2222
  0
VERTEX
  8
LAYER1
 62
     7
  6
CONTINUOUS
 10
5.0374
 20
7.2222
  0
VERTEX
  8
LAYER1
 62
     7
  6
CONTINUOUS
 10
5.0369
 20
7.2222
  0
VERTEX
  8
LAYER1
 62
     7
  6
CONTINUOUS
 10
5.0364
 20
7.2221
  0
VERTEX
  8
LAYER1
 62
     7
  6
CONTINUOUS
 10
5.0334
 20
7.2219
  0
VERTEX
  8
LAYER1
 62
     7
  6
CONTINUOUS
 10
5.0305
 20
7.2216
  0
VERTEX
  8
LAYER1
 62
     7
  6
CONTINUOUS
 10
5.0276
 20
7.2212
  0
VERTEX
  8
LAYER1
 62
     7
  6
CONTINUOUS
 10
5.0247
 20
7.2208
  0
VERTEX
  8
LAYER1
 62
     7
  6
CONTINUOUS
 10
5.0218
 20
7.2203
  0
VERTEX
  8
LAYER1
 62
     7
  6
CONTINUOUS
 10
5.0189
 20
7.2199
  0
VERTEX
  8
LAYER1
 62
     7
  6
CONTINUOUS
 10
5.0160
 20
7.2194
  0
VERTEX
  8
LAYER1
 62
     7
  6
CONTINUOUS
 10
5.0131
 20
7.2188
  0
VERTEX
  8
LAYER1
 62
     7
  6
CONTINUOUS
 10
5.0103
 20
7.2183
  0
VERTEX
  8
LAYER1
 62
     7
  6
CONTINUOUS
 10
5.0074
 20
7.2178
  0
VERTEX
  8
LAYER1
 62
     7
  6
CONTINUOUS
 10
5.0045
 20
7.2173
  0
VERTEX
  8
LAYER1
 62
     7
  6
CONTINUOUS
 10
5.0016
 20
7.2168
  0
VERTEX
  8
LAYER1
 62
     7
  6
CONTINUOUS
 10
4.9975
 20
7.2161
  0
VERTEX
  8
LAYER1
 62
     7
  6
CONTINUOUS
 10
4.9933
 20
7.2154
  0
VERTEX
  8
LAYER1
 62
     7
  6
CONTINUOUS
 10
4.9892
 20
7.2148
  0
VERTEX
  8
LAYER1
 62
     7
  6
CONTINUOUS
 10
4.9851
 20
7.2142
  0
VERTEX
  8
LAYER1
 62
     7
  6
CONTINUOUS
 10
4.9809
 20
7.2137
  0
VERTEX
  8
LAYER1
 62
     7
  6
CONTINUOUS
 10
4.9768
 20
7.2132
  0
VERTEX
  8
LAYER1
 62
     7
  6
CONTINUOUS
 10
4.9726
 20
7.2128
  0
VERTEX
  8
LAYER1
 62
     7
  6
CONTINUOUS
 10
4.9685
 20
7.2124
  0
VERTEX
  8
LAYER1
 62
     7
  6
CONTINUOUS
 10
4.9643
 20
7.2120
  0
VERTEX
  8
LAYER1
 62
     7
  6
CONTINUOUS
 10
4.9602
 20
7.2117
  0
VERTEX
  8
LAYER1
 62
     7
  6
CONTINUOUS
 10
4.9560
 20
7.2115
  0
VERTEX
  8
LAYER1
 62
     7
  6
CONTINUOUS
 10
4.9519
 20
7.2112
  0
VERTEX
  8
LAYER1
 62
     7
  6
CONTINUOUS
 10
4.9498
 20
7.2112
  0
VERTEX
  8
LAYER1
 62
     7
  6
CONTINUOUS
 10
4.9477
 20
7.2111
  0
VERTEX
  8
LAYER1
 62
     7
  6
CONTINUOUS
 10
4.9456
 20
7.2110
  0
VERTEX
  8
LAYER1
 62
     7
  6
CONTINUOUS
 10
4.9436
 20
7.2110
  0
VERTEX
  8
LAYER1
 62
     7
  6
CONTINUOUS
 10
4.9415
 20
7.2109
  0
VERTEX
  8
LAYER1
 62
     7
  6
CONTINUOUS
 10
4.9394
 20
7.2109
  0
VERTEX
  8
LAYER1
 62
     7
  6
CONTINUOUS
 10
4.9373
 20
7.2109
  0
VERTEX
  8
LAYER1
 62
     7
  6
CONTINUOUS
 10
4.9353
 20
7.2109
  0
VERTEX
  8
LAYER1
 62
     7
  6
CONTINUOUS
 10
4.9332
 20
7.2109
  0
VERTEX
  8
LAYER1
 62
     7
  6
CONTINUOUS
 10
4.9311
 20
7.2109
  0
VERTEX
  8
LAYER1
 62
     7
  6
CONTINUOUS
 10
4.9290
 20
7.2109
  0
VERTEX
  8
LAYER1
 62
     7
  6
CONTINUOUS
 10
4.9270
 20
7.2110
  0
VERTEX
  8
LAYER1
 62
     7
  6
CONTINUOUS
 10
4.9241
 20
7.2110
  0
VERTEX
  8
LAYER1
 62
     7
  6
CONTINUOUS
 10
4.9212
 20
7.2111
  0
VERTEX
  8
LAYER1
 62
     7
  6
CONTINUOUS
 10
4.9182
 20
7.2111
  0
VERTEX
  8
LAYER1
 62
     7
  6
CONTINUOUS
 10
4.9153
 20
7.2112
  0
VERTEX
  8
LAYER1
 62
     7
  6
CONTINUOUS
 10
4.9124
 20
7.2112
  0
VERTEX
  8
LAYER1
 62
     7
  6
CONTINUOUS
 10
4.9095
 20
7.2113
  0
VERTEX
  8
LAYER1
 62
     7
  6
CONTINUOUS
 10
4.9066
 20
7.2112
  0
VERTEX
  8
LAYER1
 62
     7
  6
CONTINUOUS
 10
4.9037
 20
7.2112
  0
VERTEX
  8
LAYER1
 62
     7
  6
CONTINUOUS
 10
4.9008
 20
7.2111
  0
VERTEX
  8
LAYER1
 62
     7
  6
CONTINUOUS
 10
4.8979
 20
7.2110
  0
VERTEX
  8
LAYER1
 62
     7
  6
CONTINUOUS
 10
4.8950
 20
7.2108
  0
VERTEX
  8
LAYER1
 62
     7
  6
CONTINUOUS
 10
4.8921
 20
7.2106
  0
VERTEX
  8
LAYER1
 62
     7
  6
CONTINUOUS
 10
4.8892
 20
7.2102
  0
VERTEX
  8
LAYER1
 62
     7
  6
CONTINUOUS
 10
4.8863
 20
7.2099
  0
VERTEX
  8
LAYER1
 62
     7
  6
CONTINUOUS
 10
4.8834
 20
7.2094
  0
VERTEX
  8
LAYER1
 62
     7
  6
CONTINUOUS
 10
4.8805
 20
7.2090
  0
VERTEX
  8
LAYER1
 62
     7
  6
CONTINUOUS
 10
4.8776
 20
7.2085
  0
VERTEX
  8
LAYER1
 62
     7
  6
CONTINUOUS
 10
4.8747
 20
7.2080
  0
VERTEX
  8
LAYER1
 62
     7
  6
CONTINUOUS
 10
4.8718
 20
7.2075
  0
VERTEX
  8
LAYER1
 62
     7
  6
CONTINUOUS
 10
4.8689
 20
7.2069
  0
VERTEX
  8
LAYER1
 62
     7
  6
CONTINUOUS
 10
4.8660
 20
7.2065
  0
VERTEX
  8
LAYER1
 62
     7
  6
CONTINUOUS
 10
4.8631
 20
7.2060
  0
VERTEX
  8
LAYER1
 62
     7
  6
CONTINUOUS
 10
4.8602
 20
7.2056
  0
VERTEX
  8
LAYER1
 62
     7
  6
CONTINUOUS
 10
4.8573
 20
7.2052
  0
VERTEX
  8
LAYER1
 62
     7
  6
CONTINUOUS
 10
4.8536
 20
7.2048
  0
VERTEX
  8
LAYER1
 62
     7
  6
CONTINUOUS
 10
4.8499
 20
7.2045
  0
VERTEX
  8
LAYER1
 62
     7
  6
CONTINUOUS
 10
4.8462
 20
7.2042
  0
VERTEX
  8
LAYER1
 62
     7
  6
CONTINUOUS
 10
4.8424
 20
7.2040
  0
VERTEX
  8
LAYER1
 62
     7
  6
CONTINUOUS
 10
4.8387
 20
7.2038
  0
VERTEX
  8
LAYER1
 62
     7
  6
CONTINUOUS
 10
4.8350
 20
7.2035
  0
VERTEX
  8
LAYER1
 62
     7
  6
CONTINUOUS
 10
4.8312
 20
7.2032
  0
VERTEX
  8
LAYER1
 62
     7
  6
CONTINUOUS
 10
4.8275
 20
7.2027
  0
VERTEX
  8
LAYER1
 62
     7
  6
CONTINUOUS
 10
4.8238
 20
7.2022
  0
VERTEX
  8
LAYER1
 62
     7
  6
CONTINUOUS
 10
4.8200
 20
7.2016
  0
VERTEX
  8
LAYER1
 62
     7
  6
CONTINUOUS
 10
4.8163
 20
7.2008
  0
VERTEX
  8
LAYER1
 62
     7
  6
CONTINUOUS
 10
4.8126
 20
7.1997
  0
VERTEX
  8
LAYER1
 62
     7
  6
CONTINUOUS
 10
4.8096
 20
7.1988
  0
VERTEX
  8
LAYER1
 62
     7
  6
CONTINUOUS
 10
4.8067
 20
7.1977
  0
VERTEX
  8
LAYER1
 62
     7
  6
CONTINUOUS
 10
4.8038
 20
7.1965
  0
VERTEX
  8
LAYER1
 62
     7
  6
CONTINUOUS
 10
4.8010
 20
7.1951
  0
VERTEX
  8
LAYER1
 62
     7
  6
CONTINUOUS
 10
4.7983
 20
7.1936
  0
VERTEX
  8
LAYER1
 62
     7
  6
CONTINUOUS
 10
4.7956
 20
7.1920
  0
VERTEX
  8
LAYER1
 62
     7
  6
CONTINUOUS
 10
4.7931
 20
7.1903
  0
VERTEX
  8
LAYER1
 62
     7
  6
CONTINUOUS
 10
4.7907
 20
7.1884
  0
VERTEX
  8
LAYER1
 62
     7
  6
CONTINUOUS
 10
4.7885
 20
7.1863
  0
VERTEX
  8
LAYER1
 62
     7
  6
CONTINUOUS
 10
4.7864
 20
7.1842
  0
VERTEX
  8
LAYER1
 62
     7
  6
CONTINUOUS
 10
4.7846
 20
7.1819
  0
VERTEX
  8
LAYER1
 62
     7
  6
CONTINUOUS
 10
4.7829
 20
7.1795
  0
VERTEX
  8
LAYER1
 62
     7
  6
CONTINUOUS
 10
4.7817
 20
7.1773
  0
VERTEX
  8
LAYER1
 62
     7
  6
CONTINUOUS
 10
4.7806
 20
7.1750
  0
VERTEX
  8
LAYER1
 62
     7
  6
CONTINUOUS
 10
4.7797
 20
7.1726
  0
VERTEX
  8
LAYER1
 62
     7
  6
CONTINUOUS
 10
4.7788
 20
7.1701
  0
VERTEX
  8
LAYER1
 62
     7
  6
CONTINUOUS
 10
4.7781
 20
7.1676
  0
VERTEX
  8
LAYER1
 62
     7
  6
CONTINUOUS
 10
4.7774
 20
7.1651
  0
VERTEX
  8
LAYER1
 62
     7
  6
CONTINUOUS
 10
4.7767
 20
7.1625
  0
VERTEX
  8
LAYER1
 62
     7
  6
CONTINUOUS
 10
4.7761
 20
7.1599
  0
VERTEX
  8
LAYER1
 62
     7
  6
CONTINUOUS
 10
4.7755
 20
7.1573
  0
VERTEX
  8
LAYER1
 62
     7
  6
CONTINUOUS
 10
4.7748
 20
7.1547
  0
VERTEX
  8
LAYER1
 62
     7
  6
CONTINUOUS
 10
4.7741
 20
7.1521
  0
VERTEX
  8
LAYER1
 62
     7
  6
CONTINUOUS
 10
4.7733
 20
7.1495
  0
VERTEX
  8
LAYER1
 62
     7
  6
CONTINUOUS
 10
4.7730
 20
7.1486
  0
VERTEX
  8
LAYER1
 62
     7
  6
CONTINUOUS
 10
4.7727
 20
7.1477
  0
VERTEX
  8
LAYER1
 62
     7
  6
CONTINUOUS
 10
4.7724
 20
7.1469
  0
VERTEX
  8
LAYER1
 62
     7
  6
CONTINUOUS
 10
4.7720
 20
7.1460
  0
VERTEX
  8
LAYER1
 62
     7
  6
CONTINUOUS
 10
4.7717
 20
7.1451
  0
VERTEX
  8
LAYER1
 62
     7
  6
CONTINUOUS
 10
4.7713
 20
7.1443
  0
VERTEX
  8
LAYER1
 62
     7
  6
CONTINUOUS
 10
4.7709
 20
7.1434
  0
VERTEX
  8
LAYER1
 62
     7
  6
CONTINUOUS
 10
4.7704
 20
7.1426
  0
VERTEX
  8
LAYER1
 62
     7
  6
CONTINUOUS
 10
4.7700
 20
7.1418
  0
VERTEX
  8
LAYER1
 62
     7
  6
CONTINUOUS
 10
4.7695
 20
7.1410
  0
VERTEX
  8
LAYER1
 62
     7
  6
CONTINUOUS
 10
4.7690
 20
7.1403
  0
VERTEX
  8
LAYER1
 62
     7
  6
CONTINUOUS
 10
4.7684
 20
7.1395
  0
VERTEX
  8
LAYER1
 62
     7
  6
CONTINUOUS
 10
4.7665
 20
7.1373
  0
VERTEX
  8
LAYER1
 62
     7
  6
CONTINUOUS
 10
4.7643
 20
7.1354
  0
VERTEX
  8
LAYER1
 62
     7
  6
CONTINUOUS
 10
4.7619
 20
7.1336
  0
VERTEX
  8
LAYER1
 62
     7
  6
CONTINUOUS
 10
4.7593
 20
7.1320
  0
VERTEX
  8
LAYER1
 62
     7
  6
CONTINUOUS
 10
4.7566
 20
7.1305
  0
VERTEX
  8
LAYER1
 62
     7
  6
CONTINUOUS
 10
4.7538
 20
7.1290
  0
VERTEX
  8
LAYER1
 62
     7
  6
CONTINUOUS
 10
4.7510
 20
7.1276
  0
VERTEX
  8
LAYER1
 62
     7
  6
CONTINUOUS
 10
4.7483
 20
7.1261
  0
VERTEX
  8
LAYER1
 62
     7
  6
CONTINUOUS
 10
4.7456
 20
7.1246
  0
VERTEX
  8
LAYER1
 62
     7
  6
CONTINUOUS
 10
4.7431
 20
7.1230
  0
VERTEX
  8
LAYER1
 62
     7
  6
CONTINUOUS
 10
4.7408
 20
7.1212
  0
VERTEX
  8
LAYER1
 62
     7
  6
CONTINUOUS
 10
4.7388
 20
7.1193
  0
VERTEX
  8
LAYER1
 62
     7
  6
CONTINUOUS
 10
4.7370
 20
7.1171
  0
VERTEX
  8
LAYER1
 62
     7
  6
CONTINUOUS
 10
4.7356
 20
7.1147
  0
VERTEX
  8
LAYER1
 62
     7
  6
CONTINUOUS
 10
4.7343
 20
7.1121
  0
VERTEX
  8
LAYER1
 62
     7
  6
CONTINUOUS
 10
4.7333
 20
7.1093
  0
VERTEX
  8
LAYER1
 62
     7
  6
CONTINUOUS
 10
4.7325
 20
7.1064
  0
VERTEX
  8
LAYER1
 62
     7
  6
CONTINUOUS
 10
4.7318
 20
7.1034
  0
VERTEX
  8
LAYER1
 62
     7
  6
CONTINUOUS
 10
4.7313
 20
7.1003
  0
VERTEX
  8
LAYER1
 62
     7
  6
CONTINUOUS
 10
4.7308
 20
7.0972
  0
VERTEX
  8
LAYER1
 62
     7
  6
CONTINUOUS
 10
4.7304
 20
7.0940
  0
VERTEX
  8
LAYER1
 62
     7
  6
CONTINUOUS
 10
4.7300
 20
7.0907
  0
VERTEX
  8
LAYER1
 62
     7
  6
CONTINUOUS
 10
4.7297
 20
7.0875
  0
VERTEX
  8
LAYER1
 62
     7
  6
CONTINUOUS
 10
4.7292
 20
7.0843
  0
VERTEX
  8
LAYER1
 62
     7
  6
CONTINUOUS
 10
4.7284
 20
7.0793
  0
VERTEX
  8
LAYER1
 62
     7
  6
CONTINUOUS
 10
4.7274
 20
7.0744
  0
VERTEX
  8
LAYER1
 62
     7
  6
CONTINUOUS
 10
4.7263
 20
7.0696
  0
VERTEX
  8
LAYER1
 62
     7
  6
CONTINUOUS
 10
4.7250
 20
7.0649
  0
VERTEX
  8
LAYER1
 62
     7
  6
CONTINUOUS
 10
4.7235
 20
7.0603
  0
VERTEX
  8
LAYER1
 62
     7
  6
CONTINUOUS
 10
4.7219
 20
7.0558
  0
VERTEX
  8
LAYER1
 62
     7
  6
CONTINUOUS
 10
4.7202
 20
7.0513
  0
VERTEX
  8
LAYER1
 62
     7
  6
CONTINUOUS
 10
4.7183
 20
7.0468
  0
VERTEX
  8
LAYER1
 62
     7
  6
CONTINUOUS
 10
4.7164
 20
7.0425
  0
VERTEX
  8
LAYER1
 62
     7
  6
CONTINUOUS
 10
4.7143
 20
7.0381
  0
VERTEX
  8
LAYER1
 62
     7
  6
CONTINUOUS
 10
4.7122
 20
7.0337
  0
VERTEX
  8
LAYER1
 62
     7
  6
CONTINUOUS
 10
4.7099
 20
7.0293
  0
VERTEX
  8
LAYER1
 62
     7
  6
CONTINUOUS
 10
4.7092
 20
7.0280
  0
VERTEX
  8
LAYER1
 62
     7
  6
CONTINUOUS
 10
4.7085
 20
7.0267
  0
VERTEX
  8
LAYER1
 62
     7
  6
CONTINUOUS
 10
4.7078
 20
7.0253
  0
VERTEX
  8
LAYER1
 62
     7
  6
CONTINUOUS
 10
4.7070
 20
7.0240
  0
VERTEX
  8
LAYER1
 62
     7
  6
CONTINUOUS
 10
4.7062
 20
7.0227
  0
VERTEX
  8
LAYER1
 62
     7
  6
CONTINUOUS
 10
4.7055
 20
7.0214
  0
VERTEX
  8
LAYER1
 62
     7
  6
CONTINUOUS
 10
4.7046
 20
7.0201
  0
VERTEX
  8
LAYER1
 62
     7
  6
CONTINUOUS
 10
4.7038
 20
7.0189
  0
VERTEX
  8
LAYER1
 62
     7
  6
CONTINUOUS
 10
4.7029
 20
7.0177
  0
VERTEX
  8
LAYER1
 62
     7
  6
CONTINUOUS
 10
4.7020
 20
7.0165
  0
VERTEX
  8
LAYER1
 62
     7
  6
CONTINUOUS
 10
4.7011
 20
7.0154
  0
VERTEX
  8
LAYER1
 62
     7
  6
CONTINUOUS
 10
4.7001
 20
7.0143
  0
VERTEX
  8
LAYER1
 62
     7
  6
CONTINUOUS
 10
4.6979
 20
7.0121
  0
VERTEX
  8
LAYER1
 62
     7
  6
CONTINUOUS
 10
4.6955
 20
7.0101
  0
VERTEX
  8
LAYER1
 62
     7
  6
CONTINUOUS
 10
4.6930
 20
7.0083
  0
VERTEX
  8
LAYER1
 62
     7
  6
CONTINUOUS
 10
4.6904
 20
7.0065
  0
VERTEX
  8
LAYER1
 62
     7
  6
CONTINUOUS
 10
4.6877
 20
7.0048
  0
VERTEX
  8
LAYER1
 62
     7
  6
CONTINUOUS
 10
4.6850
 20
7.0030
  0
VERTEX
  8
LAYER1
 62
     7
  6
CONTINUOUS
 10
4.6823
 20
7.0012
  0
VERTEX
  8
LAYER1
 62
     7
  6
CONTINUOUS
 10
4.6797
 20
6.9992
  0
VERTEX
  8
LAYER1
 62
     7
  6
CONTINUOUS
 10
4.6772
 20
6.9971
  0
VERTEX
  8
LAYER1
 62
     7
  6
CONTINUOUS
 10
4.6748
 20
6.9947
  0
VERTEX
  8
LAYER1
 62
     7
  6
CONTINUOUS
 10
4.6726
 20
6.9921
  0
VERTEX
  8
LAYER1
 62
     7
  6
CONTINUOUS
 10
4.6705
 20
6.9891
  0
VERTEX
  8
LAYER1
 62
     7
  6
CONTINUOUS
 10
4.6697
 20
6.9876
  0
VERTEX
  8
LAYER1
 62
     7
  6
CONTINUOUS
 10
4.6688
 20
6.9861
  0
VERTEX
  8
LAYER1
 62
     7
  6
CONTINUOUS
 10
4.6680
 20
6.9845
  0
VERTEX
  8
LAYER1
 62
     7
  6
CONTINUOUS
 10
4.6673
 20
6.9829
  0
VERTEX
  8
LAYER1
 62
     7
  6
CONTINUOUS
 10
4.6665
 20
6.9814
  0
VERTEX
  8
LAYER1
 62
     7
  6
CONTINUOUS
 10
4.6657
 20
6.9799
  0
VERTEX
  8
LAYER1
 62
     7
  6
CONTINUOUS
 10
4.6650
 20
6.9785
  0
VERTEX
  8
LAYER1
 62
     7
  6
CONTINUOUS
 10
4.6642
 20
6.9773
  0
VERTEX
  8
LAYER1
 62
     7
  6
CONTINUOUS
 10
4.6634
 20
6.9762
  0
VERTEX
  8
LAYER1
 62
     7
  6
CONTINUOUS
 10
4.6625
 20
6.9753
  0
VERTEX
  8
LAYER1
 62
     7
  6
CONTINUOUS
 10
4.6617
 20
6.9745
  0
VERTEX
  8
LAYER1
 62
     7
  6
CONTINUOUS
 10
4.6608
 20
6.9740
  0
VERTEX
  8
LAYER1
 62
     7
  6
CONTINUOUS
 10
4.6591
 20
6.9738
  0
VERTEX
  8
LAYER1
 62
     7
  6
CONTINUOUS
 10
4.6574
 20
6.9741
  0
VERTEX
  8
LAYER1
 62
     7
  6
CONTINUOUS
 10
4.6555
 20
6.9750
  0
VERTEX
  8
LAYER1
 62
     7
  6
CONTINUOUS
 10
4.6535
 20
6.9762
  0
VERTEX
  8
LAYER1
 62
     7
  6
CONTINUOUS
 10
4.6515
 20
6.9777
  0
VERTEX
  8
LAYER1
 62
     7
  6
CONTINUOUS
 10
4.6493
 20
6.9795
  0
VERTEX
  8
LAYER1
 62
     7
  6
CONTINUOUS
 10
4.6471
 20
6.9813
  0
VERTEX
  8
LAYER1
 62
     7
  6
CONTINUOUS
 10
4.6449
 20
6.9832
  0
VERTEX
  8
LAYER1
 62
     7
  6
CONTINUOUS
 10
4.6426
 20
6.9849
  0
VERTEX
  8
LAYER1
 62
     7
  6
CONTINUOUS
 10
4.6403
 20
6.9865
  0
VERTEX
  8
LAYER1
 62
     7
  6
CONTINUOUS
 10
4.6380
 20
6.9878
  0
VERTEX
  8
LAYER1
 62
     7
  6
CONTINUOUS
 10
4.6357
 20
6.9887
  0
VERTEX
  8
LAYER1
 62
     7
  6
CONTINUOUS
 10
4.6331
 20
6.9892
  0
VERTEX
  8
LAYER1
 62
     7
  6
CONTINUOUS
 10
4.6306
 20
6.9891
  0
VERTEX
  8
LAYER1
 62
     7
  6
CONTINUOUS
 10
4.6280
 20
6.9885
  0
VERTEX
  8
LAYER1
 62
     7
  6
CONTINUOUS
 10
4.6255
 20
6.9875
  0
VERTEX
  8
LAYER1
 62
     7
  6
CONTINUOUS
 10
4.6231
 20
6.9862
  0
VERTEX
  8
LAYER1
 62
     7
  6
CONTINUOUS
 10
4.6206
 20
6.9846
  0
VERTEX
  8
LAYER1
 62
     7
  6
CONTINUOUS
 10
4.6182
 20
6.9828
  0
VERTEX
  8
LAYER1
 62
     7
  6
CONTINUOUS
 10
4.6157
 20
6.9809
  0
VERTEX
  8
LAYER1
 62
     7
  6
CONTINUOUS
 10
4.6133
 20
6.9789
  0
VERTEX
  8
LAYER1
 62
     7
  6
CONTINUOUS
 10
4.6109
 20
6.9769
  0
VERTEX
  8
LAYER1
 62
     7
  6
CONTINUOUS
 10
4.6084
 20
6.9751
  0
VERTEX
  8
LAYER1
 62
     7
  6
CONTINUOUS
 10
4.6060
 20
6.9734
  0
VERTEX
  8
LAYER1
 62
     7
  6
CONTINUOUS
 10
4.6052
 20
6.9729
  0
VERTEX
  8
LAYER1
 62
     7
  6
CONTINUOUS
 10
4.6044
 20
6.9725
  0
VERTEX
  8
LAYER1
 62
     7
  6
CONTINUOUS
 10
4.6035
 20
6.9720
  0
VERTEX
  8
LAYER1
 62
     7
  6
CONTINUOUS
 10
4.6027
 20
6.9716
  0
VERTEX
  8
LAYER1
 62
     7
  6
CONTINUOUS
 10
4.6019
 20
6.9711
  0
VERTEX
  8
LAYER1
 62
     7
  6
CONTINUOUS
 10
4.6011
 20
6.9707
  0
VERTEX
  8
LAYER1
 62
     7
  6
CONTINUOUS
 10
4.6002
 20
6.9703
  0
VERTEX
  8
LAYER1
 62
     7
  6
CONTINUOUS
 10
4.5994
 20
6.9699
  0
VERTEX
  8
LAYER1
 62
     7
  6
CONTINUOUS
 10
4.5986
 20
6.9695
  0
VERTEX
  8
LAYER1
 62
     7
  6
CONTINUOUS
 10
4.5978
 20
6.9691
  0
VERTEX
  8
LAYER1
 62
     7
  6
CONTINUOUS
 10
4.5969
 20
6.9688
  0
VERTEX
  8
LAYER1
 62
     7
  6
CONTINUOUS
 10
4.5961
 20
6.9684
  0
VERTEX
  8
LAYER1
 62
     7
  6
CONTINUOUS
 10
4.5948
 20
6.9677
  0
VERTEX
  8
LAYER1
 62
     7
  6
CONTINUOUS
 10
4.5934
 20
6.9670
  0
VERTEX
  8
LAYER1
 62
     7
  6
CONTINUOUS
 10
4.5921
 20
6.9663
  0
VERTEX
  8
LAYER1
 62
     7
  6
CONTINUOUS
 10
4.5908
 20
6.9655
  0
VERTEX
  8
LAYER1
 62
     7
  6
CONTINUOUS
 10
4.5895
 20
6.9648
  0
VERTEX
  8
LAYER1
 62
     7
  6
CONTINUOUS
 10
4.5882
 20
6.9639
  0
VERTEX
  8
LAYER1
 62
     7
  6
CONTINUOUS
 10
4.5870
 20
6.9631
  0
VERTEX
  8
LAYER1
 62
     7
  6
CONTINUOUS
 10
4.5857
 20
6.9622
  0
VERTEX
  8
LAYER1
 62
     7
  6
CONTINUOUS
 10
4.5846
 20
6.9613
  0
VERTEX
  8
LAYER1
 62
     7
  6
CONTINUOUS
 10
4.5834
 20
6.9603
  0
VERTEX
  8
LAYER1
 62
     7
  6
CONTINUOUS
 10
4.5823
 20
6.9593
  0
VERTEX
  8
LAYER1
 62
     7
  6
CONTINUOUS
 10
4.5813
 20
6.9582
  0
VERTEX
  8
LAYER1
 62
     7
  6
CONTINUOUS
 10
4.5794
 20
6.9560
  0
VERTEX
  8
LAYER1
 62
     7
  6
CONTINUOUS
 10
4.5777
 20
6.9536
  0
VERTEX
  8
LAYER1
 62
     7
  6
CONTINUOUS
 10
4.5762
 20
6.9510
  0
VERTEX
  8
LAYER1
 62
     7
  6
CONTINUOUS
 10
4.5750
 20
6.9483
  0
VERTEX
  8
LAYER1
 62
     7
  6
CONTINUOUS
 10
4.5741
 20
6.9455
  0
VERTEX
  8
LAYER1
 62
     7
  6
CONTINUOUS
 10
4.5735
 20
6.9425
  0
VERTEX
  8
LAYER1
 62
     7
  6
CONTINUOUS
 10
4.5732
 20
6.9395
  0
VERTEX
  8
LAYER1
 62
     7
  6
CONTINUOUS
 10
4.5731
 20
6.9364
  0
VERTEX
  8
LAYER1
 62
     7
  6
CONTINUOUS
 10
4.5735
 20
6.9332
  0
VERTEX
  8
LAYER1
 62
     7
  6
CONTINUOUS
 10
4.5742
 20
6.9299
  0
VERTEX
  8
LAYER1
 62
     7
  6
CONTINUOUS
 10
4.5752
 20
6.9266
  0
VERTEX
  8
LAYER1
 62
     7
  6
CONTINUOUS
 10
4.5767
 20
6.9233
  0
VERTEX
  8
LAYER1
 62
     7
  6
CONTINUOUS
 10
4.5776
 20
6.9216
  0
VERTEX
  8
LAYER1
 62
     7
  6
CONTINUOUS
 10
4.5785
 20
6.9200
  0
VERTEX
  8
LAYER1
 62
     7
  6
CONTINUOUS
 10
4.5796
 20
6.9184
  0
VERTEX
  8
LAYER1
 62
     7
  6
CONTINUOUS
 10
4.5806
 20
6.9168
  0
VERTEX
  8
LAYER1
 62
     7
  6
CONTINUOUS
 10
4.5817
 20
6.9153
  0
VERTEX
  8
LAYER1
 62
     7
  6
CONTINUOUS
 10
4.5827
 20
6.9139
  0
VERTEX
  8
LAYER1
 62
     7
  6
CONTINUOUS
 10
4.5837
 20
6.9126
  0
VERTEX
  8
LAYER1
 62
     7
  6
CONTINUOUS
 10
4.5846
 20
6.9114
  0
VERTEX
  8
LAYER1
 62
     7
  6
CONTINUOUS
 10
4.5853
 20
6.9104
  0
VERTEX
  8
LAYER1
 62
     7
  6
CONTINUOUS
 10
4.5860
 20
6.9096
  0
VERTEX
  8
LAYER1
 62
     7
  6
CONTINUOUS
 10
4.5865
 20
6.9089
  0
VERTEX
  8
LAYER1
 62
     7
  6
CONTINUOUS
 10
4.5868
 20
6.9085
  0
VERTEX
  8
LAYER1
 62
     7
  6
CONTINUOUS
 10
4.5868
 20
6.9084
  0
VERTEX
  8
LAYER1
 62
     7
  6
CONTINUOUS
 10
4.5869
 20
6.9084
  0
VERTEX
  8
LAYER1
 62
     7
  6
CONTINUOUS
 10
4.5869
 20
6.9083
  0
VERTEX
  8
LAYER1
 62
     7
  6
CONTINUOUS
 10
4.5869
 20
6.9083
  0
VERTEX
  8
LAYER1
 62
     7
  6
CONTINUOUS
 10
4.5869
 20
6.9083
  0
VERTEX
  8
LAYER1
 62
     7
  6
CONTINUOUS
 10
4.5869
 20
6.9083
  0
VERTEX
  8
LAYER1
 62
     7
  6
CONTINUOUS
 10
4.5869
 20
6.9083
  0
VERTEX
  8
LAYER1
 62
     7
  6
CONTINUOUS
 10
4.5869
 20
6.9083
  0
VERTEX
  8
LAYER1
 62
     7
  6
CONTINUOUS
 10
4.5869
 20
6.9083
  0
VERTEX
  8
LAYER1
 62
     7
  6
CONTINUOUS
 10
4.5868
 20
6.9084
  0
VERTEX
  8
LAYER1
 62
     7
  6
CONTINUOUS
 10
4.5868
 20
6.9084
  0
VERTEX
  8
LAYER1
 62
     7
  6
CONTINUOUS
 10
4.5868
 20
6.9085
  0
VERTEX
  8
LAYER1
 62
     7
  6
CONTINUOUS
 10
4.5866
 20
6.9097
  0
VERTEX
  8
LAYER1
 62
     7
  6
CONTINUOUS
 10
4.5865
 20
6.9119
  0
VERTEX
  8
LAYER1
 62
     7
  6
CONTINUOUS
 10
4.5864
 20
6.9148
  0
VERTEX
  8
LAYER1
 62
     7
  6
CONTINUOUS
 10
4.5865
 20
6.9183
  0
VERTEX
  8
LAYER1
 62
     7
  6
CONTINUOUS
 10
4.5868
 20
6.9223
  0
VERTEX
  8
LAYER1
 62
     7
  6
CONTINUOUS
 10
4.5873
 20
6.9265
  0
VERTEX
  8
LAYER1
 62
     7
  6
CONTINUOUS
 10
4.5880
 20
6.9308
  0
VERTEX
  8
LAYER1
 62
     7
  6
CONTINUOUS
 10
4.5890
 20
6.9351
  0
VERTEX
  8
LAYER1
 62
     7
  6
CONTINUOUS
 10
4.5903
 20
6.9391
  0
VERTEX
  8
LAYER1
 62
     7
  6
CONTINUOUS
 10
4.5919
 20
6.9428
  0
VERTEX
  8
LAYER1
 62
     7
  6
CONTINUOUS
 10
4.5939
 20
6.9460
  0
VERTEX
  8
LAYER1
 62
     7
  6
CONTINUOUS
 10
4.5963
 20
6.9484
  0
VERTEX
  8
LAYER1
 62
     7
  6
CONTINUOUS
 10
4.5970
 20
6.9490
  0
VERTEX
  8
LAYER1
 62
     7
  6
CONTINUOUS
 10
4.5978
 20
6.9495
  0
VERTEX
  8
LAYER1
 62
     7
  6
CONTINUOUS
 10
4.5986
 20
6.9499
  0
VERTEX
  8
LAYER1
 62
     7
  6
CONTINUOUS
 10
4.5994
 20
6.9503
  0
VERTEX
  8
LAYER1
 62
     7
  6
CONTINUOUS
 10
4.6002
 20
6.9507
  0
VERTEX
  8
LAYER1
 62
     7
  6
CONTINUOUS
 10
4.6011
 20
6.9510
  0
VERTEX
  8
LAYER1
 62
     7
  6
CONTINUOUS
 10
4.6019
 20
6.9514
  0
VERTEX
  8
LAYER1
 62
     7
  6
CONTINUOUS
 10
4.6028
 20
6.9518
  0
VERTEX
  8
LAYER1
 62
     7
  6
CONTINUOUS
 10
4.6036
 20
6.9522
  0
VERTEX
  8
LAYER1
 62
     7
  6
CONTINUOUS
 10
4.6045
 20
6.9526
  0
SEQEND
  8
LAYER1
  0
POLYLINE
  8
LAYER1
 62
     7
 66
     1
  6
CONTINUOUS
  0
VERTEX
  8
LAYER1
 62
     7
  6
CONTINUOUS
 10
4.6045
 20
6.9526
  0
VERTEX
  8
LAYER1
 62
     7
  6
CONTINUOUS
 10
4.6054
 20
6.9530
  0
VERTEX
  8
LAYER1
 62
     7
  6
CONTINUOUS
 10
4.6062
 20
6.9535
  0
VERTEX
  8
LAYER1
 62
     7
  6
CONTINUOUS
 10
4.6081
 20
6.9548
  0
VERTEX
  8
LAYER1
 62
     7
  6
CONTINUOUS
 10
4.6099
 20
6.9564
  0
VERTEX
  8
LAYER1
 62
     7
  6
CONTINUOUS
 10
4.6117
 20
6.9580
  0
VERTEX
  8
LAYER1
 62
     7
  6
CONTINUOUS
 10
4.6135
 20
6.9598
  0
VERTEX
  8
LAYER1
 62
     7
  6
CONTINUOUS
 10
4.6152
 20
6.9616
  0
VERTEX
  8
LAYER1
 62
     7
  6
CONTINUOUS
 10
4.6169
 20
6.9633
  0
VERTEX
  8
LAYER1
 62
     7
  6
CONTINUOUS
 10
4.6185
 20
6.9649
  0
VERTEX
  8
LAYER1
 62
     7
  6
CONTINUOUS
 10
4.6201
 20
6.9663
  0
VERTEX
  8
LAYER1
 62
     7
  6
CONTINUOUS
 10
4.6216
 20
6.9674
  0
VERTEX
  8
LAYER1
 62
     7
  6
CONTINUOUS
 10
4.6231
 20
6.9683
  0
VERTEX
  8
LAYER1
 62
     7
  6
CONTINUOUS
 10
4.6245
 20
6.9687
  0
VERTEX
  8
LAYER1
 62
     7
  6
CONTINUOUS
 10
4.6260
 20
6.9687
  0
VERTEX
  8
LAYER1
 62
     7
  6
CONTINUOUS
 10
4.6269
 20
6.9683
  0
VERTEX
  8
LAYER1
 62
     7
  6
CONTINUOUS
 10
4.6279
 20
6.9678
  0
VERTEX
  8
LAYER1
 62
     7
  6
CONTINUOUS
 10
4.6289
 20
6.9670
  0
VERTEX
  8
LAYER1
 62
     7
  6
CONTINUOUS
 10
4.6298
 20
6.9659
  0
VERTEX
  8
LAYER1
 62
     7
  6
CONTINUOUS
 10
4.6307
 20
6.9648
  0
VERTEX
  8
LAYER1
 62
     7
  6
CONTINUOUS
 10
4.6315
 20
6.9634
  0
VERTEX
  8
LAYER1
 62
     7
  6
CONTINUOUS
 10
4.6324
 20
6.9620
  0
VERTEX
  8
LAYER1
 62
     7
  6
CONTINUOUS
 10
4.6332
 20
6.9605
  0
VERTEX
  8
LAYER1
 62
     7
  6
CONTINUOUS
 10
4.6339
 20
6.9588
  0
VERTEX
  8
LAYER1
 62
     7
  6
CONTINUOUS
 10
4.6347
 20
6.9572
  0
VERTEX
  8
LAYER1
 62
     7
  6
CONTINUOUS
 10
4.6354
 20
6.9555
  0
VERTEX
  8
LAYER1
 62
     7
  6
CONTINUOUS
 10
4.6361
 20
6.9538
  0
VERTEX
  8
LAYER1
 62
     7
  6
CONTINUOUS
 10
4.6371
 20
6.9511
  0
VERTEX
  8
LAYER1
 62
     7
  6
CONTINUOUS
 10
4.6381
 20
6.9484
  0
VERTEX
  8
LAYER1
 62
     7
  6
CONTINUOUS
 10
4.6390
 20
6.9458
  0
VERTEX
  8
LAYER1
 62
     7
  6
CONTINUOUS
 10
4.6397
 20
6.9433
  0
VERTEX
  8
LAYER1
 62
     7
  6
CONTINUOUS
 10
4.6404
 20
6.9408
  0
VERTEX
  8
LAYER1
 62
     7
  6
CONTINUOUS
 10
4.6409
 20
6.9384
  0
VERTEX
  8
LAYER1
 62
     7
  6
CONTINUOUS
 10
4.6413
 20
6.9360
  0
VERTEX
  8
LAYER1
 62
     7
  6
CONTINUOUS
 10
4.6416
 20
6.9336
  0
VERTEX
  8
LAYER1
 62
     7
  6
CONTINUOUS
 10
4.6417
 20
6.9312
  0
VERTEX
  8
LAYER1
 62
     7
  6
CONTINUOUS
 10
4.6417
 20
6.9288
  0
VERTEX
  8
LAYER1
 62
     7
  6
CONTINUOUS
 10
4.6416
 20
6.9265
  0
VERTEX
  8
LAYER1
 62
     7
  6
CONTINUOUS
 10
4.6414
 20
6.9241
  0
VERTEX
  8
LAYER1
 62
     7
  6
CONTINUOUS
 10
4.6411
 20
6.9220
  0
VERTEX
  8
LAYER1
 62
     7
  6
CONTINUOUS
 10
4.6407
 20
6.9200
  0
VERTEX
  8
LAYER1
 62
     7
  6
CONTINUOUS
 10
4.6402
 20
6.9179
  0
VERTEX
  8
LAYER1
 62
     7
  6
CONTINUOUS
 10
4.6398
 20
6.9158
  0
VERTEX
  8
LAYER1
 62
     7
  6
CONTINUOUS
 10
4.6392
 20
6.9137
  0
VERTEX
  8
LAYER1
 62
     7
  6
CONTINUOUS
 10
4.6387
 20
6.9116
  0
VERTEX
  8
LAYER1
 62
     7
  6
CONTINUOUS
 10
4.6382
 20
6.9095
  0
VERTEX
  8
LAYER1
 62
     7
  6
CONTINUOUS
 10
4.6378
 20
6.9074
  0
VERTEX
  8
LAYER1
 62
     7
  6
CONTINUOUS
 10
4.6374
 20
6.9053
  0
VERTEX
  8
LAYER1
 62
     7
  6
CONTINUOUS
 10
4.6370
 20
6.9033
  0
VERTEX
  8
LAYER1
 62
     7
  6
CONTINUOUS
 10
4.6368
 20
6.9012
  0
VERTEX
  8
LAYER1
 62
     7
  6
CONTINUOUS
 10
4.6367
 20
6.8991
  0
VERTEX
  8
LAYER1
 62
     7
  6
CONTINUOUS
 10
4.6367
 20
6.8966
  0
VERTEX
  8
LAYER1
 62
     7
  6
CONTINUOUS
 10
4.6369
 20
6.8940
  0
VERTEX
  8
LAYER1
 62
     7
  6
CONTINUOUS
 10
4.6373
 20
6.8915
  0
VERTEX
  8
LAYER1
 62
     7
  6
CONTINUOUS
 10
4.6379
 20
6.8890
  0
VERTEX
  8
LAYER1
 62
     7
  6
CONTINUOUS
 10
4.6386
 20
6.8865
  0
VERTEX
  8
LAYER1
 62
     7
  6
CONTINUOUS
 10
4.6395
 20
6.8841
  0
VERTEX
  8
LAYER1
 62
     7
  6
CONTINUOUS
 10
4.6405
 20
6.8816
  0
VERTEX
  8
LAYER1
 62
     7
  6
CONTINUOUS
 10
4.6416
 20
6.8791
  0
VERTEX
  8
LAYER1
 62
     7
  6
CONTINUOUS
 10
4.6428
 20
6.8767
  0
VERTEX
  8
LAYER1
 62
     7
  6
CONTINUOUS
 10
4.6441
 20
6.8742
  0
VERTEX
  8
LAYER1
 62
     7
  6
CONTINUOUS
 10
4.6455
 20
6.8718
  0
VERTEX
  8
LAYER1
 62
     7
  6
CONTINUOUS
 10
4.6470
 20
6.8693
  0
VERTEX
  8
LAYER1
 62
     7
  6
CONTINUOUS
 10
4.6487
 20
6.8666
  0
VERTEX
  8
LAYER1
 62
     7
  6
CONTINUOUS
 10
4.6504
 20
6.8639
  0
VERTEX
  8
LAYER1
 62
     7
  6
CONTINUOUS
 10
4.6522
 20
6.8612
  0
VERTEX
  8
LAYER1
 62
     7
  6
CONTINUOUS
 10
4.6541
 20
6.8587
  0
VERTEX
  8
LAYER1
 62
     7
  6
CONTINUOUS
 10
4.6561
 20
6.8562
  0
VERTEX
  8
LAYER1
 62
     7
  6
CONTINUOUS
 10
4.6582
 20
6.8539
  0
VERTEX
  8
LAYER1
 62
     7
  6
CONTINUOUS
 10
4.6603
 20
6.8517
  0
VERTEX
  8
LAYER1
 62
     7
  6
CONTINUOUS
 10
4.6625
 20
6.8498
  0
VERTEX
  8
LAYER1
 62
     7
  6
CONTINUOUS
 10
4.6648
 20
6.8481
  0
VERTEX
  8
LAYER1
 62
     7
  6
CONTINUOUS
 10
4.6671
 20
6.8467
  0
VERTEX
  8
LAYER1
 62
     7
  6
CONTINUOUS
 10
4.6696
 20
6.8455
  0
VERTEX
  8
LAYER1
 62
     7
  6
CONTINUOUS
 10
4.6721
 20
6.8447
  0
VERTEX
  8
LAYER1
 62
     7
  6
CONTINUOUS
 10
4.6748
 20
6.8443
  0
VERTEX
  8
LAYER1
 62
     7
  6
CONTINUOUS
 10
4.6775
 20
6.8441
  0
VERTEX
  8
LAYER1
 62
     7
  6
CONTINUOUS
 10
4.6802
 20
6.8442
  0
VERTEX
  8
LAYER1
 62
     7
  6
CONTINUOUS
 10
4.6831
 20
6.8445
  0
VERTEX
  8
LAYER1
 62
     7
  6
CONTINUOUS
 10
4.6860
 20
6.8451
  0
VERTEX
  8
LAYER1
 62
     7
  6
CONTINUOUS
 10
4.6889
 20
6.8457
  0
VERTEX
  8
LAYER1
 62
     7
  6
CONTINUOUS
 10
4.6919
 20
6.8465
  0
VERTEX
  8
LAYER1
 62
     7
  6
CONTINUOUS
 10
4.6949
 20
6.8473
  0
VERTEX
  8
LAYER1
 62
     7
  6
CONTINUOUS
 10
4.6979
 20
6.8481
  0
VERTEX
  8
LAYER1
 62
     7
  6
CONTINUOUS
 10
4.7009
 20
6.8488
  0
VERTEX
  8
LAYER1
 62
     7
  6
CONTINUOUS
 10
4.7039
 20
6.8495
  0
VERTEX
  8
LAYER1
 62
     7
  6
CONTINUOUS
 10
4.7069
 20
6.8501
  0
VERTEX
  8
LAYER1
 62
     7
  6
CONTINUOUS
 10
4.7082
 20
6.8503
  0
VERTEX
  8
LAYER1
 62
     7
  6
CONTINUOUS
 10
4.7095
 20
6.8504
  0
VERTEX
  8
LAYER1
 62
     7
  6
CONTINUOUS
 10
4.7107
 20
6.8506
  0
VERTEX
  8
LAYER1
 62
     7
  6
CONTINUOUS
 10
4.7120
 20
6.8507
  0
VERTEX
  8
LAYER1
 62
     7
  6
CONTINUOUS
 10
4.7132
 20
6.8507
  0
VERTEX
  8
LAYER1
 62
     7
  6
CONTINUOUS
 10
4.7145
 20
6.8508
  0
VERTEX
  8
LAYER1
 62
     7
  6
CONTINUOUS
 10
4.7157
 20
6.8508
  0
VERTEX
  8
LAYER1
 62
     7
  6
CONTINUOUS
 10
4.7170
 20
6.8507
  0
VERTEX
  8
LAYER1
 62
     7
  6
CONTINUOUS
 10
4.7182
 20
6.8507
  0
VERTEX
  8
LAYER1
 62
     7
  6
CONTINUOUS
 10
4.7194
 20
6.8506
  0
VERTEX
  8
LAYER1
 62
     7
  6
CONTINUOUS
 10
4.7206
 20
6.8504
  0
VERTEX
  8
LAYER1
 62
     7
  6
CONTINUOUS
 10
4.7219
 20
6.8503
  0
VERTEX
  8
LAYER1
 62
     7
  6
CONTINUOUS
 10
4.7245
 20
6.8497
  0
VERTEX
  8
LAYER1
 62
     7
  6
CONTINUOUS
 10
4.7272
 20
6.8490
  0
VERTEX
  8
LAYER1
 62
     7
  6
CONTINUOUS
 10
4.7298
 20
6.8482
  0
VERTEX
  8
LAYER1
 62
     7
  6
CONTINUOUS
 10
4.7323
 20
6.8472
  0
VERTEX
  8
LAYER1
 62
     7
  6
CONTINUOUS
 10
4.7349
 20
6.8460
  0
VERTEX
  8
LAYER1
 62
     7
  6
CONTINUOUS
 10
4.7374
 20
6.8448
  0
VERTEX
  8
LAYER1
 62
     7
  6
CONTINUOUS
 10
4.7399
 20
6.8434
  0
VERTEX
  8
LAYER1
 62
     7
  6
CONTINUOUS
 10
4.7423
 20
6.8420
  0
VERTEX
  8
LAYER1
 62
     7
  6
CONTINUOUS
 10
4.7447
 20
6.8405
  0
VERTEX
  8
LAYER1
 62
     7
  6
CONTINUOUS
 10
4.7471
 20
6.8389
  0
VERTEX
  8
LAYER1
 62
     7
  6
CONTINUOUS
 10
4.7495
 20
6.8373
  0
VERTEX
  8
LAYER1
 62
     7
  6
CONTINUOUS
 10
4.7519
 20
6.8357
  0
VERTEX
  8
LAYER1
 62
     7
  6
CONTINUOUS
 10
4.7543
 20
6.8339
  0
VERTEX
  8
LAYER1
 62
     7
  6
CONTINUOUS
 10
4.7568
 20
6.8321
  0
VERTEX
  8
LAYER1
 62
     7
  6
CONTINUOUS
 10
4.7592
 20
6.8303
  0
VERTEX
  8
LAYER1
 62
     7
  6
CONTINUOUS
 10
4.7615
 20
6.8284
  0
VERTEX
  8
LAYER1
 62
     7
  6
CONTINUOUS
 10
4.7638
 20
6.8265
  0
VERTEX
  8
LAYER1
 62
     7
  6
CONTINUOUS
 10
4.7660
 20
6.8245
  0
VERTEX
  8
LAYER1
 62
     7
  6
CONTINUOUS
 10
4.7681
 20
6.8225
  0
VERTEX
  8
LAYER1
 62
     7
  6
CONTINUOUS
 10
4.7701
 20
6.8204
  0
VERTEX
  8
LAYER1
 62
     7
  6
CONTINUOUS
 10
4.7720
 20
6.8182
  0
VERTEX
  8
LAYER1
 62
     7
  6
CONTINUOUS
 10
4.7738
 20
6.8159
  0
VERTEX
  8
LAYER1
 62
     7
  6
CONTINUOUS
 10
4.7755
 20
6.8135
  0
VERTEX
  8
LAYER1
 62
     7
  6
CONTINUOUS
 10
4.7770
 20
6.8110
  0
VERTEX
  8
LAYER1
 62
     7
  6
CONTINUOUS
 10
4.7777
 20
6.8099
  0
VERTEX
  8
LAYER1
 62
     7
  6
CONTINUOUS
 10
4.7783
 20
6.8087
  0
VERTEX
  8
LAYER1
 62
     7
  6
CONTINUOUS
 10
4.7789
 20
6.8075
  0
VERTEX
  8
LAYER1
 62
     7
  6
CONTINUOUS
 10
4.7794
 20
6.8063
  0
VERTEX
  8
LAYER1
 62
     7
  6
CONTINUOUS
 10
4.7799
 20
6.8051
  0
VERTEX
  8
LAYER1
 62
     7
  6
CONTINUOUS
 10
4.7804
 20
6.8038
  0
VERTEX
  8
LAYER1
 62
     7
  6
CONTINUOUS
 10
4.7808
 20
6.8026
  0
VERTEX
  8
LAYER1
 62
     7
  6
CONTINUOUS
 10
4.7812
 20
6.8013
  0
VERTEX
  8
LAYER1
 62
     7
  6
CONTINUOUS
 10
4.7815
 20
6.8000
  0
VERTEX
  8
LAYER1
 62
     7
  6
CONTINUOUS
 10
4.7818
 20
6.7988
  0
VERTEX
  8
LAYER1
 62
     7
  6
CONTINUOUS
 10
4.7820
 20
6.7975
  0
VERTEX
  8
LAYER1
 62
     7
  6
CONTINUOUS
 10
4.7822
 20
6.7962
  0
VERTEX
  8
LAYER1
 62
     7
  6
CONTINUOUS
 10
4.7823
 20
6.7953
  0
VERTEX
  8
LAYER1
 62
     7
  6
CONTINUOUS
 10
4.7823
 20
6.7945
  0
VERTEX
  8
LAYER1
 62
     7
  6
CONTINUOUS
 10
4.7824
 20
6.7937
  0
VERTEX
  8
LAYER1
 62
     7
  6
CONTINUOUS
 10
4.7824
 20
6.7929
  0
VERTEX
  8
LAYER1
 62
     7
  6
CONTINUOUS
 10
4.7824
 20
6.7920
  0
VERTEX
  8
LAYER1
 62
     7
  6
CONTINUOUS
 10
4.7824
 20
6.7912
  0
VERTEX
  8
LAYER1
 62
     7
  6
CONTINUOUS
 10
4.7824
 20
6.7904
  0
VERTEX
  8
LAYER1
 62
     7
  6
CONTINUOUS
 10
4.7824
 20
6.7895
  0
VERTEX
  8
LAYER1
 62
     7
  6
CONTINUOUS
 10
4.7824
 20
6.7887
  0
VERTEX
  8
LAYER1
 62
     7
  6
CONTINUOUS
 10
4.7824
 20
6.7879
  0
VERTEX
  8
LAYER1
 62
     7
  6
CONTINUOUS
 10
4.7823
 20
6.7870
  0
VERTEX
  8
LAYER1
 62
     7
  6
CONTINUOUS
 10
4.7823
 20
6.7862
  0
SEQEND
  8
LAYER1
  0
POLYLINE
  8
LAYER1
 62
     7
 66
     1
  6
CONTINUOUS
  0
VERTEX
  8
LAYER1
 62
     7
  6
CONTINUOUS
 10
4.8194
 20
6.5825
  0
VERTEX
  8
LAYER1
 62
     7
  6
CONTINUOUS
 10
4.8220
 20
6.5790
  0
VERTEX
  8
LAYER1
 62
     7
  6
CONTINUOUS
 10
4.8245
 20
6.5755
  0
VERTEX
  8
LAYER1
 62
     7
  6
CONTINUOUS
 10
4.8271
 20
6.5720
  0
VERTEX
  8
LAYER1
 62
     7
  6
CONTINUOUS
 10
4.8296
 20
6.5684
  0
VERTEX
  8
LAYER1
 62
     7
  6
CONTINUOUS
 10
4.8321
 20
6.5649
  0
VERTEX
  8
LAYER1
 62
     7
  6
CONTINUOUS
 10
4.8345
 20
6.5613
  0
VERTEX
  8
LAYER1
 62
     7
  6
CONTINUOUS
 10
4.8369
 20
6.5577
  0
VERTEX
  8
LAYER1
 62
     7
  6
CONTINUOUS
 10
4.8392
 20
6.5540
  0
VERTEX
  8
LAYER1
 62
     7
  6
CONTINUOUS
 10
4.8415
 20
6.5503
  0
VERTEX
  8
LAYER1
 62
     7
  6
CONTINUOUS
 10
4.8437
 20
6.5466
  0
VERTEX
  8
LAYER1
 62
     7
  6
CONTINUOUS
 10
4.8458
 20
6.5428
  0
VERTEX
  8
LAYER1
 62
     7
  6
CONTINUOUS
 10
4.8478
 20
6.5390
  0
VERTEX
  8
LAYER1
 62
     7
  6
CONTINUOUS
 10
4.8484
 20
6.5377
  0
VERTEX
  8
LAYER1
 62
     7
  6
CONTINUOUS
 10
4.8490
 20
6.5365
  0
VERTEX
  8
LAYER1
 62
     7
  6
CONTINUOUS
 10
4.8497
 20
6.5352
  0
VERTEX
  8
LAYER1
 62
     7
  6
CONTINUOUS
 10
4.8503
 20
6.5339
  0
VERTEX
  8
LAYER1
 62
     7
  6
CONTINUOUS
 10
4.8509
 20
6.5326
  0
VERTEX
  8
LAYER1
 62
     7
  6
CONTINUOUS
 10
4.8515
 20
6.5313
  0
VERTEX
  8
LAYER1
 62
     7
  6
CONTINUOUS
 10
4.8521
 20
6.5300
  0
VERTEX
  8
LAYER1
 62
     7
  6
CONTINUOUS
 10
4.8526
 20
6.5287
  0
VERTEX
  8
LAYER1
 62
     7
  6
CONTINUOUS
 10
4.8532
 20
6.5274
  0
VERTEX
  8
LAYER1
 62
     7
  6
CONTINUOUS
 10
4.8538
 20
6.5261
  0
VERTEX
  8
LAYER1
 62
     7
  6
CONTINUOUS
 10
4.8544
 20
6.5248
  0
VERTEX
  8
LAYER1
 62
     7
  6
CONTINUOUS
 10
4.8550
 20
6.5235
  0
SEQEND
  8
LAYER1
  0
POLYLINE
  8
LAYER1
 62
     7
 66
     1
  6
CONTINUOUS
  0
VERTEX
  8
LAYER1
 62
     7
  6
CONTINUOUS
 10
4.9136
 20
6.6184
  0
VERTEX
  8
LAYER1
 62
     7
  6
CONTINUOUS
 10
4.9174
 20
6.6085
  0
VERTEX
  8
LAYER1
 62
     7
  6
CONTINUOUS
 10
4.9212
 20
6.5988
  0
VERTEX
  8
LAYER1
 62
     7
  6
CONTINUOUS
 10
4.9248
 20
6.5894
  0
VERTEX
  8
LAYER1
 62
     7
  6
CONTINUOUS
 10
4.9283
 20
6.5804
  0
VERTEX
  8
LAYER1
 62
     7
  6
CONTINUOUS
 10
4.9315
 20
6.5719
  0
VERTEX
  8
LAYER1
 62
     7
  6
CONTINUOUS
 10
4.9345
 20
6.5642
  0
VERTEX
  8
LAYER1
 62
     7
  6
CONTINUOUS
 10
4.9371
 20
6.5572
  0
VERTEX
  8
LAYER1
 62
     7
  6
CONTINUOUS
 10
4.9394
 20
6.5513
  0
VERTEX
  8
LAYER1
 62
     7
  6
CONTINUOUS
 10
4.9412
 20
6.5464
  0
VERTEX
  8
LAYER1
 62
     7
  6
CONTINUOUS
 10
4.9424
 20
6.5428
  0
VERTEX
  8
LAYER1
 62
     7
  6
CONTINUOUS
 10
4.9431
 20
6.5406
  0
VERTEX
  8
LAYER1
 62
     7
  6
CONTINUOUS
 10
4.9432
 20
6.5399
  0
VERTEX
  8
LAYER1
 62
     7
  6
CONTINUOUS
 10
4.9432
 20
6.5399
  0
VERTEX
  8
LAYER1
 62
     7
  6
CONTINUOUS
 10
4.9432
 20
6.5399
  0
VERTEX
  8
LAYER1
 62
     7
  6
CONTINUOUS
 10
4.9432
 20
6.5400
  0
VERTEX
  8
LAYER1
 62
     7
  6
CONTINUOUS
 10
4.9432
 20
6.5400
  0
VERTEX
  8
LAYER1
 62
     7
  6
CONTINUOUS
 10
4.9431
 20
6.5400
  0
VERTEX
  8
LAYER1
 62
     7
  6
CONTINUOUS
 10
4.9431
 20
6.5400
  0
VERTEX
  8
LAYER1
 62
     7
  6
CONTINUOUS
 10
4.9431
 20
6.5400
  0
VERTEX
  8
LAYER1
 62
     7
  6
CONTINUOUS
 10
4.9431
 20
6.5400
  0
VERTEX
  8
LAYER1
 62
     7
  6
CONTINUOUS
 10
4.9431
 20
6.5400
  0
VERTEX
  8
LAYER1
 62
     7
  6
CONTINUOUS
 10
4.9432
 20
6.5400
  0
VERTEX
  8
LAYER1
 62
     7
  6
CONTINUOUS
 10
4.9432
 20
6.5400
  0
VERTEX
  8
LAYER1
 62
     7
  6
CONTINUOUS
 10
4.9432
 20
6.5399
  0
VERTEX
  8
LAYER1
 62
     7
  6
CONTINUOUS
 10
4.9435
 20
6.5396
  0
VERTEX
  8
LAYER1
 62
     7
  6
CONTINUOUS
 10
4.9440
 20
6.5390
  0
VERTEX
  8
LAYER1
 62
     7
  6
CONTINUOUS
 10
4.9447
 20
6.5381
  0
VERTEX
  8
LAYER1
 62
     7
  6
CONTINUOUS
 10
4.9456
 20
6.5370
  0
VERTEX
  8
LAYER1
 62
     7
  6
CONTINUOUS
 10
4.9467
 20
6.5358
  0
VERTEX
  8
LAYER1
 62
     7
  6
CONTINUOUS
 10
4.9479
 20
6.5343
  0
VERTEX
  8
LAYER1
 62
     7
  6
CONTINUOUS
 10
4.9492
 20
6.5328
  0
VERTEX
  8
LAYER1
 62
     7
  6
CONTINUOUS
 10
4.9506
 20
6.5310
  0
VERTEX
  8
LAYER1
 62
     7
  6
CONTINUOUS
 10
4.9521
 20
6.5292
  0
VERTEX
  8
LAYER1
 62
     7
  6
CONTINUOUS
 10
4.9536
 20
6.5274
  0
VERTEX
  8
LAYER1
 62
     7
  6
CONTINUOUS
 10
4.9552
 20
6.5254
  0
VERTEX
  8
LAYER1
 62
     7
  6
CONTINUOUS
 10
4.9568
 20
6.5235
  0
SEQEND
  8
LAYER1
  0
POLYLINE
  8
LAYER1
 62
     7
 66
     1
  6
CONTINUOUS
  0
VERTEX
  8
LAYER1
 62
     7
  6
CONTINUOUS
 10
4.0608
 20
6.6923
  0
VERTEX
  8
LAYER1
 62
     7
  6
CONTINUOUS
 10
4.0589
 20
6.6923
  0
SEQEND
  8
LAYER1
  0
POLYLINE
  8
LAYER1
 62
     7
 66
     1
  6
CONTINUOUS
  0
VERTEX
  8
LAYER1
 62
     7
  6
CONTINUOUS
 10
4.0589
 20
6.6441
  0
VERTEX
  8
LAYER1
 62
     7
  6
CONTINUOUS
 10
4.0608
 20
6.6432
  0
SEQEND
  8
LAYER1
  0
ARC
  8
LAYER1
 62
     7
  6
CONTINUOUS
 10
5.0350
 20
7.3466
 40
0.0099
 50
90.6210
 51
-40.0219
  0
ARC
  8
LAYER1
 62
     7
  6
CONTINUOUS
 10
5.0350
 20
7.3466
 40
0.0099
 50
40.0195
 51
90.6210
  0
ARC
  8
LAYER1
 62
     7
  6
CONTINUOUS
 10
5.0435
 20
6.8015
 40
0.0127
 50
-100.6733
 51
-93.9918
  0
ARC
  8
LAYER1
 62
     7
  6
CONTINUOUS
 10
5.0435
 20
6.8015
 40
0.0127
 50
93.9921
 51
-100.6737
  0
ARC
  8
LAYER1
 62
     7
  6
CONTINUOUS
 10
4.9886
 20
6.5178
 40
0.0135
 50
112.3442
 51
154.8706
  0
ARC
  8
LAYER1
 62
     7
  6
CONTINUOUS
 10
4.9886
 20
6.5178
 40
0.0135
 50
25.1303
 51
112.3457
  0
POLYLINE
  8
LAYER1
 62
     7
 66
     1
  6
CONTINUOUS
  0
VERTEX
  8
LAYER1
 62
     7
  6
CONTINUOUS
 10
4.1486
 20
7.5465
  0
VERTEX
  8
LAYER1
 62
     7
  6
CONTINUOUS
 10
4.1527
 20
7.5479
  0
SEQEND
  8
LAYER1
  0
POLYLINE
  8
LAYER1
 62
     7
 66
     1
  6
CONTINUOUS
  0
VERTEX
  8
LAYER1
 62
     7
  6
CONTINUOUS
 10
4.1647
 20
7.5479
  0
VERTEX
  8
LAYER1
 62
     7
  6
CONTINUOUS
 10
4.1661
 20
7.5465
  0
SEQEND
  8
LAYER1
  0
POLYLINE
  8
LAYER1
 62
     7
 66
     1
  6
CONTINUOUS
  0
VERTEX
  8
LAYER1
 62
     7
  6
CONTINUOUS
 10
4.2463
 20
7.5479
  0
VERTEX
  8
LAYER1
 62
     7
  6
CONTINUOUS
 10
4.2463
 20
7.5479
  0
VERTEX
  8
LAYER1
 62
     7
  6
CONTINUOUS
 10
4.2463
 20
7.5478
  0
VERTEX
  8
LAYER1
 62
     7
  6
CONTINUOUS
 10
4.2463
 20
7.5477
  0
VERTEX
  8
LAYER1
 62
     7
  6
CONTINUOUS
 10
4.2463
 20
7.5476
  0
VERTEX
  8
LAYER1
 62
     7
  6
CONTINUOUS
 10
4.2462
 20
7.5475
  0
VERTEX
  8
LAYER1
 62
     7
  6
CONTINUOUS
 10
4.2462
 20
7.5474
  0
VERTEX
  8
LAYER1
 62
     7
  6
CONTINUOUS
 10
4.2462
 20
7.5474
  0
VERTEX
  8
LAYER1
 62
     7
  6
CONTINUOUS
 10
4.2462
 20
7.5473
  0
VERTEX
  8
LAYER1
 62
     7
  6
CONTINUOUS
 10
4.2462
 20
7.5472
  0
VERTEX
  8
LAYER1
 62
     7
  6
CONTINUOUS
 10
4.2462
 20
7.5471
  0
VERTEX
  8
LAYER1
 62
     7
  6
CONTINUOUS
 10
4.2462
 20
7.5470
  0
VERTEX
  8
LAYER1
 62
     7
  6
CONTINUOUS
 10
4.2462
 20
7.5470
  0
VERTEX
  8
LAYER1
 62
     7
  6
CONTINUOUS
 10
4.2462
 20
7.5469
  0
VERTEX
  8
LAYER1
 62
     7
  6
CONTINUOUS
 10
4.2462
 20
7.5469
  0
VERTEX
  8
LAYER1
 62
     7
  6
CONTINUOUS
 10
4.2462
 20
7.5469
  0
VERTEX
  8
LAYER1
 62
     7
  6
CONTINUOUS
 10
4.2462
 20
7.5468
  0
VERTEX
  8
LAYER1
 62
     7
  6
CONTINUOUS
 10
4.2462
 20
7.5468
  0
VERTEX
  8
LAYER1
 62
     7
  6
CONTINUOUS
 10
4.2462
 20
7.5467
  0
VERTEX
  8
LAYER1
 62
     7
  6
CONTINUOUS
 10
4.2462
 20
7.5467
  0
VERTEX
  8
LAYER1
 62
     7
  6
CONTINUOUS
 10
4.2462
 20
7.5467
  0
VERTEX
  8
LAYER1
 62
     7
  6
CONTINUOUS
 10
4.2462
 20
7.5466
  0
VERTEX
  8
LAYER1
 62
     7
  6
CONTINUOUS
 10
4.2462
 20
7.5466
  0
VERTEX
  8
LAYER1
 62
     7
  6
CONTINUOUS
 10
4.2462
 20
7.5466
  0
VERTEX
  8
LAYER1
 62
     7
  6
CONTINUOUS
 10
4.2462
 20
7.5465
  0
SEQEND
  8
LAYER1
  0
POLYLINE
  8
LAYER1
 62
     7
 66
     1
  6
CONTINUOUS
  0
VERTEX
  8
LAYER1
 62
     7
  6
CONTINUOUS
 10
4.3302
 20
7.5479
  0
VERTEX
  8
LAYER1
 62
     7
  6
CONTINUOUS
 10
4.3301
 20
7.5478
  0
VERTEX
  8
LAYER1
 62
     7
  6
CONTINUOUS
 10
4.3301
 20
7.5477
  0
VERTEX
  8
LAYER1
 62
     7
  6
CONTINUOUS
 10
4.3300
 20
7.5475
  0
VERTEX
  8
LAYER1
 62
     7
  6
CONTINUOUS
 10
4.3299
 20
7.5474
  0
VERTEX
  8
LAYER1
 62
     7
  6
CONTINUOUS
 10
4.3298
 20
7.5473
  0
VERTEX
  8
LAYER1
 62
     7
  6
CONTINUOUS
 10
4.3298
 20
7.5472
  0
VERTEX
  8
LAYER1
 62
     7
  6
CONTINUOUS
 10
4.3297
 20
7.5470
  0
VERTEX
  8
LAYER1
 62
     7
  6
CONTINUOUS
 10
4.3296
 20
7.5469
  0
VERTEX
  8
LAYER1
 62
     7
  6
CONTINUOUS
 10
4.3296
 20
7.5468
  0
VERTEX
  8
LAYER1
 62
     7
  6
CONTINUOUS
 10
4.3295
 20
7.5467
  0
VERTEX
  8
LAYER1
 62
     7
  6
CONTINUOUS
 10
4.3295
 20
7.5466
  0
VERTEX
  8
LAYER1
 62
     7
  6
CONTINUOUS
 10
4.3294
 20
7.5465
  0
VERTEX
  8
LAYER1
 62
     7
  6
CONTINUOUS
 10
4.3293
 20
7.5463
  0
VERTEX
  8
LAYER1
 62
     7
  6
CONTINUOUS
 10
4.3292
 20
7.5462
  0
VERTEX
  8
LAYER1
 62
     7
  6
CONTINUOUS
 10
4.3292
 20
7.5461
  0
VERTEX
  8
LAYER1
 62
     7
  6
CONTINUOUS
 10
4.3291
 20
7.5460
  0
VERTEX
  8
LAYER1
 62
     7
  6
CONTINUOUS
 10
4.3291
 20
7.5460
  0
VERTEX
  8
LAYER1
 62
     7
  6
CONTINUOUS
 10
4.3291
 20
7.5460
  0
VERTEX
  8
LAYER1
 62
     7
  6
CONTINUOUS
 10
4.3291
 20
7.5460
  0
VERTEX
  8
LAYER1
 62
     7
  6
CONTINUOUS
 10
4.3292
 20
7.5461
  0
VERTEX
  8
LAYER1
 62
     7
  6
CONTINUOUS
 10
4.3292
 20
7.5462
  0
VERTEX
  8
LAYER1
 62
     7
  6
CONTINUOUS
 10
4.3293
 20
7.5463
  0
VERTEX
  8
LAYER1
 62
     7
  6
CONTINUOUS
 10
4.3294
 20
7.5464
  0
VERTEX
  8
LAYER1
 62
     7
  6
CONTINUOUS
 10
4.3294
 20
7.5465
  0
SEQEND
  8
LAYER1
  0
POLYLINE
  8
LAYER1
 62
     7
 66
     1
  6
CONTINUOUS
  0
VERTEX
  8
LAYER1
 62
     7
  6
CONTINUOUS
 10
4.3326
 20
7.5479
  0
VERTEX
  8
LAYER1
 62
     7
  6
CONTINUOUS
 10
4.3323
 20
7.5478
  0
VERTEX
  8
LAYER1
 62
     7
  6
CONTINUOUS
 10
4.3319
 20
7.5477
  0
VERTEX
  8
LAYER1
 62
     7
  6
CONTINUOUS
 10
4.3316
 20
7.5475
  0
VERTEX
  8
LAYER1
 62
     7
  6
CONTINUOUS
 10
4.3313
 20
7.5474
  0
VERTEX
  8
LAYER1
 62
     7
  6
CONTINUOUS
 10
4.3310
 20
7.5472
  0
VERTEX
  8
LAYER1
 62
     7
  6
CONTINUOUS
 10
4.3307
 20
7.5471
  0
VERTEX
  8
LAYER1
 62
     7
  6
CONTINUOUS
 10
4.3305
 20
7.5470
  0
VERTEX
  8
LAYER1
 62
     7
  6
CONTINUOUS
 10
4.3302
 20
7.5469
  0
VERTEX
  8
LAYER1
 62
     7
  6
CONTINUOUS
 10
4.3300
 20
7.5468
  0
VERTEX
  8
LAYER1
 62
     7
  6
CONTINUOUS
 10
4.3298
 20
7.5467
  0
VERTEX
  8
LAYER1
 62
     7
  6
CONTINUOUS
 10
4.3296
 20
7.5466
  0
VERTEX
  8
LAYER1
 62
     7
  6
CONTINUOUS
 10
4.3294
 20
7.5465
  0
VERTEX
  8
LAYER1
 62
     7
  6
CONTINUOUS
 10
4.3293
 20
7.5465
  0
VERTEX
  8
LAYER1
 62
     7
  6
CONTINUOUS
 10
4.3291
 20
7.5464
  0
VERTEX
  8
LAYER1
 62
     7
  6
CONTINUOUS
 10
4.3290
 20
7.5464
  0
VERTEX
  8
LAYER1
 62
     7
  6
CONTINUOUS
 10
4.3290
 20
7.5463
  0
VERTEX
  8
LAYER1
 62
     7
  6
CONTINUOUS
 10
4.3290
 20
7.5463
  0
VERTEX
  8
LAYER1
 62
     7
  6
CONTINUOUS
 10
4.3290
 20
7.5463
  0
VERTEX
  8
LAYER1
 62
     7
  6
CONTINUOUS
 10
4.3290
 20
7.5464
  0
VERTEX
  8
LAYER1
 62
     7
  6
CONTINUOUS
 10
4.3291
 20
7.5464
  0
VERTEX
  8
LAYER1
 62
     7
  6
CONTINUOUS
 10
4.3291
 20
7.5464
  0
VERTEX
  8
LAYER1
 62
     7
  6
CONTINUOUS
 10
4.3292
 20
7.5465
  0
VERTEX
  8
LAYER1
 62
     7
  6
CONTINUOUS
 10
4.3293
 20
7.5465
  0
VERTEX
  8
LAYER1
 62
     7
  6
CONTINUOUS
 10
4.3294
 20
7.5465
  0
SEQEND
  8
LAYER1
  0
ARC
  8
LAYER1
 62
     7
  6
CONTINUOUS
 10
4.5025
 20
7.5572
 40
0.0176
 50
-148.0497
 51
-142.4975
  0
POLYLINE
  8
LAYER1
 62
     7
 66
     1
  6
CONTINUOUS
  0
VERTEX
  8
LAYER1
 62
     7
  6
CONTINUOUS
 10
4.3294
 20
7.5465
  0
VERTEX
  8
LAYER1
 62
     7
  6
CONTINUOUS
 10
4.3285
 20
7.5446
  0
VERTEX
  8
LAYER1
 62
     7
  6
CONTINUOUS
 10
4.3276
 20
7.5427
  0
VERTEX
  8
LAYER1
 62
     7
  6
CONTINUOUS
 10
4.3267
 20
7.5408
  0
VERTEX
  8
LAYER1
 62
     7
  6
CONTINUOUS
 10
4.3259
 20
7.5388
  0
VERTEX
  8
LAYER1
 62
     7
  6
CONTINUOUS
 10
4.3251
 20
7.5369
  0
VERTEX
  8
LAYER1
 62
     7
  6
CONTINUOUS
 10
4.3243
 20
7.5349
  0
VERTEX
  8
LAYER1
 62
     7
  6
CONTINUOUS
 10
4.3236
 20
7.5330
  0
VERTEX
  8
LAYER1
 62
     7
  6
CONTINUOUS
 10
4.3229
 20
7.5310
  0
VERTEX
  8
LAYER1
 62
     7
  6
CONTINUOUS
 10
4.3223
 20
7.5290
  0
VERTEX
  8
LAYER1
 62
     7
  6
CONTINUOUS
 10
4.3218
 20
7.5270
  0
VERTEX
  8
LAYER1
 62
     7
  6
CONTINUOUS
 10
4.3215
 20
7.5249
  0
VERTEX
  8
LAYER1
 62
     7
  6
CONTINUOUS
 10
4.3212
 20
7.5229
  0
VERTEX
  8
LAYER1
 62
     7
  6
CONTINUOUS
 10
4.3209
 20
7.5200
  0
VERTEX
  8
LAYER1
 62
     7
  6
CONTINUOUS
 10
4.3209
 20
7.5170
  0
VERTEX
  8
LAYER1
 62
     7
  6
CONTINUOUS
 10
4.3210
 20
7.5141
  0
VERTEX
  8
LAYER1
 62
     7
  6
CONTINUOUS
 10
4.3211
 20
7.5111
  0
VERTEX
  8
LAYER1
 62
     7
  6
CONTINUOUS
 10
4.3214
 20
7.5081
  0
VERTEX
  8
LAYER1
 62
     7
  6
CONTINUOUS
 10
4.3216
 20
7.5051
  0
VERTEX
  8
LAYER1
 62
     7
  6
CONTINUOUS
 10
4.3219
 20
7.5022
  0
VERTEX
  8
LAYER1
 62
     7
  6
CONTINUOUS
 10
4.3221
 20
7.4992
  0
VERTEX
  8
LAYER1
 62
     7
  6
CONTINUOUS
 10
4.3222
 20
7.4964
  0
VERTEX
  8
LAYER1
 62
     7
  6
CONTINUOUS
 10
4.3222
 20
7.4935
  0
VERTEX
  8
LAYER1
 62
     7
  6
CONTINUOUS
 10
4.3220
 20
7.4908
  0
VERTEX
  8
LAYER1
 62
     7
  6
CONTINUOUS
 10
4.3215
 20
7.4881
  0
VERTEX
  8
LAYER1
 62
     7
  6
CONTINUOUS
 10
4.3213
 20
7.4869
  0
VERTEX
  8
LAYER1
 62
     7
  6
CONTINUOUS
 10
4.3210
 20
7.4857
  0
VERTEX
  8
LAYER1
 62
     7
  6
CONTINUOUS
 10
4.3206
 20
7.4845
  0
VERTEX
  8
LAYER1
 62
     7
  6
CONTINUOUS
 10
4.3202
 20
7.4833
  0
VERTEX
  8
LAYER1
 62
     7
  6
CONTINUOUS
 10
4.3198
 20
7.4821
  0
VERTEX
  8
LAYER1
 62
     7
  6
CONTINUOUS
 10
4.3194
 20
7.4809
  0
VERTEX
  8
LAYER1
 62
     7
  6
CONTINUOUS
 10
4.3189
 20
7.4797
  0
VERTEX
  8
LAYER1
 62
     7
  6
CONTINUOUS
 10
4.3185
 20
7.4785
  0
VERTEX
  8
LAYER1
 62
     7
  6
CONTINUOUS
 10
4.3180
 20
7.4772
  0
VERTEX
  8
LAYER1
 62
     7
  6
CONTINUOUS
 10
4.3176
 20
7.4759
  0
VERTEX
  8
LAYER1
 62
     7
  6
CONTINUOUS
 10
4.3171
 20
7.4745
  0
VERTEX
  8
LAYER1
 62
     7
  6
CONTINUOUS
 10
4.3167
 20
7.4731
  0
VERTEX
  8
LAYER1
 62
     7
  6
CONTINUOUS
 10
4.3159
 20
7.4697
  0
VERTEX
  8
LAYER1
 62
     7
  6
CONTINUOUS
 10
4.3151
 20
7.4661
  0
VERTEX
  8
LAYER1
 62
     7
  6
CONTINUOUS
 10
4.3145
 20
7.4623
  0
VERTEX
  8
LAYER1
 62
     7
  6
CONTINUOUS
 10
4.3139
 20
7.4586
  0
VERTEX
  8
LAYER1
 62
     7
  6
CONTINUOUS
 10
4.3135
 20
7.4549
  0
VERTEX
  8
LAYER1
 62
     7
  6
CONTINUOUS
 10
4.3131
 20
7.4513
  0
VERTEX
  8
LAYER1
 62
     7
  6
CONTINUOUS
 10
4.3128
 20
7.4480
  0
VERTEX
  8
LAYER1
 62
     7
  6
CONTINUOUS
 10
4.3126
 20
7.4450
  0
VERTEX
  8
LAYER1
 62
     7
  6
CONTINUOUS
 10
4.3124
 20
7.4425
  0
VERTEX
  8
LAYER1
 62
     7
  6
CONTINUOUS
 10
4.3123
 20
7.4404
  0
VERTEX
  8
LAYER1
 62
     7
  6
CONTINUOUS
 10
4.3122
 20
7.4389
  0
VERTEX
  8
LAYER1
 62
     7
  6
CONTINUOUS
 10
4.3121
 20
7.4382
  0
VERTEX
  8
LAYER1
 62
     7
  6
CONTINUOUS
 10
4.3121
 20
7.4381
  0
VERTEX
  8
LAYER1
 62
     7
  6
CONTINUOUS
 10
4.3121
 20
7.4381
  0
VERTEX
  8
LAYER1
 62
     7
  6
CONTINUOUS
 10
4.3121
 20
7.4381
  0
VERTEX
  8
LAYER1
 62
     7
  6
CONTINUOUS
 10
4.3121
 20
7.4380
  0
VERTEX
  8
LAYER1
 62
     7
  6
CONTINUOUS
 10
4.3121
 20
7.4380
  0
VERTEX
  8
LAYER1
 62
     7
  6
CONTINUOUS
 10
4.3121
 20
7.4380
  0
VERTEX
  8
LAYER1
 62
     7
  6
CONTINUOUS
 10
4.3121
 20
7.4380
  0
VERTEX
  8
LAYER1
 62
     7
  6
CONTINUOUS
 10
4.3121
 20
7.4381
  0
VERTEX
  8
LAYER1
 62
     7
  6
CONTINUOUS
 10
4.3121
 20
7.4381
  0
VERTEX
  8
LAYER1
 62
     7
  6
CONTINUOUS
 10
4.3121
 20
7.4381
  0
VERTEX
  8
LAYER1
 62
     7
  6
CONTINUOUS
 10
4.3121
 20
7.4381
  0
VERTEX
  8
LAYER1
 62
     7
  6
CONTINUOUS
 10
4.3121
 20
7.4382
  0
VERTEX
  8
LAYER1
 62
     7
  6
CONTINUOUS
 10
4.3121
 20
7.4382
  0
VERTEX
  8
LAYER1
 62
     7
  6
CONTINUOUS
 10
4.3121
 20
7.4382
  0
VERTEX
  8
LAYER1
 62
     7
  6
CONTINUOUS
 10
4.3121
 20
7.4382
  0
VERTEX
  8
LAYER1
 62
     7
  6
CONTINUOUS
 10
4.3121
 20
7.4383
  0
VERTEX
  8
LAYER1
 62
     7
  6
CONTINUOUS
 10
4.3122
 20
7.4383
  0
VERTEX
  8
LAYER1
 62
     7
  6
CONTINUOUS
 10
4.3122
 20
7.4383
  0
VERTEX
  8
LAYER1
 62
     7
  6
CONTINUOUS
 10
4.3122
 20
7.4383
  0
VERTEX
  8
LAYER1
 62
     7
  6
CONTINUOUS
 10
4.3122
 20
7.4383
  0
VERTEX
  8
LAYER1
 62
     7
  6
CONTINUOUS
 10
4.3122
 20
7.4383
  0
VERTEX
  8
LAYER1
 62
     7
  6
CONTINUOUS
 10
4.3122
 20
7.4383
  0
VERTEX
  8
LAYER1
 62
     7
  6
CONTINUOUS
 10
4.3121
 20
7.4382
  0
VERTEX
  8
LAYER1
 62
     7
  6
CONTINUOUS
 10
4.3121
 20
7.4382
  0
VERTEX
  8
LAYER1
 62
     7
  6
CONTINUOUS
 10
4.3120
 20
7.4377
  0
VERTEX
  8
LAYER1
 62
     7
  6
CONTINUOUS
 10
4.3118
 20
7.4369
  0
VERTEX
  8
LAYER1
 62
     7
  6
CONTINUOUS
 10
4.3116
 20
7.4359
  0
VERTEX
  8
LAYER1
 62
     7
  6
CONTINUOUS
 10
4.3113
 20
7.4346
  0
VERTEX
  8
LAYER1
 62
     7
  6
CONTINUOUS
 10
4.3109
 20
7.4331
  0
VERTEX
  8
LAYER1
 62
     7
  6
CONTINUOUS
 10
4.3105
 20
7.4313
  0
VERTEX
  8
LAYER1
 62
     7
  6
CONTINUOUS
 10
4.3100
 20
7.4294
  0
VERTEX
  8
LAYER1
 62
     7
  6
CONTINUOUS
 10
4.3095
 20
7.4274
  0
VERTEX
  8
LAYER1
 62
     7
  6
CONTINUOUS
 10
4.3090
 20
7.4252
  0
VERTEX
  8
LAYER1
 62
     7
  6
CONTINUOUS
 10
4.3085
 20
7.4229
  0
VERTEX
  8
LAYER1
 62
     7
  6
CONTINUOUS
 10
4.3079
 20
7.4206
  0
VERTEX
  8
LAYER1
 62
     7
  6
CONTINUOUS
 10
4.3074
 20
7.4182
  0
VERTEX
  8
LAYER1
 62
     7
  6
CONTINUOUS
 10
4.3056
 20
7.4104
  0
VERTEX
  8
LAYER1
 62
     7
  6
CONTINUOUS
 10
4.3038
 20
7.4027
  0
VERTEX
  8
LAYER1
 62
     7
  6
CONTINUOUS
 10
4.3021
 20
7.3951
  0
VERTEX
  8
LAYER1
 62
     7
  6
CONTINUOUS
 10
4.3005
 20
7.3877
  0
VERTEX
  8
LAYER1
 62
     7
  6
CONTINUOUS
 10
4.2990
 20
7.3807
  0
VERTEX
  8
LAYER1
 62
     7
  6
CONTINUOUS
 10
4.2976
 20
7.3743
  0
VERTEX
  8
LAYER1
 62
     7
  6
CONTINUOUS
 10
4.2963
 20
7.3684
  0
VERTEX
  8
LAYER1
 62
     7
  6
CONTINUOUS
 10
4.2952
 20
7.3634
  0
VERTEX
  8
LAYER1
 62
     7
  6
CONTINUOUS
 10
4.2944
 20
7.3592
  0
VERTEX
  8
LAYER1
 62
     7
  6
CONTINUOUS
 10
4.2937
 20
7.3561
  0
VERTEX
  8
LAYER1
 62
     7
  6
CONTINUOUS
 10
4.2933
 20
7.3541
  0
VERTEX
  8
LAYER1
 62
     7
  6
CONTINUOUS
 10
4.2932
 20
7.3533
  0
VERTEX
  8
LAYER1
 62
     7
  6
CONTINUOUS
 10
4.2932
 20
7.3533
  0
VERTEX
  8
LAYER1
 62
     7
  6
CONTINUOUS
 10
4.2932
 20
7.3533
  0
VERTEX
  8
LAYER1
 62
     7
  6
CONTINUOUS
 10
4.2932
 20
7.3533
  0
VERTEX
  8
LAYER1
 62
     7
  6
CONTINUOUS
 10
4.2932
 20
7.3533
  0
VERTEX
  8
LAYER1
 62
     7
  6
CONTINUOUS
 10
4.2932
 20
7.3534
  0
VERTEX
  8
LAYER1
 62
     7
  6
CONTINUOUS
 10
4.2932
 20
7.3534
  0
VERTEX
  8
LAYER1
 62
     7
  6
CONTINUOUS
 10
4.2932
 20
7.3534
  0
VERTEX
  8
LAYER1
 62
     7
  6
CONTINUOUS
 10
4.2932
 20
7.3534
  0
VERTEX
  8
LAYER1
 62
     7
  6
CONTINUOUS
 10
4.2932
 20
7.3534
  0
VERTEX
  8
LAYER1
 62
     7
  6
CONTINUOUS
 10
4.2932
 20
7.3534
  0
VERTEX
  8
LAYER1
 62
     7
  6
CONTINUOUS
 10
4.2932
 20
7.3534
  0
VERTEX
  8
LAYER1
 62
     7
  6
CONTINUOUS
 10
4.2932
 20
7.3533
  0
VERTEX
  8
LAYER1
 62
     7
  6
CONTINUOUS
 10
4.2929
 20
7.3524
  0
VERTEX
  8
LAYER1
 62
     7
  6
CONTINUOUS
 10
4.2925
 20
7.3502
  0
VERTEX
  8
LAYER1
 62
     7
  6
CONTINUOUS
 10
4.2919
 20
7.3472
  0
VERTEX
  8
LAYER1
 62
     7
  6
CONTINUOUS
 10
4.2913
 20
7.3432
  0
VERTEX
  8
LAYER1
 62
     7
  6
CONTINUOUS
 10
4.2906
 20
7.3387
  0
VERTEX
  8
LAYER1
 62
     7
  6
CONTINUOUS
 10
4.2901
 20
7.3337
  0
VERTEX
  8
LAYER1
 62
     7
  6
CONTINUOUS
 10
4.2898
 20
7.3284
  0
VERTEX
  8
LAYER1
 62
     7
  6
CONTINUOUS
 10
4.2897
 20
7.3230
  0
VERTEX
  8
LAYER1
 62
     7
  6
CONTINUOUS
 10
4.2900
 20
7.3176
  0
VERTEX
  8
LAYER1
 62
     7
  6
CONTINUOUS
 10
4.2907
 20
7.3125
  0
VERTEX
  8
LAYER1
 62
     7
  6
CONTINUOUS
 10
4.2919
 20
7.3077
  0
VERTEX
  8
LAYER1
 62
     7
  6
CONTINUOUS
 10
4.2937
 20
7.3035
  0
VERTEX
  8
LAYER1
 62
     7
  6
CONTINUOUS
 10
4.2947
 20
7.3020
  0
VERTEX
  8
LAYER1
 62
     7
  6
CONTINUOUS
 10
4.2957
 20
7.3005
  0
VERTEX
  8
LAYER1
 62
     7
  6
CONTINUOUS
 10
4.2969
 20
7.2992
  0
VERTEX
  8
LAYER1
 62
     7
  6
CONTINUOUS
 10
4.2981
 20
7.2979
  0
VERTEX
  8
LAYER1
 62
     7
  6
CONTINUOUS
 10
4.2994
 20
7.2967
  0
VERTEX
  8
LAYER1
 62
     7
  6
CONTINUOUS
 10
4.3008
 20
7.2955
  0
VERTEX
  8
LAYER1
 62
     7
  6
CONTINUOUS
 10
4.3021
 20
7.2944
  0
VERTEX
  8
LAYER1
 62
     7
  6
CONTINUOUS
 10
4.3035
 20
7.2933
  0
VERTEX
  8
LAYER1
 62
     7
  6
CONTINUOUS
 10
4.3049
 20
7.2922
  0
VERTEX
  8
LAYER1
 62
     7
  6
CONTINUOUS
 10
4.3062
 20
7.2911
  0
VERTEX
  8
LAYER1
 62
     7
  6
CONTINUOUS
 10
4.3075
 20
7.2900
  0
VERTEX
  8
LAYER1
 62
     7
  6
CONTINUOUS
 10
4.3088
 20
7.2888
  0
VERTEX
  8
LAYER1
 62
     7
  6
CONTINUOUS
 10
4.3104
 20
7.2870
  0
VERTEX
  8
LAYER1
 62
     7
  6
CONTINUOUS
 10
4.3120
 20
7.2852
  0
VERTEX
  8
LAYER1
 62
     7
  6
CONTINUOUS
 10
4.3134
 20
7.2833
  0
VERTEX
  8
LAYER1
 62
     7
  6
CONTINUOUS
 10
4.3147
 20
7.2813
  0
VERTEX
  8
LAYER1
 62
     7
  6
CONTINUOUS
 10
4.3160
 20
7.2792
  0
VERTEX
  8
LAYER1
 62
     7
  6
CONTINUOUS
 10
4.3172
 20
7.2771
  0
VERTEX
  8
LAYER1
 62
     7
  6
CONTINUOUS
 10
4.3184
 20
7.2749
  0
VERTEX
  8
LAYER1
 62
     7
  6
CONTINUOUS
 10
4.3195
 20
7.2728
  0
VERTEX
  8
LAYER1
 62
     7
  6
CONTINUOUS
 10
4.3206
 20
7.2706
  0
VERTEX
  8
LAYER1
 62
     7
  6
CONTINUOUS
 10
4.3218
 20
7.2684
  0
VERTEX
  8
LAYER1
 62
     7
  6
CONTINUOUS
 10
4.3229
 20
7.2662
  0
VERTEX
  8
LAYER1
 62
     7
  6
CONTINUOUS
 10
4.3240
 20
7.2640
  0
VERTEX
  8
LAYER1
 62
     7
  6
CONTINUOUS
 10
4.3252
 20
7.2619
  0
VERTEX
  8
LAYER1
 62
     7
  6
CONTINUOUS
 10
4.3264
 20
7.2599
  0
VERTEX
  8
LAYER1
 62
     7
  6
CONTINUOUS
 10
4.3276
 20
7.2578
  0
VERTEX
  8
LAYER1
 62
     7
  6
CONTINUOUS
 10
4.3288
 20
7.2558
  0
VERTEX
  8
LAYER1
 62
     7
  6
CONTINUOUS
 10
4.3301
 20
7.2537
  0
VERTEX
  8
LAYER1
 62
     7
  6
CONTINUOUS
 10
4.3314
 20
7.2517
  0
VERTEX
  8
LAYER1
 62
     7
  6
CONTINUOUS
 10
4.3327
 20
7.2497
  0
VERTEX
  8
LAYER1
 62
     7
  6
CONTINUOUS
 10
4.3340
 20
7.2477
  0
VERTEX
  8
LAYER1
 62
     7
  6
CONTINUOUS
 10
4.3353
 20
7.2456
  0
VERTEX
  8
LAYER1
 62
     7
  6
CONTINUOUS
 10
4.3366
 20
7.2436
  0
VERTEX
  8
LAYER1
 62
     7
  6
CONTINUOUS
 10
4.3379
 20
7.2415
  0
VERTEX
  8
LAYER1
 62
     7
  6
CONTINUOUS
 10
4.3392
 20
7.2393
  0
VERTEX
  8
LAYER1
 62
     7
  6
CONTINUOUS
 10
4.3408
 20
7.2366
  0
VERTEX
  8
LAYER1
 62
     7
  6
CONTINUOUS
 10
4.3424
 20
7.2338
  0
VERTEX
  8
LAYER1
 62
     7
  6
CONTINUOUS
 10
4.3439
 20
7.2310
  0
VERTEX
  8
LAYER1
 62
     7
  6
CONTINUOUS
 10
4.3453
 20
7.2281
  0
VERTEX
  8
LAYER1
 62
     7
  6
CONTINUOUS
 10
4.3465
 20
7.2252
  0
VERTEX
  8
LAYER1
 62
     7
  6
CONTINUOUS
 10
4.3476
 20
7.2222
  0
VERTEX
  8
LAYER1
 62
     7
  6
CONTINUOUS
 10
4.3486
 20
7.2193
  0
VERTEX
  8
LAYER1
 62
     7
  6
CONTINUOUS
 10
4.3493
 20
7.2163
  0
VERTEX
  8
LAYER1
 62
     7
  6
CONTINUOUS
 10
4.3498
 20
7.2133
  0
VERTEX
  8
LAYER1
 62
     7
  6
CONTINUOUS
 10
4.3500
 20
7.2104
  0
VERTEX
  8
LAYER1
 62
     7
  6
CONTINUOUS
 10
4.3499
 20
7.2075
  0
VERTEX
  8
LAYER1
 62
     7
  6
CONTINUOUS
 10
4.3496
 20
7.2046
  0
VERTEX
  8
LAYER1
 62
     7
  6
CONTINUOUS
 10
4.3493
 20
7.2034
  0
VERTEX
  8
LAYER1
 62
     7
  6
CONTINUOUS
 10
4.3489
 20
7.2021
  0
VERTEX
  8
LAYER1
 62
     7
  6
CONTINUOUS
 10
4.3486
 20
7.2009
  0
VERTEX
  8
LAYER1
 62
     7
  6
CONTINUOUS
 10
4.3482
 20
7.1997
  0
VERTEX
  8
LAYER1
 62
     7
  6
CONTINUOUS
 10
4.3477
 20
7.1984
  0
VERTEX
  8
LAYER1
 62
     7
  6
CONTINUOUS
 10
4.3473
 20
7.1972
  0
VERTEX
  8
LAYER1
 62
     7
  6
CONTINUOUS
 10
4.3468
 20
7.1959
  0
VERTEX
  8
LAYER1
 62
     7
  6
CONTINUOUS
 10
4.3463
 20
7.1947
  0
VERTEX
  8
LAYER1
 62
     7
  6
CONTINUOUS
 10
4.3459
 20
7.1934
  0
VERTEX
  8
LAYER1
 62
     7
  6
CONTINUOUS
 10
4.3455
 20
7.1922
  0
VERTEX
  8
LAYER1
 62
     7
  6
CONTINUOUS
 10
4.3451
 20
7.1909
  0
VERTEX
  8
LAYER1
 62
     7
  6
CONTINUOUS
 10
4.3447
 20
7.1896
  0
VERTEX
  8
LAYER1
 62
     7
  6
CONTINUOUS
 10
4.3442
 20
7.1871
  0
VERTEX
  8
LAYER1
 62
     7
  6
CONTINUOUS
 10
4.3439
 20
7.1845
  0
VERTEX
  8
LAYER1
 62
     7
  6
CONTINUOUS
 10
4.3437
 20
7.1819
  0
VERTEX
  8
LAYER1
 62
     7
  6
CONTINUOUS
 10
4.3437
 20
7.1792
  0
VERTEX
  8
LAYER1
 62
     7
  6
CONTINUOUS
 10
4.3439
 20
7.1766
  0
VERTEX
  8
LAYER1
 62
     7
  6
CONTINUOUS
 10
4.3443
 20
7.1740
  0
VERTEX
  8
LAYER1
 62
     7
  6
CONTINUOUS
 10
4.3449
 20
7.1715
  0
VERTEX
  8
LAYER1
 62
     7
  6
CONTINUOUS
 10
4.3456
 20
7.1689
  0
VERTEX
  8
LAYER1
 62
     7
  6
CONTINUOUS
 10
4.3465
 20
7.1665
  0
VERTEX
  8
LAYER1
 62
     7
  6
CONTINUOUS
 10
4.3475
 20
7.1642
  0
VERTEX
  8
LAYER1
 62
     7
  6
CONTINUOUS
 10
4.3487
 20
7.1619
  0
VERTEX
  8
LAYER1
 62
     7
  6
CONTINUOUS
 10
4.3500
 20
7.1598
  0
VERTEX
  8
LAYER1
 62
     7
  6
CONTINUOUS
 10
4.3515
 20
7.1579
  0
VERTEX
  8
LAYER1
 62
     7
  6
CONTINUOUS
 10
4.3530
 20
7.1561
  0
VERTEX
  8
LAYER1
 62
     7
  6
CONTINUOUS
 10
4.3547
 20
7.1544
  0
VERTEX
  8
LAYER1
 62
     7
  6
CONTINUOUS
 10
4.3565
 20
7.1529
  0
VERTEX
  8
LAYER1
 62
     7
  6
CONTINUOUS
 10
4.3585
 20
7.1515
  0
VERTEX
  8
LAYER1
 62
     7
  6
CONTINUOUS
 10
4.3605
 20
7.1502
  0
VERTEX
  8
LAYER1
 62
     7
  6
CONTINUOUS
 10
4.3627
 20
7.1491
  0
VERTEX
  8
LAYER1
 62
     7
  6
CONTINUOUS
 10
4.3650
 20
7.1481
  0
VERTEX
  8
LAYER1
 62
     7
  6
CONTINUOUS
 10
4.3674
 20
7.1471
  0
VERTEX
  8
LAYER1
 62
     7
  6
CONTINUOUS
 10
4.3698
 20
7.1464
  0
VERTEX
  8
LAYER1
 62
     7
  6
CONTINUOUS
 10
4.3724
 20
7.1457
  0
VERTEX
  8
LAYER1
 62
     7
  6
CONTINUOUS
 10
4.3751
 20
7.1451
  0
VERTEX
  8
LAYER1
 62
     7
  6
CONTINUOUS
 10
4.3795
 20
7.1445
  0
VERTEX
  8
LAYER1
 62
     7
  6
CONTINUOUS
 10
4.3840
 20
7.1441
  0
VERTEX
  8
LAYER1
 62
     7
  6
CONTINUOUS
 10
4.3887
 20
7.1438
  0
VERTEX
  8
LAYER1
 62
     7
  6
CONTINUOUS
 10
4.3933
 20
7.1436
  0
VERTEX
  8
LAYER1
 62
     7
  6
CONTINUOUS
 10
4.3978
 20
7.1434
  0
VERTEX
  8
LAYER1
 62
     7
  6
CONTINUOUS
 10
4.4021
 20
7.1431
  0
VERTEX
  8
LAYER1
 62
     7
  6
CONTINUOUS
 10
4.4062
 20
7.1427
  0
VERTEX
  8
LAYER1
 62
     7
  6
CONTINUOUS
 10
4.4099
 20
7.1420
  0
VERTEX
  8
LAYER1
 62
     7
  6
CONTINUOUS
 10
4.4133
 20
7.1411
  0
VERTEX
  8
LAYER1
 62
     7
  6
CONTINUOUS
 10
4.4161
 20
7.1398
  0
VERTEX
  8
LAYER1
 62
     7
  6
CONTINUOUS
 10
4.4184
 20
7.1380
  0
VERTEX
  8
LAYER1
 62
     7
  6
CONTINUOUS
 10
4.4200
 20
7.1357
  0
VERTEX
  8
LAYER1
 62
     7
  6
CONTINUOUS
 10
4.4207
 20
7.1339
  0
VERTEX
  8
LAYER1
 62
     7
  6
CONTINUOUS
 10
4.4211
 20
7.1319
  0
VERTEX
  8
LAYER1
 62
     7
  6
CONTINUOUS
 10
4.4213
 20
7.1296
  0
VERTEX
  8
LAYER1
 62
     7
  6
CONTINUOUS
 10
4.4213
 20
7.1273
  0
VERTEX
  8
LAYER1
 62
     7
  6
CONTINUOUS
 10
4.4212
 20
7.1247
  0
VERTEX
  8
LAYER1
 62
     7
  6
CONTINUOUS
 10
4.4210
 20
7.1221
  0
VERTEX
  8
LAYER1
 62
     7
  6
CONTINUOUS
 10
4.4207
 20
7.1194
  0
VERTEX
  8
LAYER1
 62
     7
  6
CONTINUOUS
 10
4.4204
 20
7.1167
  0
VERTEX
  8
LAYER1
 62
     7
  6
CONTINUOUS
 10
4.4202
 20
7.1139
  0
VERTEX
  8
LAYER1
 62
     7
  6
CONTINUOUS
 10
4.4201
 20
7.1112
  0
VERTEX
  8
LAYER1
 62
     7
  6
CONTINUOUS
 10
4.4201
 20
7.1084
  0
VERTEX
  8
LAYER1
 62
     7
  6
CONTINUOUS
 10
4.4203
 20
7.1058
  0
VERTEX
  8
LAYER1
 62
     7
  6
CONTINUOUS
 10
4.4207
 20
7.1035
  0
VERTEX
  8
LAYER1
 62
     7
  6
CONTINUOUS
 10
4.4212
 20
7.1013
  0
VERTEX
  8
LAYER1
 62
     7
  6
CONTINUOUS
 10
4.4219
 20
7.0992
  0
VERTEX
  8
LAYER1
 62
     7
  6
CONTINUOUS
 10
4.4226
 20
7.0971
  0
VERTEX
  8
LAYER1
 62
     7
  6
CONTINUOUS
 10
4.4235
 20
7.0950
  0
VERTEX
  8
LAYER1
 62
     7
  6
CONTINUOUS
 10
4.4245
 20
7.0930
  0
VERTEX
  8
LAYER1
 62
     7
  6
CONTINUOUS
 10
4.4255
 20
7.0910
  0
VERTEX
  8
LAYER1
 62
     7
  6
CONTINUOUS
 10
4.4265
 20
7.0890
  0
VERTEX
  8
LAYER1
 62
     7
  6
CONTINUOUS
 10
4.4275
 20
7.0870
  0
VERTEX
  8
LAYER1
 62
     7
  6
CONTINUOUS
 10
4.4286
 20
7.0850
  0
VERTEX
  8
LAYER1
 62
     7
  6
CONTINUOUS
 10
4.4296
 20
7.0831
  0
VERTEX
  8
LAYER1
 62
     7
  6
CONTINUOUS
 10
4.4306
 20
7.0810
  0
VERTEX
  8
LAYER1
 62
     7
  6
CONTINUOUS
 10
4.4316
 20
7.0786
  0
VERTEX
  8
LAYER1
 62
     7
  6
CONTINUOUS
 10
4.4326
 20
7.0762
  0
VERTEX
  8
LAYER1
 62
     7
  6
CONTINUOUS
 10
4.4335
 20
7.0737
  0
VERTEX
  8
LAYER1
 62
     7
  6
CONTINUOUS
 10
4.4344
 20
7.0712
  0
VERTEX
  8
LAYER1
 62
     7
  6
CONTINUOUS
 10
4.4352
 20
7.0687
  0
VERTEX
  8
LAYER1
 62
     7
  6
CONTINUOUS
 10
4.4360
 20
7.0661
  0
VERTEX
  8
LAYER1
 62
     7
  6
CONTINUOUS
 10
4.4367
 20
7.0636
  0
VERTEX
  8
LAYER1
 62
     7
  6
CONTINUOUS
 10
4.4375
 20
7.0611
  0
VERTEX
  8
LAYER1
 62
     7
  6
CONTINUOUS
 10
4.4383
 20
7.0586
  0
VERTEX
  8
LAYER1
 62
     7
  6
CONTINUOUS
 10
4.4391
 20
7.0561
  0
VERTEX
  8
LAYER1
 62
     7
  6
CONTINUOUS
 10
4.4399
 20
7.0537
  0
VERTEX
  8
LAYER1
 62
     7
  6
CONTINUOUS
 10
4.4409
 20
7.0513
  0
VERTEX
  8
LAYER1
 62
     7
  6
CONTINUOUS
 10
4.4415
 20
7.0496
  0
VERTEX
  8
LAYER1
 62
     7
  6
CONTINUOUS
 10
4.4422
 20
7.0480
  0
VERTEX
  8
LAYER1
 62
     7
  6
CONTINUOUS
 10
4.4430
 20
7.0463
  0
VERTEX
  8
LAYER1
 62
     7
  6
CONTINUOUS
 10
4.4438
 20
7.0447
  0
VERTEX
  8
LAYER1
 62
     7
  6
CONTINUOUS
 10
4.4446
 20
7.0431
  0
VERTEX
  8
LAYER1
 62
     7
  6
CONTINUOUS
 10
4.4454
 20
7.0415
  0
VERTEX
  8
LAYER1
 62
     7
  6
CONTINUOUS
 10
4.4463
 20
7.0398
  0
VERTEX
  8
LAYER1
 62
     7
  6
CONTINUOUS
 10
4.4472
 20
7.0382
  0
VERTEX
  8
LAYER1
 62
     7
  6
CONTINUOUS
 10
4.4481
 20
7.0366
  0
VERTEX
  8
LAYER1
 62
     7
  6
CONTINUOUS
 10
4.4491
 20
7.0349
  0
VERTEX
  8
LAYER1
 62
     7
  6
CONTINUOUS
 10
4.4500
 20
7.0332
  0
VERTEX
  8
LAYER1
 62
     7
  6
CONTINUOUS
 10
4.4510
 20
7.0315
  0
VERTEX
  8
LAYER1
 62
     7
  6
CONTINUOUS
 10
4.4520
 20
7.0298
  0
VERTEX
  8
LAYER1
 62
     7
  6
CONTINUOUS
 10
4.4530
 20
7.0281
  0
VERTEX
  8
LAYER1
 62
     7
  6
CONTINUOUS
 10
4.4540
 20
7.0265
  0
VERTEX
  8
LAYER1
 62
     7
  6
CONTINUOUS
 10
4.4551
 20
7.0249
  0
VERTEX
  8
LAYER1
 62
     7
  6
CONTINUOUS
 10
4.4562
 20
7.0233
  0
VERTEX
  8
LAYER1
 62
     7
  6
CONTINUOUS
 10
4.4574
 20
7.0219
  0
VERTEX
  8
LAYER1
 62
     7
  6
CONTINUOUS
 10
4.4587
 20
7.0206
  0
VERTEX
  8
LAYER1
 62
     7
  6
CONTINUOUS
 10
4.4600
 20
7.0194
  0
VERTEX
  8
LAYER1
 62
     7
  6
CONTINUOUS
 10
4.4614
 20
7.0184
  0
VERTEX
  8
LAYER1
 62
     7
  6
CONTINUOUS
 10
4.4629
 20
7.0176
  0
VERTEX
  8
LAYER1
 62
     7
  6
CONTINUOUS
 10
4.4644
 20
7.0170
  0
VERTEX
  8
LAYER1
 62
     7
  6
CONTINUOUS
 10
4.4661
 20
7.0167
  0
VERTEX
  8
LAYER1
 62
     7
  6
CONTINUOUS
 10
4.4690
 20
7.0167
  0
VERTEX
  8
LAYER1
 62
     7
  6
CONTINUOUS
 10
4.4720
 20
7.0173
  0
VERTEX
  8
LAYER1
 62
     7
  6
CONTINUOUS
 10
4.4752
 20
7.0184
  0
VERTEX
  8
LAYER1
 62
     7
  6
CONTINUOUS
 10
4.4784
 20
7.0198
  0
VERTEX
  8
LAYER1
 62
     7
  6
CONTINUOUS
 10
4.4815
 20
7.0215
  0
VERTEX
  8
LAYER1
 62
     7
  6
CONTINUOUS
 10
4.4845
 20
7.0233
  0
VERTEX
  8
LAYER1
 62
     7
  6
CONTINUOUS
 10
4.4874
 20
7.0253
  0
VERTEX
  8
LAYER1
 62
     7
  6
CONTINUOUS
 10
4.4899
 20
7.0271
  0
VERTEX
  8
LAYER1
 62
     7
  6
CONTINUOUS
 10
4.4921
 20
7.0288
  0
VERTEX
  8
LAYER1
 62
     7
  6
CONTINUOUS
 10
4.4939
 20
7.0303
  0
VERTEX
  8
LAYER1
 62
     7
  6
CONTINUOUS
 10
4.4952
 20
7.0314
  0
VERTEX
  8
LAYER1
 62
     7
  6
CONTINUOUS
 10
4.4958
 20
7.0320
  0
VERTEX
  8
LAYER1
 62
     7
  6
CONTINUOUS
 10
4.4959
 20
7.0320
  0
VERTEX
  8
LAYER1
 62
     7
  6
CONTINUOUS
 10
4.4959
 20
7.0320
  0
VERTEX
  8
LAYER1
 62
     7
  6
CONTINUOUS
 10
4.4959
 20
7.0321
  0
VERTEX
  8
LAYER1
 62
     7
  6
CONTINUOUS
 10
4.4959
 20
7.0321
  0
VERTEX
  8
LAYER1
 62
     7
  6
CONTINUOUS
 10
4.4959
 20
7.0321
  0
VERTEX
  8
LAYER1
 62
     7
  6
CONTINUOUS
 10
4.4959
 20
7.0321
  0
VERTEX
  8
LAYER1
 62
     7
  6
CONTINUOUS
 10
4.4959
 20
7.0321
  0
VERTEX
  8
LAYER1
 62
     7
  6
CONTINUOUS
 10
4.4959
 20
7.0321
  0
VERTEX
  8
LAYER1
 62
     7
  6
CONTINUOUS
 10
4.4959
 20
7.0320
  0
VERTEX
  8
LAYER1
 62
     7
  6
CONTINUOUS
 10
4.4959
 20
7.0320
  0
SEQEND
  8
LAYER1
  0
POLYLINE
  8
LAYER1
 62
     7
 66
     1
  6
CONTINUOUS
  0
VERTEX
  8
LAYER1
 62
     7
  6
CONTINUOUS
 10
4.4959
 20
7.0320
  0
VERTEX
  8
LAYER1
 62
     7
  6
CONTINUOUS
 10
4.4958
 20
7.0320
  0
VERTEX
  8
LAYER1
 62
     7
  6
CONTINUOUS
 10
4.4958
 20
7.0320
  0
VERTEX
  8
LAYER1
 62
     7
  6
CONTINUOUS
 10
4.4958
 20
7.0319
  0
VERTEX
  8
LAYER1
 62
     7
  6
CONTINUOUS
 10
4.4958
 20
7.0319
  0
VERTEX
  8
LAYER1
 62
     7
  6
CONTINUOUS
 10
4.4958
 20
7.0319
  0
VERTEX
  8
LAYER1
 62
     7
  6
CONTINUOUS
 10
4.4957
 20
7.0318
  0
VERTEX
  8
LAYER1
 62
     7
  6
CONTINUOUS
 10
4.4957
 20
7.0318
  0
VERTEX
  8
LAYER1
 62
     7
  6
CONTINUOUS
 10
4.4957
 20
7.0318
  0
VERTEX
  8
LAYER1
 62
     7
  6
CONTINUOUS
 10
4.4957
 20
7.0318
  0
VERTEX
  8
LAYER1
 62
     7
  6
CONTINUOUS
 10
4.4957
 20
7.0318
  0
VERTEX
  8
LAYER1
 62
     7
  6
CONTINUOUS
 10
4.4957
 20
7.0318
  0
VERTEX
  8
LAYER1
 62
     7
  6
CONTINUOUS
 10
4.4958
 20
7.0319
  0
VERTEX
  8
LAYER1
 62
     7
  6
CONTINUOUS
 10
4.4958
 20
7.0319
  0
VERTEX
  8
LAYER1
 62
     7
  6
CONTINUOUS
 10
4.4958
 20
7.0320
  0
VERTEX
  8
LAYER1
 62
     7
  6
CONTINUOUS
 10
4.4962
 20
7.0325
  0
VERTEX
  8
LAYER1
 62
     7
  6
CONTINUOUS
 10
4.4967
 20
7.0333
  0
VERTEX
  8
LAYER1
 62
     7
  6
CONTINUOUS
 10
4.4975
 20
7.0345
  0
VERTEX
  8
LAYER1
 62
     7
  6
CONTINUOUS
 10
4.4985
 20
7.0358
  0
VERTEX
  8
LAYER1
 62
     7
  6
CONTINUOUS
 10
4.4996
 20
7.0373
  0
VERTEX
  8
LAYER1
 62
     7
  6
CONTINUOUS
 10
4.5009
 20
7.0389
  0
VERTEX
  8
LAYER1
 62
     7
  6
CONTINUOUS
 10
4.5023
 20
7.0406
  0
VERTEX
  8
LAYER1
 62
     7
  6
CONTINUOUS
 10
4.5038
 20
7.0422
  0
VERTEX
  8
LAYER1
 62
     7
  6
CONTINUOUS
 10
4.5055
 20
7.0437
  0
VERTEX
  8
LAYER1
 62
     7
  6
CONTINUOUS
 10
4.5071
 20
7.0451
  0
VERTEX
  8
LAYER1
 62
     7
  6
CONTINUOUS
 10
4.5089
 20
7.0462
  0
VERTEX
  8
LAYER1
 62
     7
  6
CONTINUOUS
 10
4.5106
 20
7.0471
  0
VERTEX
  8
LAYER1
 62
     7
  6
CONTINUOUS
 10
4.5114
 20
7.0474
  0
VERTEX
  8
LAYER1
 62
     7
  6
CONTINUOUS
 10
4.5122
 20
7.0476
  0
VERTEX
  8
LAYER1
 62
     7
  6
CONTINUOUS
 10
4.5131
 20
7.0477
  0
VERTEX
  8
LAYER1
 62
     7
  6
CONTINUOUS
 10
4.5139
 20
7.0478
  0
VERTEX
  8
LAYER1
 62
     7
  6
CONTINUOUS
 10
4.5147
 20
7.0479
  0
VERTEX
  8
LAYER1
 62
     7
  6
CONTINUOUS
 10
4.5156
 20
7.0479
  0
VERTEX
  8
LAYER1
 62
     7
  6
CONTINUOUS
 10
4.5164
 20
7.0478
  0
VERTEX
  8
LAYER1
 62
     7
  6
CONTINUOUS
 10
4.5172
 20
7.0478
  0
VERTEX
  8
LAYER1
 62
     7
  6
CONTINUOUS
 10
4.5181
 20
7.0476
  0
VERTEX
  8
LAYER1
 62
     7
  6
CONTINUOUS
 10
4.5189
 20
7.0475
  0
VERTEX
  8
LAYER1
 62
     7
  6
CONTINUOUS
 10
4.5197
 20
7.0473
  0
VERTEX
  8
LAYER1
 62
     7
  6
CONTINUOUS
 10
4.5206
 20
7.0472
  0
VERTEX
  8
LAYER1
 62
     7
  6
CONTINUOUS
 10
4.5224
 20
7.0467
  0
VERTEX
  8
LAYER1
 62
     7
  6
CONTINUOUS
 10
4.5243
 20
7.0462
  0
VERTEX
  8
LAYER1
 62
     7
  6
CONTINUOUS
 10
4.5261
 20
7.0457
  0
VERTEX
  8
LAYER1
 62
     7
  6
CONTINUOUS
 10
4.5279
 20
7.0451
  0
VERTEX
  8
LAYER1
 62
     7
  6
CONTINUOUS
 10
4.5297
 20
7.0444
  0
VERTEX
  8
LAYER1
 62
     7
  6
CONTINUOUS
 10
4.5314
 20
7.0436
  0
VERTEX
  8
LAYER1
 62
     7
  6
CONTINUOUS
 10
4.5331
 20
7.0428
  0
VERTEX
  8
LAYER1
 62
     7
  6
CONTINUOUS
 10
4.5348
 20
7.0419
  0
VERTEX
  8
LAYER1
 62
     7
  6
CONTINUOUS
 10
4.5363
 20
7.0409
  0
VERTEX
  8
LAYER1
 62
     7
  6
CONTINUOUS
 10
4.5378
 20
7.0399
  0
VERTEX
  8
LAYER1
 62
     7
  6
CONTINUOUS
 10
4.5392
 20
7.0387
  0
VERTEX
  8
LAYER1
 62
     7
  6
CONTINUOUS
 10
4.5406
 20
7.0374
  0
VERTEX
  8
LAYER1
 62
     7
  6
CONTINUOUS
 10
4.5418
 20
7.0361
  0
VERTEX
  8
LAYER1
 62
     7
  6
CONTINUOUS
 10
4.5429
 20
7.0346
  0
VERTEX
  8
LAYER1
 62
     7
  6
CONTINUOUS
 10
4.5440
 20
7.0331
  0
VERTEX
  8
LAYER1
 62
     7
  6
CONTINUOUS
 10
4.5449
 20
7.0315
  0
VERTEX
  8
LAYER1
 62
     7
  6
CONTINUOUS
 10
4.5458
 20
7.0299
  0
VERTEX
  8
LAYER1
 62
     7
  6
CONTINUOUS
 10
4.5467
 20
7.0282
  0
VERTEX
  8
LAYER1
 62
     7
  6
CONTINUOUS
 10
4.5475
 20
7.0265
  0
VERTEX
  8
LAYER1
 62
     7
  6
CONTINUOUS
 10
4.5482
 20
7.0247
  0
VERTEX
  8
LAYER1
 62
     7
  6
CONTINUOUS
 10
4.5489
 20
7.0230
  0
VERTEX
  8
LAYER1
 62
     7
  6
CONTINUOUS
 10
4.5495
 20
7.0212
  0
VERTEX
  8
LAYER1
 62
     7
  6
CONTINUOUS
 10
4.5501
 20
7.0194
  0
VERTEX
  8
LAYER1
 62
     7
  6
CONTINUOUS
 10
4.5507
 20
7.0176
  0
VERTEX
  8
LAYER1
 62
     7
  6
CONTINUOUS
 10
4.5512
 20
7.0164
  0
VERTEX
  8
LAYER1
 62
     7
  6
CONTINUOUS
 10
4.5516
 20
7.0152
  0
VERTEX
  8
LAYER1
 62
     7
  6
CONTINUOUS
 10
4.5520
 20
7.0139
  0
VERTEX
  8
LAYER1
 62
     7
  6
CONTINUOUS
 10
4.5524
 20
7.0127
  0
VERTEX
  8
LAYER1
 62
     7
  6
CONTINUOUS
 10
4.5528
 20
7.0115
  0
VERTEX
  8
LAYER1
 62
     7
  6
CONTINUOUS
 10
4.5532
 20
7.0103
  0
VERTEX
  8
LAYER1
 62
     7
  6
CONTINUOUS
 10
4.5536
 20
7.0091
  0
VERTEX
  8
LAYER1
 62
     7
  6
CONTINUOUS
 10
4.5541
 20
7.0078
  0
VERTEX
  8
LAYER1
 62
     7
  6
CONTINUOUS
 10
4.5545
 20
7.0066
  0
VERTEX
  8
LAYER1
 62
     7
  6
CONTINUOUS
 10
4.5549
 20
7.0053
  0
VERTEX
  8
LAYER1
 62
     7
  6
CONTINUOUS
 10
4.5554
 20
7.0041
  0
VERTEX
  8
LAYER1
 62
     7
  6
CONTINUOUS
 10
4.5559
 20
7.0028
  0
VERTEX
  8
LAYER1
 62
     7
  6
CONTINUOUS
 10
4.5565
 20
7.0013
  0
VERTEX
  8
LAYER1
 62
     7
  6
CONTINUOUS
 10
4.5571
 20
6.9998
  0
VERTEX
  8
LAYER1
 62
     7
  6
CONTINUOUS
 10
4.5577
 20
6.9983
  0
VERTEX
  8
LAYER1
 62
     7
  6
CONTINUOUS
 10
4.5584
 20
6.9968
  0
VERTEX
  8
LAYER1
 62
     7
  6
CONTINUOUS
 10
4.5591
 20
6.9953
  0
VERTEX
  8
LAYER1
 62
     7
  6
CONTINUOUS
 10
4.5599
 20
6.9940
  0
VERTEX
  8
LAYER1
 62
     7
  6
CONTINUOUS
 10
4.5607
 20
6.9927
  0
VERTEX
  8
LAYER1
 62
     7
  6
CONTINUOUS
 10
4.5617
 20
6.9915
  0
VERTEX
  8
LAYER1
 62
     7
  6
CONTINUOUS
 10
4.5626
 20
6.9904
  0
VERTEX
  8
LAYER1
 62
     7
  6
CONTINUOUS
 10
4.5637
 20
6.9894
  0
VERTEX
  8
LAYER1
 62
     7
  6
CONTINUOUS
 10
4.5648
 20
6.9886
  0
VERTEX
  8
LAYER1
 62
     7
  6
CONTINUOUS
 10
4.5660
 20
6.9879
  0
VERTEX
  8
LAYER1
 62
     7
  6
CONTINUOUS
 10
4.5675
 20
6.9874
  0
VERTEX
  8
LAYER1
 62
     7
  6
CONTINUOUS
 10
4.5691
 20
6.9871
  0
VERTEX
  8
LAYER1
 62
     7
  6
CONTINUOUS
 10
4.5707
 20
6.9870
  0
VERTEX
  8
LAYER1
 62
     7
  6
CONTINUOUS
 10
4.5725
 20
6.9871
  0
VERTEX
  8
LAYER1
 62
     7
  6
CONTINUOUS
 10
4.5742
 20
6.9873
  0
VERTEX
  8
LAYER1
 62
     7
  6
CONTINUOUS
 10
4.5760
 20
6.9878
  0
VERTEX
  8
LAYER1
 62
     7
  6
CONTINUOUS
 10
4.5778
 20
6.9884
  0
VERTEX
  8
LAYER1
 62
     7
  6
CONTINUOUS
 10
4.5795
 20
6.9891
  0
VERTEX
  8
LAYER1
 62
     7
  6
CONTINUOUS
 10
4.5812
 20
6.9899
  0
VERTEX
  8
LAYER1
 62
     7
  6
CONTINUOUS
 10
4.5829
 20
6.9909
  0
VERTEX
  8
LAYER1
 62
     7
  6
CONTINUOUS
 10
4.5844
 20
6.9920
  0
VERTEX
  8
LAYER1
 62
     7
  6
CONTINUOUS
 10
4.5859
 20
6.9931
  0
VERTEX
  8
LAYER1
 62
     7
  6
CONTINUOUS
 10
4.5880
 20
6.9951
  0
VERTEX
  8
LAYER1
 62
     7
  6
CONTINUOUS
 10
4.5898
 20
6.9973
  0
VERTEX
  8
LAYER1
 62
     7
  6
CONTINUOUS
 10
4.5914
 20
6.9996
  0
VERTEX
  8
LAYER1
 62
     7
  6
CONTINUOUS
 10
4.5927
 20
7.0021
  0
VERTEX
  8
LAYER1
 62
     7
  6
CONTINUOUS
 10
4.5939
 20
7.0046
  0
VERTEX
  8
LAYER1
 62
     7
  6
CONTINUOUS
 10
4.5949
 20
7.0072
  0
VERTEX
  8
LAYER1
 62
     7
  6
CONTINUOUS
 10
4.5959
 20
7.0099
  0
VERTEX
  8
LAYER1
 62
     7
  6
CONTINUOUS
 10
4.5967
 20
7.0125
  0
VERTEX
  8
LAYER1
 62
     7
  6
CONTINUOUS
 10
4.5976
 20
7.0152
  0
VERTEX
  8
LAYER1
 62
     7
  6
CONTINUOUS
 10
4.5985
 20
7.0179
  0
VERTEX
  8
LAYER1
 62
     7
  6
CONTINUOUS
 10
4.5994
 20
7.0206
  0
VERTEX
  8
LAYER1
 62
     7
  6
CONTINUOUS
 10
4.6005
 20
7.0232
  0
VERTEX
  8
LAYER1
 62
     7
  6
CONTINUOUS
 10
4.6017
 20
7.0259
  0
VERTEX
  8
LAYER1
 62
     7
  6
CONTINUOUS
 10
4.6031
 20
7.0285
  0
VERTEX
  8
LAYER1
 62
     7
  6
CONTINUOUS
 10
4.6046
 20
7.0310
  0
VERTEX
  8
LAYER1
 62
     7
  6
CONTINUOUS
 10
4.6062
 20
7.0336
  0
VERTEX
  8
LAYER1
 62
     7
  6
CONTINUOUS
 10
4.6079
 20
7.0360
  0
VERTEX
  8
LAYER1
 62
     7
  6
CONTINUOUS
 10
4.6096
 20
7.0385
  0
VERTEX
  8
LAYER1
 62
     7
  6
CONTINUOUS
 10
4.6114
 20
7.0409
  0
VERTEX
  8
LAYER1
 62
     7
  6
CONTINUOUS
 10
4.6132
 20
7.0433
  0
VERTEX
  8
LAYER1
 62
     7
  6
CONTINUOUS
 10
4.6149
 20
7.0457
  0
VERTEX
  8
LAYER1
 62
     7
  6
CONTINUOUS
 10
4.6167
 20
7.0482
  0
VERTEX
  8
LAYER1
 62
     7
  6
CONTINUOUS
 10
4.6184
 20
7.0507
  0
VERTEX
  8
LAYER1
 62
     7
  6
CONTINUOUS
 10
4.6200
 20
7.0532
  0
VERTEX
  8
LAYER1
 62
     7
  6
CONTINUOUS
 10
4.6220
 20
7.0565
  0
VERTEX
  8
LAYER1
 62
     7
  6
CONTINUOUS
 10
4.6238
 20
7.0598
  0
VERTEX
  8
LAYER1
 62
     7
  6
CONTINUOUS
 10
4.6255
 20
7.0632
  0
VERTEX
  8
LAYER1
 62
     7
  6
CONTINUOUS
 10
4.6271
 20
7.0666
  0
VERTEX
  8
LAYER1
 62
     7
  6
CONTINUOUS
 10
4.6287
 20
7.0701
  0
VERTEX
  8
LAYER1
 62
     7
  6
CONTINUOUS
 10
4.6303
 20
7.0735
  0
VERTEX
  8
LAYER1
 62
     7
  6
CONTINUOUS
 10
4.6318
 20
7.0770
  0
VERTEX
  8
LAYER1
 62
     7
  6
CONTINUOUS
 10
4.6333
 20
7.0804
  0
VERTEX
  8
LAYER1
 62
     7
  6
CONTINUOUS
 10
4.6348
 20
7.0837
  0
VERTEX
  8
LAYER1
 62
     7
  6
CONTINUOUS
 10
4.6363
 20
7.0870
  0
VERTEX
  8
LAYER1
 62
     7
  6
CONTINUOUS
 10
4.6379
 20
7.0902
  0
VERTEX
  8
LAYER1
 62
     7
  6
CONTINUOUS
 10
4.6395
 20
7.0933
  0
VERTEX
  8
LAYER1
 62
     7
  6
CONTINUOUS
 10
4.6412
 20
7.0962
  0
VERTEX
  8
LAYER1
 62
     7
  6
CONTINUOUS
 10
4.6429
 20
7.0989
  0
VERTEX
  8
LAYER1
 62
     7
  6
CONTINUOUS
 10
4.6447
 20
7.1017
  0
VERTEX
  8
LAYER1
 62
     7
  6
CONTINUOUS
 10
4.6466
 20
7.1043
  0
VERTEX
  8
LAYER1
 62
     7
  6
CONTINUOUS
 10
4.6485
 20
7.1070
  0
VERTEX
  8
LAYER1
 62
     7
  6
CONTINUOUS
 10
4.6505
 20
7.1098
  0
VERTEX
  8
LAYER1
 62
     7
  6
CONTINUOUS
 10
4.6526
 20
7.1126
  0
VERTEX
  8
LAYER1
 62
     7
  6
CONTINUOUS
 10
4.6547
 20
7.1154
  0
VERTEX
  8
LAYER1
 62
     7
  6
CONTINUOUS
 10
4.6569
 20
7.1184
  0
VERTEX
  8
LAYER1
 62
     7
  6
CONTINUOUS
 10
4.6592
 20
7.1216
  0
VERTEX
  8
LAYER1
 62
     7
  6
CONTINUOUS
 10
4.6616
 20
7.1249
  0
VERTEX
  8
LAYER1
 62
     7
  6
CONTINUOUS
 10
4.6640
 20
7.1284
  0
VERTEX
  8
LAYER1
 62
     7
  6
CONTINUOUS
 10
4.6668
 20
7.1325
  0
VERTEX
  8
LAYER1
 62
     7
  6
CONTINUOUS
 10
4.6695
 20
7.1368
  0
VERTEX
  8
LAYER1
 62
     7
  6
CONTINUOUS
 10
4.6723
 20
7.1412
  0
VERTEX
  8
LAYER1
 62
     7
  6
CONTINUOUS
 10
4.6750
 20
7.1456
  0
VERTEX
  8
LAYER1
 62
     7
  6
CONTINUOUS
 10
4.6776
 20
7.1498
  0
VERTEX
  8
LAYER1
 62
     7
  6
CONTINUOUS
 10
4.6800
 20
7.1539
  0
VERTEX
  8
LAYER1
 62
     7
  6
CONTINUOUS
 10
4.6822
 20
7.1577
  0
VERTEX
  8
LAYER1
 62
     7
  6
CONTINUOUS
 10
4.6842
 20
7.1610
  0
VERTEX
  8
LAYER1
 62
     7
  6
CONTINUOUS
 10
4.6858
 20
7.1639
  0
VERTEX
  8
LAYER1
 62
     7
  6
CONTINUOUS
 10
4.6871
 20
7.1661
  0
VERTEX
  8
LAYER1
 62
     7
  6
CONTINUOUS
 10
4.6880
 20
7.1677
  0
VERTEX
  8
LAYER1
 62
     7
  6
CONTINUOUS
 10
4.6885
 20
7.1685
  0
VERTEX
  8
LAYER1
 62
     7
  6
CONTINUOUS
 10
4.6885
 20
7.1685
  0
VERTEX
  8
LAYER1
 62
     7
  6
CONTINUOUS
 10
4.6885
 20
7.1686
  0
VERTEX
  8
LAYER1
 62
     7
  6
CONTINUOUS
 10
4.6885
 20
7.1686
  0
VERTEX
  8
LAYER1
 62
     7
  6
CONTINUOUS
 10
4.6885
 20
7.1686
  0
VERTEX
  8
LAYER1
 62
     7
  6
CONTINUOUS
 10
4.6885
 20
7.1686
  0
VERTEX
  8
LAYER1
 62
     7
  6
CONTINUOUS
 10
4.6885
 20
7.1686
  0
VERTEX
  8
LAYER1
 62
     7
  6
CONTINUOUS
 10
4.6885
 20
7.1686
  0
VERTEX
  8
LAYER1
 62
     7
  6
CONTINUOUS
 10
4.6885
 20
7.1686
  0
VERTEX
  8
LAYER1
 62
     7
  6
CONTINUOUS
 10
4.6885
 20
7.1686
  0
VERTEX
  8
LAYER1
 62
     7
  6
CONTINUOUS
 10
4.6885
 20
7.1685
  0
VERTEX
  8
LAYER1
 62
     7
  6
CONTINUOUS
 10
4.6885
 20
7.1685
  0
VERTEX
  8
LAYER1
 62
     7
  6
CONTINUOUS
 10
4.6885
 20
7.1685
  0
VERTEX
  8
LAYER1
 62
     7
  6
CONTINUOUS
 10
4.6885
 20
7.1685
  0
VERTEX
  8
LAYER1
 62
     7
  6
CONTINUOUS
 10
4.6885
 20
7.1685
  0
VERTEX
  8
LAYER1
 62
     7
  6
CONTINUOUS
 10
4.6884
 20
7.1684
  0
VERTEX
  8
LAYER1
 62
     7
  6
CONTINUOUS
 10
4.6884
 20
7.1684
  0
VERTEX
  8
LAYER1
 62
     7
  6
CONTINUOUS
 10
4.6884
 20
7.1684
  0
VERTEX
  8
LAYER1
 62
     7
  6
CONTINUOUS
 10
4.6884
 20
7.1684
  0
VERTEX
  8
LAYER1
 62
     7
  6
CONTINUOUS
 10
4.6884
 20
7.1684
  0
VERTEX
  8
LAYER1
 62
     7
  6
CONTINUOUS
 10
4.6884
 20
7.1684
  0
VERTEX
  8
LAYER1
 62
     7
  6
CONTINUOUS
 10
4.6884
 20
7.1684
  0
VERTEX
  8
LAYER1
 62
     7
  6
CONTINUOUS
 10
4.6884
 20
7.1684
  0
VERTEX
  8
LAYER1
 62
     7
  6
CONTINUOUS
 10
4.6885
 20
7.1685
  0
VERTEX
  8
LAYER1
 62
     7
  6
CONTINUOUS
 10
4.6885
 20
7.1685
  0
VERTEX
  8
LAYER1
 62
     7
  6
CONTINUOUS
 10
4.6888
 20
7.1691
  0
VERTEX
  8
LAYER1
 62
     7
  6
CONTINUOUS
 10
4.6894
 20
7.1701
  0
VERTEX
  8
LAYER1
 62
     7
  6
CONTINUOUS
 10
4.6903
 20
7.1715
  0
VERTEX
  8
LAYER1
 62
     7
  6
CONTINUOUS
 10
4.6913
 20
7.1733
  0
VERTEX
  8
LAYER1
 62
     7
  6
CONTINUOUS
 10
4.6926
 20
7.1754
  0
VERTEX
  8
LAYER1
 62
     7
  6
CONTINUOUS
 10
4.6939
 20
7.1777
  0
VERTEX
  8
LAYER1
 62
     7
  6
CONTINUOUS
 10
4.6954
 20
7.1802
  0
VERTEX
  8
LAYER1
 62
     7
  6
CONTINUOUS
 10
4.6970
 20
7.1828
  0
VERTEX
  8
LAYER1
 62
     7
  6
CONTINUOUS
 10
4.6985
 20
7.1855
  0
VERTEX
  8
LAYER1
 62
     7
  6
CONTINUOUS
 10
4.7001
 20
7.1883
  0
VERTEX
  8
LAYER1
 62
     7
  6
CONTINUOUS
 10
4.7017
 20
7.1909
  0
VERTEX
  8
LAYER1
 62
     7
  6
CONTINUOUS
 10
4.7031
 20
7.1936
  0
VERTEX
  8
LAYER1
 62
     7
  6
CONTINUOUS
 10
4.7047
 20
7.1963
  0
VERTEX
  8
LAYER1
 62
     7
  6
CONTINUOUS
 10
4.7061
 20
7.1988
  0
VERTEX
  8
LAYER1
 62
     7
  6
CONTINUOUS
 10
4.7075
 20
7.2012
  0
VERTEX
  8
LAYER1
 62
     7
  6
CONTINUOUS
 10
4.7088
 20
7.2035
  0
VERTEX
  8
LAYER1
 62
     7
  6
CONTINUOUS
 10
4.7102
 20
7.2056
  0
VERTEX
  8
LAYER1
 62
     7
  6
CONTINUOUS
 10
4.7116
 20
7.2077
  0
VERTEX
  8
LAYER1
 62
     7
  6
CONTINUOUS
 10
4.7130
 20
7.2096
  0
VERTEX
  8
LAYER1
 62
     7
  6
CONTINUOUS
 10
4.7146
 20
7.2115
  0
VERTEX
  8
LAYER1
 62
     7
  6
CONTINUOUS
 10
4.7164
 20
7.2134
  0
VERTEX
  8
LAYER1
 62
     7
  6
CONTINUOUS
 10
4.7183
 20
7.2152
  0
VERTEX
  8
LAYER1
 62
     7
  6
CONTINUOUS
 10
4.7204
 20
7.2169
  0
VERTEX
  8
LAYER1
 62
     7
  6
CONTINUOUS
 10
4.7228
 20
7.2187
  0
VERTEX
  8
LAYER1
 62
     7
  6
CONTINUOUS
 10
4.7255
 20
7.2205
  0
VERTEX
  8
LAYER1
 62
     7
  6
CONTINUOUS
 10
4.7285
 20
7.2223
  0
VERTEX
  8
LAYER1
 62
     7
  6
CONTINUOUS
 10
4.7316
 20
7.2241
  0
VERTEX
  8
LAYER1
 62
     7
  6
CONTINUOUS
 10
4.7348
 20
7.2257
  0
VERTEX
  8
LAYER1
 62
     7
  6
CONTINUOUS
 10
4.7380
 20
7.2273
  0
VERTEX
  8
LAYER1
 62
     7
  6
CONTINUOUS
 10
4.7410
 20
7.2288
  0
VERTEX
  8
LAYER1
 62
     7
  6
CONTINUOUS
 10
4.7439
 20
7.2301
  0
VERTEX
  8
LAYER1
 62
     7
  6
CONTINUOUS
 10
4.7465
 20
7.2313
  0
VERTEX
  8
LAYER1
 62
     7
  6
CONTINUOUS
 10
4.7487
 20
7.2323
  0
VERTEX
  8
LAYER1
 62
     7
  6
CONTINUOUS
 10
4.7505
 20
7.2331
  0
VERTEX
  8
LAYER1
 62
     7
  6
CONTINUOUS
 10
4.7518
 20
7.2336
  0
VERTEX
  8
LAYER1
 62
     7
  6
CONTINUOUS
 10
4.7525
 20
7.2339
  0
VERTEX
  8
LAYER1
 62
     7
  6
CONTINUOUS
 10
4.7525
 20
7.2339
  0
VERTEX
  8
LAYER1
 62
     7
  6
CONTINUOUS
 10
4.7525
 20
7.2340
  0
VERTEX
  8
LAYER1
 62
     7
  6
CONTINUOUS
 10
4.7526
 20
7.2340
  0
VERTEX
  8
LAYER1
 62
     7
  6
CONTINUOUS
 10
4.7526
 20
7.2340
  0
VERTEX
  8
LAYER1
 62
     7
  6
CONTINUOUS
 10
4.7526
 20
7.2340
  0
VERTEX
  8
LAYER1
 62
     7
  6
CONTINUOUS
 10
4.7526
 20
7.2340
  0
VERTEX
  8
LAYER1
 62
     7
  6
CONTINUOUS
 10
4.7526
 20
7.2340
  0
VERTEX
  8
LAYER1
 62
     7
  6
CONTINUOUS
 10
4.7526
 20
7.2340
  0
VERTEX
  8
LAYER1
 62
     7
  6
CONTINUOUS
 10
4.7525
 20
7.2340
  0
VERTEX
  8
LAYER1
 62
     7
  6
CONTINUOUS
 10
4.7525
 20
7.2340
  0
VERTEX
  8
LAYER1
 62
     7
  6
CONTINUOUS
 10
4.7525
 20
7.2339
  0
VERTEX
  8
LAYER1
 62
     7
  6
CONTINUOUS
 10
4.7525
 20
7.2339
  0
VERTEX
  8
LAYER1
 62
     7
  6
CONTINUOUS
 10
4.7525
 20
7.2339
  0
VERTEX
  8
LAYER1
 62
     7
  6
CONTINUOUS
 10
4.7524
 20
7.2339
  0
VERTEX
  8
LAYER1
 62
     7
  6
CONTINUOUS
 10
4.7524
 20
7.2339
  0
VERTEX
  8
LAYER1
 62
     7
  6
CONTINUOUS
 10
4.7524
 20
7.2339
  0
VERTEX
  8
LAYER1
 62
     7
  6
CONTINUOUS
 10
4.7524
 20
7.2339
  0
VERTEX
  8
LAYER1
 62
     7
  6
CONTINUOUS
 10
4.7524
 20
7.2339
  0
VERTEX
  8
LAYER1
 62
     7
  6
CONTINUOUS
 10
4.7524
 20
7.2339
  0
VERTEX
  8
LAYER1
 62
     7
  6
CONTINUOUS
 10
4.7524
 20
7.2339
  0
VERTEX
  8
LAYER1
 62
     7
  6
CONTINUOUS
 10
4.7524
 20
7.2339
  0
VERTEX
  8
LAYER1
 62
     7
  6
CONTINUOUS
 10
4.7524
 20
7.2339
  0
VERTEX
  8
LAYER1
 62
     7
  6
CONTINUOUS
 10
4.7524
 20
7.2339
  0
VERTEX
  8
LAYER1
 62
     7
  6
CONTINUOUS
 10
4.7525
 20
7.2339
  0
VERTEX
  8
LAYER1
 62
     7
  6
CONTINUOUS
 10
4.7530
 20
7.2343
  0
VERTEX
  8
LAYER1
 62
     7
  6
CONTINUOUS
 10
4.7540
 20
7.2351
  0
VERTEX
  8
LAYER1
 62
     7
  6
CONTINUOUS
 10
4.7555
 20
7.2361
  0
VERTEX
  8
LAYER1
 62
     7
  6
CONTINUOUS
 10
4.7573
 20
7.2374
  0
VERTEX
  8
LAYER1
 62
     7
  6
CONTINUOUS
 10
4.7595
 20
7.2388
  0
VERTEX
  8
LAYER1
 62
     7
  6
CONTINUOUS
 10
4.7621
 20
7.2404
  0
VERTEX
  8
LAYER1
 62
     7
  6
CONTINUOUS
 10
4.7649
 20
7.2420
  0
VERTEX
  8
LAYER1
 62
     7
  6
CONTINUOUS
 10
4.7680
 20
7.2436
  0
VERTEX
  8
LAYER1
 62
     7
  6
CONTINUOUS
 10
4.7713
 20
7.2452
  0
VERTEX
  8
LAYER1
 62
     7
  6
CONTINUOUS
 10
4.7748
 20
7.2467
  0
VERTEX
  8
LAYER1
 62
     7
  6
CONTINUOUS
 10
4.7784
 20
7.2481
  0
VERTEX
  8
LAYER1
 62
     7
  6
CONTINUOUS
 10
4.7822
 20
7.2492
  0
VERTEX
  8
LAYER1
 62
     7
  6
CONTINUOUS
 10
4.7867
 20
7.2502
  0
VERTEX
  8
LAYER1
 62
     7
  6
CONTINUOUS
 10
4.7913
 20
7.2509
  0
VERTEX
  8
LAYER1
 62
     7
  6
CONTINUOUS
 10
4.7958
 20
7.2513
  0
VERTEX
  8
LAYER1
 62
     7
  6
CONTINUOUS
 10
4.8002
 20
7.2515
  0
VERTEX
  8
LAYER1
 62
     7
  6
CONTINUOUS
 10
4.8044
 20
7.2515
  0
VERTEX
  8
LAYER1
 62
     7
  6
CONTINUOUS
 10
4.8083
 20
7.2513
  0
VERTEX
  8
LAYER1
 62
     7
  6
CONTINUOUS
 10
4.8119
 20
7.2510
  0
VERTEX
  8
LAYER1
 62
     7
  6
CONTINUOUS
 10
4.8151
 20
7.2507
  0
VERTEX
  8
LAYER1
 62
     7
  6
CONTINUOUS
 10
4.8177
 20
7.2503
  0
VERTEX
  8
LAYER1
 62
     7
  6
CONTINUOUS
 10
4.8198
 20
7.2500
  0
VERTEX
  8
LAYER1
 62
     7
  6
CONTINUOUS
 10
4.8213
 20
7.2498
  0
VERTEX
  8
LAYER1
 62
     7
  6
CONTINUOUS
 10
4.8220
 20
7.2496
  0
VERTEX
  8
LAYER1
 62
     7
  6
CONTINUOUS
 10
4.8220
 20
7.2496
  0
VERTEX
  8
LAYER1
 62
     7
  6
CONTINUOUS
 10
4.8221
 20
7.2496
  0
VERTEX
  8
LAYER1
 62
     7
  6
CONTINUOUS
 10
4.8221
 20
7.2496
  0
VERTEX
  8
LAYER1
 62
     7
  6
CONTINUOUS
 10
4.8221
 20
7.2496
  0
VERTEX
  8
LAYER1
 62
     7
  6
CONTINUOUS
 10
4.8221
 20
7.2496
  0
VERTEX
  8
LAYER1
 62
     7
  6
CONTINUOUS
 10
4.8221
 20
7.2496
  0
VERTEX
  8
LAYER1
 62
     7
  6
CONTINUOUS
 10
4.8221
 20
7.2496
  0
VERTEX
  8
LAYER1
 62
     7
  6
CONTINUOUS
 10
4.8221
 20
7.2496
  0
VERTEX
  8
LAYER1
 62
     7
  6
CONTINUOUS
 10
4.8221
 20
7.2496
  0
VERTEX
  8
LAYER1
 62
     7
  6
CONTINUOUS
 10
4.8220
 20
7.2496
  0
VERTEX
  8
LAYER1
 62
     7
  6
CONTINUOUS
 10
4.8220
 20
7.2496
  0
VERTEX
  8
LAYER1
 62
     7
  6
CONTINUOUS
 10
4.8220
 20
7.2496
  0
VERTEX
  8
LAYER1
 62
     7
  6
CONTINUOUS
 10
4.8220
 20
7.2496
  0
VERTEX
  8
LAYER1
 62
     7
  6
CONTINUOUS
 10
4.8220
 20
7.2496
  0
VERTEX
  8
LAYER1
 62
     7
  6
CONTINUOUS
 10
4.8219
 20
7.2496
  0
VERTEX
  8
LAYER1
 62
     7
  6
CONTINUOUS
 10
4.8219
 20
7.2496
  0
VERTEX
  8
LAYER1
 62
     7
  6
CONTINUOUS
 10
4.8219
 20
7.2496
  0
VERTEX
  8
LAYER1
 62
     7
  6
CONTINUOUS
 10
4.8219
 20
7.2496
  0
VERTEX
  8
LAYER1
 62
     7
  6
CONTINUOUS
 10
4.8219
 20
7.2496
  0
VERTEX
  8
LAYER1
 62
     7
  6
CONTINUOUS
 10
4.8219
 20
7.2496
  0
VERTEX
  8
LAYER1
 62
     7
  6
CONTINUOUS
 10
4.8219
 20
7.2496
  0
VERTEX
  8
LAYER1
 62
     7
  6
CONTINUOUS
 10
4.8219
 20
7.2496
  0
VERTEX
  8
LAYER1
 62
     7
  6
CONTINUOUS
 10
4.8220
 20
7.2496
  0
VERTEX
  8
LAYER1
 62
     7
  6
CONTINUOUS
 10
4.8220
 20
7.2496
  0
VERTEX
  8
LAYER1
 62
     7
  6
CONTINUOUS
 10
4.8228
 20
7.2498
  0
VERTEX
  8
LAYER1
 62
     7
  6
CONTINUOUS
 10
4.8245
 20
7.2501
  0
VERTEX
  8
LAYER1
 62
     7
  6
CONTINUOUS
 10
4.8269
 20
7.2506
  0
VERTEX
  8
LAYER1
 62
     7
  6
CONTINUOUS
 10
4.8300
 20
7.2512
  0
VERTEX
  8
LAYER1
 62
     7
  6
CONTINUOUS
 10
4.8337
 20
7.2520
  0
VERTEX
  8
LAYER1
 62
     7
  6
CONTINUOUS
 10
4.8378
 20
7.2528
  0
VERTEX
  8
LAYER1
 62
     7
  6
CONTINUOUS
 10
4.8422
 20
7.2538
  0
VERTEX
  8
LAYER1
 62
     7
  6
CONTINUOUS
 10
4.8470
 20
7.2549
  0
SEQEND
  8
LAYER1
  0
POLYLINE
  8
LAYER1
 62
     7
 66
     1
  6
CONTINUOUS
  0
VERTEX
  8
LAYER1
 62
     7
  6
CONTINUOUS
 10
4.8470
 20
7.2549
  0
VERTEX
  8
LAYER1
 62
     7
  6
CONTINUOUS
 10
4.8519
 20
7.2561
  0
VERTEX
  8
LAYER1
 62
     7
  6
CONTINUOUS
 10
4.8569
 20
7.2574
  0
VERTEX
  8
LAYER1
 62
     7
  6
CONTINUOUS
 10
4.8618
 20
7.2587
  0
VERTEX
  8
LAYER1
 62
     7
  6
CONTINUOUS
 10
4.8667
 20
7.2601
  0
VERTEX
  8
LAYER1
 62
     7
  6
CONTINUOUS
 10
4.9007
 20
7.2738
  0
VERTEX
  8
LAYER1
 62
     7
  6
CONTINUOUS
 10
4.9197
 20
7.2901
  0
VERTEX
  8
LAYER1
 62
     7
  6
CONTINUOUS
 10
4.9249
 20
7.3090
  0
VERTEX
  8
LAYER1
 62
     7
  6
CONTINUOUS
 10
4.9179
 20
7.3300
  0
VERTEX
  8
LAYER1
 62
     7
  6
CONTINUOUS
 10
4.8999
 20
7.3529
  0
VERTEX
  8
LAYER1
 62
     7
  6
CONTINUOUS
 10
4.8724
 20
7.3776
  0
VERTEX
  8
LAYER1
 62
     7
  6
CONTINUOUS
 10
4.8366
 20
7.4038
  0
VERTEX
  8
LAYER1
 62
     7
  6
CONTINUOUS
 10
4.7941
 20
7.4311
  0
VERTEX
  8
LAYER1
 62
     7
  6
CONTINUOUS
 10
4.7460
 20
7.4595
  0
VERTEX
  8
LAYER1
 62
     7
  6
CONTINUOUS
 10
4.6938
 20
7.4886
  0
VERTEX
  8
LAYER1
 62
     7
  6
CONTINUOUS
 10
4.6389
 20
7.5181
  0
VERTEX
  8
LAYER1
 62
     7
  6
CONTINUOUS
 10
4.5826
 20
7.5479
  0
SEQEND
  8
LAYER1
  0
ARC
  8
LAYER1
 62
     7
  6
CONTINUOUS
 10
4.5025
 20
7.5572
 40
0.0176
 50
-37.5002
 51
-31.9573
  0
POLYLINE
  8
LAYER10
 62
     1
 66
     1
  6
CONTINUOUS
  0
VERTEX
  8
LAYER10
 62
     1
  6
CONTINUOUS
 10
5.0376
 20
7.5465
  0
VERTEX
  8
LAYER10
 62
     1
  6
CONTINUOUS
 10
5.0377
 20
7.5461
  0
VERTEX
  8
LAYER10
 62
     1
  6
CONTINUOUS
 10
5.0377
 20
7.5456
  0
VERTEX
  8
LAYER10
 62
     1
  6
CONTINUOUS
 10
5.0377
 20
7.5451
  0
VERTEX
  8
LAYER10
 62
     1
  6
CONTINUOUS
 10
5.0377
 20
7.5446
  0
VERTEX
  8
LAYER10
 62
     1
  6
CONTINUOUS
 10
5.0378
 20
7.5441
  0
VERTEX
  8
LAYER10
 62
     1
  6
CONTINUOUS
 10
5.0378
 20
7.5436
  0
VERTEX
  8
LAYER10
 62
     1
  6
CONTINUOUS
 10
5.0378
 20
7.5432
  0
VERTEX
  8
LAYER10
 62
     1
  6
CONTINUOUS
 10
5.0378
 20
7.5427
  0
VERTEX
  8
LAYER10
 62
     1
  6
CONTINUOUS
 10
5.0378
 20
7.5422
  0
VERTEX
  8
LAYER10
 62
     1
  6
CONTINUOUS
 10
5.0378
 20
7.5417
  0
VERTEX
  8
LAYER10
 62
     1
  6
CONTINUOUS
 10
5.0378
 20
7.5412
  0
VERTEX
  8
LAYER10
 62
     1
  6
CONTINUOUS
 10
5.0378
 20
7.5408
  0
VERTEX
  8
LAYER10
 62
     1
  6
CONTINUOUS
 10
5.0378
 20
7.5382
  0
VERTEX
  8
LAYER10
 62
     1
  6
CONTINUOUS
 10
5.0377
 20
7.5357
  0
VERTEX
  8
LAYER10
 62
     1
  6
CONTINUOUS
 10
5.0375
 20
7.5332
  0
VERTEX
  8
LAYER10
 62
     1
  6
CONTINUOUS
 10
5.0372
 20
7.5307
  0
VERTEX
  8
LAYER10
 62
     1
  6
CONTINUOUS
 10
5.0369
 20
7.5282
  0
VERTEX
  8
LAYER10
 62
     1
  6
CONTINUOUS
 10
5.0365
 20
7.5257
  0
VERTEX
  8
LAYER10
 62
     1
  6
CONTINUOUS
 10
5.0360
 20
7.5232
  0
VERTEX
  8
LAYER10
 62
     1
  6
CONTINUOUS
 10
5.0355
 20
7.5207
  0
VERTEX
  8
LAYER10
 62
     1
  6
CONTINUOUS
 10
5.0350
 20
7.5182
  0
VERTEX
  8
LAYER10
 62
     1
  6
CONTINUOUS
 10
5.0344
 20
7.5158
  0
VERTEX
  8
LAYER10
 62
     1
  6
CONTINUOUS
 10
5.0338
 20
7.5133
  0
VERTEX
  8
LAYER10
 62
     1
  6
CONTINUOUS
 10
5.0332
 20
7.5108
  0
VERTEX
  8
LAYER10
 62
     1
  6
CONTINUOUS
 10
5.0329
 20
7.5095
  0
VERTEX
  8
LAYER10
 62
     1
  6
CONTINUOUS
 10
5.0325
 20
7.5083
  0
VERTEX
  8
LAYER10
 62
     1
  6
CONTINUOUS
 10
5.0322
 20
7.5070
  0
VERTEX
  8
LAYER10
 62
     1
  6
CONTINUOUS
 10
5.0318
 20
7.5057
  0
VERTEX
  8
LAYER10
 62
     1
  6
CONTINUOUS
 10
5.0315
 20
7.5045
  0
VERTEX
  8
LAYER10
 62
     1
  6
CONTINUOUS
 10
5.0311
 20
7.5032
  0
VERTEX
  8
LAYER10
 62
     1
  6
CONTINUOUS
 10
5.0307
 20
7.5020
  0
VERTEX
  8
LAYER10
 62
     1
  6
CONTINUOUS
 10
5.0303
 20
7.5007
  0
VERTEX
  8
LAYER10
 62
     1
  6
CONTINUOUS
 10
5.0298
 20
7.4995
  0
VERTEX
  8
LAYER10
 62
     1
  6
CONTINUOUS
 10
5.0294
 20
7.4983
  0
VERTEX
  8
LAYER10
 62
     1
  6
CONTINUOUS
 10
5.0289
 20
7.4970
  0
VERTEX
  8
LAYER10
 62
     1
  6
CONTINUOUS
 10
5.0284
 20
7.4958
  0
VERTEX
  8
LAYER10
 62
     1
  6
CONTINUOUS
 10
5.0268
 20
7.4927
  0
VERTEX
  8
LAYER10
 62
     1
  6
CONTINUOUS
 10
5.0251
 20
7.4896
  0
VERTEX
  8
LAYER10
 62
     1
  6
CONTINUOUS
 10
5.0232
 20
7.4866
  0
VERTEX
  8
LAYER10
 62
     1
  6
CONTINUOUS
 10
5.0210
 20
7.4838
  0
VERTEX
  8
LAYER10
 62
     1
  6
CONTINUOUS
 10
5.0187
 20
7.4810
  0
VERTEX
  8
LAYER10
 62
     1
  6
CONTINUOUS
 10
5.0163
 20
7.4784
  0
VERTEX
  8
LAYER10
 62
     1
  6
CONTINUOUS
 10
5.0137
 20
7.4759
  0
VERTEX
  8
LAYER10
 62
     1
  6
CONTINUOUS
 10
5.0109
 20
7.4736
  0
VERTEX
  8
LAYER10
 62
     1
  6
CONTINUOUS
 10
5.0080
 20
7.4714
  0
VERTEX
  8
LAYER10
 62
     1
  6
CONTINUOUS
 10
5.0051
 20
7.4693
  0
VERTEX
  8
LAYER10
 62
     1
  6
CONTINUOUS
 10
5.0020
 20
7.4674
  0
VERTEX
  8
LAYER10
 62
     1
  6
CONTINUOUS
 10
4.9988
 20
7.4656
  0
VERTEX
  8
LAYER10
 62
     1
  6
CONTINUOUS
 10
4.9976
 20
7.4650
  0
VERTEX
  8
LAYER10
 62
     1
  6
CONTINUOUS
 10
4.9964
 20
7.4645
  0
VERTEX
  8
LAYER10
 62
     1
  6
CONTINUOUS
 10
4.9952
 20
7.4639
  0
VERTEX
  8
LAYER10
 62
     1
  6
CONTINUOUS
 10
4.9940
 20
7.4634
  0
VERTEX
  8
LAYER10
 62
     1
  6
CONTINUOUS
 10
4.9928
 20
7.4629
  0
VERTEX
  8
LAYER10
 62
     1
  6
CONTINUOUS
 10
4.9915
 20
7.4624
  0
VERTEX
  8
LAYER10
 62
     1
  6
CONTINUOUS
 10
4.9903
 20
7.4620
  0
VERTEX
  8
LAYER10
 62
     1
  6
CONTINUOUS
 10
4.9890
 20
7.4616
  0
VERTEX
  8
LAYER10
 62
     1
  6
CONTINUOUS
 10
4.9878
 20
7.4613
  0
VERTEX
  8
LAYER10
 62
     1
  6
CONTINUOUS
 10
4.9865
 20
7.4610
  0
VERTEX
  8
LAYER10
 62
     1
  6
CONTINUOUS
 10
4.9852
 20
7.4607
  0
VERTEX
  8
LAYER10
 62
     1
  6
CONTINUOUS
 10
4.9840
 20
7.4605
  0
VERTEX
  8
LAYER10
 62
     1
  6
CONTINUOUS
 10
4.9807
 20
7.4602
  0
VERTEX
  8
LAYER10
 62
     1
  6
CONTINUOUS
 10
4.9774
 20
7.4601
  0
VERTEX
  8
LAYER10
 62
     1
  6
CONTINUOUS
 10
4.9741
 20
7.4602
  0
VERTEX
  8
LAYER10
 62
     1
  6
CONTINUOUS
 10
4.9708
 20
7.4606
  0
VERTEX
  8
LAYER10
 62
     1
  6
CONTINUOUS
 10
4.9675
 20
7.4610
  0
VERTEX
  8
LAYER10
 62
     1
  6
CONTINUOUS
 10
4.9642
 20
7.4616
  0
VERTEX
  8
LAYER10
 62
     1
  6
CONTINUOUS
 10
4.9608
 20
7.4623
  0
VERTEX
  8
LAYER10
 62
     1
  6
CONTINUOUS
 10
4.9575
 20
7.4629
  0
VERTEX
  8
LAYER10
 62
     1
  6
CONTINUOUS
 10
4.9541
 20
7.4636
  0
VERTEX
  8
LAYER10
 62
     1
  6
CONTINUOUS
 10
4.9508
 20
7.4642
  0
VERTEX
  8
LAYER10
 62
     1
  6
CONTINUOUS
 10
4.9474
 20
7.4647
  0
VERTEX
  8
LAYER10
 62
     1
  6
CONTINUOUS
 10
4.9441
 20
7.4650
  0
VERTEX
  8
LAYER10
 62
     1
  6
CONTINUOUS
 10
4.9412
 20
7.4652
  0
VERTEX
  8
LAYER10
 62
     1
  6
CONTINUOUS
 10
4.9383
 20
7.4653
  0
VERTEX
  8
LAYER10
 62
     1
  6
CONTINUOUS
 10
4.9354
 20
7.4652
  0
VERTEX
  8
LAYER10
 62
     1
  6
CONTINUOUS
 10
4.9325
 20
7.4651
  0
VERTEX
  8
LAYER10
 62
     1
  6
CONTINUOUS
 10
4.9296
 20
7.4650
  0
VERTEX
  8
LAYER10
 62
     1
  6
CONTINUOUS
 10
4.9267
 20
7.4648
  0
VERTEX
  8
LAYER10
 62
     1
  6
CONTINUOUS
 10
4.9239
 20
7.4647
  0
VERTEX
  8
LAYER10
 62
     1
  6
CONTINUOUS
 10
4.9209
 20
7.4645
  0
VERTEX
  8
LAYER10
 62
     1
  6
CONTINUOUS
 10
4.9180
 20
7.4644
  0
VERTEX
  8
LAYER10
 62
     1
  6
CONTINUOUS
 10
4.9151
 20
7.4644
  0
VERTEX
  8
LAYER10
 62
     1
  6
CONTINUOUS
 10
4.9122
 20
7.4645
  0
VERTEX
  8
LAYER10
 62
     1
  6
CONTINUOUS
 10
4.9092
 20
7.4647
  0
VERTEX
  8
LAYER10
 62
     1
  6
CONTINUOUS
 10
4.9060
 20
7.4650
  0
VERTEX
  8
LAYER10
 62
     1
  6
CONTINUOUS
 10
4.9028
 20
7.4655
  0
VERTEX
  8
LAYER10
 62
     1
  6
CONTINUOUS
 10
4.8996
 20
7.4662
  0
VERTEX
  8
LAYER10
 62
     1
  6
CONTINUOUS
 10
4.8964
 20
7.4670
  0
VERTEX
  8
LAYER10
 62
     1
  6
CONTINUOUS
 10
4.8933
 20
7.4680
  0
VERTEX
  8
LAYER10
 62
     1
  6
CONTINUOUS
 10
4.8902
 20
7.4691
  0
VERTEX
  8
LAYER10
 62
     1
  6
CONTINUOUS
 10
4.8873
 20
7.4704
  0
VERTEX
  8
LAYER10
 62
     1
  6
CONTINUOUS
 10
4.8844
 20
7.4719
  0
VERTEX
  8
LAYER10
 62
     1
  6
CONTINUOUS
 10
4.8816
 20
7.4735
  0
VERTEX
  8
LAYER10
 62
     1
  6
CONTINUOUS
 10
4.8790
 20
7.4752
  0
VERTEX
  8
LAYER10
 62
     1
  6
CONTINUOUS
 10
4.8765
 20
7.4771
  0
VERTEX
  8
LAYER10
 62
     1
  6
CONTINUOUS
 10
4.8742
 20
7.4792
  0
VERTEX
  8
LAYER10
 62
     1
  6
CONTINUOUS
 10
4.8722
 20
7.4813
  0
VERTEX
  8
LAYER10
 62
     1
  6
CONTINUOUS
 10
4.8703
 20
7.4835
  0
VERTEX
  8
LAYER10
 62
     1
  6
CONTINUOUS
 10
4.8686
 20
7.4858
  0
VERTEX
  8
LAYER10
 62
     1
  6
CONTINUOUS
 10
4.8669
 20
7.4882
  0
VERTEX
  8
LAYER10
 62
     1
  6
CONTINUOUS
 10
4.8653
 20
7.4907
  0
VERTEX
  8
LAYER10
 62
     1
  6
CONTINUOUS
 10
4.8637
 20
7.4933
  0
VERTEX
  8
LAYER10
 62
     1
  6
CONTINUOUS
 10
4.8622
 20
7.4959
  0
VERTEX
  8
LAYER10
 62
     1
  6
CONTINUOUS
 10
4.8607
 20
7.4985
  0
VERTEX
  8
LAYER10
 62
     1
  6
CONTINUOUS
 10
4.8591
 20
7.5011
  0
VERTEX
  8
LAYER10
 62
     1
  6
CONTINUOUS
 10
4.8575
 20
7.5037
  0
VERTEX
  8
LAYER10
 62
     1
  6
CONTINUOUS
 10
4.8558
 20
7.5063
  0
VERTEX
  8
LAYER10
 62
     1
  6
CONTINUOUS
 10
4.8540
 20
7.5089
  0
VERTEX
  8
LAYER10
 62
     1
  6
CONTINUOUS
 10
4.8524
 20
7.5109
  0
VERTEX
  8
LAYER10
 62
     1
  6
CONTINUOUS
 10
4.8509
 20
7.5129
  0
VERTEX
  8
LAYER10
 62
     1
  6
CONTINUOUS
 10
4.8492
 20
7.5149
  0
VERTEX
  8
LAYER10
 62
     1
  6
CONTINUOUS
 10
4.8476
 20
7.5169
  0
VERTEX
  8
LAYER10
 62
     1
  6
CONTINUOUS
 10
4.8461
 20
7.5189
  0
VERTEX
  8
LAYER10
 62
     1
  6
CONTINUOUS
 10
4.8446
 20
7.5209
  0
VERTEX
  8
LAYER10
 62
     1
  6
CONTINUOUS
 10
4.8432
 20
7.5229
  0
VERTEX
  8
LAYER10
 62
     1
  6
CONTINUOUS
 10
4.8419
 20
7.5249
  0
VERTEX
  8
LAYER10
 62
     1
  6
CONTINUOUS
 10
4.8408
 20
7.5270
  0
VERTEX
  8
LAYER10
 62
     1
  6
CONTINUOUS
 10
4.8399
 20
7.5291
  0
VERTEX
  8
LAYER10
 62
     1
  6
CONTINUOUS
 10
4.8392
 20
7.5313
  0
VERTEX
  8
LAYER10
 62
     1
  6
CONTINUOUS
 10
4.8388
 20
7.5336
  0
VERTEX
  8
LAYER10
 62
     1
  6
CONTINUOUS
 10
4.8387
 20
7.5346
  0
VERTEX
  8
LAYER10
 62
     1
  6
CONTINUOUS
 10
4.8386
 20
7.5356
  0
VERTEX
  8
LAYER10
 62
     1
  6
CONTINUOUS
 10
4.8386
 20
7.5367
  0
VERTEX
  8
LAYER10
 62
     1
  6
CONTINUOUS
 10
4.8386
 20
7.5378
  0
VERTEX
  8
LAYER10
 62
     1
  6
CONTINUOUS
 10
4.8387
 20
7.5388
  0
VERTEX
  8
LAYER10
 62
     1
  6
CONTINUOUS
 10
4.8388
 20
7.5399
  0
VERTEX
  8
LAYER10
 62
     1
  6
CONTINUOUS
 10
4.8389
 20
7.5410
  0
VERTEX
  8
LAYER10
 62
     1
  6
CONTINUOUS
 10
4.8391
 20
7.5421
  0
VERTEX
  8
LAYER10
 62
     1
  6
CONTINUOUS
 10
4.8393
 20
7.5432
  0
VERTEX
  8
LAYER10
 62
     1
  6
CONTINUOUS
 10
4.8395
 20
7.5443
  0
VERTEX
  8
LAYER10
 62
     1
  6
CONTINUOUS
 10
4.8397
 20
7.5454
  0
VERTEX
  8
LAYER10
 62
     1
  6
CONTINUOUS
 10
4.8399
 20
7.5465
  0
SEQEND
  8
LAYER10
  0
POLYLINE
  8
LAYER10
 62
     1
 66
     1
  6
CONTINUOUS
  0
VERTEX
  8
LAYER10
 62
     1
  6
CONTINUOUS
 10
5.0375
 20
7.5479
  0
VERTEX
  8
LAYER10
 62
     1
  6
CONTINUOUS
 10
5.0375
 20
7.5478
  0
VERTEX
  8
LAYER10
 62
     1
  6
CONTINUOUS
 10
5.0375
 20
7.5477
  0
VERTEX
  8
LAYER10
 62
     1
  6
CONTINUOUS
 10
5.0375
 20
7.5475
  0
VERTEX
  8
LAYER10
 62
     1
  6
CONTINUOUS
 10
5.0375
 20
7.5474
  0
VERTEX
  8
LAYER10
 62
     1
  6
CONTINUOUS
 10
5.0375
 20
7.5473
  0
VERTEX
  8
LAYER10
 62
     1
  6
CONTINUOUS
 10
5.0376
 20
7.5472
  0
VERTEX
  8
LAYER10
 62
     1
  6
CONTINUOUS
 10
5.0376
 20
7.5471
  0
VERTEX
  8
LAYER10
 62
     1
  6
CONTINUOUS
 10
5.0376
 20
7.5469
  0
VERTEX
  8
LAYER10
 62
     1
  6
CONTINUOUS
 10
5.0376
 20
7.5468
  0
VERTEX
  8
LAYER10
 62
     1
  6
CONTINUOUS
 10
5.0376
 20
7.5467
  0
VERTEX
  8
LAYER10
 62
     1
  6
CONTINUOUS
 10
5.0376
 20
7.5466
  0
VERTEX
  8
LAYER10
 62
     1
  6
CONTINUOUS
 10
5.0376
 20
7.5465
  0
VERTEX
  8
LAYER10
 62
     1
  6
CONTINUOUS
 10
5.0377
 20
7.5463
  0
VERTEX
  8
LAYER10
 62
     1
  6
CONTINUOUS
 10
5.0377
 20
7.5461
  0
VERTEX
  8
LAYER10
 62
     1
  6
CONTINUOUS
 10
5.0377
 20
7.5460
  0
VERTEX
  8
LAYER10
 62
     1
  6
CONTINUOUS
 10
5.0377
 20
7.5459
  0
VERTEX
  8
LAYER10
 62
     1
  6
CONTINUOUS
 10
5.0377
 20
7.5459
  0
VERTEX
  8
LAYER10
 62
     1
  6
CONTINUOUS
 10
5.0377
 20
7.5459
  0
VERTEX
  8
LAYER10
 62
     1
  6
CONTINUOUS
 10
5.0377
 20
7.5460
  0
VERTEX
  8
LAYER10
 62
     1
  6
CONTINUOUS
 10
5.0377
 20
7.5460
  0
VERTEX
  8
LAYER10
 62
     1
  6
CONTINUOUS
 10
5.0377
 20
7.5461
  0
VERTEX
  8
LAYER10
 62
     1
  6
CONTINUOUS
 10
5.0377
 20
7.5463
  0
VERTEX
  8
LAYER10
 62
     1
  6
CONTINUOUS
 10
5.0377
 20
7.5464
  0
VERTEX
  8
LAYER10
 62
     1
  6
CONTINUOUS
 10
5.0376
 20
7.5465
  0
SEQEND
  8
LAYER10
  0
POLYLINE
  8
LAYER10
 62
     1
 66
     1
  6
CONTINUOUS
  0
VERTEX
  8
LAYER10
 62
     1
  6
CONTINUOUS
 10
4.8399
 20
7.5465
  0
VERTEX
  8
LAYER10
 62
     1
  6
CONTINUOUS
 10
4.8399
 20
7.5467
  0
VERTEX
  8
LAYER10
 62
     1
  6
CONTINUOUS
 10
4.8399
 20
7.5468
  0
VERTEX
  8
LAYER10
 62
     1
  6
CONTINUOUS
 10
4.8400
 20
7.5469
  0
VERTEX
  8
LAYER10
 62
     1
  6
CONTINUOUS
 10
4.8400
 20
7.5471
  0
VERTEX
  8
LAYER10
 62
     1
  6
CONTINUOUS
 10
4.8400
 20
7.5472
  0
VERTEX
  8
LAYER10
 62
     1
  6
CONTINUOUS
 10
4.8401
 20
7.5473
  0
VERTEX
  8
LAYER10
 62
     1
  6
CONTINUOUS
 10
4.8401
 20
7.5474
  0
VERTEX
  8
LAYER10
 62
     1
  6
CONTINUOUS
 10
4.8401
 20
7.5475
  0
VERTEX
  8
LAYER10
 62
     1
  6
CONTINUOUS
 10
4.8401
 20
7.5476
  0
VERTEX
  8
LAYER10
 62
     1
  6
CONTINUOUS
 10
4.8402
 20
7.5477
  0
VERTEX
  8
LAYER10
 62
     1
  6
CONTINUOUS
 10
4.8402
 20
7.5478
  0
VERTEX
  8
LAYER10
 62
     1
  6
CONTINUOUS
 10
4.8402
 20
7.5479
  0
VERTEX
  8
LAYER10
 62
     1
  6
CONTINUOUS
 10
4.8403
 20
7.5482
  0
VERTEX
  8
LAYER10
 62
     1
  6
CONTINUOUS
 10
4.8403
 20
7.5484
  0
VERTEX
  8
LAYER10
 62
     1
  6
CONTINUOUS
 10
4.8403
 20
7.5485
  0
VERTEX
  8
LAYER10
 62
     1
  6
CONTINUOUS
 10
4.8404
 20
7.5485
  0
VERTEX
  8
LAYER10
 62
     1
  6
CONTINUOUS
 10
4.8404
 20
7.5486
  0
VERTEX
  8
LAYER10
 62
     1
  6
CONTINUOUS
 10
4.8404
 20
7.5486
  0
VERTEX
  8
LAYER10
 62
     1
  6
CONTINUOUS
 10
4.8404
 20
7.5485
  0
VERTEX
  8
LAYER10
 62
     1
  6
CONTINUOUS
 10
4.8403
 20
7.5484
  0
VERTEX
  8
LAYER10
 62
     1
  6
CONTINUOUS
 10
4.8403
 20
7.5483
  0
VERTEX
  8
LAYER10
 62
     1
  6
CONTINUOUS
 10
4.8403
 20
7.5482
  0
VERTEX
  8
LAYER10
 62
     1
  6
CONTINUOUS
 10
4.8402
 20
7.5481
  0
VERTEX
  8
LAYER10
 62
     1
  6
CONTINUOUS
 10
4.8402
 20
7.5479
  0
SEQEND
  8
LAYER10
  0
POLYLINE
  8
LAYER12
 62
     5
 66
     1
  6
CONTINUOUS
  0
VERTEX
  8
LAYER12
 62
     5
  6
CONTINUOUS
 10
4.0608
 20
6.5235
  0
VERTEX
  8
LAYER12
 62
     5
  6
CONTINUOUS
 10
5.0426
 20
6.5235
  0
SEQEND
  8
LAYER12
  0
POLYLINE
  8
LAYER12
 62
     5
 66
     1
  6
CONTINUOUS
  0
VERTEX
  8
LAYER12
 62
     5
  6
CONTINUOUS
 10
4.0608
 20
7.5465
  0
VERTEX
  8
LAYER12
 62
     5
  6
CONTINUOUS
 10
4.0589
 20
7.5465
  0
SEQEND
  8
LAYER12
  0
POLYLINE
  8
LAYER12
 62
     5
 66
     1
  6
CONTINUOUS
  0
VERTEX
  8
LAYER12
 62
     5
  6
CONTINUOUS
 10
4.0589
 20
7.5465
  0
VERTEX
  8
LAYER12
 62
     5
  6
CONTINUOUS
 10
4.0589
 20
6.5235
  0
SEQEND
  8
LAYER12
  0
POLYLINE
  8
LAYER12
 62
     5
 66
     1
  6
CONTINUOUS
  0
VERTEX
  8
LAYER12
 62
     5
  6
CONTINUOUS
 10
5.0426
 20
7.5465
  0
VERTEX
  8
LAYER12
 62
     5
  6
CONTINUOUS
 10
4.0608
 20
7.5465
  0
SEQEND
  8
LAYER12
  0
POLYLINE
  8
LAYER12
 62
     5
 66
     1
  6
CONTINUOUS
  0
VERTEX
  8
LAYER12
 62
     5
  6
CONTINUOUS
 10
4.0589
 20
7.5465
  0
VERTEX
  8
LAYER12
 62
     5
  6
CONTINUOUS
 10
4.0574
 20
7.5465
  0
SEQEND
  8
LAYER12
  0
POLYLINE
  8
LAYER12
 62
     5
 66
     1
  6
CONTINUOUS
  0
VERTEX
  8
LAYER12
 62
     5
  6
CONTINUOUS
 10
4.0589
 20
7.5479
  0
VERTEX
  8
LAYER12
 62
     5
  6
CONTINUOUS
 10
4.0589
 20
7.5465
  0
SEQEND
  8
LAYER12
  0
POLYLINE
  8
LAYER12
 62
     5
 66
     1
  6
CONTINUOUS
  0
VERTEX
  8
LAYER12
 62
     5
  6
CONTINUOUS
 10
5.0426
 20
6.5235
  0
VERTEX
  8
LAYER12
 62
     5
  6
CONTINUOUS
 10
5.0426
 20
7.5479
  0
SEQEND
  8
LAYER12
  0
POLYLINE
  8
LAYER12
 62
     5
 66
     1
  6
CONTINUOUS
  0
VERTEX
  8
LAYER12
 62
     5
  6
CONTINUOUS
 10
5.0426
 20
7.5479
  0
VERTEX
  8
LAYER12
 62
     5
  6
CONTINUOUS
 10
5.0426
 20
7.5465
  0
SEQEND
  8
LAYER12
  0
POLYLINE
  8
LAYER12
 62
     5
 66
     1
  6
CONTINUOUS
  0
VERTEX
  8
LAYER12
 62
     5
  6
CONTINUOUS
 10
5.0426
 20
7.5465
  0
VERTEX
  8
LAYER12
 62
     5
  6
CONTINUOUS
 10
5.0426
 20
7.5479
  0
SEQEND
  8
LAYER12
  0
ENDSEC
  0
EOF
