  0
SECTION
  2
HEADER
  9
$ACADVER
  1
AC1004
  9
$EXTMIN
 10
5.0376
 20
6.5235
  9
$EXTMAX
 10
6.0657
 20
7.5465
  9
$LIMMIN
 10
5.0376
 20
6.5235
  9
$LIMMAX
 10
6.0657
 20
7.5465
  9
$INSBASE
 10
0.0
 20
0.0
  9
$VIEWCTR
 10
7.21903
 20
4.5
  9
$VIEWSIZE
 40
9.0
  9
$SNAPMODE
 70
     0
  9
$SNAPUNIT
 10
1.0
 20
1.0
  9
$SNAPBASE
 10
0.0
 20
0.0
  9
$SNAPANG
 50
0.0
  9
$SNAPSTYLE
 70
     0
  9
$SNAPISOPAIR
 70
     0
  9
$GRIDMODE
 70
     0
  9
$GRIDUNIT
 10
0.0
 20
0.0
  9
$ORTHOMODE
 70
     0
  9
$REGENMODE
 70
     1
  9
$FILLMODE
 70
     1
  9
$QTEXTMODE
 70
     0
  9
$DRAGMODE
 70
     2
  9
$LTSCALE
 40
1.0
  9
$OSMODE
 70
     0
  9
$ATTMODE
 70
     1
  9
$TEXTSIZE
 40
0.2
  9
$TRACEWID
 40
0.05
  9
$TEXTSTYLE
  7
STANDARD
  9
$CLAYER
  8
0
  9
$CELTYPE
  6
BYLAYER
  9
$CECOLOR
 62
   256
  9
$DIMSCALE
 40
1.0
  9
$DIMASZ
 40
0.18
  9
$DIMEXO
 40
0.0625
  9
$DIMDLI
 40
0.38
  9
$DIMRND
 40
0.0
  9
$DIMDLE
 40
0.0
  9
$DIMEXE
 40
0.18
  9
$DIMTP
 40
0.0
  9
$DIMTM
 40
0.0
  9
$DIMTXT
 40
0.18
  9
$DIMCEN
 40
0.09
  9
$DIMTSZ
 40
0.0
  9
$DIMTOL
 70
     0
  9
$DIMLIM
 70
     0
  9
$DIMTIH
 70
     1
  9
$DIMTOH
 70
     1
  9
$DIMSE1
 70
     0
  9
$DIMSE2
 70
     0
  9
$DIMTAD
 70
     0
  9
$DIMZIN
 70
     0
  9
$DIMBLK
  1

  9
$DIMASO
 70
     1
  9
$DIMSHO
 70
     0
  9
$DIMPOST
  1

  9
$DIMAPOST
  1

  9
$DIMALT
 70
     0
  9
$DIMALTD
 70
     2
  9
$DIMALTF
 40
25.4
  9
$DIMLFAC
 40
1.0
  9
$LUNITS
 70
     2
  9
$LUPREC
 70
     4
  9
$AXISMODE
 70
     0
  9
$AXISUNIT
 10
0.0
 20
0.0
  9
$SKETCHINC
 40
0.1
  9
$FILLETRAD
 40
0.0
  9
$AUNITS
 70
     0
  9
$AUPREC
 70
     0
  9
$MENU
  1
acad
  9
$ELEVATION
 40
0.0
  9
$THICKNESS
 40
0.0
  9
$VIEWDIR
 10
0.0
 20
0.0
 30
1.0
  9
$LIMCHECK
 70
     0
  9
$BLIPMODE
 70
     1
  9
$CHAMFERA
 40
0.0
  9
$CHAMFERB
 40
0.0
  9
$FASTZOOM
 70
     1
  9
$SKPOLY
 70
     0
  9
$TDCREATE
 40
2447222.5666886573
  9
$TDUPDATE
 40
2447222.5666886573
  9
$TDINDWG
 40
0.0000000000
  9
$TDUSRTIMER
 40
0.0000000000
  9
$USRTIMER
 70
     1
  9
$ANGBASE
 50
0.0
  9
$ANGDIR
 70
     0
  9
$PDMODE
 70
     0
  9
$PDSIZE
 40
0.0
  9
$PLINEWID
 40
0.0
  9
$COORDS
 70
     0
  9
$SPLFRAME
 70
     0
  9
$SPLINESEGS
 70
     8
  9
$ATTDIA
 70
     0
  9
$ATTREQ
 70
     1
  9
$USERI1
 70
     0
  9
$USERI2
 70
     0
  9
$USERI3
 70
     0
  9
$USERI4
 70
     0
  9
$USERI5
 70
     0
  9
$USERR1
 40
0.0
  9
$USERR2
 40
0.0
  9
$USERR3
 40
0.0
  9
$USERR4
 40
0.0
  9
$USERR5
 40
0.0
  0
ENDSEC
  0
SECTION
  2
TABLES
  0
TABLE
  2
LTYPE
 70
     13
  0
LTYPE
  2
CONTINUOUS
 70
    64
  3
Solid line
 72
    65
 73
     0
 40
0.0
  0
LTYPE
  2
DASHED
 70
    64
  3
__ __ __ __ __ __ __ __ __ __ __ __ __ __ __
 72
    65
 73
     2
 40
0.75
 49
0.5
 49
-0.25
  0
LTYPE
  2
HIDDEN
 70
    64
  3
_ _ _ _ _ _ _ _ _ _ _ _ _ _ _ _ _ _ _ _ _ _ _
 72
    65
 73
     2
 40
0.375
 49
0.25
 49
-0.125
  0
LTYPE
  2
CENTER
 70
    64
  3
____ _ ____ _ ____ _ ____ _ ____ _ ____ _ ____
 72
    65
 73
     4
 40
2.0
 49
1.25
 49
-0.25
 49
0.25
 49
-0.25
  0
LTYPE
  2
PHANTOM
 70
    64
  3
_____ _ _ _____ _ _ _____ _ _ _____ _ _ ____
 72
    65
 73
     6
 40
2.5
 49
1.25
 49
-0.25
 49
0.25
 49
-0.25
 49
0.25
 49
-0.25
  0
LTYPE
  2
DOT
 70
    64
  3
...............................................
 72
    65
 73
     2
 40
0.25
 49
0.0
 49
-0.25
  0
LTYPE
  2
DASHDOT
 70
    64
  3
__ . __ . __ . __ . __ . __ . __ . __ . __ . __
 72
    65
 73
     4
 40
1.0
 49
0.5
 49
-0.25
 49
0.0
 49
-0.25
  0
LTYPE
  2
BORDER
 70
    64
  3
__ __ . __ __ . __ __ . __ __ . __ __ . __ __
 72
    65
 73
     6
 40
1.75
 49
0.5
 49
-0.25
 49
0.5
 49
-0.25
 49
0.0
 49
-0.25
  0
LTYPE
  2
DIVIDE
 70
    64
  3
__ . . __ . . __ . . __ . . __ . . __ . . __
 72
    65
 73
     6
 40
1.25
 49
0.5
 49
-0.25
 49
0.0
 49
-0.25
 49
0.0
 49
-0.25
  0
LTYPE
  2
DCTYPE1
 70
    64
  3
__ . . __ . . __ . . __ . . __ . . __ . . __
 72
    65
 73
     8
 40
2.5
 49
0.5
 49
-0.25
 49
0.125
 49
-0.25
 49
0.25
 49
-0.25
 49
0.125
 49
-0.25
  0
LTYPE
  2
DCTYPE2
 70
    64
  3
__ . . __ . . __ . . __ . . __ . . __ . . __
 72
    65
 73
     6
 40
2.05
 49
1.0
 49
-0.3
 49
0.15
 49
-0.15
 49
0.15
 49
-0.3
  0
LTYPE
  2
DCTYPE3
 70
    64
  3
__ . . __ . . __ . . __ . . __ . . __ . . __
 72
    65
 73
     6
 40
2.5
 49
0.8
 49
-0.2
 49
0.8
 49
-0.2
 49
0.3
 49
-0.2
  0
LTYPE
  2
DCTYPE4
 70
    64
  3
__ . . __ . . __ . . __ . . __ . . __ . . __
 72
    65
 73
     10
 40
3.97
 49
1.75
 49
-0.3
 49
0.3
 49
-0.3
 49
0.06
 49
-0.3
 49
0.06
 49
-0.3
 49
0.3
 49
-0.3
  0
ENDTAB
  0
TABLE
  2
LAYER
 70
    153
  0
LAYER
  2
LAYER1
 70
 64
 62
     7
  6
CONTINUOUS
  0
LAYER
  2
LAYER10
 70
 64
 62
     1
  6
CONTINUOUS
  0
LAYER
  2
LAYER12
 70
 64
 62
     5
  6
CONTINUOUS
  0
ENDTAB
  0
ENDSEC
  0
SECTION
  2
BLOCKS
  0
ENDSEC
  0
SECTION
  2
ENTITIES
  0
CIRCLE
  8
LAYER1
 62
     7
  6
CONTINUOUS
 10
5.6605
 20
7.5103
 40
0.0075
  0
CIRCLE
  8
LAYER1
 62
     7
  6
CONTINUOUS
 10
5.6385
 20
7.4727
 40
0.0151
  0
CIRCLE
  8
LAYER1
 62
     7
  6
CONTINUOUS
 10
5.5939
 20
7.4523
 40
0.0151
  0
CIRCLE
  8
LAYER1
 62
     7
  6
CONTINUOUS
 10
5.5633
 20
7.5142
 40
0.0127
  0
CIRCLE
  8
LAYER1
 62
     7
  6
CONTINUOUS
 10
5.1123
 20
7.3300
 40
0.0190
  0
CIRCLE
  8
LAYER1
 62
     7
  6
CONTINUOUS
 10
5.1416
 20
7.1561
 40
0.0124
  0
CIRCLE
  8
LAYER1
 62
     7
  6
CONTINUOUS
 10
5.0555
 20
6.8390
 40
0.0100
  0
CIRCLE
  8
LAYER1
 62
     7
  6
CONTINUOUS
 10
5.0854
 20
6.8344
 40
0.0050
  0
CIRCLE
  8
LAYER1
 62
     7
  6
CONTINUOUS
 10
5.1056
 20
6.8122
 40
0.0174
  0
CIRCLE
  8
LAYER1
 62
     7
  6
CONTINUOUS
 10
5.1813
 20
6.7209
 40
0.0100
  0
CIRCLE
  8
LAYER1
 62
     7
  6
CONTINUOUS
 10
5.1615
 20
6.7082
 40
0.0075
  0
CIRCLE
  8
LAYER1
 62
     7
  6
CONTINUOUS
 10
5.1294
 20
6.6880
 40
0.0127
  0
CIRCLE
  8
LAYER1
 62
     7
  6
CONTINUOUS
 10
5.2317
 20
6.6667
 40
0.0149
  0
CIRCLE
  8
LAYER1
 62
     7
  6
CONTINUOUS
 10
5.2936
 20
6.6972
 40
0.0103
  0
CIRCLE
  8
LAYER1
 62
     7
  6
CONTINUOUS
 10
5.3269
 20
6.6080
 40
0.0149
  0
CIRCLE
  8
LAYER1
 62
     7
  6
CONTINUOUS
 10
5.3930
 20
6.7108
 40
0.0127
  0
CIRCLE
  8
LAYER1
 62
     7
  6
CONTINUOUS
 10
5.4502
 20
6.7139
 40
0.0070
  0
CIRCLE
  8
LAYER1
 62
     7
  6
CONTINUOUS
 10
5.6076
 20
6.8824
 40
0.0377
  0
CIRCLE
  8
LAYER1
 62
     7
  6
CONTINUOUS
 10
5.9031
 20
6.7239
 40
0.0205
  0
CIRCLE
  8
LAYER1
 62
     7
  6
CONTINUOUS
 10
6.0006
 20
6.9141
 40
0.0199
  0
CIRCLE
  8
LAYER1
 62
     7
  6
CONTINUOUS
 10
5.6726
 20
7.0823
 40
0.0275
  0
CIRCLE
  8
LAYER1
 62
     7
  6
CONTINUOUS
 10
5.6020
 20
7.1711
 40
0.0176
  0
CIRCLE
  8
LAYER1
 62
     7
  6
CONTINUOUS
 10
5.6909
 20
7.2293
 40
0.0103
  0
CIRCLE
  8
LAYER1
 62
     7
  6
CONTINUOUS
 10
5.8183
 20
7.4174
 40
0.0275
  0
CIRCLE
  8
LAYER1
 62
     7
  6
CONTINUOUS
 10
5.8782
 20
7.4032
 40
0.0127
  0
CIRCLE
  8
LAYER1
 62
     7
  6
CONTINUOUS
 10
5.8701
 20
7.2388
 40
0.0079
  0
CIRCLE
  8
LAYER1
 62
     7
  6
CONTINUOUS
 10
5.7957
 20
7.2056
 40
0.0056
  0
CIRCLE
  8
LAYER1
 62
     7
  6
CONTINUOUS
 10
5.8413
 20
7.1364
 40
0.0090
  0
CIRCLE
  8
LAYER1
 62
     7
  6
CONTINUOUS
 10
5.8957
 20
7.1669
 40
0.0103
  0
CIRCLE
  8
LAYER1
 62
     7
  6
CONTINUOUS
 10
5.9707
 20
7.1453
 40
0.0127
  0
POLYLINE
  8
LAYER1
 62
     7
 66
     1
  6
CONTINUOUS
  0
VERTEX
  8
LAYER1
 62
     7
  6
CONTINUOUS
 10
5.2006
 20
7.2239
  0
VERTEX
  8
LAYER1
 62
     7
  6
CONTINUOUS
 10
5.1995
 20
7.2254
  0
VERTEX
  8
LAYER1
 62
     7
  6
CONTINUOUS
 10
5.1983
 20
7.2269
  0
VERTEX
  8
LAYER1
 62
     7
  6
CONTINUOUS
 10
5.1971
 20
7.2284
  0
VERTEX
  8
LAYER1
 62
     7
  6
CONTINUOUS
 10
5.1959
 20
7.2298
  0
VERTEX
  8
LAYER1
 62
     7
  6
CONTINUOUS
 10
5.1947
 20
7.2312
  0
VERTEX
  8
LAYER1
 62
     7
  6
CONTINUOUS
 10
5.1934
 20
7.2325
  0
VERTEX
  8
LAYER1
 62
     7
  6
CONTINUOUS
 10
5.1922
 20
7.2338
  0
VERTEX
  8
LAYER1
 62
     7
  6
CONTINUOUS
 10
5.1909
 20
7.2349
  0
VERTEX
  8
LAYER1
 62
     7
  6
CONTINUOUS
 10
5.1896
 20
7.2360
  0
VERTEX
  8
LAYER1
 62
     7
  6
CONTINUOUS
 10
5.1883
 20
7.2370
  0
VERTEX
  8
LAYER1
 62
     7
  6
CONTINUOUS
 10
5.1869
 20
7.2379
  0
VERTEX
  8
LAYER1
 62
     7
  6
CONTINUOUS
 10
5.1855
 20
7.2387
  0
VERTEX
  8
LAYER1
 62
     7
  6
CONTINUOUS
 10
5.1820
 20
7.2400
  0
VERTEX
  8
LAYER1
 62
     7
  6
CONTINUOUS
 10
5.1784
 20
7.2406
  0
VERTEX
  8
LAYER1
 62
     7
  6
CONTINUOUS
 10
5.1745
 20
7.2407
  0
VERTEX
  8
LAYER1
 62
     7
  6
CONTINUOUS
 10
5.1705
 20
7.2402
  0
VERTEX
  8
LAYER1
 62
     7
  6
CONTINUOUS
 10
5.1663
 20
7.2393
  0
VERTEX
  8
LAYER1
 62
     7
  6
CONTINUOUS
 10
5.1621
 20
7.2381
  0
VERTEX
  8
LAYER1
 62
     7
  6
CONTINUOUS
 10
5.1578
 20
7.2366
  0
VERTEX
  8
LAYER1
 62
     7
  6
CONTINUOUS
 10
5.1534
 20
7.2349
  0
VERTEX
  8
LAYER1
 62
     7
  6
CONTINUOUS
 10
5.1490
 20
7.2332
  0
VERTEX
  8
LAYER1
 62
     7
  6
CONTINUOUS
 10
5.1446
 20
7.2314
  0
VERTEX
  8
LAYER1
 62
     7
  6
CONTINUOUS
 10
5.1402
 20
7.2297
  0
VERTEX
  8
LAYER1
 62
     7
  6
CONTINUOUS
 10
5.1359
 20
7.2282
  0
VERTEX
  8
LAYER1
 62
     7
  6
CONTINUOUS
 10
5.1329
 20
7.2273
  0
VERTEX
  8
LAYER1
 62
     7
  6
CONTINUOUS
 10
5.1299
 20
7.2265
  0
VERTEX
  8
LAYER1
 62
     7
  6
CONTINUOUS
 10
5.1270
 20
7.2258
  0
VERTEX
  8
LAYER1
 62
     7
  6
CONTINUOUS
 10
5.1241
 20
7.2252
  0
VERTEX
  8
LAYER1
 62
     7
  6
CONTINUOUS
 10
5.1212
 20
7.2247
  0
VERTEX
  8
LAYER1
 62
     7
  6
CONTINUOUS
 10
5.1183
 20
7.2242
  0
VERTEX
  8
LAYER1
 62
     7
  6
CONTINUOUS
 10
5.1154
 20
7.2239
  0
VERTEX
  8
LAYER1
 62
     7
  6
CONTINUOUS
 10
5.1126
 20
7.2236
  0
VERTEX
  8
LAYER1
 62
     7
  6
CONTINUOUS
 10
5.1097
 20
7.2233
  0
VERTEX
  8
LAYER1
 62
     7
  6
CONTINUOUS
 10
5.1068
 20
7.2231
  0
VERTEX
  8
LAYER1
 62
     7
  6
CONTINUOUS
 10
5.1040
 20
7.2230
  0
VERTEX
  8
LAYER1
 62
     7
  6
CONTINUOUS
 10
5.1011
 20
7.2228
  0
VERTEX
  8
LAYER1
 62
     7
  6
CONTINUOUS
 10
5.0986
 20
7.2228
  0
VERTEX
  8
LAYER1
 62
     7
  6
CONTINUOUS
 10
5.0962
 20
7.2227
  0
VERTEX
  8
LAYER1
 62
     7
  6
CONTINUOUS
 10
5.0937
 20
7.2226
  0
VERTEX
  8
LAYER1
 62
     7
  6
CONTINUOUS
 10
5.0912
 20
7.2226
  0
VERTEX
  8
LAYER1
 62
     7
  6
CONTINUOUS
 10
5.0887
 20
7.2225
  0
VERTEX
  8
LAYER1
 62
     7
  6
CONTINUOUS
 10
5.0862
 20
7.2225
  0
VERTEX
  8
LAYER1
 62
     7
  6
CONTINUOUS
 10
5.0837
 20
7.2225
  0
VERTEX
  8
LAYER1
 62
     7
  6
CONTINUOUS
 10
5.0812
 20
7.2225
  0
VERTEX
  8
LAYER1
 62
     7
  6
CONTINUOUS
 10
5.0787
 20
7.2225
  0
VERTEX
  8
LAYER1
 62
     7
  6
CONTINUOUS
 10
5.0762
 20
7.2225
  0
VERTEX
  8
LAYER1
 62
     7
  6
CONTINUOUS
 10
5.0737
 20
7.2225
  0
VERTEX
  8
LAYER1
 62
     7
  6
CONTINUOUS
 10
5.0712
 20
7.2225
  0
VERTEX
  8
LAYER1
 62
     7
  6
CONTINUOUS
 10
5.0688
 20
7.2225
  0
VERTEX
  8
LAYER1
 62
     7
  6
CONTINUOUS
 10
5.0664
 20
7.2225
  0
VERTEX
  8
LAYER1
 62
     7
  6
CONTINUOUS
 10
5.0640
 20
7.2225
  0
VERTEX
  8
LAYER1
 62
     7
  6
CONTINUOUS
 10
5.0617
 20
7.2225
  0
VERTEX
  8
LAYER1
 62
     7
  6
CONTINUOUS
 10
5.0593
 20
7.2225
  0
VERTEX
  8
LAYER1
 62
     7
  6
CONTINUOUS
 10
5.0569
 20
7.2225
  0
VERTEX
  8
LAYER1
 62
     7
  6
CONTINUOUS
 10
5.0545
 20
7.2225
  0
VERTEX
  8
LAYER1
 62
     7
  6
CONTINUOUS
 10
5.0521
 20
7.2225
  0
VERTEX
  8
LAYER1
 62
     7
  6
CONTINUOUS
 10
5.0497
 20
7.2225
  0
VERTEX
  8
LAYER1
 62
     7
  6
CONTINUOUS
 10
5.0474
 20
7.2225
  0
VERTEX
  8
LAYER1
 62
     7
  6
CONTINUOUS
 10
5.0450
 20
7.2225
  0
VERTEX
  8
LAYER1
 62
     7
  6
CONTINUOUS
 10
5.0426
 20
7.2225
  0
SEQEND
  8
LAYER1
  0
ARC
  8
LAYER1
 62
     7
  6
CONTINUOUS
 10
5.0350
 20
7.3466
 40
0.0099
 50
-40.0195
 51
40.0195
  0
ARC
  8
LAYER1
 62
     7
  6
CONTINUOUS
 10
5.0435
 20
6.8015
 40
0.0127
 50
-100.6733
 51
-93.9918
  0
ARC
  8
LAYER1
 62
     7
  6
CONTINUOUS
 10
5.0435
 20
6.8015
 40
0.0127
 50
-93.9919
 51
93.9921
  0
POLYLINE
  8
LAYER1
 62
     7
 66
     1
  6
CONTINUOUS
  0
VERTEX
  8
LAYER1
 62
     7
  6
CONTINUOUS
 10
5.8202
 20
6.5686
  0
VERTEX
  8
LAYER1
 62
     7
  6
CONTINUOUS
 10
5.8221
 20
6.5720
  0
VERTEX
  8
LAYER1
 62
     7
  6
CONTINUOUS
 10
5.8241
 20
6.5754
  0
VERTEX
  8
LAYER1
 62
     7
  6
CONTINUOUS
 10
5.8261
 20
6.5788
  0
VERTEX
  8
LAYER1
 62
     7
  6
CONTINUOUS
 10
5.8280
 20
6.5822
  0
VERTEX
  8
LAYER1
 62
     7
  6
CONTINUOUS
 10
5.8300
 20
6.5856
  0
VERTEX
  8
LAYER1
 62
     7
  6
CONTINUOUS
 10
5.8320
 20
6.5889
  0
VERTEX
  8
LAYER1
 62
     7
  6
CONTINUOUS
 10
5.8341
 20
6.5923
  0
VERTEX
  8
LAYER1
 62
     7
  6
CONTINUOUS
 10
5.8361
 20
6.5956
  0
VERTEX
  8
LAYER1
 62
     7
  6
CONTINUOUS
 10
5.8382
 20
6.5989
  0
VERTEX
  8
LAYER1
 62
     7
  6
CONTINUOUS
 10
5.8403
 20
6.6022
  0
VERTEX
  8
LAYER1
 62
     7
  6
CONTINUOUS
 10
5.8425
 20
6.6055
  0
VERTEX
  8
LAYER1
 62
     7
  6
CONTINUOUS
 10
5.8446
 20
6.6087
  0
VERTEX
  8
LAYER1
 62
     7
  6
CONTINUOUS
 10
5.8461
 20
6.6109
  0
VERTEX
  8
LAYER1
 62
     7
  6
CONTINUOUS
 10
5.8477
 20
6.6131
  0
VERTEX
  8
LAYER1
 62
     7
  6
CONTINUOUS
 10
5.8492
 20
6.6153
  0
VERTEX
  8
LAYER1
 62
     7
  6
CONTINUOUS
 10
5.8508
 20
6.6174
  0
VERTEX
  8
LAYER1
 62
     7
  6
CONTINUOUS
 10
5.8524
 20
6.6196
  0
VERTEX
  8
LAYER1
 62
     7
  6
CONTINUOUS
 10
5.8540
 20
6.6217
  0
VERTEX
  8
LAYER1
 62
     7
  6
CONTINUOUS
 10
5.8556
 20
6.6238
  0
VERTEX
  8
LAYER1
 62
     7
  6
CONTINUOUS
 10
5.8573
 20
6.6258
  0
VERTEX
  8
LAYER1
 62
     7
  6
CONTINUOUS
 10
5.8590
 20
6.6279
  0
VERTEX
  8
LAYER1
 62
     7
  6
CONTINUOUS
 10
5.8607
 20
6.6299
  0
VERTEX
  8
LAYER1
 62
     7
  6
CONTINUOUS
 10
5.8625
 20
6.6319
  0
VERTEX
  8
LAYER1
 62
     7
  6
CONTINUOUS
 10
5.8643
 20
6.6338
  0
VERTEX
  8
LAYER1
 62
     7
  6
CONTINUOUS
 10
5.8669
 20
6.6366
  0
VERTEX
  8
LAYER1
 62
     7
  6
CONTINUOUS
 10
5.8696
 20
6.6393
  0
VERTEX
  8
LAYER1
 62
     7
  6
CONTINUOUS
 10
5.8723
 20
6.6420
  0
VERTEX
  8
LAYER1
 62
     7
  6
CONTINUOUS
 10
5.8751
 20
6.6446
  0
VERTEX
  8
LAYER1
 62
     7
  6
CONTINUOUS
 10
5.8780
 20
6.6472
  0
VERTEX
  8
LAYER1
 62
     7
  6
CONTINUOUS
 10
5.8809
 20
6.6497
  0
VERTEX
  8
LAYER1
 62
     7
  6
CONTINUOUS
 10
5.8838
 20
6.6522
  0
VERTEX
  8
LAYER1
 62
     7
  6
CONTINUOUS
 10
5.8867
 20
6.6546
  0
VERTEX
  8
LAYER1
 62
     7
  6
CONTINUOUS
 10
5.8897
 20
6.6570
  0
VERTEX
  8
LAYER1
 62
     7
  6
CONTINUOUS
 10
5.8927
 20
6.6594
  0
VERTEX
  8
LAYER1
 62
     7
  6
CONTINUOUS
 10
5.8958
 20
6.6618
  0
VERTEX
  8
LAYER1
 62
     7
  6
CONTINUOUS
 10
5.8988
 20
6.6641
  0
VERTEX
  8
LAYER1
 62
     7
  6
CONTINUOUS
 10
5.9026
 20
6.6670
  0
VERTEX
  8
LAYER1
 62
     7
  6
CONTINUOUS
 10
5.9064
 20
6.6698
  0
VERTEX
  8
LAYER1
 62
     7
  6
CONTINUOUS
 10
5.9101
 20
6.6727
  0
VERTEX
  8
LAYER1
 62
     7
  6
CONTINUOUS
 10
5.9139
 20
6.6755
  0
VERTEX
  8
LAYER1
 62
     7
  6
CONTINUOUS
 10
5.9177
 20
6.6784
  0
VERTEX
  8
LAYER1
 62
     7
  6
CONTINUOUS
 10
5.9214
 20
6.6813
  0
VERTEX
  8
LAYER1
 62
     7
  6
CONTINUOUS
 10
5.9252
 20
6.6842
  0
VERTEX
  8
LAYER1
 62
     7
  6
CONTINUOUS
 10
5.9289
 20
6.6871
  0
VERTEX
  8
LAYER1
 62
     7
  6
CONTINUOUS
 10
5.9325
 20
6.6901
  0
VERTEX
  8
LAYER1
 62
     7
  6
CONTINUOUS
 10
5.9361
 20
6.6931
  0
VERTEX
  8
LAYER1
 62
     7
  6
CONTINUOUS
 10
5.9397
 20
6.6962
  0
VERTEX
  8
LAYER1
 62
     7
  6
CONTINUOUS
 10
5.9432
 20
6.6994
  0
VERTEX
  8
LAYER1
 62
     7
  6
CONTINUOUS
 10
5.9441
 20
6.7002
  0
VERTEX
  8
LAYER1
 62
     7
  6
CONTINUOUS
 10
5.9449
 20
6.7010
  0
VERTEX
  8
LAYER1
 62
     7
  6
CONTINUOUS
 10
5.9458
 20
6.7019
  0
VERTEX
  8
LAYER1
 62
     7
  6
CONTINUOUS
 10
5.9466
 20
6.7027
  0
VERTEX
  8
LAYER1
 62
     7
  6
CONTINUOUS
 10
5.9475
 20
6.7035
  0
VERTEX
  8
LAYER1
 62
     7
  6
CONTINUOUS
 10
5.9483
 20
6.7043
  0
VERTEX
  8
LAYER1
 62
     7
  6
CONTINUOUS
 10
5.9491
 20
6.7052
  0
VERTEX
  8
LAYER1
 62
     7
  6
CONTINUOUS
 10
5.9499
 20
6.7060
  0
VERTEX
  8
LAYER1
 62
     7
  6
CONTINUOUS
 10
5.9507
 20
6.7069
  0
VERTEX
  8
LAYER1
 62
     7
  6
CONTINUOUS
 10
5.9515
 20
6.7077
  0
VERTEX
  8
LAYER1
 62
     7
  6
CONTINUOUS
 10
5.9523
 20
6.7086
  0
VERTEX
  8
LAYER1
 62
     7
  6
CONTINUOUS
 10
5.9530
 20
6.7095
  0
VERTEX
  8
LAYER1
 62
     7
  6
CONTINUOUS
 10
5.9555
 20
6.7125
  0
VERTEX
  8
LAYER1
 62
     7
  6
CONTINUOUS
 10
5.9578
 20
6.7156
  0
VERTEX
  8
LAYER1
 62
     7
  6
CONTINUOUS
 10
5.9600
 20
6.7188
  0
VERTEX
  8
LAYER1
 62
     7
  6
CONTINUOUS
 10
5.9622
 20
6.7221
  0
VERTEX
  8
LAYER1
 62
     7
  6
CONTINUOUS
 10
5.9642
 20
6.7255
  0
VERTEX
  8
LAYER1
 62
     7
  6
CONTINUOUS
 10
5.9661
 20
6.7289
  0
VERTEX
  8
LAYER1
 62
     7
  6
CONTINUOUS
 10
5.9681
 20
6.7323
  0
VERTEX
  8
LAYER1
 62
     7
  6
CONTINUOUS
 10
5.9699
 20
6.7357
  0
VERTEX
  8
LAYER1
 62
     7
  6
CONTINUOUS
 10
5.9718
 20
6.7392
  0
VERTEX
  8
LAYER1
 62
     7
  6
CONTINUOUS
 10
5.9737
 20
6.7427
  0
VERTEX
  8
LAYER1
 62
     7
  6
CONTINUOUS
 10
5.9756
 20
6.7462
  0
VERTEX
  8
LAYER1
 62
     7
  6
CONTINUOUS
 10
5.9775
 20
6.7496
  0
VERTEX
  8
LAYER1
 62
     7
  6
CONTINUOUS
 10
5.9783
 20
6.7509
  0
VERTEX
  8
LAYER1
 62
     7
  6
CONTINUOUS
 10
5.9790
 20
6.7522
  0
VERTEX
  8
LAYER1
 62
     7
  6
CONTINUOUS
 10
5.9798
 20
6.7535
  0
VERTEX
  8
LAYER1
 62
     7
  6
CONTINUOUS
 10
5.9806
 20
6.7548
  0
VERTEX
  8
LAYER1
 62
     7
  6
CONTINUOUS
 10
5.9813
 20
6.7561
  0
VERTEX
  8
LAYER1
 62
     7
  6
CONTINUOUS
 10
5.9822
 20
6.7573
  0
VERTEX
  8
LAYER1
 62
     7
  6
CONTINUOUS
 10
5.9830
 20
6.7586
  0
VERTEX
  8
LAYER1
 62
     7
  6
CONTINUOUS
 10
5.9838
 20
6.7598
  0
VERTEX
  8
LAYER1
 62
     7
  6
CONTINUOUS
 10
5.9846
 20
6.7610
  0
VERTEX
  8
LAYER1
 62
     7
  6
CONTINUOUS
 10
5.9855
 20
6.7623
  0
VERTEX
  8
LAYER1
 62
     7
  6
CONTINUOUS
 10
5.9864
 20
6.7635
  0
VERTEX
  8
LAYER1
 62
     7
  6
CONTINUOUS
 10
5.9873
 20
6.7646
  0
VERTEX
  8
LAYER1
 62
     7
  6
CONTINUOUS
 10
5.9899
 20
6.7678
  0
VERTEX
  8
LAYER1
 62
     7
  6
CONTINUOUS
 10
5.9925
 20
6.7709
  0
VERTEX
  8
LAYER1
 62
     7
  6
CONTINUOUS
 10
5.9953
 20
6.7738
  0
VERTEX
  8
LAYER1
 62
     7
  6
CONTINUOUS
 10
5.9982
 20
6.7767
  0
VERTEX
  8
LAYER1
 62
     7
  6
CONTINUOUS
 10
6.0012
 20
6.7795
  0
VERTEX
  8
LAYER1
 62
     7
  6
CONTINUOUS
 10
6.0041
 20
6.7824
  0
VERTEX
  8
LAYER1
 62
     7
  6
CONTINUOUS
 10
6.0071
 20
6.7852
  0
VERTEX
  8
LAYER1
 62
     7
  6
CONTINUOUS
 10
6.0102
 20
6.7880
  0
VERTEX
  8
LAYER1
 62
     7
  6
CONTINUOUS
 10
6.0131
 20
6.7909
  0
VERTEX
  8
LAYER1
 62
     7
  6
CONTINUOUS
 10
6.0161
 20
6.7938
  0
VERTEX
  8
LAYER1
 62
     7
  6
CONTINUOUS
 10
6.0190
 20
6.7968
  0
VERTEX
  8
LAYER1
 62
     7
  6
CONTINUOUS
 10
6.0218
 20
6.7999
  0
VERTEX
  8
LAYER1
 62
     7
  6
CONTINUOUS
 10
6.0227
 20
6.8010
  0
VERTEX
  8
LAYER1
 62
     7
  6
CONTINUOUS
 10
6.0237
 20
6.8022
  0
VERTEX
  8
LAYER1
 62
     7
  6
CONTINUOUS
 10
6.0247
 20
6.8034
  0
VERTEX
  8
LAYER1
 62
     7
  6
CONTINUOUS
 10
6.0256
 20
6.8046
  0
VERTEX
  8
LAYER1
 62
     7
  6
CONTINUOUS
 10
6.0265
 20
6.8058
  0
VERTEX
  8
LAYER1
 62
     7
  6
CONTINUOUS
 10
6.0274
 20
6.8071
  0
VERTEX
  8
LAYER1
 62
     7
  6
CONTINUOUS
 10
6.0282
 20
6.8083
  0
VERTEX
  8
LAYER1
 62
     7
  6
CONTINUOUS
 10
6.0290
 20
6.8096
  0
VERTEX
  8
LAYER1
 62
     7
  6
CONTINUOUS
 10
6.0297
 20
6.8109
  0
VERTEX
  8
LAYER1
 62
     7
  6
CONTINUOUS
 10
6.0304
 20
6.8122
  0
VERTEX
  8
LAYER1
 62
     7
  6
CONTINUOUS
 10
6.0310
 20
6.8136
  0
VERTEX
  8
LAYER1
 62
     7
  6
CONTINUOUS
 10
6.0315
 20
6.8149
  0
VERTEX
  8
LAYER1
 62
     7
  6
CONTINUOUS
 10
6.0326
 20
6.8180
  0
VERTEX
  8
LAYER1
 62
     7
  6
CONTINUOUS
 10
6.0333
 20
6.8212
  0
VERTEX
  8
LAYER1
 62
     7
  6
CONTINUOUS
 10
6.0339
 20
6.8245
  0
VERTEX
  8
LAYER1
 62
     7
  6
CONTINUOUS
 10
6.0342
 20
6.8278
  0
VERTEX
  8
LAYER1
 62
     7
  6
CONTINUOUS
 10
6.0344
 20
6.8312
  0
VERTEX
  8
LAYER1
 62
     7
  6
CONTINUOUS
 10
6.0345
 20
6.8346
  0
VERTEX
  8
LAYER1
 62
     7
  6
CONTINUOUS
 10
6.0346
 20
6.8380
  0
VERTEX
  8
LAYER1
 62
     7
  6
CONTINUOUS
 10
6.0347
 20
6.8415
  0
VERTEX
  8
LAYER1
 62
     7
  6
CONTINUOUS
 10
6.0349
 20
6.8448
  0
VERTEX
  8
LAYER1
 62
     7
  6
CONTINUOUS
 10
6.0351
 20
6.8482
  0
VERTEX
  8
LAYER1
 62
     7
  6
CONTINUOUS
 10
6.0355
 20
6.8515
  0
VERTEX
  8
LAYER1
 62
     7
  6
CONTINUOUS
 10
6.0361
 20
6.8548
  0
VERTEX
  8
LAYER1
 62
     7
  6
CONTINUOUS
 10
6.0372
 20
6.8588
  0
VERTEX
  8
LAYER1
 62
     7
  6
CONTINUOUS
 10
6.0386
 20
6.8628
  0
VERTEX
  8
LAYER1
 62
     7
  6
CONTINUOUS
 10
6.0403
 20
6.8666
  0
VERTEX
  8
LAYER1
 62
     7
  6
CONTINUOUS
 10
6.0423
 20
6.8704
  0
VERTEX
  8
LAYER1
 62
     7
  6
CONTINUOUS
 10
6.0444
 20
6.8741
  0
VERTEX
  8
LAYER1
 62
     7
  6
CONTINUOUS
 10
6.0467
 20
6.8777
  0
VERTEX
  8
LAYER1
 62
     7
  6
CONTINUOUS
 10
6.0491
 20
6.8814
  0
VERTEX
  8
LAYER1
 62
     7
  6
CONTINUOUS
 10
6.0515
 20
6.8850
  0
VERTEX
  8
LAYER1
 62
     7
  6
CONTINUOUS
 10
6.0539
 20
6.8887
  0
VERTEX
  8
LAYER1
 62
     7
  6
CONTINUOUS
 10
6.0562
 20
6.8923
  0
VERTEX
  8
LAYER1
 62
     7
  6
CONTINUOUS
 10
6.0584
 20
6.8961
  0
VERTEX
  8
LAYER1
 62
     7
  6
CONTINUOUS
 10
6.0605
 20
6.8999
  0
VERTEX
  8
LAYER1
 62
     7
  6
CONTINUOUS
 10
6.0610
 20
6.9008
  0
VERTEX
  8
LAYER1
 62
     7
  6
CONTINUOUS
 10
6.0614
 20
6.9018
  0
VERTEX
  8
LAYER1
 62
     7
  6
CONTINUOUS
 10
6.0619
 20
6.9028
  0
VERTEX
  8
LAYER1
 62
     7
  6
CONTINUOUS
 10
6.0623
 20
6.9038
  0
VERTEX
  8
LAYER1
 62
     7
  6
CONTINUOUS
 10
6.0628
 20
6.9048
  0
VERTEX
  8
LAYER1
 62
     7
  6
CONTINUOUS
 10
6.0632
 20
6.9058
  0
VERTEX
  8
LAYER1
 62
     7
  6
CONTINUOUS
 10
6.0636
 20
6.9068
  0
VERTEX
  8
LAYER1
 62
     7
  6
CONTINUOUS
 10
6.0640
 20
6.9078
  0
VERTEX
  8
LAYER1
 62
     7
  6
CONTINUOUS
 10
6.0644
 20
6.9088
  0
VERTEX
  8
LAYER1
 62
     7
  6
CONTINUOUS
 10
6.0648
 20
6.9098
  0
VERTEX
  8
LAYER1
 62
     7
  6
CONTINUOUS
 10
6.0652
 20
6.9108
  0
VERTEX
  8
LAYER1
 62
     7
  6
CONTINUOUS
 10
6.0657
 20
6.9118
  0
SEQEND
  8
LAYER1
  0
POLYLINE
  8
LAYER1
 62
     7
 66
     1
  6
CONTINUOUS
  0
VERTEX
  8
LAYER1
 62
     7
  6
CONTINUOUS
 10
6.0657
 20
6.7982
  0
VERTEX
  8
LAYER1
 62
     7
  6
CONTINUOUS
 10
6.0649
 20
6.7971
  0
VERTEX
  8
LAYER1
 62
     7
  6
CONTINUOUS
 10
6.0641
 20
6.7961
  0
VERTEX
  8
LAYER1
 62
     7
  6
CONTINUOUS
 10
6.0633
 20
6.7950
  0
VERTEX
  8
LAYER1
 62
     7
  6
CONTINUOUS
 10
6.0626
 20
6.7940
  0
VERTEX
  8
LAYER1
 62
     7
  6
CONTINUOUS
 10
6.0618
 20
6.7929
  0
VERTEX
  8
LAYER1
 62
     7
  6
CONTINUOUS
 10
6.0611
 20
6.7919
  0
VERTEX
  8
LAYER1
 62
     7
  6
CONTINUOUS
 10
6.0603
 20
6.7908
  0
VERTEX
  8
LAYER1
 62
     7
  6
CONTINUOUS
 10
6.0596
 20
6.7897
  0
VERTEX
  8
LAYER1
 62
     7
  6
CONTINUOUS
 10
6.0589
 20
6.7886
  0
VERTEX
  8
LAYER1
 62
     7
  6
CONTINUOUS
 10
6.0581
 20
6.7875
  0
VERTEX
  8
LAYER1
 62
     7
  6
CONTINUOUS
 10
6.0574
 20
6.7864
  0
VERTEX
  8
LAYER1
 62
     7
  6
CONTINUOUS
 10
6.0568
 20
6.7853
  0
VERTEX
  8
LAYER1
 62
     7
  6
CONTINUOUS
 10
6.0554
 20
6.7829
  0
VERTEX
  8
LAYER1
 62
     7
  6
CONTINUOUS
 10
6.0540
 20
6.7804
  0
VERTEX
  8
LAYER1
 62
     7
  6
CONTINUOUS
 10
6.0527
 20
6.7779
  0
VERTEX
  8
LAYER1
 62
     7
  6
CONTINUOUS
 10
6.0515
 20
6.7754
  0
VERTEX
  8
LAYER1
 62
     7
  6
CONTINUOUS
 10
6.0503
 20
6.7728
  0
VERTEX
  8
LAYER1
 62
     7
  6
CONTINUOUS
 10
6.0491
 20
6.7702
  0
VERTEX
  8
LAYER1
 62
     7
  6
CONTINUOUS
 10
6.0479
 20
6.7677
  0
VERTEX
  8
LAYER1
 62
     7
  6
CONTINUOUS
 10
6.0468
 20
6.7651
  0
VERTEX
  8
LAYER1
 62
     7
  6
CONTINUOUS
 10
6.0457
 20
6.7626
  0
VERTEX
  8
LAYER1
 62
     7
  6
CONTINUOUS
 10
6.0445
 20
6.7601
  0
VERTEX
  8
LAYER1
 62
     7
  6
CONTINUOUS
 10
6.0433
 20
6.7577
  0
VERTEX
  8
LAYER1
 62
     7
  6
CONTINUOUS
 10
6.0422
 20
6.7553
  0
VERTEX
  8
LAYER1
 62
     7
  6
CONTINUOUS
 10
6.0409
 20
6.7529
  0
VERTEX
  8
LAYER1
 62
     7
  6
CONTINUOUS
 10
6.0397
 20
6.7507
  0
VERTEX
  8
LAYER1
 62
     7
  6
CONTINUOUS
 10
6.0384
 20
6.7484
  0
VERTEX
  8
LAYER1
 62
     7
  6
CONTINUOUS
 10
6.0372
 20
6.7461
  0
VERTEX
  8
LAYER1
 62
     7
  6
CONTINUOUS
 10
6.0359
 20
6.7438
  0
VERTEX
  8
LAYER1
 62
     7
  6
CONTINUOUS
 10
6.0346
 20
6.7415
  0
VERTEX
  8
LAYER1
 62
     7
  6
CONTINUOUS
 10
6.0334
 20
6.7391
  0
VERTEX
  8
LAYER1
 62
     7
  6
CONTINUOUS
 10
6.0321
 20
6.7366
  0
VERTEX
  8
LAYER1
 62
     7
  6
CONTINUOUS
 10
6.0309
 20
6.7340
  0
VERTEX
  8
LAYER1
 62
     7
  6
CONTINUOUS
 10
6.0297
 20
6.7312
  0
VERTEX
  8
LAYER1
 62
     7
  6
CONTINUOUS
 10
6.0286
 20
6.7283
  0
VERTEX
  8
LAYER1
 62
     7
  6
CONTINUOUS
 10
6.0276
 20
6.7253
  0
VERTEX
  8
LAYER1
 62
     7
  6
CONTINUOUS
 10
6.0259
 20
6.7197
  0
VERTEX
  8
LAYER1
 62
     7
  6
CONTINUOUS
 10
6.0244
 20
6.7139
  0
VERTEX
  8
LAYER1
 62
     7
  6
CONTINUOUS
 10
6.0231
 20
6.7077
  0
VERTEX
  8
LAYER1
 62
     7
  6
CONTINUOUS
 10
6.0219
 20
6.7016
  0
VERTEX
  8
LAYER1
 62
     7
  6
CONTINUOUS
 10
6.0209
 20
6.6956
  0
VERTEX
  8
LAYER1
 62
     7
  6
CONTINUOUS
 10
6.0201
 20
6.6898
  0
VERTEX
  8
LAYER1
 62
     7
  6
CONTINUOUS
 10
6.0194
 20
6.6845
  0
VERTEX
  8
LAYER1
 62
     7
  6
CONTINUOUS
 10
6.0189
 20
6.6798
  0
VERTEX
  8
LAYER1
 62
     7
  6
CONTINUOUS
 10
6.0185
 20
6.6759
  0
VERTEX
  8
LAYER1
 62
     7
  6
CONTINUOUS
 10
6.0182
 20
6.6729
  0
VERTEX
  8
LAYER1
 62
     7
  6
CONTINUOUS
 10
6.0182
 20
6.6710
  0
VERTEX
  8
LAYER1
 62
     7
  6
CONTINUOUS
 10
6.0182
 20
6.6704
  0
VERTEX
  8
LAYER1
 62
     7
  6
CONTINUOUS
 10
6.0182
 20
6.6704
  0
VERTEX
  8
LAYER1
 62
     7
  6
CONTINUOUS
 10
6.0182
 20
6.6704
  0
VERTEX
  8
LAYER1
 62
     7
  6
CONTINUOUS
 10
6.0182
 20
6.6704
  0
VERTEX
  8
LAYER1
 62
     7
  6
CONTINUOUS
 10
6.0182
 20
6.6705
  0
VERTEX
  8
LAYER1
 62
     7
  6
CONTINUOUS
 10
6.0182
 20
6.6705
  0
VERTEX
  8
LAYER1
 62
     7
  6
CONTINUOUS
 10
6.0183
 20
6.6705
  0
VERTEX
  8
LAYER1
 62
     7
  6
CONTINUOUS
 10
6.0183
 20
6.6705
  0
VERTEX
  8
LAYER1
 62
     7
  6
CONTINUOUS
 10
6.0183
 20
6.6705
  0
VERTEX
  8
LAYER1
 62
     7
  6
CONTINUOUS
 10
6.0182
 20
6.6705
  0
VERTEX
  8
LAYER1
 62
     7
  6
CONTINUOUS
 10
6.0182
 20
6.6705
  0
VERTEX
  8
LAYER1
 62
     7
  6
CONTINUOUS
 10
6.0182
 20
6.6704
  0
VERTEX
  8
LAYER1
 62
     7
  6
CONTINUOUS
 10
6.0182
 20
6.6704
  0
VERTEX
  8
LAYER1
 62
     7
  6
CONTINUOUS
 10
6.0181
 20
6.6700
  0
VERTEX
  8
LAYER1
 62
     7
  6
CONTINUOUS
 10
6.0179
 20
6.6694
  0
VERTEX
  8
LAYER1
 62
     7
  6
CONTINUOUS
 10
6.0176
 20
6.6685
  0
VERTEX
  8
LAYER1
 62
     7
  6
CONTINUOUS
 10
6.0173
 20
6.6675
  0
VERTEX
  8
LAYER1
 62
     7
  6
CONTINUOUS
 10
6.0169
 20
6.6663
  0
VERTEX
  8
LAYER1
 62
     7
  6
CONTINUOUS
 10
6.0165
 20
6.6650
  0
VERTEX
  8
LAYER1
 62
     7
  6
CONTINUOUS
 10
6.0160
 20
6.6635
  0
VERTEX
  8
LAYER1
 62
     7
  6
CONTINUOUS
 10
6.0155
 20
6.6620
  0
VERTEX
  8
LAYER1
 62
     7
  6
CONTINUOUS
 10
6.0150
 20
6.6603
  0
VERTEX
  8
LAYER1
 62
     7
  6
CONTINUOUS
 10
6.0145
 20
6.6587
  0
VERTEX
  8
LAYER1
 62
     7
  6
CONTINUOUS
 10
6.0139
 20
6.6570
  0
VERTEX
  8
LAYER1
 62
     7
  6
CONTINUOUS
 10
6.0134
 20
6.6554
  0
VERTEX
  8
LAYER1
 62
     7
  6
CONTINUOUS
 10
6.0117
 20
6.6505
  0
VERTEX
  8
LAYER1
 62
     7
  6
CONTINUOUS
 10
6.0100
 20
6.6460
  0
VERTEX
  8
LAYER1
 62
     7
  6
CONTINUOUS
 10
6.0083
 20
6.6419
  0
VERTEX
  8
LAYER1
 62
     7
  6
CONTINUOUS
 10
6.0066
 20
6.6380
  0
VERTEX
  8
LAYER1
 62
     7
  6
CONTINUOUS
 10
6.0050
 20
6.6343
  0
VERTEX
  8
LAYER1
 62
     7
  6
CONTINUOUS
 10
6.0034
 20
6.6307
  0
VERTEX
  8
LAYER1
 62
     7
  6
CONTINUOUS
 10
6.0018
 20
6.6273
  0
VERTEX
  8
LAYER1
 62
     7
  6
CONTINUOUS
 10
6.0002
 20
6.6240
  0
VERTEX
  8
LAYER1
 62
     7
  6
CONTINUOUS
 10
5.9986
 20
6.6207
  0
VERTEX
  8
LAYER1
 62
     7
  6
CONTINUOUS
 10
5.9971
 20
6.6173
  0
VERTEX
  8
LAYER1
 62
     7
  6
CONTINUOUS
 10
5.9955
 20
6.6139
  0
VERTEX
  8
LAYER1
 62
     7
  6
CONTINUOUS
 10
5.9940
 20
6.6104
  0
VERTEX
  8
LAYER1
 62
     7
  6
CONTINUOUS
 10
5.9933
 20
6.6087
  0
VERTEX
  8
LAYER1
 62
     7
  6
CONTINUOUS
 10
5.9926
 20
6.6070
  0
VERTEX
  8
LAYER1
 62
     7
  6
CONTINUOUS
 10
5.9919
 20
6.6053
  0
VERTEX
  8
LAYER1
 62
     7
  6
CONTINUOUS
 10
5.9912
 20
6.6036
  0
VERTEX
  8
LAYER1
 62
     7
  6
CONTINUOUS
 10
5.9904
 20
6.6019
  0
VERTEX
  8
LAYER1
 62
     7
  6
CONTINUOUS
 10
5.9897
 20
6.6002
  0
VERTEX
  8
LAYER1
 62
     7
  6
CONTINUOUS
 10
5.9889
 20
6.5985
  0
VERTEX
  8
LAYER1
 62
     7
  6
CONTINUOUS
 10
5.9880
 20
6.5968
  0
VERTEX
  8
LAYER1
 62
     7
  6
CONTINUOUS
 10
5.9872
 20
6.5951
  0
VERTEX
  8
LAYER1
 62
     7
  6
CONTINUOUS
 10
5.9862
 20
6.5935
  0
VERTEX
  8
LAYER1
 62
     7
  6
CONTINUOUS
 10
5.9853
 20
6.5919
  0
VERTEX
  8
LAYER1
 62
     7
  6
CONTINUOUS
 10
5.9842
 20
6.5904
  0
VERTEX
  8
LAYER1
 62
     7
  6
CONTINUOUS
 10
5.9826
 20
6.5883
  0
VERTEX
  8
LAYER1
 62
     7
  6
CONTINUOUS
 10
5.9809
 20
6.5863
  0
VERTEX
  8
LAYER1
 62
     7
  6
CONTINUOUS
 10
5.9791
 20
6.5844
  0
VERTEX
  8
LAYER1
 62
     7
  6
CONTINUOUS
 10
5.9772
 20
6.5826
  0
VERTEX
  8
LAYER1
 62
     7
  6
CONTINUOUS
 10
5.9752
 20
6.5809
  0
VERTEX
  8
LAYER1
 62
     7
  6
CONTINUOUS
 10
5.9731
 20
6.5792
  0
VERTEX
  8
LAYER1
 62
     7
  6
CONTINUOUS
 10
5.9709
 20
6.5776
  0
VERTEX
  8
LAYER1
 62
     7
  6
CONTINUOUS
 10
5.9687
 20
6.5761
  0
VERTEX
  8
LAYER1
 62
     7
  6
CONTINUOUS
 10
5.9665
 20
6.5746
  0
VERTEX
  8
LAYER1
 62
     7
  6
CONTINUOUS
 10
5.9642
 20
6.5731
  0
VERTEX
  8
LAYER1
 62
     7
  6
CONTINUOUS
 10
5.9619
 20
6.5716
  0
VERTEX
  8
LAYER1
 62
     7
  6
CONTINUOUS
 10
5.9596
 20
6.5702
  0
SEQEND
  8
LAYER1
  0
POLYLINE
  8
LAYER1
 62
     7
 66
     1
  6
CONTINUOUS
  0
VERTEX
  8
LAYER1
 62
     7
  6
CONTINUOUS
 10
5.2513
 20
7.5465
  0
VERTEX
  8
LAYER1
 62
     7
  6
CONTINUOUS
 10
5.2513
 20
7.5465
  0
VERTEX
  8
LAYER1
 62
     7
  6
CONTINUOUS
 10
5.2513
 20
7.5465
  0
VERTEX
  8
LAYER1
 62
     7
  6
CONTINUOUS
 10
5.2513
 20
7.5465
  0
VERTEX
  8
LAYER1
 62
     7
  6
CONTINUOUS
 10
5.2513
 20
7.5465
  0
VERTEX
  8
LAYER1
 62
     7
  6
CONTINUOUS
 10
5.2513
 20
7.5465
  0
VERTEX
  8
LAYER1
 62
     7
  6
CONTINUOUS
 10
5.2513
 20
7.5465
  0
VERTEX
  8
LAYER1
 62
     7
  6
CONTINUOUS
 10
5.2513
 20
7.5465
  0
VERTEX
  8
LAYER1
 62
     7
  6
CONTINUOUS
 10
5.2513
 20
7.5465
  0
VERTEX
  8
LAYER1
 62
     7
  6
CONTINUOUS
 10
5.2513
 20
7.5465
  0
VERTEX
  8
LAYER1
 62
     7
  6
CONTINUOUS
 10
5.2513
 20
7.5465
  0
VERTEX
  8
LAYER1
 62
     7
  6
CONTINUOUS
 10
5.2513
 20
7.5465
  0
VERTEX
  8
LAYER1
 62
     7
  6
CONTINUOUS
 10
5.2513
 20
7.5465
  0
VERTEX
  8
LAYER1
 62
     7
  6
CONTINUOUS
 10
5.2516
 20
7.5465
  0
VERTEX
  8
LAYER1
 62
     7
  6
CONTINUOUS
 10
5.2518
 20
7.5465
  0
VERTEX
  8
LAYER1
 62
     7
  6
CONTINUOUS
 10
5.2520
 20
7.5465
  0
VERTEX
  8
LAYER1
 62
     7
  6
CONTINUOUS
 10
5.2521
 20
7.5465
  0
VERTEX
  8
LAYER1
 62
     7
  6
CONTINUOUS
 10
5.2521
 20
7.5465
  0
VERTEX
  8
LAYER1
 62
     7
  6
CONTINUOUS
 10
5.2521
 20
7.5465
  0
VERTEX
  8
LAYER1
 62
     7
  6
CONTINUOUS
 10
5.2520
 20
7.5465
  0
VERTEX
  8
LAYER1
 62
     7
  6
CONTINUOUS
 10
5.2519
 20
7.5465
  0
VERTEX
  8
LAYER1
 62
     7
  6
CONTINUOUS
 10
5.2518
 20
7.5465
  0
VERTEX
  8
LAYER1
 62
     7
  6
CONTINUOUS
 10
5.2516
 20
7.5465
  0
VERTEX
  8
LAYER1
 62
     7
  6
CONTINUOUS
 10
5.2514
 20
7.5465
  0
VERTEX
  8
LAYER1
 62
     7
  6
CONTINUOUS
 10
5.2513
 20
7.5465
  0
SEQEND
  8
LAYER1
  0
POLYLINE
  8
LAYER1
 62
     7
 66
     1
  6
CONTINUOUS
  0
VERTEX
  8
LAYER1
 62
     7
  6
CONTINUOUS
 10
5.2513
 20
7.5465
  0
VERTEX
  8
LAYER1
 62
     7
  6
CONTINUOUS
 10
5.2509
 20
7.5463
  0
VERTEX
  8
LAYER1
 62
     7
  6
CONTINUOUS
 10
5.2505
 20
7.5460
  0
VERTEX
  8
LAYER1
 62
     7
  6
CONTINUOUS
 10
5.2502
 20
7.5457
  0
VERTEX
  8
LAYER1
 62
     7
  6
CONTINUOUS
 10
5.2498
 20
7.5454
  0
VERTEX
  8
LAYER1
 62
     7
  6
CONTINUOUS
 10
5.2494
 20
7.5451
  0
VERTEX
  8
LAYER1
 62
     7
  6
CONTINUOUS
 10
5.2490
 20
7.5448
  0
VERTEX
  8
LAYER1
 62
     7
  6
CONTINUOUS
 10
5.2487
 20
7.5446
  0
VERTEX
  8
LAYER1
 62
     7
  6
CONTINUOUS
 10
5.2483
 20
7.5443
  0
VERTEX
  8
LAYER1
 62
     7
  6
CONTINUOUS
 10
5.2480
 20
7.5440
  0
VERTEX
  8
LAYER1
 62
     7
  6
CONTINUOUS
 10
5.2476
 20
7.5437
  0
VERTEX
  8
LAYER1
 62
     7
  6
CONTINUOUS
 10
5.2472
 20
7.5434
  0
VERTEX
  8
LAYER1
 62
     7
  6
CONTINUOUS
 10
5.2469
 20
7.5431
  0
VERTEX
  8
LAYER1
 62
     7
  6
CONTINUOUS
 10
5.2452
 20
7.5414
  0
VERTEX
  8
LAYER1
 62
     7
  6
CONTINUOUS
 10
5.2435
 20
7.5397
  0
VERTEX
  8
LAYER1
 62
     7
  6
CONTINUOUS
 10
5.2419
 20
7.5379
  0
VERTEX
  8
LAYER1
 62
     7
  6
CONTINUOUS
 10
5.2403
 20
7.5360
  0
VERTEX
  8
LAYER1
 62
     7
  6
CONTINUOUS
 10
5.2388
 20
7.5341
  0
VERTEX
  8
LAYER1
 62
     7
  6
CONTINUOUS
 10
5.2373
 20
7.5323
  0
VERTEX
  8
LAYER1
 62
     7
  6
CONTINUOUS
 10
5.2357
 20
7.5305
  0
VERTEX
  8
LAYER1
 62
     7
  6
CONTINUOUS
 10
5.2341
 20
7.5287
  0
VERTEX
  8
LAYER1
 62
     7
  6
CONTINUOUS
 10
5.2325
 20
7.5270
  0
VERTEX
  8
LAYER1
 62
     7
  6
CONTINUOUS
 10
5.2308
 20
7.5255
  0
VERTEX
  8
LAYER1
 62
     7
  6
CONTINUOUS
 10
5.2291
 20
7.5241
  0
VERTEX
  8
LAYER1
 62
     7
  6
CONTINUOUS
 10
5.2272
 20
7.5229
  0
VERTEX
  8
LAYER1
 62
     7
  6
CONTINUOUS
 10
5.2248
 20
7.5217
  0
VERTEX
  8
LAYER1
 62
     7
  6
CONTINUOUS
 10
5.2222
 20
7.5208
  0
VERTEX
  8
LAYER1
 62
     7
  6
CONTINUOUS
 10
5.2195
 20
7.5202
  0
VERTEX
  8
LAYER1
 62
     7
  6
CONTINUOUS
 10
5.2166
 20
7.5198
  0
VERTEX
  8
LAYER1
 62
     7
  6
CONTINUOUS
 10
5.2137
 20
7.5197
  0
VERTEX
  8
LAYER1
 62
     7
  6
CONTINUOUS
 10
5.2107
 20
7.5197
  0
VERTEX
  8
LAYER1
 62
     7
  6
CONTINUOUS
 10
5.2077
 20
7.5199
  0
VERTEX
  8
LAYER1
 62
     7
  6
CONTINUOUS
 10
5.2046
 20
7.5202
  0
VERTEX
  8
LAYER1
 62
     7
  6
CONTINUOUS
 10
5.2015
 20
7.5207
  0
VERTEX
  8
LAYER1
 62
     7
  6
CONTINUOUS
 10
5.1984
 20
7.5213
  0
VERTEX
  8
LAYER1
 62
     7
  6
CONTINUOUS
 10
5.1954
 20
7.5219
  0
VERTEX
  8
LAYER1
 62
     7
  6
CONTINUOUS
 10
5.1924
 20
7.5225
  0
VERTEX
  8
LAYER1
 62
     7
  6
CONTINUOUS
 10
5.1894
 20
7.5232
  0
VERTEX
  8
LAYER1
 62
     7
  6
CONTINUOUS
 10
5.1865
 20
7.5239
  0
VERTEX
  8
LAYER1
 62
     7
  6
CONTINUOUS
 10
5.1836
 20
7.5246
  0
VERTEX
  8
LAYER1
 62
     7
  6
CONTINUOUS
 10
5.1807
 20
7.5252
  0
VERTEX
  8
LAYER1
 62
     7
  6
CONTINUOUS
 10
5.1779
 20
7.5258
  0
VERTEX
  8
LAYER1
 62
     7
  6
CONTINUOUS
 10
5.1751
 20
7.5263
  0
VERTEX
  8
LAYER1
 62
     7
  6
CONTINUOUS
 10
5.1722
 20
7.5267
  0
VERTEX
  8
LAYER1
 62
     7
  6
CONTINUOUS
 10
5.1694
 20
7.5270
  0
VERTEX
  8
LAYER1
 62
     7
  6
CONTINUOUS
 10
5.1665
 20
7.5273
  0
VERTEX
  8
LAYER1
 62
     7
  6
CONTINUOUS
 10
5.1635
 20
7.5274
  0
VERTEX
  8
LAYER1
 62
     7
  6
CONTINUOUS
 10
5.1605
 20
7.5273
  0
VERTEX
  8
LAYER1
 62
     7
  6
CONTINUOUS
 10
5.1575
 20
7.5271
  0
VERTEX
  8
LAYER1
 62
     7
  6
CONTINUOUS
 10
5.1566
 20
7.5270
  0
VERTEX
  8
LAYER1
 62
     7
  6
CONTINUOUS
 10
5.1557
 20
7.5270
  0
VERTEX
  8
LAYER1
 62
     7
  6
CONTINUOUS
 10
5.1548
 20
7.5269
  0
VERTEX
  8
LAYER1
 62
     7
  6
CONTINUOUS
 10
5.1539
 20
7.5268
  0
VERTEX
  8
LAYER1
 62
     7
  6
CONTINUOUS
 10
5.1531
 20
7.5267
  0
VERTEX
  8
LAYER1
 62
     7
  6
CONTINUOUS
 10
5.1522
 20
7.5266
  0
VERTEX
  8
LAYER1
 62
     7
  6
CONTINUOUS
 10
5.1514
 20
7.5266
  0
VERTEX
  8
LAYER1
 62
     7
  6
CONTINUOUS
 10
5.1505
 20
7.5266
  0
VERTEX
  8
LAYER1
 62
     7
  6
CONTINUOUS
 10
5.1497
 20
7.5266
  0
VERTEX
  8
LAYER1
 62
     7
  6
CONTINUOUS
 10
5.1490
 20
7.5267
  0
VERTEX
  8
LAYER1
 62
     7
  6
CONTINUOUS
 10
5.1482
 20
7.5268
  0
VERTEX
  8
LAYER1
 62
     7
  6
CONTINUOUS
 10
5.1475
 20
7.5270
  0
VERTEX
  8
LAYER1
 62
     7
  6
CONTINUOUS
 10
5.1461
 20
7.5276
  0
VERTEX
  8
LAYER1
 62
     7
  6
CONTINUOUS
 10
5.1449
 20
7.5285
  0
VERTEX
  8
LAYER1
 62
     7
  6
CONTINUOUS
 10
5.1438
 20
7.5296
  0
VERTEX
  8
LAYER1
 62
     7
  6
CONTINUOUS
 10
5.1429
 20
7.5309
  0
VERTEX
  8
LAYER1
 62
     7
  6
CONTINUOUS
 10
5.1420
 20
7.5325
  0
VERTEX
  8
LAYER1
 62
     7
  6
CONTINUOUS
 10
5.1413
 20
7.5342
  0
VERTEX
  8
LAYER1
 62
     7
  6
CONTINUOUS
 10
5.1407
 20
7.5360
  0
VERTEX
  8
LAYER1
 62
     7
  6
CONTINUOUS
 10
5.1402
 20
7.5380
  0
VERTEX
  8
LAYER1
 62
     7
  6
CONTINUOUS
 10
5.1397
 20
7.5400
  0
VERTEX
  8
LAYER1
 62
     7
  6
CONTINUOUS
 10
5.1392
 20
7.5421
  0
VERTEX
  8
LAYER1
 62
     7
  6
CONTINUOUS
 10
5.1388
 20
7.5443
  0
VERTEX
  8
LAYER1
 62
     7
  6
CONTINUOUS
 10
5.1384
 20
7.5465
  0
SEQEND
  8
LAYER1
  0
POLYLINE
  8
LAYER1
 62
     7
 66
     1
  6
CONTINUOUS
  0
VERTEX
  8
LAYER1
 62
     7
  6
CONTINUOUS
 10
5.0426
 20
7.2225
  0
VERTEX
  8
LAYER1
 62
     7
  6
CONTINUOUS
 10
5.0421
 20
7.2225
  0
VERTEX
  8
LAYER1
 62
     7
  6
CONTINUOUS
 10
5.0416
 20
7.2224
  0
VERTEX
  8
LAYER1
 62
     7
  6
CONTINUOUS
 10
5.0411
 20
7.2224
  0
VERTEX
  8
LAYER1
 62
     7
  6
CONTINUOUS
 10
5.0406
 20
7.2224
  0
VERTEX
  8
LAYER1
 62
     7
  6
CONTINUOUS
 10
5.0401
 20
7.2223
  0
VERTEX
  8
LAYER1
 62
     7
  6
CONTINUOUS
 10
5.0396
 20
7.2223
  0
VERTEX
  8
LAYER1
 62
     7
  6
CONTINUOUS
 10
5.0392
 20
7.2223
  0
VERTEX
  8
LAYER1
 62
     7
  6
CONTINUOUS
 10
5.0388
 20
7.2223
  0
VERTEX
  8
LAYER1
 62
     7
  6
CONTINUOUS
 10
5.0385
 20
7.2222
  0
VERTEX
  8
LAYER1
 62
     7
  6
CONTINUOUS
 10
5.0381
 20
7.2222
  0
VERTEX
  8
LAYER1
 62
     7
  6
CONTINUOUS
 10
5.0379
 20
7.2222
  0
VERTEX
  8
LAYER1
 62
     7
  6
CONTINUOUS
 10
5.0376
 20
7.2222
  0
VERTEX
  8
LAYER1
 62
     7
  6
CONTINUOUS
 10
5.0375
 20
7.2222
  0
VERTEX
  8
LAYER1
 62
     7
  6
CONTINUOUS
 10
5.0374
 20
7.2222
  0
VERTEX
  8
LAYER1
 62
     7
  6
CONTINUOUS
 10
5.0373
 20
7.2222
  0
VERTEX
  8
LAYER1
 62
     7
  6
CONTINUOUS
 10
5.0372
 20
7.2222
  0
VERTEX
  8
LAYER1
 62
     7
  6
CONTINUOUS
 10
5.0372
 20
7.2222
  0
VERTEX
  8
LAYER1
 62
     7
  6
CONTINUOUS
 10
5.0372
 20
7.2222
  0
VERTEX
  8
LAYER1
 62
     7
  6
CONTINUOUS
 10
5.0373
 20
7.2222
  0
VERTEX
  8
LAYER1
 62
     7
  6
CONTINUOUS
 10
5.0373
 20
7.2222
  0
VERTEX
  8
LAYER1
 62
     7
  6
CONTINUOUS
 10
5.0374
 20
7.2222
  0
VERTEX
  8
LAYER1
 62
     7
  6
CONTINUOUS
 10
5.0375
 20
7.2222
  0
VERTEX
  8
LAYER1
 62
     7
  6
CONTINUOUS
 10
5.0376
 20
7.2222
  0
VERTEX
  8
LAYER1
 62
     7
  6
CONTINUOUS
 10
5.0376
 20
7.2222
  0
SEQEND
  8
LAYER1
  0
POLYLINE
  8
LAYER1
 62
     7
 66
     1
  6
CONTINUOUS
  0
VERTEX
  8
LAYER1
 62
     7
  6
CONTINUOUS
 10
5.9263
 20
6.5235
  0
VERTEX
  8
LAYER1
 62
     7
  6
CONTINUOUS
 10
5.9270
 20
6.5253
  0
VERTEX
  8
LAYER1
 62
     7
  6
CONTINUOUS
 10
5.9278
 20
6.5272
  0
VERTEX
  8
LAYER1
 62
     7
  6
CONTINUOUS
 10
5.9285
 20
6.5289
  0
VERTEX
  8
LAYER1
 62
     7
  6
CONTINUOUS
 10
5.9292
 20
6.5307
  0
VERTEX
  8
LAYER1
 62
     7
  6
CONTINUOUS
 10
5.9299
 20
6.5323
  0
VERTEX
  8
LAYER1
 62
     7
  6
CONTINUOUS
 10
5.9305
 20
6.5338
  0
VERTEX
  8
LAYER1
 62
     7
  6
CONTINUOUS
 10
5.9311
 20
6.5352
  0
VERTEX
  8
LAYER1
 62
     7
  6
CONTINUOUS
 10
5.9316
 20
6.5364
  0
VERTEX
  8
LAYER1
 62
     7
  6
CONTINUOUS
 10
5.9320
 20
6.5374
  0
VERTEX
  8
LAYER1
 62
     7
  6
CONTINUOUS
 10
5.9324
 20
6.5383
  0
VERTEX
  8
LAYER1
 62
     7
  6
CONTINUOUS
 10
5.9326
 20
6.5389
  0
VERTEX
  8
LAYER1
 62
     7
  6
CONTINUOUS
 10
5.9328
 20
6.5393
  0
VERTEX
  8
LAYER1
 62
     7
  6
CONTINUOUS
 10
5.9328
 20
6.5394
  0
VERTEX
  8
LAYER1
 62
     7
  6
CONTINUOUS
 10
5.9329
 20
6.5394
  0
VERTEX
  8
LAYER1
 62
     7
  6
CONTINUOUS
 10
5.9329
 20
6.5394
  0
VERTEX
  8
LAYER1
 62
     7
  6
CONTINUOUS
 10
5.9329
 20
6.5394
  0
VERTEX
  8
LAYER1
 62
     7
  6
CONTINUOUS
 10
5.9329
 20
6.5394
  0
VERTEX
  8
LAYER1
 62
     7
  6
CONTINUOUS
 10
5.9329
 20
6.5394
  0
VERTEX
  8
LAYER1
 62
     7
  6
CONTINUOUS
 10
5.9329
 20
6.5394
  0
VERTEX
  8
LAYER1
 62
     7
  6
CONTINUOUS
 10
5.9329
 20
6.5394
  0
VERTEX
  8
LAYER1
 62
     7
  6
CONTINUOUS
 10
5.9328
 20
6.5394
  0
VERTEX
  8
LAYER1
 62
     7
  6
CONTINUOUS
 10
5.9328
 20
6.5394
  0
VERTEX
  8
LAYER1
 62
     7
  6
CONTINUOUS
 10
5.9328
 20
6.5393
  0
VERTEX
  8
LAYER1
 62
     7
  6
CONTINUOUS
 10
5.9328
 20
6.5393
  0
VERTEX
  8
LAYER1
 62
     7
  6
CONTINUOUS
 10
5.9328
 20
6.5393
  0
VERTEX
  8
LAYER1
 62
     7
  6
CONTINUOUS
 10
5.9328
 20
6.5393
  0
VERTEX
  8
LAYER1
 62
     7
  6
CONTINUOUS
 10
5.9328
 20
6.5392
  0
VERTEX
  8
LAYER1
 62
     7
  6
CONTINUOUS
 10
5.9328
 20
6.5392
  0
VERTEX
  8
LAYER1
 62
     7
  6
CONTINUOUS
 10
5.9328
 20
6.5392
  0
VERTEX
  8
LAYER1
 62
     7
  6
CONTINUOUS
 10
5.9328
 20
6.5392
  0
VERTEX
  8
LAYER1
 62
     7
  6
CONTINUOUS
 10
5.9328
 20
6.5392
  0
VERTEX
  8
LAYER1
 62
     7
  6
CONTINUOUS
 10
5.9328
 20
6.5392
  0
VERTEX
  8
LAYER1
 62
     7
  6
CONTINUOUS
 10
5.9328
 20
6.5392
  0
VERTEX
  8
LAYER1
 62
     7
  6
CONTINUOUS
 10
5.9328
 20
6.5392
  0
VERTEX
  8
LAYER1
 62
     7
  6
CONTINUOUS
 10
5.9328
 20
6.5393
  0
VERTEX
  8
LAYER1
 62
     7
  6
CONTINUOUS
 10
5.9328
 20
6.5393
  0
VERTEX
  8
LAYER1
 62
     7
  6
CONTINUOUS
 10
5.9333
 20
6.5399
  0
VERTEX
  8
LAYER1
 62
     7
  6
CONTINUOUS
 10
5.9342
 20
6.5410
  0
VERTEX
  8
LAYER1
 62
     7
  6
CONTINUOUS
 10
5.9356
 20
6.5425
  0
VERTEX
  8
LAYER1
 62
     7
  6
CONTINUOUS
 10
5.9373
 20
6.5445
  0
VERTEX
  8
LAYER1
 62
     7
  6
CONTINUOUS
 10
5.9393
 20
6.5469
  0
VERTEX
  8
LAYER1
 62
     7
  6
CONTINUOUS
 10
5.9417
 20
6.5496
  0
VERTEX
  8
LAYER1
 62
     7
  6
CONTINUOUS
 10
5.9443
 20
6.5526
  0
VERTEX
  8
LAYER1
 62
     7
  6
CONTINUOUS
 10
5.9471
 20
6.5558
  0
VERTEX
  8
LAYER1
 62
     7
  6
CONTINUOUS
 10
5.9501
 20
6.5593
  0
VERTEX
  8
LAYER1
 62
     7
  6
CONTINUOUS
 10
5.9532
 20
6.5628
  0
VERTEX
  8
LAYER1
 62
     7
  6
CONTINUOUS
 10
5.9563
 20
6.5665
  0
VERTEX
  8
LAYER1
 62
     7
  6
CONTINUOUS
 10
5.9596
 20
6.5702
  0
SEQEND
  8
LAYER1
  0
POLYLINE
  8
LAYER1
 62
     7
 66
     1
  6
CONTINUOUS
  0
VERTEX
  8
LAYER1
 62
     7
  6
CONTINUOUS
 10
5.7956
 20
6.5235
  0
VERTEX
  8
LAYER1
 62
     7
  6
CONTINUOUS
 10
5.7986
 20
6.5290
  0
VERTEX
  8
LAYER1
 62
     7
  6
CONTINUOUS
 10
5.8015
 20
6.5344
  0
VERTEX
  8
LAYER1
 62
     7
  6
CONTINUOUS
 10
5.8044
 20
6.5397
  0
VERTEX
  8
LAYER1
 62
     7
  6
CONTINUOUS
 10
5.8072
 20
6.5447
  0
VERTEX
  8
LAYER1
 62
     7
  6
CONTINUOUS
 10
5.8097
 20
6.5495
  0
VERTEX
  8
LAYER1
 62
     7
  6
CONTINUOUS
 10
5.8121
 20
6.5539
  0
VERTEX
  8
LAYER1
 62
     7
  6
CONTINUOUS
 10
5.8143
 20
6.5578
  0
VERTEX
  8
LAYER1
 62
     7
  6
CONTINUOUS
 10
5.8162
 20
6.5613
  0
VERTEX
  8
LAYER1
 62
     7
  6
CONTINUOUS
 10
5.8178
 20
6.5642
  0
VERTEX
  8
LAYER1
 62
     7
  6
CONTINUOUS
 10
5.8190
 20
6.5664
  0
VERTEX
  8
LAYER1
 62
     7
  6
CONTINUOUS
 10
5.8198
 20
6.5679
  0
VERTEX
  8
LAYER1
 62
     7
  6
CONTINUOUS
 10
5.8202
 20
6.5686
  0
VERTEX
  8
LAYER1
 62
     7
  6
CONTINUOUS
 10
5.8202
 20
6.5687
  0
VERTEX
  8
LAYER1
 62
     7
  6
CONTINUOUS
 10
5.8202
 20
6.5687
  0
VERTEX
  8
LAYER1
 62
     7
  6
CONTINUOUS
 10
5.8202
 20
6.5687
  0
VERTEX
  8
LAYER1
 62
     7
  6
CONTINUOUS
 10
5.8202
 20
6.5687
  0
VERTEX
  8
LAYER1
 62
     7
  6
CONTINUOUS
 10
5.8202
 20
6.5687
  0
VERTEX
  8
LAYER1
 62
     7
  6
CONTINUOUS
 10
5.8202
 20
6.5687
  0
VERTEX
  8
LAYER1
 62
     7
  6
CONTINUOUS
 10
5.8202
 20
6.5687
  0
VERTEX
  8
LAYER1
 62
     7
  6
CONTINUOUS
 10
5.8202
 20
6.5687
  0
VERTEX
  8
LAYER1
 62
     7
  6
CONTINUOUS
 10
5.8202
 20
6.5687
  0
VERTEX
  8
LAYER1
 62
     7
  6
CONTINUOUS
 10
5.8202
 20
6.5687
  0
VERTEX
  8
LAYER1
 62
     7
  6
CONTINUOUS
 10
5.8202
 20
6.5687
  0
VERTEX
  8
LAYER1
 62
     7
  6
CONTINUOUS
 10
5.8202
 20
6.5686
  0
SEQEND
  8
LAYER1
  0
ARC
  8
LAYER1
 62
     7
  6
CONTINUOUS
 10
5.7397
 20
7.5435
 40
0.0149
 50
-179.3945
 51
11.6977
  0
ARC
  8
LAYER1
 62
     7
  6
CONTINUOUS
 10
5.7397
 20
7.5435
 40
0.0149
 50
168.3019
 51
-179.3945
  0
ARC
  8
LAYER1
 62
     7
  6
CONTINUOUS
 10
5.6452
 20
7.5425
 40
0.0149
 50
-89.3466
 51
15.8215
  0
ARC
  8
LAYER1
 62
     7
  6
CONTINUOUS
 10
5.6452
 20
7.5425
 40
0.0149
 50
164.1785
 51
-89.3466
  0
ARC
  8
LAYER1
 62
     7
  6
CONTINUOUS
 10
6.0629
 20
6.6833
 40
0.0075
 50
90.6879
 51
-68.1238
  0
ARC
  8
LAYER1
 62
     7
  6
CONTINUOUS
 10
6.0629
 20
6.6833
 40
0.0075
 50
68.1245
 51
90.6881
  0
ARC
  8
LAYER1
 62
     7
  6
CONTINUOUS
 10
6.0765
 20
7.2485
 40
0.0199
 50
123.1993
 51
-123.1993
  0
ARC
  8
LAYER1
 62
     7
  6
CONTINUOUS
 10
6.0696
 20
7.4277
 40
0.0100
 50
113.3413
 51
-113.3327
  0
ARC
  8
LAYER1
 62
     7
  6
CONTINUOUS
 10
5.0350
 20
7.3466
 40
0.0099
 50
-74.5593
 51
-40.0213
  0
ARC
  8
LAYER1
 62
     7
  6
CONTINUOUS
 10
5.0350
 20
7.3466
 40
0.0099
 50
40.0195
 51
74.5593
  0
ARC
  8
LAYER1
 62
     7
  6
CONTINUOUS
 10
5.0435
 20
6.8015
 40
0.0127
 50
93.9921
 51
117.4449
  0
ARC
  8
LAYER1
 62
     7
  6
CONTINUOUS
 10
5.0435
 20
6.8015
 40
0.0127
 50
-117.4438
 51
-100.6739
  0
POLYLINE
  8
LAYER10
 62
     1
 66
     1
  6
CONTINUOUS
  0
VERTEX
  8
LAYER10
 62
     1
  6
CONTINUOUS
 10
5.8412
 20
7.3754
  0
VERTEX
  8
LAYER10
 62
     1
  6
CONTINUOUS
 10
5.8432
 20
7.3747
  0
VERTEX
  8
LAYER10
 62
     1
  6
CONTINUOUS
 10
5.8452
 20
7.3738
  0
VERTEX
  8
LAYER10
 62
     1
  6
CONTINUOUS
 10
5.8471
 20
7.3727
  0
VERTEX
  8
LAYER10
 62
     1
  6
CONTINUOUS
 10
5.8490
 20
7.3713
  0
VERTEX
  8
LAYER10
 62
     1
  6
CONTINUOUS
 10
5.8507
 20
7.3698
  0
VERTEX
  8
LAYER10
 62
     1
  6
CONTINUOUS
 10
5.8525
 20
7.3681
  0
VERTEX
  8
LAYER10
 62
     1
  6
CONTINUOUS
 10
5.8541
 20
7.3662
  0
VERTEX
  8
LAYER10
 62
     1
  6
CONTINUOUS
 10
5.8557
 20
7.3643
  0
VERTEX
  8
LAYER10
 62
     1
  6
CONTINUOUS
 10
5.8572
 20
7.3622
  0
VERTEX
  8
LAYER10
 62
     1
  6
CONTINUOUS
 10
5.8586
 20
7.3601
  0
VERTEX
  8
LAYER10
 62
     1
  6
CONTINUOUS
 10
5.8600
 20
7.3579
  0
VERTEX
  8
LAYER10
 62
     1
  6
CONTINUOUS
 10
5.8613
 20
7.3557
  0
VERTEX
  8
LAYER10
 62
     1
  6
CONTINUOUS
 10
5.8626
 20
7.3534
  0
VERTEX
  8
LAYER10
 62
     1
  6
CONTINUOUS
 10
5.8638
 20
7.3511
  0
VERTEX
  8
LAYER10
 62
     1
  6
CONTINUOUS
 10
5.8649
 20
7.3488
  0
VERTEX
  8
LAYER10
 62
     1
  6
CONTINUOUS
 10
5.8661
 20
7.3465
  0
VERTEX
  8
LAYER10
 62
     1
  6
CONTINUOUS
 10
5.8672
 20
7.3443
  0
VERTEX
  8
LAYER10
 62
     1
  6
CONTINUOUS
 10
5.8683
 20
7.3422
  0
VERTEX
  8
LAYER10
 62
     1
  6
CONTINUOUS
 10
5.8695
 20
7.3400
  0
VERTEX
  8
LAYER10
 62
     1
  6
CONTINUOUS
 10
5.8707
 20
7.3380
  0
VERTEX
  8
LAYER10
 62
     1
  6
CONTINUOUS
 10
5.8720
 20
7.3361
  0
VERTEX
  8
LAYER10
 62
     1
  6
CONTINUOUS
 10
5.8734
 20
7.3343
  0
VERTEX
  8
LAYER10
 62
     1
  6
CONTINUOUS
 10
5.8749
 20
7.3325
  0
VERTEX
  8
LAYER10
 62
     1
  6
CONTINUOUS
 10
5.8765
 20
7.3309
  0
VERTEX
  8
LAYER10
 62
     1
  6
CONTINUOUS
 10
5.8783
 20
7.3295
  0
VERTEX
  8
LAYER10
 62
     1
  6
CONTINUOUS
 10
5.8801
 20
7.3281
  0
VERTEX
  8
LAYER10
 62
     1
  6
CONTINUOUS
 10
5.8821
 20
7.3269
  0
VERTEX
  8
LAYER10
 62
     1
  6
CONTINUOUS
 10
5.8842
 20
7.3257
  0
VERTEX
  8
LAYER10
 62
     1
  6
CONTINUOUS
 10
5.8863
 20
7.3246
  0
VERTEX
  8
LAYER10
 62
     1
  6
CONTINUOUS
 10
5.8885
 20
7.3235
  0
VERTEX
  8
LAYER10
 62
     1
  6
CONTINUOUS
 10
5.8907
 20
7.3224
  0
VERTEX
  8
LAYER10
 62
     1
  6
CONTINUOUS
 10
5.8929
 20
7.3213
  0
VERTEX
  8
LAYER10
 62
     1
  6
CONTINUOUS
 10
5.8951
 20
7.3201
  0
VERTEX
  8
LAYER10
 62
     1
  6
CONTINUOUS
 10
5.8973
 20
7.3189
  0
VERTEX
  8
LAYER10
 62
     1
  6
CONTINUOUS
 10
5.8995
 20
7.3177
  0
VERTEX
  8
LAYER10
 62
     1
  6
CONTINUOUS
 10
5.9016
 20
7.3163
  0
VERTEX
  8
LAYER10
 62
     1
  6
CONTINUOUS
 10
5.9033
 20
7.3150
  0
VERTEX
  8
LAYER10
 62
     1
  6
CONTINUOUS
 10
5.9049
 20
7.3136
  0
VERTEX
  8
LAYER10
 62
     1
  6
CONTINUOUS
 10
5.9065
 20
7.3122
  0
VERTEX
  8
LAYER10
 62
     1
  6
CONTINUOUS
 10
5.9080
 20
7.3107
  0
VERTEX
  8
LAYER10
 62
     1
  6
CONTINUOUS
 10
5.9094
 20
7.3091
  0
VERTEX
  8
LAYER10
 62
     1
  6
CONTINUOUS
 10
5.9108
 20
7.3075
  0
VERTEX
  8
LAYER10
 62
     1
  6
CONTINUOUS
 10
5.9120
 20
7.3058
  0
VERTEX
  8
LAYER10
 62
     1
  6
CONTINUOUS
 10
5.9132
 20
7.3040
  0
VERTEX
  8
LAYER10
 62
     1
  6
CONTINUOUS
 10
5.9142
 20
7.3022
  0
VERTEX
  8
LAYER10
 62
     1
  6
CONTINUOUS
 10
5.9152
 20
7.3003
  0
VERTEX
  8
LAYER10
 62
     1
  6
CONTINUOUS
 10
5.9160
 20
7.2985
  0
VERTEX
  8
LAYER10
 62
     1
  6
CONTINUOUS
 10
5.9167
 20
7.2965
  0
VERTEX
  8
LAYER10
 62
     1
  6
CONTINUOUS
 10
5.9175
 20
7.2938
  0
VERTEX
  8
LAYER10
 62
     1
  6
CONTINUOUS
 10
5.9182
 20
7.2910
  0
VERTEX
  8
LAYER10
 62
     1
  6
CONTINUOUS
 10
5.9186
 20
7.2881
  0
VERTEX
  8
LAYER10
 62
     1
  6
CONTINUOUS
 10
5.9190
 20
7.2853
  0
VERTEX
  8
LAYER10
 62
     1
  6
CONTINUOUS
 10
5.9192
 20
7.2824
  0
VERTEX
  8
LAYER10
 62
     1
  6
CONTINUOUS
 10
5.9195
 20
7.2794
  0
VERTEX
  8
LAYER10
 62
     1
  6
CONTINUOUS
 10
5.9197
 20
7.2765
  0
VERTEX
  8
LAYER10
 62
     1
  6
CONTINUOUS
 10
5.9199
 20
7.2735
  0
VERTEX
  8
LAYER10
 62
     1
  6
CONTINUOUS
 10
5.9202
 20
7.2706
  0
VERTEX
  8
LAYER10
 62
     1
  6
CONTINUOUS
 10
5.9207
 20
7.2676
  0
VERTEX
  8
LAYER10
 62
     1
  6
CONTINUOUS
 10
5.9213
 20
7.2647
  0
VERTEX
  8
LAYER10
 62
     1
  6
CONTINUOUS
 10
5.9221
 20
7.2618
  0
VERTEX
  8
LAYER10
 62
     1
  6
CONTINUOUS
 10
5.9228
 20
7.2597
  0
VERTEX
  8
LAYER10
 62
     1
  6
CONTINUOUS
 10
5.9236
 20
7.2577
  0
VERTEX
  8
LAYER10
 62
     1
  6
CONTINUOUS
 10
5.9245
 20
7.2557
  0
VERTEX
  8
LAYER10
 62
     1
  6
CONTINUOUS
 10
5.9255
 20
7.2537
  0
VERTEX
  8
LAYER10
 62
     1
  6
CONTINUOUS
 10
5.9266
 20
7.2519
  0
VERTEX
  8
LAYER10
 62
     1
  6
CONTINUOUS
 10
5.9279
 20
7.2501
  0
VERTEX
  8
LAYER10
 62
     1
  6
CONTINUOUS
 10
5.9292
 20
7.2484
  0
VERTEX
  8
LAYER10
 62
     1
  6
CONTINUOUS
 10
5.9306
 20
7.2469
  0
VERTEX
  8
LAYER10
 62
     1
  6
CONTINUOUS
 10
5.9321
 20
7.2454
  0
VERTEX
  8
LAYER10
 62
     1
  6
CONTINUOUS
 10
5.9338
 20
7.2441
  0
VERTEX
  8
LAYER10
 62
     1
  6
CONTINUOUS
 10
5.9354
 20
7.2430
  0
VERTEX
  8
LAYER10
 62
     1
  6
CONTINUOUS
 10
5.9372
 20
7.2420
  0
VERTEX
  8
LAYER10
 62
     1
  6
CONTINUOUS
 10
5.9391
 20
7.2412
  0
VERTEX
  8
LAYER10
 62
     1
  6
CONTINUOUS
 10
5.9411
 20
7.2406
  0
VERTEX
  8
LAYER10
 62
     1
  6
CONTINUOUS
 10
5.9431
 20
7.2401
  0
VERTEX
  8
LAYER10
 62
     1
  6
CONTINUOUS
 10
5.9452
 20
7.2397
  0
VERTEX
  8
LAYER10
 62
     1
  6
CONTINUOUS
 10
5.9473
 20
7.2394
  0
VERTEX
  8
LAYER10
 62
     1
  6
CONTINUOUS
 10
5.9495
 20
7.2392
  0
VERTEX
  8
LAYER10
 62
     1
  6
CONTINUOUS
 10
5.9516
 20
7.2390
  0
VERTEX
  8
LAYER10
 62
     1
  6
CONTINUOUS
 10
5.9538
 20
7.2388
  0
VERTEX
  8
LAYER10
 62
     1
  6
CONTINUOUS
 10
5.9559
 20
7.2385
  0
VERTEX
  8
LAYER10
 62
     1
  6
CONTINUOUS
 10
5.9580
 20
7.2382
  0
VERTEX
  8
LAYER10
 62
     1
  6
CONTINUOUS
 10
5.9601
 20
7.2378
  0
VERTEX
  8
LAYER10
 62
     1
  6
CONTINUOUS
 10
5.9622
 20
7.2373
  0
VERTEX
  8
LAYER10
 62
     1
  6
CONTINUOUS
 10
5.9639
 20
7.2367
  0
VERTEX
  8
LAYER10
 62
     1
  6
CONTINUOUS
 10
5.9656
 20
7.2361
  0
VERTEX
  8
LAYER10
 62
     1
  6
CONTINUOUS
 10
5.9673
 20
7.2353
  0
VERTEX
  8
LAYER10
 62
     1
  6
CONTINUOUS
 10
5.9689
 20
7.2345
  0
VERTEX
  8
LAYER10
 62
     1
  6
CONTINUOUS
 10
5.9706
 20
7.2337
  0
VERTEX
  8
LAYER10
 62
     1
  6
CONTINUOUS
 10
5.9722
 20
7.2328
  0
VERTEX
  8
LAYER10
 62
     1
  6
CONTINUOUS
 10
5.9738
 20
7.2319
  0
VERTEX
  8
LAYER10
 62
     1
  6
CONTINUOUS
 10
5.9755
 20
7.2309
  0
VERTEX
  8
LAYER10
 62
     1
  6
CONTINUOUS
 10
5.9771
 20
7.2300
  0
VERTEX
  8
LAYER10
 62
     1
  6
CONTINUOUS
 10
5.9788
 20
7.2292
  0
VERTEX
  8
LAYER10
 62
     1
  6
CONTINUOUS
 10
5.9805
 20
7.2283
  0
VERTEX
  8
LAYER10
 62
     1
  6
CONTINUOUS
 10
5.9822
 20
7.2276
  0
VERTEX
  8
LAYER10
 62
     1
  6
CONTINUOUS
 10
5.9843
 20
7.2267
  0
VERTEX
  8
LAYER10
 62
     1
  6
CONTINUOUS
 10
5.9865
 20
7.2260
  0
VERTEX
  8
LAYER10
 62
     1
  6
CONTINUOUS
 10
5.9887
 20
7.2253
  0
VERTEX
  8
LAYER10
 62
     1
  6
CONTINUOUS
 10
5.9910
 20
7.2246
  0
VERTEX
  8
LAYER10
 62
     1
  6
CONTINUOUS
 10
5.9932
 20
7.2240
  0
VERTEX
  8
LAYER10
 62
     1
  6
CONTINUOUS
 10
5.9954
 20
7.2233
  0
VERTEX
  8
LAYER10
 62
     1
  6
CONTINUOUS
 10
5.9976
 20
7.2226
  0
VERTEX
  8
LAYER10
 62
     1
  6
CONTINUOUS
 10
5.9997
 20
7.2219
  0
VERTEX
  8
LAYER10
 62
     1
  6
CONTINUOUS
 10
6.0017
 20
7.2211
  0
VERTEX
  8
LAYER10
 62
     1
  6
CONTINUOUS
 10
6.0036
 20
7.2201
  0
VERTEX
  8
LAYER10
 62
     1
  6
CONTINUOUS
 10
6.0055
 20
7.2191
  0
VERTEX
  8
LAYER10
 62
     1
  6
CONTINUOUS
 10
6.0072
 20
7.2179
  0
VERTEX
  8
LAYER10
 62
     1
  6
CONTINUOUS
 10
6.0089
 20
7.2164
  0
VERTEX
  8
LAYER10
 62
     1
  6
CONTINUOUS
 10
6.0105
 20
7.2147
  0
VERTEX
  8
LAYER10
 62
     1
  6
CONTINUOUS
 10
6.0119
 20
7.2129
  0
VERTEX
  8
LAYER10
 62
     1
  6
CONTINUOUS
 10
6.0132
 20
7.2110
  0
VERTEX
  8
LAYER10
 62
     1
  6
CONTINUOUS
 10
6.0144
 20
7.2089
  0
VERTEX
  8
LAYER10
 62
     1
  6
CONTINUOUS
 10
6.0156
 20
7.2067
  0
VERTEX
  8
LAYER10
 62
     1
  6
CONTINUOUS
 10
6.0167
 20
7.2045
  0
VERTEX
  8
LAYER10
 62
     1
  6
CONTINUOUS
 10
6.0179
 20
7.2022
  0
VERTEX
  8
LAYER10
 62
     1
  6
CONTINUOUS
 10
6.0189
 20
7.2000
  0
VERTEX
  8
LAYER10
 62
     1
  6
CONTINUOUS
 10
6.0201
 20
7.1977
  0
VERTEX
  8
LAYER10
 62
     1
  6
CONTINUOUS
 10
6.0212
 20
7.1954
  0
VERTEX
  8
LAYER10
 62
     1
  6
CONTINUOUS
 10
6.0224
 20
7.1932
  0
VERTEX
  8
LAYER10
 62
     1
  6
CONTINUOUS
 10
6.0237
 20
7.1910
  0
VERTEX
  8
LAYER10
 62
     1
  6
CONTINUOUS
 10
6.0250
 20
7.1889
  0
VERTEX
  8
LAYER10
 62
     1
  6
CONTINUOUS
 10
6.0263
 20
7.1868
  0
VERTEX
  8
LAYER10
 62
     1
  6
CONTINUOUS
 10
6.0277
 20
7.1848
  0
VERTEX
  8
LAYER10
 62
     1
  6
CONTINUOUS
 10
6.0291
 20
7.1828
  0
VERTEX
  8
LAYER10
 62
     1
  6
CONTINUOUS
 10
6.0305
 20
7.1808
  0
VERTEX
  8
LAYER10
 62
     1
  6
CONTINUOUS
 10
6.0319
 20
7.1788
  0
VERTEX
  8
LAYER10
 62
     1
  6
CONTINUOUS
 10
6.0332
 20
7.1768
  0
VERTEX
  8
LAYER10
 62
     1
  6
CONTINUOUS
 10
6.0344
 20
7.1747
  0
VERTEX
  8
LAYER10
 62
     1
  6
CONTINUOUS
 10
6.0356
 20
7.1727
  0
VERTEX
  8
LAYER10
 62
     1
  6
CONTINUOUS
 10
6.0366
 20
7.1706
  0
VERTEX
  8
LAYER10
 62
     1
  6
CONTINUOUS
 10
6.0376
 20
7.1684
  0
VERTEX
  8
LAYER10
 62
     1
  6
CONTINUOUS
 10
6.0383
 20
7.1665
  0
VERTEX
  8
LAYER10
 62
     1
  6
CONTINUOUS
 10
6.0390
 20
7.1645
  0
VERTEX
  8
LAYER10
 62
     1
  6
CONTINUOUS
 10
6.0396
 20
7.1625
  0
VERTEX
  8
LAYER10
 62
     1
  6
CONTINUOUS
 10
6.0401
 20
7.1605
  0
VERTEX
  8
LAYER10
 62
     1
  6
CONTINUOUS
 10
6.0405
 20
7.1584
  0
VERTEX
  8
LAYER10
 62
     1
  6
CONTINUOUS
 10
6.0409
 20
7.1563
  0
VERTEX
  8
LAYER10
 62
     1
  6
CONTINUOUS
 10
6.0413
 20
7.1542
  0
VERTEX
  8
LAYER10
 62
     1
  6
CONTINUOUS
 10
6.0416
 20
7.1521
  0
VERTEX
  8
LAYER10
 62
     1
  6
CONTINUOUS
 10
6.0419
 20
7.1500
  0
VERTEX
  8
LAYER10
 62
     1
  6
CONTINUOUS
 10
6.0422
 20
7.1479
  0
VERTEX
  8
LAYER10
 62
     1
  6
CONTINUOUS
 10
6.0425
 20
7.1457
  0
VERTEX
  8
LAYER10
 62
     1
  6
CONTINUOUS
 10
6.0429
 20
7.1436
  0
VERTEX
  8
LAYER10
 62
     1
  6
CONTINUOUS
 10
6.0433
 20
7.1411
  0
VERTEX
  8
LAYER10
 62
     1
  6
CONTINUOUS
 10
6.0437
 20
7.1386
  0
VERTEX
  8
LAYER10
 62
     1
  6
CONTINUOUS
 10
6.0442
 20
7.1361
  0
VERTEX
  8
LAYER10
 62
     1
  6
CONTINUOUS
 10
6.0447
 20
7.1336
  0
VERTEX
  8
LAYER10
 62
     1
  6
CONTINUOUS
 10
6.0451
 20
7.1312
  0
VERTEX
  8
LAYER10
 62
     1
  6
CONTINUOUS
 10
6.0456
 20
7.1287
  0
VERTEX
  8
LAYER10
 62
     1
  6
CONTINUOUS
 10
6.0461
 20
7.1262
  0
VERTEX
  8
LAYER10
 62
     1
  6
CONTINUOUS
 10
6.0466
 20
7.1238
  0
VERTEX
  8
LAYER10
 62
     1
  6
CONTINUOUS
 10
6.0470
 20
7.1213
  0
VERTEX
  8
LAYER10
 62
     1
  6
CONTINUOUS
 10
6.0474
 20
7.1188
  0
VERTEX
  8
LAYER10
 62
     1
  6
CONTINUOUS
 10
6.0478
 20
7.1163
  0
VERTEX
  8
LAYER10
 62
     1
  6
CONTINUOUS
 10
6.0482
 20
7.1138
  0
VERTEX
  8
LAYER10
 62
     1
  6
CONTINUOUS
 10
6.0484
 20
7.1117
  0
VERTEX
  8
LAYER10
 62
     1
  6
CONTINUOUS
 10
6.0486
 20
7.1096
  0
VERTEX
  8
LAYER10
 62
     1
  6
CONTINUOUS
 10
6.0488
 20
7.1075
  0
VERTEX
  8
LAYER10
 62
     1
  6
CONTINUOUS
 10
6.0490
 20
7.1054
  0
VERTEX
  8
LAYER10
 62
     1
  6
CONTINUOUS
 10
6.0491
 20
7.1034
  0
VERTEX
  8
LAYER10
 62
     1
  6
CONTINUOUS
 10
6.0491
 20
7.1013
  0
VERTEX
  8
LAYER10
 62
     1
  6
CONTINUOUS
 10
6.0492
 20
7.0992
  0
VERTEX
  8
LAYER10
 62
     1
  6
CONTINUOUS
 10
6.0491
 20
7.0971
  0
VERTEX
  8
LAYER10
 62
     1
  6
CONTINUOUS
 10
6.0490
 20
7.0950
  0
VERTEX
  8
LAYER10
 62
     1
  6
CONTINUOUS
 10
6.0489
 20
7.0930
  0
VERTEX
  8
LAYER10
 62
     1
  6
CONTINUOUS
 10
6.0487
 20
7.0909
  0
VERTEX
  8
LAYER10
 62
     1
  6
CONTINUOUS
 10
6.0484
 20
7.0889
  0
VERTEX
  8
LAYER10
 62
     1
  6
CONTINUOUS
 10
6.0482
 20
7.0873
  0
VERTEX
  8
LAYER10
 62
     1
  6
CONTINUOUS
 10
6.0479
 20
7.0856
  0
VERTEX
  8
LAYER10
 62
     1
  6
CONTINUOUS
 10
6.0476
 20
7.0840
  0
VERTEX
  8
LAYER10
 62
     1
  6
CONTINUOUS
 10
6.0472
 20
7.0824
  0
VERTEX
  8
LAYER10
 62
     1
  6
CONTINUOUS
 10
6.0468
 20
7.0807
  0
VERTEX
  8
LAYER10
 62
     1
  6
CONTINUOUS
 10
6.0464
 20
7.0791
  0
VERTEX
  8
LAYER10
 62
     1
  6
CONTINUOUS
 10
6.0460
 20
7.0774
  0
VERTEX
  8
LAYER10
 62
     1
  6
CONTINUOUS
 10
6.0455
 20
7.0758
  0
VERTEX
  8
LAYER10
 62
     1
  6
CONTINUOUS
 10
6.0451
 20
7.0741
  0
VERTEX
  8
LAYER10
 62
     1
  6
CONTINUOUS
 10
6.0446
 20
7.0724
  0
VERTEX
  8
LAYER10
 62
     1
  6
CONTINUOUS
 10
6.0441
 20
7.0707
  0
VERTEX
  8
LAYER10
 62
     1
  6
CONTINUOUS
 10
6.0437
 20
7.0689
  0
VERTEX
  8
LAYER10
 62
     1
  6
CONTINUOUS
 10
6.0432
 20
7.0670
  0
VERTEX
  8
LAYER10
 62
     1
  6
CONTINUOUS
 10
6.0427
 20
7.0650
  0
VERTEX
  8
LAYER10
 62
     1
  6
CONTINUOUS
 10
6.0421
 20
7.0631
  0
VERTEX
  8
LAYER10
 62
     1
  6
CONTINUOUS
 10
6.0416
 20
7.0612
  0
VERTEX
  8
LAYER10
 62
     1
  6
CONTINUOUS
 10
6.0409
 20
7.0593
  0
VERTEX
  8
LAYER10
 62
     1
  6
CONTINUOUS
 10
6.0403
 20
7.0575
  0
VERTEX
  8
LAYER10
 62
     1
  6
CONTINUOUS
 10
6.0395
 20
7.0557
  0
VERTEX
  8
LAYER10
 62
     1
  6
CONTINUOUS
 10
6.0386
 20
7.0541
  0
VERTEX
  8
LAYER10
 62
     1
  6
CONTINUOUS
 10
6.0376
 20
7.0525
  0
VERTEX
  8
LAYER10
 62
     1
  6
CONTINUOUS
 10
6.0366
 20
7.0512
  0
VERTEX
  8
LAYER10
 62
     1
  6
CONTINUOUS
 10
6.0353
 20
7.0500
  0
VERTEX
  8
LAYER10
 62
     1
  6
CONTINUOUS
 10
6.0339
 20
7.0489
  0
VERTEX
  8
LAYER10
 62
     1
  6
CONTINUOUS
 10
6.0329
 20
7.0483
  0
VERTEX
  8
LAYER10
 62
     1
  6
CONTINUOUS
 10
6.0317
 20
7.0478
  0
VERTEX
  8
LAYER10
 62
     1
  6
CONTINUOUS
 10
6.0305
 20
7.0473
  0
VERTEX
  8
LAYER10
 62
     1
  6
CONTINUOUS
 10
6.0293
 20
7.0469
  0
VERTEX
  8
LAYER10
 62
     1
  6
CONTINUOUS
 10
6.0280
 20
7.0466
  0
VERTEX
  8
LAYER10
 62
     1
  6
CONTINUOUS
 10
6.0267
 20
7.0462
  0
VERTEX
  8
LAYER10
 62
     1
  6
CONTINUOUS
 10
6.0254
 20
7.0459
  0
VERTEX
  8
LAYER10
 62
     1
  6
CONTINUOUS
 10
6.0240
 20
7.0455
  0
VERTEX
  8
LAYER10
 62
     1
  6
CONTINUOUS
 10
6.0227
 20
7.0452
  0
VERTEX
  8
LAYER10
 62
     1
  6
CONTINUOUS
 10
6.0215
 20
7.0448
  0
VERTEX
  8
LAYER10
 62
     1
  6
CONTINUOUS
 10
6.0202
 20
7.0443
  0
VERTEX
  8
LAYER10
 62
     1
  6
CONTINUOUS
 10
6.0191
 20
7.0438
  0
VERTEX
  8
LAYER10
 62
     1
  6
CONTINUOUS
 10
6.0176
 20
7.0429
  0
VERTEX
  8
LAYER10
 62
     1
  6
CONTINUOUS
 10
6.0162
 20
7.0419
  0
VERTEX
  8
LAYER10
 62
     1
  6
CONTINUOUS
 10
6.0149
 20
7.0408
  0
VERTEX
  8
LAYER10
 62
     1
  6
CONTINUOUS
 10
6.0136
 20
7.0396
  0
VERTEX
  8
LAYER10
 62
     1
  6
CONTINUOUS
 10
6.0124
 20
7.0383
  0
VERTEX
  8
LAYER10
 62
     1
  6
CONTINUOUS
 10
6.0113
 20
7.0370
  0
VERTEX
  8
LAYER10
 62
     1
  6
CONTINUOUS
 10
6.0102
 20
7.0356
  0
VERTEX
  8
LAYER10
 62
     1
  6
CONTINUOUS
 10
6.0090
 20
7.0342
  0
VERTEX
  8
LAYER10
 62
     1
  6
CONTINUOUS
 10
6.0079
 20
7.0328
  0
VERTEX
  8
LAYER10
 62
     1
  6
CONTINUOUS
 10
6.0068
 20
7.0314
  0
VERTEX
  8
LAYER10
 62
     1
  6
CONTINUOUS
 10
6.0056
 20
7.0300
  0
VERTEX
  8
LAYER10
 62
     1
  6
CONTINUOUS
 10
6.0043
 20
7.0287
  0
VERTEX
  8
LAYER10
 62
     1
  6
CONTINUOUS
 10
6.0023
 20
7.0269
  0
VERTEX
  8
LAYER10
 62
     1
  6
CONTINUOUS
 10
6.0002
 20
7.0252
  0
VERTEX
  8
LAYER10
 62
     1
  6
CONTINUOUS
 10
5.9979
 20
7.0237
  0
VERTEX
  8
LAYER10
 62
     1
  6
CONTINUOUS
 10
5.9955
 20
7.0224
  0
VERTEX
  8
LAYER10
 62
     1
  6
CONTINUOUS
 10
5.9930
 20
7.0213
  0
VERTEX
  8
LAYER10
 62
     1
  6
CONTINUOUS
 10
5.9905
 20
7.0203
  0
VERTEX
  8
LAYER10
 62
     1
  6
CONTINUOUS
 10
5.9879
 20
7.0195
  0
VERTEX
  8
LAYER10
 62
     1
  6
CONTINUOUS
 10
5.9852
 20
7.0189
  0
VERTEX
  8
LAYER10
 62
     1
  6
CONTINUOUS
 10
5.9826
 20
7.0185
  0
VERTEX
  8
LAYER10
 62
     1
  6
CONTINUOUS
 10
5.9799
 20
7.0183
  0
VERTEX
  8
LAYER10
 62
     1
  6
CONTINUOUS
 10
5.9772
 20
7.0182
  0
VERTEX
  8
LAYER10
 62
     1
  6
CONTINUOUS
 10
5.9745
 20
7.0184
  0
VERTEX
  8
LAYER10
 62
     1
  6
CONTINUOUS
 10
5.9732
 20
7.0186
  0
VERTEX
  8
LAYER10
 62
     1
  6
CONTINUOUS
 10
5.9719
 20
7.0188
  0
VERTEX
  8
LAYER10
 62
     1
  6
CONTINUOUS
 10
5.9706
 20
7.0190
  0
VERTEX
  8
LAYER10
 62
     1
  6
CONTINUOUS
 10
5.9693
 20
7.0193
  0
VERTEX
  8
LAYER10
 62
     1
  6
CONTINUOUS
 10
5.9681
 20
7.0196
  0
VERTEX
  8
LAYER10
 62
     1
  6
CONTINUOUS
 10
5.9668
 20
7.0200
  0
VERTEX
  8
LAYER10
 62
     1
  6
CONTINUOUS
 10
5.9656
 20
7.0204
  0
VERTEX
  8
LAYER10
 62
     1
  6
CONTINUOUS
 10
5.9643
 20
7.0209
  0
VERTEX
  8
LAYER10
 62
     1
  6
CONTINUOUS
 10
5.9631
 20
7.0214
  0
VERTEX
  8
LAYER10
 62
     1
  6
CONTINUOUS
 10
5.9619
 20
7.0220
  0
VERTEX
  8
LAYER10
 62
     1
  6
CONTINUOUS
 10
5.9607
 20
7.0226
  0
VERTEX
  8
LAYER10
 62
     1
  6
CONTINUOUS
 10
5.9596
 20
7.0232
  0
VERTEX
  8
LAYER10
 62
     1
  6
CONTINUOUS
 10
5.9574
 20
7.0245
  0
VERTEX
  8
LAYER10
 62
     1
  6
CONTINUOUS
 10
5.9553
 20
7.0258
  0
VERTEX
  8
LAYER10
 62
     1
  6
CONTINUOUS
 10
5.9533
 20
7.0273
  0
VERTEX
  8
LAYER10
 62
     1
  6
CONTINUOUS
 10
5.9512
 20
7.0287
  0
VERTEX
  8
LAYER10
 62
     1
  6
CONTINUOUS
 10
5.9492
 20
7.0302
  0
VERTEX
  8
LAYER10
 62
     1
  6
CONTINUOUS
 10
5.9472
 20
7.0316
  0
VERTEX
  8
LAYER10
 62
     1
  6
CONTINUOUS
 10
5.9451
 20
7.0330
  0
VERTEX
  8
LAYER10
 62
     1
  6
CONTINUOUS
 10
5.9431
 20
7.0343
  0
VERTEX
  8
LAYER10
 62
     1
  6
CONTINUOUS
 10
5.9410
 20
7.0354
  0
VERTEX
  8
LAYER10
 62
     1
  6
CONTINUOUS
 10
5.9389
 20
7.0364
  0
VERTEX
  8
LAYER10
 62
     1
  6
CONTINUOUS
 10
5.9367
 20
7.0373
  0
VERTEX
  8
LAYER10
 62
     1
  6
CONTINUOUS
 10
5.9345
 20
7.0379
  0
VERTEX
  8
LAYER10
 62
     1
  6
CONTINUOUS
 10
5.9329
 20
7.0381
  0
VERTEX
  8
LAYER10
 62
     1
  6
CONTINUOUS
 10
5.9313
 20
7.0383
  0
VERTEX
  8
LAYER10
 62
     1
  6
CONTINUOUS
 10
5.9297
 20
7.0384
  0
VERTEX
  8
LAYER10
 62
     1
  6
CONTINUOUS
 10
5.9281
 20
7.0384
  0
VERTEX
  8
LAYER10
 62
     1
  6
CONTINUOUS
 10
5.9264
 20
7.0384
  0
VERTEX
  8
LAYER10
 62
     1
  6
CONTINUOUS
 10
5.9247
 20
7.0383
  0
VERTEX
  8
LAYER10
 62
     1
  6
CONTINUOUS
 10
5.9231
 20
7.0381
  0
VERTEX
  8
LAYER10
 62
     1
  6
CONTINUOUS
 10
5.9214
 20
7.0380
  0
VERTEX
  8
LAYER10
 62
     1
  6
CONTINUOUS
 10
5.9197
 20
7.0379
  0
VERTEX
  8
LAYER10
 62
     1
  6
CONTINUOUS
 10
5.9180
 20
7.0378
  0
VERTEX
  8
LAYER10
 62
     1
  6
CONTINUOUS
 10
5.9163
 20
7.0377
  0
VERTEX
  8
LAYER10
 62
     1
  6
CONTINUOUS
 10
5.9146
 20
7.0376
  0
VERTEX
  8
LAYER10
 62
     1
  6
CONTINUOUS
 10
5.9129
 20
7.0377
  0
VERTEX
  8
LAYER10
 62
     1
  6
CONTINUOUS
 10
5.9111
 20
7.0377
  0
VERTEX
  8
LAYER10
 62
     1
  6
CONTINUOUS
 10
5.9094
 20
7.0379
  0
VERTEX
  8
LAYER10
 62
     1
  6
CONTINUOUS
 10
5.9077
 20
7.0381
  0
VERTEX
  8
LAYER10
 62
     1
  6
CONTINUOUS
 10
5.9060
 20
7.0384
  0
VERTEX
  8
LAYER10
 62
     1
  6
CONTINUOUS
 10
5.9044
 20
7.0388
  0
VERTEX
  8
LAYER10
 62
     1
  6
CONTINUOUS
 10
5.9027
 20
7.0392
  0
VERTEX
  8
LAYER10
 62
     1
  6
CONTINUOUS
 10
5.9011
 20
7.0397
  0
VERTEX
  8
LAYER10
 62
     1
  6
CONTINUOUS
 10
5.8994
 20
7.0402
  0
VERTEX
  8
LAYER10
 62
     1
  6
CONTINUOUS
 10
5.8978
 20
7.0409
  0
VERTEX
  8
LAYER10
 62
     1
  6
CONTINUOUS
 10
5.8962
 20
7.0416
  0
VERTEX
  8
LAYER10
 62
     1
  6
CONTINUOUS
 10
5.8946
 20
7.0424
  0
VERTEX
  8
LAYER10
 62
     1
  6
CONTINUOUS
 10
5.8929
 20
7.0433
  0
VERTEX
  8
LAYER10
 62
     1
  6
CONTINUOUS
 10
5.8912
 20
7.0444
  0
VERTEX
  8
LAYER10
 62
     1
  6
CONTINUOUS
 10
5.8895
 20
7.0454
  0
VERTEX
  8
LAYER10
 62
     1
  6
CONTINUOUS
 10
5.8879
 20
7.0465
  0
VERTEX
  8
LAYER10
 62
     1
  6
CONTINUOUS
 10
5.8862
 20
7.0475
  0
VERTEX
  8
LAYER10
 62
     1
  6
CONTINUOUS
 10
5.8846
 20
7.0485
  0
VERTEX
  8
LAYER10
 62
     1
  6
CONTINUOUS
 10
5.8829
 20
7.0494
  0
VERTEX
  8
LAYER10
 62
     1
  6
CONTINUOUS
 10
5.8813
 20
7.0503
  0
VERTEX
  8
LAYER10
 62
     1
  6
CONTINUOUS
 10
5.8796
 20
7.0510
  0
VERTEX
  8
LAYER10
 62
     1
  6
CONTINUOUS
 10
5.8779
 20
7.0516
  0
VERTEX
  8
LAYER10
 62
     1
  6
CONTINUOUS
 10
5.8763
 20
7.0519
  0
VERTEX
  8
LAYER10
 62
     1
  6
CONTINUOUS
 10
5.8746
 20
7.0521
  0
VERTEX
  8
LAYER10
 62
     1
  6
CONTINUOUS
 10
5.8722
 20
7.0521
  0
VERTEX
  8
LAYER10
 62
     1
  6
CONTINUOUS
 10
5.8698
 20
7.0516
  0
VERTEX
  8
LAYER10
 62
     1
  6
CONTINUOUS
 10
5.8674
 20
7.0508
  0
VERTEX
  8
LAYER10
 62
     1
  6
CONTINUOUS
 10
5.8649
 20
7.0498
  0
VERTEX
  8
LAYER10
 62
     1
  6
CONTINUOUS
 10
5.8624
 20
7.0486
  0
VERTEX
  8
LAYER10
 62
     1
  6
CONTINUOUS
 10
5.8599
 20
7.0473
  0
VERTEX
  8
LAYER10
 62
     1
  6
CONTINUOUS
 10
5.8574
 20
7.0460
  0
VERTEX
  8
LAYER10
 62
     1
  6
CONTINUOUS
 10
5.8549
 20
7.0448
  0
VERTEX
  8
LAYER10
 62
     1
  6
CONTINUOUS
 10
5.8524
 20
7.0437
  0
VERTEX
  8
LAYER10
 62
     1
  6
CONTINUOUS
 10
5.8499
 20
7.0428
  0
SEQEND
  8
LAYER10
  0
POLYLINE
  8
LAYER10
 62
     1
 66
     1
  6
CONTINUOUS
  0
VERTEX
  8
LAYER10
 62
     1
  6
CONTINUOUS
 10
5.8499
 20
7.0428
  0
VERTEX
  8
LAYER10
 62
     1
  6
CONTINUOUS
 10
5.8474
 20
7.0422
  0
VERTEX
  8
LAYER10
 62
     1
  6
CONTINUOUS
 10
5.8449
 20
7.0419
  0
VERTEX
  8
LAYER10
 62
     1
  6
CONTINUOUS
 10
5.8431
 20
7.0419
  0
VERTEX
  8
LAYER10
 62
     1
  6
CONTINUOUS
 10
5.8413
 20
7.0421
  0
VERTEX
  8
LAYER10
 62
     1
  6
CONTINUOUS
 10
5.8395
 20
7.0425
  0
VERTEX
  8
LAYER10
 62
     1
  6
CONTINUOUS
 10
5.8378
 20
7.0431
  0
VERTEX
  8
LAYER10
 62
     1
  6
CONTINUOUS
 10
5.8361
 20
7.0438
  0
VERTEX
  8
LAYER10
 62
     1
  6
CONTINUOUS
 10
5.8344
 20
7.0446
  0
VERTEX
  8
LAYER10
 62
     1
  6
CONTINUOUS
 10
5.8327
 20
7.0456
  0
VERTEX
  8
LAYER10
 62
     1
  6
CONTINUOUS
 10
5.8310
 20
7.0467
  0
VERTEX
  8
LAYER10
 62
     1
  6
CONTINUOUS
 10
5.8294
 20
7.0478
  0
VERTEX
  8
LAYER10
 62
     1
  6
CONTINUOUS
 10
5.8278
 20
7.0490
  0
VERTEX
  8
LAYER10
 62
     1
  6
CONTINUOUS
 10
5.8263
 20
7.0503
  0
VERTEX
  8
LAYER10
 62
     1
  6
CONTINUOUS
 10
5.8248
 20
7.0516
  0
VERTEX
  8
LAYER10
 62
     1
  6
CONTINUOUS
 10
5.8224
 20
7.0539
  0
VERTEX
  8
LAYER10
 62
     1
  6
CONTINUOUS
 10
5.8200
 20
7.0563
  0
VERTEX
  8
LAYER10
 62
     1
  6
CONTINUOUS
 10
5.8178
 20
7.0588
  0
VERTEX
  8
LAYER10
 62
     1
  6
CONTINUOUS
 10
5.8157
 20
7.0613
  0
VERTEX
  8
LAYER10
 62
     1
  6
CONTINUOUS
 10
5.8137
 20
7.0638
  0
VERTEX
  8
LAYER10
 62
     1
  6
CONTINUOUS
 10
5.8117
 20
7.0663
  0
VERTEX
  8
LAYER10
 62
     1
  6
CONTINUOUS
 10
5.8097
 20
7.0689
  0
VERTEX
  8
LAYER10
 62
     1
  6
CONTINUOUS
 10
5.8078
 20
7.0714
  0
VERTEX
  8
LAYER10
 62
     1
  6
CONTINUOUS
 10
5.8058
 20
7.0739
  0
VERTEX
  8
LAYER10
 62
     1
  6
CONTINUOUS
 10
5.8038
 20
7.0764
  0
VERTEX
  8
LAYER10
 62
     1
  6
CONTINUOUS
 10
5.8017
 20
7.0788
  0
VERTEX
  8
LAYER10
 62
     1
  6
CONTINUOUS
 10
5.7996
 20
7.0812
  0
VERTEX
  8
LAYER10
 62
     1
  6
CONTINUOUS
 10
5.7984
 20
7.0824
  0
VERTEX
  8
LAYER10
 62
     1
  6
CONTINUOUS
 10
5.7972
 20
7.0837
  0
VERTEX
  8
LAYER10
 62
     1
  6
CONTINUOUS
 10
5.7959
 20
7.0849
  0
VERTEX
  8
LAYER10
 62
     1
  6
CONTINUOUS
 10
5.7947
 20
7.0862
  0
VERTEX
  8
LAYER10
 62
     1
  6
CONTINUOUS
 10
5.7934
 20
7.0874
  0
VERTEX
  8
LAYER10
 62
     1
  6
CONTINUOUS
 10
5.7921
 20
7.0886
  0
VERTEX
  8
LAYER10
 62
     1
  6
CONTINUOUS
 10
5.7908
 20
7.0898
  0
VERTEX
  8
LAYER10
 62
     1
  6
CONTINUOUS
 10
5.7895
 20
7.0910
  0
VERTEX
  8
LAYER10
 62
     1
  6
CONTINUOUS
 10
5.7883
 20
7.0922
  0
VERTEX
  8
LAYER10
 62
     1
  6
CONTINUOUS
 10
5.7870
 20
7.0935
  0
VERTEX
  8
LAYER10
 62
     1
  6
CONTINUOUS
 10
5.7857
 20
7.0947
  0
VERTEX
  8
LAYER10
 62
     1
  6
CONTINUOUS
 10
5.7845
 20
7.0960
  0
VERTEX
  8
LAYER10
 62
     1
  6
CONTINUOUS
 10
5.7825
 20
7.0981
  0
VERTEX
  8
LAYER10
 62
     1
  6
CONTINUOUS
 10
5.7805
 20
7.1003
  0
VERTEX
  8
LAYER10
 62
     1
  6
CONTINUOUS
 10
5.7786
 20
7.1026
  0
VERTEX
  8
LAYER10
 62
     1
  6
CONTINUOUS
 10
5.7767
 20
7.1049
  0
VERTEX
  8
LAYER10
 62
     1
  6
CONTINUOUS
 10
5.7750
 20
7.1073
  0
VERTEX
  8
LAYER10
 62
     1
  6
CONTINUOUS
 10
5.7732
 20
7.1097
  0
VERTEX
  8
LAYER10
 62
     1
  6
CONTINUOUS
 10
5.7716
 20
7.1122
  0
VERTEX
  8
LAYER10
 62
     1
  6
CONTINUOUS
 10
5.7700
 20
7.1147
  0
VERTEX
  8
LAYER10
 62
     1
  6
CONTINUOUS
 10
5.7685
 20
7.1173
  0
VERTEX
  8
LAYER10
 62
     1
  6
CONTINUOUS
 10
5.7670
 20
7.1200
  0
VERTEX
  8
LAYER10
 62
     1
  6
CONTINUOUS
 10
5.7656
 20
7.1228
  0
VERTEX
  8
LAYER10
 62
     1
  6
CONTINUOUS
 10
5.7643
 20
7.1256
  0
VERTEX
  8
LAYER10
 62
     1
  6
CONTINUOUS
 10
5.7632
 20
7.1279
  0
VERTEX
  8
LAYER10
 62
     1
  6
CONTINUOUS
 10
5.7622
 20
7.1303
  0
VERTEX
  8
LAYER10
 62
     1
  6
CONTINUOUS
 10
5.7612
 20
7.1326
  0
VERTEX
  8
LAYER10
 62
     1
  6
CONTINUOUS
 10
5.7601
 20
7.1350
  0
VERTEX
  8
LAYER10
 62
     1
  6
CONTINUOUS
 10
5.7591
 20
7.1373
  0
VERTEX
  8
LAYER10
 62
     1
  6
CONTINUOUS
 10
5.7580
 20
7.1395
  0
VERTEX
  8
LAYER10
 62
     1
  6
CONTINUOUS
 10
5.7568
 20
7.1417
  0
VERTEX
  8
LAYER10
 62
     1
  6
CONTINUOUS
 10
5.7555
 20
7.1437
  0
VERTEX
  8
LAYER10
 62
     1
  6
CONTINUOUS
 10
5.7541
 20
7.1456
  0
VERTEX
  8
LAYER10
 62
     1
  6
CONTINUOUS
 10
5.7526
 20
7.1474
  0
VERTEX
  8
LAYER10
 62
     1
  6
CONTINUOUS
 10
5.7509
 20
7.1489
  0
VERTEX
  8
LAYER10
 62
     1
  6
CONTINUOUS
 10
5.7491
 20
7.1503
  0
VERTEX
  8
LAYER10
 62
     1
  6
CONTINUOUS
 10
5.7483
 20
7.1508
  0
VERTEX
  8
LAYER10
 62
     1
  6
CONTINUOUS
 10
5.7475
 20
7.1512
  0
VERTEX
  8
LAYER10
 62
     1
  6
CONTINUOUS
 10
5.7467
 20
7.1517
  0
VERTEX
  8
LAYER10
 62
     1
  6
CONTINUOUS
 10
5.7459
 20
7.1521
  0
VERTEX
  8
LAYER10
 62
     1
  6
CONTINUOUS
 10
5.7451
 20
7.1525
  0
VERTEX
  8
LAYER10
 62
     1
  6
CONTINUOUS
 10
5.7443
 20
7.1528
  0
VERTEX
  8
LAYER10
 62
     1
  6
CONTINUOUS
 10
5.7434
 20
7.1532
  0
VERTEX
  8
LAYER10
 62
     1
  6
CONTINUOUS
 10
5.7425
 20
7.1536
  0
VERTEX
  8
LAYER10
 62
     1
  6
CONTINUOUS
 10
5.7417
 20
7.1540
  0
VERTEX
  8
LAYER10
 62
     1
  6
CONTINUOUS
 10
5.7408
 20
7.1544
  0
VERTEX
  8
LAYER10
 62
     1
  6
CONTINUOUS
 10
5.7399
 20
7.1548
  0
VERTEX
  8
LAYER10
 62
     1
  6
CONTINUOUS
 10
5.7391
 20
7.1552
  0
VERTEX
  8
LAYER10
 62
     1
  6
CONTINUOUS
 10
5.7374
 20
7.1561
  0
VERTEX
  8
LAYER10
 62
     1
  6
CONTINUOUS
 10
5.7358
 20
7.1570
  0
VERTEX
  8
LAYER10
 62
     1
  6
CONTINUOUS
 10
5.7342
 20
7.1580
  0
VERTEX
  8
LAYER10
 62
     1
  6
CONTINUOUS
 10
5.7327
 20
7.1591
  0
VERTEX
  8
LAYER10
 62
     1
  6
CONTINUOUS
 10
5.7313
 20
7.1603
  0
VERTEX
  8
LAYER10
 62
     1
  6
CONTINUOUS
 10
5.7299
 20
7.1615
  0
VERTEX
  8
LAYER10
 62
     1
  6
CONTINUOUS
 10
5.7286
 20
7.1628
  0
VERTEX
  8
LAYER10
 62
     1
  6
CONTINUOUS
 10
5.7274
 20
7.1641
  0
VERTEX
  8
LAYER10
 62
     1
  6
CONTINUOUS
 10
5.7263
 20
7.1655
  0
VERTEX
  8
LAYER10
 62
     1
  6
CONTINUOUS
 10
5.7254
 20
7.1670
  0
VERTEX
  8
LAYER10
 62
     1
  6
CONTINUOUS
 10
5.7246
 20
7.1684
  0
VERTEX
  8
LAYER10
 62
     1
  6
CONTINUOUS
 10
5.7240
 20
7.1700
  0
VERTEX
  8
LAYER10
 62
     1
  6
CONTINUOUS
 10
5.7232
 20
7.1726
  0
VERTEX
  8
LAYER10
 62
     1
  6
CONTINUOUS
 10
5.7229
 20
7.1753
  0
VERTEX
  8
LAYER10
 62
     1
  6
CONTINUOUS
 10
5.7229
 20
7.1781
  0
VERTEX
  8
LAYER10
 62
     1
  6
CONTINUOUS
 10
5.7232
 20
7.1809
  0
VERTEX
  8
LAYER10
 62
     1
  6
CONTINUOUS
 10
5.7237
 20
7.1838
  0
VERTEX
  8
LAYER10
 62
     1
  6
CONTINUOUS
 10
5.7243
 20
7.1868
  0
VERTEX
  8
LAYER10
 62
     1
  6
CONTINUOUS
 10
5.7251
 20
7.1898
  0
VERTEX
  8
LAYER10
 62
     1
  6
CONTINUOUS
 10
5.7259
 20
7.1928
  0
VERTEX
  8
LAYER10
 62
     1
  6
CONTINUOUS
 10
5.7267
 20
7.1958
  0
VERTEX
  8
LAYER10
 62
     1
  6
CONTINUOUS
 10
5.7275
 20
7.1988
  0
VERTEX
  8
LAYER10
 62
     1
  6
CONTINUOUS
 10
5.7281
 20
7.2019
  0
VERTEX
  8
LAYER10
 62
     1
  6
CONTINUOUS
 10
5.7285
 20
7.2049
  0
VERTEX
  8
LAYER10
 62
     1
  6
CONTINUOUS
 10
5.7288
 20
7.2078
  0
VERTEX
  8
LAYER10
 62
     1
  6
CONTINUOUS
 10
5.7288
 20
7.2108
  0
VERTEX
  8
LAYER10
 62
     1
  6
CONTINUOUS
 10
5.7286
 20
7.2137
  0
VERTEX
  8
LAYER10
 62
     1
  6
CONTINUOUS
 10
5.7282
 20
7.2166
  0
VERTEX
  8
LAYER10
 62
     1
  6
CONTINUOUS
 10
5.7277
 20
7.2195
  0
VERTEX
  8
LAYER10
 62
     1
  6
CONTINUOUS
 10
5.7272
 20
7.2224
  0
VERTEX
  8
LAYER10
 62
     1
  6
CONTINUOUS
 10
5.7265
 20
7.2252
  0
VERTEX
  8
LAYER10
 62
     1
  6
CONTINUOUS
 10
5.7258
 20
7.2281
  0
VERTEX
  8
LAYER10
 62
     1
  6
CONTINUOUS
 10
5.7251
 20
7.2310
  0
VERTEX
  8
LAYER10
 62
     1
  6
CONTINUOUS
 10
5.7244
 20
7.2339
  0
VERTEX
  8
LAYER10
 62
     1
  6
CONTINUOUS
 10
5.7238
 20
7.2367
  0
VERTEX
  8
LAYER10
 62
     1
  6
CONTINUOUS
 10
5.7232
 20
7.2397
  0
VERTEX
  8
LAYER10
 62
     1
  6
CONTINUOUS
 10
5.7228
 20
7.2417
  0
VERTEX
  8
LAYER10
 62
     1
  6
CONTINUOUS
 10
5.7225
 20
7.2438
  0
VERTEX
  8
LAYER10
 62
     1
  6
CONTINUOUS
 10
5.7223
 20
7.2459
  0
VERTEX
  8
LAYER10
 62
     1
  6
CONTINUOUS
 10
5.7221
 20
7.2480
  0
VERTEX
  8
LAYER10
 62
     1
  6
CONTINUOUS
 10
5.7219
 20
7.2500
  0
VERTEX
  8
LAYER10
 62
     1
  6
CONTINUOUS
 10
5.7218
 20
7.2521
  0
VERTEX
  8
LAYER10
 62
     1
  6
CONTINUOUS
 10
5.7218
 20
7.2542
  0
VERTEX
  8
LAYER10
 62
     1
  6
CONTINUOUS
 10
5.7219
 20
7.2563
  0
VERTEX
  8
LAYER10
 62
     1
  6
CONTINUOUS
 10
5.7220
 20
7.2584
  0
VERTEX
  8
LAYER10
 62
     1
  6
CONTINUOUS
 10
5.7222
 20
7.2604
  0
VERTEX
  8
LAYER10
 62
     1
  6
CONTINUOUS
 10
5.7225
 20
7.2625
  0
VERTEX
  8
LAYER10
 62
     1
  6
CONTINUOUS
 10
5.7229
 20
7.2645
  0
VERTEX
  8
LAYER10
 62
     1
  6
CONTINUOUS
 10
5.7233
 20
7.2662
  0
VERTEX
  8
LAYER10
 62
     1
  6
CONTINUOUS
 10
5.7237
 20
7.2679
  0
VERTEX
  8
LAYER10
 62
     1
  6
CONTINUOUS
 10
5.7242
 20
7.2696
  0
VERTEX
  8
LAYER10
 62
     1
  6
CONTINUOUS
 10
5.7246
 20
7.2712
  0
VERTEX
  8
LAYER10
 62
     1
  6
CONTINUOUS
 10
5.7251
 20
7.2729
  0
VERTEX
  8
LAYER10
 62
     1
  6
CONTINUOUS
 10
5.7256
 20
7.2745
  0
VERTEX
  8
LAYER10
 62
     1
  6
CONTINUOUS
 10
5.7260
 20
7.2762
  0
VERTEX
  8
LAYER10
 62
     1
  6
CONTINUOUS
 10
5.7265
 20
7.2778
  0
VERTEX
  8
LAYER10
 62
     1
  6
CONTINUOUS
 10
5.7269
 20
7.2795
  0
VERTEX
  8
LAYER10
 62
     1
  6
CONTINUOUS
 10
5.7272
 20
7.2812
  0
VERTEX
  8
LAYER10
 62
     1
  6
CONTINUOUS
 10
5.7275
 20
7.2828
  0
VERTEX
  8
LAYER10
 62
     1
  6
CONTINUOUS
 10
5.7277
 20
7.2845
  0
VERTEX
  8
LAYER10
 62
     1
  6
CONTINUOUS
 10
5.7278
 20
7.2861
  0
VERTEX
  8
LAYER10
 62
     1
  6
CONTINUOUS
 10
5.7278
 20
7.2878
  0
VERTEX
  8
LAYER10
 62
     1
  6
CONTINUOUS
 10
5.7278
 20
7.2894
  0
VERTEX
  8
LAYER10
 62
     1
  6
CONTINUOUS
 10
5.7277
 20
7.2911
  0
VERTEX
  8
LAYER10
 62
     1
  6
CONTINUOUS
 10
5.7276
 20
7.2927
  0
VERTEX
  8
LAYER10
 62
     1
  6
CONTINUOUS
 10
5.7275
 20
7.2944
  0
VERTEX
  8
LAYER10
 62
     1
  6
CONTINUOUS
 10
5.7274
 20
7.2961
  0
VERTEX
  8
LAYER10
 62
     1
  6
CONTINUOUS
 10
5.7273
 20
7.2977
  0
VERTEX
  8
LAYER10
 62
     1
  6
CONTINUOUS
 10
5.7273
 20
7.2994
  0
VERTEX
  8
LAYER10
 62
     1
  6
CONTINUOUS
 10
5.7273
 20
7.3011
  0
VERTEX
  8
LAYER10
 62
     1
  6
CONTINUOUS
 10
5.7273
 20
7.3027
  0
VERTEX
  8
LAYER10
 62
     1
  6
CONTINUOUS
 10
5.7275
 20
7.3044
  0
VERTEX
  8
LAYER10
 62
     1
  6
CONTINUOUS
 10
5.7278
 20
7.3069
  0
VERTEX
  8
LAYER10
 62
     1
  6
CONTINUOUS
 10
5.7283
 20
7.3093
  0
VERTEX
  8
LAYER10
 62
     1
  6
CONTINUOUS
 10
5.7291
 20
7.3117
  0
VERTEX
  8
LAYER10
 62
     1
  6
CONTINUOUS
 10
5.7299
 20
7.3140
  0
VERTEX
  8
LAYER10
 62
     1
  6
CONTINUOUS
 10
5.7310
 20
7.3163
  0
VERTEX
  8
LAYER10
 62
     1
  6
CONTINUOUS
 10
5.7322
 20
7.3185
  0
VERTEX
  8
LAYER10
 62
     1
  6
CONTINUOUS
 10
5.7335
 20
7.3206
  0
VERTEX
  8
LAYER10
 62
     1
  6
CONTINUOUS
 10
5.7350
 20
7.3227
  0
VERTEX
  8
LAYER10
 62
     1
  6
CONTINUOUS
 10
5.7366
 20
7.3246
  0
VERTEX
  8
LAYER10
 62
     1
  6
CONTINUOUS
 10
5.7383
 20
7.3264
  0
VERTEX
  8
LAYER10
 62
     1
  6
CONTINUOUS
 10
5.7402
 20
7.3280
  0
VERTEX
  8
LAYER10
 62
     1
  6
CONTINUOUS
 10
5.7421
 20
7.3295
  0
VERTEX
  8
LAYER10
 62
     1
  6
CONTINUOUS
 10
5.7440
 20
7.3307
  0
VERTEX
  8
LAYER10
 62
     1
  6
CONTINUOUS
 10
5.7459
 20
7.3318
  0
VERTEX
  8
LAYER10
 62
     1
  6
CONTINUOUS
 10
5.7479
 20
7.3328
  0
VERTEX
  8
LAYER10
 62
     1
  6
CONTINUOUS
 10
5.7500
 20
7.3337
  0
VERTEX
  8
LAYER10
 62
     1
  6
CONTINUOUS
 10
5.7520
 20
7.3345
  0
VERTEX
  8
LAYER10
 62
     1
  6
CONTINUOUS
 10
5.7542
 20
7.3352
  0
VERTEX
  8
LAYER10
 62
     1
  6
CONTINUOUS
 10
5.7563
 20
7.3360
  0
VERTEX
  8
LAYER10
 62
     1
  6
CONTINUOUS
 10
5.7584
 20
7.3367
  0
VERTEX
  8
LAYER10
 62
     1
  6
CONTINUOUS
 10
5.7606
 20
7.3374
  0
VERTEX
  8
LAYER10
 62
     1
  6
CONTINUOUS
 10
5.7627
 20
7.3381
  0
VERTEX
  8
LAYER10
 62
     1
  6
CONTINUOUS
 10
5.7648
 20
7.3389
  0
VERTEX
  8
LAYER10
 62
     1
  6
CONTINUOUS
 10
5.7669
 20
7.3397
  0
VERTEX
  8
LAYER10
 62
     1
  6
CONTINUOUS
 10
5.7686
 20
7.3404
  0
VERTEX
  8
LAYER10
 62
     1
  6
CONTINUOUS
 10
5.7703
 20
7.3412
  0
VERTEX
  8
LAYER10
 62
     1
  6
CONTINUOUS
 10
5.7719
 20
7.3421
  0
VERTEX
  8
LAYER10
 62
     1
  6
CONTINUOUS
 10
5.7735
 20
7.3429
  0
VERTEX
  8
LAYER10
 62
     1
  6
CONTINUOUS
 10
5.7752
 20
7.3438
  0
VERTEX
  8
LAYER10
 62
     1
  6
CONTINUOUS
 10
5.7768
 20
7.3447
  0
VERTEX
  8
LAYER10
 62
     1
  6
CONTINUOUS
 10
5.7784
 20
7.3456
  0
VERTEX
  8
LAYER10
 62
     1
  6
CONTINUOUS
 10
5.7800
 20
7.3465
  0
VERTEX
  8
LAYER10
 62
     1
  6
CONTINUOUS
 10
5.7817
 20
7.3473
  0
VERTEX
  8
LAYER10
 62
     1
  6
CONTINUOUS
 10
5.7833
 20
7.3482
  0
VERTEX
  8
LAYER10
 62
     1
  6
CONTINUOUS
 10
5.7850
 20
7.3491
  0
VERTEX
  8
LAYER10
 62
     1
  6
CONTINUOUS
 10
5.7867
 20
7.3499
  0
VERTEX
  8
LAYER10
 62
     1
  6
CONTINUOUS
 10
5.7884
 20
7.3507
  0
VERTEX
  8
LAYER10
 62
     1
  6
CONTINUOUS
 10
5.7901
 20
7.3514
  0
VERTEX
  8
LAYER10
 62
     1
  6
CONTINUOUS
 10
5.7919
 20
7.3521
  0
VERTEX
  8
LAYER10
 62
     1
  6
CONTINUOUS
 10
5.7936
 20
7.3529
  0
VERTEX
  8
LAYER10
 62
     1
  6
CONTINUOUS
 10
5.7954
 20
7.3536
  0
VERTEX
  8
LAYER10
 62
     1
  6
CONTINUOUS
 10
5.7971
 20
7.3544
  0
VERTEX
  8
LAYER10
 62
     1
  6
CONTINUOUS
 10
5.7988
 20
7.3552
  0
VERTEX
  8
LAYER10
 62
     1
  6
CONTINUOUS
 10
5.8004
 20
7.3560
  0
VERTEX
  8
LAYER10
 62
     1
  6
CONTINUOUS
 10
5.8020
 20
7.3569
  0
VERTEX
  8
LAYER10
 62
     1
  6
CONTINUOUS
 10
5.8036
 20
7.3579
  0
VERTEX
  8
LAYER10
 62
     1
  6
CONTINUOUS
 10
5.8051
 20
7.3589
  0
VERTEX
  8
LAYER10
 62
     1
  6
CONTINUOUS
 10
5.8065
 20
7.3601
  0
VERTEX
  8
LAYER10
 62
     1
  6
CONTINUOUS
 10
5.8073
 20
7.3608
  0
VERTEX
  8
LAYER10
 62
     1
  6
CONTINUOUS
 10
5.8082
 20
7.3616
  0
VERTEX
  8
LAYER10
 62
     1
  6
CONTINUOUS
 10
5.8090
 20
7.3625
  0
VERTEX
  8
LAYER10
 62
     1
  6
CONTINUOUS
 10
5.8098
 20
7.3633
  0
VERTEX
  8
LAYER10
 62
     1
  6
CONTINUOUS
 10
5.8105
 20
7.3642
  0
VERTEX
  8
LAYER10
 62
     1
  6
CONTINUOUS
 10
5.8113
 20
7.3651
  0
VERTEX
  8
LAYER10
 62
     1
  6
CONTINUOUS
 10
5.8121
 20
7.3660
  0
VERTEX
  8
LAYER10
 62
     1
  6
CONTINUOUS
 10
5.8129
 20
7.3668
  0
VERTEX
  8
LAYER10
 62
     1
  6
CONTINUOUS
 10
5.8137
 20
7.3677
  0
VERTEX
  8
LAYER10
 62
     1
  6
CONTINUOUS
 10
5.8146
 20
7.3685
  0
VERTEX
  8
LAYER10
 62
     1
  6
CONTINUOUS
 10
5.8154
 20
7.3693
  0
VERTEX
  8
LAYER10
 62
     1
  6
CONTINUOUS
 10
5.8163
 20
7.3701
  0
VERTEX
  8
LAYER10
 62
     1
  6
CONTINUOUS
 10
5.8181
 20
7.3714
  0
VERTEX
  8
LAYER10
 62
     1
  6
CONTINUOUS
 10
5.8200
 20
7.3726
  0
VERTEX
  8
LAYER10
 62
     1
  6
CONTINUOUS
 10
5.8220
 20
7.3736
  0
VERTEX
  8
LAYER10
 62
     1
  6
CONTINUOUS
 10
5.8240
 20
7.3744
  0
VERTEX
  8
LAYER10
 62
     1
  6
CONTINUOUS
 10
5.8262
 20
7.3752
  0
VERTEX
  8
LAYER10
 62
     1
  6
CONTINUOUS
 10
5.8283
 20
7.3757
  0
VERTEX
  8
LAYER10
 62
     1
  6
CONTINUOUS
 10
5.8305
 20
7.3761
  0
VERTEX
  8
LAYER10
 62
     1
  6
CONTINUOUS
 10
5.8327
 20
7.3763
  0
VERTEX
  8
LAYER10
 62
     1
  6
CONTINUOUS
 10
5.8349
 20
7.3763
  0
VERTEX
  8
LAYER10
 62
     1
  6
CONTINUOUS
 10
5.8371
 20
7.3762
  0
VERTEX
  8
LAYER10
 62
     1
  6
CONTINUOUS
 10
5.8392
 20
7.3759
  0
VERTEX
  8
LAYER10
 62
     1
  6
CONTINUOUS
 10
5.8412
 20
7.3754
  0
SEQEND
  8
LAYER10
  0
POLYLINE
  8
LAYER10
 62
     1
 66
     1
  6
HIDDEN
  0
VERTEX
  8
LAYER10
 62
     1
  6
HIDDEN
 10
5.2892
 20
7.3195
  0
VERTEX
  8
LAYER10
 62
     1
  6
HIDDEN
 10
5.2919
 20
7.3204
  0
VERTEX
  8
LAYER10
 62
     1
  6
HIDDEN
 10
5.2948
 20
7.3211
  0
VERTEX
  8
LAYER10
 62
     1
  6
HIDDEN
 10
5.2977
 20
7.3217
  0
VERTEX
  8
LAYER10
 62
     1
  6
HIDDEN
 10
5.3006
 20
7.3221
  0
VERTEX
  8
LAYER10
 62
     1
  6
HIDDEN
 10
5.3035
 20
7.3223
  0
VERTEX
  8
LAYER10
 62
     1
  6
HIDDEN
 10
5.3065
 20
7.3224
  0
VERTEX
  8
LAYER10
 62
     1
  6
HIDDEN
 10
5.3095
 20
7.3223
  0
VERTEX
  8
LAYER10
 62
     1
  6
HIDDEN
 10
5.3125
 20
7.3221
  0
VERTEX
  8
LAYER10
 62
     1
  6
HIDDEN
 10
5.3154
 20
7.3218
  0
VERTEX
  8
LAYER10
 62
     1
  6
HIDDEN
 10
5.3183
 20
7.3213
  0
VERTEX
  8
LAYER10
 62
     1
  6
HIDDEN
 10
5.3212
 20
7.3206
  0
VERTEX
  8
LAYER10
 62
     1
  6
HIDDEN
 10
5.3240
 20
7.3199
  0
VERTEX
  8
LAYER10
 62
     1
  6
HIDDEN
 10
5.3262
 20
7.3192
  0
VERTEX
  8
LAYER10
 62
     1
  6
HIDDEN
 10
5.3283
 20
7.3184
  0
VERTEX
  8
LAYER10
 62
     1
  6
HIDDEN
 10
5.3303
 20
7.3176
  0
VERTEX
  8
LAYER10
 62
     1
  6
HIDDEN
 10
5.3324
 20
7.3168
  0
VERTEX
  8
LAYER10
 62
     1
  6
HIDDEN
 10
5.3344
 20
7.3159
  0
VERTEX
  8
LAYER10
 62
     1
  6
HIDDEN
 10
5.3365
 20
7.3150
  0
VERTEX
  8
LAYER10
 62
     1
  6
HIDDEN
 10
5.3385
 20
7.3141
  0
VERTEX
  8
LAYER10
 62
     1
  6
HIDDEN
 10
5.3406
 20
7.3133
  0
VERTEX
  8
LAYER10
 62
     1
  6
HIDDEN
 10
5.3426
 20
7.3124
  0
VERTEX
  8
LAYER10
 62
     1
  6
HIDDEN
 10
5.3447
 20
7.3116
  0
VERTEX
  8
LAYER10
 62
     1
  6
HIDDEN
 10
5.3469
 20
7.3109
  0
VERTEX
  8
LAYER10
 62
     1
  6
HIDDEN
 10
5.3490
 20
7.3102
  0
VERTEX
  8
LAYER10
 62
     1
  6
HIDDEN
 10
5.3503
 20
7.3098
  0
VERTEX
  8
LAYER10
 62
     1
  6
HIDDEN
 10
5.3516
 20
7.3095
  0
VERTEX
  8
LAYER10
 62
     1
  6
HIDDEN
 10
5.3529
 20
7.3092
  0
VERTEX
  8
LAYER10
 62
     1
  6
HIDDEN
 10
5.3543
 20
7.3088
  0
VERTEX
  8
LAYER10
 62
     1
  6
HIDDEN
 10
5.3556
 20
7.3085
  0
VERTEX
  8
LAYER10
 62
     1
  6
HIDDEN
 10
5.3569
 20
7.3082
  0
VERTEX
  8
LAYER10
 62
     1
  6
HIDDEN
 10
5.3581
 20
7.3078
  0
VERTEX
  8
LAYER10
 62
     1
  6
HIDDEN
 10
5.3594
 20
7.3074
  0
VERTEX
  8
LAYER10
 62
     1
  6
HIDDEN
 10
5.3606
 20
7.3070
  0
VERTEX
  8
LAYER10
 62
     1
  6
HIDDEN
 10
5.3618
 20
7.3065
  0
VERTEX
  8
LAYER10
 62
     1
  6
HIDDEN
 10
5.3629
 20
7.3060
  0
VERTEX
  8
LAYER10
 62
     1
  6
HIDDEN
 10
5.3640
 20
7.3054
  0
VERTEX
  8
LAYER10
 62
     1
  6
HIDDEN
 10
5.3659
 20
7.3041
  0
VERTEX
  8
LAYER10
 62
     1
  6
HIDDEN
 10
5.3676
 20
7.3026
  0
VERTEX
  8
LAYER10
 62
     1
  6
HIDDEN
 10
5.3692
 20
7.3009
  0
VERTEX
  8
LAYER10
 62
     1
  6
HIDDEN
 10
5.3706
 20
7.2991
  0
VERTEX
  8
LAYER10
 62
     1
  6
HIDDEN
 10
5.3719
 20
7.2970
  0
VERTEX
  8
LAYER10
 62
     1
  6
HIDDEN
 10
5.3731
 20
7.2949
  0
VERTEX
  8
LAYER10
 62
     1
  6
HIDDEN
 10
5.3743
 20
7.2926
  0
VERTEX
  8
LAYER10
 62
     1
  6
HIDDEN
 10
5.3753
 20
7.2903
  0
VERTEX
  8
LAYER10
 62
     1
  6
HIDDEN
 10
5.3763
 20
7.2879
  0
VERTEX
  8
LAYER10
 62
     1
  6
HIDDEN
 10
5.3773
 20
7.2855
  0
VERTEX
  8
LAYER10
 62
     1
  6
HIDDEN
 10
5.3783
 20
7.2831
  0
VERTEX
  8
LAYER10
 62
     1
  6
HIDDEN
 10
5.3792
 20
7.2807
  0
VERTEX
  8
LAYER10
 62
     1
  6
HIDDEN
 10
5.3806
 20
7.2774
  0
VERTEX
  8
LAYER10
 62
     1
  6
HIDDEN
 10
5.3820
 20
7.2742
  0
VERTEX
  8
LAYER10
 62
     1
  6
HIDDEN
 10
5.3834
 20
7.2710
  0
VERTEX
  8
LAYER10
 62
     1
  6
HIDDEN
 10
5.3849
 20
7.2679
  0
VERTEX
  8
LAYER10
 62
     1
  6
HIDDEN
 10
5.3864
 20
7.2649
  0
VERTEX
  8
LAYER10
 62
     1
  6
HIDDEN
 10
5.3880
 20
7.2620
  0
VERTEX
  8
LAYER10
 62
     1
  6
HIDDEN
 10
5.3897
 20
7.2592
  0
VERTEX
  8
LAYER10
 62
     1
  6
HIDDEN
 10
5.3915
 20
7.2564
  0
VERTEX
  8
LAYER10
 62
     1
  6
HIDDEN
 10
5.3933
 20
7.2537
  0
VERTEX
  8
LAYER10
 62
     1
  6
HIDDEN
 10
5.3953
 20
7.2510
  0
VERTEX
  8
LAYER10
 62
     1
  6
HIDDEN
 10
5.3973
 20
7.2485
  0
VERTEX
  8
LAYER10
 62
     1
  6
HIDDEN
 10
5.3995
 20
7.2460
  0
VERTEX
  8
LAYER10
 62
     1
  6
HIDDEN
 10
5.4007
 20
7.2448
  0
VERTEX
  8
LAYER10
 62
     1
  6
HIDDEN
 10
5.4019
 20
7.2435
  0
VERTEX
  8
LAYER10
 62
     1
  6
HIDDEN
 10
5.4032
 20
7.2423
  0
VERTEX
  8
LAYER10
 62
     1
  6
HIDDEN
 10
5.4044
 20
7.2411
  0
VERTEX
  8
LAYER10
 62
     1
  6
HIDDEN
 10
5.4057
 20
7.2398
  0
VERTEX
  8
LAYER10
 62
     1
  6
HIDDEN
 10
5.4070
 20
7.2386
  0
VERTEX
  8
LAYER10
 62
     1
  6
HIDDEN
 10
5.4083
 20
7.2374
  0
VERTEX
  8
LAYER10
 62
     1
  6
HIDDEN
 10
5.4096
 20
7.2362
  0
VERTEX
  8
LAYER10
 62
     1
  6
HIDDEN
 10
5.4109
 20
7.2350
  0
VERTEX
  8
LAYER10
 62
     1
  6
HIDDEN
 10
5.4121
 20
7.2338
  0
VERTEX
  8
LAYER10
 62
     1
  6
HIDDEN
 10
5.4134
 20
7.2325
  0
VERTEX
  8
LAYER10
 62
     1
  6
HIDDEN
 10
5.4146
 20
7.2313
  0
VERTEX
  8
LAYER10
 62
     1
  6
HIDDEN
 10
5.4167
 20
7.2291
  0
VERTEX
  8
LAYER10
 62
     1
  6
HIDDEN
 10
5.4186
 20
7.2268
  0
VERTEX
  8
LAYER10
 62
     1
  6
HIDDEN
 10
5.4206
 20
7.2245
  0
VERTEX
  8
LAYER10
 62
     1
  6
HIDDEN
 10
5.4224
 20
7.2222
  0
VERTEX
  8
LAYER10
 62
     1
  6
HIDDEN
 10
5.4242
 20
7.2198
  0
VERTEX
  8
LAYER10
 62
     1
  6
HIDDEN
 10
5.4259
 20
7.2173
  0
VERTEX
  8
LAYER10
 62
     1
  6
HIDDEN
 10
5.4275
 20
7.2148
  0
VERTEX
  8
LAYER10
 62
     1
  6
HIDDEN
 10
5.4291
 20
7.2123
  0
VERTEX
  8
LAYER10
 62
     1
  6
HIDDEN
 10
5.4306
 20
7.2097
  0
VERTEX
  8
LAYER10
 62
     1
  6
HIDDEN
 10
5.4321
 20
7.2070
  0
VERTEX
  8
LAYER10
 62
     1
  6
HIDDEN
 10
5.4335
 20
7.2043
  0
VERTEX
  8
LAYER10
 62
     1
  6
HIDDEN
 10
5.4349
 20
7.2016
  0
VERTEX
  8
LAYER10
 62
     1
  6
HIDDEN
 10
5.4354
 20
7.2004
  0
VERTEX
  8
LAYER10
 62
     1
  6
HIDDEN
 10
5.4360
 20
7.1992
  0
VERTEX
  8
LAYER10
 62
     1
  6
HIDDEN
 10
5.4365
 20
7.1980
  0
VERTEX
  8
LAYER10
 62
     1
  6
HIDDEN
 10
5.4371
 20
7.1968
  0
VERTEX
  8
LAYER10
 62
     1
  6
HIDDEN
 10
5.4376
 20
7.1955
  0
VERTEX
  8
LAYER10
 62
     1
  6
HIDDEN
 10
5.4380
 20
7.1943
  0
VERTEX
  8
LAYER10
 62
     1
  6
HIDDEN
 10
5.4385
 20
7.1931
  0
VERTEX
  8
LAYER10
 62
     1
  6
HIDDEN
 10
5.4389
 20
7.1918
  0
VERTEX
  8
LAYER10
 62
     1
  6
HIDDEN
 10
5.4392
 20
7.1906
  0
VERTEX
  8
LAYER10
 62
     1
  6
HIDDEN
 10
5.4395
 20
7.1893
  0
VERTEX
  8
LAYER10
 62
     1
  6
HIDDEN
 10
5.4398
 20
7.1880
  0
VERTEX
  8
LAYER10
 62
     1
  6
HIDDEN
 10
5.4400
 20
7.1867
  0
VERTEX
  8
LAYER10
 62
     1
  6
HIDDEN
 10
5.4401
 20
7.1855
  0
VERTEX
  8
LAYER10
 62
     1
  6
HIDDEN
 10
5.4402
 20
7.1843
  0
VERTEX
  8
LAYER10
 62
     1
  6
HIDDEN
 10
5.4403
 20
7.1831
  0
VERTEX
  8
LAYER10
 62
     1
  6
HIDDEN
 10
5.4403
 20
7.1818
  0
VERTEX
  8
LAYER10
 62
     1
  6
HIDDEN
 10
5.4403
 20
7.1806
  0
VERTEX
  8
LAYER10
 62
     1
  6
HIDDEN
 10
5.4403
 20
7.1794
  0
VERTEX
  8
LAYER10
 62
     1
  6
HIDDEN
 10
5.4403
 20
7.1781
  0
VERTEX
  8
LAYER10
 62
     1
  6
HIDDEN
 10
5.4402
 20
7.1769
  0
VERTEX
  8
LAYER10
 62
     1
  6
HIDDEN
 10
5.4402
 20
7.1756
  0
VERTEX
  8
LAYER10
 62
     1
  6
HIDDEN
 10
5.4402
 20
7.1743
  0
VERTEX
  8
LAYER10
 62
     1
  6
HIDDEN
 10
5.4402
 20
7.1731
  0
VERTEX
  8
LAYER10
 62
     1
  6
HIDDEN
 10
5.4402
 20
7.1718
  0
VERTEX
  8
LAYER10
 62
     1
  6
HIDDEN
 10
5.4402
 20
7.1701
  0
VERTEX
  8
LAYER10
 62
     1
  6
HIDDEN
 10
5.4403
 20
7.1684
  0
VERTEX
  8
LAYER10
 62
     1
  6
HIDDEN
 10
5.4404
 20
7.1667
  0
VERTEX
  8
LAYER10
 62
     1
  6
HIDDEN
 10
5.4405
 20
7.1650
  0
VERTEX
  8
LAYER10
 62
     1
  6
HIDDEN
 10
5.4406
 20
7.1633
  0
VERTEX
  8
LAYER10
 62
     1
  6
HIDDEN
 10
5.4407
 20
7.1616
  0
VERTEX
  8
LAYER10
 62
     1
  6
HIDDEN
 10
5.4408
 20
7.1600
  0
VERTEX
  8
LAYER10
 62
     1
  6
HIDDEN
 10
5.4408
 20
7.1583
  0
VERTEX
  8
LAYER10
 62
     1
  6
HIDDEN
 10
5.4408
 20
7.1567
  0
VERTEX
  8
LAYER10
 62
     1
  6
HIDDEN
 10
5.4407
 20
7.1551
  0
VERTEX
  8
LAYER10
 62
     1
  6
HIDDEN
 10
5.4406
 20
7.1535
  0
VERTEX
  8
LAYER10
 62
     1
  6
HIDDEN
 10
5.4404
 20
7.1519
  0
VERTEX
  8
LAYER10
 62
     1
  6
HIDDEN
 10
5.4396
 20
7.1486
  0
VERTEX
  8
LAYER10
 62
     1
  6
HIDDEN
 10
5.4384
 20
7.1455
  0
VERTEX
  8
LAYER10
 62
     1
  6
HIDDEN
 10
5.4369
 20
7.1424
  0
VERTEX
  8
LAYER10
 62
     1
  6
HIDDEN
 10
5.4350
 20
7.1394
  0
VERTEX
  8
LAYER10
 62
     1
  6
HIDDEN
 10
5.4330
 20
7.1365
  0
VERTEX
  8
LAYER10
 62
     1
  6
HIDDEN
 10
5.4307
 20
7.1337
  0
VERTEX
  8
LAYER10
 62
     1
  6
HIDDEN
 10
5.4283
 20
7.1308
  0
VERTEX
  8
LAYER10
 62
     1
  6
HIDDEN
 10
5.4258
 20
7.1281
  0
VERTEX
  8
LAYER10
 62
     1
  6
HIDDEN
 10
5.4233
 20
7.1253
  0
VERTEX
  8
LAYER10
 62
     1
  6
HIDDEN
 10
5.4207
 20
7.1225
  0
VERTEX
  8
LAYER10
 62
     1
  6
HIDDEN
 10
5.4182
 20
7.1196
  0
VERTEX
  8
LAYER10
 62
     1
  6
HIDDEN
 10
5.4159
 20
7.1168
  0
VERTEX
  8
LAYER10
 62
     1
  6
HIDDEN
 10
5.4140
 20
7.1143
  0
VERTEX
  8
LAYER10
 62
     1
  6
HIDDEN
 10
5.4122
 20
7.1119
  0
VERTEX
  8
LAYER10
 62
     1
  6
HIDDEN
 10
5.4105
 20
7.1094
  0
VERTEX
  8
LAYER10
 62
     1
  6
HIDDEN
 10
5.4089
 20
7.1068
  0
VERTEX
  8
LAYER10
 62
     1
  6
HIDDEN
 10
5.4073
 20
7.1043
  0
VERTEX
  8
LAYER10
 62
     1
  6
HIDDEN
 10
5.4058
 20
7.1017
  0
VERTEX
  8
LAYER10
 62
     1
  6
HIDDEN
 10
5.4042
 20
7.0992
  0
VERTEX
  8
LAYER10
 62
     1
  6
HIDDEN
 10
5.4027
 20
7.0966
  0
VERTEX
  8
LAYER10
 62
     1
  6
HIDDEN
 10
5.4012
 20
7.0941
  0
VERTEX
  8
LAYER10
 62
     1
  6
HIDDEN
 10
5.3996
 20
7.0916
  0
VERTEX
  8
LAYER10
 62
     1
  6
HIDDEN
 10
5.3980
 20
7.0891
  0
VERTEX
  8
LAYER10
 62
     1
  6
HIDDEN
 10
5.3963
 20
7.0867
  0
VERTEX
  8
LAYER10
 62
     1
  6
HIDDEN
 10
5.3949
 20
7.0848
  0
VERTEX
  8
LAYER10
 62
     1
  6
HIDDEN
 10
5.3935
 20
7.0829
  0
VERTEX
  8
LAYER10
 62
     1
  6
HIDDEN
 10
5.3921
 20
7.0811
  0
VERTEX
  8
LAYER10
 62
     1
  6
HIDDEN
 10
5.3905
 20
7.0793
  0
VERTEX
  8
LAYER10
 62
     1
  6
HIDDEN
 10
5.3890
 20
7.0776
  0
VERTEX
  8
LAYER10
 62
     1
  6
HIDDEN
 10
5.3874
 20
7.0759
  0
VERTEX
  8
LAYER10
 62
     1
  6
HIDDEN
 10
5.3857
 20
7.0742
  0
VERTEX
  8
LAYER10
 62
     1
  6
HIDDEN
 10
5.3840
 20
7.0726
  0
VERTEX
  8
LAYER10
 62
     1
  6
HIDDEN
 10
5.3822
 20
7.0710
  0
VERTEX
  8
LAYER10
 62
     1
  6
HIDDEN
 10
5.3804
 20
7.0694
  0
VERTEX
  8
LAYER10
 62
     1
  6
HIDDEN
 10
5.3785
 20
7.0680
  0
VERTEX
  8
LAYER10
 62
     1
  6
HIDDEN
 10
5.3766
 20
7.0666
  0
VERTEX
  8
LAYER10
 62
     1
  6
HIDDEN
 10
5.3747
 20
7.0653
  0
VERTEX
  8
LAYER10
 62
     1
  6
HIDDEN
 10
5.3728
 20
7.0641
  0
VERTEX
  8
LAYER10
 62
     1
  6
HIDDEN
 10
5.3708
 20
7.0629
  0
VERTEX
  8
LAYER10
 62
     1
  6
HIDDEN
 10
5.3688
 20
7.0618
  0
VERTEX
  8
LAYER10
 62
     1
  6
HIDDEN
 10
5.3668
 20
7.0608
  0
VERTEX
  8
LAYER10
 62
     1
  6
HIDDEN
 10
5.3647
 20
7.0599
  0
VERTEX
  8
LAYER10
 62
     1
  6
HIDDEN
 10
5.3626
 20
7.0590
  0
VERTEX
  8
LAYER10
 62
     1
  6
HIDDEN
 10
5.3605
 20
7.0583
  0
VERTEX
  8
LAYER10
 62
     1
  6
HIDDEN
 10
5.3583
 20
7.0576
  0
VERTEX
  8
LAYER10
 62
     1
  6
HIDDEN
 10
5.3562
 20
7.0571
  0
VERTEX
  8
LAYER10
 62
     1
  6
HIDDEN
 10
5.3540
 20
7.0566
  0
VERTEX
  8
LAYER10
 62
     1
  6
HIDDEN
 10
5.3518
 20
7.0563
  0
VERTEX
  8
LAYER10
 62
     1
  6
HIDDEN
 10
5.3502
 20
7.0562
  0
VERTEX
  8
LAYER10
 62
     1
  6
HIDDEN
 10
5.3486
 20
7.0561
  0
VERTEX
  8
LAYER10
 62
     1
  6
HIDDEN
 10
5.3469
 20
7.0560
  0
VERTEX
  8
LAYER10
 62
     1
  6
HIDDEN
 10
5.3453
 20
7.0560
  0
VERTEX
  8
LAYER10
 62
     1
  6
HIDDEN
 10
5.3437
 20
7.0560
  0
VERTEX
  8
LAYER10
 62
     1
  6
HIDDEN
 10
5.3420
 20
7.0560
  0
VERTEX
  8
LAYER10
 62
     1
  6
HIDDEN
 10
5.3404
 20
7.0561
  0
VERTEX
  8
LAYER10
 62
     1
  6
HIDDEN
 10
5.3387
 20
7.0561
  0
VERTEX
  8
LAYER10
 62
     1
  6
HIDDEN
 10
5.3370
 20
7.0562
  0
VERTEX
  8
LAYER10
 62
     1
  6
HIDDEN
 10
5.3353
 20
7.0562
  0
VERTEX
  8
LAYER10
 62
     1
  6
HIDDEN
 10
5.3336
 20
7.0562
  0
VERTEX
  8
LAYER10
 62
     1
  6
HIDDEN
 10
5.3319
 20
7.0561
  0
VERTEX
  8
LAYER10
 62
     1
  6
HIDDEN
 10
5.3272
 20
7.0558
  0
VERTEX
  8
LAYER10
 62
     1
  6
HIDDEN
 10
5.3223
 20
7.0551
  0
VERTEX
  8
LAYER10
 62
     1
  6
HIDDEN
 10
5.3174
 20
7.0544
  0
VERTEX
  8
LAYER10
 62
     1
  6
HIDDEN
 10
5.3126
 20
7.0535
  0
VERTEX
  8
LAYER10
 62
     1
  6
HIDDEN
 10
5.3077
 20
7.0527
  0
VERTEX
  8
LAYER10
 62
     1
  6
HIDDEN
 10
5.3029
 20
7.0520
  0
VERTEX
  8
LAYER10
 62
     1
  6
HIDDEN
 10
5.2982
 20
7.0515
  0
VERTEX
  8
LAYER10
 62
     1
  6
HIDDEN
 10
5.2937
 20
7.0513
  0
VERTEX
  8
LAYER10
 62
     1
  6
HIDDEN
 10
5.2892
 20
7.0515
  0
VERTEX
  8
LAYER10
 62
     1
  6
HIDDEN
 10
5.2850
 20
7.0522
  0
VERTEX
  8
LAYER10
 62
     1
  6
HIDDEN
 10
5.2809
 20
7.0535
  0
VERTEX
  8
LAYER10
 62
     1
  6
HIDDEN
 10
5.2772
 20
7.0555
  0
VERTEX
  8
LAYER10
 62
     1
  6
HIDDEN
 10
5.2762
 20
7.0561
  0
VERTEX
  8
LAYER10
 62
     1
  6
HIDDEN
 10
5.2753
 20
7.0568
  0
VERTEX
  8
LAYER10
 62
     1
  6
HIDDEN
 10
5.2744
 20
7.0575
  0
VERTEX
  8
LAYER10
 62
     1
  6
HIDDEN
 10
5.2736
 20
7.0583
  0
VERTEX
  8
LAYER10
 62
     1
  6
HIDDEN
 10
5.2727
 20
7.0591
  0
VERTEX
  8
LAYER10
 62
     1
  6
HIDDEN
 10
5.2718
 20
7.0599
  0
VERTEX
  8
LAYER10
 62
     1
  6
HIDDEN
 10
5.2710
 20
7.0608
  0
VERTEX
  8
LAYER10
 62
     1
  6
HIDDEN
 10
5.2702
 20
7.0617
  0
VERTEX
  8
LAYER10
 62
     1
  6
HIDDEN
 10
5.2694
 20
7.0626
  0
VERTEX
  8
LAYER10
 62
     1
  6
HIDDEN
 10
5.2686
 20
7.0635
  0
VERTEX
  8
LAYER10
 62
     1
  6
HIDDEN
 10
5.2679
 20
7.0644
  0
VERTEX
  8
LAYER10
 62
     1
  6
HIDDEN
 10
5.2671
 20
7.0654
  0
VERTEX
  8
LAYER10
 62
     1
  6
HIDDEN
 10
5.2656
 20
7.0673
  0
VERTEX
  8
LAYER10
 62
     1
  6
HIDDEN
 10
5.2641
 20
7.0693
  0
VERTEX
  8
LAYER10
 62
     1
  6
HIDDEN
 10
5.2627
 20
7.0713
  0
VERTEX
  8
LAYER10
 62
     1
  6
HIDDEN
 10
5.2613
 20
7.0733
  0
VERTEX
  8
LAYER10
 62
     1
  6
HIDDEN
 10
5.2600
 20
7.0753
  0
VERTEX
  8
LAYER10
 62
     1
  6
HIDDEN
 10
5.2588
 20
7.0774
  0
VERTEX
  8
LAYER10
 62
     1
  6
HIDDEN
 10
5.2575
 20
7.0795
  0
VERTEX
  8
LAYER10
 62
     1
  6
HIDDEN
 10
5.2563
 20
7.0815
  0
VERTEX
  8
LAYER10
 62
     1
  6
HIDDEN
 10
5.2552
 20
7.0836
  0
VERTEX
  8
LAYER10
 62
     1
  6
HIDDEN
 10
5.2541
 20
7.0858
  0
VERTEX
  8
LAYER10
 62
     1
  6
HIDDEN
 10
5.2530
 20
7.0879
  0
VERTEX
  8
LAYER10
 62
     1
  6
HIDDEN
 10
5.2519
 20
7.0901
  0
VERTEX
  8
LAYER10
 62
     1
  6
HIDDEN
 10
5.2511
 20
7.0917
  0
VERTEX
  8
LAYER10
 62
     1
  6
HIDDEN
 10
5.2503
 20
7.0934
  0
VERTEX
  8
LAYER10
 62
     1
  6
HIDDEN
 10
5.2495
 20
7.0951
  0
VERTEX
  8
LAYER10
 62
     1
  6
HIDDEN
 10
5.2487
 20
7.0968
  0
VERTEX
  8
LAYER10
 62
     1
  6
HIDDEN
 10
5.2479
 20
7.0985
  0
VERTEX
  8
LAYER10
 62
     1
  6
HIDDEN
 10
5.2471
 20
7.1001
  0
VERTEX
  8
LAYER10
 62
     1
  6
HIDDEN
 10
5.2463
 20
7.1018
  0
VERTEX
  8
LAYER10
 62
     1
  6
HIDDEN
 10
5.2455
 20
7.1034
  0
VERTEX
  8
LAYER10
 62
     1
  6
HIDDEN
 10
5.2446
 20
7.1051
  0
VERTEX
  8
LAYER10
 62
     1
  6
HIDDEN
 10
5.2437
 20
7.1067
  0
VERTEX
  8
LAYER10
 62
     1
  6
HIDDEN
 10
5.2427
 20
7.1083
  0
VERTEX
  8
LAYER10
 62
     1
  6
HIDDEN
 10
5.2417
 20
7.1099
  0
VERTEX
  8
LAYER10
 62
     1
  6
HIDDEN
 10
5.2397
 20
7.1128
  0
VERTEX
  8
LAYER10
 62
     1
  6
HIDDEN
 10
5.2375
 20
7.1157
  0
VERTEX
  8
LAYER10
 62
     1
  6
HIDDEN
 10
5.2352
 20
7.1186
  0
VERTEX
  8
LAYER10
 62
     1
  6
HIDDEN
 10
5.2328
 20
7.1214
  0
VERTEX
  8
LAYER10
 62
     1
  6
HIDDEN
 10
5.2304
 20
7.1241
  0
VERTEX
  8
LAYER10
 62
     1
  6
HIDDEN
 10
5.2280
 20
7.1269
  0
VERTEX
  8
LAYER10
 62
     1
  6
HIDDEN
 10
5.2257
 20
7.1297
  0
VERTEX
  8
LAYER10
 62
     1
  6
HIDDEN
 10
5.2235
 20
7.1325
  0
VERTEX
  8
LAYER10
 62
     1
  6
HIDDEN
 10
5.2214
 20
7.1353
  0
VERTEX
  8
LAYER10
 62
     1
  6
HIDDEN
 10
5.2195
 20
7.1383
  0
VERTEX
  8
LAYER10
 62
     1
  6
HIDDEN
 10
5.2179
 20
7.1413
  0
VERTEX
  8
LAYER10
 62
     1
  6
HIDDEN
 10
5.2164
 20
7.1445
  0
VERTEX
  8
LAYER10
 62
     1
  6
HIDDEN
 10
5.2155
 20
7.1471
  0
VERTEX
  8
LAYER10
 62
     1
  6
HIDDEN
 10
5.2147
 20
7.1499
  0
VERTEX
  8
LAYER10
 62
     1
  6
HIDDEN
 10
5.2141
 20
7.1527
  0
VERTEX
  8
LAYER10
 62
     1
  6
HIDDEN
 10
5.2136
 20
7.1556
  0
VERTEX
  8
LAYER10
 62
     1
  6
HIDDEN
 10
5.2132
 20
7.1585
  0
VERTEX
  8
LAYER10
 62
     1
  6
HIDDEN
 10
5.2129
 20
7.1614
  0
VERTEX
  8
LAYER10
 62
     1
  6
HIDDEN
 10
5.2127
 20
7.1644
  0
VERTEX
  8
LAYER10
 62
     1
  6
HIDDEN
 10
5.2124
 20
7.1674
  0
VERTEX
  8
LAYER10
 62
     1
  6
HIDDEN
 10
5.2122
 20
7.1704
  0
VERTEX
  8
LAYER10
 62
     1
  6
HIDDEN
 10
5.2119
 20
7.1733
  0
VERTEX
  8
LAYER10
 62
     1
  6
HIDDEN
 10
5.2115
 20
7.1763
  0
VERTEX
  8
LAYER10
 62
     1
  6
HIDDEN
 10
5.2111
 20
7.1792
  0
VERTEX
  8
LAYER10
 62
     1
  6
HIDDEN
 10
5.2108
 20
7.1809
  0
VERTEX
  8
LAYER10
 62
     1
  6
HIDDEN
 10
5.2104
 20
7.1826
  0
VERTEX
  8
LAYER10
 62
     1
  6
HIDDEN
 10
5.2101
 20
7.1843
  0
VERTEX
  8
LAYER10
 62
     1
  6
HIDDEN
 10
5.2097
 20
7.1860
  0
VERTEX
  8
LAYER10
 62
     1
  6
HIDDEN
 10
5.2093
 20
7.1876
  0
VERTEX
  8
LAYER10
 62
     1
  6
HIDDEN
 10
5.2088
 20
7.1893
  0
VERTEX
  8
LAYER10
 62
     1
  6
HIDDEN
 10
5.2084
 20
7.1909
  0
VERTEX
  8
LAYER10
 62
     1
  6
HIDDEN
 10
5.2079
 20
7.1925
  0
VERTEX
  8
LAYER10
 62
     1
  6
HIDDEN
 10
5.2074
 20
7.1942
  0
VERTEX
  8
LAYER10
 62
     1
  6
HIDDEN
 10
5.2069
 20
7.1958
  0
VERTEX
  8
LAYER10
 62
     1
  6
HIDDEN
 10
5.2064
 20
7.1975
  0
VERTEX
  8
LAYER10
 62
     1
  6
HIDDEN
 10
5.2059
 20
7.1991
  0
VERTEX
  8
LAYER10
 62
     1
  6
HIDDEN
 10
5.2053
 20
7.2011
  0
VERTEX
  8
LAYER10
 62
     1
  6
HIDDEN
 10
5.2047
 20
7.2032
  0
VERTEX
  8
LAYER10
 62
     1
  6
HIDDEN
 10
5.2041
 20
7.2052
  0
VERTEX
  8
LAYER10
 62
     1
  6
HIDDEN
 10
5.2035
 20
7.2073
  0
VERTEX
  8
LAYER10
 62
     1
  6
HIDDEN
 10
5.2029
 20
7.2093
  0
VERTEX
  8
LAYER10
 62
     1
  6
HIDDEN
 10
5.2024
 20
7.2114
  0
VERTEX
  8
LAYER10
 62
     1
  6
HIDDEN
 10
5.2020
 20
7.2135
  0
VERTEX
  8
LAYER10
 62
     1
  6
HIDDEN
 10
5.2016
 20
7.2155
  0
VERTEX
  8
LAYER10
 62
     1
  6
HIDDEN
 10
5.2012
 20
7.2176
  0
VERTEX
  8
LAYER10
 62
     1
  6
HIDDEN
 10
5.2010
 20
7.2197
  0
VERTEX
  8
LAYER10
 62
     1
  6
HIDDEN
 10
5.2008
 20
7.2218
  0
VERTEX
  8
LAYER10
 62
     1
  6
HIDDEN
 10
5.2006
 20
7.2239
  0
VERTEX
  8
LAYER10
 62
     1
  6
HIDDEN
 10
5.2006
 20
7.2260
  0
VERTEX
  8
LAYER10
 62
     1
  6
HIDDEN
 10
5.2006
 20
7.2282
  0
VERTEX
  8
LAYER10
 62
     1
  6
HIDDEN
 10
5.2008
 20
7.2303
  0
VERTEX
  8
LAYER10
 62
     1
  6
HIDDEN
 10
5.2010
 20
7.2324
  0
VERTEX
  8
LAYER10
 62
     1
  6
HIDDEN
 10
5.2013
 20
7.2345
  0
VERTEX
  8
LAYER10
 62
     1
  6
HIDDEN
 10
5.2017
 20
7.2366
  0
VERTEX
  8
LAYER10
 62
     1
  6
HIDDEN
 10
5.2021
 20
7.2387
  0
VERTEX
  8
LAYER10
 62
     1
  6
HIDDEN
 10
5.2026
 20
7.2408
  0
VERTEX
  8
LAYER10
 62
     1
  6
HIDDEN
 10
5.2032
 20
7.2429
  0
VERTEX
  8
LAYER10
 62
     1
  6
HIDDEN
 10
5.2039
 20
7.2449
  0
VERTEX
  8
LAYER10
 62
     1
  6
HIDDEN
 10
5.2046
 20
7.2469
  0
VERTEX
  8
LAYER10
 62
     1
  6
HIDDEN
 10
5.2053
 20
7.2489
  0
VERTEX
  8
LAYER10
 62
     1
  6
HIDDEN
 10
5.2065
 20
7.2516
  0
VERTEX
  8
LAYER10
 62
     1
  6
HIDDEN
 10
5.2078
 20
7.2543
  0
VERTEX
  8
LAYER10
 62
     1
  6
HIDDEN
 10
5.2092
 20
7.2569
  0
VERTEX
  8
LAYER10
 62
     1
  6
HIDDEN
 10
5.2107
 20
7.2595
  0
VERTEX
  8
LAYER10
 62
     1
  6
HIDDEN
 10
5.2123
 20
7.2620
  0
VERTEX
  8
LAYER10
 62
     1
  6
HIDDEN
 10
5.2139
 20
7.2645
  0
VERTEX
  8
LAYER10
 62
     1
  6
HIDDEN
 10
5.2157
 20
7.2670
  0
VERTEX
  8
LAYER10
 62
     1
  6
HIDDEN
 10
5.2174
 20
7.2694
  0
VERTEX
  8
LAYER10
 62
     1
  6
HIDDEN
 10
5.2192
 20
7.2718
  0
VERTEX
  8
LAYER10
 62
     1
  6
HIDDEN
 10
5.2211
 20
7.2742
  0
SEQEND
  8
LAYER10
  0
POLYLINE
  8
LAYER10
 62
     1
 66
     1
  6
HIDDEN
  0
VERTEX
  8
LAYER10
 62
     1
  6
HIDDEN
 10
5.2211
 20
7.2742
  0
VERTEX
  8
LAYER10
 62
     1
  6
HIDDEN
 10
5.2230
 20
7.2766
  0
VERTEX
  8
LAYER10
 62
     1
  6
HIDDEN
 10
5.2249
 20
7.2790
  0
VERTEX
  8
LAYER10
 62
     1
  6
HIDDEN
 10
5.2257
 20
7.2799
  0
VERTEX
  8
LAYER10
 62
     1
  6
HIDDEN
 10
5.2264
 20
7.2808
  0
VERTEX
  8
LAYER10
 62
     1
  6
HIDDEN
 10
5.2272
 20
7.2817
  0
VERTEX
  8
LAYER10
 62
     1
  6
HIDDEN
 10
5.2280
 20
7.2826
  0
VERTEX
  8
LAYER10
 62
     1
  6
HIDDEN
 10
5.2288
 20
7.2835
  0
VERTEX
  8
LAYER10
 62
     1
  6
HIDDEN
 10
5.2296
 20
7.2844
  0
VERTEX
  8
LAYER10
 62
     1
  6
HIDDEN
 10
5.2304
 20
7.2853
  0
VERTEX
  8
LAYER10
 62
     1
  6
HIDDEN
 10
5.2312
 20
7.2861
  0
VERTEX
  8
LAYER10
 62
     1
  6
HIDDEN
 10
5.2321
 20
7.2869
  0
VERTEX
  8
LAYER10
 62
     1
  6
HIDDEN
 10
5.2329
 20
7.2876
  0
VERTEX
  8
LAYER10
 62
     1
  6
HIDDEN
 10
5.2338
 20
7.2884
  0
VERTEX
  8
LAYER10
 62
     1
  6
HIDDEN
 10
5.2348
 20
7.2890
  0
VERTEX
  8
LAYER10
 62
     1
  6
HIDDEN
 10
5.2366
 20
7.2902
  0
VERTEX
  8
LAYER10
 62
     1
  6
HIDDEN
 10
5.2385
 20
7.2913
  0
VERTEX
  8
LAYER10
 62
     1
  6
HIDDEN
 10
5.2405
 20
7.2922
  0
VERTEX
  8
LAYER10
 62
     1
  6
HIDDEN
 10
5.2426
 20
7.2930
  0
VERTEX
  8
LAYER10
 62
     1
  6
HIDDEN
 10
5.2447
 20
7.2938
  0
VERTEX
  8
LAYER10
 62
     1
  6
HIDDEN
 10
5.2468
 20
7.2945
  0
VERTEX
  8
LAYER10
 62
     1
  6
HIDDEN
 10
5.2489
 20
7.2952
  0
VERTEX
  8
LAYER10
 62
     1
  6
HIDDEN
 10
5.2511
 20
7.2959
  0
VERTEX
  8
LAYER10
 62
     1
  6
HIDDEN
 10
5.2533
 20
7.2967
  0
VERTEX
  8
LAYER10
 62
     1
  6
HIDDEN
 10
5.2554
 20
7.2974
  0
VERTEX
  8
LAYER10
 62
     1
  6
HIDDEN
 10
5.2575
 20
7.2983
  0
VERTEX
  8
LAYER10
 62
     1
  6
HIDDEN
 10
5.2595
 20
7.2993
  0
VERTEX
  8
LAYER10
 62
     1
  6
HIDDEN
 10
5.2622
 20
7.3007
  0
VERTEX
  8
LAYER10
 62
     1
  6
HIDDEN
 10
5.2648
 20
7.3023
  0
VERTEX
  8
LAYER10
 62
     1
  6
HIDDEN
 10
5.2673
 20
7.3041
  0
VERTEX
  8
LAYER10
 62
     1
  6
HIDDEN
 10
5.2697
 20
7.3060
  0
VERTEX
  8
LAYER10
 62
     1
  6
HIDDEN
 10
5.2721
 20
7.3079
  0
VERTEX
  8
LAYER10
 62
     1
  6
HIDDEN
 10
5.2745
 20
7.3098
  0
VERTEX
  8
LAYER10
 62
     1
  6
HIDDEN
 10
5.2769
 20
7.3117
  0
VERTEX
  8
LAYER10
 62
     1
  6
HIDDEN
 10
5.2792
 20
7.3136
  0
VERTEX
  8
LAYER10
 62
     1
  6
HIDDEN
 10
5.2816
 20
7.3153
  0
VERTEX
  8
LAYER10
 62
     1
  6
HIDDEN
 10
5.2841
 20
7.3169
  0
VERTEX
  8
LAYER10
 62
     1
  6
HIDDEN
 10
5.2866
 20
7.3183
  0
VERTEX
  8
LAYER10
 62
     1
  6
HIDDEN
 10
5.2892
 20
7.3195
  0
SEQEND
  8
LAYER10
  0
POLYLINE
  8
LAYER10
 62
     1
 66
     1
  6
CONTINUOUS
  0
VERTEX
  8
LAYER10
 62
     1
  6
CONTINUOUS
 10
5.6529
 20
6.8406
  0
VERTEX
  8
LAYER10
 62
     1
  6
CONTINUOUS
 10
5.6555
 20
6.8412
  0
VERTEX
  8
LAYER10
 62
     1
  6
CONTINUOUS
 10
5.6580
 20
6.8418
  0
VERTEX
  8
LAYER10
 62
     1
  6
CONTINUOUS
 10
5.6606
 20
6.8425
  0
VERTEX
  8
LAYER10
 62
     1
  6
CONTINUOUS
 10
5.6631
 20
6.8432
  0
VERTEX
  8
LAYER10
 62
     1
  6
CONTINUOUS
 10
5.6657
 20
6.8439
  0
VERTEX
  8
LAYER10
 62
     1
  6
CONTINUOUS
 10
5.6682
 20
6.8446
  0
VERTEX
  8
LAYER10
 62
     1
  6
CONTINUOUS
 10
5.6707
 20
6.8452
  0
VERTEX
  8
LAYER10
 62
     1
  6
CONTINUOUS
 10
5.6731
 20
6.8456
  0
VERTEX
  8
LAYER10
 62
     1
  6
CONTINUOUS
 10
5.6756
 20
6.8460
  0
VERTEX
  8
LAYER10
 62
     1
  6
CONTINUOUS
 10
5.6780
 20
6.8462
  0
VERTEX
  8
LAYER10
 62
     1
  6
CONTINUOUS
 10
5.6804
 20
6.8462
  0
VERTEX
  8
LAYER10
 62
     1
  6
CONTINUOUS
 10
5.6827
 20
6.8459
  0
VERTEX
  8
LAYER10
 62
     1
  6
CONTINUOUS
 10
5.6854
 20
6.8453
  0
VERTEX
  8
LAYER10
 62
     1
  6
CONTINUOUS
 10
5.6881
 20
6.8444
  0
VERTEX
  8
LAYER10
 62
     1
  6
CONTINUOUS
 10
5.6907
 20
6.8432
  0
VERTEX
  8
LAYER10
 62
     1
  6
CONTINUOUS
 10
5.6932
 20
6.8418
  0
VERTEX
  8
LAYER10
 62
     1
  6
CONTINUOUS
 10
5.6957
 20
6.8402
  0
VERTEX
  8
LAYER10
 62
     1
  6
CONTINUOUS
 10
5.6982
 20
6.8384
  0
VERTEX
  8
LAYER10
 62
     1
  6
CONTINUOUS
 10
5.7007
 20
6.8364
  0
VERTEX
  8
LAYER10
 62
     1
  6
CONTINUOUS
 10
5.7031
 20
6.8344
  0
VERTEX
  8
LAYER10
 62
     1
  6
CONTINUOUS
 10
5.7055
 20
6.8324
  0
VERTEX
  8
LAYER10
 62
     1
  6
CONTINUOUS
 10
5.7080
 20
6.8303
  0
VERTEX
  8
LAYER10
 62
     1
  6
CONTINUOUS
 10
5.7104
 20
6.8283
  0
VERTEX
  8
LAYER10
 62
     1
  6
CONTINUOUS
 10
5.7128
 20
6.8263
  0
VERTEX
  8
LAYER10
 62
     1
  6
CONTINUOUS
 10
5.7145
 20
6.8250
  0
VERTEX
  8
LAYER10
 62
     1
  6
CONTINUOUS
 10
5.7162
 20
6.8238
  0
VERTEX
  8
LAYER10
 62
     1
  6
CONTINUOUS
 10
5.7179
 20
6.8226
  0
VERTEX
  8
LAYER10
 62
     1
  6
CONTINUOUS
 10
5.7196
 20
6.8214
  0
VERTEX
  8
LAYER10
 62
     1
  6
CONTINUOUS
 10
5.7213
 20
6.8202
  0
VERTEX
  8
LAYER10
 62
     1
  6
CONTINUOUS
 10
5.7229
 20
6.8190
  0
VERTEX
  8
LAYER10
 62
     1
  6
CONTINUOUS
 10
5.7246
 20
6.8178
  0
VERTEX
  8
LAYER10
 62
     1
  6
CONTINUOUS
 10
5.7263
 20
6.8166
  0
VERTEX
  8
LAYER10
 62
     1
  6
CONTINUOUS
 10
5.7280
 20
6.8154
  0
VERTEX
  8
LAYER10
 62
     1
  6
CONTINUOUS
 10
5.7296
 20
6.8142
  0
VERTEX
  8
LAYER10
 62
     1
  6
CONTINUOUS
 10
5.7313
 20
6.8129
  0
VERTEX
  8
LAYER10
 62
     1
  6
CONTINUOUS
 10
5.7329
 20
6.8116
  0
VERTEX
  8
LAYER10
 62
     1
  6
CONTINUOUS
 10
5.7352
 20
6.8096
  0
VERTEX
  8
LAYER10
 62
     1
  6
CONTINUOUS
 10
5.7374
 20
6.8075
  0
VERTEX
  8
LAYER10
 62
     1
  6
CONTINUOUS
 10
5.7396
 20
6.8053
  0
VERTEX
  8
LAYER10
 62
     1
  6
CONTINUOUS
 10
5.7417
 20
6.8030
  0
VERTEX
  8
LAYER10
 62
     1
  6
CONTINUOUS
 10
5.7437
 20
6.8007
  0
VERTEX
  8
LAYER10
 62
     1
  6
CONTINUOUS
 10
5.7456
 20
6.7982
  0
VERTEX
  8
LAYER10
 62
     1
  6
CONTINUOUS
 10
5.7473
 20
6.7956
  0
VERTEX
  8
LAYER10
 62
     1
  6
CONTINUOUS
 10
5.7488
 20
6.7930
  0
VERTEX
  8
LAYER10
 62
     1
  6
CONTINUOUS
 10
5.7502
 20
6.7904
  0
VERTEX
  8
LAYER10
 62
     1
  6
CONTINUOUS
 10
5.7514
 20
6.7876
  0
VERTEX
  8
LAYER10
 62
     1
  6
CONTINUOUS
 10
5.7524
 20
6.7848
  0
VERTEX
  8
LAYER10
 62
     1
  6
CONTINUOUS
 10
5.7531
 20
6.7820
  0
VERTEX
  8
LAYER10
 62
     1
  6
CONTINUOUS
 10
5.7536
 20
6.7792
  0
VERTEX
  8
LAYER10
 62
     1
  6
CONTINUOUS
 10
5.7539
 20
6.7763
  0
VERTEX
  8
LAYER10
 62
     1
  6
CONTINUOUS
 10
5.7541
 20
6.7735
  0
VERTEX
  8
LAYER10
 62
     1
  6
CONTINUOUS
 10
5.7541
 20
6.7706
  0
VERTEX
  8
LAYER10
 62
     1
  6
CONTINUOUS
 10
5.7540
 20
6.7677
  0
VERTEX
  8
LAYER10
 62
     1
  6
CONTINUOUS
 10
5.7538
 20
6.7648
  0
VERTEX
  8
LAYER10
 62
     1
  6
CONTINUOUS
 10
5.7536
 20
6.7618
  0
VERTEX
  8
LAYER10
 62
     1
  6
CONTINUOUS
 10
5.7535
 20
6.7589
  0
VERTEX
  8
LAYER10
 62
     1
  6
CONTINUOUS
 10
5.7533
 20
6.7559
  0
VERTEX
  8
LAYER10
 62
     1
  6
CONTINUOUS
 10
5.7533
 20
6.7530
  0
VERTEX
  8
LAYER10
 62
     1
  6
CONTINUOUS
 10
5.7533
 20
6.7501
  0
VERTEX
  8
LAYER10
 62
     1
  6
CONTINUOUS
 10
5.7535
 20
6.7471
  0
VERTEX
  8
LAYER10
 62
     1
  6
CONTINUOUS
 10
5.7538
 20
6.7446
  0
VERTEX
  8
LAYER10
 62
     1
  6
CONTINUOUS
 10
5.7542
 20
6.7421
  0
VERTEX
  8
LAYER10
 62
     1
  6
CONTINUOUS
 10
5.7547
 20
6.7396
  0
VERTEX
  8
LAYER10
 62
     1
  6
CONTINUOUS
 10
5.7553
 20
6.7371
  0
VERTEX
  8
LAYER10
 62
     1
  6
CONTINUOUS
 10
5.7558
 20
6.7346
  0
VERTEX
  8
LAYER10
 62
     1
  6
CONTINUOUS
 10
5.7564
 20
6.7321
  0
VERTEX
  8
LAYER10
 62
     1
  6
CONTINUOUS
 10
5.7570
 20
6.7296
  0
VERTEX
  8
LAYER10
 62
     1
  6
CONTINUOUS
 10
5.7575
 20
6.7271
  0
VERTEX
  8
LAYER10
 62
     1
  6
CONTINUOUS
 10
5.7580
 20
6.7247
  0
VERTEX
  8
LAYER10
 62
     1
  6
CONTINUOUS
 10
5.7584
 20
6.7222
  0
VERTEX
  8
LAYER10
 62
     1
  6
CONTINUOUS
 10
5.7587
 20
6.7198
  0
VERTEX
  8
LAYER10
 62
     1
  6
CONTINUOUS
 10
5.7588
 20
6.7173
  0
VERTEX
  8
LAYER10
 62
     1
  6
CONTINUOUS
 10
5.7588
 20
6.7144
  0
VERTEX
  8
LAYER10
 62
     1
  6
CONTINUOUS
 10
5.7585
 20
6.7115
  0
VERTEX
  8
LAYER10
 62
     1
  6
CONTINUOUS
 10
5.7581
 20
6.7086
  0
VERTEX
  8
LAYER10
 62
     1
  6
CONTINUOUS
 10
5.7574
 20
6.7057
  0
VERTEX
  8
LAYER10
 62
     1
  6
CONTINUOUS
 10
5.7567
 20
6.7028
  0
VERTEX
  8
LAYER10
 62
     1
  6
CONTINUOUS
 10
5.7558
 20
6.6999
  0
VERTEX
  8
LAYER10
 62
     1
  6
CONTINUOUS
 10
5.7548
 20
6.6970
  0
VERTEX
  8
LAYER10
 62
     1
  6
CONTINUOUS
 10
5.7538
 20
6.6940
  0
VERTEX
  8
LAYER10
 62
     1
  6
CONTINUOUS
 10
5.7527
 20
6.6911
  0
VERTEX
  8
LAYER10
 62
     1
  6
CONTINUOUS
 10
5.7515
 20
6.6882
  0
VERTEX
  8
LAYER10
 62
     1
  6
CONTINUOUS
 10
5.7504
 20
6.6853
  0
VERTEX
  8
LAYER10
 62
     1
  6
CONTINUOUS
 10
5.7492
 20
6.6824
  0
VERTEX
  8
LAYER10
 62
     1
  6
CONTINUOUS
 10
5.7482
 20
6.6797
  0
VERTEX
  8
LAYER10
 62
     1
  6
CONTINUOUS
 10
5.7472
 20
6.6770
  0
VERTEX
  8
LAYER10
 62
     1
  6
CONTINUOUS
 10
5.7462
 20
6.6743
  0
VERTEX
  8
LAYER10
 62
     1
  6
CONTINUOUS
 10
5.7452
 20
6.6716
  0
VERTEX
  8
LAYER10
 62
     1
  6
CONTINUOUS
 10
5.7441
 20
6.6690
  0
VERTEX
  8
LAYER10
 62
     1
  6
CONTINUOUS
 10
5.7430
 20
6.6664
  0
VERTEX
  8
LAYER10
 62
     1
  6
CONTINUOUS
 10
5.7419
 20
6.6638
  0
VERTEX
  8
LAYER10
 62
     1
  6
CONTINUOUS
 10
5.7406
 20
6.6614
  0
VERTEX
  8
LAYER10
 62
     1
  6
CONTINUOUS
 10
5.7393
 20
6.6590
  0
VERTEX
  8
LAYER10
 62
     1
  6
CONTINUOUS
 10
5.7379
 20
6.6567
  0
VERTEX
  8
LAYER10
 62
     1
  6
CONTINUOUS
 10
5.7363
 20
6.6544
  0
VERTEX
  8
LAYER10
 62
     1
  6
CONTINUOUS
 10
5.7346
 20
6.6523
  0
VERTEX
  8
LAYER10
 62
     1
  6
CONTINUOUS
 10
5.7329
 20
6.6504
  0
VERTEX
  8
LAYER10
 62
     1
  6
CONTINUOUS
 10
5.7310
 20
6.6486
  0
VERTEX
  8
LAYER10
 62
     1
  6
CONTINUOUS
 10
5.7291
 20
6.6469
  0
VERTEX
  8
LAYER10
 62
     1
  6
CONTINUOUS
 10
5.7270
 20
6.6452
  0
VERTEX
  8
LAYER10
 62
     1
  6
CONTINUOUS
 10
5.7249
 20
6.6436
  0
VERTEX
  8
LAYER10
 62
     1
  6
CONTINUOUS
 10
5.7228
 20
6.6420
  0
VERTEX
  8
LAYER10
 62
     1
  6
CONTINUOUS
 10
5.7206
 20
6.6404
  0
VERTEX
  8
LAYER10
 62
     1
  6
CONTINUOUS
 10
5.7184
 20
6.6388
  0
VERTEX
  8
LAYER10
 62
     1
  6
CONTINUOUS
 10
5.7162
 20
6.6372
  0
VERTEX
  8
LAYER10
 62
     1
  6
CONTINUOUS
 10
5.7141
 20
6.6356
  0
VERTEX
  8
LAYER10
 62
     1
  6
CONTINUOUS
 10
5.7120
 20
6.6339
  0
VERTEX
  8
LAYER10
 62
     1
  6
CONTINUOUS
 10
5.7100
 20
6.6321
  0
VERTEX
  8
LAYER10
 62
     1
  6
CONTINUOUS
 10
5.7087
 20
6.6310
  0
VERTEX
  8
LAYER10
 62
     1
  6
CONTINUOUS
 10
5.7074
 20
6.6297
  0
VERTEX
  8
LAYER10
 62
     1
  6
CONTINUOUS
 10
5.7061
 20
6.6285
  0
VERTEX
  8
LAYER10
 62
     1
  6
CONTINUOUS
 10
5.7049
 20
6.6272
  0
VERTEX
  8
LAYER10
 62
     1
  6
CONTINUOUS
 10
5.7037
 20
6.6260
  0
VERTEX
  8
LAYER10
 62
     1
  6
CONTINUOUS
 10
5.7025
 20
6.6247
  0
VERTEX
  8
LAYER10
 62
     1
  6
CONTINUOUS
 10
5.7013
 20
6.6234
  0
VERTEX
  8
LAYER10
 62
     1
  6
CONTINUOUS
 10
5.7001
 20
6.6221
  0
VERTEX
  8
LAYER10
 62
     1
  6
CONTINUOUS
 10
5.6989
 20
6.6208
  0
VERTEX
  8
LAYER10
 62
     1
  6
CONTINUOUS
 10
5.6977
 20
6.6195
  0
VERTEX
  8
LAYER10
 62
     1
  6
CONTINUOUS
 10
5.6965
 20
6.6183
  0
VERTEX
  8
LAYER10
 62
     1
  6
CONTINUOUS
 10
5.6952
 20
6.6171
  0
VERTEX
  8
LAYER10
 62
     1
  6
CONTINUOUS
 10
5.6927
 20
6.6148
  0
VERTEX
  8
LAYER10
 62
     1
  6
CONTINUOUS
 10
5.6902
 20
6.6126
  0
VERTEX
  8
LAYER10
 62
     1
  6
CONTINUOUS
 10
5.6875
 20
6.6105
  0
VERTEX
  8
LAYER10
 62
     1
  6
CONTINUOUS
 10
5.6848
 20
6.6085
  0
VERTEX
  8
LAYER10
 62
     1
  6
CONTINUOUS
 10
5.6820
 20
6.6066
  0
VERTEX
  8
LAYER10
 62
     1
  6
CONTINUOUS
 10
5.6791
 20
6.6048
  0
VERTEX
  8
LAYER10
 62
     1
  6
CONTINUOUS
 10
5.6761
 20
6.6032
  0
VERTEX
  8
LAYER10
 62
     1
  6
CONTINUOUS
 10
5.6731
 20
6.6016
  0
VERTEX
  8
LAYER10
 62
     1
  6
CONTINUOUS
 10
5.6700
 20
6.6002
  0
VERTEX
  8
LAYER10
 62
     1
  6
CONTINUOUS
 10
5.6669
 20
6.5989
  0
VERTEX
  8
LAYER10
 62
     1
  6
CONTINUOUS
 10
5.6638
 20
6.5978
  0
VERTEX
  8
LAYER10
 62
     1
  6
CONTINUOUS
 10
5.6606
 20
6.5968
  0
VERTEX
  8
LAYER10
 62
     1
  6
CONTINUOUS
 10
5.6581
 20
6.5961
  0
VERTEX
  8
LAYER10
 62
     1
  6
CONTINUOUS
 10
5.6557
 20
6.5955
  0
VERTEX
  8
LAYER10
 62
     1
  6
CONTINUOUS
 10
5.6532
 20
6.5950
  0
VERTEX
  8
LAYER10
 62
     1
  6
CONTINUOUS
 10
5.6508
 20
6.5945
  0
VERTEX
  8
LAYER10
 62
     1
  6
CONTINUOUS
 10
5.6483
 20
6.5940
  0
VERTEX
  8
LAYER10
 62
     1
  6
CONTINUOUS
 10
5.6458
 20
6.5936
  0
VERTEX
  8
LAYER10
 62
     1
  6
CONTINUOUS
 10
5.6433
 20
6.5933
  0
VERTEX
  8
LAYER10
 62
     1
  6
CONTINUOUS
 10
5.6408
 20
6.5929
  0
VERTEX
  8
LAYER10
 62
     1
  6
CONTINUOUS
 10
5.6383
 20
6.5926
  0
VERTEX
  8
LAYER10
 62
     1
  6
CONTINUOUS
 10
5.6358
 20
6.5922
  0
VERTEX
  8
LAYER10
 62
     1
  6
CONTINUOUS
 10
5.6333
 20
6.5918
  0
VERTEX
  8
LAYER10
 62
     1
  6
CONTINUOUS
 10
5.6308
 20
6.5915
  0
VERTEX
  8
LAYER10
 62
     1
  6
CONTINUOUS
 10
5.6274
 20
6.5909
  0
VERTEX
  8
LAYER10
 62
     1
  6
CONTINUOUS
 10
5.6241
 20
6.5903
  0
VERTEX
  8
LAYER10
 62
     1
  6
CONTINUOUS
 10
5.6208
 20
6.5897
  0
VERTEX
  8
LAYER10
 62
     1
  6
CONTINUOUS
 10
5.6175
 20
6.5891
  0
VERTEX
  8
LAYER10
 62
     1
  6
CONTINUOUS
 10
5.6142
 20
6.5885
  0
VERTEX
  8
LAYER10
 62
     1
  6
CONTINUOUS
 10
5.6109
 20
6.5879
  0
VERTEX
  8
LAYER10
 62
     1
  6
CONTINUOUS
 10
5.6076
 20
6.5874
  0
VERTEX
  8
LAYER10
 62
     1
  6
CONTINUOUS
 10
5.6042
 20
6.5869
  0
VERTEX
  8
LAYER10
 62
     1
  6
CONTINUOUS
 10
5.6009
 20
6.5865
  0
VERTEX
  8
LAYER10
 62
     1
  6
CONTINUOUS
 10
5.5976
 20
6.5862
  0
VERTEX
  8
LAYER10
 62
     1
  6
CONTINUOUS
 10
5.5943
 20
6.5861
  0
VERTEX
  8
LAYER10
 62
     1
  6
CONTINUOUS
 10
5.5910
 20
6.5860
  0
VERTEX
  8
LAYER10
 62
     1
  6
CONTINUOUS
 10
5.5885
 20
6.5861
  0
VERTEX
  8
LAYER10
 62
     1
  6
CONTINUOUS
 10
5.5860
 20
6.5863
  0
VERTEX
  8
LAYER10
 62
     1
  6
CONTINUOUS
 10
5.5835
 20
6.5865
  0
VERTEX
  8
LAYER10
 62
     1
  6
CONTINUOUS
 10
5.5810
 20
6.5868
  0
VERTEX
  8
LAYER10
 62
     1
  6
CONTINUOUS
 10
5.5785
 20
6.5871
  0
VERTEX
  8
LAYER10
 62
     1
  6
CONTINUOUS
 10
5.5760
 20
6.5875
  0
VERTEX
  8
LAYER10
 62
     1
  6
CONTINUOUS
 10
5.5735
 20
6.5880
  0
VERTEX
  8
LAYER10
 62
     1
  6
CONTINUOUS
 10
5.5710
 20
6.5885
  0
VERTEX
  8
LAYER10
 62
     1
  6
CONTINUOUS
 10
5.5685
 20
6.5890
  0
VERTEX
  8
LAYER10
 62
     1
  6
CONTINUOUS
 10
5.5660
 20
6.5895
  0
VERTEX
  8
LAYER10
 62
     1
  6
CONTINUOUS
 10
5.5635
 20
6.5901
  0
VERTEX
  8
LAYER10
 62
     1
  6
CONTINUOUS
 10
5.5611
 20
6.5907
  0
VERTEX
  8
LAYER10
 62
     1
  6
CONTINUOUS
 10
5.5585
 20
6.5913
  0
VERTEX
  8
LAYER10
 62
     1
  6
CONTINUOUS
 10
5.5559
 20
6.5919
  0
VERTEX
  8
LAYER10
 62
     1
  6
CONTINUOUS
 10
5.5534
 20
6.5926
  0
VERTEX
  8
LAYER10
 62
     1
  6
CONTINUOUS
 10
5.5509
 20
6.5932
  0
VERTEX
  8
LAYER10
 62
     1
  6
CONTINUOUS
 10
5.5483
 20
6.5939
  0
VERTEX
  8
LAYER10
 62
     1
  6
CONTINUOUS
 10
5.5458
 20
6.5947
  0
VERTEX
  8
LAYER10
 62
     1
  6
CONTINUOUS
 10
5.5433
 20
6.5955
  0
VERTEX
  8
LAYER10
 62
     1
  6
CONTINUOUS
 10
5.5408
 20
6.5963
  0
VERTEX
  8
LAYER10
 62
     1
  6
CONTINUOUS
 10
5.5384
 20
6.5972
  0
VERTEX
  8
LAYER10
 62
     1
  6
CONTINUOUS
 10
5.5359
 20
6.5982
  0
VERTEX
  8
LAYER10
 62
     1
  6
CONTINUOUS
 10
5.5335
 20
6.5992
  0
VERTEX
  8
LAYER10
 62
     1
  6
CONTINUOUS
 10
5.5311
 20
6.6003
  0
VERTEX
  8
LAYER10
 62
     1
  6
CONTINUOUS
 10
5.5274
 20
6.6022
  0
VERTEX
  8
LAYER10
 62
     1
  6
CONTINUOUS
 10
5.5237
 20
6.6043
  0
VERTEX
  8
LAYER10
 62
     1
  6
CONTINUOUS
 10
5.5202
 20
6.6066
  0
VERTEX
  8
LAYER10
 62
     1
  6
CONTINUOUS
 10
5.5168
 20
6.6091
  0
VERTEX
  8
LAYER10
 62
     1
  6
CONTINUOUS
 10
5.5135
 20
6.6118
  0
VERTEX
  8
LAYER10
 62
     1
  6
CONTINUOUS
 10
5.5104
 20
6.6146
  0
VERTEX
  8
LAYER10
 62
     1
  6
CONTINUOUS
 10
5.5074
 20
6.6176
  0
VERTEX
  8
LAYER10
 62
     1
  6
CONTINUOUS
 10
5.5046
 20
6.6207
  0
VERTEX
  8
LAYER10
 62
     1
  6
CONTINUOUS
 10
5.5021
 20
6.6240
  0
VERTEX
  8
LAYER10
 62
     1
  6
CONTINUOUS
 10
5.4997
 20
6.6275
  0
VERTEX
  8
LAYER10
 62
     1
  6
CONTINUOUS
 10
5.4977
 20
6.6311
  0
VERTEX
  8
LAYER10
 62
     1
  6
CONTINUOUS
 10
5.4959
 20
6.6348
  0
VERTEX
  8
LAYER10
 62
     1
  6
CONTINUOUS
 10
5.4954
 20
6.6360
  0
VERTEX
  8
LAYER10
 62
     1
  6
CONTINUOUS
 10
5.4949
 20
6.6372
  0
VERTEX
  8
LAYER10
 62
     1
  6
CONTINUOUS
 10
5.4944
 20
6.6384
  0
VERTEX
  8
LAYER10
 62
     1
  6
CONTINUOUS
 10
5.4940
 20
6.6396
  0
VERTEX
  8
LAYER10
 62
     1
  6
CONTINUOUS
 10
5.4935
 20
6.6409
  0
VERTEX
  8
LAYER10
 62
     1
  6
CONTINUOUS
 10
5.4931
 20
6.6421
  0
VERTEX
  8
LAYER10
 62
     1
  6
CONTINUOUS
 10
5.4927
 20
6.6434
  0
VERTEX
  8
LAYER10
 62
     1
  6
CONTINUOUS
 10
5.4923
 20
6.6446
  0
VERTEX
  8
LAYER10
 62
     1
  6
CONTINUOUS
 10
5.4919
 20
6.6459
  0
VERTEX
  8
LAYER10
 62
     1
  6
CONTINUOUS
 10
5.4915
 20
6.6471
  0
VERTEX
  8
LAYER10
 62
     1
  6
CONTINUOUS
 10
5.4911
 20
6.6484
  0
VERTEX
  8
LAYER10
 62
     1
  6
CONTINUOUS
 10
5.4907
 20
6.6496
  0
VERTEX
  8
LAYER10
 62
     1
  6
CONTINUOUS
 10
5.4899
 20
6.6521
  0
VERTEX
  8
LAYER10
 62
     1
  6
CONTINUOUS
 10
5.4891
 20
6.6546
  0
VERTEX
  8
LAYER10
 62
     1
  6
CONTINUOUS
 10
5.4882
 20
6.6570
  0
VERTEX
  8
LAYER10
 62
     1
  6
CONTINUOUS
 10
5.4873
 20
6.6595
  0
VERTEX
  8
LAYER10
 62
     1
  6
CONTINUOUS
 10
5.4864
 20
6.6619
  0
VERTEX
  8
LAYER10
 62
     1
  6
CONTINUOUS
 10
5.4855
 20
6.6644
  0
VERTEX
  8
LAYER10
 62
     1
  6
CONTINUOUS
 10
5.4846
 20
6.6668
  0
VERTEX
  8
LAYER10
 62
     1
  6
CONTINUOUS
 10
5.4837
 20
6.6693
  0
VERTEX
  8
LAYER10
 62
     1
  6
CONTINUOUS
 10
5.4829
 20
6.6718
  0
VERTEX
  8
LAYER10
 62
     1
  6
CONTINUOUS
 10
5.4820
 20
6.6743
  0
VERTEX
  8
LAYER10
 62
     1
  6
CONTINUOUS
 10
5.4812
 20
6.6768
  0
VERTEX
  8
LAYER10
 62
     1
  6
CONTINUOUS
 10
5.4804
 20
6.6794
  0
VERTEX
  8
LAYER10
 62
     1
  6
CONTINUOUS
 10
5.4793
 20
6.6835
  0
VERTEX
  8
LAYER10
 62
     1
  6
CONTINUOUS
 10
5.4783
 20
6.6877
  0
VERTEX
  8
LAYER10
 62
     1
  6
CONTINUOUS
 10
5.4774
 20
6.6919
  0
VERTEX
  8
LAYER10
 62
     1
  6
CONTINUOUS
 10
5.4767
 20
6.6962
  0
VERTEX
  8
LAYER10
 62
     1
  6
CONTINUOUS
 10
5.4762
 20
6.7004
  0
VERTEX
  8
LAYER10
 62
     1
  6
CONTINUOUS
 10
5.4759
 20
6.7047
  0
VERTEX
  8
LAYER10
 62
     1
  6
CONTINUOUS
 10
5.4759
 20
6.7089
  0
VERTEX
  8
LAYER10
 62
     1
  6
CONTINUOUS
 10
5.4761
 20
6.7131
  0
VERTEX
  8
LAYER10
 62
     1
  6
CONTINUOUS
 10
5.4765
 20
6.7173
  0
VERTEX
  8
LAYER10
 62
     1
  6
CONTINUOUS
 10
5.4773
 20
6.7214
  0
VERTEX
  8
LAYER10
 62
     1
  6
CONTINUOUS
 10
5.4784
 20
6.7253
  0
VERTEX
  8
LAYER10
 62
     1
  6
CONTINUOUS
 10
5.4799
 20
6.7292
  0
VERTEX
  8
LAYER10
 62
     1
  6
CONTINUOUS
 10
5.4803
 20
6.7300
  0
VERTEX
  8
LAYER10
 62
     1
  6
CONTINUOUS
 10
5.4807
 20
6.7309
  0
VERTEX
  8
LAYER10
 62
     1
  6
CONTINUOUS
 10
5.4811
 20
6.7317
  0
VERTEX
  8
LAYER10
 62
     1
  6
CONTINUOUS
 10
5.4815
 20
6.7325
  0
VERTEX
  8
LAYER10
 62
     1
  6
CONTINUOUS
 10
5.4819
 20
6.7334
  0
VERTEX
  8
LAYER10
 62
     1
  6
CONTINUOUS
 10
5.4823
 20
6.7342
  0
VERTEX
  8
LAYER10
 62
     1
  6
CONTINUOUS
 10
5.4827
 20
6.7350
  0
VERTEX
  8
LAYER10
 62
     1
  6
CONTINUOUS
 10
5.4832
 20
6.7358
  0
VERTEX
  8
LAYER10
 62
     1
  6
CONTINUOUS
 10
5.4836
 20
6.7367
  0
VERTEX
  8
LAYER10
 62
     1
  6
CONTINUOUS
 10
5.4840
 20
6.7375
  0
VERTEX
  8
LAYER10
 62
     1
  6
CONTINUOUS
 10
5.4844
 20
6.7383
  0
VERTEX
  8
LAYER10
 62
     1
  6
CONTINUOUS
 10
5.4848
 20
6.7392
  0
VERTEX
  8
LAYER10
 62
     1
  6
CONTINUOUS
 10
5.4859
 20
6.7420
  0
VERTEX
  8
LAYER10
 62
     1
  6
CONTINUOUS
 10
5.4868
 20
6.7448
  0
VERTEX
  8
LAYER10
 62
     1
  6
CONTINUOUS
 10
5.4877
 20
6.7477
  0
VERTEX
  8
LAYER10
 62
     1
  6
CONTINUOUS
 10
5.4884
 20
6.7507
  0
VERTEX
  8
LAYER10
 62
     1
  6
CONTINUOUS
 10
5.4891
 20
6.7536
  0
VERTEX
  8
LAYER10
 62
     1
  6
CONTINUOUS
 10
5.4897
 20
6.7566
  0
VERTEX
  8
LAYER10
 62
     1
  6
CONTINUOUS
 10
5.4903
 20
6.7596
  0
VERTEX
  8
LAYER10
 62
     1
  6
CONTINUOUS
 10
5.4909
 20
6.7625
  0
VERTEX
  8
LAYER10
 62
     1
  6
CONTINUOUS
 10
5.4916
 20
6.7655
  0
VERTEX
  8
LAYER10
 62
     1
  6
CONTINUOUS
 10
5.4924
 20
6.7684
  0
VERTEX
  8
LAYER10
 62
     1
  6
CONTINUOUS
 10
5.4933
 20
6.7713
  0
VERTEX
  8
LAYER10
 62
     1
  6
CONTINUOUS
 10
5.4943
 20
6.7741
  0
VERTEX
  8
LAYER10
 62
     1
  6
CONTINUOUS
 10
5.4954
 20
6.7766
  0
VERTEX
  8
LAYER10
 62
     1
  6
CONTINUOUS
 10
5.4966
 20
6.7790
  0
VERTEX
  8
LAYER10
 62
     1
  6
CONTINUOUS
 10
5.4979
 20
6.7813
  0
VERTEX
  8
LAYER10
 62
     1
  6
CONTINUOUS
 10
5.4993
 20
6.7836
  0
VERTEX
  8
LAYER10
 62
     1
  6
CONTINUOUS
 10
5.5008
 20
6.7858
  0
VERTEX
  8
LAYER10
 62
     1
  6
CONTINUOUS
 10
5.5024
 20
6.7880
  0
VERTEX
  8
LAYER10
 62
     1
  6
CONTINUOUS
 10
5.5042
 20
6.7900
  0
VERTEX
  8
LAYER10
 62
     1
  6
CONTINUOUS
 10
5.5060
 20
6.7921
  0
VERTEX
  8
LAYER10
 62
     1
  6
CONTINUOUS
 10
5.5079
 20
6.7940
  0
VERTEX
  8
LAYER10
 62
     1
  6
CONTINUOUS
 10
5.5098
 20
6.7958
  0
VERTEX
  8
LAYER10
 62
     1
  6
CONTINUOUS
 10
5.5119
 20
6.7976
  0
VERTEX
  8
LAYER10
 62
     1
  6
CONTINUOUS
 10
5.5140
 20
6.7992
  0
VERTEX
  8
LAYER10
 62
     1
  6
CONTINUOUS
 10
5.5159
 20
6.8007
  0
VERTEX
  8
LAYER10
 62
     1
  6
CONTINUOUS
 10
5.5179
 20
6.8021
  0
VERTEX
  8
LAYER10
 62
     1
  6
CONTINUOUS
 10
5.5199
 20
6.8034
  0
VERTEX
  8
LAYER10
 62
     1
  6
CONTINUOUS
 10
5.5220
 20
6.8046
  0
VERTEX
  8
LAYER10
 62
     1
  6
CONTINUOUS
 10
5.5241
 20
6.8059
  0
VERTEX
  8
LAYER10
 62
     1
  6
CONTINUOUS
 10
5.5261
 20
6.8071
  0
VERTEX
  8
LAYER10
 62
     1
  6
CONTINUOUS
 10
5.5282
 20
6.8083
  0
VERTEX
  8
LAYER10
 62
     1
  6
CONTINUOUS
 10
5.5304
 20
6.8095
  0
VERTEX
  8
LAYER10
 62
     1
  6
CONTINUOUS
 10
5.5325
 20
6.8107
  0
VERTEX
  8
LAYER10
 62
     1
  6
CONTINUOUS
 10
5.5345
 20
6.8119
  0
VERTEX
  8
LAYER10
 62
     1
  6
CONTINUOUS
 10
5.5366
 20
6.8132
  0
VERTEX
  8
LAYER10
 62
     1
  6
CONTINUOUS
 10
5.5387
 20
6.8145
  0
VERTEX
  8
LAYER10
 62
     1
  6
CONTINUOUS
 10
5.5407
 20
6.8158
  0
VERTEX
  8
LAYER10
 62
     1
  6
CONTINUOUS
 10
5.5428
 20
6.8172
  0
VERTEX
  8
LAYER10
 62
     1
  6
CONTINUOUS
 10
5.5448
 20
6.8186
  0
VERTEX
  8
LAYER10
 62
     1
  6
CONTINUOUS
 10
5.5468
 20
6.8200
  0
VERTEX
  8
LAYER10
 62
     1
  6
CONTINUOUS
 10
5.5488
 20
6.8214
  0
VERTEX
  8
LAYER10
 62
     1
  6
CONTINUOUS
 10
5.5508
 20
6.8228
  0
VERTEX
  8
LAYER10
 62
     1
  6
CONTINUOUS
 10
5.5529
 20
6.8241
  0
VERTEX
  8
LAYER10
 62
     1
  6
CONTINUOUS
 10
5.5549
 20
6.8254
  0
VERTEX
  8
LAYER10
 62
     1
  6
CONTINUOUS
 10
5.5570
 20
6.8266
  0
VERTEX
  8
LAYER10
 62
     1
  6
CONTINUOUS
 10
5.5591
 20
6.8277
  0
VERTEX
  8
LAYER10
 62
     1
  6
CONTINUOUS
 10
5.5612
 20
6.8288
  0
VERTEX
  8
LAYER10
 62
     1
  6
CONTINUOUS
 10
5.5634
 20
6.8297
  0
VERTEX
  8
LAYER10
 62
     1
  6
CONTINUOUS
 10
5.5657
 20
6.8305
  0
VERTEX
  8
LAYER10
 62
     1
  6
CONTINUOUS
 10
5.5681
 20
6.8311
  0
VERTEX
  8
LAYER10
 62
     1
  6
CONTINUOUS
 10
5.5706
 20
6.8317
  0
VERTEX
  8
LAYER10
 62
     1
  6
CONTINUOUS
 10
5.5730
 20
6.8322
  0
VERTEX
  8
LAYER10
 62
     1
  6
CONTINUOUS
 10
5.5755
 20
6.8326
  0
VERTEX
  8
LAYER10
 62
     1
  6
CONTINUOUS
 10
5.5780
 20
6.8330
  0
VERTEX
  8
LAYER10
 62
     1
  6
CONTINUOUS
 10
5.5805
 20
6.8333
  0
VERTEX
  8
LAYER10
 62
     1
  6
CONTINUOUS
 10
5.5831
 20
6.8336
  0
VERTEX
  8
LAYER10
 62
     1
  6
CONTINUOUS
 10
5.5856
 20
6.8339
  0
VERTEX
  8
LAYER10
 62
     1
  6
CONTINUOUS
 10
5.5882
 20
6.8342
  0
SEQEND
  8
LAYER10
  0
POLYLINE
  8
LAYER10
 62
     1
 66
     1
  6
CONTINUOUS
  0
VERTEX
  8
LAYER10
 62
     1
  6
CONTINUOUS
 10
5.5882
 20
6.8342
  0
VERTEX
  8
LAYER10
 62
     1
  6
CONTINUOUS
 10
5.5907
 20
6.8346
  0
VERTEX
  8
LAYER10
 62
     1
  6
CONTINUOUS
 10
5.5932
 20
6.8350
  0
VERTEX
  8
LAYER10
 62
     1
  6
CONTINUOUS
 10
5.5953
 20
6.8354
  0
VERTEX
  8
LAYER10
 62
     1
  6
CONTINUOUS
 10
5.5974
 20
6.8358
  0
VERTEX
  8
LAYER10
 62
     1
  6
CONTINUOUS
 10
5.5995
 20
6.8363
  0
VERTEX
  8
LAYER10
 62
     1
  6
CONTINUOUS
 10
5.6016
 20
6.8368
  0
VERTEX
  8
LAYER10
 62
     1
  6
CONTINUOUS
 10
5.6036
 20
6.8373
  0
VERTEX
  8
LAYER10
 62
     1
  6
CONTINUOUS
 10
5.6057
 20
6.8378
  0
VERTEX
  8
LAYER10
 62
     1
  6
CONTINUOUS
 10
5.6077
 20
6.8383
  0
VERTEX
  8
LAYER10
 62
     1
  6
CONTINUOUS
 10
5.6098
 20
6.8387
  0
VERTEX
  8
LAYER10
 62
     1
  6
CONTINUOUS
 10
5.6119
 20
6.8392
  0
VERTEX
  8
LAYER10
 62
     1
  6
CONTINUOUS
 10
5.6139
 20
6.8396
  0
VERTEX
  8
LAYER10
 62
     1
  6
CONTINUOUS
 10
5.6160
 20
6.8399
  0
VERTEX
  8
LAYER10
 62
     1
  6
CONTINUOUS
 10
5.6181
 20
6.8402
  0
VERTEX
  8
LAYER10
 62
     1
  6
CONTINUOUS
 10
5.6209
 20
6.8405
  0
VERTEX
  8
LAYER10
 62
     1
  6
CONTINUOUS
 10
5.6238
 20
6.8407
  0
VERTEX
  8
LAYER10
 62
     1
  6
CONTINUOUS
 10
5.6267
 20
6.8408
  0
VERTEX
  8
LAYER10
 62
     1
  6
CONTINUOUS
 10
5.6296
 20
6.8408
  0
VERTEX
  8
LAYER10
 62
     1
  6
CONTINUOUS
 10
5.6325
 20
6.8408
  0
VERTEX
  8
LAYER10
 62
     1
  6
CONTINUOUS
 10
5.6354
 20
6.8407
  0
VERTEX
  8
LAYER10
 62
     1
  6
CONTINUOUS
 10
5.6383
 20
6.8406
  0
VERTEX
  8
LAYER10
 62
     1
  6
CONTINUOUS
 10
5.6413
 20
6.8405
  0
VERTEX
  8
LAYER10
 62
     1
  6
CONTINUOUS
 10
5.6442
 20
6.8405
  0
VERTEX
  8
LAYER10
 62
     1
  6
CONTINUOUS
 10
5.6471
 20
6.8404
  0
VERTEX
  8
LAYER10
 62
     1
  6
CONTINUOUS
 10
5.6500
 20
6.8405
  0
VERTEX
  8
LAYER10
 62
     1
  6
CONTINUOUS
 10
5.6529
 20
6.8406
  0
SEQEND
  8
LAYER10
  0
POLYLINE
  8
LAYER10
 62
     1
 66
     1
  6
CONTINUOUS
  0
VERTEX
  8
LAYER10
 62
     1
  6
CONTINUOUS
 10
5.0376
 20
7.5465
  0
VERTEX
  8
LAYER10
 62
     1
  6
CONTINUOUS
 10
5.0376
 20
7.5465
  0
VERTEX
  8
LAYER10
 62
     1
  6
CONTINUOUS
 10
5.0376
 20
7.5465
  0
VERTEX
  8
LAYER10
 62
     1
  6
CONTINUOUS
 10
5.0376
 20
7.5465
  0
VERTEX
  8
LAYER10
 62
     1
  6
CONTINUOUS
 10
5.0376
 20
7.5465
  0
VERTEX
  8
LAYER10
 62
     1
  6
CONTINUOUS
 10
5.0376
 20
7.5465
  0
VERTEX
  8
LAYER10
 62
     1
  6
CONTINUOUS
 10
5.0376
 20
7.5465
  0
VERTEX
  8
LAYER10
 62
     1
  6
CONTINUOUS
 10
5.0376
 20
7.5465
  0
VERTEX
  8
LAYER10
 62
     1
  6
CONTINUOUS
 10
5.0376
 20
7.5465
  0
VERTEX
  8
LAYER10
 62
     1
  6
CONTINUOUS
 10
5.0376
 20
7.5465
  0
VERTEX
  8
LAYER10
 62
     1
  6
CONTINUOUS
 10
5.0376
 20
7.5465
  0
VERTEX
  8
LAYER10
 62
     1
  6
CONTINUOUS
 10
5.0376
 20
7.5465
  0
VERTEX
  8
LAYER10
 62
     1
  6
CONTINUOUS
 10
5.0376
 20
7.5465
  0
VERTEX
  8
LAYER10
 62
     1
  6
CONTINUOUS
 10
5.0376
 20
7.5465
  0
VERTEX
  8
LAYER10
 62
     1
  6
CONTINUOUS
 10
5.0376
 20
7.5465
  0
VERTEX
  8
LAYER10
 62
     1
  6
CONTINUOUS
 10
5.0376
 20
7.5465
  0
VERTEX
  8
LAYER10
 62
     1
  6
CONTINUOUS
 10
5.0376
 20
7.5465
  0
VERTEX
  8
LAYER10
 62
     1
  6
CONTINUOUS
 10
5.0376
 20
7.5465
  0
VERTEX
  8
LAYER10
 62
     1
  6
CONTINUOUS
 10
5.0376
 20
7.5465
  0
VERTEX
  8
LAYER10
 62
     1
  6
CONTINUOUS
 10
5.0376
 20
7.5465
  0
VERTEX
  8
LAYER10
 62
     1
  6
CONTINUOUS
 10
5.0376
 20
7.5465
  0
VERTEX
  8
LAYER10
 62
     1
  6
CONTINUOUS
 10
5.0376
 20
7.5465
  0
VERTEX
  8
LAYER10
 62
     1
  6
CONTINUOUS
 10
5.0376
 20
7.5465
  0
VERTEX
  8
LAYER10
 62
     1
  6
CONTINUOUS
 10
5.0376
 20
7.5465
  0
VERTEX
  8
LAYER10
 62
     1
  6
CONTINUOUS
 10
5.0376
 20
7.5465
  0
SEQEND
  8
LAYER10
  0
POLYLINE
  8
LAYER10
 62
     1
 66
     1
  6
CONTINUOUS
  0
VERTEX
  8
LAYER10
 62
     1
  6
CONTINUOUS
 10
5.0376
 20
7.5465
  0
VERTEX
  8
LAYER10
 62
     1
  6
CONTINUOUS
 10
5.0377
 20
7.5461
  0
VERTEX
  8
LAYER10
 62
     1
  6
CONTINUOUS
 10
5.0377
 20
7.5456
  0
VERTEX
  8
LAYER10
 62
     1
  6
CONTINUOUS
 10
5.0377
 20
7.5451
  0
VERTEX
  8
LAYER10
 62
     1
  6
CONTINUOUS
 10
5.0378
 20
7.5446
  0
VERTEX
  8
LAYER10
 62
     1
  6
CONTINUOUS
 10
5.0378
 20
7.5441
  0
VERTEX
  8
LAYER10
 62
     1
  6
CONTINUOUS
 10
5.0378
 20
7.5436
  0
VERTEX
  8
LAYER10
 62
     1
  6
CONTINUOUS
 10
5.0378
 20
7.5432
  0
VERTEX
  8
LAYER10
 62
     1
  6
CONTINUOUS
 10
5.0378
 20
7.5427
  0
VERTEX
  8
LAYER10
 62
     1
  6
CONTINUOUS
 10
5.0378
 20
7.5422
  0
VERTEX
  8
LAYER10
 62
     1
  6
CONTINUOUS
 10
5.0378
 20
7.5417
  0
VERTEX
  8
LAYER10
 62
     1
  6
CONTINUOUS
 10
5.0378
 20
7.5412
  0
VERTEX
  8
LAYER10
 62
     1
  6
CONTINUOUS
 10
5.0378
 20
7.5408
  0
VERTEX
  8
LAYER10
 62
     1
  6
CONTINUOUS
 10
5.0378
 20
7.5405
  0
VERTEX
  8
LAYER10
 62
     1
  6
CONTINUOUS
 10
5.0378
 20
7.5402
  0
VERTEX
  8
LAYER10
 62
     1
  6
CONTINUOUS
 10
5.0378
 20
7.5400
  0
VERTEX
  8
LAYER10
 62
     1
  6
CONTINUOUS
 10
5.0378
 20
7.5397
  0
VERTEX
  8
LAYER10
 62
     1
  6
CONTINUOUS
 10
5.0378
 20
7.5394
  0
VERTEX
  8
LAYER10
 62
     1
  6
CONTINUOUS
 10
5.0378
 20
7.5392
  0
VERTEX
  8
LAYER10
 62
     1
  6
CONTINUOUS
 10
5.0377
 20
7.5389
  0
VERTEX
  8
LAYER10
 62
     1
  6
CONTINUOUS
 10
5.0377
 20
7.5386
  0
VERTEX
  8
LAYER10
 62
     1
  6
CONTINUOUS
 10
5.0377
 20
7.5384
  0
VERTEX
  8
LAYER10
 62
     1
  6
CONTINUOUS
 10
5.0377
 20
7.5381
  0
VERTEX
  8
LAYER10
 62
     1
  6
CONTINUOUS
 10
5.0377
 20
7.5378
  0
VERTEX
  8
LAYER10
 62
     1
  6
CONTINUOUS
 10
5.0376
 20
7.5376
  0
SEQEND
  8
LAYER10
  0
POLYLINE
  8
LAYER10
 62
     1
 66
     1
  6
CONTINUOUS
  0
VERTEX
  8
LAYER10
 62
     1
  6
CONTINUOUS
 10
5.0376
 20
7.5465
  0
VERTEX
  8
LAYER10
 62
     1
  6
CONTINUOUS
 10
5.0376
 20
7.5465
  0
VERTEX
  8
LAYER10
 62
     1
  6
CONTINUOUS
 10
5.0376
 20
7.5465
  0
VERTEX
  8
LAYER10
 62
     1
  6
CONTINUOUS
 10
5.0376
 20
7.5465
  0
VERTEX
  8
LAYER10
 62
     1
  6
CONTINUOUS
 10
5.0376
 20
7.5465
  0
VERTEX
  8
LAYER10
 62
     1
  6
CONTINUOUS
 10
5.0376
 20
7.5465
  0
VERTEX
  8
LAYER10
 62
     1
  6
CONTINUOUS
 10
5.0376
 20
7.5465
  0
VERTEX
  8
LAYER10
 62
     1
  6
CONTINUOUS
 10
5.0376
 20
7.5465
  0
VERTEX
  8
LAYER10
 62
     1
  6
CONTINUOUS
 10
5.0376
 20
7.5465
  0
VERTEX
  8
LAYER10
 62
     1
  6
CONTINUOUS
 10
5.0376
 20
7.5465
  0
VERTEX
  8
LAYER10
 62
     1
  6
CONTINUOUS
 10
5.0376
 20
7.5465
  0
VERTEX
  8
LAYER10
 62
     1
  6
CONTINUOUS
 10
5.0376
 20
7.5465
  0
VERTEX
  8
LAYER10
 62
     1
  6
CONTINUOUS
 10
5.0376
 20
7.5465
  0
VERTEX
  8
LAYER10
 62
     1
  6
CONTINUOUS
 10
5.0376
 20
7.5465
  0
VERTEX
  8
LAYER10
 62
     1
  6
CONTINUOUS
 10
5.0376
 20
7.5465
  0
VERTEX
  8
LAYER10
 62
     1
  6
CONTINUOUS
 10
5.0376
 20
7.5465
  0
VERTEX
  8
LAYER10
 62
     1
  6
CONTINUOUS
 10
5.0376
 20
7.5465
  0
VERTEX
  8
LAYER10
 62
     1
  6
CONTINUOUS
 10
5.0376
 20
7.5465
  0
VERTEX
  8
LAYER10
 62
     1
  6
CONTINUOUS
 10
5.0376
 20
7.5465
  0
VERTEX
  8
LAYER10
 62
     1
  6
CONTINUOUS
 10
5.0376
 20
7.5465
  0
VERTEX
  8
LAYER10
 62
     1
  6
CONTINUOUS
 10
5.0376
 20
7.5465
  0
VERTEX
  8
LAYER10
 62
     1
  6
CONTINUOUS
 10
5.0376
 20
7.5465
  0
VERTEX
  8
LAYER10
 62
     1
  6
CONTINUOUS
 10
5.0376
 20
7.5465
  0
VERTEX
  8
LAYER10
 62
     1
  6
CONTINUOUS
 10
5.0376
 20
7.5465
  0
VERTEX
  8
LAYER10
 62
     1
  6
CONTINUOUS
 10
5.0376
 20
7.5465
  0
SEQEND
  8
LAYER10
  0
POLYLINE
  8
LAYER12
 62
     5
 66
     1
  6
CONTINUOUS
  0
VERTEX
  8
LAYER12
 62
     5
  6
CONTINUOUS
 10
6.0657
 20
7.5465
  0
VERTEX
  8
LAYER12
 62
     5
  6
CONTINUOUS
 10
5.0426
 20
7.5465
  0
SEQEND
  8
LAYER12
  0
POLYLINE
  8
LAYER12
 62
     5
 66
     1
  6
CONTINUOUS
  0
VERTEX
  8
LAYER12
 62
     5
  6
CONTINUOUS
 10
5.0426
 20
7.5465
  0
VERTEX
  8
LAYER12
 62
     5
  6
CONTINUOUS
 10
5.0376
 20
7.5465
  0
SEQEND
  8
LAYER12
  0
POLYLINE
  8
LAYER12
 62
     5
 66
     1
  6
CONTINUOUS
  0
VERTEX
  8
LAYER12
 62
     5
  6
CONTINUOUS
 10
5.0426
 20
6.5235
  0
VERTEX
  8
LAYER12
 62
     5
  6
CONTINUOUS
 10
6.0657
 20
6.5235
  0
SEQEND
  8
LAYER12
  0
POLYLINE
  8
LAYER12
 62
     5
 66
     1
  6
CONTINUOUS
  0
VERTEX
  8
LAYER12
 62
     5
  6
CONTINUOUS
 10
5.0426
 20
6.5235
  0
VERTEX
  8
LAYER12
 62
     5
  6
CONTINUOUS
 10
5.0426
 20
7.5465
  0
SEQEND
  8
LAYER12
  0
ENDSEC
  0
EOF
