  0
SECTION
  2
HEADER
  9
$ACADVER
  1
AC1004
  9
$EXTMIN
 10
11.0207
 20
6.5206
  9
$EXTMAX
 10
12.0559
 20
7.5511
  9
$LIMMIN
 10
11.0207
 20
6.5206
  9
$LIMMAX
 10
12.0559
 20
7.5511
  9
$INSBASE
 10
0.0
 20
0.0
  9
$VIEWCTR
 10
7.21903
 20
4.5
  9
$VIEWSIZE
 40
9.0
  9
$SNAPMODE
 70
     0
  9
$SNAPUNIT
 10
1.0
 20
1.0
  9
$SNAPBASE
 10
0.0
 20
0.0
  9
$SNAPANG
 50
0.0
  9
$SNAPSTYLE
 70
     0
  9
$SNAPISOPAIR
 70
     0
  9
$GRIDMODE
 70
     0
  9
$GRIDUNIT
 10
0.0
 20
0.0
  9
$ORTHOMODE
 70
     0
  9
$REGENMODE
 70
     1
  9
$FILLMODE
 70
     1
  9
$QTEXTMODE
 70
     0
  9
$DRAGMODE
 70
     2
  9
$LTSCALE
 40
1.0
  9
$OSMODE
 70
     0
  9
$ATTMODE
 70
     1
  9
$TEXTSIZE
 40
0.2
  9
$TRACEWID
 40
0.05
  9
$TEXTSTYLE
  7
STANDARD
  9
$CLAYER
  8
0
  9
$CELTYPE
  6
BYLAYER
  9
$CECOLOR
 62
   256
  9
$DIMSCALE
 40
1.0
  9
$DIMASZ
 40
0.18
  9
$DIMEXO
 40
0.0625
  9
$DIMDLI
 40
0.38
  9
$DIMRND
 40
0.0
  9
$DIMDLE
 40
0.0
  9
$DIMEXE
 40
0.18
  9
$DIMTP
 40
0.0
  9
$DIMTM
 40
0.0
  9
$DIMTXT
 40
0.18
  9
$DIMCEN
 40
0.09
  9
$DIMTSZ
 40
0.0
  9
$DIMTOL
 70
     0
  9
$DIMLIM
 70
     0
  9
$DIMTIH
 70
     1
  9
$DIMTOH
 70
     1
  9
$DIMSE1
 70
     0
  9
$DIMSE2
 70
     0
  9
$DIMTAD
 70
     0
  9
$DIMZIN
 70
     0
  9
$DIMBLK
  1

  9
$DIMASO
 70
     1
  9
$DIMSHO
 70
     0
  9
$DIMPOST
  1

  9
$DIMAPOST
  1

  9
$DIMALT
 70
     0
  9
$DIMALTD
 70
     2
  9
$DIMALTF
 40
25.4
  9
$DIMLFAC
 40
1.0
  9
$LUNITS
 70
     2
  9
$LUPREC
 70
     4
  9
$AXISMODE
 70
     0
  9
$AXISUNIT
 10
0.0
 20
0.0
  9
$SKETCHINC
 40
0.1
  9
$FILLETRAD
 40
0.0
  9
$AUNITS
 70
     0
  9
$AUPREC
 70
     0
  9
$MENU
  1
acad
  9
$ELEVATION
 40
0.0
  9
$THICKNESS
 40
0.0
  9
$VIEWDIR
 10
0.0
 20
0.0
 30
1.0
  9
$LIMCHECK
 70
     0
  9
$BLIPMODE
 70
     1
  9
$CHAMFERA
 40
0.0
  9
$CHAMFERB
 40
0.0
  9
$FASTZOOM
 70
     1
  9
$SKPOLY
 70
     0
  9
$TDCREATE
 40
2447222.5666886573
  9
$TDUPDATE
 40
2447222.5666886573
  9
$TDINDWG
 40
0.0000000000
  9
$TDUSRTIMER
 40
0.0000000000
  9
$USRTIMER
 70
     1
  9
$ANGBASE
 50
0.0
  9
$ANGDIR
 70
     0
  9
$PDMODE
 70
     0
  9
$PDSIZE
 40
0.0
  9
$PLINEWID
 40
0.0
  9
$COORDS
 70
     0
  9
$SPLFRAME
 70
     0
  9
$SPLINESEGS
 70
     8
  9
$ATTDIA
 70
     0
  9
$ATTREQ
 70
     1
  9
$USERI1
 70
     0
  9
$USERI2
 70
     0
  9
$USERI3
 70
     0
  9
$USERI4
 70
     0
  9
$USERI5
 70
     0
  9
$USERR1
 40
0.0
  9
$USERR2
 40
0.0
  9
$USERR3
 40
0.0
  9
$USERR4
 40
0.0
  9
$USERR5
 40
0.0
  0
ENDSEC
  0
SECTION
  2
TABLES
  0
TABLE
  2
LTYPE
 70
     13
  0
LTYPE
  2
CONTINUOUS
 70
    64
  3
Solid line
 72
    65
 73
     0
 40
0.0
  0
LTYPE
  2
DASHED
 70
    64
  3
__ __ __ __ __ __ __ __ __ __ __ __ __ __ __
 72
    65
 73
     2
 40
0.75
 49
0.5
 49
-0.25
  0
LTYPE
  2
HIDDEN
 70
    64
  3
_ _ _ _ _ _ _ _ _ _ _ _ _ _ _ _ _ _ _ _ _ _ _
 72
    65
 73
     2
 40
0.375
 49
0.25
 49
-0.125
  0
LTYPE
  2
CENTER
 70
    64
  3
____ _ ____ _ ____ _ ____ _ ____ _ ____ _ ____
 72
    65
 73
     4
 40
2.0
 49
1.25
 49
-0.25
 49
0.25
 49
-0.25
  0
LTYPE
  2
PHANTOM
 70
    64
  3
_____ _ _ _____ _ _ _____ _ _ _____ _ _ ____
 72
    65
 73
     6
 40
2.5
 49
1.25
 49
-0.25
 49
0.25
 49
-0.25
 49
0.25
 49
-0.25
  0
LTYPE
  2
DOT
 70
    64
  3
...............................................
 72
    65
 73
     2
 40
0.25
 49
0.0
 49
-0.25
  0
LTYPE
  2
DASHDOT
 70
    64
  3
__ . __ . __ . __ . __ . __ . __ . __ . __ . __
 72
    65
 73
     4
 40
1.0
 49
0.5
 49
-0.25
 49
0.0
 49
-0.25
  0
LTYPE
  2
BORDER
 70
    64
  3
__ __ . __ __ . __ __ . __ __ . __ __ . __ __
 72
    65
 73
     6
 40
1.75
 49
0.5
 49
-0.25
 49
0.5
 49
-0.25
 49
0.0
 49
-0.25
  0
LTYPE
  2
DIVIDE
 70
    64
  3
__ . . __ . . __ . . __ . . __ . . __ . . __
 72
    65
 73
     6
 40
1.25
 49
0.5
 49
-0.25
 49
0.0
 49
-0.25
 49
0.0
 49
-0.25
  0
LTYPE
  2
DCTYPE1
 70
    64
  3
__ . . __ . . __ . . __ . . __ . . __ . . __
 72
    65
 73
     8
 40
2.5
 49
0.5
 49
-0.25
 49
0.125
 49
-0.25
 49
0.25
 49
-0.25
 49
0.125
 49
-0.25
  0
LTYPE
  2
DCTYPE2
 70
    64
  3
__ . . __ . . __ . . __ . . __ . . __ . . __
 72
    65
 73
     6
 40
2.05
 49
1.0
 49
-0.3
 49
0.15
 49
-0.15
 49
0.15
 49
-0.3
  0
LTYPE
  2
DCTYPE3
 70
    64
  3
__ . . __ . . __ . . __ . . __ . . __ . . __
 72
    65
 73
     6
 40
2.5
 49
0.8
 49
-0.2
 49
0.8
 49
-0.2
 49
0.3
 49
-0.2
  0
LTYPE
  2
DCTYPE4
 70
    64
  3
__ . . __ . . __ . . __ . . __ . . __ . . __
 72
    65
 73
     10
 40
3.97
 49
1.75
 49
-0.3
 49
0.3
 49
-0.3
 49
0.06
 49
-0.3
 49
0.06
 49
-0.3
 49
0.3
 49
-0.3
  0
ENDTAB
  0
TABLE
  2
LAYER
 70
    153
  0
LAYER
  2
LAYER1
 70
 64
 62
     7
  6
CONTINUOUS
  0
LAYER
  2
LAYER10
 70
 64
 62
     1
  6
CONTINUOUS
  0
LAYER
  2
LAYER12
 70
 64
 62
     5
  6
CONTINUOUS
  0
ENDTAB
  0
ENDSEC
  0
SECTION
  2
BLOCKS
  0
ENDSEC
  0
SECTION
  2
ENTITIES
  0
CIRCLE
  8
LAYER1
 62
     7
  6
CONTINUOUS
 10
11.7192
 20
6.7074
 40
0.0255
  0
POLYLINE
  8
LAYER1
 62
     7
 66
     1
  6
CONTINUOUS
  0
VERTEX
  8
LAYER1
 62
     7
  6
CONTINUOUS
 10
11.0248
 20
6.5844
  0
VERTEX
  8
LAYER1
 62
     7
  6
CONTINUOUS
 10
11.0252
 20
6.5843
  0
VERTEX
  8
LAYER1
 62
     7
  6
CONTINUOUS
 10
11.0256
 20
6.5842
  0
VERTEX
  8
LAYER1
 62
     7
  6
CONTINUOUS
 10
11.0260
 20
6.5840
  0
VERTEX
  8
LAYER1
 62
     7
  6
CONTINUOUS
 10
11.0264
 20
6.5839
  0
VERTEX
  8
LAYER1
 62
     7
  6
CONTINUOUS
 10
11.0267
 20
6.5838
  0
VERTEX
  8
LAYER1
 62
     7
  6
CONTINUOUS
 10
11.0271
 20
6.5837
  0
VERTEX
  8
LAYER1
 62
     7
  6
CONTINUOUS
 10
11.0274
 20
6.5836
  0
VERTEX
  8
LAYER1
 62
     7
  6
CONTINUOUS
 10
11.0277
 20
6.5835
  0
VERTEX
  8
LAYER1
 62
     7
  6
CONTINUOUS
 10
11.0280
 20
6.5834
  0
VERTEX
  8
LAYER1
 62
     7
  6
CONTINUOUS
 10
11.0282
 20
6.5833
  0
VERTEX
  8
LAYER1
 62
     7
  6
CONTINUOUS
 10
11.0284
 20
6.5832
  0
VERTEX
  8
LAYER1
 62
     7
  6
CONTINUOUS
 10
11.0286
 20
6.5831
  0
VERTEX
  8
LAYER1
 62
     7
  6
CONTINUOUS
 10
11.0287
 20
6.5831
  0
VERTEX
  8
LAYER1
 62
     7
  6
CONTINUOUS
 10
11.0288
 20
6.5830
  0
VERTEX
  8
LAYER1
 62
     7
  6
CONTINUOUS
 10
11.0289
 20
6.5830
  0
VERTEX
  8
LAYER1
 62
     7
  6
CONTINUOUS
 10
11.0289
 20
6.5829
  0
VERTEX
  8
LAYER1
 62
     7
  6
CONTINUOUS
 10
11.0289
 20
6.5829
  0
VERTEX
  8
LAYER1
 62
     7
  6
CONTINUOUS
 10
11.0288
 20
6.5829
  0
VERTEX
  8
LAYER1
 62
     7
  6
CONTINUOUS
 10
11.0288
 20
6.5829
  0
VERTEX
  8
LAYER1
 62
     7
  6
CONTINUOUS
 10
11.0287
 20
6.5829
  0
VERTEX
  8
LAYER1
 62
     7
  6
CONTINUOUS
 10
11.0287
 20
6.5830
  0
VERTEX
  8
LAYER1
 62
     7
  6
CONTINUOUS
 10
11.0286
 20
6.5830
  0
VERTEX
  8
LAYER1
 62
     7
  6
CONTINUOUS
 10
11.0286
 20
6.5831
  0
VERTEX
  8
LAYER1
 62
     7
  6
CONTINUOUS
 10
11.0286
 20
6.5831
  0
VERTEX
  8
LAYER1
 62
     7
  6
CONTINUOUS
 10
11.0287
 20
6.5836
  0
VERTEX
  8
LAYER1
 62
     7
  6
CONTINUOUS
 10
11.0291
 20
6.5843
  0
VERTEX
  8
LAYER1
 62
     7
  6
CONTINUOUS
 10
11.0298
 20
6.5852
  0
VERTEX
  8
LAYER1
 62
     7
  6
CONTINUOUS
 10
11.0307
 20
6.5862
  0
VERTEX
  8
LAYER1
 62
     7
  6
CONTINUOUS
 10
11.0318
 20
6.5874
  0
VERTEX
  8
LAYER1
 62
     7
  6
CONTINUOUS
 10
11.0329
 20
6.5888
  0
VERTEX
  8
LAYER1
 62
     7
  6
CONTINUOUS
 10
11.0341
 20
6.5902
  0
VERTEX
  8
LAYER1
 62
     7
  6
CONTINUOUS
 10
11.0353
 20
6.5918
  0
VERTEX
  8
LAYER1
 62
     7
  6
CONTINUOUS
 10
11.0363
 20
6.5934
  0
VERTEX
  8
LAYER1
 62
     7
  6
CONTINUOUS
 10
11.0373
 20
6.5951
  0
VERTEX
  8
LAYER1
 62
     7
  6
CONTINUOUS
 10
11.0380
 20
6.5968
  0
VERTEX
  8
LAYER1
 62
     7
  6
CONTINUOUS
 10
11.0385
 20
6.5984
  0
VERTEX
  8
LAYER1
 62
     7
  6
CONTINUOUS
 10
11.0387
 20
6.6001
  0
VERTEX
  8
LAYER1
 62
     7
  6
CONTINUOUS
 10
11.0387
 20
6.6017
  0
VERTEX
  8
LAYER1
 62
     7
  6
CONTINUOUS
 10
11.0384
 20
6.6033
  0
VERTEX
  8
LAYER1
 62
     7
  6
CONTINUOUS
 10
11.0378
 20
6.6048
  0
VERTEX
  8
LAYER1
 62
     7
  6
CONTINUOUS
 10
11.0371
 20
6.6063
  0
VERTEX
  8
LAYER1
 62
     7
  6
CONTINUOUS
 10
11.0361
 20
6.6077
  0
VERTEX
  8
LAYER1
 62
     7
  6
CONTINUOUS
 10
11.0350
 20
6.6090
  0
VERTEX
  8
LAYER1
 62
     7
  6
CONTINUOUS
 10
11.0338
 20
6.6101
  0
VERTEX
  8
LAYER1
 62
     7
  6
CONTINUOUS
 10
11.0325
 20
6.6112
  0
VERTEX
  8
LAYER1
 62
     7
  6
CONTINUOUS
 10
11.0311
 20
6.6121
  0
VERTEX
  8
LAYER1
 62
     7
  6
CONTINUOUS
 10
11.0297
 20
6.6129
  0
VERTEX
  8
LAYER1
 62
     7
  6
CONTINUOUS
 10
11.0282
 20
6.6135
  0
VERTEX
  8
LAYER1
 62
     7
  6
CONTINUOUS
 10
11.0280
 20
6.6137
  0
VERTEX
  8
LAYER1
 62
     7
  6
CONTINUOUS
 10
11.0277
 20
6.6138
  0
VERTEX
  8
LAYER1
 62
     7
  6
CONTINUOUS
 10
11.0274
 20
6.6138
  0
VERTEX
  8
LAYER1
 62
     7
  6
CONTINUOUS
 10
11.0271
 20
6.6139
  0
VERTEX
  8
LAYER1
 62
     7
  6
CONTINUOUS
 10
11.0268
 20
6.6140
  0
VERTEX
  8
LAYER1
 62
     7
  6
CONTINUOUS
 10
11.0265
 20
6.6141
  0
VERTEX
  8
LAYER1
 62
     7
  6
CONTINUOUS
 10
11.0262
 20
6.6142
  0
VERTEX
  8
LAYER1
 62
     7
  6
CONTINUOUS
 10
11.0260
 20
6.6143
  0
VERTEX
  8
LAYER1
 62
     7
  6
CONTINUOUS
 10
11.0257
 20
6.6143
  0
VERTEX
  8
LAYER1
 62
     7
  6
CONTINUOUS
 10
11.0254
 20
6.6144
  0
VERTEX
  8
LAYER1
 62
     7
  6
CONTINUOUS
 10
11.0251
 20
6.6145
  0
VERTEX
  8
LAYER1
 62
     7
  6
CONTINUOUS
 10
11.0248
 20
6.6146
  0
SEQEND
  8
LAYER1
  0
ARC
  8
LAYER1
 62
     7
  6
CONTINUOUS
 10
11.0241
 20
6.5248
 40
0.0076
 50
-23.1278
 51
84.8792
  0
POLYLINE
  8
LAYER1
 62
     7
 66
     1
  6
CONTINUOUS
  0
VERTEX
  8
LAYER1
 62
     7
  6
CONTINUOUS
 10
11.0207
 20
6.5857
  0
VERTEX
  8
LAYER1
 62
     7
  6
CONTINUOUS
 10
11.0211
 20
6.5856
  0
VERTEX
  8
LAYER1
 62
     7
  6
CONTINUOUS
 10
11.0216
 20
6.5854
  0
VERTEX
  8
LAYER1
 62
     7
  6
CONTINUOUS
 10
11.0220
 20
6.5853
  0
VERTEX
  8
LAYER1
 62
     7
  6
CONTINUOUS
 10
11.0224
 20
6.5852
  0
VERTEX
  8
LAYER1
 62
     7
  6
CONTINUOUS
 10
11.0228
 20
6.5850
  0
VERTEX
  8
LAYER1
 62
     7
  6
CONTINUOUS
 10
11.0231
 20
6.5849
  0
VERTEX
  8
LAYER1
 62
     7
  6
CONTINUOUS
 10
11.0235
 20
6.5848
  0
VERTEX
  8
LAYER1
 62
     7
  6
CONTINUOUS
 10
11.0238
 20
6.5847
  0
VERTEX
  8
LAYER1
 62
     7
  6
CONTINUOUS
 10
11.0241
 20
6.5846
  0
VERTEX
  8
LAYER1
 62
     7
  6
CONTINUOUS
 10
11.0244
 20
6.5845
  0
VERTEX
  8
LAYER1
 62
     7
  6
CONTINUOUS
 10
11.0246
 20
6.5845
  0
VERTEX
  8
LAYER1
 62
     7
  6
CONTINUOUS
 10
11.0248
 20
6.5844
  0
VERTEX
  8
LAYER1
 62
     7
  6
CONTINUOUS
 10
11.0250
 20
6.5843
  0
VERTEX
  8
LAYER1
 62
     7
  6
CONTINUOUS
 10
11.0251
 20
6.5843
  0
VERTEX
  8
LAYER1
 62
     7
  6
CONTINUOUS
 10
11.0252
 20
6.5843
  0
VERTEX
  8
LAYER1
 62
     7
  6
CONTINUOUS
 10
11.0252
 20
6.5843
  0
VERTEX
  8
LAYER1
 62
     7
  6
CONTINUOUS
 10
11.0252
 20
6.5843
  0
VERTEX
  8
LAYER1
 62
     7
  6
CONTINUOUS
 10
11.0252
 20
6.5843
  0
VERTEX
  8
LAYER1
 62
     7
  6
CONTINUOUS
 10
11.0252
 20
6.5843
  0
VERTEX
  8
LAYER1
 62
     7
  6
CONTINUOUS
 10
11.0251
 20
6.5843
  0
VERTEX
  8
LAYER1
 62
     7
  6
CONTINUOUS
 10
11.0251
 20
6.5843
  0
VERTEX
  8
LAYER1
 62
     7
  6
CONTINUOUS
 10
11.0250
 20
6.5843
  0
VERTEX
  8
LAYER1
 62
     7
  6
CONTINUOUS
 10
11.0249
 20
6.5844
  0
VERTEX
  8
LAYER1
 62
     7
  6
CONTINUOUS
 10
11.0248
 20
6.5844
  0
SEQEND
  8
LAYER1
  0
POLYLINE
  8
LAYER1
 62
     7
 66
     1
  6
CONTINUOUS
  0
VERTEX
  8
LAYER1
 62
     7
  6
CONTINUOUS
 10
11.0248
 20
6.6146
  0
VERTEX
  8
LAYER1
 62
     7
  6
CONTINUOUS
 10
11.0244
 20
6.6147
  0
VERTEX
  8
LAYER1
 62
     7
  6
CONTINUOUS
 10
11.0240
 20
6.6148
  0
VERTEX
  8
LAYER1
 62
     7
  6
CONTINUOUS
 10
11.0236
 20
6.6149
  0
VERTEX
  8
LAYER1
 62
     7
  6
CONTINUOUS
 10
11.0232
 20
6.6150
  0
VERTEX
  8
LAYER1
 62
     7
  6
CONTINUOUS
 10
11.0228
 20
6.6152
  0
VERTEX
  8
LAYER1
 62
     7
  6
CONTINUOUS
 10
11.0224
 20
6.6153
  0
VERTEX
  8
LAYER1
 62
     7
  6
CONTINUOUS
 10
11.0220
 20
6.6154
  0
VERTEX
  8
LAYER1
 62
     7
  6
CONTINUOUS
 10
11.0217
 20
6.6155
  0
VERTEX
  8
LAYER1
 62
     7
  6
CONTINUOUS
 10
11.0214
 20
6.6155
  0
VERTEX
  8
LAYER1
 62
     7
  6
CONTINUOUS
 10
11.0211
 20
6.6156
  0
VERTEX
  8
LAYER1
 62
     7
  6
CONTINUOUS
 10
11.0209
 20
6.6157
  0
VERTEX
  8
LAYER1
 62
     7
  6
CONTINUOUS
 10
11.0207
 20
6.6157
  0
VERTEX
  8
LAYER1
 62
     7
  6
CONTINUOUS
 10
11.0205
 20
6.6158
  0
VERTEX
  8
LAYER1
 62
     7
  6
CONTINUOUS
 10
11.0204
 20
6.6158
  0
VERTEX
  8
LAYER1
 62
     7
  6
CONTINUOUS
 10
11.0203
 20
6.6159
  0
VERTEX
  8
LAYER1
 62
     7
  6
CONTINUOUS
 10
11.0203
 20
6.6159
  0
VERTEX
  8
LAYER1
 62
     7
  6
CONTINUOUS
 10
11.0203
 20
6.6159
  0
VERTEX
  8
LAYER1
 62
     7
  6
CONTINUOUS
 10
11.0203
 20
6.6159
  0
VERTEX
  8
LAYER1
 62
     7
  6
CONTINUOUS
 10
11.0203
 20
6.6159
  0
VERTEX
  8
LAYER1
 62
     7
  6
CONTINUOUS
 10
11.0204
 20
6.6158
  0
VERTEX
  8
LAYER1
 62
     7
  6
CONTINUOUS
 10
11.0205
 20
6.6158
  0
VERTEX
  8
LAYER1
 62
     7
  6
CONTINUOUS
 10
11.0205
 20
6.6158
  0
VERTEX
  8
LAYER1
 62
     7
  6
CONTINUOUS
 10
11.0206
 20
6.6158
  0
VERTEX
  8
LAYER1
 62
     7
  6
CONTINUOUS
 10
11.0207
 20
6.6157
  0
SEQEND
  8
LAYER1
  0
ARC
  8
LAYER1
 62
     7
  6
CONTINUOUS
 10
11.0572
 20
6.5150
 40
0.0129
 50
25.6500
 51
154.3482
  0
ARC
  8
LAYER1
 62
     7
  6
CONTINUOUS
 10
11.0241
 20
6.5248
 40
0.0076
 50
-33.2392
 51
-23.1306
  0
ARC
  8
LAYER1
 62
     7
  6
CONTINUOUS
 10
11.0241
 20
6.5248
 40
0.0076
 50
-33.2392
 51
116.8530
  0
POLYLINE
  8
LAYER10
 62
     1
 66
     1
  6
CONTINUOUS
  0
VERTEX
  8
LAYER10
 62
     1
  6
CONTINUOUS
 10
11.0248
 20
6.9498
  0
VERTEX
  8
LAYER10
 62
     1
  6
CONTINUOUS
 10
11.0252
 20
6.9497
  0
VERTEX
  8
LAYER10
 62
     1
  6
CONTINUOUS
 10
11.0256
 20
6.9495
  0
VERTEX
  8
LAYER10
 62
     1
  6
CONTINUOUS
 10
11.0260
 20
6.9494
  0
VERTEX
  8
LAYER10
 62
     1
  6
CONTINUOUS
 10
11.0264
 20
6.9493
  0
VERTEX
  8
LAYER10
 62
     1
  6
CONTINUOUS
 10
11.0268
 20
6.9491
  0
VERTEX
  8
LAYER10
 62
     1
  6
CONTINUOUS
 10
11.0272
 20
6.9490
  0
VERTEX
  8
LAYER10
 62
     1
  6
CONTINUOUS
 10
11.0276
 20
6.9489
  0
VERTEX
  8
LAYER10
 62
     1
  6
CONTINUOUS
 10
11.0280
 20
6.9487
  0
VERTEX
  8
LAYER10
 62
     1
  6
CONTINUOUS
 10
11.0284
 20
6.9486
  0
VERTEX
  8
LAYER10
 62
     1
  6
CONTINUOUS
 10
11.0288
 20
6.9484
  0
VERTEX
  8
LAYER10
 62
     1
  6
CONTINUOUS
 10
11.0292
 20
6.9483
  0
VERTEX
  8
LAYER10
 62
     1
  6
CONTINUOUS
 10
11.0296
 20
6.9481
  0
VERTEX
  8
LAYER10
 62
     1
  6
CONTINUOUS
 10
11.0338
 20
6.9464
  0
VERTEX
  8
LAYER10
 62
     1
  6
CONTINUOUS
 10
11.0378
 20
6.9443
  0
VERTEX
  8
LAYER10
 62
     1
  6
CONTINUOUS
 10
11.0418
 20
6.9421
  0
VERTEX
  8
LAYER10
 62
     1
  6
CONTINUOUS
 10
11.0456
 20
6.9396
  0
VERTEX
  8
LAYER10
 62
     1
  6
CONTINUOUS
 10
11.0494
 20
6.9370
  0
VERTEX
  8
LAYER10
 62
     1
  6
CONTINUOUS
 10
11.0531
 20
6.9344
  0
VERTEX
  8
LAYER10
 62
     1
  6
CONTINUOUS
 10
11.0568
 20
6.9316
  0
VERTEX
  8
LAYER10
 62
     1
  6
CONTINUOUS
 10
11.0605
 20
6.9288
  0
VERTEX
  8
LAYER10
 62
     1
  6
CONTINUOUS
 10
11.0642
 20
6.9261
  0
VERTEX
  8
LAYER10
 62
     1
  6
CONTINUOUS
 10
11.0679
 20
6.9233
  0
VERTEX
  8
LAYER10
 62
     1
  6
CONTINUOUS
 10
11.0717
 20
6.9207
  0
VERTEX
  8
LAYER10
 62
     1
  6
CONTINUOUS
 10
11.0755
 20
6.9182
  0
VERTEX
  8
LAYER10
 62
     1
  6
CONTINUOUS
 10
11.0780
 20
6.9168
  0
VERTEX
  8
LAYER10
 62
     1
  6
CONTINUOUS
 10
11.0804
 20
6.9154
  0
VERTEX
  8
LAYER10
 62
     1
  6
CONTINUOUS
 10
11.0829
 20
6.9140
  0
VERTEX
  8
LAYER10
 62
     1
  6
CONTINUOUS
 10
11.0854
 20
6.9127
  0
VERTEX
  8
LAYER10
 62
     1
  6
CONTINUOUS
 10
11.0879
 20
6.9115
  0
VERTEX
  8
LAYER10
 62
     1
  6
CONTINUOUS
 10
11.0905
 20
6.9103
  0
VERTEX
  8
LAYER10
 62
     1
  6
CONTINUOUS
 10
11.0931
 20
6.9091
  0
VERTEX
  8
LAYER10
 62
     1
  6
CONTINUOUS
 10
11.0957
 20
6.9079
  0
VERTEX
  8
LAYER10
 62
     1
  6
CONTINUOUS
 10
11.0983
 20
6.9068
  0
VERTEX
  8
LAYER10
 62
     1
  6
CONTINUOUS
 10
11.1009
 20
6.9056
  0
VERTEX
  8
LAYER10
 62
     1
  6
CONTINUOUS
 10
11.1035
 20
6.9045
  0
VERTEX
  8
LAYER10
 62
     1
  6
CONTINUOUS
 10
11.1061
 20
6.9034
  0
VERTEX
  8
LAYER10
 62
     1
  6
CONTINUOUS
 10
11.1107
 20
6.9014
  0
VERTEX
  8
LAYER10
 62
     1
  6
CONTINUOUS
 10
11.1153
 20
6.8994
  0
VERTEX
  8
LAYER10
 62
     1
  6
CONTINUOUS
 10
11.1198
 20
6.8973
  0
VERTEX
  8
LAYER10
 62
     1
  6
CONTINUOUS
 10
11.1243
 20
6.8952
  0
VERTEX
  8
LAYER10
 62
     1
  6
CONTINUOUS
 10
11.1288
 20
6.8930
  0
VERTEX
  8
LAYER10
 62
     1
  6
CONTINUOUS
 10
11.1332
 20
6.8907
  0
VERTEX
  8
LAYER10
 62
     1
  6
CONTINUOUS
 10
11.1375
 20
6.8882
  0
VERTEX
  8
LAYER10
 62
     1
  6
CONTINUOUS
 10
11.1417
 20
6.8856
  0
VERTEX
  8
LAYER10
 62
     1
  6
CONTINUOUS
 10
11.1457
 20
6.8829
  0
VERTEX
  8
LAYER10
 62
     1
  6
CONTINUOUS
 10
11.1497
 20
6.8800
  0
VERTEX
  8
LAYER10
 62
     1
  6
CONTINUOUS
 10
11.1535
 20
6.8768
  0
VERTEX
  8
LAYER10
 62
     1
  6
CONTINUOUS
 10
11.1572
 20
6.8735
  0
VERTEX
  8
LAYER10
 62
     1
  6
CONTINUOUS
 10
11.1580
 20
6.8727
  0
VERTEX
  8
LAYER10
 62
     1
  6
CONTINUOUS
 10
11.1589
 20
6.8718
  0
VERTEX
  8
LAYER10
 62
     1
  6
CONTINUOUS
 10
11.1597
 20
6.8710
  0
VERTEX
  8
LAYER10
 62
     1
  6
CONTINUOUS
 10
11.1605
 20
6.8701
  0
VERTEX
  8
LAYER10
 62
     1
  6
CONTINUOUS
 10
11.1614
 20
6.8692
  0
VERTEX
  8
LAYER10
 62
     1
  6
CONTINUOUS
 10
11.1622
 20
6.8684
  0
VERTEX
  8
LAYER10
 62
     1
  6
CONTINUOUS
 10
11.1631
 20
6.8675
  0
VERTEX
  8
LAYER10
 62
     1
  6
CONTINUOUS
 10
11.1639
 20
6.8667
  0
VERTEX
  8
LAYER10
 62
     1
  6
CONTINUOUS
 10
11.1648
 20
6.8659
  0
VERTEX
  8
LAYER10
 62
     1
  6
CONTINUOUS
 10
11.1656
 20
6.8651
  0
VERTEX
  8
LAYER10
 62
     1
  6
CONTINUOUS
 10
11.1665
 20
6.8643
  0
VERTEX
  8
LAYER10
 62
     1
  6
CONTINUOUS
 10
11.1674
 20
6.8635
  0
VERTEX
  8
LAYER10
 62
     1
  6
CONTINUOUS
 10
11.1709
 20
6.8608
  0
VERTEX
  8
LAYER10
 62
     1
  6
CONTINUOUS
 10
11.1747
 20
6.8584
  0
VERTEX
  8
LAYER10
 62
     1
  6
CONTINUOUS
 10
11.1786
 20
6.8564
  0
VERTEX
  8
LAYER10
 62
     1
  6
CONTINUOUS
 10
11.1827
 20
6.8546
  0
VERTEX
  8
LAYER10
 62
     1
  6
CONTINUOUS
 10
11.1869
 20
6.8530
  0
VERTEX
  8
LAYER10
 62
     1
  6
CONTINUOUS
 10
11.1912
 20
6.8515
  0
VERTEX
  8
LAYER10
 62
     1
  6
CONTINUOUS
 10
11.1957
 20
6.8502
  0
VERTEX
  8
LAYER10
 62
     1
  6
CONTINUOUS
 10
11.2002
 20
6.8490
  0
VERTEX
  8
LAYER10
 62
     1
  6
CONTINUOUS
 10
11.2047
 20
6.8477
  0
VERTEX
  8
LAYER10
 62
     1
  6
CONTINUOUS
 10
11.2093
 20
6.8465
  0
VERTEX
  8
LAYER10
 62
     1
  6
CONTINUOUS
 10
11.2138
 20
6.8452
  0
VERTEX
  8
LAYER10
 62
     1
  6
CONTINUOUS
 10
11.2183
 20
6.8438
  0
VERTEX
  8
LAYER10
 62
     1
  6
CONTINUOUS
 10
11.2222
 20
6.8424
  0
VERTEX
  8
LAYER10
 62
     1
  6
CONTINUOUS
 10
11.2261
 20
6.8409
  0
VERTEX
  8
LAYER10
 62
     1
  6
CONTINUOUS
 10
11.2299
 20
6.8393
  0
VERTEX
  8
LAYER10
 62
     1
  6
CONTINUOUS
 10
11.2336
 20
6.8376
  0
VERTEX
  8
LAYER10
 62
     1
  6
CONTINUOUS
 10
11.2372
 20
6.8357
  0
VERTEX
  8
LAYER10
 62
     1
  6
CONTINUOUS
 10
11.2407
 20
6.8338
  0
VERTEX
  8
LAYER10
 62
     1
  6
CONTINUOUS
 10
11.2441
 20
6.8316
  0
VERTEX
  8
LAYER10
 62
     1
  6
CONTINUOUS
 10
11.2474
 20
6.8294
  0
VERTEX
  8
LAYER10
 62
     1
  6
CONTINUOUS
 10
11.2506
 20
6.8270
  0
VERTEX
  8
LAYER10
 62
     1
  6
CONTINUOUS
 10
11.2536
 20
6.8244
  0
VERTEX
  8
LAYER10
 62
     1
  6
CONTINUOUS
 10
11.2565
 20
6.8217
  0
VERTEX
  8
LAYER10
 62
     1
  6
CONTINUOUS
 10
11.2591
 20
6.8189
  0
VERTEX
  8
LAYER10
 62
     1
  6
CONTINUOUS
 10
11.2609
 20
6.8169
  0
VERTEX
  8
LAYER10
 62
     1
  6
CONTINUOUS
 10
11.2625
 20
6.8148
  0
VERTEX
  8
LAYER10
 62
     1
  6
CONTINUOUS
 10
11.2642
 20
6.8127
  0
VERTEX
  8
LAYER10
 62
     1
  6
CONTINUOUS
 10
11.2657
 20
6.8106
  0
VERTEX
  8
LAYER10
 62
     1
  6
CONTINUOUS
 10
11.2673
 20
6.8084
  0
VERTEX
  8
LAYER10
 62
     1
  6
CONTINUOUS
 10
11.2689
 20
6.8062
  0
VERTEX
  8
LAYER10
 62
     1
  6
CONTINUOUS
 10
11.2705
 20
6.8041
  0
VERTEX
  8
LAYER10
 62
     1
  6
CONTINUOUS
 10
11.2722
 20
6.8019
  0
VERTEX
  8
LAYER10
 62
     1
  6
CONTINUOUS
 10
11.2739
 20
6.7998
  0
VERTEX
  8
LAYER10
 62
     1
  6
CONTINUOUS
 10
11.2758
 20
6.7977
  0
VERTEX
  8
LAYER10
 62
     1
  6
CONTINUOUS
 10
11.2777
 20
6.7957
  0
VERTEX
  8
LAYER10
 62
     1
  6
CONTINUOUS
 10
11.2797
 20
6.7938
  0
VERTEX
  8
LAYER10
 62
     1
  6
CONTINUOUS
 10
11.2816
 20
6.7921
  0
VERTEX
  8
LAYER10
 62
     1
  6
CONTINUOUS
 10
11.2836
 20
6.7905
  0
VERTEX
  8
LAYER10
 62
     1
  6
CONTINUOUS
 10
11.2856
 20
6.7889
  0
VERTEX
  8
LAYER10
 62
     1
  6
CONTINUOUS
 10
11.2876
 20
6.7874
  0
VERTEX
  8
LAYER10
 62
     1
  6
CONTINUOUS
 10
11.2896
 20
6.7858
  0
VERTEX
  8
LAYER10
 62
     1
  6
CONTINUOUS
 10
11.2916
 20
6.7843
  0
VERTEX
  8
LAYER10
 62
     1
  6
CONTINUOUS
 10
11.2934
 20
6.7827
  0
VERTEX
  8
LAYER10
 62
     1
  6
CONTINUOUS
 10
11.2952
 20
6.7810
  0
VERTEX
  8
LAYER10
 62
     1
  6
CONTINUOUS
 10
11.2967
 20
6.7793
  0
VERTEX
  8
LAYER10
 62
     1
  6
CONTINUOUS
 10
11.2981
 20
6.7776
  0
VERTEX
  8
LAYER10
 62
     1
  6
CONTINUOUS
 10
11.2993
 20
6.7757
  0
VERTEX
  8
LAYER10
 62
     1
  6
CONTINUOUS
 10
11.3002
 20
6.7737
  0
VERTEX
  8
LAYER10
 62
     1
  6
CONTINUOUS
 10
11.3007
 20
6.7722
  0
VERTEX
  8
LAYER10
 62
     1
  6
CONTINUOUS
 10
11.3010
 20
6.7707
  0
VERTEX
  8
LAYER10
 62
     1
  6
CONTINUOUS
 10
11.3012
 20
6.7692
  0
VERTEX
  8
LAYER10
 62
     1
  6
CONTINUOUS
 10
11.3014
 20
6.7675
  0
VERTEX
  8
LAYER10
 62
     1
  6
CONTINUOUS
 10
11.3014
 20
6.7659
  0
VERTEX
  8
LAYER10
 62
     1
  6
CONTINUOUS
 10
11.3014
 20
6.7642
  0
VERTEX
  8
LAYER10
 62
     1
  6
CONTINUOUS
 10
11.3013
 20
6.7624
  0
VERTEX
  8
LAYER10
 62
     1
  6
CONTINUOUS
 10
11.3011
 20
6.7607
  0
VERTEX
  8
LAYER10
 62
     1
  6
CONTINUOUS
 10
11.3010
 20
6.7589
  0
VERTEX
  8
LAYER10
 62
     1
  6
CONTINUOUS
 10
11.3008
 20
6.7571
  0
VERTEX
  8
LAYER10
 62
     1
  6
CONTINUOUS
 10
11.3006
 20
6.7553
  0
VERTEX
  8
LAYER10
 62
     1
  6
CONTINUOUS
 10
11.3004
 20
6.7534
  0
VERTEX
  8
LAYER10
 62
     1
  6
CONTINUOUS
 10
11.3001
 20
6.7483
  0
VERTEX
  8
LAYER10
 62
     1
  6
CONTINUOUS
 10
11.2999
 20
6.7432
  0
VERTEX
  8
LAYER10
 62
     1
  6
CONTINUOUS
 10
11.2998
 20
6.7381
  0
VERTEX
  8
LAYER10
 62
     1
  6
CONTINUOUS
 10
11.2997
 20
6.7330
  0
VERTEX
  8
LAYER10
 62
     1
  6
CONTINUOUS
 10
11.2995
 20
6.7281
  0
VERTEX
  8
LAYER10
 62
     1
  6
CONTINUOUS
 10
11.2992
 20
6.7232
  0
VERTEX
  8
LAYER10
 62
     1
  6
CONTINUOUS
 10
11.2987
 20
6.7184
  0
VERTEX
  8
LAYER10
 62
     1
  6
CONTINUOUS
 10
11.2980
 20
6.7138
  0
VERTEX
  8
LAYER10
 62
     1
  6
CONTINUOUS
 10
11.2969
 20
6.7094
  0
VERTEX
  8
LAYER10
 62
     1
  6
CONTINUOUS
 10
11.2954
 20
6.7052
  0
VERTEX
  8
LAYER10
 62
     1
  6
CONTINUOUS
 10
11.2934
 20
6.7013
  0
VERTEX
  8
LAYER10
 62
     1
  6
CONTINUOUS
 10
11.2909
 20
6.6976
  0
VERTEX
  8
LAYER10
 62
     1
  6
CONTINUOUS
 10
11.2902
 20
6.6967
  0
VERTEX
  8
LAYER10
 62
     1
  6
CONTINUOUS
 10
11.2894
 20
6.6958
  0
VERTEX
  8
LAYER10
 62
     1
  6
CONTINUOUS
 10
11.2886
 20
6.6949
  0
VERTEX
  8
LAYER10
 62
     1
  6
CONTINUOUS
 10
11.2878
 20
6.6941
  0
VERTEX
  8
LAYER10
 62
     1
  6
CONTINUOUS
 10
11.2869
 20
6.6932
  0
VERTEX
  8
LAYER10
 62
     1
  6
CONTINUOUS
 10
11.2861
 20
6.6924
  0
VERTEX
  8
LAYER10
 62
     1
  6
CONTINUOUS
 10
11.2852
 20
6.6916
  0
VERTEX
  8
LAYER10
 62
     1
  6
CONTINUOUS
 10
11.2843
 20
6.6907
  0
VERTEX
  8
LAYER10
 62
     1
  6
CONTINUOUS
 10
11.2835
 20
6.6899
  0
VERTEX
  8
LAYER10
 62
     1
  6
CONTINUOUS
 10
11.2826
 20
6.6890
  0
VERTEX
  8
LAYER10
 62
     1
  6
CONTINUOUS
 10
11.2817
 20
6.6882
  0
VERTEX
  8
LAYER10
 62
     1
  6
CONTINUOUS
 10
11.2809
 20
6.6873
  0
VERTEX
  8
LAYER10
 62
     1
  6
CONTINUOUS
 10
11.2786
 20
6.6849
  0
VERTEX
  8
LAYER10
 62
     1
  6
CONTINUOUS
 10
11.2765
 20
6.6823
  0
VERTEX
  8
LAYER10
 62
     1
  6
CONTINUOUS
 10
11.2744
 20
6.6797
  0
VERTEX
  8
LAYER10
 62
     1
  6
CONTINUOUS
 10
11.2724
 20
6.6770
  0
VERTEX
  8
LAYER10
 62
     1
  6
CONTINUOUS
 10
11.2704
 20
6.6743
  0
VERTEX
  8
LAYER10
 62
     1
  6
CONTINUOUS
 10
11.2685
 20
6.6716
  0
VERTEX
  8
LAYER10
 62
     1
  6
CONTINUOUS
 10
11.2665
 20
6.6690
  0
VERTEX
  8
LAYER10
 62
     1
  6
CONTINUOUS
 10
11.2645
 20
6.6663
  0
VERTEX
  8
LAYER10
 62
     1
  6
CONTINUOUS
 10
11.2625
 20
6.6637
  0
VERTEX
  8
LAYER10
 62
     1
  6
CONTINUOUS
 10
11.2604
 20
6.6613
  0
VERTEX
  8
LAYER10
 62
     1
  6
CONTINUOUS
 10
11.2582
 20
6.6589
  0
VERTEX
  8
LAYER10
 62
     1
  6
CONTINUOUS
 10
11.2559
 20
6.6566
  0
VERTEX
  8
LAYER10
 62
     1
  6
CONTINUOUS
 10
11.2540
 20
6.6550
  0
VERTEX
  8
LAYER10
 62
     1
  6
CONTINUOUS
 10
11.2521
 20
6.6535
  0
VERTEX
  8
LAYER10
 62
     1
  6
CONTINUOUS
 10
11.2502
 20
6.6521
  0
VERTEX
  8
LAYER10
 62
     1
  6
CONTINUOUS
 10
11.2482
 20
6.6507
  0
VERTEX
  8
LAYER10
 62
     1
  6
CONTINUOUS
 10
11.2461
 20
6.6494
  0
VERTEX
  8
LAYER10
 62
     1
  6
CONTINUOUS
 10
11.2440
 20
6.6481
  0
VERTEX
  8
LAYER10
 62
     1
  6
CONTINUOUS
 10
11.2418
 20
6.6469
  0
VERTEX
  8
LAYER10
 62
     1
  6
CONTINUOUS
 10
11.2396
 20
6.6457
  0
VERTEX
  8
LAYER10
 62
     1
  6
CONTINUOUS
 10
11.2374
 20
6.6445
  0
VERTEX
  8
LAYER10
 62
     1
  6
CONTINUOUS
 10
11.2352
 20
6.6434
  0
VERTEX
  8
LAYER10
 62
     1
  6
CONTINUOUS
 10
11.2329
 20
6.6423
  0
VERTEX
  8
LAYER10
 62
     1
  6
CONTINUOUS
 10
11.2307
 20
6.6411
  0
VERTEX
  8
LAYER10
 62
     1
  6
CONTINUOUS
 10
11.2265
 20
6.6391
  0
VERTEX
  8
LAYER10
 62
     1
  6
CONTINUOUS
 10
11.2224
 20
6.6370
  0
VERTEX
  8
LAYER10
 62
     1
  6
CONTINUOUS
 10
11.2183
 20
6.6349
  0
VERTEX
  8
LAYER10
 62
     1
  6
CONTINUOUS
 10
11.2143
 20
6.6328
  0
VERTEX
  8
LAYER10
 62
     1
  6
CONTINUOUS
 10
11.2103
 20
6.6305
  0
VERTEX
  8
LAYER10
 62
     1
  6
CONTINUOUS
 10
11.2064
 20
6.6282
  0
VERTEX
  8
LAYER10
 62
     1
  6
CONTINUOUS
 10
11.2026
 20
6.6257
  0
VERTEX
  8
LAYER10
 62
     1
  6
CONTINUOUS
 10
11.1989
 20
6.6230
  0
VERTEX
  8
LAYER10
 62
     1
  6
CONTINUOUS
 10
11.1953
 20
6.6202
  0
VERTEX
  8
LAYER10
 62
     1
  6
CONTINUOUS
 10
11.1919
 20
6.6171
  0
VERTEX
  8
LAYER10
 62
     1
  6
CONTINUOUS
 10
11.1886
 20
6.6138
  0
VERTEX
  8
LAYER10
 62
     1
  6
CONTINUOUS
 10
11.1854
 20
6.6102
  0
VERTEX
  8
LAYER10
 62
     1
  6
CONTINUOUS
 10
11.1846
 20
6.6092
  0
VERTEX
  8
LAYER10
 62
     1
  6
CONTINUOUS
 10
11.1838
 20
6.6082
  0
VERTEX
  8
LAYER10
 62
     1
  6
CONTINUOUS
 10
11.1830
 20
6.6073
  0
VERTEX
  8
LAYER10
 62
     1
  6
CONTINUOUS
 10
11.1823
 20
6.6063
  0
VERTEX
  8
LAYER10
 62
     1
  6
CONTINUOUS
 10
11.1815
 20
6.6053
  0
VERTEX
  8
LAYER10
 62
     1
  6
CONTINUOUS
 10
11.1807
 20
6.6044
  0
VERTEX
  8
LAYER10
 62
     1
  6
CONTINUOUS
 10
11.1798
 20
6.6035
  0
VERTEX
  8
LAYER10
 62
     1
  6
CONTINUOUS
 10
11.1790
 20
6.6027
  0
VERTEX
  8
LAYER10
 62
     1
  6
CONTINUOUS
 10
11.1782
 20
6.6019
  0
VERTEX
  8
LAYER10
 62
     1
  6
CONTINUOUS
 10
11.1773
 20
6.6012
  0
VERTEX
  8
LAYER10
 62
     1
  6
CONTINUOUS
 10
11.1763
 20
6.6005
  0
VERTEX
  8
LAYER10
 62
     1
  6
CONTINUOUS
 10
11.1754
 20
6.6000
  0
VERTEX
  8
LAYER10
 62
     1
  6
CONTINUOUS
 10
11.1740
 20
6.5994
  0
VERTEX
  8
LAYER10
 62
     1
  6
CONTINUOUS
 10
11.1725
 20
6.5989
  0
VERTEX
  8
LAYER10
 62
     1
  6
CONTINUOUS
 10
11.1709
 20
6.5987
  0
VERTEX
  8
LAYER10
 62
     1
  6
CONTINUOUS
 10
11.1693
 20
6.5985
  0
VERTEX
  8
LAYER10
 62
     1
  6
CONTINUOUS
 10
11.1676
 20
6.5985
  0
VERTEX
  8
LAYER10
 62
     1
  6
CONTINUOUS
 10
11.1659
 20
6.5985
  0
VERTEX
  8
LAYER10
 62
     1
  6
CONTINUOUS
 10
11.1642
 20
6.5987
  0
VERTEX
  8
LAYER10
 62
     1
  6
CONTINUOUS
 10
11.1624
 20
6.5989
  0
VERTEX
  8
LAYER10
 62
     1
  6
CONTINUOUS
 10
11.1606
 20
6.5991
  0
VERTEX
  8
LAYER10
 62
     1
  6
CONTINUOUS
 10
11.1588
 20
6.5993
  0
VERTEX
  8
LAYER10
 62
     1
  6
CONTINUOUS
 10
11.1569
 20
6.5996
  0
VERTEX
  8
LAYER10
 62
     1
  6
CONTINUOUS
 10
11.1551
 20
6.5997
  0
VERTEX
  8
LAYER10
 62
     1
  6
CONTINUOUS
 10
11.1510
 20
6.6000
  0
VERTEX
  8
LAYER10
 62
     1
  6
CONTINUOUS
 10
11.1470
 20
6.6000
  0
VERTEX
  8
LAYER10
 62
     1
  6
CONTINUOUS
 10
11.1430
 20
6.5999
  0
VERTEX
  8
LAYER10
 62
     1
  6
CONTINUOUS
 10
11.1391
 20
6.5997
  0
VERTEX
  8
LAYER10
 62
     1
  6
CONTINUOUS
 10
11.1352
 20
6.5994
  0
VERTEX
  8
LAYER10
 62
     1
  6
CONTINUOUS
 10
11.1314
 20
6.5990
  0
VERTEX
  8
LAYER10
 62
     1
  6
CONTINUOUS
 10
11.1276
 20
6.5987
  0
VERTEX
  8
LAYER10
 62
     1
  6
CONTINUOUS
 10
11.1239
 20
6.5985
  0
VERTEX
  8
LAYER10
 62
     1
  6
CONTINUOUS
 10
11.1202
 20
6.5984
  0
VERTEX
  8
LAYER10
 62
     1
  6
CONTINUOUS
 10
11.1166
 20
6.5984
  0
VERTEX
  8
LAYER10
 62
     1
  6
CONTINUOUS
 10
11.1130
 20
6.5987
  0
VERTEX
  8
LAYER10
 62
     1
  6
CONTINUOUS
 10
11.1095
 20
6.5992
  0
VERTEX
  8
LAYER10
 62
     1
  6
CONTINUOUS
 10
11.1056
 20
6.6002
  0
VERTEX
  8
LAYER10
 62
     1
  6
CONTINUOUS
 10
11.1017
 20
6.6016
  0
VERTEX
  8
LAYER10
 62
     1
  6
CONTINUOUS
 10
11.0979
 20
6.6033
  0
VERTEX
  8
LAYER10
 62
     1
  6
CONTINUOUS
 10
11.0941
 20
6.6052
  0
VERTEX
  8
LAYER10
 62
     1
  6
CONTINUOUS
 10
11.0903
 20
6.6074
  0
VERTEX
  8
LAYER10
 62
     1
  6
CONTINUOUS
 10
11.0866
 20
6.6097
  0
VERTEX
  8
LAYER10
 62
     1
  6
CONTINUOUS
 10
11.0828
 20
6.6121
  0
VERTEX
  8
LAYER10
 62
     1
  6
CONTINUOUS
 10
11.0790
 20
6.6146
  0
VERTEX
  8
LAYER10
 62
     1
  6
CONTINUOUS
 10
11.0753
 20
6.6171
  0
VERTEX
  8
LAYER10
 62
     1
  6
CONTINUOUS
 10
11.0714
 20
6.6195
  0
VERTEX
  8
LAYER10
 62
     1
  6
CONTINUOUS
 10
11.0675
 20
6.6219
  0
VERTEX
  8
LAYER10
 62
     1
  6
CONTINUOUS
 10
11.0636
 20
6.6241
  0
VERTEX
  8
LAYER10
 62
     1
  6
CONTINUOUS
 10
11.0605
 20
6.6257
  0
VERTEX
  8
LAYER10
 62
     1
  6
CONTINUOUS
 10
11.0573
 20
6.6272
  0
VERTEX
  8
LAYER10
 62
     1
  6
CONTINUOUS
 10
11.0541
 20
6.6287
  0
VERTEX
  8
LAYER10
 62
     1
  6
CONTINUOUS
 10
11.0509
 20
6.6301
  0
VERTEX
  8
LAYER10
 62
     1
  6
CONTINUOUS
 10
11.0478
 20
6.6315
  0
VERTEX
  8
LAYER10
 62
     1
  6
CONTINUOUS
 10
11.0447
 20
6.6329
  0
VERTEX
  8
LAYER10
 62
     1
  6
CONTINUOUS
 10
11.0416
 20
6.6345
  0
VERTEX
  8
LAYER10
 62
     1
  6
CONTINUOUS
 10
11.0387
 20
6.6361
  0
VERTEX
  8
LAYER10
 62
     1
  6
CONTINUOUS
 10
11.0358
 20
6.6378
  0
VERTEX
  8
LAYER10
 62
     1
  6
CONTINUOUS
 10
11.0330
 20
6.6396
  0
VERTEX
  8
LAYER10
 62
     1
  6
CONTINUOUS
 10
11.0304
 20
6.6417
  0
VERTEX
  8
LAYER10
 62
     1
  6
CONTINUOUS
 10
11.0279
 20
6.6440
  0
VERTEX
  8
LAYER10
 62
     1
  6
CONTINUOUS
 10
11.0276
 20
6.6442
  0
VERTEX
  8
LAYER10
 62
     1
  6
CONTINUOUS
 10
11.0274
 20
6.6445
  0
VERTEX
  8
LAYER10
 62
     1
  6
CONTINUOUS
 10
11.0271
 20
6.6448
  0
VERTEX
  8
LAYER10
 62
     1
  6
CONTINUOUS
 10
11.0268
 20
6.6450
  0
VERTEX
  8
LAYER10
 62
     1
  6
CONTINUOUS
 10
11.0266
 20
6.6453
  0
VERTEX
  8
LAYER10
 62
     1
  6
CONTINUOUS
 10
11.0263
 20
6.6456
  0
VERTEX
  8
LAYER10
 62
     1
  6
CONTINUOUS
 10
11.0261
 20
6.6458
  0
VERTEX
  8
LAYER10
 62
     1
  6
CONTINUOUS
 10
11.0258
 20
6.6461
  0
VERTEX
  8
LAYER10
 62
     1
  6
CONTINUOUS
 10
11.0256
 20
6.6464
  0
VERTEX
  8
LAYER10
 62
     1
  6
CONTINUOUS
 10
11.0253
 20
6.6467
  0
VERTEX
  8
LAYER10
 62
     1
  6
CONTINUOUS
 10
11.0251
 20
6.6470
  0
VERTEX
  8
LAYER10
 62
     1
  6
CONTINUOUS
 10
11.0248
 20
6.6472
  0
SEQEND
  8
LAYER10
  0
POLYLINE
  8
LAYER10
 62
     1
 66
     1
  6
CONTINUOUS
  0
VERTEX
  8
LAYER10
 62
     1
  6
CONTINUOUS
 10
11.2092
 20
7.5417
  0
VERTEX
  8
LAYER10
 62
     1
  6
CONTINUOUS
 10
11.2117
 20
7.5399
  0
VERTEX
  8
LAYER10
 62
     1
  6
CONTINUOUS
 10
11.2141
 20
7.5382
  0
VERTEX
  8
LAYER10
 62
     1
  6
CONTINUOUS
 10
11.2165
 20
7.5364
  0
VERTEX
  8
LAYER10
 62
     1
  6
CONTINUOUS
 10
11.2189
 20
7.5346
  0
VERTEX
  8
LAYER10
 62
     1
  6
CONTINUOUS
 10
11.2211
 20
7.5327
  0
VERTEX
  8
LAYER10
 62
     1
  6
CONTINUOUS
 10
11.2231
 20
7.5308
  0
VERTEX
  8
LAYER10
 62
     1
  6
CONTINUOUS
 10
11.2250
 20
7.5289
  0
VERTEX
  8
LAYER10
 62
     1
  6
CONTINUOUS
 10
11.2268
 20
7.5269
  0
VERTEX
  8
LAYER10
 62
     1
  6
CONTINUOUS
 10
11.2282
 20
7.5248
  0
VERTEX
  8
LAYER10
 62
     1
  6
CONTINUOUS
 10
11.2295
 20
7.5227
  0
VERTEX
  8
LAYER10
 62
     1
  6
CONTINUOUS
 10
11.2304
 20
7.5205
  0
VERTEX
  8
LAYER10
 62
     1
  6
CONTINUOUS
 10
11.2311
 20
7.5181
  0
VERTEX
  8
LAYER10
 62
     1
  6
CONTINUOUS
 10
11.2314
 20
7.5162
  0
VERTEX
  8
LAYER10
 62
     1
  6
CONTINUOUS
 10
11.2315
 20
7.5142
  0
VERTEX
  8
LAYER10
 62
     1
  6
CONTINUOUS
 10
11.2314
 20
7.5122
  0
VERTEX
  8
LAYER10
 62
     1
  6
CONTINUOUS
 10
11.2312
 20
7.5101
  0
VERTEX
  8
LAYER10
 62
     1
  6
CONTINUOUS
 10
11.2309
 20
7.5080
  0
VERTEX
  8
LAYER10
 62
     1
  6
CONTINUOUS
 10
11.2304
 20
7.5059
  0
VERTEX
  8
LAYER10
 62
     1
  6
CONTINUOUS
 10
11.2298
 20
7.5037
  0
VERTEX
  8
LAYER10
 62
     1
  6
CONTINUOUS
 10
11.2292
 20
7.5015
  0
VERTEX
  8
LAYER10
 62
     1
  6
CONTINUOUS
 10
11.2285
 20
7.4993
  0
VERTEX
  8
LAYER10
 62
     1
  6
CONTINUOUS
 10
11.2278
 20
7.4971
  0
VERTEX
  8
LAYER10
 62
     1
  6
CONTINUOUS
 10
11.2270
 20
7.4949
  0
VERTEX
  8
LAYER10
 62
     1
  6
CONTINUOUS
 10
11.2263
 20
7.4927
  0
VERTEX
  8
LAYER10
 62
     1
  6
CONTINUOUS
 10
11.2256
 20
7.4904
  0
VERTEX
  8
LAYER10
 62
     1
  6
CONTINUOUS
 10
11.2248
 20
7.4882
  0
VERTEX
  8
LAYER10
 62
     1
  6
CONTINUOUS
 10
11.2241
 20
7.4859
  0
VERTEX
  8
LAYER10
 62
     1
  6
CONTINUOUS
 10
11.2234
 20
7.4837
  0
VERTEX
  8
LAYER10
 62
     1
  6
CONTINUOUS
 10
11.2227
 20
7.4815
  0
VERTEX
  8
LAYER10
 62
     1
  6
CONTINUOUS
 10
11.2219
 20
7.4794
  0
VERTEX
  8
LAYER10
 62
     1
  6
CONTINUOUS
 10
11.2212
 20
7.4773
  0
VERTEX
  8
LAYER10
 62
     1
  6
CONTINUOUS
 10
11.2203
 20
7.4752
  0
VERTEX
  8
LAYER10
 62
     1
  6
CONTINUOUS
 10
11.2195
 20
7.4731
  0
VERTEX
  8
LAYER10
 62
     1
  6
CONTINUOUS
 10
11.2185
 20
7.4711
  0
VERTEX
  8
LAYER10
 62
     1
  6
CONTINUOUS
 10
11.2176
 20
7.4692
  0
VERTEX
  8
LAYER10
 62
     1
  6
CONTINUOUS
 10
11.2165
 20
7.4673
  0
VERTEX
  8
LAYER10
 62
     1
  6
CONTINUOUS
 10
11.2136
 20
7.4630
  0
VERTEX
  8
LAYER10
 62
     1
  6
CONTINUOUS
 10
11.2103
 20
7.4589
  0
VERTEX
  8
LAYER10
 62
     1
  6
CONTINUOUS
 10
11.2066
 20
7.4551
  0
VERTEX
  8
LAYER10
 62
     1
  6
CONTINUOUS
 10
11.2027
 20
7.4513
  0
VERTEX
  8
LAYER10
 62
     1
  6
CONTINUOUS
 10
11.1986
 20
7.4477
  0
VERTEX
  8
LAYER10
 62
     1
  6
CONTINUOUS
 10
11.1944
 20
7.4441
  0
VERTEX
  8
LAYER10
 62
     1
  6
CONTINUOUS
 10
11.1901
 20
7.4406
  0
VERTEX
  8
LAYER10
 62
     1
  6
CONTINUOUS
 10
11.1859
 20
7.4370
  0
VERTEX
  8
LAYER10
 62
     1
  6
CONTINUOUS
 10
11.1819
 20
7.4333
  0
VERTEX
  8
LAYER10
 62
     1
  6
CONTINUOUS
 10
11.1781
 20
7.4294
  0
VERTEX
  8
LAYER10
 62
     1
  6
CONTINUOUS
 10
11.1745
 20
7.4254
  0
VERTEX
  8
LAYER10
 62
     1
  6
CONTINUOUS
 10
11.1714
 20
7.4212
  0
VERTEX
  8
LAYER10
 62
     1
  6
CONTINUOUS
 10
11.1703
 20
7.4196
  0
VERTEX
  8
LAYER10
 62
     1
  6
CONTINUOUS
 10
11.1694
 20
7.4180
  0
VERTEX
  8
LAYER10
 62
     1
  6
CONTINUOUS
 10
11.1685
 20
7.4164
  0
VERTEX
  8
LAYER10
 62
     1
  6
CONTINUOUS
 10
11.1676
 20
7.4147
  0
VERTEX
  8
LAYER10
 62
     1
  6
CONTINUOUS
 10
11.1668
 20
7.4131
  0
VERTEX
  8
LAYER10
 62
     1
  6
CONTINUOUS
 10
11.1660
 20
7.4114
  0
VERTEX
  8
LAYER10
 62
     1
  6
CONTINUOUS
 10
11.1652
 20
7.4096
  0
VERTEX
  8
LAYER10
 62
     1
  6
CONTINUOUS
 10
11.1644
 20
7.4079
  0
VERTEX
  8
LAYER10
 62
     1
  6
CONTINUOUS
 10
11.1637
 20
7.4061
  0
VERTEX
  8
LAYER10
 62
     1
  6
CONTINUOUS
 10
11.1629
 20
7.4044
  0
VERTEX
  8
LAYER10
 62
     1
  6
CONTINUOUS
 10
11.1622
 20
7.4026
  0
VERTEX
  8
LAYER10
 62
     1
  6
CONTINUOUS
 10
11.1614
 20
7.4008
  0
VERTEX
  8
LAYER10
 62
     1
  6
CONTINUOUS
 10
11.1602
 20
7.3979
  0
VERTEX
  8
LAYER10
 62
     1
  6
CONTINUOUS
 10
11.1590
 20
7.3949
  0
VERTEX
  8
LAYER10
 62
     1
  6
CONTINUOUS
 10
11.1577
 20
7.3920
  0
VERTEX
  8
LAYER10
 62
     1
  6
CONTINUOUS
 10
11.1563
 20
7.3892
  0
VERTEX
  8
LAYER10
 62
     1
  6
CONTINUOUS
 10
11.1549
 20
7.3864
  0
VERTEX
  8
LAYER10
 62
     1
  6
CONTINUOUS
 10
11.1534
 20
7.3836
  0
VERTEX
  8
LAYER10
 62
     1
  6
CONTINUOUS
 10
11.1517
 20
7.3810
  0
VERTEX
  8
LAYER10
 62
     1
  6
CONTINUOUS
 10
11.1500
 20
7.3785
  0
VERTEX
  8
LAYER10
 62
     1
  6
CONTINUOUS
 10
11.1481
 20
7.3761
  0
VERTEX
  8
LAYER10
 62
     1
  6
CONTINUOUS
 10
11.1461
 20
7.3739
  0
VERTEX
  8
LAYER10
 62
     1
  6
CONTINUOUS
 10
11.1439
 20
7.3719
  0
VERTEX
  8
LAYER10
 62
     1
  6
CONTINUOUS
 10
11.1415
 20
7.3701
  0
VERTEX
  8
LAYER10
 62
     1
  6
CONTINUOUS
 10
11.1407
 20
7.3696
  0
VERTEX
  8
LAYER10
 62
     1
  6
CONTINUOUS
 10
11.1399
 20
7.3691
  0
VERTEX
  8
LAYER10
 62
     1
  6
CONTINUOUS
 10
11.1391
 20
7.3686
  0
VERTEX
  8
LAYER10
 62
     1
  6
CONTINUOUS
 10
11.1383
 20
7.3682
  0
VERTEX
  8
LAYER10
 62
     1
  6
CONTINUOUS
 10
11.1375
 20
7.3677
  0
VERTEX
  8
LAYER10
 62
     1
  6
CONTINUOUS
 10
11.1366
 20
7.3673
  0
VERTEX
  8
LAYER10
 62
     1
  6
CONTINUOUS
 10
11.1358
 20
7.3669
  0
VERTEX
  8
LAYER10
 62
     1
  6
CONTINUOUS
 10
11.1349
 20
7.3665
  0
VERTEX
  8
LAYER10
 62
     1
  6
CONTINUOUS
 10
11.1341
 20
7.3661
  0
VERTEX
  8
LAYER10
 62
     1
  6
CONTINUOUS
 10
11.1332
 20
7.3657
  0
VERTEX
  8
LAYER10
 62
     1
  6
CONTINUOUS
 10
11.1323
 20
7.3653
  0
VERTEX
  8
LAYER10
 62
     1
  6
CONTINUOUS
 10
11.1314
 20
7.3649
  0
VERTEX
  8
LAYER10
 62
     1
  6
CONTINUOUS
 10
11.1286
 20
7.3637
  0
VERTEX
  8
LAYER10
 62
     1
  6
CONTINUOUS
 10
11.1257
 20
7.3626
  0
VERTEX
  8
LAYER10
 62
     1
  6
CONTINUOUS
 10
11.1228
 20
7.3615
  0
VERTEX
  8
LAYER10
 62
     1
  6
CONTINUOUS
 10
11.1199
 20
7.3604
  0
VERTEX
  8
LAYER10
 62
     1
  6
CONTINUOUS
 10
11.1170
 20
7.3594
  0
VERTEX
  8
LAYER10
 62
     1
  6
CONTINUOUS
 10
11.1141
 20
7.3584
  0
VERTEX
  8
LAYER10
 62
     1
  6
CONTINUOUS
 10
11.1112
 20
7.3576
  0
VERTEX
  8
LAYER10
 62
     1
  6
CONTINUOUS
 10
11.1082
 20
7.3568
  0
VERTEX
  8
LAYER10
 62
     1
  6
CONTINUOUS
 10
11.1052
 20
7.3560
  0
VERTEX
  8
LAYER10
 62
     1
  6
CONTINUOUS
 10
11.1022
 20
7.3554
  0
VERTEX
  8
LAYER10
 62
     1
  6
CONTINUOUS
 10
11.0992
 20
7.3549
  0
VERTEX
  8
LAYER10
 62
     1
  6
CONTINUOUS
 10
11.0961
 20
7.3544
  0
VERTEX
  8
LAYER10
 62
     1
  6
CONTINUOUS
 10
11.0952
 20
7.3543
  0
VERTEX
  8
LAYER10
 62
     1
  6
CONTINUOUS
 10
11.0944
 20
7.3542
  0
VERTEX
  8
LAYER10
 62
     1
  6
CONTINUOUS
 10
11.0935
 20
7.3541
  0
VERTEX
  8
LAYER10
 62
     1
  6
CONTINUOUS
 10
11.0926
 20
7.3541
  0
VERTEX
  8
LAYER10
 62
     1
  6
CONTINUOUS
 10
11.0918
 20
7.3540
  0
VERTEX
  8
LAYER10
 62
     1
  6
CONTINUOUS
 10
11.0909
 20
7.3540
  0
VERTEX
  8
LAYER10
 62
     1
  6
CONTINUOUS
 10
11.0901
 20
7.3540
  0
VERTEX
  8
LAYER10
 62
     1
  6
CONTINUOUS
 10
11.0892
 20
7.3540
  0
VERTEX
  8
LAYER10
 62
     1
  6
CONTINUOUS
 10
11.0884
 20
7.3540
  0
VERTEX
  8
LAYER10
 62
     1
  6
CONTINUOUS
 10
11.0876
 20
7.3541
  0
VERTEX
  8
LAYER10
 62
     1
  6
CONTINUOUS
 10
11.0867
 20
7.3542
  0
VERTEX
  8
LAYER10
 62
     1
  6
CONTINUOUS
 10
11.0859
 20
7.3543
  0
VERTEX
  8
LAYER10
 62
     1
  6
CONTINUOUS
 10
11.0836
 20
7.3548
  0
VERTEX
  8
LAYER10
 62
     1
  6
CONTINUOUS
 10
11.0814
 20
7.3556
  0
VERTEX
  8
LAYER10
 62
     1
  6
CONTINUOUS
 10
11.0792
 20
7.3566
  0
VERTEX
  8
LAYER10
 62
     1
  6
CONTINUOUS
 10
11.0770
 20
7.3578
  0
VERTEX
  8
LAYER10
 62
     1
  6
CONTINUOUS
 10
11.0750
 20
7.3591
  0
VERTEX
  8
LAYER10
 62
     1
  6
CONTINUOUS
 10
11.0729
 20
7.3605
  0
VERTEX
  8
LAYER10
 62
     1
  6
CONTINUOUS
 10
11.0708
 20
7.3620
  0
VERTEX
  8
LAYER10
 62
     1
  6
CONTINUOUS
 10
11.0688
 20
7.3635
  0
VERTEX
  8
LAYER10
 62
     1
  6
CONTINUOUS
 10
11.0667
 20
7.3651
  0
VERTEX
  8
LAYER10
 62
     1
  6
CONTINUOUS
 10
11.0647
 20
7.3665
  0
VERTEX
  8
LAYER10
 62
     1
  6
CONTINUOUS
 10
11.0626
 20
7.3679
  0
VERTEX
  8
LAYER10
 62
     1
  6
CONTINUOUS
 10
11.0604
 20
7.3692
  0
VERTEX
  8
LAYER10
 62
     1
  6
CONTINUOUS
 10
11.0584
 20
7.3703
  0
VERTEX
  8
LAYER10
 62
     1
  6
CONTINUOUS
 10
11.0563
 20
7.3713
  0
VERTEX
  8
LAYER10
 62
     1
  6
CONTINUOUS
 10
11.0542
 20
7.3722
  0
VERTEX
  8
LAYER10
 62
     1
  6
CONTINUOUS
 10
11.0521
 20
7.3730
  0
VERTEX
  8
LAYER10
 62
     1
  6
CONTINUOUS
 10
11.0499
 20
7.3737
  0
VERTEX
  8
LAYER10
 62
     1
  6
CONTINUOUS
 10
11.0477
 20
7.3744
  0
VERTEX
  8
LAYER10
 62
     1
  6
CONTINUOUS
 10
11.0456
 20
7.3752
  0
VERTEX
  8
LAYER10
 62
     1
  6
CONTINUOUS
 10
11.0434
 20
7.3759
  0
VERTEX
  8
LAYER10
 62
     1
  6
CONTINUOUS
 10
11.0413
 20
7.3766
  0
VERTEX
  8
LAYER10
 62
     1
  6
CONTINUOUS
 10
11.0391
 20
7.3774
  0
VERTEX
  8
LAYER10
 62
     1
  6
CONTINUOUS
 10
11.0370
 20
7.3782
  0
VERTEX
  8
LAYER10
 62
     1
  6
CONTINUOUS
 10
11.0349
 20
7.3791
  0
VERTEX
  8
LAYER10
 62
     1
  6
CONTINUOUS
 10
11.0341
 20
7.3795
  0
VERTEX
  8
LAYER10
 62
     1
  6
CONTINUOUS
 10
11.0332
 20
7.3799
  0
VERTEX
  8
LAYER10
 62
     1
  6
CONTINUOUS
 10
11.0324
 20
7.3803
  0
VERTEX
  8
LAYER10
 62
     1
  6
CONTINUOUS
 10
11.0315
 20
7.3808
  0
VERTEX
  8
LAYER10
 62
     1
  6
CONTINUOUS
 10
11.0307
 20
7.3812
  0
VERTEX
  8
LAYER10
 62
     1
  6
CONTINUOUS
 10
11.0298
 20
7.3817
  0
VERTEX
  8
LAYER10
 62
     1
  6
CONTINUOUS
 10
11.0290
 20
7.3822
  0
VERTEX
  8
LAYER10
 62
     1
  6
CONTINUOUS
 10
11.0281
 20
7.3827
  0
VERTEX
  8
LAYER10
 62
     1
  6
CONTINUOUS
 10
11.0273
 20
7.3832
  0
VERTEX
  8
LAYER10
 62
     1
  6
CONTINUOUS
 10
11.0265
 20
7.3836
  0
VERTEX
  8
LAYER10
 62
     1
  6
CONTINUOUS
 10
11.0256
 20
7.3841
  0
VERTEX
  8
LAYER10
 62
     1
  6
CONTINUOUS
 10
11.0248
 20
7.3846
  0
SEQEND
  8
LAYER10
  0
POLYLINE
  8
LAYER10
 62
     1
 66
     1
  6
CONTINUOUS
  0
VERTEX
  8
LAYER10
 62
     1
  6
CONTINUOUS
 10
12.0559
 20
6.5717
  0
VERTEX
  8
LAYER10
 62
     1
  6
CONTINUOUS
 10
12.0559
 20
6.5717
  0
VERTEX
  8
LAYER10
 62
     1
  6
CONTINUOUS
 10
12.0559
 20
6.5717
  0
VERTEX
  8
LAYER10
 62
     1
  6
CONTINUOUS
 10
12.0559
 20
6.5717
  0
VERTEX
  8
LAYER10
 62
     1
  6
CONTINUOUS
 10
12.0559
 20
6.5717
  0
VERTEX
  8
LAYER10
 62
     1
  6
CONTINUOUS
 10
12.0559
 20
6.5717
  0
VERTEX
  8
LAYER10
 62
     1
  6
CONTINUOUS
 10
12.0559
 20
6.5717
  0
VERTEX
  8
LAYER10
 62
     1
  6
CONTINUOUS
 10
12.0559
 20
6.5717
  0
VERTEX
  8
LAYER10
 62
     1
  6
CONTINUOUS
 10
12.0559
 20
6.5717
  0
VERTEX
  8
LAYER10
 62
     1
  6
CONTINUOUS
 10
12.0559
 20
6.5717
  0
VERTEX
  8
LAYER10
 62
     1
  6
CONTINUOUS
 10
12.0559
 20
6.5717
  0
VERTEX
  8
LAYER10
 62
     1
  6
CONTINUOUS
 10
12.0559
 20
6.5717
  0
VERTEX
  8
LAYER10
 62
     1
  6
CONTINUOUS
 10
12.0559
 20
6.5717
  0
VERTEX
  8
LAYER10
 62
     1
  6
CONTINUOUS
 10
12.0559
 20
6.5721
  0
VERTEX
  8
LAYER10
 62
     1
  6
CONTINUOUS
 10
12.0559
 20
6.5723
  0
VERTEX
  8
LAYER10
 62
     1
  6
CONTINUOUS
 10
12.0559
 20
6.5725
  0
VERTEX
  8
LAYER10
 62
     1
  6
CONTINUOUS
 10
12.0559
 20
6.5726
  0
VERTEX
  8
LAYER10
 62
     1
  6
CONTINUOUS
 10
12.0559
 20
6.5726
  0
VERTEX
  8
LAYER10
 62
     1
  6
CONTINUOUS
 10
12.0559
 20
6.5726
  0
VERTEX
  8
LAYER10
 62
     1
  6
CONTINUOUS
 10
12.0559
 20
6.5725
  0
VERTEX
  8
LAYER10
 62
     1
  6
CONTINUOUS
 10
12.0559
 20
6.5724
  0
VERTEX
  8
LAYER10
 62
     1
  6
CONTINUOUS
 10
12.0559
 20
6.5722
  0
VERTEX
  8
LAYER10
 62
     1
  6
CONTINUOUS
 10
12.0559
 20
6.5721
  0
VERTEX
  8
LAYER10
 62
     1
  6
CONTINUOUS
 10
12.0559
 20
6.5719
  0
VERTEX
  8
LAYER10
 62
     1
  6
CONTINUOUS
 10
12.0559
 20
6.5717
  0
SEQEND
  8
LAYER10
  0
POLYLINE
  8
LAYER10
 62
     1
 66
     1
  6
CONTINUOUS
  0
VERTEX
  8
LAYER10
 62
     1
  6
CONTINUOUS
 10
12.0559
 20
6.5717
  0
VERTEX
  8
LAYER10
 62
     1
  6
CONTINUOUS
 10
12.0535
 20
6.5708
  0
VERTEX
  8
LAYER10
 62
     1
  6
CONTINUOUS
 10
12.0511
 20
6.5698
  0
VERTEX
  8
LAYER10
 62
     1
  6
CONTINUOUS
 10
12.0488
 20
6.5689
  0
VERTEX
  8
LAYER10
 62
     1
  6
CONTINUOUS
 10
12.0464
 20
6.5679
  0
VERTEX
  8
LAYER10
 62
     1
  6
CONTINUOUS
 10
12.0440
 20
6.5669
  0
VERTEX
  8
LAYER10
 62
     1
  6
CONTINUOUS
 10
12.0416
 20
6.5659
  0
VERTEX
  8
LAYER10
 62
     1
  6
CONTINUOUS
 10
12.0393
 20
6.5648
  0
VERTEX
  8
LAYER10
 62
     1
  6
CONTINUOUS
 10
12.0369
 20
6.5637
  0
VERTEX
  8
LAYER10
 62
     1
  6
CONTINUOUS
 10
12.0345
 20
6.5626
  0
VERTEX
  8
LAYER10
 62
     1
  6
CONTINUOUS
 10
12.0322
 20
6.5613
  0
VERTEX
  8
LAYER10
 62
     1
  6
CONTINUOUS
 10
12.0298
 20
6.5601
  0
VERTEX
  8
LAYER10
 62
     1
  6
CONTINUOUS
 10
12.0275
 20
6.5587
  0
VERTEX
  8
LAYER10
 62
     1
  6
CONTINUOUS
 10
12.0250
 20
6.5572
  0
VERTEX
  8
LAYER10
 62
     1
  6
CONTINUOUS
 10
12.0224
 20
6.5556
  0
VERTEX
  8
LAYER10
 62
     1
  6
CONTINUOUS
 10
12.0199
 20
6.5540
  0
VERTEX
  8
LAYER10
 62
     1
  6
CONTINUOUS
 10
12.0174
 20
6.5523
  0
VERTEX
  8
LAYER10
 62
     1
  6
CONTINUOUS
 10
12.0149
 20
6.5508
  0
VERTEX
  8
LAYER10
 62
     1
  6
CONTINUOUS
 10
12.0124
 20
6.5492
  0
VERTEX
  8
LAYER10
 62
     1
  6
CONTINUOUS
 10
12.0099
 20
6.5478
  0
VERTEX
  8
LAYER10
 62
     1
  6
CONTINUOUS
 10
12.0074
 20
6.5465
  0
VERTEX
  8
LAYER10
 62
     1
  6
CONTINUOUS
 10
12.0048
 20
6.5454
  0
VERTEX
  8
LAYER10
 62
     1
  6
CONTINUOUS
 10
12.0023
 20
6.5444
  0
VERTEX
  8
LAYER10
 62
     1
  6
CONTINUOUS
 10
11.9998
 20
6.5437
  0
VERTEX
  8
LAYER10
 62
     1
  6
CONTINUOUS
 10
11.9973
 20
6.5432
  0
VERTEX
  8
LAYER10
 62
     1
  6
CONTINUOUS
 10
11.9949
 20
6.5430
  0
VERTEX
  8
LAYER10
 62
     1
  6
CONTINUOUS
 10
11.9924
 20
6.5430
  0
VERTEX
  8
LAYER10
 62
     1
  6
CONTINUOUS
 10
11.9900
 20
6.5432
  0
VERTEX
  8
LAYER10
 62
     1
  6
CONTINUOUS
 10
11.9876
 20
6.5437
  0
VERTEX
  8
LAYER10
 62
     1
  6
CONTINUOUS
 10
11.9851
 20
6.5443
  0
VERTEX
  8
LAYER10
 62
     1
  6
CONTINUOUS
 10
11.9826
 20
6.5451
  0
VERTEX
  8
LAYER10
 62
     1
  6
CONTINUOUS
 10
11.9800
 20
6.5461
  0
VERTEX
  8
LAYER10
 62
     1
  6
CONTINUOUS
 10
11.9775
 20
6.5472
  0
VERTEX
  8
LAYER10
 62
     1
  6
CONTINUOUS
 10
11.9748
 20
6.5485
  0
VERTEX
  8
LAYER10
 62
     1
  6
CONTINUOUS
 10
11.9722
 20
6.5499
  0
VERTEX
  8
LAYER10
 62
     1
  6
CONTINUOUS
 10
11.9695
 20
6.5514
  0
VERTEX
  8
LAYER10
 62
     1
  6
CONTINUOUS
 10
11.9667
 20
6.5530
  0
VERTEX
  8
LAYER10
 62
     1
  6
CONTINUOUS
 10
11.9583
 20
6.5581
  0
VERTEX
  8
LAYER10
 62
     1
  6
CONTINUOUS
 10
11.9497
 20
6.5637
  0
VERTEX
  8
LAYER10
 62
     1
  6
CONTINUOUS
 10
11.9409
 20
6.5697
  0
VERTEX
  8
LAYER10
 62
     1
  6
CONTINUOUS
 10
11.9322
 20
6.5758
  0
VERTEX
  8
LAYER10
 62
     1
  6
CONTINUOUS
 10
11.9239
 20
6.5819
  0
VERTEX
  8
LAYER10
 62
     1
  6
CONTINUOUS
 10
11.9160
 20
6.5877
  0
VERTEX
  8
LAYER10
 62
     1
  6
CONTINUOUS
 10
11.9088
 20
6.5932
  0
VERTEX
  8
LAYER10
 62
     1
  6
CONTINUOUS
 10
11.9025
 20
6.5980
  0
VERTEX
  8
LAYER10
 62
     1
  6
CONTINUOUS
 10
11.8973
 20
6.6021
  0
VERTEX
  8
LAYER10
 62
     1
  6
CONTINUOUS
 10
11.8934
 20
6.6052
  0
VERTEX
  8
LAYER10
 62
     1
  6
CONTINUOUS
 10
11.8909
 20
6.6072
  0
VERTEX
  8
LAYER10
 62
     1
  6
CONTINUOUS
 10
11.8901
 20
6.6079
  0
VERTEX
  8
LAYER10
 62
     1
  6
CONTINUOUS
 10
11.8901
 20
6.6079
  0
VERTEX
  8
LAYER10
 62
     1
  6
CONTINUOUS
 10
11.8901
 20
6.6079
  0
VERTEX
  8
LAYER10
 62
     1
  6
CONTINUOUS
 10
11.8901
 20
6.6079
  0
VERTEX
  8
LAYER10
 62
     1
  6
CONTINUOUS
 10
11.8901
 20
6.6079
  0
VERTEX
  8
LAYER10
 62
     1
  6
CONTINUOUS
 10
11.8901
 20
6.6079
  0
VERTEX
  8
LAYER10
 62
     1
  6
CONTINUOUS
 10
11.8901
 20
6.6079
  0
VERTEX
  8
LAYER10
 62
     1
  6
CONTINUOUS
 10
11.8901
 20
6.6079
  0
VERTEX
  8
LAYER10
 62
     1
  6
CONTINUOUS
 10
11.8901
 20
6.6079
  0
VERTEX
  8
LAYER10
 62
     1
  6
CONTINUOUS
 10
11.8901
 20
6.6079
  0
VERTEX
  8
LAYER10
 62
     1
  6
CONTINUOUS
 10
11.8901
 20
6.6079
  0
VERTEX
  8
LAYER10
 62
     1
  6
CONTINUOUS
 10
11.8901
 20
6.6079
  0
VERTEX
  8
LAYER10
 62
     1
  6
CONTINUOUS
 10
11.8901
 20
6.6079
  0
VERTEX
  8
LAYER10
 62
     1
  6
CONTINUOUS
 10
11.8896
 20
6.6083
  0
VERTEX
  8
LAYER10
 62
     1
  6
CONTINUOUS
 10
11.8886
 20
6.6090
  0
VERTEX
  8
LAYER10
 62
     1
  6
CONTINUOUS
 10
11.8873
 20
6.6101
  0
VERTEX
  8
LAYER10
 62
     1
  6
CONTINUOUS
 10
11.8855
 20
6.6114
  0
VERTEX
  8
LAYER10
 62
     1
  6
CONTINUOUS
 10
11.8835
 20
6.6130
  0
VERTEX
  8
LAYER10
 62
     1
  6
CONTINUOUS
 10
11.8811
 20
6.6148
  0
VERTEX
  8
LAYER10
 62
     1
  6
CONTINUOUS
 10
11.8786
 20
6.6168
  0
VERTEX
  8
LAYER10
 62
     1
  6
CONTINUOUS
 10
11.8759
 20
6.6189
  0
VERTEX
  8
LAYER10
 62
     1
  6
CONTINUOUS
 10
11.8731
 20
6.6211
  0
VERTEX
  8
LAYER10
 62
     1
  6
CONTINUOUS
 10
11.8702
 20
6.6234
  0
VERTEX
  8
LAYER10
 62
     1
  6
CONTINUOUS
 10
11.8673
 20
6.6257
  0
VERTEX
  8
LAYER10
 62
     1
  6
CONTINUOUS
 10
11.8645
 20
6.6279
  0
VERTEX
  8
LAYER10
 62
     1
  6
CONTINUOUS
 10
11.8589
 20
6.6324
  0
VERTEX
  8
LAYER10
 62
     1
  6
CONTINUOUS
 10
11.8536
 20
6.6366
  0
VERTEX
  8
LAYER10
 62
     1
  6
CONTINUOUS
 10
11.8487
 20
6.6407
  0
VERTEX
  8
LAYER10
 62
     1
  6
CONTINUOUS
 10
11.8441
 20
6.6445
  0
VERTEX
  8
LAYER10
 62
     1
  6
CONTINUOUS
 10
11.8398
 20
6.6482
  0
VERTEX
  8
LAYER10
 62
     1
  6
CONTINUOUS
 10
11.8357
 20
6.6518
  0
VERTEX
  8
LAYER10
 62
     1
  6
CONTINUOUS
 10
11.8317
 20
6.6553
  0
VERTEX
  8
LAYER10
 62
     1
  6
CONTINUOUS
 10
11.8279
 20
6.6587
  0
VERTEX
  8
LAYER10
 62
     1
  6
CONTINUOUS
 10
11.8242
 20
6.6622
  0
VERTEX
  8
LAYER10
 62
     1
  6
CONTINUOUS
 10
11.8206
 20
6.6657
  0
VERTEX
  8
LAYER10
 62
     1
  6
CONTINUOUS
 10
11.8170
 20
6.6693
  0
VERTEX
  8
LAYER10
 62
     1
  6
CONTINUOUS
 10
11.8133
 20
6.6730
  0
VERTEX
  8
LAYER10
 62
     1
  6
CONTINUOUS
 10
11.8104
 20
6.6760
  0
VERTEX
  8
LAYER10
 62
     1
  6
CONTINUOUS
 10
11.8074
 20
6.6790
  0
VERTEX
  8
LAYER10
 62
     1
  6
CONTINUOUS
 10
11.8044
 20
6.6822
  0
VERTEX
  8
LAYER10
 62
     1
  6
CONTINUOUS
 10
11.8014
 20
6.6854
  0
VERTEX
  8
LAYER10
 62
     1
  6
CONTINUOUS
 10
11.7984
 20
6.6887
  0
VERTEX
  8
LAYER10
 62
     1
  6
CONTINUOUS
 10
11.7953
 20
6.6921
  0
VERTEX
  8
LAYER10
 62
     1
  6
CONTINUOUS
 10
11.7923
 20
6.6955
  0
VERTEX
  8
LAYER10
 62
     1
  6
CONTINUOUS
 10
11.7892
 20
6.6989
  0
VERTEX
  8
LAYER10
 62
     1
  6
CONTINUOUS
 10
11.7862
 20
6.7024
  0
VERTEX
  8
LAYER10
 62
     1
  6
CONTINUOUS
 10
11.7833
 20
6.7060
  0
VERTEX
  8
LAYER10
 62
     1
  6
CONTINUOUS
 10
11.7803
 20
6.7095
  0
VERTEX
  8
LAYER10
 62
     1
  6
CONTINUOUS
 10
11.7774
 20
6.7131
  0
VERTEX
  8
LAYER10
 62
     1
  6
CONTINUOUS
 10
11.7751
 20
6.7160
  0
VERTEX
  8
LAYER10
 62
     1
  6
CONTINUOUS
 10
11.7728
 20
6.7189
  0
VERTEX
  8
LAYER10
 62
     1
  6
CONTINUOUS
 10
11.7705
 20
6.7218
  0
VERTEX
  8
LAYER10
 62
     1
  6
CONTINUOUS
 10
11.7683
 20
6.7248
  0
VERTEX
  8
LAYER10
 62
     1
  6
CONTINUOUS
 10
11.7661
 20
6.7277
  0
VERTEX
  8
LAYER10
 62
     1
  6
CONTINUOUS
 10
11.7640
 20
6.7306
  0
VERTEX
  8
LAYER10
 62
     1
  6
CONTINUOUS
 10
11.7618
 20
6.7336
  0
VERTEX
  8
LAYER10
 62
     1
  6
CONTINUOUS
 10
11.7597
 20
6.7365
  0
VERTEX
  8
LAYER10
 62
     1
  6
CONTINUOUS
 10
11.7577
 20
6.7395
  0
VERTEX
  8
LAYER10
 62
     1
  6
CONTINUOUS
 10
11.7556
 20
6.7424
  0
VERTEX
  8
LAYER10
 62
     1
  6
CONTINUOUS
 10
11.7536
 20
6.7453
  0
VERTEX
  8
LAYER10
 62
     1
  6
CONTINUOUS
 10
11.7516
 20
6.7483
  0
VERTEX
  8
LAYER10
 62
     1
  6
CONTINUOUS
 10
11.7485
 20
6.7531
  0
VERTEX
  8
LAYER10
 62
     1
  6
CONTINUOUS
 10
11.7454
 20
6.7578
  0
VERTEX
  8
LAYER10
 62
     1
  6
CONTINUOUS
 10
11.7424
 20
6.7626
  0
VERTEX
  8
LAYER10
 62
     1
  6
CONTINUOUS
 10
11.7395
 20
6.7675
  0
VERTEX
  8
LAYER10
 62
     1
  6
CONTINUOUS
 10
11.7365
 20
6.7724
  0
VERTEX
  8
LAYER10
 62
     1
  6
CONTINUOUS
 10
11.7336
 20
6.7773
  0
VERTEX
  8
LAYER10
 62
     1
  6
CONTINUOUS
 10
11.7306
 20
6.7823
  0
VERTEX
  8
LAYER10
 62
     1
  6
CONTINUOUS
 10
11.7277
 20
6.7874
  0
VERTEX
  8
LAYER10
 62
     1
  6
CONTINUOUS
 10
11.7247
 20
6.7925
  0
VERTEX
  8
LAYER10
 62
     1
  6
CONTINUOUS
 10
11.7217
 20
6.7978
  0
VERTEX
  8
LAYER10
 62
     1
  6
CONTINUOUS
 10
11.7186
 20
6.8032
  0
VERTEX
  8
LAYER10
 62
     1
  6
CONTINUOUS
 10
11.7155
 20
6.8087
  0
VERTEX
  8
LAYER10
 62
     1
  6
CONTINUOUS
 10
11.7138
 20
6.8117
  0
VERTEX
  8
LAYER10
 62
     1
  6
CONTINUOUS
 10
11.7122
 20
6.8147
  0
VERTEX
  8
LAYER10
 62
     1
  6
CONTINUOUS
 10
11.7106
 20
6.8176
  0
VERTEX
  8
LAYER10
 62
     1
  6
CONTINUOUS
 10
11.7091
 20
6.8207
  0
VERTEX
  8
LAYER10
 62
     1
  6
CONTINUOUS
 10
11.7077
 20
6.8237
  0
VERTEX
  8
LAYER10
 62
     1
  6
CONTINUOUS
 10
11.7065
 20
6.8267
  0
VERTEX
  8
LAYER10
 62
     1
  6
CONTINUOUS
 10
11.7055
 20
6.8297
  0
VERTEX
  8
LAYER10
 62
     1
  6
CONTINUOUS
 10
11.7048
 20
6.8326
  0
VERTEX
  8
LAYER10
 62
     1
  6
CONTINUOUS
 10
11.7043
 20
6.8356
  0
VERTEX
  8
LAYER10
 62
     1
  6
CONTINUOUS
 10
11.7042
 20
6.8385
  0
VERTEX
  8
LAYER10
 62
     1
  6
CONTINUOUS
 10
11.7044
 20
6.8413
  0
VERTEX
  8
LAYER10
 62
     1
  6
CONTINUOUS
 10
11.7050
 20
6.8441
  0
VERTEX
  8
LAYER10
 62
     1
  6
CONTINUOUS
 10
11.7054
 20
6.8455
  0
VERTEX
  8
LAYER10
 62
     1
  6
CONTINUOUS
 10
11.7060
 20
6.8468
  0
VERTEX
  8
LAYER10
 62
     1
  6
CONTINUOUS
 10
11.7066
 20
6.8481
  0
VERTEX
  8
LAYER10
 62
     1
  6
CONTINUOUS
 10
11.7073
 20
6.8494
  0
VERTEX
  8
LAYER10
 62
     1
  6
CONTINUOUS
 10
11.7081
 20
6.8507
  0
VERTEX
  8
LAYER10
 62
     1
  6
CONTINUOUS
 10
11.7090
 20
6.8520
  0
VERTEX
  8
LAYER10
 62
     1
  6
CONTINUOUS
 10
11.7099
 20
6.8533
  0
VERTEX
  8
LAYER10
 62
     1
  6
CONTINUOUS
 10
11.7108
 20
6.8545
  0
VERTEX
  8
LAYER10
 62
     1
  6
CONTINUOUS
 10
11.7118
 20
6.8558
  0
VERTEX
  8
LAYER10
 62
     1
  6
CONTINUOUS
 10
11.7128
 20
6.8570
  0
VERTEX
  8
LAYER10
 62
     1
  6
CONTINUOUS
 10
11.7139
 20
6.8582
  0
VERTEX
  8
LAYER10
 62
     1
  6
CONTINUOUS
 10
11.7149
 20
6.8594
  0
VERTEX
  8
LAYER10
 62
     1
  6
CONTINUOUS
 10
11.7174
 20
6.8622
  0
VERTEX
  8
LAYER10
 62
     1
  6
CONTINUOUS
 10
11.7199
 20
6.8649
  0
VERTEX
  8
LAYER10
 62
     1
  6
CONTINUOUS
 10
11.7224
 20
6.8675
  0
VERTEX
  8
LAYER10
 62
     1
  6
CONTINUOUS
 10
11.7249
 20
6.8701
  0
VERTEX
  8
LAYER10
 62
     1
  6
CONTINUOUS
 10
11.7274
 20
6.8727
  0
VERTEX
  8
LAYER10
 62
     1
  6
CONTINUOUS
 10
11.7299
 20
6.8752
  0
VERTEX
  8
LAYER10
 62
     1
  6
CONTINUOUS
 10
11.7325
 20
6.8777
  0
VERTEX
  8
LAYER10
 62
     1
  6
CONTINUOUS
 10
11.7350
 20
6.8802
  0
VERTEX
  8
LAYER10
 62
     1
  6
CONTINUOUS
 10
11.7375
 20
6.8827
  0
VERTEX
  8
LAYER10
 62
     1
  6
CONTINUOUS
 10
11.7400
 20
6.8852
  0
VERTEX
  8
LAYER10
 62
     1
  6
CONTINUOUS
 10
11.7425
 20
6.8877
  0
VERTEX
  8
LAYER10
 62
     1
  6
CONTINUOUS
 10
11.7450
 20
6.8902
  0
VERTEX
  8
LAYER10
 62
     1
  6
CONTINUOUS
 10
11.7475
 20
6.8927
  0
VERTEX
  8
LAYER10
 62
     1
  6
CONTINUOUS
 10
11.7500
 20
6.8952
  0
VERTEX
  8
LAYER10
 62
     1
  6
CONTINUOUS
 10
11.7525
 20
6.8978
  0
VERTEX
  8
LAYER10
 62
     1
  6
CONTINUOUS
 10
11.7549
 20
6.9004
  0
VERTEX
  8
LAYER10
 62
     1
  6
CONTINUOUS
 10
11.7574
 20
6.9030
  0
VERTEX
  8
LAYER10
 62
     1
  6
CONTINUOUS
 10
11.7599
 20
6.9055
  0
VERTEX
  8
LAYER10
 62
     1
  6
CONTINUOUS
 10
11.7624
 20
6.9081
  0
VERTEX
  8
LAYER10
 62
     1
  6
CONTINUOUS
 10
11.7649
 20
6.9107
  0
VERTEX
  8
LAYER10
 62
     1
  6
CONTINUOUS
 10
11.7674
 20
6.9133
  0
VERTEX
  8
LAYER10
 62
     1
  6
CONTINUOUS
 10
11.7699
 20
6.9158
  0
VERTEX
  8
LAYER10
 62
     1
  6
CONTINUOUS
 10
11.7725
 20
6.9184
  0
VERTEX
  8
LAYER10
 62
     1
  6
CONTINUOUS
 10
11.7751
 20
6.9209
  0
VERTEX
  8
LAYER10
 62
     1
  6
CONTINUOUS
 10
11.7786
 20
6.9243
  0
VERTEX
  8
LAYER10
 62
     1
  6
CONTINUOUS
 10
11.7821
 20
6.9276
  0
VERTEX
  8
LAYER10
 62
     1
  6
CONTINUOUS
 10
11.7857
 20
6.9309
  0
VERTEX
  8
LAYER10
 62
     1
  6
CONTINUOUS
 10
11.7894
 20
6.9341
  0
VERTEX
  8
LAYER10
 62
     1
  6
CONTINUOUS
 10
11.7931
 20
6.9372
  0
VERTEX
  8
LAYER10
 62
     1
  6
CONTINUOUS
 10
11.7968
 20
6.9403
  0
VERTEX
  8
LAYER10
 62
     1
  6
CONTINUOUS
 10
11.8006
 20
6.9433
  0
VERTEX
  8
LAYER10
 62
     1
  6
CONTINUOUS
 10
11.8044
 20
6.9462
  0
VERTEX
  8
LAYER10
 62
     1
  6
CONTINUOUS
 10
11.8083
 20
6.9490
  0
VERTEX
  8
LAYER10
 62
     1
  6
CONTINUOUS
 10
11.8123
 20
6.9517
  0
VERTEX
  8
LAYER10
 62
     1
  6
CONTINUOUS
 10
11.8163
 20
6.9544
  0
VERTEX
  8
LAYER10
 62
     1
  6
CONTINUOUS
 10
11.8203
 20
6.9569
  0
VERTEX
  8
LAYER10
 62
     1
  6
CONTINUOUS
 10
11.8243
 20
6.9593
  0
VERTEX
  8
LAYER10
 62
     1
  6
CONTINUOUS
 10
11.8284
 20
6.9616
  0
VERTEX
  8
LAYER10
 62
     1
  6
CONTINUOUS
 10
11.8325
 20
6.9638
  0
VERTEX
  8
LAYER10
 62
     1
  6
CONTINUOUS
 10
11.8366
 20
6.9660
  0
VERTEX
  8
LAYER10
 62
     1
  6
CONTINUOUS
 10
11.8408
 20
6.9681
  0
VERTEX
  8
LAYER10
 62
     1
  6
CONTINUOUS
 10
11.8450
 20
6.9702
  0
VERTEX
  8
LAYER10
 62
     1
  6
CONTINUOUS
 10
11.8493
 20
6.9722
  0
VERTEX
  8
LAYER10
 62
     1
  6
CONTINUOUS
 10
11.8535
 20
6.9743
  0
VERTEX
  8
LAYER10
 62
     1
  6
CONTINUOUS
 10
11.8578
 20
6.9764
  0
VERTEX
  8
LAYER10
 62
     1
  6
CONTINUOUS
 10
11.8621
 20
6.9785
  0
VERTEX
  8
LAYER10
 62
     1
  6
CONTINUOUS
 10
11.8664
 20
6.9806
  0
VERTEX
  8
LAYER10
 62
     1
  6
CONTINUOUS
 10
11.8707
 20
6.9828
  0
VERTEX
  8
LAYER10
 62
     1
  6
CONTINUOUS
 10
11.8740
 20
6.9845
  0
VERTEX
  8
LAYER10
 62
     1
  6
CONTINUOUS
 10
11.8773
 20
6.9863
  0
VERTEX
  8
LAYER10
 62
     1
  6
CONTINUOUS
 10
11.8806
 20
6.9880
  0
VERTEX
  8
LAYER10
 62
     1
  6
CONTINUOUS
 10
11.8840
 20
6.9897
  0
VERTEX
  8
LAYER10
 62
     1
  6
CONTINUOUS
 10
11.8873
 20
6.9913
  0
VERTEX
  8
LAYER10
 62
     1
  6
CONTINUOUS
 10
11.8907
 20
6.9928
  0
VERTEX
  8
LAYER10
 62
     1
  6
CONTINUOUS
 10
11.8940
 20
6.9942
  0
VERTEX
  8
LAYER10
 62
     1
  6
CONTINUOUS
 10
11.8974
 20
6.9955
  0
VERTEX
  8
LAYER10
 62
     1
  6
CONTINUOUS
 10
11.9008
 20
6.9966
  0
VERTEX
  8
LAYER10
 62
     1
  6
CONTINUOUS
 10
11.9042
 20
6.9974
  0
VERTEX
  8
LAYER10
 62
     1
  6
CONTINUOUS
 10
11.9076
 20
6.9981
  0
VERTEX
  8
LAYER10
 62
     1
  6
CONTINUOUS
 10
11.9111
 20
6.9985
  0
VERTEX
  8
LAYER10
 62
     1
  6
CONTINUOUS
 10
11.9150
 20
6.9986
  0
VERTEX
  8
LAYER10
 62
     1
  6
CONTINUOUS
 10
11.9189
 20
6.9983
  0
VERTEX
  8
LAYER10
 62
     1
  6
CONTINUOUS
 10
11.9228
 20
6.9978
  0
VERTEX
  8
LAYER10
 62
     1
  6
CONTINUOUS
 10
11.9267
 20
6.9970
  0
VERTEX
  8
LAYER10
 62
     1
  6
CONTINUOUS
 10
11.9306
 20
6.9959
  0
VERTEX
  8
LAYER10
 62
     1
  6
CONTINUOUS
 10
11.9344
 20
6.9947
  0
VERTEX
  8
LAYER10
 62
     1
  6
CONTINUOUS
 10
11.9383
 20
6.9932
  0
VERTEX
  8
LAYER10
 62
     1
  6
CONTINUOUS
 10
11.9421
 20
6.9915
  0
VERTEX
  8
LAYER10
 62
     1
  6
CONTINUOUS
 10
11.9459
 20
6.9898
  0
VERTEX
  8
LAYER10
 62
     1
  6
CONTINUOUS
 10
11.9496
 20
6.9878
  0
VERTEX
  8
LAYER10
 62
     1
  6
CONTINUOUS
 10
11.9533
 20
6.9858
  0
VERTEX
  8
LAYER10
 62
     1
  6
CONTINUOUS
 10
11.9569
 20
6.9838
  0
VERTEX
  8
LAYER10
 62
     1
  6
CONTINUOUS
 10
11.9601
 20
6.9819
  0
VERTEX
  8
LAYER10
 62
     1
  6
CONTINUOUS
 10
11.9632
 20
6.9799
  0
VERTEX
  8
LAYER10
 62
     1
  6
CONTINUOUS
 10
11.9663
 20
6.9779
  0
VERTEX
  8
LAYER10
 62
     1
  6
CONTINUOUS
 10
11.9693
 20
6.9759
  0
VERTEX
  8
LAYER10
 62
     1
  6
CONTINUOUS
 10
11.9723
 20
6.9739
  0
VERTEX
  8
LAYER10
 62
     1
  6
CONTINUOUS
 10
11.9753
 20
6.9718
  0
VERTEX
  8
LAYER10
 62
     1
  6
CONTINUOUS
 10
11.9782
 20
6.9697
  0
VERTEX
  8
LAYER10
 62
     1
  6
CONTINUOUS
 10
11.9811
 20
6.9676
  0
VERTEX
  8
LAYER10
 62
     1
  6
CONTINUOUS
 10
11.9840
 20
6.9654
  0
VERTEX
  8
LAYER10
 62
     1
  6
CONTINUOUS
 10
11.9869
 20
6.9632
  0
VERTEX
  8
LAYER10
 62
     1
  6
CONTINUOUS
 10
11.9898
 20
6.9610
  0
VERTEX
  8
LAYER10
 62
     1
  6
CONTINUOUS
 10
11.9926
 20
6.9588
  0
VERTEX
  8
LAYER10
 62
     1
  6
CONTINUOUS
 10
11.9955
 20
6.9566
  0
VERTEX
  8
LAYER10
 62
     1
  6
CONTINUOUS
 10
11.9983
 20
6.9544
  0
VERTEX
  8
LAYER10
 62
     1
  6
CONTINUOUS
 10
12.0012
 20
6.9521
  0
VERTEX
  8
LAYER10
 62
     1
  6
CONTINUOUS
 10
12.0040
 20
6.9498
  0
VERTEX
  8
LAYER10
 62
     1
  6
CONTINUOUS
 10
12.0067
 20
6.9474
  0
VERTEX
  8
LAYER10
 62
     1
  6
CONTINUOUS
 10
12.0094
 20
6.9450
  0
VERTEX
  8
LAYER10
 62
     1
  6
CONTINUOUS
 10
12.0120
 20
6.9425
  0
VERTEX
  8
LAYER10
 62
     1
  6
CONTINUOUS
 10
12.0145
 20
6.9399
  0
VERTEX
  8
LAYER10
 62
     1
  6
CONTINUOUS
 10
12.0169
 20
6.9372
  0
VERTEX
  8
LAYER10
 62
     1
  6
CONTINUOUS
 10
12.0192
 20
6.9345
  0
VERTEX
  8
LAYER10
 62
     1
  6
CONTINUOUS
 10
12.0214
 20
6.9317
  0
VERTEX
  8
LAYER10
 62
     1
  6
CONTINUOUS
 10
12.0234
 20
6.9287
  0
VERTEX
  8
LAYER10
 62
     1
  6
CONTINUOUS
 10
12.0249
 20
6.9264
  0
VERTEX
  8
LAYER10
 62
     1
  6
CONTINUOUS
 10
12.0263
 20
6.9239
  0
VERTEX
  8
LAYER10
 62
     1
  6
CONTINUOUS
 10
12.0276
 20
6.9214
  0
VERTEX
  8
LAYER10
 62
     1
  6
CONTINUOUS
 10
12.0289
 20
6.9189
  0
VERTEX
  8
LAYER10
 62
     1
  6
CONTINUOUS
 10
12.0301
 20
6.9163
  0
VERTEX
  8
LAYER10
 62
     1
  6
CONTINUOUS
 10
12.0313
 20
6.9137
  0
VERTEX
  8
LAYER10
 62
     1
  6
CONTINUOUS
 10
12.0325
 20
6.9112
  0
VERTEX
  8
LAYER10
 62
     1
  6
CONTINUOUS
 10
12.0337
 20
6.9086
  0
VERTEX
  8
LAYER10
 62
     1
  6
CONTINUOUS
 10
12.0349
 20
6.9060
  0
VERTEX
  8
LAYER10
 62
     1
  6
CONTINUOUS
 10
12.0362
 20
6.9035
  0
VERTEX
  8
LAYER10
 62
     1
  6
CONTINUOUS
 10
12.0375
 20
6.9010
  0
VERTEX
  8
LAYER10
 62
     1
  6
CONTINUOUS
 10
12.0389
 20
6.8985
  0
VERTEX
  8
LAYER10
 62
     1
  6
CONTINUOUS
 10
12.0402
 20
6.8965
  0
VERTEX
  8
LAYER10
 62
     1
  6
CONTINUOUS
 10
12.0414
 20
6.8946
  0
VERTEX
  8
LAYER10
 62
     1
  6
CONTINUOUS
 10
12.0427
 20
6.8927
  0
VERTEX
  8
LAYER10
 62
     1
  6
CONTINUOUS
 10
12.0441
 20
6.8908
  0
VERTEX
  8
LAYER10
 62
     1
  6
CONTINUOUS
 10
12.0455
 20
6.8889
  0
VERTEX
  8
LAYER10
 62
     1
  6
CONTINUOUS
 10
12.0469
 20
6.8871
  0
VERTEX
  8
LAYER10
 62
     1
  6
CONTINUOUS
 10
12.0484
 20
6.8853
  0
VERTEX
  8
LAYER10
 62
     1
  6
CONTINUOUS
 10
12.0498
 20
6.8834
  0
VERTEX
  8
LAYER10
 62
     1
  6
CONTINUOUS
 10
12.0513
 20
6.8817
  0
VERTEX
  8
LAYER10
 62
     1
  6
CONTINUOUS
 10
12.0529
 20
6.8799
  0
VERTEX
  8
LAYER10
 62
     1
  6
CONTINUOUS
 10
12.0544
 20
6.8781
  0
VERTEX
  8
LAYER10
 62
     1
  6
CONTINUOUS
 10
12.0559
 20
6.8763
  0
SEQEND
  8
LAYER10
  0
POLYLINE
  8
LAYER10
 62
     1
 66
     1
  6
CONTINUOUS
  0
VERTEX
  8
LAYER10
 62
     1
  6
CONTINUOUS
 10
11.5861
 20
6.5944
  0
VERTEX
  8
LAYER10
 62
     1
  6
CONTINUOUS
 10
11.5887
 20
6.5924
  0
VERTEX
  8
LAYER10
 62
     1
  6
CONTINUOUS
 10
11.5913
 20
6.5904
  0
VERTEX
  8
LAYER10
 62
     1
  6
CONTINUOUS
 10
11.5940
 20
6.5884
  0
VERTEX
  8
LAYER10
 62
     1
  6
CONTINUOUS
 10
11.5966
 20
6.5863
  0
VERTEX
  8
LAYER10
 62
     1
  6
CONTINUOUS
 10
11.5992
 20
6.5843
  0
VERTEX
  8
LAYER10
 62
     1
  6
CONTINUOUS
 10
11.6018
 20
6.5823
  0
VERTEX
  8
LAYER10
 62
     1
  6
CONTINUOUS
 10
11.6043
 20
6.5802
  0
VERTEX
  8
LAYER10
 62
     1
  6
CONTINUOUS
 10
11.6069
 20
6.5781
  0
VERTEX
  8
LAYER10
 62
     1
  6
CONTINUOUS
 10
11.6094
 20
6.5760
  0
VERTEX
  8
LAYER10
 62
     1
  6
CONTINUOUS
 10
11.6119
 20
6.5738
  0
VERTEX
  8
LAYER10
 62
     1
  6
CONTINUOUS
 10
11.6143
 20
6.5716
  0
VERTEX
  8
LAYER10
 62
     1
  6
CONTINUOUS
 10
11.6168
 20
6.5694
  0
VERTEX
  8
LAYER10
 62
     1
  6
CONTINUOUS
 10
11.6181
 20
6.5681
  0
VERTEX
  8
LAYER10
 62
     1
  6
CONTINUOUS
 10
11.6194
 20
6.5669
  0
VERTEX
  8
LAYER10
 62
     1
  6
CONTINUOUS
 10
11.6206
 20
6.5657
  0
VERTEX
  8
LAYER10
 62
     1
  6
CONTINUOUS
 10
11.6219
 20
6.5644
  0
VERTEX
  8
LAYER10
 62
     1
  6
CONTINUOUS
 10
11.6232
 20
6.5631
  0
VERTEX
  8
LAYER10
 62
     1
  6
CONTINUOUS
 10
11.6245
 20
6.5619
  0
VERTEX
  8
LAYER10
 62
     1
  6
CONTINUOUS
 10
11.6257
 20
6.5606
  0
VERTEX
  8
LAYER10
 62
     1
  6
CONTINUOUS
 10
11.6270
 20
6.5594
  0
VERTEX
  8
LAYER10
 62
     1
  6
CONTINUOUS
 10
11.6283
 20
6.5581
  0
VERTEX
  8
LAYER10
 62
     1
  6
CONTINUOUS
 10
11.6296
 20
6.5568
  0
VERTEX
  8
LAYER10
 62
     1
  6
CONTINUOUS
 10
11.6308
 20
6.5556
  0
VERTEX
  8
LAYER10
 62
     1
  6
CONTINUOUS
 10
11.6321
 20
6.5543
  0
VERTEX
  8
LAYER10
 62
     1
  6
CONTINUOUS
 10
11.6343
 20
6.5523
  0
VERTEX
  8
LAYER10
 62
     1
  6
CONTINUOUS
 10
11.6365
 20
6.5502
  0
VERTEX
  8
LAYER10
 62
     1
  6
CONTINUOUS
 10
11.6387
 20
6.5482
  0
VERTEX
  8
LAYER10
 62
     1
  6
CONTINUOUS
 10
11.6409
 20
6.5462
  0
VERTEX
  8
LAYER10
 62
     1
  6
CONTINUOUS
 10
11.6431
 20
6.5442
  0
VERTEX
  8
LAYER10
 62
     1
  6
CONTINUOUS
 10
11.6453
 20
6.5421
  0
VERTEX
  8
LAYER10
 62
     1
  6
CONTINUOUS
 10
11.6475
 20
6.5401
  0
VERTEX
  8
LAYER10
 62
     1
  6
CONTINUOUS
 10
11.6496
 20
6.5380
  0
VERTEX
  8
LAYER10
 62
     1
  6
CONTINUOUS
 10
11.6517
 20
6.5359
  0
VERTEX
  8
LAYER10
 62
     1
  6
CONTINUOUS
 10
11.6538
 20
6.5337
  0
VERTEX
  8
LAYER10
 62
     1
  6
CONTINUOUS
 10
11.6558
 20
6.5315
  0
VERTEX
  8
LAYER10
 62
     1
  6
CONTINUOUS
 10
11.6578
 20
6.5293
  0
VERTEX
  8
LAYER10
 62
     1
  6
CONTINUOUS
 10
11.6583
 20
6.5286
  0
VERTEX
  8
LAYER10
 62
     1
  6
CONTINUOUS
 10
11.6589
 20
6.5279
  0
VERTEX
  8
LAYER10
 62
     1
  6
CONTINUOUS
 10
11.6595
 20
6.5272
  0
VERTEX
  8
LAYER10
 62
     1
  6
CONTINUOUS
 10
11.6601
 20
6.5264
  0
VERTEX
  8
LAYER10
 62
     1
  6
CONTINUOUS
 10
11.6606
 20
6.5257
  0
VERTEX
  8
LAYER10
 62
     1
  6
CONTINUOUS
 10
11.6612
 20
6.5250
  0
VERTEX
  8
LAYER10
 62
     1
  6
CONTINUOUS
 10
11.6618
 20
6.5243
  0
VERTEX
  8
LAYER10
 62
     1
  6
CONTINUOUS
 10
11.6623
 20
6.5235
  0
VERTEX
  8
LAYER10
 62
     1
  6
CONTINUOUS
 10
11.6629
 20
6.5228
  0
VERTEX
  8
LAYER10
 62
     1
  6
CONTINUOUS
 10
11.6634
 20
6.5221
  0
VERTEX
  8
LAYER10
 62
     1
  6
CONTINUOUS
 10
11.6640
 20
6.5213
  0
VERTEX
  8
LAYER10
 62
     1
  6
CONTINUOUS
 10
11.6646
 20
6.5206
  0
SEQEND
  8
LAYER10
  0
POLYLINE
  8
LAYER10
 62
     1
 66
     1
  6
CONTINUOUS
  0
VERTEX
  8
LAYER10
 62
     1
  6
CONTINUOUS
 10
11.4629
 20
6.5206
  0
VERTEX
  8
LAYER10
 62
     1
  6
CONTINUOUS
 10
11.4641
 20
6.5232
  0
VERTEX
  8
LAYER10
 62
     1
  6
CONTINUOUS
 10
11.4652
 20
6.5258
  0
VERTEX
  8
LAYER10
 62
     1
  6
CONTINUOUS
 10
11.4664
 20
6.5283
  0
VERTEX
  8
LAYER10
 62
     1
  6
CONTINUOUS
 10
11.4677
 20
6.5308
  0
VERTEX
  8
LAYER10
 62
     1
  6
CONTINUOUS
 10
11.4689
 20
6.5333
  0
VERTEX
  8
LAYER10
 62
     1
  6
CONTINUOUS
 10
11.4703
 20
6.5356
  0
VERTEX
  8
LAYER10
 62
     1
  6
CONTINUOUS
 10
11.4717
 20
6.5379
  0
VERTEX
  8
LAYER10
 62
     1
  6
CONTINUOUS
 10
11.4731
 20
6.5401
  0
VERTEX
  8
LAYER10
 62
     1
  6
CONTINUOUS
 10
11.4747
 20
6.5422
  0
VERTEX
  8
LAYER10
 62
     1
  6
CONTINUOUS
 10
11.4764
 20
6.5441
  0
VERTEX
  8
LAYER10
 62
     1
  6
CONTINUOUS
 10
11.4782
 20
6.5459
  0
VERTEX
  8
LAYER10
 62
     1
  6
CONTINUOUS
 10
11.4801
 20
6.5476
  0
VERTEX
  8
LAYER10
 62
     1
  6
CONTINUOUS
 10
11.4826
 20
6.5494
  0
VERTEX
  8
LAYER10
 62
     1
  6
CONTINUOUS
 10
11.4853
 20
6.5509
  0
VERTEX
  8
LAYER10
 62
     1
  6
CONTINUOUS
 10
11.4881
 20
6.5523
  0
VERTEX
  8
LAYER10
 62
     1
  6
CONTINUOUS
 10
11.4911
 20
6.5536
  0
VERTEX
  8
LAYER10
 62
     1
  6
CONTINUOUS
 10
11.4941
 20
6.5547
  0
VERTEX
  8
LAYER10
 62
     1
  6
CONTINUOUS
 10
11.4972
 20
6.5558
  0
VERTEX
  8
LAYER10
 62
     1
  6
CONTINUOUS
 10
11.5003
 20
6.5569
  0
VERTEX
  8
LAYER10
 62
     1
  6
CONTINUOUS
 10
11.5035
 20
6.5580
  0
VERTEX
  8
LAYER10
 62
     1
  6
CONTINUOUS
 10
11.5066
 20
6.5591
  0
VERTEX
  8
LAYER10
 62
     1
  6
CONTINUOUS
 10
11.5096
 20
6.5603
  0
VERTEX
  8
LAYER10
 62
     1
  6
CONTINUOUS
 10
11.5126
 20
6.5617
  0
VERTEX
  8
LAYER10
 62
     1
  6
CONTINUOUS
 10
11.5154
 20
6.5632
  0
VERTEX
  8
LAYER10
 62
     1
  6
CONTINUOUS
 10
11.5173
 20
6.5643
  0
VERTEX
  8
LAYER10
 62
     1
  6
CONTINUOUS
 10
11.5190
 20
6.5654
  0
VERTEX
  8
LAYER10
 62
     1
  6
CONTINUOUS
 10
11.5207
 20
6.5667
  0
VERTEX
  8
LAYER10
 62
     1
  6
CONTINUOUS
 10
11.5224
 20
6.5679
  0
VERTEX
  8
LAYER10
 62
     1
  6
CONTINUOUS
 10
11.5241
 20
6.5693
  0
VERTEX
  8
LAYER10
 62
     1
  6
CONTINUOUS
 10
11.5257
 20
6.5706
  0
VERTEX
  8
LAYER10
 62
     1
  6
CONTINUOUS
 10
11.5273
 20
6.5720
  0
VERTEX
  8
LAYER10
 62
     1
  6
CONTINUOUS
 10
11.5289
 20
6.5733
  0
VERTEX
  8
LAYER10
 62
     1
  6
CONTINUOUS
 10
11.5306
 20
6.5747
  0
VERTEX
  8
LAYER10
 62
     1
  6
CONTINUOUS
 10
11.5322
 20
6.5760
  0
VERTEX
  8
LAYER10
 62
     1
  6
CONTINUOUS
 10
11.5339
 20
6.5773
  0
VERTEX
  8
LAYER10
 62
     1
  6
CONTINUOUS
 10
11.5356
 20
6.5786
  0
VERTEX
  8
LAYER10
 62
     1
  6
CONTINUOUS
 10
11.5371
 20
6.5797
  0
VERTEX
  8
LAYER10
 62
     1
  6
CONTINUOUS
 10
11.5387
 20
6.5808
  0
VERTEX
  8
LAYER10
 62
     1
  6
CONTINUOUS
 10
11.5403
 20
6.5818
  0
VERTEX
  8
LAYER10
 62
     1
  6
CONTINUOUS
 10
11.5419
 20
6.5828
  0
VERTEX
  8
LAYER10
 62
     1
  6
CONTINUOUS
 10
11.5436
 20
6.5837
  0
VERTEX
  8
LAYER10
 62
     1
  6
CONTINUOUS
 10
11.5452
 20
6.5846
  0
VERTEX
  8
LAYER10
 62
     1
  6
CONTINUOUS
 10
11.5469
 20
6.5854
  0
VERTEX
  8
LAYER10
 62
     1
  6
CONTINUOUS
 10
11.5487
 20
6.5862
  0
VERTEX
  8
LAYER10
 62
     1
  6
CONTINUOUS
 10
11.5504
 20
6.5870
  0
VERTEX
  8
LAYER10
 62
     1
  6
CONTINUOUS
 10
11.5522
 20
6.5877
  0
VERTEX
  8
LAYER10
 62
     1
  6
CONTINUOUS
 10
11.5539
 20
6.5884
  0
VERTEX
  8
LAYER10
 62
     1
  6
CONTINUOUS
 10
11.5557
 20
6.5890
  0
VERTEX
  8
LAYER10
 62
     1
  6
CONTINUOUS
 10
11.5582
 20
6.5897
  0
VERTEX
  8
LAYER10
 62
     1
  6
CONTINUOUS
 10
11.5606
 20
6.5904
  0
VERTEX
  8
LAYER10
 62
     1
  6
CONTINUOUS
 10
11.5631
 20
6.5910
  0
VERTEX
  8
LAYER10
 62
     1
  6
CONTINUOUS
 10
11.5656
 20
6.5916
  0
VERTEX
  8
LAYER10
 62
     1
  6
CONTINUOUS
 10
11.5682
 20
6.5920
  0
VERTEX
  8
LAYER10
 62
     1
  6
CONTINUOUS
 10
11.5707
 20
6.5925
  0
VERTEX
  8
LAYER10
 62
     1
  6
CONTINUOUS
 10
11.5732
 20
6.5929
  0
VERTEX
  8
LAYER10
 62
     1
  6
CONTINUOUS
 10
11.5758
 20
6.5932
  0
VERTEX
  8
LAYER10
 62
     1
  6
CONTINUOUS
 10
11.5784
 20
6.5935
  0
VERTEX
  8
LAYER10
 62
     1
  6
CONTINUOUS
 10
11.5809
 20
6.5938
  0
VERTEX
  8
LAYER10
 62
     1
  6
CONTINUOUS
 10
11.5835
 20
6.5941
  0
VERTEX
  8
LAYER10
 62
     1
  6
CONTINUOUS
 10
11.5861
 20
6.5944
  0
SEQEND
  8
LAYER10
  0
POLYLINE
  8
LAYER10
 62
     1
 66
     1
  6
CONTINUOUS
  0
VERTEX
  8
LAYER10
 62
     1
  6
CONTINUOUS
 10
11.0207
 20
6.9511
  0
VERTEX
  8
LAYER10
 62
     1
  6
CONTINUOUS
 10
11.0211
 20
6.9510
  0
VERTEX
  8
LAYER10
 62
     1
  6
CONTINUOUS
 10
11.0216
 20
6.9509
  0
VERTEX
  8
LAYER10
 62
     1
  6
CONTINUOUS
 10
11.0220
 20
6.9507
  0
VERTEX
  8
LAYER10
 62
     1
  6
CONTINUOUS
 10
11.0224
 20
6.9506
  0
VERTEX
  8
LAYER10
 62
     1
  6
CONTINUOUS
 10
11.0228
 20
6.9505
  0
VERTEX
  8
LAYER10
 62
     1
  6
CONTINUOUS
 10
11.0231
 20
6.9504
  0
VERTEX
  8
LAYER10
 62
     1
  6
CONTINUOUS
 10
11.0235
 20
6.9502
  0
VERTEX
  8
LAYER10
 62
     1
  6
CONTINUOUS
 10
11.0238
 20
6.9501
  0
VERTEX
  8
LAYER10
 62
     1
  6
CONTINUOUS
 10
11.0241
 20
6.9500
  0
VERTEX
  8
LAYER10
 62
     1
  6
CONTINUOUS
 10
11.0244
 20
6.9500
  0
VERTEX
  8
LAYER10
 62
     1
  6
CONTINUOUS
 10
11.0246
 20
6.9499
  0
VERTEX
  8
LAYER10
 62
     1
  6
CONTINUOUS
 10
11.0248
 20
6.9498
  0
VERTEX
  8
LAYER10
 62
     1
  6
CONTINUOUS
 10
11.0250
 20
6.9498
  0
VERTEX
  8
LAYER10
 62
     1
  6
CONTINUOUS
 10
11.0251
 20
6.9497
  0
VERTEX
  8
LAYER10
 62
     1
  6
CONTINUOUS
 10
11.0252
 20
6.9497
  0
VERTEX
  8
LAYER10
 62
     1
  6
CONTINUOUS
 10
11.0252
 20
6.9497
  0
VERTEX
  8
LAYER10
 62
     1
  6
CONTINUOUS
 10
11.0252
 20
6.9497
  0
VERTEX
  8
LAYER10
 62
     1
  6
CONTINUOUS
 10
11.0252
 20
6.9497
  0
VERTEX
  8
LAYER10
 62
     1
  6
CONTINUOUS
 10
11.0252
 20
6.9497
  0
VERTEX
  8
LAYER10
 62
     1
  6
CONTINUOUS
 10
11.0251
 20
6.9497
  0
VERTEX
  8
LAYER10
 62
     1
  6
CONTINUOUS
 10
11.0251
 20
6.9497
  0
VERTEX
  8
LAYER10
 62
     1
  6
CONTINUOUS
 10
11.0250
 20
6.9498
  0
VERTEX
  8
LAYER10
 62
     1
  6
CONTINUOUS
 10
11.0249
 20
6.9498
  0
VERTEX
  8
LAYER10
 62
     1
  6
CONTINUOUS
 10
11.0248
 20
6.9498
  0
SEQEND
  8
LAYER10
  0
POLYLINE
  8
LAYER10
 62
     1
 66
     1
  6
CONTINUOUS
  0
VERTEX
  8
LAYER10
 62
     1
  6
CONTINUOUS
 10
11.0248
 20
6.6472
  0
VERTEX
  8
LAYER10
 62
     1
  6
CONTINUOUS
 10
11.0244
 20
6.6477
  0
VERTEX
  8
LAYER10
 62
     1
  6
CONTINUOUS
 10
11.0239
 20
6.6482
  0
VERTEX
  8
LAYER10
 62
     1
  6
CONTINUOUS
 10
11.0235
 20
6.6487
  0
VERTEX
  8
LAYER10
 62
     1
  6
CONTINUOUS
 10
11.0231
 20
6.6492
  0
VERTEX
  8
LAYER10
 62
     1
  6
CONTINUOUS
 10
11.0227
 20
6.6496
  0
VERTEX
  8
LAYER10
 62
     1
  6
CONTINUOUS
 10
11.0223
 20
6.6501
  0
VERTEX
  8
LAYER10
 62
     1
  6
CONTINUOUS
 10
11.0220
 20
6.6505
  0
VERTEX
  8
LAYER10
 62
     1
  6
CONTINUOUS
 10
11.0216
 20
6.6509
  0
VERTEX
  8
LAYER10
 62
     1
  6
CONTINUOUS
 10
11.0213
 20
6.6512
  0
VERTEX
  8
LAYER10
 62
     1
  6
CONTINUOUS
 10
11.0211
 20
6.6515
  0
VERTEX
  8
LAYER10
 62
     1
  6
CONTINUOUS
 10
11.0209
 20
6.6517
  0
VERTEX
  8
LAYER10
 62
     1
  6
CONTINUOUS
 10
11.0207
 20
6.6519
  0
VERTEX
  8
LAYER10
 62
     1
  6
CONTINUOUS
 10
11.0206
 20
6.6520
  0
VERTEX
  8
LAYER10
 62
     1
  6
CONTINUOUS
 10
11.0206
 20
6.6521
  0
VERTEX
  8
LAYER10
 62
     1
  6
CONTINUOUS
 10
11.0205
 20
6.6521
  0
VERTEX
  8
LAYER10
 62
     1
  6
CONTINUOUS
 10
11.0205
 20
6.6522
  0
VERTEX
  8
LAYER10
 62
     1
  6
CONTINUOUS
 10
11.0205
 20
6.6522
  0
VERTEX
  8
LAYER10
 62
     1
  6
CONTINUOUS
 10
11.0205
 20
6.6522
  0
VERTEX
  8
LAYER10
 62
     1
  6
CONTINUOUS
 10
11.0205
 20
6.6522
  0
VERTEX
  8
LAYER10
 62
     1
  6
CONTINUOUS
 10
11.0205
 20
6.6521
  0
VERTEX
  8
LAYER10
 62
     1
  6
CONTINUOUS
 10
11.0206
 20
6.6521
  0
VERTEX
  8
LAYER10
 62
     1
  6
CONTINUOUS
 10
11.0206
 20
6.6520
  0
VERTEX
  8
LAYER10
 62
     1
  6
CONTINUOUS
 10
11.0207
 20
6.6520
  0
VERTEX
  8
LAYER10
 62
     1
  6
CONTINUOUS
 10
11.0207
 20
6.6519
  0
SEQEND
  8
LAYER10
  0
POLYLINE
  8
LAYER10
 62
     1
 66
     1
  6
CONTINUOUS
  0
VERTEX
  8
LAYER10
 62
     1
  6
CONTINUOUS
 10
11.0248
 20
7.3846
  0
VERTEX
  8
LAYER10
 62
     1
  6
CONTINUOUS
 10
11.0244
 20
7.3849
  0
VERTEX
  8
LAYER10
 62
     1
  6
CONTINUOUS
 10
11.0240
 20
7.3852
  0
VERTEX
  8
LAYER10
 62
     1
  6
CONTINUOUS
 10
11.0235
 20
7.3855
  0
VERTEX
  8
LAYER10
 62
     1
  6
CONTINUOUS
 10
11.0231
 20
7.3857
  0
VERTEX
  8
LAYER10
 62
     1
  6
CONTINUOUS
 10
11.0227
 20
7.3860
  0
VERTEX
  8
LAYER10
 62
     1
  6
CONTINUOUS
 10
11.0224
 20
7.3862
  0
VERTEX
  8
LAYER10
 62
     1
  6
CONTINUOUS
 10
11.0220
 20
7.3865
  0
VERTEX
  8
LAYER10
 62
     1
  6
CONTINUOUS
 10
11.0217
 20
7.3867
  0
VERTEX
  8
LAYER10
 62
     1
  6
CONTINUOUS
 10
11.0214
 20
7.3869
  0
VERTEX
  8
LAYER10
 62
     1
  6
CONTINUOUS
 10
11.0211
 20
7.3870
  0
VERTEX
  8
LAYER10
 62
     1
  6
CONTINUOUS
 10
11.0209
 20
7.3872
  0
VERTEX
  8
LAYER10
 62
     1
  6
CONTINUOUS
 10
11.0207
 20
7.3873
  0
VERTEX
  8
LAYER10
 62
     1
  6
CONTINUOUS
 10
11.0206
 20
7.3874
  0
VERTEX
  8
LAYER10
 62
     1
  6
CONTINUOUS
 10
11.0205
 20
7.3875
  0
VERTEX
  8
LAYER10
 62
     1
  6
CONTINUOUS
 10
11.0204
 20
7.3875
  0
VERTEX
  8
LAYER10
 62
     1
  6
CONTINUOUS
 10
11.0204
 20
7.3875
  0
VERTEX
  8
LAYER10
 62
     1
  6
CONTINUOUS
 10
11.0204
 20
7.3875
  0
VERTEX
  8
LAYER10
 62
     1
  6
CONTINUOUS
 10
11.0204
 20
7.3875
  0
VERTEX
  8
LAYER10
 62
     1
  6
CONTINUOUS
 10
11.0204
 20
7.3875
  0
VERTEX
  8
LAYER10
 62
     1
  6
CONTINUOUS
 10
11.0204
 20
7.3875
  0
VERTEX
  8
LAYER10
 62
     1
  6
CONTINUOUS
 10
11.0205
 20
7.3874
  0
VERTEX
  8
LAYER10
 62
     1
  6
CONTINUOUS
 10
11.0206
 20
7.3874
  0
VERTEX
  8
LAYER10
 62
     1
  6
CONTINUOUS
 10
11.0206
 20
7.3874
  0
VERTEX
  8
LAYER10
 62
     1
  6
CONTINUOUS
 10
11.0207
 20
7.3873
  0
SEQEND
  8
LAYER10
  0
POLYLINE
  8
LAYER10
 62
     1
 66
     1
  6
CONTINUOUS
  0
VERTEX
  8
LAYER10
 62
     1
  6
CONTINUOUS
 10
11.1970
 20
7.5511
  0
VERTEX
  8
LAYER10
 62
     1
  6
CONTINUOUS
 10
11.1970
 20
7.5511
  0
VERTEX
  8
LAYER10
 62
     1
  6
CONTINUOUS
 10
11.1970
 20
7.5511
  0
VERTEX
  8
LAYER10
 62
     1
  6
CONTINUOUS
 10
11.1970
 20
7.5511
  0
VERTEX
  8
LAYER10
 62
     1
  6
CONTINUOUS
 10
11.1970
 20
7.5511
  0
VERTEX
  8
LAYER10
 62
     1
  6
CONTINUOUS
 10
11.1970
 20
7.5511
  0
VERTEX
  8
LAYER10
 62
     1
  6
CONTINUOUS
 10
11.1970
 20
7.5511
  0
VERTEX
  8
LAYER10
 62
     1
  6
CONTINUOUS
 10
11.1970
 20
7.5511
  0
VERTEX
  8
LAYER10
 62
     1
  6
CONTINUOUS
 10
11.1970
 20
7.5511
  0
VERTEX
  8
LAYER10
 62
     1
  6
CONTINUOUS
 10
11.1970
 20
7.5511
  0
VERTEX
  8
LAYER10
 62
     1
  6
CONTINUOUS
 10
11.1970
 20
7.5511
  0
VERTEX
  8
LAYER10
 62
     1
  6
CONTINUOUS
 10
11.1970
 20
7.5511
  0
VERTEX
  8
LAYER10
 62
     1
  6
CONTINUOUS
 10
11.1970
 20
7.5511
  0
VERTEX
  8
LAYER10
 62
     1
  6
CONTINUOUS
 10
11.1973
 20
7.5511
  0
VERTEX
  8
LAYER10
 62
     1
  6
CONTINUOUS
 10
11.1976
 20
7.5511
  0
VERTEX
  8
LAYER10
 62
     1
  6
CONTINUOUS
 10
11.1977
 20
7.5511
  0
VERTEX
  8
LAYER10
 62
     1
  6
CONTINUOUS
 10
11.1978
 20
7.5511
  0
VERTEX
  8
LAYER10
 62
     1
  6
CONTINUOUS
 10
11.1979
 20
7.5511
  0
VERTEX
  8
LAYER10
 62
     1
  6
CONTINUOUS
 10
11.1978
 20
7.5511
  0
VERTEX
  8
LAYER10
 62
     1
  6
CONTINUOUS
 10
11.1978
 20
7.5511
  0
VERTEX
  8
LAYER10
 62
     1
  6
CONTINUOUS
 10
11.1977
 20
7.5511
  0
VERTEX
  8
LAYER10
 62
     1
  6
CONTINUOUS
 10
11.1975
 20
7.5511
  0
VERTEX
  8
LAYER10
 62
     1
  6
CONTINUOUS
 10
11.1974
 20
7.5511
  0
VERTEX
  8
LAYER10
 62
     1
  6
CONTINUOUS
 10
11.1972
 20
7.5511
  0
VERTEX
  8
LAYER10
 62
     1
  6
CONTINUOUS
 10
11.1970
 20
7.5511
  0
SEQEND
  8
LAYER10
  0
POLYLINE
  8
LAYER10
 62
     1
 66
     1
  6
CONTINUOUS
  0
VERTEX
  8
LAYER10
 62
     1
  6
CONTINUOUS
 10
11.1970
 20
7.5511
  0
VERTEX
  8
LAYER10
 62
     1
  6
CONTINUOUS
 10
11.1973
 20
7.5509
  0
VERTEX
  8
LAYER10
 62
     1
  6
CONTINUOUS
 10
11.1975
 20
7.5506
  0
VERTEX
  8
LAYER10
 62
     1
  6
CONTINUOUS
 10
11.1978
 20
7.5504
  0
VERTEX
  8
LAYER10
 62
     1
  6
CONTINUOUS
 10
11.1981
 20
7.5501
  0
VERTEX
  8
LAYER10
 62
     1
  6
CONTINUOUS
 10
11.1984
 20
7.5499
  0
VERTEX
  8
LAYER10
 62
     1
  6
CONTINUOUS
 10
11.1987
 20
7.5496
  0
VERTEX
  8
LAYER10
 62
     1
  6
CONTINUOUS
 10
11.1990
 20
7.5494
  0
VERTEX
  8
LAYER10
 62
     1
  6
CONTINUOUS
 10
11.1992
 20
7.5492
  0
VERTEX
  8
LAYER10
 62
     1
  6
CONTINUOUS
 10
11.1995
 20
7.5489
  0
VERTEX
  8
LAYER10
 62
     1
  6
CONTINUOUS
 10
11.1998
 20
7.5487
  0
VERTEX
  8
LAYER10
 62
     1
  6
CONTINUOUS
 10
11.2001
 20
7.5484
  0
VERTEX
  8
LAYER10
 62
     1
  6
CONTINUOUS
 10
11.2004
 20
7.5482
  0
VERTEX
  8
LAYER10
 62
     1
  6
CONTINUOUS
 10
11.2011
 20
7.5476
  0
VERTEX
  8
LAYER10
 62
     1
  6
CONTINUOUS
 10
11.2018
 20
7.5471
  0
VERTEX
  8
LAYER10
 62
     1
  6
CONTINUOUS
 10
11.2025
 20
7.5465
  0
VERTEX
  8
LAYER10
 62
     1
  6
CONTINUOUS
 10
11.2032
 20
7.5460
  0
VERTEX
  8
LAYER10
 62
     1
  6
CONTINUOUS
 10
11.2040
 20
7.5454
  0
VERTEX
  8
LAYER10
 62
     1
  6
CONTINUOUS
 10
11.2047
 20
7.5449
  0
VERTEX
  8
LAYER10
 62
     1
  6
CONTINUOUS
 10
11.2055
 20
7.5443
  0
VERTEX
  8
LAYER10
 62
     1
  6
CONTINUOUS
 10
11.2062
 20
7.5438
  0
VERTEX
  8
LAYER10
 62
     1
  6
CONTINUOUS
 10
11.2069
 20
7.5433
  0
VERTEX
  8
LAYER10
 62
     1
  6
CONTINUOUS
 10
11.2077
 20
7.5428
  0
VERTEX
  8
LAYER10
 62
     1
  6
CONTINUOUS
 10
11.2084
 20
7.5422
  0
VERTEX
  8
LAYER10
 62
     1
  6
CONTINUOUS
 10
11.2092
 20
7.5417
  0
SEQEND
  8
LAYER10
  0
POLYLINE
  8
LAYER12
 62
     5
 66
     1
  6
CONTINUOUS
  0
VERTEX
  8
LAYER12
 62
     5
  6
CONTINUOUS
 10
11.0235
 20
7.5424
  0
VERTEX
  8
LAYER12
 62
     5
  6
CONTINUOUS
 10
11.0235
 20
7.5495
  0
SEQEND
  8
LAYER12
  0
POLYLINE
  8
LAYER12
 62
     5
 66
     1
  6
CONTINUOUS
  0
VERTEX
  8
LAYER12
 62
     5
  6
CONTINUOUS
 10
11.0284
 20
7.5465
  0
VERTEX
  8
LAYER12
 62
     5
  6
CONTINUOUS
 10
11.0248
 20
7.5465
  0
SEQEND
  8
LAYER12
  0
POLYLINE
  8
LAYER12
 62
     5
 66
     1
  6
CONTINUOUS
  0
VERTEX
  8
LAYER12
 62
     5
  6
CONTINUOUS
 10
11.0248
 20
7.5465
  0
VERTEX
  8
LAYER12
 62
     5
  6
CONTINUOUS
 10
11.0213
 20
7.5465
  0
SEQEND
  8
LAYER12
  0
POLYLINE
  8
LAYER12
 62
     5
 66
     1
  6
CONTINUOUS
  0
VERTEX
  8
LAYER12
 62
     5
  6
CONTINUOUS
 10
11.0235
 20
6.5218
  0
VERTEX
  8
LAYER12
 62
     5
  6
CONTINUOUS
 10
11.0235
 20
6.5253
  0
SEQEND
  8
LAYER12
  0
POLYLINE
  8
LAYER12
 62
     5
 66
     1
  6
CONTINUOUS
  0
VERTEX
  8
LAYER12
 62
     5
  6
CONTINUOUS
 10
11.0213
 20
6.5235
  0
VERTEX
  8
LAYER12
 62
     5
  6
CONTINUOUS
 10
11.0248
 20
6.5235
  0
SEQEND
  8
LAYER12
  0
POLYLINE
  8
LAYER12
 62
     5
 66
     1
  6
CONTINUOUS
  0
VERTEX
  8
LAYER12
 62
     5
  6
CONTINUOUS
 10
11.0235
 20
6.5253
  0
VERTEX
  8
LAYER12
 62
     5
  6
CONTINUOUS
 10
11.0235
 20
7.5417
  0
SEQEND
  8
LAYER12
  0
POLYLINE
  8
LAYER12
 62
     5
 66
     1
  6
CONTINUOUS
  0
VERTEX
  8
LAYER12
 62
     5
  6
CONTINUOUS
 10
11.0235
 20
7.5417
  0
VERTEX
  8
LAYER12
 62
     5
  6
CONTINUOUS
 10
11.0235
 20
7.5424
  0
SEQEND
  8
LAYER12
  0
POLYLINE
  8
LAYER12
 62
     5
 66
     1
  6
CONTINUOUS
  0
VERTEX
  8
LAYER12
 62
     5
  6
CONTINUOUS
 10
11.0207
 20
6.5235
  0
VERTEX
  8
LAYER12
 62
     5
  6
CONTINUOUS
 10
11.0213
 20
6.5235
  0
SEQEND
  8
LAYER12
  0
POLYLINE
  8
LAYER12
 62
     5
 66
     1
  6
CONTINUOUS
  0
VERTEX
  8
LAYER12
 62
     5
  6
CONTINUOUS
 10
11.0248
 20
6.5235
  0
VERTEX
  8
LAYER12
 62
     5
  6
CONTINUOUS
 10
12.0559
 20
6.5235
  0
SEQEND
  8
LAYER12
  0
POLYLINE
  8
LAYER12
 62
     5
 66
     1
  6
CONTINUOUS
  0
VERTEX
  8
LAYER12
 62
     5
  6
CONTINUOUS
 10
11.0235
 20
6.5206
  0
VERTEX
  8
LAYER12
 62
     5
  6
CONTINUOUS
 10
11.0235
 20
6.5218
  0
SEQEND
  8
LAYER12
  0
POLYLINE
  8
LAYER12
 62
     5
 66
     1
  6
CONTINUOUS
  0
VERTEX
  8
LAYER12
 62
     5
  6
CONTINUOUS
 10
11.0235
 20
7.5495
  0
VERTEX
  8
LAYER12
 62
     5
  6
CONTINUOUS
 10
11.0235
 20
7.5511
  0
SEQEND
  8
LAYER12
  0
POLYLINE
  8
LAYER12
 62
     5
 66
     1
  6
CONTINUOUS
  0
VERTEX
  8
LAYER12
 62
     5
  6
CONTINUOUS
 10
12.0559
 20
7.5465
  0
VERTEX
  8
LAYER12
 62
     5
  6
CONTINUOUS
 10
11.0284
 20
7.5465
  0
SEQEND
  8
LAYER12
  0
POLYLINE
  8
LAYER12
 62
     5
 66
     1
  6
CONTINUOUS
  0
VERTEX
  8
LAYER12
 62
     5
  6
CONTINUOUS
 10
11.0213
 20
7.5465
  0
VERTEX
  8
LAYER12
 62
     5
  6
CONTINUOUS
 10
11.0207
 20
7.5465
  0
SEQEND
  8
LAYER12
  0
POLYLINE
  8
LAYER12
 62
     5
 66
     1
  6
CONTINUOUS
  0
VERTEX
  8
LAYER12
 62
     5
  6
CONTINUOUS
 10
12.0465
 20
7.5511
  0
VERTEX
  8
LAYER12
 62
     5
  6
CONTINUOUS
 10
12.0465
 20
7.5417
  0
SEQEND
  8
LAYER12
  0
POLYLINE
  8
LAYER12
 62
     5
 66
     1
  6
CONTINUOUS
  0
VERTEX
  8
LAYER12
 62
     5
  6
CONTINUOUS
 10
12.0465
 20
7.5417
  0
VERTEX
  8
LAYER12
 62
     5
  6
CONTINUOUS
 10
12.0465
 20
6.5206
  0
SEQEND
  8
LAYER12
  0
ENDSEC
  0
EOF
