  0
SECTION
  2
HEADER
  9
$ACADVER
  1
AC1004
  9
$EXTMIN
 10
11.0207
 20
7.5417
  9
$EXTMAX
 10
12.0559
 20
8.5346
  9
$LIMMIN
 10
11.0207
 20
7.5417
  9
$LIMMAX
 10
12.0559
 20
8.5346
  9
$INSBASE
 10
0.0
 20
0.0
  9
$VIEWCTR
 10
7.21903
 20
4.5
  9
$VIEWSIZE
 40
9.0
  9
$SNAPMODE
 70
     0
  9
$SNAPUNIT
 10
1.0
 20
1.0
  9
$SNAPBASE
 10
0.0
 20
0.0
  9
$SNAPANG
 50
0.0
  9
$SNAPSTYLE
 70
     0
  9
$SNAPISOPAIR
 70
     0
  9
$GRIDMODE
 70
     0
  9
$GRIDUNIT
 10
0.0
 20
0.0
  9
$ORTHOMODE
 70
     0
  9
$REGENMODE
 70
     1
  9
$FILLMODE
 70
     1
  9
$QTEXTMODE
 70
     0
  9
$DRAGMODE
 70
     2
  9
$LTSCALE
 40
1.0
  9
$OSMODE
 70
     0
  9
$ATTMODE
 70
     1
  9
$TEXTSIZE
 40
0.2
  9
$TRACEWID
 40
0.05
  9
$TEXTSTYLE
  7
STANDARD
  9
$CLAYER
  8
0
  9
$CELTYPE
  6
BYLAYER
  9
$CECOLOR
 62
   256
  9
$DIMSCALE
 40
1.0
  9
$DIMASZ
 40
0.18
  9
$DIMEXO
 40
0.0625
  9
$DIMDLI
 40
0.38
  9
$DIMRND
 40
0.0
  9
$DIMDLE
 40
0.0
  9
$DIMEXE
 40
0.18
  9
$DIMTP
 40
0.0
  9
$DIMTM
 40
0.0
  9
$DIMTXT
 40
0.18
  9
$DIMCEN
 40
0.09
  9
$DIMTSZ
 40
0.0
  9
$DIMTOL
 70
     0
  9
$DIMLIM
 70
     0
  9
$DIMTIH
 70
     1
  9
$DIMTOH
 70
     1
  9
$DIMSE1
 70
     0
  9
$DIMSE2
 70
     0
  9
$DIMTAD
 70
     0
  9
$DIMZIN
 70
     0
  9
$DIMBLK
  1

  9
$DIMASO
 70
     1
  9
$DIMSHO
 70
     0
  9
$DIMPOST
  1

  9
$DIMAPOST
  1

  9
$DIMALT
 70
     0
  9
$DIMALTD
 70
     2
  9
$DIMALTF
 40
25.4
  9
$DIMLFAC
 40
1.0
  9
$LUNITS
 70
     2
  9
$LUPREC
 70
     4
  9
$AXISMODE
 70
     0
  9
$AXISUNIT
 10
0.0
 20
0.0
  9
$SKETCHINC
 40
0.1
  9
$FILLETRAD
 40
0.0
  9
$AUNITS
 70
     0
  9
$AUPREC
 70
     0
  9
$MENU
  1
acad
  9
$ELEVATION
 40
0.0
  9
$THICKNESS
 40
0.0
  9
$VIEWDIR
 10
0.0
 20
0.0
 30
1.0
  9
$LIMCHECK
 70
     0
  9
$BLIPMODE
 70
     1
  9
$CHAMFERA
 40
0.0
  9
$CHAMFERB
 40
0.0
  9
$FASTZOOM
 70
     1
  9
$SKPOLY
 70
     0
  9
$TDCREATE
 40
2447222.5666886573
  9
$TDUPDATE
 40
2447222.5666886573
  9
$TDINDWG
 40
0.0000000000
  9
$TDUSRTIMER
 40
0.0000000000
  9
$USRTIMER
 70
     1
  9
$ANGBASE
 50
0.0
  9
$ANGDIR
 70
     0
  9
$PDMODE
 70
     0
  9
$PDSIZE
 40
0.0
  9
$PLINEWID
 40
0.0
  9
$COORDS
 70
     0
  9
$SPLFRAME
 70
     0
  9
$SPLINESEGS
 70
     8
  9
$ATTDIA
 70
     0
  9
$ATTREQ
 70
     1
  9
$USERI1
 70
     0
  9
$USERI2
 70
     0
  9
$USERI3
 70
     0
  9
$USERI4
 70
     0
  9
$USERI5
 70
     0
  9
$USERR1
 40
0.0
  9
$USERR2
 40
0.0
  9
$USERR3
 40
0.0
  9
$USERR4
 40
0.0
  9
$USERR5
 40
0.0
  0
ENDSEC
  0
SECTION
  2
TABLES
  0
TABLE
  2
LTYPE
 70
     13
  0
LTYPE
  2
CONTINUOUS
 70
    64
  3
Solid line
 72
    65
 73
     0
 40
0.0
  0
LTYPE
  2
DASHED
 70
    64
  3
__ __ __ __ __ __ __ __ __ __ __ __ __ __ __
 72
    65
 73
     2
 40
0.75
 49
0.5
 49
-0.25
  0
LTYPE
  2
HIDDEN
 70
    64
  3
_ _ _ _ _ _ _ _ _ _ _ _ _ _ _ _ _ _ _ _ _ _ _
 72
    65
 73
     2
 40
0.375
 49
0.25
 49
-0.125
  0
LTYPE
  2
CENTER
 70
    64
  3
____ _ ____ _ ____ _ ____ _ ____ _ ____ _ ____
 72
    65
 73
     4
 40
2.0
 49
1.25
 49
-0.25
 49
0.25
 49
-0.25
  0
LTYPE
  2
PHANTOM
 70
    64
  3
_____ _ _ _____ _ _ _____ _ _ _____ _ _ ____
 72
    65
 73
     6
 40
2.5
 49
1.25
 49
-0.25
 49
0.25
 49
-0.25
 49
0.25
 49
-0.25
  0
LTYPE
  2
DOT
 70
    64
  3
...............................................
 72
    65
 73
     2
 40
0.25
 49
0.0
 49
-0.25
  0
LTYPE
  2
DASHDOT
 70
    64
  3
__ . __ . __ . __ . __ . __ . __ . __ . __ . __
 72
    65
 73
     4
 40
1.0
 49
0.5
 49
-0.25
 49
0.0
 49
-0.25
  0
LTYPE
  2
BORDER
 70
    64
  3
__ __ . __ __ . __ __ . __ __ . __ __ . __ __
 72
    65
 73
     6
 40
1.75
 49
0.5
 49
-0.25
 49
0.5
 49
-0.25
 49
0.0
 49
-0.25
  0
LTYPE
  2
DIVIDE
 70
    64
  3
__ . . __ . . __ . . __ . . __ . . __ . . __
 72
    65
 73
     6
 40
1.25
 49
0.5
 49
-0.25
 49
0.0
 49
-0.25
 49
0.0
 49
-0.25
  0
LTYPE
  2
DCTYPE1
 70
    64
  3
__ . . __ . . __ . . __ . . __ . . __ . . __
 72
    65
 73
     8
 40
2.5
 49
0.5
 49
-0.25
 49
0.125
 49
-0.25
 49
0.25
 49
-0.25
 49
0.125
 49
-0.25
  0
LTYPE
  2
DCTYPE2
 70
    64
  3
__ . . __ . . __ . . __ . . __ . . __ . . __
 72
    65
 73
     6
 40
2.05
 49
1.0
 49
-0.3
 49
0.15
 49
-0.15
 49
0.15
 49
-0.3
  0
LTYPE
  2
DCTYPE3
 70
    64
  3
__ . . __ . . __ . . __ . . __ . . __ . . __
 72
    65
 73
     6
 40
2.5
 49
0.8
 49
-0.2
 49
0.8
 49
-0.2
 49
0.3
 49
-0.2
  0
LTYPE
  2
DCTYPE4
 70
    64
  3
__ . . __ . . __ . . __ . . __ . . __ . . __
 72
    65
 73
     10
 40
3.97
 49
1.75
 49
-0.3
 49
0.3
 49
-0.3
 49
0.06
 49
-0.3
 49
0.06
 49
-0.3
 49
0.3
 49
-0.3
  0
ENDTAB
  0
TABLE
  2
LAYER
 70
    153
  0
LAYER
  2
LAYER10
 70
 64
 62
     1
  6
CONTINUOUS
  0
LAYER
  2
LAYER12
 70
 64
 62
     5
  6
CONTINUOUS
  0
ENDTAB
  0
ENDSEC
  0
SECTION
  2
BLOCKS
  0
ENDSEC
  0
SECTION
  2
ENTITIES
  0
POLYLINE
  8
LAYER10
 62
     1
 66
     1
  6
CONTINUOUS
  0
VERTEX
  8
LAYER10
 62
     1
  6
CONTINUOUS
 10
11.0213
 20
7.6638
  0
VERTEX
  8
LAYER10
 62
     1
  6
CONTINUOUS
 10
11.0213
 20
7.6638
  0
VERTEX
  8
LAYER10
 62
     1
  6
CONTINUOUS
 10
11.0213
 20
7.6638
  0
VERTEX
  8
LAYER10
 62
     1
  6
CONTINUOUS
 10
11.0213
 20
7.6638
  0
VERTEX
  8
LAYER10
 62
     1
  6
CONTINUOUS
 10
11.0213
 20
7.6638
  0
VERTEX
  8
LAYER10
 62
     1
  6
CONTINUOUS
 10
11.0213
 20
7.6638
  0
VERTEX
  8
LAYER10
 62
     1
  6
CONTINUOUS
 10
11.0213
 20
7.6638
  0
VERTEX
  8
LAYER10
 62
     1
  6
CONTINUOUS
 10
11.0213
 20
7.6638
  0
VERTEX
  8
LAYER10
 62
     1
  6
CONTINUOUS
 10
11.0213
 20
7.6638
  0
VERTEX
  8
LAYER10
 62
     1
  6
CONTINUOUS
 10
11.0213
 20
7.6638
  0
VERTEX
  8
LAYER10
 62
     1
  6
CONTINUOUS
 10
11.0213
 20
7.6638
  0
VERTEX
  8
LAYER10
 62
     1
  6
CONTINUOUS
 10
11.0213
 20
7.6638
  0
VERTEX
  8
LAYER10
 62
     1
  6
CONTINUOUS
 10
11.0213
 20
7.6638
  0
VERTEX
  8
LAYER10
 62
     1
  6
CONTINUOUS
 10
11.0213
 20
7.6638
  0
VERTEX
  8
LAYER10
 62
     1
  6
CONTINUOUS
 10
11.0213
 20
7.6638
  0
VERTEX
  8
LAYER10
 62
     1
  6
CONTINUOUS
 10
11.0213
 20
7.6638
  0
VERTEX
  8
LAYER10
 62
     1
  6
CONTINUOUS
 10
11.0213
 20
7.6638
  0
VERTEX
  8
LAYER10
 62
     1
  6
CONTINUOUS
 10
11.0213
 20
7.6638
  0
VERTEX
  8
LAYER10
 62
     1
  6
CONTINUOUS
 10
11.0213
 20
7.6638
  0
VERTEX
  8
LAYER10
 62
     1
  6
CONTINUOUS
 10
11.0213
 20
7.6638
  0
VERTEX
  8
LAYER10
 62
     1
  6
CONTINUOUS
 10
11.0213
 20
7.6638
  0
VERTEX
  8
LAYER10
 62
     1
  6
CONTINUOUS
 10
11.0213
 20
7.6638
  0
VERTEX
  8
LAYER10
 62
     1
  6
CONTINUOUS
 10
11.0213
 20
7.6638
  0
VERTEX
  8
LAYER10
 62
     1
  6
CONTINUOUS
 10
11.0213
 20
7.6638
  0
VERTEX
  8
LAYER10
 62
     1
  6
CONTINUOUS
 10
11.0213
 20
7.6638
  0
SEQEND
  8
LAYER10
  0
POLYLINE
  8
LAYER10
 62
     1
 66
     1
  6
CONTINUOUS
  0
VERTEX
  8
LAYER10
 62
     1
  6
CONTINUOUS
 10
11.0213
 20
7.6638
  0
VERTEX
  8
LAYER10
 62
     1
  6
CONTINUOUS
 10
11.0220
 20
7.6634
  0
VERTEX
  8
LAYER10
 62
     1
  6
CONTINUOUS
 10
11.0228
 20
7.6630
  0
VERTEX
  8
LAYER10
 62
     1
  6
CONTINUOUS
 10
11.0236
 20
7.6625
  0
VERTEX
  8
LAYER10
 62
     1
  6
CONTINUOUS
 10
11.0243
 20
7.6621
  0
VERTEX
  8
LAYER10
 62
     1
  6
CONTINUOUS
 10
11.0250
 20
7.6617
  0
VERTEX
  8
LAYER10
 62
     1
  6
CONTINUOUS
 10
11.0257
 20
7.6614
  0
VERTEX
  8
LAYER10
 62
     1
  6
CONTINUOUS
 10
11.0263
 20
7.6610
  0
VERTEX
  8
LAYER10
 62
     1
  6
CONTINUOUS
 10
11.0269
 20
7.6607
  0
VERTEX
  8
LAYER10
 62
     1
  6
CONTINUOUS
 10
11.0274
 20
7.6604
  0
VERTEX
  8
LAYER10
 62
     1
  6
CONTINUOUS
 10
11.0278
 20
7.6602
  0
VERTEX
  8
LAYER10
 62
     1
  6
CONTINUOUS
 10
11.0281
 20
7.6600
  0
VERTEX
  8
LAYER10
 62
     1
  6
CONTINUOUS
 10
11.0284
 20
7.6598
  0
VERTEX
  8
LAYER10
 62
     1
  6
CONTINUOUS
 10
11.0285
 20
7.6598
  0
VERTEX
  8
LAYER10
 62
     1
  6
CONTINUOUS
 10
11.0286
 20
7.6597
  0
VERTEX
  8
LAYER10
 62
     1
  6
CONTINUOUS
 10
11.0286
 20
7.6597
  0
VERTEX
  8
LAYER10
 62
     1
  6
CONTINUOUS
 10
11.0286
 20
7.6597
  0
VERTEX
  8
LAYER10
 62
     1
  6
CONTINUOUS
 10
11.0286
 20
7.6597
  0
VERTEX
  8
LAYER10
 62
     1
  6
CONTINUOUS
 10
11.0286
 20
7.6597
  0
VERTEX
  8
LAYER10
 62
     1
  6
CONTINUOUS
 10
11.0286
 20
7.6597
  0
VERTEX
  8
LAYER10
 62
     1
  6
CONTINUOUS
 10
11.0286
 20
7.6597
  0
VERTEX
  8
LAYER10
 62
     1
  6
CONTINUOUS
 10
11.0285
 20
7.6597
  0
VERTEX
  8
LAYER10
 62
     1
  6
CONTINUOUS
 10
11.0285
 20
7.6598
  0
VERTEX
  8
LAYER10
 62
     1
  6
CONTINUOUS
 10
11.0284
 20
7.6598
  0
VERTEX
  8
LAYER10
 62
     1
  6
CONTINUOUS
 10
11.0284
 20
7.6598
  0
SEQEND
  8
LAYER10
  0
POLYLINE
  8
LAYER10
 62
     1
 66
     1
  6
CONTINUOUS
  0
VERTEX
  8
LAYER10
 62
     1
  6
CONTINUOUS
 10
11.0284
 20
7.6598
  0
VERTEX
  8
LAYER10
 62
     1
  6
CONTINUOUS
 10
11.0287
 20
7.6597
  0
VERTEX
  8
LAYER10
 62
     1
  6
CONTINUOUS
 10
11.0290
 20
7.6595
  0
VERTEX
  8
LAYER10
 62
     1
  6
CONTINUOUS
 10
11.0292
 20
7.6593
  0
VERTEX
  8
LAYER10
 62
     1
  6
CONTINUOUS
 10
11.0295
 20
7.6592
  0
VERTEX
  8
LAYER10
 62
     1
  6
CONTINUOUS
 10
11.0298
 20
7.6590
  0
VERTEX
  8
LAYER10
 62
     1
  6
CONTINUOUS
 10
11.0301
 20
7.6588
  0
VERTEX
  8
LAYER10
 62
     1
  6
CONTINUOUS
 10
11.0304
 20
7.6587
  0
VERTEX
  8
LAYER10
 62
     1
  6
CONTINUOUS
 10
11.0307
 20
7.6585
  0
VERTEX
  8
LAYER10
 62
     1
  6
CONTINUOUS
 10
11.0310
 20
7.6584
  0
VERTEX
  8
LAYER10
 62
     1
  6
CONTINUOUS
 10
11.0313
 20
7.6582
  0
VERTEX
  8
LAYER10
 62
     1
  6
CONTINUOUS
 10
11.0316
 20
7.6580
  0
VERTEX
  8
LAYER10
 62
     1
  6
CONTINUOUS
 10
11.0319
 20
7.6579
  0
VERTEX
  8
LAYER10
 62
     1
  6
CONTINUOUS
 10
11.0351
 20
7.6562
  0
VERTEX
  8
LAYER10
 62
     1
  6
CONTINUOUS
 10
11.0383
 20
7.6548
  0
VERTEX
  8
LAYER10
 62
     1
  6
CONTINUOUS
 10
11.0417
 20
7.6534
  0
VERTEX
  8
LAYER10
 62
     1
  6
CONTINUOUS
 10
11.0450
 20
7.6521
  0
VERTEX
  8
LAYER10
 62
     1
  6
CONTINUOUS
 10
11.0484
 20
7.6510
  0
VERTEX
  8
LAYER10
 62
     1
  6
CONTINUOUS
 10
11.0519
 20
7.6498
  0
VERTEX
  8
LAYER10
 62
     1
  6
CONTINUOUS
 10
11.0553
 20
7.6488
  0
VERTEX
  8
LAYER10
 62
     1
  6
CONTINUOUS
 10
11.0588
 20
7.6477
  0
VERTEX
  8
LAYER10
 62
     1
  6
CONTINUOUS
 10
11.0623
 20
7.6466
  0
VERTEX
  8
LAYER10
 62
     1
  6
CONTINUOUS
 10
11.0657
 20
7.6455
  0
VERTEX
  8
LAYER10
 62
     1
  6
CONTINUOUS
 10
11.0692
 20
7.6443
  0
VERTEX
  8
LAYER10
 62
     1
  6
CONTINUOUS
 10
11.0726
 20
7.6431
  0
VERTEX
  8
LAYER10
 62
     1
  6
CONTINUOUS
 10
11.0758
 20
7.6419
  0
VERTEX
  8
LAYER10
 62
     1
  6
CONTINUOUS
 10
11.0789
 20
7.6406
  0
VERTEX
  8
LAYER10
 62
     1
  6
CONTINUOUS
 10
11.0820
 20
7.6391
  0
VERTEX
  8
LAYER10
 62
     1
  6
CONTINUOUS
 10
11.0851
 20
7.6377
  0
VERTEX
  8
LAYER10
 62
     1
  6
CONTINUOUS
 10
11.0882
 20
7.6361
  0
VERTEX
  8
LAYER10
 62
     1
  6
CONTINUOUS
 10
11.0912
 20
7.6345
  0
VERTEX
  8
LAYER10
 62
     1
  6
CONTINUOUS
 10
11.0941
 20
7.6328
  0
VERTEX
  8
LAYER10
 62
     1
  6
CONTINUOUS
 10
11.0970
 20
7.6310
  0
VERTEX
  8
LAYER10
 62
     1
  6
CONTINUOUS
 10
11.0999
 20
7.6292
  0
VERTEX
  8
LAYER10
 62
     1
  6
CONTINUOUS
 10
11.1028
 20
7.6272
  0
VERTEX
  8
LAYER10
 62
     1
  6
CONTINUOUS
 10
11.1055
 20
7.6253
  0
VERTEX
  8
LAYER10
 62
     1
  6
CONTINUOUS
 10
11.1083
 20
7.6232
  0
VERTEX
  8
LAYER10
 62
     1
  6
CONTINUOUS
 10
11.1109
 20
7.6212
  0
VERTEX
  8
LAYER10
 62
     1
  6
CONTINUOUS
 10
11.1135
 20
7.6191
  0
VERTEX
  8
LAYER10
 62
     1
  6
CONTINUOUS
 10
11.1160
 20
7.6170
  0
VERTEX
  8
LAYER10
 62
     1
  6
CONTINUOUS
 10
11.1185
 20
7.6149
  0
VERTEX
  8
LAYER10
 62
     1
  6
CONTINUOUS
 10
11.1210
 20
7.6127
  0
VERTEX
  8
LAYER10
 62
     1
  6
CONTINUOUS
 10
11.1235
 20
7.6106
  0
VERTEX
  8
LAYER10
 62
     1
  6
CONTINUOUS
 10
11.1260
 20
7.6084
  0
VERTEX
  8
LAYER10
 62
     1
  6
CONTINUOUS
 10
11.1286
 20
7.6063
  0
VERTEX
  8
LAYER10
 62
     1
  6
CONTINUOUS
 10
11.1311
 20
7.6042
  0
VERTEX
  8
LAYER10
 62
     1
  6
CONTINUOUS
 10
11.1337
 20
7.6022
  0
VERTEX
  8
LAYER10
 62
     1
  6
CONTINUOUS
 10
11.1363
 20
7.6002
  0
VERTEX
  8
LAYER10
 62
     1
  6
CONTINUOUS
 10
11.1390
 20
7.5982
  0
VERTEX
  8
LAYER10
 62
     1
  6
CONTINUOUS
 10
11.1415
 20
7.5965
  0
VERTEX
  8
LAYER10
 62
     1
  6
CONTINUOUS
 10
11.1440
 20
7.5948
  0
VERTEX
  8
LAYER10
 62
     1
  6
CONTINUOUS
 10
11.1466
 20
7.5932
  0
VERTEX
  8
LAYER10
 62
     1
  6
CONTINUOUS
 10
11.1492
 20
7.5916
  0
VERTEX
  8
LAYER10
 62
     1
  6
CONTINUOUS
 10
11.1518
 20
7.5900
  0
VERTEX
  8
LAYER10
 62
     1
  6
CONTINUOUS
 10
11.1544
 20
7.5884
  0
VERTEX
  8
LAYER10
 62
     1
  6
CONTINUOUS
 10
11.1570
 20
7.5868
  0
VERTEX
  8
LAYER10
 62
     1
  6
CONTINUOUS
 10
11.1596
 20
7.5852
  0
VERTEX
  8
LAYER10
 62
     1
  6
CONTINUOUS
 10
11.1621
 20
7.5835
  0
VERTEX
  8
LAYER10
 62
     1
  6
CONTINUOUS
 10
11.1647
 20
7.5818
  0
VERTEX
  8
LAYER10
 62
     1
  6
CONTINUOUS
 10
11.1672
 20
7.5801
  0
VERTEX
  8
LAYER10
 62
     1
  6
CONTINUOUS
 10
11.1696
 20
7.5783
  0
VERTEX
  8
LAYER10
 62
     1
  6
CONTINUOUS
 10
11.1721
 20
7.5763
  0
VERTEX
  8
LAYER10
 62
     1
  6
CONTINUOUS
 10
11.1746
 20
7.5743
  0
VERTEX
  8
LAYER10
 62
     1
  6
CONTINUOUS
 10
11.1770
 20
7.5721
  0
VERTEX
  8
LAYER10
 62
     1
  6
CONTINUOUS
 10
11.1793
 20
7.5700
  0
VERTEX
  8
LAYER10
 62
     1
  6
CONTINUOUS
 10
11.1816
 20
7.5677
  0
VERTEX
  8
LAYER10
 62
     1
  6
CONTINUOUS
 10
11.1839
 20
7.5654
  0
VERTEX
  8
LAYER10
 62
     1
  6
CONTINUOUS
 10
11.1861
 20
7.5631
  0
VERTEX
  8
LAYER10
 62
     1
  6
CONTINUOUS
 10
11.1883
 20
7.5608
  0
VERTEX
  8
LAYER10
 62
     1
  6
CONTINUOUS
 10
11.1905
 20
7.5584
  0
VERTEX
  8
LAYER10
 62
     1
  6
CONTINUOUS
 10
11.1927
 20
7.5560
  0
VERTEX
  8
LAYER10
 62
     1
  6
CONTINUOUS
 10
11.1948
 20
7.5535
  0
VERTEX
  8
LAYER10
 62
     1
  6
CONTINUOUS
 10
11.1970
 20
7.5511
  0
SEQEND
  8
LAYER10
  0
POLYLINE
  8
LAYER10
 62
     1
 66
     1
  6
CONTINUOUS
  0
VERTEX
  8
LAYER10
 62
     1
  6
CONTINUOUS
 10
11.0207
 20
7.6641
  0
VERTEX
  8
LAYER10
 62
     1
  6
CONTINUOUS
 10
11.0207
 20
7.6641
  0
VERTEX
  8
LAYER10
 62
     1
  6
CONTINUOUS
 10
11.0207
 20
7.6641
  0
VERTEX
  8
LAYER10
 62
     1
  6
CONTINUOUS
 10
11.0207
 20
7.6641
  0
VERTEX
  8
LAYER10
 62
     1
  6
CONTINUOUS
 10
11.0207
 20
7.6641
  0
VERTEX
  8
LAYER10
 62
     1
  6
CONTINUOUS
 10
11.0207
 20
7.6641
  0
VERTEX
  8
LAYER10
 62
     1
  6
CONTINUOUS
 10
11.0207
 20
7.6641
  0
VERTEX
  8
LAYER10
 62
     1
  6
CONTINUOUS
 10
11.0207
 20
7.6641
  0
VERTEX
  8
LAYER10
 62
     1
  6
CONTINUOUS
 10
11.0207
 20
7.6641
  0
VERTEX
  8
LAYER10
 62
     1
  6
CONTINUOUS
 10
11.0207
 20
7.6641
  0
VERTEX
  8
LAYER10
 62
     1
  6
CONTINUOUS
 10
11.0207
 20
7.6641
  0
VERTEX
  8
LAYER10
 62
     1
  6
CONTINUOUS
 10
11.0207
 20
7.6641
  0
VERTEX
  8
LAYER10
 62
     1
  6
CONTINUOUS
 10
11.0207
 20
7.6641
  0
VERTEX
  8
LAYER10
 62
     1
  6
CONTINUOUS
 10
11.0207
 20
7.6641
  0
VERTEX
  8
LAYER10
 62
     1
  6
CONTINUOUS
 10
11.0207
 20
7.6641
  0
VERTEX
  8
LAYER10
 62
     1
  6
CONTINUOUS
 10
11.0207
 20
7.6641
  0
VERTEX
  8
LAYER10
 62
     1
  6
CONTINUOUS
 10
11.0207
 20
7.6641
  0
VERTEX
  8
LAYER10
 62
     1
  6
CONTINUOUS
 10
11.0207
 20
7.6641
  0
VERTEX
  8
LAYER10
 62
     1
  6
CONTINUOUS
 10
11.0207
 20
7.6641
  0
VERTEX
  8
LAYER10
 62
     1
  6
CONTINUOUS
 10
11.0207
 20
7.6641
  0
VERTEX
  8
LAYER10
 62
     1
  6
CONTINUOUS
 10
11.0207
 20
7.6641
  0
VERTEX
  8
LAYER10
 62
     1
  6
CONTINUOUS
 10
11.0207
 20
7.6641
  0
VERTEX
  8
LAYER10
 62
     1
  6
CONTINUOUS
 10
11.0207
 20
7.6641
  0
VERTEX
  8
LAYER10
 62
     1
  6
CONTINUOUS
 10
11.0207
 20
7.6641
  0
VERTEX
  8
LAYER10
 62
     1
  6
CONTINUOUS
 10
11.0207
 20
7.6641
  0
SEQEND
  8
LAYER10
  0
POLYLINE
  8
LAYER10
 62
     1
 66
     1
  6
CONTINUOUS
  0
VERTEX
  8
LAYER10
 62
     1
  6
CONTINUOUS
 10
11.0207
 20
7.6641
  0
VERTEX
  8
LAYER10
 62
     1
  6
CONTINUOUS
 10
11.0207
 20
7.6641
  0
VERTEX
  8
LAYER10
 62
     1
  6
CONTINUOUS
 10
11.0207
 20
7.6641
  0
VERTEX
  8
LAYER10
 62
     1
  6
CONTINUOUS
 10
11.0207
 20
7.6641
  0
VERTEX
  8
LAYER10
 62
     1
  6
CONTINUOUS
 10
11.0207
 20
7.6641
  0
VERTEX
  8
LAYER10
 62
     1
  6
CONTINUOUS
 10
11.0207
 20
7.6641
  0
VERTEX
  8
LAYER10
 62
     1
  6
CONTINUOUS
 10
11.0207
 20
7.6641
  0
VERTEX
  8
LAYER10
 62
     1
  6
CONTINUOUS
 10
11.0207
 20
7.6641
  0
VERTEX
  8
LAYER10
 62
     1
  6
CONTINUOUS
 10
11.0207
 20
7.6641
  0
VERTEX
  8
LAYER10
 62
     1
  6
CONTINUOUS
 10
11.0207
 20
7.6641
  0
VERTEX
  8
LAYER10
 62
     1
  6
CONTINUOUS
 10
11.0207
 20
7.6641
  0
VERTEX
  8
LAYER10
 62
     1
  6
CONTINUOUS
 10
11.0207
 20
7.6641
  0
VERTEX
  8
LAYER10
 62
     1
  6
CONTINUOUS
 10
11.0207
 20
7.6641
  0
VERTEX
  8
LAYER10
 62
     1
  6
CONTINUOUS
 10
11.0207
 20
7.6641
  0
VERTEX
  8
LAYER10
 62
     1
  6
CONTINUOUS
 10
11.0207
 20
7.6641
  0
VERTEX
  8
LAYER10
 62
     1
  6
CONTINUOUS
 10
11.0207
 20
7.6641
  0
VERTEX
  8
LAYER10
 62
     1
  6
CONTINUOUS
 10
11.0207
 20
7.6641
  0
VERTEX
  8
LAYER10
 62
     1
  6
CONTINUOUS
 10
11.0207
 20
7.6641
  0
VERTEX
  8
LAYER10
 62
     1
  6
CONTINUOUS
 10
11.0207
 20
7.6641
  0
VERTEX
  8
LAYER10
 62
     1
  6
CONTINUOUS
 10
11.0207
 20
7.6641
  0
VERTEX
  8
LAYER10
 62
     1
  6
CONTINUOUS
 10
11.0207
 20
7.6641
  0
VERTEX
  8
LAYER10
 62
     1
  6
CONTINUOUS
 10
11.0207
 20
7.6641
  0
VERTEX
  8
LAYER10
 62
     1
  6
CONTINUOUS
 10
11.0207
 20
7.6641
  0
VERTEX
  8
LAYER10
 62
     1
  6
CONTINUOUS
 10
11.0207
 20
7.6641
  0
VERTEX
  8
LAYER10
 62
     1
  6
CONTINUOUS
 10
11.0207
 20
7.6641
  0
SEQEND
  8
LAYER10
  0
POLYLINE
  8
LAYER10
 62
     1
 66
     1
  6
CONTINUOUS
  0
VERTEX
  8
LAYER10
 62
     1
  6
CONTINUOUS
 10
11.0207
 20
7.6641
  0
VERTEX
  8
LAYER10
 62
     1
  6
CONTINUOUS
 10
11.0208
 20
7.6641
  0
VERTEX
  8
LAYER10
 62
     1
  6
CONTINUOUS
 10
11.0208
 20
7.6640
  0
VERTEX
  8
LAYER10
 62
     1
  6
CONTINUOUS
 10
11.0209
 20
7.6640
  0
VERTEX
  8
LAYER10
 62
     1
  6
CONTINUOUS
 10
11.0209
 20
7.6640
  0
VERTEX
  8
LAYER10
 62
     1
  6
CONTINUOUS
 10
11.0210
 20
7.6640
  0
VERTEX
  8
LAYER10
 62
     1
  6
CONTINUOUS
 10
11.0210
 20
7.6640
  0
VERTEX
  8
LAYER10
 62
     1
  6
CONTINUOUS
 10
11.0210
 20
7.6639
  0
VERTEX
  8
LAYER10
 62
     1
  6
CONTINUOUS
 10
11.0211
 20
7.6639
  0
VERTEX
  8
LAYER10
 62
     1
  6
CONTINUOUS
 10
11.0211
 20
7.6639
  0
VERTEX
  8
LAYER10
 62
     1
  6
CONTINUOUS
 10
11.0212
 20
7.6639
  0
VERTEX
  8
LAYER10
 62
     1
  6
CONTINUOUS
 10
11.0212
 20
7.6639
  0
VERTEX
  8
LAYER10
 62
     1
  6
CONTINUOUS
 10
11.0213
 20
7.6638
  0
VERTEX
  8
LAYER10
 62
     1
  6
CONTINUOUS
 10
11.0215
 20
7.6637
  0
VERTEX
  8
LAYER10
 62
     1
  6
CONTINUOUS
 10
11.0217
 20
7.6636
  0
VERTEX
  8
LAYER10
 62
     1
  6
CONTINUOUS
 10
11.0219
 20
7.6636
  0
VERTEX
  8
LAYER10
 62
     1
  6
CONTINUOUS
 10
11.0219
 20
7.6635
  0
VERTEX
  8
LAYER10
 62
     1
  6
CONTINUOUS
 10
11.0220
 20
7.6635
  0
VERTEX
  8
LAYER10
 62
     1
  6
CONTINUOUS
 10
11.0219
 20
7.6635
  0
VERTEX
  8
LAYER10
 62
     1
  6
CONTINUOUS
 10
11.0219
 20
7.6636
  0
VERTEX
  8
LAYER10
 62
     1
  6
CONTINUOUS
 10
11.0218
 20
7.6636
  0
VERTEX
  8
LAYER10
 62
     1
  6
CONTINUOUS
 10
11.0217
 20
7.6636
  0
VERTEX
  8
LAYER10
 62
     1
  6
CONTINUOUS
 10
11.0216
 20
7.6637
  0
VERTEX
  8
LAYER10
 62
     1
  6
CONTINUOUS
 10
11.0214
 20
7.6638
  0
VERTEX
  8
LAYER10
 62
     1
  6
CONTINUOUS
 10
11.0213
 20
7.6638
  0
SEQEND
  8
LAYER10
  0
POLYLINE
  8
LAYER10
 62
     1
 66
     1
  6
CONTINUOUS
  0
VERTEX
  8
LAYER10
 62
     1
  6
CONTINUOUS
 10
11.1970
 20
7.5511
  0
VERTEX
  8
LAYER10
 62
     1
  6
CONTINUOUS
 10
11.1973
 20
7.5509
  0
VERTEX
  8
LAYER10
 62
     1
  6
CONTINUOUS
 10
11.1975
 20
7.5506
  0
VERTEX
  8
LAYER10
 62
     1
  6
CONTINUOUS
 10
11.1978
 20
7.5504
  0
VERTEX
  8
LAYER10
 62
     1
  6
CONTINUOUS
 10
11.1981
 20
7.5501
  0
VERTEX
  8
LAYER10
 62
     1
  6
CONTINUOUS
 10
11.1984
 20
7.5499
  0
VERTEX
  8
LAYER10
 62
     1
  6
CONTINUOUS
 10
11.1987
 20
7.5496
  0
VERTEX
  8
LAYER10
 62
     1
  6
CONTINUOUS
 10
11.1990
 20
7.5494
  0
VERTEX
  8
LAYER10
 62
     1
  6
CONTINUOUS
 10
11.1992
 20
7.5492
  0
VERTEX
  8
LAYER10
 62
     1
  6
CONTINUOUS
 10
11.1995
 20
7.5489
  0
VERTEX
  8
LAYER10
 62
     1
  6
CONTINUOUS
 10
11.1998
 20
7.5487
  0
VERTEX
  8
LAYER10
 62
     1
  6
CONTINUOUS
 10
11.2001
 20
7.5484
  0
VERTEX
  8
LAYER10
 62
     1
  6
CONTINUOUS
 10
11.2004
 20
7.5482
  0
VERTEX
  8
LAYER10
 62
     1
  6
CONTINUOUS
 10
11.2011
 20
7.5476
  0
VERTEX
  8
LAYER10
 62
     1
  6
CONTINUOUS
 10
11.2018
 20
7.5471
  0
VERTEX
  8
LAYER10
 62
     1
  6
CONTINUOUS
 10
11.2025
 20
7.5465
  0
VERTEX
  8
LAYER10
 62
     1
  6
CONTINUOUS
 10
11.2032
 20
7.5460
  0
VERTEX
  8
LAYER10
 62
     1
  6
CONTINUOUS
 10
11.2040
 20
7.5454
  0
VERTEX
  8
LAYER10
 62
     1
  6
CONTINUOUS
 10
11.2047
 20
7.5449
  0
VERTEX
  8
LAYER10
 62
     1
  6
CONTINUOUS
 10
11.2055
 20
7.5443
  0
VERTEX
  8
LAYER10
 62
     1
  6
CONTINUOUS
 10
11.2062
 20
7.5438
  0
VERTEX
  8
LAYER10
 62
     1
  6
CONTINUOUS
 10
11.2069
 20
7.5433
  0
VERTEX
  8
LAYER10
 62
     1
  6
CONTINUOUS
 10
11.2077
 20
7.5428
  0
VERTEX
  8
LAYER10
 62
     1
  6
CONTINUOUS
 10
11.2084
 20
7.5422
  0
VERTEX
  8
LAYER10
 62
     1
  6
CONTINUOUS
 10
11.2092
 20
7.5417
  0
SEQEND
  8
LAYER10
  0
POLYLINE
  8
LAYER12
 62
     5
 66
     1
  6
CONTINUOUS
  0
VERTEX
  8
LAYER12
 62
     5
  6
CONTINUOUS
 10
11.0213
 20
8.5302
  0
VERTEX
  8
LAYER12
 62
     5
  6
CONTINUOUS
 10
11.0235
 20
8.5302
  0
SEQEND
  8
LAYER12
  0
POLYLINE
  8
LAYER12
 62
     5
 66
     1
  6
CONTINUOUS
  0
VERTEX
  8
LAYER12
 62
     5
  6
CONTINUOUS
 10
11.0235
 20
8.5302
  0
VERTEX
  8
LAYER12
 62
     5
  6
CONTINUOUS
 10
11.0284
 20
8.5302
  0
SEQEND
  8
LAYER12
  0
POLYLINE
  8
LAYER12
 62
     5
 66
     1
  6
CONTINUOUS
  0
VERTEX
  8
LAYER12
 62
     5
  6
CONTINUOUS
 10
11.0284
 20
8.5302
  0
VERTEX
  8
LAYER12
 62
     5
  6
CONTINUOUS
 10
11.0284
 20
8.5302
  0
SEQEND
  8
LAYER12
  0
POLYLINE
  8
LAYER12
 62
     5
 66
     1
  6
CONTINUOUS
  0
VERTEX
  8
LAYER12
 62
     5
  6
CONTINUOUS
 10
11.0235
 20
7.5424
  0
VERTEX
  8
LAYER12
 62
     5
  6
CONTINUOUS
 10
11.0235
 20
7.5495
  0
SEQEND
  8
LAYER12
  0
POLYLINE
  8
LAYER12
 62
     5
 66
     1
  6
CONTINUOUS
  0
VERTEX
  8
LAYER12
 62
     5
  6
CONTINUOUS
 10
11.0284
 20
7.5465
  0
VERTEX
  8
LAYER12
 62
     5
  6
CONTINUOUS
 10
11.0248
 20
7.5465
  0
SEQEND
  8
LAYER12
  0
POLYLINE
  8
LAYER12
 62
     5
 66
     1
  6
CONTINUOUS
  0
VERTEX
  8
LAYER12
 62
     5
  6
CONTINUOUS
 10
11.0248
 20
7.5465
  0
VERTEX
  8
LAYER12
 62
     5
  6
CONTINUOUS
 10
11.0213
 20
7.5465
  0
SEQEND
  8
LAYER12
  0
POLYLINE
  8
LAYER12
 62
     5
 66
     1
  6
CONTINUOUS
  0
VERTEX
  8
LAYER12
 62
     5
  6
CONTINUOUS
 10
12.0465
 20
8.5302
  0
VERTEX
  8
LAYER12
 62
     5
  6
CONTINUOUS
 10
12.0465
 20
8.5299
  0
SEQEND
  8
LAYER12
  0
POLYLINE
  8
LAYER12
 62
     5
 66
     1
  6
CONTINUOUS
  0
VERTEX
  8
LAYER12
 62
     5
  6
CONTINUOUS
 10
12.0465
 20
8.5299
  0
VERTEX
  8
LAYER12
 62
     5
  6
CONTINUOUS
 10
12.0465
 20
7.5511
  0
SEQEND
  8
LAYER12
  0
POLYLINE
  8
LAYER12
 62
     5
 66
     1
  6
CONTINUOUS
  0
VERTEX
  8
LAYER12
 62
     5
  6
CONTINUOUS
 10
11.0235
 20
8.5239
  0
VERTEX
  8
LAYER12
 62
     5
  6
CONTINUOUS
 10
11.0235
 20
8.5299
  0
SEQEND
  8
LAYER12
  0
POLYLINE
  8
LAYER12
 62
     5
 66
     1
  6
CONTINUOUS
  0
VERTEX
  8
LAYER12
 62
     5
  6
CONTINUOUS
 10
11.0235
 20
8.5299
  0
VERTEX
  8
LAYER12
 62
     5
  6
CONTINUOUS
 10
11.0235
 20
8.5302
  0
SEQEND
  8
LAYER12
  0
POLYLINE
  8
LAYER12
 62
     5
 66
     1
  6
CONTINUOUS
  0
VERTEX
  8
LAYER12
 62
     5
  6
CONTINUOUS
 10
11.0284
 20
8.5302
  0
VERTEX
  8
LAYER12
 62
     5
  6
CONTINUOUS
 10
12.0512
 20
8.5302
  0
SEQEND
  8
LAYER12
  0
POLYLINE
  8
LAYER12
 62
     5
 66
     1
  6
CONTINUOUS
  0
VERTEX
  8
LAYER12
 62
     5
  6
CONTINUOUS
 10
11.0235
 20
7.5495
  0
VERTEX
  8
LAYER12
 62
     5
  6
CONTINUOUS
 10
11.0235
 20
7.5511
  0
SEQEND
  8
LAYER12
  0
POLYLINE
  8
LAYER12
 62
     5
 66
     1
  6
CONTINUOUS
  0
VERTEX
  8
LAYER12
 62
     5
  6
CONTINUOUS
 10
11.0235
 20
7.5511
  0
VERTEX
  8
LAYER12
 62
     5
  6
CONTINUOUS
 10
11.0235
 20
8.5239
  0
SEQEND
  8
LAYER12
  0
POLYLINE
  8
LAYER12
 62
     5
 66
     1
  6
CONTINUOUS
  0
VERTEX
  8
LAYER12
 62
     5
  6
CONTINUOUS
 10
11.0235
 20
8.5346
  0
VERTEX
  8
LAYER12
 62
     5
  6
CONTINUOUS
 10
11.0235
 20
8.5346
  0
SEQEND
  8
LAYER12
  0
POLYLINE
  8
LAYER12
 62
     5
 66
     1
  6
CONTINUOUS
  0
VERTEX
  8
LAYER12
 62
     5
  6
CONTINUOUS
 10
11.0235
 20
8.5346
  0
VERTEX
  8
LAYER12
 62
     5
  6
CONTINUOUS
 10
11.0235
 20
8.5302
  0
SEQEND
  8
LAYER12
  0
POLYLINE
  8
LAYER12
 62
     5
 66
     1
  6
CONTINUOUS
  0
VERTEX
  8
LAYER12
 62
     5
  6
CONTINUOUS
 10
12.0559
 20
7.5465
  0
VERTEX
  8
LAYER12
 62
     5
  6
CONTINUOUS
 10
11.0284
 20
7.5465
  0
SEQEND
  8
LAYER12
  0
POLYLINE
  8
LAYER12
 62
     5
 66
     1
  6
CONTINUOUS
  0
VERTEX
  8
LAYER12
 62
     5
  6
CONTINUOUS
 10
11.0213
 20
7.5465
  0
VERTEX
  8
LAYER12
 62
     5
  6
CONTINUOUS
 10
11.0207
 20
7.5465
  0
SEQEND
  8
LAYER12
  0
POLYLINE
  8
LAYER12
 62
     5
 66
     1
  6
CONTINUOUS
  0
VERTEX
  8
LAYER12
 62
     5
  6
CONTINUOUS
 10
11.0235
 20
7.5417
  0
VERTEX
  8
LAYER12
 62
     5
  6
CONTINUOUS
 10
11.0235
 20
7.5424
  0
SEQEND
  8
LAYER12
  0
POLYLINE
  8
LAYER12
 62
     5
 66
     1
  6
CONTINUOUS
  0
VERTEX
  8
LAYER12
 62
     5
  6
CONTINUOUS
 10
11.0235
 20
8.5346
  0
VERTEX
  8
LAYER12
 62
     5
  6
CONTINUOUS
 10
11.0235
 20
8.5346
  0
SEQEND
  8
LAYER12
  0
POLYLINE
  8
LAYER12
 62
     5
 66
     1
  6
CONTINUOUS
  0
VERTEX
  8
LAYER12
 62
     5
  6
CONTINUOUS
 10
12.0465
 20
7.5511
  0
VERTEX
  8
LAYER12
 62
     5
  6
CONTINUOUS
 10
12.0465
 20
7.5417
  0
SEQEND
  8
LAYER12
  0
POLYLINE
  8
LAYER12
 62
     5
 66
     1
  6
CONTINUOUS
  0
VERTEX
  8
LAYER12
 62
     5
  6
CONTINUOUS
 10
12.0512
 20
8.5302
  0
VERTEX
  8
LAYER12
 62
     5
  6
CONTINUOUS
 10
12.0559
 20
8.5302
  0
SEQEND
  8
LAYER12
  0
POLYLINE
  8
LAYER12
 62
     5
 66
     1
  6
CONTINUOUS
  0
VERTEX
  8
LAYER12
 62
     5
  6
CONTINUOUS
 10
11.0207
 20
8.5302
  0
VERTEX
  8
LAYER12
 62
     5
  6
CONTINUOUS
 10
11.0213
 20
8.5302
  0
SEQEND
  8
LAYER12
  0
ENDSEC
  0
EOF
