  0
SECTION
  2
HEADER
  9
$ACADVER
  1
AC1004
  9
$EXTMIN
 10
8.0319
 20
7.5458
  9
$EXTMAX
 10
9.0561
 20
8.5310
  9
$LIMMIN
 10
8.0319
 20
7.5458
  9
$LIMMAX
 10
9.0561
 20
8.5310
  9
$INSBASE
 10
0.0
 20
0.0
  9
$VIEWCTR
 10
7.21903
 20
4.5
  9
$VIEWSIZE
 40
9.0
  9
$SNAPMODE
 70
     0
  9
$SNAPUNIT
 10
1.0
 20
1.0
  9
$SNAPBASE
 10
0.0
 20
0.0
  9
$SNAPANG
 50
0.0
  9
$SNAPSTYLE
 70
     0
  9
$SNAPISOPAIR
 70
     0
  9
$GRIDMODE
 70
     0
  9
$GRIDUNIT
 10
0.0
 20
0.0
  9
$ORTHOMODE
 70
     0
  9
$REGENMODE
 70
     1
  9
$FILLMODE
 70
     1
  9
$QTEXTMODE
 70
     0
  9
$DRAGMODE
 70
     2
  9
$LTSCALE
 40
1.0
  9
$OSMODE
 70
     0
  9
$ATTMODE
 70
     1
  9
$TEXTSIZE
 40
0.2
  9
$TRACEWID
 40
0.05
  9
$TEXTSTYLE
  7
STANDARD
  9
$CLAYER
  8
0
  9
$CELTYPE
  6
BYLAYER
  9
$CECOLOR
 62
   256
  9
$DIMSCALE
 40
1.0
  9
$DIMASZ
 40
0.18
  9
$DIMEXO
 40
0.0625
  9
$DIMDLI
 40
0.38
  9
$DIMRND
 40
0.0
  9
$DIMDLE
 40
0.0
  9
$DIMEXE
 40
0.18
  9
$DIMTP
 40
0.0
  9
$DIMTM
 40
0.0
  9
$DIMTXT
 40
0.18
  9
$DIMCEN
 40
0.09
  9
$DIMTSZ
 40
0.0
  9
$DIMTOL
 70
     0
  9
$DIMLIM
 70
     0
  9
$DIMTIH
 70
     1
  9
$DIMTOH
 70
     1
  9
$DIMSE1
 70
     0
  9
$DIMSE2
 70
     0
  9
$DIMTAD
 70
     0
  9
$DIMZIN
 70
     0
  9
$DIMBLK
  1

  9
$DIMASO
 70
     1
  9
$DIMSHO
 70
     0
  9
$DIMPOST
  1

  9
$DIMAPOST
  1

  9
$DIMALT
 70
     0
  9
$DIMALTD
 70
     2
  9
$DIMALTF
 40
25.4
  9
$DIMLFAC
 40
1.0
  9
$LUNITS
 70
     2
  9
$LUPREC
 70
     4
  9
$AXISMODE
 70
     0
  9
$AXISUNIT
 10
0.0
 20
0.0
  9
$SKETCHINC
 40
0.1
  9
$FILLETRAD
 40
0.0
  9
$AUNITS
 70
     0
  9
$AUPREC
 70
     0
  9
$MENU
  1
acad
  9
$ELEVATION
 40
0.0
  9
$THICKNESS
 40
0.0
  9
$VIEWDIR
 10
0.0
 20
0.0
 30
1.0
  9
$LIMCHECK
 70
     0
  9
$BLIPMODE
 70
     1
  9
$CHAMFERA
 40
0.0
  9
$CHAMFERB
 40
0.0
  9
$FASTZOOM
 70
     1
  9
$SKPOLY
 70
     0
  9
$TDCREATE
 40
2447222.5666886573
  9
$TDUPDATE
 40
2447222.5666886573
  9
$TDINDWG
 40
0.0000000000
  9
$TDUSRTIMER
 40
0.0000000000
  9
$USRTIMER
 70
     1
  9
$ANGBASE
 50
0.0
  9
$ANGDIR
 70
     0
  9
$PDMODE
 70
     0
  9
$PDSIZE
 40
0.0
  9
$PLINEWID
 40
0.0
  9
$COORDS
 70
     0
  9
$SPLFRAME
 70
     0
  9
$SPLINESEGS
 70
     8
  9
$ATTDIA
 70
     0
  9
$ATTREQ
 70
     1
  9
$USERI1
 70
     0
  9
$USERI2
 70
     0
  9
$USERI3
 70
     0
  9
$USERI4
 70
     0
  9
$USERI5
 70
     0
  9
$USERR1
 40
0.0
  9
$USERR2
 40
0.0
  9
$USERR3
 40
0.0
  9
$USERR4
 40
0.0
  9
$USERR5
 40
0.0
  0
ENDSEC
  0
SECTION
  2
TABLES
  0
TABLE
  2
LTYPE
 70
     13
  0
LTYPE
  2
CONTINUOUS
 70
    64
  3
Solid line
 72
    65
 73
     0
 40
0.0
  0
LTYPE
  2
DASHED
 70
    64
  3
__ __ __ __ __ __ __ __ __ __ __ __ __ __ __
 72
    65
 73
     2
 40
0.75
 49
0.5
 49
-0.25
  0
LTYPE
  2
HIDDEN
 70
    64
  3
_ _ _ _ _ _ _ _ _ _ _ _ _ _ _ _ _ _ _ _ _ _ _
 72
    65
 73
     2
 40
0.375
 49
0.25
 49
-0.125
  0
LTYPE
  2
CENTER
 70
    64
  3
____ _ ____ _ ____ _ ____ _ ____ _ ____ _ ____
 72
    65
 73
     4
 40
2.0
 49
1.25
 49
-0.25
 49
0.25
 49
-0.25
  0
LTYPE
  2
PHANTOM
 70
    64
  3
_____ _ _ _____ _ _ _____ _ _ _____ _ _ ____
 72
    65
 73
     6
 40
2.5
 49
1.25
 49
-0.25
 49
0.25
 49
-0.25
 49
0.25
 49
-0.25
  0
LTYPE
  2
DOT
 70
    64
  3
...............................................
 72
    65
 73
     2
 40
0.25
 49
0.0
 49
-0.25
  0
LTYPE
  2
DASHDOT
 70
    64
  3
__ . __ . __ . __ . __ . __ . __ . __ . __ . __
 72
    65
 73
     4
 40
1.0
 49
0.5
 49
-0.25
 49
0.0
 49
-0.25
  0
LTYPE
  2
BORDER
 70
    64
  3
__ __ . __ __ . __ __ . __ __ . __ __ . __ __
 72
    65
 73
     6
 40
1.75
 49
0.5
 49
-0.25
 49
0.5
 49
-0.25
 49
0.0
 49
-0.25
  0
LTYPE
  2
DIVIDE
 70
    64
  3
__ . . __ . . __ . . __ . . __ . . __ . . __
 72
    65
 73
     6
 40
1.25
 49
0.5
 49
-0.25
 49
0.0
 49
-0.25
 49
0.0
 49
-0.25
  0
LTYPE
  2
DCTYPE1
 70
    64
  3
__ . . __ . . __ . . __ . . __ . . __ . . __
 72
    65
 73
     8
 40
2.5
 49
0.5
 49
-0.25
 49
0.125
 49
-0.25
 49
0.25
 49
-0.25
 49
0.125
 49
-0.25
  0
LTYPE
  2
DCTYPE2
 70
    64
  3
__ . . __ . . __ . . __ . . __ . . __ . . __
 72
    65
 73
     6
 40
2.05
 49
1.0
 49
-0.3
 49
0.15
 49
-0.15
 49
0.15
 49
-0.3
  0
LTYPE
  2
DCTYPE3
 70
    64
  3
__ . . __ . . __ . . __ . . __ . . __ . . __
 72
    65
 73
     6
 40
2.5
 49
0.8
 49
-0.2
 49
0.8
 49
-0.2
 49
0.3
 49
-0.2
  0
LTYPE
  2
DCTYPE4
 70
    64
  3
__ . . __ . . __ . . __ . . __ . . __ . . __
 72
    65
 73
     10
 40
3.97
 49
1.75
 49
-0.3
 49
0.3
 49
-0.3
 49
0.06
 49
-0.3
 49
0.06
 49
-0.3
 49
0.3
 49
-0.3
  0
ENDTAB
  0
TABLE
  2
LAYER
 70
    153
  0
LAYER
  2
LAYER1
 70
 64
 62
     7
  6
CONTINUOUS
  0
LAYER
  2
LAYER10
 70
 64
 62
     1
  6
CONTINUOUS
  0
LAYER
  2
LAYER12
 70
 64
 62
     5
  6
CONTINUOUS
  0
ENDTAB
  0
ENDSEC
  0
SECTION
  2
BLOCKS
  0
ENDSEC
  0
SECTION
  2
ENTITIES
  0
CIRCLE
  8
LAYER1
 62
     7
  6
CONTINUOUS
 10
8.1897
 20
8.4146
 40
0.0136
  0
CIRCLE
  8
LAYER1
 62
     7
  6
CONTINUOUS
 10
8.2581
 20
8.4230
 40
0.0127
  0
CIRCLE
  8
LAYER1
 62
     7
  6
CONTINUOUS
 10
8.3347
 20
8.3706
 40
0.0080
  0
CIRCLE
  8
LAYER1
 62
     7
  6
CONTINUOUS
 10
8.3576
 20
8.3582
 40
0.0183
  0
CIRCLE
  8
LAYER1
 62
     7
  6
CONTINUOUS
 10
8.3739
 20
8.2595
 40
0.0076
  0
CIRCLE
  8
LAYER1
 62
     7
  6
CONTINUOUS
 10
8.2409
 20
8.1415
 40
0.0193
  0
CIRCLE
  8
LAYER1
 62
     7
  6
CONTINUOUS
 10
8.6841
 20
8.1768
 40
0.0198
  0
CIRCLE
  8
LAYER1
 62
     7
  6
CONTINUOUS
 10
8.7271
 20
8.1823
 40
0.0108
  0
CIRCLE
  8
LAYER1
 62
     7
  6
CONTINUOUS
 10
8.7830
 20
8.1677
 40
0.0129
  0
CIRCLE
  8
LAYER1
 62
     7
  6
CONTINUOUS
 10
8.6933
 20
8.0324
 40
0.0217
  0
CIRCLE
  8
LAYER1
 62
     7
  6
CONTINUOUS
 10
8.6913
 20
7.9842
 40
0.0185
  0
CIRCLE
  8
LAYER1
 62
     7
  6
CONTINUOUS
 10
8.7980
 20
7.9575
 40
0.0160
  0
CIRCLE
  8
LAYER1
 62
     7
  6
CONTINUOUS
 10
8.5399
 20
7.9217
 40
0.0204
  0
CIRCLE
  8
LAYER1
 62
     7
  6
CONTINUOUS
 10
8.5818
 20
7.7980
 40
0.0203
  0
CIRCLE
  8
LAYER1
 62
     7
  6
CONTINUOUS
 10
8.6934
 20
7.7891
 40
0.0160
  0
CIRCLE
  8
LAYER1
 62
     7
  6
CONTINUOUS
 10
8.7676
 20
7.7291
 40
0.0127
  0
CIRCLE
  8
LAYER1
 62
     7
  6
CONTINUOUS
 10
8.8936
 20
7.7938
 40
0.0148
  0
CIRCLE
  8
LAYER1
 62
     7
  6
CONTINUOUS
 10
8.0759
 20
7.9343
 40
0.0217
  0
CIRCLE
  8
LAYER1
 62
     7
  6
CONTINUOUS
 10
8.1926
 20
7.9255
 40
0.0234
  0
CIRCLE
  8
LAYER1
 62
     7
  6
CONTINUOUS
 10
8.1401
 20
7.8641
 40
0.0160
  0
CIRCLE
  8
LAYER1
 62
     7
  6
CONTINUOUS
 10
8.0660
 20
7.6883
 40
0.0137
  0
CIRCLE
  8
LAYER1
 62
     7
  6
CONTINUOUS
 10
8.1137
 20
7.7294
 40
0.0218
  0
CIRCLE
  8
LAYER1
 62
     7
  6
CONTINUOUS
 10
8.1387
 20
7.7601
 40
0.0148
  0
CIRCLE
  8
LAYER1
 62
     7
  6
CONTINUOUS
 10
8.1680
 20
7.6312
 40
0.0183
  0
CIRCLE
  8
LAYER1
 62
     7
  6
CONTINUOUS
 10
8.2212
 20
7.6343
 40
0.0179
  0
CIRCLE
  8
LAYER1
 62
     7
  6
CONTINUOUS
 10
8.3963
 20
7.6134
 40
0.0304
  0
CIRCLE
  8
LAYER1
 62
     7
  6
CONTINUOUS
 10
8.6400
 20
7.5756
 40
0.0113
  0
CIRCLE
  8
LAYER1
 62
     7
  6
CONTINUOUS
 10
8.8040
 20
7.6509
 40
0.0148
  0
ARC
  8
LAYER1
 62
     7
  6
CONTINUOUS
 10
8.0337
 20
7.8578
 40
0.0113
 50
-93.1768
 51
-88.0888
  0
ARC
  8
LAYER1
 62
     7
  6
CONTINUOUS
 10
8.0337
 20
7.8578
 40
0.0113
 50
-88.0884
 51
88.0884
  0
ARC
  8
LAYER1
 62
     7
  6
CONTINUOUS
 10
8.0337
 20
7.8578
 40
0.0113
 50
88.0884
 51
93.1773
  0
ARC
  8
LAYER1
 62
     7
  6
CONTINUOUS
 10
8.0399
 20
7.9821
 40
0.0179
 50
-81.2355
 51
109.0237
  0
ARC
  8
LAYER1
 62
     7
  6
CONTINUOUS
 10
8.0399
 20
7.9821
 40
0.0179
 50
109.0236
 51
112.4583
  0
ARC
  8
LAYER1
 62
     7
  6
CONTINUOUS
 10
8.0399
 20
7.9821
 40
0.0179
 50
-112.4594
 51
-109.0251
  0
ARC
  8
LAYER1
 62
     7
  6
CONTINUOUS
 10
8.0399
 20
7.9821
 40
0.0179
 50
-109.0241
 51
-81.2339
  0
ARC
  8
LAYER1
 62
     7
  6
CONTINUOUS
 10
8.2416
 20
8.5343
 40
0.0154
 50
-164.5533
 51
-79.9076
  0
ARC
  8
LAYER1
 62
     7
  6
CONTINUOUS
 10
8.1428
 20
8.5307
 40
0.0177
 50
-178.4657
 51
-89.3747
  0
ARC
  8
LAYER1
 62
     7
  6
CONTINUOUS
 10
9.0357
 20
8.0083
 40
0.0283
 50
44.0451
 51
-79.0514
  0
ARC
  8
LAYER1
 62
     7
  6
CONTINUOUS
 10
9.0485
 20
7.5421
 40
0.0179
 50
64.9684
 51
165.6836
  0
ARC
  8
LAYER1
 62
     7
  6
CONTINUOUS
 10
8.0337
 20
7.8578
 40
0.0113
 50
-98.1977
 51
-93.1768
  0
ARC
  8
LAYER1
 62
     7
  6
CONTINUOUS
 10
8.0337
 20
7.8578
 40
0.0113
 50
93.1768
 51
98.1977
  0
ARC
  8
LAYER1
 62
     7
  6
CONTINUOUS
 10
8.0399
 20
7.9821
 40
0.0179
 50
112.4589
 51
115.9192
  0
ARC
  8
LAYER1
 62
     7
  6
CONTINUOUS
 10
8.0399
 20
7.9821
 40
0.0179
 50
-115.9184
 51
-112.4600
  0
ARC
  8
LAYER1
 62
     7
  6
CONTINUOUS
 10
9.0357
 20
8.0083
 40
0.0283
 50
-79.0508
 51
-44.0437
  0
ARC
  8
LAYER1
 62
     7
  6
CONTINUOUS
 10
9.0485
 20
7.5421
 40
0.0179
 50
165.6858
 51
168.0442
  0
ARC
  8
LAYER1
 62
     7
  6
CONTINUOUS
 10
8.2416
 20
8.5343
 40
0.0154
 50
-79.9076
 51
-15.4457
  0
ARC
  8
LAYER1
 62
     7
  6
CONTINUOUS
 10
8.1428
 20
8.5307
 40
0.0177
 50
-89.3746
 51
-1.5344
  0
POLYLINE
  8
LAYER10
 62
     1
 66
     1
  6
CONTINUOUS
  0
VERTEX
  8
LAYER10
 62
     1
  6
CONTINUOUS
 10
8.6909
 20
7.5465
  0
VERTEX
  8
LAYER10
 62
     1
  6
CONTINUOUS
 10
8.6917
 20
7.5478
  0
VERTEX
  8
LAYER10
 62
     1
  6
CONTINUOUS
 10
8.6925
 20
7.5490
  0
VERTEX
  8
LAYER10
 62
     1
  6
CONTINUOUS
 10
8.6933
 20
7.5502
  0
VERTEX
  8
LAYER10
 62
     1
  6
CONTINUOUS
 10
8.6941
 20
7.5515
  0
VERTEX
  8
LAYER10
 62
     1
  6
CONTINUOUS
 10
8.6949
 20
7.5527
  0
VERTEX
  8
LAYER10
 62
     1
  6
CONTINUOUS
 10
8.6958
 20
7.5539
  0
VERTEX
  8
LAYER10
 62
     1
  6
CONTINUOUS
 10
8.6966
 20
7.5551
  0
VERTEX
  8
LAYER10
 62
     1
  6
CONTINUOUS
 10
8.6975
 20
7.5563
  0
VERTEX
  8
LAYER10
 62
     1
  6
CONTINUOUS
 10
8.6983
 20
7.5575
  0
VERTEX
  8
LAYER10
 62
     1
  6
CONTINUOUS
 10
8.6992
 20
7.5587
  0
VERTEX
  8
LAYER10
 62
     1
  6
CONTINUOUS
 10
8.7001
 20
7.5599
  0
VERTEX
  8
LAYER10
 62
     1
  6
CONTINUOUS
 10
8.7010
 20
7.5610
  0
VERTEX
  8
LAYER10
 62
     1
  6
CONTINUOUS
 10
8.7035
 20
7.5640
  0
VERTEX
  8
LAYER10
 62
     1
  6
CONTINUOUS
 10
8.7062
 20
7.5669
  0
VERTEX
  8
LAYER10
 62
     1
  6
CONTINUOUS
 10
8.7089
 20
7.5697
  0
VERTEX
  8
LAYER10
 62
     1
  6
CONTINUOUS
 10
8.7118
 20
7.5724
  0
VERTEX
  8
LAYER10
 62
     1
  6
CONTINUOUS
 10
8.7147
 20
7.5751
  0
VERTEX
  8
LAYER10
 62
     1
  6
CONTINUOUS
 10
8.7177
 20
7.5776
  0
VERTEX
  8
LAYER10
 62
     1
  6
CONTINUOUS
 10
8.7207
 20
7.5801
  0
VERTEX
  8
LAYER10
 62
     1
  6
CONTINUOUS
 10
8.7238
 20
7.5826
  0
VERTEX
  8
LAYER10
 62
     1
  6
CONTINUOUS
 10
8.7269
 20
7.5849
  0
VERTEX
  8
LAYER10
 62
     1
  6
CONTINUOUS
 10
8.7300
 20
7.5873
  0
VERTEX
  8
LAYER10
 62
     1
  6
CONTINUOUS
 10
8.7331
 20
7.5896
  0
VERTEX
  8
LAYER10
 62
     1
  6
CONTINUOUS
 10
8.7362
 20
7.5919
  0
VERTEX
  8
LAYER10
 62
     1
  6
CONTINUOUS
 10
8.7387
 20
7.5937
  0
VERTEX
  8
LAYER10
 62
     1
  6
CONTINUOUS
 10
8.7412
 20
7.5955
  0
VERTEX
  8
LAYER10
 62
     1
  6
CONTINUOUS
 10
8.7438
 20
7.5973
  0
VERTEX
  8
LAYER10
 62
     1
  6
CONTINUOUS
 10
8.7464
 20
7.5990
  0
VERTEX
  8
LAYER10
 62
     1
  6
CONTINUOUS
 10
8.7491
 20
7.6006
  0
VERTEX
  8
LAYER10
 62
     1
  6
CONTINUOUS
 10
8.7518
 20
7.6020
  0
VERTEX
  8
LAYER10
 62
     1
  6
CONTINUOUS
 10
8.7547
 20
7.6034
  0
VERTEX
  8
LAYER10
 62
     1
  6
CONTINUOUS
 10
8.7577
 20
7.6046
  0
VERTEX
  8
LAYER10
 62
     1
  6
CONTINUOUS
 10
8.7608
 20
7.6056
  0
VERTEX
  8
LAYER10
 62
     1
  6
CONTINUOUS
 10
8.7642
 20
7.6064
  0
VERTEX
  8
LAYER10
 62
     1
  6
CONTINUOUS
 10
8.7677
 20
7.6071
  0
VERTEX
  8
LAYER10
 62
     1
  6
CONTINUOUS
 10
8.7715
 20
7.6075
  0
VERTEX
  8
LAYER10
 62
     1
  6
CONTINUOUS
 10
8.7757
 20
7.6076
  0
VERTEX
  8
LAYER10
 62
     1
  6
CONTINUOUS
 10
8.7801
 20
7.6075
  0
VERTEX
  8
LAYER10
 62
     1
  6
CONTINUOUS
 10
8.7846
 20
7.6073
  0
VERTEX
  8
LAYER10
 62
     1
  6
CONTINUOUS
 10
8.7891
 20
7.6069
  0
VERTEX
  8
LAYER10
 62
     1
  6
CONTINUOUS
 10
8.7935
 20
7.6063
  0
VERTEX
  8
LAYER10
 62
     1
  6
CONTINUOUS
 10
8.7976
 20
7.6057
  0
VERTEX
  8
LAYER10
 62
     1
  6
CONTINUOUS
 10
8.8014
 20
7.6051
  0
VERTEX
  8
LAYER10
 62
     1
  6
CONTINUOUS
 10
8.8048
 20
7.6044
  0
VERTEX
  8
LAYER10
 62
     1
  6
CONTINUOUS
 10
8.8076
 20
7.6039
  0
VERTEX
  8
LAYER10
 62
     1
  6
CONTINUOUS
 10
8.8099
 20
7.6034
  0
VERTEX
  8
LAYER10
 62
     1
  6
CONTINUOUS
 10
8.8114
 20
7.6030
  0
VERTEX
  8
LAYER10
 62
     1
  6
CONTINUOUS
 10
8.8121
 20
7.6028
  0
VERTEX
  8
LAYER10
 62
     1
  6
CONTINUOUS
 10
8.8121
 20
7.6028
  0
VERTEX
  8
LAYER10
 62
     1
  6
CONTINUOUS
 10
8.8121
 20
7.6028
  0
VERTEX
  8
LAYER10
 62
     1
  6
CONTINUOUS
 10
8.8121
 20
7.6028
  0
VERTEX
  8
LAYER10
 62
     1
  6
CONTINUOUS
 10
8.8121
 20
7.6028
  0
VERTEX
  8
LAYER10
 62
     1
  6
CONTINUOUS
 10
8.8121
 20
7.6028
  0
VERTEX
  8
LAYER10
 62
     1
  6
CONTINUOUS
 10
8.8121
 20
7.6028
  0
VERTEX
  8
LAYER10
 62
     1
  6
CONTINUOUS
 10
8.8121
 20
7.6028
  0
VERTEX
  8
LAYER10
 62
     1
  6
CONTINUOUS
 10
8.8121
 20
7.6028
  0
VERTEX
  8
LAYER10
 62
     1
  6
CONTINUOUS
 10
8.8121
 20
7.6028
  0
VERTEX
  8
LAYER10
 62
     1
  6
CONTINUOUS
 10
8.8121
 20
7.6028
  0
VERTEX
  8
LAYER10
 62
     1
  6
CONTINUOUS
 10
8.8121
 20
7.6028
  0
VERTEX
  8
LAYER10
 62
     1
  6
CONTINUOUS
 10
8.8121
 20
7.6028
  0
VERTEX
  8
LAYER10
 62
     1
  6
CONTINUOUS
 10
8.8131
 20
7.6027
  0
VERTEX
  8
LAYER10
 62
     1
  6
CONTINUOUS
 10
8.8158
 20
7.6024
  0
VERTEX
  8
LAYER10
 62
     1
  6
CONTINUOUS
 10
8.8198
 20
7.6018
  0
VERTEX
  8
LAYER10
 62
     1
  6
CONTINUOUS
 10
8.8250
 20
7.6010
  0
VERTEX
  8
LAYER10
 62
     1
  6
CONTINUOUS
 10
8.8310
 20
7.5999
  0
VERTEX
  8
LAYER10
 62
     1
  6
CONTINUOUS
 10
8.8377
 20
7.5984
  0
VERTEX
  8
LAYER10
 62
     1
  6
CONTINUOUS
 10
8.8448
 20
7.5967
  0
VERTEX
  8
LAYER10
 62
     1
  6
CONTINUOUS
 10
8.8521
 20
7.5947
  0
VERTEX
  8
LAYER10
 62
     1
  6
CONTINUOUS
 10
8.8593
 20
7.5924
  0
VERTEX
  8
LAYER10
 62
     1
  6
CONTINUOUS
 10
8.8663
 20
7.5897
  0
VERTEX
  8
LAYER10
 62
     1
  6
CONTINUOUS
 10
8.8726
 20
7.5867
  0
VERTEX
  8
LAYER10
 62
     1
  6
CONTINUOUS
 10
8.8782
 20
7.5833
  0
VERTEX
  8
LAYER10
 62
     1
  6
CONTINUOUS
 10
8.8793
 20
7.5825
  0
VERTEX
  8
LAYER10
 62
     1
  6
CONTINUOUS
 10
8.8803
 20
7.5818
  0
VERTEX
  8
LAYER10
 62
     1
  6
CONTINUOUS
 10
8.8812
 20
7.5810
  0
VERTEX
  8
LAYER10
 62
     1
  6
CONTINUOUS
 10
8.8821
 20
7.5802
  0
VERTEX
  8
LAYER10
 62
     1
  6
CONTINUOUS
 10
8.8830
 20
7.5794
  0
VERTEX
  8
LAYER10
 62
     1
  6
CONTINUOUS
 10
8.8839
 20
7.5785
  0
VERTEX
  8
LAYER10
 62
     1
  6
CONTINUOUS
 10
8.8847
 20
7.5777
  0
VERTEX
  8
LAYER10
 62
     1
  6
CONTINUOUS
 10
8.8855
 20
7.5768
  0
VERTEX
  8
LAYER10
 62
     1
  6
CONTINUOUS
 10
8.8863
 20
7.5760
  0
VERTEX
  8
LAYER10
 62
     1
  6
CONTINUOUS
 10
8.8870
 20
7.5751
  0
VERTEX
  8
LAYER10
 62
     1
  6
CONTINUOUS
 10
8.8878
 20
7.5742
  0
VERTEX
  8
LAYER10
 62
     1
  6
CONTINUOUS
 10
8.8885
 20
7.5733
  0
VERTEX
  8
LAYER10
 62
     1
  6
CONTINUOUS
 10
8.8899
 20
7.5713
  0
VERTEX
  8
LAYER10
 62
     1
  6
CONTINUOUS
 10
8.8913
 20
7.5692
  0
VERTEX
  8
LAYER10
 62
     1
  6
CONTINUOUS
 10
8.8927
 20
7.5671
  0
VERTEX
  8
LAYER10
 62
     1
  6
CONTINUOUS
 10
8.8940
 20
7.5649
  0
VERTEX
  8
LAYER10
 62
     1
  6
CONTINUOUS
 10
8.8952
 20
7.5627
  0
VERTEX
  8
LAYER10
 62
     1
  6
CONTINUOUS
 10
8.8964
 20
7.5605
  0
VERTEX
  8
LAYER10
 62
     1
  6
CONTINUOUS
 10
8.8976
 20
7.5582
  0
VERTEX
  8
LAYER10
 62
     1
  6
CONTINUOUS
 10
8.8987
 20
7.5559
  0
VERTEX
  8
LAYER10
 62
     1
  6
CONTINUOUS
 10
8.8998
 20
7.5536
  0
VERTEX
  8
LAYER10
 62
     1
  6
CONTINUOUS
 10
8.9009
 20
7.5512
  0
VERTEX
  8
LAYER10
 62
     1
  6
CONTINUOUS
 10
8.9020
 20
7.5489
  0
VERTEX
  8
LAYER10
 62
     1
  6
CONTINUOUS
 10
8.9031
 20
7.5465
  0
SEQEND
  8
LAYER10
  0
POLYLINE
  8
LAYER10
 62
     1
 66
     1
  6
CONTINUOUS
  0
VERTEX
  8
LAYER10
 62
     1
  6
CONTINUOUS
 10
8.6905
 20
7.5458
  0
VERTEX
  8
LAYER10
 62
     1
  6
CONTINUOUS
 10
8.6906
 20
7.5459
  0
VERTEX
  8
LAYER10
 62
     1
  6
CONTINUOUS
 10
8.6906
 20
7.5459
  0
VERTEX
  8
LAYER10
 62
     1
  6
CONTINUOUS
 10
8.6906
 20
7.5460
  0
VERTEX
  8
LAYER10
 62
     1
  6
CONTINUOUS
 10
8.6907
 20
7.5461
  0
VERTEX
  8
LAYER10
 62
     1
  6
CONTINUOUS
 10
8.6907
 20
7.5461
  0
VERTEX
  8
LAYER10
 62
     1
  6
CONTINUOUS
 10
8.6907
 20
7.5462
  0
VERTEX
  8
LAYER10
 62
     1
  6
CONTINUOUS
 10
8.6907
 20
7.5463
  0
VERTEX
  8
LAYER10
 62
     1
  6
CONTINUOUS
 10
8.6908
 20
7.5463
  0
VERTEX
  8
LAYER10
 62
     1
  6
CONTINUOUS
 10
8.6908
 20
7.5464
  0
VERTEX
  8
LAYER10
 62
     1
  6
CONTINUOUS
 10
8.6908
 20
7.5464
  0
VERTEX
  8
LAYER10
 62
     1
  6
CONTINUOUS
 10
8.6909
 20
7.5465
  0
VERTEX
  8
LAYER10
 62
     1
  6
CONTINUOUS
 10
8.6909
 20
7.5465
  0
VERTEX
  8
LAYER10
 62
     1
  6
CONTINUOUS
 10
8.6910
 20
7.5468
  0
VERTEX
  8
LAYER10
 62
     1
  6
CONTINUOUS
 10
8.6911
 20
7.5470
  0
VERTEX
  8
LAYER10
 62
     1
  6
CONTINUOUS
 10
8.6912
 20
7.5471
  0
VERTEX
  8
LAYER10
 62
     1
  6
CONTINUOUS
 10
8.6912
 20
7.5472
  0
VERTEX
  8
LAYER10
 62
     1
  6
CONTINUOUS
 10
8.6912
 20
7.5472
  0
VERTEX
  8
LAYER10
 62
     1
  6
CONTINUOUS
 10
8.6912
 20
7.5472
  0
VERTEX
  8
LAYER10
 62
     1
  6
CONTINUOUS
 10
8.6912
 20
7.5471
  0
VERTEX
  8
LAYER10
 62
     1
  6
CONTINUOUS
 10
8.6911
 20
7.5470
  0
VERTEX
  8
LAYER10
 62
     1
  6
CONTINUOUS
 10
8.6911
 20
7.5469
  0
VERTEX
  8
LAYER10
 62
     1
  6
CONTINUOUS
 10
8.6910
 20
7.5468
  0
VERTEX
  8
LAYER10
 62
     1
  6
CONTINUOUS
 10
8.6910
 20
7.5467
  0
VERTEX
  8
LAYER10
 62
     1
  6
CONTINUOUS
 10
8.6909
 20
7.5465
  0
SEQEND
  8
LAYER10
  0
POLYLINE
  8
LAYER10
 62
     1
 66
     1
  6
CONTINUOUS
  0
VERTEX
  8
LAYER10
 62
     1
  6
CONTINUOUS
 10
8.9031
 20
7.5465
  0
VERTEX
  8
LAYER10
 62
     1
  6
CONTINUOUS
 10
8.9031
 20
7.5465
  0
VERTEX
  8
LAYER10
 62
     1
  6
CONTINUOUS
 10
8.9031
 20
7.5464
  0
VERTEX
  8
LAYER10
 62
     1
  6
CONTINUOUS
 10
8.9031
 20
7.5463
  0
VERTEX
  8
LAYER10
 62
     1
  6
CONTINUOUS
 10
8.9032
 20
7.5463
  0
VERTEX
  8
LAYER10
 62
     1
  6
CONTINUOUS
 10
8.9032
 20
7.5462
  0
VERTEX
  8
LAYER10
 62
     1
  6
CONTINUOUS
 10
8.9032
 20
7.5462
  0
VERTEX
  8
LAYER10
 62
     1
  6
CONTINUOUS
 10
8.9032
 20
7.5461
  0
VERTEX
  8
LAYER10
 62
     1
  6
CONTINUOUS
 10
8.9032
 20
7.5460
  0
VERTEX
  8
LAYER10
 62
     1
  6
CONTINUOUS
 10
8.9032
 20
7.5460
  0
VERTEX
  8
LAYER10
 62
     1
  6
CONTINUOUS
 10
8.9033
 20
7.5459
  0
VERTEX
  8
LAYER10
 62
     1
  6
CONTINUOUS
 10
8.9033
 20
7.5459
  0
VERTEX
  8
LAYER10
 62
     1
  6
CONTINUOUS
 10
8.9033
 20
7.5458
  0
VERTEX
  8
LAYER10
 62
     1
  6
CONTINUOUS
 10
8.9034
 20
7.5455
  0
VERTEX
  8
LAYER10
 62
     1
  6
CONTINUOUS
 10
8.9034
 20
7.5453
  0
VERTEX
  8
LAYER10
 62
     1
  6
CONTINUOUS
 10
8.9034
 20
7.5452
  0
VERTEX
  8
LAYER10
 62
     1
  6
CONTINUOUS
 10
8.9035
 20
7.5451
  0
VERTEX
  8
LAYER10
 62
     1
  6
CONTINUOUS
 10
8.9035
 20
7.5451
  0
VERTEX
  8
LAYER10
 62
     1
  6
CONTINUOUS
 10
8.9035
 20
7.5451
  0
VERTEX
  8
LAYER10
 62
     1
  6
CONTINUOUS
 10
8.9035
 20
7.5452
  0
VERTEX
  8
LAYER10
 62
     1
  6
CONTINUOUS
 10
8.9034
 20
7.5453
  0
VERTEX
  8
LAYER10
 62
     1
  6
CONTINUOUS
 10
8.9034
 20
7.5454
  0
VERTEX
  8
LAYER10
 62
     1
  6
CONTINUOUS
 10
8.9034
 20
7.5455
  0
VERTEX
  8
LAYER10
 62
     1
  6
CONTINUOUS
 10
8.9033
 20
7.5457
  0
VERTEX
  8
LAYER10
 62
     1
  6
CONTINUOUS
 10
8.9033
 20
7.5458
  0
SEQEND
  8
LAYER10
  0
POLYLINE
  8
LAYER12
 62
     5
 66
     1
  6
CONTINUOUS
  0
VERTEX
  8
LAYER12
 62
     5
  6
CONTINUOUS
 10
8.0330
 20
7.5465
  0
VERTEX
  8
LAYER12
 62
     5
  6
CONTINUOUS
 10
8.0321
 20
7.5465
  0
SEQEND
  8
LAYER12
  0
POLYLINE
  8
LAYER12
 62
     5
 66
     1
  6
CONTINUOUS
  0
VERTEX
  8
LAYER12
 62
     5
  6
CONTINUOUS
 10
8.0340
 20
7.5465
  0
VERTEX
  8
LAYER12
 62
     5
  6
CONTINUOUS
 10
8.0330
 20
7.5465
  0
SEQEND
  8
LAYER12
  0
POLYLINE
  8
LAYER12
 62
     5
 66
     1
  6
CONTINUOUS
  0
VERTEX
  8
LAYER12
 62
     5
  6
CONTINUOUS
 10
8.0330
 20
7.5465
  0
VERTEX
  8
LAYER12
 62
     5
  6
CONTINUOUS
 10
8.0330
 20
7.5460
  0
SEQEND
  8
LAYER12
  0
POLYLINE
  8
LAYER12
 62
     5
 66
     1
  6
CONTINUOUS
  0
VERTEX
  8
LAYER12
 62
     5
  6
CONTINUOUS
 10
8.0330
 20
7.5460
  0
VERTEX
  8
LAYER12
 62
     5
  6
CONTINUOUS
 10
8.0330
 20
7.5458
  0
SEQEND
  8
LAYER12
  0
POLYLINE
  8
LAYER12
 62
     5
 66
     1
  6
CONTINUOUS
  0
VERTEX
  8
LAYER12
 62
     5
  6
CONTINUOUS
 10
9.0561
 20
7.5465
  0
VERTEX
  8
LAYER12
 62
     5
  6
CONTINUOUS
 10
8.0340
 20
7.5465
  0
SEQEND
  8
LAYER12
  0
POLYLINE
  8
LAYER12
 62
     5
 66
     1
  6
CONTINUOUS
  0
VERTEX
  8
LAYER12
 62
     5
  6
CONTINUOUS
 10
8.0321
 20
7.5465
  0
VERTEX
  8
LAYER12
 62
     5
  6
CONTINUOUS
 10
8.0319
 20
7.5465
  0
SEQEND
  8
LAYER12
  0
POLYLINE
  8
LAYER12
 62
     5
 66
     1
  6
CONTINUOUS
  0
VERTEX
  8
LAYER12
 62
     5
  6
CONTINUOUS
 10
8.0330
 20
8.5302
  0
VERTEX
  8
LAYER12
 62
     5
  6
CONTINUOUS
 10
8.0340
 20
8.5302
  0
SEQEND
  8
LAYER12
  0
POLYLINE
  8
LAYER12
 62
     5
 66
     1
  6
CONTINUOUS
  0
VERTEX
  8
LAYER12
 62
     5
  6
CONTINUOUS
 10
8.0340
 20
8.5302
  0
VERTEX
  8
LAYER12
 62
     5
  6
CONTINUOUS
 10
9.0561
 20
8.5302
  0
SEQEND
  8
LAYER12
  0
POLYLINE
  8
LAYER12
 62
     5
 66
     1
  6
CONTINUOUS
  0
VERTEX
  8
LAYER12
 62
     5
  6
CONTINUOUS
 10
8.0330
 20
8.5310
  0
VERTEX
  8
LAYER12
 62
     5
  6
CONTINUOUS
 10
8.0330
 20
8.5302
  0
SEQEND
  8
LAYER12
  0
POLYLINE
  8
LAYER12
 62
     5
 66
     1
  6
CONTINUOUS
  0
VERTEX
  8
LAYER12
 62
     5
  6
CONTINUOUS
 10
8.0330
 20
8.5302
  0
VERTEX
  8
LAYER12
 62
     5
  6
CONTINUOUS
 10
8.0330
 20
8.5302
  0
SEQEND
  8
LAYER12
  0
POLYLINE
  8
LAYER12
 62
     5
 66
     1
  6
CONTINUOUS
  0
VERTEX
  8
LAYER12
 62
     5
  6
CONTINUOUS
 10
8.0330
 20
8.5302
  0
VERTEX
  8
LAYER12
 62
     5
  6
CONTINUOUS
 10
8.0330
 20
8.5302
  0
SEQEND
  8
LAYER12
  0
POLYLINE
  8
LAYER12
 62
     5
 66
     1
  6
CONTINUOUS
  0
VERTEX
  8
LAYER12
 62
     5
  6
CONTINUOUS
 10
8.0330
 20
8.5302
  0
VERTEX
  8
LAYER12
 62
     5
  6
CONTINUOUS
 10
8.0330
 20
7.5465
  0
SEQEND
  8
LAYER12
  0
POLYLINE
  8
LAYER12
 62
     5
 66
     1
  6
CONTINUOUS
  0
VERTEX
  8
LAYER12
 62
     5
  6
CONTINUOUS
 10
8.0319
 20
8.5302
  0
VERTEX
  8
LAYER12
 62
     5
  6
CONTINUOUS
 10
8.0321
 20
8.5302
  0
SEQEND
  8
LAYER12
  0
POLYLINE
  8
LAYER12
 62
     5
 66
     1
  6
CONTINUOUS
  0
VERTEX
  8
LAYER12
 62
     5
  6
CONTINUOUS
 10
8.0321
 20
8.5302
  0
VERTEX
  8
LAYER12
 62
     5
  6
CONTINUOUS
 10
8.0330
 20
8.5302
  0
SEQEND
  8
LAYER12
  0
POLYLINE
  8
LAYER12
 62
     5
 66
     1
  6
CONTINUOUS
  0
VERTEX
  8
LAYER12
 62
     5
  6
CONTINUOUS
 10
8.0330
 20
8.5302
  0
VERTEX
  8
LAYER12
 62
     5
  6
CONTINUOUS
 10
8.0330
 20
8.5302
  0
SEQEND
  8
LAYER12
  0
POLYLINE
  8
LAYER12
 62
     5
 66
     1
  6
CONTINUOUS
  0
VERTEX
  8
LAYER12
 62
     5
  6
CONTINUOUS
 10
9.0561
 20
7.5458
  0
VERTEX
  8
LAYER12
 62
     5
  6
CONTINUOUS
 10
9.0561
 20
7.5465
  0
SEQEND
  8
LAYER12
  0
POLYLINE
  8
LAYER12
 62
     5
 66
     1
  6
CONTINUOUS
  0
VERTEX
  8
LAYER12
 62
     5
  6
CONTINUOUS
 10
9.0561
 20
7.5465
  0
VERTEX
  8
LAYER12
 62
     5
  6
CONTINUOUS
 10
9.0561
 20
8.5302
  0
SEQEND
  8
LAYER12
  0
ENDSEC
  0
EOF
