  0
SECTION
  2
HEADER
  9
$ACADVER
  1
AC1004
  9
$EXTMIN
 10
7.0470
 20
8.5302
  9
$EXTMAX
 10
8.0340
 20
9.5140
  9
$LIMMIN
 10
7.0470
 20
8.5302
  9
$LIMMAX
 10
8.0340
 20
9.5140
  9
$INSBASE
 10
0.0
 20
0.0
  9
$VIEWCTR
 10
7.21903
 20
4.5
  9
$VIEWSIZE
 40
9.0
  9
$SNAPMODE
 70
     0
  9
$SNAPUNIT
 10
1.0
 20
1.0
  9
$SNAPBASE
 10
0.0
 20
0.0
  9
$SNAPANG
 50
0.0
  9
$SNAPSTYLE
 70
     0
  9
$SNAPISOPAIR
 70
     0
  9
$GRIDMODE
 70
     0
  9
$GRIDUNIT
 10
0.0
 20
0.0
  9
$ORTHOMODE
 70
     0
  9
$REGENMODE
 70
     1
  9
$FILLMODE
 70
     1
  9
$QTEXTMODE
 70
     0
  9
$DRAGMODE
 70
     2
  9
$LTSCALE
 40
1.0
  9
$OSMODE
 70
     0
  9
$ATTMODE
 70
     1
  9
$TEXTSIZE
 40
0.2
  9
$TRACEWID
 40
0.05
  9
$TEXTSTYLE
  7
STANDARD
  9
$CLAYER
  8
0
  9
$CELTYPE
  6
BYLAYER
  9
$CECOLOR
 62
   256
  9
$DIMSCALE
 40
1.0
  9
$DIMASZ
 40
0.18
  9
$DIMEXO
 40
0.0625
  9
$DIMDLI
 40
0.38
  9
$DIMRND
 40
0.0
  9
$DIMDLE
 40
0.0
  9
$DIMEXE
 40
0.18
  9
$DIMTP
 40
0.0
  9
$DIMTM
 40
0.0
  9
$DIMTXT
 40
0.18
  9
$DIMCEN
 40
0.09
  9
$DIMTSZ
 40
0.0
  9
$DIMTOL
 70
     0
  9
$DIMLIM
 70
     0
  9
$DIMTIH
 70
     1
  9
$DIMTOH
 70
     1
  9
$DIMSE1
 70
     0
  9
$DIMSE2
 70
     0
  9
$DIMTAD
 70
     0
  9
$DIMZIN
 70
     0
  9
$DIMBLK
  1

  9
$DIMASO
 70
     1
  9
$DIMSHO
 70
     0
  9
$DIMPOST
  1

  9
$DIMAPOST
  1

  9
$DIMALT
 70
     0
  9
$DIMALTD
 70
     2
  9
$DIMALTF
 40
25.4
  9
$DIMLFAC
 40
1.0
  9
$LUNITS
 70
     2
  9
$LUPREC
 70
     4
  9
$AXISMODE
 70
     0
  9
$AXISUNIT
 10
0.0
 20
0.0
  9
$SKETCHINC
 40
0.1
  9
$FILLETRAD
 40
0.0
  9
$AUNITS
 70
     0
  9
$AUPREC
 70
     0
  9
$MENU
  1
acad
  9
$ELEVATION
 40
0.0
  9
$THICKNESS
 40
0.0
  9
$VIEWDIR
 10
0.0
 20
0.0
 30
1.0
  9
$LIMCHECK
 70
     0
  9
$BLIPMODE
 70
     1
  9
$CHAMFERA
 40
0.0
  9
$CHAMFERB
 40
0.0
  9
$FASTZOOM
 70
     1
  9
$SKPOLY
 70
     0
  9
$TDCREATE
 40
2447222.5666886573
  9
$TDUPDATE
 40
2447222.5666886573
  9
$TDINDWG
 40
0.0000000000
  9
$TDUSRTIMER
 40
0.0000000000
  9
$USRTIMER
 70
     1
  9
$ANGBASE
 50
0.0
  9
$ANGDIR
 70
     0
  9
$PDMODE
 70
     0
  9
$PDSIZE
 40
0.0
  9
$PLINEWID
 40
0.0
  9
$COORDS
 70
     0
  9
$SPLFRAME
 70
     0
  9
$SPLINESEGS
 70
     8
  9
$ATTDIA
 70
     0
  9
$ATTREQ
 70
     1
  9
$USERI1
 70
     0
  9
$USERI2
 70
     0
  9
$USERI3
 70
     0
  9
$USERI4
 70
     0
  9
$USERI5
 70
     0
  9
$USERR1
 40
0.0
  9
$USERR2
 40
0.0
  9
$USERR3
 40
0.0
  9
$USERR4
 40
0.0
  9
$USERR5
 40
0.0
  0
ENDSEC
  0
SECTION
  2
TABLES
  0
TABLE
  2
LTYPE
 70
     13
  0
LTYPE
  2
CONTINUOUS
 70
    64
  3
Solid line
 72
    65
 73
     0
 40
0.0
  0
LTYPE
  2
DASHED
 70
    64
  3
__ __ __ __ __ __ __ __ __ __ __ __ __ __ __
 72
    65
 73
     2
 40
0.75
 49
0.5
 49
-0.25
  0
LTYPE
  2
HIDDEN
 70
    64
  3
_ _ _ _ _ _ _ _ _ _ _ _ _ _ _ _ _ _ _ _ _ _ _
 72
    65
 73
     2
 40
0.375
 49
0.25
 49
-0.125
  0
LTYPE
  2
CENTER
 70
    64
  3
____ _ ____ _ ____ _ ____ _ ____ _ ____ _ ____
 72
    65
 73
     4
 40
2.0
 49
1.25
 49
-0.25
 49
0.25
 49
-0.25
  0
LTYPE
  2
PHANTOM
 70
    64
  3
_____ _ _ _____ _ _ _____ _ _ _____ _ _ ____
 72
    65
 73
     6
 40
2.5
 49
1.25
 49
-0.25
 49
0.25
 49
-0.25
 49
0.25
 49
-0.25
  0
LTYPE
  2
DOT
 70
    64
  3
...............................................
 72
    65
 73
     2
 40
0.25
 49
0.0
 49
-0.25
  0
LTYPE
  2
DASHDOT
 70
    64
  3
__ . __ . __ . __ . __ . __ . __ . __ . __ . __
 72
    65
 73
     4
 40
1.0
 49
0.5
 49
-0.25
 49
0.0
 49
-0.25
  0
LTYPE
  2
BORDER
 70
    64
  3
__ __ . __ __ . __ __ . __ __ . __ __ . __ __
 72
    65
 73
     6
 40
1.75
 49
0.5
 49
-0.25
 49
0.5
 49
-0.25
 49
0.0
 49
-0.25
  0
LTYPE
  2
DIVIDE
 70
    64
  3
__ . . __ . . __ . . __ . . __ . . __ . . __
 72
    65
 73
     6
 40
1.25
 49
0.5
 49
-0.25
 49
0.0
 49
-0.25
 49
0.0
 49
-0.25
  0
LTYPE
  2
DCTYPE1
 70
    64
  3
__ . . __ . . __ . . __ . . __ . . __ . . __
 72
    65
 73
     8
 40
2.5
 49
0.5
 49
-0.25
 49
0.125
 49
-0.25
 49
0.25
 49
-0.25
 49
0.125
 49
-0.25
  0
LTYPE
  2
DCTYPE2
 70
    64
  3
__ . . __ . . __ . . __ . . __ . . __ . . __
 72
    65
 73
     6
 40
2.05
 49
1.0
 49
-0.3
 49
0.15
 49
-0.15
 49
0.15
 49
-0.3
  0
LTYPE
  2
DCTYPE3
 70
    64
  3
__ . . __ . . __ . . __ . . __ . . __ . . __
 72
    65
 73
     6
 40
2.5
 49
0.8
 49
-0.2
 49
0.8
 49
-0.2
 49
0.3
 49
-0.2
  0
LTYPE
  2
DCTYPE4
 70
    64
  3
__ . . __ . . __ . . __ . . __ . . __ . . __
 72
    65
 73
     10
 40
3.97
 49
1.75
 49
-0.3
 49
0.3
 49
-0.3
 49
0.06
 49
-0.3
 49
0.06
 49
-0.3
 49
0.3
 49
-0.3
  0
ENDTAB
  0
TABLE
  2
LAYER
 70
    153
  0
LAYER
  2
LAYER1
 70
 64
 62
     7
  6
CONTINUOUS
  0
LAYER
  2
LAYER10
 70
 64
 62
     1
  6
CONTINUOUS
  0
LAYER
  2
LAYER12
 70
 64
 62
     5
  6
CONTINUOUS
  0
ENDTAB
  0
ENDSEC
  0
SECTION
  2
BLOCKS
  0
ENDSEC
  0
SECTION
  2
ENTITIES
  0
CIRCLE
  8
LAYER1
 62
     7
  6
CONTINUOUS
 10
7.1274
 20
9.4705
 40
0.0149
  0
CIRCLE
  8
LAYER1
 62
     7
  6
CONTINUOUS
 10
7.2371
 20
9.4518
 40
0.0249
  0
CIRCLE
  8
LAYER1
 62
     7
  6
CONTINUOUS
 10
7.2974
 20
9.4027
 40
0.0199
  0
CIRCLE
  8
LAYER1
 62
     7
  6
CONTINUOUS
 10
7.2757
 20
9.3352
 40
0.0176
  0
CIRCLE
  8
LAYER1
 62
     7
  6
CONTINUOUS
 10
7.3643
 20
9.4308
 40
0.0284
  0
CIRCLE
  8
LAYER1
 62
     7
  6
CONTINUOUS
 10
7.4167
 20
9.4164
 40
0.0201
  0
CIRCLE
  8
LAYER1
 62
     7
  6
CONTINUOUS
 10
7.4911
 20
9.4471
 40
0.0174
  0
CIRCLE
  8
LAYER1
 62
     7
  6
CONTINUOUS
 10
7.4666
 20
9.4095
 40
0.0157
  0
CIRCLE
  8
LAYER1
 62
     7
  6
CONTINUOUS
 10
7.5214
 20
9.4051
 40
0.0157
  0
CIRCLE
  8
LAYER1
 62
     7
  6
CONTINUOUS
 10
7.1065
 20
9.1093
 40
0.0124
  0
CIRCLE
  8
LAYER1
 62
     7
  6
CONTINUOUS
 10
7.1813
 20
9.0902
 40
0.0181
  0
CIRCLE
  8
LAYER1
 62
     7
  6
CONTINUOUS
 10
7.2990
 20
9.0318
 40
0.0236
  0
CIRCLE
  8
LAYER1
 62
     7
  6
CONTINUOUS
 10
7.3609
 20
9.0648
 40
0.0158
  0
CIRCLE
  8
LAYER1
 62
     7
  6
CONTINUOUS
 10
7.4756
 20
9.2677
 40
0.0145
  0
CIRCLE
  8
LAYER1
 62
     7
  6
CONTINUOUS
 10
7.3789
 20
9.0078
 40
0.0079
  0
CIRCLE
  8
LAYER1
 62
     7
  6
CONTINUOUS
 10
7.3799
 20
8.9157
 40
0.0151
  0
CIRCLE
  8
LAYER1
 62
     7
  6
CONTINUOUS
 10
7.0694
 20
8.8600
 40
0.0174
  0
CIRCLE
  8
LAYER1
 62
     7
  6
CONTINUOUS
 10
7.1284
 20
8.6964
 40
0.0225
  0
CIRCLE
  8
LAYER1
 62
     7
  6
CONTINUOUS
 10
7.1793
 20
8.8214
 40
0.0134
  0
CIRCLE
  8
LAYER1
 62
     7
  6
CONTINUOUS
 10
7.2981
 20
8.6634
 40
0.0127
  0
CIRCLE
  8
LAYER1
 62
     7
  6
CONTINUOUS
 10
7.3303
 20
8.6787
 40
0.0235
  0
CIRCLE
  8
LAYER1
 62
     7
  6
CONTINUOUS
 10
7.3579
 20
8.6516
 40
0.0090
  0
CIRCLE
  8
LAYER1
 62
     7
  6
CONTINUOUS
 10
7.5595
 20
9.4773
 40
0.0177
  0
CIRCLE
  8
LAYER1
 62
     7
  6
CONTINUOUS
 10
7.5549
 20
9.4341
 40
0.0072
  0
CIRCLE
  8
LAYER1
 62
     7
  6
CONTINUOUS
 10
7.5578
 20
9.3961
 40
0.0229
  0
CIRCLE
  8
LAYER1
 62
     7
  6
CONTINUOUS
 10
7.6111
 20
9.3942
 40
0.0209
  0
CIRCLE
  8
LAYER1
 62
     7
  6
CONTINUOUS
 10
7.6645
 20
9.3745
 40
0.0228
  0
CIRCLE
  8
LAYER1
 62
     7
  6
CONTINUOUS
 10
7.7305
 20
9.3677
 40
0.0230
  0
CIRCLE
  8
LAYER1
 62
     7
  6
CONTINUOUS
 10
7.7915
 20
9.3557
 40
0.0177
  0
CIRCLE
  8
LAYER1
 62
     7
  6
CONTINUOUS
 10
7.9338
 20
9.3243
 40
0.0229
  0
CIRCLE
  8
LAYER1
 62
     7
  6
CONTINUOUS
 10
7.8475
 20
9.3284
 40
0.0218
  0
CIRCLE
  8
LAYER1
 62
     7
  6
CONTINUOUS
 10
7.9840
 20
9.3679
 40
0.0255
  0
CIRCLE
  8
LAYER1
 62
     7
  6
CONTINUOUS
 10
8.0105
 20
9.2592
 40
0.0129
  0
CIRCLE
  8
LAYER1
 62
     7
  6
CONTINUOUS
 10
7.9881
 20
9.2210
 40
0.0152
  0
CIRCLE
  8
LAYER1
 62
     7
  6
CONTINUOUS
 10
7.9911
 20
9.1779
 40
0.0129
  0
CIRCLE
  8
LAYER1
 62
     7
  6
CONTINUOUS
 10
7.8535
 20
9.2499
 40
0.0104
  0
CIRCLE
  8
LAYER1
 62
     7
  6
CONTINUOUS
 10
7.7652
 20
9.2058
 40
0.0091
  0
CIRCLE
  8
LAYER1
 62
     7
  6
CONTINUOUS
 10
7.6495
 20
9.1310
 40
0.0152
  0
CIRCLE
  8
LAYER1
 62
     7
  6
CONTINUOUS
 10
7.5930
 20
9.1963
 40
0.0101
  0
CIRCLE
  8
LAYER1
 62
     7
  6
CONTINUOUS
 10
7.5824
 20
9.2342
 40
0.0137
  0
CIRCLE
  8
LAYER1
 62
     7
  6
CONTINUOUS
 10
7.8056
 20
9.4496
 40
0.0193
  0
CIRCLE
  8
LAYER1
 62
     7
  6
CONTINUOUS
 10
7.4918
 20
8.9468
 40
0.0154
  0
CIRCLE
  8
LAYER1
 62
     7
  6
CONTINUOUS
 10
7.5471
 20
8.9956
 40
0.0148
  0
CIRCLE
  8
LAYER1
 62
     7
  6
CONTINUOUS
 10
7.5809
 20
8.9199
 40
0.0283
  0
CIRCLE
  8
LAYER1
 62
     7
  6
CONTINUOUS
 10
7.4979
 20
8.8607
 40
0.0154
  0
CIRCLE
  8
LAYER1
 62
     7
  6
CONTINUOUS
 10
7.6006
 20
8.7376
 40
0.0179
  0
CIRCLE
  8
LAYER1
 62
     7
  6
CONTINUOUS
 10
7.8298
 20
8.6413
 40
0.0154
  0
CIRCLE
  8
LAYER1
 62
     7
  6
CONTINUOUS
 10
7.8707
 20
8.6088
 40
0.0108
  0
CIRCLE
  8
LAYER1
 62
     7
  6
CONTINUOUS
 10
7.8174
 20
8.8490
 40
0.0105
  0
CIRCLE
  8
LAYER1
 62
     7
  6
CONTINUOUS
 10
7.9483
 20
8.9290
 40
0.0240
  0
CIRCLE
  8
LAYER1
 62
     7
  6
CONTINUOUS
 10
7.8006
 20
8.9933
 40
0.0179
  0
ARC
  8
LAYER1
 62
     7
  6
CONTINUOUS
 10
7.0404
 20
9.4596
 40
0.0194
 50
-63.5356
 51
-49.5438
  0
ARC
  8
LAYER1
 62
     7
  6
CONTINUOUS
 10
7.0404
 20
9.4596
 40
0.0194
 50
-49.5443
 51
63.5356
  0
ARC
  8
LAYER1
 62
     7
  6
CONTINUOUS
 10
7.0310
 20
9.1807
 40
0.0205
 50
-28.5329
 51
28.5329
  0
POLYLINE
  8
LAYER1
 62
     7
 66
     1
  6
CONTINUOUS
  0
VERTEX
  8
LAYER1
 62
     7
  6
CONTINUOUS
 10
8.0340
 20
9.1710
  0
VERTEX
  8
LAYER1
 62
     7
  6
CONTINUOUS
 10
8.0340
 20
9.1710
  0
SEQEND
  8
LAYER1
  0
POLYLINE
  8
LAYER1
 62
     7
 66
     1
  6
CONTINUOUS
  0
VERTEX
  8
LAYER1
 62
     7
  6
CONTINUOUS
 10
8.0340
 20
9.1710
  0
VERTEX
  8
LAYER1
 62
     7
  6
CONTINUOUS
 10
8.0190
 20
9.1807
  0
VERTEX
  8
LAYER1
 62
     7
  6
CONTINUOUS
 10
8.0137
 20
9.2010
  0
VERTEX
  8
LAYER1
 62
     7
  6
CONTINUOUS
 10
8.0287
 20
9.2214
  0
VERTEX
  8
LAYER1
 62
     7
  6
CONTINUOUS
 10
8.0336
 20
9.2316
  0
VERTEX
  8
LAYER1
 62
     7
  6
CONTINUOUS
 10
8.0340
 20
9.2317
  0
SEQEND
  8
LAYER1
  0
ARC
  8
LAYER1
 62
     7
  6
CONTINUOUS
 10
7.0310
 20
9.1807
 40
0.0205
 50
28.5329
 51
38.6107
  0
ARC
  8
LAYER1
 62
     7
  6
CONTINUOUS
 10
7.0404
 20
9.4596
 40
0.0194
 50
-63.5356
 51
69.9366
  0
ARC
  8
LAYER1
 62
     7
  6
CONTINUOUS
 10
7.0404
 20
9.4596
 40
0.0194
 50
-69.9376
 51
-63.5369
  0
ARC
  8
LAYER1
 62
     7
  6
CONTINUOUS
 10
7.0310
 20
9.1807
 40
0.0205
 50
-38.6124
 51
-28.5321
  0
POLYLINE
  8
LAYER10
 62
     1
 66
     1
  6
CONTINUOUS
  0
VERTEX
  8
LAYER10
 62
     1
  6
CONTINUOUS
 10
7.0490
 20
9.4209
  0
VERTEX
  8
LAYER10
 62
     1
  6
CONTINUOUS
 10
7.0490
 20
9.4209
  0
VERTEX
  8
LAYER10
 62
     1
  6
CONTINUOUS
 10
7.0490
 20
9.4209
  0
VERTEX
  8
LAYER10
 62
     1
  6
CONTINUOUS
 10
7.0490
 20
9.4209
  0
VERTEX
  8
LAYER10
 62
     1
  6
CONTINUOUS
 10
7.0490
 20
9.4209
  0
VERTEX
  8
LAYER10
 62
     1
  6
CONTINUOUS
 10
7.0490
 20
9.4209
  0
VERTEX
  8
LAYER10
 62
     1
  6
CONTINUOUS
 10
7.0490
 20
9.4209
  0
VERTEX
  8
LAYER10
 62
     1
  6
CONTINUOUS
 10
7.0490
 20
9.4209
  0
VERTEX
  8
LAYER10
 62
     1
  6
CONTINUOUS
 10
7.0490
 20
9.4209
  0
VERTEX
  8
LAYER10
 62
     1
  6
CONTINUOUS
 10
7.0490
 20
9.4209
  0
VERTEX
  8
LAYER10
 62
     1
  6
CONTINUOUS
 10
7.0490
 20
9.4209
  0
VERTEX
  8
LAYER10
 62
     1
  6
CONTINUOUS
 10
7.0490
 20
9.4209
  0
VERTEX
  8
LAYER10
 62
     1
  6
CONTINUOUS
 10
7.0490
 20
9.4209
  0
VERTEX
  8
LAYER10
 62
     1
  6
CONTINUOUS
 10
7.0490
 20
9.4209
  0
VERTEX
  8
LAYER10
 62
     1
  6
CONTINUOUS
 10
7.0490
 20
9.4209
  0
VERTEX
  8
LAYER10
 62
     1
  6
CONTINUOUS
 10
7.0490
 20
9.4209
  0
VERTEX
  8
LAYER10
 62
     1
  6
CONTINUOUS
 10
7.0490
 20
9.4209
  0
VERTEX
  8
LAYER10
 62
     1
  6
CONTINUOUS
 10
7.0490
 20
9.4209
  0
VERTEX
  8
LAYER10
 62
     1
  6
CONTINUOUS
 10
7.0490
 20
9.4209
  0
VERTEX
  8
LAYER10
 62
     1
  6
CONTINUOUS
 10
7.0490
 20
9.4209
  0
VERTEX
  8
LAYER10
 62
     1
  6
CONTINUOUS
 10
7.0490
 20
9.4209
  0
VERTEX
  8
LAYER10
 62
     1
  6
CONTINUOUS
 10
7.0490
 20
9.4209
  0
VERTEX
  8
LAYER10
 62
     1
  6
CONTINUOUS
 10
7.0490
 20
9.4209
  0
VERTEX
  8
LAYER10
 62
     1
  6
CONTINUOUS
 10
7.0490
 20
9.4209
  0
VERTEX
  8
LAYER10
 62
     1
  6
CONTINUOUS
 10
7.0490
 20
9.4209
  0
SEQEND
  8
LAYER10
  0
POLYLINE
  8
LAYER10
 62
     1
 66
     1
  6
CONTINUOUS
  0
VERTEX
  8
LAYER10
 62
     1
  6
CONTINUOUS
 10
7.0490
 20
9.4209
  0
VERTEX
  8
LAYER10
 62
     1
  6
CONTINUOUS
 10
7.0502
 20
9.4200
  0
VERTEX
  8
LAYER10
 62
     1
  6
CONTINUOUS
 10
7.0514
 20
9.4191
  0
VERTEX
  8
LAYER10
 62
     1
  6
CONTINUOUS
 10
7.0526
 20
9.4182
  0
VERTEX
  8
LAYER10
 62
     1
  6
CONTINUOUS
 10
7.0539
 20
9.4173
  0
VERTEX
  8
LAYER10
 62
     1
  6
CONTINUOUS
 10
7.0551
 20
9.4164
  0
VERTEX
  8
LAYER10
 62
     1
  6
CONTINUOUS
 10
7.0562
 20
9.4155
  0
VERTEX
  8
LAYER10
 62
     1
  6
CONTINUOUS
 10
7.0574
 20
9.4146
  0
VERTEX
  8
LAYER10
 62
     1
  6
CONTINUOUS
 10
7.0586
 20
9.4137
  0
VERTEX
  8
LAYER10
 62
     1
  6
CONTINUOUS
 10
7.0598
 20
9.4128
  0
VERTEX
  8
LAYER10
 62
     1
  6
CONTINUOUS
 10
7.0610
 20
9.4119
  0
VERTEX
  8
LAYER10
 62
     1
  6
CONTINUOUS
 10
7.0622
 20
9.4110
  0
VERTEX
  8
LAYER10
 62
     1
  6
CONTINUOUS
 10
7.0633
 20
9.4100
  0
VERTEX
  8
LAYER10
 62
     1
  6
CONTINUOUS
 10
7.0647
 20
9.4089
  0
VERTEX
  8
LAYER10
 62
     1
  6
CONTINUOUS
 10
7.0660
 20
9.4078
  0
VERTEX
  8
LAYER10
 62
     1
  6
CONTINUOUS
 10
7.0674
 20
9.4067
  0
VERTEX
  8
LAYER10
 62
     1
  6
CONTINUOUS
 10
7.0687
 20
9.4055
  0
VERTEX
  8
LAYER10
 62
     1
  6
CONTINUOUS
 10
7.0700
 20
9.4043
  0
VERTEX
  8
LAYER10
 62
     1
  6
CONTINUOUS
 10
7.0713
 20
9.4031
  0
VERTEX
  8
LAYER10
 62
     1
  6
CONTINUOUS
 10
7.0725
 20
9.4019
  0
VERTEX
  8
LAYER10
 62
     1
  6
CONTINUOUS
 10
7.0738
 20
9.4006
  0
VERTEX
  8
LAYER10
 62
     1
  6
CONTINUOUS
 10
7.0750
 20
9.3993
  0
VERTEX
  8
LAYER10
 62
     1
  6
CONTINUOUS
 10
7.0761
 20
9.3980
  0
VERTEX
  8
LAYER10
 62
     1
  6
CONTINUOUS
 10
7.0773
 20
9.3967
  0
VERTEX
  8
LAYER10
 62
     1
  6
CONTINUOUS
 10
7.0784
 20
9.3953
  0
VERTEX
  8
LAYER10
 62
     1
  6
CONTINUOUS
 10
7.0796
 20
9.3938
  0
VERTEX
  8
LAYER10
 62
     1
  6
CONTINUOUS
 10
7.0807
 20
9.3922
  0
VERTEX
  8
LAYER10
 62
     1
  6
CONTINUOUS
 10
7.0817
 20
9.3906
  0
VERTEX
  8
LAYER10
 62
     1
  6
CONTINUOUS
 10
7.0828
 20
9.3890
  0
VERTEX
  8
LAYER10
 62
     1
  6
CONTINUOUS
 10
7.0837
 20
9.3874
  0
VERTEX
  8
LAYER10
 62
     1
  6
CONTINUOUS
 10
7.0846
 20
9.3857
  0
VERTEX
  8
LAYER10
 62
     1
  6
CONTINUOUS
 10
7.0855
 20
9.3841
  0
VERTEX
  8
LAYER10
 62
     1
  6
CONTINUOUS
 10
7.0862
 20
9.3824
  0
VERTEX
  8
LAYER10
 62
     1
  6
CONTINUOUS
 10
7.0870
 20
9.3806
  0
VERTEX
  8
LAYER10
 62
     1
  6
CONTINUOUS
 10
7.0876
 20
9.3789
  0
VERTEX
  8
LAYER10
 62
     1
  6
CONTINUOUS
 10
7.0881
 20
9.3772
  0
VERTEX
  8
LAYER10
 62
     1
  6
CONTINUOUS
 10
7.0886
 20
9.3755
  0
VERTEX
  8
LAYER10
 62
     1
  6
CONTINUOUS
 10
7.0891
 20
9.3732
  0
VERTEX
  8
LAYER10
 62
     1
  6
CONTINUOUS
 10
7.0894
 20
9.3708
  0
VERTEX
  8
LAYER10
 62
     1
  6
CONTINUOUS
 10
7.0896
 20
9.3685
  0
VERTEX
  8
LAYER10
 62
     1
  6
CONTINUOUS
 10
7.0898
 20
9.3661
  0
VERTEX
  8
LAYER10
 62
     1
  6
CONTINUOUS
 10
7.0898
 20
9.3638
  0
VERTEX
  8
LAYER10
 62
     1
  6
CONTINUOUS
 10
7.0897
 20
9.3613
  0
VERTEX
  8
LAYER10
 62
     1
  6
CONTINUOUS
 10
7.0896
 20
9.3589
  0
VERTEX
  8
LAYER10
 62
     1
  6
CONTINUOUS
 10
7.0895
 20
9.3564
  0
VERTEX
  8
LAYER10
 62
     1
  6
CONTINUOUS
 10
7.0893
 20
9.3538
  0
VERTEX
  8
LAYER10
 62
     1
  6
CONTINUOUS
 10
7.0892
 20
9.3511
  0
VERTEX
  8
LAYER10
 62
     1
  6
CONTINUOUS
 10
7.0890
 20
9.3484
  0
VERTEX
  8
LAYER10
 62
     1
  6
CONTINUOUS
 10
7.0889
 20
9.3456
  0
VERTEX
  8
LAYER10
 62
     1
  6
CONTINUOUS
 10
7.0889
 20
9.3431
  0
VERTEX
  8
LAYER10
 62
     1
  6
CONTINUOUS
 10
7.0888
 20
9.3407
  0
VERTEX
  8
LAYER10
 62
     1
  6
CONTINUOUS
 10
7.0888
 20
9.3382
  0
VERTEX
  8
LAYER10
 62
     1
  6
CONTINUOUS
 10
7.0887
 20
9.3357
  0
VERTEX
  8
LAYER10
 62
     1
  6
CONTINUOUS
 10
7.0886
 20
9.3333
  0
VERTEX
  8
LAYER10
 62
     1
  6
CONTINUOUS
 10
7.0884
 20
9.3310
  0
VERTEX
  8
LAYER10
 62
     1
  6
CONTINUOUS
 10
7.0880
 20
9.3288
  0
VERTEX
  8
LAYER10
 62
     1
  6
CONTINUOUS
 10
7.0876
 20
9.3267
  0
VERTEX
  8
LAYER10
 62
     1
  6
CONTINUOUS
 10
7.0870
 20
9.3248
  0
VERTEX
  8
LAYER10
 62
     1
  6
CONTINUOUS
 10
7.0863
 20
9.3232
  0
VERTEX
  8
LAYER10
 62
     1
  6
CONTINUOUS
 10
7.0854
 20
9.3218
  0
VERTEX
  8
LAYER10
 62
     1
  6
CONTINUOUS
 10
7.0842
 20
9.3207
  0
VERTEX
  8
LAYER10
 62
     1
  6
CONTINUOUS
 10
7.0826
 20
9.3197
  0
VERTEX
  8
LAYER10
 62
     1
  6
CONTINUOUS
 10
7.0807
 20
9.3191
  0
VERTEX
  8
LAYER10
 62
     1
  6
CONTINUOUS
 10
7.0785
 20
9.3189
  0
VERTEX
  8
LAYER10
 62
     1
  6
CONTINUOUS
 10
7.0761
 20
9.3188
  0
VERTEX
  8
LAYER10
 62
     1
  6
CONTINUOUS
 10
7.0735
 20
9.3190
  0
VERTEX
  8
LAYER10
 62
     1
  6
CONTINUOUS
 10
7.0709
 20
9.3193
  0
VERTEX
  8
LAYER10
 62
     1
  6
CONTINUOUS
 10
7.0681
 20
9.3196
  0
VERTEX
  8
LAYER10
 62
     1
  6
CONTINUOUS
 10
7.0653
 20
9.3200
  0
VERTEX
  8
LAYER10
 62
     1
  6
CONTINUOUS
 10
7.0625
 20
9.3203
  0
VERTEX
  8
LAYER10
 62
     1
  6
CONTINUOUS
 10
7.0597
 20
9.3205
  0
VERTEX
  8
LAYER10
 62
     1
  6
CONTINUOUS
 10
7.0570
 20
9.3205
  0
VERTEX
  8
LAYER10
 62
     1
  6
CONTINUOUS
 10
7.0544
 20
9.3203
  0
VERTEX
  8
LAYER10
 62
     1
  6
CONTINUOUS
 10
7.0539
 20
9.3203
  0
VERTEX
  8
LAYER10
 62
     1
  6
CONTINUOUS
 10
7.0534
 20
9.3202
  0
VERTEX
  8
LAYER10
 62
     1
  6
CONTINUOUS
 10
7.0530
 20
9.3201
  0
VERTEX
  8
LAYER10
 62
     1
  6
CONTINUOUS
 10
7.0525
 20
9.3200
  0
VERTEX
  8
LAYER10
 62
     1
  6
CONTINUOUS
 10
7.0521
 20
9.3199
  0
VERTEX
  8
LAYER10
 62
     1
  6
CONTINUOUS
 10
7.0516
 20
9.3198
  0
VERTEX
  8
LAYER10
 62
     1
  6
CONTINUOUS
 10
7.0512
 20
9.3197
  0
VERTEX
  8
LAYER10
 62
     1
  6
CONTINUOUS
 10
7.0508
 20
9.3196
  0
VERTEX
  8
LAYER10
 62
     1
  6
CONTINUOUS
 10
7.0503
 20
9.3195
  0
VERTEX
  8
LAYER10
 62
     1
  6
CONTINUOUS
 10
7.0499
 20
9.3194
  0
VERTEX
  8
LAYER10
 62
     1
  6
CONTINUOUS
 10
7.0495
 20
9.3192
  0
VERTEX
  8
LAYER10
 62
     1
  6
CONTINUOUS
 10
7.0490
 20
9.3191
  0
SEQEND
  8
LAYER10
  0
POLYLINE
  8
LAYER10
 62
     1
 66
     1
  6
CONTINUOUS
  0
VERTEX
  8
LAYER10
 62
     1
  6
CONTINUOUS
 10
7.0470
 20
9.4221
  0
VERTEX
  8
LAYER10
 62
     1
  6
CONTINUOUS
 10
7.0472
 20
9.4220
  0
VERTEX
  8
LAYER10
 62
     1
  6
CONTINUOUS
 10
7.0474
 20
9.4218
  0
VERTEX
  8
LAYER10
 62
     1
  6
CONTINUOUS
 10
7.0476
 20
9.4217
  0
VERTEX
  8
LAYER10
 62
     1
  6
CONTINUOUS
 10
7.0478
 20
9.4216
  0
VERTEX
  8
LAYER10
 62
     1
  6
CONTINUOUS
 10
7.0480
 20
9.4215
  0
VERTEX
  8
LAYER10
 62
     1
  6
CONTINUOUS
 10
7.0482
 20
9.4214
  0
VERTEX
  8
LAYER10
 62
     1
  6
CONTINUOUS
 10
7.0483
 20
9.4213
  0
VERTEX
  8
LAYER10
 62
     1
  6
CONTINUOUS
 10
7.0485
 20
9.4212
  0
VERTEX
  8
LAYER10
 62
     1
  6
CONTINUOUS
 10
7.0486
 20
9.4211
  0
VERTEX
  8
LAYER10
 62
     1
  6
CONTINUOUS
 10
7.0488
 20
9.4210
  0
VERTEX
  8
LAYER10
 62
     1
  6
CONTINUOUS
 10
7.0489
 20
9.4209
  0
VERTEX
  8
LAYER10
 62
     1
  6
CONTINUOUS
 10
7.0490
 20
9.4209
  0
VERTEX
  8
LAYER10
 62
     1
  6
CONTINUOUS
 10
7.0492
 20
9.4207
  0
VERTEX
  8
LAYER10
 62
     1
  6
CONTINUOUS
 10
7.0494
 20
9.4207
  0
VERTEX
  8
LAYER10
 62
     1
  6
CONTINUOUS
 10
7.0494
 20
9.4206
  0
VERTEX
  8
LAYER10
 62
     1
  6
CONTINUOUS
 10
7.0495
 20
9.4206
  0
VERTEX
  8
LAYER10
 62
     1
  6
CONTINUOUS
 10
7.0495
 20
9.4206
  0
VERTEX
  8
LAYER10
 62
     1
  6
CONTINUOUS
 10
7.0495
 20
9.4206
  0
VERTEX
  8
LAYER10
 62
     1
  6
CONTINUOUS
 10
7.0495
 20
9.4206
  0
VERTEX
  8
LAYER10
 62
     1
  6
CONTINUOUS
 10
7.0494
 20
9.4206
  0
VERTEX
  8
LAYER10
 62
     1
  6
CONTINUOUS
 10
7.0493
 20
9.4207
  0
VERTEX
  8
LAYER10
 62
     1
  6
CONTINUOUS
 10
7.0492
 20
9.4207
  0
VERTEX
  8
LAYER10
 62
     1
  6
CONTINUOUS
 10
7.0491
 20
9.4208
  0
VERTEX
  8
LAYER10
 62
     1
  6
CONTINUOUS
 10
7.0490
 20
9.4209
  0
SEQEND
  8
LAYER10
  0
POLYLINE
  8
LAYER10
 62
     1
 66
     1
  6
CONTINUOUS
  0
VERTEX
  8
LAYER10
 62
     1
  6
CONTINUOUS
 10
7.0490
 20
9.3191
  0
VERTEX
  8
LAYER10
 62
     1
  6
CONTINUOUS
 10
7.0488
 20
9.3190
  0
VERTEX
  8
LAYER10
 62
     1
  6
CONTINUOUS
 10
7.0486
 20
9.3189
  0
VERTEX
  8
LAYER10
 62
     1
  6
CONTINUOUS
 10
7.0485
 20
9.3188
  0
VERTEX
  8
LAYER10
 62
     1
  6
CONTINUOUS
 10
7.0483
 20
9.3187
  0
VERTEX
  8
LAYER10
 62
     1
  6
CONTINUOUS
 10
7.0481
 20
9.3187
  0
VERTEX
  8
LAYER10
 62
     1
  6
CONTINUOUS
 10
7.0479
 20
9.3186
  0
VERTEX
  8
LAYER10
 62
     1
  6
CONTINUOUS
 10
7.0477
 20
9.3185
  0
VERTEX
  8
LAYER10
 62
     1
  6
CONTINUOUS
 10
7.0476
 20
9.3184
  0
VERTEX
  8
LAYER10
 62
     1
  6
CONTINUOUS
 10
7.0474
 20
9.3183
  0
VERTEX
  8
LAYER10
 62
     1
  6
CONTINUOUS
 10
7.0473
 20
9.3183
  0
VERTEX
  8
LAYER10
 62
     1
  6
CONTINUOUS
 10
7.0472
 20
9.3182
  0
VERTEX
  8
LAYER10
 62
     1
  6
CONTINUOUS
 10
7.0470
 20
9.3181
  0
VERTEX
  8
LAYER10
 62
     1
  6
CONTINUOUS
 10
7.0468
 20
9.3180
  0
VERTEX
  8
LAYER10
 62
     1
  6
CONTINUOUS
 10
7.0467
 20
9.3180
  0
VERTEX
  8
LAYER10
 62
     1
  6
CONTINUOUS
 10
7.0466
 20
9.3179
  0
VERTEX
  8
LAYER10
 62
     1
  6
CONTINUOUS
 10
7.0465
 20
9.3179
  0
VERTEX
  8
LAYER10
 62
     1
  6
CONTINUOUS
 10
7.0465
 20
9.3179
  0
VERTEX
  8
LAYER10
 62
     1
  6
CONTINUOUS
 10
7.0465
 20
9.3179
  0
VERTEX
  8
LAYER10
 62
     1
  6
CONTINUOUS
 10
7.0466
 20
9.3179
  0
VERTEX
  8
LAYER10
 62
     1
  6
CONTINUOUS
 10
7.0466
 20
9.3179
  0
VERTEX
  8
LAYER10
 62
     1
  6
CONTINUOUS
 10
7.0467
 20
9.3180
  0
VERTEX
  8
LAYER10
 62
     1
  6
CONTINUOUS
 10
7.0468
 20
9.3180
  0
VERTEX
  8
LAYER10
 62
     1
  6
CONTINUOUS
 10
7.0469
 20
9.3181
  0
VERTEX
  8
LAYER10
 62
     1
  6
CONTINUOUS
 10
7.0470
 20
9.3181
  0
SEQEND
  8
LAYER10
  0
POLYLINE
  8
LAYER12
 62
     5
 66
     1
  6
CONTINUOUS
  0
VERTEX
  8
LAYER12
 62
     5
  6
CONTINUOUS
 10
8.0340
 20
9.5139
  0
VERTEX
  8
LAYER12
 62
     5
  6
CONTINUOUS
 10
7.0490
 20
9.5139
  0
SEQEND
  8
LAYER12
  0
POLYLINE
  8
LAYER12
 62
     5
 66
     1
  6
CONTINUOUS
  0
VERTEX
  8
LAYER12
 62
     5
  6
CONTINUOUS
 10
7.0490
 20
9.5139
  0
VERTEX
  8
LAYER12
 62
     5
  6
CONTINUOUS
 10
7.0490
 20
9.5140
  0
SEQEND
  8
LAYER12
  0
POLYLINE
  8
LAYER12
 62
     5
 66
     1
  6
CONTINUOUS
  0
VERTEX
  8
LAYER12
 62
     5
  6
CONTINUOUS
 10
7.0490
 20
9.5140
  0
VERTEX
  8
LAYER12
 62
     5
  6
CONTINUOUS
 10
7.0490
 20
9.5139
  0
SEQEND
  8
LAYER12
  0
POLYLINE
  8
LAYER12
 62
     5
 66
     1
  6
CONTINUOUS
  0
VERTEX
  8
LAYER12
 62
     5
  6
CONTINUOUS
 10
7.0490
 20
9.5139
  0
VERTEX
  8
LAYER12
 62
     5
  6
CONTINUOUS
 10
7.0470
 20
9.5139
  0
SEQEND
  8
LAYER12
  0
POLYLINE
  8
LAYER12
 62
     5
 66
     1
  6
CONTINUOUS
  0
VERTEX
  8
LAYER12
 62
     5
  6
CONTINUOUS
 10
7.0493
 20
9.5140
  0
VERTEX
  8
LAYER12
 62
     5
  6
CONTINUOUS
 10
7.0493
 20
9.5140
  0
SEQEND
  8
LAYER12
  0
POLYLINE
  8
LAYER12
 62
     5
 66
     1
  6
CONTINUOUS
  0
VERTEX
  8
LAYER12
 62
     5
  6
CONTINUOUS
 10
7.0493
 20
9.5140
  0
VERTEX
  8
LAYER12
 62
     5
  6
CONTINUOUS
 10
7.0493
 20
9.5139
  0
SEQEND
  8
LAYER12
  0
POLYLINE
  8
LAYER12
 62
     5
 66
     1
  6
CONTINUOUS
  0
VERTEX
  8
LAYER12
 62
     5
  6
CONTINUOUS
 10
7.0493
 20
9.5139
  0
VERTEX
  8
LAYER12
 62
     5
  6
CONTINUOUS
 10
7.0493
 20
9.5140
  0
SEQEND
  8
LAYER12
  0
POLYLINE
  8
LAYER12
 62
     5
 66
     1
  6
CONTINUOUS
  0
VERTEX
  8
LAYER12
 62
     5
  6
CONTINUOUS
 10
7.0493
 20
8.5310
  0
VERTEX
  8
LAYER12
 62
     5
  6
CONTINUOUS
 10
7.0493
 20
9.5140
  0
SEQEND
  8
LAYER12
  0
POLYLINE
  8
LAYER12
 62
     5
 66
     1
  6
CONTINUOUS
  0
VERTEX
  8
LAYER12
 62
     5
  6
CONTINUOUS
 10
7.0493
 20
9.5140
  0
VERTEX
  8
LAYER12
 62
     5
  6
CONTINUOUS
 10
7.0493
 20
9.5139
  0
SEQEND
  8
LAYER12
  0
POLYLINE
  8
LAYER12
 62
     5
 66
     1
  6
CONTINUOUS
  0
VERTEX
  8
LAYER12
 62
     5
  6
CONTINUOUS
 10
7.0493
 20
9.5139
  0
VERTEX
  8
LAYER12
 62
     5
  6
CONTINUOUS
 10
7.0493
 20
9.5140
  0
SEQEND
  8
LAYER12
  0
POLYLINE
  8
LAYER12
 62
     5
 66
     1
  6
CONTINUOUS
  0
VERTEX
  8
LAYER12
 62
     5
  6
CONTINUOUS
 10
7.0493
 20
9.5140
  0
VERTEX
  8
LAYER12
 62
     5
  6
CONTINUOUS
 10
7.0493
 20
9.5140
  0
SEQEND
  8
LAYER12
  0
POLYLINE
  8
LAYER12
 62
     5
 66
     1
  6
CONTINUOUS
  0
VERTEX
  8
LAYER12
 62
     5
  6
CONTINUOUS
 10
7.0490
 20
8.5302
  0
VERTEX
  8
LAYER12
 62
     5
  6
CONTINUOUS
 10
7.0493
 20
8.5302
  0
SEQEND
  8
LAYER12
  0
POLYLINE
  8
LAYER12
 62
     5
 66
     1
  6
CONTINUOUS
  0
VERTEX
  8
LAYER12
 62
     5
  6
CONTINUOUS
 10
7.0493
 20
8.5302
  0
VERTEX
  8
LAYER12
 62
     5
  6
CONTINUOUS
 10
8.0330
 20
8.5302
  0
SEQEND
  8
LAYER12
  0
POLYLINE
  8
LAYER12
 62
     5
 66
     1
  6
CONTINUOUS
  0
VERTEX
  8
LAYER12
 62
     5
  6
CONTINUOUS
 10
8.0330
 20
8.5302
  0
VERTEX
  8
LAYER12
 62
     5
  6
CONTINUOUS
 10
8.0340
 20
8.5302
  0
SEQEND
  8
LAYER12
  0
POLYLINE
  8
LAYER12
 62
     5
 66
     1
  6
CONTINUOUS
  0
VERTEX
  8
LAYER12
 62
     5
  6
CONTINUOUS
 10
7.0493
 20
8.5302
  0
VERTEX
  8
LAYER12
 62
     5
  6
CONTINUOUS
 10
7.0493
 20
8.5302
  0
SEQEND
  8
LAYER12
  0
POLYLINE
  8
LAYER12
 62
     5
 66
     1
  6
CONTINUOUS
  0
VERTEX
  8
LAYER12
 62
     5
  6
CONTINUOUS
 10
7.0493
 20
8.5302
  0
VERTEX
  8
LAYER12
 62
     5
  6
CONTINUOUS
 10
7.0493
 20
8.5310
  0
SEQEND
  8
LAYER12
  0
POLYLINE
  8
LAYER12
 62
     5
 66
     1
  6
CONTINUOUS
  0
VERTEX
  8
LAYER12
 62
     5
  6
CONTINUOUS
 10
7.0493
 20
8.5302
  0
VERTEX
  8
LAYER12
 62
     5
  6
CONTINUOUS
 10
7.0493
 20
8.5302
  0
SEQEND
  8
LAYER12
  0
POLYLINE
  8
LAYER12
 62
     5
 66
     1
  6
CONTINUOUS
  0
VERTEX
  8
LAYER12
 62
     5
  6
CONTINUOUS
 10
8.0330
 20
9.5140
  0
VERTEX
  8
LAYER12
 62
     5
  6
CONTINUOUS
 10
8.0330
 20
9.5139
  0
SEQEND
  8
LAYER12
  0
POLYLINE
  8
LAYER12
 62
     5
 66
     1
  6
CONTINUOUS
  0
VERTEX
  8
LAYER12
 62
     5
  6
CONTINUOUS
 10
8.0330
 20
9.5139
  0
VERTEX
  8
LAYER12
 62
     5
  6
CONTINUOUS
 10
8.0330
 20
9.5140
  0
SEQEND
  8
LAYER12
  0
POLYLINE
  8
LAYER12
 62
     5
 66
     1
  6
CONTINUOUS
  0
VERTEX
  8
LAYER12
 62
     5
  6
CONTINUOUS
 10
8.0330
 20
9.5140
  0
VERTEX
  8
LAYER12
 62
     5
  6
CONTINUOUS
 10
8.0330
 20
8.5310
  0
SEQEND
  8
LAYER12
  0
POLYLINE
  8
LAYER12
 62
     5
 66
     1
  6
CONTINUOUS
  0
VERTEX
  8
LAYER12
 62
     5
  6
CONTINUOUS
 10
8.0330
 20
8.5310
  0
VERTEX
  8
LAYER12
 62
     5
  6
CONTINUOUS
 10
8.0330
 20
8.5302
  0
SEQEND
  8
LAYER12
  0
POLYLINE
  8
LAYER12
 62
     5
 66
     1
  6
CONTINUOUS
  0
VERTEX
  8
LAYER12
 62
     5
  6
CONTINUOUS
 10
8.0330
 20
8.5302
  0
VERTEX
  8
LAYER12
 62
     5
  6
CONTINUOUS
 10
8.0330
 20
8.5302
  0
SEQEND
  8
LAYER12
  0
POLYLINE
  8
LAYER12
 62
     5
 66
     1
  6
CONTINUOUS
  0
VERTEX
  8
LAYER12
 62
     5
  6
CONTINUOUS
 10
8.0330
 20
8.5302
  0
VERTEX
  8
LAYER12
 62
     5
  6
CONTINUOUS
 10
8.0330
 20
8.5302
  0
SEQEND
  8
LAYER12
  0
ENDSEC
  0
EOF
