  0
SECTION
  2
HEADER
  9
$ACADVER
  1
AC1004
  9
$EXTMIN
 10
5.0377
 20
8.5302
  9
$EXTMAX
 10
6.0664
 20
9.5183
  9
$LIMMIN
 10
5.0377
 20
8.5302
  9
$LIMMAX
 10
6.0664
 20
9.5183
  9
$INSBASE
 10
0.0
 20
0.0
  9
$VIEWCTR
 10
7.21903
 20
4.5
  9
$VIEWSIZE
 40
9.0
  9
$SNAPMODE
 70
     0
  9
$SNAPUNIT
 10
1.0
 20
1.0
  9
$SNAPBASE
 10
0.0
 20
0.0
  9
$SNAPANG
 50
0.0
  9
$SNAPSTYLE
 70
     0
  9
$SNAPISOPAIR
 70
     0
  9
$GRIDMODE
 70
     0
  9
$GRIDUNIT
 10
0.0
 20
0.0
  9
$ORTHOMODE
 70
     0
  9
$REGENMODE
 70
     1
  9
$FILLMODE
 70
     1
  9
$QTEXTMODE
 70
     0
  9
$DRAGMODE
 70
     2
  9
$LTSCALE
 40
1.0
  9
$OSMODE
 70
     0
  9
$ATTMODE
 70
     1
  9
$TEXTSIZE
 40
0.2
  9
$TRACEWID
 40
0.05
  9
$TEXTSTYLE
  7
STANDARD
  9
$CLAYER
  8
0
  9
$CELTYPE
  6
BYLAYER
  9
$CECOLOR
 62
   256
  9
$DIMSCALE
 40
1.0
  9
$DIMASZ
 40
0.18
  9
$DIMEXO
 40
0.0625
  9
$DIMDLI
 40
0.38
  9
$DIMRND
 40
0.0
  9
$DIMDLE
 40
0.0
  9
$DIMEXE
 40
0.18
  9
$DIMTP
 40
0.0
  9
$DIMTM
 40
0.0
  9
$DIMTXT
 40
0.18
  9
$DIMCEN
 40
0.09
  9
$DIMTSZ
 40
0.0
  9
$DIMTOL
 70
     0
  9
$DIMLIM
 70
     0
  9
$DIMTIH
 70
     1
  9
$DIMTOH
 70
     1
  9
$DIMSE1
 70
     0
  9
$DIMSE2
 70
     0
  9
$DIMTAD
 70
     0
  9
$DIMZIN
 70
     0
  9
$DIMBLK
  1

  9
$DIMASO
 70
     1
  9
$DIMSHO
 70
     0
  9
$DIMPOST
  1

  9
$DIMAPOST
  1

  9
$DIMALT
 70
     0
  9
$DIMALTD
 70
     2
  9
$DIMALTF
 40
25.4
  9
$DIMLFAC
 40
1.0
  9
$LUNITS
 70
     2
  9
$LUPREC
 70
     4
  9
$AXISMODE
 70
     0
  9
$AXISUNIT
 10
0.0
 20
0.0
  9
$SKETCHINC
 40
0.1
  9
$FILLETRAD
 40
0.0
  9
$AUNITS
 70
     0
  9
$AUPREC
 70
     0
  9
$MENU
  1
acad
  9
$ELEVATION
 40
0.0
  9
$THICKNESS
 40
0.0
  9
$VIEWDIR
 10
0.0
 20
0.0
 30
1.0
  9
$LIMCHECK
 70
     0
  9
$BLIPMODE
 70
     1
  9
$CHAMFERA
 40
0.0
  9
$CHAMFERB
 40
0.0
  9
$FASTZOOM
 70
     1
  9
$SKPOLY
 70
     0
  9
$TDCREATE
 40
2447222.5666886573
  9
$TDUPDATE
 40
2447222.5666886573
  9
$TDINDWG
 40
0.0000000000
  9
$TDUSRTIMER
 40
0.0000000000
  9
$USRTIMER
 70
     1
  9
$ANGBASE
 50
0.0
  9
$ANGDIR
 70
     0
  9
$PDMODE
 70
     0
  9
$PDSIZE
 40
0.0
  9
$PLINEWID
 40
0.0
  9
$COORDS
 70
     0
  9
$SPLFRAME
 70
     0
  9
$SPLINESEGS
 70
     8
  9
$ATTDIA
 70
     0
  9
$ATTREQ
 70
     1
  9
$USERI1
 70
     0
  9
$USERI2
 70
     0
  9
$USERI3
 70
     0
  9
$USERI4
 70
     0
  9
$USERI5
 70
     0
  9
$USERR1
 40
0.0
  9
$USERR2
 40
0.0
  9
$USERR3
 40
0.0
  9
$USERR4
 40
0.0
  9
$USERR5
 40
0.0
  0
ENDSEC
  0
SECTION
  2
TABLES
  0
TABLE
  2
LTYPE
 70
     13
  0
LTYPE
  2
CONTINUOUS
 70
    64
  3
Solid line
 72
    65
 73
     0
 40
0.0
  0
LTYPE
  2
DASHED
 70
    64
  3
__ __ __ __ __ __ __ __ __ __ __ __ __ __ __
 72
    65
 73
     2
 40
0.75
 49
0.5
 49
-0.25
  0
LTYPE
  2
HIDDEN
 70
    64
  3
_ _ _ _ _ _ _ _ _ _ _ _ _ _ _ _ _ _ _ _ _ _ _
 72
    65
 73
     2
 40
0.375
 49
0.25
 49
-0.125
  0
LTYPE
  2
CENTER
 70
    64
  3
____ _ ____ _ ____ _ ____ _ ____ _ ____ _ ____
 72
    65
 73
     4
 40
2.0
 49
1.25
 49
-0.25
 49
0.25
 49
-0.25
  0
LTYPE
  2
PHANTOM
 70
    64
  3
_____ _ _ _____ _ _ _____ _ _ _____ _ _ ____
 72
    65
 73
     6
 40
2.5
 49
1.25
 49
-0.25
 49
0.25
 49
-0.25
 49
0.25
 49
-0.25
  0
LTYPE
  2
DOT
 70
    64
  3
...............................................
 72
    65
 73
     2
 40
0.25
 49
0.0
 49
-0.25
  0
LTYPE
  2
DASHDOT
 70
    64
  3
__ . __ . __ . __ . __ . __ . __ . __ . __ . __
 72
    65
 73
     4
 40
1.0
 49
0.5
 49
-0.25
 49
0.0
 49
-0.25
  0
LTYPE
  2
BORDER
 70
    64
  3
__ __ . __ __ . __ __ . __ __ . __ __ . __ __
 72
    65
 73
     6
 40
1.75
 49
0.5
 49
-0.25
 49
0.5
 49
-0.25
 49
0.0
 49
-0.25
  0
LTYPE
  2
DIVIDE
 70
    64
  3
__ . . __ . . __ . . __ . . __ . . __ . . __
 72
    65
 73
     6
 40
1.25
 49
0.5
 49
-0.25
 49
0.0
 49
-0.25
 49
0.0
 49
-0.25
  0
LTYPE
  2
DCTYPE1
 70
    64
  3
__ . . __ . . __ . . __ . . __ . . __ . . __
 72
    65
 73
     8
 40
2.5
 49
0.5
 49
-0.25
 49
0.125
 49
-0.25
 49
0.25
 49
-0.25
 49
0.125
 49
-0.25
  0
LTYPE
  2
DCTYPE2
 70
    64
  3
__ . . __ . . __ . . __ . . __ . . __ . . __
 72
    65
 73
     6
 40
2.05
 49
1.0
 49
-0.3
 49
0.15
 49
-0.15
 49
0.15
 49
-0.3
  0
LTYPE
  2
DCTYPE3
 70
    64
  3
__ . . __ . . __ . . __ . . __ . . __ . . __
 72
    65
 73
     6
 40
2.5
 49
0.8
 49
-0.2
 49
0.8
 49
-0.2
 49
0.3
 49
-0.2
  0
LTYPE
  2
DCTYPE4
 70
    64
  3
__ . . __ . . __ . . __ . . __ . . __ . . __
 72
    65
 73
     10
 40
3.97
 49
1.75
 49
-0.3
 49
0.3
 49
-0.3
 49
0.06
 49
-0.3
 49
0.06
 49
-0.3
 49
0.3
 49
-0.3
  0
ENDTAB
  0
TABLE
  2
LAYER
 70
    153
  0
LAYER
  2
LAYER1
 70
 64
 62
     7
  6
CONTINUOUS
  0
LAYER
  2
LAYER10
 70
 64
 62
     1
  6
CONTINUOUS
  0
LAYER
  2
LAYER12
 70
 64
 62
     5
  6
CONTINUOUS
  0
ENDTAB
  0
ENDSEC
  0
SECTION
  2
BLOCKS
  0
ENDSEC
  0
SECTION
  2
ENTITIES
  0
CIRCLE
  8
LAYER1
 62
     7
  6
CONTINUOUS
 10
5.0843
 20
9.1990
 40
0.0149
  0
CIRCLE
  8
LAYER1
 62
     7
  6
CONTINUOUS
 10
5.1214
 20
9.2169
 40
0.0176
  0
CIRCLE
  8
LAYER1
 62
     7
  6
CONTINUOUS
 10
5.1860
 20
9.2275
 40
0.0236
  0
CIRCLE
  8
LAYER1
 62
     7
  6
CONTINUOUS
 10
5.3126
 20
9.2588
 40
0.0229
  0
CIRCLE
  8
LAYER1
 62
     7
  6
CONTINUOUS
 10
5.3673
 20
9.2694
 40
0.0224
  0
CIRCLE
  8
LAYER1
 62
     7
  6
CONTINUOUS
 10
5.4466
 20
9.2951
 40
0.0230
  0
CIRCLE
  8
LAYER1
 62
     7
  6
CONTINUOUS
 10
5.5310
 20
9.3210
 40
0.0167
  0
CIRCLE
  8
LAYER1
 62
     7
  6
CONTINUOUS
 10
5.5807
 20
9.3290
 40
0.0268
  0
CIRCLE
  8
LAYER1
 62
     7
  6
CONTINUOUS
 10
5.6352
 20
9.3470
 40
0.0213
  0
CIRCLE
  8
LAYER1
 62
     7
  6
CONTINUOUS
 10
5.6898
 20
9.3675
 40
0.0201
  0
CIRCLE
  8
LAYER1
 62
     7
  6
CONTINUOUS
 10
5.7368
 20
9.3904
 40
0.0213
  0
CIRCLE
  8
LAYER1
 62
     7
  6
CONTINUOUS
 10
5.8534
 20
9.4315
 40
0.0290
  0
CIRCLE
  8
LAYER1
 62
     7
  6
CONTINUOUS
 10
5.8910
 20
9.4071
 40
0.0159
  0
CIRCLE
  8
LAYER1
 62
     7
  6
CONTINUOUS
 10
5.9605
 20
9.4203
 40
0.0225
  0
CIRCLE
  8
LAYER1
 62
     7
  6
CONTINUOUS
 10
5.0983
 20
9.2838
 40
0.0254
  0
CIRCLE
  8
LAYER1
 62
     7
  6
CONTINUOUS
 10
5.0878
 20
9.3310
 40
0.0194
  0
CIRCLE
  8
LAYER1
 62
     7
  6
CONTINUOUS
 10
5.1276
 20
9.3339
 40
0.0111
  0
CIRCLE
  8
LAYER1
 62
     7
  6
CONTINUOUS
 10
5.1395
 20
9.3864
 40
0.0190
  0
POLYLINE
  8
LAYER1
 62
     7
 66
     1
  6
CONTINUOUS
  0
VERTEX
  8
LAYER1
 62
     7
  6
CONTINUOUS
 10
5.5610
 20
9.3088
  0
VERTEX
  8
LAYER1
 62
     7
  6
CONTINUOUS
 10
5.5589
 20
9.3083
  0
VERTEX
  8
LAYER1
 62
     7
  6
CONTINUOUS
 10
5.5569
 20
9.3077
  0
VERTEX
  8
LAYER1
 62
     7
  6
CONTINUOUS
 10
5.5548
 20
9.3071
  0
VERTEX
  8
LAYER1
 62
     7
  6
CONTINUOUS
 10
5.5528
 20
9.3066
  0
VERTEX
  8
LAYER1
 62
     7
  6
CONTINUOUS
 10
5.5507
 20
9.3061
  0
VERTEX
  8
LAYER1
 62
     7
  6
CONTINUOUS
 10
5.5486
 20
9.3056
  0
VERTEX
  8
LAYER1
 62
     7
  6
CONTINUOUS
 10
5.5466
 20
9.3051
  0
VERTEX
  8
LAYER1
 62
     7
  6
CONTINUOUS
 10
5.5445
 20
9.3047
  0
VERTEX
  8
LAYER1
 62
     7
  6
CONTINUOUS
 10
5.5424
 20
9.3043
  0
VERTEX
  8
LAYER1
 62
     7
  6
CONTINUOUS
 10
5.5403
 20
9.3040
  0
VERTEX
  8
LAYER1
 62
     7
  6
CONTINUOUS
 10
5.5382
 20
9.3038
  0
VERTEX
  8
LAYER1
 62
     7
  6
CONTINUOUS
 10
5.5361
 20
9.3036
  0
VERTEX
  8
LAYER1
 62
     7
  6
CONTINUOUS
 10
5.5345
 20
9.3035
  0
VERTEX
  8
LAYER1
 62
     7
  6
CONTINUOUS
 10
5.5328
 20
9.3034
  0
VERTEX
  8
LAYER1
 62
     7
  6
CONTINUOUS
 10
5.5312
 20
9.3034
  0
VERTEX
  8
LAYER1
 62
     7
  6
CONTINUOUS
 10
5.5295
 20
9.3034
  0
VERTEX
  8
LAYER1
 62
     7
  6
CONTINUOUS
 10
5.5279
 20
9.3034
  0
VERTEX
  8
LAYER1
 62
     7
  6
CONTINUOUS
 10
5.5262
 20
9.3034
  0
VERTEX
  8
LAYER1
 62
     7
  6
CONTINUOUS
 10
5.5245
 20
9.3035
  0
VERTEX
  8
LAYER1
 62
     7
  6
CONTINUOUS
 10
5.5229
 20
9.3035
  0
VERTEX
  8
LAYER1
 62
     7
  6
CONTINUOUS
 10
5.5212
 20
9.3035
  0
VERTEX
  8
LAYER1
 62
     7
  6
CONTINUOUS
 10
5.5196
 20
9.3035
  0
VERTEX
  8
LAYER1
 62
     7
  6
CONTINUOUS
 10
5.5179
 20
9.3034
  0
VERTEX
  8
LAYER1
 62
     7
  6
CONTINUOUS
 10
5.5162
 20
9.3034
  0
VERTEX
  8
LAYER1
 62
     7
  6
CONTINUOUS
 10
5.5141
 20
9.3032
  0
VERTEX
  8
LAYER1
 62
     7
  6
CONTINUOUS
 10
5.5120
 20
9.3030
  0
VERTEX
  8
LAYER1
 62
     7
  6
CONTINUOUS
 10
5.5099
 20
9.3027
  0
VERTEX
  8
LAYER1
 62
     7
  6
CONTINUOUS
 10
5.5078
 20
9.3024
  0
VERTEX
  8
LAYER1
 62
     7
  6
CONTINUOUS
 10
5.5057
 20
9.3020
  0
VERTEX
  8
LAYER1
 62
     7
  6
CONTINUOUS
 10
5.5037
 20
9.3016
  0
VERTEX
  8
LAYER1
 62
     7
  6
CONTINUOUS
 10
5.5016
 20
9.3011
  0
VERTEX
  8
LAYER1
 62
     7
  6
CONTINUOUS
 10
5.4995
 20
9.3006
  0
VERTEX
  8
LAYER1
 62
     7
  6
CONTINUOUS
 10
5.4975
 20
9.3000
  0
VERTEX
  8
LAYER1
 62
     7
  6
CONTINUOUS
 10
5.4954
 20
9.2994
  0
VERTEX
  8
LAYER1
 62
     7
  6
CONTINUOUS
 10
5.4934
 20
9.2988
  0
VERTEX
  8
LAYER1
 62
     7
  6
CONTINUOUS
 10
5.4914
 20
9.2981
  0
VERTEX
  8
LAYER1
 62
     7
  6
CONTINUOUS
 10
5.4893
 20
9.2974
  0
VERTEX
  8
LAYER1
 62
     7
  6
CONTINUOUS
 10
5.4872
 20
9.2966
  0
VERTEX
  8
LAYER1
 62
     7
  6
CONTINUOUS
 10
5.4851
 20
9.2958
  0
VERTEX
  8
LAYER1
 62
     7
  6
CONTINUOUS
 10
5.4830
 20
9.2950
  0
VERTEX
  8
LAYER1
 62
     7
  6
CONTINUOUS
 10
5.4809
 20
9.2942
  0
VERTEX
  8
LAYER1
 62
     7
  6
CONTINUOUS
 10
5.4789
 20
9.2933
  0
VERTEX
  8
LAYER1
 62
     7
  6
CONTINUOUS
 10
5.4768
 20
9.2924
  0
VERTEX
  8
LAYER1
 62
     7
  6
CONTINUOUS
 10
5.4748
 20
9.2915
  0
VERTEX
  8
LAYER1
 62
     7
  6
CONTINUOUS
 10
5.4727
 20
9.2906
  0
VERTEX
  8
LAYER1
 62
     7
  6
CONTINUOUS
 10
5.4707
 20
9.2897
  0
VERTEX
  8
LAYER1
 62
     7
  6
CONTINUOUS
 10
5.4687
 20
9.2888
  0
VERTEX
  8
LAYER1
 62
     7
  6
CONTINUOUS
 10
5.4666
 20
9.2879
  0
SEQEND
  8
LAYER1
  0
POLYLINE
  8
LAYER1
 62
     7
 66
     1
  6
CONTINUOUS
  0
VERTEX
  8
LAYER1
 62
     7
  6
CONTINUOUS
 10
5.4664
 20
9.3078
  0
VERTEX
  8
LAYER1
 62
     7
  6
CONTINUOUS
 10
5.4684
 20
9.3092
  0
VERTEX
  8
LAYER1
 62
     7
  6
CONTINUOUS
 10
5.4704
 20
9.3106
  0
VERTEX
  8
LAYER1
 62
     7
  6
CONTINUOUS
 10
5.4724
 20
9.3119
  0
VERTEX
  8
LAYER1
 62
     7
  6
CONTINUOUS
 10
5.4744
 20
9.3133
  0
VERTEX
  8
LAYER1
 62
     7
  6
CONTINUOUS
 10
5.4765
 20
9.3146
  0
VERTEX
  8
LAYER1
 62
     7
  6
CONTINUOUS
 10
5.4785
 20
9.3159
  0
VERTEX
  8
LAYER1
 62
     7
  6
CONTINUOUS
 10
5.4806
 20
9.3172
  0
VERTEX
  8
LAYER1
 62
     7
  6
CONTINUOUS
 10
5.4826
 20
9.3185
  0
VERTEX
  8
LAYER1
 62
     7
  6
CONTINUOUS
 10
5.4847
 20
9.3197
  0
VERTEX
  8
LAYER1
 62
     7
  6
CONTINUOUS
 10
5.4868
 20
9.3208
  0
VERTEX
  8
LAYER1
 62
     7
  6
CONTINUOUS
 10
5.4890
 20
9.3219
  0
VERTEX
  8
LAYER1
 62
     7
  6
CONTINUOUS
 10
5.4911
 20
9.3230
  0
VERTEX
  8
LAYER1
 62
     7
  6
CONTINUOUS
 10
5.4928
 20
9.3238
  0
VERTEX
  8
LAYER1
 62
     7
  6
CONTINUOUS
 10
5.4945
 20
9.3245
  0
VERTEX
  8
LAYER1
 62
     7
  6
CONTINUOUS
 10
5.4962
 20
9.3253
  0
VERTEX
  8
LAYER1
 62
     7
  6
CONTINUOUS
 10
5.4979
 20
9.3260
  0
VERTEX
  8
LAYER1
 62
     7
  6
CONTINUOUS
 10
5.4996
 20
9.3268
  0
VERTEX
  8
LAYER1
 62
     7
  6
CONTINUOUS
 10
5.5013
 20
9.3275
  0
VERTEX
  8
LAYER1
 62
     7
  6
CONTINUOUS
 10
5.5030
 20
9.3283
  0
VERTEX
  8
LAYER1
 62
     7
  6
CONTINUOUS
 10
5.5046
 20
9.3292
  0
VERTEX
  8
LAYER1
 62
     7
  6
CONTINUOUS
 10
5.5062
 20
9.3301
  0
VERTEX
  8
LAYER1
 62
     7
  6
CONTINUOUS
 10
5.5078
 20
9.3310
  0
VERTEX
  8
LAYER1
 62
     7
  6
CONTINUOUS
 10
5.5094
 20
9.3321
  0
VERTEX
  8
LAYER1
 62
     7
  6
CONTINUOUS
 10
5.5109
 20
9.3332
  0
VERTEX
  8
LAYER1
 62
     7
  6
CONTINUOUS
 10
5.5126
 20
9.3346
  0
VERTEX
  8
LAYER1
 62
     7
  6
CONTINUOUS
 10
5.5142
 20
9.3360
  0
VERTEX
  8
LAYER1
 62
     7
  6
CONTINUOUS
 10
5.5158
 20
9.3375
  0
VERTEX
  8
LAYER1
 62
     7
  6
CONTINUOUS
 10
5.5174
 20
9.3391
  0
VERTEX
  8
LAYER1
 62
     7
  6
CONTINUOUS
 10
5.5189
 20
9.3406
  0
VERTEX
  8
LAYER1
 62
     7
  6
CONTINUOUS
 10
5.5205
 20
9.3421
  0
VERTEX
  8
LAYER1
 62
     7
  6
CONTINUOUS
 10
5.5221
 20
9.3435
  0
VERTEX
  8
LAYER1
 62
     7
  6
CONTINUOUS
 10
5.5237
 20
9.3448
  0
VERTEX
  8
LAYER1
 62
     7
  6
CONTINUOUS
 10
5.5253
 20
9.3460
  0
VERTEX
  8
LAYER1
 62
     7
  6
CONTINUOUS
 10
5.5270
 20
9.3470
  0
VERTEX
  8
LAYER1
 62
     7
  6
CONTINUOUS
 10
5.5288
 20
9.3478
  0
VERTEX
  8
LAYER1
 62
     7
  6
CONTINUOUS
 10
5.5307
 20
9.3483
  0
VERTEX
  8
LAYER1
 62
     7
  6
CONTINUOUS
 10
5.5322
 20
9.3486
  0
VERTEX
  8
LAYER1
 62
     7
  6
CONTINUOUS
 10
5.5338
 20
9.3487
  0
VERTEX
  8
LAYER1
 62
     7
  6
CONTINUOUS
 10
5.5355
 20
9.3488
  0
VERTEX
  8
LAYER1
 62
     7
  6
CONTINUOUS
 10
5.5371
 20
9.3487
  0
VERTEX
  8
LAYER1
 62
     7
  6
CONTINUOUS
 10
5.5388
 20
9.3486
  0
VERTEX
  8
LAYER1
 62
     7
  6
CONTINUOUS
 10
5.5405
 20
9.3484
  0
VERTEX
  8
LAYER1
 62
     7
  6
CONTINUOUS
 10
5.5423
 20
9.3483
  0
VERTEX
  8
LAYER1
 62
     7
  6
CONTINUOUS
 10
5.5440
 20
9.3482
  0
VERTEX
  8
LAYER1
 62
     7
  6
CONTINUOUS
 10
5.5457
 20
9.3481
  0
VERTEX
  8
LAYER1
 62
     7
  6
CONTINUOUS
 10
5.5473
 20
9.3481
  0
VERTEX
  8
LAYER1
 62
     7
  6
CONTINUOUS
 10
5.5490
 20
9.3483
  0
VERTEX
  8
LAYER1
 62
     7
  6
CONTINUOUS
 10
5.5506
 20
9.3486
  0
VERTEX
  8
LAYER1
 62
     7
  6
CONTINUOUS
 10
5.5515
 20
9.3488
  0
VERTEX
  8
LAYER1
 62
     7
  6
CONTINUOUS
 10
5.5523
 20
9.3491
  0
VERTEX
  8
LAYER1
 62
     7
  6
CONTINUOUS
 10
5.5532
 20
9.3494
  0
VERTEX
  8
LAYER1
 62
     7
  6
CONTINUOUS
 10
5.5540
 20
9.3498
  0
VERTEX
  8
LAYER1
 62
     7
  6
CONTINUOUS
 10
5.5549
 20
9.3502
  0
VERTEX
  8
LAYER1
 62
     7
  6
CONTINUOUS
 10
5.5557
 20
9.3506
  0
VERTEX
  8
LAYER1
 62
     7
  6
CONTINUOUS
 10
5.5565
 20
9.3511
  0
VERTEX
  8
LAYER1
 62
     7
  6
CONTINUOUS
 10
5.5573
 20
9.3516
  0
VERTEX
  8
LAYER1
 62
     7
  6
CONTINUOUS
 10
5.5581
 20
9.3521
  0
VERTEX
  8
LAYER1
 62
     7
  6
CONTINUOUS
 10
5.5589
 20
9.3526
  0
VERTEX
  8
LAYER1
 62
     7
  6
CONTINUOUS
 10
5.5597
 20
9.3531
  0
VERTEX
  8
LAYER1
 62
     7
  6
CONTINUOUS
 10
5.5605
 20
9.3536
  0
SEQEND
  8
LAYER1
  0
POLYLINE
  8
LAYER1
 62
     7
 66
     1
  6
CONTINUOUS
  0
VERTEX
  8
LAYER1
 62
     7
  6
CONTINUOUS
 10
5.8736
 20
9.4019
  0
VERTEX
  8
LAYER1
 62
     7
  6
CONTINUOUS
 10
5.8733
 20
9.4002
  0
VERTEX
  8
LAYER1
 62
     7
  6
CONTINUOUS
 10
5.8731
 20
9.3986
  0
VERTEX
  8
LAYER1
 62
     7
  6
CONTINUOUS
 10
5.8728
 20
9.3969
  0
VERTEX
  8
LAYER1
 62
     7
  6
CONTINUOUS
 10
5.8725
 20
9.3953
  0
VERTEX
  8
LAYER1
 62
     7
  6
CONTINUOUS
 10
5.8722
 20
9.3936
  0
VERTEX
  8
LAYER1
 62
     7
  6
CONTINUOUS
 10
5.8719
 20
9.3919
  0
VERTEX
  8
LAYER1
 62
     7
  6
CONTINUOUS
 10
5.8715
 20
9.3903
  0
VERTEX
  8
LAYER1
 62
     7
  6
CONTINUOUS
 10
5.8711
 20
9.3886
  0
VERTEX
  8
LAYER1
 62
     7
  6
CONTINUOUS
 10
5.8706
 20
9.3869
  0
VERTEX
  8
LAYER1
 62
     7
  6
CONTINUOUS
 10
5.8701
 20
9.3853
  0
VERTEX
  8
LAYER1
 62
     7
  6
CONTINUOUS
 10
5.8695
 20
9.3836
  0
VERTEX
  8
LAYER1
 62
     7
  6
CONTINUOUS
 10
5.8688
 20
9.3819
  0
VERTEX
  8
LAYER1
 62
     7
  6
CONTINUOUS
 10
5.8678
 20
9.3796
  0
VERTEX
  8
LAYER1
 62
     7
  6
CONTINUOUS
 10
5.8666
 20
9.3774
  0
VERTEX
  8
LAYER1
 62
     7
  6
CONTINUOUS
 10
5.8653
 20
9.3752
  0
VERTEX
  8
LAYER1
 62
     7
  6
CONTINUOUS
 10
5.8639
 20
9.3730
  0
VERTEX
  8
LAYER1
 62
     7
  6
CONTINUOUS
 10
5.8624
 20
9.3710
  0
VERTEX
  8
LAYER1
 62
     7
  6
CONTINUOUS
 10
5.8608
 20
9.3691
  0
VERTEX
  8
LAYER1
 62
     7
  6
CONTINUOUS
 10
5.8590
 20
9.3673
  0
VERTEX
  8
LAYER1
 62
     7
  6
CONTINUOUS
 10
5.8572
 20
9.3657
  0
VERTEX
  8
LAYER1
 62
     7
  6
CONTINUOUS
 10
5.8553
 20
9.3644
  0
VERTEX
  8
LAYER1
 62
     7
  6
CONTINUOUS
 10
5.8533
 20
9.3632
  0
VERTEX
  8
LAYER1
 62
     7
  6
CONTINUOUS
 10
5.8513
 20
9.3624
  0
VERTEX
  8
LAYER1
 62
     7
  6
CONTINUOUS
 10
5.8491
 20
9.3618
  0
VERTEX
  8
LAYER1
 62
     7
  6
CONTINUOUS
 10
5.8476
 20
9.3616
  0
VERTEX
  8
LAYER1
 62
     7
  6
CONTINUOUS
 10
5.8461
 20
9.3615
  0
VERTEX
  8
LAYER1
 62
     7
  6
CONTINUOUS
 10
5.8445
 20
9.3615
  0
VERTEX
  8
LAYER1
 62
     7
  6
CONTINUOUS
 10
5.8429
 20
9.3616
  0
VERTEX
  8
LAYER1
 62
     7
  6
CONTINUOUS
 10
5.8412
 20
9.3617
  0
VERTEX
  8
LAYER1
 62
     7
  6
CONTINUOUS
 10
5.8396
 20
9.3618
  0
VERTEX
  8
LAYER1
 62
     7
  6
CONTINUOUS
 10
5.8379
 20
9.3620
  0
VERTEX
  8
LAYER1
 62
     7
  6
CONTINUOUS
 10
5.8362
 20
9.3621
  0
VERTEX
  8
LAYER1
 62
     7
  6
CONTINUOUS
 10
5.8345
 20
9.3621
  0
VERTEX
  8
LAYER1
 62
     7
  6
CONTINUOUS
 10
5.8328
 20
9.3621
  0
VERTEX
  8
LAYER1
 62
     7
  6
CONTINUOUS
 10
5.8310
 20
9.3619
  0
VERTEX
  8
LAYER1
 62
     7
  6
CONTINUOUS
 10
5.8292
 20
9.3616
  0
VERTEX
  8
LAYER1
 62
     7
  6
CONTINUOUS
 10
5.8274
 20
9.3611
  0
VERTEX
  8
LAYER1
 62
     7
  6
CONTINUOUS
 10
5.8255
 20
9.3605
  0
VERTEX
  8
LAYER1
 62
     7
  6
CONTINUOUS
 10
5.8237
 20
9.3597
  0
VERTEX
  8
LAYER1
 62
     7
  6
CONTINUOUS
 10
5.8219
 20
9.3590
  0
VERTEX
  8
LAYER1
 62
     7
  6
CONTINUOUS
 10
5.8201
 20
9.3582
  0
VERTEX
  8
LAYER1
 62
     7
  6
CONTINUOUS
 10
5.8183
 20
9.3575
  0
VERTEX
  8
LAYER1
 62
     7
  6
CONTINUOUS
 10
5.8166
 20
9.3568
  0
VERTEX
  8
LAYER1
 62
     7
  6
CONTINUOUS
 10
5.8150
 20
9.3563
  0
VERTEX
  8
LAYER1
 62
     7
  6
CONTINUOUS
 10
5.8134
 20
9.3559
  0
VERTEX
  8
LAYER1
 62
     7
  6
CONTINUOUS
 10
5.8120
 20
9.3558
  0
VERTEX
  8
LAYER1
 62
     7
  6
CONTINUOUS
 10
5.8106
 20
9.3559
  0
VERTEX
  8
LAYER1
 62
     7
  6
CONTINUOUS
 10
5.8094
 20
9.3564
  0
VERTEX
  8
LAYER1
 62
     7
  6
CONTINUOUS
 10
5.8084
 20
9.3571
  0
VERTEX
  8
LAYER1
 62
     7
  6
CONTINUOUS
 10
5.8075
 20
9.3579
  0
VERTEX
  8
LAYER1
 62
     7
  6
CONTINUOUS
 10
5.8067
 20
9.3590
  0
VERTEX
  8
LAYER1
 62
     7
  6
CONTINUOUS
 10
5.8059
 20
9.3603
  0
VERTEX
  8
LAYER1
 62
     7
  6
CONTINUOUS
 10
5.8051
 20
9.3616
  0
VERTEX
  8
LAYER1
 62
     7
  6
CONTINUOUS
 10
5.8044
 20
9.3631
  0
VERTEX
  8
LAYER1
 62
     7
  6
CONTINUOUS
 10
5.8036
 20
9.3645
  0
VERTEX
  8
LAYER1
 62
     7
  6
CONTINUOUS
 10
5.8029
 20
9.3660
  0
VERTEX
  8
LAYER1
 62
     7
  6
CONTINUOUS
 10
5.8020
 20
9.3675
  0
VERTEX
  8
LAYER1
 62
     7
  6
CONTINUOUS
 10
5.8012
 20
9.3688
  0
VERTEX
  8
LAYER1
 62
     7
  6
CONTINUOUS
 10
5.8003
 20
9.3701
  0
VERTEX
  8
LAYER1
 62
     7
  6
CONTINUOUS
 10
5.7993
 20
9.3712
  0
VERTEX
  8
LAYER1
 62
     7
  6
CONTINUOUS
 10
5.7980
 20
9.3723
  0
VERTEX
  8
LAYER1
 62
     7
  6
CONTINUOUS
 10
5.7966
 20
9.3731
  0
VERTEX
  8
LAYER1
 62
     7
  6
CONTINUOUS
 10
5.7951
 20
9.3738
  0
VERTEX
  8
LAYER1
 62
     7
  6
CONTINUOUS
 10
5.7935
 20
9.3743
  0
VERTEX
  8
LAYER1
 62
     7
  6
CONTINUOUS
 10
5.7918
 20
9.3746
  0
VERTEX
  8
LAYER1
 62
     7
  6
CONTINUOUS
 10
5.7901
 20
9.3749
  0
VERTEX
  8
LAYER1
 62
     7
  6
CONTINUOUS
 10
5.7883
 20
9.3751
  0
VERTEX
  8
LAYER1
 62
     7
  6
CONTINUOUS
 10
5.7865
 20
9.3752
  0
VERTEX
  8
LAYER1
 62
     7
  6
CONTINUOUS
 10
5.7847
 20
9.3754
  0
VERTEX
  8
LAYER1
 62
     7
  6
CONTINUOUS
 10
5.7829
 20
9.3755
  0
VERTEX
  8
LAYER1
 62
     7
  6
CONTINUOUS
 10
5.7811
 20
9.3757
  0
VERTEX
  8
LAYER1
 62
     7
  6
CONTINUOUS
 10
5.7793
 20
9.3760
  0
VERTEX
  8
LAYER1
 62
     7
  6
CONTINUOUS
 10
5.7774
 20
9.3764
  0
VERTEX
  8
LAYER1
 62
     7
  6
CONTINUOUS
 10
5.7756
 20
9.3769
  0
VERTEX
  8
LAYER1
 62
     7
  6
CONTINUOUS
 10
5.7738
 20
9.3775
  0
VERTEX
  8
LAYER1
 62
     7
  6
CONTINUOUS
 10
5.7721
 20
9.3782
  0
VERTEX
  8
LAYER1
 62
     7
  6
CONTINUOUS
 10
5.7704
 20
9.3789
  0
VERTEX
  8
LAYER1
 62
     7
  6
CONTINUOUS
 10
5.7688
 20
9.3798
  0
VERTEX
  8
LAYER1
 62
     7
  6
CONTINUOUS
 10
5.7671
 20
9.3807
  0
VERTEX
  8
LAYER1
 62
     7
  6
CONTINUOUS
 10
5.7655
 20
9.3816
  0
VERTEX
  8
LAYER1
 62
     7
  6
CONTINUOUS
 10
5.7640
 20
9.3826
  0
VERTEX
  8
LAYER1
 62
     7
  6
CONTINUOUS
 10
5.7624
 20
9.3836
  0
VERTEX
  8
LAYER1
 62
     7
  6
CONTINUOUS
 10
5.7608
 20
9.3847
  0
VERTEX
  8
LAYER1
 62
     7
  6
CONTINUOUS
 10
5.7593
 20
9.3857
  0
SEQEND
  8
LAYER1
  0
POLYLINE
  8
LAYER1
 62
     7
 66
     1
  6
CONTINUOUS
  0
VERTEX
  8
LAYER1
 62
     7
  6
CONTINUOUS
 10
5.7541
 20
9.4056
  0
VERTEX
  8
LAYER1
 62
     7
  6
CONTINUOUS
 10
5.7589
 20
9.4156
  0
VERTEX
  8
LAYER1
 62
     7
  6
CONTINUOUS
 10
5.7888
 20
9.4159
  0
VERTEX
  8
LAYER1
 62
     7
  6
CONTINUOUS
 10
5.8137
 20
9.4162
  0
VERTEX
  8
LAYER1
 62
     7
  6
CONTINUOUS
 10
5.8271
 20
9.4280
  0
SEQEND
  8
LAYER1
  0
POLYLINE
  8
LAYER1
 62
     7
 66
     1
  6
CONTINUOUS
  0
VERTEX
  8
LAYER1
 62
     7
  6
CONTINUOUS
 10
5.8292
 20
9.3616
  0
VERTEX
  8
LAYER1
 62
     7
  6
CONTINUOUS
 10
5.8283
 20
9.3591
  0
VERTEX
  8
LAYER1
 62
     7
  6
CONTINUOUS
 10
5.8274
 20
9.3566
  0
VERTEX
  8
LAYER1
 62
     7
  6
CONTINUOUS
 10
5.8265
 20
9.3542
  0
VERTEX
  8
LAYER1
 62
     7
  6
CONTINUOUS
 10
5.8255
 20
9.3518
  0
VERTEX
  8
LAYER1
 62
     7
  6
CONTINUOUS
 10
5.8245
 20
9.3495
  0
VERTEX
  8
LAYER1
 62
     7
  6
CONTINUOUS
 10
5.8234
 20
9.3473
  0
VERTEX
  8
LAYER1
 62
     7
  6
CONTINUOUS
 10
5.8222
 20
9.3451
  0
VERTEX
  8
LAYER1
 62
     7
  6
CONTINUOUS
 10
5.8210
 20
9.3431
  0
VERTEX
  8
LAYER1
 62
     7
  6
CONTINUOUS
 10
5.8196
 20
9.3412
  0
VERTEX
  8
LAYER1
 62
     7
  6
CONTINUOUS
 10
5.8181
 20
9.3395
  0
VERTEX
  8
LAYER1
 62
     7
  6
CONTINUOUS
 10
5.8164
 20
9.3379
  0
VERTEX
  8
LAYER1
 62
     7
  6
CONTINUOUS
 10
5.8146
 20
9.3365
  0
VERTEX
  8
LAYER1
 62
     7
  6
CONTINUOUS
 10
5.8135
 20
9.3358
  0
VERTEX
  8
LAYER1
 62
     7
  6
CONTINUOUS
 10
5.8124
 20
9.3352
  0
VERTEX
  8
LAYER1
 62
     7
  6
CONTINUOUS
 10
5.8113
 20
9.3347
  0
VERTEX
  8
LAYER1
 62
     7
  6
CONTINUOUS
 10
5.8101
 20
9.3341
  0
VERTEX
  8
LAYER1
 62
     7
  6
CONTINUOUS
 10
5.8089
 20
9.3337
  0
VERTEX
  8
LAYER1
 62
     7
  6
CONTINUOUS
 10
5.8076
 20
9.3332
  0
VERTEX
  8
LAYER1
 62
     7
  6
CONTINUOUS
 10
5.8064
 20
9.3328
  0
VERTEX
  8
LAYER1
 62
     7
  6
CONTINUOUS
 10
5.8051
 20
9.3325
  0
VERTEX
  8
LAYER1
 62
     7
  6
CONTINUOUS
 10
5.8037
 20
9.3322
  0
VERTEX
  8
LAYER1
 62
     7
  6
CONTINUOUS
 10
5.8024
 20
9.3319
  0
VERTEX
  8
LAYER1
 62
     7
  6
CONTINUOUS
 10
5.8011
 20
9.3316
  0
VERTEX
  8
LAYER1
 62
     7
  6
CONTINUOUS
 10
5.7997
 20
9.3314
  0
VERTEX
  8
LAYER1
 62
     7
  6
CONTINUOUS
 10
5.7971
 20
9.3310
  0
VERTEX
  8
LAYER1
 62
     7
  6
CONTINUOUS
 10
5.7944
 20
9.3307
  0
VERTEX
  8
LAYER1
 62
     7
  6
CONTINUOUS
 10
5.7918
 20
9.3306
  0
VERTEX
  8
LAYER1
 62
     7
  6
CONTINUOUS
 10
5.7891
 20
9.3305
  0
VERTEX
  8
LAYER1
 62
     7
  6
CONTINUOUS
 10
5.7865
 20
9.3306
  0
VERTEX
  8
LAYER1
 62
     7
  6
CONTINUOUS
 10
5.7840
 20
9.3309
  0
VERTEX
  8
LAYER1
 62
     7
  6
CONTINUOUS
 10
5.7814
 20
9.3313
  0
VERTEX
  8
LAYER1
 62
     7
  6
CONTINUOUS
 10
5.7789
 20
9.3318
  0
VERTEX
  8
LAYER1
 62
     7
  6
CONTINUOUS
 10
5.7765
 20
9.3326
  0
VERTEX
  8
LAYER1
 62
     7
  6
CONTINUOUS
 10
5.7742
 20
9.3335
  0
VERTEX
  8
LAYER1
 62
     7
  6
CONTINUOUS
 10
5.7719
 20
9.3347
  0
VERTEX
  8
LAYER1
 62
     7
  6
CONTINUOUS
 10
5.7698
 20
9.3360
  0
VERTEX
  8
LAYER1
 62
     7
  6
CONTINUOUS
 10
5.7685
 20
9.3370
  0
VERTEX
  8
LAYER1
 62
     7
  6
CONTINUOUS
 10
5.7674
 20
9.3380
  0
VERTEX
  8
LAYER1
 62
     7
  6
CONTINUOUS
 10
5.7662
 20
9.3390
  0
VERTEX
  8
LAYER1
 62
     7
  6
CONTINUOUS
 10
5.7652
 20
9.3401
  0
VERTEX
  8
LAYER1
 62
     7
  6
CONTINUOUS
 10
5.7642
 20
9.3413
  0
VERTEX
  8
LAYER1
 62
     7
  6
CONTINUOUS
 10
5.7632
 20
9.3426
  0
VERTEX
  8
LAYER1
 62
     7
  6
CONTINUOUS
 10
5.7624
 20
9.3439
  0
VERTEX
  8
LAYER1
 62
     7
  6
CONTINUOUS
 10
5.7616
 20
9.3452
  0
VERTEX
  8
LAYER1
 62
     7
  6
CONTINUOUS
 10
5.7610
 20
9.3466
  0
VERTEX
  8
LAYER1
 62
     7
  6
CONTINUOUS
 10
5.7604
 20
9.3480
  0
VERTEX
  8
LAYER1
 62
     7
  6
CONTINUOUS
 10
5.7600
 20
9.3494
  0
VERTEX
  8
LAYER1
 62
     7
  6
CONTINUOUS
 10
5.7597
 20
9.3509
  0
VERTEX
  8
LAYER1
 62
     7
  6
CONTINUOUS
 10
5.7595
 20
9.3521
  0
VERTEX
  8
LAYER1
 62
     7
  6
CONTINUOUS
 10
5.7594
 20
9.3533
  0
VERTEX
  8
LAYER1
 62
     7
  6
CONTINUOUS
 10
5.7593
 20
9.3546
  0
VERTEX
  8
LAYER1
 62
     7
  6
CONTINUOUS
 10
5.7593
 20
9.3558
  0
VERTEX
  8
LAYER1
 62
     7
  6
CONTINUOUS
 10
5.7594
 20
9.3571
  0
VERTEX
  8
LAYER1
 62
     7
  6
CONTINUOUS
 10
5.7594
 20
9.3583
  0
VERTEX
  8
LAYER1
 62
     7
  6
CONTINUOUS
 10
5.7595
 20
9.3596
  0
VERTEX
  8
LAYER1
 62
     7
  6
CONTINUOUS
 10
5.7595
 20
9.3608
  0
VERTEX
  8
LAYER1
 62
     7
  6
CONTINUOUS
 10
5.7596
 20
9.3621
  0
VERTEX
  8
LAYER1
 62
     7
  6
CONTINUOUS
 10
5.7596
 20
9.3633
  0
VERTEX
  8
LAYER1
 62
     7
  6
CONTINUOUS
 10
5.7596
 20
9.3646
  0
VERTEX
  8
LAYER1
 62
     7
  6
CONTINUOUS
 10
5.7595
 20
9.3658
  0
VERTEX
  8
LAYER1
 62
     7
  6
CONTINUOUS
 10
5.7593
 20
9.3671
  0
VERTEX
  8
LAYER1
 62
     7
  6
CONTINUOUS
 10
5.7591
 20
9.3684
  0
VERTEX
  8
LAYER1
 62
     7
  6
CONTINUOUS
 10
5.7588
 20
9.3696
  0
VERTEX
  8
LAYER1
 62
     7
  6
CONTINUOUS
 10
5.7585
 20
9.3709
  0
VERTEX
  8
LAYER1
 62
     7
  6
CONTINUOUS
 10
5.7581
 20
9.3721
  0
VERTEX
  8
LAYER1
 62
     7
  6
CONTINUOUS
 10
5.7576
 20
9.3734
  0
VERTEX
  8
LAYER1
 62
     7
  6
CONTINUOUS
 10
5.7571
 20
9.3746
  0
VERTEX
  8
LAYER1
 62
     7
  6
CONTINUOUS
 10
5.7566
 20
9.3758
  0
VERTEX
  8
LAYER1
 62
     7
  6
CONTINUOUS
 10
5.7561
 20
9.3770
  0
VERTEX
  8
LAYER1
 62
     7
  6
CONTINUOUS
 10
5.7555
 20
9.3782
  0
VERTEX
  8
LAYER1
 62
     7
  6
CONTINUOUS
 10
5.7549
 20
9.3795
  0
VERTEX
  8
LAYER1
 62
     7
  6
CONTINUOUS
 10
5.7543
 20
9.3807
  0
SEQEND
  8
LAYER1
  0
CIRCLE
  8
LAYER1
 62
     7
  6
CONTINUOUS
 10
5.4749
 20
9.4423
 40
0.0299
  0
CIRCLE
  8
LAYER1
 62
     7
  6
CONTINUOUS
 10
5.5643
 20
9.4607
 40
0.0181
  0
CIRCLE
  8
LAYER1
 62
     7
  6
CONTINUOUS
 10
5.6736
 20
9.4818
 40
0.0274
  0
CIRCLE
  8
LAYER1
 62
     7
  6
CONTINUOUS
 10
5.9375
 20
9.4773
 40
0.0199
  0
CIRCLE
  8
LAYER1
 62
     7
  6
CONTINUOUS
 10
5.9165
 20
9.3526
 40
0.0201
  0
CIRCLE
  8
LAYER1
 62
     7
  6
CONTINUOUS
 10
5.8224
 20
9.3068
 40
0.0151
  0
CIRCLE
  8
LAYER1
 62
     7
  6
CONTINUOUS
 10
5.8850
 20
9.2726
 40
0.0149
  0
CIRCLE
  8
LAYER1
 62
     7
  6
CONTINUOUS
 10
6.0355
 20
9.3912
 40
0.0176
  0
CIRCLE
  8
LAYER1
 62
     7
  6
CONTINUOUS
 10
6.0389
 20
9.3091
 40
0.0149
  0
CIRCLE
  8
LAYER1
 62
     7
  6
CONTINUOUS
 10
5.9729
 20
9.2014
 40
0.0127
  0
CIRCLE
  8
LAYER1
 62
     7
  6
CONTINUOUS
 10
5.1200
 20
8.8958
 40
0.0201
  0
CIRCLE
  8
LAYER1
 62
     7
  6
CONTINUOUS
 10
5.1722
 20
9.1229
 40
0.0127
  0
CIRCLE
  8
LAYER1
 62
     7
  6
CONTINUOUS
 10
5.2869
 20
9.1042
 40
0.0225
  0
CIRCLE
  8
LAYER1
 62
     7
  6
CONTINUOUS
 10
5.3189
 20
9.1419
 40
0.0111
  0
CIRCLE
  8
LAYER1
 62
     7
  6
CONTINUOUS
 10
5.5950
 20
9.1624
 40
0.0394
  0
CIRCLE
  8
LAYER1
 62
     7
  6
CONTINUOUS
 10
5.5817
 20
9.0129
 40
0.0127
  0
CIRCLE
  8
LAYER1
 62
     7
  6
CONTINUOUS
 10
5.5379
 20
8.9203
 40
0.0151
  0
CIRCLE
  8
LAYER1
 62
     7
  6
CONTINUOUS
 10
5.8592
 20
9.1230
 40
0.0201
  0
CIRCLE
  8
LAYER1
 62
     7
  6
CONTINUOUS
 10
5.9300
 20
9.0267
 40
0.0127
  0
CIRCLE
  8
LAYER1
 62
     7
  6
CONTINUOUS
 10
5.9430
 20
8.9770
 40
0.0174
  0
CIRCLE
  8
LAYER1
 62
     7
  6
CONTINUOUS
 10
5.8299
 20
8.8538
 40
0.0157
  0
CIRCLE
  8
LAYER1
 62
     7
  6
CONTINUOUS
 10
5.9667
 20
8.6313
 40
0.0149
  0
CIRCLE
  8
LAYER1
 62
     7
  6
CONTINUOUS
 10
5.7403
 20
8.6263
 40
0.0127
  0
CIRCLE
  8
LAYER1
 62
     7
  6
CONTINUOUS
 10
5.6894
 20
8.7228
 40
0.0103
  0
CIRCLE
  8
LAYER1
 62
     7
  6
CONTINUOUS
 10
5.2345
 20
8.6680
 40
0.0254
  0
ARC
  8
LAYER1
 62
     7
  6
CONTINUOUS
 10
5.0396
 20
9.1911
 40
0.0174
 50
79.9237
 51
90.6486
  0
ARC
  8
LAYER1
 62
     7
  6
CONTINUOUS
 10
5.0513
 20
9.2584
 40
0.0213
 50
-113.9912
 51
-68.8198
  0
ARC
  8
LAYER1
 62
     7
  6
CONTINUOUS
 10
5.0389
 20
8.7978
 40
0.0230
 50
-80.7318
 51
78.1007
  0
POLYLINE
  8
LAYER1
 62
     7
 66
     1
  6
CONTINUOUS
  0
VERTEX
  8
LAYER1
 62
     7
  6
CONTINUOUS
 10
5.0426
 20
9.3276
  0
VERTEX
  8
LAYER1
 62
     7
  6
CONTINUOUS
 10
5.0426
 20
9.3276
  0
VERTEX
  8
LAYER1
 62
     7
  6
CONTINUOUS
 10
5.0426
 20
9.3276
  0
VERTEX
  8
LAYER1
 62
     7
  6
CONTINUOUS
 10
5.0426
 20
9.3276
  0
VERTEX
  8
LAYER1
 62
     7
  6
CONTINUOUS
 10
5.0426
 20
9.3276
  0
VERTEX
  8
LAYER1
 62
     7
  6
CONTINUOUS
 10
5.0426
 20
9.3276
  0
VERTEX
  8
LAYER1
 62
     7
  6
CONTINUOUS
 10
5.0426
 20
9.3276
  0
VERTEX
  8
LAYER1
 62
     7
  6
CONTINUOUS
 10
5.0426
 20
9.3276
  0
VERTEX
  8
LAYER1
 62
     7
  6
CONTINUOUS
 10
5.0426
 20
9.3276
  0
VERTEX
  8
LAYER1
 62
     7
  6
CONTINUOUS
 10
5.0426
 20
9.3276
  0
VERTEX
  8
LAYER1
 62
     7
  6
CONTINUOUS
 10
5.0426
 20
9.3276
  0
VERTEX
  8
LAYER1
 62
     7
  6
CONTINUOUS
 10
5.0426
 20
9.3276
  0
VERTEX
  8
LAYER1
 62
     7
  6
CONTINUOUS
 10
5.0426
 20
9.3276
  0
VERTEX
  8
LAYER1
 62
     7
  6
CONTINUOUS
 10
5.0426
 20
9.3279
  0
VERTEX
  8
LAYER1
 62
     7
  6
CONTINUOUS
 10
5.0426
 20
9.3282
  0
VERTEX
  8
LAYER1
 62
     7
  6
CONTINUOUS
 10
5.0426
 20
9.3283
  0
VERTEX
  8
LAYER1
 62
     7
  6
CONTINUOUS
 10
5.0426
 20
9.3284
  0
VERTEX
  8
LAYER1
 62
     7
  6
CONTINUOUS
 10
5.0426
 20
9.3284
  0
VERTEX
  8
LAYER1
 62
     7
  6
CONTINUOUS
 10
5.0426
 20
9.3284
  0
VERTEX
  8
LAYER1
 62
     7
  6
CONTINUOUS
 10
5.0426
 20
9.3284
  0
VERTEX
  8
LAYER1
 62
     7
  6
CONTINUOUS
 10
5.0426
 20
9.3282
  0
VERTEX
  8
LAYER1
 62
     7
  6
CONTINUOUS
 10
5.0426
 20
9.3281
  0
VERTEX
  8
LAYER1
 62
     7
  6
CONTINUOUS
 10
5.0426
 20
9.3279
  0
VERTEX
  8
LAYER1
 62
     7
  6
CONTINUOUS
 10
5.0426
 20
9.3278
  0
VERTEX
  8
LAYER1
 62
     7
  6
CONTINUOUS
 10
5.0426
 20
9.3276
  0
SEQEND
  8
LAYER1
  0
POLYLINE
  8
LAYER1
 62
     7
 66
     1
  6
CONTINUOUS
  0
VERTEX
  8
LAYER1
 62
     7
  6
CONTINUOUS
 10
5.0426
 20
9.3276
  0
VERTEX
  8
LAYER1
 62
     7
  6
CONTINUOUS
 10
5.0426
 20
9.3276
  0
VERTEX
  8
LAYER1
 62
     7
  6
CONTINUOUS
 10
5.0427
 20
9.3277
  0
VERTEX
  8
LAYER1
 62
     7
  6
CONTINUOUS
 10
5.0427
 20
9.3277
  0
VERTEX
  8
LAYER1
 62
     7
  6
CONTINUOUS
 10
5.0427
 20
9.3277
  0
VERTEX
  8
LAYER1
 62
     7
  6
CONTINUOUS
 10
5.0428
 20
9.3278
  0
VERTEX
  8
LAYER1
 62
     7
  6
CONTINUOUS
 10
5.0428
 20
9.3278
  0
VERTEX
  8
LAYER1
 62
     7
  6
CONTINUOUS
 10
5.0429
 20
9.3278
  0
VERTEX
  8
LAYER1
 62
     7
  6
CONTINUOUS
 10
5.0429
 20
9.3279
  0
VERTEX
  8
LAYER1
 62
     7
  6
CONTINUOUS
 10
5.0429
 20
9.3279
  0
VERTEX
  8
LAYER1
 62
     7
  6
CONTINUOUS
 10
5.0430
 20
9.3280
  0
VERTEX
  8
LAYER1
 62
     7
  6
CONTINUOUS
 10
5.0430
 20
9.3280
  0
VERTEX
  8
LAYER1
 62
     7
  6
CONTINUOUS
 10
5.0430
 20
9.3280
  0
VERTEX
  8
LAYER1
 62
     7
  6
CONTINUOUS
 10
5.0444
 20
9.3296
  0
VERTEX
  8
LAYER1
 62
     7
  6
CONTINUOUS
 10
5.0457
 20
9.3312
  0
VERTEX
  8
LAYER1
 62
     7
  6
CONTINUOUS
 10
5.0470
 20
9.3328
  0
VERTEX
  8
LAYER1
 62
     7
  6
CONTINUOUS
 10
5.0483
 20
9.3344
  0
VERTEX
  8
LAYER1
 62
     7
  6
CONTINUOUS
 10
5.0495
 20
9.3361
  0
VERTEX
  8
LAYER1
 62
     7
  6
CONTINUOUS
 10
5.0507
 20
9.3378
  0
VERTEX
  8
LAYER1
 62
     7
  6
CONTINUOUS
 10
5.0518
 20
9.3395
  0
VERTEX
  8
LAYER1
 62
     7
  6
CONTINUOUS
 10
5.0530
 20
9.3412
  0
VERTEX
  8
LAYER1
 62
     7
  6
CONTINUOUS
 10
5.0542
 20
9.3430
  0
VERTEX
  8
LAYER1
 62
     7
  6
CONTINUOUS
 10
5.0553
 20
9.3447
  0
VERTEX
  8
LAYER1
 62
     7
  6
CONTINUOUS
 10
5.0565
 20
9.3464
  0
VERTEX
  8
LAYER1
 62
     7
  6
CONTINUOUS
 10
5.0577
 20
9.3481
  0
VERTEX
  8
LAYER1
 62
     7
  6
CONTINUOUS
 10
5.0592
 20
9.3500
  0
VERTEX
  8
LAYER1
 62
     7
  6
CONTINUOUS
 10
5.0606
 20
9.3518
  0
VERTEX
  8
LAYER1
 62
     7
  6
CONTINUOUS
 10
5.0621
 20
9.3537
  0
VERTEX
  8
LAYER1
 62
     7
  6
CONTINUOUS
 10
5.0636
 20
9.3555
  0
VERTEX
  8
LAYER1
 62
     7
  6
CONTINUOUS
 10
5.0652
 20
9.3572
  0
VERTEX
  8
LAYER1
 62
     7
  6
CONTINUOUS
 10
5.0668
 20
9.3589
  0
VERTEX
  8
LAYER1
 62
     7
  6
CONTINUOUS
 10
5.0685
 20
9.3606
  0
VERTEX
  8
LAYER1
 62
     7
  6
CONTINUOUS
 10
5.0702
 20
9.3622
  0
VERTEX
  8
LAYER1
 62
     7
  6
CONTINUOUS
 10
5.0720
 20
9.3638
  0
VERTEX
  8
LAYER1
 62
     7
  6
CONTINUOUS
 10
5.0737
 20
9.3653
  0
VERTEX
  8
LAYER1
 62
     7
  6
CONTINUOUS
 10
5.0756
 20
9.3668
  0
VERTEX
  8
LAYER1
 62
     7
  6
CONTINUOUS
 10
5.0774
 20
9.3682
  0
VERTEX
  8
LAYER1
 62
     7
  6
CONTINUOUS
 10
5.0794
 20
9.3696
  0
VERTEX
  8
LAYER1
 62
     7
  6
CONTINUOUS
 10
5.0814
 20
9.3710
  0
VERTEX
  8
LAYER1
 62
     7
  6
CONTINUOUS
 10
5.0834
 20
9.3723
  0
VERTEX
  8
LAYER1
 62
     7
  6
CONTINUOUS
 10
5.0855
 20
9.3736
  0
VERTEX
  8
LAYER1
 62
     7
  6
CONTINUOUS
 10
5.0876
 20
9.3748
  0
VERTEX
  8
LAYER1
 62
     7
  6
CONTINUOUS
 10
5.0897
 20
9.3760
  0
VERTEX
  8
LAYER1
 62
     7
  6
CONTINUOUS
 10
5.0918
 20
9.3772
  0
VERTEX
  8
LAYER1
 62
     7
  6
CONTINUOUS
 10
5.0939
 20
9.3785
  0
VERTEX
  8
LAYER1
 62
     7
  6
CONTINUOUS
 10
5.0960
 20
9.3797
  0
VERTEX
  8
LAYER1
 62
     7
  6
CONTINUOUS
 10
5.0980
 20
9.3809
  0
VERTEX
  8
LAYER1
 62
     7
  6
CONTINUOUS
 10
5.1001
 20
9.3822
  0
VERTEX
  8
LAYER1
 62
     7
  6
CONTINUOUS
 10
5.1022
 20
9.3834
  0
VERTEX
  8
LAYER1
 62
     7
  6
CONTINUOUS
 10
5.1039
 20
9.3846
  0
VERTEX
  8
LAYER1
 62
     7
  6
CONTINUOUS
 10
5.1056
 20
9.3857
  0
VERTEX
  8
LAYER1
 62
     7
  6
CONTINUOUS
 10
5.1073
 20
9.3869
  0
VERTEX
  8
LAYER1
 62
     7
  6
CONTINUOUS
 10
5.1090
 20
9.3881
  0
VERTEX
  8
LAYER1
 62
     7
  6
CONTINUOUS
 10
5.1106
 20
9.3894
  0
VERTEX
  8
LAYER1
 62
     7
  6
CONTINUOUS
 10
5.1123
 20
9.3906
  0
VERTEX
  8
LAYER1
 62
     7
  6
CONTINUOUS
 10
5.1139
 20
9.3919
  0
VERTEX
  8
LAYER1
 62
     7
  6
CONTINUOUS
 10
5.1155
 20
9.3932
  0
VERTEX
  8
LAYER1
 62
     7
  6
CONTINUOUS
 10
5.1171
 20
9.3946
  0
VERTEX
  8
LAYER1
 62
     7
  6
CONTINUOUS
 10
5.1187
 20
9.3959
  0
VERTEX
  8
LAYER1
 62
     7
  6
CONTINUOUS
 10
5.1203
 20
9.3972
  0
VERTEX
  8
LAYER1
 62
     7
  6
CONTINUOUS
 10
5.1219
 20
9.3986
  0
VERTEX
  8
LAYER1
 62
     7
  6
CONTINUOUS
 10
5.1241
 20
9.4005
  0
VERTEX
  8
LAYER1
 62
     7
  6
CONTINUOUS
 10
5.1263
 20
9.4025
  0
VERTEX
  8
LAYER1
 62
     7
  6
CONTINUOUS
 10
5.1285
 20
9.4045
  0
VERTEX
  8
LAYER1
 62
     7
  6
CONTINUOUS
 10
5.1306
 20
9.4065
  0
VERTEX
  8
LAYER1
 62
     7
  6
CONTINUOUS
 10
5.1327
 20
9.4086
  0
VERTEX
  8
LAYER1
 62
     7
  6
CONTINUOUS
 10
5.1348
 20
9.4106
  0
VERTEX
  8
LAYER1
 62
     7
  6
CONTINUOUS
 10
5.1369
 20
9.4127
  0
VERTEX
  8
LAYER1
 62
     7
  6
CONTINUOUS
 10
5.1389
 20
9.4149
  0
VERTEX
  8
LAYER1
 62
     7
  6
CONTINUOUS
 10
5.1409
 20
9.4171
  0
VERTEX
  8
LAYER1
 62
     7
  6
CONTINUOUS
 10
5.1428
 20
9.4193
  0
VERTEX
  8
LAYER1
 62
     7
  6
CONTINUOUS
 10
5.1447
 20
9.4215
  0
VERTEX
  8
LAYER1
 62
     7
  6
CONTINUOUS
 10
5.1465
 20
9.4238
  0
VERTEX
  8
LAYER1
 62
     7
  6
CONTINUOUS
 10
5.1478
 20
9.4254
  0
VERTEX
  8
LAYER1
 62
     7
  6
CONTINUOUS
 10
5.1490
 20
9.4270
  0
VERTEX
  8
LAYER1
 62
     7
  6
CONTINUOUS
 10
5.1502
 20
9.4287
  0
VERTEX
  8
LAYER1
 62
     7
  6
CONTINUOUS
 10
5.1515
 20
9.4304
  0
VERTEX
  8
LAYER1
 62
     7
  6
CONTINUOUS
 10
5.1527
 20
9.4320
  0
VERTEX
  8
LAYER1
 62
     7
  6
CONTINUOUS
 10
5.1539
 20
9.4337
  0
VERTEX
  8
LAYER1
 62
     7
  6
CONTINUOUS
 10
5.1551
 20
9.4354
  0
VERTEX
  8
LAYER1
 62
     7
  6
CONTINUOUS
 10
5.1563
 20
9.4371
  0
VERTEX
  8
LAYER1
 62
     7
  6
CONTINUOUS
 10
5.1575
 20
9.4388
  0
VERTEX
  8
LAYER1
 62
     7
  6
CONTINUOUS
 10
5.1587
 20
9.4405
  0
VERTEX
  8
LAYER1
 62
     7
  6
CONTINUOUS
 10
5.1600
 20
9.4422
  0
VERTEX
  8
LAYER1
 62
     7
  6
CONTINUOUS
 10
5.1612
 20
9.4438
  0
VERTEX
  8
LAYER1
 62
     7
  6
CONTINUOUS
 10
5.1633
 20
9.4464
  0
VERTEX
  8
LAYER1
 62
     7
  6
CONTINUOUS
 10
5.1654
 20
9.4490
  0
VERTEX
  8
LAYER1
 62
     7
  6
CONTINUOUS
 10
5.1675
 20
9.4515
  0
VERTEX
  8
LAYER1
 62
     7
  6
CONTINUOUS
 10
5.1698
 20
9.4539
  0
VERTEX
  8
LAYER1
 62
     7
  6
CONTINUOUS
 10
5.1721
 20
9.4563
  0
VERTEX
  8
LAYER1
 62
     7
  6
CONTINUOUS
 10
5.1745
 20
9.4585
  0
VERTEX
  8
LAYER1
 62
     7
  6
CONTINUOUS
 10
5.1770
 20
9.4607
  0
VERTEX
  8
LAYER1
 62
     7
  6
CONTINUOUS
 10
5.1796
 20
9.4627
  0
VERTEX
  8
LAYER1
 62
     7
  6
CONTINUOUS
 10
5.1823
 20
9.4645
  0
VERTEX
  8
LAYER1
 62
     7
  6
CONTINUOUS
 10
5.1850
 20
9.4662
  0
VERTEX
  8
LAYER1
 62
     7
  6
CONTINUOUS
 10
5.1879
 20
9.4677
  0
VERTEX
  8
LAYER1
 62
     7
  6
CONTINUOUS
 10
5.1908
 20
9.4690
  0
VERTEX
  8
LAYER1
 62
     7
  6
CONTINUOUS
 10
5.1920
 20
9.4695
  0
VERTEX
  8
LAYER1
 62
     7
  6
CONTINUOUS
 10
5.1933
 20
9.4700
  0
VERTEX
  8
LAYER1
 62
     7
  6
CONTINUOUS
 10
5.1945
 20
9.4704
  0
VERTEX
  8
LAYER1
 62
     7
  6
CONTINUOUS
 10
5.1958
 20
9.4708
  0
VERTEX
  8
LAYER1
 62
     7
  6
CONTINUOUS
 10
5.1970
 20
9.4712
  0
VERTEX
  8
LAYER1
 62
     7
  6
CONTINUOUS
 10
5.1983
 20
9.4716
  0
VERTEX
  8
LAYER1
 62
     7
  6
CONTINUOUS
 10
5.1995
 20
9.4720
  0
VERTEX
  8
LAYER1
 62
     7
  6
CONTINUOUS
 10
5.2008
 20
9.4724
  0
VERTEX
  8
LAYER1
 62
     7
  6
CONTINUOUS
 10
5.2020
 20
9.4728
  0
VERTEX
  8
LAYER1
 62
     7
  6
CONTINUOUS
 10
5.2033
 20
9.4733
  0
VERTEX
  8
LAYER1
 62
     7
  6
CONTINUOUS
 10
5.2045
 20
9.4737
  0
VERTEX
  8
LAYER1
 62
     7
  6
CONTINUOUS
 10
5.2057
 20
9.4742
  0
VERTEX
  8
LAYER1
 62
     7
  6
CONTINUOUS
 10
5.2084
 20
9.4754
  0
VERTEX
  8
LAYER1
 62
     7
  6
CONTINUOUS
 10
5.2110
 20
9.4768
  0
VERTEX
  8
LAYER1
 62
     7
  6
CONTINUOUS
 10
5.2135
 20
9.4784
  0
VERTEX
  8
LAYER1
 62
     7
  6
CONTINUOUS
 10
5.2159
 20
9.4800
  0
VERTEX
  8
LAYER1
 62
     7
  6
CONTINUOUS
 10
5.2184
 20
9.4818
  0
VERTEX
  8
LAYER1
 62
     7
  6
CONTINUOUS
 10
5.2208
 20
9.4836
  0
VERTEX
  8
LAYER1
 62
     7
  6
CONTINUOUS
 10
5.2231
 20
9.4854
  0
VERTEX
  8
LAYER1
 62
     7
  6
CONTINUOUS
 10
5.2255
 20
9.4873
  0
VERTEX
  8
LAYER1
 62
     7
  6
CONTINUOUS
 10
5.2279
 20
9.4892
  0
VERTEX
  8
LAYER1
 62
     7
  6
CONTINUOUS
 10
5.2303
 20
9.4910
  0
VERTEX
  8
LAYER1
 62
     7
  6
CONTINUOUS
 10
5.2328
 20
9.4927
  0
VERTEX
  8
LAYER1
 62
     7
  6
CONTINUOUS
 10
5.2354
 20
9.4944
  0
VERTEX
  8
LAYER1
 62
     7
  6
CONTINUOUS
 10
5.2366
 20
9.4952
  0
VERTEX
  8
LAYER1
 62
     7
  6
CONTINUOUS
 10
5.2380
 20
9.4960
  0
VERTEX
  8
LAYER1
 62
     7
  6
CONTINUOUS
 10
5.2393
 20
9.4968
  0
VERTEX
  8
LAYER1
 62
     7
  6
CONTINUOUS
 10
5.2406
 20
9.4976
  0
VERTEX
  8
LAYER1
 62
     7
  6
CONTINUOUS
 10
5.2419
 20
9.4983
  0
VERTEX
  8
LAYER1
 62
     7
  6
CONTINUOUS
 10
5.2432
 20
9.4991
  0
VERTEX
  8
LAYER1
 62
     7
  6
CONTINUOUS
 10
5.2444
 20
9.4999
  0
VERTEX
  8
LAYER1
 62
     7
  6
CONTINUOUS
 10
5.2457
 20
9.5008
  0
VERTEX
  8
LAYER1
 62
     7
  6
CONTINUOUS
 10
5.2469
 20
9.5017
  0
VERTEX
  8
LAYER1
 62
     7
  6
CONTINUOUS
 10
5.2480
 20
9.5026
  0
VERTEX
  8
LAYER1
 62
     7
  6
CONTINUOUS
 10
5.2491
 20
9.5035
  0
VERTEX
  8
LAYER1
 62
     7
  6
CONTINUOUS
 10
5.2502
 20
9.5046
  0
VERTEX
  8
LAYER1
 62
     7
  6
CONTINUOUS
 10
5.2508
 20
9.5052
  0
VERTEX
  8
LAYER1
 62
     7
  6
CONTINUOUS
 10
5.2514
 20
9.5060
  0
VERTEX
  8
LAYER1
 62
     7
  6
CONTINUOUS
 10
5.2520
 20
9.5067
  0
VERTEX
  8
LAYER1
 62
     7
  6
CONTINUOUS
 10
5.2526
 20
9.5074
  0
VERTEX
  8
LAYER1
 62
     7
  6
CONTINUOUS
 10
5.2531
 20
9.5082
  0
VERTEX
  8
LAYER1
 62
     7
  6
CONTINUOUS
 10
5.2537
 20
9.5090
  0
VERTEX
  8
LAYER1
 62
     7
  6
CONTINUOUS
 10
5.2542
 20
9.5098
  0
VERTEX
  8
LAYER1
 62
     7
  6
CONTINUOUS
 10
5.2547
 20
9.5106
  0
VERTEX
  8
LAYER1
 62
     7
  6
CONTINUOUS
 10
5.2552
 20
9.5114
  0
VERTEX
  8
LAYER1
 62
     7
  6
CONTINUOUS
 10
5.2557
 20
9.5123
  0
VERTEX
  8
LAYER1
 62
     7
  6
CONTINUOUS
 10
5.2562
 20
9.5131
  0
VERTEX
  8
LAYER1
 62
     7
  6
CONTINUOUS
 10
5.2567
 20
9.5139
  0
SEQEND
  8
LAYER1
  0
ARC
  8
LAYER1
 62
     7
  6
CONTINUOUS
 10
6.0344
 20
9.4933
 40
0.0250
 50
124.3644
 51
55.6426
  0
ARC
  8
LAYER1
 62
     7
  6
CONTINUOUS
 10
5.2425
 20
9.5269
 40
0.0190
 50
-136.9471
 51
-43.0529
  0
ARC
  8
LAYER1
 62
     7
  6
CONTINUOUS
 10
5.6730
 20
9.5316
 40
0.0224
 50
-127.9192
 51
-52.0808
  0
ARC
  8
LAYER1
 62
     7
  6
CONTINUOUS
 10
5.8105
 20
9.4833
 40
0.0347
 50
111.6828
 51
118.0811
  0
ARC
  8
LAYER1
 62
     7
  6
CONTINUOUS
 10
5.8105
 20
9.4833
 40
0.0347
 50
118.0812
 51
61.9202
  0
ARC
  8
LAYER1
 62
     7
  6
CONTINUOUS
 10
5.8349
 20
9.5284
 40
0.0190
 50
-130.1119
 51
-49.8859
  0
ARC
  8
LAYER1
 62
     7
  6
CONTINUOUS
 10
5.8996
 20
9.5267
 40
0.0201
 50
-140.5924
 51
-39.4068
  0
ARC
  8
LAYER1
 62
     7
  6
CONTINUOUS
 10
6.0690
 20
9.2846
 40
0.0070
 50
112.2373
 51
-134.2758
  0
ARC
  8
LAYER1
 62
     7
  6
CONTINUOUS
 10
5.0396
 20
9.1911
 40
0.0174
 50
-79.9259
 51
79.9243
  0
ARC
  8
LAYER1
 62
     7
  6
CONTINUOUS
 10
5.0513
 20
9.2584
 40
0.0213
 50
-68.8201
 51
113.9922
  0
ARC
  8
LAYER1
 62
     7
  6
CONTINUOUS
 10
5.0421
 20
8.7381
 40
0.0079
 50
-107.8470
 51
-85.9723
  0
ARC
  8
LAYER1
 62
     7
  6
CONTINUOUS
 10
5.0389
 20
8.7978
 40
0.0230
 50
78.1012
 51
80.7321
  0
POLYLINE
  8
LAYER1
 62
     7
 66
     1
  6
CONTINUOUS
  0
VERTEX
  8
LAYER1
 62
     7
  6
CONTINUOUS
 10
6.0310
 20
8.6718
  0
VERTEX
  8
LAYER1
 62
     7
  6
CONTINUOUS
 10
6.0297
 20
8.6722
  0
VERTEX
  8
LAYER1
 62
     7
  6
CONTINUOUS
 10
6.0285
 20
8.6725
  0
VERTEX
  8
LAYER1
 62
     7
  6
CONTINUOUS
 10
6.0273
 20
8.6729
  0
VERTEX
  8
LAYER1
 62
     7
  6
CONTINUOUS
 10
6.0260
 20
8.6733
  0
VERTEX
  8
LAYER1
 62
     7
  6
CONTINUOUS
 10
6.0248
 20
8.6736
  0
VERTEX
  8
LAYER1
 62
     7
  6
CONTINUOUS
 10
6.0235
 20
8.6740
  0
VERTEX
  8
LAYER1
 62
     7
  6
CONTINUOUS
 10
6.0223
 20
8.6744
  0
VERTEX
  8
LAYER1
 62
     7
  6
CONTINUOUS
 10
6.0210
 20
8.6748
  0
VERTEX
  8
LAYER1
 62
     7
  6
CONTINUOUS
 10
6.0198
 20
8.6753
  0
VERTEX
  8
LAYER1
 62
     7
  6
CONTINUOUS
 10
6.0185
 20
8.6757
  0
VERTEX
  8
LAYER1
 62
     7
  6
CONTINUOUS
 10
6.0173
 20
8.6762
  0
VERTEX
  8
LAYER1
 62
     7
  6
CONTINUOUS
 10
6.0160
 20
8.6766
  0
VERTEX
  8
LAYER1
 62
     7
  6
CONTINUOUS
 10
6.0146
 20
8.6772
  0
VERTEX
  8
LAYER1
 62
     7
  6
CONTINUOUS
 10
6.0131
 20
8.6778
  0
VERTEX
  8
LAYER1
 62
     7
  6
CONTINUOUS
 10
6.0117
 20
8.6785
  0
VERTEX
  8
LAYER1
 62
     7
  6
CONTINUOUS
 10
6.0103
 20
8.6792
  0
VERTEX
  8
LAYER1
 62
     7
  6
CONTINUOUS
 10
6.0090
 20
8.6799
  0
VERTEX
  8
LAYER1
 62
     7
  6
CONTINUOUS
 10
6.0076
 20
8.6807
  0
VERTEX
  8
LAYER1
 62
     7
  6
CONTINUOUS
 10
6.0063
 20
8.6815
  0
VERTEX
  8
LAYER1
 62
     7
  6
CONTINUOUS
 10
6.0051
 20
8.6824
  0
VERTEX
  8
LAYER1
 62
     7
  6
CONTINUOUS
 10
6.0040
 20
8.6833
  0
VERTEX
  8
LAYER1
 62
     7
  6
CONTINUOUS
 10
6.0029
 20
8.6843
  0
VERTEX
  8
LAYER1
 62
     7
  6
CONTINUOUS
 10
6.0019
 20
8.6853
  0
VERTEX
  8
LAYER1
 62
     7
  6
CONTINUOUS
 10
6.0010
 20
8.6864
  0
VERTEX
  8
LAYER1
 62
     7
  6
CONTINUOUS
 10
5.9998
 20
8.6881
  0
VERTEX
  8
LAYER1
 62
     7
  6
CONTINUOUS
 10
5.9989
 20
8.6899
  0
VERTEX
  8
LAYER1
 62
     7
  6
CONTINUOUS
 10
5.9981
 20
8.6918
  0
VERTEX
  8
LAYER1
 62
     7
  6
CONTINUOUS
 10
5.9974
 20
8.6938
  0
VERTEX
  8
LAYER1
 62
     7
  6
CONTINUOUS
 10
5.9969
 20
8.6958
  0
VERTEX
  8
LAYER1
 62
     7
  6
CONTINUOUS
 10
5.9965
 20
8.6979
  0
VERTEX
  8
LAYER1
 62
     7
  6
CONTINUOUS
 10
5.9963
 20
8.7001
  0
VERTEX
  8
LAYER1
 62
     7
  6
CONTINUOUS
 10
5.9960
 20
8.7023
  0
VERTEX
  8
LAYER1
 62
     7
  6
CONTINUOUS
 10
5.9959
 20
8.7046
  0
VERTEX
  8
LAYER1
 62
     7
  6
CONTINUOUS
 10
5.9958
 20
8.7068
  0
VERTEX
  8
LAYER1
 62
     7
  6
CONTINUOUS
 10
5.9957
 20
8.7090
  0
VERTEX
  8
LAYER1
 62
     7
  6
CONTINUOUS
 10
5.9957
 20
8.7113
  0
VERTEX
  8
LAYER1
 62
     7
  6
CONTINUOUS
 10
5.9957
 20
8.7134
  0
VERTEX
  8
LAYER1
 62
     7
  6
CONTINUOUS
 10
5.9956
 20
8.7155
  0
VERTEX
  8
LAYER1
 62
     7
  6
CONTINUOUS
 10
5.9956
 20
8.7176
  0
VERTEX
  8
LAYER1
 62
     7
  6
CONTINUOUS
 10
5.9956
 20
8.7197
  0
VERTEX
  8
LAYER1
 62
     7
  6
CONTINUOUS
 10
5.9955
 20
8.7218
  0
VERTEX
  8
LAYER1
 62
     7
  6
CONTINUOUS
 10
5.9955
 20
8.7238
  0
VERTEX
  8
LAYER1
 62
     7
  6
CONTINUOUS
 10
5.9955
 20
8.7259
  0
VERTEX
  8
LAYER1
 62
     7
  6
CONTINUOUS
 10
5.9955
 20
8.7279
  0
VERTEX
  8
LAYER1
 62
     7
  6
CONTINUOUS
 10
5.9955
 20
8.7300
  0
VERTEX
  8
LAYER1
 62
     7
  6
CONTINUOUS
 10
5.9954
 20
8.7320
  0
VERTEX
  8
LAYER1
 62
     7
  6
CONTINUOUS
 10
5.9954
 20
8.7341
  0
VERTEX
  8
LAYER1
 62
     7
  6
CONTINUOUS
 10
5.9954
 20
8.7361
  0
VERTEX
  8
LAYER1
 62
     7
  6
CONTINUOUS
 10
5.9954
 20
8.7387
  0
VERTEX
  8
LAYER1
 62
     7
  6
CONTINUOUS
 10
5.9955
 20
8.7412
  0
VERTEX
  8
LAYER1
 62
     7
  6
CONTINUOUS
 10
5.9955
 20
8.7438
  0
VERTEX
  8
LAYER1
 62
     7
  6
CONTINUOUS
 10
5.9956
 20
8.7463
  0
VERTEX
  8
LAYER1
 62
     7
  6
CONTINUOUS
 10
5.9958
 20
8.7488
  0
VERTEX
  8
LAYER1
 62
     7
  6
CONTINUOUS
 10
5.9961
 20
8.7514
  0
VERTEX
  8
LAYER1
 62
     7
  6
CONTINUOUS
 10
5.9964
 20
8.7539
  0
VERTEX
  8
LAYER1
 62
     7
  6
CONTINUOUS
 10
5.9969
 20
8.7564
  0
VERTEX
  8
LAYER1
 62
     7
  6
CONTINUOUS
 10
5.9974
 20
8.7589
  0
VERTEX
  8
LAYER1
 62
     7
  6
CONTINUOUS
 10
5.9982
 20
8.7613
  0
VERTEX
  8
LAYER1
 62
     7
  6
CONTINUOUS
 10
5.9990
 20
8.7637
  0
VERTEX
  8
LAYER1
 62
     7
  6
CONTINUOUS
 10
6.0001
 20
8.7661
  0
VERTEX
  8
LAYER1
 62
     7
  6
CONTINUOUS
 10
6.0009
 20
8.7677
  0
VERTEX
  8
LAYER1
 62
     7
  6
CONTINUOUS
 10
6.0018
 20
8.7693
  0
VERTEX
  8
LAYER1
 62
     7
  6
CONTINUOUS
 10
6.0028
 20
8.7708
  0
VERTEX
  8
LAYER1
 62
     7
  6
CONTINUOUS
 10
6.0039
 20
8.7723
  0
VERTEX
  8
LAYER1
 62
     7
  6
CONTINUOUS
 10
6.0051
 20
8.7737
  0
VERTEX
  8
LAYER1
 62
     7
  6
CONTINUOUS
 10
6.0063
 20
8.7751
  0
VERTEX
  8
LAYER1
 62
     7
  6
CONTINUOUS
 10
6.0076
 20
8.7763
  0
VERTEX
  8
LAYER1
 62
     7
  6
CONTINUOUS
 10
6.0089
 20
8.7775
  0
VERTEX
  8
LAYER1
 62
     7
  6
CONTINUOUS
 10
6.0103
 20
8.7786
  0
VERTEX
  8
LAYER1
 62
     7
  6
CONTINUOUS
 10
6.0118
 20
8.7796
  0
VERTEX
  8
LAYER1
 62
     7
  6
CONTINUOUS
 10
6.0133
 20
8.7804
  0
VERTEX
  8
LAYER1
 62
     7
  6
CONTINUOUS
 10
6.0148
 20
8.7812
  0
VERTEX
  8
LAYER1
 62
     7
  6
CONTINUOUS
 10
6.0167
 20
8.7819
  0
VERTEX
  8
LAYER1
 62
     7
  6
CONTINUOUS
 10
6.0187
 20
8.7824
  0
VERTEX
  8
LAYER1
 62
     7
  6
CONTINUOUS
 10
6.0207
 20
8.7827
  0
VERTEX
  8
LAYER1
 62
     7
  6
CONTINUOUS
 10
6.0227
 20
8.7830
  0
VERTEX
  8
LAYER1
 62
     7
  6
CONTINUOUS
 10
6.0248
 20
8.7830
  0
VERTEX
  8
LAYER1
 62
     7
  6
CONTINUOUS
 10
6.0269
 20
8.7830
  0
VERTEX
  8
LAYER1
 62
     7
  6
CONTINUOUS
 10
6.0290
 20
8.7829
  0
VERTEX
  8
LAYER1
 62
     7
  6
CONTINUOUS
 10
6.0312
 20
8.7827
  0
VERTEX
  8
LAYER1
 62
     7
  6
CONTINUOUS
 10
6.0333
 20
8.7825
  0
VERTEX
  8
LAYER1
 62
     7
  6
CONTINUOUS
 10
6.0355
 20
8.7821
  0
VERTEX
  8
LAYER1
 62
     7
  6
CONTINUOUS
 10
6.0376
 20
8.7818
  0
VERTEX
  8
LAYER1
 62
     7
  6
CONTINUOUS
 10
6.0397
 20
8.7814
  0
VERTEX
  8
LAYER1
 62
     7
  6
CONTINUOUS
 10
6.0420
 20
8.7811
  0
VERTEX
  8
LAYER1
 62
     7
  6
CONTINUOUS
 10
6.0443
 20
8.7807
  0
VERTEX
  8
LAYER1
 62
     7
  6
CONTINUOUS
 10
6.0466
 20
8.7803
  0
VERTEX
  8
LAYER1
 62
     7
  6
CONTINUOUS
 10
6.0488
 20
8.7799
  0
VERTEX
  8
LAYER1
 62
     7
  6
CONTINUOUS
 10
6.0510
 20
8.7795
  0
VERTEX
  8
LAYER1
 62
     7
  6
CONTINUOUS
 10
6.0533
 20
8.7791
  0
VERTEX
  8
LAYER1
 62
     7
  6
CONTINUOUS
 10
6.0555
 20
8.7787
  0
VERTEX
  8
LAYER1
 62
     7
  6
CONTINUOUS
 10
6.0577
 20
8.7783
  0
VERTEX
  8
LAYER1
 62
     7
  6
CONTINUOUS
 10
6.0598
 20
8.7779
  0
VERTEX
  8
LAYER1
 62
     7
  6
CONTINUOUS
 10
6.0620
 20
8.7775
  0
VERTEX
  8
LAYER1
 62
     7
  6
CONTINUOUS
 10
6.0642
 20
8.7771
  0
VERTEX
  8
LAYER1
 62
     7
  6
CONTINUOUS
 10
6.0664
 20
8.7767
  0
SEQEND
  8
LAYER1
  0
POLYLINE
  8
LAYER1
 62
     7
 66
     1
  6
CONTINUOUS
  0
VERTEX
  8
LAYER1
 62
     7
  6
CONTINUOUS
 10
6.0664
 20
8.6794
  0
VERTEX
  8
LAYER1
 62
     7
  6
CONTINUOUS
 10
6.0651
 20
8.6787
  0
VERTEX
  8
LAYER1
 62
     7
  6
CONTINUOUS
 10
6.0639
 20
8.6779
  0
VERTEX
  8
LAYER1
 62
     7
  6
CONTINUOUS
 10
6.0626
 20
8.6772
  0
VERTEX
  8
LAYER1
 62
     7
  6
CONTINUOUS
 10
6.0613
 20
8.6765
  0
VERTEX
  8
LAYER1
 62
     7
  6
CONTINUOUS
 10
6.0601
 20
8.6758
  0
VERTEX
  8
LAYER1
 62
     7
  6
CONTINUOUS
 10
6.0588
 20
8.6751
  0
VERTEX
  8
LAYER1
 62
     7
  6
CONTINUOUS
 10
6.0575
 20
8.6745
  0
VERTEX
  8
LAYER1
 62
     7
  6
CONTINUOUS
 10
6.0562
 20
8.6739
  0
VERTEX
  8
LAYER1
 62
     7
  6
CONTINUOUS
 10
6.0549
 20
8.6733
  0
VERTEX
  8
LAYER1
 62
     7
  6
CONTINUOUS
 10
6.0536
 20
8.6729
  0
VERTEX
  8
LAYER1
 62
     7
  6
CONTINUOUS
 10
6.0522
 20
8.6724
  0
VERTEX
  8
LAYER1
 62
     7
  6
CONTINUOUS
 10
6.0509
 20
8.6721
  0
VERTEX
  8
LAYER1
 62
     7
  6
CONTINUOUS
 10
6.0493
 20
8.6717
  0
VERTEX
  8
LAYER1
 62
     7
  6
CONTINUOUS
 10
6.0477
 20
8.6714
  0
VERTEX
  8
LAYER1
 62
     7
  6
CONTINUOUS
 10
6.0461
 20
8.6713
  0
VERTEX
  8
LAYER1
 62
     7
  6
CONTINUOUS
 10
6.0445
 20
8.6711
  0
VERTEX
  8
LAYER1
 62
     7
  6
CONTINUOUS
 10
6.0428
 20
8.6711
  0
VERTEX
  8
LAYER1
 62
     7
  6
CONTINUOUS
 10
6.0411
 20
8.6711
  0
VERTEX
  8
LAYER1
 62
     7
  6
CONTINUOUS
 10
6.0395
 20
8.6711
  0
VERTEX
  8
LAYER1
 62
     7
  6
CONTINUOUS
 10
6.0378
 20
8.6712
  0
VERTEX
  8
LAYER1
 62
     7
  6
CONTINUOUS
 10
6.0361
 20
8.6714
  0
VERTEX
  8
LAYER1
 62
     7
  6
CONTINUOUS
 10
6.0344
 20
8.6715
  0
VERTEX
  8
LAYER1
 62
     7
  6
CONTINUOUS
 10
6.0327
 20
8.6717
  0
VERTEX
  8
LAYER1
 62
     7
  6
CONTINUOUS
 10
6.0310
 20
8.6718
  0
SEQEND
  8
LAYER1
  0
POLYLINE
  8
LAYER1
 62
     7
 66
     1
  6
CONTINUOUS
  0
VERTEX
  8
LAYER1
 62
     7
  6
CONTINUOUS
 10
5.0377
 20
9.3227
  0
VERTEX
  8
LAYER1
 62
     7
  6
CONTINUOUS
 10
5.0382
 20
9.3232
  0
VERTEX
  8
LAYER1
 62
     7
  6
CONTINUOUS
 10
5.0387
 20
9.3238
  0
VERTEX
  8
LAYER1
 62
     7
  6
CONTINUOUS
 10
5.0393
 20
9.3243
  0
VERTEX
  8
LAYER1
 62
     7
  6
CONTINUOUS
 10
5.0398
 20
9.3248
  0
VERTEX
  8
LAYER1
 62
     7
  6
CONTINUOUS
 10
5.0402
 20
9.3252
  0
VERTEX
  8
LAYER1
 62
     7
  6
CONTINUOUS
 10
5.0407
 20
9.3257
  0
VERTEX
  8
LAYER1
 62
     7
  6
CONTINUOUS
 10
5.0411
 20
9.3261
  0
VERTEX
  8
LAYER1
 62
     7
  6
CONTINUOUS
 10
5.0415
 20
9.3265
  0
VERTEX
  8
LAYER1
 62
     7
  6
CONTINUOUS
 10
5.0419
 20
9.3268
  0
VERTEX
  8
LAYER1
 62
     7
  6
CONTINUOUS
 10
5.0422
 20
9.3271
  0
VERTEX
  8
LAYER1
 62
     7
  6
CONTINUOUS
 10
5.0424
 20
9.3274
  0
VERTEX
  8
LAYER1
 62
     7
  6
CONTINUOUS
 10
5.0426
 20
9.3276
  0
VERTEX
  8
LAYER1
 62
     7
  6
CONTINUOUS
 10
5.0427
 20
9.3277
  0
VERTEX
  8
LAYER1
 62
     7
  6
CONTINUOUS
 10
5.0428
 20
9.3277
  0
VERTEX
  8
LAYER1
 62
     7
  6
CONTINUOUS
 10
5.0428
 20
9.3278
  0
VERTEX
  8
LAYER1
 62
     7
  6
CONTINUOUS
 10
5.0428
 20
9.3278
  0
VERTEX
  8
LAYER1
 62
     7
  6
CONTINUOUS
 10
5.0429
 20
9.3278
  0
VERTEX
  8
LAYER1
 62
     7
  6
CONTINUOUS
 10
5.0428
 20
9.3278
  0
VERTEX
  8
LAYER1
 62
     7
  6
CONTINUOUS
 10
5.0428
 20
9.3278
  0
VERTEX
  8
LAYER1
 62
     7
  6
CONTINUOUS
 10
5.0428
 20
9.3278
  0
VERTEX
  8
LAYER1
 62
     7
  6
CONTINUOUS
 10
5.0428
 20
9.3277
  0
VERTEX
  8
LAYER1
 62
     7
  6
CONTINUOUS
 10
5.0427
 20
9.3277
  0
VERTEX
  8
LAYER1
 62
     7
  6
CONTINUOUS
 10
5.0427
 20
9.3276
  0
VERTEX
  8
LAYER1
 62
     7
  6
CONTINUOUS
 10
5.0426
 20
9.3276
  0
SEQEND
  8
LAYER1
  0
POLYLINE
  8
LAYER1
 62
     7
 66
     1
  6
CONTINUOUS
  0
VERTEX
  8
LAYER1
 62
     7
  6
CONTINUOUS
 10
5.2567
 20
9.5139
  0
VERTEX
  8
LAYER1
 62
     7
  6
CONTINUOUS
 10
5.2568
 20
9.5143
  0
VERTEX
  8
LAYER1
 62
     7
  6
CONTINUOUS
 10
5.2569
 20
9.5146
  0
VERTEX
  8
LAYER1
 62
     7
  6
CONTINUOUS
 10
5.2571
 20
9.5149
  0
VERTEX
  8
LAYER1
 62
     7
  6
CONTINUOUS
 10
5.2572
 20
9.5152
  0
VERTEX
  8
LAYER1
 62
     7
  6
CONTINUOUS
 10
5.2573
 20
9.5155
  0
VERTEX
  8
LAYER1
 62
     7
  6
CONTINUOUS
 10
5.2573
 20
9.5158
  0
VERTEX
  8
LAYER1
 62
     7
  6
CONTINUOUS
 10
5.2574
 20
9.5161
  0
VERTEX
  8
LAYER1
 62
     7
  6
CONTINUOUS
 10
5.2575
 20
9.5164
  0
VERTEX
  8
LAYER1
 62
     7
  6
CONTINUOUS
 10
5.2576
 20
9.5166
  0
VERTEX
  8
LAYER1
 62
     7
  6
CONTINUOUS
 10
5.2577
 20
9.5168
  0
VERTEX
  8
LAYER1
 62
     7
  6
CONTINUOUS
 10
5.2577
 20
9.5170
  0
VERTEX
  8
LAYER1
 62
     7
  6
CONTINUOUS
 10
5.2578
 20
9.5172
  0
VERTEX
  8
LAYER1
 62
     7
  6
CONTINUOUS
 10
5.2578
 20
9.5174
  0
VERTEX
  8
LAYER1
 62
     7
  6
CONTINUOUS
 10
5.2579
 20
9.5175
  0
VERTEX
  8
LAYER1
 62
     7
  6
CONTINUOUS
 10
5.2579
 20
9.5176
  0
VERTEX
  8
LAYER1
 62
     7
  6
CONTINUOUS
 10
5.2579
 20
9.5176
  0
VERTEX
  8
LAYER1
 62
     7
  6
CONTINUOUS
 10
5.2579
 20
9.5177
  0
VERTEX
  8
LAYER1
 62
     7
  6
CONTINUOUS
 10
5.2579
 20
9.5176
  0
VERTEX
  8
LAYER1
 62
     7
  6
CONTINUOUS
 10
5.2579
 20
9.5176
  0
VERTEX
  8
LAYER1
 62
     7
  6
CONTINUOUS
 10
5.2579
 20
9.5176
  0
VERTEX
  8
LAYER1
 62
     7
  6
CONTINUOUS
 10
5.2579
 20
9.5175
  0
VERTEX
  8
LAYER1
 62
     7
  6
CONTINUOUS
 10
5.2578
 20
9.5174
  0
VERTEX
  8
LAYER1
 62
     7
  6
CONTINUOUS
 10
5.2578
 20
9.5173
  0
VERTEX
  8
LAYER1
 62
     7
  6
CONTINUOUS
 10
5.2578
 20
9.5172
  0
SEQEND
  8
LAYER1
  0
ARC
  8
LAYER1
 62
     7
  6
CONTINUOUS
 10
5.0421
 20
8.7381
 40
0.0079
 50
85.9704
 51
123.8955
  0
ARC
  8
LAYER1
 62
     7
  6
CONTINUOUS
 10
5.0421
 20
8.7381
 40
0.0079
 50
-123.8818
 51
-107.8449
  0
ARC
  8
LAYER1
 62
     7
  6
CONTINUOUS
 10
6.0344
 20
9.4933
 40
0.0250
 50
96.3544
 51
107.0007
  0
ARC
  8
LAYER1
 62
     7
  6
CONTINUOUS
 10
6.0344
 20
9.4933
 40
0.0250
 50
107.0006
 51
124.3642
  0
ARC
  8
LAYER1
 62
     7
  6
CONTINUOUS
 10
6.0344
 20
9.4933
 40
0.0250
 50
55.6428
 51
72.9984
  0
ARC
  8
LAYER1
 62
     7
  6
CONTINUOUS
 10
6.0344
 20
9.4933
 40
0.0250
 50
72.9984
 51
96.3552
  0
ARC
  8
LAYER1
 62
     7
  6
CONTINUOUS
 10
5.2425
 20
9.5269
 40
0.0190
 50
-149.3301
 51
-136.9470
  0
ARC
  8
LAYER1
 62
     7
  6
CONTINUOUS
 10
5.2425
 20
9.5269
 40
0.0190
 50
-43.0529
 51
-30.6696
  0
ARC
  8
LAYER1
 62
     7
  6
CONTINUOUS
 10
5.6730
 20
9.5316
 40
0.0224
 50
-139.9858
 51
-127.9192
  0
ARC
  8
LAYER1
 62
     7
  6
CONTINUOUS
 10
5.6730
 20
9.5316
 40
0.0224
 50
-52.0808
 51
-40.0135
  0
ARC
  8
LAYER1
 62
     7
  6
CONTINUOUS
 10
5.8105
 20
9.4833
 40
0.0347
 50
61.9202
 51
77.6064
  0
ARC
  8
LAYER1
 62
     7
  6
CONTINUOUS
 10
5.8105
 20
9.4833
 40
0.0347
 50
77.6057
 51
102.3958
  0
ARC
  8
LAYER1
 62
     7
  6
CONTINUOUS
 10
5.8105
 20
9.4833
 40
0.0347
 50
102.3958
 51
111.6839
  0
ARC
  8
LAYER1
 62
     7
  6
CONTINUOUS
 10
5.8349
 20
9.5284
 40
0.0190
 50
-143.6825
 51
-130.1119
  0
ARC
  8
LAYER1
 62
     7
  6
CONTINUOUS
 10
5.8349
 20
9.5284
 40
0.0190
 50
-49.8859
 51
-36.3158
  0
ARC
  8
LAYER1
 62
     7
  6
CONTINUOUS
 10
5.8996
 20
9.5267
 40
0.0201
 50
-151.8554
 51
-140.5920
  0
ARC
  8
LAYER1
 62
     7
  6
CONTINUOUS
 10
5.8996
 20
9.5267
 40
0.0201
 50
-39.4059
 51
-28.1465
  0
ARC
  8
LAYER1
 62
     7
  6
CONTINUOUS
 10
6.0690
 20
9.2846
 40
0.0070
 50
-134.2733
 51
-112.2314
  0
ARC
  8
LAYER1
 62
     7
  6
CONTINUOUS
 10
5.0396
 20
9.1911
 40
0.0174
 50
90.6485
 51
96.2032
  0
ARC
  8
LAYER1
 62
     7
  6
CONTINUOUS
 10
5.0396
 20
9.1911
 40
0.0174
 50
-96.2018
 51
-79.9253
  0
ARC
  8
LAYER1
 62
     7
  6
CONTINUOUS
 10
5.0513
 20
9.2584
 40
0.0213
 50
-113.9912
 51
129.6855
  0
ARC
  8
LAYER1
 62
     7
  6
CONTINUOUS
 10
5.0513
 20
9.2584
 40
0.0213
 50
-129.6865
 51
-113.9912
  0
ARC
  8
LAYER1
 62
     7
  6
CONTINUOUS
 10
5.0421
 20
8.7381
 40
0.0079
 50
85.9704
 51
123.8955
  0
ARC
  8
LAYER1
 62
     7
  6
CONTINUOUS
 10
5.0421
 20
8.7381
 40
0.0079
 50
-123.8818
 51
85.9733
  0
ARC
  8
LAYER1
 62
     7
  6
CONTINUOUS
 10
5.0389
 20
8.7978
 40
0.0230
 50
80.7321
 51
93.0920
  0
ARC
  8
LAYER1
 62
     7
  6
CONTINUOUS
 10
5.0389
 20
8.7978
 40
0.0230
 50
-93.0918
 51
-80.7329
  0
POLYLINE
  8
LAYER10
 62
     1
 66
     1
  6
CONTINUOUS
  0
VERTEX
  8
LAYER10
 62
     1
  6
CONTINUOUS
 10
5.3293
 20
8.6492
  0
VERTEX
  8
LAYER10
 62
     1
  6
CONTINUOUS
 10
5.3321
 20
8.6489
  0
VERTEX
  8
LAYER10
 62
     1
  6
CONTINUOUS
 10
5.3349
 20
8.6485
  0
VERTEX
  8
LAYER10
 62
     1
  6
CONTINUOUS
 10
5.3376
 20
8.6479
  0
VERTEX
  8
LAYER10
 62
     1
  6
CONTINUOUS
 10
5.3404
 20
8.6471
  0
VERTEX
  8
LAYER10
 62
     1
  6
CONTINUOUS
 10
5.3431
 20
8.6461
  0
VERTEX
  8
LAYER10
 62
     1
  6
CONTINUOUS
 10
5.3457
 20
8.6450
  0
VERTEX
  8
LAYER10
 62
     1
  6
CONTINUOUS
 10
5.3482
 20
8.6436
  0
VERTEX
  8
LAYER10
 62
     1
  6
CONTINUOUS
 10
5.3507
 20
8.6421
  0
VERTEX
  8
LAYER10
 62
     1
  6
CONTINUOUS
 10
5.3530
 20
8.6404
  0
VERTEX
  8
LAYER10
 62
     1
  6
CONTINUOUS
 10
5.3553
 20
8.6386
  0
VERTEX
  8
LAYER10
 62
     1
  6
CONTINUOUS
 10
5.3574
 20
8.6367
  0
VERTEX
  8
LAYER10
 62
     1
  6
CONTINUOUS
 10
5.3593
 20
8.6345
  0
VERTEX
  8
LAYER10
 62
     1
  6
CONTINUOUS
 10
5.3610
 20
8.6324
  0
VERTEX
  8
LAYER10
 62
     1
  6
CONTINUOUS
 10
5.3626
 20
8.6302
  0
VERTEX
  8
LAYER10
 62
     1
  6
CONTINUOUS
 10
5.3640
 20
8.6279
  0
VERTEX
  8
LAYER10
 62
     1
  6
CONTINUOUS
 10
5.3652
 20
8.6255
  0
VERTEX
  8
LAYER10
 62
     1
  6
CONTINUOUS
 10
5.3663
 20
8.6230
  0
VERTEX
  8
LAYER10
 62
     1
  6
CONTINUOUS
 10
5.3672
 20
8.6205
  0
VERTEX
  8
LAYER10
 62
     1
  6
CONTINUOUS
 10
5.3680
 20
8.6179
  0
VERTEX
  8
LAYER10
 62
     1
  6
CONTINUOUS
 10
5.3687
 20
8.6153
  0
VERTEX
  8
LAYER10
 62
     1
  6
CONTINUOUS
 10
5.3691
 20
8.6127
  0
VERTEX
  8
LAYER10
 62
     1
  6
CONTINUOUS
 10
5.3695
 20
8.6101
  0
VERTEX
  8
LAYER10
 62
     1
  6
CONTINUOUS
 10
5.3696
 20
8.6074
  0
VERTEX
  8
LAYER10
 62
     1
  6
CONTINUOUS
 10
5.3696
 20
8.6048
  0
VERTEX
  8
LAYER10
 62
     1
  6
CONTINUOUS
 10
5.3695
 20
8.6027
  0
VERTEX
  8
LAYER10
 62
     1
  6
CONTINUOUS
 10
5.3693
 20
8.6006
  0
VERTEX
  8
LAYER10
 62
     1
  6
CONTINUOUS
 10
5.3690
 20
8.5985
  0
VERTEX
  8
LAYER10
 62
     1
  6
CONTINUOUS
 10
5.3686
 20
8.5964
  0
VERTEX
  8
LAYER10
 62
     1
  6
CONTINUOUS
 10
5.3682
 20
8.5944
  0
VERTEX
  8
LAYER10
 62
     1
  6
CONTINUOUS
 10
5.3678
 20
8.5923
  0
VERTEX
  8
LAYER10
 62
     1
  6
CONTINUOUS
 10
5.3673
 20
8.5902
  0
VERTEX
  8
LAYER10
 62
     1
  6
CONTINUOUS
 10
5.3668
 20
8.5882
  0
VERTEX
  8
LAYER10
 62
     1
  6
CONTINUOUS
 10
5.3663
 20
8.5861
  0
VERTEX
  8
LAYER10
 62
     1
  6
CONTINUOUS
 10
5.3658
 20
8.5840
  0
VERTEX
  8
LAYER10
 62
     1
  6
CONTINUOUS
 10
5.3653
 20
8.5819
  0
VERTEX
  8
LAYER10
 62
     1
  6
CONTINUOUS
 10
5.3649
 20
8.5798
  0
VERTEX
  8
LAYER10
 62
     1
  6
CONTINUOUS
 10
5.3646
 20
8.5781
  0
VERTEX
  8
LAYER10
 62
     1
  6
CONTINUOUS
 10
5.3643
 20
8.5764
  0
VERTEX
  8
LAYER10
 62
     1
  6
CONTINUOUS
 10
5.3640
 20
8.5747
  0
VERTEX
  8
LAYER10
 62
     1
  6
CONTINUOUS
 10
5.3637
 20
8.5730
  0
VERTEX
  8
LAYER10
 62
     1
  6
CONTINUOUS
 10
5.3634
 20
8.5713
  0
VERTEX
  8
LAYER10
 62
     1
  6
CONTINUOUS
 10
5.3631
 20
8.5696
  0
VERTEX
  8
LAYER10
 62
     1
  6
CONTINUOUS
 10
5.3628
 20
8.5679
  0
VERTEX
  8
LAYER10
 62
     1
  6
CONTINUOUS
 10
5.3624
 20
8.5663
  0
VERTEX
  8
LAYER10
 62
     1
  6
CONTINUOUS
 10
5.3619
 20
8.5646
  0
VERTEX
  8
LAYER10
 62
     1
  6
CONTINUOUS
 10
5.3614
 20
8.5630
  0
VERTEX
  8
LAYER10
 62
     1
  6
CONTINUOUS
 10
5.3608
 20
8.5614
  0
VERTEX
  8
LAYER10
 62
     1
  6
CONTINUOUS
 10
5.3601
 20
8.5599
  0
VERTEX
  8
LAYER10
 62
     1
  6
CONTINUOUS
 10
5.3593
 20
8.5583
  0
VERTEX
  8
LAYER10
 62
     1
  6
CONTINUOUS
 10
5.3584
 20
8.5568
  0
VERTEX
  8
LAYER10
 62
     1
  6
CONTINUOUS
 10
5.3575
 20
8.5554
  0
VERTEX
  8
LAYER10
 62
     1
  6
CONTINUOUS
 10
5.3564
 20
8.5540
  0
VERTEX
  8
LAYER10
 62
     1
  6
CONTINUOUS
 10
5.3552
 20
8.5526
  0
VERTEX
  8
LAYER10
 62
     1
  6
CONTINUOUS
 10
5.3540
 20
8.5513
  0
VERTEX
  8
LAYER10
 62
     1
  6
CONTINUOUS
 10
5.3527
 20
8.5501
  0
VERTEX
  8
LAYER10
 62
     1
  6
CONTINUOUS
 10
5.3513
 20
8.5489
  0
VERTEX
  8
LAYER10
 62
     1
  6
CONTINUOUS
 10
5.3499
 20
8.5478
  0
VERTEX
  8
LAYER10
 62
     1
  6
CONTINUOUS
 10
5.3484
 20
8.5467
  0
VERTEX
  8
LAYER10
 62
     1
  6
CONTINUOUS
 10
5.3469
 20
8.5457
  0
VERTEX
  8
LAYER10
 62
     1
  6
CONTINUOUS
 10
5.3454
 20
8.5448
  0
VERTEX
  8
LAYER10
 62
     1
  6
CONTINUOUS
 10
5.3431
 20
8.5436
  0
VERTEX
  8
LAYER10
 62
     1
  6
CONTINUOUS
 10
5.3408
 20
8.5425
  0
VERTEX
  8
LAYER10
 62
     1
  6
CONTINUOUS
 10
5.3384
 20
8.5416
  0
VERTEX
  8
LAYER10
 62
     1
  6
CONTINUOUS
 10
5.3359
 20
8.5409
  0
VERTEX
  8
LAYER10
 62
     1
  6
CONTINUOUS
 10
5.3335
 20
8.5402
  0
VERTEX
  8
LAYER10
 62
     1
  6
CONTINUOUS
 10
5.3310
 20
8.5398
  0
VERTEX
  8
LAYER10
 62
     1
  6
CONTINUOUS
 10
5.3284
 20
8.5394
  0
VERTEX
  8
LAYER10
 62
     1
  6
CONTINUOUS
 10
5.3259
 20
8.5392
  0
VERTEX
  8
LAYER10
 62
     1
  6
CONTINUOUS
 10
5.3233
 20
8.5391
  0
VERTEX
  8
LAYER10
 62
     1
  6
CONTINUOUS
 10
5.3207
 20
8.5391
  0
VERTEX
  8
LAYER10
 62
     1
  6
CONTINUOUS
 10
5.3181
 20
8.5392
  0
VERTEX
  8
LAYER10
 62
     1
  6
CONTINUOUS
 10
5.3156
 20
8.5395
  0
VERTEX
  8
LAYER10
 62
     1
  6
CONTINUOUS
 10
5.3142
 20
8.5396
  0
VERTEX
  8
LAYER10
 62
     1
  6
CONTINUOUS
 10
5.3129
 20
8.5399
  0
VERTEX
  8
LAYER10
 62
     1
  6
CONTINUOUS
 10
5.3116
 20
8.5401
  0
VERTEX
  8
LAYER10
 62
     1
  6
CONTINUOUS
 10
5.3103
 20
8.5404
  0
VERTEX
  8
LAYER10
 62
     1
  6
CONTINUOUS
 10
5.3090
 20
8.5407
  0
VERTEX
  8
LAYER10
 62
     1
  6
CONTINUOUS
 10
5.3077
 20
8.5411
  0
VERTEX
  8
LAYER10
 62
     1
  6
CONTINUOUS
 10
5.3065
 20
8.5415
  0
VERTEX
  8
LAYER10
 62
     1
  6
CONTINUOUS
 10
5.3052
 20
8.5420
  0
VERTEX
  8
LAYER10
 62
     1
  6
CONTINUOUS
 10
5.3040
 20
8.5425
  0
VERTEX
  8
LAYER10
 62
     1
  6
CONTINUOUS
 10
5.3028
 20
8.5430
  0
VERTEX
  8
LAYER10
 62
     1
  6
CONTINUOUS
 10
5.3017
 20
8.5436
  0
VERTEX
  8
LAYER10
 62
     1
  6
CONTINUOUS
 10
5.3006
 20
8.5443
  0
VERTEX
  8
LAYER10
 62
     1
  6
CONTINUOUS
 10
5.2996
 20
8.5449
  0
VERTEX
  8
LAYER10
 62
     1
  6
CONTINUOUS
 10
5.2987
 20
8.5456
  0
VERTEX
  8
LAYER10
 62
     1
  6
CONTINUOUS
 10
5.2978
 20
8.5463
  0
VERTEX
  8
LAYER10
 62
     1
  6
CONTINUOUS
 10
5.2969
 20
8.5471
  0
VERTEX
  8
LAYER10
 62
     1
  6
CONTINUOUS
 10
5.2960
 20
8.5479
  0
VERTEX
  8
LAYER10
 62
     1
  6
CONTINUOUS
 10
5.2952
 20
8.5487
  0
VERTEX
  8
LAYER10
 62
     1
  6
CONTINUOUS
 10
5.2943
 20
8.5496
  0
VERTEX
  8
LAYER10
 62
     1
  6
CONTINUOUS
 10
5.2935
 20
8.5505
  0
VERTEX
  8
LAYER10
 62
     1
  6
CONTINUOUS
 10
5.2928
 20
8.5513
  0
VERTEX
  8
LAYER10
 62
     1
  6
CONTINUOUS
 10
5.2920
 20
8.5523
  0
VERTEX
  8
LAYER10
 62
     1
  6
CONTINUOUS
 10
5.2912
 20
8.5532
  0
VERTEX
  8
LAYER10
 62
     1
  6
CONTINUOUS
 10
5.2905
 20
8.5541
  0
VERTEX
  8
LAYER10
 62
     1
  6
CONTINUOUS
 10
5.2890
 20
8.5561
  0
VERTEX
  8
LAYER10
 62
     1
  6
CONTINUOUS
 10
5.2876
 20
8.5581
  0
VERTEX
  8
LAYER10
 62
     1
  6
CONTINUOUS
 10
5.2863
 20
8.5601
  0
VERTEX
  8
LAYER10
 62
     1
  6
CONTINUOUS
 10
5.2849
 20
8.5622
  0
VERTEX
  8
LAYER10
 62
     1
  6
CONTINUOUS
 10
5.2837
 20
8.5642
  0
VERTEX
  8
LAYER10
 62
     1
  6
CONTINUOUS
 10
5.2824
 20
8.5663
  0
VERTEX
  8
LAYER10
 62
     1
  6
CONTINUOUS
 10
5.2812
 20
8.5684
  0
VERTEX
  8
LAYER10
 62
     1
  6
CONTINUOUS
 10
5.2800
 20
8.5705
  0
VERTEX
  8
LAYER10
 62
     1
  6
CONTINUOUS
 10
5.2788
 20
8.5726
  0
VERTEX
  8
LAYER10
 62
     1
  6
CONTINUOUS
 10
5.2776
 20
8.5747
  0
VERTEX
  8
LAYER10
 62
     1
  6
CONTINUOUS
 10
5.2765
 20
8.5768
  0
VERTEX
  8
LAYER10
 62
     1
  6
CONTINUOUS
 10
5.2753
 20
8.5789
  0
VERTEX
  8
LAYER10
 62
     1
  6
CONTINUOUS
 10
5.2749
 20
8.5797
  0
VERTEX
  8
LAYER10
 62
     1
  6
CONTINUOUS
 10
5.2744
 20
8.5805
  0
VERTEX
  8
LAYER10
 62
     1
  6
CONTINUOUS
 10
5.2740
 20
8.5812
  0
VERTEX
  8
LAYER10
 62
     1
  6
CONTINUOUS
 10
5.2735
 20
8.5820
  0
VERTEX
  8
LAYER10
 62
     1
  6
CONTINUOUS
 10
5.2731
 20
8.5828
  0
VERTEX
  8
LAYER10
 62
     1
  6
CONTINUOUS
 10
5.2727
 20
8.5837
  0
VERTEX
  8
LAYER10
 62
     1
  6
CONTINUOUS
 10
5.2722
 20
8.5845
  0
VERTEX
  8
LAYER10
 62
     1
  6
CONTINUOUS
 10
5.2718
 20
8.5853
  0
VERTEX
  8
LAYER10
 62
     1
  6
CONTINUOUS
 10
5.2714
 20
8.5861
  0
VERTEX
  8
LAYER10
 62
     1
  6
CONTINUOUS
 10
5.2710
 20
8.5870
  0
VERTEX
  8
LAYER10
 62
     1
  6
CONTINUOUS
 10
5.2706
 20
8.5879
  0
VERTEX
  8
LAYER10
 62
     1
  6
CONTINUOUS
 10
5.2702
 20
8.5888
  0
VERTEX
  8
LAYER10
 62
     1
  6
CONTINUOUS
 10
5.2692
 20
8.5913
  0
VERTEX
  8
LAYER10
 62
     1
  6
CONTINUOUS
 10
5.2684
 20
8.5939
  0
VERTEX
  8
LAYER10
 62
     1
  6
CONTINUOUS
 10
5.2676
 20
8.5966
  0
VERTEX
  8
LAYER10
 62
     1
  6
CONTINUOUS
 10
5.2670
 20
8.5993
  0
VERTEX
  8
LAYER10
 62
     1
  6
CONTINUOUS
 10
5.2665
 20
8.6021
  0
VERTEX
  8
LAYER10
 62
     1
  6
CONTINUOUS
 10
5.2663
 20
8.6048
  0
VERTEX
  8
LAYER10
 62
     1
  6
CONTINUOUS
 10
5.2662
 20
8.6075
  0
VERTEX
  8
LAYER10
 62
     1
  6
CONTINUOUS
 10
5.2664
 20
8.6100
  0
VERTEX
  8
LAYER10
 62
     1
  6
CONTINUOUS
 10
5.2668
 20
8.6125
  0
VERTEX
  8
LAYER10
 62
     1
  6
CONTINUOUS
 10
5.2675
 20
8.6147
  0
VERTEX
  8
LAYER10
 62
     1
  6
CONTINUOUS
 10
5.2685
 20
8.6168
  0
VERTEX
  8
LAYER10
 62
     1
  6
CONTINUOUS
 10
5.2699
 20
8.6186
  0
VERTEX
  8
LAYER10
 62
     1
  6
CONTINUOUS
 10
5.2709
 20
8.6196
  0
VERTEX
  8
LAYER10
 62
     1
  6
CONTINUOUS
 10
5.2719
 20
8.6205
  0
VERTEX
  8
LAYER10
 62
     1
  6
CONTINUOUS
 10
5.2731
 20
8.6213
  0
VERTEX
  8
LAYER10
 62
     1
  6
CONTINUOUS
 10
5.2743
 20
8.6221
  0
VERTEX
  8
LAYER10
 62
     1
  6
CONTINUOUS
 10
5.2756
 20
8.6228
  0
VERTEX
  8
LAYER10
 62
     1
  6
CONTINUOUS
 10
5.2770
 20
8.6236
  0
VERTEX
  8
LAYER10
 62
     1
  6
CONTINUOUS
 10
5.2783
 20
8.6243
  0
VERTEX
  8
LAYER10
 62
     1
  6
CONTINUOUS
 10
5.2797
 20
8.6251
  0
VERTEX
  8
LAYER10
 62
     1
  6
CONTINUOUS
 10
5.2810
 20
8.6259
  0
VERTEX
  8
LAYER10
 62
     1
  6
CONTINUOUS
 10
5.2823
 20
8.6268
  0
VERTEX
  8
LAYER10
 62
     1
  6
CONTINUOUS
 10
5.2835
 20
8.6277
  0
VERTEX
  8
LAYER10
 62
     1
  6
CONTINUOUS
 10
5.2847
 20
8.6287
  0
VERTEX
  8
LAYER10
 62
     1
  6
CONTINUOUS
 10
5.2856
 20
8.6296
  0
VERTEX
  8
LAYER10
 62
     1
  6
CONTINUOUS
 10
5.2864
 20
8.6306
  0
VERTEX
  8
LAYER10
 62
     1
  6
CONTINUOUS
 10
5.2872
 20
8.6316
  0
VERTEX
  8
LAYER10
 62
     1
  6
CONTINUOUS
 10
5.2880
 20
8.6326
  0
VERTEX
  8
LAYER10
 62
     1
  6
CONTINUOUS
 10
5.2887
 20
8.6335
  0
VERTEX
  8
LAYER10
 62
     1
  6
CONTINUOUS
 10
5.2895
 20
8.6345
  0
VERTEX
  8
LAYER10
 62
     1
  6
CONTINUOUS
 10
5.2903
 20
8.6354
  0
VERTEX
  8
LAYER10
 62
     1
  6
CONTINUOUS
 10
5.2910
 20
8.6363
  0
VERTEX
  8
LAYER10
 62
     1
  6
CONTINUOUS
 10
5.2918
 20
8.6371
  0
VERTEX
  8
LAYER10
 62
     1
  6
CONTINUOUS
 10
5.2927
 20
8.6378
  0
VERTEX
  8
LAYER10
 62
     1
  6
CONTINUOUS
 10
5.2936
 20
8.6384
  0
VERTEX
  8
LAYER10
 62
     1
  6
CONTINUOUS
 10
5.2946
 20
8.6388
  0
VERTEX
  8
LAYER10
 62
     1
  6
CONTINUOUS
 10
5.2960
 20
8.6392
  0
VERTEX
  8
LAYER10
 62
     1
  6
CONTINUOUS
 10
5.2976
 20
8.6393
  0
VERTEX
  8
LAYER10
 62
     1
  6
CONTINUOUS
 10
5.2993
 20
8.6393
  0
VERTEX
  8
LAYER10
 62
     1
  6
CONTINUOUS
 10
5.3010
 20
8.6391
  0
VERTEX
  8
LAYER10
 62
     1
  6
CONTINUOUS
 10
5.3028
 20
8.6388
  0
VERTEX
  8
LAYER10
 62
     1
  6
CONTINUOUS
 10
5.3046
 20
8.6385
  0
VERTEX
  8
LAYER10
 62
     1
  6
CONTINUOUS
 10
5.3064
 20
8.6382
  0
VERTEX
  8
LAYER10
 62
     1
  6
CONTINUOUS
 10
5.3082
 20
8.6380
  0
VERTEX
  8
LAYER10
 62
     1
  6
CONTINUOUS
 10
5.3099
 20
8.6379
  0
VERTEX
  8
LAYER10
 62
     1
  6
CONTINUOUS
 10
5.3116
 20
8.6380
  0
VERTEX
  8
LAYER10
 62
     1
  6
CONTINUOUS
 10
5.3131
 20
8.6384
  0
VERTEX
  8
LAYER10
 62
     1
  6
CONTINUOUS
 10
5.3145
 20
8.6390
  0
VERTEX
  8
LAYER10
 62
     1
  6
CONTINUOUS
 10
5.3154
 20
8.6397
  0
VERTEX
  8
LAYER10
 62
     1
  6
CONTINUOUS
 10
5.3162
 20
8.6405
  0
VERTEX
  8
LAYER10
 62
     1
  6
CONTINUOUS
 10
5.3170
 20
8.6414
  0
VERTEX
  8
LAYER10
 62
     1
  6
CONTINUOUS
 10
5.3178
 20
8.6423
  0
VERTEX
  8
LAYER10
 62
     1
  6
CONTINUOUS
 10
5.3185
 20
8.6434
  0
VERTEX
  8
LAYER10
 62
     1
  6
CONTINUOUS
 10
5.3192
 20
8.6444
  0
VERTEX
  8
LAYER10
 62
     1
  6
CONTINUOUS
 10
5.3200
 20
8.6454
  0
VERTEX
  8
LAYER10
 62
     1
  6
CONTINUOUS
 10
5.3207
 20
8.6464
  0
VERTEX
  8
LAYER10
 62
     1
  6
CONTINUOUS
 10
5.3215
 20
8.6473
  0
VERTEX
  8
LAYER10
 62
     1
  6
CONTINUOUS
 10
5.3224
 20
8.6480
  0
VERTEX
  8
LAYER10
 62
     1
  6
CONTINUOUS
 10
5.3233
 20
8.6487
  0
VERTEX
  8
LAYER10
 62
     1
  6
CONTINUOUS
 10
5.3243
 20
8.6491
  0
VERTEX
  8
LAYER10
 62
     1
  6
CONTINUOUS
 10
5.3247
 20
8.6492
  0
VERTEX
  8
LAYER10
 62
     1
  6
CONTINUOUS
 10
5.3251
 20
8.6493
  0
VERTEX
  8
LAYER10
 62
     1
  6
CONTINUOUS
 10
5.3255
 20
8.6493
  0
VERTEX
  8
LAYER10
 62
     1
  6
CONTINUOUS
 10
5.3259
 20
8.6494
  0
VERTEX
  8
LAYER10
 62
     1
  6
CONTINUOUS
 10
5.3263
 20
8.6494
  0
VERTEX
  8
LAYER10
 62
     1
  6
CONTINUOUS
 10
5.3267
 20
8.6494
  0
VERTEX
  8
LAYER10
 62
     1
  6
CONTINUOUS
 10
5.3271
 20
8.6494
  0
VERTEX
  8
LAYER10
 62
     1
  6
CONTINUOUS
 10
5.3276
 20
8.6494
  0
VERTEX
  8
LAYER10
 62
     1
  6
CONTINUOUS
 10
5.3280
 20
8.6493
  0
VERTEX
  8
LAYER10
 62
     1
  6
CONTINUOUS
 10
5.3284
 20
8.6493
  0
VERTEX
  8
LAYER10
 62
     1
  6
CONTINUOUS
 10
5.3289
 20
8.6492
  0
VERTEX
  8
LAYER10
 62
     1
  6
CONTINUOUS
 10
5.3293
 20
8.6492
  0
SEQEND
  8
LAYER10
  0
POLYLINE
  8
LAYER12
 62
     5
 66
     1
  6
CONTINUOUS
  0
VERTEX
  8
LAYER12
 62
     5
  6
CONTINUOUS
 10
5.0426
 20
9.5131
  0
VERTEX
  8
LAYER12
 62
     5
  6
CONTINUOUS
 10
5.0426
 20
9.5139
  0
SEQEND
  8
LAYER12
  0
POLYLINE
  8
LAYER12
 62
     5
 66
     1
  6
CONTINUOUS
  0
VERTEX
  8
LAYER12
 62
     5
  6
CONTINUOUS
 10
5.0426
 20
9.5139
  0
VERTEX
  8
LAYER12
 62
     5
  6
CONTINUOUS
 10
5.0426
 20
9.5172
  0
SEQEND
  8
LAYER12
  0
POLYLINE
  8
LAYER12
 62
     5
 66
     1
  6
CONTINUOUS
  0
VERTEX
  8
LAYER12
 62
     5
  6
CONTINUOUS
 10
6.0664
 20
9.5139
  0
VERTEX
  8
LAYER12
 62
     5
  6
CONTINUOUS
 10
5.0426
 20
9.5139
  0
SEQEND
  8
LAYER12
  0
POLYLINE
  8
LAYER12
 62
     5
 66
     1
  6
CONTINUOUS
  0
VERTEX
  8
LAYER12
 62
     5
  6
CONTINUOUS
 10
5.0426
 20
9.5139
  0
VERTEX
  8
LAYER12
 62
     5
  6
CONTINUOUS
 10
5.0377
 20
9.5139
  0
SEQEND
  8
LAYER12
  0
POLYLINE
  8
LAYER12
 62
     5
 66
     1
  6
CONTINUOUS
  0
VERTEX
  8
LAYER12
 62
     5
  6
CONTINUOUS
 10
6.0657
 20
8.5302
  0
VERTEX
  8
LAYER12
 62
     5
  6
CONTINUOUS
 10
6.0664
 20
8.5302
  0
SEQEND
  8
LAYER12
  0
POLYLINE
  8
LAYER12
 62
     5
 66
     1
  6
CONTINUOUS
  0
VERTEX
  8
LAYER12
 62
     5
  6
CONTINUOUS
 10
6.0657
 20
9.5172
  0
VERTEX
  8
LAYER12
 62
     5
  6
CONTINUOUS
 10
6.0657
 20
9.5139
  0
SEQEND
  8
LAYER12
  0
POLYLINE
  8
LAYER12
 62
     5
 66
     1
  6
CONTINUOUS
  0
VERTEX
  8
LAYER12
 62
     5
  6
CONTINUOUS
 10
6.0657
 20
9.5139
  0
VERTEX
  8
LAYER12
 62
     5
  6
CONTINUOUS
 10
6.0657
 20
8.5302
  0
SEQEND
  8
LAYER12
  0
POLYLINE
  8
LAYER12
 62
     5
 66
     1
  6
CONTINUOUS
  0
VERTEX
  8
LAYER12
 62
     5
  6
CONTINUOUS
 10
6.0657
 20
8.5302
  0
VERTEX
  8
LAYER12
 62
     5
  6
CONTINUOUS
 10
6.0657
 20
8.5302
  0
SEQEND
  8
LAYER12
  0
POLYLINE
  8
LAYER12
 62
     5
 66
     1
  6
CONTINUOUS
  0
VERTEX
  8
LAYER12
 62
     5
  6
CONTINUOUS
 10
6.0657
 20
8.5302
  0
VERTEX
  8
LAYER12
 62
     5
  6
CONTINUOUS
 10
6.0657
 20
8.5302
  0
SEQEND
  8
LAYER12
  0
POLYLINE
  8
LAYER12
 62
     5
 66
     1
  6
CONTINUOUS
  0
VERTEX
  8
LAYER12
 62
     5
  6
CONTINUOUS
 10
6.0657
 20
8.5302
  0
VERTEX
  8
LAYER12
 62
     5
  6
CONTINUOUS
 10
6.0657
 20
8.5302
  0
SEQEND
  8
LAYER12
  0
POLYLINE
  8
LAYER12
 62
     5
 66
     1
  6
CONTINUOUS
  0
VERTEX
  8
LAYER12
 62
     5
  6
CONTINUOUS
 10
6.0657
 20
8.5302
  0
VERTEX
  8
LAYER12
 62
     5
  6
CONTINUOUS
 10
6.0657
 20
8.5302
  0
SEQEND
  8
LAYER12
  0
POLYLINE
  8
LAYER12
 62
     5
 66
     1
  6
CONTINUOUS
  0
VERTEX
  8
LAYER12
 62
     5
  6
CONTINUOUS
 10
5.0426
 20
8.5302
  0
VERTEX
  8
LAYER12
 62
     5
  6
CONTINUOUS
 10
6.0640
 20
8.5302
  0
SEQEND
  8
LAYER12
  0
POLYLINE
  8
LAYER12
 62
     5
 66
     1
  6
CONTINUOUS
  0
VERTEX
  8
LAYER12
 62
     5
  6
CONTINUOUS
 10
6.0640
 20
8.5302
  0
VERTEX
  8
LAYER12
 62
     5
  6
CONTINUOUS
 10
6.0657
 20
8.5302
  0
SEQEND
  8
LAYER12
  0
POLYLINE
  8
LAYER12
 62
     5
 66
     1
  6
CONTINUOUS
  0
VERTEX
  8
LAYER12
 62
     5
  6
CONTINUOUS
 10
5.0426
 20
8.5302
  0
VERTEX
  8
LAYER12
 62
     5
  6
CONTINUOUS
 10
5.0426
 20
8.5302
  0
SEQEND
  8
LAYER12
  0
POLYLINE
  8
LAYER12
 62
     5
 66
     1
  6
CONTINUOUS
  0
VERTEX
  8
LAYER12
 62
     5
  6
CONTINUOUS
 10
5.0426
 20
8.5302
  0
VERTEX
  8
LAYER12
 62
     5
  6
CONTINUOUS
 10
5.0426
 20
8.5302
  0
SEQEND
  8
LAYER12
  0
POLYLINE
  8
LAYER12
 62
     5
 66
     1
  6
CONTINUOUS
  0
VERTEX
  8
LAYER12
 62
     5
  6
CONTINUOUS
 10
5.0426
 20
8.5302
  0
VERTEX
  8
LAYER12
 62
     5
  6
CONTINUOUS
 10
5.0426
 20
9.5131
  0
SEQEND
  8
LAYER12
  0
POLYLINE
  8
LAYER12
 62
     5
 66
     1
  6
CONTINUOUS
  0
VERTEX
  8
LAYER12
 62
     5
  6
CONTINUOUS
 10
5.0426
 20
8.5302
  0
VERTEX
  8
LAYER12
 62
     5
  6
CONTINUOUS
 10
5.0426
 20
8.5302
  0
SEQEND
  8
LAYER12
  0
POLYLINE
  8
LAYER12
 62
     5
 66
     1
  6
CONTINUOUS
  0
VERTEX
  8
LAYER12
 62
     5
  6
CONTINUOUS
 10
5.0426
 20
8.5302
  0
VERTEX
  8
LAYER12
 62
     5
  6
CONTINUOUS
 10
5.0426
 20
8.5302
  0
SEQEND
  8
LAYER12
  0
ENDSEC
  0
EOF
