  0
SECTION
  2
HEADER
  9
$ACADVER
  1
AC1004
  9
$EXTMIN
 10
2.0522
 20
8.5302
  9
$EXTMAX
 10
3.0766
 20
9.5139
  9
$LIMMIN
 10
2.0522
 20
8.5302
  9
$LIMMAX
 10
3.0766
 20
9.5139
  9
$INSBASE
 10
0.0
 20
0.0
  9
$VIEWCTR
 10
7.21903
 20
4.5
  9
$VIEWSIZE
 40
9.0
  9
$SNAPMODE
 70
     0
  9
$SNAPUNIT
 10
1.0
 20
1.0
  9
$SNAPBASE
 10
0.0
 20
0.0
  9
$SNAPANG
 50
0.0
  9
$SNAPSTYLE
 70
     0
  9
$SNAPISOPAIR
 70
     0
  9
$GRIDMODE
 70
     0
  9
$GRIDUNIT
 10
0.0
 20
0.0
  9
$ORTHOMODE
 70
     0
  9
$REGENMODE
 70
     1
  9
$FILLMODE
 70
     1
  9
$QTEXTMODE
 70
     0
  9
$DRAGMODE
 70
     2
  9
$LTSCALE
 40
1.0
  9
$OSMODE
 70
     0
  9
$ATTMODE
 70
     1
  9
$TEXTSIZE
 40
0.2
  9
$TRACEWID
 40
0.05
  9
$TEXTSTYLE
  7
STANDARD
  9
$CLAYER
  8
0
  9
$CELTYPE
  6
BYLAYER
  9
$CECOLOR
 62
   256
  9
$DIMSCALE
 40
1.0
  9
$DIMASZ
 40
0.18
  9
$DIMEXO
 40
0.0625
  9
$DIMDLI
 40
0.38
  9
$DIMRND
 40
0.0
  9
$DIMDLE
 40
0.0
  9
$DIMEXE
 40
0.18
  9
$DIMTP
 40
0.0
  9
$DIMTM
 40
0.0
  9
$DIMTXT
 40
0.18
  9
$DIMCEN
 40
0.09
  9
$DIMTSZ
 40
0.0
  9
$DIMTOL
 70
     0
  9
$DIMLIM
 70
     0
  9
$DIMTIH
 70
     1
  9
$DIMTOH
 70
     1
  9
$DIMSE1
 70
     0
  9
$DIMSE2
 70
     0
  9
$DIMTAD
 70
     0
  9
$DIMZIN
 70
     0
  9
$DIMBLK
  1

  9
$DIMASO
 70
     1
  9
$DIMSHO
 70
     0
  9
$DIMPOST
  1

  9
$DIMAPOST
  1

  9
$DIMALT
 70
     0
  9
$DIMALTD
 70
     2
  9
$DIMALTF
 40
25.4
  9
$DIMLFAC
 40
1.0
  9
$LUNITS
 70
     2
  9
$LUPREC
 70
     4
  9
$AXISMODE
 70
     0
  9
$AXISUNIT
 10
0.0
 20
0.0
  9
$SKETCHINC
 40
0.1
  9
$FILLETRAD
 40
0.0
  9
$AUNITS
 70
     0
  9
$AUPREC
 70
     0
  9
$MENU
  1
acad
  9
$ELEVATION
 40
0.0
  9
$THICKNESS
 40
0.0
  9
$VIEWDIR
 10
0.0
 20
0.0
 30
1.0
  9
$LIMCHECK
 70
     0
  9
$BLIPMODE
 70
     1
  9
$CHAMFERA
 40
0.0
  9
$CHAMFERB
 40
0.0
  9
$FASTZOOM
 70
     1
  9
$SKPOLY
 70
     0
  9
$TDCREATE
 40
2447222.5666886573
  9
$TDUPDATE
 40
2447222.5666886573
  9
$TDINDWG
 40
0.0000000000
  9
$TDUSRTIMER
 40
0.0000000000
  9
$USRTIMER
 70
     1
  9
$ANGBASE
 50
0.0
  9
$ANGDIR
 70
     0
  9
$PDMODE
 70
     0
  9
$PDSIZE
 40
0.0
  9
$PLINEWID
 40
0.0
  9
$COORDS
 70
     0
  9
$SPLFRAME
 70
     0
  9
$SPLINESEGS
 70
     8
  9
$ATTDIA
 70
     0
  9
$ATTREQ
 70
     1
  9
$USERI1
 70
     0
  9
$USERI2
 70
     0
  9
$USERI3
 70
     0
  9
$USERI4
 70
     0
  9
$USERI5
 70
     0
  9
$USERR1
 40
0.0
  9
$USERR2
 40
0.0
  9
$USERR3
 40
0.0
  9
$USERR4
 40
0.0
  9
$USERR5
 40
0.0
  0
ENDSEC
  0
SECTION
  2
TABLES
  0
TABLE
  2
LTYPE
 70
     13
  0
LTYPE
  2
CONTINUOUS
 70
    64
  3
Solid line
 72
    65
 73
     0
 40
0.0
  0
LTYPE
  2
DASHED
 70
    64
  3
__ __ __ __ __ __ __ __ __ __ __ __ __ __ __
 72
    65
 73
     2
 40
0.75
 49
0.5
 49
-0.25
  0
LTYPE
  2
HIDDEN
 70
    64
  3
_ _ _ _ _ _ _ _ _ _ _ _ _ _ _ _ _ _ _ _ _ _ _
 72
    65
 73
     2
 40
0.375
 49
0.25
 49
-0.125
  0
LTYPE
  2
CENTER
 70
    64
  3
____ _ ____ _ ____ _ ____ _ ____ _ ____ _ ____
 72
    65
 73
     4
 40
2.0
 49
1.25
 49
-0.25
 49
0.25
 49
-0.25
  0
LTYPE
  2
PHANTOM
 70
    64
  3
_____ _ _ _____ _ _ _____ _ _ _____ _ _ ____
 72
    65
 73
     6
 40
2.5
 49
1.25
 49
-0.25
 49
0.25
 49
-0.25
 49
0.25
 49
-0.25
  0
LTYPE
  2
DOT
 70
    64
  3
...............................................
 72
    65
 73
     2
 40
0.25
 49
0.0
 49
-0.25
  0
LTYPE
  2
DASHDOT
 70
    64
  3
__ . __ . __ . __ . __ . __ . __ . __ . __ . __
 72
    65
 73
     4
 40
1.0
 49
0.5
 49
-0.25
 49
0.0
 49
-0.25
  0
LTYPE
  2
BORDER
 70
    64
  3
__ __ . __ __ . __ __ . __ __ . __ __ . __ __
 72
    65
 73
     6
 40
1.75
 49
0.5
 49
-0.25
 49
0.5
 49
-0.25
 49
0.0
 49
-0.25
  0
LTYPE
  2
DIVIDE
 70
    64
  3
__ . . __ . . __ . . __ . . __ . . __ . . __
 72
    65
 73
     6
 40
1.25
 49
0.5
 49
-0.25
 49
0.0
 49
-0.25
 49
0.0
 49
-0.25
  0
LTYPE
  2
DCTYPE1
 70
    64
  3
__ . . __ . . __ . . __ . . __ . . __ . . __
 72
    65
 73
     8
 40
2.5
 49
0.5
 49
-0.25
 49
0.125
 49
-0.25
 49
0.25
 49
-0.25
 49
0.125
 49
-0.25
  0
LTYPE
  2
DCTYPE2
 70
    64
  3
__ . . __ . . __ . . __ . . __ . . __ . . __
 72
    65
 73
     6
 40
2.05
 49
1.0
 49
-0.3
 49
0.15
 49
-0.15
 49
0.15
 49
-0.3
  0
LTYPE
  2
DCTYPE3
 70
    64
  3
__ . . __ . . __ . . __ . . __ . . __ . . __
 72
    65
 73
     6
 40
2.5
 49
0.8
 49
-0.2
 49
0.8
 49
-0.2
 49
0.3
 49
-0.2
  0
LTYPE
  2
DCTYPE4
 70
    64
  3
__ . . __ . . __ . . __ . . __ . . __ . . __
 72
    65
 73
     10
 40
3.97
 49
1.75
 49
-0.3
 49
0.3
 49
-0.3
 49
0.06
 49
-0.3
 49
0.06
 49
-0.3
 49
0.3
 49
-0.3
  0
ENDTAB
  0
TABLE
  2
LAYER
 70
    153
  0
LAYER
  2
LAYER1
 70
 64
 62
     7
  6
CONTINUOUS
  0
LAYER
  2
LAYER12
 70
 64
 62
     5
  6
CONTINUOUS
  0
ENDTAB
  0
ENDSEC
  0
SECTION
  2
BLOCKS
  0
ENDSEC
  0
SECTION
  2
ENTITIES
  0
CIRCLE
  8
LAYER1
 62
     7
  6
CONTINUOUS
 10
2.1915
 20
9.2354
 40
0.0178
  0
CIRCLE
  8
LAYER1
 62
     7
  6
CONTINUOUS
 10
2.1732
 20
8.6920
 40
0.0135
  0
CIRCLE
  8
LAYER1
 62
     7
  6
CONTINUOUS
 10
2.2384
 20
8.7176
 40
0.0135
  0
CIRCLE
  8
LAYER1
 62
     7
  6
CONTINUOUS
 10
2.3829
 20
8.8974
 40
0.0101
  0
CIRCLE
  8
LAYER1
 62
     7
  6
CONTINUOUS
 10
2.3492
 20
9.0153
 40
0.0228
  0
CIRCLE
  8
LAYER1
 62
     7
  6
CONTINUOUS
 10
2.4552
 20
8.9759
 40
0.0228
  0
CIRCLE
  8
LAYER1
 62
     7
  6
CONTINUOUS
 10
2.5798
 20
9.1178
 40
0.0128
  0
CIRCLE
  8
LAYER1
 62
     7
  6
CONTINUOUS
 10
2.6624
 20
9.1688
 40
0.0176
  0
CIRCLE
  8
LAYER1
 62
     7
  6
CONTINUOUS
 10
2.7649
 20
8.9281
 40
0.0277
  0
CIRCLE
  8
LAYER1
 62
     7
  6
CONTINUOUS
 10
2.8184
 20
8.8430
 40
0.0228
  0
CIRCLE
  8
LAYER1
 62
     7
  6
CONTINUOUS
 10
2.9334
 20
8.9345
 40
0.0080
  0
CIRCLE
  8
LAYER1
 62
     7
  6
CONTINUOUS
 10
3.0111
 20
8.9678
 40
0.0207
  0
POLYLINE
  8
LAYER1
 62
     7
 66
     1
  6
HIDDEN
  0
VERTEX
  8
LAYER1
 62
     7
  6
HIDDEN
 10
3.0752
 20
9.3680
  0
VERTEX
  8
LAYER1
 62
     7
  6
HIDDEN
 10
3.0725
 20
9.3689
  0
VERTEX
  8
LAYER1
 62
     7
  6
HIDDEN
 10
3.0697
 20
9.3698
  0
VERTEX
  8
LAYER1
 62
     7
  6
HIDDEN
 10
3.0669
 20
9.3707
  0
VERTEX
  8
LAYER1
 62
     7
  6
HIDDEN
 10
3.0642
 20
9.3716
  0
VERTEX
  8
LAYER1
 62
     7
  6
HIDDEN
 10
3.0614
 20
9.3725
  0
VERTEX
  8
LAYER1
 62
     7
  6
HIDDEN
 10
3.0587
 20
9.3735
  0
VERTEX
  8
LAYER1
 62
     7
  6
HIDDEN
 10
3.0560
 20
9.3745
  0
VERTEX
  8
LAYER1
 62
     7
  6
HIDDEN
 10
3.0533
 20
9.3756
  0
VERTEX
  8
LAYER1
 62
     7
  6
HIDDEN
 10
3.0507
 20
9.3768
  0
VERTEX
  8
LAYER1
 62
     7
  6
HIDDEN
 10
3.0481
 20
9.3780
  0
VERTEX
  8
LAYER1
 62
     7
  6
HIDDEN
 10
3.0455
 20
9.3792
  0
VERTEX
  8
LAYER1
 62
     7
  6
HIDDEN
 10
3.0430
 20
9.3806
  0
VERTEX
  8
LAYER1
 62
     7
  6
HIDDEN
 10
3.0412
 20
9.3816
  0
VERTEX
  8
LAYER1
 62
     7
  6
HIDDEN
 10
3.0394
 20
9.3827
  0
VERTEX
  8
LAYER1
 62
     7
  6
HIDDEN
 10
3.0377
 20
9.3838
  0
VERTEX
  8
LAYER1
 62
     7
  6
HIDDEN
 10
3.0359
 20
9.3850
  0
VERTEX
  8
LAYER1
 62
     7
  6
HIDDEN
 10
3.0342
 20
9.3862
  0
VERTEX
  8
LAYER1
 62
     7
  6
HIDDEN
 10
3.0325
 20
9.3874
  0
VERTEX
  8
LAYER1
 62
     7
  6
HIDDEN
 10
3.0308
 20
9.3887
  0
VERTEX
  8
LAYER1
 62
     7
  6
HIDDEN
 10
3.0292
 20
9.3900
  0
VERTEX
  8
LAYER1
 62
     7
  6
HIDDEN
 10
3.0275
 20
9.3913
  0
VERTEX
  8
LAYER1
 62
     7
  6
HIDDEN
 10
3.0259
 20
9.3927
  0
VERTEX
  8
LAYER1
 62
     7
  6
HIDDEN
 10
3.0243
 20
9.3941
  0
VERTEX
  8
LAYER1
 62
     7
  6
HIDDEN
 10
3.0228
 20
9.3955
  0
VERTEX
  8
LAYER1
 62
     7
  6
HIDDEN
 10
3.0197
 20
9.3984
  0
VERTEX
  8
LAYER1
 62
     7
  6
HIDDEN
 10
3.0167
 20
9.4014
  0
VERTEX
  8
LAYER1
 62
     7
  6
HIDDEN
 10
3.0138
 20
9.4045
  0
VERTEX
  8
LAYER1
 62
     7
  6
HIDDEN
 10
3.0110
 20
9.4076
  0
VERTEX
  8
LAYER1
 62
     7
  6
HIDDEN
 10
3.0082
 20
9.4109
  0
VERTEX
  8
LAYER1
 62
     7
  6
HIDDEN
 10
3.0056
 20
9.4142
  0
VERTEX
  8
LAYER1
 62
     7
  6
HIDDEN
 10
3.0031
 20
9.4176
  0
VERTEX
  8
LAYER1
 62
     7
  6
HIDDEN
 10
3.0007
 20
9.4210
  0
VERTEX
  8
LAYER1
 62
     7
  6
HIDDEN
 10
2.9984
 20
9.4246
  0
VERTEX
  8
LAYER1
 62
     7
  6
HIDDEN
 10
2.9962
 20
9.4281
  0
VERTEX
  8
LAYER1
 62
     7
  6
HIDDEN
 10
2.9942
 20
9.4318
  0
VERTEX
  8
LAYER1
 62
     7
  6
HIDDEN
 10
2.9923
 20
9.4355
  0
VERTEX
  8
LAYER1
 62
     7
  6
HIDDEN
 10
2.9913
 20
9.4375
  0
VERTEX
  8
LAYER1
 62
     7
  6
HIDDEN
 10
2.9903
 20
9.4396
  0
VERTEX
  8
LAYER1
 62
     7
  6
HIDDEN
 10
2.9894
 20
9.4416
  0
VERTEX
  8
LAYER1
 62
     7
  6
HIDDEN
 10
2.9885
 20
9.4437
  0
VERTEX
  8
LAYER1
 62
     7
  6
HIDDEN
 10
2.9877
 20
9.4458
  0
VERTEX
  8
LAYER1
 62
     7
  6
HIDDEN
 10
2.9868
 20
9.4478
  0
VERTEX
  8
LAYER1
 62
     7
  6
HIDDEN
 10
2.9860
 20
9.4499
  0
VERTEX
  8
LAYER1
 62
     7
  6
HIDDEN
 10
2.9852
 20
9.4521
  0
VERTEX
  8
LAYER1
 62
     7
  6
HIDDEN
 10
2.9844
 20
9.4542
  0
VERTEX
  8
LAYER1
 62
     7
  6
HIDDEN
 10
2.9836
 20
9.4563
  0
VERTEX
  8
LAYER1
 62
     7
  6
HIDDEN
 10
2.9828
 20
9.4584
  0
VERTEX
  8
LAYER1
 62
     7
  6
HIDDEN
 10
2.9820
 20
9.4606
  0
VERTEX
  8
LAYER1
 62
     7
  6
HIDDEN
 10
2.9806
 20
9.4643
  0
VERTEX
  8
LAYER1
 62
     7
  6
HIDDEN
 10
2.9793
 20
9.4680
  0
VERTEX
  8
LAYER1
 62
     7
  6
HIDDEN
 10
2.9780
 20
9.4717
  0
VERTEX
  8
LAYER1
 62
     7
  6
HIDDEN
 10
2.9767
 20
9.4754
  0
VERTEX
  8
LAYER1
 62
     7
  6
HIDDEN
 10
2.9756
 20
9.4792
  0
VERTEX
  8
LAYER1
 62
     7
  6
HIDDEN
 10
2.9745
 20
9.4829
  0
VERTEX
  8
LAYER1
 62
     7
  6
HIDDEN
 10
2.9735
 20
9.4867
  0
VERTEX
  8
LAYER1
 62
     7
  6
HIDDEN
 10
2.9728
 20
9.4905
  0
VERTEX
  8
LAYER1
 62
     7
  6
HIDDEN
 10
2.9721
 20
9.4943
  0
VERTEX
  8
LAYER1
 62
     7
  6
HIDDEN
 10
2.9717
 20
9.4981
  0
VERTEX
  8
LAYER1
 62
     7
  6
HIDDEN
 10
2.9715
 20
9.5019
  0
VERTEX
  8
LAYER1
 62
     7
  6
HIDDEN
 10
2.9716
 20
9.5058
  0
VERTEX
  8
LAYER1
 62
     7
  6
HIDDEN
 10
2.9716
 20
9.5064
  0
VERTEX
  8
LAYER1
 62
     7
  6
HIDDEN
 10
2.9716
 20
9.5070
  0
VERTEX
  8
LAYER1
 62
     7
  6
HIDDEN
 10
2.9717
 20
9.5076
  0
VERTEX
  8
LAYER1
 62
     7
  6
HIDDEN
 10
2.9717
 20
9.5082
  0
VERTEX
  8
LAYER1
 62
     7
  6
HIDDEN
 10
2.9718
 20
9.5088
  0
VERTEX
  8
LAYER1
 62
     7
  6
HIDDEN
 10
2.9718
 20
9.5094
  0
VERTEX
  8
LAYER1
 62
     7
  6
HIDDEN
 10
2.9719
 20
9.5101
  0
VERTEX
  8
LAYER1
 62
     7
  6
HIDDEN
 10
2.9720
 20
9.5107
  0
VERTEX
  8
LAYER1
 62
     7
  6
HIDDEN
 10
2.9720
 20
9.5113
  0
VERTEX
  8
LAYER1
 62
     7
  6
HIDDEN
 10
2.9721
 20
9.5119
  0
VERTEX
  8
LAYER1
 62
     7
  6
HIDDEN
 10
2.9722
 20
9.5125
  0
VERTEX
  8
LAYER1
 62
     7
  6
HIDDEN
 10
2.9722
 20
9.5131
  0
SEQEND
  8
LAYER1
  0
POLYLINE
  8
LAYER1
 62
     7
 66
     1
  6
HIDDEN
  0
VERTEX
  8
LAYER1
 62
     7
  6
HIDDEN
 10
2.9722
 20
9.5131
  0
VERTEX
  8
LAYER1
 62
     7
  6
HIDDEN
 10
2.9722
 20
9.5131
  0
VERTEX
  8
LAYER1
 62
     7
  6
HIDDEN
 10
2.9722
 20
9.5131
  0
VERTEX
  8
LAYER1
 62
     7
  6
HIDDEN
 10
2.9722
 20
9.5131
  0
VERTEX
  8
LAYER1
 62
     7
  6
HIDDEN
 10
2.9722
 20
9.5131
  0
VERTEX
  8
LAYER1
 62
     7
  6
HIDDEN
 10
2.9722
 20
9.5131
  0
VERTEX
  8
LAYER1
 62
     7
  6
HIDDEN
 10
2.9722
 20
9.5131
  0
VERTEX
  8
LAYER1
 62
     7
  6
HIDDEN
 10
2.9722
 20
9.5131
  0
VERTEX
  8
LAYER1
 62
     7
  6
HIDDEN
 10
2.9722
 20
9.5131
  0
VERTEX
  8
LAYER1
 62
     7
  6
HIDDEN
 10
2.9722
 20
9.5131
  0
VERTEX
  8
LAYER1
 62
     7
  6
HIDDEN
 10
2.9722
 20
9.5131
  0
VERTEX
  8
LAYER1
 62
     7
  6
HIDDEN
 10
2.9722
 20
9.5131
  0
VERTEX
  8
LAYER1
 62
     7
  6
HIDDEN
 10
2.9722
 20
9.5131
  0
VERTEX
  8
LAYER1
 62
     7
  6
HIDDEN
 10
2.9722
 20
9.5131
  0
VERTEX
  8
LAYER1
 62
     7
  6
HIDDEN
 10
2.9722
 20
9.5131
  0
VERTEX
  8
LAYER1
 62
     7
  6
HIDDEN
 10
2.9722
 20
9.5131
  0
VERTEX
  8
LAYER1
 62
     7
  6
HIDDEN
 10
2.9722
 20
9.5131
  0
VERTEX
  8
LAYER1
 62
     7
  6
HIDDEN
 10
2.9722
 20
9.5131
  0
VERTEX
  8
LAYER1
 62
     7
  6
HIDDEN
 10
2.9722
 20
9.5131
  0
VERTEX
  8
LAYER1
 62
     7
  6
HIDDEN
 10
2.9722
 20
9.5131
  0
VERTEX
  8
LAYER1
 62
     7
  6
HIDDEN
 10
2.9722
 20
9.5131
  0
VERTEX
  8
LAYER1
 62
     7
  6
HIDDEN
 10
2.9722
 20
9.5131
  0
VERTEX
  8
LAYER1
 62
     7
  6
HIDDEN
 10
2.9722
 20
9.5131
  0
VERTEX
  8
LAYER1
 62
     7
  6
HIDDEN
 10
2.9722
 20
9.5131
  0
VERTEX
  8
LAYER1
 62
     7
  6
HIDDEN
 10
2.9722
 20
9.5131
  0
SEQEND
  8
LAYER1
  0
POLYLINE
  8
LAYER1
 62
     7
 66
     1
  6
HIDDEN
  0
VERTEX
  8
LAYER1
 62
     7
  6
HIDDEN
 10
2.9722
 20
9.5131
  0
VERTEX
  8
LAYER1
 62
     7
  6
HIDDEN
 10
2.9722
 20
9.5131
  0
VERTEX
  8
LAYER1
 62
     7
  6
HIDDEN
 10
2.9722
 20
9.5131
  0
VERTEX
  8
LAYER1
 62
     7
  6
HIDDEN
 10
2.9722
 20
9.5131
  0
VERTEX
  8
LAYER1
 62
     7
  6
HIDDEN
 10
2.9722
 20
9.5131
  0
VERTEX
  8
LAYER1
 62
     7
  6
HIDDEN
 10
2.9722
 20
9.5131
  0
VERTEX
  8
LAYER1
 62
     7
  6
HIDDEN
 10
2.9722
 20
9.5131
  0
VERTEX
  8
LAYER1
 62
     7
  6
HIDDEN
 10
2.9722
 20
9.5131
  0
VERTEX
  8
LAYER1
 62
     7
  6
HIDDEN
 10
2.9722
 20
9.5131
  0
VERTEX
  8
LAYER1
 62
     7
  6
HIDDEN
 10
2.9722
 20
9.5131
  0
VERTEX
  8
LAYER1
 62
     7
  6
HIDDEN
 10
2.9722
 20
9.5131
  0
VERTEX
  8
LAYER1
 62
     7
  6
HIDDEN
 10
2.9722
 20
9.5131
  0
VERTEX
  8
LAYER1
 62
     7
  6
HIDDEN
 10
2.9722
 20
9.5131
  0
VERTEX
  8
LAYER1
 62
     7
  6
HIDDEN
 10
2.9722
 20
9.5131
  0
VERTEX
  8
LAYER1
 62
     7
  6
HIDDEN
 10
2.9722
 20
9.5131
  0
VERTEX
  8
LAYER1
 62
     7
  6
HIDDEN
 10
2.9722
 20
9.5131
  0
VERTEX
  8
LAYER1
 62
     7
  6
HIDDEN
 10
2.9722
 20
9.5131
  0
VERTEX
  8
LAYER1
 62
     7
  6
HIDDEN
 10
2.9722
 20
9.5131
  0
VERTEX
  8
LAYER1
 62
     7
  6
HIDDEN
 10
2.9722
 20
9.5131
  0
VERTEX
  8
LAYER1
 62
     7
  6
HIDDEN
 10
2.9722
 20
9.5131
  0
VERTEX
  8
LAYER1
 62
     7
  6
HIDDEN
 10
2.9722
 20
9.5131
  0
VERTEX
  8
LAYER1
 62
     7
  6
HIDDEN
 10
2.9722
 20
9.5131
  0
VERTEX
  8
LAYER1
 62
     7
  6
HIDDEN
 10
2.9722
 20
9.5131
  0
VERTEX
  8
LAYER1
 62
     7
  6
HIDDEN
 10
2.9722
 20
9.5131
  0
VERTEX
  8
LAYER1
 62
     7
  6
HIDDEN
 10
2.9722
 20
9.5131
  0
SEQEND
  8
LAYER1
  0
POLYLINE
  8
LAYER1
 62
     7
 66
     1
  6
HIDDEN
  0
VERTEX
  8
LAYER1
 62
     7
  6
HIDDEN
 10
2.9722
 20
9.5131
  0
VERTEX
  8
LAYER1
 62
     7
  6
HIDDEN
 10
2.9722
 20
9.5131
  0
VERTEX
  8
LAYER1
 62
     7
  6
HIDDEN
 10
2.9722
 20
9.5131
  0
VERTEX
  8
LAYER1
 62
     7
  6
HIDDEN
 10
2.9722
 20
9.5131
  0
VERTEX
  8
LAYER1
 62
     7
  6
HIDDEN
 10
2.9722
 20
9.5131
  0
VERTEX
  8
LAYER1
 62
     7
  6
HIDDEN
 10
2.9722
 20
9.5131
  0
VERTEX
  8
LAYER1
 62
     7
  6
HIDDEN
 10
2.9722
 20
9.5131
  0
VERTEX
  8
LAYER1
 62
     7
  6
HIDDEN
 10
2.9722
 20
9.5131
  0
VERTEX
  8
LAYER1
 62
     7
  6
HIDDEN
 10
2.9722
 20
9.5131
  0
VERTEX
  8
LAYER1
 62
     7
  6
HIDDEN
 10
2.9722
 20
9.5131
  0
VERTEX
  8
LAYER1
 62
     7
  6
HIDDEN
 10
2.9722
 20
9.5131
  0
VERTEX
  8
LAYER1
 62
     7
  6
HIDDEN
 10
2.9722
 20
9.5131
  0
VERTEX
  8
LAYER1
 62
     7
  6
HIDDEN
 10
2.9722
 20
9.5131
  0
VERTEX
  8
LAYER1
 62
     7
  6
HIDDEN
 10
2.9722
 20
9.5131
  0
VERTEX
  8
LAYER1
 62
     7
  6
HIDDEN
 10
2.9722
 20
9.5131
  0
VERTEX
  8
LAYER1
 62
     7
  6
HIDDEN
 10
2.9722
 20
9.5131
  0
VERTEX
  8
LAYER1
 62
     7
  6
HIDDEN
 10
2.9722
 20
9.5131
  0
VERTEX
  8
LAYER1
 62
     7
  6
HIDDEN
 10
2.9722
 20
9.5131
  0
VERTEX
  8
LAYER1
 62
     7
  6
HIDDEN
 10
2.9722
 20
9.5131
  0
VERTEX
  8
LAYER1
 62
     7
  6
HIDDEN
 10
2.9722
 20
9.5131
  0
VERTEX
  8
LAYER1
 62
     7
  6
HIDDEN
 10
2.9722
 20
9.5131
  0
VERTEX
  8
LAYER1
 62
     7
  6
HIDDEN
 10
2.9722
 20
9.5131
  0
VERTEX
  8
LAYER1
 62
     7
  6
HIDDEN
 10
2.9722
 20
9.5131
  0
VERTEX
  8
LAYER1
 62
     7
  6
HIDDEN
 10
2.9722
 20
9.5131
  0
VERTEX
  8
LAYER1
 62
     7
  6
HIDDEN
 10
2.9722
 20
9.5131
  0
SEQEND
  8
LAYER1
  0
POLYLINE
  8
LAYER12
 62
     5
 66
     1
  6
CONTINUOUS
  0
VERTEX
  8
LAYER12
 62
     5
  6
CONTINUOUS
 10
2.0522
 20
8.5302
  0
VERTEX
  8
LAYER12
 62
     5
  6
CONTINUOUS
 10
3.0752
 20
8.5302
  0
SEQEND
  8
LAYER12
  0
POLYLINE
  8
LAYER12
 62
     5
 66
     1
  6
CONTINUOUS
  0
VERTEX
  8
LAYER12
 62
     5
  6
CONTINUOUS
 10
3.0752
 20
8.5302
  0
VERTEX
  8
LAYER12
 62
     5
  6
CONTINUOUS
 10
3.0752
 20
8.5366
  0
SEQEND
  8
LAYER12
  0
POLYLINE
  8
LAYER12
 62
     5
 66
     1
  6
CONTINUOUS
  0
VERTEX
  8
LAYER12
 62
     5
  6
CONTINUOUS
 10
3.0752
 20
8.5366
  0
VERTEX
  8
LAYER12
 62
     5
  6
CONTINUOUS
 10
3.0752
 20
9.5131
  0
SEQEND
  8
LAYER12
  0
POLYLINE
  8
LAYER12
 62
     5
 66
     1
  6
CONTINUOUS
  0
VERTEX
  8
LAYER12
 62
     5
  6
CONTINUOUS
 10
3.0766
 20
9.5139
  0
VERTEX
  8
LAYER12
 62
     5
  6
CONTINUOUS
 10
3.0752
 20
9.5139
  0
SEQEND
  8
LAYER12
  0
POLYLINE
  8
LAYER12
 62
     5
 66
     1
  6
CONTINUOUS
  0
VERTEX
  8
LAYER12
 62
     5
  6
CONTINUOUS
 10
3.0752
 20
9.5139
  0
VERTEX
  8
LAYER12
 62
     5
  6
CONTINUOUS
 10
2.0522
 20
9.5139
  0
SEQEND
  8
LAYER12
  0
POLYLINE
  8
LAYER12
 62
     5
 66
     1
  6
CONTINUOUS
  0
VERTEX
  8
LAYER12
 62
     5
  6
CONTINUOUS
 10
2.0522
 20
8.5302
  0
VERTEX
  8
LAYER12
 62
     5
  6
CONTINUOUS
 10
2.0522
 20
8.5366
  0
SEQEND
  8
LAYER12
  0
POLYLINE
  8
LAYER12
 62
     5
 66
     1
  6
CONTINUOUS
  0
VERTEX
  8
LAYER12
 62
     5
  6
CONTINUOUS
 10
2.0522
 20
8.5366
  0
VERTEX
  8
LAYER12
 62
     5
  6
CONTINUOUS
 10
2.0522
 20
9.5131
  0
SEQEND
  8
LAYER12
  0
ENDSEC
  0
EOF
