  0
SECTION
  2
HEADER
  9
$ACADVER
  1
AC1004
  9
$EXTMIN
 10
4.0574
 20
8.5302
  9
$EXTMAX
 10
5.0436
 20
9.5139
  9
$LIMMIN
 10
4.0574
 20
8.5302
  9
$LIMMAX
 10
5.0436
 20
9.5139
  9
$INSBASE
 10
0.0
 20
0.0
  9
$VIEWCTR
 10
7.21903
 20
4.5
  9
$VIEWSIZE
 40
9.0
  9
$SNAPMODE
 70
     0
  9
$SNAPUNIT
 10
1.0
 20
1.0
  9
$SNAPBASE
 10
0.0
 20
0.0
  9
$SNAPANG
 50
0.0
  9
$SNAPSTYLE
 70
     0
  9
$SNAPISOPAIR
 70
     0
  9
$GRIDMODE
 70
     0
  9
$GRIDUNIT
 10
0.0
 20
0.0
  9
$ORTHOMODE
 70
     0
  9
$REGENMODE
 70
     1
  9
$FILLMODE
 70
     1
  9
$QTEXTMODE
 70
     0
  9
$DRAGMODE
 70
     2
  9
$LTSCALE
 40
1.0
  9
$OSMODE
 70
     0
  9
$ATTMODE
 70
     1
  9
$TEXTSIZE
 40
0.2
  9
$TRACEWID
 40
0.05
  9
$TEXTSTYLE
  7
STANDARD
  9
$CLAYER
  8
0
  9
$CELTYPE
  6
BYLAYER
  9
$CECOLOR
 62
   256
  9
$DIMSCALE
 40
1.0
  9
$DIMASZ
 40
0.18
  9
$DIMEXO
 40
0.0625
  9
$DIMDLI
 40
0.38
  9
$DIMRND
 40
0.0
  9
$DIMDLE
 40
0.0
  9
$DIMEXE
 40
0.18
  9
$DIMTP
 40
0.0
  9
$DIMTM
 40
0.0
  9
$DIMTXT
 40
0.18
  9
$DIMCEN
 40
0.09
  9
$DIMTSZ
 40
0.0
  9
$DIMTOL
 70
     0
  9
$DIMLIM
 70
     0
  9
$DIMTIH
 70
     1
  9
$DIMTOH
 70
     1
  9
$DIMSE1
 70
     0
  9
$DIMSE2
 70
     0
  9
$DIMTAD
 70
     0
  9
$DIMZIN
 70
     0
  9
$DIMBLK
  1

  9
$DIMASO
 70
     1
  9
$DIMSHO
 70
     0
  9
$DIMPOST
  1

  9
$DIMAPOST
  1

  9
$DIMALT
 70
     0
  9
$DIMALTD
 70
     2
  9
$DIMALTF
 40
25.4
  9
$DIMLFAC
 40
1.0
  9
$LUNITS
 70
     2
  9
$LUPREC
 70
     4
  9
$AXISMODE
 70
     0
  9
$AXISUNIT
 10
0.0
 20
0.0
  9
$SKETCHINC
 40
0.1
  9
$FILLETRAD
 40
0.0
  9
$AUNITS
 70
     0
  9
$AUPREC
 70
     0
  9
$MENU
  1
acad
  9
$ELEVATION
 40
0.0
  9
$THICKNESS
 40
0.0
  9
$VIEWDIR
 10
0.0
 20
0.0
 30
1.0
  9
$LIMCHECK
 70
     0
  9
$BLIPMODE
 70
     1
  9
$CHAMFERA
 40
0.0
  9
$CHAMFERB
 40
0.0
  9
$FASTZOOM
 70
     1
  9
$SKPOLY
 70
     0
  9
$TDCREATE
 40
2447222.5666886573
  9
$TDUPDATE
 40
2447222.5666886573
  9
$TDINDWG
 40
0.0000000000
  9
$TDUSRTIMER
 40
0.0000000000
  9
$USRTIMER
 70
     1
  9
$ANGBASE
 50
0.0
  9
$ANGDIR
 70
     0
  9
$PDMODE
 70
     0
  9
$PDSIZE
 40
0.0
  9
$PLINEWID
 40
0.0
  9
$COORDS
 70
     0
  9
$SPLFRAME
 70
     0
  9
$SPLINESEGS
 70
     8
  9
$ATTDIA
 70
     0
  9
$ATTREQ
 70
     1
  9
$USERI1
 70
     0
  9
$USERI2
 70
     0
  9
$USERI3
 70
     0
  9
$USERI4
 70
     0
  9
$USERI5
 70
     0
  9
$USERR1
 40
0.0
  9
$USERR2
 40
0.0
  9
$USERR3
 40
0.0
  9
$USERR4
 40
0.0
  9
$USERR5
 40
0.0
  0
ENDSEC
  0
SECTION
  2
TABLES
  0
TABLE
  2
LTYPE
 70
     13
  0
LTYPE
  2
CONTINUOUS
 70
    64
  3
Solid line
 72
    65
 73
     0
 40
0.0
  0
LTYPE
  2
DASHED
 70
    64
  3
__ __ __ __ __ __ __ __ __ __ __ __ __ __ __
 72
    65
 73
     2
 40
0.75
 49
0.5
 49
-0.25
  0
LTYPE
  2
HIDDEN
 70
    64
  3
_ _ _ _ _ _ _ _ _ _ _ _ _ _ _ _ _ _ _ _ _ _ _
 72
    65
 73
     2
 40
0.375
 49
0.25
 49
-0.125
  0
LTYPE
  2
CENTER
 70
    64
  3
____ _ ____ _ ____ _ ____ _ ____ _ ____ _ ____
 72
    65
 73
     4
 40
2.0
 49
1.25
 49
-0.25
 49
0.25
 49
-0.25
  0
LTYPE
  2
PHANTOM
 70
    64
  3
_____ _ _ _____ _ _ _____ _ _ _____ _ _ ____
 72
    65
 73
     6
 40
2.5
 49
1.25
 49
-0.25
 49
0.25
 49
-0.25
 49
0.25
 49
-0.25
  0
LTYPE
  2
DOT
 70
    64
  3
...............................................
 72
    65
 73
     2
 40
0.25
 49
0.0
 49
-0.25
  0
LTYPE
  2
DASHDOT
 70
    64
  3
__ . __ . __ . __ . __ . __ . __ . __ . __ . __
 72
    65
 73
     4
 40
1.0
 49
0.5
 49
-0.25
 49
0.0
 49
-0.25
  0
LTYPE
  2
BORDER
 70
    64
  3
__ __ . __ __ . __ __ . __ __ . __ __ . __ __
 72
    65
 73
     6
 40
1.75
 49
0.5
 49
-0.25
 49
0.5
 49
-0.25
 49
0.0
 49
-0.25
  0
LTYPE
  2
DIVIDE
 70
    64
  3
__ . . __ . . __ . . __ . . __ . . __ . . __
 72
    65
 73
     6
 40
1.25
 49
0.5
 49
-0.25
 49
0.0
 49
-0.25
 49
0.0
 49
-0.25
  0
LTYPE
  2
DCTYPE1
 70
    64
  3
__ . . __ . . __ . . __ . . __ . . __ . . __
 72
    65
 73
     8
 40
2.5
 49
0.5
 49
-0.25
 49
0.125
 49
-0.25
 49
0.25
 49
-0.25
 49
0.125
 49
-0.25
  0
LTYPE
  2
DCTYPE2
 70
    64
  3
__ . . __ . . __ . . __ . . __ . . __ . . __
 72
    65
 73
     6
 40
2.05
 49
1.0
 49
-0.3
 49
0.15
 49
-0.15
 49
0.15
 49
-0.3
  0
LTYPE
  2
DCTYPE3
 70
    64
  3
__ . . __ . . __ . . __ . . __ . . __ . . __
 72
    65
 73
     6
 40
2.5
 49
0.8
 49
-0.2
 49
0.8
 49
-0.2
 49
0.3
 49
-0.2
  0
LTYPE
  2
DCTYPE4
 70
    64
  3
__ . . __ . . __ . . __ . . __ . . __ . . __
 72
    65
 73
     10
 40
3.97
 49
1.75
 49
-0.3
 49
0.3
 49
-0.3
 49
0.06
 49
-0.3
 49
0.06
 49
-0.3
 49
0.3
 49
-0.3
  0
ENDTAB
  0
TABLE
  2
LAYER
 70
    153
  0
LAYER
  2
LAYER1
 70
 64
 62
     7
  6
CONTINUOUS
  0
LAYER
  2
LAYER10
 70
 64
 62
     1
  6
CONTINUOUS
  0
LAYER
  2
LAYER12
 70
 64
 62
     5
  6
CONTINUOUS
  0
ENDTAB
  0
ENDSEC
  0
SECTION
  2
BLOCKS
  0
ENDSEC
  0
SECTION
  2
ENTITIES
  0
POLYLINE
  8
LAYER1
 62
     7
 66
     1
  6
CONTINUOUS
  0
VERTEX
  8
LAYER1
 62
     7
  6
CONTINUOUS
 10
4.5512
 20
9.5034
  0
VERTEX
  8
LAYER1
 62
     7
  6
CONTINUOUS
 10
4.5538
 20
9.5037
  0
VERTEX
  8
LAYER1
 62
     7
  6
CONTINUOUS
 10
4.5566
 20
9.5036
  0
VERTEX
  8
LAYER1
 62
     7
  6
CONTINUOUS
 10
4.5594
 20
9.5033
  0
VERTEX
  8
LAYER1
 62
     7
  6
CONTINUOUS
 10
4.5623
 20
9.5026
  0
VERTEX
  8
LAYER1
 62
     7
  6
CONTINUOUS
 10
4.5652
 20
9.5018
  0
VERTEX
  8
LAYER1
 62
     7
  6
CONTINUOUS
 10
4.5682
 20
9.5007
  0
VERTEX
  8
LAYER1
 62
     7
  6
CONTINUOUS
 10
4.5712
 20
9.4995
  0
VERTEX
  8
LAYER1
 62
     7
  6
CONTINUOUS
 10
4.5743
 20
9.4983
  0
VERTEX
  8
LAYER1
 62
     7
  6
CONTINUOUS
 10
4.5774
 20
9.4970
  0
VERTEX
  8
LAYER1
 62
     7
  6
CONTINUOUS
 10
4.5804
 20
9.4958
  0
VERTEX
  8
LAYER1
 62
     7
  6
CONTINUOUS
 10
4.5835
 20
9.4946
  0
VERTEX
  8
LAYER1
 62
     7
  6
CONTINUOUS
 10
4.5865
 20
9.4936
  0
VERTEX
  8
LAYER1
 62
     7
  6
CONTINUOUS
 10
4.5894
 20
9.4927
  0
VERTEX
  8
LAYER1
 62
     7
  6
CONTINUOUS
 10
4.5922
 20
9.4920
  0
VERTEX
  8
LAYER1
 62
     7
  6
CONTINUOUS
 10
4.5951
 20
9.4914
  0
VERTEX
  8
LAYER1
 62
     7
  6
CONTINUOUS
 10
4.5979
 20
9.4909
  0
VERTEX
  8
LAYER1
 62
     7
  6
CONTINUOUS
 10
4.6008
 20
9.4905
  0
VERTEX
  8
LAYER1
 62
     7
  6
CONTINUOUS
 10
4.6036
 20
9.4902
  0
VERTEX
  8
LAYER1
 62
     7
  6
CONTINUOUS
 10
4.6065
 20
9.4899
  0
VERTEX
  8
LAYER1
 62
     7
  6
CONTINUOUS
 10
4.6094
 20
9.4897
  0
VERTEX
  8
LAYER1
 62
     7
  6
CONTINUOUS
 10
4.6124
 20
9.4895
  0
VERTEX
  8
LAYER1
 62
     7
  6
CONTINUOUS
 10
4.6154
 20
9.4893
  0
VERTEX
  8
LAYER1
 62
     7
  6
CONTINUOUS
 10
4.6185
 20
9.4891
  0
VERTEX
  8
LAYER1
 62
     7
  6
CONTINUOUS
 10
4.6217
 20
9.4888
  0
VERTEX
  8
LAYER1
 62
     7
  6
CONTINUOUS
 10
4.6247
 20
9.4886
  0
VERTEX
  8
LAYER1
 62
     7
  6
CONTINUOUS
 10
4.6276
 20
9.4882
  0
VERTEX
  8
LAYER1
 62
     7
  6
CONTINUOUS
 10
4.6306
 20
9.4879
  0
VERTEX
  8
LAYER1
 62
     7
  6
CONTINUOUS
 10
4.6335
 20
9.4874
  0
VERTEX
  8
LAYER1
 62
     7
  6
CONTINUOUS
 10
4.6364
 20
9.4868
  0
VERTEX
  8
LAYER1
 62
     7
  6
CONTINUOUS
 10
4.6392
 20
9.4862
  0
VERTEX
  8
LAYER1
 62
     7
  6
CONTINUOUS
 10
4.6419
 20
9.4854
  0
VERTEX
  8
LAYER1
 62
     7
  6
CONTINUOUS
 10
4.6444
 20
9.4844
  0
VERTEX
  8
LAYER1
 62
     7
  6
CONTINUOUS
 10
4.6467
 20
9.4833
  0
VERTEX
  8
LAYER1
 62
     7
  6
CONTINUOUS
 10
4.6487
 20
9.4821
  0
VERTEX
  8
LAYER1
 62
     7
  6
CONTINUOUS
 10
4.6505
 20
9.4806
  0
VERTEX
  8
LAYER1
 62
     7
  6
CONTINUOUS
 10
4.6520
 20
9.4790
  0
VERTEX
  8
LAYER1
 62
     7
  6
CONTINUOUS
 10
4.6534
 20
9.4767
  0
VERTEX
  8
LAYER1
 62
     7
  6
CONTINUOUS
 10
4.6543
 20
9.4740
  0
VERTEX
  8
LAYER1
 62
     7
  6
CONTINUOUS
 10
4.6549
 20
9.4711
  0
VERTEX
  8
LAYER1
 62
     7
  6
CONTINUOUS
 10
4.6551
 20
9.4679
  0
VERTEX
  8
LAYER1
 62
     7
  6
CONTINUOUS
 10
4.6550
 20
9.4646
  0
VERTEX
  8
LAYER1
 62
     7
  6
CONTINUOUS
 10
4.6547
 20
9.4611
  0
VERTEX
  8
LAYER1
 62
     7
  6
CONTINUOUS
 10
4.6542
 20
9.4575
  0
VERTEX
  8
LAYER1
 62
     7
  6
CONTINUOUS
 10
4.6537
 20
9.4538
  0
VERTEX
  8
LAYER1
 62
     7
  6
CONTINUOUS
 10
4.6532
 20
9.4500
  0
VERTEX
  8
LAYER1
 62
     7
  6
CONTINUOUS
 10
4.6528
 20
9.4462
  0
VERTEX
  8
LAYER1
 62
     7
  6
CONTINUOUS
 10
4.6524
 20
9.4425
  0
VERTEX
  8
LAYER1
 62
     7
  6
CONTINUOUS
 10
4.6523
 20
9.4388
  0
VERTEX
  8
LAYER1
 62
     7
  6
CONTINUOUS
 10
4.6524
 20
9.4365
  0
VERTEX
  8
LAYER1
 62
     7
  6
CONTINUOUS
 10
4.6525
 20
9.4342
  0
VERTEX
  8
LAYER1
 62
     7
  6
CONTINUOUS
 10
4.6526
 20
9.4320
  0
VERTEX
  8
LAYER1
 62
     7
  6
CONTINUOUS
 10
4.6528
 20
9.4299
  0
VERTEX
  8
LAYER1
 62
     7
  6
CONTINUOUS
 10
4.6530
 20
9.4277
  0
VERTEX
  8
LAYER1
 62
     7
  6
CONTINUOUS
 10
4.6532
 20
9.4256
  0
VERTEX
  8
LAYER1
 62
     7
  6
CONTINUOUS
 10
4.6534
 20
9.4235
  0
VERTEX
  8
LAYER1
 62
     7
  6
CONTINUOUS
 10
4.6534
 20
9.4215
  0
VERTEX
  8
LAYER1
 62
     7
  6
CONTINUOUS
 10
4.6534
 20
9.4195
  0
VERTEX
  8
LAYER1
 62
     7
  6
CONTINUOUS
 10
4.6533
 20
9.4175
  0
VERTEX
  8
LAYER1
 62
     7
  6
CONTINUOUS
 10
4.6530
 20
9.4155
  0
VERTEX
  8
LAYER1
 62
     7
  6
CONTINUOUS
 10
4.6525
 20
9.4136
  0
VERTEX
  8
LAYER1
 62
     7
  6
CONTINUOUS
 10
4.6518
 20
9.4115
  0
VERTEX
  8
LAYER1
 62
     7
  6
CONTINUOUS
 10
4.6508
 20
9.4094
  0
VERTEX
  8
LAYER1
 62
     7
  6
CONTINUOUS
 10
4.6496
 20
9.4074
  0
VERTEX
  8
LAYER1
 62
     7
  6
CONTINUOUS
 10
4.6483
 20
9.4054
  0
VERTEX
  8
LAYER1
 62
     7
  6
CONTINUOUS
 10
4.6467
 20
9.4035
  0
VERTEX
  8
LAYER1
 62
     7
  6
CONTINUOUS
 10
4.6450
 20
9.4017
  0
VERTEX
  8
LAYER1
 62
     7
  6
CONTINUOUS
 10
4.6432
 20
9.4000
  0
VERTEX
  8
LAYER1
 62
     7
  6
CONTINUOUS
 10
4.6412
 20
9.3984
  0
VERTEX
  8
LAYER1
 62
     7
  6
CONTINUOUS
 10
4.6392
 20
9.3969
  0
VERTEX
  8
LAYER1
 62
     7
  6
CONTINUOUS
 10
4.6370
 20
9.3956
  0
VERTEX
  8
LAYER1
 62
     7
  6
CONTINUOUS
 10
4.6348
 20
9.3944
  0
VERTEX
  8
LAYER1
 62
     7
  6
CONTINUOUS
 10
4.6326
 20
9.3933
  0
VERTEX
  8
LAYER1
 62
     7
  6
CONTINUOUS
 10
4.6285
 20
9.3918
  0
VERTEX
  8
LAYER1
 62
     7
  6
CONTINUOUS
 10
4.6243
 20
9.3908
  0
VERTEX
  8
LAYER1
 62
     7
  6
CONTINUOUS
 10
4.6201
 20
9.3902
  0
VERTEX
  8
LAYER1
 62
     7
  6
CONTINUOUS
 10
4.6158
 20
9.3899
  0
VERTEX
  8
LAYER1
 62
     7
  6
CONTINUOUS
 10
4.6115
 20
9.3901
  0
VERTEX
  8
LAYER1
 62
     7
  6
CONTINUOUS
 10
4.6072
 20
9.3905
  0
VERTEX
  8
LAYER1
 62
     7
  6
CONTINUOUS
 10
4.6029
 20
9.3912
  0
VERTEX
  8
LAYER1
 62
     7
  6
CONTINUOUS
 10
4.5986
 20
9.3922
  0
VERTEX
  8
LAYER1
 62
     7
  6
CONTINUOUS
 10
4.5944
 20
9.3934
  0
VERTEX
  8
LAYER1
 62
     7
  6
CONTINUOUS
 10
4.5903
 20
9.3948
  0
VERTEX
  8
LAYER1
 62
     7
  6
CONTINUOUS
 10
4.5862
 20
9.3963
  0
VERTEX
  8
LAYER1
 62
     7
  6
CONTINUOUS
 10
4.5822
 20
9.3980
  0
VERTEX
  8
LAYER1
 62
     7
  6
CONTINUOUS
 10
4.5805
 20
9.3987
  0
VERTEX
  8
LAYER1
 62
     7
  6
CONTINUOUS
 10
4.5788
 20
9.3995
  0
VERTEX
  8
LAYER1
 62
     7
  6
CONTINUOUS
 10
4.5771
 20
9.4002
  0
VERTEX
  8
LAYER1
 62
     7
  6
CONTINUOUS
 10
4.5754
 20
9.4010
  0
VERTEX
  8
LAYER1
 62
     7
  6
CONTINUOUS
 10
4.5737
 20
9.4018
  0
VERTEX
  8
LAYER1
 62
     7
  6
CONTINUOUS
 10
4.5721
 20
9.4027
  0
VERTEX
  8
LAYER1
 62
     7
  6
CONTINUOUS
 10
4.5704
 20
9.4035
  0
VERTEX
  8
LAYER1
 62
     7
  6
CONTINUOUS
 10
4.5687
 20
9.4043
  0
VERTEX
  8
LAYER1
 62
     7
  6
CONTINUOUS
 10
4.5671
 20
9.4052
  0
VERTEX
  8
LAYER1
 62
     7
  6
CONTINUOUS
 10
4.5654
 20
9.4061
  0
VERTEX
  8
LAYER1
 62
     7
  6
CONTINUOUS
 10
4.5637
 20
9.4070
  0
VERTEX
  8
LAYER1
 62
     7
  6
CONTINUOUS
 10
4.5620
 20
9.4079
  0
VERTEX
  8
LAYER1
 62
     7
  6
CONTINUOUS
 10
4.5601
 20
9.4089
  0
VERTEX
  8
LAYER1
 62
     7
  6
CONTINUOUS
 10
4.5582
 20
9.4099
  0
VERTEX
  8
LAYER1
 62
     7
  6
CONTINUOUS
 10
4.5563
 20
9.4110
  0
VERTEX
  8
LAYER1
 62
     7
  6
CONTINUOUS
 10
4.5544
 20
9.4121
  0
VERTEX
  8
LAYER1
 62
     7
  6
CONTINUOUS
 10
4.5526
 20
9.4132
  0
VERTEX
  8
LAYER1
 62
     7
  6
CONTINUOUS
 10
4.5508
 20
9.4144
  0
VERTEX
  8
LAYER1
 62
     7
  6
CONTINUOUS
 10
4.5490
 20
9.4157
  0
VERTEX
  8
LAYER1
 62
     7
  6
CONTINUOUS
 10
4.5474
 20
9.4170
  0
VERTEX
  8
LAYER1
 62
     7
  6
CONTINUOUS
 10
4.5458
 20
9.4183
  0
VERTEX
  8
LAYER1
 62
     7
  6
CONTINUOUS
 10
4.5443
 20
9.4197
  0
VERTEX
  8
LAYER1
 62
     7
  6
CONTINUOUS
 10
4.5430
 20
9.4212
  0
VERTEX
  8
LAYER1
 62
     7
  6
CONTINUOUS
 10
4.5418
 20
9.4228
  0
VERTEX
  8
LAYER1
 62
     7
  6
CONTINUOUS
 10
4.5401
 20
9.4255
  0
VERTEX
  8
LAYER1
 62
     7
  6
CONTINUOUS
 10
4.5388
 20
9.4285
  0
VERTEX
  8
LAYER1
 62
     7
  6
CONTINUOUS
 10
4.5377
 20
9.4316
  0
VERTEX
  8
LAYER1
 62
     7
  6
CONTINUOUS
 10
4.5369
 20
9.4349
  0
VERTEX
  8
LAYER1
 62
     7
  6
CONTINUOUS
 10
4.5362
 20
9.4383
  0
VERTEX
  8
LAYER1
 62
     7
  6
CONTINUOUS
 10
4.5357
 20
9.4417
  0
VERTEX
  8
LAYER1
 62
     7
  6
CONTINUOUS
 10
4.5352
 20
9.4453
  0
VERTEX
  8
LAYER1
 62
     7
  6
CONTINUOUS
 10
4.5347
 20
9.4488
  0
VERTEX
  8
LAYER1
 62
     7
  6
CONTINUOUS
 10
4.5341
 20
9.4524
  0
VERTEX
  8
LAYER1
 62
     7
  6
CONTINUOUS
 10
4.5334
 20
9.4560
  0
VERTEX
  8
LAYER1
 62
     7
  6
CONTINUOUS
 10
4.5325
 20
9.4595
  0
VERTEX
  8
LAYER1
 62
     7
  6
CONTINUOUS
 10
4.5314
 20
9.4629
  0
VERTEX
  8
LAYER1
 62
     7
  6
CONTINUOUS
 10
4.5309
 20
9.4642
  0
VERTEX
  8
LAYER1
 62
     7
  6
CONTINUOUS
 10
4.5304
 20
9.4655
  0
VERTEX
  8
LAYER1
 62
     7
  6
CONTINUOUS
 10
4.5298
 20
9.4668
  0
VERTEX
  8
LAYER1
 62
     7
  6
CONTINUOUS
 10
4.5292
 20
9.4681
  0
VERTEX
  8
LAYER1
 62
     7
  6
CONTINUOUS
 10
4.5287
 20
9.4693
  0
VERTEX
  8
LAYER1
 62
     7
  6
CONTINUOUS
 10
4.5282
 20
9.4706
  0
VERTEX
  8
LAYER1
 62
     7
  6
CONTINUOUS
 10
4.5277
 20
9.4718
  0
VERTEX
  8
LAYER1
 62
     7
  6
CONTINUOUS
 10
4.5272
 20
9.4731
  0
VERTEX
  8
LAYER1
 62
     7
  6
CONTINUOUS
 10
4.5269
 20
9.4743
  0
VERTEX
  8
LAYER1
 62
     7
  6
CONTINUOUS
 10
4.5266
 20
9.4755
  0
VERTEX
  8
LAYER1
 62
     7
  6
CONTINUOUS
 10
4.5263
 20
9.4768
  0
VERTEX
  8
LAYER1
 62
     7
  6
CONTINUOUS
 10
4.5262
 20
9.4780
  0
VERTEX
  8
LAYER1
 62
     7
  6
CONTINUOUS
 10
4.5264
 20
9.4808
  0
VERTEX
  8
LAYER1
 62
     7
  6
CONTINUOUS
 10
4.5271
 20
9.4835
  0
VERTEX
  8
LAYER1
 62
     7
  6
CONTINUOUS
 10
4.5282
 20
9.4862
  0
VERTEX
  8
LAYER1
 62
     7
  6
CONTINUOUS
 10
4.5298
 20
9.4889
  0
VERTEX
  8
LAYER1
 62
     7
  6
CONTINUOUS
 10
4.5317
 20
9.4914
  0
VERTEX
  8
LAYER1
 62
     7
  6
CONTINUOUS
 10
4.5340
 20
9.4938
  0
VERTEX
  8
LAYER1
 62
     7
  6
CONTINUOUS
 10
4.5365
 20
9.4960
  0
VERTEX
  8
LAYER1
 62
     7
  6
CONTINUOUS
 10
4.5392
 20
9.4980
  0
VERTEX
  8
LAYER1
 62
     7
  6
CONTINUOUS
 10
4.5421
 20
9.4998
  0
VERTEX
  8
LAYER1
 62
     7
  6
CONTINUOUS
 10
4.5451
 20
9.5013
  0
VERTEX
  8
LAYER1
 62
     7
  6
CONTINUOUS
 10
4.5481
 20
9.5025
  0
VERTEX
  8
LAYER1
 62
     7
  6
CONTINUOUS
 10
4.5512
 20
9.5034
  0
SEQEND
  8
LAYER1
  0
CIRCLE
  8
LAYER1
 62
     7
  6
CONTINUOUS
 10
4.4482
 20
9.4849
 40
0.0128
  0
CIRCLE
  8
LAYER1
 62
     7
  6
CONTINUOUS
 10
4.2829
 20
9.3955
 40
0.0153
  0
CIRCLE
  8
LAYER1
 62
     7
  6
CONTINUOUS
 10
4.3186
 20
9.3355
 40
0.0203
  0
CIRCLE
  8
LAYER1
 62
     7
  6
CONTINUOUS
 10
4.3473
 20
9.2049
 40
0.0159
  0
CIRCLE
  8
LAYER1
 62
     7
  6
CONTINUOUS
 10
4.4127
 20
9.2079
 40
0.0226
  0
CIRCLE
  8
LAYER1
 62
     7
  6
CONTINUOUS
 10
4.0753
 20
8.9386
 40
0.0128
  0
CIRCLE
  8
LAYER1
 62
     7
  6
CONTINUOUS
 10
4.1175
 20
9.0119
 40
0.0208
  0
CIRCLE
  8
LAYER1
 62
     7
  6
CONTINUOUS
 10
4.1555
 20
8.9770
 40
0.0215
  0
POLYLINE
  8
LAYER1
 62
     7
 66
     1
  6
HIDDEN
  0
VERTEX
  8
LAYER1
 62
     7
  6
HIDDEN
 10
4.2216
 20
8.5751
  0
VERTEX
  8
LAYER1
 62
     7
  6
HIDDEN
 10
4.2164
 20
8.5901
  0
VERTEX
  8
LAYER1
 62
     7
  6
HIDDEN
 10
4.2212
 20
8.6204
  0
VERTEX
  8
LAYER1
 62
     7
  6
HIDDEN
 10
4.2361
 20
8.6456
  0
VERTEX
  8
LAYER1
 62
     7
  6
HIDDEN
 10
4.2361
 20
8.6456
  0
VERTEX
  8
LAYER1
 62
     7
  6
HIDDEN
 10
4.2560
 20
8.6760
  0
VERTEX
  8
LAYER1
 62
     7
  6
HIDDEN
 10
4.2559
 20
8.6911
  0
VERTEX
  8
LAYER1
 62
     7
  6
HIDDEN
 10
4.2657
 20
8.7163
  0
VERTEX
  8
LAYER1
 62
     7
  6
HIDDEN
 10
4.2656
 20
8.7364
  0
VERTEX
  8
LAYER1
 62
     7
  6
HIDDEN
 10
4.2755
 20
8.7516
  0
VERTEX
  8
LAYER1
 62
     7
  6
HIDDEN
 10
4.2753
 20
8.7767
  0
VERTEX
  8
LAYER1
 62
     7
  6
HIDDEN
 10
4.2853
 20
8.7818
  0
VERTEX
  8
LAYER1
 62
     7
  6
HIDDEN
 10
4.2852
 20
8.7919
  0
VERTEX
  8
LAYER1
 62
     7
  6
HIDDEN
 10
4.2902
 20
8.8020
  0
VERTEX
  8
LAYER1
 62
     7
  6
HIDDEN
 10
4.2953
 20
8.7920
  0
VERTEX
  8
LAYER1
 62
     7
  6
HIDDEN
 10
4.3055
 20
8.7720
  0
VERTEX
  8
LAYER1
 62
     7
  6
HIDDEN
 10
4.2956
 20
8.7568
  0
VERTEX
  8
LAYER1
 62
     7
  6
HIDDEN
 10
4.2957
 20
8.7367
  0
VERTEX
  8
LAYER1
 62
     7
  6
HIDDEN
 10
4.3058
 20
8.7418
  0
VERTEX
  8
LAYER1
 62
     7
  6
HIDDEN
 10
4.3158
 20
8.7469
  0
VERTEX
  8
LAYER1
 62
     7
  6
HIDDEN
 10
4.3210
 20
8.7268
  0
VERTEX
  8
LAYER1
 62
     7
  6
HIDDEN
 10
4.3110
 20
8.7217
  0
VERTEX
  8
LAYER1
 62
     7
  6
HIDDEN
 10
4.3210
 20
8.7218
  0
VERTEX
  8
LAYER1
 62
     7
  6
HIDDEN
 10
4.3362
 20
8.7169
  0
VERTEX
  8
LAYER1
 62
     7
  6
HIDDEN
 10
4.3362
 20
8.7068
  0
VERTEX
  8
LAYER1
 62
     7
  6
HIDDEN
 10
4.3213
 20
8.6916
  0
VERTEX
  8
LAYER1
 62
     7
  6
HIDDEN
 10
4.3062
 20
8.6864
  0
VERTEX
  8
LAYER1
 62
     7
  6
HIDDEN
 10
4.2811
 20
8.6762
  0
VERTEX
  8
LAYER1
 62
     7
  6
HIDDEN
 10
4.2713
 20
8.6509
  0
VERTEX
  8
LAYER1
 62
     7
  6
HIDDEN
 10
4.2663
 20
8.6408
  0
VERTEX
  8
LAYER1
 62
     7
  6
HIDDEN
 10
4.2514
 20
8.6156
  0
VERTEX
  8
LAYER1
 62
     7
  6
HIDDEN
 10
4.2465
 20
8.6004
  0
VERTEX
  8
LAYER1
 62
     7
  6
HIDDEN
 10
4.2316
 20
8.5852
  0
VERTEX
  8
LAYER1
 62
     7
  6
HIDDEN
 10
4.2216
 20
8.5751
  0
VERTEX
  8
LAYER1
 62
     7
  6
HIDDEN
 10
4.2216
 20
8.5751
  0
SEQEND
  8
LAYER1
  0
CIRCLE
  8
LAYER1
 62
     7
  6
CONTINUOUS
 10
4.3646
 20
8.6140
 40
0.0128
  0
CIRCLE
  8
LAYER1
 62
     7
  6
CONTINUOUS
 10
4.1730
 20
8.6778
 40
0.0228
  0
CIRCLE
  8
LAYER1
 62
     7
  6
CONTINUOUS
 10
4.1451
 20
8.7078
 40
0.0183
  0
CIRCLE
  8
LAYER1
 62
     7
  6
CONTINUOUS
 10
4.1165
 20
8.8157
 40
0.0203
  0
CIRCLE
  8
LAYER1
 62
     7
  6
CONTINUOUS
 10
4.1692
 20
8.8363
 40
0.0201
  0
CIRCLE
  8
LAYER1
 62
     7
  6
CONTINUOUS
 10
4.2142
 20
8.8693
 40
0.0263
  0
CIRCLE
  8
LAYER1
 62
     7
  6
CONTINUOUS
 10
4.2844
 20
8.8975
 40
0.0159
  0
CIRCLE
  8
LAYER1
 62
     7
  6
CONTINUOUS
 10
4.3220
 20
8.9180
 40
0.0253
  0
CIRCLE
  8
LAYER1
 62
     7
  6
CONTINUOUS
 10
4.3770
 20
8.9612
 40
0.0178
  0
CIRCLE
  8
LAYER1
 62
     7
  6
CONTINUOUS
 10
4.4498
 20
8.9718
 40
0.0203
  0
CIRCLE
  8
LAYER1
 62
     7
  6
CONTINUOUS
 10
4.4973
 20
9.0149
 40
0.0183
  0
CIRCLE
  8
LAYER1
 62
     7
  6
CONTINUOUS
 10
4.5650
 20
9.0381
 40
0.0226
  0
CIRCLE
  8
LAYER1
 62
     7
  6
CONTINUOUS
 10
4.6226
 20
9.0713
 40
0.0203
  0
CIRCLE
  8
LAYER1
 62
     7
  6
CONTINUOUS
 10
4.7181
 20
9.4539
 40
0.0111
  0
CIRCLE
  8
LAYER1
 62
     7
  6
CONTINUOUS
 10
4.9717
 20
9.4716
 40
0.0249
  0
CIRCLE
  8
LAYER1
 62
     7
  6
CONTINUOUS
 10
4.9677
 20
9.3869
 40
0.0205
  0
CIRCLE
  8
LAYER1
 62
     7
  6
CONTINUOUS
 10
4.6622
 20
9.0973
 40
0.0134
  0
CIRCLE
  8
LAYER1
 62
     7
  6
CONTINUOUS
 10
4.6617
 20
9.1471
 40
0.0174
  0
CIRCLE
  8
LAYER1
 62
     7
  6
CONTINUOUS
 10
4.7160
 20
9.1925
 40
0.0224
  0
CIRCLE
  8
LAYER1
 62
     7
  6
CONTINUOUS
 10
4.7415
 20
9.1330
 40
0.0250
  0
CIRCLE
  8
LAYER1
 62
     7
  6
CONTINUOUS
 10
4.7986
 20
9.1486
 40
0.0190
  0
CIRCLE
  8
LAYER1
 62
     7
  6
CONTINUOUS
 10
4.9450
 20
9.1900
 40
0.0245
  0
CIRCLE
  8
LAYER1
 62
     7
  6
CONTINUOUS
 10
4.9873
 20
9.1930
 40
0.0151
  0
CIRCLE
  8
LAYER1
 62
     7
  6
CONTINUOUS
 10
4.7650
 20
9.2553
 40
0.0111
  0
CIRCLE
  8
LAYER1
 62
     7
  6
CONTINUOUS
 10
4.7946
 20
9.2830
 40
0.0125
  0
ARC
  8
LAYER1
 62
     7
  6
CONTINUOUS
 10
4.0655
 20
8.9083
 40
0.0128
 50
-100.8588
 51
111.5548
  0
ARC
  8
LAYER1
 62
     7
  6
CONTINUOUS
 10
4.0655
 20
8.9083
 40
0.0128
 50
-111.5524
 51
-100.8591
  0
ARC
  8
LAYER1
 62
     7
  6
CONTINUOUS
 10
4.0726
 20
8.9663
 40
0.0159
 50
108.8884
 51
137.8123
  0
ARC
  8
LAYER1
 62
     7
  6
CONTINUOUS
 10
4.0726
 20
8.9663
 40
0.0159
 50
-137.8113
 51
108.8906
  0
ARC
  8
LAYER1
 62
     7
  6
CONTINUOUS
 10
4.0738
 20
8.8154
 40
0.0142
 50
-44.5522
 51
155.9471
  0
ARC
  8
LAYER1
 62
     7
  6
CONTINUOUS
 10
4.0738
 20
8.8154
 40
0.0142
 50
155.9483
 51
-155.9483
  0
ARC
  8
LAYER1
 62
     7
  6
CONTINUOUS
 10
4.0738
 20
8.8154
 40
0.0142
 50
-155.9483
 51
-44.5521
  0
POLYLINE
  8
LAYER1
 62
     7
 66
     1
  6
CONTINUOUS
  0
VERTEX
  8
LAYER1
 62
     7
  6
CONTINUOUS
 10
4.4960
 20
9.5131
  0
VERTEX
  8
LAYER1
 62
     7
  6
CONTINUOUS
 10
4.4960
 20
9.5131
  0
VERTEX
  8
LAYER1
 62
     7
  6
CONTINUOUS
 10
4.4960
 20
9.5131
  0
VERTEX
  8
LAYER1
 62
     7
  6
CONTINUOUS
 10
4.4959
 20
9.5131
  0
VERTEX
  8
LAYER1
 62
     7
  6
CONTINUOUS
 10
4.4959
 20
9.5131
  0
VERTEX
  8
LAYER1
 62
     7
  6
CONTINUOUS
 10
4.4959
 20
9.5130
  0
VERTEX
  8
LAYER1
 62
     7
  6
CONTINUOUS
 10
4.4959
 20
9.5130
  0
VERTEX
  8
LAYER1
 62
     7
  6
CONTINUOUS
 10
4.4959
 20
9.5130
  0
VERTEX
  8
LAYER1
 62
     7
  6
CONTINUOUS
 10
4.4958
 20
9.5130
  0
VERTEX
  8
LAYER1
 62
     7
  6
CONTINUOUS
 10
4.4958
 20
9.5130
  0
VERTEX
  8
LAYER1
 62
     7
  6
CONTINUOUS
 10
4.4958
 20
9.5130
  0
VERTEX
  8
LAYER1
 62
     7
  6
CONTINUOUS
 10
4.4958
 20
9.5130
  0
VERTEX
  8
LAYER1
 62
     7
  6
CONTINUOUS
 10
4.4958
 20
9.5130
  0
VERTEX
  8
LAYER1
 62
     7
  6
CONTINUOUS
 10
4.4940
 20
9.5119
  0
VERTEX
  8
LAYER1
 62
     7
  6
CONTINUOUS
 10
4.4922
 20
9.5111
  0
VERTEX
  8
LAYER1
 62
     7
  6
CONTINUOUS
 10
4.4904
 20
9.5106
  0
VERTEX
  8
LAYER1
 62
     7
  6
CONTINUOUS
 10
4.4885
 20
9.5102
  0
VERTEX
  8
LAYER1
 62
     7
  6
CONTINUOUS
 10
4.4865
 20
9.5100
  0
VERTEX
  8
LAYER1
 62
     7
  6
CONTINUOUS
 10
4.4844
 20
9.5099
  0
VERTEX
  8
LAYER1
 62
     7
  6
CONTINUOUS
 10
4.4823
 20
9.5097
  0
VERTEX
  8
LAYER1
 62
     7
  6
CONTINUOUS
 10
4.4802
 20
9.5096
  0
VERTEX
  8
LAYER1
 62
     7
  6
CONTINUOUS
 10
4.4779
 20
9.5094
  0
VERTEX
  8
LAYER1
 62
     7
  6
CONTINUOUS
 10
4.4756
 20
9.5090
  0
VERTEX
  8
LAYER1
 62
     7
  6
CONTINUOUS
 10
4.4732
 20
9.5085
  0
VERTEX
  8
LAYER1
 62
     7
  6
CONTINUOUS
 10
4.4707
 20
9.5077
  0
VERTEX
  8
LAYER1
 62
     7
  6
CONTINUOUS
 10
4.4691
 20
9.5071
  0
VERTEX
  8
LAYER1
 62
     7
  6
CONTINUOUS
 10
4.4675
 20
9.5064
  0
VERTEX
  8
LAYER1
 62
     7
  6
CONTINUOUS
 10
4.4659
 20
9.5057
  0
VERTEX
  8
LAYER1
 62
     7
  6
CONTINUOUS
 10
4.4643
 20
9.5049
  0
VERTEX
  8
LAYER1
 62
     7
  6
CONTINUOUS
 10
4.4628
 20
9.5042
  0
VERTEX
  8
LAYER1
 62
     7
  6
CONTINUOUS
 10
4.4613
 20
9.5035
  0
VERTEX
  8
LAYER1
 62
     7
  6
CONTINUOUS
 10
4.4600
 20
9.5030
  0
VERTEX
  8
LAYER1
 62
     7
  6
CONTINUOUS
 10
4.4588
 20
9.5025
  0
VERTEX
  8
LAYER1
 62
     7
  6
CONTINUOUS
 10
4.4577
 20
9.5022
  0
VERTEX
  8
LAYER1
 62
     7
  6
CONTINUOUS
 10
4.4568
 20
9.5021
  0
VERTEX
  8
LAYER1
 62
     7
  6
CONTINUOUS
 10
4.4561
 20
9.5022
  0
VERTEX
  8
LAYER1
 62
     7
  6
CONTINUOUS
 10
4.4556
 20
9.5026
  0
VERTEX
  8
LAYER1
 62
     7
  6
CONTINUOUS
 10
4.4554
 20
9.5030
  0
VERTEX
  8
LAYER1
 62
     7
  6
CONTINUOUS
 10
4.4553
 20
9.5035
  0
VERTEX
  8
LAYER1
 62
     7
  6
CONTINUOUS
 10
4.4553
 20
9.5042
  0
VERTEX
  8
LAYER1
 62
     7
  6
CONTINUOUS
 10
4.4553
 20
9.5049
  0
VERTEX
  8
LAYER1
 62
     7
  6
CONTINUOUS
 10
4.4555
 20
9.5057
  0
VERTEX
  8
LAYER1
 62
     7
  6
CONTINUOUS
 10
4.4557
 20
9.5067
  0
VERTEX
  8
LAYER1
 62
     7
  6
CONTINUOUS
 10
4.4559
 20
9.5076
  0
VERTEX
  8
LAYER1
 62
     7
  6
CONTINUOUS
 10
4.4562
 20
9.5087
  0
VERTEX
  8
LAYER1
 62
     7
  6
CONTINUOUS
 10
4.4565
 20
9.5097
  0
VERTEX
  8
LAYER1
 62
     7
  6
CONTINUOUS
 10
4.4569
 20
9.5108
  0
VERTEX
  8
LAYER1
 62
     7
  6
CONTINUOUS
 10
4.4573
 20
9.5120
  0
VERTEX
  8
LAYER1
 62
     7
  6
CONTINUOUS
 10
4.4576
 20
9.5131
  0
SEQEND
  8
LAYER1
  0
POLYLINE
  8
LAYER1
 62
     7
 66
     1
  6
CONTINUOUS
  0
VERTEX
  8
LAYER1
 62
     7
  6
CONTINUOUS
 10
5.0192
 20
9.5131
  0
VERTEX
  8
LAYER1
 62
     7
  6
CONTINUOUS
 10
5.0173
 20
9.5102
  0
VERTEX
  8
LAYER1
 62
     7
  6
CONTINUOUS
 10
5.0154
 20
9.5073
  0
VERTEX
  8
LAYER1
 62
     7
  6
CONTINUOUS
 10
5.0136
 20
9.5043
  0
VERTEX
  8
LAYER1
 62
     7
  6
CONTINUOUS
 10
5.0117
 20
9.5014
  0
VERTEX
  8
LAYER1
 62
     7
  6
CONTINUOUS
 10
5.0098
 20
9.4984
  0
VERTEX
  8
LAYER1
 62
     7
  6
CONTINUOUS
 10
5.0079
 20
9.4955
  0
VERTEX
  8
LAYER1
 62
     7
  6
CONTINUOUS
 10
5.0060
 20
9.4925
  0
VERTEX
  8
LAYER1
 62
     7
  6
CONTINUOUS
 10
5.0041
 20
9.4894
  0
VERTEX
  8
LAYER1
 62
     7
  6
CONTINUOUS
 10
5.0022
 20
9.4863
  0
VERTEX
  8
LAYER1
 62
     7
  6
CONTINUOUS
 10
5.0004
 20
9.4832
  0
VERTEX
  8
LAYER1
 62
     7
  6
CONTINUOUS
 10
4.9985
 20
9.4801
  0
VERTEX
  8
LAYER1
 62
     7
  6
CONTINUOUS
 10
4.9966
 20
9.4769
  0
VERTEX
  8
LAYER1
 62
     7
  6
CONTINUOUS
 10
4.9943
 20
9.4729
  0
VERTEX
  8
LAYER1
 62
     7
  6
CONTINUOUS
 10
4.9920
 20
9.4689
  0
VERTEX
  8
LAYER1
 62
     7
  6
CONTINUOUS
 10
4.9899
 20
9.4648
  0
VERTEX
  8
LAYER1
 62
     7
  6
CONTINUOUS
 10
4.9879
 20
9.4606
  0
VERTEX
  8
LAYER1
 62
     7
  6
CONTINUOUS
 10
4.9860
 20
9.4565
  0
VERTEX
  8
LAYER1
 62
     7
  6
CONTINUOUS
 10
4.9844
 20
9.4523
  0
VERTEX
  8
LAYER1
 62
     7
  6
CONTINUOUS
 10
4.9831
 20
9.4480
  0
VERTEX
  8
LAYER1
 62
     7
  6
CONTINUOUS
 10
4.9821
 20
9.4438
  0
VERTEX
  8
LAYER1
 62
     7
  6
CONTINUOUS
 10
4.9814
 20
9.4396
  0
VERTEX
  8
LAYER1
 62
     7
  6
CONTINUOUS
 10
4.9812
 20
9.4353
  0
VERTEX
  8
LAYER1
 62
     7
  6
CONTINUOUS
 10
4.9815
 20
9.4311
  0
VERTEX
  8
LAYER1
 62
     7
  6
CONTINUOUS
 10
4.9822
 20
9.4269
  0
VERTEX
  8
LAYER1
 62
     7
  6
CONTINUOUS
 10
4.9829
 20
9.4244
  0
VERTEX
  8
LAYER1
 62
     7
  6
CONTINUOUS
 10
4.9838
 20
9.4219
  0
VERTEX
  8
LAYER1
 62
     7
  6
CONTINUOUS
 10
4.9848
 20
9.4194
  0
VERTEX
  8
LAYER1
 62
     7
  6
CONTINUOUS
 10
4.9858
 20
9.4169
  0
VERTEX
  8
LAYER1
 62
     7
  6
CONTINUOUS
 10
4.9870
 20
9.4144
  0
VERTEX
  8
LAYER1
 62
     7
  6
CONTINUOUS
 10
4.9881
 20
9.4120
  0
VERTEX
  8
LAYER1
 62
     7
  6
CONTINUOUS
 10
4.9891
 20
9.4095
  0
VERTEX
  8
LAYER1
 62
     7
  6
CONTINUOUS
 10
4.9901
 20
9.4070
  0
VERTEX
  8
LAYER1
 62
     7
  6
CONTINUOUS
 10
4.9910
 20
9.4046
  0
VERTEX
  8
LAYER1
 62
     7
  6
CONTINUOUS
 10
4.9917
 20
9.4021
  0
VERTEX
  8
LAYER1
 62
     7
  6
CONTINUOUS
 10
4.9922
 20
9.3996
  0
VERTEX
  8
LAYER1
 62
     7
  6
CONTINUOUS
 10
4.9925
 20
9.3972
  0
VERTEX
  8
LAYER1
 62
     7
  6
CONTINUOUS
 10
4.9925
 20
9.3947
  0
VERTEX
  8
LAYER1
 62
     7
  6
CONTINUOUS
 10
4.9922
 20
9.3922
  0
VERTEX
  8
LAYER1
 62
     7
  6
CONTINUOUS
 10
4.9917
 20
9.3897
  0
VERTEX
  8
LAYER1
 62
     7
  6
CONTINUOUS
 10
4.9911
 20
9.3873
  0
VERTEX
  8
LAYER1
 62
     7
  6
CONTINUOUS
 10
4.9902
 20
9.3848
  0
VERTEX
  8
LAYER1
 62
     7
  6
CONTINUOUS
 10
4.9893
 20
9.3823
  0
VERTEX
  8
LAYER1
 62
     7
  6
CONTINUOUS
 10
4.9883
 20
9.3798
  0
VERTEX
  8
LAYER1
 62
     7
  6
CONTINUOUS
 10
4.9872
 20
9.3773
  0
VERTEX
  8
LAYER1
 62
     7
  6
CONTINUOUS
 10
4.9860
 20
9.3748
  0
VERTEX
  8
LAYER1
 62
     7
  6
CONTINUOUS
 10
4.9849
 20
9.3723
  0
VERTEX
  8
LAYER1
 62
     7
  6
CONTINUOUS
 10
4.9839
 20
9.3697
  0
VERTEX
  8
LAYER1
 62
     7
  6
CONTINUOUS
 10
4.9829
 20
9.3672
  0
VERTEX
  8
LAYER1
 62
     7
  6
CONTINUOUS
 10
4.9816
 20
9.3635
  0
VERTEX
  8
LAYER1
 62
     7
  6
CONTINUOUS
 10
4.9804
 20
9.3598
  0
VERTEX
  8
LAYER1
 62
     7
  6
CONTINUOUS
 10
4.9795
 20
9.3560
  0
VERTEX
  8
LAYER1
 62
     7
  6
CONTINUOUS
 10
4.9787
 20
9.3523
  0
VERTEX
  8
LAYER1
 62
     7
  6
CONTINUOUS
 10
4.9780
 20
9.3485
  0
VERTEX
  8
LAYER1
 62
     7
  6
CONTINUOUS
 10
4.9773
 20
9.3448
  0
VERTEX
  8
LAYER1
 62
     7
  6
CONTINUOUS
 10
4.9767
 20
9.3410
  0
VERTEX
  8
LAYER1
 62
     7
  6
CONTINUOUS
 10
4.9761
 20
9.3372
  0
VERTEX
  8
LAYER1
 62
     7
  6
CONTINUOUS
 10
4.9755
 20
9.3335
  0
VERTEX
  8
LAYER1
 62
     7
  6
CONTINUOUS
 10
4.9749
 20
9.3297
  0
VERTEX
  8
LAYER1
 62
     7
  6
CONTINUOUS
 10
4.9742
 20
9.3260
  0
VERTEX
  8
LAYER1
 62
     7
  6
CONTINUOUS
 10
4.9734
 20
9.3223
  0
VERTEX
  8
LAYER1
 62
     7
  6
CONTINUOUS
 10
4.9726
 20
9.3192
  0
VERTEX
  8
LAYER1
 62
     7
  6
CONTINUOUS
 10
4.9718
 20
9.3162
  0
VERTEX
  8
LAYER1
 62
     7
  6
CONTINUOUS
 10
4.9709
 20
9.3131
  0
VERTEX
  8
LAYER1
 62
     7
  6
CONTINUOUS
 10
4.9698
 20
9.3101
  0
VERTEX
  8
LAYER1
 62
     7
  6
CONTINUOUS
 10
4.9687
 20
9.3072
  0
VERTEX
  8
LAYER1
 62
     7
  6
CONTINUOUS
 10
4.9676
 20
9.3042
  0
VERTEX
  8
LAYER1
 62
     7
  6
CONTINUOUS
 10
4.9663
 20
9.3013
  0
VERTEX
  8
LAYER1
 62
     7
  6
CONTINUOUS
 10
4.9650
 20
9.2984
  0
VERTEX
  8
LAYER1
 62
     7
  6
CONTINUOUS
 10
4.9636
 20
9.2956
  0
VERTEX
  8
LAYER1
 62
     7
  6
CONTINUOUS
 10
4.9621
 20
9.2927
  0
VERTEX
  8
LAYER1
 62
     7
  6
CONTINUOUS
 10
4.9605
 20
9.2900
  0
VERTEX
  8
LAYER1
 62
     7
  6
CONTINUOUS
 10
4.9588
 20
9.2873
  0
VERTEX
  8
LAYER1
 62
     7
  6
CONTINUOUS
 10
4.9577
 20
9.2855
  0
VERTEX
  8
LAYER1
 62
     7
  6
CONTINUOUS
 10
4.9566
 20
9.2838
  0
VERTEX
  8
LAYER1
 62
     7
  6
CONTINUOUS
 10
4.9554
 20
9.2821
  0
VERTEX
  8
LAYER1
 62
     7
  6
CONTINUOUS
 10
4.9542
 20
9.2804
  0
VERTEX
  8
LAYER1
 62
     7
  6
CONTINUOUS
 10
4.9530
 20
9.2787
  0
VERTEX
  8
LAYER1
 62
     7
  6
CONTINUOUS
 10
4.9518
 20
9.2770
  0
VERTEX
  8
LAYER1
 62
     7
  6
CONTINUOUS
 10
4.9505
 20
9.2754
  0
VERTEX
  8
LAYER1
 62
     7
  6
CONTINUOUS
 10
4.9492
 20
9.2737
  0
VERTEX
  8
LAYER1
 62
     7
  6
CONTINUOUS
 10
4.9480
 20
9.2721
  0
VERTEX
  8
LAYER1
 62
     7
  6
CONTINUOUS
 10
4.9467
 20
9.2704
  0
VERTEX
  8
LAYER1
 62
     7
  6
CONTINUOUS
 10
4.9454
 20
9.2688
  0
VERTEX
  8
LAYER1
 62
     7
  6
CONTINUOUS
 10
4.9441
 20
9.2672
  0
VERTEX
  8
LAYER1
 62
     7
  6
CONTINUOUS
 10
4.9429
 20
9.2656
  0
VERTEX
  8
LAYER1
 62
     7
  6
CONTINUOUS
 10
4.9416
 20
9.2639
  0
VERTEX
  8
LAYER1
 62
     7
  6
CONTINUOUS
 10
4.9403
 20
9.2623
  0
VERTEX
  8
LAYER1
 62
     7
  6
CONTINUOUS
 10
4.9390
 20
9.2607
  0
VERTEX
  8
LAYER1
 62
     7
  6
CONTINUOUS
 10
4.9378
 20
9.2590
  0
VERTEX
  8
LAYER1
 62
     7
  6
CONTINUOUS
 10
4.9365
 20
9.2574
  0
VERTEX
  8
LAYER1
 62
     7
  6
CONTINUOUS
 10
4.9353
 20
9.2557
  0
VERTEX
  8
LAYER1
 62
     7
  6
CONTINUOUS
 10
4.9341
 20
9.2541
  0
VERTEX
  8
LAYER1
 62
     7
  6
CONTINUOUS
 10
4.9329
 20
9.2523
  0
VERTEX
  8
LAYER1
 62
     7
  6
CONTINUOUS
 10
4.9317
 20
9.2506
  0
VERTEX
  8
LAYER1
 62
     7
  6
CONTINUOUS
 10
4.9306
 20
9.2489
  0
VERTEX
  8
LAYER1
 62
     7
  6
CONTINUOUS
 10
4.9294
 20
9.2471
  0
VERTEX
  8
LAYER1
 62
     7
  6
CONTINUOUS
 10
4.9282
 20
9.2452
  0
VERTEX
  8
LAYER1
 62
     7
  6
CONTINUOUS
 10
4.9271
 20
9.2432
  0
VERTEX
  8
LAYER1
 62
     7
  6
CONTINUOUS
 10
4.9259
 20
9.2412
  0
VERTEX
  8
LAYER1
 62
     7
  6
CONTINUOUS
 10
4.9249
 20
9.2392
  0
VERTEX
  8
LAYER1
 62
     7
  6
CONTINUOUS
 10
4.9239
 20
9.2371
  0
VERTEX
  8
LAYER1
 62
     7
  6
CONTINUOUS
 10
4.9230
 20
9.2350
  0
VERTEX
  8
LAYER1
 62
     7
  6
CONTINUOUS
 10
4.9222
 20
9.2329
  0
VERTEX
  8
LAYER1
 62
     7
  6
CONTINUOUS
 10
4.9214
 20
9.2308
  0
VERTEX
  8
LAYER1
 62
     7
  6
CONTINUOUS
 10
4.9208
 20
9.2286
  0
VERTEX
  8
LAYER1
 62
     7
  6
CONTINUOUS
 10
4.9203
 20
9.2265
  0
VERTEX
  8
LAYER1
 62
     7
  6
CONTINUOUS
 10
4.9200
 20
9.2243
  0
VERTEX
  8
LAYER1
 62
     7
  6
CONTINUOUS
 10
4.9197
 20
9.2221
  0
VERTEX
  8
LAYER1
 62
     7
  6
CONTINUOUS
 10
4.9197
 20
9.2208
  0
VERTEX
  8
LAYER1
 62
     7
  6
CONTINUOUS
 10
4.9196
 20
9.2195
  0
VERTEX
  8
LAYER1
 62
     7
  6
CONTINUOUS
 10
4.9197
 20
9.2182
  0
VERTEX
  8
LAYER1
 62
     7
  6
CONTINUOUS
 10
4.9197
 20
9.2169
  0
VERTEX
  8
LAYER1
 62
     7
  6
CONTINUOUS
 10
4.9198
 20
9.2156
  0
VERTEX
  8
LAYER1
 62
     7
  6
CONTINUOUS
 10
4.9200
 20
9.2143
  0
VERTEX
  8
LAYER1
 62
     7
  6
CONTINUOUS
 10
4.9201
 20
9.2130
  0
VERTEX
  8
LAYER1
 62
     7
  6
CONTINUOUS
 10
4.9203
 20
9.2117
  0
VERTEX
  8
LAYER1
 62
     7
  6
CONTINUOUS
 10
4.9205
 20
9.2104
  0
VERTEX
  8
LAYER1
 62
     7
  6
CONTINUOUS
 10
4.9207
 20
9.2091
  0
VERTEX
  8
LAYER1
 62
     7
  6
CONTINUOUS
 10
4.9209
 20
9.2078
  0
VERTEX
  8
LAYER1
 62
     7
  6
CONTINUOUS
 10
4.9211
 20
9.2065
  0
SEQEND
  8
LAYER1
  0
ARC
  8
LAYER1
 62
     7
  6
CONTINUOUS
 10
4.8891
 20
9.5155
 40
0.0174
 50
-174.8159
 51
-172.1140
  0
ARC
  8
LAYER1
 62
     7
  6
CONTINUOUS
 10
4.8891
 20
9.5155
 40
0.0174
 50
-172.1136
 51
-7.8895
  0
POLYLINE
  8
LAYER1
 62
     7
 66
     1
  6
CONTINUOUS
  0
VERTEX
  8
LAYER1
 62
     7
  6
CONTINUOUS
 10
4.4971
 20
9.5139
  0
VERTEX
  8
LAYER1
 62
     7
  6
CONTINUOUS
 10
4.4971
 20
9.5139
  0
VERTEX
  8
LAYER1
 62
     7
  6
CONTINUOUS
 10
4.4971
 20
9.5139
  0
VERTEX
  8
LAYER1
 62
     7
  6
CONTINUOUS
 10
4.4971
 20
9.5139
  0
VERTEX
  8
LAYER1
 62
     7
  6
CONTINUOUS
 10
4.4971
 20
9.5139
  0
VERTEX
  8
LAYER1
 62
     7
  6
CONTINUOUS
 10
4.4971
 20
9.5139
  0
VERTEX
  8
LAYER1
 62
     7
  6
CONTINUOUS
 10
4.4971
 20
9.5139
  0
VERTEX
  8
LAYER1
 62
     7
  6
CONTINUOUS
 10
4.4971
 20
9.5139
  0
VERTEX
  8
LAYER1
 62
     7
  6
CONTINUOUS
 10
4.4971
 20
9.5139
  0
VERTEX
  8
LAYER1
 62
     7
  6
CONTINUOUS
 10
4.4971
 20
9.5139
  0
VERTEX
  8
LAYER1
 62
     7
  6
CONTINUOUS
 10
4.4971
 20
9.5139
  0
VERTEX
  8
LAYER1
 62
     7
  6
CONTINUOUS
 10
4.4971
 20
9.5139
  0
VERTEX
  8
LAYER1
 62
     7
  6
CONTINUOUS
 10
4.4971
 20
9.5139
  0
VERTEX
  8
LAYER1
 62
     7
  6
CONTINUOUS
 10
4.4971
 20
9.5139
  0
VERTEX
  8
LAYER1
 62
     7
  6
CONTINUOUS
 10
4.4971
 20
9.5139
  0
VERTEX
  8
LAYER1
 62
     7
  6
CONTINUOUS
 10
4.4971
 20
9.5139
  0
VERTEX
  8
LAYER1
 62
     7
  6
CONTINUOUS
 10
4.4971
 20
9.5139
  0
VERTEX
  8
LAYER1
 62
     7
  6
CONTINUOUS
 10
4.4971
 20
9.5139
  0
VERTEX
  8
LAYER1
 62
     7
  6
CONTINUOUS
 10
4.4971
 20
9.5139
  0
VERTEX
  8
LAYER1
 62
     7
  6
CONTINUOUS
 10
4.4971
 20
9.5139
  0
VERTEX
  8
LAYER1
 62
     7
  6
CONTINUOUS
 10
4.4971
 20
9.5139
  0
VERTEX
  8
LAYER1
 62
     7
  6
CONTINUOUS
 10
4.4971
 20
9.5139
  0
VERTEX
  8
LAYER1
 62
     7
  6
CONTINUOUS
 10
4.4971
 20
9.5139
  0
VERTEX
  8
LAYER1
 62
     7
  6
CONTINUOUS
 10
4.4971
 20
9.5139
  0
VERTEX
  8
LAYER1
 62
     7
  6
CONTINUOUS
 10
4.4971
 20
9.5139
  0
SEQEND
  8
LAYER1
  0
POLYLINE
  8
LAYER1
 62
     7
 66
     1
  6
CONTINUOUS
  0
VERTEX
  8
LAYER1
 62
     7
  6
CONTINUOUS
 10
4.4971
 20
9.5139
  0
VERTEX
  8
LAYER1
 62
     7
  6
CONTINUOUS
 10
4.4971
 20
9.5139
  0
VERTEX
  8
LAYER1
 62
     7
  6
CONTINUOUS
 10
4.4971
 20
9.5139
  0
VERTEX
  8
LAYER1
 62
     7
  6
CONTINUOUS
 10
4.4971
 20
9.5139
  0
VERTEX
  8
LAYER1
 62
     7
  6
CONTINUOUS
 10
4.4971
 20
9.5139
  0
VERTEX
  8
LAYER1
 62
     7
  6
CONTINUOUS
 10
4.4971
 20
9.5139
  0
VERTEX
  8
LAYER1
 62
     7
  6
CONTINUOUS
 10
4.4971
 20
9.5139
  0
VERTEX
  8
LAYER1
 62
     7
  6
CONTINUOUS
 10
4.4971
 20
9.5139
  0
VERTEX
  8
LAYER1
 62
     7
  6
CONTINUOUS
 10
4.4971
 20
9.5139
  0
VERTEX
  8
LAYER1
 62
     7
  6
CONTINUOUS
 10
4.4971
 20
9.5139
  0
VERTEX
  8
LAYER1
 62
     7
  6
CONTINUOUS
 10
4.4971
 20
9.5139
  0
VERTEX
  8
LAYER1
 62
     7
  6
CONTINUOUS
 10
4.4971
 20
9.5139
  0
VERTEX
  8
LAYER1
 62
     7
  6
CONTINUOUS
 10
4.4971
 20
9.5139
  0
VERTEX
  8
LAYER1
 62
     7
  6
CONTINUOUS
 10
4.4971
 20
9.5139
  0
VERTEX
  8
LAYER1
 62
     7
  6
CONTINUOUS
 10
4.4971
 20
9.5139
  0
VERTEX
  8
LAYER1
 62
     7
  6
CONTINUOUS
 10
4.4971
 20
9.5139
  0
VERTEX
  8
LAYER1
 62
     7
  6
CONTINUOUS
 10
4.4971
 20
9.5139
  0
VERTEX
  8
LAYER1
 62
     7
  6
CONTINUOUS
 10
4.4971
 20
9.5139
  0
VERTEX
  8
LAYER1
 62
     7
  6
CONTINUOUS
 10
4.4971
 20
9.5139
  0
VERTEX
  8
LAYER1
 62
     7
  6
CONTINUOUS
 10
4.4971
 20
9.5139
  0
VERTEX
  8
LAYER1
 62
     7
  6
CONTINUOUS
 10
4.4971
 20
9.5139
  0
VERTEX
  8
LAYER1
 62
     7
  6
CONTINUOUS
 10
4.4971
 20
9.5139
  0
VERTEX
  8
LAYER1
 62
     7
  6
CONTINUOUS
 10
4.4971
 20
9.5139
  0
VERTEX
  8
LAYER1
 62
     7
  6
CONTINUOUS
 10
4.4971
 20
9.5139
  0
VERTEX
  8
LAYER1
 62
     7
  6
CONTINUOUS
 10
4.4971
 20
9.5139
  0
SEQEND
  8
LAYER1
  0
POLYLINE
  8
LAYER1
 62
     7
 66
     1
  6
CONTINUOUS
  0
VERTEX
  8
LAYER1
 62
     7
  6
CONTINUOUS
 10
4.4971
 20
9.5139
  0
VERTEX
  8
LAYER1
 62
     7
  6
CONTINUOUS
 10
4.4971
 20
9.5139
  0
VERTEX
  8
LAYER1
 62
     7
  6
CONTINUOUS
 10
4.4971
 20
9.5139
  0
VERTEX
  8
LAYER1
 62
     7
  6
CONTINUOUS
 10
4.4971
 20
9.5139
  0
VERTEX
  8
LAYER1
 62
     7
  6
CONTINUOUS
 10
4.4971
 20
9.5139
  0
VERTEX
  8
LAYER1
 62
     7
  6
CONTINUOUS
 10
4.4971
 20
9.5139
  0
VERTEX
  8
LAYER1
 62
     7
  6
CONTINUOUS
 10
4.4971
 20
9.5139
  0
VERTEX
  8
LAYER1
 62
     7
  6
CONTINUOUS
 10
4.4971
 20
9.5139
  0
VERTEX
  8
LAYER1
 62
     7
  6
CONTINUOUS
 10
4.4971
 20
9.5139
  0
VERTEX
  8
LAYER1
 62
     7
  6
CONTINUOUS
 10
4.4971
 20
9.5139
  0
VERTEX
  8
LAYER1
 62
     7
  6
CONTINUOUS
 10
4.4971
 20
9.5139
  0
VERTEX
  8
LAYER1
 62
     7
  6
CONTINUOUS
 10
4.4971
 20
9.5139
  0
VERTEX
  8
LAYER1
 62
     7
  6
CONTINUOUS
 10
4.4971
 20
9.5139
  0
VERTEX
  8
LAYER1
 62
     7
  6
CONTINUOUS
 10
4.4971
 20
9.5139
  0
VERTEX
  8
LAYER1
 62
     7
  6
CONTINUOUS
 10
4.4971
 20
9.5139
  0
VERTEX
  8
LAYER1
 62
     7
  6
CONTINUOUS
 10
4.4971
 20
9.5139
  0
VERTEX
  8
LAYER1
 62
     7
  6
CONTINUOUS
 10
4.4971
 20
9.5139
  0
VERTEX
  8
LAYER1
 62
     7
  6
CONTINUOUS
 10
4.4971
 20
9.5139
  0
VERTEX
  8
LAYER1
 62
     7
  6
CONTINUOUS
 10
4.4971
 20
9.5139
  0
VERTEX
  8
LAYER1
 62
     7
  6
CONTINUOUS
 10
4.4971
 20
9.5139
  0
VERTEX
  8
LAYER1
 62
     7
  6
CONTINUOUS
 10
4.4971
 20
9.5139
  0
VERTEX
  8
LAYER1
 62
     7
  6
CONTINUOUS
 10
4.4971
 20
9.5139
  0
VERTEX
  8
LAYER1
 62
     7
  6
CONTINUOUS
 10
4.4971
 20
9.5139
  0
VERTEX
  8
LAYER1
 62
     7
  6
CONTINUOUS
 10
4.4971
 20
9.5139
  0
VERTEX
  8
LAYER1
 62
     7
  6
CONTINUOUS
 10
4.4971
 20
9.5139
  0
SEQEND
  8
LAYER1
  0
POLYLINE
  8
LAYER1
 62
     7
 66
     1
  6
CONTINUOUS
  0
VERTEX
  8
LAYER1
 62
     7
  6
CONTINUOUS
 10
5.0197
 20
9.5139
  0
VERTEX
  8
LAYER1
 62
     7
  6
CONTINUOUS
 10
5.0197
 20
9.5139
  0
VERTEX
  8
LAYER1
 62
     7
  6
CONTINUOUS
 10
5.0197
 20
9.5139
  0
VERTEX
  8
LAYER1
 62
     7
  6
CONTINUOUS
 10
5.0197
 20
9.5139
  0
VERTEX
  8
LAYER1
 62
     7
  6
CONTINUOUS
 10
5.0197
 20
9.5139
  0
VERTEX
  8
LAYER1
 62
     7
  6
CONTINUOUS
 10
5.0197
 20
9.5139
  0
VERTEX
  8
LAYER1
 62
     7
  6
CONTINUOUS
 10
5.0197
 20
9.5139
  0
VERTEX
  8
LAYER1
 62
     7
  6
CONTINUOUS
 10
5.0197
 20
9.5139
  0
VERTEX
  8
LAYER1
 62
     7
  6
CONTINUOUS
 10
5.0197
 20
9.5139
  0
VERTEX
  8
LAYER1
 62
     7
  6
CONTINUOUS
 10
5.0197
 20
9.5139
  0
VERTEX
  8
LAYER1
 62
     7
  6
CONTINUOUS
 10
5.0197
 20
9.5139
  0
VERTEX
  8
LAYER1
 62
     7
  6
CONTINUOUS
 10
5.0197
 20
9.5139
  0
VERTEX
  8
LAYER1
 62
     7
  6
CONTINUOUS
 10
5.0197
 20
9.5139
  0
VERTEX
  8
LAYER1
 62
     7
  6
CONTINUOUS
 10
5.0197
 20
9.5139
  0
VERTEX
  8
LAYER1
 62
     7
  6
CONTINUOUS
 10
5.0197
 20
9.5139
  0
VERTEX
  8
LAYER1
 62
     7
  6
CONTINUOUS
 10
5.0197
 20
9.5139
  0
VERTEX
  8
LAYER1
 62
     7
  6
CONTINUOUS
 10
5.0197
 20
9.5139
  0
VERTEX
  8
LAYER1
 62
     7
  6
CONTINUOUS
 10
5.0197
 20
9.5139
  0
VERTEX
  8
LAYER1
 62
     7
  6
CONTINUOUS
 10
5.0197
 20
9.5139
  0
VERTEX
  8
LAYER1
 62
     7
  6
CONTINUOUS
 10
5.0197
 20
9.5139
  0
VERTEX
  8
LAYER1
 62
     7
  6
CONTINUOUS
 10
5.0197
 20
9.5139
  0
VERTEX
  8
LAYER1
 62
     7
  6
CONTINUOUS
 10
5.0197
 20
9.5139
  0
VERTEX
  8
LAYER1
 62
     7
  6
CONTINUOUS
 10
5.0197
 20
9.5139
  0
VERTEX
  8
LAYER1
 62
     7
  6
CONTINUOUS
 10
5.0197
 20
9.5139
  0
VERTEX
  8
LAYER1
 62
     7
  6
CONTINUOUS
 10
5.0197
 20
9.5139
  0
SEQEND
  8
LAYER1
  0
POLYLINE
  8
LAYER1
 62
     7
 66
     1
  6
CONTINUOUS
  0
VERTEX
  8
LAYER1
 62
     7
  6
CONTINUOUS
 10
4.4971
 20
9.5139
  0
VERTEX
  8
LAYER1
 62
     7
  6
CONTINUOUS
 10
4.4971
 20
9.5139
  0
VERTEX
  8
LAYER1
 62
     7
  6
CONTINUOUS
 10
4.4971
 20
9.5139
  0
VERTEX
  8
LAYER1
 62
     7
  6
CONTINUOUS
 10
4.4971
 20
9.5139
  0
VERTEX
  8
LAYER1
 62
     7
  6
CONTINUOUS
 10
4.4971
 20
9.5139
  0
VERTEX
  8
LAYER1
 62
     7
  6
CONTINUOUS
 10
4.4971
 20
9.5139
  0
VERTEX
  8
LAYER1
 62
     7
  6
CONTINUOUS
 10
4.4971
 20
9.5139
  0
VERTEX
  8
LAYER1
 62
     7
  6
CONTINUOUS
 10
4.4971
 20
9.5139
  0
VERTEX
  8
LAYER1
 62
     7
  6
CONTINUOUS
 10
4.4971
 20
9.5139
  0
VERTEX
  8
LAYER1
 62
     7
  6
CONTINUOUS
 10
4.4971
 20
9.5139
  0
VERTEX
  8
LAYER1
 62
     7
  6
CONTINUOUS
 10
4.4971
 20
9.5139
  0
VERTEX
  8
LAYER1
 62
     7
  6
CONTINUOUS
 10
4.4971
 20
9.5139
  0
VERTEX
  8
LAYER1
 62
     7
  6
CONTINUOUS
 10
4.4971
 20
9.5139
  0
VERTEX
  8
LAYER1
 62
     7
  6
CONTINUOUS
 10
4.4974
 20
9.5139
  0
VERTEX
  8
LAYER1
 62
     7
  6
CONTINUOUS
 10
4.4977
 20
9.5139
  0
VERTEX
  8
LAYER1
 62
     7
  6
CONTINUOUS
 10
4.4978
 20
9.5139
  0
VERTEX
  8
LAYER1
 62
     7
  6
CONTINUOUS
 10
4.4979
 20
9.5139
  0
VERTEX
  8
LAYER1
 62
     7
  6
CONTINUOUS
 10
4.4980
 20
9.5139
  0
VERTEX
  8
LAYER1
 62
     7
  6
CONTINUOUS
 10
4.4979
 20
9.5139
  0
VERTEX
  8
LAYER1
 62
     7
  6
CONTINUOUS
 10
4.4979
 20
9.5139
  0
VERTEX
  8
LAYER1
 62
     7
  6
CONTINUOUS
 10
4.4978
 20
9.5139
  0
VERTEX
  8
LAYER1
 62
     7
  6
CONTINUOUS
 10
4.4976
 20
9.5139
  0
VERTEX
  8
LAYER1
 62
     7
  6
CONTINUOUS
 10
4.4975
 20
9.5139
  0
VERTEX
  8
LAYER1
 62
     7
  6
CONTINUOUS
 10
4.4973
 20
9.5139
  0
VERTEX
  8
LAYER1
 62
     7
  6
CONTINUOUS
 10
4.4971
 20
9.5139
  0
SEQEND
  8
LAYER1
  0
POLYLINE
  8
LAYER1
 62
     7
 66
     1
  6
CONTINUOUS
  0
VERTEX
  8
LAYER1
 62
     7
  6
CONTINUOUS
 10
4.4971
 20
9.5139
  0
VERTEX
  8
LAYER1
 62
     7
  6
CONTINUOUS
 10
4.4970
 20
9.5138
  0
VERTEX
  8
LAYER1
 62
     7
  6
CONTINUOUS
 10
4.4969
 20
9.5138
  0
VERTEX
  8
LAYER1
 62
     7
  6
CONTINUOUS
 10
4.4968
 20
9.5137
  0
VERTEX
  8
LAYER1
 62
     7
  6
CONTINUOUS
 10
4.4967
 20
9.5136
  0
VERTEX
  8
LAYER1
 62
     7
  6
CONTINUOUS
 10
4.4966
 20
9.5136
  0
VERTEX
  8
LAYER1
 62
     7
  6
CONTINUOUS
 10
4.4965
 20
9.5135
  0
VERTEX
  8
LAYER1
 62
     7
  6
CONTINUOUS
 10
4.4964
 20
9.5134
  0
VERTEX
  8
LAYER1
 62
     7
  6
CONTINUOUS
 10
4.4963
 20
9.5133
  0
VERTEX
  8
LAYER1
 62
     7
  6
CONTINUOUS
 10
4.4962
 20
9.5133
  0
VERTEX
  8
LAYER1
 62
     7
  6
CONTINUOUS
 10
4.4961
 20
9.5132
  0
VERTEX
  8
LAYER1
 62
     7
  6
CONTINUOUS
 10
4.4961
 20
9.5132
  0
VERTEX
  8
LAYER1
 62
     7
  6
CONTINUOUS
 10
4.4960
 20
9.5131
  0
VERTEX
  8
LAYER1
 62
     7
  6
CONTINUOUS
 10
4.4958
 20
9.5130
  0
VERTEX
  8
LAYER1
 62
     7
  6
CONTINUOUS
 10
4.4956
 20
9.5129
  0
VERTEX
  8
LAYER1
 62
     7
  6
CONTINUOUS
 10
4.4955
 20
9.5128
  0
VERTEX
  8
LAYER1
 62
     7
  6
CONTINUOUS
 10
4.4955
 20
9.5127
  0
VERTEX
  8
LAYER1
 62
     7
  6
CONTINUOUS
 10
4.4955
 20
9.5127
  0
VERTEX
  8
LAYER1
 62
     7
  6
CONTINUOUS
 10
4.4955
 20
9.5127
  0
VERTEX
  8
LAYER1
 62
     7
  6
CONTINUOUS
 10
4.4955
 20
9.5128
  0
VERTEX
  8
LAYER1
 62
     7
  6
CONTINUOUS
 10
4.4956
 20
9.5128
  0
VERTEX
  8
LAYER1
 62
     7
  6
CONTINUOUS
 10
4.4957
 20
9.5129
  0
VERTEX
  8
LAYER1
 62
     7
  6
CONTINUOUS
 10
4.4958
 20
9.5129
  0
VERTEX
  8
LAYER1
 62
     7
  6
CONTINUOUS
 10
4.4959
 20
9.5130
  0
VERTEX
  8
LAYER1
 62
     7
  6
CONTINUOUS
 10
4.4960
 20
9.5131
  0
SEQEND
  8
LAYER1
  0
POLYLINE
  8
LAYER1
 62
     7
 66
     1
  6
CONTINUOUS
  0
VERTEX
  8
LAYER1
 62
     7
  6
CONTINUOUS
 10
4.4576
 20
9.5131
  0
VERTEX
  8
LAYER1
 62
     7
  6
CONTINUOUS
 10
4.4577
 20
9.5132
  0
VERTEX
  8
LAYER1
 62
     7
  6
CONTINUOUS
 10
4.4577
 20
9.5133
  0
VERTEX
  8
LAYER1
 62
     7
  6
CONTINUOUS
 10
4.4577
 20
9.5133
  0
VERTEX
  8
LAYER1
 62
     7
  6
CONTINUOUS
 10
4.4577
 20
9.5134
  0
VERTEX
  8
LAYER1
 62
     7
  6
CONTINUOUS
 10
4.4577
 20
9.5135
  0
VERTEX
  8
LAYER1
 62
     7
  6
CONTINUOUS
 10
4.4577
 20
9.5135
  0
VERTEX
  8
LAYER1
 62
     7
  6
CONTINUOUS
 10
4.4577
 20
9.5136
  0
VERTEX
  8
LAYER1
 62
     7
  6
CONTINUOUS
 10
4.4578
 20
9.5137
  0
VERTEX
  8
LAYER1
 62
     7
  6
CONTINUOUS
 10
4.4578
 20
9.5137
  0
VERTEX
  8
LAYER1
 62
     7
  6
CONTINUOUS
 10
4.4578
 20
9.5138
  0
VERTEX
  8
LAYER1
 62
     7
  6
CONTINUOUS
 10
4.4578
 20
9.5139
  0
VERTEX
  8
LAYER1
 62
     7
  6
CONTINUOUS
 10
4.4578
 20
9.5139
  0
VERTEX
  8
LAYER1
 62
     7
  6
CONTINUOUS
 10
4.4579
 20
9.5142
  0
VERTEX
  8
LAYER1
 62
     7
  6
CONTINUOUS
 10
4.4579
 20
9.5144
  0
VERTEX
  8
LAYER1
 62
     7
  6
CONTINUOUS
 10
4.4579
 20
9.5145
  0
VERTEX
  8
LAYER1
 62
     7
  6
CONTINUOUS
 10
4.4579
 20
9.5146
  0
VERTEX
  8
LAYER1
 62
     7
  6
CONTINUOUS
 10
4.4579
 20
9.5146
  0
VERTEX
  8
LAYER1
 62
     7
  6
CONTINUOUS
 10
4.4579
 20
9.5146
  0
VERTEX
  8
LAYER1
 62
     7
  6
CONTINUOUS
 10
4.4579
 20
9.5146
  0
VERTEX
  8
LAYER1
 62
     7
  6
CONTINUOUS
 10
4.4579
 20
9.5145
  0
VERTEX
  8
LAYER1
 62
     7
  6
CONTINUOUS
 10
4.4579
 20
9.5144
  0
VERTEX
  8
LAYER1
 62
     7
  6
CONTINUOUS
 10
4.4579
 20
9.5142
  0
VERTEX
  8
LAYER1
 62
     7
  6
CONTINUOUS
 10
4.4578
 20
9.5141
  0
VERTEX
  8
LAYER1
 62
     7
  6
CONTINUOUS
 10
4.4578
 20
9.5139
  0
SEQEND
  8
LAYER1
  0
POLYLINE
  8
LAYER1
 62
     7
 66
     1
  6
CONTINUOUS
  0
VERTEX
  8
LAYER1
 62
     7
  6
CONTINUOUS
 10
4.4578
 20
9.5139
  0
VERTEX
  8
LAYER1
 62
     7
  6
CONTINUOUS
 10
4.4578
 20
9.5139
  0
VERTEX
  8
LAYER1
 62
     7
  6
CONTINUOUS
 10
4.4578
 20
9.5139
  0
VERTEX
  8
LAYER1
 62
     7
  6
CONTINUOUS
 10
4.4578
 20
9.5139
  0
VERTEX
  8
LAYER1
 62
     7
  6
CONTINUOUS
 10
4.4578
 20
9.5139
  0
VERTEX
  8
LAYER1
 62
     7
  6
CONTINUOUS
 10
4.4578
 20
9.5139
  0
VERTEX
  8
LAYER1
 62
     7
  6
CONTINUOUS
 10
4.4578
 20
9.5139
  0
VERTEX
  8
LAYER1
 62
     7
  6
CONTINUOUS
 10
4.4578
 20
9.5139
  0
VERTEX
  8
LAYER1
 62
     7
  6
CONTINUOUS
 10
4.4578
 20
9.5139
  0
VERTEX
  8
LAYER1
 62
     7
  6
CONTINUOUS
 10
4.4578
 20
9.5139
  0
VERTEX
  8
LAYER1
 62
     7
  6
CONTINUOUS
 10
4.4578
 20
9.5139
  0
VERTEX
  8
LAYER1
 62
     7
  6
CONTINUOUS
 10
4.4578
 20
9.5139
  0
VERTEX
  8
LAYER1
 62
     7
  6
CONTINUOUS
 10
4.4578
 20
9.5139
  0
VERTEX
  8
LAYER1
 62
     7
  6
CONTINUOUS
 10
4.4578
 20
9.5139
  0
VERTEX
  8
LAYER1
 62
     7
  6
CONTINUOUS
 10
4.4578
 20
9.5139
  0
VERTEX
  8
LAYER1
 62
     7
  6
CONTINUOUS
 10
4.4578
 20
9.5139
  0
VERTEX
  8
LAYER1
 62
     7
  6
CONTINUOUS
 10
4.4578
 20
9.5139
  0
VERTEX
  8
LAYER1
 62
     7
  6
CONTINUOUS
 10
4.4578
 20
9.5139
  0
VERTEX
  8
LAYER1
 62
     7
  6
CONTINUOUS
 10
4.4578
 20
9.5139
  0
VERTEX
  8
LAYER1
 62
     7
  6
CONTINUOUS
 10
4.4578
 20
9.5139
  0
VERTEX
  8
LAYER1
 62
     7
  6
CONTINUOUS
 10
4.4578
 20
9.5139
  0
VERTEX
  8
LAYER1
 62
     7
  6
CONTINUOUS
 10
4.4578
 20
9.5139
  0
VERTEX
  8
LAYER1
 62
     7
  6
CONTINUOUS
 10
4.4578
 20
9.5139
  0
VERTEX
  8
LAYER1
 62
     7
  6
CONTINUOUS
 10
4.4578
 20
9.5139
  0
VERTEX
  8
LAYER1
 62
     7
  6
CONTINUOUS
 10
4.4578
 20
9.5139
  0
SEQEND
  8
LAYER1
  0
POLYLINE
  8
LAYER1
 62
     7
 66
     1
  6
CONTINUOUS
  0
VERTEX
  8
LAYER1
 62
     7
  6
CONTINUOUS
 10
4.9597
 20
9.2126
  0
VERTEX
  8
LAYER1
 62
     7
  6
CONTINUOUS
 10
4.9614
 20
9.2142
  0
VERTEX
  8
LAYER1
 62
     7
  6
CONTINUOUS
 10
4.9631
 20
9.2158
  0
VERTEX
  8
LAYER1
 62
     7
  6
CONTINUOUS
 10
4.9648
 20
9.2174
  0
VERTEX
  8
LAYER1
 62
     7
  6
CONTINUOUS
 10
4.9665
 20
9.2191
  0
VERTEX
  8
LAYER1
 62
     7
  6
CONTINUOUS
 10
4.9682
 20
9.2207
  0
VERTEX
  8
LAYER1
 62
     7
  6
CONTINUOUS
 10
4.9699
 20
9.2223
  0
VERTEX
  8
LAYER1
 62
     7
  6
CONTINUOUS
 10
4.9715
 20
9.2240
  0
VERTEX
  8
LAYER1
 62
     7
  6
CONTINUOUS
 10
4.9732
 20
9.2257
  0
VERTEX
  8
LAYER1
 62
     7
  6
CONTINUOUS
 10
4.9748
 20
9.2274
  0
VERTEX
  8
LAYER1
 62
     7
  6
CONTINUOUS
 10
4.9763
 20
9.2292
  0
VERTEX
  8
LAYER1
 62
     7
  6
CONTINUOUS
 10
4.9779
 20
9.2309
  0
VERTEX
  8
LAYER1
 62
     7
  6
CONTINUOUS
 10
4.9794
 20
9.2327
  0
VERTEX
  8
LAYER1
 62
     7
  6
CONTINUOUS
 10
4.9806
 20
9.2343
  0
VERTEX
  8
LAYER1
 62
     7
  6
CONTINUOUS
 10
4.9819
 20
9.2360
  0
VERTEX
  8
LAYER1
 62
     7
  6
CONTINUOUS
 10
4.9831
 20
9.2377
  0
VERTEX
  8
LAYER1
 62
     7
  6
CONTINUOUS
 10
4.9843
 20
9.2393
  0
VERTEX
  8
LAYER1
 62
     7
  6
CONTINUOUS
 10
4.9855
 20
9.2410
  0
VERTEX
  8
LAYER1
 62
     7
  6
CONTINUOUS
 10
4.9867
 20
9.2427
  0
VERTEX
  8
LAYER1
 62
     7
  6
CONTINUOUS
 10
4.9879
 20
9.2444
  0
VERTEX
  8
LAYER1
 62
     7
  6
CONTINUOUS
 10
4.9891
 20
9.2461
  0
VERTEX
  8
LAYER1
 62
     7
  6
CONTINUOUS
 10
4.9903
 20
9.2478
  0
VERTEX
  8
LAYER1
 62
     7
  6
CONTINUOUS
 10
4.9916
 20
9.2495
  0
VERTEX
  8
LAYER1
 62
     7
  6
CONTINUOUS
 10
4.9928
 20
9.2512
  0
VERTEX
  8
LAYER1
 62
     7
  6
CONTINUOUS
 10
4.9941
 20
9.2528
  0
VERTEX
  8
LAYER1
 62
     7
  6
CONTINUOUS
 10
4.9957
 20
9.2549
  0
VERTEX
  8
LAYER1
 62
     7
  6
CONTINUOUS
 10
4.9974
 20
9.2570
  0
VERTEX
  8
LAYER1
 62
     7
  6
CONTINUOUS
 10
4.9991
 20
9.2590
  0
VERTEX
  8
LAYER1
 62
     7
  6
CONTINUOUS
 10
5.0009
 20
9.2610
  0
VERTEX
  8
LAYER1
 62
     7
  6
CONTINUOUS
 10
5.0026
 20
9.2631
  0
VERTEX
  8
LAYER1
 62
     7
  6
CONTINUOUS
 10
5.0043
 20
9.2651
  0
VERTEX
  8
LAYER1
 62
     7
  6
CONTINUOUS
 10
5.0060
 20
9.2672
  0
VERTEX
  8
LAYER1
 62
     7
  6
CONTINUOUS
 10
5.0077
 20
9.2692
  0
VERTEX
  8
LAYER1
 62
     7
  6
CONTINUOUS
 10
5.0093
 20
9.2713
  0
VERTEX
  8
LAYER1
 62
     7
  6
CONTINUOUS
 10
5.0108
 20
9.2735
  0
VERTEX
  8
LAYER1
 62
     7
  6
CONTINUOUS
 10
5.0123
 20
9.2757
  0
VERTEX
  8
LAYER1
 62
     7
  6
CONTINUOUS
 10
5.0137
 20
9.2779
  0
VERTEX
  8
LAYER1
 62
     7
  6
CONTINUOUS
 10
5.0155
 20
9.2812
  0
VERTEX
  8
LAYER1
 62
     7
  6
CONTINUOUS
 10
5.0171
 20
9.2845
  0
VERTEX
  8
LAYER1
 62
     7
  6
CONTINUOUS
 10
5.0186
 20
9.2879
  0
VERTEX
  8
LAYER1
 62
     7
  6
CONTINUOUS
 10
5.0201
 20
9.2914
  0
VERTEX
  8
LAYER1
 62
     7
  6
CONTINUOUS
 10
5.0214
 20
9.2949
  0
VERTEX
  8
LAYER1
 62
     7
  6
CONTINUOUS
 10
5.0228
 20
9.2984
  0
VERTEX
  8
LAYER1
 62
     7
  6
CONTINUOUS
 10
5.0242
 20
9.3019
  0
VERTEX
  8
LAYER1
 62
     7
  6
CONTINUOUS
 10
5.0257
 20
9.3053
  0
VERTEX
  8
LAYER1
 62
     7
  6
CONTINUOUS
 10
5.0273
 20
9.3086
  0
VERTEX
  8
LAYER1
 62
     7
  6
CONTINUOUS
 10
5.0291
 20
9.3119
  0
VERTEX
  8
LAYER1
 62
     7
  6
CONTINUOUS
 10
5.0310
 20
9.3150
  0
VERTEX
  8
LAYER1
 62
     7
  6
CONTINUOUS
 10
5.0332
 20
9.3179
  0
VERTEX
  8
LAYER1
 62
     7
  6
CONTINUOUS
 10
5.0339
 20
9.3188
  0
VERTEX
  8
LAYER1
 62
     7
  6
CONTINUOUS
 10
5.0346
 20
9.3197
  0
VERTEX
  8
LAYER1
 62
     7
  6
CONTINUOUS
 10
5.0353
 20
9.3205
  0
VERTEX
  8
LAYER1
 62
     7
  6
CONTINUOUS
 10
5.0361
 20
9.3213
  0
VERTEX
  8
LAYER1
 62
     7
  6
CONTINUOUS
 10
5.0369
 20
9.3221
  0
VERTEX
  8
LAYER1
 62
     7
  6
CONTINUOUS
 10
5.0377
 20
9.3229
  0
VERTEX
  8
LAYER1
 62
     7
  6
CONTINUOUS
 10
5.0385
 20
9.3237
  0
VERTEX
  8
LAYER1
 62
     7
  6
CONTINUOUS
 10
5.0393
 20
9.3245
  0
VERTEX
  8
LAYER1
 62
     7
  6
CONTINUOUS
 10
5.0401
 20
9.3253
  0
VERTEX
  8
LAYER1
 62
     7
  6
CONTINUOUS
 10
5.0409
 20
9.3260
  0
VERTEX
  8
LAYER1
 62
     7
  6
CONTINUOUS
 10
5.0418
 20
9.3268
  0
VERTEX
  8
LAYER1
 62
     7
  6
CONTINUOUS
 10
5.0426
 20
9.3276
  0
SEQEND
  8
LAYER1
  0
POLYLINE
  8
LAYER1
 62
     7
 66
     1
  6
CONTINUOUS
  0
VERTEX
  8
LAYER1
 62
     7
  6
CONTINUOUS
 10
5.0426
 20
9.3276
  0
VERTEX
  8
LAYER1
 62
     7
  6
CONTINUOUS
 10
5.0426
 20
9.3276
  0
VERTEX
  8
LAYER1
 62
     7
  6
CONTINUOUS
 10
5.0426
 20
9.3276
  0
VERTEX
  8
LAYER1
 62
     7
  6
CONTINUOUS
 10
5.0426
 20
9.3276
  0
VERTEX
  8
LAYER1
 62
     7
  6
CONTINUOUS
 10
5.0426
 20
9.3276
  0
VERTEX
  8
LAYER1
 62
     7
  6
CONTINUOUS
 10
5.0426
 20
9.3276
  0
VERTEX
  8
LAYER1
 62
     7
  6
CONTINUOUS
 10
5.0426
 20
9.3276
  0
VERTEX
  8
LAYER1
 62
     7
  6
CONTINUOUS
 10
5.0426
 20
9.3276
  0
VERTEX
  8
LAYER1
 62
     7
  6
CONTINUOUS
 10
5.0426
 20
9.3276
  0
VERTEX
  8
LAYER1
 62
     7
  6
CONTINUOUS
 10
5.0426
 20
9.3276
  0
VERTEX
  8
LAYER1
 62
     7
  6
CONTINUOUS
 10
5.0426
 20
9.3276
  0
VERTEX
  8
LAYER1
 62
     7
  6
CONTINUOUS
 10
5.0426
 20
9.3276
  0
VERTEX
  8
LAYER1
 62
     7
  6
CONTINUOUS
 10
5.0426
 20
9.3276
  0
VERTEX
  8
LAYER1
 62
     7
  6
CONTINUOUS
 10
5.0426
 20
9.3279
  0
VERTEX
  8
LAYER1
 62
     7
  6
CONTINUOUS
 10
5.0426
 20
9.3282
  0
VERTEX
  8
LAYER1
 62
     7
  6
CONTINUOUS
 10
5.0426
 20
9.3283
  0
VERTEX
  8
LAYER1
 62
     7
  6
CONTINUOUS
 10
5.0426
 20
9.3284
  0
VERTEX
  8
LAYER1
 62
     7
  6
CONTINUOUS
 10
5.0426
 20
9.3284
  0
VERTEX
  8
LAYER1
 62
     7
  6
CONTINUOUS
 10
5.0426
 20
9.3284
  0
VERTEX
  8
LAYER1
 62
     7
  6
CONTINUOUS
 10
5.0426
 20
9.3284
  0
VERTEX
  8
LAYER1
 62
     7
  6
CONTINUOUS
 10
5.0426
 20
9.3282
  0
VERTEX
  8
LAYER1
 62
     7
  6
CONTINUOUS
 10
5.0426
 20
9.3281
  0
VERTEX
  8
LAYER1
 62
     7
  6
CONTINUOUS
 10
5.0426
 20
9.3279
  0
VERTEX
  8
LAYER1
 62
     7
  6
CONTINUOUS
 10
5.0426
 20
9.3278
  0
VERTEX
  8
LAYER1
 62
     7
  6
CONTINUOUS
 10
5.0426
 20
9.3276
  0
SEQEND
  8
LAYER1
  0
POLYLINE
  8
LAYER1
 62
     7
 66
     1
  6
CONTINUOUS
  0
VERTEX
  8
LAYER1
 62
     7
  6
CONTINUOUS
 10
5.0197
 20
9.5139
  0
VERTEX
  8
LAYER1
 62
     7
  6
CONTINUOUS
 10
5.0197
 20
9.5139
  0
VERTEX
  8
LAYER1
 62
     7
  6
CONTINUOUS
 10
5.0196
 20
9.5138
  0
VERTEX
  8
LAYER1
 62
     7
  6
CONTINUOUS
 10
5.0196
 20
9.5137
  0
VERTEX
  8
LAYER1
 62
     7
  6
CONTINUOUS
 10
5.0195
 20
9.5136
  0
VERTEX
  8
LAYER1
 62
     7
  6
CONTINUOUS
 10
5.0195
 20
9.5136
  0
VERTEX
  8
LAYER1
 62
     7
  6
CONTINUOUS
 10
5.0195
 20
9.5135
  0
VERTEX
  8
LAYER1
 62
     7
  6
CONTINUOUS
 10
5.0194
 20
9.5134
  0
VERTEX
  8
LAYER1
 62
     7
  6
CONTINUOUS
 10
5.0194
 20
9.5134
  0
VERTEX
  8
LAYER1
 62
     7
  6
CONTINUOUS
 10
5.0193
 20
9.5133
  0
VERTEX
  8
LAYER1
 62
     7
  6
CONTINUOUS
 10
5.0193
 20
9.5132
  0
VERTEX
  8
LAYER1
 62
     7
  6
CONTINUOUS
 10
5.0192
 20
9.5132
  0
VERTEX
  8
LAYER1
 62
     7
  6
CONTINUOUS
 10
5.0192
 20
9.5131
  0
VERTEX
  8
LAYER1
 62
     7
  6
CONTINUOUS
 10
5.0191
 20
9.5129
  0
VERTEX
  8
LAYER1
 62
     7
  6
CONTINUOUS
 10
5.0190
 20
9.5127
  0
VERTEX
  8
LAYER1
 62
     7
  6
CONTINUOUS
 10
5.0189
 20
9.5126
  0
VERTEX
  8
LAYER1
 62
     7
  6
CONTINUOUS
 10
5.0188
 20
9.5125
  0
VERTEX
  8
LAYER1
 62
     7
  6
CONTINUOUS
 10
5.0188
 20
9.5125
  0
VERTEX
  8
LAYER1
 62
     7
  6
CONTINUOUS
 10
5.0188
 20
9.5125
  0
VERTEX
  8
LAYER1
 62
     7
  6
CONTINUOUS
 10
5.0189
 20
9.5126
  0
VERTEX
  8
LAYER1
 62
     7
  6
CONTINUOUS
 10
5.0189
 20
9.5126
  0
VERTEX
  8
LAYER1
 62
     7
  6
CONTINUOUS
 10
5.0190
 20
9.5127
  0
VERTEX
  8
LAYER1
 62
     7
  6
CONTINUOUS
 10
5.0191
 20
9.5129
  0
VERTEX
  8
LAYER1
 62
     7
  6
CONTINUOUS
 10
5.0191
 20
9.5130
  0
VERTEX
  8
LAYER1
 62
     7
  6
CONTINUOUS
 10
5.0192
 20
9.5131
  0
SEQEND
  8
LAYER1
  0
ARC
  8
LAYER1
 62
     7
  6
CONTINUOUS
 10
4.3778
 20
8.5436
 40
0.0153
 50
-8.9936
 51
-118.7401
  0
ARC
  8
LAYER1
 62
     7
  6
CONTINUOUS
 10
4.3778
 20
8.5436
 40
0.0153
 50
-61.2614
 51
-8.9939
  0
ARC
  8
LAYER1
 62
     7
  6
CONTINUOUS
 10
4.3124
 20
8.5406
 40
0.0151
 50
90.4595
 51
-136.6477
  0
ARC
  8
LAYER1
 62
     7
  6
CONTINUOUS
 10
4.3124
 20
8.5406
 40
0.0151
 50
-43.3623
 51
90.4595
  0
ARC
  8
LAYER1
 62
     7
  6
CONTINUOUS
 10
5.0396
 20
9.1911
 40
0.0174
 50
90.6485
 51
-79.9258
  0
ARC
  8
LAYER1
 62
     7
  6
CONTINUOUS
 10
5.0396
 20
9.1911
 40
0.0174
 50
79.9237
 51
90.6486
  0
ARC
  8
LAYER1
 62
     7
  6
CONTINUOUS
 10
5.0513
 20
9.2584
 40
0.0213
 50
113.9901
 51
-113.9912
  0
ARC
  8
LAYER1
 62
     7
  6
CONTINUOUS
 10
5.0421
 20
8.7381
 40
0.0079
 50
-107.8470
 51
-85.9723
  0
ARC
  8
LAYER1
 62
     7
  6
CONTINUOUS
 10
5.0421
 20
8.7381
 40
0.0079
 50
85.9704
 51
-107.8489
  0
ARC
  8
LAYER1
 62
     7
  6
CONTINUOUS
 10
5.0389
 20
8.7978
 40
0.0230
 50
78.1012
 51
80.7321
  0
ARC
  8
LAYER1
 62
     7
  6
CONTINUOUS
 10
5.0389
 20
8.7978
 40
0.0230
 50
80.7321
 51
-80.7318
  0
ARC
  8
LAYER1
 62
     7
  6
CONTINUOUS
 10
4.0655
 20
8.9083
 40
0.0128
 50
111.5539
 51
120.8241
  0
ARC
  8
LAYER1
 62
     7
  6
CONTINUOUS
 10
4.0655
 20
8.9083
 40
0.0128
 50
-120.8138
 51
-111.5528
  0
ARC
  8
LAYER1
 62
     7
  6
CONTINUOUS
 10
4.0726
 20
8.9663
 40
0.0159
 50
137.8113
 51
149.0557
  0
ARC
  8
LAYER1
 62
     7
  6
CONTINUOUS
 10
4.0726
 20
8.9663
 40
0.0159
 50
-149.0566
 51
-137.8125
  0
ARC
  8
LAYER1
 62
     7
  6
CONTINUOUS
 10
4.8891
 20
9.5155
 40
0.0174
 50
-174.8159
 51
-7.8895
  0
ARC
  8
LAYER1
 62
     7
  6
CONTINUOUS
 10
4.8891
 20
9.5155
 40
0.0174
 50
-7.8883
 51
-5.1856
  0
ARC
  8
LAYER1
 62
     7
  6
CONTINUOUS
 10
4.8891
 20
9.5155
 40
0.0174
 50
-7.8883
 51
-5.1856
  0
POLYLINE
  8
LAYER10
 62
     1
 66
     1
  6
CONTINUOUS
  0
VERTEX
  8
LAYER10
 62
     1
  6
CONTINUOUS
 10
4.1614
 20
9.1732
  0
VERTEX
  8
LAYER10
 62
     1
  6
CONTINUOUS
 10
4.1650
 20
9.1735
  0
VERTEX
  8
LAYER10
 62
     1
  6
CONTINUOUS
 10
4.1685
 20
9.1734
  0
VERTEX
  8
LAYER10
 62
     1
  6
CONTINUOUS
 10
4.1721
 20
9.1727
  0
VERTEX
  8
LAYER10
 62
     1
  6
CONTINUOUS
 10
4.1757
 20
9.1717
  0
VERTEX
  8
LAYER10
 62
     1
  6
CONTINUOUS
 10
4.1793
 20
9.1702
  0
VERTEX
  8
LAYER10
 62
     1
  6
CONTINUOUS
 10
4.1828
 20
9.1685
  0
VERTEX
  8
LAYER10
 62
     1
  6
CONTINUOUS
 10
4.1862
 20
9.1664
  0
VERTEX
  8
LAYER10
 62
     1
  6
CONTINUOUS
 10
4.1896
 20
9.1641
  0
VERTEX
  8
LAYER10
 62
     1
  6
CONTINUOUS
 10
4.1929
 20
9.1616
  0
VERTEX
  8
LAYER10
 62
     1
  6
CONTINUOUS
 10
4.1960
 20
9.1590
  0
VERTEX
  8
LAYER10
 62
     1
  6
CONTINUOUS
 10
4.1990
 20
9.1562
  0
VERTEX
  8
LAYER10
 62
     1
  6
CONTINUOUS
 10
4.2019
 20
9.1534
  0
VERTEX
  8
LAYER10
 62
     1
  6
CONTINUOUS
 10
4.2027
 20
9.1525
  0
VERTEX
  8
LAYER10
 62
     1
  6
CONTINUOUS
 10
4.2035
 20
9.1517
  0
VERTEX
  8
LAYER10
 62
     1
  6
CONTINUOUS
 10
4.2044
 20
9.1508
  0
VERTEX
  8
LAYER10
 62
     1
  6
CONTINUOUS
 10
4.2052
 20
9.1499
  0
VERTEX
  8
LAYER10
 62
     1
  6
CONTINUOUS
 10
4.2060
 20
9.1490
  0
VERTEX
  8
LAYER10
 62
     1
  6
CONTINUOUS
 10
4.2068
 20
9.1482
  0
VERTEX
  8
LAYER10
 62
     1
  6
CONTINUOUS
 10
4.2076
 20
9.1473
  0
VERTEX
  8
LAYER10
 62
     1
  6
CONTINUOUS
 10
4.2085
 20
9.1465
  0
VERTEX
  8
LAYER10
 62
     1
  6
CONTINUOUS
 10
4.2093
 20
9.1457
  0
VERTEX
  8
LAYER10
 62
     1
  6
CONTINUOUS
 10
4.2102
 20
9.1449
  0
VERTEX
  8
LAYER10
 62
     1
  6
CONTINUOUS
 10
4.2111
 20
9.1442
  0
VERTEX
  8
LAYER10
 62
     1
  6
CONTINUOUS
 10
4.2120
 20
9.1435
  0
VERTEX
  8
LAYER10
 62
     1
  6
CONTINUOUS
 10
4.2151
 20
9.1414
  0
VERTEX
  8
LAYER10
 62
     1
  6
CONTINUOUS
 10
4.2184
 20
9.1396
  0
VERTEX
  8
LAYER10
 62
     1
  6
CONTINUOUS
 10
4.2219
 20
9.1381
  0
VERTEX
  8
LAYER10
 62
     1
  6
CONTINUOUS
 10
4.2256
 20
9.1367
  0
VERTEX
  8
LAYER10
 62
     1
  6
CONTINUOUS
 10
4.2293
 20
9.1354
  0
VERTEX
  8
LAYER10
 62
     1
  6
CONTINUOUS
 10
4.2330
 20
9.1341
  0
VERTEX
  8
LAYER10
 62
     1
  6
CONTINUOUS
 10
4.2367
 20
9.1328
  0
VERTEX
  8
LAYER10
 62
     1
  6
CONTINUOUS
 10
4.2403
 20
9.1314
  0
VERTEX
  8
LAYER10
 62
     1
  6
CONTINUOUS
 10
4.2437
 20
9.1298
  0
VERTEX
  8
LAYER10
 62
     1
  6
CONTINUOUS
 10
4.2469
 20
9.1281
  0
VERTEX
  8
LAYER10
 62
     1
  6
CONTINUOUS
 10
4.2498
 20
9.1260
  0
VERTEX
  8
LAYER10
 62
     1
  6
CONTINUOUS
 10
4.2524
 20
9.1237
  0
VERTEX
  8
LAYER10
 62
     1
  6
CONTINUOUS
 10
4.2541
 20
9.1216
  0
VERTEX
  8
LAYER10
 62
     1
  6
CONTINUOUS
 10
4.2556
 20
9.1194
  0
VERTEX
  8
LAYER10
 62
     1
  6
CONTINUOUS
 10
4.2569
 20
9.1170
  0
VERTEX
  8
LAYER10
 62
     1
  6
CONTINUOUS
 10
4.2581
 20
9.1145
  0
VERTEX
  8
LAYER10
 62
     1
  6
CONTINUOUS
 10
4.2592
 20
9.1119
  0
VERTEX
  8
LAYER10
 62
     1
  6
CONTINUOUS
 10
4.2603
 20
9.1092
  0
VERTEX
  8
LAYER10
 62
     1
  6
CONTINUOUS
 10
4.2614
 20
9.1065
  0
VERTEX
  8
LAYER10
 62
     1
  6
CONTINUOUS
 10
4.2625
 20
9.1038
  0
VERTEX
  8
LAYER10
 62
     1
  6
CONTINUOUS
 10
4.2636
 20
9.1011
  0
VERTEX
  8
LAYER10
 62
     1
  6
CONTINUOUS
 10
4.2648
 20
9.0985
  0
VERTEX
  8
LAYER10
 62
     1
  6
CONTINUOUS
 10
4.2662
 20
9.0960
  0
VERTEX
  8
LAYER10
 62
     1
  6
CONTINUOUS
 10
4.2677
 20
9.0936
  0
VERTEX
  8
LAYER10
 62
     1
  6
CONTINUOUS
 10
4.2692
 20
9.0917
  0
VERTEX
  8
LAYER10
 62
     1
  6
CONTINUOUS
 10
4.2707
 20
9.0899
  0
VERTEX
  8
LAYER10
 62
     1
  6
CONTINUOUS
 10
4.2723
 20
9.0882
  0
VERTEX
  8
LAYER10
 62
     1
  6
CONTINUOUS
 10
4.2741
 20
9.0865
  0
VERTEX
  8
LAYER10
 62
     1
  6
CONTINUOUS
 10
4.2758
 20
9.0849
  0
VERTEX
  8
LAYER10
 62
     1
  6
CONTINUOUS
 10
4.2777
 20
9.0834
  0
VERTEX
  8
LAYER10
 62
     1
  6
CONTINUOUS
 10
4.2795
 20
9.0818
  0
VERTEX
  8
LAYER10
 62
     1
  6
CONTINUOUS
 10
4.2813
 20
9.0802
  0
VERTEX
  8
LAYER10
 62
     1
  6
CONTINUOUS
 10
4.2831
 20
9.0787
  0
VERTEX
  8
LAYER10
 62
     1
  6
CONTINUOUS
 10
4.2848
 20
9.0770
  0
VERTEX
  8
LAYER10
 62
     1
  6
CONTINUOUS
 10
4.2865
 20
9.0754
  0
VERTEX
  8
LAYER10
 62
     1
  6
CONTINUOUS
 10
4.2880
 20
9.0736
  0
VERTEX
  8
LAYER10
 62
     1
  6
CONTINUOUS
 10
4.2895
 20
9.0718
  0
VERTEX
  8
LAYER10
 62
     1
  6
CONTINUOUS
 10
4.2909
 20
9.0698
  0
VERTEX
  8
LAYER10
 62
     1
  6
CONTINUOUS
 10
4.2922
 20
9.0678
  0
VERTEX
  8
LAYER10
 62
     1
  6
CONTINUOUS
 10
4.2935
 20
9.0657
  0
VERTEX
  8
LAYER10
 62
     1
  6
CONTINUOUS
 10
4.2947
 20
9.0636
  0
VERTEX
  8
LAYER10
 62
     1
  6
CONTINUOUS
 10
4.2958
 20
9.0614
  0
VERTEX
  8
LAYER10
 62
     1
  6
CONTINUOUS
 10
4.2970
 20
9.0593
  0
VERTEX
  8
LAYER10
 62
     1
  6
CONTINUOUS
 10
4.2981
 20
9.0571
  0
VERTEX
  8
LAYER10
 62
     1
  6
CONTINUOUS
 10
4.2993
 20
9.0549
  0
VERTEX
  8
LAYER10
 62
     1
  6
CONTINUOUS
 10
4.3006
 20
9.0528
  0
VERTEX
  8
LAYER10
 62
     1
  6
CONTINUOUS
 10
4.3019
 20
9.0507
  0
VERTEX
  8
LAYER10
 62
     1
  6
CONTINUOUS
 10
4.3033
 20
9.0486
  0
VERTEX
  8
LAYER10
 62
     1
  6
CONTINUOUS
 10
4.3042
 20
9.0474
  0
VERTEX
  8
LAYER10
 62
     1
  6
CONTINUOUS
 10
4.3052
 20
9.0461
  0
VERTEX
  8
LAYER10
 62
     1
  6
CONTINUOUS
 10
4.3061
 20
9.0449
  0
VERTEX
  8
LAYER10
 62
     1
  6
CONTINUOUS
 10
4.3071
 20
9.0437
  0
VERTEX
  8
LAYER10
 62
     1
  6
CONTINUOUS
 10
4.3080
 20
9.0425
  0
VERTEX
  8
LAYER10
 62
     1
  6
CONTINUOUS
 10
4.3090
 20
9.0413
  0
VERTEX
  8
LAYER10
 62
     1
  6
CONTINUOUS
 10
4.3099
 20
9.0400
  0
VERTEX
  8
LAYER10
 62
     1
  6
CONTINUOUS
 10
4.3107
 20
9.0388
  0
VERTEX
  8
LAYER10
 62
     1
  6
CONTINUOUS
 10
4.3115
 20
9.0375
  0
VERTEX
  8
LAYER10
 62
     1
  6
CONTINUOUS
 10
4.3123
 20
9.0363
  0
VERTEX
  8
LAYER10
 62
     1
  6
CONTINUOUS
 10
4.3129
 20
9.0349
  0
VERTEX
  8
LAYER10
 62
     1
  6
CONTINUOUS
 10
4.3135
 20
9.0336
  0
VERTEX
  8
LAYER10
 62
     1
  6
CONTINUOUS
 10
4.3140
 20
9.0321
  0
VERTEX
  8
LAYER10
 62
     1
  6
CONTINUOUS
 10
4.3144
 20
9.0305
  0
VERTEX
  8
LAYER10
 62
     1
  6
CONTINUOUS
 10
4.3147
 20
9.0289
  0
VERTEX
  8
LAYER10
 62
     1
  6
CONTINUOUS
 10
4.3148
 20
9.0272
  0
VERTEX
  8
LAYER10
 62
     1
  6
CONTINUOUS
 10
4.3149
 20
9.0255
  0
VERTEX
  8
LAYER10
 62
     1
  6
CONTINUOUS
 10
4.3149
 20
9.0239
  0
VERTEX
  8
LAYER10
 62
     1
  6
CONTINUOUS
 10
4.3149
 20
9.0221
  0
VERTEX
  8
LAYER10
 62
     1
  6
CONTINUOUS
 10
4.3147
 20
9.0204
  0
VERTEX
  8
LAYER10
 62
     1
  6
CONTINUOUS
 10
4.3145
 20
9.0187
  0
VERTEX
  8
LAYER10
 62
     1
  6
CONTINUOUS
 10
4.3143
 20
9.0169
  0
VERTEX
  8
LAYER10
 62
     1
  6
CONTINUOUS
 10
4.3140
 20
9.0152
  0
VERTEX
  8
LAYER10
 62
     1
  6
CONTINUOUS
 10
4.3137
 20
9.0135
  0
VERTEX
  8
LAYER10
 62
     1
  6
CONTINUOUS
 10
4.3132
 20
9.0112
  0
VERTEX
  8
LAYER10
 62
     1
  6
CONTINUOUS
 10
4.3126
 20
9.0089
  0
VERTEX
  8
LAYER10
 62
     1
  6
CONTINUOUS
 10
4.3121
 20
9.0067
  0
VERTEX
  8
LAYER10
 62
     1
  6
CONTINUOUS
 10
4.3114
 20
9.0044
  0
VERTEX
  8
LAYER10
 62
     1
  6
CONTINUOUS
 10
4.3107
 20
9.0023
  0
VERTEX
  8
LAYER10
 62
     1
  6
CONTINUOUS
 10
4.3100
 20
9.0001
  0
VERTEX
  8
LAYER10
 62
     1
  6
CONTINUOUS
 10
4.3091
 20
8.9980
  0
VERTEX
  8
LAYER10
 62
     1
  6
CONTINUOUS
 10
4.3082
 20
8.9960
  0
VERTEX
  8
LAYER10
 62
     1
  6
CONTINUOUS
 10
4.3072
 20
8.9940
  0
VERTEX
  8
LAYER10
 62
     1
  6
CONTINUOUS
 10
4.3062
 20
8.9920
  0
VERTEX
  8
LAYER10
 62
     1
  6
CONTINUOUS
 10
4.3050
 20
8.9901
  0
VERTEX
  8
LAYER10
 62
     1
  6
CONTINUOUS
 10
4.3038
 20
8.9882
  0
VERTEX
  8
LAYER10
 62
     1
  6
CONTINUOUS
 10
4.3022
 20
8.9861
  0
VERTEX
  8
LAYER10
 62
     1
  6
CONTINUOUS
 10
4.3005
 20
8.9841
  0
VERTEX
  8
LAYER10
 62
     1
  6
CONTINUOUS
 10
4.2987
 20
8.9821
  0
VERTEX
  8
LAYER10
 62
     1
  6
CONTINUOUS
 10
4.2967
 20
8.9803
  0
VERTEX
  8
LAYER10
 62
     1
  6
CONTINUOUS
 10
4.2947
 20
8.9785
  0
VERTEX
  8
LAYER10
 62
     1
  6
CONTINUOUS
 10
4.2926
 20
8.9767
  0
VERTEX
  8
LAYER10
 62
     1
  6
CONTINUOUS
 10
4.2904
 20
8.9751
  0
VERTEX
  8
LAYER10
 62
     1
  6
CONTINUOUS
 10
4.2882
 20
8.9735
  0
VERTEX
  8
LAYER10
 62
     1
  6
CONTINUOUS
 10
4.2859
 20
8.9720
  0
VERTEX
  8
LAYER10
 62
     1
  6
CONTINUOUS
 10
4.2835
 20
8.9706
  0
VERTEX
  8
LAYER10
 62
     1
  6
CONTINUOUS
 10
4.2812
 20
8.9692
  0
VERTEX
  8
LAYER10
 62
     1
  6
CONTINUOUS
 10
4.2788
 20
8.9679
  0
VERTEX
  8
LAYER10
 62
     1
  6
CONTINUOUS
 10
4.2771
 20
8.9670
  0
VERTEX
  8
LAYER10
 62
     1
  6
CONTINUOUS
 10
4.2754
 20
8.9662
  0
VERTEX
  8
LAYER10
 62
     1
  6
CONTINUOUS
 10
4.2738
 20
8.9654
  0
VERTEX
  8
LAYER10
 62
     1
  6
CONTINUOUS
 10
4.2721
 20
8.9646
  0
VERTEX
  8
LAYER10
 62
     1
  6
CONTINUOUS
 10
4.2704
 20
8.9638
  0
VERTEX
  8
LAYER10
 62
     1
  6
CONTINUOUS
 10
4.2687
 20
8.9630
  0
VERTEX
  8
LAYER10
 62
     1
  6
CONTINUOUS
 10
4.2671
 20
8.9622
  0
VERTEX
  8
LAYER10
 62
     1
  6
CONTINUOUS
 10
4.2654
 20
8.9613
  0
VERTEX
  8
LAYER10
 62
     1
  6
CONTINUOUS
 10
4.2637
 20
8.9605
  0
VERTEX
  8
LAYER10
 62
     1
  6
CONTINUOUS
 10
4.2621
 20
8.9596
  0
VERTEX
  8
LAYER10
 62
     1
  6
CONTINUOUS
 10
4.2604
 20
8.9587
  0
VERTEX
  8
LAYER10
 62
     1
  6
CONTINUOUS
 10
4.2588
 20
8.9577
  0
VERTEX
  8
LAYER10
 62
     1
  6
CONTINUOUS
 10
4.2571
 20
8.9567
  0
VERTEX
  8
LAYER10
 62
     1
  6
CONTINUOUS
 10
4.2555
 20
8.9557
  0
VERTEX
  8
LAYER10
 62
     1
  6
CONTINUOUS
 10
4.2539
 20
8.9546
  0
VERTEX
  8
LAYER10
 62
     1
  6
CONTINUOUS
 10
4.2522
 20
8.9536
  0
VERTEX
  8
LAYER10
 62
     1
  6
CONTINUOUS
 10
4.2506
 20
8.9525
  0
VERTEX
  8
LAYER10
 62
     1
  6
CONTINUOUS
 10
4.2490
 20
8.9515
  0
VERTEX
  8
LAYER10
 62
     1
  6
CONTINUOUS
 10
4.2473
 20
8.9506
  0
VERTEX
  8
LAYER10
 62
     1
  6
CONTINUOUS
 10
4.2456
 20
8.9498
  0
VERTEX
  8
LAYER10
 62
     1
  6
CONTINUOUS
 10
4.2440
 20
8.9490
  0
VERTEX
  8
LAYER10
 62
     1
  6
CONTINUOUS
 10
4.2422
 20
8.9484
  0
VERTEX
  8
LAYER10
 62
     1
  6
CONTINUOUS
 10
4.2405
 20
8.9478
  0
VERTEX
  8
LAYER10
 62
     1
  6
CONTINUOUS
 10
4.2387
 20
8.9475
  0
VERTEX
  8
LAYER10
 62
     1
  6
CONTINUOUS
 10
4.2371
 20
8.9473
  0
VERTEX
  8
LAYER10
 62
     1
  6
CONTINUOUS
 10
4.2354
 20
8.9472
  0
VERTEX
  8
LAYER10
 62
     1
  6
CONTINUOUS
 10
4.2336
 20
8.9473
  0
VERTEX
  8
LAYER10
 62
     1
  6
CONTINUOUS
 10
4.2319
 20
8.9475
  0
VERTEX
  8
LAYER10
 62
     1
  6
CONTINUOUS
 10
4.2302
 20
8.9478
  0
VERTEX
  8
LAYER10
 62
     1
  6
CONTINUOUS
 10
4.2285
 20
8.9482
  0
VERTEX
  8
LAYER10
 62
     1
  6
CONTINUOUS
 10
4.2268
 20
8.9487
  0
VERTEX
  8
LAYER10
 62
     1
  6
CONTINUOUS
 10
4.2251
 20
8.9493
  0
VERTEX
  8
LAYER10
 62
     1
  6
CONTINUOUS
 10
4.2234
 20
8.9499
  0
VERTEX
  8
LAYER10
 62
     1
  6
CONTINUOUS
 10
4.2217
 20
8.9507
  0
VERTEX
  8
LAYER10
 62
     1
  6
CONTINUOUS
 10
4.2201
 20
8.9515
  0
VERTEX
  8
LAYER10
 62
     1
  6
CONTINUOUS
 10
4.2186
 20
8.9523
  0
VERTEX
  8
LAYER10
 62
     1
  6
CONTINUOUS
 10
4.2165
 20
8.9536
  0
VERTEX
  8
LAYER10
 62
     1
  6
CONTINUOUS
 10
4.2145
 20
8.9550
  0
VERTEX
  8
LAYER10
 62
     1
  6
CONTINUOUS
 10
4.2126
 20
8.9564
  0
VERTEX
  8
LAYER10
 62
     1
  6
CONTINUOUS
 10
4.2108
 20
8.9580
  0
VERTEX
  8
LAYER10
 62
     1
  6
CONTINUOUS
 10
4.2090
 20
8.9596
  0
VERTEX
  8
LAYER10
 62
     1
  6
CONTINUOUS
 10
4.2073
 20
8.9613
  0
VERTEX
  8
LAYER10
 62
     1
  6
CONTINUOUS
 10
4.2057
 20
8.9630
  0
VERTEX
  8
LAYER10
 62
     1
  6
CONTINUOUS
 10
4.2041
 20
8.9648
  0
VERTEX
  8
LAYER10
 62
     1
  6
CONTINUOUS
 10
4.2026
 20
8.9666
  0
VERTEX
  8
LAYER10
 62
     1
  6
CONTINUOUS
 10
4.2011
 20
8.9685
  0
VERTEX
  8
LAYER10
 62
     1
  6
CONTINUOUS
 10
4.1997
 20
8.9704
  0
VERTEX
  8
LAYER10
 62
     1
  6
CONTINUOUS
 10
4.1983
 20
8.9723
  0
VERTEX
  8
LAYER10
 62
     1
  6
CONTINUOUS
 10
4.1965
 20
8.9748
  0
VERTEX
  8
LAYER10
 62
     1
  6
CONTINUOUS
 10
4.1949
 20
8.9773
  0
VERTEX
  8
LAYER10
 62
     1
  6
CONTINUOUS
 10
4.1932
 20
8.9799
  0
VERTEX
  8
LAYER10
 62
     1
  6
CONTINUOUS
 10
4.1916
 20
8.9824
  0
VERTEX
  8
LAYER10
 62
     1
  6
CONTINUOUS
 10
4.1899
 20
8.9850
  0
VERTEX
  8
LAYER10
 62
     1
  6
CONTINUOUS
 10
4.1883
 20
8.9875
  0
VERTEX
  8
LAYER10
 62
     1
  6
CONTINUOUS
 10
4.1867
 20
8.9901
  0
VERTEX
  8
LAYER10
 62
     1
  6
CONTINUOUS
 10
4.1850
 20
8.9926
  0
VERTEX
  8
LAYER10
 62
     1
  6
CONTINUOUS
 10
4.1833
 20
8.9951
  0
VERTEX
  8
LAYER10
 62
     1
  6
CONTINUOUS
 10
4.1816
 20
8.9975
  0
VERTEX
  8
LAYER10
 62
     1
  6
CONTINUOUS
 10
4.1798
 20
9.0000
  0
VERTEX
  8
LAYER10
 62
     1
  6
CONTINUOUS
 10
4.1779
 20
9.0023
  0
VERTEX
  8
LAYER10
 62
     1
  6
CONTINUOUS
 10
4.1760
 20
9.0046
  0
VERTEX
  8
LAYER10
 62
     1
  6
CONTINUOUS
 10
4.1741
 20
9.0068
  0
VERTEX
  8
LAYER10
 62
     1
  6
CONTINUOUS
 10
4.1721
 20
9.0090
  0
VERTEX
  8
LAYER10
 62
     1
  6
CONTINUOUS
 10
4.1700
 20
9.0111
  0
VERTEX
  8
LAYER10
 62
     1
  6
CONTINUOUS
 10
4.1679
 20
9.0132
  0
VERTEX
  8
LAYER10
 62
     1
  6
CONTINUOUS
 10
4.1657
 20
9.0152
  0
VERTEX
  8
LAYER10
 62
     1
  6
CONTINUOUS
 10
4.1636
 20
9.0173
  0
VERTEX
  8
LAYER10
 62
     1
  6
CONTINUOUS
 10
4.1614
 20
9.0193
  0
VERTEX
  8
LAYER10
 62
     1
  6
CONTINUOUS
 10
4.1592
 20
9.0213
  0
VERTEX
  8
LAYER10
 62
     1
  6
CONTINUOUS
 10
4.1570
 20
9.0233
  0
VERTEX
  8
LAYER10
 62
     1
  6
CONTINUOUS
 10
4.1548
 20
9.0253
  0
VERTEX
  8
LAYER10
 62
     1
  6
CONTINUOUS
 10
4.1526
 20
9.0273
  0
VERTEX
  8
LAYER10
 62
     1
  6
CONTINUOUS
 10
4.1513
 20
9.0285
  0
VERTEX
  8
LAYER10
 62
     1
  6
CONTINUOUS
 10
4.1499
 20
9.0297
  0
VERTEX
  8
LAYER10
 62
     1
  6
CONTINUOUS
 10
4.1487
 20
9.0309
  0
VERTEX
  8
LAYER10
 62
     1
  6
CONTINUOUS
 10
4.1474
 20
9.0321
  0
VERTEX
  8
LAYER10
 62
     1
  6
CONTINUOUS
 10
4.1461
 20
9.0334
  0
VERTEX
  8
LAYER10
 62
     1
  6
CONTINUOUS
 10
4.1448
 20
9.0346
  0
VERTEX
  8
LAYER10
 62
     1
  6
CONTINUOUS
 10
4.1435
 20
9.0358
  0
VERTEX
  8
LAYER10
 62
     1
  6
CONTINUOUS
 10
4.1423
 20
9.0371
  0
VERTEX
  8
LAYER10
 62
     1
  6
CONTINUOUS
 10
4.1410
 20
9.0384
  0
VERTEX
  8
LAYER10
 62
     1
  6
CONTINUOUS
 10
4.1398
 20
9.0397
  0
VERTEX
  8
LAYER10
 62
     1
  6
CONTINUOUS
 10
4.1386
 20
9.0409
  0
VERTEX
  8
LAYER10
 62
     1
  6
CONTINUOUS
 10
4.1373
 20
9.0423
  0
VERTEX
  8
LAYER10
 62
     1
  6
CONTINUOUS
 10
4.1357
 20
9.0440
  0
VERTEX
  8
LAYER10
 62
     1
  6
CONTINUOUS
 10
4.1341
 20
9.0458
  0
VERTEX
  8
LAYER10
 62
     1
  6
CONTINUOUS
 10
4.1326
 20
9.0476
  0
VERTEX
  8
LAYER10
 62
     1
  6
CONTINUOUS
 10
4.1310
 20
9.0494
  0
VERTEX
  8
LAYER10
 62
     1
  6
CONTINUOUS
 10
4.1294
 20
9.0511
  0
VERTEX
  8
LAYER10
 62
     1
  6
CONTINUOUS
 10
4.1277
 20
9.0529
  0
VERTEX
  8
LAYER10
 62
     1
  6
CONTINUOUS
 10
4.1261
 20
9.0546
  0
VERTEX
  8
LAYER10
 62
     1
  6
CONTINUOUS
 10
4.1244
 20
9.0563
  0
VERTEX
  8
LAYER10
 62
     1
  6
CONTINUOUS
 10
4.1226
 20
9.0579
  0
VERTEX
  8
LAYER10
 62
     1
  6
CONTINUOUS
 10
4.1208
 20
9.0594
  0
VERTEX
  8
LAYER10
 62
     1
  6
CONTINUOUS
 10
4.1190
 20
9.0608
  0
VERTEX
  8
LAYER10
 62
     1
  6
CONTINUOUS
 10
4.1171
 20
9.0622
  0
VERTEX
  8
LAYER10
 62
     1
  6
CONTINUOUS
 10
4.1150
 20
9.0635
  0
VERTEX
  8
LAYER10
 62
     1
  6
CONTINUOUS
 10
4.1129
 20
9.0647
  0
VERTEX
  8
LAYER10
 62
     1
  6
CONTINUOUS
 10
4.1107
 20
9.0659
  0
VERTEX
  8
LAYER10
 62
     1
  6
CONTINUOUS
 10
4.1085
 20
9.0670
  0
VERTEX
  8
LAYER10
 62
     1
  6
CONTINUOUS
 10
4.1063
 20
9.0681
  0
VERTEX
  8
LAYER10
 62
     1
  6
CONTINUOUS
 10
4.1041
 20
9.0692
  0
VERTEX
  8
LAYER10
 62
     1
  6
CONTINUOUS
 10
4.1019
 20
9.0703
  0
VERTEX
  8
LAYER10
 62
     1
  6
CONTINUOUS
 10
4.0997
 20
9.0715
  0
VERTEX
  8
LAYER10
 62
     1
  6
CONTINUOUS
 10
4.0976
 20
9.0728
  0
VERTEX
  8
LAYER10
 62
     1
  6
CONTINUOUS
 10
4.0956
 20
9.0741
  0
VERTEX
  8
LAYER10
 62
     1
  6
CONTINUOUS
 10
4.0936
 20
9.0755
  0
VERTEX
  8
LAYER10
 62
     1
  6
CONTINUOUS
 10
4.0918
 20
9.0771
  0
VERTEX
  8
LAYER10
 62
     1
  6
CONTINUOUS
 10
4.0905
 20
9.0784
  0
VERTEX
  8
LAYER10
 62
     1
  6
CONTINUOUS
 10
4.0892
 20
9.0798
  0
VERTEX
  8
LAYER10
 62
     1
  6
CONTINUOUS
 10
4.0880
 20
9.0813
  0
VERTEX
  8
LAYER10
 62
     1
  6
CONTINUOUS
 10
4.0869
 20
9.0828
  0
VERTEX
  8
LAYER10
 62
     1
  6
CONTINUOUS
 10
4.0859
 20
9.0844
  0
VERTEX
  8
LAYER10
 62
     1
  6
CONTINUOUS
 10
4.0850
 20
9.0861
  0
VERTEX
  8
LAYER10
 62
     1
  6
CONTINUOUS
 10
4.0842
 20
9.0878
  0
VERTEX
  8
LAYER10
 62
     1
  6
CONTINUOUS
 10
4.0834
 20
9.0896
  0
VERTEX
  8
LAYER10
 62
     1
  6
CONTINUOUS
 10
4.0828
 20
9.0914
  0
VERTEX
  8
LAYER10
 62
     1
  6
CONTINUOUS
 10
4.0823
 20
9.0933
  0
VERTEX
  8
LAYER10
 62
     1
  6
CONTINUOUS
 10
4.0819
 20
9.0952
  0
VERTEX
  8
LAYER10
 62
     1
  6
CONTINUOUS
 10
4.0816
 20
9.0971
  0
VERTEX
  8
LAYER10
 62
     1
  6
CONTINUOUS
 10
4.0814
 20
9.0989
  0
VERTEX
  8
LAYER10
 62
     1
  6
CONTINUOUS
 10
4.0813
 20
9.1007
  0
VERTEX
  8
LAYER10
 62
     1
  6
CONTINUOUS
 10
4.0814
 20
9.1025
  0
VERTEX
  8
LAYER10
 62
     1
  6
CONTINUOUS
 10
4.0815
 20
9.1043
  0
VERTEX
  8
LAYER10
 62
     1
  6
CONTINUOUS
 10
4.0817
 20
9.1061
  0
VERTEX
  8
LAYER10
 62
     1
  6
CONTINUOUS
 10
4.0821
 20
9.1078
  0
VERTEX
  8
LAYER10
 62
     1
  6
CONTINUOUS
 10
4.0825
 20
9.1095
  0
VERTEX
  8
LAYER10
 62
     1
  6
CONTINUOUS
 10
4.0831
 20
9.1112
  0
VERTEX
  8
LAYER10
 62
     1
  6
CONTINUOUS
 10
4.0838
 20
9.1128
  0
VERTEX
  8
LAYER10
 62
     1
  6
CONTINUOUS
 10
4.0846
 20
9.1144
  0
VERTEX
  8
LAYER10
 62
     1
  6
CONTINUOUS
 10
4.0854
 20
9.1159
  0
VERTEX
  8
LAYER10
 62
     1
  6
CONTINUOUS
 10
4.0864
 20
9.1173
  0
VERTEX
  8
LAYER10
 62
     1
  6
CONTINUOUS
 10
4.0872
 20
9.1182
  0
VERTEX
  8
LAYER10
 62
     1
  6
CONTINUOUS
 10
4.0880
 20
9.1191
  0
VERTEX
  8
LAYER10
 62
     1
  6
CONTINUOUS
 10
4.0888
 20
9.1200
  0
VERTEX
  8
LAYER10
 62
     1
  6
CONTINUOUS
 10
4.0897
 20
9.1208
  0
VERTEX
  8
LAYER10
 62
     1
  6
CONTINUOUS
 10
4.0905
 20
9.1216
  0
VERTEX
  8
LAYER10
 62
     1
  6
CONTINUOUS
 10
4.0914
 20
9.1224
  0
VERTEX
  8
LAYER10
 62
     1
  6
CONTINUOUS
 10
4.0923
 20
9.1232
  0
VERTEX
  8
LAYER10
 62
     1
  6
CONTINUOUS
 10
4.0932
 20
9.1241
  0
VERTEX
  8
LAYER10
 62
     1
  6
CONTINUOUS
 10
4.0940
 20
9.1249
  0
VERTEX
  8
LAYER10
 62
     1
  6
CONTINUOUS
 10
4.0949
 20
9.1257
  0
VERTEX
  8
LAYER10
 62
     1
  6
CONTINUOUS
 10
4.0957
 20
9.1266
  0
VERTEX
  8
LAYER10
 62
     1
  6
CONTINUOUS
 10
4.0964
 20
9.1274
  0
VERTEX
  8
LAYER10
 62
     1
  6
CONTINUOUS
 10
4.0975
 20
9.1289
  0
VERTEX
  8
LAYER10
 62
     1
  6
CONTINUOUS
 10
4.0985
 20
9.1304
  0
VERTEX
  8
LAYER10
 62
     1
  6
CONTINUOUS
 10
4.0994
 20
9.1320
  0
VERTEX
  8
LAYER10
 62
     1
  6
CONTINUOUS
 10
4.1002
 20
9.1337
  0
VERTEX
  8
LAYER10
 62
     1
  6
CONTINUOUS
 10
4.1009
 20
9.1354
  0
VERTEX
  8
LAYER10
 62
     1
  6
CONTINUOUS
 10
4.1016
 20
9.1371
  0
VERTEX
  8
LAYER10
 62
     1
  6
CONTINUOUS
 10
4.1023
 20
9.1389
  0
VERTEX
  8
LAYER10
 62
     1
  6
CONTINUOUS
 10
4.1031
 20
9.1406
  0
VERTEX
  8
LAYER10
 62
     1
  6
CONTINUOUS
 10
4.1038
 20
9.1424
  0
VERTEX
  8
LAYER10
 62
     1
  6
CONTINUOUS
 10
4.1046
 20
9.1442
  0
VERTEX
  8
LAYER10
 62
     1
  6
CONTINUOUS
 10
4.1054
 20
9.1459
  0
VERTEX
  8
LAYER10
 62
     1
  6
CONTINUOUS
 10
4.1063
 20
9.1476
  0
VERTEX
  8
LAYER10
 62
     1
  6
CONTINUOUS
 10
4.1075
 20
9.1495
  0
VERTEX
  8
LAYER10
 62
     1
  6
CONTINUOUS
 10
4.1087
 20
9.1514
  0
VERTEX
  8
LAYER10
 62
     1
  6
CONTINUOUS
 10
4.1101
 20
9.1531
  0
VERTEX
  8
LAYER10
 62
     1
  6
CONTINUOUS
 10
4.1116
 20
9.1548
  0
VERTEX
  8
LAYER10
 62
     1
  6
CONTINUOUS
 10
4.1132
 20
9.1563
  0
VERTEX
  8
LAYER10
 62
     1
  6
CONTINUOUS
 10
4.1148
 20
9.1578
  0
VERTEX
  8
LAYER10
 62
     1
  6
CONTINUOUS
 10
4.1166
 20
9.1590
  0
VERTEX
  8
LAYER10
 62
     1
  6
CONTINUOUS
 10
4.1184
 20
9.1602
  0
VERTEX
  8
LAYER10
 62
     1
  6
CONTINUOUS
 10
4.1203
 20
9.1612
  0
VERTEX
  8
LAYER10
 62
     1
  6
CONTINUOUS
 10
4.1223
 20
9.1619
  0
VERTEX
  8
LAYER10
 62
     1
  6
CONTINUOUS
 10
4.1243
 20
9.1625
  0
VERTEX
  8
LAYER10
 62
     1
  6
CONTINUOUS
 10
4.1263
 20
9.1629
  0
VERTEX
  8
LAYER10
 62
     1
  6
CONTINUOUS
 10
4.1276
 20
9.1630
  0
VERTEX
  8
LAYER10
 62
     1
  6
CONTINUOUS
 10
4.1288
 20
9.1630
  0
VERTEX
  8
LAYER10
 62
     1
  6
CONTINUOUS
 10
4.1301
 20
9.1630
  0
VERTEX
  8
LAYER10
 62
     1
  6
CONTINUOUS
 10
4.1314
 20
9.1630
  0
VERTEX
  8
LAYER10
 62
     1
  6
CONTINUOUS
 10
4.1326
 20
9.1629
  0
VERTEX
  8
LAYER10
 62
     1
  6
CONTINUOUS
 10
4.1339
 20
9.1628
  0
VERTEX
  8
LAYER10
 62
     1
  6
CONTINUOUS
 10
4.1352
 20
9.1628
  0
VERTEX
  8
LAYER10
 62
     1
  6
CONTINUOUS
 10
4.1364
 20
9.1627
  0
VERTEX
  8
LAYER10
 62
     1
  6
CONTINUOUS
 10
4.1377
 20
9.1627
  0
VERTEX
  8
LAYER10
 62
     1
  6
CONTINUOUS
 10
4.1390
 20
9.1627
  0
SEQEND
  8
LAYER10
  0
POLYLINE
  8
LAYER10
 62
     1
 66
     1
  6
CONTINUOUS
  0
VERTEX
  8
LAYER10
 62
     1
  6
CONTINUOUS
 10
4.1390
 20
9.1627
  0
VERTEX
  8
LAYER10
 62
     1
  6
CONTINUOUS
 10
4.1402
 20
9.1628
  0
VERTEX
  8
LAYER10
 62
     1
  6
CONTINUOUS
 10
4.1414
 20
9.1630
  0
VERTEX
  8
LAYER10
 62
     1
  6
CONTINUOUS
 10
4.1432
 20
9.1635
  0
VERTEX
  8
LAYER10
 62
     1
  6
CONTINUOUS
 10
4.1450
 20
9.1641
  0
VERTEX
  8
LAYER10
 62
     1
  6
CONTINUOUS
 10
4.1467
 20
9.1649
  0
VERTEX
  8
LAYER10
 62
     1
  6
CONTINUOUS
 10
4.1484
 20
9.1658
  0
VERTEX
  8
LAYER10
 62
     1
  6
CONTINUOUS
 10
4.1501
 20
9.1667
  0
VERTEX
  8
LAYER10
 62
     1
  6
CONTINUOUS
 10
4.1517
 20
9.1678
  0
VERTEX
  8
LAYER10
 62
     1
  6
CONTINUOUS
 10
4.1534
 20
9.1688
  0
VERTEX
  8
LAYER10
 62
     1
  6
CONTINUOUS
 10
4.1550
 20
9.1698
  0
VERTEX
  8
LAYER10
 62
     1
  6
CONTINUOUS
 10
4.1566
 20
9.1708
  0
VERTEX
  8
LAYER10
 62
     1
  6
CONTINUOUS
 10
4.1582
 20
9.1718
  0
VERTEX
  8
LAYER10
 62
     1
  6
CONTINUOUS
 10
4.1598
 20
9.1726
  0
VERTEX
  8
LAYER10
 62
     1
  6
CONTINUOUS
 10
4.1614
 20
9.1732
  0
SEQEND
  8
LAYER10
  0
POLYLINE
  8
LAYER12
 62
     5
 66
     1
  6
CONTINUOUS
  0
VERTEX
  8
LAYER12
 62
     5
  6
CONTINUOUS
 10
4.0589
 20
9.5139
  0
VERTEX
  8
LAYER12
 62
     5
  6
CONTINUOUS
 10
4.0589
 20
9.5139
  0
SEQEND
  8
LAYER12
  0
POLYLINE
  8
LAYER12
 62
     5
 66
     1
  6
CONTINUOUS
  0
VERTEX
  8
LAYER12
 62
     5
  6
CONTINUOUS
 10
4.0589
 20
9.5139
  0
VERTEX
  8
LAYER12
 62
     5
  6
CONTINUOUS
 10
4.0589
 20
9.5139
  0
SEQEND
  8
LAYER12
  0
POLYLINE
  8
LAYER12
 62
     5
 66
     1
  6
CONTINUOUS
  0
VERTEX
  8
LAYER12
 62
     5
  6
CONTINUOUS
 10
4.0608
 20
8.5302
  0
VERTEX
  8
LAYER12
 62
     5
  6
CONTINUOUS
 10
5.0426
 20
8.5302
  0
SEQEND
  8
LAYER12
  0
POLYLINE
  8
LAYER12
 62
     5
 66
     1
  6
CONTINUOUS
  0
VERTEX
  8
LAYER12
 62
     5
  6
CONTINUOUS
 10
4.0589
 20
8.5366
  0
VERTEX
  8
LAYER12
 62
     5
  6
CONTINUOUS
 10
4.0589
 20
8.5302
  0
SEQEND
  8
LAYER12
  0
POLYLINE
  8
LAYER12
 62
     5
 66
     1
  6
CONTINUOUS
  0
VERTEX
  8
LAYER12
 62
     5
  6
CONTINUOUS
 10
4.0589
 20
8.5302
  0
VERTEX
  8
LAYER12
 62
     5
  6
CONTINUOUS
 10
4.0589
 20
8.5302
  0
SEQEND
  8
LAYER12
  0
POLYLINE
  8
LAYER12
 62
     5
 66
     1
  6
CONTINUOUS
  0
VERTEX
  8
LAYER12
 62
     5
  6
CONTINUOUS
 10
4.0589
 20
8.5302
  0
VERTEX
  8
LAYER12
 62
     5
  6
CONTINUOUS
 10
4.0589
 20
8.5302
  0
SEQEND
  8
LAYER12
  0
POLYLINE
  8
LAYER12
 62
     5
 66
     1
  6
CONTINUOUS
  0
VERTEX
  8
LAYER12
 62
     5
  6
CONTINUOUS
 10
4.0608
 20
9.5139
  0
VERTEX
  8
LAYER12
 62
     5
  6
CONTINUOUS
 10
4.0589
 20
9.5139
  0
SEQEND
  8
LAYER12
  0
POLYLINE
  8
LAYER12
 62
     5
 66
     1
  6
CONTINUOUS
  0
VERTEX
  8
LAYER12
 62
     5
  6
CONTINUOUS
 10
4.0589
 20
9.5139
  0
VERTEX
  8
LAYER12
 62
     5
  6
CONTINUOUS
 10
4.0589
 20
9.5139
  0
SEQEND
  8
LAYER12
  0
POLYLINE
  8
LAYER12
 62
     5
 66
     1
  6
CONTINUOUS
  0
VERTEX
  8
LAYER12
 62
     5
  6
CONTINUOUS
 10
4.0589
 20
9.5139
  0
VERTEX
  8
LAYER12
 62
     5
  6
CONTINUOUS
 10
4.0589
 20
9.5139
  0
SEQEND
  8
LAYER12
  0
POLYLINE
  8
LAYER12
 62
     5
 66
     1
  6
CONTINUOUS
  0
VERTEX
  8
LAYER12
 62
     5
  6
CONTINUOUS
 10
4.0589
 20
9.5139
  0
VERTEX
  8
LAYER12
 62
     5
  6
CONTINUOUS
 10
4.0589
 20
9.5139
  0
SEQEND
  8
LAYER12
  0
POLYLINE
  8
LAYER12
 62
     5
 66
     1
  6
CONTINUOUS
  0
VERTEX
  8
LAYER12
 62
     5
  6
CONTINUOUS
 10
5.0426
 20
8.5302
  0
VERTEX
  8
LAYER12
 62
     5
  6
CONTINUOUS
 10
5.0426
 20
9.5131
  0
SEQEND
  8
LAYER12
  0
POLYLINE
  8
LAYER12
 62
     5
 66
     1
  6
CONTINUOUS
  0
VERTEX
  8
LAYER12
 62
     5
  6
CONTINUOUS
 10
5.0426
 20
9.5131
  0
VERTEX
  8
LAYER12
 62
     5
  6
CONTINUOUS
 10
5.0426
 20
9.5139
  0
SEQEND
  8
LAYER12
  0
POLYLINE
  8
LAYER12
 62
     5
 66
     1
  6
CONTINUOUS
  0
VERTEX
  8
LAYER12
 62
     5
  6
CONTINUOUS
 10
5.0426
 20
9.5139
  0
VERTEX
  8
LAYER12
 62
     5
  6
CONTINUOUS
 10
4.0608
 20
9.5139
  0
SEQEND
  8
LAYER12
  0
POLYLINE
  8
LAYER12
 62
     5
 66
     1
  6
CONTINUOUS
  0
VERTEX
  8
LAYER12
 62
     5
  6
CONTINUOUS
 10
4.0589
 20
9.5139
  0
VERTEX
  8
LAYER12
 62
     5
  6
CONTINUOUS
 10
4.0574
 20
9.5139
  0
SEQEND
  8
LAYER12
  0
POLYLINE
  8
LAYER12
 62
     5
 66
     1
  6
CONTINUOUS
  0
VERTEX
  8
LAYER12
 62
     5
  6
CONTINUOUS
 10
4.0574
 20
9.5139
  0
VERTEX
  8
LAYER12
 62
     5
  6
CONTINUOUS
 10
4.0589
 20
9.5139
  0
SEQEND
  8
LAYER12
  0
POLYLINE
  8
LAYER12
 62
     5
 66
     1
  6
CONTINUOUS
  0
VERTEX
  8
LAYER12
 62
     5
  6
CONTINUOUS
 10
4.0589
 20
9.5139
  0
VERTEX
  8
LAYER12
 62
     5
  6
CONTINUOUS
 10
4.0589
 20
9.5131
  0
SEQEND
  8
LAYER12
  0
POLYLINE
  8
LAYER12
 62
     5
 66
     1
  6
CONTINUOUS
  0
VERTEX
  8
LAYER12
 62
     5
  6
CONTINUOUS
 10
4.0589
 20
9.5131
  0
VERTEX
  8
LAYER12
 62
     5
  6
CONTINUOUS
 10
4.0589
 20
8.5366
  0
SEQEND
  8
LAYER12
  0
ENDSEC
  0
EOF
