  0
SECTION
  2
HEADER
  9
$ACADVER
  1
AC1004
  9
$EXTMIN
 10
10.0388
 20
8.5239
  9
$EXTMAX
 10
11.0284
 20
9.5161
  9
$LIMMIN
 10
10.0388
 20
8.5239
  9
$LIMMAX
 10
11.0284
 20
9.5161
  9
$INSBASE
 10
0.0
 20
0.0
  9
$VIEWCTR
 10
7.21903
 20
4.5
  9
$VIEWSIZE
 40
9.0
  9
$SNAPMODE
 70
     0
  9
$SNAPUNIT
 10
1.0
 20
1.0
  9
$SNAPBASE
 10
0.0
 20
0.0
  9
$SNAPANG
 50
0.0
  9
$SNAPSTYLE
 70
     0
  9
$SNAPISOPAIR
 70
     0
  9
$GRIDMODE
 70
     0
  9
$GRIDUNIT
 10
0.0
 20
0.0
  9
$ORTHOMODE
 70
     0
  9
$REGENMODE
 70
     1
  9
$FILLMODE
 70
     1
  9
$QTEXTMODE
 70
     0
  9
$DRAGMODE
 70
     2
  9
$LTSCALE
 40
1.0
  9
$OSMODE
 70
     0
  9
$ATTMODE
 70
     1
  9
$TEXTSIZE
 40
0.2
  9
$TRACEWID
 40
0.05
  9
$TEXTSTYLE
  7
STANDARD
  9
$CLAYER
  8
0
  9
$CELTYPE
  6
BYLAYER
  9
$CECOLOR
 62
   256
  9
$DIMSCALE
 40
1.0
  9
$DIMASZ
 40
0.18
  9
$DIMEXO
 40
0.0625
  9
$DIMDLI
 40
0.38
  9
$DIMRND
 40
0.0
  9
$DIMDLE
 40
0.0
  9
$DIMEXE
 40
0.18
  9
$DIMTP
 40
0.0
  9
$DIMTM
 40
0.0
  9
$DIMTXT
 40
0.18
  9
$DIMCEN
 40
0.09
  9
$DIMTSZ
 40
0.0
  9
$DIMTOL
 70
     0
  9
$DIMLIM
 70
     0
  9
$DIMTIH
 70
     1
  9
$DIMTOH
 70
     1
  9
$DIMSE1
 70
     0
  9
$DIMSE2
 70
     0
  9
$DIMTAD
 70
     0
  9
$DIMZIN
 70
     0
  9
$DIMBLK
  1

  9
$DIMASO
 70
     1
  9
$DIMSHO
 70
     0
  9
$DIMPOST
  1

  9
$DIMAPOST
  1

  9
$DIMALT
 70
     0
  9
$DIMALTD
 70
     2
  9
$DIMALTF
 40
25.4
  9
$DIMLFAC
 40
1.0
  9
$LUNITS
 70
     2
  9
$LUPREC
 70
     4
  9
$AXISMODE
 70
     0
  9
$AXISUNIT
 10
0.0
 20
0.0
  9
$SKETCHINC
 40
0.1
  9
$FILLETRAD
 40
0.0
  9
$AUNITS
 70
     0
  9
$AUPREC
 70
     0
  9
$MENU
  1
acad
  9
$ELEVATION
 40
0.0
  9
$THICKNESS
 40
0.0
  9
$VIEWDIR
 10
0.0
 20
0.0
 30
1.0
  9
$LIMCHECK
 70
     0
  9
$BLIPMODE
 70
     1
  9
$CHAMFERA
 40
0.0
  9
$CHAMFERB
 40
0.0
  9
$FASTZOOM
 70
     1
  9
$SKPOLY
 70
     0
  9
$TDCREATE
 40
2447222.5666886573
  9
$TDUPDATE
 40
2447222.5666886573
  9
$TDINDWG
 40
0.0000000000
  9
$TDUSRTIMER
 40
0.0000000000
  9
$USRTIMER
 70
     1
  9
$ANGBASE
 50
0.0
  9
$ANGDIR
 70
     0
  9
$PDMODE
 70
     0
  9
$PDSIZE
 40
0.0
  9
$PLINEWID
 40
0.0
  9
$COORDS
 70
     0
  9
$SPLFRAME
 70
     0
  9
$SPLINESEGS
 70
     8
  9
$ATTDIA
 70
     0
  9
$ATTREQ
 70
     1
  9
$USERI1
 70
     0
  9
$USERI2
 70
     0
  9
$USERI3
 70
     0
  9
$USERI4
 70
     0
  9
$USERI5
 70
     0
  9
$USERR1
 40
0.0
  9
$USERR2
 40
0.0
  9
$USERR3
 40
0.0
  9
$USERR4
 40
0.0
  9
$USERR5
 40
0.0
  0
ENDSEC
  0
SECTION
  2
TABLES
  0
TABLE
  2
LTYPE
 70
     13
  0
LTYPE
  2
CONTINUOUS
 70
    64
  3
Solid line
 72
    65
 73
     0
 40
0.0
  0
LTYPE
  2
DASHED
 70
    64
  3
__ __ __ __ __ __ __ __ __ __ __ __ __ __ __
 72
    65
 73
     2
 40
0.75
 49
0.5
 49
-0.25
  0
LTYPE
  2
HIDDEN
 70
    64
  3
_ _ _ _ _ _ _ _ _ _ _ _ _ _ _ _ _ _ _ _ _ _ _
 72
    65
 73
     2
 40
0.375
 49
0.25
 49
-0.125
  0
LTYPE
  2
CENTER
 70
    64
  3
____ _ ____ _ ____ _ ____ _ ____ _ ____ _ ____
 72
    65
 73
     4
 40
2.0
 49
1.25
 49
-0.25
 49
0.25
 49
-0.25
  0
LTYPE
  2
PHANTOM
 70
    64
  3
_____ _ _ _____ _ _ _____ _ _ _____ _ _ ____
 72
    65
 73
     6
 40
2.5
 49
1.25
 49
-0.25
 49
0.25
 49
-0.25
 49
0.25
 49
-0.25
  0
LTYPE
  2
DOT
 70
    64
  3
...............................................
 72
    65
 73
     2
 40
0.25
 49
0.0
 49
-0.25
  0
LTYPE
  2
DASHDOT
 70
    64
  3
__ . __ . __ . __ . __ . __ . __ . __ . __ . __
 72
    65
 73
     4
 40
1.0
 49
0.5
 49
-0.25
 49
0.0
 49
-0.25
  0
LTYPE
  2
BORDER
 70
    64
  3
__ __ . __ __ . __ __ . __ __ . __ __ . __ __
 72
    65
 73
     6
 40
1.75
 49
0.5
 49
-0.25
 49
0.5
 49
-0.25
 49
0.0
 49
-0.25
  0
LTYPE
  2
DIVIDE
 70
    64
  3
__ . . __ . . __ . . __ . . __ . . __ . . __
 72
    65
 73
     6
 40
1.25
 49
0.5
 49
-0.25
 49
0.0
 49
-0.25
 49
0.0
 49
-0.25
  0
LTYPE
  2
DCTYPE1
 70
    64
  3
__ . . __ . . __ . . __ . . __ . . __ . . __
 72
    65
 73
     8
 40
2.5
 49
0.5
 49
-0.25
 49
0.125
 49
-0.25
 49
0.25
 49
-0.25
 49
0.125
 49
-0.25
  0
LTYPE
  2
DCTYPE2
 70
    64
  3
__ . . __ . . __ . . __ . . __ . . __ . . __
 72
    65
 73
     6
 40
2.05
 49
1.0
 49
-0.3
 49
0.15
 49
-0.15
 49
0.15
 49
-0.3
  0
LTYPE
  2
DCTYPE3
 70
    64
  3
__ . . __ . . __ . . __ . . __ . . __ . . __
 72
    65
 73
     6
 40
2.5
 49
0.8
 49
-0.2
 49
0.8
 49
-0.2
 49
0.3
 49
-0.2
  0
LTYPE
  2
DCTYPE4
 70
    64
  3
__ . . __ . . __ . . __ . . __ . . __ . . __
 72
    65
 73
     10
 40
3.97
 49
1.75
 49
-0.3
 49
0.3
 49
-0.3
 49
0.06
 49
-0.3
 49
0.06
 49
-0.3
 49
0.3
 49
-0.3
  0
ENDTAB
  0
TABLE
  2
LAYER
 70
    153
  0
LAYER
  2
LAYER1
 70
 64
 62
     7
  6
CONTINUOUS
  0
LAYER
  2
LAYER10
 70
 64
 62
     1
  6
CONTINUOUS
  0
LAYER
  2
LAYER12
 70
 64
 62
     5
  6
CONTINUOUS
  0
ENDTAB
  0
ENDSEC
  0
SECTION
  2
BLOCKS
  0
ENDSEC
  0
SECTION
  2
ENTITIES
  0
CIRCLE
  8
LAYER1
 62
     7
  6
CONTINUOUS
 10
10.6720
 20
9.4814
 40
0.0234
  0
CIRCLE
  8
LAYER1
 62
     7
  6
CONTINUOUS
 10
10.7535
 20
9.4443
 40
0.0227
  0
POLYLINE
  8
LAYER10
 62
     1
 66
     1
  6
CONTINUOUS
  0
VERTEX
  8
LAYER10
 62
     1
  6
CONTINUOUS
 10
10.0459
 20
9.3943
  0
VERTEX
  8
LAYER10
 62
     1
  6
CONTINUOUS
 10
10.0463
 20
9.3936
  0
VERTEX
  8
LAYER10
 62
     1
  6
CONTINUOUS
 10
10.0466
 20
9.3929
  0
VERTEX
  8
LAYER10
 62
     1
  6
CONTINUOUS
 10
10.0469
 20
9.3922
  0
VERTEX
  8
LAYER10
 62
     1
  6
CONTINUOUS
 10
10.0472
 20
9.3915
  0
VERTEX
  8
LAYER10
 62
     1
  6
CONTINUOUS
 10
10.0475
 20
9.3907
  0
VERTEX
  8
LAYER10
 62
     1
  6
CONTINUOUS
 10
10.0478
 20
9.3900
  0
VERTEX
  8
LAYER10
 62
     1
  6
CONTINUOUS
 10
10.0481
 20
9.3893
  0
VERTEX
  8
LAYER10
 62
     1
  6
CONTINUOUS
 10
10.0484
 20
9.3886
  0
VERTEX
  8
LAYER10
 62
     1
  6
CONTINUOUS
 10
10.0487
 20
9.3879
  0
VERTEX
  8
LAYER10
 62
     1
  6
CONTINUOUS
 10
10.0490
 20
9.3872
  0
VERTEX
  8
LAYER10
 62
     1
  6
CONTINUOUS
 10
10.0493
 20
9.3865
  0
VERTEX
  8
LAYER10
 62
     1
  6
CONTINUOUS
 10
10.0495
 20
9.3858
  0
VERTEX
  8
LAYER10
 62
     1
  6
CONTINUOUS
 10
10.0507
 20
9.3818
  0
VERTEX
  8
LAYER10
 62
     1
  6
CONTINUOUS
 10
10.0517
 20
9.3777
  0
VERTEX
  8
LAYER10
 62
     1
  6
CONTINUOUS
 10
10.0523
 20
9.3736
  0
VERTEX
  8
LAYER10
 62
     1
  6
CONTINUOUS
 10
10.0528
 20
9.3694
  0
VERTEX
  8
LAYER10
 62
     1
  6
CONTINUOUS
 10
10.0531
 20
9.3652
  0
VERTEX
  8
LAYER10
 62
     1
  6
CONTINUOUS
 10
10.0533
 20
9.3610
  0
VERTEX
  8
LAYER10
 62
     1
  6
CONTINUOUS
 10
10.0535
 20
9.3567
  0
VERTEX
  8
LAYER10
 62
     1
  6
CONTINUOUS
 10
10.0536
 20
9.3524
  0
VERTEX
  8
LAYER10
 62
     1
  6
CONTINUOUS
 10
10.0538
 20
9.3481
  0
VERTEX
  8
LAYER10
 62
     1
  6
CONTINUOUS
 10
10.0541
 20
9.3438
  0
VERTEX
  8
LAYER10
 62
     1
  6
CONTINUOUS
 10
10.0545
 20
9.3394
  0
VERTEX
  8
LAYER10
 62
     1
  6
CONTINUOUS
 10
10.0552
 20
9.3351
  0
VERTEX
  8
LAYER10
 62
     1
  6
CONTINUOUS
 10
10.0557
 20
9.3321
  0
VERTEX
  8
LAYER10
 62
     1
  6
CONTINUOUS
 10
10.0564
 20
9.3291
  0
VERTEX
  8
LAYER10
 62
     1
  6
CONTINUOUS
 10
10.0571
 20
9.3260
  0
VERTEX
  8
LAYER10
 62
     1
  6
CONTINUOUS
 10
10.0578
 20
9.3230
  0
VERTEX
  8
LAYER10
 62
     1
  6
CONTINUOUS
 10
10.0585
 20
9.3200
  0
VERTEX
  8
LAYER10
 62
     1
  6
CONTINUOUS
 10
10.0592
 20
9.3170
  0
VERTEX
  8
LAYER10
 62
     1
  6
CONTINUOUS
 10
10.0598
 20
9.3141
  0
VERTEX
  8
LAYER10
 62
     1
  6
CONTINUOUS
 10
10.0603
 20
9.3111
  0
VERTEX
  8
LAYER10
 62
     1
  6
CONTINUOUS
 10
10.0607
 20
9.3082
  0
VERTEX
  8
LAYER10
 62
     1
  6
CONTINUOUS
 10
10.0609
 20
9.3054
  0
VERTEX
  8
LAYER10
 62
     1
  6
CONTINUOUS
 10
10.0609
 20
9.3025
  0
VERTEX
  8
LAYER10
 62
     1
  6
CONTINUOUS
 10
10.0606
 20
9.2997
  0
VERTEX
  8
LAYER10
 62
     1
  6
CONTINUOUS
 10
10.0602
 20
9.2972
  0
VERTEX
  8
LAYER10
 62
     1
  6
CONTINUOUS
 10
10.0595
 20
9.2947
  0
VERTEX
  8
LAYER10
 62
     1
  6
CONTINUOUS
 10
10.0587
 20
9.2922
  0
VERTEX
  8
LAYER10
 62
     1
  6
CONTINUOUS
 10
10.0577
 20
9.2897
  0
VERTEX
  8
LAYER10
 62
     1
  6
CONTINUOUS
 10
10.0565
 20
9.2873
  0
VERTEX
  8
LAYER10
 62
     1
  6
CONTINUOUS
 10
10.0553
 20
9.2849
  0
VERTEX
  8
LAYER10
 62
     1
  6
CONTINUOUS
 10
10.0539
 20
9.2825
  0
VERTEX
  8
LAYER10
 62
     1
  6
CONTINUOUS
 10
10.0524
 20
9.2801
  0
VERTEX
  8
LAYER10
 62
     1
  6
CONTINUOUS
 10
10.0508
 20
9.2777
  0
VERTEX
  8
LAYER10
 62
     1
  6
CONTINUOUS
 10
10.0492
 20
9.2754
  0
VERTEX
  8
LAYER10
 62
     1
  6
CONTINUOUS
 10
10.0476
 20
9.2730
  0
VERTEX
  8
LAYER10
 62
     1
  6
CONTINUOUS
 10
10.0459
 20
9.2707
  0
SEQEND
  8
LAYER10
  0
POLYLINE
  8
LAYER10
 62
     1
 66
     1
  6
CONTINUOUS
  0
VERTEX
  8
LAYER10
 62
     1
  6
CONTINUOUS
 10
10.5174
 20
8.7928
  0
VERTEX
  8
LAYER10
 62
     1
  6
CONTINUOUS
 10
10.5192
 20
8.7930
  0
VERTEX
  8
LAYER10
 62
     1
  6
CONTINUOUS
 10
10.5209
 20
8.7932
  0
VERTEX
  8
LAYER10
 62
     1
  6
CONTINUOUS
 10
10.5227
 20
8.7933
  0
VERTEX
  8
LAYER10
 62
     1
  6
CONTINUOUS
 10
10.5244
 20
8.7935
  0
VERTEX
  8
LAYER10
 62
     1
  6
CONTINUOUS
 10
10.5262
 20
8.7936
  0
VERTEX
  8
LAYER10
 62
     1
  6
CONTINUOUS
 10
10.5279
 20
8.7937
  0
VERTEX
  8
LAYER10
 62
     1
  6
CONTINUOUS
 10
10.5296
 20
8.7938
  0
VERTEX
  8
LAYER10
 62
     1
  6
CONTINUOUS
 10
10.5313
 20
8.7937
  0
VERTEX
  8
LAYER10
 62
     1
  6
CONTINUOUS
 10
10.5329
 20
8.7937
  0
VERTEX
  8
LAYER10
 62
     1
  6
CONTINUOUS
 10
10.5345
 20
8.7935
  0
VERTEX
  8
LAYER10
 62
     1
  6
CONTINUOUS
 10
10.5361
 20
8.7933
  0
VERTEX
  8
LAYER10
 62
     1
  6
CONTINUOUS
 10
10.5377
 20
8.7930
  0
VERTEX
  8
LAYER10
 62
     1
  6
CONTINUOUS
 10
10.5417
 20
8.7917
  0
VERTEX
  8
LAYER10
 62
     1
  6
CONTINUOUS
 10
10.5454
 20
8.7899
  0
VERTEX
  8
LAYER10
 62
     1
  6
CONTINUOUS
 10
10.5490
 20
8.7876
  0
VERTEX
  8
LAYER10
 62
     1
  6
CONTINUOUS
 10
10.5524
 20
8.7849
  0
VERTEX
  8
LAYER10
 62
     1
  6
CONTINUOUS
 10
10.5557
 20
8.7818
  0
VERTEX
  8
LAYER10
 62
     1
  6
CONTINUOUS
 10
10.5589
 20
8.7785
  0
VERTEX
  8
LAYER10
 62
     1
  6
CONTINUOUS
 10
10.5621
 20
8.7750
  0
VERTEX
  8
LAYER10
 62
     1
  6
CONTINUOUS
 10
10.5653
 20
8.7714
  0
VERTEX
  8
LAYER10
 62
     1
  6
CONTINUOUS
 10
10.5685
 20
8.7679
  0
VERTEX
  8
LAYER10
 62
     1
  6
CONTINUOUS
 10
10.5717
 20
8.7644
  0
VERTEX
  8
LAYER10
 62
     1
  6
CONTINUOUS
 10
10.5751
 20
8.7610
  0
VERTEX
  8
LAYER10
 62
     1
  6
CONTINUOUS
 10
10.5786
 20
8.7580
  0
VERTEX
  8
LAYER10
 62
     1
  6
CONTINUOUS
 10
10.5811
 20
8.7560
  0
VERTEX
  8
LAYER10
 62
     1
  6
CONTINUOUS
 10
10.5836
 20
8.7542
  0
VERTEX
  8
LAYER10
 62
     1
  6
CONTINUOUS
 10
10.5862
 20
8.7525
  0
VERTEX
  8
LAYER10
 62
     1
  6
CONTINUOUS
 10
10.5889
 20
8.7509
  0
VERTEX
  8
LAYER10
 62
     1
  6
CONTINUOUS
 10
10.5915
 20
8.7493
  0
VERTEX
  8
LAYER10
 62
     1
  6
CONTINUOUS
 10
10.5941
 20
8.7478
  0
VERTEX
  8
LAYER10
 62
     1
  6
CONTINUOUS
 10
10.5968
 20
8.7463
  0
VERTEX
  8
LAYER10
 62
     1
  6
CONTINUOUS
 10
10.5994
 20
8.7448
  0
VERTEX
  8
LAYER10
 62
     1
  6
CONTINUOUS
 10
10.6020
 20
8.7432
  0
VERTEX
  8
LAYER10
 62
     1
  6
CONTINUOUS
 10
10.6045
 20
8.7416
  0
VERTEX
  8
LAYER10
 62
     1
  6
CONTINUOUS
 10
10.6069
 20
8.7398
  0
VERTEX
  8
LAYER10
 62
     1
  6
CONTINUOUS
 10
10.6093
 20
8.7380
  0
VERTEX
  8
LAYER10
 62
     1
  6
CONTINUOUS
 10
10.6121
 20
8.7355
  0
VERTEX
  8
LAYER10
 62
     1
  6
CONTINUOUS
 10
10.6149
 20
8.7328
  0
VERTEX
  8
LAYER10
 62
     1
  6
CONTINUOUS
 10
10.6175
 20
8.7300
  0
VERTEX
  8
LAYER10
 62
     1
  6
CONTINUOUS
 10
10.6200
 20
8.7270
  0
VERTEX
  8
LAYER10
 62
     1
  6
CONTINUOUS
 10
10.6224
 20
8.7240
  0
VERTEX
  8
LAYER10
 62
     1
  6
CONTINUOUS
 10
10.6249
 20
8.7209
  0
VERTEX
  8
LAYER10
 62
     1
  6
CONTINUOUS
 10
10.6273
 20
8.7178
  0
VERTEX
  8
LAYER10
 62
     1
  6
CONTINUOUS
 10
10.6297
 20
8.7146
  0
VERTEX
  8
LAYER10
 62
     1
  6
CONTINUOUS
 10
10.6322
 20
8.7116
  0
VERTEX
  8
LAYER10
 62
     1
  6
CONTINUOUS
 10
10.6347
 20
8.7086
  0
VERTEX
  8
LAYER10
 62
     1
  6
CONTINUOUS
 10
10.6373
 20
8.7057
  0
VERTEX
  8
LAYER10
 62
     1
  6
CONTINUOUS
 10
10.6401
 20
8.7029
  0
VERTEX
  8
LAYER10
 62
     1
  6
CONTINUOUS
 10
10.6432
 20
8.7000
  0
VERTEX
  8
LAYER10
 62
     1
  6
CONTINUOUS
 10
10.6465
 20
8.6974
  0
VERTEX
  8
LAYER10
 62
     1
  6
CONTINUOUS
 10
10.6499
 20
8.6948
  0
VERTEX
  8
LAYER10
 62
     1
  6
CONTINUOUS
 10
10.6533
 20
8.6924
  0
VERTEX
  8
LAYER10
 62
     1
  6
CONTINUOUS
 10
10.6569
 20
8.6900
  0
VERTEX
  8
LAYER10
 62
     1
  6
CONTINUOUS
 10
10.6604
 20
8.6877
  0
VERTEX
  8
LAYER10
 62
     1
  6
CONTINUOUS
 10
10.6640
 20
8.6854
  0
VERTEX
  8
LAYER10
 62
     1
  6
CONTINUOUS
 10
10.6676
 20
8.6830
  0
VERTEX
  8
LAYER10
 62
     1
  6
CONTINUOUS
 10
10.6711
 20
8.6806
  0
VERTEX
  8
LAYER10
 62
     1
  6
CONTINUOUS
 10
10.6745
 20
8.6782
  0
VERTEX
  8
LAYER10
 62
     1
  6
CONTINUOUS
 10
10.6778
 20
8.6756
  0
VERTEX
  8
LAYER10
 62
     1
  6
CONTINUOUS
 10
10.6810
 20
8.6729
  0
VERTEX
  8
LAYER10
 62
     1
  6
CONTINUOUS
 10
10.6840
 20
8.6700
  0
VERTEX
  8
LAYER10
 62
     1
  6
CONTINUOUS
 10
10.6869
 20
8.6670
  0
VERTEX
  8
LAYER10
 62
     1
  6
CONTINUOUS
 10
10.6896
 20
8.6639
  0
VERTEX
  8
LAYER10
 62
     1
  6
CONTINUOUS
 10
10.6923
 20
8.6606
  0
VERTEX
  8
LAYER10
 62
     1
  6
CONTINUOUS
 10
10.6948
 20
8.6573
  0
VERTEX
  8
LAYER10
 62
     1
  6
CONTINUOUS
 10
10.6973
 20
8.6538
  0
VERTEX
  8
LAYER10
 62
     1
  6
CONTINUOUS
 10
10.6998
 20
8.6503
  0
VERTEX
  8
LAYER10
 62
     1
  6
CONTINUOUS
 10
10.7022
 20
8.6468
  0
VERTEX
  8
LAYER10
 62
     1
  6
CONTINUOUS
 10
10.7046
 20
8.6433
  0
VERTEX
  8
LAYER10
 62
     1
  6
CONTINUOUS
 10
10.7069
 20
8.6397
  0
VERTEX
  8
LAYER10
 62
     1
  6
CONTINUOUS
 10
10.7094
 20
8.6362
  0
VERTEX
  8
LAYER10
 62
     1
  6
CONTINUOUS
 10
10.7118
 20
8.6327
  0
VERTEX
  8
LAYER10
 62
     1
  6
CONTINUOUS
 10
10.7138
 20
8.6300
  0
VERTEX
  8
LAYER10
 62
     1
  6
CONTINUOUS
 10
10.7157
 20
8.6274
  0
VERTEX
  8
LAYER10
 62
     1
  6
CONTINUOUS
 10
10.7178
 20
8.6247
  0
VERTEX
  8
LAYER10
 62
     1
  6
CONTINUOUS
 10
10.7198
 20
8.6221
  0
VERTEX
  8
LAYER10
 62
     1
  6
CONTINUOUS
 10
10.7219
 20
8.6196
  0
VERTEX
  8
LAYER10
 62
     1
  6
CONTINUOUS
 10
10.7240
 20
8.6171
  0
VERTEX
  8
LAYER10
 62
     1
  6
CONTINUOUS
 10
10.7262
 20
8.6146
  0
VERTEX
  8
LAYER10
 62
     1
  6
CONTINUOUS
 10
10.7284
 20
8.6121
  0
VERTEX
  8
LAYER10
 62
     1
  6
CONTINUOUS
 10
10.7306
 20
8.6097
  0
VERTEX
  8
LAYER10
 62
     1
  6
CONTINUOUS
 10
10.7329
 20
8.6073
  0
VERTEX
  8
LAYER10
 62
     1
  6
CONTINUOUS
 10
10.7352
 20
8.6049
  0
VERTEX
  8
LAYER10
 62
     1
  6
CONTINUOUS
 10
10.7375
 20
8.6026
  0
VERTEX
  8
LAYER10
 62
     1
  6
CONTINUOUS
 10
10.7405
 20
8.5997
  0
VERTEX
  8
LAYER10
 62
     1
  6
CONTINUOUS
 10
10.7436
 20
8.5968
  0
VERTEX
  8
LAYER10
 62
     1
  6
CONTINUOUS
 10
10.7466
 20
8.5939
  0
VERTEX
  8
LAYER10
 62
     1
  6
CONTINUOUS
 10
10.7497
 20
8.5911
  0
VERTEX
  8
LAYER10
 62
     1
  6
CONTINUOUS
 10
10.7528
 20
8.5882
  0
VERTEX
  8
LAYER10
 62
     1
  6
CONTINUOUS
 10
10.7559
 20
8.5854
  0
VERTEX
  8
LAYER10
 62
     1
  6
CONTINUOUS
 10
10.7590
 20
8.5825
  0
VERTEX
  8
LAYER10
 62
     1
  6
CONTINUOUS
 10
10.7620
 20
8.5796
  0
VERTEX
  8
LAYER10
 62
     1
  6
CONTINUOUS
 10
10.7649
 20
8.5767
  0
VERTEX
  8
LAYER10
 62
     1
  6
CONTINUOUS
 10
10.7678
 20
8.5737
  0
VERTEX
  8
LAYER10
 62
     1
  6
CONTINUOUS
 10
10.7706
 20
8.5706
  0
VERTEX
  8
LAYER10
 62
     1
  6
CONTINUOUS
 10
10.7734
 20
8.5675
  0
VERTEX
  8
LAYER10
 62
     1
  6
CONTINUOUS
 10
10.7758
 20
8.5644
  0
VERTEX
  8
LAYER10
 62
     1
  6
CONTINUOUS
 10
10.7782
 20
8.5613
  0
VERTEX
  8
LAYER10
 62
     1
  6
CONTINUOUS
 10
10.7805
 20
8.5581
  0
VERTEX
  8
LAYER10
 62
     1
  6
CONTINUOUS
 10
10.7828
 20
8.5549
  0
VERTEX
  8
LAYER10
 62
     1
  6
CONTINUOUS
 10
10.7849
 20
8.5515
  0
VERTEX
  8
LAYER10
 62
     1
  6
CONTINUOUS
 10
10.7870
 20
8.5482
  0
VERTEX
  8
LAYER10
 62
     1
  6
CONTINUOUS
 10
10.7891
 20
8.5448
  0
VERTEX
  8
LAYER10
 62
     1
  6
CONTINUOUS
 10
10.7911
 20
8.5414
  0
VERTEX
  8
LAYER10
 62
     1
  6
CONTINUOUS
 10
10.7931
 20
8.5379
  0
VERTEX
  8
LAYER10
 62
     1
  6
CONTINUOUS
 10
10.7951
 20
8.5344
  0
VERTEX
  8
LAYER10
 62
     1
  6
CONTINUOUS
 10
10.7970
 20
8.5310
  0
VERTEX
  8
LAYER10
 62
     1
  6
CONTINUOUS
 10
10.7989
 20
8.5275
  0
SEQEND
  8
LAYER10
  0
POLYLINE
  8
LAYER10
 62
     1
 66
     1
  6
CONTINUOUS
  0
VERTEX
  8
LAYER10
 62
     1
  6
CONTINUOUS
 10
10.7989
 20
8.5275
  0
VERTEX
  8
LAYER10
 62
     1
  6
CONTINUOUS
 10
10.7989
 20
8.5275
  0
VERTEX
  8
LAYER10
 62
     1
  6
CONTINUOUS
 10
10.7989
 20
8.5275
  0
VERTEX
  8
LAYER10
 62
     1
  6
CONTINUOUS
 10
10.7989
 20
8.5275
  0
VERTEX
  8
LAYER10
 62
     1
  6
CONTINUOUS
 10
10.7989
 20
8.5275
  0
VERTEX
  8
LAYER10
 62
     1
  6
CONTINUOUS
 10
10.7989
 20
8.5275
  0
VERTEX
  8
LAYER10
 62
     1
  6
CONTINUOUS
 10
10.7989
 20
8.5275
  0
VERTEX
  8
LAYER10
 62
     1
  6
CONTINUOUS
 10
10.7989
 20
8.5275
  0
VERTEX
  8
LAYER10
 62
     1
  6
CONTINUOUS
 10
10.7989
 20
8.5275
  0
VERTEX
  8
LAYER10
 62
     1
  6
CONTINUOUS
 10
10.7989
 20
8.5275
  0
VERTEX
  8
LAYER10
 62
     1
  6
CONTINUOUS
 10
10.7989
 20
8.5275
  0
VERTEX
  8
LAYER10
 62
     1
  6
CONTINUOUS
 10
10.7989
 20
8.5275
  0
VERTEX
  8
LAYER10
 62
     1
  6
CONTINUOUS
 10
10.7989
 20
8.5275
  0
VERTEX
  8
LAYER10
 62
     1
  6
CONTINUOUS
 10
10.7989
 20
8.5275
  0
VERTEX
  8
LAYER10
 62
     1
  6
CONTINUOUS
 10
10.7989
 20
8.5275
  0
VERTEX
  8
LAYER10
 62
     1
  6
CONTINUOUS
 10
10.7989
 20
8.5275
  0
VERTEX
  8
LAYER10
 62
     1
  6
CONTINUOUS
 10
10.7989
 20
8.5275
  0
VERTEX
  8
LAYER10
 62
     1
  6
CONTINUOUS
 10
10.7989
 20
8.5275
  0
VERTEX
  8
LAYER10
 62
     1
  6
CONTINUOUS
 10
10.7989
 20
8.5275
  0
VERTEX
  8
LAYER10
 62
     1
  6
CONTINUOUS
 10
10.7989
 20
8.5275
  0
VERTEX
  8
LAYER10
 62
     1
  6
CONTINUOUS
 10
10.7989
 20
8.5275
  0
VERTEX
  8
LAYER10
 62
     1
  6
CONTINUOUS
 10
10.7989
 20
8.5275
  0
VERTEX
  8
LAYER10
 62
     1
  6
CONTINUOUS
 10
10.7989
 20
8.5275
  0
VERTEX
  8
LAYER10
 62
     1
  6
CONTINUOUS
 10
10.7989
 20
8.5275
  0
VERTEX
  8
LAYER10
 62
     1
  6
CONTINUOUS
 10
10.7989
 20
8.5275
  0
SEQEND
  8
LAYER10
  0
POLYLINE
  8
LAYER10
 62
     1
 66
     1
  6
CONTINUOUS
  0
VERTEX
  8
LAYER10
 62
     1
  6
CONTINUOUS
 10
10.3662
 20
8.5275
  0
VERTEX
  8
LAYER10
 62
     1
  6
CONTINUOUS
 10
10.3662
 20
8.5275
  0
VERTEX
  8
LAYER10
 62
     1
  6
CONTINUOUS
 10
10.3662
 20
8.5275
  0
VERTEX
  8
LAYER10
 62
     1
  6
CONTINUOUS
 10
10.3662
 20
8.5275
  0
VERTEX
  8
LAYER10
 62
     1
  6
CONTINUOUS
 10
10.3662
 20
8.5275
  0
VERTEX
  8
LAYER10
 62
     1
  6
CONTINUOUS
 10
10.3662
 20
8.5275
  0
VERTEX
  8
LAYER10
 62
     1
  6
CONTINUOUS
 10
10.3662
 20
8.5275
  0
VERTEX
  8
LAYER10
 62
     1
  6
CONTINUOUS
 10
10.3662
 20
8.5275
  0
VERTEX
  8
LAYER10
 62
     1
  6
CONTINUOUS
 10
10.3662
 20
8.5275
  0
VERTEX
  8
LAYER10
 62
     1
  6
CONTINUOUS
 10
10.3662
 20
8.5275
  0
VERTEX
  8
LAYER10
 62
     1
  6
CONTINUOUS
 10
10.3662
 20
8.5275
  0
VERTEX
  8
LAYER10
 62
     1
  6
CONTINUOUS
 10
10.3662
 20
8.5275
  0
VERTEX
  8
LAYER10
 62
     1
  6
CONTINUOUS
 10
10.3662
 20
8.5275
  0
VERTEX
  8
LAYER10
 62
     1
  6
CONTINUOUS
 10
10.3662
 20
8.5275
  0
VERTEX
  8
LAYER10
 62
     1
  6
CONTINUOUS
 10
10.3662
 20
8.5275
  0
VERTEX
  8
LAYER10
 62
     1
  6
CONTINUOUS
 10
10.3662
 20
8.5275
  0
VERTEX
  8
LAYER10
 62
     1
  6
CONTINUOUS
 10
10.3662
 20
8.5275
  0
VERTEX
  8
LAYER10
 62
     1
  6
CONTINUOUS
 10
10.3662
 20
8.5275
  0
VERTEX
  8
LAYER10
 62
     1
  6
CONTINUOUS
 10
10.3662
 20
8.5275
  0
VERTEX
  8
LAYER10
 62
     1
  6
CONTINUOUS
 10
10.3662
 20
8.5275
  0
VERTEX
  8
LAYER10
 62
     1
  6
CONTINUOUS
 10
10.3662
 20
8.5275
  0
VERTEX
  8
LAYER10
 62
     1
  6
CONTINUOUS
 10
10.3662
 20
8.5275
  0
VERTEX
  8
LAYER10
 62
     1
  6
CONTINUOUS
 10
10.3662
 20
8.5275
  0
VERTEX
  8
LAYER10
 62
     1
  6
CONTINUOUS
 10
10.3662
 20
8.5275
  0
VERTEX
  8
LAYER10
 62
     1
  6
CONTINUOUS
 10
10.3662
 20
8.5275
  0
SEQEND
  8
LAYER10
  0
POLYLINE
  8
LAYER10
 62
     1
 66
     1
  6
CONTINUOUS
  0
VERTEX
  8
LAYER10
 62
     1
  6
CONTINUOUS
 10
10.3662
 20
8.5275
  0
VERTEX
  8
LAYER10
 62
     1
  6
CONTINUOUS
 10
10.3662
 20
8.5275
  0
VERTEX
  8
LAYER10
 62
     1
  6
CONTINUOUS
 10
10.3662
 20
8.5275
  0
VERTEX
  8
LAYER10
 62
     1
  6
CONTINUOUS
 10
10.3662
 20
8.5275
  0
VERTEX
  8
LAYER10
 62
     1
  6
CONTINUOUS
 10
10.3662
 20
8.5275
  0
VERTEX
  8
LAYER10
 62
     1
  6
CONTINUOUS
 10
10.3662
 20
8.5275
  0
VERTEX
  8
LAYER10
 62
     1
  6
CONTINUOUS
 10
10.3662
 20
8.5275
  0
VERTEX
  8
LAYER10
 62
     1
  6
CONTINUOUS
 10
10.3662
 20
8.5275
  0
VERTEX
  8
LAYER10
 62
     1
  6
CONTINUOUS
 10
10.3662
 20
8.5275
  0
VERTEX
  8
LAYER10
 62
     1
  6
CONTINUOUS
 10
10.3662
 20
8.5275
  0
VERTEX
  8
LAYER10
 62
     1
  6
CONTINUOUS
 10
10.3662
 20
8.5275
  0
VERTEX
  8
LAYER10
 62
     1
  6
CONTINUOUS
 10
10.3662
 20
8.5275
  0
VERTEX
  8
LAYER10
 62
     1
  6
CONTINUOUS
 10
10.3662
 20
8.5275
  0
VERTEX
  8
LAYER10
 62
     1
  6
CONTINUOUS
 10
10.3662
 20
8.5275
  0
VERTEX
  8
LAYER10
 62
     1
  6
CONTINUOUS
 10
10.3662
 20
8.5275
  0
VERTEX
  8
LAYER10
 62
     1
  6
CONTINUOUS
 10
10.3662
 20
8.5275
  0
VERTEX
  8
LAYER10
 62
     1
  6
CONTINUOUS
 10
10.3662
 20
8.5275
  0
VERTEX
  8
LAYER10
 62
     1
  6
CONTINUOUS
 10
10.3662
 20
8.5275
  0
VERTEX
  8
LAYER10
 62
     1
  6
CONTINUOUS
 10
10.3662
 20
8.5275
  0
VERTEX
  8
LAYER10
 62
     1
  6
CONTINUOUS
 10
10.3662
 20
8.5275
  0
VERTEX
  8
LAYER10
 62
     1
  6
CONTINUOUS
 10
10.3662
 20
8.5275
  0
VERTEX
  8
LAYER10
 62
     1
  6
CONTINUOUS
 10
10.3662
 20
8.5275
  0
VERTEX
  8
LAYER10
 62
     1
  6
CONTINUOUS
 10
10.3662
 20
8.5275
  0
VERTEX
  8
LAYER10
 62
     1
  6
CONTINUOUS
 10
10.3662
 20
8.5275
  0
VERTEX
  8
LAYER10
 62
     1
  6
CONTINUOUS
 10
10.3662
 20
8.5275
  0
SEQEND
  8
LAYER10
  0
POLYLINE
  8
LAYER10
 62
     1
 66
     1
  6
CONTINUOUS
  0
VERTEX
  8
LAYER10
 62
     1
  6
CONTINUOUS
 10
10.3662
 20
8.5275
  0
VERTEX
  8
LAYER10
 62
     1
  6
CONTINUOUS
 10
10.3648
 20
8.5301
  0
VERTEX
  8
LAYER10
 62
     1
  6
CONTINUOUS
 10
10.3634
 20
8.5327
  0
VERTEX
  8
LAYER10
 62
     1
  6
CONTINUOUS
 10
10.3620
 20
8.5353
  0
VERTEX
  8
LAYER10
 62
     1
  6
CONTINUOUS
 10
10.3606
 20
8.5379
  0
VERTEX
  8
LAYER10
 62
     1
  6
CONTINUOUS
 10
10.3591
 20
8.5405
  0
VERTEX
  8
LAYER10
 62
     1
  6
CONTINUOUS
 10
10.3576
 20
8.5430
  0
VERTEX
  8
LAYER10
 62
     1
  6
CONTINUOUS
 10
10.3561
 20
8.5456
  0
VERTEX
  8
LAYER10
 62
     1
  6
CONTINUOUS
 10
10.3545
 20
8.5481
  0
VERTEX
  8
LAYER10
 62
     1
  6
CONTINUOUS
 10
10.3529
 20
8.5505
  0
VERTEX
  8
LAYER10
 62
     1
  6
CONTINUOUS
 10
10.3512
 20
8.5530
  0
VERTEX
  8
LAYER10
 62
     1
  6
CONTINUOUS
 10
10.3495
 20
8.5553
  0
VERTEX
  8
LAYER10
 62
     1
  6
CONTINUOUS
 10
10.3477
 20
8.5577
  0
VERTEX
  8
LAYER10
 62
     1
  6
CONTINUOUS
 10
10.3452
 20
8.5607
  0
VERTEX
  8
LAYER10
 62
     1
  6
CONTINUOUS
 10
10.3426
 20
8.5636
  0
VERTEX
  8
LAYER10
 62
     1
  6
CONTINUOUS
 10
10.3399
 20
8.5665
  0
VERTEX
  8
LAYER10
 62
     1
  6
CONTINUOUS
 10
10.3372
 20
8.5694
  0
VERTEX
  8
LAYER10
 62
     1
  6
CONTINUOUS
 10
10.3344
 20
8.5722
  0
VERTEX
  8
LAYER10
 62
     1
  6
CONTINUOUS
 10
10.3317
 20
8.5751
  0
VERTEX
  8
LAYER10
 62
     1
  6
CONTINUOUS
 10
10.3290
 20
8.5779
  0
VERTEX
  8
LAYER10
 62
     1
  6
CONTINUOUS
 10
10.3263
 20
8.5808
  0
VERTEX
  8
LAYER10
 62
     1
  6
CONTINUOUS
 10
10.3238
 20
8.5837
  0
VERTEX
  8
LAYER10
 62
     1
  6
CONTINUOUS
 10
10.3213
 20
8.5866
  0
VERTEX
  8
LAYER10
 62
     1
  6
CONTINUOUS
 10
10.3190
 20
8.5897
  0
VERTEX
  8
LAYER10
 62
     1
  6
CONTINUOUS
 10
10.3169
 20
8.5928
  0
VERTEX
  8
LAYER10
 62
     1
  6
CONTINUOUS
 10
10.3157
 20
8.5947
  0
VERTEX
  8
LAYER10
 62
     1
  6
CONTINUOUS
 10
10.3146
 20
8.5967
  0
VERTEX
  8
LAYER10
 62
     1
  6
CONTINUOUS
 10
10.3136
 20
8.5986
  0
VERTEX
  8
LAYER10
 62
     1
  6
CONTINUOUS
 10
10.3126
 20
8.6006
  0
VERTEX
  8
LAYER10
 62
     1
  6
CONTINUOUS
 10
10.3116
 20
8.6027
  0
VERTEX
  8
LAYER10
 62
     1
  6
CONTINUOUS
 10
10.3108
 20
8.6047
  0
VERTEX
  8
LAYER10
 62
     1
  6
CONTINUOUS
 10
10.3099
 20
8.6069
  0
VERTEX
  8
LAYER10
 62
     1
  6
CONTINUOUS
 10
10.3092
 20
8.6090
  0
VERTEX
  8
LAYER10
 62
     1
  6
CONTINUOUS
 10
10.3084
 20
8.6112
  0
VERTEX
  8
LAYER10
 62
     1
  6
CONTINUOUS
 10
10.3077
 20
8.6135
  0
VERTEX
  8
LAYER10
 62
     1
  6
CONTINUOUS
 10
10.3071
 20
8.6157
  0
VERTEX
  8
LAYER10
 62
     1
  6
CONTINUOUS
 10
10.3064
 20
8.6181
  0
VERTEX
  8
LAYER10
 62
     1
  6
CONTINUOUS
 10
10.3058
 20
8.6207
  0
VERTEX
  8
LAYER10
 62
     1
  6
CONTINUOUS
 10
10.3052
 20
8.6234
  0
VERTEX
  8
LAYER10
 62
     1
  6
CONTINUOUS
 10
10.3046
 20
8.6261
  0
VERTEX
  8
LAYER10
 62
     1
  6
CONTINUOUS
 10
10.3042
 20
8.6288
  0
VERTEX
  8
LAYER10
 62
     1
  6
CONTINUOUS
 10
10.3038
 20
8.6314
  0
VERTEX
  8
LAYER10
 62
     1
  6
CONTINUOUS
 10
10.3036
 20
8.6341
  0
VERTEX
  8
LAYER10
 62
     1
  6
CONTINUOUS
 10
10.3036
 20
8.6367
  0
VERTEX
  8
LAYER10
 62
     1
  6
CONTINUOUS
 10
10.3037
 20
8.6392
  0
VERTEX
  8
LAYER10
 62
     1
  6
CONTINUOUS
 10
10.3040
 20
8.6417
  0
VERTEX
  8
LAYER10
 62
     1
  6
CONTINUOUS
 10
10.3045
 20
8.6441
  0
VERTEX
  8
LAYER10
 62
     1
  6
CONTINUOUS
 10
10.3052
 20
8.6464
  0
VERTEX
  8
LAYER10
 62
     1
  6
CONTINUOUS
 10
10.3061
 20
8.6485
  0
VERTEX
  8
LAYER10
 62
     1
  6
CONTINUOUS
 10
10.3074
 20
8.6506
  0
VERTEX
  8
LAYER10
 62
     1
  6
CONTINUOUS
 10
10.3089
 20
8.6526
  0
VERTEX
  8
LAYER10
 62
     1
  6
CONTINUOUS
 10
10.3107
 20
8.6545
  0
VERTEX
  8
LAYER10
 62
     1
  6
CONTINUOUS
 10
10.3126
 20
8.6562
  0
VERTEX
  8
LAYER10
 62
     1
  6
CONTINUOUS
 10
10.3147
 20
8.6579
  0
VERTEX
  8
LAYER10
 62
     1
  6
CONTINUOUS
 10
10.3170
 20
8.6595
  0
VERTEX
  8
LAYER10
 62
     1
  6
CONTINUOUS
 10
10.3193
 20
8.6611
  0
VERTEX
  8
LAYER10
 62
     1
  6
CONTINUOUS
 10
10.3217
 20
8.6627
  0
VERTEX
  8
LAYER10
 62
     1
  6
CONTINUOUS
 10
10.3241
 20
8.6642
  0
VERTEX
  8
LAYER10
 62
     1
  6
CONTINUOUS
 10
10.3265
 20
8.6658
  0
VERTEX
  8
LAYER10
 62
     1
  6
CONTINUOUS
 10
10.3289
 20
8.6674
  0
VERTEX
  8
LAYER10
 62
     1
  6
CONTINUOUS
 10
10.3312
 20
8.6690
  0
VERTEX
  8
LAYER10
 62
     1
  6
CONTINUOUS
 10
10.3348
 20
8.6719
  0
VERTEX
  8
LAYER10
 62
     1
  6
CONTINUOUS
 10
10.3382
 20
8.6750
  0
VERTEX
  8
LAYER10
 62
     1
  6
CONTINUOUS
 10
10.3414
 20
8.6783
  0
VERTEX
  8
LAYER10
 62
     1
  6
CONTINUOUS
 10
10.3444
 20
8.6816
  0
VERTEX
  8
LAYER10
 62
     1
  6
CONTINUOUS
 10
10.3472
 20
8.6851
  0
VERTEX
  8
LAYER10
 62
     1
  6
CONTINUOUS
 10
10.3500
 20
8.6887
  0
VERTEX
  8
LAYER10
 62
     1
  6
CONTINUOUS
 10
10.3527
 20
8.6923
  0
VERTEX
  8
LAYER10
 62
     1
  6
CONTINUOUS
 10
10.3553
 20
8.6959
  0
VERTEX
  8
LAYER10
 62
     1
  6
CONTINUOUS
 10
10.3579
 20
8.6995
  0
VERTEX
  8
LAYER10
 62
     1
  6
CONTINUOUS
 10
10.3606
 20
8.7030
  0
VERTEX
  8
LAYER10
 62
     1
  6
CONTINUOUS
 10
10.3634
 20
8.7066
  0
VERTEX
  8
LAYER10
 62
     1
  6
CONTINUOUS
 10
10.3662
 20
8.7100
  0
VERTEX
  8
LAYER10
 62
     1
  6
CONTINUOUS
 10
10.3684
 20
8.7124
  0
VERTEX
  8
LAYER10
 62
     1
  6
CONTINUOUS
 10
10.3707
 20
8.7148
  0
VERTEX
  8
LAYER10
 62
     1
  6
CONTINUOUS
 10
10.3730
 20
8.7171
  0
VERTEX
  8
LAYER10
 62
     1
  6
CONTINUOUS
 10
10.3754
 20
8.7194
  0
VERTEX
  8
LAYER10
 62
     1
  6
CONTINUOUS
 10
10.3779
 20
8.7216
  0
VERTEX
  8
LAYER10
 62
     1
  6
CONTINUOUS
 10
10.3804
 20
8.7238
  0
VERTEX
  8
LAYER10
 62
     1
  6
CONTINUOUS
 10
10.3830
 20
8.7259
  0
VERTEX
  8
LAYER10
 62
     1
  6
CONTINUOUS
 10
10.3856
 20
8.7279
  0
VERTEX
  8
LAYER10
 62
     1
  6
CONTINUOUS
 10
10.3882
 20
8.7299
  0
VERTEX
  8
LAYER10
 62
     1
  6
CONTINUOUS
 10
10.3909
 20
8.7319
  0
VERTEX
  8
LAYER10
 62
     1
  6
CONTINUOUS
 10
10.3936
 20
8.7338
  0
VERTEX
  8
LAYER10
 62
     1
  6
CONTINUOUS
 10
10.3964
 20
8.7357
  0
VERTEX
  8
LAYER10
 62
     1
  6
CONTINUOUS
 10
10.4008
 20
8.7386
  0
VERTEX
  8
LAYER10
 62
     1
  6
CONTINUOUS
 10
10.4053
 20
8.7414
  0
VERTEX
  8
LAYER10
 62
     1
  6
CONTINUOUS
 10
10.4099
 20
8.7441
  0
VERTEX
  8
LAYER10
 62
     1
  6
CONTINUOUS
 10
10.4145
 20
8.7467
  0
VERTEX
  8
LAYER10
 62
     1
  6
CONTINUOUS
 10
10.4191
 20
8.7493
  0
VERTEX
  8
LAYER10
 62
     1
  6
CONTINUOUS
 10
10.4237
 20
8.7518
  0
VERTEX
  8
LAYER10
 62
     1
  6
CONTINUOUS
 10
10.4284
 20
8.7543
  0
VERTEX
  8
LAYER10
 62
     1
  6
CONTINUOUS
 10
10.4331
 20
8.7567
  0
VERTEX
  8
LAYER10
 62
     1
  6
CONTINUOUS
 10
10.4378
 20
8.7592
  0
VERTEX
  8
LAYER10
 62
     1
  6
CONTINUOUS
 10
10.4424
 20
8.7617
  0
VERTEX
  8
LAYER10
 62
     1
  6
CONTINUOUS
 10
10.4471
 20
8.7642
  0
VERTEX
  8
LAYER10
 62
     1
  6
CONTINUOUS
 10
10.4518
 20
8.7667
  0
VERTEX
  8
LAYER10
 62
     1
  6
CONTINUOUS
 10
10.4543
 20
8.7681
  0
VERTEX
  8
LAYER10
 62
     1
  6
CONTINUOUS
 10
10.4568
 20
8.7694
  0
VERTEX
  8
LAYER10
 62
     1
  6
CONTINUOUS
 10
10.4593
 20
8.7708
  0
VERTEX
  8
LAYER10
 62
     1
  6
CONTINUOUS
 10
10.4617
 20
8.7722
  0
VERTEX
  8
LAYER10
 62
     1
  6
CONTINUOUS
 10
10.4642
 20
8.7735
  0
VERTEX
  8
LAYER10
 62
     1
  6
CONTINUOUS
 10
10.4667
 20
8.7749
  0
VERTEX
  8
LAYER10
 62
     1
  6
CONTINUOUS
 10
10.4693
 20
8.7762
  0
VERTEX
  8
LAYER10
 62
     1
  6
CONTINUOUS
 10
10.4718
 20
8.7775
  0
VERTEX
  8
LAYER10
 62
     1
  6
CONTINUOUS
 10
10.4743
 20
8.7787
  0
VERTEX
  8
LAYER10
 62
     1
  6
CONTINUOUS
 10
10.4769
 20
8.7800
  0
VERTEX
  8
LAYER10
 62
     1
  6
CONTINUOUS
 10
10.4794
 20
8.7811
  0
VERTEX
  8
LAYER10
 62
     1
  6
CONTINUOUS
 10
10.4820
 20
8.7822
  0
VERTEX
  8
LAYER10
 62
     1
  6
CONTINUOUS
 10
10.4849
 20
8.7834
  0
VERTEX
  8
LAYER10
 62
     1
  6
CONTINUOUS
 10
10.4878
 20
8.7844
  0
VERTEX
  8
LAYER10
 62
     1
  6
CONTINUOUS
 10
10.4907
 20
8.7854
  0
VERTEX
  8
LAYER10
 62
     1
  6
CONTINUOUS
 10
10.4936
 20
8.7864
  0
VERTEX
  8
LAYER10
 62
     1
  6
CONTINUOUS
 10
10.4965
 20
8.7873
  0
VERTEX
  8
LAYER10
 62
     1
  6
CONTINUOUS
 10
10.4995
 20
8.7881
  0
VERTEX
  8
LAYER10
 62
     1
  6
CONTINUOUS
 10
10.5024
 20
8.7890
  0
VERTEX
  8
LAYER10
 62
     1
  6
CONTINUOUS
 10
10.5054
 20
8.7898
  0
VERTEX
  8
LAYER10
 62
     1
  6
CONTINUOUS
 10
10.5084
 20
8.7905
  0
VERTEX
  8
LAYER10
 62
     1
  6
CONTINUOUS
 10
10.5114
 20
8.7913
  0
VERTEX
  8
LAYER10
 62
     1
  6
CONTINUOUS
 10
10.5144
 20
8.7920
  0
VERTEX
  8
LAYER10
 62
     1
  6
CONTINUOUS
 10
10.5174
 20
8.7928
  0
SEQEND
  8
LAYER10
  0
POLYLINE
  8
LAYER10
 62
     1
 66
     1
  6
CONTINUOUS
  0
VERTEX
  8
LAYER10
 62
     1
  6
CONTINUOUS
 10
10.0398
 20
9.2648
  0
VERTEX
  8
LAYER10
 62
     1
  6
CONTINUOUS
 10
10.0398
 20
9.2648
  0
VERTEX
  8
LAYER10
 62
     1
  6
CONTINUOUS
 10
10.0398
 20
9.2648
  0
VERTEX
  8
LAYER10
 62
     1
  6
CONTINUOUS
 10
10.0398
 20
9.2648
  0
VERTEX
  8
LAYER10
 62
     1
  6
CONTINUOUS
 10
10.0398
 20
9.2648
  0
VERTEX
  8
LAYER10
 62
     1
  6
CONTINUOUS
 10
10.0398
 20
9.2648
  0
VERTEX
  8
LAYER10
 62
     1
  6
CONTINUOUS
 10
10.0398
 20
9.2648
  0
VERTEX
  8
LAYER10
 62
     1
  6
CONTINUOUS
 10
10.0398
 20
9.2648
  0
VERTEX
  8
LAYER10
 62
     1
  6
CONTINUOUS
 10
10.0398
 20
9.2648
  0
VERTEX
  8
LAYER10
 62
     1
  6
CONTINUOUS
 10
10.0398
 20
9.2648
  0
VERTEX
  8
LAYER10
 62
     1
  6
CONTINUOUS
 10
10.0398
 20
9.2648
  0
VERTEX
  8
LAYER10
 62
     1
  6
CONTINUOUS
 10
10.0398
 20
9.2648
  0
VERTEX
  8
LAYER10
 62
     1
  6
CONTINUOUS
 10
10.0398
 20
9.2648
  0
VERTEX
  8
LAYER10
 62
     1
  6
CONTINUOUS
 10
10.0398
 20
9.2648
  0
VERTEX
  8
LAYER10
 62
     1
  6
CONTINUOUS
 10
10.0398
 20
9.2648
  0
VERTEX
  8
LAYER10
 62
     1
  6
CONTINUOUS
 10
10.0398
 20
9.2648
  0
VERTEX
  8
LAYER10
 62
     1
  6
CONTINUOUS
 10
10.0398
 20
9.2648
  0
VERTEX
  8
LAYER10
 62
     1
  6
CONTINUOUS
 10
10.0398
 20
9.2648
  0
VERTEX
  8
LAYER10
 62
     1
  6
CONTINUOUS
 10
10.0398
 20
9.2648
  0
VERTEX
  8
LAYER10
 62
     1
  6
CONTINUOUS
 10
10.0398
 20
9.2648
  0
VERTEX
  8
LAYER10
 62
     1
  6
CONTINUOUS
 10
10.0398
 20
9.2648
  0
VERTEX
  8
LAYER10
 62
     1
  6
CONTINUOUS
 10
10.0398
 20
9.2648
  0
VERTEX
  8
LAYER10
 62
     1
  6
CONTINUOUS
 10
10.0398
 20
9.2648
  0
VERTEX
  8
LAYER10
 62
     1
  6
CONTINUOUS
 10
10.0398
 20
9.2648
  0
VERTEX
  8
LAYER10
 62
     1
  6
CONTINUOUS
 10
10.0398
 20
9.2648
  0
SEQEND
  8
LAYER10
  0
POLYLINE
  8
LAYER10
 62
     1
 66
     1
  6
CONTINUOUS
  0
VERTEX
  8
LAYER10
 62
     1
  6
CONTINUOUS
 10
10.0388
 20
8.5239
  0
VERTEX
  8
LAYER10
 62
     1
  6
CONTINUOUS
 10
10.0388
 20
8.5239
  0
VERTEX
  8
LAYER10
 62
     1
  6
CONTINUOUS
 10
10.0388
 20
8.5239
  0
VERTEX
  8
LAYER10
 62
     1
  6
CONTINUOUS
 10
10.0388
 20
8.5239
  0
VERTEX
  8
LAYER10
 62
     1
  6
CONTINUOUS
 10
10.0388
 20
8.5239
  0
VERTEX
  8
LAYER10
 62
     1
  6
CONTINUOUS
 10
10.0388
 20
8.5239
  0
VERTEX
  8
LAYER10
 62
     1
  6
CONTINUOUS
 10
10.0388
 20
8.5239
  0
VERTEX
  8
LAYER10
 62
     1
  6
CONTINUOUS
 10
10.0388
 20
8.5239
  0
VERTEX
  8
LAYER10
 62
     1
  6
CONTINUOUS
 10
10.0388
 20
8.5239
  0
VERTEX
  8
LAYER10
 62
     1
  6
CONTINUOUS
 10
10.0388
 20
8.5239
  0
VERTEX
  8
LAYER10
 62
     1
  6
CONTINUOUS
 10
10.0388
 20
8.5239
  0
VERTEX
  8
LAYER10
 62
     1
  6
CONTINUOUS
 10
10.0388
 20
8.5239
  0
VERTEX
  8
LAYER10
 62
     1
  6
CONTINUOUS
 10
10.0388
 20
8.5239
  0
VERTEX
  8
LAYER10
 62
     1
  6
CONTINUOUS
 10
10.0388
 20
8.5239
  0
VERTEX
  8
LAYER10
 62
     1
  6
CONTINUOUS
 10
10.0388
 20
8.5239
  0
VERTEX
  8
LAYER10
 62
     1
  6
CONTINUOUS
 10
10.0388
 20
8.5239
  0
VERTEX
  8
LAYER10
 62
     1
  6
CONTINUOUS
 10
10.0388
 20
8.5239
  0
VERTEX
  8
LAYER10
 62
     1
  6
CONTINUOUS
 10
10.0388
 20
8.5239
  0
VERTEX
  8
LAYER10
 62
     1
  6
CONTINUOUS
 10
10.0388
 20
8.5239
  0
VERTEX
  8
LAYER10
 62
     1
  6
CONTINUOUS
 10
10.0388
 20
8.5239
  0
VERTEX
  8
LAYER10
 62
     1
  6
CONTINUOUS
 10
10.0388
 20
8.5239
  0
VERTEX
  8
LAYER10
 62
     1
  6
CONTINUOUS
 10
10.0388
 20
8.5239
  0
VERTEX
  8
LAYER10
 62
     1
  6
CONTINUOUS
 10
10.0388
 20
8.5239
  0
VERTEX
  8
LAYER10
 62
     1
  6
CONTINUOUS
 10
10.0388
 20
8.5239
  0
VERTEX
  8
LAYER10
 62
     1
  6
CONTINUOUS
 10
10.0388
 20
8.5239
  0
SEQEND
  8
LAYER10
  0
POLYLINE
  8
LAYER10
 62
     1
 66
     1
  6
CONTINUOUS
  0
VERTEX
  8
LAYER10
 62
     1
  6
CONTINUOUS
 10
10.7989
 20
8.5275
  0
VERTEX
  8
LAYER10
 62
     1
  6
CONTINUOUS
 10
10.7990
 20
8.5274
  0
VERTEX
  8
LAYER10
 62
     1
  6
CONTINUOUS
 10
10.7990
 20
8.5274
  0
VERTEX
  8
LAYER10
 62
     1
  6
CONTINUOUS
 10
10.7990
 20
8.5274
  0
VERTEX
  8
LAYER10
 62
     1
  6
CONTINUOUS
 10
10.7990
 20
8.5274
  0
VERTEX
  8
LAYER10
 62
     1
  6
CONTINUOUS
 10
10.7990
 20
8.5274
  0
VERTEX
  8
LAYER10
 62
     1
  6
CONTINUOUS
 10
10.7991
 20
8.5273
  0
VERTEX
  8
LAYER10
 62
     1
  6
CONTINUOUS
 10
10.7991
 20
8.5273
  0
VERTEX
  8
LAYER10
 62
     1
  6
CONTINUOUS
 10
10.7991
 20
8.5273
  0
VERTEX
  8
LAYER10
 62
     1
  6
CONTINUOUS
 10
10.7991
 20
8.5273
  0
VERTEX
  8
LAYER10
 62
     1
  6
CONTINUOUS
 10
10.7991
 20
8.5273
  0
VERTEX
  8
LAYER10
 62
     1
  6
CONTINUOUS
 10
10.7991
 20
8.5272
  0
VERTEX
  8
LAYER10
 62
     1
  6
CONTINUOUS
 10
10.7992
 20
8.5272
  0
VERTEX
  8
LAYER10
 62
     1
  6
CONTINUOUS
 10
10.7994
 20
8.5269
  0
VERTEX
  8
LAYER10
 62
     1
  6
CONTINUOUS
 10
10.7997
 20
8.5266
  0
VERTEX
  8
LAYER10
 62
     1
  6
CONTINUOUS
 10
10.8000
 20
8.5263
  0
VERTEX
  8
LAYER10
 62
     1
  6
CONTINUOUS
 10
10.8003
 20
8.5260
  0
VERTEX
  8
LAYER10
 62
     1
  6
CONTINUOUS
 10
10.8006
 20
8.5258
  0
VERTEX
  8
LAYER10
 62
     1
  6
CONTINUOUS
 10
10.8008
 20
8.5255
  0
VERTEX
  8
LAYER10
 62
     1
  6
CONTINUOUS
 10
10.8011
 20
8.5252
  0
VERTEX
  8
LAYER10
 62
     1
  6
CONTINUOUS
 10
10.8014
 20
8.5250
  0
VERTEX
  8
LAYER10
 62
     1
  6
CONTINUOUS
 10
10.8018
 20
8.5247
  0
VERTEX
  8
LAYER10
 62
     1
  6
CONTINUOUS
 10
10.8021
 20
8.5244
  0
VERTEX
  8
LAYER10
 62
     1
  6
CONTINUOUS
 10
10.8024
 20
8.5242
  0
VERTEX
  8
LAYER10
 62
     1
  6
CONTINUOUS
 10
10.8027
 20
8.5239
  0
SEQEND
  8
LAYER10
  0
POLYLINE
  8
LAYER10
 62
     1
 66
     1
  6
CONTINUOUS
  0
VERTEX
  8
LAYER10
 62
     1
  6
CONTINUOUS
 10
10.3677
 20
8.5239
  0
VERTEX
  8
LAYER10
 62
     1
  6
CONTINUOUS
 10
10.3675
 20
8.5243
  0
VERTEX
  8
LAYER10
 62
     1
  6
CONTINUOUS
 10
10.3674
 20
8.5246
  0
VERTEX
  8
LAYER10
 62
     1
  6
CONTINUOUS
 10
10.3672
 20
8.5250
  0
VERTEX
  8
LAYER10
 62
     1
  6
CONTINUOUS
 10
10.3671
 20
8.5253
  0
VERTEX
  8
LAYER10
 62
     1
  6
CONTINUOUS
 10
10.3670
 20
8.5257
  0
VERTEX
  8
LAYER10
 62
     1
  6
CONTINUOUS
 10
10.3668
 20
8.5260
  0
VERTEX
  8
LAYER10
 62
     1
  6
CONTINUOUS
 10
10.3667
 20
8.5263
  0
VERTEX
  8
LAYER10
 62
     1
  6
CONTINUOUS
 10
10.3666
 20
8.5266
  0
VERTEX
  8
LAYER10
 62
     1
  6
CONTINUOUS
 10
10.3665
 20
8.5268
  0
VERTEX
  8
LAYER10
 62
     1
  6
CONTINUOUS
 10
10.3664
 20
8.5271
  0
VERTEX
  8
LAYER10
 62
     1
  6
CONTINUOUS
 10
10.3663
 20
8.5273
  0
VERTEX
  8
LAYER10
 62
     1
  6
CONTINUOUS
 10
10.3662
 20
8.5275
  0
VERTEX
  8
LAYER10
 62
     1
  6
CONTINUOUS
 10
10.3661
 20
8.5276
  0
VERTEX
  8
LAYER10
 62
     1
  6
CONTINUOUS
 10
10.3661
 20
8.5277
  0
VERTEX
  8
LAYER10
 62
     1
  6
CONTINUOUS
 10
10.3660
 20
8.5278
  0
VERTEX
  8
LAYER10
 62
     1
  6
CONTINUOUS
 10
10.3660
 20
8.5279
  0
VERTEX
  8
LAYER10
 62
     1
  6
CONTINUOUS
 10
10.3660
 20
8.5279
  0
VERTEX
  8
LAYER10
 62
     1
  6
CONTINUOUS
 10
10.3660
 20
8.5279
  0
VERTEX
  8
LAYER10
 62
     1
  6
CONTINUOUS
 10
10.3660
 20
8.5278
  0
VERTEX
  8
LAYER10
 62
     1
  6
CONTINUOUS
 10
10.3661
 20
8.5278
  0
VERTEX
  8
LAYER10
 62
     1
  6
CONTINUOUS
 10
10.3661
 20
8.5277
  0
VERTEX
  8
LAYER10
 62
     1
  6
CONTINUOUS
 10
10.3661
 20
8.5276
  0
VERTEX
  8
LAYER10
 62
     1
  6
CONTINUOUS
 10
10.3662
 20
8.5276
  0
VERTEX
  8
LAYER10
 62
     1
  6
CONTINUOUS
 10
10.3662
 20
8.5275
  0
SEQEND
  8
LAYER10
  0
POLYLINE
  8
LAYER10
 62
     1
 66
     1
  6
CONTINUOUS
  0
VERTEX
  8
LAYER10
 62
     1
  6
CONTINUOUS
 10
10.0398
 20
9.4042
  0
VERTEX
  8
LAYER10
 62
     1
  6
CONTINUOUS
 10
10.0398
 20
9.4042
  0
VERTEX
  8
LAYER10
 62
     1
  6
CONTINUOUS
 10
10.0398
 20
9.4042
  0
VERTEX
  8
LAYER10
 62
     1
  6
CONTINUOUS
 10
10.0398
 20
9.4042
  0
VERTEX
  8
LAYER10
 62
     1
  6
CONTINUOUS
 10
10.0398
 20
9.4042
  0
VERTEX
  8
LAYER10
 62
     1
  6
CONTINUOUS
 10
10.0398
 20
9.4042
  0
VERTEX
  8
LAYER10
 62
     1
  6
CONTINUOUS
 10
10.0398
 20
9.4042
  0
VERTEX
  8
LAYER10
 62
     1
  6
CONTINUOUS
 10
10.0398
 20
9.4042
  0
VERTEX
  8
LAYER10
 62
     1
  6
CONTINUOUS
 10
10.0398
 20
9.4042
  0
VERTEX
  8
LAYER10
 62
     1
  6
CONTINUOUS
 10
10.0398
 20
9.4042
  0
VERTEX
  8
LAYER10
 62
     1
  6
CONTINUOUS
 10
10.0398
 20
9.4042
  0
VERTEX
  8
LAYER10
 62
     1
  6
CONTINUOUS
 10
10.0398
 20
9.4042
  0
VERTEX
  8
LAYER10
 62
     1
  6
CONTINUOUS
 10
10.0398
 20
9.4042
  0
VERTEX
  8
LAYER10
 62
     1
  6
CONTINUOUS
 10
10.0398
 20
9.4042
  0
VERTEX
  8
LAYER10
 62
     1
  6
CONTINUOUS
 10
10.0398
 20
9.4042
  0
VERTEX
  8
LAYER10
 62
     1
  6
CONTINUOUS
 10
10.0398
 20
9.4042
  0
VERTEX
  8
LAYER10
 62
     1
  6
CONTINUOUS
 10
10.0398
 20
9.4042
  0
VERTEX
  8
LAYER10
 62
     1
  6
CONTINUOUS
 10
10.0398
 20
9.4042
  0
VERTEX
  8
LAYER10
 62
     1
  6
CONTINUOUS
 10
10.0398
 20
9.4042
  0
VERTEX
  8
LAYER10
 62
     1
  6
CONTINUOUS
 10
10.0398
 20
9.4042
  0
VERTEX
  8
LAYER10
 62
     1
  6
CONTINUOUS
 10
10.0398
 20
9.4042
  0
VERTEX
  8
LAYER10
 62
     1
  6
CONTINUOUS
 10
10.0398
 20
9.4042
  0
VERTEX
  8
LAYER10
 62
     1
  6
CONTINUOUS
 10
10.0398
 20
9.4042
  0
VERTEX
  8
LAYER10
 62
     1
  6
CONTINUOUS
 10
10.0398
 20
9.4042
  0
VERTEX
  8
LAYER10
 62
     1
  6
CONTINUOUS
 10
10.0398
 20
9.4042
  0
SEQEND
  8
LAYER10
  0
POLYLINE
  8
LAYER10
 62
     1
 66
     1
  6
CONTINUOUS
  0
VERTEX
  8
LAYER10
 62
     1
  6
CONTINUOUS
 10
10.0398
 20
9.4042
  0
VERTEX
  8
LAYER10
 62
     1
  6
CONTINUOUS
 10
10.0398
 20
9.4042
  0
VERTEX
  8
LAYER10
 62
     1
  6
CONTINUOUS
 10
10.0398
 20
9.4042
  0
VERTEX
  8
LAYER10
 62
     1
  6
CONTINUOUS
 10
10.0398
 20
9.4042
  0
VERTEX
  8
LAYER10
 62
     1
  6
CONTINUOUS
 10
10.0398
 20
9.4042
  0
VERTEX
  8
LAYER10
 62
     1
  6
CONTINUOUS
 10
10.0398
 20
9.4042
  0
VERTEX
  8
LAYER10
 62
     1
  6
CONTINUOUS
 10
10.0398
 20
9.4042
  0
VERTEX
  8
LAYER10
 62
     1
  6
CONTINUOUS
 10
10.0398
 20
9.4042
  0
VERTEX
  8
LAYER10
 62
     1
  6
CONTINUOUS
 10
10.0398
 20
9.4042
  0
VERTEX
  8
LAYER10
 62
     1
  6
CONTINUOUS
 10
10.0398
 20
9.4042
  0
VERTEX
  8
LAYER10
 62
     1
  6
CONTINUOUS
 10
10.0398
 20
9.4042
  0
VERTEX
  8
LAYER10
 62
     1
  6
CONTINUOUS
 10
10.0398
 20
9.4042
  0
VERTEX
  8
LAYER10
 62
     1
  6
CONTINUOUS
 10
10.0398
 20
9.4042
  0
VERTEX
  8
LAYER10
 62
     1
  6
CONTINUOUS
 10
10.0398
 20
9.4039
  0
VERTEX
  8
LAYER10
 62
     1
  6
CONTINUOUS
 10
10.0398
 20
9.4036
  0
VERTEX
  8
LAYER10
 62
     1
  6
CONTINUOUS
 10
10.0398
 20
9.4035
  0
VERTEX
  8
LAYER10
 62
     1
  6
CONTINUOUS
 10
10.0398
 20
9.4034
  0
VERTEX
  8
LAYER10
 62
     1
  6
CONTINUOUS
 10
10.0398
 20
9.4033
  0
VERTEX
  8
LAYER10
 62
     1
  6
CONTINUOUS
 10
10.0398
 20
9.4033
  0
VERTEX
  8
LAYER10
 62
     1
  6
CONTINUOUS
 10
10.0398
 20
9.4034
  0
VERTEX
  8
LAYER10
 62
     1
  6
CONTINUOUS
 10
10.0398
 20
9.4035
  0
VERTEX
  8
LAYER10
 62
     1
  6
CONTINUOUS
 10
10.0398
 20
9.4037
  0
VERTEX
  8
LAYER10
 62
     1
  6
CONTINUOUS
 10
10.0398
 20
9.4038
  0
VERTEX
  8
LAYER10
 62
     1
  6
CONTINUOUS
 10
10.0398
 20
9.4040
  0
VERTEX
  8
LAYER10
 62
     1
  6
CONTINUOUS
 10
10.0398
 20
9.4042
  0
SEQEND
  8
LAYER10
  0
POLYLINE
  8
LAYER10
 62
     1
 66
     1
  6
CONTINUOUS
  0
VERTEX
  8
LAYER10
 62
     1
  6
CONTINUOUS
 10
10.0398
 20
9.4042
  0
VERTEX
  8
LAYER10
 62
     1
  6
CONTINUOUS
 10
10.0398
 20
9.4042
  0
VERTEX
  8
LAYER10
 62
     1
  6
CONTINUOUS
 10
10.0398
 20
9.4042
  0
VERTEX
  8
LAYER10
 62
     1
  6
CONTINUOUS
 10
10.0398
 20
9.4042
  0
VERTEX
  8
LAYER10
 62
     1
  6
CONTINUOUS
 10
10.0398
 20
9.4042
  0
VERTEX
  8
LAYER10
 62
     1
  6
CONTINUOUS
 10
10.0398
 20
9.4042
  0
VERTEX
  8
LAYER10
 62
     1
  6
CONTINUOUS
 10
10.0398
 20
9.4042
  0
VERTEX
  8
LAYER10
 62
     1
  6
CONTINUOUS
 10
10.0398
 20
9.4042
  0
VERTEX
  8
LAYER10
 62
     1
  6
CONTINUOUS
 10
10.0398
 20
9.4042
  0
VERTEX
  8
LAYER10
 62
     1
  6
CONTINUOUS
 10
10.0398
 20
9.4042
  0
VERTEX
  8
LAYER10
 62
     1
  6
CONTINUOUS
 10
10.0398
 20
9.4042
  0
VERTEX
  8
LAYER10
 62
     1
  6
CONTINUOUS
 10
10.0398
 20
9.4042
  0
VERTEX
  8
LAYER10
 62
     1
  6
CONTINUOUS
 10
10.0398
 20
9.4042
  0
VERTEX
  8
LAYER10
 62
     1
  6
CONTINUOUS
 10
10.0398
 20
9.4045
  0
VERTEX
  8
LAYER10
 62
     1
  6
CONTINUOUS
 10
10.0398
 20
9.4048
  0
VERTEX
  8
LAYER10
 62
     1
  6
CONTINUOUS
 10
10.0398
 20
9.4049
  0
VERTEX
  8
LAYER10
 62
     1
  6
CONTINUOUS
 10
10.0398
 20
9.4050
  0
VERTEX
  8
LAYER10
 62
     1
  6
CONTINUOUS
 10
10.0398
 20
9.4051
  0
VERTEX
  8
LAYER10
 62
     1
  6
CONTINUOUS
 10
10.0398
 20
9.4050
  0
VERTEX
  8
LAYER10
 62
     1
  6
CONTINUOUS
 10
10.0398
 20
9.4050
  0
VERTEX
  8
LAYER10
 62
     1
  6
CONTINUOUS
 10
10.0398
 20
9.4049
  0
VERTEX
  8
LAYER10
 62
     1
  6
CONTINUOUS
 10
10.0398
 20
9.4047
  0
VERTEX
  8
LAYER10
 62
     1
  6
CONTINUOUS
 10
10.0398
 20
9.4046
  0
VERTEX
  8
LAYER10
 62
     1
  6
CONTINUOUS
 10
10.0398
 20
9.4044
  0
VERTEX
  8
LAYER10
 62
     1
  6
CONTINUOUS
 10
10.0398
 20
9.4042
  0
SEQEND
  8
LAYER10
  0
POLYLINE
  8
LAYER10
 62
     1
 66
     1
  6
CONTINUOUS
  0
VERTEX
  8
LAYER10
 62
     1
  6
CONTINUOUS
 10
10.0398
 20
9.4042
  0
VERTEX
  8
LAYER10
 62
     1
  6
CONTINUOUS
 10
10.0398
 20
9.4042
  0
VERTEX
  8
LAYER10
 62
     1
  6
CONTINUOUS
 10
10.0398
 20
9.4042
  0
VERTEX
  8
LAYER10
 62
     1
  6
CONTINUOUS
 10
10.0398
 20
9.4042
  0
VERTEX
  8
LAYER10
 62
     1
  6
CONTINUOUS
 10
10.0398
 20
9.4042
  0
VERTEX
  8
LAYER10
 62
     1
  6
CONTINUOUS
 10
10.0398
 20
9.4042
  0
VERTEX
  8
LAYER10
 62
     1
  6
CONTINUOUS
 10
10.0398
 20
9.4042
  0
VERTEX
  8
LAYER10
 62
     1
  6
CONTINUOUS
 10
10.0398
 20
9.4042
  0
VERTEX
  8
LAYER10
 62
     1
  6
CONTINUOUS
 10
10.0398
 20
9.4042
  0
VERTEX
  8
LAYER10
 62
     1
  6
CONTINUOUS
 10
10.0398
 20
9.4042
  0
VERTEX
  8
LAYER10
 62
     1
  6
CONTINUOUS
 10
10.0398
 20
9.4042
  0
VERTEX
  8
LAYER10
 62
     1
  6
CONTINUOUS
 10
10.0398
 20
9.4042
  0
VERTEX
  8
LAYER10
 62
     1
  6
CONTINUOUS
 10
10.0398
 20
9.4042
  0
VERTEX
  8
LAYER10
 62
     1
  6
CONTINUOUS
 10
10.0398
 20
9.4042
  0
VERTEX
  8
LAYER10
 62
     1
  6
CONTINUOUS
 10
10.0398
 20
9.4042
  0
VERTEX
  8
LAYER10
 62
     1
  6
CONTINUOUS
 10
10.0398
 20
9.4042
  0
VERTEX
  8
LAYER10
 62
     1
  6
CONTINUOUS
 10
10.0398
 20
9.4042
  0
VERTEX
  8
LAYER10
 62
     1
  6
CONTINUOUS
 10
10.0398
 20
9.4042
  0
VERTEX
  8
LAYER10
 62
     1
  6
CONTINUOUS
 10
10.0398
 20
9.4042
  0
VERTEX
  8
LAYER10
 62
     1
  6
CONTINUOUS
 10
10.0398
 20
9.4042
  0
VERTEX
  8
LAYER10
 62
     1
  6
CONTINUOUS
 10
10.0398
 20
9.4042
  0
VERTEX
  8
LAYER10
 62
     1
  6
CONTINUOUS
 10
10.0398
 20
9.4042
  0
VERTEX
  8
LAYER10
 62
     1
  6
CONTINUOUS
 10
10.0398
 20
9.4042
  0
VERTEX
  8
LAYER10
 62
     1
  6
CONTINUOUS
 10
10.0398
 20
9.4042
  0
VERTEX
  8
LAYER10
 62
     1
  6
CONTINUOUS
 10
10.0398
 20
9.4042
  0
SEQEND
  8
LAYER10
  0
POLYLINE
  8
LAYER10
 62
     1
 66
     1
  6
CONTINUOUS
  0
VERTEX
  8
LAYER10
 62
     1
  6
CONTINUOUS
 10
10.0398
 20
9.4042
  0
VERTEX
  8
LAYER10
 62
     1
  6
CONTINUOUS
 10
10.0405
 20
9.4031
  0
VERTEX
  8
LAYER10
 62
     1
  6
CONTINUOUS
 10
10.0412
 20
9.4020
  0
VERTEX
  8
LAYER10
 62
     1
  6
CONTINUOUS
 10
10.0418
 20
9.4009
  0
VERTEX
  8
LAYER10
 62
     1
  6
CONTINUOUS
 10
10.0425
 20
9.3998
  0
VERTEX
  8
LAYER10
 62
     1
  6
CONTINUOUS
 10
10.0431
 20
9.3988
  0
VERTEX
  8
LAYER10
 62
     1
  6
CONTINUOUS
 10
10.0437
 20
9.3979
  0
VERTEX
  8
LAYER10
 62
     1
  6
CONTINUOUS
 10
10.0442
 20
9.3970
  0
VERTEX
  8
LAYER10
 62
     1
  6
CONTINUOUS
 10
10.0447
 20
9.3963
  0
VERTEX
  8
LAYER10
 62
     1
  6
CONTINUOUS
 10
10.0451
 20
9.3956
  0
VERTEX
  8
LAYER10
 62
     1
  6
CONTINUOUS
 10
10.0455
 20
9.3950
  0
VERTEX
  8
LAYER10
 62
     1
  6
CONTINUOUS
 10
10.0458
 20
9.3946
  0
VERTEX
  8
LAYER10
 62
     1
  6
CONTINUOUS
 10
10.0459
 20
9.3943
  0
VERTEX
  8
LAYER10
 62
     1
  6
CONTINUOUS
 10
10.0460
 20
9.3942
  0
VERTEX
  8
LAYER10
 62
     1
  6
CONTINUOUS
 10
10.0460
 20
9.3941
  0
VERTEX
  8
LAYER10
 62
     1
  6
CONTINUOUS
 10
10.0460
 20
9.3941
  0
VERTEX
  8
LAYER10
 62
     1
  6
CONTINUOUS
 10
10.0461
 20
9.3941
  0
VERTEX
  8
LAYER10
 62
     1
  6
CONTINUOUS
 10
10.0461
 20
9.3941
  0
VERTEX
  8
LAYER10
 62
     1
  6
CONTINUOUS
 10
10.0461
 20
9.3941
  0
VERTEX
  8
LAYER10
 62
     1
  6
CONTINUOUS
 10
10.0461
 20
9.3941
  0
VERTEX
  8
LAYER10
 62
     1
  6
CONTINUOUS
 10
10.0460
 20
9.3941
  0
VERTEX
  8
LAYER10
 62
     1
  6
CONTINUOUS
 10
10.0460
 20
9.3942
  0
VERTEX
  8
LAYER10
 62
     1
  6
CONTINUOUS
 10
10.0460
 20
9.3942
  0
VERTEX
  8
LAYER10
 62
     1
  6
CONTINUOUS
 10
10.0460
 20
9.3942
  0
VERTEX
  8
LAYER10
 62
     1
  6
CONTINUOUS
 10
10.0459
 20
9.3943
  0
SEQEND
  8
LAYER10
  0
POLYLINE
  8
LAYER10
 62
     1
 66
     1
  6
CONTINUOUS
  0
VERTEX
  8
LAYER10
 62
     1
  6
CONTINUOUS
 10
10.0459
 20
9.2707
  0
VERTEX
  8
LAYER10
 62
     1
  6
CONTINUOUS
 10
10.0453
 20
9.2700
  0
VERTEX
  8
LAYER10
 62
     1
  6
CONTINUOUS
 10
10.0446
 20
9.2694
  0
VERTEX
  8
LAYER10
 62
     1
  6
CONTINUOUS
 10
10.0439
 20
9.2688
  0
VERTEX
  8
LAYER10
 62
     1
  6
CONTINUOUS
 10
10.0433
 20
9.2682
  0
VERTEX
  8
LAYER10
 62
     1
  6
CONTINUOUS
 10
10.0427
 20
9.2676
  0
VERTEX
  8
LAYER10
 62
     1
  6
CONTINUOUS
 10
10.0421
 20
9.2670
  0
VERTEX
  8
LAYER10
 62
     1
  6
CONTINUOUS
 10
10.0416
 20
9.2665
  0
VERTEX
  8
LAYER10
 62
     1
  6
CONTINUOUS
 10
10.0411
 20
9.2661
  0
VERTEX
  8
LAYER10
 62
     1
  6
CONTINUOUS
 10
10.0406
 20
9.2657
  0
VERTEX
  8
LAYER10
 62
     1
  6
CONTINUOUS
 10
10.0403
 20
9.2653
  0
VERTEX
  8
LAYER10
 62
     1
  6
CONTINUOUS
 10
10.0400
 20
9.2650
  0
VERTEX
  8
LAYER10
 62
     1
  6
CONTINUOUS
 10
10.0398
 20
9.2648
  0
VERTEX
  8
LAYER10
 62
     1
  6
CONTINUOUS
 10
10.0397
 20
9.2648
  0
VERTEX
  8
LAYER10
 62
     1
  6
CONTINUOUS
 10
10.0396
 20
9.2647
  0
VERTEX
  8
LAYER10
 62
     1
  6
CONTINUOUS
 10
10.0396
 20
9.2647
  0
VERTEX
  8
LAYER10
 62
     1
  6
CONTINUOUS
 10
10.0396
 20
9.2646
  0
VERTEX
  8
LAYER10
 62
     1
  6
CONTINUOUS
 10
10.0395
 20
9.2646
  0
VERTEX
  8
LAYER10
 62
     1
  6
CONTINUOUS
 10
10.0396
 20
9.2646
  0
VERTEX
  8
LAYER10
 62
     1
  6
CONTINUOUS
 10
10.0396
 20
9.2647
  0
VERTEX
  8
LAYER10
 62
     1
  6
CONTINUOUS
 10
10.0396
 20
9.2647
  0
VERTEX
  8
LAYER10
 62
     1
  6
CONTINUOUS
 10
10.0396
 20
9.2647
  0
VERTEX
  8
LAYER10
 62
     1
  6
CONTINUOUS
 10
10.0397
 20
9.2647
  0
VERTEX
  8
LAYER10
 62
     1
  6
CONTINUOUS
 10
10.0397
 20
9.2648
  0
VERTEX
  8
LAYER10
 62
     1
  6
CONTINUOUS
 10
10.0398
 20
9.2648
  0
SEQEND
  8
LAYER10
  0
POLYLINE
  8
LAYER10
 62
     1
 66
     1
  6
CONTINUOUS
  0
VERTEX
  8
LAYER10
 62
     1
  6
CONTINUOUS
 10
10.0398
 20
9.2648
  0
VERTEX
  8
LAYER10
 62
     1
  6
CONTINUOUS
 10
10.0398
 20
9.2648
  0
VERTEX
  8
LAYER10
 62
     1
  6
CONTINUOUS
 10
10.0398
 20
9.2648
  0
VERTEX
  8
LAYER10
 62
     1
  6
CONTINUOUS
 10
10.0398
 20
9.2648
  0
VERTEX
  8
LAYER10
 62
     1
  6
CONTINUOUS
 10
10.0398
 20
9.2648
  0
VERTEX
  8
LAYER10
 62
     1
  6
CONTINUOUS
 10
10.0398
 20
9.2648
  0
VERTEX
  8
LAYER10
 62
     1
  6
CONTINUOUS
 10
10.0398
 20
9.2648
  0
VERTEX
  8
LAYER10
 62
     1
  6
CONTINUOUS
 10
10.0398
 20
9.2648
  0
VERTEX
  8
LAYER10
 62
     1
  6
CONTINUOUS
 10
10.0398
 20
9.2648
  0
VERTEX
  8
LAYER10
 62
     1
  6
CONTINUOUS
 10
10.0398
 20
9.2648
  0
VERTEX
  8
LAYER10
 62
     1
  6
CONTINUOUS
 10
10.0398
 20
9.2648
  0
VERTEX
  8
LAYER10
 62
     1
  6
CONTINUOUS
 10
10.0398
 20
9.2648
  0
VERTEX
  8
LAYER10
 62
     1
  6
CONTINUOUS
 10
10.0398
 20
9.2648
  0
VERTEX
  8
LAYER10
 62
     1
  6
CONTINUOUS
 10
10.0398
 20
9.2648
  0
VERTEX
  8
LAYER10
 62
     1
  6
CONTINUOUS
 10
10.0398
 20
9.2648
  0
VERTEX
  8
LAYER10
 62
     1
  6
CONTINUOUS
 10
10.0398
 20
9.2648
  0
VERTEX
  8
LAYER10
 62
     1
  6
CONTINUOUS
 10
10.0398
 20
9.2648
  0
VERTEX
  8
LAYER10
 62
     1
  6
CONTINUOUS
 10
10.0398
 20
9.2648
  0
VERTEX
  8
LAYER10
 62
     1
  6
CONTINUOUS
 10
10.0398
 20
9.2648
  0
VERTEX
  8
LAYER10
 62
     1
  6
CONTINUOUS
 10
10.0398
 20
9.2648
  0
VERTEX
  8
LAYER10
 62
     1
  6
CONTINUOUS
 10
10.0398
 20
9.2648
  0
VERTEX
  8
LAYER10
 62
     1
  6
CONTINUOUS
 10
10.0398
 20
9.2648
  0
VERTEX
  8
LAYER10
 62
     1
  6
CONTINUOUS
 10
10.0398
 20
9.2648
  0
VERTEX
  8
LAYER10
 62
     1
  6
CONTINUOUS
 10
10.0398
 20
9.2648
  0
VERTEX
  8
LAYER10
 62
     1
  6
CONTINUOUS
 10
10.0398
 20
9.2648
  0
SEQEND
  8
LAYER10
  0
POLYLINE
  8
LAYER12
 62
     5
 66
     1
  6
CONTINUOUS
  0
VERTEX
  8
LAYER12
 62
     5
  6
CONTINUOUS
 10
10.0459
 20
8.5302
  0
VERTEX
  8
LAYER12
 62
     5
  6
CONTINUOUS
 10
10.0467
 20
8.5302
  0
SEQEND
  8
LAYER12
  0
POLYLINE
  8
LAYER12
 62
     5
 66
     1
  6
CONTINUOUS
  0
VERTEX
  8
LAYER12
 62
     5
  6
CONTINUOUS
 10
11.0235
 20
9.5090
  0
VERTEX
  8
LAYER12
 62
     5
  6
CONTINUOUS
 10
11.0235
 20
8.5302
  0
SEQEND
  8
LAYER12
  0
POLYLINE
  8
LAYER12
 62
     5
 66
     1
  6
CONTINUOUS
  0
VERTEX
  8
LAYER12
 62
     5
  6
CONTINUOUS
 10
11.0235
 20
9.5139
  0
VERTEX
  8
LAYER12
 62
     5
  6
CONTINUOUS
 10
11.0213
 20
9.5139
  0
SEQEND
  8
LAYER12
  0
POLYLINE
  8
LAYER12
 62
     5
 66
     1
  6
CONTINUOUS
  0
VERTEX
  8
LAYER12
 62
     5
  6
CONTINUOUS
 10
11.0213
 20
9.5139
  0
VERTEX
  8
LAYER12
 62
     5
  6
CONTINUOUS
 10
11.0213
 20
9.5139
  0
SEQEND
  8
LAYER12
  0
POLYLINE
  8
LAYER12
 62
     5
 66
     1
  6
CONTINUOUS
  0
VERTEX
  8
LAYER12
 62
     5
  6
CONTINUOUS
 10
11.0213
 20
9.5139
  0
VERTEX
  8
LAYER12
 62
     5
  6
CONTINUOUS
 10
10.0459
 20
9.5139
  0
SEQEND
  8
LAYER12
  0
POLYLINE
  8
LAYER12
 62
     5
 66
     1
  6
CONTINUOUS
  0
VERTEX
  8
LAYER12
 62
     5
  6
CONTINUOUS
 10
10.0467
 20
8.5302
  0
VERTEX
  8
LAYER12
 62
     5
  6
CONTINUOUS
 10
11.0213
 20
8.5302
  0
SEQEND
  8
LAYER12
  0
POLYLINE
  8
LAYER12
 62
     5
 66
     1
  6
CONTINUOUS
  0
VERTEX
  8
LAYER12
 62
     5
  6
CONTINUOUS
 10
11.0213
 20
8.5302
  0
VERTEX
  8
LAYER12
 62
     5
  6
CONTINUOUS
 10
11.0235
 20
8.5302
  0
SEQEND
  8
LAYER12
  0
POLYLINE
  8
LAYER12
 62
     5
 66
     1
  6
CONTINUOUS
  0
VERTEX
  8
LAYER12
 62
     5
  6
CONTINUOUS
 10
11.0235
 20
8.5302
  0
VERTEX
  8
LAYER12
 62
     5
  6
CONTINUOUS
 10
11.0284
 20
8.5302
  0
SEQEND
  8
LAYER12
  0
POLYLINE
  8
LAYER12
 62
     5
 66
     1
  6
CONTINUOUS
  0
VERTEX
  8
LAYER12
 62
     5
  6
CONTINUOUS
 10
11.0235
 20
8.5239
  0
VERTEX
  8
LAYER12
 62
     5
  6
CONTINUOUS
 10
11.0235
 20
8.5302
  0
SEQEND
  8
LAYER12
  0
POLYLINE
  8
LAYER12
 62
     5
 66
     1
  6
CONTINUOUS
  0
VERTEX
  8
LAYER12
 62
     5
  6
CONTINUOUS
 10
11.0235
 20
9.5161
  0
VERTEX
  8
LAYER12
 62
     5
  6
CONTINUOUS
 10
11.0235
 20
9.5090
  0
SEQEND
  8
LAYER12
  0
POLYLINE
  8
LAYER12
 62
     5
 66
     1
  6
CONTINUOUS
  0
VERTEX
  8
LAYER12
 62
     5
  6
CONTINUOUS
 10
10.0398
 20
8.5354
  0
VERTEX
  8
LAYER12
 62
     5
  6
CONTINUOUS
 10
10.0398
 20
8.5281
  0
SEQEND
  8
LAYER12
  0
POLYLINE
  8
LAYER12
 62
     5
 66
     1
  6
CONTINUOUS
  0
VERTEX
  8
LAYER12
 62
     5
  6
CONTINUOUS
 10
10.0398
 20
8.5281
  0
VERTEX
  8
LAYER12
 62
     5
  6
CONTINUOUS
 10
10.0398
 20
8.5275
  0
SEQEND
  8
LAYER12
  0
POLYLINE
  8
LAYER12
 62
     5
 66
     1
  6
CONTINUOUS
  0
VERTEX
  8
LAYER12
 62
     5
  6
CONTINUOUS
 10
10.0398
 20
8.5275
  0
VERTEX
  8
LAYER12
 62
     5
  6
CONTINUOUS
 10
10.0398
 20
8.5239
  0
SEQEND
  8
LAYER12
  0
POLYLINE
  8
LAYER12
 62
     5
 66
     1
  6
CONTINUOUS
  0
VERTEX
  8
LAYER12
 62
     5
  6
CONTINUOUS
 10
10.0398
 20
8.5302
  0
VERTEX
  8
LAYER12
 62
     5
  6
CONTINUOUS
 10
10.0459
 20
8.5302
  0
SEQEND
  8
LAYER12
  0
POLYLINE
  8
LAYER12
 62
     5
 66
     1
  6
CONTINUOUS
  0
VERTEX
  8
LAYER12
 62
     5
  6
CONTINUOUS
 10
10.0398
 20
9.5146
  0
VERTEX
  8
LAYER12
 62
     5
  6
CONTINUOUS
 10
10.0398
 20
9.5097
  0
SEQEND
  8
LAYER12
  0
POLYLINE
  8
LAYER12
 62
     5
 66
     1
  6
CONTINUOUS
  0
VERTEX
  8
LAYER12
 62
     5
  6
CONTINUOUS
 10
10.0398
 20
9.5097
  0
VERTEX
  8
LAYER12
 62
     5
  6
CONTINUOUS
 10
10.0398
 20
9.5090
  0
SEQEND
  8
LAYER12
  0
POLYLINE
  8
LAYER12
 62
     5
 66
     1
  6
CONTINUOUS
  0
VERTEX
  8
LAYER12
 62
     5
  6
CONTINUOUS
 10
10.0398
 20
9.5090
  0
VERTEX
  8
LAYER12
 62
     5
  6
CONTINUOUS
 10
10.0398
 20
8.5354
  0
SEQEND
  8
LAYER12
  0
POLYLINE
  8
LAYER12
 62
     5
 66
     1
  6
CONTINUOUS
  0
VERTEX
  8
LAYER12
 62
     5
  6
CONTINUOUS
 10
10.0459
 20
9.5139
  0
VERTEX
  8
LAYER12
 62
     5
  6
CONTINUOUS
 10
10.0398
 20
9.5139
  0
SEQEND
  8
LAYER12
  0
POLYLINE
  8
LAYER12
 62
     5
 66
     1
  6
CONTINUOUS
  0
VERTEX
  8
LAYER12
 62
     5
  6
CONTINUOUS
 10
10.0398
 20
9.5161
  0
VERTEX
  8
LAYER12
 62
     5
  6
CONTINUOUS
 10
10.0398
 20
9.5146
  0
SEQEND
  8
LAYER12
  0
ENDSEC
  0
EOF
