  0
SECTION
  2
HEADER
  9
$ACADVER
  1
AC1004
  9
$EXTMIN
 10
5.0426
 20
9.5131
  9
$EXTMAX
 10
6.0664
 20
10.5370
  9
$LIMMIN
 10
5.0426
 20
9.5131
  9
$LIMMAX
 10
6.0664
 20
10.5370
  9
$INSBASE
 10
0.0
 20
0.0
  9
$VIEWCTR
 10
7.21903
 20
4.5
  9
$VIEWSIZE
 40
9.0
  9
$SNAPMODE
 70
     0
  9
$SNAPUNIT
 10
1.0
 20
1.0
  9
$SNAPBASE
 10
0.0
 20
0.0
  9
$SNAPANG
 50
0.0
  9
$SNAPSTYLE
 70
     0
  9
$SNAPISOPAIR
 70
     0
  9
$GRIDMODE
 70
     0
  9
$GRIDUNIT
 10
0.0
 20
0.0
  9
$ORTHOMODE
 70
     0
  9
$REGENMODE
 70
     1
  9
$FILLMODE
 70
     1
  9
$QTEXTMODE
 70
     0
  9
$DRAGMODE
 70
     2
  9
$LTSCALE
 40
1.0
  9
$OSMODE
 70
     0
  9
$ATTMODE
 70
     1
  9
$TEXTSIZE
 40
0.2
  9
$TRACEWID
 40
0.05
  9
$TEXTSTYLE
  7
STANDARD
  9
$CLAYER
  8
0
  9
$CELTYPE
  6
BYLAYER
  9
$CECOLOR
 62
   256
  9
$DIMSCALE
 40
1.0
  9
$DIMASZ
 40
0.18
  9
$DIMEXO
 40
0.0625
  9
$DIMDLI
 40
0.38
  9
$DIMRND
 40
0.0
  9
$DIMDLE
 40
0.0
  9
$DIMEXE
 40
0.18
  9
$DIMTP
 40
0.0
  9
$DIMTM
 40
0.0
  9
$DIMTXT
 40
0.18
  9
$DIMCEN
 40
0.09
  9
$DIMTSZ
 40
0.0
  9
$DIMTOL
 70
     0
  9
$DIMLIM
 70
     0
  9
$DIMTIH
 70
     1
  9
$DIMTOH
 70
     1
  9
$DIMSE1
 70
     0
  9
$DIMSE2
 70
     0
  9
$DIMTAD
 70
     0
  9
$DIMZIN
 70
     0
  9
$DIMBLK
  1

  9
$DIMASO
 70
     1
  9
$DIMSHO
 70
     0
  9
$DIMPOST
  1

  9
$DIMAPOST
  1

  9
$DIMALT
 70
     0
  9
$DIMALTD
 70
     2
  9
$DIMALTF
 40
25.4
  9
$DIMLFAC
 40
1.0
  9
$LUNITS
 70
     2
  9
$LUPREC
 70
     4
  9
$AXISMODE
 70
     0
  9
$AXISUNIT
 10
0.0
 20
0.0
  9
$SKETCHINC
 40
0.1
  9
$FILLETRAD
 40
0.0
  9
$AUNITS
 70
     0
  9
$AUPREC
 70
     0
  9
$MENU
  1
acad
  9
$ELEVATION
 40
0.0
  9
$THICKNESS
 40
0.0
  9
$VIEWDIR
 10
0.0
 20
0.0
 30
1.0
  9
$LIMCHECK
 70
     0
  9
$BLIPMODE
 70
     1
  9
$CHAMFERA
 40
0.0
  9
$CHAMFERB
 40
0.0
  9
$FASTZOOM
 70
     1
  9
$SKPOLY
 70
     0
  9
$TDCREATE
 40
2447222.5666886573
  9
$TDUPDATE
 40
2447222.5666886573
  9
$TDINDWG
 40
0.0000000000
  9
$TDUSRTIMER
 40
0.0000000000
  9
$USRTIMER
 70
     1
  9
$ANGBASE
 50
0.0
  9
$ANGDIR
 70
     0
  9
$PDMODE
 70
     0
  9
$PDSIZE
 40
0.0
  9
$PLINEWID
 40
0.0
  9
$COORDS
 70
     0
  9
$SPLFRAME
 70
     0
  9
$SPLINESEGS
 70
     8
  9
$ATTDIA
 70
     0
  9
$ATTREQ
 70
     1
  9
$USERI1
 70
     0
  9
$USERI2
 70
     0
  9
$USERI3
 70
     0
  9
$USERI4
 70
     0
  9
$USERI5
 70
     0
  9
$USERR1
 40
0.0
  9
$USERR2
 40
0.0
  9
$USERR3
 40
0.0
  9
$USERR4
 40
0.0
  9
$USERR5
 40
0.0
  0
ENDSEC
  0
SECTION
  2
TABLES
  0
TABLE
  2
LTYPE
 70
     13
  0
LTYPE
  2
CONTINUOUS
 70
    64
  3
Solid line
 72
    65
 73
     0
 40
0.0
  0
LTYPE
  2
DASHED
 70
    64
  3
__ __ __ __ __ __ __ __ __ __ __ __ __ __ __
 72
    65
 73
     2
 40
0.75
 49
0.5
 49
-0.25
  0
LTYPE
  2
HIDDEN
 70
    64
  3
_ _ _ _ _ _ _ _ _ _ _ _ _ _ _ _ _ _ _ _ _ _ _
 72
    65
 73
     2
 40
0.375
 49
0.25
 49
-0.125
  0
LTYPE
  2
CENTER
 70
    64
  3
____ _ ____ _ ____ _ ____ _ ____ _ ____ _ ____
 72
    65
 73
     4
 40
2.0
 49
1.25
 49
-0.25
 49
0.25
 49
-0.25
  0
LTYPE
  2
PHANTOM
 70
    64
  3
_____ _ _ _____ _ _ _____ _ _ _____ _ _ ____
 72
    65
 73
     6
 40
2.5
 49
1.25
 49
-0.25
 49
0.25
 49
-0.25
 49
0.25
 49
-0.25
  0
LTYPE
  2
DOT
 70
    64
  3
...............................................
 72
    65
 73
     2
 40
0.25
 49
0.0
 49
-0.25
  0
LTYPE
  2
DASHDOT
 70
    64
  3
__ . __ . __ . __ . __ . __ . __ . __ . __ . __
 72
    65
 73
     4
 40
1.0
 49
0.5
 49
-0.25
 49
0.0
 49
-0.25
  0
LTYPE
  2
BORDER
 70
    64
  3
__ __ . __ __ . __ __ . __ __ . __ __ . __ __
 72
    65
 73
     6
 40
1.75
 49
0.5
 49
-0.25
 49
0.5
 49
-0.25
 49
0.0
 49
-0.25
  0
LTYPE
  2
DIVIDE
 70
    64
  3
__ . . __ . . __ . . __ . . __ . . __ . . __
 72
    65
 73
     6
 40
1.25
 49
0.5
 49
-0.25
 49
0.0
 49
-0.25
 49
0.0
 49
-0.25
  0
LTYPE
  2
DCTYPE1
 70
    64
  3
__ . . __ . . __ . . __ . . __ . . __ . . __
 72
    65
 73
     8
 40
2.5
 49
0.5
 49
-0.25
 49
0.125
 49
-0.25
 49
0.25
 49
-0.25
 49
0.125
 49
-0.25
  0
LTYPE
  2
DCTYPE2
 70
    64
  3
__ . . __ . . __ . . __ . . __ . . __ . . __
 72
    65
 73
     6
 40
2.05
 49
1.0
 49
-0.3
 49
0.15
 49
-0.15
 49
0.15
 49
-0.3
  0
LTYPE
  2
DCTYPE3
 70
    64
  3
__ . . __ . . __ . . __ . . __ . . __ . . __
 72
    65
 73
     6
 40
2.5
 49
0.8
 49
-0.2
 49
0.8
 49
-0.2
 49
0.3
 49
-0.2
  0
LTYPE
  2
DCTYPE4
 70
    64
  3
__ . . __ . . __ . . __ . . __ . . __ . . __
 72
    65
 73
     10
 40
3.97
 49
1.75
 49
-0.3
 49
0.3
 49
-0.3
 49
0.06
 49
-0.3
 49
0.06
 49
-0.3
 49
0.3
 49
-0.3
  0
ENDTAB
  0
TABLE
  2
LAYER
 70
    153
  0
LAYER
  2
LAYER1
 70
 64
 62
     7
  6
CONTINUOUS
  0
LAYER
  2
LAYER12
 70
 64
 62
     5
  6
CONTINUOUS
  0
ENDTAB
  0
ENDSEC
  0
SECTION
  2
BLOCKS
  0
ENDSEC
  0
SECTION
  2
ENTITIES
  0
CIRCLE
  8
LAYER1
 62
     7
  6
CONTINUOUS
 10
5.7186
 20
10.3635
 40
0.0269
  0
CIRCLE
  8
LAYER1
 62
     7
  6
CONTINUOUS
 10
5.1577
 20
10.2154
 40
0.0099
  0
CIRCLE
  8
LAYER1
 62
     7
  6
CONTINUOUS
 10
5.3840
 20
10.2379
 40
0.0201
  0
CIRCLE
  8
LAYER1
 62
     7
  6
CONTINUOUS
 10
5.3249
 20
10.1799
 40
0.0106
  0
CIRCLE
  8
LAYER1
 62
     7
  6
CONTINUOUS
 10
5.4771
 20
10.1418
 40
0.0229
  0
CIRCLE
  8
LAYER1
 62
     7
  6
CONTINUOUS
 10
5.4827
 20
10.0871
 40
0.0134
  0
CIRCLE
  8
LAYER1
 62
     7
  6
CONTINUOUS
 10
5.1794
 20
10.0514
 40
0.0149
  0
CIRCLE
  8
LAYER1
 62
     7
  6
CONTINUOUS
 10
5.1364
 20
9.8866
 40
0.0150
  0
CIRCLE
  8
LAYER1
 62
     7
  6
CONTINUOUS
 10
5.8884
 20
10.0891
 40
0.0201
  0
CIRCLE
  8
LAYER1
 62
     7
  6
CONTINUOUS
 10
5.4149
 20
9.9171
 40
0.0174
  0
CIRCLE
  8
LAYER1
 62
     7
  6
CONTINUOUS
 10
5.3505
 20
9.8890
 40
0.0149
  0
CIRCLE
  8
LAYER1
 62
     7
  6
CONTINUOUS
 10
5.3089
 20
9.8213
 40
0.0127
  0
CIRCLE
  8
LAYER1
 62
     7
  6
CONTINUOUS
 10
5.1453
 20
9.7598
 40
0.0145
  0
CIRCLE
  8
LAYER1
 62
     7
  6
CONTINUOUS
 10
5.0855
 20
9.7616
 40
0.0103
  0
POLYLINE
  8
LAYER1
 62
     7
 66
     1
  6
CONTINUOUS
  0
VERTEX
  8
LAYER1
 62
     7
  6
CONTINUOUS
 10
5.2086
 20
9.6634
  0
VERTEX
  8
LAYER1
 62
     7
  6
CONTINUOUS
 10
5.2106
 20
9.6641
  0
VERTEX
  8
LAYER1
 62
     7
  6
CONTINUOUS
 10
5.2126
 20
9.6648
  0
VERTEX
  8
LAYER1
 62
     7
  6
CONTINUOUS
 10
5.2146
 20
9.6654
  0
VERTEX
  8
LAYER1
 62
     7
  6
CONTINUOUS
 10
5.2166
 20
9.6661
  0
VERTEX
  8
LAYER1
 62
     7
  6
CONTINUOUS
 10
5.2186
 20
9.6666
  0
VERTEX
  8
LAYER1
 62
     7
  6
CONTINUOUS
 10
5.2207
 20
9.6672
  0
VERTEX
  8
LAYER1
 62
     7
  6
CONTINUOUS
 10
5.2227
 20
9.6676
  0
VERTEX
  8
LAYER1
 62
     7
  6
CONTINUOUS
 10
5.2248
 20
9.6680
  0
VERTEX
  8
LAYER1
 62
     7
  6
CONTINUOUS
 10
5.2269
 20
9.6683
  0
VERTEX
  8
LAYER1
 62
     7
  6
CONTINUOUS
 10
5.2291
 20
9.6686
  0
VERTEX
  8
LAYER1
 62
     7
  6
CONTINUOUS
 10
5.2312
 20
9.6687
  0
VERTEX
  8
LAYER1
 62
     7
  6
CONTINUOUS
 10
5.2334
 20
9.6687
  0
VERTEX
  8
LAYER1
 62
     7
  6
CONTINUOUS
 10
5.2356
 20
9.6685
  0
VERTEX
  8
LAYER1
 62
     7
  6
CONTINUOUS
 10
5.2378
 20
9.6683
  0
VERTEX
  8
LAYER1
 62
     7
  6
CONTINUOUS
 10
5.2401
 20
9.6681
  0
VERTEX
  8
LAYER1
 62
     7
  6
CONTINUOUS
 10
5.2423
 20
9.6678
  0
VERTEX
  8
LAYER1
 62
     7
  6
CONTINUOUS
 10
5.2445
 20
9.6675
  0
VERTEX
  8
LAYER1
 62
     7
  6
CONTINUOUS
 10
5.2467
 20
9.6673
  0
VERTEX
  8
LAYER1
 62
     7
  6
CONTINUOUS
 10
5.2488
 20
9.6672
  0
VERTEX
  8
LAYER1
 62
     7
  6
CONTINUOUS
 10
5.2509
 20
9.6671
  0
VERTEX
  8
LAYER1
 62
     7
  6
CONTINUOUS
 10
5.2529
 20
9.6673
  0
VERTEX
  8
LAYER1
 62
     7
  6
CONTINUOUS
 10
5.2548
 20
9.6676
  0
VERTEX
  8
LAYER1
 62
     7
  6
CONTINUOUS
 10
5.2566
 20
9.6681
  0
VERTEX
  8
LAYER1
 62
     7
  6
CONTINUOUS
 10
5.2583
 20
9.6689
  0
VERTEX
  8
LAYER1
 62
     7
  6
CONTINUOUS
 10
5.2595
 20
9.6697
  0
VERTEX
  8
LAYER1
 62
     7
  6
CONTINUOUS
 10
5.2606
 20
9.6706
  0
VERTEX
  8
LAYER1
 62
     7
  6
CONTINUOUS
 10
5.2616
 20
9.6716
  0
VERTEX
  8
LAYER1
 62
     7
  6
CONTINUOUS
 10
5.2626
 20
9.6727
  0
VERTEX
  8
LAYER1
 62
     7
  6
CONTINUOUS
 10
5.2635
 20
9.6739
  0
VERTEX
  8
LAYER1
 62
     7
  6
CONTINUOUS
 10
5.2643
 20
9.6752
  0
VERTEX
  8
LAYER1
 62
     7
  6
CONTINUOUS
 10
5.2651
 20
9.6765
  0
VERTEX
  8
LAYER1
 62
     7
  6
CONTINUOUS
 10
5.2658
 20
9.6780
  0
VERTEX
  8
LAYER1
 62
     7
  6
CONTINUOUS
 10
5.2665
 20
9.6794
  0
VERTEX
  8
LAYER1
 62
     7
  6
CONTINUOUS
 10
5.2671
 20
9.6809
  0
VERTEX
  8
LAYER1
 62
     7
  6
CONTINUOUS
 10
5.2676
 20
9.6824
  0
VERTEX
  8
LAYER1
 62
     7
  6
CONTINUOUS
 10
5.2681
 20
9.6840
  0
VERTEX
  8
LAYER1
 62
     7
  6
CONTINUOUS
 10
5.2686
 20
9.6856
  0
VERTEX
  8
LAYER1
 62
     7
  6
CONTINUOUS
 10
5.2689
 20
9.6873
  0
VERTEX
  8
LAYER1
 62
     7
  6
CONTINUOUS
 10
5.2692
 20
9.6890
  0
VERTEX
  8
LAYER1
 62
     7
  6
CONTINUOUS
 10
5.2695
 20
9.6906
  0
VERTEX
  8
LAYER1
 62
     7
  6
CONTINUOUS
 10
5.2696
 20
9.6923
  0
VERTEX
  8
LAYER1
 62
     7
  6
CONTINUOUS
 10
5.2696
 20
9.6939
  0
VERTEX
  8
LAYER1
 62
     7
  6
CONTINUOUS
 10
5.2696
 20
9.6956
  0
VERTEX
  8
LAYER1
 62
     7
  6
CONTINUOUS
 10
5.2694
 20
9.6972
  0
VERTEX
  8
LAYER1
 62
     7
  6
CONTINUOUS
 10
5.2692
 20
9.6989
  0
VERTEX
  8
LAYER1
 62
     7
  6
CONTINUOUS
 10
5.2689
 20
9.7005
  0
VERTEX
  8
LAYER1
 62
     7
  6
CONTINUOUS
 10
5.2684
 20
9.7022
  0
VERTEX
  8
LAYER1
 62
     7
  6
CONTINUOUS
 10
5.2679
 20
9.7039
  0
VERTEX
  8
LAYER1
 62
     7
  6
CONTINUOUS
 10
5.2669
 20
9.7063
  0
VERTEX
  8
LAYER1
 62
     7
  6
CONTINUOUS
 10
5.2658
 20
9.7086
  0
VERTEX
  8
LAYER1
 62
     7
  6
CONTINUOUS
 10
5.2645
 20
9.7110
  0
VERTEX
  8
LAYER1
 62
     7
  6
CONTINUOUS
 10
5.2630
 20
9.7132
  0
VERTEX
  8
LAYER1
 62
     7
  6
CONTINUOUS
 10
5.2614
 20
9.7153
  0
VERTEX
  8
LAYER1
 62
     7
  6
CONTINUOUS
 10
5.2596
 20
9.7172
  0
VERTEX
  8
LAYER1
 62
     7
  6
CONTINUOUS
 10
5.2578
 20
9.7190
  0
VERTEX
  8
LAYER1
 62
     7
  6
CONTINUOUS
 10
5.2559
 20
9.7205
  0
VERTEX
  8
LAYER1
 62
     7
  6
CONTINUOUS
 10
5.2539
 20
9.7218
  0
VERTEX
  8
LAYER1
 62
     7
  6
CONTINUOUS
 10
5.2519
 20
9.7227
  0
VERTEX
  8
LAYER1
 62
     7
  6
CONTINUOUS
 10
5.2498
 20
9.7233
  0
VERTEX
  8
LAYER1
 62
     7
  6
CONTINUOUS
 10
5.2478
 20
9.7236
  0
VERTEX
  8
LAYER1
 62
     7
  6
CONTINUOUS
 10
5.2458
 20
9.7234
  0
VERTEX
  8
LAYER1
 62
     7
  6
CONTINUOUS
 10
5.2438
 20
9.7229
  0
VERTEX
  8
LAYER1
 62
     7
  6
CONTINUOUS
 10
5.2419
 20
9.7222
  0
VERTEX
  8
LAYER1
 62
     7
  6
CONTINUOUS
 10
5.2399
 20
9.7213
  0
VERTEX
  8
LAYER1
 62
     7
  6
CONTINUOUS
 10
5.2379
 20
9.7202
  0
VERTEX
  8
LAYER1
 62
     7
  6
CONTINUOUS
 10
5.2359
 20
9.7190
  0
VERTEX
  8
LAYER1
 62
     7
  6
CONTINUOUS
 10
5.2339
 20
9.7178
  0
VERTEX
  8
LAYER1
 62
     7
  6
CONTINUOUS
 10
5.2318
 20
9.7167
  0
VERTEX
  8
LAYER1
 62
     7
  6
CONTINUOUS
 10
5.2297
 20
9.7156
  0
VERTEX
  8
LAYER1
 62
     7
  6
CONTINUOUS
 10
5.2275
 20
9.7146
  0
VERTEX
  8
LAYER1
 62
     7
  6
CONTINUOUS
 10
5.2253
 20
9.7138
  0
VERTEX
  8
LAYER1
 62
     7
  6
CONTINUOUS
 10
5.2230
 20
9.7133
  0
VERTEX
  8
LAYER1
 62
     7
  6
CONTINUOUS
 10
5.2212
 20
9.7131
  0
VERTEX
  8
LAYER1
 62
     7
  6
CONTINUOUS
 10
5.2194
 20
9.7131
  0
VERTEX
  8
LAYER1
 62
     7
  6
CONTINUOUS
 10
5.2176
 20
9.7131
  0
VERTEX
  8
LAYER1
 62
     7
  6
CONTINUOUS
 10
5.2158
 20
9.7133
  0
VERTEX
  8
LAYER1
 62
     7
  6
CONTINUOUS
 10
5.2141
 20
9.7134
  0
VERTEX
  8
LAYER1
 62
     7
  6
CONTINUOUS
 10
5.2123
 20
9.7136
  0
VERTEX
  8
LAYER1
 62
     7
  6
CONTINUOUS
 10
5.2106
 20
9.7138
  0
VERTEX
  8
LAYER1
 62
     7
  6
CONTINUOUS
 10
5.2089
 20
9.7139
  0
VERTEX
  8
LAYER1
 62
     7
  6
CONTINUOUS
 10
5.2073
 20
9.7139
  0
VERTEX
  8
LAYER1
 62
     7
  6
CONTINUOUS
 10
5.2058
 20
9.7138
  0
VERTEX
  8
LAYER1
 62
     7
  6
CONTINUOUS
 10
5.2044
 20
9.7136
  0
VERTEX
  8
LAYER1
 62
     7
  6
CONTINUOUS
 10
5.2031
 20
9.7131
  0
VERTEX
  8
LAYER1
 62
     7
  6
CONTINUOUS
 10
5.2017
 20
9.7124
  0
VERTEX
  8
LAYER1
 62
     7
  6
CONTINUOUS
 10
5.2005
 20
9.7114
  0
VERTEX
  8
LAYER1
 62
     7
  6
CONTINUOUS
 10
5.1995
 20
9.7102
  0
VERTEX
  8
LAYER1
 62
     7
  6
CONTINUOUS
 10
5.1985
 20
9.7088
  0
VERTEX
  8
LAYER1
 62
     7
  6
CONTINUOUS
 10
5.1976
 20
9.7073
  0
VERTEX
  8
LAYER1
 62
     7
  6
CONTINUOUS
 10
5.1968
 20
9.7055
  0
VERTEX
  8
LAYER1
 62
     7
  6
CONTINUOUS
 10
5.1961
 20
9.7037
  0
VERTEX
  8
LAYER1
 62
     7
  6
CONTINUOUS
 10
5.1955
 20
9.7017
  0
VERTEX
  8
LAYER1
 62
     7
  6
CONTINUOUS
 10
5.1949
 20
9.6996
  0
VERTEX
  8
LAYER1
 62
     7
  6
CONTINUOUS
 10
5.1944
 20
9.6975
  0
VERTEX
  8
LAYER1
 62
     7
  6
CONTINUOUS
 10
5.1938
 20
9.6953
  0
VERTEX
  8
LAYER1
 62
     7
  6
CONTINUOUS
 10
5.1933
 20
9.6931
  0
SEQEND
  8
LAYER1
  0
POLYLINE
  8
LAYER1
 62
     7
 66
     1
  6
CONTINUOUS
  0
VERTEX
  8
LAYER1
 62
     7
  6
CONTINUOUS
 10
5.1335
 20
9.6974
  0
VERTEX
  8
LAYER1
 62
     7
  6
CONTINUOUS
 10
5.1350
 20
9.7000
  0
VERTEX
  8
LAYER1
 62
     7
  6
CONTINUOUS
 10
5.1365
 20
9.7025
  0
VERTEX
  8
LAYER1
 62
     7
  6
CONTINUOUS
 10
5.1380
 20
9.7050
  0
VERTEX
  8
LAYER1
 62
     7
  6
CONTINUOUS
 10
5.1395
 20
9.7075
  0
VERTEX
  8
LAYER1
 62
     7
  6
CONTINUOUS
 10
5.1411
 20
9.7101
  0
VERTEX
  8
LAYER1
 62
     7
  6
CONTINUOUS
 10
5.1427
 20
9.7126
  0
VERTEX
  8
LAYER1
 62
     7
  6
CONTINUOUS
 10
5.1443
 20
9.7151
  0
VERTEX
  8
LAYER1
 62
     7
  6
CONTINUOUS
 10
5.1459
 20
9.7176
  0
VERTEX
  8
LAYER1
 62
     7
  6
CONTINUOUS
 10
5.1476
 20
9.7201
  0
VERTEX
  8
LAYER1
 62
     7
  6
CONTINUOUS
 10
5.1494
 20
9.7226
  0
VERTEX
  8
LAYER1
 62
     7
  6
CONTINUOUS
 10
5.1512
 20
9.7250
  0
VERTEX
  8
LAYER1
 62
     7
  6
CONTINUOUS
 10
5.1531
 20
9.7275
  0
VERTEX
  8
LAYER1
 62
     7
  6
CONTINUOUS
 10
5.1545
 20
9.7292
  0
VERTEX
  8
LAYER1
 62
     7
  6
CONTINUOUS
 10
5.1559
 20
9.7309
  0
VERTEX
  8
LAYER1
 62
     7
  6
CONTINUOUS
 10
5.1573
 20
9.7325
  0
VERTEX
  8
LAYER1
 62
     7
  6
CONTINUOUS
 10
5.1588
 20
9.7341
  0
VERTEX
  8
LAYER1
 62
     7
  6
CONTINUOUS
 10
5.1603
 20
9.7356
  0
VERTEX
  8
LAYER1
 62
     7
  6
CONTINUOUS
 10
5.1619
 20
9.7370
  0
VERTEX
  8
LAYER1
 62
     7
  6
CONTINUOUS
 10
5.1636
 20
9.7383
  0
VERTEX
  8
LAYER1
 62
     7
  6
CONTINUOUS
 10
5.1653
 20
9.7395
  0
VERTEX
  8
LAYER1
 62
     7
  6
CONTINUOUS
 10
5.1671
 20
9.7405
  0
VERTEX
  8
LAYER1
 62
     7
  6
CONTINUOUS
 10
5.1689
 20
9.7414
  0
VERTEX
  8
LAYER1
 62
     7
  6
CONTINUOUS
 10
5.1709
 20
9.7421
  0
VERTEX
  8
LAYER1
 62
     7
  6
CONTINUOUS
 10
5.1729
 20
9.7427
  0
VERTEX
  8
LAYER1
 62
     7
  6
CONTINUOUS
 10
5.1746
 20
9.7429
  0
VERTEX
  8
LAYER1
 62
     7
  6
CONTINUOUS
 10
5.1763
 20
9.7431
  0
VERTEX
  8
LAYER1
 62
     7
  6
CONTINUOUS
 10
5.1781
 20
9.7431
  0
VERTEX
  8
LAYER1
 62
     7
  6
CONTINUOUS
 10
5.1799
 20
9.7430
  0
VERTEX
  8
LAYER1
 62
     7
  6
CONTINUOUS
 10
5.1817
 20
9.7428
  0
VERTEX
  8
LAYER1
 62
     7
  6
CONTINUOUS
 10
5.1835
 20
9.7424
  0
VERTEX
  8
LAYER1
 62
     7
  6
CONTINUOUS
 10
5.1852
 20
9.7419
  0
VERTEX
  8
LAYER1
 62
     7
  6
CONTINUOUS
 10
5.1869
 20
9.7413
  0
VERTEX
  8
LAYER1
 62
     7
  6
CONTINUOUS
 10
5.1885
 20
9.7406
  0
VERTEX
  8
LAYER1
 62
     7
  6
CONTINUOUS
 10
5.1900
 20
9.7398
  0
VERTEX
  8
LAYER1
 62
     7
  6
CONTINUOUS
 10
5.1915
 20
9.7389
  0
VERTEX
  8
LAYER1
 62
     7
  6
CONTINUOUS
 10
5.1928
 20
9.7379
  0
VERTEX
  8
LAYER1
 62
     7
  6
CONTINUOUS
 10
5.1944
 20
9.7364
  0
VERTEX
  8
LAYER1
 62
     7
  6
CONTINUOUS
 10
5.1958
 20
9.7348
  0
VERTEX
  8
LAYER1
 62
     7
  6
CONTINUOUS
 10
5.1970
 20
9.7330
  0
VERTEX
  8
LAYER1
 62
     7
  6
CONTINUOUS
 10
5.1981
 20
9.7311
  0
VERTEX
  8
LAYER1
 62
     7
  6
CONTINUOUS
 10
5.1990
 20
9.7291
  0
VERTEX
  8
LAYER1
 62
     7
  6
CONTINUOUS
 10
5.1998
 20
9.7270
  0
VERTEX
  8
LAYER1
 62
     7
  6
CONTINUOUS
 10
5.2005
 20
9.7248
  0
VERTEX
  8
LAYER1
 62
     7
  6
CONTINUOUS
 10
5.2011
 20
9.7226
  0
VERTEX
  8
LAYER1
 62
     7
  6
CONTINUOUS
 10
5.2017
 20
9.7203
  0
VERTEX
  8
LAYER1
 62
     7
  6
CONTINUOUS
 10
5.2022
 20
9.7179
  0
VERTEX
  8
LAYER1
 62
     7
  6
CONTINUOUS
 10
5.2026
 20
9.7155
  0
VERTEX
  8
LAYER1
 62
     7
  6
CONTINUOUS
 10
5.2031
 20
9.7131
  0
SEQEND
  8
LAYER1
  0
POLYLINE
  8
LAYER1
 62
     7
 66
     1
  6
CONTINUOUS
  0
VERTEX
  8
LAYER1
 62
     7
  6
CONTINUOUS
 10
5.1729
 20
9.7427
  0
VERTEX
  8
LAYER1
 62
     7
  6
CONTINUOUS
 10
5.1741
 20
9.7435
  0
VERTEX
  8
LAYER1
 62
     7
  6
CONTINUOUS
 10
5.1753
 20
9.7444
  0
VERTEX
  8
LAYER1
 62
     7
  6
CONTINUOUS
 10
5.1765
 20
9.7453
  0
VERTEX
  8
LAYER1
 62
     7
  6
CONTINUOUS
 10
5.1777
 20
9.7461
  0
VERTEX
  8
LAYER1
 62
     7
  6
CONTINUOUS
 10
5.1790
 20
9.7470
  0
VERTEX
  8
LAYER1
 62
     7
  6
CONTINUOUS
 10
5.1802
 20
9.7478
  0
VERTEX
  8
LAYER1
 62
     7
  6
CONTINUOUS
 10
5.1814
 20
9.7487
  0
VERTEX
  8
LAYER1
 62
     7
  6
CONTINUOUS
 10
5.1827
 20
9.7495
  0
VERTEX
  8
LAYER1
 62
     7
  6
CONTINUOUS
 10
5.1839
 20
9.7504
  0
VERTEX
  8
LAYER1
 62
     7
  6
CONTINUOUS
 10
5.1852
 20
9.7512
  0
VERTEX
  8
LAYER1
 62
     7
  6
CONTINUOUS
 10
5.1864
 20
9.7520
  0
VERTEX
  8
LAYER1
 62
     7
  6
CONTINUOUS
 10
5.1877
 20
9.7528
  0
VERTEX
  8
LAYER1
 62
     7
  6
CONTINUOUS
 10
5.1896
 20
9.7539
  0
VERTEX
  8
LAYER1
 62
     7
  6
CONTINUOUS
 10
5.1915
 20
9.7551
  0
VERTEX
  8
LAYER1
 62
     7
  6
CONTINUOUS
 10
5.1935
 20
9.7562
  0
VERTEX
  8
LAYER1
 62
     7
  6
CONTINUOUS
 10
5.1955
 20
9.7572
  0
VERTEX
  8
LAYER1
 62
     7
  6
CONTINUOUS
 10
5.1975
 20
9.7582
  0
VERTEX
  8
LAYER1
 62
     7
  6
CONTINUOUS
 10
5.1995
 20
9.7591
  0
VERTEX
  8
LAYER1
 62
     7
  6
CONTINUOUS
 10
5.2016
 20
9.7599
  0
VERTEX
  8
LAYER1
 62
     7
  6
CONTINUOUS
 10
5.2037
 20
9.7607
  0
VERTEX
  8
LAYER1
 62
     7
  6
CONTINUOUS
 10
5.2058
 20
9.7614
  0
VERTEX
  8
LAYER1
 62
     7
  6
CONTINUOUS
 10
5.2080
 20
9.7620
  0
VERTEX
  8
LAYER1
 62
     7
  6
CONTINUOUS
 10
5.2102
 20
9.7626
  0
VERTEX
  8
LAYER1
 62
     7
  6
CONTINUOUS
 10
5.2125
 20
9.7630
  0
VERTEX
  8
LAYER1
 62
     7
  6
CONTINUOUS
 10
5.2133
 20
9.7631
  0
VERTEX
  8
LAYER1
 62
     7
  6
CONTINUOUS
 10
5.2142
 20
9.7633
  0
VERTEX
  8
LAYER1
 62
     7
  6
CONTINUOUS
 10
5.2150
 20
9.7634
  0
VERTEX
  8
LAYER1
 62
     7
  6
CONTINUOUS
 10
5.2159
 20
9.7634
  0
VERTEX
  8
LAYER1
 62
     7
  6
CONTINUOUS
 10
5.2167
 20
9.7635
  0
VERTEX
  8
LAYER1
 62
     7
  6
CONTINUOUS
 10
5.2176
 20
9.7635
  0
VERTEX
  8
LAYER1
 62
     7
  6
CONTINUOUS
 10
5.2184
 20
9.7635
  0
VERTEX
  8
LAYER1
 62
     7
  6
CONTINUOUS
 10
5.2192
 20
9.7635
  0
VERTEX
  8
LAYER1
 62
     7
  6
CONTINUOUS
 10
5.2200
 20
9.7635
  0
VERTEX
  8
LAYER1
 62
     7
  6
CONTINUOUS
 10
5.2209
 20
9.7634
  0
VERTEX
  8
LAYER1
 62
     7
  6
CONTINUOUS
 10
5.2216
 20
9.7633
  0
VERTEX
  8
LAYER1
 62
     7
  6
CONTINUOUS
 10
5.2224
 20
9.7631
  0
VERTEX
  8
LAYER1
 62
     7
  6
CONTINUOUS
 10
5.2243
 20
9.7626
  0
VERTEX
  8
LAYER1
 62
     7
  6
CONTINUOUS
 10
5.2261
 20
9.7618
  0
VERTEX
  8
LAYER1
 62
     7
  6
CONTINUOUS
 10
5.2278
 20
9.7609
  0
VERTEX
  8
LAYER1
 62
     7
  6
CONTINUOUS
 10
5.2295
 20
9.7598
  0
VERTEX
  8
LAYER1
 62
     7
  6
CONTINUOUS
 10
5.2311
 20
9.7586
  0
VERTEX
  8
LAYER1
 62
     7
  6
CONTINUOUS
 10
5.2326
 20
9.7573
  0
VERTEX
  8
LAYER1
 62
     7
  6
CONTINUOUS
 10
5.2342
 20
9.7559
  0
VERTEX
  8
LAYER1
 62
     7
  6
CONTINUOUS
 10
5.2358
 20
9.7544
  0
VERTEX
  8
LAYER1
 62
     7
  6
CONTINUOUS
 10
5.2374
 20
9.7529
  0
VERTEX
  8
LAYER1
 62
     7
  6
CONTINUOUS
 10
5.2390
 20
9.7514
  0
VERTEX
  8
LAYER1
 62
     7
  6
CONTINUOUS
 10
5.2407
 20
9.7499
  0
VERTEX
  8
LAYER1
 62
     7
  6
CONTINUOUS
 10
5.2425
 20
9.7484
  0
VERTEX
  8
LAYER1
 62
     7
  6
CONTINUOUS
 10
5.2435
 20
9.7476
  0
VERTEX
  8
LAYER1
 62
     7
  6
CONTINUOUS
 10
5.2446
 20
9.7468
  0
VERTEX
  8
LAYER1
 62
     7
  6
CONTINUOUS
 10
5.2456
 20
9.7460
  0
VERTEX
  8
LAYER1
 62
     7
  6
CONTINUOUS
 10
5.2467
 20
9.7452
  0
VERTEX
  8
LAYER1
 62
     7
  6
CONTINUOUS
 10
5.2477
 20
9.7445
  0
VERTEX
  8
LAYER1
 62
     7
  6
CONTINUOUS
 10
5.2486
 20
9.7437
  0
VERTEX
  8
LAYER1
 62
     7
  6
CONTINUOUS
 10
5.2495
 20
9.7429
  0
VERTEX
  8
LAYER1
 62
     7
  6
CONTINUOUS
 10
5.2503
 20
9.7421
  0
VERTEX
  8
LAYER1
 62
     7
  6
CONTINUOUS
 10
5.2511
 20
9.7412
  0
VERTEX
  8
LAYER1
 62
     7
  6
CONTINUOUS
 10
5.2517
 20
9.7404
  0
VERTEX
  8
LAYER1
 62
     7
  6
CONTINUOUS
 10
5.2522
 20
9.7395
  0
VERTEX
  8
LAYER1
 62
     7
  6
CONTINUOUS
 10
5.2526
 20
9.7386
  0
VERTEX
  8
LAYER1
 62
     7
  6
CONTINUOUS
 10
5.2528
 20
9.7375
  0
VERTEX
  8
LAYER1
 62
     7
  6
CONTINUOUS
 10
5.2529
 20
9.7364
  0
VERTEX
  8
LAYER1
 62
     7
  6
CONTINUOUS
 10
5.2528
 20
9.7352
  0
VERTEX
  8
LAYER1
 62
     7
  6
CONTINUOUS
 10
5.2526
 20
9.7340
  0
VERTEX
  8
LAYER1
 62
     7
  6
CONTINUOUS
 10
5.2523
 20
9.7328
  0
VERTEX
  8
LAYER1
 62
     7
  6
CONTINUOUS
 10
5.2518
 20
9.7315
  0
VERTEX
  8
LAYER1
 62
     7
  6
CONTINUOUS
 10
5.2513
 20
9.7302
  0
VERTEX
  8
LAYER1
 62
     7
  6
CONTINUOUS
 10
5.2507
 20
9.7289
  0
VERTEX
  8
LAYER1
 62
     7
  6
CONTINUOUS
 10
5.2500
 20
9.7276
  0
VERTEX
  8
LAYER1
 62
     7
  6
CONTINUOUS
 10
5.2493
 20
9.7263
  0
VERTEX
  8
LAYER1
 62
     7
  6
CONTINUOUS
 10
5.2485
 20
9.7249
  0
VERTEX
  8
LAYER1
 62
     7
  6
CONTINUOUS
 10
5.2478
 20
9.7236
  0
SEQEND
  8
LAYER1
  0
POLYLINE
  8
LAYER1
 62
     7
 66
     1
  6
CONTINUOUS
  0
VERTEX
  8
LAYER1
 62
     7
  6
CONTINUOUS
 10
5.2679
 20
9.7039
  0
VERTEX
  8
LAYER1
 62
     7
  6
CONTINUOUS
 10
5.2699
 20
9.7050
  0
VERTEX
  8
LAYER1
 62
     7
  6
CONTINUOUS
 10
5.2720
 20
9.7061
  0
VERTEX
  8
LAYER1
 62
     7
  6
CONTINUOUS
 10
5.2740
 20
9.7071
  0
VERTEX
  8
LAYER1
 62
     7
  6
CONTINUOUS
 10
5.2760
 20
9.7081
  0
VERTEX
  8
LAYER1
 62
     7
  6
CONTINUOUS
 10
5.2781
 20
9.7091
  0
VERTEX
  8
LAYER1
 62
     7
  6
CONTINUOUS
 10
5.2801
 20
9.7101
  0
VERTEX
  8
LAYER1
 62
     7
  6
CONTINUOUS
 10
5.2822
 20
9.7109
  0
VERTEX
  8
LAYER1
 62
     7
  6
CONTINUOUS
 10
5.2843
 20
9.7118
  0
VERTEX
  8
LAYER1
 62
     7
  6
CONTINUOUS
 10
5.2863
 20
9.7125
  0
VERTEX
  8
LAYER1
 62
     7
  6
CONTINUOUS
 10
5.2884
 20
9.7131
  0
VERTEX
  8
LAYER1
 62
     7
  6
CONTINUOUS
 10
5.2905
 20
9.7137
  0
VERTEX
  8
LAYER1
 62
     7
  6
CONTINUOUS
 10
5.2927
 20
9.7141
  0
VERTEX
  8
LAYER1
 62
     7
  6
CONTINUOUS
 10
5.2943
 20
9.7144
  0
VERTEX
  8
LAYER1
 62
     7
  6
CONTINUOUS
 10
5.2959
 20
9.7146
  0
VERTEX
  8
LAYER1
 62
     7
  6
CONTINUOUS
 10
5.2975
 20
9.7147
  0
VERTEX
  8
LAYER1
 62
     7
  6
CONTINUOUS
 10
5.2991
 20
9.7148
  0
VERTEX
  8
LAYER1
 62
     7
  6
CONTINUOUS
 10
5.3007
 20
9.7148
  0
VERTEX
  8
LAYER1
 62
     7
  6
CONTINUOUS
 10
5.3024
 20
9.7148
  0
VERTEX
  8
LAYER1
 62
     7
  6
CONTINUOUS
 10
5.3040
 20
9.7148
  0
VERTEX
  8
LAYER1
 62
     7
  6
CONTINUOUS
 10
5.3057
 20
9.7147
  0
VERTEX
  8
LAYER1
 62
     7
  6
CONTINUOUS
 10
5.3074
 20
9.7147
  0
VERTEX
  8
LAYER1
 62
     7
  6
CONTINUOUS
 10
5.3091
 20
9.7146
  0
VERTEX
  8
LAYER1
 62
     7
  6
CONTINUOUS
 10
5.3108
 20
9.7144
  0
VERTEX
  8
LAYER1
 62
     7
  6
CONTINUOUS
 10
5.3126
 20
9.7143
  0
VERTEX
  8
LAYER1
 62
     7
  6
CONTINUOUS
 10
5.3157
 20
9.7141
  0
VERTEX
  8
LAYER1
 62
     7
  6
CONTINUOUS
 10
5.3189
 20
9.7139
  0
VERTEX
  8
LAYER1
 62
     7
  6
CONTINUOUS
 10
5.3220
 20
9.7138
  0
VERTEX
  8
LAYER1
 62
     7
  6
CONTINUOUS
 10
5.3252
 20
9.7137
  0
VERTEX
  8
LAYER1
 62
     7
  6
CONTINUOUS
 10
5.3283
 20
9.7138
  0
VERTEX
  8
LAYER1
 62
     7
  6
CONTINUOUS
 10
5.3314
 20
9.7140
  0
VERTEX
  8
LAYER1
 62
     7
  6
CONTINUOUS
 10
5.3344
 20
9.7144
  0
VERTEX
  8
LAYER1
 62
     7
  6
CONTINUOUS
 10
5.3373
 20
9.7149
  0
VERTEX
  8
LAYER1
 62
     7
  6
CONTINUOUS
 10
5.3400
 20
9.7157
  0
VERTEX
  8
LAYER1
 62
     7
  6
CONTINUOUS
 10
5.3427
 20
9.7167
  0
VERTEX
  8
LAYER1
 62
     7
  6
CONTINUOUS
 10
5.3451
 20
9.7181
  0
VERTEX
  8
LAYER1
 62
     7
  6
CONTINUOUS
 10
5.3474
 20
9.7197
  0
VERTEX
  8
LAYER1
 62
     7
  6
CONTINUOUS
 10
5.3492
 20
9.7215
  0
VERTEX
  8
LAYER1
 62
     7
  6
CONTINUOUS
 10
5.3509
 20
9.7234
  0
VERTEX
  8
LAYER1
 62
     7
  6
CONTINUOUS
 10
5.3525
 20
9.7256
  0
VERTEX
  8
LAYER1
 62
     7
  6
CONTINUOUS
 10
5.3541
 20
9.7279
  0
VERTEX
  8
LAYER1
 62
     7
  6
CONTINUOUS
 10
5.3555
 20
9.7303
  0
VERTEX
  8
LAYER1
 62
     7
  6
CONTINUOUS
 10
5.3570
 20
9.7327
  0
VERTEX
  8
LAYER1
 62
     7
  6
CONTINUOUS
 10
5.3584
 20
9.7351
  0
VERTEX
  8
LAYER1
 62
     7
  6
CONTINUOUS
 10
5.3599
 20
9.7374
  0
VERTEX
  8
LAYER1
 62
     7
  6
CONTINUOUS
 10
5.3615
 20
9.7395
  0
VERTEX
  8
LAYER1
 62
     7
  6
CONTINUOUS
 10
5.3632
 20
9.7415
  0
VERTEX
  8
LAYER1
 62
     7
  6
CONTINUOUS
 10
5.3650
 20
9.7433
  0
VERTEX
  8
LAYER1
 62
     7
  6
CONTINUOUS
 10
5.3670
 20
9.7448
  0
VERTEX
  8
LAYER1
 62
     7
  6
CONTINUOUS
 10
5.3687
 20
9.7458
  0
VERTEX
  8
LAYER1
 62
     7
  6
CONTINUOUS
 10
5.3705
 20
9.7466
  0
VERTEX
  8
LAYER1
 62
     7
  6
CONTINUOUS
 10
5.3725
 20
9.7472
  0
VERTEX
  8
LAYER1
 62
     7
  6
CONTINUOUS
 10
5.3745
 20
9.7477
  0
VERTEX
  8
LAYER1
 62
     7
  6
CONTINUOUS
 10
5.3766
 20
9.7481
  0
VERTEX
  8
LAYER1
 62
     7
  6
CONTINUOUS
 10
5.3787
 20
9.7484
  0
VERTEX
  8
LAYER1
 62
     7
  6
CONTINUOUS
 10
5.3809
 20
9.7487
  0
VERTEX
  8
LAYER1
 62
     7
  6
CONTINUOUS
 10
5.3831
 20
9.7489
  0
VERTEX
  8
LAYER1
 62
     7
  6
CONTINUOUS
 10
5.3853
 20
9.7491
  0
VERTEX
  8
LAYER1
 62
     7
  6
CONTINUOUS
 10
5.3875
 20
9.7494
  0
VERTEX
  8
LAYER1
 62
     7
  6
CONTINUOUS
 10
5.3897
 20
9.7497
  0
VERTEX
  8
LAYER1
 62
     7
  6
CONTINUOUS
 10
5.3918
 20
9.7500
  0
VERTEX
  8
LAYER1
 62
     7
  6
CONTINUOUS
 10
5.3944
 20
9.7506
  0
VERTEX
  8
LAYER1
 62
     7
  6
CONTINUOUS
 10
5.3970
 20
9.7514
  0
VERTEX
  8
LAYER1
 62
     7
  6
CONTINUOUS
 10
5.3995
 20
9.7522
  0
VERTEX
  8
LAYER1
 62
     7
  6
CONTINUOUS
 10
5.4019
 20
9.7531
  0
VERTEX
  8
LAYER1
 62
     7
  6
CONTINUOUS
 10
5.4044
 20
9.7540
  0
VERTEX
  8
LAYER1
 62
     7
  6
CONTINUOUS
 10
5.4068
 20
9.7550
  0
VERTEX
  8
LAYER1
 62
     7
  6
CONTINUOUS
 10
5.4092
 20
9.7560
  0
VERTEX
  8
LAYER1
 62
     7
  6
CONTINUOUS
 10
5.4116
 20
9.7570
  0
VERTEX
  8
LAYER1
 62
     7
  6
CONTINUOUS
 10
5.4140
 20
9.7580
  0
VERTEX
  8
LAYER1
 62
     7
  6
CONTINUOUS
 10
5.4165
 20
9.7589
  0
VERTEX
  8
LAYER1
 62
     7
  6
CONTINUOUS
 10
5.4190
 20
9.7597
  0
VERTEX
  8
LAYER1
 62
     7
  6
CONTINUOUS
 10
5.4216
 20
9.7603
  0
VERTEX
  8
LAYER1
 62
     7
  6
CONTINUOUS
 10
5.4233
 20
9.7607
  0
VERTEX
  8
LAYER1
 62
     7
  6
CONTINUOUS
 10
5.4250
 20
9.7611
  0
VERTEX
  8
LAYER1
 62
     7
  6
CONTINUOUS
 10
5.4268
 20
9.7614
  0
VERTEX
  8
LAYER1
 62
     7
  6
CONTINUOUS
 10
5.4285
 20
9.7617
  0
VERTEX
  8
LAYER1
 62
     7
  6
CONTINUOUS
 10
5.4302
 20
9.7620
  0
VERTEX
  8
LAYER1
 62
     7
  6
CONTINUOUS
 10
5.4319
 20
9.7623
  0
VERTEX
  8
LAYER1
 62
     7
  6
CONTINUOUS
 10
5.4336
 20
9.7627
  0
VERTEX
  8
LAYER1
 62
     7
  6
CONTINUOUS
 10
5.4353
 20
9.7631
  0
VERTEX
  8
LAYER1
 62
     7
  6
CONTINUOUS
 10
5.4369
 20
9.7636
  0
VERTEX
  8
LAYER1
 62
     7
  6
CONTINUOUS
 10
5.4385
 20
9.7641
  0
VERTEX
  8
LAYER1
 62
     7
  6
CONTINUOUS
 10
5.4400
 20
9.7648
  0
VERTEX
  8
LAYER1
 62
     7
  6
CONTINUOUS
 10
5.4414
 20
9.7655
  0
VERTEX
  8
LAYER1
 62
     7
  6
CONTINUOUS
 10
5.4433
 20
9.7668
  0
VERTEX
  8
LAYER1
 62
     7
  6
CONTINUOUS
 10
5.4451
 20
9.7682
  0
VERTEX
  8
LAYER1
 62
     7
  6
CONTINUOUS
 10
5.4467
 20
9.7698
  0
VERTEX
  8
LAYER1
 62
     7
  6
CONTINUOUS
 10
5.4483
 20
9.7716
  0
VERTEX
  8
LAYER1
 62
     7
  6
CONTINUOUS
 10
5.4498
 20
9.7734
  0
VERTEX
  8
LAYER1
 62
     7
  6
CONTINUOUS
 10
5.4513
 20
9.7753
  0
VERTEX
  8
LAYER1
 62
     7
  6
CONTINUOUS
 10
5.4528
 20
9.7772
  0
VERTEX
  8
LAYER1
 62
     7
  6
CONTINUOUS
 10
5.4544
 20
9.7791
  0
VERTEX
  8
LAYER1
 62
     7
  6
CONTINUOUS
 10
5.4559
 20
9.7809
  0
VERTEX
  8
LAYER1
 62
     7
  6
CONTINUOUS
 10
5.4576
 20
9.7826
  0
VERTEX
  8
LAYER1
 62
     7
  6
CONTINUOUS
 10
5.4593
 20
9.7842
  0
VERTEX
  8
LAYER1
 62
     7
  6
CONTINUOUS
 10
5.4611
 20
9.7857
  0
VERTEX
  8
LAYER1
 62
     7
  6
CONTINUOUS
 10
5.4619
 20
9.7862
  0
VERTEX
  8
LAYER1
 62
     7
  6
CONTINUOUS
 10
5.4627
 20
9.7867
  0
VERTEX
  8
LAYER1
 62
     7
  6
CONTINUOUS
 10
5.4635
 20
9.7871
  0
VERTEX
  8
LAYER1
 62
     7
  6
CONTINUOUS
 10
5.4643
 20
9.7876
  0
VERTEX
  8
LAYER1
 62
     7
  6
CONTINUOUS
 10
5.4651
 20
9.7880
  0
VERTEX
  8
LAYER1
 62
     7
  6
CONTINUOUS
 10
5.4660
 20
9.7884
  0
VERTEX
  8
LAYER1
 62
     7
  6
CONTINUOUS
 10
5.4668
 20
9.7888
  0
VERTEX
  8
LAYER1
 62
     7
  6
CONTINUOUS
 10
5.4676
 20
9.7892
  0
VERTEX
  8
LAYER1
 62
     7
  6
CONTINUOUS
 10
5.4685
 20
9.7896
  0
VERTEX
  8
LAYER1
 62
     7
  6
CONTINUOUS
 10
5.4693
 20
9.7900
  0
VERTEX
  8
LAYER1
 62
     7
  6
CONTINUOUS
 10
5.4702
 20
9.7903
  0
VERTEX
  8
LAYER1
 62
     7
  6
CONTINUOUS
 10
5.4710
 20
9.7907
  0
VERTEX
  8
LAYER1
 62
     7
  6
CONTINUOUS
 10
5.4719
 20
9.7912
  0
VERTEX
  8
LAYER1
 62
     7
  6
CONTINUOUS
 10
5.4727
 20
9.7916
  0
VERTEX
  8
LAYER1
 62
     7
  6
CONTINUOUS
 10
5.4735
 20
9.7920
  0
VERTEX
  8
LAYER1
 62
     7
  6
CONTINUOUS
 10
5.4744
 20
9.7924
  0
VERTEX
  8
LAYER1
 62
     7
  6
CONTINUOUS
 10
5.4752
 20
9.7929
  0
VERTEX
  8
LAYER1
 62
     7
  6
CONTINUOUS
 10
5.4760
 20
9.7933
  0
VERTEX
  8
LAYER1
 62
     7
  6
CONTINUOUS
 10
5.4768
 20
9.7937
  0
VERTEX
  8
LAYER1
 62
     7
  6
CONTINUOUS
 10
5.4776
 20
9.7942
  0
VERTEX
  8
LAYER1
 62
     7
  6
CONTINUOUS
 10
5.4785
 20
9.7946
  0
VERTEX
  8
LAYER1
 62
     7
  6
CONTINUOUS
 10
5.4793
 20
9.7950
  0
VERTEX
  8
LAYER1
 62
     7
  6
CONTINUOUS
 10
5.4801
 20
9.7954
  0
VERTEX
  8
LAYER1
 62
     7
  6
CONTINUOUS
 10
5.4809
 20
9.7958
  0
VERTEX
  8
LAYER1
 62
     7
  6
CONTINUOUS
 10
5.4833
 20
9.7969
  0
VERTEX
  8
LAYER1
 62
     7
  6
CONTINUOUS
 10
5.4857
 20
9.7979
  0
VERTEX
  8
LAYER1
 62
     7
  6
CONTINUOUS
 10
5.4882
 20
9.7988
  0
VERTEX
  8
LAYER1
 62
     7
  6
CONTINUOUS
 10
5.4907
 20
9.7996
  0
VERTEX
  8
LAYER1
 62
     7
  6
CONTINUOUS
 10
5.4932
 20
9.8004
  0
VERTEX
  8
LAYER1
 62
     7
  6
CONTINUOUS
 10
5.4957
 20
9.8012
  0
VERTEX
  8
LAYER1
 62
     7
  6
CONTINUOUS
 10
5.4982
 20
9.8020
  0
VERTEX
  8
LAYER1
 62
     7
  6
CONTINUOUS
 10
5.5007
 20
9.8027
  0
VERTEX
  8
LAYER1
 62
     7
  6
CONTINUOUS
 10
5.5032
 20
9.8035
  0
VERTEX
  8
LAYER1
 62
     7
  6
CONTINUOUS
 10
5.5057
 20
9.8043
  0
VERTEX
  8
LAYER1
 62
     7
  6
CONTINUOUS
 10
5.5082
 20
9.8052
  0
VERTEX
  8
LAYER1
 62
     7
  6
CONTINUOUS
 10
5.5107
 20
9.8061
  0
VERTEX
  8
LAYER1
 62
     7
  6
CONTINUOUS
 10
5.5128
 20
9.8070
  0
VERTEX
  8
LAYER1
 62
     7
  6
CONTINUOUS
 10
5.5148
 20
9.8079
  0
VERTEX
  8
LAYER1
 62
     7
  6
CONTINUOUS
 10
5.5169
 20
9.8088
  0
VERTEX
  8
LAYER1
 62
     7
  6
CONTINUOUS
 10
5.5189
 20
9.8097
  0
VERTEX
  8
LAYER1
 62
     7
  6
CONTINUOUS
 10
5.5210
 20
9.8107
  0
VERTEX
  8
LAYER1
 62
     7
  6
CONTINUOUS
 10
5.5230
 20
9.8116
  0
VERTEX
  8
LAYER1
 62
     7
  6
CONTINUOUS
 10
5.5251
 20
9.8125
  0
VERTEX
  8
LAYER1
 62
     7
  6
CONTINUOUS
 10
5.5271
 20
9.8134
  0
VERTEX
  8
LAYER1
 62
     7
  6
CONTINUOUS
 10
5.5292
 20
9.8142
  0
VERTEX
  8
LAYER1
 62
     7
  6
CONTINUOUS
 10
5.5313
 20
9.8150
  0
VERTEX
  8
LAYER1
 62
     7
  6
CONTINUOUS
 10
5.5334
 20
9.8157
  0
VERTEX
  8
LAYER1
 62
     7
  6
CONTINUOUS
 10
5.5355
 20
9.8163
  0
VERTEX
  8
LAYER1
 62
     7
  6
CONTINUOUS
 10
5.5379
 20
9.8169
  0
VERTEX
  8
LAYER1
 62
     7
  6
CONTINUOUS
 10
5.5404
 20
9.8174
  0
VERTEX
  8
LAYER1
 62
     7
  6
CONTINUOUS
 10
5.5429
 20
9.8178
  0
VERTEX
  8
LAYER1
 62
     7
  6
CONTINUOUS
 10
5.5454
 20
9.8182
  0
VERTEX
  8
LAYER1
 62
     7
  6
CONTINUOUS
 10
5.5479
 20
9.8185
  0
VERTEX
  8
LAYER1
 62
     7
  6
CONTINUOUS
 10
5.5504
 20
9.8188
  0
VERTEX
  8
LAYER1
 62
     7
  6
CONTINUOUS
 10
5.5529
 20
9.8192
  0
VERTEX
  8
LAYER1
 62
     7
  6
CONTINUOUS
 10
5.5554
 20
9.8195
  0
VERTEX
  8
LAYER1
 62
     7
  6
CONTINUOUS
 10
5.5579
 20
9.8199
  0
VERTEX
  8
LAYER1
 62
     7
  6
CONTINUOUS
 10
5.5604
 20
9.8204
  0
VERTEX
  8
LAYER1
 62
     7
  6
CONTINUOUS
 10
5.5629
 20
9.8210
  0
VERTEX
  8
LAYER1
 62
     7
  6
CONTINUOUS
 10
5.5653
 20
9.8217
  0
VERTEX
  8
LAYER1
 62
     7
  6
CONTINUOUS
 10
5.5683
 20
9.8227
  0
VERTEX
  8
LAYER1
 62
     7
  6
CONTINUOUS
 10
5.5712
 20
9.8240
  0
VERTEX
  8
LAYER1
 62
     7
  6
CONTINUOUS
 10
5.5741
 20
9.8254
  0
VERTEX
  8
LAYER1
 62
     7
  6
CONTINUOUS
 10
5.5769
 20
9.8269
  0
VERTEX
  8
LAYER1
 62
     7
  6
CONTINUOUS
 10
5.5798
 20
9.8284
  0
VERTEX
  8
LAYER1
 62
     7
  6
CONTINUOUS
 10
5.5826
 20
9.8299
  0
VERTEX
  8
LAYER1
 62
     7
  6
CONTINUOUS
 10
5.5854
 20
9.8314
  0
VERTEX
  8
LAYER1
 62
     7
  6
CONTINUOUS
 10
5.5883
 20
9.8329
  0
VERTEX
  8
LAYER1
 62
     7
  6
CONTINUOUS
 10
5.5911
 20
9.8342
  0
VERTEX
  8
LAYER1
 62
     7
  6
CONTINUOUS
 10
5.5940
 20
9.8353
  0
VERTEX
  8
LAYER1
 62
     7
  6
CONTINUOUS
 10
5.5970
 20
9.8363
  0
VERTEX
  8
LAYER1
 62
     7
  6
CONTINUOUS
 10
5.6000
 20
9.8370
  0
VERTEX
  8
LAYER1
 62
     7
  6
CONTINUOUS
 10
5.6012
 20
9.8372
  0
VERTEX
  8
LAYER1
 62
     7
  6
CONTINUOUS
 10
5.6024
 20
9.8373
  0
VERTEX
  8
LAYER1
 62
     7
  6
CONTINUOUS
 10
5.6036
 20
9.8374
  0
VERTEX
  8
LAYER1
 62
     7
  6
CONTINUOUS
 10
5.6048
 20
9.8375
  0
VERTEX
  8
LAYER1
 62
     7
  6
CONTINUOUS
 10
5.6061
 20
9.8375
  0
VERTEX
  8
LAYER1
 62
     7
  6
CONTINUOUS
 10
5.6073
 20
9.8375
  0
VERTEX
  8
LAYER1
 62
     7
  6
CONTINUOUS
 10
5.6086
 20
9.8375
  0
VERTEX
  8
LAYER1
 62
     7
  6
CONTINUOUS
 10
5.6098
 20
9.8375
  0
VERTEX
  8
LAYER1
 62
     7
  6
CONTINUOUS
 10
5.6111
 20
9.8374
  0
VERTEX
  8
LAYER1
 62
     7
  6
CONTINUOUS
 10
5.6123
 20
9.8373
  0
VERTEX
  8
LAYER1
 62
     7
  6
CONTINUOUS
 10
5.6136
 20
9.8372
  0
VERTEX
  8
LAYER1
 62
     7
  6
CONTINUOUS
 10
5.6149
 20
9.8371
  0
VERTEX
  8
LAYER1
 62
     7
  6
CONTINUOUS
 10
5.6176
 20
9.8369
  0
VERTEX
  8
LAYER1
 62
     7
  6
CONTINUOUS
 10
5.6203
 20
9.8366
  0
VERTEX
  8
LAYER1
 62
     7
  6
CONTINUOUS
 10
5.6230
 20
9.8362
  0
VERTEX
  8
LAYER1
 62
     7
  6
CONTINUOUS
 10
5.6257
 20
9.8357
  0
VERTEX
  8
LAYER1
 62
     7
  6
CONTINUOUS
 10
5.6284
 20
9.8351
  0
VERTEX
  8
LAYER1
 62
     7
  6
CONTINUOUS
 10
5.6310
 20
9.8345
  0
VERTEX
  8
LAYER1
 62
     7
  6
CONTINUOUS
 10
5.6335
 20
9.8337
  0
VERTEX
  8
LAYER1
 62
     7
  6
CONTINUOUS
 10
5.6360
 20
9.8328
  0
VERTEX
  8
LAYER1
 62
     7
  6
CONTINUOUS
 10
5.6384
 20
9.8317
  0
VERTEX
  8
LAYER1
 62
     7
  6
CONTINUOUS
 10
5.6407
 20
9.8305
  0
VERTEX
  8
LAYER1
 62
     7
  6
CONTINUOUS
 10
5.6428
 20
9.8291
  0
VERTEX
  8
LAYER1
 62
     7
  6
CONTINUOUS
 10
5.6449
 20
9.8275
  0
VERTEX
  8
LAYER1
 62
     7
  6
CONTINUOUS
 10
5.6457
 20
9.8268
  0
VERTEX
  8
LAYER1
 62
     7
  6
CONTINUOUS
 10
5.6466
 20
9.8260
  0
VERTEX
  8
LAYER1
 62
     7
  6
CONTINUOUS
 10
5.6474
 20
9.8251
  0
VERTEX
  8
LAYER1
 62
     7
  6
CONTINUOUS
 10
5.6482
 20
9.8243
  0
VERTEX
  8
LAYER1
 62
     7
  6
CONTINUOUS
 10
5.6490
 20
9.8235
  0
VERTEX
  8
LAYER1
 62
     7
  6
CONTINUOUS
 10
5.6499
 20
9.8226
  0
VERTEX
  8
LAYER1
 62
     7
  6
CONTINUOUS
 10
5.6507
 20
9.8217
  0
VERTEX
  8
LAYER1
 62
     7
  6
CONTINUOUS
 10
5.6515
 20
9.8209
  0
VERTEX
  8
LAYER1
 62
     7
  6
CONTINUOUS
 10
5.6523
 20
9.8200
  0
VERTEX
  8
LAYER1
 62
     7
  6
CONTINUOUS
 10
5.6532
 20
9.8192
  0
VERTEX
  8
LAYER1
 62
     7
  6
CONTINUOUS
 10
5.6540
 20
9.8184
  0
VERTEX
  8
LAYER1
 62
     7
  6
CONTINUOUS
 10
5.6549
 20
9.8177
  0
VERTEX
  8
LAYER1
 62
     7
  6
CONTINUOUS
 10
5.6574
 20
9.8159
  0
VERTEX
  8
LAYER1
 62
     7
  6
CONTINUOUS
 10
5.6599
 20
9.8144
  0
VERTEX
  8
LAYER1
 62
     7
  6
CONTINUOUS
 10
5.6627
 20
9.8131
  0
VERTEX
  8
LAYER1
 62
     7
  6
CONTINUOUS
 10
5.6656
 20
9.8121
  0
VERTEX
  8
LAYER1
 62
     7
  6
CONTINUOUS
 10
5.6686
 20
9.8114
  0
VERTEX
  8
LAYER1
 62
     7
  6
CONTINUOUS
 10
5.6716
 20
9.8108
  0
VERTEX
  8
LAYER1
 62
     7
  6
CONTINUOUS
 10
5.6747
 20
9.8106
  0
VERTEX
  8
LAYER1
 62
     7
  6
CONTINUOUS
 10
5.6778
 20
9.8105
  0
VERTEX
  8
LAYER1
 62
     7
  6
CONTINUOUS
 10
5.6809
 20
9.8108
  0
VERTEX
  8
LAYER1
 62
     7
  6
CONTINUOUS
 10
5.6840
 20
9.8113
  0
VERTEX
  8
LAYER1
 62
     7
  6
CONTINUOUS
 10
5.6870
 20
9.8120
  0
VERTEX
  8
LAYER1
 62
     7
  6
CONTINUOUS
 10
5.6898
 20
9.8131
  0
VERTEX
  8
LAYER1
 62
     7
  6
CONTINUOUS
 10
5.6916
 20
9.8139
  0
VERTEX
  8
LAYER1
 62
     7
  6
CONTINUOUS
 10
5.6933
 20
9.8147
  0
VERTEX
  8
LAYER1
 62
     7
  6
CONTINUOUS
 10
5.6950
 20
9.8156
  0
VERTEX
  8
LAYER1
 62
     7
  6
CONTINUOUS
 10
5.6966
 20
9.8166
  0
VERTEX
  8
LAYER1
 62
     7
  6
CONTINUOUS
 10
5.6982
 20
9.8176
  0
VERTEX
  8
LAYER1
 62
     7
  6
CONTINUOUS
 10
5.6998
 20
9.8186
  0
VERTEX
  8
LAYER1
 62
     7
  6
CONTINUOUS
 10
5.7014
 20
9.8196
  0
VERTEX
  8
LAYER1
 62
     7
  6
CONTINUOUS
 10
5.7030
 20
9.8205
  0
VERTEX
  8
LAYER1
 62
     7
  6
CONTINUOUS
 10
5.7047
 20
9.8213
  0
VERTEX
  8
LAYER1
 62
     7
  6
CONTINUOUS
 10
5.7063
 20
9.8221
  0
VERTEX
  8
LAYER1
 62
     7
  6
CONTINUOUS
 10
5.7080
 20
9.8227
  0
VERTEX
  8
LAYER1
 62
     7
  6
CONTINUOUS
 10
5.7096
 20
9.8233
  0
VERTEX
  8
LAYER1
 62
     7
  6
CONTINUOUS
 10
5.7112
 20
9.8236
  0
VERTEX
  8
LAYER1
 62
     7
  6
CONTINUOUS
 10
5.7128
 20
9.8238
  0
VERTEX
  8
LAYER1
 62
     7
  6
CONTINUOUS
 10
5.7144
 20
9.8239
  0
VERTEX
  8
LAYER1
 62
     7
  6
CONTINUOUS
 10
5.7160
 20
9.8240
  0
VERTEX
  8
LAYER1
 62
     7
  6
CONTINUOUS
 10
5.7177
 20
9.8240
  0
VERTEX
  8
LAYER1
 62
     7
  6
CONTINUOUS
 10
5.7194
 20
9.8239
  0
VERTEX
  8
LAYER1
 62
     7
  6
CONTINUOUS
 10
5.7210
 20
9.8239
  0
VERTEX
  8
LAYER1
 62
     7
  6
CONTINUOUS
 10
5.7227
 20
9.8237
  0
VERTEX
  8
LAYER1
 62
     7
  6
CONTINUOUS
 10
5.7244
 20
9.8236
  0
VERTEX
  8
LAYER1
 62
     7
  6
CONTINUOUS
 10
5.7261
 20
9.8235
  0
VERTEX
  8
LAYER1
 62
     7
  6
CONTINUOUS
 10
5.7278
 20
9.8235
  0
VERTEX
  8
LAYER1
 62
     7
  6
CONTINUOUS
 10
5.7295
 20
9.8235
  0
VERTEX
  8
LAYER1
 62
     7
  6
CONTINUOUS
 10
5.7325
 20
9.8236
  0
VERTEX
  8
LAYER1
 62
     7
  6
CONTINUOUS
 10
5.7355
 20
9.8239
  0
VERTEX
  8
LAYER1
 62
     7
  6
CONTINUOUS
 10
5.7384
 20
9.8243
  0
VERTEX
  8
LAYER1
 62
     7
  6
CONTINUOUS
 10
5.7414
 20
9.8248
  0
VERTEX
  8
LAYER1
 62
     7
  6
CONTINUOUS
 10
5.7443
 20
9.8253
  0
VERTEX
  8
LAYER1
 62
     7
  6
CONTINUOUS
 10
5.7472
 20
9.8259
  0
VERTEX
  8
LAYER1
 62
     7
  6
CONTINUOUS
 10
5.7500
 20
9.8266
  0
VERTEX
  8
LAYER1
 62
     7
  6
CONTINUOUS
 10
5.7529
 20
9.8272
  0
VERTEX
  8
LAYER1
 62
     7
  6
CONTINUOUS
 10
5.7558
 20
9.8277
  0
VERTEX
  8
LAYER1
 62
     7
  6
CONTINUOUS
 10
5.7586
 20
9.8282
  0
VERTEX
  8
LAYER1
 62
     7
  6
CONTINUOUS
 10
5.7615
 20
9.8286
  0
VERTEX
  8
LAYER1
 62
     7
  6
CONTINUOUS
 10
5.7643
 20
9.8288
  0
VERTEX
  8
LAYER1
 62
     7
  6
CONTINUOUS
 10
5.7664
 20
9.8289
  0
VERTEX
  8
LAYER1
 62
     7
  6
CONTINUOUS
 10
5.7684
 20
9.8289
  0
VERTEX
  8
LAYER1
 62
     7
  6
CONTINUOUS
 10
5.7704
 20
9.8289
  0
VERTEX
  8
LAYER1
 62
     7
  6
CONTINUOUS
 10
5.7724
 20
9.8288
  0
VERTEX
  8
LAYER1
 62
     7
  6
CONTINUOUS
 10
5.7745
 20
9.8287
  0
VERTEX
  8
LAYER1
 62
     7
  6
CONTINUOUS
 10
5.7766
 20
9.8286
  0
VERTEX
  8
LAYER1
 62
     7
  6
CONTINUOUS
 10
5.7786
 20
9.8286
  0
VERTEX
  8
LAYER1
 62
     7
  6
CONTINUOUS
 10
5.7807
 20
9.8285
  0
VERTEX
  8
LAYER1
 62
     7
  6
CONTINUOUS
 10
5.7828
 20
9.8286
  0
VERTEX
  8
LAYER1
 62
     7
  6
CONTINUOUS
 10
5.7849
 20
9.8286
  0
VERTEX
  8
LAYER1
 62
     7
  6
CONTINUOUS
 10
5.7871
 20
9.8288
  0
VERTEX
  8
LAYER1
 62
     7
  6
CONTINUOUS
 10
5.7892
 20
9.8291
  0
VERTEX
  8
LAYER1
 62
     7
  6
CONTINUOUS
 10
5.7932
 20
9.8299
  0
VERTEX
  8
LAYER1
 62
     7
  6
CONTINUOUS
 10
5.7972
 20
9.8310
  0
VERTEX
  8
LAYER1
 62
     7
  6
CONTINUOUS
 10
5.8013
 20
9.8323
  0
VERTEX
  8
LAYER1
 62
     7
  6
CONTINUOUS
 10
5.8053
 20
9.8336
  0
VERTEX
  8
LAYER1
 62
     7
  6
CONTINUOUS
 10
5.8093
 20
9.8350
  0
VERTEX
  8
LAYER1
 62
     7
  6
CONTINUOUS
 10
5.8133
 20
9.8361
  0
VERTEX
  8
LAYER1
 62
     7
  6
CONTINUOUS
 10
5.8172
 20
9.8371
  0
VERTEX
  8
LAYER1
 62
     7
  6
CONTINUOUS
 10
5.8209
 20
9.8377
  0
VERTEX
  8
LAYER1
 62
     7
  6
CONTINUOUS
 10
5.8245
 20
9.8379
  0
VERTEX
  8
LAYER1
 62
     7
  6
CONTINUOUS
 10
5.8278
 20
9.8375
  0
VERTEX
  8
LAYER1
 62
     7
  6
CONTINUOUS
 10
5.8310
 20
9.8364
  0
VERTEX
  8
LAYER1
 62
     7
  6
CONTINUOUS
 10
5.8340
 20
9.8346
  0
VERTEX
  8
LAYER1
 62
     7
  6
CONTINUOUS
 10
5.8348
 20
9.8338
  0
VERTEX
  8
LAYER1
 62
     7
  6
CONTINUOUS
 10
5.8357
 20
9.8330
  0
VERTEX
  8
LAYER1
 62
     7
  6
CONTINUOUS
 10
5.8365
 20
9.8322
  0
VERTEX
  8
LAYER1
 62
     7
  6
CONTINUOUS
 10
5.8373
 20
9.8313
  0
VERTEX
  8
LAYER1
 62
     7
  6
CONTINUOUS
 10
5.8381
 20
9.8303
  0
VERTEX
  8
LAYER1
 62
     7
  6
CONTINUOUS
 10
5.8389
 20
9.8294
  0
VERTEX
  8
LAYER1
 62
     7
  6
CONTINUOUS
 10
5.8398
 20
9.8285
  0
VERTEX
  8
LAYER1
 62
     7
  6
CONTINUOUS
 10
5.8406
 20
9.8276
  0
VERTEX
  8
LAYER1
 62
     7
  6
CONTINUOUS
 10
5.8414
 20
9.8268
  0
VERTEX
  8
LAYER1
 62
     7
  6
CONTINUOUS
 10
5.8423
 20
9.8260
  0
VERTEX
  8
LAYER1
 62
     7
  6
CONTINUOUS
 10
5.8431
 20
9.8253
  0
VERTEX
  8
LAYER1
 62
     7
  6
CONTINUOUS
 10
5.8440
 20
9.8247
  0
VERTEX
  8
LAYER1
 62
     7
  6
CONTINUOUS
 10
5.8461
 20
9.8238
  0
VERTEX
  8
LAYER1
 62
     7
  6
CONTINUOUS
 10
5.8483
 20
9.8233
  0
VERTEX
  8
LAYER1
 62
     7
  6
CONTINUOUS
 10
5.8506
 20
9.8232
  0
VERTEX
  8
LAYER1
 62
     7
  6
CONTINUOUS
 10
5.8530
 20
9.8235
  0
VERTEX
  8
LAYER1
 62
     7
  6
CONTINUOUS
 10
5.8554
 20
9.8240
  0
VERTEX
  8
LAYER1
 62
     7
  6
CONTINUOUS
 10
5.8580
 20
9.8247
  0
VERTEX
  8
LAYER1
 62
     7
  6
CONTINUOUS
 10
5.8606
 20
9.8256
  0
VERTEX
  8
LAYER1
 62
     7
  6
CONTINUOUS
 10
5.8632
 20
9.8266
  0
VERTEX
  8
LAYER1
 62
     7
  6
CONTINUOUS
 10
5.8659
 20
9.8276
  0
VERTEX
  8
LAYER1
 62
     7
  6
CONTINUOUS
 10
5.8686
 20
9.8285
  0
SEQEND
  8
LAYER1
  0
POLYLINE
  8
LAYER1
 62
     7
 66
     1
  6
CONTINUOUS
  0
VERTEX
  8
LAYER1
 62
     7
  6
CONTINUOUS
 10
5.8686
 20
9.8285
  0
VERTEX
  8
LAYER1
 62
     7
  6
CONTINUOUS
 10
5.8712
 20
9.8294
  0
VERTEX
  8
LAYER1
 62
     7
  6
CONTINUOUS
 10
5.8739
 20
9.8300
  0
VERTEX
  8
LAYER1
 62
     7
  6
CONTINUOUS
 10
5.8760
 20
9.8305
  0
VERTEX
  8
LAYER1
 62
     7
  6
CONTINUOUS
 10
5.8782
 20
9.8307
  0
VERTEX
  8
LAYER1
 62
     7
  6
CONTINUOUS
 10
5.8803
 20
9.8308
  0
VERTEX
  8
LAYER1
 62
     7
  6
CONTINUOUS
 10
5.8824
 20
9.8308
  0
VERTEX
  8
LAYER1
 62
     7
  6
CONTINUOUS
 10
5.8845
 20
9.8306
  0
VERTEX
  8
LAYER1
 62
     7
  6
CONTINUOUS
 10
5.8865
 20
9.8303
  0
VERTEX
  8
LAYER1
 62
     7
  6
CONTINUOUS
 10
5.8886
 20
9.8298
  0
VERTEX
  8
LAYER1
 62
     7
  6
CONTINUOUS
 10
5.8906
 20
9.8292
  0
VERTEX
  8
LAYER1
 62
     7
  6
CONTINUOUS
 10
5.8927
 20
9.8284
  0
VERTEX
  8
LAYER1
 62
     7
  6
CONTINUOUS
 10
5.8947
 20
9.8275
  0
VERTEX
  8
LAYER1
 62
     7
  6
CONTINUOUS
 10
5.8967
 20
9.8265
  0
VERTEX
  8
LAYER1
 62
     7
  6
CONTINUOUS
 10
5.8988
 20
9.8253
  0
VERTEX
  8
LAYER1
 62
     7
  6
CONTINUOUS
 10
5.8997
 20
9.8248
  0
VERTEX
  8
LAYER1
 62
     7
  6
CONTINUOUS
 10
5.9006
 20
9.8242
  0
VERTEX
  8
LAYER1
 62
     7
  6
CONTINUOUS
 10
5.9015
 20
9.8237
  0
VERTEX
  8
LAYER1
 62
     7
  6
CONTINUOUS
 10
5.9024
 20
9.8231
  0
VERTEX
  8
LAYER1
 62
     7
  6
CONTINUOUS
 10
5.9033
 20
9.8226
  0
VERTEX
  8
LAYER1
 62
     7
  6
CONTINUOUS
 10
5.9041
 20
9.8221
  0
VERTEX
  8
LAYER1
 62
     7
  6
CONTINUOUS
 10
5.9050
 20
9.8216
  0
VERTEX
  8
LAYER1
 62
     7
  6
CONTINUOUS
 10
5.9058
 20
9.8212
  0
VERTEX
  8
LAYER1
 62
     7
  6
CONTINUOUS
 10
5.9066
 20
9.8209
  0
VERTEX
  8
LAYER1
 62
     7
  6
CONTINUOUS
 10
5.9074
 20
9.8207
  0
VERTEX
  8
LAYER1
 62
     7
  6
CONTINUOUS
 10
5.9081
 20
9.8205
  0
VERTEX
  8
LAYER1
 62
     7
  6
CONTINUOUS
 10
5.9088
 20
9.8205
  0
VERTEX
  8
LAYER1
 62
     7
  6
CONTINUOUS
 10
5.9101
 20
9.8207
  0
VERTEX
  8
LAYER1
 62
     7
  6
CONTINUOUS
 10
5.9113
 20
9.8214
  0
VERTEX
  8
LAYER1
 62
     7
  6
CONTINUOUS
 10
5.9123
 20
9.8224
  0
VERTEX
  8
LAYER1
 62
     7
  6
CONTINUOUS
 10
5.9132
 20
9.8238
  0
VERTEX
  8
LAYER1
 62
     7
  6
CONTINUOUS
 10
5.9141
 20
9.8255
  0
VERTEX
  8
LAYER1
 62
     7
  6
CONTINUOUS
 10
5.9148
 20
9.8273
  0
VERTEX
  8
LAYER1
 62
     7
  6
CONTINUOUS
 10
5.9155
 20
9.8294
  0
VERTEX
  8
LAYER1
 62
     7
  6
CONTINUOUS
 10
5.9162
 20
9.8315
  0
VERTEX
  8
LAYER1
 62
     7
  6
CONTINUOUS
 10
5.9168
 20
9.8338
  0
VERTEX
  8
LAYER1
 62
     7
  6
CONTINUOUS
 10
5.9174
 20
9.8361
  0
VERTEX
  8
LAYER1
 62
     7
  6
CONTINUOUS
 10
5.9180
 20
9.8383
  0
VERTEX
  8
LAYER1
 62
     7
  6
CONTINUOUS
 10
5.9185
 20
9.8405
  0
VERTEX
  8
LAYER1
 62
     7
  6
CONTINUOUS
 10
5.9191
 20
9.8424
  0
VERTEX
  8
LAYER1
 62
     7
  6
CONTINUOUS
 10
5.9197
 20
9.8442
  0
VERTEX
  8
LAYER1
 62
     7
  6
CONTINUOUS
 10
5.9202
 20
9.8460
  0
VERTEX
  8
LAYER1
 62
     7
  6
CONTINUOUS
 10
5.9208
 20
9.8477
  0
VERTEX
  8
LAYER1
 62
     7
  6
CONTINUOUS
 10
5.9213
 20
9.8493
  0
VERTEX
  8
LAYER1
 62
     7
  6
CONTINUOUS
 10
5.9218
 20
9.8509
  0
VERTEX
  8
LAYER1
 62
     7
  6
CONTINUOUS
 10
5.9222
 20
9.8525
  0
VERTEX
  8
LAYER1
 62
     7
  6
CONTINUOUS
 10
5.9226
 20
9.8540
  0
VERTEX
  8
LAYER1
 62
     7
  6
CONTINUOUS
 10
5.9229
 20
9.8556
  0
VERTEX
  8
LAYER1
 62
     7
  6
CONTINUOUS
 10
5.9231
 20
9.8572
  0
VERTEX
  8
LAYER1
 62
     7
  6
CONTINUOUS
 10
5.9233
 20
9.8588
  0
VERTEX
  8
LAYER1
 62
     7
  6
CONTINUOUS
 10
5.9233
 20
9.8605
  0
VERTEX
  8
LAYER1
 62
     7
  6
CONTINUOUS
 10
5.9232
 20
9.8618
  0
VERTEX
  8
LAYER1
 62
     7
  6
CONTINUOUS
 10
5.9231
 20
9.8631
  0
VERTEX
  8
LAYER1
 62
     7
  6
CONTINUOUS
 10
5.9229
 20
9.8644
  0
VERTEX
  8
LAYER1
 62
     7
  6
CONTINUOUS
 10
5.9227
 20
9.8657
  0
VERTEX
  8
LAYER1
 62
     7
  6
CONTINUOUS
 10
5.9223
 20
9.8671
  0
VERTEX
  8
LAYER1
 62
     7
  6
CONTINUOUS
 10
5.9220
 20
9.8684
  0
VERTEX
  8
LAYER1
 62
     7
  6
CONTINUOUS
 10
5.9215
 20
9.8697
  0
VERTEX
  8
LAYER1
 62
     7
  6
CONTINUOUS
 10
5.9210
 20
9.8709
  0
VERTEX
  8
LAYER1
 62
     7
  6
CONTINUOUS
 10
5.9204
 20
9.8721
  0
VERTEX
  8
LAYER1
 62
     7
  6
CONTINUOUS
 10
5.9197
 20
9.8733
  0
VERTEX
  8
LAYER1
 62
     7
  6
CONTINUOUS
 10
5.9190
 20
9.8743
  0
VERTEX
  8
LAYER1
 62
     7
  6
CONTINUOUS
 10
5.9182
 20
9.8753
  0
VERTEX
  8
LAYER1
 62
     7
  6
CONTINUOUS
 10
5.9166
 20
9.8768
  0
VERTEX
  8
LAYER1
 62
     7
  6
CONTINUOUS
 10
5.9149
 20
9.8781
  0
VERTEX
  8
LAYER1
 62
     7
  6
CONTINUOUS
 10
5.9131
 20
9.8792
  0
VERTEX
  8
LAYER1
 62
     7
  6
CONTINUOUS
 10
5.9111
 20
9.8801
  0
VERTEX
  8
LAYER1
 62
     7
  6
CONTINUOUS
 10
5.9090
 20
9.8809
  0
VERTEX
  8
LAYER1
 62
     7
  6
CONTINUOUS
 10
5.9068
 20
9.8816
  0
VERTEX
  8
LAYER1
 62
     7
  6
CONTINUOUS
 10
5.9046
 20
9.8822
  0
VERTEX
  8
LAYER1
 62
     7
  6
CONTINUOUS
 10
5.9023
 20
9.8827
  0
VERTEX
  8
LAYER1
 62
     7
  6
CONTINUOUS
 10
5.9000
 20
9.8833
  0
VERTEX
  8
LAYER1
 62
     7
  6
CONTINUOUS
 10
5.8977
 20
9.8838
  0
VERTEX
  8
LAYER1
 62
     7
  6
CONTINUOUS
 10
5.8954
 20
9.8844
  0
VERTEX
  8
LAYER1
 62
     7
  6
CONTINUOUS
 10
5.8932
 20
9.8850
  0
VERTEX
  8
LAYER1
 62
     7
  6
CONTINUOUS
 10
5.8908
 20
9.8858
  0
VERTEX
  8
LAYER1
 62
     7
  6
CONTINUOUS
 10
5.8885
 20
9.8867
  0
VERTEX
  8
LAYER1
 62
     7
  6
CONTINUOUS
 10
5.8863
 20
9.8877
  0
VERTEX
  8
LAYER1
 62
     7
  6
CONTINUOUS
 10
5.8841
 20
9.8887
  0
VERTEX
  8
LAYER1
 62
     7
  6
CONTINUOUS
 10
5.8820
 20
9.8899
  0
VERTEX
  8
LAYER1
 62
     7
  6
CONTINUOUS
 10
5.8799
 20
9.8911
  0
VERTEX
  8
LAYER1
 62
     7
  6
CONTINUOUS
 10
5.8779
 20
9.8924
  0
VERTEX
  8
LAYER1
 62
     7
  6
CONTINUOUS
 10
5.8759
 20
9.8938
  0
VERTEX
  8
LAYER1
 62
     7
  6
CONTINUOUS
 10
5.8739
 20
9.8952
  0
VERTEX
  8
LAYER1
 62
     7
  6
CONTINUOUS
 10
5.8720
 20
9.8966
  0
VERTEX
  8
LAYER1
 62
     7
  6
CONTINUOUS
 10
5.8700
 20
9.8981
  0
VERTEX
  8
LAYER1
 62
     7
  6
CONTINUOUS
 10
5.8681
 20
9.8997
  0
VERTEX
  8
LAYER1
 62
     7
  6
CONTINUOUS
 10
5.8669
 20
9.9006
  0
VERTEX
  8
LAYER1
 62
     7
  6
CONTINUOUS
 10
5.8657
 20
9.9016
  0
VERTEX
  8
LAYER1
 62
     7
  6
CONTINUOUS
 10
5.8645
 20
9.9026
  0
VERTEX
  8
LAYER1
 62
     7
  6
CONTINUOUS
 10
5.8633
 20
9.9035
  0
VERTEX
  8
LAYER1
 62
     7
  6
CONTINUOUS
 10
5.8621
 20
9.9044
  0
VERTEX
  8
LAYER1
 62
     7
  6
CONTINUOUS
 10
5.8608
 20
9.9053
  0
VERTEX
  8
LAYER1
 62
     7
  6
CONTINUOUS
 10
5.8596
 20
9.9061
  0
VERTEX
  8
LAYER1
 62
     7
  6
CONTINUOUS
 10
5.8583
 20
9.9069
  0
VERTEX
  8
LAYER1
 62
     7
  6
CONTINUOUS
 10
5.8570
 20
9.9077
  0
VERTEX
  8
LAYER1
 62
     7
  6
CONTINUOUS
 10
5.8557
 20
9.9083
  0
VERTEX
  8
LAYER1
 62
     7
  6
CONTINUOUS
 10
5.8544
 20
9.9089
  0
VERTEX
  8
LAYER1
 62
     7
  6
CONTINUOUS
 10
5.8531
 20
9.9095
  0
VERTEX
  8
LAYER1
 62
     7
  6
CONTINUOUS
 10
5.8511
 20
9.9100
  0
VERTEX
  8
LAYER1
 62
     7
  6
CONTINUOUS
 10
5.8492
 20
9.9104
  0
VERTEX
  8
LAYER1
 62
     7
  6
CONTINUOUS
 10
5.8472
 20
9.9107
  0
VERTEX
  8
LAYER1
 62
     7
  6
CONTINUOUS
 10
5.8451
 20
9.9109
  0
VERTEX
  8
LAYER1
 62
     7
  6
CONTINUOUS
 10
5.8431
 20
9.9109
  0
VERTEX
  8
LAYER1
 62
     7
  6
CONTINUOUS
 10
5.8410
 20
9.9108
  0
VERTEX
  8
LAYER1
 62
     7
  6
CONTINUOUS
 10
5.8389
 20
9.9107
  0
VERTEX
  8
LAYER1
 62
     7
  6
CONTINUOUS
 10
5.8367
 20
9.9104
  0
VERTEX
  8
LAYER1
 62
     7
  6
CONTINUOUS
 10
5.8346
 20
9.9102
  0
VERTEX
  8
LAYER1
 62
     7
  6
CONTINUOUS
 10
5.8324
 20
9.9099
  0
VERTEX
  8
LAYER1
 62
     7
  6
CONTINUOUS
 10
5.8303
 20
9.9095
  0
VERTEX
  8
LAYER1
 62
     7
  6
CONTINUOUS
 10
5.8282
 20
9.9092
  0
VERTEX
  8
LAYER1
 62
     7
  6
CONTINUOUS
 10
5.8252
 20
9.9087
  0
VERTEX
  8
LAYER1
 62
     7
  6
CONTINUOUS
 10
5.8222
 20
9.9083
  0
VERTEX
  8
LAYER1
 62
     7
  6
CONTINUOUS
 10
5.8193
 20
9.9079
  0
VERTEX
  8
LAYER1
 62
     7
  6
CONTINUOUS
 10
5.8164
 20
9.9074
  0
VERTEX
  8
LAYER1
 62
     7
  6
CONTINUOUS
 10
5.8135
 20
9.9070
  0
VERTEX
  8
LAYER1
 62
     7
  6
CONTINUOUS
 10
5.8106
 20
9.9066
  0
VERTEX
  8
LAYER1
 62
     7
  6
CONTINUOUS
 10
5.8077
 20
9.9061
  0
VERTEX
  8
LAYER1
 62
     7
  6
CONTINUOUS
 10
5.8048
 20
9.9057
  0
VERTEX
  8
LAYER1
 62
     7
  6
CONTINUOUS
 10
5.8020
 20
9.9053
  0
VERTEX
  8
LAYER1
 62
     7
  6
CONTINUOUS
 10
5.7991
 20
9.9048
  0
VERTEX
  8
LAYER1
 62
     7
  6
CONTINUOUS
 10
5.7962
 20
9.9043
  0
VERTEX
  8
LAYER1
 62
     7
  6
CONTINUOUS
 10
5.7934
 20
9.9038
  0
VERTEX
  8
LAYER1
 62
     7
  6
CONTINUOUS
 10
5.7909
 20
9.9034
  0
VERTEX
  8
LAYER1
 62
     7
  6
CONTINUOUS
 10
5.7885
 20
9.9029
  0
VERTEX
  8
LAYER1
 62
     7
  6
CONTINUOUS
 10
5.7860
 20
9.9024
  0
VERTEX
  8
LAYER1
 62
     7
  6
CONTINUOUS
 10
5.7835
 20
9.9020
  0
VERTEX
  8
LAYER1
 62
     7
  6
CONTINUOUS
 10
5.7810
 20
9.9015
  0
VERTEX
  8
LAYER1
 62
     7
  6
CONTINUOUS
 10
5.7786
 20
9.9010
  0
VERTEX
  8
LAYER1
 62
     7
  6
CONTINUOUS
 10
5.7761
 20
9.9005
  0
VERTEX
  8
LAYER1
 62
     7
  6
CONTINUOUS
 10
5.7736
 20
9.9001
  0
VERTEX
  8
LAYER1
 62
     7
  6
CONTINUOUS
 10
5.7711
 20
9.8997
  0
VERTEX
  8
LAYER1
 62
     7
  6
CONTINUOUS
 10
5.7686
 20
9.8993
  0
VERTEX
  8
LAYER1
 62
     7
  6
CONTINUOUS
 10
5.7661
 20
9.8989
  0
VERTEX
  8
LAYER1
 62
     7
  6
CONTINUOUS
 10
5.7636
 20
9.8985
  0
VERTEX
  8
LAYER1
 62
     7
  6
CONTINUOUS
 10
5.7607
 20
9.8982
  0
VERTEX
  8
LAYER1
 62
     7
  6
CONTINUOUS
 10
5.7578
 20
9.8979
  0
VERTEX
  8
LAYER1
 62
     7
  6
CONTINUOUS
 10
5.7549
 20
9.8976
  0
VERTEX
  8
LAYER1
 62
     7
  6
CONTINUOUS
 10
5.7520
 20
9.8974
  0
VERTEX
  8
LAYER1
 62
     7
  6
CONTINUOUS
 10
5.7490
 20
9.8973
  0
VERTEX
  8
LAYER1
 62
     7
  6
CONTINUOUS
 10
5.7461
 20
9.8972
  0
VERTEX
  8
LAYER1
 62
     7
  6
CONTINUOUS
 10
5.7432
 20
9.8972
  0
VERTEX
  8
LAYER1
 62
     7
  6
CONTINUOUS
 10
5.7403
 20
9.8972
  0
VERTEX
  8
LAYER1
 62
     7
  6
CONTINUOUS
 10
5.7374
 20
9.8974
  0
VERTEX
  8
LAYER1
 62
     7
  6
CONTINUOUS
 10
5.7345
 20
9.8975
  0
VERTEX
  8
LAYER1
 62
     7
  6
CONTINUOUS
 10
5.7316
 20
9.8978
  0
VERTEX
  8
LAYER1
 62
     7
  6
CONTINUOUS
 10
5.7287
 20
9.8981
  0
VERTEX
  8
LAYER1
 62
     7
  6
CONTINUOUS
 10
5.7262
 20
9.8985
  0
VERTEX
  8
LAYER1
 62
     7
  6
CONTINUOUS
 10
5.7237
 20
9.8989
  0
VERTEX
  8
LAYER1
 62
     7
  6
CONTINUOUS
 10
5.7212
 20
9.8993
  0
VERTEX
  8
LAYER1
 62
     7
  6
CONTINUOUS
 10
5.7188
 20
9.8998
  0
VERTEX
  8
LAYER1
 62
     7
  6
CONTINUOUS
 10
5.7163
 20
9.9002
  0
VERTEX
  8
LAYER1
 62
     7
  6
CONTINUOUS
 10
5.7138
 20
9.9007
  0
VERTEX
  8
LAYER1
 62
     7
  6
CONTINUOUS
 10
5.7113
 20
9.9011
  0
VERTEX
  8
LAYER1
 62
     7
  6
CONTINUOUS
 10
5.7088
 20
9.9015
  0
VERTEX
  8
LAYER1
 62
     7
  6
CONTINUOUS
 10
5.7063
 20
9.9019
  0
VERTEX
  8
LAYER1
 62
     7
  6
CONTINUOUS
 10
5.7038
 20
9.9023
  0
VERTEX
  8
LAYER1
 62
     7
  6
CONTINUOUS
 10
5.7013
 20
9.9026
  0
VERTEX
  8
LAYER1
 62
     7
  6
CONTINUOUS
 10
5.6988
 20
9.9028
  0
VERTEX
  8
LAYER1
 62
     7
  6
CONTINUOUS
 10
5.6976
 20
9.9029
  0
VERTEX
  8
LAYER1
 62
     7
  6
CONTINUOUS
 10
5.6963
 20
9.9029
  0
VERTEX
  8
LAYER1
 62
     7
  6
CONTINUOUS
 10
5.6951
 20
9.9030
  0
VERTEX
  8
LAYER1
 62
     7
  6
CONTINUOUS
 10
5.6938
 20
9.9030
  0
VERTEX
  8
LAYER1
 62
     7
  6
CONTINUOUS
 10
5.6926
 20
9.9030
  0
VERTEX
  8
LAYER1
 62
     7
  6
CONTINUOUS
 10
5.6914
 20
9.9030
  0
VERTEX
  8
LAYER1
 62
     7
  6
CONTINUOUS
 10
5.6901
 20
9.9030
  0
VERTEX
  8
LAYER1
 62
     7
  6
CONTINUOUS
 10
5.6889
 20
9.9029
  0
VERTEX
  8
LAYER1
 62
     7
  6
CONTINUOUS
 10
5.6876
 20
9.9029
  0
VERTEX
  8
LAYER1
 62
     7
  6
CONTINUOUS
 10
5.6864
 20
9.9028
  0
VERTEX
  8
LAYER1
 62
     7
  6
CONTINUOUS
 10
5.6851
 20
9.9027
  0
VERTEX
  8
LAYER1
 62
     7
  6
CONTINUOUS
 10
5.6839
 20
9.9026
  0
VERTEX
  8
LAYER1
 62
     7
  6
CONTINUOUS
 10
5.6801
 20
9.9023
  0
VERTEX
  8
LAYER1
 62
     7
  6
CONTINUOUS
 10
5.6764
 20
9.9018
  0
VERTEX
  8
LAYER1
 62
     7
  6
CONTINUOUS
 10
5.6727
 20
9.9013
  0
VERTEX
  8
LAYER1
 62
     7
  6
CONTINUOUS
 10
5.6689
 20
9.9007
  0
VERTEX
  8
LAYER1
 62
     7
  6
CONTINUOUS
 10
5.6652
 20
9.9001
  0
VERTEX
  8
LAYER1
 62
     7
  6
CONTINUOUS
 10
5.6615
 20
9.8995
  0
VERTEX
  8
LAYER1
 62
     7
  6
CONTINUOUS
 10
5.6578
 20
9.8990
  0
VERTEX
  8
LAYER1
 62
     7
  6
CONTINUOUS
 10
5.6541
 20
9.8984
  0
VERTEX
  8
LAYER1
 62
     7
  6
CONTINUOUS
 10
5.6503
 20
9.8980
  0
VERTEX
  8
LAYER1
 62
     7
  6
CONTINUOUS
 10
5.6466
 20
9.8976
  0
VERTEX
  8
LAYER1
 62
     7
  6
CONTINUOUS
 10
5.6429
 20
9.8973
  0
VERTEX
  8
LAYER1
 62
     7
  6
CONTINUOUS
 10
5.6391
 20
9.8972
  0
VERTEX
  8
LAYER1
 62
     7
  6
CONTINUOUS
 10
5.6358
 20
9.8971
  0
VERTEX
  8
LAYER1
 62
     7
  6
CONTINUOUS
 10
5.6325
 20
9.8972
  0
VERTEX
  8
LAYER1
 62
     7
  6
CONTINUOUS
 10
5.6292
 20
9.8973
  0
VERTEX
  8
LAYER1
 62
     7
  6
CONTINUOUS
 10
5.6258
 20
9.8975
  0
VERTEX
  8
LAYER1
 62
     7
  6
CONTINUOUS
 10
5.6225
 20
9.8977
  0
VERTEX
  8
LAYER1
 62
     7
  6
CONTINUOUS
 10
5.6192
 20
9.8978
  0
VERTEX
  8
LAYER1
 62
     7
  6
CONTINUOUS
 10
5.6159
 20
9.8979
  0
VERTEX
  8
LAYER1
 62
     7
  6
CONTINUOUS
 10
5.6125
 20
9.8980
  0
VERTEX
  8
LAYER1
 62
     7
  6
CONTINUOUS
 10
5.6092
 20
9.8979
  0
VERTEX
  8
LAYER1
 62
     7
  6
CONTINUOUS
 10
5.6059
 20
9.8977
  0
VERTEX
  8
LAYER1
 62
     7
  6
CONTINUOUS
 10
5.6026
 20
9.8973
  0
VERTEX
  8
LAYER1
 62
     7
  6
CONTINUOUS
 10
5.5993
 20
9.8967
  0
VERTEX
  8
LAYER1
 62
     7
  6
CONTINUOUS
 10
5.5959
 20
9.8959
  0
VERTEX
  8
LAYER1
 62
     7
  6
CONTINUOUS
 10
5.5925
 20
9.8949
  0
VERTEX
  8
LAYER1
 62
     7
  6
CONTINUOUS
 10
5.5892
 20
9.8938
  0
VERTEX
  8
LAYER1
 62
     7
  6
CONTINUOUS
 10
5.5858
 20
9.8926
  0
VERTEX
  8
LAYER1
 62
     7
  6
CONTINUOUS
 10
5.5825
 20
9.8914
  0
VERTEX
  8
LAYER1
 62
     7
  6
CONTINUOUS
 10
5.5792
 20
9.8902
  0
VERTEX
  8
LAYER1
 62
     7
  6
CONTINUOUS
 10
5.5759
 20
9.8891
  0
VERTEX
  8
LAYER1
 62
     7
  6
CONTINUOUS
 10
5.5726
 20
9.8881
  0
VERTEX
  8
LAYER1
 62
     7
  6
CONTINUOUS
 10
5.5693
 20
9.8873
  0
VERTEX
  8
LAYER1
 62
     7
  6
CONTINUOUS
 10
5.5661
 20
9.8867
  0
VERTEX
  8
LAYER1
 62
     7
  6
CONTINUOUS
 10
5.5628
 20
9.8863
  0
VERTEX
  8
LAYER1
 62
     7
  6
CONTINUOUS
 10
5.5596
 20
9.8863
  0
VERTEX
  8
LAYER1
 62
     7
  6
CONTINUOUS
 10
5.5571
 20
9.8866
  0
VERTEX
  8
LAYER1
 62
     7
  6
CONTINUOUS
 10
5.5547
 20
9.8870
  0
VERTEX
  8
LAYER1
 62
     7
  6
CONTINUOUS
 10
5.5522
 20
9.8876
  0
VERTEX
  8
LAYER1
 62
     7
  6
CONTINUOUS
 10
5.5498
 20
9.8883
  0
VERTEX
  8
LAYER1
 62
     7
  6
CONTINUOUS
 10
5.5473
 20
9.8892
  0
VERTEX
  8
LAYER1
 62
     7
  6
CONTINUOUS
 10
5.5449
 20
9.8901
  0
VERTEX
  8
LAYER1
 62
     7
  6
CONTINUOUS
 10
5.5424
 20
9.8911
  0
VERTEX
  8
LAYER1
 62
     7
  6
CONTINUOUS
 10
5.5399
 20
9.8921
  0
VERTEX
  8
LAYER1
 62
     7
  6
CONTINUOUS
 10
5.5374
 20
9.8932
  0
VERTEX
  8
LAYER1
 62
     7
  6
CONTINUOUS
 10
5.5348
 20
9.8941
  0
VERTEX
  8
LAYER1
 62
     7
  6
CONTINUOUS
 10
5.5322
 20
9.8951
  0
VERTEX
  8
LAYER1
 62
     7
  6
CONTINUOUS
 10
5.5296
 20
9.8959
  0
VERTEX
  8
LAYER1
 62
     7
  6
CONTINUOUS
 10
5.5271
 20
9.8967
  0
VERTEX
  8
LAYER1
 62
     7
  6
CONTINUOUS
 10
5.5246
 20
9.8973
  0
VERTEX
  8
LAYER1
 62
     7
  6
CONTINUOUS
 10
5.5220
 20
9.8978
  0
VERTEX
  8
LAYER1
 62
     7
  6
CONTINUOUS
 10
5.5194
 20
9.8981
  0
VERTEX
  8
LAYER1
 62
     7
  6
CONTINUOUS
 10
5.5169
 20
9.8984
  0
VERTEX
  8
LAYER1
 62
     7
  6
CONTINUOUS
 10
5.5143
 20
9.8985
  0
VERTEX
  8
LAYER1
 62
     7
  6
CONTINUOUS
 10
5.5118
 20
9.8984
  0
VERTEX
  8
LAYER1
 62
     7
  6
CONTINUOUS
 10
5.5093
 20
9.8982
  0
VERTEX
  8
LAYER1
 62
     7
  6
CONTINUOUS
 10
5.5068
 20
9.8978
  0
VERTEX
  8
LAYER1
 62
     7
  6
CONTINUOUS
 10
5.5044
 20
9.8973
  0
VERTEX
  8
LAYER1
 62
     7
  6
CONTINUOUS
 10
5.5021
 20
9.8965
  0
VERTEX
  8
LAYER1
 62
     7
  6
CONTINUOUS
 10
5.4998
 20
9.8956
  0
VERTEX
  8
LAYER1
 62
     7
  6
CONTINUOUS
 10
5.4976
 20
9.8945
  0
VERTEX
  8
LAYER1
 62
     7
  6
CONTINUOUS
 10
5.4955
 20
9.8933
  0
VERTEX
  8
LAYER1
 62
     7
  6
CONTINUOUS
 10
5.4934
 20
9.8919
  0
VERTEX
  8
LAYER1
 62
     7
  6
CONTINUOUS
 10
5.4914
 20
9.8905
  0
VERTEX
  8
LAYER1
 62
     7
  6
CONTINUOUS
 10
5.4894
 20
9.8890
  0
VERTEX
  8
LAYER1
 62
     7
  6
CONTINUOUS
 10
5.4874
 20
9.8875
  0
VERTEX
  8
LAYER1
 62
     7
  6
CONTINUOUS
 10
5.4854
 20
9.8861
  0
VERTEX
  8
LAYER1
 62
     7
  6
CONTINUOUS
 10
5.4834
 20
9.8847
  0
VERTEX
  8
LAYER1
 62
     7
  6
CONTINUOUS
 10
5.4814
 20
9.8834
  0
VERTEX
  8
LAYER1
 62
     7
  6
CONTINUOUS
 10
5.4793
 20
9.8822
  0
VERTEX
  8
LAYER1
 62
     7
  6
CONTINUOUS
 10
5.4772
 20
9.8812
  0
VERTEX
  8
LAYER1
 62
     7
  6
CONTINUOUS
 10
5.4750
 20
9.8804
  0
VERTEX
  8
LAYER1
 62
     7
  6
CONTINUOUS
 10
5.4719
 20
9.8797
  0
VERTEX
  8
LAYER1
 62
     7
  6
CONTINUOUS
 10
5.4687
 20
9.8793
  0
VERTEX
  8
LAYER1
 62
     7
  6
CONTINUOUS
 10
5.4655
 20
9.8793
  0
VERTEX
  8
LAYER1
 62
     7
  6
CONTINUOUS
 10
5.4621
 20
9.8795
  0
VERTEX
  8
LAYER1
 62
     7
  6
CONTINUOUS
 10
5.4587
 20
9.8798
  0
VERTEX
  8
LAYER1
 62
     7
  6
CONTINUOUS
 10
5.4552
 20
9.8802
  0
VERTEX
  8
LAYER1
 62
     7
  6
CONTINUOUS
 10
5.4518
 20
9.8807
  0
VERTEX
  8
LAYER1
 62
     7
  6
CONTINUOUS
 10
5.4484
 20
9.8810
  0
VERTEX
  8
LAYER1
 62
     7
  6
CONTINUOUS
 10
5.4450
 20
9.8812
  0
VERTEX
  8
LAYER1
 62
     7
  6
CONTINUOUS
 10
5.4416
 20
9.8811
  0
VERTEX
  8
LAYER1
 62
     7
  6
CONTINUOUS
 10
5.4384
 20
9.8807
  0
VERTEX
  8
LAYER1
 62
     7
  6
CONTINUOUS
 10
5.4352
 20
9.8800
  0
VERTEX
  8
LAYER1
 62
     7
  6
CONTINUOUS
 10
5.4343
 20
9.8797
  0
VERTEX
  8
LAYER1
 62
     7
  6
CONTINUOUS
 10
5.4335
 20
9.8793
  0
VERTEX
  8
LAYER1
 62
     7
  6
CONTINUOUS
 10
5.4326
 20
9.8790
  0
VERTEX
  8
LAYER1
 62
     7
  6
CONTINUOUS
 10
5.4318
 20
9.8786
  0
VERTEX
  8
LAYER1
 62
     7
  6
CONTINUOUS
 10
5.4310
 20
9.8782
  0
VERTEX
  8
LAYER1
 62
     7
  6
CONTINUOUS
 10
5.4301
 20
9.8778
  0
VERTEX
  8
LAYER1
 62
     7
  6
CONTINUOUS
 10
5.4293
 20
9.8773
  0
VERTEX
  8
LAYER1
 62
     7
  6
CONTINUOUS
 10
5.4285
 20
9.8769
  0
VERTEX
  8
LAYER1
 62
     7
  6
CONTINUOUS
 10
5.4277
 20
9.8764
  0
VERTEX
  8
LAYER1
 62
     7
  6
CONTINUOUS
 10
5.4269
 20
9.8759
  0
VERTEX
  8
LAYER1
 62
     7
  6
CONTINUOUS
 10
5.4261
 20
9.8754
  0
VERTEX
  8
LAYER1
 62
     7
  6
CONTINUOUS
 10
5.4253
 20
9.8749
  0
VERTEX
  8
LAYER1
 62
     7
  6
CONTINUOUS
 10
5.4228
 20
9.8732
  0
VERTEX
  8
LAYER1
 62
     7
  6
CONTINUOUS
 10
5.4203
 20
9.8715
  0
VERTEX
  8
LAYER1
 62
     7
  6
CONTINUOUS
 10
5.4178
 20
9.8698
  0
VERTEX
  8
LAYER1
 62
     7
  6
CONTINUOUS
 10
5.4153
 20
9.8681
  0
VERTEX
  8
LAYER1
 62
     7
  6
CONTINUOUS
 10
5.4129
 20
9.8664
  0
VERTEX
  8
LAYER1
 62
     7
  6
CONTINUOUS
 10
5.4104
 20
9.8647
  0
VERTEX
  8
LAYER1
 62
     7
  6
CONTINUOUS
 10
5.4080
 20
9.8630
  0
VERTEX
  8
LAYER1
 62
     7
  6
CONTINUOUS
 10
5.4055
 20
9.8613
  0
VERTEX
  8
LAYER1
 62
     7
  6
CONTINUOUS
 10
5.4031
 20
9.8596
  0
VERTEX
  8
LAYER1
 62
     7
  6
CONTINUOUS
 10
5.4006
 20
9.8579
  0
VERTEX
  8
LAYER1
 62
     7
  6
CONTINUOUS
 10
5.3982
 20
9.8563
  0
VERTEX
  8
LAYER1
 62
     7
  6
CONTINUOUS
 10
5.3957
 20
9.8547
  0
VERTEX
  8
LAYER1
 62
     7
  6
CONTINUOUS
 10
5.3933
 20
9.8532
  0
VERTEX
  8
LAYER1
 62
     7
  6
CONTINUOUS
 10
5.3909
 20
9.8518
  0
VERTEX
  8
LAYER1
 62
     7
  6
CONTINUOUS
 10
5.3885
 20
9.8504
  0
VERTEX
  8
LAYER1
 62
     7
  6
CONTINUOUS
 10
5.3861
 20
9.8490
  0
VERTEX
  8
LAYER1
 62
     7
  6
CONTINUOUS
 10
5.3837
 20
9.8477
  0
VERTEX
  8
LAYER1
 62
     7
  6
CONTINUOUS
 10
5.3812
 20
9.8464
  0
VERTEX
  8
LAYER1
 62
     7
  6
CONTINUOUS
 10
5.3787
 20
9.8452
  0
VERTEX
  8
LAYER1
 62
     7
  6
CONTINUOUS
 10
5.3762
 20
9.8440
  0
VERTEX
  8
LAYER1
 62
     7
  6
CONTINUOUS
 10
5.3737
 20
9.8428
  0
VERTEX
  8
LAYER1
 62
     7
  6
CONTINUOUS
 10
5.3711
 20
9.8416
  0
VERTEX
  8
LAYER1
 62
     7
  6
CONTINUOUS
 10
5.3686
 20
9.8405
  0
VERTEX
  8
LAYER1
 62
     7
  6
CONTINUOUS
 10
5.3660
 20
9.8394
  0
VERTEX
  8
LAYER1
 62
     7
  6
CONTINUOUS
 10
5.3616
 20
9.8376
  0
VERTEX
  8
LAYER1
 62
     7
  6
CONTINUOUS
 10
5.3572
 20
9.8359
  0
VERTEX
  8
LAYER1
 62
     7
  6
CONTINUOUS
 10
5.3528
 20
9.8341
  0
VERTEX
  8
LAYER1
 62
     7
  6
CONTINUOUS
 10
5.3484
 20
9.8324
  0
VERTEX
  8
LAYER1
 62
     7
  6
CONTINUOUS
 10
5.3440
 20
9.8306
  0
VERTEX
  8
LAYER1
 62
     7
  6
CONTINUOUS
 10
5.3397
 20
9.8287
  0
VERTEX
  8
LAYER1
 62
     7
  6
CONTINUOUS
 10
5.3355
 20
9.8267
  0
VERTEX
  8
LAYER1
 62
     7
  6
CONTINUOUS
 10
5.3314
 20
9.8246
  0
SEQEND
  8
LAYER1
  0
POLYLINE
  8
LAYER1
 62
     7
 66
     1
  6
CONTINUOUS
  0
VERTEX
  8
LAYER1
 62
     7
  6
CONTINUOUS
 10
5.3314
 20
9.8246
  0
VERTEX
  8
LAYER1
 62
     7
  6
CONTINUOUS
 10
5.3274
 20
9.8223
  0
VERTEX
  8
LAYER1
 62
     7
  6
CONTINUOUS
 10
5.3236
 20
9.8197
  0
VERTEX
  8
LAYER1
 62
     7
  6
CONTINUOUS
 10
5.3199
 20
9.8170
  0
VERTEX
  8
LAYER1
 62
     7
  6
CONTINUOUS
 10
5.3165
 20
9.8139
  0
VERTEX
  8
LAYER1
 62
     7
  6
CONTINUOUS
 10
5.3146
 20
9.8121
  0
VERTEX
  8
LAYER1
 62
     7
  6
CONTINUOUS
 10
5.3127
 20
9.8101
  0
VERTEX
  8
LAYER1
 62
     7
  6
CONTINUOUS
 10
5.3110
 20
9.8081
  0
VERTEX
  8
LAYER1
 62
     7
  6
CONTINUOUS
 10
5.3093
 20
9.8060
  0
VERTEX
  8
LAYER1
 62
     7
  6
CONTINUOUS
 10
5.3076
 20
9.8039
  0
VERTEX
  8
LAYER1
 62
     7
  6
CONTINUOUS
 10
5.3060
 20
9.8017
  0
VERTEX
  8
LAYER1
 62
     7
  6
CONTINUOUS
 10
5.3044
 20
9.7995
  0
VERTEX
  8
LAYER1
 62
     7
  6
CONTINUOUS
 10
5.3028
 20
9.7974
  0
VERTEX
  8
LAYER1
 62
     7
  6
CONTINUOUS
 10
5.3013
 20
9.7952
  0
VERTEX
  8
LAYER1
 62
     7
  6
CONTINUOUS
 10
5.2998
 20
9.7930
  0
VERTEX
  8
LAYER1
 62
     7
  6
CONTINUOUS
 10
5.2983
 20
9.7909
  0
VERTEX
  8
LAYER1
 62
     7
  6
CONTINUOUS
 10
5.2968
 20
9.7888
  0
VERTEX
  8
LAYER1
 62
     7
  6
CONTINUOUS
 10
5.2955
 20
9.7870
  0
VERTEX
  8
LAYER1
 62
     7
  6
CONTINUOUS
 10
5.2941
 20
9.7852
  0
VERTEX
  8
LAYER1
 62
     7
  6
CONTINUOUS
 10
5.2928
 20
9.7834
  0
VERTEX
  8
LAYER1
 62
     7
  6
CONTINUOUS
 10
5.2915
 20
9.7816
  0
VERTEX
  8
LAYER1
 62
     7
  6
CONTINUOUS
 10
5.2902
 20
9.7797
  0
VERTEX
  8
LAYER1
 62
     7
  6
CONTINUOUS
 10
5.2889
 20
9.7778
  0
VERTEX
  8
LAYER1
 62
     7
  6
CONTINUOUS
 10
5.2877
 20
9.7758
  0
VERTEX
  8
LAYER1
 62
     7
  6
CONTINUOUS
 10
5.2865
 20
9.7737
  0
VERTEX
  8
LAYER1
 62
     7
  6
CONTINUOUS
 10
5.2853
 20
9.7715
  0
VERTEX
  8
LAYER1
 62
     7
  6
CONTINUOUS
 10
5.2842
 20
9.7691
  0
VERTEX
  8
LAYER1
 62
     7
  6
CONTINUOUS
 10
5.2832
 20
9.7665
  0
VERTEX
  8
LAYER1
 62
     7
  6
CONTINUOUS
 10
5.2822
 20
9.7638
  0
VERTEX
  8
LAYER1
 62
     7
  6
CONTINUOUS
 10
5.2815
 20
9.7617
  0
VERTEX
  8
LAYER1
 62
     7
  6
CONTINUOUS
 10
5.2808
 20
9.7596
  0
VERTEX
  8
LAYER1
 62
     7
  6
CONTINUOUS
 10
5.2803
 20
9.7574
  0
VERTEX
  8
LAYER1
 62
     7
  6
CONTINUOUS
 10
5.2797
 20
9.7553
  0
VERTEX
  8
LAYER1
 62
     7
  6
CONTINUOUS
 10
5.2792
 20
9.7532
  0
VERTEX
  8
LAYER1
 62
     7
  6
CONTINUOUS
 10
5.2787
 20
9.7512
  0
VERTEX
  8
LAYER1
 62
     7
  6
CONTINUOUS
 10
5.2783
 20
9.7493
  0
VERTEX
  8
LAYER1
 62
     7
  6
CONTINUOUS
 10
5.2780
 20
9.7477
  0
VERTEX
  8
LAYER1
 62
     7
  6
CONTINUOUS
 10
5.2777
 20
9.7463
  0
VERTEX
  8
LAYER1
 62
     7
  6
CONTINUOUS
 10
5.2776
 20
9.7451
  0
VERTEX
  8
LAYER1
 62
     7
  6
CONTINUOUS
 10
5.2774
 20
9.7443
  0
VERTEX
  8
LAYER1
 62
     7
  6
CONTINUOUS
 10
5.2774
 20
9.7438
  0
VERTEX
  8
LAYER1
 62
     7
  6
CONTINUOUS
 10
5.2774
 20
9.7438
  0
VERTEX
  8
LAYER1
 62
     7
  6
CONTINUOUS
 10
5.2774
 20
9.7437
  0
VERTEX
  8
LAYER1
 62
     7
  6
CONTINUOUS
 10
5.2774
 20
9.7437
  0
VERTEX
  8
LAYER1
 62
     7
  6
CONTINUOUS
 10
5.2774
 20
9.7437
  0
VERTEX
  8
LAYER1
 62
     7
  6
CONTINUOUS
 10
5.2774
 20
9.7437
  0
VERTEX
  8
LAYER1
 62
     7
  6
CONTINUOUS
 10
5.2774
 20
9.7437
  0
VERTEX
  8
LAYER1
 62
     7
  6
CONTINUOUS
 10
5.2774
 20
9.7437
  0
VERTEX
  8
LAYER1
 62
     7
  6
CONTINUOUS
 10
5.2774
 20
9.7437
  0
VERTEX
  8
LAYER1
 62
     7
  6
CONTINUOUS
 10
5.2774
 20
9.7438
  0
VERTEX
  8
LAYER1
 62
     7
  6
CONTINUOUS
 10
5.2774
 20
9.7438
  0
VERTEX
  8
LAYER1
 62
     7
  6
CONTINUOUS
 10
5.2774
 20
9.7438
  0
VERTEX
  8
LAYER1
 62
     7
  6
CONTINUOUS
 10
5.2774
 20
9.7438
  0
VERTEX
  8
LAYER1
 62
     7
  6
CONTINUOUS
 10
5.2769
 20
9.7437
  0
VERTEX
  8
LAYER1
 62
     7
  6
CONTINUOUS
 10
5.2759
 20
9.7431
  0
VERTEX
  8
LAYER1
 62
     7
  6
CONTINUOUS
 10
5.2744
 20
9.7422
  0
VERTEX
  8
LAYER1
 62
     7
  6
CONTINUOUS
 10
5.2725
 20
9.7410
  0
VERTEX
  8
LAYER1
 62
     7
  6
CONTINUOUS
 10
5.2703
 20
9.7395
  0
VERTEX
  8
LAYER1
 62
     7
  6
CONTINUOUS
 10
5.2677
 20
9.7377
  0
VERTEX
  8
LAYER1
 62
     7
  6
CONTINUOUS
 10
5.2648
 20
9.7357
  0
VERTEX
  8
LAYER1
 62
     7
  6
CONTINUOUS
 10
5.2616
 20
9.7335
  0
VERTEX
  8
LAYER1
 62
     7
  6
CONTINUOUS
 10
5.2583
 20
9.7311
  0
VERTEX
  8
LAYER1
 62
     7
  6
CONTINUOUS
 10
5.2549
 20
9.7287
  0
VERTEX
  8
LAYER1
 62
     7
  6
CONTINUOUS
 10
5.2513
 20
9.7261
  0
VERTEX
  8
LAYER1
 62
     7
  6
CONTINUOUS
 10
5.2478
 20
9.7236
  0
SEQEND
  8
LAYER1
  0
POLYLINE
  8
LAYER1
 62
     7
 66
     1
  6
CONTINUOUS
  0
VERTEX
  8
LAYER1
 62
     7
  6
CONTINUOUS
 10
5.7200
 20
9.7885
  0
VERTEX
  8
LAYER1
 62
     7
  6
CONTINUOUS
 10
5.7200
 20
9.7874
  0
VERTEX
  8
LAYER1
 62
     7
  6
CONTINUOUS
 10
5.7199
 20
9.7863
  0
VERTEX
  8
LAYER1
 62
     7
  6
CONTINUOUS
 10
5.7196
 20
9.7851
  0
VERTEX
  8
LAYER1
 62
     7
  6
CONTINUOUS
 10
5.7192
 20
9.7839
  0
VERTEX
  8
LAYER1
 62
     7
  6
CONTINUOUS
 10
5.7187
 20
9.7827
  0
VERTEX
  8
LAYER1
 62
     7
  6
CONTINUOUS
 10
5.7182
 20
9.7815
  0
VERTEX
  8
LAYER1
 62
     7
  6
CONTINUOUS
 10
5.7176
 20
9.7802
  0
VERTEX
  8
LAYER1
 62
     7
  6
CONTINUOUS
 10
5.7170
 20
9.7789
  0
VERTEX
  8
LAYER1
 62
     7
  6
CONTINUOUS
 10
5.7164
 20
9.7776
  0
VERTEX
  8
LAYER1
 62
     7
  6
CONTINUOUS
 10
5.7159
 20
9.7762
  0
VERTEX
  8
LAYER1
 62
     7
  6
CONTINUOUS
 10
5.7155
 20
9.7749
  0
VERTEX
  8
LAYER1
 62
     7
  6
CONTINUOUS
 10
5.7152
 20
9.7735
  0
VERTEX
  8
LAYER1
 62
     7
  6
CONTINUOUS
 10
5.7150
 20
9.7722
  0
VERTEX
  8
LAYER1
 62
     7
  6
CONTINUOUS
 10
5.7149
 20
9.7709
  0
VERTEX
  8
LAYER1
 62
     7
  6
CONTINUOUS
 10
5.7150
 20
9.7696
  0
VERTEX
  8
LAYER1
 62
     7
  6
CONTINUOUS
 10
5.7151
 20
9.7683
  0
VERTEX
  8
LAYER1
 62
     7
  6
CONTINUOUS
 10
5.7152
 20
9.7670
  0
VERTEX
  8
LAYER1
 62
     7
  6
CONTINUOUS
 10
5.7154
 20
9.7658
  0
VERTEX
  8
LAYER1
 62
     7
  6
CONTINUOUS
 10
5.7155
 20
9.7645
  0
VERTEX
  8
LAYER1
 62
     7
  6
CONTINUOUS
 10
5.7156
 20
9.7633
  0
VERTEX
  8
LAYER1
 62
     7
  6
CONTINUOUS
 10
5.7157
 20
9.7620
  0
VERTEX
  8
LAYER1
 62
     7
  6
CONTINUOUS
 10
5.7157
 20
9.7609
  0
VERTEX
  8
LAYER1
 62
     7
  6
CONTINUOUS
 10
5.7156
 20
9.7597
  0
VERTEX
  8
LAYER1
 62
     7
  6
CONTINUOUS
 10
5.7153
 20
9.7586
  0
VERTEX
  8
LAYER1
 62
     7
  6
CONTINUOUS
 10
5.7150
 20
9.7576
  0
VERTEX
  8
LAYER1
 62
     7
  6
CONTINUOUS
 10
5.7145
 20
9.7566
  0
VERTEX
  8
LAYER1
 62
     7
  6
CONTINUOUS
 10
5.7140
 20
9.7557
  0
VERTEX
  8
LAYER1
 62
     7
  6
CONTINUOUS
 10
5.7133
 20
9.7548
  0
VERTEX
  8
LAYER1
 62
     7
  6
CONTINUOUS
 10
5.7125
 20
9.7539
  0
VERTEX
  8
LAYER1
 62
     7
  6
CONTINUOUS
 10
5.7117
 20
9.7531
  0
VERTEX
  8
LAYER1
 62
     7
  6
CONTINUOUS
 10
5.7108
 20
9.7522
  0
VERTEX
  8
LAYER1
 62
     7
  6
CONTINUOUS
 10
5.7098
 20
9.7515
  0
VERTEX
  8
LAYER1
 62
     7
  6
CONTINUOUS
 10
5.7088
 20
9.7507
  0
VERTEX
  8
LAYER1
 62
     7
  6
CONTINUOUS
 10
5.7077
 20
9.7500
  0
VERTEX
  8
LAYER1
 62
     7
  6
CONTINUOUS
 10
5.7066
 20
9.7492
  0
VERTEX
  8
LAYER1
 62
     7
  6
CONTINUOUS
 10
5.7055
 20
9.7485
  0
VERTEX
  8
LAYER1
 62
     7
  6
CONTINUOUS
 10
5.7038
 20
9.7475
  0
VERTEX
  8
LAYER1
 62
     7
  6
CONTINUOUS
 10
5.7021
 20
9.7465
  0
VERTEX
  8
LAYER1
 62
     7
  6
CONTINUOUS
 10
5.7004
 20
9.7455
  0
VERTEX
  8
LAYER1
 62
     7
  6
CONTINUOUS
 10
5.6988
 20
9.7445
  0
VERTEX
  8
LAYER1
 62
     7
  6
CONTINUOUS
 10
5.6973
 20
9.7435
  0
VERTEX
  8
LAYER1
 62
     7
  6
CONTINUOUS
 10
5.6958
 20
9.7424
  0
VERTEX
  8
LAYER1
 62
     7
  6
CONTINUOUS
 10
5.6945
 20
9.7412
  0
VERTEX
  8
LAYER1
 62
     7
  6
CONTINUOUS
 10
5.6933
 20
9.7399
  0
VERTEX
  8
LAYER1
 62
     7
  6
CONTINUOUS
 10
5.6923
 20
9.7385
  0
VERTEX
  8
LAYER1
 62
     7
  6
CONTINUOUS
 10
5.6916
 20
9.7370
  0
VERTEX
  8
LAYER1
 62
     7
  6
CONTINUOUS
 10
5.6910
 20
9.7353
  0
VERTEX
  8
LAYER1
 62
     7
  6
CONTINUOUS
 10
5.6907
 20
9.7334
  0
VERTEX
  8
LAYER1
 62
     7
  6
CONTINUOUS
 10
5.6907
 20
9.7325
  0
VERTEX
  8
LAYER1
 62
     7
  6
CONTINUOUS
 10
5.6907
 20
9.7315
  0
VERTEX
  8
LAYER1
 62
     7
  6
CONTINUOUS
 10
5.6907
 20
9.7305
  0
VERTEX
  8
LAYER1
 62
     7
  6
CONTINUOUS
 10
5.6908
 20
9.7296
  0
VERTEX
  8
LAYER1
 62
     7
  6
CONTINUOUS
 10
5.6909
 20
9.7286
  0
VERTEX
  8
LAYER1
 62
     7
  6
CONTINUOUS
 10
5.6910
 20
9.7277
  0
VERTEX
  8
LAYER1
 62
     7
  6
CONTINUOUS
 10
5.6910
 20
9.7268
  0
VERTEX
  8
LAYER1
 62
     7
  6
CONTINUOUS
 10
5.6911
 20
9.7259
  0
VERTEX
  8
LAYER1
 62
     7
  6
CONTINUOUS
 10
5.6911
 20
9.7252
  0
VERTEX
  8
LAYER1
 62
     7
  6
CONTINUOUS
 10
5.6911
 20
9.7245
  0
VERTEX
  8
LAYER1
 62
     7
  6
CONTINUOUS
 10
5.6910
 20
9.7239
  0
VERTEX
  8
LAYER1
 62
     7
  6
CONTINUOUS
 10
5.6908
 20
9.7235
  0
VERTEX
  8
LAYER1
 62
     7
  6
CONTINUOUS
 10
5.6903
 20
9.7230
  0
VERTEX
  8
LAYER1
 62
     7
  6
CONTINUOUS
 10
5.6896
 20
9.7229
  0
VERTEX
  8
LAYER1
 62
     7
  6
CONTINUOUS
 10
5.6887
 20
9.7231
  0
VERTEX
  8
LAYER1
 62
     7
  6
CONTINUOUS
 10
5.6876
 20
9.7237
  0
VERTEX
  8
LAYER1
 62
     7
  6
CONTINUOUS
 10
5.6863
 20
9.7244
  0
VERTEX
  8
LAYER1
 62
     7
  6
CONTINUOUS
 10
5.6849
 20
9.7254
  0
VERTEX
  8
LAYER1
 62
     7
  6
CONTINUOUS
 10
5.6835
 20
9.7266
  0
VERTEX
  8
LAYER1
 62
     7
  6
CONTINUOUS
 10
5.6819
 20
9.7279
  0
VERTEX
  8
LAYER1
 62
     7
  6
CONTINUOUS
 10
5.6804
 20
9.7292
  0
VERTEX
  8
LAYER1
 62
     7
  6
CONTINUOUS
 10
5.6788
 20
9.7306
  0
VERTEX
  8
LAYER1
 62
     7
  6
CONTINUOUS
 10
5.6773
 20
9.7320
  0
VERTEX
  8
LAYER1
 62
     7
  6
CONTINUOUS
 10
5.6758
 20
9.7333
  0
VERTEX
  8
LAYER1
 62
     7
  6
CONTINUOUS
 10
5.6747
 20
9.7342
  0
VERTEX
  8
LAYER1
 62
     7
  6
CONTINUOUS
 10
5.6736
 20
9.7351
  0
VERTEX
  8
LAYER1
 62
     7
  6
CONTINUOUS
 10
5.6726
 20
9.7360
  0
VERTEX
  8
LAYER1
 62
     7
  6
CONTINUOUS
 10
5.6717
 20
9.7368
  0
VERTEX
  8
LAYER1
 62
     7
  6
CONTINUOUS
 10
5.6708
 20
9.7376
  0
VERTEX
  8
LAYER1
 62
     7
  6
CONTINUOUS
 10
5.6699
 20
9.7384
  0
VERTEX
  8
LAYER1
 62
     7
  6
CONTINUOUS
 10
5.6691
 20
9.7391
  0
VERTEX
  8
LAYER1
 62
     7
  6
CONTINUOUS
 10
5.6684
 20
9.7399
  0
VERTEX
  8
LAYER1
 62
     7
  6
CONTINUOUS
 10
5.6676
 20
9.7407
  0
VERTEX
  8
LAYER1
 62
     7
  6
CONTINUOUS
 10
5.6670
 20
9.7415
  0
VERTEX
  8
LAYER1
 62
     7
  6
CONTINUOUS
 10
5.6663
 20
9.7423
  0
VERTEX
  8
LAYER1
 62
     7
  6
CONTINUOUS
 10
5.6657
 20
9.7431
  0
VERTEX
  8
LAYER1
 62
     7
  6
CONTINUOUS
 10
5.6649
 20
9.7444
  0
VERTEX
  8
LAYER1
 62
     7
  6
CONTINUOUS
 10
5.6642
 20
9.7458
  0
VERTEX
  8
LAYER1
 62
     7
  6
CONTINUOUS
 10
5.6635
 20
9.7473
  0
VERTEX
  8
LAYER1
 62
     7
  6
CONTINUOUS
 10
5.6630
 20
9.7489
  0
VERTEX
  8
LAYER1
 62
     7
  6
CONTINUOUS
 10
5.6625
 20
9.7505
  0
VERTEX
  8
LAYER1
 62
     7
  6
CONTINUOUS
 10
5.6620
 20
9.7522
  0
VERTEX
  8
LAYER1
 62
     7
  6
CONTINUOUS
 10
5.6616
 20
9.7539
  0
VERTEX
  8
LAYER1
 62
     7
  6
CONTINUOUS
 10
5.6613
 20
9.7556
  0
VERTEX
  8
LAYER1
 62
     7
  6
CONTINUOUS
 10
5.6610
 20
9.7574
  0
VERTEX
  8
LAYER1
 62
     7
  6
CONTINUOUS
 10
5.6608
 20
9.7593
  0
VERTEX
  8
LAYER1
 62
     7
  6
CONTINUOUS
 10
5.6606
 20
9.7611
  0
VERTEX
  8
LAYER1
 62
     7
  6
CONTINUOUS
 10
5.6605
 20
9.7630
  0
VERTEX
  8
LAYER1
 62
     7
  6
CONTINUOUS
 10
5.6604
 20
9.7648
  0
VERTEX
  8
LAYER1
 62
     7
  6
CONTINUOUS
 10
5.6604
 20
9.7667
  0
VERTEX
  8
LAYER1
 62
     7
  6
CONTINUOUS
 10
5.6605
 20
9.7685
  0
VERTEX
  8
LAYER1
 62
     7
  6
CONTINUOUS
 10
5.6606
 20
9.7704
  0
VERTEX
  8
LAYER1
 62
     7
  6
CONTINUOUS
 10
5.6608
 20
9.7721
  0
VERTEX
  8
LAYER1
 62
     7
  6
CONTINUOUS
 10
5.6611
 20
9.7739
  0
VERTEX
  8
LAYER1
 62
     7
  6
CONTINUOUS
 10
5.6614
 20
9.7756
  0
VERTEX
  8
LAYER1
 62
     7
  6
CONTINUOUS
 10
5.6619
 20
9.7772
  0
VERTEX
  8
LAYER1
 62
     7
  6
CONTINUOUS
 10
5.6626
 20
9.7788
  0
VERTEX
  8
LAYER1
 62
     7
  6
CONTINUOUS
 10
5.6633
 20
9.7803
  0
VERTEX
  8
LAYER1
 62
     7
  6
CONTINUOUS
 10
5.6642
 20
9.7816
  0
VERTEX
  8
LAYER1
 62
     7
  6
CONTINUOUS
 10
5.6653
 20
9.7829
  0
VERTEX
  8
LAYER1
 62
     7
  6
CONTINUOUS
 10
5.6659
 20
9.7836
  0
VERTEX
  8
LAYER1
 62
     7
  6
CONTINUOUS
 10
5.6666
 20
9.7842
  0
VERTEX
  8
LAYER1
 62
     7
  6
CONTINUOUS
 10
5.6673
 20
9.7848
  0
VERTEX
  8
LAYER1
 62
     7
  6
CONTINUOUS
 10
5.6681
 20
9.7853
  0
VERTEX
  8
LAYER1
 62
     7
  6
CONTINUOUS
 10
5.6689
 20
9.7858
  0
VERTEX
  8
LAYER1
 62
     7
  6
CONTINUOUS
 10
5.6697
 20
9.7863
  0
VERTEX
  8
LAYER1
 62
     7
  6
CONTINUOUS
 10
5.6706
 20
9.7867
  0
VERTEX
  8
LAYER1
 62
     7
  6
CONTINUOUS
 10
5.6714
 20
9.7871
  0
VERTEX
  8
LAYER1
 62
     7
  6
CONTINUOUS
 10
5.6724
 20
9.7874
  0
VERTEX
  8
LAYER1
 62
     7
  6
CONTINUOUS
 10
5.6733
 20
9.7877
  0
VERTEX
  8
LAYER1
 62
     7
  6
CONTINUOUS
 10
5.6742
 20
9.7879
  0
VERTEX
  8
LAYER1
 62
     7
  6
CONTINUOUS
 10
5.6752
 20
9.7880
  0
VERTEX
  8
LAYER1
 62
     7
  6
CONTINUOUS
 10
5.6774
 20
9.7882
  0
VERTEX
  8
LAYER1
 62
     7
  6
CONTINUOUS
 10
5.6796
 20
9.7881
  0
VERTEX
  8
LAYER1
 62
     7
  6
CONTINUOUS
 10
5.6818
 20
9.7878
  0
VERTEX
  8
LAYER1
 62
     7
  6
CONTINUOUS
 10
5.6840
 20
9.7874
  0
VERTEX
  8
LAYER1
 62
     7
  6
CONTINUOUS
 10
5.6863
 20
9.7870
  0
VERTEX
  8
LAYER1
 62
     7
  6
CONTINUOUS
 10
5.6885
 20
9.7866
  0
VERTEX
  8
LAYER1
 62
     7
  6
CONTINUOUS
 10
5.6906
 20
9.7863
  0
VERTEX
  8
LAYER1
 62
     7
  6
CONTINUOUS
 10
5.6927
 20
9.7861
  0
VERTEX
  8
LAYER1
 62
     7
  6
CONTINUOUS
 10
5.6947
 20
9.7862
  0
VERTEX
  8
LAYER1
 62
     7
  6
CONTINUOUS
 10
5.6966
 20
9.7865
  0
VERTEX
  8
LAYER1
 62
     7
  6
CONTINUOUS
 10
5.6984
 20
9.7872
  0
VERTEX
  8
LAYER1
 62
     7
  6
CONTINUOUS
 10
5.7001
 20
9.7883
  0
VERTEX
  8
LAYER1
 62
     7
  6
CONTINUOUS
 10
5.7010
 20
9.7891
  0
VERTEX
  8
LAYER1
 62
     7
  6
CONTINUOUS
 10
5.7018
 20
9.7900
  0
VERTEX
  8
LAYER1
 62
     7
  6
CONTINUOUS
 10
5.7026
 20
9.7910
  0
VERTEX
  8
LAYER1
 62
     7
  6
CONTINUOUS
 10
5.7034
 20
9.7921
  0
VERTEX
  8
LAYER1
 62
     7
  6
CONTINUOUS
 10
5.7042
 20
9.7932
  0
VERTEX
  8
LAYER1
 62
     7
  6
CONTINUOUS
 10
5.7049
 20
9.7942
  0
VERTEX
  8
LAYER1
 62
     7
  6
CONTINUOUS
 10
5.7057
 20
9.7952
  0
VERTEX
  8
LAYER1
 62
     7
  6
CONTINUOUS
 10
5.7065
 20
9.7962
  0
VERTEX
  8
LAYER1
 62
     7
  6
CONTINUOUS
 10
5.7073
 20
9.7970
  0
VERTEX
  8
LAYER1
 62
     7
  6
CONTINUOUS
 10
5.7081
 20
9.7976
  0
VERTEX
  8
LAYER1
 62
     7
  6
CONTINUOUS
 10
5.7090
 20
9.7981
  0
VERTEX
  8
LAYER1
 62
     7
  6
CONTINUOUS
 10
5.7099
 20
9.7984
  0
VERTEX
  8
LAYER1
 62
     7
  6
CONTINUOUS
 10
5.7109
 20
9.7984
  0
VERTEX
  8
LAYER1
 62
     7
  6
CONTINUOUS
 10
5.7119
 20
9.7982
  0
VERTEX
  8
LAYER1
 62
     7
  6
CONTINUOUS
 10
5.7129
 20
9.7977
  0
VERTEX
  8
LAYER1
 62
     7
  6
CONTINUOUS
 10
5.7139
 20
9.7971
  0
VERTEX
  8
LAYER1
 62
     7
  6
CONTINUOUS
 10
5.7149
 20
9.7964
  0
VERTEX
  8
LAYER1
 62
     7
  6
CONTINUOUS
 10
5.7159
 20
9.7955
  0
VERTEX
  8
LAYER1
 62
     7
  6
CONTINUOUS
 10
5.7168
 20
9.7945
  0
VERTEX
  8
LAYER1
 62
     7
  6
CONTINUOUS
 10
5.7176
 20
9.7934
  0
VERTEX
  8
LAYER1
 62
     7
  6
CONTINUOUS
 10
5.7184
 20
9.7922
  0
VERTEX
  8
LAYER1
 62
     7
  6
CONTINUOUS
 10
5.7190
 20
9.7910
  0
VERTEX
  8
LAYER1
 62
     7
  6
CONTINUOUS
 10
5.7196
 20
9.7897
  0
VERTEX
  8
LAYER1
 62
     7
  6
CONTINUOUS
 10
5.7200
 20
9.7885
  0
SEQEND
  8
LAYER1
  0
CIRCLE
  8
LAYER1
 62
     7
  6
CONTINUOUS
 10
5.8917
 20
9.7879
 40
0.0079
  0
CIRCLE
  8
LAYER1
 62
     7
  6
CONTINUOUS
 10
5.4811
 20
9.7834
 40
0.0124
  0
CIRCLE
  8
LAYER1
 62
     7
  6
CONTINUOUS
 10
5.5728
 20
9.8168
 40
0.0090
  0
CIRCLE
  8
LAYER1
 62
     7
  6
CONTINUOUS
 10
5.5806
 20
9.7845
 40
0.0174
  0
CIRCLE
  8
LAYER1
 62
     7
  6
CONTINUOUS
 10
5.5434
 20
9.7716
 40
0.0075
  0
CIRCLE
  8
LAYER1
 62
     7
  6
CONTINUOUS
 10
5.5314
 20
9.7317
 40
0.0149
  0
CIRCLE
  8
LAYER1
 62
     7
  6
CONTINUOUS
 10
5.5369
 20
9.6919
 40
0.0157
  0
CIRCLE
  8
LAYER1
 62
     7
  6
CONTINUOUS
 10
5.6826
 20
9.5641
 40
0.0141
  0
CIRCLE
  8
LAYER1
 62
     7
  6
CONTINUOUS
 10
5.6846
 20
9.6139
 40
0.0103
  0
CIRCLE
  8
LAYER1
 62
     7
  6
CONTINUOUS
 10
5.7446
 20
9.5897
 40
0.0152
  0
CIRCLE
  8
LAYER1
 62
     7
  6
CONTINUOUS
 10
5.8552
 20
9.7178
 40
0.0124
  0
CIRCLE
  8
LAYER1
 62
     7
  6
CONTINUOUS
 10
5.9705
 20
9.6469
 40
0.0100
  0
CIRCLE
  8
LAYER1
 62
     7
  6
CONTINUOUS
 10
5.4207
 20
9.6110
 40
0.0103
  0
ARC
  8
LAYER1
 62
     7
  6
CONTINUOUS
 10
6.0344
 20
9.4933
 40
0.0250
 50
96.3544
 51
107.0007
  0
ARC
  8
LAYER1
 62
     7
  6
CONTINUOUS
 10
6.0344
 20
9.4933
 40
0.0250
 50
55.6428
 51
72.9994
  0
ARC
  8
LAYER1
 62
     7
  6
CONTINUOUS
 10
6.0344
 20
9.4933
 40
0.0250
 50
72.9994
 51
96.3552
  0
ARC
  8
LAYER1
 62
     7
  6
CONTINUOUS
 10
5.2425
 20
9.5269
 40
0.0190
 50
157.4357
 51
-149.3322
  0
ARC
  8
LAYER1
 62
     7
  6
CONTINUOUS
 10
5.2425
 20
9.5269
 40
0.0190
 50
-43.0529
 51
-30.6696
  0
ARC
  8
LAYER1
 62
     7
  6
CONTINUOUS
 10
5.2425
 20
9.5269
 40
0.0190
 50
-30.6699
 51
157.4358
  0
ARC
  8
LAYER1
 62
     7
  6
CONTINUOUS
 10
5.6730
 20
9.5316
 40
0.0224
 50
90.6314
 51
-139.9858
  0
ARC
  8
LAYER1
 62
     7
  6
CONTINUOUS
 10
5.6730
 20
9.5316
 40
0.0224
 50
-52.0808
 51
-40.0142
  0
ARC
  8
LAYER1
 62
     7
  6
CONTINUOUS
 10
5.8105
 20
9.4833
 40
0.0347
 50
61.9202
 51
77.6064
  0
ARC
  8
LAYER1
 62
     7
  6
CONTINUOUS
 10
5.8105
 20
9.4833
 40
0.0347
 50
77.6057
 51
102.3958
  0
ARC
  8
LAYER1
 62
     7
  6
CONTINUOUS
 10
5.8105
 20
9.4833
 40
0.0347
 50
102.3958
 51
111.6839
  0
ARC
  8
LAYER1
 62
     7
  6
CONTINUOUS
 10
5.8349
 20
9.5284
 40
0.0190
 50
67.4349
 51
-143.6825
  0
ARC
  8
LAYER1
 62
     7
  6
CONTINUOUS
 10
5.8349
 20
9.5284
 40
0.0190
 50
-49.8859
 51
-36.3158
  0
ARC
  8
LAYER1
 62
     7
  6
CONTINUOUS
 10
5.8996
 20
9.5267
 40
0.0200
 50
83.5092
 51
-151.8563
  0
ARC
  8
LAYER1
 62
     7
  6
CONTINUOUS
 10
5.8996
 20
9.5267
 40
0.0201
 50
-39.4059
 51
-28.1465
  0
POLYLINE
  8
LAYER1
 62
     7
 66
     1
  6
CONTINUOUS
  0
VERTEX
  8
LAYER1
 62
     7
  6
CONTINUOUS
 10
5.8545
 20
9.7751
  0
VERTEX
  8
LAYER1
 62
     7
  6
CONTINUOUS
 10
5.8545
 20
9.7763
  0
VERTEX
  8
LAYER1
 62
     7
  6
CONTINUOUS
 10
5.8545
 20
9.7774
  0
VERTEX
  8
LAYER1
 62
     7
  6
CONTINUOUS
 10
5.8545
 20
9.7786
  0
VERTEX
  8
LAYER1
 62
     7
  6
CONTINUOUS
 10
5.8544
 20
9.7798
  0
VERTEX
  8
LAYER1
 62
     7
  6
CONTINUOUS
 10
5.8544
 20
9.7811
  0
VERTEX
  8
LAYER1
 62
     7
  6
CONTINUOUS
 10
5.8544
 20
9.7823
  0
VERTEX
  8
LAYER1
 62
     7
  6
CONTINUOUS
 10
5.8544
 20
9.7835
  0
VERTEX
  8
LAYER1
 62
     7
  6
CONTINUOUS
 10
5.8544
 20
9.7848
  0
VERTEX
  8
LAYER1
 62
     7
  6
CONTINUOUS
 10
5.8544
 20
9.7860
  0
VERTEX
  8
LAYER1
 62
     7
  6
CONTINUOUS
 10
5.8544
 20
9.7873
  0
VERTEX
  8
LAYER1
 62
     7
  6
CONTINUOUS
 10
5.8544
 20
9.7887
  0
VERTEX
  8
LAYER1
 62
     7
  6
CONTINUOUS
 10
5.8544
 20
9.7900
  0
VERTEX
  8
LAYER1
 62
     7
  6
CONTINUOUS
 10
5.8544
 20
9.7919
  0
VERTEX
  8
LAYER1
 62
     7
  6
CONTINUOUS
 10
5.8545
 20
9.7938
  0
VERTEX
  8
LAYER1
 62
     7
  6
CONTINUOUS
 10
5.8546
 20
9.7957
  0
VERTEX
  8
LAYER1
 62
     7
  6
CONTINUOUS
 10
5.8547
 20
9.7977
  0
VERTEX
  8
LAYER1
 62
     7
  6
CONTINUOUS
 10
5.8549
 20
9.7995
  0
VERTEX
  8
LAYER1
 62
     7
  6
CONTINUOUS
 10
5.8552
 20
9.8014
  0
VERTEX
  8
LAYER1
 62
     7
  6
CONTINUOUS
 10
5.8556
 20
9.8031
  0
VERTEX
  8
LAYER1
 62
     7
  6
CONTINUOUS
 10
5.8561
 20
9.8048
  0
VERTEX
  8
LAYER1
 62
     7
  6
CONTINUOUS
 10
5.8566
 20
9.8063
  0
VERTEX
  8
LAYER1
 62
     7
  6
CONTINUOUS
 10
5.8573
 20
9.8077
  0
VERTEX
  8
LAYER1
 62
     7
  6
CONTINUOUS
 10
5.8582
 20
9.8089
  0
VERTEX
  8
LAYER1
 62
     7
  6
CONTINUOUS
 10
5.8591
 20
9.8100
  0
VERTEX
  8
LAYER1
 62
     7
  6
CONTINUOUS
 10
5.8605
 20
9.8110
  0
VERTEX
  8
LAYER1
 62
     7
  6
CONTINUOUS
 10
5.8621
 20
9.8117
  0
VERTEX
  8
LAYER1
 62
     7
  6
CONTINUOUS
 10
5.8639
 20
9.8122
  0
VERTEX
  8
LAYER1
 62
     7
  6
CONTINUOUS
 10
5.8658
 20
9.8124
  0
VERTEX
  8
LAYER1
 62
     7
  6
CONTINUOUS
 10
5.8678
 20
9.8125
  0
VERTEX
  8
LAYER1
 62
     7
  6
CONTINUOUS
 10
5.8700
 20
9.8124
  0
VERTEX
  8
LAYER1
 62
     7
  6
CONTINUOUS
 10
5.8722
 20
9.8122
  0
VERTEX
  8
LAYER1
 62
     7
  6
CONTINUOUS
 10
5.8746
 20
9.8119
  0
VERTEX
  8
LAYER1
 62
     7
  6
CONTINUOUS
 10
5.8769
 20
9.8115
  0
VERTEX
  8
LAYER1
 62
     7
  6
CONTINUOUS
 10
5.8793
 20
9.8111
  0
VERTEX
  8
LAYER1
 62
     7
  6
CONTINUOUS
 10
5.8817
 20
9.8106
  0
VERTEX
  8
LAYER1
 62
     7
  6
CONTINUOUS
 10
5.8840
 20
9.8102
  0
VERTEX
  8
LAYER1
 62
     7
  6
CONTINUOUS
 10
5.8872
 20
9.8097
  0
VERTEX
  8
LAYER1
 62
     7
  6
CONTINUOUS
 10
5.8904
 20
9.8094
  0
VERTEX
  8
LAYER1
 62
     7
  6
CONTINUOUS
 10
5.8934
 20
9.8091
  0
VERTEX
  8
LAYER1
 62
     7
  6
CONTINUOUS
 10
5.8964
 20
9.8089
  0
VERTEX
  8
LAYER1
 62
     7
  6
CONTINUOUS
 10
5.8993
 20
9.8088
  0
VERTEX
  8
LAYER1
 62
     7
  6
CONTINUOUS
 10
5.9022
 20
9.8088
  0
VERTEX
  8
LAYER1
 62
     7
  6
CONTINUOUS
 10
5.9050
 20
9.8089
  0
VERTEX
  8
LAYER1
 62
     7
  6
CONTINUOUS
 10
5.9078
 20
9.8090
  0
VERTEX
  8
LAYER1
 62
     7
  6
CONTINUOUS
 10
5.9106
 20
9.8093
  0
VERTEX
  8
LAYER1
 62
     7
  6
CONTINUOUS
 10
5.9133
 20
9.8097
  0
VERTEX
  8
LAYER1
 62
     7
  6
CONTINUOUS
 10
5.9161
 20
9.8101
  0
VERTEX
  8
LAYER1
 62
     7
  6
CONTINUOUS
 10
5.9189
 20
9.8106
  0
VERTEX
  8
LAYER1
 62
     7
  6
CONTINUOUS
 10
5.9209
 20
9.8111
  0
VERTEX
  8
LAYER1
 62
     7
  6
CONTINUOUS
 10
5.9229
 20
9.8115
  0
VERTEX
  8
LAYER1
 62
     7
  6
CONTINUOUS
 10
5.9250
 20
9.8120
  0
VERTEX
  8
LAYER1
 62
     7
  6
CONTINUOUS
 10
5.9270
 20
9.8125
  0
VERTEX
  8
LAYER1
 62
     7
  6
CONTINUOUS
 10
5.9291
 20
9.8130
  0
VERTEX
  8
LAYER1
 62
     7
  6
CONTINUOUS
 10
5.9312
 20
9.8135
  0
VERTEX
  8
LAYER1
 62
     7
  6
CONTINUOUS
 10
5.9332
 20
9.8140
  0
VERTEX
  8
LAYER1
 62
     7
  6
CONTINUOUS
 10
5.9353
 20
9.8145
  0
VERTEX
  8
LAYER1
 62
     7
  6
CONTINUOUS
 10
5.9374
 20
9.8149
  0
VERTEX
  8
LAYER1
 62
     7
  6
CONTINUOUS
 10
5.9395
 20
9.8153
  0
VERTEX
  8
LAYER1
 62
     7
  6
CONTINUOUS
 10
5.9416
 20
9.8156
  0
VERTEX
  8
LAYER1
 62
     7
  6
CONTINUOUS
 10
5.9437
 20
9.8159
  0
VERTEX
  8
LAYER1
 62
     7
  6
CONTINUOUS
 10
5.9454
 20
9.8160
  0
VERTEX
  8
LAYER1
 62
     7
  6
CONTINUOUS
 10
5.9470
 20
9.8161
  0
VERTEX
  8
LAYER1
 62
     7
  6
CONTINUOUS
 10
5.9487
 20
9.8162
  0
VERTEX
  8
LAYER1
 62
     7
  6
CONTINUOUS
 10
5.9503
 20
9.8163
  0
VERTEX
  8
LAYER1
 62
     7
  6
CONTINUOUS
 10
5.9520
 20
9.8163
  0
VERTEX
  8
LAYER1
 62
     7
  6
CONTINUOUS
 10
5.9536
 20
9.8163
  0
VERTEX
  8
LAYER1
 62
     7
  6
CONTINUOUS
 10
5.9553
 20
9.8162
  0
VERTEX
  8
LAYER1
 62
     7
  6
CONTINUOUS
 10
5.9570
 20
9.8162
  0
VERTEX
  8
LAYER1
 62
     7
  6
CONTINUOUS
 10
5.9586
 20
9.8162
  0
VERTEX
  8
LAYER1
 62
     7
  6
CONTINUOUS
 10
5.9603
 20
9.8161
  0
VERTEX
  8
LAYER1
 62
     7
  6
CONTINUOUS
 10
5.9619
 20
9.8161
  0
VERTEX
  8
LAYER1
 62
     7
  6
CONTINUOUS
 10
5.9636
 20
9.8161
  0
VERTEX
  8
LAYER1
 62
     7
  6
CONTINUOUS
 10
5.9670
 20
9.8161
  0
VERTEX
  8
LAYER1
 62
     7
  6
CONTINUOUS
 10
5.9703
 20
9.8162
  0
VERTEX
  8
LAYER1
 62
     7
  6
CONTINUOUS
 10
5.9737
 20
9.8164
  0
VERTEX
  8
LAYER1
 62
     7
  6
CONTINUOUS
 10
5.9771
 20
9.8166
  0
VERTEX
  8
LAYER1
 62
     7
  6
CONTINUOUS
 10
5.9804
 20
9.8169
  0
VERTEX
  8
LAYER1
 62
     7
  6
CONTINUOUS
 10
5.9837
 20
9.8173
  0
VERTEX
  8
LAYER1
 62
     7
  6
CONTINUOUS
 10
5.9871
 20
9.8178
  0
VERTEX
  8
LAYER1
 62
     7
  6
CONTINUOUS
 10
5.9904
 20
9.8184
  0
VERTEX
  8
LAYER1
 62
     7
  6
CONTINUOUS
 10
5.9937
 20
9.8190
  0
VERTEX
  8
LAYER1
 62
     7
  6
CONTINUOUS
 10
5.9969
 20
9.8198
  0
VERTEX
  8
LAYER1
 62
     7
  6
CONTINUOUS
 10
6.0002
 20
9.8206
  0
VERTEX
  8
LAYER1
 62
     7
  6
CONTINUOUS
 10
6.0034
 20
9.8215
  0
VERTEX
  8
LAYER1
 62
     7
  6
CONTINUOUS
 10
6.0055
 20
9.8222
  0
VERTEX
  8
LAYER1
 62
     7
  6
CONTINUOUS
 10
6.0076
 20
9.8229
  0
VERTEX
  8
LAYER1
 62
     7
  6
CONTINUOUS
 10
6.0097
 20
9.8236
  0
VERTEX
  8
LAYER1
 62
     7
  6
CONTINUOUS
 10
6.0118
 20
9.8244
  0
VERTEX
  8
LAYER1
 62
     7
  6
CONTINUOUS
 10
6.0139
 20
9.8253
  0
VERTEX
  8
LAYER1
 62
     7
  6
CONTINUOUS
 10
6.0160
 20
9.8261
  0
VERTEX
  8
LAYER1
 62
     7
  6
CONTINUOUS
 10
6.0180
 20
9.8270
  0
VERTEX
  8
LAYER1
 62
     7
  6
CONTINUOUS
 10
6.0201
 20
9.8279
  0
VERTEX
  8
LAYER1
 62
     7
  6
CONTINUOUS
 10
6.0221
 20
9.8288
  0
VERTEX
  8
LAYER1
 62
     7
  6
CONTINUOUS
 10
6.0241
 20
9.8298
  0
VERTEX
  8
LAYER1
 62
     7
  6
CONTINUOUS
 10
6.0262
 20
9.8308
  0
VERTEX
  8
LAYER1
 62
     7
  6
CONTINUOUS
 10
6.0282
 20
9.8317
  0
VERTEX
  8
LAYER1
 62
     7
  6
CONTINUOUS
 10
6.0298
 20
9.8326
  0
VERTEX
  8
LAYER1
 62
     7
  6
CONTINUOUS
 10
6.0315
 20
9.8334
  0
VERTEX
  8
LAYER1
 62
     7
  6
CONTINUOUS
 10
6.0331
 20
9.8343
  0
VERTEX
  8
LAYER1
 62
     7
  6
CONTINUOUS
 10
6.0348
 20
9.8351
  0
VERTEX
  8
LAYER1
 62
     7
  6
CONTINUOUS
 10
6.0364
 20
9.8360
  0
VERTEX
  8
LAYER1
 62
     7
  6
CONTINUOUS
 10
6.0381
 20
9.8368
  0
VERTEX
  8
LAYER1
 62
     7
  6
CONTINUOUS
 10
6.0397
 20
9.8377
  0
VERTEX
  8
LAYER1
 62
     7
  6
CONTINUOUS
 10
6.0414
 20
9.8386
  0
VERTEX
  8
LAYER1
 62
     7
  6
CONTINUOUS
 10
6.0430
 20
9.8394
  0
VERTEX
  8
LAYER1
 62
     7
  6
CONTINUOUS
 10
6.0446
 20
9.8402
  0
VERTEX
  8
LAYER1
 62
     7
  6
CONTINUOUS
 10
6.0463
 20
9.8411
  0
VERTEX
  8
LAYER1
 62
     7
  6
CONTINUOUS
 10
6.0480
 20
9.8419
  0
VERTEX
  8
LAYER1
 62
     7
  6
CONTINUOUS
 10
6.0495
 20
9.8427
  0
VERTEX
  8
LAYER1
 62
     7
  6
CONTINUOUS
 10
6.0510
 20
9.8434
  0
VERTEX
  8
LAYER1
 62
     7
  6
CONTINUOUS
 10
6.0525
 20
9.8441
  0
VERTEX
  8
LAYER1
 62
     7
  6
CONTINUOUS
 10
6.0541
 20
9.8448
  0
VERTEX
  8
LAYER1
 62
     7
  6
CONTINUOUS
 10
6.0556
 20
9.8455
  0
VERTEX
  8
LAYER1
 62
     7
  6
CONTINUOUS
 10
6.0571
 20
9.8462
  0
VERTEX
  8
LAYER1
 62
     7
  6
CONTINUOUS
 10
6.0587
 20
9.8469
  0
VERTEX
  8
LAYER1
 62
     7
  6
CONTINUOUS
 10
6.0602
 20
9.8476
  0
VERTEX
  8
LAYER1
 62
     7
  6
CONTINUOUS
 10
6.0617
 20
9.8483
  0
VERTEX
  8
LAYER1
 62
     7
  6
CONTINUOUS
 10
6.0633
 20
9.8490
  0
VERTEX
  8
LAYER1
 62
     7
  6
CONTINUOUS
 10
6.0648
 20
9.8497
  0
VERTEX
  8
LAYER1
 62
     7
  6
CONTINUOUS
 10
6.0664
 20
9.8504
  0
SEQEND
  8
LAYER1
  0
POLYLINE
  8
LAYER1
 62
     7
 66
     1
  6
CONTINUOUS
  0
VERTEX
  8
LAYER1
 62
     7
  6
CONTINUOUS
 10
5.8545
 20
9.7751
  0
VERTEX
  8
LAYER1
 62
     7
  6
CONTINUOUS
 10
5.8566
 20
9.7752
  0
VERTEX
  8
LAYER1
 62
     7
  6
CONTINUOUS
 10
5.8587
 20
9.7754
  0
VERTEX
  8
LAYER1
 62
     7
  6
CONTINUOUS
 10
5.8608
 20
9.7756
  0
VERTEX
  8
LAYER1
 62
     7
  6
CONTINUOUS
 10
5.8629
 20
9.7757
  0
VERTEX
  8
LAYER1
 62
     7
  6
CONTINUOUS
 10
5.8650
 20
9.7758
  0
VERTEX
  8
LAYER1
 62
     7
  6
CONTINUOUS
 10
5.8671
 20
9.7759
  0
VERTEX
  8
LAYER1
 62
     7
  6
CONTINUOUS
 10
5.8691
 20
9.7760
  0
VERTEX
  8
LAYER1
 62
     7
  6
CONTINUOUS
 10
5.8712
 20
9.7759
  0
VERTEX
  8
LAYER1
 62
     7
  6
CONTINUOUS
 10
5.8733
 20
9.7759
  0
VERTEX
  8
LAYER1
 62
     7
  6
CONTINUOUS
 10
5.8753
 20
9.7758
  0
VERTEX
  8
LAYER1
 62
     7
  6
CONTINUOUS
 10
5.8774
 20
9.7756
  0
VERTEX
  8
LAYER1
 62
     7
  6
CONTINUOUS
 10
5.8794
 20
9.7753
  0
VERTEX
  8
LAYER1
 62
     7
  6
CONTINUOUS
 10
5.8811
 20
9.7751
  0
VERTEX
  8
LAYER1
 62
     7
  6
CONTINUOUS
 10
5.8828
 20
9.7748
  0
VERTEX
  8
LAYER1
 62
     7
  6
CONTINUOUS
 10
5.8844
 20
9.7744
  0
VERTEX
  8
LAYER1
 62
     7
  6
CONTINUOUS
 10
5.8861
 20
9.7740
  0
VERTEX
  8
LAYER1
 62
     7
  6
CONTINUOUS
 10
5.8878
 20
9.7736
  0
VERTEX
  8
LAYER1
 62
     7
  6
CONTINUOUS
 10
5.8894
 20
9.7732
  0
VERTEX
  8
LAYER1
 62
     7
  6
CONTINUOUS
 10
5.8911
 20
9.7727
  0
VERTEX
  8
LAYER1
 62
     7
  6
CONTINUOUS
 10
5.8927
 20
9.7723
  0
VERTEX
  8
LAYER1
 62
     7
  6
CONTINUOUS
 10
5.8944
 20
9.7718
  0
VERTEX
  8
LAYER1
 62
     7
  6
CONTINUOUS
 10
5.8961
 20
9.7714
  0
VERTEX
  8
LAYER1
 62
     7
  6
CONTINUOUS
 10
5.8977
 20
9.7710
  0
VERTEX
  8
LAYER1
 62
     7
  6
CONTINUOUS
 10
5.8994
 20
9.7706
  0
VERTEX
  8
LAYER1
 62
     7
  6
CONTINUOUS
 10
5.9027
 20
9.7699
  0
VERTEX
  8
LAYER1
 62
     7
  6
CONTINUOUS
 10
5.9060
 20
9.7693
  0
VERTEX
  8
LAYER1
 62
     7
  6
CONTINUOUS
 10
5.9093
 20
9.7688
  0
VERTEX
  8
LAYER1
 62
     7
  6
CONTINUOUS
 10
5.9126
 20
9.7683
  0
VERTEX
  8
LAYER1
 62
     7
  6
CONTINUOUS
 10
5.9159
 20
9.7679
  0
VERTEX
  8
LAYER1
 62
     7
  6
CONTINUOUS
 10
5.9192
 20
9.7676
  0
VERTEX
  8
LAYER1
 62
     7
  6
CONTINUOUS
 10
5.9226
 20
9.7673
  0
VERTEX
  8
LAYER1
 62
     7
  6
CONTINUOUS
 10
5.9259
 20
9.7671
  0
VERTEX
  8
LAYER1
 62
     7
  6
CONTINUOUS
 10
5.9292
 20
9.7668
  0
VERTEX
  8
LAYER1
 62
     7
  6
CONTINUOUS
 10
5.9326
 20
9.7666
  0
VERTEX
  8
LAYER1
 62
     7
  6
CONTINUOUS
 10
5.9359
 20
9.7663
  0
VERTEX
  8
LAYER1
 62
     7
  6
CONTINUOUS
 10
5.9393
 20
9.7661
  0
VERTEX
  8
LAYER1
 62
     7
  6
CONTINUOUS
 10
5.9426
 20
9.7658
  0
VERTEX
  8
LAYER1
 62
     7
  6
CONTINUOUS
 10
5.9459
 20
9.7654
  0
VERTEX
  8
LAYER1
 62
     7
  6
CONTINUOUS
 10
5.9493
 20
9.7651
  0
VERTEX
  8
LAYER1
 62
     7
  6
CONTINUOUS
 10
5.9526
 20
9.7647
  0
VERTEX
  8
LAYER1
 62
     7
  6
CONTINUOUS
 10
5.9559
 20
9.7643
  0
VERTEX
  8
LAYER1
 62
     7
  6
CONTINUOUS
 10
5.9592
 20
9.7639
  0
VERTEX
  8
LAYER1
 62
     7
  6
CONTINUOUS
 10
5.9626
 20
9.7635
  0
VERTEX
  8
LAYER1
 62
     7
  6
CONTINUOUS
 10
5.9659
 20
9.7631
  0
VERTEX
  8
LAYER1
 62
     7
  6
CONTINUOUS
 10
5.9692
 20
9.7627
  0
VERTEX
  8
LAYER1
 62
     7
  6
CONTINUOUS
 10
5.9725
 20
9.7623
  0
VERTEX
  8
LAYER1
 62
     7
  6
CONTINUOUS
 10
5.9758
 20
9.7619
  0
VERTEX
  8
LAYER1
 62
     7
  6
CONTINUOUS
 10
5.9792
 20
9.7615
  0
VERTEX
  8
LAYER1
 62
     7
  6
CONTINUOUS
 10
5.9825
 20
9.7611
  0
VERTEX
  8
LAYER1
 62
     7
  6
CONTINUOUS
 10
5.9858
 20
9.7608
  0
VERTEX
  8
LAYER1
 62
     7
  6
CONTINUOUS
 10
5.9891
 20
9.7604
  0
VERTEX
  8
LAYER1
 62
     7
  6
CONTINUOUS
 10
5.9924
 20
9.7601
  0
VERTEX
  8
LAYER1
 62
     7
  6
CONTINUOUS
 10
5.9958
 20
9.7597
  0
VERTEX
  8
LAYER1
 62
     7
  6
CONTINUOUS
 10
5.9991
 20
9.7594
  0
VERTEX
  8
LAYER1
 62
     7
  6
CONTINUOUS
 10
6.0024
 20
9.7590
  0
VERTEX
  8
LAYER1
 62
     7
  6
CONTINUOUS
 10
6.0057
 20
9.7586
  0
VERTEX
  8
LAYER1
 62
     7
  6
CONTINUOUS
 10
6.0091
 20
9.7583
  0
VERTEX
  8
LAYER1
 62
     7
  6
CONTINUOUS
 10
6.0124
 20
9.7578
  0
VERTEX
  8
LAYER1
 62
     7
  6
CONTINUOUS
 10
6.0157
 20
9.7574
  0
VERTEX
  8
LAYER1
 62
     7
  6
CONTINUOUS
 10
6.0190
 20
9.7569
  0
VERTEX
  8
LAYER1
 62
     7
  6
CONTINUOUS
 10
6.0228
 20
9.7564
  0
VERTEX
  8
LAYER1
 62
     7
  6
CONTINUOUS
 10
6.0265
 20
9.7558
  0
VERTEX
  8
LAYER1
 62
     7
  6
CONTINUOUS
 10
6.0302
 20
9.7552
  0
VERTEX
  8
LAYER1
 62
     7
  6
CONTINUOUS
 10
6.0340
 20
9.7547
  0
VERTEX
  8
LAYER1
 62
     7
  6
CONTINUOUS
 10
6.0377
 20
9.7541
  0
VERTEX
  8
LAYER1
 62
     7
  6
CONTINUOUS
 10
6.0414
 20
9.7536
  0
VERTEX
  8
LAYER1
 62
     7
  6
CONTINUOUS
 10
6.0452
 20
9.7532
  0
VERTEX
  8
LAYER1
 62
     7
  6
CONTINUOUS
 10
6.0489
 20
9.7528
  0
VERTEX
  8
LAYER1
 62
     7
  6
CONTINUOUS
 10
6.0526
 20
9.7526
  0
VERTEX
  8
LAYER1
 62
     7
  6
CONTINUOUS
 10
6.0564
 20
9.7524
  0
VERTEX
  8
LAYER1
 62
     7
  6
CONTINUOUS
 10
6.0601
 20
9.7524
  0
VERTEX
  8
LAYER1
 62
     7
  6
CONTINUOUS
 10
6.0639
 20
9.7525
  0
VERTEX
  8
LAYER1
 62
     7
  6
CONTINUOUS
 10
6.0641
 20
9.7525
  0
VERTEX
  8
LAYER1
 62
     7
  6
CONTINUOUS
 10
6.0643
 20
9.7525
  0
VERTEX
  8
LAYER1
 62
     7
  6
CONTINUOUS
 10
6.0645
 20
9.7525
  0
VERTEX
  8
LAYER1
 62
     7
  6
CONTINUOUS
 10
6.0647
 20
9.7525
  0
VERTEX
  8
LAYER1
 62
     7
  6
CONTINUOUS
 10
6.0649
 20
9.7525
  0
VERTEX
  8
LAYER1
 62
     7
  6
CONTINUOUS
 10
6.0651
 20
9.7526
  0
VERTEX
  8
LAYER1
 62
     7
  6
CONTINUOUS
 10
6.0653
 20
9.7526
  0
VERTEX
  8
LAYER1
 62
     7
  6
CONTINUOUS
 10
6.0655
 20
9.7526
  0
VERTEX
  8
LAYER1
 62
     7
  6
CONTINUOUS
 10
6.0658
 20
9.7526
  0
VERTEX
  8
LAYER1
 62
     7
  6
CONTINUOUS
 10
6.0660
 20
9.7526
  0
VERTEX
  8
LAYER1
 62
     7
  6
CONTINUOUS
 10
6.0662
 20
9.7526
  0
VERTEX
  8
LAYER1
 62
     7
  6
CONTINUOUS
 10
6.0664
 20
9.7526
  0
SEQEND
  8
LAYER1
  0
POLYLINE
  8
LAYER1
 62
     7
 66
     1
  6
CONTINUOUS
  0
VERTEX
  8
LAYER1
 62
     7
  6
CONTINUOUS
 10
5.2567
 20
9.5139
  0
VERTEX
  8
LAYER1
 62
     7
  6
CONTINUOUS
 10
5.2567
 20
9.5139
  0
VERTEX
  8
LAYER1
 62
     7
  6
CONTINUOUS
 10
5.2567
 20
9.5139
  0
VERTEX
  8
LAYER1
 62
     7
  6
CONTINUOUS
 10
5.2567
 20
9.5139
  0
VERTEX
  8
LAYER1
 62
     7
  6
CONTINUOUS
 10
5.2567
 20
9.5139
  0
VERTEX
  8
LAYER1
 62
     7
  6
CONTINUOUS
 10
5.2567
 20
9.5139
  0
VERTEX
  8
LAYER1
 62
     7
  6
CONTINUOUS
 10
5.2567
 20
9.5139
  0
VERTEX
  8
LAYER1
 62
     7
  6
CONTINUOUS
 10
5.2567
 20
9.5139
  0
VERTEX
  8
LAYER1
 62
     7
  6
CONTINUOUS
 10
5.2567
 20
9.5139
  0
VERTEX
  8
LAYER1
 62
     7
  6
CONTINUOUS
 10
5.2567
 20
9.5139
  0
VERTEX
  8
LAYER1
 62
     7
  6
CONTINUOUS
 10
5.2567
 20
9.5139
  0
VERTEX
  8
LAYER1
 62
     7
  6
CONTINUOUS
 10
5.2567
 20
9.5139
  0
VERTEX
  8
LAYER1
 62
     7
  6
CONTINUOUS
 10
5.2567
 20
9.5139
  0
VERTEX
  8
LAYER1
 62
     7
  6
CONTINUOUS
 10
5.2567
 20
9.5139
  0
VERTEX
  8
LAYER1
 62
     7
  6
CONTINUOUS
 10
5.2567
 20
9.5139
  0
VERTEX
  8
LAYER1
 62
     7
  6
CONTINUOUS
 10
5.2567
 20
9.5139
  0
VERTEX
  8
LAYER1
 62
     7
  6
CONTINUOUS
 10
5.2567
 20
9.5139
  0
VERTEX
  8
LAYER1
 62
     7
  6
CONTINUOUS
 10
5.2567
 20
9.5139
  0
VERTEX
  8
LAYER1
 62
     7
  6
CONTINUOUS
 10
5.2567
 20
9.5139
  0
VERTEX
  8
LAYER1
 62
     7
  6
CONTINUOUS
 10
5.2567
 20
9.5139
  0
VERTEX
  8
LAYER1
 62
     7
  6
CONTINUOUS
 10
5.2567
 20
9.5139
  0
VERTEX
  8
LAYER1
 62
     7
  6
CONTINUOUS
 10
5.2567
 20
9.5139
  0
VERTEX
  8
LAYER1
 62
     7
  6
CONTINUOUS
 10
5.2567
 20
9.5139
  0
VERTEX
  8
LAYER1
 62
     7
  6
CONTINUOUS
 10
5.2567
 20
9.5139
  0
VERTEX
  8
LAYER1
 62
     7
  6
CONTINUOUS
 10
5.2567
 20
9.5139
  0
SEQEND
  8
LAYER1
  0
POLYLINE
  8
LAYER1
 62
     7
 66
     1
  6
CONTINUOUS
  0
VERTEX
  8
LAYER1
 62
     7
  6
CONTINUOUS
 10
5.2567
 20
9.5139
  0
VERTEX
  8
LAYER1
 62
     7
  6
CONTINUOUS
 10
5.2567
 20
9.5139
  0
VERTEX
  8
LAYER1
 62
     7
  6
CONTINUOUS
 10
5.2567
 20
9.5139
  0
VERTEX
  8
LAYER1
 62
     7
  6
CONTINUOUS
 10
5.2567
 20
9.5139
  0
VERTEX
  8
LAYER1
 62
     7
  6
CONTINUOUS
 10
5.2567
 20
9.5139
  0
VERTEX
  8
LAYER1
 62
     7
  6
CONTINUOUS
 10
5.2567
 20
9.5139
  0
VERTEX
  8
LAYER1
 62
     7
  6
CONTINUOUS
 10
5.2567
 20
9.5139
  0
VERTEX
  8
LAYER1
 62
     7
  6
CONTINUOUS
 10
5.2567
 20
9.5139
  0
VERTEX
  8
LAYER1
 62
     7
  6
CONTINUOUS
 10
5.2567
 20
9.5139
  0
VERTEX
  8
LAYER1
 62
     7
  6
CONTINUOUS
 10
5.2567
 20
9.5139
  0
VERTEX
  8
LAYER1
 62
     7
  6
CONTINUOUS
 10
5.2567
 20
9.5139
  0
VERTEX
  8
LAYER1
 62
     7
  6
CONTINUOUS
 10
5.2567
 20
9.5139
  0
VERTEX
  8
LAYER1
 62
     7
  6
CONTINUOUS
 10
5.2567
 20
9.5139
  0
VERTEX
  8
LAYER1
 62
     7
  6
CONTINUOUS
 10
5.2567
 20
9.5139
  0
VERTEX
  8
LAYER1
 62
     7
  6
CONTINUOUS
 10
5.2567
 20
9.5139
  0
VERTEX
  8
LAYER1
 62
     7
  6
CONTINUOUS
 10
5.2567
 20
9.5139
  0
VERTEX
  8
LAYER1
 62
     7
  6
CONTINUOUS
 10
5.2567
 20
9.5139
  0
VERTEX
  8
LAYER1
 62
     7
  6
CONTINUOUS
 10
5.2567
 20
9.5139
  0
VERTEX
  8
LAYER1
 62
     7
  6
CONTINUOUS
 10
5.2567
 20
9.5139
  0
VERTEX
  8
LAYER1
 62
     7
  6
CONTINUOUS
 10
5.2567
 20
9.5139
  0
VERTEX
  8
LAYER1
 62
     7
  6
CONTINUOUS
 10
5.2567
 20
9.5139
  0
VERTEX
  8
LAYER1
 62
     7
  6
CONTINUOUS
 10
5.2567
 20
9.5139
  0
VERTEX
  8
LAYER1
 62
     7
  6
CONTINUOUS
 10
5.2567
 20
9.5139
  0
VERTEX
  8
LAYER1
 62
     7
  6
CONTINUOUS
 10
5.2567
 20
9.5139
  0
VERTEX
  8
LAYER1
 62
     7
  6
CONTINUOUS
 10
5.2567
 20
9.5139
  0
SEQEND
  8
LAYER1
  0
POLYLINE
  8
LAYER1
 62
     7
 66
     1
  6
CONTINUOUS
  0
VERTEX
  8
LAYER1
 62
     7
  6
CONTINUOUS
 10
5.2567
 20
9.5139
  0
VERTEX
  8
LAYER1
 62
     7
  6
CONTINUOUS
 10
5.2568
 20
9.5143
  0
VERTEX
  8
LAYER1
 62
     7
  6
CONTINUOUS
 10
5.2569
 20
9.5146
  0
VERTEX
  8
LAYER1
 62
     7
  6
CONTINUOUS
 10
5.2571
 20
9.5149
  0
VERTEX
  8
LAYER1
 62
     7
  6
CONTINUOUS
 10
5.2572
 20
9.5152
  0
VERTEX
  8
LAYER1
 62
     7
  6
CONTINUOUS
 10
5.2573
 20
9.5155
  0
VERTEX
  8
LAYER1
 62
     7
  6
CONTINUOUS
 10
5.2573
 20
9.5158
  0
VERTEX
  8
LAYER1
 62
     7
  6
CONTINUOUS
 10
5.2574
 20
9.5161
  0
VERTEX
  8
LAYER1
 62
     7
  6
CONTINUOUS
 10
5.2575
 20
9.5164
  0
VERTEX
  8
LAYER1
 62
     7
  6
CONTINUOUS
 10
5.2576
 20
9.5166
  0
VERTEX
  8
LAYER1
 62
     7
  6
CONTINUOUS
 10
5.2577
 20
9.5168
  0
VERTEX
  8
LAYER1
 62
     7
  6
CONTINUOUS
 10
5.2577
 20
9.5170
  0
VERTEX
  8
LAYER1
 62
     7
  6
CONTINUOUS
 10
5.2578
 20
9.5172
  0
VERTEX
  8
LAYER1
 62
     7
  6
CONTINUOUS
 10
5.2578
 20
9.5174
  0
VERTEX
  8
LAYER1
 62
     7
  6
CONTINUOUS
 10
5.2579
 20
9.5175
  0
VERTEX
  8
LAYER1
 62
     7
  6
CONTINUOUS
 10
5.2579
 20
9.5176
  0
VERTEX
  8
LAYER1
 62
     7
  6
CONTINUOUS
 10
5.2579
 20
9.5176
  0
VERTEX
  8
LAYER1
 62
     7
  6
CONTINUOUS
 10
5.2579
 20
9.5177
  0
VERTEX
  8
LAYER1
 62
     7
  6
CONTINUOUS
 10
5.2579
 20
9.5176
  0
VERTEX
  8
LAYER1
 62
     7
  6
CONTINUOUS
 10
5.2579
 20
9.5176
  0
VERTEX
  8
LAYER1
 62
     7
  6
CONTINUOUS
 10
5.2579
 20
9.5176
  0
VERTEX
  8
LAYER1
 62
     7
  6
CONTINUOUS
 10
5.2579
 20
9.5175
  0
VERTEX
  8
LAYER1
 62
     7
  6
CONTINUOUS
 10
5.2578
 20
9.5174
  0
VERTEX
  8
LAYER1
 62
     7
  6
CONTINUOUS
 10
5.2578
 20
9.5173
  0
VERTEX
  8
LAYER1
 62
     7
  6
CONTINUOUS
 10
5.2578
 20
9.5172
  0
SEQEND
  8
LAYER1
  0
POLYLINE
  8
LAYER1
 62
     7
 66
     1
  6
CONTINUOUS
  0
VERTEX
  8
LAYER1
 62
     7
  6
CONTINUOUS
 10
5.2578
 20
9.5172
  0
VERTEX
  8
LAYER1
 62
     7
  6
CONTINUOUS
 10
5.2580
 20
9.5178
  0
VERTEX
  8
LAYER1
 62
     7
  6
CONTINUOUS
 10
5.2582
 20
9.5184
  0
VERTEX
  8
LAYER1
 62
     7
  6
CONTINUOUS
 10
5.2584
 20
9.5190
  0
VERTEX
  8
LAYER1
 62
     7
  6
CONTINUOUS
 10
5.2586
 20
9.5197
  0
VERTEX
  8
LAYER1
 62
     7
  6
CONTINUOUS
 10
5.2588
 20
9.5203
  0
VERTEX
  8
LAYER1
 62
     7
  6
CONTINUOUS
 10
5.2590
 20
9.5209
  0
VERTEX
  8
LAYER1
 62
     7
  6
CONTINUOUS
 10
5.2592
 20
9.5215
  0
VERTEX
  8
LAYER1
 62
     7
  6
CONTINUOUS
 10
5.2594
 20
9.5221
  0
VERTEX
  8
LAYER1
 62
     7
  6
CONTINUOUS
 10
5.2595
 20
9.5227
  0
VERTEX
  8
LAYER1
 62
     7
  6
CONTINUOUS
 10
5.2597
 20
9.5234
  0
VERTEX
  8
LAYER1
 62
     7
  6
CONTINUOUS
 10
5.2598
 20
9.5240
  0
VERTEX
  8
LAYER1
 62
     7
  6
CONTINUOUS
 10
5.2599
 20
9.5246
  0
VERTEX
  8
LAYER1
 62
     7
  6
CONTINUOUS
 10
5.2601
 20
9.5276
  0
VERTEX
  8
LAYER1
 62
     7
  6
CONTINUOUS
 10
5.2599
 20
9.5306
  0
VERTEX
  8
LAYER1
 62
     7
  6
CONTINUOUS
 10
5.2593
 20
9.5335
  0
VERTEX
  8
LAYER1
 62
     7
  6
CONTINUOUS
 10
5.2583
 20
9.5364
  0
VERTEX
  8
LAYER1
 62
     7
  6
CONTINUOUS
 10
5.2571
 20
9.5393
  0
VERTEX
  8
LAYER1
 62
     7
  6
CONTINUOUS
 10
5.2556
 20
9.5422
  0
VERTEX
  8
LAYER1
 62
     7
  6
CONTINUOUS
 10
5.2539
 20
9.5451
  0
VERTEX
  8
LAYER1
 62
     7
  6
CONTINUOUS
 10
5.2521
 20
9.5479
  0
VERTEX
  8
LAYER1
 62
     7
  6
CONTINUOUS
 10
5.2502
 20
9.5508
  0
VERTEX
  8
LAYER1
 62
     7
  6
CONTINUOUS
 10
5.2483
 20
9.5536
  0
VERTEX
  8
LAYER1
 62
     7
  6
CONTINUOUS
 10
5.2464
 20
9.5564
  0
VERTEX
  8
LAYER1
 62
     7
  6
CONTINUOUS
 10
5.2446
 20
9.5593
  0
VERTEX
  8
LAYER1
 62
     7
  6
CONTINUOUS
 10
5.2431
 20
9.5617
  0
VERTEX
  8
LAYER1
 62
     7
  6
CONTINUOUS
 10
5.2417
 20
9.5642
  0
VERTEX
  8
LAYER1
 62
     7
  6
CONTINUOUS
 10
5.2403
 20
9.5667
  0
VERTEX
  8
LAYER1
 62
     7
  6
CONTINUOUS
 10
5.2390
 20
9.5692
  0
VERTEX
  8
LAYER1
 62
     7
  6
CONTINUOUS
 10
5.2378
 20
9.5717
  0
VERTEX
  8
LAYER1
 62
     7
  6
CONTINUOUS
 10
5.2366
 20
9.5741
  0
VERTEX
  8
LAYER1
 62
     7
  6
CONTINUOUS
 10
5.2354
 20
9.5766
  0
VERTEX
  8
LAYER1
 62
     7
  6
CONTINUOUS
 10
5.2342
 20
9.5791
  0
VERTEX
  8
LAYER1
 62
     7
  6
CONTINUOUS
 10
5.2330
 20
9.5816
  0
VERTEX
  8
LAYER1
 62
     7
  6
CONTINUOUS
 10
5.2318
 20
9.5840
  0
VERTEX
  8
LAYER1
 62
     7
  6
CONTINUOUS
 10
5.2306
 20
9.5865
  0
VERTEX
  8
LAYER1
 62
     7
  6
CONTINUOUS
 10
5.2293
 20
9.5890
  0
VERTEX
  8
LAYER1
 62
     7
  6
CONTINUOUS
 10
5.2274
 20
9.5926
  0
VERTEX
  8
LAYER1
 62
     7
  6
CONTINUOUS
 10
5.2253
 20
9.5962
  0
VERTEX
  8
LAYER1
 62
     7
  6
CONTINUOUS
 10
5.2233
 20
9.5998
  0
VERTEX
  8
LAYER1
 62
     7
  6
CONTINUOUS
 10
5.2212
 20
9.6035
  0
VERTEX
  8
LAYER1
 62
     7
  6
CONTINUOUS
 10
5.2191
 20
9.6071
  0
VERTEX
  8
LAYER1
 62
     7
  6
CONTINUOUS
 10
5.2172
 20
9.6108
  0
VERTEX
  8
LAYER1
 62
     7
  6
CONTINUOUS
 10
5.2153
 20
9.6145
  0
VERTEX
  8
LAYER1
 62
     7
  6
CONTINUOUS
 10
5.2136
 20
9.6182
  0
VERTEX
  8
LAYER1
 62
     7
  6
CONTINUOUS
 10
5.2120
 20
9.6220
  0
VERTEX
  8
LAYER1
 62
     7
  6
CONTINUOUS
 10
5.2107
 20
9.6258
  0
VERTEX
  8
LAYER1
 62
     7
  6
CONTINUOUS
 10
5.2097
 20
9.6296
  0
VERTEX
  8
LAYER1
 62
     7
  6
CONTINUOUS
 10
5.2089
 20
9.6335
  0
VERTEX
  8
LAYER1
 62
     7
  6
CONTINUOUS
 10
5.2086
 20
9.6359
  0
VERTEX
  8
LAYER1
 62
     7
  6
CONTINUOUS
 10
5.2084
 20
9.6384
  0
VERTEX
  8
LAYER1
 62
     7
  6
CONTINUOUS
 10
5.2083
 20
9.6408
  0
VERTEX
  8
LAYER1
 62
     7
  6
CONTINUOUS
 10
5.2083
 20
9.6432
  0
VERTEX
  8
LAYER1
 62
     7
  6
CONTINUOUS
 10
5.2083
 20
9.6457
  0
VERTEX
  8
LAYER1
 62
     7
  6
CONTINUOUS
 10
5.2084
 20
9.6482
  0
VERTEX
  8
LAYER1
 62
     7
  6
CONTINUOUS
 10
5.2085
 20
9.6507
  0
VERTEX
  8
LAYER1
 62
     7
  6
CONTINUOUS
 10
5.2086
 20
9.6532
  0
VERTEX
  8
LAYER1
 62
     7
  6
CONTINUOUS
 10
5.2086
 20
9.6558
  0
VERTEX
  8
LAYER1
 62
     7
  6
CONTINUOUS
 10
5.2087
 20
9.6583
  0
VERTEX
  8
LAYER1
 62
     7
  6
CONTINUOUS
 10
5.2087
 20
9.6609
  0
VERTEX
  8
LAYER1
 62
     7
  6
CONTINUOUS
 10
5.2086
 20
9.6634
  0
VERTEX
  8
LAYER1
 62
     7
  6
CONTINUOUS
 10
5.2085
 20
9.6652
  0
VERTEX
  8
LAYER1
 62
     7
  6
CONTINUOUS
 10
5.2084
 20
9.6669
  0
VERTEX
  8
LAYER1
 62
     7
  6
CONTINUOUS
 10
5.2082
 20
9.6687
  0
VERTEX
  8
LAYER1
 62
     7
  6
CONTINUOUS
 10
5.2079
 20
9.6704
  0
VERTEX
  8
LAYER1
 62
     7
  6
CONTINUOUS
 10
5.2076
 20
9.6722
  0
VERTEX
  8
LAYER1
 62
     7
  6
CONTINUOUS
 10
5.2073
 20
9.6739
  0
VERTEX
  8
LAYER1
 62
     7
  6
CONTINUOUS
 10
5.2068
 20
9.6755
  0
VERTEX
  8
LAYER1
 62
     7
  6
CONTINUOUS
 10
5.2063
 20
9.6772
  0
VERTEX
  8
LAYER1
 62
     7
  6
CONTINUOUS
 10
5.2057
 20
9.6788
  0
VERTEX
  8
LAYER1
 62
     7
  6
CONTINUOUS
 10
5.2050
 20
9.6803
  0
VERTEX
  8
LAYER1
 62
     7
  6
CONTINUOUS
 10
5.2043
 20
9.6818
  0
VERTEX
  8
LAYER1
 62
     7
  6
CONTINUOUS
 10
5.2034
 20
9.6833
  0
VERTEX
  8
LAYER1
 62
     7
  6
CONTINUOUS
 10
5.2027
 20
9.6842
  0
VERTEX
  8
LAYER1
 62
     7
  6
CONTINUOUS
 10
5.2020
 20
9.6851
  0
VERTEX
  8
LAYER1
 62
     7
  6
CONTINUOUS
 10
5.2013
 20
9.6860
  0
VERTEX
  8
LAYER1
 62
     7
  6
CONTINUOUS
 10
5.2005
 20
9.6869
  0
VERTEX
  8
LAYER1
 62
     7
  6
CONTINUOUS
 10
5.1997
 20
9.6877
  0
VERTEX
  8
LAYER1
 62
     7
  6
CONTINUOUS
 10
5.1989
 20
9.6886
  0
VERTEX
  8
LAYER1
 62
     7
  6
CONTINUOUS
 10
5.1980
 20
9.6894
  0
VERTEX
  8
LAYER1
 62
     7
  6
CONTINUOUS
 10
5.1971
 20
9.6901
  0
VERTEX
  8
LAYER1
 62
     7
  6
CONTINUOUS
 10
5.1962
 20
9.6909
  0
VERTEX
  8
LAYER1
 62
     7
  6
CONTINUOUS
 10
5.1953
 20
9.6917
  0
VERTEX
  8
LAYER1
 62
     7
  6
CONTINUOUS
 10
5.1943
 20
9.6924
  0
VERTEX
  8
LAYER1
 62
     7
  6
CONTINUOUS
 10
5.1933
 20
9.6931
  0
VERTEX
  8
LAYER1
 62
     7
  6
CONTINUOUS
 10
5.1918
 20
9.6942
  0
VERTEX
  8
LAYER1
 62
     7
  6
CONTINUOUS
 10
5.1902
 20
9.6953
  0
VERTEX
  8
LAYER1
 62
     7
  6
CONTINUOUS
 10
5.1886
 20
9.6963
  0
VERTEX
  8
LAYER1
 62
     7
  6
CONTINUOUS
 10
5.1870
 20
9.6973
  0
VERTEX
  8
LAYER1
 62
     7
  6
CONTINUOUS
 10
5.1853
 20
9.6982
  0
VERTEX
  8
LAYER1
 62
     7
  6
CONTINUOUS
 10
5.1837
 20
9.6991
  0
VERTEX
  8
LAYER1
 62
     7
  6
CONTINUOUS
 10
5.1820
 20
9.6999
  0
VERTEX
  8
LAYER1
 62
     7
  6
CONTINUOUS
 10
5.1803
 20
9.7007
  0
VERTEX
  8
LAYER1
 62
     7
  6
CONTINUOUS
 10
5.1785
 20
9.7013
  0
VERTEX
  8
LAYER1
 62
     7
  6
CONTINUOUS
 10
5.1768
 20
9.7019
  0
VERTEX
  8
LAYER1
 62
     7
  6
CONTINUOUS
 10
5.1751
 20
9.7024
  0
VERTEX
  8
LAYER1
 62
     7
  6
CONTINUOUS
 10
5.1733
 20
9.7028
  0
VERTEX
  8
LAYER1
 62
     7
  6
CONTINUOUS
 10
5.1701
 20
9.7034
  0
VERTEX
  8
LAYER1
 62
     7
  6
CONTINUOUS
 10
5.1669
 20
9.7036
  0
VERTEX
  8
LAYER1
 62
     7
  6
CONTINUOUS
 10
5.1636
 20
9.7036
  0
VERTEX
  8
LAYER1
 62
     7
  6
CONTINUOUS
 10
5.1603
 20
9.7034
  0
VERTEX
  8
LAYER1
 62
     7
  6
CONTINUOUS
 10
5.1570
 20
9.7029
  0
VERTEX
  8
LAYER1
 62
     7
  6
CONTINUOUS
 10
5.1537
 20
9.7024
  0
VERTEX
  8
LAYER1
 62
     7
  6
CONTINUOUS
 10
5.1503
 20
9.7017
  0
VERTEX
  8
LAYER1
 62
     7
  6
CONTINUOUS
 10
5.1470
 20
9.7009
  0
VERTEX
  8
LAYER1
 62
     7
  6
CONTINUOUS
 10
5.1436
 20
9.7000
  0
VERTEX
  8
LAYER1
 62
     7
  6
CONTINUOUS
 10
5.1402
 20
9.6991
  0
VERTEX
  8
LAYER1
 62
     7
  6
CONTINUOUS
 10
5.1369
 20
9.6983
  0
VERTEX
  8
LAYER1
 62
     7
  6
CONTINUOUS
 10
5.1335
 20
9.6974
  0
VERTEX
  8
LAYER1
 62
     7
  6
CONTINUOUS
 10
5.1301
 20
9.6966
  0
VERTEX
  8
LAYER1
 62
     7
  6
CONTINUOUS
 10
5.1267
 20
9.6958
  0
VERTEX
  8
LAYER1
 62
     7
  6
CONTINUOUS
 10
5.1234
 20
9.6951
  0
VERTEX
  8
LAYER1
 62
     7
  6
CONTINUOUS
 10
5.1200
 20
9.6944
  0
VERTEX
  8
LAYER1
 62
     7
  6
CONTINUOUS
 10
5.1167
 20
9.6936
  0
VERTEX
  8
LAYER1
 62
     7
  6
CONTINUOUS
 10
5.1133
 20
9.6929
  0
VERTEX
  8
LAYER1
 62
     7
  6
CONTINUOUS
 10
5.1100
 20
9.6921
  0
VERTEX
  8
LAYER1
 62
     7
  6
CONTINUOUS
 10
5.1068
 20
9.6913
  0
VERTEX
  8
LAYER1
 62
     7
  6
CONTINUOUS
 10
5.1035
 20
9.6904
  0
VERTEX
  8
LAYER1
 62
     7
  6
CONTINUOUS
 10
5.1002
 20
9.6894
  0
VERTEX
  8
LAYER1
 62
     7
  6
CONTINUOUS
 10
5.0970
 20
9.6883
  0
VERTEX
  8
LAYER1
 62
     7
  6
CONTINUOUS
 10
5.0938
 20
9.6870
  0
VERTEX
  8
LAYER1
 62
     7
  6
CONTINUOUS
 10
5.0905
 20
9.6856
  0
VERTEX
  8
LAYER1
 62
     7
  6
CONTINUOUS
 10
5.0873
 20
9.6841
  0
VERTEX
  8
LAYER1
 62
     7
  6
CONTINUOUS
 10
5.0840
 20
9.6825
  0
VERTEX
  8
LAYER1
 62
     7
  6
CONTINUOUS
 10
5.0808
 20
9.6809
  0
VERTEX
  8
LAYER1
 62
     7
  6
CONTINUOUS
 10
5.0775
 20
9.6793
  0
VERTEX
  8
LAYER1
 62
     7
  6
CONTINUOUS
 10
5.0743
 20
9.6778
  0
VERTEX
  8
LAYER1
 62
     7
  6
CONTINUOUS
 10
5.0710
 20
9.6763
  0
VERTEX
  8
LAYER1
 62
     7
  6
CONTINUOUS
 10
5.0677
 20
9.6749
  0
VERTEX
  8
LAYER1
 62
     7
  6
CONTINUOUS
 10
5.0644
 20
9.6738
  0
VERTEX
  8
LAYER1
 62
     7
  6
CONTINUOUS
 10
5.0610
 20
9.6728
  0
VERTEX
  8
LAYER1
 62
     7
  6
CONTINUOUS
 10
5.0576
 20
9.6721
  0
VERTEX
  8
LAYER1
 62
     7
  6
CONTINUOUS
 10
5.0542
 20
9.6717
  0
VERTEX
  8
LAYER1
 62
     7
  6
CONTINUOUS
 10
5.0532
 20
9.6716
  0
VERTEX
  8
LAYER1
 62
     7
  6
CONTINUOUS
 10
5.0523
 20
9.6715
  0
VERTEX
  8
LAYER1
 62
     7
  6
CONTINUOUS
 10
5.0513
 20
9.6715
  0
VERTEX
  8
LAYER1
 62
     7
  6
CONTINUOUS
 10
5.0504
 20
9.6715
  0
VERTEX
  8
LAYER1
 62
     7
  6
CONTINUOUS
 10
5.0494
 20
9.6715
  0
VERTEX
  8
LAYER1
 62
     7
  6
CONTINUOUS
 10
5.0484
 20
9.6716
  0
VERTEX
  8
LAYER1
 62
     7
  6
CONTINUOUS
 10
5.0475
 20
9.6716
  0
VERTEX
  8
LAYER1
 62
     7
  6
CONTINUOUS
 10
5.0465
 20
9.6717
  0
VERTEX
  8
LAYER1
 62
     7
  6
CONTINUOUS
 10
5.0455
 20
9.6717
  0
VERTEX
  8
LAYER1
 62
     7
  6
CONTINUOUS
 10
5.0446
 20
9.6718
  0
VERTEX
  8
LAYER1
 62
     7
  6
CONTINUOUS
 10
5.0436
 20
9.6718
  0
VERTEX
  8
LAYER1
 62
     7
  6
CONTINUOUS
 10
5.0426
 20
9.6719
  0
SEQEND
  8
LAYER1
  0
ARC
  8
LAYER1
 62
     7
  6
CONTINUOUS
 10
5.8105
 20
9.4833
 40
0.0347
 50
111.6828
 51
118.0811
  0
ARC
  8
LAYER1
 62
     7
  6
CONTINUOUS
 10
6.0344
 20
9.4933
 40
0.0250
 50
107.0016
 51
124.3651
  0
ARC
  8
LAYER1
 62
     7
  6
CONTINUOUS
 10
5.2425
 20
9.5269
 40
0.0190
 50
-149.3301
 51
-136.9470
  0
ARC
  8
LAYER1
 62
     7
  6
CONTINUOUS
 10
5.6730
 20
9.5316
 40
0.0224
 50
-139.9865
 51
-127.9192
  0
ARC
  8
LAYER1
 62
     7
  6
CONTINUOUS
 10
5.6730
 20
9.5316
 40
0.0224
 50
-52.0808
 51
90.6314
  0
ARC
  8
LAYER1
 62
     7
  6
CONTINUOUS
 10
5.8349
 20
9.5284
 40
0.0190
 50
-143.6825
 51
-130.1119
  0
ARC
  8
LAYER1
 62
     7
  6
CONTINUOUS
 10
5.8349
 20
9.5284
 40
0.0190
 50
-49.8958
 51
67.4351
  0
ARC
  8
LAYER1
 62
     7
  6
CONTINUOUS
 10
5.8996
 20
9.5267
 40
0.0201
 50
-151.8554
 51
-140.5920
  0
ARC
  8
LAYER1
 62
     7
  6
CONTINUOUS
 10
5.8996
 20
9.5267
 40
0.0200
 50
-39.4145
 51
83.5086
  0
POLYLINE
  8
LAYER12
 62
     5
 66
     1
  6
CONTINUOUS
  0
VERTEX
  8
LAYER12
 62
     5
  6
CONTINUOUS
 10
6.0657
 20
10.5370
  0
VERTEX
  8
LAYER12
 62
     5
  6
CONTINUOUS
 10
6.0657
 20
10.5370
  0
SEQEND
  8
LAYER12
  0
POLYLINE
  8
LAYER12
 62
     5
 66
     1
  6
CONTINUOUS
  0
VERTEX
  8
LAYER12
 62
     5
  6
CONTINUOUS
 10
6.0657
 20
10.5370
  0
VERTEX
  8
LAYER12
 62
     5
  6
CONTINUOUS
 10
6.0664
 20
10.5370
  0
SEQEND
  8
LAYER12
  0
POLYLINE
  8
LAYER12
 62
     5
 66
     1
  6
CONTINUOUS
  0
VERTEX
  8
LAYER12
 62
     5
  6
CONTINUOUS
 10
5.0426
 20
10.5370
  0
VERTEX
  8
LAYER12
 62
     5
  6
CONTINUOUS
 10
5.0426
 20
10.5370
  0
SEQEND
  8
LAYER12
  0
POLYLINE
  8
LAYER12
 62
     5
 66
     1
  6
CONTINUOUS
  0
VERTEX
  8
LAYER12
 62
     5
  6
CONTINUOUS
 10
5.0426
 20
10.5370
  0
VERTEX
  8
LAYER12
 62
     5
  6
CONTINUOUS
 10
6.0657
 20
10.5370
  0
SEQEND
  8
LAYER12
  0
POLYLINE
  8
LAYER12
 62
     5
 66
     1
  6
CONTINUOUS
  0
VERTEX
  8
LAYER12
 62
     5
  6
CONTINUOUS
 10
5.0426
 20
9.5131
  0
VERTEX
  8
LAYER12
 62
     5
  6
CONTINUOUS
 10
5.0426
 20
9.5139
  0
SEQEND
  8
LAYER12
  0
POLYLINE
  8
LAYER12
 62
     5
 66
     1
  6
CONTINUOUS
  0
VERTEX
  8
LAYER12
 62
     5
  6
CONTINUOUS
 10
5.0426
 20
9.5139
  0
VERTEX
  8
LAYER12
 62
     5
  6
CONTINUOUS
 10
5.0426
 20
9.5139
  0
SEQEND
  8
LAYER12
  0
POLYLINE
  8
LAYER12
 62
     5
 66
     1
  6
CONTINUOUS
  0
VERTEX
  8
LAYER12
 62
     5
  6
CONTINUOUS
 10
5.0426
 20
9.5139
  0
VERTEX
  8
LAYER12
 62
     5
  6
CONTINUOUS
 10
5.0426
 20
9.5139
  0
SEQEND
  8
LAYER12
  0
POLYLINE
  8
LAYER12
 62
     5
 66
     1
  6
CONTINUOUS
  0
VERTEX
  8
LAYER12
 62
     5
  6
CONTINUOUS
 10
5.0426
 20
9.5139
  0
VERTEX
  8
LAYER12
 62
     5
  6
CONTINUOUS
 10
5.0426
 20
9.5172
  0
SEQEND
  8
LAYER12
  0
POLYLINE
  8
LAYER12
 62
     5
 66
     1
  6
CONTINUOUS
  0
VERTEX
  8
LAYER12
 62
     5
  6
CONTINUOUS
 10
5.0426
 20
9.5172
  0
VERTEX
  8
LAYER12
 62
     5
  6
CONTINUOUS
 10
5.0426
 20
10.5370
  0
SEQEND
  8
LAYER12
  0
POLYLINE
  8
LAYER12
 62
     5
 66
     1
  6
CONTINUOUS
  0
VERTEX
  8
LAYER12
 62
     5
  6
CONTINUOUS
 10
6.0664
 20
9.5139
  0
VERTEX
  8
LAYER12
 62
     5
  6
CONTINUOUS
 10
5.0426
 20
9.5139
  0
SEQEND
  8
LAYER12
  0
POLYLINE
  8
LAYER12
 62
     5
 66
     1
  6
CONTINUOUS
  0
VERTEX
  8
LAYER12
 62
     5
  6
CONTINUOUS
 10
6.0657
 20
10.5370
  0
VERTEX
  8
LAYER12
 62
     5
  6
CONTINUOUS
 10
6.0657
 20
10.5370
  0
SEQEND
  8
LAYER12
  0
POLYLINE
  8
LAYER12
 62
     5
 66
     1
  6
CONTINUOUS
  0
VERTEX
  8
LAYER12
 62
     5
  6
CONTINUOUS
 10
6.0657
 20
10.5370
  0
VERTEX
  8
LAYER12
 62
     5
  6
CONTINUOUS
 10
6.0657
 20
9.5172
  0
SEQEND
  8
LAYER12
  0
POLYLINE
  8
LAYER12
 62
     5
 66
     1
  6
CONTINUOUS
  0
VERTEX
  8
LAYER12
 62
     5
  6
CONTINUOUS
 10
6.0657
 20
9.5172
  0
VERTEX
  8
LAYER12
 62
     5
  6
CONTINUOUS
 10
6.0657
 20
9.5139
  0
SEQEND
  8
LAYER12
  0
POLYLINE
  8
LAYER12
 62
     5
 66
     1
  6
CONTINUOUS
  0
VERTEX
  8
LAYER12
 62
     5
  6
CONTINUOUS
 10
6.0657
 20
9.5139
  0
VERTEX
  8
LAYER12
 62
     5
  6
CONTINUOUS
 10
6.0657
 20
9.5139
  0
SEQEND
  8
LAYER12
  0
POLYLINE
  8
LAYER12
 62
     5
 66
     1
  6
CONTINUOUS
  0
VERTEX
  8
LAYER12
 62
     5
  6
CONTINUOUS
 10
6.0657
 20
9.5139
  0
VERTEX
  8
LAYER12
 62
     5
  6
CONTINUOUS
 10
6.0657
 20
9.5139
  0
SEQEND
  8
LAYER12
  0
POLYLINE
  8
LAYER12
 62
     5
 66
     1
  6
CONTINUOUS
  0
VERTEX
  8
LAYER12
 62
     5
  6
CONTINUOUS
 10
5.0426
 20
9.5139
  0
VERTEX
  8
LAYER12
 62
     5
  6
CONTINUOUS
 10
5.0426
 20
9.5131
  0
SEQEND
  8
LAYER12
  0
ENDSEC
  0
EOF
