  0
SECTION
  2
HEADER
  9
$ACADVER
  1
AC1004
  9
$EXTMIN
 10
3.0752
 20
9.5131
  9
$EXTMAX
 10
4.0608
 20
10.5370
  9
$LIMMIN
 10
3.0752
 20
9.5131
  9
$LIMMAX
 10
4.0608
 20
10.5370
  9
$INSBASE
 10
0.0
 20
0.0
  9
$VIEWCTR
 10
7.21903
 20
4.5
  9
$VIEWSIZE
 40
9.0
  9
$SNAPMODE
 70
     0
  9
$SNAPUNIT
 10
1.0
 20
1.0
  9
$SNAPBASE
 10
0.0
 20
0.0
  9
$SNAPANG
 50
0.0
  9
$SNAPSTYLE
 70
     0
  9
$SNAPISOPAIR
 70
     0
  9
$GRIDMODE
 70
     0
  9
$GRIDUNIT
 10
0.0
 20
0.0
  9
$ORTHOMODE
 70
     0
  9
$REGENMODE
 70
     1
  9
$FILLMODE
 70
     1
  9
$QTEXTMODE
 70
     0
  9
$DRAGMODE
 70
     2
  9
$LTSCALE
 40
1.0
  9
$OSMODE
 70
     0
  9
$ATTMODE
 70
     1
  9
$TEXTSIZE
 40
0.2
  9
$TRACEWID
 40
0.05
  9
$TEXTSTYLE
  7
STANDARD
  9
$CLAYER
  8
0
  9
$CELTYPE
  6
BYLAYER
  9
$CECOLOR
 62
   256
  9
$DIMSCALE
 40
1.0
  9
$DIMASZ
 40
0.18
  9
$DIMEXO
 40
0.0625
  9
$DIMDLI
 40
0.38
  9
$DIMRND
 40
0.0
  9
$DIMDLE
 40
0.0
  9
$DIMEXE
 40
0.18
  9
$DIMTP
 40
0.0
  9
$DIMTM
 40
0.0
  9
$DIMTXT
 40
0.18
  9
$DIMCEN
 40
0.09
  9
$DIMTSZ
 40
0.0
  9
$DIMTOL
 70
     0
  9
$DIMLIM
 70
     0
  9
$DIMTIH
 70
     1
  9
$DIMTOH
 70
     1
  9
$DIMSE1
 70
     0
  9
$DIMSE2
 70
     0
  9
$DIMTAD
 70
     0
  9
$DIMZIN
 70
     0
  9
$DIMBLK
  1

  9
$DIMASO
 70
     1
  9
$DIMSHO
 70
     0
  9
$DIMPOST
  1

  9
$DIMAPOST
  1

  9
$DIMALT
 70
     0
  9
$DIMALTD
 70
     2
  9
$DIMALTF
 40
25.4
  9
$DIMLFAC
 40
1.0
  9
$LUNITS
 70
     2
  9
$LUPREC
 70
     4
  9
$AXISMODE
 70
     0
  9
$AXISUNIT
 10
0.0
 20
0.0
  9
$SKETCHINC
 40
0.1
  9
$FILLETRAD
 40
0.0
  9
$AUNITS
 70
     0
  9
$AUPREC
 70
     0
  9
$MENU
  1
acad
  9
$ELEVATION
 40
0.0
  9
$THICKNESS
 40
0.0
  9
$VIEWDIR
 10
0.0
 20
0.0
 30
1.0
  9
$LIMCHECK
 70
     0
  9
$BLIPMODE
 70
     1
  9
$CHAMFERA
 40
0.0
  9
$CHAMFERB
 40
0.0
  9
$FASTZOOM
 70
     1
  9
$SKPOLY
 70
     0
  9
$TDCREATE
 40
2447222.5666886573
  9
$TDUPDATE
 40
2447222.5666886573
  9
$TDINDWG
 40
0.0000000000
  9
$TDUSRTIMER
 40
0.0000000000
  9
$USRTIMER
 70
     1
  9
$ANGBASE
 50
0.0
  9
$ANGDIR
 70
     0
  9
$PDMODE
 70
     0
  9
$PDSIZE
 40
0.0
  9
$PLINEWID
 40
0.0
  9
$COORDS
 70
     0
  9
$SPLFRAME
 70
     0
  9
$SPLINESEGS
 70
     8
  9
$ATTDIA
 70
     0
  9
$ATTREQ
 70
     1
  9
$USERI1
 70
     0
  9
$USERI2
 70
     0
  9
$USERI3
 70
     0
  9
$USERI4
 70
     0
  9
$USERI5
 70
     0
  9
$USERR1
 40
0.0
  9
$USERR2
 40
0.0
  9
$USERR3
 40
0.0
  9
$USERR4
 40
0.0
  9
$USERR5
 40
0.0
  0
ENDSEC
  0
SECTION
  2
TABLES
  0
TABLE
  2
LTYPE
 70
     13
  0
LTYPE
  2
CONTINUOUS
 70
    64
  3
Solid line
 72
    65
 73
     0
 40
0.0
  0
LTYPE
  2
DASHED
 70
    64
  3
__ __ __ __ __ __ __ __ __ __ __ __ __ __ __
 72
    65
 73
     2
 40
0.75
 49
0.5
 49
-0.25
  0
LTYPE
  2
HIDDEN
 70
    64
  3
_ _ _ _ _ _ _ _ _ _ _ _ _ _ _ _ _ _ _ _ _ _ _
 72
    65
 73
     2
 40
0.375
 49
0.25
 49
-0.125
  0
LTYPE
  2
CENTER
 70
    64
  3
____ _ ____ _ ____ _ ____ _ ____ _ ____ _ ____
 72
    65
 73
     4
 40
2.0
 49
1.25
 49
-0.25
 49
0.25
 49
-0.25
  0
LTYPE
  2
PHANTOM
 70
    64
  3
_____ _ _ _____ _ _ _____ _ _ _____ _ _ ____
 72
    65
 73
     6
 40
2.5
 49
1.25
 49
-0.25
 49
0.25
 49
-0.25
 49
0.25
 49
-0.25
  0
LTYPE
  2
DOT
 70
    64
  3
...............................................
 72
    65
 73
     2
 40
0.25
 49
0.0
 49
-0.25
  0
LTYPE
  2
DASHDOT
 70
    64
  3
__ . __ . __ . __ . __ . __ . __ . __ . __ . __
 72
    65
 73
     4
 40
1.0
 49
0.5
 49
-0.25
 49
0.0
 49
-0.25
  0
LTYPE
  2
BORDER
 70
    64
  3
__ __ . __ __ . __ __ . __ __ . __ __ . __ __
 72
    65
 73
     6
 40
1.75
 49
0.5
 49
-0.25
 49
0.5
 49
-0.25
 49
0.0
 49
-0.25
  0
LTYPE
  2
DIVIDE
 70
    64
  3
__ . . __ . . __ . . __ . . __ . . __ . . __
 72
    65
 73
     6
 40
1.25
 49
0.5
 49
-0.25
 49
0.0
 49
-0.25
 49
0.0
 49
-0.25
  0
LTYPE
  2
DCTYPE1
 70
    64
  3
__ . . __ . . __ . . __ . . __ . . __ . . __
 72
    65
 73
     8
 40
2.5
 49
0.5
 49
-0.25
 49
0.125
 49
-0.25
 49
0.25
 49
-0.25
 49
0.125
 49
-0.25
  0
LTYPE
  2
DCTYPE2
 70
    64
  3
__ . . __ . . __ . . __ . . __ . . __ . . __
 72
    65
 73
     6
 40
2.05
 49
1.0
 49
-0.3
 49
0.15
 49
-0.15
 49
0.15
 49
-0.3
  0
LTYPE
  2
DCTYPE3
 70
    64
  3
__ . . __ . . __ . . __ . . __ . . __ . . __
 72
    65
 73
     6
 40
2.5
 49
0.8
 49
-0.2
 49
0.8
 49
-0.2
 49
0.3
 49
-0.2
  0
LTYPE
  2
DCTYPE4
 70
    64
  3
__ . . __ . . __ . . __ . . __ . . __ . . __
 72
    65
 73
     10
 40
3.97
 49
1.75
 49
-0.3
 49
0.3
 49
-0.3
 49
0.06
 49
-0.3
 49
0.06
 49
-0.3
 49
0.3
 49
-0.3
  0
ENDTAB
  0
TABLE
  2
LAYER
 70
    153
  0
LAYER
  2
LAYER1
 70
 64
 62
     7
  6
CONTINUOUS
  0
LAYER
  2
LAYER12
 70
 64
 62
     5
  6
CONTINUOUS
  0
ENDTAB
  0
ENDSEC
  0
SECTION
  2
BLOCKS
  0
ENDSEC
  0
SECTION
  2
ENTITIES
  0
CIRCLE
  8
LAYER1
 62
     7
  6
CONTINUOUS
 10
3.8152
 20
9.6987
 40
0.0201
  0
CIRCLE
  8
LAYER1
 62
     7
  6
CONTINUOUS
 10
3.8247
 20
9.7641
 40
0.0352
  0
CIRCLE
  8
LAYER1
 62
     7
  6
CONTINUOUS
 10
3.5641
 20
9.6363
 40
0.0159
  0
CIRCLE
  8
LAYER1
 62
     7
  6
CONTINUOUS
 10
3.6116
 20
9.6794
 40
0.0278
  0
CIRCLE
  8
LAYER1
 62
     7
  6
CONTINUOUS
 10
3.4575
 20
9.7587
 40
0.0331
  0
CIRCLE
  8
LAYER1
 62
     7
  6
CONTINUOUS
 10
3.3543
 20
9.7704
 40
0.0253
  0
CIRCLE
  8
LAYER1
 62
     7
  6
CONTINUOUS
 10
3.3610
 20
9.8711
 40
0.0302
  0
CIRCLE
  8
LAYER1
 62
     7
  6
CONTINUOUS
 10
3.3850
 20
10.0172
 40
0.0503
  0
CIRCLE
  8
LAYER1
 62
     7
  6
CONTINUOUS
 10
3.5660
 20
10.0362
 40
0.0281
  0
CIRCLE
  8
LAYER1
 62
     7
  6
CONTINUOUS
 10
3.4575
 20
10.0681
 40
0.0253
  0
CIRCLE
  8
LAYER1
 62
     7
  6
CONTINUOUS
 10
3.4221
 20
10.0954
 40
0.0178
  0
CIRCLE
  8
LAYER1
 62
     7
  6
CONTINUOUS
 10
3.3691
 20
10.1202
 40
0.0232
  0
CIRCLE
  8
LAYER1
 62
     7
  6
CONTINUOUS
 10
3.3061
 20
10.1297
 40
0.0228
  0
CIRCLE
  8
LAYER1
 62
     7
  6
CONTINUOUS
 10
3.2379
 20
10.1644
 40
0.0183
  0
CIRCLE
  8
LAYER1
 62
     7
  6
CONTINUOUS
 10
3.1775
 20
10.1790
 40
0.0126
  0
CIRCLE
  8
LAYER1
 62
     7
  6
CONTINUOUS
 10
3.3747
 20
10.3642
 40
0.0253
  0
CIRCLE
  8
LAYER1
 62
     7
  6
CONTINUOUS
 10
3.6173
 20
10.2152
 40
0.0203
  0
CIRCLE
  8
LAYER1
 62
     7
  6
CONTINUOUS
 10
3.4745
 20
10.1537
 40
0.0207
  0
POLYLINE
  8
LAYER1
 62
     7
 66
     1
  6
HIDDEN
  0
VERTEX
  8
LAYER1
 62
     7
  6
HIDDEN
 10
3.0752
 20
9.6678
  0
VERTEX
  8
LAYER1
 62
     7
  6
HIDDEN
 10
3.0754
 20
9.6678
  0
VERTEX
  8
LAYER1
 62
     7
  6
HIDDEN
 10
3.0755
 20
9.6678
  0
VERTEX
  8
LAYER1
 62
     7
  6
HIDDEN
 10
3.0756
 20
9.6678
  0
VERTEX
  8
LAYER1
 62
     7
  6
HIDDEN
 10
3.0757
 20
9.6678
  0
VERTEX
  8
LAYER1
 62
     7
  6
HIDDEN
 10
3.0759
 20
9.6678
  0
VERTEX
  8
LAYER1
 62
     7
  6
HIDDEN
 10
3.0760
 20
9.6678
  0
VERTEX
  8
LAYER1
 62
     7
  6
HIDDEN
 10
3.0761
 20
9.6678
  0
VERTEX
  8
LAYER1
 62
     7
  6
HIDDEN
 10
3.0762
 20
9.6678
  0
VERTEX
  8
LAYER1
 62
     7
  6
HIDDEN
 10
3.0763
 20
9.6678
  0
VERTEX
  8
LAYER1
 62
     7
  6
HIDDEN
 10
3.0764
 20
9.6679
  0
VERTEX
  8
LAYER1
 62
     7
  6
HIDDEN
 10
3.0765
 20
9.6679
  0
VERTEX
  8
LAYER1
 62
     7
  6
HIDDEN
 10
3.0766
 20
9.6679
  0
VERTEX
  8
LAYER1
 62
     7
  6
HIDDEN
 10
3.0769
 20
9.6679
  0
VERTEX
  8
LAYER1
 62
     7
  6
HIDDEN
 10
3.0770
 20
9.6679
  0
VERTEX
  8
LAYER1
 62
     7
  6
HIDDEN
 10
3.0772
 20
9.6679
  0
VERTEX
  8
LAYER1
 62
     7
  6
HIDDEN
 10
3.0772
 20
9.6679
  0
VERTEX
  8
LAYER1
 62
     7
  6
HIDDEN
 10
3.0773
 20
9.6679
  0
VERTEX
  8
LAYER1
 62
     7
  6
HIDDEN
 10
3.0773
 20
9.6679
  0
VERTEX
  8
LAYER1
 62
     7
  6
HIDDEN
 10
3.0772
 20
9.6679
  0
VERTEX
  8
LAYER1
 62
     7
  6
HIDDEN
 10
3.0771
 20
9.6679
  0
VERTEX
  8
LAYER1
 62
     7
  6
HIDDEN
 10
3.0770
 20
9.6679
  0
VERTEX
  8
LAYER1
 62
     7
  6
HIDDEN
 10
3.0769
 20
9.6679
  0
VERTEX
  8
LAYER1
 62
     7
  6
HIDDEN
 10
3.0768
 20
9.6679
  0
VERTEX
  8
LAYER1
 62
     7
  6
HIDDEN
 10
3.0766
 20
9.6679
  0
SEQEND
  8
LAYER1
  0
POLYLINE
  8
LAYER1
 62
     7
 66
     1
  6
HIDDEN
  0
VERTEX
  8
LAYER1
 62
     7
  6
HIDDEN
 10
3.0766
 20
9.6679
  0
VERTEX
  8
LAYER1
 62
     7
  6
HIDDEN
 10
3.0782
 20
9.6679
  0
VERTEX
  8
LAYER1
 62
     7
  6
HIDDEN
 10
3.0799
 20
9.6679
  0
VERTEX
  8
LAYER1
 62
     7
  6
HIDDEN
 10
3.0815
 20
9.6679
  0
VERTEX
  8
LAYER1
 62
     7
  6
HIDDEN
 10
3.0831
 20
9.6679
  0
VERTEX
  8
LAYER1
 62
     7
  6
HIDDEN
 10
3.0847
 20
9.6680
  0
VERTEX
  8
LAYER1
 62
     7
  6
HIDDEN
 10
3.0863
 20
9.6680
  0
VERTEX
  8
LAYER1
 62
     7
  6
HIDDEN
 10
3.0880
 20
9.6680
  0
VERTEX
  8
LAYER1
 62
     7
  6
HIDDEN
 10
3.0896
 20
9.6679
  0
VERTEX
  8
LAYER1
 62
     7
  6
HIDDEN
 10
3.0912
 20
9.6679
  0
VERTEX
  8
LAYER1
 62
     7
  6
HIDDEN
 10
3.0928
 20
9.6679
  0
VERTEX
  8
LAYER1
 62
     7
  6
HIDDEN
 10
3.0944
 20
9.6678
  0
VERTEX
  8
LAYER1
 62
     7
  6
HIDDEN
 10
3.0960
 20
9.6678
  0
VERTEX
  8
LAYER1
 62
     7
  6
HIDDEN
 10
3.0990
 20
9.6676
  0
VERTEX
  8
LAYER1
 62
     7
  6
HIDDEN
 10
3.1020
 20
9.6674
  0
VERTEX
  8
LAYER1
 62
     7
  6
HIDDEN
 10
3.1049
 20
9.6671
  0
VERTEX
  8
LAYER1
 62
     7
  6
HIDDEN
 10
3.1078
 20
9.6668
  0
VERTEX
  8
LAYER1
 62
     7
  6
HIDDEN
 10
3.1108
 20
9.6664
  0
VERTEX
  8
LAYER1
 62
     7
  6
HIDDEN
 10
3.1137
 20
9.6660
  0
VERTEX
  8
LAYER1
 62
     7
  6
HIDDEN
 10
3.1167
 20
9.6656
  0
VERTEX
  8
LAYER1
 62
     7
  6
HIDDEN
 10
3.1196
 20
9.6651
  0
VERTEX
  8
LAYER1
 62
     7
  6
HIDDEN
 10
3.1225
 20
9.6646
  0
VERTEX
  8
LAYER1
 62
     7
  6
HIDDEN
 10
3.1255
 20
9.6641
  0
VERTEX
  8
LAYER1
 62
     7
  6
HIDDEN
 10
3.1284
 20
9.6636
  0
VERTEX
  8
LAYER1
 62
     7
  6
HIDDEN
 10
3.1313
 20
9.6630
  0
VERTEX
  8
LAYER1
 62
     7
  6
HIDDEN
 10
3.1351
 20
9.6622
  0
VERTEX
  8
LAYER1
 62
     7
  6
HIDDEN
 10
3.1389
 20
9.6614
  0
VERTEX
  8
LAYER1
 62
     7
  6
HIDDEN
 10
3.1427
 20
9.6606
  0
VERTEX
  8
LAYER1
 62
     7
  6
HIDDEN
 10
3.1465
 20
9.6598
  0
VERTEX
  8
LAYER1
 62
     7
  6
HIDDEN
 10
3.1502
 20
9.6590
  0
VERTEX
  8
LAYER1
 62
     7
  6
HIDDEN
 10
3.1540
 20
9.6582
  0
VERTEX
  8
LAYER1
 62
     7
  6
HIDDEN
 10
3.1578
 20
9.6573
  0
VERTEX
  8
LAYER1
 62
     7
  6
HIDDEN
 10
3.1616
 20
9.6565
  0
VERTEX
  8
LAYER1
 62
     7
  6
HIDDEN
 10
3.1653
 20
9.6557
  0
VERTEX
  8
LAYER1
 62
     7
  6
HIDDEN
 10
3.1691
 20
9.6549
  0
VERTEX
  8
LAYER1
 62
     7
  6
HIDDEN
 10
3.1729
 20
9.6541
  0
VERTEX
  8
LAYER1
 62
     7
  6
HIDDEN
 10
3.1766
 20
9.6533
  0
VERTEX
  8
LAYER1
 62
     7
  6
HIDDEN
 10
3.1809
 20
9.6525
  0
VERTEX
  8
LAYER1
 62
     7
  6
HIDDEN
 10
3.1852
 20
9.6516
  0
VERTEX
  8
LAYER1
 62
     7
  6
HIDDEN
 10
3.1894
 20
9.6508
  0
VERTEX
  8
LAYER1
 62
     7
  6
HIDDEN
 10
3.1937
 20
9.6499
  0
VERTEX
  8
LAYER1
 62
     7
  6
HIDDEN
 10
3.1979
 20
9.6489
  0
VERTEX
  8
LAYER1
 62
     7
  6
HIDDEN
 10
3.2022
 20
9.6479
  0
VERTEX
  8
LAYER1
 62
     7
  6
HIDDEN
 10
3.2064
 20
9.6467
  0
VERTEX
  8
LAYER1
 62
     7
  6
HIDDEN
 10
3.2106
 20
9.6454
  0
VERTEX
  8
LAYER1
 62
     7
  6
HIDDEN
 10
3.2147
 20
9.6440
  0
VERTEX
  8
LAYER1
 62
     7
  6
HIDDEN
 10
3.2189
 20
9.6424
  0
VERTEX
  8
LAYER1
 62
     7
  6
HIDDEN
 10
3.2230
 20
9.6406
  0
VERTEX
  8
LAYER1
 62
     7
  6
HIDDEN
 10
3.2271
 20
9.6386
  0
VERTEX
  8
LAYER1
 62
     7
  6
HIDDEN
 10
3.2298
 20
9.6371
  0
VERTEX
  8
LAYER1
 62
     7
  6
HIDDEN
 10
3.2325
 20
9.6355
  0
VERTEX
  8
LAYER1
 62
     7
  6
HIDDEN
 10
3.2352
 20
9.6338
  0
VERTEX
  8
LAYER1
 62
     7
  6
HIDDEN
 10
3.2377
 20
9.6320
  0
VERTEX
  8
LAYER1
 62
     7
  6
HIDDEN
 10
3.2402
 20
9.6300
  0
VERTEX
  8
LAYER1
 62
     7
  6
HIDDEN
 10
3.2425
 20
9.6280
  0
VERTEX
  8
LAYER1
 62
     7
  6
HIDDEN
 10
3.2447
 20
9.6258
  0
VERTEX
  8
LAYER1
 62
     7
  6
HIDDEN
 10
3.2467
 20
9.6236
  0
VERTEX
  8
LAYER1
 62
     7
  6
HIDDEN
 10
3.2485
 20
9.6213
  0
VERTEX
  8
LAYER1
 62
     7
  6
HIDDEN
 10
3.2500
 20
9.6188
  0
VERTEX
  8
LAYER1
 62
     7
  6
HIDDEN
 10
3.2514
 20
9.6163
  0
VERTEX
  8
LAYER1
 62
     7
  6
HIDDEN
 10
3.2524
 20
9.6137
  0
VERTEX
  8
LAYER1
 62
     7
  6
HIDDEN
 10
3.2531
 20
9.6114
  0
VERTEX
  8
LAYER1
 62
     7
  6
HIDDEN
 10
3.2536
 20
9.6090
  0
VERTEX
  8
LAYER1
 62
     7
  6
HIDDEN
 10
3.2539
 20
9.6066
  0
VERTEX
  8
LAYER1
 62
     7
  6
HIDDEN
 10
3.2541
 20
9.6041
  0
VERTEX
  8
LAYER1
 62
     7
  6
HIDDEN
 10
3.2541
 20
9.6016
  0
VERTEX
  8
LAYER1
 62
     7
  6
HIDDEN
 10
3.2540
 20
9.5991
  0
VERTEX
  8
LAYER1
 62
     7
  6
HIDDEN
 10
3.2539
 20
9.5965
  0
VERTEX
  8
LAYER1
 62
     7
  6
HIDDEN
 10
3.2537
 20
9.5939
  0
VERTEX
  8
LAYER1
 62
     7
  6
HIDDEN
 10
3.2534
 20
9.5913
  0
VERTEX
  8
LAYER1
 62
     7
  6
HIDDEN
 10
3.2532
 20
9.5887
  0
VERTEX
  8
LAYER1
 62
     7
  6
HIDDEN
 10
3.2529
 20
9.5861
  0
VERTEX
  8
LAYER1
 62
     7
  6
HIDDEN
 10
3.2527
 20
9.5835
  0
VERTEX
  8
LAYER1
 62
     7
  6
HIDDEN
 10
3.2524
 20
9.5792
  0
VERTEX
  8
LAYER1
 62
     7
  6
HIDDEN
 10
3.2522
 20
9.5749
  0
VERTEX
  8
LAYER1
 62
     7
  6
HIDDEN
 10
3.2521
 20
9.5707
  0
VERTEX
  8
LAYER1
 62
     7
  6
HIDDEN
 10
3.2520
 20
9.5665
  0
VERTEX
  8
LAYER1
 62
     7
  6
HIDDEN
 10
3.2521
 20
9.5623
  0
VERTEX
  8
LAYER1
 62
     7
  6
HIDDEN
 10
3.2522
 20
9.5581
  0
VERTEX
  8
LAYER1
 62
     7
  6
HIDDEN
 10
3.2523
 20
9.5540
  0
VERTEX
  8
LAYER1
 62
     7
  6
HIDDEN
 10
3.2525
 20
9.5498
  0
VERTEX
  8
LAYER1
 62
     7
  6
HIDDEN
 10
3.2526
 20
9.5457
  0
VERTEX
  8
LAYER1
 62
     7
  6
HIDDEN
 10
3.2528
 20
9.5415
  0
VERTEX
  8
LAYER1
 62
     7
  6
HIDDEN
 10
3.2530
 20
9.5374
  0
VERTEX
  8
LAYER1
 62
     7
  6
HIDDEN
 10
3.2531
 20
9.5332
  0
VERTEX
  8
LAYER1
 62
     7
  6
HIDDEN
 10
3.2531
 20
9.5316
  0
VERTEX
  8
LAYER1
 62
     7
  6
HIDDEN
 10
3.2531
 20
9.5300
  0
VERTEX
  8
LAYER1
 62
     7
  6
HIDDEN
 10
3.2532
 20
9.5284
  0
VERTEX
  8
LAYER1
 62
     7
  6
HIDDEN
 10
3.2532
 20
9.5268
  0
VERTEX
  8
LAYER1
 62
     7
  6
HIDDEN
 10
3.2532
 20
9.5252
  0
VERTEX
  8
LAYER1
 62
     7
  6
HIDDEN
 10
3.2532
 20
9.5236
  0
VERTEX
  8
LAYER1
 62
     7
  6
HIDDEN
 10
3.2532
 20
9.5220
  0
VERTEX
  8
LAYER1
 62
     7
  6
HIDDEN
 10
3.2532
 20
9.5204
  0
VERTEX
  8
LAYER1
 62
     7
  6
HIDDEN
 10
3.2532
 20
9.5188
  0
VERTEX
  8
LAYER1
 62
     7
  6
HIDDEN
 10
3.2532
 20
9.5171
  0
VERTEX
  8
LAYER1
 62
     7
  6
HIDDEN
 10
3.2532
 20
9.5155
  0
VERTEX
  8
LAYER1
 62
     7
  6
HIDDEN
 10
3.2532
 20
9.5139
  0
SEQEND
  8
LAYER1
  0
POLYLINE
  8
LAYER1
 62
     7
 66
     1
  6
HIDDEN
  0
VERTEX
  8
LAYER1
 62
     7
  6
HIDDEN
 10
3.2532
 20
9.5139
  0
VERTEX
  8
LAYER1
 62
     7
  6
HIDDEN
 10
3.2532
 20
9.5139
  0
VERTEX
  8
LAYER1
 62
     7
  6
HIDDEN
 10
3.2532
 20
9.5139
  0
VERTEX
  8
LAYER1
 62
     7
  6
HIDDEN
 10
3.2532
 20
9.5139
  0
VERTEX
  8
LAYER1
 62
     7
  6
HIDDEN
 10
3.2532
 20
9.5139
  0
VERTEX
  8
LAYER1
 62
     7
  6
HIDDEN
 10
3.2532
 20
9.5139
  0
VERTEX
  8
LAYER1
 62
     7
  6
HIDDEN
 10
3.2532
 20
9.5139
  0
VERTEX
  8
LAYER1
 62
     7
  6
HIDDEN
 10
3.2532
 20
9.5139
  0
VERTEX
  8
LAYER1
 62
     7
  6
HIDDEN
 10
3.2532
 20
9.5139
  0
VERTEX
  8
LAYER1
 62
     7
  6
HIDDEN
 10
3.2532
 20
9.5139
  0
VERTEX
  8
LAYER1
 62
     7
  6
HIDDEN
 10
3.2532
 20
9.5139
  0
VERTEX
  8
LAYER1
 62
     7
  6
HIDDEN
 10
3.2532
 20
9.5139
  0
VERTEX
  8
LAYER1
 62
     7
  6
HIDDEN
 10
3.2532
 20
9.5139
  0
VERTEX
  8
LAYER1
 62
     7
  6
HIDDEN
 10
3.2532
 20
9.5139
  0
VERTEX
  8
LAYER1
 62
     7
  6
HIDDEN
 10
3.2532
 20
9.5139
  0
VERTEX
  8
LAYER1
 62
     7
  6
HIDDEN
 10
3.2532
 20
9.5139
  0
VERTEX
  8
LAYER1
 62
     7
  6
HIDDEN
 10
3.2532
 20
9.5139
  0
VERTEX
  8
LAYER1
 62
     7
  6
HIDDEN
 10
3.2532
 20
9.5139
  0
VERTEX
  8
LAYER1
 62
     7
  6
HIDDEN
 10
3.2532
 20
9.5139
  0
VERTEX
  8
LAYER1
 62
     7
  6
HIDDEN
 10
3.2532
 20
9.5139
  0
VERTEX
  8
LAYER1
 62
     7
  6
HIDDEN
 10
3.2532
 20
9.5139
  0
VERTEX
  8
LAYER1
 62
     7
  6
HIDDEN
 10
3.2532
 20
9.5139
  0
VERTEX
  8
LAYER1
 62
     7
  6
HIDDEN
 10
3.2532
 20
9.5139
  0
VERTEX
  8
LAYER1
 62
     7
  6
HIDDEN
 10
3.2532
 20
9.5139
  0
VERTEX
  8
LAYER1
 62
     7
  6
HIDDEN
 10
3.2532
 20
9.5139
  0
SEQEND
  8
LAYER1
  0
POLYLINE
  8
LAYER1
 62
     7
 66
     1
  6
HIDDEN
  0
VERTEX
  8
LAYER1
 62
     7
  6
HIDDEN
 10
3.2532
 20
9.5139
  0
VERTEX
  8
LAYER1
 62
     7
  6
HIDDEN
 10
3.2532
 20
9.5139
  0
VERTEX
  8
LAYER1
 62
     7
  6
HIDDEN
 10
3.2532
 20
9.5139
  0
VERTEX
  8
LAYER1
 62
     7
  6
HIDDEN
 10
3.2532
 20
9.5139
  0
VERTEX
  8
LAYER1
 62
     7
  6
HIDDEN
 10
3.2532
 20
9.5139
  0
VERTEX
  8
LAYER1
 62
     7
  6
HIDDEN
 10
3.2532
 20
9.5139
  0
VERTEX
  8
LAYER1
 62
     7
  6
HIDDEN
 10
3.2532
 20
9.5139
  0
VERTEX
  8
LAYER1
 62
     7
  6
HIDDEN
 10
3.2532
 20
9.5139
  0
VERTEX
  8
LAYER1
 62
     7
  6
HIDDEN
 10
3.2532
 20
9.5139
  0
VERTEX
  8
LAYER1
 62
     7
  6
HIDDEN
 10
3.2532
 20
9.5139
  0
VERTEX
  8
LAYER1
 62
     7
  6
HIDDEN
 10
3.2532
 20
9.5139
  0
VERTEX
  8
LAYER1
 62
     7
  6
HIDDEN
 10
3.2532
 20
9.5139
  0
VERTEX
  8
LAYER1
 62
     7
  6
HIDDEN
 10
3.2532
 20
9.5139
  0
VERTEX
  8
LAYER1
 62
     7
  6
HIDDEN
 10
3.2535
 20
9.5139
  0
VERTEX
  8
LAYER1
 62
     7
  6
HIDDEN
 10
3.2538
 20
9.5139
  0
VERTEX
  8
LAYER1
 62
     7
  6
HIDDEN
 10
3.2539
 20
9.5139
  0
VERTEX
  8
LAYER1
 62
     7
  6
HIDDEN
 10
3.2540
 20
9.5139
  0
VERTEX
  8
LAYER1
 62
     7
  6
HIDDEN
 10
3.2541
 20
9.5139
  0
VERTEX
  8
LAYER1
 62
     7
  6
HIDDEN
 10
3.2541
 20
9.5139
  0
VERTEX
  8
LAYER1
 62
     7
  6
HIDDEN
 10
3.2540
 20
9.5139
  0
VERTEX
  8
LAYER1
 62
     7
  6
HIDDEN
 10
3.2539
 20
9.5139
  0
VERTEX
  8
LAYER1
 62
     7
  6
HIDDEN
 10
3.2537
 20
9.5139
  0
VERTEX
  8
LAYER1
 62
     7
  6
HIDDEN
 10
3.2536
 20
9.5139
  0
VERTEX
  8
LAYER1
 62
     7
  6
HIDDEN
 10
3.2534
 20
9.5139
  0
VERTEX
  8
LAYER1
 62
     7
  6
HIDDEN
 10
3.2532
 20
9.5139
  0
SEQEND
  8
LAYER1
  0
ARC
  8
LAYER1
 62
     7
  6
CONTINUOUS
 10
4.0414
 20
10.0275
 40
0.0263
 50
-106.2422
 51
-42.5007
  0
ARC
  8
LAYER1
 62
     7
  6
CONTINUOUS
 10
4.0414
 20
10.0275
 40
0.0263
 50
42.5069
 51
-106.2425
  0
POLYLINE
  8
LAYER12
 62
     5
 66
     1
  6
CONTINUOUS
  0
VERTEX
  8
LAYER12
 62
     5
  6
CONTINUOUS
 10
3.0752
 20
10.5370
  0
VERTEX
  8
LAYER12
 62
     5
  6
CONTINUOUS
 10
3.0752
 20
10.5370
  0
SEQEND
  8
LAYER12
  0
POLYLINE
  8
LAYER12
 62
     5
 66
     1
  6
CONTINUOUS
  0
VERTEX
  8
LAYER12
 62
     5
  6
CONTINUOUS
 10
3.0752
 20
10.5370
  0
VERTEX
  8
LAYER12
 62
     5
  6
CONTINUOUS
 10
3.0766
 20
10.5370
  0
SEQEND
  8
LAYER12
  0
POLYLINE
  8
LAYER12
 62
     5
 66
     1
  6
CONTINUOUS
  0
VERTEX
  8
LAYER12
 62
     5
  6
CONTINUOUS
 10
3.0766
 20
10.5370
  0
VERTEX
  8
LAYER12
 62
     5
  6
CONTINUOUS
 10
4.0608
 20
10.5370
  0
SEQEND
  8
LAYER12
  0
POLYLINE
  8
LAYER12
 62
     5
 66
     1
  6
CONTINUOUS
  0
VERTEX
  8
LAYER12
 62
     5
  6
CONTINUOUS
 10
4.0608
 20
9.5139
  0
VERTEX
  8
LAYER12
 62
     5
  6
CONTINUOUS
 10
3.1806
 20
9.5139
  0
SEQEND
  8
LAYER12
  0
POLYLINE
  8
LAYER12
 62
     5
 66
     1
  6
CONTINUOUS
  0
VERTEX
  8
LAYER12
 62
     5
  6
CONTINUOUS
 10
3.1806
 20
9.5139
  0
VERTEX
  8
LAYER12
 62
     5
  6
CONTINUOUS
 10
3.0766
 20
9.5139
  0
SEQEND
  8
LAYER12
  0
POLYLINE
  8
LAYER12
 62
     5
 66
     1
  6
CONTINUOUS
  0
VERTEX
  8
LAYER12
 62
     5
  6
CONTINUOUS
 10
3.0752
 20
9.5131
  0
VERTEX
  8
LAYER12
 62
     5
  6
CONTINUOUS
 10
3.0752
 20
9.5139
  0
SEQEND
  8
LAYER12
  0
POLYLINE
  8
LAYER12
 62
     5
 66
     1
  6
CONTINUOUS
  0
VERTEX
  8
LAYER12
 62
     5
  6
CONTINUOUS
 10
3.0752
 20
9.5139
  0
VERTEX
  8
LAYER12
 62
     5
  6
CONTINUOUS
 10
3.0752
 20
9.5139
  0
SEQEND
  8
LAYER12
  0
POLYLINE
  8
LAYER12
 62
     5
 66
     1
  6
CONTINUOUS
  0
VERTEX
  8
LAYER12
 62
     5
  6
CONTINUOUS
 10
3.0752
 20
9.5139
  0
VERTEX
  8
LAYER12
 62
     5
  6
CONTINUOUS
 10
3.0752
 20
9.5139
  0
SEQEND
  8
LAYER12
  0
POLYLINE
  8
LAYER12
 62
     5
 66
     1
  6
CONTINUOUS
  0
VERTEX
  8
LAYER12
 62
     5
  6
CONTINUOUS
 10
3.0752
 20
9.5139
  0
VERTEX
  8
LAYER12
 62
     5
  6
CONTINUOUS
 10
3.0752
 20
10.5370
  0
SEQEND
  8
LAYER12
  0
POLYLINE
  8
LAYER12
 62
     5
 66
     1
  6
CONTINUOUS
  0
VERTEX
  8
LAYER12
 62
     5
  6
CONTINUOUS
 10
3.0766
 20
9.5139
  0
VERTEX
  8
LAYER12
 62
     5
  6
CONTINUOUS
 10
3.0752
 20
9.5139
  0
SEQEND
  8
LAYER12
  0
POLYLINE
  8
LAYER12
 62
     5
 66
     1
  6
CONTINUOUS
  0
VERTEX
  8
LAYER12
 62
     5
  6
CONTINUOUS
 10
3.0752
 20
9.5139
  0
VERTEX
  8
LAYER12
 62
     5
  6
CONTINUOUS
 10
3.0752
 20
9.5139
  0
SEQEND
  8
LAYER12
  0
POLYLINE
  8
LAYER12
 62
     5
 66
     1
  6
CONTINUOUS
  0
VERTEX
  8
LAYER12
 62
     5
  6
CONTINUOUS
 10
3.0752
 20
9.5139
  0
VERTEX
  8
LAYER12
 62
     5
  6
CONTINUOUS
 10
3.0752
 20
9.5131
  0
SEQEND
  8
LAYER12
  0
POLYLINE
  8
LAYER12
 62
     5
 66
     1
  6
CONTINUOUS
  0
VERTEX
  8
LAYER12
 62
     5
  6
CONTINUOUS
 10
4.0589
 20
10.5370
  0
VERTEX
  8
LAYER12
 62
     5
  6
CONTINUOUS
 10
4.0589
 20
9.5139
  0
SEQEND
  8
LAYER12
  0
POLYLINE
  8
LAYER12
 62
     5
 66
     1
  6
CONTINUOUS
  0
VERTEX
  8
LAYER12
 62
     5
  6
CONTINUOUS
 10
4.0589
 20
9.5139
  0
VERTEX
  8
LAYER12
 62
     5
  6
CONTINUOUS
 10
4.0589
 20
9.5139
  0
SEQEND
  8
LAYER12
  0
POLYLINE
  8
LAYER12
 62
     5
 66
     1
  6
CONTINUOUS
  0
VERTEX
  8
LAYER12
 62
     5
  6
CONTINUOUS
 10
4.0589
 20
9.5139
  0
VERTEX
  8
LAYER12
 62
     5
  6
CONTINUOUS
 10
4.0589
 20
9.5139
  0
SEQEND
  8
LAYER12
  0
ENDSEC
  0
EOF
