  0
SECTION
  2
HEADER
  9
$ACADVER
  1
AC1004
  9
$EXTMIN
 10
2.0522
 20
9.5131
  9
$EXTMAX
 10
3.0766
 20
10.5370
  9
$LIMMIN
 10
2.0522
 20
9.5131
  9
$LIMMAX
 10
3.0766
 20
10.5370
  9
$INSBASE
 10
0.0
 20
0.0
  9
$VIEWCTR
 10
7.21903
 20
4.5
  9
$VIEWSIZE
 40
9.0
  9
$SNAPMODE
 70
     0
  9
$SNAPUNIT
 10
1.0
 20
1.0
  9
$SNAPBASE
 10
0.0
 20
0.0
  9
$SNAPANG
 50
0.0
  9
$SNAPSTYLE
 70
     0
  9
$SNAPISOPAIR
 70
     0
  9
$GRIDMODE
 70
     0
  9
$GRIDUNIT
 10
0.0
 20
0.0
  9
$ORTHOMODE
 70
     0
  9
$REGENMODE
 70
     1
  9
$FILLMODE
 70
     1
  9
$QTEXTMODE
 70
     0
  9
$DRAGMODE
 70
     2
  9
$LTSCALE
 40
1.0
  9
$OSMODE
 70
     0
  9
$ATTMODE
 70
     1
  9
$TEXTSIZE
 40
0.2
  9
$TRACEWID
 40
0.05
  9
$TEXTSTYLE
  7
STANDARD
  9
$CLAYER
  8
0
  9
$CELTYPE
  6
BYLAYER
  9
$CECOLOR
 62
   256
  9
$DIMSCALE
 40
1.0
  9
$DIMASZ
 40
0.18
  9
$DIMEXO
 40
0.0625
  9
$DIMDLI
 40
0.38
  9
$DIMRND
 40
0.0
  9
$DIMDLE
 40
0.0
  9
$DIMEXE
 40
0.18
  9
$DIMTP
 40
0.0
  9
$DIMTM
 40
0.0
  9
$DIMTXT
 40
0.18
  9
$DIMCEN
 40
0.09
  9
$DIMTSZ
 40
0.0
  9
$DIMTOL
 70
     0
  9
$DIMLIM
 70
     0
  9
$DIMTIH
 70
     1
  9
$DIMTOH
 70
     1
  9
$DIMSE1
 70
     0
  9
$DIMSE2
 70
     0
  9
$DIMTAD
 70
     0
  9
$DIMZIN
 70
     0
  9
$DIMBLK
  1

  9
$DIMASO
 70
     1
  9
$DIMSHO
 70
     0
  9
$DIMPOST
  1

  9
$DIMAPOST
  1

  9
$DIMALT
 70
     0
  9
$DIMALTD
 70
     2
  9
$DIMALTF
 40
25.4
  9
$DIMLFAC
 40
1.0
  9
$LUNITS
 70
     2
  9
$LUPREC
 70
     4
  9
$AXISMODE
 70
     0
  9
$AXISUNIT
 10
0.0
 20
0.0
  9
$SKETCHINC
 40
0.1
  9
$FILLETRAD
 40
0.0
  9
$AUNITS
 70
     0
  9
$AUPREC
 70
     0
  9
$MENU
  1
acad
  9
$ELEVATION
 40
0.0
  9
$THICKNESS
 40
0.0
  9
$VIEWDIR
 10
0.0
 20
0.0
 30
1.0
  9
$LIMCHECK
 70
     0
  9
$BLIPMODE
 70
     1
  9
$CHAMFERA
 40
0.0
  9
$CHAMFERB
 40
0.0
  9
$FASTZOOM
 70
     1
  9
$SKPOLY
 70
     0
  9
$TDCREATE
 40
2447222.5666886573
  9
$TDUPDATE
 40
2447222.5666886573
  9
$TDINDWG
 40
0.0000000000
  9
$TDUSRTIMER
 40
0.0000000000
  9
$USRTIMER
 70
     1
  9
$ANGBASE
 50
0.0
  9
$ANGDIR
 70
     0
  9
$PDMODE
 70
     0
  9
$PDSIZE
 40
0.0
  9
$PLINEWID
 40
0.0
  9
$COORDS
 70
     0
  9
$SPLFRAME
 70
     0
  9
$SPLINESEGS
 70
     8
  9
$ATTDIA
 70
     0
  9
$ATTREQ
 70
     1
  9
$USERI1
 70
     0
  9
$USERI2
 70
     0
  9
$USERI3
 70
     0
  9
$USERI4
 70
     0
  9
$USERI5
 70
     0
  9
$USERR1
 40
0.0
  9
$USERR2
 40
0.0
  9
$USERR3
 40
0.0
  9
$USERR4
 40
0.0
  9
$USERR5
 40
0.0
  0
ENDSEC
  0
SECTION
  2
TABLES
  0
TABLE
  2
LTYPE
 70
     13
  0
LTYPE
  2
CONTINUOUS
 70
    64
  3
Solid line
 72
    65
 73
     0
 40
0.0
  0
LTYPE
  2
DASHED
 70
    64
  3
__ __ __ __ __ __ __ __ __ __ __ __ __ __ __
 72
    65
 73
     2
 40
0.75
 49
0.5
 49
-0.25
  0
LTYPE
  2
HIDDEN
 70
    64
  3
_ _ _ _ _ _ _ _ _ _ _ _ _ _ _ _ _ _ _ _ _ _ _
 72
    65
 73
     2
 40
0.375
 49
0.25
 49
-0.125
  0
LTYPE
  2
CENTER
 70
    64
  3
____ _ ____ _ ____ _ ____ _ ____ _ ____ _ ____
 72
    65
 73
     4
 40
2.0
 49
1.25
 49
-0.25
 49
0.25
 49
-0.25
  0
LTYPE
  2
PHANTOM
 70
    64
  3
_____ _ _ _____ _ _ _____ _ _ _____ _ _ ____
 72
    65
 73
     6
 40
2.5
 49
1.25
 49
-0.25
 49
0.25
 49
-0.25
 49
0.25
 49
-0.25
  0
LTYPE
  2
DOT
 70
    64
  3
...............................................
 72
    65
 73
     2
 40
0.25
 49
0.0
 49
-0.25
  0
LTYPE
  2
DASHDOT
 70
    64
  3
__ . __ . __ . __ . __ . __ . __ . __ . __ . __
 72
    65
 73
     4
 40
1.0
 49
0.5
 49
-0.25
 49
0.0
 49
-0.25
  0
LTYPE
  2
BORDER
 70
    64
  3
__ __ . __ __ . __ __ . __ __ . __ __ . __ __
 72
    65
 73
     6
 40
1.75
 49
0.5
 49
-0.25
 49
0.5
 49
-0.25
 49
0.0
 49
-0.25
  0
LTYPE
  2
DIVIDE
 70
    64
  3
__ . . __ . . __ . . __ . . __ . . __ . . __
 72
    65
 73
     6
 40
1.25
 49
0.5
 49
-0.25
 49
0.0
 49
-0.25
 49
0.0
 49
-0.25
  0
LTYPE
  2
DCTYPE1
 70
    64
  3
__ . . __ . . __ . . __ . . __ . . __ . . __
 72
    65
 73
     8
 40
2.5
 49
0.5
 49
-0.25
 49
0.125
 49
-0.25
 49
0.25
 49
-0.25
 49
0.125
 49
-0.25
  0
LTYPE
  2
DCTYPE2
 70
    64
  3
__ . . __ . . __ . . __ . . __ . . __ . . __
 72
    65
 73
     6
 40
2.05
 49
1.0
 49
-0.3
 49
0.15
 49
-0.15
 49
0.15
 49
-0.3
  0
LTYPE
  2
DCTYPE3
 70
    64
  3
__ . . __ . . __ . . __ . . __ . . __ . . __
 72
    65
 73
     6
 40
2.5
 49
0.8
 49
-0.2
 49
0.8
 49
-0.2
 49
0.3
 49
-0.2
  0
LTYPE
  2
DCTYPE4
 70
    64
  3
__ . . __ . . __ . . __ . . __ . . __ . . __
 72
    65
 73
     10
 40
3.97
 49
1.75
 49
-0.3
 49
0.3
 49
-0.3
 49
0.06
 49
-0.3
 49
0.06
 49
-0.3
 49
0.3
 49
-0.3
  0
ENDTAB
  0
TABLE
  2
LAYER
 70
    153
  0
LAYER
  2
LAYER1
 70
 64
 62
     7
  6
CONTINUOUS
  0
LAYER
  2
LAYER12
 70
 64
 62
     5
  6
CONTINUOUS
  0
ENDTAB
  0
ENDSEC
  0
SECTION
  2
BLOCKS
  0
ENDSEC
  0
SECTION
  2
ENTITIES
  0
CIRCLE
  8
LAYER1
 62
     7
  6
CONTINUOUS
 10
2.2673
 20
10.1390
 40
0.0201
  0
CIRCLE
  8
LAYER1
 62
     7
  6
CONTINUOUS
 10
2.3792
 20
9.6721
 40
0.0203
  0
POLYLINE
  8
LAYER1
 62
     7
 66
     1
  6
CONTINUOUS
  0
VERTEX
  8
LAYER1
 62
     7
  6
CONTINUOUS
 10
2.7802
 20
9.5294
  0
VERTEX
  8
LAYER1
 62
     7
  6
CONTINUOUS
 10
2.7796
 20
9.5301
  0
VERTEX
  8
LAYER1
 62
     7
  6
CONTINUOUS
 10
2.7789
 20
9.5308
  0
VERTEX
  8
LAYER1
 62
     7
  6
CONTINUOUS
 10
2.7783
 20
9.5316
  0
VERTEX
  8
LAYER1
 62
     7
  6
CONTINUOUS
 10
2.7777
 20
9.5322
  0
VERTEX
  8
LAYER1
 62
     7
  6
CONTINUOUS
 10
2.7771
 20
9.5329
  0
VERTEX
  8
LAYER1
 62
     7
  6
CONTINUOUS
 10
2.7765
 20
9.5335
  0
VERTEX
  8
LAYER1
 62
     7
  6
CONTINUOUS
 10
2.7760
 20
9.5341
  0
VERTEX
  8
LAYER1
 62
     7
  6
CONTINUOUS
 10
2.7755
 20
9.5346
  0
VERTEX
  8
LAYER1
 62
     7
  6
CONTINUOUS
 10
2.7751
 20
9.5351
  0
VERTEX
  8
LAYER1
 62
     7
  6
CONTINUOUS
 10
2.7748
 20
9.5355
  0
VERTEX
  8
LAYER1
 62
     7
  6
CONTINUOUS
 10
2.7745
 20
9.5358
  0
VERTEX
  8
LAYER1
 62
     7
  6
CONTINUOUS
 10
2.7743
 20
9.5360
  0
VERTEX
  8
LAYER1
 62
     7
  6
CONTINUOUS
 10
2.7742
 20
9.5361
  0
VERTEX
  8
LAYER1
 62
     7
  6
CONTINUOUS
 10
2.7741
 20
9.5361
  0
VERTEX
  8
LAYER1
 62
     7
  6
CONTINUOUS
 10
2.7741
 20
9.5362
  0
VERTEX
  8
LAYER1
 62
     7
  6
CONTINUOUS
 10
2.7741
 20
9.5362
  0
VERTEX
  8
LAYER1
 62
     7
  6
CONTINUOUS
 10
2.7741
 20
9.5362
  0
VERTEX
  8
LAYER1
 62
     7
  6
CONTINUOUS
 10
2.7741
 20
9.5362
  0
VERTEX
  8
LAYER1
 62
     7
  6
CONTINUOUS
 10
2.7741
 20
9.5362
  0
VERTEX
  8
LAYER1
 62
     7
  6
CONTINUOUS
 10
2.7741
 20
9.5362
  0
VERTEX
  8
LAYER1
 62
     7
  6
CONTINUOUS
 10
2.7742
 20
9.5361
  0
VERTEX
  8
LAYER1
 62
     7
  6
CONTINUOUS
 10
2.7742
 20
9.5361
  0
VERTEX
  8
LAYER1
 62
     7
  6
CONTINUOUS
 10
2.7742
 20
9.5360
  0
VERTEX
  8
LAYER1
 62
     7
  6
CONTINUOUS
 10
2.7743
 20
9.5360
  0
SEQEND
  8
LAYER1
  0
POLYLINE
  8
LAYER1
 62
     7
 66
     1
  6
CONTINUOUS
  0
VERTEX
  8
LAYER1
 62
     7
  6
CONTINUOUS
 10
2.7743
 20
9.5360
  0
VERTEX
  8
LAYER1
 62
     7
  6
CONTINUOUS
 10
2.7735
 20
9.5369
  0
VERTEX
  8
LAYER1
 62
     7
  6
CONTINUOUS
 10
2.7728
 20
9.5378
  0
VERTEX
  8
LAYER1
 62
     7
  6
CONTINUOUS
 10
2.7721
 20
9.5387
  0
VERTEX
  8
LAYER1
 62
     7
  6
CONTINUOUS
 10
2.7714
 20
9.5395
  0
VERTEX
  8
LAYER1
 62
     7
  6
CONTINUOUS
 10
2.7706
 20
9.5403
  0
VERTEX
  8
LAYER1
 62
     7
  6
CONTINUOUS
 10
2.7699
 20
9.5411
  0
VERTEX
  8
LAYER1
 62
     7
  6
CONTINUOUS
 10
2.7691
 20
9.5418
  0
VERTEX
  8
LAYER1
 62
     7
  6
CONTINUOUS
 10
2.7683
 20
9.5425
  0
VERTEX
  8
LAYER1
 62
     7
  6
CONTINUOUS
 10
2.7675
 20
9.5431
  0
VERTEX
  8
LAYER1
 62
     7
  6
CONTINUOUS
 10
2.7667
 20
9.5436
  0
VERTEX
  8
LAYER1
 62
     7
  6
CONTINUOUS
 10
2.7659
 20
9.5440
  0
VERTEX
  8
LAYER1
 62
     7
  6
CONTINUOUS
 10
2.7650
 20
9.5444
  0
VERTEX
  8
LAYER1
 62
     7
  6
CONTINUOUS
 10
2.7636
 20
9.5447
  0
VERTEX
  8
LAYER1
 62
     7
  6
CONTINUOUS
 10
2.7620
 20
9.5448
  0
VERTEX
  8
LAYER1
 62
     7
  6
CONTINUOUS
 10
2.7605
 20
9.5446
  0
VERTEX
  8
LAYER1
 62
     7
  6
CONTINUOUS
 10
2.7589
 20
9.5443
  0
VERTEX
  8
LAYER1
 62
     7
  6
CONTINUOUS
 10
2.7572
 20
9.5438
  0
VERTEX
  8
LAYER1
 62
     7
  6
CONTINUOUS
 10
2.7555
 20
9.5432
  0
VERTEX
  8
LAYER1
 62
     7
  6
CONTINUOUS
 10
2.7538
 20
9.5426
  0
VERTEX
  8
LAYER1
 62
     7
  6
CONTINUOUS
 10
2.7521
 20
9.5418
  0
VERTEX
  8
LAYER1
 62
     7
  6
CONTINUOUS
 10
2.7503
 20
9.5411
  0
VERTEX
  8
LAYER1
 62
     7
  6
CONTINUOUS
 10
2.7485
 20
9.5404
  0
VERTEX
  8
LAYER1
 62
     7
  6
CONTINUOUS
 10
2.7467
 20
9.5397
  0
VERTEX
  8
LAYER1
 62
     7
  6
CONTINUOUS
 10
2.7449
 20
9.5392
  0
VERTEX
  8
LAYER1
 62
     7
  6
CONTINUOUS
 10
2.7418
 20
9.5385
  0
VERTEX
  8
LAYER1
 62
     7
  6
CONTINUOUS
 10
2.7387
 20
9.5381
  0
VERTEX
  8
LAYER1
 62
     7
  6
CONTINUOUS
 10
2.7355
 20
9.5381
  0
VERTEX
  8
LAYER1
 62
     7
  6
CONTINUOUS
 10
2.7325
 20
9.5384
  0
VERTEX
  8
LAYER1
 62
     7
  6
CONTINUOUS
 10
2.7294
 20
9.5390
  0
VERTEX
  8
LAYER1
 62
     7
  6
CONTINUOUS
 10
2.7264
 20
9.5398
  0
VERTEX
  8
LAYER1
 62
     7
  6
CONTINUOUS
 10
2.7235
 20
9.5409
  0
VERTEX
  8
LAYER1
 62
     7
  6
CONTINUOUS
 10
2.7206
 20
9.5422
  0
VERTEX
  8
LAYER1
 62
     7
  6
CONTINUOUS
 10
2.7177
 20
9.5436
  0
VERTEX
  8
LAYER1
 62
     7
  6
CONTINUOUS
 10
2.7149
 20
9.5453
  0
VERTEX
  8
LAYER1
 62
     7
  6
CONTINUOUS
 10
2.7123
 20
9.5471
  0
VERTEX
  8
LAYER1
 62
     7
  6
CONTINUOUS
 10
2.7096
 20
9.5489
  0
VERTEX
  8
LAYER1
 62
     7
  6
CONTINUOUS
 10
2.7074
 20
9.5507
  0
VERTEX
  8
LAYER1
 62
     7
  6
CONTINUOUS
 10
2.7053
 20
9.5525
  0
VERTEX
  8
LAYER1
 62
     7
  6
CONTINUOUS
 10
2.7032
 20
9.5543
  0
VERTEX
  8
LAYER1
 62
     7
  6
CONTINUOUS
 10
2.7012
 20
9.5563
  0
VERTEX
  8
LAYER1
 62
     7
  6
CONTINUOUS
 10
2.6994
 20
9.5583
  0
VERTEX
  8
LAYER1
 62
     7
  6
CONTINUOUS
 10
2.6976
 20
9.5603
  0
VERTEX
  8
LAYER1
 62
     7
  6
CONTINUOUS
 10
2.6959
 20
9.5624
  0
VERTEX
  8
LAYER1
 62
     7
  6
CONTINUOUS
 10
2.6943
 20
9.5646
  0
VERTEX
  8
LAYER1
 62
     7
  6
CONTINUOUS
 10
2.6929
 20
9.5669
  0
VERTEX
  8
LAYER1
 62
     7
  6
CONTINUOUS
 10
2.6916
 20
9.5692
  0
VERTEX
  8
LAYER1
 62
     7
  6
CONTINUOUS
 10
2.6904
 20
9.5715
  0
VERTEX
  8
LAYER1
 62
     7
  6
CONTINUOUS
 10
2.6893
 20
9.5739
  0
VERTEX
  8
LAYER1
 62
     7
  6
CONTINUOUS
 10
2.6885
 20
9.5763
  0
VERTEX
  8
LAYER1
 62
     7
  6
CONTINUOUS
 10
2.6877
 20
9.5787
  0
VERTEX
  8
LAYER1
 62
     7
  6
CONTINUOUS
 10
2.6871
 20
9.5811
  0
VERTEX
  8
LAYER1
 62
     7
  6
CONTINUOUS
 10
2.6865
 20
9.5836
  0
VERTEX
  8
LAYER1
 62
     7
  6
CONTINUOUS
 10
2.6860
 20
9.5861
  0
VERTEX
  8
LAYER1
 62
     7
  6
CONTINUOUS
 10
2.6856
 20
9.5886
  0
VERTEX
  8
LAYER1
 62
     7
  6
CONTINUOUS
 10
2.6853
 20
9.5912
  0
VERTEX
  8
LAYER1
 62
     7
  6
CONTINUOUS
 10
2.6850
 20
9.5937
  0
VERTEX
  8
LAYER1
 62
     7
  6
CONTINUOUS
 10
2.6847
 20
9.5963
  0
VERTEX
  8
LAYER1
 62
     7
  6
CONTINUOUS
 10
2.6845
 20
9.5989
  0
VERTEX
  8
LAYER1
 62
     7
  6
CONTINUOUS
 10
2.6843
 20
9.6015
  0
VERTEX
  8
LAYER1
 62
     7
  6
CONTINUOUS
 10
2.6841
 20
9.6041
  0
VERTEX
  8
LAYER1
 62
     7
  6
CONTINUOUS
 10
2.6838
 20
9.6071
  0
VERTEX
  8
LAYER1
 62
     7
  6
CONTINUOUS
 10
2.6835
 20
9.6101
  0
VERTEX
  8
LAYER1
 62
     7
  6
CONTINUOUS
 10
2.6832
 20
9.6130
  0
VERTEX
  8
LAYER1
 62
     7
  6
CONTINUOUS
 10
2.6828
 20
9.6160
  0
VERTEX
  8
LAYER1
 62
     7
  6
CONTINUOUS
 10
2.6825
 20
9.6189
  0
VERTEX
  8
LAYER1
 62
     7
  6
CONTINUOUS
 10
2.6820
 20
9.6219
  0
VERTEX
  8
LAYER1
 62
     7
  6
CONTINUOUS
 10
2.6816
 20
9.6248
  0
VERTEX
  8
LAYER1
 62
     7
  6
CONTINUOUS
 10
2.6811
 20
9.6277
  0
VERTEX
  8
LAYER1
 62
     7
  6
CONTINUOUS
 10
2.6806
 20
9.6306
  0
VERTEX
  8
LAYER1
 62
     7
  6
CONTINUOUS
 10
2.6800
 20
9.6335
  0
VERTEX
  8
LAYER1
 62
     7
  6
CONTINUOUS
 10
2.6794
 20
9.6364
  0
VERTEX
  8
LAYER1
 62
     7
  6
CONTINUOUS
 10
2.6787
 20
9.6393
  0
VERTEX
  8
LAYER1
 62
     7
  6
CONTINUOUS
 10
2.6777
 20
9.6435
  0
VERTEX
  8
LAYER1
 62
     7
  6
CONTINUOUS
 10
2.6765
 20
9.6477
  0
VERTEX
  8
LAYER1
 62
     7
  6
CONTINUOUS
 10
2.6752
 20
9.6518
  0
VERTEX
  8
LAYER1
 62
     7
  6
CONTINUOUS
 10
2.6738
 20
9.6560
  0
VERTEX
  8
LAYER1
 62
     7
  6
CONTINUOUS
 10
2.6725
 20
9.6602
  0
VERTEX
  8
LAYER1
 62
     7
  6
CONTINUOUS
 10
2.6710
 20
9.6643
  0
VERTEX
  8
LAYER1
 62
     7
  6
CONTINUOUS
 10
2.6696
 20
9.6685
  0
VERTEX
  8
LAYER1
 62
     7
  6
CONTINUOUS
 10
2.6682
 20
9.6726
  0
VERTEX
  8
LAYER1
 62
     7
  6
CONTINUOUS
 10
2.6669
 20
9.6768
  0
VERTEX
  8
LAYER1
 62
     7
  6
CONTINUOUS
 10
2.6656
 20
9.6810
  0
VERTEX
  8
LAYER1
 62
     7
  6
CONTINUOUS
 10
2.6644
 20
9.6852
  0
VERTEX
  8
LAYER1
 62
     7
  6
CONTINUOUS
 10
2.6632
 20
9.6894
  0
VERTEX
  8
LAYER1
 62
     7
  6
CONTINUOUS
 10
2.6623
 20
9.6936
  0
VERTEX
  8
LAYER1
 62
     7
  6
CONTINUOUS
 10
2.6613
 20
9.6978
  0
VERTEX
  8
LAYER1
 62
     7
  6
CONTINUOUS
 10
2.6605
 20
9.7020
  0
VERTEX
  8
LAYER1
 62
     7
  6
CONTINUOUS
 10
2.6597
 20
9.7062
  0
VERTEX
  8
LAYER1
 62
     7
  6
CONTINUOUS
 10
2.6590
 20
9.7104
  0
VERTEX
  8
LAYER1
 62
     7
  6
CONTINUOUS
 10
2.6582
 20
9.7146
  0
VERTEX
  8
LAYER1
 62
     7
  6
CONTINUOUS
 10
2.6575
 20
9.7188
  0
VERTEX
  8
LAYER1
 62
     7
  6
CONTINUOUS
 10
2.6567
 20
9.7230
  0
VERTEX
  8
LAYER1
 62
     7
  6
CONTINUOUS
 10
2.6558
 20
9.7272
  0
VERTEX
  8
LAYER1
 62
     7
  6
CONTINUOUS
 10
2.6549
 20
9.7314
  0
VERTEX
  8
LAYER1
 62
     7
  6
CONTINUOUS
 10
2.6539
 20
9.7355
  0
VERTEX
  8
LAYER1
 62
     7
  6
CONTINUOUS
 10
2.6528
 20
9.7396
  0
VERTEX
  8
LAYER1
 62
     7
  6
CONTINUOUS
 10
2.6513
 20
9.7443
  0
VERTEX
  8
LAYER1
 62
     7
  6
CONTINUOUS
 10
2.6497
 20
9.7489
  0
VERTEX
  8
LAYER1
 62
     7
  6
CONTINUOUS
 10
2.6480
 20
9.7535
  0
VERTEX
  8
LAYER1
 62
     7
  6
CONTINUOUS
 10
2.6462
 20
9.7581
  0
VERTEX
  8
LAYER1
 62
     7
  6
CONTINUOUS
 10
2.6443
 20
9.7627
  0
VERTEX
  8
LAYER1
 62
     7
  6
CONTINUOUS
 10
2.6425
 20
9.7672
  0
VERTEX
  8
LAYER1
 62
     7
  6
CONTINUOUS
 10
2.6406
 20
9.7718
  0
VERTEX
  8
LAYER1
 62
     7
  6
CONTINUOUS
 10
2.6387
 20
9.7763
  0
VERTEX
  8
LAYER1
 62
     7
  6
CONTINUOUS
 10
2.6369
 20
9.7809
  0
VERTEX
  8
LAYER1
 62
     7
  6
CONTINUOUS
 10
2.6352
 20
9.7855
  0
VERTEX
  8
LAYER1
 62
     7
  6
CONTINUOUS
 10
2.6336
 20
9.7901
  0
VERTEX
  8
LAYER1
 62
     7
  6
CONTINUOUS
 10
2.6322
 20
9.7948
  0
VERTEX
  8
LAYER1
 62
     7
  6
CONTINUOUS
 10
2.6311
 20
9.7989
  0
VERTEX
  8
LAYER1
 62
     7
  6
CONTINUOUS
 10
2.6302
 20
9.8030
  0
VERTEX
  8
LAYER1
 62
     7
  6
CONTINUOUS
 10
2.6294
 20
9.8071
  0
VERTEX
  8
LAYER1
 62
     7
  6
CONTINUOUS
 10
2.6287
 20
9.8112
  0
VERTEX
  8
LAYER1
 62
     7
  6
CONTINUOUS
 10
2.6281
 20
9.8154
  0
VERTEX
  8
LAYER1
 62
     7
  6
CONTINUOUS
 10
2.6276
 20
9.8196
  0
VERTEX
  8
LAYER1
 62
     7
  6
CONTINUOUS
 10
2.6272
 20
9.8238
  0
VERTEX
  8
LAYER1
 62
     7
  6
CONTINUOUS
 10
2.6270
 20
9.8280
  0
VERTEX
  8
LAYER1
 62
     7
  6
CONTINUOUS
 10
2.6268
 20
9.8323
  0
VERTEX
  8
LAYER1
 62
     7
  6
CONTINUOUS
 10
2.6267
 20
9.8365
  0
VERTEX
  8
LAYER1
 62
     7
  6
CONTINUOUS
 10
2.6267
 20
9.8408
  0
VERTEX
  8
LAYER1
 62
     7
  6
CONTINUOUS
 10
2.6268
 20
9.8451
  0
VERTEX
  8
LAYER1
 62
     7
  6
CONTINUOUS
 10
2.6269
 20
9.8485
  0
VERTEX
  8
LAYER1
 62
     7
  6
CONTINUOUS
 10
2.6270
 20
9.8519
  0
VERTEX
  8
LAYER1
 62
     7
  6
CONTINUOUS
 10
2.6272
 20
9.8553
  0
VERTEX
  8
LAYER1
 62
     7
  6
CONTINUOUS
 10
2.6274
 20
9.8587
  0
VERTEX
  8
LAYER1
 62
     7
  6
CONTINUOUS
 10
2.6275
 20
9.8621
  0
VERTEX
  8
LAYER1
 62
     7
  6
CONTINUOUS
 10
2.6276
 20
9.8655
  0
VERTEX
  8
LAYER1
 62
     7
  6
CONTINUOUS
 10
2.6276
 20
9.8689
  0
VERTEX
  8
LAYER1
 62
     7
  6
CONTINUOUS
 10
2.6276
 20
9.8722
  0
VERTEX
  8
LAYER1
 62
     7
  6
CONTINUOUS
 10
2.6275
 20
9.8755
  0
VERTEX
  8
LAYER1
 62
     7
  6
CONTINUOUS
 10
2.6273
 20
9.8788
  0
VERTEX
  8
LAYER1
 62
     7
  6
CONTINUOUS
 10
2.6269
 20
9.8821
  0
VERTEX
  8
LAYER1
 62
     7
  6
CONTINUOUS
 10
2.6265
 20
9.8853
  0
VERTEX
  8
LAYER1
 62
     7
  6
CONTINUOUS
 10
2.6259
 20
9.8882
  0
VERTEX
  8
LAYER1
 62
     7
  6
CONTINUOUS
 10
2.6252
 20
9.8911
  0
VERTEX
  8
LAYER1
 62
     7
  6
CONTINUOUS
 10
2.6244
 20
9.8940
  0
VERTEX
  8
LAYER1
 62
     7
  6
CONTINUOUS
 10
2.6236
 20
9.8969
  0
VERTEX
  8
LAYER1
 62
     7
  6
CONTINUOUS
 10
2.6227
 20
9.8997
  0
VERTEX
  8
LAYER1
 62
     7
  6
CONTINUOUS
 10
2.6217
 20
9.9026
  0
VERTEX
  8
LAYER1
 62
     7
  6
CONTINUOUS
 10
2.6208
 20
9.9055
  0
VERTEX
  8
LAYER1
 62
     7
  6
CONTINUOUS
 10
2.6198
 20
9.9084
  0
VERTEX
  8
LAYER1
 62
     7
  6
CONTINUOUS
 10
2.6188
 20
9.9114
  0
VERTEX
  8
LAYER1
 62
     7
  6
CONTINUOUS
 10
2.6179
 20
9.9143
  0
VERTEX
  8
LAYER1
 62
     7
  6
CONTINUOUS
 10
2.6170
 20
9.9174
  0
VERTEX
  8
LAYER1
 62
     7
  6
CONTINUOUS
 10
2.6161
 20
9.9205
  0
VERTEX
  8
LAYER1
 62
     7
  6
CONTINUOUS
 10
2.6155
 20
9.9230
  0
VERTEX
  8
LAYER1
 62
     7
  6
CONTINUOUS
 10
2.6149
 20
9.9256
  0
VERTEX
  8
LAYER1
 62
     7
  6
CONTINUOUS
 10
2.6144
 20
9.9283
  0
VERTEX
  8
LAYER1
 62
     7
  6
CONTINUOUS
 10
2.6140
 20
9.9309
  0
VERTEX
  8
LAYER1
 62
     7
  6
CONTINUOUS
 10
2.6138
 20
9.9335
  0
VERTEX
  8
LAYER1
 62
     7
  6
CONTINUOUS
 10
2.6136
 20
9.9361
  0
VERTEX
  8
LAYER1
 62
     7
  6
CONTINUOUS
 10
2.6136
 20
9.9387
  0
VERTEX
  8
LAYER1
 62
     7
  6
CONTINUOUS
 10
2.6137
 20
9.9412
  0
VERTEX
  8
LAYER1
 62
     7
  6
CONTINUOUS
 10
2.6140
 20
9.9437
  0
VERTEX
  8
LAYER1
 62
     7
  6
CONTINUOUS
 10
2.6144
 20
9.9461
  0
VERTEX
  8
LAYER1
 62
     7
  6
CONTINUOUS
 10
2.6150
 20
9.9484
  0
VERTEX
  8
LAYER1
 62
     7
  6
CONTINUOUS
 10
2.6159
 20
9.9506
  0
VERTEX
  8
LAYER1
 62
     7
  6
CONTINUOUS
 10
2.6171
 20
9.9531
  0
VERTEX
  8
LAYER1
 62
     7
  6
CONTINUOUS
 10
2.6186
 20
9.9555
  0
VERTEX
  8
LAYER1
 62
     7
  6
CONTINUOUS
 10
2.6204
 20
9.9578
  0
VERTEX
  8
LAYER1
 62
     7
  6
CONTINUOUS
 10
2.6223
 20
9.9599
  0
VERTEX
  8
LAYER1
 62
     7
  6
CONTINUOUS
 10
2.6244
 20
9.9620
  0
VERTEX
  8
LAYER1
 62
     7
  6
CONTINUOUS
 10
2.6267
 20
9.9640
  0
VERTEX
  8
LAYER1
 62
     7
  6
CONTINUOUS
 10
2.6290
 20
9.9660
  0
VERTEX
  8
LAYER1
 62
     7
  6
CONTINUOUS
 10
2.6314
 20
9.9680
  0
VERTEX
  8
LAYER1
 62
     7
  6
CONTINUOUS
 10
2.6338
 20
9.9700
  0
VERTEX
  8
LAYER1
 62
     7
  6
CONTINUOUS
 10
2.6362
 20
9.9719
  0
VERTEX
  8
LAYER1
 62
     7
  6
CONTINUOUS
 10
2.6385
 20
9.9739
  0
VERTEX
  8
LAYER1
 62
     7
  6
CONTINUOUS
 10
2.6408
 20
9.9760
  0
VERTEX
  8
LAYER1
 62
     7
  6
CONTINUOUS
 10
2.6432
 20
9.9783
  0
VERTEX
  8
LAYER1
 62
     7
  6
CONTINUOUS
 10
2.6455
 20
9.9807
  0
VERTEX
  8
LAYER1
 62
     7
  6
CONTINUOUS
 10
2.6477
 20
9.9832
  0
VERTEX
  8
LAYER1
 62
     7
  6
CONTINUOUS
 10
2.6498
 20
9.9857
  0
VERTEX
  8
LAYER1
 62
     7
  6
CONTINUOUS
 10
2.6518
 20
9.9883
  0
VERTEX
  8
LAYER1
 62
     7
  6
CONTINUOUS
 10
2.6538
 20
9.9908
  0
VERTEX
  8
LAYER1
 62
     7
  6
CONTINUOUS
 10
2.6558
 20
9.9934
  0
VERTEX
  8
LAYER1
 62
     7
  6
CONTINUOUS
 10
2.6577
 20
9.9960
  0
VERTEX
  8
LAYER1
 62
     7
  6
CONTINUOUS
 10
2.6597
 20
9.9987
  0
VERTEX
  8
LAYER1
 62
     7
  6
CONTINUOUS
 10
2.6617
 20
10.0013
  0
VERTEX
  8
LAYER1
 62
     7
  6
CONTINUOUS
 10
2.6637
 20
10.0038
  0
VERTEX
  8
LAYER1
 62
     7
  6
CONTINUOUS
 10
2.6657
 20
10.0064
  0
VERTEX
  8
LAYER1
 62
     7
  6
CONTINUOUS
 10
2.6685
 20
10.0096
  0
VERTEX
  8
LAYER1
 62
     7
  6
CONTINUOUS
 10
2.6713
 20
10.0127
  0
VERTEX
  8
LAYER1
 62
     7
  6
CONTINUOUS
 10
2.6743
 20
10.0157
  0
VERTEX
  8
LAYER1
 62
     7
  6
CONTINUOUS
 10
2.6774
 20
10.0186
  0
VERTEX
  8
LAYER1
 62
     7
  6
CONTINUOUS
 10
2.6806
 20
10.0214
  0
VERTEX
  8
LAYER1
 62
     7
  6
CONTINUOUS
 10
2.6839
 20
10.0241
  0
VERTEX
  8
LAYER1
 62
     7
  6
CONTINUOUS
 10
2.6873
 20
10.0266
  0
VERTEX
  8
LAYER1
 62
     7
  6
CONTINUOUS
 10
2.6908
 20
10.0290
  0
VERTEX
  8
LAYER1
 62
     7
  6
CONTINUOUS
 10
2.6944
 20
10.0313
  0
VERTEX
  8
LAYER1
 62
     7
  6
CONTINUOUS
 10
2.6981
 20
10.0333
  0
VERTEX
  8
LAYER1
 62
     7
  6
CONTINUOUS
 10
2.7019
 20
10.0352
  0
VERTEX
  8
LAYER1
 62
     7
  6
CONTINUOUS
 10
2.7057
 20
10.0369
  0
VERTEX
  8
LAYER1
 62
     7
  6
CONTINUOUS
 10
2.7089
 20
10.0381
  0
VERTEX
  8
LAYER1
 62
     7
  6
CONTINUOUS
 10
2.7122
 20
10.0391
  0
VERTEX
  8
LAYER1
 62
     7
  6
CONTINUOUS
 10
2.7154
 20
10.0401
  0
VERTEX
  8
LAYER1
 62
     7
  6
CONTINUOUS
 10
2.7188
 20
10.0409
  0
VERTEX
  8
LAYER1
 62
     7
  6
CONTINUOUS
 10
2.7221
 20
10.0415
  0
VERTEX
  8
LAYER1
 62
     7
  6
CONTINUOUS
 10
2.7255
 20
10.0421
  0
VERTEX
  8
LAYER1
 62
     7
  6
CONTINUOUS
 10
2.7289
 20
10.0424
  0
VERTEX
  8
LAYER1
 62
     7
  6
CONTINUOUS
 10
2.7323
 20
10.0427
  0
VERTEX
  8
LAYER1
 62
     7
  6
CONTINUOUS
 10
2.7357
 20
10.0428
  0
VERTEX
  8
LAYER1
 62
     7
  6
CONTINUOUS
 10
2.7391
 20
10.0427
  0
VERTEX
  8
LAYER1
 62
     7
  6
CONTINUOUS
 10
2.7425
 20
10.0426
  0
VERTEX
  8
LAYER1
 62
     7
  6
CONTINUOUS
 10
2.7459
 20
10.0422
  0
VERTEX
  8
LAYER1
 62
     7
  6
CONTINUOUS
 10
2.7486
 20
10.0419
  0
VERTEX
  8
LAYER1
 62
     7
  6
CONTINUOUS
 10
2.7512
 20
10.0414
  0
VERTEX
  8
LAYER1
 62
     7
  6
CONTINUOUS
 10
2.7539
 20
10.0409
  0
VERTEX
  8
LAYER1
 62
     7
  6
CONTINUOUS
 10
2.7565
 20
10.0403
  0
VERTEX
  8
LAYER1
 62
     7
  6
CONTINUOUS
 10
2.7591
 20
10.0396
  0
VERTEX
  8
LAYER1
 62
     7
  6
CONTINUOUS
 10
2.7616
 20
10.0388
  0
VERTEX
  8
LAYER1
 62
     7
  6
CONTINUOUS
 10
2.7641
 20
10.0379
  0
VERTEX
  8
LAYER1
 62
     7
  6
CONTINUOUS
 10
2.7666
 20
10.0370
  0
VERTEX
  8
LAYER1
 62
     7
  6
CONTINUOUS
 10
2.7691
 20
10.0360
  0
VERTEX
  8
LAYER1
 62
     7
  6
CONTINUOUS
 10
2.7715
 20
10.0349
  0
VERTEX
  8
LAYER1
 62
     7
  6
CONTINUOUS
 10
2.7739
 20
10.0337
  0
VERTEX
  8
LAYER1
 62
     7
  6
CONTINUOUS
 10
2.7762
 20
10.0324
  0
VERTEX
  8
LAYER1
 62
     7
  6
CONTINUOUS
 10
2.7802
 20
10.0300
  0
VERTEX
  8
LAYER1
 62
     7
  6
CONTINUOUS
 10
2.7841
 20
10.0273
  0
VERTEX
  8
LAYER1
 62
     7
  6
CONTINUOUS
 10
2.7879
 20
10.0244
  0
VERTEX
  8
LAYER1
 62
     7
  6
CONTINUOUS
 10
2.7915
 20
10.0213
  0
VERTEX
  8
LAYER1
 62
     7
  6
CONTINUOUS
 10
2.7950
 20
10.0181
  0
VERTEX
  8
LAYER1
 62
     7
  6
CONTINUOUS
 10
2.7983
 20
10.0147
  0
VERTEX
  8
LAYER1
 62
     7
  6
CONTINUOUS
 10
2.8016
 20
10.0112
  0
VERTEX
  8
LAYER1
 62
     7
  6
CONTINUOUS
 10
2.8048
 20
10.0076
  0
VERTEX
  8
LAYER1
 62
     7
  6
CONTINUOUS
 10
2.8079
 20
10.0039
  0
VERTEX
  8
LAYER1
 62
     7
  6
CONTINUOUS
 10
2.8109
 20
10.0001
  0
VERTEX
  8
LAYER1
 62
     7
  6
CONTINUOUS
 10
2.8139
 20
9.9963
  0
VERTEX
  8
LAYER1
 62
     7
  6
CONTINUOUS
 10
2.8168
 20
9.9925
  0
VERTEX
  8
LAYER1
 62
     7
  6
CONTINUOUS
 10
2.8189
 20
9.9896
  0
VERTEX
  8
LAYER1
 62
     7
  6
CONTINUOUS
 10
2.8211
 20
9.9866
  0
VERTEX
  8
LAYER1
 62
     7
  6
CONTINUOUS
 10
2.8232
 20
9.9837
  0
VERTEX
  8
LAYER1
 62
     7
  6
CONTINUOUS
 10
2.8253
 20
9.9808
  0
VERTEX
  8
LAYER1
 62
     7
  6
CONTINUOUS
 10
2.8275
 20
9.9779
  0
VERTEX
  8
LAYER1
 62
     7
  6
CONTINUOUS
 10
2.8296
 20
9.9750
  0
VERTEX
  8
LAYER1
 62
     7
  6
CONTINUOUS
 10
2.8316
 20
9.9720
  0
VERTEX
  8
LAYER1
 62
     7
  6
CONTINUOUS
 10
2.8337
 20
9.9691
  0
VERTEX
  8
LAYER1
 62
     7
  6
CONTINUOUS
 10
2.8358
 20
9.9662
  0
VERTEX
  8
LAYER1
 62
     7
  6
CONTINUOUS
 10
2.8379
 20
9.9633
  0
VERTEX
  8
LAYER1
 62
     7
  6
CONTINUOUS
 10
2.8401
 20
9.9604
  0
VERTEX
  8
LAYER1
 62
     7
  6
CONTINUOUS
 10
2.8422
 20
9.9575
  0
VERTEX
  8
LAYER1
 62
     7
  6
CONTINUOUS
 10
2.8441
 20
9.9548
  0
VERTEX
  8
LAYER1
 62
     7
  6
CONTINUOUS
 10
2.8461
 20
9.9522
  0
VERTEX
  8
LAYER1
 62
     7
  6
CONTINUOUS
 10
2.8481
 20
9.9496
  0
VERTEX
  8
LAYER1
 62
     7
  6
CONTINUOUS
 10
2.8501
 20
9.9470
  0
VERTEX
  8
LAYER1
 62
     7
  6
CONTINUOUS
 10
2.8522
 20
9.9444
  0
VERTEX
  8
LAYER1
 62
     7
  6
CONTINUOUS
 10
2.8543
 20
9.9419
  0
VERTEX
  8
LAYER1
 62
     7
  6
CONTINUOUS
 10
2.8564
 20
9.9394
  0
VERTEX
  8
LAYER1
 62
     7
  6
CONTINUOUS
 10
2.8585
 20
9.9369
  0
VERTEX
  8
LAYER1
 62
     7
  6
CONTINUOUS
 10
2.8607
 20
9.9345
  0
VERTEX
  8
LAYER1
 62
     7
  6
CONTINUOUS
 10
2.8630
 20
9.9321
  0
VERTEX
  8
LAYER1
 62
     7
  6
CONTINUOUS
 10
2.8652
 20
9.9298
  0
VERTEX
  8
LAYER1
 62
     7
  6
CONTINUOUS
 10
2.8676
 20
9.9275
  0
VERTEX
  8
LAYER1
 62
     7
  6
CONTINUOUS
 10
2.8702
 20
9.9251
  0
VERTEX
  8
LAYER1
 62
     7
  6
CONTINUOUS
 10
2.8730
 20
9.9227
  0
VERTEX
  8
LAYER1
 62
     7
  6
CONTINUOUS
 10
2.8757
 20
9.9204
  0
VERTEX
  8
LAYER1
 62
     7
  6
CONTINUOUS
 10
2.8786
 20
9.9182
  0
VERTEX
  8
LAYER1
 62
     7
  6
CONTINUOUS
 10
2.8815
 20
9.9161
  0
VERTEX
  8
LAYER1
 62
     7
  6
CONTINUOUS
 10
2.8844
 20
9.9140
  0
VERTEX
  8
LAYER1
 62
     7
  6
CONTINUOUS
 10
2.8874
 20
9.9119
  0
VERTEX
  8
LAYER1
 62
     7
  6
CONTINUOUS
 10
2.8904
 20
9.9100
  0
VERTEX
  8
LAYER1
 62
     7
  6
CONTINUOUS
 10
2.8935
 20
9.9081
  0
VERTEX
  8
LAYER1
 62
     7
  6
CONTINUOUS
 10
2.8966
 20
9.9062
  0
VERTEX
  8
LAYER1
 62
     7
  6
CONTINUOUS
 10
2.8998
 20
9.9044
  0
VERTEX
  8
LAYER1
 62
     7
  6
CONTINUOUS
 10
2.9030
 20
9.9026
  0
VERTEX
  8
LAYER1
 62
     7
  6
CONTINUOUS
 10
2.9052
 20
9.9015
  0
VERTEX
  8
LAYER1
 62
     7
  6
CONTINUOUS
 10
2.9074
 20
9.9003
  0
VERTEX
  8
LAYER1
 62
     7
  6
CONTINUOUS
 10
2.9096
 20
9.8992
  0
VERTEX
  8
LAYER1
 62
     7
  6
CONTINUOUS
 10
2.9118
 20
9.8980
  0
VERTEX
  8
LAYER1
 62
     7
  6
CONTINUOUS
 10
2.9139
 20
9.8968
  0
VERTEX
  8
LAYER1
 62
     7
  6
CONTINUOUS
 10
2.9161
 20
9.8957
  0
VERTEX
  8
LAYER1
 62
     7
  6
CONTINUOUS
 10
2.9182
 20
9.8944
  0
VERTEX
  8
LAYER1
 62
     7
  6
CONTINUOUS
 10
2.9203
 20
9.8932
  0
VERTEX
  8
LAYER1
 62
     7
  6
CONTINUOUS
 10
2.9224
 20
9.8919
  0
VERTEX
  8
LAYER1
 62
     7
  6
CONTINUOUS
 10
2.9244
 20
9.8906
  0
VERTEX
  8
LAYER1
 62
     7
  6
CONTINUOUS
 10
2.9264
 20
9.8892
  0
VERTEX
  8
LAYER1
 62
     7
  6
CONTINUOUS
 10
2.9283
 20
9.8877
  0
VERTEX
  8
LAYER1
 62
     7
  6
CONTINUOUS
 10
2.9321
 20
9.8845
  0
VERTEX
  8
LAYER1
 62
     7
  6
CONTINUOUS
 10
2.9356
 20
9.8809
  0
VERTEX
  8
LAYER1
 62
     7
  6
CONTINUOUS
 10
2.9389
 20
9.8771
  0
VERTEX
  8
LAYER1
 62
     7
  6
CONTINUOUS
 10
2.9420
 20
9.8731
  0
VERTEX
  8
LAYER1
 62
     7
  6
CONTINUOUS
 10
2.9449
 20
9.8689
  0
VERTEX
  8
LAYER1
 62
     7
  6
CONTINUOUS
 10
2.9478
 20
9.8646
  0
VERTEX
  8
LAYER1
 62
     7
  6
CONTINUOUS
 10
2.9505
 20
9.8601
  0
VERTEX
  8
LAYER1
 62
     7
  6
CONTINUOUS
 10
2.9532
 20
9.8557
  0
VERTEX
  8
LAYER1
 62
     7
  6
CONTINUOUS
 10
2.9558
 20
9.8511
  0
VERTEX
  8
LAYER1
 62
     7
  6
CONTINUOUS
 10
2.9585
 20
9.8466
  0
VERTEX
  8
LAYER1
 62
     7
  6
CONTINUOUS
 10
2.9611
 20
9.8421
  0
VERTEX
  8
LAYER1
 62
     7
  6
CONTINUOUS
 10
2.9639
 20
9.8377
  0
VERTEX
  8
LAYER1
 62
     7
  6
CONTINUOUS
 10
2.9649
 20
9.8362
  0
VERTEX
  8
LAYER1
 62
     7
  6
CONTINUOUS
 10
2.9659
 20
9.8347
  0
VERTEX
  8
LAYER1
 62
     7
  6
CONTINUOUS
 10
2.9669
 20
9.8332
  0
VERTEX
  8
LAYER1
 62
     7
  6
CONTINUOUS
 10
2.9679
 20
9.8317
  0
VERTEX
  8
LAYER1
 62
     7
  6
CONTINUOUS
 10
2.9690
 20
9.8302
  0
VERTEX
  8
LAYER1
 62
     7
  6
CONTINUOUS
 10
2.9700
 20
9.8287
  0
VERTEX
  8
LAYER1
 62
     7
  6
CONTINUOUS
 10
2.9711
 20
9.8272
  0
VERTEX
  8
LAYER1
 62
     7
  6
CONTINUOUS
 10
2.9721
 20
9.8258
  0
VERTEX
  8
LAYER1
 62
     7
  6
CONTINUOUS
 10
2.9732
 20
9.8243
  0
VERTEX
  8
LAYER1
 62
     7
  6
CONTINUOUS
 10
2.9742
 20
9.8229
  0
SEQEND
  8
LAYER1
  0
POLYLINE
  8
LAYER1
 62
     7
 66
     1
  6
CONTINUOUS
  0
VERTEX
  8
LAYER1
 62
     7
  6
CONTINUOUS
 10
2.9742
 20
9.8229
  0
VERTEX
  8
LAYER1
 62
     7
  6
CONTINUOUS
 10
2.9753
 20
9.8214
  0
VERTEX
  8
LAYER1
 62
     7
  6
CONTINUOUS
 10
2.9764
 20
9.8200
  0
SEQEND
  8
LAYER1
  0
POLYLINE
  8
LAYER1
 62
     7
 66
     1
  6
CONTINUOUS
  0
VERTEX
  8
LAYER1
 62
     7
  6
CONTINUOUS
 10
2.9764
 20
9.8200
  0
VERTEX
  8
LAYER1
 62
     7
  6
CONTINUOUS
 10
2.9772
 20
9.8185
  0
VERTEX
  8
LAYER1
 62
     7
  6
CONTINUOUS
 10
2.9780
 20
9.8171
  0
VERTEX
  8
LAYER1
 62
     7
  6
CONTINUOUS
 10
2.9788
 20
9.8157
  0
VERTEX
  8
LAYER1
 62
     7
  6
CONTINUOUS
 10
2.9795
 20
9.8143
  0
VERTEX
  8
LAYER1
 62
     7
  6
CONTINUOUS
 10
2.9803
 20
9.8128
  0
VERTEX
  8
LAYER1
 62
     7
  6
CONTINUOUS
 10
2.9810
 20
9.8114
  0
VERTEX
  8
LAYER1
 62
     7
  6
CONTINUOUS
 10
2.9817
 20
9.8100
  0
VERTEX
  8
LAYER1
 62
     7
  6
CONTINUOUS
 10
2.9823
 20
9.8085
  0
VERTEX
  8
LAYER1
 62
     7
  6
CONTINUOUS
 10
2.9829
 20
9.8071
  0
VERTEX
  8
LAYER1
 62
     7
  6
CONTINUOUS
 10
2.9834
 20
9.8056
  0
VERTEX
  8
LAYER1
 62
     7
  6
CONTINUOUS
 10
2.9839
 20
9.8042
  0
VERTEX
  8
LAYER1
 62
     7
  6
CONTINUOUS
 10
2.9843
 20
9.8027
  0
VERTEX
  8
LAYER1
 62
     7
  6
CONTINUOUS
 10
2.9849
 20
9.7993
  0
VERTEX
  8
LAYER1
 62
     7
  6
CONTINUOUS
 10
2.9853
 20
9.7959
  0
VERTEX
  8
LAYER1
 62
     7
  6
CONTINUOUS
 10
2.9853
 20
9.7925
  0
VERTEX
  8
LAYER1
 62
     7
  6
CONTINUOUS
 10
2.9850
 20
9.7890
  0
VERTEX
  8
LAYER1
 62
     7
  6
CONTINUOUS
 10
2.9844
 20
9.7855
  0
VERTEX
  8
LAYER1
 62
     7
  6
CONTINUOUS
 10
2.9837
 20
9.7819
  0
VERTEX
  8
LAYER1
 62
     7
  6
CONTINUOUS
 10
2.9828
 20
9.7784
  0
VERTEX
  8
LAYER1
 62
     7
  6
CONTINUOUS
 10
2.9817
 20
9.7748
  0
VERTEX
  8
LAYER1
 62
     7
  6
CONTINUOUS
 10
2.9805
 20
9.7712
  0
VERTEX
  8
LAYER1
 62
     7
  6
CONTINUOUS
 10
2.9791
 20
9.7676
  0
VERTEX
  8
LAYER1
 62
     7
  6
CONTINUOUS
 10
2.9778
 20
9.7640
  0
VERTEX
  8
LAYER1
 62
     7
  6
CONTINUOUS
 10
2.9764
 20
9.7604
  0
SEQEND
  8
LAYER1
  0
POLYLINE
  8
LAYER1
 62
     7
 66
     1
  6
CONTINUOUS
  0
VERTEX
  8
LAYER1
 62
     7
  6
CONTINUOUS
 10
2.9764
 20
9.7604
  0
VERTEX
  8
LAYER1
 62
     7
  6
CONTINUOUS
 10
2.9762
 20
9.7597
  0
VERTEX
  8
LAYER1
 62
     7
  6
CONTINUOUS
 10
2.9760
 20
9.7590
  0
VERTEX
  8
LAYER1
 62
     7
  6
CONTINUOUS
 10
2.9759
 20
9.7584
  0
VERTEX
  8
LAYER1
 62
     7
  6
CONTINUOUS
 10
2.9757
 20
9.7577
  0
VERTEX
  8
LAYER1
 62
     7
  6
CONTINUOUS
 10
2.9755
 20
9.7570
  0
VERTEX
  8
LAYER1
 62
     7
  6
CONTINUOUS
 10
2.9754
 20
9.7563
  0
VERTEX
  8
LAYER1
 62
     7
  6
CONTINUOUS
 10
2.9752
 20
9.7557
  0
VERTEX
  8
LAYER1
 62
     7
  6
CONTINUOUS
 10
2.9751
 20
9.7550
  0
VERTEX
  8
LAYER1
 62
     7
  6
CONTINUOUS
 10
2.9750
 20
9.7543
  0
VERTEX
  8
LAYER1
 62
     7
  6
CONTINUOUS
 10
2.9748
 20
9.7536
  0
VERTEX
  8
LAYER1
 62
     7
  6
CONTINUOUS
 10
2.9747
 20
9.7530
  0
VERTEX
  8
LAYER1
 62
     7
  6
CONTINUOUS
 10
2.9746
 20
9.7523
  0
VERTEX
  8
LAYER1
 62
     7
  6
CONTINUOUS
 10
2.9744
 20
9.7503
  0
VERTEX
  8
LAYER1
 62
     7
  6
CONTINUOUS
 10
2.9743
 20
9.7483
  0
VERTEX
  8
LAYER1
 62
     7
  6
CONTINUOUS
 10
2.9742
 20
9.7463
  0
VERTEX
  8
LAYER1
 62
     7
  6
CONTINUOUS
 10
2.9743
 20
9.7443
  0
VERTEX
  8
LAYER1
 62
     7
  6
CONTINUOUS
 10
2.9744
 20
9.7423
  0
VERTEX
  8
LAYER1
 62
     7
  6
CONTINUOUS
 10
2.9746
 20
9.7403
  0
VERTEX
  8
LAYER1
 62
     7
  6
CONTINUOUS
 10
2.9748
 20
9.7383
  0
VERTEX
  8
LAYER1
 62
     7
  6
CONTINUOUS
 10
2.9750
 20
9.7363
  0
VERTEX
  8
LAYER1
 62
     7
  6
CONTINUOUS
 10
2.9753
 20
9.7343
  0
VERTEX
  8
LAYER1
 62
     7
  6
CONTINUOUS
 10
2.9757
 20
9.7323
  0
VERTEX
  8
LAYER1
 62
     7
  6
CONTINUOUS
 10
2.9760
 20
9.7303
  0
VERTEX
  8
LAYER1
 62
     7
  6
CONTINUOUS
 10
2.9764
 20
9.7283
  0
SEQEND
  8
LAYER1
  0
POLYLINE
  8
LAYER1
 62
     7
 66
     1
  6
CONTINUOUS
  0
VERTEX
  8
LAYER1
 62
     7
  6
CONTINUOUS
 10
2.9764
 20
9.7283
  0
VERTEX
  8
LAYER1
 62
     7
  6
CONTINUOUS
 10
2.9766
 20
9.7273
  0
VERTEX
  8
LAYER1
 62
     7
  6
CONTINUOUS
 10
2.9769
 20
9.7264
  0
VERTEX
  8
LAYER1
 62
     7
  6
CONTINUOUS
 10
2.9772
 20
9.7255
  0
VERTEX
  8
LAYER1
 62
     7
  6
CONTINUOUS
 10
2.9774
 20
9.7245
  0
VERTEX
  8
LAYER1
 62
     7
  6
CONTINUOUS
 10
2.9777
 20
9.7236
  0
VERTEX
  8
LAYER1
 62
     7
  6
CONTINUOUS
 10
2.9780
 20
9.7227
  0
VERTEX
  8
LAYER1
 62
     7
  6
CONTINUOUS
 10
2.9783
 20
9.7218
  0
VERTEX
  8
LAYER1
 62
     7
  6
CONTINUOUS
 10
2.9786
 20
9.7208
  0
VERTEX
  8
LAYER1
 62
     7
  6
CONTINUOUS
 10
2.9789
 20
9.7199
  0
VERTEX
  8
LAYER1
 62
     7
  6
CONTINUOUS
 10
2.9792
 20
9.7190
  0
VERTEX
  8
LAYER1
 62
     7
  6
CONTINUOUS
 10
2.9796
 20
9.7181
  0
VERTEX
  8
LAYER1
 62
     7
  6
CONTINUOUS
 10
2.9799
 20
9.7171
  0
VERTEX
  8
LAYER1
 62
     7
  6
CONTINUOUS
 10
2.9810
 20
9.7146
  0
VERTEX
  8
LAYER1
 62
     7
  6
CONTINUOUS
 10
2.9821
 20
9.7121
  0
VERTEX
  8
LAYER1
 62
     7
  6
CONTINUOUS
 10
2.9833
 20
9.7096
  0
VERTEX
  8
LAYER1
 62
     7
  6
CONTINUOUS
 10
2.9845
 20
9.7070
  0
VERTEX
  8
LAYER1
 62
     7
  6
CONTINUOUS
 10
2.9856
 20
9.7045
  0
VERTEX
  8
LAYER1
 62
     7
  6
CONTINUOUS
 10
2.9867
 20
9.7020
  0
VERTEX
  8
LAYER1
 62
     7
  6
CONTINUOUS
 10
2.9878
 20
9.6995
  0
VERTEX
  8
LAYER1
 62
     7
  6
CONTINUOUS
 10
2.9887
 20
9.6970
  0
VERTEX
  8
LAYER1
 62
     7
  6
CONTINUOUS
 10
2.9894
 20
9.6945
  0
VERTEX
  8
LAYER1
 62
     7
  6
CONTINUOUS
 10
2.9899
 20
9.6920
  0
VERTEX
  8
LAYER1
 62
     7
  6
CONTINUOUS
 10
2.9902
 20
9.6895
  0
VERTEX
  8
LAYER1
 62
     7
  6
CONTINUOUS
 10
2.9902
 20
9.6870
  0
VERTEX
  8
LAYER1
 62
     7
  6
CONTINUOUS
 10
2.9900
 20
9.6849
  0
VERTEX
  8
LAYER1
 62
     7
  6
CONTINUOUS
 10
2.9897
 20
9.6828
  0
VERTEX
  8
LAYER1
 62
     7
  6
CONTINUOUS
 10
2.9891
 20
9.6807
  0
VERTEX
  8
LAYER1
 62
     7
  6
CONTINUOUS
 10
2.9884
 20
9.6786
  0
VERTEX
  8
LAYER1
 62
     7
  6
CONTINUOUS
 10
2.9875
 20
9.6765
  0
VERTEX
  8
LAYER1
 62
     7
  6
CONTINUOUS
 10
2.9866
 20
9.6744
  0
VERTEX
  8
LAYER1
 62
     7
  6
CONTINUOUS
 10
2.9856
 20
9.6723
  0
VERTEX
  8
LAYER1
 62
     7
  6
CONTINUOUS
 10
2.9846
 20
9.6702
  0
VERTEX
  8
LAYER1
 62
     7
  6
CONTINUOUS
 10
2.9835
 20
9.6681
  0
VERTEX
  8
LAYER1
 62
     7
  6
CONTINUOUS
 10
2.9824
 20
9.6660
  0
VERTEX
  8
LAYER1
 62
     7
  6
CONTINUOUS
 10
2.9814
 20
9.6639
  0
VERTEX
  8
LAYER1
 62
     7
  6
CONTINUOUS
 10
2.9804
 20
9.6618
  0
VERTEX
  8
LAYER1
 62
     7
  6
CONTINUOUS
 10
2.9800
 20
9.6609
  0
VERTEX
  8
LAYER1
 62
     7
  6
CONTINUOUS
 10
2.9796
 20
9.6601
  0
VERTEX
  8
LAYER1
 62
     7
  6
CONTINUOUS
 10
2.9793
 20
9.6593
  0
VERTEX
  8
LAYER1
 62
     7
  6
CONTINUOUS
 10
2.9789
 20
9.6584
  0
VERTEX
  8
LAYER1
 62
     7
  6
CONTINUOUS
 10
2.9786
 20
9.6576
  0
VERTEX
  8
LAYER1
 62
     7
  6
CONTINUOUS
 10
2.9783
 20
9.6567
  0
VERTEX
  8
LAYER1
 62
     7
  6
CONTINUOUS
 10
2.9779
 20
9.6559
  0
VERTEX
  8
LAYER1
 62
     7
  6
CONTINUOUS
 10
2.9776
 20
9.6551
  0
VERTEX
  8
LAYER1
 62
     7
  6
CONTINUOUS
 10
2.9773
 20
9.6542
  0
VERTEX
  8
LAYER1
 62
     7
  6
CONTINUOUS
 10
2.9770
 20
9.6534
  0
VERTEX
  8
LAYER1
 62
     7
  6
CONTINUOUS
 10
2.9767
 20
9.6526
  0
VERTEX
  8
LAYER1
 62
     7
  6
CONTINUOUS
 10
2.9764
 20
9.6517
  0
SEQEND
  8
LAYER1
  0
POLYLINE
  8
LAYER1
 62
     7
 66
     1
  6
CONTINUOUS
  0
VERTEX
  8
LAYER1
 62
     7
  6
CONTINUOUS
 10
2.9764
 20
9.6517
  0
VERTEX
  8
LAYER1
 62
     7
  6
CONTINUOUS
 10
2.9759
 20
9.6508
  0
VERTEX
  8
LAYER1
 62
     7
  6
CONTINUOUS
 10
2.9755
 20
9.6499
  0
VERTEX
  8
LAYER1
 62
     7
  6
CONTINUOUS
 10
2.9751
 20
9.6489
  0
VERTEX
  8
LAYER1
 62
     7
  6
CONTINUOUS
 10
2.9746
 20
9.6480
  0
VERTEX
  8
LAYER1
 62
     7
  6
CONTINUOUS
 10
2.9742
 20
9.6471
  0
VERTEX
  8
LAYER1
 62
     7
  6
CONTINUOUS
 10
2.9737
 20
9.6463
  0
VERTEX
  8
LAYER1
 62
     7
  6
CONTINUOUS
 10
2.9732
 20
9.6454
  0
VERTEX
  8
LAYER1
 62
     7
  6
CONTINUOUS
 10
2.9727
 20
9.6446
  0
VERTEX
  8
LAYER1
 62
     7
  6
CONTINUOUS
 10
2.9722
 20
9.6438
  0
VERTEX
  8
LAYER1
 62
     7
  6
CONTINUOUS
 10
2.9717
 20
9.6430
  0
VERTEX
  8
LAYER1
 62
     7
  6
CONTINUOUS
 10
2.9711
 20
9.6423
  0
VERTEX
  8
LAYER1
 62
     7
  6
CONTINUOUS
 10
2.9705
 20
9.6416
  0
VERTEX
  8
LAYER1
 62
     7
  6
CONTINUOUS
 10
2.9681
 20
9.6395
  0
VERTEX
  8
LAYER1
 62
     7
  6
CONTINUOUS
 10
2.9654
 20
9.6378
  0
VERTEX
  8
LAYER1
 62
     7
  6
CONTINUOUS
 10
2.9624
 20
9.6366
  0
VERTEX
  8
LAYER1
 62
     7
  6
CONTINUOUS
 10
2.9591
 20
9.6356
  0
VERTEX
  8
LAYER1
 62
     7
  6
CONTINUOUS
 10
2.9557
 20
9.6349
  0
VERTEX
  8
LAYER1
 62
     7
  6
CONTINUOUS
 10
2.9521
 20
9.6344
  0
VERTEX
  8
LAYER1
 62
     7
  6
CONTINUOUS
 10
2.9484
 20
9.6341
  0
VERTEX
  8
LAYER1
 62
     7
  6
CONTINUOUS
 10
2.9447
 20
9.6337
  0
VERTEX
  8
LAYER1
 62
     7
  6
CONTINUOUS
 10
2.9409
 20
9.6333
  0
VERTEX
  8
LAYER1
 62
     7
  6
CONTINUOUS
 10
2.9373
 20
9.6328
  0
VERTEX
  8
LAYER1
 62
     7
  6
CONTINUOUS
 10
2.9337
 20
9.6321
  0
VERTEX
  8
LAYER1
 62
     7
  6
CONTINUOUS
 10
2.9303
 20
9.6312
  0
VERTEX
  8
LAYER1
 62
     7
  6
CONTINUOUS
 10
2.9275
 20
9.6301
  0
VERTEX
  8
LAYER1
 62
     7
  6
CONTINUOUS
 10
2.9249
 20
9.6289
  0
VERTEX
  8
LAYER1
 62
     7
  6
CONTINUOUS
 10
2.9223
 20
9.6274
  0
VERTEX
  8
LAYER1
 62
     7
  6
CONTINUOUS
 10
2.9198
 20
9.6258
  0
VERTEX
  8
LAYER1
 62
     7
  6
CONTINUOUS
 10
2.9174
 20
9.6240
  0
VERTEX
  8
LAYER1
 62
     7
  6
CONTINUOUS
 10
2.9151
 20
9.6222
  0
VERTEX
  8
LAYER1
 62
     7
  6
CONTINUOUS
 10
2.9127
 20
9.6203
  0
VERTEX
  8
LAYER1
 62
     7
  6
CONTINUOUS
 10
2.9104
 20
9.6183
  0
VERTEX
  8
LAYER1
 62
     7
  6
CONTINUOUS
 10
2.9080
 20
9.6164
  0
VERTEX
  8
LAYER1
 62
     7
  6
CONTINUOUS
 10
2.9055
 20
9.6145
  0
VERTEX
  8
LAYER1
 62
     7
  6
CONTINUOUS
 10
2.9030
 20
9.6126
  0
VERTEX
  8
LAYER1
 62
     7
  6
CONTINUOUS
 10
2.9003
 20
9.6108
  0
VERTEX
  8
LAYER1
 62
     7
  6
CONTINUOUS
 10
2.8984
 20
9.6097
  0
VERTEX
  8
LAYER1
 62
     7
  6
CONTINUOUS
 10
2.8964
 20
9.6086
  0
VERTEX
  8
LAYER1
 62
     7
  6
CONTINUOUS
 10
2.8945
 20
9.6075
  0
VERTEX
  8
LAYER1
 62
     7
  6
CONTINUOUS
 10
2.8925
 20
9.6064
  0
VERTEX
  8
LAYER1
 62
     7
  6
CONTINUOUS
 10
2.8906
 20
9.6053
  0
VERTEX
  8
LAYER1
 62
     7
  6
CONTINUOUS
 10
2.8887
 20
9.6041
  0
VERTEX
  8
LAYER1
 62
     7
  6
CONTINUOUS
 10
2.8870
 20
9.6029
  0
VERTEX
  8
LAYER1
 62
     7
  6
CONTINUOUS
 10
2.8853
 20
9.6017
  0
VERTEX
  8
LAYER1
 62
     7
  6
CONTINUOUS
 10
2.8838
 20
9.6003
  0
VERTEX
  8
LAYER1
 62
     7
  6
CONTINUOUS
 10
2.8824
 20
9.5989
  0
VERTEX
  8
LAYER1
 62
     7
  6
CONTINUOUS
 10
2.8813
 20
9.5973
  0
VERTEX
  8
LAYER1
 62
     7
  6
CONTINUOUS
 10
2.8803
 20
9.5956
  0
VERTEX
  8
LAYER1
 62
     7
  6
CONTINUOUS
 10
2.8796
 20
9.5937
  0
VERTEX
  8
LAYER1
 62
     7
  6
CONTINUOUS
 10
2.8790
 20
9.5916
  0
VERTEX
  8
LAYER1
 62
     7
  6
CONTINUOUS
 10
2.8787
 20
9.5895
  0
VERTEX
  8
LAYER1
 62
     7
  6
CONTINUOUS
 10
2.8784
 20
9.5873
  0
VERTEX
  8
LAYER1
 62
     7
  6
CONTINUOUS
 10
2.8783
 20
9.5850
  0
VERTEX
  8
LAYER1
 62
     7
  6
CONTINUOUS
 10
2.8781
 20
9.5828
  0
VERTEX
  8
LAYER1
 62
     7
  6
CONTINUOUS
 10
2.8780
 20
9.5805
  0
VERTEX
  8
LAYER1
 62
     7
  6
CONTINUOUS
 10
2.8778
 20
9.5783
  0
VERTEX
  8
LAYER1
 62
     7
  6
CONTINUOUS
 10
2.8775
 20
9.5761
  0
VERTEX
  8
LAYER1
 62
     7
  6
CONTINUOUS
 10
2.8770
 20
9.5741
  0
VERTEX
  8
LAYER1
 62
     7
  6
CONTINUOUS
 10
2.8764
 20
9.5722
  0
VERTEX
  8
LAYER1
 62
     7
  6
CONTINUOUS
 10
2.8755
 20
9.5704
  0
VERTEX
  8
LAYER1
 62
     7
  6
CONTINUOUS
 10
2.8745
 20
9.5690
  0
VERTEX
  8
LAYER1
 62
     7
  6
CONTINUOUS
 10
2.8733
 20
9.5678
  0
VERTEX
  8
LAYER1
 62
     7
  6
CONTINUOUS
 10
2.8720
 20
9.5666
  0
VERTEX
  8
LAYER1
 62
     7
  6
CONTINUOUS
 10
2.8705
 20
9.5656
  0
VERTEX
  8
LAYER1
 62
     7
  6
CONTINUOUS
 10
2.8689
 20
9.5647
  0
VERTEX
  8
LAYER1
 62
     7
  6
CONTINUOUS
 10
2.8671
 20
9.5639
  0
VERTEX
  8
LAYER1
 62
     7
  6
CONTINUOUS
 10
2.8653
 20
9.5631
  0
VERTEX
  8
LAYER1
 62
     7
  6
CONTINUOUS
 10
2.8634
 20
9.5624
  0
VERTEX
  8
LAYER1
 62
     7
  6
CONTINUOUS
 10
2.8614
 20
9.5618
  0
VERTEX
  8
LAYER1
 62
     7
  6
CONTINUOUS
 10
2.8594
 20
9.5612
  0
VERTEX
  8
LAYER1
 62
     7
  6
CONTINUOUS
 10
2.8574
 20
9.5607
  0
VERTEX
  8
LAYER1
 62
     7
  6
CONTINUOUS
 10
2.8554
 20
9.5602
  0
VERTEX
  8
LAYER1
 62
     7
  6
CONTINUOUS
 10
2.8527
 20
9.5595
  0
VERTEX
  8
LAYER1
 62
     7
  6
CONTINUOUS
 10
2.8499
 20
9.5588
  0
VERTEX
  8
LAYER1
 62
     7
  6
CONTINUOUS
 10
2.8473
 20
9.5581
  0
VERTEX
  8
LAYER1
 62
     7
  6
CONTINUOUS
 10
2.8446
 20
9.5574
  0
VERTEX
  8
LAYER1
 62
     7
  6
CONTINUOUS
 10
2.8421
 20
9.5567
  0
VERTEX
  8
LAYER1
 62
     7
  6
CONTINUOUS
 10
2.8395
 20
9.5559
  0
VERTEX
  8
LAYER1
 62
     7
  6
CONTINUOUS
 10
2.8371
 20
9.5551
  0
VERTEX
  8
LAYER1
 62
     7
  6
CONTINUOUS
 10
2.8346
 20
9.5542
  0
VERTEX
  8
LAYER1
 62
     7
  6
CONTINUOUS
 10
2.8322
 20
9.5533
  0
VERTEX
  8
LAYER1
 62
     7
  6
CONTINUOUS
 10
2.8299
 20
9.5522
  0
VERTEX
  8
LAYER1
 62
     7
  6
CONTINUOUS
 10
2.8276
 20
9.5511
  0
VERTEX
  8
LAYER1
 62
     7
  6
CONTINUOUS
 10
2.8253
 20
9.5499
  0
VERTEX
  8
LAYER1
 62
     7
  6
CONTINUOUS
 10
2.8241
 20
9.5491
  0
VERTEX
  8
LAYER1
 62
     7
  6
CONTINUOUS
 10
2.8228
 20
9.5483
  0
VERTEX
  8
LAYER1
 62
     7
  6
CONTINUOUS
 10
2.8216
 20
9.5475
  0
VERTEX
  8
LAYER1
 62
     7
  6
CONTINUOUS
 10
2.8203
 20
9.5466
  0
VERTEX
  8
LAYER1
 62
     7
  6
CONTINUOUS
 10
2.8191
 20
9.5458
  0
VERTEX
  8
LAYER1
 62
     7
  6
CONTINUOUS
 10
2.8178
 20
9.5449
  0
VERTEX
  8
LAYER1
 62
     7
  6
CONTINUOUS
 10
2.8166
 20
9.5440
  0
VERTEX
  8
LAYER1
 62
     7
  6
CONTINUOUS
 10
2.8154
 20
9.5431
  0
VERTEX
  8
LAYER1
 62
     7
  6
CONTINUOUS
 10
2.8141
 20
9.5422
  0
VERTEX
  8
LAYER1
 62
     7
  6
CONTINUOUS
 10
2.8129
 20
9.5414
  0
VERTEX
  8
LAYER1
 62
     7
  6
CONTINUOUS
 10
2.8116
 20
9.5405
  0
VERTEX
  8
LAYER1
 62
     7
  6
CONTINUOUS
 10
2.8103
 20
9.5397
  0
VERTEX
  8
LAYER1
 62
     7
  6
CONTINUOUS
 10
2.8098
 20
9.5394
  0
VERTEX
  8
LAYER1
 62
     7
  6
CONTINUOUS
 10
2.8093
 20
9.5391
  0
VERTEX
  8
LAYER1
 62
     7
  6
CONTINUOUS
 10
2.8088
 20
9.5387
  0
VERTEX
  8
LAYER1
 62
     7
  6
CONTINUOUS
 10
2.8083
 20
9.5384
  0
VERTEX
  8
LAYER1
 62
     7
  6
CONTINUOUS
 10
2.8078
 20
9.5381
  0
VERTEX
  8
LAYER1
 62
     7
  6
CONTINUOUS
 10
2.8073
 20
9.5378
  0
VERTEX
  8
LAYER1
 62
     7
  6
CONTINUOUS
 10
2.8068
 20
9.5375
  0
VERTEX
  8
LAYER1
 62
     7
  6
CONTINUOUS
 10
2.8062
 20
9.5372
  0
VERTEX
  8
LAYER1
 62
     7
  6
CONTINUOUS
 10
2.8057
 20
9.5369
  0
VERTEX
  8
LAYER1
 62
     7
  6
CONTINUOUS
 10
2.8052
 20
9.5366
  0
VERTEX
  8
LAYER1
 62
     7
  6
CONTINUOUS
 10
2.8047
 20
9.5363
  0
VERTEX
  8
LAYER1
 62
     7
  6
CONTINUOUS
 10
2.8042
 20
9.5360
  0
SEQEND
  8
LAYER1
  0
POLYLINE
  8
LAYER1
 62
     7
 66
     1
  6
CONTINUOUS
  0
VERTEX
  8
LAYER1
 62
     7
  6
CONTINUOUS
 10
2.8042
 20
9.5360
  0
VERTEX
  8
LAYER1
 62
     7
  6
CONTINUOUS
 10
2.8013
 20
9.5352
  0
VERTEX
  8
LAYER1
 62
     7
  6
CONTINUOUS
 10
2.7985
 20
9.5344
  0
VERTEX
  8
LAYER1
 62
     7
  6
CONTINUOUS
 10
2.7958
 20
9.5337
  0
VERTEX
  8
LAYER1
 62
     7
  6
CONTINUOUS
 10
2.7932
 20
9.5330
  0
VERTEX
  8
LAYER1
 62
     7
  6
CONTINUOUS
 10
2.7907
 20
9.5323
  0
VERTEX
  8
LAYER1
 62
     7
  6
CONTINUOUS
 10
2.7884
 20
9.5316
  0
VERTEX
  8
LAYER1
 62
     7
  6
CONTINUOUS
 10
2.7863
 20
9.5311
  0
VERTEX
  8
LAYER1
 62
     7
  6
CONTINUOUS
 10
2.7845
 20
9.5306
  0
VERTEX
  8
LAYER1
 62
     7
  6
CONTINUOUS
 10
2.7829
 20
9.5301
  0
VERTEX
  8
LAYER1
 62
     7
  6
CONTINUOUS
 10
2.7816
 20
9.5298
  0
VERTEX
  8
LAYER1
 62
     7
  6
CONTINUOUS
 10
2.7807
 20
9.5295
  0
VERTEX
  8
LAYER1
 62
     7
  6
CONTINUOUS
 10
2.7802
 20
9.5294
  0
VERTEX
  8
LAYER1
 62
     7
  6
CONTINUOUS
 10
2.7802
 20
9.5294
  0
VERTEX
  8
LAYER1
 62
     7
  6
CONTINUOUS
 10
2.7802
 20
9.5294
  0
VERTEX
  8
LAYER1
 62
     7
  6
CONTINUOUS
 10
2.7801
 20
9.5294
  0
VERTEX
  8
LAYER1
 62
     7
  6
CONTINUOUS
 10
2.7801
 20
9.5294
  0
VERTEX
  8
LAYER1
 62
     7
  6
CONTINUOUS
 10
2.7801
 20
9.5294
  0
VERTEX
  8
LAYER1
 62
     7
  6
CONTINUOUS
 10
2.7801
 20
9.5294
  0
VERTEX
  8
LAYER1
 62
     7
  6
CONTINUOUS
 10
2.7801
 20
9.5294
  0
VERTEX
  8
LAYER1
 62
     7
  6
CONTINUOUS
 10
2.7801
 20
9.5294
  0
VERTEX
  8
LAYER1
 62
     7
  6
CONTINUOUS
 10
2.7802
 20
9.5294
  0
VERTEX
  8
LAYER1
 62
     7
  6
CONTINUOUS
 10
2.7802
 20
9.5294
  0
VERTEX
  8
LAYER1
 62
     7
  6
CONTINUOUS
 10
2.7802
 20
9.5294
  0
VERTEX
  8
LAYER1
 62
     7
  6
CONTINUOUS
 10
2.7802
 20
9.5294
  0
SEQEND
  8
LAYER1
  0
POLYLINE
  8
LAYER1
 62
     7
 66
     1
  6
HIDDEN
  0
VERTEX
  8
LAYER1
 62
     7
  6
HIDDEN
 10
2.9764
 20
9.5360
  0
VERTEX
  8
LAYER1
 62
     7
  6
HIDDEN
 10
2.9764
 20
9.5360
  0
VERTEX
  8
LAYER1
 62
     7
  6
HIDDEN
 10
2.9764
 20
9.5360
  0
VERTEX
  8
LAYER1
 62
     7
  6
HIDDEN
 10
2.9764
 20
9.5360
  0
VERTEX
  8
LAYER1
 62
     7
  6
HIDDEN
 10
2.9764
 20
9.5360
  0
VERTEX
  8
LAYER1
 62
     7
  6
HIDDEN
 10
2.9764
 20
9.5360
  0
VERTEX
  8
LAYER1
 62
     7
  6
HIDDEN
 10
2.9764
 20
9.5360
  0
VERTEX
  8
LAYER1
 62
     7
  6
HIDDEN
 10
2.9764
 20
9.5360
  0
VERTEX
  8
LAYER1
 62
     7
  6
HIDDEN
 10
2.9764
 20
9.5360
  0
VERTEX
  8
LAYER1
 62
     7
  6
HIDDEN
 10
2.9764
 20
9.5360
  0
VERTEX
  8
LAYER1
 62
     7
  6
HIDDEN
 10
2.9764
 20
9.5360
  0
VERTEX
  8
LAYER1
 62
     7
  6
HIDDEN
 10
2.9764
 20
9.5360
  0
VERTEX
  8
LAYER1
 62
     7
  6
HIDDEN
 10
2.9764
 20
9.5360
  0
VERTEX
  8
LAYER1
 62
     7
  6
HIDDEN
 10
2.9764
 20
9.5360
  0
VERTEX
  8
LAYER1
 62
     7
  6
HIDDEN
 10
2.9764
 20
9.5360
  0
VERTEX
  8
LAYER1
 62
     7
  6
HIDDEN
 10
2.9764
 20
9.5360
  0
VERTEX
  8
LAYER1
 62
     7
  6
HIDDEN
 10
2.9764
 20
9.5360
  0
VERTEX
  8
LAYER1
 62
     7
  6
HIDDEN
 10
2.9764
 20
9.5360
  0
VERTEX
  8
LAYER1
 62
     7
  6
HIDDEN
 10
2.9764
 20
9.5360
  0
VERTEX
  8
LAYER1
 62
     7
  6
HIDDEN
 10
2.9764
 20
9.5360
  0
VERTEX
  8
LAYER1
 62
     7
  6
HIDDEN
 10
2.9764
 20
9.5360
  0
VERTEX
  8
LAYER1
 62
     7
  6
HIDDEN
 10
2.9764
 20
9.5360
  0
VERTEX
  8
LAYER1
 62
     7
  6
HIDDEN
 10
2.9764
 20
9.5360
  0
VERTEX
  8
LAYER1
 62
     7
  6
HIDDEN
 10
2.9764
 20
9.5360
  0
VERTEX
  8
LAYER1
 62
     7
  6
HIDDEN
 10
2.9764
 20
9.5360
  0
SEQEND
  8
LAYER1
  0
POLYLINE
  8
LAYER1
 62
     7
 66
     1
  6
HIDDEN
  0
VERTEX
  8
LAYER1
 62
     7
  6
HIDDEN
 10
2.9764
 20
9.5360
  0
VERTEX
  8
LAYER1
 62
     7
  6
HIDDEN
 10
2.9768
 20
9.5388
  0
VERTEX
  8
LAYER1
 62
     7
  6
HIDDEN
 10
2.9772
 20
9.5415
  0
VERTEX
  8
LAYER1
 62
     7
  6
HIDDEN
 10
2.9777
 20
9.5442
  0
VERTEX
  8
LAYER1
 62
     7
  6
HIDDEN
 10
2.9782
 20
9.5469
  0
VERTEX
  8
LAYER1
 62
     7
  6
HIDDEN
 10
2.9788
 20
9.5496
  0
VERTEX
  8
LAYER1
 62
     7
  6
HIDDEN
 10
2.9795
 20
9.5522
  0
VERTEX
  8
LAYER1
 62
     7
  6
HIDDEN
 10
2.9803
 20
9.5548
  0
VERTEX
  8
LAYER1
 62
     7
  6
HIDDEN
 10
2.9812
 20
9.5572
  0
VERTEX
  8
LAYER1
 62
     7
  6
HIDDEN
 10
2.9822
 20
9.5596
  0
VERTEX
  8
LAYER1
 62
     7
  6
HIDDEN
 10
2.9834
 20
9.5620
  0
VERTEX
  8
LAYER1
 62
     7
  6
HIDDEN
 10
2.9847
 20
9.5642
  0
VERTEX
  8
LAYER1
 62
     7
  6
HIDDEN
 10
2.9862
 20
9.5663
  0
VERTEX
  8
LAYER1
 62
     7
  6
HIDDEN
 10
2.9869
 20
9.5672
  0
VERTEX
  8
LAYER1
 62
     7
  6
HIDDEN
 10
2.9877
 20
9.5680
  0
VERTEX
  8
LAYER1
 62
     7
  6
HIDDEN
 10
2.9885
 20
9.5689
  0
VERTEX
  8
LAYER1
 62
     7
  6
HIDDEN
 10
2.9893
 20
9.5697
  0
VERTEX
  8
LAYER1
 62
     7
  6
HIDDEN
 10
2.9902
 20
9.5706
  0
VERTEX
  8
LAYER1
 62
     7
  6
HIDDEN
 10
2.9910
 20
9.5714
  0
VERTEX
  8
LAYER1
 62
     7
  6
HIDDEN
 10
2.9919
 20
9.5722
  0
VERTEX
  8
LAYER1
 62
     7
  6
HIDDEN
 10
2.9928
 20
9.5730
  0
VERTEX
  8
LAYER1
 62
     7
  6
HIDDEN
 10
2.9936
 20
9.5739
  0
VERTEX
  8
LAYER1
 62
     7
  6
HIDDEN
 10
2.9945
 20
9.5747
  0
VERTEX
  8
LAYER1
 62
     7
  6
HIDDEN
 10
2.9953
 20
9.5755
  0
VERTEX
  8
LAYER1
 62
     7
  6
HIDDEN
 10
2.9962
 20
9.5764
  0
VERTEX
  8
LAYER1
 62
     7
  6
HIDDEN
 10
2.9982
 20
9.5786
  0
VERTEX
  8
LAYER1
 62
     7
  6
HIDDEN
 10
3.0001
 20
9.5810
  0
VERTEX
  8
LAYER1
 62
     7
  6
HIDDEN
 10
3.0019
 20
9.5834
  0
VERTEX
  8
LAYER1
 62
     7
  6
HIDDEN
 10
3.0036
 20
9.5859
  0
VERTEX
  8
LAYER1
 62
     7
  6
HIDDEN
 10
3.0052
 20
9.5884
  0
VERTEX
  8
LAYER1
 62
     7
  6
HIDDEN
 10
3.0068
 20
9.5910
  0
VERTEX
  8
LAYER1
 62
     7
  6
HIDDEN
 10
3.0083
 20
9.5936
  0
VERTEX
  8
LAYER1
 62
     7
  6
HIDDEN
 10
3.0099
 20
9.5963
  0
VERTEX
  8
LAYER1
 62
     7
  6
HIDDEN
 10
3.0114
 20
9.5989
  0
VERTEX
  8
LAYER1
 62
     7
  6
HIDDEN
 10
3.0129
 20
9.6016
  0
VERTEX
  8
LAYER1
 62
     7
  6
HIDDEN
 10
3.0144
 20
9.6042
  0
VERTEX
  8
LAYER1
 62
     7
  6
HIDDEN
 10
3.0160
 20
9.6067
  0
VERTEX
  8
LAYER1
 62
     7
  6
HIDDEN
 10
3.0177
 20
9.6093
  0
VERTEX
  8
LAYER1
 62
     7
  6
HIDDEN
 10
3.0194
 20
9.6118
  0
VERTEX
  8
LAYER1
 62
     7
  6
HIDDEN
 10
3.0212
 20
9.6143
  0
VERTEX
  8
LAYER1
 62
     7
  6
HIDDEN
 10
3.0229
 20
9.6167
  0
VERTEX
  8
LAYER1
 62
     7
  6
HIDDEN
 10
3.0247
 20
9.6192
  0
VERTEX
  8
LAYER1
 62
     7
  6
HIDDEN
 10
3.0264
 20
9.6216
  0
VERTEX
  8
LAYER1
 62
     7
  6
HIDDEN
 10
3.0282
 20
9.6241
  0
VERTEX
  8
LAYER1
 62
     7
  6
HIDDEN
 10
3.0299
 20
9.6266
  0
VERTEX
  8
LAYER1
 62
     7
  6
HIDDEN
 10
3.0315
 20
9.6292
  0
VERTEX
  8
LAYER1
 62
     7
  6
HIDDEN
 10
3.0331
 20
9.6317
  0
VERTEX
  8
LAYER1
 62
     7
  6
HIDDEN
 10
3.0345
 20
9.6344
  0
VERTEX
  8
LAYER1
 62
     7
  6
HIDDEN
 10
3.0359
 20
9.6371
  0
VERTEX
  8
LAYER1
 62
     7
  6
HIDDEN
 10
3.0363
 20
9.6379
  0
VERTEX
  8
LAYER1
 62
     7
  6
HIDDEN
 10
3.0367
 20
9.6388
  0
VERTEX
  8
LAYER1
 62
     7
  6
HIDDEN
 10
3.0371
 20
9.6396
  0
VERTEX
  8
LAYER1
 62
     7
  6
HIDDEN
 10
3.0375
 20
9.6405
  0
VERTEX
  8
LAYER1
 62
     7
  6
HIDDEN
 10
3.0379
 20
9.6414
  0
VERTEX
  8
LAYER1
 62
     7
  6
HIDDEN
 10
3.0383
 20
9.6422
  0
VERTEX
  8
LAYER1
 62
     7
  6
HIDDEN
 10
3.0387
 20
9.6431
  0
VERTEX
  8
LAYER1
 62
     7
  6
HIDDEN
 10
3.0391
 20
9.6439
  0
VERTEX
  8
LAYER1
 62
     7
  6
HIDDEN
 10
3.0395
 20
9.6447
  0
VERTEX
  8
LAYER1
 62
     7
  6
HIDDEN
 10
3.0400
 20
9.6456
  0
VERTEX
  8
LAYER1
 62
     7
  6
HIDDEN
 10
3.0404
 20
9.6464
  0
VERTEX
  8
LAYER1
 62
     7
  6
HIDDEN
 10
3.0409
 20
9.6472
  0
VERTEX
  8
LAYER1
 62
     7
  6
HIDDEN
 10
3.0423
 20
9.6494
  0
VERTEX
  8
LAYER1
 62
     7
  6
HIDDEN
 10
3.0439
 20
9.6514
  0
VERTEX
  8
LAYER1
 62
     7
  6
HIDDEN
 10
3.0457
 20
9.6534
  0
VERTEX
  8
LAYER1
 62
     7
  6
HIDDEN
 10
3.0476
 20
9.6552
  0
VERTEX
  8
LAYER1
 62
     7
  6
HIDDEN
 10
3.0496
 20
9.6569
  0
VERTEX
  8
LAYER1
 62
     7
  6
HIDDEN
 10
3.0518
 20
9.6586
  0
VERTEX
  8
LAYER1
 62
     7
  6
HIDDEN
 10
3.0540
 20
9.6602
  0
VERTEX
  8
LAYER1
 62
     7
  6
HIDDEN
 10
3.0563
 20
9.6617
  0
VERTEX
  8
LAYER1
 62
     7
  6
HIDDEN
 10
3.0586
 20
9.6632
  0
VERTEX
  8
LAYER1
 62
     7
  6
HIDDEN
 10
3.0610
 20
9.6647
  0
VERTEX
  8
LAYER1
 62
     7
  6
HIDDEN
 10
3.0634
 20
9.6661
  0
VERTEX
  8
LAYER1
 62
     7
  6
HIDDEN
 10
3.0659
 20
9.6675
  0
SEQEND
  8
LAYER1
  0
POLYLINE
  8
LAYER1
 62
     7
 66
     1
  6
HIDDEN
  0
VERTEX
  8
LAYER1
 62
     7
  6
HIDDEN
 10
3.0659
 20
9.6675
  0
VERTEX
  8
LAYER1
 62
     7
  6
HIDDEN
 10
3.0671
 20
9.6675
  0
VERTEX
  8
LAYER1
 62
     7
  6
HIDDEN
 10
3.0683
 20
9.6676
  0
VERTEX
  8
LAYER1
 62
     7
  6
HIDDEN
 10
3.0694
 20
9.6676
  0
VERTEX
  8
LAYER1
 62
     7
  6
HIDDEN
 10
3.0706
 20
9.6677
  0
VERTEX
  8
LAYER1
 62
     7
  6
HIDDEN
 10
3.0716
 20
9.6677
  0
VERTEX
  8
LAYER1
 62
     7
  6
HIDDEN
 10
3.0727
 20
9.6677
  0
VERTEX
  8
LAYER1
 62
     7
  6
HIDDEN
 10
3.0736
 20
9.6678
  0
VERTEX
  8
LAYER1
 62
     7
  6
HIDDEN
 10
3.0744
 20
9.6678
  0
VERTEX
  8
LAYER1
 62
     7
  6
HIDDEN
 10
3.0752
 20
9.6678
  0
VERTEX
  8
LAYER1
 62
     7
  6
HIDDEN
 10
3.0758
 20
9.6678
  0
VERTEX
  8
LAYER1
 62
     7
  6
HIDDEN
 10
3.0763
 20
9.6678
  0
VERTEX
  8
LAYER1
 62
     7
  6
HIDDEN
 10
3.0766
 20
9.6679
  0
VERTEX
  8
LAYER1
 62
     7
  6
HIDDEN
 10
3.0767
 20
9.6679
  0
VERTEX
  8
LAYER1
 62
     7
  6
HIDDEN
 10
3.0768
 20
9.6679
  0
VERTEX
  8
LAYER1
 62
     7
  6
HIDDEN
 10
3.0768
 20
9.6679
  0
VERTEX
  8
LAYER1
 62
     7
  6
HIDDEN
 10
3.0769
 20
9.6679
  0
VERTEX
  8
LAYER1
 62
     7
  6
HIDDEN
 10
3.0769
 20
9.6679
  0
VERTEX
  8
LAYER1
 62
     7
  6
HIDDEN
 10
3.0769
 20
9.6679
  0
VERTEX
  8
LAYER1
 62
     7
  6
HIDDEN
 10
3.0768
 20
9.6679
  0
VERTEX
  8
LAYER1
 62
     7
  6
HIDDEN
 10
3.0768
 20
9.6679
  0
VERTEX
  8
LAYER1
 62
     7
  6
HIDDEN
 10
3.0768
 20
9.6679
  0
VERTEX
  8
LAYER1
 62
     7
  6
HIDDEN
 10
3.0767
 20
9.6679
  0
VERTEX
  8
LAYER1
 62
     7
  6
HIDDEN
 10
3.0767
 20
9.6679
  0
VERTEX
  8
LAYER1
 62
     7
  6
HIDDEN
 10
3.0766
 20
9.6679
  0
SEQEND
  8
LAYER1
  0
POLYLINE
  8
LAYER1
 62
     7
 66
     1
  6
HIDDEN
  0
VERTEX
  8
LAYER1
 62
     7
  6
HIDDEN
 10
2.9722
 20
9.5131
  0
VERTEX
  8
LAYER1
 62
     7
  6
HIDDEN
 10
2.9727
 20
9.5158
  0
VERTEX
  8
LAYER1
 62
     7
  6
HIDDEN
 10
2.9732
 20
9.5185
  0
VERTEX
  8
LAYER1
 62
     7
  6
HIDDEN
 10
2.9737
 20
9.5211
  0
VERTEX
  8
LAYER1
 62
     7
  6
HIDDEN
 10
2.9741
 20
9.5236
  0
VERTEX
  8
LAYER1
 62
     7
  6
HIDDEN
 10
2.9746
 20
9.5259
  0
VERTEX
  8
LAYER1
 62
     7
  6
HIDDEN
 10
2.9750
 20
9.5281
  0
VERTEX
  8
LAYER1
 62
     7
  6
HIDDEN
 10
2.9753
 20
9.5302
  0
VERTEX
  8
LAYER1
 62
     7
  6
HIDDEN
 10
2.9756
 20
9.5319
  0
VERTEX
  8
LAYER1
 62
     7
  6
HIDDEN
 10
2.9759
 20
9.5334
  0
VERTEX
  8
LAYER1
 62
     7
  6
HIDDEN
 10
2.9761
 20
9.5346
  0
VERTEX
  8
LAYER1
 62
     7
  6
HIDDEN
 10
2.9763
 20
9.5355
  0
VERTEX
  8
LAYER1
 62
     7
  6
HIDDEN
 10
2.9764
 20
9.5360
  0
VERTEX
  8
LAYER1
 62
     7
  6
HIDDEN
 10
2.9764
 20
9.5360
  0
VERTEX
  8
LAYER1
 62
     7
  6
HIDDEN
 10
2.9764
 20
9.5361
  0
VERTEX
  8
LAYER1
 62
     7
  6
HIDDEN
 10
2.9764
 20
9.5361
  0
VERTEX
  8
LAYER1
 62
     7
  6
HIDDEN
 10
2.9764
 20
9.5361
  0
VERTEX
  8
LAYER1
 62
     7
  6
HIDDEN
 10
2.9764
 20
9.5361
  0
VERTEX
  8
LAYER1
 62
     7
  6
HIDDEN
 10
2.9764
 20
9.5361
  0
VERTEX
  8
LAYER1
 62
     7
  6
HIDDEN
 10
2.9764
 20
9.5361
  0
VERTEX
  8
LAYER1
 62
     7
  6
HIDDEN
 10
2.9764
 20
9.5361
  0
VERTEX
  8
LAYER1
 62
     7
  6
HIDDEN
 10
2.9764
 20
9.5361
  0
VERTEX
  8
LAYER1
 62
     7
  6
HIDDEN
 10
2.9764
 20
9.5361
  0
VERTEX
  8
LAYER1
 62
     7
  6
HIDDEN
 10
2.9764
 20
9.5360
  0
VERTEX
  8
LAYER1
 62
     7
  6
HIDDEN
 10
2.9764
 20
9.5360
  0
SEQEND
  8
LAYER1
  0
POLYLINE
  8
LAYER12
 62
     5
 66
     1
  6
CONTINUOUS
  0
VERTEX
  8
LAYER12
 62
     5
  6
CONTINUOUS
 10
3.0752
 20
9.5131
  0
VERTEX
  8
LAYER12
 62
     5
  6
CONTINUOUS
 10
3.0752
 20
10.5370
  0
SEQEND
  8
LAYER12
  0
POLYLINE
  8
LAYER12
 62
     5
 66
     1
  6
CONTINUOUS
  0
VERTEX
  8
LAYER12
 62
     5
  6
CONTINUOUS
 10
3.0752
 20
10.5370
  0
VERTEX
  8
LAYER12
 62
     5
  6
CONTINUOUS
 10
3.0752
 20
10.5370
  0
SEQEND
  8
LAYER12
  0
POLYLINE
  8
LAYER12
 62
     5
 66
     1
  6
CONTINUOUS
  0
VERTEX
  8
LAYER12
 62
     5
  6
CONTINUOUS
 10
3.0766
 20
9.5139
  0
VERTEX
  8
LAYER12
 62
     5
  6
CONTINUOUS
 10
2.0522
 20
9.5139
  0
SEQEND
  8
LAYER12
  0
POLYLINE
  8
LAYER12
 62
     5
 66
     1
  6
CONTINUOUS
  0
VERTEX
  8
LAYER12
 62
     5
  6
CONTINUOUS
 10
2.0522
 20
9.5131
  0
VERTEX
  8
LAYER12
 62
     5
  6
CONTINUOUS
 10
2.0522
 20
9.5360
  0
SEQEND
  8
LAYER12
  0
POLYLINE
  8
LAYER12
 62
     5
 66
     1
  6
CONTINUOUS
  0
VERTEX
  8
LAYER12
 62
     5
  6
CONTINUOUS
 10
2.0522
 20
9.5360
  0
VERTEX
  8
LAYER12
 62
     5
  6
CONTINUOUS
 10
2.0522
 20
10.5370
  0
SEQEND
  8
LAYER12
  0
POLYLINE
  8
LAYER12
 62
     5
 66
     1
  6
CONTINUOUS
  0
VERTEX
  8
LAYER12
 62
     5
  6
CONTINUOUS
 10
2.0522
 20
10.5370
  0
VERTEX
  8
LAYER12
 62
     5
  6
CONTINUOUS
 10
2.0522
 20
10.5370
  0
SEQEND
  8
LAYER12
  0
POLYLINE
  8
LAYER12
 62
     5
 66
     1
  6
CONTINUOUS
  0
VERTEX
  8
LAYER12
 62
     5
  6
CONTINUOUS
 10
2.0522
 20
10.5370
  0
VERTEX
  8
LAYER12
 62
     5
  6
CONTINUOUS
 10
2.9764
 20
10.5370
  0
SEQEND
  8
LAYER12
  0
POLYLINE
  8
LAYER12
 62
     5
 66
     1
  6
CONTINUOUS
  0
VERTEX
  8
LAYER12
 62
     5
  6
CONTINUOUS
 10
2.9764
 20
10.5370
  0
VERTEX
  8
LAYER12
 62
     5
  6
CONTINUOUS
 10
3.0766
 20
10.5370
  0
SEQEND
  8
LAYER12
  0
ENDSEC
  0
EOF
