  0
SECTION
  2
HEADER
  9
$ACADVER
  1
AC1004
  9
$EXTMIN
 10
9.0491
 20
9.5097
  9
$EXTMAX
 10
10.0459
 20
10.5456
  9
$LIMMIN
 10
9.0491
 20
9.5097
  9
$LIMMAX
 10
10.0459
 20
10.5456
  9
$INSBASE
 10
0.0
 20
0.0
  9
$VIEWCTR
 10
7.21903
 20
4.5
  9
$VIEWSIZE
 40
9.0
  9
$SNAPMODE
 70
     0
  9
$SNAPUNIT
 10
1.0
 20
1.0
  9
$SNAPBASE
 10
0.0
 20
0.0
  9
$SNAPANG
 50
0.0
  9
$SNAPSTYLE
 70
     0
  9
$SNAPISOPAIR
 70
     0
  9
$GRIDMODE
 70
     0
  9
$GRIDUNIT
 10
0.0
 20
0.0
  9
$ORTHOMODE
 70
     0
  9
$REGENMODE
 70
     1
  9
$FILLMODE
 70
     1
  9
$QTEXTMODE
 70
     0
  9
$DRAGMODE
 70
     2
  9
$LTSCALE
 40
1.0
  9
$OSMODE
 70
     0
  9
$ATTMODE
 70
     1
  9
$TEXTSIZE
 40
0.2
  9
$TRACEWID
 40
0.05
  9
$TEXTSTYLE
  7
STANDARD
  9
$CLAYER
  8
0
  9
$CELTYPE
  6
BYLAYER
  9
$CECOLOR
 62
   256
  9
$DIMSCALE
 40
1.0
  9
$DIMASZ
 40
0.18
  9
$DIMEXO
 40
0.0625
  9
$DIMDLI
 40
0.38
  9
$DIMRND
 40
0.0
  9
$DIMDLE
 40
0.0
  9
$DIMEXE
 40
0.18
  9
$DIMTP
 40
0.0
  9
$DIMTM
 40
0.0
  9
$DIMTXT
 40
0.18
  9
$DIMCEN
 40
0.09
  9
$DIMTSZ
 40
0.0
  9
$DIMTOL
 70
     0
  9
$DIMLIM
 70
     0
  9
$DIMTIH
 70
     1
  9
$DIMTOH
 70
     1
  9
$DIMSE1
 70
     0
  9
$DIMSE2
 70
     0
  9
$DIMTAD
 70
     0
  9
$DIMZIN
 70
     0
  9
$DIMBLK
  1

  9
$DIMASO
 70
     1
  9
$DIMSHO
 70
     0
  9
$DIMPOST
  1

  9
$DIMAPOST
  1

  9
$DIMALT
 70
     0
  9
$DIMALTD
 70
     2
  9
$DIMALTF
 40
25.4
  9
$DIMLFAC
 40
1.0
  9
$LUNITS
 70
     2
  9
$LUPREC
 70
     4
  9
$AXISMODE
 70
     0
  9
$AXISUNIT
 10
0.0
 20
0.0
  9
$SKETCHINC
 40
0.1
  9
$FILLETRAD
 40
0.0
  9
$AUNITS
 70
     0
  9
$AUPREC
 70
     0
  9
$MENU
  1
acad
  9
$ELEVATION
 40
0.0
  9
$THICKNESS
 40
0.0
  9
$VIEWDIR
 10
0.0
 20
0.0
 30
1.0
  9
$LIMCHECK
 70
     0
  9
$BLIPMODE
 70
     1
  9
$CHAMFERA
 40
0.0
  9
$CHAMFERB
 40
0.0
  9
$FASTZOOM
 70
     1
  9
$SKPOLY
 70
     0
  9
$TDCREATE
 40
2447222.5666886573
  9
$TDUPDATE
 40
2447222.5666886573
  9
$TDINDWG
 40
0.0000000000
  9
$TDUSRTIMER
 40
0.0000000000
  9
$USRTIMER
 70
     1
  9
$ANGBASE
 50
0.0
  9
$ANGDIR
 70
     0
  9
$PDMODE
 70
     0
  9
$PDSIZE
 40
0.0
  9
$PLINEWID
 40
0.0
  9
$COORDS
 70
     0
  9
$SPLFRAME
 70
     0
  9
$SPLINESEGS
 70
     8
  9
$ATTDIA
 70
     0
  9
$ATTREQ
 70
     1
  9
$USERI1
 70
     0
  9
$USERI2
 70
     0
  9
$USERI3
 70
     0
  9
$USERI4
 70
     0
  9
$USERI5
 70
     0
  9
$USERR1
 40
0.0
  9
$USERR2
 40
0.0
  9
$USERR3
 40
0.0
  9
$USERR4
 40
0.0
  9
$USERR5
 40
0.0
  0
ENDSEC
  0
SECTION
  2
TABLES
  0
TABLE
  2
LTYPE
 70
     13
  0
LTYPE
  2
CONTINUOUS
 70
    64
  3
Solid line
 72
    65
 73
     0
 40
0.0
  0
LTYPE
  2
DASHED
 70
    64
  3
__ __ __ __ __ __ __ __ __ __ __ __ __ __ __
 72
    65
 73
     2
 40
0.75
 49
0.5
 49
-0.25
  0
LTYPE
  2
HIDDEN
 70
    64
  3
_ _ _ _ _ _ _ _ _ _ _ _ _ _ _ _ _ _ _ _ _ _ _
 72
    65
 73
     2
 40
0.375
 49
0.25
 49
-0.125
  0
LTYPE
  2
CENTER
 70
    64
  3
____ _ ____ _ ____ _ ____ _ ____ _ ____ _ ____
 72
    65
 73
     4
 40
2.0
 49
1.25
 49
-0.25
 49
0.25
 49
-0.25
  0
LTYPE
  2
PHANTOM
 70
    64
  3
_____ _ _ _____ _ _ _____ _ _ _____ _ _ ____
 72
    65
 73
     6
 40
2.5
 49
1.25
 49
-0.25
 49
0.25
 49
-0.25
 49
0.25
 49
-0.25
  0
LTYPE
  2
DOT
 70
    64
  3
...............................................
 72
    65
 73
     2
 40
0.25
 49
0.0
 49
-0.25
  0
LTYPE
  2
DASHDOT
 70
    64
  3
__ . __ . __ . __ . __ . __ . __ . __ . __ . __
 72
    65
 73
     4
 40
1.0
 49
0.5
 49
-0.25
 49
0.0
 49
-0.25
  0
LTYPE
  2
BORDER
 70
    64
  3
__ __ . __ __ . __ __ . __ __ . __ __ . __ __
 72
    65
 73
     6
 40
1.75
 49
0.5
 49
-0.25
 49
0.5
 49
-0.25
 49
0.0
 49
-0.25
  0
LTYPE
  2
DIVIDE
 70
    64
  3
__ . . __ . . __ . . __ . . __ . . __ . . __
 72
    65
 73
     6
 40
1.25
 49
0.5
 49
-0.25
 49
0.0
 49
-0.25
 49
0.0
 49
-0.25
  0
LTYPE
  2
DCTYPE1
 70
    64
  3
__ . . __ . . __ . . __ . . __ . . __ . . __
 72
    65
 73
     8
 40
2.5
 49
0.5
 49
-0.25
 49
0.125
 49
-0.25
 49
0.25
 49
-0.25
 49
0.125
 49
-0.25
  0
LTYPE
  2
DCTYPE2
 70
    64
  3
__ . . __ . . __ . . __ . . __ . . __ . . __
 72
    65
 73
     6
 40
2.05
 49
1.0
 49
-0.3
 49
0.15
 49
-0.15
 49
0.15
 49
-0.3
  0
LTYPE
  2
DCTYPE3
 70
    64
  3
__ . . __ . . __ . . __ . . __ . . __ . . __
 72
    65
 73
     6
 40
2.5
 49
0.8
 49
-0.2
 49
0.8
 49
-0.2
 49
0.3
 49
-0.2
  0
LTYPE
  2
DCTYPE4
 70
    64
  3
__ . . __ . . __ . . __ . . __ . . __ . . __
 72
    65
 73
     10
 40
3.97
 49
1.75
 49
-0.3
 49
0.3
 49
-0.3
 49
0.06
 49
-0.3
 49
0.06
 49
-0.3
 49
0.3
 49
-0.3
  0
ENDTAB
  0
TABLE
  2
LAYER
 70
    153
  0
LAYER
  2
LAYER1
 70
 64
 62
     7
  6
CONTINUOUS
  0
LAYER
  2
LAYER10
 70
 64
 62
     1
  6
CONTINUOUS
  0
LAYER
  2
LAYER12
 70
 64
 62
     5
  6
CONTINUOUS
  0
ENDTAB
  0
ENDSEC
  0
SECTION
  2
BLOCKS
  0
ENDSEC
  0
SECTION
  2
ENTITIES
  0
CIRCLE
  8
LAYER1
 62
     7
  6
CONTINUOUS
 10
9.9727
 20
10.3684
 40
0.0101
  0
CIRCLE
  8
LAYER1
 62
     7
  6
CONTINUOUS
 10
9.9656
 20
10.3227
 40
0.0057
  0
CIRCLE
  8
LAYER1
 62
     7
  6
CONTINUOUS
 10
9.9450
 20
10.3503
 40
0.0080
  0
CIRCLE
  8
LAYER1
 62
     7
  6
CONTINUOUS
 10
9.7878
 20
10.3562
 40
0.0091
  0
CIRCLE
  8
LAYER1
 62
     7
  6
CONTINUOUS
 10
9.7573
 20
10.3685
 40
0.0240
  0
CIRCLE
  8
LAYER1
 62
     7
  6
CONTINUOUS
 10
9.5977
 20
10.3566
 40
0.0076
  0
CIRCLE
  8
LAYER1
 62
     7
  6
CONTINUOUS
 10
9.1258
 20
10.3995
 40
0.0152
  0
CIRCLE
  8
LAYER1
 62
     7
  6
CONTINUOUS
 10
9.1719
 20
10.3544
 40
0.0209
  0
CIRCLE
  8
LAYER1
 62
     7
  6
CONTINUOUS
 10
9.1805
 20
10.2633
 40
0.0127
  0
CIRCLE
  8
LAYER1
 62
     7
  6
CONTINUOUS
 10
9.1128
 20
9.7454
 40
0.0113
  0
POLYLINE
  8
LAYER1
 62
     7
 66
     1
  6
CONTINUOUS
  0
VERTEX
  8
LAYER1
 62
     7
  6
CONTINUOUS
 10
9.1276
 20
9.7760
  0
VERTEX
  8
LAYER1
 62
     7
  6
CONTINUOUS
 10
9.1281
 20
9.7778
  0
VERTEX
  8
LAYER1
 62
     7
  6
CONTINUOUS
 10
9.1288
 20
9.7796
  0
VERTEX
  8
LAYER1
 62
     7
  6
CONTINUOUS
 10
9.1299
 20
9.7813
  0
VERTEX
  8
LAYER1
 62
     7
  6
CONTINUOUS
 10
9.1313
 20
9.7831
  0
VERTEX
  8
LAYER1
 62
     7
  6
CONTINUOUS
 10
9.1329
 20
9.7849
  0
VERTEX
  8
LAYER1
 62
     7
  6
CONTINUOUS
 10
9.1347
 20
9.7866
  0
VERTEX
  8
LAYER1
 62
     7
  6
CONTINUOUS
 10
9.1366
 20
9.7884
  0
VERTEX
  8
LAYER1
 62
     7
  6
CONTINUOUS
 10
9.1387
 20
9.7901
  0
VERTEX
  8
LAYER1
 62
     7
  6
CONTINUOUS
 10
9.1409
 20
9.7917
  0
VERTEX
  8
LAYER1
 62
     7
  6
CONTINUOUS
 10
9.1432
 20
9.7934
  0
VERTEX
  8
LAYER1
 62
     7
  6
CONTINUOUS
 10
9.1454
 20
9.7950
  0
VERTEX
  8
LAYER1
 62
     7
  6
CONTINUOUS
 10
9.1477
 20
9.7965
  0
VERTEX
  8
LAYER1
 62
     7
  6
CONTINUOUS
 10
9.1503
 20
9.7983
  0
VERTEX
  8
LAYER1
 62
     7
  6
CONTINUOUS
 10
9.1529
 20
9.7999
  0
VERTEX
  8
LAYER1
 62
     7
  6
CONTINUOUS
 10
9.1554
 20
9.8015
  0
VERTEX
  8
LAYER1
 62
     7
  6
CONTINUOUS
 10
9.1579
 20
9.8030
  0
VERTEX
  8
LAYER1
 62
     7
  6
CONTINUOUS
 10
9.1603
 20
9.8045
  0
VERTEX
  8
LAYER1
 62
     7
  6
CONTINUOUS
 10
9.1628
 20
9.8058
  0
VERTEX
  8
LAYER1
 62
     7
  6
CONTINUOUS
 10
9.1652
 20
9.8071
  0
VERTEX
  8
LAYER1
 62
     7
  6
CONTINUOUS
 10
9.1677
 20
9.8082
  0
VERTEX
  8
LAYER1
 62
     7
  6
CONTINUOUS
 10
9.1702
 20
9.8093
  0
VERTEX
  8
LAYER1
 62
     7
  6
CONTINUOUS
 10
9.1727
 20
9.8103
  0
VERTEX
  8
LAYER1
 62
     7
  6
CONTINUOUS
 10
9.1753
 20
9.8112
  0
VERTEX
  8
LAYER1
 62
     7
  6
CONTINUOUS
 10
9.1779
 20
9.8121
  0
VERTEX
  8
LAYER1
 62
     7
  6
CONTINUOUS
 10
9.1808
 20
9.8128
  0
VERTEX
  8
LAYER1
 62
     7
  6
CONTINUOUS
 10
9.1837
 20
9.8135
  0
VERTEX
  8
LAYER1
 62
     7
  6
CONTINUOUS
 10
9.1867
 20
9.8140
  0
VERTEX
  8
LAYER1
 62
     7
  6
CONTINUOUS
 10
9.1897
 20
9.8144
  0
VERTEX
  8
LAYER1
 62
     7
  6
CONTINUOUS
 10
9.1927
 20
9.8147
  0
VERTEX
  8
LAYER1
 62
     7
  6
CONTINUOUS
 10
9.1957
 20
9.8149
  0
VERTEX
  8
LAYER1
 62
     7
  6
CONTINUOUS
 10
9.1988
 20
9.8149
  0
VERTEX
  8
LAYER1
 62
     7
  6
CONTINUOUS
 10
9.2018
 20
9.8147
  0
VERTEX
  8
LAYER1
 62
     7
  6
CONTINUOUS
 10
9.2048
 20
9.8144
  0
VERTEX
  8
LAYER1
 62
     7
  6
CONTINUOUS
 10
9.2077
 20
9.8139
  0
VERTEX
  8
LAYER1
 62
     7
  6
CONTINUOUS
 10
9.2106
 20
9.8133
  0
VERTEX
  8
LAYER1
 62
     7
  6
CONTINUOUS
 10
9.2134
 20
9.8124
  0
VERTEX
  8
LAYER1
 62
     7
  6
CONTINUOUS
 10
9.2162
 20
9.8114
  0
VERTEX
  8
LAYER1
 62
     7
  6
CONTINUOUS
 10
9.2188
 20
9.8102
  0
VERTEX
  8
LAYER1
 62
     7
  6
CONTINUOUS
 10
9.2214
 20
9.8088
  0
VERTEX
  8
LAYER1
 62
     7
  6
CONTINUOUS
 10
9.2238
 20
9.8071
  0
VERTEX
  8
LAYER1
 62
     7
  6
CONTINUOUS
 10
9.2262
 20
9.8053
  0
VERTEX
  8
LAYER1
 62
     7
  6
CONTINUOUS
 10
9.2284
 20
9.8033
  0
VERTEX
  8
LAYER1
 62
     7
  6
CONTINUOUS
 10
9.2305
 20
9.8011
  0
VERTEX
  8
LAYER1
 62
     7
  6
CONTINUOUS
 10
9.2325
 20
9.7988
  0
VERTEX
  8
LAYER1
 62
     7
  6
CONTINUOUS
 10
9.2343
 20
9.7962
  0
VERTEX
  8
LAYER1
 62
     7
  6
CONTINUOUS
 10
9.2360
 20
9.7934
  0
VERTEX
  8
LAYER1
 62
     7
  6
CONTINUOUS
 10
9.2376
 20
9.7905
  0
VERTEX
  8
LAYER1
 62
     7
  6
CONTINUOUS
 10
9.2390
 20
9.7874
  0
VERTEX
  8
LAYER1
 62
     7
  6
CONTINUOUS
 10
9.2401
 20
9.7846
  0
VERTEX
  8
LAYER1
 62
     7
  6
CONTINUOUS
 10
9.2411
 20
9.7817
  0
VERTEX
  8
LAYER1
 62
     7
  6
CONTINUOUS
 10
9.2419
 20
9.7788
  0
VERTEX
  8
LAYER1
 62
     7
  6
CONTINUOUS
 10
9.2426
 20
9.7759
  0
VERTEX
  8
LAYER1
 62
     7
  6
CONTINUOUS
 10
9.2431
 20
9.7730
  0
VERTEX
  8
LAYER1
 62
     7
  6
CONTINUOUS
 10
9.2433
 20
9.7701
  0
VERTEX
  8
LAYER1
 62
     7
  6
CONTINUOUS
 10
9.2434
 20
9.7674
  0
VERTEX
  8
LAYER1
 62
     7
  6
CONTINUOUS
 10
9.2432
 20
9.7648
  0
VERTEX
  8
LAYER1
 62
     7
  6
CONTINUOUS
 10
9.2427
 20
9.7625
  0
VERTEX
  8
LAYER1
 62
     7
  6
CONTINUOUS
 10
9.2419
 20
9.7603
  0
VERTEX
  8
LAYER1
 62
     7
  6
CONTINUOUS
 10
9.2408
 20
9.7585
  0
VERTEX
  8
LAYER1
 62
     7
  6
CONTINUOUS
 10
9.2394
 20
9.7570
  0
VERTEX
  8
LAYER1
 62
     7
  6
CONTINUOUS
 10
9.2382
 20
9.7561
  0
VERTEX
  8
LAYER1
 62
     7
  6
CONTINUOUS
 10
9.2369
 20
9.7554
  0
VERTEX
  8
LAYER1
 62
     7
  6
CONTINUOUS
 10
9.2354
 20
9.7548
  0
VERTEX
  8
LAYER1
 62
     7
  6
CONTINUOUS
 10
9.2339
 20
9.7544
  0
VERTEX
  8
LAYER1
 62
     7
  6
CONTINUOUS
 10
9.2322
 20
9.7540
  0
VERTEX
  8
LAYER1
 62
     7
  6
CONTINUOUS
 10
9.2304
 20
9.7536
  0
VERTEX
  8
LAYER1
 62
     7
  6
CONTINUOUS
 10
9.2286
 20
9.7534
  0
VERTEX
  8
LAYER1
 62
     7
  6
CONTINUOUS
 10
9.2268
 20
9.7531
  0
VERTEX
  8
LAYER1
 62
     7
  6
CONTINUOUS
 10
9.2249
 20
9.7528
  0
VERTEX
  8
LAYER1
 62
     7
  6
CONTINUOUS
 10
9.2230
 20
9.7525
  0
VERTEX
  8
LAYER1
 62
     7
  6
CONTINUOUS
 10
9.2210
 20
9.7521
  0
VERTEX
  8
LAYER1
 62
     7
  6
CONTINUOUS
 10
9.2192
 20
9.7517
  0
VERTEX
  8
LAYER1
 62
     7
  6
CONTINUOUS
 10
9.2158
 20
9.7506
  0
VERTEX
  8
LAYER1
 62
     7
  6
CONTINUOUS
 10
9.2125
 20
9.7493
  0
VERTEX
  8
LAYER1
 62
     7
  6
CONTINUOUS
 10
9.2093
 20
9.7478
  0
VERTEX
  8
LAYER1
 62
     7
  6
CONTINUOUS
 10
9.2063
 20
9.7462
  0
VERTEX
  8
LAYER1
 62
     7
  6
CONTINUOUS
 10
9.2033
 20
9.7445
  0
VERTEX
  8
LAYER1
 62
     7
  6
CONTINUOUS
 10
9.2004
 20
9.7428
  0
VERTEX
  8
LAYER1
 62
     7
  6
CONTINUOUS
 10
9.1975
 20
9.7412
  0
VERTEX
  8
LAYER1
 62
     7
  6
CONTINUOUS
 10
9.1947
 20
9.7396
  0
VERTEX
  8
LAYER1
 62
     7
  6
CONTINUOUS
 10
9.1920
 20
9.7383
  0
VERTEX
  8
LAYER1
 62
     7
  6
CONTINUOUS
 10
9.1893
 20
9.7372
  0
VERTEX
  8
LAYER1
 62
     7
  6
CONTINUOUS
 10
9.1866
 20
9.7365
  0
VERTEX
  8
LAYER1
 62
     7
  6
CONTINUOUS
 10
9.1839
 20
9.7361
  0
VERTEX
  8
LAYER1
 62
     7
  6
CONTINUOUS
 10
9.1815
 20
9.7361
  0
VERTEX
  8
LAYER1
 62
     7
  6
CONTINUOUS
 10
9.1791
 20
9.7364
  0
VERTEX
  8
LAYER1
 62
     7
  6
CONTINUOUS
 10
9.1767
 20
9.7370
  0
VERTEX
  8
LAYER1
 62
     7
  6
CONTINUOUS
 10
9.1742
 20
9.7379
  0
VERTEX
  8
LAYER1
 62
     7
  6
CONTINUOUS
 10
9.1718
 20
9.7390
  0
VERTEX
  8
LAYER1
 62
     7
  6
CONTINUOUS
 10
9.1693
 20
9.7404
  0
VERTEX
  8
LAYER1
 62
     7
  6
CONTINUOUS
 10
9.1667
 20
9.7419
  0
VERTEX
  8
LAYER1
 62
     7
  6
CONTINUOUS
 10
9.1642
 20
9.7435
  0
VERTEX
  8
LAYER1
 62
     7
  6
CONTINUOUS
 10
9.1615
 20
9.7453
  0
VERTEX
  8
LAYER1
 62
     7
  6
CONTINUOUS
 10
9.1588
 20
9.7471
  0
VERTEX
  8
LAYER1
 62
     7
  6
CONTINUOUS
 10
9.1561
 20
9.7490
  0
VERTEX
  8
LAYER1
 62
     7
  6
CONTINUOUS
 10
9.1533
 20
9.7510
  0
VERTEX
  8
LAYER1
 62
     7
  6
CONTINUOUS
 10
9.1502
 20
9.7530
  0
VERTEX
  8
LAYER1
 62
     7
  6
CONTINUOUS
 10
9.1471
 20
9.7551
  0
VERTEX
  8
LAYER1
 62
     7
  6
CONTINUOUS
 10
9.1441
 20
9.7571
  0
VERTEX
  8
LAYER1
 62
     7
  6
CONTINUOUS
 10
9.1411
 20
9.7592
  0
VERTEX
  8
LAYER1
 62
     7
  6
CONTINUOUS
 10
9.1383
 20
9.7613
  0
VERTEX
  8
LAYER1
 62
     7
  6
CONTINUOUS
 10
9.1357
 20
9.7634
  0
VERTEX
  8
LAYER1
 62
     7
  6
CONTINUOUS
 10
9.1334
 20
9.7655
  0
VERTEX
  8
LAYER1
 62
     7
  6
CONTINUOUS
 10
9.1314
 20
9.7676
  0
VERTEX
  8
LAYER1
 62
     7
  6
CONTINUOUS
 10
9.1297
 20
9.7697
  0
VERTEX
  8
LAYER1
 62
     7
  6
CONTINUOUS
 10
9.1285
 20
9.7718
  0
VERTEX
  8
LAYER1
 62
     7
  6
CONTINUOUS
 10
9.1278
 20
9.7739
  0
VERTEX
  8
LAYER1
 62
     7
  6
CONTINUOUS
 10
9.1276
 20
9.7760
  0
SEQEND
  8
LAYER1
  0
ARC
  8
LAYER1
 62
     7
  6
CONTINUOUS
 10
9.0515
 20
10.2466
 40
0.0215
 50
-44.3909
 51
77.5792
  0
ARC
  8
LAYER1
 62
     7
  6
CONTINUOUS
 10
9.0515
 20
10.2466
 40
0.0215
 50
-77.5798
 51
-44.3909
  0
ARC
  8
LAYER1
 62
     7
  6
CONTINUOUS
 10
9.9684
 20
10.5305
 40
0.0204
 50
-96.4775
 51
13.3244
  0
ARC
  8
LAYER1
 62
     7
  6
CONTINUOUS
 10
9.9684
 20
10.5305
 40
0.0204
 50
166.6742
 51
-96.4769
  0
ARC
  8
LAYER1
 62
     7
  6
CONTINUOUS
 10
9.0515
 20
10.2466
 40
0.0215
 50
-77.5897
 51
95.0987
  0
ARC
  8
LAYER1
 62
     7
  6
CONTINUOUS
 10
9.0515
 20
10.2466
 40
0.0215
 50
-95.0987
 51
-77.5897
  0
ARC
  8
LAYER1
 62
     7
  6
CONTINUOUS
 10
9.9684
 20
10.5305
 40
0.0204
 50
13.3258
 51
47.3290
  0
ARC
  8
LAYER1
 62
     7
  6
CONTINUOUS
 10
9.9684
 20
10.5305
 40
0.0204
 50
132.6669
 51
166.6756
  0
POLYLINE
  8
LAYER10
 62
     1
 66
     1
  6
CONTINUOUS
  0
VERTEX
  8
LAYER10
 62
     1
  6
CONTINUOUS
 10
9.3732
 20
10.0322
  0
VERTEX
  8
LAYER10
 62
     1
  6
CONTINUOUS
 10
9.3734
 20
10.0300
  0
VERTEX
  8
LAYER10
 62
     1
  6
CONTINUOUS
 10
9.3737
 20
10.0278
  0
VERTEX
  8
LAYER10
 62
     1
  6
CONTINUOUS
 10
9.3739
 20
10.0256
  0
VERTEX
  8
LAYER10
 62
     1
  6
CONTINUOUS
 10
9.3741
 20
10.0234
  0
VERTEX
  8
LAYER10
 62
     1
  6
CONTINUOUS
 10
9.3742
 20
10.0212
  0
VERTEX
  8
LAYER10
 62
     1
  6
CONTINUOUS
 10
9.3743
 20
10.0191
  0
VERTEX
  8
LAYER10
 62
     1
  6
CONTINUOUS
 10
9.3744
 20
10.0169
  0
VERTEX
  8
LAYER10
 62
     1
  6
CONTINUOUS
 10
9.3743
 20
10.0148
  0
VERTEX
  8
LAYER10
 62
     1
  6
CONTINUOUS
 10
9.3743
 20
10.0128
  0
VERTEX
  8
LAYER10
 62
     1
  6
CONTINUOUS
 10
9.3741
 20
10.0108
  0
VERTEX
  8
LAYER10
 62
     1
  6
CONTINUOUS
 10
9.3738
 20
10.0088
  0
VERTEX
  8
LAYER10
 62
     1
  6
CONTINUOUS
 10
9.3735
 20
10.0069
  0
VERTEX
  8
LAYER10
 62
     1
  6
CONTINUOUS
 10
9.3728
 20
10.0044
  0
VERTEX
  8
LAYER10
 62
     1
  6
CONTINUOUS
 10
9.3720
 20
10.0019
  0
VERTEX
  8
LAYER10
 62
     1
  6
CONTINUOUS
 10
9.3710
 20
9.9995
  0
VERTEX
  8
LAYER10
 62
     1
  6
CONTINUOUS
 10
9.3699
 20
9.9972
  0
VERTEX
  8
LAYER10
 62
     1
  6
CONTINUOUS
 10
9.3687
 20
9.9948
  0
VERTEX
  8
LAYER10
 62
     1
  6
CONTINUOUS
 10
9.3674
 20
9.9924
  0
VERTEX
  8
LAYER10
 62
     1
  6
CONTINUOUS
 10
9.3660
 20
9.9900
  0
VERTEX
  8
LAYER10
 62
     1
  6
CONTINUOUS
 10
9.3646
 20
9.9875
  0
VERTEX
  8
LAYER10
 62
     1
  6
CONTINUOUS
 10
9.3631
 20
9.9849
  0
VERTEX
  8
LAYER10
 62
     1
  6
CONTINUOUS
 10
9.3616
 20
9.9822
  0
VERTEX
  8
LAYER10
 62
     1
  6
CONTINUOUS
 10
9.3601
 20
9.9793
  0
VERTEX
  8
LAYER10
 62
     1
  6
CONTINUOUS
 10
9.3586
 20
9.9763
  0
VERTEX
  8
LAYER10
 62
     1
  6
CONTINUOUS
 10
9.3566
 20
9.9717
  0
VERTEX
  8
LAYER10
 62
     1
  6
CONTINUOUS
 10
9.3547
 20
9.9669
  0
VERTEX
  8
LAYER10
 62
     1
  6
CONTINUOUS
 10
9.3529
 20
9.9619
  0
VERTEX
  8
LAYER10
 62
     1
  6
CONTINUOUS
 10
9.3512
 20
9.9569
  0
VERTEX
  8
LAYER10
 62
     1
  6
CONTINUOUS
 10
9.3497
 20
9.9520
  0
VERTEX
  8
LAYER10
 62
     1
  6
CONTINUOUS
 10
9.3483
 20
9.9474
  0
VERTEX
  8
LAYER10
 62
     1
  6
CONTINUOUS
 10
9.3471
 20
9.9430
  0
VERTEX
  8
LAYER10
 62
     1
  6
CONTINUOUS
 10
9.3461
 20
9.9391
  0
VERTEX
  8
LAYER10
 62
     1
  6
CONTINUOUS
 10
9.3452
 20
9.9358
  0
VERTEX
  8
LAYER10
 62
     1
  6
CONTINUOUS
 10
9.3446
 20
9.9332
  0
VERTEX
  8
LAYER10
 62
     1
  6
CONTINUOUS
 10
9.3441
 20
9.9314
  0
VERTEX
  8
LAYER10
 62
     1
  6
CONTINUOUS
 10
9.3439
 20
9.9305
  0
VERTEX
  8
LAYER10
 62
     1
  6
CONTINUOUS
 10
9.3439
 20
9.9305
  0
VERTEX
  8
LAYER10
 62
     1
  6
CONTINUOUS
 10
9.3439
 20
9.9304
  0
VERTEX
  8
LAYER10
 62
     1
  6
CONTINUOUS
 10
9.3439
 20
9.9304
  0
VERTEX
  8
LAYER10
 62
     1
  6
CONTINUOUS
 10
9.3439
 20
9.9304
  0
VERTEX
  8
LAYER10
 62
     1
  6
CONTINUOUS
 10
9.3439
 20
9.9304
  0
VERTEX
  8
LAYER10
 62
     1
  6
CONTINUOUS
 10
9.3439
 20
9.9304
  0
VERTEX
  8
LAYER10
 62
     1
  6
CONTINUOUS
 10
9.3439
 20
9.9304
  0
VERTEX
  8
LAYER10
 62
     1
  6
CONTINUOUS
 10
9.3439
 20
9.9304
  0
VERTEX
  8
LAYER10
 62
     1
  6
CONTINUOUS
 10
9.3439
 20
9.9304
  0
VERTEX
  8
LAYER10
 62
     1
  6
CONTINUOUS
 10
9.3439
 20
9.9305
  0
VERTEX
  8
LAYER10
 62
     1
  6
CONTINUOUS
 10
9.3439
 20
9.9305
  0
VERTEX
  8
LAYER10
 62
     1
  6
CONTINUOUS
 10
9.3439
 20
9.9305
  0
VERTEX
  8
LAYER10
 62
     1
  6
CONTINUOUS
 10
9.3439
 20
9.9305
  0
VERTEX
  8
LAYER10
 62
     1
  6
CONTINUOUS
 10
9.3439
 20
9.9305
  0
VERTEX
  8
LAYER10
 62
     1
  6
CONTINUOUS
 10
9.3439
 20
9.9305
  0
VERTEX
  8
LAYER10
 62
     1
  6
CONTINUOUS
 10
9.3439
 20
9.9306
  0
VERTEX
  8
LAYER10
 62
     1
  6
CONTINUOUS
 10
9.3439
 20
9.9306
  0
VERTEX
  8
LAYER10
 62
     1
  6
CONTINUOUS
 10
9.3439
 20
9.9306
  0
VERTEX
  8
LAYER10
 62
     1
  6
CONTINUOUS
 10
9.3439
 20
9.9306
  0
VERTEX
  8
LAYER10
 62
     1
  6
CONTINUOUS
 10
9.3439
 20
9.9306
  0
VERTEX
  8
LAYER10
 62
     1
  6
CONTINUOUS
 10
9.3439
 20
9.9306
  0
VERTEX
  8
LAYER10
 62
     1
  6
CONTINUOUS
 10
9.3439
 20
9.9305
  0
VERTEX
  8
LAYER10
 62
     1
  6
CONTINUOUS
 10
9.3439
 20
9.9305
  0
VERTEX
  8
LAYER10
 62
     1
  6
CONTINUOUS
 10
9.3439
 20
9.9305
  0
VERTEX
  8
LAYER10
 62
     1
  6
CONTINUOUS
 10
9.3435
 20
9.9297
  0
VERTEX
  8
LAYER10
 62
     1
  6
CONTINUOUS
 10
9.3426
 20
9.9281
  0
VERTEX
  8
LAYER10
 62
     1
  6
CONTINUOUS
 10
9.3413
 20
9.9257
  0
VERTEX
  8
LAYER10
 62
     1
  6
CONTINUOUS
 10
9.3396
 20
9.9228
  0
VERTEX
  8
LAYER10
 62
     1
  6
CONTINUOUS
 10
9.3376
 20
9.9194
  0
VERTEX
  8
LAYER10
 62
     1
  6
CONTINUOUS
 10
9.3354
 20
9.9155
  0
VERTEX
  8
LAYER10
 62
     1
  6
CONTINUOUS
 10
9.3329
 20
9.9113
  0
VERTEX
  8
LAYER10
 62
     1
  6
CONTINUOUS
 10
9.3303
 20
9.9070
  0
VERTEX
  8
LAYER10
 62
     1
  6
CONTINUOUS
 10
9.3275
 20
9.9025
  0
VERTEX
  8
LAYER10
 62
     1
  6
CONTINUOUS
 10
9.3247
 20
9.8981
  0
VERTEX
  8
LAYER10
 62
     1
  6
CONTINUOUS
 10
9.3218
 20
9.8938
  0
VERTEX
  8
LAYER10
 62
     1
  6
CONTINUOUS
 10
9.3190
 20
9.8897
  0
VERTEX
  8
LAYER10
 62
     1
  6
CONTINUOUS
 10
9.3170
 20
9.8868
  0
VERTEX
  8
LAYER10
 62
     1
  6
CONTINUOUS
 10
9.3149
 20
9.8841
  0
VERTEX
  8
LAYER10
 62
     1
  6
CONTINUOUS
 10
9.3129
 20
9.8815
  0
VERTEX
  8
LAYER10
 62
     1
  6
CONTINUOUS
 10
9.3109
 20
9.8791
  0
VERTEX
  8
LAYER10
 62
     1
  6
CONTINUOUS
 10
9.3089
 20
9.8769
  0
VERTEX
  8
LAYER10
 62
     1
  6
CONTINUOUS
 10
9.3069
 20
9.8747
  0
VERTEX
  8
LAYER10
 62
     1
  6
CONTINUOUS
 10
9.3049
 20
9.8727
  0
VERTEX
  8
LAYER10
 62
     1
  6
CONTINUOUS
 10
9.3028
 20
9.8708
  0
VERTEX
  8
LAYER10
 62
     1
  6
CONTINUOUS
 10
9.3007
 20
9.8690
  0
VERTEX
  8
LAYER10
 62
     1
  6
CONTINUOUS
 10
9.2985
 20
9.8673
  0
VERTEX
  8
LAYER10
 62
     1
  6
CONTINUOUS
 10
9.2963
 20
9.8656
  0
VERTEX
  8
LAYER10
 62
     1
  6
CONTINUOUS
 10
9.2940
 20
9.8640
  0
VERTEX
  8
LAYER10
 62
     1
  6
CONTINUOUS
 10
9.2914
 20
9.8624
  0
VERTEX
  8
LAYER10
 62
     1
  6
CONTINUOUS
 10
9.2887
 20
9.8608
  0
VERTEX
  8
LAYER10
 62
     1
  6
CONTINUOUS
 10
9.2859
 20
9.8593
  0
VERTEX
  8
LAYER10
 62
     1
  6
CONTINUOUS
 10
9.2831
 20
9.8579
  0
VERTEX
  8
LAYER10
 62
     1
  6
CONTINUOUS
 10
9.2802
 20
9.8565
  0
VERTEX
  8
LAYER10
 62
     1
  6
CONTINUOUS
 10
9.2772
 20
9.8552
  0
VERTEX
  8
LAYER10
 62
     1
  6
CONTINUOUS
 10
9.2742
 20
9.8539
  0
VERTEX
  8
LAYER10
 62
     1
  6
CONTINUOUS
 10
9.2711
 20
9.8527
  0
VERTEX
  8
LAYER10
 62
     1
  6
CONTINUOUS
 10
9.2680
 20
9.8516
  0
VERTEX
  8
LAYER10
 62
     1
  6
CONTINUOUS
 10
9.2649
 20
9.8505
  0
VERTEX
  8
LAYER10
 62
     1
  6
CONTINUOUS
 10
9.2618
 20
9.8494
  0
VERTEX
  8
LAYER10
 62
     1
  6
CONTINUOUS
 10
9.2586
 20
9.8484
  0
VERTEX
  8
LAYER10
 62
     1
  6
CONTINUOUS
 10
9.2561
 20
9.8477
  0
VERTEX
  8
LAYER10
 62
     1
  6
CONTINUOUS
 10
9.2536
 20
9.8470
  0
VERTEX
  8
LAYER10
 62
     1
  6
CONTINUOUS
 10
9.2511
 20
9.8463
  0
VERTEX
  8
LAYER10
 62
     1
  6
CONTINUOUS
 10
9.2486
 20
9.8457
  0
VERTEX
  8
LAYER10
 62
     1
  6
CONTINUOUS
 10
9.2461
 20
9.8451
  0
VERTEX
  8
LAYER10
 62
     1
  6
CONTINUOUS
 10
9.2436
 20
9.8446
  0
VERTEX
  8
LAYER10
 62
     1
  6
CONTINUOUS
 10
9.2410
 20
9.8442
  0
VERTEX
  8
LAYER10
 62
     1
  6
CONTINUOUS
 10
9.2385
 20
9.8438
  0
VERTEX
  8
LAYER10
 62
     1
  6
CONTINUOUS
 10
9.2360
 20
9.8435
  0
VERTEX
  8
LAYER10
 62
     1
  6
CONTINUOUS
 10
9.2334
 20
9.8433
  0
VERTEX
  8
LAYER10
 62
     1
  6
CONTINUOUS
 10
9.2309
 20
9.8431
  0
VERTEX
  8
LAYER10
 62
     1
  6
CONTINUOUS
 10
9.2283
 20
9.8430
  0
VERTEX
  8
LAYER10
 62
     1
  6
CONTINUOUS
 10
9.2244
 20
9.8431
  0
VERTEX
  8
LAYER10
 62
     1
  6
CONTINUOUS
 10
9.2205
 20
9.8433
  0
VERTEX
  8
LAYER10
 62
     1
  6
CONTINUOUS
 10
9.2165
 20
9.8438
  0
VERTEX
  8
LAYER10
 62
     1
  6
CONTINUOUS
 10
9.2126
 20
9.8444
  0
VERTEX
  8
LAYER10
 62
     1
  6
CONTINUOUS
 10
9.2087
 20
9.8451
  0
VERTEX
  8
LAYER10
 62
     1
  6
CONTINUOUS
 10
9.2048
 20
9.8459
  0
VERTEX
  8
LAYER10
 62
     1
  6
CONTINUOUS
 10
9.2010
 20
9.8469
  0
VERTEX
  8
LAYER10
 62
     1
  6
CONTINUOUS
 10
9.1972
 20
9.8479
  0
VERTEX
  8
LAYER10
 62
     1
  6
CONTINUOUS
 10
9.1934
 20
9.8490
  0
VERTEX
  8
LAYER10
 62
     1
  6
CONTINUOUS
 10
9.1897
 20
9.8502
  0
VERTEX
  8
LAYER10
 62
     1
  6
CONTINUOUS
 10
9.1861
 20
9.8514
  0
VERTEX
  8
LAYER10
 62
     1
  6
CONTINUOUS
 10
9.1826
 20
9.8527
  0
VERTEX
  8
LAYER10
 62
     1
  6
CONTINUOUS
 10
9.1785
 20
9.8541
  0
VERTEX
  8
LAYER10
 62
     1
  6
CONTINUOUS
 10
9.1745
 20
9.8556
  0
VERTEX
  8
LAYER10
 62
     1
  6
CONTINUOUS
 10
9.1706
 20
9.8571
  0
VERTEX
  8
LAYER10
 62
     1
  6
CONTINUOUS
 10
9.1667
 20
9.8586
  0
VERTEX
  8
LAYER10
 62
     1
  6
CONTINUOUS
 10
9.1628
 20
9.8602
  0
VERTEX
  8
LAYER10
 62
     1
  6
CONTINUOUS
 10
9.1588
 20
9.8618
  0
VERTEX
  8
LAYER10
 62
     1
  6
CONTINUOUS
 10
9.1547
 20
9.8634
  0
VERTEX
  8
LAYER10
 62
     1
  6
CONTINUOUS
 10
9.1505
 20
9.8651
  0
VERTEX
  8
LAYER10
 62
     1
  6
CONTINUOUS
 10
9.1461
 20
9.8668
  0
VERTEX
  8
LAYER10
 62
     1
  6
CONTINUOUS
 10
9.1415
 20
9.8686
  0
VERTEX
  8
LAYER10
 62
     1
  6
CONTINUOUS
 10
9.1367
 20
9.8704
  0
VERTEX
  8
LAYER10
 62
     1
  6
CONTINUOUS
 10
9.1316
 20
9.8724
  0
VERTEX
  8
LAYER10
 62
     1
  6
CONTINUOUS
 10
9.1258
 20
9.8745
  0
VERTEX
  8
LAYER10
 62
     1
  6
CONTINUOUS
 10
9.1197
 20
9.8767
  0
VERTEX
  8
LAYER10
 62
     1
  6
CONTINUOUS
 10
9.1135
 20
9.8789
  0
VERTEX
  8
LAYER10
 62
     1
  6
CONTINUOUS
 10
9.1074
 20
9.8811
  0
VERTEX
  8
LAYER10
 62
     1
  6
CONTINUOUS
 10
9.1014
 20
9.8832
  0
VERTEX
  8
LAYER10
 62
     1
  6
CONTINUOUS
 10
9.0958
 20
9.8852
  0
VERTEX
  8
LAYER10
 62
     1
  6
CONTINUOUS
 10
9.0905
 20
9.8870
  0
VERTEX
  8
LAYER10
 62
     1
  6
CONTINUOUS
 10
9.0859
 20
9.8886
  0
VERTEX
  8
LAYER10
 62
     1
  6
CONTINUOUS
 10
9.0819
 20
9.8899
  0
VERTEX
  8
LAYER10
 62
     1
  6
CONTINUOUS
 10
9.0788
 20
9.8910
  0
VERTEX
  8
LAYER10
 62
     1
  6
CONTINUOUS
 10
9.0767
 20
9.8917
  0
VERTEX
  8
LAYER10
 62
     1
  6
CONTINUOUS
 10
9.0757
 20
9.8920
  0
VERTEX
  8
LAYER10
 62
     1
  6
CONTINUOUS
 10
9.0756
 20
9.8920
  0
VERTEX
  8
LAYER10
 62
     1
  6
CONTINUOUS
 10
9.0756
 20
9.8921
  0
VERTEX
  8
LAYER10
 62
     1
  6
CONTINUOUS
 10
9.0756
 20
9.8921
  0
VERTEX
  8
LAYER10
 62
     1
  6
CONTINUOUS
 10
9.0756
 20
9.8921
  0
VERTEX
  8
LAYER10
 62
     1
  6
CONTINUOUS
 10
9.0756
 20
9.8921
  0
VERTEX
  8
LAYER10
 62
     1
  6
CONTINUOUS
 10
9.0756
 20
9.8921
  0
VERTEX
  8
LAYER10
 62
     1
  6
CONTINUOUS
 10
9.0756
 20
9.8921
  0
VERTEX
  8
LAYER10
 62
     1
  6
CONTINUOUS
 10
9.0756
 20
9.8921
  0
VERTEX
  8
LAYER10
 62
     1
  6
CONTINUOUS
 10
9.0756
 20
9.8921
  0
VERTEX
  8
LAYER10
 62
     1
  6
CONTINUOUS
 10
9.0756
 20
9.8921
  0
VERTEX
  8
LAYER10
 62
     1
  6
CONTINUOUS
 10
9.0756
 20
9.8920
  0
VERTEX
  8
LAYER10
 62
     1
  6
CONTINUOUS
 10
9.0757
 20
9.8920
  0
VERTEX
  8
LAYER10
 62
     1
  6
CONTINUOUS
 10
9.0757
 20
9.8920
  0
VERTEX
  8
LAYER10
 62
     1
  6
CONTINUOUS
 10
9.0757
 20
9.8920
  0
VERTEX
  8
LAYER10
 62
     1
  6
CONTINUOUS
 10
9.0757
 20
9.8920
  0
VERTEX
  8
LAYER10
 62
     1
  6
CONTINUOUS
 10
9.0758
 20
9.8920
  0
VERTEX
  8
LAYER10
 62
     1
  6
CONTINUOUS
 10
9.0758
 20
9.8920
  0
VERTEX
  8
LAYER10
 62
     1
  6
CONTINUOUS
 10
9.0758
 20
9.8920
  0
VERTEX
  8
LAYER10
 62
     1
  6
CONTINUOUS
 10
9.0758
 20
9.8920
  0
VERTEX
  8
LAYER10
 62
     1
  6
CONTINUOUS
 10
9.0758
 20
9.8920
  0
VERTEX
  8
LAYER10
 62
     1
  6
CONTINUOUS
 10
9.0758
 20
9.8920
  0
VERTEX
  8
LAYER10
 62
     1
  6
CONTINUOUS
 10
9.0758
 20
9.8920
  0
VERTEX
  8
LAYER10
 62
     1
  6
CONTINUOUS
 10
9.0757
 20
9.8920
  0
VERTEX
  8
LAYER10
 62
     1
  6
CONTINUOUS
 10
9.0757
 20
9.8920
  0
VERTEX
  8
LAYER10
 62
     1
  6
CONTINUOUS
 10
9.0752
 20
9.8922
  0
VERTEX
  8
LAYER10
 62
     1
  6
CONTINUOUS
 10
9.0745
 20
9.8924
  0
VERTEX
  8
LAYER10
 62
     1
  6
CONTINUOUS
 10
9.0734
 20
9.8927
  0
VERTEX
  8
LAYER10
 62
     1
  6
CONTINUOUS
 10
9.0722
 20
9.8931
  0
VERTEX
  8
LAYER10
 62
     1
  6
CONTINUOUS
 10
9.0706
 20
9.8936
  0
VERTEX
  8
LAYER10
 62
     1
  6
CONTINUOUS
 10
9.0689
 20
9.8942
  0
VERTEX
  8
LAYER10
 62
     1
  6
CONTINUOUS
 10
9.0670
 20
9.8947
  0
VERTEX
  8
LAYER10
 62
     1
  6
CONTINUOUS
 10
9.0650
 20
9.8954
  0
VERTEX
  8
LAYER10
 62
     1
  6
CONTINUOUS
 10
9.0629
 20
9.8960
  0
VERTEX
  8
LAYER10
 62
     1
  6
CONTINUOUS
 10
9.0607
 20
9.8967
  0
VERTEX
  8
LAYER10
 62
     1
  6
CONTINUOUS
 10
9.0584
 20
9.8975
  0
VERTEX
  8
LAYER10
 62
     1
  6
CONTINUOUS
 10
9.0561
 20
9.8982
  0
SEQEND
  8
LAYER10
  0
POLYLINE
  8
LAYER10
 62
     1
 66
     1
  6
CONTINUOUS
  0
VERTEX
  8
LAYER10
 62
     1
  6
CONTINUOUS
 10
9.0561
 20
9.8982
  0
VERTEX
  8
LAYER10
 62
     1
  6
CONTINUOUS
 10
9.0561
 20
9.8982
  0
VERTEX
  8
LAYER10
 62
     1
  6
CONTINUOUS
 10
9.0561
 20
9.8982
  0
VERTEX
  8
LAYER10
 62
     1
  6
CONTINUOUS
 10
9.0561
 20
9.8982
  0
VERTEX
  8
LAYER10
 62
     1
  6
CONTINUOUS
 10
9.0561
 20
9.8982
  0
VERTEX
  8
LAYER10
 62
     1
  6
CONTINUOUS
 10
9.0561
 20
9.8982
  0
VERTEX
  8
LAYER10
 62
     1
  6
CONTINUOUS
 10
9.0561
 20
9.8982
  0
VERTEX
  8
LAYER10
 62
     1
  6
CONTINUOUS
 10
9.0561
 20
9.8982
  0
VERTEX
  8
LAYER10
 62
     1
  6
CONTINUOUS
 10
9.0561
 20
9.8982
  0
VERTEX
  8
LAYER10
 62
     1
  6
CONTINUOUS
 10
9.0561
 20
9.8982
  0
VERTEX
  8
LAYER10
 62
     1
  6
CONTINUOUS
 10
9.0561
 20
9.8982
  0
VERTEX
  8
LAYER10
 62
     1
  6
CONTINUOUS
 10
9.0561
 20
9.8982
  0
VERTEX
  8
LAYER10
 62
     1
  6
CONTINUOUS
 10
9.0561
 20
9.8982
  0
VERTEX
  8
LAYER10
 62
     1
  6
CONTINUOUS
 10
9.0564
 20
9.8982
  0
VERTEX
  8
LAYER10
 62
     1
  6
CONTINUOUS
 10
9.0567
 20
9.8982
  0
VERTEX
  8
LAYER10
 62
     1
  6
CONTINUOUS
 10
9.0568
 20
9.8982
  0
VERTEX
  8
LAYER10
 62
     1
  6
CONTINUOUS
 10
9.0569
 20
9.8982
  0
VERTEX
  8
LAYER10
 62
     1
  6
CONTINUOUS
 10
9.0569
 20
9.8982
  0
VERTEX
  8
LAYER10
 62
     1
  6
CONTINUOUS
 10
9.0569
 20
9.8982
  0
VERTEX
  8
LAYER10
 62
     1
  6
CONTINUOUS
 10
9.0569
 20
9.8982
  0
VERTEX
  8
LAYER10
 62
     1
  6
CONTINUOUS
 10
9.0567
 20
9.8982
  0
VERTEX
  8
LAYER10
 62
     1
  6
CONTINUOUS
 10
9.0566
 20
9.8982
  0
VERTEX
  8
LAYER10
 62
     1
  6
CONTINUOUS
 10
9.0564
 20
9.8982
  0
VERTEX
  8
LAYER10
 62
     1
  6
CONTINUOUS
 10
9.0563
 20
9.8982
  0
VERTEX
  8
LAYER10
 62
     1
  6
CONTINUOUS
 10
9.0561
 20
9.8982
  0
SEQEND
  8
LAYER10
  0
POLYLINE
  8
LAYER10
 62
     1
 66
     1
  6
CONTINUOUS
  0
VERTEX
  8
LAYER10
 62
     1
  6
CONTINUOUS
 10
9.0561
 20
9.8982
  0
VERTEX
  8
LAYER10
 62
     1
  6
CONTINUOUS
 10
9.0561
 20
9.8982
  0
VERTEX
  8
LAYER10
 62
     1
  6
CONTINUOUS
 10
9.0561
 20
9.8982
  0
VERTEX
  8
LAYER10
 62
     1
  6
CONTINUOUS
 10
9.0561
 20
9.8982
  0
VERTEX
  8
LAYER10
 62
     1
  6
CONTINUOUS
 10
9.0561
 20
9.8982
  0
VERTEX
  8
LAYER10
 62
     1
  6
CONTINUOUS
 10
9.0561
 20
9.8982
  0
VERTEX
  8
LAYER10
 62
     1
  6
CONTINUOUS
 10
9.0561
 20
9.8982
  0
VERTEX
  8
LAYER10
 62
     1
  6
CONTINUOUS
 10
9.0561
 20
9.8982
  0
VERTEX
  8
LAYER10
 62
     1
  6
CONTINUOUS
 10
9.0561
 20
9.8982
  0
VERTEX
  8
LAYER10
 62
     1
  6
CONTINUOUS
 10
9.0561
 20
9.8982
  0
VERTEX
  8
LAYER10
 62
     1
  6
CONTINUOUS
 10
9.0561
 20
9.8982
  0
VERTEX
  8
LAYER10
 62
     1
  6
CONTINUOUS
 10
9.0561
 20
9.8982
  0
VERTEX
  8
LAYER10
 62
     1
  6
CONTINUOUS
 10
9.0561
 20
9.8982
  0
VERTEX
  8
LAYER10
 62
     1
  6
CONTINUOUS
 10
9.0558
 20
9.8982
  0
VERTEX
  8
LAYER10
 62
     1
  6
CONTINUOUS
 10
9.0555
 20
9.8982
  0
VERTEX
  8
LAYER10
 62
     1
  6
CONTINUOUS
 10
9.0553
 20
9.8982
  0
VERTEX
  8
LAYER10
 62
     1
  6
CONTINUOUS
 10
9.0553
 20
9.8982
  0
VERTEX
  8
LAYER10
 62
     1
  6
CONTINUOUS
 10
9.0552
 20
9.8982
  0
VERTEX
  8
LAYER10
 62
     1
  6
CONTINUOUS
 10
9.0552
 20
9.8982
  0
VERTEX
  8
LAYER10
 62
     1
  6
CONTINUOUS
 10
9.0553
 20
9.8982
  0
VERTEX
  8
LAYER10
 62
     1
  6
CONTINUOUS
 10
9.0554
 20
9.8982
  0
VERTEX
  8
LAYER10
 62
     1
  6
CONTINUOUS
 10
9.0556
 20
9.8982
  0
VERTEX
  8
LAYER10
 62
     1
  6
CONTINUOUS
 10
9.0557
 20
9.8982
  0
VERTEX
  8
LAYER10
 62
     1
  6
CONTINUOUS
 10
9.0559
 20
9.8982
  0
VERTEX
  8
LAYER10
 62
     1
  6
CONTINUOUS
 10
9.0561
 20
9.8982
  0
SEQEND
  8
LAYER10
  0
POLYLINE
  8
LAYER10
 62
     1
 66
     1
  6
CONTINUOUS
  0
VERTEX
  8
LAYER10
 62
     1
  6
CONTINUOUS
 10
9.0561
 20
10.2077
  0
VERTEX
  8
LAYER10
 62
     1
  6
CONTINUOUS
 10
9.0561
 20
10.2077
  0
VERTEX
  8
LAYER10
 62
     1
  6
CONTINUOUS
 10
9.0561
 20
10.2077
  0
VERTEX
  8
LAYER10
 62
     1
  6
CONTINUOUS
 10
9.0561
 20
10.2077
  0
VERTEX
  8
LAYER10
 62
     1
  6
CONTINUOUS
 10
9.0561
 20
10.2077
  0
VERTEX
  8
LAYER10
 62
     1
  6
CONTINUOUS
 10
9.0561
 20
10.2077
  0
VERTEX
  8
LAYER10
 62
     1
  6
CONTINUOUS
 10
9.0561
 20
10.2077
  0
VERTEX
  8
LAYER10
 62
     1
  6
CONTINUOUS
 10
9.0561
 20
10.2077
  0
VERTEX
  8
LAYER10
 62
     1
  6
CONTINUOUS
 10
9.0561
 20
10.2077
  0
VERTEX
  8
LAYER10
 62
     1
  6
CONTINUOUS
 10
9.0561
 20
10.2077
  0
VERTEX
  8
LAYER10
 62
     1
  6
CONTINUOUS
 10
9.0561
 20
10.2077
  0
VERTEX
  8
LAYER10
 62
     1
  6
CONTINUOUS
 10
9.0561
 20
10.2077
  0
VERTEX
  8
LAYER10
 62
     1
  6
CONTINUOUS
 10
9.0561
 20
10.2077
  0
VERTEX
  8
LAYER10
 62
     1
  6
CONTINUOUS
 10
9.0563
 20
10.2075
  0
VERTEX
  8
LAYER10
 62
     1
  6
CONTINUOUS
 10
9.0565
 20
10.2073
  0
VERTEX
  8
LAYER10
 62
     1
  6
CONTINUOUS
 10
9.0566
 20
10.2072
  0
VERTEX
  8
LAYER10
 62
     1
  6
CONTINUOUS
 10
9.0567
 20
10.2071
  0
VERTEX
  8
LAYER10
 62
     1
  6
CONTINUOUS
 10
9.0567
 20
10.2071
  0
VERTEX
  8
LAYER10
 62
     1
  6
CONTINUOUS
 10
9.0567
 20
10.2071
  0
VERTEX
  8
LAYER10
 62
     1
  6
CONTINUOUS
 10
9.0566
 20
10.2072
  0
VERTEX
  8
LAYER10
 62
     1
  6
CONTINUOUS
 10
9.0566
 20
10.2073
  0
VERTEX
  8
LAYER10
 62
     1
  6
CONTINUOUS
 10
9.0565
 20
10.2074
  0
VERTEX
  8
LAYER10
 62
     1
  6
CONTINUOUS
 10
9.0563
 20
10.2075
  0
VERTEX
  8
LAYER10
 62
     1
  6
CONTINUOUS
 10
9.0562
 20
10.2076
  0
VERTEX
  8
LAYER10
 62
     1
  6
CONTINUOUS
 10
9.0561
 20
10.2077
  0
SEQEND
  8
LAYER10
  0
POLYLINE
  8
LAYER10
 62
     1
 66
     1
  6
CONTINUOUS
  0
VERTEX
  8
LAYER10
 62
     1
  6
CONTINUOUS
 10
9.0561
 20
10.2077
  0
VERTEX
  8
LAYER10
 62
     1
  6
CONTINUOUS
 10
9.0561
 20
10.2077
  0
VERTEX
  8
LAYER10
 62
     1
  6
CONTINUOUS
 10
9.0561
 20
10.2077
  0
VERTEX
  8
LAYER10
 62
     1
  6
CONTINUOUS
 10
9.0561
 20
10.2077
  0
VERTEX
  8
LAYER10
 62
     1
  6
CONTINUOUS
 10
9.0561
 20
10.2077
  0
VERTEX
  8
LAYER10
 62
     1
  6
CONTINUOUS
 10
9.0561
 20
10.2077
  0
VERTEX
  8
LAYER10
 62
     1
  6
CONTINUOUS
 10
9.0561
 20
10.2077
  0
VERTEX
  8
LAYER10
 62
     1
  6
CONTINUOUS
 10
9.0561
 20
10.2077
  0
VERTEX
  8
LAYER10
 62
     1
  6
CONTINUOUS
 10
9.0561
 20
10.2077
  0
VERTEX
  8
LAYER10
 62
     1
  6
CONTINUOUS
 10
9.0561
 20
10.2077
  0
VERTEX
  8
LAYER10
 62
     1
  6
CONTINUOUS
 10
9.0561
 20
10.2077
  0
VERTEX
  8
LAYER10
 62
     1
  6
CONTINUOUS
 10
9.0561
 20
10.2077
  0
VERTEX
  8
LAYER10
 62
     1
  6
CONTINUOUS
 10
9.0561
 20
10.2077
  0
VERTEX
  8
LAYER10
 62
     1
  6
CONTINUOUS
 10
9.0558
 20
10.2080
  0
VERTEX
  8
LAYER10
 62
     1
  6
CONTINUOUS
 10
9.0557
 20
10.2081
  0
VERTEX
  8
LAYER10
 62
     1
  6
CONTINUOUS
 10
9.0556
 20
10.2083
  0
VERTEX
  8
LAYER10
 62
     1
  6
CONTINUOUS
 10
9.0555
 20
10.2083
  0
VERTEX
  8
LAYER10
 62
     1
  6
CONTINUOUS
 10
9.0555
 20
10.2083
  0
VERTEX
  8
LAYER10
 62
     1
  6
CONTINUOUS
 10
9.0555
 20
10.2083
  0
VERTEX
  8
LAYER10
 62
     1
  6
CONTINUOUS
 10
9.0555
 20
10.2083
  0
VERTEX
  8
LAYER10
 62
     1
  6
CONTINUOUS
 10
9.0556
 20
10.2082
  0
VERTEX
  8
LAYER10
 62
     1
  6
CONTINUOUS
 10
9.0557
 20
10.2081
  0
VERTEX
  8
LAYER10
 62
     1
  6
CONTINUOUS
 10
9.0558
 20
10.2080
  0
VERTEX
  8
LAYER10
 62
     1
  6
CONTINUOUS
 10
9.0559
 20
10.2079
  0
VERTEX
  8
LAYER10
 62
     1
  6
CONTINUOUS
 10
9.0561
 20
10.2077
  0
SEQEND
  8
LAYER10
  0
POLYLINE
  8
LAYER10
 62
     1
 66
     1
  6
CONTINUOUS
  0
VERTEX
  8
LAYER10
 62
     1
  6
CONTINUOUS
 10
9.0561
 20
10.2077
  0
VERTEX
  8
LAYER10
 62
     1
  6
CONTINUOUS
 10
9.0566
 20
10.2076
  0
VERTEX
  8
LAYER10
 62
     1
  6
CONTINUOUS
 10
9.0570
 20
10.2075
  0
VERTEX
  8
LAYER10
 62
     1
  6
CONTINUOUS
 10
9.0575
 20
10.2074
  0
VERTEX
  8
LAYER10
 62
     1
  6
CONTINUOUS
 10
9.0580
 20
10.2072
  0
VERTEX
  8
LAYER10
 62
     1
  6
CONTINUOUS
 10
9.0585
 20
10.2071
  0
VERTEX
  8
LAYER10
 62
     1
  6
CONTINUOUS
 10
9.0590
 20
10.2070
  0
VERTEX
  8
LAYER10
 62
     1
  6
CONTINUOUS
 10
9.0595
 20
10.2068
  0
VERTEX
  8
LAYER10
 62
     1
  6
CONTINUOUS
 10
9.0600
 20
10.2067
  0
VERTEX
  8
LAYER10
 62
     1
  6
CONTINUOUS
 10
9.0605
 20
10.2066
  0
VERTEX
  8
LAYER10
 62
     1
  6
CONTINUOUS
 10
9.0610
 20
10.2064
  0
VERTEX
  8
LAYER10
 62
     1
  6
CONTINUOUS
 10
9.0615
 20
10.2063
  0
VERTEX
  8
LAYER10
 62
     1
  6
CONTINUOUS
 10
9.0620
 20
10.2062
  0
VERTEX
  8
LAYER10
 62
     1
  6
CONTINUOUS
 10
9.0673
 20
10.2048
  0
VERTEX
  8
LAYER10
 62
     1
  6
CONTINUOUS
 10
9.0730
 20
10.2033
  0
VERTEX
  8
LAYER10
 62
     1
  6
CONTINUOUS
 10
9.0790
 20
10.2017
  0
VERTEX
  8
LAYER10
 62
     1
  6
CONTINUOUS
 10
9.0852
 20
10.2001
  0
VERTEX
  8
LAYER10
 62
     1
  6
CONTINUOUS
 10
9.0913
 20
10.1985
  0
VERTEX
  8
LAYER10
 62
     1
  6
CONTINUOUS
 10
9.0972
 20
10.1969
  0
VERTEX
  8
LAYER10
 62
     1
  6
CONTINUOUS
 10
9.1026
 20
10.1955
  0
VERTEX
  8
LAYER10
 62
     1
  6
CONTINUOUS
 10
9.1075
 20
10.1942
  0
VERTEX
  8
LAYER10
 62
     1
  6
CONTINUOUS
 10
9.1117
 20
10.1931
  0
VERTEX
  8
LAYER10
 62
     1
  6
CONTINUOUS
 10
9.1150
 20
10.1923
  0
VERTEX
  8
LAYER10
 62
     1
  6
CONTINUOUS
 10
9.1171
 20
10.1918
  0
VERTEX
  8
LAYER10
 62
     1
  6
CONTINUOUS
 10
9.1180
 20
10.1916
  0
VERTEX
  8
LAYER10
 62
     1
  6
CONTINUOUS
 10
9.1180
 20
10.1916
  0
VERTEX
  8
LAYER10
 62
     1
  6
CONTINUOUS
 10
9.1180
 20
10.1916
  0
VERTEX
  8
LAYER10
 62
     1
  6
CONTINUOUS
 10
9.1180
 20
10.1916
  0
VERTEX
  8
LAYER10
 62
     1
  6
CONTINUOUS
 10
9.1180
 20
10.1916
  0
VERTEX
  8
LAYER10
 62
     1
  6
CONTINUOUS
 10
9.1180
 20
10.1916
  0
VERTEX
  8
LAYER10
 62
     1
  6
CONTINUOUS
 10
9.1179
 20
10.1916
  0
VERTEX
  8
LAYER10
 62
     1
  6
CONTINUOUS
 10
9.1179
 20
10.1916
  0
VERTEX
  8
LAYER10
 62
     1
  6
CONTINUOUS
 10
9.1179
 20
10.1916
  0
VERTEX
  8
LAYER10
 62
     1
  6
CONTINUOUS
 10
9.1179
 20
10.1916
  0
VERTEX
  8
LAYER10
 62
     1
  6
CONTINUOUS
 10
9.1179
 20
10.1916
  0
VERTEX
  8
LAYER10
 62
     1
  6
CONTINUOUS
 10
9.1179
 20
10.1916
  0
VERTEX
  8
LAYER10
 62
     1
  6
CONTINUOUS
 10
9.1180
 20
10.1916
  0
VERTEX
  8
LAYER10
 62
     1
  6
CONTINUOUS
 10
9.1193
 20
10.1908
  0
VERTEX
  8
LAYER10
 62
     1
  6
CONTINUOUS
 10
9.1225
 20
10.1891
  0
VERTEX
  8
LAYER10
 62
     1
  6
CONTINUOUS
 10
9.1271
 20
10.1867
  0
VERTEX
  8
LAYER10
 62
     1
  6
CONTINUOUS
 10
9.1328
 20
10.1837
  0
VERTEX
  8
LAYER10
 62
     1
  6
CONTINUOUS
 10
9.1392
 20
10.1803
  0
VERTEX
  8
LAYER10
 62
     1
  6
CONTINUOUS
 10
9.1460
 20
10.1767
  0
VERTEX
  8
LAYER10
 62
     1
  6
CONTINUOUS
 10
9.1528
 20
10.1731
  0
VERTEX
  8
LAYER10
 62
     1
  6
CONTINUOUS
 10
9.1592
 20
10.1698
  0
VERTEX
  8
LAYER10
 62
     1
  6
CONTINUOUS
 10
9.1649
 20
10.1667
  0
VERTEX
  8
LAYER10
 62
     1
  6
CONTINUOUS
 10
9.1695
 20
10.1643
  0
VERTEX
  8
LAYER10
 62
     1
  6
CONTINUOUS
 10
9.1727
 20
10.1626
  0
VERTEX
  8
LAYER10
 62
     1
  6
CONTINUOUS
 10
9.1741
 20
10.1618
  0
VERTEX
  8
LAYER10
 62
     1
  6
CONTINUOUS
 10
9.1741
 20
10.1618
  0
VERTEX
  8
LAYER10
 62
     1
  6
CONTINUOUS
 10
9.1741
 20
10.1618
  0
VERTEX
  8
LAYER10
 62
     1
  6
CONTINUOUS
 10
9.1741
 20
10.1618
  0
VERTEX
  8
LAYER10
 62
     1
  6
CONTINUOUS
 10
9.1741
 20
10.1618
  0
VERTEX
  8
LAYER10
 62
     1
  6
CONTINUOUS
 10
9.1741
 20
10.1618
  0
VERTEX
  8
LAYER10
 62
     1
  6
CONTINUOUS
 10
9.1741
 20
10.1618
  0
VERTEX
  8
LAYER10
 62
     1
  6
CONTINUOUS
 10
9.1741
 20
10.1618
  0
VERTEX
  8
LAYER10
 62
     1
  6
CONTINUOUS
 10
9.1741
 20
10.1618
  0
VERTEX
  8
LAYER10
 62
     1
  6
CONTINUOUS
 10
9.1741
 20
10.1618
  0
VERTEX
  8
LAYER10
 62
     1
  6
CONTINUOUS
 10
9.1740
 20
10.1618
  0
VERTEX
  8
LAYER10
 62
     1
  6
CONTINUOUS
 10
9.1740
 20
10.1618
  0
VERTEX
  8
LAYER10
 62
     1
  6
CONTINUOUS
 10
9.1741
 20
10.1618
  0
VERTEX
  8
LAYER10
 62
     1
  6
CONTINUOUS
 10
9.1749
 20
10.1617
  0
VERTEX
  8
LAYER10
 62
     1
  6
CONTINUOUS
 10
9.1769
 20
10.1612
  0
VERTEX
  8
LAYER10
 62
     1
  6
CONTINUOUS
 10
9.1799
 20
10.1605
  0
VERTEX
  8
LAYER10
 62
     1
  6
CONTINUOUS
 10
9.1839
 20
10.1595
  0
VERTEX
  8
LAYER10
 62
     1
  6
CONTINUOUS
 10
9.1886
 20
10.1583
  0
VERTEX
  8
LAYER10
 62
     1
  6
CONTINUOUS
 10
9.1939
 20
10.1569
  0
VERTEX
  8
LAYER10
 62
     1
  6
CONTINUOUS
 10
9.1996
 20
10.1554
  0
VERTEX
  8
LAYER10
 62
     1
  6
CONTINUOUS
 10
9.2057
 20
10.1538
  0
VERTEX
  8
LAYER10
 62
     1
  6
CONTINUOUS
 10
9.2119
 20
10.1522
  0
VERTEX
  8
LAYER10
 62
     1
  6
CONTINUOUS
 10
9.2181
 20
10.1505
  0
VERTEX
  8
LAYER10
 62
     1
  6
CONTINUOUS
 10
9.2242
 20
10.1488
  0
VERTEX
  8
LAYER10
 62
     1
  6
CONTINUOUS
 10
9.2300
 20
10.1472
  0
VERTEX
  8
LAYER10
 62
     1
  6
CONTINUOUS
 10
9.2356
 20
10.1456
  0
VERTEX
  8
LAYER10
 62
     1
  6
CONTINUOUS
 10
9.2409
 20
10.1440
  0
VERTEX
  8
LAYER10
 62
     1
  6
CONTINUOUS
 10
9.2458
 20
10.1424
  0
VERTEX
  8
LAYER10
 62
     1
  6
CONTINUOUS
 10
9.2504
 20
10.1408
  0
VERTEX
  8
LAYER10
 62
     1
  6
CONTINUOUS
 10
9.2548
 20
10.1392
  0
VERTEX
  8
LAYER10
 62
     1
  6
CONTINUOUS
 10
9.2590
 20
10.1374
  0
VERTEX
  8
LAYER10
 62
     1
  6
CONTINUOUS
 10
9.2632
 20
10.1355
  0
VERTEX
  8
LAYER10
 62
     1
  6
CONTINUOUS
 10
9.2675
 20
10.1334
  0
VERTEX
  8
LAYER10
 62
     1
  6
CONTINUOUS
 10
9.2718
 20
10.1311
  0
VERTEX
  8
LAYER10
 62
     1
  6
CONTINUOUS
 10
9.2763
 20
10.1285
  0
VERTEX
  8
LAYER10
 62
     1
  6
CONTINUOUS
 10
9.2810
 20
10.1257
  0
VERTEX
  8
LAYER10
 62
     1
  6
CONTINUOUS
 10
9.2860
 20
10.1225
  0
VERTEX
  8
LAYER10
 62
     1
  6
CONTINUOUS
 10
9.2898
 20
10.1200
  0
VERTEX
  8
LAYER10
 62
     1
  6
CONTINUOUS
 10
9.2937
 20
10.1173
  0
VERTEX
  8
LAYER10
 62
     1
  6
CONTINUOUS
 10
9.2977
 20
10.1146
  0
VERTEX
  8
LAYER10
 62
     1
  6
CONTINUOUS
 10
9.3016
 20
10.1119
  0
VERTEX
  8
LAYER10
 62
     1
  6
CONTINUOUS
 10
9.3054
 20
10.1093
  0
VERTEX
  8
LAYER10
 62
     1
  6
CONTINUOUS
 10
9.3090
 20
10.1068
  0
VERTEX
  8
LAYER10
 62
     1
  6
CONTINUOUS
 10
9.3123
 20
10.1044
  0
VERTEX
  8
LAYER10
 62
     1
  6
CONTINUOUS
 10
9.3152
 20
10.1023
  0
VERTEX
  8
LAYER10
 62
     1
  6
CONTINUOUS
 10
9.3177
 20
10.1005
  0
VERTEX
  8
LAYER10
 62
     1
  6
CONTINUOUS
 10
9.3197
 20
10.0991
  0
VERTEX
  8
LAYER10
 62
     1
  6
CONTINUOUS
 10
9.3211
 20
10.0981
  0
VERTEX
  8
LAYER10
 62
     1
  6
CONTINUOUS
 10
9.3218
 20
10.0975
  0
VERTEX
  8
LAYER10
 62
     1
  6
CONTINUOUS
 10
9.3218
 20
10.0975
  0
VERTEX
  8
LAYER10
 62
     1
  6
CONTINUOUS
 10
9.3218
 20
10.0975
  0
VERTEX
  8
LAYER10
 62
     1
  6
CONTINUOUS
 10
9.3218
 20
10.0975
  0
VERTEX
  8
LAYER10
 62
     1
  6
CONTINUOUS
 10
9.3219
 20
10.0975
  0
VERTEX
  8
LAYER10
 62
     1
  6
CONTINUOUS
 10
9.3219
 20
10.0975
  0
VERTEX
  8
LAYER10
 62
     1
  6
CONTINUOUS
 10
9.3219
 20
10.0975
  0
VERTEX
  8
LAYER10
 62
     1
  6
CONTINUOUS
 10
9.3218
 20
10.0975
  0
VERTEX
  8
LAYER10
 62
     1
  6
CONTINUOUS
 10
9.3218
 20
10.0975
  0
VERTEX
  8
LAYER10
 62
     1
  6
CONTINUOUS
 10
9.3218
 20
10.0975
  0
VERTEX
  8
LAYER10
 62
     1
  6
CONTINUOUS
 10
9.3218
 20
10.0975
  0
VERTEX
  8
LAYER10
 62
     1
  6
CONTINUOUS
 10
9.3218
 20
10.0975
  0
VERTEX
  8
LAYER10
 62
     1
  6
CONTINUOUS
 10
9.3218
 20
10.0975
  0
VERTEX
  8
LAYER10
 62
     1
  6
CONTINUOUS
 10
9.3218
 20
10.0976
  0
VERTEX
  8
LAYER10
 62
     1
  6
CONTINUOUS
 10
9.3217
 20
10.0976
  0
VERTEX
  8
LAYER10
 62
     1
  6
CONTINUOUS
 10
9.3217
 20
10.0976
  0
VERTEX
  8
LAYER10
 62
     1
  6
CONTINUOUS
 10
9.3217
 20
10.0976
  0
VERTEX
  8
LAYER10
 62
     1
  6
CONTINUOUS
 10
9.3217
 20
10.0976
  0
VERTEX
  8
LAYER10
 62
     1
  6
CONTINUOUS
 10
9.3217
 20
10.0976
  0
VERTEX
  8
LAYER10
 62
     1
  6
CONTINUOUS
 10
9.3217
 20
10.0976
  0
VERTEX
  8
LAYER10
 62
     1
  6
CONTINUOUS
 10
9.3217
 20
10.0976
  0
VERTEX
  8
LAYER10
 62
     1
  6
CONTINUOUS
 10
9.3217
 20
10.0976
  0
VERTEX
  8
LAYER10
 62
     1
  6
CONTINUOUS
 10
9.3217
 20
10.0976
  0
VERTEX
  8
LAYER10
 62
     1
  6
CONTINUOUS
 10
9.3217
 20
10.0976
  0
VERTEX
  8
LAYER10
 62
     1
  6
CONTINUOUS
 10
9.3218
 20
10.0975
  0
VERTEX
  8
LAYER10
 62
     1
  6
CONTINUOUS
 10
9.3227
 20
10.0964
  0
VERTEX
  8
LAYER10
 62
     1
  6
CONTINUOUS
 10
9.3245
 20
10.0940
  0
VERTEX
  8
LAYER10
 62
     1
  6
CONTINUOUS
 10
9.3271
 20
10.0906
  0
VERTEX
  8
LAYER10
 62
     1
  6
CONTINUOUS
 10
9.3303
 20
10.0865
  0
VERTEX
  8
LAYER10
 62
     1
  6
CONTINUOUS
 10
9.3338
 20
10.0820
  0
VERTEX
  8
LAYER10
 62
     1
  6
CONTINUOUS
 10
9.3375
 20
10.0772
  0
VERTEX
  8
LAYER10
 62
     1
  6
CONTINUOUS
 10
9.3411
 20
10.0724
  0
VERTEX
  8
LAYER10
 62
     1
  6
CONTINUOUS
 10
9.3446
 20
10.0679
  0
VERTEX
  8
LAYER10
 62
     1
  6
CONTINUOUS
 10
9.3477
 20
10.0639
  0
VERTEX
  8
LAYER10
 62
     1
  6
CONTINUOUS
 10
9.3501
 20
10.0606
  0
VERTEX
  8
LAYER10
 62
     1
  6
CONTINUOUS
 10
9.3519
 20
10.0583
  0
VERTEX
  8
LAYER10
 62
     1
  6
CONTINUOUS
 10
9.3526
 20
10.0573
  0
VERTEX
  8
LAYER10
 62
     1
  6
CONTINUOUS
 10
9.3527
 20
10.0573
  0
VERTEX
  8
LAYER10
 62
     1
  6
CONTINUOUS
 10
9.3527
 20
10.0573
  0
VERTEX
  8
LAYER10
 62
     1
  6
CONTINUOUS
 10
9.3527
 20
10.0573
  0
VERTEX
  8
LAYER10
 62
     1
  6
CONTINUOUS
 10
9.3527
 20
10.0573
  0
VERTEX
  8
LAYER10
 62
     1
  6
CONTINUOUS
 10
9.3527
 20
10.0573
  0
VERTEX
  8
LAYER10
 62
     1
  6
CONTINUOUS
 10
9.3527
 20
10.0573
  0
VERTEX
  8
LAYER10
 62
     1
  6
CONTINUOUS
 10
9.3526
 20
10.0573
  0
VERTEX
  8
LAYER10
 62
     1
  6
CONTINUOUS
 10
9.3526
 20
10.0573
  0
VERTEX
  8
LAYER10
 62
     1
  6
CONTINUOUS
 10
9.3526
 20
10.0573
  0
VERTEX
  8
LAYER10
 62
     1
  6
CONTINUOUS
 10
9.3526
 20
10.0573
  0
VERTEX
  8
LAYER10
 62
     1
  6
CONTINUOUS
 10
9.3526
 20
10.0573
  0
VERTEX
  8
LAYER10
 62
     1
  6
CONTINUOUS
 10
9.3526
 20
10.0573
  0
VERTEX
  8
LAYER10
 62
     1
  6
CONTINUOUS
 10
9.3529
 20
10.0570
  0
VERTEX
  8
LAYER10
 62
     1
  6
CONTINUOUS
 10
9.3536
 20
10.0562
  0
VERTEX
  8
LAYER10
 62
     1
  6
CONTINUOUS
 10
9.3546
 20
10.0550
  0
VERTEX
  8
LAYER10
 62
     1
  6
CONTINUOUS
 10
9.3559
 20
10.0534
  0
VERTEX
  8
LAYER10
 62
     1
  6
CONTINUOUS
 10
9.3575
 20
10.0514
  0
VERTEX
  8
LAYER10
 62
     1
  6
CONTINUOUS
 10
9.3593
 20
10.0492
  0
VERTEX
  8
LAYER10
 62
     1
  6
CONTINUOUS
 10
9.3613
 20
10.0468
  0
VERTEX
  8
LAYER10
 62
     1
  6
CONTINUOUS
 10
9.3635
 20
10.0441
  0
VERTEX
  8
LAYER10
 62
     1
  6
CONTINUOUS
 10
9.3658
 20
10.0413
  0
VERTEX
  8
LAYER10
 62
     1
  6
CONTINUOUS
 10
9.3682
 20
10.0383
  0
VERTEX
  8
LAYER10
 62
     1
  6
CONTINUOUS
 10
9.3707
 20
10.0353
  0
VERTEX
  8
LAYER10
 62
     1
  6
CONTINUOUS
 10
9.3732
 20
10.0322
  0
SEQEND
  8
LAYER10
  0
POLYLINE
  8
LAYER10
 62
     1
 66
     1
  6
CONTINUOUS
  0
VERTEX
  8
LAYER10
 62
     1
  6
CONTINUOUS
 10
10.0226
 20
10.4399
  0
VERTEX
  8
LAYER10
 62
     1
  6
CONTINUOUS
 10
10.0232
 20
10.4386
  0
VERTEX
  8
LAYER10
 62
     1
  6
CONTINUOUS
 10
10.0238
 20
10.4374
  0
VERTEX
  8
LAYER10
 62
     1
  6
CONTINUOUS
 10
10.0243
 20
10.4361
  0
VERTEX
  8
LAYER10
 62
     1
  6
CONTINUOUS
 10
10.0249
 20
10.4348
  0
VERTEX
  8
LAYER10
 62
     1
  6
CONTINUOUS
 10
10.0254
 20
10.4336
  0
VERTEX
  8
LAYER10
 62
     1
  6
CONTINUOUS
 10
10.0259
 20
10.4323
  0
VERTEX
  8
LAYER10
 62
     1
  6
CONTINUOUS
 10
10.0264
 20
10.4310
  0
VERTEX
  8
LAYER10
 62
     1
  6
CONTINUOUS
 10
10.0268
 20
10.4298
  0
VERTEX
  8
LAYER10
 62
     1
  6
CONTINUOUS
 10
10.0271
 20
10.4285
  0
VERTEX
  8
LAYER10
 62
     1
  6
CONTINUOUS
 10
10.0274
 20
10.4273
  0
VERTEX
  8
LAYER10
 62
     1
  6
CONTINUOUS
 10
10.0277
 20
10.4260
  0
VERTEX
  8
LAYER10
 62
     1
  6
CONTINUOUS
 10
10.0279
 20
10.4247
  0
VERTEX
  8
LAYER10
 62
     1
  6
CONTINUOUS
 10
10.0280
 20
10.4227
  0
VERTEX
  8
LAYER10
 62
     1
  6
CONTINUOUS
 10
10.0280
 20
10.4207
  0
VERTEX
  8
LAYER10
 62
     1
  6
CONTINUOUS
 10
10.0278
 20
10.4186
  0
VERTEX
  8
LAYER10
 62
     1
  6
CONTINUOUS
 10
10.0275
 20
10.4165
  0
VERTEX
  8
LAYER10
 62
     1
  6
CONTINUOUS
 10
10.0271
 20
10.4145
  0
VERTEX
  8
LAYER10
 62
     1
  6
CONTINUOUS
 10
10.0266
 20
10.4124
  0
VERTEX
  8
LAYER10
 62
     1
  6
CONTINUOUS
 10
10.0260
 20
10.4103
  0
VERTEX
  8
LAYER10
 62
     1
  6
CONTINUOUS
 10
10.0254
 20
10.4081
  0
VERTEX
  8
LAYER10
 62
     1
  6
CONTINUOUS
 10
10.0248
 20
10.4060
  0
VERTEX
  8
LAYER10
 62
     1
  6
CONTINUOUS
 10
10.0242
 20
10.4038
  0
VERTEX
  8
LAYER10
 62
     1
  6
CONTINUOUS
 10
10.0236
 20
10.4016
  0
VERTEX
  8
LAYER10
 62
     1
  6
CONTINUOUS
 10
10.0231
 20
10.3993
  0
VERTEX
  8
LAYER10
 62
     1
  6
CONTINUOUS
 10
10.0226
 20
10.3969
  0
VERTEX
  8
LAYER10
 62
     1
  6
CONTINUOUS
 10
10.0221
 20
10.3945
  0
VERTEX
  8
LAYER10
 62
     1
  6
CONTINUOUS
 10
10.0216
 20
10.3921
  0
VERTEX
  8
LAYER10
 62
     1
  6
CONTINUOUS
 10
10.0212
 20
10.3897
  0
VERTEX
  8
LAYER10
 62
     1
  6
CONTINUOUS
 10
10.0206
 20
10.3873
  0
VERTEX
  8
LAYER10
 62
     1
  6
CONTINUOUS
 10
10.0200
 20
10.3850
  0
VERTEX
  8
LAYER10
 62
     1
  6
CONTINUOUS
 10
10.0193
 20
10.3828
  0
VERTEX
  8
LAYER10
 62
     1
  6
CONTINUOUS
 10
10.0185
 20
10.3807
  0
VERTEX
  8
LAYER10
 62
     1
  6
CONTINUOUS
 10
10.0175
 20
10.3787
  0
VERTEX
  8
LAYER10
 62
     1
  6
CONTINUOUS
 10
10.0163
 20
10.3769
  0
VERTEX
  8
LAYER10
 62
     1
  6
CONTINUOUS
 10
10.0149
 20
10.3753
  0
VERTEX
  8
LAYER10
 62
     1
  6
CONTINUOUS
 10
10.0132
 20
10.3739
  0
VERTEX
  8
LAYER10
 62
     1
  6
CONTINUOUS
 10
10.0116
 20
10.3729
  0
VERTEX
  8
LAYER10
 62
     1
  6
CONTINUOUS
 10
10.0099
 20
10.3720
  0
VERTEX
  8
LAYER10
 62
     1
  6
CONTINUOUS
 10
10.0080
 20
10.3712
  0
VERTEX
  8
LAYER10
 62
     1
  6
CONTINUOUS
 10
10.0061
 20
10.3704
  0
VERTEX
  8
LAYER10
 62
     1
  6
CONTINUOUS
 10
10.0041
 20
10.3697
  0
VERTEX
  8
LAYER10
 62
     1
  6
CONTINUOUS
 10
10.0022
 20
10.3690
  0
VERTEX
  8
LAYER10
 62
     1
  6
CONTINUOUS
 10
10.0003
 20
10.3683
  0
VERTEX
  8
LAYER10
 62
     1
  6
CONTINUOUS
 10
9.9985
 20
10.3676
  0
VERTEX
  8
LAYER10
 62
     1
  6
CONTINUOUS
 10
9.9968
 20
10.3667
  0
VERTEX
  8
LAYER10
 62
     1
  6
CONTINUOUS
 10
9.9953
 20
10.3658
  0
VERTEX
  8
LAYER10
 62
     1
  6
CONTINUOUS
 10
9.9941
 20
10.3647
  0
VERTEX
  8
LAYER10
 62
     1
  6
CONTINUOUS
 10
9.9931
 20
10.3635
  0
VERTEX
  8
LAYER10
 62
     1
  6
CONTINUOUS
 10
9.9924
 20
10.3623
  0
VERTEX
  8
LAYER10
 62
     1
  6
CONTINUOUS
 10
9.9919
 20
10.3609
  0
VERTEX
  8
LAYER10
 62
     1
  6
CONTINUOUS
 10
9.9917
 20
10.3594
  0
VERTEX
  8
LAYER10
 62
     1
  6
CONTINUOUS
 10
9.9916
 20
10.3578
  0
VERTEX
  8
LAYER10
 62
     1
  6
CONTINUOUS
 10
9.9916
 20
10.3561
  0
VERTEX
  8
LAYER10
 62
     1
  6
CONTINUOUS
 10
9.9917
 20
10.3543
  0
VERTEX
  8
LAYER10
 62
     1
  6
CONTINUOUS
 10
9.9919
 20
10.3525
  0
VERTEX
  8
LAYER10
 62
     1
  6
CONTINUOUS
 10
9.9922
 20
10.3507
  0
VERTEX
  8
LAYER10
 62
     1
  6
CONTINUOUS
 10
9.9925
 20
10.3488
  0
VERTEX
  8
LAYER10
 62
     1
  6
CONTINUOUS
 10
9.9928
 20
10.3469
  0
VERTEX
  8
LAYER10
 62
     1
  6
CONTINUOUS
 10
9.9931
 20
10.3451
  0
VERTEX
  8
LAYER10
 62
     1
  6
CONTINUOUS
 10
9.9933
 20
10.3432
  0
VERTEX
  8
LAYER10
 62
     1
  6
CONTINUOUS
 10
9.9934
 20
10.3419
  0
VERTEX
  8
LAYER10
 62
     1
  6
CONTINUOUS
 10
9.9935
 20
10.3406
  0
VERTEX
  8
LAYER10
 62
     1
  6
CONTINUOUS
 10
9.9935
 20
10.3393
  0
VERTEX
  8
LAYER10
 62
     1
  6
CONTINUOUS
 10
9.9935
 20
10.3380
  0
VERTEX
  8
LAYER10
 62
     1
  6
CONTINUOUS
 10
9.9935
 20
10.3367
  0
VERTEX
  8
LAYER10
 62
     1
  6
CONTINUOUS
 10
9.9935
 20
10.3355
  0
VERTEX
  8
LAYER10
 62
     1
  6
CONTINUOUS
 10
9.9935
 20
10.3342
  0
VERTEX
  8
LAYER10
 62
     1
  6
CONTINUOUS
 10
9.9934
 20
10.3330
  0
VERTEX
  8
LAYER10
 62
     1
  6
CONTINUOUS
 10
9.9934
 20
10.3318
  0
VERTEX
  8
LAYER10
 62
     1
  6
CONTINUOUS
 10
9.9934
 20
10.3305
  0
VERTEX
  8
LAYER10
 62
     1
  6
CONTINUOUS
 10
9.9934
 20
10.3293
  0
VERTEX
  8
LAYER10
 62
     1
  6
CONTINUOUS
 10
9.9934
 20
10.3280
  0
VERTEX
  8
LAYER10
 62
     1
  6
CONTINUOUS
 10
9.9935
 20
10.3268
  0
VERTEX
  8
LAYER10
 62
     1
  6
CONTINUOUS
 10
9.9936
 20
10.3255
  0
VERTEX
  8
LAYER10
 62
     1
  6
CONTINUOUS
 10
9.9937
 20
10.3242
  0
VERTEX
  8
LAYER10
 62
     1
  6
CONTINUOUS
 10
9.9937
 20
10.3230
  0
VERTEX
  8
LAYER10
 62
     1
  6
CONTINUOUS
 10
9.9938
 20
10.3217
  0
VERTEX
  8
LAYER10
 62
     1
  6
CONTINUOUS
 10
9.9939
 20
10.3204
  0
VERTEX
  8
LAYER10
 62
     1
  6
CONTINUOUS
 10
9.9940
 20
10.3191
  0
VERTEX
  8
LAYER10
 62
     1
  6
CONTINUOUS
 10
9.9940
 20
10.3179
  0
VERTEX
  8
LAYER10
 62
     1
  6
CONTINUOUS
 10
9.9940
 20
10.3166
  0
VERTEX
  8
LAYER10
 62
     1
  6
CONTINUOUS
 10
9.9939
 20
10.3153
  0
VERTEX
  8
LAYER10
 62
     1
  6
CONTINUOUS
 10
9.9938
 20
10.3141
  0
VERTEX
  8
LAYER10
 62
     1
  6
CONTINUOUS
 10
9.9936
 20
10.3128
  0
VERTEX
  8
LAYER10
 62
     1
  6
CONTINUOUS
 10
9.9932
 20
10.3108
  0
VERTEX
  8
LAYER10
 62
     1
  6
CONTINUOUS
 10
9.9925
 20
10.3088
  0
VERTEX
  8
LAYER10
 62
     1
  6
CONTINUOUS
 10
9.9917
 20
10.3068
  0
VERTEX
  8
LAYER10
 62
     1
  6
CONTINUOUS
 10
9.9908
 20
10.3049
  0
VERTEX
  8
LAYER10
 62
     1
  6
CONTINUOUS
 10
9.9897
 20
10.3031
  0
VERTEX
  8
LAYER10
 62
     1
  6
CONTINUOUS
 10
9.9884
 20
10.3013
  0
VERTEX
  8
LAYER10
 62
     1
  6
CONTINUOUS
 10
9.9870
 20
10.2996
  0
VERTEX
  8
LAYER10
 62
     1
  6
CONTINUOUS
 10
9.9855
 20
10.2979
  0
VERTEX
  8
LAYER10
 62
     1
  6
CONTINUOUS
 10
9.9839
 20
10.2964
  0
VERTEX
  8
LAYER10
 62
     1
  6
CONTINUOUS
 10
9.9823
 20
10.2950
  0
VERTEX
  8
LAYER10
 62
     1
  6
CONTINUOUS
 10
9.9805
 20
10.2936
  0
VERTEX
  8
LAYER10
 62
     1
  6
CONTINUOUS
 10
9.9786
 20
10.2924
  0
VERTEX
  8
LAYER10
 62
     1
  6
CONTINUOUS
 10
9.9771
 20
10.2914
  0
VERTEX
  8
LAYER10
 62
     1
  6
CONTINUOUS
 10
9.9755
 20
10.2906
  0
VERTEX
  8
LAYER10
 62
     1
  6
CONTINUOUS
 10
9.9738
 20
10.2898
  0
VERTEX
  8
LAYER10
 62
     1
  6
CONTINUOUS
 10
9.9722
 20
10.2891
  0
VERTEX
  8
LAYER10
 62
     1
  6
CONTINUOUS
 10
9.9705
 20
10.2885
  0
VERTEX
  8
LAYER10
 62
     1
  6
CONTINUOUS
 10
9.9688
 20
10.2880
  0
VERTEX
  8
LAYER10
 62
     1
  6
CONTINUOUS
 10
9.9671
 20
10.2876
  0
VERTEX
  8
LAYER10
 62
     1
  6
CONTINUOUS
 10
9.9653
 20
10.2873
  0
VERTEX
  8
LAYER10
 62
     1
  6
CONTINUOUS
 10
9.9636
 20
10.2871
  0
VERTEX
  8
LAYER10
 62
     1
  6
CONTINUOUS
 10
9.9619
 20
10.2870
  0
VERTEX
  8
LAYER10
 62
     1
  6
CONTINUOUS
 10
9.9601
 20
10.2870
  0
VERTEX
  8
LAYER10
 62
     1
  6
CONTINUOUS
 10
9.9584
 20
10.2871
  0
VERTEX
  8
LAYER10
 62
     1
  6
CONTINUOUS
 10
9.9567
 20
10.2873
  0
VERTEX
  8
LAYER10
 62
     1
  6
CONTINUOUS
 10
9.9550
 20
10.2876
  0
VERTEX
  8
LAYER10
 62
     1
  6
CONTINUOUS
 10
9.9533
 20
10.2880
  0
VERTEX
  8
LAYER10
 62
     1
  6
CONTINUOUS
 10
9.9516
 20
10.2884
  0
VERTEX
  8
LAYER10
 62
     1
  6
CONTINUOUS
 10
9.9499
 20
10.2889
  0
VERTEX
  8
LAYER10
 62
     1
  6
CONTINUOUS
 10
9.9482
 20
10.2894
  0
VERTEX
  8
LAYER10
 62
     1
  6
CONTINUOUS
 10
9.9465
 20
10.2899
  0
VERTEX
  8
LAYER10
 62
     1
  6
CONTINUOUS
 10
9.9448
 20
10.2904
  0
VERTEX
  8
LAYER10
 62
     1
  6
CONTINUOUS
 10
9.9432
 20
10.2908
  0
VERTEX
  8
LAYER10
 62
     1
  6
CONTINUOUS
 10
9.9415
 20
10.2913
  0
VERTEX
  8
LAYER10
 62
     1
  6
CONTINUOUS
 10
9.9398
 20
10.2916
  0
VERTEX
  8
LAYER10
 62
     1
  6
CONTINUOUS
 10
9.9381
 20
10.2919
  0
VERTEX
  8
LAYER10
 62
     1
  6
CONTINUOUS
 10
9.9369
 20
10.2921
  0
VERTEX
  8
LAYER10
 62
     1
  6
CONTINUOUS
 10
9.9356
 20
10.2922
  0
VERTEX
  8
LAYER10
 62
     1
  6
CONTINUOUS
 10
9.9344
 20
10.2923
  0
VERTEX
  8
LAYER10
 62
     1
  6
CONTINUOUS
 10
9.9331
 20
10.2923
  0
VERTEX
  8
LAYER10
 62
     1
  6
CONTINUOUS
 10
9.9319
 20
10.2923
  0
VERTEX
  8
LAYER10
 62
     1
  6
CONTINUOUS
 10
9.9306
 20
10.2923
  0
VERTEX
  8
LAYER10
 62
     1
  6
CONTINUOUS
 10
9.9294
 20
10.2922
  0
VERTEX
  8
LAYER10
 62
     1
  6
CONTINUOUS
 10
9.9281
 20
10.2922
  0
VERTEX
  8
LAYER10
 62
     1
  6
CONTINUOUS
 10
9.9268
 20
10.2921
  0
VERTEX
  8
LAYER10
 62
     1
  6
CONTINUOUS
 10
9.9255
 20
10.2920
  0
VERTEX
  8
LAYER10
 62
     1
  6
CONTINUOUS
 10
9.9242
 20
10.2919
  0
VERTEX
  8
LAYER10
 62
     1
  6
CONTINUOUS
 10
9.9229
 20
10.2918
  0
VERTEX
  8
LAYER10
 62
     1
  6
CONTINUOUS
 10
9.9197
 20
10.2915
  0
VERTEX
  8
LAYER10
 62
     1
  6
CONTINUOUS
 10
9.9165
 20
10.2913
  0
VERTEX
  8
LAYER10
 62
     1
  6
CONTINUOUS
 10
9.9133
 20
10.2911
  0
VERTEX
  8
LAYER10
 62
     1
  6
CONTINUOUS
 10
9.9101
 20
10.2910
  0
VERTEX
  8
LAYER10
 62
     1
  6
CONTINUOUS
 10
9.9069
 20
10.2910
  0
VERTEX
  8
LAYER10
 62
     1
  6
CONTINUOUS
 10
9.9038
 20
10.2912
  0
VERTEX
  8
LAYER10
 62
     1
  6
CONTINUOUS
 10
9.9007
 20
10.2915
  0
VERTEX
  8
LAYER10
 62
     1
  6
CONTINUOUS
 10
9.8978
 20
10.2920
  0
VERTEX
  8
LAYER10
 62
     1
  6
CONTINUOUS
 10
9.8949
 20
10.2927
  0
VERTEX
  8
LAYER10
 62
     1
  6
CONTINUOUS
 10
9.8922
 20
10.2937
  0
VERTEX
  8
LAYER10
 62
     1
  6
CONTINUOUS
 10
9.8897
 20
10.2949
  0
VERTEX
  8
LAYER10
 62
     1
  6
CONTINUOUS
 10
9.8873
 20
10.2964
  0
VERTEX
  8
LAYER10
 62
     1
  6
CONTINUOUS
 10
9.8858
 20
10.2977
  0
VERTEX
  8
LAYER10
 62
     1
  6
CONTINUOUS
 10
9.8844
 20
10.2991
  0
VERTEX
  8
LAYER10
 62
     1
  6
CONTINUOUS
 10
9.8830
 20
10.3007
  0
VERTEX
  8
LAYER10
 62
     1
  6
CONTINUOUS
 10
9.8817
 20
10.3023
  0
VERTEX
  8
LAYER10
 62
     1
  6
CONTINUOUS
 10
9.8805
 20
10.3040
  0
VERTEX
  8
LAYER10
 62
     1
  6
CONTINUOUS
 10
9.8792
 20
10.3058
  0
VERTEX
  8
LAYER10
 62
     1
  6
CONTINUOUS
 10
9.8781
 20
10.3076
  0
VERTEX
  8
LAYER10
 62
     1
  6
CONTINUOUS
 10
9.8769
 20
10.3094
  0
VERTEX
  8
LAYER10
 62
     1
  6
CONTINUOUS
 10
9.8757
 20
10.3113
  0
VERTEX
  8
LAYER10
 62
     1
  6
CONTINUOUS
 10
9.8745
 20
10.3131
  0
VERTEX
  8
LAYER10
 62
     1
  6
CONTINUOUS
 10
9.8732
 20
10.3148
  0
VERTEX
  8
LAYER10
 62
     1
  6
CONTINUOUS
 10
9.8719
 20
10.3165
  0
VERTEX
  8
LAYER10
 62
     1
  6
CONTINUOUS
 10
9.8702
 20
10.3186
  0
VERTEX
  8
LAYER10
 62
     1
  6
CONTINUOUS
 10
9.8683
 20
10.3205
  0
VERTEX
  8
LAYER10
 62
     1
  6
CONTINUOUS
 10
9.8664
 20
10.3224
  0
VERTEX
  8
LAYER10
 62
     1
  6
CONTINUOUS
 10
9.8644
 20
10.3241
  0
VERTEX
  8
LAYER10
 62
     1
  6
CONTINUOUS
 10
9.8623
 20
10.3258
  0
VERTEX
  8
LAYER10
 62
     1
  6
CONTINUOUS
 10
9.8601
 20
10.3274
  0
VERTEX
  8
LAYER10
 62
     1
  6
CONTINUOUS
 10
9.8579
 20
10.3289
  0
VERTEX
  8
LAYER10
 62
     1
  6
CONTINUOUS
 10
9.8557
 20
10.3304
  0
VERTEX
  8
LAYER10
 62
     1
  6
CONTINUOUS
 10
9.8534
 20
10.3320
  0
VERTEX
  8
LAYER10
 62
     1
  6
CONTINUOUS
 10
9.8510
 20
10.3335
  0
VERTEX
  8
LAYER10
 62
     1
  6
CONTINUOUS
 10
9.8487
 20
10.3350
  0
VERTEX
  8
LAYER10
 62
     1
  6
CONTINUOUS
 10
9.8463
 20
10.3366
  0
VERTEX
  8
LAYER10
 62
     1
  6
CONTINUOUS
 10
9.8448
 20
10.3376
  0
VERTEX
  8
LAYER10
 62
     1
  6
CONTINUOUS
 10
9.8432
 20
10.3387
  0
VERTEX
  8
LAYER10
 62
     1
  6
CONTINUOUS
 10
9.8417
 20
10.3398
  0
VERTEX
  8
LAYER10
 62
     1
  6
CONTINUOUS
 10
9.8402
 20
10.3409
  0
VERTEX
  8
LAYER10
 62
     1
  6
CONTINUOUS
 10
9.8388
 20
10.3421
  0
VERTEX
  8
LAYER10
 62
     1
  6
CONTINUOUS
 10
9.8374
 20
10.3433
  0
VERTEX
  8
LAYER10
 62
     1
  6
CONTINUOUS
 10
9.8361
 20
10.3446
  0
VERTEX
  8
LAYER10
 62
     1
  6
CONTINUOUS
 10
9.8348
 20
10.3459
  0
VERTEX
  8
LAYER10
 62
     1
  6
CONTINUOUS
 10
9.8337
 20
10.3472
  0
VERTEX
  8
LAYER10
 62
     1
  6
CONTINUOUS
 10
9.8327
 20
10.3486
  0
VERTEX
  8
LAYER10
 62
     1
  6
CONTINUOUS
 10
9.8317
 20
10.3501
  0
VERTEX
  8
LAYER10
 62
     1
  6
CONTINUOUS
 10
9.8310
 20
10.3516
  0
VERTEX
  8
LAYER10
 62
     1
  6
CONTINUOUS
 10
9.8302
 20
10.3534
  0
VERTEX
  8
LAYER10
 62
     1
  6
CONTINUOUS
 10
9.8297
 20
10.3554
  0
VERTEX
  8
LAYER10
 62
     1
  6
CONTINUOUS
 10
9.8293
 20
10.3573
  0
VERTEX
  8
LAYER10
 62
     1
  6
CONTINUOUS
 10
9.8291
 20
10.3594
  0
VERTEX
  8
LAYER10
 62
     1
  6
CONTINUOUS
 10
9.8290
 20
10.3615
  0
VERTEX
  8
LAYER10
 62
     1
  6
CONTINUOUS
 10
9.8290
 20
10.3636
  0
VERTEX
  8
LAYER10
 62
     1
  6
CONTINUOUS
 10
9.8291
 20
10.3658
  0
VERTEX
  8
LAYER10
 62
     1
  6
CONTINUOUS
 10
9.8293
 20
10.3680
  0
VERTEX
  8
LAYER10
 62
     1
  6
CONTINUOUS
 10
9.8296
 20
10.3702
  0
VERTEX
  8
LAYER10
 62
     1
  6
CONTINUOUS
 10
9.8299
 20
10.3725
  0
VERTEX
  8
LAYER10
 62
     1
  6
CONTINUOUS
 10
9.8303
 20
10.3747
  0
VERTEX
  8
LAYER10
 62
     1
  6
CONTINUOUS
 10
9.8307
 20
10.3769
  0
VERTEX
  8
LAYER10
 62
     1
  6
CONTINUOUS
 10
9.8310
 20
10.3787
  0
VERTEX
  8
LAYER10
 62
     1
  6
CONTINUOUS
 10
9.8313
 20
10.3805
  0
VERTEX
  8
LAYER10
 62
     1
  6
CONTINUOUS
 10
9.8316
 20
10.3822
  0
VERTEX
  8
LAYER10
 62
     1
  6
CONTINUOUS
 10
9.8318
 20
10.3839
  0
VERTEX
  8
LAYER10
 62
     1
  6
CONTINUOUS
 10
9.8320
 20
10.3857
  0
VERTEX
  8
LAYER10
 62
     1
  6
CONTINUOUS
 10
9.8321
 20
10.3874
  0
VERTEX
  8
LAYER10
 62
     1
  6
CONTINUOUS
 10
9.8322
 20
10.3891
  0
VERTEX
  8
LAYER10
 62
     1
  6
CONTINUOUS
 10
9.8321
 20
10.3907
  0
VERTEX
  8
LAYER10
 62
     1
  6
CONTINUOUS
 10
9.8319
 20
10.3924
  0
VERTEX
  8
LAYER10
 62
     1
  6
CONTINUOUS
 10
9.8316
 20
10.3940
  0
VERTEX
  8
LAYER10
 62
     1
  6
CONTINUOUS
 10
9.8311
 20
10.3956
  0
VERTEX
  8
LAYER10
 62
     1
  6
CONTINUOUS
 10
9.8305
 20
10.3972
  0
VERTEX
  8
LAYER10
 62
     1
  6
CONTINUOUS
 10
9.8300
 20
10.3981
  0
VERTEX
  8
LAYER10
 62
     1
  6
CONTINUOUS
 10
9.8296
 20
10.3989
  0
VERTEX
  8
LAYER10
 62
     1
  6
CONTINUOUS
 10
9.8291
 20
10.3998
  0
VERTEX
  8
LAYER10
 62
     1
  6
CONTINUOUS
 10
9.8285
 20
10.4007
  0
VERTEX
  8
LAYER10
 62
     1
  6
CONTINUOUS
 10
9.8280
 20
10.4015
  0
VERTEX
  8
LAYER10
 62
     1
  6
CONTINUOUS
 10
9.8275
 20
10.4023
  0
VERTEX
  8
LAYER10
 62
     1
  6
CONTINUOUS
 10
9.8270
 20
10.4032
  0
VERTEX
  8
LAYER10
 62
     1
  6
CONTINUOUS
 10
9.8265
 20
10.4040
  0
VERTEX
  8
LAYER10
 62
     1
  6
CONTINUOUS
 10
9.8261
 20
10.4048
  0
VERTEX
  8
LAYER10
 62
     1
  6
CONTINUOUS
 10
9.8258
 20
10.4057
  0
VERTEX
  8
LAYER10
 62
     1
  6
CONTINUOUS
 10
9.8255
 20
10.4065
  0
VERTEX
  8
LAYER10
 62
     1
  6
CONTINUOUS
 10
9.8253
 20
10.4073
  0
VERTEX
  8
LAYER10
 62
     1
  6
CONTINUOUS
 10
9.8252
 20
10.4094
  0
VERTEX
  8
LAYER10
 62
     1
  6
CONTINUOUS
 10
9.8257
 20
10.4115
  0
VERTEX
  8
LAYER10
 62
     1
  6
CONTINUOUS
 10
9.8266
 20
10.4135
  0
VERTEX
  8
LAYER10
 62
     1
  6
CONTINUOUS
 10
9.8279
 20
10.4156
  0
VERTEX
  8
LAYER10
 62
     1
  6
CONTINUOUS
 10
9.8295
 20
10.4176
  0
VERTEX
  8
LAYER10
 62
     1
  6
CONTINUOUS
 10
9.8313
 20
10.4197
  0
VERTEX
  8
LAYER10
 62
     1
  6
CONTINUOUS
 10
9.8331
 20
10.4218
  0
VERTEX
  8
LAYER10
 62
     1
  6
CONTINUOUS
 10
9.8350
 20
10.4239
  0
VERTEX
  8
LAYER10
 62
     1
  6
CONTINUOUS
 10
9.8367
 20
10.4261
  0
VERTEX
  8
LAYER10
 62
     1
  6
CONTINUOUS
 10
9.8382
 20
10.4283
  0
VERTEX
  8
LAYER10
 62
     1
  6
CONTINUOUS
 10
9.8394
 20
10.4305
  0
VERTEX
  8
LAYER10
 62
     1
  6
CONTINUOUS
 10
9.8402
 20
10.4328
  0
VERTEX
  8
LAYER10
 62
     1
  6
CONTINUOUS
 10
9.8405
 20
10.4348
  0
VERTEX
  8
LAYER10
 62
     1
  6
CONTINUOUS
 10
9.8405
 20
10.4369
  0
VERTEX
  8
LAYER10
 62
     1
  6
CONTINUOUS
 10
9.8402
 20
10.4390
  0
VERTEX
  8
LAYER10
 62
     1
  6
CONTINUOUS
 10
9.8397
 20
10.4412
  0
VERTEX
  8
LAYER10
 62
     1
  6
CONTINUOUS
 10
9.8391
 20
10.4433
  0
VERTEX
  8
LAYER10
 62
     1
  6
CONTINUOUS
 10
9.8383
 20
10.4455
  0
VERTEX
  8
LAYER10
 62
     1
  6
CONTINUOUS
 10
9.8375
 20
10.4476
  0
VERTEX
  8
LAYER10
 62
     1
  6
CONTINUOUS
 10
9.8367
 20
10.4498
  0
VERTEX
  8
LAYER10
 62
     1
  6
CONTINUOUS
 10
9.8360
 20
10.4519
  0
VERTEX
  8
LAYER10
 62
     1
  6
CONTINUOUS
 10
9.8354
 20
10.4540
  0
VERTEX
  8
LAYER10
 62
     1
  6
CONTINUOUS
 10
9.8350
 20
10.4561
  0
VERTEX
  8
LAYER10
 62
     1
  6
CONTINUOUS
 10
9.8349
 20
10.4581
  0
VERTEX
  8
LAYER10
 62
     1
  6
CONTINUOUS
 10
9.8349
 20
10.4597
  0
VERTEX
  8
LAYER10
 62
     1
  6
CONTINUOUS
 10
9.8352
 20
10.4613
  0
VERTEX
  8
LAYER10
 62
     1
  6
CONTINUOUS
 10
9.8355
 20
10.4628
  0
VERTEX
  8
LAYER10
 62
     1
  6
CONTINUOUS
 10
9.8360
 20
10.4644
  0
VERTEX
  8
LAYER10
 62
     1
  6
CONTINUOUS
 10
9.8365
 20
10.4660
  0
VERTEX
  8
LAYER10
 62
     1
  6
CONTINUOUS
 10
9.8371
 20
10.4676
  0
VERTEX
  8
LAYER10
 62
     1
  6
CONTINUOUS
 10
9.8377
 20
10.4692
  0
VERTEX
  8
LAYER10
 62
     1
  6
CONTINUOUS
 10
9.8383
 20
10.4709
  0
VERTEX
  8
LAYER10
 62
     1
  6
CONTINUOUS
 10
9.8388
 20
10.4727
  0
VERTEX
  8
LAYER10
 62
     1
  6
CONTINUOUS
 10
9.8392
 20
10.4745
  0
VERTEX
  8
LAYER10
 62
     1
  6
CONTINUOUS
 10
9.8395
 20
10.4764
  0
VERTEX
  8
LAYER10
 62
     1
  6
CONTINUOUS
 10
9.8397
 20
10.4784
  0
VERTEX
  8
LAYER10
 62
     1
  6
CONTINUOUS
 10
9.8397
 20
10.4805
  0
VERTEX
  8
LAYER10
 62
     1
  6
CONTINUOUS
 10
9.8396
 20
10.4825
  0
VERTEX
  8
LAYER10
 62
     1
  6
CONTINUOUS
 10
9.8394
 20
10.4847
  0
VERTEX
  8
LAYER10
 62
     1
  6
CONTINUOUS
 10
9.8392
 20
10.4868
  0
VERTEX
  8
LAYER10
 62
     1
  6
CONTINUOUS
 10
9.8389
 20
10.4888
  0
VERTEX
  8
LAYER10
 62
     1
  6
CONTINUOUS
 10
9.8386
 20
10.4908
  0
VERTEX
  8
LAYER10
 62
     1
  6
CONTINUOUS
 10
9.8384
 20
10.4927
  0
VERTEX
  8
LAYER10
 62
     1
  6
CONTINUOUS
 10
9.8383
 20
10.4943
  0
VERTEX
  8
LAYER10
 62
     1
  6
CONTINUOUS
 10
9.8383
 20
10.4958
  0
VERTEX
  8
LAYER10
 62
     1
  6
CONTINUOUS
 10
9.8385
 20
10.4971
  0
VERTEX
  8
LAYER10
 62
     1
  6
CONTINUOUS
 10
9.8389
 20
10.4980
  0
VERTEX
  8
LAYER10
 62
     1
  6
CONTINUOUS
 10
9.8395
 20
10.4987
  0
VERTEX
  8
LAYER10
 62
     1
  6
CONTINUOUS
 10
9.8404
 20
10.4990
  0
VERTEX
  8
LAYER10
 62
     1
  6
CONTINUOUS
 10
9.8415
 20
10.4990
  0
VERTEX
  8
LAYER10
 62
     1
  6
CONTINUOUS
 10
9.8429
 20
10.4987
  0
VERTEX
  8
LAYER10
 62
     1
  6
CONTINUOUS
 10
9.8445
 20
10.4983
  0
VERTEX
  8
LAYER10
 62
     1
  6
CONTINUOUS
 10
9.8462
 20
10.4976
  0
VERTEX
  8
LAYER10
 62
     1
  6
CONTINUOUS
 10
9.8480
 20
10.4969
  0
VERTEX
  8
LAYER10
 62
     1
  6
CONTINUOUS
 10
9.8500
 20
10.4962
  0
VERTEX
  8
LAYER10
 62
     1
  6
CONTINUOUS
 10
9.8519
 20
10.4954
  0
VERTEX
  8
LAYER10
 62
     1
  6
CONTINUOUS
 10
9.8540
 20
10.4948
  0
VERTEX
  8
LAYER10
 62
     1
  6
CONTINUOUS
 10
9.8560
 20
10.4943
  0
VERTEX
  8
LAYER10
 62
     1
  6
CONTINUOUS
 10
9.8579
 20
10.4939
  0
VERTEX
  8
LAYER10
 62
     1
  6
CONTINUOUS
 10
9.8598
 20
10.4938
  0
VERTEX
  8
LAYER10
 62
     1
  6
CONTINUOUS
 10
9.8616
 20
10.4940
  0
VERTEX
  8
LAYER10
 62
     1
  6
CONTINUOUS
 10
9.8634
 20
10.4945
  0
VERTEX
  8
LAYER10
 62
     1
  6
CONTINUOUS
 10
9.8650
 20
10.4953
  0
VERTEX
  8
LAYER10
 62
     1
  6
CONTINUOUS
 10
9.8665
 20
10.4963
  0
VERTEX
  8
LAYER10
 62
     1
  6
CONTINUOUS
 10
9.8679
 20
10.4975
  0
VERTEX
  8
LAYER10
 62
     1
  6
CONTINUOUS
 10
9.8692
 20
10.4989
  0
VERTEX
  8
LAYER10
 62
     1
  6
CONTINUOUS
 10
9.8704
 20
10.5004
  0
VERTEX
  8
LAYER10
 62
     1
  6
CONTINUOUS
 10
9.8714
 20
10.5020
  0
VERTEX
  8
LAYER10
 62
     1
  6
CONTINUOUS
 10
9.8724
 20
10.5038
  0
VERTEX
  8
LAYER10
 62
     1
  6
CONTINUOUS
 10
9.8733
 20
10.5056
  0
VERTEX
  8
LAYER10
 62
     1
  6
CONTINUOUS
 10
9.8741
 20
10.5074
  0
VERTEX
  8
LAYER10
 62
     1
  6
CONTINUOUS
 10
9.8748
 20
10.5092
  0
VERTEX
  8
LAYER10
 62
     1
  6
CONTINUOUS
 10
9.8753
 20
10.5106
  0
VERTEX
  8
LAYER10
 62
     1
  6
CONTINUOUS
 10
9.8757
 20
10.5119
  0
VERTEX
  8
LAYER10
 62
     1
  6
CONTINUOUS
 10
9.8761
 20
10.5132
  0
VERTEX
  8
LAYER10
 62
     1
  6
CONTINUOUS
 10
9.8765
 20
10.5145
  0
VERTEX
  8
LAYER10
 62
     1
  6
CONTINUOUS
 10
9.8769
 20
10.5158
  0
VERTEX
  8
LAYER10
 62
     1
  6
CONTINUOUS
 10
9.8772
 20
10.5171
  0
VERTEX
  8
LAYER10
 62
     1
  6
CONTINUOUS
 10
9.8776
 20
10.5184
  0
VERTEX
  8
LAYER10
 62
     1
  6
CONTINUOUS
 10
9.8780
 20
10.5196
  0
VERTEX
  8
LAYER10
 62
     1
  6
CONTINUOUS
 10
9.8784
 20
10.5209
  0
VERTEX
  8
LAYER10
 62
     1
  6
CONTINUOUS
 10
9.8788
 20
10.5221
  0
SEQEND
  8
LAYER10
  0
POLYLINE
  8
LAYER10
 62
     1
 66
     1
  6
CONTINUOUS
  0
VERTEX
  8
LAYER10
 62
     1
  6
CONTINUOUS
 10
9.8788
 20
10.5221
  0
VERTEX
  8
LAYER10
 62
     1
  6
CONTINUOUS
 10
9.8792
 20
10.5233
  0
VERTEX
  8
LAYER10
 62
     1
  6
CONTINUOUS
 10
9.8797
 20
10.5245
  0
VERTEX
  8
LAYER10
 62
     1
  6
CONTINUOUS
 10
9.8802
 20
10.5254
  0
VERTEX
  8
LAYER10
 62
     1
  6
CONTINUOUS
 10
9.8807
 20
10.5263
  0
VERTEX
  8
LAYER10
 62
     1
  6
CONTINUOUS
 10
9.8812
 20
10.5273
  0
VERTEX
  8
LAYER10
 62
     1
  6
CONTINUOUS
 10
9.8817
 20
10.5282
  0
VERTEX
  8
LAYER10
 62
     1
  6
CONTINUOUS
 10
9.8823
 20
10.5291
  0
VERTEX
  8
LAYER10
 62
     1
  6
CONTINUOUS
 10
9.8828
 20
10.5300
  0
VERTEX
  8
LAYER10
 62
     1
  6
CONTINUOUS
 10
9.8834
 20
10.5308
  0
VERTEX
  8
LAYER10
 62
     1
  6
CONTINUOUS
 10
9.8840
 20
10.5317
  0
VERTEX
  8
LAYER10
 62
     1
  6
CONTINUOUS
 10
9.8847
 20
10.5326
  0
VERTEX
  8
LAYER10
 62
     1
  6
CONTINUOUS
 10
9.8853
 20
10.5335
  0
VERTEX
  8
LAYER10
 62
     1
  6
CONTINUOUS
 10
9.8859
 20
10.5344
  0
VERTEX
  8
LAYER10
 62
     1
  6
CONTINUOUS
 10
9.8866
 20
10.5352
  0
SEQEND
  8
LAYER10
  0
POLYLINE
  8
LAYER10
 62
     1
 66
     1
  6
CONTINUOUS
  0
VERTEX
  8
LAYER10
 62
     1
  6
CONTINUOUS
 10
9.9430
 20
10.5352
  0
VERTEX
  8
LAYER10
 62
     1
  6
CONTINUOUS
 10
9.9433
 20
10.5348
  0
VERTEX
  8
LAYER10
 62
     1
  6
CONTINUOUS
 10
9.9435
 20
10.5344
  0
VERTEX
  8
LAYER10
 62
     1
  6
CONTINUOUS
 10
9.9438
 20
10.5340
  0
VERTEX
  8
LAYER10
 62
     1
  6
CONTINUOUS
 10
9.9440
 20
10.5336
  0
VERTEX
  8
LAYER10
 62
     1
  6
CONTINUOUS
 10
9.9443
 20
10.5332
  0
VERTEX
  8
LAYER10
 62
     1
  6
CONTINUOUS
 10
9.9445
 20
10.5328
  0
VERTEX
  8
LAYER10
 62
     1
  6
CONTINUOUS
 10
9.9447
 20
10.5324
  0
VERTEX
  8
LAYER10
 62
     1
  6
CONTINUOUS
 10
9.9449
 20
10.5320
  0
VERTEX
  8
LAYER10
 62
     1
  6
CONTINUOUS
 10
9.9451
 20
10.5316
  0
VERTEX
  8
LAYER10
 62
     1
  6
CONTINUOUS
 10
9.9453
 20
10.5311
  0
VERTEX
  8
LAYER10
 62
     1
  6
CONTINUOUS
 10
9.9454
 20
10.5307
  0
VERTEX
  8
LAYER10
 62
     1
  6
CONTINUOUS
 10
9.9456
 20
10.5303
  0
VERTEX
  8
LAYER10
 62
     1
  6
CONTINUOUS
 10
9.9460
 20
10.5285
  0
VERTEX
  8
LAYER10
 62
     1
  6
CONTINUOUS
 10
9.9461
 20
10.5266
  0
VERTEX
  8
LAYER10
 62
     1
  6
CONTINUOUS
 10
9.9459
 20
10.5247
  0
VERTEX
  8
LAYER10
 62
     1
  6
CONTINUOUS
 10
9.9455
 20
10.5228
  0
VERTEX
  8
LAYER10
 62
     1
  6
CONTINUOUS
 10
9.9448
 20
10.5209
  0
VERTEX
  8
LAYER10
 62
     1
  6
CONTINUOUS
 10
9.9440
 20
10.5191
  0
VERTEX
  8
LAYER10
 62
     1
  6
CONTINUOUS
 10
9.9429
 20
10.5173
  0
VERTEX
  8
LAYER10
 62
     1
  6
CONTINUOUS
 10
9.9417
 20
10.5155
  0
VERTEX
  8
LAYER10
 62
     1
  6
CONTINUOUS
 10
9.9404
 20
10.5139
  0
VERTEX
  8
LAYER10
 62
     1
  6
CONTINUOUS
 10
9.9389
 20
10.5124
  0
VERTEX
  8
LAYER10
 62
     1
  6
CONTINUOUS
 10
9.9373
 20
10.5111
  0
VERTEX
  8
LAYER10
 62
     1
  6
CONTINUOUS
 10
9.9357
 20
10.5099
  0
VERTEX
  8
LAYER10
 62
     1
  6
CONTINUOUS
 10
9.9348
 20
10.5094
  0
VERTEX
  8
LAYER10
 62
     1
  6
CONTINUOUS
 10
9.9340
 20
10.5089
  0
VERTEX
  8
LAYER10
 62
     1
  6
CONTINUOUS
 10
9.9331
 20
10.5084
  0
VERTEX
  8
LAYER10
 62
     1
  6
CONTINUOUS
 10
9.9322
 20
10.5080
  0
VERTEX
  8
LAYER10
 62
     1
  6
CONTINUOUS
 10
9.9313
 20
10.5076
  0
VERTEX
  8
LAYER10
 62
     1
  6
CONTINUOUS
 10
9.9305
 20
10.5072
  0
VERTEX
  8
LAYER10
 62
     1
  6
CONTINUOUS
 10
9.9296
 20
10.5069
  0
VERTEX
  8
LAYER10
 62
     1
  6
CONTINUOUS
 10
9.9288
 20
10.5065
  0
VERTEX
  8
LAYER10
 62
     1
  6
CONTINUOUS
 10
9.9279
 20
10.5061
  0
VERTEX
  8
LAYER10
 62
     1
  6
CONTINUOUS
 10
9.9271
 20
10.5056
  0
VERTEX
  8
LAYER10
 62
     1
  6
CONTINUOUS
 10
9.9263
 20
10.5052
  0
VERTEX
  8
LAYER10
 62
     1
  6
CONTINUOUS
 10
9.9256
 20
10.5047
  0
VERTEX
  8
LAYER10
 62
     1
  6
CONTINUOUS
 10
9.9247
 20
10.5040
  0
VERTEX
  8
LAYER10
 62
     1
  6
CONTINUOUS
 10
9.9238
 20
10.5033
  0
VERTEX
  8
LAYER10
 62
     1
  6
CONTINUOUS
 10
9.9229
 20
10.5025
  0
VERTEX
  8
LAYER10
 62
     1
  6
CONTINUOUS
 10
9.9221
 20
10.5017
  0
VERTEX
  8
LAYER10
 62
     1
  6
CONTINUOUS
 10
9.9213
 20
10.5008
  0
VERTEX
  8
LAYER10
 62
     1
  6
CONTINUOUS
 10
9.9205
 20
10.4999
  0
VERTEX
  8
LAYER10
 62
     1
  6
CONTINUOUS
 10
9.9197
 20
10.4990
  0
VERTEX
  8
LAYER10
 62
     1
  6
CONTINUOUS
 10
9.9190
 20
10.4981
  0
VERTEX
  8
LAYER10
 62
     1
  6
CONTINUOUS
 10
9.9181
 20
10.4971
  0
VERTEX
  8
LAYER10
 62
     1
  6
CONTINUOUS
 10
9.9173
 20
10.4962
  0
VERTEX
  8
LAYER10
 62
     1
  6
CONTINUOUS
 10
9.9165
 20
10.4953
  0
VERTEX
  8
LAYER10
 62
     1
  6
CONTINUOUS
 10
9.9156
 20
10.4945
  0
VERTEX
  8
LAYER10
 62
     1
  6
CONTINUOUS
 10
9.9146
 20
10.4936
  0
VERTEX
  8
LAYER10
 62
     1
  6
CONTINUOUS
 10
9.9137
 20
10.4928
  0
VERTEX
  8
LAYER10
 62
     1
  6
CONTINUOUS
 10
9.9127
 20
10.4920
  0
VERTEX
  8
LAYER10
 62
     1
  6
CONTINUOUS
 10
9.9117
 20
10.4912
  0
VERTEX
  8
LAYER10
 62
     1
  6
CONTINUOUS
 10
9.9107
 20
10.4904
  0
VERTEX
  8
LAYER10
 62
     1
  6
CONTINUOUS
 10
9.9098
 20
10.4896
  0
VERTEX
  8
LAYER10
 62
     1
  6
CONTINUOUS
 10
9.9089
 20
10.4888
  0
VERTEX
  8
LAYER10
 62
     1
  6
CONTINUOUS
 10
9.9080
 20
10.4880
  0
VERTEX
  8
LAYER10
 62
     1
  6
CONTINUOUS
 10
9.9073
 20
10.4871
  0
VERTEX
  8
LAYER10
 62
     1
  6
CONTINUOUS
 10
9.9066
 20
10.4862
  0
VERTEX
  8
LAYER10
 62
     1
  6
CONTINUOUS
 10
9.9060
 20
10.4852
  0
VERTEX
  8
LAYER10
 62
     1
  6
CONTINUOUS
 10
9.9055
 20
10.4842
  0
VERTEX
  8
LAYER10
 62
     1
  6
CONTINUOUS
 10
9.9053
 20
10.4834
  0
VERTEX
  8
LAYER10
 62
     1
  6
CONTINUOUS
 10
9.9051
 20
10.4827
  0
VERTEX
  8
LAYER10
 62
     1
  6
CONTINUOUS
 10
9.9050
 20
10.4818
  0
VERTEX
  8
LAYER10
 62
     1
  6
CONTINUOUS
 10
9.9049
 20
10.4810
  0
VERTEX
  8
LAYER10
 62
     1
  6
CONTINUOUS
 10
9.9049
 20
10.4802
  0
VERTEX
  8
LAYER10
 62
     1
  6
CONTINUOUS
 10
9.9049
 20
10.4793
  0
VERTEX
  8
LAYER10
 62
     1
  6
CONTINUOUS
 10
9.9049
 20
10.4784
  0
VERTEX
  8
LAYER10
 62
     1
  6
CONTINUOUS
 10
9.9050
 20
10.4775
  0
VERTEX
  8
LAYER10
 62
     1
  6
CONTINUOUS
 10
9.9051
 20
10.4767
  0
VERTEX
  8
LAYER10
 62
     1
  6
CONTINUOUS
 10
9.9053
 20
10.4758
  0
VERTEX
  8
LAYER10
 62
     1
  6
CONTINUOUS
 10
9.9055
 20
10.4749
  0
VERTEX
  8
LAYER10
 62
     1
  6
CONTINUOUS
 10
9.9057
 20
10.4741
  0
VERTEX
  8
LAYER10
 62
     1
  6
CONTINUOUS
 10
9.9062
 20
10.4719
  0
VERTEX
  8
LAYER10
 62
     1
  6
CONTINUOUS
 10
9.9069
 20
10.4698
  0
VERTEX
  8
LAYER10
 62
     1
  6
CONTINUOUS
 10
9.9076
 20
10.4677
  0
VERTEX
  8
LAYER10
 62
     1
  6
CONTINUOUS
 10
9.9085
 20
10.4657
  0
VERTEX
  8
LAYER10
 62
     1
  6
CONTINUOUS
 10
9.9093
 20
10.4638
  0
VERTEX
  8
LAYER10
 62
     1
  6
CONTINUOUS
 10
9.9102
 20
10.4618
  0
VERTEX
  8
LAYER10
 62
     1
  6
CONTINUOUS
 10
9.9112
 20
10.4599
  0
VERTEX
  8
LAYER10
 62
     1
  6
CONTINUOUS
 10
9.9122
 20
10.4579
  0
VERTEX
  8
LAYER10
 62
     1
  6
CONTINUOUS
 10
9.9132
 20
10.4558
  0
VERTEX
  8
LAYER10
 62
     1
  6
CONTINUOUS
 10
9.9141
 20
10.4536
  0
VERTEX
  8
LAYER10
 62
     1
  6
CONTINUOUS
 10
9.9151
 20
10.4513
  0
VERTEX
  8
LAYER10
 62
     1
  6
CONTINUOUS
 10
9.9161
 20
10.4488
  0
VERTEX
  8
LAYER10
 62
     1
  6
CONTINUOUS
 10
9.9165
 20
10.4478
  0
VERTEX
  8
LAYER10
 62
     1
  6
CONTINUOUS
 10
9.9168
 20
10.4467
  0
VERTEX
  8
LAYER10
 62
     1
  6
CONTINUOUS
 10
9.9172
 20
10.4456
  0
VERTEX
  8
LAYER10
 62
     1
  6
CONTINUOUS
 10
9.9176
 20
10.4446
  0
VERTEX
  8
LAYER10
 62
     1
  6
CONTINUOUS
 10
9.9180
 20
10.4436
  0
VERTEX
  8
LAYER10
 62
     1
  6
CONTINUOUS
 10
9.9184
 20
10.4426
  0
VERTEX
  8
LAYER10
 62
     1
  6
CONTINUOUS
 10
9.9188
 20
10.4417
  0
VERTEX
  8
LAYER10
 62
     1
  6
CONTINUOUS
 10
9.9193
 20
10.4409
  0
VERTEX
  8
LAYER10
 62
     1
  6
CONTINUOUS
 10
9.9197
 20
10.4402
  0
VERTEX
  8
LAYER10
 62
     1
  6
CONTINUOUS
 10
9.9202
 20
10.4396
  0
VERTEX
  8
LAYER10
 62
     1
  6
CONTINUOUS
 10
9.9207
 20
10.4391
  0
VERTEX
  8
LAYER10
 62
     1
  6
CONTINUOUS
 10
9.9213
 20
10.4388
  0
VERTEX
  8
LAYER10
 62
     1
  6
CONTINUOUS
 10
9.9222
 20
10.4386
  0
VERTEX
  8
LAYER10
 62
     1
  6
CONTINUOUS
 10
9.9232
 20
10.4388
  0
VERTEX
  8
LAYER10
 62
     1
  6
CONTINUOUS
 10
9.9242
 20
10.4393
  0
VERTEX
  8
LAYER10
 62
     1
  6
CONTINUOUS
 10
9.9254
 20
10.4400
  0
VERTEX
  8
LAYER10
 62
     1
  6
CONTINUOUS
 10
9.9266
 20
10.4410
  0
VERTEX
  8
LAYER10
 62
     1
  6
CONTINUOUS
 10
9.9278
 20
10.4421
  0
VERTEX
  8
LAYER10
 62
     1
  6
CONTINUOUS
 10
9.9292
 20
10.4433
  0
VERTEX
  8
LAYER10
 62
     1
  6
CONTINUOUS
 10
9.9305
 20
10.4446
  0
VERTEX
  8
LAYER10
 62
     1
  6
CONTINUOUS
 10
9.9319
 20
10.4459
  0
VERTEX
  8
LAYER10
 62
     1
  6
CONTINUOUS
 10
9.9334
 20
10.4471
  0
VERTEX
  8
LAYER10
 62
     1
  6
CONTINUOUS
 10
9.9348
 20
10.4481
  0
VERTEX
  8
LAYER10
 62
     1
  6
CONTINUOUS
 10
9.9363
 20
10.4491
  0
VERTEX
  8
LAYER10
 62
     1
  6
CONTINUOUS
 10
9.9385
 20
10.4500
  0
VERTEX
  8
LAYER10
 62
     1
  6
CONTINUOUS
 10
9.9406
 20
10.4505
  0
VERTEX
  8
LAYER10
 62
     1
  6
CONTINUOUS
 10
9.9428
 20
10.4508
  0
VERTEX
  8
LAYER10
 62
     1
  6
CONTINUOUS
 10
9.9450
 20
10.4507
  0
VERTEX
  8
LAYER10
 62
     1
  6
CONTINUOUS
 10
9.9472
 20
10.4506
  0
VERTEX
  8
LAYER10
 62
     1
  6
CONTINUOUS
 10
9.9494
 20
10.4502
  0
VERTEX
  8
LAYER10
 62
     1
  6
CONTINUOUS
 10
9.9516
 20
10.4499
  0
VERTEX
  8
LAYER10
 62
     1
  6
CONTINUOUS
 10
9.9537
 20
10.4495
  0
VERTEX
  8
LAYER10
 62
     1
  6
CONTINUOUS
 10
9.9558
 20
10.4492
  0
VERTEX
  8
LAYER10
 62
     1
  6
CONTINUOUS
 10
9.9579
 20
10.4490
  0
VERTEX
  8
LAYER10
 62
     1
  6
CONTINUOUS
 10
9.9598
 20
10.4491
  0
VERTEX
  8
LAYER10
 62
     1
  6
CONTINUOUS
 10
9.9617
 20
10.4494
  0
VERTEX
  8
LAYER10
 62
     1
  6
CONTINUOUS
 10
9.9635
 20
10.4499
  0
VERTEX
  8
LAYER10
 62
     1
  6
CONTINUOUS
 10
9.9652
 20
10.4508
  0
VERTEX
  8
LAYER10
 62
     1
  6
CONTINUOUS
 10
9.9668
 20
10.4519
  0
VERTEX
  8
LAYER10
 62
     1
  6
CONTINUOUS
 10
9.9685
 20
10.4531
  0
VERTEX
  8
LAYER10
 62
     1
  6
CONTINUOUS
 10
9.9700
 20
10.4545
  0
VERTEX
  8
LAYER10
 62
     1
  6
CONTINUOUS
 10
9.9716
 20
10.4560
  0
VERTEX
  8
LAYER10
 62
     1
  6
CONTINUOUS
 10
9.9732
 20
10.4576
  0
VERTEX
  8
LAYER10
 62
     1
  6
CONTINUOUS
 10
9.9748
 20
10.4592
  0
VERTEX
  8
LAYER10
 62
     1
  6
CONTINUOUS
 10
9.9764
 20
10.4607
  0
VERTEX
  8
LAYER10
 62
     1
  6
CONTINUOUS
 10
9.9781
 20
10.4622
  0
VERTEX
  8
LAYER10
 62
     1
  6
CONTINUOUS
 10
9.9799
 20
10.4636
  0
VERTEX
  8
LAYER10
 62
     1
  6
CONTINUOUS
 10
9.9818
 20
10.4648
  0
VERTEX
  8
LAYER10
 62
     1
  6
CONTINUOUS
 10
9.9838
 20
10.4658
  0
VERTEX
  8
LAYER10
 62
     1
  6
CONTINUOUS
 10
9.9858
 20
10.4666
  0
VERTEX
  8
LAYER10
 62
     1
  6
CONTINUOUS
 10
9.9880
 20
10.4672
  0
VERTEX
  8
LAYER10
 62
     1
  6
CONTINUOUS
 10
9.9901
 20
10.4676
  0
VERTEX
  8
LAYER10
 62
     1
  6
CONTINUOUS
 10
9.9924
 20
10.4679
  0
VERTEX
  8
LAYER10
 62
     1
  6
CONTINUOUS
 10
9.9946
 20
10.4679
  0
VERTEX
  8
LAYER10
 62
     1
  6
CONTINUOUS
 10
9.9968
 20
10.4679
  0
VERTEX
  8
LAYER10
 62
     1
  6
CONTINUOUS
 10
9.9990
 20
10.4676
  0
VERTEX
  8
LAYER10
 62
     1
  6
CONTINUOUS
 10
10.0012
 20
10.4672
  0
VERTEX
  8
LAYER10
 62
     1
  6
CONTINUOUS
 10
10.0032
 20
10.4666
  0
VERTEX
  8
LAYER10
 62
     1
  6
CONTINUOUS
 10
10.0052
 20
10.4659
  0
VERTEX
  8
LAYER10
 62
     1
  6
CONTINUOUS
 10
10.0071
 20
10.4651
  0
VERTEX
  8
LAYER10
 62
     1
  6
CONTINUOUS
 10
10.0102
 20
10.4632
  0
VERTEX
  8
LAYER10
 62
     1
  6
CONTINUOUS
 10
10.0130
 20
10.4610
  0
VERTEX
  8
LAYER10
 62
     1
  6
CONTINUOUS
 10
10.0154
 20
10.4584
  0
VERTEX
  8
LAYER10
 62
     1
  6
CONTINUOUS
 10
10.0175
 20
10.4554
  0
VERTEX
  8
LAYER10
 62
     1
  6
CONTINUOUS
 10
10.0194
 20
10.4522
  0
VERTEX
  8
LAYER10
 62
     1
  6
CONTINUOUS
 10
10.0210
 20
10.4488
  0
VERTEX
  8
LAYER10
 62
     1
  6
CONTINUOUS
 10
10.0225
 20
10.4451
  0
VERTEX
  8
LAYER10
 62
     1
  6
CONTINUOUS
 10
10.0237
 20
10.4412
  0
VERTEX
  8
LAYER10
 62
     1
  6
CONTINUOUS
 10
10.0249
 20
10.4372
  0
VERTEX
  8
LAYER10
 62
     1
  6
CONTINUOUS
 10
10.0259
 20
10.4331
  0
VERTEX
  8
LAYER10
 62
     1
  6
CONTINUOUS
 10
10.0269
 20
10.4289
  0
VERTEX
  8
LAYER10
 62
     1
  6
CONTINUOUS
 10
10.0279
 20
10.4247
  0
SEQEND
  8
LAYER10
  0
POLYLINE
  8
LAYER10
 62
     1
 66
     1
  6
CONTINUOUS
  0
VERTEX
  8
LAYER10
 62
     1
  6
CONTINUOUS
 10
9.8081
 20
9.6720
  0
VERTEX
  8
LAYER10
 62
     1
  6
CONTINUOUS
 10
9.8103
 20
9.6709
  0
VERTEX
  8
LAYER10
 62
     1
  6
CONTINUOUS
 10
9.8125
 20
9.6698
  0
VERTEX
  8
LAYER10
 62
     1
  6
CONTINUOUS
 10
9.8147
 20
9.6686
  0
VERTEX
  8
LAYER10
 62
     1
  6
CONTINUOUS
 10
9.8169
 20
9.6675
  0
VERTEX
  8
LAYER10
 62
     1
  6
CONTINUOUS
 10
9.8191
 20
9.6663
  0
VERTEX
  8
LAYER10
 62
     1
  6
CONTINUOUS
 10
9.8213
 20
9.6651
  0
VERTEX
  8
LAYER10
 62
     1
  6
CONTINUOUS
 10
9.8234
 20
9.6638
  0
VERTEX
  8
LAYER10
 62
     1
  6
CONTINUOUS
 10
9.8255
 20
9.6626
  0
VERTEX
  8
LAYER10
 62
     1
  6
CONTINUOUS
 10
9.8276
 20
9.6613
  0
VERTEX
  8
LAYER10
 62
     1
  6
CONTINUOUS
 10
9.8296
 20
9.6599
  0
VERTEX
  8
LAYER10
 62
     1
  6
CONTINUOUS
 10
9.8316
 20
9.6585
  0
VERTEX
  8
LAYER10
 62
     1
  6
CONTINUOUS
 10
9.8336
 20
9.6571
  0
VERTEX
  8
LAYER10
 62
     1
  6
CONTINUOUS
 10
9.8364
 20
9.6549
  0
VERTEX
  8
LAYER10
 62
     1
  6
CONTINUOUS
 10
9.8391
 20
9.6526
  0
VERTEX
  8
LAYER10
 62
     1
  6
CONTINUOUS
 10
9.8417
 20
9.6502
  0
VERTEX
  8
LAYER10
 62
     1
  6
CONTINUOUS
 10
9.8443
 20
9.6477
  0
VERTEX
  8
LAYER10
 62
     1
  6
CONTINUOUS
 10
9.8468
 20
9.6452
  0
VERTEX
  8
LAYER10
 62
     1
  6
CONTINUOUS
 10
9.8493
 20
9.6426
  0
VERTEX
  8
LAYER10
 62
     1
  6
CONTINUOUS
 10
9.8518
 20
9.6400
  0
VERTEX
  8
LAYER10
 62
     1
  6
CONTINUOUS
 10
9.8543
 20
9.6374
  0
VERTEX
  8
LAYER10
 62
     1
  6
CONTINUOUS
 10
9.8567
 20
9.6348
  0
VERTEX
  8
LAYER10
 62
     1
  6
CONTINUOUS
 10
9.8592
 20
9.6322
  0
VERTEX
  8
LAYER10
 62
     1
  6
CONTINUOUS
 10
9.8618
 20
9.6296
  0
VERTEX
  8
LAYER10
 62
     1
  6
CONTINUOUS
 10
9.8643
 20
9.6270
  0
VERTEX
  8
LAYER10
 62
     1
  6
CONTINUOUS
 10
9.8674
 20
9.6241
  0
VERTEX
  8
LAYER10
 62
     1
  6
CONTINUOUS
 10
9.8705
 20
9.6213
  0
VERTEX
  8
LAYER10
 62
     1
  6
CONTINUOUS
 10
9.8737
 20
9.6185
  0
VERTEX
  8
LAYER10
 62
     1
  6
CONTINUOUS
 10
9.8769
 20
9.6157
  0
VERTEX
  8
LAYER10
 62
     1
  6
CONTINUOUS
 10
9.8800
 20
9.6129
  0
VERTEX
  8
LAYER10
 62
     1
  6
CONTINUOUS
 10
9.8832
 20
9.6101
  0
VERTEX
  8
LAYER10
 62
     1
  6
CONTINUOUS
 10
9.8863
 20
9.6072
  0
VERTEX
  8
LAYER10
 62
     1
  6
CONTINUOUS
 10
9.8893
 20
9.6044
  0
VERTEX
  8
LAYER10
 62
     1
  6
CONTINUOUS
 10
9.8922
 20
9.6014
  0
VERTEX
  8
LAYER10
 62
     1
  6
CONTINUOUS
 10
9.8950
 20
9.5984
  0
VERTEX
  8
LAYER10
 62
     1
  6
CONTINUOUS
 10
9.8977
 20
9.5952
  0
VERTEX
  8
LAYER10
 62
     1
  6
CONTINUOUS
 10
9.9002
 20
9.5919
  0
VERTEX
  8
LAYER10
 62
     1
  6
CONTINUOUS
 10
9.9022
 20
9.5892
  0
VERTEX
  8
LAYER10
 62
     1
  6
CONTINUOUS
 10
9.9040
 20
9.5863
  0
VERTEX
  8
LAYER10
 62
     1
  6
CONTINUOUS
 10
9.9057
 20
9.5834
  0
VERTEX
  8
LAYER10
 62
     1
  6
CONTINUOUS
 10
9.9074
 20
9.5805
  0
VERTEX
  8
LAYER10
 62
     1
  6
CONTINUOUS
 10
9.9091
 20
9.5775
  0
VERTEX
  8
LAYER10
 62
     1
  6
CONTINUOUS
 10
9.9107
 20
9.5745
  0
VERTEX
  8
LAYER10
 62
     1
  6
CONTINUOUS
 10
9.9123
 20
9.5714
  0
VERTEX
  8
LAYER10
 62
     1
  6
CONTINUOUS
 10
9.9139
 20
9.5684
  0
VERTEX
  8
LAYER10
 62
     1
  6
CONTINUOUS
 10
9.9156
 20
9.5654
  0
VERTEX
  8
LAYER10
 62
     1
  6
CONTINUOUS
 10
9.9173
 20
9.5625
  0
VERTEX
  8
LAYER10
 62
     1
  6
CONTINUOUS
 10
9.9190
 20
9.5595
  0
VERTEX
  8
LAYER10
 62
     1
  6
CONTINUOUS
 10
9.9209
 20
9.5567
  0
VERTEX
  8
LAYER10
 62
     1
  6
CONTINUOUS
 10
9.9231
 20
9.5535
  0
VERTEX
  8
LAYER10
 62
     1
  6
CONTINUOUS
 10
9.9255
 20
9.5504
  0
VERTEX
  8
LAYER10
 62
     1
  6
CONTINUOUS
 10
9.9279
 20
9.5474
  0
VERTEX
  8
LAYER10
 62
     1
  6
CONTINUOUS
 10
9.9305
 20
9.5445
  0
VERTEX
  8
LAYER10
 62
     1
  6
CONTINUOUS
 10
9.9331
 20
9.5416
  0
VERTEX
  8
LAYER10
 62
     1
  6
CONTINUOUS
 10
9.9357
 20
9.5387
  0
VERTEX
  8
LAYER10
 62
     1
  6
CONTINUOUS
 10
9.9384
 20
9.5359
  0
VERTEX
  8
LAYER10
 62
     1
  6
CONTINUOUS
 10
9.9411
 20
9.5330
  0
VERTEX
  8
LAYER10
 62
     1
  6
CONTINUOUS
 10
9.9438
 20
9.5302
  0
VERTEX
  8
LAYER10
 62
     1
  6
CONTINUOUS
 10
9.9465
 20
9.5273
  0
VERTEX
  8
LAYER10
 62
     1
  6
CONTINUOUS
 10
9.9491
 20
9.5245
  0
VERTEX
  8
LAYER10
 62
     1
  6
CONTINUOUS
 10
9.9517
 20
9.5215
  0
VERTEX
  8
LAYER10
 62
     1
  6
CONTINUOUS
 10
9.9525
 20
9.5206
  0
VERTEX
  8
LAYER10
 62
     1
  6
CONTINUOUS
 10
9.9534
 20
9.5196
  0
VERTEX
  8
LAYER10
 62
     1
  6
CONTINUOUS
 10
9.9542
 20
9.5186
  0
VERTEX
  8
LAYER10
 62
     1
  6
CONTINUOUS
 10
9.9550
 20
9.5177
  0
VERTEX
  8
LAYER10
 62
     1
  6
CONTINUOUS
 10
9.9558
 20
9.5167
  0
VERTEX
  8
LAYER10
 62
     1
  6
CONTINUOUS
 10
9.9566
 20
9.5157
  0
VERTEX
  8
LAYER10
 62
     1
  6
CONTINUOUS
 10
9.9574
 20
9.5147
  0
VERTEX
  8
LAYER10
 62
     1
  6
CONTINUOUS
 10
9.9582
 20
9.5137
  0
VERTEX
  8
LAYER10
 62
     1
  6
CONTINUOUS
 10
9.9590
 20
9.5127
  0
VERTEX
  8
LAYER10
 62
     1
  6
CONTINUOUS
 10
9.9598
 20
9.5117
  0
VERTEX
  8
LAYER10
 62
     1
  6
CONTINUOUS
 10
9.9606
 20
9.5107
  0
VERTEX
  8
LAYER10
 62
     1
  6
CONTINUOUS
 10
9.9614
 20
9.5097
  0
SEQEND
  8
LAYER10
  0
POLYLINE
  8
LAYER10
 62
     1
 66
     1
  6
CONTINUOUS
  0
VERTEX
  8
LAYER10
 62
     1
  6
CONTINUOUS
 10
9.5878
 20
9.5097
  0
VERTEX
  8
LAYER10
 62
     1
  6
CONTINUOUS
 10
9.5897
 20
9.5138
  0
VERTEX
  8
LAYER10
 62
     1
  6
CONTINUOUS
 10
9.5916
 20
9.5179
  0
VERTEX
  8
LAYER10
 62
     1
  6
CONTINUOUS
 10
9.5935
 20
9.5219
  0
VERTEX
  8
LAYER10
 62
     1
  6
CONTINUOUS
 10
9.5954
 20
9.5260
  0
VERTEX
  8
LAYER10
 62
     1
  6
CONTINUOUS
 10
9.5973
 20
9.5301
  0
VERTEX
  8
LAYER10
 62
     1
  6
CONTINUOUS
 10
9.5992
 20
9.5342
  0
VERTEX
  8
LAYER10
 62
     1
  6
CONTINUOUS
 10
9.6012
 20
9.5382
  0
VERTEX
  8
LAYER10
 62
     1
  6
CONTINUOUS
 10
9.6032
 20
9.5423
  0
VERTEX
  8
LAYER10
 62
     1
  6
CONTINUOUS
 10
9.6053
 20
9.5463
  0
VERTEX
  8
LAYER10
 62
     1
  6
CONTINUOUS
 10
9.6073
 20
9.5503
  0
VERTEX
  8
LAYER10
 62
     1
  6
CONTINUOUS
 10
9.6095
 20
9.5543
  0
VERTEX
  8
LAYER10
 62
     1
  6
CONTINUOUS
 10
9.6116
 20
9.5583
  0
VERTEX
  8
LAYER10
 62
     1
  6
CONTINUOUS
 10
9.6137
 20
9.5621
  0
VERTEX
  8
LAYER10
 62
     1
  6
CONTINUOUS
 10
9.6159
 20
9.5658
  0
VERTEX
  8
LAYER10
 62
     1
  6
CONTINUOUS
 10
9.6181
 20
9.5694
  0
VERTEX
  8
LAYER10
 62
     1
  6
CONTINUOUS
 10
9.6203
 20
9.5731
  0
VERTEX
  8
LAYER10
 62
     1
  6
CONTINUOUS
 10
9.6227
 20
9.5766
  0
VERTEX
  8
LAYER10
 62
     1
  6
CONTINUOUS
 10
9.6251
 20
9.5801
  0
VERTEX
  8
LAYER10
 62
     1
  6
CONTINUOUS
 10
9.6276
 20
9.5836
  0
VERTEX
  8
LAYER10
 62
     1
  6
CONTINUOUS
 10
9.6302
 20
9.5869
  0
VERTEX
  8
LAYER10
 62
     1
  6
CONTINUOUS
 10
9.6329
 20
9.5902
  0
VERTEX
  8
LAYER10
 62
     1
  6
CONTINUOUS
 10
9.6357
 20
9.5933
  0
VERTEX
  8
LAYER10
 62
     1
  6
CONTINUOUS
 10
9.6386
 20
9.5963
  0
VERTEX
  8
LAYER10
 62
     1
  6
CONTINUOUS
 10
9.6416
 20
9.5992
  0
VERTEX
  8
LAYER10
 62
     1
  6
CONTINUOUS
 10
9.6449
 20
9.6021
  0
VERTEX
  8
LAYER10
 62
     1
  6
CONTINUOUS
 10
9.6482
 20
9.6048
  0
VERTEX
  8
LAYER10
 62
     1
  6
CONTINUOUS
 10
9.6517
 20
9.6073
  0
VERTEX
  8
LAYER10
 62
     1
  6
CONTINUOUS
 10
9.6553
 20
9.6098
  0
VERTEX
  8
LAYER10
 62
     1
  6
CONTINUOUS
 10
9.6590
 20
9.6121
  0
VERTEX
  8
LAYER10
 62
     1
  6
CONTINUOUS
 10
9.6628
 20
9.6143
  0
VERTEX
  8
LAYER10
 62
     1
  6
CONTINUOUS
 10
9.6667
 20
9.6163
  0
VERTEX
  8
LAYER10
 62
     1
  6
CONTINUOUS
 10
9.6707
 20
9.6183
  0
VERTEX
  8
LAYER10
 62
     1
  6
CONTINUOUS
 10
9.6747
 20
9.6201
  0
VERTEX
  8
LAYER10
 62
     1
  6
CONTINUOUS
 10
9.6787
 20
9.6219
  0
VERTEX
  8
LAYER10
 62
     1
  6
CONTINUOUS
 10
9.6828
 20
9.6235
  0
VERTEX
  8
LAYER10
 62
     1
  6
CONTINUOUS
 10
9.6869
 20
9.6251
  0
VERTEX
  8
LAYER10
 62
     1
  6
CONTINUOUS
 10
9.6913
 20
9.6266
  0
VERTEX
  8
LAYER10
 62
     1
  6
CONTINUOUS
 10
9.6957
 20
9.6281
  0
VERTEX
  8
LAYER10
 62
     1
  6
CONTINUOUS
 10
9.7000
 20
9.6295
  0
VERTEX
  8
LAYER10
 62
     1
  6
CONTINUOUS
 10
9.7044
 20
9.6309
  0
VERTEX
  8
LAYER10
 62
     1
  6
CONTINUOUS
 10
9.7087
 20
9.6324
  0
VERTEX
  8
LAYER10
 62
     1
  6
CONTINUOUS
 10
9.7130
 20
9.6339
  0
VERTEX
  8
LAYER10
 62
     1
  6
CONTINUOUS
 10
9.7173
 20
9.6355
  0
VERTEX
  8
LAYER10
 62
     1
  6
CONTINUOUS
 10
9.7215
 20
9.6372
  0
VERTEX
  8
LAYER10
 62
     1
  6
CONTINUOUS
 10
9.7256
 20
9.6391
  0
VERTEX
  8
LAYER10
 62
     1
  6
CONTINUOUS
 10
9.7296
 20
9.6411
  0
VERTEX
  8
LAYER10
 62
     1
  6
CONTINUOUS
 10
9.7336
 20
9.6434
  0
VERTEX
  8
LAYER10
 62
     1
  6
CONTINUOUS
 10
9.7374
 20
9.6459
  0
VERTEX
  8
LAYER10
 62
     1
  6
CONTINUOUS
 10
9.7404
 20
9.6481
  0
VERTEX
  8
LAYER10
 62
     1
  6
CONTINUOUS
 10
9.7433
 20
9.6504
  0
VERTEX
  8
LAYER10
 62
     1
  6
CONTINUOUS
 10
9.7462
 20
9.6529
  0
VERTEX
  8
LAYER10
 62
     1
  6
CONTINUOUS
 10
9.7490
 20
9.6553
  0
VERTEX
  8
LAYER10
 62
     1
  6
CONTINUOUS
 10
9.7518
 20
9.6578
  0
VERTEX
  8
LAYER10
 62
     1
  6
CONTINUOUS
 10
9.7546
 20
9.6602
  0
VERTEX
  8
LAYER10
 62
     1
  6
CONTINUOUS
 10
9.7575
 20
9.6626
  0
VERTEX
  8
LAYER10
 62
     1
  6
CONTINUOUS
 10
9.7604
 20
9.6648
  0
VERTEX
  8
LAYER10
 62
     1
  6
CONTINUOUS
 10
9.7633
 20
9.6669
  0
VERTEX
  8
LAYER10
 62
     1
  6
CONTINUOUS
 10
9.7663
 20
9.6687
  0
VERTEX
  8
LAYER10
 62
     1
  6
CONTINUOUS
 10
9.7694
 20
9.6703
  0
VERTEX
  8
LAYER10
 62
     1
  6
CONTINUOUS
 10
9.7726
 20
9.6716
  0
VERTEX
  8
LAYER10
 62
     1
  6
CONTINUOUS
 10
9.7753
 20
9.6725
  0
VERTEX
  8
LAYER10
 62
     1
  6
CONTINUOUS
 10
9.7780
 20
9.6731
  0
VERTEX
  8
LAYER10
 62
     1
  6
CONTINUOUS
 10
9.7809
 20
9.6735
  0
VERTEX
  8
LAYER10
 62
     1
  6
CONTINUOUS
 10
9.7837
 20
9.6738
  0
VERTEX
  8
LAYER10
 62
     1
  6
CONTINUOUS
 10
9.7867
 20
9.6739
  0
VERTEX
  8
LAYER10
 62
     1
  6
CONTINUOUS
 10
9.7896
 20
9.6739
  0
VERTEX
  8
LAYER10
 62
     1
  6
CONTINUOUS
 10
9.7927
 20
9.6737
  0
VERTEX
  8
LAYER10
 62
     1
  6
CONTINUOUS
 10
9.7957
 20
9.6735
  0
VERTEX
  8
LAYER10
 62
     1
  6
CONTINUOUS
 10
9.7988
 20
9.6732
  0
VERTEX
  8
LAYER10
 62
     1
  6
CONTINUOUS
 10
9.8019
 20
9.6728
  0
VERTEX
  8
LAYER10
 62
     1
  6
CONTINUOUS
 10
9.8050
 20
9.6724
  0
VERTEX
  8
LAYER10
 62
     1
  6
CONTINUOUS
 10
9.8081
 20
9.6720
  0
SEQEND
  8
LAYER10
  0
POLYLINE
  8
LAYER10
 62
     1
 66
     1
  6
CONTINUOUS
  0
VERTEX
  8
LAYER10
 62
     1
  6
CONTINUOUS
 10
9.0561
 20
9.8982
  0
VERTEX
  8
LAYER10
 62
     1
  6
CONTINUOUS
 10
9.0554
 20
9.8984
  0
VERTEX
  8
LAYER10
 62
     1
  6
CONTINUOUS
 10
9.0547
 20
9.8987
  0
VERTEX
  8
LAYER10
 62
     1
  6
CONTINUOUS
 10
9.0540
 20
9.8989
  0
VERTEX
  8
LAYER10
 62
     1
  6
CONTINUOUS
 10
9.0533
 20
9.8991
  0
VERTEX
  8
LAYER10
 62
     1
  6
CONTINUOUS
 10
9.0527
 20
9.8993
  0
VERTEX
  8
LAYER10
 62
     1
  6
CONTINUOUS
 10
9.0521
 20
9.8995
  0
VERTEX
  8
LAYER10
 62
     1
  6
CONTINUOUS
 10
9.0515
 20
9.8997
  0
VERTEX
  8
LAYER10
 62
     1
  6
CONTINUOUS
 10
9.0510
 20
9.8999
  0
VERTEX
  8
LAYER10
 62
     1
  6
CONTINUOUS
 10
9.0505
 20
9.9000
  0
VERTEX
  8
LAYER10
 62
     1
  6
CONTINUOUS
 10
9.0501
 20
9.9002
  0
VERTEX
  8
LAYER10
 62
     1
  6
CONTINUOUS
 10
9.0498
 20
9.9003
  0
VERTEX
  8
LAYER10
 62
     1
  6
CONTINUOUS
 10
9.0495
 20
9.9004
  0
VERTEX
  8
LAYER10
 62
     1
  6
CONTINUOUS
 10
9.0494
 20
9.9004
  0
VERTEX
  8
LAYER10
 62
     1
  6
CONTINUOUS
 10
9.0493
 20
9.9004
  0
VERTEX
  8
LAYER10
 62
     1
  6
CONTINUOUS
 10
9.0493
 20
9.9005
  0
VERTEX
  8
LAYER10
 62
     1
  6
CONTINUOUS
 10
9.0492
 20
9.9005
  0
VERTEX
  8
LAYER10
 62
     1
  6
CONTINUOUS
 10
9.0492
 20
9.9005
  0
VERTEX
  8
LAYER10
 62
     1
  6
CONTINUOUS
 10
9.0492
 20
9.9005
  0
VERTEX
  8
LAYER10
 62
     1
  6
CONTINUOUS
 10
9.0493
 20
9.9005
  0
VERTEX
  8
LAYER10
 62
     1
  6
CONTINUOUS
 10
9.0493
 20
9.9004
  0
VERTEX
  8
LAYER10
 62
     1
  6
CONTINUOUS
 10
9.0494
 20
9.9004
  0
VERTEX
  8
LAYER10
 62
     1
  6
CONTINUOUS
 10
9.0494
 20
9.9004
  0
VERTEX
  8
LAYER10
 62
     1
  6
CONTINUOUS
 10
9.0495
 20
9.9004
  0
VERTEX
  8
LAYER10
 62
     1
  6
CONTINUOUS
 10
9.0495
 20
9.9004
  0
SEQEND
  8
LAYER10
  0
POLYLINE
  8
LAYER10
 62
     1
 66
     1
  6
CONTINUOUS
  0
VERTEX
  8
LAYER10
 62
     1
  6
CONTINUOUS
 10
9.0495
 20
10.2095
  0
VERTEX
  8
LAYER10
 62
     1
  6
CONTINUOUS
 10
9.0503
 20
10.2093
  0
VERTEX
  8
LAYER10
 62
     1
  6
CONTINUOUS
 10
9.0510
 20
10.2092
  0
VERTEX
  8
LAYER10
 62
     1
  6
CONTINUOUS
 10
9.0516
 20
10.2090
  0
VERTEX
  8
LAYER10
 62
     1
  6
CONTINUOUS
 10
9.0523
 20
10.2088
  0
VERTEX
  8
LAYER10
 62
     1
  6
CONTINUOUS
 10
9.0529
 20
10.2086
  0
VERTEX
  8
LAYER10
 62
     1
  6
CONTINUOUS
 10
9.0536
 20
10.2084
  0
VERTEX
  8
LAYER10
 62
     1
  6
CONTINUOUS
 10
9.0541
 20
10.2083
  0
VERTEX
  8
LAYER10
 62
     1
  6
CONTINUOUS
 10
9.0546
 20
10.2081
  0
VERTEX
  8
LAYER10
 62
     1
  6
CONTINUOUS
 10
9.0551
 20
10.2080
  0
VERTEX
  8
LAYER10
 62
     1
  6
CONTINUOUS
 10
9.0555
 20
10.2079
  0
VERTEX
  8
LAYER10
 62
     1
  6
CONTINUOUS
 10
9.0558
 20
10.2078
  0
VERTEX
  8
LAYER10
 62
     1
  6
CONTINUOUS
 10
9.0561
 20
10.2077
  0
VERTEX
  8
LAYER10
 62
     1
  6
CONTINUOUS
 10
9.0562
 20
10.2077
  0
VERTEX
  8
LAYER10
 62
     1
  6
CONTINUOUS
 10
9.0563
 20
10.2077
  0
VERTEX
  8
LAYER10
 62
     1
  6
CONTINUOUS
 10
9.0564
 20
10.2077
  0
VERTEX
  8
LAYER10
 62
     1
  6
CONTINUOUS
 10
9.0564
 20
10.2076
  0
VERTEX
  8
LAYER10
 62
     1
  6
CONTINUOUS
 10
9.0564
 20
10.2076
  0
VERTEX
  8
LAYER10
 62
     1
  6
CONTINUOUS
 10
9.0564
 20
10.2076
  0
VERTEX
  8
LAYER10
 62
     1
  6
CONTINUOUS
 10
9.0564
 20
10.2076
  0
VERTEX
  8
LAYER10
 62
     1
  6
CONTINUOUS
 10
9.0563
 20
10.2077
  0
VERTEX
  8
LAYER10
 62
     1
  6
CONTINUOUS
 10
9.0563
 20
10.2077
  0
VERTEX
  8
LAYER10
 62
     1
  6
CONTINUOUS
 10
9.0562
 20
10.2077
  0
VERTEX
  8
LAYER10
 62
     1
  6
CONTINUOUS
 10
9.0562
 20
10.2077
  0
VERTEX
  8
LAYER10
 62
     1
  6
CONTINUOUS
 10
9.0561
 20
10.2077
  0
SEQEND
  8
LAYER10
  0
POLYLINE
  8
LAYER10
 62
     1
 66
     1
  6
CONTINUOUS
  0
VERTEX
  8
LAYER10
 62
     1
  6
CONTINUOUS
 10
9.8866
 20
10.5352
  0
VERTEX
  8
LAYER10
 62
     1
  6
CONTINUOUS
 10
9.8868
 20
10.5356
  0
VERTEX
  8
LAYER10
 62
     1
  6
CONTINUOUS
 10
9.8870
 20
10.5360
  0
VERTEX
  8
LAYER10
 62
     1
  6
CONTINUOUS
 10
9.8873
 20
10.5364
  0
VERTEX
  8
LAYER10
 62
     1
  6
CONTINUOUS
 10
9.8875
 20
10.5368
  0
VERTEX
  8
LAYER10
 62
     1
  6
CONTINUOUS
 10
9.8878
 20
10.5372
  0
VERTEX
  8
LAYER10
 62
     1
  6
CONTINUOUS
 10
9.8880
 20
10.5376
  0
VERTEX
  8
LAYER10
 62
     1
  6
CONTINUOUS
 10
9.8883
 20
10.5380
  0
VERTEX
  8
LAYER10
 62
     1
  6
CONTINUOUS
 10
9.8886
 20
10.5384
  0
VERTEX
  8
LAYER10
 62
     1
  6
CONTINUOUS
 10
9.8888
 20
10.5387
  0
VERTEX
  8
LAYER10
 62
     1
  6
CONTINUOUS
 10
9.8891
 20
10.5391
  0
VERTEX
  8
LAYER10
 62
     1
  6
CONTINUOUS
 10
9.8894
 20
10.5394
  0
VERTEX
  8
LAYER10
 62
     1
  6
CONTINUOUS
 10
9.8897
 20
10.5398
  0
VERTEX
  8
LAYER10
 62
     1
  6
CONTINUOUS
 10
9.8902
 20
10.5404
  0
VERTEX
  8
LAYER10
 62
     1
  6
CONTINUOUS
 10
9.8908
 20
10.5409
  0
VERTEX
  8
LAYER10
 62
     1
  6
CONTINUOUS
 10
9.8914
 20
10.5414
  0
VERTEX
  8
LAYER10
 62
     1
  6
CONTINUOUS
 10
9.8919
 20
10.5419
  0
VERTEX
  8
LAYER10
 62
     1
  6
CONTINUOUS
 10
9.8926
 20
10.5424
  0
VERTEX
  8
LAYER10
 62
     1
  6
CONTINUOUS
 10
9.8932
 20
10.5429
  0
VERTEX
  8
LAYER10
 62
     1
  6
CONTINUOUS
 10
9.8938
 20
10.5434
  0
VERTEX
  8
LAYER10
 62
     1
  6
CONTINUOUS
 10
9.8945
 20
10.5438
  0
VERTEX
  8
LAYER10
 62
     1
  6
CONTINUOUS
 10
9.8951
 20
10.5443
  0
VERTEX
  8
LAYER10
 62
     1
  6
CONTINUOUS
 10
9.8958
 20
10.5447
  0
VERTEX
  8
LAYER10
 62
     1
  6
CONTINUOUS
 10
9.8965
 20
10.5451
  0
VERTEX
  8
LAYER10
 62
     1
  6
CONTINUOUS
 10
9.8971
 20
10.5456
  0
SEQEND
  8
LAYER10
  0
POLYLINE
  8
LAYER10
 62
     1
 66
     1
  6
CONTINUOUS
  0
VERTEX
  8
LAYER10
 62
     1
  6
CONTINUOUS
 10
9.9368
 20
10.5456
  0
VERTEX
  8
LAYER10
 62
     1
  6
CONTINUOUS
 10
9.9372
 20
10.5451
  0
VERTEX
  8
LAYER10
 62
     1
  6
CONTINUOUS
 10
9.9375
 20
10.5447
  0
VERTEX
  8
LAYER10
 62
     1
  6
CONTINUOUS
 10
9.9378
 20
10.5443
  0
VERTEX
  8
LAYER10
 62
     1
  6
CONTINUOUS
 10
9.9381
 20
10.5439
  0
VERTEX
  8
LAYER10
 62
     1
  6
CONTINUOUS
 10
9.9384
 20
10.5434
  0
VERTEX
  8
LAYER10
 62
     1
  6
CONTINUOUS
 10
9.9387
 20
10.5430
  0
VERTEX
  8
LAYER10
 62
     1
  6
CONTINUOUS
 10
9.9390
 20
10.5426
  0
VERTEX
  8
LAYER10
 62
     1
  6
CONTINUOUS
 10
9.9393
 20
10.5421
  0
VERTEX
  8
LAYER10
 62
     1
  6
CONTINUOUS
 10
9.9396
 20
10.5417
  0
VERTEX
  8
LAYER10
 62
     1
  6
CONTINUOUS
 10
9.9399
 20
10.5413
  0
VERTEX
  8
LAYER10
 62
     1
  6
CONTINUOUS
 10
9.9401
 20
10.5408
  0
VERTEX
  8
LAYER10
 62
     1
  6
CONTINUOUS
 10
9.9404
 20
10.5404
  0
VERTEX
  8
LAYER10
 62
     1
  6
CONTINUOUS
 10
9.9406
 20
10.5399
  0
VERTEX
  8
LAYER10
 62
     1
  6
CONTINUOUS
 10
9.9409
 20
10.5395
  0
VERTEX
  8
LAYER10
 62
     1
  6
CONTINUOUS
 10
9.9411
 20
10.5391
  0
VERTEX
  8
LAYER10
 62
     1
  6
CONTINUOUS
 10
9.9413
 20
10.5387
  0
VERTEX
  8
LAYER10
 62
     1
  6
CONTINUOUS
 10
9.9416
 20
10.5383
  0
VERTEX
  8
LAYER10
 62
     1
  6
CONTINUOUS
 10
9.9418
 20
10.5378
  0
VERTEX
  8
LAYER10
 62
     1
  6
CONTINUOUS
 10
9.9420
 20
10.5374
  0
VERTEX
  8
LAYER10
 62
     1
  6
CONTINUOUS
 10
9.9422
 20
10.5370
  0
VERTEX
  8
LAYER10
 62
     1
  6
CONTINUOUS
 10
9.9424
 20
10.5365
  0
VERTEX
  8
LAYER10
 62
     1
  6
CONTINUOUS
 10
9.9426
 20
10.5361
  0
VERTEX
  8
LAYER10
 62
     1
  6
CONTINUOUS
 10
9.9428
 20
10.5357
  0
VERTEX
  8
LAYER10
 62
     1
  6
CONTINUOUS
 10
9.9430
 20
10.5352
  0
SEQEND
  8
LAYER10
  0
POLYLINE
  8
LAYER12
 62
     5
 66
     1
  6
CONTINUOUS
  0
VERTEX
  8
LAYER12
 62
     5
  6
CONTINUOUS
 10
9.0561
 20
10.5370
  0
VERTEX
  8
LAYER12
 62
     5
  6
CONTINUOUS
 10
9.0561
 20
10.5370
  0
SEQEND
  8
LAYER12
  0
POLYLINE
  8
LAYER12
 62
     5
 66
     1
  6
CONTINUOUS
  0
VERTEX
  8
LAYER12
 62
     5
  6
CONTINUOUS
 10
9.0561
 20
10.5370
  0
VERTEX
  8
LAYER12
 62
     5
  6
CONTINUOUS
 10
9.0561
 20
10.5370
  0
SEQEND
  8
LAYER12
  0
POLYLINE
  8
LAYER12
 62
     5
 66
     1
  6
CONTINUOUS
  0
VERTEX
  8
LAYER12
 62
     5
  6
CONTINUOUS
 10
9.0561
 20
10.5370
  0
VERTEX
  8
LAYER12
 62
     5
  6
CONTINUOUS
 10
9.0561
 20
10.5370
  0
SEQEND
  8
LAYER12
  0
POLYLINE
  8
LAYER12
 62
     5
 66
     1
  6
CONTINUOUS
  0
VERTEX
  8
LAYER12
 62
     5
  6
CONTINUOUS
 10
9.0561
 20
10.5370
  0
VERTEX
  8
LAYER12
 62
     5
  6
CONTINUOUS
 10
9.0561
 20
10.5370
  0
SEQEND
  8
LAYER12
  0
POLYLINE
  8
LAYER12
 62
     5
 66
     1
  6
CONTINUOUS
  0
VERTEX
  8
LAYER12
 62
     5
  6
CONTINUOUS
 10
9.0561
 20
10.5370
  0
VERTEX
  8
LAYER12
 62
     5
  6
CONTINUOUS
 10
9.0561
 20
10.5370
  0
SEQEND
  8
LAYER12
  0
POLYLINE
  8
LAYER12
 62
     5
 66
     1
  6
CONTINUOUS
  0
VERTEX
  8
LAYER12
 62
     5
  6
CONTINUOUS
 10
9.0561
 20
9.5139
  0
VERTEX
  8
LAYER12
 62
     5
  6
CONTINUOUS
 10
9.0561
 20
9.5139
  0
SEQEND
  8
LAYER12
  0
POLYLINE
  8
LAYER12
 62
     5
 66
     1
  6
CONTINUOUS
  0
VERTEX
  8
LAYER12
 62
     5
  6
CONTINUOUS
 10
9.0561
 20
9.5139
  0
VERTEX
  8
LAYER12
 62
     5
  6
CONTINUOUS
 10
9.0561
 20
9.5139
  0
SEQEND
  8
LAYER12
  0
POLYLINE
  8
LAYER12
 62
     5
 66
     1
  6
CONTINUOUS
  0
VERTEX
  8
LAYER12
 62
     5
  6
CONTINUOUS
 10
9.0561
 20
9.5138
  0
VERTEX
  8
LAYER12
 62
     5
  6
CONTINUOUS
 10
9.0561
 20
9.5139
  0
SEQEND
  8
LAYER12
  0
POLYLINE
  8
LAYER12
 62
     5
 66
     1
  6
CONTINUOUS
  0
VERTEX
  8
LAYER12
 62
     5
  6
CONTINUOUS
 10
9.0561
 20
10.5370
  0
VERTEX
  8
LAYER12
 62
     5
  6
CONTINUOUS
 10
10.0413
 20
10.5370
  0
SEQEND
  8
LAYER12
  0
POLYLINE
  8
LAYER12
 62
     5
 66
     1
  6
CONTINUOUS
  0
VERTEX
  8
LAYER12
 62
     5
  6
CONTINUOUS
 10
9.0561
 20
9.5139
  0
VERTEX
  8
LAYER12
 62
     5
  6
CONTINUOUS
 10
9.0561
 20
10.5352
  0
SEQEND
  8
LAYER12
  0
POLYLINE
  8
LAYER12
 62
     5
 66
     1
  6
CONTINUOUS
  0
VERTEX
  8
LAYER12
 62
     5
  6
CONTINUOUS
 10
9.0561
 20
10.5352
  0
VERTEX
  8
LAYER12
 62
     5
  6
CONTINUOUS
 10
9.0561
 20
10.5370
  0
SEQEND
  8
LAYER12
  0
POLYLINE
  8
LAYER12
 62
     5
 66
     1
  6
CONTINUOUS
  0
VERTEX
  8
LAYER12
 62
     5
  6
CONTINUOUS
 10
9.0561
 20
10.5370
  0
VERTEX
  8
LAYER12
 62
     5
  6
CONTINUOUS
 10
9.0561
 20
10.5456
  0
SEQEND
  8
LAYER12
  0
POLYLINE
  8
LAYER12
 62
     5
 66
     1
  6
CONTINUOUS
  0
VERTEX
  8
LAYER12
 62
     5
  6
CONTINUOUS
 10
10.0459
 20
9.5139
  0
VERTEX
  8
LAYER12
 62
     5
  6
CONTINUOUS
 10
9.0561
 20
9.5139
  0
SEQEND
  8
LAYER12
  0
POLYLINE
  8
LAYER12
 62
     5
 66
     1
  6
CONTINUOUS
  0
VERTEX
  8
LAYER12
 62
     5
  6
CONTINUOUS
 10
9.0561
 20
9.5097
  0
VERTEX
  8
LAYER12
 62
     5
  6
CONTINUOUS
 10
9.0561
 20
9.5138
  0
SEQEND
  8
LAYER12
  0
POLYLINE
  8
LAYER12
 62
     5
 66
     1
  6
CONTINUOUS
  0
VERTEX
  8
LAYER12
 62
     5
  6
CONTINUOUS
 10
9.0561
 20
9.5139
  0
VERTEX
  8
LAYER12
 62
     5
  6
CONTINUOUS
 10
9.0495
 20
9.5139
  0
SEQEND
  8
LAYER12
  0
POLYLINE
  8
LAYER12
 62
     5
 66
     1
  6
CONTINUOUS
  0
VERTEX
  8
LAYER12
 62
     5
  6
CONTINUOUS
 10
10.0398
 20
10.5456
  0
VERTEX
  8
LAYER12
 62
     5
  6
CONTINUOUS
 10
10.0398
 20
10.5352
  0
SEQEND
  8
LAYER12
  0
POLYLINE
  8
LAYER12
 62
     5
 66
     1
  6
CONTINUOUS
  0
VERTEX
  8
LAYER12
 62
     5
  6
CONTINUOUS
 10
10.0398
 20
10.5352
  0
VERTEX
  8
LAYER12
 62
     5
  6
CONTINUOUS
 10
10.0398
 20
9.5097
  0
SEQEND
  8
LAYER12
  0
POLYLINE
  8
LAYER12
 62
     5
 66
     1
  6
CONTINUOUS
  0
VERTEX
  8
LAYER12
 62
     5
  6
CONTINUOUS
 10
10.0413
 20
10.5370
  0
VERTEX
  8
LAYER12
 62
     5
  6
CONTINUOUS
 10
10.0459
 20
10.5370
  0
SEQEND
  8
LAYER12
  0
POLYLINE
  8
LAYER12
 62
     5
 66
     1
  6
CONTINUOUS
  0
VERTEX
  8
LAYER12
 62
     5
  6
CONTINUOUS
 10
9.0491
 20
10.5370
  0
VERTEX
  8
LAYER12
 62
     5
  6
CONTINUOUS
 10
9.0495
 20
10.5370
  0
SEQEND
  8
LAYER12
  0
POLYLINE
  8
LAYER12
 62
     5
 66
     1
  6
CONTINUOUS
  0
VERTEX
  8
LAYER12
 62
     5
  6
CONTINUOUS
 10
9.0495
 20
10.5370
  0
VERTEX
  8
LAYER12
 62
     5
  6
CONTINUOUS
 10
9.0561
 20
10.5370
  0
SEQEND
  8
LAYER12
  0
ENDSEC
  0
EOF
