  0
SECTION
  2
HEADER
  9
$ACADVER
  1
AC1004
  9
$EXTMIN
 10
33.4600
 20
25.5364
  9
$EXTMAX
 10
36.2373
 20
28.3136
  9
$LIMMIN
 10
33.4600
 20
25.5364
  9
$LIMMAX
 10
36.2373
 20
28.3136
  9
$INSBASE
 10
0.0
 20
0.0
  9
$VIEWCTR
 10
7.21903
 20
4.5
  9
$VIEWSIZE
 40
9.0
  9
$SNAPMODE
 70
     0
  9
$SNAPUNIT
 10
1.0
 20
1.0
  9
$SNAPBASE
 10
0.0
 20
0.0
  9
$SNAPANG
 50
0.0
  9
$SNAPSTYLE
 70
     0
  9
$SNAPISOPAIR
 70
     0
  9
$GRIDMODE
 70
     0
  9
$GRIDUNIT
 10
0.0
 20
0.0
  9
$ORTHOMODE
 70
     0
  9
$REGENMODE
 70
     1
  9
$FILLMODE
 70
     1
  9
$QTEXTMODE
 70
     0
  9
$DRAGMODE
 70
     2
  9
$LTSCALE
 40
1.0
  9
$OSMODE
 70
     0
  9
$ATTMODE
 70
     1
  9
$TEXTSIZE
 40
0.2
  9
$TRACEWID
 40
0.05
  9
$TEXTSTYLE
  7
STANDARD
  9
$CLAYER
  8
0
  9
$CELTYPE
  6
BYLAYER
  9
$CECOLOR
 62
   256
  9
$DIMSCALE
 40
1.0
  9
$DIMASZ
 40
0.18
  9
$DIMEXO
 40
0.0625
  9
$DIMDLI
 40
0.38
  9
$DIMRND
 40
0.0
  9
$DIMDLE
 40
0.0
  9
$DIMEXE
 40
0.18
  9
$DIMTP
 40
0.0
  9
$DIMTM
 40
0.0
  9
$DIMTXT
 40
0.18
  9
$DIMCEN
 40
0.09
  9
$DIMTSZ
 40
0.0
  9
$DIMTOL
 70
     0
  9
$DIMLIM
 70
     0
  9
$DIMTIH
 70
     1
  9
$DIMTOH
 70
     1
  9
$DIMSE1
 70
     0
  9
$DIMSE2
 70
     0
  9
$DIMTAD
 70
     0
  9
$DIMZIN
 70
     0
  9
$DIMBLK
  1

  9
$DIMASO
 70
     1
  9
$DIMSHO
 70
     0
  9
$DIMPOST
  1

  9
$DIMAPOST
  1

  9
$DIMALT
 70
     0
  9
$DIMALTD
 70
     2
  9
$DIMALTF
 40
25.4
  9
$DIMLFAC
 40
1.0
  9
$LUNITS
 70
     2
  9
$LUPREC
 70
     4
  9
$AXISMODE
 70
     0
  9
$AXISUNIT
 10
0.0
 20
0.0
  9
$SKETCHINC
 40
0.1
  9
$FILLETRAD
 40
0.0
  9
$AUNITS
 70
     0
  9
$AUPREC
 70
     0
  9
$MENU
  1
acad
  9
$ELEVATION
 40
0.0
  9
$THICKNESS
 40
0.0
  9
$VIEWDIR
 10
0.0
 20
0.0
 30
1.0
  9
$LIMCHECK
 70
     0
  9
$BLIPMODE
 70
     1
  9
$CHAMFERA
 40
0.0
  9
$CHAMFERB
 40
0.0
  9
$FASTZOOM
 70
     1
  9
$SKPOLY
 70
     0
  9
$TDCREATE
 40
2447222.5666886573
  9
$TDUPDATE
 40
2447222.5666886573
  9
$TDINDWG
 40
0.0000000000
  9
$TDUSRTIMER
 40
0.0000000000
  9
$USRTIMER
 70
     1
  9
$ANGBASE
 50
0.0
  9
$ANGDIR
 70
     0
  9
$PDMODE
 70
     0
  9
$PDSIZE
 40
0.0
  9
$PLINEWID
 40
0.0
  9
$COORDS
 70
     0
  9
$SPLFRAME
 70
     0
  9
$SPLINESEGS
 70
     8
  9
$ATTDIA
 70
     0
  9
$ATTREQ
 70
     1
  9
$USERI1
 70
     0
  9
$USERI2
 70
     0
  9
$USERI3
 70
     0
  9
$USERI4
 70
     0
  9
$USERI5
 70
     0
  9
$USERR1
 40
0.0
  9
$USERR2
 40
0.0
  9
$USERR3
 40
0.0
  9
$USERR4
 40
0.0
  9
$USERR5
 40
0.0
  0
ENDSEC
  0
SECTION
  2
TABLES
  0
TABLE
  2
LTYPE
 70
     13
  0
LTYPE
  2
CONTINUOUS
 70
    64
  3
Solid line
 72
    65
 73
     0
 40
0.0
  0
LTYPE
  2
DASHED
 70
    64
  3
__ __ __ __ __ __ __ __ __ __ __ __ __ __ __
 72
    65
 73
     2
 40
0.75
 49
0.5
 49
-0.25
  0
LTYPE
  2
HIDDEN
 70
    64
  3
_ _ _ _ _ _ _ _ _ _ _ _ _ _ _ _ _ _ _ _ _ _ _
 72
    65
 73
     2
 40
0.375
 49
0.25
 49
-0.125
  0
LTYPE
  2
CENTER
 70
    64
  3
____ _ ____ _ ____ _ ____ _ ____ _ ____ _ ____
 72
    65
 73
     4
 40
2.0
 49
1.25
 49
-0.25
 49
0.25
 49
-0.25
  0
LTYPE
  2
PHANTOM
 70
    64
  3
_____ _ _ _____ _ _ _____ _ _ _____ _ _ ____
 72
    65
 73
     6
 40
2.5
 49
1.25
 49
-0.25
 49
0.25
 49
-0.25
 49
0.25
 49
-0.25
  0
LTYPE
  2
DOT
 70
    64
  3
...............................................
 72
    65
 73
     2
 40
0.25
 49
0.0
 49
-0.25
  0
LTYPE
  2
DASHDOT
 70
    64
  3
__ . __ . __ . __ . __ . __ . __ . __ . __ . __
 72
    65
 73
     4
 40
1.0
 49
0.5
 49
-0.25
 49
0.0
 49
-0.25
  0
LTYPE
  2
BORDER
 70
    64
  3
__ __ . __ __ . __ __ . __ __ . __ __ . __ __
 72
    65
 73
     6
 40
1.75
 49
0.5
 49
-0.25
 49
0.5
 49
-0.25
 49
0.0
 49
-0.25
  0
LTYPE
  2
DIVIDE
 70
    64
  3
__ . . __ . . __ . . __ . . __ . . __ . . __
 72
    65
 73
     6
 40
1.25
 49
0.5
 49
-0.25
 49
0.0
 49
-0.25
 49
0.0
 49
-0.25
  0
LTYPE
  2
DCTYPE1
 70
    64
  3
__ . . __ . . __ . . __ . . __ . . __ . . __
 72
    65
 73
     8
 40
2.5
 49
0.5
 49
-0.25
 49
0.125
 49
-0.25
 49
0.25
 49
-0.25
 49
0.125
 49
-0.25
  0
LTYPE
  2
DCTYPE2
 70
    64
  3
__ . . __ . . __ . . __ . . __ . . __ . . __
 72
    65
 73
     6
 40
2.05
 49
1.0
 49
-0.3
 49
0.15
 49
-0.15
 49
0.15
 49
-0.3
  0
LTYPE
  2
DCTYPE3
 70
    64
  3
__ . . __ . . __ . . __ . . __ . . __ . . __
 72
    65
 73
     6
 40
2.5
 49
0.8
 49
-0.2
 49
0.8
 49
-0.2
 49
0.3
 49
-0.2
  0
LTYPE
  2
DCTYPE4
 70
    64
  3
__ . . __ . . __ . . __ . . __ . . __ . . __
 72
    65
 73
     10
 40
3.97
 49
1.75
 49
-0.3
 49
0.3
 49
-0.3
 49
0.06
 49
-0.3
 49
0.06
 49
-0.3
 49
0.3
 49
-0.3
  0
ENDTAB
  0
TABLE
  2
LAYER
 70
    153
  0
LAYER
  2
LAYER8
 70
 64
 62
     7
  6
CONTINUOUS
  0
LAYER
  2
LAYER25
 70
 64
 62
     5
  6
CONTINUOUS
  0
LAYER
  2
LAYER52
 70
 64
 62
     7
  6
CONTINUOUS
  0
ENDTAB
  0
ENDSEC
  0
SECTION
  2
BLOCKS
  0
ENDSEC
  0
SECTION
  2
ENTITIES
  0
CIRCLE
  8
LAYER8
 62
     7
  6
CONTINUOUS
 10
33.7743
 20
27.9917
 40
0.1051
  0
CIRCLE
  8
LAYER8
 62
     7
  6
CONTINUOUS
 10
34.1805
 20
27.1400
 40
0.0634
  0
POLYLINE
  8
LAYER8
 62
     1
 66
     1
  6
CONTINUOUS
  0
VERTEX
  8
LAYER8
 62
     1
  6
CONTINUOUS
 10
33.7714
 20
27.8872
  0
VERTEX
  8
LAYER8
 62
     1
  6
CONTINUOUS
 10
33.7762
 20
27.8816
  0
VERTEX
  8
LAYER8
 62
     1
  6
CONTINUOUS
 10
33.7810
 20
27.8760
  0
VERTEX
  8
LAYER8
 62
     1
  6
CONTINUOUS
 10
33.7857
 20
27.8704
  0
VERTEX
  8
LAYER8
 62
     1
  6
CONTINUOUS
 10
33.7902
 20
27.8648
  0
VERTEX
  8
LAYER8
 62
     1
  6
CONTINUOUS
 10
33.7947
 20
27.8591
  0
VERTEX
  8
LAYER8
 62
     1
  6
CONTINUOUS
 10
33.7989
 20
27.8533
  0
VERTEX
  8
LAYER8
 62
     1
  6
CONTINUOUS
 10
33.8028
 20
27.8475
  0
VERTEX
  8
LAYER8
 62
     1
  6
CONTINUOUS
 10
33.8065
 20
27.8416
  0
VERTEX
  8
LAYER8
 62
     1
  6
CONTINUOUS
 10
33.8099
 20
27.8356
  0
VERTEX
  8
LAYER8
 62
     1
  6
CONTINUOUS
 10
33.8129
 20
27.8294
  0
VERTEX
  8
LAYER8
 62
     1
  6
CONTINUOUS
 10
33.8155
 20
27.8232
  0
VERTEX
  8
LAYER8
 62
     1
  6
CONTINUOUS
 10
33.8176
 20
27.8168
  0
VERTEX
  8
LAYER8
 62
     1
  6
CONTINUOUS
 10
33.8202
 20
27.8055
  0
VERTEX
  8
LAYER8
 62
     1
  6
CONTINUOUS
 10
33.8215
 20
27.7937
  0
VERTEX
  8
LAYER8
 62
     1
  6
CONTINUOUS
 10
33.8214
 20
27.7817
  0
VERTEX
  8
LAYER8
 62
     1
  6
CONTINUOUS
 10
33.8201
 20
27.7696
  0
VERTEX
  8
LAYER8
 62
     1
  6
CONTINUOUS
 10
33.8177
 20
27.7573
  0
VERTEX
  8
LAYER8
 62
     1
  6
CONTINUOUS
 10
33.8143
 20
27.7451
  0
VERTEX
  8
LAYER8
 62
     1
  6
CONTINUOUS
 10
33.8100
 20
27.7329
  0
VERTEX
  8
LAYER8
 62
     1
  6
CONTINUOUS
 10
33.8047
 20
27.7209
  0
VERTEX
  8
LAYER8
 62
     1
  6
CONTINUOUS
 10
33.7987
 20
27.7092
  0
VERTEX
  8
LAYER8
 62
     1
  6
CONTINUOUS
 10
33.7920
 20
27.6978
  0
VERTEX
  8
LAYER8
 62
     1
  6
CONTINUOUS
 10
33.7848
 20
27.6869
  0
VERTEX
  8
LAYER8
 62
     1
  6
CONTINUOUS
 10
33.7770
 20
27.6764
  0
VERTEX
  8
LAYER8
 62
     1
  6
CONTINUOUS
 10
33.7708
 20
27.6690
  0
VERTEX
  8
LAYER8
 62
     1
  6
CONTINUOUS
 10
33.7645
 20
27.6618
  0
VERTEX
  8
LAYER8
 62
     1
  6
CONTINUOUS
 10
33.7581
 20
27.6549
  0
VERTEX
  8
LAYER8
 62
     1
  6
CONTINUOUS
 10
33.7517
 20
27.6481
  0
VERTEX
  8
LAYER8
 62
     1
  6
CONTINUOUS
 10
33.7453
 20
27.6414
  0
VERTEX
  8
LAYER8
 62
     1
  6
CONTINUOUS
 10
33.7390
 20
27.6347
  0
VERTEX
  8
LAYER8
 62
     1
  6
CONTINUOUS
 10
33.7329
 20
27.6280
  0
VERTEX
  8
LAYER8
 62
     1
  6
CONTINUOUS
 10
33.7270
 20
27.6212
  0
VERTEX
  8
LAYER8
 62
     1
  6
CONTINUOUS
 10
33.7214
 20
27.6142
  0
VERTEX
  8
LAYER8
 62
     1
  6
CONTINUOUS
 10
33.7162
 20
27.6070
  0
VERTEX
  8
LAYER8
 62
     1
  6
CONTINUOUS
 10
33.7115
 20
27.5996
  0
VERTEX
  8
LAYER8
 62
     1
  6
CONTINUOUS
 10
33.7073
 20
27.5918
  0
VERTEX
  8
LAYER8
 62
     1
  6
CONTINUOUS
 10
33.7048
 20
27.5865
  0
VERTEX
  8
LAYER8
 62
     1
  6
CONTINUOUS
 10
33.7026
 20
27.5810
  0
VERTEX
  8
LAYER8
 62
     1
  6
CONTINUOUS
 10
33.7007
 20
27.5754
  0
VERTEX
  8
LAYER8
 62
     1
  6
CONTINUOUS
 10
33.6990
 20
27.5697
  0
VERTEX
  8
LAYER8
 62
     1
  6
CONTINUOUS
 10
33.6975
 20
27.5639
  0
VERTEX
  8
LAYER8
 62
     1
  6
CONTINUOUS
 10
33.6963
 20
27.5579
  0
VERTEX
  8
LAYER8
 62
     1
  6
CONTINUOUS
 10
33.6953
 20
27.5520
  0
VERTEX
  8
LAYER8
 62
     1
  6
CONTINUOUS
 10
33.6945
 20
27.5459
  0
VERTEX
  8
LAYER8
 62
     1
  6
CONTINUOUS
 10
33.6940
 20
27.5399
  0
VERTEX
  8
LAYER8
 62
     1
  6
CONTINUOUS
 10
33.6937
 20
27.5338
  0
VERTEX
  8
LAYER8
 62
     1
  6
CONTINUOUS
 10
33.6937
 20
27.5277
  0
VERTEX
  8
LAYER8
 62
     1
  6
CONTINUOUS
 10
33.6939
 20
27.5216
  0
VERTEX
  8
LAYER8
 62
     1
  6
CONTINUOUS
 10
33.6946
 20
27.5120
  0
VERTEX
  8
LAYER8
 62
     1
  6
CONTINUOUS
 10
33.6958
 20
27.5026
  0
VERTEX
  8
LAYER8
 62
     1
  6
CONTINUOUS
 10
33.6973
 20
27.4931
  0
VERTEX
  8
LAYER8
 62
     1
  6
CONTINUOUS
 10
33.6991
 20
27.4838
  0
VERTEX
  8
LAYER8
 62
     1
  6
CONTINUOUS
 10
33.7010
 20
27.4745
  0
VERTEX
  8
LAYER8
 62
     1
  6
CONTINUOUS
 10
33.7030
 20
27.4652
  0
VERTEX
  8
LAYER8
 62
     1
  6
CONTINUOUS
 10
33.7048
 20
27.4559
  0
VERTEX
  8
LAYER8
 62
     1
  6
CONTINUOUS
 10
33.7064
 20
27.4467
  0
VERTEX
  8
LAYER8
 62
     1
  6
CONTINUOUS
 10
33.7078
 20
27.4374
  0
VERTEX
  8
LAYER8
 62
     1
  6
CONTINUOUS
 10
33.7087
 20
27.4282
  0
VERTEX
  8
LAYER8
 62
     1
  6
CONTINUOUS
 10
33.7090
 20
27.4189
  0
VERTEX
  8
LAYER8
 62
     1
  6
CONTINUOUS
 10
33.7087
 20
27.4096
  0
VERTEX
  8
LAYER8
 62
     1
  6
CONTINUOUS
 10
33.7080
 20
27.4026
  0
VERTEX
  8
LAYER8
 62
     1
  6
CONTINUOUS
 10
33.7070
 20
27.3955
  0
VERTEX
  8
LAYER8
 62
     1
  6
CONTINUOUS
 10
33.7057
 20
27.3885
  0
VERTEX
  8
LAYER8
 62
     1
  6
CONTINUOUS
 10
33.7042
 20
27.3814
  0
VERTEX
  8
LAYER8
 62
     1
  6
CONTINUOUS
 10
33.7026
 20
27.3744
  0
VERTEX
  8
LAYER8
 62
     1
  6
CONTINUOUS
 10
33.7010
 20
27.3673
  0
VERTEX
  8
LAYER8
 62
     1
  6
CONTINUOUS
 10
33.6994
 20
27.3603
  0
VERTEX
  8
LAYER8
 62
     1
  6
CONTINUOUS
 10
33.6980
 20
27.3533
  0
VERTEX
  8
LAYER8
 62
     1
  6
CONTINUOUS
 10
33.6968
 20
27.3463
  0
VERTEX
  8
LAYER8
 62
     1
  6
CONTINUOUS
 10
33.6959
 20
27.3393
  0
VERTEX
  8
LAYER8
 62
     1
  6
CONTINUOUS
 10
33.6954
 20
27.3323
  0
VERTEX
  8
LAYER8
 62
     1
  6
CONTINUOUS
 10
33.6953
 20
27.3254
  0
VERTEX
  8
LAYER8
 62
     1
  6
CONTINUOUS
 10
33.6958
 20
27.3183
  0
VERTEX
  8
LAYER8
 62
     1
  6
CONTINUOUS
 10
33.6968
 20
27.3112
  0
VERTEX
  8
LAYER8
 62
     1
  6
CONTINUOUS
 10
33.6984
 20
27.3041
  0
VERTEX
  8
LAYER8
 62
     1
  6
CONTINUOUS
 10
33.7003
 20
27.2970
  0
VERTEX
  8
LAYER8
 62
     1
  6
CONTINUOUS
 10
33.7026
 20
27.2900
  0
VERTEX
  8
LAYER8
 62
     1
  6
CONTINUOUS
 10
33.7052
 20
27.2831
  0
VERTEX
  8
LAYER8
 62
     1
  6
CONTINUOUS
 10
33.7080
 20
27.2761
  0
VERTEX
  8
LAYER8
 62
     1
  6
CONTINUOUS
 10
33.7111
 20
27.2692
  0
VERTEX
  8
LAYER8
 62
     1
  6
CONTINUOUS
 10
33.7143
 20
27.2622
  0
VERTEX
  8
LAYER8
 62
     1
  6
CONTINUOUS
 10
33.7176
 20
27.2553
  0
VERTEX
  8
LAYER8
 62
     1
  6
CONTINUOUS
 10
33.7209
 20
27.2484
  0
VERTEX
  8
LAYER8
 62
     1
  6
CONTINUOUS
 10
33.7241
 20
27.2415
  0
VERTEX
  8
LAYER8
 62
     1
  6
CONTINUOUS
 10
33.7273
 20
27.2347
  0
VERTEX
  8
LAYER8
 62
     1
  6
CONTINUOUS
 10
33.7304
 20
27.2278
  0
VERTEX
  8
LAYER8
 62
     1
  6
CONTINUOUS
 10
33.7334
 20
27.2209
  0
VERTEX
  8
LAYER8
 62
     1
  6
CONTINUOUS
 10
33.7362
 20
27.2140
  0
VERTEX
  8
LAYER8
 62
     1
  6
CONTINUOUS
 10
33.7389
 20
27.2071
  0
VERTEX
  8
LAYER8
 62
     1
  6
CONTINUOUS
 10
33.7415
 20
27.2001
  0
VERTEX
  8
LAYER8
 62
     1
  6
CONTINUOUS
 10
33.7439
 20
27.1931
  0
VERTEX
  8
LAYER8
 62
     1
  6
CONTINUOUS
 10
33.7461
 20
27.1861
  0
VERTEX
  8
LAYER8
 62
     1
  6
CONTINUOUS
 10
33.7481
 20
27.1791
  0
VERTEX
  8
LAYER8
 62
     1
  6
CONTINUOUS
 10
33.7500
 20
27.1720
  0
VERTEX
  8
LAYER8
 62
     1
  6
CONTINUOUS
 10
33.7516
 20
27.1648
  0
VERTEX
  8
LAYER8
 62
     1
  6
CONTINUOUS
 10
33.7529
 20
27.1576
  0
VERTEX
  8
LAYER8
 62
     1
  6
CONTINUOUS
 10
33.7540
 20
27.1508
  0
VERTEX
  8
LAYER8
 62
     1
  6
CONTINUOUS
 10
33.7549
 20
27.1438
  0
VERTEX
  8
LAYER8
 62
     1
  6
CONTINUOUS
 10
33.7555
 20
27.1369
  0
VERTEX
  8
LAYER8
 62
     1
  6
CONTINUOUS
 10
33.7560
 20
27.1299
  0
VERTEX
  8
LAYER8
 62
     1
  6
CONTINUOUS
 10
33.7563
 20
27.1229
  0
VERTEX
  8
LAYER8
 62
     1
  6
CONTINUOUS
 10
33.7563
 20
27.1158
  0
VERTEX
  8
LAYER8
 62
     1
  6
CONTINUOUS
 10
33.7563
 20
27.1088
  0
VERTEX
  8
LAYER8
 62
     1
  6
CONTINUOUS
 10
33.7560
 20
27.1017
  0
VERTEX
  8
LAYER8
 62
     1
  6
CONTINUOUS
 10
33.7556
 20
27.0946
  0
VERTEX
  8
LAYER8
 62
     1
  6
CONTINUOUS
 10
33.7551
 20
27.0876
  0
VERTEX
  8
LAYER8
 62
     1
  6
CONTINUOUS
 10
33.7544
 20
27.0806
  0
VERTEX
  8
LAYER8
 62
     1
  6
CONTINUOUS
 10
33.7535
 20
27.0735
  0
VERTEX
  8
LAYER8
 62
     1
  6
CONTINUOUS
 10
33.7524
 20
27.0651
  0
VERTEX
  8
LAYER8
 62
     1
  6
CONTINUOUS
 10
33.7510
 20
27.0567
  0
VERTEX
  8
LAYER8
 62
     1
  6
CONTINUOUS
 10
33.7494
 20
27.0483
  0
VERTEX
  8
LAYER8
 62
     1
  6
CONTINUOUS
 10
33.7477
 20
27.0400
  0
VERTEX
  8
LAYER8
 62
     1
  6
CONTINUOUS
 10
33.7458
 20
27.0317
  0
VERTEX
  8
LAYER8
 62
     1
  6
CONTINUOUS
 10
33.7436
 20
27.0235
  0
VERTEX
  8
LAYER8
 62
     1
  6
CONTINUOUS
 10
33.7413
 20
27.0153
  0
VERTEX
  8
LAYER8
 62
     1
  6
CONTINUOUS
 10
33.7387
 20
27.0072
  0
VERTEX
  8
LAYER8
 62
     1
  6
CONTINUOUS
 10
33.7360
 20
26.9991
  0
VERTEX
  8
LAYER8
 62
     1
  6
CONTINUOUS
 10
33.7330
 20
26.9911
  0
VERTEX
  8
LAYER8
 62
     1
  6
CONTINUOUS
 10
33.7298
 20
26.9832
  0
VERTEX
  8
LAYER8
 62
     1
  6
CONTINUOUS
 10
33.7264
 20
26.9753
  0
VERTEX
  8
LAYER8
 62
     1
  6
CONTINUOUS
 10
33.7238
 20
26.9694
  0
VERTEX
  8
LAYER8
 62
     1
  6
CONTINUOUS
 10
33.7211
 20
26.9636
  0
VERTEX
  8
LAYER8
 62
     1
  6
CONTINUOUS
 10
33.7183
 20
26.9579
  0
VERTEX
  8
LAYER8
 62
     1
  6
CONTINUOUS
 10
33.7156
 20
26.9521
  0
VERTEX
  8
LAYER8
 62
     1
  6
CONTINUOUS
 10
33.7129
 20
26.9463
  0
VERTEX
  8
LAYER8
 62
     1
  6
CONTINUOUS
 10
33.7102
 20
26.9405
  0
VERTEX
  8
LAYER8
 62
     1
  6
CONTINUOUS
 10
33.7078
 20
26.9347
  0
VERTEX
  8
LAYER8
 62
     1
  6
CONTINUOUS
 10
33.7055
 20
26.9288
  0
VERTEX
  8
LAYER8
 62
     1
  6
CONTINUOUS
 10
33.7034
 20
26.9229
  0
VERTEX
  8
LAYER8
 62
     1
  6
CONTINUOUS
 10
33.7015
 20
26.9170
  0
VERTEX
  8
LAYER8
 62
     1
  6
CONTINUOUS
 10
33.7000
 20
26.9110
  0
VERTEX
  8
LAYER8
 62
     1
  6
CONTINUOUS
 10
33.6988
 20
26.9049
  0
VERTEX
  8
LAYER8
 62
     1
  6
CONTINUOUS
 10
33.6982
 20
26.9004
  0
VERTEX
  8
LAYER8
 62
     1
  6
CONTINUOUS
 10
33.6978
 20
26.8958
  0
VERTEX
  8
LAYER8
 62
     1
  6
CONTINUOUS
 10
33.6975
 20
26.8912
  0
VERTEX
  8
LAYER8
 62
     1
  6
CONTINUOUS
 10
33.6974
 20
26.8866
  0
VERTEX
  8
LAYER8
 62
     1
  6
CONTINUOUS
 10
33.6974
 20
26.8819
  0
VERTEX
  8
LAYER8
 62
     1
  6
CONTINUOUS
 10
33.6975
 20
26.8772
  0
VERTEX
  8
LAYER8
 62
     1
  6
CONTINUOUS
 10
33.6977
 20
26.8725
  0
VERTEX
  8
LAYER8
 62
     1
  6
CONTINUOUS
 10
33.6980
 20
26.8678
  0
VERTEX
  8
LAYER8
 62
     1
  6
CONTINUOUS
 10
33.6983
 20
26.8630
  0
VERTEX
  8
LAYER8
 62
     1
  6
CONTINUOUS
 10
33.6987
 20
26.8583
  0
VERTEX
  8
LAYER8
 62
     1
  6
CONTINUOUS
 10
33.6990
 20
26.8536
  0
VERTEX
  8
LAYER8
 62
     1
  6
CONTINUOUS
 10
33.6993
 20
26.8489
  0
VERTEX
  8
LAYER8
 62
     1
  6
CONTINUOUS
 10
33.6998
 20
26.8406
  0
VERTEX
  8
LAYER8
 62
     1
  6
CONTINUOUS
 10
33.7002
 20
26.8324
  0
VERTEX
  8
LAYER8
 62
     1
  6
CONTINUOUS
 10
33.7005
 20
26.8242
  0
VERTEX
  8
LAYER8
 62
     1
  6
CONTINUOUS
 10
33.7007
 20
26.8160
  0
VERTEX
  8
LAYER8
 62
     1
  6
CONTINUOUS
 10
33.7008
 20
26.8078
  0
VERTEX
  8
LAYER8
 62
     1
  6
CONTINUOUS
 10
33.7009
 20
26.7996
  0
VERTEX
  8
LAYER8
 62
     1
  6
CONTINUOUS
 10
33.7009
 20
26.7915
  0
VERTEX
  8
LAYER8
 62
     1
  6
CONTINUOUS
 10
33.7008
 20
26.7833
  0
VERTEX
  8
LAYER8
 62
     1
  6
CONTINUOUS
 10
33.7007
 20
26.7752
  0
VERTEX
  8
LAYER8
 62
     1
  6
CONTINUOUS
 10
33.7006
 20
26.7670
  0
VERTEX
  8
LAYER8
 62
     1
  6
CONTINUOUS
 10
33.7005
 20
26.7589
  0
VERTEX
  8
LAYER8
 62
     1
  6
CONTINUOUS
 10
33.7003
 20
26.7508
  0
SEQEND
  8
LAYER8
  0
POLYLINE
  8
LAYER8
 62
     1
 66
     1
  6
CONTINUOUS
  0
VERTEX
  8
LAYER8
 62
     1
  6
CONTINUOUS
 10
33.7156
 20
26.5547
  0
VERTEX
  8
LAYER8
 62
     1
  6
CONTINUOUS
 10
33.7146
 20
26.5478
  0
VERTEX
  8
LAYER8
 62
     1
  6
CONTINUOUS
 10
33.7136
 20
26.5408
  0
VERTEX
  8
LAYER8
 62
     1
  6
CONTINUOUS
 10
33.7126
 20
26.5338
  0
VERTEX
  8
LAYER8
 62
     1
  6
CONTINUOUS
 10
33.7116
 20
26.5268
  0
VERTEX
  8
LAYER8
 62
     1
  6
CONTINUOUS
 10
33.7105
 20
26.5198
  0
VERTEX
  8
LAYER8
 62
     1
  6
CONTINUOUS
 10
33.7095
 20
26.5128
  0
VERTEX
  8
LAYER8
 62
     1
  6
CONTINUOUS
 10
33.7084
 20
26.5058
  0
VERTEX
  8
LAYER8
 62
     1
  6
CONTINUOUS
 10
33.7072
 20
26.4988
  0
VERTEX
  8
LAYER8
 62
     1
  6
CONTINUOUS
 10
33.7060
 20
26.4917
  0
VERTEX
  8
LAYER8
 62
     1
  6
CONTINUOUS
 10
33.7048
 20
26.4847
  0
VERTEX
  8
LAYER8
 62
     1
  6
CONTINUOUS
 10
33.7035
 20
26.4776
  0
VERTEX
  8
LAYER8
 62
     1
  6
CONTINUOUS
 10
33.7021
 20
26.4705
  0
VERTEX
  8
LAYER8
 62
     1
  6
CONTINUOUS
 10
33.7003
 20
26.4611
  0
VERTEX
  8
LAYER8
 62
     1
  6
CONTINUOUS
 10
33.6983
 20
26.4516
  0
VERTEX
  8
LAYER8
 62
     1
  6
CONTINUOUS
 10
33.6964
 20
26.4421
  0
VERTEX
  8
LAYER8
 62
     1
  6
CONTINUOUS
 10
33.6945
 20
26.4327
  0
VERTEX
  8
LAYER8
 62
     1
  6
CONTINUOUS
 10
33.6928
 20
26.4232
  0
VERTEX
  8
LAYER8
 62
     1
  6
CONTINUOUS
 10
33.6912
 20
26.4138
  0
VERTEX
  8
LAYER8
 62
     1
  6
CONTINUOUS
 10
33.6899
 20
26.4044
  0
VERTEX
  8
LAYER8
 62
     1
  6
CONTINUOUS
 10
33.6889
 20
26.3950
  0
VERTEX
  8
LAYER8
 62
     1
  6
CONTINUOUS
 10
33.6883
 20
26.3857
  0
VERTEX
  8
LAYER8
 62
     1
  6
CONTINUOUS
 10
33.6881
 20
26.3765
  0
VERTEX
  8
LAYER8
 62
     1
  6
CONTINUOUS
 10
33.6884
 20
26.3673
  0
VERTEX
  8
LAYER8
 62
     1
  6
CONTINUOUS
 10
33.6892
 20
26.3582
  0
VERTEX
  8
LAYER8
 62
     1
  6
CONTINUOUS
 10
33.6913
 20
26.3463
  0
VERTEX
  8
LAYER8
 62
     1
  6
CONTINUOUS
 10
33.6943
 20
26.3345
  0
VERTEX
  8
LAYER8
 62
     1
  6
CONTINUOUS
 10
33.6981
 20
26.3229
  0
VERTEX
  8
LAYER8
 62
     1
  6
CONTINUOUS
 10
33.7026
 20
26.3113
  0
VERTEX
  8
LAYER8
 62
     1
  6
CONTINUOUS
 10
33.7076
 20
26.2998
  0
VERTEX
  8
LAYER8
 62
     1
  6
CONTINUOUS
 10
33.7131
 20
26.2884
  0
VERTEX
  8
LAYER8
 62
     1
  6
CONTINUOUS
 10
33.7188
 20
26.2769
  0
VERTEX
  8
LAYER8
 62
     1
  6
CONTINUOUS
 10
33.7246
 20
26.2654
  0
VERTEX
  8
LAYER8
 62
     1
  6
CONTINUOUS
 10
33.7304
 20
26.2539
  0
VERTEX
  8
LAYER8
 62
     1
  6
CONTINUOUS
 10
33.7360
 20
26.2423
  0
VERTEX
  8
LAYER8
 62
     1
  6
CONTINUOUS
 10
33.7414
 20
26.2305
  0
VERTEX
  8
LAYER8
 62
     1
  6
CONTINUOUS
 10
33.7463
 20
26.2186
  0
VERTEX
  8
LAYER8
 62
     1
  6
CONTINUOUS
 10
33.7493
 20
26.2106
  0
VERTEX
  8
LAYER8
 62
     1
  6
CONTINUOUS
 10
33.7520
 20
26.2026
  0
VERTEX
  8
LAYER8
 62
     1
  6
CONTINUOUS
 10
33.7544
 20
26.1946
  0
VERTEX
  8
LAYER8
 62
     1
  6
CONTINUOUS
 10
33.7565
 20
26.1864
  0
VERTEX
  8
LAYER8
 62
     1
  6
CONTINUOUS
 10
33.7583
 20
26.1783
  0
VERTEX
  8
LAYER8
 62
     1
  6
CONTINUOUS
 10
33.7598
 20
26.1701
  0
VERTEX
  8
LAYER8
 62
     1
  6
CONTINUOUS
 10
33.7610
 20
26.1618
  0
VERTEX
  8
LAYER8
 62
     1
  6
CONTINUOUS
 10
33.7618
 20
26.1536
  0
VERTEX
  8
LAYER8
 62
     1
  6
CONTINUOUS
 10
33.7623
 20
26.1453
  0
VERTEX
  8
LAYER8
 62
     1
  6
CONTINUOUS
 10
33.7624
 20
26.1371
  0
VERTEX
  8
LAYER8
 62
     1
  6
CONTINUOUS
 10
33.7621
 20
26.1288
  0
VERTEX
  8
LAYER8
 62
     1
  6
CONTINUOUS
 10
33.7613
 20
26.1206
  0
VERTEX
  8
LAYER8
 62
     1
  6
CONTINUOUS
 10
33.7606
 20
26.1146
  0
VERTEX
  8
LAYER8
 62
     1
  6
CONTINUOUS
 10
33.7596
 20
26.1087
  0
VERTEX
  8
LAYER8
 62
     1
  6
CONTINUOUS
 10
33.7586
 20
26.1028
  0
VERTEX
  8
LAYER8
 62
     1
  6
CONTINUOUS
 10
33.7573
 20
26.0969
  0
VERTEX
  8
LAYER8
 62
     1
  6
CONTINUOUS
 10
33.7561
 20
26.0911
  0
VERTEX
  8
LAYER8
 62
     1
  6
CONTINUOUS
 10
33.7547
 20
26.0852
  0
VERTEX
  8
LAYER8
 62
     1
  6
CONTINUOUS
 10
33.7534
 20
26.0794
  0
VERTEX
  8
LAYER8
 62
     1
  6
CONTINUOUS
 10
33.7520
 20
26.0735
  0
VERTEX
  8
LAYER8
 62
     1
  6
CONTINUOUS
 10
33.7507
 20
26.0677
  0
VERTEX
  8
LAYER8
 62
     1
  6
CONTINUOUS
 10
33.7496
 20
26.0619
  0
VERTEX
  8
LAYER8
 62
     1
  6
CONTINUOUS
 10
33.7485
 20
26.0562
  0
VERTEX
  8
LAYER8
 62
     1
  6
CONTINUOUS
 10
33.7476
 20
26.0504
  0
VERTEX
  8
LAYER8
 62
     1
  6
CONTINUOUS
 10
33.7465
 20
26.0414
  0
VERTEX
  8
LAYER8
 62
     1
  6
CONTINUOUS
 10
33.7458
 20
26.0325
  0
VERTEX
  8
LAYER8
 62
     1
  6
CONTINUOUS
 10
33.7455
 20
26.0235
  0
VERTEX
  8
LAYER8
 62
     1
  6
CONTINUOUS
 10
33.7455
 20
26.0145
  0
VERTEX
  8
LAYER8
 62
     1
  6
CONTINUOUS
 10
33.7456
 20
26.0054
  0
VERTEX
  8
LAYER8
 62
     1
  6
CONTINUOUS
 10
33.7460
 20
25.9963
  0
VERTEX
  8
LAYER8
 62
     1
  6
CONTINUOUS
 10
33.7465
 20
25.9870
  0
VERTEX
  8
LAYER8
 62
     1
  6
CONTINUOUS
 10
33.7470
 20
25.9777
  0
VERTEX
  8
LAYER8
 62
     1
  6
CONTINUOUS
 10
33.7476
 20
25.9681
  0
VERTEX
  8
LAYER8
 62
     1
  6
CONTINUOUS
 10
33.7480
 20
25.9584
  0
VERTEX
  8
LAYER8
 62
     1
  6
CONTINUOUS
 10
33.7484
 20
25.9485
  0
VERTEX
  8
LAYER8
 62
     1
  6
CONTINUOUS
 10
33.7485
 20
25.9383
  0
VERTEX
  8
LAYER8
 62
     1
  6
CONTINUOUS
 10
33.7485
 20
25.9291
  0
VERTEX
  8
LAYER8
 62
     1
  6
CONTINUOUS
 10
33.7484
 20
25.9198
  0
VERTEX
  8
LAYER8
 62
     1
  6
CONTINUOUS
 10
33.7483
 20
25.9105
  0
VERTEX
  8
LAYER8
 62
     1
  6
CONTINUOUS
 10
33.7483
 20
25.9013
  0
VERTEX
  8
LAYER8
 62
     1
  6
CONTINUOUS
 10
33.7485
 20
25.8922
  0
VERTEX
  8
LAYER8
 62
     1
  6
CONTINUOUS
 10
33.7490
 20
25.8833
  0
VERTEX
  8
LAYER8
 62
     1
  6
CONTINUOUS
 10
33.7498
 20
25.8748
  0
VERTEX
  8
LAYER8
 62
     1
  6
CONTINUOUS
 10
33.7512
 20
25.8667
  0
VERTEX
  8
LAYER8
 62
     1
  6
CONTINUOUS
 10
33.7531
 20
25.8591
  0
VERTEX
  8
LAYER8
 62
     1
  6
CONTINUOUS
 10
33.7558
 20
25.8521
  0
VERTEX
  8
LAYER8
 62
     1
  6
CONTINUOUS
 10
33.7592
 20
25.8458
  0
VERTEX
  8
LAYER8
 62
     1
  6
CONTINUOUS
 10
33.7634
 20
25.8403
  0
VERTEX
  8
LAYER8
 62
     1
  6
CONTINUOUS
 10
33.7680
 20
25.8361
  0
VERTEX
  8
LAYER8
 62
     1
  6
CONTINUOUS
 10
33.7733
 20
25.8325
  0
VERTEX
  8
LAYER8
 62
     1
  6
CONTINUOUS
 10
33.7793
 20
25.8295
  0
VERTEX
  8
LAYER8
 62
     1
  6
CONTINUOUS
 10
33.7857
 20
25.8269
  0
VERTEX
  8
LAYER8
 62
     1
  6
CONTINUOUS
 10
33.7927
 20
25.8247
  0
VERTEX
  8
LAYER8
 62
     1
  6
CONTINUOUS
 10
33.8000
 20
25.8228
  0
VERTEX
  8
LAYER8
 62
     1
  6
CONTINUOUS
 10
33.8076
 20
25.8211
  0
VERTEX
  8
LAYER8
 62
     1
  6
CONTINUOUS
 10
33.8155
 20
25.8195
  0
VERTEX
  8
LAYER8
 62
     1
  6
CONTINUOUS
 10
33.8235
 20
25.8180
  0
VERTEX
  8
LAYER8
 62
     1
  6
CONTINUOUS
 10
33.8316
 20
25.8164
  0
VERTEX
  8
LAYER8
 62
     1
  6
CONTINUOUS
 10
33.8397
 20
25.8148
  0
VERTEX
  8
LAYER8
 62
     1
  6
CONTINUOUS
 10
33.8478
 20
25.8129
  0
VERTEX
  8
LAYER8
 62
     1
  6
CONTINUOUS
 10
33.8580
 20
25.8102
  0
VERTEX
  8
LAYER8
 62
     1
  6
CONTINUOUS
 10
33.8680
 20
25.8071
  0
VERTEX
  8
LAYER8
 62
     1
  6
CONTINUOUS
 10
33.8778
 20
25.8038
  0
VERTEX
  8
LAYER8
 62
     1
  6
CONTINUOUS
 10
33.8875
 20
25.8005
  0
VERTEX
  8
LAYER8
 62
     1
  6
CONTINUOUS
 10
33.8969
 20
25.7971
  0
VERTEX
  8
LAYER8
 62
     1
  6
CONTINUOUS
 10
33.9062
 20
25.7940
  0
VERTEX
  8
LAYER8
 62
     1
  6
CONTINUOUS
 10
33.9154
 20
25.7912
  0
VERTEX
  8
LAYER8
 62
     1
  6
CONTINUOUS
 10
33.9244
 20
25.7888
  0
VERTEX
  8
LAYER8
 62
     1
  6
CONTINUOUS
 10
33.9334
 20
25.7869
  0
VERTEX
  8
LAYER8
 62
     1
  6
CONTINUOUS
 10
33.9423
 20
25.7857
  0
VERTEX
  8
LAYER8
 62
     1
  6
CONTINUOUS
 10
33.9511
 20
25.7853
  0
VERTEX
  8
LAYER8
 62
     1
  6
CONTINUOUS
 10
33.9600
 20
25.7859
  0
VERTEX
  8
LAYER8
 62
     1
  6
CONTINUOUS
 10
33.9657
 20
25.7868
  0
VERTEX
  8
LAYER8
 62
     1
  6
CONTINUOUS
 10
33.9715
 20
25.7881
  0
VERTEX
  8
LAYER8
 62
     1
  6
CONTINUOUS
 10
33.9773
 20
25.7898
  0
VERTEX
  8
LAYER8
 62
     1
  6
CONTINUOUS
 10
33.9831
 20
25.7918
  0
VERTEX
  8
LAYER8
 62
     1
  6
CONTINUOUS
 10
33.9889
 20
25.7941
  0
VERTEX
  8
LAYER8
 62
     1
  6
CONTINUOUS
 10
33.9947
 20
25.7966
  0
VERTEX
  8
LAYER8
 62
     1
  6
CONTINUOUS
 10
34.0005
 20
25.7993
  0
VERTEX
  8
LAYER8
 62
     1
  6
CONTINUOUS
 10
34.0063
 20
25.8022
  0
VERTEX
  8
LAYER8
 62
     1
  6
CONTINUOUS
 10
34.0121
 20
25.8052
  0
VERTEX
  8
LAYER8
 62
     1
  6
CONTINUOUS
 10
34.0180
 20
25.8083
  0
VERTEX
  8
LAYER8
 62
     1
  6
CONTINUOUS
 10
34.0239
 20
25.8114
  0
VERTEX
  8
LAYER8
 62
     1
  6
CONTINUOUS
 10
34.0298
 20
25.8145
  0
VERTEX
  8
LAYER8
 62
     1
  6
CONTINUOUS
 10
34.0377
 20
25.8186
  0
VERTEX
  8
LAYER8
 62
     1
  6
CONTINUOUS
 10
34.0457
 20
25.8226
  0
VERTEX
  8
LAYER8
 62
     1
  6
CONTINUOUS
 10
34.0536
 20
25.8267
  0
VERTEX
  8
LAYER8
 62
     1
  6
CONTINUOUS
 10
34.0613
 20
25.8308
  0
VERTEX
  8
LAYER8
 62
     1
  6
CONTINUOUS
 10
34.0689
 20
25.8350
  0
VERTEX
  8
LAYER8
 62
     1
  6
CONTINUOUS
 10
34.0764
 20
25.8393
  0
VERTEX
  8
LAYER8
 62
     1
  6
CONTINUOUS
 10
34.0835
 20
25.8439
  0
VERTEX
  8
LAYER8
 62
     1
  6
CONTINUOUS
 10
34.0903
 20
25.8487
  0
VERTEX
  8
LAYER8
 62
     1
  6
CONTINUOUS
 10
34.0968
 20
25.8537
  0
VERTEX
  8
LAYER8
 62
     1
  6
CONTINUOUS
 10
34.1029
 20
25.8591
  0
VERTEX
  8
LAYER8
 62
     1
  6
CONTINUOUS
 10
34.1085
 20
25.8649
  0
VERTEX
  8
LAYER8
 62
     1
  6
CONTINUOUS
 10
34.1135
 20
25.8711
  0
VERTEX
  8
LAYER8
 62
     1
  6
CONTINUOUS
 10
34.1170
 20
25.8761
  0
VERTEX
  8
LAYER8
 62
     1
  6
CONTINUOUS
 10
34.1201
 20
25.8813
  0
VERTEX
  8
LAYER8
 62
     1
  6
CONTINUOUS
 10
34.1230
 20
25.8867
  0
VERTEX
  8
LAYER8
 62
     1
  6
CONTINUOUS
 10
34.1256
 20
25.8923
  0
VERTEX
  8
LAYER8
 62
     1
  6
CONTINUOUS
 10
34.1280
 20
25.8981
  0
VERTEX
  8
LAYER8
 62
     1
  6
CONTINUOUS
 10
34.1303
 20
25.9040
  0
VERTEX
  8
LAYER8
 62
     1
  6
CONTINUOUS
 10
34.1323
 20
25.9101
  0
VERTEX
  8
LAYER8
 62
     1
  6
CONTINUOUS
 10
34.1343
 20
25.9163
  0
VERTEX
  8
LAYER8
 62
     1
  6
CONTINUOUS
 10
34.1361
 20
25.9225
  0
VERTEX
  8
LAYER8
 62
     1
  6
CONTINUOUS
 10
34.1378
 20
25.9288
  0
VERTEX
  8
LAYER8
 62
     1
  6
CONTINUOUS
 10
34.1395
 20
25.9351
  0
VERTEX
  8
LAYER8
 62
     1
  6
CONTINUOUS
 10
34.1411
 20
25.9415
  0
VERTEX
  8
LAYER8
 62
     1
  6
CONTINUOUS
 10
34.1432
 20
25.9498
  0
VERTEX
  8
LAYER8
 62
     1
  6
CONTINUOUS
 10
34.1453
 20
25.9580
  0
VERTEX
  8
LAYER8
 62
     1
  6
CONTINUOUS
 10
34.1473
 20
25.9663
  0
VERTEX
  8
LAYER8
 62
     1
  6
CONTINUOUS
 10
34.1491
 20
25.9745
  0
VERTEX
  8
LAYER8
 62
     1
  6
CONTINUOUS
 10
34.1508
 20
25.9827
  0
VERTEX
  8
LAYER8
 62
     1
  6
CONTINUOUS
 10
34.1522
 20
25.9909
  0
VERTEX
  8
LAYER8
 62
     1
  6
CONTINUOUS
 10
34.1534
 20
25.9991
  0
VERTEX
  8
LAYER8
 62
     1
  6
CONTINUOUS
 10
34.1544
 20
26.0072
  0
VERTEX
  8
LAYER8
 62
     1
  6
CONTINUOUS
 10
34.1549
 20
26.0153
  0
VERTEX
  8
LAYER8
 62
     1
  6
CONTINUOUS
 10
34.1551
 20
26.0234
  0
VERTEX
  8
LAYER8
 62
     1
  6
CONTINUOUS
 10
34.1549
 20
26.0315
  0
VERTEX
  8
LAYER8
 62
     1
  6
CONTINUOUS
 10
34.1543
 20
26.0396
  0
VERTEX
  8
LAYER8
 62
     1
  6
CONTINUOUS
 10
34.1535
 20
26.0455
  0
VERTEX
  8
LAYER8
 62
     1
  6
CONTINUOUS
 10
34.1526
 20
26.0513
  0
VERTEX
  8
LAYER8
 62
     1
  6
CONTINUOUS
 10
34.1514
 20
26.0571
  0
VERTEX
  8
LAYER8
 62
     1
  6
CONTINUOUS
 10
34.1501
 20
26.0629
  0
VERTEX
  8
LAYER8
 62
     1
  6
CONTINUOUS
 10
34.1487
 20
26.0688
  0
VERTEX
  8
LAYER8
 62
     1
  6
CONTINUOUS
 10
34.1473
 20
26.0746
  0
VERTEX
  8
LAYER8
 62
     1
  6
CONTINUOUS
 10
34.1458
 20
26.0804
  0
VERTEX
  8
LAYER8
 62
     1
  6
CONTINUOUS
 10
34.1444
 20
26.0862
  0
VERTEX
  8
LAYER8
 62
     1
  6
CONTINUOUS
 10
34.1430
 20
26.0921
  0
VERTEX
  8
LAYER8
 62
     1
  6
CONTINUOUS
 10
34.1417
 20
26.0979
  0
VERTEX
  8
LAYER8
 62
     1
  6
CONTINUOUS
 10
34.1406
 20
26.1038
  0
VERTEX
  8
LAYER8
 62
     1
  6
CONTINUOUS
 10
34.1396
 20
26.1096
  0
VERTEX
  8
LAYER8
 62
     1
  6
CONTINUOUS
 10
34.1385
 20
26.1201
  0
VERTEX
  8
LAYER8
 62
     1
  6
CONTINUOUS
 10
34.1379
 20
26.1305
  0
VERTEX
  8
LAYER8
 62
     1
  6
CONTINUOUS
 10
34.1379
 20
26.1410
  0
VERTEX
  8
LAYER8
 62
     1
  6
CONTINUOUS
 10
34.1384
 20
26.1515
  0
VERTEX
  8
LAYER8
 62
     1
  6
CONTINUOUS
 10
34.1394
 20
26.1621
  0
VERTEX
  8
LAYER8
 62
     1
  6
CONTINUOUS
 10
34.1407
 20
26.1726
  0
VERTEX
  8
LAYER8
 62
     1
  6
CONTINUOUS
 10
34.1423
 20
26.1832
  0
VERTEX
  8
LAYER8
 62
     1
  6
CONTINUOUS
 10
34.1441
 20
26.1937
  0
VERTEX
  8
LAYER8
 62
     1
  6
CONTINUOUS
 10
34.1461
 20
26.2043
  0
VERTEX
  8
LAYER8
 62
     1
  6
CONTINUOUS
 10
34.1483
 20
26.2148
  0
VERTEX
  8
LAYER8
 62
     1
  6
CONTINUOUS
 10
34.1504
 20
26.2254
  0
VERTEX
  8
LAYER8
 62
     1
  6
CONTINUOUS
 10
34.1526
 20
26.2359
  0
VERTEX
  8
LAYER8
 62
     1
  6
CONTINUOUS
 10
34.1542
 20
26.2441
  0
VERTEX
  8
LAYER8
 62
     1
  6
CONTINUOUS
 10
34.1558
 20
26.2523
  0
VERTEX
  8
LAYER8
 62
     1
  6
CONTINUOUS
 10
34.1573
 20
26.2605
  0
VERTEX
  8
LAYER8
 62
     1
  6
CONTINUOUS
 10
34.1587
 20
26.2686
  0
VERTEX
  8
LAYER8
 62
     1
  6
CONTINUOUS
 10
34.1600
 20
26.2768
  0
VERTEX
  8
LAYER8
 62
     1
  6
CONTINUOUS
 10
34.1613
 20
26.2850
  0
VERTEX
  8
LAYER8
 62
     1
  6
CONTINUOUS
 10
34.1624
 20
26.2931
  0
VERTEX
  8
LAYER8
 62
     1
  6
CONTINUOUS
 10
34.1634
 20
26.3013
  0
VERTEX
  8
LAYER8
 62
     1
  6
CONTINUOUS
 10
34.1642
 20
26.3095
  0
VERTEX
  8
LAYER8
 62
     1
  6
CONTINUOUS
 10
34.1650
 20
26.3177
  0
VERTEX
  8
LAYER8
 62
     1
  6
CONTINUOUS
 10
34.1656
 20
26.3259
  0
VERTEX
  8
LAYER8
 62
     1
  6
CONTINUOUS
 10
34.1660
 20
26.3341
  0
VERTEX
  8
LAYER8
 62
     1
  6
CONTINUOUS
 10
34.1664
 20
26.3469
  0
VERTEX
  8
LAYER8
 62
     1
  6
CONTINUOUS
 10
34.1664
 20
26.3597
  0
VERTEX
  8
LAYER8
 62
     1
  6
CONTINUOUS
 10
34.1662
 20
26.3725
  0
VERTEX
  8
LAYER8
 62
     1
  6
CONTINUOUS
 10
34.1658
 20
26.3854
  0
VERTEX
  8
LAYER8
 62
     1
  6
CONTINUOUS
 10
34.1653
 20
26.3983
  0
VERTEX
  8
LAYER8
 62
     1
  6
CONTINUOUS
 10
34.1647
 20
26.4112
  0
VERTEX
  8
LAYER8
 62
     1
  6
CONTINUOUS
 10
34.1642
 20
26.4240
  0
VERTEX
  8
LAYER8
 62
     1
  6
CONTINUOUS
 10
34.1638
 20
26.4369
  0
VERTEX
  8
LAYER8
 62
     1
  6
CONTINUOUS
 10
34.1635
 20
26.4498
  0
VERTEX
  8
LAYER8
 62
     1
  6
CONTINUOUS
 10
34.1635
 20
26.4626
  0
VERTEX
  8
LAYER8
 62
     1
  6
CONTINUOUS
 10
34.1638
 20
26.4754
  0
VERTEX
  8
LAYER8
 62
     1
  6
CONTINUOUS
 10
34.1646
 20
26.4882
  0
VERTEX
  8
LAYER8
 62
     1
  6
CONTINUOUS
 10
34.1652
 20
26.4964
  0
VERTEX
  8
LAYER8
 62
     1
  6
CONTINUOUS
 10
34.1661
 20
26.5046
  0
VERTEX
  8
LAYER8
 62
     1
  6
CONTINUOUS
 10
34.1671
 20
26.5128
  0
VERTEX
  8
LAYER8
 62
     1
  6
CONTINUOUS
 10
34.1682
 20
26.5210
  0
VERTEX
  8
LAYER8
 62
     1
  6
CONTINUOUS
 10
34.1694
 20
26.5291
  0
VERTEX
  8
LAYER8
 62
     1
  6
CONTINUOUS
 10
34.1706
 20
26.5373
  0
VERTEX
  8
LAYER8
 62
     1
  6
CONTINUOUS
 10
34.1719
 20
26.5455
  0
VERTEX
  8
LAYER8
 62
     1
  6
CONTINUOUS
 10
34.1731
 20
26.5537
  0
VERTEX
  8
LAYER8
 62
     1
  6
CONTINUOUS
 10
34.1744
 20
26.5619
  0
VERTEX
  8
LAYER8
 62
     1
  6
CONTINUOUS
 10
34.1756
 20
26.5700
  0
VERTEX
  8
LAYER8
 62
     1
  6
CONTINUOUS
 10
34.1767
 20
26.5783
  0
VERTEX
  8
LAYER8
 62
     1
  6
CONTINUOUS
 10
34.1777
 20
26.5865
  0
VERTEX
  8
LAYER8
 62
     1
  6
CONTINUOUS
 10
34.1789
 20
26.5970
  0
VERTEX
  8
LAYER8
 62
     1
  6
CONTINUOUS
 10
34.1798
 20
26.6076
  0
VERTEX
  8
LAYER8
 62
     1
  6
CONTINUOUS
 10
34.1807
 20
26.6182
  0
VERTEX
  8
LAYER8
 62
     1
  6
CONTINUOUS
 10
34.1814
 20
26.6287
  0
VERTEX
  8
LAYER8
 62
     1
  6
CONTINUOUS
 10
34.1822
 20
26.6393
  0
VERTEX
  8
LAYER8
 62
     1
  6
CONTINUOUS
 10
34.1830
 20
26.6499
  0
VERTEX
  8
LAYER8
 62
     1
  6
CONTINUOUS
 10
34.1839
 20
26.6604
  0
VERTEX
  8
LAYER8
 62
     1
  6
CONTINUOUS
 10
34.1848
 20
26.6710
  0
VERTEX
  8
LAYER8
 62
     1
  6
CONTINUOUS
 10
34.1860
 20
26.6814
  0
VERTEX
  8
LAYER8
 62
     1
  6
CONTINUOUS
 10
34.1874
 20
26.6919
  0
VERTEX
  8
LAYER8
 62
     1
  6
CONTINUOUS
 10
34.1891
 20
26.7023
  0
VERTEX
  8
LAYER8
 62
     1
  6
CONTINUOUS
 10
34.1910
 20
26.7126
  0
VERTEX
  8
LAYER8
 62
     1
  6
CONTINUOUS
 10
34.1929
 20
26.7209
  0
VERTEX
  8
LAYER8
 62
     1
  6
CONTINUOUS
 10
34.1949
 20
26.7291
  0
VERTEX
  8
LAYER8
 62
     1
  6
CONTINUOUS
 10
34.1972
 20
26.7373
  0
VERTEX
  8
LAYER8
 62
     1
  6
CONTINUOUS
 10
34.1995
 20
26.7455
  0
VERTEX
  8
LAYER8
 62
     1
  6
CONTINUOUS
 10
34.2019
 20
26.7537
  0
VERTEX
  8
LAYER8
 62
     1
  6
CONTINUOUS
 10
34.2044
 20
26.7618
  0
VERTEX
  8
LAYER8
 62
     1
  6
CONTINUOUS
 10
34.2069
 20
26.7700
  0
VERTEX
  8
LAYER8
 62
     1
  6
CONTINUOUS
 10
34.2094
 20
26.7782
  0
VERTEX
  8
LAYER8
 62
     1
  6
CONTINUOUS
 10
34.2118
 20
26.7863
  0
VERTEX
  8
LAYER8
 62
     1
  6
CONTINUOUS
 10
34.2141
 20
26.7945
  0
VERTEX
  8
LAYER8
 62
     1
  6
CONTINUOUS
 10
34.2163
 20
26.8027
  0
VERTEX
  8
LAYER8
 62
     1
  6
CONTINUOUS
 10
34.2183
 20
26.8110
  0
VERTEX
  8
LAYER8
 62
     1
  6
CONTINUOUS
 10
34.2198
 20
26.8179
  0
VERTEX
  8
LAYER8
 62
     1
  6
CONTINUOUS
 10
34.2212
 20
26.8249
  0
VERTEX
  8
LAYER8
 62
     1
  6
CONTINUOUS
 10
34.2224
 20
26.8318
  0
VERTEX
  8
LAYER8
 62
     1
  6
CONTINUOUS
 10
34.2236
 20
26.8388
  0
VERTEX
  8
LAYER8
 62
     1
  6
CONTINUOUS
 10
34.2247
 20
26.8458
  0
VERTEX
  8
LAYER8
 62
     1
  6
CONTINUOUS
 10
34.2257
 20
26.8528
  0
VERTEX
  8
LAYER8
 62
     1
  6
CONTINUOUS
 10
34.2267
 20
26.8599
  0
VERTEX
  8
LAYER8
 62
     1
  6
CONTINUOUS
 10
34.2277
 20
26.8669
  0
VERTEX
  8
LAYER8
 62
     1
  6
CONTINUOUS
 10
34.2286
 20
26.8740
  0
VERTEX
  8
LAYER8
 62
     1
  6
CONTINUOUS
 10
34.2296
 20
26.8810
  0
VERTEX
  8
LAYER8
 62
     1
  6
CONTINUOUS
 10
34.2305
 20
26.8881
  0
VERTEX
  8
LAYER8
 62
     1
  6
CONTINUOUS
 10
34.2316
 20
26.8952
  0
VERTEX
  8
LAYER8
 62
     1
  6
CONTINUOUS
 10
34.2330
 20
26.9045
  0
VERTEX
  8
LAYER8
 62
     1
  6
CONTINUOUS
 10
34.2345
 20
26.9139
  0
VERTEX
  8
LAYER8
 62
     1
  6
CONTINUOUS
 10
34.2360
 20
26.9233
  0
VERTEX
  8
LAYER8
 62
     1
  6
CONTINUOUS
 10
34.2375
 20
26.9326
  0
VERTEX
  8
LAYER8
 62
     1
  6
CONTINUOUS
 10
34.2389
 20
26.9420
  0
VERTEX
  8
LAYER8
 62
     1
  6
CONTINUOUS
 10
34.2403
 20
26.9513
  0
VERTEX
  8
LAYER8
 62
     1
  6
CONTINUOUS
 10
34.2416
 20
26.9607
  0
VERTEX
  8
LAYER8
 62
     1
  6
CONTINUOUS
 10
34.2426
 20
26.9700
  0
VERTEX
  8
LAYER8
 62
     1
  6
CONTINUOUS
 10
34.2435
 20
26.9794
  0
VERTEX
  8
LAYER8
 62
     1
  6
CONTINUOUS
 10
34.2442
 20
26.9887
  0
VERTEX
  8
LAYER8
 62
     1
  6
CONTINUOUS
 10
34.2446
 20
26.9981
  0
VERTEX
  8
LAYER8
 62
     1
  6
CONTINUOUS
 10
34.2446
 20
27.0074
  0
VERTEX
  8
LAYER8
 62
     1
  6
CONTINUOUS
 10
34.2444
 20
27.0146
  0
VERTEX
  8
LAYER8
 62
     1
  6
CONTINUOUS
 10
34.2440
 20
27.0218
  0
VERTEX
  8
LAYER8
 62
     1
  6
CONTINUOUS
 10
34.2434
 20
27.0289
  0
VERTEX
  8
LAYER8
 62
     1
  6
CONTINUOUS
 10
34.2424
 20
27.0361
  0
VERTEX
  8
LAYER8
 62
     1
  6
CONTINUOUS
 10
34.2412
 20
27.0432
  0
VERTEX
  8
LAYER8
 62
     1
  6
CONTINUOUS
 10
34.2396
 20
27.0502
  0
VERTEX
  8
LAYER8
 62
     1
  6
CONTINUOUS
 10
34.2376
 20
27.0572
  0
VERTEX
  8
LAYER8
 62
     1
  6
CONTINUOUS
 10
34.2353
 20
27.0642
  0
VERTEX
  8
LAYER8
 62
     1
  6
CONTINUOUS
 10
34.2325
 20
27.0711
  0
VERTEX
  8
LAYER8
 62
     1
  6
CONTINUOUS
 10
34.2293
 20
27.0778
  0
VERTEX
  8
LAYER8
 62
     1
  6
CONTINUOUS
 10
34.2256
 20
27.0846
  0
VERTEX
  8
LAYER8
 62
     1
  6
CONTINUOUS
 10
34.2215
 20
27.0912
  0
VERTEX
  8
LAYER8
 62
     1
  6
CONTINUOUS
 10
34.2192
 20
27.0944
  0
VERTEX
  8
LAYER8
 62
     1
  6
CONTINUOUS
 10
34.2169
 20
27.0976
  0
VERTEX
  8
LAYER8
 62
     1
  6
CONTINUOUS
 10
34.2146
 20
27.1007
  0
VERTEX
  8
LAYER8
 62
     1
  6
CONTINUOUS
 10
34.2123
 20
27.1039
  0
VERTEX
  8
LAYER8
 62
     1
  6
CONTINUOUS
 10
34.2101
 20
27.1070
  0
VERTEX
  8
LAYER8
 62
     1
  6
CONTINUOUS
 10
34.2080
 20
27.1101
  0
VERTEX
  8
LAYER8
 62
     1
  6
CONTINUOUS
 10
34.2060
 20
27.1132
  0
VERTEX
  8
LAYER8
 62
     1
  6
CONTINUOUS
 10
34.2043
 20
27.1162
  0
VERTEX
  8
LAYER8
 62
     1
  6
CONTINUOUS
 10
34.2028
 20
27.1193
  0
VERTEX
  8
LAYER8
 62
     1
  6
CONTINUOUS
 10
34.2017
 20
27.1223
  0
VERTEX
  8
LAYER8
 62
     1
  6
CONTINUOUS
 10
34.2009
 20
27.1253
  0
VERTEX
  8
LAYER8
 62
     1
  6
CONTINUOUS
 10
34.2006
 20
27.1283
  0
VERTEX
  8
LAYER8
 62
     1
  6
CONTINUOUS
 10
34.2008
 20
27.1325
  0
VERTEX
  8
LAYER8
 62
     1
  6
CONTINUOUS
 10
34.2018
 20
27.1367
  0
VERTEX
  8
LAYER8
 62
     1
  6
CONTINUOUS
 10
34.2036
 20
27.1409
  0
VERTEX
  8
LAYER8
 62
     1
  6
CONTINUOUS
 10
34.2058
 20
27.1450
  0
VERTEX
  8
LAYER8
 62
     1
  6
CONTINUOUS
 10
34.2086
 20
27.1492
  0
VERTEX
  8
LAYER8
 62
     1
  6
CONTINUOUS
 10
34.2117
 20
27.1534
  0
VERTEX
  8
LAYER8
 62
     1
  6
CONTINUOUS
 10
34.2150
 20
27.1576
  0
VERTEX
  8
LAYER8
 62
     1
  6
CONTINUOUS
 10
34.2184
 20
27.1619
  0
VERTEX
  8
LAYER8
 62
     1
  6
CONTINUOUS
 10
34.2219
 20
27.1662
  0
VERTEX
  8
LAYER8
 62
     1
  6
CONTINUOUS
 10
34.2253
 20
27.1705
  0
SEQEND
  8
LAYER8
  0
POLYLINE
  8
LAYER8
 62
     1
 66
     1
  6
CONTINUOUS
  0
VERTEX
  8
LAYER8
 62
     1
  6
CONTINUOUS
 10
34.2253
 20
27.1705
  0
VERTEX
  8
LAYER8
 62
     1
  6
CONTINUOUS
 10
34.2284
 20
27.1749
  0
VERTEX
  8
LAYER8
 62
     1
  6
CONTINUOUS
 10
34.2312
 20
27.1794
  0
VERTEX
  8
LAYER8
 62
     1
  6
CONTINUOUS
 10
34.2339
 20
27.1846
  0
VERTEX
  8
LAYER8
 62
     1
  6
CONTINUOUS
 10
34.2360
 20
27.1898
  0
VERTEX
  8
LAYER8
 62
     1
  6
CONTINUOUS
 10
34.2378
 20
27.1952
  0
VERTEX
  8
LAYER8
 62
     1
  6
CONTINUOUS
 10
34.2391
 20
27.2006
  0
VERTEX
  8
LAYER8
 62
     1
  6
CONTINUOUS
 10
34.2401
 20
27.2061
  0
VERTEX
  8
LAYER8
 62
     1
  6
CONTINUOUS
 10
34.2408
 20
27.2116
  0
VERTEX
  8
LAYER8
 62
     1
  6
CONTINUOUS
 10
34.2414
 20
27.2172
  0
VERTEX
  8
LAYER8
 62
     1
  6
CONTINUOUS
 10
34.2417
 20
27.2229
  0
VERTEX
  8
LAYER8
 62
     1
  6
CONTINUOUS
 10
34.2420
 20
27.2285
  0
VERTEX
  8
LAYER8
 62
     1
  6
CONTINUOUS
 10
34.2422
 20
27.2343
  0
VERTEX
  8
LAYER8
 62
     1
  6
CONTINUOUS
 10
34.2424
 20
27.2400
  0
VERTEX
  8
LAYER8
 62
     1
  6
CONTINUOUS
 10
34.2427
 20
27.2458
  0
VERTEX
  8
LAYER8
 62
     1
  6
CONTINUOUS
 10
34.2431
 20
27.2518
  0
VERTEX
  8
LAYER8
 62
     1
  6
CONTINUOUS
 10
34.2436
 20
27.2578
  0
VERTEX
  8
LAYER8
 62
     1
  6
CONTINUOUS
 10
34.2441
 20
27.2638
  0
VERTEX
  8
LAYER8
 62
     1
  6
CONTINUOUS
 10
34.2447
 20
27.2698
  0
VERTEX
  8
LAYER8
 62
     1
  6
CONTINUOUS
 10
34.2451
 20
27.2757
  0
VERTEX
  8
LAYER8
 62
     1
  6
CONTINUOUS
 10
34.2455
 20
27.2816
  0
VERTEX
  8
LAYER8
 62
     1
  6
CONTINUOUS
 10
34.2457
 20
27.2875
  0
VERTEX
  8
LAYER8
 62
     1
  6
CONTINUOUS
 10
34.2456
 20
27.2933
  0
VERTEX
  8
LAYER8
 62
     1
  6
CONTINUOUS
 10
34.2453
 20
27.2991
  0
VERTEX
  8
LAYER8
 62
     1
  6
CONTINUOUS
 10
34.2446
 20
27.3047
  0
VERTEX
  8
LAYER8
 62
     1
  6
CONTINUOUS
 10
34.2436
 20
27.3103
  0
VERTEX
  8
LAYER8
 62
     1
  6
CONTINUOUS
 10
34.2422
 20
27.3158
  0
VERTEX
  8
LAYER8
 62
     1
  6
CONTINUOUS
 10
34.2405
 20
27.3206
  0
VERTEX
  8
LAYER8
 62
     1
  6
CONTINUOUS
 10
34.2385
 20
27.3254
  0
VERTEX
  8
LAYER8
 62
     1
  6
CONTINUOUS
 10
34.2362
 20
27.3301
  0
VERTEX
  8
LAYER8
 62
     1
  6
CONTINUOUS
 10
34.2338
 20
27.3347
  0
VERTEX
  8
LAYER8
 62
     1
  6
CONTINUOUS
 10
34.2311
 20
27.3393
  0
VERTEX
  8
LAYER8
 62
     1
  6
CONTINUOUS
 10
34.2284
 20
27.3439
  0
VERTEX
  8
LAYER8
 62
     1
  6
CONTINUOUS
 10
34.2257
 20
27.3485
  0
VERTEX
  8
LAYER8
 62
     1
  6
CONTINUOUS
 10
34.2230
 20
27.3530
  0
VERTEX
  8
LAYER8
 62
     1
  6
CONTINUOUS
 10
34.2204
 20
27.3576
  0
VERTEX
  8
LAYER8
 62
     1
  6
CONTINUOUS
 10
34.2179
 20
27.3622
  0
VERTEX
  8
LAYER8
 62
     1
  6
CONTINUOUS
 10
34.2156
 20
27.3669
  0
VERTEX
  8
LAYER8
 62
     1
  6
CONTINUOUS
 10
34.2136
 20
27.3716
  0
VERTEX
  8
LAYER8
 62
     1
  6
CONTINUOUS
 10
34.2105
 20
27.3813
  0
VERTEX
  8
LAYER8
 62
     1
  6
CONTINUOUS
 10
34.2086
 20
27.3913
  0
VERTEX
  8
LAYER8
 62
     1
  6
CONTINUOUS
 10
34.2077
 20
27.4014
  0
VERTEX
  8
LAYER8
 62
     1
  6
CONTINUOUS
 10
34.2078
 20
27.4117
  0
VERTEX
  8
LAYER8
 62
     1
  6
CONTINUOUS
 10
34.2087
 20
27.4222
  0
VERTEX
  8
LAYER8
 62
     1
  6
CONTINUOUS
 10
34.2103
 20
27.4329
  0
VERTEX
  8
LAYER8
 62
     1
  6
CONTINUOUS
 10
34.2124
 20
27.4436
  0
VERTEX
  8
LAYER8
 62
     1
  6
CONTINUOUS
 10
34.2149
 20
27.4544
  0
VERTEX
  8
LAYER8
 62
     1
  6
CONTINUOUS
 10
34.2177
 20
27.4652
  0
VERTEX
  8
LAYER8
 62
     1
  6
CONTINUOUS
 10
34.2207
 20
27.4761
  0
VERTEX
  8
LAYER8
 62
     1
  6
CONTINUOUS
 10
34.2237
 20
27.4870
  0
VERTEX
  8
LAYER8
 62
     1
  6
CONTINUOUS
 10
34.2266
 20
27.4978
  0
VERTEX
  8
LAYER8
 62
     1
  6
CONTINUOUS
 10
34.2301
 20
27.5122
  0
VERTEX
  8
LAYER8
 62
     1
  6
CONTINUOUS
 10
34.2332
 20
27.5264
  0
VERTEX
  8
LAYER8
 62
     1
  6
CONTINUOUS
 10
34.2358
 20
27.5406
  0
VERTEX
  8
LAYER8
 62
     1
  6
CONTINUOUS
 10
34.2380
 20
27.5547
  0
VERTEX
  8
LAYER8
 62
     1
  6
CONTINUOUS
 10
34.2398
 20
27.5687
  0
VERTEX
  8
LAYER8
 62
     1
  6
CONTINUOUS
 10
34.2412
 20
27.5827
  0
VERTEX
  8
LAYER8
 62
     1
  6
CONTINUOUS
 10
34.2421
 20
27.5967
  0
VERTEX
  8
LAYER8
 62
     1
  6
CONTINUOUS
 10
34.2425
 20
27.6106
  0
VERTEX
  8
LAYER8
 62
     1
  6
CONTINUOUS
 10
34.2424
 20
27.6245
  0
VERTEX
  8
LAYER8
 62
     1
  6
CONTINUOUS
 10
34.2419
 20
27.6383
  0
VERTEX
  8
LAYER8
 62
     1
  6
CONTINUOUS
 10
34.2409
 20
27.6522
  0
VERTEX
  8
LAYER8
 62
     1
  6
CONTINUOUS
 10
34.2394
 20
27.6660
  0
VERTEX
  8
LAYER8
 62
     1
  6
CONTINUOUS
 10
34.2383
 20
27.6742
  0
VERTEX
  8
LAYER8
 62
     1
  6
CONTINUOUS
 10
34.2370
 20
27.6824
  0
VERTEX
  8
LAYER8
 62
     1
  6
CONTINUOUS
 10
34.2357
 20
27.6905
  0
VERTEX
  8
LAYER8
 62
     1
  6
CONTINUOUS
 10
34.2342
 20
27.6987
  0
VERTEX
  8
LAYER8
 62
     1
  6
CONTINUOUS
 10
34.2328
 20
27.7068
  0
VERTEX
  8
LAYER8
 62
     1
  6
CONTINUOUS
 10
34.2313
 20
27.7150
  0
VERTEX
  8
LAYER8
 62
     1
  6
CONTINUOUS
 10
34.2299
 20
27.7232
  0
VERTEX
  8
LAYER8
 62
     1
  6
CONTINUOUS
 10
34.2286
 20
27.7314
  0
VERTEX
  8
LAYER8
 62
     1
  6
CONTINUOUS
 10
34.2273
 20
27.7395
  0
VERTEX
  8
LAYER8
 62
     1
  6
CONTINUOUS
 10
34.2262
 20
27.7477
  0
VERTEX
  8
LAYER8
 62
     1
  6
CONTINUOUS
 10
34.2253
 20
27.7559
  0
VERTEX
  8
LAYER8
 62
     1
  6
CONTINUOUS
 10
34.2246
 20
27.7641
  0
VERTEX
  8
LAYER8
 62
     1
  6
CONTINUOUS
 10
34.2239
 20
27.7818
  0
VERTEX
  8
LAYER8
 62
     1
  6
CONTINUOUS
 10
34.2242
 20
27.7995
  0
VERTEX
  8
LAYER8
 62
     1
  6
CONTINUOUS
 10
34.2255
 20
27.8172
  0
VERTEX
  8
LAYER8
 62
     1
  6
CONTINUOUS
 10
34.2276
 20
27.8349
  0
VERTEX
  8
LAYER8
 62
     1
  6
CONTINUOUS
 10
34.2305
 20
27.8526
  0
VERTEX
  8
LAYER8
 62
     1
  6
CONTINUOUS
 10
34.2341
 20
27.8702
  0
VERTEX
  8
LAYER8
 62
     1
  6
CONTINUOUS
 10
34.2383
 20
27.8878
  0
VERTEX
  8
LAYER8
 62
     1
  6
CONTINUOUS
 10
34.2430
 20
27.9053
  0
VERTEX
  8
LAYER8
 62
     1
  6
CONTINUOUS
 10
34.2481
 20
27.9228
  0
VERTEX
  8
LAYER8
 62
     1
  6
CONTINUOUS
 10
34.2536
 20
27.9401
  0
VERTEX
  8
LAYER8
 62
     1
  6
CONTINUOUS
 10
34.2592
 20
27.9574
  0
VERTEX
  8
LAYER8
 62
     1
  6
CONTINUOUS
 10
34.2650
 20
27.9746
  0
VERTEX
  8
LAYER8
 62
     1
  6
CONTINUOUS
 10
34.2695
 20
27.9877
  0
VERTEX
  8
LAYER8
 62
     1
  6
CONTINUOUS
 10
34.2740
 20
28.0008
  0
VERTEX
  8
LAYER8
 62
     1
  6
CONTINUOUS
 10
34.2785
 20
28.0138
  0
VERTEX
  8
LAYER8
 62
     1
  6
CONTINUOUS
 10
34.2830
 20
28.0267
  0
VERTEX
  8
LAYER8
 62
     1
  6
CONTINUOUS
 10
34.2876
 20
28.0396
  0
VERTEX
  8
LAYER8
 62
     1
  6
CONTINUOUS
 10
34.2922
 20
28.0525
  0
VERTEX
  8
LAYER8
 62
     1
  6
CONTINUOUS
 10
34.2968
 20
28.0653
  0
VERTEX
  8
LAYER8
 62
     1
  6
CONTINUOUS
 10
34.3014
 20
28.0781
  0
VERTEX
  8
LAYER8
 62
     1
  6
CONTINUOUS
 10
34.3060
 20
28.0909
  0
VERTEX
  8
LAYER8
 62
     1
  6
CONTINUOUS
 10
34.3106
 20
28.1037
  0
VERTEX
  8
LAYER8
 62
     1
  6
CONTINUOUS
 10
34.3152
 20
28.1165
  0
VERTEX
  8
LAYER8
 62
     1
  6
CONTINUOUS
 10
34.3198
 20
28.1292
  0
SEQEND
  8
LAYER8
  0
POLYLINE
  8
LAYER8
 62
     1
 66
     1
  6
CONTINUOUS
  0
VERTEX
  8
LAYER8
 62
     1
  6
CONTINUOUS
 10
34.3198
 20
28.1292
  0
VERTEX
  8
LAYER8
 62
     1
  6
CONTINUOUS
 10
34.3228
 20
28.1500
  0
VERTEX
  8
LAYER8
 62
     1
  6
CONTINUOUS
 10
34.3258
 20
28.1705
  0
VERTEX
  8
LAYER8
 62
     1
  6
CONTINUOUS
 10
34.3287
 20
28.1905
  0
VERTEX
  8
LAYER8
 62
     1
  6
CONTINUOUS
 10
34.3315
 20
28.2096
  0
VERTEX
  8
LAYER8
 62
     1
  6
CONTINUOUS
 10
34.3341
 20
28.2277
  0
VERTEX
  8
LAYER8
 62
     1
  6
CONTINUOUS
 10
34.3365
 20
28.2443
  0
VERTEX
  8
LAYER8
 62
     1
  6
CONTINUOUS
 10
34.3387
 20
28.2593
  0
VERTEX
  8
LAYER8
 62
     1
  6
CONTINUOUS
 10
34.3406
 20
28.2724
  0
VERTEX
  8
LAYER8
 62
     1
  6
CONTINUOUS
 10
34.3422
 20
28.2832
  0
VERTEX
  8
LAYER8
 62
     1
  6
CONTINUOUS
 10
34.3434
 20
28.2916
  0
VERTEX
  8
LAYER8
 62
     1
  6
CONTINUOUS
 10
34.3442
 20
28.2972
  0
VERTEX
  8
LAYER8
 62
     1
  6
CONTINUOUS
 10
34.3446
 20
28.2998
  0
VERTEX
  8
LAYER8
 62
     1
  6
CONTINUOUS
 10
34.3446
 20
28.2998
  0
VERTEX
  8
LAYER8
 62
     1
  6
CONTINUOUS
 10
34.3446
 20
28.2999
  0
VERTEX
  8
LAYER8
 62
     1
  6
CONTINUOUS
 10
34.3446
 20
28.2999
  0
VERTEX
  8
LAYER8
 62
     1
  6
CONTINUOUS
 10
34.3446
 20
28.2999
  0
VERTEX
  8
LAYER8
 62
     1
  6
CONTINUOUS
 10
34.3446
 20
28.2999
  0
VERTEX
  8
LAYER8
 62
     1
  6
CONTINUOUS
 10
34.3446
 20
28.2999
  0
VERTEX
  8
LAYER8
 62
     1
  6
CONTINUOUS
 10
34.3446
 20
28.2999
  0
VERTEX
  8
LAYER8
 62
     1
  6
CONTINUOUS
 10
34.3446
 20
28.2999
  0
VERTEX
  8
LAYER8
 62
     1
  6
CONTINUOUS
 10
34.3446
 20
28.2999
  0
VERTEX
  8
LAYER8
 62
     1
  6
CONTINUOUS
 10
34.3446
 20
28.2998
  0
VERTEX
  8
LAYER8
 62
     1
  6
CONTINUOUS
 10
34.3446
 20
28.2998
  0
VERTEX
  8
LAYER8
 62
     1
  6
CONTINUOUS
 10
34.3446
 20
28.2998
  0
SEQEND
  8
LAYER8
  0
CIRCLE
  8
LAYER8
 62
     7
  6
CONTINUOUS
 10
34.8618
 20
26.9353
 40
0.0646
  0
CIRCLE
  8
LAYER8
 62
     7
  6
CONTINUOUS
 10
34.8911
 20
26.7814
 40
0.0732
  0
CIRCLE
  8
LAYER8
 62
     7
  6
CONTINUOUS
 10
34.6506
 20
27.0527
 40
0.0420
  0
CIRCLE
  8
LAYER8
 62
     7
  6
CONTINUOUS
 10
34.8800
 20
26.4099
 40
0.0853
  0
CIRCLE
  8
LAYER8
 62
     7
  6
CONTINUOUS
 10
34.8677
 20
26.1995
 40
0.0560
  0
CIRCLE
  8
LAYER8
 62
     7
  6
CONTINUOUS
 10
35.1770
 20
26.0760
 40
0.0561
  0
CIRCLE
  8
LAYER8
 62
     7
  6
CONTINUOUS
 10
35.1525
 20
25.6692
 40
0.0578
  0
CIRCLE
  8
LAYER8
 62
     7
  6
CONTINUOUS
 10
34.7368
 20
25.9042
 40
0.0426
  0
CIRCLE
  8
LAYER8
 62
     7
  6
CONTINUOUS
 10
34.3923
 20
26.0556
 40
0.0280
  0
CIRCLE
  8
LAYER8
 62
     7
  6
CONTINUOUS
 10
34.3744
 20
25.6910
 40
0.0426
  0
CIRCLE
  8
LAYER8
 62
     7
  6
CONTINUOUS
 10
33.7081
 20
26.6527
 40
0.0983
  0
CIRCLE
  8
LAYER8
 62
     7
  6
CONTINUOUS
 10
34.1538
 20
26.9436
 40
0.0845
  0
CIRCLE
  8
LAYER8
 62
     7
  6
CONTINUOUS
 10
36.0776
 20
27.4495
 40
0.0694
  0
CIRCLE
  8
LAYER8
 62
     7
  6
CONTINUOUS
 10
36.1694
 20
26.6530
 40
0.0486
  0
CIRCLE
  8
LAYER8
 62
     7
  6
CONTINUOUS
 10
36.0640
 20
26.7906
 40
0.0490
  0
CIRCLE
  8
LAYER8
 62
     7
  6
CONTINUOUS
 10
35.9058
 20
26.6847
 40
0.0416
  0
CIRCLE
  8
LAYER8
 62
     7
  6
CONTINUOUS
 10
35.7324
 20
26.6551
 40
0.0559
  0
CIRCLE
  8
LAYER8
 62
     7
  6
CONTINUOUS
 10
35.5679
 20
26.5007
 40
0.0422
  0
CIRCLE
  8
LAYER8
 62
     7
  6
CONTINUOUS
 10
35.8873
 20
26.4765
 40
0.0558
  0
CIRCLE
  8
LAYER8
 62
     7
  6
CONTINUOUS
 10
36.0817
 20
26.4439
 40
0.0219
  0
CIRCLE
  8
LAYER8
 62
     7
  6
CONTINUOUS
 10
35.7155
 20
25.7118
 40
0.0422
  0
POLYLINE
  8
LAYER8
 62
     7
 66
     1
  6
CONTINUOUS
  0
VERTEX
  8
LAYER8
 62
     7
  6
CONTINUOUS
 10
34.5689
 20
25.5365
  0
VERTEX
  8
LAYER8
 62
     7
  6
CONTINUOUS
 10
34.5601
 20
25.5439
  0
VERTEX
  8
LAYER8
 62
     7
  6
CONTINUOUS
 10
34.5515
 20
25.5513
  0
VERTEX
  8
LAYER8
 62
     7
  6
CONTINUOUS
 10
34.5433
 20
25.5587
  0
VERTEX
  8
LAYER8
 62
     7
  6
CONTINUOUS
 10
34.5355
 20
25.5661
  0
VERTEX
  8
LAYER8
 62
     7
  6
CONTINUOUS
 10
34.5282
 20
25.5734
  0
VERTEX
  8
LAYER8
 62
     7
  6
CONTINUOUS
 10
34.5218
 20
25.5806
  0
VERTEX
  8
LAYER8
 62
     7
  6
CONTINUOUS
 10
34.5163
 20
25.5878
  0
VERTEX
  8
LAYER8
 62
     7
  6
CONTINUOUS
 10
34.5118
 20
25.5948
  0
VERTEX
  8
LAYER8
 62
     7
  6
CONTINUOUS
 10
34.5086
 20
25.6018
  0
VERTEX
  8
LAYER8
 62
     7
  6
CONTINUOUS
 10
34.5068
 20
25.6087
  0
VERTEX
  8
LAYER8
 62
     7
  6
CONTINUOUS
 10
34.5064
 20
25.6154
  0
VERTEX
  8
LAYER8
 62
     7
  6
CONTINUOUS
 10
34.5078
 20
25.6220
  0
VERTEX
  8
LAYER8
 62
     7
  6
CONTINUOUS
 10
34.5101
 20
25.6271
  0
VERTEX
  8
LAYER8
 62
     7
  6
CONTINUOUS
 10
34.5133
 20
25.6321
  0
VERTEX
  8
LAYER8
 62
     7
  6
CONTINUOUS
 10
34.5171
 20
25.6372
  0
VERTEX
  8
LAYER8
 62
     7
  6
CONTINUOUS
 10
34.5215
 20
25.6423
  0
VERTEX
  8
LAYER8
 62
     7
  6
CONTINUOUS
 10
34.5262
 20
25.6475
  0
VERTEX
  8
LAYER8
 62
     7
  6
CONTINUOUS
 10
34.5309
 20
25.6529
  0
VERTEX
  8
LAYER8
 62
     7
  6
CONTINUOUS
 10
34.5355
 20
25.6586
  0
VERTEX
  8
LAYER8
 62
     7
  6
CONTINUOUS
 10
34.5397
 20
25.6646
  0
VERTEX
  8
LAYER8
 62
     7
  6
CONTINUOUS
 10
34.5435
 20
25.6709
  0
VERTEX
  8
LAYER8
 62
     7
  6
CONTINUOUS
 10
34.5464
 20
25.6776
  0
VERTEX
  8
LAYER8
 62
     7
  6
CONTINUOUS
 10
34.5485
 20
25.6847
  0
VERTEX
  8
LAYER8
 62
     7
  6
CONTINUOUS
 10
34.5493
 20
25.6924
  0
VERTEX
  8
LAYER8
 62
     7
  6
CONTINUOUS
 10
34.5490
 20
25.6996
  0
VERTEX
  8
LAYER8
 62
     7
  6
CONTINUOUS
 10
34.5479
 20
25.7070
  0
VERTEX
  8
LAYER8
 62
     7
  6
CONTINUOUS
 10
34.5461
 20
25.7145
  0
VERTEX
  8
LAYER8
 62
     7
  6
CONTINUOUS
 10
34.5438
 20
25.7220
  0
VERTEX
  8
LAYER8
 62
     7
  6
CONTINUOUS
 10
34.5414
 20
25.7294
  0
VERTEX
  8
LAYER8
 62
     7
  6
CONTINUOUS
 10
34.5389
 20
25.7364
  0
VERTEX
  8
LAYER8
 62
     7
  6
CONTINUOUS
 10
34.5366
 20
25.7428
  0
VERTEX
  8
LAYER8
 62
     7
  6
CONTINUOUS
 10
34.5347
 20
25.7487
  0
VERTEX
  8
LAYER8
 62
     7
  6
CONTINUOUS
 10
34.5334
 20
25.7537
  0
VERTEX
  8
LAYER8
 62
     7
  6
CONTINUOUS
 10
34.5328
 20
25.7578
  0
VERTEX
  8
LAYER8
 62
     7
  6
CONTINUOUS
 10
34.5333
 20
25.7607
  0
VERTEX
  8
LAYER8
 62
     7
  6
CONTINUOUS
 10
34.5349
 20
25.7624
  0
VERTEX
  8
LAYER8
 62
     7
  6
CONTINUOUS
 10
34.5372
 20
25.7627
  0
VERTEX
  8
LAYER8
 62
     7
  6
CONTINUOUS
 10
34.5403
 20
25.7623
  0
VERTEX
  8
LAYER8
 62
     7
  6
CONTINUOUS
 10
34.5441
 20
25.7612
  0
VERTEX
  8
LAYER8
 62
     7
  6
CONTINUOUS
 10
34.5485
 20
25.7597
  0
VERTEX
  8
LAYER8
 62
     7
  6
CONTINUOUS
 10
34.5534
 20
25.7578
  0
VERTEX
  8
LAYER8
 62
     7
  6
CONTINUOUS
 10
34.5586
 20
25.7558
  0
VERTEX
  8
LAYER8
 62
     7
  6
CONTINUOUS
 10
34.5641
 20
25.7538
  0
VERTEX
  8
LAYER8
 62
     7
  6
CONTINUOUS
 10
34.5696
 20
25.7519
  0
VERTEX
  8
LAYER8
 62
     7
  6
CONTINUOUS
 10
34.5752
 20
25.7503
  0
VERTEX
  8
LAYER8
 62
     7
  6
CONTINUOUS
 10
34.5808
 20
25.7491
  0
VERTEX
  8
LAYER8
 62
     7
  6
CONTINUOUS
 10
34.5861
 20
25.7486
  0
VERTEX
  8
LAYER8
 62
     7
  6
CONTINUOUS
 10
34.5911
 20
25.7488
  0
VERTEX
  8
LAYER8
 62
     7
  6
CONTINUOUS
 10
34.5951
 20
25.7497
  0
VERTEX
  8
LAYER8
 62
     7
  6
CONTINUOUS
 10
34.5989
 20
25.7512
  0
VERTEX
  8
LAYER8
 62
     7
  6
CONTINUOUS
 10
34.6024
 20
25.7532
  0
VERTEX
  8
LAYER8
 62
     7
  6
CONTINUOUS
 10
34.6058
 20
25.7556
  0
VERTEX
  8
LAYER8
 62
     7
  6
CONTINUOUS
 10
34.6090
 20
25.7582
  0
VERTEX
  8
LAYER8
 62
     7
  6
CONTINUOUS
 10
34.6122
 20
25.7611
  0
VERTEX
  8
LAYER8
 62
     7
  6
CONTINUOUS
 10
34.6154
 20
25.7641
  0
VERTEX
  8
LAYER8
 62
     7
  6
CONTINUOUS
 10
34.6186
 20
25.7671
  0
VERTEX
  8
LAYER8
 62
     7
  6
CONTINUOUS
 10
34.6219
 20
25.7700
  0
VERTEX
  8
LAYER8
 62
     7
  6
CONTINUOUS
 10
34.6253
 20
25.7728
  0
VERTEX
  8
LAYER8
 62
     7
  6
CONTINUOUS
 10
34.6289
 20
25.7752
  0
VERTEX
  8
LAYER8
 62
     7
  6
CONTINUOUS
 10
34.6328
 20
25.7772
  0
VERTEX
  8
LAYER8
 62
     7
  6
CONTINUOUS
 10
34.6376
 20
25.7790
  0
VERTEX
  8
LAYER8
 62
     7
  6
CONTINUOUS
 10
34.6427
 20
25.7801
  0
VERTEX
  8
LAYER8
 62
     7
  6
CONTINUOUS
 10
34.6479
 20
25.7807
  0
VERTEX
  8
LAYER8
 62
     7
  6
CONTINUOUS
 10
34.6533
 20
25.7807
  0
VERTEX
  8
LAYER8
 62
     7
  6
CONTINUOUS
 10
34.6587
 20
25.7802
  0
VERTEX
  8
LAYER8
 62
     7
  6
CONTINUOUS
 10
34.6640
 20
25.7792
  0
VERTEX
  8
LAYER8
 62
     7
  6
CONTINUOUS
 10
34.6692
 20
25.7777
  0
VERTEX
  8
LAYER8
 62
     7
  6
CONTINUOUS
 10
34.6740
 20
25.7757
  0
VERTEX
  8
LAYER8
 62
     7
  6
CONTINUOUS
 10
34.6785
 20
25.7733
  0
VERTEX
  8
LAYER8
 62
     7
  6
CONTINUOUS
 10
34.6826
 20
25.7704
  0
VERTEX
  8
LAYER8
 62
     7
  6
CONTINUOUS
 10
34.6861
 20
25.7672
  0
VERTEX
  8
LAYER8
 62
     7
  6
CONTINUOUS
 10
34.6890
 20
25.7636
  0
VERTEX
  8
LAYER8
 62
     7
  6
CONTINUOUS
 10
34.6906
 20
25.7608
  0
VERTEX
  8
LAYER8
 62
     7
  6
CONTINUOUS
 10
34.6919
 20
25.7578
  0
VERTEX
  8
LAYER8
 62
     7
  6
CONTINUOUS
 10
34.6928
 20
25.7547
  0
VERTEX
  8
LAYER8
 62
     7
  6
CONTINUOUS
 10
34.6934
 20
25.7514
  0
VERTEX
  8
LAYER8
 62
     7
  6
CONTINUOUS
 10
34.6937
 20
25.7480
  0
VERTEX
  8
LAYER8
 62
     7
  6
CONTINUOUS
 10
34.6937
 20
25.7445
  0
VERTEX
  8
LAYER8
 62
     7
  6
CONTINUOUS
 10
34.6935
 20
25.7409
  0
VERTEX
  8
LAYER8
 62
     7
  6
CONTINUOUS
 10
34.6931
 20
25.7372
  0
VERTEX
  8
LAYER8
 62
     7
  6
CONTINUOUS
 10
34.6924
 20
25.7334
  0
VERTEX
  8
LAYER8
 62
     7
  6
CONTINUOUS
 10
34.6916
 20
25.7295
  0
VERTEX
  8
LAYER8
 62
     7
  6
CONTINUOUS
 10
34.6906
 20
25.7256
  0
VERTEX
  8
LAYER8
 62
     7
  6
CONTINUOUS
 10
34.6894
 20
25.7216
  0
VERTEX
  8
LAYER8
 62
     7
  6
CONTINUOUS
 10
34.6873
 20
25.7148
  0
VERTEX
  8
LAYER8
 62
     7
  6
CONTINUOUS
 10
34.6849
 20
25.7080
  0
VERTEX
  8
LAYER8
 62
     7
  6
CONTINUOUS
 10
34.6825
 20
25.7012
  0
VERTEX
  8
LAYER8
 62
     7
  6
CONTINUOUS
 10
34.6800
 20
25.6945
  0
VERTEX
  8
LAYER8
 62
     7
  6
CONTINUOUS
 10
34.6777
 20
25.6879
  0
VERTEX
  8
LAYER8
 62
     7
  6
CONTINUOUS
 10
34.6757
 20
25.6816
  0
VERTEX
  8
LAYER8
 62
     7
  6
CONTINUOUS
 10
34.6741
 20
25.6755
  0
VERTEX
  8
LAYER8
 62
     7
  6
CONTINUOUS
 10
34.6730
 20
25.6698
  0
VERTEX
  8
LAYER8
 62
     7
  6
CONTINUOUS
 10
34.6725
 20
25.6644
  0
VERTEX
  8
LAYER8
 62
     7
  6
CONTINUOUS
 10
34.6727
 20
25.6595
  0
VERTEX
  8
LAYER8
 62
     7
  6
CONTINUOUS
 10
34.6738
 20
25.6552
  0
VERTEX
  8
LAYER8
 62
     7
  6
CONTINUOUS
 10
34.6759
 20
25.6514
  0
VERTEX
  8
LAYER8
 62
     7
  6
CONTINUOUS
 10
34.6777
 20
25.6494
  0
VERTEX
  8
LAYER8
 62
     7
  6
CONTINUOUS
 10
34.6799
 20
25.6476
  0
VERTEX
  8
LAYER8
 62
     7
  6
CONTINUOUS
 10
34.6825
 20
25.6460
  0
VERTEX
  8
LAYER8
 62
     7
  6
CONTINUOUS
 10
34.6855
 20
25.6446
  0
VERTEX
  8
LAYER8
 62
     7
  6
CONTINUOUS
 10
34.6887
 20
25.6434
  0
VERTEX
  8
LAYER8
 62
     7
  6
CONTINUOUS
 10
34.6923
 20
25.6423
  0
VERTEX
  8
LAYER8
 62
     7
  6
CONTINUOUS
 10
34.6961
 20
25.6413
  0
VERTEX
  8
LAYER8
 62
     7
  6
CONTINUOUS
 10
34.7001
 20
25.6405
  0
VERTEX
  8
LAYER8
 62
     7
  6
CONTINUOUS
 10
34.7044
 20
25.6397
  0
VERTEX
  8
LAYER8
 62
     7
  6
CONTINUOUS
 10
34.7088
 20
25.6390
  0
VERTEX
  8
LAYER8
 62
     7
  6
CONTINUOUS
 10
34.7134
 20
25.6384
  0
VERTEX
  8
LAYER8
 62
     7
  6
CONTINUOUS
 10
34.7181
 20
25.6377
  0
VERTEX
  8
LAYER8
 62
     7
  6
CONTINUOUS
 10
34.7264
 20
25.6367
  0
VERTEX
  8
LAYER8
 62
     7
  6
CONTINUOUS
 10
34.7348
 20
25.6356
  0
VERTEX
  8
LAYER8
 62
     7
  6
CONTINUOUS
 10
34.7432
 20
25.6345
  0
VERTEX
  8
LAYER8
 62
     7
  6
CONTINUOUS
 10
34.7513
 20
25.6331
  0
VERTEX
  8
LAYER8
 62
     7
  6
CONTINUOUS
 10
34.7591
 20
25.6316
  0
VERTEX
  8
LAYER8
 62
     7
  6
CONTINUOUS
 10
34.7663
 20
25.6298
  0
VERTEX
  8
LAYER8
 62
     7
  6
CONTINUOUS
 10
34.7728
 20
25.6277
  0
VERTEX
  8
LAYER8
 62
     7
  6
CONTINUOUS
 10
34.7784
 20
25.6252
  0
VERTEX
  8
LAYER8
 62
     7
  6
CONTINUOUS
 10
34.7830
 20
25.6223
  0
VERTEX
  8
LAYER8
 62
     7
  6
CONTINUOUS
 10
34.7863
 20
25.6189
  0
VERTEX
  8
LAYER8
 62
     7
  6
CONTINUOUS
 10
34.7881
 20
25.6149
  0
VERTEX
  8
LAYER8
 62
     7
  6
CONTINUOUS
 10
34.7884
 20
25.6103
  0
VERTEX
  8
LAYER8
 62
     7
  6
CONTINUOUS
 10
34.7879
 20
25.6076
  0
VERTEX
  8
LAYER8
 62
     7
  6
CONTINUOUS
 10
34.7870
 20
25.6048
  0
VERTEX
  8
LAYER8
 62
     7
  6
CONTINUOUS
 10
34.7856
 20
25.6019
  0
VERTEX
  8
LAYER8
 62
     7
  6
CONTINUOUS
 10
34.7838
 20
25.5990
  0
VERTEX
  8
LAYER8
 62
     7
  6
CONTINUOUS
 10
34.7817
 20
25.5962
  0
VERTEX
  8
LAYER8
 62
     7
  6
CONTINUOUS
 10
34.7793
 20
25.5934
  0
VERTEX
  8
LAYER8
 62
     7
  6
CONTINUOUS
 10
34.7766
 20
25.5908
  0
VERTEX
  8
LAYER8
 62
     7
  6
CONTINUOUS
 10
34.7737
 20
25.5884
  0
VERTEX
  8
LAYER8
 62
     7
  6
CONTINUOUS
 10
34.7706
 20
25.5863
  0
VERTEX
  8
LAYER8
 62
     7
  6
CONTINUOUS
 10
34.7673
 20
25.5845
  0
VERTEX
  8
LAYER8
 62
     7
  6
CONTINUOUS
 10
34.7640
 20
25.5830
  0
VERTEX
  8
LAYER8
 62
     7
  6
CONTINUOUS
 10
34.7605
 20
25.5820
  0
VERTEX
  8
LAYER8
 62
     7
  6
CONTINUOUS
 10
34.7580
 20
25.5816
  0
VERTEX
  8
LAYER8
 62
     7
  6
CONTINUOUS
 10
34.7555
 20
25.5814
  0
VERTEX
  8
LAYER8
 62
     7
  6
CONTINUOUS
 10
34.7530
 20
25.5813
  0
VERTEX
  8
LAYER8
 62
     7
  6
CONTINUOUS
 10
34.7506
 20
25.5814
  0
VERTEX
  8
LAYER8
 62
     7
  6
CONTINUOUS
 10
34.7481
 20
25.5815
  0
VERTEX
  8
LAYER8
 62
     7
  6
CONTINUOUS
 10
34.7457
 20
25.5817
  0
VERTEX
  8
LAYER8
 62
     7
  6
CONTINUOUS
 10
34.7433
 20
25.5820
  0
VERTEX
  8
LAYER8
 62
     7
  6
CONTINUOUS
 10
34.7409
 20
25.5821
  0
VERTEX
  8
LAYER8
 62
     7
  6
CONTINUOUS
 10
34.7387
 20
25.5823
  0
VERTEX
  8
LAYER8
 62
     7
  6
CONTINUOUS
 10
34.7365
 20
25.5823
  0
VERTEX
  8
LAYER8
 62
     7
  6
CONTINUOUS
 10
34.7344
 20
25.5822
  0
VERTEX
  8
LAYER8
 62
     7
  6
CONTINUOUS
 10
34.7324
 20
25.5818
  0
VERTEX
  8
LAYER8
 62
     7
  6
CONTINUOUS
 10
34.7291
 20
25.5807
  0
VERTEX
  8
LAYER8
 62
     7
  6
CONTINUOUS
 10
34.7261
 20
25.5789
  0
VERTEX
  8
LAYER8
 62
     7
  6
CONTINUOUS
 10
34.7234
 20
25.5764
  0
VERTEX
  8
LAYER8
 62
     7
  6
CONTINUOUS
 10
34.7210
 20
25.5734
  0
VERTEX
  8
LAYER8
 62
     7
  6
CONTINUOUS
 10
34.7188
 20
25.5699
  0
VERTEX
  8
LAYER8
 62
     7
  6
CONTINUOUS
 10
34.7169
 20
25.5659
  0
VERTEX
  8
LAYER8
 62
     7
  6
CONTINUOUS
 10
34.7151
 20
25.5616
  0
VERTEX
  8
LAYER8
 62
     7
  6
CONTINUOUS
 10
34.7136
 20
25.5569
  0
VERTEX
  8
LAYER8
 62
     7
  6
CONTINUOUS
 10
34.7121
 20
25.5521
  0
VERTEX
  8
LAYER8
 62
     7
  6
CONTINUOUS
 10
34.7107
 20
25.5470
  0
VERTEX
  8
LAYER8
 62
     7
  6
CONTINUOUS
 10
34.7094
 20
25.5418
  0
VERTEX
  8
LAYER8
 62
     7
  6
CONTINUOUS
 10
34.7082
 20
25.5365
  0
SEQEND
  8
LAYER8
  0
ARC
  8
LAYER8
 62
     7
  6
CONTINUOUS
 10
35.7729
 20
25.5043
 40
0.0487
 50
41.3071
 51
138.6929
  0
ARC
  8
LAYER8
 62
     7
  6
CONTINUOUS
 10
35.4951
 20
25.5637
 40
0.0354
 50
-50.2194
 51
-129.7806
  0
POLYLINE
  8
LAYER8
 62
     1
 66
     1
  6
CONTINUOUS
  0
VERTEX
  8
LAYER8
 62
     1
  6
CONTINUOUS
 10
33.7873
 20
28.3136
  0
VERTEX
  8
LAYER8
 62
     1
  6
CONTINUOUS
 10
33.7841
 20
28.2870
  0
VERTEX
  8
LAYER8
 62
     1
  6
CONTINUOUS
 10
33.7809
 20
28.2608
  0
VERTEX
  8
LAYER8
 62
     1
  6
CONTINUOUS
 10
33.7778
 20
28.2353
  0
VERTEX
  8
LAYER8
 62
     1
  6
CONTINUOUS
 10
33.7749
 20
28.2108
  0
VERTEX
  8
LAYER8
 62
     1
  6
CONTINUOUS
 10
33.7721
 20
28.1878
  0
VERTEX
  8
LAYER8
 62
     1
  6
CONTINUOUS
 10
33.7695
 20
28.1666
  0
VERTEX
  8
LAYER8
 62
     1
  6
CONTINUOUS
 10
33.7672
 20
28.1475
  0
VERTEX
  8
LAYER8
 62
     1
  6
CONTINUOUS
 10
33.7651
 20
28.1309
  0
VERTEX
  8
LAYER8
 62
     1
  6
CONTINUOUS
 10
33.7635
 20
28.1171
  0
VERTEX
  8
LAYER8
 62
     1
  6
CONTINUOUS
 10
33.7622
 20
28.1066
  0
VERTEX
  8
LAYER8
 62
     1
  6
CONTINUOUS
 10
33.7613
 20
28.0996
  0
VERTEX
  8
LAYER8
 62
     1
  6
CONTINUOUS
 10
33.7610
 20
28.0965
  0
VERTEX
  8
LAYER8
 62
     1
  6
CONTINUOUS
 10
33.7610
 20
28.0965
  0
VERTEX
  8
LAYER8
 62
     1
  6
CONTINUOUS
 10
33.7610
 20
28.0965
  0
VERTEX
  8
LAYER8
 62
     1
  6
CONTINUOUS
 10
33.7609
 20
28.0964
  0
VERTEX
  8
LAYER8
 62
     1
  6
CONTINUOUS
 10
33.7609
 20
28.0964
  0
VERTEX
  8
LAYER8
 62
     1
  6
CONTINUOUS
 10
33.7609
 20
28.0964
  0
VERTEX
  8
LAYER8
 62
     1
  6
CONTINUOUS
 10
33.7609
 20
28.0964
  0
VERTEX
  8
LAYER8
 62
     1
  6
CONTINUOUS
 10
33.7609
 20
28.0964
  0
VERTEX
  8
LAYER8
 62
     1
  6
CONTINUOUS
 10
33.7610
 20
28.0964
  0
VERTEX
  8
LAYER8
 62
     1
  6
CONTINUOUS
 10
33.7610
 20
28.0965
  0
VERTEX
  8
LAYER8
 62
     1
  6
CONTINUOUS
 10
33.7610
 20
28.0965
  0
VERTEX
  8
LAYER8
 62
     1
  6
CONTINUOUS
 10
33.7610
 20
28.0965
  0
VERTEX
  8
LAYER8
 62
     1
  6
CONTINUOUS
 10
33.7610
 20
28.0965
  0
SEQEND
  8
LAYER8
  0
ARC
  8
LAYER8
 62
     7
  6
CONTINUOUS
 10
33.4113
 20
26.9306
 40
0.0731
 50
-48.2431
 51
48.2431
  0
POLYLINE
  8
LAYER25
 62
     5
 66
     1
  6
CONTINUOUS
  0
VERTEX
  8
LAYER25
 62
     5
  6
CONTINUOUS
 10
36.2373
 20
25.5364
  0
VERTEX
  8
LAYER25
 62
     5
  6
CONTINUOUS
 10
36.2373
 20
28.3136
  0
SEQEND
  8
LAYER25
  0
POLYLINE
  8
LAYER25
 62
     5
 66
     1
  6
CONTINUOUS
  0
VERTEX
  8
LAYER25
 62
     5
  6
CONTINUOUS
 10
33.4600
 20
25.5365
  0
VERTEX
  8
LAYER25
 62
     5
  6
CONTINUOUS
 10
36.2373
 20
25.5364
  0
SEQEND
  8
LAYER25
  0
POLYLINE
  8
LAYER25
 62
     5
 66
     1
  6
CONTINUOUS
  0
VERTEX
  8
LAYER25
 62
     5
  6
CONTINUOUS
 10
33.4600
 20
28.3136
  0
VERTEX
  8
LAYER25
 62
     5
  6
CONTINUOUS
 10
33.4600
 20
25.5365
  0
SEQEND
  8
LAYER25
  0
POLYLINE
  8
LAYER25
 62
     5
 66
     1
  6
CONTINUOUS
  0
VERTEX
  8
LAYER25
 62
     5
  6
CONTINUOUS
 10
33.4600
 20
28.3136
  0
VERTEX
  8
LAYER25
 62
     5
  6
CONTINUOUS
 10
36.2373
 20
28.3136
  0
SEQEND
  8
LAYER25
  0
POLYLINE
  8
LAYER52
 62
     7
 66
     1
  6
CONTINUOUS
  0
VERTEX
  8
LAYER52
 62
     7
  6
CONTINUOUS
 10
36.2373
 20
25.9417
  0
VERTEX
  8
LAYER52
 62
     7
  6
CONTINUOUS
 10
36.2369
 20
25.9414
  0
VERTEX
  8
LAYER52
 62
     7
  6
CONTINUOUS
 10
36.2365
 20
25.9412
  0
VERTEX
  8
LAYER52
 62
     7
  6
CONTINUOUS
 10
36.2360
 20
25.9410
  0
VERTEX
  8
LAYER52
 62
     7
  6
CONTINUOUS
 10
36.2356
 20
25.9408
  0
VERTEX
  8
LAYER52
 62
     7
  6
CONTINUOUS
 10
36.2352
 20
25.9406
  0
VERTEX
  8
LAYER52
 62
     7
  6
CONTINUOUS
 10
36.2349
 20
25.9404
  0
VERTEX
  8
LAYER52
 62
     7
  6
CONTINUOUS
 10
36.2345
 20
25.9402
  0
VERTEX
  8
LAYER52
 62
     7
  6
CONTINUOUS
 10
36.2341
 20
25.9400
  0
VERTEX
  8
LAYER52
 62
     7
  6
CONTINUOUS
 10
36.2338
 20
25.9398
  0
VERTEX
  8
LAYER52
 62
     7
  6
CONTINUOUS
 10
36.2335
 20
25.9396
  0
VERTEX
  8
LAYER52
 62
     7
  6
CONTINUOUS
 10
36.2332
 20
25.9395
  0
VERTEX
  8
LAYER52
 62
     7
  6
CONTINUOUS
 10
36.2329
 20
25.9394
  0
VERTEX
  8
LAYER52
 62
     7
  6
CONTINUOUS
 10
36.2323
 20
25.9391
  0
VERTEX
  8
LAYER52
 62
     7
  6
CONTINUOUS
 10
36.2319
 20
25.9389
  0
VERTEX
  8
LAYER52
 62
     7
  6
CONTINUOUS
 10
36.2317
 20
25.9387
  0
VERTEX
  8
LAYER52
 62
     7
  6
CONTINUOUS
 10
36.2315
 20
25.9387
  0
VERTEX
  8
LAYER52
 62
     7
  6
CONTINUOUS
 10
36.2315
 20
25.9387
  0
VERTEX
  8
LAYER52
 62
     7
  6
CONTINUOUS
 10
36.2316
 20
25.9387
  0
VERTEX
  8
LAYER52
 62
     7
  6
CONTINUOUS
 10
36.2317
 20
25.9388
  0
VERTEX
  8
LAYER52
 62
     7
  6
CONTINUOUS
 10
36.2319
 20
25.9389
  0
VERTEX
  8
LAYER52
 62
     7
  6
CONTINUOUS
 10
36.2321
 20
25.9390
  0
VERTEX
  8
LAYER52
 62
     7
  6
CONTINUOUS
 10
36.2324
 20
25.9391
  0
VERTEX
  8
LAYER52
 62
     7
  6
CONTINUOUS
 10
36.2327
 20
25.9393
  0
VERTEX
  8
LAYER52
 62
     7
  6
CONTINUOUS
 10
36.2329
 20
25.9394
  0
VERTEX
  8
LAYER52
 62
     7
  6
CONTINUOUS
 10
36.2332
 20
25.9394
  0
VERTEX
  8
LAYER52
 62
     7
  6
CONTINUOUS
 10
36.2334
 20
25.9395
  0
VERTEX
  8
LAYER52
 62
     7
  6
CONTINUOUS
 10
36.2335
 20
25.9395
  0
VERTEX
  8
LAYER52
 62
     7
  6
CONTINUOUS
 10
36.2337
 20
25.9395
  0
VERTEX
  8
LAYER52
 62
     7
  6
CONTINUOUS
 10
36.2338
 20
25.9395
  0
VERTEX
  8
LAYER52
 62
     7
  6
CONTINUOUS
 10
36.2338
 20
25.9395
  0
VERTEX
  8
LAYER52
 62
     7
  6
CONTINUOUS
 10
36.2338
 20
25.9394
  0
VERTEX
  8
LAYER52
 62
     7
  6
CONTINUOUS
 10
36.2338
 20
25.9394
  0
VERTEX
  8
LAYER52
 62
     7
  6
CONTINUOUS
 10
36.2337
 20
25.9394
  0
VERTEX
  8
LAYER52
 62
     7
  6
CONTINUOUS
 10
36.2335
 20
25.9394
  0
VERTEX
  8
LAYER52
 62
     7
  6
CONTINUOUS
 10
36.2332
 20
25.9394
  0
VERTEX
  8
LAYER52
 62
     7
  6
CONTINUOUS
 10
36.2329
 20
25.9394
  0
VERTEX
  8
LAYER52
 62
     7
  6
CONTINUOUS
 10
36.2313
 20
25.9395
  0
VERTEX
  8
LAYER52
 62
     7
  6
CONTINUOUS
 10
36.2290
 20
25.9397
  0
VERTEX
  8
LAYER52
 62
     7
  6
CONTINUOUS
 10
36.2262
 20
25.9400
  0
VERTEX
  8
LAYER52
 62
     7
  6
CONTINUOUS
 10
36.2228
 20
25.9403
  0
VERTEX
  8
LAYER52
 62
     7
  6
CONTINUOUS
 10
36.2190
 20
25.9407
  0
VERTEX
  8
LAYER52
 62
     7
  6
CONTINUOUS
 10
36.2149
 20
25.9410
  0
VERTEX
  8
LAYER52
 62
     7
  6
CONTINUOUS
 10
36.2108
 20
25.9412
  0
VERTEX
  8
LAYER52
 62
     7
  6
CONTINUOUS
 10
36.2065
 20
25.9412
  0
VERTEX
  8
LAYER52
 62
     7
  6
CONTINUOUS
 10
36.2024
 20
25.9410
  0
VERTEX
  8
LAYER52
 62
     7
  6
CONTINUOUS
 10
36.1984
 20
25.9407
  0
VERTEX
  8
LAYER52
 62
     7
  6
CONTINUOUS
 10
36.1948
 20
25.9400
  0
VERTEX
  8
LAYER52
 62
     7
  6
CONTINUOUS
 10
36.1915
 20
25.9390
  0
VERTEX
  8
LAYER52
 62
     7
  6
CONTINUOUS
 10
36.1872
 20
25.9365
  0
VERTEX
  8
LAYER52
 62
     7
  6
CONTINUOUS
 10
36.1843
 20
25.9330
  0
VERTEX
  8
LAYER52
 62
     7
  6
CONTINUOUS
 10
36.1825
 20
25.9287
  0
VERTEX
  8
LAYER52
 62
     7
  6
CONTINUOUS
 10
36.1817
 20
25.9237
  0
VERTEX
  8
LAYER52
 62
     7
  6
CONTINUOUS
 10
36.1818
 20
25.9180
  0
VERTEX
  8
LAYER52
 62
     7
  6
CONTINUOUS
 10
36.1826
 20
25.9118
  0
VERTEX
  8
LAYER52
 62
     7
  6
CONTINUOUS
 10
36.1838
 20
25.9052
  0
VERTEX
  8
LAYER52
 62
     7
  6
CONTINUOUS
 10
36.1854
 20
25.8983
  0
VERTEX
  8
LAYER52
 62
     7
  6
CONTINUOUS
 10
36.1872
 20
25.8912
  0
VERTEX
  8
LAYER52
 62
     7
  6
CONTINUOUS
 10
36.1890
 20
25.8839
  0
VERTEX
  8
LAYER52
 62
     7
  6
CONTINUOUS
 10
36.1907
 20
25.8767
  0
VERTEX
  8
LAYER52
 62
     7
  6
CONTINUOUS
 10
36.1920
 20
25.8696
  0
VERTEX
  8
LAYER52
 62
     7
  6
CONTINUOUS
 10
36.1934
 20
25.8537
  0
VERTEX
  8
LAYER52
 62
     7
  6
CONTINUOUS
 10
36.1925
 20
25.8389
  0
VERTEX
  8
LAYER52
 62
     7
  6
CONTINUOUS
 10
36.1898
 20
25.8250
  0
VERTEX
  8
LAYER52
 62
     7
  6
CONTINUOUS
 10
36.1854
 20
25.8118
  0
VERTEX
  8
LAYER52
 62
     7
  6
CONTINUOUS
 10
36.1799
 20
25.7992
  0
VERTEX
  8
LAYER52
 62
     7
  6
CONTINUOUS
 10
36.1736
 20
25.7872
  0
VERTEX
  8
LAYER52
 62
     7
  6
CONTINUOUS
 10
36.1668
 20
25.7754
  0
VERTEX
  8
LAYER52
 62
     7
  6
CONTINUOUS
 10
36.1599
 20
25.7638
  0
VERTEX
  8
LAYER52
 62
     7
  6
CONTINUOUS
 10
36.1532
 20
25.7523
  0
VERTEX
  8
LAYER52
 62
     7
  6
CONTINUOUS
 10
36.1471
 20
25.7406
  0
VERTEX
  8
LAYER52
 62
     7
  6
CONTINUOUS
 10
36.1420
 20
25.7287
  0
VERTEX
  8
LAYER52
 62
     7
  6
CONTINUOUS
 10
36.1382
 20
25.7164
  0
VERTEX
  8
LAYER52
 62
     7
  6
CONTINUOUS
 10
36.1369
 20
25.7099
  0
VERTEX
  8
LAYER52
 62
     7
  6
CONTINUOUS
 10
36.1359
 20
25.7033
  0
VERTEX
  8
LAYER52
 62
     7
  6
CONTINUOUS
 10
36.1353
 20
25.6965
  0
VERTEX
  8
LAYER52
 62
     7
  6
CONTINUOUS
 10
36.1351
 20
25.6897
  0
VERTEX
  8
LAYER52
 62
     7
  6
CONTINUOUS
 10
36.1351
 20
25.6828
  0
VERTEX
  8
LAYER52
 62
     7
  6
CONTINUOUS
 10
36.1353
 20
25.6758
  0
VERTEX
  8
LAYER52
 62
     7
  6
CONTINUOUS
 10
36.1357
 20
25.6687
  0
VERTEX
  8
LAYER52
 62
     7
  6
CONTINUOUS
 10
36.1363
 20
25.6617
  0
VERTEX
  8
LAYER52
 62
     7
  6
CONTINUOUS
 10
36.1370
 20
25.6546
  0
VERTEX
  8
LAYER52
 62
     7
  6
CONTINUOUS
 10
36.1377
 20
25.6474
  0
VERTEX
  8
LAYER52
 62
     7
  6
CONTINUOUS
 10
36.1384
 20
25.6403
  0
VERTEX
  8
LAYER52
 62
     7
  6
CONTINUOUS
 10
36.1392
 20
25.6332
  0
VERTEX
  8
LAYER52
 62
     7
  6
CONTINUOUS
 10
36.1399
 20
25.6250
  0
VERTEX
  8
LAYER52
 62
     7
  6
CONTINUOUS
 10
36.1406
 20
25.6168
  0
VERTEX
  8
LAYER52
 62
     7
  6
CONTINUOUS
 10
36.1413
 20
25.6087
  0
VERTEX
  8
LAYER52
 62
     7
  6
CONTINUOUS
 10
36.1418
 20
25.6006
  0
VERTEX
  8
LAYER52
 62
     7
  6
CONTINUOUS
 10
36.1423
 20
25.5925
  0
VERTEX
  8
LAYER52
 62
     7
  6
CONTINUOUS
 10
36.1428
 20
25.5845
  0
VERTEX
  8
LAYER52
 62
     7
  6
CONTINUOUS
 10
36.1432
 20
25.5764
  0
VERTEX
  8
LAYER52
 62
     7
  6
CONTINUOUS
 10
36.1435
 20
25.5684
  0
VERTEX
  8
LAYER52
 62
     7
  6
CONTINUOUS
 10
36.1439
 20
25.5604
  0
VERTEX
  8
LAYER52
 62
     7
  6
CONTINUOUS
 10
36.1442
 20
25.5524
  0
VERTEX
  8
LAYER52
 62
     7
  6
CONTINUOUS
 10
36.1445
 20
25.5445
  0
VERTEX
  8
LAYER52
 62
     7
  6
CONTINUOUS
 10
36.1448
 20
25.5365
  0
SEQEND
  8
LAYER52
  0
ENDSEC
  0
EOF
