  0
SECTION
  2
HEADER
  9
$ACADVER
  1
AC1004
  9
$EXTMIN
 10
8.0319
 20
9.5138
  9
$EXTMAX
 10
9.0561
 20
10.5370
  9
$LIMMIN
 10
8.0319
 20
9.5138
  9
$LIMMAX
 10
9.0561
 20
10.5370
  9
$INSBASE
 10
0.0
 20
0.0
  9
$VIEWCTR
 10
7.21903
 20
4.5
  9
$VIEWSIZE
 40
9.0
  9
$SNAPMODE
 70
     0
  9
$SNAPUNIT
 10
1.0
 20
1.0
  9
$SNAPBASE
 10
0.0
 20
0.0
  9
$SNAPANG
 50
0.0
  9
$SNAPSTYLE
 70
     0
  9
$SNAPISOPAIR
 70
     0
  9
$GRIDMODE
 70
     0
  9
$GRIDUNIT
 10
0.0
 20
0.0
  9
$ORTHOMODE
 70
     0
  9
$REGENMODE
 70
     1
  9
$FILLMODE
 70
     1
  9
$QTEXTMODE
 70
     0
  9
$DRAGMODE
 70
     2
  9
$LTSCALE
 40
1.0
  9
$OSMODE
 70
     0
  9
$ATTMODE
 70
     1
  9
$TEXTSIZE
 40
0.2
  9
$TRACEWID
 40
0.05
  9
$TEXTSTYLE
  7
STANDARD
  9
$CLAYER
  8
0
  9
$CELTYPE
  6
BYLAYER
  9
$CECOLOR
 62
   256
  9
$DIMSCALE
 40
1.0
  9
$DIMASZ
 40
0.18
  9
$DIMEXO
 40
0.0625
  9
$DIMDLI
 40
0.38
  9
$DIMRND
 40
0.0
  9
$DIMDLE
 40
0.0
  9
$DIMEXE
 40
0.18
  9
$DIMTP
 40
0.0
  9
$DIMTM
 40
0.0
  9
$DIMTXT
 40
0.18
  9
$DIMCEN
 40
0.09
  9
$DIMTSZ
 40
0.0
  9
$DIMTOL
 70
     0
  9
$DIMLIM
 70
     0
  9
$DIMTIH
 70
     1
  9
$DIMTOH
 70
     1
  9
$DIMSE1
 70
     0
  9
$DIMSE2
 70
     0
  9
$DIMTAD
 70
     0
  9
$DIMZIN
 70
     0
  9
$DIMBLK
  1

  9
$DIMASO
 70
     1
  9
$DIMSHO
 70
     0
  9
$DIMPOST
  1

  9
$DIMAPOST
  1

  9
$DIMALT
 70
     0
  9
$DIMALTD
 70
     2
  9
$DIMALTF
 40
25.4
  9
$DIMLFAC
 40
1.0
  9
$LUNITS
 70
     2
  9
$LUPREC
 70
     4
  9
$AXISMODE
 70
     0
  9
$AXISUNIT
 10
0.0
 20
0.0
  9
$SKETCHINC
 40
0.1
  9
$FILLETRAD
 40
0.0
  9
$AUNITS
 70
     0
  9
$AUPREC
 70
     0
  9
$MENU
  1
acad
  9
$ELEVATION
 40
0.0
  9
$THICKNESS
 40
0.0
  9
$VIEWDIR
 10
0.0
 20
0.0
 30
1.0
  9
$LIMCHECK
 70
     0
  9
$BLIPMODE
 70
     1
  9
$CHAMFERA
 40
0.0
  9
$CHAMFERB
 40
0.0
  9
$FASTZOOM
 70
     1
  9
$SKPOLY
 70
     0
  9
$TDCREATE
 40
2447222.5666886573
  9
$TDUPDATE
 40
2447222.5666886573
  9
$TDINDWG
 40
0.0000000000
  9
$TDUSRTIMER
 40
0.0000000000
  9
$USRTIMER
 70
     1
  9
$ANGBASE
 50
0.0
  9
$ANGDIR
 70
     0
  9
$PDMODE
 70
     0
  9
$PDSIZE
 40
0.0
  9
$PLINEWID
 40
0.0
  9
$COORDS
 70
     0
  9
$SPLFRAME
 70
     0
  9
$SPLINESEGS
 70
     8
  9
$ATTDIA
 70
     0
  9
$ATTREQ
 70
     1
  9
$USERI1
 70
     0
  9
$USERI2
 70
     0
  9
$USERI3
 70
     0
  9
$USERI4
 70
     0
  9
$USERI5
 70
     0
  9
$USERR1
 40
0.0
  9
$USERR2
 40
0.0
  9
$USERR3
 40
0.0
  9
$USERR4
 40
0.0
  9
$USERR5
 40
0.0
  0
ENDSEC
  0
SECTION
  2
TABLES
  0
TABLE
  2
LTYPE
 70
     13
  0
LTYPE
  2
CONTINUOUS
 70
    64
  3
Solid line
 72
    65
 73
     0
 40
0.0
  0
LTYPE
  2
DASHED
 70
    64
  3
__ __ __ __ __ __ __ __ __ __ __ __ __ __ __
 72
    65
 73
     2
 40
0.75
 49
0.5
 49
-0.25
  0
LTYPE
  2
HIDDEN
 70
    64
  3
_ _ _ _ _ _ _ _ _ _ _ _ _ _ _ _ _ _ _ _ _ _ _
 72
    65
 73
     2
 40
0.375
 49
0.25
 49
-0.125
  0
LTYPE
  2
CENTER
 70
    64
  3
____ _ ____ _ ____ _ ____ _ ____ _ ____ _ ____
 72
    65
 73
     4
 40
2.0
 49
1.25
 49
-0.25
 49
0.25
 49
-0.25
  0
LTYPE
  2
PHANTOM
 70
    64
  3
_____ _ _ _____ _ _ _____ _ _ _____ _ _ ____
 72
    65
 73
     6
 40
2.5
 49
1.25
 49
-0.25
 49
0.25
 49
-0.25
 49
0.25
 49
-0.25
  0
LTYPE
  2
DOT
 70
    64
  3
...............................................
 72
    65
 73
     2
 40
0.25
 49
0.0
 49
-0.25
  0
LTYPE
  2
DASHDOT
 70
    64
  3
__ . __ . __ . __ . __ . __ . __ . __ . __ . __
 72
    65
 73
     4
 40
1.0
 49
0.5
 49
-0.25
 49
0.0
 49
-0.25
  0
LTYPE
  2
BORDER
 70
    64
  3
__ __ . __ __ . __ __ . __ __ . __ __ . __ __
 72
    65
 73
     6
 40
1.75
 49
0.5
 49
-0.25
 49
0.5
 49
-0.25
 49
0.0
 49
-0.25
  0
LTYPE
  2
DIVIDE
 70
    64
  3
__ . . __ . . __ . . __ . . __ . . __ . . __
 72
    65
 73
     6
 40
1.25
 49
0.5
 49
-0.25
 49
0.0
 49
-0.25
 49
0.0
 49
-0.25
  0
LTYPE
  2
DCTYPE1
 70
    64
  3
__ . . __ . . __ . . __ . . __ . . __ . . __
 72
    65
 73
     8
 40
2.5
 49
0.5
 49
-0.25
 49
0.125
 49
-0.25
 49
0.25
 49
-0.25
 49
0.125
 49
-0.25
  0
LTYPE
  2
DCTYPE2
 70
    64
  3
__ . . __ . . __ . . __ . . __ . . __ . . __
 72
    65
 73
     6
 40
2.05
 49
1.0
 49
-0.3
 49
0.15
 49
-0.15
 49
0.15
 49
-0.3
  0
LTYPE
  2
DCTYPE3
 70
    64
  3
__ . . __ . . __ . . __ . . __ . . __ . . __
 72
    65
 73
     6
 40
2.5
 49
0.8
 49
-0.2
 49
0.8
 49
-0.2
 49
0.3
 49
-0.2
  0
LTYPE
  2
DCTYPE4
 70
    64
  3
__ . . __ . . __ . . __ . . __ . . __ . . __
 72
    65
 73
     10
 40
3.97
 49
1.75
 49
-0.3
 49
0.3
 49
-0.3
 49
0.06
 49
-0.3
 49
0.06
 49
-0.3
 49
0.3
 49
-0.3
  0
ENDTAB
  0
TABLE
  2
LAYER
 70
    153
  0
LAYER
  2
LAYER1
 70
 64
 62
     7
  6
CONTINUOUS
  0
LAYER
  2
LAYER10
 70
 64
 62
     1
  6
CONTINUOUS
  0
LAYER
  2
LAYER12
 70
 64
 62
     5
  6
CONTINUOUS
  0
ENDTAB
  0
ENDSEC
  0
SECTION
  2
BLOCKS
  0
ENDSEC
  0
SECTION
  2
ENTITIES
  0
CIRCLE
  8
LAYER1
 62
     7
  6
CONTINUOUS
 10
8.0778
 20
9.5895
 40
0.0240
  0
CIRCLE
  8
LAYER1
 62
     7
  6
CONTINUOUS
 10
8.2375
 20
9.5887
 40
0.0143
  0
CIRCLE
  8
LAYER1
 62
     7
  6
CONTINUOUS
 10
8.3621
 20
9.5546
 40
0.0091
  0
CIRCLE
  8
LAYER1
 62
     7
  6
CONTINUOUS
 10
8.0925
 20
10.3272
 40
0.0209
  0
POLYLINE
  8
LAYER10
 62
     1
 66
     1
  6
CONTINUOUS
  0
VERTEX
  8
LAYER10
 62
     1
  6
CONTINUOUS
 10
8.1141
 20
10.2058
  0
VERTEX
  8
LAYER10
 62
     1
  6
CONTINUOUS
 10
8.1156
 20
10.2081
  0
VERTEX
  8
LAYER10
 62
     1
  6
CONTINUOUS
 10
8.1171
 20
10.2105
  0
VERTEX
  8
LAYER10
 62
     1
  6
CONTINUOUS
 10
8.1186
 20
10.2128
  0
VERTEX
  8
LAYER10
 62
     1
  6
CONTINUOUS
 10
8.1201
 20
10.2150
  0
VERTEX
  8
LAYER10
 62
     1
  6
CONTINUOUS
 10
8.1217
 20
10.2173
  0
VERTEX
  8
LAYER10
 62
     1
  6
CONTINUOUS
 10
8.1233
 20
10.2195
  0
VERTEX
  8
LAYER10
 62
     1
  6
CONTINUOUS
 10
8.1250
 20
10.2216
  0
VERTEX
  8
LAYER10
 62
     1
  6
CONTINUOUS
 10
8.1267
 20
10.2237
  0
VERTEX
  8
LAYER10
 62
     1
  6
CONTINUOUS
 10
8.1284
 20
10.2258
  0
VERTEX
  8
LAYER10
 62
     1
  6
CONTINUOUS
 10
8.1302
 20
10.2277
  0
VERTEX
  8
LAYER10
 62
     1
  6
CONTINUOUS
 10
8.1321
 20
10.2296
  0
VERTEX
  8
LAYER10
 62
     1
  6
CONTINUOUS
 10
8.1341
 20
10.2314
  0
VERTEX
  8
LAYER10
 62
     1
  6
CONTINUOUS
 10
8.1367
 20
10.2335
  0
VERTEX
  8
LAYER10
 62
     1
  6
CONTINUOUS
 10
8.1394
 20
10.2355
  0
VERTEX
  8
LAYER10
 62
     1
  6
CONTINUOUS
 10
8.1422
 20
10.2373
  0
VERTEX
  8
LAYER10
 62
     1
  6
CONTINUOUS
 10
8.1451
 20
10.2391
  0
VERTEX
  8
LAYER10
 62
     1
  6
CONTINUOUS
 10
8.1480
 20
10.2408
  0
VERTEX
  8
LAYER10
 62
     1
  6
CONTINUOUS
 10
8.1510
 20
10.2424
  0
VERTEX
  8
LAYER10
 62
     1
  6
CONTINUOUS
 10
8.1541
 20
10.2440
  0
VERTEX
  8
LAYER10
 62
     1
  6
CONTINUOUS
 10
8.1572
 20
10.2456
  0
VERTEX
  8
LAYER10
 62
     1
  6
CONTINUOUS
 10
8.1602
 20
10.2471
  0
VERTEX
  8
LAYER10
 62
     1
  6
CONTINUOUS
 10
8.1633
 20
10.2487
  0
VERTEX
  8
LAYER10
 62
     1
  6
CONTINUOUS
 10
8.1663
 20
10.2503
  0
VERTEX
  8
LAYER10
 62
     1
  6
CONTINUOUS
 10
8.1693
 20
10.2520
  0
VERTEX
  8
LAYER10
 62
     1
  6
CONTINUOUS
 10
8.1720
 20
10.2536
  0
VERTEX
  8
LAYER10
 62
     1
  6
CONTINUOUS
 10
8.1746
 20
10.2552
  0
VERTEX
  8
LAYER10
 62
     1
  6
CONTINUOUS
 10
8.1771
 20
10.2569
  0
VERTEX
  8
LAYER10
 62
     1
  6
CONTINUOUS
 10
8.1796
 20
10.2586
  0
VERTEX
  8
LAYER10
 62
     1
  6
CONTINUOUS
 10
8.1822
 20
10.2604
  0
VERTEX
  8
LAYER10
 62
     1
  6
CONTINUOUS
 10
8.1846
 20
10.2622
  0
VERTEX
  8
LAYER10
 62
     1
  6
CONTINUOUS
 10
8.1871
 20
10.2639
  0
VERTEX
  8
LAYER10
 62
     1
  6
CONTINUOUS
 10
8.1896
 20
10.2657
  0
VERTEX
  8
LAYER10
 62
     1
  6
CONTINUOUS
 10
8.1921
 20
10.2675
  0
VERTEX
  8
LAYER10
 62
     1
  6
CONTINUOUS
 10
8.1945
 20
10.2692
  0
VERTEX
  8
LAYER10
 62
     1
  6
CONTINUOUS
 10
8.1970
 20
10.2710
  0
VERTEX
  8
LAYER10
 62
     1
  6
CONTINUOUS
 10
8.1995
 20
10.2727
  0
VERTEX
  8
LAYER10
 62
     1
  6
CONTINUOUS
 10
8.2024
 20
10.2745
  0
VERTEX
  8
LAYER10
 62
     1
  6
CONTINUOUS
 10
8.2052
 20
10.2763
  0
VERTEX
  8
LAYER10
 62
     1
  6
CONTINUOUS
 10
8.2081
 20
10.2781
  0
VERTEX
  8
LAYER10
 62
     1
  6
CONTINUOUS
 10
8.2110
 20
10.2798
  0
VERTEX
  8
LAYER10
 62
     1
  6
CONTINUOUS
 10
8.2139
 20
10.2815
  0
VERTEX
  8
LAYER10
 62
     1
  6
CONTINUOUS
 10
8.2169
 20
10.2832
  0
VERTEX
  8
LAYER10
 62
     1
  6
CONTINUOUS
 10
8.2198
 20
10.2849
  0
VERTEX
  8
LAYER10
 62
     1
  6
CONTINUOUS
 10
8.2228
 20
10.2866
  0
VERTEX
  8
LAYER10
 62
     1
  6
CONTINUOUS
 10
8.2258
 20
10.2882
  0
VERTEX
  8
LAYER10
 62
     1
  6
CONTINUOUS
 10
8.2288
 20
10.2899
  0
VERTEX
  8
LAYER10
 62
     1
  6
CONTINUOUS
 10
8.2318
 20
10.2916
  0
VERTEX
  8
LAYER10
 62
     1
  6
CONTINUOUS
 10
8.2348
 20
10.2933
  0
VERTEX
  8
LAYER10
 62
     1
  6
CONTINUOUS
 10
8.2376
 20
10.2950
  0
VERTEX
  8
LAYER10
 62
     1
  6
CONTINUOUS
 10
8.2405
 20
10.2966
  0
VERTEX
  8
LAYER10
 62
     1
  6
CONTINUOUS
 10
8.2433
 20
10.2982
  0
VERTEX
  8
LAYER10
 62
     1
  6
CONTINUOUS
 10
8.2462
 20
10.2998
  0
VERTEX
  8
LAYER10
 62
     1
  6
CONTINUOUS
 10
8.2491
 20
10.3013
  0
VERTEX
  8
LAYER10
 62
     1
  6
CONTINUOUS
 10
8.2520
 20
10.3028
  0
VERTEX
  8
LAYER10
 62
     1
  6
CONTINUOUS
 10
8.2550
 20
10.3042
  0
VERTEX
  8
LAYER10
 62
     1
  6
CONTINUOUS
 10
8.2579
 20
10.3054
  0
VERTEX
  8
LAYER10
 62
     1
  6
CONTINUOUS
 10
8.2609
 20
10.3065
  0
VERTEX
  8
LAYER10
 62
     1
  6
CONTINUOUS
 10
8.2639
 20
10.3075
  0
VERTEX
  8
LAYER10
 62
     1
  6
CONTINUOUS
 10
8.2670
 20
10.3083
  0
VERTEX
  8
LAYER10
 62
     1
  6
CONTINUOUS
 10
8.2701
 20
10.3089
  0
VERTEX
  8
LAYER10
 62
     1
  6
CONTINUOUS
 10
8.2730
 20
10.3093
  0
VERTEX
  8
LAYER10
 62
     1
  6
CONTINUOUS
 10
8.2759
 20
10.3095
  0
VERTEX
  8
LAYER10
 62
     1
  6
CONTINUOUS
 10
8.2789
 20
10.3096
  0
VERTEX
  8
LAYER10
 62
     1
  6
CONTINUOUS
 10
8.2819
 20
10.3094
  0
VERTEX
  8
LAYER10
 62
     1
  6
CONTINUOUS
 10
8.2849
 20
10.3092
  0
VERTEX
  8
LAYER10
 62
     1
  6
CONTINUOUS
 10
8.2879
 20
10.3088
  0
VERTEX
  8
LAYER10
 62
     1
  6
CONTINUOUS
 10
8.2909
 20
10.3083
  0
VERTEX
  8
LAYER10
 62
     1
  6
CONTINUOUS
 10
8.2939
 20
10.3077
  0
VERTEX
  8
LAYER10
 62
     1
  6
CONTINUOUS
 10
8.2969
 20
10.3070
  0
VERTEX
  8
LAYER10
 62
     1
  6
CONTINUOUS
 10
8.2998
 20
10.3061
  0
VERTEX
  8
LAYER10
 62
     1
  6
CONTINUOUS
 10
8.3027
 20
10.3052
  0
VERTEX
  8
LAYER10
 62
     1
  6
CONTINUOUS
 10
8.3056
 20
10.3042
  0
VERTEX
  8
LAYER10
 62
     1
  6
CONTINUOUS
 10
8.3087
 20
10.3031
  0
VERTEX
  8
LAYER10
 62
     1
  6
CONTINUOUS
 10
8.3117
 20
10.3019
  0
VERTEX
  8
LAYER10
 62
     1
  6
CONTINUOUS
 10
8.3147
 20
10.3007
  0
VERTEX
  8
LAYER10
 62
     1
  6
CONTINUOUS
 10
8.3177
 20
10.2994
  0
VERTEX
  8
LAYER10
 62
     1
  6
CONTINUOUS
 10
8.3206
 20
10.2981
  0
VERTEX
  8
LAYER10
 62
     1
  6
CONTINUOUS
 10
8.3235
 20
10.2968
  0
VERTEX
  8
LAYER10
 62
     1
  6
CONTINUOUS
 10
8.3264
 20
10.2954
  0
VERTEX
  8
LAYER10
 62
     1
  6
CONTINUOUS
 10
8.3294
 20
10.2941
  0
VERTEX
  8
LAYER10
 62
     1
  6
CONTINUOUS
 10
8.3323
 20
10.2929
  0
VERTEX
  8
LAYER10
 62
     1
  6
CONTINUOUS
 10
8.3353
 20
10.2917
  0
VERTEX
  8
LAYER10
 62
     1
  6
CONTINUOUS
 10
8.3383
 20
10.2905
  0
VERTEX
  8
LAYER10
 62
     1
  6
CONTINUOUS
 10
8.3413
 20
10.2894
  0
VERTEX
  8
LAYER10
 62
     1
  6
CONTINUOUS
 10
8.3438
 20
10.2886
  0
VERTEX
  8
LAYER10
 62
     1
  6
CONTINUOUS
 10
8.3464
 20
10.2878
  0
VERTEX
  8
LAYER10
 62
     1
  6
CONTINUOUS
 10
8.3490
 20
10.2870
  0
VERTEX
  8
LAYER10
 62
     1
  6
CONTINUOUS
 10
8.3515
 20
10.2863
  0
VERTEX
  8
LAYER10
 62
     1
  6
CONTINUOUS
 10
8.3541
 20
10.2856
  0
VERTEX
  8
LAYER10
 62
     1
  6
CONTINUOUS
 10
8.3567
 20
10.2848
  0
VERTEX
  8
LAYER10
 62
     1
  6
CONTINUOUS
 10
8.3593
 20
10.2841
  0
VERTEX
  8
LAYER10
 62
     1
  6
CONTINUOUS
 10
8.3619
 20
10.2833
  0
VERTEX
  8
LAYER10
 62
     1
  6
CONTINUOUS
 10
8.3644
 20
10.2825
  0
VERTEX
  8
LAYER10
 62
     1
  6
CONTINUOUS
 10
8.3669
 20
10.2816
  0
VERTEX
  8
LAYER10
 62
     1
  6
CONTINUOUS
 10
8.3694
 20
10.2807
  0
VERTEX
  8
LAYER10
 62
     1
  6
CONTINUOUS
 10
8.3718
 20
10.2796
  0
VERTEX
  8
LAYER10
 62
     1
  6
CONTINUOUS
 10
8.3761
 20
10.2775
  0
VERTEX
  8
LAYER10
 62
     1
  6
CONTINUOUS
 10
8.3802
 20
10.2752
  0
VERTEX
  8
LAYER10
 62
     1
  6
CONTINUOUS
 10
8.3842
 20
10.2726
  0
VERTEX
  8
LAYER10
 62
     1
  6
CONTINUOUS
 10
8.3881
 20
10.2698
  0
VERTEX
  8
LAYER10
 62
     1
  6
CONTINUOUS
 10
8.3919
 20
10.2668
  0
VERTEX
  8
LAYER10
 62
     1
  6
CONTINUOUS
 10
8.3956
 20
10.2637
  0
VERTEX
  8
LAYER10
 62
     1
  6
CONTINUOUS
 10
8.3993
 20
10.2606
  0
VERTEX
  8
LAYER10
 62
     1
  6
CONTINUOUS
 10
8.4030
 20
10.2573
  0
VERTEX
  8
LAYER10
 62
     1
  6
CONTINUOUS
 10
8.4067
 20
10.2541
  0
VERTEX
  8
LAYER10
 62
     1
  6
CONTINUOUS
 10
8.4104
 20
10.2509
  0
VERTEX
  8
LAYER10
 62
     1
  6
CONTINUOUS
 10
8.4141
 20
10.2477
  0
VERTEX
  8
LAYER10
 62
     1
  6
CONTINUOUS
 10
8.4178
 20
10.2447
  0
VERTEX
  8
LAYER10
 62
     1
  6
CONTINUOUS
 10
8.4207
 20
10.2424
  0
VERTEX
  8
LAYER10
 62
     1
  6
CONTINUOUS
 10
8.4236
 20
10.2403
  0
VERTEX
  8
LAYER10
 62
     1
  6
CONTINUOUS
 10
8.4265
 20
10.2382
  0
VERTEX
  8
LAYER10
 62
     1
  6
CONTINUOUS
 10
8.4295
 20
10.2361
  0
VERTEX
  8
LAYER10
 62
     1
  6
CONTINUOUS
 10
8.4325
 20
10.2340
  0
VERTEX
  8
LAYER10
 62
     1
  6
CONTINUOUS
 10
8.4355
 20
10.2320
  0
VERTEX
  8
LAYER10
 62
     1
  6
CONTINUOUS
 10
8.4385
 20
10.2300
  0
VERTEX
  8
LAYER10
 62
     1
  6
CONTINUOUS
 10
8.4415
 20
10.2280
  0
VERTEX
  8
LAYER10
 62
     1
  6
CONTINUOUS
 10
8.4445
 20
10.2260
  0
VERTEX
  8
LAYER10
 62
     1
  6
CONTINUOUS
 10
8.4475
 20
10.2239
  0
VERTEX
  8
LAYER10
 62
     1
  6
CONTINUOUS
 10
8.4506
 20
10.2218
  0
VERTEX
  8
LAYER10
 62
     1
  6
CONTINUOUS
 10
8.4536
 20
10.2197
  0
VERTEX
  8
LAYER10
 62
     1
  6
CONTINUOUS
 10
8.4555
 20
10.2183
  0
VERTEX
  8
LAYER10
 62
     1
  6
CONTINUOUS
 10
8.4575
 20
10.2168
  0
VERTEX
  8
LAYER10
 62
     1
  6
CONTINUOUS
 10
8.4594
 20
10.2153
  0
VERTEX
  8
LAYER10
 62
     1
  6
CONTINUOUS
 10
8.4613
 20
10.2138
  0
VERTEX
  8
LAYER10
 62
     1
  6
CONTINUOUS
 10
8.4632
 20
10.2122
  0
VERTEX
  8
LAYER10
 62
     1
  6
CONTINUOUS
 10
8.4650
 20
10.2106
  0
VERTEX
  8
LAYER10
 62
     1
  6
CONTINUOUS
 10
8.4667
 20
10.2089
  0
VERTEX
  8
LAYER10
 62
     1
  6
CONTINUOUS
 10
8.4684
 20
10.2072
  0
VERTEX
  8
LAYER10
 62
     1
  6
CONTINUOUS
 10
8.4699
 20
10.2054
  0
VERTEX
  8
LAYER10
 62
     1
  6
CONTINUOUS
 10
8.4714
 20
10.2035
  0
VERTEX
  8
LAYER10
 62
     1
  6
CONTINUOUS
 10
8.4728
 20
10.2016
  0
VERTEX
  8
LAYER10
 62
     1
  6
CONTINUOUS
 10
8.4741
 20
10.1996
  0
VERTEX
  8
LAYER10
 62
     1
  6
CONTINUOUS
 10
8.4754
 20
10.1972
  0
VERTEX
  8
LAYER10
 62
     1
  6
CONTINUOUS
 10
8.4766
 20
10.1947
  0
VERTEX
  8
LAYER10
 62
     1
  6
CONTINUOUS
 10
8.4778
 20
10.1921
  0
VERTEX
  8
LAYER10
 62
     1
  6
CONTINUOUS
 10
8.4788
 20
10.1895
  0
VERTEX
  8
LAYER10
 62
     1
  6
CONTINUOUS
 10
8.4799
 20
10.1868
  0
VERTEX
  8
LAYER10
 62
     1
  6
CONTINUOUS
 10
8.4809
 20
10.1842
  0
VERTEX
  8
LAYER10
 62
     1
  6
CONTINUOUS
 10
8.4820
 20
10.1816
  0
VERTEX
  8
LAYER10
 62
     1
  6
CONTINUOUS
 10
8.4832
 20
10.1790
  0
VERTEX
  8
LAYER10
 62
     1
  6
CONTINUOUS
 10
8.4845
 20
10.1764
  0
VERTEX
  8
LAYER10
 62
     1
  6
CONTINUOUS
 10
8.4860
 20
10.1740
  0
VERTEX
  8
LAYER10
 62
     1
  6
CONTINUOUS
 10
8.4877
 20
10.1716
  0
VERTEX
  8
LAYER10
 62
     1
  6
CONTINUOUS
 10
8.4896
 20
10.1694
  0
VERTEX
  8
LAYER10
 62
     1
  6
CONTINUOUS
 10
8.4914
 20
10.1676
  0
VERTEX
  8
LAYER10
 62
     1
  6
CONTINUOUS
 10
8.4934
 20
10.1659
  0
VERTEX
  8
LAYER10
 62
     1
  6
CONTINUOUS
 10
8.4955
 20
10.1643
  0
VERTEX
  8
LAYER10
 62
     1
  6
CONTINUOUS
 10
8.4976
 20
10.1627
  0
VERTEX
  8
LAYER10
 62
     1
  6
CONTINUOUS
 10
8.4997
 20
10.1612
  0
VERTEX
  8
LAYER10
 62
     1
  6
CONTINUOUS
 10
8.5017
 20
10.1596
  0
VERTEX
  8
LAYER10
 62
     1
  6
CONTINUOUS
 10
8.5037
 20
10.1580
  0
VERTEX
  8
LAYER10
 62
     1
  6
CONTINUOUS
 10
8.5055
 20
10.1565
  0
VERTEX
  8
LAYER10
 62
     1
  6
CONTINUOUS
 10
8.5071
 20
10.1548
  0
VERTEX
  8
LAYER10
 62
     1
  6
CONTINUOUS
 10
8.5084
 20
10.1531
  0
VERTEX
  8
LAYER10
 62
     1
  6
CONTINUOUS
 10
8.5094
 20
10.1513
  0
VERTEX
  8
LAYER10
 62
     1
  6
CONTINUOUS
 10
8.5101
 20
10.1494
  0
VERTEX
  8
LAYER10
 62
     1
  6
CONTINUOUS
 10
8.5104
 20
10.1479
  0
VERTEX
  8
LAYER10
 62
     1
  6
CONTINUOUS
 10
8.5104
 20
10.1464
  0
VERTEX
  8
LAYER10
 62
     1
  6
CONTINUOUS
 10
8.5103
 20
10.1448
  0
VERTEX
  8
LAYER10
 62
     1
  6
CONTINUOUS
 10
8.5100
 20
10.1431
  0
VERTEX
  8
LAYER10
 62
     1
  6
CONTINUOUS
 10
8.5097
 20
10.1415
  0
VERTEX
  8
LAYER10
 62
     1
  6
CONTINUOUS
 10
8.5092
 20
10.1398
  0
VERTEX
  8
LAYER10
 62
     1
  6
CONTINUOUS
 10
8.5086
 20
10.1380
  0
VERTEX
  8
LAYER10
 62
     1
  6
CONTINUOUS
 10
8.5079
 20
10.1362
  0
VERTEX
  8
LAYER10
 62
     1
  6
CONTINUOUS
 10
8.5073
 20
10.1345
  0
VERTEX
  8
LAYER10
 62
     1
  6
CONTINUOUS
 10
8.5066
 20
10.1327
  0
VERTEX
  8
LAYER10
 62
     1
  6
CONTINUOUS
 10
8.5059
 20
10.1308
  0
VERTEX
  8
LAYER10
 62
     1
  6
CONTINUOUS
 10
8.5053
 20
10.1290
  0
VERTEX
  8
LAYER10
 62
     1
  6
CONTINUOUS
 10
8.5044
 20
10.1263
  0
VERTEX
  8
LAYER10
 62
     1
  6
CONTINUOUS
 10
8.5036
 20
10.1235
  0
VERTEX
  8
LAYER10
 62
     1
  6
CONTINUOUS
 10
8.5029
 20
10.1208
  0
VERTEX
  8
LAYER10
 62
     1
  6
CONTINUOUS
 10
8.5022
 20
10.1181
  0
VERTEX
  8
LAYER10
 62
     1
  6
CONTINUOUS
 10
8.5015
 20
10.1155
  0
VERTEX
  8
LAYER10
 62
     1
  6
CONTINUOUS
 10
8.5009
 20
10.1129
  0
VERTEX
  8
LAYER10
 62
     1
  6
CONTINUOUS
 10
8.5002
 20
10.1103
  0
VERTEX
  8
LAYER10
 62
     1
  6
CONTINUOUS
 10
8.4995
 20
10.1078
  0
VERTEX
  8
LAYER10
 62
     1
  6
CONTINUOUS
 10
8.4987
 20
10.1054
  0
VERTEX
  8
LAYER10
 62
     1
  6
CONTINUOUS
 10
8.4977
 20
10.1030
  0
VERTEX
  8
LAYER10
 62
     1
  6
CONTINUOUS
 10
8.4967
 20
10.1007
  0
VERTEX
  8
LAYER10
 62
     1
  6
CONTINUOUS
 10
8.4955
 20
10.0985
  0
VERTEX
  8
LAYER10
 62
     1
  6
CONTINUOUS
 10
8.4942
 20
10.0966
  0
VERTEX
  8
LAYER10
 62
     1
  6
CONTINUOUS
 10
8.4929
 20
10.0947
  0
VERTEX
  8
LAYER10
 62
     1
  6
CONTINUOUS
 10
8.4914
 20
10.0930
  0
VERTEX
  8
LAYER10
 62
     1
  6
CONTINUOUS
 10
8.4898
 20
10.0912
  0
VERTEX
  8
LAYER10
 62
     1
  6
CONTINUOUS
 10
8.4882
 20
10.0895
  0
VERTEX
  8
LAYER10
 62
     1
  6
CONTINUOUS
 10
8.4864
 20
10.0878
  0
VERTEX
  8
LAYER10
 62
     1
  6
CONTINUOUS
 10
8.4847
 20
10.0862
  0
VERTEX
  8
LAYER10
 62
     1
  6
CONTINUOUS
 10
8.4828
 20
10.0845
  0
VERTEX
  8
LAYER10
 62
     1
  6
CONTINUOUS
 10
8.4810
 20
10.0829
  0
VERTEX
  8
LAYER10
 62
     1
  6
CONTINUOUS
 10
8.4791
 20
10.0813
  0
VERTEX
  8
LAYER10
 62
     1
  6
CONTINUOUS
 10
8.4773
 20
10.0797
  0
VERTEX
  8
LAYER10
 62
     1
  6
CONTINUOUS
 10
8.4754
 20
10.0780
  0
VERTEX
  8
LAYER10
 62
     1
  6
CONTINUOUS
 10
8.4727
 20
10.0755
  0
VERTEX
  8
LAYER10
 62
     1
  6
CONTINUOUS
 10
8.4701
 20
10.0730
  0
VERTEX
  8
LAYER10
 62
     1
  6
CONTINUOUS
 10
8.4675
 20
10.0704
  0
VERTEX
  8
LAYER10
 62
     1
  6
CONTINUOUS
 10
8.4650
 20
10.0678
  0
VERTEX
  8
LAYER10
 62
     1
  6
CONTINUOUS
 10
8.4625
 20
10.0652
  0
VERTEX
  8
LAYER10
 62
     1
  6
CONTINUOUS
 10
8.4601
 20
10.0626
  0
VERTEX
  8
LAYER10
 62
     1
  6
CONTINUOUS
 10
8.4576
 20
10.0600
  0
VERTEX
  8
LAYER10
 62
     1
  6
CONTINUOUS
 10
8.4552
 20
10.0574
  0
VERTEX
  8
LAYER10
 62
     1
  6
CONTINUOUS
 10
8.4528
 20
10.0548
  0
VERTEX
  8
LAYER10
 62
     1
  6
CONTINUOUS
 10
8.4503
 20
10.0523
  0
VERTEX
  8
LAYER10
 62
     1
  6
CONTINUOUS
 10
8.4479
 20
10.0498
  0
VERTEX
  8
LAYER10
 62
     1
  6
CONTINUOUS
 10
8.4453
 20
10.0473
  0
VERTEX
  8
LAYER10
 62
     1
  6
CONTINUOUS
 10
8.4441
 20
10.0460
  0
VERTEX
  8
LAYER10
 62
     1
  6
CONTINUOUS
 10
8.4428
 20
10.0448
  0
VERTEX
  8
LAYER10
 62
     1
  6
CONTINUOUS
 10
8.4415
 20
10.0436
  0
VERTEX
  8
LAYER10
 62
     1
  6
CONTINUOUS
 10
8.4402
 20
10.0424
  0
VERTEX
  8
LAYER10
 62
     1
  6
CONTINUOUS
 10
8.4389
 20
10.0411
  0
VERTEX
  8
LAYER10
 62
     1
  6
CONTINUOUS
 10
8.4377
 20
10.0399
  0
VERTEX
  8
LAYER10
 62
     1
  6
CONTINUOUS
 10
8.4364
 20
10.0386
  0
VERTEX
  8
LAYER10
 62
     1
  6
CONTINUOUS
 10
8.4351
 20
10.0373
  0
VERTEX
  8
LAYER10
 62
     1
  6
CONTINUOUS
 10
8.4339
 20
10.0360
  0
VERTEX
  8
LAYER10
 62
     1
  6
CONTINUOUS
 10
8.4327
 20
10.0347
  0
VERTEX
  8
LAYER10
 62
     1
  6
CONTINUOUS
 10
8.4315
 20
10.0333
  0
VERTEX
  8
LAYER10
 62
     1
  6
CONTINUOUS
 10
8.4303
 20
10.0319
  0
VERTEX
  8
LAYER10
 62
     1
  6
CONTINUOUS
 10
8.4279
 20
10.0287
  0
VERTEX
  8
LAYER10
 62
     1
  6
CONTINUOUS
 10
8.4255
 20
10.0253
  0
VERTEX
  8
LAYER10
 62
     1
  6
CONTINUOUS
 10
8.4232
 20
10.0218
  0
VERTEX
  8
LAYER10
 62
     1
  6
CONTINUOUS
 10
8.4210
 20
10.0183
  0
VERTEX
  8
LAYER10
 62
     1
  6
CONTINUOUS
 10
8.4187
 20
10.0148
  0
VERTEX
  8
LAYER10
 62
     1
  6
CONTINUOUS
 10
8.4165
 20
10.0113
  0
VERTEX
  8
LAYER10
 62
     1
  6
CONTINUOUS
 10
8.4141
 20
10.0081
  0
VERTEX
  8
LAYER10
 62
     1
  6
CONTINUOUS
 10
8.4117
 20
10.0050
  0
VERTEX
  8
LAYER10
 62
     1
  6
CONTINUOUS
 10
8.4091
 20
10.0022
  0
VERTEX
  8
LAYER10
 62
     1
  6
CONTINUOUS
 10
8.4064
 20
9.9998
  0
VERTEX
  8
LAYER10
 62
     1
  6
CONTINUOUS
 10
8.4035
 20
9.9977
  0
VERTEX
  8
LAYER10
 62
     1
  6
CONTINUOUS
 10
8.4003
 20
9.9961
  0
VERTEX
  8
LAYER10
 62
     1
  6
CONTINUOUS
 10
8.3981
 20
9.9953
  0
VERTEX
  8
LAYER10
 62
     1
  6
CONTINUOUS
 10
8.3957
 20
9.9947
  0
VERTEX
  8
LAYER10
 62
     1
  6
CONTINUOUS
 10
8.3933
 20
9.9942
  0
VERTEX
  8
LAYER10
 62
     1
  6
CONTINUOUS
 10
8.3908
 20
9.9938
  0
VERTEX
  8
LAYER10
 62
     1
  6
CONTINUOUS
 10
8.3883
 20
9.9936
  0
VERTEX
  8
LAYER10
 62
     1
  6
CONTINUOUS
 10
8.3857
 20
9.9933
  0
VERTEX
  8
LAYER10
 62
     1
  6
CONTINUOUS
 10
8.3831
 20
9.9931
  0
VERTEX
  8
LAYER10
 62
     1
  6
CONTINUOUS
 10
8.3804
 20
9.9928
  0
VERTEX
  8
LAYER10
 62
     1
  6
CONTINUOUS
 10
8.3778
 20
9.9925
  0
VERTEX
  8
LAYER10
 62
     1
  6
CONTINUOUS
 10
8.3751
 20
9.9920
  0
VERTEX
  8
LAYER10
 62
     1
  6
CONTINUOUS
 10
8.3725
 20
9.9914
  0
VERTEX
  8
LAYER10
 62
     1
  6
CONTINUOUS
 10
8.3699
 20
9.9907
  0
VERTEX
  8
LAYER10
 62
     1
  6
CONTINUOUS
 10
8.3677
 20
9.9898
  0
VERTEX
  8
LAYER10
 62
     1
  6
CONTINUOUS
 10
8.3655
 20
9.9888
  0
VERTEX
  8
LAYER10
 62
     1
  6
CONTINUOUS
 10
8.3633
 20
9.9877
  0
VERTEX
  8
LAYER10
 62
     1
  6
CONTINUOUS
 10
8.3612
 20
9.9866
  0
VERTEX
  8
LAYER10
 62
     1
  6
CONTINUOUS
 10
8.3591
 20
9.9855
  0
VERTEX
  8
LAYER10
 62
     1
  6
CONTINUOUS
 10
8.3570
 20
9.9843
  0
VERTEX
  8
LAYER10
 62
     1
  6
CONTINUOUS
 10
8.3549
 20
9.9833
  0
VERTEX
  8
LAYER10
 62
     1
  6
CONTINUOUS
 10
8.3529
 20
9.9823
  0
VERTEX
  8
LAYER10
 62
     1
  6
CONTINUOUS
 10
8.3508
 20
9.9815
  0
VERTEX
  8
LAYER10
 62
     1
  6
CONTINUOUS
 10
8.3488
 20
9.9808
  0
VERTEX
  8
LAYER10
 62
     1
  6
CONTINUOUS
 10
8.3467
 20
9.9804
  0
VERTEX
  8
LAYER10
 62
     1
  6
CONTINUOUS
 10
8.3447
 20
9.9802
  0
VERTEX
  8
LAYER10
 62
     1
  6
CONTINUOUS
 10
8.3430
 20
9.9803
  0
VERTEX
  8
LAYER10
 62
     1
  6
CONTINUOUS
 10
8.3413
 20
9.9806
  0
VERTEX
  8
LAYER10
 62
     1
  6
CONTINUOUS
 10
8.3396
 20
9.9810
  0
VERTEX
  8
LAYER10
 62
     1
  6
CONTINUOUS
 10
8.3379
 20
9.9816
  0
VERTEX
  8
LAYER10
 62
     1
  6
CONTINUOUS
 10
8.3362
 20
9.9823
  0
VERTEX
  8
LAYER10
 62
     1
  6
CONTINUOUS
 10
8.3345
 20
9.9832
  0
VERTEX
  8
LAYER10
 62
     1
  6
CONTINUOUS
 10
8.3328
 20
9.9842
  0
VERTEX
  8
LAYER10
 62
     1
  6
CONTINUOUS
 10
8.3311
 20
9.9852
  0
VERTEX
  8
LAYER10
 62
     1
  6
CONTINUOUS
 10
8.3294
 20
9.9864
  0
VERTEX
  8
LAYER10
 62
     1
  6
CONTINUOUS
 10
8.3277
 20
9.9876
  0
VERTEX
  8
LAYER10
 62
     1
  6
CONTINUOUS
 10
8.3260
 20
9.9888
  0
VERTEX
  8
LAYER10
 62
     1
  6
CONTINUOUS
 10
8.3243
 20
9.9902
  0
VERTEX
  8
LAYER10
 62
     1
  6
CONTINUOUS
 10
8.3218
 20
9.9921
  0
VERTEX
  8
LAYER10
 62
     1
  6
CONTINUOUS
 10
8.3193
 20
9.9941
  0
VERTEX
  8
LAYER10
 62
     1
  6
CONTINUOUS
 10
8.3168
 20
9.9961
  0
VERTEX
  8
LAYER10
 62
     1
  6
CONTINUOUS
 10
8.3143
 20
9.9980
  0
VERTEX
  8
LAYER10
 62
     1
  6
CONTINUOUS
 10
8.3118
 20
9.9997
  0
VERTEX
  8
LAYER10
 62
     1
  6
CONTINUOUS
 10
8.3093
 20
10.0013
  0
VERTEX
  8
LAYER10
 62
     1
  6
CONTINUOUS
 10
8.3067
 20
10.0027
  0
VERTEX
  8
LAYER10
 62
     1
  6
CONTINUOUS
 10
8.3042
 20
10.0038
  0
VERTEX
  8
LAYER10
 62
     1
  6
CONTINUOUS
 10
8.3016
 20
10.0047
  0
VERTEX
  8
LAYER10
 62
     1
  6
CONTINUOUS
 10
8.2990
 20
10.0052
  0
VERTEX
  8
LAYER10
 62
     1
  6
CONTINUOUS
 10
8.2964
 20
10.0053
  0
VERTEX
  8
LAYER10
 62
     1
  6
CONTINUOUS
 10
8.2937
 20
10.0050
  0
VERTEX
  8
LAYER10
 62
     1
  6
CONTINUOUS
 10
8.2925
 20
10.0047
  0
VERTEX
  8
LAYER10
 62
     1
  6
CONTINUOUS
 10
8.2912
 20
10.0044
  0
VERTEX
  8
LAYER10
 62
     1
  6
CONTINUOUS
 10
8.2899
 20
10.0039
  0
VERTEX
  8
LAYER10
 62
     1
  6
CONTINUOUS
 10
8.2886
 20
10.0034
  0
VERTEX
  8
LAYER10
 62
     1
  6
CONTINUOUS
 10
8.2873
 20
10.0029
  0
VERTEX
  8
LAYER10
 62
     1
  6
CONTINUOUS
 10
8.2860
 20
10.0024
  0
VERTEX
  8
LAYER10
 62
     1
  6
CONTINUOUS
 10
8.2848
 20
10.0018
  0
VERTEX
  8
LAYER10
 62
     1
  6
CONTINUOUS
 10
8.2835
 20
10.0013
  0
VERTEX
  8
LAYER10
 62
     1
  6
CONTINUOUS
 10
8.2823
 20
10.0008
  0
VERTEX
  8
LAYER10
 62
     1
  6
CONTINUOUS
 10
8.2810
 20
10.0004
  0
VERTEX
  8
LAYER10
 62
     1
  6
CONTINUOUS
 10
8.2798
 20
10.0000
  0
VERTEX
  8
LAYER10
 62
     1
  6
CONTINUOUS
 10
8.2786
 20
9.9998
  0
VERTEX
  8
LAYER10
 62
     1
  6
CONTINUOUS
 10
8.2752
 20
9.9996
  0
VERTEX
  8
LAYER10
 62
     1
  6
CONTINUOUS
 10
8.2719
 20
10.0003
  0
VERTEX
  8
LAYER10
 62
     1
  6
CONTINUOUS
 10
8.2688
 20
10.0017
  0
VERTEX
  8
LAYER10
 62
     1
  6
CONTINUOUS
 10
8.2658
 20
10.0037
  0
VERTEX
  8
LAYER10
 62
     1
  6
CONTINUOUS
 10
8.2629
 20
10.0062
  0
VERTEX
  8
LAYER10
 62
     1
  6
CONTINUOUS
 10
8.2601
 20
10.0092
  0
VERTEX
  8
LAYER10
 62
     1
  6
CONTINUOUS
 10
8.2573
 20
10.0124
  0
VERTEX
  8
LAYER10
 62
     1
  6
CONTINUOUS
 10
8.2544
 20
10.0159
  0
VERTEX
  8
LAYER10
 62
     1
  6
CONTINUOUS
 10
8.2516
 20
10.0194
  0
VERTEX
  8
LAYER10
 62
     1
  6
CONTINUOUS
 10
8.2487
 20
10.0230
  0
SEQEND
  8
LAYER10
  0
POLYLINE
  8
LAYER10
 62
     1
 66
     1
  6
CONTINUOUS
  0
VERTEX
  8
LAYER10
 62
     1
  6
CONTINUOUS
 10
8.2487
 20
10.0230
  0
VERTEX
  8
LAYER10
 62
     1
  6
CONTINUOUS
 10
8.2458
 20
10.0265
  0
VERTEX
  8
LAYER10
 62
     1
  6
CONTINUOUS
 10
8.2428
 20
10.0298
  0
VERTEX
  8
LAYER10
 62
     1
  6
CONTINUOUS
 10
8.2394
 20
10.0331
  0
VERTEX
  8
LAYER10
 62
     1
  6
CONTINUOUS
 10
8.2358
 20
10.0360
  0
VERTEX
  8
LAYER10
 62
     1
  6
CONTINUOUS
 10
8.2322
 20
10.0388
  0
VERTEX
  8
LAYER10
 62
     1
  6
CONTINUOUS
 10
8.2286
 20
10.0413
  0
VERTEX
  8
LAYER10
 62
     1
  6
CONTINUOUS
 10
8.2250
 20
10.0436
  0
VERTEX
  8
LAYER10
 62
     1
  6
CONTINUOUS
 10
8.2213
 20
10.0459
  0
VERTEX
  8
LAYER10
 62
     1
  6
CONTINUOUS
 10
8.2178
 20
10.0480
  0
VERTEX
  8
LAYER10
 62
     1
  6
CONTINUOUS
 10
8.2143
 20
10.0502
  0
VERTEX
  8
LAYER10
 62
     1
  6
CONTINUOUS
 10
8.2109
 20
10.0524
  0
VERTEX
  8
LAYER10
 62
     1
  6
CONTINUOUS
 10
8.2077
 20
10.0547
  0
VERTEX
  8
LAYER10
 62
     1
  6
CONTINUOUS
 10
8.2047
 20
10.0571
  0
VERTEX
  8
LAYER10
 62
     1
  6
CONTINUOUS
 10
8.2019
 20
10.0598
  0
VERTEX
  8
LAYER10
 62
     1
  6
CONTINUOUS
 10
8.2002
 20
10.0615
  0
VERTEX
  8
LAYER10
 62
     1
  6
CONTINUOUS
 10
8.1986
 20
10.0634
  0
VERTEX
  8
LAYER10
 62
     1
  6
CONTINUOUS
 10
8.1970
 20
10.0654
  0
VERTEX
  8
LAYER10
 62
     1
  6
CONTINUOUS
 10
8.1955
 20
10.0674
  0
VERTEX
  8
LAYER10
 62
     1
  6
CONTINUOUS
 10
8.1940
 20
10.0695
  0
VERTEX
  8
LAYER10
 62
     1
  6
CONTINUOUS
 10
8.1925
 20
10.0716
  0
VERTEX
  8
LAYER10
 62
     1
  6
CONTINUOUS
 10
8.1909
 20
10.0738
  0
VERTEX
  8
LAYER10
 62
     1
  6
CONTINUOUS
 10
8.1892
 20
10.0760
  0
VERTEX
  8
LAYER10
 62
     1
  6
CONTINUOUS
 10
8.1874
 20
10.0782
  0
VERTEX
  8
LAYER10
 62
     1
  6
CONTINUOUS
 10
8.1856
 20
10.0804
  0
VERTEX
  8
LAYER10
 62
     1
  6
CONTINUOUS
 10
8.1835
 20
10.0826
  0
VERTEX
  8
LAYER10
 62
     1
  6
CONTINUOUS
 10
8.1813
 20
10.0849
  0
VERTEX
  8
LAYER10
 62
     1
  6
CONTINUOUS
 10
8.1772
 20
10.0886
  0
VERTEX
  8
LAYER10
 62
     1
  6
CONTINUOUS
 10
8.1726
 20
10.0923
  0
VERTEX
  8
LAYER10
 62
     1
  6
CONTINUOUS
 10
8.1678
 20
10.0958
  0
VERTEX
  8
LAYER10
 62
     1
  6
CONTINUOUS
 10
8.1628
 20
10.0992
  0
VERTEX
  8
LAYER10
 62
     1
  6
CONTINUOUS
 10
8.1579
 20
10.1023
  0
VERTEX
  8
LAYER10
 62
     1
  6
CONTINUOUS
 10
8.1531
 20
10.1052
  0
VERTEX
  8
LAYER10
 62
     1
  6
CONTINUOUS
 10
8.1486
 20
10.1078
  0
VERTEX
  8
LAYER10
 62
     1
  6
CONTINUOUS
 10
8.1445
 20
10.1101
  0
VERTEX
  8
LAYER10
 62
     1
  6
CONTINUOUS
 10
8.1410
 20
10.1119
  0
VERTEX
  8
LAYER10
 62
     1
  6
CONTINUOUS
 10
8.1382
 20
10.1134
  0
VERTEX
  8
LAYER10
 62
     1
  6
CONTINUOUS
 10
8.1363
 20
10.1143
  0
VERTEX
  8
LAYER10
 62
     1
  6
CONTINUOUS
 10
8.1354
 20
10.1148
  0
VERTEX
  8
LAYER10
 62
     1
  6
CONTINUOUS
 10
8.1353
 20
10.1148
  0
VERTEX
  8
LAYER10
 62
     1
  6
CONTINUOUS
 10
8.1353
 20
10.1148
  0
VERTEX
  8
LAYER10
 62
     1
  6
CONTINUOUS
 10
8.1353
 20
10.1148
  0
VERTEX
  8
LAYER10
 62
     1
  6
CONTINUOUS
 10
8.1353
 20
10.1148
  0
VERTEX
  8
LAYER10
 62
     1
  6
CONTINUOUS
 10
8.1353
 20
10.1148
  0
VERTEX
  8
LAYER10
 62
     1
  6
CONTINUOUS
 10
8.1353
 20
10.1148
  0
VERTEX
  8
LAYER10
 62
     1
  6
CONTINUOUS
 10
8.1353
 20
10.1148
  0
VERTEX
  8
LAYER10
 62
     1
  6
CONTINUOUS
 10
8.1353
 20
10.1148
  0
VERTEX
  8
LAYER10
 62
     1
  6
CONTINUOUS
 10
8.1353
 20
10.1148
  0
VERTEX
  8
LAYER10
 62
     1
  6
CONTINUOUS
 10
8.1353
 20
10.1148
  0
VERTEX
  8
LAYER10
 62
     1
  6
CONTINUOUS
 10
8.1354
 20
10.1148
  0
VERTEX
  8
LAYER10
 62
     1
  6
CONTINUOUS
 10
8.1354
 20
10.1148
  0
SEQEND
  8
LAYER10
  0
POLYLINE
  8
LAYER10
 62
     1
 66
     1
  6
CONTINUOUS
  0
VERTEX
  8
LAYER10
 62
     1
  6
CONTINUOUS
 10
8.1354
 20
10.1148
  0
VERTEX
  8
LAYER10
 62
     1
  6
CONTINUOUS
 10
8.1329
 20
10.1180
  0
VERTEX
  8
LAYER10
 62
     1
  6
CONTINUOUS
 10
8.1304
 20
10.1212
  0
VERTEX
  8
LAYER10
 62
     1
  6
CONTINUOUS
 10
8.1280
 20
10.1244
  0
VERTEX
  8
LAYER10
 62
     1
  6
CONTINUOUS
 10
8.1256
 20
10.1276
  0
VERTEX
  8
LAYER10
 62
     1
  6
CONTINUOUS
 10
8.1232
 20
10.1309
  0
VERTEX
  8
LAYER10
 62
     1
  6
CONTINUOUS
 10
8.1210
 20
10.1342
  0
VERTEX
  8
LAYER10
 62
     1
  6
CONTINUOUS
 10
8.1188
 20
10.1375
  0
VERTEX
  8
LAYER10
 62
     1
  6
CONTINUOUS
 10
8.1167
 20
10.1409
  0
VERTEX
  8
LAYER10
 62
     1
  6
CONTINUOUS
 10
8.1147
 20
10.1444
  0
VERTEX
  8
LAYER10
 62
     1
  6
CONTINUOUS
 10
8.1129
 20
10.1479
  0
VERTEX
  8
LAYER10
 62
     1
  6
CONTINUOUS
 10
8.1111
 20
10.1514
  0
VERTEX
  8
LAYER10
 62
     1
  6
CONTINUOUS
 10
8.1096
 20
10.1550
  0
VERTEX
  8
LAYER10
 62
     1
  6
CONTINUOUS
 10
8.1089
 20
10.1567
  0
VERTEX
  8
LAYER10
 62
     1
  6
CONTINUOUS
 10
8.1083
 20
10.1583
  0
VERTEX
  8
LAYER10
 62
     1
  6
CONTINUOUS
 10
8.1078
 20
10.1599
  0
VERTEX
  8
LAYER10
 62
     1
  6
CONTINUOUS
 10
8.1072
 20
10.1616
  0
VERTEX
  8
LAYER10
 62
     1
  6
CONTINUOUS
 10
8.1067
 20
10.1633
  0
VERTEX
  8
LAYER10
 62
     1
  6
CONTINUOUS
 10
8.1063
 20
10.1649
  0
VERTEX
  8
LAYER10
 62
     1
  6
CONTINUOUS
 10
8.1058
 20
10.1666
  0
VERTEX
  8
LAYER10
 62
     1
  6
CONTINUOUS
 10
8.1055
 20
10.1683
  0
VERTEX
  8
LAYER10
 62
     1
  6
CONTINUOUS
 10
8.1051
 20
10.1701
  0
VERTEX
  8
LAYER10
 62
     1
  6
CONTINUOUS
 10
8.1048
 20
10.1718
  0
VERTEX
  8
LAYER10
 62
     1
  6
CONTINUOUS
 10
8.1045
 20
10.1735
  0
VERTEX
  8
LAYER10
 62
     1
  6
CONTINUOUS
 10
8.1043
 20
10.1753
  0
VERTEX
  8
LAYER10
 62
     1
  6
CONTINUOUS
 10
8.1042
 20
10.1761
  0
VERTEX
  8
LAYER10
 62
     1
  6
CONTINUOUS
 10
8.1041
 20
10.1770
  0
VERTEX
  8
LAYER10
 62
     1
  6
CONTINUOUS
 10
8.1040
 20
10.1778
  0
VERTEX
  8
LAYER10
 62
     1
  6
CONTINUOUS
 10
8.1040
 20
10.1787
  0
VERTEX
  8
LAYER10
 62
     1
  6
CONTINUOUS
 10
8.1039
 20
10.1795
  0
VERTEX
  8
LAYER10
 62
     1
  6
CONTINUOUS
 10
8.1039
 20
10.1804
  0
VERTEX
  8
LAYER10
 62
     1
  6
CONTINUOUS
 10
8.1039
 20
10.1812
  0
VERTEX
  8
LAYER10
 62
     1
  6
CONTINUOUS
 10
8.1039
 20
10.1821
  0
VERTEX
  8
LAYER10
 62
     1
  6
CONTINUOUS
 10
8.1039
 20
10.1829
  0
VERTEX
  8
LAYER10
 62
     1
  6
CONTINUOUS
 10
8.1040
 20
10.1838
  0
VERTEX
  8
LAYER10
 62
     1
  6
CONTINUOUS
 10
8.1041
 20
10.1846
  0
VERTEX
  8
LAYER10
 62
     1
  6
CONTINUOUS
 10
8.1042
 20
10.1854
  0
VERTEX
  8
LAYER10
 62
     1
  6
CONTINUOUS
 10
8.1045
 20
10.1872
  0
VERTEX
  8
LAYER10
 62
     1
  6
CONTINUOUS
 10
8.1050
 20
10.1890
  0
VERTEX
  8
LAYER10
 62
     1
  6
CONTINUOUS
 10
8.1056
 20
10.1908
  0
VERTEX
  8
LAYER10
 62
     1
  6
CONTINUOUS
 10
8.1062
 20
10.1925
  0
VERTEX
  8
LAYER10
 62
     1
  6
CONTINUOUS
 10
8.1070
 20
10.1942
  0
VERTEX
  8
LAYER10
 62
     1
  6
CONTINUOUS
 10
8.1079
 20
10.1959
  0
VERTEX
  8
LAYER10
 62
     1
  6
CONTINUOUS
 10
8.1088
 20
10.1976
  0
VERTEX
  8
LAYER10
 62
     1
  6
CONTINUOUS
 10
8.1098
 20
10.1993
  0
VERTEX
  8
LAYER10
 62
     1
  6
CONTINUOUS
 10
8.1108
 20
10.2009
  0
VERTEX
  8
LAYER10
 62
     1
  6
CONTINUOUS
 10
8.1119
 20
10.2025
  0
VERTEX
  8
LAYER10
 62
     1
  6
CONTINUOUS
 10
8.1130
 20
10.2042
  0
VERTEX
  8
LAYER10
 62
     1
  6
CONTINUOUS
 10
8.1141
 20
10.2058
  0
SEQEND
  8
LAYER10
  0
POLYLINE
  8
LAYER10
 62
     1
 66
     1
  6
CONTINUOUS
  0
VERTEX
  8
LAYER10
 62
     1
  6
CONTINUOUS
 10
9.0374
 20
9.6888
  0
VERTEX
  8
LAYER10
 62
     1
  6
CONTINUOUS
 10
9.0380
 20
9.6867
  0
VERTEX
  8
LAYER10
 62
     1
  6
CONTINUOUS
 10
9.0386
 20
9.6846
  0
VERTEX
  8
LAYER10
 62
     1
  6
CONTINUOUS
 10
9.0392
 20
9.6825
  0
VERTEX
  8
LAYER10
 62
     1
  6
CONTINUOUS
 10
9.0398
 20
9.6803
  0
VERTEX
  8
LAYER10
 62
     1
  6
CONTINUOUS
 10
9.0403
 20
9.6782
  0
VERTEX
  8
LAYER10
 62
     1
  6
CONTINUOUS
 10
9.0408
 20
9.6761
  0
VERTEX
  8
LAYER10
 62
     1
  6
CONTINUOUS
 10
9.0413
 20
9.6740
  0
VERTEX
  8
LAYER10
 62
     1
  6
CONTINUOUS
 10
9.0417
 20
9.6719
  0
VERTEX
  8
LAYER10
 62
     1
  6
CONTINUOUS
 10
9.0421
 20
9.6698
  0
VERTEX
  8
LAYER10
 62
     1
  6
CONTINUOUS
 10
9.0424
 20
9.6677
  0
VERTEX
  8
LAYER10
 62
     1
  6
CONTINUOUS
 10
9.0426
 20
9.6656
  0
VERTEX
  8
LAYER10
 62
     1
  6
CONTINUOUS
 10
9.0427
 20
9.6636
  0
VERTEX
  8
LAYER10
 62
     1
  6
CONTINUOUS
 10
9.0428
 20
9.6610
  0
VERTEX
  8
LAYER10
 62
     1
  6
CONTINUOUS
 10
9.0427
 20
9.6584
  0
VERTEX
  8
LAYER10
 62
     1
  6
CONTINUOUS
 10
9.0425
 20
9.6559
  0
VERTEX
  8
LAYER10
 62
     1
  6
CONTINUOUS
 10
9.0421
 20
9.6534
  0
VERTEX
  8
LAYER10
 62
     1
  6
CONTINUOUS
 10
9.0415
 20
9.6508
  0
VERTEX
  8
LAYER10
 62
     1
  6
CONTINUOUS
 10
9.0408
 20
9.6483
  0
VERTEX
  8
LAYER10
 62
     1
  6
CONTINUOUS
 10
9.0400
 20
9.6458
  0
VERTEX
  8
LAYER10
 62
     1
  6
CONTINUOUS
 10
9.0389
 20
9.6432
  0
VERTEX
  8
LAYER10
 62
     1
  6
CONTINUOUS
 10
9.0377
 20
9.6407
  0
VERTEX
  8
LAYER10
 62
     1
  6
CONTINUOUS
 10
9.0363
 20
9.6381
  0
VERTEX
  8
LAYER10
 62
     1
  6
CONTINUOUS
 10
9.0347
 20
9.6356
  0
VERTEX
  8
LAYER10
 62
     1
  6
CONTINUOUS
 10
9.0329
 20
9.6330
  0
VERTEX
  8
LAYER10
 62
     1
  6
CONTINUOUS
 10
9.0295
 20
9.6287
  0
VERTEX
  8
LAYER10
 62
     1
  6
CONTINUOUS
 10
9.0256
 20
9.6244
  0
VERTEX
  8
LAYER10
 62
     1
  6
CONTINUOUS
 10
9.0214
 20
9.6201
  0
VERTEX
  8
LAYER10
 62
     1
  6
CONTINUOUS
 10
9.0170
 20
9.6161
  0
VERTEX
  8
LAYER10
 62
     1
  6
CONTINUOUS
 10
9.0126
 20
9.6122
  0
VERTEX
  8
LAYER10
 62
     1
  6
CONTINUOUS
 10
9.0084
 20
9.6087
  0
VERTEX
  8
LAYER10
 62
     1
  6
CONTINUOUS
 10
9.0043
 20
9.6055
  0
VERTEX
  8
LAYER10
 62
     1
  6
CONTINUOUS
 10
9.0007
 20
9.6027
  0
VERTEX
  8
LAYER10
 62
     1
  6
CONTINUOUS
 10
8.9976
 20
9.6004
  0
VERTEX
  8
LAYER10
 62
     1
  6
CONTINUOUS
 10
8.9951
 20
9.5986
  0
VERTEX
  8
LAYER10
 62
     1
  6
CONTINUOUS
 10
8.9935
 20
9.5975
  0
VERTEX
  8
LAYER10
 62
     1
  6
CONTINUOUS
 10
8.9928
 20
9.5971
  0
VERTEX
  8
LAYER10
 62
     1
  6
CONTINUOUS
 10
8.9927
 20
9.5971
  0
VERTEX
  8
LAYER10
 62
     1
  6
CONTINUOUS
 10
8.9927
 20
9.5971
  0
VERTEX
  8
LAYER10
 62
     1
  6
CONTINUOUS
 10
8.9927
 20
9.5971
  0
VERTEX
  8
LAYER10
 62
     1
  6
CONTINUOUS
 10
8.9927
 20
9.5971
  0
VERTEX
  8
LAYER10
 62
     1
  6
CONTINUOUS
 10
8.9927
 20
9.5971
  0
VERTEX
  8
LAYER10
 62
     1
  6
CONTINUOUS
 10
8.9927
 20
9.5971
  0
VERTEX
  8
LAYER10
 62
     1
  6
CONTINUOUS
 10
8.9928
 20
9.5971
  0
VERTEX
  8
LAYER10
 62
     1
  6
CONTINUOUS
 10
8.9928
 20
9.5971
  0
VERTEX
  8
LAYER10
 62
     1
  6
CONTINUOUS
 10
8.9928
 20
9.5971
  0
VERTEX
  8
LAYER10
 62
     1
  6
CONTINUOUS
 10
8.9928
 20
9.5971
  0
VERTEX
  8
LAYER10
 62
     1
  6
CONTINUOUS
 10
8.9928
 20
9.5971
  0
VERTEX
  8
LAYER10
 62
     1
  6
CONTINUOUS
 10
8.9928
 20
9.5971
  0
VERTEX
  8
LAYER10
 62
     1
  6
CONTINUOUS
 10
8.9923
 20
9.5965
  0
VERTEX
  8
LAYER10
 62
     1
  6
CONTINUOUS
 10
8.9913
 20
9.5951
  0
VERTEX
  8
LAYER10
 62
     1
  6
CONTINUOUS
 10
8.9898
 20
9.5931
  0
VERTEX
  8
LAYER10
 62
     1
  6
CONTINUOUS
 10
8.9878
 20
9.5906
  0
VERTEX
  8
LAYER10
 62
     1
  6
CONTINUOUS
 10
8.9854
 20
9.5875
  0
VERTEX
  8
LAYER10
 62
     1
  6
CONTINUOUS
 10
8.9826
 20
9.5842
  0
VERTEX
  8
LAYER10
 62
     1
  6
CONTINUOUS
 10
8.9796
 20
9.5805
  0
VERTEX
  8
LAYER10
 62
     1
  6
CONTINUOUS
 10
8.9764
 20
9.5766
  0
VERTEX
  8
LAYER10
 62
     1
  6
CONTINUOUS
 10
8.9730
 20
9.5727
  0
VERTEX
  8
LAYER10
 62
     1
  6
CONTINUOUS
 10
8.9696
 20
9.5688
  0
VERTEX
  8
LAYER10
 62
     1
  6
CONTINUOUS
 10
8.9661
 20
9.5649
  0
VERTEX
  8
LAYER10
 62
     1
  6
CONTINUOUS
 10
8.9627
 20
9.5613
  0
VERTEX
  8
LAYER10
 62
     1
  6
CONTINUOUS
 10
8.9597
 20
9.5581
  0
VERTEX
  8
LAYER10
 62
     1
  6
CONTINUOUS
 10
8.9567
 20
9.5552
  0
VERTEX
  8
LAYER10
 62
     1
  6
CONTINUOUS
 10
8.9538
 20
9.5524
  0
VERTEX
  8
LAYER10
 62
     1
  6
CONTINUOUS
 10
8.9509
 20
9.5499
  0
VERTEX
  8
LAYER10
 62
     1
  6
CONTINUOUS
 10
8.9481
 20
9.5476
  0
VERTEX
  8
LAYER10
 62
     1
  6
CONTINUOUS
 10
8.9452
 20
9.5454
  0
VERTEX
  8
LAYER10
 62
     1
  6
CONTINUOUS
 10
8.9424
 20
9.5435
  0
VERTEX
  8
LAYER10
 62
     1
  6
CONTINUOUS
 10
8.9395
 20
9.5416
  0
VERTEX
  8
LAYER10
 62
     1
  6
CONTINUOUS
 10
8.9366
 20
9.5399
  0
VERTEX
  8
LAYER10
 62
     1
  6
CONTINUOUS
 10
8.9337
 20
9.5384
  0
VERTEX
  8
LAYER10
 62
     1
  6
CONTINUOUS
 10
8.9307
 20
9.5369
  0
VERTEX
  8
LAYER10
 62
     1
  6
CONTINUOUS
 10
8.9275
 20
9.5355
  0
VERTEX
  8
LAYER10
 62
     1
  6
CONTINUOUS
 10
8.9252
 20
9.5346
  0
VERTEX
  8
LAYER10
 62
     1
  6
CONTINUOUS
 10
8.9227
 20
9.5337
  0
VERTEX
  8
LAYER10
 62
     1
  6
CONTINUOUS
 10
8.9203
 20
9.5328
  0
VERTEX
  8
LAYER10
 62
     1
  6
CONTINUOUS
 10
8.9178
 20
9.5319
  0
VERTEX
  8
LAYER10
 62
     1
  6
CONTINUOUS
 10
8.9152
 20
9.5311
  0
VERTEX
  8
LAYER10
 62
     1
  6
CONTINUOUS
 10
8.9127
 20
9.5303
  0
VERTEX
  8
LAYER10
 62
     1
  6
CONTINUOUS
 10
8.9101
 20
9.5294
  0
VERTEX
  8
LAYER10
 62
     1
  6
CONTINUOUS
 10
8.9075
 20
9.5286
  0
VERTEX
  8
LAYER10
 62
     1
  6
CONTINUOUS
 10
8.9049
 20
9.5278
  0
VERTEX
  8
LAYER10
 62
     1
  6
CONTINUOUS
 10
8.9023
 20
9.5269
  0
VERTEX
  8
LAYER10
 62
     1
  6
CONTINUOUS
 10
8.8998
 20
9.5260
  0
VERTEX
  8
LAYER10
 62
     1
  6
CONTINUOUS
 10
8.8972
 20
9.5250
  0
VERTEX
  8
LAYER10
 62
     1
  6
CONTINUOUS
 10
8.8951
 20
9.5242
  0
VERTEX
  8
LAYER10
 62
     1
  6
CONTINUOUS
 10
8.8930
 20
9.5234
  0
VERTEX
  8
LAYER10
 62
     1
  6
CONTINUOUS
 10
8.8910
 20
9.5225
  0
VERTEX
  8
LAYER10
 62
     1
  6
CONTINUOUS
 10
8.8889
 20
9.5216
  0
VERTEX
  8
LAYER10
 62
     1
  6
CONTINUOUS
 10
8.8869
 20
9.5207
  0
VERTEX
  8
LAYER10
 62
     1
  6
CONTINUOUS
 10
8.8848
 20
9.5198
  0
VERTEX
  8
LAYER10
 62
     1
  6
CONTINUOUS
 10
8.8828
 20
9.5188
  0
VERTEX
  8
LAYER10
 62
     1
  6
CONTINUOUS
 10
8.8808
 20
9.5179
  0
VERTEX
  8
LAYER10
 62
     1
  6
CONTINUOUS
 10
8.8788
 20
9.5169
  0
VERTEX
  8
LAYER10
 62
     1
  6
CONTINUOUS
 10
8.8768
 20
9.5159
  0
VERTEX
  8
LAYER10
 62
     1
  6
CONTINUOUS
 10
8.8748
 20
9.5149
  0
VERTEX
  8
LAYER10
 62
     1
  6
CONTINUOUS
 10
8.8728
 20
9.5139
  0
SEQEND
  8
LAYER10
  0
POLYLINE
  8
LAYER10
 62
     1
 66
     1
  6
CONTINUOUS
  0
VERTEX
  8
LAYER10
 62
     1
  6
CONTINUOUS
 10
8.8270
 20
9.5139
  0
VERTEX
  8
LAYER10
 62
     1
  6
CONTINUOUS
 10
8.8270
 20
9.5139
  0
VERTEX
  8
LAYER10
 62
     1
  6
CONTINUOUS
 10
8.8269
 20
9.5140
  0
VERTEX
  8
LAYER10
 62
     1
  6
CONTINUOUS
 10
8.8269
 20
9.5140
  0
VERTEX
  8
LAYER10
 62
     1
  6
CONTINUOUS
 10
8.8268
 20
9.5140
  0
VERTEX
  8
LAYER10
 62
     1
  6
CONTINUOUS
 10
8.8268
 20
9.5140
  0
VERTEX
  8
LAYER10
 62
     1
  6
CONTINUOUS
 10
8.8267
 20
9.5140
  0
VERTEX
  8
LAYER10
 62
     1
  6
CONTINUOUS
 10
8.8267
 20
9.5141
  0
VERTEX
  8
LAYER10
 62
     1
  6
CONTINUOUS
 10
8.8266
 20
9.5141
  0
VERTEX
  8
LAYER10
 62
     1
  6
CONTINUOUS
 10
8.8266
 20
9.5141
  0
VERTEX
  8
LAYER10
 62
     1
  6
CONTINUOUS
 10
8.8265
 20
9.5141
  0
VERTEX
  8
LAYER10
 62
     1
  6
CONTINUOUS
 10
8.8264
 20
9.5141
  0
VERTEX
  8
LAYER10
 62
     1
  6
CONTINUOUS
 10
8.8264
 20
9.5141
  0
VERTEX
  8
LAYER10
 62
     1
  6
CONTINUOUS
 10
8.8227
 20
9.5155
  0
VERTEX
  8
LAYER10
 62
     1
  6
CONTINUOUS
 10
8.8190
 20
9.5171
  0
VERTEX
  8
LAYER10
 62
     1
  6
CONTINUOUS
 10
8.8154
 20
9.5188
  0
VERTEX
  8
LAYER10
 62
     1
  6
CONTINUOUS
 10
8.8118
 20
9.5206
  0
VERTEX
  8
LAYER10
 62
     1
  6
CONTINUOUS
 10
8.8084
 20
9.5226
  0
VERTEX
  8
LAYER10
 62
     1
  6
CONTINUOUS
 10
8.8050
 20
9.5247
  0
VERTEX
  8
LAYER10
 62
     1
  6
CONTINUOUS
 10
8.8016
 20
9.5269
  0
VERTEX
  8
LAYER10
 62
     1
  6
CONTINUOUS
 10
8.7983
 20
9.5292
  0
VERTEX
  8
LAYER10
 62
     1
  6
CONTINUOUS
 10
8.7950
 20
9.5316
  0
VERTEX
  8
LAYER10
 62
     1
  6
CONTINUOUS
 10
8.7918
 20
9.5340
  0
VERTEX
  8
LAYER10
 62
     1
  6
CONTINUOUS
 10
8.7887
 20
9.5365
  0
VERTEX
  8
LAYER10
 62
     1
  6
CONTINUOUS
 10
8.7856
 20
9.5390
  0
VERTEX
  8
LAYER10
 62
     1
  6
CONTINUOUS
 10
8.7826
 20
9.5415
  0
VERTEX
  8
LAYER10
 62
     1
  6
CONTINUOUS
 10
8.7796
 20
9.5440
  0
VERTEX
  8
LAYER10
 62
     1
  6
CONTINUOUS
 10
8.7766
 20
9.5466
  0
VERTEX
  8
LAYER10
 62
     1
  6
CONTINUOUS
 10
8.7737
 20
9.5491
  0
VERTEX
  8
LAYER10
 62
     1
  6
CONTINUOUS
 10
8.7708
 20
9.5516
  0
VERTEX
  8
LAYER10
 62
     1
  6
CONTINUOUS
 10
8.7678
 20
9.5542
  0
VERTEX
  8
LAYER10
 62
     1
  6
CONTINUOUS
 10
8.7649
 20
9.5567
  0
VERTEX
  8
LAYER10
 62
     1
  6
CONTINUOUS
 10
8.7619
 20
9.5592
  0
VERTEX
  8
LAYER10
 62
     1
  6
CONTINUOUS
 10
8.7589
 20
9.5617
  0
VERTEX
  8
LAYER10
 62
     1
  6
CONTINUOUS
 10
8.7559
 20
9.5642
  0
VERTEX
  8
LAYER10
 62
     1
  6
CONTINUOUS
 10
8.7529
 20
9.5666
  0
VERTEX
  8
LAYER10
 62
     1
  6
CONTINUOUS
 10
8.7497
 20
9.5691
  0
VERTEX
  8
LAYER10
 62
     1
  6
CONTINUOUS
 10
8.7468
 20
9.5713
  0
VERTEX
  8
LAYER10
 62
     1
  6
CONTINUOUS
 10
8.7438
 20
9.5734
  0
VERTEX
  8
LAYER10
 62
     1
  6
CONTINUOUS
 10
8.7408
 20
9.5756
  0
VERTEX
  8
LAYER10
 62
     1
  6
CONTINUOUS
 10
8.7377
 20
9.5777
  0
VERTEX
  8
LAYER10
 62
     1
  6
CONTINUOUS
 10
8.7347
 20
9.5798
  0
VERTEX
  8
LAYER10
 62
     1
  6
CONTINUOUS
 10
8.7316
 20
9.5819
  0
VERTEX
  8
LAYER10
 62
     1
  6
CONTINUOUS
 10
8.7286
 20
9.5840
  0
VERTEX
  8
LAYER10
 62
     1
  6
CONTINUOUS
 10
8.7256
 20
9.5860
  0
VERTEX
  8
LAYER10
 62
     1
  6
CONTINUOUS
 10
8.7226
 20
9.5880
  0
VERTEX
  8
LAYER10
 62
     1
  6
CONTINUOUS
 10
8.7197
 20
9.5900
  0
VERTEX
  8
LAYER10
 62
     1
  6
CONTINUOUS
 10
8.7168
 20
9.5920
  0
VERTEX
  8
LAYER10
 62
     1
  6
CONTINUOUS
 10
8.7140
 20
9.5940
  0
VERTEX
  8
LAYER10
 62
     1
  6
CONTINUOUS
 10
8.7119
 20
9.5955
  0
VERTEX
  8
LAYER10
 62
     1
  6
CONTINUOUS
 10
8.7099
 20
9.5969
  0
VERTEX
  8
LAYER10
 62
     1
  6
CONTINUOUS
 10
8.7079
 20
9.5984
  0
VERTEX
  8
LAYER10
 62
     1
  6
CONTINUOUS
 10
8.7059
 20
9.6000
  0
VERTEX
  8
LAYER10
 62
     1
  6
CONTINUOUS
 10
8.7039
 20
9.6015
  0
VERTEX
  8
LAYER10
 62
     1
  6
CONTINUOUS
 10
8.7018
 20
9.6031
  0
VERTEX
  8
LAYER10
 62
     1
  6
CONTINUOUS
 10
8.6997
 20
9.6047
  0
VERTEX
  8
LAYER10
 62
     1
  6
CONTINUOUS
 10
8.6976
 20
9.6064
  0
VERTEX
  8
LAYER10
 62
     1
  6
CONTINUOUS
 10
8.6954
 20
9.6082
  0
VERTEX
  8
LAYER10
 62
     1
  6
CONTINUOUS
 10
8.6932
 20
9.6100
  0
VERTEX
  8
LAYER10
 62
     1
  6
CONTINUOUS
 10
8.6908
 20
9.6120
  0
VERTEX
  8
LAYER10
 62
     1
  6
CONTINUOUS
 10
8.6884
 20
9.6140
  0
VERTEX
  8
LAYER10
 62
     1
  6
CONTINUOUS
 10
8.6841
 20
9.6176
  0
VERTEX
  8
LAYER10
 62
     1
  6
CONTINUOUS
 10
8.6797
 20
9.6213
  0
VERTEX
  8
LAYER10
 62
     1
  6
CONTINUOUS
 10
8.6751
 20
9.6252
  0
VERTEX
  8
LAYER10
 62
     1
  6
CONTINUOUS
 10
8.6705
 20
9.6291
  0
VERTEX
  8
LAYER10
 62
     1
  6
CONTINUOUS
 10
8.6661
 20
9.6329
  0
VERTEX
  8
LAYER10
 62
     1
  6
CONTINUOUS
 10
8.6619
 20
9.6365
  0
VERTEX
  8
LAYER10
 62
     1
  6
CONTINUOUS
 10
8.6580
 20
9.6398
  0
VERTEX
  8
LAYER10
 62
     1
  6
CONTINUOUS
 10
8.6546
 20
9.6428
  0
VERTEX
  8
LAYER10
 62
     1
  6
CONTINUOUS
 10
8.6517
 20
9.6453
  0
VERTEX
  8
LAYER10
 62
     1
  6
CONTINUOUS
 10
8.6495
 20
9.6472
  0
VERTEX
  8
LAYER10
 62
     1
  6
CONTINUOUS
 10
8.6481
 20
9.6485
  0
VERTEX
  8
LAYER10
 62
     1
  6
CONTINUOUS
 10
8.6475
 20
9.6490
  0
VERTEX
  8
LAYER10
 62
     1
  6
CONTINUOUS
 10
8.6475
 20
9.6490
  0
VERTEX
  8
LAYER10
 62
     1
  6
CONTINUOUS
 10
8.6475
 20
9.6490
  0
VERTEX
  8
LAYER10
 62
     1
  6
CONTINUOUS
 10
8.6475
 20
9.6490
  0
VERTEX
  8
LAYER10
 62
     1
  6
CONTINUOUS
 10
8.6475
 20
9.6490
  0
VERTEX
  8
LAYER10
 62
     1
  6
CONTINUOUS
 10
8.6475
 20
9.6490
  0
VERTEX
  8
LAYER10
 62
     1
  6
CONTINUOUS
 10
8.6475
 20
9.6490
  0
VERTEX
  8
LAYER10
 62
     1
  6
CONTINUOUS
 10
8.6475
 20
9.6490
  0
VERTEX
  8
LAYER10
 62
     1
  6
CONTINUOUS
 10
8.6475
 20
9.6490
  0
VERTEX
  8
LAYER10
 62
     1
  6
CONTINUOUS
 10
8.6475
 20
9.6490
  0
VERTEX
  8
LAYER10
 62
     1
  6
CONTINUOUS
 10
8.6475
 20
9.6490
  0
VERTEX
  8
LAYER10
 62
     1
  6
CONTINUOUS
 10
8.6475
 20
9.6490
  0
VERTEX
  8
LAYER10
 62
     1
  6
CONTINUOUS
 10
8.6475
 20
9.6490
  0
VERTEX
  8
LAYER10
 62
     1
  6
CONTINUOUS
 10
8.6468
 20
9.6495
  0
VERTEX
  8
LAYER10
 62
     1
  6
CONTINUOUS
 10
8.6454
 20
9.6505
  0
VERTEX
  8
LAYER10
 62
     1
  6
CONTINUOUS
 10
8.6433
 20
9.6520
  0
VERTEX
  8
LAYER10
 62
     1
  6
CONTINUOUS
 10
8.6406
 20
9.6540
  0
VERTEX
  8
LAYER10
 62
     1
  6
CONTINUOUS
 10
8.6374
 20
9.6563
  0
VERTEX
  8
LAYER10
 62
     1
  6
CONTINUOUS
 10
8.6339
 20
9.6590
  0
VERTEX
  8
LAYER10
 62
     1
  6
CONTINUOUS
 10
8.6302
 20
9.6620
  0
VERTEX
  8
LAYER10
 62
     1
  6
CONTINUOUS
 10
8.6263
 20
9.6652
  0
VERTEX
  8
LAYER10
 62
     1
  6
CONTINUOUS
 10
8.6224
 20
9.6686
  0
VERTEX
  8
LAYER10
 62
     1
  6
CONTINUOUS
 10
8.6186
 20
9.6721
  0
VERTEX
  8
LAYER10
 62
     1
  6
CONTINUOUS
 10
8.6150
 20
9.6756
  0
VERTEX
  8
LAYER10
 62
     1
  6
CONTINUOUS
 10
8.6116
 20
9.6790
  0
VERTEX
  8
LAYER10
 62
     1
  6
CONTINUOUS
 10
8.6097
 20
9.6812
  0
VERTEX
  8
LAYER10
 62
     1
  6
CONTINUOUS
 10
8.6080
 20
9.6833
  0
VERTEX
  8
LAYER10
 62
     1
  6
CONTINUOUS
 10
8.6064
 20
9.6855
  0
VERTEX
  8
LAYER10
 62
     1
  6
CONTINUOUS
 10
8.6049
 20
9.6875
  0
VERTEX
  8
LAYER10
 62
     1
  6
CONTINUOUS
 10
8.6036
 20
9.6896
  0
VERTEX
  8
LAYER10
 62
     1
  6
CONTINUOUS
 10
8.6023
 20
9.6917
  0
VERTEX
  8
LAYER10
 62
     1
  6
CONTINUOUS
 10
8.6011
 20
9.6938
  0
VERTEX
  8
LAYER10
 62
     1
  6
CONTINUOUS
 10
8.6000
 20
9.6958
  0
VERTEX
  8
LAYER10
 62
     1
  6
CONTINUOUS
 10
8.5990
 20
9.6979
  0
VERTEX
  8
LAYER10
 62
     1
  6
CONTINUOUS
 10
8.5980
 20
9.7000
  0
VERTEX
  8
LAYER10
 62
     1
  6
CONTINUOUS
 10
8.5971
 20
9.7021
  0
VERTEX
  8
LAYER10
 62
     1
  6
CONTINUOUS
 10
8.5962
 20
9.7042
  0
VERTEX
  8
LAYER10
 62
     1
  6
CONTINUOUS
 10
8.5946
 20
9.7081
  0
VERTEX
  8
LAYER10
 62
     1
  6
CONTINUOUS
 10
8.5930
 20
9.7120
  0
VERTEX
  8
LAYER10
 62
     1
  6
CONTINUOUS
 10
8.5915
 20
9.7160
  0
VERTEX
  8
LAYER10
 62
     1
  6
CONTINUOUS
 10
8.5900
 20
9.7201
  0
VERTEX
  8
LAYER10
 62
     1
  6
CONTINUOUS
 10
8.5886
 20
9.7242
  0
VERTEX
  8
LAYER10
 62
     1
  6
CONTINUOUS
 10
8.5873
 20
9.7284
  0
VERTEX
  8
LAYER10
 62
     1
  6
CONTINUOUS
 10
8.5860
 20
9.7327
  0
VERTEX
  8
LAYER10
 62
     1
  6
CONTINUOUS
 10
8.5847
 20
9.7370
  0
VERTEX
  8
LAYER10
 62
     1
  6
CONTINUOUS
 10
8.5836
 20
9.7414
  0
VERTEX
  8
LAYER10
 62
     1
  6
CONTINUOUS
 10
8.5824
 20
9.7458
  0
VERTEX
  8
LAYER10
 62
     1
  6
CONTINUOUS
 10
8.5814
 20
9.7502
  0
VERTEX
  8
LAYER10
 62
     1
  6
CONTINUOUS
 10
8.5804
 20
9.7547
  0
VERTEX
  8
LAYER10
 62
     1
  6
CONTINUOUS
 10
8.5797
 20
9.7582
  0
VERTEX
  8
LAYER10
 62
     1
  6
CONTINUOUS
 10
8.5790
 20
9.7617
  0
VERTEX
  8
LAYER10
 62
     1
  6
CONTINUOUS
 10
8.5785
 20
9.7652
  0
VERTEX
  8
LAYER10
 62
     1
  6
CONTINUOUS
 10
8.5780
 20
9.7687
  0
VERTEX
  8
LAYER10
 62
     1
  6
CONTINUOUS
 10
8.5776
 20
9.7721
  0
VERTEX
  8
LAYER10
 62
     1
  6
CONTINUOUS
 10
8.5774
 20
9.7756
  0
VERTEX
  8
LAYER10
 62
     1
  6
CONTINUOUS
 10
8.5773
 20
9.7790
  0
VERTEX
  8
LAYER10
 62
     1
  6
CONTINUOUS
 10
8.5774
 20
9.7824
  0
VERTEX
  8
LAYER10
 62
     1
  6
CONTINUOUS
 10
8.5777
 20
9.7857
  0
VERTEX
  8
LAYER10
 62
     1
  6
CONTINUOUS
 10
8.5782
 20
9.7890
  0
VERTEX
  8
LAYER10
 62
     1
  6
CONTINUOUS
 10
8.5790
 20
9.7922
  0
VERTEX
  8
LAYER10
 62
     1
  6
CONTINUOUS
 10
8.5799
 20
9.7953
  0
VERTEX
  8
LAYER10
 62
     1
  6
CONTINUOUS
 10
8.5811
 20
9.7980
  0
VERTEX
  8
LAYER10
 62
     1
  6
CONTINUOUS
 10
8.5824
 20
9.8007
  0
VERTEX
  8
LAYER10
 62
     1
  6
CONTINUOUS
 10
8.5838
 20
9.8034
  0
VERTEX
  8
LAYER10
 62
     1
  6
CONTINUOUS
 10
8.5854
 20
9.8060
  0
VERTEX
  8
LAYER10
 62
     1
  6
CONTINUOUS
 10
8.5871
 20
9.8085
  0
VERTEX
  8
LAYER10
 62
     1
  6
CONTINUOUS
 10
8.5889
 20
9.8111
  0
VERTEX
  8
LAYER10
 62
     1
  6
CONTINUOUS
 10
8.5908
 20
9.8136
  0
VERTEX
  8
LAYER10
 62
     1
  6
CONTINUOUS
 10
8.5926
 20
9.8160
  0
VERTEX
  8
LAYER10
 62
     1
  6
CONTINUOUS
 10
8.5945
 20
9.8185
  0
VERTEX
  8
LAYER10
 62
     1
  6
CONTINUOUS
 10
8.5964
 20
9.8210
  0
VERTEX
  8
LAYER10
 62
     1
  6
CONTINUOUS
 10
8.5982
 20
9.8234
  0
VERTEX
  8
LAYER10
 62
     1
  6
CONTINUOUS
 10
8.5999
 20
9.8259
  0
VERTEX
  8
LAYER10
 62
     1
  6
CONTINUOUS
 10
8.6026
 20
9.8302
  0
VERTEX
  8
LAYER10
 62
     1
  6
CONTINUOUS
 10
8.6050
 20
9.8345
  0
VERTEX
  8
LAYER10
 62
     1
  6
CONTINUOUS
 10
8.6073
 20
9.8388
  0
VERTEX
  8
LAYER10
 62
     1
  6
CONTINUOUS
 10
8.6095
 20
9.8431
  0
VERTEX
  8
LAYER10
 62
     1
  6
CONTINUOUS
 10
8.6118
 20
9.8474
  0
VERTEX
  8
LAYER10
 62
     1
  6
CONTINUOUS
 10
8.6141
 20
9.8518
  0
VERTEX
  8
LAYER10
 62
     1
  6
CONTINUOUS
 10
8.6167
 20
9.8561
  0
VERTEX
  8
LAYER10
 62
     1
  6
CONTINUOUS
 10
8.6195
 20
9.8604
  0
VERTEX
  8
LAYER10
 62
     1
  6
CONTINUOUS
 10
8.6226
 20
9.8646
  0
VERTEX
  8
LAYER10
 62
     1
  6
CONTINUOUS
 10
8.6261
 20
9.8688
  0
VERTEX
  8
LAYER10
 62
     1
  6
CONTINUOUS
 10
8.6302
 20
9.8729
  0
VERTEX
  8
LAYER10
 62
     1
  6
CONTINUOUS
 10
8.6348
 20
9.8770
  0
VERTEX
  8
LAYER10
 62
     1
  6
CONTINUOUS
 10
8.6392
 20
9.8804
  0
VERTEX
  8
LAYER10
 62
     1
  6
CONTINUOUS
 10
8.6439
 20
9.8836
  0
VERTEX
  8
LAYER10
 62
     1
  6
CONTINUOUS
 10
8.6488
 20
9.8867
  0
VERTEX
  8
LAYER10
 62
     1
  6
CONTINUOUS
 10
8.6538
 20
9.8897
  0
VERTEX
  8
LAYER10
 62
     1
  6
CONTINUOUS
 10
8.6588
 20
9.8924
  0
VERTEX
  8
LAYER10
 62
     1
  6
CONTINUOUS
 10
8.6635
 20
9.8949
  0
VERTEX
  8
LAYER10
 62
     1
  6
CONTINUOUS
 10
8.6679
 20
9.8971
  0
VERTEX
  8
LAYER10
 62
     1
  6
CONTINUOUS
 10
8.6718
 20
9.8991
  0
VERTEX
  8
LAYER10
 62
     1
  6
CONTINUOUS
 10
8.6751
 20
9.9006
  0
VERTEX
  8
LAYER10
 62
     1
  6
CONTINUOUS
 10
8.6777
 20
9.9018
  0
VERTEX
  8
LAYER10
 62
     1
  6
CONTINUOUS
 10
8.6794
 20
9.9026
  0
VERTEX
  8
LAYER10
 62
     1
  6
CONTINUOUS
 10
8.6801
 20
9.9029
  0
VERTEX
  8
LAYER10
 62
     1
  6
CONTINUOUS
 10
8.6801
 20
9.9029
  0
VERTEX
  8
LAYER10
 62
     1
  6
CONTINUOUS
 10
8.6802
 20
9.9029
  0
VERTEX
  8
LAYER10
 62
     1
  6
CONTINUOUS
 10
8.6801
 20
9.9029
  0
VERTEX
  8
LAYER10
 62
     1
  6
CONTINUOUS
 10
8.6801
 20
9.9029
  0
VERTEX
  8
LAYER10
 62
     1
  6
CONTINUOUS
 10
8.6801
 20
9.9028
  0
VERTEX
  8
LAYER10
 62
     1
  6
CONTINUOUS
 10
8.6801
 20
9.9028
  0
VERTEX
  8
LAYER10
 62
     1
  6
CONTINUOUS
 10
8.6801
 20
9.9028
  0
VERTEX
  8
LAYER10
 62
     1
  6
CONTINUOUS
 10
8.6801
 20
9.9028
  0
VERTEX
  8
LAYER10
 62
     1
  6
CONTINUOUS
 10
8.6801
 20
9.9028
  0
VERTEX
  8
LAYER10
 62
     1
  6
CONTINUOUS
 10
8.6801
 20
9.9028
  0
VERTEX
  8
LAYER10
 62
     1
  6
CONTINUOUS
 10
8.6801
 20
9.9028
  0
VERTEX
  8
LAYER10
 62
     1
  6
CONTINUOUS
 10
8.6801
 20
9.9029
  0
VERTEX
  8
LAYER10
 62
     1
  6
CONTINUOUS
 10
8.6807
 20
9.9031
  0
VERTEX
  8
LAYER10
 62
     1
  6
CONTINUOUS
 10
8.6820
 20
9.9037
  0
VERTEX
  8
LAYER10
 62
     1
  6
CONTINUOUS
 10
8.6839
 20
9.9046
  0
VERTEX
  8
LAYER10
 62
     1
  6
CONTINUOUS
 10
8.6863
 20
9.9057
  0
VERTEX
  8
LAYER10
 62
     1
  6
CONTINUOUS
 10
8.6892
 20
9.9070
  0
VERTEX
  8
LAYER10
 62
     1
  6
CONTINUOUS
 10
8.6924
 20
9.9085
  0
VERTEX
  8
LAYER10
 62
     1
  6
CONTINUOUS
 10
8.6959
 20
9.9101
  0
VERTEX
  8
LAYER10
 62
     1
  6
CONTINUOUS
 10
8.6997
 20
9.9118
  0
VERTEX
  8
LAYER10
 62
     1
  6
CONTINUOUS
 10
8.7036
 20
9.9135
  0
VERTEX
  8
LAYER10
 62
     1
  6
CONTINUOUS
 10
8.7076
 20
9.9152
  0
VERTEX
  8
LAYER10
 62
     1
  6
CONTINUOUS
 10
8.7116
 20
9.9169
  0
VERTEX
  8
LAYER10
 62
     1
  6
CONTINUOUS
 10
8.7154
 20
9.9185
  0
VERTEX
  8
LAYER10
 62
     1
  6
CONTINUOUS
 10
8.7210
 20
9.9206
  0
VERTEX
  8
LAYER10
 62
     1
  6
CONTINUOUS
 10
8.7262
 20
9.9226
  0
VERTEX
  8
LAYER10
 62
     1
  6
CONTINUOUS
 10
8.7311
 20
9.9243
  0
VERTEX
  8
LAYER10
 62
     1
  6
CONTINUOUS
 10
8.7358
 20
9.9258
  0
VERTEX
  8
LAYER10
 62
     1
  6
CONTINUOUS
 10
8.7403
 20
9.9272
  0
VERTEX
  8
LAYER10
 62
     1
  6
CONTINUOUS
 10
8.7447
 20
9.9284
  0
VERTEX
  8
LAYER10
 62
     1
  6
CONTINUOUS
 10
8.7490
 20
9.9295
  0
VERTEX
  8
LAYER10
 62
     1
  6
CONTINUOUS
 10
8.7533
 20
9.9306
  0
VERTEX
  8
LAYER10
 62
     1
  6
CONTINUOUS
 10
8.7576
 20
9.9315
  0
VERTEX
  8
LAYER10
 62
     1
  6
CONTINUOUS
 10
8.7619
 20
9.9324
  0
VERTEX
  8
LAYER10
 62
     1
  6
CONTINUOUS
 10
8.7664
 20
9.9333
  0
VERTEX
  8
LAYER10
 62
     1
  6
CONTINUOUS
 10
8.7710
 20
9.9343
  0
VERTEX
  8
LAYER10
 62
     1
  6
CONTINUOUS
 10
8.7748
 20
9.9350
  0
VERTEX
  8
LAYER10
 62
     1
  6
CONTINUOUS
 10
8.7787
 20
9.9357
  0
VERTEX
  8
LAYER10
 62
     1
  6
CONTINUOUS
 10
8.7827
 20
9.9364
  0
VERTEX
  8
LAYER10
 62
     1
  6
CONTINUOUS
 10
8.7867
 20
9.9370
  0
VERTEX
  8
LAYER10
 62
     1
  6
CONTINUOUS
 10
8.7907
 20
9.9375
  0
VERTEX
  8
LAYER10
 62
     1
  6
CONTINUOUS
 10
8.7947
 20
9.9379
  0
VERTEX
  8
LAYER10
 62
     1
  6
CONTINUOUS
 10
8.7987
 20
9.9380
  0
VERTEX
  8
LAYER10
 62
     1
  6
CONTINUOUS
 10
8.8026
 20
9.9380
  0
VERTEX
  8
LAYER10
 62
     1
  6
CONTINUOUS
 10
8.8063
 20
9.9376
  0
VERTEX
  8
LAYER10
 62
     1
  6
CONTINUOUS
 10
8.8099
 20
9.9370
  0
VERTEX
  8
LAYER10
 62
     1
  6
CONTINUOUS
 10
8.8134
 20
9.9361
  0
VERTEX
  8
LAYER10
 62
     1
  6
CONTINUOUS
 10
8.8167
 20
9.9348
  0
VERTEX
  8
LAYER10
 62
     1
  6
CONTINUOUS
 10
8.8205
 20
9.9326
  0
VERTEX
  8
LAYER10
 62
     1
  6
CONTINUOUS
 10
8.8240
 20
9.9299
  0
VERTEX
  8
LAYER10
 62
     1
  6
CONTINUOUS
 10
8.8272
 20
9.9266
  0
VERTEX
  8
LAYER10
 62
     1
  6
CONTINUOUS
 10
8.8302
 20
9.9230
  0
VERTEX
  8
LAYER10
 62
     1
  6
CONTINUOUS
 10
8.8330
 20
9.9191
  0
VERTEX
  8
LAYER10
 62
     1
  6
CONTINUOUS
 10
8.8358
 20
9.9149
  0
VERTEX
  8
LAYER10
 62
     1
  6
CONTINUOUS
 10
8.8384
 20
9.9106
  0
VERTEX
  8
LAYER10
 62
     1
  6
CONTINUOUS
 10
8.8411
 20
9.9063
  0
VERTEX
  8
LAYER10
 62
     1
  6
CONTINUOUS
 10
8.8438
 20
9.9019
  0
VERTEX
  8
LAYER10
 62
     1
  6
CONTINUOUS
 10
8.8466
 20
9.8976
  0
VERTEX
  8
LAYER10
 62
     1
  6
CONTINUOUS
 10
8.8495
 20
9.8934
  0
VERTEX
  8
LAYER10
 62
     1
  6
CONTINUOUS
 10
8.8526
 20
9.8896
  0
VERTEX
  8
LAYER10
 62
     1
  6
CONTINUOUS
 10
8.8560
 20
9.8860
  0
VERTEX
  8
LAYER10
 62
     1
  6
CONTINUOUS
 10
8.8596
 20
9.8827
  0
VERTEX
  8
LAYER10
 62
     1
  6
CONTINUOUS
 10
8.8633
 20
9.8796
  0
VERTEX
  8
LAYER10
 62
     1
  6
CONTINUOUS
 10
8.8672
 20
9.8767
  0
VERTEX
  8
LAYER10
 62
     1
  6
CONTINUOUS
 10
8.8711
 20
9.8740
  0
VERTEX
  8
LAYER10
 62
     1
  6
CONTINUOUS
 10
8.8752
 20
9.8713
  0
VERTEX
  8
LAYER10
 62
     1
  6
CONTINUOUS
 10
8.8792
 20
9.8687
  0
VERTEX
  8
LAYER10
 62
     1
  6
CONTINUOUS
 10
8.8833
 20
9.8661
  0
VERTEX
  8
LAYER10
 62
     1
  6
CONTINUOUS
 10
8.8873
 20
9.8634
  0
VERTEX
  8
LAYER10
 62
     1
  6
CONTINUOUS
 10
8.8912
 20
9.8606
  0
VERTEX
  8
LAYER10
 62
     1
  6
CONTINUOUS
 10
8.8950
 20
9.8577
  0
VERTEX
  8
LAYER10
 62
     1
  6
CONTINUOUS
 10
8.8987
 20
9.8546
  0
VERTEX
  8
LAYER10
 62
     1
  6
CONTINUOUS
 10
8.9024
 20
9.8510
  0
VERTEX
  8
LAYER10
 62
     1
  6
CONTINUOUS
 10
8.9059
 20
9.8472
  0
VERTEX
  8
LAYER10
 62
     1
  6
CONTINUOUS
 10
8.9092
 20
9.8432
  0
VERTEX
  8
LAYER10
 62
     1
  6
CONTINUOUS
 10
8.9124
 20
9.8390
  0
VERTEX
  8
LAYER10
 62
     1
  6
CONTINUOUS
 10
8.9155
 20
9.8347
  0
VERTEX
  8
LAYER10
 62
     1
  6
CONTINUOUS
 10
8.9184
 20
9.8303
  0
VERTEX
  8
LAYER10
 62
     1
  6
CONTINUOUS
 10
8.9212
 20
9.8259
  0
VERTEX
  8
LAYER10
 62
     1
  6
CONTINUOUS
 10
8.9240
 20
9.8214
  0
VERTEX
  8
LAYER10
 62
     1
  6
CONTINUOUS
 10
8.9267
 20
9.8170
  0
VERTEX
  8
LAYER10
 62
     1
  6
CONTINUOUS
 10
8.9294
 20
9.8126
  0
VERTEX
  8
LAYER10
 62
     1
  6
CONTINUOUS
 10
8.9320
 20
9.8084
  0
VERTEX
  8
LAYER10
 62
     1
  6
CONTINUOUS
 10
8.9347
 20
9.8043
  0
VERTEX
  8
LAYER10
 62
     1
  6
CONTINUOUS
 10
8.9367
 20
9.8013
  0
VERTEX
  8
LAYER10
 62
     1
  6
CONTINUOUS
 10
8.9388
 20
9.7984
  0
VERTEX
  8
LAYER10
 62
     1
  6
CONTINUOUS
 10
8.9409
 20
9.7956
  0
VERTEX
  8
LAYER10
 62
     1
  6
CONTINUOUS
 10
8.9431
 20
9.7927
  0
VERTEX
  8
LAYER10
 62
     1
  6
CONTINUOUS
 10
8.9454
 20
9.7900
  0
VERTEX
  8
LAYER10
 62
     1
  6
CONTINUOUS
 10
8.9478
 20
9.7872
  0
VERTEX
  8
LAYER10
 62
     1
  6
CONTINUOUS
 10
8.9503
 20
9.7843
  0
VERTEX
  8
LAYER10
 62
     1
  6
CONTINUOUS
 10
8.9530
 20
9.7815
  0
VERTEX
  8
LAYER10
 62
     1
  6
CONTINUOUS
 10
8.9558
 20
9.7785
  0
VERTEX
  8
LAYER10
 62
     1
  6
CONTINUOUS
 10
8.9588
 20
9.7755
  0
VERTEX
  8
LAYER10
 62
     1
  6
CONTINUOUS
 10
8.9620
 20
9.7724
  0
VERTEX
  8
LAYER10
 62
     1
  6
CONTINUOUS
 10
8.9655
 20
9.7691
  0
VERTEX
  8
LAYER10
 62
     1
  6
CONTINUOUS
 10
8.9698
 20
9.7652
  0
VERTEX
  8
LAYER10
 62
     1
  6
CONTINUOUS
 10
8.9742
 20
9.7612
  0
VERTEX
  8
LAYER10
 62
     1
  6
CONTINUOUS
 10
8.9788
 20
9.7571
  0
VERTEX
  8
LAYER10
 62
     1
  6
CONTINUOUS
 10
8.9834
 20
9.7531
  0
VERTEX
  8
LAYER10
 62
     1
  6
CONTINUOUS
 10
8.9879
 20
9.7493
  0
VERTEX
  8
LAYER10
 62
     1
  6
CONTINUOUS
 10
8.9921
 20
9.7457
  0
VERTEX
  8
LAYER10
 62
     1
  6
CONTINUOUS
 10
8.9960
 20
9.7424
  0
VERTEX
  8
LAYER10
 62
     1
  6
CONTINUOUS
 10
8.9994
 20
9.7396
  0
VERTEX
  8
LAYER10
 62
     1
  6
CONTINUOUS
 10
9.0023
 20
9.7372
  0
VERTEX
  8
LAYER10
 62
     1
  6
CONTINUOUS
 10
9.0045
 20
9.7355
  0
VERTEX
  8
LAYER10
 62
     1
  6
CONTINUOUS
 10
9.0059
 20
9.7344
  0
VERTEX
  8
LAYER10
 62
     1
  6
CONTINUOUS
 10
9.0064
 20
9.7341
  0
VERTEX
  8
LAYER10
 62
     1
  6
CONTINUOUS
 10
9.0064
 20
9.7341
  0
VERTEX
  8
LAYER10
 62
     1
  6
CONTINUOUS
 10
9.0064
 20
9.7341
  0
VERTEX
  8
LAYER10
 62
     1
  6
CONTINUOUS
 10
9.0064
 20
9.7342
  0
VERTEX
  8
LAYER10
 62
     1
  6
CONTINUOUS
 10
9.0064
 20
9.7342
  0
VERTEX
  8
LAYER10
 62
     1
  6
CONTINUOUS
 10
9.0064
 20
9.7342
  0
VERTEX
  8
LAYER10
 62
     1
  6
CONTINUOUS
 10
9.0064
 20
9.7342
  0
VERTEX
  8
LAYER10
 62
     1
  6
CONTINUOUS
 10
9.0064
 20
9.7342
  0
VERTEX
  8
LAYER10
 62
     1
  6
CONTINUOUS
 10
9.0064
 20
9.7342
  0
VERTEX
  8
LAYER10
 62
     1
  6
CONTINUOUS
 10
9.0064
 20
9.7342
  0
VERTEX
  8
LAYER10
 62
     1
  6
CONTINUOUS
 10
9.0064
 20
9.7342
  0
VERTEX
  8
LAYER10
 62
     1
  6
CONTINUOUS
 10
9.0064
 20
9.7342
  0
VERTEX
  8
LAYER10
 62
     1
  6
CONTINUOUS
 10
9.0064
 20
9.7341
  0
VERTEX
  8
LAYER10
 62
     1
  6
CONTINUOUS
 10
9.0067
 20
9.7337
  0
VERTEX
  8
LAYER10
 62
     1
  6
CONTINUOUS
 10
9.0071
 20
9.7331
  0
VERTEX
  8
LAYER10
 62
     1
  6
CONTINUOUS
 10
9.0077
 20
9.7323
  0
VERTEX
  8
LAYER10
 62
     1
  6
CONTINUOUS
 10
9.0084
 20
9.7312
  0
VERTEX
  8
LAYER10
 62
     1
  6
CONTINUOUS
 10
9.0092
 20
9.7300
  0
VERTEX
  8
LAYER10
 62
     1
  6
CONTINUOUS
 10
9.0101
 20
9.7287
  0
VERTEX
  8
LAYER10
 62
     1
  6
CONTINUOUS
 10
9.0111
 20
9.7272
  0
VERTEX
  8
LAYER10
 62
     1
  6
CONTINUOUS
 10
9.0122
 20
9.7256
  0
VERTEX
  8
LAYER10
 62
     1
  6
CONTINUOUS
 10
9.0133
 20
9.7240
  0
VERTEX
  8
LAYER10
 62
     1
  6
CONTINUOUS
 10
9.0145
 20
9.7223
  0
SEQEND
  8
LAYER10
  0
POLYLINE
  8
LAYER10
 62
     1
 66
     1
  6
CONTINUOUS
  0
VERTEX
  8
LAYER10
 62
     1
  6
CONTINUOUS
 10
9.0145
 20
9.7223
  0
VERTEX
  8
LAYER10
 62
     1
  6
CONTINUOUS
 10
9.0156
 20
9.7207
  0
VERTEX
  8
LAYER10
 62
     1
  6
CONTINUOUS
 10
9.0168
 20
9.7190
  0
VERTEX
  8
LAYER10
 62
     1
  6
CONTINUOUS
 10
9.0189
 20
9.7158
  0
VERTEX
  8
LAYER10
 62
     1
  6
CONTINUOUS
 10
9.0210
 20
9.7128
  0
VERTEX
  8
LAYER10
 62
     1
  6
CONTINUOUS
 10
9.0229
 20
9.7100
  0
VERTEX
  8
LAYER10
 62
     1
  6
CONTINUOUS
 10
9.0248
 20
9.7073
  0
VERTEX
  8
LAYER10
 62
     1
  6
CONTINUOUS
 10
9.0266
 20
9.7047
  0
VERTEX
  8
LAYER10
 62
     1
  6
CONTINUOUS
 10
9.0282
 20
9.7022
  0
VERTEX
  8
LAYER10
 62
     1
  6
CONTINUOUS
 10
9.0299
 20
9.6999
  0
VERTEX
  8
LAYER10
 62
     1
  6
CONTINUOUS
 10
9.0314
 20
9.6976
  0
VERTEX
  8
LAYER10
 62
     1
  6
CONTINUOUS
 10
9.0329
 20
9.6953
  0
VERTEX
  8
LAYER10
 62
     1
  6
CONTINUOUS
 10
9.0344
 20
9.6931
  0
VERTEX
  8
LAYER10
 62
     1
  6
CONTINUOUS
 10
9.0359
 20
9.6910
  0
VERTEX
  8
LAYER10
 62
     1
  6
CONTINUOUS
 10
9.0374
 20
9.6888
  0
SEQEND
  8
LAYER10
  0
POLYLINE
  8
LAYER10
 62
     1
 66
     1
  6
CONTINUOUS
  0
VERTEX
  8
LAYER10
 62
     1
  6
CONTINUOUS
 10
9.0561
 20
9.8982
  0
VERTEX
  8
LAYER10
 62
     1
  6
CONTINUOUS
 10
9.0561
 20
9.8982
  0
VERTEX
  8
LAYER10
 62
     1
  6
CONTINUOUS
 10
9.0561
 20
9.8982
  0
VERTEX
  8
LAYER10
 62
     1
  6
CONTINUOUS
 10
9.0561
 20
9.8982
  0
VERTEX
  8
LAYER10
 62
     1
  6
CONTINUOUS
 10
9.0561
 20
9.8982
  0
VERTEX
  8
LAYER10
 62
     1
  6
CONTINUOUS
 10
9.0561
 20
9.8982
  0
VERTEX
  8
LAYER10
 62
     1
  6
CONTINUOUS
 10
9.0561
 20
9.8982
  0
VERTEX
  8
LAYER10
 62
     1
  6
CONTINUOUS
 10
9.0561
 20
9.8982
  0
VERTEX
  8
LAYER10
 62
     1
  6
CONTINUOUS
 10
9.0561
 20
9.8982
  0
VERTEX
  8
LAYER10
 62
     1
  6
CONTINUOUS
 10
9.0561
 20
9.8982
  0
VERTEX
  8
LAYER10
 62
     1
  6
CONTINUOUS
 10
9.0561
 20
9.8982
  0
VERTEX
  8
LAYER10
 62
     1
  6
CONTINUOUS
 10
9.0561
 20
9.8982
  0
VERTEX
  8
LAYER10
 62
     1
  6
CONTINUOUS
 10
9.0561
 20
9.8982
  0
VERTEX
  8
LAYER10
 62
     1
  6
CONTINUOUS
 10
9.0564
 20
9.8982
  0
VERTEX
  8
LAYER10
 62
     1
  6
CONTINUOUS
 10
9.0567
 20
9.8982
  0
VERTEX
  8
LAYER10
 62
     1
  6
CONTINUOUS
 10
9.0568
 20
9.8982
  0
VERTEX
  8
LAYER10
 62
     1
  6
CONTINUOUS
 10
9.0569
 20
9.8982
  0
VERTEX
  8
LAYER10
 62
     1
  6
CONTINUOUS
 10
9.0569
 20
9.8982
  0
VERTEX
  8
LAYER10
 62
     1
  6
CONTINUOUS
 10
9.0569
 20
9.8982
  0
VERTEX
  8
LAYER10
 62
     1
  6
CONTINUOUS
 10
9.0569
 20
9.8982
  0
VERTEX
  8
LAYER10
 62
     1
  6
CONTINUOUS
 10
9.0567
 20
9.8982
  0
VERTEX
  8
LAYER10
 62
     1
  6
CONTINUOUS
 10
9.0566
 20
9.8982
  0
VERTEX
  8
LAYER10
 62
     1
  6
CONTINUOUS
 10
9.0564
 20
9.8982
  0
VERTEX
  8
LAYER10
 62
     1
  6
CONTINUOUS
 10
9.0563
 20
9.8982
  0
VERTEX
  8
LAYER10
 62
     1
  6
CONTINUOUS
 10
9.0561
 20
9.8982
  0
SEQEND
  8
LAYER10
  0
POLYLINE
  8
LAYER10
 62
     1
 66
     1
  6
CONTINUOUS
  0
VERTEX
  8
LAYER10
 62
     1
  6
CONTINUOUS
 10
9.0561
 20
9.8982
  0
VERTEX
  8
LAYER10
 62
     1
  6
CONTINUOUS
 10
9.0561
 20
9.8982
  0
VERTEX
  8
LAYER10
 62
     1
  6
CONTINUOUS
 10
9.0561
 20
9.8982
  0
VERTEX
  8
LAYER10
 62
     1
  6
CONTINUOUS
 10
9.0561
 20
9.8982
  0
VERTEX
  8
LAYER10
 62
     1
  6
CONTINUOUS
 10
9.0561
 20
9.8982
  0
VERTEX
  8
LAYER10
 62
     1
  6
CONTINUOUS
 10
9.0561
 20
9.8982
  0
VERTEX
  8
LAYER10
 62
     1
  6
CONTINUOUS
 10
9.0561
 20
9.8982
  0
VERTEX
  8
LAYER10
 62
     1
  6
CONTINUOUS
 10
9.0561
 20
9.8982
  0
VERTEX
  8
LAYER10
 62
     1
  6
CONTINUOUS
 10
9.0561
 20
9.8982
  0
VERTEX
  8
LAYER10
 62
     1
  6
CONTINUOUS
 10
9.0561
 20
9.8982
  0
VERTEX
  8
LAYER10
 62
     1
  6
CONTINUOUS
 10
9.0561
 20
9.8982
  0
VERTEX
  8
LAYER10
 62
     1
  6
CONTINUOUS
 10
9.0561
 20
9.8982
  0
VERTEX
  8
LAYER10
 62
     1
  6
CONTINUOUS
 10
9.0561
 20
9.8982
  0
VERTEX
  8
LAYER10
 62
     1
  6
CONTINUOUS
 10
9.0558
 20
9.8982
  0
VERTEX
  8
LAYER10
 62
     1
  6
CONTINUOUS
 10
9.0555
 20
9.8982
  0
VERTEX
  8
LAYER10
 62
     1
  6
CONTINUOUS
 10
9.0553
 20
9.8982
  0
VERTEX
  8
LAYER10
 62
     1
  6
CONTINUOUS
 10
9.0553
 20
9.8982
  0
VERTEX
  8
LAYER10
 62
     1
  6
CONTINUOUS
 10
9.0552
 20
9.8982
  0
VERTEX
  8
LAYER10
 62
     1
  6
CONTINUOUS
 10
9.0552
 20
9.8982
  0
VERTEX
  8
LAYER10
 62
     1
  6
CONTINUOUS
 10
9.0553
 20
9.8982
  0
VERTEX
  8
LAYER10
 62
     1
  6
CONTINUOUS
 10
9.0554
 20
9.8982
  0
VERTEX
  8
LAYER10
 62
     1
  6
CONTINUOUS
 10
9.0556
 20
9.8982
  0
VERTEX
  8
LAYER10
 62
     1
  6
CONTINUOUS
 10
9.0557
 20
9.8982
  0
VERTEX
  8
LAYER10
 62
     1
  6
CONTINUOUS
 10
9.0559
 20
9.8982
  0
VERTEX
  8
LAYER10
 62
     1
  6
CONTINUOUS
 10
9.0561
 20
9.8982
  0
SEQEND
  8
LAYER10
  0
POLYLINE
  8
LAYER10
 62
     1
 66
     1
  6
CONTINUOUS
  0
VERTEX
  8
LAYER10
 62
     1
  6
CONTINUOUS
 10
9.0561
 20
9.8982
  0
VERTEX
  8
LAYER10
 62
     1
  6
CONTINUOUS
 10
9.0552
 20
9.8985
  0
VERTEX
  8
LAYER10
 62
     1
  6
CONTINUOUS
 10
9.0542
 20
9.8988
  0
VERTEX
  8
LAYER10
 62
     1
  6
CONTINUOUS
 10
9.0533
 20
9.8991
  0
VERTEX
  8
LAYER10
 62
     1
  6
CONTINUOUS
 10
9.0524
 20
9.8994
  0
VERTEX
  8
LAYER10
 62
     1
  6
CONTINUOUS
 10
9.0515
 20
9.8997
  0
VERTEX
  8
LAYER10
 62
     1
  6
CONTINUOUS
 10
9.0506
 20
9.9000
  0
VERTEX
  8
LAYER10
 62
     1
  6
CONTINUOUS
 10
9.0496
 20
9.9003
  0
VERTEX
  8
LAYER10
 62
     1
  6
CONTINUOUS
 10
9.0487
 20
9.9006
  0
VERTEX
  8
LAYER10
 62
     1
  6
CONTINUOUS
 10
9.0478
 20
9.9009
  0
VERTEX
  8
LAYER10
 62
     1
  6
CONTINUOUS
 10
9.0469
 20
9.9012
  0
VERTEX
  8
LAYER10
 62
     1
  6
CONTINUOUS
 10
9.0460
 20
9.9015
  0
VERTEX
  8
LAYER10
 62
     1
  6
CONTINUOUS
 10
9.0451
 20
9.9018
  0
VERTEX
  8
LAYER10
 62
     1
  6
CONTINUOUS
 10
9.0400
 20
9.9036
  0
VERTEX
  8
LAYER10
 62
     1
  6
CONTINUOUS
 10
9.0350
 20
9.9054
  0
VERTEX
  8
LAYER10
 62
     1
  6
CONTINUOUS
 10
9.0301
 20
9.9072
  0
VERTEX
  8
LAYER10
 62
     1
  6
CONTINUOUS
 10
9.0252
 20
9.9091
  0
VERTEX
  8
LAYER10
 62
     1
  6
CONTINUOUS
 10
9.0204
 20
9.9111
  0
VERTEX
  8
LAYER10
 62
     1
  6
CONTINUOUS
 10
9.0156
 20
9.9132
  0
VERTEX
  8
LAYER10
 62
     1
  6
CONTINUOUS
 10
9.0107
 20
9.9156
  0
VERTEX
  8
LAYER10
 62
     1
  6
CONTINUOUS
 10
9.0057
 20
9.9182
  0
VERTEX
  8
LAYER10
 62
     1
  6
CONTINUOUS
 10
9.0006
 20
9.9210
  0
VERTEX
  8
LAYER10
 62
     1
  6
CONTINUOUS
 10
8.9953
 20
9.9242
  0
VERTEX
  8
LAYER10
 62
     1
  6
CONTINUOUS
 10
8.9898
 20
9.9277
  0
VERTEX
  8
LAYER10
 62
     1
  6
CONTINUOUS
 10
8.9840
 20
9.9316
  0
VERTEX
  8
LAYER10
 62
     1
  6
CONTINUOUS
 10
8.9788
 20
9.9351
  0
VERTEX
  8
LAYER10
 62
     1
  6
CONTINUOUS
 10
8.9736
 20
9.9389
  0
VERTEX
  8
LAYER10
 62
     1
  6
CONTINUOUS
 10
8.9683
 20
9.9428
  0
VERTEX
  8
LAYER10
 62
     1
  6
CONTINUOUS
 10
8.9631
 20
9.9468
  0
VERTEX
  8
LAYER10
 62
     1
  6
CONTINUOUS
 10
8.9582
 20
9.9506
  0
VERTEX
  8
LAYER10
 62
     1
  6
CONTINUOUS
 10
8.9535
 20
9.9542
  0
VERTEX
  8
LAYER10
 62
     1
  6
CONTINUOUS
 10
8.9493
 20
9.9575
  0
VERTEX
  8
LAYER10
 62
     1
  6
CONTINUOUS
 10
8.9456
 20
9.9605
  0
VERTEX
  8
LAYER10
 62
     1
  6
CONTINUOUS
 10
8.9425
 20
9.9630
  0
VERTEX
  8
LAYER10
 62
     1
  6
CONTINUOUS
 10
8.9401
 20
9.9649
  0
VERTEX
  8
LAYER10
 62
     1
  6
CONTINUOUS
 10
8.9386
 20
9.9661
  0
VERTEX
  8
LAYER10
 62
     1
  6
CONTINUOUS
 10
8.9380
 20
9.9665
  0
VERTEX
  8
LAYER10
 62
     1
  6
CONTINUOUS
 10
8.9380
 20
9.9665
  0
VERTEX
  8
LAYER10
 62
     1
  6
CONTINUOUS
 10
8.9380
 20
9.9665
  0
VERTEX
  8
LAYER10
 62
     1
  6
CONTINUOUS
 10
8.9380
 20
9.9665
  0
VERTEX
  8
LAYER10
 62
     1
  6
CONTINUOUS
 10
8.9380
 20
9.9665
  0
VERTEX
  8
LAYER10
 62
     1
  6
CONTINUOUS
 10
8.9380
 20
9.9665
  0
VERTEX
  8
LAYER10
 62
     1
  6
CONTINUOUS
 10
8.9380
 20
9.9665
  0
VERTEX
  8
LAYER10
 62
     1
  6
CONTINUOUS
 10
8.9380
 20
9.9665
  0
VERTEX
  8
LAYER10
 62
     1
  6
CONTINUOUS
 10
8.9380
 20
9.9665
  0
VERTEX
  8
LAYER10
 62
     1
  6
CONTINUOUS
 10
8.9380
 20
9.9665
  0
VERTEX
  8
LAYER10
 62
     1
  6
CONTINUOUS
 10
8.9380
 20
9.9665
  0
VERTEX
  8
LAYER10
 62
     1
  6
CONTINUOUS
 10
8.9380
 20
9.9665
  0
VERTEX
  8
LAYER10
 62
     1
  6
CONTINUOUS
 10
8.9380
 20
9.9665
  0
VERTEX
  8
LAYER10
 62
     1
  6
CONTINUOUS
 10
8.9369
 20
9.9676
  0
VERTEX
  8
LAYER10
 62
     1
  6
CONTINUOUS
 10
8.9345
 20
9.9700
  0
VERTEX
  8
LAYER10
 62
     1
  6
CONTINUOUS
 10
8.9311
 20
9.9733
  0
VERTEX
  8
LAYER10
 62
     1
  6
CONTINUOUS
 10
8.9270
 20
9.9774
  0
VERTEX
  8
LAYER10
 62
     1
  6
CONTINUOUS
 10
8.9223
 20
9.9820
  0
VERTEX
  8
LAYER10
 62
     1
  6
CONTINUOUS
 10
8.9173
 20
9.9869
  0
VERTEX
  8
LAYER10
 62
     1
  6
CONTINUOUS
 10
8.9124
 20
9.9917
  0
VERTEX
  8
LAYER10
 62
     1
  6
CONTINUOUS
 10
8.9077
 20
9.9963
  0
VERTEX
  8
LAYER10
 62
     1
  6
CONTINUOUS
 10
8.9036
 20
10.0003
  0
VERTEX
  8
LAYER10
 62
     1
  6
CONTINUOUS
 10
8.9002
 20
10.0036
  0
VERTEX
  8
LAYER10
 62
     1
  6
CONTINUOUS
 10
8.8979
 20
10.0058
  0
VERTEX
  8
LAYER10
 62
     1
  6
CONTINUOUS
 10
8.8970
 20
10.0066
  0
VERTEX
  8
LAYER10
 62
     1
  6
CONTINUOUS
 10
8.8970
 20
10.0067
  0
VERTEX
  8
LAYER10
 62
     1
  6
CONTINUOUS
 10
8.8969
 20
10.0067
  0
VERTEX
  8
LAYER10
 62
     1
  6
CONTINUOUS
 10
8.8969
 20
10.0066
  0
VERTEX
  8
LAYER10
 62
     1
  6
CONTINUOUS
 10
8.8970
 20
10.0066
  0
VERTEX
  8
LAYER10
 62
     1
  6
CONTINUOUS
 10
8.8970
 20
10.0066
  0
VERTEX
  8
LAYER10
 62
     1
  6
CONTINUOUS
 10
8.8970
 20
10.0066
  0
VERTEX
  8
LAYER10
 62
     1
  6
CONTINUOUS
 10
8.8970
 20
10.0066
  0
VERTEX
  8
LAYER10
 62
     1
  6
CONTINUOUS
 10
8.8970
 20
10.0066
  0
VERTEX
  8
LAYER10
 62
     1
  6
CONTINUOUS
 10
8.8970
 20
10.0066
  0
VERTEX
  8
LAYER10
 62
     1
  6
CONTINUOUS
 10
8.8970
 20
10.0066
  0
VERTEX
  8
LAYER10
 62
     1
  6
CONTINUOUS
 10
8.8970
 20
10.0066
  0
VERTEX
  8
LAYER10
 62
     1
  6
CONTINUOUS
 10
8.8970
 20
10.0066
  0
VERTEX
  8
LAYER10
 62
     1
  6
CONTINUOUS
 10
8.8963
 20
10.0076
  0
VERTEX
  8
LAYER10
 62
     1
  6
CONTINUOUS
 10
8.8949
 20
10.0096
  0
VERTEX
  8
LAYER10
 62
     1
  6
CONTINUOUS
 10
8.8928
 20
10.0126
  0
VERTEX
  8
LAYER10
 62
     1
  6
CONTINUOUS
 10
8.8902
 20
10.0161
  0
VERTEX
  8
LAYER10
 62
     1
  6
CONTINUOUS
 10
8.8873
 20
10.0201
  0
VERTEX
  8
LAYER10
 62
     1
  6
CONTINUOUS
 10
8.8843
 20
10.0243
  0
VERTEX
  8
LAYER10
 62
     1
  6
CONTINUOUS
 10
8.8812
 20
10.0285
  0
VERTEX
  8
LAYER10
 62
     1
  6
CONTINUOUS
 10
8.8783
 20
10.0325
  0
VERTEX
  8
LAYER10
 62
     1
  6
CONTINUOUS
 10
8.8757
 20
10.0360
  0
VERTEX
  8
LAYER10
 62
     1
  6
CONTINUOUS
 10
8.8735
 20
10.0389
  0
VERTEX
  8
LAYER10
 62
     1
  6
CONTINUOUS
 10
8.8720
 20
10.0409
  0
VERTEX
  8
LAYER10
 62
     1
  6
CONTINUOUS
 10
8.8712
 20
10.0418
  0
VERTEX
  8
LAYER10
 62
     1
  6
CONTINUOUS
 10
8.8712
 20
10.0419
  0
VERTEX
  8
LAYER10
 62
     1
  6
CONTINUOUS
 10
8.8712
 20
10.0419
  0
VERTEX
  8
LAYER10
 62
     1
  6
CONTINUOUS
 10
8.8712
 20
10.0419
  0
VERTEX
  8
LAYER10
 62
     1
  6
CONTINUOUS
 10
8.8712
 20
10.0419
  0
VERTEX
  8
LAYER10
 62
     1
  6
CONTINUOUS
 10
8.8712
 20
10.0419
  0
VERTEX
  8
LAYER10
 62
     1
  6
CONTINUOUS
 10
8.8712
 20
10.0419
  0
VERTEX
  8
LAYER10
 62
     1
  6
CONTINUOUS
 10
8.8712
 20
10.0419
  0
VERTEX
  8
LAYER10
 62
     1
  6
CONTINUOUS
 10
8.8712
 20
10.0418
  0
VERTEX
  8
LAYER10
 62
     1
  6
CONTINUOUS
 10
8.8712
 20
10.0418
  0
VERTEX
  8
LAYER10
 62
     1
  6
CONTINUOUS
 10
8.8712
 20
10.0418
  0
VERTEX
  8
LAYER10
 62
     1
  6
CONTINUOUS
 10
8.8712
 20
10.0418
  0
VERTEX
  8
LAYER10
 62
     1
  6
CONTINUOUS
 10
8.8712
 20
10.0418
  0
VERTEX
  8
LAYER10
 62
     1
  6
CONTINUOUS
 10
8.8711
 20
10.0423
  0
VERTEX
  8
LAYER10
 62
     1
  6
CONTINUOUS
 10
8.8708
 20
10.0435
  0
VERTEX
  8
LAYER10
 62
     1
  6
CONTINUOUS
 10
8.8703
 20
10.0452
  0
VERTEX
  8
LAYER10
 62
     1
  6
CONTINUOUS
 10
8.8697
 20
10.0475
  0
VERTEX
  8
LAYER10
 62
     1
  6
CONTINUOUS
 10
8.8690
 20
10.0502
  0
VERTEX
  8
LAYER10
 62
     1
  6
CONTINUOUS
 10
8.8683
 20
10.0534
  0
VERTEX
  8
LAYER10
 62
     1
  6
CONTINUOUS
 10
8.8676
 20
10.0569
  0
VERTEX
  8
LAYER10
 62
     1
  6
CONTINUOUS
 10
8.8669
 20
10.0606
  0
VERTEX
  8
LAYER10
 62
     1
  6
CONTINUOUS
 10
8.8664
 20
10.0646
  0
VERTEX
  8
LAYER10
 62
     1
  6
CONTINUOUS
 10
8.8660
 20
10.0688
  0
VERTEX
  8
LAYER10
 62
     1
  6
CONTINUOUS
 10
8.8657
 20
10.0730
  0
VERTEX
  8
LAYER10
 62
     1
  6
CONTINUOUS
 10
8.8658
 20
10.0773
  0
VERTEX
  8
LAYER10
 62
     1
  6
CONTINUOUS
 10
8.8662
 20
10.0830
  0
VERTEX
  8
LAYER10
 62
     1
  6
CONTINUOUS
 10
8.8671
 20
10.0885
  0
VERTEX
  8
LAYER10
 62
     1
  6
CONTINUOUS
 10
8.8683
 20
10.0939
  0
VERTEX
  8
LAYER10
 62
     1
  6
CONTINUOUS
 10
8.8698
 20
10.0990
  0
VERTEX
  8
LAYER10
 62
     1
  6
CONTINUOUS
 10
8.8714
 20
10.1038
  0
VERTEX
  8
LAYER10
 62
     1
  6
CONTINUOUS
 10
8.8731
 20
10.1083
  0
VERTEX
  8
LAYER10
 62
     1
  6
CONTINUOUS
 10
8.8749
 20
10.1122
  0
VERTEX
  8
LAYER10
 62
     1
  6
CONTINUOUS
 10
8.8765
 20
10.1157
  0
VERTEX
  8
LAYER10
 62
     1
  6
CONTINUOUS
 10
8.8780
 20
10.1186
  0
VERTEX
  8
LAYER10
 62
     1
  6
CONTINUOUS
 10
8.8792
 20
10.1208
  0
VERTEX
  8
LAYER10
 62
     1
  6
CONTINUOUS
 10
8.8800
 20
10.1223
  0
VERTEX
  8
LAYER10
 62
     1
  6
CONTINUOUS
 10
8.8805
 20
10.1231
  0
VERTEX
  8
LAYER10
 62
     1
  6
CONTINUOUS
 10
8.8805
 20
10.1231
  0
VERTEX
  8
LAYER10
 62
     1
  6
CONTINUOUS
 10
8.8805
 20
10.1231
  0
VERTEX
  8
LAYER10
 62
     1
  6
CONTINUOUS
 10
8.8805
 20
10.1231
  0
VERTEX
  8
LAYER10
 62
     1
  6
CONTINUOUS
 10
8.8805
 20
10.1231
  0
VERTEX
  8
LAYER10
 62
     1
  6
CONTINUOUS
 10
8.8805
 20
10.1231
  0
VERTEX
  8
LAYER10
 62
     1
  6
CONTINUOUS
 10
8.8805
 20
10.1231
  0
VERTEX
  8
LAYER10
 62
     1
  6
CONTINUOUS
 10
8.8805
 20
10.1231
  0
VERTEX
  8
LAYER10
 62
     1
  6
CONTINUOUS
 10
8.8805
 20
10.1231
  0
VERTEX
  8
LAYER10
 62
     1
  6
CONTINUOUS
 10
8.8805
 20
10.1231
  0
VERTEX
  8
LAYER10
 62
     1
  6
CONTINUOUS
 10
8.8805
 20
10.1231
  0
VERTEX
  8
LAYER10
 62
     1
  6
CONTINUOUS
 10
8.8805
 20
10.1231
  0
VERTEX
  8
LAYER10
 62
     1
  6
CONTINUOUS
 10
8.8805
 20
10.1231
  0
VERTEX
  8
LAYER10
 62
     1
  6
CONTINUOUS
 10
8.8805
 20
10.1230
  0
VERTEX
  8
LAYER10
 62
     1
  6
CONTINUOUS
 10
8.8805
 20
10.1230
  0
VERTEX
  8
LAYER10
 62
     1
  6
CONTINUOUS
 10
8.8804
 20
10.1230
  0
VERTEX
  8
LAYER10
 62
     1
  6
CONTINUOUS
 10
8.8804
 20
10.1230
  0
VERTEX
  8
LAYER10
 62
     1
  6
CONTINUOUS
 10
8.8804
 20
10.1230
  0
VERTEX
  8
LAYER10
 62
     1
  6
CONTINUOUS
 10
8.8804
 20
10.1230
  0
VERTEX
  8
LAYER10
 62
     1
  6
CONTINUOUS
 10
8.8804
 20
10.1230
  0
VERTEX
  8
LAYER10
 62
     1
  6
CONTINUOUS
 10
8.8804
 20
10.1230
  0
VERTEX
  8
LAYER10
 62
     1
  6
CONTINUOUS
 10
8.8804
 20
10.1230
  0
VERTEX
  8
LAYER10
 62
     1
  6
CONTINUOUS
 10
8.8804
 20
10.1230
  0
VERTEX
  8
LAYER10
 62
     1
  6
CONTINUOUS
 10
8.8805
 20
10.1230
  0
VERTEX
  8
LAYER10
 62
     1
  6
CONTINUOUS
 10
8.8805
 20
10.1231
  0
VERTEX
  8
LAYER10
 62
     1
  6
CONTINUOUS
 10
8.8809
 20
10.1237
  0
VERTEX
  8
LAYER10
 62
     1
  6
CONTINUOUS
 10
8.8819
 20
10.1251
  0
VERTEX
  8
LAYER10
 62
     1
  6
CONTINUOUS
 10
8.8833
 20
10.1271
  0
VERTEX
  8
LAYER10
 62
     1
  6
CONTINUOUS
 10
8.8850
 20
10.1295
  0
VERTEX
  8
LAYER10
 62
     1
  6
CONTINUOUS
 10
8.8871
 20
10.1325
  0
VERTEX
  8
LAYER10
 62
     1
  6
CONTINUOUS
 10
8.8894
 20
10.1358
  0
VERTEX
  8
LAYER10
 62
     1
  6
CONTINUOUS
 10
8.8919
 20
10.1394
  0
VERTEX
  8
LAYER10
 62
     1
  6
CONTINUOUS
 10
8.8945
 20
10.1432
  0
VERTEX
  8
LAYER10
 62
     1
  6
CONTINUOUS
 10
8.8973
 20
10.1471
  0
VERTEX
  8
LAYER10
 62
     1
  6
CONTINUOUS
 10
8.9000
 20
10.1510
  0
VERTEX
  8
LAYER10
 62
     1
  6
CONTINUOUS
 10
8.9028
 20
10.1550
  0
VERTEX
  8
LAYER10
 62
     1
  6
CONTINUOUS
 10
8.9054
 20
10.1588
  0
VERTEX
  8
LAYER10
 62
     1
  6
CONTINUOUS
 10
8.9081
 20
10.1627
  0
VERTEX
  8
LAYER10
 62
     1
  6
CONTINUOUS
 10
8.9107
 20
10.1664
  0
VERTEX
  8
LAYER10
 62
     1
  6
CONTINUOUS
 10
8.9132
 20
10.1700
  0
VERTEX
  8
LAYER10
 62
     1
  6
CONTINUOUS
 10
8.9156
 20
10.1733
  0
VERTEX
  8
LAYER10
 62
     1
  6
CONTINUOUS
 10
8.9179
 20
10.1764
  0
VERTEX
  8
LAYER10
 62
     1
  6
CONTINUOUS
 10
8.9202
 20
10.1794
  0
VERTEX
  8
LAYER10
 62
     1
  6
CONTINUOUS
 10
8.9226
 20
10.1823
  0
VERTEX
  8
LAYER10
 62
     1
  6
CONTINUOUS
 10
8.9250
 20
10.1850
  0
VERTEX
  8
LAYER10
 62
     1
  6
CONTINUOUS
 10
8.9274
 20
10.1876
  0
VERTEX
  8
LAYER10
 62
     1
  6
CONTINUOUS
 10
8.9300
 20
10.1900
  0
VERTEX
  8
LAYER10
 62
     1
  6
CONTINUOUS
 10
8.9326
 20
10.1924
  0
VERTEX
  8
LAYER10
 62
     1
  6
CONTINUOUS
 10
8.9354
 20
10.1946
  0
VERTEX
  8
LAYER10
 62
     1
  6
CONTINUOUS
 10
8.9376
 20
10.1962
  0
VERTEX
  8
LAYER10
 62
     1
  6
CONTINUOUS
 10
8.9398
 20
10.1978
  0
VERTEX
  8
LAYER10
 62
     1
  6
CONTINUOUS
 10
8.9422
 20
10.1992
  0
VERTEX
  8
LAYER10
 62
     1
  6
CONTINUOUS
 10
8.9446
 20
10.2007
  0
VERTEX
  8
LAYER10
 62
     1
  6
CONTINUOUS
 10
8.9470
 20
10.2021
  0
VERTEX
  8
LAYER10
 62
     1
  6
CONTINUOUS
 10
8.9496
 20
10.2034
  0
VERTEX
  8
LAYER10
 62
     1
  6
CONTINUOUS
 10
8.9522
 20
10.2047
  0
VERTEX
  8
LAYER10
 62
     1
  6
CONTINUOUS
 10
8.9548
 20
10.2059
  0
VERTEX
  8
LAYER10
 62
     1
  6
CONTINUOUS
 10
8.9575
 20
10.2071
  0
VERTEX
  8
LAYER10
 62
     1
  6
CONTINUOUS
 10
8.9602
 20
10.2082
  0
VERTEX
  8
LAYER10
 62
     1
  6
CONTINUOUS
 10
8.9629
 20
10.2092
  0
VERTEX
  8
LAYER10
 62
     1
  6
CONTINUOUS
 10
8.9657
 20
10.2102
  0
VERTEX
  8
LAYER10
 62
     1
  6
CONTINUOUS
 10
8.9702
 20
10.2116
  0
VERTEX
  8
LAYER10
 62
     1
  6
CONTINUOUS
 10
8.9748
 20
10.2129
  0
VERTEX
  8
LAYER10
 62
     1
  6
CONTINUOUS
 10
8.9795
 20
10.2140
  0
VERTEX
  8
LAYER10
 62
     1
  6
CONTINUOUS
 10
8.9841
 20
10.2149
  0
VERTEX
  8
LAYER10
 62
     1
  6
CONTINUOUS
 10
8.9888
 20
10.2157
  0
VERTEX
  8
LAYER10
 62
     1
  6
CONTINUOUS
 10
8.9934
 20
10.2163
  0
VERTEX
  8
LAYER10
 62
     1
  6
CONTINUOUS
 10
8.9981
 20
10.2166
  0
VERTEX
  8
LAYER10
 62
     1
  6
CONTINUOUS
 10
9.0028
 20
10.2168
  0
VERTEX
  8
LAYER10
 62
     1
  6
CONTINUOUS
 10
9.0075
 20
10.2169
  0
VERTEX
  8
LAYER10
 62
     1
  6
CONTINUOUS
 10
9.0121
 20
10.2167
  0
VERTEX
  8
LAYER10
 62
     1
  6
CONTINUOUS
 10
9.0168
 20
10.2164
  0
VERTEX
  8
LAYER10
 62
     1
  6
CONTINUOUS
 10
9.0214
 20
10.2159
  0
VERTEX
  8
LAYER10
 62
     1
  6
CONTINUOUS
 10
9.0243
 20
10.2154
  0
VERTEX
  8
LAYER10
 62
     1
  6
CONTINUOUS
 10
9.0272
 20
10.2150
  0
VERTEX
  8
LAYER10
 62
     1
  6
CONTINUOUS
 10
9.0301
 20
10.2144
  0
VERTEX
  8
LAYER10
 62
     1
  6
CONTINUOUS
 10
9.0330
 20
10.2138
  0
VERTEX
  8
LAYER10
 62
     1
  6
CONTINUOUS
 10
9.0359
 20
10.2132
  0
VERTEX
  8
LAYER10
 62
     1
  6
CONTINUOUS
 10
9.0388
 20
10.2125
  0
VERTEX
  8
LAYER10
 62
     1
  6
CONTINUOUS
 10
9.0417
 20
10.2117
  0
VERTEX
  8
LAYER10
 62
     1
  6
CONTINUOUS
 10
9.0446
 20
10.2110
  0
VERTEX
  8
LAYER10
 62
     1
  6
CONTINUOUS
 10
9.0475
 20
10.2102
  0
VERTEX
  8
LAYER10
 62
     1
  6
CONTINUOUS
 10
9.0503
 20
10.2094
  0
VERTEX
  8
LAYER10
 62
     1
  6
CONTINUOUS
 10
9.0532
 20
10.2086
  0
VERTEX
  8
LAYER10
 62
     1
  6
CONTINUOUS
 10
9.0561
 20
10.2077
  0
SEQEND
  8
LAYER10
  0
POLYLINE
  8
LAYER10
 62
     1
 66
     1
  6
CONTINUOUS
  0
VERTEX
  8
LAYER10
 62
     1
  6
CONTINUOUS
 10
9.0561
 20
10.2077
  0
VERTEX
  8
LAYER10
 62
     1
  6
CONTINUOUS
 10
9.0561
 20
10.2077
  0
VERTEX
  8
LAYER10
 62
     1
  6
CONTINUOUS
 10
9.0561
 20
10.2077
  0
VERTEX
  8
LAYER10
 62
     1
  6
CONTINUOUS
 10
9.0561
 20
10.2077
  0
VERTEX
  8
LAYER10
 62
     1
  6
CONTINUOUS
 10
9.0561
 20
10.2077
  0
VERTEX
  8
LAYER10
 62
     1
  6
CONTINUOUS
 10
9.0561
 20
10.2077
  0
VERTEX
  8
LAYER10
 62
     1
  6
CONTINUOUS
 10
9.0561
 20
10.2077
  0
VERTEX
  8
LAYER10
 62
     1
  6
CONTINUOUS
 10
9.0561
 20
10.2077
  0
VERTEX
  8
LAYER10
 62
     1
  6
CONTINUOUS
 10
9.0561
 20
10.2077
  0
VERTEX
  8
LAYER10
 62
     1
  6
CONTINUOUS
 10
9.0561
 20
10.2077
  0
VERTEX
  8
LAYER10
 62
     1
  6
CONTINUOUS
 10
9.0561
 20
10.2077
  0
VERTEX
  8
LAYER10
 62
     1
  6
CONTINUOUS
 10
9.0561
 20
10.2077
  0
VERTEX
  8
LAYER10
 62
     1
  6
CONTINUOUS
 10
9.0561
 20
10.2077
  0
VERTEX
  8
LAYER10
 62
     1
  6
CONTINUOUS
 10
9.0563
 20
10.2075
  0
VERTEX
  8
LAYER10
 62
     1
  6
CONTINUOUS
 10
9.0565
 20
10.2073
  0
VERTEX
  8
LAYER10
 62
     1
  6
CONTINUOUS
 10
9.0566
 20
10.2072
  0
VERTEX
  8
LAYER10
 62
     1
  6
CONTINUOUS
 10
9.0567
 20
10.2071
  0
VERTEX
  8
LAYER10
 62
     1
  6
CONTINUOUS
 10
9.0567
 20
10.2071
  0
VERTEX
  8
LAYER10
 62
     1
  6
CONTINUOUS
 10
9.0567
 20
10.2071
  0
VERTEX
  8
LAYER10
 62
     1
  6
CONTINUOUS
 10
9.0566
 20
10.2072
  0
VERTEX
  8
LAYER10
 62
     1
  6
CONTINUOUS
 10
9.0566
 20
10.2073
  0
VERTEX
  8
LAYER10
 62
     1
  6
CONTINUOUS
 10
9.0565
 20
10.2074
  0
VERTEX
  8
LAYER10
 62
     1
  6
CONTINUOUS
 10
9.0563
 20
10.2075
  0
VERTEX
  8
LAYER10
 62
     1
  6
CONTINUOUS
 10
9.0562
 20
10.2076
  0
VERTEX
  8
LAYER10
 62
     1
  6
CONTINUOUS
 10
9.0561
 20
10.2077
  0
SEQEND
  8
LAYER10
  0
POLYLINE
  8
LAYER10
 62
     1
 66
     1
  6
CONTINUOUS
  0
VERTEX
  8
LAYER10
 62
     1
  6
CONTINUOUS
 10
9.0561
 20
10.2077
  0
VERTEX
  8
LAYER10
 62
     1
  6
CONTINUOUS
 10
9.0561
 20
10.2077
  0
VERTEX
  8
LAYER10
 62
     1
  6
CONTINUOUS
 10
9.0561
 20
10.2077
  0
VERTEX
  8
LAYER10
 62
     1
  6
CONTINUOUS
 10
9.0561
 20
10.2077
  0
VERTEX
  8
LAYER10
 62
     1
  6
CONTINUOUS
 10
9.0561
 20
10.2077
  0
VERTEX
  8
LAYER10
 62
     1
  6
CONTINUOUS
 10
9.0561
 20
10.2077
  0
VERTEX
  8
LAYER10
 62
     1
  6
CONTINUOUS
 10
9.0561
 20
10.2077
  0
VERTEX
  8
LAYER10
 62
     1
  6
CONTINUOUS
 10
9.0561
 20
10.2077
  0
VERTEX
  8
LAYER10
 62
     1
  6
CONTINUOUS
 10
9.0561
 20
10.2077
  0
VERTEX
  8
LAYER10
 62
     1
  6
CONTINUOUS
 10
9.0561
 20
10.2077
  0
VERTEX
  8
LAYER10
 62
     1
  6
CONTINUOUS
 10
9.0561
 20
10.2077
  0
VERTEX
  8
LAYER10
 62
     1
  6
CONTINUOUS
 10
9.0561
 20
10.2077
  0
VERTEX
  8
LAYER10
 62
     1
  6
CONTINUOUS
 10
9.0561
 20
10.2077
  0
VERTEX
  8
LAYER10
 62
     1
  6
CONTINUOUS
 10
9.0558
 20
10.2080
  0
VERTEX
  8
LAYER10
 62
     1
  6
CONTINUOUS
 10
9.0557
 20
10.2081
  0
VERTEX
  8
LAYER10
 62
     1
  6
CONTINUOUS
 10
9.0556
 20
10.2083
  0
VERTEX
  8
LAYER10
 62
     1
  6
CONTINUOUS
 10
9.0555
 20
10.2083
  0
VERTEX
  8
LAYER10
 62
     1
  6
CONTINUOUS
 10
9.0555
 20
10.2083
  0
VERTEX
  8
LAYER10
 62
     1
  6
CONTINUOUS
 10
9.0555
 20
10.2083
  0
VERTEX
  8
LAYER10
 62
     1
  6
CONTINUOUS
 10
9.0555
 20
10.2083
  0
VERTEX
  8
LAYER10
 62
     1
  6
CONTINUOUS
 10
9.0556
 20
10.2082
  0
VERTEX
  8
LAYER10
 62
     1
  6
CONTINUOUS
 10
9.0557
 20
10.2081
  0
VERTEX
  8
LAYER10
 62
     1
  6
CONTINUOUS
 10
9.0558
 20
10.2080
  0
VERTEX
  8
LAYER10
 62
     1
  6
CONTINUOUS
 10
9.0559
 20
10.2079
  0
VERTEX
  8
LAYER10
 62
     1
  6
CONTINUOUS
 10
9.0561
 20
10.2077
  0
SEQEND
  8
LAYER10
  0
POLYLINE
  8
LAYER10
 62
     1
 66
     1
  6
CONTINUOUS
  0
VERTEX
  8
LAYER10
 62
     1
  6
CONTINUOUS
 10
8.8728
 20
9.5139
  0
VERTEX
  8
LAYER10
 62
     1
  6
CONTINUOUS
 10
8.8728
 20
9.5139
  0
VERTEX
  8
LAYER10
 62
     1
  6
CONTINUOUS
 10
8.8727
 20
9.5139
  0
VERTEX
  8
LAYER10
 62
     1
  6
CONTINUOUS
 10
8.8727
 20
9.5139
  0
VERTEX
  8
LAYER10
 62
     1
  6
CONTINUOUS
 10
8.8726
 20
9.5139
  0
VERTEX
  8
LAYER10
 62
     1
  6
CONTINUOUS
 10
8.8726
 20
9.5139
  0
VERTEX
  8
LAYER10
 62
     1
  6
CONTINUOUS
 10
8.8726
 20
9.5138
  0
VERTEX
  8
LAYER10
 62
     1
  6
CONTINUOUS
 10
8.8725
 20
9.5138
  0
VERTEX
  8
LAYER10
 62
     1
  6
CONTINUOUS
 10
8.8725
 20
9.5138
  0
VERTEX
  8
LAYER10
 62
     1
  6
CONTINUOUS
 10
8.8724
 20
9.5138
  0
VERTEX
  8
LAYER10
 62
     1
  6
CONTINUOUS
 10
8.8724
 20
9.5138
  0
VERTEX
  8
LAYER10
 62
     1
  6
CONTINUOUS
 10
8.8724
 20
9.5138
  0
VERTEX
  8
LAYER10
 62
     1
  6
CONTINUOUS
 10
8.8723
 20
9.5138
  0
VERTEX
  8
LAYER10
 62
     1
  6
CONTINUOUS
 10
8.8720
 20
9.5137
  0
VERTEX
  8
LAYER10
 62
     1
  6
CONTINUOUS
 10
8.8718
 20
9.5136
  0
VERTEX
  8
LAYER10
 62
     1
  6
CONTINUOUS
 10
8.8717
 20
9.5135
  0
VERTEX
  8
LAYER10
 62
     1
  6
CONTINUOUS
 10
8.8716
 20
9.5135
  0
VERTEX
  8
LAYER10
 62
     1
  6
CONTINUOUS
 10
8.8716
 20
9.5135
  0
VERTEX
  8
LAYER10
 62
     1
  6
CONTINUOUS
 10
8.8716
 20
9.5135
  0
VERTEX
  8
LAYER10
 62
     1
  6
CONTINUOUS
 10
8.8717
 20
9.5135
  0
VERTEX
  8
LAYER10
 62
     1
  6
CONTINUOUS
 10
8.8718
 20
9.5136
  0
VERTEX
  8
LAYER10
 62
     1
  6
CONTINUOUS
 10
8.8719
 20
9.5136
  0
VERTEX
  8
LAYER10
 62
     1
  6
CONTINUOUS
 10
8.8720
 20
9.5136
  0
VERTEX
  8
LAYER10
 62
     1
  6
CONTINUOUS
 10
8.8722
 20
9.5137
  0
VERTEX
  8
LAYER10
 62
     1
  6
CONTINUOUS
 10
8.8723
 20
9.5138
  0
SEQEND
  8
LAYER10
  0
POLYLINE
  8
LAYER10
 62
     1
 66
     1
  6
CONTINUOUS
  0
VERTEX
  8
LAYER10
 62
     1
  6
CONTINUOUS
 10
8.8276
 20
9.5138
  0
VERTEX
  8
LAYER10
 62
     1
  6
CONTINUOUS
 10
8.8276
 20
9.5138
  0
VERTEX
  8
LAYER10
 62
     1
  6
CONTINUOUS
 10
8.8275
 20
9.5138
  0
VERTEX
  8
LAYER10
 62
     1
  6
CONTINUOUS
 10
8.8275
 20
9.5138
  0
VERTEX
  8
LAYER10
 62
     1
  6
CONTINUOUS
 10
8.8274
 20
9.5138
  0
VERTEX
  8
LAYER10
 62
     1
  6
CONTINUOUS
 10
8.8274
 20
9.5138
  0
VERTEX
  8
LAYER10
 62
     1
  6
CONTINUOUS
 10
8.8273
 20
9.5138
  0
VERTEX
  8
LAYER10
 62
     1
  6
CONTINUOUS
 10
8.8273
 20
9.5139
  0
VERTEX
  8
LAYER10
 62
     1
  6
CONTINUOUS
 10
8.8272
 20
9.5139
  0
VERTEX
  8
LAYER10
 62
     1
  6
CONTINUOUS
 10
8.8272
 20
9.5139
  0
VERTEX
  8
LAYER10
 62
     1
  6
CONTINUOUS
 10
8.8271
 20
9.5139
  0
VERTEX
  8
LAYER10
 62
     1
  6
CONTINUOUS
 10
8.8271
 20
9.5139
  0
VERTEX
  8
LAYER10
 62
     1
  6
CONTINUOUS
 10
8.8270
 20
9.5139
  0
VERTEX
  8
LAYER10
 62
     1
  6
CONTINUOUS
 10
8.8268
 20
9.5140
  0
VERTEX
  8
LAYER10
 62
     1
  6
CONTINUOUS
 10
8.8266
 20
9.5141
  0
VERTEX
  8
LAYER10
 62
     1
  6
CONTINUOUS
 10
8.8264
 20
9.5141
  0
VERTEX
  8
LAYER10
 62
     1
  6
CONTINUOUS
 10
8.8263
 20
9.5141
  0
VERTEX
  8
LAYER10
 62
     1
  6
CONTINUOUS
 10
8.8263
 20
9.5141
  0
VERTEX
  8
LAYER10
 62
     1
  6
CONTINUOUS
 10
8.8263
 20
9.5141
  0
VERTEX
  8
LAYER10
 62
     1
  6
CONTINUOUS
 10
8.8264
 20
9.5141
  0
VERTEX
  8
LAYER10
 62
     1
  6
CONTINUOUS
 10
8.8265
 20
9.5141
  0
VERTEX
  8
LAYER10
 62
     1
  6
CONTINUOUS
 10
8.8266
 20
9.5141
  0
VERTEX
  8
LAYER10
 62
     1
  6
CONTINUOUS
 10
8.8267
 20
9.5140
  0
VERTEX
  8
LAYER10
 62
     1
  6
CONTINUOUS
 10
8.8269
 20
9.5140
  0
VERTEX
  8
LAYER10
 62
     1
  6
CONTINUOUS
 10
8.8270
 20
9.5139
  0
SEQEND
  8
LAYER10
  0
POLYLINE
  8
LAYER12
 62
     5
 66
     1
  6
CONTINUOUS
  0
VERTEX
  8
LAYER12
 62
     5
  6
CONTINUOUS
 10
8.0340
 20
9.5139
  0
VERTEX
  8
LAYER12
 62
     5
  6
CONTINUOUS
 10
8.0330
 20
9.5139
  0
SEQEND
  8
LAYER12
  0
POLYLINE
  8
LAYER12
 62
     5
 66
     1
  6
CONTINUOUS
  0
VERTEX
  8
LAYER12
 62
     5
  6
CONTINUOUS
 10
8.0330
 20
9.5139
  0
VERTEX
  8
LAYER12
 62
     5
  6
CONTINUOUS
 10
8.0330
 20
9.5140
  0
SEQEND
  8
LAYER12
  0
POLYLINE
  8
LAYER12
 62
     5
 66
     1
  6
CONTINUOUS
  0
VERTEX
  8
LAYER12
 62
     5
  6
CONTINUOUS
 10
8.0330
 20
9.5140
  0
VERTEX
  8
LAYER12
 62
     5
  6
CONTINUOUS
 10
8.0330
 20
9.5139
  0
SEQEND
  8
LAYER12
  0
POLYLINE
  8
LAYER12
 62
     5
 66
     1
  6
CONTINUOUS
  0
VERTEX
  8
LAYER12
 62
     5
  6
CONTINUOUS
 10
8.0330
 20
9.5139
  0
VERTEX
  8
LAYER12
 62
     5
  6
CONTINUOUS
 10
8.0330
 20
9.5139
  0
SEQEND
  8
LAYER12
  0
POLYLINE
  8
LAYER12
 62
     5
 66
     1
  6
CONTINUOUS
  0
VERTEX
  8
LAYER12
 62
     5
  6
CONTINUOUS
 10
8.0330
 20
9.5139
  0
VERTEX
  8
LAYER12
 62
     5
  6
CONTINUOUS
 10
8.0330
 20
9.5139
  0
SEQEND
  8
LAYER12
  0
POLYLINE
  8
LAYER12
 62
     5
 66
     1
  6
CONTINUOUS
  0
VERTEX
  8
LAYER12
 62
     5
  6
CONTINUOUS
 10
8.0330
 20
9.5139
  0
VERTEX
  8
LAYER12
 62
     5
  6
CONTINUOUS
 10
8.0330
 20
9.5140
  0
SEQEND
  8
LAYER12
  0
POLYLINE
  8
LAYER12
 62
     5
 66
     1
  6
CONTINUOUS
  0
VERTEX
  8
LAYER12
 62
     5
  6
CONTINUOUS
 10
8.0330
 20
9.5140
  0
VERTEX
  8
LAYER12
 62
     5
  6
CONTINUOUS
 10
8.0330
 20
9.5139
  0
SEQEND
  8
LAYER12
  0
POLYLINE
  8
LAYER12
 62
     5
 66
     1
  6
CONTINUOUS
  0
VERTEX
  8
LAYER12
 62
     5
  6
CONTINUOUS
 10
9.0561
 20
9.5139
  0
VERTEX
  8
LAYER12
 62
     5
  6
CONTINUOUS
 10
8.0340
 20
9.5139
  0
SEQEND
  8
LAYER12
  0
POLYLINE
  8
LAYER12
 62
     5
 66
     1
  6
CONTINUOUS
  0
VERTEX
  8
LAYER12
 62
     5
  6
CONTINUOUS
 10
8.0330
 20
9.5139
  0
VERTEX
  8
LAYER12
 62
     5
  6
CONTINUOUS
 10
8.0330
 20
9.5138
  0
SEQEND
  8
LAYER12
  0
POLYLINE
  8
LAYER12
 62
     5
 66
     1
  6
CONTINUOUS
  0
VERTEX
  8
LAYER12
 62
     5
  6
CONTINUOUS
 10
8.0330
 20
9.5139
  0
VERTEX
  8
LAYER12
 62
     5
  6
CONTINUOUS
 10
8.0319
 20
9.5139
  0
SEQEND
  8
LAYER12
  0
POLYLINE
  8
LAYER12
 62
     5
 66
     1
  6
CONTINUOUS
  0
VERTEX
  8
LAYER12
 62
     5
  6
CONTINUOUS
 10
9.0561
 20
9.5138
  0
VERTEX
  8
LAYER12
 62
     5
  6
CONTINUOUS
 10
9.0561
 20
9.5139
  0
SEQEND
  8
LAYER12
  0
POLYLINE
  8
LAYER12
 62
     5
 66
     1
  6
CONTINUOUS
  0
VERTEX
  8
LAYER12
 62
     5
  6
CONTINUOUS
 10
9.0561
 20
9.5139
  0
VERTEX
  8
LAYER12
 62
     5
  6
CONTINUOUS
 10
9.0561
 20
10.5370
  0
SEQEND
  8
LAYER12
  0
POLYLINE
  8
LAYER12
 62
     5
 66
     1
  6
CONTINUOUS
  0
VERTEX
  8
LAYER12
 62
     5
  6
CONTINUOUS
 10
9.0561
 20
10.5370
  0
VERTEX
  8
LAYER12
 62
     5
  6
CONTINUOUS
 10
9.0561
 20
10.5370
  0
SEQEND
  8
LAYER12
  0
POLYLINE
  8
LAYER12
 62
     5
 66
     1
  6
CONTINUOUS
  0
VERTEX
  8
LAYER12
 62
     5
  6
CONTINUOUS
 10
8.0340
 20
10.5370
  0
VERTEX
  8
LAYER12
 62
     5
  6
CONTINUOUS
 10
9.0561
 20
10.5370
  0
SEQEND
  8
LAYER12
  0
POLYLINE
  8
LAYER12
 62
     5
 66
     1
  6
CONTINUOUS
  0
VERTEX
  8
LAYER12
 62
     5
  6
CONTINUOUS
 10
9.0561
 20
10.5370
  0
VERTEX
  8
LAYER12
 62
     5
  6
CONTINUOUS
 10
9.0561
 20
10.5370
  0
SEQEND
  8
LAYER12
  0
POLYLINE
  8
LAYER12
 62
     5
 66
     1
  6
CONTINUOUS
  0
VERTEX
  8
LAYER12
 62
     5
  6
CONTINUOUS
 10
9.0561
 20
10.5370
  0
VERTEX
  8
LAYER12
 62
     5
  6
CONTINUOUS
 10
9.0561
 20
10.5370
  0
SEQEND
  8
LAYER12
  0
POLYLINE
  8
LAYER12
 62
     5
 66
     1
  6
CONTINUOUS
  0
VERTEX
  8
LAYER12
 62
     5
  6
CONTINUOUS
 10
9.0561
 20
10.5370
  0
VERTEX
  8
LAYER12
 62
     5
  6
CONTINUOUS
 10
9.0561
 20
10.5370
  0
SEQEND
  8
LAYER12
  0
POLYLINE
  8
LAYER12
 62
     5
 66
     1
  6
CONTINUOUS
  0
VERTEX
  8
LAYER12
 62
     5
  6
CONTINUOUS
 10
9.0561
 20
10.5370
  0
VERTEX
  8
LAYER12
 62
     5
  6
CONTINUOUS
 10
9.0561
 20
10.5370
  0
SEQEND
  8
LAYER12
  0
POLYLINE
  8
LAYER12
 62
     5
 66
     1
  6
CONTINUOUS
  0
VERTEX
  8
LAYER12
 62
     5
  6
CONTINUOUS
 10
8.0330
 20
10.5370
  0
VERTEX
  8
LAYER12
 62
     5
  6
CONTINUOUS
 10
8.0340
 20
10.5370
  0
SEQEND
  8
LAYER12
  0
POLYLINE
  8
LAYER12
 62
     5
 66
     1
  6
CONTINUOUS
  0
VERTEX
  8
LAYER12
 62
     5
  6
CONTINUOUS
 10
8.0330
 20
10.5370
  0
VERTEX
  8
LAYER12
 62
     5
  6
CONTINUOUS
 10
8.0330
 20
9.5139
  0
SEQEND
  8
LAYER12
  0
POLYLINE
  8
LAYER12
 62
     5
 66
     1
  6
CONTINUOUS
  0
VERTEX
  8
LAYER12
 62
     5
  6
CONTINUOUS
 10
8.0319
 20
10.5370
  0
VERTEX
  8
LAYER12
 62
     5
  6
CONTINUOUS
 10
8.0330
 20
10.5370
  0
SEQEND
  8
LAYER12
  0
POLYLINE
  8
LAYER12
 62
     5
 66
     1
  6
CONTINUOUS
  0
VERTEX
  8
LAYER12
 62
     5
  6
CONTINUOUS
 10
8.0330
 20
10.5370
  0
VERTEX
  8
LAYER12
 62
     5
  6
CONTINUOUS
 10
8.0330
 20
10.5370
  0
SEQEND
  8
LAYER12
  0
ENDSEC
  0
EOF
