  0
SECTION
  2
HEADER
  9
$ACADVER
  1
AC1004
  9
$EXTMIN
 10
6.0657
 20
9.5139
  9
$EXTMAX
 10
7.0493
 20
10.5370
  9
$LIMMIN
 10
6.0657
 20
9.5139
  9
$LIMMAX
 10
7.0493
 20
10.5370
  9
$INSBASE
 10
0.0
 20
0.0
  9
$VIEWCTR
 10
7.21903
 20
4.5
  9
$VIEWSIZE
 40
9.0
  9
$SNAPMODE
 70
     0
  9
$SNAPUNIT
 10
1.0
 20
1.0
  9
$SNAPBASE
 10
0.0
 20
0.0
  9
$SNAPANG
 50
0.0
  9
$SNAPSTYLE
 70
     0
  9
$SNAPISOPAIR
 70
     0
  9
$GRIDMODE
 70
     0
  9
$GRIDUNIT
 10
0.0
 20
0.0
  9
$ORTHOMODE
 70
     0
  9
$REGENMODE
 70
     1
  9
$FILLMODE
 70
     1
  9
$QTEXTMODE
 70
     0
  9
$DRAGMODE
 70
     2
  9
$LTSCALE
 40
1.0
  9
$OSMODE
 70
     0
  9
$ATTMODE
 70
     1
  9
$TEXTSIZE
 40
0.2
  9
$TRACEWID
 40
0.05
  9
$TEXTSTYLE
  7
STANDARD
  9
$CLAYER
  8
0
  9
$CELTYPE
  6
BYLAYER
  9
$CECOLOR
 62
   256
  9
$DIMSCALE
 40
1.0
  9
$DIMASZ
 40
0.18
  9
$DIMEXO
 40
0.0625
  9
$DIMDLI
 40
0.38
  9
$DIMRND
 40
0.0
  9
$DIMDLE
 40
0.0
  9
$DIMEXE
 40
0.18
  9
$DIMTP
 40
0.0
  9
$DIMTM
 40
0.0
  9
$DIMTXT
 40
0.18
  9
$DIMCEN
 40
0.09
  9
$DIMTSZ
 40
0.0
  9
$DIMTOL
 70
     0
  9
$DIMLIM
 70
     0
  9
$DIMTIH
 70
     1
  9
$DIMTOH
 70
     1
  9
$DIMSE1
 70
     0
  9
$DIMSE2
 70
     0
  9
$DIMTAD
 70
     0
  9
$DIMZIN
 70
     0
  9
$DIMBLK
  1

  9
$DIMASO
 70
     1
  9
$DIMSHO
 70
     0
  9
$DIMPOST
  1

  9
$DIMAPOST
  1

  9
$DIMALT
 70
     0
  9
$DIMALTD
 70
     2
  9
$DIMALTF
 40
25.4
  9
$DIMLFAC
 40
1.0
  9
$LUNITS
 70
     2
  9
$LUPREC
 70
     4
  9
$AXISMODE
 70
     0
  9
$AXISUNIT
 10
0.0
 20
0.0
  9
$SKETCHINC
 40
0.1
  9
$FILLETRAD
 40
0.0
  9
$AUNITS
 70
     0
  9
$AUPREC
 70
     0
  9
$MENU
  1
acad
  9
$ELEVATION
 40
0.0
  9
$THICKNESS
 40
0.0
  9
$VIEWDIR
 10
0.0
 20
0.0
 30
1.0
  9
$LIMCHECK
 70
     0
  9
$BLIPMODE
 70
     1
  9
$CHAMFERA
 40
0.0
  9
$CHAMFERB
 40
0.0
  9
$FASTZOOM
 70
     1
  9
$SKPOLY
 70
     0
  9
$TDCREATE
 40
2447222.5666886573
  9
$TDUPDATE
 40
2447222.5666886573
  9
$TDINDWG
 40
0.0000000000
  9
$TDUSRTIMER
 40
0.0000000000
  9
$USRTIMER
 70
     1
  9
$ANGBASE
 50
0.0
  9
$ANGDIR
 70
     0
  9
$PDMODE
 70
     0
  9
$PDSIZE
 40
0.0
  9
$PLINEWID
 40
0.0
  9
$COORDS
 70
     0
  9
$SPLFRAME
 70
     0
  9
$SPLINESEGS
 70
     8
  9
$ATTDIA
 70
     0
  9
$ATTREQ
 70
     1
  9
$USERI1
 70
     0
  9
$USERI2
 70
     0
  9
$USERI3
 70
     0
  9
$USERI4
 70
     0
  9
$USERI5
 70
     0
  9
$USERR1
 40
0.0
  9
$USERR2
 40
0.0
  9
$USERR3
 40
0.0
  9
$USERR4
 40
0.0
  9
$USERR5
 40
0.0
  0
ENDSEC
  0
SECTION
  2
TABLES
  0
TABLE
  2
LTYPE
 70
     13
  0
LTYPE
  2
CONTINUOUS
 70
    64
  3
Solid line
 72
    65
 73
     0
 40
0.0
  0
LTYPE
  2
DASHED
 70
    64
  3
__ __ __ __ __ __ __ __ __ __ __ __ __ __ __
 72
    65
 73
     2
 40
0.75
 49
0.5
 49
-0.25
  0
LTYPE
  2
HIDDEN
 70
    64
  3
_ _ _ _ _ _ _ _ _ _ _ _ _ _ _ _ _ _ _ _ _ _ _
 72
    65
 73
     2
 40
0.375
 49
0.25
 49
-0.125
  0
LTYPE
  2
CENTER
 70
    64
  3
____ _ ____ _ ____ _ ____ _ ____ _ ____ _ ____
 72
    65
 73
     4
 40
2.0
 49
1.25
 49
-0.25
 49
0.25
 49
-0.25
  0
LTYPE
  2
PHANTOM
 70
    64
  3
_____ _ _ _____ _ _ _____ _ _ _____ _ _ ____
 72
    65
 73
     6
 40
2.5
 49
1.25
 49
-0.25
 49
0.25
 49
-0.25
 49
0.25
 49
-0.25
  0
LTYPE
  2
DOT
 70
    64
  3
...............................................
 72
    65
 73
     2
 40
0.25
 49
0.0
 49
-0.25
  0
LTYPE
  2
DASHDOT
 70
    64
  3
__ . __ . __ . __ . __ . __ . __ . __ . __ . __
 72
    65
 73
     4
 40
1.0
 49
0.5
 49
-0.25
 49
0.0
 49
-0.25
  0
LTYPE
  2
BORDER
 70
    64
  3
__ __ . __ __ . __ __ . __ __ . __ __ . __ __
 72
    65
 73
     6
 40
1.75
 49
0.5
 49
-0.25
 49
0.5
 49
-0.25
 49
0.0
 49
-0.25
  0
LTYPE
  2
DIVIDE
 70
    64
  3
__ . . __ . . __ . . __ . . __ . . __ . . __
 72
    65
 73
     6
 40
1.25
 49
0.5
 49
-0.25
 49
0.0
 49
-0.25
 49
0.0
 49
-0.25
  0
LTYPE
  2
DCTYPE1
 70
    64
  3
__ . . __ . . __ . . __ . . __ . . __ . . __
 72
    65
 73
     8
 40
2.5
 49
0.5
 49
-0.25
 49
0.125
 49
-0.25
 49
0.25
 49
-0.25
 49
0.125
 49
-0.25
  0
LTYPE
  2
DCTYPE2
 70
    64
  3
__ . . __ . . __ . . __ . . __ . . __ . . __
 72
    65
 73
     6
 40
2.05
 49
1.0
 49
-0.3
 49
0.15
 49
-0.15
 49
0.15
 49
-0.3
  0
LTYPE
  2
DCTYPE3
 70
    64
  3
__ . . __ . . __ . . __ . . __ . . __ . . __
 72
    65
 73
     6
 40
2.5
 49
0.8
 49
-0.2
 49
0.8
 49
-0.2
 49
0.3
 49
-0.2
  0
LTYPE
  2
DCTYPE4
 70
    64
  3
__ . . __ . . __ . . __ . . __ . . __ . . __
 72
    65
 73
     10
 40
3.97
 49
1.75
 49
-0.3
 49
0.3
 49
-0.3
 49
0.06
 49
-0.3
 49
0.06
 49
-0.3
 49
0.3
 49
-0.3
  0
ENDTAB
  0
TABLE
  2
LAYER
 70
    153
  0
LAYER
  2
LAYER1
 70
 64
 62
     7
  6
CONTINUOUS
  0
LAYER
  2
LAYER10
 70
 64
 62
     1
  6
CONTINUOUS
  0
LAYER
  2
LAYER12
 70
 64
 62
     5
  6
CONTINUOUS
  0
ENDTAB
  0
ENDSEC
  0
SECTION
  2
BLOCKS
  0
ENDSEC
  0
SECTION
  2
ENTITIES
  0
CIRCLE
  8
LAYER1
 62
     7
  6
CONTINUOUS
 10
6.9569
 20
9.8071
 40
0.0103
  0
CIRCLE
  8
LAYER1
 62
     7
  6
CONTINUOUS
 10
6.7904
 20
9.5589
 40
0.0079
  0
CIRCLE
  8
LAYER1
 62
     7
  6
CONTINUOUS
 10
6.6356
 20
9.5945
 40
0.0250
  0
CIRCLE
  8
LAYER1
 62
     7
  6
CONTINUOUS
 10
6.5785
 20
9.5839
 40
0.0149
  0
CIRCLE
  8
LAYER1
 62
     7
  6
CONTINUOUS
 10
6.4878
 20
9.6875
 40
0.0157
  0
CIRCLE
  8
LAYER1
 62
     7
  6
CONTINUOUS
 10
6.4176
 20
9.7290
 40
0.0174
  0
CIRCLE
  8
LAYER1
 62
     7
  6
CONTINUOUS
 10
6.6789
 20
9.7344
 40
0.0201
  0
CIRCLE
  8
LAYER1
 62
     7
  6
CONTINUOUS
 10
6.6770
 20
9.9111
 40
0.0127
  0
CIRCLE
  8
LAYER1
 62
     7
  6
CONTINUOUS
 10
6.5608
 20
9.8326
 40
0.0249
  0
CIRCLE
  8
LAYER1
 62
     7
  6
CONTINUOUS
 10
6.3673
 20
9.7732
 40
0.0075
  0
CIRCLE
  8
LAYER1
 62
     7
  6
CONTINUOUS
 10
6.3294
 20
9.8276
 40
0.0127
  0
CIRCLE
  8
LAYER1
 62
     7
  6
CONTINUOUS
 10
6.2844
 20
9.8445
 40
0.0056
  0
CIRCLE
  8
LAYER1
 62
     7
  6
CONTINUOUS
 10
6.2093
 20
9.8810
 40
0.0189
  0
CIRCLE
  8
LAYER1
 62
     7
  6
CONTINUOUS
 10
6.1413
 20
9.9574
 40
0.0157
  0
CIRCLE
  8
LAYER1
 62
     7
  6
CONTINUOUS
 10
6.2603
 20
10.0011
 40
0.0103
  0
CIRCLE
  8
LAYER1
 62
     7
  6
CONTINUOUS
 10
6.3446
 20
10.0269
 40
0.0103
  0
CIRCLE
  8
LAYER1
 62
     7
  6
CONTINUOUS
 10
6.3378
 20
9.9696
 40
0.0167
  0
CIRCLE
  8
LAYER1
 62
     7
  6
CONTINUOUS
 10
6.3631
 20
9.9300
 40
0.0102
  0
CIRCLE
  8
LAYER1
 62
     7
  6
CONTINUOUS
 10
6.2787
 20
10.1407
 40
0.0174
  0
CIRCLE
  8
LAYER1
 62
     7
  6
CONTINUOUS
 10
6.5401
 20
10.1336
 40
0.0176
  0
CIRCLE
  8
LAYER1
 62
     7
  6
CONTINUOUS
 10
6.6015
 20
10.2089
 40
0.0103
  0
CIRCLE
  8
LAYER1
 62
     7
  6
CONTINUOUS
 10
6.6437
 20
10.2169
 40
0.0102
  0
CIRCLE
  8
LAYER1
 62
     7
  6
CONTINUOUS
 10
6.7106
 20
10.2500
 40
0.0125
  0
CIRCLE
  8
LAYER1
 62
     7
  6
CONTINUOUS
 10
6.7628
 20
10.2555
 40
0.0127
  0
CIRCLE
  8
LAYER1
 62
     7
  6
CONTINUOUS
 10
6.8622
 20
10.2716
 40
0.0079
  0
CIRCLE
  8
LAYER1
 62
     7
  6
CONTINUOUS
 10
6.9293
 20
10.2822
 40
0.0134
  0
POLYLINE
  8
LAYER1
 62
     7
 66
     1
  6
CONTINUOUS
  0
VERTEX
  8
LAYER1
 62
     7
  6
CONTINUOUS
 10
6.3904
 20
9.9353
  0
VERTEX
  8
LAYER1
 62
     7
  6
CONTINUOUS
 10
6.3903
 20
9.9361
  0
VERTEX
  8
LAYER1
 62
     7
  6
CONTINUOUS
 10
6.3901
 20
9.9370
  0
VERTEX
  8
LAYER1
 62
     7
  6
CONTINUOUS
 10
6.3900
 20
9.9379
  0
VERTEX
  8
LAYER1
 62
     7
  6
CONTINUOUS
 10
6.3899
 20
9.9387
  0
VERTEX
  8
LAYER1
 62
     7
  6
CONTINUOUS
 10
6.3898
 20
9.9396
  0
VERTEX
  8
LAYER1
 62
     7
  6
CONTINUOUS
 10
6.3898
 20
9.9405
  0
VERTEX
  8
LAYER1
 62
     7
  6
CONTINUOUS
 10
6.3898
 20
9.9413
  0
VERTEX
  8
LAYER1
 62
     7
  6
CONTINUOUS
 10
6.3898
 20
9.9421
  0
VERTEX
  8
LAYER1
 62
     7
  6
CONTINUOUS
 10
6.3898
 20
9.9430
  0
VERTEX
  8
LAYER1
 62
     7
  6
CONTINUOUS
 10
6.3900
 20
9.9438
  0
VERTEX
  8
LAYER1
 62
     7
  6
CONTINUOUS
 10
6.3901
 20
9.9445
  0
VERTEX
  8
LAYER1
 62
     7
  6
CONTINUOUS
 10
6.3903
 20
9.9453
  0
VERTEX
  8
LAYER1
 62
     7
  6
CONTINUOUS
 10
6.3911
 20
9.9470
  0
VERTEX
  8
LAYER1
 62
     7
  6
CONTINUOUS
 10
6.3921
 20
9.9485
  0
VERTEX
  8
LAYER1
 62
     7
  6
CONTINUOUS
 10
6.3934
 20
9.9499
  0
VERTEX
  8
LAYER1
 62
     7
  6
CONTINUOUS
 10
6.3949
 20
9.9512
  0
VERTEX
  8
LAYER1
 62
     7
  6
CONTINUOUS
 10
6.3966
 20
9.9524
  0
VERTEX
  8
LAYER1
 62
     7
  6
CONTINUOUS
 10
6.3984
 20
9.9536
  0
VERTEX
  8
LAYER1
 62
     7
  6
CONTINUOUS
 10
6.4003
 20
9.9546
  0
VERTEX
  8
LAYER1
 62
     7
  6
CONTINUOUS
 10
6.4023
 20
9.9557
  0
VERTEX
  8
LAYER1
 62
     7
  6
CONTINUOUS
 10
6.4043
 20
9.9568
  0
VERTEX
  8
LAYER1
 62
     7
  6
CONTINUOUS
 10
6.4063
 20
9.9579
  0
VERTEX
  8
LAYER1
 62
     7
  6
CONTINUOUS
 10
6.4082
 20
9.9591
  0
VERTEX
  8
LAYER1
 62
     7
  6
CONTINUOUS
 10
6.4101
 20
9.9604
  0
VERTEX
  8
LAYER1
 62
     7
  6
CONTINUOUS
 10
6.4120
 20
9.9620
  0
VERTEX
  8
LAYER1
 62
     7
  6
CONTINUOUS
 10
6.4138
 20
9.9637
  0
VERTEX
  8
LAYER1
 62
     7
  6
CONTINUOUS
 10
6.4155
 20
9.9655
  0
VERTEX
  8
LAYER1
 62
     7
  6
CONTINUOUS
 10
6.4171
 20
9.9673
  0
VERTEX
  8
LAYER1
 62
     7
  6
CONTINUOUS
 10
6.4186
 20
9.9692
  0
VERTEX
  8
LAYER1
 62
     7
  6
CONTINUOUS
 10
6.4201
 20
9.9710
  0
VERTEX
  8
LAYER1
 62
     7
  6
CONTINUOUS
 10
6.4216
 20
9.9729
  0
VERTEX
  8
LAYER1
 62
     7
  6
CONTINUOUS
 10
6.4231
 20
9.9746
  0
VERTEX
  8
LAYER1
 62
     7
  6
CONTINUOUS
 10
6.4246
 20
9.9763
  0
VERTEX
  8
LAYER1
 62
     7
  6
CONTINUOUS
 10
6.4262
 20
9.9779
  0
VERTEX
  8
LAYER1
 62
     7
  6
CONTINUOUS
 10
6.4279
 20
9.9793
  0
VERTEX
  8
LAYER1
 62
     7
  6
CONTINUOUS
 10
6.4298
 20
9.9805
  0
VERTEX
  8
LAYER1
 62
     7
  6
CONTINUOUS
 10
6.4309
 20
9.9811
  0
VERTEX
  8
LAYER1
 62
     7
  6
CONTINUOUS
 10
6.4320
 20
9.9817
  0
VERTEX
  8
LAYER1
 62
     7
  6
CONTINUOUS
 10
6.4332
 20
9.9822
  0
VERTEX
  8
LAYER1
 62
     7
  6
CONTINUOUS
 10
6.4344
 20
9.9826
  0
VERTEX
  8
LAYER1
 62
     7
  6
CONTINUOUS
 10
6.4356
 20
9.9831
  0
VERTEX
  8
LAYER1
 62
     7
  6
CONTINUOUS
 10
6.4369
 20
9.9834
  0
VERTEX
  8
LAYER1
 62
     7
  6
CONTINUOUS
 10
6.4381
 20
9.9838
  0
VERTEX
  8
LAYER1
 62
     7
  6
CONTINUOUS
 10
6.4394
 20
9.9842
  0
VERTEX
  8
LAYER1
 62
     7
  6
CONTINUOUS
 10
6.4407
 20
9.9845
  0
VERTEX
  8
LAYER1
 62
     7
  6
CONTINUOUS
 10
6.4420
 20
9.9849
  0
VERTEX
  8
LAYER1
 62
     7
  6
CONTINUOUS
 10
6.4433
 20
9.9853
  0
VERTEX
  8
LAYER1
 62
     7
  6
CONTINUOUS
 10
6.4446
 20
9.9857
  0
VERTEX
  8
LAYER1
 62
     7
  6
CONTINUOUS
 10
6.4472
 20
9.9866
  0
VERTEX
  8
LAYER1
 62
     7
  6
CONTINUOUS
 10
6.4498
 20
9.9875
  0
VERTEX
  8
LAYER1
 62
     7
  6
CONTINUOUS
 10
6.4523
 20
9.9885
  0
VERTEX
  8
LAYER1
 62
     7
  6
CONTINUOUS
 10
6.4548
 20
9.9896
  0
VERTEX
  8
LAYER1
 62
     7
  6
CONTINUOUS
 10
6.4572
 20
9.9907
  0
VERTEX
  8
LAYER1
 62
     7
  6
CONTINUOUS
 10
6.4597
 20
9.9917
  0
VERTEX
  8
LAYER1
 62
     7
  6
CONTINUOUS
 10
6.4622
 20
9.9927
  0
VERTEX
  8
LAYER1
 62
     7
  6
CONTINUOUS
 10
6.4646
 20
9.9936
  0
VERTEX
  8
LAYER1
 62
     7
  6
CONTINUOUS
 10
6.4670
 20
9.9944
  0
VERTEX
  8
LAYER1
 62
     7
  6
CONTINUOUS
 10
6.4695
 20
9.9951
  0
VERTEX
  8
LAYER1
 62
     7
  6
CONTINUOUS
 10
6.4719
 20
9.9956
  0
VERTEX
  8
LAYER1
 62
     7
  6
CONTINUOUS
 10
6.4744
 20
9.9960
  0
VERTEX
  8
LAYER1
 62
     7
  6
CONTINUOUS
 10
6.4752
 20
9.9960
  0
VERTEX
  8
LAYER1
 62
     7
  6
CONTINUOUS
 10
6.4760
 20
9.9961
  0
VERTEX
  8
LAYER1
 62
     7
  6
CONTINUOUS
 10
6.4768
 20
9.9961
  0
VERTEX
  8
LAYER1
 62
     7
  6
CONTINUOUS
 10
6.4776
 20
9.9961
  0
VERTEX
  8
LAYER1
 62
     7
  6
CONTINUOUS
 10
6.4784
 20
9.9961
  0
VERTEX
  8
LAYER1
 62
     7
  6
CONTINUOUS
 10
6.4792
 20
9.9961
  0
VERTEX
  8
LAYER1
 62
     7
  6
CONTINUOUS
 10
6.4800
 20
9.9961
  0
VERTEX
  8
LAYER1
 62
     7
  6
CONTINUOUS
 10
6.4808
 20
9.9961
  0
VERTEX
  8
LAYER1
 62
     7
  6
CONTINUOUS
 10
6.4817
 20
9.9961
  0
VERTEX
  8
LAYER1
 62
     7
  6
CONTINUOUS
 10
6.4826
 20
9.9961
  0
VERTEX
  8
LAYER1
 62
     7
  6
CONTINUOUS
 10
6.4835
 20
9.9961
  0
VERTEX
  8
LAYER1
 62
     7
  6
CONTINUOUS
 10
6.4844
 20
9.9961
  0
VERTEX
  8
LAYER1
 62
     7
  6
CONTINUOUS
 10
6.4872
 20
9.9961
  0
VERTEX
  8
LAYER1
 62
     7
  6
CONTINUOUS
 10
6.4902
 20
9.9962
  0
VERTEX
  8
LAYER1
 62
     7
  6
CONTINUOUS
 10
6.4933
 20
9.9962
  0
VERTEX
  8
LAYER1
 62
     7
  6
CONTINUOUS
 10
6.4964
 20
9.9963
  0
VERTEX
  8
LAYER1
 62
     7
  6
CONTINUOUS
 10
6.4994
 20
9.9963
  0
VERTEX
  8
LAYER1
 62
     7
  6
CONTINUOUS
 10
6.5023
 20
9.9961
  0
VERTEX
  8
LAYER1
 62
     7
  6
CONTINUOUS
 10
6.5051
 20
9.9959
  0
VERTEX
  8
LAYER1
 62
     7
  6
CONTINUOUS
 10
6.5076
 20
9.9955
  0
VERTEX
  8
LAYER1
 62
     7
  6
CONTINUOUS
 10
6.5098
 20
9.9948
  0
VERTEX
  8
LAYER1
 62
     7
  6
CONTINUOUS
 10
6.5117
 20
9.9940
  0
VERTEX
  8
LAYER1
 62
     7
  6
CONTINUOUS
 10
6.5132
 20
9.9929
  0
VERTEX
  8
LAYER1
 62
     7
  6
CONTINUOUS
 10
6.5143
 20
9.9914
  0
VERTEX
  8
LAYER1
 62
     7
  6
CONTINUOUS
 10
6.5148
 20
9.9898
  0
VERTEX
  8
LAYER1
 62
     7
  6
CONTINUOUS
 10
6.5149
 20
9.9878
  0
VERTEX
  8
LAYER1
 62
     7
  6
CONTINUOUS
 10
6.5145
 20
9.9857
  0
VERTEX
  8
LAYER1
 62
     7
  6
CONTINUOUS
 10
6.5138
 20
9.9834
  0
VERTEX
  8
LAYER1
 62
     7
  6
CONTINUOUS
 10
6.5128
 20
9.9810
  0
VERTEX
  8
LAYER1
 62
     7
  6
CONTINUOUS
 10
6.5115
 20
9.9786
  0
VERTEX
  8
LAYER1
 62
     7
  6
CONTINUOUS
 10
6.5099
 20
9.9762
  0
VERTEX
  8
LAYER1
 62
     7
  6
CONTINUOUS
 10
6.5082
 20
9.9739
  0
VERTEX
  8
LAYER1
 62
     7
  6
CONTINUOUS
 10
6.5062
 20
9.9717
  0
VERTEX
  8
LAYER1
 62
     7
  6
CONTINUOUS
 10
6.5041
 20
9.9697
  0
VERTEX
  8
LAYER1
 62
     7
  6
CONTINUOUS
 10
6.5019
 20
9.9679
  0
VERTEX
  8
LAYER1
 62
     7
  6
CONTINUOUS
 10
6.4996
 20
9.9664
  0
VERTEX
  8
LAYER1
 62
     7
  6
CONTINUOUS
 10
6.4984
 20
9.9657
  0
VERTEX
  8
LAYER1
 62
     7
  6
CONTINUOUS
 10
6.4971
 20
9.9651
  0
VERTEX
  8
LAYER1
 62
     7
  6
CONTINUOUS
 10
6.4959
 20
9.9646
  0
VERTEX
  8
LAYER1
 62
     7
  6
CONTINUOUS
 10
6.4946
 20
9.9641
  0
VERTEX
  8
LAYER1
 62
     7
  6
CONTINUOUS
 10
6.4934
 20
9.9637
  0
VERTEX
  8
LAYER1
 62
     7
  6
CONTINUOUS
 10
6.4921
 20
9.9633
  0
VERTEX
  8
LAYER1
 62
     7
  6
CONTINUOUS
 10
6.4909
 20
9.9630
  0
VERTEX
  8
LAYER1
 62
     7
  6
CONTINUOUS
 10
6.4896
 20
9.9627
  0
VERTEX
  8
LAYER1
 62
     7
  6
CONTINUOUS
 10
6.4884
 20
9.9623
  0
VERTEX
  8
LAYER1
 62
     7
  6
CONTINUOUS
 10
6.4872
 20
9.9620
  0
VERTEX
  8
LAYER1
 62
     7
  6
CONTINUOUS
 10
6.4859
 20
9.9616
  0
VERTEX
  8
LAYER1
 62
     7
  6
CONTINUOUS
 10
6.4847
 20
9.9612
  0
VERTEX
  8
LAYER1
 62
     7
  6
CONTINUOUS
 10
6.4816
 20
9.9599
  0
VERTEX
  8
LAYER1
 62
     7
  6
CONTINUOUS
 10
6.4785
 20
9.9584
  0
VERTEX
  8
LAYER1
 62
     7
  6
CONTINUOUS
 10
6.4755
 20
9.9565
  0
VERTEX
  8
LAYER1
 62
     7
  6
CONTINUOUS
 10
6.4726
 20
9.9544
  0
VERTEX
  8
LAYER1
 62
     7
  6
CONTINUOUS
 10
6.4697
 20
9.9522
  0
VERTEX
  8
LAYER1
 62
     7
  6
CONTINUOUS
 10
6.4669
 20
9.9499
  0
VERTEX
  8
LAYER1
 62
     7
  6
CONTINUOUS
 10
6.4642
 20
9.9475
  0
VERTEX
  8
LAYER1
 62
     7
  6
CONTINUOUS
 10
6.4614
 20
9.9450
  0
VERTEX
  8
LAYER1
 62
     7
  6
CONTINUOUS
 10
6.4586
 20
9.9426
  0
VERTEX
  8
LAYER1
 62
     7
  6
CONTINUOUS
 10
6.4558
 20
9.9403
  0
VERTEX
  8
LAYER1
 62
     7
  6
CONTINUOUS
 10
6.4530
 20
9.9380
  0
VERTEX
  8
LAYER1
 62
     7
  6
CONTINUOUS
 10
6.4502
 20
9.9360
  0
VERTEX
  8
LAYER1
 62
     7
  6
CONTINUOUS
 10
6.4489
 20
9.9352
  0
VERTEX
  8
LAYER1
 62
     7
  6
CONTINUOUS
 10
6.4477
 20
9.9344
  0
VERTEX
  8
LAYER1
 62
     7
  6
CONTINUOUS
 10
6.4465
 20
9.9336
  0
VERTEX
  8
LAYER1
 62
     7
  6
CONTINUOUS
 10
6.4452
 20
9.9328
  0
VERTEX
  8
LAYER1
 62
     7
  6
CONTINUOUS
 10
6.4440
 20
9.9321
  0
VERTEX
  8
LAYER1
 62
     7
  6
CONTINUOUS
 10
6.4428
 20
9.9313
  0
VERTEX
  8
LAYER1
 62
     7
  6
CONTINUOUS
 10
6.4415
 20
9.9305
  0
VERTEX
  8
LAYER1
 62
     7
  6
CONTINUOUS
 10
6.4403
 20
9.9297
  0
VERTEX
  8
LAYER1
 62
     7
  6
CONTINUOUS
 10
6.4390
 20
9.9288
  0
VERTEX
  8
LAYER1
 62
     7
  6
CONTINUOUS
 10
6.4378
 20
9.9279
  0
VERTEX
  8
LAYER1
 62
     7
  6
CONTINUOUS
 10
6.4366
 20
9.9269
  0
VERTEX
  8
LAYER1
 62
     7
  6
CONTINUOUS
 10
6.4353
 20
9.9258
  0
VERTEX
  8
LAYER1
 62
     7
  6
CONTINUOUS
 10
6.4332
 20
9.9238
  0
VERTEX
  8
LAYER1
 62
     7
  6
CONTINUOUS
 10
6.4311
 20
9.9216
  0
VERTEX
  8
LAYER1
 62
     7
  6
CONTINUOUS
 10
6.4290
 20
9.9193
  0
VERTEX
  8
LAYER1
 62
     7
  6
CONTINUOUS
 10
6.4270
 20
9.9169
  0
VERTEX
  8
LAYER1
 62
     7
  6
CONTINUOUS
 10
6.4249
 20
9.9146
  0
VERTEX
  8
LAYER1
 62
     7
  6
CONTINUOUS
 10
6.4229
 20
9.9124
  0
VERTEX
  8
LAYER1
 62
     7
  6
CONTINUOUS
 10
6.4209
 20
9.9104
  0
VERTEX
  8
LAYER1
 62
     7
  6
CONTINUOUS
 10
6.4189
 20
9.9087
  0
VERTEX
  8
LAYER1
 62
     7
  6
CONTINUOUS
 10
6.4168
 20
9.9072
  0
VERTEX
  8
LAYER1
 62
     7
  6
CONTINUOUS
 10
6.4148
 20
9.9062
  0
VERTEX
  8
LAYER1
 62
     7
  6
CONTINUOUS
 10
6.4127
 20
9.9057
  0
VERTEX
  8
LAYER1
 62
     7
  6
CONTINUOUS
 10
6.4107
 20
9.9057
  0
VERTEX
  8
LAYER1
 62
     7
  6
CONTINUOUS
 10
6.4093
 20
9.9060
  0
VERTEX
  8
LAYER1
 62
     7
  6
CONTINUOUS
 10
6.4079
 20
9.9065
  0
VERTEX
  8
LAYER1
 62
     7
  6
CONTINUOUS
 10
6.4065
 20
9.9073
  0
VERTEX
  8
LAYER1
 62
     7
  6
CONTINUOUS
 10
6.4052
 20
9.9083
  0
VERTEX
  8
LAYER1
 62
     7
  6
CONTINUOUS
 10
6.4038
 20
9.9095
  0
VERTEX
  8
LAYER1
 62
     7
  6
CONTINUOUS
 10
6.4025
 20
9.9108
  0
VERTEX
  8
LAYER1
 62
     7
  6
CONTINUOUS
 10
6.4012
 20
9.9122
  0
VERTEX
  8
LAYER1
 62
     7
  6
CONTINUOUS
 10
6.4000
 20
9.9138
  0
VERTEX
  8
LAYER1
 62
     7
  6
CONTINUOUS
 10
6.3988
 20
9.9154
  0
VERTEX
  8
LAYER1
 62
     7
  6
CONTINUOUS
 10
6.3976
 20
9.9170
  0
VERTEX
  8
LAYER1
 62
     7
  6
CONTINUOUS
 10
6.3966
 20
9.9187
  0
VERTEX
  8
LAYER1
 62
     7
  6
CONTINUOUS
 10
6.3956
 20
9.9204
  0
VERTEX
  8
LAYER1
 62
     7
  6
CONTINUOUS
 10
6.3949
 20
9.9217
  0
VERTEX
  8
LAYER1
 62
     7
  6
CONTINUOUS
 10
6.3943
 20
9.9229
  0
VERTEX
  8
LAYER1
 62
     7
  6
CONTINUOUS
 10
6.3937
 20
9.9241
  0
VERTEX
  8
LAYER1
 62
     7
  6
CONTINUOUS
 10
6.3931
 20
9.9254
  0
VERTEX
  8
LAYER1
 62
     7
  6
CONTINUOUS
 10
6.3926
 20
9.9266
  0
VERTEX
  8
LAYER1
 62
     7
  6
CONTINUOUS
 10
6.3922
 20
9.9278
  0
VERTEX
  8
LAYER1
 62
     7
  6
CONTINUOUS
 10
6.3917
 20
9.9291
  0
VERTEX
  8
LAYER1
 62
     7
  6
CONTINUOUS
 10
6.3914
 20
9.9303
  0
VERTEX
  8
LAYER1
 62
     7
  6
CONTINUOUS
 10
6.3911
 20
9.9315
  0
VERTEX
  8
LAYER1
 62
     7
  6
CONTINUOUS
 10
6.3908
 20
9.9328
  0
VERTEX
  8
LAYER1
 62
     7
  6
CONTINUOUS
 10
6.3906
 20
9.9340
  0
VERTEX
  8
LAYER1
 62
     7
  6
CONTINUOUS
 10
6.3904
 20
9.9353
  0
SEQEND
  8
LAYER1
  0
CIRCLE
  8
LAYER1
 62
     7
  6
CONTINUOUS
 10
6.1767
 20
10.3536
 40
0.0075
  0
CIRCLE
  8
LAYER1
 62
     7
  6
CONTINUOUS
 10
6.2171
 20
10.3043
 40
0.0181
  0
CIRCLE
  8
LAYER1
 62
     7
  6
CONTINUOUS
 10
6.1688
 20
10.1718
 40
0.0205
  0
CIRCLE
  8
LAYER1
 62
     7
  6
CONTINUOUS
 10
6.3383
 20
10.1463
 40
0.0229
  0
CIRCLE
  8
LAYER1
 62
     7
  6
CONTINUOUS
 10
6.4599
 20
10.1800
 40
0.0103
  0
CIRCLE
  8
LAYER1
 62
     7
  6
CONTINUOUS
 10
6.5295
 20
10.1932
 40
0.0176
  0
CIRCLE
  8
LAYER1
 62
     7
  6
CONTINUOUS
 10
6.4790
 20
10.2549
 40
0.0103
  0
CIRCLE
  8
LAYER1
 62
     7
  6
CONTINUOUS
 10
6.5995
 20
10.3856
 40
0.0050
  0
POLYLINE
  8
LAYER1
 62
     7
 66
     1
  6
CONTINUOUS
  0
VERTEX
  8
LAYER1
 62
     7
  6
CONTINUOUS
 10
6.8651
 20
9.7812
  0
VERTEX
  8
LAYER1
 62
     7
  6
CONTINUOUS
 10
6.8681
 20
9.7808
  0
VERTEX
  8
LAYER1
 62
     7
  6
CONTINUOUS
 10
6.8711
 20
9.7803
  0
VERTEX
  8
LAYER1
 62
     7
  6
CONTINUOUS
 10
6.8741
 20
9.7795
  0
VERTEX
  8
LAYER1
 62
     7
  6
CONTINUOUS
 10
6.8771
 20
9.7786
  0
VERTEX
  8
LAYER1
 62
     7
  6
CONTINUOUS
 10
6.8801
 20
9.7775
  0
VERTEX
  8
LAYER1
 62
     7
  6
CONTINUOUS
 10
6.8830
 20
9.7763
  0
VERTEX
  8
LAYER1
 62
     7
  6
CONTINUOUS
 10
6.8859
 20
9.7749
  0
VERTEX
  8
LAYER1
 62
     7
  6
CONTINUOUS
 10
6.8888
 20
9.7735
  0
VERTEX
  8
LAYER1
 62
     7
  6
CONTINUOUS
 10
6.8917
 20
9.7719
  0
VERTEX
  8
LAYER1
 62
     7
  6
CONTINUOUS
 10
6.8945
 20
9.7702
  0
VERTEX
  8
LAYER1
 62
     7
  6
CONTINUOUS
 10
6.8973
 20
9.7685
  0
VERTEX
  8
LAYER1
 62
     7
  6
CONTINUOUS
 10
6.9001
 20
9.7667
  0
VERTEX
  8
LAYER1
 62
     7
  6
CONTINUOUS
 10
6.9021
 20
9.7653
  0
VERTEX
  8
LAYER1
 62
     7
  6
CONTINUOUS
 10
6.9041
 20
9.7639
  0
VERTEX
  8
LAYER1
 62
     7
  6
CONTINUOUS
 10
6.9061
 20
9.7625
  0
VERTEX
  8
LAYER1
 62
     7
  6
CONTINUOUS
 10
6.9080
 20
9.7610
  0
VERTEX
  8
LAYER1
 62
     7
  6
CONTINUOUS
 10
6.9098
 20
9.7594
  0
VERTEX
  8
LAYER1
 62
     7
  6
CONTINUOUS
 10
6.9116
 20
9.7579
  0
VERTEX
  8
LAYER1
 62
     7
  6
CONTINUOUS
 10
6.9133
 20
9.7562
  0
VERTEX
  8
LAYER1
 62
     7
  6
CONTINUOUS
 10
6.9149
 20
9.7545
  0
VERTEX
  8
LAYER1
 62
     7
  6
CONTINUOUS
 10
6.9164
 20
9.7527
  0
VERTEX
  8
LAYER1
 62
     7
  6
CONTINUOUS
 10
6.9178
 20
9.7509
  0
VERTEX
  8
LAYER1
 62
     7
  6
CONTINUOUS
 10
6.9191
 20
9.7490
  0
VERTEX
  8
LAYER1
 62
     7
  6
CONTINUOUS
 10
6.9202
 20
9.7470
  0
VERTEX
  8
LAYER1
 62
     7
  6
CONTINUOUS
 10
6.9208
 20
9.7458
  0
VERTEX
  8
LAYER1
 62
     7
  6
CONTINUOUS
 10
6.9213
 20
9.7447
  0
VERTEX
  8
LAYER1
 62
     7
  6
CONTINUOUS
 10
6.9219
 20
9.7435
  0
VERTEX
  8
LAYER1
 62
     7
  6
CONTINUOUS
 10
6.9223
 20
9.7422
  0
VERTEX
  8
LAYER1
 62
     7
  6
CONTINUOUS
 10
6.9228
 20
9.7410
  0
VERTEX
  8
LAYER1
 62
     7
  6
CONTINUOUS
 10
6.9232
 20
9.7398
  0
VERTEX
  8
LAYER1
 62
     7
  6
CONTINUOUS
 10
6.9236
 20
9.7385
  0
VERTEX
  8
LAYER1
 62
     7
  6
CONTINUOUS
 10
6.9240
 20
9.7372
  0
VERTEX
  8
LAYER1
 62
     7
  6
CONTINUOUS
 10
6.9243
 20
9.7360
  0
VERTEX
  8
LAYER1
 62
     7
  6
CONTINUOUS
 10
6.9247
 20
9.7347
  0
VERTEX
  8
LAYER1
 62
     7
  6
CONTINUOUS
 10
6.9250
 20
9.7334
  0
VERTEX
  8
LAYER1
 62
     7
  6
CONTINUOUS
 10
6.9254
 20
9.7321
  0
VERTEX
  8
LAYER1
 62
     7
  6
CONTINUOUS
 10
6.9262
 20
9.7289
  0
VERTEX
  8
LAYER1
 62
     7
  6
CONTINUOUS
 10
6.9270
 20
9.7256
  0
VERTEX
  8
LAYER1
 62
     7
  6
CONTINUOUS
 10
6.9277
 20
9.7224
  0
VERTEX
  8
LAYER1
 62
     7
  6
CONTINUOUS
 10
6.9284
 20
9.7191
  0
VERTEX
  8
LAYER1
 62
     7
  6
CONTINUOUS
 10
6.9290
 20
9.7159
  0
VERTEX
  8
LAYER1
 62
     7
  6
CONTINUOUS
 10
6.9295
 20
9.7126
  0
VERTEX
  8
LAYER1
 62
     7
  6
CONTINUOUS
 10
6.9300
 20
9.7093
  0
VERTEX
  8
LAYER1
 62
     7
  6
CONTINUOUS
 10
6.9304
 20
9.7060
  0
VERTEX
  8
LAYER1
 62
     7
  6
CONTINUOUS
 10
6.9306
 20
9.7027
  0
VERTEX
  8
LAYER1
 62
     7
  6
CONTINUOUS
 10
6.9308
 20
9.6993
  0
VERTEX
  8
LAYER1
 62
     7
  6
CONTINUOUS
 10
6.9309
 20
9.6958
  0
VERTEX
  8
LAYER1
 62
     7
  6
CONTINUOUS
 10
6.9308
 20
9.6923
  0
VERTEX
  8
LAYER1
 62
     7
  6
CONTINUOUS
 10
6.9306
 20
9.6896
  0
VERTEX
  8
LAYER1
 62
     7
  6
CONTINUOUS
 10
6.9304
 20
9.6868
  0
VERTEX
  8
LAYER1
 62
     7
  6
CONTINUOUS
 10
6.9300
 20
9.6840
  0
VERTEX
  8
LAYER1
 62
     7
  6
CONTINUOUS
 10
6.9296
 20
9.6812
  0
VERTEX
  8
LAYER1
 62
     7
  6
CONTINUOUS
 10
6.9290
 20
9.6785
  0
VERTEX
  8
LAYER1
 62
     7
  6
CONTINUOUS
 10
6.9283
 20
9.6758
  0
VERTEX
  8
LAYER1
 62
     7
  6
CONTINUOUS
 10
6.9275
 20
9.6733
  0
VERTEX
  8
LAYER1
 62
     7
  6
CONTINUOUS
 10
6.9265
 20
9.6708
  0
VERTEX
  8
LAYER1
 62
     7
  6
CONTINUOUS
 10
6.9254
 20
9.6685
  0
VERTEX
  8
LAYER1
 62
     7
  6
CONTINUOUS
 10
6.9241
 20
9.6663
  0
VERTEX
  8
LAYER1
 62
     7
  6
CONTINUOUS
 10
6.9227
 20
9.6642
  0
VERTEX
  8
LAYER1
 62
     7
  6
CONTINUOUS
 10
6.9211
 20
9.6624
  0
VERTEX
  8
LAYER1
 62
     7
  6
CONTINUOUS
 10
6.9187
 20
9.6602
  0
VERTEX
  8
LAYER1
 62
     7
  6
CONTINUOUS
 10
6.9160
 20
9.6583
  0
VERTEX
  8
LAYER1
 62
     7
  6
CONTINUOUS
 10
6.9131
 20
9.6567
  0
VERTEX
  8
LAYER1
 62
     7
  6
CONTINUOUS
 10
6.9099
 20
9.6554
  0
VERTEX
  8
LAYER1
 62
     7
  6
CONTINUOUS
 10
6.9066
 20
9.6542
  0
VERTEX
  8
LAYER1
 62
     7
  6
CONTINUOUS
 10
6.9031
 20
9.6532
  0
VERTEX
  8
LAYER1
 62
     7
  6
CONTINUOUS
 10
6.8996
 20
9.6522
  0
VERTEX
  8
LAYER1
 62
     7
  6
CONTINUOUS
 10
6.8959
 20
9.6513
  0
VERTEX
  8
LAYER1
 62
     7
  6
CONTINUOUS
 10
6.8923
 20
9.6503
  0
VERTEX
  8
LAYER1
 62
     7
  6
CONTINUOUS
 10
6.8886
 20
9.6494
  0
VERTEX
  8
LAYER1
 62
     7
  6
CONTINUOUS
 10
6.8850
 20
9.6483
  0
VERTEX
  8
LAYER1
 62
     7
  6
CONTINUOUS
 10
6.8815
 20
9.6470
  0
VERTEX
  8
LAYER1
 62
     7
  6
CONTINUOUS
 10
6.8793
 20
9.6461
  0
VERTEX
  8
LAYER1
 62
     7
  6
CONTINUOUS
 10
6.8772
 20
9.6452
  0
VERTEX
  8
LAYER1
 62
     7
  6
CONTINUOUS
 10
6.8751
 20
9.6442
  0
VERTEX
  8
LAYER1
 62
     7
  6
CONTINUOUS
 10
6.8730
 20
9.6432
  0
VERTEX
  8
LAYER1
 62
     7
  6
CONTINUOUS
 10
6.8710
 20
9.6422
  0
VERTEX
  8
LAYER1
 62
     7
  6
CONTINUOUS
 10
6.8690
 20
9.6412
  0
VERTEX
  8
LAYER1
 62
     7
  6
CONTINUOUS
 10
6.8669
 20
9.6402
  0
VERTEX
  8
LAYER1
 62
     7
  6
CONTINUOUS
 10
6.8649
 20
9.6393
  0
VERTEX
  8
LAYER1
 62
     7
  6
CONTINUOUS
 10
6.8629
 20
9.6385
  0
VERTEX
  8
LAYER1
 62
     7
  6
CONTINUOUS
 10
6.8608
 20
9.6378
  0
VERTEX
  8
LAYER1
 62
     7
  6
CONTINUOUS
 10
6.8588
 20
9.6372
  0
VERTEX
  8
LAYER1
 62
     7
  6
CONTINUOUS
 10
6.8567
 20
9.6368
  0
VERTEX
  8
LAYER1
 62
     7
  6
CONTINUOUS
 10
6.8539
 20
9.6364
  0
VERTEX
  8
LAYER1
 62
     7
  6
CONTINUOUS
 10
6.8510
 20
9.6363
  0
VERTEX
  8
LAYER1
 62
     7
  6
CONTINUOUS
 10
6.8480
 20
9.6365
  0
VERTEX
  8
LAYER1
 62
     7
  6
CONTINUOUS
 10
6.8451
 20
9.6369
  0
VERTEX
  8
LAYER1
 62
     7
  6
CONTINUOUS
 10
6.8421
 20
9.6375
  0
VERTEX
  8
LAYER1
 62
     7
  6
CONTINUOUS
 10
6.8391
 20
9.6383
  0
VERTEX
  8
LAYER1
 62
     7
  6
CONTINUOUS
 10
6.8361
 20
9.6393
  0
VERTEX
  8
LAYER1
 62
     7
  6
CONTINUOUS
 10
6.8332
 20
9.6405
  0
VERTEX
  8
LAYER1
 62
     7
  6
CONTINUOUS
 10
6.8303
 20
9.6418
  0
VERTEX
  8
LAYER1
 62
     7
  6
CONTINUOUS
 10
6.8274
 20
9.6432
  0
VERTEX
  8
LAYER1
 62
     7
  6
CONTINUOUS
 10
6.8245
 20
9.6447
  0
VERTEX
  8
LAYER1
 62
     7
  6
CONTINUOUS
 10
6.8218
 20
9.6463
  0
VERTEX
  8
LAYER1
 62
     7
  6
CONTINUOUS
 10
6.8191
 20
9.6480
  0
VERTEX
  8
LAYER1
 62
     7
  6
CONTINUOUS
 10
6.8166
 20
9.6497
  0
VERTEX
  8
LAYER1
 62
     7
  6
CONTINUOUS
 10
6.8141
 20
9.6514
  0
VERTEX
  8
LAYER1
 62
     7
  6
CONTINUOUS
 10
6.8117
 20
9.6532
  0
VERTEX
  8
LAYER1
 62
     7
  6
CONTINUOUS
 10
6.8094
 20
9.6551
  0
VERTEX
  8
LAYER1
 62
     7
  6
CONTINUOUS
 10
6.8072
 20
9.6571
  0
VERTEX
  8
LAYER1
 62
     7
  6
CONTINUOUS
 10
6.8051
 20
9.6592
  0
VERTEX
  8
LAYER1
 62
     7
  6
CONTINUOUS
 10
6.8031
 20
9.6614
  0
VERTEX
  8
LAYER1
 62
     7
  6
CONTINUOUS
 10
6.8013
 20
9.6636
  0
VERTEX
  8
LAYER1
 62
     7
  6
CONTINUOUS
 10
6.7996
 20
9.6660
  0
VERTEX
  8
LAYER1
 62
     7
  6
CONTINUOUS
 10
6.7980
 20
9.6684
  0
VERTEX
  8
LAYER1
 62
     7
  6
CONTINUOUS
 10
6.7966
 20
9.6710
  0
VERTEX
  8
LAYER1
 62
     7
  6
CONTINUOUS
 10
6.7958
 20
9.6725
  0
VERTEX
  8
LAYER1
 62
     7
  6
CONTINUOUS
 10
6.7952
 20
9.6741
  0
VERTEX
  8
LAYER1
 62
     7
  6
CONTINUOUS
 10
6.7945
 20
9.6757
  0
VERTEX
  8
LAYER1
 62
     7
  6
CONTINUOUS
 10
6.7939
 20
9.6773
  0
VERTEX
  8
LAYER1
 62
     7
  6
CONTINUOUS
 10
6.7934
 20
9.6790
  0
VERTEX
  8
LAYER1
 62
     7
  6
CONTINUOUS
 10
6.7929
 20
9.6806
  0
VERTEX
  8
LAYER1
 62
     7
  6
CONTINUOUS
 10
6.7925
 20
9.6823
  0
VERTEX
  8
LAYER1
 62
     7
  6
CONTINUOUS
 10
6.7922
 20
9.6840
  0
VERTEX
  8
LAYER1
 62
     7
  6
CONTINUOUS
 10
6.7919
 20
9.6857
  0
VERTEX
  8
LAYER1
 62
     7
  6
CONTINUOUS
 10
6.7917
 20
9.6874
  0
VERTEX
  8
LAYER1
 62
     7
  6
CONTINUOUS
 10
6.7915
 20
9.6891
  0
VERTEX
  8
LAYER1
 62
     7
  6
CONTINUOUS
 10
6.7914
 20
9.6908
  0
VERTEX
  8
LAYER1
 62
     7
  6
CONTINUOUS
 10
6.7914
 20
9.6937
  0
VERTEX
  8
LAYER1
 62
     7
  6
CONTINUOUS
 10
6.7915
 20
9.6966
  0
VERTEX
  8
LAYER1
 62
     7
  6
CONTINUOUS
 10
6.7917
 20
9.6995
  0
VERTEX
  8
LAYER1
 62
     7
  6
CONTINUOUS
 10
6.7921
 20
9.7023
  0
VERTEX
  8
LAYER1
 62
     7
  6
CONTINUOUS
 10
6.7925
 20
9.7052
  0
VERTEX
  8
LAYER1
 62
     7
  6
CONTINUOUS
 10
6.7931
 20
9.7081
  0
VERTEX
  8
LAYER1
 62
     7
  6
CONTINUOUS
 10
6.7936
 20
9.7109
  0
VERTEX
  8
LAYER1
 62
     7
  6
CONTINUOUS
 10
6.7942
 20
9.7138
  0
VERTEX
  8
LAYER1
 62
     7
  6
CONTINUOUS
 10
6.7947
 20
9.7168
  0
VERTEX
  8
LAYER1
 62
     7
  6
CONTINUOUS
 10
6.7952
 20
9.7197
  0
VERTEX
  8
LAYER1
 62
     7
  6
CONTINUOUS
 10
6.7956
 20
9.7227
  0
VERTEX
  8
LAYER1
 62
     7
  6
CONTINUOUS
 10
6.7960
 20
9.7257
  0
VERTEX
  8
LAYER1
 62
     7
  6
CONTINUOUS
 10
6.7962
 20
9.7279
  0
VERTEX
  8
LAYER1
 62
     7
  6
CONTINUOUS
 10
6.7963
 20
9.7301
  0
VERTEX
  8
LAYER1
 62
     7
  6
CONTINUOUS
 10
6.7965
 20
9.7324
  0
VERTEX
  8
LAYER1
 62
     7
  6
CONTINUOUS
 10
6.7966
 20
9.7346
  0
VERTEX
  8
LAYER1
 62
     7
  6
CONTINUOUS
 10
6.7968
 20
9.7368
  0
VERTEX
  8
LAYER1
 62
     7
  6
CONTINUOUS
 10
6.7970
 20
9.7389
  0
VERTEX
  8
LAYER1
 62
     7
  6
CONTINUOUS
 10
6.7973
 20
9.7411
  0
VERTEX
  8
LAYER1
 62
     7
  6
CONTINUOUS
 10
6.7977
 20
9.7431
  0
VERTEX
  8
LAYER1
 62
     7
  6
CONTINUOUS
 10
6.7982
 20
9.7451
  0
VERTEX
  8
LAYER1
 62
     7
  6
CONTINUOUS
 10
6.7989
 20
9.7471
  0
VERTEX
  8
LAYER1
 62
     7
  6
CONTINUOUS
 10
6.7997
 20
9.7489
  0
VERTEX
  8
LAYER1
 62
     7
  6
CONTINUOUS
 10
6.8007
 20
9.7507
  0
VERTEX
  8
LAYER1
 62
     7
  6
CONTINUOUS
 10
6.8013
 20
9.7516
  0
VERTEX
  8
LAYER1
 62
     7
  6
CONTINUOUS
 10
6.8020
 20
9.7525
  0
VERTEX
  8
LAYER1
 62
     7
  6
CONTINUOUS
 10
6.8028
 20
9.7533
  0
VERTEX
  8
LAYER1
 62
     7
  6
CONTINUOUS
 10
6.8036
 20
9.7542
  0
VERTEX
  8
LAYER1
 62
     7
  6
CONTINUOUS
 10
6.8044
 20
9.7550
  0
VERTEX
  8
LAYER1
 62
     7
  6
CONTINUOUS
 10
6.8052
 20
9.7558
  0
VERTEX
  8
LAYER1
 62
     7
  6
CONTINUOUS
 10
6.8061
 20
9.7567
  0
VERTEX
  8
LAYER1
 62
     7
  6
CONTINUOUS
 10
6.8070
 20
9.7575
  0
VERTEX
  8
LAYER1
 62
     7
  6
CONTINUOUS
 10
6.8079
 20
9.7583
  0
VERTEX
  8
LAYER1
 62
     7
  6
CONTINUOUS
 10
6.8088
 20
9.7591
  0
VERTEX
  8
LAYER1
 62
     7
  6
CONTINUOUS
 10
6.8097
 20
9.7599
  0
VERTEX
  8
LAYER1
 62
     7
  6
CONTINUOUS
 10
6.8105
 20
9.7607
  0
VERTEX
  8
LAYER1
 62
     7
  6
CONTINUOUS
 10
6.8114
 20
9.7616
  0
VERTEX
  8
LAYER1
 62
     7
  6
CONTINUOUS
 10
6.8122
 20
9.7624
  0
VERTEX
  8
LAYER1
 62
     7
  6
CONTINUOUS
 10
6.8130
 20
9.7633
  0
VERTEX
  8
LAYER1
 62
     7
  6
CONTINUOUS
 10
6.8138
 20
9.7641
  0
VERTEX
  8
LAYER1
 62
     7
  6
CONTINUOUS
 10
6.8146
 20
9.7650
  0
VERTEX
  8
LAYER1
 62
     7
  6
CONTINUOUS
 10
6.8154
 20
9.7658
  0
VERTEX
  8
LAYER1
 62
     7
  6
CONTINUOUS
 10
6.8162
 20
9.7667
  0
VERTEX
  8
LAYER1
 62
     7
  6
CONTINUOUS
 10
6.8170
 20
9.7676
  0
VERTEX
  8
LAYER1
 62
     7
  6
CONTINUOUS
 10
6.8179
 20
9.7684
  0
VERTEX
  8
LAYER1
 62
     7
  6
CONTINUOUS
 10
6.8187
 20
9.7692
  0
VERTEX
  8
LAYER1
 62
     7
  6
CONTINUOUS
 10
6.8195
 20
9.7700
  0
VERTEX
  8
LAYER1
 62
     7
  6
CONTINUOUS
 10
6.8204
 20
9.7708
  0
VERTEX
  8
LAYER1
 62
     7
  6
CONTINUOUS
 10
6.8234
 20
9.7731
  0
VERTEX
  8
LAYER1
 62
     7
  6
CONTINUOUS
 10
6.8266
 20
9.7752
  0
VERTEX
  8
LAYER1
 62
     7
  6
CONTINUOUS
 10
6.8300
 20
9.7770
  0
VERTEX
  8
LAYER1
 62
     7
  6
CONTINUOUS
 10
6.8336
 20
9.7785
  0
VERTEX
  8
LAYER1
 62
     7
  6
CONTINUOUS
 10
6.8374
 20
9.7797
  0
VERTEX
  8
LAYER1
 62
     7
  6
CONTINUOUS
 10
6.8412
 20
9.7807
  0
VERTEX
  8
LAYER1
 62
     7
  6
CONTINUOUS
 10
6.8452
 20
9.7814
  0
VERTEX
  8
LAYER1
 62
     7
  6
CONTINUOUS
 10
6.8492
 20
9.7819
  0
VERTEX
  8
LAYER1
 62
     7
  6
CONTINUOUS
 10
6.8532
 20
9.7821
  0
VERTEX
  8
LAYER1
 62
     7
  6
CONTINUOUS
 10
6.8572
 20
9.7821
  0
VERTEX
  8
LAYER1
 62
     7
  6
CONTINUOUS
 10
6.8612
 20
9.7818
  0
VERTEX
  8
LAYER1
 62
     7
  6
CONTINUOUS
 10
6.8651
 20
9.7812
  0
SEQEND
  8
LAYER1
  0
CIRCLE
  8
LAYER1
 62
     7
  6
CONTINUOUS
 10
6.2879
 20
9.7550
 40
0.0050
  0
CIRCLE
  8
LAYER1
 62
     7
  6
CONTINUOUS
 10
6.3080
 20
9.7353
 40
0.0111
  0
CIRCLE
  8
LAYER1
 62
     7
  6
CONTINUOUS
 10
6.3510
 20
9.6760
 40
0.0134
  0
CIRCLE
  8
LAYER1
 62
     7
  6
CONTINUOUS
 10
6.0909
 20
9.5611
 40
0.0125
  0
CIRCLE
  8
LAYER1
 62
     7
  6
CONTINUOUS
 10
6.1604
 20
9.5818
 40
0.0181
  0
CIRCLE
  8
LAYER1
 62
     7
  6
CONTINUOUS
 10
6.3093
 20
9.6208
 40
0.0100
  0
CIRCLE
  8
LAYER1
 62
     7
  6
CONTINUOUS
 10
6.3821
 20
9.5668
 40
0.0056
  0
CIRCLE
  8
LAYER1
 62
     7
  6
CONTINUOUS
 10
6.2127
 20
9.5774
 40
0.0127
  0
POLYLINE
  8
LAYER1
 62
     7
 66
     1
  6
CONTINUOUS
  0
VERTEX
  8
LAYER1
 62
     7
  6
CONTINUOUS
 10
6.5876
 20
10.4315
  0
VERTEX
  8
LAYER1
 62
     7
  6
CONTINUOUS
 10
6.5873
 20
10.4302
  0
VERTEX
  8
LAYER1
 62
     7
  6
CONTINUOUS
 10
6.5870
 20
10.4290
  0
VERTEX
  8
LAYER1
 62
     7
  6
CONTINUOUS
 10
6.5867
 20
10.4277
  0
VERTEX
  8
LAYER1
 62
     7
  6
CONTINUOUS
 10
6.5864
 20
10.4265
  0
VERTEX
  8
LAYER1
 62
     7
  6
CONTINUOUS
 10
6.5861
 20
10.4252
  0
VERTEX
  8
LAYER1
 62
     7
  6
CONTINUOUS
 10
6.5858
 20
10.4239
  0
VERTEX
  8
LAYER1
 62
     7
  6
CONTINUOUS
 10
6.5855
 20
10.4226
  0
VERTEX
  8
LAYER1
 62
     7
  6
CONTINUOUS
 10
6.5852
 20
10.4212
  0
VERTEX
  8
LAYER1
 62
     7
  6
CONTINUOUS
 10
6.5850
 20
10.4198
  0
VERTEX
  8
LAYER1
 62
     7
  6
CONTINUOUS
 10
6.5847
 20
10.4184
  0
VERTEX
  8
LAYER1
 62
     7
  6
CONTINUOUS
 10
6.5845
 20
10.4169
  0
VERTEX
  8
LAYER1
 62
     7
  6
CONTINUOUS
 10
6.5843
 20
10.4154
  0
VERTEX
  8
LAYER1
 62
     7
  6
CONTINUOUS
 10
6.5838
 20
10.4104
  0
VERTEX
  8
LAYER1
 62
     7
  6
CONTINUOUS
 10
6.5834
 20
10.4052
  0
VERTEX
  8
LAYER1
 62
     7
  6
CONTINUOUS
 10
6.5833
 20
10.3997
  0
VERTEX
  8
LAYER1
 62
     7
  6
CONTINUOUS
 10
6.5832
 20
10.3942
  0
VERTEX
  8
LAYER1
 62
     7
  6
CONTINUOUS
 10
6.5832
 20
10.3887
  0
VERTEX
  8
LAYER1
 62
     7
  6
CONTINUOUS
 10
6.5834
 20
10.3835
  0
VERTEX
  8
LAYER1
 62
     7
  6
CONTINUOUS
 10
6.5836
 20
10.3787
  0
VERTEX
  8
LAYER1
 62
     7
  6
CONTINUOUS
 10
6.5838
 20
10.3744
  0
VERTEX
  8
LAYER1
 62
     7
  6
CONTINUOUS
 10
6.5841
 20
10.3708
  0
VERTEX
  8
LAYER1
 62
     7
  6
CONTINUOUS
 10
6.5844
 20
10.3681
  0
VERTEX
  8
LAYER1
 62
     7
  6
CONTINUOUS
 10
6.5846
 20
10.3663
  0
VERTEX
  8
LAYER1
 62
     7
  6
CONTINUOUS
 10
6.5848
 20
10.3656
  0
VERTEX
  8
LAYER1
 62
     7
  6
CONTINUOUS
 10
6.5848
 20
10.3656
  0
VERTEX
  8
LAYER1
 62
     7
  6
CONTINUOUS
 10
6.5849
 20
10.3656
  0
VERTEX
  8
LAYER1
 62
     7
  6
CONTINUOUS
 10
6.5849
 20
10.3656
  0
VERTEX
  8
LAYER1
 62
     7
  6
CONTINUOUS
 10
6.5849
 20
10.3656
  0
VERTEX
  8
LAYER1
 62
     7
  6
CONTINUOUS
 10
6.5849
 20
10.3656
  0
VERTEX
  8
LAYER1
 62
     7
  6
CONTINUOUS
 10
6.5849
 20
10.3656
  0
VERTEX
  8
LAYER1
 62
     7
  6
CONTINUOUS
 10
6.5849
 20
10.3656
  0
VERTEX
  8
LAYER1
 62
     7
  6
CONTINUOUS
 10
6.5849
 20
10.3656
  0
VERTEX
  8
LAYER1
 62
     7
  6
CONTINUOUS
 10
6.5849
 20
10.3656
  0
VERTEX
  8
LAYER1
 62
     7
  6
CONTINUOUS
 10
6.5849
 20
10.3656
  0
VERTEX
  8
LAYER1
 62
     7
  6
CONTINUOUS
 10
6.5849
 20
10.3656
  0
VERTEX
  8
LAYER1
 62
     7
  6
CONTINUOUS
 10
6.5848
 20
10.3656
  0
VERTEX
  8
LAYER1
 62
     7
  6
CONTINUOUS
 10
6.5846
 20
10.3651
  0
VERTEX
  8
LAYER1
 62
     7
  6
CONTINUOUS
 10
6.5842
 20
10.3643
  0
VERTEX
  8
LAYER1
 62
     7
  6
CONTINUOUS
 10
6.5836
 20
10.3632
  0
VERTEX
  8
LAYER1
 62
     7
  6
CONTINUOUS
 10
6.5829
 20
10.3618
  0
VERTEX
  8
LAYER1
 62
     7
  6
CONTINUOUS
 10
6.5821
 20
10.3601
  0
VERTEX
  8
LAYER1
 62
     7
  6
CONTINUOUS
 10
6.5812
 20
10.3583
  0
VERTEX
  8
LAYER1
 62
     7
  6
CONTINUOUS
 10
6.5802
 20
10.3563
  0
VERTEX
  8
LAYER1
 62
     7
  6
CONTINUOUS
 10
6.5792
 20
10.3542
  0
VERTEX
  8
LAYER1
 62
     7
  6
CONTINUOUS
 10
6.5782
 20
10.3520
  0
VERTEX
  8
LAYER1
 62
     7
  6
CONTINUOUS
 10
6.5771
 20
10.3498
  0
VERTEX
  8
LAYER1
 62
     7
  6
CONTINUOUS
 10
6.5761
 20
10.3477
  0
VERTEX
  8
LAYER1
 62
     7
  6
CONTINUOUS
 10
6.5751
 20
10.3456
  0
VERTEX
  8
LAYER1
 62
     7
  6
CONTINUOUS
 10
6.5741
 20
10.3435
  0
VERTEX
  8
LAYER1
 62
     7
  6
CONTINUOUS
 10
6.5732
 20
10.3416
  0
VERTEX
  8
LAYER1
 62
     7
  6
CONTINUOUS
 10
6.5724
 20
10.3398
  0
VERTEX
  8
LAYER1
 62
     7
  6
CONTINUOUS
 10
6.5715
 20
10.3381
  0
VERTEX
  8
LAYER1
 62
     7
  6
CONTINUOUS
 10
6.5707
 20
10.3364
  0
VERTEX
  8
LAYER1
 62
     7
  6
CONTINUOUS
 10
6.5699
 20
10.3348
  0
VERTEX
  8
LAYER1
 62
     7
  6
CONTINUOUS
 10
6.5692
 20
10.3332
  0
VERTEX
  8
LAYER1
 62
     7
  6
CONTINUOUS
 10
6.5684
 20
10.3316
  0
VERTEX
  8
LAYER1
 62
     7
  6
CONTINUOUS
 10
6.5677
 20
10.3301
  0
VERTEX
  8
LAYER1
 62
     7
  6
CONTINUOUS
 10
6.5669
 20
10.3286
  0
VERTEX
  8
LAYER1
 62
     7
  6
CONTINUOUS
 10
6.5661
 20
10.3271
  0
VERTEX
  8
LAYER1
 62
     7
  6
CONTINUOUS
 10
6.5654
 20
10.3255
  0
VERTEX
  8
LAYER1
 62
     7
  6
CONTINUOUS
 10
6.5646
 20
10.3240
  0
VERTEX
  8
LAYER1
 62
     7
  6
CONTINUOUS
 10
6.5637
 20
10.3224
  0
VERTEX
  8
LAYER1
 62
     7
  6
CONTINUOUS
 10
6.5629
 20
10.3208
  0
VERTEX
  8
LAYER1
 62
     7
  6
CONTINUOUS
 10
6.5621
 20
10.3192
  0
VERTEX
  8
LAYER1
 62
     7
  6
CONTINUOUS
 10
6.5613
 20
10.3175
  0
VERTEX
  8
LAYER1
 62
     7
  6
CONTINUOUS
 10
6.5604
 20
10.3159
  0
VERTEX
  8
LAYER1
 62
     7
  6
CONTINUOUS
 10
6.5596
 20
10.3142
  0
VERTEX
  8
LAYER1
 62
     7
  6
CONTINUOUS
 10
6.5588
 20
10.3125
  0
VERTEX
  8
LAYER1
 62
     7
  6
CONTINUOUS
 10
6.5579
 20
10.3108
  0
VERTEX
  8
LAYER1
 62
     7
  6
CONTINUOUS
 10
6.5571
 20
10.3090
  0
VERTEX
  8
LAYER1
 62
     7
  6
CONTINUOUS
 10
6.5564
 20
10.3073
  0
VERTEX
  8
LAYER1
 62
     7
  6
CONTINUOUS
 10
6.5556
 20
10.3055
  0
VERTEX
  8
LAYER1
 62
     7
  6
CONTINUOUS
 10
6.5549
 20
10.3037
  0
VERTEX
  8
LAYER1
 62
     7
  6
CONTINUOUS
 10
6.5542
 20
10.3020
  0
VERTEX
  8
LAYER1
 62
     7
  6
CONTINUOUS
 10
6.5535
 20
10.3002
  0
VERTEX
  8
LAYER1
 62
     7
  6
CONTINUOUS
 10
6.5528
 20
10.2984
  0
VERTEX
  8
LAYER1
 62
     7
  6
CONTINUOUS
 10
6.5521
 20
10.2967
  0
VERTEX
  8
LAYER1
 62
     7
  6
CONTINUOUS
 10
6.5513
 20
10.2949
  0
VERTEX
  8
LAYER1
 62
     7
  6
CONTINUOUS
 10
6.5506
 20
10.2932
  0
VERTEX
  8
LAYER1
 62
     7
  6
CONTINUOUS
 10
6.5498
 20
10.2916
  0
VERTEX
  8
LAYER1
 62
     7
  6
CONTINUOUS
 10
6.5489
 20
10.2900
  0
VERTEX
  8
LAYER1
 62
     7
  6
CONTINUOUS
 10
6.5480
 20
10.2884
  0
VERTEX
  8
LAYER1
 62
     7
  6
CONTINUOUS
 10
6.5470
 20
10.2869
  0
VERTEX
  8
LAYER1
 62
     7
  6
CONTINUOUS
 10
6.5459
 20
10.2855
  0
VERTEX
  8
LAYER1
 62
     7
  6
CONTINUOUS
 10
6.5443
 20
10.2838
  0
VERTEX
  8
LAYER1
 62
     7
  6
CONTINUOUS
 10
6.5427
 20
10.2821
  0
VERTEX
  8
LAYER1
 62
     7
  6
CONTINUOUS
 10
6.5408
 20
10.2806
  0
VERTEX
  8
LAYER1
 62
     7
  6
CONTINUOUS
 10
6.5389
 20
10.2792
  0
VERTEX
  8
LAYER1
 62
     7
  6
CONTINUOUS
 10
6.5369
 20
10.2779
  0
VERTEX
  8
LAYER1
 62
     7
  6
CONTINUOUS
 10
6.5348
 20
10.2766
  0
VERTEX
  8
LAYER1
 62
     7
  6
CONTINUOUS
 10
6.5326
 20
10.2755
  0
VERTEX
  8
LAYER1
 62
     7
  6
CONTINUOUS
 10
6.5304
 20
10.2744
  0
VERTEX
  8
LAYER1
 62
     7
  6
CONTINUOUS
 10
6.5281
 20
10.2733
  0
VERTEX
  8
LAYER1
 62
     7
  6
CONTINUOUS
 10
6.5258
 20
10.2723
  0
VERTEX
  8
LAYER1
 62
     7
  6
CONTINUOUS
 10
6.5235
 20
10.2713
  0
VERTEX
  8
LAYER1
 62
     7
  6
CONTINUOUS
 10
6.5212
 20
10.2703
  0
VERTEX
  8
LAYER1
 62
     7
  6
CONTINUOUS
 10
6.5194
 20
10.2695
  0
VERTEX
  8
LAYER1
 62
     7
  6
CONTINUOUS
 10
6.5177
 20
10.2688
  0
VERTEX
  8
LAYER1
 62
     7
  6
CONTINUOUS
 10
6.5159
 20
10.2680
  0
VERTEX
  8
LAYER1
 62
     7
  6
CONTINUOUS
 10
6.5142
 20
10.2673
  0
VERTEX
  8
LAYER1
 62
     7
  6
CONTINUOUS
 10
6.5125
 20
10.2665
  0
VERTEX
  8
LAYER1
 62
     7
  6
CONTINUOUS
 10
6.5109
 20
10.2657
  0
VERTEX
  8
LAYER1
 62
     7
  6
CONTINUOUS
 10
6.5092
 20
10.2648
  0
VERTEX
  8
LAYER1
 62
     7
  6
CONTINUOUS
 10
6.5076
 20
10.2640
  0
VERTEX
  8
LAYER1
 62
     7
  6
CONTINUOUS
 10
6.5060
 20
10.2631
  0
VERTEX
  8
LAYER1
 62
     7
  6
CONTINUOUS
 10
6.5044
 20
10.2621
  0
VERTEX
  8
LAYER1
 62
     7
  6
CONTINUOUS
 10
6.5029
 20
10.2612
  0
VERTEX
  8
LAYER1
 62
     7
  6
CONTINUOUS
 10
6.5014
 20
10.2601
  0
VERTEX
  8
LAYER1
 62
     7
  6
CONTINUOUS
 10
6.5004
 20
10.2594
  0
VERTEX
  8
LAYER1
 62
     7
  6
CONTINUOUS
 10
6.4995
 20
10.2587
  0
VERTEX
  8
LAYER1
 62
     7
  6
CONTINUOUS
 10
6.4986
 20
10.2580
  0
VERTEX
  8
LAYER1
 62
     7
  6
CONTINUOUS
 10
6.4977
 20
10.2572
  0
VERTEX
  8
LAYER1
 62
     7
  6
CONTINUOUS
 10
6.4968
 20
10.2564
  0
VERTEX
  8
LAYER1
 62
     7
  6
CONTINUOUS
 10
6.4960
 20
10.2556
  0
VERTEX
  8
LAYER1
 62
     7
  6
CONTINUOUS
 10
6.4952
 20
10.2548
  0
VERTEX
  8
LAYER1
 62
     7
  6
CONTINUOUS
 10
6.4944
 20
10.2539
  0
VERTEX
  8
LAYER1
 62
     7
  6
CONTINUOUS
 10
6.4936
 20
10.2530
  0
VERTEX
  8
LAYER1
 62
     7
  6
CONTINUOUS
 10
6.4929
 20
10.2520
  0
VERTEX
  8
LAYER1
 62
     7
  6
CONTINUOUS
 10
6.4922
 20
10.2511
  0
VERTEX
  8
LAYER1
 62
     7
  6
CONTINUOUS
 10
6.4915
 20
10.2500
  0
VERTEX
  8
LAYER1
 62
     7
  6
CONTINUOUS
 10
6.4902
 20
10.2478
  0
VERTEX
  8
LAYER1
 62
     7
  6
CONTINUOUS
 10
6.4891
 20
10.2455
  0
VERTEX
  8
LAYER1
 62
     7
  6
CONTINUOUS
 10
6.4880
 20
10.2431
  0
VERTEX
  8
LAYER1
 62
     7
  6
CONTINUOUS
 10
6.4870
 20
10.2407
  0
VERTEX
  8
LAYER1
 62
     7
  6
CONTINUOUS
 10
6.4860
 20
10.2383
  0
VERTEX
  8
LAYER1
 62
     7
  6
CONTINUOUS
 10
6.4849
 20
10.2359
  0
VERTEX
  8
LAYER1
 62
     7
  6
CONTINUOUS
 10
6.4839
 20
10.2337
  0
VERTEX
  8
LAYER1
 62
     7
  6
CONTINUOUS
 10
6.4828
 20
10.2315
  0
VERTEX
  8
LAYER1
 62
     7
  6
CONTINUOUS
 10
6.4815
 20
10.2295
  0
VERTEX
  8
LAYER1
 62
     7
  6
CONTINUOUS
 10
6.4801
 20
10.2278
  0
VERTEX
  8
LAYER1
 62
     7
  6
CONTINUOUS
 10
6.4786
 20
10.2262
  0
VERTEX
  8
LAYER1
 62
     7
  6
CONTINUOUS
 10
6.4769
 20
10.2250
  0
VERTEX
  8
LAYER1
 62
     7
  6
CONTINUOUS
 10
6.4748
 20
10.2240
  0
VERTEX
  8
LAYER1
 62
     7
  6
CONTINUOUS
 10
6.4725
 20
10.2234
  0
VERTEX
  8
LAYER1
 62
     7
  6
CONTINUOUS
 10
6.4701
 20
10.2230
  0
VERTEX
  8
LAYER1
 62
     7
  6
CONTINUOUS
 10
6.4675
 20
10.2227
  0
VERTEX
  8
LAYER1
 62
     7
  6
CONTINUOUS
 10
6.4648
 20
10.2226
  0
VERTEX
  8
LAYER1
 62
     7
  6
CONTINUOUS
 10
6.4621
 20
10.2225
  0
VERTEX
  8
LAYER1
 62
     7
  6
CONTINUOUS
 10
6.4594
 20
10.2224
  0
VERTEX
  8
LAYER1
 62
     7
  6
CONTINUOUS
 10
6.4567
 20
10.2223
  0
VERTEX
  8
LAYER1
 62
     7
  6
CONTINUOUS
 10
6.4541
 20
10.2220
  0
VERTEX
  8
LAYER1
 62
     7
  6
CONTINUOUS
 10
6.4516
 20
10.2215
  0
VERTEX
  8
LAYER1
 62
     7
  6
CONTINUOUS
 10
6.4492
 20
10.2208
  0
VERTEX
  8
LAYER1
 62
     7
  6
CONTINUOUS
 10
6.4470
 20
10.2197
  0
VERTEX
  8
LAYER1
 62
     7
  6
CONTINUOUS
 10
6.4461
 20
10.2191
  0
VERTEX
  8
LAYER1
 62
     7
  6
CONTINUOUS
 10
6.4452
 20
10.2184
  0
VERTEX
  8
LAYER1
 62
     7
  6
CONTINUOUS
 10
6.4444
 20
10.2176
  0
VERTEX
  8
LAYER1
 62
     7
  6
CONTINUOUS
 10
6.4435
 20
10.2168
  0
VERTEX
  8
LAYER1
 62
     7
  6
CONTINUOUS
 10
6.4427
 20
10.2160
  0
VERTEX
  8
LAYER1
 62
     7
  6
CONTINUOUS
 10
6.4420
 20
10.2151
  0
VERTEX
  8
LAYER1
 62
     7
  6
CONTINUOUS
 10
6.4412
 20
10.2142
  0
VERTEX
  8
LAYER1
 62
     7
  6
CONTINUOUS
 10
6.4404
 20
10.2133
  0
VERTEX
  8
LAYER1
 62
     7
  6
CONTINUOUS
 10
6.4396
 20
10.2123
  0
VERTEX
  8
LAYER1
 62
     7
  6
CONTINUOUS
 10
6.4388
 20
10.2114
  0
VERTEX
  8
LAYER1
 62
     7
  6
CONTINUOUS
 10
6.4380
 20
10.2105
  0
VERTEX
  8
LAYER1
 62
     7
  6
CONTINUOUS
 10
6.4372
 20
10.2096
  0
VERTEX
  8
LAYER1
 62
     7
  6
CONTINUOUS
 10
6.4352
 20
10.2078
  0
VERTEX
  8
LAYER1
 62
     7
  6
CONTINUOUS
 10
6.4331
 20
10.2061
  0
VERTEX
  8
LAYER1
 62
     7
  6
CONTINUOUS
 10
6.4308
 20
10.2047
  0
VERTEX
  8
LAYER1
 62
     7
  6
CONTINUOUS
 10
6.4284
 20
10.2034
  0
VERTEX
  8
LAYER1
 62
     7
  6
CONTINUOUS
 10
6.4260
 20
10.2022
  0
VERTEX
  8
LAYER1
 62
     7
  6
CONTINUOUS
 10
6.4234
 20
10.2013
  0
VERTEX
  8
LAYER1
 62
     7
  6
CONTINUOUS
 10
6.4208
 20
10.2005
  0
VERTEX
  8
LAYER1
 62
     7
  6
CONTINUOUS
 10
6.4182
 20
10.1999
  0
VERTEX
  8
LAYER1
 62
     7
  6
CONTINUOUS
 10
6.4155
 20
10.1995
  0
VERTEX
  8
LAYER1
 62
     7
  6
CONTINUOUS
 10
6.4128
 20
10.1993
  0
VERTEX
  8
LAYER1
 62
     7
  6
CONTINUOUS
 10
6.4101
 20
10.1992
  0
VERTEX
  8
LAYER1
 62
     7
  6
CONTINUOUS
 10
6.4074
 20
10.1993
  0
VERTEX
  8
LAYER1
 62
     7
  6
CONTINUOUS
 10
6.4048
 20
10.1996
  0
VERTEX
  8
LAYER1
 62
     7
  6
CONTINUOUS
 10
6.4022
 20
10.2001
  0
VERTEX
  8
LAYER1
 62
     7
  6
CONTINUOUS
 10
6.3997
 20
10.2007
  0
VERTEX
  8
LAYER1
 62
     7
  6
CONTINUOUS
 10
6.3972
 20
10.2014
  0
VERTEX
  8
LAYER1
 62
     7
  6
CONTINUOUS
 10
6.3947
 20
10.2022
  0
VERTEX
  8
LAYER1
 62
     7
  6
CONTINUOUS
 10
6.3922
 20
10.2030
  0
VERTEX
  8
LAYER1
 62
     7
  6
CONTINUOUS
 10
6.3897
 20
10.2040
  0
VERTEX
  8
LAYER1
 62
     7
  6
CONTINUOUS
 10
6.3873
 20
10.2050
  0
VERTEX
  8
LAYER1
 62
     7
  6
CONTINUOUS
 10
6.3848
 20
10.2060
  0
VERTEX
  8
LAYER1
 62
     7
  6
CONTINUOUS
 10
6.3824
 20
10.2070
  0
VERTEX
  8
LAYER1
 62
     7
  6
CONTINUOUS
 10
6.3799
 20
10.2080
  0
VERTEX
  8
LAYER1
 62
     7
  6
CONTINUOUS
 10
6.3775
 20
10.2090
  0
VERTEX
  8
LAYER1
 62
     7
  6
CONTINUOUS
 10
6.3742
 20
10.2101
  0
VERTEX
  8
LAYER1
 62
     7
  6
CONTINUOUS
 10
6.3710
 20
10.2112
  0
VERTEX
  8
LAYER1
 62
     7
  6
CONTINUOUS
 10
6.3677
 20
10.2122
  0
VERTEX
  8
LAYER1
 62
     7
  6
CONTINUOUS
 10
6.3644
 20
10.2132
  0
VERTEX
  8
LAYER1
 62
     7
  6
CONTINUOUS
 10
6.3611
 20
10.2140
  0
VERTEX
  8
LAYER1
 62
     7
  6
CONTINUOUS
 10
6.3577
 20
10.2148
  0
VERTEX
  8
LAYER1
 62
     7
  6
CONTINUOUS
 10
6.3544
 20
10.2155
  0
VERTEX
  8
LAYER1
 62
     7
  6
CONTINUOUS
 10
6.3510
 20
10.2162
  0
VERTEX
  8
LAYER1
 62
     7
  6
CONTINUOUS
 10
6.3476
 20
10.2168
  0
VERTEX
  8
LAYER1
 62
     7
  6
CONTINUOUS
 10
6.3443
 20
10.2174
  0
VERTEX
  8
LAYER1
 62
     7
  6
CONTINUOUS
 10
6.3409
 20
10.2180
  0
VERTEX
  8
LAYER1
 62
     7
  6
CONTINUOUS
 10
6.3375
 20
10.2185
  0
VERTEX
  8
LAYER1
 62
     7
  6
CONTINUOUS
 10
6.3354
 20
10.2188
  0
VERTEX
  8
LAYER1
 62
     7
  6
CONTINUOUS
 10
6.3334
 20
10.2191
  0
VERTEX
  8
LAYER1
 62
     7
  6
CONTINUOUS
 10
6.3313
 20
10.2194
  0
VERTEX
  8
LAYER1
 62
     7
  6
CONTINUOUS
 10
6.3292
 20
10.2197
  0
VERTEX
  8
LAYER1
 62
     7
  6
CONTINUOUS
 10
6.3271
 20
10.2200
  0
VERTEX
  8
LAYER1
 62
     7
  6
CONTINUOUS
 10
6.3250
 20
10.2204
  0
VERTEX
  8
LAYER1
 62
     7
  6
CONTINUOUS
 10
6.3230
 20
10.2207
  0
VERTEX
  8
LAYER1
 62
     7
  6
CONTINUOUS
 10
6.3209
 20
10.2211
  0
VERTEX
  8
LAYER1
 62
     7
  6
CONTINUOUS
 10
6.3188
 20
10.2216
  0
VERTEX
  8
LAYER1
 62
     7
  6
CONTINUOUS
 10
6.3167
 20
10.2220
  0
VERTEX
  8
LAYER1
 62
     7
  6
CONTINUOUS
 10
6.3147
 20
10.2226
  0
VERTEX
  8
LAYER1
 62
     7
  6
CONTINUOUS
 10
6.3126
 20
10.2232
  0
VERTEX
  8
LAYER1
 62
     7
  6
CONTINUOUS
 10
6.3117
 20
10.2235
  0
VERTEX
  8
LAYER1
 62
     7
  6
CONTINUOUS
 10
6.3108
 20
10.2237
  0
VERTEX
  8
LAYER1
 62
     7
  6
CONTINUOUS
 10
6.3099
 20
10.2241
  0
VERTEX
  8
LAYER1
 62
     7
  6
CONTINUOUS
 10
6.3090
 20
10.2244
  0
VERTEX
  8
LAYER1
 62
     7
  6
CONTINUOUS
 10
6.3081
 20
10.2247
  0
VERTEX
  8
LAYER1
 62
     7
  6
CONTINUOUS
 10
6.3073
 20
10.2251
  0
VERTEX
  8
LAYER1
 62
     7
  6
CONTINUOUS
 10
6.3064
 20
10.2255
  0
VERTEX
  8
LAYER1
 62
     7
  6
CONTINUOUS
 10
6.3056
 20
10.2260
  0
VERTEX
  8
LAYER1
 62
     7
  6
CONTINUOUS
 10
6.3048
 20
10.2264
  0
VERTEX
  8
LAYER1
 62
     7
  6
CONTINUOUS
 10
6.3040
 20
10.2269
  0
VERTEX
  8
LAYER1
 62
     7
  6
CONTINUOUS
 10
6.3033
 20
10.2275
  0
VERTEX
  8
LAYER1
 62
     7
  6
CONTINUOUS
 10
6.3026
 20
10.2281
  0
VERTEX
  8
LAYER1
 62
     7
  6
CONTINUOUS
 10
6.3011
 20
10.2295
  0
VERTEX
  8
LAYER1
 62
     7
  6
CONTINUOUS
 10
6.2998
 20
10.2311
  0
VERTEX
  8
LAYER1
 62
     7
  6
CONTINUOUS
 10
6.2986
 20
10.2329
  0
VERTEX
  8
LAYER1
 62
     7
  6
CONTINUOUS
 10
6.2975
 20
10.2347
  0
VERTEX
  8
LAYER1
 62
     7
  6
CONTINUOUS
 10
6.2965
 20
10.2366
  0
VERTEX
  8
LAYER1
 62
     7
  6
CONTINUOUS
 10
6.2954
 20
10.2385
  0
VERTEX
  8
LAYER1
 62
     7
  6
CONTINUOUS
 10
6.2943
 20
10.2403
  0
VERTEX
  8
LAYER1
 62
     7
  6
CONTINUOUS
 10
6.2932
 20
10.2421
  0
VERTEX
  8
LAYER1
 62
     7
  6
CONTINUOUS
 10
6.2920
 20
10.2438
  0
VERTEX
  8
LAYER1
 62
     7
  6
CONTINUOUS
 10
6.2906
 20
10.2454
  0
VERTEX
  8
LAYER1
 62
     7
  6
CONTINUOUS
 10
6.2891
 20
10.2467
  0
VERTEX
  8
LAYER1
 62
     7
  6
CONTINUOUS
 10
6.2874
 20
10.2478
  0
VERTEX
  8
LAYER1
 62
     7
  6
CONTINUOUS
 10
6.2863
 20
10.2483
  0
VERTEX
  8
LAYER1
 62
     7
  6
CONTINUOUS
 10
6.2851
 20
10.2488
  0
VERTEX
  8
LAYER1
 62
     7
  6
CONTINUOUS
 10
6.2839
 20
10.2491
  0
VERTEX
  8
LAYER1
 62
     7
  6
CONTINUOUS
 10
6.2826
 20
10.2494
  0
VERTEX
  8
LAYER1
 62
     7
  6
CONTINUOUS
 10
6.2813
 20
10.2495
  0
VERTEX
  8
LAYER1
 62
     7
  6
CONTINUOUS
 10
6.2800
 20
10.2495
  0
VERTEX
  8
LAYER1
 62
     7
  6
CONTINUOUS
 10
6.2786
 20
10.2495
  0
VERTEX
  8
LAYER1
 62
     7
  6
CONTINUOUS
 10
6.2773
 20
10.2493
  0
VERTEX
  8
LAYER1
 62
     7
  6
CONTINUOUS
 10
6.2760
 20
10.2491
  0
VERTEX
  8
LAYER1
 62
     7
  6
CONTINUOUS
 10
6.2748
 20
10.2487
  0
VERTEX
  8
LAYER1
 62
     7
  6
CONTINUOUS
 10
6.2736
 20
10.2482
  0
VERTEX
  8
LAYER1
 62
     7
  6
CONTINUOUS
 10
6.2725
 20
10.2476
  0
VERTEX
  8
LAYER1
 62
     7
  6
CONTINUOUS
 10
6.2715
 20
10.2470
  0
VERTEX
  8
LAYER1
 62
     7
  6
CONTINUOUS
 10
6.2706
 20
10.2463
  0
VERTEX
  8
LAYER1
 62
     7
  6
CONTINUOUS
 10
6.2697
 20
10.2455
  0
VERTEX
  8
LAYER1
 62
     7
  6
CONTINUOUS
 10
6.2689
 20
10.2446
  0
VERTEX
  8
LAYER1
 62
     7
  6
CONTINUOUS
 10
6.2681
 20
10.2438
  0
VERTEX
  8
LAYER1
 62
     7
  6
CONTINUOUS
 10
6.2673
 20
10.2428
  0
VERTEX
  8
LAYER1
 62
     7
  6
CONTINUOUS
 10
6.2666
 20
10.2419
  0
VERTEX
  8
LAYER1
 62
     7
  6
CONTINUOUS
 10
6.2658
 20
10.2410
  0
VERTEX
  8
LAYER1
 62
     7
  6
CONTINUOUS
 10
6.2651
 20
10.2401
  0
VERTEX
  8
LAYER1
 62
     7
  6
CONTINUOUS
 10
6.2643
 20
10.2392
  0
VERTEX
  8
LAYER1
 62
     7
  6
CONTINUOUS
 10
6.2635
 20
10.2384
  0
VERTEX
  8
LAYER1
 62
     7
  6
CONTINUOUS
 10
6.2626
 20
10.2376
  0
VERTEX
  8
LAYER1
 62
     7
  6
CONTINUOUS
 10
6.2610
 20
10.2363
  0
VERTEX
  8
LAYER1
 62
     7
  6
CONTINUOUS
 10
6.2593
 20
10.2352
  0
VERTEX
  8
LAYER1
 62
     7
  6
CONTINUOUS
 10
6.2574
 20
10.2343
  0
VERTEX
  8
LAYER1
 62
     7
  6
CONTINUOUS
 10
6.2555
 20
10.2336
  0
VERTEX
  8
LAYER1
 62
     7
  6
CONTINUOUS
 10
6.2534
 20
10.2331
  0
VERTEX
  8
LAYER1
 62
     7
  6
CONTINUOUS
 10
6.2513
 20
10.2326
  0
VERTEX
  8
LAYER1
 62
     7
  6
CONTINUOUS
 10
6.2491
 20
10.2323
  0
VERTEX
  8
LAYER1
 62
     7
  6
CONTINUOUS
 10
6.2469
 20
10.2322
  0
VERTEX
  8
LAYER1
 62
     7
  6
CONTINUOUS
 10
6.2446
 20
10.2321
  0
VERTEX
  8
LAYER1
 62
     7
  6
CONTINUOUS
 10
6.2424
 20
10.2321
  0
VERTEX
  8
LAYER1
 62
     7
  6
CONTINUOUS
 10
6.2401
 20
10.2322
  0
VERTEX
  8
LAYER1
 62
     7
  6
CONTINUOUS
 10
6.2378
 20
10.2323
  0
VERTEX
  8
LAYER1
 62
     7
  6
CONTINUOUS
 10
6.2346
 20
10.2326
  0
VERTEX
  8
LAYER1
 62
     7
  6
CONTINUOUS
 10
6.2315
 20
10.2330
  0
VERTEX
  8
LAYER1
 62
     7
  6
CONTINUOUS
 10
6.2284
 20
10.2334
  0
VERTEX
  8
LAYER1
 62
     7
  6
CONTINUOUS
 10
6.2253
 20
10.2340
  0
VERTEX
  8
LAYER1
 62
     7
  6
CONTINUOUS
 10
6.2224
 20
10.2346
  0
VERTEX
  8
LAYER1
 62
     7
  6
CONTINUOUS
 10
6.2194
 20
10.2353
  0
VERTEX
  8
LAYER1
 62
     7
  6
CONTINUOUS
 10
6.2165
 20
10.2362
  0
VERTEX
  8
LAYER1
 62
     7
  6
CONTINUOUS
 10
6.2137
 20
10.2371
  0
VERTEX
  8
LAYER1
 62
     7
  6
CONTINUOUS
 10
6.2109
 20
10.2381
  0
VERTEX
  8
LAYER1
 62
     7
  6
CONTINUOUS
 10
6.2082
 20
10.2393
  0
VERTEX
  8
LAYER1
 62
     7
  6
CONTINUOUS
 10
6.2055
 20
10.2405
  0
VERTEX
  8
LAYER1
 62
     7
  6
CONTINUOUS
 10
6.2029
 20
10.2419
  0
VERTEX
  8
LAYER1
 62
     7
  6
CONTINUOUS
 10
6.2006
 20
10.2432
  0
VERTEX
  8
LAYER1
 62
     7
  6
CONTINUOUS
 10
6.1983
 20
10.2445
  0
VERTEX
  8
LAYER1
 62
     7
  6
CONTINUOUS
 10
6.1961
 20
10.2459
  0
VERTEX
  8
LAYER1
 62
     7
  6
CONTINUOUS
 10
6.1940
 20
10.2475
  0
VERTEX
  8
LAYER1
 62
     7
  6
CONTINUOUS
 10
6.1918
 20
10.2490
  0
VERTEX
  8
LAYER1
 62
     7
  6
CONTINUOUS
 10
6.1897
 20
10.2507
  0
VERTEX
  8
LAYER1
 62
     7
  6
CONTINUOUS
 10
6.1877
 20
10.2523
  0
VERTEX
  8
LAYER1
 62
     7
  6
CONTINUOUS
 10
6.1856
 20
10.2541
  0
VERTEX
  8
LAYER1
 62
     7
  6
CONTINUOUS
 10
6.1836
 20
10.2559
  0
VERTEX
  8
LAYER1
 62
     7
  6
CONTINUOUS
 10
6.1816
 20
10.2577
  0
VERTEX
  8
LAYER1
 62
     7
  6
CONTINUOUS
 10
6.1797
 20
10.2596
  0
VERTEX
  8
LAYER1
 62
     7
  6
CONTINUOUS
 10
6.1778
 20
10.2615
  0
VERTEX
  8
LAYER1
 62
     7
  6
CONTINUOUS
 10
6.1756
 20
10.2637
  0
VERTEX
  8
LAYER1
 62
     7
  6
CONTINUOUS
 10
6.1735
 20
10.2660
  0
VERTEX
  8
LAYER1
 62
     7
  6
CONTINUOUS
 10
6.1715
 20
10.2683
  0
VERTEX
  8
LAYER1
 62
     7
  6
CONTINUOUS
 10
6.1695
 20
10.2706
  0
VERTEX
  8
LAYER1
 62
     7
  6
CONTINUOUS
 10
6.1676
 20
10.2730
  0
VERTEX
  8
LAYER1
 62
     7
  6
CONTINUOUS
 10
6.1658
 20
10.2755
  0
VERTEX
  8
LAYER1
 62
     7
  6
CONTINUOUS
 10
6.1641
 20
10.2779
  0
VERTEX
  8
LAYER1
 62
     7
  6
CONTINUOUS
 10
6.1625
 20
10.2805
  0
VERTEX
  8
LAYER1
 62
     7
  6
CONTINUOUS
 10
6.1611
 20
10.2831
  0
VERTEX
  8
LAYER1
 62
     7
  6
CONTINUOUS
 10
6.1597
 20
10.2857
  0
SEQEND
  8
LAYER1
  0
POLYLINE
  8
LAYER1
 62
     7
 66
     1
  6
CONTINUOUS
  0
VERTEX
  8
LAYER1
 62
     7
  6
CONTINUOUS
 10
6.1597
 20
10.2857
  0
VERTEX
  8
LAYER1
 62
     7
  6
CONTINUOUS
 10
6.1585
 20
10.2884
  0
VERTEX
  8
LAYER1
 62
     7
  6
CONTINUOUS
 10
6.1575
 20
10.2912
  0
VERTEX
  8
LAYER1
 62
     7
  6
CONTINUOUS
 10
6.1568
 20
10.2936
  0
VERTEX
  8
LAYER1
 62
     7
  6
CONTINUOUS
 10
6.1561
 20
10.2960
  0
VERTEX
  8
LAYER1
 62
     7
  6
CONTINUOUS
 10
6.1556
 20
10.2984
  0
VERTEX
  8
LAYER1
 62
     7
  6
CONTINUOUS
 10
6.1551
 20
10.3009
  0
VERTEX
  8
LAYER1
 62
     7
  6
CONTINUOUS
 10
6.1547
 20
10.3034
  0
VERTEX
  8
LAYER1
 62
     7
  6
CONTINUOUS
 10
6.1543
 20
10.3059
  0
VERTEX
  8
LAYER1
 62
     7
  6
CONTINUOUS
 10
6.1540
 20
10.3084
  0
VERTEX
  8
LAYER1
 62
     7
  6
CONTINUOUS
 10
6.1537
 20
10.3109
  0
VERTEX
  8
LAYER1
 62
     7
  6
CONTINUOUS
 10
6.1533
 20
10.3134
  0
VERTEX
  8
LAYER1
 62
     7
  6
CONTINUOUS
 10
6.1530
 20
10.3160
  0
VERTEX
  8
LAYER1
 62
     7
  6
CONTINUOUS
 10
6.1526
 20
10.3185
  0
VERTEX
  8
LAYER1
 62
     7
  6
CONTINUOUS
 10
6.1522
 20
10.3210
  0
VERTEX
  8
LAYER1
 62
     7
  6
CONTINUOUS
 10
6.1518
 20
10.3231
  0
VERTEX
  8
LAYER1
 62
     7
  6
CONTINUOUS
 10
6.1514
 20
10.3252
  0
VERTEX
  8
LAYER1
 62
     7
  6
CONTINUOUS
 10
6.1509
 20
10.3272
  0
VERTEX
  8
LAYER1
 62
     7
  6
CONTINUOUS
 10
6.1505
 20
10.3293
  0
VERTEX
  8
LAYER1
 62
     7
  6
CONTINUOUS
 10
6.1500
 20
10.3314
  0
VERTEX
  8
LAYER1
 62
     7
  6
CONTINUOUS
 10
6.1495
 20
10.3334
  0
VERTEX
  8
LAYER1
 62
     7
  6
CONTINUOUS
 10
6.1490
 20
10.3355
  0
VERTEX
  8
LAYER1
 62
     7
  6
CONTINUOUS
 10
6.1485
 20
10.3375
  0
VERTEX
  8
LAYER1
 62
     7
  6
CONTINUOUS
 10
6.1481
 20
10.3396
  0
VERTEX
  8
LAYER1
 62
     7
  6
CONTINUOUS
 10
6.1477
 20
10.3417
  0
VERTEX
  8
LAYER1
 62
     7
  6
CONTINUOUS
 10
6.1473
 20
10.3437
  0
VERTEX
  8
LAYER1
 62
     7
  6
CONTINUOUS
 10
6.1470
 20
10.3458
  0
VERTEX
  8
LAYER1
 62
     7
  6
CONTINUOUS
 10
6.1466
 20
10.3487
  0
VERTEX
  8
LAYER1
 62
     7
  6
CONTINUOUS
 10
6.1462
 20
10.3516
  0
VERTEX
  8
LAYER1
 62
     7
  6
CONTINUOUS
 10
6.1460
 20
10.3546
  0
VERTEX
  8
LAYER1
 62
     7
  6
CONTINUOUS
 10
6.1457
 20
10.3575
  0
VERTEX
  8
LAYER1
 62
     7
  6
CONTINUOUS
 10
6.1455
 20
10.3604
  0
VERTEX
  8
LAYER1
 62
     7
  6
CONTINUOUS
 10
6.1452
 20
10.3634
  0
VERTEX
  8
LAYER1
 62
     7
  6
CONTINUOUS
 10
6.1449
 20
10.3663
  0
VERTEX
  8
LAYER1
 62
     7
  6
CONTINUOUS
 10
6.1445
 20
10.3692
  0
VERTEX
  8
LAYER1
 62
     7
  6
CONTINUOUS
 10
6.1440
 20
10.3721
  0
VERTEX
  8
LAYER1
 62
     7
  6
CONTINUOUS
 10
6.1434
 20
10.3750
  0
VERTEX
  8
LAYER1
 62
     7
  6
CONTINUOUS
 10
6.1426
 20
10.3778
  0
VERTEX
  8
LAYER1
 62
     7
  6
CONTINUOUS
 10
6.1416
 20
10.3806
  0
VERTEX
  8
LAYER1
 62
     7
  6
CONTINUOUS
 10
6.1407
 20
10.3827
  0
VERTEX
  8
LAYER1
 62
     7
  6
CONTINUOUS
 10
6.1398
 20
10.3848
  0
VERTEX
  8
LAYER1
 62
     7
  6
CONTINUOUS
 10
6.1387
 20
10.3869
  0
VERTEX
  8
LAYER1
 62
     7
  6
CONTINUOUS
 10
6.1377
 20
10.3890
  0
VERTEX
  8
LAYER1
 62
     7
  6
CONTINUOUS
 10
6.1366
 20
10.3910
  0
VERTEX
  8
LAYER1
 62
     7
  6
CONTINUOUS
 10
6.1356
 20
10.3931
  0
VERTEX
  8
LAYER1
 62
     7
  6
CONTINUOUS
 10
6.1346
 20
10.3951
  0
VERTEX
  8
LAYER1
 62
     7
  6
CONTINUOUS
 10
6.1337
 20
10.3972
  0
VERTEX
  8
LAYER1
 62
     7
  6
CONTINUOUS
 10
6.1329
 20
10.3992
  0
VERTEX
  8
LAYER1
 62
     7
  6
CONTINUOUS
 10
6.1322
 20
10.4013
  0
VERTEX
  8
LAYER1
 62
     7
  6
CONTINUOUS
 10
6.1317
 20
10.4033
  0
VERTEX
  8
LAYER1
 62
     7
  6
CONTINUOUS
 10
6.1314
 20
10.4054
  0
VERTEX
  8
LAYER1
 62
     7
  6
CONTINUOUS
 10
6.1312
 20
10.4075
  0
VERTEX
  8
LAYER1
 62
     7
  6
CONTINUOUS
 10
6.1313
 20
10.4096
  0
VERTEX
  8
LAYER1
 62
     7
  6
CONTINUOUS
 10
6.1316
 20
10.4118
  0
VERTEX
  8
LAYER1
 62
     7
  6
CONTINUOUS
 10
6.1321
 20
10.4140
  0
VERTEX
  8
LAYER1
 62
     7
  6
CONTINUOUS
 10
6.1327
 20
10.4161
  0
VERTEX
  8
LAYER1
 62
     7
  6
CONTINUOUS
 10
6.1334
 20
10.4183
  0
VERTEX
  8
LAYER1
 62
     7
  6
CONTINUOUS
 10
6.1343
 20
10.4205
  0
VERTEX
  8
LAYER1
 62
     7
  6
CONTINUOUS
 10
6.1352
 20
10.4227
  0
VERTEX
  8
LAYER1
 62
     7
  6
CONTINUOUS
 10
6.1363
 20
10.4249
  0
VERTEX
  8
LAYER1
 62
     7
  6
CONTINUOUS
 10
6.1374
 20
10.4271
  0
VERTEX
  8
LAYER1
 62
     7
  6
CONTINUOUS
 10
6.1385
 20
10.4293
  0
VERTEX
  8
LAYER1
 62
     7
  6
CONTINUOUS
 10
6.1396
 20
10.4315
  0
SEQEND
  8
LAYER1
  0
POLYLINE
  8
LAYER1
 62
     7
 66
     1
  6
CONTINUOUS
  0
VERTEX
  8
LAYER1
 62
     7
  6
CONTINUOUS
 10
6.1489
 20
10.4315
  0
VERTEX
  8
LAYER1
 62
     7
  6
CONTINUOUS
 10
6.1479
 20
10.4315
  0
VERTEX
  8
LAYER1
 62
     7
  6
CONTINUOUS
 10
6.1468
 20
10.4315
  0
VERTEX
  8
LAYER1
 62
     7
  6
CONTINUOUS
 10
6.1458
 20
10.4315
  0
VERTEX
  8
LAYER1
 62
     7
  6
CONTINUOUS
 10
6.1449
 20
10.4315
  0
VERTEX
  8
LAYER1
 62
     7
  6
CONTINUOUS
 10
6.1440
 20
10.4315
  0
VERTEX
  8
LAYER1
 62
     7
  6
CONTINUOUS
 10
6.1431
 20
10.4315
  0
VERTEX
  8
LAYER1
 62
     7
  6
CONTINUOUS
 10
6.1423
 20
10.4315
  0
VERTEX
  8
LAYER1
 62
     7
  6
CONTINUOUS
 10
6.1416
 20
10.4315
  0
VERTEX
  8
LAYER1
 62
     7
  6
CONTINUOUS
 10
6.1409
 20
10.4315
  0
VERTEX
  8
LAYER1
 62
     7
  6
CONTINUOUS
 10
6.1404
 20
10.4315
  0
VERTEX
  8
LAYER1
 62
     7
  6
CONTINUOUS
 10
6.1399
 20
10.4315
  0
VERTEX
  8
LAYER1
 62
     7
  6
CONTINUOUS
 10
6.1396
 20
10.4315
  0
VERTEX
  8
LAYER1
 62
     7
  6
CONTINUOUS
 10
6.1395
 20
10.4315
  0
VERTEX
  8
LAYER1
 62
     7
  6
CONTINUOUS
 10
6.1394
 20
10.4315
  0
VERTEX
  8
LAYER1
 62
     7
  6
CONTINUOUS
 10
6.1394
 20
10.4315
  0
VERTEX
  8
LAYER1
 62
     7
  6
CONTINUOUS
 10
6.1393
 20
10.4315
  0
VERTEX
  8
LAYER1
 62
     7
  6
CONTINUOUS
 10
6.1393
 20
10.4315
  0
VERTEX
  8
LAYER1
 62
     7
  6
CONTINUOUS
 10
6.1393
 20
10.4315
  0
VERTEX
  8
LAYER1
 62
     7
  6
CONTINUOUS
 10
6.1394
 20
10.4315
  0
VERTEX
  8
LAYER1
 62
     7
  6
CONTINUOUS
 10
6.1394
 20
10.4315
  0
VERTEX
  8
LAYER1
 62
     7
  6
CONTINUOUS
 10
6.1394
 20
10.4315
  0
VERTEX
  8
LAYER1
 62
     7
  6
CONTINUOUS
 10
6.1395
 20
10.4315
  0
VERTEX
  8
LAYER1
 62
     7
  6
CONTINUOUS
 10
6.1396
 20
10.4315
  0
VERTEX
  8
LAYER1
 62
     7
  6
CONTINUOUS
 10
6.1396
 20
10.4315
  0
SEQEND
  8
LAYER1
  0
POLYLINE
  8
LAYER1
 62
     7
 66
     1
  6
CONTINUOUS
  0
VERTEX
  8
LAYER1
 62
     7
  6
CONTINUOUS
 10
6.1396
 20
10.4315
  0
VERTEX
  8
LAYER1
 62
     7
  6
CONTINUOUS
 10
6.1396
 20
10.4315
  0
VERTEX
  8
LAYER1
 62
     7
  6
CONTINUOUS
 10
6.1396
 20
10.4315
  0
VERTEX
  8
LAYER1
 62
     7
  6
CONTINUOUS
 10
6.1396
 20
10.4315
  0
VERTEX
  8
LAYER1
 62
     7
  6
CONTINUOUS
 10
6.1396
 20
10.4315
  0
VERTEX
  8
LAYER1
 62
     7
  6
CONTINUOUS
 10
6.1396
 20
10.4315
  0
VERTEX
  8
LAYER1
 62
     7
  6
CONTINUOUS
 10
6.1396
 20
10.4315
  0
VERTEX
  8
LAYER1
 62
     7
  6
CONTINUOUS
 10
6.1396
 20
10.4315
  0
VERTEX
  8
LAYER1
 62
     7
  6
CONTINUOUS
 10
6.1396
 20
10.4315
  0
VERTEX
  8
LAYER1
 62
     7
  6
CONTINUOUS
 10
6.1396
 20
10.4315
  0
VERTEX
  8
LAYER1
 62
     7
  6
CONTINUOUS
 10
6.1396
 20
10.4315
  0
VERTEX
  8
LAYER1
 62
     7
  6
CONTINUOUS
 10
6.1396
 20
10.4315
  0
VERTEX
  8
LAYER1
 62
     7
  6
CONTINUOUS
 10
6.1396
 20
10.4315
  0
VERTEX
  8
LAYER1
 62
     7
  6
CONTINUOUS
 10
6.1396
 20
10.4315
  0
VERTEX
  8
LAYER1
 62
     7
  6
CONTINUOUS
 10
6.1396
 20
10.4315
  0
VERTEX
  8
LAYER1
 62
     7
  6
CONTINUOUS
 10
6.1396
 20
10.4315
  0
VERTEX
  8
LAYER1
 62
     7
  6
CONTINUOUS
 10
6.1396
 20
10.4315
  0
VERTEX
  8
LAYER1
 62
     7
  6
CONTINUOUS
 10
6.1396
 20
10.4315
  0
VERTEX
  8
LAYER1
 62
     7
  6
CONTINUOUS
 10
6.1396
 20
10.4315
  0
VERTEX
  8
LAYER1
 62
     7
  6
CONTINUOUS
 10
6.1396
 20
10.4315
  0
VERTEX
  8
LAYER1
 62
     7
  6
CONTINUOUS
 10
6.1396
 20
10.4315
  0
VERTEX
  8
LAYER1
 62
     7
  6
CONTINUOUS
 10
6.1396
 20
10.4315
  0
VERTEX
  8
LAYER1
 62
     7
  6
CONTINUOUS
 10
6.1396
 20
10.4315
  0
VERTEX
  8
LAYER1
 62
     7
  6
CONTINUOUS
 10
6.1396
 20
10.4315
  0
VERTEX
  8
LAYER1
 62
     7
  6
CONTINUOUS
 10
6.1396
 20
10.4315
  0
SEQEND
  8
LAYER1
  0
POLYLINE
  8
LAYER1
 62
     7
 66
     1
  6
CONTINUOUS
  0
VERTEX
  8
LAYER1
 62
     7
  6
CONTINUOUS
 10
6.6507
 20
10.4315
  0
VERTEX
  8
LAYER1
 62
     7
  6
CONTINUOUS
 10
6.6506
 20
10.4306
  0
VERTEX
  8
LAYER1
 62
     7
  6
CONTINUOUS
 10
6.6504
 20
10.4297
  0
VERTEX
  8
LAYER1
 62
     7
  6
CONTINUOUS
 10
6.6503
 20
10.4289
  0
VERTEX
  8
LAYER1
 62
     7
  6
CONTINUOUS
 10
6.6502
 20
10.4280
  0
VERTEX
  8
LAYER1
 62
     7
  6
CONTINUOUS
 10
6.6500
 20
10.4271
  0
VERTEX
  8
LAYER1
 62
     7
  6
CONTINUOUS
 10
6.6499
 20
10.4263
  0
VERTEX
  8
LAYER1
 62
     7
  6
CONTINUOUS
 10
6.6497
 20
10.4254
  0
VERTEX
  8
LAYER1
 62
     7
  6
CONTINUOUS
 10
6.6496
 20
10.4245
  0
VERTEX
  8
LAYER1
 62
     7
  6
CONTINUOUS
 10
6.6494
 20
10.4236
  0
VERTEX
  8
LAYER1
 62
     7
  6
CONTINUOUS
 10
6.6492
 20
10.4228
  0
VERTEX
  8
LAYER1
 62
     7
  6
CONTINUOUS
 10
6.6491
 20
10.4219
  0
VERTEX
  8
LAYER1
 62
     7
  6
CONTINUOUS
 10
6.6489
 20
10.4210
  0
VERTEX
  8
LAYER1
 62
     7
  6
CONTINUOUS
 10
6.6483
 20
10.4177
  0
VERTEX
  8
LAYER1
 62
     7
  6
CONTINUOUS
 10
6.6476
 20
10.4143
  0
VERTEX
  8
LAYER1
 62
     7
  6
CONTINUOUS
 10
6.6469
 20
10.4110
  0
VERTEX
  8
LAYER1
 62
     7
  6
CONTINUOUS
 10
6.6462
 20
10.4077
  0
VERTEX
  8
LAYER1
 62
     7
  6
CONTINUOUS
 10
6.6454
 20
10.4043
  0
VERTEX
  8
LAYER1
 62
     7
  6
CONTINUOUS
 10
6.6446
 20
10.4010
  0
VERTEX
  8
LAYER1
 62
     7
  6
CONTINUOUS
 10
6.6438
 20
10.3977
  0
VERTEX
  8
LAYER1
 62
     7
  6
CONTINUOUS
 10
6.6430
 20
10.3944
  0
VERTEX
  8
LAYER1
 62
     7
  6
CONTINUOUS
 10
6.6421
 20
10.3910
  0
VERTEX
  8
LAYER1
 62
     7
  6
CONTINUOUS
 10
6.6412
 20
10.3877
  0
VERTEX
  8
LAYER1
 62
     7
  6
CONTINUOUS
 10
6.6403
 20
10.3844
  0
VERTEX
  8
LAYER1
 62
     7
  6
CONTINUOUS
 10
6.6394
 20
10.3811
  0
VERTEX
  8
LAYER1
 62
     7
  6
CONTINUOUS
 10
6.6387
 20
10.3786
  0
VERTEX
  8
LAYER1
 62
     7
  6
CONTINUOUS
 10
6.6380
 20
10.3761
  0
VERTEX
  8
LAYER1
 62
     7
  6
CONTINUOUS
 10
6.6373
 20
10.3735
  0
VERTEX
  8
LAYER1
 62
     7
  6
CONTINUOUS
 10
6.6365
 20
10.3710
  0
VERTEX
  8
LAYER1
 62
     7
  6
CONTINUOUS
 10
6.6357
 20
10.3685
  0
VERTEX
  8
LAYER1
 62
     7
  6
CONTINUOUS
 10
6.6350
 20
10.3660
  0
VERTEX
  8
LAYER1
 62
     7
  6
CONTINUOUS
 10
6.6342
 20
10.3635
  0
VERTEX
  8
LAYER1
 62
     7
  6
CONTINUOUS
 10
6.6333
 20
10.3610
  0
VERTEX
  8
LAYER1
 62
     7
  6
CONTINUOUS
 10
6.6325
 20
10.3585
  0
VERTEX
  8
LAYER1
 62
     7
  6
CONTINUOUS
 10
6.6316
 20
10.3560
  0
VERTEX
  8
LAYER1
 62
     7
  6
CONTINUOUS
 10
6.6307
 20
10.3536
  0
VERTEX
  8
LAYER1
 62
     7
  6
CONTINUOUS
 10
6.6298
 20
10.3511
  0
VERTEX
  8
LAYER1
 62
     7
  6
CONTINUOUS
 10
6.6283
 20
10.3473
  0
VERTEX
  8
LAYER1
 62
     7
  6
CONTINUOUS
 10
6.6267
 20
10.3436
  0
VERTEX
  8
LAYER1
 62
     7
  6
CONTINUOUS
 10
6.6251
 20
10.3399
  0
VERTEX
  8
LAYER1
 62
     7
  6
CONTINUOUS
 10
6.6235
 20
10.3361
  0
VERTEX
  8
LAYER1
 62
     7
  6
CONTINUOUS
 10
6.6218
 20
10.3324
  0
VERTEX
  8
LAYER1
 62
     7
  6
CONTINUOUS
 10
6.6201
 20
10.3287
  0
VERTEX
  8
LAYER1
 62
     7
  6
CONTINUOUS
 10
6.6184
 20
10.3250
  0
VERTEX
  8
LAYER1
 62
     7
  6
CONTINUOUS
 10
6.6167
 20
10.3213
  0
VERTEX
  8
LAYER1
 62
     7
  6
CONTINUOUS
 10
6.6151
 20
10.3175
  0
VERTEX
  8
LAYER1
 62
     7
  6
CONTINUOUS
 10
6.6134
 20
10.3138
  0
VERTEX
  8
LAYER1
 62
     7
  6
CONTINUOUS
 10
6.6119
 20
10.3100
  0
VERTEX
  8
LAYER1
 62
     7
  6
CONTINUOUS
 10
6.6104
 20
10.3061
  0
VERTEX
  8
LAYER1
 62
     7
  6
CONTINUOUS
 10
6.6093
 20
10.3031
  0
VERTEX
  8
LAYER1
 62
     7
  6
CONTINUOUS
 10
6.6082
 20
10.3001
  0
VERTEX
  8
LAYER1
 62
     7
  6
CONTINUOUS
 10
6.6071
 20
10.2971
  0
VERTEX
  8
LAYER1
 62
     7
  6
CONTINUOUS
 10
6.6060
 20
10.2941
  0
VERTEX
  8
LAYER1
 62
     7
  6
CONTINUOUS
 10
6.6050
 20
10.2911
  0
VERTEX
  8
LAYER1
 62
     7
  6
CONTINUOUS
 10
6.6039
 20
10.2881
  0
VERTEX
  8
LAYER1
 62
     7
  6
CONTINUOUS
 10
6.6027
 20
10.2851
  0
VERTEX
  8
LAYER1
 62
     7
  6
CONTINUOUS
 10
6.6015
 20
10.2822
  0
VERTEX
  8
LAYER1
 62
     7
  6
CONTINUOUS
 10
6.6002
 20
10.2794
  0
VERTEX
  8
LAYER1
 62
     7
  6
CONTINUOUS
 10
6.5989
 20
10.2765
  0
VERTEX
  8
LAYER1
 62
     7
  6
CONTINUOUS
 10
6.5974
 20
10.2738
  0
VERTEX
  8
LAYER1
 62
     7
  6
CONTINUOUS
 10
6.5958
 20
10.2711
  0
VERTEX
  8
LAYER1
 62
     7
  6
CONTINUOUS
 10
6.5934
 20
10.2675
  0
VERTEX
  8
LAYER1
 62
     7
  6
CONTINUOUS
 10
6.5908
 20
10.2641
  0
VERTEX
  8
LAYER1
 62
     7
  6
CONTINUOUS
 10
6.5879
 20
10.2608
  0
VERTEX
  8
LAYER1
 62
     7
  6
CONTINUOUS
 10
6.5849
 20
10.2576
  0
VERTEX
  8
LAYER1
 62
     7
  6
CONTINUOUS
 10
6.5816
 20
10.2546
  0
VERTEX
  8
LAYER1
 62
     7
  6
CONTINUOUS
 10
6.5783
 20
10.2516
  0
VERTEX
  8
LAYER1
 62
     7
  6
CONTINUOUS
 10
6.5748
 20
10.2488
  0
VERTEX
  8
LAYER1
 62
     7
  6
CONTINUOUS
 10
6.5712
 20
10.2461
  0
VERTEX
  8
LAYER1
 62
     7
  6
CONTINUOUS
 10
6.5676
 20
10.2434
  0
VERTEX
  8
LAYER1
 62
     7
  6
CONTINUOUS
 10
6.5639
 20
10.2408
  0
VERTEX
  8
LAYER1
 62
     7
  6
CONTINUOUS
 10
6.5601
 20
10.2383
  0
VERTEX
  8
LAYER1
 62
     7
  6
CONTINUOUS
 10
6.5564
 20
10.2358
  0
VERTEX
  8
LAYER1
 62
     7
  6
CONTINUOUS
 10
6.5543
 20
10.2345
  0
VERTEX
  8
LAYER1
 62
     7
  6
CONTINUOUS
 10
6.5523
 20
10.2332
  0
VERTEX
  8
LAYER1
 62
     7
  6
CONTINUOUS
 10
6.5502
 20
10.2319
  0
VERTEX
  8
LAYER1
 62
     7
  6
CONTINUOUS
 10
6.5482
 20
10.2306
  0
VERTEX
  8
LAYER1
 62
     7
  6
CONTINUOUS
 10
6.5461
 20
10.2293
  0
VERTEX
  8
LAYER1
 62
     7
  6
CONTINUOUS
 10
6.5441
 20
10.2280
  0
VERTEX
  8
LAYER1
 62
     7
  6
CONTINUOUS
 10
6.5420
 20
10.2267
  0
VERTEX
  8
LAYER1
 62
     7
  6
CONTINUOUS
 10
6.5400
 20
10.2255
  0
VERTEX
  8
LAYER1
 62
     7
  6
CONTINUOUS
 10
6.5379
 20
10.2243
  0
VERTEX
  8
LAYER1
 62
     7
  6
CONTINUOUS
 10
6.5358
 20
10.2230
  0
VERTEX
  8
LAYER1
 62
     7
  6
CONTINUOUS
 10
6.5338
 20
10.2218
  0
VERTEX
  8
LAYER1
 62
     7
  6
CONTINUOUS
 10
6.5317
 20
10.2206
  0
VERTEX
  8
LAYER1
 62
     7
  6
CONTINUOUS
 10
6.5288
 20
10.2190
  0
VERTEX
  8
LAYER1
 62
     7
  6
CONTINUOUS
 10
6.5258
 20
10.2174
  0
VERTEX
  8
LAYER1
 62
     7
  6
CONTINUOUS
 10
6.5229
 20
10.2158
  0
VERTEX
  8
LAYER1
 62
     7
  6
CONTINUOUS
 10
6.5200
 20
10.2142
  0
VERTEX
  8
LAYER1
 62
     7
  6
CONTINUOUS
 10
6.5170
 20
10.2125
  0
VERTEX
  8
LAYER1
 62
     7
  6
CONTINUOUS
 10
6.5141
 20
10.2109
  0
VERTEX
  8
LAYER1
 62
     7
  6
CONTINUOUS
 10
6.5112
 20
10.2093
  0
VERTEX
  8
LAYER1
 62
     7
  6
CONTINUOUS
 10
6.5083
 20
10.2076
  0
VERTEX
  8
LAYER1
 62
     7
  6
CONTINUOUS
 10
6.5054
 20
10.2058
  0
VERTEX
  8
LAYER1
 62
     7
  6
CONTINUOUS
 10
6.5026
 20
10.2041
  0
VERTEX
  8
LAYER1
 62
     7
  6
CONTINUOUS
 10
6.4998
 20
10.2022
  0
VERTEX
  8
LAYER1
 62
     7
  6
CONTINUOUS
 10
6.4970
 20
10.2003
  0
VERTEX
  8
LAYER1
 62
     7
  6
CONTINUOUS
 10
6.4937
 20
10.1979
  0
VERTEX
  8
LAYER1
 62
     7
  6
CONTINUOUS
 10
6.4904
 20
10.1953
  0
VERTEX
  8
LAYER1
 62
     7
  6
CONTINUOUS
 10
6.4871
 20
10.1927
  0
VERTEX
  8
LAYER1
 62
     7
  6
CONTINUOUS
 10
6.4839
 20
10.1901
  0
VERTEX
  8
LAYER1
 62
     7
  6
CONTINUOUS
 10
6.4807
 20
10.1874
  0
VERTEX
  8
LAYER1
 62
     7
  6
CONTINUOUS
 10
6.4775
 20
10.1847
  0
VERTEX
  8
LAYER1
 62
     7
  6
CONTINUOUS
 10
6.4743
 20
10.1821
  0
VERTEX
  8
LAYER1
 62
     7
  6
CONTINUOUS
 10
6.4711
 20
10.1795
  0
VERTEX
  8
LAYER1
 62
     7
  6
CONTINUOUS
 10
6.4678
 20
10.1770
  0
VERTEX
  8
LAYER1
 62
     7
  6
CONTINUOUS
 10
6.4645
 20
10.1745
  0
VERTEX
  8
LAYER1
 62
     7
  6
CONTINUOUS
 10
6.4610
 20
10.1722
  0
VERTEX
  8
LAYER1
 62
     7
  6
CONTINUOUS
 10
6.4575
 20
10.1700
  0
VERTEX
  8
LAYER1
 62
     7
  6
CONTINUOUS
 10
6.4556
 20
10.1689
  0
VERTEX
  8
LAYER1
 62
     7
  6
CONTINUOUS
 10
6.4537
 20
10.1678
  0
VERTEX
  8
LAYER1
 62
     7
  6
CONTINUOUS
 10
6.4517
 20
10.1668
  0
VERTEX
  8
LAYER1
 62
     7
  6
CONTINUOUS
 10
6.4497
 20
10.1659
  0
VERTEX
  8
LAYER1
 62
     7
  6
CONTINUOUS
 10
6.4476
 20
10.1649
  0
VERTEX
  8
LAYER1
 62
     7
  6
CONTINUOUS
 10
6.4456
 20
10.1641
  0
VERTEX
  8
LAYER1
 62
     7
  6
CONTINUOUS
 10
6.4435
 20
10.1632
  0
VERTEX
  8
LAYER1
 62
     7
  6
CONTINUOUS
 10
6.4414
 20
10.1625
  0
VERTEX
  8
LAYER1
 62
     7
  6
CONTINUOUS
 10
6.4393
 20
10.1617
  0
VERTEX
  8
LAYER1
 62
     7
  6
CONTINUOUS
 10
6.4371
 20
10.1610
  0
VERTEX
  8
LAYER1
 62
     7
  6
CONTINUOUS
 10
6.4350
 20
10.1604
  0
VERTEX
  8
LAYER1
 62
     7
  6
CONTINUOUS
 10
6.4328
 20
10.1598
  0
VERTEX
  8
LAYER1
 62
     7
  6
CONTINUOUS
 10
6.4295
 20
10.1590
  0
VERTEX
  8
LAYER1
 62
     7
  6
CONTINUOUS
 10
6.4262
 20
10.1583
  0
VERTEX
  8
LAYER1
 62
     7
  6
CONTINUOUS
 10
6.4228
 20
10.1578
  0
VERTEX
  8
LAYER1
 62
     7
  6
CONTINUOUS
 10
6.4195
 20
10.1573
  0
VERTEX
  8
LAYER1
 62
     7
  6
CONTINUOUS
 10
6.4161
 20
10.1570
  0
VERTEX
  8
LAYER1
 62
     7
  6
CONTINUOUS
 10
6.4128
 20
10.1569
  0
VERTEX
  8
LAYER1
 62
     7
  6
CONTINUOUS
 10
6.4094
 20
10.1569
  0
VERTEX
  8
LAYER1
 62
     7
  6
CONTINUOUS
 10
6.4061
 20
10.1570
  0
VERTEX
  8
LAYER1
 62
     7
  6
CONTINUOUS
 10
6.4027
 20
10.1573
  0
VERTEX
  8
LAYER1
 62
     7
  6
CONTINUOUS
 10
6.3994
 20
10.1578
  0
VERTEX
  8
LAYER1
 62
     7
  6
CONTINUOUS
 10
6.3962
 20
10.1585
  0
VERTEX
  8
LAYER1
 62
     7
  6
CONTINUOUS
 10
6.3929
 20
10.1594
  0
VERTEX
  8
LAYER1
 62
     7
  6
CONTINUOUS
 10
6.3917
 20
10.1597
  0
VERTEX
  8
LAYER1
 62
     7
  6
CONTINUOUS
 10
6.3904
 20
10.1602
  0
VERTEX
  8
LAYER1
 62
     7
  6
CONTINUOUS
 10
6.3892
 20
10.1606
  0
VERTEX
  8
LAYER1
 62
     7
  6
CONTINUOUS
 10
6.3879
 20
10.1610
  0
VERTEX
  8
LAYER1
 62
     7
  6
CONTINUOUS
 10
6.3867
 20
10.1615
  0
VERTEX
  8
LAYER1
 62
     7
  6
CONTINUOUS
 10
6.3854
 20
10.1619
  0
VERTEX
  8
LAYER1
 62
     7
  6
CONTINUOUS
 10
6.3842
 20
10.1624
  0
VERTEX
  8
LAYER1
 62
     7
  6
CONTINUOUS
 10
6.3830
 20
10.1628
  0
VERTEX
  8
LAYER1
 62
     7
  6
CONTINUOUS
 10
6.3817
 20
10.1632
  0
VERTEX
  8
LAYER1
 62
     7
  6
CONTINUOUS
 10
6.3805
 20
10.1635
  0
VERTEX
  8
LAYER1
 62
     7
  6
CONTINUOUS
 10
6.3792
 20
10.1639
  0
VERTEX
  8
LAYER1
 62
     7
  6
CONTINUOUS
 10
6.3780
 20
10.1642
  0
VERTEX
  8
LAYER1
 62
     7
  6
CONTINUOUS
 10
6.3747
 20
10.1647
  0
VERTEX
  8
LAYER1
 62
     7
  6
CONTINUOUS
 10
6.3715
 20
10.1650
  0
VERTEX
  8
LAYER1
 62
     7
  6
CONTINUOUS
 10
6.3682
 20
10.1650
  0
VERTEX
  8
LAYER1
 62
     7
  6
CONTINUOUS
 10
6.3649
 20
10.1649
  0
VERTEX
  8
LAYER1
 62
     7
  6
CONTINUOUS
 10
6.3616
 20
10.1647
  0
VERTEX
  8
LAYER1
 62
     7
  6
CONTINUOUS
 10
6.3582
 20
10.1644
  0
VERTEX
  8
LAYER1
 62
     7
  6
CONTINUOUS
 10
6.3549
 20
10.1641
  0
VERTEX
  8
LAYER1
 62
     7
  6
CONTINUOUS
 10
6.3515
 20
10.1638
  0
VERTEX
  8
LAYER1
 62
     7
  6
CONTINUOUS
 10
6.3481
 20
10.1636
  0
VERTEX
  8
LAYER1
 62
     7
  6
CONTINUOUS
 10
6.3448
 20
10.1634
  0
VERTEX
  8
LAYER1
 62
     7
  6
CONTINUOUS
 10
6.3415
 20
10.1635
  0
VERTEX
  8
LAYER1
 62
     7
  6
CONTINUOUS
 10
6.3381
 20
10.1637
  0
VERTEX
  8
LAYER1
 62
     7
  6
CONTINUOUS
 10
6.3355
 20
10.1641
  0
VERTEX
  8
LAYER1
 62
     7
  6
CONTINUOUS
 10
6.3329
 20
10.1646
  0
VERTEX
  8
LAYER1
 62
     7
  6
CONTINUOUS
 10
6.3304
 20
10.1653
  0
VERTEX
  8
LAYER1
 62
     7
  6
CONTINUOUS
 10
6.3278
 20
10.1660
  0
VERTEX
  8
LAYER1
 62
     7
  6
CONTINUOUS
 10
6.3253
 20
10.1668
  0
VERTEX
  8
LAYER1
 62
     7
  6
CONTINUOUS
 10
6.3228
 20
10.1677
  0
VERTEX
  8
LAYER1
 62
     7
  6
CONTINUOUS
 10
6.3203
 20
10.1686
  0
VERTEX
  8
LAYER1
 62
     7
  6
CONTINUOUS
 10
6.3178
 20
10.1696
  0
VERTEX
  8
LAYER1
 62
     7
  6
CONTINUOUS
 10
6.3154
 20
10.1706
  0
VERTEX
  8
LAYER1
 62
     7
  6
CONTINUOUS
 10
6.3129
 20
10.1715
  0
VERTEX
  8
LAYER1
 62
     7
  6
CONTINUOUS
 10
6.3105
 20
10.1725
  0
VERTEX
  8
LAYER1
 62
     7
  6
CONTINUOUS
 10
6.3082
 20
10.1733
  0
VERTEX
  8
LAYER1
 62
     7
  6
CONTINUOUS
 10
6.3059
 20
10.1741
  0
VERTEX
  8
LAYER1
 62
     7
  6
CONTINUOUS
 10
6.3036
 20
10.1749
  0
VERTEX
  8
LAYER1
 62
     7
  6
CONTINUOUS
 10
6.3014
 20
10.1755
  0
VERTEX
  8
LAYER1
 62
     7
  6
CONTINUOUS
 10
6.2991
 20
10.1761
  0
VERTEX
  8
LAYER1
 62
     7
  6
CONTINUOUS
 10
6.2968
 20
10.1766
  0
VERTEX
  8
LAYER1
 62
     7
  6
CONTINUOUS
 10
6.2944
 20
10.1771
  0
VERTEX
  8
LAYER1
 62
     7
  6
CONTINUOUS
 10
6.2920
 20
10.1774
  0
VERTEX
  8
LAYER1
 62
     7
  6
CONTINUOUS
 10
6.2894
 20
10.1777
  0
VERTEX
  8
LAYER1
 62
     7
  6
CONTINUOUS
 10
6.2868
 20
10.1779
  0
VERTEX
  8
LAYER1
 62
     7
  6
CONTINUOUS
 10
6.2841
 20
10.1780
  0
VERTEX
  8
LAYER1
 62
     7
  6
CONTINUOUS
 10
6.2812
 20
10.1781
  0
VERTEX
  8
LAYER1
 62
     7
  6
CONTINUOUS
 10
6.2782
 20
10.1780
  0
VERTEX
  8
LAYER1
 62
     7
  6
CONTINUOUS
 10
6.2741
 20
10.1778
  0
VERTEX
  8
LAYER1
 62
     7
  6
CONTINUOUS
 10
6.2697
 20
10.1775
  0
VERTEX
  8
LAYER1
 62
     7
  6
CONTINUOUS
 10
6.2653
 20
10.1770
  0
VERTEX
  8
LAYER1
 62
     7
  6
CONTINUOUS
 10
6.2608
 20
10.1765
  0
VERTEX
  8
LAYER1
 62
     7
  6
CONTINUOUS
 10
6.2566
 20
10.1759
  0
VERTEX
  8
LAYER1
 62
     7
  6
CONTINUOUS
 10
6.2525
 20
10.1753
  0
VERTEX
  8
LAYER1
 62
     7
  6
CONTINUOUS
 10
6.2488
 20
10.1747
  0
VERTEX
  8
LAYER1
 62
     7
  6
CONTINUOUS
 10
6.2455
 20
10.1741
  0
VERTEX
  8
LAYER1
 62
     7
  6
CONTINUOUS
 10
6.2427
 20
10.1736
  0
VERTEX
  8
LAYER1
 62
     7
  6
CONTINUOUS
 10
6.2405
 20
10.1731
  0
VERTEX
  8
LAYER1
 62
     7
  6
CONTINUOUS
 10
6.2391
 20
10.1728
  0
VERTEX
  8
LAYER1
 62
     7
  6
CONTINUOUS
 10
6.2385
 20
10.1726
  0
VERTEX
  8
LAYER1
 62
     7
  6
CONTINUOUS
 10
6.2385
 20
10.1726
  0
VERTEX
  8
LAYER1
 62
     7
  6
CONTINUOUS
 10
6.2385
 20
10.1726
  0
VERTEX
  8
LAYER1
 62
     7
  6
CONTINUOUS
 10
6.2385
 20
10.1726
  0
VERTEX
  8
LAYER1
 62
     7
  6
CONTINUOUS
 10
6.2385
 20
10.1726
  0
VERTEX
  8
LAYER1
 62
     7
  6
CONTINUOUS
 10
6.2385
 20
10.1725
  0
VERTEX
  8
LAYER1
 62
     7
  6
CONTINUOUS
 10
6.2385
 20
10.1725
  0
VERTEX
  8
LAYER1
 62
     7
  6
CONTINUOUS
 10
6.2385
 20
10.1725
  0
VERTEX
  8
LAYER1
 62
     7
  6
CONTINUOUS
 10
6.2385
 20
10.1726
  0
VERTEX
  8
LAYER1
 62
     7
  6
CONTINUOUS
 10
6.2385
 20
10.1726
  0
VERTEX
  8
LAYER1
 62
     7
  6
CONTINUOUS
 10
6.2385
 20
10.1726
  0
VERTEX
  8
LAYER1
 62
     7
  6
CONTINUOUS
 10
6.2385
 20
10.1726
  0
VERTEX
  8
LAYER1
 62
     7
  6
CONTINUOUS
 10
6.2385
 20
10.1726
  0
VERTEX
  8
LAYER1
 62
     7
  6
CONTINUOUS
 10
6.2379
 20
10.1728
  0
VERTEX
  8
LAYER1
 62
     7
  6
CONTINUOUS
 10
6.2368
 20
10.1731
  0
VERTEX
  8
LAYER1
 62
     7
  6
CONTINUOUS
 10
6.2351
 20
10.1735
  0
VERTEX
  8
LAYER1
 62
     7
  6
CONTINUOUS
 10
6.2330
 20
10.1741
  0
VERTEX
  8
LAYER1
 62
     7
  6
CONTINUOUS
 10
6.2305
 20
10.1748
  0
VERTEX
  8
LAYER1
 62
     7
  6
CONTINUOUS
 10
6.2276
 20
10.1755
  0
VERTEX
  8
LAYER1
 62
     7
  6
CONTINUOUS
 10
6.2246
 20
10.1764
  0
VERTEX
  8
LAYER1
 62
     7
  6
CONTINUOUS
 10
6.2214
 20
10.1774
  0
VERTEX
  8
LAYER1
 62
     7
  6
CONTINUOUS
 10
6.2181
 20
10.1785
  0
VERTEX
  8
LAYER1
 62
     7
  6
CONTINUOUS
 10
6.2148
 20
10.1797
  0
VERTEX
  8
LAYER1
 62
     7
  6
CONTINUOUS
 10
6.2116
 20
10.1809
  0
VERTEX
  8
LAYER1
 62
     7
  6
CONTINUOUS
 10
6.2085
 20
10.1822
  0
VERTEX
  8
LAYER1
 62
     7
  6
CONTINUOUS
 10
6.2052
 20
10.1838
  0
VERTEX
  8
LAYER1
 62
     7
  6
CONTINUOUS
 10
6.2022
 20
10.1854
  0
VERTEX
  8
LAYER1
 62
     7
  6
CONTINUOUS
 10
6.1994
 20
10.1871
  0
VERTEX
  8
LAYER1
 62
     7
  6
CONTINUOUS
 10
6.1967
 20
10.1889
  0
VERTEX
  8
LAYER1
 62
     7
  6
CONTINUOUS
 10
6.1943
 20
10.1906
  0
VERTEX
  8
LAYER1
 62
     7
  6
CONTINUOUS
 10
6.1919
 20
10.1924
  0
VERTEX
  8
LAYER1
 62
     7
  6
CONTINUOUS
 10
6.1896
 20
10.1941
  0
VERTEX
  8
LAYER1
 62
     7
  6
CONTINUOUS
 10
6.1874
 20
10.1958
  0
VERTEX
  8
LAYER1
 62
     7
  6
CONTINUOUS
 10
6.1852
 20
10.1974
  0
VERTEX
  8
LAYER1
 62
     7
  6
CONTINUOUS
 10
6.1830
 20
10.1990
  0
VERTEX
  8
LAYER1
 62
     7
  6
CONTINUOUS
 10
6.1807
 20
10.2004
  0
VERTEX
  8
LAYER1
 62
     7
  6
CONTINUOUS
 10
6.1784
 20
10.2018
  0
VERTEX
  8
LAYER1
 62
     7
  6
CONTINUOUS
 10
6.1765
 20
10.2028
  0
VERTEX
  8
LAYER1
 62
     7
  6
CONTINUOUS
 10
6.1745
 20
10.2038
  0
VERTEX
  8
LAYER1
 62
     7
  6
CONTINUOUS
 10
6.1724
 20
10.2047
  0
VERTEX
  8
LAYER1
 62
     7
  6
CONTINUOUS
 10
6.1703
 20
10.2056
  0
VERTEX
  8
LAYER1
 62
     7
  6
CONTINUOUS
 10
6.1682
 20
10.2066
  0
VERTEX
  8
LAYER1
 62
     7
  6
CONTINUOUS
 10
6.1660
 20
10.2076
  0
VERTEX
  8
LAYER1
 62
     7
  6
CONTINUOUS
 10
6.1639
 20
10.2087
  0
VERTEX
  8
LAYER1
 62
     7
  6
CONTINUOUS
 10
6.1617
 20
10.2099
  0
VERTEX
  8
LAYER1
 62
     7
  6
CONTINUOUS
 10
6.1596
 20
10.2113
  0
VERTEX
  8
LAYER1
 62
     7
  6
CONTINUOUS
 10
6.1575
 20
10.2128
  0
VERTEX
  8
LAYER1
 62
     7
  6
CONTINUOUS
 10
6.1554
 20
10.2145
  0
VERTEX
  8
LAYER1
 62
     7
  6
CONTINUOUS
 10
6.1534
 20
10.2164
  0
VERTEX
  8
LAYER1
 62
     7
  6
CONTINUOUS
 10
6.1506
 20
10.2195
  0
VERTEX
  8
LAYER1
 62
     7
  6
CONTINUOUS
 10
6.1480
 20
10.2229
  0
VERTEX
  8
LAYER1
 62
     7
  6
CONTINUOUS
 10
6.1455
 20
10.2265
  0
VERTEX
  8
LAYER1
 62
     7
  6
CONTINUOUS
 10
6.1432
 20
10.2303
  0
VERTEX
  8
LAYER1
 62
     7
  6
CONTINUOUS
 10
6.1410
 20
10.2341
  0
VERTEX
  8
LAYER1
 62
     7
  6
CONTINUOUS
 10
6.1391
 20
10.2378
  0
VERTEX
  8
LAYER1
 62
     7
  6
CONTINUOUS
 10
6.1374
 20
10.2412
  0
VERTEX
  8
LAYER1
 62
     7
  6
CONTINUOUS
 10
6.1359
 20
10.2443
  0
VERTEX
  8
LAYER1
 62
     7
  6
CONTINUOUS
 10
6.1348
 20
10.2470
  0
VERTEX
  8
LAYER1
 62
     7
  6
CONTINUOUS
 10
6.1339
 20
10.2491
  0
VERTEX
  8
LAYER1
 62
     7
  6
CONTINUOUS
 10
6.1333
 20
10.2505
  0
VERTEX
  8
LAYER1
 62
     7
  6
CONTINUOUS
 10
6.1331
 20
10.2511
  0
VERTEX
  8
LAYER1
 62
     7
  6
CONTINUOUS
 10
6.1331
 20
10.2511
  0
VERTEX
  8
LAYER1
 62
     7
  6
CONTINUOUS
 10
6.1331
 20
10.2511
  0
VERTEX
  8
LAYER1
 62
     7
  6
CONTINUOUS
 10
6.1331
 20
10.2511
  0
VERTEX
  8
LAYER1
 62
     7
  6
CONTINUOUS
 10
6.1331
 20
10.2511
  0
VERTEX
  8
LAYER1
 62
     7
  6
CONTINUOUS
 10
6.1331
 20
10.2511
  0
VERTEX
  8
LAYER1
 62
     7
  6
CONTINUOUS
 10
6.1331
 20
10.2510
  0
VERTEX
  8
LAYER1
 62
     7
  6
CONTINUOUS
 10
6.1331
 20
10.2510
  0
VERTEX
  8
LAYER1
 62
     7
  6
CONTINUOUS
 10
6.1331
 20
10.2510
  0
VERTEX
  8
LAYER1
 62
     7
  6
CONTINUOUS
 10
6.1331
 20
10.2510
  0
VERTEX
  8
LAYER1
 62
     7
  6
CONTINUOUS
 10
6.1331
 20
10.2510
  0
VERTEX
  8
LAYER1
 62
     7
  6
CONTINUOUS
 10
6.1331
 20
10.2510
  0
VERTEX
  8
LAYER1
 62
     7
  6
CONTINUOUS
 10
6.1331
 20
10.2511
  0
VERTEX
  8
LAYER1
 62
     7
  6
CONTINUOUS
 10
6.1329
 20
10.2515
  0
VERTEX
  8
LAYER1
 62
     7
  6
CONTINUOUS
 10
6.1325
 20
10.2525
  0
VERTEX
  8
LAYER1
 62
     7
  6
CONTINUOUS
 10
6.1319
 20
10.2538
  0
VERTEX
  8
LAYER1
 62
     7
  6
CONTINUOUS
 10
6.1313
 20
10.2555
  0
VERTEX
  8
LAYER1
 62
     7
  6
CONTINUOUS
 10
6.1304
 20
10.2576
  0
VERTEX
  8
LAYER1
 62
     7
  6
CONTINUOUS
 10
6.1295
 20
10.2598
  0
VERTEX
  8
LAYER1
 62
     7
  6
CONTINUOUS
 10
6.1285
 20
10.2623
  0
VERTEX
  8
LAYER1
 62
     7
  6
CONTINUOUS
 10
6.1274
 20
10.2649
  0
VERTEX
  8
LAYER1
 62
     7
  6
CONTINUOUS
 10
6.1263
 20
10.2677
  0
VERTEX
  8
LAYER1
 62
     7
  6
CONTINUOUS
 10
6.1251
 20
10.2704
  0
VERTEX
  8
LAYER1
 62
     7
  6
CONTINUOUS
 10
6.1240
 20
10.2732
  0
VERTEX
  8
LAYER1
 62
     7
  6
CONTINUOUS
 10
6.1228
 20
10.2759
  0
VERTEX
  8
LAYER1
 62
     7
  6
CONTINUOUS
 10
6.1212
 20
10.2797
  0
VERTEX
  8
LAYER1
 62
     7
  6
CONTINUOUS
 10
6.1196
 20
10.2832
  0
VERTEX
  8
LAYER1
 62
     7
  6
CONTINUOUS
 10
6.1181
 20
10.2865
  0
VERTEX
  8
LAYER1
 62
     7
  6
CONTINUOUS
 10
6.1166
 20
10.2897
  0
VERTEX
  8
LAYER1
 62
     7
  6
CONTINUOUS
 10
6.1151
 20
10.2926
  0
VERTEX
  8
LAYER1
 62
     7
  6
CONTINUOUS
 10
6.1135
 20
10.2954
  0
VERTEX
  8
LAYER1
 62
     7
  6
CONTINUOUS
 10
6.1120
 20
10.2981
  0
VERTEX
  8
LAYER1
 62
     7
  6
CONTINUOUS
 10
6.1103
 20
10.3007
  0
VERTEX
  8
LAYER1
 62
     7
  6
CONTINUOUS
 10
6.1086
 20
10.3032
  0
VERTEX
  8
LAYER1
 62
     7
  6
CONTINUOUS
 10
6.1067
 20
10.3056
  0
VERTEX
  8
LAYER1
 62
     7
  6
CONTINUOUS
 10
6.1047
 20
10.3081
  0
VERTEX
  8
LAYER1
 62
     7
  6
CONTINUOUS
 10
6.1025
 20
10.3105
  0
VERTEX
  8
LAYER1
 62
     7
  6
CONTINUOUS
 10
6.1007
 20
10.3124
  0
VERTEX
  8
LAYER1
 62
     7
  6
CONTINUOUS
 10
6.0988
 20
10.3144
  0
VERTEX
  8
LAYER1
 62
     7
  6
CONTINUOUS
 10
6.0968
 20
10.3163
  0
VERTEX
  8
LAYER1
 62
     7
  6
CONTINUOUS
 10
6.0949
 20
10.3183
  0
VERTEX
  8
LAYER1
 62
     7
  6
CONTINUOUS
 10
6.0929
 20
10.3203
  0
VERTEX
  8
LAYER1
 62
     7
  6
CONTINUOUS
 10
6.0910
 20
10.3223
  0
VERTEX
  8
LAYER1
 62
     7
  6
CONTINUOUS
 10
6.0891
 20
10.3244
  0
VERTEX
  8
LAYER1
 62
     7
  6
CONTINUOUS
 10
6.0874
 20
10.3265
  0
VERTEX
  8
LAYER1
 62
     7
  6
CONTINUOUS
 10
6.0859
 20
10.3286
  0
VERTEX
  8
LAYER1
 62
     7
  6
CONTINUOUS
 10
6.0845
 20
10.3307
  0
SEQEND
  8
LAYER1
  0
POLYLINE
  8
LAYER1
 62
     7
 66
     1
  6
CONTINUOUS
  0
VERTEX
  8
LAYER1
 62
     7
  6
CONTINUOUS
 10
6.0845
 20
10.3307
  0
VERTEX
  8
LAYER1
 62
     7
  6
CONTINUOUS
 10
6.0833
 20
10.3329
  0
VERTEX
  8
LAYER1
 62
     7
  6
CONTINUOUS
 10
6.0824
 20
10.3351
  0
VERTEX
  8
LAYER1
 62
     7
  6
CONTINUOUS
 10
6.0816
 20
10.3376
  0
VERTEX
  8
LAYER1
 62
     7
  6
CONTINUOUS
 10
6.0812
 20
10.3401
  0
VERTEX
  8
LAYER1
 62
     7
  6
CONTINUOUS
 10
6.0810
 20
10.3427
  0
VERTEX
  8
LAYER1
 62
     7
  6
CONTINUOUS
 10
6.0810
 20
10.3454
  0
VERTEX
  8
LAYER1
 62
     7
  6
CONTINUOUS
 10
6.0811
 20
10.3481
  0
VERTEX
  8
LAYER1
 62
     7
  6
CONTINUOUS
 10
6.0814
 20
10.3509
  0
VERTEX
  8
LAYER1
 62
     7
  6
CONTINUOUS
 10
6.0816
 20
10.3538
  0
VERTEX
  8
LAYER1
 62
     7
  6
CONTINUOUS
 10
6.0819
 20
10.3568
  0
VERTEX
  8
LAYER1
 62
     7
  6
CONTINUOUS
 10
6.0821
 20
10.3599
  0
VERTEX
  8
LAYER1
 62
     7
  6
CONTINUOUS
 10
6.0822
 20
10.3632
  0
VERTEX
  8
LAYER1
 62
     7
  6
CONTINUOUS
 10
6.0822
 20
10.3665
  0
VERTEX
  8
LAYER1
 62
     7
  6
CONTINUOUS
 10
6.0820
 20
10.3700
  0
VERTEX
  8
LAYER1
 62
     7
  6
CONTINUOUS
 10
6.0813
 20
10.3749
  0
VERTEX
  8
LAYER1
 62
     7
  6
CONTINUOUS
 10
6.0803
 20
10.3800
  0
VERTEX
  8
LAYER1
 62
     7
  6
CONTINUOUS
 10
6.0789
 20
10.3851
  0
VERTEX
  8
LAYER1
 62
     7
  6
CONTINUOUS
 10
6.0774
 20
10.3901
  0
VERTEX
  8
LAYER1
 62
     7
  6
CONTINUOUS
 10
6.0757
 20
10.3950
  0
VERTEX
  8
LAYER1
 62
     7
  6
CONTINUOUS
 10
6.0740
 20
10.3995
  0
VERTEX
  8
LAYER1
 62
     7
  6
CONTINUOUS
 10
6.0722
 20
10.4037
  0
VERTEX
  8
LAYER1
 62
     7
  6
CONTINUOUS
 10
6.0706
 20
10.4074
  0
VERTEX
  8
LAYER1
 62
     7
  6
CONTINUOUS
 10
6.0691
 20
10.4104
  0
VERTEX
  8
LAYER1
 62
     7
  6
CONTINUOUS
 10
6.0679
 20
10.4127
  0
VERTEX
  8
LAYER1
 62
     7
  6
CONTINUOUS
 10
6.0670
 20
10.4141
  0
VERTEX
  8
LAYER1
 62
     7
  6
CONTINUOUS
 10
6.0665
 20
10.4146
  0
VERTEX
  8
LAYER1
 62
     7
  6
CONTINUOUS
 10
6.0665
 20
10.4146
  0
VERTEX
  8
LAYER1
 62
     7
  6
CONTINUOUS
 10
6.0665
 20
10.4146
  0
VERTEX
  8
LAYER1
 62
     7
  6
CONTINUOUS
 10
6.0665
 20
10.4146
  0
VERTEX
  8
LAYER1
 62
     7
  6
CONTINUOUS
 10
6.0665
 20
10.4146
  0
VERTEX
  8
LAYER1
 62
     7
  6
CONTINUOUS
 10
6.0665
 20
10.4145
  0
VERTEX
  8
LAYER1
 62
     7
  6
CONTINUOUS
 10
6.0665
 20
10.4145
  0
VERTEX
  8
LAYER1
 62
     7
  6
CONTINUOUS
 10
6.0665
 20
10.4145
  0
VERTEX
  8
LAYER1
 62
     7
  6
CONTINUOUS
 10
6.0665
 20
10.4145
  0
VERTEX
  8
LAYER1
 62
     7
  6
CONTINUOUS
 10
6.0665
 20
10.4145
  0
VERTEX
  8
LAYER1
 62
     7
  6
CONTINUOUS
 10
6.0665
 20
10.4145
  0
VERTEX
  8
LAYER1
 62
     7
  6
CONTINUOUS
 10
6.0665
 20
10.4146
  0
VERTEX
  8
LAYER1
 62
     7
  6
CONTINUOUS
 10
6.0665
 20
10.4146
  0
VERTEX
  8
LAYER1
 62
     7
  6
CONTINUOUS
 10
6.0667
 20
10.4150
  0
VERTEX
  8
LAYER1
 62
     7
  6
CONTINUOUS
 10
6.0668
 20
10.4156
  0
VERTEX
  8
LAYER1
 62
     7
  6
CONTINUOUS
 10
6.0671
 20
10.4165
  0
VERTEX
  8
LAYER1
 62
     7
  6
CONTINUOUS
 10
6.0673
 20
10.4176
  0
VERTEX
  8
LAYER1
 62
     7
  6
CONTINUOUS
 10
6.0676
 20
10.4189
  0
VERTEX
  8
LAYER1
 62
     7
  6
CONTINUOUS
 10
6.0680
 20
10.4204
  0
VERTEX
  8
LAYER1
 62
     7
  6
CONTINUOUS
 10
6.0684
 20
10.4220
  0
VERTEX
  8
LAYER1
 62
     7
  6
CONTINUOUS
 10
6.0688
 20
10.4238
  0
VERTEX
  8
LAYER1
 62
     7
  6
CONTINUOUS
 10
6.0692
 20
10.4256
  0
VERTEX
  8
LAYER1
 62
     7
  6
CONTINUOUS
 10
6.0696
 20
10.4275
  0
VERTEX
  8
LAYER1
 62
     7
  6
CONTINUOUS
 10
6.0701
 20
10.4295
  0
VERTEX
  8
LAYER1
 62
     7
  6
CONTINUOUS
 10
6.0705
 20
10.4315
  0
SEQEND
  8
LAYER1
  0
POLYLINE
  8
LAYER1
 62
     7
 66
     1
  6
CONTINUOUS
  0
VERTEX
  8
LAYER1
 62
     7
  6
CONTINUOUS
 10
6.0816
 20
10.4315
  0
VERTEX
  8
LAYER1
 62
     7
  6
CONTINUOUS
 10
6.0804
 20
10.4315
  0
VERTEX
  8
LAYER1
 62
     7
  6
CONTINUOUS
 10
6.0791
 20
10.4315
  0
VERTEX
  8
LAYER1
 62
     7
  6
CONTINUOUS
 10
6.0779
 20
10.4315
  0
VERTEX
  8
LAYER1
 62
     7
  6
CONTINUOUS
 10
6.0767
 20
10.4315
  0
VERTEX
  8
LAYER1
 62
     7
  6
CONTINUOUS
 10
6.0756
 20
10.4315
  0
VERTEX
  8
LAYER1
 62
     7
  6
CONTINUOUS
 10
6.0746
 20
10.4315
  0
VERTEX
  8
LAYER1
 62
     7
  6
CONTINUOUS
 10
6.0736
 20
10.4315
  0
VERTEX
  8
LAYER1
 62
     7
  6
CONTINUOUS
 10
6.0727
 20
10.4315
  0
VERTEX
  8
LAYER1
 62
     7
  6
CONTINUOUS
 10
6.0720
 20
10.4315
  0
VERTEX
  8
LAYER1
 62
     7
  6
CONTINUOUS
 10
6.0714
 20
10.4315
  0
VERTEX
  8
LAYER1
 62
     7
  6
CONTINUOUS
 10
6.0709
 20
10.4315
  0
VERTEX
  8
LAYER1
 62
     7
  6
CONTINUOUS
 10
6.0705
 20
10.4315
  0
VERTEX
  8
LAYER1
 62
     7
  6
CONTINUOUS
 10
6.0704
 20
10.4315
  0
VERTEX
  8
LAYER1
 62
     7
  6
CONTINUOUS
 10
6.0703
 20
10.4315
  0
VERTEX
  8
LAYER1
 62
     7
  6
CONTINUOUS
 10
6.0703
 20
10.4315
  0
VERTEX
  8
LAYER1
 62
     7
  6
CONTINUOUS
 10
6.0703
 20
10.4315
  0
VERTEX
  8
LAYER1
 62
     7
  6
CONTINUOUS
 10
6.0703
 20
10.4315
  0
VERTEX
  8
LAYER1
 62
     7
  6
CONTINUOUS
 10
6.0703
 20
10.4315
  0
VERTEX
  8
LAYER1
 62
     7
  6
CONTINUOUS
 10
6.0703
 20
10.4315
  0
VERTEX
  8
LAYER1
 62
     7
  6
CONTINUOUS
 10
6.0703
 20
10.4315
  0
VERTEX
  8
LAYER1
 62
     7
  6
CONTINUOUS
 10
6.0704
 20
10.4315
  0
VERTEX
  8
LAYER1
 62
     7
  6
CONTINUOUS
 10
6.0704
 20
10.4315
  0
VERTEX
  8
LAYER1
 62
     7
  6
CONTINUOUS
 10
6.0705
 20
10.4315
  0
VERTEX
  8
LAYER1
 62
     7
  6
CONTINUOUS
 10
6.0705
 20
10.4315
  0
SEQEND
  8
LAYER1
  0
POLYLINE
  8
LAYER1
 62
     7
 66
     1
  6
CONTINUOUS
  0
VERTEX
  8
LAYER1
 62
     7
  6
CONTINUOUS
 10
6.0705
 20
10.4315
  0
VERTEX
  8
LAYER1
 62
     7
  6
CONTINUOUS
 10
6.0705
 20
10.4315
  0
VERTEX
  8
LAYER1
 62
     7
  6
CONTINUOUS
 10
6.0705
 20
10.4315
  0
VERTEX
  8
LAYER1
 62
     7
  6
CONTINUOUS
 10
6.0705
 20
10.4315
  0
VERTEX
  8
LAYER1
 62
     7
  6
CONTINUOUS
 10
6.0705
 20
10.4315
  0
VERTEX
  8
LAYER1
 62
     7
  6
CONTINUOUS
 10
6.0705
 20
10.4315
  0
VERTEX
  8
LAYER1
 62
     7
  6
CONTINUOUS
 10
6.0705
 20
10.4315
  0
VERTEX
  8
LAYER1
 62
     7
  6
CONTINUOUS
 10
6.0705
 20
10.4315
  0
VERTEX
  8
LAYER1
 62
     7
  6
CONTINUOUS
 10
6.0705
 20
10.4315
  0
VERTEX
  8
LAYER1
 62
     7
  6
CONTINUOUS
 10
6.0705
 20
10.4315
  0
VERTEX
  8
LAYER1
 62
     7
  6
CONTINUOUS
 10
6.0705
 20
10.4315
  0
VERTEX
  8
LAYER1
 62
     7
  6
CONTINUOUS
 10
6.0705
 20
10.4315
  0
VERTEX
  8
LAYER1
 62
     7
  6
CONTINUOUS
 10
6.0705
 20
10.4315
  0
VERTEX
  8
LAYER1
 62
     7
  6
CONTINUOUS
 10
6.0705
 20
10.4315
  0
VERTEX
  8
LAYER1
 62
     7
  6
CONTINUOUS
 10
6.0705
 20
10.4315
  0
VERTEX
  8
LAYER1
 62
     7
  6
CONTINUOUS
 10
6.0705
 20
10.4315
  0
VERTEX
  8
LAYER1
 62
     7
  6
CONTINUOUS
 10
6.0705
 20
10.4315
  0
VERTEX
  8
LAYER1
 62
     7
  6
CONTINUOUS
 10
6.0705
 20
10.4315
  0
VERTEX
  8
LAYER1
 62
     7
  6
CONTINUOUS
 10
6.0705
 20
10.4315
  0
VERTEX
  8
LAYER1
 62
     7
  6
CONTINUOUS
 10
6.0705
 20
10.4315
  0
VERTEX
  8
LAYER1
 62
     7
  6
CONTINUOUS
 10
6.0705
 20
10.4315
  0
VERTEX
  8
LAYER1
 62
     7
  6
CONTINUOUS
 10
6.0705
 20
10.4315
  0
VERTEX
  8
LAYER1
 62
     7
  6
CONTINUOUS
 10
6.0705
 20
10.4315
  0
VERTEX
  8
LAYER1
 62
     7
  6
CONTINUOUS
 10
6.0705
 20
10.4315
  0
VERTEX
  8
LAYER1
 62
     7
  6
CONTINUOUS
 10
6.0705
 20
10.4315
  0
SEQEND
  8
LAYER1
  0
ARC
  8
LAYER1
 62
     7
  6
CONTINUOUS
 10
6.1186
 20
10.4351
 40
0.0151
 50
-98.8265
 51
-13.9872
  0
ARC
  8
LAYER1
 62
     7
  6
CONTINUOUS
 10
6.1186
 20
10.4351
 40
0.0151
 50
-13.9868
 51
-166.0132
  0
ARC
  8
LAYER1
 62
     7
  6
CONTINUOUS
 10
6.1186
 20
10.4351
 40
0.0151
 50
-166.0132
 51
-98.8260
  0
ARC
  8
LAYER1
 62
     7
  6
CONTINUOUS
 10
6.6141
 20
10.4207
 40
0.0149
 50
90.6185
 51
133.6867
  0
ARC
  8
LAYER1
 62
     7
  6
CONTINUOUS
 10
6.6141
 20
10.4207
 40
0.0149
 50
133.6881
 51
46.3106
  0
ARC
  8
LAYER1
 62
     7
  6
CONTINUOUS
 10
6.6141
 20
10.4207
 40
0.0149
 50
46.3106
 51
90.6184
  0
POLYLINE
  8
LAYER1
 62
     7
 66
     1
  6
CONTINUOUS
  0
VERTEX
  8
LAYER1
 62
     7
  6
CONTINUOUS
 10
6.0657
 20
9.8501
  0
VERTEX
  8
LAYER1
 62
     7
  6
CONTINUOUS
 10
6.0662
 20
9.8503
  0
VERTEX
  8
LAYER1
 62
     7
  6
CONTINUOUS
 10
6.0668
 20
9.8504
  0
VERTEX
  8
LAYER1
 62
     7
  6
CONTINUOUS
 10
6.0674
 20
9.8506
  0
VERTEX
  8
LAYER1
 62
     7
  6
CONTINUOUS
 10
6.0680
 20
9.8508
  0
VERTEX
  8
LAYER1
 62
     7
  6
CONTINUOUS
 10
6.0686
 20
9.8510
  0
VERTEX
  8
LAYER1
 62
     7
  6
CONTINUOUS
 10
6.0692
 20
9.8512
  0
VERTEX
  8
LAYER1
 62
     7
  6
CONTINUOUS
 10
6.0698
 20
9.8514
  0
VERTEX
  8
LAYER1
 62
     7
  6
CONTINUOUS
 10
6.0704
 20
9.8515
  0
VERTEX
  8
LAYER1
 62
     7
  6
CONTINUOUS
 10
6.0710
 20
9.8517
  0
VERTEX
  8
LAYER1
 62
     7
  6
CONTINUOUS
 10
6.0716
 20
9.8519
  0
VERTEX
  8
LAYER1
 62
     7
  6
CONTINUOUS
 10
6.0721
 20
9.8520
  0
VERTEX
  8
LAYER1
 62
     7
  6
CONTINUOUS
 10
6.0727
 20
9.8521
  0
VERTEX
  8
LAYER1
 62
     7
  6
CONTINUOUS
 10
6.0752
 20
9.8526
  0
VERTEX
  8
LAYER1
 62
     7
  6
CONTINUOUS
 10
6.0776
 20
9.8529
  0
VERTEX
  8
LAYER1
 62
     7
  6
CONTINUOUS
 10
6.0800
 20
9.8531
  0
VERTEX
  8
LAYER1
 62
     7
  6
CONTINUOUS
 10
6.0825
 20
9.8532
  0
VERTEX
  8
LAYER1
 62
     7
  6
CONTINUOUS
 10
6.0850
 20
9.8532
  0
VERTEX
  8
LAYER1
 62
     7
  6
CONTINUOUS
 10
6.0875
 20
9.8531
  0
VERTEX
  8
LAYER1
 62
     7
  6
CONTINUOUS
 10
6.0900
 20
9.8530
  0
VERTEX
  8
LAYER1
 62
     7
  6
CONTINUOUS
 10
6.0925
 20
9.8529
  0
VERTEX
  8
LAYER1
 62
     7
  6
CONTINUOUS
 10
6.0950
 20
9.8527
  0
VERTEX
  8
LAYER1
 62
     7
  6
CONTINUOUS
 10
6.0976
 20
9.8526
  0
VERTEX
  8
LAYER1
 62
     7
  6
CONTINUOUS
 10
6.1001
 20
9.8525
  0
VERTEX
  8
LAYER1
 62
     7
  6
CONTINUOUS
 10
6.1026
 20
9.8525
  0
VERTEX
  8
LAYER1
 62
     7
  6
CONTINUOUS
 10
6.1047
 20
9.8525
  0
VERTEX
  8
LAYER1
 62
     7
  6
CONTINUOUS
 10
6.1068
 20
9.8526
  0
VERTEX
  8
LAYER1
 62
     7
  6
CONTINUOUS
 10
6.1089
 20
9.8526
  0
VERTEX
  8
LAYER1
 62
     7
  6
CONTINUOUS
 10
6.1110
 20
9.8527
  0
VERTEX
  8
LAYER1
 62
     7
  6
CONTINUOUS
 10
6.1131
 20
9.8529
  0
VERTEX
  8
LAYER1
 62
     7
  6
CONTINUOUS
 10
6.1152
 20
9.8529
  0
VERTEX
  8
LAYER1
 62
     7
  6
CONTINUOUS
 10
6.1173
 20
9.8530
  0
VERTEX
  8
LAYER1
 62
     7
  6
CONTINUOUS
 10
6.1193
 20
9.8531
  0
VERTEX
  8
LAYER1
 62
     7
  6
CONTINUOUS
 10
6.1214
 20
9.8531
  0
VERTEX
  8
LAYER1
 62
     7
  6
CONTINUOUS
 10
6.1234
 20
9.8530
  0
VERTEX
  8
LAYER1
 62
     7
  6
CONTINUOUS
 10
6.1255
 20
9.8529
  0
VERTEX
  8
LAYER1
 62
     7
  6
CONTINUOUS
 10
6.1275
 20
9.8528
  0
VERTEX
  8
LAYER1
 62
     7
  6
CONTINUOUS
 10
6.1314
 20
9.8521
  0
VERTEX
  8
LAYER1
 62
     7
  6
CONTINUOUS
 10
6.1353
 20
9.8512
  0
VERTEX
  8
LAYER1
 62
     7
  6
CONTINUOUS
 10
6.1391
 20
9.8501
  0
VERTEX
  8
LAYER1
 62
     7
  6
CONTINUOUS
 10
6.1429
 20
9.8487
  0
VERTEX
  8
LAYER1
 62
     7
  6
CONTINUOUS
 10
6.1466
 20
9.8471
  0
VERTEX
  8
LAYER1
 62
     7
  6
CONTINUOUS
 10
6.1504
 20
9.8453
  0
VERTEX
  8
LAYER1
 62
     7
  6
CONTINUOUS
 10
6.1541
 20
9.8434
  0
VERTEX
  8
LAYER1
 62
     7
  6
CONTINUOUS
 10
6.1578
 20
9.8414
  0
VERTEX
  8
LAYER1
 62
     7
  6
CONTINUOUS
 10
6.1614
 20
9.8394
  0
VERTEX
  8
LAYER1
 62
     7
  6
CONTINUOUS
 10
6.1651
 20
9.8374
  0
VERTEX
  8
LAYER1
 62
     7
  6
CONTINUOUS
 10
6.1688
 20
9.8353
  0
VERTEX
  8
LAYER1
 62
     7
  6
CONTINUOUS
 10
6.1725
 20
9.8333
  0
VERTEX
  8
LAYER1
 62
     7
  6
CONTINUOUS
 10
6.1756
 20
9.8318
  0
VERTEX
  8
LAYER1
 62
     7
  6
CONTINUOUS
 10
6.1786
 20
9.8303
  0
VERTEX
  8
LAYER1
 62
     7
  6
CONTINUOUS
 10
6.1817
 20
9.8288
  0
VERTEX
  8
LAYER1
 62
     7
  6
CONTINUOUS
 10
6.1847
 20
9.8273
  0
VERTEX
  8
LAYER1
 62
     7
  6
CONTINUOUS
 10
6.1877
 20
9.8258
  0
VERTEX
  8
LAYER1
 62
     7
  6
CONTINUOUS
 10
6.1907
 20
9.8243
  0
VERTEX
  8
LAYER1
 62
     7
  6
CONTINUOUS
 10
6.1937
 20
9.8227
  0
VERTEX
  8
LAYER1
 62
     7
  6
CONTINUOUS
 10
6.1966
 20
9.8211
  0
VERTEX
  8
LAYER1
 62
     7
  6
CONTINUOUS
 10
6.1994
 20
9.8194
  0
VERTEX
  8
LAYER1
 62
     7
  6
CONTINUOUS
 10
6.2022
 20
9.8177
  0
VERTEX
  8
LAYER1
 62
     7
  6
CONTINUOUS
 10
6.2049
 20
9.8158
  0
VERTEX
  8
LAYER1
 62
     7
  6
CONTINUOUS
 10
6.2076
 20
9.8138
  0
VERTEX
  8
LAYER1
 62
     7
  6
CONTINUOUS
 10
6.2103
 20
9.8116
  0
VERTEX
  8
LAYER1
 62
     7
  6
CONTINUOUS
 10
6.2129
 20
9.8092
  0
VERTEX
  8
LAYER1
 62
     7
  6
CONTINUOUS
 10
6.2154
 20
9.8068
  0
VERTEX
  8
LAYER1
 62
     7
  6
CONTINUOUS
 10
6.2179
 20
9.8043
  0
VERTEX
  8
LAYER1
 62
     7
  6
CONTINUOUS
 10
6.2203
 20
9.8017
  0
VERTEX
  8
LAYER1
 62
     7
  6
CONTINUOUS
 10
6.2227
 20
9.7991
  0
VERTEX
  8
LAYER1
 62
     7
  6
CONTINUOUS
 10
6.2252
 20
9.7965
  0
VERTEX
  8
LAYER1
 62
     7
  6
CONTINUOUS
 10
6.2276
 20
9.7939
  0
VERTEX
  8
LAYER1
 62
     7
  6
CONTINUOUS
 10
6.2301
 20
9.7914
  0
VERTEX
  8
LAYER1
 62
     7
  6
CONTINUOUS
 10
6.2326
 20
9.7889
  0
VERTEX
  8
LAYER1
 62
     7
  6
CONTINUOUS
 10
6.2351
 20
9.7865
  0
VERTEX
  8
LAYER1
 62
     7
  6
CONTINUOUS
 10
6.2378
 20
9.7843
  0
VERTEX
  8
LAYER1
 62
     7
  6
CONTINUOUS
 10
6.2398
 20
9.7826
  0
VERTEX
  8
LAYER1
 62
     7
  6
CONTINUOUS
 10
6.2419
 20
9.7811
  0
VERTEX
  8
LAYER1
 62
     7
  6
CONTINUOUS
 10
6.2440
 20
9.7796
  0
VERTEX
  8
LAYER1
 62
     7
  6
CONTINUOUS
 10
6.2462
 20
9.7781
  0
VERTEX
  8
LAYER1
 62
     7
  6
CONTINUOUS
 10
6.2483
 20
9.7766
  0
VERTEX
  8
LAYER1
 62
     7
  6
CONTINUOUS
 10
6.2505
 20
9.7751
  0
VERTEX
  8
LAYER1
 62
     7
  6
CONTINUOUS
 10
6.2526
 20
9.7735
  0
VERTEX
  8
LAYER1
 62
     7
  6
CONTINUOUS
 10
6.2548
 20
9.7719
  0
VERTEX
  8
LAYER1
 62
     7
  6
CONTINUOUS
 10
6.2569
 20
9.7703
  0
VERTEX
  8
LAYER1
 62
     7
  6
CONTINUOUS
 10
6.2589
 20
9.7685
  0
VERTEX
  8
LAYER1
 62
     7
  6
CONTINUOUS
 10
6.2609
 20
9.7666
  0
VERTEX
  8
LAYER1
 62
     7
  6
CONTINUOUS
 10
6.2629
 20
9.7646
  0
VERTEX
  8
LAYER1
 62
     7
  6
CONTINUOUS
 10
6.2645
 20
9.7628
  0
VERTEX
  8
LAYER1
 62
     7
  6
CONTINUOUS
 10
6.2662
 20
9.7608
  0
VERTEX
  8
LAYER1
 62
     7
  6
CONTINUOUS
 10
6.2678
 20
9.7588
  0
VERTEX
  8
LAYER1
 62
     7
  6
CONTINUOUS
 10
6.2694
 20
9.7568
  0
VERTEX
  8
LAYER1
 62
     7
  6
CONTINUOUS
 10
6.2709
 20
9.7548
  0
VERTEX
  8
LAYER1
 62
     7
  6
CONTINUOUS
 10
6.2725
 20
9.7529
  0
VERTEX
  8
LAYER1
 62
     7
  6
CONTINUOUS
 10
6.2741
 20
9.7511
  0
VERTEX
  8
LAYER1
 62
     7
  6
CONTINUOUS
 10
6.2758
 20
9.7495
  0
VERTEX
  8
LAYER1
 62
     7
  6
CONTINUOUS
 10
6.2775
 20
9.7480
  0
VERTEX
  8
LAYER1
 62
     7
  6
CONTINUOUS
 10
6.2792
 20
9.7467
  0
VERTEX
  8
LAYER1
 62
     7
  6
CONTINUOUS
 10
6.2811
 20
9.7457
  0
VERTEX
  8
LAYER1
 62
     7
  6
CONTINUOUS
 10
6.2830
 20
9.7449
  0
VERTEX
  8
LAYER1
 62
     7
  6
CONTINUOUS
 10
6.2848
 20
9.7445
  0
VERTEX
  8
LAYER1
 62
     7
  6
CONTINUOUS
 10
6.2867
 20
9.7444
  0
VERTEX
  8
LAYER1
 62
     7
  6
CONTINUOUS
 10
6.2887
 20
9.7444
  0
VERTEX
  8
LAYER1
 62
     7
  6
CONTINUOUS
 10
6.2907
 20
9.7447
  0
VERTEX
  8
LAYER1
 62
     7
  6
CONTINUOUS
 10
6.2928
 20
9.7451
  0
VERTEX
  8
LAYER1
 62
     7
  6
CONTINUOUS
 10
6.2949
 20
9.7456
  0
VERTEX
  8
LAYER1
 62
     7
  6
CONTINUOUS
 10
6.2970
 20
9.7462
  0
VERTEX
  8
LAYER1
 62
     7
  6
CONTINUOUS
 10
6.2992
 20
9.7470
  0
VERTEX
  8
LAYER1
 62
     7
  6
CONTINUOUS
 10
6.3013
 20
9.7477
  0
VERTEX
  8
LAYER1
 62
     7
  6
CONTINUOUS
 10
6.3035
 20
9.7486
  0
VERTEX
  8
LAYER1
 62
     7
  6
CONTINUOUS
 10
6.3057
 20
9.7494
  0
VERTEX
  8
LAYER1
 62
     7
  6
CONTINUOUS
 10
6.3078
 20
9.7502
  0
VERTEX
  8
LAYER1
 62
     7
  6
CONTINUOUS
 10
6.3100
 20
9.7510
  0
VERTEX
  8
LAYER1
 62
     7
  6
CONTINUOUS
 10
6.3121
 20
9.7517
  0
VERTEX
  8
LAYER1
 62
     7
  6
CONTINUOUS
 10
6.3142
 20
9.7523
  0
VERTEX
  8
LAYER1
 62
     7
  6
CONTINUOUS
 10
6.3163
 20
9.7530
  0
VERTEX
  8
LAYER1
 62
     7
  6
CONTINUOUS
 10
6.3183
 20
9.7535
  0
VERTEX
  8
LAYER1
 62
     7
  6
CONTINUOUS
 10
6.3204
 20
9.7540
  0
VERTEX
  8
LAYER1
 62
     7
  6
CONTINUOUS
 10
6.3225
 20
9.7544
  0
VERTEX
  8
LAYER1
 62
     7
  6
CONTINUOUS
 10
6.3245
 20
9.7548
  0
VERTEX
  8
LAYER1
 62
     7
  6
CONTINUOUS
 10
6.3265
 20
9.7551
  0
VERTEX
  8
LAYER1
 62
     7
  6
CONTINUOUS
 10
6.3286
 20
9.7553
  0
VERTEX
  8
LAYER1
 62
     7
  6
CONTINUOUS
 10
6.3306
 20
9.7554
  0
VERTEX
  8
LAYER1
 62
     7
  6
CONTINUOUS
 10
6.3327
 20
9.7554
  0
VERTEX
  8
LAYER1
 62
     7
  6
CONTINUOUS
 10
6.3356
 20
9.7554
  0
VERTEX
  8
LAYER1
 62
     7
  6
CONTINUOUS
 10
6.3386
 20
9.7551
  0
VERTEX
  8
LAYER1
 62
     7
  6
CONTINUOUS
 10
6.3415
 20
9.7547
  0
VERTEX
  8
LAYER1
 62
     7
  6
CONTINUOUS
 10
6.3445
 20
9.7541
  0
VERTEX
  8
LAYER1
 62
     7
  6
CONTINUOUS
 10
6.3474
 20
9.7534
  0
VERTEX
  8
LAYER1
 62
     7
  6
CONTINUOUS
 10
6.3503
 20
9.7526
  0
VERTEX
  8
LAYER1
 62
     7
  6
CONTINUOUS
 10
6.3533
 20
9.7517
  0
VERTEX
  8
LAYER1
 62
     7
  6
CONTINUOUS
 10
6.3562
 20
9.7507
  0
VERTEX
  8
LAYER1
 62
     7
  6
CONTINUOUS
 10
6.3591
 20
9.7496
  0
VERTEX
  8
LAYER1
 62
     7
  6
CONTINUOUS
 10
6.3620
 20
9.7484
  0
VERTEX
  8
LAYER1
 62
     7
  6
CONTINUOUS
 10
6.3648
 20
9.7472
  0
VERTEX
  8
LAYER1
 62
     7
  6
CONTINUOUS
 10
6.3676
 20
9.7459
  0
VERTEX
  8
LAYER1
 62
     7
  6
CONTINUOUS
 10
6.3699
 20
9.7448
  0
VERTEX
  8
LAYER1
 62
     7
  6
CONTINUOUS
 10
6.3721
 20
9.7438
  0
VERTEX
  8
LAYER1
 62
     7
  6
CONTINUOUS
 10
6.3743
 20
9.7427
  0
VERTEX
  8
LAYER1
 62
     7
  6
CONTINUOUS
 10
6.3764
 20
9.7416
  0
VERTEX
  8
LAYER1
 62
     7
  6
CONTINUOUS
 10
6.3786
 20
9.7404
  0
VERTEX
  8
LAYER1
 62
     7
  6
CONTINUOUS
 10
6.3807
 20
9.7392
  0
VERTEX
  8
LAYER1
 62
     7
  6
CONTINUOUS
 10
6.3828
 20
9.7380
  0
VERTEX
  8
LAYER1
 62
     7
  6
CONTINUOUS
 10
6.3848
 20
9.7367
  0
VERTEX
  8
LAYER1
 62
     7
  6
CONTINUOUS
 10
6.3868
 20
9.7354
  0
VERTEX
  8
LAYER1
 62
     7
  6
CONTINUOUS
 10
6.3888
 20
9.7341
  0
VERTEX
  8
LAYER1
 62
     7
  6
CONTINUOUS
 10
6.3908
 20
9.7327
  0
VERTEX
  8
LAYER1
 62
     7
  6
CONTINUOUS
 10
6.3927
 20
9.7312
  0
VERTEX
  8
LAYER1
 62
     7
  6
CONTINUOUS
 10
6.3945
 20
9.7298
  0
VERTEX
  8
LAYER1
 62
     7
  6
CONTINUOUS
 10
6.3963
 20
9.7283
  0
VERTEX
  8
LAYER1
 62
     7
  6
CONTINUOUS
 10
6.3981
 20
9.7267
  0
VERTEX
  8
LAYER1
 62
     7
  6
CONTINUOUS
 10
6.3998
 20
9.7251
  0
VERTEX
  8
LAYER1
 62
     7
  6
CONTINUOUS
 10
6.4015
 20
9.7235
  0
VERTEX
  8
LAYER1
 62
     7
  6
CONTINUOUS
 10
6.4032
 20
9.7219
  0
VERTEX
  8
LAYER1
 62
     7
  6
CONTINUOUS
 10
6.4048
 20
9.7202
  0
VERTEX
  8
LAYER1
 62
     7
  6
CONTINUOUS
 10
6.4065
 20
9.7185
  0
VERTEX
  8
LAYER1
 62
     7
  6
CONTINUOUS
 10
6.4081
 20
9.7168
  0
VERTEX
  8
LAYER1
 62
     7
  6
CONTINUOUS
 10
6.4097
 20
9.7150
  0
VERTEX
  8
LAYER1
 62
     7
  6
CONTINUOUS
 10
6.4113
 20
9.7133
  0
VERTEX
  8
LAYER1
 62
     7
  6
CONTINUOUS
 10
6.4128
 20
9.7115
  0
VERTEX
  8
LAYER1
 62
     7
  6
CONTINUOUS
 10
6.4146
 20
9.7095
  0
VERTEX
  8
LAYER1
 62
     7
  6
CONTINUOUS
 10
6.4163
 20
9.7075
  0
VERTEX
  8
LAYER1
 62
     7
  6
CONTINUOUS
 10
6.4180
 20
9.7055
  0
VERTEX
  8
LAYER1
 62
     7
  6
CONTINUOUS
 10
6.4197
 20
9.7034
  0
VERTEX
  8
LAYER1
 62
     7
  6
CONTINUOUS
 10
6.4214
 20
9.7014
  0
VERTEX
  8
LAYER1
 62
     7
  6
CONTINUOUS
 10
6.4231
 20
9.6993
  0
VERTEX
  8
LAYER1
 62
     7
  6
CONTINUOUS
 10
6.4248
 20
9.6973
  0
VERTEX
  8
LAYER1
 62
     7
  6
CONTINUOUS
 10
6.4265
 20
9.6952
  0
VERTEX
  8
LAYER1
 62
     7
  6
CONTINUOUS
 10
6.4281
 20
9.6931
  0
VERTEX
  8
LAYER1
 62
     7
  6
CONTINUOUS
 10
6.4298
 20
9.6911
  0
VERTEX
  8
LAYER1
 62
     7
  6
CONTINUOUS
 10
6.4314
 20
9.6890
  0
VERTEX
  8
LAYER1
 62
     7
  6
CONTINUOUS
 10
6.4330
 20
9.6868
  0
VERTEX
  8
LAYER1
 62
     7
  6
CONTINUOUS
 10
6.4350
 20
9.6843
  0
VERTEX
  8
LAYER1
 62
     7
  6
CONTINUOUS
 10
6.4369
 20
9.6817
  0
VERTEX
  8
LAYER1
 62
     7
  6
CONTINUOUS
 10
6.4389
 20
9.6791
  0
VERTEX
  8
LAYER1
 62
     7
  6
CONTINUOUS
 10
6.4409
 20
9.6765
  0
VERTEX
  8
LAYER1
 62
     7
  6
CONTINUOUS
 10
6.4429
 20
9.6740
  0
VERTEX
  8
LAYER1
 62
     7
  6
CONTINUOUS
 10
6.4449
 20
9.6715
  0
VERTEX
  8
LAYER1
 62
     7
  6
CONTINUOUS
 10
6.4470
 20
9.6690
  0
VERTEX
  8
LAYER1
 62
     7
  6
CONTINUOUS
 10
6.4491
 20
9.6665
  0
VERTEX
  8
LAYER1
 62
     7
  6
CONTINUOUS
 10
6.4513
 20
9.6641
  0
VERTEX
  8
LAYER1
 62
     7
  6
CONTINUOUS
 10
6.4535
 20
9.6618
  0
VERTEX
  8
LAYER1
 62
     7
  6
CONTINUOUS
 10
6.4558
 20
9.6595
  0
VERTEX
  8
LAYER1
 62
     7
  6
CONTINUOUS
 10
6.4582
 20
9.6573
  0
VERTEX
  8
LAYER1
 62
     7
  6
CONTINUOUS
 10
6.4611
 20
9.6548
  0
VERTEX
  8
LAYER1
 62
     7
  6
CONTINUOUS
 10
6.4641
 20
9.6523
  0
VERTEX
  8
LAYER1
 62
     7
  6
CONTINUOUS
 10
6.4672
 20
9.6500
  0
VERTEX
  8
LAYER1
 62
     7
  6
CONTINUOUS
 10
6.4703
 20
9.6476
  0
VERTEX
  8
LAYER1
 62
     7
  6
CONTINUOUS
 10
6.4734
 20
9.6453
  0
VERTEX
  8
LAYER1
 62
     7
  6
CONTINUOUS
 10
6.4766
 20
9.6430
  0
VERTEX
  8
LAYER1
 62
     7
  6
CONTINUOUS
 10
6.4796
 20
9.6407
  0
VERTEX
  8
LAYER1
 62
     7
  6
CONTINUOUS
 10
6.4826
 20
9.6383
  0
VERTEX
  8
LAYER1
 62
     7
  6
CONTINUOUS
 10
6.4855
 20
9.6359
  0
VERTEX
  8
LAYER1
 62
     7
  6
CONTINUOUS
 10
6.4883
 20
9.6333
  0
VERTEX
  8
LAYER1
 62
     7
  6
CONTINUOUS
 10
6.4909
 20
9.6306
  0
VERTEX
  8
LAYER1
 62
     7
  6
CONTINUOUS
 10
6.4934
 20
9.6278
  0
VERTEX
  8
LAYER1
 62
     7
  6
CONTINUOUS
 10
6.4954
 20
9.6252
  0
VERTEX
  8
LAYER1
 62
     7
  6
CONTINUOUS
 10
6.4972
 20
9.6225
  0
VERTEX
  8
LAYER1
 62
     7
  6
CONTINUOUS
 10
6.4990
 20
9.6197
  0
VERTEX
  8
LAYER1
 62
     7
  6
CONTINUOUS
 10
6.5006
 20
9.6168
  0
VERTEX
  8
LAYER1
 62
     7
  6
CONTINUOUS
 10
6.5022
 20
9.6138
  0
VERTEX
  8
LAYER1
 62
     7
  6
CONTINUOUS
 10
6.5038
 20
9.6109
  0
VERTEX
  8
LAYER1
 62
     7
  6
CONTINUOUS
 10
6.5054
 20
9.6079
  0
VERTEX
  8
LAYER1
 62
     7
  6
CONTINUOUS
 10
6.5069
 20
9.6048
  0
VERTEX
  8
LAYER1
 62
     7
  6
CONTINUOUS
 10
6.5085
 20
9.6019
  0
VERTEX
  8
LAYER1
 62
     7
  6
CONTINUOUS
 10
6.5101
 20
9.5989
  0
VERTEX
  8
LAYER1
 62
     7
  6
CONTINUOUS
 10
6.5119
 20
9.5960
  0
VERTEX
  8
LAYER1
 62
     7
  6
CONTINUOUS
 10
6.5137
 20
9.5932
  0
VERTEX
  8
LAYER1
 62
     7
  6
CONTINUOUS
 10
6.5150
 20
9.5912
  0
VERTEX
  8
LAYER1
 62
     7
  6
CONTINUOUS
 10
6.5164
 20
9.5893
  0
VERTEX
  8
LAYER1
 62
     7
  6
CONTINUOUS
 10
6.5179
 20
9.5875
  0
VERTEX
  8
LAYER1
 62
     7
  6
CONTINUOUS
 10
6.5195
 20
9.5857
  0
VERTEX
  8
LAYER1
 62
     7
  6
CONTINUOUS
 10
6.5210
 20
9.5839
  0
VERTEX
  8
LAYER1
 62
     7
  6
CONTINUOUS
 10
6.5227
 20
9.5822
  0
VERTEX
  8
LAYER1
 62
     7
  6
CONTINUOUS
 10
6.5244
 20
9.5806
  0
VERTEX
  8
LAYER1
 62
     7
  6
CONTINUOUS
 10
6.5262
 20
9.5790
  0
VERTEX
  8
LAYER1
 62
     7
  6
CONTINUOUS
 10
6.5280
 20
9.5775
  0
VERTEX
  8
LAYER1
 62
     7
  6
CONTINUOUS
 10
6.5299
 20
9.5761
  0
VERTEX
  8
LAYER1
 62
     7
  6
CONTINUOUS
 10
6.5318
 20
9.5747
  0
VERTEX
  8
LAYER1
 62
     7
  6
CONTINUOUS
 10
6.5338
 20
9.5735
  0
VERTEX
  8
LAYER1
 62
     7
  6
CONTINUOUS
 10
6.5359
 20
9.5722
  0
VERTEX
  8
LAYER1
 62
     7
  6
CONTINUOUS
 10
6.5381
 20
9.5710
  0
VERTEX
  8
LAYER1
 62
     7
  6
CONTINUOUS
 10
6.5403
 20
9.5699
  0
VERTEX
  8
LAYER1
 62
     7
  6
CONTINUOUS
 10
6.5425
 20
9.5688
  0
VERTEX
  8
LAYER1
 62
     7
  6
CONTINUOUS
 10
6.5447
 20
9.5677
  0
VERTEX
  8
LAYER1
 62
     7
  6
CONTINUOUS
 10
6.5468
 20
9.5666
  0
VERTEX
  8
LAYER1
 62
     7
  6
CONTINUOUS
 10
6.5490
 20
9.5654
  0
VERTEX
  8
LAYER1
 62
     7
  6
CONTINUOUS
 10
6.5511
 20
9.5643
  0
VERTEX
  8
LAYER1
 62
     7
  6
CONTINUOUS
 10
6.5532
 20
9.5630
  0
VERTEX
  8
LAYER1
 62
     7
  6
CONTINUOUS
 10
6.5552
 20
9.5617
  0
VERTEX
  8
LAYER1
 62
     7
  6
CONTINUOUS
 10
6.5571
 20
9.5603
  0
VERTEX
  8
LAYER1
 62
     7
  6
CONTINUOUS
 10
6.5589
 20
9.5588
  0
VERTEX
  8
LAYER1
 62
     7
  6
CONTINUOUS
 10
6.5607
 20
9.5570
  0
VERTEX
  8
LAYER1
 62
     7
  6
CONTINUOUS
 10
6.5625
 20
9.5551
  0
VERTEX
  8
LAYER1
 62
     7
  6
CONTINUOUS
 10
6.5641
 20
9.5530
  0
VERTEX
  8
LAYER1
 62
     7
  6
CONTINUOUS
 10
6.5657
 20
9.5509
  0
VERTEX
  8
LAYER1
 62
     7
  6
CONTINUOUS
 10
6.5673
 20
9.5487
  0
VERTEX
  8
LAYER1
 62
     7
  6
CONTINUOUS
 10
6.5688
 20
9.5465
  0
VERTEX
  8
LAYER1
 62
     7
  6
CONTINUOUS
 10
6.5704
 20
9.5443
  0
VERTEX
  8
LAYER1
 62
     7
  6
CONTINUOUS
 10
6.5719
 20
9.5421
  0
VERTEX
  8
LAYER1
 62
     7
  6
CONTINUOUS
 10
6.5736
 20
9.5400
  0
VERTEX
  8
LAYER1
 62
     7
  6
CONTINUOUS
 10
6.5753
 20
9.5379
  0
VERTEX
  8
LAYER1
 62
     7
  6
CONTINUOUS
 10
6.5771
 20
9.5360
  0
VERTEX
  8
LAYER1
 62
     7
  6
CONTINUOUS
 10
6.5791
 20
9.5341
  0
VERTEX
  8
LAYER1
 62
     7
  6
CONTINUOUS
 10
6.5812
 20
9.5324
  0
VERTEX
  8
LAYER1
 62
     7
  6
CONTINUOUS
 10
6.5834
 20
9.5309
  0
VERTEX
  8
LAYER1
 62
     7
  6
CONTINUOUS
 10
6.5857
 20
9.5294
  0
VERTEX
  8
LAYER1
 62
     7
  6
CONTINUOUS
 10
6.5880
 20
9.5280
  0
VERTEX
  8
LAYER1
 62
     7
  6
CONTINUOUS
 10
6.5904
 20
9.5266
  0
VERTEX
  8
LAYER1
 62
     7
  6
CONTINUOUS
 10
6.5927
 20
9.5251
  0
VERTEX
  8
LAYER1
 62
     7
  6
CONTINUOUS
 10
6.5950
 20
9.5237
  0
VERTEX
  8
LAYER1
 62
     7
  6
CONTINUOUS
 10
6.5971
 20
9.5221
  0
VERTEX
  8
LAYER1
 62
     7
  6
CONTINUOUS
 10
6.5992
 20
9.5205
  0
VERTEX
  8
LAYER1
 62
     7
  6
CONTINUOUS
 10
6.6011
 20
9.5187
  0
VERTEX
  8
LAYER1
 62
     7
  6
CONTINUOUS
 10
6.6027
 20
9.5167
  0
VERTEX
  8
LAYER1
 62
     7
  6
CONTINUOUS
 10
6.6042
 20
9.5145
  0
VERTEX
  8
LAYER1
 62
     7
  6
CONTINUOUS
 10
6.6042
 20
9.5145
  0
VERTEX
  8
LAYER1
 62
     7
  6
CONTINUOUS
 10
6.6042
 20
9.5144
  0
VERTEX
  8
LAYER1
 62
     7
  6
CONTINUOUS
 10
6.6042
 20
9.5144
  0
VERTEX
  8
LAYER1
 62
     7
  6
CONTINUOUS
 10
6.6043
 20
9.5143
  0
VERTEX
  8
LAYER1
 62
     7
  6
CONTINUOUS
 10
6.6043
 20
9.5143
  0
VERTEX
  8
LAYER1
 62
     7
  6
CONTINUOUS
 10
6.6043
 20
9.5143
  0
VERTEX
  8
LAYER1
 62
     7
  6
CONTINUOUS
 10
6.6043
 20
9.5142
  0
VERTEX
  8
LAYER1
 62
     7
  6
CONTINUOUS
 10
6.6043
 20
9.5142
  0
VERTEX
  8
LAYER1
 62
     7
  6
CONTINUOUS
 10
6.6044
 20
9.5141
  0
VERTEX
  8
LAYER1
 62
     7
  6
CONTINUOUS
 10
6.6044
 20
9.5141
  0
VERTEX
  8
LAYER1
 62
     7
  6
CONTINUOUS
 10
6.6044
 20
9.5140
  0
VERTEX
  8
LAYER1
 62
     7
  6
CONTINUOUS
 10
6.6044
 20
9.5140
  0
SEQEND
  8
LAYER1
  0
POLYLINE
  8
LAYER1
 62
     7
 66
     1
  6
CONTINUOUS
  0
VERTEX
  8
LAYER1
 62
     7
  6
CONTINUOUS
 10
6.0657
 20
9.7526
  0
VERTEX
  8
LAYER1
 62
     7
  6
CONTINUOUS
 10
6.0709
 20
9.7526
  0
VERTEX
  8
LAYER1
 62
     7
  6
CONTINUOUS
 10
6.0762
 20
9.7526
  0
VERTEX
  8
LAYER1
 62
     7
  6
CONTINUOUS
 10
6.0812
 20
9.7526
  0
VERTEX
  8
LAYER1
 62
     7
  6
CONTINUOUS
 10
6.0861
 20
9.7526
  0
VERTEX
  8
LAYER1
 62
     7
  6
CONTINUOUS
 10
6.0907
 20
9.7526
  0
VERTEX
  8
LAYER1
 62
     7
  6
CONTINUOUS
 10
6.0949
 20
9.7526
  0
VERTEX
  8
LAYER1
 62
     7
  6
CONTINUOUS
 10
6.0987
 20
9.7527
  0
VERTEX
  8
LAYER1
 62
     7
  6
CONTINUOUS
 10
6.1020
 20
9.7527
  0
VERTEX
  8
LAYER1
 62
     7
  6
CONTINUOUS
 10
6.1047
 20
9.7528
  0
VERTEX
  8
LAYER1
 62
     7
  6
CONTINUOUS
 10
6.1068
 20
9.7528
  0
VERTEX
  8
LAYER1
 62
     7
  6
CONTINUOUS
 10
6.1081
 20
9.7529
  0
VERTEX
  8
LAYER1
 62
     7
  6
CONTINUOUS
 10
6.1087
 20
9.7530
  0
VERTEX
  8
LAYER1
 62
     7
  6
CONTINUOUS
 10
6.1087
 20
9.7530
  0
VERTEX
  8
LAYER1
 62
     7
  6
CONTINUOUS
 10
6.1087
 20
9.7530
  0
VERTEX
  8
LAYER1
 62
     7
  6
CONTINUOUS
 10
6.1087
 20
9.7530
  0
VERTEX
  8
LAYER1
 62
     7
  6
CONTINUOUS
 10
6.1087
 20
9.7530
  0
VERTEX
  8
LAYER1
 62
     7
  6
CONTINUOUS
 10
6.1087
 20
9.7530
  0
VERTEX
  8
LAYER1
 62
     7
  6
CONTINUOUS
 10
6.1087
 20
9.7530
  0
VERTEX
  8
LAYER1
 62
     7
  6
CONTINUOUS
 10
6.1087
 20
9.7530
  0
VERTEX
  8
LAYER1
 62
     7
  6
CONTINUOUS
 10
6.1087
 20
9.7530
  0
VERTEX
  8
LAYER1
 62
     7
  6
CONTINUOUS
 10
6.1087
 20
9.7530
  0
VERTEX
  8
LAYER1
 62
     7
  6
CONTINUOUS
 10
6.1087
 20
9.7530
  0
VERTEX
  8
LAYER1
 62
     7
  6
CONTINUOUS
 10
6.1087
 20
9.7530
  0
VERTEX
  8
LAYER1
 62
     7
  6
CONTINUOUS
 10
6.1087
 20
9.7530
  0
VERTEX
  8
LAYER1
 62
     7
  6
CONTINUOUS
 10
6.1092
 20
9.7526
  0
VERTEX
  8
LAYER1
 62
     7
  6
CONTINUOUS
 10
6.1105
 20
9.7520
  0
VERTEX
  8
LAYER1
 62
     7
  6
CONTINUOUS
 10
6.1123
 20
9.7510
  0
VERTEX
  8
LAYER1
 62
     7
  6
CONTINUOUS
 10
6.1147
 20
9.7499
  0
VERTEX
  8
LAYER1
 62
     7
  6
CONTINUOUS
 10
6.1175
 20
9.7485
  0
VERTEX
  8
LAYER1
 62
     7
  6
CONTINUOUS
 10
6.1207
 20
9.7471
  0
VERTEX
  8
LAYER1
 62
     7
  6
CONTINUOUS
 10
6.1242
 20
9.7456
  0
VERTEX
  8
LAYER1
 62
     7
  6
CONTINUOUS
 10
6.1279
 20
9.7440
  0
VERTEX
  8
LAYER1
 62
     7
  6
CONTINUOUS
 10
6.1318
 20
9.7424
  0
VERTEX
  8
LAYER1
 62
     7
  6
CONTINUOUS
 10
6.1358
 20
9.7410
  0
VERTEX
  8
LAYER1
 62
     7
  6
CONTINUOUS
 10
6.1398
 20
9.7396
  0
VERTEX
  8
LAYER1
 62
     7
  6
CONTINUOUS
 10
6.1437
 20
9.7384
  0
VERTEX
  8
LAYER1
 62
     7
  6
CONTINUOUS
 10
6.1488
 20
9.7371
  0
VERTEX
  8
LAYER1
 62
     7
  6
CONTINUOUS
 10
6.1536
 20
9.7362
  0
VERTEX
  8
LAYER1
 62
     7
  6
CONTINUOUS
 10
6.1582
 20
9.7354
  0
VERTEX
  8
LAYER1
 62
     7
  6
CONTINUOUS
 10
6.1627
 20
9.7349
  0
VERTEX
  8
LAYER1
 62
     7
  6
CONTINUOUS
 10
6.1669
 20
9.7345
  0
VERTEX
  8
LAYER1
 62
     7
  6
CONTINUOUS
 10
6.1711
 20
9.7341
  0
VERTEX
  8
LAYER1
 62
     7
  6
CONTINUOUS
 10
6.1751
 20
9.7337
  0
VERTEX
  8
LAYER1
 62
     7
  6
CONTINUOUS
 10
6.1789
 20
9.7332
  0
VERTEX
  8
LAYER1
 62
     7
  6
CONTINUOUS
 10
6.1827
 20
9.7326
  0
VERTEX
  8
LAYER1
 62
     7
  6
CONTINUOUS
 10
6.1864
 20
9.7317
  0
VERTEX
  8
LAYER1
 62
     7
  6
CONTINUOUS
 10
6.1900
 20
9.7305
  0
VERTEX
  8
LAYER1
 62
     7
  6
CONTINUOUS
 10
6.1936
 20
9.7290
  0
VERTEX
  8
LAYER1
 62
     7
  6
CONTINUOUS
 10
6.1956
 20
9.7280
  0
VERTEX
  8
LAYER1
 62
     7
  6
CONTINUOUS
 10
6.1976
 20
9.7268
  0
VERTEX
  8
LAYER1
 62
     7
  6
CONTINUOUS
 10
6.1997
 20
9.7256
  0
VERTEX
  8
LAYER1
 62
     7
  6
CONTINUOUS
 10
6.2017
 20
9.7243
  0
VERTEX
  8
LAYER1
 62
     7
  6
CONTINUOUS
 10
6.2037
 20
9.7229
  0
VERTEX
  8
LAYER1
 62
     7
  6
CONTINUOUS
 10
6.2058
 20
9.7215
  0
VERTEX
  8
LAYER1
 62
     7
  6
CONTINUOUS
 10
6.2079
 20
9.7202
  0
VERTEX
  8
LAYER1
 62
     7
  6
CONTINUOUS
 10
6.2100
 20
9.7188
  0
VERTEX
  8
LAYER1
 62
     7
  6
CONTINUOUS
 10
6.2121
 20
9.7176
  0
VERTEX
  8
LAYER1
 62
     7
  6
CONTINUOUS
 10
6.2142
 20
9.7164
  0
VERTEX
  8
LAYER1
 62
     7
  6
CONTINUOUS
 10
6.2164
 20
9.7153
  0
VERTEX
  8
LAYER1
 62
     7
  6
CONTINUOUS
 10
6.2186
 20
9.7144
  0
VERTEX
  8
LAYER1
 62
     7
  6
CONTINUOUS
 10
6.2214
 20
9.7134
  0
VERTEX
  8
LAYER1
 62
     7
  6
CONTINUOUS
 10
6.2242
 20
9.7127
  0
VERTEX
  8
LAYER1
 62
     7
  6
CONTINUOUS
 10
6.2270
 20
9.7121
  0
VERTEX
  8
LAYER1
 62
     7
  6
CONTINUOUS
 10
6.2299
 20
9.7117
  0
VERTEX
  8
LAYER1
 62
     7
  6
CONTINUOUS
 10
6.2329
 20
9.7113
  0
VERTEX
  8
LAYER1
 62
     7
  6
CONTINUOUS
 10
6.2358
 20
9.7111
  0
VERTEX
  8
LAYER1
 62
     7
  6
CONTINUOUS
 10
6.2388
 20
9.7109
  0
VERTEX
  8
LAYER1
 62
     7
  6
CONTINUOUS
 10
6.2417
 20
9.7108
  0
VERTEX
  8
LAYER1
 62
     7
  6
CONTINUOUS
 10
6.2447
 20
9.7106
  0
VERTEX
  8
LAYER1
 62
     7
  6
CONTINUOUS
 10
6.2477
 20
9.7104
  0
VERTEX
  8
LAYER1
 62
     7
  6
CONTINUOUS
 10
6.2506
 20
9.7101
  0
VERTEX
  8
LAYER1
 62
     7
  6
CONTINUOUS
 10
6.2535
 20
9.7098
  0
VERTEX
  8
LAYER1
 62
     7
  6
CONTINUOUS
 10
6.2561
 20
9.7093
  0
VERTEX
  8
LAYER1
 62
     7
  6
CONTINUOUS
 10
6.2587
 20
9.7088
  0
VERTEX
  8
LAYER1
 62
     7
  6
CONTINUOUS
 10
6.2612
 20
9.7082
  0
VERTEX
  8
LAYER1
 62
     7
  6
CONTINUOUS
 10
6.2637
 20
9.7075
  0
VERTEX
  8
LAYER1
 62
     7
  6
CONTINUOUS
 10
6.2662
 20
9.7068
  0
VERTEX
  8
LAYER1
 62
     7
  6
CONTINUOUS
 10
6.2687
 20
9.7060
  0
VERTEX
  8
LAYER1
 62
     7
  6
CONTINUOUS
 10
6.2712
 20
9.7051
  0
VERTEX
  8
LAYER1
 62
     7
  6
CONTINUOUS
 10
6.2737
 20
9.7042
  0
VERTEX
  8
LAYER1
 62
     7
  6
CONTINUOUS
 10
6.2761
 20
9.7032
  0
VERTEX
  8
LAYER1
 62
     7
  6
CONTINUOUS
 10
6.2786
 20
9.7022
  0
VERTEX
  8
LAYER1
 62
     7
  6
CONTINUOUS
 10
6.2810
 20
9.7012
  0
VERTEX
  8
LAYER1
 62
     7
  6
CONTINUOUS
 10
6.2835
 20
9.7001
  0
VERTEX
  8
LAYER1
 62
     7
  6
CONTINUOUS
 10
6.2861
 20
9.6990
  0
VERTEX
  8
LAYER1
 62
     7
  6
CONTINUOUS
 10
6.2887
 20
9.6979
  0
VERTEX
  8
LAYER1
 62
     7
  6
CONTINUOUS
 10
6.2914
 20
9.6967
  0
VERTEX
  8
LAYER1
 62
     7
  6
CONTINUOUS
 10
6.2940
 20
9.6956
  0
VERTEX
  8
LAYER1
 62
     7
  6
CONTINUOUS
 10
6.2965
 20
9.6944
  0
VERTEX
  8
LAYER1
 62
     7
  6
CONTINUOUS
 10
6.2991
 20
9.6932
  0
VERTEX
  8
LAYER1
 62
     7
  6
CONTINUOUS
 10
6.3016
 20
9.6920
  0
VERTEX
  8
LAYER1
 62
     7
  6
CONTINUOUS
 10
6.3041
 20
9.6907
  0
VERTEX
  8
LAYER1
 62
     7
  6
CONTINUOUS
 10
6.3065
 20
9.6895
  0
VERTEX
  8
LAYER1
 62
     7
  6
CONTINUOUS
 10
6.3089
 20
9.6882
  0
VERTEX
  8
LAYER1
 62
     7
  6
CONTINUOUS
 10
6.3113
 20
9.6869
  0
VERTEX
  8
LAYER1
 62
     7
  6
CONTINUOUS
 10
6.3135
 20
9.6855
  0
VERTEX
  8
LAYER1
 62
     7
  6
CONTINUOUS
 10
6.3156
 20
9.6842
  0
VERTEX
  8
LAYER1
 62
     7
  6
CONTINUOUS
 10
6.3177
 20
9.6829
  0
VERTEX
  8
LAYER1
 62
     7
  6
CONTINUOUS
 10
6.3197
 20
9.6816
  0
VERTEX
  8
LAYER1
 62
     7
  6
CONTINUOUS
 10
6.3217
 20
9.6801
  0
VERTEX
  8
LAYER1
 62
     7
  6
CONTINUOUS
 10
6.3237
 20
9.6787
  0
VERTEX
  8
LAYER1
 62
     7
  6
CONTINUOUS
 10
6.3257
 20
9.6771
  0
VERTEX
  8
LAYER1
 62
     7
  6
CONTINUOUS
 10
6.3277
 20
9.6755
  0
VERTEX
  8
LAYER1
 62
     7
  6
CONTINUOUS
 10
6.3298
 20
9.6738
  0
VERTEX
  8
LAYER1
 62
     7
  6
CONTINUOUS
 10
6.3319
 20
9.6720
  0
VERTEX
  8
LAYER1
 62
     7
  6
CONTINUOUS
 10
6.3341
 20
9.6701
  0
VERTEX
  8
LAYER1
 62
     7
  6
CONTINUOUS
 10
6.3363
 20
9.6681
  0
VERTEX
  8
LAYER1
 62
     7
  6
CONTINUOUS
 10
6.3386
 20
9.6659
  0
VERTEX
  8
LAYER1
 62
     7
  6
CONTINUOUS
 10
6.3419
 20
9.6629
  0
VERTEX
  8
LAYER1
 62
     7
  6
CONTINUOUS
 10
6.3453
 20
9.6596
  0
VERTEX
  8
LAYER1
 62
     7
  6
CONTINUOUS
 10
6.3487
 20
9.6564
  0
VERTEX
  8
LAYER1
 62
     7
  6
CONTINUOUS
 10
6.3521
 20
9.6531
  0
VERTEX
  8
LAYER1
 62
     7
  6
CONTINUOUS
 10
6.3553
 20
9.6499
  0
VERTEX
  8
LAYER1
 62
     7
  6
CONTINUOUS
 10
6.3584
 20
9.6468
  0
VERTEX
  8
LAYER1
 62
     7
  6
CONTINUOUS
 10
6.3612
 20
9.6440
  0
VERTEX
  8
LAYER1
 62
     7
  6
CONTINUOUS
 10
6.3637
 20
9.6415
  0
VERTEX
  8
LAYER1
 62
     7
  6
CONTINUOUS
 10
6.3658
 20
9.6395
  0
VERTEX
  8
LAYER1
 62
     7
  6
CONTINUOUS
 10
6.3674
 20
9.6378
  0
VERTEX
  8
LAYER1
 62
     7
  6
CONTINUOUS
 10
6.3684
 20
9.6368
  0
VERTEX
  8
LAYER1
 62
     7
  6
CONTINUOUS
 10
6.3688
 20
9.6364
  0
VERTEX
  8
LAYER1
 62
     7
  6
CONTINUOUS
 10
6.3688
 20
9.6364
  0
VERTEX
  8
LAYER1
 62
     7
  6
CONTINUOUS
 10
6.3688
 20
9.6364
  0
VERTEX
  8
LAYER1
 62
     7
  6
CONTINUOUS
 10
6.3688
 20
9.6364
  0
VERTEX
  8
LAYER1
 62
     7
  6
CONTINUOUS
 10
6.3688
 20
9.6364
  0
VERTEX
  8
LAYER1
 62
     7
  6
CONTINUOUS
 10
6.3688
 20
9.6364
  0
VERTEX
  8
LAYER1
 62
     7
  6
CONTINUOUS
 10
6.3688
 20
9.6364
  0
VERTEX
  8
LAYER1
 62
     7
  6
CONTINUOUS
 10
6.3688
 20
9.6364
  0
VERTEX
  8
LAYER1
 62
     7
  6
CONTINUOUS
 10
6.3688
 20
9.6364
  0
VERTEX
  8
LAYER1
 62
     7
  6
CONTINUOUS
 10
6.3688
 20
9.6364
  0
VERTEX
  8
LAYER1
 62
     7
  6
CONTINUOUS
 10
6.3688
 20
9.6364
  0
VERTEX
  8
LAYER1
 62
     7
  6
CONTINUOUS
 10
6.3688
 20
9.6364
  0
VERTEX
  8
LAYER1
 62
     7
  6
CONTINUOUS
 10
6.3688
 20
9.6364
  0
VERTEX
  8
LAYER1
 62
     7
  6
CONTINUOUS
 10
6.3697
 20
9.6356
  0
VERTEX
  8
LAYER1
 62
     7
  6
CONTINUOUS
 10
6.3714
 20
9.6338
  0
VERTEX
  8
LAYER1
 62
     7
  6
CONTINUOUS
 10
6.3739
 20
9.6314
  0
VERTEX
  8
LAYER1
 62
     7
  6
CONTINUOUS
 10
6.3770
 20
9.6285
  0
VERTEX
  8
LAYER1
 62
     7
  6
CONTINUOUS
 10
6.3804
 20
9.6251
  0
VERTEX
  8
LAYER1
 62
     7
  6
CONTINUOUS
 10
6.3840
 20
9.6216
  0
VERTEX
  8
LAYER1
 62
     7
  6
CONTINUOUS
 10
6.3876
 20
9.6181
  0
VERTEX
  8
LAYER1
 62
     7
  6
CONTINUOUS
 10
6.3910
 20
9.6148
  0
VERTEX
  8
LAYER1
 62
     7
  6
CONTINUOUS
 10
6.3940
 20
9.6118
  0
VERTEX
  8
LAYER1
 62
     7
  6
CONTINUOUS
 10
6.3965
 20
9.6094
  0
VERTEX
  8
LAYER1
 62
     7
  6
CONTINUOUS
 10
6.3982
 20
9.6077
  0
VERTEX
  8
LAYER1
 62
     7
  6
CONTINUOUS
 10
6.3990
 20
9.6068
  0
VERTEX
  8
LAYER1
 62
     7
  6
CONTINUOUS
 10
6.3991
 20
9.6068
  0
VERTEX
  8
LAYER1
 62
     7
  6
CONTINUOUS
 10
6.3991
 20
9.6068
  0
VERTEX
  8
LAYER1
 62
     7
  6
CONTINUOUS
 10
6.3991
 20
9.6068
  0
VERTEX
  8
LAYER1
 62
     7
  6
CONTINUOUS
 10
6.3991
 20
9.6068
  0
VERTEX
  8
LAYER1
 62
     7
  6
CONTINUOUS
 10
6.3991
 20
9.6068
  0
VERTEX
  8
LAYER1
 62
     7
  6
CONTINUOUS
 10
6.3991
 20
9.6068
  0
VERTEX
  8
LAYER1
 62
     7
  6
CONTINUOUS
 10
6.3990
 20
9.6068
  0
VERTEX
  8
LAYER1
 62
     7
  6
CONTINUOUS
 10
6.3990
 20
9.6068
  0
VERTEX
  8
LAYER1
 62
     7
  6
CONTINUOUS
 10
6.3990
 20
9.6068
  0
VERTEX
  8
LAYER1
 62
     7
  6
CONTINUOUS
 10
6.3990
 20
9.6068
  0
VERTEX
  8
LAYER1
 62
     7
  6
CONTINUOUS
 10
6.3990
 20
9.6068
  0
VERTEX
  8
LAYER1
 62
     7
  6
CONTINUOUS
 10
6.3990
 20
9.6068
  0
VERTEX
  8
LAYER1
 62
     7
  6
CONTINUOUS
 10
6.3995
 20
9.6066
  0
VERTEX
  8
LAYER1
 62
     7
  6
CONTINUOUS
 10
6.4006
 20
9.6059
  0
VERTEX
  8
LAYER1
 62
     7
  6
CONTINUOUS
 10
6.4022
 20
9.6049
  0
VERTEX
  8
LAYER1
 62
     7
  6
CONTINUOUS
 10
6.4043
 20
9.6036
  0
VERTEX
  8
LAYER1
 62
     7
  6
CONTINUOUS
 10
6.4068
 20
9.6020
  0
VERTEX
  8
LAYER1
 62
     7
  6
CONTINUOUS
 10
6.4096
 20
9.6002
  0
VERTEX
  8
LAYER1
 62
     7
  6
CONTINUOUS
 10
6.4126
 20
9.5982
  0
VERTEX
  8
LAYER1
 62
     7
  6
CONTINUOUS
 10
6.4159
 20
9.5961
  0
VERTEX
  8
LAYER1
 62
     7
  6
CONTINUOUS
 10
6.4192
 20
9.5939
  0
VERTEX
  8
LAYER1
 62
     7
  6
CONTINUOUS
 10
6.4226
 20
9.5917
  0
VERTEX
  8
LAYER1
 62
     7
  6
CONTINUOUS
 10
6.4259
 20
9.5894
  0
VERTEX
  8
LAYER1
 62
     7
  6
CONTINUOUS
 10
6.4291
 20
9.5872
  0
VERTEX
  8
LAYER1
 62
     7
  6
CONTINUOUS
 10
6.4324
 20
9.5850
  0
VERTEX
  8
LAYER1
 62
     7
  6
CONTINUOUS
 10
6.4355
 20
9.5828
  0
VERTEX
  8
LAYER1
 62
     7
  6
CONTINUOUS
 10
6.4384
 20
9.5808
  0
VERTEX
  8
LAYER1
 62
     7
  6
CONTINUOUS
 10
6.4411
 20
9.5787
  0
VERTEX
  8
LAYER1
 62
     7
  6
CONTINUOUS
 10
6.4437
 20
9.5768
  0
VERTEX
  8
LAYER1
 62
     7
  6
CONTINUOUS
 10
6.4462
 20
9.5748
  0
VERTEX
  8
LAYER1
 62
     7
  6
CONTINUOUS
 10
6.4486
 20
9.5729
  0
VERTEX
  8
LAYER1
 62
     7
  6
CONTINUOUS
 10
6.4508
 20
9.5710
  0
VERTEX
  8
LAYER1
 62
     7
  6
CONTINUOUS
 10
6.4530
 20
9.5690
  0
VERTEX
  8
LAYER1
 62
     7
  6
CONTINUOUS
 10
6.4551
 20
9.5669
  0
VERTEX
  8
LAYER1
 62
     7
  6
CONTINUOUS
 10
6.4572
 20
9.5649
  0
VERTEX
  8
LAYER1
 62
     7
  6
CONTINUOUS
 10
6.4593
 20
9.5627
  0
VERTEX
  8
LAYER1
 62
     7
  6
CONTINUOUS
 10
6.4609
 20
9.5608
  0
VERTEX
  8
LAYER1
 62
     7
  6
CONTINUOUS
 10
6.4626
 20
9.5589
  0
VERTEX
  8
LAYER1
 62
     7
  6
CONTINUOUS
 10
6.4643
 20
9.5569
  0
VERTEX
  8
LAYER1
 62
     7
  6
CONTINUOUS
 10
6.4660
 20
9.5549
  0
VERTEX
  8
LAYER1
 62
     7
  6
CONTINUOUS
 10
6.4676
 20
9.5529
  0
VERTEX
  8
LAYER1
 62
     7
  6
CONTINUOUS
 10
6.4693
 20
9.5508
  0
VERTEX
  8
LAYER1
 62
     7
  6
CONTINUOUS
 10
6.4710
 20
9.5487
  0
VERTEX
  8
LAYER1
 62
     7
  6
CONTINUOUS
 10
6.4727
 20
9.5465
  0
VERTEX
  8
LAYER1
 62
     7
  6
CONTINUOUS
 10
6.4744
 20
9.5444
  0
VERTEX
  8
LAYER1
 62
     7
  6
CONTINUOUS
 10
6.4760
 20
9.5423
  0
VERTEX
  8
LAYER1
 62
     7
  6
CONTINUOUS
 10
6.4777
 20
9.5401
  0
VERTEX
  8
LAYER1
 62
     7
  6
CONTINUOUS
 10
6.4794
 20
9.5380
  0
VERTEX
  8
LAYER1
 62
     7
  6
CONTINUOUS
 10
6.4811
 20
9.5359
  0
VERTEX
  8
LAYER1
 62
     7
  6
CONTINUOUS
 10
6.4828
 20
9.5339
  0
VERTEX
  8
LAYER1
 62
     7
  6
CONTINUOUS
 10
6.4845
 20
9.5318
  0
VERTEX
  8
LAYER1
 62
     7
  6
CONTINUOUS
 10
6.4863
 20
9.5298
  0
VERTEX
  8
LAYER1
 62
     7
  6
CONTINUOUS
 10
6.4880
 20
9.5278
  0
VERTEX
  8
LAYER1
 62
     7
  6
CONTINUOUS
 10
6.4897
 20
9.5258
  0
VERTEX
  8
LAYER1
 62
     7
  6
CONTINUOUS
 10
6.4914
 20
9.5238
  0
VERTEX
  8
LAYER1
 62
     7
  6
CONTINUOUS
 10
6.4931
 20
9.5219
  0
VERTEX
  8
LAYER1
 62
     7
  6
CONTINUOUS
 10
6.4949
 20
9.5199
  0
VERTEX
  8
LAYER1
 62
     7
  6
CONTINUOUS
 10
6.4966
 20
9.5179
  0
VERTEX
  8
LAYER1
 62
     7
  6
CONTINUOUS
 10
6.4983
 20
9.5160
  0
VERTEX
  8
LAYER1
 62
     7
  6
CONTINUOUS
 10
6.5001
 20
9.5140
  0
SEQEND
  8
LAYER1
  0
POLYLINE
  8
LAYER1
 62
     7
 66
     1
  6
CONTINUOUS
  0
VERTEX
  8
LAYER1
 62
     7
  6
CONTINUOUS
 10
6.5012
 20
9.5140
  0
VERTEX
  8
LAYER1
 62
     7
  6
CONTINUOUS
 10
6.5011
 20
9.5140
  0
VERTEX
  8
LAYER1
 62
     7
  6
CONTINUOUS
 10
6.5010
 20
9.5140
  0
VERTEX
  8
LAYER1
 62
     7
  6
CONTINUOUS
 10
6.5009
 20
9.5140
  0
VERTEX
  8
LAYER1
 62
     7
  6
CONTINUOUS
 10
6.5008
 20
9.5140
  0
VERTEX
  8
LAYER1
 62
     7
  6
CONTINUOUS
 10
6.5007
 20
9.5140
  0
VERTEX
  8
LAYER1
 62
     7
  6
CONTINUOUS
 10
6.5006
 20
9.5140
  0
VERTEX
  8
LAYER1
 62
     7
  6
CONTINUOUS
 10
6.5005
 20
9.5140
  0
VERTEX
  8
LAYER1
 62
     7
  6
CONTINUOUS
 10
6.5004
 20
9.5140
  0
VERTEX
  8
LAYER1
 62
     7
  6
CONTINUOUS
 10
6.5003
 20
9.5140
  0
VERTEX
  8
LAYER1
 62
     7
  6
CONTINUOUS
 10
6.5002
 20
9.5140
  0
VERTEX
  8
LAYER1
 62
     7
  6
CONTINUOUS
 10
6.5001
 20
9.5140
  0
VERTEX
  8
LAYER1
 62
     7
  6
CONTINUOUS
 10
6.5001
 20
9.5140
  0
VERTEX
  8
LAYER1
 62
     7
  6
CONTINUOUS
 10
6.4998
 20
9.5140
  0
VERTEX
  8
LAYER1
 62
     7
  6
CONTINUOUS
 10
6.4996
 20
9.5140
  0
VERTEX
  8
LAYER1
 62
     7
  6
CONTINUOUS
 10
6.4995
 20
9.5140
  0
VERTEX
  8
LAYER1
 62
     7
  6
CONTINUOUS
 10
6.4994
 20
9.5140
  0
VERTEX
  8
LAYER1
 62
     7
  6
CONTINUOUS
 10
6.4994
 20
9.5140
  0
VERTEX
  8
LAYER1
 62
     7
  6
CONTINUOUS
 10
6.4994
 20
9.5140
  0
VERTEX
  8
LAYER1
 62
     7
  6
CONTINUOUS
 10
6.4994
 20
9.5140
  0
VERTEX
  8
LAYER1
 62
     7
  6
CONTINUOUS
 10
6.4995
 20
9.5140
  0
VERTEX
  8
LAYER1
 62
     7
  6
CONTINUOUS
 10
6.4996
 20
9.5140
  0
VERTEX
  8
LAYER1
 62
     7
  6
CONTINUOUS
 10
6.4998
 20
9.5140
  0
VERTEX
  8
LAYER1
 62
     7
  6
CONTINUOUS
 10
6.4999
 20
9.5140
  0
VERTEX
  8
LAYER1
 62
     7
  6
CONTINUOUS
 10
6.5001
 20
9.5140
  0
SEQEND
  8
LAYER1
  0
POLYLINE
  8
LAYER1
 62
     7
 66
     1
  6
CONTINUOUS
  0
VERTEX
  8
LAYER1
 62
     7
  6
CONTINUOUS
 10
6.5780
 20
10.5370
  0
VERTEX
  8
LAYER1
 62
     7
  6
CONTINUOUS
 10
6.5780
 20
10.5370
  0
VERTEX
  8
LAYER1
 62
     7
  6
CONTINUOUS
 10
6.5780
 20
10.5370
  0
VERTEX
  8
LAYER1
 62
     7
  6
CONTINUOUS
 10
6.5780
 20
10.5370
  0
VERTEX
  8
LAYER1
 62
     7
  6
CONTINUOUS
 10
6.5780
 20
10.5369
  0
VERTEX
  8
LAYER1
 62
     7
  6
CONTINUOUS
 10
6.5780
 20
10.5369
  0
VERTEX
  8
LAYER1
 62
     7
  6
CONTINUOUS
 10
6.5780
 20
10.5369
  0
VERTEX
  8
LAYER1
 62
     7
  6
CONTINUOUS
 10
6.5780
 20
10.5369
  0
VERTEX
  8
LAYER1
 62
     7
  6
CONTINUOUS
 10
6.5780
 20
10.5369
  0
VERTEX
  8
LAYER1
 62
     7
  6
CONTINUOUS
 10
6.5780
 20
10.5369
  0
VERTEX
  8
LAYER1
 62
     7
  6
CONTINUOUS
 10
6.5780
 20
10.5369
  0
VERTEX
  8
LAYER1
 62
     7
  6
CONTINUOUS
 10
6.5780
 20
10.5369
  0
VERTEX
  8
LAYER1
 62
     7
  6
CONTINUOUS
 10
6.5780
 20
10.5369
  0
VERTEX
  8
LAYER1
 62
     7
  6
CONTINUOUS
 10
6.5780
 20
10.5366
  0
VERTEX
  8
LAYER1
 62
     7
  6
CONTINUOUS
 10
6.5780
 20
10.5363
  0
VERTEX
  8
LAYER1
 62
     7
  6
CONTINUOUS
 10
6.5780
 20
10.5362
  0
VERTEX
  8
LAYER1
 62
     7
  6
CONTINUOUS
 10
6.5780
 20
10.5361
  0
VERTEX
  8
LAYER1
 62
     7
  6
CONTINUOUS
 10
6.5780
 20
10.5361
  0
VERTEX
  8
LAYER1
 62
     7
  6
CONTINUOUS
 10
6.5780
 20
10.5361
  0
VERTEX
  8
LAYER1
 62
     7
  6
CONTINUOUS
 10
6.5780
 20
10.5361
  0
VERTEX
  8
LAYER1
 62
     7
  6
CONTINUOUS
 10
6.5780
 20
10.5362
  0
VERTEX
  8
LAYER1
 62
     7
  6
CONTINUOUS
 10
6.5780
 20
10.5364
  0
VERTEX
  8
LAYER1
 62
     7
  6
CONTINUOUS
 10
6.5780
 20
10.5365
  0
VERTEX
  8
LAYER1
 62
     7
  6
CONTINUOUS
 10
6.5780
 20
10.5367
  0
VERTEX
  8
LAYER1
 62
     7
  6
CONTINUOUS
 10
6.5780
 20
10.5369
  0
SEQEND
  8
LAYER1
  0
POLYLINE
  8
LAYER1
 62
     7
 66
     1
  6
CONTINUOUS
  0
VERTEX
  8
LAYER1
 62
     7
  6
CONTINUOUS
 10
6.5780
 20
10.5369
  0
VERTEX
  8
LAYER1
 62
     7
  6
CONTINUOUS
 10
6.5780
 20
10.5369
  0
VERTEX
  8
LAYER1
 62
     7
  6
CONTINUOUS
 10
6.5780
 20
10.5369
  0
VERTEX
  8
LAYER1
 62
     7
  6
CONTINUOUS
 10
6.5780
 20
10.5369
  0
VERTEX
  8
LAYER1
 62
     7
  6
CONTINUOUS
 10
6.5780
 20
10.5369
  0
VERTEX
  8
LAYER1
 62
     7
  6
CONTINUOUS
 10
6.5780
 20
10.5369
  0
VERTEX
  8
LAYER1
 62
     7
  6
CONTINUOUS
 10
6.5780
 20
10.5369
  0
VERTEX
  8
LAYER1
 62
     7
  6
CONTINUOUS
 10
6.5780
 20
10.5369
  0
VERTEX
  8
LAYER1
 62
     7
  6
CONTINUOUS
 10
6.5780
 20
10.5369
  0
VERTEX
  8
LAYER1
 62
     7
  6
CONTINUOUS
 10
6.5780
 20
10.5370
  0
VERTEX
  8
LAYER1
 62
     7
  6
CONTINUOUS
 10
6.5780
 20
10.5370
  0
VERTEX
  8
LAYER1
 62
     7
  6
CONTINUOUS
 10
6.5780
 20
10.5370
  0
VERTEX
  8
LAYER1
 62
     7
  6
CONTINUOUS
 10
6.5780
 20
10.5370
  0
VERTEX
  8
LAYER1
 62
     7
  6
CONTINUOUS
 10
6.5780
 20
10.5373
  0
VERTEX
  8
LAYER1
 62
     7
  6
CONTINUOUS
 10
6.5780
 20
10.5375
  0
VERTEX
  8
LAYER1
 62
     7
  6
CONTINUOUS
 10
6.5780
 20
10.5377
  0
VERTEX
  8
LAYER1
 62
     7
  6
CONTINUOUS
 10
6.5780
 20
10.5378
  0
VERTEX
  8
LAYER1
 62
     7
  6
CONTINUOUS
 10
6.5780
 20
10.5378
  0
VERTEX
  8
LAYER1
 62
     7
  6
CONTINUOUS
 10
6.5780
 20
10.5378
  0
VERTEX
  8
LAYER1
 62
     7
  6
CONTINUOUS
 10
6.5780
 20
10.5377
  0
VERTEX
  8
LAYER1
 62
     7
  6
CONTINUOUS
 10
6.5780
 20
10.5376
  0
VERTEX
  8
LAYER1
 62
     7
  6
CONTINUOUS
 10
6.5780
 20
10.5375
  0
VERTEX
  8
LAYER1
 62
     7
  6
CONTINUOUS
 10
6.5780
 20
10.5373
  0
VERTEX
  8
LAYER1
 62
     7
  6
CONTINUOUS
 10
6.5780
 20
10.5371
  0
VERTEX
  8
LAYER1
 62
     7
  6
CONTINUOUS
 10
6.5780
 20
10.5370
  0
SEQEND
  8
LAYER1
  0
POLYLINE
  8
LAYER1
 62
     7
 66
     1
  6
CONTINUOUS
  0
VERTEX
  8
LAYER1
 62
     7
  6
CONTINUOUS
 10
6.5780
 20
10.5370
  0
VERTEX
  8
LAYER1
 62
     7
  6
CONTINUOUS
 10
6.5780
 20
10.5353
  0
VERTEX
  8
LAYER1
 62
     7
  6
CONTINUOUS
 10
6.5779
 20
10.5336
  0
VERTEX
  8
LAYER1
 62
     7
  6
CONTINUOUS
 10
6.5779
 20
10.5319
  0
VERTEX
  8
LAYER1
 62
     7
  6
CONTINUOUS
 10
6.5778
 20
10.5302
  0
VERTEX
  8
LAYER1
 62
     7
  6
CONTINUOUS
 10
6.5778
 20
10.5285
  0
VERTEX
  8
LAYER1
 62
     7
  6
CONTINUOUS
 10
6.5778
 20
10.5267
  0
VERTEX
  8
LAYER1
 62
     7
  6
CONTINUOUS
 10
6.5778
 20
10.5249
  0
VERTEX
  8
LAYER1
 62
     7
  6
CONTINUOUS
 10
6.5779
 20
10.5230
  0
VERTEX
  8
LAYER1
 62
     7
  6
CONTINUOUS
 10
6.5779
 20
10.5211
  0
VERTEX
  8
LAYER1
 62
     7
  6
CONTINUOUS
 10
6.5780
 20
10.5191
  0
VERTEX
  8
LAYER1
 62
     7
  6
CONTINUOUS
 10
6.5781
 20
10.5170
  0
VERTEX
  8
LAYER1
 62
     7
  6
CONTINUOUS
 10
6.5782
 20
10.5149
  0
VERTEX
  8
LAYER1
 62
     7
  6
CONTINUOUS
 10
6.5786
 20
10.5102
  0
VERTEX
  8
LAYER1
 62
     7
  6
CONTINUOUS
 10
6.5790
 20
10.5054
  0
VERTEX
  8
LAYER1
 62
     7
  6
CONTINUOUS
 10
6.5796
 20
10.5004
  0
VERTEX
  8
LAYER1
 62
     7
  6
CONTINUOUS
 10
6.5802
 20
10.4954
  0
VERTEX
  8
LAYER1
 62
     7
  6
CONTINUOUS
 10
6.5808
 20
10.4906
  0
VERTEX
  8
LAYER1
 62
     7
  6
CONTINUOUS
 10
6.5814
 20
10.4860
  0
VERTEX
  8
LAYER1
 62
     7
  6
CONTINUOUS
 10
6.5820
 20
10.4817
  0
VERTEX
  8
LAYER1
 62
     7
  6
CONTINUOUS
 10
6.5825
 20
10.4780
  0
VERTEX
  8
LAYER1
 62
     7
  6
CONTINUOUS
 10
6.5830
 20
10.4748
  0
VERTEX
  8
LAYER1
 62
     7
  6
CONTINUOUS
 10
6.5834
 20
10.4724
  0
VERTEX
  8
LAYER1
 62
     7
  6
CONTINUOUS
 10
6.5836
 20
10.4708
  0
VERTEX
  8
LAYER1
 62
     7
  6
CONTINUOUS
 10
6.5837
 20
10.4701
  0
VERTEX
  8
LAYER1
 62
     7
  6
CONTINUOUS
 10
6.5837
 20
10.4701
  0
VERTEX
  8
LAYER1
 62
     7
  6
CONTINUOUS
 10
6.5837
 20
10.4701
  0
VERTEX
  8
LAYER1
 62
     7
  6
CONTINUOUS
 10
6.5837
 20
10.4701
  0
VERTEX
  8
LAYER1
 62
     7
  6
CONTINUOUS
 10
6.5837
 20
10.4701
  0
VERTEX
  8
LAYER1
 62
     7
  6
CONTINUOUS
 10
6.5837
 20
10.4701
  0
VERTEX
  8
LAYER1
 62
     7
  6
CONTINUOUS
 10
6.5837
 20
10.4702
  0
VERTEX
  8
LAYER1
 62
     7
  6
CONTINUOUS
 10
6.5836
 20
10.4702
  0
VERTEX
  8
LAYER1
 62
     7
  6
CONTINUOUS
 10
6.5836
 20
10.4702
  0
VERTEX
  8
LAYER1
 62
     7
  6
CONTINUOUS
 10
6.5837
 20
10.4702
  0
VERTEX
  8
LAYER1
 62
     7
  6
CONTINUOUS
 10
6.5837
 20
10.4702
  0
VERTEX
  8
LAYER1
 62
     7
  6
CONTINUOUS
 10
6.5837
 20
10.4701
  0
VERTEX
  8
LAYER1
 62
     7
  6
CONTINUOUS
 10
6.5837
 20
10.4701
  0
VERTEX
  8
LAYER1
 62
     7
  6
CONTINUOUS
 10
6.5839
 20
10.4695
  0
VERTEX
  8
LAYER1
 62
     7
  6
CONTINUOUS
 10
6.5842
 20
10.4683
  0
VERTEX
  8
LAYER1
 62
     7
  6
CONTINUOUS
 10
6.5847
 20
10.4666
  0
VERTEX
  8
LAYER1
 62
     7
  6
CONTINUOUS
 10
6.5853
 20
10.4644
  0
VERTEX
  8
LAYER1
 62
     7
  6
CONTINUOUS
 10
6.5860
 20
10.4619
  0
VERTEX
  8
LAYER1
 62
     7
  6
CONTINUOUS
 10
6.5866
 20
10.4590
  0
VERTEX
  8
LAYER1
 62
     7
  6
CONTINUOUS
 10
6.5873
 20
10.4560
  0
VERTEX
  8
LAYER1
 62
     7
  6
CONTINUOUS
 10
6.5879
 20
10.4528
  0
VERTEX
  8
LAYER1
 62
     7
  6
CONTINUOUS
 10
6.5884
 20
10.4495
  0
VERTEX
  8
LAYER1
 62
     7
  6
CONTINUOUS
 10
6.5888
 20
10.4463
  0
VERTEX
  8
LAYER1
 62
     7
  6
CONTINUOUS
 10
6.5890
 20
10.4432
  0
VERTEX
  8
LAYER1
 62
     7
  6
CONTINUOUS
 10
6.5890
 20
10.4403
  0
VERTEX
  8
LAYER1
 62
     7
  6
CONTINUOUS
 10
6.5889
 20
10.4395
  0
VERTEX
  8
LAYER1
 62
     7
  6
CONTINUOUS
 10
6.5889
 20
10.4387
  0
VERTEX
  8
LAYER1
 62
     7
  6
CONTINUOUS
 10
6.5888
 20
10.4379
  0
VERTEX
  8
LAYER1
 62
     7
  6
CONTINUOUS
 10
6.5887
 20
10.4371
  0
VERTEX
  8
LAYER1
 62
     7
  6
CONTINUOUS
 10
6.5886
 20
10.4364
  0
VERTEX
  8
LAYER1
 62
     7
  6
CONTINUOUS
 10
6.5885
 20
10.4357
  0
VERTEX
  8
LAYER1
 62
     7
  6
CONTINUOUS
 10
6.5884
 20
10.4350
  0
VERTEX
  8
LAYER1
 62
     7
  6
CONTINUOUS
 10
6.5882
 20
10.4342
  0
VERTEX
  8
LAYER1
 62
     7
  6
CONTINUOUS
 10
6.5881
 20
10.4335
  0
VERTEX
  8
LAYER1
 62
     7
  6
CONTINUOUS
 10
6.5879
 20
10.4328
  0
VERTEX
  8
LAYER1
 62
     7
  6
CONTINUOUS
 10
6.5878
 20
10.4321
  0
VERTEX
  8
LAYER1
 62
     7
  6
CONTINUOUS
 10
6.5876
 20
10.4315
  0
SEQEND
  8
LAYER1
  0
POLYLINE
  8
LAYER1
 62
     7
 66
     1
  6
CONTINUOUS
  0
VERTEX
  8
LAYER1
 62
     7
  6
CONTINUOUS
 10
6.1396
 20
10.4315
  0
VERTEX
  8
LAYER1
 62
     7
  6
CONTINUOUS
 10
6.1397
 20
10.4318
  0
VERTEX
  8
LAYER1
 62
     7
  6
CONTINUOUS
 10
6.1399
 20
10.4321
  0
VERTEX
  8
LAYER1
 62
     7
  6
CONTINUOUS
 10
6.1400
 20
10.4324
  0
VERTEX
  8
LAYER1
 62
     7
  6
CONTINUOUS
 10
6.1401
 20
10.4328
  0
VERTEX
  8
LAYER1
 62
     7
  6
CONTINUOUS
 10
6.1402
 20
10.4331
  0
VERTEX
  8
LAYER1
 62
     7
  6
CONTINUOUS
 10
6.1403
 20
10.4334
  0
VERTEX
  8
LAYER1
 62
     7
  6
CONTINUOUS
 10
6.1404
 20
10.4337
  0
VERTEX
  8
LAYER1
 62
     7
  6
CONTINUOUS
 10
6.1406
 20
10.4341
  0
VERTEX
  8
LAYER1
 62
     7
  6
CONTINUOUS
 10
6.1407
 20
10.4344
  0
VERTEX
  8
LAYER1
 62
     7
  6
CONTINUOUS
 10
6.1408
 20
10.4347
  0
VERTEX
  8
LAYER1
 62
     7
  6
CONTINUOUS
 10
6.1409
 20
10.4350
  0
VERTEX
  8
LAYER1
 62
     7
  6
CONTINUOUS
 10
6.1410
 20
10.4354
  0
VERTEX
  8
LAYER1
 62
     7
  6
CONTINUOUS
 10
6.1418
 20
10.4385
  0
VERTEX
  8
LAYER1
 62
     7
  6
CONTINUOUS
 10
6.1422
 20
10.4418
  0
VERTEX
  8
LAYER1
 62
     7
  6
CONTINUOUS
 10
6.1424
 20
10.4450
  0
VERTEX
  8
LAYER1
 62
     7
  6
CONTINUOUS
 10
6.1422
 20
10.4483
  0
VERTEX
  8
LAYER1
 62
     7
  6
CONTINUOUS
 10
6.1419
 20
10.4517
  0
VERTEX
  8
LAYER1
 62
     7
  6
CONTINUOUS
 10
6.1413
 20
10.4550
  0
VERTEX
  8
LAYER1
 62
     7
  6
CONTINUOUS
 10
6.1406
 20
10.4583
  0
VERTEX
  8
LAYER1
 62
     7
  6
CONTINUOUS
 10
6.1397
 20
10.4617
  0
VERTEX
  8
LAYER1
 62
     7
  6
CONTINUOUS
 10
6.1388
 20
10.4651
  0
VERTEX
  8
LAYER1
 62
     7
  6
CONTINUOUS
 10
6.1377
 20
10.4684
  0
VERTEX
  8
LAYER1
 62
     7
  6
CONTINUOUS
 10
6.1367
 20
10.4718
  0
VERTEX
  8
LAYER1
 62
     7
  6
CONTINUOUS
 10
6.1356
 20
10.4751
  0
VERTEX
  8
LAYER1
 62
     7
  6
CONTINUOUS
 10
6.1348
 20
10.4776
  0
VERTEX
  8
LAYER1
 62
     7
  6
CONTINUOUS
 10
6.1340
 20
10.4802
  0
VERTEX
  8
LAYER1
 62
     7
  6
CONTINUOUS
 10
6.1333
 20
10.4827
  0
VERTEX
  8
LAYER1
 62
     7
  6
CONTINUOUS
 10
6.1326
 20
10.4851
  0
VERTEX
  8
LAYER1
 62
     7
  6
CONTINUOUS
 10
6.1320
 20
10.4876
  0
VERTEX
  8
LAYER1
 62
     7
  6
CONTINUOUS
 10
6.1314
 20
10.4901
  0
VERTEX
  8
LAYER1
 62
     7
  6
CONTINUOUS
 10
6.1310
 20
10.4926
  0
VERTEX
  8
LAYER1
 62
     7
  6
CONTINUOUS
 10
6.1306
 20
10.4951
  0
VERTEX
  8
LAYER1
 62
     7
  6
CONTINUOUS
 10
6.1303
 20
10.4975
  0
VERTEX
  8
LAYER1
 62
     7
  6
CONTINUOUS
 10
6.1302
 20
10.5000
  0
VERTEX
  8
LAYER1
 62
     7
  6
CONTINUOUS
 10
6.1301
 20
10.5025
  0
VERTEX
  8
LAYER1
 62
     7
  6
CONTINUOUS
 10
6.1303
 20
10.5050
  0
VERTEX
  8
LAYER1
 62
     7
  6
CONTINUOUS
 10
6.1304
 20
10.5066
  0
VERTEX
  8
LAYER1
 62
     7
  6
CONTINUOUS
 10
6.1307
 20
10.5083
  0
VERTEX
  8
LAYER1
 62
     7
  6
CONTINUOUS
 10
6.1309
 20
10.5100
  0
VERTEX
  8
LAYER1
 62
     7
  6
CONTINUOUS
 10
6.1313
 20
10.5116
  0
VERTEX
  8
LAYER1
 62
     7
  6
CONTINUOUS
 10
6.1316
 20
10.5133
  0
VERTEX
  8
LAYER1
 62
     7
  6
CONTINUOUS
 10
6.1321
 20
10.5150
  0
VERTEX
  8
LAYER1
 62
     7
  6
CONTINUOUS
 10
6.1325
 20
10.5166
  0
VERTEX
  8
LAYER1
 62
     7
  6
CONTINUOUS
 10
6.1330
 20
10.5183
  0
VERTEX
  8
LAYER1
 62
     7
  6
CONTINUOUS
 10
6.1335
 20
10.5200
  0
VERTEX
  8
LAYER1
 62
     7
  6
CONTINUOUS
 10
6.1340
 20
10.5216
  0
VERTEX
  8
LAYER1
 62
     7
  6
CONTINUOUS
 10
6.1345
 20
10.5233
  0
VERTEX
  8
LAYER1
 62
     7
  6
CONTINUOUS
 10
6.1350
 20
10.5249
  0
VERTEX
  8
LAYER1
 62
     7
  6
CONTINUOUS
 10
6.1353
 20
10.5259
  0
VERTEX
  8
LAYER1
 62
     7
  6
CONTINUOUS
 10
6.1357
 20
10.5269
  0
VERTEX
  8
LAYER1
 62
     7
  6
CONTINUOUS
 10
6.1360
 20
10.5279
  0
VERTEX
  8
LAYER1
 62
     7
  6
CONTINUOUS
 10
6.1363
 20
10.5289
  0
VERTEX
  8
LAYER1
 62
     7
  6
CONTINUOUS
 10
6.1366
 20
10.5299
  0
VERTEX
  8
LAYER1
 62
     7
  6
CONTINUOUS
 10
6.1369
 20
10.5310
  0
VERTEX
  8
LAYER1
 62
     7
  6
CONTINUOUS
 10
6.1372
 20
10.5320
  0
VERTEX
  8
LAYER1
 62
     7
  6
CONTINUOUS
 10
6.1375
 20
10.5330
  0
VERTEX
  8
LAYER1
 62
     7
  6
CONTINUOUS
 10
6.1378
 20
10.5340
  0
VERTEX
  8
LAYER1
 62
     7
  6
CONTINUOUS
 10
6.1382
 20
10.5350
  0
VERTEX
  8
LAYER1
 62
     7
  6
CONTINUOUS
 10
6.1385
 20
10.5360
  0
VERTEX
  8
LAYER1
 62
     7
  6
CONTINUOUS
 10
6.1388
 20
10.5370
  0
SEQEND
  8
LAYER1
  0
POLYLINE
  8
LAYER1
 62
     7
 66
     1
  6
CONTINUOUS
  0
VERTEX
  8
LAYER1
 62
     7
  6
CONTINUOUS
 10
6.1388
 20
10.5370
  0
VERTEX
  8
LAYER1
 62
     7
  6
CONTINUOUS
 10
6.1388
 20
10.5370
  0
VERTEX
  8
LAYER1
 62
     7
  6
CONTINUOUS
 10
6.1388
 20
10.5370
  0
VERTEX
  8
LAYER1
 62
     7
  6
CONTINUOUS
 10
6.1388
 20
10.5370
  0
VERTEX
  8
LAYER1
 62
     7
  6
CONTINUOUS
 10
6.1388
 20
10.5369
  0
VERTEX
  8
LAYER1
 62
     7
  6
CONTINUOUS
 10
6.1388
 20
10.5369
  0
VERTEX
  8
LAYER1
 62
     7
  6
CONTINUOUS
 10
6.1388
 20
10.5369
  0
VERTEX
  8
LAYER1
 62
     7
  6
CONTINUOUS
 10
6.1388
 20
10.5369
  0
VERTEX
  8
LAYER1
 62
     7
  6
CONTINUOUS
 10
6.1388
 20
10.5369
  0
VERTEX
  8
LAYER1
 62
     7
  6
CONTINUOUS
 10
6.1388
 20
10.5369
  0
VERTEX
  8
LAYER1
 62
     7
  6
CONTINUOUS
 10
6.1388
 20
10.5369
  0
VERTEX
  8
LAYER1
 62
     7
  6
CONTINUOUS
 10
6.1388
 20
10.5369
  0
VERTEX
  8
LAYER1
 62
     7
  6
CONTINUOUS
 10
6.1388
 20
10.5369
  0
VERTEX
  8
LAYER1
 62
     7
  6
CONTINUOUS
 10
6.1387
 20
10.5366
  0
VERTEX
  8
LAYER1
 62
     7
  6
CONTINUOUS
 10
6.1386
 20
10.5364
  0
VERTEX
  8
LAYER1
 62
     7
  6
CONTINUOUS
 10
6.1386
 20
10.5362
  0
VERTEX
  8
LAYER1
 62
     7
  6
CONTINUOUS
 10
6.1385
 20
10.5361
  0
VERTEX
  8
LAYER1
 62
     7
  6
CONTINUOUS
 10
6.1385
 20
10.5361
  0
VERTEX
  8
LAYER1
 62
     7
  6
CONTINUOUS
 10
6.1385
 20
10.5361
  0
VERTEX
  8
LAYER1
 62
     7
  6
CONTINUOUS
 10
6.1386
 20
10.5362
  0
VERTEX
  8
LAYER1
 62
     7
  6
CONTINUOUS
 10
6.1386
 20
10.5363
  0
VERTEX
  8
LAYER1
 62
     7
  6
CONTINUOUS
 10
6.1386
 20
10.5364
  0
VERTEX
  8
LAYER1
 62
     7
  6
CONTINUOUS
 10
6.1387
 20
10.5366
  0
VERTEX
  8
LAYER1
 62
     7
  6
CONTINUOUS
 10
6.1387
 20
10.5367
  0
VERTEX
  8
LAYER1
 62
     7
  6
CONTINUOUS
 10
6.1388
 20
10.5369
  0
SEQEND
  8
LAYER1
  0
POLYLINE
  8
LAYER1
 62
     7
 66
     1
  6
CONTINUOUS
  0
VERTEX
  8
LAYER1
 62
     7
  6
CONTINUOUS
 10
6.1388
 20
10.5369
  0
VERTEX
  8
LAYER1
 62
     7
  6
CONTINUOUS
 10
6.1388
 20
10.5369
  0
VERTEX
  8
LAYER1
 62
     7
  6
CONTINUOUS
 10
6.1388
 20
10.5369
  0
VERTEX
  8
LAYER1
 62
     7
  6
CONTINUOUS
 10
6.1388
 20
10.5369
  0
VERTEX
  8
LAYER1
 62
     7
  6
CONTINUOUS
 10
6.1388
 20
10.5369
  0
VERTEX
  8
LAYER1
 62
     7
  6
CONTINUOUS
 10
6.1388
 20
10.5369
  0
VERTEX
  8
LAYER1
 62
     7
  6
CONTINUOUS
 10
6.1388
 20
10.5369
  0
VERTEX
  8
LAYER1
 62
     7
  6
CONTINUOUS
 10
6.1388
 20
10.5369
  0
VERTEX
  8
LAYER1
 62
     7
  6
CONTINUOUS
 10
6.1388
 20
10.5369
  0
VERTEX
  8
LAYER1
 62
     7
  6
CONTINUOUS
 10
6.1388
 20
10.5370
  0
VERTEX
  8
LAYER1
 62
     7
  6
CONTINUOUS
 10
6.1388
 20
10.5370
  0
VERTEX
  8
LAYER1
 62
     7
  6
CONTINUOUS
 10
6.1388
 20
10.5370
  0
VERTEX
  8
LAYER1
 62
     7
  6
CONTINUOUS
 10
6.1388
 20
10.5370
  0
VERTEX
  8
LAYER1
 62
     7
  6
CONTINUOUS
 10
6.1389
 20
10.5373
  0
VERTEX
  8
LAYER1
 62
     7
  6
CONTINUOUS
 10
6.1390
 20
10.5375
  0
VERTEX
  8
LAYER1
 62
     7
  6
CONTINUOUS
 10
6.1390
 20
10.5376
  0
VERTEX
  8
LAYER1
 62
     7
  6
CONTINUOUS
 10
6.1391
 20
10.5377
  0
VERTEX
  8
LAYER1
 62
     7
  6
CONTINUOUS
 10
6.1391
 20
10.5378
  0
VERTEX
  8
LAYER1
 62
     7
  6
CONTINUOUS
 10
6.1391
 20
10.5377
  0
VERTEX
  8
LAYER1
 62
     7
  6
CONTINUOUS
 10
6.1390
 20
10.5377
  0
VERTEX
  8
LAYER1
 62
     7
  6
CONTINUOUS
 10
6.1390
 20
10.5376
  0
VERTEX
  8
LAYER1
 62
     7
  6
CONTINUOUS
 10
6.1390
 20
10.5375
  0
VERTEX
  8
LAYER1
 62
     7
  6
CONTINUOUS
 10
6.1389
 20
10.5373
  0
VERTEX
  8
LAYER1
 62
     7
  6
CONTINUOUS
 10
6.1388
 20
10.5371
  0
VERTEX
  8
LAYER1
 62
     7
  6
CONTINUOUS
 10
6.1388
 20
10.5370
  0
SEQEND
  8
LAYER1
  0
POLYLINE
  8
LAYER1
 62
     7
 66
     1
  6
CONTINUOUS
  0
VERTEX
  8
LAYER1
 62
     7
  6
CONTINUOUS
 10
6.2265
 20
10.5370
  0
VERTEX
  8
LAYER1
 62
     7
  6
CONTINUOUS
 10
6.2265
 20
10.5370
  0
VERTEX
  8
LAYER1
 62
     7
  6
CONTINUOUS
 10
6.2265
 20
10.5370
  0
VERTEX
  8
LAYER1
 62
     7
  6
CONTINUOUS
 10
6.2265
 20
10.5370
  0
VERTEX
  8
LAYER1
 62
     7
  6
CONTINUOUS
 10
6.2265
 20
10.5369
  0
VERTEX
  8
LAYER1
 62
     7
  6
CONTINUOUS
 10
6.2265
 20
10.5369
  0
VERTEX
  8
LAYER1
 62
     7
  6
CONTINUOUS
 10
6.2265
 20
10.5369
  0
VERTEX
  8
LAYER1
 62
     7
  6
CONTINUOUS
 10
6.2265
 20
10.5369
  0
VERTEX
  8
LAYER1
 62
     7
  6
CONTINUOUS
 10
6.2265
 20
10.5369
  0
VERTEX
  8
LAYER1
 62
     7
  6
CONTINUOUS
 10
6.2265
 20
10.5369
  0
VERTEX
  8
LAYER1
 62
     7
  6
CONTINUOUS
 10
6.2265
 20
10.5369
  0
VERTEX
  8
LAYER1
 62
     7
  6
CONTINUOUS
 10
6.2265
 20
10.5369
  0
VERTEX
  8
LAYER1
 62
     7
  6
CONTINUOUS
 10
6.2265
 20
10.5369
  0
VERTEX
  8
LAYER1
 62
     7
  6
CONTINUOUS
 10
6.2263
 20
10.5366
  0
VERTEX
  8
LAYER1
 62
     7
  6
CONTINUOUS
 10
6.2262
 20
10.5364
  0
VERTEX
  8
LAYER1
 62
     7
  6
CONTINUOUS
 10
6.2261
 20
10.5363
  0
VERTEX
  8
LAYER1
 62
     7
  6
CONTINUOUS
 10
6.2260
 20
10.5362
  0
VERTEX
  8
LAYER1
 62
     7
  6
CONTINUOUS
 10
6.2260
 20
10.5362
  0
VERTEX
  8
LAYER1
 62
     7
  6
CONTINUOUS
 10
6.2260
 20
10.5362
  0
VERTEX
  8
LAYER1
 62
     7
  6
CONTINUOUS
 10
6.2261
 20
10.5363
  0
VERTEX
  8
LAYER1
 62
     7
  6
CONTINUOUS
 10
6.2261
 20
10.5364
  0
VERTEX
  8
LAYER1
 62
     7
  6
CONTINUOUS
 10
6.2262
 20
10.5365
  0
VERTEX
  8
LAYER1
 62
     7
  6
CONTINUOUS
 10
6.2263
 20
10.5366
  0
VERTEX
  8
LAYER1
 62
     7
  6
CONTINUOUS
 10
6.2264
 20
10.5368
  0
VERTEX
  8
LAYER1
 62
     7
  6
CONTINUOUS
 10
6.2265
 20
10.5369
  0
SEQEND
  8
LAYER1
  0
POLYLINE
  8
LAYER1
 62
     7
 66
     1
  6
CONTINUOUS
  0
VERTEX
  8
LAYER1
 62
     7
  6
CONTINUOUS
 10
6.2265
 20
10.5369
  0
VERTEX
  8
LAYER1
 62
     7
  6
CONTINUOUS
 10
6.2265
 20
10.5369
  0
VERTEX
  8
LAYER1
 62
     7
  6
CONTINUOUS
 10
6.2265
 20
10.5369
  0
VERTEX
  8
LAYER1
 62
     7
  6
CONTINUOUS
 10
6.2265
 20
10.5369
  0
VERTEX
  8
LAYER1
 62
     7
  6
CONTINUOUS
 10
6.2265
 20
10.5369
  0
VERTEX
  8
LAYER1
 62
     7
  6
CONTINUOUS
 10
6.2265
 20
10.5369
  0
VERTEX
  8
LAYER1
 62
     7
  6
CONTINUOUS
 10
6.2265
 20
10.5369
  0
VERTEX
  8
LAYER1
 62
     7
  6
CONTINUOUS
 10
6.2265
 20
10.5369
  0
VERTEX
  8
LAYER1
 62
     7
  6
CONTINUOUS
 10
6.2265
 20
10.5369
  0
VERTEX
  8
LAYER1
 62
     7
  6
CONTINUOUS
 10
6.2265
 20
10.5370
  0
VERTEX
  8
LAYER1
 62
     7
  6
CONTINUOUS
 10
6.2265
 20
10.5370
  0
VERTEX
  8
LAYER1
 62
     7
  6
CONTINUOUS
 10
6.2265
 20
10.5370
  0
VERTEX
  8
LAYER1
 62
     7
  6
CONTINUOUS
 10
6.2265
 20
10.5370
  0
VERTEX
  8
LAYER1
 62
     7
  6
CONTINUOUS
 10
6.2267
 20
10.5372
  0
VERTEX
  8
LAYER1
 62
     7
  6
CONTINUOUS
 10
6.2268
 20
10.5374
  0
VERTEX
  8
LAYER1
 62
     7
  6
CONTINUOUS
 10
6.2269
 20
10.5376
  0
VERTEX
  8
LAYER1
 62
     7
  6
CONTINUOUS
 10
6.2270
 20
10.5376
  0
VERTEX
  8
LAYER1
 62
     7
  6
CONTINUOUS
 10
6.2270
 20
10.5377
  0
VERTEX
  8
LAYER1
 62
     7
  6
CONTINUOUS
 10
6.2270
 20
10.5376
  0
VERTEX
  8
LAYER1
 62
     7
  6
CONTINUOUS
 10
6.2269
 20
10.5376
  0
VERTEX
  8
LAYER1
 62
     7
  6
CONTINUOUS
 10
6.2269
 20
10.5375
  0
VERTEX
  8
LAYER1
 62
     7
  6
CONTINUOUS
 10
6.2268
 20
10.5374
  0
VERTEX
  8
LAYER1
 62
     7
  6
CONTINUOUS
 10
6.2267
 20
10.5373
  0
VERTEX
  8
LAYER1
 62
     7
  6
CONTINUOUS
 10
6.2266
 20
10.5371
  0
VERTEX
  8
LAYER1
 62
     7
  6
CONTINUOUS
 10
6.2265
 20
10.5370
  0
SEQEND
  8
LAYER1
  0
POLYLINE
  8
LAYER1
 62
     7
 66
     1
  6
CONTINUOUS
  0
VERTEX
  8
LAYER1
 62
     7
  6
CONTINUOUS
 10
6.2265
 20
10.5370
  0
VERTEX
  8
LAYER1
 62
     7
  6
CONTINUOUS
 10
6.2169
 20
10.5240
  0
VERTEX
  8
LAYER1
 62
     7
  6
CONTINUOUS
 10
6.2075
 20
10.5111
  0
VERTEX
  8
LAYER1
 62
     7
  6
CONTINUOUS
 10
6.1983
 20
10.4986
  0
VERTEX
  8
LAYER1
 62
     7
  6
CONTINUOUS
 10
6.1895
 20
10.4867
  0
VERTEX
  8
LAYER1
 62
     7
  6
CONTINUOUS
 10
6.1812
 20
10.4754
  0
VERTEX
  8
LAYER1
 62
     7
  6
CONTINUOUS
 10
6.1736
 20
10.4651
  0
VERTEX
  8
LAYER1
 62
     7
  6
CONTINUOUS
 10
6.1668
 20
10.4558
  0
VERTEX
  8
LAYER1
 62
     7
  6
CONTINUOUS
 10
6.1609
 20
10.4477
  0
VERTEX
  8
LAYER1
 62
     7
  6
CONTINUOUS
 10
6.1560
 20
10.4411
  0
VERTEX
  8
LAYER1
 62
     7
  6
CONTINUOUS
 10
6.1523
 20
10.4361
  0
VERTEX
  8
LAYER1
 62
     7
  6
CONTINUOUS
 10
6.1499
 20
10.4328
  0
VERTEX
  8
LAYER1
 62
     7
  6
CONTINUOUS
 10
6.1489
 20
10.4315
  0
VERTEX
  8
LAYER1
 62
     7
  6
CONTINUOUS
 10
6.1489
 20
10.4314
  0
VERTEX
  8
LAYER1
 62
     7
  6
CONTINUOUS
 10
6.1489
 20
10.4314
  0
VERTEX
  8
LAYER1
 62
     7
  6
CONTINUOUS
 10
6.1489
 20
10.4314
  0
VERTEX
  8
LAYER1
 62
     7
  6
CONTINUOUS
 10
6.1489
 20
10.4314
  0
VERTEX
  8
LAYER1
 62
     7
  6
CONTINUOUS
 10
6.1489
 20
10.4314
  0
VERTEX
  8
LAYER1
 62
     7
  6
CONTINUOUS
 10
6.1489
 20
10.4314
  0
VERTEX
  8
LAYER1
 62
     7
  6
CONTINUOUS
 10
6.1489
 20
10.4314
  0
VERTEX
  8
LAYER1
 62
     7
  6
CONTINUOUS
 10
6.1489
 20
10.4314
  0
VERTEX
  8
LAYER1
 62
     7
  6
CONTINUOUS
 10
6.1489
 20
10.4314
  0
VERTEX
  8
LAYER1
 62
     7
  6
CONTINUOUS
 10
6.1489
 20
10.4314
  0
VERTEX
  8
LAYER1
 62
     7
  6
CONTINUOUS
 10
6.1489
 20
10.4315
  0
VERTEX
  8
LAYER1
 62
     7
  6
CONTINUOUS
 10
6.1489
 20
10.4315
  0
SEQEND
  8
LAYER1
  0
POLYLINE
  8
LAYER1
 62
     7
 66
     1
  6
CONTINUOUS
  0
VERTEX
  8
LAYER1
 62
     7
  6
CONTINUOUS
 10
6.6409
 20
10.5370
  0
VERTEX
  8
LAYER1
 62
     7
  6
CONTINUOUS
 10
6.6409
 20
10.5370
  0
VERTEX
  8
LAYER1
 62
     7
  6
CONTINUOUS
 10
6.6409
 20
10.5370
  0
VERTEX
  8
LAYER1
 62
     7
  6
CONTINUOUS
 10
6.6409
 20
10.5370
  0
VERTEX
  8
LAYER1
 62
     7
  6
CONTINUOUS
 10
6.6409
 20
10.5369
  0
VERTEX
  8
LAYER1
 62
     7
  6
CONTINUOUS
 10
6.6409
 20
10.5369
  0
VERTEX
  8
LAYER1
 62
     7
  6
CONTINUOUS
 10
6.6409
 20
10.5369
  0
VERTEX
  8
LAYER1
 62
     7
  6
CONTINUOUS
 10
6.6409
 20
10.5369
  0
VERTEX
  8
LAYER1
 62
     7
  6
CONTINUOUS
 10
6.6410
 20
10.5369
  0
VERTEX
  8
LAYER1
 62
     7
  6
CONTINUOUS
 10
6.6410
 20
10.5369
  0
VERTEX
  8
LAYER1
 62
     7
  6
CONTINUOUS
 10
6.6410
 20
10.5369
  0
VERTEX
  8
LAYER1
 62
     7
  6
CONTINUOUS
 10
6.6410
 20
10.5369
  0
VERTEX
  8
LAYER1
 62
     7
  6
CONTINUOUS
 10
6.6410
 20
10.5369
  0
VERTEX
  8
LAYER1
 62
     7
  6
CONTINUOUS
 10
6.6410
 20
10.5366
  0
VERTEX
  8
LAYER1
 62
     7
  6
CONTINUOUS
 10
6.6411
 20
10.5364
  0
VERTEX
  8
LAYER1
 62
     7
  6
CONTINUOUS
 10
6.6412
 20
10.5362
  0
VERTEX
  8
LAYER1
 62
     7
  6
CONTINUOUS
 10
6.6412
 20
10.5361
  0
VERTEX
  8
LAYER1
 62
     7
  6
CONTINUOUS
 10
6.6412
 20
10.5361
  0
VERTEX
  8
LAYER1
 62
     7
  6
CONTINUOUS
 10
6.6412
 20
10.5361
  0
VERTEX
  8
LAYER1
 62
     7
  6
CONTINUOUS
 10
6.6412
 20
10.5362
  0
VERTEX
  8
LAYER1
 62
     7
  6
CONTINUOUS
 10
6.6411
 20
10.5363
  0
VERTEX
  8
LAYER1
 62
     7
  6
CONTINUOUS
 10
6.6411
 20
10.5364
  0
VERTEX
  8
LAYER1
 62
     7
  6
CONTINUOUS
 10
6.6411
 20
10.5366
  0
VERTEX
  8
LAYER1
 62
     7
  6
CONTINUOUS
 10
6.6410
 20
10.5367
  0
VERTEX
  8
LAYER1
 62
     7
  6
CONTINUOUS
 10
6.6410
 20
10.5369
  0
SEQEND
  8
LAYER1
  0
POLYLINE
  8
LAYER1
 62
     7
 66
     1
  6
CONTINUOUS
  0
VERTEX
  8
LAYER1
 62
     7
  6
CONTINUOUS
 10
6.6410
 20
10.5369
  0
VERTEX
  8
LAYER1
 62
     7
  6
CONTINUOUS
 10
6.6410
 20
10.5369
  0
VERTEX
  8
LAYER1
 62
     7
  6
CONTINUOUS
 10
6.6410
 20
10.5369
  0
VERTEX
  8
LAYER1
 62
     7
  6
CONTINUOUS
 10
6.6410
 20
10.5369
  0
VERTEX
  8
LAYER1
 62
     7
  6
CONTINUOUS
 10
6.6410
 20
10.5369
  0
VERTEX
  8
LAYER1
 62
     7
  6
CONTINUOUS
 10
6.6409
 20
10.5369
  0
VERTEX
  8
LAYER1
 62
     7
  6
CONTINUOUS
 10
6.6409
 20
10.5369
  0
VERTEX
  8
LAYER1
 62
     7
  6
CONTINUOUS
 10
6.6409
 20
10.5369
  0
VERTEX
  8
LAYER1
 62
     7
  6
CONTINUOUS
 10
6.6409
 20
10.5369
  0
VERTEX
  8
LAYER1
 62
     7
  6
CONTINUOUS
 10
6.6409
 20
10.5370
  0
VERTEX
  8
LAYER1
 62
     7
  6
CONTINUOUS
 10
6.6409
 20
10.5370
  0
VERTEX
  8
LAYER1
 62
     7
  6
CONTINUOUS
 10
6.6409
 20
10.5370
  0
VERTEX
  8
LAYER1
 62
     7
  6
CONTINUOUS
 10
6.6409
 20
10.5370
  0
VERTEX
  8
LAYER1
 62
     7
  6
CONTINUOUS
 10
6.6409
 20
10.5373
  0
VERTEX
  8
LAYER1
 62
     7
  6
CONTINUOUS
 10
6.6408
 20
10.5375
  0
VERTEX
  8
LAYER1
 62
     7
  6
CONTINUOUS
 10
6.6407
 20
10.5377
  0
VERTEX
  8
LAYER1
 62
     7
  6
CONTINUOUS
 10
6.6407
 20
10.5378
  0
VERTEX
  8
LAYER1
 62
     7
  6
CONTINUOUS
 10
6.6407
 20
10.5378
  0
VERTEX
  8
LAYER1
 62
     7
  6
CONTINUOUS
 10
6.6407
 20
10.5378
  0
VERTEX
  8
LAYER1
 62
     7
  6
CONTINUOUS
 10
6.6407
 20
10.5377
  0
VERTEX
  8
LAYER1
 62
     7
  6
CONTINUOUS
 10
6.6408
 20
10.5376
  0
VERTEX
  8
LAYER1
 62
     7
  6
CONTINUOUS
 10
6.6408
 20
10.5375
  0
VERTEX
  8
LAYER1
 62
     7
  6
CONTINUOUS
 10
6.6408
 20
10.5373
  0
VERTEX
  8
LAYER1
 62
     7
  6
CONTINUOUS
 10
6.6409
 20
10.5371
  0
VERTEX
  8
LAYER1
 62
     7
  6
CONTINUOUS
 10
6.6409
 20
10.5370
  0
SEQEND
  8
LAYER1
  0
POLYLINE
  8
LAYER1
 62
     7
 66
     1
  6
CONTINUOUS
  0
VERTEX
  8
LAYER1
 62
     7
  6
CONTINUOUS
 10
6.6409
 20
10.5370
  0
VERTEX
  8
LAYER1
 62
     7
  6
CONTINUOUS
 10
6.6411
 20
10.5363
  0
VERTEX
  8
LAYER1
 62
     7
  6
CONTINUOUS
 10
6.6413
 20
10.5356
  0
VERTEX
  8
LAYER1
 62
     7
  6
CONTINUOUS
 10
6.6415
 20
10.5349
  0
VERTEX
  8
LAYER1
 62
     7
  6
CONTINUOUS
 10
6.6417
 20
10.5342
  0
VERTEX
  8
LAYER1
 62
     7
  6
CONTINUOUS
 10
6.6419
 20
10.5336
  0
VERTEX
  8
LAYER1
 62
     7
  6
CONTINUOUS
 10
6.6421
 20
10.5330
  0
VERTEX
  8
LAYER1
 62
     7
  6
CONTINUOUS
 10
6.6422
 20
10.5324
  0
VERTEX
  8
LAYER1
 62
     7
  6
CONTINUOUS
 10
6.6424
 20
10.5319
  0
VERTEX
  8
LAYER1
 62
     7
  6
CONTINUOUS
 10
6.6425
 20
10.5315
  0
VERTEX
  8
LAYER1
 62
     7
  6
CONTINUOUS
 10
6.6426
 20
10.5311
  0
VERTEX
  8
LAYER1
 62
     7
  6
CONTINUOUS
 10
6.6427
 20
10.5307
  0
VERTEX
  8
LAYER1
 62
     7
  6
CONTINUOUS
 10
6.6428
 20
10.5305
  0
VERTEX
  8
LAYER1
 62
     7
  6
CONTINUOUS
 10
6.6428
 20
10.5304
  0
VERTEX
  8
LAYER1
 62
     7
  6
CONTINUOUS
 10
6.6428
 20
10.5303
  0
VERTEX
  8
LAYER1
 62
     7
  6
CONTINUOUS
 10
6.6428
 20
10.5302
  0
VERTEX
  8
LAYER1
 62
     7
  6
CONTINUOUS
 10
6.6428
 20
10.5302
  0
VERTEX
  8
LAYER1
 62
     7
  6
CONTINUOUS
 10
6.6428
 20
10.5302
  0
VERTEX
  8
LAYER1
 62
     7
  6
CONTINUOUS
 10
6.6428
 20
10.5302
  0
VERTEX
  8
LAYER1
 62
     7
  6
CONTINUOUS
 10
6.6428
 20
10.5303
  0
VERTEX
  8
LAYER1
 62
     7
  6
CONTINUOUS
 10
6.6428
 20
10.5303
  0
VERTEX
  8
LAYER1
 62
     7
  6
CONTINUOUS
 10
6.6428
 20
10.5304
  0
VERTEX
  8
LAYER1
 62
     7
  6
CONTINUOUS
 10
6.6428
 20
10.5304
  0
VERTEX
  8
LAYER1
 62
     7
  6
CONTINUOUS
 10
6.6428
 20
10.5305
  0
VERTEX
  8
LAYER1
 62
     7
  6
CONTINUOUS
 10
6.6428
 20
10.5305
  0
VERTEX
  8
LAYER1
 62
     7
  6
CONTINUOUS
 10
6.6427
 20
10.5305
  0
VERTEX
  8
LAYER1
 62
     7
  6
CONTINUOUS
 10
6.6427
 20
10.5306
  0
VERTEX
  8
LAYER1
 62
     7
  6
CONTINUOUS
 10
6.6427
 20
10.5306
  0
VERTEX
  8
LAYER1
 62
     7
  6
CONTINUOUS
 10
6.6427
 20
10.5306
  0
VERTEX
  8
LAYER1
 62
     7
  6
CONTINUOUS
 10
6.6427
 20
10.5306
  0
VERTEX
  8
LAYER1
 62
     7
  6
CONTINUOUS
 10
6.6427
 20
10.5306
  0
VERTEX
  8
LAYER1
 62
     7
  6
CONTINUOUS
 10
6.6427
 20
10.5306
  0
VERTEX
  8
LAYER1
 62
     7
  6
CONTINUOUS
 10
6.6427
 20
10.5306
  0
VERTEX
  8
LAYER1
 62
     7
  6
CONTINUOUS
 10
6.6427
 20
10.5306
  0
VERTEX
  8
LAYER1
 62
     7
  6
CONTINUOUS
 10
6.6427
 20
10.5306
  0
VERTEX
  8
LAYER1
 62
     7
  6
CONTINUOUS
 10
6.6427
 20
10.5305
  0
VERTEX
  8
LAYER1
 62
     7
  6
CONTINUOUS
 10
6.6428
 20
10.5305
  0
VERTEX
  8
LAYER1
 62
     7
  6
CONTINUOUS
 10
6.6431
 20
10.5291
  0
VERTEX
  8
LAYER1
 62
     7
  6
CONTINUOUS
 10
6.6437
 20
10.5263
  0
VERTEX
  8
LAYER1
 62
     7
  6
CONTINUOUS
 10
6.6446
 20
10.5223
  0
VERTEX
  8
LAYER1
 62
     7
  6
CONTINUOUS
 10
6.6457
 20
10.5173
  0
VERTEX
  8
LAYER1
 62
     7
  6
CONTINUOUS
 10
6.6469
 20
10.5114
  0
VERTEX
  8
LAYER1
 62
     7
  6
CONTINUOUS
 10
6.6482
 20
10.5049
  0
VERTEX
  8
LAYER1
 62
     7
  6
CONTINUOUS
 10
6.6495
 20
10.4978
  0
VERTEX
  8
LAYER1
 62
     7
  6
CONTINUOUS
 10
6.6507
 20
10.4904
  0
VERTEX
  8
LAYER1
 62
     7
  6
CONTINUOUS
 10
6.6517
 20
10.4828
  0
VERTEX
  8
LAYER1
 62
     7
  6
CONTINUOUS
 10
6.6526
 20
10.4753
  0
VERTEX
  8
LAYER1
 62
     7
  6
CONTINUOUS
 10
6.6532
 20
10.4679
  0
VERTEX
  8
LAYER1
 62
     7
  6
CONTINUOUS
 10
6.6535
 20
10.4609
  0
VERTEX
  8
LAYER1
 62
     7
  6
CONTINUOUS
 10
6.6535
 20
10.4581
  0
VERTEX
  8
LAYER1
 62
     7
  6
CONTINUOUS
 10
6.6534
 20
10.4554
  0
VERTEX
  8
LAYER1
 62
     7
  6
CONTINUOUS
 10
6.6533
 20
10.4528
  0
VERTEX
  8
LAYER1
 62
     7
  6
CONTINUOUS
 10
6.6532
 20
10.4502
  0
VERTEX
  8
LAYER1
 62
     7
  6
CONTINUOUS
 10
6.6530
 20
10.4478
  0
VERTEX
  8
LAYER1
 62
     7
  6
CONTINUOUS
 10
6.6527
 20
10.4453
  0
VERTEX
  8
LAYER1
 62
     7
  6
CONTINUOUS
 10
6.6524
 20
10.4429
  0
VERTEX
  8
LAYER1
 62
     7
  6
CONTINUOUS
 10
6.6521
 20
10.4406
  0
VERTEX
  8
LAYER1
 62
     7
  6
CONTINUOUS
 10
6.6518
 20
10.4383
  0
VERTEX
  8
LAYER1
 62
     7
  6
CONTINUOUS
 10
6.6515
 20
10.4360
  0
VERTEX
  8
LAYER1
 62
     7
  6
CONTINUOUS
 10
6.6511
 20
10.4337
  0
VERTEX
  8
LAYER1
 62
     7
  6
CONTINUOUS
 10
6.6507
 20
10.4315
  0
SEQEND
  8
LAYER1
  0
POLYLINE
  8
LAYER1
 62
     7
 66
     1
  6
CONTINUOUS
  0
VERTEX
  8
LAYER1
 62
     7
  6
CONTINUOUS
 10
6.0705
 20
10.4315
  0
VERTEX
  8
LAYER1
 62
     7
  6
CONTINUOUS
 10
6.0715
 20
10.4334
  0
VERTEX
  8
LAYER1
 62
     7
  6
CONTINUOUS
 10
6.0725
 20
10.4353
  0
VERTEX
  8
LAYER1
 62
     7
  6
CONTINUOUS
 10
6.0734
 20
10.4373
  0
VERTEX
  8
LAYER1
 62
     7
  6
CONTINUOUS
 10
6.0744
 20
10.4392
  0
VERTEX
  8
LAYER1
 62
     7
  6
CONTINUOUS
 10
6.0753
 20
10.4412
  0
VERTEX
  8
LAYER1
 62
     7
  6
CONTINUOUS
 10
6.0762
 20
10.4431
  0
VERTEX
  8
LAYER1
 62
     7
  6
CONTINUOUS
 10
6.0771
 20
10.4450
  0
VERTEX
  8
LAYER1
 62
     7
  6
CONTINUOUS
 10
6.0780
 20
10.4469
  0
VERTEX
  8
LAYER1
 62
     7
  6
CONTINUOUS
 10
6.0788
 20
10.4489
  0
VERTEX
  8
LAYER1
 62
     7
  6
CONTINUOUS
 10
6.0796
 20
10.4508
  0
VERTEX
  8
LAYER1
 62
     7
  6
CONTINUOUS
 10
6.0803
 20
10.4527
  0
VERTEX
  8
LAYER1
 62
     7
  6
CONTINUOUS
 10
6.0810
 20
10.4546
  0
VERTEX
  8
LAYER1
 62
     7
  6
CONTINUOUS
 10
6.0817
 20
10.4565
  0
VERTEX
  8
LAYER1
 62
     7
  6
CONTINUOUS
 10
6.0823
 20
10.4584
  0
VERTEX
  8
LAYER1
 62
     7
  6
CONTINUOUS
 10
6.0828
 20
10.4603
  0
VERTEX
  8
LAYER1
 62
     7
  6
CONTINUOUS
 10
6.0833
 20
10.4622
  0
VERTEX
  8
LAYER1
 62
     7
  6
CONTINUOUS
 10
6.0838
 20
10.4642
  0
VERTEX
  8
LAYER1
 62
     7
  6
CONTINUOUS
 10
6.0842
 20
10.4662
  0
VERTEX
  8
LAYER1
 62
     7
  6
CONTINUOUS
 10
6.0845
 20
10.4682
  0
VERTEX
  8
LAYER1
 62
     7
  6
CONTINUOUS
 10
6.0848
 20
10.4704
  0
VERTEX
  8
LAYER1
 62
     7
  6
CONTINUOUS
 10
6.0851
 20
10.4725
  0
VERTEX
  8
LAYER1
 62
     7
  6
CONTINUOUS
 10
6.0854
 20
10.4748
  0
VERTEX
  8
LAYER1
 62
     7
  6
CONTINUOUS
 10
6.0856
 20
10.4771
  0
VERTEX
  8
LAYER1
 62
     7
  6
CONTINUOUS
 10
6.0857
 20
10.4796
  0
VERTEX
  8
LAYER1
 62
     7
  6
CONTINUOUS
 10
6.0860
 20
10.4841
  0
VERTEX
  8
LAYER1
 62
     7
  6
CONTINUOUS
 10
6.0861
 20
10.4888
  0
VERTEX
  8
LAYER1
 62
     7
  6
CONTINUOUS
 10
6.0861
 20
10.4937
  0
VERTEX
  8
LAYER1
 62
     7
  6
CONTINUOUS
 10
6.0861
 20
10.4986
  0
VERTEX
  8
LAYER1
 62
     7
  6
CONTINUOUS
 10
6.0860
 20
10.5033
  0
VERTEX
  8
LAYER1
 62
     7
  6
CONTINUOUS
 10
6.0859
 20
10.5078
  0
VERTEX
  8
LAYER1
 62
     7
  6
CONTINUOUS
 10
6.0858
 20
10.5121
  0
VERTEX
  8
LAYER1
 62
     7
  6
CONTINUOUS
 10
6.0856
 20
10.5158
  0
VERTEX
  8
LAYER1
 62
     7
  6
CONTINUOUS
 10
6.0855
 20
10.5190
  0
VERTEX
  8
LAYER1
 62
     7
  6
CONTINUOUS
 10
6.0854
 20
10.5216
  0
VERTEX
  8
LAYER1
 62
     7
  6
CONTINUOUS
 10
6.0853
 20
10.5234
  0
VERTEX
  8
LAYER1
 62
     7
  6
CONTINUOUS
 10
6.0852
 20
10.5244
  0
VERTEX
  8
LAYER1
 62
     7
  6
CONTINUOUS
 10
6.0852
 20
10.5244
  0
VERTEX
  8
LAYER1
 62
     7
  6
CONTINUOUS
 10
6.0852
 20
10.5244
  0
VERTEX
  8
LAYER1
 62
     7
  6
CONTINUOUS
 10
6.0852
 20
10.5245
  0
VERTEX
  8
LAYER1
 62
     7
  6
CONTINUOUS
 10
6.0852
 20
10.5245
  0
VERTEX
  8
LAYER1
 62
     7
  6
CONTINUOUS
 10
6.0852
 20
10.5245
  0
VERTEX
  8
LAYER1
 62
     7
  6
CONTINUOUS
 10
6.0852
 20
10.5245
  0
VERTEX
  8
LAYER1
 62
     7
  6
CONTINUOUS
 10
6.0853
 20
10.5245
  0
VERTEX
  8
LAYER1
 62
     7
  6
CONTINUOUS
 10
6.0853
 20
10.5245
  0
VERTEX
  8
LAYER1
 62
     7
  6
CONTINUOUS
 10
6.0853
 20
10.5244
  0
VERTEX
  8
LAYER1
 62
     7
  6
CONTINUOUS
 10
6.0852
 20
10.5244
  0
VERTEX
  8
LAYER1
 62
     7
  6
CONTINUOUS
 10
6.0852
 20
10.5244
  0
VERTEX
  8
LAYER1
 62
     7
  6
CONTINUOUS
 10
6.0852
 20
10.5244
  0
VERTEX
  8
LAYER1
 62
     7
  6
CONTINUOUS
 10
6.0852
 20
10.5243
  0
VERTEX
  8
LAYER1
 62
     7
  6
CONTINUOUS
 10
6.0852
 20
10.5243
  0
VERTEX
  8
LAYER1
 62
     7
  6
CONTINUOUS
 10
6.0852
 20
10.5243
  0
VERTEX
  8
LAYER1
 62
     7
  6
CONTINUOUS
 10
6.0852
 20
10.5242
  0
VERTEX
  8
LAYER1
 62
     7
  6
CONTINUOUS
 10
6.0852
 20
10.5242
  0
VERTEX
  8
LAYER1
 62
     7
  6
CONTINUOUS
 10
6.0852
 20
10.5242
  0
VERTEX
  8
LAYER1
 62
     7
  6
CONTINUOUS
 10
6.0852
 20
10.5242
  0
VERTEX
  8
LAYER1
 62
     7
  6
CONTINUOUS
 10
6.0852
 20
10.5242
  0
VERTEX
  8
LAYER1
 62
     7
  6
CONTINUOUS
 10
6.0852
 20
10.5242
  0
VERTEX
  8
LAYER1
 62
     7
  6
CONTINUOUS
 10
6.0852
 20
10.5242
  0
VERTEX
  8
LAYER1
 62
     7
  6
CONTINUOUS
 10
6.0852
 20
10.5243
  0
VERTEX
  8
LAYER1
 62
     7
  6
CONTINUOUS
 10
6.0852
 20
10.5244
  0
VERTEX
  8
LAYER1
 62
     7
  6
CONTINUOUS
 10
6.0853
 20
10.5247
  0
VERTEX
  8
LAYER1
 62
     7
  6
CONTINUOUS
 10
6.0854
 20
10.5253
  0
VERTEX
  8
LAYER1
 62
     7
  6
CONTINUOUS
 10
6.0855
 20
10.5260
  0
VERTEX
  8
LAYER1
 62
     7
  6
CONTINUOUS
 10
6.0856
 20
10.5268
  0
VERTEX
  8
LAYER1
 62
     7
  6
CONTINUOUS
 10
6.0858
 20
10.5278
  0
VERTEX
  8
LAYER1
 62
     7
  6
CONTINUOUS
 10
6.0860
 20
10.5289
  0
VERTEX
  8
LAYER1
 62
     7
  6
CONTINUOUS
 10
6.0861
 20
10.5301
  0
VERTEX
  8
LAYER1
 62
     7
  6
CONTINUOUS
 10
6.0863
 20
10.5314
  0
VERTEX
  8
LAYER1
 62
     7
  6
CONTINUOUS
 10
6.0866
 20
10.5327
  0
VERTEX
  8
LAYER1
 62
     7
  6
CONTINUOUS
 10
6.0868
 20
10.5341
  0
VERTEX
  8
LAYER1
 62
     7
  6
CONTINUOUS
 10
6.0870
 20
10.5355
  0
VERTEX
  8
LAYER1
 62
     7
  6
CONTINUOUS
 10
6.0872
 20
10.5370
  0
SEQEND
  8
LAYER1
  0
POLYLINE
  8
LAYER1
 62
     7
 66
     1
  6
CONTINUOUS
  0
VERTEX
  8
LAYER1
 62
     7
  6
CONTINUOUS
 10
6.0872
 20
10.5370
  0
VERTEX
  8
LAYER1
 62
     7
  6
CONTINUOUS
 10
6.0872
 20
10.5370
  0
VERTEX
  8
LAYER1
 62
     7
  6
CONTINUOUS
 10
6.0872
 20
10.5370
  0
VERTEX
  8
LAYER1
 62
     7
  6
CONTINUOUS
 10
6.0872
 20
10.5370
  0
VERTEX
  8
LAYER1
 62
     7
  6
CONTINUOUS
 10
6.0872
 20
10.5369
  0
VERTEX
  8
LAYER1
 62
     7
  6
CONTINUOUS
 10
6.0872
 20
10.5369
  0
VERTEX
  8
LAYER1
 62
     7
  6
CONTINUOUS
 10
6.0872
 20
10.5369
  0
VERTEX
  8
LAYER1
 62
     7
  6
CONTINUOUS
 10
6.0872
 20
10.5369
  0
VERTEX
  8
LAYER1
 62
     7
  6
CONTINUOUS
 10
6.0872
 20
10.5369
  0
VERTEX
  8
LAYER1
 62
     7
  6
CONTINUOUS
 10
6.0872
 20
10.5369
  0
VERTEX
  8
LAYER1
 62
     7
  6
CONTINUOUS
 10
6.0872
 20
10.5369
  0
VERTEX
  8
LAYER1
 62
     7
  6
CONTINUOUS
 10
6.0872
 20
10.5369
  0
VERTEX
  8
LAYER1
 62
     7
  6
CONTINUOUS
 10
6.0872
 20
10.5369
  0
VERTEX
  8
LAYER1
 62
     7
  6
CONTINUOUS
 10
6.0872
 20
10.5366
  0
VERTEX
  8
LAYER1
 62
     7
  6
CONTINUOUS
 10
6.0872
 20
10.5363
  0
VERTEX
  8
LAYER1
 62
     7
  6
CONTINUOUS
 10
6.0871
 20
10.5362
  0
VERTEX
  8
LAYER1
 62
     7
  6
CONTINUOUS
 10
6.0871
 20
10.5361
  0
VERTEX
  8
LAYER1
 62
     7
  6
CONTINUOUS
 10
6.0871
 20
10.5361
  0
VERTEX
  8
LAYER1
 62
     7
  6
CONTINUOUS
 10
6.0871
 20
10.5361
  0
VERTEX
  8
LAYER1
 62
     7
  6
CONTINUOUS
 10
6.0871
 20
10.5361
  0
VERTEX
  8
LAYER1
 62
     7
  6
CONTINUOUS
 10
6.0871
 20
10.5363
  0
VERTEX
  8
LAYER1
 62
     7
  6
CONTINUOUS
 10
6.0872
 20
10.5364
  0
VERTEX
  8
LAYER1
 62
     7
  6
CONTINUOUS
 10
6.0872
 20
10.5365
  0
VERTEX
  8
LAYER1
 62
     7
  6
CONTINUOUS
 10
6.0872
 20
10.5367
  0
VERTEX
  8
LAYER1
 62
     7
  6
CONTINUOUS
 10
6.0872
 20
10.5369
  0
SEQEND
  8
LAYER1
  0
POLYLINE
  8
LAYER1
 62
     7
 66
     1
  6
CONTINUOUS
  0
VERTEX
  8
LAYER1
 62
     7
  6
CONTINUOUS
 10
6.0872
 20
10.5369
  0
VERTEX
  8
LAYER1
 62
     7
  6
CONTINUOUS
 10
6.0872
 20
10.5369
  0
VERTEX
  8
LAYER1
 62
     7
  6
CONTINUOUS
 10
6.0872
 20
10.5369
  0
VERTEX
  8
LAYER1
 62
     7
  6
CONTINUOUS
 10
6.0872
 20
10.5369
  0
VERTEX
  8
LAYER1
 62
     7
  6
CONTINUOUS
 10
6.0872
 20
10.5369
  0
VERTEX
  8
LAYER1
 62
     7
  6
CONTINUOUS
 10
6.0872
 20
10.5369
  0
VERTEX
  8
LAYER1
 62
     7
  6
CONTINUOUS
 10
6.0872
 20
10.5369
  0
VERTEX
  8
LAYER1
 62
     7
  6
CONTINUOUS
 10
6.0872
 20
10.5369
  0
VERTEX
  8
LAYER1
 62
     7
  6
CONTINUOUS
 10
6.0872
 20
10.5369
  0
VERTEX
  8
LAYER1
 62
     7
  6
CONTINUOUS
 10
6.0872
 20
10.5370
  0
VERTEX
  8
LAYER1
 62
     7
  6
CONTINUOUS
 10
6.0872
 20
10.5370
  0
VERTEX
  8
LAYER1
 62
     7
  6
CONTINUOUS
 10
6.0872
 20
10.5370
  0
VERTEX
  8
LAYER1
 62
     7
  6
CONTINUOUS
 10
6.0872
 20
10.5370
  0
VERTEX
  8
LAYER1
 62
     7
  6
CONTINUOUS
 10
6.0873
 20
10.5373
  0
VERTEX
  8
LAYER1
 62
     7
  6
CONTINUOUS
 10
6.0874
 20
10.5375
  0
VERTEX
  8
LAYER1
 62
     7
  6
CONTINUOUS
 10
6.0874
 20
10.5377
  0
VERTEX
  8
LAYER1
 62
     7
  6
CONTINUOUS
 10
6.0874
 20
10.5378
  0
VERTEX
  8
LAYER1
 62
     7
  6
CONTINUOUS
 10
6.0874
 20
10.5378
  0
VERTEX
  8
LAYER1
 62
     7
  6
CONTINUOUS
 10
6.0874
 20
10.5378
  0
VERTEX
  8
LAYER1
 62
     7
  6
CONTINUOUS
 10
6.0874
 20
10.5377
  0
VERTEX
  8
LAYER1
 62
     7
  6
CONTINUOUS
 10
6.0874
 20
10.5376
  0
VERTEX
  8
LAYER1
 62
     7
  6
CONTINUOUS
 10
6.0874
 20
10.5375
  0
VERTEX
  8
LAYER1
 62
     7
  6
CONTINUOUS
 10
6.0873
 20
10.5373
  0
VERTEX
  8
LAYER1
 62
     7
  6
CONTINUOUS
 10
6.0873
 20
10.5371
  0
VERTEX
  8
LAYER1
 62
     7
  6
CONTINUOUS
 10
6.0872
 20
10.5370
  0
SEQEND
  8
LAYER1
  0
POLYLINE
  8
LAYER1
 62
     7
 66
     1
  6
CONTINUOUS
  0
VERTEX
  8
LAYER1
 62
     7
  6
CONTINUOUS
 10
6.0951
 20
10.5370
  0
VERTEX
  8
LAYER1
 62
     7
  6
CONTINUOUS
 10
6.0951
 20
10.5370
  0
VERTEX
  8
LAYER1
 62
     7
  6
CONTINUOUS
 10
6.0951
 20
10.5370
  0
VERTEX
  8
LAYER1
 62
     7
  6
CONTINUOUS
 10
6.0951
 20
10.5370
  0
VERTEX
  8
LAYER1
 62
     7
  6
CONTINUOUS
 10
6.0951
 20
10.5369
  0
VERTEX
  8
LAYER1
 62
     7
  6
CONTINUOUS
 10
6.0951
 20
10.5369
  0
VERTEX
  8
LAYER1
 62
     7
  6
CONTINUOUS
 10
6.0951
 20
10.5369
  0
VERTEX
  8
LAYER1
 62
     7
  6
CONTINUOUS
 10
6.0951
 20
10.5369
  0
VERTEX
  8
LAYER1
 62
     7
  6
CONTINUOUS
 10
6.0951
 20
10.5369
  0
VERTEX
  8
LAYER1
 62
     7
  6
CONTINUOUS
 10
6.0951
 20
10.5369
  0
VERTEX
  8
LAYER1
 62
     7
  6
CONTINUOUS
 10
6.0951
 20
10.5369
  0
VERTEX
  8
LAYER1
 62
     7
  6
CONTINUOUS
 10
6.0951
 20
10.5369
  0
VERTEX
  8
LAYER1
 62
     7
  6
CONTINUOUS
 10
6.0951
 20
10.5369
  0
VERTEX
  8
LAYER1
 62
     7
  6
CONTINUOUS
 10
6.0951
 20
10.5366
  0
VERTEX
  8
LAYER1
 62
     7
  6
CONTINUOUS
 10
6.0950
 20
10.5363
  0
VERTEX
  8
LAYER1
 62
     7
  6
CONTINUOUS
 10
6.0950
 20
10.5362
  0
VERTEX
  8
LAYER1
 62
     7
  6
CONTINUOUS
 10
6.0950
 20
10.5361
  0
VERTEX
  8
LAYER1
 62
     7
  6
CONTINUOUS
 10
6.0950
 20
10.5361
  0
VERTEX
  8
LAYER1
 62
     7
  6
CONTINUOUS
 10
6.0950
 20
10.5361
  0
VERTEX
  8
LAYER1
 62
     7
  6
CONTINUOUS
 10
6.0950
 20
10.5361
  0
VERTEX
  8
LAYER1
 62
     7
  6
CONTINUOUS
 10
6.0950
 20
10.5363
  0
VERTEX
  8
LAYER1
 62
     7
  6
CONTINUOUS
 10
6.0950
 20
10.5364
  0
VERTEX
  8
LAYER1
 62
     7
  6
CONTINUOUS
 10
6.0950
 20
10.5365
  0
VERTEX
  8
LAYER1
 62
     7
  6
CONTINUOUS
 10
6.0951
 20
10.5367
  0
VERTEX
  8
LAYER1
 62
     7
  6
CONTINUOUS
 10
6.0951
 20
10.5369
  0
SEQEND
  8
LAYER1
  0
POLYLINE
  8
LAYER1
 62
     7
 66
     1
  6
CONTINUOUS
  0
VERTEX
  8
LAYER1
 62
     7
  6
CONTINUOUS
 10
6.0951
 20
10.5369
  0
VERTEX
  8
LAYER1
 62
     7
  6
CONTINUOUS
 10
6.0951
 20
10.5369
  0
VERTEX
  8
LAYER1
 62
     7
  6
CONTINUOUS
 10
6.0951
 20
10.5369
  0
VERTEX
  8
LAYER1
 62
     7
  6
CONTINUOUS
 10
6.0951
 20
10.5369
  0
VERTEX
  8
LAYER1
 62
     7
  6
CONTINUOUS
 10
6.0951
 20
10.5369
  0
VERTEX
  8
LAYER1
 62
     7
  6
CONTINUOUS
 10
6.0951
 20
10.5369
  0
VERTEX
  8
LAYER1
 62
     7
  6
CONTINUOUS
 10
6.0951
 20
10.5369
  0
VERTEX
  8
LAYER1
 62
     7
  6
CONTINUOUS
 10
6.0951
 20
10.5369
  0
VERTEX
  8
LAYER1
 62
     7
  6
CONTINUOUS
 10
6.0951
 20
10.5369
  0
VERTEX
  8
LAYER1
 62
     7
  6
CONTINUOUS
 10
6.0951
 20
10.5370
  0
VERTEX
  8
LAYER1
 62
     7
  6
CONTINUOUS
 10
6.0951
 20
10.5370
  0
VERTEX
  8
LAYER1
 62
     7
  6
CONTINUOUS
 10
6.0951
 20
10.5370
  0
VERTEX
  8
LAYER1
 62
     7
  6
CONTINUOUS
 10
6.0951
 20
10.5370
  0
VERTEX
  8
LAYER1
 62
     7
  6
CONTINUOUS
 10
6.0952
 20
10.5373
  0
VERTEX
  8
LAYER1
 62
     7
  6
CONTINUOUS
 10
6.0952
 20
10.5375
  0
VERTEX
  8
LAYER1
 62
     7
  6
CONTINUOUS
 10
6.0952
 20
10.5377
  0
VERTEX
  8
LAYER1
 62
     7
  6
CONTINUOUS
 10
6.0952
 20
10.5378
  0
VERTEX
  8
LAYER1
 62
     7
  6
CONTINUOUS
 10
6.0952
 20
10.5378
  0
VERTEX
  8
LAYER1
 62
     7
  6
CONTINUOUS
 10
6.0952
 20
10.5378
  0
VERTEX
  8
LAYER1
 62
     7
  6
CONTINUOUS
 10
6.0952
 20
10.5377
  0
VERTEX
  8
LAYER1
 62
     7
  6
CONTINUOUS
 10
6.0952
 20
10.5376
  0
VERTEX
  8
LAYER1
 62
     7
  6
CONTINUOUS
 10
6.0952
 20
10.5375
  0
VERTEX
  8
LAYER1
 62
     7
  6
CONTINUOUS
 10
6.0952
 20
10.5373
  0
VERTEX
  8
LAYER1
 62
     7
  6
CONTINUOUS
 10
6.0951
 20
10.5371
  0
VERTEX
  8
LAYER1
 62
     7
  6
CONTINUOUS
 10
6.0951
 20
10.5370
  0
SEQEND
  8
LAYER1
  0
POLYLINE
  8
LAYER1
 62
     7
 66
     1
  6
CONTINUOUS
  0
VERTEX
  8
LAYER1
 62
     7
  6
CONTINUOUS
 10
6.0951
 20
10.5370
  0
VERTEX
  8
LAYER1
 62
     7
  6
CONTINUOUS
 10
6.0934
 20
10.5240
  0
VERTEX
  8
LAYER1
 62
     7
  6
CONTINUOUS
 10
6.0918
 20
10.5112
  0
VERTEX
  8
LAYER1
 62
     7
  6
CONTINUOUS
 10
6.0902
 20
10.4987
  0
VERTEX
  8
LAYER1
 62
     7
  6
CONTINUOUS
 10
6.0887
 20
10.4868
  0
VERTEX
  8
LAYER1
 62
     7
  6
CONTINUOUS
 10
6.0873
 20
10.4756
  0
VERTEX
  8
LAYER1
 62
     7
  6
CONTINUOUS
 10
6.0859
 20
10.4652
  0
VERTEX
  8
LAYER1
 62
     7
  6
CONTINUOUS
 10
6.0848
 20
10.4559
  0
VERTEX
  8
LAYER1
 62
     7
  6
CONTINUOUS
 10
6.0837
 20
10.4479
  0
VERTEX
  8
LAYER1
 62
     7
  6
CONTINUOUS
 10
6.0829
 20
10.4412
  0
VERTEX
  8
LAYER1
 62
     7
  6
CONTINUOUS
 10
6.0822
 20
10.4362
  0
VERTEX
  8
LAYER1
 62
     7
  6
CONTINUOUS
 10
6.0818
 20
10.4328
  0
VERTEX
  8
LAYER1
 62
     7
  6
CONTINUOUS
 10
6.0816
 20
10.4315
  0
VERTEX
  8
LAYER1
 62
     7
  6
CONTINUOUS
 10
6.0816
 20
10.4314
  0
VERTEX
  8
LAYER1
 62
     7
  6
CONTINUOUS
 10
6.0816
 20
10.4314
  0
VERTEX
  8
LAYER1
 62
     7
  6
CONTINUOUS
 10
6.0816
 20
10.4314
  0
VERTEX
  8
LAYER1
 62
     7
  6
CONTINUOUS
 10
6.0816
 20
10.4314
  0
VERTEX
  8
LAYER1
 62
     7
  6
CONTINUOUS
 10
6.0816
 20
10.4314
  0
VERTEX
  8
LAYER1
 62
     7
  6
CONTINUOUS
 10
6.0816
 20
10.4314
  0
VERTEX
  8
LAYER1
 62
     7
  6
CONTINUOUS
 10
6.0816
 20
10.4314
  0
VERTEX
  8
LAYER1
 62
     7
  6
CONTINUOUS
 10
6.0816
 20
10.4314
  0
VERTEX
  8
LAYER1
 62
     7
  6
CONTINUOUS
 10
6.0816
 20
10.4314
  0
VERTEX
  8
LAYER1
 62
     7
  6
CONTINUOUS
 10
6.0816
 20
10.4314
  0
VERTEX
  8
LAYER1
 62
     7
  6
CONTINUOUS
 10
6.0816
 20
10.4315
  0
VERTEX
  8
LAYER1
 62
     7
  6
CONTINUOUS
 10
6.0816
 20
10.4315
  0
SEQEND
  8
LAYER1
  0
ARC
  8
LAYER1
 62
     7
  6
CONTINUOUS
 10
7.0535
 20
10.2986
 40
0.0124
 50
111.2127
 51
-111.2050
  0
ARC
  8
LAYER1
 62
     7
  6
CONTINUOUS
 10
6.2109
 20
9.5127
 40
0.0134
 50
5.7869
 51
174.2131
  0
POLYLINE
  8
LAYER10
 62
     1
 66
     1
  6
CONTINUOUS
  0
VERTEX
  8
LAYER10
 62
     1
  6
CONTINUOUS
 10
6.2809
 20
10.3921
  0
VERTEX
  8
LAYER10
 62
     1
  6
CONTINUOUS
 10
6.2816
 20
10.3936
  0
VERTEX
  8
LAYER10
 62
     1
  6
CONTINUOUS
 10
6.2822
 20
10.3953
  0
VERTEX
  8
LAYER10
 62
     1
  6
CONTINUOUS
 10
6.2827
 20
10.3970
  0
VERTEX
  8
LAYER10
 62
     1
  6
CONTINUOUS
 10
6.2830
 20
10.3989
  0
VERTEX
  8
LAYER10
 62
     1
  6
CONTINUOUS
 10
6.2833
 20
10.4007
  0
VERTEX
  8
LAYER10
 62
     1
  6
CONTINUOUS
 10
6.2835
 20
10.4026
  0
VERTEX
  8
LAYER10
 62
     1
  6
CONTINUOUS
 10
6.2837
 20
10.4044
  0
VERTEX
  8
LAYER10
 62
     1
  6
CONTINUOUS
 10
6.2839
 20
10.4062
  0
VERTEX
  8
LAYER10
 62
     1
  6
CONTINUOUS
 10
6.2841
 20
10.4079
  0
VERTEX
  8
LAYER10
 62
     1
  6
CONTINUOUS
 10
6.2845
 20
10.4094
  0
VERTEX
  8
LAYER10
 62
     1
  6
CONTINUOUS
 10
6.2850
 20
10.4108
  0
VERTEX
  8
LAYER10
 62
     1
  6
CONTINUOUS
 10
6.2856
 20
10.4121
  0
VERTEX
  8
LAYER10
 62
     1
  6
CONTINUOUS
 10
6.2869
 20
10.4135
  0
VERTEX
  8
LAYER10
 62
     1
  6
CONTINUOUS
 10
6.2885
 20
10.4145
  0
VERTEX
  8
LAYER10
 62
     1
  6
CONTINUOUS
 10
6.2905
 20
10.4152
  0
VERTEX
  8
LAYER10
 62
     1
  6
CONTINUOUS
 10
6.2927
 20
10.4155
  0
VERTEX
  8
LAYER10
 62
     1
  6
CONTINUOUS
 10
6.2952
 20
10.4156
  0
VERTEX
  8
LAYER10
 62
     1
  6
CONTINUOUS
 10
6.2978
 20
10.4154
  0
VERTEX
  8
LAYER10
 62
     1
  6
CONTINUOUS
 10
6.3006
 20
10.4151
  0
VERTEX
  8
LAYER10
 62
     1
  6
CONTINUOUS
 10
6.3036
 20
10.4146
  0
VERTEX
  8
LAYER10
 62
     1
  6
CONTINUOUS
 10
6.3066
 20
10.4141
  0
VERTEX
  8
LAYER10
 62
     1
  6
CONTINUOUS
 10
6.3096
 20
10.4135
  0
VERTEX
  8
LAYER10
 62
     1
  6
CONTINUOUS
 10
6.3126
 20
10.4129
  0
VERTEX
  8
LAYER10
 62
     1
  6
CONTINUOUS
 10
6.3155
 20
10.4124
  0
VERTEX
  8
LAYER10
 62
     1
  6
CONTINUOUS
 10
6.3188
 20
10.4119
  0
VERTEX
  8
LAYER10
 62
     1
  6
CONTINUOUS
 10
6.3219
 20
10.4116
  0
VERTEX
  8
LAYER10
 62
     1
  6
CONTINUOUS
 10
6.3250
 20
10.4113
  0
VERTEX
  8
LAYER10
 62
     1
  6
CONTINUOUS
 10
6.3279
 20
10.4112
  0
VERTEX
  8
LAYER10
 62
     1
  6
CONTINUOUS
 10
6.3308
 20
10.4112
  0
VERTEX
  8
LAYER10
 62
     1
  6
CONTINUOUS
 10
6.3336
 20
10.4112
  0
VERTEX
  8
LAYER10
 62
     1
  6
CONTINUOUS
 10
6.3364
 20
10.4114
  0
VERTEX
  8
LAYER10
 62
     1
  6
CONTINUOUS
 10
6.3392
 20
10.4116
  0
VERTEX
  8
LAYER10
 62
     1
  6
CONTINUOUS
 10
6.3419
 20
10.4118
  0
VERTEX
  8
LAYER10
 62
     1
  6
CONTINUOUS
 10
6.3447
 20
10.4121
  0
VERTEX
  8
LAYER10
 62
     1
  6
CONTINUOUS
 10
6.3475
 20
10.4124
  0
VERTEX
  8
LAYER10
 62
     1
  6
CONTINUOUS
 10
6.3503
 20
10.4128
  0
VERTEX
  8
LAYER10
 62
     1
  6
CONTINUOUS
 10
6.3528
 20
10.4131
  0
VERTEX
  8
LAYER10
 62
     1
  6
CONTINUOUS
 10
6.3553
 20
10.4134
  0
VERTEX
  8
LAYER10
 62
     1
  6
CONTINUOUS
 10
6.3579
 20
10.4137
  0
VERTEX
  8
LAYER10
 62
     1
  6
CONTINUOUS
 10
6.3604
 20
10.4140
  0
VERTEX
  8
LAYER10
 62
     1
  6
CONTINUOUS
 10
6.3630
 20
10.4142
  0
VERTEX
  8
LAYER10
 62
     1
  6
CONTINUOUS
 10
6.3655
 20
10.4143
  0
VERTEX
  8
LAYER10
 62
     1
  6
CONTINUOUS
 10
6.3681
 20
10.4144
  0
VERTEX
  8
LAYER10
 62
     1
  6
CONTINUOUS
 10
6.3706
 20
10.4144
  0
VERTEX
  8
LAYER10
 62
     1
  6
CONTINUOUS
 10
6.3731
 20
10.4142
  0
VERTEX
  8
LAYER10
 62
     1
  6
CONTINUOUS
 10
6.3755
 20
10.4140
  0
VERTEX
  8
LAYER10
 62
     1
  6
CONTINUOUS
 10
6.3779
 20
10.4136
  0
VERTEX
  8
LAYER10
 62
     1
  6
CONTINUOUS
 10
6.3802
 20
10.4131
  0
VERTEX
  8
LAYER10
 62
     1
  6
CONTINUOUS
 10
6.3819
 20
10.4126
  0
VERTEX
  8
LAYER10
 62
     1
  6
CONTINUOUS
 10
6.3835
 20
10.4121
  0
VERTEX
  8
LAYER10
 62
     1
  6
CONTINUOUS
 10
6.3851
 20
10.4114
  0
VERTEX
  8
LAYER10
 62
     1
  6
CONTINUOUS
 10
6.3867
 20
10.4107
  0
VERTEX
  8
LAYER10
 62
     1
  6
CONTINUOUS
 10
6.3883
 20
10.4099
  0
VERTEX
  8
LAYER10
 62
     1
  6
CONTINUOUS
 10
6.3899
 20
10.4091
  0
VERTEX
  8
LAYER10
 62
     1
  6
CONTINUOUS
 10
6.3915
 20
10.4082
  0
VERTEX
  8
LAYER10
 62
     1
  6
CONTINUOUS
 10
6.3932
 20
10.4073
  0
VERTEX
  8
LAYER10
 62
     1
  6
CONTINUOUS
 10
6.3949
 20
10.4064
  0
VERTEX
  8
LAYER10
 62
     1
  6
CONTINUOUS
 10
6.3966
 20
10.4054
  0
VERTEX
  8
LAYER10
 62
     1
  6
CONTINUOUS
 10
6.3984
 20
10.4044
  0
VERTEX
  8
LAYER10
 62
     1
  6
CONTINUOUS
 10
6.4002
 20
10.4034
  0
VERTEX
  8
LAYER10
 62
     1
  6
CONTINUOUS
 10
6.4030
 20
10.4019
  0
VERTEX
  8
LAYER10
 62
     1
  6
CONTINUOUS
 10
6.4058
 20
10.4004
  0
VERTEX
  8
LAYER10
 62
     1
  6
CONTINUOUS
 10
6.4087
 20
10.3989
  0
VERTEX
  8
LAYER10
 62
     1
  6
CONTINUOUS
 10
6.4115
 20
10.3974
  0
VERTEX
  8
LAYER10
 62
     1
  6
CONTINUOUS
 10
6.4143
 20
10.3959
  0
VERTEX
  8
LAYER10
 62
     1
  6
CONTINUOUS
 10
6.4168
 20
10.3943
  0
VERTEX
  8
LAYER10
 62
     1
  6
CONTINUOUS
 10
6.4192
 20
10.3927
  0
VERTEX
  8
LAYER10
 62
     1
  6
CONTINUOUS
 10
6.4212
 20
10.3910
  0
VERTEX
  8
LAYER10
 62
     1
  6
CONTINUOUS
 10
6.4229
 20
10.3893
  0
VERTEX
  8
LAYER10
 62
     1
  6
CONTINUOUS
 10
6.4242
 20
10.3875
  0
VERTEX
  8
LAYER10
 62
     1
  6
CONTINUOUS
 10
6.4250
 20
10.3856
  0
VERTEX
  8
LAYER10
 62
     1
  6
CONTINUOUS
 10
6.4253
 20
10.3837
  0
VERTEX
  8
LAYER10
 62
     1
  6
CONTINUOUS
 10
6.4251
 20
10.3822
  0
VERTEX
  8
LAYER10
 62
     1
  6
CONTINUOUS
 10
6.4246
 20
10.3806
  0
VERTEX
  8
LAYER10
 62
     1
  6
CONTINUOUS
 10
6.4238
 20
10.3790
  0
VERTEX
  8
LAYER10
 62
     1
  6
CONTINUOUS
 10
6.4228
 20
10.3774
  0
VERTEX
  8
LAYER10
 62
     1
  6
CONTINUOUS
 10
6.4215
 20
10.3757
  0
VERTEX
  8
LAYER10
 62
     1
  6
CONTINUOUS
 10
6.4201
 20
10.3740
  0
VERTEX
  8
LAYER10
 62
     1
  6
CONTINUOUS
 10
6.4186
 20
10.3723
  0
VERTEX
  8
LAYER10
 62
     1
  6
CONTINUOUS
 10
6.4170
 20
10.3706
  0
VERTEX
  8
LAYER10
 62
     1
  6
CONTINUOUS
 10
6.4154
 20
10.3689
  0
VERTEX
  8
LAYER10
 62
     1
  6
CONTINUOUS
 10
6.4137
 20
10.3671
  0
VERTEX
  8
LAYER10
 62
     1
  6
CONTINUOUS
 10
6.4121
 20
10.3654
  0
VERTEX
  8
LAYER10
 62
     1
  6
CONTINUOUS
 10
6.4106
 20
10.3637
  0
VERTEX
  8
LAYER10
 62
     1
  6
CONTINUOUS
 10
6.4096
 20
10.3624
  0
VERTEX
  8
LAYER10
 62
     1
  6
CONTINUOUS
 10
6.4086
 20
10.3612
  0
VERTEX
  8
LAYER10
 62
     1
  6
CONTINUOUS
 10
6.4077
 20
10.3599
  0
VERTEX
  8
LAYER10
 62
     1
  6
CONTINUOUS
 10
6.4068
 20
10.3587
  0
VERTEX
  8
LAYER10
 62
     1
  6
CONTINUOUS
 10
6.4060
 20
10.3574
  0
VERTEX
  8
LAYER10
 62
     1
  6
CONTINUOUS
 10
6.4052
 20
10.3562
  0
VERTEX
  8
LAYER10
 62
     1
  6
CONTINUOUS
 10
6.4045
 20
10.3549
  0
VERTEX
  8
LAYER10
 62
     1
  6
CONTINUOUS
 10
6.4037
 20
10.3537
  0
VERTEX
  8
LAYER10
 62
     1
  6
CONTINUOUS
 10
6.4030
 20
10.3524
  0
VERTEX
  8
LAYER10
 62
     1
  6
CONTINUOUS
 10
6.4023
 20
10.3511
  0
VERTEX
  8
LAYER10
 62
     1
  6
CONTINUOUS
 10
6.4015
 20
10.3499
  0
VERTEX
  8
LAYER10
 62
     1
  6
CONTINUOUS
 10
6.4008
 20
10.3486
  0
VERTEX
  8
LAYER10
 62
     1
  6
CONTINUOUS
 10
6.4001
 20
10.3473
  0
VERTEX
  8
LAYER10
 62
     1
  6
CONTINUOUS
 10
6.3993
 20
10.3461
  0
VERTEX
  8
LAYER10
 62
     1
  6
CONTINUOUS
 10
6.3986
 20
10.3448
  0
VERTEX
  8
LAYER10
 62
     1
  6
CONTINUOUS
 10
6.3978
 20
10.3435
  0
VERTEX
  8
LAYER10
 62
     1
  6
CONTINUOUS
 10
6.3970
 20
10.3422
  0
VERTEX
  8
LAYER10
 62
     1
  6
CONTINUOUS
 10
6.3962
 20
10.3410
  0
VERTEX
  8
LAYER10
 62
     1
  6
CONTINUOUS
 10
6.3954
 20
10.3397
  0
VERTEX
  8
LAYER10
 62
     1
  6
CONTINUOUS
 10
6.3945
 20
10.3385
  0
VERTEX
  8
LAYER10
 62
     1
  6
CONTINUOUS
 10
6.3937
 20
10.3372
  0
VERTEX
  8
LAYER10
 62
     1
  6
CONTINUOUS
 10
6.3928
 20
10.3360
  0
VERTEX
  8
LAYER10
 62
     1
  6
CONTINUOUS
 10
6.3919
 20
10.3348
  0
VERTEX
  8
LAYER10
 62
     1
  6
CONTINUOUS
 10
6.3910
 20
10.3336
  0
VERTEX
  8
LAYER10
 62
     1
  6
CONTINUOUS
 10
6.3899
 20
10.3322
  0
VERTEX
  8
LAYER10
 62
     1
  6
CONTINUOUS
 10
6.3888
 20
10.3308
  0
VERTEX
  8
LAYER10
 62
     1
  6
CONTINUOUS
 10
6.3877
 20
10.3295
  0
VERTEX
  8
LAYER10
 62
     1
  6
CONTINUOUS
 10
6.3865
 20
10.3282
  0
VERTEX
  8
LAYER10
 62
     1
  6
CONTINUOUS
 10
6.3853
 20
10.3269
  0
VERTEX
  8
LAYER10
 62
     1
  6
CONTINUOUS
 10
6.3841
 20
10.3256
  0
VERTEX
  8
LAYER10
 62
     1
  6
CONTINUOUS
 10
6.3828
 20
10.3244
  0
VERTEX
  8
LAYER10
 62
     1
  6
CONTINUOUS
 10
6.3815
 20
10.3232
  0
VERTEX
  8
LAYER10
 62
     1
  6
CONTINUOUS
 10
6.3802
 20
10.3220
  0
VERTEX
  8
LAYER10
 62
     1
  6
CONTINUOUS
 10
6.3789
 20
10.3208
  0
VERTEX
  8
LAYER10
 62
     1
  6
CONTINUOUS
 10
6.3776
 20
10.3196
  0
VERTEX
  8
LAYER10
 62
     1
  6
CONTINUOUS
 10
6.3763
 20
10.3185
  0
VERTEX
  8
LAYER10
 62
     1
  6
CONTINUOUS
 10
6.3751
 20
10.3175
  0
VERTEX
  8
LAYER10
 62
     1
  6
CONTINUOUS
 10
6.3739
 20
10.3166
  0
VERTEX
  8
LAYER10
 62
     1
  6
CONTINUOUS
 10
6.3727
 20
10.3156
  0
VERTEX
  8
LAYER10
 62
     1
  6
CONTINUOUS
 10
6.3715
 20
10.3147
  0
VERTEX
  8
LAYER10
 62
     1
  6
CONTINUOUS
 10
6.3703
 20
10.3138
  0
VERTEX
  8
LAYER10
 62
     1
  6
CONTINUOUS
 10
6.3691
 20
10.3129
  0
VERTEX
  8
LAYER10
 62
     1
  6
CONTINUOUS
 10
6.3678
 20
10.3121
  0
VERTEX
  8
LAYER10
 62
     1
  6
CONTINUOUS
 10
6.3666
 20
10.3113
  0
VERTEX
  8
LAYER10
 62
     1
  6
CONTINUOUS
 10
6.3653
 20
10.3105
  0
VERTEX
  8
LAYER10
 62
     1
  6
CONTINUOUS
 10
6.3640
 20
10.3097
  0
VERTEX
  8
LAYER10
 62
     1
  6
CONTINUOUS
 10
6.3627
 20
10.3090
  0
VERTEX
  8
LAYER10
 62
     1
  6
CONTINUOUS
 10
6.3614
 20
10.3084
  0
VERTEX
  8
LAYER10
 62
     1
  6
CONTINUOUS
 10
6.3596
 20
10.3075
  0
VERTEX
  8
LAYER10
 62
     1
  6
CONTINUOUS
 10
6.3576
 20
10.3067
  0
VERTEX
  8
LAYER10
 62
     1
  6
CONTINUOUS
 10
6.3557
 20
10.3059
  0
VERTEX
  8
LAYER10
 62
     1
  6
CONTINUOUS
 10
6.3537
 20
10.3053
  0
VERTEX
  8
LAYER10
 62
     1
  6
CONTINUOUS
 10
6.3517
 20
10.3047
  0
VERTEX
  8
LAYER10
 62
     1
  6
CONTINUOUS
 10
6.3497
 20
10.3042
  0
VERTEX
  8
LAYER10
 62
     1
  6
CONTINUOUS
 10
6.3476
 20
10.3038
  0
VERTEX
  8
LAYER10
 62
     1
  6
CONTINUOUS
 10
6.3455
 20
10.3035
  0
VERTEX
  8
LAYER10
 62
     1
  6
CONTINUOUS
 10
6.3433
 20
10.3033
  0
VERTEX
  8
LAYER10
 62
     1
  6
CONTINUOUS
 10
6.3411
 20
10.3031
  0
VERTEX
  8
LAYER10
 62
     1
  6
CONTINUOUS
 10
6.3389
 20
10.3031
  0
VERTEX
  8
LAYER10
 62
     1
  6
CONTINUOUS
 10
6.3366
 20
10.3031
  0
VERTEX
  8
LAYER10
 62
     1
  6
CONTINUOUS
 10
6.3341
 20
10.3032
  0
VERTEX
  8
LAYER10
 62
     1
  6
CONTINUOUS
 10
6.3317
 20
10.3034
  0
VERTEX
  8
LAYER10
 62
     1
  6
CONTINUOUS
 10
6.3292
 20
10.3038
  0
VERTEX
  8
LAYER10
 62
     1
  6
CONTINUOUS
 10
6.3268
 20
10.3042
  0
VERTEX
  8
LAYER10
 62
     1
  6
CONTINUOUS
 10
6.3244
 20
10.3048
  0
VERTEX
  8
LAYER10
 62
     1
  6
CONTINUOUS
 10
6.3221
 20
10.3055
  0
VERTEX
  8
LAYER10
 62
     1
  6
CONTINUOUS
 10
6.3199
 20
10.3063
  0
VERTEX
  8
LAYER10
 62
     1
  6
CONTINUOUS
 10
6.3179
 20
10.3073
  0
VERTEX
  8
LAYER10
 62
     1
  6
CONTINUOUS
 10
6.3160
 20
10.3084
  0
VERTEX
  8
LAYER10
 62
     1
  6
CONTINUOUS
 10
6.3143
 20
10.3097
  0
VERTEX
  8
LAYER10
 62
     1
  6
CONTINUOUS
 10
6.3128
 20
10.3112
  0
VERTEX
  8
LAYER10
 62
     1
  6
CONTINUOUS
 10
6.3116
 20
10.3128
  0
VERTEX
  8
LAYER10
 62
     1
  6
CONTINUOUS
 10
6.3107
 20
10.3145
  0
VERTEX
  8
LAYER10
 62
     1
  6
CONTINUOUS
 10
6.3100
 20
10.3163
  0
VERTEX
  8
LAYER10
 62
     1
  6
CONTINUOUS
 10
6.3094
 20
10.3183
  0
VERTEX
  8
LAYER10
 62
     1
  6
CONTINUOUS
 10
6.3090
 20
10.3203
  0
VERTEX
  8
LAYER10
 62
     1
  6
CONTINUOUS
 10
6.3087
 20
10.3225
  0
VERTEX
  8
LAYER10
 62
     1
  6
CONTINUOUS
 10
6.3085
 20
10.3246
  0
VERTEX
  8
LAYER10
 62
     1
  6
CONTINUOUS
 10
6.3083
 20
10.3268
  0
VERTEX
  8
LAYER10
 62
     1
  6
CONTINUOUS
 10
6.3080
 20
10.3291
  0
VERTEX
  8
LAYER10
 62
     1
  6
CONTINUOUS
 10
6.3078
 20
10.3313
  0
VERTEX
  8
LAYER10
 62
     1
  6
CONTINUOUS
 10
6.3074
 20
10.3334
  0
VERTEX
  8
LAYER10
 62
     1
  6
CONTINUOUS
 10
6.3070
 20
10.3356
  0
VERTEX
  8
LAYER10
 62
     1
  6
CONTINUOUS
 10
6.3064
 20
10.3376
  0
VERTEX
  8
LAYER10
 62
     1
  6
CONTINUOUS
 10
6.3060
 20
10.3385
  0
VERTEX
  8
LAYER10
 62
     1
  6
CONTINUOUS
 10
6.3057
 20
10.3393
  0
VERTEX
  8
LAYER10
 62
     1
  6
CONTINUOUS
 10
6.3053
 20
10.3402
  0
VERTEX
  8
LAYER10
 62
     1
  6
CONTINUOUS
 10
6.3049
 20
10.3410
  0
VERTEX
  8
LAYER10
 62
     1
  6
CONTINUOUS
 10
6.3045
 20
10.3418
  0
VERTEX
  8
LAYER10
 62
     1
  6
CONTINUOUS
 10
6.3040
 20
10.3426
  0
VERTEX
  8
LAYER10
 62
     1
  6
CONTINUOUS
 10
6.3036
 20
10.3434
  0
VERTEX
  8
LAYER10
 62
     1
  6
CONTINUOUS
 10
6.3031
 20
10.3443
  0
VERTEX
  8
LAYER10
 62
     1
  6
CONTINUOUS
 10
6.3026
 20
10.3451
  0
VERTEX
  8
LAYER10
 62
     1
  6
CONTINUOUS
 10
6.3022
 20
10.3459
  0
VERTEX
  8
LAYER10
 62
     1
  6
CONTINUOUS
 10
6.3017
 20
10.3467
  0
VERTEX
  8
LAYER10
 62
     1
  6
CONTINUOUS
 10
6.3013
 20
10.3475
  0
VERTEX
  8
LAYER10
 62
     1
  6
CONTINUOUS
 10
6.3004
 20
10.3492
  0
VERTEX
  8
LAYER10
 62
     1
  6
CONTINUOUS
 10
6.2996
 20
10.3509
  0
VERTEX
  8
LAYER10
 62
     1
  6
CONTINUOUS
 10
6.2988
 20
10.3527
  0
VERTEX
  8
LAYER10
 62
     1
  6
CONTINUOUS
 10
6.2980
 20
10.3544
  0
VERTEX
  8
LAYER10
 62
     1
  6
CONTINUOUS
 10
6.2972
 20
10.3561
  0
VERTEX
  8
LAYER10
 62
     1
  6
CONTINUOUS
 10
6.2965
 20
10.3579
  0
VERTEX
  8
LAYER10
 62
     1
  6
CONTINUOUS
 10
6.2957
 20
10.3596
  0
VERTEX
  8
LAYER10
 62
     1
  6
CONTINUOUS
 10
6.2948
 20
10.3612
  0
VERTEX
  8
LAYER10
 62
     1
  6
CONTINUOUS
 10
6.2940
 20
10.3629
  0
VERTEX
  8
LAYER10
 62
     1
  6
CONTINUOUS
 10
6.2931
 20
10.3644
  0
VERTEX
  8
LAYER10
 62
     1
  6
CONTINUOUS
 10
6.2921
 20
10.3659
  0
VERTEX
  8
LAYER10
 62
     1
  6
CONTINUOUS
 10
6.2911
 20
10.3673
  0
VERTEX
  8
LAYER10
 62
     1
  6
CONTINUOUS
 10
6.2904
 20
10.3682
  0
VERTEX
  8
LAYER10
 62
     1
  6
CONTINUOUS
 10
6.2897
 20
10.3690
  0
VERTEX
  8
LAYER10
 62
     1
  6
CONTINUOUS
 10
6.2889
 20
10.3698
  0
VERTEX
  8
LAYER10
 62
     1
  6
CONTINUOUS
 10
6.2881
 20
10.3705
  0
VERTEX
  8
LAYER10
 62
     1
  6
CONTINUOUS
 10
6.2873
 20
10.3713
  0
VERTEX
  8
LAYER10
 62
     1
  6
CONTINUOUS
 10
6.2865
 20
10.3721
  0
VERTEX
  8
LAYER10
 62
     1
  6
CONTINUOUS
 10
6.2856
 20
10.3729
  0
VERTEX
  8
LAYER10
 62
     1
  6
CONTINUOUS
 10
6.2847
 20
10.3737
  0
VERTEX
  8
LAYER10
 62
     1
  6
CONTINUOUS
 10
6.2838
 20
10.3745
  0
VERTEX
  8
LAYER10
 62
     1
  6
CONTINUOUS
 10
6.2829
 20
10.3753
  0
VERTEX
  8
LAYER10
 62
     1
  6
CONTINUOUS
 10
6.2820
 20
10.3762
  0
VERTEX
  8
LAYER10
 62
     1
  6
CONTINUOUS
 10
6.2810
 20
10.3772
  0
VERTEX
  8
LAYER10
 62
     1
  6
CONTINUOUS
 10
6.2803
 20
10.3779
  0
VERTEX
  8
LAYER10
 62
     1
  6
CONTINUOUS
 10
6.2795
 20
10.3788
  0
VERTEX
  8
LAYER10
 62
     1
  6
CONTINUOUS
 10
6.2788
 20
10.3796
  0
VERTEX
  8
LAYER10
 62
     1
  6
CONTINUOUS
 10
6.2781
 20
10.3804
  0
VERTEX
  8
LAYER10
 62
     1
  6
CONTINUOUS
 10
6.2775
 20
10.3813
  0
VERTEX
  8
LAYER10
 62
     1
  6
CONTINUOUS
 10
6.2769
 20
10.3822
  0
VERTEX
  8
LAYER10
 62
     1
  6
CONTINUOUS
 10
6.2765
 20
10.3830
  0
VERTEX
  8
LAYER10
 62
     1
  6
CONTINUOUS
 10
6.2761
 20
10.3839
  0
VERTEX
  8
LAYER10
 62
     1
  6
CONTINUOUS
 10
6.2758
 20
10.3847
  0
VERTEX
  8
LAYER10
 62
     1
  6
CONTINUOUS
 10
6.2757
 20
10.3855
  0
VERTEX
  8
LAYER10
 62
     1
  6
CONTINUOUS
 10
6.2757
 20
10.3863
  0
VERTEX
  8
LAYER10
 62
     1
  6
CONTINUOUS
 10
6.2759
 20
10.3871
  0
VERTEX
  8
LAYER10
 62
     1
  6
CONTINUOUS
 10
6.2761
 20
10.3875
  0
VERTEX
  8
LAYER10
 62
     1
  6
CONTINUOUS
 10
6.2764
 20
10.3880
  0
VERTEX
  8
LAYER10
 62
     1
  6
CONTINUOUS
 10
6.2767
 20
10.3884
  0
VERTEX
  8
LAYER10
 62
     1
  6
CONTINUOUS
 10
6.2771
 20
10.3888
  0
VERTEX
  8
LAYER10
 62
     1
  6
CONTINUOUS
 10
6.2775
 20
10.3892
  0
VERTEX
  8
LAYER10
 62
     1
  6
CONTINUOUS
 10
6.2780
 20
10.3896
  0
VERTEX
  8
LAYER10
 62
     1
  6
CONTINUOUS
 10
6.2785
 20
10.3900
  0
VERTEX
  8
LAYER10
 62
     1
  6
CONTINUOUS
 10
6.2789
 20
10.3904
  0
VERTEX
  8
LAYER10
 62
     1
  6
CONTINUOUS
 10
6.2794
 20
10.3909
  0
VERTEX
  8
LAYER10
 62
     1
  6
CONTINUOUS
 10
6.2799
 20
10.3913
  0
VERTEX
  8
LAYER10
 62
     1
  6
CONTINUOUS
 10
6.2804
 20
10.3917
  0
VERTEX
  8
LAYER10
 62
     1
  6
CONTINUOUS
 10
6.2809
 20
10.3921
  0
SEQEND
  8
LAYER10
  0
POLYLINE
  8
LAYER12
 62
     5
 66
     1
  6
CONTINUOUS
  0
VERTEX
  8
LAYER12
 62
     5
  6
CONTINUOUS
 10
7.0490
 20
9.5139
  0
VERTEX
  8
LAYER12
 62
     5
  6
CONTINUOUS
 10
6.0657
 20
9.5139
  0
SEQEND
  8
LAYER12
  0
POLYLINE
  8
LAYER12
 62
     5
 66
     1
  6
CONTINUOUS
  0
VERTEX
  8
LAYER12
 62
     5
  6
CONTINUOUS
 10
6.0657
 20
10.4315
  0
VERTEX
  8
LAYER12
 62
     5
  6
CONTINUOUS
 10
6.0657
 20
9.5140
  0
SEQEND
  8
LAYER12
  0
POLYLINE
  8
LAYER12
 62
     5
 66
     1
  6
CONTINUOUS
  0
VERTEX
  8
LAYER12
 62
     5
  6
CONTINUOUS
 10
7.0493
 20
9.5140
  0
VERTEX
  8
LAYER12
 62
     5
  6
CONTINUOUS
 10
7.0493
 20
10.4315
  0
SEQEND
  8
LAYER12
  0
POLYLINE
  8
LAYER12
 62
     5
 66
     1
  6
CONTINUOUS
  0
VERTEX
  8
LAYER12
 62
     5
  6
CONTINUOUS
 10
6.0657
 20
10.5370
  0
VERTEX
  8
LAYER12
 62
     5
  6
CONTINUOUS
 10
6.0657
 20
10.5369
  0
SEQEND
  8
LAYER12
  0
POLYLINE
  8
LAYER12
 62
     5
 66
     1
  6
CONTINUOUS
  0
VERTEX
  8
LAYER12
 62
     5
  6
CONTINUOUS
 10
6.0657
 20
10.5369
  0
VERTEX
  8
LAYER12
 62
     5
  6
CONTINUOUS
 10
6.0657
 20
10.5370
  0
SEQEND
  8
LAYER12
  0
POLYLINE
  8
LAYER12
 62
     5
 66
     1
  6
CONTINUOUS
  0
VERTEX
  8
LAYER12
 62
     5
  6
CONTINUOUS
 10
6.0657
 20
10.5370
  0
VERTEX
  8
LAYER12
 62
     5
  6
CONTINUOUS
 10
6.0657
 20
10.5369
  0
SEQEND
  8
LAYER12
  0
POLYLINE
  8
LAYER12
 62
     5
 66
     1
  6
CONTINUOUS
  0
VERTEX
  8
LAYER12
 62
     5
  6
CONTINUOUS
 10
6.0657
 20
10.5369
  0
VERTEX
  8
LAYER12
 62
     5
  6
CONTINUOUS
 10
6.0657
 20
10.4315
  0
SEQEND
  8
LAYER12
  0
POLYLINE
  8
LAYER12
 62
     5
 66
     1
  6
CONTINUOUS
  0
VERTEX
  8
LAYER12
 62
     5
  6
CONTINUOUS
 10
7.0493
 20
10.4315
  0
VERTEX
  8
LAYER12
 62
     5
  6
CONTINUOUS
 10
7.0493
 20
10.5370
  0
SEQEND
  8
LAYER12
  0
POLYLINE
  8
LAYER12
 62
     5
 66
     1
  6
CONTINUOUS
  0
VERTEX
  8
LAYER12
 62
     5
  6
CONTINUOUS
 10
7.0493
 20
10.5370
  0
VERTEX
  8
LAYER12
 62
     5
  6
CONTINUOUS
 10
7.0493
 20
10.5369
  0
SEQEND
  8
LAYER12
  0
POLYLINE
  8
LAYER12
 62
     5
 66
     1
  6
CONTINUOUS
  0
VERTEX
  8
LAYER12
 62
     5
  6
CONTINUOUS
 10
7.0493
 20
10.5369
  0
VERTEX
  8
LAYER12
 62
     5
  6
CONTINUOUS
 10
7.0493
 20
10.5370
  0
SEQEND
  8
LAYER12
  0
POLYLINE
  8
LAYER12
 62
     5
 66
     1
  6
CONTINUOUS
  0
VERTEX
  8
LAYER12
 62
     5
  6
CONTINUOUS
 10
6.0657
 20
10.5370
  0
VERTEX
  8
LAYER12
 62
     5
  6
CONTINUOUS
 10
6.0657
 20
10.5370
  0
SEQEND
  8
LAYER12
  0
POLYLINE
  8
LAYER12
 62
     5
 66
     1
  6
CONTINUOUS
  0
VERTEX
  8
LAYER12
 62
     5
  6
CONTINUOUS
 10
6.0657
 20
10.5370
  0
VERTEX
  8
LAYER12
 62
     5
  6
CONTINUOUS
 10
7.0490
 20
10.5370
  0
SEQEND
  8
LAYER12
  0
ENDSEC
  0
EOF
