  0
SECTION
  2
HEADER
  9
$ACADVER
  1
AC1004
  9
$EXTMIN
 10
3.9439
 20
2.5600
  9
$EXTMAX
 10
16.7784
 20
14.6711
  9
$LIMMIN
 10
3.9439
 20
2.5600
  9
$LIMMAX
 10
16.7784
 20
14.6711
  9
$INSBASE
 10
0.0
 20
0.0
  9
$VIEWCTR
 10
7.21903
 20
4.5
  9
$VIEWSIZE
 40
9.0
  9
$SNAPMODE
 70
     0
  9
$SNAPUNIT
 10
1.0
 20
1.0
  9
$SNAPBASE
 10
0.0
 20
0.0
  9
$SNAPANG
 50
0.0
  9
$SNAPSTYLE
 70
     0
  9
$SNAPISOPAIR
 70
     0
  9
$GRIDMODE
 70
     0
  9
$GRIDUNIT
 10
0.0
 20
0.0
  9
$ORTHOMODE
 70
     0
  9
$REGENMODE
 70
     1
  9
$FILLMODE
 70
     1
  9
$QTEXTMODE
 70
     0
  9
$DRAGMODE
 70
     2
  9
$LTSCALE
 40
1.0
  9
$OSMODE
 70
     0
  9
$ATTMODE
 70
     1
  9
$TEXTSIZE
 40
0.2
  9
$TRACEWID
 40
0.05
  9
$TEXTSTYLE
  7
STANDARD
  9
$CLAYER
  8
0
  9
$CELTYPE
  6
BYLAYER
  9
$CECOLOR
 62
   256
  9
$DIMSCALE
 40
1.0
  9
$DIMASZ
 40
0.18
  9
$DIMEXO
 40
0.0625
  9
$DIMDLI
 40
0.38
  9
$DIMRND
 40
0.0
  9
$DIMDLE
 40
0.0
  9
$DIMEXE
 40
0.18
  9
$DIMTP
 40
0.0
  9
$DIMTM
 40
0.0
  9
$DIMTXT
 40
0.18
  9
$DIMCEN
 40
0.09
  9
$DIMTSZ
 40
0.0
  9
$DIMTOL
 70
     0
  9
$DIMLIM
 70
     0
  9
$DIMTIH
 70
     1
  9
$DIMTOH
 70
     1
  9
$DIMSE1
 70
     0
  9
$DIMSE2
 70
     0
  9
$DIMTAD
 70
     0
  9
$DIMZIN
 70
     0
  9
$DIMBLK
  1

  9
$DIMASO
 70
     1
  9
$DIMSHO
 70
     0
  9
$DIMPOST
  1

  9
$DIMAPOST
  1

  9
$DIMALT
 70
     0
  9
$DIMALTD
 70
     2
  9
$DIMALTF
 40
25.4
  9
$DIMLFAC
 40
1.0
  9
$LUNITS
 70
     2
  9
$LUPREC
 70
     4
  9
$AXISMODE
 70
     0
  9
$AXISUNIT
 10
0.0
 20
0.0
  9
$SKETCHINC
 40
0.1
  9
$FILLETRAD
 40
0.0
  9
$AUNITS
 70
     0
  9
$AUPREC
 70
     0
  9
$MENU
  1
acad
  9
$ELEVATION
 40
0.0
  9
$THICKNESS
 40
0.0
  9
$VIEWDIR
 10
0.0
 20
0.0
 30
1.0
  9
$LIMCHECK
 70
     0
  9
$BLIPMODE
 70
     1
  9
$CHAMFERA
 40
0.0
  9
$CHAMFERB
 40
0.0
  9
$FASTZOOM
 70
     1
  9
$SKPOLY
 70
     0
  9
$TDCREATE
 40
2447222.5666886573
  9
$TDUPDATE
 40
2447222.5666886573
  9
$TDINDWG
 40
0.0000000000
  9
$TDUSRTIMER
 40
0.0000000000
  9
$USRTIMER
 70
     1
  9
$ANGBASE
 50
0.0
  9
$ANGDIR
 70
     0
  9
$PDMODE
 70
     0
  9
$PDSIZE
 40
0.0
  9
$PLINEWID
 40
0.0
  9
$COORDS
 70
     0
  9
$SPLFRAME
 70
     0
  9
$SPLINESEGS
 70
     8
  9
$ATTDIA
 70
     0
  9
$ATTREQ
 70
     1
  9
$USERI1
 70
     0
  9
$USERI2
 70
     0
  9
$USERI3
 70
     0
  9
$USERI4
 70
     0
  9
$USERI5
 70
     0
  9
$USERR1
 40
0.0
  9
$USERR2
 40
0.0
  9
$USERR3
 40
0.0
  9
$USERR4
 40
0.0
  9
$USERR5
 40
0.0
  0
ENDSEC
  0
SECTION
  2
TABLES
  0
TABLE
  2
LTYPE
 70
     13
  0
LTYPE
  2
CONTINUOUS
 70
    64
  3
Solid line
 72
    65
 73
     0
 40
0.0
  0
LTYPE
  2
DASHED
 70
    64
  3
__ __ __ __ __ __ __ __ __ __ __ __ __ __ __
 72
    65
 73
     2
 40
0.75
 49
0.5
 49
-0.25
  0
LTYPE
  2
HIDDEN
 70
    64
  3
_ _ _ _ _ _ _ _ _ _ _ _ _ _ _ _ _ _ _ _ _ _ _
 72
    65
 73
     2
 40
0.375
 49
0.25
 49
-0.125
  0
LTYPE
  2
CENTER
 70
    64
  3
____ _ ____ _ ____ _ ____ _ ____ _ ____ _ ____
 72
    65
 73
     4
 40
2.0
 49
1.25
 49
-0.25
 49
0.25
 49
-0.25
  0
LTYPE
  2
PHANTOM
 70
    64
  3
_____ _ _ _____ _ _ _____ _ _ _____ _ _ ____
 72
    65
 73
     6
 40
2.5
 49
1.25
 49
-0.25
 49
0.25
 49
-0.25
 49
0.25
 49
-0.25
  0
LTYPE
  2
DOT
 70
    64
  3
...............................................
 72
    65
 73
     2
 40
0.25
 49
0.0
 49
-0.25
  0
LTYPE
  2
DASHDOT
 70
    64
  3
__ . __ . __ . __ . __ . __ . __ . __ . __ . __
 72
    65
 73
     4
 40
1.0
 49
0.5
 49
-0.25
 49
0.0
 49
-0.25
  0
LTYPE
  2
BORDER
 70
    64
  3
__ __ . __ __ . __ __ . __ __ . __ __ . __ __
 72
    65
 73
     6
 40
1.75
 49
0.5
 49
-0.25
 49
0.5
 49
-0.25
 49
0.0
 49
-0.25
  0
LTYPE
  2
DIVIDE
 70
    64
  3
__ . . __ . . __ . . __ . . __ . . __ . . __
 72
    65
 73
     6
 40
1.25
 49
0.5
 49
-0.25
 49
0.0
 49
-0.25
 49
0.0
 49
-0.25
  0
LTYPE
  2
DCTYPE1
 70
    64
  3
__ . . __ . . __ . . __ . . __ . . __ . . __
 72
    65
 73
     8
 40
2.5
 49
0.5
 49
-0.25
 49
0.125
 49
-0.25
 49
0.25
 49
-0.25
 49
0.125
 49
-0.25
  0
LTYPE
  2
DCTYPE2
 70
    64
  3
__ . . __ . . __ . . __ . . __ . . __ . . __
 72
    65
 73
     6
 40
2.05
 49
1.0
 49
-0.3
 49
0.15
 49
-0.15
 49
0.15
 49
-0.3
  0
LTYPE
  2
DCTYPE3
 70
    64
  3
__ . . __ . . __ . . __ . . __ . . __ . . __
 72
    65
 73
     6
 40
2.5
 49
0.8
 49
-0.2
 49
0.8
 49
-0.2
 49
0.3
 49
-0.2
  0
LTYPE
  2
DCTYPE4
 70
    64
  3
__ . . __ . . __ . . __ . . __ . . __ . . __
 72
    65
 73
     10
 40
3.97
 49
1.75
 49
-0.3
 49
0.3
 49
-0.3
 49
0.06
 49
-0.3
 49
0.06
 49
-0.3
 49
0.3
 49
-0.3
  0
ENDTAB
  0
TABLE
  2
LAYER
 70
    153
  0
LAYER
  2
LAYER1
 70
 64
 62
     7
  6
CONTINUOUS
  0
ENDTAB
  0
ENDSEC
  0
SECTION
  2
BLOCKS
  0
ENDSEC
  0
SECTION
  2
ENTITIES
  0
POLYLINE
  8
LAYER1
 62
     7
 66
     1
  6
CONTINUOUS
  0
VERTEX
  8
LAYER1
 62
     7
  6
CONTINUOUS
 10
16.7784
 20
9.5648
  0
VERTEX
  8
LAYER1
 62
     7
  6
CONTINUOUS
 10
16.7784
 20
7.5374
  0
SEQEND
  8
LAYER1
  0
POLYLINE
  8
LAYER1
 62
     7
 66
     1
  6
CONTINUOUS
  0
VERTEX
  8
LAYER1
 62
     7
  6
CONTINUOUS
 10
16.7784
 20
7.5374
  0
VERTEX
  8
LAYER1
 62
     7
  6
CONTINUOUS
 10
16.7784
 20
9.5648
  0
SEQEND
  8
LAYER1
  0
POLYLINE
  8
LAYER1
 62
     7
 66
     1
  6
CONTINUOUS
  0
VERTEX
  8
LAYER1
 62
     7
  6
CONTINUOUS
 10
16.7784
 20
9.5648
  0
VERTEX
  8
LAYER1
 62
     7
  6
CONTINUOUS
 10
16.6395
 20
9.1641
  0
SEQEND
  8
LAYER1
  0
POLYLINE
  8
LAYER1
 62
     7
 66
     1
  6
CONTINUOUS
  0
VERTEX
  8
LAYER1
 62
     7
  6
CONTINUOUS
 10
10.1549
 20
12.4707
  0
VERTEX
  8
LAYER1
 62
     7
  6
CONTINUOUS
 10
10.1904
 20
12.4840
  0
VERTEX
  8
LAYER1
 62
     7
  6
CONTINUOUS
 10
10.2303
 20
12.4973
  0
VERTEX
  8
LAYER1
 62
     7
  6
CONTINUOUS
 10
10.2614
 20
12.5195
  0
VERTEX
  8
LAYER1
 62
     7
  6
CONTINUOUS
 10
10.2924
 20
12.5550
  0
VERTEX
  8
LAYER1
 62
     7
  6
CONTINUOUS
 10
10.3279
 20
12.5860
  0
VERTEX
  8
LAYER1
 62
     7
  6
CONTINUOUS
 10
10.3723
 20
12.6215
  0
VERTEX
  8
LAYER1
 62
     7
  6
CONTINUOUS
 10
10.4122
 20
12.6570
  0
VERTEX
  8
LAYER1
 62
     7
  6
CONTINUOUS
 10
10.4477
 20
12.7014
  0
VERTEX
  8
LAYER1
 62
     7
  6
CONTINUOUS
 10
10.4965
 20
12.7413
  0
VERTEX
  8
LAYER1
 62
     7
  6
CONTINUOUS
 10
10.5364
 20
12.7768
  0
VERTEX
  8
LAYER1
 62
     7
  6
CONTINUOUS
 10
10.5852
 20
12.8123
  0
VERTEX
  8
LAYER1
 62
     7
  6
CONTINUOUS
 10
10.6207
 20
12.8433
  0
VERTEX
  8
LAYER1
 62
     7
  6
CONTINUOUS
 10
10.6651
 20
12.8744
  0
VERTEX
  8
LAYER1
 62
     7
  6
CONTINUOUS
 10
10.6961
 20
12.9010
  0
VERTEX
  8
LAYER1
 62
     7
  6
CONTINUOUS
 10
10.7405
 20
12.9321
  0
VERTEX
  8
LAYER1
 62
     7
  6
CONTINUOUS
 10
10.7804
 20
12.9720
  0
VERTEX
  8
LAYER1
 62
     7
  6
CONTINUOUS
 10
10.8159
 20
13.0030
  0
VERTEX
  8
LAYER1
 62
     7
  6
CONTINUOUS
 10
10.8514
 20
13.0385
  0
VERTEX
  8
LAYER1
 62
     7
  6
CONTINUOUS
 10
10.8824
 20
13.0740
  0
VERTEX
  8
LAYER1
 62
     7
  6
CONTINUOUS
 10
10.9179
 20
13.1095
  0
VERTEX
  8
LAYER1
 62
     7
  6
CONTINUOUS
 10
10.9490
 20
13.1406
  0
VERTEX
  8
LAYER1
 62
     7
  6
CONTINUOUS
 10
10.9845
 20
13.1716
  0
VERTEX
  8
LAYER1
 62
     7
  6
CONTINUOUS
 10
11.0244
 20
13.2071
  0
VERTEX
  8
LAYER1
 62
     7
  6
CONTINUOUS
 10
11.0599
 20
13.2382
  0
VERTEX
  8
LAYER1
 62
     7
  6
CONTINUOUS
 10
11.1087
 20
13.2692
  0
VERTEX
  8
LAYER1
 62
     7
  6
CONTINUOUS
 10
11.1486
 20
13.3003
  0
VERTEX
  8
LAYER1
 62
     7
  6
CONTINUOUS
 10
11.2152
 20
13.3491
  0
VERTEX
  8
LAYER1
 62
     7
  6
CONTINUOUS
 10
11.2862
 20
13.4023
  0
VERTEX
  8
LAYER1
 62
     7
  6
CONTINUOUS
 10
11.3394
 20
13.4467
  0
VERTEX
  8
LAYER1
 62
     7
  6
CONTINUOUS
 10
11.3571
 20
13.4955
  0
VERTEX
  8
LAYER1
 62
     7
  6
CONTINUOUS
 10
11.3527
 20
13.5487
  0
VERTEX
  8
LAYER1
 62
     7
  6
CONTINUOUS
 10
11.3350
 20
13.6020
  0
VERTEX
  8
LAYER1
 62
     7
  6
CONTINUOUS
 10
11.3083
 20
13.6419
  0
VERTEX
  8
LAYER1
 62
     7
  6
CONTINUOUS
 10
11.2374
 20
13.6862
  0
VERTEX
  8
LAYER1
 62
     7
  6
CONTINUOUS
 10
11.1752
 20
13.7262
  0
VERTEX
  8
LAYER1
 62
     7
  6
CONTINUOUS
 10
11.1220
 20
13.7395
  0
VERTEX
  8
LAYER1
 62
     7
  6
CONTINUOUS
 10
11.0777
 20
13.7350
  0
VERTEX
  8
LAYER1
 62
     7
  6
CONTINUOUS
 10
11.0422
 20
13.7129
  0
VERTEX
  8
LAYER1
 62
     7
  6
CONTINUOUS
 10
10.9934
 20
13.6729
  0
VERTEX
  8
LAYER1
 62
     7
  6
CONTINUOUS
 10
10.9446
 20
13.6419
  0
VERTEX
  8
LAYER1
 62
     7
  6
CONTINUOUS
 10
10.9091
 20
13.6108
  0
VERTEX
  8
LAYER1
 62
     7
  6
CONTINUOUS
 10
10.8603
 20
13.5665
  0
VERTEX
  8
LAYER1
 62
     7
  6
CONTINUOUS
 10
10.8203
 20
13.5221
  0
VERTEX
  8
LAYER1
 62
     7
  6
CONTINUOUS
 10
10.7715
 20
13.4866
  0
VERTEX
  8
LAYER1
 62
     7
  6
CONTINUOUS
 10
10.6872
 20
13.4556
  0
VERTEX
  8
LAYER1
 62
     7
  6
CONTINUOUS
 10
10.6030
 20
13.4511
  0
VERTEX
  8
LAYER1
 62
     7
  6
CONTINUOUS
 10
10.5142
 20
13.4600
  0
VERTEX
  8
LAYER1
 62
     7
  6
CONTINUOUS
 10
10.4521
 20
13.4689
  0
VERTEX
  8
LAYER1
 62
     7
  6
CONTINUOUS
 10
10.3590
 20
13.4733
  0
VERTEX
  8
LAYER1
 62
     7
  6
CONTINUOUS
 10
10.3013
 20
13.4644
  0
VERTEX
  8
LAYER1
 62
     7
  6
CONTINUOUS
 10
10.2170
 20
13.4334
  0
VERTEX
  8
LAYER1
 62
     7
  6
CONTINUOUS
 10
10.1460
 20
13.4023
  0
VERTEX
  8
LAYER1
 62
     7
  6
CONTINUOUS
 10
10.0750
 20
13.3757
  0
VERTEX
  8
LAYER1
 62
     7
  6
CONTINUOUS
 10
10.0351
 20
13.3579
  0
VERTEX
  8
LAYER1
 62
     7
  6
CONTINUOUS
 10
10.0085
 20
13.3269
  0
VERTEX
  8
LAYER1
 62
     7
  6
CONTINUOUS
 10
9.9863
 20
13.2825
  0
VERTEX
  8
LAYER1
 62
     7
  6
CONTINUOUS
 10
9.9730
 20
13.2249
  0
VERTEX
  8
LAYER1
 62
     7
  6
CONTINUOUS
 10
9.9641
 20
13.1672
  0
VERTEX
  8
LAYER1
 62
     7
  6
CONTINUOUS
 10
9.9508
 20
13.1184
  0
VERTEX
  8
LAYER1
 62
     7
  6
CONTINUOUS
 10
9.9464
 20
13.0474
  0
VERTEX
  8
LAYER1
 62
     7
  6
CONTINUOUS
 10
9.9464
 20
12.9631
  0
VERTEX
  8
LAYER1
 62
     7
  6
CONTINUOUS
 10
9.9419
 20
12.9099
  0
VERTEX
  8
LAYER1
 62
     7
  6
CONTINUOUS
 10
9.9286
 20
12.8611
  0
VERTEX
  8
LAYER1
 62
     7
  6
CONTINUOUS
 10
9.9109
 20
12.8034
  0
VERTEX
  8
LAYER1
 62
     7
  6
CONTINUOUS
 10
9.8976
 20
12.7502
  0
VERTEX
  8
LAYER1
 62
     7
  6
CONTINUOUS
 10
9.9020
 20
12.7058
  0
VERTEX
  8
LAYER1
 62
     7
  6
CONTINUOUS
 10
9.9242
 20
12.6659
  0
VERTEX
  8
LAYER1
 62
     7
  6
CONTINUOUS
 10
9.9508
 20
12.6348
  0
VERTEX
  8
LAYER1
 62
     7
  6
CONTINUOUS
 10
9.9774
 20
12.5949
  0
VERTEX
  8
LAYER1
 62
     7
  6
CONTINUOUS
 10
10.0218
 20
12.5683
  0
VERTEX
  8
LAYER1
 62
     7
  6
CONTINUOUS
 10
10.0617
 20
12.5505
  0
VERTEX
  8
LAYER1
 62
     7
  6
CONTINUOUS
 10
10.0972
 20
12.5239
  0
VERTEX
  8
LAYER1
 62
     7
  6
CONTINUOUS
 10
10.1283
 20
12.4929
  0
VERTEX
  8
LAYER1
 62
     7
  6
CONTINUOUS
 10
10.1682
 20
12.4707
  0
VERTEX
  8
LAYER1
 62
     7
  6
CONTINUOUS
 10
10.2214
 20
12.4929
  0
VERTEX
  8
LAYER1
 62
     7
  6
CONTINUOUS
 10
10.2614
 20
12.5195
  0
SEQEND
  8
LAYER1
  0
POLYLINE
  8
LAYER1
 62
     7
 66
     1
  6
CONTINUOUS
  0
VERTEX
  8
LAYER1
 62
     7
  6
CONTINUOUS
 10
9.2277
 20
13.4023
  0
VERTEX
  8
LAYER1
 62
     7
  6
CONTINUOUS
 10
9.2499
 20
13.4378
  0
VERTEX
  8
LAYER1
 62
     7
  6
CONTINUOUS
 10
9.2676
 20
13.4777
  0
VERTEX
  8
LAYER1
 62
     7
  6
CONTINUOUS
 10
9.2942
 20
13.5221
  0
VERTEX
  8
LAYER1
 62
     7
  6
CONTINUOUS
 10
9.3253
 20
13.5798
  0
VERTEX
  8
LAYER1
 62
     7
  6
CONTINUOUS
 10
9.3741
 20
13.6286
  0
VERTEX
  8
LAYER1
 62
     7
  6
CONTINUOUS
 10
9.4229
 20
13.6641
  0
VERTEX
  8
LAYER1
 62
     7
  6
CONTINUOUS
 10
9.4894
 20
13.6862
  0
VERTEX
  8
LAYER1
 62
     7
  6
CONTINUOUS
 10
9.5515
 20
13.6907
  0
VERTEX
  8
LAYER1
 62
     7
  6
CONTINUOUS
 10
9.6048
 20
13.7040
  0
VERTEX
  8
LAYER1
 62
     7
  6
CONTINUOUS
 10
9.6580
 20
13.7484
  0
VERTEX
  8
LAYER1
 62
     7
  6
CONTINUOUS
 10
9.6935
 20
13.7927
  0
VERTEX
  8
LAYER1
 62
     7
  6
CONTINUOUS
 10
9.7379
 20
13.8193
  0
VERTEX
  8
LAYER1
 62
     7
  6
CONTINUOUS
 10
9.7867
 20
13.8548
  0
VERTEX
  8
LAYER1
 62
     7
  6
CONTINUOUS
 10
9.8266
 20
13.8903
  0
VERTEX
  8
LAYER1
 62
     7
  6
CONTINUOUS
 10
9.8710
 20
13.9081
  0
VERTEX
  8
LAYER1
 62
     7
  6
CONTINUOUS
 10
9.9375
 20
13.9125
  0
VERTEX
  8
LAYER1
 62
     7
  6
CONTINUOUS
 10
9.9907
 20
13.9125
  0
VERTEX
  8
LAYER1
 62
     7
  6
CONTINUOUS
 10
10.0706
 20
13.9302
  0
VERTEX
  8
LAYER1
 62
     7
  6
CONTINUOUS
 10
10.1194
 20
13.9480
  0
VERTEX
  8
LAYER1
 62
     7
  6
CONTINUOUS
 10
10.1771
 20
13.9657
  0
VERTEX
  8
LAYER1
 62
     7
  6
CONTINUOUS
 10
10.2392
 20
13.9879
  0
VERTEX
  8
LAYER1
 62
     7
  6
CONTINUOUS
 10
10.3368
 20
14.0057
  0
VERTEX
  8
LAYER1
 62
     7
  6
CONTINUOUS
 10
10.3767
 20
14.0145
  0
VERTEX
  8
LAYER1
 62
     7
  6
CONTINUOUS
 10
10.4166
 20
14.0145
  0
VERTEX
  8
LAYER1
 62
     7
  6
CONTINUOUS
 10
10.4654
 20
14.0278
  0
VERTEX
  8
LAYER1
 62
     7
  6
CONTINUOUS
 10
10.5142
 20
14.0500
  0
VERTEX
  8
LAYER1
 62
     7
  6
CONTINUOUS
 10
10.5630
 20
14.0678
  0
VERTEX
  8
LAYER1
 62
     7
  6
CONTINUOUS
 10
10.6163
 20
14.0811
  0
VERTEX
  8
LAYER1
 62
     7
  6
CONTINUOUS
 10
10.6695
 20
14.0944
  0
VERTEX
  8
LAYER1
 62
     7
  6
CONTINUOUS
 10
10.7272
 20
14.1121
  0
VERTEX
  8
LAYER1
 62
     7
  6
CONTINUOUS
 10
10.7760
 20
14.1254
  0
VERTEX
  8
LAYER1
 62
     7
  6
CONTINUOUS
 10
10.8248
 20
14.1343
  0
VERTEX
  8
LAYER1
 62
     7
  6
CONTINUOUS
 10
10.8869
 20
14.1388
  0
VERTEX
  8
LAYER1
 62
     7
  6
CONTINUOUS
 10
10.9401
 20
14.1521
  0
VERTEX
  8
LAYER1
 62
     7
  6
CONTINUOUS
 10
10.9845
 20
14.1654
  0
VERTEX
  8
LAYER1
 62
     7
  6
CONTINUOUS
 10
11.0288
 20
14.1831
  0
VERTEX
  8
LAYER1
 62
     7
  6
CONTINUOUS
 10
11.0910
 20
14.2097
  0
VERTEX
  8
LAYER1
 62
     7
  6
CONTINUOUS
 10
11.1398
 20
14.2364
  0
VERTEX
  8
LAYER1
 62
     7
  6
CONTINUOUS
 10
11.1974
 20
14.2630
  0
VERTEX
  8
LAYER1
 62
     7
  6
CONTINUOUS
 10
11.2684
 20
14.3073
  0
VERTEX
  8
LAYER1
 62
     7
  6
CONTINUOUS
 10
11.3039
 20
14.3251
  0
VERTEX
  8
LAYER1
 62
     7
  6
CONTINUOUS
 10
11.3483
 20
14.3428
  0
VERTEX
  8
LAYER1
 62
     7
  6
CONTINUOUS
 10
11.3882
 20
14.3517
  0
VERTEX
  8
LAYER1
 62
     7
  6
CONTINUOUS
 10
11.4459
 20
14.3606
  0
VERTEX
  8
LAYER1
 62
     7
  6
CONTINUOUS
 10
11.4769
 20
14.3606
  0
VERTEX
  8
LAYER1
 62
     7
  6
CONTINUOUS
 10
11.5302
 20
14.3606
  0
VERTEX
  8
LAYER1
 62
     7
  6
CONTINUOUS
 10
11.5790
 20
14.3606
  0
VERTEX
  8
LAYER1
 62
     7
  6
CONTINUOUS
 10
11.6322
 20
14.3561
  0
VERTEX
  8
LAYER1
 62
     7
  6
CONTINUOUS
 10
11.6899
 20
14.3517
  0
VERTEX
  8
LAYER1
 62
     7
  6
CONTINUOUS
 10
11.7387
 20
14.3783
  0
VERTEX
  8
LAYER1
 62
     7
  6
CONTINUOUS
 10
11.7387
 20
14.4049
  0
VERTEX
  8
LAYER1
 62
     7
  6
CONTINUOUS
 10
11.7431
 20
14.4404
  0
VERTEX
  8
LAYER1
 62
     7
  6
CONTINUOUS
 10
11.7431
 20
14.4759
  0
VERTEX
  8
LAYER1
 62
     7
  6
CONTINUOUS
 10
11.7431
 20
14.5070
  0
VERTEX
  8
LAYER1
 62
     7
  6
CONTINUOUS
 10
11.7520
 20
14.5469
  0
VERTEX
  8
LAYER1
 62
     7
  6
CONTINUOUS
 10
11.7875
 20
14.6001
  0
VERTEX
  8
LAYER1
 62
     7
  6
CONTINUOUS
 10
11.8451
 20
14.6401
  0
VERTEX
  8
LAYER1
 62
     7
  6
CONTINUOUS
 10
11.9161
 20
14.6667
  0
VERTEX
  8
LAYER1
 62
     7
  6
CONTINUOUS
 10
11.9738
 20
14.6711
  0
VERTEX
  8
LAYER1
 62
     7
  6
CONTINUOUS
 10
12.0226
 20
14.6667
  0
VERTEX
  8
LAYER1
 62
     7
  6
CONTINUOUS
 10
12.0537
 20
14.6356
  0
VERTEX
  8
LAYER1
 62
     7
  6
CONTINUOUS
 10
12.0714
 20
14.5824
  0
VERTEX
  8
LAYER1
 62
     7
  6
CONTINUOUS
 10
12.0758
 20
14.5380
  0
VERTEX
  8
LAYER1
 62
     7
  6
CONTINUOUS
 10
12.0803
 20
14.4892
  0
VERTEX
  8
LAYER1
 62
     7
  6
CONTINUOUS
 10
12.0803
 20
14.4316
  0
VERTEX
  8
LAYER1
 62
     7
  6
CONTINUOUS
 10
12.0847
 20
14.3872
  0
VERTEX
  8
LAYER1
 62
     7
  6
CONTINUOUS
 10
12.1291
 20
14.3428
  0
VERTEX
  8
LAYER1
 62
     7
  6
CONTINUOUS
 10
12.1956
 20
14.3162
  0
VERTEX
  8
LAYER1
 62
     7
  6
CONTINUOUS
 10
12.2489
 20
14.2985
  0
VERTEX
  8
LAYER1
 62
     7
  6
CONTINUOUS
 10
12.2977
 20
14.2852
  0
VERTEX
  8
LAYER1
 62
     7
  6
CONTINUOUS
 10
12.3598
 20
14.2852
  0
VERTEX
  8
LAYER1
 62
     7
  6
CONTINUOUS
 10
12.4396
 20
14.2852
  0
VERTEX
  8
LAYER1
 62
     7
  6
CONTINUOUS
 10
12.4973
 20
14.3073
  0
VERTEX
  8
LAYER1
 62
     7
  6
CONTINUOUS
 10
12.5461
 20
14.3384
  0
VERTEX
  8
LAYER1
 62
     7
  6
CONTINUOUS
 10
12.5993
 20
14.3739
  0
VERTEX
  8
LAYER1
 62
     7
  6
CONTINUOUS
 10
12.6570
 20
14.3783
  0
VERTEX
  8
LAYER1
 62
     7
  6
CONTINUOUS
 10
12.7058
 20
14.3561
  0
VERTEX
  8
LAYER1
 62
     7
  6
CONTINUOUS
 10
12.7502
 20
14.3295
  0
VERTEX
  8
LAYER1
 62
     7
  6
CONTINUOUS
 10
12.7945
 20
14.3029
  0
VERTEX
  8
LAYER1
 62
     7
  6
CONTINUOUS
 10
12.8655
 20
14.2630
  0
VERTEX
  8
LAYER1
 62
     7
  6
CONTINUOUS
 10
12.9720
 20
14.2186
  0
VERTEX
  8
LAYER1
 62
     7
  6
CONTINUOUS
 10
13.1361
 20
14.1521
  0
VERTEX
  8
LAYER1
 62
     7
  6
CONTINUOUS
 10
13.2337
 20
14.0944
  0
VERTEX
  8
LAYER1
 62
     7
  6
CONTINUOUS
 10
13.3047
 20
14.0633
  0
VERTEX
  8
LAYER1
 62
     7
  6
CONTINUOUS
 10
13.3846
 20
14.0323
  0
VERTEX
  8
LAYER1
 62
     7
  6
CONTINUOUS
 10
13.4556
 20
14.0234
  0
VERTEX
  8
LAYER1
 62
     7
  6
CONTINUOUS
 10
13.5132
 20
13.9968
  0
VERTEX
  8
LAYER1
 62
     7
  6
CONTINUOUS
 10
13.5576
 20
13.9480
  0
VERTEX
  8
LAYER1
 62
     7
  6
CONTINUOUS
 10
13.5975
 20
13.9036
  0
VERTEX
  8
LAYER1
 62
     7
  6
CONTINUOUS
 10
13.6419
 20
13.8637
  0
VERTEX
  8
LAYER1
 62
     7
  6
CONTINUOUS
 10
13.6951
 20
13.8149
  0
VERTEX
  8
LAYER1
 62
     7
  6
CONTINUOUS
 10
13.7306
 20
13.7838
  0
VERTEX
  8
LAYER1
 62
     7
  6
CONTINUOUS
 10
13.7661
 20
13.7306
  0
VERTEX
  8
LAYER1
 62
     7
  6
CONTINUOUS
 10
13.8060
 20
13.6641
  0
VERTEX
  8
LAYER1
 62
     7
  6
CONTINUOUS
 10
13.8415
 20
13.6064
  0
VERTEX
  8
LAYER1
 62
     7
  6
CONTINUOUS
 10
13.8859
 20
13.5310
  0
VERTEX
  8
LAYER1
 62
     7
  6
CONTINUOUS
 10
13.9302
 20
13.4822
  0
VERTEX
  8
LAYER1
 62
     7
  6
CONTINUOUS
 10
13.9746
 20
13.4511
  0
VERTEX
  8
LAYER1
 62
     7
  6
CONTINUOUS
 10
14.0190
 20
13.4023
  0
VERTEX
  8
LAYER1
 62
     7
  6
CONTINUOUS
 10
14.0500
 20
13.3668
  0
VERTEX
  8
LAYER1
 62
     7
  6
CONTINUOUS
 10
14.1210
 20
13.2870
  0
VERTEX
  8
LAYER1
 62
     7
  6
CONTINUOUS
 10
14.1609
 20
13.2648
  0
VERTEX
  8
LAYER1
 62
     7
  6
CONTINUOUS
 10
14.2009
 20
13.2382
  0
VERTEX
  8
LAYER1
 62
     7
  6
CONTINUOUS
 10
14.2408
 20
13.2071
  0
VERTEX
  8
LAYER1
 62
     7
  6
CONTINUOUS
 10
14.2940
 20
13.1494
  0
VERTEX
  8
LAYER1
 62
     7
  6
CONTINUOUS
 10
14.3340
 20
13.0962
  0
VERTEX
  8
LAYER1
 62
     7
  6
CONTINUOUS
 10
14.3694
 20
13.0430
  0
VERTEX
  8
LAYER1
 62
     7
  6
CONTINUOUS
 10
14.4094
 20
12.9764
  0
VERTEX
  8
LAYER1
 62
     7
  6
CONTINUOUS
 10
14.4271
 20
12.9276
  0
VERTEX
  8
LAYER1
 62
     7
  6
CONTINUOUS
 10
14.4449
 20
12.8744
  0
VERTEX
  8
LAYER1
 62
     7
  6
CONTINUOUS
 10
14.4670
 20
12.8256
  0
VERTEX
  8
LAYER1
 62
     7
  6
CONTINUOUS
 10
14.4848
 20
12.7812
  0
VERTEX
  8
LAYER1
 62
     7
  6
CONTINUOUS
 10
14.4981
 20
12.7457
  0
VERTEX
  8
LAYER1
 62
     7
  6
CONTINUOUS
 10
14.5158
 20
12.7280
  0
VERTEX
  8
LAYER1
 62
     7
  6
CONTINUOUS
 10
14.5425
 20
12.7280
  0
VERTEX
  8
LAYER1
 62
     7
  6
CONTINUOUS
 10
14.6001
 20
12.7280
  0
VERTEX
  8
LAYER1
 62
     7
  6
CONTINUOUS
 10
14.6622
 20
12.7235
  0
VERTEX
  8
LAYER1
 62
     7
  6
CONTINUOUS
 10
14.7510
 20
12.6969
  0
VERTEX
  8
LAYER1
 62
     7
  6
CONTINUOUS
 10
14.7998
 20
12.6836
  0
VERTEX
  8
LAYER1
 62
     7
  6
CONTINUOUS
 10
14.8353
 20
12.6614
  0
VERTEX
  8
LAYER1
 62
     7
  6
CONTINUOUS
 10
14.8796
 20
12.6171
  0
VERTEX
  8
LAYER1
 62
     7
  6
CONTINUOUS
 10
14.9550
 20
12.5195
  0
VERTEX
  8
LAYER1
 62
     7
  6
CONTINUOUS
 10
14.9817
 20
12.4884
  0
VERTEX
  8
LAYER1
 62
     7
  6
CONTINUOUS
 10
14.9994
 20
12.4130
  0
VERTEX
  8
LAYER1
 62
     7
  6
CONTINUOUS
 10
15.0039
 20
12.3598
  0
VERTEX
  8
LAYER1
 62
     7
  6
CONTINUOUS
 10
15.0127
 20
12.3065
  0
VERTEX
  8
LAYER1
 62
     7
  6
CONTINUOUS
 10
15.0127
 20
12.2444
  0
VERTEX
  8
LAYER1
 62
     7
  6
CONTINUOUS
 10
15.0127
 20
12.1912
  0
VERTEX
  8
LAYER1
 62
     7
  6
CONTINUOUS
 10
14.9905
 20
12.1468
  0
VERTEX
  8
LAYER1
 62
     7
  6
CONTINUOUS
 10
14.9550
 20
12.0980
  0
VERTEX
  8
LAYER1
 62
     7
  6
CONTINUOUS
 10
14.9107
 20
12.0492
  0
VERTEX
  8
LAYER1
 62
     7
  6
CONTINUOUS
 10
14.8619
 20
12.0093
  0
VERTEX
  8
LAYER1
 62
     7
  6
CONTINUOUS
 10
14.8175
 20
11.9605
  0
VERTEX
  8
LAYER1
 62
     7
  6
CONTINUOUS
 10
14.8042
 20
11.8984
  0
VERTEX
  8
LAYER1
 62
     7
  6
CONTINUOUS
 10
14.8042
 20
11.8629
  0
VERTEX
  8
LAYER1
 62
     7
  6
CONTINUOUS
 10
14.8220
 20
11.7919
  0
VERTEX
  8
LAYER1
 62
     7
  6
CONTINUOUS
 10
14.8264
 20
11.7209
  0
VERTEX
  8
LAYER1
 62
     7
  6
CONTINUOUS
 10
14.8220
 20
11.6544
  0
VERTEX
  8
LAYER1
 62
     7
  6
CONTINUOUS
 10
14.8131
 20
11.5834
  0
VERTEX
  8
LAYER1
 62
     7
  6
CONTINUOUS
 10
14.7998
 20
11.5257
  0
VERTEX
  8
LAYER1
 62
     7
  6
CONTINUOUS
 10
14.7776
 20
11.4547
  0
VERTEX
  8
LAYER1
 62
     7
  6
CONTINUOUS
 10
14.7643
 20
11.4015
  0
VERTEX
  8
LAYER1
 62
     7
  6
CONTINUOUS
 10
14.7599
 20
11.3350
  0
VERTEX
  8
LAYER1
 62
     7
  6
CONTINUOUS
 10
14.7155
 20
11.1974
  0
VERTEX
  8
LAYER1
 62
     7
  6
CONTINUOUS
 10
14.7066
 20
11.1265
  0
VERTEX
  8
LAYER1
 62
     7
  6
CONTINUOUS
 10
14.7111
 20
11.0688
  0
VERTEX
  8
LAYER1
 62
     7
  6
CONTINUOUS
 10
14.7332
 20
10.9889
  0
VERTEX
  8
LAYER1
 62
     7
  6
CONTINUOUS
 10
14.7510
 20
10.9179
  0
VERTEX
  8
LAYER1
 62
     7
  6
CONTINUOUS
 10
14.7554
 20
10.8292
  0
VERTEX
  8
LAYER1
 62
     7
  6
CONTINUOUS
 10
14.7465
 20
10.6784
  0
VERTEX
  8
LAYER1
 62
     7
  6
CONTINUOUS
 10
14.7288
 20
10.6030
  0
VERTEX
  8
LAYER1
 62
     7
  6
CONTINUOUS
 10
14.7022
 20
10.5231
  0
VERTEX
  8
LAYER1
 62
     7
  6
CONTINUOUS
 10
14.6667
 20
10.4211
  0
VERTEX
  8
LAYER1
 62
     7
  6
CONTINUOUS
 10
14.6223
 20
10.3368
  0
VERTEX
  8
LAYER1
 62
     7
  6
CONTINUOUS
 10
14.5780
 20
10.2569
  0
VERTEX
  8
LAYER1
 62
     7
  6
CONTINUOUS
 10
14.5292
 20
10.1815
  0
VERTEX
  8
LAYER1
 62
     7
  6
CONTINUOUS
 10
14.4981
 20
10.1327
  0
VERTEX
  8
LAYER1
 62
     7
  6
CONTINUOUS
 10
14.4271
 20
10.0883
  0
VERTEX
  8
LAYER1
 62
     7
  6
CONTINUOUS
 10
14.3650
 20
10.0528
  0
VERTEX
  8
LAYER1
 62
     7
  6
CONTINUOUS
 10
14.3029
 20
10.0129
  0
VERTEX
  8
LAYER1
 62
     7
  6
CONTINUOUS
 10
14.2319
 20
9.9774
  0
VERTEX
  8
LAYER1
 62
     7
  6
CONTINUOUS
 10
14.1698
 20
9.9331
  0
VERTEX
  8
LAYER1
 62
     7
  6
CONTINUOUS
 10
14.1210
 20
9.8710
  0
VERTEX
  8
LAYER1
 62
     7
  6
CONTINUOUS
 10
14.0900
 20
9.8266
  0
VERTEX
  8
LAYER1
 62
     7
  6
CONTINUOUS
 10
14.0278
 20
9.7734
  0
VERTEX
  8
LAYER1
 62
     7
  6
CONTINUOUS
 10
13.9746
 20
9.7334
  0
VERTEX
  8
LAYER1
 62
     7
  6
CONTINUOUS
 10
13.9036
 20
9.6802
  0
VERTEX
  8
LAYER1
 62
     7
  6
CONTINUOUS
 10
13.8326
 20
9.6358
  0
VERTEX
  8
LAYER1
 62
     7
  6
CONTINUOUS
 10
13.7572
 20
9.5870
  0
VERTEX
  8
LAYER1
 62
     7
  6
CONTINUOUS
 10
13.7084
 20
9.5560
  0
VERTEX
  8
LAYER1
 62
     7
  6
CONTINUOUS
 10
13.6508
 20
9.5116
  0
VERTEX
  8
LAYER1
 62
     7
  6
CONTINUOUS
 10
13.5753
 20
9.4672
  0
VERTEX
  8
LAYER1
 62
     7
  6
CONTINUOUS
 10
13.4999
 20
9.4451
  0
VERTEX
  8
LAYER1
 62
     7
  6
CONTINUOUS
 10
13.4289
 20
9.4096
  0
VERTEX
  8
LAYER1
 62
     7
  6
CONTINUOUS
 10
13.3402
 20
9.3785
  0
VERTEX
  8
LAYER1
 62
     7
  6
CONTINUOUS
 10
13.2515
 20
9.3785
  0
VERTEX
  8
LAYER1
 62
     7
  6
CONTINUOUS
 10
13.1716
 20
9.3785
  0
VERTEX
  8
LAYER1
 62
     7
  6
CONTINUOUS
 10
13.1095
 20
9.3785
  0
VERTEX
  8
LAYER1
 62
     7
  6
CONTINUOUS
 10
13.0341
 20
9.3741
  0
VERTEX
  8
LAYER1
 62
     7
  6
CONTINUOUS
 10
12.9587
 20
9.3475
  0
VERTEX
  8
LAYER1
 62
     7
  6
CONTINUOUS
 10
12.8788
 20
9.3075
  0
VERTEX
  8
LAYER1
 62
     7
  6
CONTINUOUS
 10
12.8345
 20
9.2942
  0
VERTEX
  8
LAYER1
 62
     7
  6
CONTINUOUS
 10
12.7812
 20
9.2765
  0
VERTEX
  8
LAYER1
 62
     7
  6
CONTINUOUS
 10
12.7457
 20
9.2410
  0
VERTEX
  8
LAYER1
 62
     7
  6
CONTINUOUS
 10
12.7014
 20
9.2055
  0
VERTEX
  8
LAYER1
 62
     7
  6
CONTINUOUS
 10
12.6481
 20
9.1656
  0
VERTEX
  8
LAYER1
 62
     7
  6
CONTINUOUS
 10
12.5905
 20
9.1301
  0
VERTEX
  8
LAYER1
 62
     7
  6
CONTINUOUS
 10
12.5417
 20
9.1212
  0
VERTEX
  8
LAYER1
 62
     7
  6
CONTINUOUS
 10
12.4840
 20
9.1168
  0
VERTEX
  8
LAYER1
 62
     7
  6
CONTINUOUS
 10
12.4086
 20
9.1168
  0
VERTEX
  8
LAYER1
 62
     7
  6
CONTINUOUS
 10
12.3287
 20
9.1212
  0
VERTEX
  8
LAYER1
 62
     7
  6
CONTINUOUS
 10
12.2355
 20
9.1212
  0
VERTEX
  8
LAYER1
 62
     7
  6
CONTINUOUS
 10
12.1601
 20
9.1035
  0
VERTEX
  8
LAYER1
 62
     7
  6
CONTINUOUS
 10
12.0625
 20
9.0902
  0
VERTEX
  8
LAYER1
 62
     7
  6
CONTINUOUS
 10
12.0226
 20
9.0813
  0
VERTEX
  8
LAYER1
 62
     7
  6
CONTINUOUS
 10
11.9472
 20
9.0768
  0
VERTEX
  8
LAYER1
 62
     7
  6
CONTINUOUS
 10
11.8496
 20
9.0768
  0
VERTEX
  8
LAYER1
 62
     7
  6
CONTINUOUS
 10
11.7475
 20
9.0813
  0
VERTEX
  8
LAYER1
 62
     7
  6
CONTINUOUS
 10
11.6721
 20
9.0857
  0
SEQEND
  8
LAYER1
  0
POLYLINE
  8
LAYER1
 62
     7
 66
     1
  6
CONTINUOUS
  0
VERTEX
  8
LAYER1
 62
     7
  6
CONTINUOUS
 10
11.6721
 20
9.0857
  0
VERTEX
  8
LAYER1
 62
     7
  6
CONTINUOUS
 10
11.5701
 20
9.0724
  0
VERTEX
  8
LAYER1
 62
     7
  6
CONTINUOUS
 10
11.5479
 20
9.0502
  0
VERTEX
  8
LAYER1
 62
     7
  6
CONTINUOUS
 10
11.5080
 20
9.0236
  0
VERTEX
  8
LAYER1
 62
     7
  6
CONTINUOUS
 10
11.4547
 20
9.0147
  0
VERTEX
  8
LAYER1
 62
     7
  6
CONTINUOUS
 10
11.4148
 20
9.0103
  0
VERTEX
  8
LAYER1
 62
     7
  6
CONTINUOUS
 10
11.3394
 20
9.0059
  0
VERTEX
  8
LAYER1
 62
     7
  6
CONTINUOUS
 10
11.2418
 20
8.9925
  0
VERTEX
  8
LAYER1
 62
     7
  6
CONTINUOUS
 10
11.1752
 20
8.9837
  0
VERTEX
  8
LAYER1
 62
     7
  6
CONTINUOUS
 10
11.0865
 20
8.9704
  0
VERTEX
  8
LAYER1
 62
     7
  6
CONTINUOUS
 10
11.0067
 20
8.9704
  0
VERTEX
  8
LAYER1
 62
     7
  6
CONTINUOUS
 10
10.9401
 20
8.9704
  0
VERTEX
  8
LAYER1
 62
     7
  6
CONTINUOUS
 10
10.8603
 20
8.9881
  0
VERTEX
  8
LAYER1
 62
     7
  6
CONTINUOUS
 10
10.8026
 20
8.9925
  0
VERTEX
  8
LAYER1
 62
     7
  6
CONTINUOUS
 10
10.7582
 20
8.9881
  0
VERTEX
  8
LAYER1
 62
     7
  6
CONTINUOUS
 10
10.7050
 20
8.9792
  0
VERTEX
  8
LAYER1
 62
     7
  6
CONTINUOUS
 10
10.6340
 20
8.9748
  0
VERTEX
  8
LAYER1
 62
     7
  6
CONTINUOUS
 10
10.5763
 20
8.9792
  0
VERTEX
  8
LAYER1
 62
     7
  6
CONTINUOUS
 10
10.5098
 20
9.0103
  0
VERTEX
  8
LAYER1
 62
     7
  6
CONTINUOUS
 10
10.4477
 20
9.0369
  0
VERTEX
  8
LAYER1
 62
     7
  6
CONTINUOUS
 10
10.3590
 20
9.0103
  0
VERTEX
  8
LAYER1
 62
     7
  6
CONTINUOUS
 10
10.3456
 20
9.0103
  0
VERTEX
  8
LAYER1
 62
     7
  6
CONTINUOUS
 10
10.3190
 20
9.0147
  0
VERTEX
  8
LAYER1
 62
     7
  6
CONTINUOUS
 10
10.2747
 20
9.0280
  0
VERTEX
  8
LAYER1
 62
     7
  6
CONTINUOUS
 10
10.2214
 20
9.0502
  0
VERTEX
  8
LAYER1
 62
     7
  6
CONTINUOUS
 10
10.1593
 20
9.0813
  0
VERTEX
  8
LAYER1
 62
     7
  6
CONTINUOUS
 10
10.1238
 20
9.0990
  0
VERTEX
  8
LAYER1
 62
     7
  6
CONTINUOUS
 10
10.0617
 20
9.1301
  0
VERTEX
  8
LAYER1
 62
     7
  6
CONTINUOUS
 10
9.9730
 20
9.1567
  0
VERTEX
  8
LAYER1
 62
     7
  6
CONTINUOUS
 10
9.8976
 20
9.1700
  0
VERTEX
  8
LAYER1
 62
     7
  6
CONTINUOUS
 10
9.8310
 20
9.1878
  0
VERTEX
  8
LAYER1
 62
     7
  6
CONTINUOUS
 10
9.7645
 20
9.2055
  0
VERTEX
  8
LAYER1
 62
     7
  6
CONTINUOUS
 10
9.7068
 20
9.2277
  0
VERTEX
  8
LAYER1
 62
     7
  6
CONTINUOUS
 10
9.6358
 20
9.2543
  0
VERTEX
  8
LAYER1
 62
     7
  6
CONTINUOUS
 10
9.5382
 20
9.3120
  0
VERTEX
  8
LAYER1
 62
     7
  6
CONTINUOUS
 10
9.4850
 20
9.3563
  0
VERTEX
  8
LAYER1
 62
     7
  6
CONTINUOUS
 10
9.4007
 20
9.4184
  0
VERTEX
  8
LAYER1
 62
     7
  6
CONTINUOUS
 10
9.3075
 20
9.4539
  0
VERTEX
  8
LAYER1
 62
     7
  6
CONTINUOUS
 10
9.2543
 20
9.4717
  0
VERTEX
  8
LAYER1
 62
     7
  6
CONTINUOUS
 10
9.1700
 20
9.4939
  0
VERTEX
  8
LAYER1
 62
     7
  6
CONTINUOUS
 10
9.1079
 20
9.5072
  0
VERTEX
  8
LAYER1
 62
     7
  6
CONTINUOUS
 10
9.0147
 20
9.5294
  0
VERTEX
  8
LAYER1
 62
     7
  6
CONTINUOUS
 10
8.9482
 20
9.5471
  0
VERTEX
  8
LAYER1
 62
     7
  6
CONTINUOUS
 10
8.8861
 20
9.5604
  0
VERTEX
  8
LAYER1
 62
     7
  6
CONTINUOUS
 10
8.8328
 20
9.5737
  0
VERTEX
  8
LAYER1
 62
     7
  6
CONTINUOUS
 10
8.7973
 20
9.5782
  0
VERTEX
  8
LAYER1
 62
     7
  6
CONTINUOUS
 10
8.7663
 20
9.6048
  0
VERTEX
  8
LAYER1
 62
     7
  6
CONTINUOUS
 10
8.7397
 20
9.6580
  0
VERTEX
  8
LAYER1
 62
     7
  6
CONTINUOUS
 10
8.7308
 20
9.7024
  0
VERTEX
  8
LAYER1
 62
     7
  6
CONTINUOUS
 10
8.7131
 20
9.7556
  0
VERTEX
  8
LAYER1
 62
     7
  6
CONTINUOUS
 10
8.6820
 20
9.8222
  0
VERTEX
  8
LAYER1
 62
     7
  6
CONTINUOUS
 10
8.6509
 20
9.8754
  0
VERTEX
  8
LAYER1
 62
     7
  6
CONTINUOUS
 10
8.6110
 20
9.9286
  0
VERTEX
  8
LAYER1
 62
     7
  6
CONTINUOUS
 10
8.5578
 20
9.9774
  0
VERTEX
  8
LAYER1
 62
     7
  6
CONTINUOUS
 10
8.5179
 20
10.0040
  0
VERTEX
  8
LAYER1
 62
     7
  6
CONTINUOUS
 10
8.4735
 20
10.0262
  0
VERTEX
  8
LAYER1
 62
     7
  6
CONTINUOUS
 10
8.4203
 20
10.0528
  0
VERTEX
  8
LAYER1
 62
     7
  6
CONTINUOUS
 10
8.3715
 20
10.0795
  0
VERTEX
  8
LAYER1
 62
     7
  6
CONTINUOUS
 10
8.3093
 20
10.1238
  0
VERTEX
  8
LAYER1
 62
     7
  6
CONTINUOUS
 10
8.2739
 20
10.1638
  0
VERTEX
  8
LAYER1
 62
     7
  6
CONTINUOUS
 10
8.2384
 20
10.2037
  0
VERTEX
  8
LAYER1
 62
     7
  6
CONTINUOUS
 10
8.1763
 20
10.2569
  0
VERTEX
  8
LAYER1
 62
     7
  6
CONTINUOUS
 10
8.1230
 20
10.3235
  0
VERTEX
  8
LAYER1
 62
     7
  6
CONTINUOUS
 10
8.0920
 20
10.3723
  0
VERTEX
  8
LAYER1
 62
     7
  6
CONTINUOUS
 10
8.0565
 20
10.4344
  0
VERTEX
  8
LAYER1
 62
     7
  6
CONTINUOUS
 10
8.0299
 20
10.4654
  0
VERTEX
  8
LAYER1
 62
     7
  6
CONTINUOUS
 10
7.9944
 20
10.5054
  0
VERTEX
  8
LAYER1
 62
     7
  6
CONTINUOUS
 10
7.9589
 20
10.5408
  0
VERTEX
  8
LAYER1
 62
     7
  6
CONTINUOUS
 10
7.9367
 20
10.5852
  0
VERTEX
  8
LAYER1
 62
     7
  6
CONTINUOUS
 10
7.9101
 20
10.6385
  0
VERTEX
  8
LAYER1
 62
     7
  6
CONTINUOUS
 10
7.9101
 20
10.7272
  0
VERTEX
  8
LAYER1
 62
     7
  6
CONTINUOUS
 10
7.9101
 20
10.7849
  0
VERTEX
  8
LAYER1
 62
     7
  6
CONTINUOUS
 10
7.9101
 20
10.8558
  0
VERTEX
  8
LAYER1
 62
     7
  6
CONTINUOUS
 10
7.9101
 20
10.9046
  0
VERTEX
  8
LAYER1
 62
     7
  6
CONTINUOUS
 10
7.9101
 20
10.9845
  0
VERTEX
  8
LAYER1
 62
     7
  6
CONTINUOUS
 10
7.9056
 20
11.0377
  0
VERTEX
  8
LAYER1
 62
     7
  6
CONTINUOUS
 10
7.9056
 20
11.0998
  0
VERTEX
  8
LAYER1
 62
     7
  6
CONTINUOUS
 10
7.9056
 20
11.1664
  0
VERTEX
  8
LAYER1
 62
     7
  6
CONTINUOUS
 10
7.9145
 20
11.2241
  0
VERTEX
  8
LAYER1
 62
     7
  6
CONTINUOUS
 10
7.9367
 20
11.2995
  0
VERTEX
  8
LAYER1
 62
     7
  6
CONTINUOUS
 10
7.9544
 20
11.3571
  0
VERTEX
  8
LAYER1
 62
     7
  6
CONTINUOUS
 10
7.9589
 20
11.4104
  0
VERTEX
  8
LAYER1
 62
     7
  6
CONTINUOUS
 10
7.9677
 20
11.4769
  0
VERTEX
  8
LAYER1
 62
     7
  6
CONTINUOUS
 10
7.9811
 20
11.5523
  0
VERTEX
  8
LAYER1
 62
     7
  6
CONTINUOUS
 10
8.0077
 20
11.6145
  0
VERTEX
  8
LAYER1
 62
     7
  6
CONTINUOUS
 10
8.0432
 20
11.6677
  0
VERTEX
  8
LAYER1
 62
     7
  6
CONTINUOUS
 10
8.0565
 20
11.7121
  0
VERTEX
  8
LAYER1
 62
     7
  6
CONTINUOUS
 10
8.0875
 20
11.7875
  0
VERTEX
  8
LAYER1
 62
     7
  6
CONTINUOUS
 10
8.1186
 20
11.8629
  0
VERTEX
  8
LAYER1
 62
     7
  6
CONTINUOUS
 10
8.1408
 20
11.9206
  0
VERTEX
  8
LAYER1
 62
     7
  6
CONTINUOUS
 10
8.1541
 20
11.9694
  0
VERTEX
  8
LAYER1
 62
     7
  6
CONTINUOUS
 10
8.1807
 20
12.0403
  0
VERTEX
  8
LAYER1
 62
     7
  6
CONTINUOUS
 10
8.2073
 20
12.0891
  0
VERTEX
  8
LAYER1
 62
     7
  6
CONTINUOUS
 10
8.2517
 20
12.1335
  0
VERTEX
  8
LAYER1
 62
     7
  6
CONTINUOUS
 10
8.3227
 20
12.1779
  0
VERTEX
  8
LAYER1
 62
     7
  6
CONTINUOUS
 10
8.3759
 20
12.2089
  0
VERTEX
  8
LAYER1
 62
     7
  6
CONTINUOUS
 10
8.4380
 20
12.2489
  0
VERTEX
  8
LAYER1
 62
     7
  6
CONTINUOUS
 10
8.4824
 20
12.2843
  0
VERTEX
  8
LAYER1
 62
     7
  6
CONTINUOUS
 10
8.5179
 20
12.3331
  0
VERTEX
  8
LAYER1
 62
     7
  6
CONTINUOUS
 10
8.5489
 20
12.3819
  0
VERTEX
  8
LAYER1
 62
     7
  6
CONTINUOUS
 10
8.5844
 20
12.4219
  0
VERTEX
  8
LAYER1
 62
     7
  6
CONTINUOUS
 10
8.6332
 20
12.4662
  0
VERTEX
  8
LAYER1
 62
     7
  6
CONTINUOUS
 10
8.6731
 20
12.5239
  0
VERTEX
  8
LAYER1
 62
     7
  6
CONTINUOUS
 10
8.6997
 20
12.5727
  0
VERTEX
  8
LAYER1
 62
     7
  6
CONTINUOUS
 10
8.7397
 20
12.6259
  0
VERTEX
  8
LAYER1
 62
     7
  6
CONTINUOUS
 10
8.7885
 20
12.6748
  0
VERTEX
  8
LAYER1
 62
     7
  6
CONTINUOUS
 10
8.8728
 20
12.7502
  0
VERTEX
  8
LAYER1
 62
     7
  6
CONTINUOUS
 10
8.9304
 20
12.8167
  0
VERTEX
  8
LAYER1
 62
     7
  6
CONTINUOUS
 10
8.9704
 20
12.8699
  0
VERTEX
  8
LAYER1
 62
     7
  6
CONTINUOUS
 10
9.0280
 20
12.9676
  0
VERTEX
  8
LAYER1
 62
     7
  6
CONTINUOUS
 10
9.0547
 20
13.0297
  0
VERTEX
  8
LAYER1
 62
     7
  6
CONTINUOUS
 10
9.0902
 20
13.0962
  0
VERTEX
  8
LAYER1
 62
     7
  6
CONTINUOUS
 10
9.1168
 20
13.1361
  0
VERTEX
  8
LAYER1
 62
     7
  6
CONTINUOUS
 10
9.1434
 20
13.1894
  0
VERTEX
  8
LAYER1
 62
     7
  6
CONTINUOUS
 10
9.1656
 20
13.2470
  0
VERTEX
  8
LAYER1
 62
     7
  6
CONTINUOUS
 10
9.1833
 20
13.2870
  0
VERTEX
  8
LAYER1
 62
     7
  6
CONTINUOUS
 10
9.2099
 20
13.3713
  0
VERTEX
  8
LAYER1
 62
     7
  6
CONTINUOUS
 10
9.2277
 20
13.4023
  0
SEQEND
  8
LAYER1
  0
POLYLINE
  8
LAYER1
 62
     7
 66
     1
  6
CONTINUOUS
  0
VERTEX
  8
LAYER1
 62
     7
  6
CONTINUOUS
 10
9.2277
 20
13.4023
  0
VERTEX
  8
LAYER1
 62
     7
  6
CONTINUOUS
 10
9.2454
 20
13.4023
  0
VERTEX
  8
LAYER1
 62
     7
  6
CONTINUOUS
 10
9.2765
 20
13.3934
  0
VERTEX
  8
LAYER1
 62
     7
  6
CONTINUOUS
 10
9.3120
 20
13.3801
  0
VERTEX
  8
LAYER1
 62
     7
  6
CONTINUOUS
 10
9.3475
 20
13.3668
  0
VERTEX
  8
LAYER1
 62
     7
  6
CONTINUOUS
 10
9.4051
 20
13.3446
  0
VERTEX
  8
LAYER1
 62
     7
  6
CONTINUOUS
 10
9.4584
 20
13.3313
  0
VERTEX
  8
LAYER1
 62
     7
  6
CONTINUOUS
 10
9.5205
 20
13.3092
  0
VERTEX
  8
LAYER1
 62
     7
  6
CONTINUOUS
 10
9.5870
 20
13.2825
  0
VERTEX
  8
LAYER1
 62
     7
  6
CONTINUOUS
 10
9.6447
 20
13.2604
  0
VERTEX
  8
LAYER1
 62
     7
  6
CONTINUOUS
 10
9.7112
 20
13.2337
  0
VERTEX
  8
LAYER1
 62
     7
  6
CONTINUOUS
 10
9.7512
 20
13.2115
  0
VERTEX
  8
LAYER1
 62
     7
  6
CONTINUOUS
 10
9.7911
 20
13.1716
  0
VERTEX
  8
LAYER1
 62
     7
  6
CONTINUOUS
 10
9.8266
 20
13.1184
  0
VERTEX
  8
LAYER1
 62
     7
  6
CONTINUOUS
 10
9.8532
 20
13.0474
  0
VERTEX
  8
LAYER1
 62
     7
  6
CONTINUOUS
 10
9.8621
 20
12.9853
  0
VERTEX
  8
LAYER1
 62
     7
  6
CONTINUOUS
 10
9.8621
 20
12.9276
  0
VERTEX
  8
LAYER1
 62
     7
  6
CONTINUOUS
 10
9.8621
 20
12.8655
  0
VERTEX
  8
LAYER1
 62
     7
  6
CONTINUOUS
 10
9.8532
 20
12.8212
  0
VERTEX
  8
LAYER1
 62
     7
  6
CONTINUOUS
 10
9.8576
 20
12.7945
  0
VERTEX
  8
LAYER1
 62
     7
  6
CONTINUOUS
 10
9.8754
 20
12.7635
  0
VERTEX
  8
LAYER1
 62
     7
  6
CONTINUOUS
 10
9.8754
 20
12.7324
  0
VERTEX
  8
LAYER1
 62
     7
  6
CONTINUOUS
 10
9.8754
 20
12.6748
  0
VERTEX
  8
LAYER1
 62
     7
  6
CONTINUOUS
 10
9.8754
 20
12.6171
  0
VERTEX
  8
LAYER1
 62
     7
  6
CONTINUOUS
 10
9.8754
 20
12.5550
  0
VERTEX
  8
LAYER1
 62
     7
  6
CONTINUOUS
 10
9.8798
 20
12.4929
  0
VERTEX
  8
LAYER1
 62
     7
  6
CONTINUOUS
 10
9.8887
 20
12.4307
  0
VERTEX
  8
LAYER1
 62
     7
  6
CONTINUOUS
 10
9.8887
 20
12.3686
  0
VERTEX
  8
LAYER1
 62
     7
  6
CONTINUOUS
 10
9.8976
 20
12.3110
  0
VERTEX
  8
LAYER1
 62
     7
  6
CONTINUOUS
 10
9.9064
 20
12.2666
  0
VERTEX
  8
LAYER1
 62
     7
  6
CONTINUOUS
 10
9.9109
 20
12.1956
  0
VERTEX
  8
LAYER1
 62
     7
  6
CONTINUOUS
 10
9.9153
 20
12.1424
  0
VERTEX
  8
LAYER1
 62
     7
  6
CONTINUOUS
 10
9.9331
 20
12.0670
  0
VERTEX
  8
LAYER1
 62
     7
  6
CONTINUOUS
 10
9.9331
 20
11.9827
  0
VERTEX
  8
LAYER1
 62
     7
  6
CONTINUOUS
 10
9.9641
 20
11.8629
  0
VERTEX
  8
LAYER1
 62
     7
  6
CONTINUOUS
 10
9.9774
 20
11.7963
  0
VERTEX
  8
LAYER1
 62
     7
  6
CONTINUOUS
 10
9.9952
 20
11.7209
  0
VERTEX
  8
LAYER1
 62
     7
  6
CONTINUOUS
 10
10.0085
 20
11.6810
  0
VERTEX
  8
LAYER1
 62
     7
  6
CONTINUOUS
 10
10.0484
 20
11.6189
  0
VERTEX
  8
LAYER1
 62
     7
  6
CONTINUOUS
 10
10.0839
 20
11.5302
  0
VERTEX
  8
LAYER1
 62
     7
  6
CONTINUOUS
 10
10.1150
 20
11.4592
  0
VERTEX
  8
LAYER1
 62
     7
  6
CONTINUOUS
 10
10.1016
 20
11.3793
  0
VERTEX
  8
LAYER1
 62
     7
  6
CONTINUOUS
 10
10.0795
 20
11.3083
  0
VERTEX
  8
LAYER1
 62
     7
  6
CONTINUOUS
 10
10.0440
 20
11.2329
  0
VERTEX
  8
LAYER1
 62
     7
  6
CONTINUOUS
 10
10.0085
 20
11.1841
  0
VERTEX
  8
LAYER1
 62
     7
  6
CONTINUOUS
 10
9.9730
 20
11.1309
  0
VERTEX
  8
LAYER1
 62
     7
  6
CONTINUOUS
 10
9.9331
 20
11.0688
  0
VERTEX
  8
LAYER1
 62
     7
  6
CONTINUOUS
 10
9.8887
 20
11.0244
  0
VERTEX
  8
LAYER1
 62
     7
  6
CONTINUOUS
 10
9.8310
 20
10.9889
  0
VERTEX
  8
LAYER1
 62
     7
  6
CONTINUOUS
 10
9.7778
 20
10.9446
  0
VERTEX
  8
LAYER1
 62
     7
  6
CONTINUOUS
 10
9.7201
 20
10.9002
  0
VERTEX
  8
LAYER1
 62
     7
  6
CONTINUOUS
 10
9.6669
 20
10.8470
  0
VERTEX
  8
LAYER1
 62
     7
  6
CONTINUOUS
 10
9.6225
 20
10.7982
  0
VERTEX
  8
LAYER1
 62
     7
  6
CONTINUOUS
 10
9.5737
 20
10.7449
  0
VERTEX
  8
LAYER1
 62
     7
  6
CONTINUOUS
 10
9.5382
 20
10.7006
  0
VERTEX
  8
LAYER1
 62
     7
  6
CONTINUOUS
 10
9.4939
 20
10.6562
  0
VERTEX
  8
LAYER1
 62
     7
  6
CONTINUOUS
 10
9.4539
 20
10.6207
  0
VERTEX
  8
LAYER1
 62
     7
  6
CONTINUOUS
 10
9.4051
 20
10.5630
  0
VERTEX
  8
LAYER1
 62
     7
  6
CONTINUOUS
 10
9.3696
 20
10.5320
  0
VERTEX
  8
LAYER1
 62
     7
  6
CONTINUOUS
 10
9.3031
 20
10.5142
  0
VERTEX
  8
LAYER1
 62
     7
  6
CONTINUOUS
 10
9.2499
 20
10.5187
  0
VERTEX
  8
LAYER1
 62
     7
  6
CONTINUOUS
 10
9.2055
 20
10.5231
  0
VERTEX
  8
LAYER1
 62
     7
  6
CONTINUOUS
 10
9.1611
 20
10.5364
  0
VERTEX
  8
LAYER1
 62
     7
  6
CONTINUOUS
 10
9.0946
 20
10.5542
  0
VERTEX
  8
LAYER1
 62
     7
  6
CONTINUOUS
 10
9.0236
 20
10.5630
  0
VERTEX
  8
LAYER1
 62
     7
  6
CONTINUOUS
 10
8.9526
 20
10.5630
  0
VERTEX
  8
LAYER1
 62
     7
  6
CONTINUOUS
 10
8.8816
 20
10.5763
  0
VERTEX
  8
LAYER1
 62
     7
  6
CONTINUOUS
 10
8.8062
 20
10.5896
  0
VERTEX
  8
LAYER1
 62
     7
  6
CONTINUOUS
 10
8.7352
 20
10.6118
  0
VERTEX
  8
LAYER1
 62
     7
  6
CONTINUOUS
 10
8.6554
 20
10.6385
  0
VERTEX
  8
LAYER1
 62
     7
  6
CONTINUOUS
 10
8.5578
 20
10.6651
  0
VERTEX
  8
LAYER1
 62
     7
  6
CONTINUOUS
 10
8.4735
 20
10.6917
  0
VERTEX
  8
LAYER1
 62
     7
  6
CONTINUOUS
 10
8.4158
 20
10.7094
  0
VERTEX
  8
LAYER1
 62
     7
  6
CONTINUOUS
 10
8.3537
 20
10.7360
  0
VERTEX
  8
LAYER1
 62
     7
  6
CONTINUOUS
 10
8.2960
 20
10.7538
  0
VERTEX
  8
LAYER1
 62
     7
  6
CONTINUOUS
 10
8.2428
 20
10.7804
  0
VERTEX
  8
LAYER1
 62
     7
  6
CONTINUOUS
 10
8.1763
 20
10.7937
  0
VERTEX
  8
LAYER1
 62
     7
  6
CONTINUOUS
 10
8.1141
 20
10.8026
  0
VERTEX
  8
LAYER1
 62
     7
  6
CONTINUOUS
 10
8.0565
 20
10.8159
  0
VERTEX
  8
LAYER1
 62
     7
  6
CONTINUOUS
 10
7.9899
 20
10.8159
  0
VERTEX
  8
LAYER1
 62
     7
  6
CONTINUOUS
 10
7.9101
 20
10.7849
  0
SEQEND
  8
LAYER1
  0
POLYLINE
  8
LAYER1
 62
     7
 66
     1
  6
CONTINUOUS
  0
VERTEX
  8
LAYER1
 62
     7
  6
CONTINUOUS
 10
9.5870
 20
13.2825
  0
VERTEX
  8
LAYER1
 62
     7
  6
CONTINUOUS
 10
9.6092
 20
13.3225
  0
VERTEX
  8
LAYER1
 62
     7
  6
CONTINUOUS
 10
9.6403
 20
13.3446
  0
VERTEX
  8
LAYER1
 62
     7
  6
CONTINUOUS
 10
9.6713
 20
13.3624
  0
VERTEX
  8
LAYER1
 62
     7
  6
CONTINUOUS
 10
9.7112
 20
13.3846
  0
VERTEX
  8
LAYER1
 62
     7
  6
CONTINUOUS
 10
9.7556
 20
13.4023
  0
VERTEX
  8
LAYER1
 62
     7
  6
CONTINUOUS
 10
9.8044
 20
13.4245
  0
VERTEX
  8
LAYER1
 62
     7
  6
CONTINUOUS
 10
9.8576
 20
13.4511
  0
VERTEX
  8
LAYER1
 62
     7
  6
CONTINUOUS
 10
9.9198
 20
13.4733
  0
VERTEX
  8
LAYER1
 62
     7
  6
CONTINUOUS
 10
9.9774
 20
13.4955
  0
VERTEX
  8
LAYER1
 62
     7
  6
CONTINUOUS
 10
10.0484
 20
13.5132
  0
VERTEX
  8
LAYER1
 62
     7
  6
CONTINUOUS
 10
10.0883
 20
13.5132
  0
VERTEX
  8
LAYER1
 62
     7
  6
CONTINUOUS
 10
10.1948
 20
13.5177
  0
VERTEX
  8
LAYER1
 62
     7
  6
CONTINUOUS
 10
10.2347
 20
13.5177
  0
VERTEX
  8
LAYER1
 62
     7
  6
CONTINUOUS
 10
10.2747
 20
13.5221
  0
VERTEX
  8
LAYER1
 62
     7
  6
CONTINUOUS
 10
10.3146
 20
13.5354
  0
VERTEX
  8
LAYER1
 62
     7
  6
CONTINUOUS
 10
10.3678
 20
13.5576
  0
VERTEX
  8
LAYER1
 62
     7
  6
CONTINUOUS
 10
10.4255
 20
13.5886
  0
VERTEX
  8
LAYER1
 62
     7
  6
CONTINUOUS
 10
10.4920
 20
13.6153
  0
VERTEX
  8
LAYER1
 62
     7
  6
CONTINUOUS
 10
10.5586
 20
13.6463
  0
VERTEX
  8
LAYER1
 62
     7
  6
CONTINUOUS
 10
10.6296
 20
13.6729
  0
VERTEX
  8
LAYER1
 62
     7
  6
CONTINUOUS
 10
10.7139
 20
13.7040
  0
VERTEX
  8
LAYER1
 62
     7
  6
CONTINUOUS
 10
10.8070
 20
13.7572
  0
VERTEX
  8
LAYER1
 62
     7
  6
CONTINUOUS
 10
10.8603
 20
13.7794
  0
VERTEX
  8
LAYER1
 62
     7
  6
CONTINUOUS
 10
10.9268
 20
13.7927
  0
VERTEX
  8
LAYER1
 62
     7
  6
CONTINUOUS
 10
11.0022
 20
13.7972
  0
VERTEX
  8
LAYER1
 62
     7
  6
CONTINUOUS
 10
11.0910
 20
13.7972
  0
VERTEX
  8
LAYER1
 62
     7
  6
CONTINUOUS
 10
11.1708
 20
13.8016
  0
VERTEX
  8
LAYER1
 62
     7
  6
CONTINUOUS
 10
11.2640
 20
13.8105
  0
VERTEX
  8
LAYER1
 62
     7
  6
CONTINUOUS
 10
11.3926
 20
13.8105
  0
VERTEX
  8
LAYER1
 62
     7
  6
CONTINUOUS
 10
11.4636
 20
13.8060
  0
VERTEX
  8
LAYER1
 62
     7
  6
CONTINUOUS
 10
11.5435
 20
13.8060
  0
VERTEX
  8
LAYER1
 62
     7
  6
CONTINUOUS
 10
11.6411
 20
13.8060
  0
VERTEX
  8
LAYER1
 62
     7
  6
CONTINUOUS
 10
11.7387
 20
13.8060
  0
VERTEX
  8
LAYER1
 62
     7
  6
CONTINUOUS
 10
11.8274
 20
13.8060
  0
VERTEX
  8
LAYER1
 62
     7
  6
CONTINUOUS
 10
11.9073
 20
13.8016
  0
VERTEX
  8
LAYER1
 62
     7
  6
CONTINUOUS
 10
12.0226
 20
13.7927
  0
VERTEX
  8
LAYER1
 62
     7
  6
CONTINUOUS
 10
12.0758
 20
13.8060
  0
VERTEX
  8
LAYER1
 62
     7
  6
CONTINUOUS
 10
12.1335
 20
13.8060
  0
VERTEX
  8
LAYER1
 62
     7
  6
CONTINUOUS
 10
12.2134
 20
13.8016
  0
VERTEX
  8
LAYER1
 62
     7
  6
CONTINUOUS
 10
12.3065
 20
13.7838
  0
VERTEX
  8
LAYER1
 62
     7
  6
CONTINUOUS
 10
12.3864
 20
13.7617
  0
VERTEX
  8
LAYER1
 62
     7
  6
CONTINUOUS
 10
12.4618
 20
13.7439
  0
VERTEX
  8
LAYER1
 62
     7
  6
CONTINUOUS
 10
12.5372
 20
13.7262
  0
VERTEX
  8
LAYER1
 62
     7
  6
CONTINUOUS
 10
12.6082
 20
13.7084
  0
VERTEX
  8
LAYER1
 62
     7
  6
CONTINUOUS
 10
12.6792
 20
13.6907
  0
VERTEX
  8
LAYER1
 62
     7
  6
CONTINUOUS
 10
12.8078
 20
13.6596
  0
VERTEX
  8
LAYER1
 62
     7
  6
CONTINUOUS
 10
12.9010
 20
13.6374
  0
VERTEX
  8
LAYER1
 62
     7
  6
CONTINUOUS
 10
13.0297
 20
13.5931
  0
VERTEX
  8
LAYER1
 62
     7
  6
CONTINUOUS
 10
13.0918
 20
13.5177
  0
VERTEX
  8
LAYER1
 62
     7
  6
CONTINUOUS
 10
13.1628
 20
13.4334
  0
VERTEX
  8
LAYER1
 62
     7
  6
CONTINUOUS
 10
13.2293
 20
13.3801
  0
VERTEX
  8
LAYER1
 62
     7
  6
CONTINUOUS
 10
13.3358
 20
13.3092
  0
VERTEX
  8
LAYER1
 62
     7
  6
CONTINUOUS
 10
13.4289
 20
13.2293
  0
VERTEX
  8
LAYER1
 62
     7
  6
CONTINUOUS
 10
13.5088
 20
13.1406
  0
VERTEX
  8
LAYER1
 62
     7
  6
CONTINUOUS
 10
13.5753
 20
13.0518
  0
VERTEX
  8
LAYER1
 62
     7
  6
CONTINUOUS
 10
13.6241
 20
12.9764
  0
VERTEX
  8
LAYER1
 62
     7
  6
CONTINUOUS
 10
13.6862
 20
12.8966
  0
VERTEX
  8
LAYER1
 62
     7
  6
CONTINUOUS
 10
13.7439
 20
12.8123
  0
VERTEX
  8
LAYER1
 62
     7
  6
CONTINUOUS
 10
13.7883
 20
12.7369
  0
VERTEX
  8
LAYER1
 62
     7
  6
CONTINUOUS
 10
13.8460
 20
12.6393
  0
VERTEX
  8
LAYER1
 62
     7
  6
CONTINUOUS
 10
13.8948
 20
12.5461
  0
VERTEX
  8
LAYER1
 62
     7
  6
CONTINUOUS
 10
13.9613
 20
12.4174
  0
VERTEX
  8
LAYER1
 62
     7
  6
CONTINUOUS
 10
13.9879
 20
12.3331
  0
VERTEX
  8
LAYER1
 62
     7
  6
CONTINUOUS
 10
14.0145
 20
12.2710
  0
VERTEX
  8
LAYER1
 62
     7
  6
CONTINUOUS
 10
14.0412
 20
12.2001
  0
VERTEX
  8
LAYER1
 62
     7
  6
CONTINUOUS
 10
14.0545
 20
12.1335
  0
VERTEX
  8
LAYER1
 62
     7
  6
CONTINUOUS
 10
14.0589
 20
12.0803
  0
VERTEX
  8
LAYER1
 62
     7
  6
CONTINUOUS
 10
14.0855
 20
11.9960
  0
VERTEX
  8
LAYER1
 62
     7
  6
CONTINUOUS
 10
14.1166
 20
11.9339
  0
VERTEX
  8
LAYER1
 62
     7
  6
CONTINUOUS
 10
14.1521
 20
11.8762
  0
VERTEX
  8
LAYER1
 62
     7
  6
CONTINUOUS
 10
14.1831
 20
11.8185
  0
VERTEX
  8
LAYER1
 62
     7
  6
CONTINUOUS
 10
14.2142
 20
11.6810
  0
VERTEX
  8
LAYER1
 62
     7
  6
CONTINUOUS
 10
14.2364
 20
11.6145
  0
VERTEX
  8
LAYER1
 62
     7
  6
CONTINUOUS
 10
14.2452
 20
11.5479
  0
VERTEX
  8
LAYER1
 62
     7
  6
CONTINUOUS
 10
14.2497
 20
11.4547
  0
VERTEX
  8
LAYER1
 62
     7
  6
CONTINUOUS
 10
14.2408
 20
11.3527
  0
VERTEX
  8
LAYER1
 62
     7
  6
CONTINUOUS
 10
14.2186
 20
11.2862
  0
VERTEX
  8
LAYER1
 62
     7
  6
CONTINUOUS
 10
14.2009
 20
11.2107
  0
VERTEX
  8
LAYER1
 62
     7
  6
CONTINUOUS
 10
14.1609
 20
11.1265
  0
VERTEX
  8
LAYER1
 62
     7
  6
CONTINUOUS
 10
14.1254
 20
11.0599
  0
VERTEX
  8
LAYER1
 62
     7
  6
CONTINUOUS
 10
14.0900
 20
10.9623
  0
VERTEX
  8
LAYER1
 62
     7
  6
CONTINUOUS
 10
14.0367
 20
10.8292
  0
VERTEX
  8
LAYER1
 62
     7
  6
CONTINUOUS
 10
13.9968
 20
10.7360
  0
VERTEX
  8
LAYER1
 62
     7
  6
CONTINUOUS
 10
13.9524
 20
10.6385
  0
VERTEX
  8
LAYER1
 62
     7
  6
CONTINUOUS
 10
13.9125
 20
10.5630
  0
VERTEX
  8
LAYER1
 62
     7
  6
CONTINUOUS
 10
13.8770
 20
10.4876
  0
VERTEX
  8
LAYER1
 62
     7
  6
CONTINUOUS
 10
13.8504
 20
10.4078
  0
VERTEX
  8
LAYER1
 62
     7
  6
CONTINUOUS
 10
13.8238
 20
10.3368
  0
VERTEX
  8
LAYER1
 62
     7
  6
CONTINUOUS
 10
13.7794
 20
10.2569
  0
VERTEX
  8
LAYER1
 62
     7
  6
CONTINUOUS
 10
13.7350
 20
10.1771
  0
VERTEX
  8
LAYER1
 62
     7
  6
CONTINUOUS
 10
13.6951
 20
10.1150
  0
VERTEX
  8
LAYER1
 62
     7
  6
CONTINUOUS
 10
13.6463
 20
10.0528
  0
VERTEX
  8
LAYER1
 62
     7
  6
CONTINUOUS
 10
13.5842
 20
9.9952
  0
VERTEX
  8
LAYER1
 62
     7
  6
CONTINUOUS
 10
13.5221
 20
9.9508
  0
VERTEX
  8
LAYER1
 62
     7
  6
CONTINUOUS
 10
13.4334
 20
9.9153
  0
VERTEX
  8
LAYER1
 62
     7
  6
CONTINUOUS
 10
13.3269
 20
9.8665
  0
VERTEX
  8
LAYER1
 62
     7
  6
CONTINUOUS
 10
13.2604
 20
9.8310
  0
VERTEX
  8
LAYER1
 62
     7
  6
CONTINUOUS
 10
13.1938
 20
9.7734
  0
VERTEX
  8
LAYER1
 62
     7
  6
CONTINUOUS
 10
13.1184
 20
9.7068
  0
VERTEX
  8
LAYER1
 62
     7
  6
CONTINUOUS
 10
13.0563
 20
9.6403
  0
VERTEX
  8
LAYER1
 62
     7
  6
CONTINUOUS
 10
12.9853
 20
9.5782
  0
VERTEX
  8
LAYER1
 62
     7
  6
CONTINUOUS
 10
12.8921
 20
9.5205
  0
VERTEX
  8
LAYER1
 62
     7
  6
CONTINUOUS
 10
12.8034
 20
9.4806
  0
VERTEX
  8
LAYER1
 62
     7
  6
CONTINUOUS
 10
12.7102
 20
9.4584
  0
VERTEX
  8
LAYER1
 62
     7
  6
CONTINUOUS
 10
12.6215
 20
9.4318
  0
VERTEX
  8
LAYER1
 62
     7
  6
CONTINUOUS
 10
12.5195
 20
9.4096
  0
VERTEX
  8
LAYER1
 62
     7
  6
CONTINUOUS
 10
12.3908
 20
9.3830
  0
VERTEX
  8
LAYER1
 62
     7
  6
CONTINUOUS
 10
12.2666
 20
9.3652
  0
VERTEX
  8
LAYER1
 62
     7
  6
CONTINUOUS
 10
12.1690
 20
9.3608
  0
VERTEX
  8
LAYER1
 62
     7
  6
CONTINUOUS
 10
12.0670
 20
9.3563
  0
VERTEX
  8
LAYER1
 62
     7
  6
CONTINUOUS
 10
11.9250
 20
9.3475
  0
VERTEX
  8
LAYER1
 62
     7
  6
CONTINUOUS
 10
11.7919
 20
9.3475
  0
VERTEX
  8
LAYER1
 62
     7
  6
CONTINUOUS
 10
11.6854
 20
9.3475
  0
VERTEX
  8
LAYER1
 62
     7
  6
CONTINUOUS
 10
11.5612
 20
9.3475
  0
VERTEX
  8
LAYER1
 62
     7
  6
CONTINUOUS
 10
11.4104
 20
9.3608
  0
VERTEX
  8
LAYER1
 62
     7
  6
CONTINUOUS
 10
11.2640
 20
9.3830
  0
VERTEX
  8
LAYER1
 62
     7
  6
CONTINUOUS
 10
11.0998
 20
9.3963
  0
VERTEX
  8
LAYER1
 62
     7
  6
CONTINUOUS
 10
11.0022
 20
9.3963
  0
VERTEX
  8
LAYER1
 62
     7
  6
CONTINUOUS
 10
10.9046
 20
9.3963
  0
VERTEX
  8
LAYER1
 62
     7
  6
CONTINUOUS
 10
10.7982
 20
9.3963
  0
VERTEX
  8
LAYER1
 62
     7
  6
CONTINUOUS
 10
10.6695
 20
9.3963
  0
VERTEX
  8
LAYER1
 62
     7
  6
CONTINUOUS
 10
10.5364
 20
9.3963
  0
VERTEX
  8
LAYER1
 62
     7
  6
CONTINUOUS
 10
10.4699
 20
9.4007
  0
VERTEX
  8
LAYER1
 62
     7
  6
CONTINUOUS
 10
10.3368
 20
9.4318
  0
VERTEX
  8
LAYER1
 62
     7
  6
CONTINUOUS
 10
10.1992
 20
9.4539
  0
VERTEX
  8
LAYER1
 62
     7
  6
CONTINUOUS
 10
10.0218
 20
9.4894
  0
VERTEX
  8
LAYER1
 62
     7
  6
CONTINUOUS
 10
9.8931
 20
9.5116
  0
VERTEX
  8
LAYER1
 62
     7
  6
CONTINUOUS
 10
9.7645
 20
9.5382
  0
VERTEX
  8
LAYER1
 62
     7
  6
CONTINUOUS
 10
9.5915
 20
9.5959
  0
VERTEX
  8
LAYER1
 62
     7
  6
CONTINUOUS
 10
9.4894
 20
9.6358
  0
VERTEX
  8
LAYER1
 62
     7
  6
CONTINUOUS
 10
9.3430
 20
9.7024
  0
VERTEX
  8
LAYER1
 62
     7
  6
CONTINUOUS
 10
9.1922
 20
9.7867
  0
VERTEX
  8
LAYER1
 62
     7
  6
CONTINUOUS
 10
9.0946
 20
9.8310
  0
VERTEX
  8
LAYER1
 62
     7
  6
CONTINUOUS
 10
9.0014
 20
9.8931
  0
VERTEX
  8
LAYER1
 62
     7
  6
CONTINUOUS
 10
8.8683
 20
9.9597
  0
VERTEX
  8
LAYER1
 62
     7
  6
CONTINUOUS
 10
8.7486
 20
10.0484
  0
VERTEX
  8
LAYER1
 62
     7
  6
CONTINUOUS
 10
8.6731
 20
10.1105
  0
VERTEX
  8
LAYER1
 62
     7
  6
CONTINUOUS
 10
8.6199
 20
10.1549
  0
VERTEX
  8
LAYER1
 62
     7
  6
CONTINUOUS
 10
8.5578
 20
10.2037
  0
VERTEX
  8
LAYER1
 62
     7
  6
CONTINUOUS
 10
8.5223
 20
10.2392
  0
VERTEX
  8
LAYER1
 62
     7
  6
CONTINUOUS
 10
8.4513
 20
10.3013
  0
VERTEX
  8
LAYER1
 62
     7
  6
CONTINUOUS
 10
8.3803
 20
10.3678
  0
VERTEX
  8
LAYER1
 62
     7
  6
CONTINUOUS
 10
8.3138
 20
10.4344
  0
VERTEX
  8
LAYER1
 62
     7
  6
CONTINUOUS
 10
8.2251
 20
10.5142
  0
VERTEX
  8
LAYER1
 62
     7
  6
CONTINUOUS
 10
8.1674
 20
10.5586
  0
VERTEX
  8
LAYER1
 62
     7
  6
CONTINUOUS
 10
8.1230
 20
10.6074
  0
VERTEX
  8
LAYER1
 62
     7
  6
CONTINUOUS
 10
8.0653
 20
10.6562
  0
VERTEX
  8
LAYER1
 62
     7
  6
CONTINUOUS
 10
8.0077
 20
10.7050
  0
VERTEX
  8
LAYER1
 62
     7
  6
CONTINUOUS
 10
7.9500
 20
10.7405
  0
VERTEX
  8
LAYER1
 62
     7
  6
CONTINUOUS
 10
7.9101
 20
10.7849
  0
SEQEND
  8
LAYER1
  0
POLYLINE
  8
LAYER1
 62
     7
 66
     1
  6
CONTINUOUS
  0
VERTEX
  8
LAYER1
 62
     7
  6
CONTINUOUS
 10
9.2765
 20
10.3102
  0
VERTEX
  8
LAYER1
 62
     7
  6
CONTINUOUS
 10
9.2543
 20
10.2924
  0
VERTEX
  8
LAYER1
 62
     7
  6
CONTINUOUS
 10
9.2366
 20
10.2791
  0
VERTEX
  8
LAYER1
 62
     7
  6
CONTINUOUS
 10
9.2188
 20
10.2569
  0
VERTEX
  8
LAYER1
 62
     7
  6
CONTINUOUS
 10
9.1833
 20
10.2214
  0
VERTEX
  8
LAYER1
 62
     7
  6
CONTINUOUS
 10
9.1478
 20
10.2037
  0
VERTEX
  8
LAYER1
 62
     7
  6
CONTINUOUS
 10
9.0902
 20
10.1815
  0
VERTEX
  8
LAYER1
 62
     7
  6
CONTINUOUS
 10
9.0458
 20
10.1726
  0
VERTEX
  8
LAYER1
 62
     7
  6
CONTINUOUS
 10
8.9970
 20
10.1682
  0
VERTEX
  8
LAYER1
 62
     7
  6
CONTINUOUS
 10
8.9659
 20
10.1682
  0
VERTEX
  8
LAYER1
 62
     7
  6
CONTINUOUS
 10
8.9526
 20
10.1771
  0
VERTEX
  8
LAYER1
 62
     7
  6
CONTINUOUS
 10
8.9526
 20
10.1992
  0
VERTEX
  8
LAYER1
 62
     7
  6
CONTINUOUS
 10
8.9615
 20
10.2170
  0
VERTEX
  8
LAYER1
 62
     7
  6
CONTINUOUS
 10
9.0014
 20
10.2436
  0
VERTEX
  8
LAYER1
 62
     7
  6
CONTINUOUS
 10
9.0414
 20
10.2658
  0
VERTEX
  8
LAYER1
 62
     7
  6
CONTINUOUS
 10
9.0857
 20
10.2968
  0
VERTEX
  8
LAYER1
 62
     7
  6
CONTINUOUS
 10
9.1301
 20
10.3057
  0
VERTEX
  8
LAYER1
 62
     7
  6
CONTINUOUS
 10
9.1700
 20
10.3057
  0
VERTEX
  8
LAYER1
 62
     7
  6
CONTINUOUS
 10
9.2099
 20
10.3057
  0
VERTEX
  8
LAYER1
 62
     7
  6
CONTINUOUS
 10
9.2765
 20
10.3102
  0
SEQEND
  8
LAYER1
  0
POLYLINE
  8
LAYER1
 62
     7
 66
     1
  6
CONTINUOUS
  0
VERTEX
  8
LAYER1
 62
     7
  6
CONTINUOUS
 10
7.9589
 20
10.5408
  0
VERTEX
  8
LAYER1
 62
     7
  6
CONTINUOUS
 10
7.9544
 20
10.5542
  0
VERTEX
  8
LAYER1
 62
     7
  6
CONTINUOUS
 10
7.9189
 20
10.5630
  0
VERTEX
  8
LAYER1
 62
     7
  6
CONTINUOUS
 10
7.9012
 20
10.5630
  0
VERTEX
  8
LAYER1
 62
     7
  6
CONTINUOUS
 10
7.8657
 20
10.5719
  0
VERTEX
  8
LAYER1
 62
     7
  6
CONTINUOUS
 10
7.8213
 20
10.5763
  0
VERTEX
  8
LAYER1
 62
     7
  6
CONTINUOUS
 10
7.7947
 20
10.5941
  0
VERTEX
  8
LAYER1
 62
     7
  6
CONTINUOUS
 10
7.7681
 20
10.6163
  0
VERTEX
  8
LAYER1
 62
     7
  6
CONTINUOUS
 10
7.7459
 20
10.6473
  0
VERTEX
  8
LAYER1
 62
     7
  6
CONTINUOUS
 10
7.7326
 20
10.6695
  0
VERTEX
  8
LAYER1
 62
     7
  6
CONTINUOUS
 10
7.7193
 20
10.7050
  0
VERTEX
  8
LAYER1
 62
     7
  6
CONTINUOUS
 10
7.7104
 20
10.7582
  0
VERTEX
  8
LAYER1
 62
     7
  6
CONTINUOUS
 10
7.7237
 20
10.8159
  0
VERTEX
  8
LAYER1
 62
     7
  6
CONTINUOUS
 10
7.7326
 20
10.8514
  0
VERTEX
  8
LAYER1
 62
     7
  6
CONTINUOUS
 10
7.7592
 20
10.8913
  0
VERTEX
  8
LAYER1
 62
     7
  6
CONTINUOUS
 10
7.7859
 20
10.9313
  0
VERTEX
  8
LAYER1
 62
     7
  6
CONTINUOUS
 10
7.8125
 20
10.9579
  0
VERTEX
  8
LAYER1
 62
     7
  6
CONTINUOUS
 10
7.8391
 20
10.9934
  0
VERTEX
  8
LAYER1
 62
     7
  6
CONTINUOUS
 10
7.8701
 20
11.0155
  0
VERTEX
  8
LAYER1
 62
     7
  6
CONTINUOUS
 10
7.9056
 20
11.0377
  0
SEQEND
  8
LAYER1
  0
POLYLINE
  8
LAYER1
 62
     7
 66
     1
  6
CONTINUOUS
  0
VERTEX
  8
LAYER1
 62
     7
  6
CONTINUOUS
 10
11.3394
 20
9.0059
  0
VERTEX
  8
LAYER1
 62
     7
  6
CONTINUOUS
 10
11.3926
 20
8.9615
  0
VERTEX
  8
LAYER1
 62
     7
  6
CONTINUOUS
 10
11.4193
 20
8.9393
  0
VERTEX
  8
LAYER1
 62
     7
  6
CONTINUOUS
 10
11.4547
 20
8.8994
  0
VERTEX
  8
LAYER1
 62
     7
  6
CONTINUOUS
 10
11.5080
 20
8.8550
  0
VERTEX
  8
LAYER1
 62
     7
  6
CONTINUOUS
 10
11.5612
 20
8.8151
  0
VERTEX
  8
LAYER1
 62
     7
  6
CONTINUOUS
 10
11.6145
 20
8.7840
  0
VERTEX
  8
LAYER1
 62
     7
  6
CONTINUOUS
 10
11.6810
 20
8.7619
  0
VERTEX
  8
LAYER1
 62
     7
  6
CONTINUOUS
 10
11.7609
 20
8.7486
  0
VERTEX
  8
LAYER1
 62
     7
  6
CONTINUOUS
 10
11.8318
 20
8.7486
  0
VERTEX
  8
LAYER1
 62
     7
  6
CONTINUOUS
 10
11.9073
 20
8.7574
  0
VERTEX
  8
LAYER1
 62
     7
  6
CONTINUOUS
 10
11.9561
 20
8.7707
  0
VERTEX
  8
LAYER1
 62
     7
  6
CONTINUOUS
 10
11.9960
 20
8.7885
  0
VERTEX
  8
LAYER1
 62
     7
  6
CONTINUOUS
 10
12.0315
 20
8.8240
  0
VERTEX
  8
LAYER1
 62
     7
  6
CONTINUOUS
 10
12.0448
 20
8.8683
  0
VERTEX
  8
LAYER1
 62
     7
  6
CONTINUOUS
 10
12.0492
 20
8.9127
  0
VERTEX
  8
LAYER1
 62
     7
  6
CONTINUOUS
 10
12.0403
 20
8.9571
  0
VERTEX
  8
LAYER1
 62
     7
  6
CONTINUOUS
 10
12.0403
 20
8.9970
  0
VERTEX
  8
LAYER1
 62
     7
  6
CONTINUOUS
 10
12.0226
 20
9.0813
  0
SEQEND
  8
LAYER1
  0
POLYLINE
  8
LAYER1
 62
     7
 66
     1
  6
CONTINUOUS
  0
VERTEX
  8
LAYER1
 62
     7
  6
CONTINUOUS
 10
11.3838
 20
8.8994
  0
VERTEX
  8
LAYER1
 62
     7
  6
CONTINUOUS
 10
11.3483
 20
8.9038
  0
VERTEX
  8
LAYER1
 62
     7
  6
CONTINUOUS
 10
11.2995
 20
8.9038
  0
VERTEX
  8
LAYER1
 62
     7
  6
CONTINUOUS
 10
11.2640
 20
8.9038
  0
VERTEX
  8
LAYER1
 62
     7
  6
CONTINUOUS
 10
11.2063
 20
8.9127
  0
VERTEX
  8
LAYER1
 62
     7
  6
CONTINUOUS
 10
11.1575
 20
8.9127
  0
VERTEX
  8
LAYER1
 62
     7
  6
CONTINUOUS
 10
11.1043
 20
8.8994
  0
VERTEX
  8
LAYER1
 62
     7
  6
CONTINUOUS
 10
11.0732
 20
8.8683
  0
VERTEX
  8
LAYER1
 62
     7
  6
CONTINUOUS
 10
11.0333
 20
8.8151
  0
VERTEX
  8
LAYER1
 62
     7
  6
CONTINUOUS
 10
11.0022
 20
8.7486
  0
VERTEX
  8
LAYER1
 62
     7
  6
CONTINUOUS
 10
10.9800
 20
8.6776
  0
VERTEX
  8
LAYER1
 62
     7
  6
CONTINUOUS
 10
10.9845
 20
8.6110
  0
VERTEX
  8
LAYER1
 62
     7
  6
CONTINUOUS
 10
11.0067
 20
8.5578
  0
VERTEX
  8
LAYER1
 62
     7
  6
CONTINUOUS
 10
11.0377
 20
8.4957
  0
VERTEX
  8
LAYER1
 62
     7
  6
CONTINUOUS
 10
11.0732
 20
8.4513
  0
VERTEX
  8
LAYER1
 62
     7
  6
CONTINUOUS
 10
11.1176
 20
8.4203
  0
VERTEX
  8
LAYER1
 62
     7
  6
CONTINUOUS
 10
11.1575
 20
8.3981
  0
VERTEX
  8
LAYER1
 62
     7
  6
CONTINUOUS
 10
11.2285
 20
8.3715
  0
VERTEX
  8
LAYER1
 62
     7
  6
CONTINUOUS
 10
11.3039
 20
8.3670
  0
VERTEX
  8
LAYER1
 62
     7
  6
CONTINUOUS
 10
11.3660
 20
8.3715
  0
VERTEX
  8
LAYER1
 62
     7
  6
CONTINUOUS
 10
11.4326
 20
8.3936
  0
VERTEX
  8
LAYER1
 62
     7
  6
CONTINUOUS
 10
11.4814
 20
8.4424
  0
VERTEX
  8
LAYER1
 62
     7
  6
CONTINUOUS
 10
11.5213
 20
8.5134
  0
VERTEX
  8
LAYER1
 62
     7
  6
CONTINUOUS
 10
11.5568
 20
8.5667
  0
VERTEX
  8
LAYER1
 62
     7
  6
CONTINUOUS
 10
11.5923
 20
8.6110
  0
VERTEX
  8
LAYER1
 62
     7
  6
CONTINUOUS
 10
11.6011
 20
8.6598
  0
VERTEX
  8
LAYER1
 62
     7
  6
CONTINUOUS
 10
11.5967
 20
8.7131
  0
VERTEX
  8
LAYER1
 62
     7
  6
CONTINUOUS
 10
11.5701
 20
8.7619
  0
VERTEX
  8
LAYER1
 62
     7
  6
CONTINUOUS
 10
11.5346
 20
8.7929
  0
VERTEX
  8
LAYER1
 62
     7
  6
CONTINUOUS
 10
11.4947
 20
8.8195
  0
VERTEX
  8
LAYER1
 62
     7
  6
CONTINUOUS
 10
11.4503
 20
8.8506
  0
VERTEX
  8
LAYER1
 62
     7
  6
CONTINUOUS
 10
11.3971
 20
8.8816
  0
VERTEX
  8
LAYER1
 62
     7
  6
CONTINUOUS
 10
11.3527
 20
8.8994
  0
VERTEX
  8
LAYER1
 62
     7
  6
CONTINUOUS
 10
11.2995
 20
8.9038
  0
SEQEND
  8
LAYER1
  0
POLYLINE
  8
LAYER1
 62
     7
 66
     1
  6
HIDDEN
  0
VERTEX
  8
LAYER1
 62
     7
  6
HIDDEN
 10
7.7326
 20
10.8514
  0
VERTEX
  8
LAYER1
 62
     7
  6
HIDDEN
 10
7.7104
 20
10.8647
  0
VERTEX
  8
LAYER1
 62
     7
  6
HIDDEN
 10
7.6838
 20
10.8824
  0
VERTEX
  8
LAYER1
 62
     7
  6
HIDDEN
 10
7.6350
 20
10.9268
  0
VERTEX
  8
LAYER1
 62
     7
  6
HIDDEN
 10
7.5951
 20
10.9712
  0
VERTEX
  8
LAYER1
 62
     7
  6
HIDDEN
 10
7.5596
 20
11.0333
  0
VERTEX
  8
LAYER1
 62
     7
  6
HIDDEN
 10
7.5330
 20
11.0821
  0
VERTEX
  8
LAYER1
 62
     7
  6
HIDDEN
 10
7.5064
 20
11.1619
  0
VERTEX
  8
LAYER1
 62
     7
  6
HIDDEN
 10
7.4709
 20
11.2285
  0
VERTEX
  8
LAYER1
 62
     7
  6
HIDDEN
 10
7.4354
 20
11.2995
  0
VERTEX
  8
LAYER1
 62
     7
  6
HIDDEN
 10
7.4132
 20
11.3571
  0
VERTEX
  8
LAYER1
 62
     7
  6
HIDDEN
 10
7.3954
 20
11.4370
  0
VERTEX
  8
LAYER1
 62
     7
  6
HIDDEN
 10
7.3954
 20
11.5213
  0
VERTEX
  8
LAYER1
 62
     7
  6
HIDDEN
 10
7.3954
 20
11.6011
  0
VERTEX
  8
LAYER1
 62
     7
  6
HIDDEN
 10
7.3954
 20
11.7076
  0
VERTEX
  8
LAYER1
 62
     7
  6
HIDDEN
 10
7.3954
 20
11.7564
  0
VERTEX
  8
LAYER1
 62
     7
  6
HIDDEN
 10
7.4088
 20
11.8141
  0
VERTEX
  8
LAYER1
 62
     7
  6
HIDDEN
 10
7.4176
 20
11.8762
  0
VERTEX
  8
LAYER1
 62
     7
  6
HIDDEN
 10
7.4265
 20
11.9383
  0
VERTEX
  8
LAYER1
 62
     7
  6
HIDDEN
 10
7.4398
 20
11.9871
  0
VERTEX
  8
LAYER1
 62
     7
  6
HIDDEN
 10
7.4753
 20
12.0803
  0
VERTEX
  8
LAYER1
 62
     7
  6
HIDDEN
 10
7.4931
 20
12.1379
  0
VERTEX
  8
LAYER1
 62
     7
  6
HIDDEN
 10
7.5108
 20
12.2001
  0
VERTEX
  8
LAYER1
 62
     7
  6
HIDDEN
 10
7.5285
 20
12.2577
  0
VERTEX
  8
LAYER1
 62
     7
  6
HIDDEN
 10
7.5374
 20
12.3021
  0
VERTEX
  8
LAYER1
 62
     7
  6
HIDDEN
 10
7.5507
 20
12.3465
  0
VERTEX
  8
LAYER1
 62
     7
  6
HIDDEN
 10
7.5685
 20
12.4086
  0
VERTEX
  8
LAYER1
 62
     7
  6
HIDDEN
 10
7.6173
 20
12.5017
  0
VERTEX
  8
LAYER1
 62
     7
  6
HIDDEN
 10
7.6661
 20
12.5771
  0
VERTEX
  8
LAYER1
 62
     7
  6
HIDDEN
 10
7.7193
 20
12.6437
  0
VERTEX
  8
LAYER1
 62
     7
  6
HIDDEN
 10
7.7681
 20
12.6925
  0
VERTEX
  8
LAYER1
 62
     7
  6
HIDDEN
 10
7.8302
 20
12.7590
  0
VERTEX
  8
LAYER1
 62
     7
  6
HIDDEN
 10
7.8968
 20
12.8256
  0
VERTEX
  8
LAYER1
 62
     7
  6
HIDDEN
 10
8.0254
 20
13.0119
  0
VERTEX
  8
LAYER1
 62
     7
  6
HIDDEN
 10
8.0653
 20
13.0873
  0
VERTEX
  8
LAYER1
 62
     7
  6
HIDDEN
 10
8.0920
 20
13.1406
  0
VERTEX
  8
LAYER1
 62
     7
  6
HIDDEN
 10
8.1141
 20
13.1938
  0
VERTEX
  8
LAYER1
 62
     7
  6
HIDDEN
 10
8.1408
 20
13.2515
  0
VERTEX
  8
LAYER1
 62
     7
  6
HIDDEN
 10
8.1984
 20
13.3358
  0
VERTEX
  8
LAYER1
 62
     7
  6
HIDDEN
 10
8.2517
 20
13.3935
  0
VERTEX
  8
LAYER1
 62
     7
  6
HIDDEN
 10
8.3315
 20
13.4600
  0
VERTEX
  8
LAYER1
 62
     7
  6
HIDDEN
 10
8.4868
 20
13.5620
  0
VERTEX
  8
LAYER1
 62
     7
  6
HIDDEN
 10
8.5800
 20
13.5665
  0
VERTEX
  8
LAYER1
 62
     7
  6
HIDDEN
 10
8.6864
 20
13.5886
  0
VERTEX
  8
LAYER1
 62
     7
  6
HIDDEN
 10
8.7707
 20
13.5931
  0
VERTEX
  8
LAYER1
 62
     7
  6
HIDDEN
 10
8.8728
 20
13.5709
  0
VERTEX
  8
LAYER1
 62
     7
  6
HIDDEN
 10
8.9349
 20
13.5532
  0
VERTEX
  8
LAYER1
 62
     7
  6
HIDDEN
 10
9.0547
 20
13.5044
  0
VERTEX
  8
LAYER1
 62
     7
  6
HIDDEN
 10
9.1212
 20
13.4689
  0
VERTEX
  8
LAYER1
 62
     7
  6
HIDDEN
 10
9.2277
 20
13.4023
  0
SEQEND
  8
LAYER1
  0
POLYLINE
  8
LAYER1
 62
     3
 66
     1
  6
CONTINUOUS
  0
VERTEX
  8
LAYER1
 62
     3
  6
CONTINUOUS
 10
7.6040
 20
11.5035
  0
VERTEX
  8
LAYER1
 62
     3
  6
CONTINUOUS
 10
8.2029
 20
11.5035
  0
SEQEND
  8
LAYER1
  0
POLYLINE
  8
LAYER1
 62
     3
 66
     1
  6
CONTINUOUS
  0
VERTEX
  8
LAYER1
 62
     3
  6
CONTINUOUS
 10
14.5913
 20
11.5302
  0
VERTEX
  8
LAYER1
 62
     3
  6
CONTINUOUS
 10
15.0660
 20
11.5302
  0
SEQEND
  8
LAYER1
  0
POLYLINE
  8
LAYER1
 62
     7
 66
     1
  6
CONTINUOUS
  0
VERTEX
  8
LAYER1
 62
     7
  6
CONTINUOUS
 10
3.9439
 20
7.5285
  0
VERTEX
  8
LAYER1
 62
     7
  6
CONTINUOUS
 10
6.1577
 20
7.5285
  0
SEQEND
  8
LAYER1
  0
POLYLINE
  8
LAYER1
 62
     7
 66
     1
  6
CONTINUOUS
  0
VERTEX
  8
LAYER1
 62
     7
  6
CONTINUOUS
 10
6.1577
 20
7.5285
  0
VERTEX
  8
LAYER1
 62
     7
  6
CONTINUOUS
 10
6.1577
 20
7.7671
  0
SEQEND
  8
LAYER1
  0
POLYLINE
  8
LAYER1
 62
     7
 66
     1
  6
CONTINUOUS
  0
VERTEX
  8
LAYER1
 62
     7
  6
CONTINUOUS
 10
3.9439
 20
7.7648
  0
VERTEX
  8
LAYER1
 62
     7
  6
CONTINUOUS
 10
3.9439
 20
7.5285
  0
SEQEND
  8
LAYER1
  0
POLYLINE
  8
LAYER1
 62
     7
 66
     1
  6
CONTINUOUS
  0
VERTEX
  8
LAYER1
 62
     7
  6
CONTINUOUS
 10
6.1577
 20
7.5285
  0
VERTEX
  8
LAYER1
 62
     7
  6
CONTINUOUS
 10
3.9439
 20
7.5285
  0
SEQEND
  8
LAYER1
  0
POLYLINE
  8
LAYER1
 62
     7
 66
     1
  6
CONTINUOUS
  0
VERTEX
  8
LAYER1
 62
     7
  6
CONTINUOUS
 10
7.5818
 20
6.1045
  0
VERTEX
  8
LAYER1
 62
     7
  6
CONTINUOUS
 10
7.9021
 20
6.1045
  0
VERTEX
  8
LAYER1
 62
     7
  6
CONTINUOUS
 10
14.7086
 20
6.1045
  0
VERTEX
  8
LAYER1
 62
     7
  6
CONTINUOUS
 10
15.0795
 20
6.1045
  0
SEQEND
  8
LAYER1
  0
POLYLINE
  8
LAYER1
 62
     7
 66
     1
  6
CONTINUOUS
  0
VERTEX
  8
LAYER1
 62
     7
  6
CONTINUOUS
 10
7.9021
 20
6.1045
  0
VERTEX
  8
LAYER1
 62
     7
  6
CONTINUOUS
 10
7.8768
 20
6.0328
  0
VERTEX
  8
LAYER1
 62
     7
  6
CONTINUOUS
 10
7.8768
 20
5.9949
  0
VERTEX
  8
LAYER1
 62
     7
  6
CONTINUOUS
 10
7.8768
 20
5.9485
  0
VERTEX
  8
LAYER1
 62
     7
  6
CONTINUOUS
 10
7.8768
 20
5.9064
  0
VERTEX
  8
LAYER1
 62
     7
  6
CONTINUOUS
 10
7.8768
 20
5.8600
  0
VERTEX
  8
LAYER1
 62
     7
  6
CONTINUOUS
 10
7.8768
 20
5.8179
  0
VERTEX
  8
LAYER1
 62
     7
  6
CONTINUOUS
 10
7.8768
 20
5.7715
  0
VERTEX
  8
LAYER1
 62
     7
  6
CONTINUOUS
 10
7.8768
 20
5.7125
  0
VERTEX
  8
LAYER1
 62
     7
  6
CONTINUOUS
 10
7.8684
 20
5.6704
  0
VERTEX
  8
LAYER1
 62
     7
  6
CONTINUOUS
 10
7.8642
 20
5.6282
  0
VERTEX
  8
LAYER1
 62
     7
  6
CONTINUOUS
 10
7.8642
 20
5.5692
  0
VERTEX
  8
LAYER1
 62
     7
  6
CONTINUOUS
 10
7.8642
 20
5.5271
  0
VERTEX
  8
LAYER1
 62
     7
  6
CONTINUOUS
 10
7.8642
 20
5.4765
  0
VERTEX
  8
LAYER1
 62
     7
  6
CONTINUOUS
 10
7.8642
 20
5.4344
  0
VERTEX
  8
LAYER1
 62
     7
  6
CONTINUOUS
 10
7.8684
 20
5.3711
  0
VERTEX
  8
LAYER1
 62
     7
  6
CONTINUOUS
 10
7.8684
 20
5.2953
  0
VERTEX
  8
LAYER1
 62
     7
  6
CONTINUOUS
 10
7.8810
 20
5.2152
  0
VERTEX
  8
LAYER1
 62
     7
  6
CONTINUOUS
 10
7.8894
 20
5.1478
  0
VERTEX
  8
LAYER1
 62
     7
  6
CONTINUOUS
 10
7.8937
 20
5.0761
  0
VERTEX
  8
LAYER1
 62
     7
  6
CONTINUOUS
 10
7.8979
 20
5.0255
  0
VERTEX
  8
LAYER1
 62
     7
  6
CONTINUOUS
 10
7.9021
 20
4.9665
  0
VERTEX
  8
LAYER1
 62
     7
  6
CONTINUOUS
 10
7.9063
 20
4.9202
  0
VERTEX
  8
LAYER1
 62
     7
  6
CONTINUOUS
 10
7.9105
 20
4.8822
  0
VERTEX
  8
LAYER1
 62
     7
  6
CONTINUOUS
 10
7.9232
 20
4.8317
  0
VERTEX
  8
LAYER1
 62
     7
  6
CONTINUOUS
 10
7.9274
 20
4.7642
  0
VERTEX
  8
LAYER1
 62
     7
  6
CONTINUOUS
 10
7.9316
 20
4.6968
  0
VERTEX
  8
LAYER1
 62
     7
  6
CONTINUOUS
 10
7.9358
 20
4.6336
  0
VERTEX
  8
LAYER1
 62
     7
  6
CONTINUOUS
 10
7.9400
 20
4.5746
  0
VERTEX
  8
LAYER1
 62
     7
  6
CONTINUOUS
 10
7.9442
 20
4.4861
  0
VERTEX
  8
LAYER1
 62
     7
  6
CONTINUOUS
 10
7.9527
 20
4.4524
  0
VERTEX
  8
LAYER1
 62
     7
  6
CONTINUOUS
 10
7.9569
 20
4.3934
  0
VERTEX
  8
LAYER1
 62
     7
  6
CONTINUOUS
 10
7.9653
 20
4.3512
  0
VERTEX
  8
LAYER1
 62
     7
  6
CONTINUOUS
 10
7.9695
 20
4.2964
  0
VERTEX
  8
LAYER1
 62
     7
  6
CONTINUOUS
 10
7.9695
 20
4.2332
  0
VERTEX
  8
LAYER1
 62
     7
  6
CONTINUOUS
 10
7.9695
 20
4.1742
  0
VERTEX
  8
LAYER1
 62
     7
  6
CONTINUOUS
 10
7.9737
 20
4.1194
  0
VERTEX
  8
LAYER1
 62
     7
  6
CONTINUOUS
 10
7.9737
 20
4.0562
  0
VERTEX
  8
LAYER1
 62
     7
  6
CONTINUOUS
 10
7.9780
 20
4.0140
  0
VERTEX
  8
LAYER1
 62
     7
  6
CONTINUOUS
 10
7.9990
 20
3.9550
  0
VERTEX
  8
LAYER1
 62
     7
  6
CONTINUOUS
 10
8.0117
 20
3.9045
  0
VERTEX
  8
LAYER1
 62
     7
  6
CONTINUOUS
 10
8.0117
 20
3.8623
  0
VERTEX
  8
LAYER1
 62
     7
  6
CONTINUOUS
 10
8.0243
 20
3.8286
  0
VERTEX
  8
LAYER1
 62
     7
  6
CONTINUOUS
 10
8.0538
 20
3.7907
  0
VERTEX
  8
LAYER1
 62
     7
  6
CONTINUOUS
 10
8.0791
 20
3.7865
  0
VERTEX
  8
LAYER1
 62
     7
  6
CONTINUOUS
 10
8.1297
 20
3.7822
  0
VERTEX
  8
LAYER1
 62
     7
  6
CONTINUOUS
 10
8.1803
 20
3.7738
  0
VERTEX
  8
LAYER1
 62
     7
  6
CONTINUOUS
 10
8.2266
 20
3.7612
  0
VERTEX
  8
LAYER1
 62
     7
  6
CONTINUOUS
 10
8.2856
 20
3.7485
  0
VERTEX
  8
LAYER1
 62
     7
  6
CONTINUOUS
 10
8.3404
 20
3.7317
  0
VERTEX
  8
LAYER1
 62
     7
  6
CONTINUOUS
 10
8.3910
 20
3.7064
  0
VERTEX
  8
LAYER1
 62
     7
  6
CONTINUOUS
 10
8.4416
 20
3.6811
  0
VERTEX
  8
LAYER1
 62
     7
  6
CONTINUOUS
 10
8.4879
 20
3.6516
  0
VERTEX
  8
LAYER1
 62
     7
  6
CONTINUOUS
 10
8.5469
 20
3.6263
  0
VERTEX
  8
LAYER1
 62
     7
  6
CONTINUOUS
 10
8.5975
 20
3.6010
  0
VERTEX
  8
LAYER1
 62
     7
  6
CONTINUOUS
 10
8.6607
 20
3.5757
  0
VERTEX
  8
LAYER1
 62
     7
  6
CONTINUOUS
 10
8.7914
 20
3.5378
  0
VERTEX
  8
LAYER1
 62
     7
  6
CONTINUOUS
 10
8.8377
 20
3.5336
  0
VERTEX
  8
LAYER1
 62
     7
  6
CONTINUOUS
 10
8.8799
 20
3.5252
  0
VERTEX
  8
LAYER1
 62
     7
  6
CONTINUOUS
 10
8.9347
 20
3.5209
  0
VERTEX
  8
LAYER1
 62
     7
  6
CONTINUOUS
 10
8.9979
 20
3.5125
  0
VERTEX
  8
LAYER1
 62
     7
  6
CONTINUOUS
 10
9.0316
 20
3.5083
  0
VERTEX
  8
LAYER1
 62
     7
  6
CONTINUOUS
 10
9.0948
 20
3.4788
  0
VERTEX
  8
LAYER1
 62
     7
  6
CONTINUOUS
 10
9.1622
 20
3.4451
  0
VERTEX
  8
LAYER1
 62
     7
  6
CONTINUOUS
 10
9.2508
 20
3.4114
  0
VERTEX
  8
LAYER1
 62
     7
  6
CONTINUOUS
 10
9.3055
 20
3.3903
  0
VERTEX
  8
LAYER1
 62
     7
  6
CONTINUOUS
 10
9.3856
 20
3.3650
  0
VERTEX
  8
LAYER1
 62
     7
  6
CONTINUOUS
 10
9.4446
 20
3.3481
  0
VERTEX
  8
LAYER1
 62
     7
  6
CONTINUOUS
 10
9.5121
 20
3.3271
  0
VERTEX
  8
LAYER1
 62
     7
  6
CONTINUOUS
 10
9.5753
 20
3.3144
  0
VERTEX
  8
LAYER1
 62
     7
  6
CONTINUOUS
 10
9.6933
 20
3.2891
  0
VERTEX
  8
LAYER1
 62
     7
  6
CONTINUOUS
 10
9.7565
 20
3.2681
  0
VERTEX
  8
LAYER1
 62
     7
  6
CONTINUOUS
 10
9.8113
 20
3.2428
  0
VERTEX
  8
LAYER1
 62
     7
  6
CONTINUOUS
 10
9.8745
 20
3.2217
  0
VERTEX
  8
LAYER1
 62
     7
  6
CONTINUOUS
 10
9.9335
 20
3.2006
  0
VERTEX
  8
LAYER1
 62
     7
  6
CONTINUOUS
 10
10.0220
 20
3.1796
  0
VERTEX
  8
LAYER1
 62
     7
  6
CONTINUOUS
 10
10.0937
 20
3.1500
  0
VERTEX
  8
LAYER1
 62
     7
  6
CONTINUOUS
 10
10.1948
 20
3.1121
  0
VERTEX
  8
LAYER1
 62
     7
  6
CONTINUOUS
 10
10.2791
 20
3.0784
  0
VERTEX
  8
LAYER1
 62
     7
  6
CONTINUOUS
 10
10.3255
 20
3.0826
  0
VERTEX
  8
LAYER1
 62
     7
  6
CONTINUOUS
 10
10.3760
 20
3.0868
  0
VERTEX
  8
LAYER1
 62
     7
  6
CONTINUOUS
 10
10.4730
 20
3.0784
  0
VERTEX
  8
LAYER1
 62
     7
  6
CONTINUOUS
 10
10.5446
 20
3.0616
  0
VERTEX
  8
LAYER1
 62
     7
  6
CONTINUOUS
 10
10.6373
 20
3.0363
  0
VERTEX
  8
LAYER1
 62
     7
  6
CONTINUOUS
 10
10.7006
 20
3.0110
  0
VERTEX
  8
LAYER1
 62
     7
  6
CONTINUOUS
 10
10.7933
 20
2.9688
  0
VERTEX
  8
LAYER1
 62
     7
  6
CONTINUOUS
 10
10.8396
 20
2.9393
  0
VERTEX
  8
LAYER1
 62
     7
  6
CONTINUOUS
 10
10.8860
 20
2.9183
  0
VERTEX
  8
LAYER1
 62
     7
  6
CONTINUOUS
 10
10.9534
 20
2.9098
  0
VERTEX
  8
LAYER1
 62
     7
  6
CONTINUOUS
 10
11.0335
 20
2.9056
  0
VERTEX
  8
LAYER1
 62
     7
  6
CONTINUOUS
 10
11.1557
 20
2.8930
  0
VERTEX
  8
LAYER1
 62
     7
  6
CONTINUOUS
 10
11.2147
 20
2.8930
  0
VERTEX
  8
LAYER1
 62
     7
  6
CONTINUOUS
 10
11.2653
 20
2.8930
  0
VERTEX
  8
LAYER1
 62
     7
  6
CONTINUOUS
 10
11.3538
 20
2.8803
  0
VERTEX
  8
LAYER1
 62
     7
  6
CONTINUOUS
 10
11.4170
 20
2.8677
  0
VERTEX
  8
LAYER1
 62
     7
  6
CONTINUOUS
 10
11.5055
 20
2.8677
  0
VERTEX
  8
LAYER1
 62
     7
  6
CONTINUOUS
 10
11.6151
 20
2.8593
  0
VERTEX
  8
LAYER1
 62
     7
  6
CONTINUOUS
 10
11.7078
 20
2.8508
  0
VERTEX
  8
LAYER1
 62
     7
  6
CONTINUOUS
 10
11.7921
 20
2.8382
  0
VERTEX
  8
LAYER1
 62
     7
  6
CONTINUOUS
 10
11.8849
 20
2.8171
  0
VERTEX
  8
LAYER1
 62
     7
  6
CONTINUOUS
 10
11.9734
 20
2.7960
  0
VERTEX
  8
LAYER1
 62
     7
  6
CONTINUOUS
 10
12.0366
 20
2.7834
  0
VERTEX
  8
LAYER1
 62
     7
  6
CONTINUOUS
 10
12.1377
 20
2.7750
  0
VERTEX
  8
LAYER1
 62
     7
  6
CONTINUOUS
 10
12.1799
 20
2.7707
  0
VERTEX
  8
LAYER1
 62
     7
  6
CONTINUOUS
 10
12.2937
 20
2.7328
  0
VERTEX
  8
LAYER1
 62
     7
  6
CONTINUOUS
 10
12.3906
 20
2.7033
  0
VERTEX
  8
LAYER1
 62
     7
  6
CONTINUOUS
 10
12.4580
 20
2.6865
  0
VERTEX
  8
LAYER1
 62
     7
  6
CONTINUOUS
 10
12.5297
 20
2.6696
  0
VERTEX
  8
LAYER1
 62
     7
  6
CONTINUOUS
 10
12.6730
 20
2.6275
  0
VERTEX
  8
LAYER1
 62
     7
  6
CONTINUOUS
 10
12.7531
 20
2.6190
  0
VERTEX
  8
LAYER1
 62
     7
  6
CONTINUOUS
 10
12.8458
 20
2.6148
  0
VERTEX
  8
LAYER1
 62
     7
  6
CONTINUOUS
 10
12.9132
 20
2.6106
  0
VERTEX
  8
LAYER1
 62
     7
  6
CONTINUOUS
 10
13.0017
 20
2.5979
  0
VERTEX
  8
LAYER1
 62
     7
  6
CONTINUOUS
 10
13.0860
 20
2.5979
  0
VERTEX
  8
LAYER1
 62
     7
  6
CONTINUOUS
 10
13.1829
 20
2.6022
  0
VERTEX
  8
LAYER1
 62
     7
  6
CONTINUOUS
 10
13.2588
 20
2.5937
  0
VERTEX
  8
LAYER1
 62
     7
  6
CONTINUOUS
 10
13.3937
 20
2.5769
  0
VERTEX
  8
LAYER1
 62
     7
  6
CONTINUOUS
 10
13.4906
 20
2.5600
  0
VERTEX
  8
LAYER1
 62
     7
  6
CONTINUOUS
 10
13.5496
 20
2.5600
  0
VERTEX
  8
LAYER1
 62
     7
  6
CONTINUOUS
 10
13.6213
 20
2.5600
  0
VERTEX
  8
LAYER1
 62
     7
  6
CONTINUOUS
 10
13.7013
 20
2.5600
  0
VERTEX
  8
LAYER1
 62
     7
  6
CONTINUOUS
 10
13.7814
 20
2.5684
  0
VERTEX
  8
LAYER1
 62
     7
  6
CONTINUOUS
 10
13.8278
 20
2.5853
  0
VERTEX
  8
LAYER1
 62
     7
  6
CONTINUOUS
 10
13.8826
 20
2.6654
  0
VERTEX
  8
LAYER1
 62
     7
  6
CONTINUOUS
 10
13.9078
 20
2.7286
  0
VERTEX
  8
LAYER1
 62
     7
  6
CONTINUOUS
 10
13.9373
 20
2.8045
  0
VERTEX
  8
LAYER1
 62
     7
  6
CONTINUOUS
 10
13.9542
 20
2.8550
  0
VERTEX
  8
LAYER1
 62
     7
  6
CONTINUOUS
 10
13.9837
 20
2.9393
  0
VERTEX
  8
LAYER1
 62
     7
  6
CONTINUOUS
 10
14.0216
 20
3.0531
  0
VERTEX
  8
LAYER1
 62
     7
  6
CONTINUOUS
 10
14.0385
 20
3.1332
  0
VERTEX
  8
LAYER1
 62
     7
  6
CONTINUOUS
 10
14.0722
 20
3.2765
  0
VERTEX
  8
LAYER1
 62
     7
  6
CONTINUOUS
 10
14.0933
 20
3.3608
  0
VERTEX
  8
LAYER1
 62
     7
  6
CONTINUOUS
 10
14.1101
 20
3.4451
  0
VERTEX
  8
LAYER1
 62
     7
  6
CONTINUOUS
 10
14.1312
 20
3.5252
  0
VERTEX
  8
LAYER1
 62
     7
  6
CONTINUOUS
 10
14.1481
 20
3.6221
  0
VERTEX
  8
LAYER1
 62
     7
  6
CONTINUOUS
 10
14.1691
 20
3.7317
  0
VERTEX
  8
LAYER1
 62
     7
  6
CONTINUOUS
 10
14.1986
 20
3.8792
  0
VERTEX
  8
LAYER1
 62
     7
  6
CONTINUOUS
 10
14.1986
 20
3.9930
  0
VERTEX
  8
LAYER1
 62
     7
  6
CONTINUOUS
 10
14.2155
 20
4.0604
  0
VERTEX
  8
LAYER1
 62
     7
  6
CONTINUOUS
 10
14.2450
 20
4.1447
  0
VERTEX
  8
LAYER1
 62
     7
  6
CONTINUOUS
 10
14.2661
 20
4.2121
  0
VERTEX
  8
LAYER1
 62
     7
  6
CONTINUOUS
 10
14.2745
 20
4.2922
  0
VERTEX
  8
LAYER1
 62
     7
  6
CONTINUOUS
 10
14.2998
 20
4.3596
  0
VERTEX
  8
LAYER1
 62
     7
  6
CONTINUOUS
 10
14.3167
 20
4.4355
  0
VERTEX
  8
LAYER1
 62
     7
  6
CONTINUOUS
 10
14.3209
 20
4.5198
  0
VERTEX
  8
LAYER1
 62
     7
  6
CONTINUOUS
 10
14.3419
 20
4.5914
  0
VERTEX
  8
LAYER1
 62
     7
  6
CONTINUOUS
 10
14.3841
 20
4.7221
  0
VERTEX
  8
LAYER1
 62
     7
  6
CONTINUOUS
 10
14.4136
 20
4.7979
  0
VERTEX
  8
LAYER1
 62
     7
  6
CONTINUOUS
 10
14.4389
 20
4.8822
  0
VERTEX
  8
LAYER1
 62
     7
  6
CONTINUOUS
 10
14.4600
 20
4.9539
  0
VERTEX
  8
LAYER1
 62
     7
  6
CONTINUOUS
 10
14.4852
 20
5.0087
  0
VERTEX
  8
LAYER1
 62
     7
  6
CONTINUOUS
 10
14.4979
 20
5.0803
  0
VERTEX
  8
LAYER1
 62
     7
  6
CONTINUOUS
 10
14.5190
 20
5.1604
  0
VERTEX
  8
LAYER1
 62
     7
  6
CONTINUOUS
 10
14.5358
 20
5.3079
  0
VERTEX
  8
LAYER1
 62
     7
  6
CONTINUOUS
 10
14.5527
 20
5.3711
  0
VERTEX
  8
LAYER1
 62
     7
  6
CONTINUOUS
 10
14.5611
 20
5.4259
  0
VERTEX
  8
LAYER1
 62
     7
  6
CONTINUOUS
 10
14.5780
 20
5.4891
  0
VERTEX
  8
LAYER1
 62
     7
  6
CONTINUOUS
 10
14.5906
 20
5.5481
  0
VERTEX
  8
LAYER1
 62
     7
  6
CONTINUOUS
 10
14.5948
 20
5.6071
  0
VERTEX
  8
LAYER1
 62
     7
  6
CONTINUOUS
 10
14.6327
 20
5.7504
  0
VERTEX
  8
LAYER1
 62
     7
  6
CONTINUOUS
 10
14.6327
 20
5.7968
  0
VERTEX
  8
LAYER1
 62
     7
  6
CONTINUOUS
 10
14.6454
 20
5.8516
  0
VERTEX
  8
LAYER1
 62
     7
  6
CONTINUOUS
 10
14.6623
 20
5.9064
  0
VERTEX
  8
LAYER1
 62
     7
  6
CONTINUOUS
 10
14.6749
 20
5.9612
  0
VERTEX
  8
LAYER1
 62
     7
  6
CONTINUOUS
 10
14.6918
 20
6.0033
  0
VERTEX
  8
LAYER1
 62
     7
  6
CONTINUOUS
 10
14.7086
 20
6.1045
  0
SEQEND
  8
LAYER1
  0
POLYLINE
  8
LAYER1
 62
     7
 66
     1
  6
CONTINUOUS
  0
VERTEX
  8
LAYER1
 62
     7
  6
CONTINUOUS
 10
7.9569
 20
4.3934
  0
VERTEX
  8
LAYER1
 62
     7
  6
CONTINUOUS
 10
8.0159
 20
4.3934
  0
VERTEX
  8
LAYER1
 62
     7
  6
CONTINUOUS
 10
8.0538
 20
4.3934
  0
VERTEX
  8
LAYER1
 62
     7
  6
CONTINUOUS
 10
8.1044
 20
4.3934
  0
VERTEX
  8
LAYER1
 62
     7
  6
CONTINUOUS
 10
8.1592
 20
4.4018
  0
VERTEX
  8
LAYER1
 62
     7
  6
CONTINUOUS
 10
8.2140
 20
4.4186
  0
VERTEX
  8
LAYER1
 62
     7
  6
CONTINUOUS
 10
8.2730
 20
4.4397
  0
VERTEX
  8
LAYER1
 62
     7
  6
CONTINUOUS
 10
8.3362
 20
4.4439
  0
VERTEX
  8
LAYER1
 62
     7
  6
CONTINUOUS
 10
8.4247
 20
4.4439
  0
VERTEX
  8
LAYER1
 62
     7
  6
CONTINUOUS
 10
8.5048
 20
4.4439
  0
VERTEX
  8
LAYER1
 62
     7
  6
CONTINUOUS
 10
8.6017
 20
4.4355
  0
VERTEX
  8
LAYER1
 62
     7
  6
CONTINUOUS
 10
8.6691
 20
4.4355
  0
VERTEX
  8
LAYER1
 62
     7
  6
CONTINUOUS
 10
8.7787
 20
4.4355
  0
VERTEX
  8
LAYER1
 62
     7
  6
CONTINUOUS
 10
8.8630
 20
4.4355
  0
VERTEX
  8
LAYER1
 62
     7
  6
CONTINUOUS
 10
8.9642
 20
4.4271
  0
VERTEX
  8
LAYER1
 62
     7
  6
CONTINUOUS
 10
9.0527
 20
4.4186
  0
VERTEX
  8
LAYER1
 62
     7
  6
CONTINUOUS
 10
9.1201
 20
4.4186
  0
VERTEX
  8
LAYER1
 62
     7
  6
CONTINUOUS
 10
9.1917
 20
4.4186
  0
VERTEX
  8
LAYER1
 62
     7
  6
CONTINUOUS
 10
9.2971
 20
4.4229
  0
VERTEX
  8
LAYER1
 62
     7
  6
CONTINUOUS
 10
9.3645
 20
4.4186
  0
VERTEX
  8
LAYER1
 62
     7
  6
CONTINUOUS
 10
9.4446
 20
4.4144
  0
VERTEX
  8
LAYER1
 62
     7
  6
CONTINUOUS
 10
9.5078
 20
4.4144
  0
VERTEX
  8
LAYER1
 62
     7
  6
CONTINUOUS
 10
9.5500
 20
4.4144
  0
VERTEX
  8
LAYER1
 62
     7
  6
CONTINUOUS
 10
9.5837
 20
4.4102
  0
VERTEX
  8
LAYER1
 62
     7
  6
CONTINUOUS
 10
9.6975
 20
4.4018
  0
VERTEX
  8
LAYER1
 62
     7
  6
CONTINUOUS
 10
9.7691
 20
4.3891
  0
VERTEX
  8
LAYER1
 62
     7
  6
CONTINUOUS
 10
9.7986
 20
4.3849
  0
VERTEX
  8
LAYER1
 62
     7
  6
CONTINUOUS
 10
9.8071
 20
4.3512
  0
VERTEX
  8
LAYER1
 62
     7
  6
CONTINUOUS
 10
9.8155
 20
4.2880
  0
VERTEX
  8
LAYER1
 62
     7
  6
CONTINUOUS
 10
9.8239
 20
4.2332
  0
VERTEX
  8
LAYER1
 62
     7
  6
CONTINUOUS
 10
9.8366
 20
4.1573
  0
VERTEX
  8
LAYER1
 62
     7
  6
CONTINUOUS
 10
9.8450
 20
4.0857
  0
VERTEX
  8
LAYER1
 62
     7
  6
CONTINUOUS
 10
9.8450
 20
4.0014
  0
VERTEX
  8
LAYER1
 62
     7
  6
CONTINUOUS
 10
9.8492
 20
3.9255
  0
VERTEX
  8
LAYER1
 62
     7
  6
CONTINUOUS
 10
9.8703
 20
3.8412
  0
VERTEX
  8
LAYER1
 62
     7
  6
CONTINUOUS
 10
9.8745
 20
3.7780
  0
VERTEX
  8
LAYER1
 62
     7
  6
CONTINUOUS
 10
9.8661
 20
3.7106
  0
VERTEX
  8
LAYER1
 62
     7
  6
CONTINUOUS
 10
9.8534
 20
3.6516
  0
VERTEX
  8
LAYER1
 62
     7
  6
CONTINUOUS
 10
9.8366
 20
3.5842
  0
VERTEX
  8
LAYER1
 62
     7
  6
CONTINUOUS
 10
9.8197
 20
3.5336
  0
VERTEX
  8
LAYER1
 62
     7
  6
CONTINUOUS
 10
9.7902
 20
3.4619
  0
VERTEX
  8
LAYER1
 62
     7
  6
CONTINUOUS
 10
9.7649
 20
3.4282
  0
VERTEX
  8
LAYER1
 62
     7
  6
CONTINUOUS
 10
9.7270
 20
3.3819
  0
VERTEX
  8
LAYER1
 62
     7
  6
CONTINUOUS
 10
9.6933
 20
3.2891
  0
SEQEND
  8
LAYER1
  0
POLYLINE
  8
LAYER1
 62
     7
 66
     1
  6
HIDDEN
  0
VERTEX
  8
LAYER1
 62
     7
  6
HIDDEN
 10
7.8347
 20
4.3386
  0
VERTEX
  8
LAYER1
 62
     7
  6
HIDDEN
 10
7.7841
 20
4.3301
  0
VERTEX
  8
LAYER1
 62
     7
  6
HIDDEN
 10
7.7462
 20
4.3091
  0
VERTEX
  8
LAYER1
 62
     7
  6
HIDDEN
 10
7.7166
 20
4.2753
  0
VERTEX
  8
LAYER1
 62
     7
  6
HIDDEN
 10
7.6829
 20
4.2332
  0
VERTEX
  8
LAYER1
 62
     7
  6
HIDDEN
 10
7.6450
 20
4.1953
  0
VERTEX
  8
LAYER1
 62
     7
  6
HIDDEN
 10
7.6113
 20
4.1531
  0
VERTEX
  8
LAYER1
 62
     7
  6
HIDDEN
 10
7.5776
 20
4.1152
  0
VERTEX
  8
LAYER1
 62
     7
  6
HIDDEN
 10
7.5312
 20
4.0730
  0
VERTEX
  8
LAYER1
 62
     7
  6
HIDDEN
 10
7.4848
 20
4.0309
  0
VERTEX
  8
LAYER1
 62
     7
  6
HIDDEN
 10
7.4301
 20
3.9930
  0
VERTEX
  8
LAYER1
 62
     7
  6
HIDDEN
 10
7.3795
 20
3.9593
  0
SEQEND
  8
LAYER1
  0
POLYLINE
  8
LAYER1
 62
     7
 66
     1
  6
HIDDEN
  0
VERTEX
  8
LAYER1
 62
     7
  6
HIDDEN
 10
9.5753
 20
3.3144
  0
VERTEX
  8
LAYER1
 62
     7
  6
HIDDEN
 10
9.6132
 20
3.2807
  0
VERTEX
  8
LAYER1
 62
     7
  6
HIDDEN
 10
9.5753
 20
3.2554
  0
VERTEX
  8
LAYER1
 62
     7
  6
HIDDEN
 10
9.5373
 20
3.2217
  0
VERTEX
  8
LAYER1
 62
     7
  6
HIDDEN
 10
9.4868
 20
3.1880
  0
VERTEX
  8
LAYER1
 62
     7
  6
HIDDEN
 10
9.4362
 20
3.1585
  0
VERTEX
  8
LAYER1
 62
     7
  6
HIDDEN
 10
9.3772
 20
3.1416
  0
VERTEX
  8
LAYER1
 62
     7
  6
HIDDEN
 10
9.3266
 20
3.1416
  0
VERTEX
  8
LAYER1
 62
     7
  6
HIDDEN
 10
9.2718
 20
3.1332
  0
VERTEX
  8
LAYER1
 62
     7
  6
HIDDEN
 10
9.2002
 20
3.1037
  0
VERTEX
  8
LAYER1
 62
     7
  6
HIDDEN
 10
9.1285
 20
3.0573
  0
VERTEX
  8
LAYER1
 62
     7
  6
HIDDEN
 10
9.0569
 20
2.9983
  0
VERTEX
  8
LAYER1
 62
     7
  6
HIDDEN
 10
8.9768
 20
2.9520
  0
VERTEX
  8
LAYER1
 62
     7
  6
HIDDEN
 10
8.9136
 20
2.9225
  0
VERTEX
  8
LAYER1
 62
     7
  6
HIDDEN
 10
8.8546
 20
2.8972
  0
SEQEND
  8
LAYER1
  0
ENDSEC
  0
EOF
