  0
SECTION
  2
HEADER
  9
$ACADVER
  1
AC1004
  9
$EXTMIN
 10
4502.1863
 20
8342.2862
  9
$EXTMAX
 10
23437.8531
 20
47637.1065
  9
$LIMMIN
 10
4502.1863
 20
8342.2862
  9
$LIMMAX
 10
23437.8531
 20
47637.1065
  9
$INSBASE
 10
0.0
 20
0.0
  9
$VIEWCTR
 10
7.21903
 20
4.5
  9
$VIEWSIZE
 40
9.0
  9
$SNAPMODE
 70
     0
  9
$SNAPUNIT
 10
1.0
 20
1.0
  9
$SNAPBASE
 10
0.0
 20
0.0
  9
$SNAPANG
 50
0.0
  9
$SNAPSTYLE
 70
     0
  9
$SNAPISOPAIR
 70
     0
  9
$GRIDMODE
 70
     0
  9
$GRIDUNIT
 10
0.0
 20
0.0
  9
$ORTHOMODE
 70
     0
  9
$REGENMODE
 70
     1
  9
$FILLMODE
 70
     1
  9
$QTEXTMODE
 70
     0
  9
$DRAGMODE
 70
     2
  9
$LTSCALE
 40
1.0
  9
$OSMODE
 70
     0
  9
$ATTMODE
 70
     1
  9
$TEXTSIZE
 40
0.2
  9
$TRACEWID
 40
0.05
  9
$TEXTSTYLE
  7
STANDARD
  9
$CLAYER
  8
0
  9
$CELTYPE
  6
BYLAYER
  9
$CECOLOR
 62
   256
  9
$DIMSCALE
 40
1.0
  9
$DIMASZ
 40
0.18
  9
$DIMEXO
 40
0.0625
  9
$DIMDLI
 40
0.38
  9
$DIMRND
 40
0.0
  9
$DIMDLE
 40
0.0
  9
$DIMEXE
 40
0.18
  9
$DIMTP
 40
0.0
  9
$DIMTM
 40
0.0
  9
$DIMTXT
 40
0.18
  9
$DIMCEN
 40
0.09
  9
$DIMTSZ
 40
0.0
  9
$DIMTOL
 70
     0
  9
$DIMLIM
 70
     0
  9
$DIMTIH
 70
     1
  9
$DIMTOH
 70
     1
  9
$DIMSE1
 70
     0
  9
$DIMSE2
 70
     0
  9
$DIMTAD
 70
     0
  9
$DIMZIN
 70
     0
  9
$DIMBLK
  1

  9
$DIMASO
 70
     1
  9
$DIMSHO
 70
     0
  9
$DIMPOST
  1

  9
$DIMAPOST
  1

  9
$DIMALT
 70
     0
  9
$DIMALTD
 70
     2
  9
$DIMALTF
 40
25.4
  9
$DIMLFAC
 40
1.0
  9
$LUNITS
 70
     2
  9
$LUPREC
 70
     4
  9
$AXISMODE
 70
     0
  9
$AXISUNIT
 10
0.0
 20
0.0
  9
$SKETCHINC
 40
0.1
  9
$FILLETRAD
 40
0.0
  9
$AUNITS
 70
     0
  9
$AUPREC
 70
     0
  9
$MENU
  1
acad
  9
$ELEVATION
 40
0.0
  9
$THICKNESS
 40
0.0
  9
$VIEWDIR
 10
0.0
 20
0.0
 30
1.0
  9
$LIMCHECK
 70
     0
  9
$BLIPMODE
 70
     1
  9
$CHAMFERA
 40
0.0
  9
$CHAMFERB
 40
0.0
  9
$FASTZOOM
 70
     1
  9
$SKPOLY
 70
     0
  9
$TDCREATE
 40
2447222.5666886573
  9
$TDUPDATE
 40
2447222.5666886573
  9
$TDINDWG
 40
0.0000000000
  9
$TDUSRTIMER
 40
0.0000000000
  9
$USRTIMER
 70
     1
  9
$ANGBASE
 50
0.0
  9
$ANGDIR
 70
     0
  9
$PDMODE
 70
     0
  9
$PDSIZE
 40
0.0
  9
$PLINEWID
 40
0.0
  9
$COORDS
 70
     0
  9
$SPLFRAME
 70
     0
  9
$SPLINESEGS
 70
     8
  9
$ATTDIA
 70
     0
  9
$ATTREQ
 70
     1
  9
$USERI1
 70
     0
  9
$USERI2
 70
     0
  9
$USERI3
 70
     0
  9
$USERI4
 70
     0
  9
$USERI5
 70
     0
  9
$USERR1
 40
0.0
  9
$USERR2
 40
0.0
  9
$USERR3
 40
0.0
  9
$USERR4
 40
0.0
  9
$USERR5
 40
0.0
  0
ENDSEC
  0
SECTION
  2
TABLES
  0
TABLE
  2
LTYPE
 70
     13
  0
LTYPE
  2
CONTINUOUS
 70
    64
  3
Solid line
 72
    65
 73
     0
 40
0.0
  0
LTYPE
  2
DASHED
 70
    64
  3
__ __ __ __ __ __ __ __ __ __ __ __ __ __ __
 72
    65
 73
     2
 40
0.75
 49
0.5
 49
-0.25
  0
LTYPE
  2
HIDDEN
 70
    64
  3
_ _ _ _ _ _ _ _ _ _ _ _ _ _ _ _ _ _ _ _ _ _ _
 72
    65
 73
     2
 40
0.375
 49
0.25
 49
-0.125
  0
LTYPE
  2
CENTER
 70
    64
  3
____ _ ____ _ ____ _ ____ _ ____ _ ____ _ ____
 72
    65
 73
     4
 40
2.0
 49
1.25
 49
-0.25
 49
0.25
 49
-0.25
  0
LTYPE
  2
PHANTOM
 70
    64
  3
_____ _ _ _____ _ _ _____ _ _ _____ _ _ ____
 72
    65
 73
     6
 40
2.5
 49
1.25
 49
-0.25
 49
0.25
 49
-0.25
 49
0.25
 49
-0.25
  0
LTYPE
  2
DOT
 70
    64
  3
...............................................
 72
    65
 73
     2
 40
0.25
 49
0.0
 49
-0.25
  0
LTYPE
  2
DASHDOT
 70
    64
  3
__ . __ . __ . __ . __ . __ . __ . __ . __ . __
 72
    65
 73
     4
 40
1.0
 49
0.5
 49
-0.25
 49
0.0
 49
-0.25
  0
LTYPE
  2
BORDER
 70
    64
  3
__ __ . __ __ . __ __ . __ __ . __ __ . __ __
 72
    65
 73
     6
 40
1.75
 49
0.5
 49
-0.25
 49
0.5
 49
-0.25
 49
0.0
 49
-0.25
  0
LTYPE
  2
DIVIDE
 70
    64
  3
__ . . __ . . __ . . __ . . __ . . __ . . __
 72
    65
 73
     6
 40
1.25
 49
0.5
 49
-0.25
 49
0.0
 49
-0.25
 49
0.0
 49
-0.25
  0
LTYPE
  2
DCTYPE1
 70
    64
  3
__ . . __ . . __ . . __ . . __ . . __ . . __
 72
    65
 73
     8
 40
2.5
 49
0.5
 49
-0.25
 49
0.125
 49
-0.25
 49
0.25
 49
-0.25
 49
0.125
 49
-0.25
  0
LTYPE
  2
DCTYPE2
 70
    64
  3
__ . . __ . . __ . . __ . . __ . . __ . . __
 72
    65
 73
     6
 40
2.05
 49
1.0
 49
-0.3
 49
0.15
 49
-0.15
 49
0.15
 49
-0.3
  0
LTYPE
  2
DCTYPE3
 70
    64
  3
__ . . __ . . __ . . __ . . __ . . __ . . __
 72
    65
 73
     6
 40
2.5
 49
0.8
 49
-0.2
 49
0.8
 49
-0.2
 49
0.3
 49
-0.2
  0
LTYPE
  2
DCTYPE4
 70
    64
  3
__ . . __ . . __ . . __ . . __ . . __ . . __
 72
    65
 73
     10
 40
3.97
 49
1.75
 49
-0.3
 49
0.3
 49
-0.3
 49
0.06
 49
-0.3
 49
0.06
 49
-0.3
 49
0.3
 49
-0.3
  0
ENDTAB
  0
TABLE
  2
LAYER
 70
    153
  0
LAYER
  2
LAYER8
 70
 64
 62
     7
  6
CONTINUOUS
  0
LAYER
  2
LAYER24
 70
 64
 62
     8
  6
CONTINUOUS
  0
LAYER
  2
LAYER25
 70
 64
 62
     2
  6
CONTINUOUS
  0
LAYER
  2
LAYER33
 70
 64
 62
     3
  6
CONTINUOUS
  0
LAYER
  2
LAYER49
 70
 64
 62
     1
  6
CONTINUOUS
  0
ENDTAB
  0
ENDSEC
  0
SECTION
  2
BLOCKS
  0
ENDSEC
  0
SECTION
  2
ENTITIES
  0
POLYLINE
  8
LAYER8
 62
     7
 66
     1
  6
CONTINUOUS
  0
VERTEX
  8
LAYER8
 62
     7
  6
CONTINUOUS
 10
14676.2510
 20
31934.6209
  0
VERTEX
  8
LAYER8
 62
     7
  6
CONTINUOUS
 10
14775.5642
 20
31989.8065
  0
VERTEX
  8
LAYER8
 62
     7
  6
CONTINUOUS
 10
15007.2934
 20
32100.1444
  0
VERTEX
  8
LAYER8
 62
     7
  6
CONTINUOUS
 10
15150.7353
 20
32166.3524
  0
VERTEX
  8
LAYER8
 62
     7
  6
CONTINUOUS
 10
15404.5461
 20
32243.6018
  0
VERTEX
  8
LAYER8
 62
     7
  6
CONTINUOUS
 10
15702.4844
 20
32309.8098
  0
VERTEX
  8
LAYER8
 62
     7
  6
CONTINUOUS
 10
15912.1343
 20
32320.8488
  0
VERTEX
  8
LAYER8
 62
     7
  6
CONTINUOUS
 10
16033.5280
 20
32287.7460
  0
VERTEX
  8
LAYER8
 62
     7
  6
CONTINUOUS
 10
16088.6957
 20
32221.5357
  0
VERTEX
  8
LAYER8
 62
     7
  6
CONTINUOUS
 10
16165.9451
 20
32100.1444
  0
VERTEX
  8
LAYER8
 62
     7
  6
CONTINUOUS
 10
16232.1531
 20
32000.8312
  0
VERTEX
  8
LAYER8
 62
     7
  6
CONTINUOUS
 10
16331.4663
 20
31890.4933
  0
VERTEX
  8
LAYER8
 62
     7
  6
CONTINUOUS
 10
16474.9082
 20
31780.1411
  0
VERTEX
  8
LAYER8
 62
     7
  6
CONTINUOUS
 10
16750.7828
 20
31647.7227
  0
VERTEX
  8
LAYER8
 62
     7
  6
CONTINUOUS
 10
17015.6171
 20
31592.5538
  0
VERTEX
  8
LAYER8
 62
     7
  6
CONTINUOUS
 10
17445.9727
 20
31625.6590
  0
VERTEX
  8
LAYER8
 62
     7
  6
CONTINUOUS
 10
17777.0162
 20
31735.9969
  0
VERTEX
  8
LAYER8
 62
     7
  6
CONTINUOUS
 10
18185.3079
 20
31923.5985
  0
VERTEX
  8
LAYER8
 62
     7
  6
CONTINUOUS
 10
18615.6635
 20
32111.1835
  0
VERTEX
  8
LAYER8
 62
     7
  6
CONTINUOUS
 10
18946.7070
 20
32320.8488
  0
VERTEX
  8
LAYER8
 62
     7
  6
CONTINUOUS
 10
19189.4609
 20
32552.5804
  0
VERTEX
  8
LAYER8
 62
     7
  6
CONTINUOUS
 10
19663.9630
 20
32993.9607
  0
VERTEX
  8
LAYER8
 62
     7
  6
CONTINUOUS
 10
19763.2762
 20
33071.2077
  0
VERTEX
  8
LAYER8
 62
     7
  6
CONTINUOUS
 10
19928.7974
 20
33214.6651
  0
VERTEX
  8
LAYER8
 62
     7
  6
CONTINUOUS
 10
20050.1755
 20
33369.1496
  0
VERTEX
  8
LAYER8
 62
     7
  6
CONTINUOUS
 10
20105.3588
 20
33512.6070
  0
VERTEX
  8
LAYER8
 62
     7
  6
CONTINUOUS
 10
20105.3588
 20
33645.0254
  0
VERTEX
  8
LAYER8
 62
     7
  6
CONTINUOUS
 10
20182.5915
 20
33810.5465
  0
VERTEX
  8
LAYER8
 62
     7
  6
CONTINUOUS
 10
20337.0879
 20
33953.9873
  0
VERTEX
  8
LAYER8
 62
     7
  6
CONTINUOUS
 10
20502.6115
 20
34108.4837
  0
VERTEX
  8
LAYER8
 62
     7
  6
CONTINUOUS
 10
20712.2602
 20
34329.1738
  0
VERTEX
  8
LAYER8
 62
     7
  6
CONTINUOUS
 10
20943.9918
 20
34571.9444
  0
VERTEX
  8
LAYER8
 62
     7
  6
CONTINUOUS
 10
21109.5129
 20
34770.5708
  0
VERTEX
  8
LAYER8
 62
     7
  6
CONTINUOUS
 10
21241.9289
 20
35002.2999
  0
VERTEX
  8
LAYER8
 62
     7
  6
CONTINUOUS
 10
21363.3225
 20
35256.0952
  0
VERTEX
  8
LAYER8
 62
     7
  6
CONTINUOUS
 10
21473.6605
 20
35520.9296
  0
VERTEX
  8
LAYER8
 62
     7
  6
CONTINUOUS
 10
21561.9489
 20
35642.3065
  0
VERTEX
  8
LAYER8
 62
     7
  6
CONTINUOUS
 10
21661.2621
 20
35697.4922
  0
VERTEX
  8
LAYER8
 62
     7
  6
CONTINUOUS
 10
21749.5338
 20
35774.7249
  0
VERTEX
  8
LAYER8
 62
     7
  6
CONTINUOUS
 10
21771.5976
 20
35896.1162
  0
VERTEX
  8
LAYER8
 62
     7
  6
CONTINUOUS
 10
21760.5753
 20
36028.5345
  0
VERTEX
  8
LAYER8
 62
     7
  6
CONTINUOUS
 10
21727.4701
 20
36194.0557
  0
VERTEX
  8
LAYER8
 62
     7
  6
CONTINUOUS
 10
21727.4701
 20
36458.8900
  0
VERTEX
  8
LAYER8
 62
     7
  6
CONTINUOUS
 10
21727.4701
 20
36789.9348
  0
VERTEX
  8
LAYER8
 62
     7
  6
CONTINUOUS
 10
21727.4701
 20
37043.7277
  0
VERTEX
  8
LAYER8
 62
     7
  6
CONTINUOUS
 10
21716.4310
 20
37264.4178
  0
VERTEX
  8
LAYER8
 62
     7
  6
CONTINUOUS
 10
21771.5976
 20
37827.1917
  0
VERTEX
  8
LAYER8
 62
     7
  6
CONTINUOUS
 10
21848.8470
 20
38147.2093
  0
VERTEX
  8
LAYER8
 62
     7
  6
CONTINUOUS
 10
21948.1602
 20
38401.0046
  0
VERTEX
  8
LAYER8
 62
     7
  6
CONTINUOUS
 10
22047.4734
 20
38588.5920
  0
VERTEX
  8
LAYER8
 62
     7
  6
CONTINUOUS
 10
22157.8256
 20
38809.2964
  0
VERTEX
  8
LAYER8
 62
     7
  6
CONTINUOUS
 10
22301.2687
 20
39063.0917
  0
VERTEX
  8
LAYER8
 62
     7
  6
CONTINUOUS
 10
22411.6209
 20
39316.8846
  0
VERTEX
  8
LAYER8
 62
     7
  6
CONTINUOUS
 10
22477.8289
 20
39548.6162
  0
VERTEX
  8
LAYER8
 62
     7
  6
CONTINUOUS
 10
22555.0783
 20
39857.5948
  0
VERTEX
  8
LAYER8
 62
     7
  6
CONTINUOUS
 10
22588.1811
 20
40188.6395
  0
VERTEX
  8
LAYER8
 62
     7
  6
CONTINUOUS
 10
22599.2058
 20
40508.6404
  0
VERTEX
  8
LAYER8
 62
     7
  6
CONTINUOUS
 10
22577.1421
 20
40839.6828
  0
VERTEX
  8
LAYER8
 62
     7
  6
CONTINUOUS
 10
22521.9731
 20
41093.4924
  0
VERTEX
  8
LAYER8
 62
     7
  6
CONTINUOUS
 10
22400.5795
 20
41435.5618
  0
VERTEX
  8
LAYER8
 62
     7
  6
CONTINUOUS
 10
22290.2440
 20
41755.5818
  0
VERTEX
  8
LAYER8
 62
     7
  6
CONTINUOUS
 10
22246.0997
 20
41865.9197
  0
VERTEX
  8
LAYER8
 62
     7
  6
CONTINUOUS
 10
22069.5371
 20
42395.5884
  0
VERTEX
  8
LAYER8
 62
     7
  6
CONTINUOUS
 10
22135.7451
 20
42693.5256
  0
VERTEX
  8
LAYER8
 62
     7
  6
CONTINUOUS
 10
22212.9945
 20
43035.6093
  0
VERTEX
  8
LAYER8
 62
     7
  6
CONTINUOUS
 10
22356.4519
 20
43465.9625
  0
VERTEX
  8
LAYER8
 62
     7
  6
CONTINUOUS
 10
22499.8927
 20
43730.7992
  0
VERTEX
  8
LAYER8
 62
     7
  6
CONTINUOUS
 10
22654.3915
 20
43962.5308
  0
VERTEX
  8
LAYER8
 62
     7
  6
CONTINUOUS
 10
22897.1454
 20
44161.1571
  0
VERTEX
  8
LAYER8
 62
     7
  6
CONTINUOUS
 10
22996.4586
 20
44536.3413
  0
VERTEX
  8
LAYER8
 62
     7
  6
CONTINUOUS
 10
22963.3534
 20
44690.8258
  0
VERTEX
  8
LAYER8
 62
     7
  6
CONTINUOUS
 10
22941.2896
 20
44823.2418
  0
VERTEX
  8
LAYER8
 62
     7
  6
CONTINUOUS
 10
22588.1811
 20
45032.9048
  0
VERTEX
  8
LAYER8
 62
     7
  6
CONTINUOUS
 10
22290.2440
 20
45143.2427
  0
VERTEX
  8
LAYER8
 62
     7
  6
CONTINUOUS
 10
22102.6423
 20
45264.6364
  0
VERTEX
  8
LAYER8
 62
     7
  6
CONTINUOUS
 10
21892.9912
 20
45386.0157
  0
VERTEX
  8
LAYER8
 62
     7
  6
CONTINUOUS
 10
21606.0764
 20
45441.1847
  0
VERTEX
  8
LAYER8
 62
     7
  6
CONTINUOUS
 10
21374.3473
 20
45386.0157
  0
VERTEX
  8
LAYER8
 62
     7
  6
CONTINUOUS
 10
21219.8651
 20
45319.8053
  0
VERTEX
  8
LAYER8
 62
     7
  6
CONTINUOUS
 10
21087.4492
 20
45231.5312
  0
VERTEX
  8
LAYER8
 62
     7
  6
CONTINUOUS
 10
20955.0308
 20
45132.2204
  0
VERTEX
  8
LAYER8
 62
     7
  6
CONTINUOUS
 10
20855.7176
 20
45054.9734
  0
VERTEX
  8
LAYER8
 62
     7
  6
CONTINUOUS
 10
20767.4458
 20
44955.6578
  0
VERTEX
  8
LAYER8
 62
     7
  6
CONTINUOUS
 10
20623.9884
 20
44779.0952
  0
VERTEX
  8
LAYER8
 62
     7
  6
CONTINUOUS
 10
20480.5310
 20
44613.5740
  0
VERTEX
  8
LAYER8
 62
     7
  6
CONTINUOUS
 10
20259.8409
 20
44580.4688
  0
VERTEX
  8
LAYER8
 62
     7
  6
CONTINUOUS
 10
20061.2146
 20
44591.5103
  0
VERTEX
  8
LAYER8
 62
     7
  6
CONTINUOUS
 10
19763.2762
 20
44635.6569
  0
VERTEX
  8
LAYER8
 62
     7
  6
CONTINUOUS
 10
19509.4809
 20
44657.7206
  0
VERTEX
  8
LAYER8
 62
     7
  6
CONTINUOUS
 10
19343.9585
 20
44668.7573
  0
VERTEX
  8
LAYER8
 62
     7
  6
CONTINUOUS
 10
19200.5011
 20
44723.9262
  0
VERTEX
  8
LAYER8
 62
     7
  6
CONTINUOUS
 10
19101.1880
 20
44845.3056
  0
VERTEX
  8
LAYER8
 62
     7
  6
CONTINUOUS
 10
18979.8110
 20
45088.0738
  0
VERTEX
  8
LAYER8
 62
     7
  6
CONTINUOUS
 10
18803.2496
 20
45352.9105
  0
VERTEX
  8
LAYER8
 62
     7
  6
CONTINUOUS
 10
18726.0014
 20
45507.4093
  0
VERTEX
  8
LAYER8
 62
     7
  6
CONTINUOUS
 10
18615.6635
 20
45672.9114
  0
VERTEX
  8
LAYER8
 62
     7
  6
CONTINUOUS
 10
18361.8539
 20
45915.6844
  0
VERTEX
  8
LAYER8
 62
     7
  6
CONTINUOUS
 10
18019.7856
 20
46169.4797
  0
VERTEX
  8
LAYER8
 62
     7
  6
CONTINUOUS
 10
17710.8070
 20
46301.8957
  0
VERTEX
  8
LAYER8
 62
     7
  6
CONTINUOUS
 10
17490.1169
 20
46301.8957
  0
VERTEX
  8
LAYER8
 62
     7
  6
CONTINUOUS
 10
17037.6809
 20
46224.6630
  0
VERTEX
  8
LAYER8
 62
     7
  6
CONTINUOUS
 10
16861.1350
 20
46169.4797
  0
VERTEX
  8
LAYER8
 62
     7
  6
CONTINUOUS
 10
16684.5736
 20
46103.2693
  0
VERTEX
  8
LAYER8
 62
     7
  6
CONTINUOUS
 10
16419.7393
 20
46037.0590
  0
VERTEX
  8
LAYER8
 62
     7
  6
CONTINUOUS
 10
16121.8009
 20
46037.0590
  0
VERTEX
  8
LAYER8
 62
     7
  6
CONTINUOUS
 10
15834.9016
 20
46125.3474
  0
VERTEX
  8
LAYER8
 62
     7
  6
CONTINUOUS
 10
15481.7788
 20
46246.7267
  0
VERTEX
  8
LAYER8
 62
     7
  6
CONTINUOUS
 10
15261.0887
 20
46335.0009
  0
VERTEX
  8
LAYER8
 62
     7
  6
CONTINUOUS
 10
15062.4623
 20
46390.1841
  0
VERTEX
  8
LAYER8
 62
     7
  6
CONTINUOUS
 10
14819.6917
 20
46379.1427
  0
VERTEX
  8
LAYER8
 62
     7
  6
CONTINUOUS
 10
14632.1068
 20
46290.8686
  0
VERTEX
  8
LAYER8
 62
     7
  6
CONTINUOUS
 10
14334.1673
 20
46081.2056
  0
VERTEX
  8
LAYER8
 62
     7
  6
CONTINUOUS
 10
14135.5421
 20
45937.7482
  0
VERTEX
  8
LAYER8
 62
     7
  6
CONTINUOUS
 10
13870.7077
 20
45849.4740
  0
VERTEX
  8
LAYER8
 62
     7
  6
CONTINUOUS
 10
13694.1463
 20
45805.3322
  0
VERTEX
  8
LAYER8
 62
     7
  6
CONTINUOUS
 10
13142.4127
 20
45794.3051
  0
VERTEX
  8
LAYER8
 62
     7
  6
CONTINUOUS
 10
12767.2249
 20
45794.3051
  0
VERTEX
  8
LAYER8
 62
     7
  6
CONTINUOUS
 10
12469.2866
 20
45728.0995
  0
VERTEX
  8
LAYER8
 62
     7
  6
CONTINUOUS
 10
12072.0351
 20
45628.7839
  0
VERTEX
  8
LAYER8
 62
     7
  6
CONTINUOUS
 10
11818.2397
 20
45540.5097
  0
VERTEX
  8
LAYER8
 62
     7
  6
CONTINUOUS
 10
11465.1324
 20
45419.1209
  0
VERTEX
  8
LAYER8
 62
     7
  6
CONTINUOUS
 10
11178.2176
 20
45275.6635
  0
VERTEX
  8
LAYER8
 62
     7
  6
CONTINUOUS
 10
10913.3833
 20
45121.1790
  0
VERTEX
  8
LAYER8
 62
     7
  6
CONTINUOUS
 10
10549.2358
 20
44889.4474
  0
VERTEX
  8
LAYER8
 62
     7
  6
CONTINUOUS
 10
10295.4416
 20
44668.7573
  0
VERTEX
  8
LAYER8
 62
     7
  6
CONTINUOUS
 10
10030.6073
 20
44425.9891
  0
VERTEX
  8
LAYER8
 62
     7
  6
CONTINUOUS
 10
9820.9407
 20
44249.4265
  0
VERTEX
  8
LAYER8
 62
     7
  6
CONTINUOUS
 10
9666.4592
 20
44006.6726
  0
VERTEX
  8
LAYER8
 62
     7
  6
CONTINUOUS
 10
9622.3149
 20
43885.2790
  0
VERTEX
  8
LAYER8
 62
     7
  6
CONTINUOUS
 10
9578.1862
 20
43719.7769
  0
VERTEX
  8
LAYER8
 62
     7
  6
CONTINUOUS
 10
9500.9380
 20
43521.1314
  0
VERTEX
  8
LAYER8
 62
     7
  6
CONTINUOUS
 10
9423.6892
 20
43333.5465
  0
VERTEX
  8
LAYER8
 62
     7
  6
CONTINUOUS
 10
9291.2720
 20
43013.5265
  0
VERTEX
  8
LAYER8
 62
     7
  6
CONTINUOUS
 10
9081.6215
 20
42561.1096
  0
VERTEX
  8
LAYER8
 62
     7
  6
CONTINUOUS
 10
9026.4376
 20
42417.6665
  0
VERTEX
  8
LAYER8
 62
     7
  6
CONTINUOUS
 10
8949.2043
 20
42130.7517
  0
VERTEX
  8
LAYER8
 62
     7
  6
CONTINUOUS
 10
8860.9159
 20
41821.7874
  0
VERTEX
  8
LAYER8
 62
     7
  6
CONTINUOUS
 10
8750.5786
 20
41501.7722
  0
VERTEX
  8
LAYER8
 62
     7
  6
CONTINUOUS
 10
8673.3297
 20
41292.1187
  0
VERTEX
  8
LAYER8
 62
     7
  6
CONTINUOUS
 10
8574.0172
 20
40994.1816
  0
VERTEX
  8
LAYER8
 62
     7
  6
CONTINUOUS
 10
8441.6000
 20
40596.9289
  0
VERTEX
  8
LAYER8
 62
     7
  6
CONTINUOUS
 10
8342.2868
 20
40398.3025
  0
VERTEX
  8
LAYER8
 62
     7
  6
CONTINUOUS
 10
8110.5564
 20
40012.0769
  0
VERTEX
  8
LAYER8
 62
     7
  6
CONTINUOUS
 10
8066.4122
 20
39758.2816
  0
VERTEX
  8
LAYER8
 62
     7
  6
CONTINUOUS
 10
8077.4525
 20
39548.6162
  0
VERTEX
  8
LAYER8
 62
     7
  6
CONTINUOUS
 10
8165.7254
 20
39140.3387
  0
VERTEX
  8
LAYER8
 62
     7
  6
CONTINUOUS
 10
8176.7650
 20
38974.8176
  0
VERTEX
  8
LAYER8
 62
     7
  6
CONTINUOUS
 10
8132.6208
 20
38621.6948
  0
VERTEX
  8
LAYER8
 62
     7
  6
CONTINUOUS
 10
8055.3881
 20
38191.3392
  0
VERTEX
  8
LAYER8
 62
     7
  6
CONTINUOUS
 10
7978.1393
 20
37738.9176
  0
VERTEX
  8
LAYER8
 62
     7
  6
CONTINUOUS
 10
8033.3082
 20
37330.6282
  0
VERTEX
  8
LAYER8
 62
     7
  6
CONTINUOUS
 10
8143.6610
 20
37076.8329
  0
VERTEX
  8
LAYER8
 62
     7
  6
CONTINUOUS
 10
8320.2224
 20
36690.6216
  0
VERTEX
  8
LAYER8
 62
     7
  6
CONTINUOUS
 10
8397.4558
 20
36436.8096
  0
VERTEX
  8
LAYER8
 62
     7
  6
CONTINUOUS
 10
8419.5356
 20
36194.0557
  0
VERTEX
  8
LAYER8
 62
     7
  6
CONTINUOUS
 10
8364.3512
 20
35807.8253
  0
VERTEX
  8
LAYER8
 62
     7
  6
CONTINUOUS
 10
8331.2466
 20
35531.9710
  0
VERTEX
  8
LAYER8
 62
     7
  6
CONTINUOUS
 10
8342.2868
 20
35156.7821
  0
VERTEX
  8
LAYER8
 62
     7
  6
CONTINUOUS
 10
8397.4558
 20
34836.7788
  0
VERTEX
  8
LAYER8
 62
     7
  6
CONTINUOUS
 10
8540.9126
 20
34461.5922
  0
VERTEX
  8
LAYER8
 62
     7
  6
CONTINUOUS
 10
8750.5786
 20
34218.8216
  0
VERTEX
  8
LAYER8
 62
     7
  6
CONTINUOUS
 10
9015.4129
 20
33942.9625
  0
VERTEX
  8
LAYER8
 62
     7
  6
CONTINUOUS
 10
9390.5846
 20
33600.8788
  0
VERTEX
  8
LAYER8
 62
     7
  6
CONTINUOUS
 10
9511.9776
 20
33479.5018
  0
VERTEX
  8
LAYER8
 62
     7
  6
CONTINUOUS
 10
9798.8763
 20
33269.8340
  0
VERTEX
  8
LAYER8
 62
     7
  6
CONTINUOUS
 10
10052.6710
 20
33082.2491
  0
VERTEX
  8
LAYER8
 62
     7
  6
CONTINUOUS
 10
10284.4014
 20
32938.7917
  0
VERTEX
  8
LAYER8
 62
     7
  6
CONTINUOUS
 10
10505.1070
 20
32773.2705
  0
VERTEX
  8
LAYER8
 62
     7
  6
CONTINUOUS
 10
10604.4202
 20
32684.9964
  0
VERTEX
  8
LAYER8
 62
     7
  6
CONTINUOUS
 10
10736.8374
 20
32552.5804
  0
VERTEX
  8
LAYER8
 62
     7
  6
CONTINUOUS
 10
10946.4885
 20
32364.9788
  0
VERTEX
  8
LAYER8
 62
     7
  6
CONTINUOUS
 10
11233.4021
 20
32243.6018
  0
VERTEX
  8
LAYER8
 62
     7
  6
CONTINUOUS
 10
11542.3652
 20
32199.4576
  0
VERTEX
  8
LAYER8
 62
     7
  6
CONTINUOUS
 10
11807.1995
 20
32177.3914
  0
VERTEX
  8
LAYER8
 62
     7
  6
CONTINUOUS
 10
12038.9299
 20
32166.3524
  0
VERTEX
  8
LAYER8
 62
     7
  6
CONTINUOUS
 10
12414.1176
 20
32133.2472
  0
VERTEX
  8
LAYER8
 62
     7
  6
CONTINUOUS
 10
12667.9117
 20
32100.1444
  0
VERTEX
  8
LAYER8
 62
     7
  6
CONTINUOUS
 10
13009.9955
 20
32056.0145
  0
VERTEX
  8
LAYER8
 62
     7
  6
CONTINUOUS
 10
13263.7896
 20
32011.8703
  0
VERTEX
  8
LAYER8
 62
     7
  6
CONTINUOUS
 10
13594.8332
 20
31989.8065
  0
VERTEX
  8
LAYER8
 62
     7
  6
CONTINUOUS
 10
13749.3296
 20
31989.8065
  0
VERTEX
  8
LAYER8
 62
     7
  6
CONTINUOUS
 10
14025.1887
 20
31989.8065
  0
VERTEX
  8
LAYER8
 62
     7
  6
CONTINUOUS
 10
14201.7501
 20
31989.8065
  0
VERTEX
  8
LAYER8
 62
     7
  6
CONTINUOUS
 10
14676.2510
 20
31934.6209
  0
SEQEND
  8
LAYER8
  0
POLYLINE
  8
LAYER8
 62
     7
 66
     1
  6
HIDDEN
  0
VERTEX
  8
LAYER8
 62
     7
  6
HIDDEN
 10
14676.2510
 20
31934.6209
  0
VERTEX
  8
LAYER8
 62
     7
  6
HIDDEN
 10
14632.1068
 20
31956.7013
  0
VERTEX
  8
LAYER8
 62
     7
  6
HIDDEN
 10
14753.4837
 20
31945.6623
  0
VERTEX
  8
LAYER8
 62
     7
  6
HIDDEN
 10
14985.2141
 20
31923.5985
  0
VERTEX
  8
LAYER8
 62
     7
  6
HIDDEN
 10
15216.9445
 20
31923.5985
  0
VERTEX
  8
LAYER8
 62
     7
  6
HIDDEN
 10
15536.9633
 20
31945.6623
  0
VERTEX
  8
LAYER8
 62
     7
  6
HIDDEN
 10
15801.7976
 20
31978.7675
  0
VERTEX
  8
LAYER8
 62
     7
  6
HIDDEN
 10
16033.5280
 20
32044.9755
  0
VERTEX
  8
LAYER8
 62
     7
  6
HIDDEN
 10
16287.3221
 20
32188.4329
  0
VERTEX
  8
LAYER8
 62
     7
  6
HIDDEN
 10
16530.0927
 20
32309.8098
  0
VERTEX
  8
LAYER8
 62
     7
  6
HIDDEN
 10
16805.9506
 20
32431.1868
  0
VERTEX
  8
LAYER8
 62
     7
  6
HIDDEN
 10
17148.0343
 20
32574.6442
  0
VERTEX
  8
LAYER8
 62
     7
  6
HIDDEN
 10
17324.5957
 20
32629.8131
  0
VERTEX
  8
LAYER8
 62
     7
  6
HIDDEN
 10
17556.3261
 20
32684.9964
  0
VERTEX
  8
LAYER8
 62
     7
  6
HIDDEN
 10
17799.0800
 20
32740.1653
  0
VERTEX
  8
LAYER8
 62
     7
  6
HIDDEN
 10
18130.1235
 20
32839.4785
  0
VERTEX
  8
LAYER8
 62
     7
  6
HIDDEN
 10
18372.8941
 20
32927.7503
  0
VERTEX
  8
LAYER8
 62
     7
  6
HIDDEN
 10
18604.6232
 20
33004.9997
  0
VERTEX
  8
LAYER8
 62
     7
  6
HIDDEN
 10
18880.4978
 20
33093.2738
  0
VERTEX
  8
LAYER8
 62
     7
  6
HIDDEN
 10
19012.9150
 20
33170.5209
  0
VERTEX
  8
LAYER8
 62
     7
  6
HIDDEN
 10
19222.5661
 20
33347.0858
  0
VERTEX
  8
LAYER8
 62
     7
  6
HIDDEN
 10
19354.9833
 20
33479.5018
  0
VERTEX
  8
LAYER8
 62
     7
  6
HIDDEN
 10
19619.8188
 20
33711.2334
  0
VERTEX
  8
LAYER8
 62
     7
  6
HIDDEN
 10
19818.4440
 20
33898.8183
  0
VERTEX
  8
LAYER8
 62
     7
  6
HIDDEN
 10
19961.9014
 20
34075.3809
  0
VERTEX
  8
LAYER8
 62
     7
  6
HIDDEN
 10
20116.3835
 20
34373.3180
  0
VERTEX
  8
LAYER8
 62
     7
  6
HIDDEN
 10
20171.5668
 20
34461.5922
  0
VERTEX
  8
LAYER8
 62
     7
  6
HIDDEN
 10
20270.8799
 20
34704.3628
  0
VERTEX
  8
LAYER8
 62
     7
  6
HIDDEN
 10
20480.5310
 20
35222.9901
  0
VERTEX
  8
LAYER8
 62
     7
  6
HIDDEN
 10
20590.8833
 20
35554.0348
  0
VERTEX
  8
LAYER8
 62
     7
  6
HIDDEN
 10
20646.0522
 20
35807.8277
  0
VERTEX
  8
LAYER8
 62
     7
  6
HIDDEN
 10
20701.2355
 20
36227.1609
  0
VERTEX
  8
LAYER8
 62
     7
  6
HIDDEN
 10
20723.3016
 20
36657.5164
  0
VERTEX
  8
LAYER8
 62
     7
  6
HIDDEN
 10
20756.4044
 20
36988.5587
  0
VERTEX
  8
LAYER8
 62
     7
  6
HIDDEN
 10
20977.0946
 20
37308.5621
  0
VERTEX
  8
LAYER8
 62
     7
  6
HIDDEN
 10
21186.7599
 20
37551.3326
  0
VERTEX
  8
LAYER8
 62
     7
  6
HIDDEN
 10
21319.1783
 20
37705.8148
  0
VERTEX
  8
LAYER8
 62
     7
  6
HIDDEN
 10
21539.8684
 20
38047.8985
  0
VERTEX
  8
LAYER8
 62
     7
  6
HIDDEN
 10
21771.5976
 20
38555.4868
  0
VERTEX
  8
LAYER8
 62
     7
  6
HIDDEN
 10
21926.0964
 20
38974.8176
  0
VERTEX
  8
LAYER8
 62
     7
  6
HIDDEN
 10
22003.3292
 20
39206.5491
  0
VERTEX
  8
LAYER8
 62
     7
  6
HIDDEN
 10
22091.6176
 20
39614.8242
  0
VERTEX
  8
LAYER8
 62
     7
  6
HIDDEN
 10
22113.6814
 20
39714.1374
  0
VERTEX
  8
LAYER8
 62
     7
  6
HIDDEN
 10
22146.7866
 20
40056.2187
  0
VERTEX
  8
LAYER8
 62
     7
  6
HIDDEN
 10
22113.6814
 20
40497.6181
  0
VERTEX
  8
LAYER8
 62
     7
  6
HIDDEN
 10
22091.6176
 20
41049.3505
  0
VERTEX
  8
LAYER8
 62
     7
  6
HIDDEN
 10
22080.5786
 20
41214.8717
  0
VERTEX
  8
LAYER8
 62
     7
  6
HIDDEN
 10
22047.4734
 20
41556.9412
  0
VERTEX
  8
LAYER8
 62
     7
  6
HIDDEN
 10
21970.2240
 20
41910.0616
  0
VERTEX
  8
LAYER8
 62
     7
  6
HIDDEN
 10
21870.9108
 20
42318.3557
  0
VERTEX
  8
LAYER8
 62
     7
  6
HIDDEN
 10
21804.7028
 20
42638.3566
  0
VERTEX
  8
LAYER8
 62
     7
  6
HIDDEN
 10
21760.5753
 20
43057.6731
  0
VERTEX
  8
LAYER8
 62
     7
  6
HIDDEN
 10
21661.2621
 20
43510.1091
  0
VERTEX
  8
LAYER8
 62
     7
  6
HIDDEN
 10
21374.3473
 20
44017.6997
  0
VERTEX
  8
LAYER8
 62
     7
  6
HIDDEN
 10
21010.1997
 20
44569.4465
  0
VERTEX
  8
LAYER8
 62
     7
  6
HIDDEN
 10
20745.3654
 20
44933.5940
  0
VERTEX
  8
LAYER8
 62
     7
  6
HIDDEN
 10
20425.3621
 20
45264.6364
  0
VERTEX
  8
LAYER8
 62
     7
  6
HIDDEN
 10
20105.3588
 20
45518.4317
  0
VERTEX
  8
LAYER8
 62
     7
  6
HIDDEN
 10
19675.0033
 20
45805.3322
  0
VERTEX
  8
LAYER8
 62
     7
  6
HIDDEN
 10
19310.8545
 20
46070.1784
  0
VERTEX
  8
LAYER8
 62
     7
  6
HIDDEN
 10
18869.4576
 20
46335.0009
  0
VERTEX
  8
LAYER8
 62
     7
  6
HIDDEN
 10
18461.1670
 20
46533.6272
  0
VERTEX
  8
LAYER8
 62
     7
  6
HIDDEN
 10
18074.9545
 20
46677.0846
  0
VERTEX
  8
LAYER8
 62
     7
  6
HIDDEN
 10
17710.8070
 20
46776.3954
  0
VERTEX
  8
LAYER8
 62
     7
  6
HIDDEN
 10
17125.9694
 20
46897.7748
  0
VERTEX
  8
LAYER8
 62
     7
  6
HIDDEN
 10
16783.8868
 20
46941.9166
  0
VERTEX
  8
LAYER8
 62
     7
  6
HIDDEN
 10
16199.0491
 20
46952.9580
  0
VERTEX
  8
LAYER8
 62
     7
  6
HIDDEN
 10
15702.4844
 20
46941.9166
  0
VERTEX
  8
LAYER8
 62
     7
  6
HIDDEN
 10
15294.1927
 20
46864.6696
  0
VERTEX
  8
LAYER8
 62
     7
  6
HIDDEN
 10
14941.0854
 20
46809.5006
  0
VERTEX
  8
LAYER8
 62
     7
  6
HIDDEN
 10
14179.6863
 20
46787.4178
  0
VERTEX
  8
LAYER8
 62
     7
  6
HIDDEN
 10
13749.3296
 20
46765.3540
  0
VERTEX
  8
LAYER8
 62
     7
  6
HIDDEN
 10
13318.9741
 20
46599.8329
  0
VERTEX
  8
LAYER8
 62
     7
  6
HIDDEN
 10
12877.5783
 20
46390.1841
  0
VERTEX
  8
LAYER8
 62
     7
  6
HIDDEN
 10
12369.9734
 20
46180.5164
  0
VERTEX
  8
LAYER8
 62
     7
  6
HIDDEN
 10
11873.4087
 20
45937.7482
  0
VERTEX
  8
LAYER8
 62
     7
  6
HIDDEN
 10
11398.9244
 20
45672.9114
  0
VERTEX
  8
LAYER8
 62
     7
  6
HIDDEN
 10
11100.9849
 20
45463.2627
  0
VERTEX
  8
LAYER8
 62
     7
  6
HIDDEN
 10
10648.5489
 20
45066.0100
  0
VERTEX
  8
LAYER8
 62
     7
  6
HIDDEN
 10
10372.6898
 20
44823.2418
  0
VERTEX
  8
LAYER8
 62
     7
  6
HIDDEN
 10
10074.7515
 20
44547.3684
  0
VERTEX
  8
LAYER8
 62
     7
  6
HIDDEN
 10
9688.5235
 20
44117.0105
  0
VERTEX
  8
LAYER8
 62
     7
  6
HIDDEN
 10
9534.0420
 20
43907.3618
  0
VERTEX
  8
LAYER8
 62
     7
  6
HIDDEN
 10
9302.3116
 20
43532.1729
  0
VERTEX
  8
LAYER8
 62
     7
  6
HIDDEN
 10
9136.7905
 20
43245.2724
  0
VERTEX
  8
LAYER8
 62
     7
  6
HIDDEN
 10
8916.1003
 20
42859.0468
  0
VERTEX
  8
LAYER8
 62
     7
  6
HIDDEN
 10
8739.5383
 20
42594.2100
  0
VERTEX
  8
LAYER8
 62
     7
  6
HIDDEN
 10
8463.6644
 20
42252.1453
  0
VERTEX
  8
LAYER8
 62
     7
  6
HIDDEN
 10
8187.8053
 20
41854.8926
  0
VERTEX
  8
LAYER8
 62
     7
  6
HIDDEN
 10
8033.3082
 20
41534.8726
  0
VERTEX
  8
LAYER8
 62
     7
  6
HIDDEN
 10
7911.9307
 20
41181.7665
  0
VERTEX
  8
LAYER8
 62
     7
  6
HIDDEN
 10
7779.5135
 20
40674.1616
  0
VERTEX
  8
LAYER8
 62
     7
  6
HIDDEN
 10
7658.1366
 20
40232.7813
  0
VERTEX
  8
LAYER8
 62
     7
  6
HIDDEN
 10
7514.6792
 20
39614.8242
  0
VERTEX
  8
LAYER8
 62
     7
  6
HIDDEN
 10
7459.5102
 20
39173.4439
  0
VERTEX
  8
LAYER8
 62
     7
  6
HIDDEN
 10
7404.3264
 20
38798.2574
  0
VERTEX
  8
LAYER8
 62
     7
  6
HIDDEN
 10
7360.1976
 20
38323.7552
  0
VERTEX
  8
LAYER8
 62
     7
  6
HIDDEN
 10
7316.0534
 20
37871.3359
  0
VERTEX
  8
LAYER8
 62
     7
  6
HIDDEN
 10
7316.0534
 20
37363.7310
  0
VERTEX
  8
LAYER8
 62
     7
  6
HIDDEN
 10
7371.2218
 20
37054.7691
  0
VERTEX
  8
LAYER8
 62
     7
  6
HIDDEN
 10
7481.5746
 20
36646.4774
  0
VERTEX
  8
LAYER8
 62
     7
  6
HIDDEN
 10
7602.9521
 20
36194.0557
  0
VERTEX
  8
LAYER8
 62
     7
  6
HIDDEN
 10
7713.3049
 20
35885.0771
  0
VERTEX
  8
LAYER8
 62
     7
  6
HIDDEN
 10
7823.6577
 20
35410.5774
  0
VERTEX
  8
LAYER8
 62
     7
  6
HIDDEN
 10
8000.2036
 20
34936.0919
  0
VERTEX
  8
LAYER8
 62
     7
  6
HIDDEN
 10
8220.9099
 20
34527.8002
  0
VERTEX
  8
LAYER8
 62
     7
  6
HIDDEN
 10
8397.4558
 20
34218.8216
  0
VERTEX
  8
LAYER8
 62
     7
  6
HIDDEN
 10
8618.1614
 20
33909.8597
  0
VERTEX
  8
LAYER8
 62
     7
  6
HIDDEN
 10
9158.8548
 20
33325.0030
  0
VERTEX
  8
LAYER8
 62
     7
  6
HIDDEN
 10
9313.3518
 20
33170.5209
  0
VERTEX
  8
LAYER8
 62
     7
  6
HIDDEN
 10
9655.4195
 20
32960.8555
  0
VERTEX
  8
LAYER8
 62
     7
  6
HIDDEN
 10
9964.3981
 20
32773.2705
  0
VERTEX
  8
LAYER8
 62
     7
  6
HIDDEN
 10
10483.0278
 20
32475.3310
  0
VERTEX
  8
LAYER8
 62
     7
  6
HIDDEN
 10
10648.5489
 20
32398.0816
  0
VERTEX
  8
LAYER8
 62
     7
  6
HIDDEN
 10
10957.5275
 20
32265.6656
  0
VERTEX
  8
LAYER8
 62
     7
  6
HIDDEN
 10
11189.2579
 20
32188.4329
  0
VERTEX
  8
LAYER8
 62
     7
  6
HIDDEN
 10
11476.1572
 20
32166.3524
  0
VERTEX
  8
LAYER8
 62
     7
  6
HIDDEN
 10
11718.9266
 20
32155.3277
  0
VERTEX
  8
LAYER8
 62
     7
  6
HIDDEN
 10
12038.9299
 20
32166.3524
  0
SEQEND
  8
LAYER8
  0
POLYLINE
  8
LAYER8
 62
     7
 66
     1
  6
CONTINUOUS
  0
VERTEX
  8
LAYER8
 62
     7
  6
CONTINUOUS
 10
7238.8046
 20
21153.6571
  0
VERTEX
  8
LAYER8
 62
     7
  6
CONTINUOUS
 10
7249.8448
 20
21065.3830
  0
VERTEX
  8
LAYER8
 62
     7
  6
CONTINUOUS
 10
7194.6759
 20
20822.6148
  0
VERTEX
  8
LAYER8
 62
     7
  6
CONTINUOUS
 10
7117.4276
 20
20657.0912
  0
VERTEX
  8
LAYER8
 62
     7
  6
CONTINUOUS
 10
6852.5921
 20
20303.9851
  0
VERTEX
  8
LAYER8
 62
     7
  6
CONTINUOUS
 10
6665.0066
 20
20061.2146
  0
VERTEX
  8
LAYER8
 62
     7
  6
CONTINUOUS
 10
6444.3003
 20
19796.3802
  0
VERTEX
  8
LAYER8
 62
     7
  6
CONTINUOUS
 10
6212.5706
 20
19454.2964
  0
VERTEX
  8
LAYER8
 62
     7
  6
CONTINUOUS
 10
6058.0890
 20
19123.2541
  0
VERTEX
  8
LAYER8
 62
     7
  6
CONTINUOUS
 10
5980.8402
 20
18648.7687
  0
VERTEX
  8
LAYER8
 62
     7
  6
CONTINUOUS
 10
5925.6719
 20
18284.6211
  0
VERTEX
  8
LAYER8
 62
     7
  6
CONTINUOUS
 10
5815.3185
 20
17843.2242
  0
VERTEX
  8
LAYER8
 62
     7
  6
CONTINUOUS
 10
5627.7329
 20
17412.8687
  0
VERTEX
  8
LAYER8
 62
     7
  6
CONTINUOUS
 10
5462.2112
 20
16960.4482
  0
VERTEX
  8
LAYER8
 62
     7
  6
CONTINUOUS
 10
5296.6894
 20
16596.3007
  0
VERTEX
  8
LAYER8
 62
     7
  6
CONTINUOUS
 10
4899.4379
 20
15901.1108
  0
VERTEX
  8
LAYER8
 62
     7
  6
CONTINUOUS
 10
4700.8121
 20
15382.4644
  0
VERTEX
  8
LAYER8
 62
     7
  6
CONTINUOUS
 10
4590.4593
 20
14919.0049
  0
VERTEX
  8
LAYER8
 62
     7
  6
CONTINUOUS
 10
4513.2263
 20
14290.0230
  0
VERTEX
  8
LAYER8
 62
     7
  6
CONTINUOUS
 10
4502.1863
 20
13771.3946
  0
VERTEX
  8
LAYER8
 62
     7
  6
CONTINUOUS
 10
4502.1863
 20
13219.6597
  0
VERTEX
  8
LAYER8
 62
     7
  6
CONTINUOUS
 10
4557.3550
 20
12656.8870
  0
VERTEX
  8
LAYER8
 62
     7
  6
CONTINUOUS
 10
4700.8121
 20
12281.6993
  0
VERTEX
  8
LAYER8
 62
     7
  6
CONTINUOUS
 10
5020.8154
 20
11729.9656
  0
VERTEX
  8
LAYER8
 62
     7
  6
CONTINUOUS
 10
5307.7296
 20
11178.2164
  0
VERTEX
  8
LAYER8
 62
     7
  6
CONTINUOUS
 10
5572.5640
 20
10626.4840
  0
VERTEX
  8
LAYER8
 62
     7
  6
CONTINUOUS
 10
5826.3587
 20
10118.8790
  0
VERTEX
  8
LAYER8
 62
     7
  6
CONTINUOUS
 10
6113.2574
 20
9743.7074
  0
VERTEX
  8
LAYER8
 62
     7
  6
CONTINUOUS
 10
6565.6934
 20
9191.9582
  0
VERTEX
  8
LAYER8
 62
     7
  6
CONTINUOUS
 10
6742.2393
 20
8960.2285
  0
VERTEX
  8
LAYER8
 62
     7
  6
CONTINUOUS
 10
6985.0093
 20
8794.7067
  0
VERTEX
  8
LAYER8
 62
     7
  6
CONTINUOUS
 10
7702.2647
 20
8596.0809
  0
VERTEX
  8
LAYER8
 62
     7
  6
CONTINUOUS
 10
8209.8696
 20
8507.8080
  0
VERTEX
  8
LAYER8
 62
     7
  6
CONTINUOUS
 10
8750.5786
 20
8452.6390
  0
VERTEX
  8
LAYER8
 62
     7
  6
CONTINUOUS
 10
9390.5846
 20
8419.5350
  0
VERTEX
  8
LAYER8
 62
     7
  6
CONTINUOUS
 10
10405.7950
 20
8353.3264
  0
VERTEX
  8
LAYER8
 62
     7
  6
CONTINUOUS
 10
10913.3833
 20
8342.2862
  0
VERTEX
  8
LAYER8
 62
     7
  6
CONTINUOUS
 10
11542.3652
 20
8353.3264
  0
VERTEX
  8
LAYER8
 62
     7
  6
CONTINUOUS
 10
12072.0351
 20
8353.3264
  0
VERTEX
  8
LAYER8
 62
     7
  6
CONTINUOUS
 10
12877.5783
 20
8353.3264
  0
VERTEX
  8
LAYER8
 62
     7
  6
CONTINUOUS
 10
13605.8734
 20
8364.3506
  0
VERTEX
  8
LAYER8
 62
     7
  6
CONTINUOUS
 10
14245.8943
 20
8397.4552
  0
VERTEX
  8
LAYER8
 62
     7
  6
CONTINUOUS
 10
14863.8372
 20
8452.6390
  0
VERTEX
  8
LAYER8
 62
     7
  6
CONTINUOUS
 10
15470.7541
 20
8507.8080
  0
VERTEX
  8
LAYER8
 62
     7
  6
CONTINUOUS
 10
16099.7359
 20
8518.8476
  0
VERTEX
  8
LAYER8
 62
     7
  6
CONTINUOUS
 10
16618.3656
 20
8518.8476
  0
VERTEX
  8
LAYER8
 62
     7
  6
CONTINUOUS
 10
17159.0745
 20
8529.8723
  0
VERTEX
  8
LAYER8
 62
     7
  6
CONTINUOUS
 10
17589.4301
 20
8518.8476
  0
VERTEX
  8
LAYER8
 62
     7
  6
CONTINUOUS
 10
18019.7856
 20
8463.6638
  0
VERTEX
  8
LAYER8
 62
     7
  6
CONTINUOUS
 10
18549.4555
 20
8463.6638
  0
VERTEX
  8
LAYER8
 62
     7
  6
CONTINUOUS
 10
19068.0840
 20
8507.8080
  0
VERTEX
  8
LAYER8
 62
     7
  6
CONTINUOUS
 10
19586.7136
 20
8518.8476
  0
VERTEX
  8
LAYER8
 62
     7
  6
CONTINUOUS
 10
20127.4225
 20
8540.9120
  0
VERTEX
  8
LAYER8
 62
     7
  6
CONTINUOUS
 10
20414.3231
 20
8551.9522
  0
VERTEX
  8
LAYER8
 62
     7
  6
CONTINUOUS
 10
21076.4077
 20
8673.3291
  0
VERTEX
  8
LAYER8
 62
     7
  6
CONTINUOUS
 10
21683.3258
 20
8905.0595
  0
VERTEX
  8
LAYER8
 62
     7
  6
CONTINUOUS
 10
21848.8470
 20
9070.5813
  0
VERTEX
  8
LAYER8
 62
     7
  6
CONTINUOUS
 10
22036.4343
 20
9346.4552
  0
VERTEX
  8
LAYER8
 62
     7
  6
CONTINUOUS
 10
22246.0997
 20
9677.4988
  0
VERTEX
  8
LAYER8
 62
     7
  6
CONTINUOUS
 10
22698.5190
 20
10438.8978
  0
VERTEX
  8
LAYER8
 62
     7
  6
CONTINUOUS
 10
22819.9127
 20
10659.5880
  0
VERTEX
  8
LAYER8
 62
     7
  6
CONTINUOUS
 10
22985.4338
 20
10913.3821
  0
VERTEX
  8
LAYER8
 62
     7
  6
CONTINUOUS
 10
23250.2682
 20
11487.1962
  0
VERTEX
  8
LAYER8
 62
     7
  6
CONTINUOUS
 10
23316.4762
 20
11829.2788
  0
VERTEX
  8
LAYER8
 62
     7
  6
CONTINUOUS
 10
23393.7089
 20
12182.3861
  0
VERTEX
  8
LAYER8
 62
     7
  6
CONTINUOUS
 10
23437.8531
 20
12866.5369
  0
VERTEX
  8
LAYER8
 62
     7
  6
CONTINUOUS
 10
23437.8531
 20
13285.8689
  0
VERTEX
  8
LAYER8
 62
     7
  6
CONTINUOUS
 10
23393.7089
 20
13738.2906
  0
VERTEX
  8
LAYER8
 62
     7
  6
CONTINUOUS
 10
23371.6451
 20
14278.9995
  0
VERTEX
  8
LAYER8
 62
     7
  6
CONTINUOUS
 10
23360.6061
 20
14808.6682
  0
VERTEX
  8
LAYER8
 62
     7
  6
CONTINUOUS
 10
23371.6451
 20
15316.2564
  0
VERTEX
  8
LAYER8
 62
     7
  6
CONTINUOUS
 10
23393.7089
 20
15691.4442
  0
VERTEX
  8
LAYER8
 62
     7
  6
CONTINUOUS
 10
23415.7893
 20
16143.8647
  0
VERTEX
  8
LAYER8
 62
     7
  6
CONTINUOUS
 10
23426.8141
 20
16651.4696
  0
VERTEX
  8
LAYER8
 62
     7
  6
CONTINUOUS
 10
23393.7089
 20
17037.6809
  0
VERTEX
  8
LAYER8
 62
     7
  6
CONTINUOUS
 10
23283.3734
 20
17556.3261
  0
VERTEX
  8
LAYER8
 62
     7
  6
CONTINUOUS
 10
23150.9550
 20
17909.4334
  0
VERTEX
  8
LAYER8
 62
     7
  6
CONTINUOUS
 10
22930.2506
 20
18361.8539
  0
VERTEX
  8
LAYER8
 62
     7
  6
CONTINUOUS
 10
22753.7047
 20
18681.8738
  0
VERTEX
  8
LAYER8
 62
     7
  6
CONTINUOUS
 10
22577.1421
 20
18935.6668
  0
VERTEX
  8
LAYER8
 62
     7
  6
CONTINUOUS
 10
22334.3715
 20
19299.8143
  0
VERTEX
  8
LAYER8
 62
     7
  6
CONTINUOUS
 10
22124.7228
 20
19774.3141
  0
VERTEX
  8
LAYER8
 62
     7
  6
CONTINUOUS
 10
21959.1992
 20
20226.7357
  0
VERTEX
  8
LAYER8
 62
     7
  6
CONTINUOUS
 10
21848.8470
 20
20601.9223
  0
VERTEX
  8
LAYER8
 62
     7
  6
CONTINUOUS
 10
21804.7028
 20
20811.5734
  0
VERTEX
  8
LAYER8
 62
     7
  6
CONTINUOUS
 10
21694.3649
 20
21197.8014
  0
SEQEND
  8
LAYER8
  0
POLYLINE
  8
LAYER8
 62
     7
 66
     1
  6
CONTINUOUS
  0
VERTEX
  8
LAYER8
 62
     7
  6
CONTINUOUS
 10
7238.8046
 20
21153.6571
  0
VERTEX
  8
LAYER8
 62
     7
  6
CONTINUOUS
 10
7481.5746
 20
21219.8651
  0
VERTEX
  8
LAYER8
 62
     7
  6
CONTINUOUS
 10
7900.8911
 20
21241.9289
  0
VERTEX
  8
LAYER8
 62
     7
  6
CONTINUOUS
 10
8187.8053
 20
21208.8261
  0
VERTEX
  8
LAYER8
 62
     7
  6
CONTINUOUS
 10
8607.1212
 20
21208.8261
  0
VERTEX
  8
LAYER8
 62
     7
  6
CONTINUOUS
 10
8894.0199
 20
21208.8261
  0
VERTEX
  8
LAYER8
 62
     7
  6
CONTINUOUS
 10
9247.1433
 20
21164.6962
  0
VERTEX
  8
LAYER8
 62
     7
  6
CONTINUOUS
 10
9489.8978
 20
21120.5520
  0
VERTEX
  8
LAYER8
 62
     7
  6
CONTINUOUS
 10
10019.5671
 20
21131.5934
  0
VERTEX
  8
LAYER8
 62
     7
  6
CONTINUOUS
 10
10736.8374
 20
21175.7209
  0
VERTEX
  8
LAYER8
 62
     7
  6
CONTINUOUS
 10
11277.5308
 20
21197.8014
  0
VERTEX
  8
LAYER8
 62
     7
  6
CONTINUOUS
 10
11818.2397
 20
21219.8651
  0
VERTEX
  8
LAYER8
 62
     7
  6
CONTINUOUS
 10
12579.6388
 20
21241.9289
  0
VERTEX
  8
LAYER8
 62
     7
  6
CONTINUOUS
 10
12888.6174
 20
21241.9289
  0
VERTEX
  8
LAYER8
 62
     7
  6
CONTINUOUS
 10
13782.4348
 20
21252.9703
  0
VERTEX
  8
LAYER8
 62
     7
  6
CONTINUOUS
 10
14632.1068
 20
21230.9066
  0
VERTEX
  8
LAYER8
 62
     7
  6
CONTINUOUS
 10
15547.9868
 20
21186.7599
  0
VERTEX
  8
LAYER8
 62
     7
  6
CONTINUOUS
 10
16850.0948
 20
21131.5934
  0
VERTEX
  8
LAYER8
 62
     7
  6
CONTINUOUS
 10
17666.6628
 20
21109.5129
  0
VERTEX
  8
LAYER8
 62
     7
  6
CONTINUOUS
 10
19123.2529
 20
21054.3440
  0
VERTEX
  8
LAYER8
 62
     7
  6
CONTINUOUS
 10
20116.3835
 20
21065.3830
  0
VERTEX
  8
LAYER8
 62
     7
  6
CONTINUOUS
 10
20745.3654
 20
21076.4077
  0
VERTEX
  8
LAYER8
 62
     7
  6
CONTINUOUS
 10
21032.2802
 20
21076.4077
  0
VERTEX
  8
LAYER8
 62
     7
  6
CONTINUOUS
 10
21694.3649
 20
21197.8014
  0
SEQEND
  8
LAYER8
  0
POLYLINE
  8
LAYER8
 62
     7
 66
     1
  6
CONTINUOUS
  0
VERTEX
  8
LAYER8
 62
     7
  6
CONTINUOUS
 10
11818.2397
 20
21219.8651
  0
VERTEX
  8
LAYER8
 62
     7
  6
CONTINUOUS
 10
11840.3047
 20
21230.9066
  0
VERTEX
  8
LAYER8
 62
     7
  6
CONTINUOUS
 10
11840.3047
 20
21109.5129
  0
VERTEX
  8
LAYER8
 62
     7
  6
CONTINUOUS
 10
11851.3449
 20
20955.0308
  0
VERTEX
  8
LAYER8
 62
     7
  6
CONTINUOUS
 10
11939.6179
 20
20789.5096
  0
VERTEX
  8
LAYER8
 62
     7
  6
CONTINUOUS
 10
12149.2833
 20
20601.9223
  0
VERTEX
  8
LAYER8
 62
     7
  6
CONTINUOUS
 10
12557.5750
 20
20414.3231
  0
VERTEX
  8
LAYER8
 62
     7
  6
CONTINUOUS
 10
12987.9305
 20
20292.9437
  0
VERTEX
  8
LAYER8
 62
     7
  6
CONTINUOUS
 10
13572.7682
 20
20237.7771
  0
VERTEX
  8
LAYER8
 62
     7
  6
CONTINUOUS
 10
14113.4771
 20
20204.6720
  0
VERTEX
  8
LAYER8
 62
     7
  6
CONTINUOUS
 10
14532.7936
 20
20193.6329
  0
VERTEX
  8
LAYER8
 62
     7
  6
CONTINUOUS
 10
15084.5273
 20
20182.5915
  0
VERTEX
  8
LAYER8
 62
     7
  6
CONTINUOUS
 10
15327.2967
 20
20204.6720
  0
VERTEX
  8
LAYER8
 62
     7
  6
CONTINUOUS
 10
15757.6534
 20
20237.7771
  0
VERTEX
  8
LAYER8
 62
     7
  6
CONTINUOUS
 10
16077.6567
 20
20315.0099
  0
VERTEX
  8
LAYER8
 62
     7
  6
CONTINUOUS
 10
16397.6743
 20
20414.3231
  0
VERTEX
  8
LAYER8
 62
     7
  6
CONTINUOUS
 10
16629.4047
 20
20524.6753
  0
VERTEX
  8
LAYER8
 62
     7
  6
CONTINUOUS
 10
16794.9270
 20
20635.0275
  0
VERTEX
  8
LAYER8
 62
     7
  6
CONTINUOUS
 10
16850.0948
 20
21131.5934
  0
SEQEND
  8
LAYER8
  0
POLYLINE
  8
LAYER8
 62
     7
 66
     1
  6
CONTINUOUS
  0
VERTEX
  8
LAYER8
 62
     7
  6
CONTINUOUS
 10
5815.3185
 20
17843.2242
  0
VERTEX
  8
LAYER8
 62
     7
  6
CONTINUOUS
 10
6433.2762
 20
17721.8472
  0
VERTEX
  8
LAYER8
 62
     7
  6
CONTINUOUS
 10
6962.9449
 20
17732.8720
  0
VERTEX
  8
LAYER8
 62
     7
  6
CONTINUOUS
 10
7691.2406
 20
17732.8720
  0
VERTEX
  8
LAYER8
 62
     7
  6
CONTINUOUS
 10
8397.4558
 20
17765.9760
  0
VERTEX
  8
LAYER8
 62
     7
  6
CONTINUOUS
 10
9147.8301
 20
17754.9512
  0
VERTEX
  8
LAYER8
 62
     7
  6
CONTINUOUS
 10
9964.3981
 20
17754.9512
  0
VERTEX
  8
LAYER8
 62
     7
  6
CONTINUOUS
 10
10968.5677
 20
17732.8708
  0
VERTEX
  8
LAYER8
 62
     7
  6
CONTINUOUS
 10
12182.3873
 20
17688.7432
  0
VERTEX
  8
LAYER8
 62
     7
  6
CONTINUOUS
 10
13352.0781
 20
17666.6628
  0
VERTEX
  8
LAYER8
 62
     7
  6
CONTINUOUS
 10
14477.6247
 20
17721.8472
  0
VERTEX
  8
LAYER8
 62
     7
  6
CONTINUOUS
 10
15404.5461
 20
17699.7668
  0
VERTEX
  8
LAYER8
 62
     7
  6
CONTINUOUS
 10
16353.5301
 20
17688.7432
  0
VERTEX
  8
LAYER8
 62
     7
  6
CONTINUOUS
 10
17434.9324
 20
17688.7432
  0
VERTEX
  8
LAYER8
 62
     7
  6
CONTINUOUS
 10
18185.3079
 20
17699.7668
  0
VERTEX
  8
LAYER8
 62
     7
  6
CONTINUOUS
 10
18770.1456
 20
17721.8472
  0
VERTEX
  8
LAYER8
 62
     7
  6
CONTINUOUS
 10
19410.1665
 20
17754.9512
  0
VERTEX
  8
LAYER8
 62
     7
  6
CONTINUOUS
 10
20116.3835
 20
17754.9512
  0
VERTEX
  8
LAYER8
 62
     7
  6
CONTINUOUS
 10
20734.3407
 20
17721.8472
  0
VERTEX
  8
LAYER8
 62
     7
  6
CONTINUOUS
 10
21517.8047
 20
17677.7030
  0
VERTEX
  8
LAYER8
 62
     7
  6
CONTINUOUS
 10
22257.1388
 20
17611.4938
  0
VERTEX
  8
LAYER8
 62
     7
  6
CONTINUOUS
 10
22786.8075
 20
17600.4548
  0
VERTEX
  8
LAYER8
 62
     7
  6
CONTINUOUS
 10
23283.3734
 20
17556.3261
  0
SEQEND
  8
LAYER8
  0
POLYLINE
  8
LAYER8
 62
     7
 66
     1
  6
CONTINUOUS
  0
VERTEX
  8
LAYER8
 62
     7
  6
CONTINUOUS
 10
19410.1665
 20
17754.9512
  0
VERTEX
  8
LAYER8
 62
     7
  6
CONTINUOUS
 10
19145.3322
 20
17677.7030
  0
VERTEX
  8
LAYER8
 62
     7
  6
CONTINUOUS
 10
19145.3322
 20
17677.7030
  0
VERTEX
  8
LAYER8
 62
     7
  6
CONTINUOUS
 10
19178.4374
 20
17578.3898
  0
VERTEX
  8
LAYER8
 62
     7
  6
CONTINUOUS
 10
19310.8545
 20
17192.1785
  0
VERTEX
  8
LAYER8
 62
     7
  6
CONTINUOUS
 10
19454.2953
 20
16883.2000
  0
VERTEX
  8
LAYER8
 62
     7
  6
CONTINUOUS
 10
19663.9630
 20
16574.2202
  0
VERTEX
  8
LAYER8
 62
     7
  6
CONTINUOUS
 10
20303.9851
 20
15989.3837
  0
VERTEX
  8
LAYER8
 62
     7
  6
CONTINUOUS
 10
20921.9256
 20
15647.3000
  0
VERTEX
  8
LAYER8
 62
     7
  6
CONTINUOUS
 10
21705.3896
 20
15437.6501
  0
VERTEX
  8
LAYER8
 62
     7
  6
CONTINUOUS
 10
22157.8256
 20
15426.6098
  0
VERTEX
  8
LAYER8
 62
     7
  6
CONTINUOUS
 10
22775.7684
 20
15448.6736
  0
VERTEX
  8
LAYER8
 62
     7
  6
CONTINUOUS
 10
23150.9550
 20
15459.7138
  0
VERTEX
  8
LAYER8
 62
     7
  6
CONTINUOUS
 10
23371.6451
 20
15316.2564
  0
SEQEND
  8
LAYER8
  0
POLYLINE
  8
LAYER8
 62
     7
 66
     1
  6
CONTINUOUS
  0
VERTEX
  8
LAYER8
 62
     7
  6
CONTINUOUS
 10
18104.3892
 20
26994.2876
  0
VERTEX
  8
LAYER8
 62
     7
  6
CONTINUOUS
 10
20907.2172
 20
26994.2876
  0
SEQEND
  8
LAYER8
  0
POLYLINE
  8
LAYER8
 62
     7
 66
     1
  6
CONTINUOUS
  0
VERTEX
  8
LAYER8
 62
     7
  6
CONTINUOUS
 10
20907.2172
 20
26994.2876
  0
VERTEX
  8
LAYER8
 62
     7
  6
CONTINUOUS
 10
20907.2172
 20
27296.3492
  0
SEQEND
  8
LAYER8
  0
POLYLINE
  8
LAYER8
 62
     7
 66
     1
  6
CONTINUOUS
  0
VERTEX
  8
LAYER8
 62
     7
  6
CONTINUOUS
 10
18104.3892
 20
27293.4447
  0
VERTEX
  8
LAYER8
 62
     7
  6
CONTINUOUS
 10
18104.3892
 20
26994.2876
  0
SEQEND
  8
LAYER8
  0
POLYLINE
  8
LAYER8
 62
     7
 66
     1
  6
CONTINUOUS
  0
VERTEX
  8
LAYER8
 62
     7
  6
CONTINUOUS
 10
20907.2172
 20
26994.2876
  0
VERTEX
  8
LAYER8
 62
     7
  6
CONTINUOUS
 10
18104.3892
 20
26994.2876
  0
SEQEND
  8
LAYER8
  0
POLYLINE
  8
LAYER8
 62
     7
 66
     1
  6
CONTINUOUS
  0
VERTEX
  8
LAYER8
 62
     7
  6
CONTINUOUS
 10
9563.9454
 20
28662.5422
  0
VERTEX
  8
LAYER8
 62
     7
  6
CONTINUOUS
 10
9563.9454
 20
25881.7803
  0
SEQEND
  8
LAYER8
  0
POLYLINE
  8
LAYER8
 62
     7
 66
     1
  6
CONTINUOUS
  0
VERTEX
  8
LAYER8
 62
     7
  6
CONTINUOUS
 10
9563.9454
 20
25881.7803
  0
VERTEX
  8
LAYER8
 62
     7
  6
CONTINUOUS
 10
9563.9454
 20
28662.5422
  0
SEQEND
  8
LAYER8
  0
POLYLINE
  8
LAYER8
 62
     7
 66
     1
  6
CONTINUOUS
  0
VERTEX
  8
LAYER8
 62
     7
  6
CONTINUOUS
 10
9563.9454
 20
28662.5422
  0
VERTEX
  8
LAYER8
 62
     7
  6
CONTINUOUS
 10
9373.4863
 20
28112.9017
  0
SEQEND
  8
LAYER8
  0
POLYLINE
  8
LAYER24
 62
     8
 66
     1
  6
CONTINUOUS
  0
VERTEX
  8
LAYER24
 62
     8
  6
CONTINUOUS
 10
19928.7974
 20
37959.6101
  0
VERTEX
  8
LAYER24
 62
     8
  6
CONTINUOUS
 10
19928.7974
 20
37926.5049
  0
VERTEX
  8
LAYER24
 62
     8
  6
CONTINUOUS
 10
19995.0066
 20
37882.3750
  0
VERTEX
  8
LAYER24
 62
     8
  6
CONTINUOUS
 10
20248.7995
 20
37893.3997
  0
VERTEX
  8
LAYER24
 62
     8
  6
CONTINUOUS
 10
20403.2983
 20
37959.6101
  0
VERTEX
  8
LAYER24
 62
     8
  6
CONTINUOUS
 10
20535.7143
 20
38036.8571
  0
VERTEX
  8
LAYER24
 62
     8
  6
CONTINUOUS
 10
20657.0912
 20
38125.1313
  0
VERTEX
  8
LAYER24
 62
     8
  6
CONTINUOUS
 10
20679.1574
 20
38180.3145
  0
VERTEX
  8
LAYER24
 62
     8
  6
CONTINUOUS
 10
20612.9470
 20
38191.3392
  0
VERTEX
  8
LAYER24
 62
     8
  6
CONTINUOUS
 10
20491.5701
 20
38169.2755
  0
VERTEX
  8
LAYER24
 62
     8
  6
CONTINUOUS
 10
20370.1931
 20
38125.1313
  0
VERTEX
  8
LAYER24
 62
     8
  6
CONTINUOUS
 10
20259.8409
 20
38081.0013
  0
VERTEX
  8
LAYER24
 62
     8
  6
CONTINUOUS
 10
20149.4863
 20
38047.8985
  0
VERTEX
  8
LAYER24
 62
     8
  6
CONTINUOUS
 10
19928.7974
 20
37959.6101
  0
SEQEND
  8
LAYER24
  0
POLYLINE
  8
LAYER24
 62
     8
 66
     1
  6
CONTINUOUS
  0
VERTEX
  8
LAYER24
 62
     8
  6
CONTINUOUS
 10
18008.7466
 20
40122.4291
  0
VERTEX
  8
LAYER24
 62
     8
  6
CONTINUOUS
 10
18284.6211
 20
40100.3653
  0
VERTEX
  8
LAYER24
 62
     8
  6
CONTINUOUS
 10
18394.9579
 20
40122.4291
  0
VERTEX
  8
LAYER24
 62
     8
  6
CONTINUOUS
 10
18726.0014
 20
40188.6395
  0
VERTEX
  8
LAYER24
 62
     8
  6
CONTINUOUS
 10
18946.7070
 20
40265.8865
  0
VERTEX
  8
LAYER24
 62
     8
  6
CONTINUOUS
 10
19068.0840
 20
40298.9917
  0
VERTEX
  8
LAYER24
 62
     8
  6
CONTINUOUS
 10
19189.4609
 20
40310.0141
  0
VERTEX
  8
LAYER24
 62
     8
  6
CONTINUOUS
 10
19277.7493
 20
40243.8084
  0
VERTEX
  8
LAYER24
 62
     8
  6
CONTINUOUS
 10
19288.7741
 20
40177.5981
  0
VERTEX
  8
LAYER24
 62
     8
  6
CONTINUOUS
 10
19189.4609
 20
40100.3653
  0
VERTEX
  8
LAYER24
 62
     8
  6
CONTINUOUS
 10
19046.0202
 20
40023.1183
  0
VERTEX
  8
LAYER24
 62
     8
  6
CONTINUOUS
 10
18880.4978
 20
39967.9470
  0
VERTEX
  8
LAYER24
 62
     8
  6
CONTINUOUS
 10
18703.9364
 20
39912.7637
  0
VERTEX
  8
LAYER24
 62
     8
  6
CONTINUOUS
 10
18538.4153
 20
39868.6338
  0
VERTEX
  8
LAYER24
 62
     8
  6
CONTINUOUS
 10
18538.4153
 20
39868.6338
  0
SEQEND
  8
LAYER24
  0
POLYLINE
  8
LAYER24
 62
     8
 66
     1
  6
CONTINUOUS
  0
VERTEX
  8
LAYER24
 62
     8
  6
CONTINUOUS
 10
17081.8251
 20
39758.2816
  0
VERTEX
  8
LAYER24
 62
     8
  6
CONTINUOUS
 10
16905.2637
 20
39658.9684
  0
VERTEX
  8
LAYER24
 62
     8
  6
CONTINUOUS
 10
16850.0948
 20
39559.6552
  0
VERTEX
  8
LAYER24
 62
     8
  6
CONTINUOUS
 10
16794.9270
 20
39427.2392
  0
VERTEX
  8
LAYER24
 62
     8
  6
CONTINUOUS
 10
16739.7426
 20
39272.7571
  0
VERTEX
  8
LAYER24
 62
     8
  6
CONTINUOUS
 10
16684.5736
 20
39118.2607
  0
VERTEX
  8
LAYER24
 62
     8
  6
CONTINUOUS
 10
16662.5098
 20
38963.7785
  0
VERTEX
  8
LAYER24
 62
     8
  6
CONTINUOUS
 10
16640.4294
 20
38831.3602
  0
VERTEX
  8
LAYER24
 62
     8
  6
CONTINUOUS
 10
16695.6138
 20
38698.9442
  0
VERTEX
  8
LAYER24
 62
     8
  6
CONTINUOUS
 10
16794.9270
 20
38676.8804
  0
VERTEX
  8
LAYER24
 62
     8
  6
CONTINUOUS
 10
16905.2637
 20
38676.8804
  0
VERTEX
  8
LAYER24
 62
     8
  6
CONTINUOUS
 10
16982.5120
 20
38709.9832
  0
VERTEX
  8
LAYER24
 62
     8
  6
CONTINUOUS
 10
17037.6809
 20
38776.1912
  0
VERTEX
  8
LAYER24
 62
     8
  6
CONTINUOUS
 10
17037.6809
 20
38776.1912
  0
SEQEND
  8
LAYER24
  0
POLYLINE
  8
LAYER24
 62
     8
 66
     1
  6
CONTINUOUS
  0
VERTEX
  8
LAYER24
 62
     8
  6
CONTINUOUS
 10
17037.6809
 20
38776.1912
  0
VERTEX
  8
LAYER24
 62
     8
  6
CONTINUOUS
 10
17092.8654
 20
38897.5705
  0
VERTEX
  8
LAYER24
 62
     8
  6
CONTINUOUS
 10
17125.9694
 20
38985.8423
  0
VERTEX
  8
LAYER24
 62
     8
  6
CONTINUOUS
 10
17181.1383
 20
39096.1945
  0
VERTEX
  8
LAYER24
 62
     8
  6
CONTINUOUS
 10
17258.3865
 20
39294.8209
  0
SEQEND
  8
LAYER24
  0
POLYLINE
  8
LAYER24
 62
     8
 66
     1
  6
CONTINUOUS
  0
VERTEX
  8
LAYER24
 62
     8
  6
CONTINUOUS
 10
17170.0981
 20
40265.8865
  0
VERTEX
  8
LAYER24
 62
     8
  6
CONTINUOUS
 10
17170.0981
 20
40310.0141
  0
VERTEX
  8
LAYER24
 62
     8
  6
CONTINUOUS
 10
17103.8901
 20
40387.2658
  0
VERTEX
  8
LAYER24
 62
     8
  6
CONTINUOUS
 10
17004.5769
 20
40409.3296
  0
VERTEX
  8
LAYER24
 62
     8
  6
CONTINUOUS
 10
16872.1597
 20
40332.0969
  0
VERTEX
  8
LAYER24
 62
     8
  6
CONTINUOUS
 10
16640.4294
 20
40155.5343
  0
VERTEX
  8
LAYER24
 62
     8
  6
CONTINUOUS
 10
16508.0122
 20
40067.2602
  0
VERTEX
  8
LAYER24
 62
     8
  6
CONTINUOUS
 10
16375.5950
 20
39956.9079
  0
VERTEX
  8
LAYER24
 62
     8
  6
CONTINUOUS
 10
16243.1779
 20
39824.4896
  0
VERTEX
  8
LAYER24
 62
     8
  6
CONTINUOUS
 10
16099.7359
 20
39670.0098
  0
VERTEX
  8
LAYER24
 62
     8
  6
CONTINUOUS
 10
15967.3188
 20
39515.5110
  0
VERTEX
  8
LAYER24
 62
     8
  6
CONTINUOUS
 10
15834.9016
 20
39349.9898
  0
VERTEX
  8
LAYER24
 62
     8
  6
CONTINUOUS
 10
15757.6534
 20
39206.5491
  0
VERTEX
  8
LAYER24
 62
     8
  6
CONTINUOUS
 10
15757.6534
 20
38941.7148
  0
VERTEX
  8
LAYER24
 62
     8
  6
CONTINUOUS
 10
15757.6534
 20
38941.7148
  0
SEQEND
  8
LAYER24
  0
POLYLINE
  8
LAYER24
 62
     8
 66
     1
  6
CONTINUOUS
  0
VERTEX
  8
LAYER24
 62
     8
  6
CONTINUOUS
 10
15757.6534
 20
38941.7148
  0
VERTEX
  8
LAYER24
 62
     8
  6
CONTINUOUS
 10
15713.5092
 20
38820.3211
  0
SEQEND
  8
LAYER24
  0
POLYLINE
  8
LAYER24
 62
     8
 66
     1
  6
CONTINUOUS
  0
VERTEX
  8
LAYER24
 62
     8
  6
CONTINUOUS
 10
16386.6353
 20
38798.2574
  0
VERTEX
  8
LAYER24
 62
     8
  6
CONTINUOUS
 10
16386.6353
 20
38831.3602
  0
VERTEX
  8
LAYER24
 62
     8
  6
CONTINUOUS
 10
16430.7795
 20
38985.8423
  0
VERTEX
  8
LAYER24
 62
     8
  6
CONTINUOUS
 10
16485.9473
 20
39228.6129
  0
VERTEX
  8
LAYER24
 62
     8
  6
CONTINUOUS
 10
16541.1162
 20
39438.2783
  0
VERTEX
  8
LAYER24
 62
     8
  6
CONTINUOUS
 10
16618.3656
 20
39592.7604
  0
VERTEX
  8
LAYER24
 62
     8
  6
CONTINUOUS
 10
16717.6776
 20
39736.2178
  0
VERTEX
  8
LAYER24
 62
     8
  6
CONTINUOUS
 10
16816.9908
 20
39857.5948
  0
VERTEX
  8
LAYER24
 62
     8
  6
CONTINUOUS
 10
16916.3040
 20
39967.9470
  0
VERTEX
  8
LAYER24
 62
     8
  6
CONTINUOUS
 10
17026.6562
 20
40078.2825
  0
VERTEX
  8
LAYER24
 62
     8
  6
CONTINUOUS
 10
17170.0981
 20
40265.8865
  0
SEQEND
  8
LAYER24
  0
POLYLINE
  8
LAYER24
 62
     8
 66
     1
  6
CONTINUOUS
  0
VERTEX
  8
LAYER24
 62
     8
  6
CONTINUOUS
 10
14974.1894
 20
38434.1098
  0
VERTEX
  8
LAYER24
 62
     8
  6
CONTINUOUS
 10
14941.0854
 20
38356.8604
  0
VERTEX
  8
LAYER24
 62
     8
  6
CONTINUOUS
 10
14863.8372
 20
38323.7552
  0
VERTEX
  8
LAYER24
 62
     8
  6
CONTINUOUS
 10
14731.4188
 20
38257.5472
  0
VERTEX
  8
LAYER24
 62
     8
  6
CONTINUOUS
 10
14621.0666
 20
38191.3392
  0
VERTEX
  8
LAYER24
 62
     8
  6
CONTINUOUS
 10
14565.8976
 20
38125.1313
  0
VERTEX
  8
LAYER24
 62
     8
  6
CONTINUOUS
 10
14621.0666
 20
38092.0261
  0
VERTEX
  8
LAYER24
 62
     8
  6
CONTINUOUS
 10
14775.5642
 20
38092.0261
  0
VERTEX
  8
LAYER24
 62
     8
  6
CONTINUOUS
 10
15007.2934
 20
38103.0651
  0
VERTEX
  8
LAYER24
 62
     8
  6
CONTINUOUS
 10
15172.8157
 20
38103.0651
  0
VERTEX
  8
LAYER24
 62
     8
  6
CONTINUOUS
 10
15305.2329
 20
38103.0651
  0
VERTEX
  8
LAYER24
 62
     8
  6
CONTINUOUS
 10
15426.6098
 20
38081.0013
  0
VERTEX
  8
LAYER24
 62
     8
  6
CONTINUOUS
 10
15581.0920
 20
38047.8985
  0
VERTEX
  8
LAYER24
 62
     8
  6
CONTINUOUS
 10
15713.5092
 20
38003.7543
  0
VERTEX
  8
LAYER24
 62
     8
  6
CONTINUOUS
 10
15713.5092
 20
38003.7543
  0
VERTEX
  8
LAYER24
 62
     8
  6
CONTINUOUS
 10
15912.1343
 20
37937.5439
  0
VERTEX
  8
LAYER24
 62
     8
  6
CONTINUOUS
 10
16022.4877
 20
37904.4411
  0
VERTEX
  8
LAYER24
 62
     8
  6
CONTINUOUS
 10
16099.7359
 20
37882.3750
  0
VERTEX
  8
LAYER24
 62
     8
  6
CONTINUOUS
 10
16188.0089
 20
37882.3750
  0
VERTEX
  8
LAYER24
 62
     8
  6
CONTINUOUS
 10
16243.1779
 20
37937.5439
  0
VERTEX
  8
LAYER24
 62
     8
  6
CONTINUOUS
 10
16265.2571
 20
37992.7129
  0
VERTEX
  8
LAYER24
 62
     8
  6
CONTINUOUS
 10
16320.4261
 20
38047.8985
  0
VERTEX
  8
LAYER24
 62
     8
  6
CONTINUOUS
 10
16419.7393
 20
38025.8181
  0
VERTEX
  8
LAYER24
 62
     8
  6
CONTINUOUS
 10
16508.0122
 20
37970.6491
  0
VERTEX
  8
LAYER24
 62
     8
  6
CONTINUOUS
 10
16563.1967
 20
37904.4411
  0
VERTEX
  8
LAYER24
 62
     8
  6
CONTINUOUS
 10
16596.3007
 20
37827.1917
  0
VERTEX
  8
LAYER24
 62
     8
  6
CONTINUOUS
 10
16640.4294
 20
37727.8785
  0
VERTEX
  8
LAYER24
 62
     8
  6
CONTINUOUS
 10
16728.7178
 20
37650.6458
  0
VERTEX
  8
LAYER24
 62
     8
  6
CONTINUOUS
 10
16861.1350
 20
37595.4626
  0
VERTEX
  8
LAYER24
 62
     8
  6
CONTINUOUS
 10
16960.4482
 20
37639.6068
  0
VERTEX
  8
LAYER24
 62
     8
  6
CONTINUOUS
 10
16971.4729
 20
37794.0865
  0
VERTEX
  8
LAYER24
 62
     8
  6
CONTINUOUS
 10
16916.3040
 20
37937.5439
  0
VERTEX
  8
LAYER24
 62
     8
  6
CONTINUOUS
 10
16783.8868
 20
38058.9209
  0
VERTEX
  8
LAYER24
 62
     8
  6
CONTINUOUS
 10
16640.4294
 20
38125.1313
  0
VERTEX
  8
LAYER24
 62
     8
  6
CONTINUOUS
 10
16541.1162
 20
38169.2755
  0
VERTEX
  8
LAYER24
 62
     8
  6
CONTINUOUS
 10
16452.8433
 20
38213.4197
  0
VERTEX
  8
LAYER24
 62
     8
  6
CONTINUOUS
 10
16210.0739
 20
38378.9409
  0
SEQEND
  8
LAYER24
  0
POLYLINE
  8
LAYER24
 62
     8
 66
     1
  6
CONTINUOUS
  0
VERTEX
  8
LAYER24
 62
     8
  6
CONTINUOUS
 10
16210.0739
 20
38378.9409
  0
VERTEX
  8
LAYER24
 62
     8
  6
CONTINUOUS
 10
16033.5280
 20
38312.7329
  0
VERTEX
  8
LAYER24
 62
     8
  6
CONTINUOUS
 10
15923.1746
 20
38345.8357
  0
VERTEX
  8
LAYER24
 62
     8
  6
CONTINUOUS
 10
15757.6534
 20
38378.9409
  0
VERTEX
  8
LAYER24
 62
     8
  6
CONTINUOUS
 10
15603.1712
 20
38423.0684
  0
VERTEX
  8
LAYER24
 62
     8
  6
CONTINUOUS
 10
15481.7788
 20
38445.1489
  0
VERTEX
  8
LAYER24
 62
     8
  6
CONTINUOUS
 10
15360.4007
 20
38445.1489
  0
VERTEX
  8
LAYER24
 62
     8
  6
CONTINUOUS
 10
15261.0887
 20
38434.1098
  0
VERTEX
  8
LAYER24
 62
     8
  6
CONTINUOUS
 10
14941.0854
 20
38356.8604
  0
SEQEND
  8
LAYER24
  0
POLYLINE
  8
LAYER24
 62
     8
 66
     1
  6
CONTINUOUS
  0
VERTEX
  8
LAYER24
 62
     8
  6
CONTINUOUS
 10
16640.4294
 20
37727.8785
  0
VERTEX
  8
LAYER24
 62
     8
  6
CONTINUOUS
 10
16651.4696
 20
37705.8148
  0
VERTEX
  8
LAYER24
 62
     8
  6
CONTINUOUS
 10
16717.6776
 20
37661.6705
  0
VERTEX
  8
LAYER24
 62
     8
  6
CONTINUOUS
 10
16828.0310
 20
37606.5016
  0
VERTEX
  8
LAYER24
 62
     8
  6
CONTINUOUS
 10
17103.8901
 20
37341.6672
  0
VERTEX
  8
LAYER24
 62
     8
  6
CONTINUOUS
 10
17181.1383
 20
37220.2903
  0
VERTEX
  8
LAYER24
 62
     8
  6
CONTINUOUS
 10
17203.2021
 20
37098.8967
  0
VERTEX
  8
LAYER24
 62
     8
  6
CONTINUOUS
 10
17203.2021
 20
36977.5197
  0
VERTEX
  8
LAYER24
 62
     8
  6
CONTINUOUS
 10
17103.8901
 20
36955.4559
  0
VERTEX
  8
LAYER24
 62
     8
  6
CONTINUOUS
 10
16949.4080
 20
36999.5835
  0
VERTEX
  8
LAYER24
 62
     8
  6
CONTINUOUS
 10
16794.9270
 20
37054.7691
  0
VERTEX
  8
LAYER24
 62
     8
  6
CONTINUOUS
 10
16651.4696
 20
37087.8719
  0
VERTEX
  8
LAYER24
 62
     8
  6
CONTINUOUS
 10
16530.0927
 20
37098.8967
  0
VERTEX
  8
LAYER24
 62
     8
  6
CONTINUOUS
 10
16408.6990
 20
37087.8719
  0
VERTEX
  8
LAYER24
 62
     8
  6
CONTINUOUS
 10
16165.9451
 20
36933.3755
  0
VERTEX
  8
LAYER24
 62
     8
  6
CONTINUOUS
 10
16165.9451
 20
36933.3755
  0
VERTEX
  8
LAYER24
 62
     8
  6
CONTINUOUS
 10
16055.5917
 20
36867.1675
  0
VERTEX
  8
LAYER24
 62
     8
  6
CONTINUOUS
 10
15989.3837
 20
36834.0623
  0
VERTEX
  8
LAYER24
 62
     8
  6
CONTINUOUS
 10
15868.0056
 20
36767.8543
  0
VERTEX
  8
LAYER24
 62
     8
  6
CONTINUOUS
 10
15713.5092
 20
36690.6216
  0
VERTEX
  8
LAYER24
 62
     8
  6
CONTINUOUS
 10
15581.0920
 20
36613.3722
  0
VERTEX
  8
LAYER24
 62
     8
  6
CONTINUOUS
 10
15459.7138
 20
36580.2670
  0
VERTEX
  8
LAYER24
 62
     8
  6
CONTINUOUS
 10
15349.3616
 20
36613.3722
  0
VERTEX
  8
LAYER24
 62
     8
  6
CONTINUOUS
 10
15283.1524
 20
36690.6216
  0
VERTEX
  8
LAYER24
 62
     8
  6
CONTINUOUS
 10
15272.1277
 20
36767.8543
  0
VERTEX
  8
LAYER24
 62
     8
  6
CONTINUOUS
 10
15261.0887
 20
36999.5835
  0
VERTEX
  8
LAYER24
 62
     8
  6
CONTINUOUS
 10
15327.2967
 20
36999.5835
  0
VERTEX
  8
LAYER24
 62
     8
  6
CONTINUOUS
 10
15360.4007
 20
37054.7691
  0
VERTEX
  8
LAYER24
 62
     8
  6
CONTINUOUS
 10
15415.5696
 20
37132.0018
  0
VERTEX
  8
LAYER24
 62
     8
  6
CONTINUOUS
 10
15481.7788
 20
37187.1851
  0
VERTEX
  8
LAYER24
 62
     8
  6
CONTINUOUS
 10
15570.0672
 20
37275.4592
  0
VERTEX
  8
LAYER24
 62
     8
  6
CONTINUOUS
 10
15636.2752
 20
37352.7063
  0
VERTEX
  8
LAYER24
 62
     8
  6
CONTINUOUS
 10
15647.3000
 20
37429.9390
  0
VERTEX
  8
LAYER24
 62
     8
  6
CONTINUOUS
 10
15636.2752
 20
37518.2274
  0
VERTEX
  8
LAYER24
 62
     8
  6
CONTINUOUS
 10
15636.2752
 20
37617.5406
  0
VERTEX
  8
LAYER24
 62
     8
  6
CONTINUOUS
 10
15669.3804
 20
37672.7096
  0
VERTEX
  8
LAYER24
 62
     8
  6
CONTINUOUS
 10
15768.6924
 20
37694.7734
  0
VERTEX
  8
LAYER24
 62
     8
  6
CONTINUOUS
 10
15834.9016
 20
37683.7510
  0
VERTEX
  8
LAYER24
 62
     8
  6
CONTINUOUS
 10
15923.1746
 20
37661.6705
  0
VERTEX
  8
LAYER24
 62
     8
  6
CONTINUOUS
 10
16022.4877
 20
37683.7510
  0
VERTEX
  8
LAYER24
 62
     8
  6
CONTINUOUS
 10
16099.7359
 20
37749.9590
  0
VERTEX
  8
LAYER24
 62
     8
  6
CONTINUOUS
 10
16188.0089
 20
37882.3750
  0
SEQEND
  8
LAYER24
  0
POLYLINE
  8
LAYER24
 62
     8
 66
     1
  6
CONTINUOUS
  0
VERTEX
  8
LAYER24
 62
     8
  6
CONTINUOUS
 10
16011.4475
 20
37452.0195
  0
VERTEX
  8
LAYER24
 62
     8
  6
CONTINUOUS
 10
15989.3837
 20
37440.9804
  0
VERTEX
  8
LAYER24
 62
     8
  6
CONTINUOUS
 10
15956.2785
 20
37385.8115
  0
VERTEX
  8
LAYER24
 62
     8
  6
CONTINUOUS
 10
15967.3188
 20
37352.7063
  0
VERTEX
  8
LAYER24
 62
     8
  6
CONTINUOUS
 10
16033.5280
 20
37319.6035
  0
VERTEX
  8
LAYER24
 62
     8
  6
CONTINUOUS
 10
16132.8399
 20
37319.6035
  0
VERTEX
  8
LAYER24
 62
     8
  6
CONTINUOUS
 10
16232.1531
 20
37319.6035
  0
VERTEX
  8
LAYER24
 62
     8
  6
CONTINUOUS
 10
16342.4910
 20
37330.6282
  0
VERTEX
  8
LAYER24
 62
     8
  6
CONTINUOUS
 10
16408.6990
 20
37396.8362
  0
VERTEX
  8
LAYER24
 62
     8
  6
CONTINUOUS
 10
16430.7795
 20
37440.9804
  0
VERTEX
  8
LAYER24
 62
     8
  6
CONTINUOUS
 10
16419.7393
 20
37474.0832
  0
VERTEX
  8
LAYER24
 62
     8
  6
CONTINUOUS
 10
16353.5301
 20
37485.1246
  0
VERTEX
  8
LAYER24
 62
     8
  6
CONTINUOUS
 10
16265.2571
 20
37485.1246
  0
VERTEX
  8
LAYER24
 62
     8
  6
CONTINUOUS
 10
16154.9049
 20
37485.1246
  0
VERTEX
  8
LAYER24
 62
     8
  6
CONTINUOUS
 10
16011.4475
 20
37452.0195
  0
SEQEND
  8
LAYER24
  0
POLYLINE
  8
LAYER24
 62
     8
 66
     1
  6
CONTINUOUS
  0
VERTEX
  8
LAYER24
 62
     8
  6
CONTINUOUS
 10
15636.2752
 20
37518.2274
  0
VERTEX
  8
LAYER24
 62
     8
  6
CONTINUOUS
 10
15547.9868
 20
37507.1884
  0
VERTEX
  8
LAYER24
 62
     8
  6
CONTINUOUS
 10
15470.7541
 20
37474.0832
  0
VERTEX
  8
LAYER24
 62
     8
  6
CONTINUOUS
 10
15393.5059
 20
37440.9804
  0
VERTEX
  8
LAYER24
 62
     8
  6
CONTINUOUS
 10
15294.1927
 20
37407.8752
  0
SEQEND
  8
LAYER24
  0
POLYLINE
  8
LAYER24
 62
     8
 66
     1
  6
CONTINUOUS
  0
VERTEX
  8
LAYER24
 62
     8
  6
CONTINUOUS
 10
15636.2752
 20
37352.7063
  0
VERTEX
  8
LAYER24
 62
     8
  6
CONTINUOUS
 10
15603.1712
 20
37330.6282
  0
VERTEX
  8
LAYER24
 62
     8
  6
CONTINUOUS
 10
15547.9868
 20
37308.5621
  0
VERTEX
  8
LAYER24
 62
     8
  6
CONTINUOUS
 10
15492.8190
 20
37297.5230
  0
VERTEX
  8
LAYER24
 62
     8
  6
CONTINUOUS
 10
15415.5696
 20
37286.4983
  0
SEQEND
  8
LAYER24
  0
POLYLINE
  8
LAYER24
 62
     8
 66
     1
  6
CONTINUOUS
  0
VERTEX
  8
LAYER24
 62
     8
  6
CONTINUOUS
 10
14941.0854
 20
37231.3150
  0
VERTEX
  8
LAYER24
 62
     8
  6
CONTINUOUS
 10
14930.0451
 20
37209.2489
  0
VERTEX
  8
LAYER24
 62
     8
  6
CONTINUOUS
 10
14874.8762
 20
37187.1851
  0
VERTEX
  8
LAYER24
 62
     8
  6
CONTINUOUS
 10
14775.5642
 20
37154.0799
  0
VERTEX
  8
LAYER24
 62
     8
  6
CONTINUOUS
 10
14632.1068
 20
37098.8967
  0
VERTEX
  8
LAYER24
 62
     8
  6
CONTINUOUS
 10
14543.8338
 20
37065.7915
  0
VERTEX
  8
LAYER24
 62
     8
  6
CONTINUOUS
 10
14444.5207
 20
37010.6249
  0
VERTEX
  8
LAYER24
 62
     8
  6
CONTINUOUS
 10
14389.3362
 20
36900.2703
  0
VERTEX
  8
LAYER24
 62
     8
  6
CONTINUOUS
 10
14422.4402
 20
36767.8543
  0
VERTEX
  8
LAYER24
 62
     8
  6
CONTINUOUS
 10
14444.5207
 20
36734.7491
  0
VERTEX
  8
LAYER24
 62
     8
  6
CONTINUOUS
 10
14543.8338
 20
36767.8543
  0
VERTEX
  8
LAYER24
 62
     8
  6
CONTINUOUS
 10
14643.1458
 20
36845.1013
  0
VERTEX
  8
LAYER24
 62
     8
  6
CONTINUOUS
 10
14764.5240
 20
36933.3755
  0
VERTEX
  8
LAYER24
 62
     8
  6
CONTINUOUS
 10
14852.7969
 20
36977.5197
  0
VERTEX
  8
LAYER24
 62
     8
  6
CONTINUOUS
 10
14985.2141
 20
37065.7915
  0
SEQEND
  8
LAYER24
  0
POLYLINE
  8
LAYER24
 62
     8
 66
     1
  6
CONTINUOUS
  0
VERTEX
  8
LAYER24
 62
     8
  6
CONTINUOUS
 10
15139.7105
 20
39890.6999
  0
VERTEX
  8
LAYER24
 62
     8
  6
CONTINUOUS
 10
15117.6313
 20
39890.6999
  0
VERTEX
  8
LAYER24
 62
     8
  6
CONTINUOUS
 10
14974.1894
 20
39824.4896
  0
VERTEX
  8
LAYER24
 62
     8
  6
CONTINUOUS
 10
14808.6682
 20
39736.2178
  0
VERTEX
  8
LAYER24
 62
     8
  6
CONTINUOUS
 10
14532.7936
 20
39614.8242
  0
VERTEX
  8
LAYER24
 62
     8
  6
CONTINUOUS
 10
14356.2322
 20
39526.5524
  0
VERTEX
  8
LAYER24
 62
     8
  6
CONTINUOUS
 10
14113.4771
 20
39416.1978
  0
VERTEX
  8
LAYER24
 62
     8
  6
CONTINUOUS
 10
13936.9157
 20
39316.8846
  0
VERTEX
  8
LAYER24
 62
     8
  6
CONTINUOUS
 10
13705.1854
 20
39162.4049
  0
VERTEX
  8
LAYER24
 62
     8
  6
CONTINUOUS
 10
13572.7682
 20
39096.1945
  0
VERTEX
  8
LAYER24
 62
     8
  6
CONTINUOUS
 10
13341.0378
 20
38985.8423
  0
VERTEX
  8
LAYER24
 62
     8
  6
CONTINUOUS
 10
13109.3087
 20
38886.5291
  0
VERTEX
  8
LAYER24
 62
     8
  6
CONTINUOUS
 10
12976.8903
 20
38831.3602
  0
VERTEX
  8
LAYER24
 62
     8
  6
CONTINUOUS
 10
13175.5167
 20
38721.0080
  0
VERTEX
  8
LAYER24
 62
     8
  6
CONTINUOUS
 10
13329.9988
 20
38599.6310
  0
VERTEX
  8
LAYER24
 62
     8
  6
CONTINUOUS
 10
13451.3913
 20
38445.1489
  0
VERTEX
  8
LAYER24
 62
     8
  6
CONTINUOUS
 10
13550.7044
 20
38389.9656
  0
VERTEX
  8
LAYER24
 62
     8
  6
CONTINUOUS
 10
13804.4986
 20
38610.6700
  0
VERTEX
  8
LAYER24
 62
     8
  6
CONTINUOUS
 10
14124.5019
 20
38930.6733
  0
VERTEX
  8
LAYER24
 62
     8
  6
CONTINUOUS
 10
14455.5454
 20
39206.5491
  0
VERTEX
  8
LAYER24
 62
     8
  6
CONTINUOUS
 10
14720.3798
 20
39361.0289
  0
VERTEX
  8
LAYER24
 62
     8
  6
CONTINUOUS
 10
14907.9814
 20
39427.2392
  0
VERTEX
  8
LAYER24
 62
     8
  6
CONTINUOUS
 10
14985.2141
 20
39592.7604
  0
VERTEX
  8
LAYER24
 62
     8
  6
CONTINUOUS
 10
15139.7105
 20
39890.6999
  0
SEQEND
  8
LAYER24
  0
POLYLINE
  8
LAYER24
 62
     8
 66
     1
  6
CONTINUOUS
  0
VERTEX
  8
LAYER24
 62
     8
  6
CONTINUOUS
 10
13661.0412
 20
41192.8079
  0
VERTEX
  8
LAYER24
 62
     8
  6
CONTINUOUS
 10
13672.0814
 20
41126.5976
  0
VERTEX
  8
LAYER24
 62
     8
  6
CONTINUOUS
 10
13749.3296
 20
41038.3091
  0
VERTEX
  8
LAYER24
 62
     8
  6
CONTINUOUS
 10
13837.6026
 20
40938.9983
  0
VERTEX
  8
LAYER24
 62
     8
  6
CONTINUOUS
 10
13936.9157
 20
40927.9712
  0
VERTEX
  8
LAYER24
 62
     8
  6
CONTINUOUS
 10
14179.6863
 20
41038.3091
  0
VERTEX
  8
LAYER24
 62
     8
  6
CONTINUOUS
 10
14334.1673
 20
41104.5195
  0
VERTEX
  8
LAYER24
 62
     8
  6
CONTINUOUS
 10
14488.6494
 20
41203.8303
  0
VERTEX
  8
LAYER24
 62
     8
  6
CONTINUOUS
 10
14554.8574
 20
41281.0821
  0
VERTEX
  8
LAYER24
 62
     8
  6
CONTINUOUS
 10
14510.7287
 20
41369.3515
  0
VERTEX
  8
LAYER24
 62
     8
  6
CONTINUOUS
 10
14455.5454
 20
41424.5395
  0
VERTEX
  8
LAYER24
 62
     8
  6
CONTINUOUS
 10
14378.3115
 20
41413.4981
  0
VERTEX
  8
LAYER24
 62
     8
  6
CONTINUOUS
 10
14290.0230
 20
41369.3515
  0
VERTEX
  8
LAYER24
 62
     8
  6
CONTINUOUS
 10
14190.7099
 20
41303.1458
  0
VERTEX
  8
LAYER24
 62
     8
  6
CONTINUOUS
 10
14080.3731
 20
41236.9355
  0
VERTEX
  8
LAYER24
 62
     8
  6
CONTINUOUS
 10
13970.0197
 20
41192.8079
  0
VERTEX
  8
LAYER24
 62
     8
  6
CONTINUOUS
 10
13749.3296
 20
41038.3091
  0
SEQEND
  8
LAYER24
  0
POLYLINE
  8
LAYER24
 62
     8
 66
     1
  6
CONTINUOUS
  0
VERTEX
  8
LAYER24
 62
     8
  6
CONTINUOUS
 10
13793.4583
 20
44470.1357
  0
VERTEX
  8
LAYER24
 62
     8
  6
CONTINUOUS
 10
13760.3543
 20
44481.1581
  0
VERTEX
  8
LAYER24
 62
     8
  6
CONTINUOUS
 10
13837.6026
 20
44459.0943
  0
VERTEX
  8
LAYER24
 62
     8
  6
CONTINUOUS
 10
13958.9807
 20
44437.0305
  0
VERTEX
  8
LAYER24
 62
     8
  6
CONTINUOUS
 10
14124.5019
 20
44536.3413
  0
VERTEX
  8
LAYER24
 62
     8
  6
CONTINUOUS
 10
14367.2724
 20
44779.0952
  0
VERTEX
  8
LAYER24
 62
     8
  6
CONTINUOUS
 10
14554.8574
 20
45021.8682
  0
VERTEX
  8
LAYER24
 62
     8
  6
CONTINUOUS
 10
14731.4188
 20
45264.6364
  0
VERTEX
  8
LAYER24
 62
     8
  6
CONTINUOUS
 10
14852.7969
 20
45419.1209
  0
VERTEX
  8
LAYER24
 62
     8
  6
CONTINUOUS
 10
14919.0049
 20
45540.5097
  0
VERTEX
  8
LAYER24
 62
     8
  6
CONTINUOUS
 10
14808.6682
 20
45628.7839
  0
VERTEX
  8
LAYER24
 62
     8
  6
CONTINUOUS
 10
14676.2510
 20
45717.0580
  0
VERTEX
  8
LAYER24
 62
     8
  6
CONTINUOUS
 10
14554.8574
 20
45739.1218
  0
VERTEX
  8
LAYER24
 62
     8
  6
CONTINUOUS
 10
14378.3115
 20
45617.7425
  0
VERTEX
  8
LAYER24
 62
     8
  6
CONTINUOUS
 10
14212.7903
 20
45452.2213
  0
VERTEX
  8
LAYER24
 62
     8
  6
CONTINUOUS
 10
14091.3979
 20
45264.6364
  0
VERTEX
  8
LAYER24
 62
     8
  6
CONTINUOUS
 10
13981.0600
 20
45077.0371
  0
VERTEX
  8
LAYER24
 62
     8
  6
CONTINUOUS
 10
13903.8117
 20
44955.6578
  0
VERTEX
  8
LAYER24
 62
     8
  6
CONTINUOUS
 10
13826.5635
 20
44845.3056
  0
VERTEX
  8
LAYER24
 62
     8
  6
CONTINUOUS
 10
13760.3543
 20
44757.0314
  0
VERTEX
  8
LAYER24
 62
     8
  6
CONTINUOUS
 10
13760.3543
 20
44481.1581
  0
SEQEND
  8
LAYER24
  0
POLYLINE
  8
LAYER24
 62
     8
 66
     1
  6
CONTINUOUS
  0
VERTEX
  8
LAYER24
 62
     8
  6
CONTINUOUS
 10
14543.8338
 20
46312.9371
  0
VERTEX
  8
LAYER24
 62
     8
  6
CONTINUOUS
 10
14510.7287
 20
46279.8319
  0
VERTEX
  8
LAYER24
 62
     8
  6
CONTINUOUS
 10
14521.7534
 20
46191.5578
  0
VERTEX
  8
LAYER24
 62
     8
  6
CONTINUOUS
 10
14621.0666
 20
46136.3745
  0
VERTEX
  8
LAYER24
 62
     8
  6
CONTINUOUS
 10
14841.7722
 20
46092.2470
  0
VERTEX
  8
LAYER24
 62
     8
  6
CONTINUOUS
 10
14996.2543
 20
46092.2470
  0
VERTEX
  8
LAYER24
 62
     8
  6
CONTINUOUS
 10
15095.5663
 20
46125.3474
  0
VERTEX
  8
LAYER24
 62
     8
  6
CONTINUOUS
 10
15128.6715
 20
46202.5801
  0
VERTEX
  8
LAYER24
 62
     8
  6
CONTINUOUS
 10
15095.5663
 20
46312.9371
  0
VERTEX
  8
LAYER24
 62
     8
  6
CONTINUOUS
 10
14996.2543
 20
46390.1841
  0
VERTEX
  8
LAYER24
 62
     8
  6
CONTINUOUS
 10
14907.9814
 20
46401.2065
  0
VERTEX
  8
LAYER24
 62
     8
  6
CONTINUOUS
 10
14808.6682
 20
46401.2065
  0
VERTEX
  8
LAYER24
 62
     8
  6
CONTINUOUS
 10
14543.8338
 20
46312.9371
  0
SEQEND
  8
LAYER24
  0
POLYLINE
  8
LAYER24
 62
     8
 66
     1
  6
CONTINUOUS
  0
VERTEX
  8
LAYER24
 62
     8
  6
CONTINUOUS
 10
13981.0600
 20
45077.0371
  0
VERTEX
  8
LAYER24
 62
     8
  6
CONTINUOUS
 10
13837.6026
 20
45121.1790
  0
VERTEX
  8
LAYER24
 62
     8
  6
CONTINUOUS
 10
13782.4348
 20
45165.3256
  0
VERTEX
  8
LAYER24
 62
     8
  6
CONTINUOUS
 10
13694.1463
 20
45198.4308
  0
VERTEX
  8
LAYER24
 62
     8
  6
CONTINUOUS
 10
13605.8734
 20
45198.4308
  0
VERTEX
  8
LAYER24
 62
     8
  6
CONTINUOUS
 10
13495.5200
 20
45176.3479
  0
VERTEX
  8
LAYER24
 62
     8
  6
CONTINUOUS
 10
13352.0781
 20
45099.1152
  0
VERTEX
  8
LAYER24
 62
     8
  6
CONTINUOUS
 10
13219.6609
 20
44966.6849
  0
VERTEX
  8
LAYER24
 62
     8
  6
CONTINUOUS
 10
13175.5167
 20
44834.2832
  0
VERTEX
  8
LAYER24
 62
     8
  6
CONTINUOUS
 10
13197.5816
 20
44701.8625
  0
VERTEX
  8
LAYER24
 62
     8
  6
CONTINUOUS
 10
13263.7896
 20
44602.5517
  0
VERTEX
  8
LAYER24
 62
     8
  6
CONTINUOUS
 10
13374.1430
 20
44602.5517
  0
VERTEX
  8
LAYER24
 62
     8
  6
CONTINUOUS
 10
13473.4550
 20
44657.7206
  0
VERTEX
  8
LAYER24
 62
     8
  6
CONTINUOUS
 10
13572.7682
 20
44723.9262
  0
VERTEX
  8
LAYER24
 62
     8
  6
CONTINUOUS
 10
13760.3543
 20
44757.0314
  0
SEQEND
  8
LAYER24
  0
POLYLINE
  8
LAYER24
 62
     8
 66
     1
  6
CONTINUOUS
  0
VERTEX
  8
LAYER24
 62
     8
  6
CONTINUOUS
 10
11211.3228
 20
43190.0891
  0
VERTEX
  8
LAYER24
 62
     8
  6
CONTINUOUS
 10
11189.2579
 20
43112.8564
  0
VERTEX
  8
LAYER24
 62
     8
  6
CONTINUOUS
 10
11222.3619
 20
43002.5042
  0
VERTEX
  8
LAYER24
 62
     8
  6
CONTINUOUS
 10
11277.5308
 20
42836.9830
  0
VERTEX
  8
LAYER24
 62
     8
  6
CONTINUOUS
 10
11321.6750
 20
42693.5256
  0
VERTEX
  8
LAYER24
 62
     8
  6
CONTINUOUS
 10
11398.9244
 20
42516.9773
  0
VERTEX
  8
LAYER24
 62
     8
  6
CONTINUOUS
 10
11509.2612
 20
42351.4561
  0
VERTEX
  8
LAYER24
 62
     8
  6
CONTINUOUS
 10
11608.5743
 20
42219.0401
  0
VERTEX
  8
LAYER24
 62
     8
  6
CONTINUOUS
 10
11685.8226
 20
42097.6465
  0
VERTEX
  8
LAYER24
 62
     8
  6
CONTINUOUS
 10
11829.2800
 20
41943.1668
  0
VERTEX
  8
LAYER24
 62
     8
  6
CONTINUOUS
 10
11862.3840
 20
41843.8512
  0
VERTEX
  8
LAYER24
 62
     8
  6
CONTINUOUS
 10
11752.0317
 20
41799.7094
  0
VERTEX
  8
LAYER24
 62
     8
  6
CONTINUOUS
 10
11586.5094
 20
41799.7094
  0
VERTEX
  8
LAYER24
 62
     8
  6
CONTINUOUS
 10
11465.1324
 20
41854.8926
  0
VERTEX
  8
LAYER24
 62
     8
  6
CONTINUOUS
 10
11343.7400
 20
41965.2305
  0
VERTEX
  8
LAYER24
 62
     8
  6
CONTINUOUS
 10
11222.3619
 20
42108.6879
  0
VERTEX
  8
LAYER24
 62
     8
  6
CONTINUOUS
 10
11089.9447
 20
42340.4195
  0
VERTEX
  8
LAYER24
 62
     8
  6
CONTINUOUS
 10
11012.6965
 20
42494.8992
  0
VERTEX
  8
LAYER24
 62
     8
  6
CONTINUOUS
 10
10968.5677
 20
42660.4204
  0
VERTEX
  8
LAYER24
 62
     8
  6
CONTINUOUS
 10
10924.4235
 20
42814.9192
  0
VERTEX
  8
LAYER24
 62
     8
  6
CONTINUOUS
 10
10946.4885
 20
43168.0253
  0
VERTEX
  8
LAYER24
 62
     8
  6
CONTINUOUS
 10
11189.2579
 20
43112.8564
  0
SEQEND
  8
LAYER24
  0
POLYLINE
  8
LAYER24
 62
     8
 66
     1
  6
CONTINUOUS
  0
VERTEX
  8
LAYER24
 62
     8
  6
CONTINUOUS
 10
10218.1934
 20
41634.1882
  0
VERTEX
  8
LAYER24
 62
     8
  6
CONTINUOUS
 10
10218.1934
 20
41711.4352
  0
VERTEX
  8
LAYER24
 62
     8
  6
CONTINUOUS
 10
10129.9205
 20
42064.5413
  0
VERTEX
  8
LAYER24
 62
     8
  6
CONTINUOUS
 10
10063.7113
 20
42252.1453
  0
VERTEX
  8
LAYER24
 62
     8
  6
CONTINUOUS
 10
9964.3981
 20
42450.7717
  0
VERTEX
  8
LAYER24
 62
     8
  6
CONTINUOUS
 10
9909.2291
 20
42583.1877
  0
VERTEX
  8
LAYER24
 62
     8
  6
CONTINUOUS
 10
9854.0453
 20
42715.6037
  0
VERTEX
  8
LAYER24
 62
     8
  6
CONTINUOUS
 10
9765.7723
 20
42825.9416
  0
VERTEX
  8
LAYER24
 62
     8
  6
CONTINUOUS
 10
9655.4195
 20
42936.2938
  0
VERTEX
  8
LAYER24
 62
     8
  6
CONTINUOUS
 10
9534.0420
 20
42980.4404
  0
VERTEX
  8
LAYER24
 62
     8
  6
CONTINUOUS
 10
9423.6892
 20
42980.4404
  0
VERTEX
  8
LAYER24
 62
     8
  6
CONTINUOUS
 10
9225.0634
 20
42947.3352
  0
VERTEX
  8
LAYER24
 62
     8
  6
CONTINUOUS
 10
9081.6215
 20
42892.1519
  0
VERTEX
  8
LAYER24
 62
     8
  6
CONTINUOUS
 10
8938.1647
 20
42748.7088
  0
VERTEX
  8
LAYER24
 62
     8
  6
CONTINUOUS
 10
8871.9561
 20
42638.3566
  0
VERTEX
  8
LAYER24
 62
     8
  6
CONTINUOUS
 10
8838.8515
 20
42539.0458
  0
VERTEX
  8
LAYER24
 62
     8
  6
CONTINUOUS
 10
9026.4376
 20
42307.3143
  0
VERTEX
  8
LAYER24
 62
     8
  6
CONTINUOUS
 10
9191.9588
 20
42152.8298
  0
VERTEX
  8
LAYER24
 62
     8
  6
CONTINUOUS
 10
9335.4162
 20
42009.3771
  0
VERTEX
  8
LAYER24
 62
     8
  6
CONTINUOUS
 10
9434.7288
 20
41854.8926
  0
VERTEX
  8
LAYER24
 62
     8
  6
CONTINUOUS
 10
9511.9776
 20
41700.3938
  0
VERTEX
  8
LAYER24
 62
     8
  6
CONTINUOUS
 10
9578.1862
 20
41545.9140
  0
VERTEX
  8
LAYER24
 62
     8
  6
CONTINUOUS
 10
9633.3552
 20
41413.4981
  0
VERTEX
  8
LAYER24
 62
     8
  6
CONTINUOUS
 10
9677.4994
 20
41303.1458
  0
VERTEX
  8
LAYER24
 62
     8
  6
CONTINUOUS
 10
9732.6677
 20
41192.8079
  0
VERTEX
  8
LAYER24
 62
     8
  6
CONTINUOUS
 10
9898.1895
 20
41192.8079
  0
VERTEX
  8
LAYER24
 62
     8
  6
CONTINUOUS
 10
9997.5033
 20
41247.9769
  0
VERTEX
  8
LAYER24
 62
     8
  6
CONTINUOUS
 10
10096.8165
 20
41336.2463
  0
VERTEX
  8
LAYER24
 62
     8
  6
CONTINUOUS
 10
10096.8165
 20
41336.2463
  0
SEQEND
  8
LAYER24
  0
POLYLINE
  8
LAYER24
 62
     8
 66
     1
  6
CONTINUOUS
  0
VERTEX
  8
LAYER24
 62
     8
  6
CONTINUOUS
 10
10096.8165
 20
41336.2463
  0
VERTEX
  8
LAYER24
 62
     8
  6
CONTINUOUS
 10
10218.1934
 20
41634.1882
  0
SEQEND
  8
LAYER24
  0
POLYLINE
  8
LAYER24
 62
     8
 66
     1
  6
CONTINUOUS
  0
VERTEX
  8
LAYER24
 62
     8
  6
CONTINUOUS
 10
10218.1934
 20
41711.4352
  0
VERTEX
  8
LAYER24
 62
     8
  6
CONTINUOUS
 10
10394.7548
 20
41755.5818
  0
VERTEX
  8
LAYER24
 62
     8
  6
CONTINUOUS
 10
10505.1070
 20
41810.7508
  0
VERTEX
  8
LAYER24
 62
     8
  6
CONTINUOUS
 10
10582.3409
 20
41711.4352
  0
VERTEX
  8
LAYER24
 62
     8
  6
CONTINUOUS
 10
10604.4202
 20
41590.0606
  0
VERTEX
  8
LAYER24
 62
     8
  6
CONTINUOUS
 10
10681.6529
 20
41512.8089
  0
VERTEX
  8
LAYER24
 62
     8
  6
CONTINUOUS
 10
10803.0466
 20
41457.6399
  0
VERTEX
  8
LAYER24
 62
     8
  6
CONTINUOUS
 10
10924.4235
 20
41380.3929
  0
VERTEX
  8
LAYER24
 62
     8
  6
CONTINUOUS
 10
11001.6717
 20
41292.1187
  0
VERTEX
  8
LAYER24
 62
     8
  6
CONTINUOUS
 10
10968.5677
 20
41203.8303
  0
VERTEX
  8
LAYER24
 62
     8
  6
CONTINUOUS
 10
10891.3195
 20
41148.6613
  0
VERTEX
  8
LAYER24
 62
     8
  6
CONTINUOUS
 10
10769.9426
 20
41082.4557
  0
VERTEX
  8
LAYER24
 62
     8
  6
CONTINUOUS
 10
10659.5892
 20
41005.2039
  0
VERTEX
  8
LAYER24
 62
     8
  6
CONTINUOUS
 10
10604.4202
 20
40894.8660
  0
VERTEX
  8
LAYER24
 62
     8
  6
CONTINUOUS
 10
10549.2358
 20
40751.4086
  0
VERTEX
  8
LAYER24
 62
     8
  6
CONTINUOUS
 10
10483.0278
 20
40674.1616
  0
VERTEX
  8
LAYER24
 62
     8
  6
CONTINUOUS
 10
10174.0647
 20
40751.4086
  0
SEQEND
  8
LAYER24
  0
POLYLINE
  8
LAYER24
 62
     8
 66
     1
  6
CONTINUOUS
  0
VERTEX
  8
LAYER24
 62
     8
  6
CONTINUOUS
 10
9732.6677
 20
41192.8079
  0
VERTEX
  8
LAYER24
 62
     8
  6
CONTINUOUS
 10
9589.2109
 20
41170.7251
  0
SEQEND
  8
LAYER24
  0
POLYLINE
  8
LAYER24
 62
     8
 66
     1
  6
CONTINUOUS
  0
VERTEX
  8
LAYER24
 62
     8
  6
CONTINUOUS
 10
10593.3800
 20
40276.9089
  0
VERTEX
  8
LAYER24
 62
     8
  6
CONTINUOUS
 10
10604.4202
 20
40298.9917
  0
VERTEX
  8
LAYER24
 62
     8
  6
CONTINUOUS
 10
10637.5254
 20
40420.3663
  0
VERTEX
  8
LAYER24
 62
     8
  6
CONTINUOUS
 10
10836.1506
 20
40541.7456
  0
VERTEX
  8
LAYER24
 62
     8
  6
CONTINUOUS
 10
10979.5925
 20
40552.7870
  0
VERTEX
  8
LAYER24
 62
     8
  6
CONTINUOUS
 10
11134.0889
 20
40607.9560
  0
VERTEX
  8
LAYER24
 62
     8
  6
CONTINUOUS
 10
11454.0922
 20
40718.3082
  0
VERTEX
  8
LAYER24
 62
     8
  6
CONTINUOUS
 10
11707.8875
 20
40762.4500
  0
VERTEX
  8
LAYER24
 62
     8
  6
CONTINUOUS
 10
11928.5931
 20
40784.5138
  0
VERTEX
  8
LAYER24
 62
     8
  6
CONTINUOUS
 10
12138.2430
 20
40839.6828
  0
VERTEX
  8
LAYER24
 62
     8
  6
CONTINUOUS
 10
12314.8044
 20
40916.9345
  0
VERTEX
  8
LAYER24
 62
     8
  6
CONTINUOUS
 10
12656.8882
 20
41082.4557
  0
VERTEX
  8
LAYER24
 62
     8
  6
CONTINUOUS
 10
12767.2249
 20
41137.6247
  0
VERTEX
  8
LAYER24
 62
     8
  6
CONTINUOUS
 10
12921.7226
 20
41203.8303
  0
VERTEX
  8
LAYER24
 62
     8
  6
CONTINUOUS
 10
13164.4765
 20
41303.1458
  0
VERTEX
  8
LAYER24
 62
     8
  6
CONTINUOUS
 10
13341.0378
 20
41336.2463
  0
VERTEX
  8
LAYER24
 62
     8
  6
CONTINUOUS
 10
13495.5200
 20
41336.2463
  0
VERTEX
  8
LAYER24
 62
     8
  6
CONTINUOUS
 10
13572.7682
 20
41281.0821
  0
VERTEX
  8
LAYER24
 62
     8
  6
CONTINUOUS
 10
13583.8084
 20
41137.6247
  0
VERTEX
  8
LAYER24
 62
     8
  6
CONTINUOUS
 10
13517.6004
 20
41038.3091
  0
VERTEX
  8
LAYER24
 62
     8
  6
CONTINUOUS
 10
13396.2068
 20
40916.9345
  0
VERTEX
  8
LAYER24
 62
     8
  6
CONTINUOUS
 10
13219.6609
 20
40784.5138
  0
VERTEX
  8
LAYER24
 62
     8
  6
CONTINUOUS
 10
12998.9553
 20
40663.1392
  0
VERTEX
  8
LAYER24
 62
     8
  6
CONTINUOUS
 10
12833.4341
 20
40596.9289
  0
VERTEX
  8
LAYER24
 62
     8
  6
CONTINUOUS
 10
12579.6388
 20
40497.6181
  0
VERTEX
  8
LAYER24
 62
     8
  6
CONTINUOUS
 10
12381.0136
 20
40409.3296
  0
VERTEX
  8
LAYER24
 62
     8
  6
CONTINUOUS
 10
12094.1143
 20
40298.9917
  0
VERTEX
  8
LAYER24
 62
     8
  6
CONTINUOUS
 10
11818.2397
 20
40221.7399
  0
VERTEX
  8
LAYER24
 62
     8
  6
CONTINUOUS
 10
11564.4456
 20
40177.5981
  0
VERTEX
  8
LAYER24
 62
     8
  6
CONTINUOUS
 10
11365.8193
 20
40122.4291
  0
VERTEX
  8
LAYER24
 62
     8
  6
CONTINUOUS
 10
10979.5925
 20
40023.1183
  0
VERTEX
  8
LAYER24
 62
     8
  6
CONTINUOUS
 10
10935.4637
 20
40045.1821
  0
VERTEX
  8
LAYER24
 62
     8
  6
CONTINUOUS
 10
10913.3833
 20
40089.3239
  0
VERTEX
  8
LAYER24
 62
     8
  6
CONTINUOUS
 10
10891.3195
 20
40144.4929
  0
VERTEX
  8
LAYER24
 62
     8
  6
CONTINUOUS
 10
10869.2545
 20
40188.6395
  0
VERTEX
  8
LAYER24
 62
     8
  6
CONTINUOUS
 10
10825.1103
 20
40221.7399
  0
VERTEX
  8
LAYER24
 62
     8
  6
CONTINUOUS
 10
10736.8374
 20
40232.7813
  0
VERTEX
  8
LAYER24
 62
     8
  6
CONTINUOUS
 10
10593.3800
 20
40276.9089
  0
SEQEND
  8
LAYER24
  0
POLYLINE
  8
LAYER24
 62
     8
 66
     1
  6
CONTINUOUS
  0
VERTEX
  8
LAYER24
 62
     8
  6
CONTINUOUS
 10
9478.8736
 20
34053.3004
  0
VERTEX
  8
LAYER24
 62
     8
  6
CONTINUOUS
 10
9534.0420
 20
34108.4837
  0
VERTEX
  8
LAYER24
 62
     8
  6
CONTINUOUS
 10
9567.1466
 20
34174.6941
  0
VERTEX
  8
LAYER24
 62
     8
  6
CONTINUOUS
 10
9699.5637
 20
34307.1101
  0
VERTEX
  8
LAYER24
 62
     8
  6
CONTINUOUS
 10
9854.0453
 20
34450.5532
  0
VERTEX
  8
LAYER24
 62
     8
  6
CONTINUOUS
 10
10008.5435
 20
34605.0472
  0
VERTEX
  8
LAYER24
 62
     8
  6
CONTINUOUS
 10
10185.0894
 20
34770.5684
  0
VERTEX
  8
LAYER24
 62
     8
  6
CONTINUOUS
 10
10262.3376
 20
34858.8425
  0
VERTEX
  8
LAYER24
 62
     8
  6
CONTINUOUS
 10
10339.5858
 20
34969.1947
  0
VERTEX
  8
LAYER24
 62
     8
  6
CONTINUOUS
 10
10449.9238
 20
35123.6769
  0
VERTEX
  8
LAYER24
 62
     8
  6
CONTINUOUS
 10
10560.2760
 20
35267.1319
  0
VERTEX
  8
LAYER24
 62
     8
  6
CONTINUOUS
 10
10692.6932
 20
35421.6164
  0
SEQEND
  8
LAYER24
  0
POLYLINE
  8
LAYER24
 62
     8
 66
     1
  6
CONTINUOUS
  0
VERTEX
  8
LAYER24
 62
     8
  6
CONTINUOUS
 10
10858.2155
 20
35145.7406
  0
VERTEX
  8
LAYER24
 62
     8
  6
CONTINUOUS
 10
10803.0466
 20
35090.5717
  0
VERTEX
  8
LAYER24
 62
     8
  6
CONTINUOUS
 10
10747.8621
 20
35024.3661
  0
VERTEX
  8
LAYER24
 62
     8
  6
CONTINUOUS
 10
10615.4449
 20
34914.0091
  0
VERTEX
  8
LAYER24
 62
     8
  6
CONTINUOUS
 10
10449.9238
 20
34759.5293
  0
VERTEX
  8
LAYER24
 62
     8
  6
CONTINUOUS
 10
10328.5456
 20
34649.1771
  0
VERTEX
  8
LAYER24
 62
     8
  6
CONTINUOUS
 10
10174.0647
 20
34494.6950
  0
VERTEX
  8
LAYER24
 62
     8
  6
CONTINUOUS
 10
10030.6073
 20
34362.2766
  0
VERTEX
  8
LAYER24
 62
     8
  6
CONTINUOUS
 10
9876.1251
 20
34218.8216
  0
VERTEX
  8
LAYER24
 62
     8
  6
CONTINUOUS
 10
9765.7723
 20
34130.5475
  0
VERTEX
  8
LAYER24
 62
     8
  6
CONTINUOUS
 10
9666.4592
 20
34042.2733
  0
VERTEX
  8
LAYER24
 62
     8
  6
CONTINUOUS
 10
9534.0420
 20
34108.4837
  0
SEQEND
  8
LAYER24
  0
POLYLINE
  8
LAYER24
 62
     8
 66
     1
  6
CONTINUOUS
  0
VERTEX
  8
LAYER24
 62
     8
  6
CONTINUOUS
 10
10858.2155
 20
35189.8849
  0
VERTEX
  8
LAYER24
 62
     8
  6
CONTINUOUS
 10
10858.2155
 20
35211.9486
  0
VERTEX
  8
LAYER24
 62
     8
  6
CONTINUOUS
 10
10902.3597
 20
35256.0929
  0
VERTEX
  8
LAYER24
 62
     8
  6
CONTINUOUS
 10
10957.5275
 20
35333.3446
  0
VERTEX
  8
LAYER24
 62
     8
  6
CONTINUOUS
 10
11001.6717
 20
35410.5774
  0
VERTEX
  8
LAYER24
 62
     8
  6
CONTINUOUS
 10
11034.7769
 20
35476.7854
  0
VERTEX
  8
LAYER24
 62
     8
  6
CONTINUOUS
 10
11034.7769
 20
35531.9710
  0
VERTEX
  8
LAYER24
 62
     8
  6
CONTINUOUS
 10
11012.6965
 20
35587.1376
  0
VERTEX
  8
LAYER24
 62
     8
  6
CONTINUOUS
 10
10979.5925
 20
35587.1352
  0
VERTEX
  8
LAYER24
 62
     8
  6
CONTINUOUS
 10
10935.4637
 20
35587.1376
  0
VERTEX
  8
LAYER24
 62
     8
  6
CONTINUOUS
 10
10869.2545
 20
35542.9910
  0
VERTEX
  8
LAYER24
 62
     8
  6
CONTINUOUS
 10
10814.0713
 20
35487.8244
  0
VERTEX
  8
LAYER24
 62
     8
  6
CONTINUOUS
 10
10692.6932
 20
35421.6164
  0
SEQEND
  8
LAYER24
  0
POLYLINE
  8
LAYER24
 62
     8
 66
     1
  6
CONTINUOUS
  0
VERTEX
  8
LAYER24
 62
     8
  6
CONTINUOUS
 10
10659.5892
 20
33843.6470
  0
VERTEX
  8
LAYER24
 62
     8
  6
CONTINUOUS
 10
10626.4852
 20
33821.5713
  0
VERTEX
  8
LAYER24
 62
     8
  6
CONTINUOUS
 10
10747.8621
 20
33667.0891
  0
VERTEX
  8
LAYER24
 62
     8
  6
CONTINUOUS
 10
10858.2155
 20
33656.0453
  0
VERTEX
  8
LAYER24
 62
     8
  6
CONTINUOUS
 10
10990.6327
 20
33645.0254
  0
VERTEX
  8
LAYER24
 62
     8
  6
CONTINUOUS
 10
11134.0889
 20
33645.0230
  0
VERTEX
  8
LAYER24
 62
     8
  6
CONTINUOUS
 10
11200.2981
 20
33678.1282
  0
VERTEX
  8
LAYER24
 62
     8
  6
CONTINUOUS
 10
11200.2981
 20
33733.2971
  0
VERTEX
  8
LAYER24
 62
     8
  6
CONTINUOUS
 10
11145.1136
 20
33744.3338
  0
VERTEX
  8
LAYER24
 62
     8
  6
CONTINUOUS
 10
11045.8005
 20
33755.3585
  0
VERTEX
  8
LAYER24
 62
     8
  6
CONTINUOUS
 10
10946.4885
 20
33766.4023
  0
VERTEX
  8
LAYER24
 62
     8
  6
CONTINUOUS
 10
10880.2793
 20
33766.3999
  0
VERTEX
  8
LAYER24
 62
     8
  6
CONTINUOUS
 10
10626.4852
 20
33821.5713
  0
SEQEND
  8
LAYER24
  0
POLYLINE
  8
LAYER24
 62
     8
 66
     1
  6
CONTINUOUS
  0
VERTEX
  8
LAYER24
 62
     8
  6
CONTINUOUS
 10
11354.7802
 20
34285.0296
  0
VERTEX
  8
LAYER24
 62
     8
  6
CONTINUOUS
 10
11376.8440
 20
34296.0710
  0
VERTEX
  8
LAYER24
 62
     8
  6
CONTINUOUS
 10
11487.1974
 20
34251.9244
  0
VERTEX
  8
LAYER24
 62
     8
  6
CONTINUOUS
 10
11586.5094
 20
34152.6136
  0
VERTEX
  8
LAYER24
 62
     8
  6
CONTINUOUS
 10
11674.7823
 20
34053.2981
  0
VERTEX
  8
LAYER24
 62
     8
  6
CONTINUOUS
 10
11774.0955
 20
33942.9601
  0
VERTEX
  8
LAYER24
 62
     8
  6
CONTINUOUS
 10
11862.3840
 20
33953.9849
  0
VERTEX
  8
LAYER24
 62
     8
  6
CONTINUOUS
 10
11950.6569
 20
34075.3809
  0
VERTEX
  8
LAYER24
 62
     8
  6
CONTINUOUS
 10
12038.9299
 20
34218.8216
  0
VERTEX
  8
LAYER24
 62
     8
  6
CONTINUOUS
 10
12105.1391
 20
34373.3180
  0
VERTEX
  8
LAYER24
 62
     8
  6
CONTINUOUS
 10
12105.1391
 20
34483.6560
  0
VERTEX
  8
LAYER24
 62
     8
  6
CONTINUOUS
 10
12038.9299
 20
34549.8640
  0
VERTEX
  8
LAYER24
 62
     8
  6
CONTINUOUS
 10
11917.5529
 20
34560.9030
  0
VERTEX
  8
LAYER24
 62
     8
  6
CONTINUOUS
 10
11818.2397
 20
34560.9030
  0
VERTEX
  8
LAYER24
 62
     8
  6
CONTINUOUS
 10
11696.8628
 20
34538.8392
  0
VERTEX
  8
LAYER24
 62
     8
  6
CONTINUOUS
 10
11586.5094
 20
34483.6560
  0
VERTEX
  8
LAYER24
 62
     8
  6
CONTINUOUS
 10
11376.8440
 20
34296.0710
  0
SEQEND
  8
LAYER24
  0
POLYLINE
  8
LAYER24
 62
     8
 66
     1
  6
CONTINUOUS
  0
VERTEX
  8
LAYER24
 62
     8
  6
CONTINUOUS
 10
12193.4275
 20
33093.2738
  0
VERTEX
  8
LAYER24
 62
     8
  6
CONTINUOUS
 10
12215.4913
 20
33104.3129
  0
VERTEX
  8
LAYER24
 62
     8
  6
CONTINUOUS
 10
12458.2618
 20
33258.7950
  0
VERTEX
  8
LAYER24
 62
     8
  6
CONTINUOUS
 10
12678.9520
 20
33380.1886
  0
VERTEX
  8
LAYER24
 62
     8
  6
CONTINUOUS
 10
12910.6823
 20
33479.5018
  0
VERTEX
  8
LAYER24
 62
     8
  6
CONTINUOUS
 10
13109.3087
 20
33589.8397
  0
VERTEX
  8
LAYER24
 62
     8
  6
CONTINUOUS
 10
13208.6207
 20
33700.1919
  0
VERTEX
  8
LAYER24
 62
     8
  6
CONTINUOUS
 10
13230.6856
 20
33832.6103
  0
VERTEX
  8
LAYER24
 62
     8
  6
CONTINUOUS
 10
13186.5569
 20
33898.8183
  0
VERTEX
  8
LAYER24
 62
     8
  6
CONTINUOUS
 10
13065.1633
 20
33887.7793
  0
VERTEX
  8
LAYER24
 62
     8
  6
CONTINUOUS
 10
12932.7461
 20
33810.5465
  0
VERTEX
  8
LAYER24
 62
     8
  6
CONTINUOUS
 10
12767.2249
 20
33711.2334
  0
VERTEX
  8
LAYER24
 62
     8
  6
CONTINUOUS
 10
12623.7830
 20
33622.9449
  0
VERTEX
  8
LAYER24
 62
     8
  6
CONTINUOUS
 10
12502.3906
 20
33534.6708
  0
VERTEX
  8
LAYER24
 62
     8
  6
CONTINUOUS
 10
12414.1176
 20
33468.4628
  0
VERTEX
  8
LAYER24
 62
     8
  6
CONTINUOUS
 10
12292.7407
 20
33369.1496
  0
VERTEX
  8
LAYER24
 62
     8
  6
CONTINUOUS
 10
12237.5562
 20
33192.5870
  0
SEQEND
  8
LAYER24
  0
POLYLINE
  8
LAYER24
 62
     8
 66
     1
  6
CONTINUOUS
  0
VERTEX
  8
LAYER24
 62
     8
  6
CONTINUOUS
 10
11365.8193
 20
34130.5498
  0
VERTEX
  8
LAYER24
 62
     8
  6
CONTINUOUS
 10
11365.8193
 20
34075.3809
  0
VERTEX
  8
LAYER24
 62
     8
  6
CONTINUOUS
 10
11387.8842
 20
33976.0653
  0
VERTEX
  8
LAYER24
 62
     8
  6
CONTINUOUS
 10
11420.9882
 20
33865.7155
  0
VERTEX
  8
LAYER24
 62
     8
  6
CONTINUOUS
 10
11443.0532
 20
33799.5027
  0
VERTEX
  8
LAYER24
 62
     8
  6
CONTINUOUS
 10
11398.9244
 20
33788.4661
  0
VERTEX
  8
LAYER24
 62
     8
  6
CONTINUOUS
 10
11310.6348
 20
33832.6079
  0
VERTEX
  8
LAYER24
 62
     8
  6
CONTINUOUS
 10
11233.4021
 20
33898.8159
  0
VERTEX
  8
LAYER24
 62
     8
  6
CONTINUOUS
 10
11189.2579
 20
33942.9601
  0
VERTEX
  8
LAYER24
 62
     8
  6
CONTINUOUS
 10
11189.2579
 20
33987.0901
  0
VERTEX
  8
LAYER24
 62
     8
  6
CONTINUOUS
 10
11365.8193
 20
34075.3809
  0
SEQEND
  8
LAYER24
  0
POLYLINE
  8
LAYER24
 62
     8
 66
     1
  6
CONTINUOUS
  0
VERTEX
  8
LAYER24
 62
     8
  6
CONTINUOUS
 10
17445.9727
 20
43609.4199
  0
VERTEX
  8
LAYER24
 62
     8
  6
CONTINUOUS
 10
17512.1818
 20
43741.8406
  0
VERTEX
  8
LAYER24
 62
     8
  6
CONTINUOUS
 10
17589.4301
 20
43774.9411
  0
VERTEX
  8
LAYER24
 62
     8
  6
CONTINUOUS
 10
17887.3684
 20
43885.2790
  0
VERTEX
  8
LAYER24
 62
     8
  6
CONTINUOUS
 10
18097.0195
 20
43962.5308
  0
VERTEX
  8
LAYER24
 62
     8
  6
CONTINUOUS
 10
18361.8539
 20
44083.9196
  0
VERTEX
  8
LAYER24
 62
     8
  6
CONTINUOUS
 10
18670.8324
 20
44238.4042
  0
VERTEX
  8
LAYER24
 62
     8
  6
CONTINUOUS
 10
18902.5628
 20
44348.7421
  0
VERTEX
  8
LAYER24
 62
     8
  6
CONTINUOUS
 10
19046.0202
 20
44425.9891
  0
VERTEX
  8
LAYER24
 62
     8
  6
CONTINUOUS
 10
19167.3971
 20
44514.2632
  0
VERTEX
  8
LAYER24
 62
     8
  6
CONTINUOUS
 10
19321.8781
 20
44657.7206
  0
VERTEX
  8
LAYER24
 62
     8
  6
CONTINUOUS
 10
19454.2953
 20
44812.2004
  0
VERTEX
  8
LAYER24
 62
     8
  6
CONTINUOUS
 10
19520.5056
 20
44944.6164
  0
VERTEX
  8
LAYER24
 62
     8
  6
CONTINUOUS
 10
19542.5861
 20
45077.0371
  0
VERTEX
  8
LAYER24
 62
     8
  6
CONTINUOUS
 10
19564.6499
 20
45209.4531
  0
VERTEX
  8
LAYER24
 62
     8
  6
CONTINUOUS
 10
19686.0268
 20
45198.4308
  0
VERTEX
  8
LAYER24
 62
     8
  6
CONTINUOUS
 10
19763.2762
 20
45132.2204
  0
VERTEX
  8
LAYER24
 62
     8
  6
CONTINUOUS
 10
19752.2360
 20
44977.7216
  0
VERTEX
  8
LAYER24
 62
     8
  6
CONTINUOUS
 10
19641.8981
 20
44723.9262
  0
VERTEX
  8
LAYER24
 62
     8
  6
CONTINUOUS
 10
19421.1913
 20
44437.0305
  0
VERTEX
  8
LAYER24
 62
     8
  6
CONTINUOUS
 10
19299.8143
 20
44326.6783
  0
VERTEX
  8
LAYER24
 62
     8
  6
CONTINUOUS
 10
19112.2282
 20
44227.3627
  0
VERTEX
  8
LAYER24
 62
     8
  6
CONTINUOUS
 10
18781.1846
 20
44072.8830
  0
VERTEX
  8
LAYER24
 62
     8
  6
CONTINUOUS
 10
18582.5595
 20
44006.6726
  0
VERTEX
  8
LAYER24
 62
     8
  6
CONTINUOUS
 10
18417.0383
 20
43940.4670
  0
VERTEX
  8
LAYER24
 62
     8
  6
CONTINUOUS
 10
18273.5809
 20
43874.2566
  0
VERTEX
  8
LAYER24
 62
     8
  6
CONTINUOUS
 10
18108.0585
 20
43808.0462
  0
VERTEX
  8
LAYER24
 62
     8
  6
CONTINUOUS
 10
17953.5776
 20
43741.8406
  0
VERTEX
  8
LAYER24
 62
     8
  6
CONTINUOUS
 10
17799.0800
 20
43675.6303
  0
VERTEX
  8
LAYER24
 62
     8
  6
CONTINUOUS
 10
17445.9727
 20
43609.4199
  0
SEQEND
  8
LAYER24
  0
POLYLINE
  8
LAYER24
 62
     8
 66
     1
  6
CONTINUOUS
  0
VERTEX
  8
LAYER24
 62
     8
  6
CONTINUOUS
 10
20932.9670
 20
41976.2719
  0
VERTEX
  8
LAYER24
 62
     8
  6
CONTINUOUS
 10
21032.2802
 20
41899.0392
  0
VERTEX
  8
LAYER24
 62
     8
  6
CONTINUOUS
 10
21153.6571
 20
41854.8926
  0
VERTEX
  8
LAYER24
 62
     8
  6
CONTINUOUS
 10
21264.0094
 20
41799.7094
  0
VERTEX
  8
LAYER24
 62
     8
  6
CONTINUOUS
 10
21440.5553
 20
41678.3300
  0
VERTEX
  8
LAYER24
 62
     8
  6
CONTINUOUS
 10
21539.8684
 20
41579.0192
  0
VERTEX
  8
LAYER24
 62
     8
  6
CONTINUOUS
 10
21495.7409
 20
41545.9140
  0
VERTEX
  8
LAYER24
 62
     8
  6
CONTINUOUS
 10
21330.2173
 20
41556.9412
  0
VERTEX
  8
LAYER24
 62
     8
  6
CONTINUOUS
 10
21208.8261
 20
41590.0606
  0
VERTEX
  8
LAYER24
 62
     8
  6
CONTINUOUS
 10
21054.3440
 20
41590.0606
  0
VERTEX
  8
LAYER24
 62
     8
  6
CONTINUOUS
 10
20778.4706
 20
41656.2663
  0
SEQEND
  8
LAYER24
  0
POLYLINE
  8
LAYER24
 62
     8
 66
     1
  6
CONTINUOUS
  0
VERTEX
  8
LAYER24
 62
     8
  6
CONTINUOUS
 10
18869.4576
 20
41590.0606
  0
VERTEX
  8
LAYER24
 62
     8
  6
CONTINUOUS
 10
18869.4576
 20
41601.0830
  0
VERTEX
  8
LAYER24
 62
     8
  6
CONTINUOUS
 10
18935.6668
 20
41634.1882
  0
VERTEX
  8
LAYER24
 62
     8
  6
CONTINUOUS
 10
19034.9800
 20
41700.3938
  0
VERTEX
  8
LAYER24
 62
     8
  6
CONTINUOUS
 10
19167.3971
 20
41788.6822
  0
VERTEX
  8
LAYER24
 62
     8
  6
CONTINUOUS
 10
19244.6454
 20
41876.9564
  0
VERTEX
  8
LAYER24
 62
     8
  6
CONTINUOUS
 10
19266.7103
 20
41932.1253
  0
VERTEX
  8
LAYER24
 62
     8
  6
CONTINUOUS
 10
19222.5661
 20
41965.2305
  0
VERTEX
  8
LAYER24
 62
     8
  6
CONTINUOUS
 10
19123.2529
 20
41954.2082
  0
VERTEX
  8
LAYER24
 62
     8
  6
CONTINUOUS
 10
19023.9397
 20
41899.0392
  0
VERTEX
  8
LAYER24
 62
     8
  6
CONTINUOUS
 10
18935.6668
 20
41854.8926
  0
VERTEX
  8
LAYER24
 62
     8
  6
CONTINUOUS
 10
18858.4186
 20
41788.6822
  0
VERTEX
  8
LAYER24
 62
     8
  6
CONTINUOUS
 10
18770.1456
 20
41623.1611
  0
SEQEND
  8
LAYER24
  0
POLYLINE
  8
LAYER24
 62
     8
 66
     1
  6
CONTINUOUS
  0
VERTEX
  8
LAYER24
 62
     8
  6
CONTINUOUS
 10
18450.1423
 20
42075.5827
  0
VERTEX
  8
LAYER24
 62
     8
  6
CONTINUOUS
 10
18428.0618
 20
42108.6879
  0
VERTEX
  8
LAYER24
 62
     8
  6
CONTINUOUS
 10
18516.3503
 20
42130.7517
  0
VERTEX
  8
LAYER24
 62
     8
  6
CONTINUOUS
 10
18648.7675
 20
42130.7517
  0
VERTEX
  8
LAYER24
 62
     8
  6
CONTINUOUS
 10
18803.2496
 20
42130.7517
  0
VERTEX
  8
LAYER24
 62
     8
  6
CONTINUOUS
 10
18913.6030
 20
42097.6465
  0
VERTEX
  8
LAYER24
 62
     8
  6
CONTINUOUS
 10
18990.8357
 20
42042.4776
  0
VERTEX
  8
LAYER24
 62
     8
  6
CONTINUOUS
 10
19034.9800
 20
41987.3086
  0
VERTEX
  8
LAYER24
 62
     8
  6
CONTINUOUS
 10
18990.8357
 20
41976.2719
  0
VERTEX
  8
LAYER24
 62
     8
  6
CONTINUOUS
 10
18858.4186
 20
41976.2719
  0
VERTEX
  8
LAYER24
 62
     8
  6
CONTINUOUS
 10
18792.2094
 20
41998.3357
  0
VERTEX
  8
LAYER24
 62
     8
  6
CONTINUOUS
 10
18703.9364
 20
42020.4138
  0
VERTEX
  8
LAYER24
 62
     8
  6
CONTINUOUS
 10
18593.5842
 20
42053.5190
  0
VERTEX
  8
LAYER24
 62
     8
  6
CONTINUOUS
 10
18516.3503
 20
42130.7517
  0
SEQEND
  8
LAYER24
  0
POLYLINE
  8
LAYER24
 62
     8
 66
     1
  6
CONTINUOUS
  0
VERTEX
  8
LAYER24
 62
     8
  6
CONTINUOUS
 10
17026.6562
 20
42583.1877
  0
VERTEX
  8
LAYER24
 62
     8
  6
CONTINUOUS
 10
16982.5120
 20
42583.1877
  0
VERTEX
  8
LAYER24
 62
     8
  6
CONTINUOUS
 10
16916.3040
 20
42528.0044
  0
VERTEX
  8
LAYER24
 62
     8
  6
CONTINUOUS
 10
16861.1350
 20
42417.6665
  0
VERTEX
  8
LAYER24
 62
     8
  6
CONTINUOUS
 10
16861.1350
 20
42296.2729
  0
VERTEX
  8
LAYER24
 62
     8
  6
CONTINUOUS
 10
16960.4482
 20
42042.4776
  0
VERTEX
  8
LAYER24
 62
     8
  6
CONTINUOUS
 10
17048.7211
 20
41777.6456
  0
VERTEX
  8
LAYER24
 62
     8
  6
CONTINUOUS
 10
17081.8251
 20
41667.2934
  0
VERTEX
  8
LAYER24
 62
     8
  6
CONTINUOUS
 10
17159.0745
 20
41457.6399
  0
VERTEX
  8
LAYER24
 62
     8
  6
CONTINUOUS
 10
17225.2825
 20
41292.1187
  0
VERTEX
  8
LAYER24
 62
     8
  6
CONTINUOUS
 10
17269.4113
 20
41148.6613
  0
VERTEX
  8
LAYER24
 62
     8
  6
CONTINUOUS
 10
17368.7244
 20
40972.1035
  0
VERTEX
  8
LAYER24
 62
     8
  6
CONTINUOUS
 10
17501.1416
 20
40872.7879
  0
VERTEX
  8
LAYER24
 62
     8
  6
CONTINUOUS
 10
17600.4548
 20
40850.7242
  0
VERTEX
  8
LAYER24
 62
     8
  6
CONTINUOUS
 10
17644.5990
 20
40894.8660
  0
VERTEX
  8
LAYER24
 62
     8
  6
CONTINUOUS
 10
17666.6628
 20
40994.1816
  0
VERTEX
  8
LAYER24
 62
     8
  6
CONTINUOUS
 10
17666.6628
 20
41148.6613
  0
VERTEX
  8
LAYER24
 62
     8
  6
CONTINUOUS
 10
17611.4938
 20
41380.3929
  0
VERTEX
  8
LAYER24
 62
     8
  6
CONTINUOUS
 10
17556.3261
 20
41534.8726
  0
VERTEX
  8
LAYER24
 62
     8
  6
CONTINUOUS
 10
17501.1416
 20
41700.3938
  0
VERTEX
  8
LAYER24
 62
     8
  6
CONTINUOUS
 10
17457.0129
 20
41865.9197
  0
VERTEX
  8
LAYER24
 62
     8
  6
CONTINUOUS
 10
17401.8284
 20
41987.3086
  0
VERTEX
  8
LAYER24
 62
     8
  6
CONTINUOUS
 10
17346.6595
 20
42141.7931
  0
VERTEX
  8
LAYER24
 62
     8
  6
CONTINUOUS
 10
17269.4113
 20
42285.2315
  0
VERTEX
  8
LAYER24
 62
     8
  6
CONTINUOUS
 10
17148.0343
 20
42494.8992
  0
VERTEX
  8
LAYER24
 62
     8
  6
CONTINUOUS
 10
17070.7849
 20
42572.1463
  0
VERTEX
  8
LAYER24
 62
     8
  6
CONTINUOUS
 10
16982.5120
 20
42583.1877
  0
SEQEND
  8
LAYER24
  0
POLYLINE
  8
LAYER24
 62
     8
 66
     1
  6
CONTINUOUS
  0
VERTEX
  8
LAYER24
 62
     8
  6
CONTINUOUS
 10
17225.2825
 20
41292.1187
  0
VERTEX
  8
LAYER24
 62
     8
  6
CONTINUOUS
 10
17114.9291
 20
41303.1458
  0
VERTEX
  8
LAYER24
 62
     8
  6
CONTINUOUS
 10
17059.7614
 20
41303.1458
  0
VERTEX
  8
LAYER24
 62
     8
  6
CONTINUOUS
 10
16927.3442
 20
41281.0821
  0
VERTEX
  8
LAYER24
 62
     8
  6
CONTINUOUS
 10
16850.0948
 20
41259.0135
  0
VERTEX
  8
LAYER24
 62
     8
  6
CONTINUOUS
 10
16728.7178
 20
41225.9131
  0
VERTEX
  8
LAYER24
 62
     8
  6
CONTINUOUS
 10
16651.4696
 20
41192.8079
  0
VERTEX
  8
LAYER24
 62
     8
  6
CONTINUOUS
 10
16607.3254
 20
41159.7027
  0
VERTEX
  8
LAYER24
 62
     8
  6
CONTINUOUS
 10
16574.2202
 20
41104.5195
  0
VERTEX
  8
LAYER24
 62
     8
  6
CONTINUOUS
 10
16574.2202
 20
41005.2039
  0
VERTEX
  8
LAYER24
 62
     8
  6
CONTINUOUS
 10
16574.2202
 20
40961.0764
  0
VERTEX
  8
LAYER24
 62
     8
  6
CONTINUOUS
 10
16585.2604
 20
40961.0764
  0
VERTEX
  8
LAYER24
 62
     8
  6
CONTINUOUS
 10
16640.4294
 20
40961.0764
  0
VERTEX
  8
LAYER24
 62
     8
  6
CONTINUOUS
 10
16761.8218
 20
40983.1402
  0
VERTEX
  8
LAYER24
 62
     8
  6
CONTINUOUS
 10
16905.2637
 20
41016.2453
  0
VERTEX
  8
LAYER24
 62
     8
  6
CONTINUOUS
 10
17015.6171
 20
41049.3505
  0
VERTEX
  8
LAYER24
 62
     8
  6
CONTINUOUS
 10
17114.9291
 20
41049.3505
  0
VERTEX
  8
LAYER24
 62
     8
  6
CONTINUOUS
 10
17114.9291
 20
41049.3505
  0
SEQEND
  8
LAYER24
  0
POLYLINE
  8
LAYER24
 62
     8
 66
     1
  6
CONTINUOUS
  0
VERTEX
  8
LAYER24
 62
     8
  6
CONTINUOUS
 10
17666.6628
 20
41148.6613
  0
VERTEX
  8
LAYER24
 62
     8
  6
CONTINUOUS
 10
17688.7432
 20
41247.9769
  0
VERTEX
  8
LAYER24
 62
     8
  6
CONTINUOUS
 10
17799.0800
 20
41236.9355
  0
VERTEX
  8
LAYER24
 62
     8
  6
CONTINUOUS
 10
17920.4736
 20
41203.8303
  0
VERTEX
  8
LAYER24
 62
     8
  6
CONTINUOUS
 10
18063.9143
 20
41159.7027
  0
VERTEX
  8
LAYER24
 62
     8
  6
CONTINUOUS
 10
18207.3717
 20
41104.5195
  0
VERTEX
  8
LAYER24
 62
     8
  6
CONTINUOUS
 10
18350.8291
 20
41060.3919
  0
VERTEX
  8
LAYER24
 62
     8
  6
CONTINUOUS
 10
18428.0618
 20
40994.1816
  0
VERTEX
  8
LAYER24
 62
     8
  6
CONTINUOUS
 10
18439.1021
 20
40961.0764
  0
VERTEX
  8
LAYER24
 62
     8
  6
CONTINUOUS
 10
18372.8941
 20
40916.9345
  0
VERTEX
  8
LAYER24
 62
     8
  6
CONTINUOUS
 10
18284.6211
 20
40905.8931
  0
VERTEX
  8
LAYER24
 62
     8
  6
CONTINUOUS
 10
18174.2677
 20
40905.8931
  0
VERTEX
  8
LAYER24
 62
     8
  6
CONTINUOUS
 10
18052.8908
 20
40927.9712
  0
VERTEX
  8
LAYER24
 62
     8
  6
CONTINUOUS
 10
17942.5374
 20
40961.0764
  0
VERTEX
  8
LAYER24
 62
     8
  6
CONTINUOUS
 10
17854.2644
 20
40983.1402
  0
VERTEX
  8
LAYER24
 62
     8
  6
CONTINUOUS
 10
17666.6628
 20
40994.1816
  0
SEQEND
  8
LAYER24
  0
POLYLINE
  8
LAYER24
 62
     8
 66
     1
  6
CONTINUOUS
  0
VERTEX
  8
LAYER24
 62
     8
  6
CONTINUOUS
 10
17114.9291
 20
41049.3505
  0
VERTEX
  8
LAYER24
 62
     8
  6
CONTINUOUS
 10
17214.2423
 20
41016.2453
  0
VERTEX
  8
LAYER24
 62
     8
  6
CONTINUOUS
 10
17368.7244
 20
40972.1035
  0
SEQEND
  8
LAYER24
  0
POLYLINE
  8
LAYER24
 62
     8
 66
     1
  6
CONTINUOUS
  0
VERTEX
  8
LAYER24
 62
     8
  6
CONTINUOUS
 10
18538.4153
 20
39868.6338
  0
VERTEX
  8
LAYER24
 62
     8
  6
CONTINUOUS
 10
18273.5809
 20
39824.4896
  0
SEQEND
  8
LAYER24
  0
POLYLINE
  8
LAYER25
 62
     2
 66
     1
  6
CONTINUOUS
  0
VERTEX
  8
LAYER25
 62
     2
  6
CONTINUOUS
 10
20259.8409
 20
41843.8512
  0
VERTEX
  8
LAYER25
 62
     2
  6
CONTINUOUS
 10
20193.6329
 20
41876.9564
  0
VERTEX
  8
LAYER25
 62
     2
  6
CONTINUOUS
 10
20061.2146
 20
42042.4776
  0
VERTEX
  8
LAYER25
 62
     2
  6
CONTINUOUS
 10
19851.5492
 20
42351.4561
  0
VERTEX
  8
LAYER25
 62
     2
  6
CONTINUOUS
 10
19663.9630
 20
42572.1463
  0
VERTEX
  8
LAYER25
 62
     2
  6
CONTINUOUS
 10
19542.5861
 20
42715.6037
  0
VERTEX
  8
LAYER25
 62
     2
  6
CONTINUOUS
 10
19421.1913
 20
42836.9830
  0
VERTEX
  8
LAYER25
 62
     2
  6
CONTINUOUS
 10
19332.9183
 20
42892.1519
  0
VERTEX
  8
LAYER25
 62
     2
  6
CONTINUOUS
 10
19211.5414
 20
42881.1248
  0
VERTEX
  8
LAYER25
 62
     2
  6
CONTINUOUS
 10
19079.1242
 20
42848.0244
  0
VERTEX
  8
LAYER25
 62
     2
  6
CONTINUOUS
 10
18924.6266
 20
42814.9192
  0
VERTEX
  8
LAYER25
 62
     2
  6
CONTINUOUS
 10
18825.3134
 20
42748.7088
  0
VERTEX
  8
LAYER25
 62
     2
  6
CONTINUOUS
 10
18869.4576
 20
42627.3343
  0
VERTEX
  8
LAYER25
 62
     2
  6
CONTINUOUS
 10
19101.1880
 20
42384.5613
  0
VERTEX
  8
LAYER25
 62
     2
  6
CONTINUOUS
 10
19211.5414
 20
42230.0673
  0
VERTEX
  8
LAYER25
 62
     2
  6
CONTINUOUS
 10
19343.9585
 20
42053.5190
  0
VERTEX
  8
LAYER25
 62
     2
  6
CONTINUOUS
 10
19476.3757
 20
41932.1253
  0
VERTEX
  8
LAYER25
 62
     2
  6
CONTINUOUS
 10
19730.1710
 20
41854.8926
  0
VERTEX
  8
LAYER25
 62
     2
  6
CONTINUOUS
 10
19873.6284
 20
41821.7874
  0
VERTEX
  8
LAYER25
 62
     2
  6
CONTINUOUS
 10
20017.0703
 20
41788.6822
  0
VERTEX
  8
LAYER25
 62
     2
  6
CONTINUOUS
 10
20259.8409
 20
41843.8512
  0
SEQEND
  8
LAYER25
  0
POLYLINE
  8
LAYER25
 62
     2
 66
     1
  6
CONTINUOUS
  0
VERTEX
  8
LAYER25
 62
     2
  6
CONTINUOUS
 10
18141.1637
 20
42185.9350
  0
VERTEX
  8
LAYER25
 62
     2
  6
CONTINUOUS
 10
18074.9545
 20
42163.8569
  0
VERTEX
  8
LAYER25
 62
     2
  6
CONTINUOUS
 10
18008.7466
 20
42053.5190
  0
VERTEX
  8
LAYER25
 62
     2
  6
CONTINUOUS
 10
17975.6414
 20
41921.0839
  0
VERTEX
  8
LAYER25
 62
     2
  6
CONTINUOUS
 10
17975.6414
 20
41755.5818
  0
VERTEX
  8
LAYER25
 62
     2
  6
CONTINUOUS
 10
18041.8505
 20
41567.9778
  0
VERTEX
  8
LAYER25
 62
     2
  6
CONTINUOUS
 10
18196.3315
 20
41424.5395
  0
VERTEX
  8
LAYER25
 62
     2
  6
CONTINUOUS
 10
18439.1021
 20
41347.2877
  0
VERTEX
  8
LAYER25
 62
     2
  6
CONTINUOUS
 10
18659.7922
 20
41413.4981
  0
VERTEX
  8
LAYER25
 62
     2
  6
CONTINUOUS
 10
18748.0806
 20
41501.7722
  0
VERTEX
  8
LAYER25
 62
     2
  6
CONTINUOUS
 10
18770.1456
 20
41623.1611
  0
VERTEX
  8
LAYER25
 62
     2
  6
CONTINUOUS
 10
18582.5595
 20
41821.7874
  0
VERTEX
  8
LAYER25
 62
     2
  6
CONTINUOUS
 10
18450.1423
 20
41910.0616
  0
VERTEX
  8
LAYER25
 62
     2
  6
CONTINUOUS
 10
18350.8291
 20
41987.3086
  0
VERTEX
  8
LAYER25
 62
     2
  6
CONTINUOUS
 10
18141.1637
 20
42185.9350
  0
SEQEND
  8
LAYER25
  0
POLYLINE
  8
LAYER25
 62
     2
 66
     1
  6
CONTINUOUS
  0
VERTEX
  8
LAYER25
 62
     2
  6
CONTINUOUS
 10
16706.6386
 20
43841.1514
  0
VERTEX
  8
LAYER25
 62
     2
  6
CONTINUOUS
 10
16706.6386
 20
43719.7769
  0
VERTEX
  8
LAYER25
 62
     2
  6
CONTINUOUS
 10
16805.9506
 20
43355.6293
  0
VERTEX
  8
LAYER25
 62
     2
  6
CONTINUOUS
 10
16938.3677
 20
43079.7512
  0
VERTEX
  8
LAYER25
 62
     2
  6
CONTINUOUS
 10
17004.5769
 20
42925.2571
  0
VERTEX
  8
LAYER25
 62
     2
  6
CONTINUOUS
 10
17037.6809
 20
42781.8140
  0
VERTEX
  8
LAYER25
 62
     2
  6
CONTINUOUS
 10
17103.8901
 20
42616.2929
  0
VERTEX
  8
LAYER25
 62
     2
  6
CONTINUOUS
 10
17335.6205
 20
42439.7303
  0
VERTEX
  8
LAYER25
 62
     2
  6
CONTINUOUS
 10
17490.1169
 20
42351.4561
  0
VERTEX
  8
LAYER25
 62
     2
  6
CONTINUOUS
 10
17589.4301
 20
42362.4832
  0
VERTEX
  8
LAYER25
 62
     2
  6
CONTINUOUS
 10
17710.8070
 20
42561.1096
  0
VERTEX
  8
LAYER25
 62
     2
  6
CONTINUOUS
 10
17754.9512
 20
42781.8140
  0
VERTEX
  8
LAYER25
 62
     2
  6
CONTINUOUS
 10
17743.9122
 20
43024.5679
  0
VERTEX
  8
LAYER25
 62
     2
  6
CONTINUOUS
 10
17677.7030
 20
43234.2357
  0
VERTEX
  8
LAYER25
 62
     2
  6
CONTINUOUS
 10
17545.2858
 20
43465.9625
  0
VERTEX
  8
LAYER25
 62
     2
  6
CONTINUOUS
 10
17445.9727
 20
43609.4199
  0
VERTEX
  8
LAYER25
 62
     2
  6
CONTINUOUS
 10
17324.5957
 20
43752.8630
  0
VERTEX
  8
LAYER25
 62
     2
  6
CONTINUOUS
 10
17192.1785
 20
43863.2152
  0
VERTEX
  8
LAYER25
 62
     2
  6
CONTINUOUS
 10
17048.7211
 20
43929.4256
  0
VERTEX
  8
LAYER25
 62
     2
  6
CONTINUOUS
 10
16971.4729
 20
43951.4894
  0
VERTEX
  8
LAYER25
 62
     2
  6
CONTINUOUS
 10
16706.6386
 20
43841.1514
  0
SEQEND
  8
LAYER25
  0
POLYLINE
  8
LAYER25
 62
     2
 66
     1
  6
CONTINUOUS
  0
VERTEX
  8
LAYER25
 62
     2
  6
CONTINUOUS
 10
16287.3221
 20
43123.8835
  0
VERTEX
  8
LAYER25
 62
     2
  6
CONTINUOUS
 10
16254.2181
 20
43068.7145
  0
VERTEX
  8
LAYER25
 62
     2
  6
CONTINUOUS
 10
16254.2181
 20
42903.1934
  0
VERTEX
  8
LAYER25
 62
     2
  6
CONTINUOUS
 10
16276.2819
 20
42748.7088
  0
VERTEX
  8
LAYER25
 62
     2
  6
CONTINUOUS
 10
16331.4663
 20
42516.9773
  0
VERTEX
  8
LAYER25
 62
     2
  6
CONTINUOUS
 10
16364.5703
 20
42450.7717
  0
VERTEX
  8
LAYER25
 62
     2
  6
CONTINUOUS
 10
16474.9082
 20
42472.8355
  0
VERTEX
  8
LAYER25
 62
     2
  6
CONTINUOUS
 10
16607.3254
 20
42550.0825
  0
VERTEX
  8
LAYER25
 62
     2
  6
CONTINUOUS
 10
16739.7426
 20
42649.3790
  0
VERTEX
  8
LAYER25
 62
     2
  6
CONTINUOUS
 10
16839.0557
 20
42748.7088
  0
VERTEX
  8
LAYER25
 62
     2
  6
CONTINUOUS
 10
16938.3677
 20
42859.0468
  0
VERTEX
  8
LAYER25
 62
     2
  6
CONTINUOUS
 10
16938.3677
 20
42859.0468
  0
SEQEND
  8
LAYER25
  0
POLYLINE
  8
LAYER25
 62
     2
 66
     1
  6
CONTINUOUS
  0
VERTEX
  8
LAYER25
 62
     2
  6
CONTINUOUS
 10
16938.3677
 20
43079.7512
  0
VERTEX
  8
LAYER25
 62
     2
  6
CONTINUOUS
 10
16805.9506
 20
43090.7783
  0
VERTEX
  8
LAYER25
 62
     2
  6
CONTINUOUS
 10
16673.5334
 20
43134.9201
  0
VERTEX
  8
LAYER25
 62
     2
  6
CONTINUOUS
 10
16552.1564
 20
43156.9839
  0
VERTEX
  8
LAYER25
 62
     2
  6
CONTINUOUS
 10
16287.3221
 20
43123.8835
  0
SEQEND
  8
LAYER25
  0
POLYLINE
  8
LAYER25
 62
     2
 66
     1
  6
CONTINUOUS
  0
VERTEX
  8
LAYER25
 62
     2
  6
CONTINUOUS
 10
18737.0404
 20
38787.2159
  0
VERTEX
  8
LAYER25
 62
     2
  6
CONTINUOUS
 10
18759.1054
 20
38842.4016
  0
VERTEX
  8
LAYER25
 62
     2
  6
CONTINUOUS
 10
18737.0404
 20
38919.6343
  0
VERTEX
  8
LAYER25
 62
     2
  6
CONTINUOUS
 10
18670.8324
 20
38963.7785
  0
VERTEX
  8
LAYER25
 62
     2
  6
CONTINUOUS
 10
18604.6232
 20
38985.8423
  0
VERTEX
  8
LAYER25
 62
     2
  6
CONTINUOUS
 10
18538.4153
 20
38985.8423
  0
VERTEX
  8
LAYER25
 62
     2
  6
CONTINUOUS
 10
18461.1670
 20
38963.7785
  0
VERTEX
  8
LAYER25
 62
     2
  6
CONTINUOUS
 10
18361.8539
 20
38908.6096
  0
VERTEX
  8
LAYER25
 62
     2
  6
CONTINUOUS
 10
18306.6849
 20
38831.3602
  0
VERTEX
  8
LAYER25
 62
     2
  6
CONTINUOUS
 10
18306.6849
 20
38754.1131
  0
VERTEX
  8
LAYER25
 62
     2
  6
CONTINUOUS
 10
18317.7251
 20
38676.8804
  0
VERTEX
  8
LAYER25
 62
     2
  6
CONTINUOUS
 10
18361.8539
 20
38632.7362
  0
VERTEX
  8
LAYER25
 62
     2
  6
CONTINUOUS
 10
18450.1423
 20
38621.6948
  0
VERTEX
  8
LAYER25
 62
     2
  6
CONTINUOUS
 10
18560.4790
 20
38643.7752
  0
VERTEX
  8
LAYER25
 62
     2
  6
CONTINUOUS
 10
18737.0404
 20
38787.2159
  0
SEQEND
  8
LAYER25
  0
POLYLINE
  8
LAYER25
 62
     2
 66
     1
  6
CONTINUOUS
  0
VERTEX
  8
LAYER25
 62
     2
  6
CONTINUOUS
 10
17887.3684
 20
39052.0503
  0
VERTEX
  8
LAYER25
 62
     2
  6
CONTINUOUS
 10
17865.2892
 20
38996.8813
  0
VERTEX
  8
LAYER25
 62
     2
  6
CONTINUOUS
 10
17909.4334
 20
38886.5291
  0
VERTEX
  8
LAYER25
 62
     2
  6
CONTINUOUS
 10
17986.6816
 20
38787.2159
  0
VERTEX
  8
LAYER25
 62
     2
  6
CONTINUOUS
 10
18074.9545
 20
38765.1522
  0
VERTEX
  8
LAYER25
 62
     2
  6
CONTINUOUS
 10
18207.3717
 20
38798.2574
  0
VERTEX
  8
LAYER25
 62
     2
  6
CONTINUOUS
 10
18284.6211
 20
38864.4654
  0
VERTEX
  8
LAYER25
 62
     2
  6
CONTINUOUS
 10
18383.9331
 20
38952.7371
  0
VERTEX
  8
LAYER25
 62
     2
  6
CONTINUOUS
 10
18394.9579
 20
39029.9865
  0
VERTEX
  8
LAYER25
 62
     2
  6
CONTINUOUS
 10
18295.6447
 20
39085.1555
  0
VERTEX
  8
LAYER25
 62
     2
  6
CONTINUOUS
 10
18196.3315
 20
39118.2607
  0
VERTEX
  8
LAYER25
 62
     2
  6
CONTINUOUS
 10
18074.9545
 20
39118.2607
  0
VERTEX
  8
LAYER25
 62
     2
  6
CONTINUOUS
 10
17986.6816
 20
39118.2607
  0
VERTEX
  8
LAYER25
 62
     2
  6
CONTINUOUS
 10
17887.3684
 20
39052.0503
  0
SEQEND
  8
LAYER25
  0
POLYLINE
  8
LAYER25
 62
     2
 66
     1
  6
CONTINUOUS
  0
VERTEX
  8
LAYER25
 62
     2
  6
CONTINUOUS
 10
18141.1637
 20
38665.8390
  0
VERTEX
  8
LAYER25
 62
     2
  6
CONTINUOUS
 10
18085.9948
 20
38687.9028
  0
VERTEX
  8
LAYER25
 62
     2
  6
CONTINUOUS
 10
17975.6414
 20
38687.9028
  0
VERTEX
  8
LAYER25
 62
     2
  6
CONTINUOUS
 10
17865.2892
 20
38698.9442
  0
VERTEX
  8
LAYER25
 62
     2
  6
CONTINUOUS
 10
17754.9512
 20
38721.0080
  0
VERTEX
  8
LAYER25
 62
     2
  6
CONTINUOUS
 10
17633.5588
 20
38743.0884
  0
VERTEX
  8
LAYER25
 62
     2
  6
CONTINUOUS
 10
17567.3496
 20
38743.0884
  0
VERTEX
  8
LAYER25
 62
     2
  6
CONTINUOUS
 10
17556.3261
 20
38698.9442
  0
VERTEX
  8
LAYER25
 62
     2
  6
CONTINUOUS
 10
17655.6392
 20
38632.7362
  0
VERTEX
  8
LAYER25
 62
     2
  6
CONTINUOUS
 10
17743.9122
 20
38610.6700
  0
VERTEX
  8
LAYER25
 62
     2
  6
CONTINUOUS
 10
17843.2242
 20
38599.6310
  0
VERTEX
  8
LAYER25
 62
     2
  6
CONTINUOUS
 10
17964.6023
 20
38599.6310
  0
VERTEX
  8
LAYER25
 62
     2
  6
CONTINUOUS
 10
18030.8103
 20
38599.6310
  0
VERTEX
  8
LAYER25
 62
     2
  6
CONTINUOUS
 10
18141.1637
 20
38665.8390
  0
SEQEND
  8
LAYER25
  0
POLYLINE
  8
LAYER25
 62
     2
 66
     1
  6
CONTINUOUS
  0
VERTEX
  8
LAYER25
 62
     2
  6
CONTINUOUS
 10
16982.5120
 20
39912.7637
  0
VERTEX
  8
LAYER25
 62
     2
  6
CONTINUOUS
 10
17015.6171
 20
39956.9079
  0
VERTEX
  8
LAYER25
 62
     2
  6
CONTINUOUS
 10
17148.0343
 20
40067.2602
  0
VERTEX
  8
LAYER25
 62
     2
  6
CONTINUOUS
 10
17324.5957
 20
40199.6761
  0
VERTEX
  8
LAYER25
 62
     2
  6
CONTINUOUS
 10
17457.0129
 20
40298.9917
  0
VERTEX
  8
LAYER25
 62
     2
  6
CONTINUOUS
 10
17622.5341
 20
40398.3025
  0
VERTEX
  8
LAYER25
 62
     2
  6
CONTINUOUS
 10
17832.1852
 20
40464.5129
  0
VERTEX
  8
LAYER25
 62
     2
  6
CONTINUOUS
 10
17898.3931
 20
40442.4300
  0
VERTEX
  8
LAYER25
 62
     2
  6
CONTINUOUS
 10
17942.5374
 20
40376.2244
  0
VERTEX
  8
LAYER25
 62
     2
  6
CONTINUOUS
 10
17986.6816
 20
40254.8451
  0
VERTEX
  8
LAYER25
 62
     2
  6
CONTINUOUS
 10
18008.7466
 20
40122.4291
  0
VERTEX
  8
LAYER25
 62
     2
  6
CONTINUOUS
 10
18008.7466
 20
40001.0498
  0
VERTEX
  8
LAYER25
 62
     2
  6
CONTINUOUS
 10
18008.7466
 20
39846.5557
  0
VERTEX
  8
LAYER25
 62
     2
  6
CONTINUOUS
 10
17986.6816
 20
39692.0736
  0
VERTEX
  8
LAYER25
 62
     2
  6
CONTINUOUS
 10
17942.5374
 20
39504.4863
  0
VERTEX
  8
LAYER25
 62
     2
  6
CONTINUOUS
 10
17876.3294
 20
39361.0289
  0
VERTEX
  8
LAYER25
 62
     2
  6
CONTINUOUS
 10
17799.0800
 20
39228.6129
  0
VERTEX
  8
LAYER25
 62
     2
  6
CONTINUOUS
 10
17688.7432
 20
39140.3387
  0
VERTEX
  8
LAYER25
 62
     2
  6
CONTINUOUS
 10
17578.3898
 20
39118.2607
  0
VERTEX
  8
LAYER25
 62
     2
  6
CONTINUOUS
 10
17401.8284
 20
39129.2997
  0
VERTEX
  8
LAYER25
 62
     2
  6
CONTINUOUS
 10
17269.4113
 20
39184.4687
  0
VERTEX
  8
LAYER25
 62
     2
  6
CONTINUOUS
 10
17258.3865
 20
39294.8209
  0
VERTEX
  8
LAYER25
 62
     2
  6
CONTINUOUS
 10
17280.4515
 20
39460.3420
  0
VERTEX
  8
LAYER25
 62
     2
  6
CONTINUOUS
 10
17302.5153
 20
39570.6966
  0
VERTEX
  8
LAYER25
 62
     2
  6
CONTINUOUS
 10
17269.4113
 20
39658.9684
  0
VERTEX
  8
LAYER25
 62
     2
  6
CONTINUOUS
 10
17181.1383
 20
39714.1374
  0
VERTEX
  8
LAYER25
 62
     2
  6
CONTINUOUS
 10
17081.8251
 20
39758.2816
  0
VERTEX
  8
LAYER25
 62
     2
  6
CONTINUOUS
 10
16982.5120
 20
39912.7637
  0
SEQEND
  8
LAYER25
  0
POLYLINE
  8
LAYER25
 62
     2
 66
     1
  6
CONTINUOUS
  0
VERTEX
  8
LAYER25
 62
     2
  6
CONTINUOUS
 10
16210.0739
 20
38378.9409
  0
VERTEX
  8
LAYER25
 62
     2
  6
CONTINUOUS
 10
16309.3859
 20
38423.0684
  0
VERTEX
  8
LAYER25
 62
     2
  6
CONTINUOUS
 10
16419.7393
 20
38522.3816
  0
VERTEX
  8
LAYER25
 62
     2
  6
CONTINUOUS
 10
16530.0927
 20
38621.6948
  0
VERTEX
  8
LAYER25
 62
     2
  6
CONTINUOUS
 10
16574.2202
 20
38709.9832
  0
VERTEX
  8
LAYER25
 62
     2
  6
CONTINUOUS
 10
16541.1162
 20
38776.1912
  0
VERTEX
  8
LAYER25
 62
     2
  6
CONTINUOUS
 10
16386.6353
 20
38798.2574
  0
VERTEX
  8
LAYER25
 62
     2
  6
CONTINUOUS
 10
16232.1531
 20
38798.2574
  0
VERTEX
  8
LAYER25
 62
     2
  6
CONTINUOUS
 10
15967.3188
 20
38809.2964
  0
VERTEX
  8
LAYER25
 62
     2
  6
CONTINUOUS
 10
15713.5092
 20
38820.3211
  0
VERTEX
  8
LAYER25
 62
     2
  6
CONTINUOUS
 10
15503.8581
 20
38820.3211
  0
VERTEX
  8
LAYER25
 62
     2
  6
CONTINUOUS
 10
15294.1927
 20
38787.2159
  0
VERTEX
  8
LAYER25
 62
     2
  6
CONTINUOUS
 10
15117.6313
 20
38765.1522
  0
VERTEX
  8
LAYER25
 62
     2
  6
CONTINUOUS
 10
14952.1101
 20
38721.0080
  0
VERTEX
  8
LAYER25
 62
     2
  6
CONTINUOUS
 10
14941.0854
 20
38632.7362
  0
VERTEX
  8
LAYER25
 62
     2
  6
CONTINUOUS
 10
14974.1894
 20
38533.4230
  0
VERTEX
  8
LAYER25
 62
     2
  6
CONTINUOUS
 10
14974.1894
 20
38434.1098
  0
SEQEND
  8
LAYER25
  0
POLYLINE
  8
LAYER25
 62
     2
 66
     1
  6
CONTINUOUS
  0
VERTEX
  8
LAYER25
 62
     2
  6
CONTINUOUS
 10
14974.1894
 20
38434.1098
  0
VERTEX
  8
LAYER25
 62
     2
  6
CONTINUOUS
 10
15150.7353
 20
38003.7543
  0
VERTEX
  8
LAYER25
 62
     2
  6
CONTINUOUS
 10
15227.9835
 20
37915.4802
  0
VERTEX
  8
LAYER25
 62
     2
  6
CONTINUOUS
 10
15294.1927
 20
37860.2969
  0
VERTEX
  8
LAYER25
 62
     2
  6
CONTINUOUS
 10
15426.6098
 20
37849.2722
  0
VERTEX
  8
LAYER25
 62
     2
  6
CONTINUOUS
 10
15570.0672
 20
37871.3359
  0
VERTEX
  8
LAYER25
 62
     2
  6
CONTINUOUS
 10
15702.4844
 20
37904.4411
  0
SEQEND
  8
LAYER25
  0
POLYLINE
  8
LAYER25
 62
     2
 66
     1
  6
CONTINUOUS
  0
VERTEX
  8
LAYER25
 62
     2
  6
CONTINUOUS
 10
12281.7004
 20
36955.4559
  0
VERTEX
  8
LAYER25
 62
     2
  6
CONTINUOUS
 10
12403.0774
 20
37120.9771
  0
VERTEX
  8
LAYER25
 62
     2
  6
CONTINUOUS
 10
12513.4308
 20
37242.3541
  0
VERTEX
  8
LAYER25
 62
     2
  6
CONTINUOUS
 10
12723.0962
 20
37496.1494
  0
VERTEX
  8
LAYER25
 62
     2
  6
CONTINUOUS
 10
12855.5134
 20
37727.8785
  0
VERTEX
  8
LAYER25
 62
     2
  6
CONTINUOUS
 10
12943.7863
 20
37948.5853
  0
VERTEX
  8
LAYER25
 62
     2
  6
CONTINUOUS
 10
12965.8513
 20
38114.1065
  0
VERTEX
  8
LAYER25
 62
     2
  6
CONTINUOUS
 10
12910.6823
 20
38213.4197
  0
VERTEX
  8
LAYER25
 62
     2
  6
CONTINUOUS
 10
12756.2002
 20
38224.4444
  0
VERTEX
  8
LAYER25
 62
     2
  6
CONTINUOUS
 10
12425.1578
 20
38136.1703
  0
VERTEX
  8
LAYER25
 62
     2
  6
CONTINUOUS
 10
12237.5562
 20
38103.0651
  0
VERTEX
  8
LAYER25
 62
     2
  6
CONTINUOUS
 10
12061.0103
 20
38092.0261
  0
VERTEX
  8
LAYER25
 62
     2
  6
CONTINUOUS
 10
11807.1995
 20
37948.5853
  0
VERTEX
  8
LAYER25
 62
     2
  6
CONTINUOUS
 10
11630.6536
 20
37805.1279
  0
VERTEX
  8
LAYER25
 62
     2
  6
CONTINUOUS
 10
11465.1324
 20
37650.6458
  0
VERTEX
  8
LAYER25
 62
     2
  6
CONTINUOUS
 10
11420.9882
 20
37474.0832
  0
VERTEX
  8
LAYER25
 62
     2
  6
CONTINUOUS
 10
11752.0317
 20
37220.2879
  0
VERTEX
  8
LAYER25
 62
     2
  6
CONTINUOUS
 10
11873.4087
 20
37131.9995
  0
VERTEX
  8
LAYER25
 62
     2
  6
CONTINUOUS
 10
12038.9299
 20
37021.6639
  0
VERTEX
  8
LAYER25
 62
     2
  6
CONTINUOUS
 10
12281.7004
 20
36955.4559
  0
SEQEND
  8
LAYER25
  0
POLYLINE
  8
LAYER25
 62
     2
 66
     1
  6
CONTINUOUS
  0
VERTEX
  8
LAYER25
 62
     2
  6
CONTINUOUS
 10
9357.4806
 20
41722.4766
  0
VERTEX
  8
LAYER25
 62
     2
  6
CONTINUOUS
 10
9346.4558
 20
41700.3938
  0
VERTEX
  8
LAYER25
 62
     2
  6
CONTINUOUS
 10
9379.5604
 20
41545.9140
  0
VERTEX
  8
LAYER25
 62
     2
  6
CONTINUOUS
 10
9478.8736
 20
41369.3515
  0
VERTEX
  8
LAYER25
 62
     2
  6
CONTINUOUS
 10
9589.2109
 20
41170.7251
  0
VERTEX
  8
LAYER25
 62
     2
  6
CONTINUOUS
 10
9898.1895
 20
40961.0764
  0
VERTEX
  8
LAYER25
 62
     2
  6
CONTINUOUS
 10
10063.7113
 20
40861.7656
  0
VERTEX
  8
LAYER25
 62
     2
  6
CONTINUOUS
 10
10174.0647
 20
40751.4086
  0
VERTEX
  8
LAYER25
 62
     2
  6
CONTINUOUS
 10
10140.9607
 20
40497.6181
  0
VERTEX
  8
LAYER25
 62
     2
  6
CONTINUOUS
 10
10019.5671
 20
40298.9917
  0
VERTEX
  8
LAYER25
 62
     2
  6
CONTINUOUS
 10
9765.7723
 20
39934.8418
  0
VERTEX
  8
LAYER25
 62
     2
  6
CONTINUOUS
 10
9534.0420
 20
39559.6552
  0
VERTEX
  8
LAYER25
 62
     2
  6
CONTINUOUS
 10
9346.4558
 20
39305.8599
  0
VERTEX
  8
LAYER25
 62
     2
  6
CONTINUOUS
 10
9202.9990
 20
39151.3635
  0
VERTEX
  8
LAYER25
 62
     2
  6
CONTINUOUS
 10
8927.1245
 20
39085.1555
  0
VERTEX
  8
LAYER25
 62
     2
  6
CONTINUOUS
 10
8629.1855
 20
39096.1921
  0
VERTEX
  8
LAYER25
 62
     2
  6
CONTINUOUS
 10
8276.0782
 20
39173.4439
  0
VERTEX
  8
LAYER25
 62
     2
  6
CONTINUOUS
 10
8022.2835
 20
39261.7181
  0
VERTEX
  8
LAYER25
 62
     2
  6
CONTINUOUS
 10
7845.7221
 20
39338.9651
  0
VERTEX
  8
LAYER25
 62
     2
  6
CONTINUOUS
 10
7702.2647
 20
39372.0703
  0
VERTEX
  8
LAYER25
 62
     2
  6
CONTINUOUS
 10
7602.9521
 20
39471.3835
  0
VERTEX
  8
LAYER25
 62
     2
  6
CONTINUOUS
 10
7647.0963
 20
39714.1374
  0
VERTEX
  8
LAYER25
 62
     2
  6
CONTINUOUS
 10
7757.4491
 20
39912.7637
  0
VERTEX
  8
LAYER25
 62
     2
  6
CONTINUOUS
 10
7878.8267
 20
40045.1821
  0
VERTEX
  8
LAYER25
 62
     2
  6
CONTINUOUS
 10
8077.4525
 20
40287.9503
  0
VERTEX
  8
LAYER25
 62
     2
  6
CONTINUOUS
 10
8231.9340
 20
40508.6404
  0
VERTEX
  8
LAYER25
 62
     2
  6
CONTINUOUS
 10
8364.3512
 20
40707.2668
  0
VERTEX
  8
LAYER25
 62
     2
  6
CONTINUOUS
 10
8507.8086
 20
40916.9345
  0
VERTEX
  8
LAYER25
 62
     2
  6
CONTINUOUS
 10
8673.3297
 20
41137.6247
  0
VERTEX
  8
LAYER25
 62
     2
  6
CONTINUOUS
 10
8794.7073
 20
41281.0821
  0
VERTEX
  8
LAYER25
 62
     2
  6
CONTINUOUS
 10
8949.2043
 20
41435.5618
  0
VERTEX
  8
LAYER25
 62
     2
  6
CONTINUOUS
 10
9092.6462
 20
41590.0606
  0
VERTEX
  8
LAYER25
 62
     2
  6
CONTINUOUS
 10
9357.4806
 20
41722.4766
  0
SEQEND
  8
LAYER25
  0
POLYLINE
  8
LAYER25
 62
     2
 66
     1
  6
CONTINUOUS
  0
VERTEX
  8
LAYER25
 62
     2
  6
CONTINUOUS
 10
8805.7469
 20
38985.8423
  0
VERTEX
  8
LAYER25
 62
     2
  6
CONTINUOUS
 10
8761.6027
 20
38919.6343
  0
VERTEX
  8
LAYER25
 62
     2
  6
CONTINUOUS
 10
8695.3941
 20
38776.1912
  0
VERTEX
  8
LAYER25
 62
     2
  6
CONTINUOUS
 10
8640.2257
 20
38599.6310
  0
VERTEX
  8
LAYER25
 62
     2
  6
CONTINUOUS
 10
8618.1614
 20
38467.2126
  0
VERTEX
  8
LAYER25
 62
     2
  6
CONTINUOUS
 10
8618.1614
 20
38290.6524
  0
VERTEX
  8
LAYER25
 62
     2
  6
CONTINUOUS
 10
8651.2654
 20
38114.1065
  0
VERTEX
  8
LAYER25
 62
     2
  6
CONTINUOUS
 10
8695.3941
 20
37992.7129
  0
VERTEX
  8
LAYER25
 62
     2
  6
CONTINUOUS
 10
8728.4987
 20
37882.3726
  0
VERTEX
  8
LAYER25
 62
     2
  6
CONTINUOUS
 10
8805.7469
 20
37716.8538
  0
SEQEND
  8
LAYER25
  0
POLYLINE
  8
LAYER25
 62
     2
 66
     1
  6
CONTINUOUS
  0
VERTEX
  8
LAYER25
 62
     2
  6
CONTINUOUS
 10
8463.6644
 20
37385.8091
  0
VERTEX
  8
LAYER25
 62
     2
  6
CONTINUOUS
 10
8364.3512
 20
37429.9366
  0
VERTEX
  8
LAYER25
 62
     2
  6
CONTINUOUS
 10
8165.7254
 20
37551.3326
  0
VERTEX
  8
LAYER25
 62
     2
  6
CONTINUOUS
 10
8066.4122
 20
37584.4378
  0
VERTEX
  8
LAYER25
 62
     2
  6
CONTINUOUS
 10
8055.3881
 20
37838.2308
  0
VERTEX
  8
LAYER25
 62
     2
  6
CONTINUOUS
 10
8077.4525
 20
38147.2093
  0
VERTEX
  8
LAYER25
 62
     2
  6
CONTINUOUS
 10
8044.3479
 20
38301.6915
  0
VERTEX
  8
LAYER25
 62
     2
  6
CONTINUOUS
 10
8044.3479
 20
38434.1098
  0
VERTEX
  8
LAYER25
 62
     2
  6
CONTINUOUS
 10
8099.5168
 20
38643.7752
  0
VERTEX
  8
LAYER25
 62
     2
  6
CONTINUOUS
 10
8220.9099
 20
38831.3602
  0
VERTEX
  8
LAYER25
 62
     2
  6
CONTINUOUS
 10
8353.3270
 20
38985.8423
  0
VERTEX
  8
LAYER25
 62
     2
  6
CONTINUOUS
 10
8518.8482
 20
39041.0279
  0
VERTEX
  8
LAYER25
 62
     2
  6
CONTINUOUS
 10
8761.6027
 20
38919.6343
  0
SEQEND
  8
LAYER25
  0
POLYLINE
  8
LAYER25
 62
     2
 66
     1
  6
CONTINUOUS
  0
VERTEX
  8
LAYER25
 62
     2
  6
CONTINUOUS
 10
14941.0854
 20
33258.7950
  0
VERTEX
  8
LAYER25
 62
     2
  6
CONTINUOUS
 10
14952.1101
 20
33302.9392
  0
VERTEX
  8
LAYER25
 62
     2
  6
CONTINUOUS
 10
14896.9411
 20
33391.2134
  0
VERTEX
  8
LAYER25
 62
     2
  6
CONTINUOUS
 10
14852.7969
 20
33534.6708
  0
VERTEX
  8
LAYER25
 62
     2
  6
CONTINUOUS
 10
14819.6917
 20
33656.0477
  0
VERTEX
  8
LAYER25
 62
     2
  6
CONTINUOUS
 10
14753.4837
 20
33755.3609
  0
VERTEX
  8
LAYER25
 62
     2
  6
CONTINUOUS
 10
14643.1458
 20
33810.5465
  0
VERTEX
  8
LAYER25
 62
     2
  6
CONTINUOUS
 10
14532.7936
 20
33810.5465
  0
VERTEX
  8
LAYER25
 62
     2
  6
CONTINUOUS
 10
14433.4804
 20
33777.4414
  0
VERTEX
  8
LAYER25
 62
     2
  6
CONTINUOUS
 10
14356.2322
 20
33700.1919
  0
VERTEX
  8
LAYER25
 62
     2
  6
CONTINUOUS
 10
14312.1035
 20
33600.8788
  0
VERTEX
  8
LAYER25
 62
     2
  6
CONTINUOUS
 10
14312.1035
 20
33490.5266
  0
VERTEX
  8
LAYER25
 62
     2
  6
CONTINUOUS
 10
14312.1035
 20
33413.2938
  0
VERTEX
  8
LAYER25
 62
     2
  6
CONTINUOUS
 10
14400.3764
 20
33302.9392
  0
VERTEX
  8
LAYER25
 62
     2
  6
CONTINUOUS
 10
14521.7534
 20
33247.7703
  0
VERTEX
  8
LAYER25
 62
     2
  6
CONTINUOUS
 10
14643.1458
 20
33214.6651
  0
VERTEX
  8
LAYER25
 62
     2
  6
CONTINUOUS
 10
14742.4590
 20
33192.5870
  0
VERTEX
  8
LAYER25
 62
     2
  6
CONTINUOUS
 10
14819.6917
 20
33192.5870
  0
VERTEX
  8
LAYER25
 62
     2
  6
CONTINUOUS
 10
14907.9814
 20
33214.6651
  0
VERTEX
  8
LAYER25
 62
     2
  6
CONTINUOUS
 10
14952.1101
 20
33302.9392
  0
SEQEND
  8
LAYER25
  0
POLYLINE
  8
LAYER25
 62
     2
 66
     1
  6
CONTINUOUS
  0
VERTEX
  8
LAYER25
 62
     2
  6
CONTINUOUS
 10
15095.5663
 20
35509.8906
  0
VERTEX
  8
LAYER25
 62
     2
  6
CONTINUOUS
 10
15051.4221
 20
35554.0348
  0
VERTEX
  8
LAYER25
 62
     2
  6
CONTINUOUS
 10
14985.2141
 20
35487.8268
  0
VERTEX
  8
LAYER25
 62
     2
  6
CONTINUOUS
 10
14874.8762
 20
35344.3694
  0
VERTEX
  8
LAYER25
 62
     2
  6
CONTINUOUS
 10
14786.5877
 20
35234.0315
  0
VERTEX
  8
LAYER25
 62
     2
  6
CONTINUOUS
 10
14676.2510
 20
35145.7430
  0
VERTEX
  8
LAYER25
 62
     2
  6
CONTINUOUS
 10
14576.9378
 20
35079.5350
  0
VERTEX
  8
LAYER25
 62
     2
  6
CONTINUOUS
 10
14477.6247
 20
35013.3247
  0
VERTEX
  8
LAYER25
 62
     2
  6
CONTINUOUS
 10
14389.3362
 20
34958.1557
  0
VERTEX
  8
LAYER25
 62
     2
  6
CONTINUOUS
 10
14323.1282
 20
34914.0115
  0
VERTEX
  8
LAYER25
 62
     2
  6
CONTINUOUS
 10
14223.8150
 20
34847.8035
  0
VERTEX
  8
LAYER25
 62
     2
  6
CONTINUOUS
 10
14135.5421
 20
34770.5708
  0
VERTEX
  8
LAYER25
 62
     2
  6
CONTINUOUS
 10
14135.5421
 20
34726.4265
  0
VERTEX
  8
LAYER25
 62
     2
  6
CONTINUOUS
 10
14201.7501
 20
34693.3214
  0
VERTEX
  8
LAYER25
 62
     2
  6
CONTINUOUS
 10
14312.1035
 20
34682.2823
  0
VERTEX
  8
LAYER25
 62
     2
  6
CONTINUOUS
 10
14411.4167
 20
34638.1524
  0
VERTEX
  8
LAYER25
 62
     2
  6
CONTINUOUS
 10
14621.0666
 20
34671.2576
  0
VERTEX
  8
LAYER25
 62
     2
  6
CONTINUOUS
 10
14742.4590
 20
34671.2576
  0
VERTEX
  8
LAYER25
 62
     2
  6
CONTINUOUS
 10
14863.8372
 20
34660.2185
  0
VERTEX
  8
LAYER25
 62
     2
  6
CONTINUOUS
 10
14996.2543
 20
34627.1134
  0
VERTEX
  8
LAYER25
 62
     2
  6
CONTINUOUS
 10
15161.7755
 20
34582.9691
  0
VERTEX
  8
LAYER25
 62
     2
  6
CONTINUOUS
 10
15327.2967
 20
34571.9444
  0
VERTEX
  8
LAYER25
 62
     2
  6
CONTINUOUS
 10
15481.7788
 20
34560.9054
  0
VERTEX
  8
LAYER25
 62
     2
  6
CONTINUOUS
 10
15525.9230
 20
34560.9054
  0
VERTEX
  8
LAYER25
 62
     2
  6
CONTINUOUS
 10
15647.3000
 20
34560.9054
  0
VERTEX
  8
LAYER25
 62
     2
  6
CONTINUOUS
 10
15779.7172
 20
34560.9054
  0
VERTEX
  8
LAYER25
 62
     2
  6
CONTINUOUS
 10
15923.1746
 20
34560.9054
  0
VERTEX
  8
LAYER25
 62
     2
  6
CONTINUOUS
 10
16000.4228
 20
34560.9054
  0
VERTEX
  8
LAYER25
 62
     2
  6
CONTINUOUS
 10
16000.4228
 20
34594.0082
  0
VERTEX
  8
LAYER25
 62
     2
  6
CONTINUOUS
 10
15923.1746
 20
34560.9054
  0
SEQEND
  8
LAYER25
  0
POLYLINE
  8
LAYER25
 62
     2
 66
     1
  6
CONTINUOUS
  0
VERTEX
  8
LAYER25
 62
     2
  6
CONTINUOUS
 10
16000.4228
 20
34594.0082
  0
VERTEX
  8
LAYER25
 62
     2
  6
CONTINUOUS
 10
15856.9654
 20
34715.3875
  0
SEQEND
  8
LAYER25
  0
POLYLINE
  8
LAYER33
 62
     3
 66
     1
  6
CONTINUOUS
  0
VERTEX
  8
LAYER33
 62
     3
  6
CONTINUOUS
 10
14576.9378
 20
46544.6639
  0
VERTEX
  8
LAYER33
 62
     3
  6
CONTINUOUS
 10
14576.9378
 20
47637.1065
  0
SEQEND
  8
LAYER33
  0
POLYLINE
  8
LAYER33
 62
     3
 66
     1
  6
CONTINUOUS
  0
VERTEX
  8
LAYER33
 62
     3
  6
CONTINUOUS
 10
14576.9378
 20
31581.5148
  0
VERTEX
  8
LAYER33
 62
     3
  6
CONTINUOUS
 10
14576.9378
 20
32111.1835
  0
SEQEND
  8
LAYER33
  0
POLYLINE
  8
LAYER49
 62
     1
 66
     1
  6
CONTINUOUS
  0
VERTEX
  8
LAYER49
 62
     1
  6
CONTINUOUS
 10
17898.3931
 20
40442.4300
  0
VERTEX
  8
LAYER49
 62
     1
  6
CONTINUOUS
 10
17942.5374
 20
40530.7185
  0
VERTEX
  8
LAYER49
 62
     1
  6
CONTINUOUS
 10
17986.6816
 20
40552.7870
  0
VERTEX
  8
LAYER49
 62
     1
  6
CONTINUOUS
 10
18052.8908
 20
40530.7185
  0
VERTEX
  8
LAYER49
 62
     1
  6
CONTINUOUS
 10
18119.0988
 20
40431.4077
  0
VERTEX
  8
LAYER49
 62
     1
  6
CONTINUOUS
 10
18163.2275
 20
40287.9503
  0
SEQEND
  8
LAYER49
  0
POLYLINE
  8
LAYER49
 62
     1
 66
     1
  6
CONTINUOUS
  0
VERTEX
  8
LAYER49
 62
     1
  6
CONTINUOUS
 10
17986.6816
 20
40254.8451
  0
VERTEX
  8
LAYER49
 62
     1
  6
CONTINUOUS
 10
17986.6816
 20
40254.8451
  0
VERTEX
  8
LAYER49
 62
     1
  6
CONTINUOUS
 10
18218.4119
 20
40166.5757
  0
VERTEX
  8
LAYER49
 62
     1
  6
CONTINUOUS
 10
18240.4757
 20
40111.3877
  0
VERTEX
  8
LAYER49
 62
     1
  6
CONTINUOUS
 10
18262.5407
 20
39967.9470
  0
VERTEX
  8
LAYER49
 62
     1
  6
CONTINUOUS
 10
18273.5809
 20
39824.4896
  0
VERTEX
  8
LAYER49
 62
     1
  6
CONTINUOUS
 10
18273.5809
 20
39647.9294
  0
VERTEX
  8
LAYER49
 62
     1
  6
CONTINUOUS
 10
18262.5407
 20
39537.5915
  0
VERTEX
  8
LAYER49
 62
     1
  6
CONTINUOUS
 10
18185.3079
 20
39427.2392
  0
VERTEX
  8
LAYER49
 62
     1
  6
CONTINUOUS
 10
18130.1235
 20
39405.1731
  0
VERTEX
  8
LAYER49
 62
     1
  6
CONTINUOUS
 10
17942.5374
 20
39504.4863
  0
SEQEND
  8
LAYER49
  0
POLYLINE
  8
LAYER49
 62
     1
 66
     1
  6
CONTINUOUS
  0
VERTEX
  8
LAYER49
 62
     1
  6
CONTINUOUS
 10
17622.5341
 20
34163.6527
  0
VERTEX
  8
LAYER49
 62
     1
  6
CONTINUOUS
 10
17677.7030
 20
34163.6527
  0
VERTEX
  8
LAYER49
 62
     1
  6
CONTINUOUS
 10
17754.9512
 20
34141.5889
  0
VERTEX
  8
LAYER49
 62
     1
  6
CONTINUOUS
 10
17832.1852
 20
34064.3395
  0
VERTEX
  8
LAYER49
 62
     1
  6
CONTINUOUS
 10
17920.4736
 20
33953.9873
  0
VERTEX
  8
LAYER49
 62
     1
  6
CONTINUOUS
 10
18063.9143
 20
33755.3609
  0
VERTEX
  8
LAYER49
 62
     1
  6
CONTINUOUS
 10
18185.3079
 20
33611.9202
  0
VERTEX
  8
LAYER49
 62
     1
  6
CONTINUOUS
 10
18295.6447
 20
33479.5018
  0
VERTEX
  8
LAYER49
 62
     1
  6
CONTINUOUS
 10
18417.0383
 20
33358.1106
  0
VERTEX
  8
LAYER49
 62
     1
  6
CONTINUOUS
 10
18483.2463
 20
33269.8340
  0
VERTEX
  8
LAYER49
 62
     1
  6
CONTINUOUS
 10
18571.5192
 20
33181.5623
  0
VERTEX
  8
LAYER49
 62
     1
  6
CONTINUOUS
 10
18670.8324
 20
33071.2077
  0
VERTEX
  8
LAYER49
 62
     1
  6
CONTINUOUS
 10
18670.8324
 20
33071.2077
  0
VERTEX
  8
LAYER49
 62
     1
  6
CONTINUOUS
 10
18880.4978
 20
33093.2738
  0
VERTEX
  8
LAYER49
 62
     1
  6
CONTINUOUS
 10
18891.5226
 20
33082.2491
  0
VERTEX
  8
LAYER49
 62
     1
  6
CONTINUOUS
 10
18869.4576
 20
33159.4818
  0
VERTEX
  8
LAYER49
 62
     1
  6
CONTINUOUS
 10
18847.3938
 20
33269.8340
  0
VERTEX
  8
LAYER49
 62
     1
  6
CONTINUOUS
 10
18792.2094
 20
33369.1496
  0
VERTEX
  8
LAYER49
 62
     1
  6
CONTINUOUS
 10
18714.9766
 20
33501.5680
  0
VERTEX
  8
LAYER49
 62
     1
  6
CONTINUOUS
 10
18571.5192
 20
33722.2581
  0
VERTEX
  8
LAYER49
 62
     1
  6
CONTINUOUS
 10
18516.3503
 20
33843.6493
  0
VERTEX
  8
LAYER49
 62
     1
  6
CONTINUOUS
 10
18549.4555
 20
33953.9873
  0
VERTEX
  8
LAYER49
 62
     1
  6
CONTINUOUS
 10
18681.8727
 20
34031.2367
  0
VERTEX
  8
LAYER49
 62
     1
  6
CONTINUOUS
 10
18847.3938
 20
34097.4447
  0
VERTEX
  8
LAYER49
 62
     1
  6
CONTINUOUS
 10
19034.9800
 20
34163.6527
  0
VERTEX
  8
LAYER49
 62
     1
  6
CONTINUOUS
 10
19167.3971
 20
34207.7969
  0
VERTEX
  8
LAYER49
 62
     1
  6
CONTINUOUS
 10
19255.6701
 20
34285.0296
  0
VERTEX
  8
LAYER49
 62
     1
  6
CONTINUOUS
 10
19211.5414
 20
34384.3428
  0
VERTEX
  8
LAYER49
 62
     1
  6
CONTINUOUS
 10
19134.2931
 20
34450.5532
  0
VERTEX
  8
LAYER49
 62
     1
  6
CONTINUOUS
 10
18968.7708
 20
34439.5284
  0
VERTEX
  8
LAYER49
 62
     1
  6
CONTINUOUS
 10
18759.1054
 20
34384.3428
  0
VERTEX
  8
LAYER49
 62
     1
  6
CONTINUOUS
 10
18461.1670
 20
34318.1348
  0
VERTEX
  8
LAYER49
 62
     1
  6
CONTINUOUS
 10
18284.6211
 20
34307.1101
  0
VERTEX
  8
LAYER49
 62
     1
  6
CONTINUOUS
 10
18119.0988
 20
34428.4870
  0
VERTEX
  8
LAYER49
 62
     1
  6
CONTINUOUS
 10
18008.7466
 20
34582.9691
  0
VERTEX
  8
LAYER49
 62
     1
  6
CONTINUOUS
 10
17898.3931
 20
34759.5317
  0
VERTEX
  8
LAYER49
 62
     1
  6
CONTINUOUS
 10
17854.2644
 20
34947.1167
  0
VERTEX
  8
LAYER49
 62
     1
  6
CONTINUOUS
 10
17854.2644
 20
35013.3247
  0
VERTEX
  8
LAYER49
 62
     1
  6
CONTINUOUS
 10
17876.3294
 20
35123.6793
  0
VERTEX
  8
LAYER49
 62
     1
  6
CONTINUOUS
 10
18008.7466
 20
35388.5136
  0
VERTEX
  8
LAYER49
 62
     1
  6
CONTINUOUS
 10
18174.2677
 20
35609.2037
  0
VERTEX
  8
LAYER49
 62
     1
  6
CONTINUOUS
 10
18339.7889
 20
35774.7249
  0
VERTEX
  8
LAYER49
 62
     1
  6
CONTINUOUS
 10
18472.2061
 20
35951.2851
  0
VERTEX
  8
LAYER49
 62
     1
  6
CONTINUOUS
 10
18450.1423
 20
36083.7035
  0
VERTEX
  8
LAYER49
 62
     1
  6
CONTINUOUS
 10
18339.7889
 20
36149.9115
  0
VERTEX
  8
LAYER49
 62
     1
  6
CONTINUOUS
 10
18207.3717
 20
36105.7673
  0
VERTEX
  8
LAYER49
 62
     1
  6
CONTINUOUS
 10
18041.8505
 20
35962.3265
  0
VERTEX
  8
LAYER49
 62
     1
  6
CONTINUOUS
 10
17909.4334
 20
35807.8277
  0
VERTEX
  8
LAYER49
 62
     1
  6
CONTINUOUS
 10
17732.8720
 20
35653.3480
  0
VERTEX
  8
LAYER49
 62
     1
  6
CONTINUOUS
 10
17600.4548
 20
35598.1790
  0
VERTEX
  8
LAYER49
 62
     1
  6
CONTINUOUS
 10
17578.3898
 20
35664.3870
  0
VERTEX
  8
LAYER49
 62
     1
  6
CONTINUOUS
 10
17622.5341
 20
35807.8277
  0
VERTEX
  8
LAYER49
 62
     1
  6
CONTINUOUS
 10
17799.0800
 20
36039.5593
  0
VERTEX
  8
LAYER49
 62
     1
  6
CONTINUOUS
 10
17920.4736
 20
36171.9752
  0
VERTEX
  8
LAYER49
 62
     1
  6
CONTINUOUS
 10
18052.8908
 20
36348.5378
  0
VERTEX
  8
LAYER49
 62
     1
  6
CONTINUOUS
 10
18119.0988
 20
36503.0200
  0
VERTEX
  8
LAYER49
 62
     1
  6
CONTINUOUS
 10
18097.0195
 20
36580.2670
  0
VERTEX
  8
LAYER49
 62
     1
  6
CONTINUOUS
 10
17975.6414
 20
36602.3331
  0
VERTEX
  8
LAYER49
 62
     1
  6
CONTINUOUS
 10
17799.0800
 20
36547.1642
  0
VERTEX
  8
LAYER49
 62
     1
  6
CONTINUOUS
 10
17589.4301
 20
36458.8900
  0
VERTEX
  8
LAYER49
 62
     1
  6
CONTINUOUS
 10
17357.6997
 20
36304.3936
  0
VERTEX
  8
LAYER49
 62
     1
  6
CONTINUOUS
 10
17324.5957
 20
36138.8724
  0
VERTEX
  8
LAYER49
 62
     1
  6
CONTINUOUS
 10
17324.5957
 20
35962.3265
  0
VERTEX
  8
LAYER49
 62
     1
  6
CONTINUOUS
 10
17302.5153
 20
35807.8277
  0
VERTEX
  8
LAYER49
 62
     1
  6
CONTINUOUS
 10
17247.3475
 20
35708.5169
  0
VERTEX
  8
LAYER49
 62
     1
  6
CONTINUOUS
 10
17125.9694
 20
35708.5169
  0
VERTEX
  8
LAYER49
 62
     1
  6
CONTINUOUS
 10
16949.4080
 20
35785.7639
  0
VERTEX
  8
LAYER49
 62
     1
  6
CONTINUOUS
 10
16805.9506
 20
35840.9329
  0
VERTEX
  8
LAYER49
 62
     1
  6
CONTINUOUS
 10
16750.7828
 20
35840.9329
  0
VERTEX
  8
LAYER49
 62
     1
  6
CONTINUOUS
 10
16783.8868
 20
35763.7002
  0
VERTEX
  8
LAYER49
 62
     1
  6
CONTINUOUS
 10
16949.4080
 20
35620.2428
  0
VERTEX
  8
LAYER49
 62
     1
  6
CONTINUOUS
 10
17136.9941
 20
35454.7216
  0
VERTEX
  8
LAYER49
 62
     1
  6
CONTINUOUS
 10
17258.3865
 20
35344.3694
  0
VERTEX
  8
LAYER49
 62
     1
  6
CONTINUOUS
 10
17335.6205
 20
35211.9510
  0
VERTEX
  8
LAYER49
 62
     1
  6
CONTINUOUS
 10
17390.8037
 20
35068.5103
  0
VERTEX
  8
LAYER49
 62
     1
  6
CONTINUOUS
 10
17457.0129
 20
34891.9477
  0
VERTEX
  8
LAYER49
 62
     1
  6
CONTINUOUS
 10
17523.2209
 20
34693.3214
  0
VERTEX
  8
LAYER49
 62
     1
  6
CONTINUOUS
 10
17556.3261
 20
34538.8416
  0
VERTEX
  8
LAYER49
 62
     1
  6
CONTINUOUS
 10
17578.3898
 20
34251.9268
  0
VERTEX
  8
LAYER49
 62
     1
  6
CONTINUOUS
 10
17622.5341
 20
34163.6527
  0
SEQEND
  8
LAYER49
  0
POLYLINE
  8
LAYER49
 62
     1
 66
     1
  6
CONTINUOUS
  0
VERTEX
  8
LAYER49
 62
     1
  6
CONTINUOUS
 10
14411.4167
 20
34638.1524
  0
VERTEX
  8
LAYER49
 62
     1
  6
CONTINUOUS
 10
14411.4167
 20
34616.0743
  0
VERTEX
  8
LAYER49
 62
     1
  6
CONTINUOUS
 10
14411.4167
 20
34549.8640
  0
VERTEX
  8
LAYER49
 62
     1
  6
CONTINUOUS
 10
14411.4167
 20
34450.5532
  0
VERTEX
  8
LAYER49
 62
     1
  6
CONTINUOUS
 10
14477.6247
 20
34351.2400
  0
VERTEX
  8
LAYER49
 62
     1
  6
CONTINUOUS
 10
14554.8574
 20
34285.0296
  0
VERTEX
  8
LAYER49
 62
     1
  6
CONTINUOUS
 10
14565.8976
 20
34229.8606
  0
VERTEX
  8
LAYER49
 62
     1
  6
CONTINUOUS
 10
14521.7534
 20
34207.7969
  0
VERTEX
  8
LAYER49
 62
     1
  6
CONTINUOUS
 10
14466.5844
 20
34163.6527
  0
VERTEX
  8
LAYER49
 62
     1
  6
CONTINUOUS
 10
14455.5454
 20
34086.4056
  0
VERTEX
  8
LAYER49
 62
     1
  6
CONTINUOUS
 10
14477.6247
 20
34031.2367
  0
VERTEX
  8
LAYER49
 62
     1
  6
CONTINUOUS
 10
14433.4804
 20
33998.1315
  0
VERTEX
  8
LAYER49
 62
     1
  6
CONTINUOUS
 10
14378.3115
 20
33953.9873
  0
VERTEX
  8
LAYER49
 62
     1
  6
CONTINUOUS
 10
14323.1282
 20
33876.7545
  0
VERTEX
  8
LAYER49
 62
     1
  6
CONTINUOUS
 10
14278.9995
 20
33810.5465
  0
VERTEX
  8
LAYER49
 62
     1
  6
CONTINUOUS
 10
14179.6863
 20
33788.4661
  0
VERTEX
  8
LAYER49
 62
     1
  6
CONTINUOUS
 10
14080.3731
 20
33755.3609
  0
VERTEX
  8
LAYER49
 62
     1
  6
CONTINUOUS
 10
14014.1640
 20
33722.2581
  0
VERTEX
  8
LAYER49
 62
     1
  6
CONTINUOUS
 10
13992.0847
 20
33722.2581
  0
VERTEX
  8
LAYER49
 62
     1
  6
CONTINUOUS
 10
13992.0847
 20
33799.5051
  0
VERTEX
  8
LAYER49
 62
     1
  6
CONTINUOUS
 10
13992.0847
 20
33953.9873
  0
VERTEX
  8
LAYER49
 62
     1
  6
CONTINUOUS
 10
14036.2289
 20
34185.7164
  0
VERTEX
  8
LAYER49
 62
     1
  6
CONTINUOUS
 10
14058.2927
 20
34318.1348
  0
VERTEX
  8
LAYER49
 62
     1
  6
CONTINUOUS
 10
14091.3979
 20
34472.6312
  0
VERTEX
  8
LAYER49
 62
     1
  6
CONTINUOUS
 10
14146.5823
 20
34660.2185
  0
VERTEX
  8
LAYER49
 62
     1
  6
CONTINUOUS
 10
14234.8553
 20
34891.9477
  0
VERTEX
  8
LAYER49
 62
     1
  6
CONTINUOUS
 10
14290.0230
 20
35057.4689
  0
VERTEX
  8
LAYER49
 62
     1
  6
CONTINUOUS
 10
14356.2322
 20
35200.9263
  0
VERTEX
  8
LAYER49
 62
     1
  6
CONTINUOUS
 10
14466.5844
 20
35443.6802
  0
VERTEX
  8
LAYER49
 62
     1
  6
CONTINUOUS
 10
14532.7936
 20
35609.2037
  0
VERTEX
  8
LAYER49
 62
     1
  6
CONTINUOUS
 10
14632.1068
 20
35785.7639
  0
VERTEX
  8
LAYER49
 62
     1
  6
CONTINUOUS
 10
14742.4590
 20
35973.3513
  0
VERTEX
  8
LAYER49
 62
     1
  6
CONTINUOUS
 10
14808.6682
 20
36127.8477
  0
VERTEX
  8
LAYER49
 62
     1
  6
CONTINUOUS
 10
14841.7722
 20
36282.3298
  0
VERTEX
  8
LAYER49
 62
     1
  6
CONTINUOUS
 10
14941.0854
 20
36337.4988
  0
VERTEX
  8
LAYER49
 62
     1
  6
CONTINUOUS
 10
15040.3985
 20
36293.3689
  0
VERTEX
  8
LAYER49
 62
     1
  6
CONTINUOUS
 10
15117.6313
 20
36149.9115
  0
VERTEX
  8
LAYER49
 62
     1
  6
CONTINUOUS
 10
15161.7755
 20
35995.4293
  0
VERTEX
  8
LAYER49
 62
     1
  6
CONTINUOUS
 10
15161.7755
 20
35907.1409
  0
VERTEX
  8
LAYER49
 62
     1
  6
CONTINUOUS
 10
15161.7755
 20
35785.7639
  0
SEQEND
  8
LAYER49
  0
POLYLINE
  8
LAYER49
 62
     1
 66
     1
  6
CONTINUOUS
  0
VERTEX
  8
LAYER49
 62
     1
  6
CONTINUOUS
 10
21495.7409
 20
36370.6016
  0
VERTEX
  8
LAYER49
 62
     1
  6
CONTINUOUS
 10
21495.7409
 20
36403.7068
  0
VERTEX
  8
LAYER49
 62
     1
  6
CONTINUOUS
 10
21462.6357
 20
36569.2280
  0
VERTEX
  8
LAYER49
 62
     1
  6
CONTINUOUS
 10
21462.6357
 20
36745.7905
  0
VERTEX
  8
LAYER49
 62
     1
  6
CONTINUOUS
 10
21440.5553
 20
36911.3117
  0
VERTEX
  8
LAYER49
 62
     1
  6
CONTINUOUS
 10
21363.3225
 20
37010.6249
  0
VERTEX
  8
LAYER49
 62
     1
  6
CONTINUOUS
 10
21230.9066
 20
37065.7915
  0
VERTEX
  8
LAYER49
 62
     1
  6
CONTINUOUS
 10
21054.3440
 20
37143.0409
  0
VERTEX
  8
LAYER49
 62
     1
  6
CONTINUOUS
 10
20977.0946
 20
37120.9771
  0
VERTEX
  8
LAYER49
 62
     1
  6
CONTINUOUS
 10
20955.0308
 20
36955.4559
  0
VERTEX
  8
LAYER49
 62
     1
  6
CONTINUOUS
 10
20932.9670
 20
36701.6439
  0
VERTEX
  8
LAYER49
 62
     1
  6
CONTINUOUS
 10
20888.8228
 20
36436.8096
  0
VERTEX
  8
LAYER49
 62
     1
  6
CONTINUOUS
 10
20833.6538
 20
36260.2637
  0
VERTEX
  8
LAYER49
 62
     1
  6
CONTINUOUS
 10
20745.3654
 20
36039.5593
  0
VERTEX
  8
LAYER49
 62
     1
  6
CONTINUOUS
 10
20657.0912
 20
35807.8277
  0
VERTEX
  8
LAYER49
 62
     1
  6
CONTINUOUS
 10
20623.9884
 20
35576.0985
  0
VERTEX
  8
LAYER49
 62
     1
  6
CONTINUOUS
 10
20646.0522
 20
35410.5774
  0
VERTEX
  8
LAYER49
 62
     1
  6
CONTINUOUS
 10
20723.3016
 20
35245.0562
  0
VERTEX
  8
LAYER49
 62
     1
  6
CONTINUOUS
 10
20833.6538
 20
35222.9901
  0
VERTEX
  8
LAYER49
 62
     1
  6
CONTINUOUS
 10
20988.1360
 20
35300.2395
  0
VERTEX
  8
LAYER49
 62
     1
  6
CONTINUOUS
 10
21098.4882
 20
35399.5526
  0
VERTEX
  8
LAYER49
 62
     1
  6
CONTINUOUS
 10
21098.4882
 20
35399.5526
  0
SEQEND
  8
LAYER49
  0
POLYLINE
  8
LAYER49
 62
     1
 66
     1
  6
CONTINUOUS
  0
VERTEX
  8
LAYER49
 62
     1
  6
CONTINUOUS
 10
21098.4882
 20
35399.5526
  0
VERTEX
  8
LAYER49
 62
     1
  6
CONTINUOUS
 10
21175.7209
 20
35487.8268
  0
VERTEX
  8
LAYER49
 62
     1
  6
CONTINUOUS
 10
21164.6962
 20
35487.8268
  0
VERTEX
  8
LAYER49
 62
     1
  6
CONTINUOUS
 10
21109.5129
 20
35498.8658
  0
VERTEX
  8
LAYER49
 62
     1
  6
CONTINUOUS
 10
21043.3049
 20
35565.0738
  0
VERTEX
  8
LAYER49
 62
     1
  6
CONTINUOUS
 10
21043.3049
 20
35653.3480
  0
VERTEX
  8
LAYER49
 62
     1
  6
CONTINUOUS
 10
21131.5934
 20
35807.8277
  0
VERTEX
  8
LAYER49
 62
     1
  6
CONTINUOUS
 10
21241.9289
 20
35984.3903
  0
VERTEX
  8
LAYER49
 62
     1
  6
CONTINUOUS
 10
21330.2173
 20
36138.8724
  0
VERTEX
  8
LAYER49
 62
     1
  6
CONTINUOUS
 10
21418.4915
 20
36216.1195
  0
VERTEX
  8
LAYER49
 62
     1
  6
CONTINUOUS
 10
21495.7409
 20
36227.1609
  0
VERTEX
  8
LAYER49
 62
     1
  6
CONTINUOUS
 10
21606.0764
 20
36149.9115
  0
VERTEX
  8
LAYER49
 62
     1
  6
CONTINUOUS
 10
21705.3896
 20
36061.6397
  0
VERTEX
  8
LAYER49
 62
     1
  6
CONTINUOUS
 10
21749.5338
 20
35951.2851
  0
VERTEX
  8
LAYER49
 62
     1
  6
CONTINUOUS
 10
21760.5753
 20
35851.9719
  0
VERTEX
  8
LAYER49
 62
     1
  6
CONTINUOUS
 10
21760.5753
 20
35774.7249
  0
VERTEX
  8
LAYER49
 62
     1
  6
CONTINUOUS
 10
21705.3896
 20
35741.6197
  0
VERTEX
  8
LAYER49
 62
     1
  6
CONTINUOUS
 10
21628.1569
 20
35730.5950
  0
VERTEX
  8
LAYER49
 62
     1
  6
CONTINUOUS
 10
21539.8684
 20
35686.4508
  0
VERTEX
  8
LAYER49
 62
     1
  6
CONTINUOUS
 10
21429.5305
 20
35642.3065
  0
VERTEX
  8
LAYER49
 62
     1
  6
CONTINUOUS
 10
21330.2173
 20
35609.2037
  0
VERTEX
  8
LAYER49
 62
     1
  6
CONTINUOUS
 10
21164.6962
 20
35487.8268
  0
SEQEND
  8
LAYER49
  0
POLYLINE
  8
LAYER49
 62
     1
 66
     1
  6
CONTINUOUS
  0
VERTEX
  8
LAYER49
 62
     1
  6
CONTINUOUS
 10
21109.5129
 20
42483.8769
  0
VERTEX
  8
LAYER49
 62
     1
  6
CONTINUOUS
 10
21043.3049
 20
42528.0044
  0
VERTEX
  8
LAYER49
 62
     1
  6
CONTINUOUS
 10
20877.7814
 20
42594.2100
  0
VERTEX
  8
LAYER49
 62
     1
  6
CONTINUOUS
 10
20712.2602
 20
42671.4618
  0
VERTEX
  8
LAYER49
 62
     1
  6
CONTINUOUS
 10
20568.8195
 20
42759.7360
  0
VERTEX
  8
LAYER49
 62
     1
  6
CONTINUOUS
 10
20447.4259
 20
42836.9830
  0
VERTEX
  8
LAYER49
 62
     1
  6
CONTINUOUS
 10
20303.9851
 20
42925.2571
  0
VERTEX
  8
LAYER49
 62
     1
  6
CONTINUOUS
 10
20226.7357
 20
42859.0468
  0
VERTEX
  8
LAYER49
 62
     1
  6
CONTINUOUS
 10
20171.5668
 20
42748.7088
  0
VERTEX
  8
LAYER49
 62
     1
  6
CONTINUOUS
 10
20050.1755
 20
42627.3343
  0
VERTEX
  8
LAYER49
 62
     1
  6
CONTINUOUS
 10
19972.9416
 20
42539.0458
  0
VERTEX
  8
LAYER49
 62
     1
  6
CONTINUOUS
 10
20028.1094
 20
42406.6251
  0
VERTEX
  8
LAYER49
 62
     1
  6
CONTINUOUS
 10
20259.8409
 20
42219.0401
  0
VERTEX
  8
LAYER49
 62
     1
  6
CONTINUOUS
 10
20447.4259
 20
42042.4776
  0
VERTEX
  8
LAYER49
 62
     1
  6
CONTINUOUS
 10
20557.7781
 20
41899.0392
  0
VERTEX
  8
LAYER49
 62
     1
  6
CONTINUOUS
 10
20668.1327
 20
41733.4990
  0
VERTEX
  8
LAYER49
 62
     1
  6
CONTINUOUS
 10
20778.4706
 20
41656.2663
  0
VERTEX
  8
LAYER49
 62
     1
  6
CONTINUOUS
 10
20844.6786
 20
41799.7094
  0
VERTEX
  8
LAYER49
 62
     1
  6
CONTINUOUS
 10
20932.9670
 20
41976.2719
  0
VERTEX
  8
LAYER49
 62
     1
  6
CONTINUOUS
 10
20999.1750
 20
42141.7931
  0
VERTEX
  8
LAYER49
 62
     1
  6
CONTINUOUS
 10
21109.5129
 20
42483.8769
  0
SEQEND
  8
LAYER49
  0
POLYLINE
  8
LAYER49
 62
     1
 66
     1
  6
CONTINUOUS
  0
VERTEX
  8
LAYER49
 62
     1
  6
CONTINUOUS
 10
9688.5235
 20
43819.0734
  0
VERTEX
  8
LAYER49
 62
     1
  6
CONTINUOUS
 10
9754.7321
 20
43907.3618
  0
VERTEX
  8
LAYER49
 62
     1
  6
CONTINUOUS
 10
9887.1493
 20
44017.6997
  0
VERTEX
  8
LAYER49
 62
     1
  6
CONTINUOUS
 10
10118.8802
 20
44139.0886
  0
VERTEX
  8
LAYER49
 62
     1
  6
CONTINUOUS
 10
10438.8990
 20
44183.2209
  0
VERTEX
  8
LAYER49
 62
     1
  6
CONTINUOUS
 10
10692.6932
 20
44083.9196
  0
VERTEX
  8
LAYER49
 62
     1
  6
CONTINUOUS
 10
10836.1506
 20
43951.4894
  0
VERTEX
  8
LAYER49
 62
     1
  6
CONTINUOUS
 10
10990.6327
 20
43752.8630
  0
VERTEX
  8
LAYER49
 62
     1
  6
CONTINUOUS
 10
11123.0499
 20
43510.1091
  0
VERTEX
  8
LAYER49
 62
     1
  6
CONTINUOUS
 10
11089.9447
 20
43344.5879
  0
VERTEX
  8
LAYER49
 62
     1
  6
CONTINUOUS
 10
10946.4885
 20
43168.0253
  0
VERTEX
  8
LAYER49
 62
     1
  6
CONTINUOUS
 10
10769.9426
 20
43035.6093
  0
VERTEX
  8
LAYER49
 62
     1
  6
CONTINUOUS
 10
10494.0680
 20
42947.3352
  0
VERTEX
  8
LAYER49
 62
     1
  6
CONTINUOUS
 10
10339.5858
 20
43024.5679
  0
VERTEX
  8
LAYER49
 62
     1
  6
CONTINUOUS
 10
10207.1687
 20
43123.8835
  0
VERTEX
  8
LAYER49
 62
     1
  6
CONTINUOUS
 10
10085.7762
 20
43223.1943
  0
VERTEX
  8
LAYER49
 62
     1
  6
CONTINUOUS
 10
9964.3981
 20
43289.4047
  0
VERTEX
  8
LAYER49
 62
     1
  6
CONTINUOUS
 10
9500.9380
 20
43521.1314
  0
SEQEND
  8
LAYER49
  0
POLYLINE
  8
LAYER49
 62
     1
 66
     1
  6
CONTINUOUS
  0
VERTEX
  8
LAYER49
 62
     1
  6
CONTINUOUS
 10
9335.4162
 20
38069.9623
  0
VERTEX
  8
LAYER49
 62
     1
  6
CONTINUOUS
 10
9280.2473
 20
37992.7129
  0
VERTEX
  8
LAYER49
 62
     1
  6
CONTINUOUS
 10
9236.1030
 20
37849.2722
  0
VERTEX
  8
LAYER49
 62
     1
  6
CONTINUOUS
 10
9225.0634
 20
37738.9176
  0
VERTEX
  8
LAYER49
 62
     1
  6
CONTINUOUS
 10
9247.1433
 20
37694.7734
  0
VERTEX
  8
LAYER49
 62
     1
  6
CONTINUOUS
 10
9401.6248
 20
37705.8124
  0
VERTEX
  8
LAYER49
 62
     1
  6
CONTINUOUS
 10
9556.1063
 20
37760.9837
  0
VERTEX
  8
LAYER49
 62
     1
  6
CONTINUOUS
 10
9820.9407
 20
37871.3359
  0
VERTEX
  8
LAYER49
 62
     1
  6
CONTINUOUS
 10
9887.1493
 20
37937.5416
  0
VERTEX
  8
LAYER49
 62
     1
  6
CONTINUOUS
 10
9909.2291
 20
38003.7543
  0
VERTEX
  8
LAYER49
 62
     1
  6
CONTINUOUS
 10
9887.1493
 20
38058.9185
  0
VERTEX
  8
LAYER49
 62
     1
  6
CONTINUOUS
 10
9765.7723
 20
38069.9599
  0
VERTEX
  8
LAYER49
 62
     1
  6
CONTINUOUS
 10
9655.4195
 20
38069.9623
  0
VERTEX
  8
LAYER49
 62
     1
  6
CONTINUOUS
 10
9556.1063
 20
38058.9209
  0
VERTEX
  8
LAYER49
 62
     1
  6
CONTINUOUS
 10
9335.4162
 20
38069.9623
  0
SEQEND
  8
LAYER49
  0
POLYLINE
  8
LAYER49
 62
     1
 66
     1
  6
CONTINUOUS
  0
VERTEX
  8
LAYER49
 62
     1
  6
CONTINUOUS
 10
8463.6644
 20
37308.5597
  0
VERTEX
  8
LAYER49
 62
     1
  6
CONTINUOUS
 10
8463.6644
 20
37385.8091
  0
VERTEX
  8
LAYER49
 62
     1
  6
CONTINUOUS
 10
8463.6644
 20
37606.4992
  0
VERTEX
  8
LAYER49
 62
     1
  6
CONTINUOUS
 10
8419.5356
 20
37849.2722
  0
VERTEX
  8
LAYER49
 62
     1
  6
CONTINUOUS
 10
8397.4558
 20
37970.6491
  0
VERTEX
  8
LAYER49
 62
     1
  6
CONTINUOUS
 10
8474.7040
 20
37959.6101
  0
VERTEX
  8
LAYER49
 62
     1
  6
CONTINUOUS
 10
8684.3700
 20
37816.1670
  0
VERTEX
  8
LAYER49
 62
     1
  6
CONTINUOUS
 10
8805.7469
 20
37716.8538
  0
VERTEX
  8
LAYER49
 62
     1
  6
CONTINUOUS
 10
8882.9957
 20
37650.6458
  0
VERTEX
  8
LAYER49
 62
     1
  6
CONTINUOUS
 10
8894.0199
 20
37595.4602
  0
VERTEX
  8
LAYER49
 62
     1
  6
CONTINUOUS
 10
8838.8515
 20
37529.2522
  0
VERTEX
  8
LAYER49
 62
     1
  6
CONTINUOUS
 10
8739.5383
 20
37452.0195
  0
VERTEX
  8
LAYER49
 62
     1
  6
CONTINUOUS
 10
8463.6644
 20
37308.5597
  0
SEQEND
  8
LAYER49
  0
POLYLINE
  8
LAYER49
 62
     1
 66
     1
  6
CONTINUOUS
  0
VERTEX
  8
LAYER49
 62
     1
  6
CONTINUOUS
 10
8651.2654
 20
37143.0409
  0
VERTEX
  8
LAYER49
 62
     1
  6
CONTINUOUS
 10
8673.3297
 20
37176.1437
  0
VERTEX
  8
LAYER49
 62
     1
  6
CONTINUOUS
 10
8794.7073
 20
37264.4178
  0
VERTEX
  8
LAYER49
 62
     1
  6
CONTINUOUS
 10
8916.1003
 20
37341.6649
  0
VERTEX
  8
LAYER49
 62
     1
  6
CONTINUOUS
 10
9037.4773
 20
37385.8091
  0
VERTEX
  8
LAYER49
 62
     1
  6
CONTINUOUS
 10
9125.7502
 20
37330.6282
  0
VERTEX
  8
LAYER49
 62
     1
  6
CONTINUOUS
 10
9191.9588
 20
37253.3931
  0
VERTEX
  8
LAYER49
 62
     1
  6
CONTINUOUS
 10
9214.0387
 20
37176.1461
  0
VERTEX
  8
LAYER49
 62
     1
  6
CONTINUOUS
 10
9180.9347
 20
37098.8943
  0
VERTEX
  8
LAYER49
 62
     1
  6
CONTINUOUS
 10
9092.6462
 20
37010.6225
  0
VERTEX
  8
LAYER49
 62
     1
  6
CONTINUOUS
 10
8905.0601
 20
36845.1013
  0
VERTEX
  8
LAYER49
 62
     1
  6
CONTINUOUS
 10
8827.8113
 20
36900.2703
  0
VERTEX
  8
LAYER49
 62
     1
  6
CONTINUOUS
 10
8805.7469
 20
36955.4559
  0
VERTEX
  8
LAYER49
 62
     1
  6
CONTINUOUS
 10
8750.5786
 20
37021.6639
  0
VERTEX
  8
LAYER49
 62
     1
  6
CONTINUOUS
 10
8651.2654
 20
37143.0409
  0
SEQEND
  8
LAYER49
  0
POLYLINE
  8
LAYER49
 62
     1
 66
     1
  6
CONTINUOUS
  0
VERTEX
  8
LAYER49
 62
     1
  6
CONTINUOUS
 10
9136.7905
 20
36889.2432
  0
VERTEX
  8
LAYER49
 62
     1
  6
CONTINUOUS
 10
9059.5416
 20
36800.9571
  0
VERTEX
  8
LAYER49
 62
     1
  6
CONTINUOUS
 10
8982.3089
 20
36646.4774
  0
VERTEX
  8
LAYER49
 62
     1
  6
CONTINUOUS
 10
8916.1003
 20
36514.0566
  0
VERTEX
  8
LAYER49
 62
     1
  6
CONTINUOUS
 10
8838.8515
 20
36359.5769
  0
VERTEX
  8
LAYER49
 62
     1
  6
CONTINUOUS
 10
8816.7871
 20
36249.2223
  0
VERTEX
  8
LAYER49
 62
     1
  6
CONTINUOUS
 10
8960.2291
 20
36149.9115
  0
VERTEX
  8
LAYER49
 62
     1
  6
CONTINUOUS
 10
9180.9347
 20
36138.8701
  0
VERTEX
  8
LAYER49
 62
     1
  6
CONTINUOUS
 10
9324.3760
 20
36171.9752
  0
VERTEX
  8
LAYER49
 62
     1
  6
CONTINUOUS
 10
9534.0420
 20
36249.2247
  0
VERTEX
  8
LAYER49
 62
     1
  6
CONTINUOUS
 10
9567.1466
 20
36315.4326
  0
VERTEX
  8
LAYER49
 62
     1
  6
CONTINUOUS
 10
9511.9776
 20
36458.8900
  0
VERTEX
  8
LAYER49
 62
     1
  6
CONTINUOUS
 10
9423.6892
 20
36591.3084
  0
VERTEX
  8
LAYER49
 62
     1
  6
CONTINUOUS
 10
9346.4558
 20
36679.5778
  0
VERTEX
  8
LAYER49
 62
     1
  6
CONTINUOUS
 10
9247.1433
 20
36767.8543
  0
VERTEX
  8
LAYER49
 62
     1
  6
CONTINUOUS
 10
9136.7905
 20
36889.2432
  0
SEQEND
  8
LAYER49
  0
POLYLINE
  8
LAYER49
 62
     1
 66
     1
  6
CONTINUOUS
  0
VERTEX
  8
LAYER49
 62
     1
  6
CONTINUOUS
 10
9136.7905
 20
36889.2432
  0
VERTEX
  8
LAYER49
 62
     1
  6
CONTINUOUS
 10
9169.8944
 20
36823.0376
  0
VERTEX
  8
LAYER49
 62
     1
  6
CONTINUOUS
 10
9214.0387
 20
36845.1013
  0
VERTEX
  8
LAYER49
 62
     1
  6
CONTINUOUS
 10
9291.2720
 20
36922.3508
  0
VERTEX
  8
LAYER49
 62
     1
  6
CONTINUOUS
 10
9390.5846
 20
36988.5587
  0
VERTEX
  8
LAYER49
 62
     1
  6
CONTINUOUS
 10
9478.8736
 20
37054.7691
  0
VERTEX
  8
LAYER49
 62
     1
  6
CONTINUOUS
 10
9589.2109
 20
37109.9357
  0
VERTEX
  8
LAYER49
 62
     1
  6
CONTINUOUS
 10
9666.4592
 20
37109.9333
  0
VERTEX
  8
LAYER49
 62
     1
  6
CONTINUOUS
 10
9699.5637
 20
37109.9357
  0
VERTEX
  8
LAYER49
 62
     1
  6
CONTINUOUS
 10
9765.7723
 20
37032.6863
  0
VERTEX
  8
LAYER49
 62
     1
  6
CONTINUOUS
 10
9809.9166
 20
36922.3484
  0
VERTEX
  8
LAYER49
 62
     1
  6
CONTINUOUS
 10
9843.0205
 20
36811.9985
  0
VERTEX
  8
LAYER49
 62
     1
  6
CONTINUOUS
 10
9854.0453
 20
36690.6216
  0
VERTEX
  8
LAYER49
 62
     1
  6
CONTINUOUS
 10
9809.9166
 20
36569.2256
  0
VERTEX
  8
LAYER49
 62
     1
  6
CONTINUOUS
 10
9754.7321
 20
36458.8900
  0
VERTEX
  8
LAYER49
 62
     1
  6
CONTINUOUS
 10
9567.1466
 20
36315.4326
  0
SEQEND
  8
LAYER49
  0
POLYLINE
  8
LAYER49
 62
     1
 66
     1
  6
CONTINUOUS
  0
VERTEX
  8
LAYER49
 62
     1
  6
CONTINUOUS
 10
9765.7723
 20
37032.6863
  0
VERTEX
  8
LAYER49
 62
     1
  6
CONTINUOUS
 10
9776.8120
 20
37120.9771
  0
VERTEX
  8
LAYER49
 62
     1
  6
CONTINUOUS
 10
9865.0849
 20
37098.8967
  0
VERTEX
  8
LAYER49
 62
     1
  6
CONTINUOUS
 10
10008.5435
 20
37065.7891
  0
VERTEX
  8
LAYER49
 62
     1
  6
CONTINUOUS
 10
10163.0245
 20
37032.6887
  0
VERTEX
  8
LAYER49
 62
     1
  6
CONTINUOUS
 10
10273.3779
 20
36999.5811
  0
VERTEX
  8
LAYER49
 62
     1
  6
CONTINUOUS
 10
10361.6508
 20
36944.4145
  0
VERTEX
  8
LAYER49
 62
     1
  6
CONTINUOUS
 10
10427.8588
 20
36867.1675
  0
VERTEX
  8
LAYER49
 62
     1
  6
CONTINUOUS
 10
10427.8588
 20
36756.8296
  0
VERTEX
  8
LAYER49
 62
     1
  6
CONTINUOUS
 10
10405.7950
 20
36646.4774
  0
VERTEX
  8
LAYER49
 62
     1
  6
CONTINUOUS
 10
10350.6106
 20
36514.0566
  0
VERTEX
  8
LAYER49
 62
     1
  6
CONTINUOUS
 10
10284.4014
 20
36491.9952
  0
VERTEX
  8
LAYER49
 62
     1
  6
CONTINUOUS
 10
10207.1687
 20
36525.0980
  0
VERTEX
  8
LAYER49
 62
     1
  6
CONTINUOUS
 10
10118.8802
 20
36569.2280
  0
VERTEX
  8
LAYER49
 62
     1
  6
CONTINUOUS
 10
10063.7113
 20
36525.0980
  0
VERTEX
  8
LAYER49
 62
     1
  6
CONTINUOUS
 10
10019.5671
 20
36403.7068
  0
VERTEX
  8
LAYER49
 62
     1
  6
CONTINUOUS
 10
9964.3981
 20
36293.3689
  0
VERTEX
  8
LAYER49
 62
     1
  6
CONTINUOUS
 10
9909.2291
 20
36183.0167
  0
VERTEX
  8
LAYER49
 62
     1
  6
CONTINUOUS
 10
9909.2291
 20
36083.7035
  0
VERTEX
  8
LAYER49
 62
     1
  6
CONTINUOUS
 10
9876.1251
 20
35995.4293
  0
VERTEX
  8
LAYER49
 62
     1
  6
CONTINUOUS
 10
9798.8763
 20
35918.1823
  0
VERTEX
  8
LAYER49
 62
     1
  6
CONTINUOUS
 10
9699.5637
 20
35863.0134
  0
VERTEX
  8
LAYER49
 62
     1
  6
CONTINUOUS
 10
9589.2109
 20
35807.8277
  0
VERTEX
  8
LAYER49
 62
     1
  6
CONTINUOUS
 10
9511.9776
 20
35818.8691
  0
VERTEX
  8
LAYER49
 62
     1
  6
CONTINUOUS
 10
9445.7690
 20
35885.0747
  0
VERTEX
  8
LAYER49
 62
     1
  6
CONTINUOUS
 10
9379.5604
 20
35951.2851
  0
VERTEX
  8
LAYER49
 62
     1
  6
CONTINUOUS
 10
9324.3760
 20
36171.9752
  0
SEQEND
  8
LAYER49
  0
POLYLINE
  8
LAYER49
 62
     1
 66
     1
  6
CONTINUOUS
  0
VERTEX
  8
LAYER49
 62
     1
  6
CONTINUOUS
 10
10350.6106
 20
36514.0566
  0
VERTEX
  8
LAYER49
 62
     1
  6
CONTINUOUS
 10
10405.7950
 20
36480.9538
  0
VERTEX
  8
LAYER49
 62
     1
  6
CONTINUOUS
 10
10460.9628
 20
36403.7044
  0
VERTEX
  8
LAYER49
 62
     1
  6
CONTINUOUS
 10
10472.0030
 20
36315.4326
  0
VERTEX
  8
LAYER49
 62
     1
  6
CONTINUOUS
 10
10416.8186
 20
36216.1171
  0
VERTEX
  8
LAYER49
 62
     1
  6
CONTINUOUS
 10
10350.6106
 20
36105.7649
  0
VERTEX
  8
LAYER49
 62
     1
  6
CONTINUOUS
 10
10284.4014
 20
36017.4955
  0
VERTEX
  8
LAYER49
 62
     1
  6
CONTINUOUS
 10
10218.1934
 20
35984.3903
  0
VERTEX
  8
LAYER49
 62
     1
  6
CONTINUOUS
 10
10129.9205
 20
36017.4931
  0
VERTEX
  8
LAYER49
 62
     1
  6
CONTINUOUS
 10
10063.7113
 20
36050.5983
  0
VERTEX
  8
LAYER49
 62
     1
  6
CONTINUOUS
 10
9997.5033
 20
36094.7425
  0
VERTEX
  8
LAYER49
 62
     1
  6
CONTINUOUS
 10
9909.2291
 20
36183.0167
  0
SEQEND
  8
LAYER49
  0
POLYLINE
  8
LAYER49
 62
     1
 66
     1
  6
CONTINUOUS
  0
VERTEX
  8
LAYER49
 62
     1
  6
CONTINUOUS
 10
10472.0030
 20
36315.4326
  0
VERTEX
  8
LAYER49
 62
     1
  6
CONTINUOUS
 10
10549.2358
 20
36337.4988
  0
VERTEX
  8
LAYER49
 62
     1
  6
CONTINUOUS
 10
10681.6529
 20
36260.2613
  0
VERTEX
  8
LAYER49
 62
     1
  6
CONTINUOUS
 10
10792.0063
 20
36205.0804
  0
VERTEX
  8
LAYER49
 62
     1
  6
CONTINUOUS
 10
10891.3195
 20
36149.9115
  0
VERTEX
  8
LAYER49
 62
     1
  6
CONTINUOUS
 10
10946.4885
 20
36094.7425
  0
VERTEX
  8
LAYER49
 62
     1
  6
CONTINUOUS
 10
10979.5925
 20
36039.5569
  0
VERTEX
  8
LAYER49
 62
     1
  6
CONTINUOUS
 10
10946.4885
 20
35973.3513
  0
VERTEX
  8
LAYER49
 62
     1
  6
CONTINUOUS
 10
10891.3195
 20
35907.1409
  0
VERTEX
  8
LAYER49
 62
     1
  6
CONTINUOUS
 10
10814.0713
 20
35818.8667
  0
VERTEX
  8
LAYER49
 62
     1
  6
CONTINUOUS
 10
10747.8621
 20
35785.7639
  0
VERTEX
  8
LAYER49
 62
     1
  6
CONTINUOUS
 10
10670.6294
 20
35796.8054
  0
VERTEX
  8
LAYER49
 62
     1
  6
CONTINUOUS
 10
10582.3409
 20
35829.9082
  0
VERTEX
  8
LAYER49
 62
     1
  6
CONTINUOUS
 10
10483.0278
 20
35885.0771
  0
VERTEX
  8
LAYER49
 62
     1
  6
CONTINUOUS
 10
10284.4014
 20
36017.4955
  0
SEQEND
  8
LAYER49
  0
POLYLINE
  8
LAYER49
 62
     1
 66
     1
  6
CONTINUOUS
  0
VERTEX
  8
LAYER49
 62
     1
  6
CONTINUOUS
 10
9434.7288
 20
34450.5532
  0
VERTEX
  8
LAYER49
 62
     1
  6
CONTINUOUS
 10
9412.6650
 20
34406.4232
  0
VERTEX
  8
LAYER49
 62
     1
  6
CONTINUOUS
 10
9368.5202
 20
34329.1738
  0
VERTEX
  8
LAYER49
 62
     1
  6
CONTINUOUS
 10
9280.2473
 20
34196.7578
  0
VERTEX
  8
LAYER49
 62
     1
  6
CONTINUOUS
 10
9180.9347
 20
34064.3371
  0
VERTEX
  8
LAYER49
 62
     1
  6
CONTINUOUS
 10
9059.5416
 20
33920.8821
  0
VERTEX
  8
LAYER49
 62
     1
  6
CONTINUOUS
 10
9004.3733
 20
33843.6493
  0
VERTEX
  8
LAYER49
 62
     1
  6
CONTINUOUS
 10
9070.5819
 20
33700.1919
  0
VERTEX
  8
LAYER49
 62
     1
  6
CONTINUOUS
 10
9236.1030
 20
33545.7122
  0
VERTEX
  8
LAYER49
 62
     1
  6
CONTINUOUS
 10
9346.4558
 20
33435.3552
  0
VERTEX
  8
LAYER49
 62
     1
  6
CONTINUOUS
 10
9423.6892
 20
33424.3186
  0
VERTEX
  8
LAYER49
 62
     1
  6
CONTINUOUS
 10
9500.9380
 20
33512.6046
  0
VERTEX
  8
LAYER49
 62
     1
  6
CONTINUOUS
 10
9567.1466
 20
33711.2334
  0
VERTEX
  8
LAYER49
 62
     1
  6
CONTINUOUS
 10
9545.0822
 20
33832.6079
  0
VERTEX
  8
LAYER49
 62
     1
  6
CONTINUOUS
 10
9478.8736
 20
34053.3004
  0
VERTEX
  8
LAYER49
 62
     1
  6
CONTINUOUS
 10
9445.7690
 20
34141.5865
  0
VERTEX
  8
LAYER49
 62
     1
  6
CONTINUOUS
 10
9445.7690
 20
34262.9634
  0
VERTEX
  8
LAYER49
 62
     1
  6
CONTINUOUS
 10
9412.6650
 20
34406.4232
  0
SEQEND
  8
LAYER49
  0
POLYLINE
  8
LAYER49
 62
     1
 66
     1
  6
CONTINUOUS
  0
VERTEX
  8
LAYER49
 62
     1
  6
CONTINUOUS
 10
9445.7690
 20
34262.9634
  0
VERTEX
  8
LAYER49
 62
     1
  6
CONTINUOUS
 10
9567.1466
 20
34251.9268
  0
VERTEX
  8
LAYER49
 62
     1
  6
CONTINUOUS
 10
9622.3149
 20
34318.1324
  0
VERTEX
  8
LAYER49
 62
     1
  6
CONTINUOUS
 10
9710.6034
 20
34406.4208
  0
VERTEX
  8
LAYER49
 62
     1
  6
CONTINUOUS
 10
9798.8763
 20
34527.8002
  0
VERTEX
  8
LAYER49
 62
     1
  6
CONTINUOUS
 10
9820.9407
 20
34638.1524
  0
VERTEX
  8
LAYER49
 62
     1
  6
CONTINUOUS
 10
9798.8763
 20
34770.5708
  0
VERTEX
  8
LAYER49
 62
     1
  6
CONTINUOUS
 10
9721.6281
 20
34914.0091
  0
VERTEX
  8
LAYER49
 62
     1
  6
CONTINUOUS
 10
9622.3149
 20
34958.1533
  0
VERTEX
  8
LAYER49
 62
     1
  6
CONTINUOUS
 10
9456.7932
 20
35002.2999
  0
VERTEX
  8
LAYER49
 62
     1
  6
CONTINUOUS
 10
9302.3116
 20
35057.4665
  0
VERTEX
  8
LAYER49
 62
     1
  6
CONTINUOUS
 10
9070.5819
 20
35112.6378
  0
VERTEX
  8
LAYER49
 62
     1
  6
CONTINUOUS
 10
8960.2291
 20
35046.4298
  0
VERTEX
  8
LAYER49
 62
     1
  6
CONTINUOUS
 10
8838.8515
 20
34925.0529
  0
VERTEX
  8
LAYER49
 62
     1
  6
CONTINUOUS
 10
8695.3941
 20
34781.5955
  0
VERTEX
  8
LAYER49
 62
     1
  6
CONTINUOUS
 10
8640.2257
 20
34627.1134
  0
VERTEX
  8
LAYER49
 62
     1
  6
CONTINUOUS
 10
8629.1855
 20
34362.2766
  0
VERTEX
  8
LAYER49
 62
     1
  6
CONTINUOUS
 10
8640.2257
 20
34185.7164
  0
VERTEX
  8
LAYER49
 62
     1
  6
CONTINUOUS
 10
8662.2901
 20
34009.1705
  0
VERTEX
  8
LAYER49
 62
     1
  6
CONTINUOUS
 10
8695.3941
 20
33832.6103
  0
VERTEX
  8
LAYER49
 62
     1
  6
CONTINUOUS
 10
8739.5383
 20
33689.1529
  0
VERTEX
  8
LAYER49
 62
     1
  6
CONTINUOUS
 10
8794.7073
 20
33545.7122
  0
VERTEX
  8
LAYER49
 62
     1
  6
CONTINUOUS
 10
8894.0199
 20
33479.4994
  0
VERTEX
  8
LAYER49
 62
     1
  6
CONTINUOUS
 10
9004.3733
 20
33468.4628
  0
VERTEX
  8
LAYER49
 62
     1
  6
CONTINUOUS
 10
9070.5819
 20
33490.5266
  0
VERTEX
  8
LAYER49
 62
     1
  6
CONTINUOUS
 10
9236.1030
 20
33545.7122
  0
SEQEND
  8
LAYER49
  0
POLYLINE
  8
LAYER49
 62
     1
 66
     1
  6
CONTINUOUS
  0
VERTEX
  8
LAYER49
 62
     1
  6
CONTINUOUS
 10
8871.9561
 20
34571.9420
  0
VERTEX
  8
LAYER49
 62
     1
  6
CONTINUOUS
 10
8849.8917
 20
34560.9054
  0
VERTEX
  8
LAYER49
 62
     1
  6
CONTINUOUS
 10
8816.7871
 20
34494.6950
  0
VERTEX
  8
LAYER49
 62
     1
  6
CONTINUOUS
 10
8794.7073
 20
34384.3428
  0
VERTEX
  8
LAYER49
 62
     1
  6
CONTINUOUS
 10
8783.6831
 20
34274.0072
  0
VERTEX
  8
LAYER49
 62
     1
  6
CONTINUOUS
 10
8816.7871
 20
34185.7140
  0
VERTEX
  8
LAYER49
 62
     1
  6
CONTINUOUS
 10
8871.9561
 20
34130.5475
  0
VERTEX
  8
LAYER49
 62
     1
  6
CONTINUOUS
 10
8949.2043
 20
34086.4056
  0
VERTEX
  8
LAYER49
 62
     1
  6
CONTINUOUS
 10
8993.3331
 20
34108.4813
  0
VERTEX
  8
LAYER49
 62
     1
  6
CONTINUOUS
 10
9026.4376
 20
34141.5889
  0
VERTEX
  8
LAYER49
 62
     1
  6
CONTINUOUS
 10
9081.6215
 20
34196.7555
  0
VERTEX
  8
LAYER49
 62
     1
  6
CONTINUOUS
 10
9147.8301
 20
34240.9021
  0
VERTEX
  8
LAYER49
 62
     1
  6
CONTINUOUS
 10
9158.8548
 20
34307.1101
  0
VERTEX
  8
LAYER49
 62
     1
  6
CONTINUOUS
 10
9136.7905
 20
34362.2766
  0
VERTEX
  8
LAYER49
 62
     1
  6
CONTINUOUS
 10
9059.5416
 20
34428.4870
  0
VERTEX
  8
LAYER49
 62
     1
  6
CONTINUOUS
 10
8993.3331
 20
34483.6536
  0
VERTEX
  8
LAYER49
 62
     1
  6
CONTINUOUS
 10
8871.9561
 20
34571.9420
  0
SEQEND
  8
LAYER49
  0
POLYLINE
  8
LAYER49
 62
     1
 66
     1
  6
CONTINUOUS
  0
VERTEX
  8
LAYER49
 62
     1
  6
CONTINUOUS
 10
10725.7983
 20
33358.1106
  0
VERTEX
  8
LAYER49
 62
     1
  6
CONTINUOUS
 10
10670.6294
 20
33325.0030
  0
VERTEX
  8
LAYER49
 62
     1
  6
CONTINUOUS
 10
10659.5892
 20
33214.6651
  0
VERTEX
  8
LAYER49
 62
     1
  6
CONTINUOUS
 10
10769.9426
 20
33071.2077
  0
VERTEX
  8
LAYER49
 62
     1
  6
CONTINUOUS
 10
10902.3597
 20
32949.8307
  0
VERTEX
  8
LAYER49
 62
     1
  6
CONTINUOUS
 10
11078.9056
 20
32817.4147
  0
VERTEX
  8
LAYER49
 62
     1
  6
CONTINUOUS
 10
11200.2981
 20
32718.1016
  0
VERTEX
  8
LAYER49
 62
     1
  6
CONTINUOUS
 10
11332.7153
 20
32574.6442
  0
VERTEX
  8
LAYER49
 62
     1
  6
CONTINUOUS
 10
11509.2612
 20
32442.2258
  0
VERTEX
  8
LAYER49
 62
     1
  6
CONTINUOUS
 10
11740.9915
 20
32353.9540
  0
VERTEX
  8
LAYER49
 62
     1
  6
CONTINUOUS
 10
11906.5127
 20
32475.3310
  0
VERTEX
  8
LAYER49
 62
     1
  6
CONTINUOUS
 10
12038.9299
 20
32795.3343
  0
VERTEX
  8
LAYER49
 62
     1
  6
CONTINUOUS
 10
12149.2833
 20
33027.0635
  0
VERTEX
  8
LAYER49
 62
     1
  6
CONTINUOUS
 10
12237.5562
 20
33192.5870
  0
VERTEX
  8
LAYER49
 62
     1
  6
CONTINUOUS
 10
12281.7004
 20
33369.1496
  0
VERTEX
  8
LAYER49
 62
     1
  6
CONTINUOUS
 10
12303.7642
 20
33611.9202
  0
VERTEX
  8
LAYER49
 62
     1
  6
CONTINUOUS
 10
12270.6602
 20
33733.2971
  0
VERTEX
  8
LAYER49
 62
     1
  6
CONTINUOUS
 10
12215.4913
 20
33755.3609
  0
VERTEX
  8
LAYER49
 62
     1
  6
CONTINUOUS
 10
12116.1793
 20
33711.2334
  0
VERTEX
  8
LAYER49
 62
     1
  6
CONTINUOUS
 10
11972.7219
 20
33611.9178
  0
VERTEX
  8
LAYER49
 62
     1
  6
CONTINUOUS
 10
11851.3449
 20
33534.6684
  0
VERTEX
  8
LAYER49
 62
     1
  6
CONTINUOUS
 10
11685.8226
 20
33446.3990
  0
VERTEX
  8
LAYER49
 62
     1
  6
CONTINUOUS
 10
11509.2612
 20
33380.1863
  0
VERTEX
  8
LAYER49
 62
     1
  6
CONTINUOUS
 10
11354.7802
 20
33347.0858
  0
VERTEX
  8
LAYER49
 62
     1
  6
CONTINUOUS
 10
11167.1941
 20
33336.0420
  0
VERTEX
  8
LAYER49
 62
     1
  6
CONTINUOUS
 10
11023.7367
 20
33325.0030
  0
VERTEX
  8
LAYER49
 62
     1
  6
CONTINUOUS
 10
10869.2545
 20
33325.0030
  0
VERTEX
  8
LAYER49
 62
     1
  6
CONTINUOUS
 10
10725.7983
 20
33358.1106
  0
SEQEND
  8
LAYER49
  0
POLYLINE
  8
LAYER49
 62
     1
 66
     1
  6
CONTINUOUS
  0
VERTEX
  8
LAYER49
 62
     1
  6
CONTINUOUS
 10
12976.8903
 20
33909.8597
  0
VERTEX
  8
LAYER49
 62
     1
  6
CONTINUOUS
 10
12943.7863
 20
33931.9235
  0
VERTEX
  8
LAYER49
 62
     1
  6
CONTINUOUS
 10
12910.6823
 20
34075.3809
  0
VERTEX
  8
LAYER49
 62
     1
  6
CONTINUOUS
 10
12866.5381
 20
34285.0296
  0
VERTEX
  8
LAYER49
 62
     1
  6
CONTINUOUS
 10
12855.5134
 20
34395.3842
  0
VERTEX
  8
LAYER49
 62
     1
  6
CONTINUOUS
 10
12877.5783
 20
34472.6312
  0
VERTEX
  8
LAYER49
 62
     1
  6
CONTINUOUS
 10
12987.9305
 20
34594.0082
  0
VERTEX
  8
LAYER49
 62
     1
  6
CONTINUOUS
 10
13219.6609
 20
34748.4903
  0
VERTEX
  8
LAYER49
 62
     1
  6
CONTINUOUS
 10
13341.0378
 20
34814.6983
  0
VERTEX
  8
LAYER49
 62
     1
  6
CONTINUOUS
 10
13583.8084
 20
34880.9087
  0
VERTEX
  8
LAYER49
 62
     1
  6
CONTINUOUS
 10
13749.3296
 20
34902.9891
  0
VERTEX
  8
LAYER49
 62
     1
  6
CONTINUOUS
 10
13903.8117
 20
34902.9891
  0
VERTEX
  8
LAYER49
 62
     1
  6
CONTINUOUS
 10
13970.0197
 20
34836.7788
  0
VERTEX
  8
LAYER49
 62
     1
  6
CONTINUOUS
 10
13947.9560
 20
34682.2823
  0
VERTEX
  8
LAYER49
 62
     1
  6
CONTINUOUS
 10
13881.7468
 20
34560.9054
  0
VERTEX
  8
LAYER49
 62
     1
  6
CONTINUOUS
 10
13804.4986
 20
34450.5532
  0
VERTEX
  8
LAYER49
 62
     1
  6
CONTINUOUS
 10
13749.3296
 20
34340.2152
  0
VERTEX
  8
LAYER49
 62
     1
  6
CONTINUOUS
 10
13661.0412
 20
34285.0296
  0
VERTEX
  8
LAYER49
 62
     1
  6
CONTINUOUS
 10
13561.7280
 20
34251.9268
  0
VERTEX
  8
LAYER49
 62
     1
  6
CONTINUOUS
 10
13484.4952
 20
34196.7578
  0
VERTEX
  8
LAYER49
 62
     1
  6
CONTINUOUS
 10
13418.2873
 20
34097.4447
  0
VERTEX
  8
LAYER49
 62
     1
  6
CONTINUOUS
 10
13341.0378
 20
34031.2367
  0
VERTEX
  8
LAYER49
 62
     1
  6
CONTINUOUS
 10
13285.8701
 20
34031.2367
  0
VERTEX
  8
LAYER49
 62
     1
  6
CONTINUOUS
 10
13230.6856
 20
34031.2367
  0
VERTEX
  8
LAYER49
 62
     1
  6
CONTINUOUS
 10
13153.4529
 20
34020.1953
  0
VERTEX
  8
LAYER49
 62
     1
  6
CONTINUOUS
 10
12976.8903
 20
33909.8597
  0
SEQEND
  8
LAYER49
  0
POLYLINE
  8
LAYER49
 62
     1
 66
     1
  6
CONTINUOUS
  0
VERTEX
  8
LAYER49
 62
     1
  6
CONTINUOUS
 10
13672.0814
 20
36326.4741
  0
VERTEX
  8
LAYER49
 62
     1
  6
CONTINUOUS
 10
13638.9774
 20
36315.4326
  0
VERTEX
  8
LAYER49
 62
     1
  6
CONTINUOUS
 10
13572.7682
 20
36216.1195
  0
VERTEX
  8
LAYER49
 62
     1
  6
CONTINUOUS
 10
13495.5200
 20
36105.7673
  0
VERTEX
  8
LAYER49
 62
     1
  6
CONTINUOUS
 10
13451.3913
 20
35929.2213
  0
VERTEX
  8
LAYER49
 62
     1
  6
CONTINUOUS
 10
13451.3913
 20
35752.6611
  0
VERTEX
  8
LAYER49
 62
     1
  6
CONTINUOUS
 10
13462.4160
 20
35609.2037
  0
VERTEX
  8
LAYER49
 62
     1
  6
CONTINUOUS
 10
13528.6240
 20
35465.7606
  0
VERTEX
  8
LAYER49
 62
     1
  6
CONTINUOUS
 10
13672.0814
 20
35410.5774
  0
VERTEX
  8
LAYER49
 62
     1
  6
CONTINUOUS
 10
13804.4986
 20
35443.6802
  0
VERTEX
  8
LAYER49
 62
     1
  6
CONTINUOUS
 10
13892.7715
 20
35542.9934
  0
VERTEX
  8
LAYER49
 62
     1
  6
CONTINUOUS
 10
13914.8520
 20
35686.4508
  0
VERTEX
  8
LAYER49
 62
     1
  6
CONTINUOUS
 10
13870.7077
 20
35885.0771
  0
VERTEX
  8
LAYER49
 62
     1
  6
CONTINUOUS
 10
13826.5635
 20
35984.3903
  0
VERTEX
  8
LAYER49
 62
     1
  6
CONTINUOUS
 10
13782.4348
 20
36094.7425
  0
VERTEX
  8
LAYER49
 62
     1
  6
CONTINUOUS
 10
13738.2906
 20
36205.0804
  0
VERTEX
  8
LAYER49
 62
     1
  6
CONTINUOUS
 10
13672.0814
 20
36326.4741
  0
SEQEND
  8
LAYER49
  0
POLYLINE
  8
LAYER49
 62
     1
 66
     1
  6
CONTINUOUS
  0
VERTEX
  8
LAYER49
 62
     1
  6
CONTINUOUS
 10
15338.3369
 20
36999.5835
  0
VERTEX
  8
LAYER49
 62
     1
  6
CONTINUOUS
 10
15261.0887
 20
36999.5835
  0
VERTEX
  8
LAYER49
 62
     1
  6
CONTINUOUS
 10
15139.7105
 20
36955.4559
  0
VERTEX
  8
LAYER49
 62
     1
  6
CONTINUOUS
 10
14996.2543
 20
36889.2456
  0
VERTEX
  8
LAYER49
 62
     1
  6
CONTINUOUS
 10
14852.7969
 20
36800.9571
  0
VERTEX
  8
LAYER49
 62
     1
  6
CONTINUOUS
 10
14775.5642
 20
36701.6439
  0
VERTEX
  8
LAYER49
 62
     1
  6
CONTINUOUS
 10
14797.6280
 20
36580.2670
  0
VERTEX
  8
LAYER49
 62
     1
  6
CONTINUOUS
 10
14896.9411
 20
36425.7872
  0
VERTEX
  8
LAYER49
 62
     1
  6
CONTINUOUS
 10
15007.2934
 20
36304.3936
  0
VERTEX
  8
LAYER49
 62
     1
  6
CONTINUOUS
 10
15117.6313
 20
36194.0557
  0
VERTEX
  8
LAYER49
 62
     1
  6
CONTINUOUS
 10
15283.1524
 20
36094.7425
  0
VERTEX
  8
LAYER49
 62
     1
  6
CONTINUOUS
 10
15448.6736
 20
36028.5345
  0
VERTEX
  8
LAYER49
 62
     1
  6
CONTINUOUS
 10
15592.1310
 20
35962.3265
  0
VERTEX
  8
LAYER49
 62
     1
  6
CONTINUOUS
 10
15757.6534
 20
35995.4293
  0
VERTEX
  8
LAYER49
 62
     1
  6
CONTINUOUS
 10
15890.0706
 20
36050.5983
  0
VERTEX
  8
LAYER49
 62
     1
  6
CONTINUOUS
 10
16000.4228
 20
36105.7673
  0
VERTEX
  8
LAYER49
 62
     1
  6
CONTINUOUS
 10
16066.6320
 20
36249.2247
  0
VERTEX
  8
LAYER49
 62
     1
  6
CONTINUOUS
 10
16110.7607
 20
36392.6821
  0
VERTEX
  8
LAYER49
 62
     1
  6
CONTINUOUS
 10
16188.0089
 20
36514.0590
  0
VERTEX
  8
LAYER49
 62
     1
  6
CONTINUOUS
 10
16243.1779
 20
36635.4360
  0
VERTEX
  8
LAYER49
 62
     1
  6
CONTINUOUS
 10
16232.1531
 20
36745.7905
  0
VERTEX
  8
LAYER49
 62
     1
  6
CONTINUOUS
 10
16165.9451
 20
36867.1675
  0
SEQEND
  8
LAYER49
  0
POLYLINE
  8
LAYER49
 62
     1
 66
     1
  6
CONTINUOUS
  0
VERTEX
  8
LAYER49
 62
     1
  6
CONTINUOUS
 10
15161.7755
 20
35785.7639
  0
VERTEX
  8
LAYER49
 62
     1
  6
CONTINUOUS
 10
15128.6715
 20
35620.2428
  0
VERTEX
  8
LAYER49
 62
     1
  6
CONTINUOUS
 10
15095.5663
 20
35509.8906
  0
VERTEX
  8
LAYER49
 62
     1
  6
CONTINUOUS
 10
15095.5663
 20
35388.5136
  0
VERTEX
  8
LAYER49
 62
     1
  6
CONTINUOUS
 10
15128.6715
 20
35278.1590
  0
VERTEX
  8
LAYER49
 62
     1
  6
CONTINUOUS
 10
15250.0485
 20
35145.7430
  0
VERTEX
  8
LAYER49
 62
     1
  6
CONTINUOUS
 10
15327.2967
 20
35079.5350
  0
VERTEX
  8
LAYER49
 62
     1
  6
CONTINUOUS
 10
15525.9230
 20
34869.8839
  0
VERTEX
  8
LAYER49
 62
     1
  6
CONTINUOUS
 10
15647.3000
 20
34759.5317
  0
VERTEX
  8
LAYER49
 62
     1
  6
CONTINUOUS
 10
15856.9654
 20
34715.3875
  0
VERTEX
  8
LAYER49
 62
     1
  6
CONTINUOUS
 10
16077.6567
 20
34770.5708
  0
VERTEX
  8
LAYER49
 62
     1
  6
CONTINUOUS
 10
16199.0491
 20
34869.8839
  0
VERTEX
  8
LAYER49
 62
     1
  6
CONTINUOUS
 10
16342.4910
 20
35101.6131
  0
VERTEX
  8
LAYER49
 62
     1
  6
CONTINUOUS
 10
16386.6353
 20
35399.5526
  0
VERTEX
  8
LAYER49
 62
     1
  6
CONTINUOUS
 10
16375.5950
 20
35531.9710
  0
VERTEX
  8
LAYER49
 62
     1
  6
CONTINUOUS
 10
16298.3623
 20
35653.3480
  0
VERTEX
  8
LAYER49
 62
     1
  6
CONTINUOUS
 10
16188.0089
 20
35752.6611
  0
VERTEX
  8
LAYER49
 62
     1
  6
CONTINUOUS
 10
16033.5280
 20
35807.8277
  0
VERTEX
  8
LAYER49
 62
     1
  6
CONTINUOUS
 10
15868.0056
 20
35851.9719
  0
VERTEX
  8
LAYER49
 62
     1
  6
CONTINUOUS
 10
15735.5884
 20
35885.0771
  0
VERTEX
  8
LAYER49
 62
     1
  6
CONTINUOUS
 10
15603.1712
 20
35929.2213
  0
VERTEX
  8
LAYER49
 62
     1
  6
CONTINUOUS
 10
15492.8190
 20
35962.3265
  0
VERTEX
  8
LAYER49
 62
     1
  6
CONTINUOUS
 10
15448.6736
 20
36028.5345
  0
SEQEND
  8
LAYER49
  0
POLYLINE
  8
LAYER49
 62
     1
 66
     1
  6
CONTINUOUS
  0
VERTEX
  8
LAYER49
 62
     1
  6
CONTINUOUS
 10
17192.1785
 20
35653.3480
  0
VERTEX
  8
LAYER49
 62
     1
  6
CONTINUOUS
 10
17247.3475
 20
35763.7002
  0
VERTEX
  8
LAYER49
 62
     1
  6
CONTINUOUS
 10
17280.4515
 20
35907.1409
  0
VERTEX
  8
LAYER49
 62
     1
  6
CONTINUOUS
 10
17291.4917
 20
36039.5593
  0
VERTEX
  8
LAYER49
 62
     1
  6
CONTINUOUS
 10
17247.3475
 20
36160.9529
  0
VERTEX
  8
LAYER49
 62
     1
  6
CONTINUOUS
 10
17148.0343
 20
36227.1609
  0
VERTEX
  8
LAYER49
 62
     1
  6
CONTINUOUS
 10
17037.6809
 20
36271.2884
  0
VERTEX
  8
LAYER49
 62
     1
  6
CONTINUOUS
 10
16927.3442
 20
36271.2884
  0
VERTEX
  8
LAYER49
 62
     1
  6
CONTINUOUS
 10
16850.0948
 20
36194.0557
  0
VERTEX
  8
LAYER49
 62
     1
  6
CONTINUOUS
 10
16905.2637
 20
36061.6397
  0
VERTEX
  8
LAYER49
 62
     1
  6
CONTINUOUS
 10
17026.6562
 20
35940.2461
  0
VERTEX
  8
LAYER49
 62
     1
  6
CONTINUOUS
 10
17114.9291
 20
35840.9329
  0
VERTEX
  8
LAYER49
 62
     1
  6
CONTINUOUS
 10
17192.1785
 20
35653.3480
  0
SEQEND
  8
LAYER49
  0
POLYLINE
  8
LAYER49
 62
     1
 66
     1
  6
CONTINUOUS
  0
VERTEX
  8
LAYER49
 62
     1
  6
CONTINUOUS
 10
10979.5925
 20
36039.5569
  0
VERTEX
  8
LAYER49
 62
     1
  6
CONTINUOUS
 10
10968.5677
 20
36017.4931
  0
SEQEND
  8
LAYER49
  0
POLYLINE
  8
LAYER49
 62
     1
 66
     1
  6
CONTINUOUS
  0
VERTEX
  8
LAYER49
 62
     1
  6
CONTINUOUS
 10
10968.5677
 20
36017.4931
  0
VERTEX
  8
LAYER49
 62
     1
  6
CONTINUOUS
 10
11089.9447
 20
36094.7401
  0
SEQEND
  8
LAYER49
  0
POLYLINE
  8
LAYER49
 62
     1
 66
     1
  6
CONTINUOUS
  0
VERTEX
  8
LAYER49
 62
     1
  6
CONTINUOUS
 10
11089.9447
 20
36094.7401
  0
VERTEX
  8
LAYER49
 62
     1
  6
CONTINUOUS
 10
11200.2981
 20
36171.9752
  0
SEQEND
  8
LAYER49
  0
POLYLINE
  8
LAYER49
 62
     1
 66
     1
  6
CONTINUOUS
  0
VERTEX
  8
LAYER49
 62
     1
  6
CONTINUOUS
 10
11200.2981
 20
36171.9752
  0
VERTEX
  8
LAYER49
 62
     1
  6
CONTINUOUS
 10
11332.7153
 20
36138.8701
  0
SEQEND
  8
LAYER49
  0
POLYLINE
  8
LAYER49
 62
     1
 66
     1
  6
CONTINUOUS
  0
VERTEX
  8
LAYER49
 62
     1
  6
CONTINUOUS
 10
11332.7153
 20
36138.8701
  0
VERTEX
  8
LAYER49
 62
     1
  6
CONTINUOUS
 10
11476.1572
 20
35973.3513
  0
SEQEND
  8
LAYER49
  0
POLYLINE
  8
LAYER49
 62
     1
 66
     1
  6
CONTINUOUS
  0
VERTEX
  8
LAYER49
 62
     1
  6
CONTINUOUS
 10
11476.1572
 20
35973.3513
  0
VERTEX
  8
LAYER49
 62
     1
  6
CONTINUOUS
 10
11674.7823
 20
35686.4484
  0
SEQEND
  8
LAYER49
  0
POLYLINE
  8
LAYER49
 62
     1
 66
     1
  6
CONTINUOUS
  0
VERTEX
  8
LAYER49
 62
     1
  6
CONTINUOUS
 10
11674.7823
 20
35686.4484
  0
VERTEX
  8
LAYER49
 62
     1
  6
CONTINUOUS
 10
11785.1357
 20
35498.8658
  0
SEQEND
  8
LAYER49
  0
POLYLINE
  8
LAYER49
 62
     1
 66
     1
  6
CONTINUOUS
  0
VERTEX
  8
LAYER49
 62
     1
  6
CONTINUOUS
 10
11785.1357
 20
35498.8658
  0
VERTEX
  8
LAYER49
 62
     1
  6
CONTINUOUS
 10
11873.4087
 20
35333.3423
  0
SEQEND
  8
LAYER49
  0
POLYLINE
  8
LAYER49
 62
     1
 66
     1
  6
CONTINUOUS
  0
VERTEX
  8
LAYER49
 62
     1
  6
CONTINUOUS
 10
11873.4087
 20
35333.3423
  0
VERTEX
  8
LAYER49
 62
     1
  6
CONTINUOUS
 10
11862.3840
 20
35234.0291
  0
SEQEND
  8
LAYER49
  0
POLYLINE
  8
LAYER49
 62
     1
 66
     1
  6
CONTINUOUS
  0
VERTEX
  8
LAYER49
 62
     1
  6
CONTINUOUS
 10
11862.3840
 20
35234.0291
  0
VERTEX
  8
LAYER49
 62
     1
  6
CONTINUOUS
 10
11796.1760
 20
35112.6355
  0
SEQEND
  8
LAYER49
  0
POLYLINE
  8
LAYER49
 62
     1
 66
     1
  6
CONTINUOUS
  0
VERTEX
  8
LAYER49
 62
     1
  6
CONTINUOUS
 10
11796.1760
 20
35112.6355
  0
VERTEX
  8
LAYER49
 62
     1
  6
CONTINUOUS
 10
11685.8226
 20
34991.2609
  0
SEQEND
  8
LAYER49
  0
POLYLINE
  8
LAYER49
 62
     1
 66
     1
  6
CONTINUOUS
  0
VERTEX
  8
LAYER49
 62
     1
  6
CONTINUOUS
 10
11685.8226
 20
34991.2609
  0
VERTEX
  8
LAYER49
 62
     1
  6
CONTINUOUS
 10
11597.5496
 20
34891.9453
  0
SEQEND
  8
LAYER49
  0
POLYLINE
  8
LAYER49
 62
     1
 66
     1
  6
CONTINUOUS
  0
VERTEX
  8
LAYER49
 62
     1
  6
CONTINUOUS
 10
11597.5496
 20
34891.9453
  0
VERTEX
  8
LAYER49
 62
     1
  6
CONTINUOUS
 10
11487.1974
 20
34792.6321
  0
SEQEND
  8
LAYER49
  0
POLYLINE
  8
LAYER49
 62
     1
 66
     1
  6
CONTINUOUS
  0
VERTEX
  8
LAYER49
 62
     1
  6
CONTINUOUS
 10
11487.1974
 20
34792.6321
  0
VERTEX
  8
LAYER49
 62
     1
  6
CONTINUOUS
 10
11387.8842
 20
34726.4242
  0
SEQEND
  8
LAYER49
  0
POLYLINE
  8
LAYER49
 62
     1
 66
     1
  6
CONTINUOUS
  0
VERTEX
  8
LAYER49
 62
     1
  6
CONTINUOUS
 10
11387.8842
 20
34726.4242
  0
VERTEX
  8
LAYER49
 62
     1
  6
CONTINUOUS
 10
11288.5710
 20
34704.3604
  0
SEQEND
  8
LAYER49
  0
POLYLINE
  8
LAYER49
 62
     1
 66
     1
  6
CONTINUOUS
  0
VERTEX
  8
LAYER49
 62
     1
  6
CONTINUOUS
 10
11288.5710
 20
34704.3604
  0
VERTEX
  8
LAYER49
 62
     1
  6
CONTINUOUS
 10
11167.1941
 20
34781.5931
  0
SEQEND
  8
LAYER49
  0
POLYLINE
  8
LAYER49
 62
     1
 66
     1
  6
CONTINUOUS
  0
VERTEX
  8
LAYER49
 62
     1
  6
CONTINUOUS
 10
11167.1941
 20
34781.5931
  0
VERTEX
  8
LAYER49
 62
     1
  6
CONTINUOUS
 10
11078.9056
 20
34880.9063
  0
SEQEND
  8
LAYER49
  0
POLYLINE
  8
LAYER49
 62
     1
 66
     1
  6
CONTINUOUS
  0
VERTEX
  8
LAYER49
 62
     1
  6
CONTINUOUS
 10
11078.9056
 20
34880.9063
  0
VERTEX
  8
LAYER49
 62
     1
  6
CONTINUOUS
 10
11012.6965
 20
34980.2219
  0
SEQEND
  8
LAYER49
  0
POLYLINE
  8
LAYER49
 62
     1
 66
     1
  6
CONTINUOUS
  0
VERTEX
  8
LAYER49
 62
     1
  6
CONTINUOUS
 10
11012.6965
 20
34980.2219
  0
VERTEX
  8
LAYER49
 62
     1
  6
CONTINUOUS
 10
10935.4637
 20
35068.5103
  0
SEQEND
  8
LAYER49
  0
POLYLINE
  8
LAYER49
 62
     1
 66
     1
  6
CONTINUOUS
  0
VERTEX
  8
LAYER49
 62
     1
  6
CONTINUOUS
 10
10935.4637
 20
35068.5103
  0
VERTEX
  8
LAYER49
 62
     1
  6
CONTINUOUS
 10
10858.2155
 20
35145.7406
  0
SEQEND
  8
LAYER49
  0
POLYLINE
  8
LAYER49
 62
     1
 66
     1
  6
CONTINUOUS
  0
VERTEX
  8
LAYER49
 62
     1
  6
CONTINUOUS
 10
10858.2155
 20
35145.7406
  0
VERTEX
  8
LAYER49
 62
     1
  6
CONTINUOUS
 10
10858.2155
 20
35189.8849
  0
SEQEND
  8
LAYER49
  0
POLYLINE
  8
LAYER49
 62
     1
 66
     1
  6
CONTINUOUS
  0
VERTEX
  8
LAYER49
 62
     1
  6
CONTINUOUS
 10
10692.6932
 20
35421.6164
  0
VERTEX
  8
LAYER49
 62
     1
  6
CONTINUOUS
 10
10648.5489
 20
35377.4722
  0
SEQEND
  8
LAYER49
  0
POLYLINE
  8
LAYER49
 62
     1
 66
     1
  6
CONTINUOUS
  0
VERTEX
  8
LAYER49
 62
     1
  6
CONTINUOUS
 10
10648.5489
 20
35377.4722
  0
VERTEX
  8
LAYER49
 62
     1
  6
CONTINUOUS
 10
10604.4202
 20
35443.6778
  0
SEQEND
  8
LAYER49
  0
POLYLINE
  8
LAYER49
 62
     1
 66
     1
  6
CONTINUOUS
  0
VERTEX
  8
LAYER49
 62
     1
  6
CONTINUOUS
 10
10604.4202
 20
35443.6778
  0
VERTEX
  8
LAYER49
 62
     1
  6
CONTINUOUS
 10
10615.4449
 20
35542.9910
  0
SEQEND
  8
LAYER49
  0
POLYLINE
  8
LAYER49
 62
     1
 66
     1
  6
CONTINUOUS
  0
VERTEX
  8
LAYER49
 62
     1
  6
CONTINUOUS
 10
10615.4449
 20
35542.9910
  0
VERTEX
  8
LAYER49
 62
     1
  6
CONTINUOUS
 10
10747.8621
 20
35785.7639
  0
SEQEND
  8
LAYER49
  0
POLYLINE
  8
LAYER49
 62
     1
 66
     1
  6
CONTINUOUS
  0
VERTEX
  8
LAYER49
 62
     1
  6
CONTINUOUS
 10
13947.9560
 20
40596.9289
  0
VERTEX
  8
LAYER49
 62
     1
  6
CONTINUOUS
 10
13914.8520
 20
40585.8874
  0
VERTEX
  8
LAYER49
 62
     1
  6
CONTINUOUS
 10
13826.5635
 20
40630.0340
  0
VERTEX
  8
LAYER49
 62
     1
  6
CONTINUOUS
 10
13738.2906
 20
40585.8874
  0
VERTEX
  8
LAYER49
 62
     1
  6
CONTINUOUS
 10
13627.9372
 20
40464.5129
  0
VERTEX
  8
LAYER49
 62
     1
  6
CONTINUOUS
 10
13517.6004
 20
40332.0969
  0
VERTEX
  8
LAYER49
 62
     1
  6
CONTINUOUS
 10
13374.1430
 20
40210.7033
  0
VERTEX
  8
LAYER49
 62
     1
  6
CONTINUOUS
 10
13230.6856
 20
40100.3653
  0
VERTEX
  8
LAYER49
 62
     1
  6
CONTINUOUS
 10
13186.5569
 20
39978.9717
  0
VERTEX
  8
LAYER49
 62
     1
  6
CONTINUOUS
 10
13307.9339
 20
39824.4896
  0
VERTEX
  8
LAYER49
 62
     1
  6
CONTINUOUS
 10
13462.4160
 20
39670.0098
  0
VERTEX
  8
LAYER49
 62
     1
  6
CONTINUOUS
 10
13661.0412
 20
39559.6552
  0
VERTEX
  8
LAYER49
 62
     1
  6
CONTINUOUS
 10
13859.6675
 20
39504.4863
  0
VERTEX
  8
LAYER49
 62
     1
  6
CONTINUOUS
 10
14014.1640
 20
39504.4863
  0
VERTEX
  8
LAYER49
 62
     1
  6
CONTINUOUS
 10
14069.3329
 20
39559.6552
  0
VERTEX
  8
LAYER49
 62
     1
  6
CONTINUOUS
 10
14047.2691
 20
39703.1126
  0
VERTEX
  8
LAYER49
 62
     1
  6
CONTINUOUS
 10
14014.1640
 20
39846.5557
  0
VERTEX
  8
LAYER49
 62
     1
  6
CONTINUOUS
 10
13981.0600
 20
39990.0131
  0
VERTEX
  8
LAYER49
 62
     1
  6
CONTINUOUS
 10
13947.9560
 20
40144.4929
  0
VERTEX
  8
LAYER49
 62
     1
  6
CONTINUOUS
 10
13947.9560
 20
40265.8865
  0
VERTEX
  8
LAYER49
 62
     1
  6
CONTINUOUS
 10
13947.9560
 20
40596.9289
  0
SEQEND
  8
LAYER49
  0
POLYLINE
  8
LAYER49
 62
     1
 66
     1
  6
CONTINUOUS
  0
VERTEX
  8
LAYER49
 62
     1
  6
CONTINUOUS
 10
11354.7802
 20
34285.0296
  0
VERTEX
  8
LAYER49
 62
     1
  6
CONTINUOUS
 10
11255.4670
 20
34340.2152
  0
VERTEX
  8
LAYER49
 62
     1
  6
CONTINUOUS
 10
11178.2176
 20
34362.2790
  0
VERTEX
  8
LAYER49
 62
     1
  6
CONTINUOUS
 10
11100.9849
 20
34285.0296
  0
VERTEX
  8
LAYER49
 62
     1
  6
CONTINUOUS
 10
11067.8809
 20
34141.5865
  0
VERTEX
  8
LAYER49
 62
     1
  6
CONTINUOUS
 10
11034.7769
 20
34031.2367
  0
VERTEX
  8
LAYER49
 62
     1
  6
CONTINUOUS
 10
11045.8005
 20
33755.3585
  0
SEQEND
  8
LAYER49
  0
POLYLINE
  8
LAYER49
 62
     1
 66
     1
  6
CONTINUOUS
  0
VERTEX
  8
LAYER49
 62
     1
  6
CONTINUOUS
 10
11200.2981
 20
33678.1282
  0
VERTEX
  8
LAYER49
 62
     1
  6
CONTINUOUS
 10
11310.6348
 20
33611.9178
  0
VERTEX
  8
LAYER49
 62
     1
  6
CONTINUOUS
 10
11376.8440
 20
33611.9202
  0
VERTEX
  8
LAYER49
 62
     1
  6
CONTINUOUS
 10
11531.3416
 20
33611.9178
  0
VERTEX
  8
LAYER49
 62
     1
  6
CONTINUOUS
 10
11597.5496
 20
33611.9178
  0
VERTEX
  8
LAYER49
 62
     1
  6
CONTINUOUS
 10
11597.5496
 20
33611.9178
  0
SEQEND
  8
LAYER49
  0
POLYLINE
  8
LAYER49
 62
     1
 66
     1
  6
CONTINUOUS
  0
VERTEX
  8
LAYER49
 62
     1
  6
CONTINUOUS
 10
11597.5496
 20
33611.9178
  0
VERTEX
  8
LAYER49
 62
     1
  6
CONTINUOUS
 10
11851.3449
 20
33534.6684
  0
SEQEND
  8
LAYER49
  0
POLYLINE
  8
LAYER49
 62
     1
 66
     1
  6
CONTINUOUS
  0
VERTEX
  8
LAYER49
 62
     1
  6
CONTINUOUS
 10
11972.7219
 20
33611.9178
  0
VERTEX
  8
LAYER49
 62
     1
  6
CONTINUOUS
 10
11774.0955
 20
33942.9601
  0
SEQEND
  8
LAYER49
  0
POLYLINE
  8
LAYER49
 62
     1
 66
     1
  6
CONTINUOUS
  0
VERTEX
  8
LAYER49
 62
     1
  6
CONTINUOUS
 10
15139.7105
 20
36955.4559
  0
VERTEX
  8
LAYER49
 62
     1
  6
CONTINUOUS
 10
15415.5696
 20
37286.4983
  0
VERTEX
  8
LAYER49
 62
     1
  6
CONTINUOUS
 10
15294.1927
 20
37407.8752
  0
VERTEX
  8
LAYER49
 62
     1
  6
CONTINUOUS
 10
15183.8393
 20
37518.2274
  0
VERTEX
  8
LAYER49
 62
     1
  6
CONTINUOUS
 10
14941.0854
 20
37297.5230
  0
VERTEX
  8
LAYER49
 62
     1
  6
CONTINUOUS
 10
14874.8762
 20
37187.1851
  0
VERTEX
  8
LAYER49
 62
     1
  6
CONTINUOUS
 10
14985.2141
 20
37065.7915
  0
VERTEX
  8
LAYER49
 62
     1
  6
CONTINUOUS
 10
14996.2543
 20
36889.2456
  0
SEQEND
  8
LAYER49
  0
ENDSEC
  0
EOF
