  0
SECTION
  2
HEADER
  9
$ACADVER
  1
AC1004
  9
$EXTMIN
 10
21.5350
 20
25.0001
  9
$EXTMAX
 10
66.2265
 20
83.0979
  9
$LIMMIN
 10
21.5350
 20
25.0001
  9
$LIMMAX
 10
66.2265
 20
83.0979
  9
$INSBASE
 10
0.0
 20
0.0
  9
$VIEWCTR
 10
7.21903
 20
4.5
  9
$VIEWSIZE
 40
9.0
  9
$SNAPMODE
 70
     0
  9
$SNAPUNIT
 10
1.0
 20
1.0
  9
$SNAPBASE
 10
0.0
 20
0.0
  9
$SNAPANG
 50
0.0
  9
$SNAPSTYLE
 70
     0
  9
$SNAPISOPAIR
 70
     0
  9
$GRIDMODE
 70
     0
  9
$GRIDUNIT
 10
0.0
 20
0.0
  9
$ORTHOMODE
 70
     0
  9
$REGENMODE
 70
     1
  9
$FILLMODE
 70
     1
  9
$QTEXTMODE
 70
     0
  9
$DRAGMODE
 70
     2
  9
$LTSCALE
 40
1.0
  9
$OSMODE
 70
     0
  9
$ATTMODE
 70
     1
  9
$TEXTSIZE
 40
0.2
  9
$TRACEWID
 40
0.05
  9
$TEXTSTYLE
  7
STANDARD
  9
$CLAYER
  8
0
  9
$CELTYPE
  6
BYLAYER
  9
$CECOLOR
 62
   256
  9
$DIMSCALE
 40
1.0
  9
$DIMASZ
 40
0.18
  9
$DIMEXO
 40
0.0625
  9
$DIMDLI
 40
0.38
  9
$DIMRND
 40
0.0
  9
$DIMDLE
 40
0.0
  9
$DIMEXE
 40
0.18
  9
$DIMTP
 40
0.0
  9
$DIMTM
 40
0.0
  9
$DIMTXT
 40
0.18
  9
$DIMCEN
 40
0.09
  9
$DIMTSZ
 40
0.0
  9
$DIMTOL
 70
     0
  9
$DIMLIM
 70
     0
  9
$DIMTIH
 70
     1
  9
$DIMTOH
 70
     1
  9
$DIMSE1
 70
     0
  9
$DIMSE2
 70
     0
  9
$DIMTAD
 70
     0
  9
$DIMZIN
 70
     0
  9
$DIMBLK
  1

  9
$DIMASO
 70
     1
  9
$DIMSHO
 70
     0
  9
$DIMPOST
  1

  9
$DIMAPOST
  1

  9
$DIMALT
 70
     0
  9
$DIMALTD
 70
     2
  9
$DIMALTF
 40
25.4
  9
$DIMLFAC
 40
1.0
  9
$LUNITS
 70
     2
  9
$LUPREC
 70
     4
  9
$AXISMODE
 70
     0
  9
$AXISUNIT
 10
0.0
 20
0.0
  9
$SKETCHINC
 40
0.1
  9
$FILLETRAD
 40
0.0
  9
$AUNITS
 70
     0
  9
$AUPREC
 70
     0
  9
$MENU
  1
acad
  9
$ELEVATION
 40
0.0
  9
$THICKNESS
 40
0.0
  9
$VIEWDIR
 10
0.0
 20
0.0
 30
1.0
  9
$LIMCHECK
 70
     0
  9
$BLIPMODE
 70
     1
  9
$CHAMFERA
 40
0.0
  9
$CHAMFERB
 40
0.0
  9
$FASTZOOM
 70
     1
  9
$SKPOLY
 70
     0
  9
$TDCREATE
 40
2447222.5666886573
  9
$TDUPDATE
 40
2447222.5666886573
  9
$TDINDWG
 40
0.0000000000
  9
$TDUSRTIMER
 40
0.0000000000
  9
$USRTIMER
 70
     1
  9
$ANGBASE
 50
0.0
  9
$ANGDIR
 70
     0
  9
$PDMODE
 70
     0
  9
$PDSIZE
 40
0.0
  9
$PLINEWID
 40
0.0
  9
$COORDS
 70
     0
  9
$SPLFRAME
 70
     0
  9
$SPLINESEGS
 70
     8
  9
$ATTDIA
 70
     0
  9
$ATTREQ
 70
     1
  9
$USERI1
 70
     0
  9
$USERI2
 70
     0
  9
$USERI3
 70
     0
  9
$USERI4
 70
     0
  9
$USERI5
 70
     0
  9
$USERR1
 40
0.0
  9
$USERR2
 40
0.0
  9
$USERR3
 40
0.0
  9
$USERR4
 40
0.0
  9
$USERR5
 40
0.0
  0
ENDSEC
  0
SECTION
  2
TABLES
  0
TABLE
  2
LTYPE
 70
     13
  0
LTYPE
  2
CONTINUOUS
 70
    64
  3
Solid line
 72
    65
 73
     0
 40
0.0
  0
LTYPE
  2
DASHED
 70
    64
  3
__ __ __ __ __ __ __ __ __ __ __ __ __ __ __
 72
    65
 73
     2
 40
0.75
 49
0.5
 49
-0.25
  0
LTYPE
  2
HIDDEN
 70
    64
  3
_ _ _ _ _ _ _ _ _ _ _ _ _ _ _ _ _ _ _ _ _ _ _
 72
    65
 73
     2
 40
0.375
 49
0.25
 49
-0.125
  0
LTYPE
  2
CENTER
 70
    64
  3
____ _ ____ _ ____ _ ____ _ ____ _ ____ _ ____
 72
    65
 73
     4
 40
2.0
 49
1.25
 49
-0.25
 49
0.25
 49
-0.25
  0
LTYPE
  2
PHANTOM
 70
    64
  3
_____ _ _ _____ _ _ _____ _ _ _____ _ _ ____
 72
    65
 73
     6
 40
2.5
 49
1.25
 49
-0.25
 49
0.25
 49
-0.25
 49
0.25
 49
-0.25
  0
LTYPE
  2
DOT
 70
    64
  3
...............................................
 72
    65
 73
     2
 40
0.25
 49
0.0
 49
-0.25
  0
LTYPE
  2
DASHDOT
 70
    64
  3
__ . __ . __ . __ . __ . __ . __ . __ . __ . __
 72
    65
 73
     4
 40
1.0
 49
0.5
 49
-0.25
 49
0.0
 49
-0.25
  0
LTYPE
  2
BORDER
 70
    64
  3
__ __ . __ __ . __ __ . __ __ . __ __ . __ __
 72
    65
 73
     6
 40
1.75
 49
0.5
 49
-0.25
 49
0.5
 49
-0.25
 49
0.0
 49
-0.25
  0
LTYPE
  2
DIVIDE
 70
    64
  3
__ . . __ . . __ . . __ . . __ . . __ . . __
 72
    65
 73
     6
 40
1.25
 49
0.5
 49
-0.25
 49
0.0
 49
-0.25
 49
0.0
 49
-0.25
  0
LTYPE
  2
DCTYPE1
 70
    64
  3
__ . . __ . . __ . . __ . . __ . . __ . . __
 72
    65
 73
     8
 40
2.5
 49
0.5
 49
-0.25
 49
0.125
 49
-0.25
 49
0.25
 49
-0.25
 49
0.125
 49
-0.25
  0
LTYPE
  2
DCTYPE2
 70
    64
  3
__ . . __ . . __ . . __ . . __ . . __ . . __
 72
    65
 73
     6
 40
2.05
 49
1.0
 49
-0.3
 49
0.15
 49
-0.15
 49
0.15
 49
-0.3
  0
LTYPE
  2
DCTYPE3
 70
    64
  3
__ . . __ . . __ . . __ . . __ . . __ . . __
 72
    65
 73
     6
 40
2.5
 49
0.8
 49
-0.2
 49
0.8
 49
-0.2
 49
0.3
 49
-0.2
  0
LTYPE
  2
DCTYPE4
 70
    64
  3
__ . . __ . . __ . . __ . . __ . . __ . . __
 72
    65
 73
     10
 40
3.97
 49
1.75
 49
-0.3
 49
0.3
 49
-0.3
 49
0.06
 49
-0.3
 49
0.06
 49
-0.3
 49
0.3
 49
-0.3
  0
ENDTAB
  0
TABLE
  2
LAYER
 70
    153
  0
LAYER
  2
LAYER1
 70
 64
 62
     7
  6
CONTINUOUS
  0
ENDTAB
  0
ENDSEC
  0
SECTION
  2
BLOCKS
  0
ENDSEC
  0
SECTION
  2
ENTITIES
  0
POLYLINE
  8
LAYER1
 62
     7
 66
     1
  6
CONTINUOUS
  0
VERTEX
  8
LAYER1
 62
     7
  6
CONTINUOUS
 10
31.2108
 20
40.8741
  0
VERTEX
  8
LAYER1
 62
     7
  6
CONTINUOUS
 10
32.5629
 20
40.7389
  0
VERTEX
  8
LAYER1
 62
     7
  6
CONTINUOUS
 10
36.0784
 20
41.1986
  0
VERTEX
  8
LAYER1
 62
     7
  6
CONTINUOUS
 10
39.7833
 20
41.3338
  0
VERTEX
  8
LAYER1
 62
     7
  6
CONTINUOUS
 10
43.5422
 20
41.4420
  0
VERTEX
  8
LAYER1
 62
     7
  6
CONTINUOUS
 10
46.7873
 20
41.3609
  0
VERTEX
  8
LAYER1
 62
     7
  6
CONTINUOUS
 10
50.7355
 20
41.4690
  0
VERTEX
  8
LAYER1
 62
     7
  6
CONTINUOUS
 10
53.4128
 20
41.4149
  0
VERTEX
  8
LAYER1
 62
     7
  6
CONTINUOUS
 10
55.4680
 20
41.5231
  0
VERTEX
  8
LAYER1
 62
     7
  6
CONTINUOUS
 10
57.7937
 20
41.6583
  0
VERTEX
  8
LAYER1
 62
     7
  6
CONTINUOUS
 10
60.9306
 20
41.8206
  0
VERTEX
  8
LAYER1
 62
     7
  6
CONTINUOUS
 10
62.5532
 20
41.7124
  0
SEQEND
  8
LAYER1
  0
POLYLINE
  8
LAYER1
 62
     7
 66
     1
  6
CONTINUOUS
  0
VERTEX
  8
LAYER1
 62
     7
  6
CONTINUOUS
 10
43.5422
 20
41.4420
  0
VERTEX
  8
LAYER1
 62
     7
  6
CONTINUOUS
 10
44.2724
 20
40.4144
  0
VERTEX
  8
LAYER1
 62
     7
  6
CONTINUOUS
 10
45.7867
 20
39.7383
  0
VERTEX
  8
LAYER1
 62
     7
  6
CONTINUOUS
 10
48.2476
 20
39.2516
  0
VERTEX
  8
LAYER1
 62
     7
  6
CONTINUOUS
 10
50.3029
 20
39.1975
  0
VERTEX
  8
LAYER1
 62
     7
  6
CONTINUOUS
 10
52.1959
 20
39.5761
  0
VERTEX
  8
LAYER1
 62
     7
  6
CONTINUOUS
 10
54.2781
 20
40.2792
  0
VERTEX
  8
LAYER1
 62
     7
  6
CONTINUOUS
 10
55.4680
 20
41.5231
  0
SEQEND
  8
LAYER1
  0
POLYLINE
  8
LAYER1
 62
     7
 66
     1
  6
CONTINUOUS
  0
VERTEX
  8
LAYER1
 62
     7
  6
CONTINUOUS
 10
32.5629
 20
40.7389
  0
VERTEX
  8
LAYER1
 62
     7
  6
CONTINUOUS
 10
33.2389
 20
37.0340
  0
VERTEX
  8
LAYER1
 62
     7
  6
CONTINUOUS
 10
33.5094
 20
32.7343
  0
VERTEX
  8
LAYER1
 62
     7
  6
CONTINUOUS
 10
33.9421
 20
29.8407
  0
VERTEX
  8
LAYER1
 62
     7
  6
CONTINUOUS
 10
34.4829
 20
27.2176
  0
VERTEX
  8
LAYER1
 62
     7
  6
CONTINUOUS
 10
34.7533
 20
25.5950
  0
VERTEX
  8
LAYER1
 62
     7
  6
CONTINUOUS
 10
34.9967
 20
25.1353
  0
VERTEX
  8
LAYER1
 62
     7
  6
CONTINUOUS
 10
35.4024
 20
25.1353
  0
VERTEX
  8
LAYER1
 62
     7
  6
CONTINUOUS
 10
36.9167
 20
25.0001
  0
VERTEX
  8
LAYER1
 62
     7
  6
CONTINUOUS
 10
39.6480
 20
25.0271
  0
VERTEX
  8
LAYER1
 62
     7
  6
CONTINUOUS
 10
44.2183
 20
25.0271
  0
VERTEX
  8
LAYER1
 62
     7
  6
CONTINUOUS
 10
48.3558
 20
25.1353
  0
VERTEX
  8
LAYER1
 62
     7
  6
CONTINUOUS
 10
50.7896
 20
25.2975
  0
VERTEX
  8
LAYER1
 62
     7
  6
CONTINUOUS
 10
53.9536
 20
25.3787
  0
VERTEX
  8
LAYER1
 62
     7
  6
CONTINUOUS
 10
56.0900
 20
25.3246
  0
VERTEX
  8
LAYER1
 62
     7
  6
CONTINUOUS
 10
57.7666
 20
25.5409
  0
VERTEX
  8
LAYER1
 62
     7
  6
CONTINUOUS
 10
58.4427
 20
25.7302
  0
VERTEX
  8
LAYER1
 62
     7
  6
CONTINUOUS
 10
58.7131
 20
26.1629
  0
VERTEX
  8
LAYER1
 62
     7
  6
CONTINUOUS
 10
59.0647
 20
28.2993
  0
VERTEX
  8
LAYER1
 62
     7
  6
CONTINUOUS
 10
59.2540
 20
29.8948
  0
VERTEX
  8
LAYER1
 62
     7
  6
CONTINUOUS
 10
59.3892
 20
31.3281
  0
VERTEX
  8
LAYER1
 62
     7
  6
CONTINUOUS
 10
59.8760
 20
31.5174
  0
VERTEX
  8
LAYER1
 62
     7
  6
CONTINUOUS
 10
60.4439
 20
31.4903
  0
VERTEX
  8
LAYER1
 62
     7
  6
CONTINUOUS
 10
60.6332
 20
31.6525
  0
VERTEX
  8
LAYER1
 62
     7
  6
CONTINUOUS
 10
60.7143
 20
32.0852
  0
VERTEX
  8
LAYER1
 62
     7
  6
CONTINUOUS
 10
60.7684
 20
35.2763
  0
VERTEX
  8
LAYER1
 62
     7
  6
CONTINUOUS
 10
60.9306
 20
37.6290
  0
VERTEX
  8
LAYER1
 62
     7
  6
CONTINUOUS
 10
60.8765
 20
39.6031
  0
SEQEND
  8
LAYER1
  0
POLYLINE
  8
LAYER1
 62
     7
 66
     1
  6
CONTINUOUS
  0
VERTEX
  8
LAYER1
 62
     7
  6
CONTINUOUS
 10
60.8765
 20
39.6031
  0
VERTEX
  8
LAYER1
 62
     7
  6
CONTINUOUS
 10
60.7954
 20
40.5496
  0
VERTEX
  8
LAYER1
 62
     7
  6
CONTINUOUS
 10
60.9306
 20
41.8206
  0
SEQEND
  8
LAYER1
  0
POLYLINE
  8
LAYER1
 62
     7
 66
     1
  6
CONTINUOUS
  0
VERTEX
  8
LAYER1
 62
     7
  6
CONTINUOUS
 10
51.6776
 20
81.4213
  0
VERTEX
  8
LAYER1
 62
     7
  6
CONTINUOUS
 10
53.1379
 20
80.3666
  0
VERTEX
  8
LAYER1
 62
     7
  6
CONTINUOUS
 10
54.1926
 20
79.6635
  0
VERTEX
  8
LAYER1
 62
     7
  6
CONTINUOUS
 10
55.5176
 20
79.1497
  0
VERTEX
  8
LAYER1
 62
     7
  6
CONTINUOUS
 10
56.4641
 20
78.9604
  0
VERTEX
  8
LAYER1
 62
     7
  6
CONTINUOUS
 10
57.4106
 20
77.7165
  0
VERTEX
  8
LAYER1
 62
     7
  6
CONTINUOUS
 10
58.4112
 20
74.4713
  0
VERTEX
  8
LAYER1
 62
     7
  6
CONTINUOUS
 10
58.5735
 20
72.3620
  0
VERTEX
  8
LAYER1
 62
     7
  6
CONTINUOUS
 10
58.6546
 20
70.2256
  0
VERTEX
  8
LAYER1
 62
     7
  6
CONTINUOUS
 10
58.2219
 20
68.6031
  0
VERTEX
  8
LAYER1
 62
     7
  6
CONTINUOUS
 10
57.5729
 20
66.5478
  0
VERTEX
  8
LAYER1
 62
     7
  6
CONTINUOUS
 10
57.0320
 20
65.3850
  0
VERTEX
  8
LAYER1
 62
     7
  6
CONTINUOUS
 10
56.2478
 20
64.3033
  0
VERTEX
  8
LAYER1
 62
     7
  6
CONTINUOUS
 10
55.1120
 20
62.9511
  0
VERTEX
  8
LAYER1
 62
     7
  6
CONTINUOUS
 10
54.0303
 20
60.3821
  0
VERTEX
  8
LAYER1
 62
     7
  6
CONTINUOUS
 10
52.4348
 20
58.1105
  0
VERTEX
  8
LAYER1
 62
     7
  6
CONTINUOUS
 10
50.3254
 20
56.0282
  0
VERTEX
  8
LAYER1
 62
     7
  6
CONTINUOUS
 10
47.8375
 20
54.9195
  0
VERTEX
  8
LAYER1
 62
     7
  6
CONTINUOUS
 10
45.8363
 20
54.4057
  0
VERTEX
  8
LAYER1
 62
     7
  6
CONTINUOUS
 10
43.5107
 20
54.2434
  0
VERTEX
  8
LAYER1
 62
     7
  6
CONTINUOUS
 10
41.4014
 20
54.7032
  0
VERTEX
  8
LAYER1
 62
     7
  6
CONTINUOUS
 10
39.6166
 20
55.3251
  0
VERTEX
  8
LAYER1
 62
     7
  6
CONTINUOUS
 10
38.1022
 20
55.7578
  0
VERTEX
  8
LAYER1
 62
     7
  6
CONTINUOUS
 10
36.8582
 20
56.3798
  0
VERTEX
  8
LAYER1
 62
     7
  6
CONTINUOUS
 10
35.0193
 20
57.4344
  0
VERTEX
  8
LAYER1
 62
     7
  6
CONTINUOUS
 10
33.2345
 20
58.8947
  0
VERTEX
  8
LAYER1
 62
     7
  6
CONTINUOUS
 10
31.3415
 20
60.7878
  0
VERTEX
  8
LAYER1
 62
     7
  6
CONTINUOUS
 10
30.5573
 20
63.5731
  0
VERTEX
  8
LAYER1
 62
     7
  6
CONTINUOUS
 10
30.6654
 20
65.6824
  0
VERTEX
  8
LAYER1
 62
     7
  6
CONTINUOUS
 10
31.3685
 20
67.8729
  0
VERTEX
  8
LAYER1
 62
     7
  6
CONTINUOUS
 10
32.7477
 20
70.2256
  0
VERTEX
  8
LAYER1
 62
     7
  6
CONTINUOUS
 10
34.1539
 20
73.0110
  0
VERTEX
  8
LAYER1
 62
     7
  6
CONTINUOUS
 10
35.0734
 20
75.6612
  0
VERTEX
  8
LAYER1
 62
     7
  6
CONTINUOUS
 10
36.3444
 20
77.5813
  0
VERTEX
  8
LAYER1
 62
     7
  6
CONTINUOUS
 10
38.8593
 20
80.4477
  0
VERTEX
  8
LAYER1
 62
     7
  6
CONTINUOUS
 10
41.3473
 20
82.6112
  0
VERTEX
  8
LAYER1
 62
     7
  6
CONTINUOUS
 10
43.4837
 20
83.0439
  0
VERTEX
  8
LAYER1
 62
     7
  6
CONTINUOUS
 10
46.3231
 20
83.0979
  0
VERTEX
  8
LAYER1
 62
     7
  6
CONTINUOUS
 10
48.5406
 20
82.9627
  0
VERTEX
  8
LAYER1
 62
     7
  6
CONTINUOUS
 10
50.3795
 20
82.3408
  0
VERTEX
  8
LAYER1
 62
     7
  6
CONTINUOUS
 10
51.6776
 20
81.4213
  0
SEQEND
  8
LAYER1
  0
POLYLINE
  8
LAYER1
 62
     7
 66
     1
  6
CONTINUOUS
  0
VERTEX
  8
LAYER1
 62
     7
  6
CONTINUOUS
 10
56.4641
 20
78.9604
  0
VERTEX
  8
LAYER1
 62
     7
  6
CONTINUOUS
 10
57.5729
 20
79.1768
  0
VERTEX
  8
LAYER1
 62
     7
  6
CONTINUOUS
 10
59.8715
 20
79.3661
  0
VERTEX
  8
LAYER1
 62
     7
  6
CONTINUOUS
 10
61.8997
 20
79.5824
  0
VERTEX
  8
LAYER1
 62
     7
  6
CONTINUOUS
 10
63.8738
 20
79.5283
  0
VERTEX
  8
LAYER1
 62
     7
  6
CONTINUOUS
 10
64.7662
 20
79.2308
  0
VERTEX
  8
LAYER1
 62
     7
  6
CONTINUOUS
 10
66.1724
 20
77.3649
  0
VERTEX
  8
LAYER1
 62
     7
  6
CONTINUOUS
 10
66.2265
 20
75.3908
  0
VERTEX
  8
LAYER1
 62
     7
  6
CONTINUOUS
 10
65.5775
 20
72.7406
  0
VERTEX
  8
LAYER1
 62
     7
  6
CONTINUOUS
 10
64.6040
 20
71.0639
  0
VERTEX
  8
LAYER1
 62
     7
  6
CONTINUOUS
 10
62.7921
 20
68.9005
  0
VERTEX
  8
LAYER1
 62
     7
  6
CONTINUOUS
 10
60.8991
 20
67.0617
  0
VERTEX
  8
LAYER1
 62
     7
  6
CONTINUOUS
 10
59.6281
 20
65.7365
  0
VERTEX
  8
LAYER1
 62
     7
  6
CONTINUOUS
 10
57.9244
 20
64.9793
  0
VERTEX
  8
LAYER1
 62
     7
  6
CONTINUOUS
 10
56.2478
 20
64.3033
  0
SEQEND
  8
LAYER1
  0
POLYLINE
  8
LAYER1
 62
     7
 66
     1
  6
CONTINUOUS
  0
VERTEX
  8
LAYER1
 62
     7
  6
CONTINUOUS
 10
53.0297
 20
79.2038
  0
VERTEX
  8
LAYER1
 62
     7
  6
CONTINUOUS
 10
54.2196
 20
78.3114
  0
VERTEX
  8
LAYER1
 62
     7
  6
CONTINUOUS
 10
55.8151
 20
76.6077
  0
VERTEX
  8
LAYER1
 62
     7
  6
CONTINUOUS
 10
56.8698
 20
74.2279
  0
VERTEX
  8
LAYER1
 62
     7
  6
CONTINUOUS
 10
57.3565
 20
72.5513
  0
VERTEX
  8
LAYER1
 62
     7
  6
CONTINUOUS
 10
57.3836
 20
69.5496
  0
VERTEX
  8
LAYER1
 62
     7
  6
CONTINUOUS
 10
56.4641
 20
66.4667
  0
VERTEX
  8
LAYER1
 62
     7
  6
CONTINUOUS
 10
54.8956
 20
63.8977
  0
VERTEX
  8
LAYER1
 62
     7
  6
CONTINUOUS
 10
53.5435
 20
61.4368
  0
VERTEX
  8
LAYER1
 62
     7
  6
CONTINUOUS
 10
51.9480
 20
59.4086
  0
VERTEX
  8
LAYER1
 62
     7
  6
CONTINUOUS
 10
50.3254
 20
57.5967
  0
VERTEX
  8
LAYER1
 62
     7
  6
CONTINUOUS
 10
48.0539
 20
56.6773
  0
VERTEX
  8
LAYER1
 62
     7
  6
CONTINUOUS
 10
46.1609
 20
56.0823
  0
VERTEX
  8
LAYER1
 62
     7
  6
CONTINUOUS
 10
43.6189
 20
56.1093
  0
VERTEX
  8
LAYER1
 62
     7
  6
CONTINUOUS
 10
41.8611
 20
56.3527
  0
VERTEX
  8
LAYER1
 62
     7
  6
CONTINUOUS
 10
41.2932
 20
56.6232
  0
SEQEND
  8
LAYER1
  0
POLYLINE
  8
LAYER1
 62
     7
 66
     1
  6
CONTINUOUS
  0
VERTEX
  8
LAYER1
 62
     7
  6
CONTINUOUS
 10
53.0297
 20
79.2038
  0
VERTEX
  8
LAYER1
 62
     7
  6
CONTINUOUS
 10
50.8663
 20
79.7176
  0
VERTEX
  8
LAYER1
 62
     7
  6
CONTINUOUS
 10
49.1356
 20
80.7993
  0
VERTEX
  8
LAYER1
 62
     7
  6
CONTINUOUS
 10
46.4583
 20
81.4754
  0
VERTEX
  8
LAYER1
 62
     7
  6
CONTINUOUS
 10
44.1056
 20
81.9351
  0
VERTEX
  8
LAYER1
 62
     7
  6
CONTINUOUS
 10
42.2397
 20
81.9621
  0
VERTEX
  8
LAYER1
 62
     7
  6
CONTINUOUS
 10
40.1033
 20
80.5018
  0
VERTEX
  8
LAYER1
 62
     7
  6
CONTINUOUS
 10
38.2915
 20
78.3114
  0
VERTEX
  8
LAYER1
 62
     7
  6
CONTINUOUS
 10
36.5337
 20
75.7423
  0
VERTEX
  8
LAYER1
 62
     7
  6
CONTINUOUS
 10
34.6677
 20
72.5243
  0
VERTEX
  8
LAYER1
 62
     7
  6
CONTINUOUS
 10
33.6942
 20
69.6848
  0
VERTEX
  8
LAYER1
 62
     7
  6
CONTINUOUS
 10
33.1263
 20
65.8988
  0
VERTEX
  8
LAYER1
 62
     7
  6
CONTINUOUS
 10
33.0993
 20
62.7348
  0
VERTEX
  8
LAYER1
 62
     7
  6
CONTINUOUS
 10
33.3697
 20
60.3280
  0
VERTEX
  8
LAYER1
 62
     7
  6
CONTINUOUS
 10
33.9376
 20
59.0029
  0
VERTEX
  8
LAYER1
 62
     7
  6
CONTINUOUS
 10
35.5602
 20
58.1917
  0
VERTEX
  8
LAYER1
 62
     7
  6
CONTINUOUS
 10
36.8852
 20
57.8671
  0
VERTEX
  8
LAYER1
 62
     7
  6
CONTINUOUS
 10
37.6695
 20
57.0829
  0
SEQEND
  8
LAYER1
  0
POLYLINE
  8
LAYER1
 62
     7
 66
     1
  6
CONTINUOUS
  0
VERTEX
  8
LAYER1
 62
     7
  6
CONTINUOUS
 10
45.5118
 20
76.2291
  0
VERTEX
  8
LAYER1
 62
     7
  6
CONTINUOUS
 10
45.4578
 20
75.3367
  0
VERTEX
  8
LAYER1
 62
     7
  6
CONTINUOUS
 10
45.4848
 20
74.5254
  0
VERTEX
  8
LAYER1
 62
     7
  6
CONTINUOUS
 10
45.5930
 20
73.8223
  0
VERTEX
  8
LAYER1
 62
     7
  6
CONTINUOUS
 10
45.9445
 20
73.4707
  0
VERTEX
  8
LAYER1
 62
     7
  6
CONTINUOUS
 10
46.4313
 20
73.1733
  0
VERTEX
  8
LAYER1
 62
     7
  6
CONTINUOUS
 10
46.8640
 20
72.7136
  0
VERTEX
  8
LAYER1
 62
     7
  6
CONTINUOUS
 10
46.8099
 20
72.2538
  0
VERTEX
  8
LAYER1
 62
     7
  6
CONTINUOUS
 10
45.7011
 20
71.6859
  0
VERTEX
  8
LAYER1
 62
     7
  6
CONTINUOUS
 10
44.0786
 20
70.7665
  0
VERTEX
  8
LAYER1
 62
     7
  6
CONTINUOUS
 10
43.4837
 20
70.9558
  0
VERTEX
  8
LAYER1
 62
     7
  6
CONTINUOUS
 10
42.9698
 20
70.6042
  0
VERTEX
  8
LAYER1
 62
     7
  6
CONTINUOUS
 10
41.7529
 20
70.4149
  0
VERTEX
  8
LAYER1
 62
     7
  6
CONTINUOUS
 10
41.0228
 20
70.8476
  0
VERTEX
  8
LAYER1
 62
     7
  6
CONTINUOUS
 10
39.9951
 20
71.3885
  0
VERTEX
  8
LAYER1
 62
     7
  6
CONTINUOUS
 10
38.8864
 20
72.3350
  0
VERTEX
  8
LAYER1
 62
     7
  6
CONTINUOUS
 10
37.8858
 20
72.7947
  0
VERTEX
  8
LAYER1
 62
     7
  6
CONTINUOUS
 10
37.2098
 20
73.3626
  0
VERTEX
  8
LAYER1
 62
     7
  6
CONTINUOUS
 10
37.2098
 20
74.5795
  0
VERTEX
  8
LAYER1
 62
     7
  6
CONTINUOUS
 10
37.6695
 20
75.2015
  0
VERTEX
  8
LAYER1
 62
     7
  6
CONTINUOUS
 10
38.6160
 20
75.6342
  0
VERTEX
  8
LAYER1
 62
     7
  6
CONTINUOUS
 10
39.7788
 20
75.8505
  0
VERTEX
  8
LAYER1
 62
     7
  6
CONTINUOUS
 10
40.6171
 20
76.0127
  0
VERTEX
  8
LAYER1
 62
     7
  6
CONTINUOUS
 10
41.2932
 20
76.0939
  0
VERTEX
  8
LAYER1
 62
     7
  6
CONTINUOUS
 10
41.9963
 20
76.0398
  0
VERTEX
  8
LAYER1
 62
     7
  6
CONTINUOUS
 10
42.7264
 20
76.0939
  0
VERTEX
  8
LAYER1
 62
     7
  6
CONTINUOUS
 10
43.3755
 20
76.2020
  0
VERTEX
  8
LAYER1
 62
     7
  6
CONTINUOUS
 10
43.3755
 20
76.2020
  0
SEQEND
  8
LAYER1
  0
POLYLINE
  8
LAYER1
 62
     7
 66
     1
  6
CONTINUOUS
  0
VERTEX
  8
LAYER1
 62
     7
  6
CONTINUOUS
 10
43.3755
 20
76.2020
  0
VERTEX
  8
LAYER1
 62
     7
  6
CONTINUOUS
 10
44.7006
 20
76.2291
  0
VERTEX
  8
LAYER1
 62
     7
  6
CONTINUOUS
 10
45.5118
 20
76.2291
  0
SEQEND
  8
LAYER1
  0
POLYLINE
  8
LAYER1
 62
     7
 66
     1
  6
CONTINUOUS
  0
VERTEX
  8
LAYER1
 62
     7
  6
CONTINUOUS
 10
43.3755
 20
76.2020
  0
VERTEX
  8
LAYER1
 62
     7
  6
CONTINUOUS
 10
44.4031
 20
76.7700
  0
VERTEX
  8
LAYER1
 62
     7
  6
CONTINUOUS
 10
44.7547
 20
77.2297
  0
VERTEX
  8
LAYER1
 62
     7
  6
CONTINUOUS
 10
44.9710
 20
77.9328
  0
VERTEX
  8
LAYER1
 62
     7
  6
CONTINUOUS
 10
44.6194
 20
78.3655
  0
VERTEX
  8
LAYER1
 62
     7
  6
CONTINUOUS
 10
44.0245
 20
78.7441
  0
VERTEX
  8
LAYER1
 62
     7
  6
CONTINUOUS
 10
43.5918
 20
78.4466
  0
VERTEX
  8
LAYER1
 62
     7
  6
CONTINUOUS
 10
43.0780
 20
77.7976
  0
VERTEX
  8
LAYER1
 62
     7
  6
CONTINUOUS
 10
42.5372
 20
77.1756
  0
VERTEX
  8
LAYER1
 62
     7
  6
CONTINUOUS
 10
42.2126
 20
76.5807
  0
VERTEX
  8
LAYER1
 62
     7
  6
CONTINUOUS
 10
41.9963
 20
76.0398
  0
SEQEND
  8
LAYER1
  0
POLYLINE
  8
LAYER1
 62
     7
 66
     1
  6
CONTINUOUS
  0
VERTEX
  8
LAYER1
 62
     7
  6
CONTINUOUS
 10
45.9445
 20
73.4707
  0
VERTEX
  8
LAYER1
 62
     7
  6
CONTINUOUS
 10
46.5936
 20
73.9846
  0
VERTEX
  8
LAYER1
 62
     7
  6
CONTINUOUS
 10
47.2967
 20
74.6877
  0
VERTEX
  8
LAYER1
 62
     7
  6
CONTINUOUS
 10
47.7834
 20
74.9851
  0
VERTEX
  8
LAYER1
 62
     7
  6
CONTINUOUS
 10
48.2161
 20
74.3361
  0
VERTEX
  8
LAYER1
 62
     7
  6
CONTINUOUS
 10
48.1350
 20
73.3626
  0
VERTEX
  8
LAYER1
 62
     7
  6
CONTINUOUS
 10
47.5130
 20
72.4161
  0
VERTEX
  8
LAYER1
 62
     7
  6
CONTINUOUS
 10
46.8640
 20
71.4155
  0
VERTEX
  8
LAYER1
 62
     7
  6
CONTINUOUS
 10
46.2690
 20
70.7124
  0
VERTEX
  8
LAYER1
 62
     7
  6
CONTINUOUS
 10
45.1062
 20
69.8470
  0
VERTEX
  8
LAYER1
 62
     7
  6
CONTINUOUS
 10
43.8352
 20
68.9276
  0
VERTEX
  8
LAYER1
 62
     7
  6
CONTINUOUS
 10
43.1050
 20
68.2515
  0
VERTEX
  8
LAYER1
 62
     7
  6
CONTINUOUS
 10
42.4019
 20
67.5484
  0
VERTEX
  8
LAYER1
 62
     7
  6
CONTINUOUS
 10
41.0769
 20
67.2780
  0
VERTEX
  8
LAYER1
 62
     7
  6
CONTINUOUS
 10
40.4008
 20
66.9805
  0
VERTEX
  8
LAYER1
 62
     7
  6
CONTINUOUS
 10
40.0763
 20
66.4667
  0
VERTEX
  8
LAYER1
 62
     7
  6
CONTINUOUS
 10
39.9140
 20
66.1422
  0
VERTEX
  8
LAYER1
 62
     7
  6
CONTINUOUS
 10
39.3191
 20
65.7095
  0
VERTEX
  8
LAYER1
 62
     7
  6
CONTINUOUS
 10
38.7512
 20
65.7636
  0
VERTEX
  8
LAYER1
 62
     7
  6
CONTINUOUS
 10
38.3455
 20
66.0881
  0
VERTEX
  8
LAYER1
 62
     7
  6
CONTINUOUS
 10
37.8047
 20
66.1422
  0
VERTEX
  8
LAYER1
 62
     7
  6
CONTINUOUS
 10
37.1827
 20
65.8447
  0
VERTEX
  8
LAYER1
 62
     7
  6
CONTINUOUS
 10
36.5066
 20
65.6013
  0
VERTEX
  8
LAYER1
 62
     7
  6
CONTINUOUS
 10
35.6683
 20
65.4932
  0
VERTEX
  8
LAYER1
 62
     7
  6
CONTINUOUS
 10
34.9652
 20
65.8177
  0
VERTEX
  8
LAYER1
 62
     7
  6
CONTINUOUS
 10
34.6677
 20
66.2774
  0
VERTEX
  8
LAYER1
 62
     7
  6
CONTINUOUS
 10
34.8300
 20
67.0887
  0
VERTEX
  8
LAYER1
 62
     7
  6
CONTINUOUS
 10
35.7494
 20
67.9270
  0
VERTEX
  8
LAYER1
 62
     7
  6
CONTINUOUS
 10
36.6689
 20
68.6301
  0
VERTEX
  8
LAYER1
 62
     7
  6
CONTINUOUS
 10
37.7236
 20
69.1439
  0
VERTEX
  8
LAYER1
 62
     7
  6
CONTINUOUS
 10
38.8052
 20
69.5496
  0
VERTEX
  8
LAYER1
 62
     7
  6
CONTINUOUS
 10
39.9681
 20
70.2256
  0
VERTEX
  8
LAYER1
 62
     7
  6
CONTINUOUS
 10
41.0228
 20
70.8476
  0
SEQEND
  8
LAYER1
  0
POLYLINE
  8
LAYER1
 62
     7
 66
     1
  6
CONTINUOUS
  0
VERTEX
  8
LAYER1
 62
     7
  6
CONTINUOUS
 10
39.9140
 20
66.1422
  0
VERTEX
  8
LAYER1
 62
     7
  6
CONTINUOUS
 10
40.2656
 20
66.0611
  0
VERTEX
  8
LAYER1
 62
     7
  6
CONTINUOUS
 10
40.7794
 20
65.7095
  0
VERTEX
  8
LAYER1
 62
     7
  6
CONTINUOUS
 10
41.5095
 20
65.3850
  0
VERTEX
  8
LAYER1
 62
     7
  6
CONTINUOUS
 10
41.7799
 20
64.7089
  0
VERTEX
  8
LAYER1
 62
     7
  6
CONTINUOUS
 10
41.8070
 20
63.8165
  0
VERTEX
  8
LAYER1
 62
     7
  6
CONTINUOUS
 10
42.0233
 20
63.0052
  0
VERTEX
  8
LAYER1
 62
     7
  6
CONTINUOUS
 10
42.1315
 20
62.3562
  0
VERTEX
  8
LAYER1
 62
     7
  6
CONTINUOUS
 10
42.0774
 20
61.8424
  0
VERTEX
  8
LAYER1
 62
     7
  6
CONTINUOUS
 10
41.8611
 20
61.3556
  0
VERTEX
  8
LAYER1
 62
     7
  6
CONTINUOUS
 10
41.0769
 20
60.5714
  0
VERTEX
  8
LAYER1
 62
     7
  6
CONTINUOUS
 10
40.5090
 20
60.2469
  0
VERTEX
  8
LAYER1
 62
     7
  6
CONTINUOUS
 10
39.8329
 20
59.9765
  0
VERTEX
  8
LAYER1
 62
     7
  6
CONTINUOUS
 10
38.4267
 20
59.6790
  0
VERTEX
  8
LAYER1
 62
     7
  6
CONTINUOUS
 10
37.6154
 20
59.6790
  0
VERTEX
  8
LAYER1
 62
     7
  6
CONTINUOUS
 10
37.1286
 20
59.7060
  0
VERTEX
  8
LAYER1
 62
     7
  6
CONTINUOUS
 10
36.8582
 20
59.7601
  0
VERTEX
  8
LAYER1
 62
     7
  6
CONTINUOUS
 10
36.1821
 20
59.8413
  0
VERTEX
  8
LAYER1
 62
     7
  6
CONTINUOUS
 10
35.2356
 20
60.2739
  0
VERTEX
  8
LAYER1
 62
     7
  6
CONTINUOUS
 10
34.6677
 20
60.6525
  0
VERTEX
  8
LAYER1
 62
     7
  6
CONTINUOUS
 10
34.3973
 20
61.4638
  0
VERTEX
  8
LAYER1
 62
     7
  6
CONTINUOUS
 10
34.3973
 20
62.2480
  0
VERTEX
  8
LAYER1
 62
     7
  6
CONTINUOUS
 10
34.5055
 20
63.0052
  0
VERTEX
  8
LAYER1
 62
     7
  6
CONTINUOUS
 10
34.8300
 20
63.6813
  0
VERTEX
  8
LAYER1
 62
     7
  6
CONTINUOUS
 10
35.1275
 20
64.6278
  0
VERTEX
  8
LAYER1
 62
     7
  6
CONTINUOUS
 10
35.6683
 20
65.4932
  0
SEQEND
  8
LAYER1
  0
POLYLINE
  8
LAYER1
 62
     7
 66
     1
  6
CONTINUOUS
  0
VERTEX
  8
LAYER1
 62
     7
  6
CONTINUOUS
 10
34.3973
 20
62.2480
  0
VERTEX
  8
LAYER1
 62
     7
  6
CONTINUOUS
 10
33.9917
 20
62.1669
  0
VERTEX
  8
LAYER1
 62
     7
  6
CONTINUOUS
 10
33.6942
 20
61.2204
  0
VERTEX
  8
LAYER1
 62
     7
  6
CONTINUOUS
 10
33.7483
 20
60.1658
  0
VERTEX
  8
LAYER1
 62
     7
  6
CONTINUOUS
 10
34.1539
 20
59.2733
  0
VERTEX
  8
LAYER1
 62
     7
  6
CONTINUOUS
 10
34.7759
 20
58.8407
  0
VERTEX
  8
LAYER1
 62
     7
  6
CONTINUOUS
 10
35.5061
 20
58.7325
  0
VERTEX
  8
LAYER1
 62
     7
  6
CONTINUOUS
 10
36.2903
 20
58.7866
  0
VERTEX
  8
LAYER1
 62
     7
  6
CONTINUOUS
 10
36.4526
 20
59.1652
  0
VERTEX
  8
LAYER1
 62
     7
  6
CONTINUOUS
 10
36.8582
 20
59.7601
  0
SEQEND
  8
LAYER1
  0
POLYLINE
  8
LAYER1
 62
     7
 66
     1
  6
CONTINUOUS
  0
VERTEX
  8
LAYER1
 62
     7
  6
CONTINUOUS
 10
41.5095
 20
65.3850
  0
VERTEX
  8
LAYER1
 62
     7
  6
CONTINUOUS
 10
42.5912
 20
66.0881
  0
VERTEX
  8
LAYER1
 62
     7
  6
CONTINUOUS
 10
43.3484
 20
66.6830
  0
VERTEX
  8
LAYER1
 62
     7
  6
CONTINUOUS
 10
44.0786
 20
67.3591
  0
VERTEX
  8
LAYER1
 62
     7
  6
CONTINUOUS
 10
44.9710
 20
67.7647
  0
VERTEX
  8
LAYER1
 62
     7
  6
CONTINUOUS
 10
46.0798
 20
67.7647
  0
VERTEX
  8
LAYER1
 62
     7
  6
CONTINUOUS
 10
46.9722
 20
67.6295
  0
VERTEX
  8
LAYER1
 62
     7
  6
CONTINUOUS
 10
48.1079
 20
67.6295
  0
VERTEX
  8
LAYER1
 62
     7
  6
CONTINUOUS
 10
49.2978
 20
67.4402
  0
VERTEX
  8
LAYER1
 62
     7
  6
CONTINUOUS
 10
50.0280
 20
67.0617
  0
VERTEX
  8
LAYER1
 62
     7
  6
CONTINUOUS
 10
50.4336
 20
65.9799
  0
VERTEX
  8
LAYER1
 62
     7
  6
CONTINUOUS
 10
50.5147
 20
64.4655
  0
VERTEX
  8
LAYER1
 62
     7
  6
CONTINUOUS
 10
50.4607
 20
63.0593
  0
VERTEX
  8
LAYER1
 62
     7
  6
CONTINUOUS
 10
50.3254
 20
61.5179
  0
VERTEX
  8
LAYER1
 62
     7
  6
CONTINUOUS
 10
50.2173
 20
60.2198
  0
VERTEX
  8
LAYER1
 62
     7
  6
CONTINUOUS
 10
49.7305
 20
59.3274
  0
VERTEX
  8
LAYER1
 62
     7
  6
CONTINUOUS
 10
48.2161
 20
58.7595
  0
VERTEX
  8
LAYER1
 62
     7
  6
CONTINUOUS
 10
46.9722
 20
58.2728
  0
VERTEX
  8
LAYER1
 62
     7
  6
CONTINUOUS
 10
45.7011
 20
58.1105
  0
VERTEX
  8
LAYER1
 62
     7
  6
CONTINUOUS
 10
44.3761
 20
58.0564
  0
VERTEX
  8
LAYER1
 62
     7
  6
CONTINUOUS
 10
43.4025
 20
58.1376
  0
VERTEX
  8
LAYER1
 62
     7
  6
CONTINUOUS
 10
42.5912
 20
58.6514
  0
VERTEX
  8
LAYER1
 62
     7
  6
CONTINUOUS
 10
41.5366
 20
59.4356
  0
VERTEX
  8
LAYER1
 62
     7
  6
CONTINUOUS
 10
41.0769
 20
60.5714
  0
SEQEND
  8
LAYER1
  0
POLYLINE
  8
LAYER1
 62
     7
 66
     1
  6
CONTINUOUS
  0
VERTEX
  8
LAYER1
 62
     7
  6
CONTINUOUS
 10
39.4543
 20
59.3004
  0
VERTEX
  8
LAYER1
 62
     7
  6
CONTINUOUS
 10
40.0222
 20
59.2463
  0
VERTEX
  8
LAYER1
 62
     7
  6
CONTINUOUS
 10
40.4278
 20
58.8947
  0
VERTEX
  8
LAYER1
 62
     7
  6
CONTINUOUS
 10
40.9957
 20
58.2998
  0
VERTEX
  8
LAYER1
 62
     7
  6
CONTINUOUS
 10
41.2121
 20
57.2181
  0
VERTEX
  8
LAYER1
 62
     7
  6
CONTINUOUS
 10
41.1850
 20
56.4609
  0
VERTEX
  8
LAYER1
 62
     7
  6
CONTINUOUS
 10
40.6442
 20
56.0012
  0
VERTEX
  8
LAYER1
 62
     7
  6
CONTINUOUS
 10
40.0763
 20
55.8119
  0
VERTEX
  8
LAYER1
 62
     7
  6
CONTINUOUS
 10
39.2650
 20
55.7849
  0
VERTEX
  8
LAYER1
 62
     7
  6
CONTINUOUS
 10
38.5619
 20
55.8389
  0
VERTEX
  8
LAYER1
 62
     7
  6
CONTINUOUS
 10
37.9399
 20
56.3527
  0
VERTEX
  8
LAYER1
 62
     7
  6
CONTINUOUS
 10
37.6965
 20
57.1099
  0
VERTEX
  8
LAYER1
 62
     7
  6
CONTINUOUS
 10
37.6695
 20
57.7590
  0
VERTEX
  8
LAYER1
 62
     7
  6
CONTINUOUS
 10
37.6695
 20
58.3539
  0
VERTEX
  8
LAYER1
 62
     7
  6
CONTINUOUS
 10
37.7777
 20
58.8136
  0
VERTEX
  8
LAYER1
 62
     7
  6
CONTINUOUS
 10
38.1022
 20
59.1381
  0
VERTEX
  8
LAYER1
 62
     7
  6
CONTINUOUS
 10
38.8864
 20
59.3004
  0
VERTEX
  8
LAYER1
 62
     7
  6
CONTINUOUS
 10
39.4543
 20
59.3004
  0
SEQEND
  8
LAYER1
  0
POLYLINE
  8
LAYER1
 62
     7
 66
     1
  6
CONTINUOUS
  0
VERTEX
  8
LAYER1
 62
     7
  6
CONTINUOUS
 10
43.3484
 20
66.6830
  0
VERTEX
  8
LAYER1
 62
     7
  6
CONTINUOUS
 10
43.3214
 20
67.5484
  0
VERTEX
  8
LAYER1
 62
     7
  6
CONTINUOUS
 10
43.4837
 20
68.1974
  0
VERTEX
  8
LAYER1
 62
     7
  6
CONTINUOUS
 10
43.8352
 20
68.6842
  0
VERTEX
  8
LAYER1
 62
     7
  6
CONTINUOUS
 10
44.2138
 20
68.8464
  0
VERTEX
  8
LAYER1
 62
     7
  6
CONTINUOUS
 10
44.7276
 20
68.9005
  0
VERTEX
  8
LAYER1
 62
     7
  6
CONTINUOUS
 10
44.9440
 20
68.6301
  0
VERTEX
  8
LAYER1
 62
     7
  6
CONTINUOUS
 10
44.6194
 20
68.3056
  0
VERTEX
  8
LAYER1
 62
     7
  6
CONTINUOUS
 10
44.5113
 20
68.0622
  0
VERTEX
  8
LAYER1
 62
     7
  6
CONTINUOUS
 10
44.0786
 20
67.3591
  0
SEQEND
  8
LAYER1
  0
POLYLINE
  8
LAYER1
 62
     7
 66
     1
  6
CONTINUOUS
  0
VERTEX
  8
LAYER1
 62
     7
  6
CONTINUOUS
 10
46.2690
 20
70.7124
  0
VERTEX
  8
LAYER1
 62
     7
  6
CONTINUOUS
 10
46.7017
 20
70.9017
  0
VERTEX
  8
LAYER1
 62
     7
  6
CONTINUOUS
 10
47.1344
 20
70.7665
  0
VERTEX
  8
LAYER1
 62
     7
  6
CONTINUOUS
 10
47.1614
 20
70.1986
  0
VERTEX
  8
LAYER1
 62
     7
  6
CONTINUOUS
 10
46.8369
 20
69.8470
  0
VERTEX
  8
LAYER1
 62
     7
  6
CONTINUOUS
 10
46.4313
 20
69.5225
  0
VERTEX
  8
LAYER1
 62
     7
  6
CONTINUOUS
 10
45.9716
 20
69.4143
  0
VERTEX
  8
LAYER1
 62
     7
  6
CONTINUOUS
 10
45.2685
 20
69.3873
  0
VERTEX
  8
LAYER1
 62
     7
  6
CONTINUOUS
 10
45.1873
 20
69.4685
  0
VERTEX
  8
LAYER1
 62
     7
  6
CONTINUOUS
 10
45.1062
 20
69.8470
  0
SEQEND
  8
LAYER1
  0
POLYLINE
  8
LAYER1
 62
     3
 66
     1
  6
CONTINUOUS
  0
VERTEX
  8
LAYER1
 62
     3
  6
CONTINUOUS
 10
51.3260
 20
80.8264
  0
VERTEX
  8
LAYER1
 62
     3
  6
CONTINUOUS
 10
52.4348
 20
82.6652
  0
SEQEND
  8
LAYER1
  0
POLYLINE
  8
LAYER1
 62
     3
 66
     1
  6
CONTINUOUS
  0
VERTEX
  8
LAYER1
 62
     3
  6
CONTINUOUS
 10
38.7512
 20
56.0282
  0
VERTEX
  8
LAYER1
 62
     3
  6
CONTINUOUS
 10
37.8047
 20
54.2975
  0
SEQEND
  8
LAYER1
  0
POLYLINE
  8
LAYER1
 62
     7
 66
     1
  6
CONTINUOUS
  0
VERTEX
  8
LAYER1
 62
     7
  6
CONTINUOUS
 10
21.5350
 20
46.3382
  0
VERTEX
  8
LAYER1
 62
     7
  6
CONTINUOUS
 10
31.5350
 20
46.3382
  0
SEQEND
  8
LAYER1
  0
POLYLINE
  8
LAYER1
 62
     7
 66
     1
  6
CONTINUOUS
  0
VERTEX
  8
LAYER1
 62
     7
  6
CONTINUOUS
 10
21.5350
 20
46.3382
  0
VERTEX
  8
LAYER1
 62
     7
  6
CONTINUOUS
 10
21.5350
 20
48.1914
  0
SEQEND
  8
LAYER1
  0
POLYLINE
  8
LAYER1
 62
     7
 66
     1
  6
CONTINUOUS
  0
VERTEX
  8
LAYER1
 62
     7
  6
CONTINUOUS
 10
31.5350
 20
46.3382
  0
VERTEX
  8
LAYER1
 62
     7
  6
CONTINUOUS
 10
31.5350
 20
48.1914
  0
SEQEND
  8
LAYER1
  0
POLYLINE
  8
LAYER1
 62
     7
 66
     1
  6
CONTINUOUS
  0
VERTEX
  8
LAYER1
 62
     7
  6
CONTINUOUS
 10
64.5852
 20
50.1851
  0
VERTEX
  8
LAYER1
 62
     7
  6
CONTINUOUS
 10
64.5852
 20
57.6213
  0
SEQEND
  8
LAYER1
  0
POLYLINE
  8
LAYER1
 62
     7
 66
     1
  6
CONTINUOUS
  0
VERTEX
  8
LAYER1
 62
     7
  6
CONTINUOUS
 10
64.5852
 20
57.6213
  0
VERTEX
  8
LAYER1
 62
     7
  6
CONTINUOUS
 10
64.2025
 20
56.1515
  0
SEQEND
  8
LAYER1
  0
POLYLINE
  8
LAYER1
 62
     7
 66
     1
  6
CONTINUOUS
  0
VERTEX
  8
LAYER1
 62
     7
  6
CONTINUOUS
 10
64.5852
 20
57.6213
  0
VERTEX
  8
LAYER1
 62
     7
  6
CONTINUOUS
 10
64.5852
 20
50.1851
  0
SEQEND
  8
LAYER1
  0
ENDSEC
  0
EOF
