  0
SECTION
  2
HEADER
  9
$ACADVER
  1
AC1004
  9
$EXTMIN
 10
6764.3191
 20
8419.5350
  9
$EXTMAX
 10
37187.1803
 20
36657.5116
  9
$LIMMIN
 10
6764.3191
 20
8419.5350
  9
$LIMMAX
 10
37187.1803
 20
36657.5116
  9
$INSBASE
 10
0.0
 20
0.0
  9
$VIEWCTR
 10
7.21903
 20
4.5
  9
$VIEWSIZE
 40
9.0
  9
$SNAPMODE
 70
     0
  9
$SNAPUNIT
 10
1.0
 20
1.0
  9
$SNAPBASE
 10
0.0
 20
0.0
  9
$SNAPANG
 50
0.0
  9
$SNAPSTYLE
 70
     0
  9
$SNAPISOPAIR
 70
     0
  9
$GRIDMODE
 70
     0
  9
$GRIDUNIT
 10
0.0
 20
0.0
  9
$ORTHOMODE
 70
     0
  9
$REGENMODE
 70
     1
  9
$FILLMODE
 70
     1
  9
$QTEXTMODE
 70
     0
  9
$DRAGMODE
 70
     2
  9
$LTSCALE
 40
1.0
  9
$OSMODE
 70
     0
  9
$ATTMODE
 70
     1
  9
$TEXTSIZE
 40
0.2
  9
$TRACEWID
 40
0.05
  9
$TEXTSTYLE
  7
STANDARD
  9
$CLAYER
  8
0
  9
$CELTYPE
  6
BYLAYER
  9
$CECOLOR
 62
   256
  9
$DIMSCALE
 40
1.0
  9
$DIMASZ
 40
0.18
  9
$DIMEXO
 40
0.0625
  9
$DIMDLI
 40
0.38
  9
$DIMRND
 40
0.0
  9
$DIMDLE
 40
0.0
  9
$DIMEXE
 40
0.18
  9
$DIMTP
 40
0.0
  9
$DIMTM
 40
0.0
  9
$DIMTXT
 40
0.18
  9
$DIMCEN
 40
0.09
  9
$DIMTSZ
 40
0.0
  9
$DIMTOL
 70
     0
  9
$DIMLIM
 70
     0
  9
$DIMTIH
 70
     1
  9
$DIMTOH
 70
     1
  9
$DIMSE1
 70
     0
  9
$DIMSE2
 70
     0
  9
$DIMTAD
 70
     0
  9
$DIMZIN
 70
     0
  9
$DIMBLK
  1

  9
$DIMASO
 70
     1
  9
$DIMSHO
 70
     0
  9
$DIMPOST
  1

  9
$DIMAPOST
  1

  9
$DIMALT
 70
     0
  9
$DIMALTD
 70
     2
  9
$DIMALTF
 40
25.4
  9
$DIMLFAC
 40
1.0
  9
$LUNITS
 70
     2
  9
$LUPREC
 70
     4
  9
$AXISMODE
 70
     0
  9
$AXISUNIT
 10
0.0
 20
0.0
  9
$SKETCHINC
 40
0.1
  9
$FILLETRAD
 40
0.0
  9
$AUNITS
 70
     0
  9
$AUPREC
 70
     0
  9
$MENU
  1
acad
  9
$ELEVATION
 40
0.0
  9
$THICKNESS
 40
0.0
  9
$VIEWDIR
 10
0.0
 20
0.0
 30
1.0
  9
$LIMCHECK
 70
     0
  9
$BLIPMODE
 70
     1
  9
$CHAMFERA
 40
0.0
  9
$CHAMFERB
 40
0.0
  9
$FASTZOOM
 70
     1
  9
$SKPOLY
 70
     0
  9
$TDCREATE
 40
2447222.5666886573
  9
$TDUPDATE
 40
2447222.5666886573
  9
$TDINDWG
 40
0.0000000000
  9
$TDUSRTIMER
 40
0.0000000000
  9
$USRTIMER
 70
     1
  9
$ANGBASE
 50
0.0
  9
$ANGDIR
 70
     0
  9
$PDMODE
 70
     0
  9
$PDSIZE
 40
0.0
  9
$PLINEWID
 40
0.0
  9
$COORDS
 70
     0
  9
$SPLFRAME
 70
     0
  9
$SPLINESEGS
 70
     8
  9
$ATTDIA
 70
     0
  9
$ATTREQ
 70
     1
  9
$USERI1
 70
     0
  9
$USERI2
 70
     0
  9
$USERI3
 70
     0
  9
$USERI4
 70
     0
  9
$USERI5
 70
     0
  9
$USERR1
 40
0.0
  9
$USERR2
 40
0.0
  9
$USERR3
 40
0.0
  9
$USERR4
 40
0.0
  9
$USERR5
 40
0.0
  0
ENDSEC
  0
SECTION
  2
TABLES
  0
TABLE
  2
LTYPE
 70
     13
  0
LTYPE
  2
CONTINUOUS
 70
    64
  3
Solid line
 72
    65
 73
     0
 40
0.0
  0
LTYPE
  2
DASHED
 70
    64
  3
__ __ __ __ __ __ __ __ __ __ __ __ __ __ __
 72
    65
 73
     2
 40
0.75
 49
0.5
 49
-0.25
  0
LTYPE
  2
HIDDEN
 70
    64
  3
_ _ _ _ _ _ _ _ _ _ _ _ _ _ _ _ _ _ _ _ _ _ _
 72
    65
 73
     2
 40
0.375
 49
0.25
 49
-0.125
  0
LTYPE
  2
CENTER
 70
    64
  3
____ _ ____ _ ____ _ ____ _ ____ _ ____ _ ____
 72
    65
 73
     4
 40
2.0
 49
1.25
 49
-0.25
 49
0.25
 49
-0.25
  0
LTYPE
  2
PHANTOM
 70
    64
  3
_____ _ _ _____ _ _ _____ _ _ _____ _ _ ____
 72
    65
 73
     6
 40
2.5
 49
1.25
 49
-0.25
 49
0.25
 49
-0.25
 49
0.25
 49
-0.25
  0
LTYPE
  2
DOT
 70
    64
  3
...............................................
 72
    65
 73
     2
 40
0.25
 49
0.0
 49
-0.25
  0
LTYPE
  2
DASHDOT
 70
    64
  3
__ . __ . __ . __ . __ . __ . __ . __ . __ . __
 72
    65
 73
     4
 40
1.0
 49
0.5
 49
-0.25
 49
0.0
 49
-0.25
  0
LTYPE
  2
BORDER
 70
    64
  3
__ __ . __ __ . __ __ . __ __ . __ __ . __ __
 72
    65
 73
     6
 40
1.75
 49
0.5
 49
-0.25
 49
0.5
 49
-0.25
 49
0.0
 49
-0.25
  0
LTYPE
  2
DIVIDE
 70
    64
  3
__ . . __ . . __ . . __ . . __ . . __ . . __
 72
    65
 73
     6
 40
1.25
 49
0.5
 49
-0.25
 49
0.0
 49
-0.25
 49
0.0
 49
-0.25
  0
LTYPE
  2
DCTYPE1
 70
    64
  3
__ . . __ . . __ . . __ . . __ . . __ . . __
 72
    65
 73
     8
 40
2.5
 49
0.5
 49
-0.25
 49
0.125
 49
-0.25
 49
0.25
 49
-0.25
 49
0.125
 49
-0.25
  0
LTYPE
  2
DCTYPE2
 70
    64
  3
__ . . __ . . __ . . __ . . __ . . __ . . __
 72
    65
 73
     6
 40
2.05
 49
1.0
 49
-0.3
 49
0.15
 49
-0.15
 49
0.15
 49
-0.3
  0
LTYPE
  2
DCTYPE3
 70
    64
  3
__ . . __ . . __ . . __ . . __ . . __ . . __
 72
    65
 73
     6
 40
2.5
 49
0.8
 49
-0.2
 49
0.8
 49
-0.2
 49
0.3
 49
-0.2
  0
LTYPE
  2
DCTYPE4
 70
    64
  3
__ . . __ . . __ . . __ . . __ . . __ . . __
 72
    65
 73
     10
 40
3.97
 49
1.75
 49
-0.3
 49
0.3
 49
-0.3
 49
0.06
 49
-0.3
 49
0.06
 49
-0.3
 49
0.3
 49
-0.3
  0
ENDTAB
  0
TABLE
  2
LAYER
 70
    153
  0
LAYER
  2
LAYER1
 70
 64
 62
     7
  6
CONTINUOUS
  0
ENDTAB
  0
ENDSEC
  0
SECTION
  2
BLOCKS
  0
ENDSEC
  0
SECTION
  2
ENTITIES
  0
POLYLINE
  8
LAYER1
 62
     7
 66
     1
  6
CONTINUOUS
  0
VERTEX
  8
LAYER1
 62
     7
  6
CONTINUOUS
 10
19708.1037
 20
26869.6606
  0
VERTEX
  8
LAYER1
 62
     7
  6
CONTINUOUS
 10
19697.0646
 20
26869.6606
  0
VERTEX
  8
LAYER1
 62
     7
  6
CONTINUOUS
 10
19410.1641
 20
26836.5555
  0
VERTEX
  8
LAYER1
 62
     7
  6
CONTINUOUS
 10
19145.3298
 20
26825.5307
  0
VERTEX
  8
LAYER1
 62
     7
  6
CONTINUOUS
 10
18902.5616
 20
26814.4917
  0
VERTEX
  8
LAYER1
 62
     7
  6
CONTINUOUS
 10
18648.7663
 20
26814.4917
  0
VERTEX
  8
LAYER1
 62
     7
  6
CONTINUOUS
 10
18361.8515
 20
26803.4526
  0
VERTEX
  8
LAYER1
 62
     7
  6
CONTINUOUS
 10
18108.0562
 20
26726.2175
  0
VERTEX
  8
LAYER1
 62
     7
  6
CONTINUOUS
 10
17743.9110
 20
26549.6573
  0
VERTEX
  8
LAYER1
 62
     7
  6
CONTINUOUS
 10
17302.5141
 20
26284.8230
  0
VERTEX
  8
LAYER1
 62
     7
  6
CONTINUOUS
 10
16783.8844
 20
26031.0277
  0
VERTEX
  8
LAYER1
 62
     7
  6
CONTINUOUS
 10
16430.7783
 20
25832.4013
  0
VERTEX
  8
LAYER1
 62
     7
  6
CONTINUOUS
 10
15901.1096
 20
25479.2785
  0
VERTEX
  8
LAYER1
 62
     7
  6
CONTINUOUS
 10
15459.7127
 20
25170.3166
  0
VERTEX
  8
LAYER1
 62
     7
  6
CONTINUOUS
 10
15029.3571
 20
24784.0886
  0
VERTEX
  8
LAYER1
 62
     7
  6
CONTINUOUS
 10
14587.9614
 20
24353.7331
  0
VERTEX
  8
LAYER1
 62
     7
  6
CONTINUOUS
 10
14080.3719
 20
23835.1035
  0
VERTEX
  8
LAYER1
 62
     7
  6
CONTINUOUS
 10
13749.3284
 20
23537.1639
  0
VERTEX
  8
LAYER1
 62
     7
  6
CONTINUOUS
 10
13341.0367
 20
23106.8084
  0
VERTEX
  8
LAYER1
 62
     7
  6
CONTINUOUS
 10
12899.6409
 20
22466.7875
  0
VERTEX
  8
LAYER1
 62
     7
  6
CONTINUOUS
 10
12678.9508
 20
22036.4320
  0
VERTEX
  8
LAYER1
 62
     7
  6
CONTINUOUS
 10
12469.2854
 20
21595.0493
  0
VERTEX
  8
LAYER1
 62
     7
  6
CONTINUOUS
 10
12325.8435
 20
21153.6548
  0
VERTEX
  8
LAYER1
 62
     7
  6
CONTINUOUS
 10
12215.4901
 20
20701.2331
  0
VERTEX
  8
LAYER1
 62
     7
  6
CONTINUOUS
 10
12182.3861
 20
20237.7748
  0
VERTEX
  8
LAYER1
 62
     7
  6
CONTINUOUS
 10
12204.4510
 20
19608.7917
  0
VERTEX
  8
LAYER1
 62
     7
  6
CONTINUOUS
 10
12281.6993
 20
18979.8098
  0
VERTEX
  8
LAYER1
 62
     7
  6
CONTINUOUS
 10
12381.0124
 20
18262.5395
  0
VERTEX
  8
LAYER1
 62
     7
  6
CONTINUOUS
 10
12436.1802
 20
17832.1840
  0
VERTEX
  8
LAYER1
 62
     7
  6
CONTINUOUS
 10
12458.2607
 20
17148.0331
  0
VERTEX
  8
LAYER1
 62
     7
  6
CONTINUOUS
 10
12469.2854
 20
16607.3242
  0
VERTEX
  8
LAYER1
 62
     7
  6
CONTINUOUS
 10
12612.7428
 20
15868.0044
  0
VERTEX
  8
LAYER1
 62
     7
  6
CONTINUOUS
 10
12844.4720
 20
15294.1915
  0
VERTEX
  8
LAYER1
 62
     7
  6
CONTINUOUS
 10
13065.1621
 20
14830.7308
  0
VERTEX
  8
LAYER1
 62
     7
  6
CONTINUOUS
 10
13142.4115
 20
14587.9614
  0
VERTEX
  8
LAYER1
 62
     7
  6
CONTINUOUS
 10
13263.7884
 20
14312.1023
  0
VERTEX
  8
LAYER1
 62
     7
  6
CONTINUOUS
 10
13451.3901
 20
13925.8743
  0
VERTEX
  8
LAYER1
 62
     7
  6
CONTINUOUS
 10
13683.1204
 20
13506.5590
  0
VERTEX
  8
LAYER1
 62
     7
  6
CONTINUOUS
 10
13914.8508
 20
13120.3465
  0
VERTEX
  8
LAYER1
 62
     7
  6
CONTINUOUS
 10
14356.2310
 20
12689.9910
  0
VERTEX
  8
LAYER1
 62
     7
  6
CONTINUOUS
 10
14676.2498
 20
12369.9722
  0
VERTEX
  8
LAYER1
 62
     7
  6
CONTINUOUS
 10
14985.2129
 20
12005.8247
  0
VERTEX
  8
LAYER1
 62
     7
  6
CONTINUOUS
 10
15459.7127
 20
11465.1312
  0
VERTEX
  8
LAYER1
 62
     7
  6
CONTINUOUS
 10
16055.5905
 20
11045.7993
  0
VERTEX
  8
LAYER1
 62
     7
  6
CONTINUOUS
 10
16386.6341
 20
10747.8609
  0
VERTEX
  8
LAYER1
 62
     7
  6
CONTINUOUS
 10
16905.2614
 20
10328.5444
  0
VERTEX
  8
LAYER1
 62
     7
  6
CONTINUOUS
 10
17236.3061
 20
10030.6061
  0
VERTEX
  8
LAYER1
 62
     7
  6
CONTINUOUS
 10
17721.8449
 20
9633.3546
  0
VERTEX
  8
LAYER1
 62
     7
  6
CONTINUOUS
 10
18229.4355
 20
9191.9582
  0
VERTEX
  8
LAYER1
 62
     7
  6
CONTINUOUS
 10
18759.1042
 20
8960.2285
  0
VERTEX
  8
LAYER1
 62
     7
  6
CONTINUOUS
 10
19884.6496
 20
8695.3935
  0
VERTEX
  8
LAYER1
 62
     7
  6
CONTINUOUS
 10
20480.5287
 20
8585.0562
  0
VERTEX
  8
LAYER1
 62
     7
  6
CONTINUOUS
 10
20999.1726
 20
8507.8080
  0
VERTEX
  8
LAYER1
 62
     7
  6
CONTINUOUS
 10
21484.6971
 20
8452.6390
  0
VERTEX
  8
LAYER1
 62
     7
  6
CONTINUOUS
 10
22003.3268
 20
8419.5350
  0
VERTEX
  8
LAYER1
 62
     7
  6
CONTINUOUS
 10
22411.6185
 20
8441.5994
  0
VERTEX
  8
LAYER1
 62
     7
  6
CONTINUOUS
 10
23128.8722
 20
8463.6638
  0
VERTEX
  8
LAYER1
 62
     7
  6
CONTINUOUS
 10
23846.1425
 20
8518.8476
  0
VERTEX
  8
LAYER1
 62
     7
  6
CONTINUOUS
 10
24254.4199
 20
8529.8723
  0
VERTEX
  8
LAYER1
 62
     7
  6
CONTINUOUS
 10
24331.6693
 20
8551.9522
  0
VERTEX
  8
LAYER1
 62
     7
  6
CONTINUOUS
 10
25225.4856
 20
8794.7067
  0
VERTEX
  8
LAYER1
 62
     7
  6
CONTINUOUS
 10
25854.4675
 20
8927.1239
  0
VERTEX
  8
LAYER1
 62
     7
  6
CONTINUOUS
 10
26450.3442
 20
9070.5813
  0
VERTEX
  8
LAYER1
 62
     7
  6
CONTINUOUS
 10
26902.7634
 20
9158.8542
  0
VERTEX
  8
LAYER1
 62
     7
  6
CONTINUOUS
 10
27421.4098
 20
9258.1668
  0
VERTEX
  8
LAYER1
 62
     7
  6
CONTINUOUS
 10
27928.9980
 20
9401.6242
  0
VERTEX
  8
LAYER1
 62
     7
  6
CONTINUOUS
 10
28469.7082
 20
9644.3942
  0
VERTEX
  8
LAYER1
 62
     7
  6
CONTINUOUS
 10
28966.2717
 20
9909.2285
  0
VERTEX
  8
LAYER1
 62
     7
  6
CONTINUOUS
 10
29473.8766
 20
10229.2324
  0
VERTEX
  8
LAYER1
 62
     7
  6
CONTINUOUS
 10
29826.9827
 20
10527.1708
  0
VERTEX
  8
LAYER1
 62
     7
  6
CONTINUOUS
 10
30169.0665
 20
11045.7993
  0
VERTEX
  8
LAYER1
 62
     7
  6
CONTINUOUS
 10
30555.2778
 20
11740.9903
  0
VERTEX
  8
LAYER1
 62
     7
  6
CONTINUOUS
 10
31040.8023
 20
12369.9722
  0
VERTEX
  8
LAYER1
 62
     7
  6
CONTINUOUS
 10
31515.3044
 20
12976.8891
  0
VERTEX
  8
LAYER1
 62
     7
  6
CONTINUOUS
 10
31967.7237
 20
13605.8722
  0
VERTEX
  8
LAYER1
 62
     7
  6
CONTINUOUS
 10
32519.4728
 20
14245.8931
  0
VERTEX
  8
LAYER1
 62
     7
  6
CONTINUOUS
 10
32894.6451
 20
14863.8360
  0
VERTEX
  8
LAYER1
 62
     7
  6
CONTINUOUS
 10
33181.5599
 20
15503.8569
  0
VERTEX
  8
LAYER1
 62
     7
  6
CONTINUOUS
 10
33402.2500
 20
16243.1767
  0
VERTEX
  8
LAYER1
 62
     7
  6
CONTINUOUS
 10
33468.4580
 20
16662.5086
  0
VERTEX
  8
LAYER1
 62
     7
  6
CONTINUOUS
 10
33435.3528
 20
17092.8642
  0
VERTEX
  8
LAYER1
 62
     7
  6
CONTINUOUS
 10
33269.8317
 20
17743.9110
  0
VERTEX
  8
LAYER1
 62
     7
  6
CONTINUOUS
 10
33016.0363
 20
18361.8527
  0
VERTEX
  8
LAYER1
 62
     7
  6
CONTINUOUS
 10
32828.4371
 20
18891.5214
  0
VERTEX
  8
LAYER1
 62
     7
  6
CONTINUOUS
 10
32563.6004
 20
19288.7729
  0
VERTEX
  8
LAYER1
 62
     7
  6
CONTINUOUS
 10
32243.5994
 20
19641.8957
  0
VERTEX
  8
LAYER1
 62
     7
  6
CONTINUOUS
 10
31791.1778
 20
20083.2759
  0
VERTEX
  8
LAYER1
 62
     7
  6
CONTINUOUS
 10
31559.4486
 20
20590.8809
  0
VERTEX
  8
LAYER1
 62
     7
  6
CONTINUOUS
 10
31460.1354
 20
21054.3416
  0
VERTEX
  8
LAYER1
 62
     7
  6
CONTINUOUS
 10
31151.1569
 20
21749.5315
  0
VERTEX
  8
LAYER1
 62
     7
  6
CONTINUOUS
 10
30775.9679
 20
22179.8870
  0
VERTEX
  8
LAYER1
 62
     7
  6
CONTINUOUS
 10
30389.7566
 20
22466.7875
  0
VERTEX
  8
LAYER1
 62
     7
  6
CONTINUOUS
 10
29838.0241
 20
22764.7246
  0
VERTEX
  8
LAYER1
 62
     7
  6
CONTINUOUS
 10
29142.8343
 20
22963.3510
  0
VERTEX
  8
LAYER1
 62
     7
  6
CONTINUOUS
 10
28679.3736
 20
23206.1216
  0
VERTEX
  8
LAYER1
 62
     7
  6
CONTINUOUS
 10
28149.7049
 20
23537.1639
  0
VERTEX
  8
LAYER1
 62
     7
  6
CONTINUOUS
 10
27586.9310
 20
23890.2724
  0
VERTEX
  8
LAYER1
 62
     7
  6
CONTINUOUS
 10
27134.4950
 20
24077.8740
  0
VERTEX
  8
LAYER1
 62
     7
  6
CONTINUOUS
 10
26704.1395
 20
24342.7084
  0
VERTEX
  8
LAYER1
 62
     7
  6
CONTINUOUS
 10
26152.4046
 20
24651.6703
  0
VERTEX
  8
LAYER1
 62
     7
  6
CONTINUOUS
 10
25523.4227
 20
24927.5460
  0
VERTEX
  8
LAYER1
 62
     7
  6
CONTINUOUS
 10
24872.3771
 20
25148.2362
  0
VERTEX
  8
LAYER1
 62
     7
  6
CONTINUOUS
 10
24430.9801
 20
25368.9430
  0
VERTEX
  8
LAYER1
 62
     7
  6
CONTINUOUS
 10
23868.2086
 20
25600.6721
  0
VERTEX
  8
LAYER1
 62
     7
  6
CONTINUOUS
 10
23106.8084
 20
25843.4260
  0
VERTEX
  8
LAYER1
 62
     7
  6
CONTINUOUS
 10
22742.6609
 20
25931.7145
  0
VERTEX
  8
LAYER1
 62
     7
  6
CONTINUOUS
 10
22268.1611
 20
26163.4460
  0
VERTEX
  8
LAYER1
 62
     7
  6
CONTINUOUS
 10
21826.7809
 20
26395.1752
  0
VERTEX
  8
LAYER1
 62
     7
  6
CONTINUOUS
 10
21175.7185
 20
26604.8263
  0
VERTEX
  8
LAYER1
 62
     7
  6
CONTINUOUS
 10
20701.2331
 20
26748.2837
  0
VERTEX
  8
LAYER1
 62
     7
  6
CONTINUOUS
 10
20204.6696
 20
26880.6997
  0
VERTEX
  8
LAYER1
 62
     7
  6
CONTINUOUS
 10
19708.1037
 20
26869.6606
  0
SEQEND
  8
LAYER1
  0
POLYLINE
  8
LAYER1
 62
     7
 66
     1
  6
DASHED
  0
VERTEX
  8
LAYER1
 62
     7
  6
DASHED
 10
19564.6463
 20
25821.3623
  0
VERTEX
  8
LAYER1
 62
     7
  6
DASHED
 10
18935.6644
 20
25699.9853
  0
VERTEX
  8
LAYER1
 62
     7
  6
DASHED
 10
18571.5169
 20
25655.8411
  0
VERTEX
  8
LAYER1
 62
     7
  6
DASHED
 10
17942.5350
 20
25402.0458
  0
VERTEX
  8
LAYER1
 62
     7
  6
DASHED
 10
17269.4089
 20
25126.1724
  0
VERTEX
  8
LAYER1
 62
     7
  6
DASHED
 10
16695.6126
 20
24806.1691
  0
VERTEX
  8
LAYER1
 62
     7
  6
DASHED
 10
16342.4899
 20
24574.4375
  0
VERTEX
  8
LAYER1
 62
     7
  6
DASHED
 10
15901.1096
 20
24287.5227
  0
VERTEX
  8
LAYER1
 62
     7
  6
DASHED
 10
15360.3995
 20
23879.2477
  0
VERTEX
  8
LAYER1
 62
     7
  6
DASHED
 10
15018.3169
 20
23592.3329
  0
VERTEX
  8
LAYER1
 62
     7
  6
DASHED
 10
14444.5195
 20
23095.7694
  0
VERTEX
  8
LAYER1
 62
     7
  6
DASHED
 10
14014.1628
 20
22687.4919
  0
VERTEX
  8
LAYER1
 62
     7
  6
DASHED
 10
13572.7670
 20
22124.7204
  0
VERTEX
  8
LAYER1
 62
     7
  6
DASHED
 10
13374.1418
 20
21694.3625
  0
VERTEX
  8
LAYER1
 62
     7
  6
DASHED
 10
13208.6195
 20
20977.0922
  0
VERTEX
  8
LAYER1
 62
     7
  6
DASHED
 10
13120.3465
 20
20138.4616
  0
VERTEX
  8
LAYER1
 62
     7
  6
DASHED
 10
13098.2673
 20
19421.1901
  0
VERTEX
  8
LAYER1
 62
     7
  6
DASHED
 10
13076.2023
 20
18703.9352
  0
VERTEX
  8
LAYER1
 62
     7
  6
DASHED
 10
13120.3465
 20
18063.9131
  0
VERTEX
  8
LAYER1
 62
     7
  6
DASHED
 10
13318.9729
 20
17225.2813
  0
VERTEX
  8
LAYER1
 62
     7
  6
DASHED
 10
13539.6630
 20
16309.3847
  0
VERTEX
  8
LAYER1
 62
     7
  6
DASHED
 10
13771.3934
 20
15470.7529
  0
VERTEX
  8
LAYER1
 62
     7
  6
DASHED
 10
14256.9179
 20
14676.2498
  0
VERTEX
  8
LAYER1
 62
     7
  6
DASHED
 10
14643.1446
 20
14047.2679
  0
VERTEX
  8
LAYER1
 62
     7
  6
DASHED
 10
15161.7743
 20
13329.9976
  0
VERTEX
  8
LAYER1
 62
     7
  6
DASHED
 10
15647.2988
 20
12800.3277
  0
VERTEX
  8
LAYER1
 62
     7
  6
DASHED
 10
16452.8421
 20
12248.5953
  0
VERTEX
  8
LAYER1
 62
     7
  6
DASHED
 10
17181.1371
 20
11685.8214
  0
VERTEX
  8
LAYER1
 62
     7
  6
DASHED
 10
17887.3660
 20
11189.2567
  0
VERTEX
  8
LAYER1
 62
     7
  6
DASHED
 10
18880.4954
 20
10747.8609
  0
VERTEX
  8
LAYER1
 62
     7
  6
DASHED
 10
20072.2512
 20
10262.3364
  0
VERTEX
  8
LAYER1
 62
     7
  6
DASHED
 10
21219.8628
 20
9898.1889
  0
VERTEX
  8
LAYER1
 62
     7
  6
DASHED
 10
22521.9707
 20
9732.6671
  0
VERTEX
  8
LAYER1
 62
     7
  6
DASHED
 10
23448.8922
 20
9798.8757
  0
VERTEX
  8
LAYER1
 62
     7
  6
DASHED
 10
24629.6065
 20
9964.3975
  0
VERTEX
  8
LAYER1
 62
     7
  6
DASHED
 10
24784.0886
 20
9975.4377
  0
VERTEX
  8
LAYER1
 62
     7
  6
DASHED
 10
25600.6721
 20
10273.3767
  0
VERTEX
  8
LAYER1
 62
     7
  6
DASHED
 10
26119.3018
 20
10538.2110
  0
VERTEX
  8
LAYER1
 62
     7
  6
DASHED
 10
27090.3651
 20
11112.0085
  0
VERTEX
  8
LAYER1
 62
     7
  6
DASHED
 10
27608.9947
 20
11840.3035
  0
VERTEX
  8
LAYER1
 62
     7
  6
DASHED
 10
28138.6634
 20
12689.9910
  0
VERTEX
  8
LAYER1
 62
     7
  6
DASHED
 10
28557.9799
 20
13561.7268
  0
VERTEX
  8
LAYER1
 62
     7
  6
DASHED
 10
28800.7505
 20
14069.3317
  0
VERTEX
  8
LAYER1
 62
     7
  6
DASHED
 10
29032.4797
 20
14819.6905
  0
VERTEX
  8
LAYER1
 62
     7
  6
DASHED
 10
29153.8566
 20
15625.2350
  0
VERTEX
  8
LAYER1
 62
     7
  6
DASHED
 10
29186.9618
 20
16684.5724
  0
VERTEX
  8
LAYER1
 62
     7
  6
DASHED
 10
29220.0670
 20
17412.8675
  0
VERTEX
  8
LAYER1
 62
     7
  6
DASHED
 10
29264.2112
 20
18030.8091
  0
VERTEX
  8
LAYER1
 62
     7
  6
DASHED
 10
29308.3554
 20
18902.5616
  0
VERTEX
  8
LAYER1
 62
     7
  6
DASHED
 10
29209.0423
 20
19663.9606
  0
VERTEX
  8
LAYER1
 62
     7
  6
DASHED
 10
28944.2079
 20
20270.8776
  0
VERTEX
  8
LAYER1
 62
     7
  6
DASHED
 10
27586.9310
 20
21550.9051
  0
VERTEX
  8
LAYER1
 62
     7
  6
DASHED
 10
26869.6606
 20
22058.5100
  0
VERTEX
  8
LAYER1
 62
     7
  6
DASHED
 10
26163.4460
 20
22521.9707
  0
VERTEX
  8
LAYER1
 62
     7
  6
DASHED
 10
25302.7326
 20
23128.8722
  0
VERTEX
  8
LAYER1
 62
     7
  6
DASHED
 10
24442.0216
 20
23625.4381
  0
VERTEX
  8
LAYER1
 62
     7
  6
DASHED
 10
23570.2691
 20
24232.3562
  0
VERTEX
  8
LAYER1
 62
     7
  6
DASHED
 10
22930.2482
 20
24695.8145
  0
VERTEX
  8
LAYER1
 62
     7
  6
DASHED
 10
22257.1364
 20
25071.0034
  0
VERTEX
  8
LAYER1
 62
     7
  6
DASHED
 10
21793.6757
 20
25335.8378
  0
VERTEX
  8
LAYER1
 62
     7
  6
DASHED
 10
20955.0284
 20
25512.3837
  0
VERTEX
  8
LAYER1
 62
     7
  6
DASHED
 10
20458.4649
 20
25556.5279
  0
VERTEX
  8
LAYER1
 62
     7
  6
DASHED
 10
19741.2089
 20
25699.9853
  0
VERTEX
  8
LAYER1
 62
     7
  6
DASHED
 10
19564.6463
 20
25821.3623
  0
SEQEND
  8
LAYER1
  0
POLYLINE
  8
LAYER1
 62
     7
 66
     1
  6
DASHED
  0
VERTEX
  8
LAYER1
 62
     7
  6
DASHED
 10
21826.7809
 20
26395.1752
  0
VERTEX
  8
LAYER1
 62
     7
  6
DASHED
 10
21937.1188
 20
26141.3656
  0
VERTEX
  8
LAYER1
 62
     7
  6
DASHED
 10
21992.3020
 20
25876.5312
  0
VERTEX
  8
LAYER1
 62
     7
  6
DASHED
 10
22301.2663
 20
25402.0458
  0
VERTEX
  8
LAYER1
 62
     7
  6
DASHED
 10
22864.0378
 20
24971.6903
  0
VERTEX
  8
LAYER1
 62
     7
  6
DASHED
 10
23592.3329
 20
24508.2296
  0
VERTEX
  8
LAYER1
 62
     7
  6
DASHED
 10
24430.9801
 20
24099.9378
  0
VERTEX
  8
LAYER1
 62
     7
  6
DASHED
 10
25501.3590
 20
23625.4381
  0
VERTEX
  8
LAYER1
 62
     7
  6
DASHED
 10
26483.4493
 20
23106.8084
  0
VERTEX
  8
LAYER1
 62
     7
  6
DASHED
 10
27288.9914
 20
22698.5166
  0
VERTEX
  8
LAYER1
 62
     7
  6
DASHED
 10
28105.5606
 20
22268.1611
  0
VERTEX
  8
LAYER1
 62
     7
  6
DASHED
 10
28811.7895
 20
21826.7809
  0
VERTEX
  8
LAYER1
 62
     7
  6
DASHED
 10
29440.7714
 20
20999.1726
  0
VERTEX
  8
LAYER1
 62
     7
  6
DASHED
 10
29661.4615
 20
20458.4649
  0
VERTEX
  8
LAYER1
 62
     7
  6
DASHED
 10
29838.0241
 20
19785.3376
  0
VERTEX
  8
LAYER1
 62
     7
  6
DASHED
 10
30025.6091
 20
18913.6018
  0
VERTEX
  8
LAYER1
 62
     7
  6
DASHED
 10
30180.0912
 20
18130.1223
  0
VERTEX
  8
LAYER1
 62
     7
  6
DASHED
 10
30312.5096
 20
17313.5543
  0
VERTEX
  8
LAYER1
 62
     7
  6
DASHED
 10
30367.6928
 20
16276.2807
  0
VERTEX
  8
LAYER1
 62
     7
  6
DASHED
 10
30334.5876
 20
15570.0661
  0
VERTEX
  8
LAYER1
 62
     7
  6
DASHED
 10
30213.1964
 20
14532.7924
  0
VERTEX
  8
LAYER1
 62
     7
  6
DASHED
 10
30058.7143
 20
13605.8722
  0
VERTEX
  8
LAYER1
 62
     7
  6
DASHED
 10
29838.0241
 20
12756.1990
  0
VERTEX
  8
LAYER1
 62
     7
  6
DASHED
 10
29551.1093
 20
12027.9051
  0
VERTEX
  8
LAYER1
 62
     7
  6
DASHED
 10
29021.4406
 20
11178.2164
  0
VERTEX
  8
LAYER1
 62
     7
  6
DASHED
 10
28480.7472
 20
10637.5242
  0
VERTEX
  8
LAYER1
 62
     7
  6
DASHED
 10
27675.2027
 20
9986.4619
  0
VERTEX
  8
LAYER1
 62
     7
  6
DASHED
 10
27211.7444
 20
9666.4586
  0
VERTEX
  8
LAYER1
 62
     7
  6
DASHED
 10
26671.0343
 20
9313.3513
  0
VERTEX
  8
LAYER1
 62
     7
  6
DASHED
 10
26450.3442
 20
9070.5813
  0
SEQEND
  8
LAYER1
  0
POLYLINE
  8
LAYER1
 62
     7
 66
     1
  6
CONTINUOUS
  0
VERTEX
  8
LAYER1
 62
     7
  6
CONTINUOUS
 10
14356.2310
 20
12689.9910
  0
VERTEX
  8
LAYER1
 62
     7
  6
CONTINUOUS
 10
14080.3719
 20
12623.7818
  0
VERTEX
  8
LAYER1
 62
     7
  6
CONTINUOUS
 10
13605.8722
 20
12458.2607
  0
VERTEX
  8
LAYER1
 62
     7
  6
CONTINUOUS
 10
13341.0367
 20
12458.2607
  0
VERTEX
  8
LAYER1
 62
     7
  6
CONTINUOUS
 10
13098.2673
 20
12601.7026
  0
VERTEX
  8
LAYER1
 62
     7
  6
CONTINUOUS
 10
12767.2237
 20
13054.1385
  0
VERTEX
  8
LAYER1
 62
     7
  6
CONTINUOUS
 10
12667.9106
 20
13484.4941
  0
VERTEX
  8
LAYER1
 62
     7
  6
CONTINUOUS
 10
12634.8066
 20
13859.6663
  0
VERTEX
  8
LAYER1
 62
     7
  6
CONTINUOUS
 10
12667.9106
 20
14036.2277
  0
VERTEX
  8
LAYER1
 62
     7
  6
CONTINUOUS
 10
12767.2237
 20
14245.8931
  0
VERTEX
  8
LAYER1
 62
     7
  6
CONTINUOUS
 10
13142.4115
 20
14587.9614
  0
SEQEND
  8
LAYER1
  0
POLYLINE
  8
LAYER1
 62
     7
 66
     1
  6
CONTINUOUS
  0
VERTEX
  8
LAYER1
 62
     7
  6
CONTINUOUS
 10
12469.2854
 20
21595.0493
  0
VERTEX
  8
LAYER1
 62
     7
  6
CONTINUOUS
 10
12347.9072
 20
21628.1545
  0
VERTEX
  8
LAYER1
 62
     7
  6
CONTINUOUS
 10
12259.6343
 20
21749.5315
  0
VERTEX
  8
LAYER1
 62
     7
  6
CONTINUOUS
 10
11895.4880
 20
21837.8056
  0
VERTEX
  8
LAYER1
 62
     7
  6
CONTINUOUS
 10
11432.0272
 20
21727.4677
  0
VERTEX
  8
LAYER1
 62
     7
  6
CONTINUOUS
 10
11299.6101
 20
21628.1545
  0
VERTEX
  8
LAYER1
 62
     7
  6
CONTINUOUS
 10
11211.3216
 20
21352.2811
  0
VERTEX
  8
LAYER1
 62
     7
  6
CONTINUOUS
 10
11145.1124
 20
21087.4468
  0
VERTEX
  8
LAYER1
 62
     7
  6
CONTINUOUS
 10
11123.0487
 20
20910.8842
  0
VERTEX
  8
LAYER1
 62
     7
  6
CONTINUOUS
 10
11222.3607
 20
20734.3383
  0
VERTEX
  8
LAYER1
 62
     7
  6
CONTINUOUS
 10
11465.1312
 20
20535.7119
  0
VERTEX
  8
LAYER1
 62
     7
  6
CONTINUOUS
 10
11674.7811
 20
20502.6091
  0
VERTEX
  8
LAYER1
 62
     7
  6
CONTINUOUS
 10
11818.2385
 20
20524.6729
  0
VERTEX
  8
LAYER1
 62
     7
  6
CONTINUOUS
 10
11939.6167
 20
20623.9861
  0
VERTEX
  8
LAYER1
 62
     7
  6
CONTINUOUS
 10
12215.4901
 20
20701.2331
  0
VERTEX
  8
LAYER1
 62
     7
  6
CONTINUOUS
 10
12215.4901
 20
20701.2331
  0
SEQEND
  8
LAYER1
  0
POLYLINE
  8
LAYER1
 62
     7
 66
     1
  6
CONTINUOUS
  0
VERTEX
  8
LAYER1
 62
     7
  6
CONTINUOUS
 10
21937.1188
 20
26141.3656
  0
VERTEX
  8
LAYER1
 62
     7
  6
CONTINUOUS
 10
21937.1188
 20
26306.8868
  0
VERTEX
  8
LAYER1
 62
     7
  6
CONTINUOUS
 10
21937.1188
 20
26406.1999
  0
VERTEX
  8
LAYER1
 62
     7
  6
CONTINUOUS
 10
21937.1188
 20
26527.5936
  0
VERTEX
  8
LAYER1
 62
     7
  6
CONTINUOUS
 10
22058.5100
 20
26748.2837
  0
VERTEX
  8
LAYER1
 62
     7
  6
CONTINUOUS
 10
22257.1364
 20
26880.6997
  0
VERTEX
  8
LAYER1
 62
     7
  6
CONTINUOUS
 10
22488.8679
 20
26913.8049
  0
VERTEX
  8
LAYER1
 62
     7
  6
CONTINUOUS
 10
22709.5581
 20
26913.8049
  0
VERTEX
  8
LAYER1
 62
     7
  6
CONTINUOUS
 10
22819.9103
 20
26880.6997
  0
VERTEX
  8
LAYER1
 62
     7
  6
CONTINUOUS
 10
22897.1430
 20
26770.3475
  0
VERTEX
  8
LAYER1
 62
     7
  6
CONTINUOUS
 10
22919.2235
 20
26604.8263
  0
VERTEX
  8
LAYER1
 62
     7
  6
CONTINUOUS
 10
22886.1183
 20
26428.2804
  0
VERTEX
  8
LAYER1
 62
     7
  6
CONTINUOUS
 10
22786.8051
 20
26295.8620
  0
VERTEX
  8
LAYER1
 62
     7
  6
CONTINUOUS
 10
22665.4138
 20
26218.6150
  0
VERTEX
  8
LAYER1
 62
     7
  6
CONTINUOUS
 10
22566.1007
 20
26163.4460
  0
VERTEX
  8
LAYER1
 62
     7
  6
CONTINUOUS
 10
22268.1611
 20
26163.4460
  0
SEQEND
  8
LAYER1
  0
POLYLINE
  8
LAYER1
 62
     3
 66
     1
  6
CONTINUOUS
  0
VERTEX
  8
LAYER1
 62
     3
  6
CONTINUOUS
 10
29308.3554
 20
16828.0298
  0
VERTEX
  8
LAYER1
 62
     3
  6
CONTINUOUS
 10
34682.2776
 20
16828.0298
  0
SEQEND
  8
LAYER1
  0
POLYLINE
  8
LAYER1
 62
     3
 66
     1
  6
CONTINUOUS
  0
VERTEX
  8
LAYER1
 62
     3
  6
CONTINUOUS
 10
11354.7790
 20
16828.0298
  0
VERTEX
  8
LAYER1
 62
     3
  6
CONTINUOUS
 10
14135.5409
 20
16828.0298
  0
SEQEND
  8
LAYER1
  0
POLYLINE
  8
LAYER1
 62
     7
 66
     1
  6
CONTINUOUS
  0
VERTEX
  8
LAYER1
 62
     7
  6
CONTINUOUS
 10
8728.4981
 20
8574.0166
  0
VERTEX
  8
LAYER1
 62
     7
  6
CONTINUOUS
 10
11498.2352
 20
8574.0166
  0
SEQEND
  8
LAYER1
  0
POLYLINE
  8
LAYER1
 62
     7
 66
     1
  6
CONTINUOUS
  0
VERTEX
  8
LAYER1
 62
     7
  6
CONTINUOUS
 10
11498.2352
 20
8574.0166
  0
VERTEX
  8
LAYER1
 62
     7
  6
CONTINUOUS
 10
11498.2352
 20
8872.5172
  0
SEQEND
  8
LAYER1
  0
POLYLINE
  8
LAYER1
 62
     7
 66
     1
  6
CONTINUOUS
  0
VERTEX
  8
LAYER1
 62
     7
  6
CONTINUOUS
 10
8728.4981
 20
8869.6443
  0
VERTEX
  8
LAYER1
 62
     7
  6
CONTINUOUS
 10
8728.4981
 20
8574.0166
  0
SEQEND
  8
LAYER1
  0
POLYLINE
  8
LAYER1
 62
     7
 66
     1
  6
CONTINUOUS
  0
VERTEX
  8
LAYER1
 62
     7
  6
CONTINUOUS
 10
11498.2352
 20
8574.0166
  0
VERTEX
  8
LAYER1
 62
     7
  6
CONTINUOUS
 10
8728.4981
 20
8574.0166
  0
SEQEND
  8
LAYER1
  0
POLYLINE
  8
LAYER1
 62
     7
 66
     1
  6
CONTINUOUS
  0
VERTEX
  8
LAYER1
 62
     7
  6
CONTINUOUS
 10
30522.1750
 20
27973.1423
  0
VERTEX
  8
LAYER1
 62
     7
  6
CONTINUOUS
 10
30522.1750
 20
25302.7326
  0
SEQEND
  8
LAYER1
  0
POLYLINE
  8
LAYER1
 62
     7
 66
     1
  6
CONTINUOUS
  0
VERTEX
  8
LAYER1
 62
     7
  6
CONTINUOUS
 10
30522.1750
 20
25302.7326
  0
VERTEX
  8
LAYER1
 62
     7
  6
CONTINUOUS
 10
30522.1750
 20
27973.1423
  0
SEQEND
  8
LAYER1
  0
POLYLINE
  8
LAYER1
 62
     7
 66
     1
  6
CONTINUOUS
  0
VERTEX
  8
LAYER1
 62
     7
  6
CONTINUOUS
 10
30522.1750
 20
27973.1423
  0
VERTEX
  8
LAYER1
 62
     7
  6
CONTINUOUS
 10
30339.2720
 20
27445.3321
  0
SEQEND
  8
LAYER1
  0
POLYLINE
  8
LAYER1
 62
     7
 66
     1
  6
CONTINUOUS
  0
VERTEX
  8
LAYER1
 62
     7
  6
CONTINUOUS
 10
6764.3191
 20
36558.1985
  0
VERTEX
  8
LAYER1
 62
     7
  6
CONTINUOUS
 10
6929.8409
 20
36558.1985
  0
VERTEX
  8
LAYER1
 62
     7
  6
CONTINUOUS
 10
7271.9086
 20
36569.2208
  0
VERTEX
  8
LAYER1
 62
     7
  6
CONTINUOUS
 10
7790.5531
 20
36514.0542
  0
VERTEX
  8
LAYER1
 62
     7
  6
CONTINUOUS
 10
8309.1822
 20
36503.0128
  0
VERTEX
  8
LAYER1
 62
     7
  6
CONTINUOUS
 10
8739.5377
 20
36525.0933
  0
VERTEX
  8
LAYER1
 62
     7
  6
CONTINUOUS
 10
9313.3513
 20
36547.1594
  0
VERTEX
  8
LAYER1
 62
     7
  6
CONTINUOUS
 10
10185.0882
 20
36635.4312
  0
VERTEX
  8
LAYER1
 62
     7
  6
CONTINUOUS
 10
11299.6101
 20
36657.5116
  0
VERTEX
  8
LAYER1
 62
     7
  6
CONTINUOUS
 10
12171.3459
 20
36635.4312
  0
VERTEX
  8
LAYER1
 62
     7
  6
CONTINUOUS
 10
13120.3465
 20
36558.1985
  0
VERTEX
  8
LAYER1
 62
     7
  6
CONTINUOUS
 10
13561.7268
 20
36547.1594
  0
VERTEX
  8
LAYER1
 62
     7
  6
CONTINUOUS
 10
14267.9581
 20
36525.0933
  0
VERTEX
  8
LAYER1
 62
     7
  6
CONTINUOUS
 10
14996.2531
 20
36503.0152
  0
VERTEX
  8
LAYER1
 62
     7
  6
CONTINUOUS
 10
15801.7964
 20
36436.8048
  0
VERTEX
  8
LAYER1
 62
     7
  6
CONTINUOUS
 10
16210.0727
 20
36436.8048
  0
VERTEX
  8
LAYER1
 62
     7
  6
CONTINUOUS
 10
16816.9896
 20
36458.8853
  0
VERTEX
  8
LAYER1
 62
     7
  6
CONTINUOUS
 10
17633.5564
 20
36480.9490
  0
VERTEX
  8
LAYER1
 62
     7
  6
CONTINUOUS
 10
18692.8938
 20
36503.0152
  0
VERTEX
  8
LAYER1
 62
     7
  6
CONTINUOUS
 10
19321.8757
 20
36514.0542
  0
VERTEX
  8
LAYER1
 62
     7
  6
CONTINUOUS
 10
20105.3564
 20
36491.9905
  0
VERTEX
  8
LAYER1
 62
     7
  6
CONTINUOUS
 10
21098.4858
 20
36447.8462
  0
VERTEX
  8
LAYER1
 62
     7
  6
CONTINUOUS
 10
21881.9498
 20
36436.8048
  0
VERTEX
  8
LAYER1
 62
     7
  6
CONTINUOUS
 10
22819.9103
 20
36436.8048
  0
VERTEX
  8
LAYER1
 62
     7
  6
CONTINUOUS
 10
23713.7265
 20
36458.8853
  0
VERTEX
  8
LAYER1
 62
     7
  6
CONTINUOUS
 10
24530.2933
 20
36503.0152
  0
VERTEX
  8
LAYER1
 62
     7
  6
CONTINUOUS
 10
25346.8625
 20
36547.1594
  0
VERTEX
  8
LAYER1
 62
     7
  6
CONTINUOUS
 10
26064.1329
 20
36569.2232
  0
VERTEX
  8
LAYER1
 62
     7
  6
CONTINUOUS
 10
26660.0095
 20
36558.1985
  0
VERTEX
  8
LAYER1
 62
     7
  6
CONTINUOUS
 10
27476.5788
 20
36547.1594
  0
VERTEX
  8
LAYER1
 62
     7
  6
CONTINUOUS
 10
28271.0818
 20
36547.1594
  0
VERTEX
  8
LAYER1
 62
     7
  6
CONTINUOUS
 10
28778.6867
 20
36547.1594
  0
VERTEX
  8
LAYER1
 62
     7
  6
CONTINUOUS
 10
29871.1269
 20
36569.2232
  0
VERTEX
  8
LAYER1
 62
     7
  6
CONTINUOUS
 10
30764.9456
 20
36547.1594
  0
VERTEX
  8
LAYER1
 62
     7
  6
CONTINUOUS
 10
31349.7832
 20
36547.1594
  0
VERTEX
  8
LAYER1
 62
     7
  6
CONTINUOUS
 10
32265.6632
 20
36536.1180
  0
VERTEX
  8
LAYER1
 62
     7
  6
CONTINUOUS
 10
33269.8317
 20
36558.1985
  0
VERTEX
  8
LAYER1
 62
     7
  6
CONTINUOUS
 10
34240.8973
 20
36591.3036
  0
VERTEX
  8
LAYER1
 62
     7
  6
CONTINUOUS
 10
35531.9662
 20
36602.3284
  0
VERTEX
  8
LAYER1
 62
     7
  6
CONTINUOUS
 10
36745.7858
 20
36624.4064
  0
VERTEX
  8
LAYER1
 62
     7
  6
CONTINUOUS
 10
37187.1803
 20
36624.4064
  0
SEQEND
  8
LAYER1
  0
POLYLINE
  8
LAYER1
 62
     7
 66
     1
  6
CONTINUOUS
  0
VERTEX
  8
LAYER1
 62
     7
  6
CONTINUOUS
 10
10185.0882
 20
36635.4312
  0
VERTEX
  8
LAYER1
 62
     7
  6
CONTINUOUS
 10
9898.1889
 20
36536.1180
  0
VERTEX
  8
LAYER1
 62
     7
  6
CONTINUOUS
 10
10096.8153
 20
36149.9067
  0
VERTEX
  8
LAYER1
 62
     7
  6
CONTINUOUS
 10
10207.1675
 20
35796.8006
  0
VERTEX
  8
LAYER1
 62
     7
  6
CONTINUOUS
 10
10273.3767
 20
35245.0514
  0
VERTEX
  8
LAYER1
 62
     7
  6
CONTINUOUS
 10
10361.6496
 20
34616.0696
  0
VERTEX
  8
LAYER1
 62
     7
  6
CONTINUOUS
 10
10460.9616
 20
34086.4009
  0
VERTEX
  8
LAYER1
 62
     7
  6
CONTINUOUS
 10
10571.3150
 20
33446.3942
  0
VERTEX
  8
LAYER1
 62
     7
  6
CONTINUOUS
 10
10648.5477
 20
32696.0187
  0
VERTEX
  8
LAYER1
 62
     7
  6
CONTINUOUS
 10
10725.7971
 20
31978.7651
  0
VERTEX
  8
LAYER1
 62
     7
  6
CONTINUOUS
 10
10769.9414
 20
31338.7418
  0
VERTEX
  8
LAYER1
 62
     7
  6
CONTINUOUS
 10
10803.0454
 20
31095.9879
  0
VERTEX
  8
LAYER1
 62
     7
  6
CONTINUOUS
 10
11001.6705
 20
30831.1535
  0
VERTEX
  8
LAYER1
 62
     7
  6
CONTINUOUS
 10
11432.0272
 20
30698.7352
  0
VERTEX
  8
LAYER1
 62
     7
  6
CONTINUOUS
 10
12436.1802
 20
30599.4220
  0
VERTEX
  8
LAYER1
 62
     7
  6
CONTINUOUS
 10
13638.9762
 20
30577.3439
  0
VERTEX
  8
LAYER1
 62
     7
  6
CONTINUOUS
 10
14466.5832
 20
30555.2778
  0
VERTEX
  8
LAYER1
 62
     7
  6
CONTINUOUS
 10
15404.5449
 20
30632.5272
  0
VERTEX
  8
LAYER1
 62
     7
  6
CONTINUOUS
 10
16563.1955
 20
30643.5519
  0
VERTEX
  8
LAYER1
 62
     7
  6
CONTINUOUS
 10
17490.1157
 20
30566.3192
  0
VERTEX
  8
LAYER1
 62
     7
  6
CONTINUOUS
 10
18494.2698
 20
30489.0698
  0
VERTEX
  8
LAYER1
 62
     7
  6
CONTINUOUS
 10
19299.8119
 20
30489.0698
  0
VERTEX
  8
LAYER1
 62
     7
  6
CONTINUOUS
 10
20182.5891
 20
30511.1336
  0
VERTEX
  8
LAYER1
 62
     7
  6
CONTINUOUS
 10
21120.5496
 20
30522.1750
  0
VERTEX
  8
LAYER1
 62
     7
  6
CONTINUOUS
 10
21948.1578
 20
30533.2140
  0
VERTEX
  8
LAYER1
 62
     7
  6
CONTINUOUS
 10
23040.6004
 20
30599.4220
  0
VERTEX
  8
LAYER1
 62
     7
  6
CONTINUOUS
 10
23680.6213
 20
30610.4467
  0
VERTEX
  8
LAYER1
 62
     7
  6
CONTINUOUS
 10
25865.5065
 20
30687.6961
  0
VERTEX
  8
LAYER1
 62
     7
  6
CONTINUOUS
 10
25986.8834
 20
30731.8404
  0
VERTEX
  8
LAYER1
 62
     7
  6
CONTINUOUS
 10
26450.3442
 20
31073.9074
  0
VERTEX
  8
LAYER1
 62
     7
  6
CONTINUOUS
 10
26814.4917
 20
31515.3044
  0
VERTEX
  8
LAYER1
 62
     7
  6
CONTINUOUS
 10
26991.0519
 20
31747.0335
  0
VERTEX
  8
LAYER1
 62
     7
  6
CONTINUOUS
 10
27167.5978
 20
32089.1173
  0
VERTEX
  8
LAYER1
 62
     7
  6
CONTINUOUS
 10
27300.0162
 20
32453.2648
  0
VERTEX
  8
LAYER1
 62
     7
  6
CONTINUOUS
 10
27476.5788
 20
32993.9583
  0
VERTEX
  8
LAYER1
 62
     7
  6
CONTINUOUS
 10
27642.0999
 20
33391.2086
  0
VERTEX
  8
LAYER1
 62
     7
  6
CONTINUOUS
 10
27862.7901
 20
33600.8740
  0
VERTEX
  8
LAYER1
 62
     7
  6
CONTINUOUS
 10
28513.8524
 20
33832.6055
  0
VERTEX
  8
LAYER1
 62
     7
  6
CONTINUOUS
 10
28911.1027
 20
33942.9578
  0
VERTEX
  8
LAYER1
 62
     7
  6
CONTINUOUS
 10
29429.7324
 20
34064.3347
  0
VERTEX
  8
LAYER1
 62
     7
  6
CONTINUOUS
 10
29937.3373
 20
34163.6479
  0
VERTEX
  8
LAYER1
 62
     7
  6
CONTINUOUS
 10
30279.4044
 20
34285.0248
  0
VERTEX
  8
LAYER1
 62
     7
  6
CONTINUOUS
 10
30422.8618
 20
34538.8368
  0
VERTEX
  8
LAYER1
 62
     7
  6
CONTINUOUS
 10
30455.9646
 20
34748.4855
  0
VERTEX
  8
LAYER1
 62
     7
  6
CONTINUOUS
 10
30478.0308
 20
35090.5693
  0
VERTEX
  8
LAYER1
 62
     7
  6
CONTINUOUS
 10
30533.2140
 20
35531.9662
  0
VERTEX
  8
LAYER1
 62
     7
  6
CONTINUOUS
 10
30610.4467
 20
35863.0086
  0
VERTEX
  8
LAYER1
 62
     7
  6
CONTINUOUS
 10
30775.9679
 20
36304.3888
  0
VERTEX
  8
LAYER1
 62
     7
  6
CONTINUOUS
 10
30764.9456
 20
36547.1594
  0
SEQEND
  8
LAYER1
  0
POLYLINE
  8
LAYER1
 62
     7
 66
     1
  6
CONTINUOUS
  0
VERTEX
  8
LAYER1
 62
     7
  6
CONTINUOUS
 10
12171.3459
 20
36635.4312
  0
VERTEX
  8
LAYER1
 62
     7
  6
CONTINUOUS
 10
12403.0762
 20
36503.0152
  0
VERTEX
  8
LAYER1
 62
     7
  6
CONTINUOUS
 10
12623.7818
 20
36282.3251
  0
VERTEX
  8
LAYER1
 62
     7
  6
CONTINUOUS
 10
12932.7449
 20
36061.6349
  0
VERTEX
  8
LAYER1
 62
     7
  6
CONTINUOUS
 10
13539.6630
 20
35863.0086
  0
VERTEX
  8
LAYER1
 62
     7
  6
CONTINUOUS
 10
14036.2277
 20
35807.8229
  0
VERTEX
  8
LAYER1
 62
     7
  6
CONTINUOUS
 10
14643.1446
 20
35796.8006
  0
VERTEX
  8
LAYER1
 62
     7
  6
CONTINUOUS
 10
15161.7743
 20
35807.8229
  0
VERTEX
  8
LAYER1
 62
     7
  6
CONTINUOUS
 10
16033.5268
 20
35829.9034
  0
VERTEX
  8
LAYER1
 62
     7
  6
CONTINUOUS
 10
16949.4056
 20
35896.1114
  0
VERTEX
  8
LAYER1
 62
     7
  6
CONTINUOUS
 10
17832.1828
 20
35918.1775
  0
VERTEX
  8
LAYER1
 62
     7
  6
CONTINUOUS
 10
18869.4564
 20
35851.9672
  0
VERTEX
  8
LAYER1
 62
     7
  6
CONTINUOUS
 10
19608.7905
 20
35807.8229
  0
VERTEX
  8
LAYER1
 62
     7
  6
CONTINUOUS
 10
20690.1941
 20
35741.6150
  0
VERTEX
  8
LAYER1
 62
     7
  6
CONTINUOUS
 10
21275.0317
 20
35741.6150
  0
VERTEX
  8
LAYER1
 62
     7
  6
CONTINUOUS
 10
21859.8861
 20
35752.6564
  0
VERTEX
  8
LAYER1
 62
     7
  6
CONTINUOUS
 10
22488.8679
 20
35807.8229
  0
VERTEX
  8
LAYER1
 62
     7
  6
CONTINUOUS
 10
23007.4952
 20
35929.2166
  0
VERTEX
  8
LAYER1
 62
     7
  6
CONTINUOUS
 10
23437.8507
 20
36006.4493
  0
VERTEX
  8
LAYER1
 62
     7
  6
CONTINUOUS
 10
23768.8955
 20
36083.6987
  0
VERTEX
  8
LAYER1
 62
     7
  6
CONTINUOUS
 10
24122.0016
 20
36271.2837
  0
VERTEX
  8
LAYER1
 62
     7
  6
CONTINUOUS
 10
24530.2933
 20
36503.0152
  0
SEQEND
  8
LAYER1
  0
POLYLINE
  8
LAYER1
 62
     7
 66
     1
  6
HIDDEN
  0
VERTEX
  8
LAYER1
 62
     7
  6
HIDDEN
 10
27862.7901
 20
33600.8740
  0
VERTEX
  8
LAYER1
 62
     7
  6
HIDDEN
 10
27884.8705
 20
33931.9187
  0
VERTEX
  8
LAYER1
 62
     7
  6
HIDDEN
 10
28050.3917
 20
34362.2742
  0
VERTEX
  8
LAYER1
 62
     7
  6
HIDDEN
 10
28260.0404
 20
34792.6298
  0
VERTEX
  8
LAYER1
 62
     7
  6
HIDDEN
 10
28392.4588
 20
35112.6331
  0
VERTEX
  8
LAYER1
 62
     7
  6
HIDDEN
 10
28546.9552
 20
35520.9248
  0
VERTEX
  8
LAYER1
 62
     7
  6
HIDDEN
 10
28602.1241
 20
35840.9281
  0
VERTEX
  8
LAYER1
 62
     7
  6
HIDDEN
 10
28602.1241
 20
36050.5935
  0
VERTEX
  8
LAYER1
 62
     7
  6
HIDDEN
 10
28778.6867
 20
36547.1594
  0
SEQEND
  8
LAYER1
  0
ENDSEC
  0
EOF
