  0
SECTION
  2
HEADER
  9
$ACADVER
  1
AC1004
  9
$EXTMIN
 10
276.5615
 20
1256.0588
  9
$EXTMAX
 10
42060.3859
 20
44680.1561
  9
$LIMMIN
 10
276.5615
 20
1256.0588
  9
$LIMMAX
 10
42060.3859
 20
44680.1561
  9
$INSBASE
 10
0.0
 20
0.0
  9
$VIEWCTR
 10
7.21903
 20
4.5
  9
$VIEWSIZE
 40
9.0
  9
$SNAPMODE
 70
     0
  9
$SNAPUNIT
 10
1.0
 20
1.0
  9
$SNAPBASE
 10
0.0
 20
0.0
  9
$SNAPANG
 50
0.0
  9
$SNAPSTYLE
 70
     0
  9
$SNAPISOPAIR
 70
     0
  9
$GRIDMODE
 70
     0
  9
$GRIDUNIT
 10
0.0
 20
0.0
  9
$ORTHOMODE
 70
     0
  9
$REGENMODE
 70
     1
  9
$FILLMODE
 70
     1
  9
$QTEXTMODE
 70
     0
  9
$DRAGMODE
 70
     2
  9
$LTSCALE
 40
1.0
  9
$OSMODE
 70
     0
  9
$ATTMODE
 70
     1
  9
$TEXTSIZE
 40
0.2
  9
$TRACEWID
 40
0.05
  9
$TEXTSTYLE
  7
STANDARD
  9
$CLAYER
  8
0
  9
$CELTYPE
  6
BYLAYER
  9
$CECOLOR
 62
   256
  9
$DIMSCALE
 40
1.0
  9
$DIMASZ
 40
0.18
  9
$DIMEXO
 40
0.0625
  9
$DIMDLI
 40
0.38
  9
$DIMRND
 40
0.0
  9
$DIMDLE
 40
0.0
  9
$DIMEXE
 40
0.18
  9
$DIMTP
 40
0.0
  9
$DIMTM
 40
0.0
  9
$DIMTXT
 40
0.18
  9
$DIMCEN
 40
0.09
  9
$DIMTSZ
 40
0.0
  9
$DIMTOL
 70
     0
  9
$DIMLIM
 70
     0
  9
$DIMTIH
 70
     1
  9
$DIMTOH
 70
     1
  9
$DIMSE1
 70
     0
  9
$DIMSE2
 70
     0
  9
$DIMTAD
 70
     0
  9
$DIMZIN
 70
     0
  9
$DIMBLK
  1

  9
$DIMASO
 70
     1
  9
$DIMSHO
 70
     0
  9
$DIMPOST
  1

  9
$DIMAPOST
  1

  9
$DIMALT
 70
     0
  9
$DIMALTD
 70
     2
  9
$DIMALTF
 40
25.4
  9
$DIMLFAC
 40
1.0
  9
$LUNITS
 70
     2
  9
$LUPREC
 70
     4
  9
$AXISMODE
 70
     0
  9
$AXISUNIT
 10
0.0
 20
0.0
  9
$SKETCHINC
 40
0.1
  9
$FILLETRAD
 40
0.0
  9
$AUNITS
 70
     0
  9
$AUPREC
 70
     0
  9
$MENU
  1
acad
  9
$ELEVATION
 40
0.0
  9
$THICKNESS
 40
0.0
  9
$VIEWDIR
 10
0.0
 20
0.0
 30
1.0
  9
$LIMCHECK
 70
     0
  9
$BLIPMODE
 70
     1
  9
$CHAMFERA
 40
0.0
  9
$CHAMFERB
 40
0.0
  9
$FASTZOOM
 70
     1
  9
$SKPOLY
 70
     0
  9
$TDCREATE
 40
2447222.5666886573
  9
$TDUPDATE
 40
2447222.5666886573
  9
$TDINDWG
 40
0.0000000000
  9
$TDUSRTIMER
 40
0.0000000000
  9
$USRTIMER
 70
     1
  9
$ANGBASE
 50
0.0
  9
$ANGDIR
 70
     0
  9
$PDMODE
 70
     0
  9
$PDSIZE
 40
0.0
  9
$PLINEWID
 40
0.0
  9
$COORDS
 70
     0
  9
$SPLFRAME
 70
     0
  9
$SPLINESEGS
 70
     8
  9
$ATTDIA
 70
     0
  9
$ATTREQ
 70
     1
  9
$USERI1
 70
     0
  9
$USERI2
 70
     0
  9
$USERI3
 70
     0
  9
$USERI4
 70
     0
  9
$USERI5
 70
     0
  9
$USERR1
 40
0.0
  9
$USERR2
 40
0.0
  9
$USERR3
 40
0.0
  9
$USERR4
 40
0.0
  9
$USERR5
 40
0.0
  0
ENDSEC
  0
SECTION
  2
TABLES
  0
TABLE
  2
LTYPE
 70
     13
  0
LTYPE
  2
CONTINUOUS
 70
    64
  3
Solid line
 72
    65
 73
     0
 40
0.0
  0
LTYPE
  2
DASHED
 70
    64
  3
__ __ __ __ __ __ __ __ __ __ __ __ __ __ __
 72
    65
 73
     2
 40
0.75
 49
0.5
 49
-0.25
  0
LTYPE
  2
HIDDEN
 70
    64
  3
_ _ _ _ _ _ _ _ _ _ _ _ _ _ _ _ _ _ _ _ _ _ _
 72
    65
 73
     2
 40
0.375
 49
0.25
 49
-0.125
  0
LTYPE
  2
CENTER
 70
    64
  3
____ _ ____ _ ____ _ ____ _ ____ _ ____ _ ____
 72
    65
 73
     4
 40
2.0
 49
1.25
 49
-0.25
 49
0.25
 49
-0.25
  0
LTYPE
  2
PHANTOM
 70
    64
  3
_____ _ _ _____ _ _ _____ _ _ _____ _ _ ____
 72
    65
 73
     6
 40
2.5
 49
1.25
 49
-0.25
 49
0.25
 49
-0.25
 49
0.25
 49
-0.25
  0
LTYPE
  2
DOT
 70
    64
  3
...............................................
 72
    65
 73
     2
 40
0.25
 49
0.0
 49
-0.25
  0
LTYPE
  2
DASHDOT
 70
    64
  3
__ . __ . __ . __ . __ . __ . __ . __ . __ . __
 72
    65
 73
     4
 40
1.0
 49
0.5
 49
-0.25
 49
0.0
 49
-0.25
  0
LTYPE
  2
BORDER
 70
    64
  3
__ __ . __ __ . __ __ . __ __ . __ __ . __ __
 72
    65
 73
     6
 40
1.75
 49
0.5
 49
-0.25
 49
0.5
 49
-0.25
 49
0.0
 49
-0.25
  0
LTYPE
  2
DIVIDE
 70
    64
  3
__ . . __ . . __ . . __ . . __ . . __ . . __
 72
    65
 73
     6
 40
1.25
 49
0.5
 49
-0.25
 49
0.0
 49
-0.25
 49
0.0
 49
-0.25
  0
LTYPE
  2
DCTYPE1
 70
    64
  3
__ . . __ . . __ . . __ . . __ . . __ . . __
 72
    65
 73
     8
 40
2.5
 49
0.5
 49
-0.25
 49
0.125
 49
-0.25
 49
0.25
 49
-0.25
 49
0.125
 49
-0.25
  0
LTYPE
  2
DCTYPE2
 70
    64
  3
__ . . __ . . __ . . __ . . __ . . __ . . __
 72
    65
 73
     6
 40
2.05
 49
1.0
 49
-0.3
 49
0.15
 49
-0.15
 49
0.15
 49
-0.3
  0
LTYPE
  2
DCTYPE3
 70
    64
  3
__ . . __ . . __ . . __ . . __ . . __ . . __
 72
    65
 73
     6
 40
2.5
 49
0.8
 49
-0.2
 49
0.8
 49
-0.2
 49
0.3
 49
-0.2
  0
LTYPE
  2
DCTYPE4
 70
    64
  3
__ . . __ . . __ . . __ . . __ . . __ . . __
 72
    65
 73
     10
 40
3.97
 49
1.75
 49
-0.3
 49
0.3
 49
-0.3
 49
0.06
 49
-0.3
 49
0.06
 49
-0.3
 49
0.3
 49
-0.3
  0
ENDTAB
  0
TABLE
  2
LAYER
 70
    153
  0
LAYER
  2
LAYER1
 70
 64
 62
     7
  6
CONTINUOUS
  0
ENDTAB
  0
ENDSEC
  0
SECTION
  2
BLOCKS
  0
ENDSEC
  0
SECTION
  2
ENTITIES
  0
POLYLINE
  8
LAYER1
 62
     7
 66
     1
  6
CONTINUOUS
  0
VERTEX
  8
LAYER1
 62
     7
  6
CONTINUOUS
 10
13638.9762
 20
36668.5340
  0
VERTEX
  8
LAYER1
 62
     7
  6
CONTINUOUS
 10
13616.9112
 20
37242.3493
  0
VERTEX
  8
LAYER1
 62
     7
  6
CONTINUOUS
 10
13638.9762
 20
37937.5392
  0
VERTEX
  8
LAYER1
 62
     7
  6
CONTINUOUS
 10
13672.0802
 20
38754.1227
  0
VERTEX
  8
LAYER1
 62
     7
  6
CONTINUOUS
 10
13749.3284
 20
39151.3754
  0
VERTEX
  8
LAYER1
 62
     7
  6
CONTINUOUS
 10
14069.3317
 20
39647.9246
  0
VERTEX
  8
LAYER1
 62
     7
  6
CONTINUOUS
 10
14643.1446
 20
40166.5709
  0
VERTEX
  8
LAYER1
 62
     7
  6
CONTINUOUS
 10
15172.8145
 20
40751.4038
  0
VERTEX
  8
LAYER1
 62
     7
  6
CONTINUOUS
 10
15481.7776
 20
41270.0502
  0
VERTEX
  8
LAYER1
 62
     7
  6
CONTINUOUS
 10
15945.2371
 20
41965.2258
  0
VERTEX
  8
LAYER1
 62
     7
  6
CONTINUOUS
 10
16441.8018
 20
42505.9359
  0
VERTEX
  8
LAYER1
 62
     7
  6
CONTINUOUS
 10
17026.6550
 20
43112.8516
  0
VERTEX
  8
LAYER1
 62
     7
  6
CONTINUOUS
 10
17743.9110
 20
43653.5474
  0
VERTEX
  8
LAYER1
 62
     7
  6
CONTINUOUS
 10
18339.7877
 20
43951.4989
  0
VERTEX
  8
LAYER1
 62
     7
  6
CONTINUOUS
 10
19266.7091
 20
44161.1524
  0
VERTEX
  8
LAYER1
 62
     7
  6
CONTINUOUS
 10
20083.2759
 20
44205.2942
  0
VERTEX
  8
LAYER1
 62
     7
  6
CONTINUOUS
 10
20910.8842
 20
44094.9420
  0
VERTEX
  8
LAYER1
 62
     7
  6
CONTINUOUS
 10
21606.0741
 20
43808.0415
  0
VERTEX
  8
LAYER1
 62
     7
  6
CONTINUOUS
 10
22444.7213
 20
43344.5832
  0
VERTEX
  8
LAYER1
 62
     7
  6
CONTINUOUS
 10
23272.3296
 20
42748.7041
  0
VERTEX
  8
LAYER1
 62
     7
  6
CONTINUOUS
 10
24011.6660
 20
42207.9940
  0
VERTEX
  8
LAYER1
 62
     7
  6
CONTINUOUS
 10
24695.8145
 20
41689.3667
  0
VERTEX
  8
LAYER1
 62
     7
  6
CONTINUOUS
 10
25291.6936
 20
41259.0088
  0
VERTEX
  8
LAYER1
 62
     7
  6
CONTINUOUS
 10
25887.5703
 20
40696.2397
  0
VERTEX
  8
LAYER1
 62
     7
  6
CONTINUOUS
 10
26384.1362
 20
40166.5709
  0
VERTEX
  8
LAYER1
 62
     7
  6
CONTINUOUS
 10
26682.0733
 20
39482.4177
  0
VERTEX
  8
LAYER1
 62
     7
  6
CONTINUOUS
 10
26836.5555
 20
38919.6295
  0
VERTEX
  8
LAYER1
 62
     7
  6
CONTINUOUS
 10
26803.4526
 20
37838.2236
  0
VERTEX
  8
LAYER1
 62
     7
  6
CONTINUOUS
 10
26781.3865
 20
37407.8705
  0
VERTEX
  8
LAYER1
 62
     7
  6
CONTINUOUS
 10
26803.4526
 20
36458.8853
  0
VERTEX
  8
LAYER1
 62
     7
  6
CONTINUOUS
 10
26781.3865
 20
35708.5264
  0
VERTEX
  8
LAYER1
 62
     7
  6
CONTINUOUS
 10
26737.2423
 20
34947.1119
  0
VERTEX
  8
LAYER1
 62
     7
  6
CONTINUOUS
 10
26671.0343
 20
34428.4799
  0
VERTEX
  8
LAYER1
 62
     7
  6
CONTINUOUS
 10
26450.3442
 20
33700.1848
  0
VERTEX
  8
LAYER1
 62
     7
  6
CONTINUOUS
 10
26141.3656
 20
33104.3105
  0
VERTEX
  8
LAYER1
 62
     7
  6
CONTINUOUS
 10
25688.9439
 20
32364.9740
  0
VERTEX
  8
LAYER1
 62
     7
  6
CONTINUOUS
 10
25225.4856
 20
31868.4105
  0
VERTEX
  8
LAYER1
 62
     7
  6
CONTINUOUS
 10
24817.2081
 20
31570.4876
  0
VERTEX
  8
LAYER1
 62
     7
  6
CONTINUOUS
 10
23967.5218
 20
31029.7775
  0
VERTEX
  8
LAYER1
 62
     7
  6
CONTINUOUS
 10
23437.8507
 20
30467.0036
  0
VERTEX
  8
LAYER1
 62
     7
  6
CONTINUOUS
 10
22808.8689
 20
29937.3349
  0
VERTEX
  8
LAYER1
 62
     7
  6
CONTINUOUS
 10
22179.8870
 20
29540.0822
  0
VERTEX
  8
LAYER1
 62
     7
  6
CONTINUOUS
 10
21032.2778
 20
29220.0813
  0
VERTEX
  8
LAYER1
 62
     7
  6
CONTINUOUS
 10
19575.6877
 20
29286.2726
  0
VERTEX
  8
LAYER1
 62
     7
  6
CONTINUOUS
 10
18737.0392
 20
29540.0822
  0
VERTEX
  8
LAYER1
 62
     7
  6
CONTINUOUS
 10
18185.3068
 20
29650.4201
  0
VERTEX
  8
LAYER1
 62
     7
  6
CONTINUOUS
 10
17490.1157
 20
30047.6728
  0
VERTEX
  8
LAYER1
 62
     7
  6
CONTINUOUS
 10
16772.8454
 20
30489.0674
  0
VERTEX
  8
LAYER1
 62
     7
  6
CONTINUOUS
 10
16188.0077
 20
31062.8827
  0
VERTEX
  8
LAYER1
 62
     7
  6
CONTINUOUS
 10
15625.2350
 20
31647.7204
  0
VERTEX
  8
LAYER1
 62
     7
  6
CONTINUOUS
 10
14952.1089
 20
32309.8051
  0
VERTEX
  8
LAYER1
 62
     7
  6
CONTINUOUS
 10
14356.2310
 20
32905.6841
  0
VERTEX
  8
LAYER1
 62
     7
  6
CONTINUOUS
 10
14124.5007
 20
33280.8731
  0
VERTEX
  8
LAYER1
 62
     7
  6
CONTINUOUS
 10
13848.6416
 20
33920.8749
  0
VERTEX
  8
LAYER1
 62
     7
  6
CONTINUOUS
 10
13583.8072
 20
34417.4432
  0
VERTEX
  8
LAYER1
 62
     7
  6
CONTINUOUS
 10
13307.9327
 20
35090.5693
  0
VERTEX
  8
LAYER1
 62
     7
  6
CONTINUOUS
 10
13263.7884
 20
35697.4850
  0
VERTEX
  8
LAYER1
 62
     7
  6
CONTINUOUS
 10
13385.1809
 20
36315.4279
  0
VERTEX
  8
LAYER1
 62
     7
  6
CONTINUOUS
 10
13528.6228
 20
36712.6806
  0
VERTEX
  8
LAYER1
 62
     7
  6
CONTINUOUS
 10
13528.6228
 20
36712.6806
  0
SEQEND
  8
LAYER1
  0
POLYLINE
  8
LAYER1
 62
     7
 66
     1
  6
CONTINUOUS
  0
VERTEX
  8
LAYER1
 62
     7
  6
CONTINUOUS
 10
14080.3719
 20
36624.4064
  0
VERTEX
  8
LAYER1
 62
     7
  6
CONTINUOUS
 10
14091.3967
 20
36823.0328
  0
VERTEX
  8
LAYER1
 62
     7
  6
CONTINUOUS
 10
14146.5811
 20
37518.2227
  0
VERTEX
  8
LAYER1
 62
     7
  6
CONTINUOUS
 10
14201.7489
 20
38136.1655
  0
VERTEX
  8
LAYER1
 62
     7
  6
CONTINUOUS
 10
14444.5195
 20
38743.0813
  0
VERTEX
  8
LAYER1
 62
     7
  6
CONTINUOUS
 10
14863.8360
 20
39438.2711
  0
VERTEX
  8
LAYER1
 62
     7
  6
CONTINUOUS
 10
15239.0225
 20
39945.8618
  0
VERTEX
  8
LAYER1
 62
     7
  6
CONTINUOUS
 10
15868.0044
 20
40652.0930
  0
VERTEX
  8
LAYER1
 62
     7
  6
CONTINUOUS
 10
16430.7783
 20
41137.6199
  0
VERTEX
  8
LAYER1
 62
     7
  6
CONTINUOUS
 10
16927.3430
 20
41512.8041
  0
VERTEX
  8
LAYER1
 62
     7
  6
CONTINUOUS
 10
17434.9312
 20
41722.4719
  0
VERTEX
  8
LAYER1
 62
     7
  6
CONTINUOUS
 10
18350.8279
 20
41854.8878
  0
VERTEX
  8
LAYER1
 62
     7
  6
CONTINUOUS
 10
18968.7696
 20
41899.0345
  0
VERTEX
  8
LAYER1
 62
     7
  6
CONTINUOUS
 10
19752.2336
 20
41899.0345
  0
VERTEX
  8
LAYER1
 62
     7
  6
CONTINUOUS
 10
20326.0465
 20
41887.9930
  0
VERTEX
  8
LAYER1
 62
     7
  6
CONTINUOUS
 10
20943.9894
 20
41821.7827
  0
VERTEX
  8
LAYER1
 62
     7
  6
CONTINUOUS
 10
21561.9465
 20
41556.9507
  0
VERTEX
  8
LAYER1
 62
     7
  6
CONTINUOUS
 10
22235.0559
 20
41027.2820
  0
VERTEX
  8
LAYER1
 62
     7
  6
CONTINUOUS
 10
22753.7023
 20
40497.6133
  0
VERTEX
  8
LAYER1
 62
     7
  6
CONTINUOUS
 10
23448.8922
 20
39791.3820
  0
VERTEX
  8
LAYER1
 62
     7
  6
CONTINUOUS
 10
24044.7688
 20
39074.1236
  0
VERTEX
  8
LAYER1
 62
     7
  6
CONTINUOUS
 10
24806.1691
 20
38290.6453
  0
VERTEX
  8
LAYER1
 62
     7
  6
CONTINUOUS
 10
25225.4856
 20
37683.7439
  0
VERTEX
  8
LAYER1
 62
     7
  6
CONTINUOUS
 10
25391.0068
 20
37319.5963
  0
VERTEX
  8
LAYER1
 62
     7
  6
CONTINUOUS
 10
25402.0458
 20
36591.3013
  0
VERTEX
  8
LAYER1
 62
     7
  6
CONTINUOUS
 10
25203.4194
 20
35962.3218
  0
VERTEX
  8
LAYER1
 62
     7
  6
CONTINUOUS
 10
24784.0886
 20
35145.7383
  0
VERTEX
  8
LAYER1
 62
     7
  6
CONTINUOUS
 10
24353.7331
 20
34417.4432
  0
VERTEX
  8
LAYER1
 62
     7
  6
CONTINUOUS
 10
23890.2724
 20
33700.1848
  0
VERTEX
  8
LAYER1
 62
     7
  6
CONTINUOUS
 10
23526.1249
 20
33258.7902
  0
VERTEX
  8
LAYER1
 62
     7
  6
CONTINUOUS
 10
22875.0792
 20
32651.8888
  0
VERTEX
  8
LAYER1
 62
     7
  6
CONTINUOUS
 10
22257.1364
 20
32122.2201
  0
VERTEX
  8
LAYER1
 62
     7
  6
CONTINUOUS
 10
21462.6333
 20
31691.8622
  0
VERTEX
  8
LAYER1
 62
     7
  6
CONTINUOUS
 10
20811.5710
 20
31382.8836
  0
VERTEX
  8
LAYER1
 62
     7
  6
CONTINUOUS
 10
20171.5644
 20
31129.0883
  0
VERTEX
  8
LAYER1
 62
     7
  6
CONTINUOUS
 10
19410.1653
 20
30919.4253
  0
VERTEX
  8
LAYER1
 62
     7
  6
CONTINUOUS
 10
18781.1835
 20
30930.4667
  0
VERTEX
  8
LAYER1
 62
     7
  6
CONTINUOUS
 10
17975.6402
 20
31040.8189
  0
VERTEX
  8
LAYER1
 62
     7
  6
CONTINUOUS
 10
17258.3853
 20
31327.7147
  0
VERTEX
  8
LAYER1
 62
     7
  6
CONTINUOUS
 10
16629.4035
 20
31780.1363
  0
VERTEX
  8
LAYER1
 62
     7
  6
CONTINUOUS
 10
15868.0044
 20
32265.6632
  0
VERTEX
  8
LAYER1
 62
     7
  6
CONTINUOUS
 10
15360.3995
 20
32850.5152
  0
VERTEX
  8
LAYER1
 62
     7
  6
CONTINUOUS
 10
15106.6053
 20
33556.7465
  0
VERTEX
  8
LAYER1
 62
     7
  6
CONTINUOUS
 10
14775.5630
 20
34274.0001
  0
VERTEX
  8
LAYER1
 62
     7
  6
CONTINUOUS
 10
14587.9614
 20
34704.3580
  0
VERTEX
  8
LAYER1
 62
     7
  6
CONTINUOUS
 10
14389.3350
 20
35399.5479
  0
VERTEX
  8
LAYER1
 62
     7
  6
CONTINUOUS
 10
14301.0621
 20
35818.8644
  0
VERTEX
  8
LAYER1
 62
     7
  6
CONTINUOUS
 10
14179.6851
 20
36205.0757
  0
VERTEX
  8
LAYER1
 62
     7
  6
CONTINUOUS
 10
14080.3719
 20
36624.4064
  0
SEQEND
  8
LAYER1
  0
POLYLINE
  8
LAYER1
 62
     7
 66
     1
  6
CONTINUOUS
  0
VERTEX
  8
LAYER1
 62
     7
  6
CONTINUOUS
 10
839.3348
 20
12577.7326
  0
VERTEX
  8
LAYER1
 62
     7
  6
CONTINUOUS
 10
1170.3779
 20
12511.5246
  0
VERTEX
  8
LAYER1
 62
     7
  6
CONTINUOUS
 10
1711.0868
 20
12467.3959
  0
VERTEX
  8
LAYER1
 62
     7
  6
CONTINUOUS
 10
2295.9245
 20
12478.4195
  0
VERTEX
  8
LAYER1
 62
     7
  6
CONTINUOUS
 10
2902.8417
 20
12500.4999
  0
VERTEX
  8
LAYER1
 62
     7
  6
CONTINUOUS
 10
3995.2843
 20
12500.4999
  0
VERTEX
  8
LAYER1
 62
     7
  6
CONTINUOUS
 10
4911.1649
 20
12489.4597
  0
VERTEX
  8
LAYER1
 62
     7
  6
CONTINUOUS
 10
5584.2910
 20
12489.4597
  0
VERTEX
  8
LAYER1
 62
     7
  6
CONTINUOUS
 10
6389.8349
 20
12511.5246
  0
VERTEX
  8
LAYER1
 62
     7
  6
CONTINUOUS
 10
7294.6752
 20
12566.7091
  0
VERTEX
  8
LAYER1
 62
     7
  6
CONTINUOUS
 10
8298.8449
 20
12588.7729
  0
VERTEX
  8
LAYER1
 62
     7
  6
CONTINUOUS
 10
9314.0381
 20
12610.8378
  0
VERTEX
  8
LAYER1
 62
     7
  6
CONTINUOUS
 10
10119.5819
 20
12632.9171
  0
VERTEX
  8
LAYER1
 62
     7
  6
CONTINUOUS
 10
11013.3982
 20
12632.9171
  0
VERTEX
  8
LAYER1
 62
     7
  6
CONTINUOUS
 10
11708.5880
 20
12643.9418
  0
VERTEX
  8
LAYER1
 62
     7
  6
CONTINUOUS
 10
12392.7389
 20
12632.9171
  0
VERTEX
  8
LAYER1
 62
     7
  6
CONTINUOUS
 10
13319.6603
 20
12577.7326
  0
VERTEX
  8
LAYER1
 62
     7
  6
CONTINUOUS
 10
13738.9911
 20
12566.7091
  0
VERTEX
  8
LAYER1
 62
     7
  6
CONTINUOUS
 10
14081.0594
 20
12566.7091
  0
SEQEND
  8
LAYER1
  0
POLYLINE
  8
LAYER1
 62
     7
 66
     1
  6
CONTINUOUS
  0
VERTEX
  8
LAYER1
 62
     7
  6
CONTINUOUS
 10
839.3348
 20
12577.7326
  0
VERTEX
  8
LAYER1
 62
     7
  6
CONTINUOUS
 10
817.2705
 20
12456.3557
  0
VERTEX
  8
LAYER1
 62
     7
  6
CONTINUOUS
 10
728.9975
 20
11838.4140
  0
VERTEX
  8
LAYER1
 62
     7
  6
CONTINUOUS
 10
695.8932
 20
10988.7265
  0
VERTEX
  8
LAYER1
 62
     7
  6
CONTINUOUS
 10
541.3960
 20
9432.8226
  0
VERTEX
  8
LAYER1
 62
     7
  6
CONTINUOUS
 10
453.1230
 20
8605.2156
  0
VERTEX
  8
LAYER1
 62
     7
  6
CONTINUOUS
 10
320.7058
 20
7899.0004
  0
VERTEX
  8
LAYER1
 62
     7
  6
CONTINUOUS
 10
276.5615
 20
7281.0432
  0
VERTEX
  8
LAYER1
 62
     7
  6
CONTINUOUS
 10
320.7058
 20
6486.5390
  0
VERTEX
  8
LAYER1
 62
     7
  6
CONTINUOUS
 10
408.9788
 20
5647.9078
  0
VERTEX
  8
LAYER1
 62
     7
  6
CONTINUOUS
 10
519.3317
 20
4831.3243
  0
VERTEX
  8
LAYER1
 62
     7
  6
CONTINUOUS
 10
618.6446
 20
4191.3180
  0
VERTEX
  8
LAYER1
 62
     7
  6
CONTINUOUS
 10
740.0219
 20
3385.7747
  0
VERTEX
  8
LAYER1
 62
     7
  6
CONTINUOUS
 10
883.4791
 20
2845.0658
  0
VERTEX
  8
LAYER1
 62
     7
  6
CONTINUOUS
 10
1060.0406
 20
2304.3724
  0
VERTEX
  8
LAYER1
 62
     7
  6
CONTINUOUS
 10
1247.6265
 20
1851.9364
  0
VERTEX
  8
LAYER1
 62
     7
  6
CONTINUOUS
 10
1335.8995
 20
1697.4547
  0
VERTEX
  8
LAYER1
 62
     7
  6
CONTINUOUS
 10
1931.7771
 20
1587.1019
  0
VERTEX
  8
LAYER1
 62
     7
  6
CONTINUOUS
 10
2626.9674
 20
1565.0375
  0
VERTEX
  8
LAYER1
 62
     7
  6
CONTINUOUS
 10
3112.5077
 20
1576.0774
  0
VERTEX
  8
LAYER1
 62
     7
  6
CONTINUOUS
 10
3940.1153
 20
1587.1019
  0
VERTEX
  8
LAYER1
 62
     7
  6
CONTINUOUS
 10
4635.3058
 20
1598.1418
  0
VERTEX
  8
LAYER1
 62
     7
  6
CONTINUOUS
 10
5275.3124
 20
1642.2862
  0
VERTEX
  8
LAYER1
 62
     7
  6
CONTINUOUS
 10
6290.5217
 20
1653.3105
  0
VERTEX
  8
LAYER1
 62
     7
  6
CONTINUOUS
 10
7085.0253
 20
1620.2062
  0
VERTEX
  8
LAYER1
 62
     7
  6
CONTINUOUS
 10
7989.8657
 20
1598.1418
  0
VERTEX
  8
LAYER1
 62
     7
  6
CONTINUOUS
 10
8607.8235
 20
1587.1019
  0
VERTEX
  8
LAYER1
 62
     7
  6
CONTINUOUS
 10
9115.4123
 20
1609.1817
  0
VERTEX
  8
LAYER1
 62
     7
  6
CONTINUOUS
 10
9810.6028
 20
1631.2461
  0
VERTEX
  8
LAYER1
 62
     7
  6
CONTINUOUS
 10
10406.4801
 20
1653.3105
  0
VERTEX
  8
LAYER1
 62
     7
  6
CONTINUOUS
 10
10803.7328
 20
1675.3905
  0
VERTEX
  8
LAYER1
 62
     7
  6
CONTINUOUS
 10
11521.0031
 20
1719.5191
  0
VERTEX
  8
LAYER1
 62
     7
  6
CONTINUOUS
 10
12172.0487
 20
1774.7034
  0
VERTEX
  8
LAYER1
 62
     7
  6
CONTINUOUS
 10
12425.8441
 20
1796.7677
  0
VERTEX
  8
LAYER1
 62
     7
  6
CONTINUOUS
 10
12613.4445
 20
1851.9364
  0
VERTEX
  8
LAYER1
 62
     7
  6
CONTINUOUS
 10
12856.1996
 20
2072.6421
  0
VERTEX
  8
LAYER1
 62
     7
  6
CONTINUOUS
 10
13121.0339
 20
2723.6882
  0
VERTEX
  8
LAYER1
 62
     7
  6
CONTINUOUS
 10
13330.6993
 20
3187.1487
  0
VERTEX
  8
LAYER1
 62
     7
  6
CONTINUOUS
 10
13529.3257
 20
3584.4005
  0
VERTEX
  8
LAYER1
 62
     7
  6
CONTINUOUS
 10
13772.0963
 20
4213.3824
  0
VERTEX
  8
LAYER1
 62
     7
  6
CONTINUOUS
 10
14014.8502
 20
4754.0913
  0
VERTEX
  8
LAYER1
 62
     7
  6
CONTINUOUS
 10
14169.3478
 20
5272.7201
  0
VERTEX
  8
LAYER1
 62
     7
  6
CONTINUOUS
 10
14290.7247
 20
5813.4290
  0
VERTEX
  8
LAYER1
 62
     7
  6
CONTINUOUS
 10
14378.9977
 20
6321.0184
  0
VERTEX
  8
LAYER1
 62
     7
  6
CONTINUOUS
 10
14445.2069
 20
6961.0399
  0
VERTEX
  8
LAYER1
 62
     7
  6
CONTINUOUS
 10
14500.3901
 20
7391.3961
  0
VERTEX
  8
LAYER1
 62
     7
  6
CONTINUOUS
 10
14555.5591
 20
7876.9211
  0
VERTEX
  8
LAYER1
 62
     7
  6
CONTINUOUS
 10
14566.5993
 20
8715.5684
  0
VERTEX
  8
LAYER1
 62
     7
  6
CONTINUOUS
 10
14533.4953
 20
9112.8205
  0
VERTEX
  8
LAYER1
 62
     7
  6
CONTINUOUS
 10
14500.3901
 20
9697.6582
  0
VERTEX
  8
LAYER1
 62
     7
  6
CONTINUOUS
 10
14467.2861
 20
10128.0143
  0
VERTEX
  8
LAYER1
 62
     7
  6
CONTINUOUS
 10
14445.2069
 20
10635.6180
  0
VERTEX
  8
LAYER1
 62
     7
  6
CONTINUOUS
 10
14367.9730
 20
11187.3517
  0
VERTEX
  8
LAYER1
 62
     7
  6
CONTINUOUS
 10
14312.8052
 20
11683.9164
  0
VERTEX
  8
LAYER1
 62
     7
  6
CONTINUOUS
 10
14257.6207
 20
12114.2731
  0
VERTEX
  8
LAYER1
 62
     7
  6
CONTINUOUS
 10
14224.5168
 20
12412.2115
  0
VERTEX
  8
LAYER1
 62
     7
  6
CONTINUOUS
 10
14081.0594
 20
12566.7091
  0
SEQEND
  8
LAYER1
  0
POLYLINE
  8
LAYER1
 62
     7
 66
     1
  6
CONTINUOUS
  0
VERTEX
  8
LAYER1
 62
     7
  6
CONTINUOUS
 10
519.3317
 20
4831.3243
  0
VERTEX
  8
LAYER1
 62
     7
  6
CONTINUOUS
 10
740.0219
 20
4632.6985
  0
VERTEX
  8
LAYER1
 62
     7
  6
CONTINUOUS
 10
1258.6665
 20
4820.2999
  0
VERTEX
  8
LAYER1
 62
     7
  6
CONTINUOUS
 10
1689.0225
 20
5063.0547
  0
VERTEX
  8
LAYER1
 62
     7
  6
CONTINUOUS
 10
2461.4460
 20
5526.5148
  0
VERTEX
  8
LAYER1
 62
     7
  6
CONTINUOUS
 10
2980.0905
 20
5846.5336
  0
VERTEX
  8
LAYER1
 62
     7
  6
CONTINUOUS
 10
3366.3024
 20
6144.4725
  0
VERTEX
  8
LAYER1
 62
     7
  6
CONTINUOUS
 10
3895.9711
 20
6641.0372
  0
VERTEX
  8
LAYER1
 62
     7
  6
CONTINUOUS
 10
4260.1187
 20
7027.2485
  0
VERTEX
  8
LAYER1
 62
     7
  6
CONTINUOUS
 10
4767.7230
 20
7490.7092
  0
VERTEX
  8
LAYER1
 62
     7
  6
CONTINUOUS
 10
5120.8309
 20
7887.9608
  0
VERTEX
  8
LAYER1
 62
     7
  6
CONTINUOUS
 10
5341.5210
 20
8230.0439
  0
VERTEX
  8
LAYER1
 62
     7
  6
CONTINUOUS
 10
5959.4788
 20
8439.6938
  0
VERTEX
  8
LAYER1
 62
     7
  6
CONTINUOUS
 10
6875.3594
 20
8494.8783
  0
VERTEX
  8
LAYER1
 62
     7
  6
CONTINUOUS
 10
7791.2400
 20
8527.9829
  0
VERTEX
  8
LAYER1
 62
     7
  6
CONTINUOUS
 10
8596.7832
 20
8550.0472
  0
VERTEX
  8
LAYER1
 62
     7
  6
CONTINUOUS
 10
9424.3915
 20
8550.0472
  0
VERTEX
  8
LAYER1
 62
     7
  6
CONTINUOUS
 10
10704.4196
 20
8483.8386
  0
VERTEX
  8
LAYER1
 62
     7
  6
CONTINUOUS
 10
11697.5490
 20
8461.7743
  0
VERTEX
  8
LAYER1
 62
     7
  6
CONTINUOUS
 10
12414.8193
 20
8450.7341
  0
VERTEX
  8
LAYER1
 62
     7
  6
CONTINUOUS
 10
12701.7174
 20
8450.7341
  0
VERTEX
  8
LAYER1
 62
     7
  6
CONTINUOUS
 10
12900.3438
 20
8031.4182
  0
VERTEX
  8
LAYER1
 62
     7
  6
CONTINUOUS
 10
13054.8259
 20
7402.4363
  0
VERTEX
  8
LAYER1
 62
     7
  6
CONTINUOUS
 10
13275.5316
 20
6674.1412
  0
VERTEX
  8
LAYER1
 62
     7
  6
CONTINUOUS
 10
13518.2855
 20
6034.1197
  0
VERTEX
  8
LAYER1
 62
     7
  6
CONTINUOUS
 10
13617.5986
 20
5747.2204
  0
VERTEX
  8
LAYER1
 62
     7
  6
CONTINUOUS
 10
13761.0560
 20
5383.0735
  0
VERTEX
  8
LAYER1
 62
     7
  6
CONTINUOUS
 10
14014.8502
 20
4754.0913
  0
SEQEND
  8
LAYER1
  0
POLYLINE
  8
LAYER1
 62
     7
 66
     1
  6
CONTINUOUS
  0
VERTEX
  8
LAYER1
 62
     7
  6
CONTINUOUS
 10
26059.9631
 20
12522.5649
  0
VERTEX
  8
LAYER1
 62
     7
  6
CONTINUOUS
 10
26633.7761
 20
12456.3557
  0
VERTEX
  8
LAYER1
 62
     7
  6
CONTINUOUS
 10
27891.7398
 20
12445.3155
  0
VERTEX
  8
LAYER1
 62
     7
  6
CONTINUOUS
 10
28917.9744
 20
12522.5649
  0
VERTEX
  8
LAYER1
 62
     7
  6
CONTINUOUS
 10
30065.5836
 20
12566.7091
  0
VERTEX
  8
LAYER1
 62
     7
  6
CONTINUOUS
 10
31091.8182
 20
12621.8769
  0
VERTEX
  8
LAYER1
 62
     7
  6
CONTINUOUS
 10
32382.8871
 20
12621.8769
  0
VERTEX
  8
LAYER1
 62
     7
  6
CONTINUOUS
 10
33696.0341
 20
12599.8131
  0
VERTEX
  8
LAYER1
 62
     7
  6
CONTINUOUS
 10
35042.2720
 20
12599.8131
  0
VERTEX
  8
LAYER1
 62
     7
  6
CONTINUOUS
 10
37646.4713
 20
12588.7729
  0
VERTEX
  8
LAYER1
 62
     7
  6
CONTINUOUS
 10
38926.4989
 20
12643.9418
  0
VERTEX
  8
LAYER1
 62
     7
  6
CONTINUOUS
 10
39831.3565
 20
12610.8378
  0
VERTEX
  8
LAYER1
 62
     7
  6
CONTINUOUS
 10
40791.3807
 20
12588.7729
  0
VERTEX
  8
LAYER1
 62
     7
  6
CONTINUOUS
 10
41298.9857
 20
12566.7091
  0
VERTEX
  8
LAYER1
 62
     7
  6
CONTINUOUS
 10
41718.3021
 20
12533.6039
  0
VERTEX
  8
LAYER1
 62
     7
  6
CONTINUOUS
 10
42027.2807
 20
12489.4597
  0
SEQEND
  8
LAYER1
  0
POLYLINE
  8
LAYER1
 62
     7
 66
     1
  6
CONTINUOUS
  0
VERTEX
  8
LAYER1
 62
     7
  6
CONTINUOUS
 10
26059.9631
 20
12522.5649
  0
VERTEX
  8
LAYER1
 62
     7
  6
CONTINUOUS
 10
26004.7942
 20
12489.4597
  0
VERTEX
  8
LAYER1
 62
     7
  6
CONTINUOUS
 10
25861.3368
 20
11750.1256
  0
VERTEX
  8
LAYER1
 62
     7
  6
CONTINUOUS
 10
25728.9208
 20
10845.2846
  0
VERTEX
  8
LAYER1
 62
     7
  6
CONTINUOUS
 10
25640.6466
 20
9896.2839
  0
VERTEX
  8
LAYER1
 62
     7
  6
CONTINUOUS
 10
25629.6076
 20
8958.3390
  0
VERTEX
  8
LAYER1
 62
     7
  6
CONTINUOUS
 10
25695.8156
 20
8009.3383
  0
VERTEX
  8
LAYER1
 62
     7
  6
CONTINUOUS
 10
25784.0897
 20
6983.1043
  0
VERTEX
  8
LAYER1
 62
     7
  6
CONTINUOUS
 10
25894.4420
 20
6056.1835
  0
VERTEX
  8
LAYER1
 62
     7
  6
CONTINUOUS
 10
26126.1711
 20
5228.5758
  0
VERTEX
  8
LAYER1
 62
     7
  6
CONTINUOUS
 10
26501.3601
 20
4478.2167
  0
VERTEX
  8
LAYER1
 62
     7
  6
CONTINUOUS
 10
27008.9626
 20
3727.8576
  0
VERTEX
  8
LAYER1
 62
     7
  6
CONTINUOUS
 10
27284.8217
 20
3286.4615
  0
VERTEX
  8
LAYER1
 62
     7
  6
CONTINUOUS
 10
27759.3238
 20
2657.4797
  0
VERTEX
  8
LAYER1
 62
     7
  6
CONTINUOUS
 10
27980.0140
 20
2359.5410
  0
VERTEX
  8
LAYER1
 62
     7
  6
CONTINUOUS
 10
28322.0953
 20
1929.1849
  0
VERTEX
  8
LAYER1
 62
     7
  6
CONTINUOUS
 10
28586.9297
 20
1642.2862
  0
VERTEX
  8
LAYER1
 62
     7
  6
CONTINUOUS
 10
29094.5203
 20
1465.7246
  0
VERTEX
  8
LAYER1
 62
     7
  6
CONTINUOUS
 10
30054.5445
 20
1399.5159
  0
VERTEX
  8
LAYER1
 62
     7
  6
CONTINUOUS
 10
31147.0014
 20
1344.3472
  0
VERTEX
  8
LAYER1
 62
     7
  6
CONTINUOUS
 10
32371.8457
 20
1256.0588
  0
VERTEX
  8
LAYER1
 62
     7
  6
CONTINUOUS
 10
33651.8899
 20
1322.2674
  0
VERTEX
  8
LAYER1
 62
     7
  6
CONTINUOUS
 10
34678.1245
 20
1421.5803
  0
VERTEX
  8
LAYER1
 62
     7
  6
CONTINUOUS
 10
35781.5895
 20
1454.6846
  0
VERTEX
  8
LAYER1
 62
     7
  6
CONTINUOUS
 10
36697.4861
 20
1476.7646
  0
VERTEX
  8
LAYER1
 62
     7
  6
CONTINUOUS
 10
37558.1996
 20
1454.6846
  0
VERTEX
  8
LAYER1
 62
     7
  6
CONTINUOUS
 10
38485.1186
 20
1476.7646
  0
VERTEX
  8
LAYER1
 62
     7
  6
CONTINUOUS
 10
39467.2090
 20
1509.8689
  0
VERTEX
  8
LAYER1
 62
     7
  6
CONTINUOUS
 10
40085.1494
 20
1553.9976
  0
VERTEX
  8
LAYER1
 62
     7
  6
CONTINUOUS
 10
40427.2332
 20
1697.4547
  0
VERTEX
  8
LAYER1
 62
     7
  6
CONTINUOUS
 10
40802.4221
 20
2304.3724
  0
VERTEX
  8
LAYER1
 62
     7
  6
CONTINUOUS
 10
41023.1123
 20
3120.9401
  0
VERTEX
  8
LAYER1
 62
     7
  6
CONTINUOUS
 10
41199.6749
 20
3749.9219
  0
VERTEX
  8
LAYER1
 62
     7
  6
CONTINUOUS
 10
41486.5706
 20
4511.3210
  0
VERTEX
  8
LAYER1
 62
     7
  6
CONTINUOUS
 10
41685.1970
 20
4963.7415
  0
VERTEX
  8
LAYER1
 62
     7
  6
CONTINUOUS
 10
41762.4440
 20
5824.4537
  0
VERTEX
  8
LAYER1
 62
     7
  6
CONTINUOUS
 10
41817.6129
 20
6431.3712
  0
VERTEX
  8
LAYER1
 62
     7
  6
CONTINUOUS
 10
41839.6815
 20
7181.7301
  0
VERTEX
  8
LAYER1
 62
     7
  6
CONTINUOUS
 10
41883.8233
 20
7810.7119
  0
VERTEX
  8
LAYER1
 62
     7
  6
CONTINUOUS
 10
41894.8647
 20
8881.0902
  0
VERTEX
  8
LAYER1
 62
     7
  6
CONTINUOUS
 10
41950.0337
 20
9388.6945
  0
VERTEX
  8
LAYER1
 62
     7
  6
CONTINUOUS
 10
41950.0337
 20
9830.0754
  0
VERTEX
  8
LAYER1
 62
     7
  6
CONTINUOUS
 10
41983.1341
 20
10194.2223
  0
VERTEX
  8
LAYER1
 62
     7
  6
CONTINUOUS
 10
41983.1341
 20
10712.8674
  0
VERTEX
  8
LAYER1
 62
     7
  6
CONTINUOUS
 10
42049.3445
 20
11176.3270
  0
VERTEX
  8
LAYER1
 62
     7
  6
CONTINUOUS
 10
42060.3859
 20
11496.3303
  0
VERTEX
  8
LAYER1
 62
     7
  6
CONTINUOUS
 10
42027.2807
 20
12489.4597
  0
SEQEND
  8
LAYER1
  0
POLYLINE
  8
LAYER1
 62
     7
 66
     1
  6
CONTINUOUS
  0
VERTEX
  8
LAYER1
 62
     7
  6
CONTINUOUS
 10
26126.1711
 20
5228.5758
  0
VERTEX
  8
LAYER1
 62
     7
  6
CONTINUOUS
 10
26258.5895
 20
5482.3860
  0
VERTEX
  8
LAYER1
 62
     7
  6
CONTINUOUS
 10
26975.8431
 20
5636.8676
  0
VERTEX
  8
LAYER1
 62
     7
  6
CONTINUOUS
 10
27825.5318
 20
5901.7019
  0
VERTEX
  8
LAYER1
 62
     7
  6
CONTINUOUS
 10
28906.9330
 20
6309.9937
  0
VERTEX
  8
LAYER1
 62
     7
  6
CONTINUOUS
 10
29602.1253
 20
6784.4785
  0
VERTEX
  8
LAYER1
 62
     7
  6
CONTINUOUS
 10
30186.9629
 20
7181.7301
  0
VERTEX
  8
LAYER1
 62
     7
  6
CONTINUOUS
 10
30595.2547
 20
7435.5403
  0
VERTEX
  8
LAYER1
 62
     7
  6
CONTINUOUS
 10
31091.8182
 20
7843.8165
  0
VERTEX
  8
LAYER1
 62
     7
  6
CONTINUOUS
 10
31257.3393
 20
7987.2739
  0
VERTEX
  8
LAYER1
 62
     7
  6
CONTINUOUS
 10
31775.9690
 20
8185.8997
  0
VERTEX
  8
LAYER1
 62
     7
  6
CONTINUOUS
 10
32702.8904
 20
8296.2525
  0
VERTEX
  8
LAYER1
 62
     7
  6
CONTINUOUS
 10
33552.5767
 20
8384.5255
  0
VERTEX
  8
LAYER1
 62
     7
  6
CONTINUOUS
 10
34336.0408
 20
8395.5657
  0
VERTEX
  8
LAYER1
 62
     7
  6
CONTINUOUS
 10
35097.4410
 20
8428.6697
  0
VERTEX
  8
LAYER1
 62
     7
  6
CONTINUOUS
 10
36013.3353
 20
8417.6301
  0
VERTEX
  8
LAYER1
 62
     7
  6
CONTINUOUS
 10
37138.8664
 20
8483.8386
  0
VERTEX
  8
LAYER1
 62
     7
  6
CONTINUOUS
 10
38065.7878
 20
8494.8783
  0
VERTEX
  8
LAYER1
 62
     7
  6
CONTINUOUS
 10
38694.7697
 20
8461.7743
  0
VERTEX
  8
LAYER1
 62
     7
  6
CONTINUOUS
 10
38760.9777
 20
8450.7341
  0
VERTEX
  8
LAYER1
 62
     7
  6
CONTINUOUS
 10
39058.9339
 20
8031.4182
  0
VERTEX
  8
LAYER1
 62
     7
  6
CONTINUOUS
 10
39389.9596
 20
7479.6690
  0
VERTEX
  8
LAYER1
 62
     7
  6
CONTINUOUS
 10
39643.7692
 20
6938.9756
  0
VERTEX
  8
LAYER1
 62
     7
  6
CONTINUOUS
 10
40018.9438
 20
6298.9541
  0
VERTEX
  8
LAYER1
 62
     7
  6
CONTINUOUS
 10
40372.0642
 20
5857.5577
  0
VERTEX
  8
LAYER1
 62
     7
  6
CONTINUOUS
 10
40714.1337
 20
5515.4906
  0
VERTEX
  8
LAYER1
 62
     7
  6
CONTINUOUS
 10
41001.0485
 20
5140.3029
  0
VERTEX
  8
LAYER1
 62
     7
  6
CONTINUOUS
 10
41199.6749
 20
4875.4685
  0
VERTEX
  8
LAYER1
 62
     7
  6
CONTINUOUS
 10
41486.5706
 20
4511.3210
  0
SEQEND
  8
LAYER1
  0
POLYLINE
  8
LAYER1
 62
     7
 66
     1
  6
CONTINUOUS
  0
VERTEX
  8
LAYER1
 62
     7
  6
CONTINUOUS
 10
35587.7428
 20
28054.1849
  0
VERTEX
  8
LAYER1
 62
     7
  6
CONTINUOUS
 10
35587.7428
 20
22569.9082
  0
SEQEND
  8
LAYER1
  0
POLYLINE
  8
LAYER1
 62
     7
 66
     1
  6
CONTINUOUS
  0
VERTEX
  8
LAYER1
 62
     7
  6
CONTINUOUS
 10
6311.0558
 20
23434.1171
  0
VERTEX
  8
LAYER1
 62
     7
  6
CONTINUOUS
 10
11839.4755
 20
23434.1171
  0
SEQEND
  8
LAYER1
  0
POLYLINE
  8
LAYER1
 62
     7
 66
     1
  6
CONTINUOUS
  0
VERTEX
  8
LAYER1
 62
     7
  6
CONTINUOUS
 10
11839.4755
 20
23434.1171
  0
VERTEX
  8
LAYER1
 62
     7
  6
CONTINUOUS
 10
11839.4755
 20
24029.9199
  0
SEQEND
  8
LAYER1
  0
POLYLINE
  8
LAYER1
 62
     7
 66
     1
  6
CONTINUOUS
  0
VERTEX
  8
LAYER1
 62
     7
  6
CONTINUOUS
 10
6311.0558
 20
24024.1871
  0
VERTEX
  8
LAYER1
 62
     7
  6
CONTINUOUS
 10
6311.0558
 20
23434.1171
  0
SEQEND
  8
LAYER1
  0
POLYLINE
  8
LAYER1
 62
     7
 66
     1
  6
CONTINUOUS
  0
VERTEX
  8
LAYER1
 62
     7
  6
CONTINUOUS
 10
11839.4755
 20
23434.1171
  0
VERTEX
  8
LAYER1
 62
     7
  6
CONTINUOUS
 10
6311.0558
 20
23434.1171
  0
SEQEND
  8
LAYER1
  0
POLYLINE
  8
LAYER1
 62
     7
 66
     1
  6
CONTINUOUS
  0
VERTEX
  8
LAYER1
 62
     7
  6
CONTINUOUS
 10
35587.7428
 20
22569.9082
  0
VERTEX
  8
LAYER1
 62
     7
  6
CONTINUOUS
 10
35587.7428
 20
28054.1849
  0
SEQEND
  8
LAYER1
  0
POLYLINE
  8
LAYER1
 62
     7
 66
     1
  6
CONTINUOUS
  0
VERTEX
  8
LAYER1
 62
     7
  6
CONTINUOUS
 10
35587.7428
 20
28054.1849
  0
VERTEX
  8
LAYER1
 62
     7
  6
CONTINUOUS
 10
35212.1178
 20
26970.2057
  0
SEQEND
  8
LAYER1
  0
POLYLINE
  8
LAYER1
 62
     3
 66
     1
  6
CONTINUOUS
  0
VERTEX
  8
LAYER1
 62
     3
  6
CONTINUOUS
 10
11983.7609
 20
36767.8496
  0
VERTEX
  8
LAYER1
 62
     3
  6
CONTINUOUS
 10
15415.1157
 20
36767.8496
  0
SEQEND
  8
LAYER1
  0
POLYLINE
  8
LAYER1
 62
     3
 66
     1
  6
CONTINUOUS
  0
VERTEX
  8
LAYER1
 62
     3
  6
CONTINUOUS
 10
20535.7119
 20
44680.1561
  0
VERTEX
  8
LAYER1
 62
     3
  6
CONTINUOUS
 10
20535.7119
 20
40981.5771
  0
SEQEND
  8
LAYER1
  0
POLYLINE
  8
LAYER1
 62
     3
 66
     1
  6
CONTINUOUS
  0
VERTEX
  8
LAYER1
 62
     3
  6
CONTINUOUS
 10
24045.1453
 20
36767.8496
  0
VERTEX
  8
LAYER1
 62
     3
  6
CONTINUOUS
 10
27880.7008
 20
36767.8496
  0
SEQEND
  8
LAYER1
  0
POLYLINE
  8
LAYER1
 62
     3
 66
     1
  6
CONTINUOUS
  0
VERTEX
  8
LAYER1
 62
     3
  6
CONTINUOUS
 10
20535.7119
 20
32214.5687
  0
VERTEX
  8
LAYER1
 62
     3
  6
CONTINUOUS
 10
20535.7119
 20
28242.0034
  0
SEQEND
  8
LAYER1
  0
ENDSEC
  0
EOF
