  0
SECTION
  2
HEADER
  9
$ACADVER
  1
AC1004
  9
$EXTMIN
 10
6.8055
 20
4.9532
  9
$EXTMAX
 10
10.5533
 20
9.5227
  9
$LIMMIN
 10
6.8055
 20
4.9532
  9
$LIMMAX
 10
10.5533
 20
9.5227
  9
$INSBASE
 10
0.0
 20
0.0
  9
$VIEWCTR
 10
7.21903
 20
4.5
  9
$VIEWSIZE
 40
9.0
  9
$SNAPMODE
 70
     0
  9
$SNAPUNIT
 10
1.0
 20
1.0
  9
$SNAPBASE
 10
0.0
 20
0.0
  9
$SNAPANG
 50
0.0
  9
$SNAPSTYLE
 70
     0
  9
$SNAPISOPAIR
 70
     0
  9
$GRIDMODE
 70
     0
  9
$GRIDUNIT
 10
0.0
 20
0.0
  9
$ORTHOMODE
 70
     0
  9
$REGENMODE
 70
     1
  9
$FILLMODE
 70
     1
  9
$QTEXTMODE
 70
     0
  9
$DRAGMODE
 70
     2
  9
$LTSCALE
 40
1.0
  9
$OSMODE
 70
     0
  9
$ATTMODE
 70
     1
  9
$TEXTSIZE
 40
0.2
  9
$TRACEWID
 40
0.05
  9
$TEXTSTYLE
  7
STANDARD
  9
$CLAYER
  8
0
  9
$CELTYPE
  6
BYLAYER
  9
$CECOLOR
 62
   256
  9
$DIMSCALE
 40
1.0
  9
$DIMASZ
 40
0.18
  9
$DIMEXO
 40
0.0625
  9
$DIMDLI
 40
0.38
  9
$DIMRND
 40
0.0
  9
$DIMDLE
 40
0.0
  9
$DIMEXE
 40
0.18
  9
$DIMTP
 40
0.0
  9
$DIMTM
 40
0.0
  9
$DIMTXT
 40
0.18
  9
$DIMCEN
 40
0.09
  9
$DIMTSZ
 40
0.0
  9
$DIMTOL
 70
     0
  9
$DIMLIM
 70
     0
  9
$DIMTIH
 70
     1
  9
$DIMTOH
 70
     1
  9
$DIMSE1
 70
     0
  9
$DIMSE2
 70
     0
  9
$DIMTAD
 70
     0
  9
$DIMZIN
 70
     0
  9
$DIMBLK
  1

  9
$DIMASO
 70
     1
  9
$DIMSHO
 70
     0
  9
$DIMPOST
  1

  9
$DIMAPOST
  1

  9
$DIMALT
 70
     0
  9
$DIMALTD
 70
     2
  9
$DIMALTF
 40
25.4
  9
$DIMLFAC
 40
1.0
  9
$LUNITS
 70
     2
  9
$LUPREC
 70
     4
  9
$AXISMODE
 70
     0
  9
$AXISUNIT
 10
0.0
 20
0.0
  9
$SKETCHINC
 40
0.1
  9
$FILLETRAD
 40
0.0
  9
$AUNITS
 70
     0
  9
$AUPREC
 70
     0
  9
$MENU
  1
acad
  9
$ELEVATION
 40
0.0
  9
$THICKNESS
 40
0.0
  9
$VIEWDIR
 10
0.0
 20
0.0
 30
1.0
  9
$LIMCHECK
 70
     0
  9
$BLIPMODE
 70
     1
  9
$CHAMFERA
 40
0.0
  9
$CHAMFERB
 40
0.0
  9
$FASTZOOM
 70
     1
  9
$SKPOLY
 70
     0
  9
$TDCREATE
 40
2447222.5666886573
  9
$TDUPDATE
 40
2447222.5666886573
  9
$TDINDWG
 40
0.0000000000
  9
$TDUSRTIMER
 40
0.0000000000
  9
$USRTIMER
 70
     1
  9
$ANGBASE
 50
0.0
  9
$ANGDIR
 70
     0
  9
$PDMODE
 70
     0
  9
$PDSIZE
 40
0.0
  9
$PLINEWID
 40
0.0
  9
$COORDS
 70
     0
  9
$SPLFRAME
 70
     0
  9
$SPLINESEGS
 70
     8
  9
$ATTDIA
 70
     0
  9
$ATTREQ
 70
     1
  9
$USERI1
 70
     0
  9
$USERI2
 70
     0
  9
$USERI3
 70
     0
  9
$USERI4
 70
     0
  9
$USERI5
 70
     0
  9
$USERR1
 40
0.0
  9
$USERR2
 40
0.0
  9
$USERR3
 40
0.0
  9
$USERR4
 40
0.0
  9
$USERR5
 40
0.0
  0
ENDSEC
  0
SECTION
  2
TABLES
  0
TABLE
  2
LTYPE
 70
     13
  0
LTYPE
  2
CONTINUOUS
 70
    64
  3
Solid line
 72
    65
 73
     0
 40
0.0
  0
LTYPE
  2
DASHED
 70
    64
  3
__ __ __ __ __ __ __ __ __ __ __ __ __ __ __
 72
    65
 73
     2
 40
0.75
 49
0.5
 49
-0.25
  0
LTYPE
  2
HIDDEN
 70
    64
  3
_ _ _ _ _ _ _ _ _ _ _ _ _ _ _ _ _ _ _ _ _ _ _
 72
    65
 73
     2
 40
0.375
 49
0.25
 49
-0.125
  0
LTYPE
  2
CENTER
 70
    64
  3
____ _ ____ _ ____ _ ____ _ ____ _ ____ _ ____
 72
    65
 73
     4
 40
2.0
 49
1.25
 49
-0.25
 49
0.25
 49
-0.25
  0
LTYPE
  2
PHANTOM
 70
    64
  3
_____ _ _ _____ _ _ _____ _ _ _____ _ _ ____
 72
    65
 73
     6
 40
2.5
 49
1.25
 49
-0.25
 49
0.25
 49
-0.25
 49
0.25
 49
-0.25
  0
LTYPE
  2
DOT
 70
    64
  3
...............................................
 72
    65
 73
     2
 40
0.25
 49
0.0
 49
-0.25
  0
LTYPE
  2
DASHDOT
 70
    64
  3
__ . __ . __ . __ . __ . __ . __ . __ . __ . __
 72
    65
 73
     4
 40
1.0
 49
0.5
 49
-0.25
 49
0.0
 49
-0.25
  0
LTYPE
  2
BORDER
 70
    64
  3
__ __ . __ __ . __ __ . __ __ . __ __ . __ __
 72
    65
 73
     6
 40
1.75
 49
0.5
 49
-0.25
 49
0.5
 49
-0.25
 49
0.0
 49
-0.25
  0
LTYPE
  2
DIVIDE
 70
    64
  3
__ . . __ . . __ . . __ . . __ . . __ . . __
 72
    65
 73
     6
 40
1.25
 49
0.5
 49
-0.25
 49
0.0
 49
-0.25
 49
0.0
 49
-0.25
  0
LTYPE
  2
DCTYPE1
 70
    64
  3
__ . . __ . . __ . . __ . . __ . . __ . . __
 72
    65
 73
     8
 40
2.5
 49
0.5
 49
-0.25
 49
0.125
 49
-0.25
 49
0.25
 49
-0.25
 49
0.125
 49
-0.25
  0
LTYPE
  2
DCTYPE2
 70
    64
  3
__ . . __ . . __ . . __ . . __ . . __ . . __
 72
    65
 73
     6
 40
2.05
 49
1.0
 49
-0.3
 49
0.15
 49
-0.15
 49
0.15
 49
-0.3
  0
LTYPE
  2
DCTYPE3
 70
    64
  3
__ . . __ . . __ . . __ . . __ . . __ . . __
 72
    65
 73
     6
 40
2.5
 49
0.8
 49
-0.2
 49
0.8
 49
-0.2
 49
0.3
 49
-0.2
  0
LTYPE
  2
DCTYPE4
 70
    64
  3
__ . . __ . . __ . . __ . . __ . . __ . . __
 72
    65
 73
     10
 40
3.97
 49
1.75
 49
-0.3
 49
0.3
 49
-0.3
 49
0.06
 49
-0.3
 49
0.06
 49
-0.3
 49
0.3
 49
-0.3
  0
ENDTAB
  0
TABLE
  2
LAYER
 70
    153
  0
LAYER
  2
LAYER1
 70
 64
 62
     7
  6
CONTINUOUS
  0
ENDTAB
  0
ENDSEC
  0
SECTION
  2
BLOCKS
  0
ENDSEC
  0
SECTION
  2
ENTITIES
  0
POLYLINE
  8
LAYER1
 62
     7
 66
     1
  6
CONTINUOUS
  0
VERTEX
  8
LAYER1
 62
     7
  6
CONTINUOUS
 10
7.0348
 20
8.5205
  0
VERTEX
  8
LAYER1
 62
     7
  6
CONTINUOUS
 10
7.0199
 20
8.5554
  0
VERTEX
  8
LAYER1
 62
     7
  6
CONTINUOUS
 10
6.9501
 20
8.7998
  0
VERTEX
  8
LAYER1
 62
     7
  6
CONTINUOUS
 10
6.9800
 20
8.9892
  0
VERTEX
  8
LAYER1
 62
     7
  6
CONTINUOUS
 10
7.0597
 20
9.1787
  0
VERTEX
  8
LAYER1
 62
     7
  6
CONTINUOUS
 10
7.1744
 20
9.3232
  0
VERTEX
  8
LAYER1
 62
     7
  6
CONTINUOUS
 10
7.3190
 20
9.4529
  0
VERTEX
  8
LAYER1
 62
     7
  6
CONTINUOUS
 10
7.5035
 20
9.5227
  0
VERTEX
  8
LAYER1
 62
     7
  6
CONTINUOUS
 10
7.7827
 20
9.5227
  0
VERTEX
  8
LAYER1
 62
     7
  6
CONTINUOUS
 10
8.1017
 20
9.4778
  0
VERTEX
  8
LAYER1
 62
     7
  6
CONTINUOUS
 10
8.2962
 20
9.4379
  0
VERTEX
  8
LAYER1
 62
     7
  6
CONTINUOUS
 10
8.5704
 20
9.3232
  0
VERTEX
  8
LAYER1
 62
     7
  6
CONTINUOUS
 10
8.7948
 20
9.1487
  0
VERTEX
  8
LAYER1
 62
     7
  6
CONTINUOUS
 10
8.8995
 20
8.9842
  0
VERTEX
  8
LAYER1
 62
     7
  6
CONTINUOUS
 10
8.9593
 20
8.6951
  0
VERTEX
  8
LAYER1
 62
     7
  6
CONTINUOUS
 10
8.9693
 20
8.4059
  0
VERTEX
  8
LAYER1
 62
     7
  6
CONTINUOUS
 10
8.8995
 20
8.1716
  0
VERTEX
  8
LAYER1
 62
     7
  6
CONTINUOUS
 10
8.7349
 20
7.9273
  0
VERTEX
  8
LAYER1
 62
     7
  6
CONTINUOUS
 10
8.6053
 20
7.7727
  0
VERTEX
  8
LAYER1
 62
     7
  6
CONTINUOUS
 10
8.4059
 20
7.6132
  0
VERTEX
  8
LAYER1
 62
     7
  6
CONTINUOUS
 10
8.1666
 20
7.5184
  0
VERTEX
  8
LAYER1
 62
     7
  6
CONTINUOUS
 10
7.9721
 20
7.4736
  0
VERTEX
  8
LAYER1
 62
     7
  6
CONTINUOUS
 10
7.8076
 20
7.4885
  0
VERTEX
  8
LAYER1
 62
     7
  6
CONTINUOUS
 10
7.6830
 20
7.4885
  0
VERTEX
  8
LAYER1
 62
     7
  6
CONTINUOUS
 10
7.5284
 20
7.5384
  0
VERTEX
  8
LAYER1
 62
     7
  6
CONTINUOUS
 10
7.4237
 20
7.6830
  0
VERTEX
  8
LAYER1
 62
     7
  6
CONTINUOUS
 10
7.3788
 20
7.8026
  0
VERTEX
  8
LAYER1
 62
     7
  6
CONTINUOUS
 10
7.2941
 20
7.9871
  0
VERTEX
  8
LAYER1
 62
     7
  6
CONTINUOUS
 10
7.1993
 20
8.1416
  0
VERTEX
  8
LAYER1
 62
     7
  6
CONTINUOUS
 10
7.1395
 20
8.2912
  0
VERTEX
  8
LAYER1
 62
     7
  6
CONTINUOUS
 10
7.0946
 20
8.4059
  0
VERTEX
  8
LAYER1
 62
     7
  6
CONTINUOUS
 10
7.0348
 20
8.5205
  0
SEQEND
  8
LAYER1
  0
POLYLINE
  8
LAYER1
 62
     7
 66
     1
  6
CONTINUOUS
  0
VERTEX
  8
LAYER1
 62
     7
  6
CONTINUOUS
 10
6.8055
 20
5.8033
  0
VERTEX
  8
LAYER1
 62
     7
  6
CONTINUOUS
 10
6.8055
 20
5.8033
  0
VERTEX
  8
LAYER1
 62
     7
  6
CONTINUOUS
 10
6.8454
 20
5.8033
  0
VERTEX
  8
LAYER1
 62
     7
  6
CONTINUOUS
 10
6.9949
 20
5.8183
  0
VERTEX
  8
LAYER1
 62
     7
  6
CONTINUOUS
 10
7.1345
 20
5.8382
  0
VERTEX
  8
LAYER1
 62
     7
  6
CONTINUOUS
 10
7.3190
 20
5.8981
  0
VERTEX
  8
LAYER1
 62
     7
  6
CONTINUOUS
 10
7.4586
 20
5.9629
  0
VERTEX
  8
LAYER1
 62
     7
  6
CONTINUOUS
 10
7.6481
 20
6.0476
  0
VERTEX
  8
LAYER1
 62
     7
  6
CONTINUOUS
 10
7.8674
 20
6.0676
  0
VERTEX
  8
LAYER1
 62
     7
  6
CONTINUOUS
 10
8.0120
 20
6.0676
  0
VERTEX
  8
LAYER1
 62
     7
  6
CONTINUOUS
 10
8.2513
 20
6.0576
  0
VERTEX
  8
LAYER1
 62
     7
  6
CONTINUOUS
 10
8.4358
 20
6.0526
  0
VERTEX
  8
LAYER1
 62
     7
  6
CONTINUOUS
 10
8.6203
 20
6.0476
  0
VERTEX
  8
LAYER1
 62
     7
  6
CONTINUOUS
 10
8.7648
 20
6.0476
  0
VERTEX
  8
LAYER1
 62
     7
  6
CONTINUOUS
 10
8.8995
 20
6.0526
  0
VERTEX
  8
LAYER1
 62
     7
  6
CONTINUOUS
 10
9.0092
 20
6.0576
  0
VERTEX
  8
LAYER1
 62
     7
  6
CONTINUOUS
 10
9.0092
 20
6.0576
  0
SEQEND
  8
LAYER1
  0
POLYLINE
  8
LAYER1
 62
     7
 66
     1
  6
CONTINUOUS
  0
VERTEX
  8
LAYER1
 62
     7
  6
CONTINUOUS
 10
8.7648
 20
6.0476
  0
VERTEX
  8
LAYER1
 62
     7
  6
CONTINUOUS
 10
8.7250
 20
5.9928
  0
VERTEX
  8
LAYER1
 62
     7
  6
CONTINUOUS
 10
8.6801
 20
5.8532
  0
VERTEX
  8
LAYER1
 62
     7
  6
CONTINUOUS
 10
8.6302
 20
5.7186
  0
VERTEX
  8
LAYER1
 62
     7
  6
CONTINUOUS
 10
8.5554
 20
5.5989
  0
VERTEX
  8
LAYER1
 62
     7
  6
CONTINUOUS
 10
8.3959
 20
5.4892
  0
VERTEX
  8
LAYER1
 62
     7
  6
CONTINUOUS
 10
8.2463
 20
5.4643
  0
VERTEX
  8
LAYER1
 62
     7
  6
CONTINUOUS
 10
8.0968
 20
5.4494
  0
VERTEX
  8
LAYER1
 62
     7
  6
CONTINUOUS
 10
7.8874
 20
5.4394
  0
VERTEX
  8
LAYER1
 62
     7
  6
CONTINUOUS
 10
7.6181
 20
5.4494
  0
VERTEX
  8
LAYER1
 62
     7
  6
CONTINUOUS
 10
7.5035
 20
5.4843
  0
VERTEX
  8
LAYER1
 62
     7
  6
CONTINUOUS
 10
7.3738
 20
5.5341
  0
VERTEX
  8
LAYER1
 62
     7
  6
CONTINUOUS
 10
7.2542
 20
5.5740
  0
VERTEX
  8
LAYER1
 62
     7
  6
CONTINUOUS
 10
7.1495
 20
5.6189
  0
VERTEX
  8
LAYER1
 62
     7
  6
CONTINUOUS
 10
7.1096
 20
5.6687
  0
VERTEX
  8
LAYER1
 62
     7
  6
CONTINUOUS
 10
7.0797
 20
5.7136
  0
VERTEX
  8
LAYER1
 62
     7
  6
CONTINUOUS
 10
6.9949
 20
5.8183
  0
SEQEND
  8
LAYER1
  0
POLYLINE
  8
LAYER1
 62
     3
 66
     1
  6
CONTINUOUS
  0
VERTEX
  8
LAYER1
 62
     3
  6
CONTINUOUS
 10
6.8204
 20
8.5554
  0
VERTEX
  8
LAYER1
 62
     3
  6
CONTINUOUS
 10
7.2442
 20
8.5554
  0
SEQEND
  8
LAYER1
  0
POLYLINE
  8
LAYER1
 62
     3
 66
     1
  6
CONTINUOUS
  0
VERTEX
  8
LAYER1
 62
     3
  6
CONTINUOUS
 10
8.6203
 20
8.5554
  0
VERTEX
  8
LAYER1
 62
     3
  6
CONTINUOUS
 10
8.9393
 20
8.5554
  0
SEQEND
  8
LAYER1
  0
POLYLINE
  8
LAYER1
 62
     7
 66
     1
  6
HIDDEN
  0
VERTEX
  8
LAYER1
 62
     7
  6
HIDDEN
 10
7.2741
 20
8.4956
  0
VERTEX
  8
LAYER1
 62
     7
  6
HIDDEN
 10
7.2741
 20
8.5156
  0
VERTEX
  8
LAYER1
 62
     7
  6
HIDDEN
 10
7.2691
 20
8.6651
  0
VERTEX
  8
LAYER1
 62
     7
  6
HIDDEN
 10
7.2642
 20
8.7698
  0
VERTEX
  8
LAYER1
 62
     7
  6
HIDDEN
 10
7.2741
 20
8.9094
  0
VERTEX
  8
LAYER1
 62
     7
  6
HIDDEN
 10
7.3040
 20
9.0590
  0
VERTEX
  8
LAYER1
 62
     7
  6
HIDDEN
 10
7.3539
 20
9.1687
  0
VERTEX
  8
LAYER1
 62
     7
  6
HIDDEN
 10
7.4785
 20
9.3083
  0
VERTEX
  8
LAYER1
 62
     7
  6
HIDDEN
 10
7.6181
 20
9.3831
  0
VERTEX
  8
LAYER1
 62
     7
  6
HIDDEN
 10
7.7577
 20
9.4030
  0
VERTEX
  8
LAYER1
 62
     7
  6
HIDDEN
 10
7.9023
 20
9.3980
  0
VERTEX
  8
LAYER1
 62
     7
  6
HIDDEN
 10
8.0120
 20
9.3731
  0
VERTEX
  8
LAYER1
 62
     7
  6
HIDDEN
 10
8.1915
 20
9.3183
  0
VERTEX
  8
LAYER1
 62
     7
  6
HIDDEN
 10
8.4158
 20
9.2385
  0
VERTEX
  8
LAYER1
 62
     7
  6
HIDDEN
 10
8.5704
 20
9.1288
  0
VERTEX
  8
LAYER1
 62
     7
  6
HIDDEN
 10
8.6302
 20
9.0590
  0
VERTEX
  8
LAYER1
 62
     7
  6
HIDDEN
 10
8.6851
 20
8.9344
  0
VERTEX
  8
LAYER1
 62
     7
  6
HIDDEN
 10
8.7050
 20
8.7349
  0
VERTEX
  8
LAYER1
 62
     7
  6
HIDDEN
 10
8.6901
 20
8.5405
  0
VERTEX
  8
LAYER1
 62
     7
  6
HIDDEN
 10
8.6552
 20
8.3361
  0
VERTEX
  8
LAYER1
 62
     7
  6
HIDDEN
 10
8.5904
 20
8.1716
  0
VERTEX
  8
LAYER1
 62
     7
  6
HIDDEN
 10
8.4358
 20
8.0270
  0
VERTEX
  8
LAYER1
 62
     7
  6
HIDDEN
 10
8.2713
 20
7.9073
  0
VERTEX
  8
LAYER1
 62
     7
  6
HIDDEN
 10
8.1466
 20
7.8126
  0
VERTEX
  8
LAYER1
 62
     7
  6
HIDDEN
 10
7.9821
 20
7.6979
  0
VERTEX
  8
LAYER1
 62
     7
  6
HIDDEN
 10
7.8724
 20
7.6580
  0
VERTEX
  8
LAYER1
 62
     7
  6
HIDDEN
 10
7.7528
 20
7.6530
  0
VERTEX
  8
LAYER1
 62
     7
  6
HIDDEN
 10
7.6381
 20
7.7179
  0
VERTEX
  8
LAYER1
 62
     7
  6
HIDDEN
 10
7.4935
 20
7.8724
  0
VERTEX
  8
LAYER1
 62
     7
  6
HIDDEN
 10
7.4038
 20
8.0170
  0
VERTEX
  8
LAYER1
 62
     7
  6
HIDDEN
 10
7.3489
 20
8.1516
  0
VERTEX
  8
LAYER1
 62
     7
  6
HIDDEN
 10
7.3290
 20
8.2164
  0
VERTEX
  8
LAYER1
 62
     7
  6
HIDDEN
 10
7.2991
 20
8.3311
  0
VERTEX
  8
LAYER1
 62
     7
  6
HIDDEN
 10
7.2741
 20
8.5156
  0
SEQEND
  8
LAYER1
  0
POLYLINE
  8
LAYER1
 62
     7
 66
     1
  6
CONTINUOUS
  0
VERTEX
  8
LAYER1
 62
     7
  6
CONTINUOUS
 10
9.3219
 20
8.6875
  0
VERTEX
  8
LAYER1
 62
     7
  6
CONTINUOUS
 10
10.5533
 20
8.6875
  0
SEQEND
  8
LAYER1
  0
POLYLINE
  8
LAYER1
 62
     7
 66
     1
  6
CONTINUOUS
  0
VERTEX
  8
LAYER1
 62
     7
  6
CONTINUOUS
 10
10.5284
 20
6.2096
  0
VERTEX
  8
LAYER1
 62
     7
  6
CONTINUOUS
 10
10.5284
 20
4.9532
  0
SEQEND
  8
LAYER1
  0
POLYLINE
  8
LAYER1
 62
     7
 66
     1
  6
CONTINUOUS
  0
VERTEX
  8
LAYER1
 62
     7
  6
CONTINUOUS
 10
10.5533
 20
8.6875
  0
VERTEX
  8
LAYER1
 62
     7
  6
CONTINUOUS
 10
10.5533
 20
8.8202
  0
SEQEND
  8
LAYER1
  0
POLYLINE
  8
LAYER1
 62
     7
 66
     1
  6
CONTINUOUS
  0
VERTEX
  8
LAYER1
 62
     7
  6
CONTINUOUS
 10
9.3219
 20
8.8189
  0
VERTEX
  8
LAYER1
 62
     7
  6
CONTINUOUS
 10
9.3219
 20
8.6875
  0
SEQEND
  8
LAYER1
  0
POLYLINE
  8
LAYER1
 62
     7
 66
     1
  6
CONTINUOUS
  0
VERTEX
  8
LAYER1
 62
     7
  6
CONTINUOUS
 10
10.5533
 20
8.6875
  0
VERTEX
  8
LAYER1
 62
     7
  6
CONTINUOUS
 10
9.3219
 20
8.6875
  0
SEQEND
  8
LAYER1
  0
POLYLINE
  8
LAYER1
 62
     7
 66
     1
  6
CONTINUOUS
  0
VERTEX
  8
LAYER1
 62
     7
  6
CONTINUOUS
 10
10.5284
 20
4.9532
  0
VERTEX
  8
LAYER1
 62
     7
  6
CONTINUOUS
 10
10.5284
 20
6.2096
  0
SEQEND
  8
LAYER1
  0
POLYLINE
  8
LAYER1
 62
     7
 66
     1
  6
CONTINUOUS
  0
VERTEX
  8
LAYER1
 62
     7
  6
CONTINUOUS
 10
10.5284
 20
6.2096
  0
VERTEX
  8
LAYER1
 62
     7
  6
CONTINUOUS
 10
10.4424
 20
5.9612
  0
SEQEND
  8
LAYER1
  0
ENDSEC
  0
EOF
