  0
SECTION
  2
HEADER
  9
$ACADVER
  1
AC1004
  9
$EXTMIN
 10
-13975.8597
 20
-1143.7540
  9
$EXTMAX
 10
26894.5979
 20
39023.4889
  9
$LIMMIN
 10
-13975.8597
 20
-1143.7540
  9
$LIMMAX
 10
26894.5979
 20
39023.4889
  9
$INSBASE
 10
0.0
 20
0.0
  9
$VIEWCTR
 10
7.21903
 20
4.5
  9
$VIEWSIZE
 40
9.0
  9
$SNAPMODE
 70
     0
  9
$SNAPUNIT
 10
1.0
 20
1.0
  9
$SNAPBASE
 10
0.0
 20
0.0
  9
$SNAPANG
 50
0.0
  9
$SNAPSTYLE
 70
     0
  9
$SNAPISOPAIR
 70
     0
  9
$GRIDMODE
 70
     0
  9
$GRIDUNIT
 10
0.0
 20
0.0
  9
$ORTHOMODE
 70
     0
  9
$REGENMODE
 70
     1
  9
$FILLMODE
 70
     1
  9
$QTEXTMODE
 70
     0
  9
$DRAGMODE
 70
     2
  9
$LTSCALE
 40
1.0
  9
$OSMODE
 70
     0
  9
$ATTMODE
 70
     1
  9
$TEXTSIZE
 40
0.2
  9
$TRACEWID
 40
0.05
  9
$TEXTSTYLE
  7
STANDARD
  9
$CLAYER
  8
0
  9
$CELTYPE
  6
BYLAYER
  9
$CECOLOR
 62
   256
  9
$DIMSCALE
 40
1.0
  9
$DIMASZ
 40
0.18
  9
$DIMEXO
 40
0.0625
  9
$DIMDLI
 40
0.38
  9
$DIMRND
 40
0.0
  9
$DIMDLE
 40
0.0
  9
$DIMEXE
 40
0.18
  9
$DIMTP
 40
0.0
  9
$DIMTM
 40
0.0
  9
$DIMTXT
 40
0.18
  9
$DIMCEN
 40
0.09
  9
$DIMTSZ
 40
0.0
  9
$DIMTOL
 70
     0
  9
$DIMLIM
 70
     0
  9
$DIMTIH
 70
     1
  9
$DIMTOH
 70
     1
  9
$DIMSE1
 70
     0
  9
$DIMSE2
 70
     0
  9
$DIMTAD
 70
     0
  9
$DIMZIN
 70
     0
  9
$DIMBLK
  1

  9
$DIMASO
 70
     1
  9
$DIMSHO
 70
     0
  9
$DIMPOST
  1

  9
$DIMAPOST
  1

  9
$DIMALT
 70
     0
  9
$DIMALTD
 70
     2
  9
$DIMALTF
 40
25.4
  9
$DIMLFAC
 40
1.0
  9
$LUNITS
 70
     2
  9
$LUPREC
 70
     4
  9
$AXISMODE
 70
     0
  9
$AXISUNIT
 10
0.0
 20
0.0
  9
$SKETCHINC
 40
0.1
  9
$FILLETRAD
 40
0.0
  9
$AUNITS
 70
     0
  9
$AUPREC
 70
     0
  9
$MENU
  1
acad
  9
$ELEVATION
 40
0.0
  9
$THICKNESS
 40
0.0
  9
$VIEWDIR
 10
0.0
 20
0.0
 30
1.0
  9
$LIMCHECK
 70
     0
  9
$BLIPMODE
 70
     1
  9
$CHAMFERA
 40
0.0
  9
$CHAMFERB
 40
0.0
  9
$FASTZOOM
 70
     1
  9
$SKPOLY
 70
     0
  9
$TDCREATE
 40
2447222.5666886573
  9
$TDUPDATE
 40
2447222.5666886573
  9
$TDINDWG
 40
0.0000000000
  9
$TDUSRTIMER
 40
0.0000000000
  9
$USRTIMER
 70
     1
  9
$ANGBASE
 50
0.0
  9
$ANGDIR
 70
     0
  9
$PDMODE
 70
     0
  9
$PDSIZE
 40
0.0
  9
$PLINEWID
 40
0.0
  9
$COORDS
 70
     0
  9
$SPLFRAME
 70
     0
  9
$SPLINESEGS
 70
     8
  9
$ATTDIA
 70
     0
  9
$ATTREQ
 70
     1
  9
$USERI1
 70
     0
  9
$USERI2
 70
     0
  9
$USERI3
 70
     0
  9
$USERI4
 70
     0
  9
$USERI5
 70
     0
  9
$USERR1
 40
0.0
  9
$USERR2
 40
0.0
  9
$USERR3
 40
0.0
  9
$USERR4
 40
0.0
  9
$USERR5
 40
0.0
  0
ENDSEC
  0
SECTION
  2
TABLES
  0
TABLE
  2
LTYPE
 70
     13
  0
LTYPE
  2
CONTINUOUS
 70
    64
  3
Solid line
 72
    65
 73
     0
 40
0.0
  0
LTYPE
  2
DASHED
 70
    64
  3
__ __ __ __ __ __ __ __ __ __ __ __ __ __ __
 72
    65
 73
     2
 40
0.75
 49
0.5
 49
-0.25
  0
LTYPE
  2
HIDDEN
 70
    64
  3
_ _ _ _ _ _ _ _ _ _ _ _ _ _ _ _ _ _ _ _ _ _ _
 72
    65
 73
     2
 40
0.375
 49
0.25
 49
-0.125
  0
LTYPE
  2
CENTER
 70
    64
  3
____ _ ____ _ ____ _ ____ _ ____ _ ____ _ ____
 72
    65
 73
     4
 40
2.0
 49
1.25
 49
-0.25
 49
0.25
 49
-0.25
  0
LTYPE
  2
PHANTOM
 70
    64
  3
_____ _ _ _____ _ _ _____ _ _ _____ _ _ ____
 72
    65
 73
     6
 40
2.5
 49
1.25
 49
-0.25
 49
0.25
 49
-0.25
 49
0.25
 49
-0.25
  0
LTYPE
  2
DOT
 70
    64
  3
...............................................
 72
    65
 73
     2
 40
0.25
 49
0.0
 49
-0.25
  0
LTYPE
  2
DASHDOT
 70
    64
  3
__ . __ . __ . __ . __ . __ . __ . __ . __ . __
 72
    65
 73
     4
 40
1.0
 49
0.5
 49
-0.25
 49
0.0
 49
-0.25
  0
LTYPE
  2
BORDER
 70
    64
  3
__ __ . __ __ . __ __ . __ __ . __ __ . __ __
 72
    65
 73
     6
 40
1.75
 49
0.5
 49
-0.25
 49
0.5
 49
-0.25
 49
0.0
 49
-0.25
  0
LTYPE
  2
DIVIDE
 70
    64
  3
__ . . __ . . __ . . __ . . __ . . __ . . __
 72
    65
 73
     6
 40
1.25
 49
0.5
 49
-0.25
 49
0.0
 49
-0.25
 49
0.0
 49
-0.25
  0
LTYPE
  2
DCTYPE1
 70
    64
  3
__ . . __ . . __ . . __ . . __ . . __ . . __
 72
    65
 73
     8
 40
2.5
 49
0.5
 49
-0.25
 49
0.125
 49
-0.25
 49
0.25
 49
-0.25
 49
0.125
 49
-0.25
  0
LTYPE
  2
DCTYPE2
 70
    64
  3
__ . . __ . . __ . . __ . . __ . . __ . . __
 72
    65
 73
     6
 40
2.05
 49
1.0
 49
-0.3
 49
0.15
 49
-0.15
 49
0.15
 49
-0.3
  0
LTYPE
  2
DCTYPE3
 70
    64
  3
__ . . __ . . __ . . __ . . __ . . __ . . __
 72
    65
 73
     6
 40
2.5
 49
0.8
 49
-0.2
 49
0.8
 49
-0.2
 49
0.3
 49
-0.2
  0
LTYPE
  2
DCTYPE4
 70
    64
  3
__ . . __ . . __ . . __ . . __ . . __ . . __
 72
    65
 73
     10
 40
3.97
 49
1.75
 49
-0.3
 49
0.3
 49
-0.3
 49
0.06
 49
-0.3
 49
0.06
 49
-0.3
 49
0.3
 49
-0.3
  0
ENDTAB
  0
TABLE
  2
LAYER
 70
    153
  0
LAYER
  2
LAYER1
 70
 64
 62
     7
  6
CONTINUOUS
  0
ENDTAB
  0
ENDSEC
  0
SECTION
  2
BLOCKS
  0
ENDSEC
  0
SECTION
  2
ENTITIES
  0
POLYLINE
  8
LAYER1
 62
     7
 66
     1
  6
CONTINUOUS
  0
VERTEX
  8
LAYER1
 62
     7
  6
CONTINUOUS
 10
18.0978
 20
7066.1151
  0
VERTEX
  8
LAYER1
 62
     7
  6
CONTINUOUS
 10
478.4669
 20
7033.0105
  0
VERTEX
  8
LAYER1
 62
     7
  6
CONTINUOUS
 10
1295.0338
 20
7033.0105
  0
VERTEX
  8
LAYER1
 62
     7
  6
CONTINUOUS
 10
2144.7224
 20
7077.1553
  0
VERTEX
  8
LAYER1
 62
     7
  6
CONTINUOUS
 10
3170.9558
 20
7110.2593
  0
VERTEX
  8
LAYER1
 62
     7
  6
CONTINUOUS
 10
3976.4836
 20
7099.2197
  0
VERTEX
  8
LAYER1
 62
     7
  6
CONTINUOUS
 10
4770.9867
 20
7088.1794
  0
VERTEX
  8
LAYER1
 62
     7
  6
CONTINUOUS
 10
5388.9450
 20
7099.2197
  0
VERTEX
  8
LAYER1
 62
     7
  6
CONTINUOUS
 10
6194.4728
 20
7077.1553
  0
VERTEX
  8
LAYER1
 62
     7
  6
CONTINUOUS
 10
6977.9511
 20
7066.1151
  0
VERTEX
  8
LAYER1
 62
     7
  6
CONTINUOUS
 10
7695.2072
 20
7044.0507
  0
VERTEX
  8
LAYER1
 62
     7
  6
CONTINUOUS
 10
8589.0234
 20
7044.0507
  0
VERTEX
  8
LAYER1
 62
     7
  6
CONTINUOUS
 10
9449.7344
 20
7044.0507
  0
VERTEX
  8
LAYER1
 62
     7
  6
CONTINUOUS
 10
10376.6558
 20
7088.1794
  0
VERTEX
  8
LAYER1
 62
     7
  6
CONTINUOUS
 10
11082.8847
 20
7099.2197
  0
VERTEX
  8
LAYER1
 62
     7
  6
CONTINUOUS
 10
11689.7862
 20
7110.2593
  0
VERTEX
  8
LAYER1
 62
     7
  6
CONTINUOUS
 10
12109.1193
 20
7099.2197
  0
VERTEX
  8
LAYER1
 62
     7
  6
CONTINUOUS
 10
12517.3968
 20
7099.2197
  0
VERTEX
  8
LAYER1
 62
     7
  6
CONTINUOUS
 10
12936.7276
 20
7110.2593
  0
SEQEND
  8
LAYER1
  0
POLYLINE
  8
LAYER1
 62
     7
 66
     1
  6
CONTINUOUS
  0
VERTEX
  8
LAYER1
 62
     7
  6
CONTINUOUS
 10
1295.0338
 20
7033.0105
  0
VERTEX
  8
LAYER1
 62
     7
  6
CONTINUOUS
 10
776.4053
 20
6359.8844
  0
VERTEX
  8
LAYER1
 62
     7
  6
CONTINUOUS
 10
655.0283
 20
6150.2345
  0
VERTEX
  8
LAYER1
 62
     7
  6
CONTINUOUS
 10
279.8406
 20
5730.9025
  0
VERTEX
  8
LAYER1
 62
     7
  6
CONTINUOUS
 10
84.3070
 20
5289.5222
  0
VERTEX
  8
LAYER1
 62
     7
  6
CONTINUOUS
 10
-360.1815
 20
4472.9387
  0
VERTEX
  8
LAYER1
 62
     7
  6
CONTINUOUS
 10
-426.3895
 20
3733.6198
  0
VERTEX
  8
LAYER1
 62
     7
  6
CONTINUOUS
 10
-316.0373
 20
3104.6377
  0
VERTEX
  8
LAYER1
 62
     7
  6
CONTINUOUS
 10
-205.6839
 20
2486.6802
  0
VERTEX
  8
LAYER1
 62
     7
  6
CONTINUOUS
 10
-293.9723
 20
1957.0112
  0
VERTEX
  8
LAYER1
 62
     7
  6
CONTINUOUS
 10
-271.8931
 20
1659.0723
  0
VERTEX
  8
LAYER1
 62
     7
  6
CONTINUOUS
 10
15.0062
 20
930.7777
  0
VERTEX
  8
LAYER1
 62
     7
  6
CONTINUOUS
 10
743.3013
 20
334.9001
  0
VERTEX
  8
LAYER1
 62
     7
  6
CONTINUOUS
 10
1350.2182
 20
92.1455
  0
VERTEX
  8
LAYER1
 62
     7
  6
CONTINUOUS
 10
2266.0994
 20
117.5203
  0
VERTEX
  8
LAYER1
 62
     7
  6
CONTINUOUS
 10
2972.3295
 20
-216.8332
  0
VERTEX
  8
LAYER1
 62
     7
  6
CONTINUOUS
 10
3788.8975
 20
-448.5634
  0
VERTEX
  8
LAYER1
 62
     7
  6
CONTINUOUS
 10
4693.7540
 20
-746.5022
  0
VERTEX
  8
LAYER1
 62
     7
  6
CONTINUOUS
 10
5488.2582
 20
-967.1924
  0
VERTEX
  8
LAYER1
 62
     7
  6
CONTINUOUS
 10
6624.8283
 20
-1132.7140
  0
VERTEX
  8
LAYER1
 62
     7
  6
CONTINUOUS
 10
7739.3514
 20
-1110.6496
  0
VERTEX
  8
LAYER1
 62
     7
  6
CONTINUOUS
 10
8677.2951
 20
-1143.7540
  0
VERTEX
  8
LAYER1
 62
     7
  6
CONTINUOUS
 10
9593.1918
 20
-1121.6896
  0
VERTEX
  8
LAYER1
 62
     7
  6
CONTINUOUS
 10
10277.3427
 20
-1066.5053
  0
VERTEX
  8
LAYER1
 62
     7
  6
CONTINUOUS
 10
11127.0147
 20
-614.0850
  0
VERTEX
  8
LAYER1
 62
     7
  6
CONTINUOUS
 10
11612.5535
 20
106.4803
  0
VERTEX
  8
LAYER1
 62
     7
  6
CONTINUOUS
 10
11899.4540
 20
544.5659
  0
VERTEX
  8
LAYER1
 62
     7
  6
CONTINUOUS
 10
11954.6229
 20
1581.8395
  0
VERTEX
  8
LAYER1
 62
     7
  6
CONTINUOUS
 10
11932.5591
 20
2188.7416
  0
VERTEX
  8
LAYER1
 62
     7
  6
CONTINUOUS
 10
11844.2850
 20
2894.9720
  0
VERTEX
  8
LAYER1
 62
     7
  6
CONTINUOUS
 10
11789.1017
 20
3612.2268
  0
VERTEX
  8
LAYER1
 62
     7
  6
CONTINUOUS
 10
11833.2436
 20
4318.4572
  0
VERTEX
  8
LAYER1
 62
     7
  6
CONTINUOUS
 10
11976.7010
 20
5135.0252
  0
VERTEX
  8
LAYER1
 62
     7
  6
CONTINUOUS
 10
12131.1855
 20
5642.6295
  0
VERTEX
  8
LAYER1
 62
     7
  6
CONTINUOUS
 10
12241.5377
 20
6172.2988
  0
VERTEX
  8
LAYER1
 62
     7
  6
CONTINUOUS
 10
12318.7704
 20
6514.3820
  0
VERTEX
  8
LAYER1
 62
     7
  6
CONTINUOUS
 10
12517.3968
 20
7099.2197
  0
SEQEND
  8
LAYER1
  0
POLYLINE
  8
LAYER1
 62
     7
 66
     1
  6
CONTINUOUS
  0
VERTEX
  8
LAYER1
 62
     7
  6
CONTINUOUS
 10
26894.5979
 20
16352.9356
  0
VERTEX
  8
LAYER1
 62
     7
  6
CONTINUOUS
 10
26894.5979
 20
10780.3716
  0
SEQEND
  8
LAYER1
  0
POLYLINE
  8
LAYER1
 62
     7
 66
     1
  6
CONTINUOUS
  0
VERTEX
  8
LAYER1
 62
     7
  6
CONTINUOUS
 10
2999.4529
 20
19142.0679
  0
VERTEX
  8
LAYER1
 62
     7
  6
CONTINUOUS
 10
2821.8455
 20
19264.1787
  0
VERTEX
  8
LAYER1
 62
     7
  6
CONTINUOUS
 10
2633.1359
 20
19586.1025
  0
VERTEX
  8
LAYER1
 62
     7
  6
CONTINUOUS
 10
2599.8282
 20
20152.2336
  0
VERTEX
  8
LAYER1
 62
     7
  6
CONTINUOUS
 10
2688.6480
 20
21118.0049
  0
VERTEX
  8
LAYER1
 62
     7
  6
CONTINUOUS
 10
2710.8524
 20
21528.7317
  0
VERTEX
  8
LAYER1
 62
     7
  6
CONTINUOUS
 10
2688.6480
 20
22028.2641
  0
VERTEX
  8
LAYER1
 62
     7
  6
CONTINUOUS
 10
2577.6394
 20
22538.8974
  0
VERTEX
  8
LAYER1
 62
     7
  6
CONTINUOUS
 10
2355.6221
 20
23038.4298
  0
VERTEX
  8
LAYER1
 62
     7
  6
CONTINUOUS
 10
2233.5101
 20
23859.8859
  0
VERTEX
  8
LAYER1
 62
     7
  6
CONTINUOUS
 10
2211.3212
 20
24747.9384
  0
VERTEX
  8
LAYER1
 62
     7
  6
CONTINUOUS
 10
2122.5169
 20
25358.4949
  0
VERTEX
  8
LAYER1
 62
     7
  6
CONTINUOUS
 10
1911.6018
 20
25780.3108
  0
VERTEX
  8
LAYER1
 62
     7
  6
CONTINUOUS
 10
1745.0811
 20
26102.2346
  0
VERTEX
  8
LAYER1
 62
     7
  6
CONTINUOUS
 10
1589.6780
 20
26701.6710
  0
VERTEX
  8
LAYER1
 62
     7
  6
CONTINUOUS
 10
1656.2613
 20
27234.5111
  0
VERTEX
  8
LAYER1
 62
     7
  6
CONTINUOUS
 10
1756.1832
 20
27722.9544
  0
VERTEX
  8
LAYER1
 62
     7
  6
CONTINUOUS
 10
2022.6104
 20
28022.6738
  0
VERTEX
  8
LAYER1
 62
     7
  6
CONTINUOUS
 10
2400.0153
 20
28089.2725
  0
VERTEX
  8
LAYER1
 62
     7
  6
CONTINUOUS
 10
2855.1687
 20
28111.4626
  0
VERTEX
  8
LAYER1
 62
     7
  6
CONTINUOUS
 10
3221.4869
 20
28233.5734
  0
VERTEX
  8
LAYER1
 62
     7
  6
CONTINUOUS
 10
3610.0094
 20
28499.9851
  0
VERTEX
  8
LAYER1
 62
     7
  6
CONTINUOUS
 10
3909.7288
 20
28799.7045
  0
VERTEX
  8
LAYER1
 62
     7
  6
CONTINUOUS
 10
4031.8242
 20
29221.5490
  0
VERTEX
  8
LAYER1
 62
     7
  6
CONTINUOUS
 10
4031.8242
 20
29654.4659
  0
VERTEX
  8
LAYER1
 62
     7
  6
CONTINUOUS
 10
3998.5319
 20
30076.2962
  0
VERTEX
  8
LAYER1
 62
     7
  6
CONTINUOUS
 10
4098.4384
 20
30764.5381
  0
VERTEX
  8
LAYER1
 62
     7
  6
CONTINUOUS
 10
4409.2600
 20
31275.1714
  0
VERTEX
  8
LAYER1
 62
     7
  6
CONTINUOUS
 10
4842.1924
 20
31896.8146
  0
VERTEX
  8
LAYER1
 62
     7
  6
CONTINUOUS
 10
5197.4072
 20
32385.2603
  0
VERTEX
  8
LAYER1
 62
     7
  6
CONTINUOUS
 10
5663.6318
 20
32906.9803
  0
VERTEX
  8
LAYER1
 62
     7
  6
CONTINUOUS
 10
6285.2917
 20
33473.1257
  0
VERTEX
  8
LAYER1
 62
     7
  6
CONTINUOUS
 10
7117.8488
 20
33861.6506
  0
VERTEX
  8
LAYER1
 62
     7
  6
CONTINUOUS
 10
7550.7800
 20
33972.6581
  0
VERTEX
  8
LAYER1
 62
     7
  6
CONTINUOUS
 10
8205.7166
 20
33917.1627
  0
VERTEX
  8
LAYER1
 62
     7
  6
CONTINUOUS
 10
8771.8453
 20
33717.3497
  0
VERTEX
  8
LAYER1
 62
     7
  6
CONTINUOUS
 10
9293.5820
 20
33517.5368
  0
VERTEX
  8
LAYER1
 62
     7
  6
CONTINUOUS
 10
9748.7200
 20
33351.0149
  0
VERTEX
  8
LAYER1
 62
     7
  6
CONTINUOUS
 10
10370.3631
 20
33051.2979
  0
VERTEX
  8
LAYER1
 62
     7
  6
CONTINUOUS
 10
10803.2801
 20
32762.6651
  0
VERTEX
  8
LAYER1
 62
     7
  6
CONTINUOUS
 10
11369.4255
 20
32396.3470
  0
VERTEX
  8
LAYER1
 62
     7
  6
CONTINUOUS
 10
11824.5467
 20
31985.6344
  0
VERTEX
  8
LAYER1
 62
     7
  6
CONTINUOUS
 10
12257.4803
 20
31597.0952
  0
VERTEX
  8
LAYER1
 62
     7
  6
CONTINUOUS
 10
12523.8920
 20
31019.8631
  0
VERTEX
  8
LAYER1
 62
     7
  6
CONTINUOUS
 10
12612.7094
 20
30520.3308
  0
VERTEX
  8
LAYER1
 62
     7
  6
CONTINUOUS
 10
12801.4214
 20
29654.4659
  0
VERTEX
  8
LAYER1
 62
     7
  6
CONTINUOUS
 10
12923.5179
 20
29043.9261
  0
VERTEX
  8
LAYER1
 62
     7
  6
CONTINUOUS
 10
13201.0449
 20
28422.2996
  0
VERTEX
  8
LAYER1
 62
     7
  6
CONTINUOUS
 10
13567.3654
 20
28000.4527
  0
VERTEX
  8
LAYER1
 62
     7
  6
CONTINUOUS
 10
13733.8850
 20
27545.3315
  0
VERTEX
  8
LAYER1
 62
     7
  6
CONTINUOUS
 10
13711.6806
 20
26923.6883
  0
VERTEX
  8
LAYER1
 62
     7
  6
CONTINUOUS
 10
13567.3654
 20
26213.2420
  0
VERTEX
  8
LAYER1
 62
     7
  6
CONTINUOUS
 10
13456.3556
 20
25580.4979
  0
VERTEX
  8
LAYER1
 62
     7
  6
CONTINUOUS
 10
13378.6559
 20
24958.8547
  0
VERTEX
  8
LAYER1
 62
     7
  6
CONTINUOUS
 10
13489.6633
 20
24348.3149
  0
VERTEX
  8
LAYER1
 62
     7
  6
CONTINUOUS
 10
13511.8677
 20
23726.6860
  0
VERTEX
  8
LAYER1
 62
     7
  6
CONTINUOUS
 10
13289.8504
 20
23393.6612
  0
VERTEX
  8
LAYER1
 62
     7
  6
CONTINUOUS
 10
12879.1235
 20
23027.3264
  0
VERTEX
  8
LAYER1
 62
     7
  6
CONTINUOUS
 10
12279.6847
 20
22550.0008
  0
VERTEX
  8
LAYER1
 62
     7
  6
CONTINUOUS
 10
11935.5566
 20
21994.9730
  0
VERTEX
  8
LAYER1
 62
     7
  6
CONTINUOUS
 10
11713.5560
 20
21539.8184
  0
VERTEX
  8
LAYER1
 62
     7
  6
CONTINUOUS
 10
11580.3394
 20
21106.9015
  0
VERTEX
  8
LAYER1
 62
     7
  6
CONTINUOUS
 10
11247.3146
 20
20463.0706
  0
VERTEX
  8
LAYER1
 62
     7
  6
CONTINUOUS
 10
10603.4671
 20
19863.6342
  0
VERTEX
  8
LAYER1
 62
     7
  6
CONTINUOUS
 10
10203.8412
 20
19330.7941
  0
VERTEX
  8
LAYER1
 62
     7
  6
CONTINUOUS
 10
9937.4295
 20
18886.7572
  0
VERTEX
  8
LAYER1
 62
     7
  6
CONTINUOUS
 10
9737.6166
 20
18653.6389
  0
VERTEX
  8
LAYER1
 62
     7
  6
CONTINUOUS
 10
9160.3678
 20
18209.6043
  0
VERTEX
  8
LAYER1
 62
     7
  6
CONTINUOUS
 10
8716.3332
 20
17943.1926
  0
VERTEX
  8
LAYER1
 62
     7
  6
CONTINUOUS
 10
8227.9043
 20
17776.6707
  0
VERTEX
  8
LAYER1
 62
     7
  6
CONTINUOUS
 10
7783.8840
 20
17665.6775
  0
VERTEX
  8
LAYER1
 62
     7
  6
CONTINUOUS
 10
6995.7213
 20
17254.9507
  0
VERTEX
  8
LAYER1
 62
     7
  6
CONTINUOUS
 10
6351.8904
 20
16877.5149
  0
VERTEX
  8
LAYER1
 62
     7
  6
CONTINUOUS
 10
6029.9667
 20
16766.5217
  0
VERTEX
  8
LAYER1
 62
     7
  6
CONTINUOUS
 10
5519.3167
 20
16866.4282
  0
VERTEX
  8
LAYER1
 62
     7
  6
CONTINUOUS
 10
5008.6976
 20
17243.8485
  0
VERTEX
  8
LAYER1
 62
     7
  6
CONTINUOUS
 10
4686.7893
 20
17465.8658
  0
VERTEX
  8
LAYER1
 62
     7
  6
CONTINUOUS
 10
4364.8501
 20
17732.2930
  0
VERTEX
  8
LAYER1
 62
     7
  6
CONTINUOUS
 10
4054.0440
 20
18020.8935
  0
VERTEX
  8
LAYER1
 62
     7
  6
CONTINUOUS
 10
3543.4107
 20
18498.2358
  0
VERTEX
  8
LAYER1
 62
     7
  6
CONTINUOUS
 10
3243.6758
 20
18786.8519
  0
VERTEX
  8
LAYER1
 62
     7
  6
CONTINUOUS
 10
3021.6739
 20
19086.5701
  0
VERTEX
  8
LAYER1
 62
     7
  6
CONTINUOUS
 10
2821.8455
 20
19264.1787
  0
SEQEND
  8
LAYER1
  0
POLYLINE
  8
LAYER1
 62
     7
 66
     1
  6
CONTINUOUS
  0
VERTEX
  8
LAYER1
 62
     7
  6
CONTINUOUS
 10
3610.0094
 20
28499.9851
  0
VERTEX
  8
LAYER1
 62
     7
  6
CONTINUOUS
 10
3443.5042
 20
28289.0855
  0
VERTEX
  8
LAYER1
 62
     7
  6
CONTINUOUS
 10
3310.2900
 20
27800.6398
  0
VERTEX
  8
LAYER1
 62
     7
  6
CONTINUOUS
 10
3199.2813
 20
27212.3043
  0
VERTEX
  8
LAYER1
 62
     7
  6
CONTINUOUS
 10
3177.0770
 20
26579.5602
  0
VERTEX
  8
LAYER1
 62
     7
  6
CONTINUOUS
 10
3254.7779
 20
25957.9337
  0
VERTEX
  8
LAYER1
 62
     7
  6
CONTINUOUS
 10
3365.7878
 20
25425.0936
  0
VERTEX
  8
LAYER1
 62
     7
  6
CONTINUOUS
 10
3587.8051
 20
24703.5297
  0
VERTEX
  8
LAYER1
 62
     7
  6
CONTINUOUS
 10
4020.7375
 20
23981.9967
  0
VERTEX
  8
LAYER1
 62
     7
  6
CONTINUOUS
 10
4498.0643
 20
23426.9690
  0
VERTEX
  8
LAYER1
 62
     7
  6
CONTINUOUS
 10
5130.8084
 20
22971.8143
  0
VERTEX
  8
LAYER1
 62
     7
  6
CONTINUOUS
 10
5852.3581
 20
22672.0949
  0
VERTEX
  8
LAYER1
 62
     7
  6
CONTINUOUS
 10
6651.6075
 20
22339.0702
  0
VERTEX
  8
LAYER1
 62
     7
  6
CONTINUOUS
 10
7495.2536
 20
22261.3847
  0
VERTEX
  8
LAYER1
 62
     7
  6
CONTINUOUS
 10
8527.6237
 20
22139.2739
  0
VERTEX
  8
LAYER1
 62
     7
  6
CONTINUOUS
 10
9337.9931
 20
22039.3508
  0
VERTEX
  8
LAYER1
 62
     7
  6
CONTINUOUS
 10
9959.6196
 20
21972.7520
  0
VERTEX
  8
LAYER1
 62
     7
  6
CONTINUOUS
 10
10736.6789
 20
22039.3508
  0
VERTEX
  8
LAYER1
 62
     7
  6
CONTINUOUS
 10
11280.6200
 20
22183.6659
  0
VERTEX
  8
LAYER1
 62
     7
  6
CONTINUOUS
 10
11924.4532
 20
22616.5995
  0
VERTEX
  8
LAYER1
 62
     7
  6
CONTINUOUS
 10
12224.1726
 20
22949.6267
  0
VERTEX
  8
LAYER1
 62
     7
  6
CONTINUOUS
 10
12568.3007
 20
23748.8760
  0
VERTEX
  8
LAYER1
 62
     7
  6
CONTINUOUS
 10
12790.3037
 20
24770.1451
  0
VERTEX
  8
LAYER1
 62
     7
  6
CONTINUOUS
 10
12912.4288
 20
25402.8893
  0
VERTEX
  8
LAYER1
 62
     7
  6
CONTINUOUS
 10
13001.2343
 20
26002.3281
  0
VERTEX
  8
LAYER1
 62
     7
  6
CONTINUOUS
 10
12979.0300
 20
26979.1861
  0
VERTEX
  8
LAYER1
 62
     7
  6
CONTINUOUS
 10
12879.1235
 20
27611.9302
  0
VERTEX
  8
LAYER1
 62
     7
  6
CONTINUOUS
 10
12768.1137
 20
28333.4799
  0
VERTEX
  8
LAYER1
 62
     7
  6
CONTINUOUS
 10
12601.6084
 20
29055.0295
  0
VERTEX
  8
LAYER1
 62
     7
  6
CONTINUOUS
 10
12368.4878
 20
29965.2887
  0
VERTEX
  8
LAYER1
 62
     7
  6
CONTINUOUS
 10
12135.3695
 20
30564.7252
  0
VERTEX
  8
LAYER1
 62
     7
  6
CONTINUOUS
 10
11757.9480
 20
31141.9739
  0
VERTEX
  8
LAYER1
 62
     7
  6
CONTINUOUS
 10
11358.3245
 20
31741.4128
  0
VERTEX
  8
LAYER1
 62
     7
  6
CONTINUOUS
 10
11003.0930
 20
32174.3297
  0
VERTEX
  8
LAYER1
 62
     7
  6
CONTINUOUS
 10
10570.1761
 20
32429.6547
  0
VERTEX
  8
LAYER1
 62
     7
  6
CONTINUOUS
 10
10070.6437
 20
32673.8763
  0
VERTEX
  8
LAYER1
 62
     7
  6
CONTINUOUS
 10
9548.9070
 20
32873.6893
  0
VERTEX
  8
LAYER1
 62
     7
  6
CONTINUOUS
 10
8916.1605
 20
33029.0911
  0
VERTEX
  8
LAYER1
 62
     7
  6
CONTINUOUS
 10
8372.2194
 20
33162.2910
  0
VERTEX
  8
LAYER1
 62
     7
  6
CONTINUOUS
 10
7839.3817
 20
33206.6997
  0
VERTEX
  8
LAYER1
 62
     7
  6
CONTINUOUS
 10
7062.3367
 20
32951.3914
  0
VERTEX
  8
LAYER1
 62
     7
  6
CONTINUOUS
 10
6329.6861
 20
32718.2707
  0
VERTEX
  8
LAYER1
 62
     7
  6
CONTINUOUS
 10
5807.9482
 20
32440.7557
  0
VERTEX
  8
LAYER1
 62
     7
  6
CONTINUOUS
 10
5397.2201
 20
32174.3297
  0
VERTEX
  8
LAYER1
 62
     7
  6
CONTINUOUS
 10
4975.4066
 20
31841.3192
  0
VERTEX
  8
LAYER1
 62
     7
  6
CONTINUOUS
 10
4620.1751
 20
31375.0779
  0
VERTEX
  8
LAYER1
 62
     7
  6
CONTINUOUS
 10
4442.5665
 20
31064.2575
  0
VERTEX
  8
LAYER1
 62
     7
  6
CONTINUOUS
 10
4298.2513
 20
30775.6415
  0
VERTEX
  8
LAYER1
 62
     7
  6
CONTINUOUS
 10
4131.7306
 20
30409.3233
  0
VERTEX
  8
LAYER1
 62
     7
  6
CONTINUOUS
 10
4065.1307
 20
30187.3060
  0
VERTEX
  8
LAYER1
 62
     7
  6
CONTINUOUS
 10
3998.5319
 20
30076.2962
  0
SEQEND
  8
LAYER1
  0
POLYLINE
  8
LAYER1
 62
     7
 66
     1
  6
DASHED
  0
VERTEX
  8
LAYER1
 62
     7
  6
DASHED
 10
3998.5319
 20
30076.2962
  0
VERTEX
  8
LAYER1
 62
     7
  6
DASHED
 10
3709.9159
 20
29432.4487
  0
VERTEX
  8
LAYER1
 62
     7
  6
DASHED
 10
3643.3171
 20
29265.9434
  0
VERTEX
  8
LAYER1
 62
     7
  6
DASHED
 10
3521.1896
 20
28944.0197
  0
VERTEX
  8
LAYER1
 62
     7
  6
DASHED
 10
3443.5042
 20
28289.0855
  0
SEQEND
  8
LAYER1
  0
POLYLINE
  8
LAYER1
 62
     7
 66
     1
  6
CONTINUOUS
  0
VERTEX
  8
LAYER1
 62
     7
  6
CONTINUOUS
 10
335.2907
 20
29954.2020
  0
VERTEX
  8
LAYER1
 62
     7
  6
CONTINUOUS
 10
401.8894
 20
29754.3891
  0
VERTEX
  8
LAYER1
 62
     7
  6
CONTINUOUS
 10
657.1990
 20
29321.4555
  0
VERTEX
  8
LAYER1
 62
     7
  6
CONTINUOUS
 10
912.5240
 20
28977.3274
  0
VERTEX
  8
LAYER1
 62
     7
  6
CONTINUOUS
 10
1167.8323
 20
28722.0191
  0
VERTEX
  8
LAYER1
 62
     7
  6
CONTINUOUS
 10
1500.8582
 20
28488.8984
  0
VERTEX
  8
LAYER1
 62
     7
  6
CONTINUOUS
 10
1844.9875
 20
28322.3932
  0
VERTEX
  8
LAYER1
 62
     7
  6
CONTINUOUS
 10
2289.0066
 20
28300.1721
  0
VERTEX
  8
LAYER1
 62
     7
  6
CONTINUOUS
 10
2733.0412
 20
28411.1820
  0
VERTEX
  8
LAYER1
 62
     7
  6
CONTINUOUS
 10
3276.9835
 20
28855.2166
  0
VERTEX
  8
LAYER1
 62
     7
  6
CONTINUOUS
 10
3621.1116
 20
29265.9434
  0
VERTEX
  8
LAYER1
 62
     7
  6
CONTINUOUS
 10
3743.2236
 20
29587.8672
  0
VERTEX
  8
LAYER1
 62
     7
  6
CONTINUOUS
 10
3665.5060
 20
30309.4168
  0
VERTEX
  8
LAYER1
 62
     7
  6
CONTINUOUS
 10
3421.2998
 20
31019.8631
  0
VERTEX
  8
LAYER1
 62
     7
  6
CONTINUOUS
 10
3177.0770
 20
31430.5757
  0
VERTEX
  8
LAYER1
 62
     7
  6
CONTINUOUS
 10
2888.4598
 20
31763.6004
  0
VERTEX
  8
LAYER1
 62
     7
  6
CONTINUOUS
 10
2455.5274
 20
32107.7309
  0
VERTEX
  8
LAYER1
 62
     7
  6
CONTINUOUS
 10
1856.0897
 20
32307.5439
  0
VERTEX
  8
LAYER1
 62
     7
  6
CONTINUOUS
 10
1234.4477
 20
32229.8418
  0
VERTEX
  8
LAYER1
 62
     7
  6
CONTINUOUS
 10
723.7977
 20
32107.7309
  0
VERTEX
  8
LAYER1
 62
     7
  6
CONTINUOUS
 10
301.9830
 20
31752.5137
  0
VERTEX
  8
LAYER1
 62
     7
  6
CONTINUOUS
 10
213.1799
 20
31397.2847
  0
VERTEX
  8
LAYER1
 62
     7
  6
CONTINUOUS
 10
279.7941
 20
31008.7598
  0
VERTEX
  8
LAYER1
 62
     7
  6
CONTINUOUS
 10
346.3929
 20
30764.5381
  0
VERTEX
  8
LAYER1
 62
     7
  6
CONTINUOUS
 10
379.7006
 20
30409.3233
  0
VERTEX
  8
LAYER1
 62
     7
  6
CONTINUOUS
 10
335.2907
 20
29954.2020
  0
SEQEND
  8
LAYER1
  0
POLYLINE
  8
LAYER1
 62
     7
 66
     1
  6
CONTINUOUS
  0
VERTEX
  8
LAYER1
 62
     7
  6
CONTINUOUS
 10
1955.9807
 20
36481.4184
  0
VERTEX
  8
LAYER1
 62
     7
  6
CONTINUOUS
 10
2000.3906
 20
36448.1274
  0
VERTEX
  8
LAYER1
 62
     7
  6
CONTINUOUS
 10
2255.7311
 20
36359.3219
  0
VERTEX
  8
LAYER1
 62
     7
  6
CONTINUOUS
 10
2588.7415
 20
36392.6153
  0
VERTEX
  8
LAYER1
 62
     7
  6
CONTINUOUS
 10
2943.9575
 20
36625.7336
  0
VERTEX
  8
LAYER1
 62
     7
  6
CONTINUOUS
 10
3077.1705
 20
36847.7533
  0
VERTEX
  8
LAYER1
 62
     7
  6
CONTINUOUS
 10
3043.8640
 20
37291.7712
  0
VERTEX
  8
LAYER1
 62
     7
  6
CONTINUOUS
 10
2744.1446
 20
37502.6875
  0
VERTEX
  8
LAYER1
 62
     7
  6
CONTINUOUS
 10
2244.6122
 20
37524.8918
  0
VERTEX
  8
LAYER1
 62
     7
  6
CONTINUOUS
 10
1911.6018
 20
37380.5910
  0
VERTEX
  8
LAYER1
 62
     7
  6
CONTINUOUS
 10
1767.2866
 20
37114.1626
  0
VERTEX
  8
LAYER1
 62
     7
  6
CONTINUOUS
 10
1789.4910
 20
36903.2487
  0
VERTEX
  8
LAYER1
 62
     7
  6
CONTINUOUS
 10
1867.1931
 20
36736.7434
  0
VERTEX
  8
LAYER1
 62
     7
  6
CONTINUOUS
 10
1955.9807
 20
36481.4184
  0
SEQEND
  8
LAYER1
  0
POLYLINE
  8
LAYER1
 62
     7
 66
     1
  6
CONTINUOUS
  0
VERTEX
  8
LAYER1
 62
     7
  6
CONTINUOUS
 10
4653.4828
 20
38279.7468
  0
VERTEX
  8
LAYER1
 62
     7
  6
CONTINUOUS
 10
4675.6717
 20
38213.1338
  0
VERTEX
  8
LAYER1
 62
     7
  6
CONTINUOUS
 10
4764.4760
 20
38157.6360
  0
VERTEX
  8
LAYER1
 62
     7
  6
CONTINUOUS
 10
5108.6041
 20
38135.4317
  0
VERTEX
  8
LAYER1
 62
     7
  6
CONTINUOUS
 10
5241.8183
 20
38213.1338
  0
VERTEX
  8
LAYER1
 62
     7
  6
CONTINUOUS
 10
5375.0313
 20
38412.9610
  0
VERTEX
  8
LAYER1
 62
     7
  6
CONTINUOUS
 10
5386.1334
 20
38623.8606
  0
VERTEX
  8
LAYER1
 62
     7
  6
CONTINUOUS
 10
5141.9118
 20
38912.4934
  0
VERTEX
  8
LAYER1
 62
     7
  6
CONTINUOUS
 10
4808.8847
 20
39023.4889
  0
VERTEX
  8
LAYER1
 62
     7
  6
CONTINUOUS
 10
4498.0643
 20
38890.2723
  0
VERTEX
  8
LAYER1
 62
     7
  6
CONTINUOUS
 10
4420.3622
 20
38757.0748
  0
VERTEX
  8
LAYER1
 62
     7
  6
CONTINUOUS
 10
4409.2600
 20
38601.6563
  0
VERTEX
  8
LAYER1
 62
     7
  6
CONTINUOUS
 10
4453.6544
 20
38446.2521
  0
VERTEX
  8
LAYER1
 62
     7
  6
CONTINUOUS
 10
4653.4828
 20
38279.7468
  0
SEQEND
  8
LAYER1
  0
POLYLINE
  8
LAYER1
 62
     7
 66
     1
  6
CONTINUOUS
  0
VERTEX
  8
LAYER1
 62
     7
  6
CONTINUOUS
 10
-3405.6527
 20
30209.5104
  0
VERTEX
  8
LAYER1
 62
     7
  6
CONTINUOUS
 10
-3350.1561
 20
30154.0126
  0
VERTEX
  8
LAYER1
 62
     7
  6
CONTINUOUS
 10
-3117.0366
 20
30142.8949
  0
VERTEX
  8
LAYER1
 62
     7
  6
CONTINUOUS
 10
-2883.9160
 20
30331.6069
  0
VERTEX
  8
LAYER1
 62
     7
  6
CONTINUOUS
 10
-2650.8120
 20
30742.3338
  0
VERTEX
  8
LAYER1
 62
     7
  6
CONTINUOUS
 10
-2562.0089
 20
30986.5554
  0
VERTEX
  8
LAYER1
 62
     7
  6
CONTINUOUS
 10
-2528.7012
 20
31241.8804
  0
VERTEX
  8
LAYER1
 62
     7
  6
CONTINUOUS
 10
-2628.6076
 20
31463.8834
  0
VERTEX
  8
LAYER1
 62
     7
  6
CONTINUOUS
 10
-2861.7271
 20
31519.3955
  0
VERTEX
  8
LAYER1
 62
     7
  6
CONTINUOUS
 10
-3272.4385
 20
31408.3856
  0
VERTEX
  8
LAYER1
 62
     7
  6
CONTINUOUS
 10
-3516.6613
 20
31252.9838
  0
VERTEX
  8
LAYER1
 62
     7
  6
CONTINUOUS
 10
-3683.1665
 20
31064.2575
  0
VERTEX
  8
LAYER1
 62
     7
  6
CONTINUOUS
 10
-3771.9863
 20
30875.5479
  0
VERTEX
  8
LAYER1
 62
     7
  6
CONTINUOUS
 10
-3794.1919
 20
30575.8285
  0
VERTEX
  8
LAYER1
 62
     7
  6
CONTINUOUS
 10
-3749.7808
 20
30442.6310
  0
VERTEX
  8
LAYER1
 62
     7
  6
CONTINUOUS
 10
-3672.0644
 20
30364.9122
  0
VERTEX
  8
LAYER1
 62
     7
  6
CONTINUOUS
 10
-3405.6527
 20
30209.5104
  0
SEQEND
  8
LAYER1
  0
POLYLINE
  8
LAYER1
 62
     7
 66
     1
  6
CONTINUOUS
  0
VERTEX
  8
LAYER1
 62
     7
  6
CONTINUOUS
 10
-2140.1620
 20
28821.9255
  0
VERTEX
  8
LAYER1
 62
     7
  6
CONTINUOUS
 10
-2251.1718
 20
28777.5144
  0
VERTEX
  8
LAYER1
 62
     7
  6
CONTINUOUS
 10
-2661.9142
 20
28699.7980
  0
VERTEX
  8
LAYER1
 62
     7
  6
CONTINUOUS
 10
-2806.2305
 20
28744.2067
  0
VERTEX
  8
LAYER1
 62
     7
  6
CONTINUOUS
 10
-2961.6336
 20
29043.9261
  0
VERTEX
  8
LAYER1
 62
     7
  6
CONTINUOUS
 10
-2939.4447
 20
29388.0543
  0
VERTEX
  8
LAYER1
 62
     7
  6
CONTINUOUS
 10
-2795.1283
 20
29687.7737
  0
VERTEX
  8
LAYER1
 62
     7
  6
CONTINUOUS
 10
-2562.0089
 20
29798.7668
  0
VERTEX
  8
LAYER1
 62
     7
  6
CONTINUOUS
 10
-2384.3848
 20
29787.6801
  0
VERTEX
  8
LAYER1
 62
     7
  6
CONTINUOUS
 10
-2140.1620
 20
29687.7737
  0
VERTEX
  8
LAYER1
 62
     7
  6
CONTINUOUS
 10
-2051.3589
 20
29565.6628
  0
VERTEX
  8
LAYER1
 62
     7
  6
CONTINUOUS
 10
-1962.5700
 20
29232.6357
  0
VERTEX
  8
LAYER1
 62
     7
  6
CONTINUOUS
 10
-1951.4679
 20
29055.0295
  0
VERTEX
  8
LAYER1
 62
     7
  6
CONTINUOUS
 10
-1984.7601
 20
28899.6110
  0
VERTEX
  8
LAYER1
 62
     7
  6
CONTINUOUS
 10
-2140.1620
 20
28821.9255
  0
SEQEND
  8
LAYER1
  0
POLYLINE
  8
LAYER1
 62
     7
 66
     1
  6
CONTINUOUS
  0
VERTEX
  8
LAYER1
 62
     7
  6
CONTINUOUS
 10
-3538.8668
 20
26080.0278
  0
VERTEX
  8
LAYER1
 62
     7
  6
CONTINUOUS
 10
-3594.3789
 20
26124.4389
  0
VERTEX
  8
LAYER1
 62
     7
  6
CONTINUOUS
 10
-3672.0644
 20
26335.3528
  0
VERTEX
  8
LAYER1
 62
     7
  6
CONTINUOUS
 10
-3705.3876
 20
26557.3701
  0
VERTEX
  8
LAYER1
 62
     7
  6
CONTINUOUS
 10
-3649.8755
 20
26790.4908
  0
VERTEX
  8
LAYER1
 62
     7
  6
CONTINUOUS
 10
-3350.1561
 20
26934.7917
  0
VERTEX
  8
LAYER1
 62
     7
  6
CONTINUOUS
 10
-3105.9332
 20
26979.1861
  0
VERTEX
  8
LAYER1
 62
     7
  6
CONTINUOUS
 10
-2861.7271
 20
26990.3037
  0
VERTEX
  8
LAYER1
 62
     7
  6
CONTINUOUS
 10
-2717.4107
 20
26968.0827
  0
VERTEX
  8
LAYER1
 62
     7
  6
CONTINUOUS
 10
-2606.4176
 20
26901.4839
  0
VERTEX
  8
LAYER1
 62
     7
  6
CONTINUOUS
 10
-2517.5978
 20
26790.4908
  0
VERTEX
  8
LAYER1
 62
     7
  6
CONTINUOUS
 10
-2473.2046
 20
26657.2766
  0
VERTEX
  8
LAYER1
 62
     7
  6
CONTINUOUS
 10
-2573.0956
 20
26279.8408
  0
VERTEX
  8
LAYER1
 62
     7
  6
CONTINUOUS
 10
-2673.0020
 20
26124.4389
  0
VERTEX
  8
LAYER1
 62
     7
  6
CONTINUOUS
 10
-2906.1215
 20
25935.7127
  0
VERTEX
  8
LAYER1
 62
     7
  6
CONTINUOUS
 10
-3050.4379
 20
25869.1139
  0
VERTEX
  8
LAYER1
 62
     7
  6
CONTINUOUS
 10
-3339.0539
 20
25913.5226
  0
VERTEX
  8
LAYER1
 62
     7
  6
CONTINUOUS
 10
-3416.7548
 20
25957.9337
  0
VERTEX
  8
LAYER1
 62
     7
  6
CONTINUOUS
 10
-3538.8668
 20
26080.0278
  0
SEQEND
  8
LAYER1
  0
POLYLINE
  8
LAYER1
 62
     7
 66
     1
  6
CONTINUOUS
  0
VERTEX
  8
LAYER1
 62
     7
  6
CONTINUOUS
 10
-4904.2473
 20
24203.9973
  0
VERTEX
  8
LAYER1
 62
     7
  6
CONTINUOUS
 10
-4993.0671
 20
24159.6029
  0
VERTEX
  8
LAYER1
 62
     7
  6
CONTINUOUS
 10
-5237.2739
 20
24004.1844
  0
VERTEX
  8
LAYER1
 62
     7
  6
CONTINUOUS
 10
-5470.3779
 20
23782.1838
  0
VERTEX
  8
LAYER1
 62
     7
  6
CONTINUOUS
 10
-5625.8119
 20
23560.1665
  0
VERTEX
  8
LAYER1
 62
     7
  6
CONTINUOUS
 10
-5703.4979
 20
23338.1492
  0
VERTEX
  8
LAYER1
 62
     7
  6
CONTINUOUS
 10
-5581.4026
 20
23149.4372
  0
VERTEX
  8
LAYER1
 62
     7
  6
CONTINUOUS
 10
-5126.2807
 20
22838.6168
  0
VERTEX
  8
LAYER1
 62
     7
  6
CONTINUOUS
 10
-4882.0585
 20
22716.5060
  0
VERTEX
  8
LAYER1
 62
     7
  6
CONTINUOUS
 10
-4715.5372
 20
22661.0082
  0
VERTEX
  8
LAYER1
 62
     7
  6
CONTINUOUS
 10
-4515.7403
 20
22727.6094
  0
VERTEX
  8
LAYER1
 62
     7
  6
CONTINUOUS
 10
-4260.4153
 20
22949.6267
  0
VERTEX
  8
LAYER1
 62
     7
  6
CONTINUOUS
 10
-4105.0123
 20
23071.7208
  0
VERTEX
  8
LAYER1
 62
     7
  6
CONTINUOUS
 10
-3927.3894
 20
23271.5337
  0
VERTEX
  8
LAYER1
 62
     7
  6
CONTINUOUS
 10
-3860.7906
 20
23393.6612
  0
VERTEX
  8
LAYER1
 62
     7
  6
CONTINUOUS
 10
-3827.4829
 20
23604.5609
  0
VERTEX
  8
LAYER1
 62
     7
  6
CONTINUOUS
 10
-3949.5937
 20
23748.8760
  0
VERTEX
  8
LAYER1
 62
     7
  6
CONTINUOUS
 10
-4260.4153
 20
23970.8933
  0
VERTEX
  8
LAYER1
 62
     7
  6
CONTINUOUS
 10
-4426.9360
 20
24059.6964
  0
VERTEX
  8
LAYER1
 62
     7
  6
CONTINUOUS
 10
-4582.3391
 20
24148.5019
  0
VERTEX
  8
LAYER1
 62
     7
  6
CONTINUOUS
 10
-4693.3477
 20
24215.1007
  0
VERTEX
  8
LAYER1
 62
     7
  6
CONTINUOUS
 10
-4904.2473
 20
24203.9973
  0
SEQEND
  8
LAYER1
  0
POLYLINE
  8
LAYER1
 62
     7
 66
     1
  6
CONTINUOUS
  0
VERTEX
  8
LAYER1
 62
     7
  6
CONTINUOUS
 10
-6380.6526
 20
16333.5893
  0
VERTEX
  8
LAYER1
 62
     7
  6
CONTINUOUS
 10
-6447.2674
 20
16433.4946
  0
VERTEX
  8
LAYER1
 62
     7
  6
CONTINUOUS
 10
-6547.1739
 20
16666.6152
  0
VERTEX
  8
LAYER1
 62
     7
  6
CONTINUOUS
 10
-6569.3633
 20
16910.8214
  0
VERTEX
  8
LAYER1
 62
     7
  6
CONTINUOUS
 10
-6436.1652
 20
17066.2399
  0
VERTEX
  8
LAYER1
 62
     7
  6
CONTINUOUS
 10
-6092.0365
 20
17277.1395
  0
VERTEX
  8
LAYER1
 62
     7
  6
CONTINUOUS
 10
-5847.8143
 20
17321.5494
  0
VERTEX
  8
LAYER1
 62
     7
  6
CONTINUOUS
 10
-5570.2998
 20
17232.7451
  0
VERTEX
  8
LAYER1
 62
     7
  6
CONTINUOUS
 10
-5437.0862
 20
17121.7365
  0
VERTEX
  8
LAYER1
 62
     7
  6
CONTINUOUS
 10
-5314.9909
 20
16677.7019
  0
VERTEX
  8
LAYER1
 62
     7
  6
CONTINUOUS
 10
-5403.7946
 20
16344.6760
  0
VERTEX
  8
LAYER1
 62
     7
  6
CONTINUOUS
 10
-5525.9060
 20
16233.6828
  0
VERTEX
  8
LAYER1
 62
     7
  6
CONTINUOUS
 10
-5858.9319
 20
16200.3751
  0
VERTEX
  8
LAYER1
 62
     7
  6
CONTINUOUS
 10
-6080.9337
 20
16255.8872
  0
VERTEX
  8
LAYER1
 62
     7
  6
CONTINUOUS
 10
-6203.0452
 20
16300.2816
  0
VERTEX
  8
LAYER1
 62
     7
  6
CONTINUOUS
 10
-6380.6526
 20
16333.5893
  0
SEQEND
  8
LAYER1
  0
POLYLINE
  8
LAYER1
 62
     7
 66
     1
  6
CONTINUOUS
  0
VERTEX
  8
LAYER1
 62
     7
  6
CONTINUOUS
 10
-6014.3350
 20
19086.5701
  0
VERTEX
  8
LAYER1
 62
     7
  6
CONTINUOUS
 10
-5947.7356
 20
18942.2549
  0
VERTEX
  8
LAYER1
 62
     7
  6
CONTINUOUS
 10
-5703.4979
 20
18720.2376
  0
VERTEX
  8
LAYER1
 62
     7
  6
CONTINUOUS
 10
-5437.0862
 20
18564.8346
  0
VERTEX
  8
LAYER1
 62
     7
  6
CONTINUOUS
 10
-5281.6832
 20
18476.0148
  0
VERTEX
  8
LAYER1
 62
     7
  6
CONTINUOUS
 10
-5104.0603
 20
18442.7238
  0
VERTEX
  8
LAYER1
 62
     7
  6
CONTINUOUS
 10
-4771.0498
 20
18509.3225
  0
VERTEX
  8
LAYER1
 62
     7
  6
CONTINUOUS
 10
-4504.6381
 20
18720.2376
  0
VERTEX
  8
LAYER1
 62
     7
  6
CONTINUOUS
 10
-4415.8184
 20
19297.4864
  0
VERTEX
  8
LAYER1
 62
     7
  6
CONTINUOUS
 10
-4715.5372
 20
19741.5067
  0
VERTEX
  8
LAYER1
 62
     7
  6
CONTINUOUS
 10
-5203.9662
 20
19885.8219
  0
VERTEX
  8
LAYER1
 62
     7
  6
CONTINUOUS
 10
-5625.8119
 20
19752.6077
  0
VERTEX
  8
LAYER1
 62
     7
  6
CONTINUOUS
 10
-5836.7115
 20
19574.9991
  0
VERTEX
  8
LAYER1
 62
     7
  6
CONTINUOUS
 10
-5958.8384
 20
19352.9842
  0
VERTEX
  8
LAYER1
 62
     7
  6
CONTINUOUS
 10
-5981.0279
 20
19230.8877
  0
VERTEX
  8
LAYER1
 62
     7
  6
CONTINUOUS
 10
-6014.3350
 20
19086.5701
  0
SEQEND
  8
LAYER1
  0
POLYLINE
  8
LAYER1
 62
     7
 66
     1
  6
CONTINUOUS
  0
VERTEX
  8
LAYER1
 62
     7
  6
CONTINUOUS
 10
-5281.6832
 20
18476.0148
  0
VERTEX
  8
LAYER1
 62
     7
  6
CONTINUOUS
 10
-5270.5965
 20
18520.4247
  0
VERTEX
  8
LAYER1
 62
     7
  6
CONTINUOUS
 10
-5392.6924
 20
18575.9368
  0
VERTEX
  8
LAYER1
 62
     7
  6
CONTINUOUS
 10
-5525.9060
 20
18642.5367
  0
VERTEX
  8
LAYER1
 62
     7
  6
CONTINUOUS
 10
-5625.8119
 20
18742.4432
  0
VERTEX
  8
LAYER1
 62
     7
  6
CONTINUOUS
 10
-5703.5134
 20
18986.6636
  0
VERTEX
  8
LAYER1
 62
     7
  6
CONTINUOUS
 10
-5592.5048
 20
19219.7867
  0
VERTEX
  8
LAYER1
 62
     7
  6
CONTINUOUS
 10
-5414.8968
 20
19375.1862
  0
VERTEX
  8
LAYER1
 62
     7
  6
CONTINUOUS
 10
-5170.6745
 20
19508.3860
  0
VERTEX
  8
LAYER1
 62
     7
  6
CONTINUOUS
 10
-5026.3742
 20
19552.7971
  0
VERTEX
  8
LAYER1
 62
     7
  6
CONTINUOUS
 10
-4882.0585
 20
19530.6047
  0
VERTEX
  8
LAYER1
 62
     7
  6
CONTINUOUS
 10
-4726.6554
 20
19441.7873
  0
VERTEX
  8
LAYER1
 62
     7
  6
CONTINUOUS
 10
-4604.5440
 20
19330.7941
  0
VERTEX
  8
LAYER1
 62
     7
  6
CONTINUOUS
 10
-4504.6381
 20
19197.5799
  0
VERTEX
  8
LAYER1
 62
     7
  6
CONTINUOUS
 10
-4460.2282
 20
19064.3681
  0
VERTEX
  8
LAYER1
 62
     7
  6
CONTINUOUS
 10
-4460.2282
 20
19064.3681
  0
SEQEND
  8
LAYER1
  0
POLYLINE
  8
LAYER1
 62
     7
 66
     1
  6
CONTINUOUS
  0
VERTEX
  8
LAYER1
 62
     7
  6
CONTINUOUS
 10
-5847.8143
 20
21817.3501
  0
VERTEX
  8
LAYER1
 62
     7
  6
CONTINUOUS
 10
-5770.1282
 20
21883.9489
  0
VERTEX
  8
LAYER1
 62
     7
  6
CONTINUOUS
 10
-5537.0082
 20
22105.9662
  0
VERTEX
  8
LAYER1
 62
     7
  6
CONTINUOUS
 10
-5281.6832
 20
22183.6659
  0
VERTEX
  8
LAYER1
 62
     7
  6
CONTINUOUS
 10
-5004.1538
 20
22061.5718
  0
VERTEX
  8
LAYER1
 62
     7
  6
CONTINUOUS
 10
-4837.6486
 20
21917.2542
  0
VERTEX
  8
LAYER1
 62
     7
  6
CONTINUOUS
 10
-4782.1520
 20
21639.7249
  0
VERTEX
  8
LAYER1
 62
     7
  6
CONTINUOUS
 10
-4882.0585
 20
21395.5342
  0
VERTEX
  8
LAYER1
 62
     7
  6
CONTINUOUS
 10
-5004.1538
 20
21251.2190
  0
VERTEX
  8
LAYER1
 62
     7
  6
CONTINUOUS
 10
-5248.3760
 20
21162.4136
  0
VERTEX
  8
LAYER1
 62
     7
  6
CONTINUOUS
 10
-5403.7946
 20
21229.0147
  0
VERTEX
  8
LAYER1
 62
     7
  6
CONTINUOUS
 10
-5537.0082
 20
21373.3132
  0
VERTEX
  8
LAYER1
 62
     7
  6
CONTINUOUS
 10
-5648.0013
 20
21517.6307
  0
VERTEX
  8
LAYER1
 62
     7
  6
CONTINUOUS
 10
-5714.6162
 20
21617.5372
  0
VERTEX
  8
LAYER1
 62
     7
  6
CONTINUOUS
 10
-5847.8143
 20
21817.3501
  0
SEQEND
  8
LAYER1
  0
POLYLINE
  8
LAYER1
 62
     7
 66
     1
  6
CONTINUOUS
  0
VERTEX
  8
LAYER1
 62
     7
  6
CONTINUOUS
 10
-5847.8143
 20
21817.3501
  0
VERTEX
  8
LAYER1
 62
     7
  6
CONTINUOUS
 10
-5759.0100
 20
21772.9391
  0
VERTEX
  8
LAYER1
 62
     7
  6
CONTINUOUS
 10
-5614.7097
 20
21872.8455
  0
VERTEX
  8
LAYER1
 62
     7
  6
CONTINUOUS
 10
-5437.0862
 20
21950.5620
  0
VERTEX
  8
LAYER1
 62
     7
  6
CONTINUOUS
 10
-5259.4788
 20
21928.3576
  0
VERTEX
  8
LAYER1
 62
     7
  6
CONTINUOUS
 10
-5137.3829
 20
21828.4511
  0
VERTEX
  8
LAYER1
 62
     7
  6
CONTINUOUS
 10
-5081.8708
 20
21595.3472
  0
VERTEX
  8
LAYER1
 62
     7
  6
CONTINUOUS
 10
-5115.1779
 20
21462.1330
  0
VERTEX
  8
LAYER1
 62
     7
  6
CONTINUOUS
 10
-5248.3760
 20
21162.4136
  0
SEQEND
  8
LAYER1
  0
POLYLINE
  8
LAYER1
 62
     3
 66
     1
  6
CONTINUOUS
  0
VERTEX
  8
LAYER1
 62
     3
  6
CONTINUOUS
 10
646.1123
 20
27212.3043
  0
VERTEX
  8
LAYER1
 62
     3
  6
CONTINUOUS
 10
4187.2427
 20
27212.3043
  0
SEQEND
  8
LAYER1
  0
POLYLINE
  8
LAYER1
 62
     3
 66
     1
  6
CONTINUOUS
  0
VERTEX
  8
LAYER1
 62
     3
  6
CONTINUOUS
 10
11924.4532
 20
27212.3043
  0
VERTEX
  8
LAYER1
 62
     3
  6
CONTINUOUS
 10
14766.2407
 20
27212.3043
  0
SEQEND
  8
LAYER1
  0
POLYLINE
  8
LAYER1
 62
     7
 66
     1
  6
CONTINUOUS
  0
VERTEX
  8
LAYER1
 62
     7
  6
CONTINUOUS
 10
26894.5979
 20
10780.3716
  0
VERTEX
  8
LAYER1
 62
     7
  6
CONTINUOUS
 10
26894.5979
 20
16352.9356
  0
SEQEND
  8
LAYER1
  0
POLYLINE
  8
LAYER1
 62
     7
 66
     1
  6
CONTINUOUS
  0
VERTEX
  8
LAYER1
 62
     7
  6
CONTINUOUS
 10
-13975.8597
 20
11957.3547
  0
VERTEX
  8
LAYER1
 62
     7
  6
CONTINUOUS
 10
-8458.4635
 20
11957.3547
  0
SEQEND
  8
LAYER1
  0
POLYLINE
  8
LAYER1
 62
     7
 66
     1
  6
CONTINUOUS
  0
VERTEX
  8
LAYER1
 62
     7
  6
CONTINUOUS
 10
26894.5979
 20
10780.3716
  0
VERTEX
  8
LAYER1
 62
     7
  6
CONTINUOUS
 10
26894.5979
 20
16352.9356
  0
SEQEND
  8
LAYER1
  0
POLYLINE
  8
LAYER1
 62
     7
 66
     1
  6
CONTINUOUS
  0
VERTEX
  8
LAYER1
 62
     7
  6
CONTINUOUS
 10
26894.5979
 20
16352.9356
  0
VERTEX
  8
LAYER1
 62
     7
  6
CONTINUOUS
 10
26512.9138
 20
15251.4995
  0
SEQEND
  8
LAYER1
  0
POLYLINE
  8
LAYER1
 62
     7
 66
     1
  6
CONTINUOUS
  0
VERTEX
  8
LAYER1
 62
     7
  6
CONTINUOUS
 10
-8458.4635
 20
11957.3547
  0
VERTEX
  8
LAYER1
 62
     7
  6
CONTINUOUS
 10
-8458.4635
 20
12551.9673
  0
SEQEND
  8
LAYER1
  0
POLYLINE
  8
LAYER1
 62
     7
 66
     1
  6
CONTINUOUS
  0
VERTEX
  8
LAYER1
 62
     7
  6
CONTINUOUS
 10
-13975.8597
 20
12546.2524
  0
VERTEX
  8
LAYER1
 62
     7
  6
CONTINUOUS
 10
-13975.8597
 20
11957.3547
  0
SEQEND
  8
LAYER1
  0
POLYLINE
  8
LAYER1
 62
     7
 66
     1
  6
CONTINUOUS
  0
VERTEX
  8
LAYER1
 62
     7
  6
CONTINUOUS
 10
-8458.4635
 20
11957.3547
  0
VERTEX
  8
LAYER1
 62
     7
  6
CONTINUOUS
 10
-13975.8597
 20
11957.3547
  0
SEQEND
  8
LAYER1
  0
ENDSEC
  0
EOF
