  0
SECTION
  2
HEADER
  9
$ACADVER
  1
AC1004
  9
$EXTMIN
 10
2.5527
 20
6.2570
  9
$EXTMAX
 10
15.1914
 20
19.3844
  9
$LIMMIN
 10
2.5527
 20
6.2570
  9
$LIMMAX
 10
15.1914
 20
19.3844
  9
$INSBASE
 10
0.0
 20
0.0
  9
$VIEWCTR
 10
7.21903
 20
4.5
  9
$VIEWSIZE
 40
9.0
  9
$SNAPMODE
 70
     0
  9
$SNAPUNIT
 10
1.0
 20
1.0
  9
$SNAPBASE
 10
0.0
 20
0.0
  9
$SNAPANG
 50
0.0
  9
$SNAPSTYLE
 70
     0
  9
$SNAPISOPAIR
 70
     0
  9
$GRIDMODE
 70
     0
  9
$GRIDUNIT
 10
0.0
 20
0.0
  9
$ORTHOMODE
 70
     0
  9
$REGENMODE
 70
     1
  9
$FILLMODE
 70
     1
  9
$QTEXTMODE
 70
     0
  9
$DRAGMODE
 70
     2
  9
$LTSCALE
 40
1.0
  9
$OSMODE
 70
     0
  9
$ATTMODE
 70
     1
  9
$TEXTSIZE
 40
0.2
  9
$TRACEWID
 40
0.05
  9
$TEXTSTYLE
  7
STANDARD
  9
$CLAYER
  8
0
  9
$CELTYPE
  6
BYLAYER
  9
$CECOLOR
 62
   256
  9
$DIMSCALE
 40
1.0
  9
$DIMASZ
 40
0.18
  9
$DIMEXO
 40
0.0625
  9
$DIMDLI
 40
0.38
  9
$DIMRND
 40
0.0
  9
$DIMDLE
 40
0.0
  9
$DIMEXE
 40
0.18
  9
$DIMTP
 40
0.0
  9
$DIMTM
 40
0.0
  9
$DIMTXT
 40
0.18
  9
$DIMCEN
 40
0.09
  9
$DIMTSZ
 40
0.0
  9
$DIMTOL
 70
     0
  9
$DIMLIM
 70
     0
  9
$DIMTIH
 70
     1
  9
$DIMTOH
 70
     1
  9
$DIMSE1
 70
     0
  9
$DIMSE2
 70
     0
  9
$DIMTAD
 70
     0
  9
$DIMZIN
 70
     0
  9
$DIMBLK
  1

  9
$DIMASO
 70
     1
  9
$DIMSHO
 70
     0
  9
$DIMPOST
  1

  9
$DIMAPOST
  1

  9
$DIMALT
 70
     0
  9
$DIMALTD
 70
     2
  9
$DIMALTF
 40
25.4
  9
$DIMLFAC
 40
1.0
  9
$LUNITS
 70
     2
  9
$LUPREC
 70
     4
  9
$AXISMODE
 70
     0
  9
$AXISUNIT
 10
0.0
 20
0.0
  9
$SKETCHINC
 40
0.1
  9
$FILLETRAD
 40
0.0
  9
$AUNITS
 70
     0
  9
$AUPREC
 70
     0
  9
$MENU
  1
acad
  9
$ELEVATION
 40
0.0
  9
$THICKNESS
 40
0.0
  9
$VIEWDIR
 10
0.0
 20
0.0
 30
1.0
  9
$LIMCHECK
 70
     0
  9
$BLIPMODE
 70
     1
  9
$CHAMFERA
 40
0.0
  9
$CHAMFERB
 40
0.0
  9
$FASTZOOM
 70
     1
  9
$SKPOLY
 70
     0
  9
$TDCREATE
 40
2447222.5666886573
  9
$TDUPDATE
 40
2447222.5666886573
  9
$TDINDWG
 40
0.0000000000
  9
$TDUSRTIMER
 40
0.0000000000
  9
$USRTIMER
 70
     1
  9
$ANGBASE
 50
0.0
  9
$ANGDIR
 70
     0
  9
$PDMODE
 70
     0
  9
$PDSIZE
 40
0.0
  9
$PLINEWID
 40
0.0
  9
$COORDS
 70
     0
  9
$SPLFRAME
 70
     0
  9
$SPLINESEGS
 70
     8
  9
$ATTDIA
 70
     0
  9
$ATTREQ
 70
     1
  9
$USERI1
 70
     0
  9
$USERI2
 70
     0
  9
$USERI3
 70
     0
  9
$USERI4
 70
     0
  9
$USERI5
 70
     0
  9
$USERR1
 40
0.0
  9
$USERR2
 40
0.0
  9
$USERR3
 40
0.0
  9
$USERR4
 40
0.0
  9
$USERR5
 40
0.0
  0
ENDSEC
  0
SECTION
  2
TABLES
  0
TABLE
  2
LTYPE
 70
     13
  0
LTYPE
  2
CONTINUOUS
 70
    64
  3
Solid line
 72
    65
 73
     0
 40
0.0
  0
LTYPE
  2
DASHED
 70
    64
  3
__ __ __ __ __ __ __ __ __ __ __ __ __ __ __
 72
    65
 73
     2
 40
0.75
 49
0.5
 49
-0.25
  0
LTYPE
  2
HIDDEN
 70
    64
  3
_ _ _ _ _ _ _ _ _ _ _ _ _ _ _ _ _ _ _ _ _ _ _
 72
    65
 73
     2
 40
0.375
 49
0.25
 49
-0.125
  0
LTYPE
  2
CENTER
 70
    64
  3
____ _ ____ _ ____ _ ____ _ ____ _ ____ _ ____
 72
    65
 73
     4
 40
2.0
 49
1.25
 49
-0.25
 49
0.25
 49
-0.25
  0
LTYPE
  2
PHANTOM
 70
    64
  3
_____ _ _ _____ _ _ _____ _ _ _____ _ _ ____
 72
    65
 73
     6
 40
2.5
 49
1.25
 49
-0.25
 49
0.25
 49
-0.25
 49
0.25
 49
-0.25
  0
LTYPE
  2
DOT
 70
    64
  3
...............................................
 72
    65
 73
     2
 40
0.25
 49
0.0
 49
-0.25
  0
LTYPE
  2
DASHDOT
 70
    64
  3
__ . __ . __ . __ . __ . __ . __ . __ . __ . __
 72
    65
 73
     4
 40
1.0
 49
0.5
 49
-0.25
 49
0.0
 49
-0.25
  0
LTYPE
  2
BORDER
 70
    64
  3
__ __ . __ __ . __ __ . __ __ . __ __ . __ __
 72
    65
 73
     6
 40
1.75
 49
0.5
 49
-0.25
 49
0.5
 49
-0.25
 49
0.0
 49
-0.25
  0
LTYPE
  2
DIVIDE
 70
    64
  3
__ . . __ . . __ . . __ . . __ . . __ . . __
 72
    65
 73
     6
 40
1.25
 49
0.5
 49
-0.25
 49
0.0
 49
-0.25
 49
0.0
 49
-0.25
  0
LTYPE
  2
DCTYPE1
 70
    64
  3
__ . . __ . . __ . . __ . . __ . . __ . . __
 72
    65
 73
     8
 40
2.5
 49
0.5
 49
-0.25
 49
0.125
 49
-0.25
 49
0.25
 49
-0.25
 49
0.125
 49
-0.25
  0
LTYPE
  2
DCTYPE2
 70
    64
  3
__ . . __ . . __ . . __ . . __ . . __ . . __
 72
    65
 73
     6
 40
2.05
 49
1.0
 49
-0.3
 49
0.15
 49
-0.15
 49
0.15
 49
-0.3
  0
LTYPE
  2
DCTYPE3
 70
    64
  3
__ . . __ . . __ . . __ . . __ . . __ . . __
 72
    65
 73
     6
 40
2.5
 49
0.8
 49
-0.2
 49
0.8
 49
-0.2
 49
0.3
 49
-0.2
  0
LTYPE
  2
DCTYPE4
 70
    64
  3
__ . . __ . . __ . . __ . . __ . . __ . . __
 72
    65
 73
     10
 40
3.97
 49
1.75
 49
-0.3
 49
0.3
 49
-0.3
 49
0.06
 49
-0.3
 49
0.06
 49
-0.3
 49
0.3
 49
-0.3
  0
ENDTAB
  0
TABLE
  2
LAYER
 70
    153
  0
LAYER
  2
LAYER1
 70
 64
 62
     7
  6
CONTINUOUS
  0
ENDTAB
  0
ENDSEC
  0
SECTION
  2
BLOCKS
  0
ENDSEC
  0
SECTION
  2
ENTITIES
  0
POLYLINE
  8
LAYER1
 62
     7
 66
     1
  6
CONTINUOUS
  0
VERTEX
  8
LAYER1
 62
     7
  6
CONTINUOUS
 10
7.8973
 20
18.6714
  0
VERTEX
  8
LAYER1
 62
     7
  6
CONTINUOUS
 10
7.9472
 20
18.7013
  0
VERTEX
  8
LAYER1
 62
     7
  6
CONTINUOUS
 10
8.0519
 20
18.7661
  0
VERTEX
  8
LAYER1
 62
     7
  6
CONTINUOUS
 10
8.1566
 20
18.8160
  0
VERTEX
  8
LAYER1
 62
     7
  6
CONTINUOUS
 10
8.3959
 20
18.8858
  0
VERTEX
  8
LAYER1
 62
     7
  6
CONTINUOUS
 10
8.5754
 20
18.9406
  0
VERTEX
  8
LAYER1
 62
     7
  6
CONTINUOUS
 10
8.6502
 20
18.9955
  0
VERTEX
  8
LAYER1
 62
     7
  6
CONTINUOUS
 10
8.7549
 20
19.0753
  0
VERTEX
  8
LAYER1
 62
     7
  6
CONTINUOUS
 10
9.0241
 20
19.2198
  0
VERTEX
  8
LAYER1
 62
     7
  6
CONTINUOUS
 10
9.2534
 20
19.3196
  0
VERTEX
  8
LAYER1
 62
     7
  6
CONTINUOUS
 10
9.5277
 20
19.3844
  0
VERTEX
  8
LAYER1
 62
     7
  6
CONTINUOUS
 10
9.7670
 20
19.3794
  0
VERTEX
  8
LAYER1
 62
     7
  6
CONTINUOUS
 10
10.0312
 20
19.3445
  0
VERTEX
  8
LAYER1
 62
     7
  6
CONTINUOUS
 10
10.1459
 20
19.2747
  0
VERTEX
  8
LAYER1
 62
     7
  6
CONTINUOUS
 10
10.2057
 20
19.1002
  0
VERTEX
  8
LAYER1
 62
     7
  6
CONTINUOUS
 10
10.2007
 20
18.8908
  0
VERTEX
  8
LAYER1
 62
     7
  6
CONTINUOUS
 10
10.2306
 20
18.6963
  0
VERTEX
  8
LAYER1
 62
     7
  6
CONTINUOUS
 10
10.3752
 20
18.4471
  0
VERTEX
  8
LAYER1
 62
     7
  6
CONTINUOUS
 10
10.4650
 20
18.2925
  0
VERTEX
  8
LAYER1
 62
     7
  6
CONTINUOUS
 10
10.5647
 20
18.1729
  0
VERTEX
  8
LAYER1
 62
     7
  6
CONTINUOUS
 10
10.8339
 20
17.9585
  0
VERTEX
  8
LAYER1
 62
     7
  6
CONTINUOUS
 10
10.9785
 20
17.8887
  0
VERTEX
  8
LAYER1
 62
     7
  6
CONTINUOUS
 10
11.1630
 20
17.7192
  0
VERTEX
  8
LAYER1
 62
     7
  6
CONTINUOUS
 10
11.2627
 20
17.5147
  0
VERTEX
  8
LAYER1
 62
     7
  6
CONTINUOUS
 10
11.3175
 20
17.3103
  0
VERTEX
  8
LAYER1
 62
     7
  6
CONTINUOUS
 10
11.3724
 20
17.0610
  0
VERTEX
  8
LAYER1
 62
     7
  6
CONTINUOUS
 10
11.4222
 20
16.8516
  0
VERTEX
  8
LAYER1
 62
     7
  6
CONTINUOUS
 10
11.4771
 20
16.6422
  0
VERTEX
  8
LAYER1
 62
     7
  6
CONTINUOUS
 10
11.5369
 20
16.5326
  0
VERTEX
  8
LAYER1
 62
     7
  6
CONTINUOUS
 10
11.6865
 20
16.3281
  0
VERTEX
  8
LAYER1
 62
     7
  6
CONTINUOUS
 10
11.7912
 20
16.2135
  0
VERTEX
  8
LAYER1
 62
     7
  6
CONTINUOUS
 10
12.0255
 20
16.0539
  0
VERTEX
  8
LAYER1
 62
     7
  6
CONTINUOUS
 10
12.1751
 20
15.9742
  0
VERTEX
  8
LAYER1
 62
     7
  6
CONTINUOUS
 10
12.3595
 20
15.8894
  0
VERTEX
  8
LAYER1
 62
     7
  6
CONTINUOUS
 10
12.5440
 20
15.7598
  0
VERTEX
  8
LAYER1
 62
     7
  6
CONTINUOUS
 10
12.6836
 20
15.6900
  0
VERTEX
  8
LAYER1
 62
     7
  6
CONTINUOUS
 10
12.9080
 20
15.6052
  0
VERTEX
  8
LAYER1
 62
     7
  6
CONTINUOUS
 10
13.2470
 20
15.4856
  0
VERTEX
  8
LAYER1
 62
     7
  6
CONTINUOUS
 10
13.4315
 20
15.4158
  0
VERTEX
  8
LAYER1
 62
     7
  6
CONTINUOUS
 10
13.5910
 20
15.3360
  0
VERTEX
  8
LAYER1
 62
     7
  6
CONTINUOUS
 10
13.7406
 20
15.1964
  0
VERTEX
  8
LAYER1
 62
     7
  6
CONTINUOUS
 10
13.8752
 20
15.0369
  0
VERTEX
  8
LAYER1
 62
     7
  6
CONTINUOUS
 10
14.0248
 20
14.8723
  0
VERTEX
  8
LAYER1
 62
     7
  6
CONTINUOUS
 10
14.1644
 20
14.7228
  0
VERTEX
  8
LAYER1
 62
     7
  6
CONTINUOUS
 10
14.3040
 20
14.5682
  0
VERTEX
  8
LAYER1
 62
     7
  6
CONTINUOUS
 10
14.3438
 20
14.5084
  0
VERTEX
  8
LAYER1
 62
     7
  6
CONTINUOUS
 10
14.4436
 20
14.3488
  0
VERTEX
  8
LAYER1
 62
     7
  6
CONTINUOUS
 10
14.5582
 20
14.1793
  0
VERTEX
  8
LAYER1
 62
     7
  6
CONTINUOUS
 10
14.7078
 20
14.0248
  0
VERTEX
  8
LAYER1
 62
     7
  6
CONTINUOUS
 10
14.8773
 20
13.8203
  0
VERTEX
  8
LAYER1
 62
     7
  6
CONTINUOUS
 10
15.0020
 20
13.6508
  0
VERTEX
  8
LAYER1
 62
     7
  6
CONTINUOUS
 10
15.0618
 20
13.5312
  0
VERTEX
  8
LAYER1
 62
     7
  6
CONTINUOUS
 10
15.0967
 20
13.2819
  0
VERTEX
  8
LAYER1
 62
     7
  6
CONTINUOUS
 10
15.1116
 20
13.0276
  0
VERTEX
  8
LAYER1
 62
     7
  6
CONTINUOUS
 10
15.0967
 20
12.7733
  0
VERTEX
  8
LAYER1
 62
     7
  6
CONTINUOUS
 10
15.0518
 20
12.5141
  0
VERTEX
  8
LAYER1
 62
     7
  6
CONTINUOUS
 10
15.0119
 20
12.3147
  0
VERTEX
  8
LAYER1
 62
     7
  6
CONTINUOUS
 10
14.9720
 20
11.9806
  0
VERTEX
  8
LAYER1
 62
     7
  6
CONTINUOUS
 10
14.9371
 20
11.7313
  0
VERTEX
  8
LAYER1
 62
     7
  6
CONTINUOUS
 10
14.8823
 20
11.5219
  0
VERTEX
  8
LAYER1
 62
     7
  6
CONTINUOUS
 10
14.7178
 20
11.3325
  0
VERTEX
  8
LAYER1
 62
     7
  6
CONTINUOUS
 10
14.4685
 20
11.1779
  0
VERTEX
  8
LAYER1
 62
     7
  6
CONTINUOUS
 10
14.2641
 20
11.0982
  0
VERTEX
  8
LAYER1
 62
     7
  6
CONTINUOUS
 10
14.0198
 20
10.9835
  0
VERTEX
  8
LAYER1
 62
     7
  6
CONTINUOUS
 10
13.7655
 20
10.8539
  0
VERTEX
  8
LAYER1
 62
     7
  6
CONTINUOUS
 10
13.5711
 20
10.6943
  0
VERTEX
  8
LAYER1
 62
     7
  6
CONTINUOUS
 10
13.3966
 20
10.5846
  0
VERTEX
  8
LAYER1
 62
     7
  6
CONTINUOUS
 10
13.1523
 20
10.5547
  0
VERTEX
  8
LAYER1
 62
     7
  6
CONTINUOUS
 10
12.9030
 20
10.5946
  0
VERTEX
  8
LAYER1
 62
     7
  6
CONTINUOUS
 10
12.6537
 20
10.6694
  0
VERTEX
  8
LAYER1
 62
     7
  6
CONTINUOUS
 10
12.4792
 20
10.7641
  0
VERTEX
  8
LAYER1
 62
     7
  6
CONTINUOUS
 10
12.1352
 20
10.9885
  0
VERTEX
  8
LAYER1
 62
     7
  6
CONTINUOUS
 10
11.8959
 20
11.0982
  0
VERTEX
  8
LAYER1
 62
     7
  6
CONTINUOUS
 10
11.6017
 20
11.2228
  0
VERTEX
  8
LAYER1
 62
     7
  6
CONTINUOUS
 10
11.3574
 20
11.3026
  0
VERTEX
  8
LAYER1
 62
     7
  6
CONTINUOUS
 10
11.0682
 20
11.4172
  0
VERTEX
  8
LAYER1
 62
     7
  6
CONTINUOUS
 10
10.8239
 20
11.4671
  0
VERTEX
  8
LAYER1
 62
     7
  6
CONTINUOUS
 10
10.5747
 20
11.4721
  0
VERTEX
  8
LAYER1
 62
     7
  6
CONTINUOUS
 10
10.3154
 20
11.4820
  0
VERTEX
  8
LAYER1
 62
     7
  6
CONTINUOUS
 10
10.0711
 20
11.4521
  0
VERTEX
  8
LAYER1
 62
     7
  6
CONTINUOUS
 10
9.8567
 20
11.4123
  0
VERTEX
  8
LAYER1
 62
     7
  6
CONTINUOUS
 10
9.6473
 20
11.3923
  0
VERTEX
  8
LAYER1
 62
     7
  6
CONTINUOUS
 10
9.5925
 20
11.3923
  0
VERTEX
  8
LAYER1
 62
     7
  6
CONTINUOUS
 10
9.4230
 20
11.4521
  0
VERTEX
  8
LAYER1
 62
     7
  6
CONTINUOUS
 10
9.2235
 20
11.6067
  0
VERTEX
  8
LAYER1
 62
     7
  6
CONTINUOUS
 10
8.9892
 20
11.7613
  0
VERTEX
  8
LAYER1
 62
     7
  6
CONTINUOUS
 10
8.8197
 20
11.8859
  0
VERTEX
  8
LAYER1
 62
     7
  6
CONTINUOUS
 10
8.6053
 20
12.1302
  0
VERTEX
  8
LAYER1
 62
     7
  6
CONTINUOUS
 10
8.4607
 20
12.2698
  0
VERTEX
  8
LAYER1
 62
     7
  6
CONTINUOUS
 10
8.2563
 20
12.4194
  0
VERTEX
  8
LAYER1
 62
     7
  6
CONTINUOUS
 10
8.0519
 20
12.5639
  0
VERTEX
  8
LAYER1
 62
     7
  6
CONTINUOUS
 10
8.0070
 20
12.6736
  0
VERTEX
  8
LAYER1
 62
     7
  6
CONTINUOUS
 10
8.0070
 20
12.8731
  0
VERTEX
  8
LAYER1
 62
     7
  6
CONTINUOUS
 10
8.0020
 20
13.0127
  0
VERTEX
  8
LAYER1
 62
     7
  6
CONTINUOUS
 10
7.9123
 20
13.1672
  0
VERTEX
  8
LAYER1
 62
     7
  6
CONTINUOUS
 10
7.8874
 20
13.3268
  0
VERTEX
  8
LAYER1
 62
     7
  6
CONTINUOUS
 10
7.8076
 20
13.5062
  0
VERTEX
  8
LAYER1
 62
     7
  6
CONTINUOUS
 10
7.6580
 20
13.6708
  0
VERTEX
  8
LAYER1
 62
     7
  6
CONTINUOUS
 10
7.4586
 20
13.8552
  0
VERTEX
  8
LAYER1
 62
     7
  6
CONTINUOUS
 10
7.2891
 20
14.0547
  0
VERTEX
  8
LAYER1
 62
     7
  6
CONTINUOUS
 10
7.1944
 20
14.2890
  0
VERTEX
  8
LAYER1
 62
     7
  6
CONTINUOUS
 10
7.1894
 20
14.4884
  0
VERTEX
  8
LAYER1
 62
     7
  6
CONTINUOUS
 10
7.2093
 20
14.6579
  0
VERTEX
  8
LAYER1
 62
     7
  6
CONTINUOUS
 10
7.2243
 20
14.8225
  0
VERTEX
  8
LAYER1
 62
     7
  6
CONTINUOUS
 10
7.2442
 20
15.1066
  0
VERTEX
  8
LAYER1
 62
     7
  6
CONTINUOUS
 10
7.2293
 20
15.3011
  0
VERTEX
  8
LAYER1
 62
     7
  6
CONTINUOUS
 10
7.1894
 20
15.5404
  0
VERTEX
  8
LAYER1
 62
     7
  6
CONTINUOUS
 10
7.1395
 20
15.7398
  0
VERTEX
  8
LAYER1
 62
     7
  6
CONTINUOUS
 10
7.0797
 20
15.9841
  0
VERTEX
  8
LAYER1
 62
     7
  6
CONTINUOUS
 10
7.0398
 20
16.1786
  0
VERTEX
  8
LAYER1
 62
     7
  6
CONTINUOUS
 10
6.9700
 20
16.4628
  0
VERTEX
  8
LAYER1
 62
     7
  6
CONTINUOUS
 10
6.9451
 20
16.7469
  0
VERTEX
  8
LAYER1
 62
     7
  6
CONTINUOUS
 10
6.9650
 20
17.0710
  0
VERTEX
  8
LAYER1
 62
     7
  6
CONTINUOUS
 10
6.9999
 20
17.3602
  0
VERTEX
  8
LAYER1
 62
     7
  6
CONTINUOUS
 10
7.0099
 20
17.5995
  0
VERTEX
  8
LAYER1
 62
     7
  6
CONTINUOUS
 10
7.1096
 20
17.8986
  0
VERTEX
  8
LAYER1
 62
     7
  6
CONTINUOUS
 10
7.1894
 20
18.0482
  0
VERTEX
  8
LAYER1
 62
     7
  6
CONTINUOUS
 10
7.4287
 20
18.2975
  0
VERTEX
  8
LAYER1
 62
     7
  6
CONTINUOUS
 10
7.6281
 20
18.4620
  0
VERTEX
  8
LAYER1
 62
     7
  6
CONTINUOUS
 10
7.7428
 20
18.5418
  0
VERTEX
  8
LAYER1
 62
     7
  6
CONTINUOUS
 10
7.8973
 20
18.6714
  0
SEQEND
  8
LAYER1
  0
POLYLINE
  8
LAYER1
 62
     7
 66
     1
  6
CONTINUOUS
  0
VERTEX
  8
LAYER1
 62
     7
  6
CONTINUOUS
 10
8.2962
 20
15.3759
  0
VERTEX
  8
LAYER1
 62
     7
  6
CONTINUOUS
 10
8.3111
 20
15.4656
  0
VERTEX
  8
LAYER1
 62
     7
  6
CONTINUOUS
 10
8.3261
 20
15.5254
  0
VERTEX
  8
LAYER1
 62
     7
  6
CONTINUOUS
 10
8.3660
 20
15.5952
  0
VERTEX
  8
LAYER1
 62
     7
  6
CONTINUOUS
 10
8.4757
 20
15.6451
  0
VERTEX
  8
LAYER1
 62
     7
  6
CONTINUOUS
 10
8.5953
 20
15.6451
  0
VERTEX
  8
LAYER1
 62
     7
  6
CONTINUOUS
 10
8.7000
 20
15.6252
  0
VERTEX
  8
LAYER1
 62
     7
  6
CONTINUOUS
 10
8.8047
 20
15.5753
  0
VERTEX
  8
LAYER1
 62
     7
  6
CONTINUOUS
 10
8.8596
 20
15.4955
  0
VERTEX
  8
LAYER1
 62
     7
  6
CONTINUOUS
 10
8.8745
 20
15.4208
  0
VERTEX
  8
LAYER1
 62
     7
  6
CONTINUOUS
 10
8.8247
 20
15.3410
  0
VERTEX
  8
LAYER1
 62
     7
  6
CONTINUOUS
 10
8.7399
 20
15.2612
  0
VERTEX
  8
LAYER1
 62
     7
  6
CONTINUOUS
 10
8.6252
 20
15.1964
  0
VERTEX
  8
LAYER1
 62
     7
  6
CONTINUOUS
 10
8.4707
 20
15.1814
  0
VERTEX
  8
LAYER1
 62
     7
  6
CONTINUOUS
 10
8.3560
 20
15.2163
  0
VERTEX
  8
LAYER1
 62
     7
  6
CONTINUOUS
 10
8.3062
 20
15.2961
  0
VERTEX
  8
LAYER1
 62
     7
  6
CONTINUOUS
 10
8.2962
 20
15.3759
  0
SEQEND
  8
LAYER1
  0
POLYLINE
  8
LAYER1
 62
     7
 66
     1
  6
CONTINUOUS
  0
VERTEX
  8
LAYER1
 62
     7
  6
CONTINUOUS
 10
9.6573
 20
13.5810
  0
VERTEX
  8
LAYER1
 62
     7
  6
CONTINUOUS
 10
9.6573
 20
13.6109
  0
VERTEX
  8
LAYER1
 62
     7
  6
CONTINUOUS
 10
9.6623
 20
13.6957
  0
VERTEX
  8
LAYER1
 62
     7
  6
CONTINUOUS
 10
9.7022
 20
13.7755
  0
VERTEX
  8
LAYER1
 62
     7
  6
CONTINUOUS
 10
9.7969
 20
13.8403
  0
VERTEX
  8
LAYER1
 62
     7
  6
CONTINUOUS
 10
9.8916
 20
13.8552
  0
VERTEX
  8
LAYER1
 62
     7
  6
CONTINUOUS
 10
9.9764
 20
13.8203
  0
VERTEX
  8
LAYER1
 62
     7
  6
CONTINUOUS
 10
10.0212
 20
13.7805
  0
VERTEX
  8
LAYER1
 62
     7
  6
CONTINUOUS
 10
10.0512
 20
13.7007
  0
VERTEX
  8
LAYER1
 62
     7
  6
CONTINUOUS
 10
10.0561
 20
13.5810
  0
VERTEX
  8
LAYER1
 62
     7
  6
CONTINUOUS
 10
9.9963
 20
13.4863
  0
VERTEX
  8
LAYER1
 62
     7
  6
CONTINUOUS
 10
9.9165
 20
13.4265
  0
VERTEX
  8
LAYER1
 62
     7
  6
CONTINUOUS
 10
9.8318
 20
13.4165
  0
VERTEX
  8
LAYER1
 62
     7
  6
CONTINUOUS
 10
9.7769
 20
13.4514
  0
VERTEX
  8
LAYER1
 62
     7
  6
CONTINUOUS
 10
9.6573
 20
13.5810
  0
SEQEND
  8
LAYER1
  0
POLYLINE
  8
LAYER1
 62
     7
 66
     1
  6
CONTINUOUS
  0
VERTEX
  8
LAYER1
 62
     7
  6
CONTINUOUS
 10
10.6943
 20
15.7348
  0
VERTEX
  8
LAYER1
 62
     7
  6
CONTINUOUS
 10
10.6893
 20
15.7299
  0
VERTEX
  8
LAYER1
 62
     7
  6
CONTINUOUS
 10
10.6893
 20
15.6651
  0
VERTEX
  8
LAYER1
 62
     7
  6
CONTINUOUS
 10
10.6644
 20
15.6002
  0
VERTEX
  8
LAYER1
 62
     7
  6
CONTINUOUS
 10
10.6195
 20
15.5554
  0
VERTEX
  8
LAYER1
 62
     7
  6
CONTINUOUS
 10
10.5298
 20
15.5504
  0
VERTEX
  8
LAYER1
 62
     7
  6
CONTINUOUS
 10
10.4201
 20
15.5604
  0
VERTEX
  8
LAYER1
 62
     7
  6
CONTINUOUS
 10
10.3403
 20
15.5903
  0
VERTEX
  8
LAYER1
 62
     7
  6
CONTINUOUS
 10
10.2655
 20
15.7299
  0
VERTEX
  8
LAYER1
 62
     7
  6
CONTINUOUS
 10
10.2456
 20
15.8745
  0
VERTEX
  8
LAYER1
 62
     7
  6
CONTINUOUS
 10
10.2406
 20
15.9791
  0
VERTEX
  8
LAYER1
 62
     7
  6
CONTINUOUS
 10
10.2905
 20
16.0888
  0
VERTEX
  8
LAYER1
 62
     7
  6
CONTINUOUS
 10
10.4051
 20
16.1437
  0
VERTEX
  8
LAYER1
 62
     7
  6
CONTINUOUS
 10
10.5497
 20
16.1536
  0
VERTEX
  8
LAYER1
 62
     7
  6
CONTINUOUS
 10
10.6345
 20
16.1337
  0
VERTEX
  8
LAYER1
 62
     7
  6
CONTINUOUS
 10
10.7292
 20
16.0290
  0
VERTEX
  8
LAYER1
 62
     7
  6
CONTINUOUS
 10
10.7392
 20
15.9093
  0
VERTEX
  8
LAYER1
 62
     7
  6
CONTINUOUS
 10
10.7292
 20
15.8296
  0
VERTEX
  8
LAYER1
 62
     7
  6
CONTINUOUS
 10
10.6893
 20
15.7299
  0
SEQEND
  8
LAYER1
  0
POLYLINE
  8
LAYER1
 62
     7
 66
     1
  6
CONTINUOUS
  0
VERTEX
  8
LAYER1
 62
     7
  6
CONTINUOUS
 10
10.6893
 20
15.7299
  0
VERTEX
  8
LAYER1
 62
     7
  6
CONTINUOUS
 10
10.6843
 20
15.6950
  0
VERTEX
  8
LAYER1
 62
     7
  6
CONTINUOUS
 10
10.6395
 20
15.6601
  0
VERTEX
  8
LAYER1
 62
     7
  6
CONTINUOUS
 10
10.5846
 20
15.6202
  0
VERTEX
  8
LAYER1
 62
     7
  6
CONTINUOUS
 10
10.5248
 20
15.6052
  0
VERTEX
  8
LAYER1
 62
     7
  6
CONTINUOUS
 10
10.4550
 20
15.6301
  0
VERTEX
  8
LAYER1
 62
     7
  6
CONTINUOUS
 10
10.3852
 20
15.7398
  0
VERTEX
  8
LAYER1
 62
     7
  6
CONTINUOUS
 10
10.3702
 20
15.8346
  0
VERTEX
  8
LAYER1
 62
     7
  6
CONTINUOUS
 10
10.3802
 20
15.9343
  0
VERTEX
  8
LAYER1
 62
     7
  6
CONTINUOUS
 10
10.3952
 20
15.9841
  0
VERTEX
  8
LAYER1
 62
     7
  6
CONTINUOUS
 10
10.4351
 20
16.0390
  0
VERTEX
  8
LAYER1
 62
     7
  6
CONTINUOUS
 10
10.4799
 20
16.0838
  0
VERTEX
  8
LAYER1
 62
     7
  6
CONTINUOUS
 10
10.5497
 20
16.1536
  0
SEQEND
  8
LAYER1
  0
POLYLINE
  8
LAYER1
 62
     7
 66
     1
  6
CONTINUOUS
  0
VERTEX
  8
LAYER1
 62
     7
  6
CONTINUOUS
 10
12.9927
 20
13.9300
  0
VERTEX
  8
LAYER1
 62
     7
  6
CONTINUOUS
 10
12.9728
 20
13.9350
  0
VERTEX
  8
LAYER1
 62
     7
  6
CONTINUOUS
 10
12.9179
 20
13.9350
  0
VERTEX
  8
LAYER1
 62
     7
  6
CONTINUOUS
 10
12.8581
 20
13.9250
  0
VERTEX
  8
LAYER1
 62
     7
  6
CONTINUOUS
 10
12.7933
 20
13.8752
  0
VERTEX
  8
LAYER1
 62
     7
  6
CONTINUOUS
 10
12.7634
 20
13.8054
  0
VERTEX
  8
LAYER1
 62
     7
  6
CONTINUOUS
 10
12.7285
 20
13.6907
  0
VERTEX
  8
LAYER1
 62
     7
  6
CONTINUOUS
 10
12.6836
 20
13.5810
  0
VERTEX
  8
LAYER1
 62
     7
  6
CONTINUOUS
 10
12.6487
 20
13.5013
  0
VERTEX
  8
LAYER1
 62
     7
  6
CONTINUOUS
 10
12.6138
 20
13.3716
  0
VERTEX
  8
LAYER1
 62
     7
  6
CONTINUOUS
 10
12.6387
 20
13.2470
  0
VERTEX
  8
LAYER1
 62
     7
  6
CONTINUOUS
 10
12.7883
 20
13.1323
  0
VERTEX
  8
LAYER1
 62
     7
  6
CONTINUOUS
 10
12.8980
 20
13.1024
  0
VERTEX
  8
LAYER1
 62
     7
  6
CONTINUOUS
 10
13.0525
 20
13.1273
  0
VERTEX
  8
LAYER1
 62
     7
  6
CONTINUOUS
 10
13.1672
 20
13.2121
  0
VERTEX
  8
LAYER1
 62
     7
  6
CONTINUOUS
 10
13.2570
 20
13.3218
  0
VERTEX
  8
LAYER1
 62
     7
  6
CONTINUOUS
 10
13.3367
 20
13.4664
  0
VERTEX
  8
LAYER1
 62
     7
  6
CONTINUOUS
 10
13.3666
 20
13.5810
  0
VERTEX
  8
LAYER1
 62
     7
  6
CONTINUOUS
 10
13.3367
 20
13.6758
  0
VERTEX
  8
LAYER1
 62
     7
  6
CONTINUOUS
 10
13.2919
 20
13.7057
  0
VERTEX
  8
LAYER1
 62
     7
  6
CONTINUOUS
 10
13.2071
 20
13.7555
  0
VERTEX
  8
LAYER1
 62
     7
  6
CONTINUOUS
 10
13.1423
 20
13.8253
  0
VERTEX
  8
LAYER1
 62
     7
  6
CONTINUOUS
 10
13.0924
 20
13.8901
  0
VERTEX
  8
LAYER1
 62
     7
  6
CONTINUOUS
 10
12.9927
 20
13.9300
  0
SEQEND
  8
LAYER1
  0
POLYLINE
  8
LAYER1
 62
     7
 66
     1
  6
CONTINUOUS
  0
VERTEX
  8
LAYER1
 62
     7
  6
CONTINUOUS
 10
12.9778
 20
13.7805
  0
VERTEX
  8
LAYER1
 62
     7
  6
CONTINUOUS
 10
12.9429
 20
13.7456
  0
VERTEX
  8
LAYER1
 62
     7
  6
CONTINUOUS
 10
12.9080
 20
13.7057
  0
VERTEX
  8
LAYER1
 62
     7
  6
CONTINUOUS
 10
12.8631
 20
13.6458
  0
VERTEX
  8
LAYER1
 62
     7
  6
CONTINUOUS
 10
12.8282
 20
13.5860
  0
VERTEX
  8
LAYER1
 62
     7
  6
CONTINUOUS
 10
12.8132
 20
13.5062
  0
VERTEX
  8
LAYER1
 62
     7
  6
CONTINUOUS
 10
12.8232
 20
13.4265
  0
VERTEX
  8
LAYER1
 62
     7
  6
CONTINUOUS
 10
12.8581
 20
13.3517
  0
VERTEX
  8
LAYER1
 62
     7
  6
CONTINUOUS
 10
12.9279
 20
13.2869
  0
VERTEX
  8
LAYER1
 62
     7
  6
CONTINUOUS
 10
13.0326
 20
13.2769
  0
VERTEX
  8
LAYER1
 62
     7
  6
CONTINUOUS
 10
13.1273
 20
13.3417
  0
VERTEX
  8
LAYER1
 62
     7
  6
CONTINUOUS
 10
13.2021
 20
13.4863
  0
VERTEX
  8
LAYER1
 62
     7
  6
CONTINUOUS
 10
13.2320
 20
13.5910
  0
VERTEX
  8
LAYER1
 62
     7
  6
CONTINUOUS
 10
13.2071
 20
13.6359
  0
VERTEX
  8
LAYER1
 62
     7
  6
CONTINUOUS
 10
13.1622
 20
13.6857
  0
VERTEX
  8
LAYER1
 62
     7
  6
CONTINUOUS
 10
13.1124
 20
13.7306
  0
VERTEX
  8
LAYER1
 62
     7
  6
CONTINUOUS
 10
13.0675
 20
13.7555
  0
VERTEX
  8
LAYER1
 62
     7
  6
CONTINUOUS
 10
12.9778
 20
13.7805
  0
SEQEND
  8
LAYER1
  0
POLYLINE
  8
LAYER1
 62
     7
 66
     1
  6
CONTINUOUS
  0
VERTEX
  8
LAYER1
 62
     7
  6
CONTINUOUS
 10
10.6744
 20
13.7555
  0
VERTEX
  8
LAYER1
 62
     7
  6
CONTINUOUS
 10
10.6694
 20
13.8054
  0
VERTEX
  8
LAYER1
 62
     7
  6
CONTINUOUS
 10
10.7242
 20
13.9948
  0
VERTEX
  8
LAYER1
 62
     7
  6
CONTINUOUS
 10
10.7641
 20
14.1444
  0
VERTEX
  8
LAYER1
 62
     7
  6
CONTINUOUS
 10
10.7990
 20
14.2391
  0
VERTEX
  8
LAYER1
 62
     7
  6
CONTINUOUS
 10
10.8389
 20
14.3089
  0
VERTEX
  8
LAYER1
 62
     7
  6
CONTINUOUS
 10
10.8738
 20
14.3438
  0
VERTEX
  8
LAYER1
 62
     7
  6
CONTINUOUS
 10
10.9536
 20
14.3488
  0
VERTEX
  8
LAYER1
 62
     7
  6
CONTINUOUS
 10
11.0583
 20
14.3389
  0
VERTEX
  8
LAYER1
 62
     7
  6
CONTINUOUS
 10
11.1779
 20
14.2890
  0
VERTEX
  8
LAYER1
 62
     7
  6
CONTINUOUS
 10
11.2128
 20
14.2342
  0
VERTEX
  8
LAYER1
 62
     7
  6
CONTINUOUS
 10
11.2278
 20
14.1245
  0
VERTEX
  8
LAYER1
 62
     7
  6
CONTINUOUS
 10
11.1779
 20
13.9300
  0
VERTEX
  8
LAYER1
 62
     7
  6
CONTINUOUS
 10
11.1181
 20
13.8004
  0
VERTEX
  8
LAYER1
 62
     7
  6
CONTINUOUS
 10
11.0633
 20
13.7107
  0
VERTEX
  8
LAYER1
 62
     7
  6
CONTINUOUS
 10
11.0383
 20
13.6758
  0
VERTEX
  8
LAYER1
 62
     7
  6
CONTINUOUS
 10
10.9935
 20
13.6309
  0
VERTEX
  8
LAYER1
 62
     7
  6
CONTINUOUS
 10
10.9386
 20
13.6458
  0
VERTEX
  8
LAYER1
 62
     7
  6
CONTINUOUS
 10
10.8688
 20
13.6758
  0
VERTEX
  8
LAYER1
 62
     7
  6
CONTINUOUS
 10
10.8190
 20
13.6957
  0
VERTEX
  8
LAYER1
 62
     7
  6
CONTINUOUS
 10
10.7541
 20
13.7206
  0
VERTEX
  8
LAYER1
 62
     7
  6
CONTINUOUS
 10
10.6744
 20
13.7555
  0
SEQEND
  8
LAYER1
  0
POLYLINE
  8
LAYER1
 62
     7
 66
     1
  6
CONTINUOUS
  0
VERTEX
  8
LAYER1
 62
     7
  6
CONTINUOUS
 10
10.8389
 20
14.3089
  0
VERTEX
  8
LAYER1
 62
     7
  6
CONTINUOUS
 10
10.8190
 20
14.3688
  0
VERTEX
  8
LAYER1
 62
     7
  6
CONTINUOUS
 10
10.9286
 20
14.4186
  0
VERTEX
  8
LAYER1
 62
     7
  6
CONTINUOUS
 10
11.0583
 20
14.4635
  0
VERTEX
  8
LAYER1
 62
     7
  6
CONTINUOUS
 10
11.1530
 20
14.4735
  0
VERTEX
  8
LAYER1
 62
     7
  6
CONTINUOUS
 10
11.2976
 20
14.4286
  0
VERTEX
  8
LAYER1
 62
     7
  6
CONTINUOUS
 10
11.3973
 20
14.3738
  0
VERTEX
  8
LAYER1
 62
     7
  6
CONTINUOUS
 10
11.4422
 20
14.2591
  0
VERTEX
  8
LAYER1
 62
     7
  6
CONTINUOUS
 10
11.4172
 20
14.1444
  0
VERTEX
  8
LAYER1
 62
     7
  6
CONTINUOUS
 10
11.3724
 20
14.0696
  0
VERTEX
  8
LAYER1
 62
     7
  6
CONTINUOUS
 10
11.3076
 20
13.9948
  0
VERTEX
  8
LAYER1
 62
     7
  6
CONTINUOUS
 10
11.2477
 20
13.9450
  0
VERTEX
  8
LAYER1
 62
     7
  6
CONTINUOUS
 10
11.1181
 20
13.8004
  0
SEQEND
  8
LAYER1
  0
POLYLINE
  8
LAYER1
 62
     7
 66
     1
  6
CONTINUOUS
  0
VERTEX
  8
LAYER1
 62
     7
  6
CONTINUOUS
 10
2.5527
 20
7.5434
  0
VERTEX
  8
LAYER1
 62
     7
  6
CONTINUOUS
 10
2.6374
 20
7.5483
  0
VERTEX
  8
LAYER1
 62
     7
  6
CONTINUOUS
 10
2.8418
 20
7.5583
  0
VERTEX
  8
LAYER1
 62
     7
  6
CONTINUOUS
 10
3.0762
 20
7.5583
  0
VERTEX
  8
LAYER1
 62
     7
  6
CONTINUOUS
 10
3.3454
 20
7.5633
  0
VERTEX
  8
LAYER1
 62
     7
  6
CONTINUOUS
 10
3.5847
 20
7.5733
  0
VERTEX
  8
LAYER1
 62
     7
  6
CONTINUOUS
 10
3.9537
 20
7.5882
  0
VERTEX
  8
LAYER1
 62
     7
  6
CONTINUOUS
 10
4.2777
 20
7.5982
  0
VERTEX
  8
LAYER1
 62
     7
  6
CONTINUOUS
 10
4.7514
 20
7.5982
  0
VERTEX
  8
LAYER1
 62
     7
  6
CONTINUOUS
 10
5.1751
 20
7.6082
  0
VERTEX
  8
LAYER1
 62
     7
  6
CONTINUOUS
 10
5.5840
 20
7.6082
  0
VERTEX
  8
LAYER1
 62
     7
  6
CONTINUOUS
 10
5.9579
 20
7.6032
  0
VERTEX
  8
LAYER1
 62
     7
  6
CONTINUOUS
 10
6.1972
 20
7.6082
  0
VERTEX
  8
LAYER1
 62
     7
  6
CONTINUOUS
 10
6.5811
 20
7.6082
  0
VERTEX
  8
LAYER1
 62
     7
  6
CONTINUOUS
 10
6.9052
 20
7.6082
  0
VERTEX
  8
LAYER1
 62
     7
  6
CONTINUOUS
 10
7.2193
 20
7.6082
  0
VERTEX
  8
LAYER1
 62
     7
  6
CONTINUOUS
 10
7.5483
 20
7.6032
  0
VERTEX
  8
LAYER1
 62
     7
  6
CONTINUOUS
 10
8.0020
 20
7.5982
  0
VERTEX
  8
LAYER1
 62
     7
  6
CONTINUOUS
 10
8.4158
 20
7.5932
  0
VERTEX
  8
LAYER1
 62
     7
  6
CONTINUOUS
 10
8.8346
 20
7.5932
  0
VERTEX
  8
LAYER1
 62
     7
  6
CONTINUOUS
 10
9.2086
 20
7.5882
  0
VERTEX
  8
LAYER1
 62
     7
  6
CONTINUOUS
 10
9.4529
 20
7.5982
  0
VERTEX
  8
LAYER1
 62
     7
  6
CONTINUOUS
 10
9.8517
 20
7.6082
  0
VERTEX
  8
LAYER1
 62
     7
  6
CONTINUOUS
 10
10.0113
 20
7.6032
  0
VERTEX
  8
LAYER1
 62
     7
  6
CONTINUOUS
 10
10.2556
 20
7.6082
  0
VERTEX
  8
LAYER1
 62
     7
  6
CONTINUOUS
 10
10.5348
 20
7.6082
  0
VERTEX
  8
LAYER1
 62
     7
  6
CONTINUOUS
 10
10.8140
 20
7.5982
  0
VERTEX
  8
LAYER1
 62
     7
  6
CONTINUOUS
 10
11.2328
 20
7.5832
  0
VERTEX
  8
LAYER1
 62
     7
  6
CONTINUOUS
 10
11.5519
 20
7.5733
  0
VERTEX
  8
LAYER1
 62
     7
  6
CONTINUOUS
 10
11.8809
 20
7.5633
  0
VERTEX
  8
LAYER1
 62
     7
  6
CONTINUOUS
 10
12.2947
 20
7.5633
  0
VERTEX
  8
LAYER1
 62
     7
  6
CONTINUOUS
 10
12.7185
 20
7.5533
  0
VERTEX
  8
LAYER1
 62
     7
  6
CONTINUOUS
 10
13.0725
 20
7.5434
  0
VERTEX
  8
LAYER1
 62
     7
  6
CONTINUOUS
 10
13.4813
 20
7.5384
  0
VERTEX
  8
LAYER1
 62
     7
  6
CONTINUOUS
 10
13.6159
 20
7.5434
  0
VERTEX
  8
LAYER1
 62
     7
  6
CONTINUOUS
 10
13.8552
 20
7.5533
  0
VERTEX
  8
LAYER1
 62
     7
  6
CONTINUOUS
 10
14.1245
 20
7.5633
  0
VERTEX
  8
LAYER1
 62
     7
  6
CONTINUOUS
 10
14.4087
 20
7.5783
  0
VERTEX
  8
LAYER1
 62
     7
  6
CONTINUOUS
 10
14.6181
 20
7.5783
  0
SEQEND
  8
LAYER1
  0
POLYLINE
  8
LAYER1
 62
     7
 66
     1
  6
CONTINUOUS
  0
VERTEX
  8
LAYER1
 62
     7
  6
CONTINUOUS
 10
2.8418
 20
7.5583
  0
VERTEX
  8
LAYER1
 62
     7
  6
CONTINUOUS
 10
2.8219
 20
7.5533
  0
VERTEX
  8
LAYER1
 62
     7
  6
CONTINUOUS
 10
2.8319
 20
7.4985
  0
VERTEX
  8
LAYER1
 62
     7
  6
CONTINUOUS
 10
2.8418
 20
7.3290
  0
VERTEX
  8
LAYER1
 62
     7
  6
CONTINUOUS
 10
2.8618
 20
7.1944
  0
VERTEX
  8
LAYER1
 62
     7
  6
CONTINUOUS
 10
2.9465
 20
7.0398
  0
VERTEX
  8
LAYER1
 62
     7
  6
CONTINUOUS
 10
3.0911
 20
6.9401
  0
VERTEX
  8
LAYER1
 62
     7
  6
CONTINUOUS
 10
3.4202
 20
6.9052
  0
VERTEX
  8
LAYER1
 62
     7
  6
CONTINUOUS
 10
3.6894
 20
6.9152
  0
VERTEX
  8
LAYER1
 62
     7
  6
CONTINUOUS
 10
4.0883
 20
6.9600
  0
VERTEX
  8
LAYER1
 62
     7
  6
CONTINUOUS
 10
4.3725
 20
6.9550
  0
VERTEX
  8
LAYER1
 62
     7
  6
CONTINUOUS
 10
4.8361
 20
6.9301
  0
VERTEX
  8
LAYER1
 62
     7
  6
CONTINUOUS
 10
5.2400
 20
6.9301
  0
VERTEX
  8
LAYER1
 62
     7
  6
CONTINUOUS
 10
5.6089
 20
6.9351
  0
VERTEX
  8
LAYER1
 62
     7
  6
CONTINUOUS
 10
5.9978
 20
6.9800
  0
VERTEX
  8
LAYER1
 62
     7
  6
CONTINUOUS
 10
6.4415
 20
7.0398
  0
VERTEX
  8
LAYER1
 62
     7
  6
CONTINUOUS
 10
6.8254
 20
7.0747
  0
VERTEX
  8
LAYER1
 62
     7
  6
CONTINUOUS
 10
7.1844
 20
7.0697
  0
VERTEX
  8
LAYER1
 62
     7
  6
CONTINUOUS
 10
7.4536
 20
7.0597
  0
VERTEX
  8
LAYER1
 62
     7
  6
CONTINUOUS
 10
7.8026
 20
7.0348
  0
VERTEX
  8
LAYER1
 62
     7
  6
CONTINUOUS
 10
8.1716
 20
6.9949
  0
VERTEX
  8
LAYER1
 62
     7
  6
CONTINUOUS
 10
8.5405
 20
6.9700
  0
VERTEX
  8
LAYER1
 62
     7
  6
CONTINUOUS
 10
8.7299
 20
6.9102
  0
VERTEX
  8
LAYER1
 62
     7
  6
CONTINUOUS
 10
8.8346
 20
6.8204
  0
VERTEX
  8
LAYER1
 62
     7
  6
CONTINUOUS
 10
9.1188
 20
6.6609
  0
VERTEX
  8
LAYER1
 62
     7
  6
CONTINUOUS
 10
9.2435
 20
6.5961
  0
VERTEX
  8
LAYER1
 62
     7
  6
CONTINUOUS
 10
9.4429
 20
6.5113
  0
VERTEX
  8
LAYER1
 62
     7
  6
CONTINUOUS
 10
9.8019
 20
6.4166
  0
VERTEX
  8
LAYER1
 62
     7
  6
CONTINUOUS
 10
10.0811
 20
6.3418
  0
VERTEX
  8
LAYER1
 62
     7
  6
CONTINUOUS
 10
10.3254
 20
6.2969
  0
VERTEX
  8
LAYER1
 62
     7
  6
CONTINUOUS
 10
10.5996
 20
6.2770
  0
VERTEX
  8
LAYER1
 62
     7
  6
CONTINUOUS
 10
10.9635
 20
6.2770
  0
VERTEX
  8
LAYER1
 62
     7
  6
CONTINUOUS
 10
11.2726
 20
6.2570
  0
VERTEX
  8
LAYER1
 62
     7
  6
CONTINUOUS
 10
11.6366
 20
6.2620
  0
VERTEX
  8
LAYER1
 62
     7
  6
CONTINUOUS
 10
11.9607
 20
6.2720
  0
VERTEX
  8
LAYER1
 62
     7
  6
CONTINUOUS
 10
12.2449
 20
6.2870
  0
VERTEX
  8
LAYER1
 62
     7
  6
CONTINUOUS
 10
12.4792
 20
6.2919
  0
VERTEX
  8
LAYER1
 62
     7
  6
CONTINUOUS
 10
12.7634
 20
6.2969
  0
VERTEX
  8
LAYER1
 62
     7
  6
CONTINUOUS
 10
13.0924
 20
6.3169
  0
VERTEX
  8
LAYER1
 62
     7
  6
CONTINUOUS
 10
13.3766
 20
6.3717
  0
VERTEX
  8
LAYER1
 62
     7
  6
CONTINUOUS
 10
13.5661
 20
6.4664
  0
VERTEX
  8
LAYER1
 62
     7
  6
CONTINUOUS
 10
13.9550
 20
6.7456
  0
VERTEX
  8
LAYER1
 62
     7
  6
CONTINUOUS
 10
14.0547
 20
6.8503
  0
VERTEX
  8
LAYER1
 62
     7
  6
CONTINUOUS
 10
14.1693
 20
6.9999
  0
VERTEX
  8
LAYER1
 62
     7
  6
CONTINUOUS
 10
14.3289
 20
7.2342
  0
VERTEX
  8
LAYER1
 62
     7
  6
CONTINUOUS
 10
14.3688
 20
7.3439
  0
VERTEX
  8
LAYER1
 62
     7
  6
CONTINUOUS
 10
14.4087
 20
7.5783
  0
SEQEND
  8
LAYER1
  0
POLYLINE
  8
LAYER1
 62
     7
 66
     1
  6
CONTINUOUS
  0
VERTEX
  8
LAYER1
 62
     7
  6
CONTINUOUS
 10
3.6296
 20
10.4799
  0
VERTEX
  8
LAYER1
 62
     7
  6
CONTINUOUS
 10
4.8561
 20
10.4799
  0
SEQEND
  8
LAYER1
  0
POLYLINE
  8
LAYER1
 62
     7
 66
     1
  6
CONTINUOUS
  0
VERTEX
  8
LAYER1
 62
     7
  6
CONTINUOUS
 10
7.3639
 20
11.7114
  0
VERTEX
  8
LAYER1
 62
     7
  6
CONTINUOUS
 10
7.3639
 20
9.2784
  0
SEQEND
  8
LAYER1
  0
POLYLINE
  8
LAYER1
 62
     7
 66
     1
  6
CONTINUOUS
  0
VERTEX
  8
LAYER1
 62
     7
  6
CONTINUOUS
 10
4.8561
 20
10.4799
  0
VERTEX
  8
LAYER1
 62
     7
  6
CONTINUOUS
 10
4.8561
 20
10.6121
  0
SEQEND
  8
LAYER1
  0
POLYLINE
  8
LAYER1
 62
     7
 66
     1
  6
CONTINUOUS
  0
VERTEX
  8
LAYER1
 62
     7
  6
CONTINUOUS
 10
3.6296
 20
10.6108
  0
VERTEX
  8
LAYER1
 62
     7
  6
CONTINUOUS
 10
3.6296
 20
10.4799
  0
SEQEND
  8
LAYER1
  0
POLYLINE
  8
LAYER1
 62
     7
 66
     1
  6
CONTINUOUS
  0
VERTEX
  8
LAYER1
 62
     7
  6
CONTINUOUS
 10
4.8561
 20
10.4799
  0
VERTEX
  8
LAYER1
 62
     7
  6
CONTINUOUS
 10
3.6296
 20
10.4799
  0
SEQEND
  8
LAYER1
  0
POLYLINE
  8
LAYER1
 62
     7
 66
     1
  6
CONTINUOUS
  0
VERTEX
  8
LAYER1
 62
     7
  6
CONTINUOUS
 10
7.3639
 20
9.2784
  0
VERTEX
  8
LAYER1
 62
     7
  6
CONTINUOUS
 10
7.3639
 20
11.7114
  0
SEQEND
  8
LAYER1
  0
POLYLINE
  8
LAYER1
 62
     7
 66
     1
  6
CONTINUOUS
  0
VERTEX
  8
LAYER1
 62
     7
  6
CONTINUOUS
 10
7.3639
 20
11.7114
  0
VERTEX
  8
LAYER1
 62
     7
  6
CONTINUOUS
 10
7.1972
 20
11.2305
  0
SEQEND
  8
LAYER1
  0
POLYLINE
  8
LAYER1
 62
     3
 66
     1
  6
CONTINUOUS
  0
VERTEX
  8
LAYER1
 62
     3
  6
CONTINUOUS
 10
7.6281
 20
18.9257
  0
VERTEX
  8
LAYER1
 62
     3
  6
CONTINUOUS
 10
8.1317
 20
18.4231
  0
SEQEND
  8
LAYER1
  0
POLYLINE
  8
LAYER1
 62
     3
 66
     1
  6
CONTINUOUS
  0
VERTEX
  8
LAYER1
 62
     3
  6
CONTINUOUS
 10
14.7277
 20
11.8401
  0
VERTEX
  8
LAYER1
 62
     3
  6
CONTINUOUS
 10
15.1914
 20
11.3773
  0
SEQEND
  8
LAYER1
  0
ENDSEC
  0
EOF
