  0
SECTION
  2
HEADER
  9
$ACADVER
  1
AC1004
  9
$EXTMIN
 10
6488.4446
 20
15713.5080
  9
$EXTMAX
 10
33556.7298
 20
45088.0738
  9
$LIMMIN
 10
6488.4446
 20
15713.5080
  9
$LIMMAX
 10
33556.7298
 20
45088.0738
  9
$INSBASE
 10
0.0
 20
0.0
  9
$VIEWCTR
 10
7.21903
 20
4.5
  9
$VIEWSIZE
 40
9.0
  9
$SNAPMODE
 70
     0
  9
$SNAPUNIT
 10
1.0
 20
1.0
  9
$SNAPBASE
 10
0.0
 20
0.0
  9
$SNAPANG
 50
0.0
  9
$SNAPSTYLE
 70
     0
  9
$SNAPISOPAIR
 70
     0
  9
$GRIDMODE
 70
     0
  9
$GRIDUNIT
 10
0.0
 20
0.0
  9
$ORTHOMODE
 70
     0
  9
$REGENMODE
 70
     1
  9
$FILLMODE
 70
     1
  9
$QTEXTMODE
 70
     0
  9
$DRAGMODE
 70
     2
  9
$LTSCALE
 40
1.0
  9
$OSMODE
 70
     0
  9
$ATTMODE
 70
     1
  9
$TEXTSIZE
 40
0.2
  9
$TRACEWID
 40
0.05
  9
$TEXTSTYLE
  7
STANDARD
  9
$CLAYER
  8
0
  9
$CELTYPE
  6
BYLAYER
  9
$CECOLOR
 62
   256
  9
$DIMSCALE
 40
1.0
  9
$DIMASZ
 40
0.18
  9
$DIMEXO
 40
0.0625
  9
$DIMDLI
 40
0.38
  9
$DIMRND
 40
0.0
  9
$DIMDLE
 40
0.0
  9
$DIMEXE
 40
0.18
  9
$DIMTP
 40
0.0
  9
$DIMTM
 40
0.0
  9
$DIMTXT
 40
0.18
  9
$DIMCEN
 40
0.09
  9
$DIMTSZ
 40
0.0
  9
$DIMTOL
 70
     0
  9
$DIMLIM
 70
     0
  9
$DIMTIH
 70
     1
  9
$DIMTOH
 70
     1
  9
$DIMSE1
 70
     0
  9
$DIMSE2
 70
     0
  9
$DIMTAD
 70
     0
  9
$DIMZIN
 70
     0
  9
$DIMBLK
  1

  9
$DIMASO
 70
     1
  9
$DIMSHO
 70
     0
  9
$DIMPOST
  1

  9
$DIMAPOST
  1

  9
$DIMALT
 70
     0
  9
$DIMALTD
 70
     2
  9
$DIMALTF
 40
25.4
  9
$DIMLFAC
 40
1.0
  9
$LUNITS
 70
     2
  9
$LUPREC
 70
     4
  9
$AXISMODE
 70
     0
  9
$AXISUNIT
 10
0.0
 20
0.0
  9
$SKETCHINC
 40
0.1
  9
$FILLETRAD
 40
0.0
  9
$AUNITS
 70
     0
  9
$AUPREC
 70
     0
  9
$MENU
  1
acad
  9
$ELEVATION
 40
0.0
  9
$THICKNESS
 40
0.0
  9
$VIEWDIR
 10
0.0
 20
0.0
 30
1.0
  9
$LIMCHECK
 70
     0
  9
$BLIPMODE
 70
     1
  9
$CHAMFERA
 40
0.0
  9
$CHAMFERB
 40
0.0
  9
$FASTZOOM
 70
     1
  9
$SKPOLY
 70
     0
  9
$TDCREATE
 40
2447222.5666886573
  9
$TDUPDATE
 40
2447222.5666886573
  9
$TDINDWG
 40
0.0000000000
  9
$TDUSRTIMER
 40
0.0000000000
  9
$USRTIMER
 70
     1
  9
$ANGBASE
 50
0.0
  9
$ANGDIR
 70
     0
  9
$PDMODE
 70
     0
  9
$PDSIZE
 40
0.0
  9
$PLINEWID
 40
0.0
  9
$COORDS
 70
     0
  9
$SPLFRAME
 70
     0
  9
$SPLINESEGS
 70
     8
  9
$ATTDIA
 70
     0
  9
$ATTREQ
 70
     1
  9
$USERI1
 70
     0
  9
$USERI2
 70
     0
  9
$USERI3
 70
     0
  9
$USERI4
 70
     0
  9
$USERI5
 70
     0
  9
$USERR1
 40
0.0
  9
$USERR2
 40
0.0
  9
$USERR3
 40
0.0
  9
$USERR4
 40
0.0
  9
$USERR5
 40
0.0
  0
ENDSEC
  0
SECTION
  2
TABLES
  0
TABLE
  2
LTYPE
 70
     13
  0
LTYPE
  2
CONTINUOUS
 70
    64
  3
Solid line
 72
    65
 73
     0
 40
0.0
  0
LTYPE
  2
DASHED
 70
    64
  3
__ __ __ __ __ __ __ __ __ __ __ __ __ __ __
 72
    65
 73
     2
 40
0.75
 49
0.5
 49
-0.25
  0
LTYPE
  2
HIDDEN
 70
    64
  3
_ _ _ _ _ _ _ _ _ _ _ _ _ _ _ _ _ _ _ _ _ _ _
 72
    65
 73
     2
 40
0.375
 49
0.25
 49
-0.125
  0
LTYPE
  2
CENTER
 70
    64
  3
____ _ ____ _ ____ _ ____ _ ____ _ ____ _ ____
 72
    65
 73
     4
 40
2.0
 49
1.25
 49
-0.25
 49
0.25
 49
-0.25
  0
LTYPE
  2
PHANTOM
 70
    64
  3
_____ _ _ _____ _ _ _____ _ _ _____ _ _ ____
 72
    65
 73
     6
 40
2.5
 49
1.25
 49
-0.25
 49
0.25
 49
-0.25
 49
0.25
 49
-0.25
  0
LTYPE
  2
DOT
 70
    64
  3
...............................................
 72
    65
 73
     2
 40
0.25
 49
0.0
 49
-0.25
  0
LTYPE
  2
DASHDOT
 70
    64
  3
__ . __ . __ . __ . __ . __ . __ . __ . __ . __
 72
    65
 73
     4
 40
1.0
 49
0.5
 49
-0.25
 49
0.0
 49
-0.25
  0
LTYPE
  2
BORDER
 70
    64
  3
__ __ . __ __ . __ __ . __ __ . __ __ . __ __
 72
    65
 73
     6
 40
1.75
 49
0.5
 49
-0.25
 49
0.5
 49
-0.25
 49
0.0
 49
-0.25
  0
LTYPE
  2
DIVIDE
 70
    64
  3
__ . . __ . . __ . . __ . . __ . . __ . . __
 72
    65
 73
     6
 40
1.25
 49
0.5
 49
-0.25
 49
0.0
 49
-0.25
 49
0.0
 49
-0.25
  0
LTYPE
  2
DCTYPE1
 70
    64
  3
__ . . __ . . __ . . __ . . __ . . __ . . __
 72
    65
 73
     8
 40
2.5
 49
0.5
 49
-0.25
 49
0.125
 49
-0.25
 49
0.25
 49
-0.25
 49
0.125
 49
-0.25
  0
LTYPE
  2
DCTYPE2
 70
    64
  3
__ . . __ . . __ . . __ . . __ . . __ . . __
 72
    65
 73
     6
 40
2.05
 49
1.0
 49
-0.3
 49
0.15
 49
-0.15
 49
0.15
 49
-0.3
  0
LTYPE
  2
DCTYPE3
 70
    64
  3
__ . . __ . . __ . . __ . . __ . . __ . . __
 72
    65
 73
     6
 40
2.5
 49
0.8
 49
-0.2
 49
0.8
 49
-0.2
 49
0.3
 49
-0.2
  0
LTYPE
  2
DCTYPE4
 70
    64
  3
__ . . __ . . __ . . __ . . __ . . __ . . __
 72
    65
 73
     10
 40
3.97
 49
1.75
 49
-0.3
 49
0.3
 49
-0.3
 49
0.06
 49
-0.3
 49
0.06
 49
-0.3
 49
0.3
 49
-0.3
  0
ENDTAB
  0
TABLE
  2
LAYER
 70
    153
  0
LAYER
  2
LAYER1
 70
 64
 62
     7
  6
CONTINUOUS
  0
ENDTAB
  0
ENDSEC
  0
SECTION
  2
BLOCKS
  0
ENDSEC
  0
SECTION
  2
ENTITIES
  0
POLYLINE
  8
LAYER1
 62
     7
 66
     1
  6
CONTINUOUS
  0
VERTEX
  8
LAYER1
 62
     7
  6
CONTINUOUS
 10
16927.3442
 20
30014.5724
  0
VERTEX
  8
LAYER1
 62
     7
  6
CONTINUOUS
 10
17004.5769
 20
30036.6529
  0
VERTEX
  8
LAYER1
 62
     7
  6
CONTINUOUS
 10
17247.3475
 20
30102.8609
  0
VERTEX
  8
LAYER1
 62
     7
  6
CONTINUOUS
 10
17479.0767
 20
30146.9884
  0
VERTEX
  8
LAYER1
 62
     7
  6
CONTINUOUS
 10
17710.8058
 20
30191.1326
  0
VERTEX
  8
LAYER1
 62
     7
  6
CONTINUOUS
 10
17953.5764
 20
30235.2769
  0
VERTEX
  8
LAYER1
 62
     7
  6
CONTINUOUS
 10
18207.3717
 20
30257.3430
  0
VERTEX
  8
LAYER1
 62
     7
  6
CONTINUOUS
 10
18450.1423
 20
30268.3820
  0
VERTEX
  8
LAYER1
 62
     7
  6
CONTINUOUS
 10
18781.1846
 20
30279.4068
  0
VERTEX
  8
LAYER1
 62
     7
  6
CONTINUOUS
 10
19123.2517
 20
30290.4458
  0
VERTEX
  8
LAYER1
 62
     7
  6
CONTINUOUS
 10
19542.5849
 20
30367.6952
  0
VERTEX
  8
LAYER1
 62
     7
  6
CONTINUOUS
 10
19873.6272
 20
30455.9670
  0
VERTEX
  8
LAYER1
 62
     7
  6
CONTINUOUS
 10
20193.6305
 20
30566.3216
  0
VERTEX
  8
LAYER1
 62
     7
  6
CONTINUOUS
 10
20524.6729
 20
30709.7623
  0
VERTEX
  8
LAYER1
 62
     7
  6
CONTINUOUS
 10
20844.6762
 20
30875.2835
  0
VERTEX
  8
LAYER1
 62
     7
  6
CONTINUOUS
 10
21341.2397
 20
31184.2620
  0
VERTEX
  8
LAYER1
 62
     7
  6
CONTINUOUS
 10
21550.9051
 20
31283.5752
  0
VERTEX
  8
LAYER1
 62
     7
  6
CONTINUOUS
 10
21650.2183
 20
31360.8246
  0
VERTEX
  8
LAYER1
 62
     7
  6
CONTINUOUS
 10
21992.3020
 20
31603.5785
  0
VERTEX
  8
LAYER1
 62
     7
  6
CONTINUOUS
 10
22334.3691
 20
31824.2853
  0
VERTEX
  8
LAYER1
 62
     7
  6
CONTINUOUS
 10
22676.4529
 20
32111.1835
  0
VERTEX
  8
LAYER1
 62
     7
  6
CONTINUOUS
 10
23018.5366
 20
32552.5804
  0
VERTEX
  8
LAYER1
 62
     7
  6
CONTINUOUS
 10
23173.0164
 20
32905.6865
  0
VERTEX
  8
LAYER1
 62
     7
  6
CONTINUOUS
 10
23283.3710
 20
33104.3129
  0
VERTEX
  8
LAYER1
 62
     7
  6
CONTINUOUS
 10
23426.8117
 20
33424.3162
  0
VERTEX
  8
LAYER1
 62
     7
  6
CONTINUOUS
 10
23614.4133
 20
33865.7131
  0
VERTEX
  8
LAYER1
 62
     7
  6
CONTINUOUS
 10
23801.9983
 20
34174.6917
  0
VERTEX
  8
LAYER1
 62
     7
  6
CONTINUOUS
 10
24254.4199
 20
34726.4242
  0
VERTEX
  8
LAYER1
 62
     7
  6
CONTINUOUS
 10
24408.9164
 20
34936.0895
  0
VERTEX
  8
LAYER1
 62
     7
  6
CONTINUOUS
 10
24629.6065
 20
35355.4060
  0
VERTEX
  8
LAYER1
 62
     7
  6
CONTINUOUS
 10
24773.0639
 20
35708.5145
  0
VERTEX
  8
LAYER1
 62
     7
  6
CONTINUOUS
 10
24894.4409
 20
36039.5569
  0
VERTEX
  8
LAYER1
 62
     7
  6
CONTINUOUS
 10
25026.8592
 20
36458.8877
  0
VERTEX
  8
LAYER1
 62
     7
  6
CONTINUOUS
 10
25126.1724
 20
36889.2432
  0
VERTEX
  8
LAYER1
 62
     7
  6
CONTINUOUS
 10
25247.5494
 20
37242.3517
  0
VERTEX
  8
LAYER1
 62
     7
  6
CONTINUOUS
 10
25280.6522
 20
37661.6682
  0
VERTEX
  8
LAYER1
 62
     7
  6
CONTINUOUS
 10
25104.1062
 20
38180.3121
  0
VERTEX
  8
LAYER1
 62
     7
  6
CONTINUOUS
 10
24993.7540
 20
38698.9418
  0
VERTEX
  8
LAYER1
 62
     7
  6
CONTINUOUS
 10
24894.4409
 20
39217.5715
  0
VERTEX
  8
LAYER1
 62
     7
  6
CONTINUOUS
 10
24839.2719
 20
39658.9660
  0
VERTEX
  8
LAYER1
 62
     7
  6
CONTINUOUS
 10
24673.7507
 20
40188.6395
  0
VERTEX
  8
LAYER1
 62
     7
  6
CONTINUOUS
 10
24309.6032
 20
40718.3082
  0
VERTEX
  8
LAYER1
 62
     7
  6
CONTINUOUS
 10
23945.4557
 20
41082.4557
  0
VERTEX
  8
LAYER1
 62
     7
  6
CONTINUOUS
 10
23570.2691
 20
41358.3291
  0
VERTEX
  8
LAYER1
 62
     7
  6
CONTINUOUS
 10
23173.0164
 20
41656.2663
  0
VERTEX
  8
LAYER1
 62
     7
  6
CONTINUOUS
 10
22908.1820
 20
41887.9978
  0
VERTEX
  8
LAYER1
 62
     7
  6
CONTINUOUS
 10
22345.4105
 20
42329.3781
  0
VERTEX
  8
LAYER1
 62
     7
  6
CONTINUOUS
 10
22080.5762
 20
42439.7303
  0
VERTEX
  8
LAYER1
 62
     7
  6
CONTINUOUS
 10
21606.0741
 20
42616.2929
  0
VERTEX
  8
LAYER1
 62
     7
  6
CONTINUOUS
 10
20844.6762
 20
42836.9830
  0
VERTEX
  8
LAYER1
 62
     7
  6
CONTINUOUS
 10
20359.1517
 20
43013.5265
  0
VERTEX
  8
LAYER1
 62
     7
  6
CONTINUOUS
 10
19719.1308
 20
43311.4827
  0
VERTEX
  8
LAYER1
 62
     7
  6
CONTINUOUS
 10
19343.9585
 20
43499.0677
  0
VERTEX
  8
LAYER1
 62
     7
  6
CONTINUOUS
 10
18792.2094
 20
43686.6526
  0
VERTEX
  8
LAYER1
 62
     7
  6
CONTINUOUS
 10
18052.8896
 20
43863.2152
  0
VERTEX
  8
LAYER1
 62
     7
  6
CONTINUOUS
 10
17578.3898
 20
43984.5945
  0
VERTEX
  8
LAYER1
 62
     7
  6
CONTINUOUS
 10
17192.1785
 20
44061.8416
  0
VERTEX
  8
LAYER1
 62
     7
  6
CONTINUOUS
 10
16728.7178
 20
44161.1571
  0
VERTEX
  8
LAYER1
 62
     7
  6
CONTINUOUS
 10
16165.9439
 20
44172.1938
  0
VERTEX
  8
LAYER1
 62
     7
  6
CONTINUOUS
 10
15625.2350
 20
44094.9468
  0
VERTEX
  8
LAYER1
 62
     7
  6
CONTINUOUS
 10
15051.4209
 20
43896.3204
  0
VERTEX
  8
LAYER1
 62
     7
  6
CONTINUOUS
 10
14565.8964
 20
43653.5522
  0
VERTEX
  8
LAYER1
 62
     7
  6
CONTINUOUS
 10
14047.2679
 20
43344.5879
  0
VERTEX
  8
LAYER1
 62
     7
  6
CONTINUOUS
 10
13771.3934
 20
43079.7512
  0
VERTEX
  8
LAYER1
 62
     7
  6
CONTINUOUS
 10
13374.1418
 20
42737.6674
  0
VERTEX
  8
LAYER1
 62
     7
  6
CONTINUOUS
 10
12987.9294
 20
42395.5884
  0
VERTEX
  8
LAYER1
 62
     7
  6
CONTINUOUS
 10
12645.8468
 20
42020.4138
  0
VERTEX
  8
LAYER1
 62
     7
  6
CONTINUOUS
 10
12325.8435
 20
41656.2663
  0
VERTEX
  8
LAYER1
 62
     7
  6
CONTINUOUS
 10
11983.7609
 20
41303.1458
  0
VERTEX
  8
LAYER1
 62
     7
  6
CONTINUOUS
 10
11619.6134
 20
40916.9345
  0
VERTEX
  8
LAYER1
 62
     7
  6
CONTINUOUS
 10
11310.6336
 20
40530.7185
  0
VERTEX
  8
LAYER1
 62
     7
  6
CONTINUOUS
 10
11112.0085
 20
40210.7033
  0
VERTEX
  8
LAYER1
 62
     7
  6
CONTINUOUS
 10
10758.9011
 20
39482.4058
  0
VERTEX
  8
LAYER1
 62
     7
  6
CONTINUOUS
 10
10637.5242
 20
39129.2973
  0
VERTEX
  8
LAYER1
 62
     7
  6
CONTINUOUS
 10
10538.2110
 20
38555.4844
  0
VERTEX
  8
LAYER1
 62
     7
  6
CONTINUOUS
 10
10505.1058
 20
37904.4387
  0
VERTEX
  8
LAYER1
 62
     7
  6
CONTINUOUS
 10
10538.2110
 20
37341.6649
  0
VERTEX
  8
LAYER1
 62
     7
  6
CONTINUOUS
 10
10659.5880
 20
36547.1618
  0
VERTEX
  8
LAYER1
 62
     7
  6
CONTINUOUS
 10
11056.8395
 20
35686.4484
  0
VERTEX
  8
LAYER1
 62
     7
  6
CONTINUOUS
 10
11487.1962
 20
35068.5079
  0
VERTEX
  8
LAYER1
 62
     7
  6
CONTINUOUS
 10
12072.0339
 20
34318.1324
  0
VERTEX
  8
LAYER1
 62
     7
  6
CONTINUOUS
 10
12447.2204
 20
33777.4390
  0
VERTEX
  8
LAYER1
 62
     7
  6
CONTINUOUS
 10
12910.6811
 20
33115.3519
  0
VERTEX
  8
LAYER1
 62
     7
  6
CONTINUOUS
 10
13341.0367
 20
32486.3700
  0
VERTEX
  8
LAYER1
 62
     7
  6
CONTINUOUS
 10
13572.7670
 20
32144.2886
  0
VERTEX
  8
LAYER1
 62
     7
  6
CONTINUOUS
 10
13914.8508
 20
31702.8917
  0
VERTEX
  8
LAYER1
 62
     7
  6
CONTINUOUS
 10
14621.0654
 20
31073.9098
  0
VERTEX
  8
LAYER1
 62
     7
  6
CONTINUOUS
 10
15106.6053
 20
30665.6348
  0
VERTEX
  8
LAYER1
 62
     7
  6
CONTINUOUS
 10
15581.0908
 20
30367.6952
  0
VERTEX
  8
LAYER1
 62
     7
  6
CONTINUOUS
 10
15923.1734
 20
30191.1326
  0
VERTEX
  8
LAYER1
 62
     7
  6
CONTINUOUS
 10
16397.6731
 20
30003.5477
  0
VERTEX
  8
LAYER1
 62
     7
  6
CONTINUOUS
 10
16927.3442
 20
30014.5724
  0
SEQEND
  8
LAYER1
  0
POLYLINE
  8
LAYER1
 62
     7
 66
     1
  6
CONTINUOUS
  0
VERTEX
  8
LAYER1
 62
     7
  6
CONTINUOUS
 10
23614.4133
 20
33865.7131
  0
VERTEX
  8
LAYER1
 62
     7
  6
CONTINUOUS
 10
23603.3743
 20
33700.1896
  0
VERTEX
  8
LAYER1
 62
     7
  6
CONTINUOUS
 10
23647.5185
 20
33611.9178
  0
VERTEX
  8
LAYER1
 62
     7
  6
CONTINUOUS
 10
23835.1035
 20
33402.2524
  0
VERTEX
  8
LAYER1
 62
     7
  6
CONTINUOUS
 10
24066.8326
 20
33336.0420
  0
VERTEX
  8
LAYER1
 62
     7
  6
CONTINUOUS
 10
24309.6032
 20
33325.0030
  0
VERTEX
  8
LAYER1
 62
     7
  6
CONTINUOUS
 10
24475.1244
 20
33424.3162
  0
VERTEX
  8
LAYER1
 62
     7
  6
CONTINUOUS
 10
24618.5675
 20
33600.8764
  0
VERTEX
  8
LAYER1
 62
     7
  6
CONTINUOUS
 10
24717.8807
 20
33810.5442
  0
VERTEX
  8
LAYER1
 62
     7
  6
CONTINUOUS
 10
24784.0886
 20
34042.2733
  0
VERTEX
  8
LAYER1
 62
     7
  6
CONTINUOUS
 10
24773.0639
 20
34285.0272
  0
VERTEX
  8
LAYER1
 62
     7
  6
CONTINUOUS
 10
24684.7755
 20
34406.4208
  0
VERTEX
  8
LAYER1
 62
     7
  6
CONTINUOUS
 10
24596.5037
 20
34516.7588
  0
VERTEX
  8
LAYER1
 62
     7
  6
CONTINUOUS
 10
24254.4199
 20
34726.4242
  0
SEQEND
  8
LAYER1
  0
POLYLINE
  8
LAYER1
 62
     7
 66
     1
  6
CONTINUOUS
  0
VERTEX
  8
LAYER1
 62
     7
  6
CONTINUOUS
 10
24673.7507
 20
40188.6395
  0
VERTEX
  8
LAYER1
 62
     7
  6
CONTINUOUS
 10
24629.6065
 20
40254.8451
  0
VERTEX
  8
LAYER1
 62
     7
  6
CONTINUOUS
 10
24640.6479
 20
40310.0141
  0
VERTEX
  8
LAYER1
 62
     7
  6
CONTINUOUS
 10
24673.7507
 20
40641.0564
  0
VERTEX
  8
LAYER1
 62
     7
  6
CONTINUOUS
 10
24717.8807
 20
40806.5776
  0
VERTEX
  8
LAYER1
 62
     7
  6
CONTINUOUS
 10
24850.2966
 20
40961.0764
  0
VERTEX
  8
LAYER1
 62
     7
  6
CONTINUOUS
 10
25082.0282
 20
41071.4143
  0
VERTEX
  8
LAYER1
 62
     7
  6
CONTINUOUS
 10
25313.7573
 20
41093.4924
  0
VERTEX
  8
LAYER1
 62
     7
  6
CONTINUOUS
 10
25744.1129
 20
40994.1816
  0
VERTEX
  8
LAYER1
 62
     7
  6
CONTINUOUS
 10
26008.9472
 20
40817.6190
  0
VERTEX
  8
LAYER1
 62
     7
  6
CONTINUOUS
 10
26152.4046
 20
40652.0978
  0
VERTEX
  8
LAYER1
 62
     7
  6
CONTINUOUS
 10
26240.6788
 20
40442.4300
  0
VERTEX
  8
LAYER1
 62
     7
  6
CONTINUOUS
 10
26273.7816
 20
40254.8451
  0
VERTEX
  8
LAYER1
 62
     7
  6
CONTINUOUS
 10
26240.6788
 20
40100.3653
  0
VERTEX
  8
LAYER1
 62
     7
  6
CONTINUOUS
 10
26141.3656
 20
39978.9717
  0
VERTEX
  8
LAYER1
 62
     7
  6
CONTINUOUS
 10
25986.8834
 20
39912.7613
  0
VERTEX
  8
LAYER1
 62
     7
  6
CONTINUOUS
 10
25688.9439
 20
39857.5924
  0
VERTEX
  8
LAYER1
 62
     7
  6
CONTINUOUS
 10
25413.0705
 20
39824.4872
  0
SEQEND
  8
LAYER1
  0
POLYLINE
  8
LAYER1
 62
     7
 66
     1
  6
HIDDEN
  0
VERTEX
  8
LAYER1
 62
     7
  6
HIDDEN
 10
16883.2000
 20
28778.6891
  0
VERTEX
  8
LAYER1
 62
     7
  6
HIDDEN
 10
16960.4470
 20
28778.6891
  0
VERTEX
  8
LAYER1
 62
     7
  6
HIDDEN
 10
17324.5945
 20
28778.6891
  0
VERTEX
  8
LAYER1
 62
     7
  6
HIDDEN
 10
17743.9110
 20
28822.8167
  0
VERTEX
  8
LAYER1
 62
     7
  6
HIDDEN
 10
17898.3931
 20
28877.9999
  0
VERTEX
  8
LAYER1
 62
     7
  6
HIDDEN
 10
18141.1637
 20
28977.3131
  0
VERTEX
  8
LAYER1
 62
     7
  6
HIDDEN
 10
18383.9319
 20
29087.6510
  0
VERTEX
  8
LAYER1
 62
     7
  6
HIDDEN
 10
18814.2898
 20
29253.1722
  0
VERTEX
  8
LAYER1
 62
     7
  6
HIDDEN
 10
19167.3959
 20
29440.7738
  0
VERTEX
  8
LAYER1
 62
     7
  6
HIDDEN
 10
19686.0256
 20
29683.5301
  0
VERTEX
  8
LAYER1
 62
     7
  6
HIDDEN
 10
20215.6943
 20
29871.1293
  0
VERTEX
  8
LAYER1
 62
     7
  6
HIDDEN
 10
20734.3383
 20
30080.7804
  0
VERTEX
  8
LAYER1
 62
     7
  6
HIDDEN
 10
21153.6548
 20
30224.2378
  0
VERTEX
  8
LAYER1
 62
     7
  6
HIDDEN
 10
21595.0493
 20
30389.7590
  0
VERTEX
  8
LAYER1
 62
     7
  6
HIDDEN
 10
22003.3268
 20
30566.3216
  0
VERTEX
  8
LAYER1
 62
     7
  6
HIDDEN
 10
22621.2839
 20
30952.5329
  0
VERTEX
  8
LAYER1
 62
     7
  6
HIDDEN
 10
23139.9136
 20
31294.6166
  0
VERTEX
  8
LAYER1
 62
     7
  6
HIDDEN
 10
23581.3081
 20
31559.4510
  0
VERTEX
  8
LAYER1
 62
     7
  6
HIDDEN
 10
23912.3529
 20
31769.0997
  0
VERTEX
  8
LAYER1
 62
     7
  6
HIDDEN
 10
24199.2510
 20
32067.0392
  0
VERTEX
  8
LAYER1
 62
     7
  6
HIDDEN
 10
24430.9801
 20
32530.4999
  0
VERTEX
  8
LAYER1
 62
     7
  6
HIDDEN
 10
24629.6065
 20
32949.8307
  0
VERTEX
  8
LAYER1
 62
     7
  6
HIDDEN
 10
24695.8145
 20
33137.4181
  0
VERTEX
  8
LAYER1
 62
     7
  6
HIDDEN
 10
24883.4018
 20
33578.8126
  0
VERTEX
  8
LAYER1
 62
     7
  6
HIDDEN
 10
25048.9230
 20
34009.1681
  0
VERTEX
  8
LAYER1
 62
     7
  6
HIDDEN
 10
25203.4194
 20
34340.2129
  0
VERTEX
  8
LAYER1
 62
     7
  6
HIDDEN
 10
25368.9430
 20
34671.2552
  0
VERTEX
  8
LAYER1
 62
     7
  6
HIDDEN
 10
25655.8411
 20
35145.7406
  0
VERTEX
  8
LAYER1
 62
     7
  6
HIDDEN
 10
25898.6117
 20
35554.0324
  0
VERTEX
  8
LAYER1
 62
     7
  6
HIDDEN
 10
26053.0914
 20
35818.8667
  0
VERTEX
  8
LAYER1
 62
     7
  6
HIDDEN
 10
26262.7592
 20
36160.9505
  0
VERTEX
  8
LAYER1
 62
     7
  6
HIDDEN
 10
26450.3442
 20
36514.0566
  0
VERTEX
  8
LAYER1
 62
     7
  6
HIDDEN
 10
26693.1147
 20
36922.3484
  0
VERTEX
  8
LAYER1
 62
     7
  6
HIDDEN
 10
26847.5969
 20
37275.4569
  0
VERTEX
  8
LAYER1
 62
     7
  6
HIDDEN
 10
26924.8439
 20
37628.5630
  0
VERTEX
  8
LAYER1
 62
     7
  6
HIDDEN
 10
26968.9738
 20
37948.5830
  0
VERTEX
  8
LAYER1
 62
     7
  6
HIDDEN
 10
26935.8686
 20
38169.2731
  0
VERTEX
  8
LAYER1
 62
     7
  6
HIDDEN
 10
26792.4279
 20
38478.2517
  0
VERTEX
  8
LAYER1
 62
     7
  6
HIDDEN
 10
26626.9067
 20
38676.8780
  0
VERTEX
  8
LAYER1
 62
     7
  6
HIDDEN
 10
26417.2390
 20
38886.5267
  0
VERTEX
  8
LAYER1
 62
     7
  6
HIDDEN
 10
26284.8230
 20
39029.9841
  0
VERTEX
  8
LAYER1
 62
     7
  6
HIDDEN
 10
26097.2357
 20
39261.7157
  0
VERTEX
  8
LAYER1
 62
     7
  6
HIDDEN
 10
25997.9249
 20
39405.1707
  0
VERTEX
  8
LAYER1
 62
     7
  6
HIDDEN
 10
25887.5703
 20
39581.7166
  0
VERTEX
  8
LAYER1
 62
     7
  6
HIDDEN
 10
25777.2181
 20
39736.2154
  0
VERTEX
  8
LAYER1
 62
     7
  6
HIDDEN
 10
25666.8801
 20
39857.5924
  0
VERTEX
  8
LAYER1
 62
     7
  6
HIDDEN
 10
25523.4227
 20
40001.0498
  0
VERTEX
  8
LAYER1
 62
     7
  6
HIDDEN
 10
25247.5494
 20
40210.7033
  0
VERTEX
  8
LAYER1
 62
     7
  6
HIDDEN
 10
25048.9230
 20
40376.2244
  0
VERTEX
  8
LAYER1
 62
     7
  6
HIDDEN
 10
24806.1691
 20
40596.9289
  0
VERTEX
  8
LAYER1
 62
     7
  6
HIDDEN
 10
24508.2296
 20
40872.7879
  0
VERTEX
  8
LAYER1
 62
     7
  6
HIDDEN
 10
24144.0820
 20
41192.8079
  0
VERTEX
  8
LAYER1
 62
     7
  6
HIDDEN
 10
23790.9592
 20
41446.6032
  0
VERTEX
  8
LAYER1
 62
     7
  6
HIDDEN
 10
23504.0611
 20
41700.3938
  0
VERTEX
  8
LAYER1
 62
     7
  6
HIDDEN
 10
23029.5590
 20
42097.6465
  0
VERTEX
  8
LAYER1
 62
     7
  6
HIDDEN
 10
22720.5971
 20
42285.2315
  0
VERTEX
  8
LAYER1
 62
     7
  6
HIDDEN
 10
22499.8903
 20
42450.7717
  0
VERTEX
  8
LAYER1
 62
     7
  6
HIDDEN
 10
22312.3053
 20
42627.3343
  0
VERTEX
  8
LAYER1
 62
     7
  6
HIDDEN
 10
21970.2216
 20
42870.0882
  0
VERTEX
  8
LAYER1
 62
     7
  6
HIDDEN
 10
21628.1545
 20
42991.4818
  0
VERTEX
  8
LAYER1
 62
     7
  6
HIDDEN
 10
21252.9679
 20
43123.8835
  0
VERTEX
  8
LAYER1
 62
     7
  6
HIDDEN
 10
20701.2331
 20
43454.9258
  0
VERTEX
  8
LAYER1
 62
     7
  6
HIDDEN
 10
20337.0856
 20
43675.6303
  0
VERTEX
  8
LAYER1
 62
     7
  6
HIDDEN
 10
20061.2122
 20
43863.2152
  0
VERTEX
  8
LAYER1
 62
     7
  6
HIDDEN
 10
19619.8176
 20
44083.9196
  0
VERTEX
  8
LAYER1
 62
     7
  6
HIDDEN
 10
19244.6454
 20
44172.1938
  0
VERTEX
  8
LAYER1
 62
     7
  6
HIDDEN
 10
18858.4174
 20
44216.3213
  0
VERTEX
  8
LAYER1
 62
     7
  6
HIDDEN
 10
18417.0371
 20
44238.4042
  0
VERTEX
  8
LAYER1
 62
     7
  6
HIDDEN
 10
17887.3684
 20
44271.5093
  0
VERTEX
  8
LAYER1
 62
     7
  6
HIDDEN
 10
17567.3484
 20
44304.6145
  0
VERTEX
  8
LAYER1
 62
     7
  6
HIDDEN
 10
17092.8654
 20
44370.8201
  0
VERTEX
  8
LAYER1
 62
     7
  6
HIDDEN
 10
16519.0524
 20
44425.9891
  0
VERTEX
  8
LAYER1
 62
     7
  6
HIDDEN
 10
15901.1096
 20
44370.8201
  0
VERTEX
  8
LAYER1
 62
     7
  6
HIDDEN
 10
15404.5449
 20
44183.2209
  0
VERTEX
  8
LAYER1
 62
     7
  6
HIDDEN
 10
15029.3571
 20
43995.6312
  0
VERTEX
  8
LAYER1
 62
     7
  6
HIDDEN
 10
14587.9614
 20
43719.7769
  0
VERTEX
  8
LAYER1
 62
     7
  6
HIDDEN
 10
14301.0621
 20
43510.1091
  0
VERTEX
  8
LAYER1
 62
     7
  6
HIDDEN
 10
14025.1875
 20
43289.4047
  0
VERTEX
  8
LAYER1
 62
     7
  6
HIDDEN
 10
13616.9112
 20
42958.3576
  0
VERTEX
  8
LAYER1
 62
     7
  6
HIDDEN
 10
13329.9976
 20
42759.7360
  0
VERTEX
  8
LAYER1
 62
     7
  6
HIDDEN
 10
12921.7214
 20
42483.8769
  0
VERTEX
  8
LAYER1
 62
     7
  6
HIDDEN
 10
12546.5336
 20
42174.8983
  0
VERTEX
  8
LAYER1
 62
     7
  6
HIDDEN
 10
12171.3459
 20
41810.7508
  0
VERTEX
  8
LAYER1
 62
     7
  6
HIDDEN
 10
11873.4075
 20
41501.7722
  0
VERTEX
  8
LAYER1
 62
     7
  6
HIDDEN
 10
11509.2600
 20
41016.2453
  0
VERTEX
  8
LAYER1
 62
     7
  6
HIDDEN
 10
11277.5296
 20
40541.7456
  0
VERTEX
  8
LAYER1
 62
     7
  6
HIDDEN
 10
11167.1929
 20
40298.9917
  0
VERTEX
  8
LAYER1
 62
     7
  6
HIDDEN
 10
11034.7757
 20
40001.0498
  0
VERTEX
  8
LAYER1
 62
     7
  6
HIDDEN
 10
10902.3585
 20
39670.0074
  0
VERTEX
  8
LAYER1
 62
     7
  6
HIDDEN
 10
10803.0454
 20
39349.9874
  0
VERTEX
  8
LAYER1
 62
     7
  6
HIDDEN
 10
10747.8609
 20
39162.4025
  0
VERTEX
  8
LAYER1
 62
     7
  6
HIDDEN
 10
10615.4437
 20
38787.2136
  0
VERTEX
  8
LAYER1
 62
     7
  6
HIDDEN
 10
10516.1306
 20
38522.3792
  0
VERTEX
  8
LAYER1
 62
     7
  6
HIDDEN
 10
10416.8174
 20
37860.2945
  0
VERTEX
  8
LAYER1
 62
     7
  6
HIDDEN
 10
10350.6094
 20
37474.0808
  0
VERTEX
  8
LAYER1
 62
     7
  6
HIDDEN
 10
10339.5847
 20
37010.6225
  0
VERTEX
  8
LAYER1
 62
     7
  6
HIDDEN
 10
10460.9616
 20
36436.8072
  0
VERTEX
  8
LAYER1
 62
     7
  6
HIDDEN
 10
10714.7569
 20
35863.0110
  0
VERTEX
  8
LAYER1
 62
     7
  6
HIDDEN
 10
11012.6953
 20
35123.6769
  0
VERTEX
  8
LAYER1
 62
     7
  6
HIDDEN
 10
11277.5296
 20
34649.1747
  0
VERTEX
  8
LAYER1
 62
     7
  6
HIDDEN
 10
11619.6134
 20
34296.0686
  0
VERTEX
  8
LAYER1
 62
     7
  6
HIDDEN
 10
11961.6959
 20
33898.8159
  0
VERTEX
  8
LAYER1
 62
     7
  6
HIDDEN
 10
12204.4510
 20
33424.3162
  0
VERTEX
  8
LAYER1
 62
     7
  6
HIDDEN
 10
12491.3646
 20
32949.8307
  0
VERTEX
  8
LAYER1
 62
     7
  6
HIDDEN
 10
12844.4720
 20
32497.3948
  0
VERTEX
  8
LAYER1
 62
     7
  6
HIDDEN
 10
13109.3075
 20
32122.2225
  0
VERTEX
  8
LAYER1
 62
     7
  6
HIDDEN
 10
13407.2458
 20
31769.0997
  0
VERTEX
  8
LAYER1
 62
     7
  6
HIDDEN
 10
13760.3531
 20
31404.9522
  0
VERTEX
  8
LAYER1
 62
     7
  6
HIDDEN
 10
14025.1875
 20
31118.0540
  0
VERTEX
  8
LAYER1
 62
     7
  6
HIDDEN
 10
14389.3350
 20
30764.9479
  0
VERTEX
  8
LAYER1
 62
     7
  6
HIDDEN
 10
14753.4826
 20
30356.6562
  0
VERTEX
  8
LAYER1
 62
     7
  6
HIDDEN
 10
15018.3169
 20
30069.7557
  0
VERTEX
  8
LAYER1
 62
     7
  6
HIDDEN
 10
15470.7529
 20
29705.6081
  0
VERTEX
  8
LAYER1
 62
     7
  6
HIDDEN
 10
15823.8602
 20
29407.6710
  0
VERTEX
  8
LAYER1
 62
     7
  6
HIDDEN
 10
16055.5905
 20
29198.0032
  0
VERTEX
  8
LAYER1
 62
     7
  6
HIDDEN
 10
16331.4651
 20
29010.4183
  0
VERTEX
  8
LAYER1
 62
     7
  6
HIDDEN
 10
16519.0524
 20
28889.0246
  0
VERTEX
  8
LAYER1
 62
     7
  6
HIDDEN
 10
16960.4470
 20
28778.6891
  0
SEQEND
  8
LAYER1
  0
POLYLINE
  8
LAYER1
 62
     7
 66
     1
  6
CENTER
  0
VERTEX
  8
LAYER1
 62
     7
  6
CENTER
 10
25280.6522
 20
37661.6682
  0
VERTEX
  8
LAYER1
 62
     7
  6
CENTER
 10
25247.5494
 20
37573.3940
  0
VERTEX
  8
LAYER1
 62
     7
  6
CENTER
 10
25391.0068
 20
37882.3726
  0
VERTEX
  8
LAYER1
 62
     7
  6
CENTER
 10
25490.3199
 20
38235.4811
  0
VERTEX
  8
LAYER1
 62
     7
  6
CENTER
 10
25567.5670
 20
38456.1712
  0
VERTEX
  8
LAYER1
 62
     7
  6
CENTER
 10
25677.9049
 20
38698.9418
  0
VERTEX
  8
LAYER1
 62
     7
  6
CENTER
 10
25722.0491
 20
38941.7124
  0
VERTEX
  8
LAYER1
 62
     7
  6
CENTER
 10
25655.8411
 20
39184.4663
  0
VERTEX
  8
LAYER1
 62
     7
  6
CENTER
 10
25556.5279
 20
39327.9237
  0
VERTEX
  8
LAYER1
 62
     7
  6
CENTER
 10
25424.1096
 20
39548.6138
  0
VERTEX
  8
LAYER1
 62
     7
  6
CENTER
 10
25413.0705
 20
39824.4872
  0
VERTEX
  8
LAYER1
 62
     7
  6
CENTER
 10
25324.7964
 20
39813.4482
  0
VERTEX
  8
LAYER1
 62
     7
  6
CENTER
 10
25192.3804
 20
39934.8418
  0
VERTEX
  8
LAYER1
 62
     7
  6
CENTER
 10
25026.8592
 20
40056.2187
  0
VERTEX
  8
LAYER1
 62
     7
  6
CENTER
 10
24850.2966
 20
40155.5343
  0
VERTEX
  8
LAYER1
 62
     7
  6
CENTER
 10
24673.7507
 20
40188.6395
  0
SEQEND
  8
LAYER1
  0
POLYLINE
  8
LAYER1
 62
     7
 66
     1
  6
CENTER
  0
VERTEX
  8
LAYER1
 62
     7
  6
CENTER
 10
14301.0621
 20
43510.1091
  0
VERTEX
  8
LAYER1
 62
     7
  6
CENTER
 10
14301.0621
 20
43609.4199
  0
VERTEX
  8
LAYER1
 62
     7
  6
CENTER
 10
14025.1875
 20
43609.4199
  0
VERTEX
  8
LAYER1
 62
     7
  6
CENTER
 10
13550.7032
 20
43565.2780
  0
VERTEX
  8
LAYER1
 62
     7
  6
CENTER
 10
13219.6597
 20
43499.0677
  0
VERTEX
  8
LAYER1
 62
     7
  6
CENTER
 10
12833.4329
 20
43388.7155
  0
VERTEX
  8
LAYER1
 62
     7
  6
CENTER
 10
12568.5986
 20
43300.4413
  0
VERTEX
  8
LAYER1
 62
     7
  6
CENTER
 10
12281.6993
 20
43201.1305
  0
VERTEX
  8
LAYER1
 62
     7
  6
CENTER
 10
11928.5920
 20
43123.8835
  0
VERTEX
  8
LAYER1
 62
     7
  6
CENTER
 10
11619.6134
 20
43046.6460
  0
VERTEX
  8
LAYER1
 62
     7
  6
CENTER
 10
11343.7388
 20
42925.2571
  0
VERTEX
  8
LAYER1
 62
     7
  6
CENTER
 10
11145.1124
 20
42649.3790
  0
VERTEX
  8
LAYER1
 62
     7
  6
CENTER
 10
11045.7993
 20
42296.2729
  0
VERTEX
  8
LAYER1
 62
     7
  6
CENTER
 10
10891.3183
 20
41722.4766
  0
VERTEX
  8
LAYER1
 62
     7
  6
CENTER
 10
10825.1091
 20
41358.3291
  0
VERTEX
  8
LAYER1
 62
     7
  6
CENTER
 10
10836.1494
 20
40916.9345
  0
VERTEX
  8
LAYER1
 62
     7
  6
CENTER
 10
10847.1741
 20
40552.7870
  0
VERTEX
  8
LAYER1
 62
     7
  6
CENTER
 10
10814.0701
 20
40287.9503
  0
VERTEX
  8
LAYER1
 62
     7
  6
CENTER
 10
10780.9649
 20
40023.1183
  0
VERTEX
  8
LAYER1
 62
     7
  6
CENTER
 10
10769.9414
 20
39868.6314
  0
VERTEX
  8
LAYER1
 62
     7
  6
CENTER
 10
10747.8609
 20
39603.7971
  0
VERTEX
  8
LAYER1
 62
     7
  6
CENTER
 10
10725.7971
 20
39250.6743
  0
VERTEX
  8
LAYER1
 62
     7
  6
CENTER
 10
10615.4437
 20
38787.2136
  0
SEQEND
  8
LAYER1
  0
POLYLINE
  8
LAYER1
 62
     7
 66
     1
  6
CONTINUOUS
  0
VERTEX
  8
LAYER1
 62
     7
  6
CONTINUOUS
 10
6488.4446
 20
23206.1216
  0
VERTEX
  8
LAYER1
 62
     7
  6
CONTINUOUS
 10
6521.5492
 20
23206.1216
  0
VERTEX
  8
LAYER1
 62
     7
  6
CONTINUOUS
 10
6742.2393
 20
23206.1216
  0
VERTEX
  8
LAYER1
 62
     7
  6
CONTINUOUS
 10
6996.0495
 20
23206.1216
  0
VERTEX
  8
LAYER1
 62
     7
  6
CONTINUOUS
 10
7338.1172
 20
23228.1853
  0
VERTEX
  8
LAYER1
 62
     7
  6
CONTINUOUS
 10
7569.8469
 20
23316.4738
  0
VERTEX
  8
LAYER1
 62
     7
  6
CONTINUOUS
 10
7911.9301
 20
23559.2301
  0
VERTEX
  8
LAYER1
 62
     7
  6
CONTINUOUS
 10
8154.7001
 20
23735.7903
  0
VERTEX
  8
LAYER1
 62
     7
  6
CONTINUOUS
 10
8496.7678
 20
23967.5218
  0
VERTEX
  8
LAYER1
 62
     7
  6
CONTINUOUS
 10
8827.8107
 20
24144.0820
  0
VERTEX
  8
LAYER1
 62
     7
  6
CONTINUOUS
 10
9258.1668
 20
24243.3952
  0
VERTEX
  8
LAYER1
 62
     7
  6
CONTINUOUS
 10
9666.4586
 20
24276.5004
  0
VERTEX
  8
LAYER1
 62
     7
  6
CONTINUOUS
 10
10030.6061
 20
24287.5227
  0
VERTEX
  8
LAYER1
 62
     7
  6
CONTINUOUS
 10
10549.2346
 20
24320.6279
  0
VERTEX
  8
LAYER1
 62
     7
  6
CONTINUOUS
 10
10803.0454
 20
24342.7084
  0
VERTEX
  8
LAYER1
 62
     7
  6
CONTINUOUS
 10
11255.4659
 20
24364.7722
  0
VERTEX
  8
LAYER1
 62
     7
  6
CONTINUOUS
 10
11674.7811
 20
24386.8359
  0
VERTEX
  8
LAYER1
 62
     7
  6
CONTINUOUS
 10
12027.9051
 20
24408.9164
  0
VERTEX
  8
LAYER1
 62
     7
  6
CONTINUOUS
 10
12535.4934
 20
24453.0463
  0
VERTEX
  8
LAYER1
 62
     7
  6
CONTINUOUS
 10
12954.8254
 20
24497.1905
  0
VERTEX
  8
LAYER1
 62
     7
  6
CONTINUOUS
 10
13385.1809
 20
24541.3347
  0
VERTEX
  8
LAYER1
 62
     7
  6
CONTINUOUS
 10
13914.8508
 20
24563.3985
  0
VERTEX
  8
LAYER1
 62
     7
  6
CONTINUOUS
 10
14532.7924
 20
24574.4375
  0
VERTEX
  8
LAYER1
 62
     7
  6
CONTINUOUS
 10
15161.7743
 20
24585.4623
  0
VERTEX
  8
LAYER1
 62
     7
  6
CONTINUOUS
 10
15680.4028
 20
24618.5675
  0
VERTEX
  8
LAYER1
 62
     7
  6
CONTINUOUS
 10
16408.6978
 20
24640.6479
  0
VERTEX
  8
LAYER1
 62
     7
  6
CONTINUOUS
 10
16938.3665
 20
24640.6479
  0
VERTEX
  8
LAYER1
 62
     7
  6
CONTINUOUS
 10
17357.6997
 20
24596.5037
  0
VERTEX
  8
LAYER1
 62
     7
  6
CONTINUOUS
 10
17777.0162
 20
24552.3595
  0
VERTEX
  8
LAYER1
 62
     7
  6
CONTINUOUS
 10
18394.9567
 20
24497.1905
  0
VERTEX
  8
LAYER1
 62
     7
  6
CONTINUOUS
 10
18902.5616
 20
24464.0853
  0
VERTEX
  8
LAYER1
 62
     7
  6
CONTINUOUS
 10
19421.1913
 20
24453.0463
  0
VERTEX
  8
LAYER1
 62
     7
  6
CONTINUOUS
 10
19950.8600
 20
24464.0853
  0
VERTEX
  8
LAYER1
 62
     7
  6
CONTINUOUS
 10
20469.5039
 20
24453.0463
  0
VERTEX
  8
LAYER1
 62
     7
  6
CONTINUOUS
 10
20800.5463
 20
24442.0216
  0
VERTEX
  8
LAYER1
 62
     7
  6
CONTINUOUS
 10
21219.8628
 20
24430.9801
  0
VERTEX
  8
LAYER1
 62
     7
  6
CONTINUOUS
 10
21628.1545
 20
24430.9801
  0
VERTEX
  8
LAYER1
 62
     7
  6
CONTINUOUS
 10
21892.9889
 20
24430.9801
  0
VERTEX
  8
LAYER1
 62
     7
  6
CONTINUOUS
 10
22212.9922
 20
24475.1244
  0
VERTEX
  8
LAYER1
 62
     7
  6
CONTINUOUS
 10
22544.0345
 20
24530.2933
  0
SEQEND
  8
LAYER1
  0
POLYLINE
  8
LAYER1
 62
     7
 66
     1
  6
CONTINUOUS
  0
VERTEX
  8
LAYER1
 62
     7
  6
CONTINUOUS
 10
7338.1172
 20
23228.1853
  0
VERTEX
  8
LAYER1
 62
     7
  6
CONTINUOUS
 10
7293.9884
 20
23349.5790
  0
VERTEX
  8
LAYER1
 62
     7
  6
CONTINUOUS
 10
7327.0924
 20
23062.6642
  0
VERTEX
  8
LAYER1
 62
     7
  6
CONTINUOUS
 10
7316.0528
 20
22808.8689
  0
VERTEX
  8
LAYER1
 62
     7
  6
CONTINUOUS
 10
7316.0528
 20
22654.3891
  0
VERTEX
  8
LAYER1
 62
     7
  6
CONTINUOUS
 10
7282.9482
 20
22301.2663
  0
VERTEX
  8
LAYER1
 62
     7
  6
CONTINUOUS
 10
7183.6356
 20
22025.4072
  0
VERTEX
  8
LAYER1
 62
     7
  6
CONTINUOUS
 10
7095.3627
 20
21782.6366
  0
VERTEX
  8
LAYER1
 62
     7
  6
CONTINUOUS
 10
6973.9696
 20
21429.5281
  0
VERTEX
  8
LAYER1
 62
     7
  6
CONTINUOUS
 10
6874.6565
 20
21087.4468
  0
VERTEX
  8
LAYER1
 62
     7
  6
CONTINUOUS
 10
6786.3835
 20
20734.3383
  0
VERTEX
  8
LAYER1
 62
     7
  6
CONTINUOUS
 10
6731.2151
 20
20469.5039
  0
VERTEX
  8
LAYER1
 62
     7
  6
CONTINUOUS
 10
6653.9663
 20
20028.1070
  0
VERTEX
  8
LAYER1
 62
     7
  6
CONTINUOUS
 10
6598.7980
 20
19675.0009
  0
VERTEX
  8
LAYER1
 62
     7
  6
CONTINUOUS
 10
6587.7577
 20
19421.1901
  0
VERTEX
  8
LAYER1
 62
     7
  6
CONTINUOUS
 10
6565.6934
 20
18979.8098
  0
VERTEX
  8
LAYER1
 62
     7
  6
CONTINUOUS
 10
6510.5089
 20
18494.2698
  0
VERTEX
  8
LAYER1
 62
     7
  6
CONTINUOUS
 10
6488.4446
 20
18240.4745
  0
VERTEX
  8
LAYER1
 62
     7
  6
CONTINUOUS
 10
6499.4848
 20
17887.3672
  0
VERTEX
  8
LAYER1
 62
     7
  6
CONTINUOUS
 10
6554.6537
 20
17600.4536
  0
VERTEX
  8
LAYER1
 62
     7
  6
CONTINUOUS
 10
6620.8623
 20
17324.5945
  0
VERTEX
  8
LAYER1
 62
     7
  6
CONTINUOUS
 10
6753.2795
 20
17048.7199
  0
VERTEX
  8
LAYER1
 62
     7
  6
CONTINUOUS
 10
6962.9449
 20
16828.0298
  0
VERTEX
  8
LAYER1
 62
     7
  6
CONTINUOUS
 10
7194.6753
 20
16662.5086
  0
VERTEX
  8
LAYER1
 62
     7
  6
CONTINUOUS
 10
7547.7826
 20
16552.1552
  0
VERTEX
  8
LAYER1
 62
     7
  6
CONTINUOUS
 10
7856.7617
 20
16496.9863
  0
VERTEX
  8
LAYER1
 62
     7
  6
CONTINUOUS
 10
8209.8690
 20
16441.8018
  0
VERTEX
  8
LAYER1
 62
     7
  6
CONTINUOUS
 10
8706.4337
 20
16386.6341
  0
VERTEX
  8
LAYER1
 62
     7
  6
CONTINUOUS
 10
9158.8542
 20
16353.5289
  0
VERTEX
  8
LAYER1
 62
     7
  6
CONTINUOUS
 10
9500.9374
 20
16309.3847
  0
VERTEX
  8
LAYER1
 62
     7
  6
CONTINUOUS
 10
10041.6463
 20
16265.2559
  0
VERTEX
  8
LAYER1
 62
     7
  6
CONTINUOUS
 10
10560.2748
 20
16232.1519
  0
VERTEX
  8
LAYER1
 62
     7
  6
CONTINUOUS
 10
11089.9435
 20
16199.0479
  0
VERTEX
  8
LAYER1
 62
     7
  6
CONTINUOUS
 10
11619.6134
 20
16199.0479
  0
VERTEX
  8
LAYER1
 62
     7
  6
CONTINUOUS
 10
12049.9689
 20
16243.1767
  0
VERTEX
  8
LAYER1
 62
     7
  6
CONTINUOUS
 10
12568.5986
 20
16287.3209
  0
VERTEX
  8
LAYER1
 62
     7
  6
CONTINUOUS
 10
13252.7637
 20
16331.4651
  0
VERTEX
  8
LAYER1
 62
     7
  6
CONTINUOUS
 10
13771.3934
 20
16397.6731
  0
VERTEX
  8
LAYER1
 62
     7
  6
CONTINUOUS
 10
14389.3350
 20
16496.9863
  0
VERTEX
  8
LAYER1
 62
     7
  6
CONTINUOUS
 10
14687.2734
 20
16530.0915
  0
VERTEX
  8
LAYER1
 62
     7
  6
CONTINUOUS
 10
15029.3571
 20
16563.1955
  0
VERTEX
  8
LAYER1
 62
     7
  6
CONTINUOUS
 10
15647.2988
 20
16552.1552
  0
VERTEX
  8
LAYER1
 62
     7
  6
CONTINUOUS
 10
16298.3611
 20
16519.0512
  0
VERTEX
  8
LAYER1
 62
     7
  6
CONTINUOUS
 10
16783.8868
 20
16508.0110
  0
VERTEX
  8
LAYER1
 62
     7
  6
CONTINUOUS
 10
17037.6797
 20
16485.9461
  0
VERTEX
  8
LAYER1
 62
     7
  6
CONTINUOUS
 10
17655.6392
 20
16408.6978
  0
VERTEX
  8
LAYER1
 62
     7
  6
CONTINUOUS
 10
17997.7063
 20
16364.5691
  0
VERTEX
  8
LAYER1
 62
     7
  6
CONTINUOUS
 10
18593.5830
 20
16353.5289
  0
VERTEX
  8
LAYER1
 62
     7
  6
CONTINUOUS
 10
18957.7306
 20
16364.5691
  0
VERTEX
  8
LAYER1
 62
     7
  6
CONTINUOUS
 10
19498.4383
 20
16375.5938
  0
VERTEX
  8
LAYER1
 62
     7
  6
CONTINUOUS
 10
20094.3174
 20
16375.5938
  0
VERTEX
  8
LAYER1
 62
     7
  6
CONTINUOUS
 10
20458.4649
 20
16364.5691
  0
VERTEX
  8
LAYER1
 62
     7
  6
CONTINUOUS
 10
20866.7566
 20
16320.4249
  0
VERTEX
  8
LAYER1
 62
     7
  6
CONTINUOUS
 10
21308.1369
 20
16287.3209
  0
VERTEX
  8
LAYER1
 62
     7
  6
CONTINUOUS
 10
21639.1792
 20
16287.3209
  0
VERTEX
  8
LAYER1
 62
     7
  6
CONTINUOUS
 10
22058.5100
 20
16320.4249
  0
VERTEX
  8
LAYER1
 62
     7
  6
CONTINUOUS
 10
22532.9955
 20
16364.5691
  0
VERTEX
  8
LAYER1
 62
     7
  6
CONTINUOUS
 10
22875.0792
 20
16485.9461
  0
VERTEX
  8
LAYER1
 62
     7
  6
CONTINUOUS
 10
23117.8498
 20
16673.5322
  0
VERTEX
  8
LAYER1
 62
     7
  6
CONTINUOUS
 10
23327.4985
 20
17026.6550
  0
VERTEX
  8
LAYER1
 62
     7
  6
CONTINUOUS
 10
23360.6037
 20
17468.0364
  0
VERTEX
  8
LAYER1
 62
     7
  6
CONTINUOUS
 10
23228.1853
 20
17986.6804
  0
VERTEX
  8
LAYER1
 62
     7
  6
CONTINUOUS
 10
23062.6642
 20
18494.2698
  0
VERTEX
  8
LAYER1
 62
     7
  6
CONTINUOUS
 10
22930.2482
 20
18913.6018
  0
VERTEX
  8
LAYER1
 62
     7
  6
CONTINUOUS
 10
22853.0131
 20
19310.8533
  0
VERTEX
  8
LAYER1
 62
     7
  6
CONTINUOUS
 10
22753.7023
 20
19675.0009
  0
VERTEX
  8
LAYER1
 62
     7
  6
CONTINUOUS
 10
22654.3891
 20
20116.3811
  0
VERTEX
  8
LAYER1
 62
     7
  6
CONTINUOUS
 10
22544.0345
 20
20458.4649
  0
VERTEX
  8
LAYER1
 62
     7
  6
CONTINUOUS
 10
22389.5548
 20
20899.8594
  0
VERTEX
  8
LAYER1
 62
     7
  6
CONTINUOUS
 10
22323.3444
 20
21230.9042
  0
VERTEX
  8
LAYER1
 62
     7
  6
CONTINUOUS
 10
22268.1611
 20
21506.7609
  0
VERTEX
  8
LAYER1
 62
     7
  6
CONTINUOUS
 10
22212.9922
 20
21771.5952
  0
VERTEX
  8
LAYER1
 62
     7
  6
CONTINUOUS
 10
22113.6790
 20
22102.6400
  0
VERTEX
  8
LAYER1
 62
     7
  6
CONTINUOUS
 10
22025.4072
 20
22466.7875
  0
VERTEX
  8
LAYER1
 62
     7
  6
CONTINUOUS
 10
22014.3658
 20
22853.0131
  0
VERTEX
  8
LAYER1
 62
     7
  6
CONTINUOUS
 10
21959.1968
 20
23206.1216
  0
VERTEX
  8
LAYER1
 62
     7
  6
CONTINUOUS
 10
21937.1188
 20
23504.0611
  0
VERTEX
  8
LAYER1
 62
     7
  6
CONTINUOUS
 10
21937.1188
 20
23835.1035
  0
VERTEX
  8
LAYER1
 62
     7
  6
CONTINUOUS
 10
21892.9889
 20
24430.9801
  0
SEQEND
  8
LAYER1
  0
POLYLINE
  8
LAYER1
 62
     7
 66
     1
  6
CONTINUOUS
  0
VERTEX
  8
LAYER1
 62
     7
  6
CONTINUOUS
 10
7316.0528
 20
22808.8689
  0
VERTEX
  8
LAYER1
 62
     7
  6
CONTINUOUS
 10
7293.9884
 20
22742.6609
  0
VERTEX
  8
LAYER1
 62
     7
  6
CONTINUOUS
 10
7481.5740
 20
22764.7246
  0
VERTEX
  8
LAYER1
 62
     7
  6
CONTINUOUS
 10
7845.7215
 20
22808.8689
  0
VERTEX
  8
LAYER1
 62
     7
  6
CONTINUOUS
 10
8265.0374
 20
22864.0378
  0
VERTEX
  8
LAYER1
 62
     7
  6
CONTINUOUS
 10
8706.4337
 20
22897.1430
  0
VERTEX
  8
LAYER1
 62
     7
  6
CONTINUOUS
 10
9125.7496
 20
22875.0792
  0
VERTEX
  8
LAYER1
 62
     7
  6
CONTINUOUS
 10
9467.8328
 20
22864.0378
  0
VERTEX
  8
LAYER1
 62
     7
  6
CONTINUOUS
 10
9898.1889
 20
22853.0131
  0
VERTEX
  8
LAYER1
 62
     7
  6
CONTINUOUS
 10
10350.6094
 20
22875.0792
  0
VERTEX
  8
LAYER1
 62
     7
  6
CONTINUOUS
 10
10780.9649
 20
22897.1430
  0
VERTEX
  8
LAYER1
 62
     7
  6
CONTINUOUS
 10
11310.6336
 20
22941.2872
  0
VERTEX
  8
LAYER1
 62
     7
  6
CONTINUOUS
 10
11740.9903
 20
22963.3510
  0
VERTEX
  8
LAYER1
 62
     7
  6
CONTINUOUS
 10
12303.7630
 20
22963.3510
  0
VERTEX
  8
LAYER1
 62
     7
  6
CONTINUOUS
 10
12855.5122
 20
22941.2872
  0
VERTEX
  8
LAYER1
 62
     7
  6
CONTINUOUS
 10
13307.9327
 20
22908.1820
  0
VERTEX
  8
LAYER1
 62
     7
  6
CONTINUOUS
 10
13947.9548
 20
22808.8689
  0
VERTEX
  8
LAYER1
 62
     7
  6
CONTINUOUS
 10
14455.5442
 20
22786.8051
  0
VERTEX
  8
LAYER1
 62
     7
  6
CONTINUOUS
 10
15084.5261
 20
22875.0792
  0
VERTEX
  8
LAYER1
 62
     7
  6
CONTINUOUS
 10
15603.1701
 20
22952.3263
  0
VERTEX
  8
LAYER1
 62
     7
  6
CONTINUOUS
 10
16132.8388
 20
23029.5590
  0
VERTEX
  8
LAYER1
 62
     7
  6
CONTINUOUS
 10
16552.1552
 20
23051.6394
  0
VERTEX
  8
LAYER1
 62
     7
  6
CONTINUOUS
 10
17059.7602
 20
23051.6394
  0
VERTEX
  8
LAYER1
 62
     7
  6
CONTINUOUS
 10
17567.3484
 20
23040.6004
  0
VERTEX
  8
LAYER1
 62
     7
  6
CONTINUOUS
 10
18174.2665
 20
23062.6642
  0
VERTEX
  8
LAYER1
 62
     7
  6
CONTINUOUS
 10
18803.2484
 20
23106.8084
  0
VERTEX
  8
LAYER1
 62
     7
  6
CONTINUOUS
 10
19432.2303
 20
23117.8498
  0
VERTEX
  8
LAYER1
 62
     7
  6
CONTINUOUS
 10
19961.8990
 20
23150.9526
  0
VERTEX
  8
LAYER1
 62
     7
  6
CONTINUOUS
 10
20436.3987
 20
23206.1216
  0
VERTEX
  8
LAYER1
 62
     7
  6
CONTINUOUS
 10
20877.7790
 20
23239.2268
  0
VERTEX
  8
LAYER1
 62
     7
  6
CONTINUOUS
 10
21219.8628
 20
23250.2658
  0
VERTEX
  8
LAYER1
 62
     7
  6
CONTINUOUS
 10
21473.6581
 20
23250.2658
  0
VERTEX
  8
LAYER1
 62
     7
  6
CONTINUOUS
 10
21959.1968
 20
23206.1216
  0
SEQEND
  8
LAYER1
  0
POLYLINE
  8
LAYER1
 62
     7
 66
     1
  6
CONTINUOUS
  0
VERTEX
  8
LAYER1
 62
     7
  6
CONTINUOUS
 10
33556.7298
 20
34748.4879
  0
VERTEX
  8
LAYER1
 62
     7
  6
CONTINUOUS
 10
33534.6660
 20
37485.1223
  0
SEQEND
  8
LAYER1
  0
POLYLINE
  8
LAYER1
 62
     7
 66
     1
  6
CONTINUOUS
  0
VERTEX
  8
LAYER1
 62
     7
  6
CONTINUOUS
 10
33534.6660
 20
37485.1223
  0
VERTEX
  8
LAYER1
 62
     7
  6
CONTINUOUS
 10
33351.5939
 20
36942.6942
  0
SEQEND
  8
LAYER1
  0
POLYLINE
  8
LAYER1
 62
     7
 66
     1
  6
CONTINUOUS
  0
VERTEX
  8
LAYER1
 62
     7
  6
CONTINUOUS
 10
28017.2865
 20
15713.5080
  0
VERTEX
  8
LAYER1
 62
     7
  6
CONTINUOUS
 10
30753.9041
 20
15713.5080
  0
SEQEND
  8
LAYER1
  0
POLYLINE
  8
LAYER1
 62
     7
 66
     1
  6
CONTINUOUS
  0
VERTEX
  8
LAYER1
 62
     7
  6
CONTINUOUS
 10
30753.9041
 20
15713.5080
  0
VERTEX
  8
LAYER1
 62
     7
  6
CONTINUOUS
 10
30753.9041
 20
16008.4477
  0
SEQEND
  8
LAYER1
  0
POLYLINE
  8
LAYER1
 62
     7
 66
     1
  6
CONTINUOUS
  0
VERTEX
  8
LAYER1
 62
     7
  6
CONTINUOUS
 10
28017.2865
 20
16005.6063
  0
VERTEX
  8
LAYER1
 62
     7
  6
CONTINUOUS
 10
28017.2865
 20
15713.5080
  0
SEQEND
  8
LAYER1
  0
POLYLINE
  8
LAYER1
 62
     7
 66
     1
  6
CONTINUOUS
  0
VERTEX
  8
LAYER1
 62
     7
  6
CONTINUOUS
 10
30753.9041
 20
15713.5080
  0
VERTEX
  8
LAYER1
 62
     7
  6
CONTINUOUS
 10
28017.2865
 20
15713.5080
  0
SEQEND
  8
LAYER1
  0
POLYLINE
  8
LAYER1
 62
     3
 66
     1
  6
CONTINUOUS
  0
VERTEX
  8
LAYER1
 62
     3
  6
CONTINUOUS
 10
17203.2009
 20
29573.1922
  0
VERTEX
  8
LAYER1
 62
     3
  6
CONTINUOUS
 10
17203.2009
 20
30555.2802
  0
SEQEND
  8
LAYER1
  0
POLYLINE
  8
LAYER1
 62
     3
 66
     1
  6
CONTINUOUS
  0
VERTEX
  8
LAYER1
 62
     3
  6
CONTINUOUS
 10
17203.2009
 20
30555.2802
  0
VERTEX
  8
LAYER1
 62
     3
  6
CONTINUOUS
 10
17203.2009
 20
31073.9098
  0
SEQEND
  8
LAYER1
  0
POLYLINE
  8
LAYER1
 62
     3
 66
     1
  6
CONTINUOUS
  0
VERTEX
  8
LAYER1
 62
     3
  6
CONTINUOUS
 10
17203.2009
 20
43488.0310
  0
VERTEX
  8
LAYER1
 62
     3
  6
CONTINUOUS
 10
17203.2009
 20
43587.3418
  0
VERTEX
  8
LAYER1
 62
     3
  6
CONTINUOUS
 10
17203.2009
 20
45088.0738
  0
SEQEND
  8
LAYER1
  0
ENDSEC
  0
EOF
