  0
SECTION
  2
HEADER
  9
$ACADVER
  1
AC1004
  9
$EXTMIN
 10
4.4273
 20
3.7492
  9
$EXTMAX
 10
14.4436
 20
17.9784
  9
$LIMMIN
 10
4.4273
 20
3.7492
  9
$LIMMAX
 10
14.4436
 20
17.9784
  9
$INSBASE
 10
0.0
 20
0.0
  9
$VIEWCTR
 10
7.21903
 20
4.5
  9
$VIEWSIZE
 40
9.0
  9
$SNAPMODE
 70
     0
  9
$SNAPUNIT
 10
1.0
 20
1.0
  9
$SNAPBASE
 10
0.0
 20
0.0
  9
$SNAPANG
 50
0.0
  9
$SNAPSTYLE
 70
     0
  9
$SNAPISOPAIR
 70
     0
  9
$GRIDMODE
 70
     0
  9
$GRIDUNIT
 10
0.0
 20
0.0
  9
$ORTHOMODE
 70
     0
  9
$REGENMODE
 70
     1
  9
$FILLMODE
 70
     1
  9
$QTEXTMODE
 70
     0
  9
$DRAGMODE
 70
     2
  9
$LTSCALE
 40
1.0
  9
$OSMODE
 70
     0
  9
$ATTMODE
 70
     1
  9
$TEXTSIZE
 40
0.2
  9
$TRACEWID
 40
0.05
  9
$TEXTSTYLE
  7
STANDARD
  9
$CLAYER
  8
0
  9
$CELTYPE
  6
BYLAYER
  9
$CECOLOR
 62
   256
  9
$DIMSCALE
 40
1.0
  9
$DIMASZ
 40
0.18
  9
$DIMEXO
 40
0.0625
  9
$DIMDLI
 40
0.38
  9
$DIMRND
 40
0.0
  9
$DIMDLE
 40
0.0
  9
$DIMEXE
 40
0.18
  9
$DIMTP
 40
0.0
  9
$DIMTM
 40
0.0
  9
$DIMTXT
 40
0.18
  9
$DIMCEN
 40
0.09
  9
$DIMTSZ
 40
0.0
  9
$DIMTOL
 70
     0
  9
$DIMLIM
 70
     0
  9
$DIMTIH
 70
     1
  9
$DIMTOH
 70
     1
  9
$DIMSE1
 70
     0
  9
$DIMSE2
 70
     0
  9
$DIMTAD
 70
     0
  9
$DIMZIN
 70
     0
  9
$DIMBLK
  1

  9
$DIMASO
 70
     1
  9
$DIMSHO
 70
     0
  9
$DIMPOST
  1

  9
$DIMAPOST
  1

  9
$DIMALT
 70
     0
  9
$DIMALTD
 70
     2
  9
$DIMALTF
 40
25.4
  9
$DIMLFAC
 40
1.0
  9
$LUNITS
 70
     2
  9
$LUPREC
 70
     4
  9
$AXISMODE
 70
     0
  9
$AXISUNIT
 10
0.0
 20
0.0
  9
$SKETCHINC
 40
0.1
  9
$FILLETRAD
 40
0.0
  9
$AUNITS
 70
     0
  9
$AUPREC
 70
     0
  9
$MENU
  1
acad
  9
$ELEVATION
 40
0.0
  9
$THICKNESS
 40
0.0
  9
$VIEWDIR
 10
0.0
 20
0.0
 30
1.0
  9
$LIMCHECK
 70
     0
  9
$BLIPMODE
 70
     1
  9
$CHAMFERA
 40
0.0
  9
$CHAMFERB
 40
0.0
  9
$FASTZOOM
 70
     1
  9
$SKPOLY
 70
     0
  9
$TDCREATE
 40
2447222.5666886573
  9
$TDUPDATE
 40
2447222.5666886573
  9
$TDINDWG
 40
0.0000000000
  9
$TDUSRTIMER
 40
0.0000000000
  9
$USRTIMER
 70
     1
  9
$ANGBASE
 50
0.0
  9
$ANGDIR
 70
     0
  9
$PDMODE
 70
     0
  9
$PDSIZE
 40
0.0
  9
$PLINEWID
 40
0.0
  9
$COORDS
 70
     0
  9
$SPLFRAME
 70
     0
  9
$SPLINESEGS
 70
     8
  9
$ATTDIA
 70
     0
  9
$ATTREQ
 70
     1
  9
$USERI1
 70
     0
  9
$USERI2
 70
     0
  9
$USERI3
 70
     0
  9
$USERI4
 70
     0
  9
$USERI5
 70
     0
  9
$USERR1
 40
0.0
  9
$USERR2
 40
0.0
  9
$USERR3
 40
0.0
  9
$USERR4
 40
0.0
  9
$USERR5
 40
0.0
  0
ENDSEC
  0
SECTION
  2
TABLES
  0
TABLE
  2
LTYPE
 70
     13
  0
LTYPE
  2
CONTINUOUS
 70
    64
  3
Solid line
 72
    65
 73
     0
 40
0.0
  0
LTYPE
  2
DASHED
 70
    64
  3
__ __ __ __ __ __ __ __ __ __ __ __ __ __ __
 72
    65
 73
     2
 40
0.75
 49
0.5
 49
-0.25
  0
LTYPE
  2
HIDDEN
 70
    64
  3
_ _ _ _ _ _ _ _ _ _ _ _ _ _ _ _ _ _ _ _ _ _ _
 72
    65
 73
     2
 40
0.375
 49
0.25
 49
-0.125
  0
LTYPE
  2
CENTER
 70
    64
  3
____ _ ____ _ ____ _ ____ _ ____ _ ____ _ ____
 72
    65
 73
     4
 40
2.0
 49
1.25
 49
-0.25
 49
0.25
 49
-0.25
  0
LTYPE
  2
PHANTOM
 70
    64
  3
_____ _ _ _____ _ _ _____ _ _ _____ _ _ ____
 72
    65
 73
     6
 40
2.5
 49
1.25
 49
-0.25
 49
0.25
 49
-0.25
 49
0.25
 49
-0.25
  0
LTYPE
  2
DOT
 70
    64
  3
...............................................
 72
    65
 73
     2
 40
0.25
 49
0.0
 49
-0.25
  0
LTYPE
  2
DASHDOT
 70
    64
  3
__ . __ . __ . __ . __ . __ . __ . __ . __ . __
 72
    65
 73
     4
 40
1.0
 49
0.5
 49
-0.25
 49
0.0
 49
-0.25
  0
LTYPE
  2
BORDER
 70
    64
  3
__ __ . __ __ . __ __ . __ __ . __ __ . __ __
 72
    65
 73
     6
 40
1.75
 49
0.5
 49
-0.25
 49
0.5
 49
-0.25
 49
0.0
 49
-0.25
  0
LTYPE
  2
DIVIDE
 70
    64
  3
__ . . __ . . __ . . __ . . __ . . __ . . __
 72
    65
 73
     6
 40
1.25
 49
0.5
 49
-0.25
 49
0.0
 49
-0.25
 49
0.0
 49
-0.25
  0
LTYPE
  2
DCTYPE1
 70
    64
  3
__ . . __ . . __ . . __ . . __ . . __ . . __
 72
    65
 73
     8
 40
2.5
 49
0.5
 49
-0.25
 49
0.125
 49
-0.25
 49
0.25
 49
-0.25
 49
0.125
 49
-0.25
  0
LTYPE
  2
DCTYPE2
 70
    64
  3
__ . . __ . . __ . . __ . . __ . . __ . . __
 72
    65
 73
     6
 40
2.05
 49
1.0
 49
-0.3
 49
0.15
 49
-0.15
 49
0.15
 49
-0.3
  0
LTYPE
  2
DCTYPE3
 70
    64
  3
__ . . __ . . __ . . __ . . __ . . __ . . __
 72
    65
 73
     6
 40
2.5
 49
0.8
 49
-0.2
 49
0.8
 49
-0.2
 49
0.3
 49
-0.2
  0
LTYPE
  2
DCTYPE4
 70
    64
  3
__ . . __ . . __ . . __ . . __ . . __ . . __
 72
    65
 73
     10
 40
3.97
 49
1.75
 49
-0.3
 49
0.3
 49
-0.3
 49
0.06
 49
-0.3
 49
0.06
 49
-0.3
 49
0.3
 49
-0.3
  0
ENDTAB
  0
TABLE
  2
LAYER
 70
    153
  0
LAYER
  2
LAYER1
 70
 64
 62
     7
  6
CONTINUOUS
  0
ENDTAB
  0
ENDSEC
  0
SECTION
  2
BLOCKS
  0
ENDSEC
  0
SECTION
  2
ENTITIES
  0
POLYLINE
  8
LAYER1
 62
     7
 66
     1
  6
CONTINUOUS
  0
VERTEX
  8
LAYER1
 62
     7
  6
CONTINUOUS
 10
10.8090
 20
17.2156
  0
VERTEX
  8
LAYER1
 62
     7
  6
CONTINUOUS
 10
10.7641
 20
17.2405
  0
VERTEX
  8
LAYER1
 62
     7
  6
CONTINUOUS
 10
10.5647
 20
17.3103
  0
VERTEX
  8
LAYER1
 62
     7
  6
CONTINUOUS
 10
10.4101
 20
17.3203
  0
VERTEX
  8
LAYER1
 62
     7
  6
CONTINUOUS
 10
10.1758
 20
17.3203
  0
VERTEX
  8
LAYER1
 62
     7
  6
CONTINUOUS
 10
10.0262
 20
17.2854
  0
VERTEX
  8
LAYER1
 62
     7
  6
CONTINUOUS
 10
9.7420
 20
17.2106
  0
VERTEX
  8
LAYER1
 62
     7
  6
CONTINUOUS
 10
9.5326
 20
17.1608
  0
VERTEX
  8
LAYER1
 62
     7
  6
CONTINUOUS
 10
9.2933
 20
17.0710
  0
VERTEX
  8
LAYER1
 62
     7
  6
CONTINUOUS
 10
9.1438
 20
16.9763
  0
VERTEX
  8
LAYER1
 62
     7
  6
CONTINUOUS
 10
8.9244
 20
16.8516
  0
VERTEX
  8
LAYER1
 62
     7
  6
CONTINUOUS
 10
8.7100
 20
16.6672
  0
VERTEX
  8
LAYER1
 62
     7
  6
CONTINUOUS
 10
8.5554
 20
16.5326
  0
VERTEX
  8
LAYER1
 62
     7
  6
CONTINUOUS
 10
8.3610
 20
16.4029
  0
VERTEX
  8
LAYER1
 62
     7
  6
CONTINUOUS
 10
8.1616
 20
16.2633
  0
VERTEX
  8
LAYER1
 62
     7
  6
CONTINUOUS
 10
8.0718
 20
16.1786
  0
VERTEX
  8
LAYER1
 62
     7
  6
CONTINUOUS
 10
7.9970
 20
15.9791
  0
VERTEX
  8
LAYER1
 62
     7
  6
CONTINUOUS
 10
7.9921
 20
15.7398
  0
VERTEX
  8
LAYER1
 62
     7
  6
CONTINUOUS
 10
8.0020
 20
15.5354
  0
VERTEX
  8
LAYER1
 62
     7
  6
CONTINUOUS
 10
8.0220
 20
15.2512
  0
VERTEX
  8
LAYER1
 62
     7
  6
CONTINUOUS
 10
8.0270
 20
14.9770
  0
VERTEX
  8
LAYER1
 62
     7
  6
CONTINUOUS
 10
8.0020
 20
14.6480
  0
VERTEX
  8
LAYER1
 62
     7
  6
CONTINUOUS
 10
7.9522
 20
14.4984
  0
VERTEX
  8
LAYER1
 62
     7
  6
CONTINUOUS
 10
7.8924
 20
14.4087
  0
VERTEX
  8
LAYER1
 62
     7
  6
CONTINUOUS
 10
7.7428
 20
14.2591
  0
VERTEX
  8
LAYER1
 62
     7
  6
CONTINUOUS
 10
7.5932
 20
14.0248
  0
VERTEX
  8
LAYER1
 62
     7
  6
CONTINUOUS
 10
7.5334
 20
13.8652
  0
VERTEX
  8
LAYER1
 62
     7
  6
CONTINUOUS
 10
7.4686
 20
13.7057
  0
VERTEX
  8
LAYER1
 62
     7
  6
CONTINUOUS
 10
7.4486
 20
13.4963
  0
VERTEX
  8
LAYER1
 62
     7
  6
CONTINUOUS
 10
7.4736
 20
13.4215
  0
VERTEX
  8
LAYER1
 62
     7
  6
CONTINUOUS
 10
7.6630
 20
13.2520
  0
VERTEX
  8
LAYER1
 62
     7
  6
CONTINUOUS
 10
7.8126
 20
13.1672
  0
VERTEX
  8
LAYER1
 62
     7
  6
CONTINUOUS
 10
7.9921
 20
13.0625
  0
VERTEX
  8
LAYER1
 62
     7
  6
CONTINUOUS
 10
8.1815
 20
12.9030
  0
VERTEX
  8
LAYER1
 62
     7
  6
CONTINUOUS
 10
8.3660
 20
12.7484
  0
VERTEX
  8
LAYER1
 62
     7
  6
CONTINUOUS
 10
8.5405
 20
12.5839
  0
VERTEX
  8
LAYER1
 62
     7
  6
CONTINUOUS
 10
8.7150
 20
12.4094
  0
VERTEX
  8
LAYER1
 62
     7
  6
CONTINUOUS
 10
8.8995
 20
12.2349
  0
VERTEX
  8
LAYER1
 62
     7
  6
CONTINUOUS
 10
9.1188
 20
12.0404
  0
VERTEX
  8
LAYER1
 62
     7
  6
CONTINUOUS
 10
9.3133
 20
11.8909
  0
VERTEX
  8
LAYER1
 62
     7
  6
CONTINUOUS
 10
9.4529
 20
11.8161
  0
VERTEX
  8
LAYER1
 62
     7
  6
CONTINUOUS
 10
9.6772
 20
11.7513
  0
VERTEX
  8
LAYER1
 62
     7
  6
CONTINUOUS
 10
9.8767
 20
11.7064
  0
VERTEX
  8
LAYER1
 62
     7
  6
CONTINUOUS
 10
10.1359
 20
11.6715
  0
VERTEX
  8
LAYER1
 62
     7
  6
CONTINUOUS
 10
10.3653
 20
11.6566
  0
VERTEX
  8
LAYER1
 62
     7
  6
CONTINUOUS
 10
10.5447
 20
11.6516
  0
VERTEX
  8
LAYER1
 62
     7
  6
CONTINUOUS
 10
10.7492
 20
11.6566
  0
VERTEX
  8
LAYER1
 62
     7
  6
CONTINUOUS
 10
10.9386
 20
11.6815
  0
VERTEX
  8
LAYER1
 62
     7
  6
CONTINUOUS
 10
11.1281
 20
11.7313
  0
VERTEX
  8
LAYER1
 62
     7
  6
CONTINUOUS
 10
11.2726
 20
11.7961
  0
VERTEX
  8
LAYER1
 62
     7
  6
CONTINUOUS
 10
11.5020
 20
11.8859
  0
VERTEX
  8
LAYER1
 62
     7
  6
CONTINUOUS
 10
11.7812
 20
11.9507
  0
VERTEX
  8
LAYER1
 62
     7
  6
CONTINUOUS
 10
12.0604
 20
11.9756
  0
VERTEX
  8
LAYER1
 62
     7
  6
CONTINUOUS
 10
12.2847
 20
11.9756
  0
VERTEX
  8
LAYER1
 62
     7
  6
CONTINUOUS
 10
12.5141
 20
11.9906
  0
VERTEX
  8
LAYER1
 62
     7
  6
CONTINUOUS
 10
12.7833
 20
12.0654
  0
VERTEX
  8
LAYER1
 62
     7
  6
CONTINUOUS
 10
12.9229
 20
12.1651
  0
VERTEX
  8
LAYER1
 62
     7
  6
CONTINUOUS
 10
13.0775
 20
12.3944
  0
VERTEX
  8
LAYER1
 62
     7
  6
CONTINUOUS
 10
13.2121
 20
12.6637
  0
VERTEX
  8
LAYER1
 62
     7
  6
CONTINUOUS
 10
13.2719
 20
12.9827
  0
VERTEX
  8
LAYER1
 62
     7
  6
CONTINUOUS
 10
13.2968
 20
13.3417
  0
VERTEX
  8
LAYER1
 62
     7
  6
CONTINUOUS
 10
13.3317
 20
13.6209
  0
VERTEX
  8
LAYER1
 62
     7
  6
CONTINUOUS
 10
13.3567
 20
13.9101
  0
VERTEX
  8
LAYER1
 62
     7
  6
CONTINUOUS
 10
13.4165
 20
14.2790
  0
VERTEX
  8
LAYER1
 62
     7
  6
CONTINUOUS
 10
13.4564
 20
14.6380
  0
VERTEX
  8
LAYER1
 62
     7
  6
CONTINUOUS
 10
13.4913
 20
14.8374
  0
VERTEX
  8
LAYER1
 62
     7
  6
CONTINUOUS
 10
13.5362
 20
15.0767
  0
VERTEX
  8
LAYER1
 62
     7
  6
CONTINUOUS
 10
13.5561
 20
15.3210
  0
VERTEX
  8
LAYER1
 62
     7
  6
CONTINUOUS
 10
13.5212
 20
15.5105
  0
VERTEX
  8
LAYER1
 62
     7
  6
CONTINUOUS
 10
13.3317
 20
15.7897
  0
VERTEX
  8
LAYER1
 62
     7
  6
CONTINUOUS
 10
13.1323
 20
16.0290
  0
VERTEX
  8
LAYER1
 62
     7
  6
CONTINUOUS
 10
12.9877
 20
16.1736
  0
VERTEX
  8
LAYER1
 62
     7
  6
CONTINUOUS
 10
12.7933
 20
16.3232
  0
VERTEX
  8
LAYER1
 62
     7
  6
CONTINUOUS
 10
12.6288
 20
16.4279
  0
VERTEX
  8
LAYER1
 62
     7
  6
CONTINUOUS
 10
12.4243
 20
16.5824
  0
VERTEX
  8
LAYER1
 62
     7
  6
CONTINUOUS
 10
12.1900
 20
16.7669
  0
VERTEX
  8
LAYER1
 62
     7
  6
CONTINUOUS
 10
12.0803
 20
16.8666
  0
VERTEX
  8
LAYER1
 62
     7
  6
CONTINUOUS
 10
11.8809
 20
17.0162
  0
VERTEX
  8
LAYER1
 62
     7
  6
CONTINUOUS
 10
11.6316
 20
17.1408
  0
VERTEX
  8
LAYER1
 62
     7
  6
CONTINUOUS
 10
11.3773
 20
17.2056
  0
VERTEX
  8
LAYER1
 62
     7
  6
CONTINUOUS
 10
11.2178
 20
17.2355
  0
VERTEX
  8
LAYER1
 62
     7
  6
CONTINUOUS
 10
11.0932
 20
17.2405
  0
VERTEX
  8
LAYER1
 62
     7
  6
CONTINUOUS
 10
10.8090
 20
17.2156
  0
SEQEND
  8
LAYER1
  0
POLYLINE
  8
LAYER1
 62
     7
 66
     1
  6
CONTINUOUS
  0
VERTEX
  8
LAYER1
 62
     7
  6
CONTINUOUS
 10
7.1246
 20
5.3646
  0
VERTEX
  8
LAYER1
 62
     7
  6
CONTINUOUS
 10
7.2243
 20
5.3447
  0
VERTEX
  8
LAYER1
 62
     7
  6
CONTINUOUS
 10
7.4636
 20
5.3596
  0
VERTEX
  8
LAYER1
 62
     7
  6
CONTINUOUS
 10
7.6879
 20
5.3696
  0
VERTEX
  8
LAYER1
 62
     7
  6
CONTINUOUS
 10
7.8824
 20
5.4095
  0
VERTEX
  8
LAYER1
 62
     7
  6
CONTINUOUS
 10
8.0768
 20
5.4344
  0
VERTEX
  8
LAYER1
 62
     7
  6
CONTINUOUS
 10
8.2563
 20
5.4444
  0
VERTEX
  8
LAYER1
 62
     7
  6
CONTINUOUS
 10
8.6402
 20
5.4244
  0
VERTEX
  8
LAYER1
 62
     7
  6
CONTINUOUS
 10
8.8346
 20
5.3995
  0
VERTEX
  8
LAYER1
 62
     7
  6
CONTINUOUS
 10
9.1487
 20
5.3746
  0
VERTEX
  8
LAYER1
 62
     7
  6
CONTINUOUS
 10
9.4778
 20
5.3746
  0
VERTEX
  8
LAYER1
 62
     7
  6
CONTINUOUS
 10
9.9016
 20
5.4294
  0
VERTEX
  8
LAYER1
 62
     7
  6
CONTINUOUS
 10
10.2755
 20
5.4543
  0
VERTEX
  8
LAYER1
 62
     7
  6
CONTINUOUS
 10
10.4251
 20
5.4444
  0
VERTEX
  8
LAYER1
 62
     7
  6
CONTINUOUS
 10
10.7591
 20
5.4444
  0
VERTEX
  8
LAYER1
 62
     7
  6
CONTINUOUS
 10
11.1281
 20
5.4344
  0
VERTEX
  8
LAYER1
 62
     7
  6
CONTINUOUS
 10
11.3624
 20
5.4095
  0
VERTEX
  8
LAYER1
 62
     7
  6
CONTINUOUS
 10
11.6865
 20
5.3696
  0
VERTEX
  8
LAYER1
 62
     7
  6
CONTINUOUS
 10
11.9607
 20
5.3447
  0
VERTEX
  8
LAYER1
 62
     7
  6
CONTINUOUS
 10
12.1900
 20
5.3297
  0
VERTEX
  8
LAYER1
 62
     7
  6
CONTINUOUS
 10
12.4243
 20
5.3098
  0
VERTEX
  8
LAYER1
 62
     7
  6
CONTINUOUS
 10
12.5839
 20
5.2948
  0
VERTEX
  8
LAYER1
 62
     7
  6
CONTINUOUS
 10
12.7434
 20
5.2848
  0
SEQEND
  8
LAYER1
  0
POLYLINE
  8
LAYER1
 62
     7
 66
     1
  6
CONTINUOUS
  0
VERTEX
  8
LAYER1
 62
     7
  6
CONTINUOUS
 10
12.7434
 20
5.2848
  0
VERTEX
  8
LAYER1
 62
     7
  6
CONTINUOUS
 10
12.8082
 20
5.2798
  0
VERTEX
  8
LAYER1
 62
     7
  6
CONTINUOUS
 10
12.7733
 20
5.2300
  0
VERTEX
  8
LAYER1
 62
     7
  6
CONTINUOUS
 10
12.6238
 20
5.0704
  0
VERTEX
  8
LAYER1
 62
     7
  6
CONTINUOUS
 10
12.4941
 20
4.9059
  0
VERTEX
  8
LAYER1
 62
     7
  6
CONTINUOUS
 10
12.3496
 20
4.7065
  0
VERTEX
  8
LAYER1
 62
     7
  6
CONTINUOUS
 10
12.2498
 20
4.5918
  0
VERTEX
  8
LAYER1
 62
     7
  6
CONTINUOUS
 10
12.0055
 20
4.4223
  0
VERTEX
  8
LAYER1
 62
     7
  6
CONTINUOUS
 10
11.9258
 20
4.3774
  0
VERTEX
  8
LAYER1
 62
     7
  6
CONTINUOUS
 10
11.7812
 20
4.2877
  0
VERTEX
  8
LAYER1
 62
     7
  6
CONTINUOUS
 10
11.5469
 20
4.1531
  0
VERTEX
  8
LAYER1
 62
     7
  6
CONTINUOUS
 10
11.3474
 20
4.0484
  0
VERTEX
  8
LAYER1
 62
     7
  6
CONTINUOUS
 10
11.1081
 20
3.9337
  0
VERTEX
  8
LAYER1
 62
     7
  6
CONTINUOUS
 10
10.9137
 20
3.8589
  0
VERTEX
  8
LAYER1
 62
     7
  6
CONTINUOUS
 10
10.7143
 20
3.7991
  0
VERTEX
  8
LAYER1
 62
     7
  6
CONTINUOUS
 10
10.5497
 20
3.7492
  0
VERTEX
  8
LAYER1
 62
     7
  6
CONTINUOUS
 10
10.3952
 20
3.7492
  0
VERTEX
  8
LAYER1
 62
     7
  6
CONTINUOUS
 10
10.1908
 20
3.8141
  0
VERTEX
  8
LAYER1
 62
     7
  6
CONTINUOUS
 10
9.9365
 20
3.8789
  0
VERTEX
  8
LAYER1
 62
     7
  6
CONTINUOUS
 10
9.6972
 20
3.9287
  0
VERTEX
  8
LAYER1
 62
     7
  6
CONTINUOUS
 10
9.5077
 20
3.9686
  0
VERTEX
  8
LAYER1
 62
     7
  6
CONTINUOUS
 10
9.3482
 20
4.0135
  0
VERTEX
  8
LAYER1
 62
     7
  6
CONTINUOUS
 10
9.2185
 20
4.0584
  0
VERTEX
  8
LAYER1
 62
     7
  6
CONTINUOUS
 10
9.0141
 20
4.1780
  0
VERTEX
  8
LAYER1
 62
     7
  6
CONTINUOUS
 10
8.8596
 20
4.2927
  0
VERTEX
  8
LAYER1
 62
     7
  6
CONTINUOUS
 10
8.5953
 20
4.4722
  0
VERTEX
  8
LAYER1
 62
     7
  6
CONTINUOUS
 10
8.4956
 20
4.5320
  0
VERTEX
  8
LAYER1
 62
     7
  6
CONTINUOUS
 10
8.3361
 20
4.6467
  0
VERTEX
  8
LAYER1
 62
     7
  6
CONTINUOUS
 10
8.1815
 20
4.7564
  0
VERTEX
  8
LAYER1
 62
     7
  6
CONTINUOUS
 10
8.0519
 20
4.8611
  0
VERTEX
  8
LAYER1
 62
     7
  6
CONTINUOUS
 10
7.8924
 20
4.9957
  0
VERTEX
  8
LAYER1
 62
     7
  6
CONTINUOUS
 10
7.7677
 20
5.0804
  0
VERTEX
  8
LAYER1
 62
     7
  6
CONTINUOUS
 10
7.6580
 20
5.1452
  0
VERTEX
  8
LAYER1
 62
     7
  6
CONTINUOUS
 10
7.5882
 20
5.1652
  0
VERTEX
  8
LAYER1
 62
     7
  6
CONTINUOUS
 10
7.4686
 20
5.2150
  0
VERTEX
  8
LAYER1
 62
     7
  6
CONTINUOUS
 10
7.3589
 20
5.2649
  0
VERTEX
  8
LAYER1
 62
     7
  6
CONTINUOUS
 10
7.2243
 20
5.3447
  0
SEQEND
  8
LAYER1
  0
POLYLINE
  8
LAYER1
 62
     7
 66
     1
  6
CONTINUOUS
  0
VERTEX
  8
LAYER1
 62
     7
  6
CONTINUOUS
 10
11.8809
 20
17.0162
  0
VERTEX
  8
LAYER1
 62
     7
  6
CONTINUOUS
 10
11.8510
 20
17.0461
  0
VERTEX
  8
LAYER1
 62
     7
  6
CONTINUOUS
 10
11.7114
 20
17.0810
  0
VERTEX
  8
LAYER1
 62
     7
  6
CONTINUOUS
 10
11.5120
 20
17.0860
  0
VERTEX
  8
LAYER1
 62
     7
  6
CONTINUOUS
 10
11.3225
 20
17.0610
  0
VERTEX
  8
LAYER1
 62
     7
  6
CONTINUOUS
 10
11.2078
 20
17.0062
  0
VERTEX
  8
LAYER1
 62
     7
  6
CONTINUOUS
 10
11.0932
 20
16.9214
  0
VERTEX
  8
LAYER1
 62
     7
  6
CONTINUOUS
 10
10.9835
 20
16.8217
  0
VERTEX
  8
LAYER1
 62
     7
  6
CONTINUOUS
 10
10.9137
 20
16.7120
  0
VERTEX
  8
LAYER1
 62
     7
  6
CONTINUOUS
 10
10.9087
 20
16.5425
  0
VERTEX
  8
LAYER1
 62
     7
  6
CONTINUOUS
 10
10.9536
 20
16.3780
  0
VERTEX
  8
LAYER1
 62
     7
  6
CONTINUOUS
 10
11.0533
 20
16.2783
  0
VERTEX
  8
LAYER1
 62
     7
  6
CONTINUOUS
 10
11.2926
 20
16.2284
  0
VERTEX
  8
LAYER1
 62
     7
  6
CONTINUOUS
 10
11.5219
 20
16.2284
  0
VERTEX
  8
LAYER1
 62
     7
  6
CONTINUOUS
 10
11.7363
 20
16.2633
  0
VERTEX
  8
LAYER1
 62
     7
  6
CONTINUOUS
 10
11.8360
 20
16.2982
  0
VERTEX
  8
LAYER1
 62
     7
  6
CONTINUOUS
 10
11.9357
 20
16.4877
  0
VERTEX
  8
LAYER1
 62
     7
  6
CONTINUOUS
 10
11.9806
 20
16.6373
  0
VERTEX
  8
LAYER1
 62
     7
  6
CONTINUOUS
 10
12.0006
 20
16.7420
  0
VERTEX
  8
LAYER1
 62
     7
  6
CONTINUOUS
 10
12.0205
 20
16.8167
  0
VERTEX
  8
LAYER1
 62
     7
  6
CONTINUOUS
 10
12.0255
 20
16.8915
  0
VERTEX
  8
LAYER1
 62
     7
  6
CONTINUOUS
 10
11.8809
 20
17.0162
  0
SEQEND
  8
LAYER1
  0
POLYLINE
  8
LAYER1
 62
     3
 66
     1
  6
CONTINUOUS
  0
VERTEX
  8
LAYER1
 62
     3
  6
CONTINUOUS
 10
10.7990
 20
17.9784
  0
VERTEX
  8
LAYER1
 62
     3
  6
CONTINUOUS
 10
10.7990
 20
16.9763
  0
SEQEND
  8
LAYER1
  0
POLYLINE
  8
LAYER1
 62
     3
 66
     1
  6
CONTINUOUS
  0
VERTEX
  8
LAYER1
 62
     3
  6
CONTINUOUS
 10
10.7990
 20
12.2000
  0
VERTEX
  8
LAYER1
 62
     3
  6
CONTINUOUS
 10
10.7990
 20
11.2627
  0
SEQEND
  8
LAYER1
  0
POLYLINE
  8
LAYER1
 62
     7
 66
     1
  6
CONTINUOUS
  0
VERTEX
  8
LAYER1
 62
     7
  6
CONTINUOUS
 10
4.4273
 20
10.6195
  0
VERTEX
  8
LAYER1
 62
     7
  6
CONTINUOUS
 10
5.6687
 20
10.6195
  0
SEQEND
  8
LAYER1
  0
POLYLINE
  8
LAYER1
 62
     7
 66
     1
  6
CONTINUOUS
  0
VERTEX
  8
LAYER1
 62
     7
  6
CONTINUOUS
 10
14.4436
 20
11.7812
  0
VERTEX
  8
LAYER1
 62
     7
  6
CONTINUOUS
 10
14.4436
 20
9.3083
  0
SEQEND
  8
LAYER1
  0
POLYLINE
  8
LAYER1
 62
     7
 66
     1
  6
CONTINUOUS
  0
VERTEX
  8
LAYER1
 62
     7
  6
CONTINUOUS
 10
5.6687
 20
10.6195
  0
VERTEX
  8
LAYER1
 62
     7
  6
CONTINUOUS
 10
5.6687
 20
10.7533
  0
SEQEND
  8
LAYER1
  0
POLYLINE
  8
LAYER1
 62
     7
 66
     1
  6
CONTINUOUS
  0
VERTEX
  8
LAYER1
 62
     7
  6
CONTINUOUS
 10
4.4273
 20
10.7520
  0
VERTEX
  8
LAYER1
 62
     7
  6
CONTINUOUS
 10
4.4273
 20
10.6195
  0
SEQEND
  8
LAYER1
  0
POLYLINE
  8
LAYER1
 62
     7
 66
     1
  6
CONTINUOUS
  0
VERTEX
  8
LAYER1
 62
     7
  6
CONTINUOUS
 10
5.6687
 20
10.6195
  0
VERTEX
  8
LAYER1
 62
     7
  6
CONTINUOUS
 10
4.4273
 20
10.6195
  0
SEQEND
  8
LAYER1
  0
POLYLINE
  8
LAYER1
 62
     7
 66
     1
  6
CONTINUOUS
  0
VERTEX
  8
LAYER1
 62
     7
  6
CONTINUOUS
 10
14.4436
 20
9.3083
  0
VERTEX
  8
LAYER1
 62
     7
  6
CONTINUOUS
 10
14.4436
 20
11.7812
  0
SEQEND
  8
LAYER1
  0
POLYLINE
  8
LAYER1
 62
     7
 66
     1
  6
CONTINUOUS
  0
VERTEX
  8
LAYER1
 62
     7
  6
CONTINUOUS
 10
14.4436
 20
11.7812
  0
VERTEX
  8
LAYER1
 62
     7
  6
CONTINUOUS
 10
14.2742
 20
11.2924
  0
SEQEND
  8
LAYER1
  0
ENDSEC
  0
EOF
