  0
SECTION
  2
HEADER
  9
$ACADVER
  1
AC1004
  9
$EXTMIN
 10
3.6096
 20
0.1296
  9
$EXTMAX
 10
16.2052
 20
20.5660
  9
$LIMMIN
 10
3.6096
 20
0.1296
  9
$LIMMAX
 10
16.2052
 20
20.5660
  9
$INSBASE
 10
0.0
 20
0.0
  9
$VIEWCTR
 10
7.21903
 20
4.5
  9
$VIEWSIZE
 40
9.0
  9
$SNAPMODE
 70
     0
  9
$SNAPUNIT
 10
1.0
 20
1.0
  9
$SNAPBASE
 10
0.0
 20
0.0
  9
$SNAPANG
 50
0.0
  9
$SNAPSTYLE
 70
     0
  9
$SNAPISOPAIR
 70
     0
  9
$GRIDMODE
 70
     0
  9
$GRIDUNIT
 10
0.0
 20
0.0
  9
$ORTHOMODE
 70
     0
  9
$REGENMODE
 70
     1
  9
$FILLMODE
 70
     1
  9
$QTEXTMODE
 70
     0
  9
$DRAGMODE
 70
     2
  9
$LTSCALE
 40
1.0
  9
$OSMODE
 70
     0
  9
$ATTMODE
 70
     1
  9
$TEXTSIZE
 40
0.2
  9
$TRACEWID
 40
0.05
  9
$TEXTSTYLE
  7
STANDARD
  9
$CLAYER
  8
0
  9
$CELTYPE
  6
BYLAYER
  9
$CECOLOR
 62
   256
  9
$DIMSCALE
 40
1.0
  9
$DIMASZ
 40
0.18
  9
$DIMEXO
 40
0.0625
  9
$DIMDLI
 40
0.38
  9
$DIMRND
 40
0.0
  9
$DIMDLE
 40
0.0
  9
$DIMEXE
 40
0.18
  9
$DIMTP
 40
0.0
  9
$DIMTM
 40
0.0
  9
$DIMTXT
 40
0.18
  9
$DIMCEN
 40
0.09
  9
$DIMTSZ
 40
0.0
  9
$DIMTOL
 70
     0
  9
$DIMLIM
 70
     0
  9
$DIMTIH
 70
     1
  9
$DIMTOH
 70
     1
  9
$DIMSE1
 70
     0
  9
$DIMSE2
 70
     0
  9
$DIMTAD
 70
     0
  9
$DIMZIN
 70
     0
  9
$DIMBLK
  1

  9
$DIMASO
 70
     1
  9
$DIMSHO
 70
     0
  9
$DIMPOST
  1

  9
$DIMAPOST
  1

  9
$DIMALT
 70
     0
  9
$DIMALTD
 70
     2
  9
$DIMALTF
 40
25.4
  9
$DIMLFAC
 40
1.0
  9
$LUNITS
 70
     2
  9
$LUPREC
 70
     4
  9
$AXISMODE
 70
     0
  9
$AXISUNIT
 10
0.0
 20
0.0
  9
$SKETCHINC
 40
0.1
  9
$FILLETRAD
 40
0.0
  9
$AUNITS
 70
     0
  9
$AUPREC
 70
     0
  9
$MENU
  1
acad
  9
$ELEVATION
 40
0.0
  9
$THICKNESS
 40
0.0
  9
$VIEWDIR
 10
0.0
 20
0.0
 30
1.0
  9
$LIMCHECK
 70
     0
  9
$BLIPMODE
 70
     1
  9
$CHAMFERA
 40
0.0
  9
$CHAMFERB
 40
0.0
  9
$FASTZOOM
 70
     1
  9
$SKPOLY
 70
     0
  9
$TDCREATE
 40
2447222.5666886573
  9
$TDUPDATE
 40
2447222.5666886573
  9
$TDINDWG
 40
0.0000000000
  9
$TDUSRTIMER
 40
0.0000000000
  9
$USRTIMER
 70
     1
  9
$ANGBASE
 50
0.0
  9
$ANGDIR
 70
     0
  9
$PDMODE
 70
     0
  9
$PDSIZE
 40
0.0
  9
$PLINEWID
 40
0.0
  9
$COORDS
 70
     0
  9
$SPLFRAME
 70
     0
  9
$SPLINESEGS
 70
     8
  9
$ATTDIA
 70
     0
  9
$ATTREQ
 70
     1
  9
$USERI1
 70
     0
  9
$USERI2
 70
     0
  9
$USERI3
 70
     0
  9
$USERI4
 70
     0
  9
$USERI5
 70
     0
  9
$USERR1
 40
0.0
  9
$USERR2
 40
0.0
  9
$USERR3
 40
0.0
  9
$USERR4
 40
0.0
  9
$USERR5
 40
0.0
  0
ENDSEC
  0
SECTION
  2
TABLES
  0
TABLE
  2
LTYPE
 70
     13
  0
LTYPE
  2
CONTINUOUS
 70
    64
  3
Solid line
 72
    65
 73
     0
 40
0.0
  0
LTYPE
  2
DASHED
 70
    64
  3
__ __ __ __ __ __ __ __ __ __ __ __ __ __ __
 72
    65
 73
     2
 40
0.75
 49
0.5
 49
-0.25
  0
LTYPE
  2
HIDDEN
 70
    64
  3
_ _ _ _ _ _ _ _ _ _ _ _ _ _ _ _ _ _ _ _ _ _ _
 72
    65
 73
     2
 40
0.375
 49
0.25
 49
-0.125
  0
LTYPE
  2
CENTER
 70
    64
  3
____ _ ____ _ ____ _ ____ _ ____ _ ____ _ ____
 72
    65
 73
     4
 40
2.0
 49
1.25
 49
-0.25
 49
0.25
 49
-0.25
  0
LTYPE
  2
PHANTOM
 70
    64
  3
_____ _ _ _____ _ _ _____ _ _ _____ _ _ ____
 72
    65
 73
     6
 40
2.5
 49
1.25
 49
-0.25
 49
0.25
 49
-0.25
 49
0.25
 49
-0.25
  0
LTYPE
  2
DOT
 70
    64
  3
...............................................
 72
    65
 73
     2
 40
0.25
 49
0.0
 49
-0.25
  0
LTYPE
  2
DASHDOT
 70
    64
  3
__ . __ . __ . __ . __ . __ . __ . __ . __ . __
 72
    65
 73
     4
 40
1.0
 49
0.5
 49
-0.25
 49
0.0
 49
-0.25
  0
LTYPE
  2
BORDER
 70
    64
  3
__ __ . __ __ . __ __ . __ __ . __ __ . __ __
 72
    65
 73
     6
 40
1.75
 49
0.5
 49
-0.25
 49
0.5
 49
-0.25
 49
0.0
 49
-0.25
  0
LTYPE
  2
DIVIDE
 70
    64
  3
__ . . __ . . __ . . __ . . __ . . __ . . __
 72
    65
 73
     6
 40
1.25
 49
0.5
 49
-0.25
 49
0.0
 49
-0.25
 49
0.0
 49
-0.25
  0
LTYPE
  2
DCTYPE1
 70
    64
  3
__ . . __ . . __ . . __ . . __ . . __ . . __
 72
    65
 73
     8
 40
2.5
 49
0.5
 49
-0.25
 49
0.125
 49
-0.25
 49
0.25
 49
-0.25
 49
0.125
 49
-0.25
  0
LTYPE
  2
DCTYPE2
 70
    64
  3
__ . . __ . . __ . . __ . . __ . . __ . . __
 72
    65
 73
     6
 40
2.05
 49
1.0
 49
-0.3
 49
0.15
 49
-0.15
 49
0.15
 49
-0.3
  0
LTYPE
  2
DCTYPE3
 70
    64
  3
__ . . __ . . __ . . __ . . __ . . __ . . __
 72
    65
 73
     6
 40
2.5
 49
0.8
 49
-0.2
 49
0.8
 49
-0.2
 49
0.3
 49
-0.2
  0
LTYPE
  2
DCTYPE4
 70
    64
  3
__ . . __ . . __ . . __ . . __ . . __ . . __
 72
    65
 73
     10
 40
3.97
 49
1.75
 49
-0.3
 49
0.3
 49
-0.3
 49
0.06
 49
-0.3
 49
0.06
 49
-0.3
 49
0.3
 49
-0.3
  0
ENDTAB
  0
TABLE
  2
LAYER
 70
    153
  0
LAYER
  2
LAYER1
 70
 64
 62
     7
  6
CONTINUOUS
  0
LAYER
  2
LAYER25
 70
 64
 62
     7
  6
CONTINUOUS
  0
ENDTAB
  0
ENDSEC
  0
SECTION
  2
BLOCKS
  0
ENDSEC
  0
SECTION
  2
ENTITIES
  0
POLYLINE
  8
LAYER1
 62
     7
 66
     1
  6
CONTINUOUS
  0
VERTEX
  8
LAYER1
 62
     7
  6
CONTINUOUS
 10
6.1872
 20
15.6002
  0
VERTEX
  8
LAYER1
 62
     7
  6
CONTINUOUS
 10
6.1723
 20
15.6750
  0
VERTEX
  8
LAYER1
 62
     7
  6
CONTINUOUS
 10
6.1723
 20
15.8296
  0
VERTEX
  8
LAYER1
 62
     7
  6
CONTINUOUS
 10
6.2271
 20
16.0489
  0
VERTEX
  8
LAYER1
 62
     7
  6
CONTINUOUS
 10
6.3219
 20
16.2733
  0
VERTEX
  8
LAYER1
 62
     7
  6
CONTINUOUS
 10
6.3867
 20
16.4628
  0
VERTEX
  8
LAYER1
 62
     7
  6
CONTINUOUS
 10
6.4465
 20
16.6522
  0
VERTEX
  8
LAYER1
 62
     7
  6
CONTINUOUS
 10
6.5362
 20
16.8367
  0
VERTEX
  8
LAYER1
 62
     7
  6
CONTINUOUS
 10
6.6310
 20
17.0561
  0
VERTEX
  8
LAYER1
 62
     7
  6
CONTINUOUS
 10
6.6808
 20
17.2804
  0
VERTEX
  8
LAYER1
 62
     7
  6
CONTINUOUS
 10
6.7207
 20
17.5098
  0
VERTEX
  8
LAYER1
 62
     7
  6
CONTINUOUS
 10
6.8055
 20
17.7890
  0
VERTEX
  8
LAYER1
 62
     7
  6
CONTINUOUS
 10
6.8852
 20
17.9285
  0
VERTEX
  8
LAYER1
 62
     7
  6
CONTINUOUS
 10
7.1096
 20
18.1529
  0
VERTEX
  8
LAYER1
 62
     7
  6
CONTINUOUS
 10
7.4785
 20
18.4870
  0
VERTEX
  8
LAYER1
 62
     7
  6
CONTINUOUS
 10
7.7079
 20
18.6914
  0
VERTEX
  8
LAYER1
 62
     7
  6
CONTINUOUS
 10
7.8076
 20
18.7811
  0
VERTEX
  8
LAYER1
 62
     7
  6
CONTINUOUS
 10
7.9970
 20
18.9307
  0
VERTEX
  8
LAYER1
 62
     7
  6
CONTINUOUS
 10
8.2713
 20
19.0055
  0
VERTEX
  8
LAYER1
 62
     7
  6
CONTINUOUS
 10
8.5006
 20
19.0603
  0
VERTEX
  8
LAYER1
 62
     7
  6
CONTINUOUS
 10
8.6452
 20
19.1401
  0
VERTEX
  8
LAYER1
 62
     7
  6
CONTINUOUS
 10
8.8346
 20
19.2747
  0
VERTEX
  8
LAYER1
 62
     7
  6
CONTINUOUS
 10
9.1039
 20
19.3844
  0
VERTEX
  8
LAYER1
 62
     7
  6
CONTINUOUS
 10
9.2983
 20
19.4542
  0
VERTEX
  8
LAYER1
 62
     7
  6
CONTINUOUS
 10
9.6722
 20
19.5639
  0
VERTEX
  8
LAYER1
 62
     7
  6
CONTINUOUS
 10
10.0362
 20
19.5838
  0
VERTEX
  8
LAYER1
 62
     7
  6
CONTINUOUS
 10
10.3952
 20
19.4990
  0
VERTEX
  8
LAYER1
 62
     7
  6
CONTINUOUS
 10
10.6644
 20
19.4193
  0
VERTEX
  8
LAYER1
 62
     7
  6
CONTINUOUS
 10
10.8588
 20
19.3495
  0
VERTEX
  8
LAYER1
 62
     7
  6
CONTINUOUS
 10
11.1181
 20
19.2398
  0
VERTEX
  8
LAYER1
 62
     7
  6
CONTINUOUS
 10
11.2228
 20
19.1999
  0
VERTEX
  8
LAYER1
 62
     7
  6
CONTINUOUS
 10
11.3275
 20
19.2049
  0
VERTEX
  8
LAYER1
 62
     7
  6
CONTINUOUS
 10
11.4322
 20
19.2448
  0
VERTEX
  8
LAYER1
 62
     7
  6
CONTINUOUS
 10
11.5917
 20
19.3295
  0
VERTEX
  8
LAYER1
 62
     7
  6
CONTINUOUS
 10
11.6914
 20
19.3295
  0
VERTEX
  8
LAYER1
 62
     7
  6
CONTINUOUS
 10
11.8809
 20
19.2597
  0
VERTEX
  8
LAYER1
 62
     7
  6
CONTINUOUS
 10
12.0355
 20
19.1849
  0
VERTEX
  8
LAYER1
 62
     7
  6
CONTINUOUS
 10
12.1202
 20
19.1351
  0
VERTEX
  8
LAYER1
 62
     7
  6
CONTINUOUS
 10
12.1900
 20
19.0753
  0
VERTEX
  8
LAYER1
 62
     7
  6
CONTINUOUS
 10
12.2997
 20
19.0104
  0
VERTEX
  8
LAYER1
 62
     7
  6
CONTINUOUS
 10
12.3944
 20
18.9606
  0
VERTEX
  8
LAYER1
 62
     7
  6
CONTINUOUS
 10
12.5141
 20
18.9057
  0
VERTEX
  8
LAYER1
 62
     7
  6
CONTINUOUS
 10
12.6238
 20
18.8409
  0
VERTEX
  8
LAYER1
 62
     7
  6
CONTINUOUS
 10
12.7733
 20
18.7213
  0
VERTEX
  8
LAYER1
 62
     7
  6
CONTINUOUS
 10
12.8780
 20
18.6116
  0
VERTEX
  8
LAYER1
 62
     7
  6
CONTINUOUS
 10
12.9728
 20
18.5219
  0
VERTEX
  8
LAYER1
 62
     7
  6
CONTINUOUS
 10
13.0575
 20
18.4022
  0
VERTEX
  8
LAYER1
 62
     7
  6
CONTINUOUS
 10
13.0924
 20
18.3224
  0
VERTEX
  8
LAYER1
 62
     7
  6
CONTINUOUS
 10
13.1423
 20
18.2377
  0
VERTEX
  8
LAYER1
 62
     7
  6
CONTINUOUS
 10
13.2869
 20
18.1130
  0
VERTEX
  8
LAYER1
 62
     7
  6
CONTINUOUS
 10
13.5212
 20
17.9335
  0
VERTEX
  8
LAYER1
 62
     7
  6
CONTINUOUS
 10
13.6309
 20
17.8388
  0
VERTEX
  8
LAYER1
 62
     7
  6
CONTINUOUS
 10
13.7854
 20
17.7142
  0
VERTEX
  8
LAYER1
 62
     7
  6
CONTINUOUS
 10
13.9201
 20
17.5746
  0
VERTEX
  8
LAYER1
 62
     7
  6
CONTINUOUS
 10
13.9899
 20
17.3951
  0
VERTEX
  8
LAYER1
 62
     7
  6
CONTINUOUS
 10
14.0347
 20
17.1508
  0
VERTEX
  8
LAYER1
 62
     7
  6
CONTINUOUS
 10
14.0547
 20
16.9065
  0
VERTEX
  8
LAYER1
 62
     7
  6
CONTINUOUS
 10
14.0796
 20
16.6622
  0
VERTEX
  8
LAYER1
 62
     7
  6
CONTINUOUS
 10
14.1095
 20
16.4079
  0
VERTEX
  8
LAYER1
 62
     7
  6
CONTINUOUS
 10
14.1394
 20
16.2434
  0
VERTEX
  8
LAYER1
 62
     7
  6
CONTINUOUS
 10
14.1544
 20
15.9492
  0
VERTEX
  8
LAYER1
 62
     7
  6
CONTINUOUS
 10
14.1295
 20
15.7348
  0
VERTEX
  8
LAYER1
 62
     7
  6
CONTINUOUS
 10
14.0248
 20
15.5604
  0
VERTEX
  8
LAYER1
 62
     7
  6
CONTINUOUS
 10
13.8702
 20
15.4108
  0
VERTEX
  8
LAYER1
 62
     7
  6
CONTINUOUS
 10
13.6608
 20
15.2064
  0
VERTEX
  8
LAYER1
 62
     7
  6
CONTINUOUS
 10
13.5062
 20
15.0468
  0
VERTEX
  8
LAYER1
 62
     7
  6
CONTINUOUS
 10
13.3916
 20
14.8823
  0
VERTEX
  8
LAYER1
 62
     7
  6
CONTINUOUS
 10
13.3018
 20
14.6729
  0
VERTEX
  8
LAYER1
 62
     7
  6
CONTINUOUS
 10
13.2420
 20
14.4236
  0
VERTEX
  8
LAYER1
 62
     7
  6
CONTINUOUS
 10
13.2121
 20
14.0696
  0
VERTEX
  8
LAYER1
 62
     7
  6
CONTINUOUS
 10
13.1622
 20
13.8752
  0
VERTEX
  8
LAYER1
 62
     7
  6
CONTINUOUS
 10
13.0525
 20
13.6708
  0
VERTEX
  8
LAYER1
 62
     7
  6
CONTINUOUS
 10
12.8731
 20
13.4713
  0
VERTEX
  8
LAYER1
 62
     7
  6
CONTINUOUS
 10
12.7035
 20
13.3666
  0
VERTEX
  8
LAYER1
 62
     7
  6
CONTINUOUS
 10
12.5290
 20
13.2919
  0
VERTEX
  8
LAYER1
 62
     7
  6
CONTINUOUS
 10
12.3695
 20
13.2270
  0
VERTEX
  8
LAYER1
 62
     7
  6
CONTINUOUS
 10
12.2100
 20
13.1622
  0
VERTEX
  8
LAYER1
 62
     7
  6
CONTINUOUS
 10
11.9956
 20
12.9877
  0
VERTEX
  8
LAYER1
 62
     7
  6
CONTINUOUS
 10
11.8510
 20
12.7933
  0
VERTEX
  8
LAYER1
 62
     7
  6
CONTINUOUS
 10
11.7762
 20
12.5490
  0
VERTEX
  8
LAYER1
 62
     7
  6
CONTINUOUS
 10
11.7164
 20
12.4194
  0
VERTEX
  8
LAYER1
 62
     7
  6
CONTINUOUS
 10
11.5219
 20
12.2399
  0
VERTEX
  8
LAYER1
 62
     7
  6
CONTINUOUS
 10
11.3624
 20
12.1402
  0
VERTEX
  8
LAYER1
 62
     7
  6
CONTINUOUS
 10
11.1979
 20
12.0454
  0
VERTEX
  8
LAYER1
 62
     7
  6
CONTINUOUS
 10
10.9935
 20
11.9407
  0
VERTEX
  8
LAYER1
 62
     7
  6
CONTINUOUS
 10
10.6993
 20
11.8510
  0
VERTEX
  8
LAYER1
 62
     7
  6
CONTINUOUS
 10
10.4899
 20
11.7912
  0
VERTEX
  8
LAYER1
 62
     7
  6
CONTINUOUS
 10
10.2406
 20
11.7613
  0
VERTEX
  8
LAYER1
 62
     7
  6
CONTINUOUS
 10
10.0761
 20
11.7912
  0
VERTEX
  8
LAYER1
 62
     7
  6
CONTINUOUS
 10
9.9465
 20
11.8510
  0
VERTEX
  8
LAYER1
 62
     7
  6
CONTINUOUS
 10
9.7769
 20
11.9258
  0
VERTEX
  8
LAYER1
 62
     7
  6
CONTINUOUS
 10
9.5725
 20
11.9208
  0
VERTEX
  8
LAYER1
 62
     7
  6
CONTINUOUS
 10
9.4130
 20
11.8510
  0
VERTEX
  8
LAYER1
 62
     7
  6
CONTINUOUS
 10
9.1886
 20
11.7762
  0
VERTEX
  8
LAYER1
 62
     7
  6
CONTINUOUS
 10
8.9892
 20
11.7762
  0
VERTEX
  8
LAYER1
 62
     7
  6
CONTINUOUS
 10
8.7698
 20
11.8510
  0
VERTEX
  8
LAYER1
 62
     7
  6
CONTINUOUS
 10
8.5604
 20
11.9457
  0
VERTEX
  8
LAYER1
 62
     7
  6
CONTINUOUS
 10
8.3959
 20
12.0554
  0
VERTEX
  8
LAYER1
 62
     7
  6
CONTINUOUS
 10
8.2064
 20
12.2199
  0
VERTEX
  8
LAYER1
 62
     7
  6
CONTINUOUS
 10
8.0569
 20
12.4044
  0
VERTEX
  8
LAYER1
 62
     7
  6
CONTINUOUS
 10
7.9273
 20
12.5590
  0
VERTEX
  8
LAYER1
 62
     7
  6
CONTINUOUS
 10
7.7577
 20
12.7484
  0
VERTEX
  8
LAYER1
 62
     7
  6
CONTINUOUS
 10
7.6780
 20
12.8531
  0
VERTEX
  8
LAYER1
 62
     7
  6
CONTINUOUS
 10
7.5832
 20
13.0077
  0
VERTEX
  8
LAYER1
 62
     7
  6
CONTINUOUS
 10
7.4536
 20
13.1622
  0
VERTEX
  8
LAYER1
 62
     7
  6
CONTINUOUS
 10
7.3439
 20
13.2669
  0
VERTEX
  8
LAYER1
 62
     7
  6
CONTINUOUS
 10
7.1345
 20
13.3716
  0
VERTEX
  8
LAYER1
 62
     7
  6
CONTINUOUS
 10
6.9700
 20
13.4265
  0
VERTEX
  8
LAYER1
 62
     7
  6
CONTINUOUS
 10
6.8454
 20
13.4813
  0
VERTEX
  8
LAYER1
 62
     7
  6
CONTINUOUS
 10
6.7556
 20
13.5611
  0
VERTEX
  8
LAYER1
 62
     7
  6
CONTINUOUS
 10
6.6908
 20
13.6807
  0
VERTEX
  8
LAYER1
 62
     7
  6
CONTINUOUS
 10
6.6060
 20
14.0048
  0
VERTEX
  8
LAYER1
 62
     7
  6
CONTINUOUS
 10
6.5911
 20
14.0347
  0
VERTEX
  8
LAYER1
 62
     7
  6
CONTINUOUS
 10
6.5662
 20
14.2740
  0
VERTEX
  8
LAYER1
 62
     7
  6
CONTINUOUS
 10
6.5113
 20
14.4286
  0
VERTEX
  8
LAYER1
 62
     7
  6
CONTINUOUS
 10
6.4016
 20
14.6729
  0
VERTEX
  8
LAYER1
 62
     7
  6
CONTINUOUS
 10
6.3219
 20
14.8574
  0
VERTEX
  8
LAYER1
 62
     7
  6
CONTINUOUS
 10
6.2421
 20
15.0568
  0
VERTEX
  8
LAYER1
 62
     7
  6
CONTINUOUS
 10
6.1972
 20
15.2562
  0
VERTEX
  8
LAYER1
 62
     7
  6
CONTINUOUS
 10
6.1673
 20
15.4058
  0
VERTEX
  8
LAYER1
 62
     7
  6
CONTINUOUS
 10
6.1872
 20
15.6002
  0
SEQEND
  8
LAYER1
  0
POLYLINE
  8
LAYER1
 62
     7
 66
     1
  6
HIDDEN
  0
VERTEX
  8
LAYER1
 62
     7
  6
HIDDEN
 10
5.4593
 20
15.5952
  0
VERTEX
  8
LAYER1
 62
     7
  6
HIDDEN
 10
5.4344
 20
15.7049
  0
VERTEX
  8
LAYER1
 62
     7
  6
HIDDEN
 10
5.4494
 20
15.9492
  0
VERTEX
  8
LAYER1
 62
     7
  6
HIDDEN
 10
5.5192
 20
16.2284
  0
VERTEX
  8
LAYER1
 62
     7
  6
HIDDEN
 10
5.6089
 20
16.4578
  0
VERTEX
  8
LAYER1
 62
     7
  6
HIDDEN
 10
5.6887
 20
16.6871
  0
VERTEX
  8
LAYER1
 62
     7
  6
HIDDEN
 10
5.7136
 20
16.8417
  0
VERTEX
  8
LAYER1
 62
     7
  6
HIDDEN
 10
5.7535
 20
17.0710
  0
VERTEX
  8
LAYER1
 62
     7
  6
HIDDEN
 10
5.8283
 20
17.3402
  0
VERTEX
  8
LAYER1
 62
     7
  6
HIDDEN
 10
5.9130
 20
17.5746
  0
VERTEX
  8
LAYER1
 62
     7
  6
HIDDEN
 10
6.0028
 20
17.7840
  0
VERTEX
  8
LAYER1
 62
     7
  6
HIDDEN
 10
6.0626
 20
17.9535
  0
VERTEX
  8
LAYER1
 62
     7
  6
HIDDEN
 10
6.1823
 20
18.1978
  0
VERTEX
  8
LAYER1
 62
     7
  6
HIDDEN
 10
6.3518
 20
18.4321
  0
VERTEX
  8
LAYER1
 62
     7
  6
HIDDEN
 10
6.5811
 20
18.6565
  0
VERTEX
  8
LAYER1
 62
     7
  6
HIDDEN
 10
6.8454
 20
18.8908
  0
VERTEX
  8
LAYER1
 62
     7
  6
HIDDEN
 10
7.0797
 20
19.1052
  0
VERTEX
  8
LAYER1
 62
     7
  6
HIDDEN
 10
7.3140
 20
19.2797
  0
VERTEX
  8
LAYER1
 62
     7
  6
HIDDEN
 10
7.5882
 20
19.4492
  0
VERTEX
  8
LAYER1
 62
     7
  6
HIDDEN
 10
7.9622
 20
19.6436
  0
VERTEX
  8
LAYER1
 62
     7
  6
HIDDEN
 10
8.2513
 20
19.7782
  0
VERTEX
  8
LAYER1
 62
     7
  6
HIDDEN
 10
8.6502
 20
19.8480
  0
VERTEX
  8
LAYER1
 62
     7
  6
HIDDEN
 10
9.0241
 20
19.9029
  0
VERTEX
  8
LAYER1
 62
     7
  6
HIDDEN
 10
9.3432
 20
19.9527
  0
VERTEX
  8
LAYER1
 62
     7
  6
HIDDEN
 10
9.6274
 20
19.9876
  0
VERTEX
  8
LAYER1
 62
     7
  6
HIDDEN
 10
10.0362
 20
19.9926
  0
VERTEX
  8
LAYER1
 62
     7
  6
HIDDEN
 10
10.4450
 20
19.9278
  0
VERTEX
  8
LAYER1
 62
     7
  6
HIDDEN
 10
10.7242
 20
19.8480
  0
VERTEX
  8
LAYER1
 62
     7
  6
HIDDEN
 10
11.0034
 20
19.7583
  0
VERTEX
  8
LAYER1
 62
     7
  6
HIDDEN
 10
11.2826
 20
19.6436
  0
VERTEX
  8
LAYER1
 62
     7
  6
HIDDEN
 10
11.6466
 20
19.4891
  0
VERTEX
  8
LAYER1
 62
     7
  6
HIDDEN
 10
11.9008
 20
19.3594
  0
VERTEX
  8
LAYER1
 62
     7
  6
HIDDEN
 10
12.1003
 20
19.2448
  0
VERTEX
  8
LAYER1
 62
     7
  6
HIDDEN
 10
12.4243
 20
19.0204
  0
VERTEX
  8
LAYER1
 62
     7
  6
HIDDEN
 10
12.7634
 20
18.7512
  0
VERTEX
  8
LAYER1
 62
     7
  6
HIDDEN
 10
12.9528
 20
18.5966
  0
VERTEX
  8
LAYER1
 62
     7
  6
HIDDEN
 10
13.1971
 20
18.3374
  0
VERTEX
  8
LAYER1
 62
     7
  6
HIDDEN
 10
13.4015
 20
18.1379
  0
VERTEX
  8
LAYER1
 62
     7
  6
HIDDEN
 10
13.6309
 20
17.8937
  0
VERTEX
  8
LAYER1
 62
     7
  6
HIDDEN
 10
13.7306
 20
17.7391
  0
VERTEX
  8
LAYER1
 62
     7
  6
HIDDEN
 10
13.8852
 20
17.5297
  0
VERTEX
  8
LAYER1
 62
     7
  6
HIDDEN
 10
14.0846
 20
17.2306
  0
VERTEX
  8
LAYER1
 62
     7
  6
HIDDEN
 10
14.1993
 20
16.9663
  0
VERTEX
  8
LAYER1
 62
     7
  6
HIDDEN
 10
14.3139
 20
16.6722
  0
VERTEX
  8
LAYER1
 62
     7
  6
HIDDEN
 10
14.4635
 20
16.3331
  0
VERTEX
  8
LAYER1
 62
     7
  6
HIDDEN
 10
14.5632
 20
16.0440
  0
VERTEX
  8
LAYER1
 62
     7
  6
HIDDEN
 10
14.6081
 20
15.7797
  0
VERTEX
  8
LAYER1
 62
     7
  6
HIDDEN
 10
14.6330
 20
15.4407
  0
VERTEX
  8
LAYER1
 62
     7
  6
HIDDEN
 10
14.5782
 20
15.1316
  0
VERTEX
  8
LAYER1
 62
     7
  6
HIDDEN
 10
14.4785
 20
14.7676
  0
VERTEX
  8
LAYER1
 62
     7
  6
HIDDEN
 10
14.3738
 20
14.4336
  0
VERTEX
  8
LAYER1
 62
     7
  6
HIDDEN
 10
14.2092
 20
14.0995
  0
VERTEX
  8
LAYER1
 62
     7
  6
HIDDEN
 10
13.9550
 20
13.7256
  0
VERTEX
  8
LAYER1
 62
     7
  6
HIDDEN
 10
13.6807
 20
13.4315
  0
VERTEX
  8
LAYER1
 62
     7
  6
HIDDEN
 10
13.4813
 20
13.1722
  0
VERTEX
  8
LAYER1
 62
     7
  6
HIDDEN
 10
13.3118
 20
12.9279
  0
VERTEX
  8
LAYER1
 62
     7
  6
HIDDEN
 10
13.1872
 20
12.7185
  0
VERTEX
  8
LAYER1
 62
     7
  6
HIDDEN
 10
13.0874
 20
12.5440
  0
VERTEX
  8
LAYER1
 62
     7
  6
HIDDEN
 10
12.8531
 20
12.2498
  0
VERTEX
  8
LAYER1
 62
     7
  6
HIDDEN
 10
12.6337
 20
12.0006
  0
VERTEX
  8
LAYER1
 62
     7
  6
HIDDEN
 10
12.3845
 20
11.8011
  0
VERTEX
  8
LAYER1
 62
     7
  6
HIDDEN
 10
12.1352
 20
11.6316
  0
VERTEX
  8
LAYER1
 62
     7
  6
HIDDEN
 10
11.8061
 20
11.4472
  0
VERTEX
  8
LAYER1
 62
     7
  6
HIDDEN
 10
11.4172
 20
11.3076
  0
VERTEX
  8
LAYER1
 62
     7
  6
HIDDEN
 10
11.0333
 20
11.2128
  0
VERTEX
  8
LAYER1
 62
     7
  6
HIDDEN
 10
10.6943
 20
11.1680
  0
VERTEX
  8
LAYER1
 62
     7
  6
HIDDEN
 10
10.2306
 20
11.1630
  0
VERTEX
  8
LAYER1
 62
     7
  6
HIDDEN
 10
9.8767
 20
11.1380
  0
VERTEX
  8
LAYER1
 62
     7
  6
HIDDEN
 10
9.4529
 20
11.1680
  0
VERTEX
  8
LAYER1
 62
     7
  6
HIDDEN
 10
9.1188
 20
11.2378
  0
VERTEX
  8
LAYER1
 62
     7
  6
HIDDEN
 10
8.7748
 20
11.3225
  0
VERTEX
  8
LAYER1
 62
     7
  6
HIDDEN
 10
8.4807
 20
11.4372
  0
VERTEX
  8
LAYER1
 62
     7
  6
HIDDEN
 10
8.1367
 20
11.5818
  0
VERTEX
  8
LAYER1
 62
     7
  6
HIDDEN
 10
7.8824
 20
11.7164
  0
VERTEX
  8
LAYER1
 62
     7
  6
HIDDEN
 10
7.6281
 20
11.8560
  0
VERTEX
  8
LAYER1
 62
     7
  6
HIDDEN
 10
7.3689
 20
12.0554
  0
VERTEX
  8
LAYER1
 62
     7
  6
HIDDEN
 10
7.1545
 20
12.2000
  0
VERTEX
  8
LAYER1
 62
     7
  6
HIDDEN
 10
7.0049
 20
12.3246
  0
VERTEX
  8
LAYER1
 62
     7
  6
HIDDEN
 10
6.8055
 20
12.5141
  0
VERTEX
  8
LAYER1
 62
     7
  6
HIDDEN
 10
6.6011
 20
12.7534
  0
VERTEX
  8
LAYER1
 62
     7
  6
HIDDEN
 10
6.4266
 20
12.9977
  0
VERTEX
  8
LAYER1
 62
     7
  6
HIDDEN
 10
6.2221
 20
13.3317
  0
VERTEX
  8
LAYER1
 62
     7
  6
HIDDEN
 10
6.0626
 20
13.6508
  0
VERTEX
  8
LAYER1
 62
     7
  6
HIDDEN
 10
5.8881
 20
13.9599
  0
VERTEX
  8
LAYER1
 62
     7
  6
HIDDEN
 10
5.6937
 20
14.3339
  0
VERTEX
  8
LAYER1
 62
     7
  6
HIDDEN
 10
5.5491
 20
14.7277
  0
VERTEX
  8
LAYER1
 62
     7
  6
HIDDEN
 10
5.4593
 20
15.0319
  0
VERTEX
  8
LAYER1
 62
     7
  6
HIDDEN
 10
5.4145
 20
15.2463
  0
VERTEX
  8
LAYER1
 62
     7
  6
HIDDEN
 10
5.4593
 20
15.5952
  0
SEQEND
  8
LAYER1
  0
POLYLINE
  8
LAYER1
 62
     7
 66
     1
  6
CONTINUOUS
  0
VERTEX
  8
LAYER1
 62
     7
  6
CONTINUOUS
 10
4.9807
 20
7.5783
  0
VERTEX
  8
LAYER1
 62
     7
  6
CONTINUOUS
 10
4.9658
 20
7.5483
  0
VERTEX
  8
LAYER1
 62
     7
  6
CONTINUOUS
 10
4.9558
 20
7.4935
  0
VERTEX
  8
LAYER1
 62
     7
  6
CONTINUOUS
 10
4.9209
 20
7.3689
  0
VERTEX
  8
LAYER1
 62
     7
  6
CONTINUOUS
 10
4.8611
 20
7.2941
  0
VERTEX
  8
LAYER1
 62
     7
  6
CONTINUOUS
 10
4.7962
 20
7.2293
  0
VERTEX
  8
LAYER1
 62
     7
  6
CONTINUOUS
 10
4.7464
 20
7.1694
  0
VERTEX
  8
LAYER1
 62
     7
  6
CONTINUOUS
 10
4.6866
 20
7.0597
  0
VERTEX
  8
LAYER1
 62
     7
  6
CONTINUOUS
 10
4.6417
 20
6.9301
  0
VERTEX
  8
LAYER1
 62
     7
  6
CONTINUOUS
 10
4.6118
 20
6.7606
  0
VERTEX
  8
LAYER1
 62
     7
  6
CONTINUOUS
 10
4.5968
 20
6.5462
  0
VERTEX
  8
LAYER1
 62
     7
  6
CONTINUOUS
 10
4.5669
 20
6.3418
  0
VERTEX
  8
LAYER1
 62
     7
  6
CONTINUOUS
 10
4.4871
 20
6.0925
  0
VERTEX
  8
LAYER1
 62
     7
  6
CONTINUOUS
 10
4.4273
 20
5.8283
  0
VERTEX
  8
LAYER1
 62
     7
  6
CONTINUOUS
 10
4.3226
 20
5.4244
  0
VERTEX
  8
LAYER1
 62
     7
  6
CONTINUOUS
 10
4.2877
 20
5.2549
  0
VERTEX
  8
LAYER1
 62
     7
  6
CONTINUOUS
 10
4.2478
 20
5.0954
  0
VERTEX
  8
LAYER1
 62
     7
  6
CONTINUOUS
 10
4.2029
 20
4.9658
  0
VERTEX
  8
LAYER1
 62
     7
  6
CONTINUOUS
 10
4.1331
 20
4.7514
  0
VERTEX
  8
LAYER1
 62
     7
  6
CONTINUOUS
 10
4.0833
 20
4.5918
  0
VERTEX
  8
LAYER1
 62
     7
  6
CONTINUOUS
 10
3.9886
 20
4.3475
  0
VERTEX
  8
LAYER1
 62
     7
  6
CONTINUOUS
 10
3.9237
 20
4.1381
  0
VERTEX
  8
LAYER1
 62
     7
  6
CONTINUOUS
 10
3.9237
 20
3.9636
  0
VERTEX
  8
LAYER1
 62
     7
  6
CONTINUOUS
 10
3.9886
 20
3.7941
  0
VERTEX
  8
LAYER1
 62
     7
  6
CONTINUOUS
 10
4.0484
 20
3.5349
  0
VERTEX
  8
LAYER1
 62
     7
  6
CONTINUOUS
 10
4.0235
 20
3.2656
  0
VERTEX
  8
LAYER1
 62
     7
  6
CONTINUOUS
 10
3.9487
 20
3.0512
  0
VERTEX
  8
LAYER1
 62
     7
  6
CONTINUOUS
 10
3.8739
 20
2.7970
  0
VERTEX
  8
LAYER1
 62
     7
  6
CONTINUOUS
 10
3.8190
 20
2.5078
  0
VERTEX
  8
LAYER1
 62
     7
  6
CONTINUOUS
 10
3.7742
 20
2.2884
  0
VERTEX
  8
LAYER1
 62
     7
  6
CONTINUOUS
 10
3.7193
 20
2.0392
  0
VERTEX
  8
LAYER1
 62
     7
  6
CONTINUOUS
 10
3.6844
 20
1.8298
  0
VERTEX
  8
LAYER1
 62
     7
  6
CONTINUOUS
 10
3.6495
 20
1.4907
  0
VERTEX
  8
LAYER1
 62
     7
  6
CONTINUOUS
 10
3.6246
 20
1.2464
  0
VERTEX
  8
LAYER1
 62
     7
  6
CONTINUOUS
 10
3.6096
 20
1.0769
  0
VERTEX
  8
LAYER1
 62
     7
  6
CONTINUOUS
 10
3.6096
 20
0.8625
  0
VERTEX
  8
LAYER1
 62
     7
  6
CONTINUOUS
 10
3.6146
 20
0.6382
  0
VERTEX
  8
LAYER1
 62
     7
  6
CONTINUOUS
 10
3.6346
 20
0.5584
  0
VERTEX
  8
LAYER1
 62
     7
  6
CONTINUOUS
 10
3.7343
 20
0.4437
  0
VERTEX
  8
LAYER1
 62
     7
  6
CONTINUOUS
 10
3.9337
 20
0.3340
  0
VERTEX
  8
LAYER1
 62
     7
  6
CONTINUOUS
 10
4.2628
 20
0.2293
  0
VERTEX
  8
LAYER1
 62
     7
  6
CONTINUOUS
 10
4.5619
 20
0.1645
  0
VERTEX
  8
LAYER1
 62
     7
  6
CONTINUOUS
 10
4.9508
 20
0.1296
  0
VERTEX
  8
LAYER1
 62
     7
  6
CONTINUOUS
 10
5.3696
 20
0.1296
  0
VERTEX
  8
LAYER1
 62
     7
  6
CONTINUOUS
 10
5.7984
 20
0.1296
  0
VERTEX
  8
LAYER1
 62
     7
  6
CONTINUOUS
 10
6.3169
 20
0.1496
  0
VERTEX
  8
LAYER1
 62
     7
  6
CONTINUOUS
 10
6.8553
 20
0.1595
  0
VERTEX
  8
LAYER1
 62
     7
  6
CONTINUOUS
 10
7.4536
 20
0.1645
  0
VERTEX
  8
LAYER1
 62
     7
  6
CONTINUOUS
 10
7.9771
 20
0.1695
  0
VERTEX
  8
LAYER1
 62
     7
  6
CONTINUOUS
 10
8.4857
 20
0.1795
  0
VERTEX
  8
LAYER1
 62
     7
  6
CONTINUOUS
 10
9.1138
 20
0.1795
  0
VERTEX
  8
LAYER1
 62
     7
  6
CONTINUOUS
 10
9.4429
 20
0.1695
  0
VERTEX
  8
LAYER1
 62
     7
  6
CONTINUOUS
 10
10.0312
 20
0.1895
  0
VERTEX
  8
LAYER1
 62
     7
  6
CONTINUOUS
 10
10.4151
 20
0.1895
  0
VERTEX
  8
LAYER1
 62
     7
  6
CONTINUOUS
 10
10.7890
 20
0.2094
  0
VERTEX
  8
LAYER1
 62
     7
  6
CONTINUOUS
 10
11.2029
 20
0.2094
  0
VERTEX
  8
LAYER1
 62
     7
  6
CONTINUOUS
 10
11.6167
 20
0.2044
  0
VERTEX
  8
LAYER1
 62
     7
  6
CONTINUOUS
 10
12.0404
 20
0.1994
  0
VERTEX
  8
LAYER1
 62
     7
  6
CONTINUOUS
 10
12.4892
 20
0.2044
  0
VERTEX
  8
LAYER1
 62
     7
  6
CONTINUOUS
 10
12.9030
 20
0.2094
  0
VERTEX
  8
LAYER1
 62
     7
  6
CONTINUOUS
 10
13.1473
 20
0.2094
  0
VERTEX
  8
LAYER1
 62
     7
  6
CONTINUOUS
 10
13.3018
 20
0.3291
  0
VERTEX
  8
LAYER1
 62
     7
  6
CONTINUOUS
 10
13.4514
 20
0.5434
  0
VERTEX
  8
LAYER1
 62
     7
  6
CONTINUOUS
 10
13.4913
 20
0.7279
  0
VERTEX
  8
LAYER1
 62
     7
  6
CONTINUOUS
 10
13.4913
 20
1.0370
  0
VERTEX
  8
LAYER1
 62
     7
  6
CONTINUOUS
 10
13.4763
 20
1.2265
  0
VERTEX
  8
LAYER1
 62
     7
  6
CONTINUOUS
 10
13.4713
 20
1.4758
  0
VERTEX
  8
LAYER1
 62
     7
  6
CONTINUOUS
 10
13.4414
 20
1.8447
  0
VERTEX
  8
LAYER1
 62
     7
  6
CONTINUOUS
 10
13.4215
 20
2.1339
  0
VERTEX
  8
LAYER1
 62
     7
  6
CONTINUOUS
 10
13.3666
 20
2.4829
  0
VERTEX
  8
LAYER1
 62
     7
  6
CONTINUOUS
 10
13.3317
 20
2.6374
  0
VERTEX
  8
LAYER1
 62
     7
  6
CONTINUOUS
 10
13.3268
 20
2.9715
  0
VERTEX
  8
LAYER1
 62
     7
  6
CONTINUOUS
 10
13.3367
 20
3.1759
  0
VERTEX
  8
LAYER1
 62
     7
  6
CONTINUOUS
 10
13.3517
 20
3.4651
  0
VERTEX
  8
LAYER1
 62
     7
  6
CONTINUOUS
 10
13.3716
 20
3.6745
  0
VERTEX
  8
LAYER1
 62
     7
  6
CONTINUOUS
 10
13.3766
 20
3.8240
  0
VERTEX
  8
LAYER1
 62
     7
  6
CONTINUOUS
 10
13.3367
 20
4.1082
  0
VERTEX
  8
LAYER1
 62
     7
  6
CONTINUOUS
 10
13.3018
 20
4.2678
  0
VERTEX
  8
LAYER1
 62
     7
  6
CONTINUOUS
 10
13.2171
 20
4.5071
  0
VERTEX
  8
LAYER1
 62
     7
  6
CONTINUOUS
 10
13.1423
 20
4.7464
  0
VERTEX
  8
LAYER1
 62
     7
  6
CONTINUOUS
 10
13.1074
 20
4.9059
  0
VERTEX
  8
LAYER1
 62
     7
  6
CONTINUOUS
 10
13.1074
 20
5.0505
  0
VERTEX
  8
LAYER1
 62
     7
  6
CONTINUOUS
 10
13.1423
 20
5.3148
  0
VERTEX
  8
LAYER1
 62
     7
  6
CONTINUOUS
 10
13.1622
 20
5.4394
  0
VERTEX
  8
LAYER1
 62
     7
  6
CONTINUOUS
 10
13.1872
 20
5.5939
  0
VERTEX
  8
LAYER1
 62
     7
  6
CONTINUOUS
 10
13.1672
 20
5.7136
  0
VERTEX
  8
LAYER1
 62
     7
  6
CONTINUOUS
 10
13.0276
 20
5.9878
  0
VERTEX
  8
LAYER1
 62
     7
  6
CONTINUOUS
 10
12.9927
 20
6.1125
  0
VERTEX
  8
LAYER1
 62
     7
  6
CONTINUOUS
 10
12.9778
 20
6.4964
  0
VERTEX
  8
LAYER1
 62
     7
  6
CONTINUOUS
 10
12.9977
 20
6.6659
  0
VERTEX
  8
LAYER1
 62
     7
  6
CONTINUOUS
 10
12.9528
 20
6.8603
  0
VERTEX
  8
LAYER1
 62
     7
  6
CONTINUOUS
 10
12.8332
 20
7.1345
  0
VERTEX
  8
LAYER1
 62
     7
  6
CONTINUOUS
 10
12.7883
 20
7.2741
  0
VERTEX
  8
LAYER1
 62
     7
  6
CONTINUOUS
 10
12.7185
 20
7.4486
  0
VERTEX
  8
LAYER1
 62
     7
  6
CONTINUOUS
 10
12.6986
 20
7.5783
  0
SEQEND
  8
LAYER1
  0
POLYLINE
  8
LAYER1
 62
     7
 66
     1
  6
CONTINUOUS
  0
VERTEX
  8
LAYER1
 62
     7
  6
CONTINUOUS
 10
4.9658
 20
7.5483
  0
VERTEX
  8
LAYER1
 62
     7
  6
CONTINUOUS
 10
5.3995
 20
7.5633
  0
VERTEX
  8
LAYER1
 62
     7
  6
CONTINUOUS
 10
5.6637
 20
7.5783
  0
VERTEX
  8
LAYER1
 62
     7
  6
CONTINUOUS
 10
6.0277
 20
7.6032
  0
VERTEX
  8
LAYER1
 62
     7
  6
CONTINUOUS
 10
6.3019
 20
7.5832
  0
VERTEX
  8
LAYER1
 62
     7
  6
CONTINUOUS
 10
6.7207
 20
7.5683
  0
VERTEX
  8
LAYER1
 62
     7
  6
CONTINUOUS
 10
7.2442
 20
7.5733
  0
VERTEX
  8
LAYER1
 62
     7
  6
CONTINUOUS
 10
7.6032
 20
7.5982
  0
VERTEX
  8
LAYER1
 62
     7
  6
CONTINUOUS
 10
8.0220
 20
7.5982
  0
VERTEX
  8
LAYER1
 62
     7
  6
CONTINUOUS
 10
8.4707
 20
7.5683
  0
VERTEX
  8
LAYER1
 62
     7
  6
CONTINUOUS
 10
8.8945
 20
7.5533
  0
VERTEX
  8
LAYER1
 62
     7
  6
CONTINUOUS
 10
9.3781
 20
7.5783
  0
VERTEX
  8
LAYER1
 62
     7
  6
CONTINUOUS
 10
9.8418
 20
7.5932
  0
VERTEX
  8
LAYER1
 62
     7
  6
CONTINUOUS
 10
10.3852
 20
7.6132
  0
VERTEX
  8
LAYER1
 62
     7
  6
CONTINUOUS
 10
10.7990
 20
7.6431
  0
VERTEX
  8
LAYER1
 62
     7
  6
CONTINUOUS
 10
11.1729
 20
7.6381
  0
VERTEX
  8
LAYER1
 62
     7
  6
CONTINUOUS
 10
11.6017
 20
7.6281
  0
VERTEX
  8
LAYER1
 62
     7
  6
CONTINUOUS
 10
11.9806
 20
7.6181
  0
VERTEX
  8
LAYER1
 62
     7
  6
CONTINUOUS
 10
12.2748
 20
7.6181
  0
VERTEX
  8
LAYER1
 62
     7
  6
CONTINUOUS
 10
12.4692
 20
7.6132
  0
VERTEX
  8
LAYER1
 62
     7
  6
CONTINUOUS
 10
12.6986
 20
7.5783
  0
SEQEND
  8
LAYER1
  0
POLYLINE
  8
LAYER1
 62
     7
 66
     1
  6
CONTINUOUS
  0
VERTEX
  8
LAYER1
 62
     7
  6
CONTINUOUS
 10
4.2877
 20
5.2549
  0
VERTEX
  8
LAYER1
 62
     7
  6
CONTINUOUS
 10
4.3027
 20
5.2350
  0
VERTEX
  8
LAYER1
 62
     7
  6
CONTINUOUS
 10
4.5470
 20
5.1353
  0
VERTEX
  8
LAYER1
 62
     7
  6
CONTINUOUS
 10
4.8261
 20
5.0206
  0
VERTEX
  8
LAYER1
 62
     7
  6
CONTINUOUS
 10
5.2001
 20
4.9009
  0
VERTEX
  8
LAYER1
 62
     7
  6
CONTINUOUS
 10
5.5341
 20
4.8162
  0
VERTEX
  8
LAYER1
 62
     7
  6
CONTINUOUS
 10
5.8981
 20
4.7165
  0
VERTEX
  8
LAYER1
 62
     7
  6
CONTINUOUS
 10
6.2919
 20
4.6467
  0
VERTEX
  8
LAYER1
 62
     7
  6
CONTINUOUS
 10
6.7058
 20
4.5819
  0
VERTEX
  8
LAYER1
 62
     7
  6
CONTINUOUS
 10
6.9850
 20
4.5420
  0
VERTEX
  8
LAYER1
 62
     7
  6
CONTINUOUS
 10
7.2791
 20
4.5220
  0
VERTEX
  8
LAYER1
 62
     7
  6
CONTINUOUS
 10
7.6580
 20
4.4971
  0
VERTEX
  8
LAYER1
 62
     7
  6
CONTINUOUS
 10
7.9771
 20
4.4971
  0
VERTEX
  8
LAYER1
 62
     7
  6
CONTINUOUS
 10
8.2064
 20
4.5021
  0
VERTEX
  8
LAYER1
 62
     7
  6
CONTINUOUS
 10
8.6003
 20
4.4921
  0
VERTEX
  8
LAYER1
 62
     7
  6
CONTINUOUS
 10
8.9294
 20
4.4871
  0
VERTEX
  8
LAYER1
 62
     7
  6
CONTINUOUS
 10
9.2036
 20
4.4921
  0
VERTEX
  8
LAYER1
 62
     7
  6
CONTINUOUS
 10
9.5526
 20
4.4672
  0
VERTEX
  8
LAYER1
 62
     7
  6
CONTINUOUS
 10
9.8617
 20
4.4672
  0
VERTEX
  8
LAYER1
 62
     7
  6
CONTINUOUS
 10
10.1110
 20
4.4772
  0
VERTEX
  8
LAYER1
 62
     7
  6
CONTINUOUS
 10
10.5298
 20
4.4921
  0
VERTEX
  8
LAYER1
 62
     7
  6
CONTINUOUS
 10
10.8588
 20
4.5071
  0
VERTEX
  8
LAYER1
 62
     7
  6
CONTINUOUS
 10
11.1929
 20
4.5170
  0
VERTEX
  8
LAYER1
 62
     7
  6
CONTINUOUS
 10
11.5519
 20
4.5420
  0
VERTEX
  8
LAYER1
 62
     7
  6
CONTINUOUS
 10
11.7912
 20
4.5619
  0
VERTEX
  8
LAYER1
 62
     7
  6
CONTINUOUS
 10
12.0754
 20
4.6068
  0
VERTEX
  8
LAYER1
 62
     7
  6
CONTINUOUS
 10
12.3147
 20
4.6616
  0
VERTEX
  8
LAYER1
 62
     7
  6
CONTINUOUS
 10
12.5988
 20
4.7414
  0
VERTEX
  8
LAYER1
 62
     7
  6
CONTINUOUS
 10
12.7534
 20
4.7813
  0
VERTEX
  8
LAYER1
 62
     7
  6
CONTINUOUS
 10
12.9578
 20
4.8461
  0
VERTEX
  8
LAYER1
 62
     7
  6
CONTINUOUS
 10
13.1074
 20
4.9059
  0
SEQEND
  8
LAYER1
  0
POLYLINE
  8
LAYER1
 62
     7
 66
     1
  6
CONTINUOUS
  0
VERTEX
  8
LAYER1
 62
     7
  6
CONTINUOUS
 10
3.6844
 20
1.8298
  0
VERTEX
  8
LAYER1
 62
     7
  6
CONTINUOUS
 10
3.7492
 20
1.9045
  0
VERTEX
  8
LAYER1
 62
     7
  6
CONTINUOUS
 10
3.9437
 20
1.9394
  0
VERTEX
  8
LAYER1
 62
     7
  6
CONTINUOUS
 10
4.2827
 20
1.9893
  0
VERTEX
  8
LAYER1
 62
     7
  6
CONTINUOUS
 10
4.6367
 20
2.0441
  0
VERTEX
  8
LAYER1
 62
     7
  6
CONTINUOUS
 10
5.2101
 20
2.1389
  0
VERTEX
  8
LAYER1
 62
     7
  6
CONTINUOUS
 10
5.6089
 20
2.2635
  0
VERTEX
  8
LAYER1
 62
     7
  6
CONTINUOUS
 10
5.8731
 20
2.3632
  0
VERTEX
  8
LAYER1
 62
     7
  6
CONTINUOUS
 10
6.3219
 20
2.4679
  0
VERTEX
  8
LAYER1
 62
     7
  6
CONTINUOUS
 10
6.7905
 20
2.5327
  0
VERTEX
  8
LAYER1
 62
     7
  6
CONTINUOUS
 10
7.1445
 20
2.6175
  0
VERTEX
  8
LAYER1
 62
     7
  6
CONTINUOUS
 10
7.4935
 20
2.7022
  0
VERTEX
  8
LAYER1
 62
     7
  6
CONTINUOUS
 10
7.5783
 20
2.7172
  0
VERTEX
  8
LAYER1
 62
     7
  6
CONTINUOUS
 10
7.9572
 20
2.7421
  0
VERTEX
  8
LAYER1
 62
     7
  6
CONTINUOUS
 10
8.3261
 20
2.7720
  0
VERTEX
  8
LAYER1
 62
     7
  6
CONTINUOUS
 10
8.6901
 20
2.7970
  0
VERTEX
  8
LAYER1
 62
     7
  6
CONTINUOUS
 10
9.2485
 20
2.7970
  0
VERTEX
  8
LAYER1
 62
     7
  6
CONTINUOUS
 10
9.5975
 20
2.7172
  0
VERTEX
  8
LAYER1
 62
     7
  6
CONTINUOUS
 10
10.1409
 20
2.6275
  0
VERTEX
  8
LAYER1
 62
     7
  6
CONTINUOUS
 10
10.4949
 20
2.5876
  0
VERTEX
  8
LAYER1
 62
     7
  6
CONTINUOUS
 10
10.7442
 20
2.5377
  0
VERTEX
  8
LAYER1
 62
     7
  6
CONTINUOUS
 10
11.1680
 20
2.4380
  0
VERTEX
  8
LAYER1
 62
     7
  6
CONTINUOUS
 10
11.4820
 20
2.3782
  0
VERTEX
  8
LAYER1
 62
     7
  6
CONTINUOUS
 10
11.8061
 20
2.3283
  0
VERTEX
  8
LAYER1
 62
     7
  6
CONTINUOUS
 10
12.0404
 20
2.2884
  0
VERTEX
  8
LAYER1
 62
     7
  6
CONTINUOUS
 10
12.3246
 20
2.2436
  0
VERTEX
  8
LAYER1
 62
     7
  6
CONTINUOUS
 10
12.5739
 20
2.1887
  0
VERTEX
  8
LAYER1
 62
     7
  6
CONTINUOUS
 10
12.7883
 20
2.1339
  0
VERTEX
  8
LAYER1
 62
     7
  6
CONTINUOUS
 10
13.0525
 20
2.0491
  0
VERTEX
  8
LAYER1
 62
     7
  6
CONTINUOUS
 10
13.4414
 20
1.8447
  0
SEQEND
  8
LAYER1
  0
POLYLINE
  8
LAYER1
 62
     7
 66
     1
  6
CONTINUOUS
  0
VERTEX
  8
LAYER1
 62
     7
  6
CONTINUOUS
 10
13.6608
 20
10.6744
  0
VERTEX
  8
LAYER1
 62
     7
  6
CONTINUOUS
 10
14.9310
 20
10.6741
  0
SEQEND
  8
LAYER1
  0
POLYLINE
  8
LAYER1
 62
     7
 66
     1
  6
CONTINUOUS
  0
VERTEX
  8
LAYER1
 62
     7
  6
CONTINUOUS
 10
4.9707
 20
11.8809
  0
VERTEX
  8
LAYER1
 62
     7
  6
CONTINUOUS
 10
4.9707
 20
9.4279
  0
SEQEND
  8
LAYER1
  0
POLYLINE
  8
LAYER1
 62
     3
 66
     1
  6
CONTINUOUS
  0
VERTEX
  8
LAYER1
 62
     3
  6
CONTINUOUS
 10
9.9714
 20
20.5660
  0
VERTEX
  8
LAYER1
 62
     3
  6
CONTINUOUS
 10
9.9714
 20
19.7633
  0
SEQEND
  8
LAYER1
  0
POLYLINE
  8
LAYER1
 62
     3
 66
     1
  6
CONTINUOUS
  0
VERTEX
  8
LAYER1
 62
     3
  6
CONTINUOUS
 10
9.9714
 20
11.5469
  0
VERTEX
  8
LAYER1
 62
     3
  6
CONTINUOUS
 10
9.9714
 20
10.6494
  0
SEQEND
  8
LAYER1
  0
POLYLINE
  8
LAYER1
 62
     7
 66
     1
  6
CONTINUOUS
  0
VERTEX
  8
LAYER1
 62
     7
  6
CONTINUOUS
 10
4.9707
 20
9.4279
  0
VERTEX
  8
LAYER1
 62
     7
  6
CONTINUOUS
 10
4.9707
 20
11.8809
  0
SEQEND
  8
LAYER1
  0
POLYLINE
  8
LAYER1
 62
     7
 66
     1
  6
CONTINUOUS
  0
VERTEX
  8
LAYER1
 62
     7
  6
CONTINUOUS
 10
4.9707
 20
11.8809
  0
VERTEX
  8
LAYER1
 62
     7
  6
CONTINUOUS
 10
4.8027
 20
11.3961
  0
SEQEND
  8
LAYER1
  0
POLYLINE
  8
LAYER1
 62
     7
 66
     1
  6
CONTINUOUS
  0
VERTEX
  8
LAYER1
 62
     7
  6
CONTINUOUS
 10
13.6608
 20
10.8095
  0
VERTEX
  8
LAYER1
 62
     7
  6
CONTINUOUS
 10
13.6608
 20
10.6744
  0
SEQEND
  8
LAYER1
  0
POLYLINE
  8
LAYER1
 62
     7
 66
     1
  6
CONTINUOUS
  0
VERTEX
  8
LAYER1
 62
     7
  6
CONTINUOUS
 10
14.9310
 20
10.6741
  0
VERTEX
  8
LAYER1
 62
     7
  6
CONTINUOUS
 10
13.6608
 20
10.6744
  0
SEQEND
  8
LAYER1
  0
POLYLINE
  8
LAYER1
 62
     7
 66
     1
  6
CONTINUOUS
  0
VERTEX
  8
LAYER1
 62
     7
  6
CONTINUOUS
 10
14.9310
 20
10.6741
  0
VERTEX
  8
LAYER1
 62
     7
  6
CONTINUOUS
 10
16.2052
 20
10.6736
  0
SEQEND
  8
LAYER1
  0
POLYLINE
  8
LAYER25
 62
     7
 66
     1
  6
CONTINUOUS
  0
VERTEX
  8
LAYER25
 62
     7
  6
CONTINUOUS
 10
16.2052
 20
10.6736
  0
VERTEX
  8
LAYER25
 62
     7
  6
CONTINUOUS
 10
16.2052
 20
10.8067
  0
SEQEND
  8
LAYER25
  0
ENDSEC
  0
EOF
