  0
SECTION
  2
HEADER
  9
$ACADVER
  1
AC1004
  9
$EXTMIN
 10
-1223.9225
 20
3034.5566
  9
$EXTMAX
 10
17367.6618
 20
19652.9192
  9
$LIMMIN
 10
-1223.9225
 20
3034.5566
  9
$LIMMAX
 10
17367.6618
 20
19652.9192
  9
$INSBASE
 10
0.0
 20
0.0
  9
$VIEWCTR
 10
7.21903
 20
4.5
  9
$VIEWSIZE
 40
9.0
  9
$SNAPMODE
 70
     0
  9
$SNAPUNIT
 10
1.0
 20
1.0
  9
$SNAPBASE
 10
0.0
 20
0.0
  9
$SNAPANG
 50
0.0
  9
$SNAPSTYLE
 70
     0
  9
$SNAPISOPAIR
 70
     0
  9
$GRIDMODE
 70
     0
  9
$GRIDUNIT
 10
0.0
 20
0.0
  9
$ORTHOMODE
 70
     0
  9
$REGENMODE
 70
     1
  9
$FILLMODE
 70
     1
  9
$QTEXTMODE
 70
     0
  9
$DRAGMODE
 70
     2
  9
$LTSCALE
 40
1.0
  9
$OSMODE
 70
     0
  9
$ATTMODE
 70
     1
  9
$TEXTSIZE
 40
0.2
  9
$TRACEWID
 40
0.05
  9
$TEXTSTYLE
  7
STANDARD
  9
$CLAYER
  8
0
  9
$CELTYPE
  6
BYLAYER
  9
$CECOLOR
 62
   256
  9
$DIMSCALE
 40
1.0
  9
$DIMASZ
 40
0.18
  9
$DIMEXO
 40
0.0625
  9
$DIMDLI
 40
0.38
  9
$DIMRND
 40
0.0
  9
$DIMDLE
 40
0.0
  9
$DIMEXE
 40
0.18
  9
$DIMTP
 40
0.0
  9
$DIMTM
 40
0.0
  9
$DIMTXT
 40
0.18
  9
$DIMCEN
 40
0.09
  9
$DIMTSZ
 40
0.0
  9
$DIMTOL
 70
     0
  9
$DIMLIM
 70
     0
  9
$DIMTIH
 70
     1
  9
$DIMTOH
 70
     1
  9
$DIMSE1
 70
     0
  9
$DIMSE2
 70
     0
  9
$DIMTAD
 70
     0
  9
$DIMZIN
 70
     0
  9
$DIMBLK
  1

  9
$DIMASO
 70
     1
  9
$DIMSHO
 70
     0
  9
$DIMPOST
  1

  9
$DIMAPOST
  1

  9
$DIMALT
 70
     0
  9
$DIMALTD
 70
     2
  9
$DIMALTF
 40
25.4
  9
$DIMLFAC
 40
1.0
  9
$LUNITS
 70
     2
  9
$LUPREC
 70
     4
  9
$AXISMODE
 70
     0
  9
$AXISUNIT
 10
0.0
 20
0.0
  9
$SKETCHINC
 40
0.1
  9
$FILLETRAD
 40
0.0
  9
$AUNITS
 70
     0
  9
$AUPREC
 70
     0
  9
$MENU
  1
acad
  9
$ELEVATION
 40
0.0
  9
$THICKNESS
 40
0.0
  9
$VIEWDIR
 10
0.0
 20
0.0
 30
1.0
  9
$LIMCHECK
 70
     0
  9
$BLIPMODE
 70
     1
  9
$CHAMFERA
 40
0.0
  9
$CHAMFERB
 40
0.0
  9
$FASTZOOM
 70
     1
  9
$SKPOLY
 70
     0
  9
$TDCREATE
 40
2447222.5666886573
  9
$TDUPDATE
 40
2447222.5666886573
  9
$TDINDWG
 40
0.0000000000
  9
$TDUSRTIMER
 40
0.0000000000
  9
$USRTIMER
 70
     1
  9
$ANGBASE
 50
0.0
  9
$ANGDIR
 70
     0
  9
$PDMODE
 70
     0
  9
$PDSIZE
 40
0.0
  9
$PLINEWID
 40
0.0
  9
$COORDS
 70
     0
  9
$SPLFRAME
 70
     0
  9
$SPLINESEGS
 70
     8
  9
$ATTDIA
 70
     0
  9
$ATTREQ
 70
     1
  9
$USERI1
 70
     0
  9
$USERI2
 70
     0
  9
$USERI3
 70
     0
  9
$USERI4
 70
     0
  9
$USERI5
 70
     0
  9
$USERR1
 40
0.0
  9
$USERR2
 40
0.0
  9
$USERR3
 40
0.0
  9
$USERR4
 40
0.0
  9
$USERR5
 40
0.0
  0
ENDSEC
  0
SECTION
  2
TABLES
  0
TABLE
  2
LTYPE
 70
     13
  0
LTYPE
  2
CONTINUOUS
 70
    64
  3
Solid line
 72
    65
 73
     0
 40
0.0
  0
LTYPE
  2
DASHED
 70
    64
  3
__ __ __ __ __ __ __ __ __ __ __ __ __ __ __
 72
    65
 73
     2
 40
0.75
 49
0.5
 49
-0.25
  0
LTYPE
  2
HIDDEN
 70
    64
  3
_ _ _ _ _ _ _ _ _ _ _ _ _ _ _ _ _ _ _ _ _ _ _
 72
    65
 73
     2
 40
0.375
 49
0.25
 49
-0.125
  0
LTYPE
  2
CENTER
 70
    64
  3
____ _ ____ _ ____ _ ____ _ ____ _ ____ _ ____
 72
    65
 73
     4
 40
2.0
 49
1.25
 49
-0.25
 49
0.25
 49
-0.25
  0
LTYPE
  2
PHANTOM
 70
    64
  3
_____ _ _ _____ _ _ _____ _ _ _____ _ _ ____
 72
    65
 73
     6
 40
2.5
 49
1.25
 49
-0.25
 49
0.25
 49
-0.25
 49
0.25
 49
-0.25
  0
LTYPE
  2
DOT
 70
    64
  3
...............................................
 72
    65
 73
     2
 40
0.25
 49
0.0
 49
-0.25
  0
LTYPE
  2
DASHDOT
 70
    64
  3
__ . __ . __ . __ . __ . __ . __ . __ . __ . __
 72
    65
 73
     4
 40
1.0
 49
0.5
 49
-0.25
 49
0.0
 49
-0.25
  0
LTYPE
  2
BORDER
 70
    64
  3
__ __ . __ __ . __ __ . __ __ . __ __ . __ __
 72
    65
 73
     6
 40
1.75
 49
0.5
 49
-0.25
 49
0.5
 49
-0.25
 49
0.0
 49
-0.25
  0
LTYPE
  2
DIVIDE
 70
    64
  3
__ . . __ . . __ . . __ . . __ . . __ . . __
 72
    65
 73
     6
 40
1.25
 49
0.5
 49
-0.25
 49
0.0
 49
-0.25
 49
0.0
 49
-0.25
  0
LTYPE
  2
DCTYPE1
 70
    64
  3
__ . . __ . . __ . . __ . . __ . . __ . . __
 72
    65
 73
     8
 40
2.5
 49
0.5
 49
-0.25
 49
0.125
 49
-0.25
 49
0.25
 49
-0.25
 49
0.125
 49
-0.25
  0
LTYPE
  2
DCTYPE2
 70
    64
  3
__ . . __ . . __ . . __ . . __ . . __ . . __
 72
    65
 73
     6
 40
2.05
 49
1.0
 49
-0.3
 49
0.15
 49
-0.15
 49
0.15
 49
-0.3
  0
LTYPE
  2
DCTYPE3
 70
    64
  3
__ . . __ . . __ . . __ . . __ . . __ . . __
 72
    65
 73
     6
 40
2.5
 49
0.8
 49
-0.2
 49
0.8
 49
-0.2
 49
0.3
 49
-0.2
  0
LTYPE
  2
DCTYPE4
 70
    64
  3
__ . . __ . . __ . . __ . . __ . . __ . . __
 72
    65
 73
     10
 40
3.97
 49
1.75
 49
-0.3
 49
0.3
 49
-0.3
 49
0.06
 49
-0.3
 49
0.06
 49
-0.3
 49
0.3
 49
-0.3
  0
ENDTAB
  0
TABLE
  2
LAYER
 70
    153
  0
LAYER
  2
LAYER1
 70
 64
 62
     7
  6
CONTINUOUS
  0
ENDTAB
  0
ENDSEC
  0
SECTION
  2
BLOCKS
  0
ENDSEC
  0
SECTION
  2
ENTITIES
  0
POLYLINE
  8
LAYER1
 62
     7
 66
     1
  6
CONTINUOUS
  0
VERTEX
  8
LAYER1
 62
     7
  6
CONTINUOUS
 10
2615.2404
 20
17346.6571
  0
VERTEX
  8
LAYER1
 62
     7
  6
CONTINUOUS
 10
2670.4091
 20
17732.8708
  0
VERTEX
  8
LAYER1
 62
     7
  6
CONTINUOUS
 10
2758.6978
 20
18130.1211
  0
VERTEX
  8
LAYER1
 62
     7
  6
CONTINUOUS
 10
2869.0351
 20
18461.1647
  0
VERTEX
  8
LAYER1
 62
     7
  6
CONTINUOUS
 10
3155.9493
 20
18968.7684
  0
VERTEX
  8
LAYER1
 62
     7
  6
CONTINUOUS
 10
3464.9127
 20
19255.6689
  0
VERTEX
  8
LAYER1
 62
     7
  6
CONTINUOUS
 10
3961.4777
 20
19465.3331
  0
VERTEX
  8
LAYER1
 62
     7
  6
CONTINUOUS
 10
4380.8091
 20
19553.6061
  0
VERTEX
  8
LAYER1
 62
     7
  6
CONTINUOUS
 10
4998.7510
 20
19619.8152
  0
VERTEX
  8
LAYER1
 62
     7
  6
CONTINUOUS
 10
5429.1072
 20
19652.9192
  0
VERTEX
  8
LAYER1
 62
     7
  6
CONTINUOUS
 10
5925.6719
 20
19509.4785
  0
VERTEX
  8
LAYER1
 62
     7
  6
CONTINUOUS
 10
6344.9878
 20
19244.6454
  0
VERTEX
  8
LAYER1
 62
     7
  6
CONTINUOUS
 10
6940.8650
 20
18847.3914
  0
VERTEX
  8
LAYER1
 62
     7
  6
CONTINUOUS
 10
7437.4298
 20
18450.1411
  0
VERTEX
  8
LAYER1
 62
     7
  6
CONTINUOUS
 10
8033.3076
 20
17887.3672
  0
VERTEX
  8
LAYER1
 62
     7
  6
CONTINUOUS
 10
8209.8690
 20
17357.6985
  0
VERTEX
  8
LAYER1
 62
     7
  6
CONTINUOUS
 10
8298.1420
 20
16717.6752
  0
VERTEX
  8
LAYER1
 62
     7
  6
CONTINUOUS
 10
8331.2460
 20
16210.0727
  0
VERTEX
  8
LAYER1
 62
     7
  6
CONTINUOUS
 10
8088.4915
 20
15647.2988
  0
VERTEX
  8
LAYER1
 62
     7
  6
CONTINUOUS
 10
7691.2400
 20
15305.2317
  0
VERTEX
  8
LAYER1
 62
     7
  6
CONTINUOUS
 10
7227.7798
 20
15018.3169
  0
VERTEX
  8
LAYER1
 62
     7
  6
CONTINUOUS
 10
6863.6323
 20
14720.3774
  0
VERTEX
  8
LAYER1
 62
     7
  6
CONTINUOUS
 10
6322.9234
 20
14389.3350
  0
VERTEX
  8
LAYER1
 62
     7
  6
CONTINUOUS
 10
5881.5271
 20
14135.5409
  0
VERTEX
  8
LAYER1
 62
     7
  6
CONTINUOUS
 10
5638.7726
 20
13981.0576
  0
VERTEX
  8
LAYER1
 62
     7
  6
CONTINUOUS
 10
5109.1039
 20
13914.8496
  0
VERTEX
  8
LAYER1
 62
     7
  6
CONTINUOUS
 10
4755.9808
 20
13947.9536
  0
VERTEX
  8
LAYER1
 62
     7
  6
CONTINUOUS
 10
4402.8735
 20
14157.6047
  0
VERTEX
  8
LAYER1
 62
     7
  6
CONTINUOUS
 10
4138.0391
 20
14256.9179
  0
VERTEX
  8
LAYER1
 62
     7
  6
CONTINUOUS
 10
3784.9318
 20
14323.1258
  0
VERTEX
  8
LAYER1
 62
     7
  6
CONTINUOUS
 10
3464.9127
 20
14488.6482
  0
VERTEX
  8
LAYER1
 62
     7
  6
CONTINUOUS
 10
3354.5754
 20
14731.4164
  0
VERTEX
  8
LAYER1
 62
     7
  6
CONTINUOUS
 10
3200.0781
 20
15051.4197
  0
VERTEX
  8
LAYER1
 62
     7
  6
CONTINUOUS
 10
2979.3879
 20
15294.1903
  0
VERTEX
  8
LAYER1
 62
     7
  6
CONTINUOUS
 10
2946.2836
 20
15581.0908
  0
VERTEX
  8
LAYER1
 62
     7
  6
CONTINUOUS
 10
2858.0107
 20
16088.6933
  0
VERTEX
  8
LAYER1
 62
     7
  6
CONTINUOUS
 10
2714.5536
 20
16419.7381
  0
VERTEX
  8
LAYER1
 62
     7
  6
CONTINUOUS
 10
2637.3048
 20
16640.4294
  0
VERTEX
  8
LAYER1
 62
     7
  6
CONTINUOUS
 10
2604.2005
 20
16927.3430
  0
VERTEX
  8
LAYER1
 62
     7
  6
CONTINUOUS
 10
2626.2806
 20
17048.7199
  0
VERTEX
  8
LAYER1
 62
     7
  6
CONTINUOUS
 10
2615.2404
 20
17346.6571
  0
SEQEND
  8
LAYER1
  0
POLYLINE
  8
LAYER1
 62
     7
 66
     1
  6
CONTINUOUS
  0
VERTEX
  8
LAYER1
 62
     7
  6
CONTINUOUS
 10
7393.3010
 20
6499.4848
  0
VERTEX
  8
LAYER1
 62
     7
  6
CONTINUOUS
 10
7558.8228
 20
6477.4049
  0
VERTEX
  8
LAYER1
 62
     7
  6
CONTINUOUS
 10
7889.8657
 20
6455.3406
  0
VERTEX
  8
LAYER1
 62
     7
  6
CONTINUOUS
 10
8298.1420
 20
6444.3003
  0
VERTEX
  8
LAYER1
 62
     7
  6
CONTINUOUS
 10
8916.0991
 20
6565.6934
  0
VERTEX
  8
LAYER1
 62
     7
  6
CONTINUOUS
 10
9434.7276
 20
6642.9267
  0
VERTEX
  8
LAYER1
 62
     7
  6
CONTINUOUS
 10
9820.9401
 20
6665.0066
  0
VERTEX
  8
LAYER1
 62
     7
  6
CONTINUOUS
 10
10140.9595
 20
6665.0066
  0
VERTEX
  8
LAYER1
 62
     7
  6
CONTINUOUS
 10
10538.2110
 20
6609.8221
  0
VERTEX
  8
LAYER1
 62
     7
  6
CONTINUOUS
 10
11244.4256
 20
6389.1320
  0
VERTEX
  8
LAYER1
 62
     7
  6
CONTINUOUS
 10
11961.6959
 20
6267.7544
  0
VERTEX
  8
LAYER1
 62
     7
  6
CONTINUOUS
 10
12568.5986
 20
6223.6102
  0
VERTEX
  8
LAYER1
 62
     7
  6
CONTINUOUS
 10
12866.5369
 20
6201.5458
  0
VERTEX
  8
LAYER1
 62
     7
  6
CONTINUOUS
 10
12899.6409
 20
6047.0488
  0
VERTEX
  8
LAYER1
 62
     7
  6
CONTINUOUS
 10
12601.7026
 20
5484.2755
  0
VERTEX
  8
LAYER1
 62
     7
  6
CONTINUOUS
 10
12358.9475
 20
5153.2326
  0
VERTEX
  8
LAYER1
 62
     7
  6
CONTINUOUS
 10
12083.0729
 20
4700.8121
  0
VERTEX
  8
LAYER1
 62
     7
  6
CONTINUOUS
 10
11840.3035
 20
4347.7045
  0
VERTEX
  8
LAYER1
 62
     7
  6
CONTINUOUS
 10
11542.3640
 20
4005.6216
  0
VERTEX
  8
LAYER1
 62
     7
  6
CONTINUOUS
 10
11189.2567
 20
3663.5385
  0
VERTEX
  8
LAYER1
 62
     7
  6
CONTINUOUS
 10
10880.2781
 20
3398.7041
  0
VERTEX
  8
LAYER1
 62
     7
  6
CONTINUOUS
 10
10604.4190
 20
3155.9493
  0
VERTEX
  8
LAYER1
 62
     7
  6
CONTINUOUS
 10
10074.7503
 20
3034.5566
  0
VERTEX
  8
LAYER1
 62
     7
  6
CONTINUOUS
 10
9920.2533
 20
3111.8051
  0
VERTEX
  8
LAYER1
 62
     7
  6
CONTINUOUS
 10
9710.6022
 20
3354.5754
  0
VERTEX
  8
LAYER1
 62
     7
  6
CONTINUOUS
 10
9191.9582
 20
3663.5385
  0
VERTEX
  8
LAYER1
 62
     7
  6
CONTINUOUS
 10
8960.2279
 20
3840.0999
  0
VERTEX
  8
LAYER1
 62
     7
  6
CONTINUOUS
 10
8540.9120
 20
4215.2873
  0
VERTEX
  8
LAYER1
 62
     7
  6
CONTINUOUS
 10
8276.0776
 20
4656.6679
  0
VERTEX
  8
LAYER1
 62
     7
  6
CONTINUOUS
 10
8077.4519
 20
5087.0240
  0
VERTEX
  8
LAYER1
 62
     7
  6
CONTINUOUS
 10
7845.7215
 20
5495.3158
  0
VERTEX
  8
LAYER1
 62
     7
  6
CONTINUOUS
 10
7669.1601
 20
5804.2943
  0
VERTEX
  8
LAYER1
 62
     7
  6
CONTINUOUS
 10
7547.7826
 20
6124.2976
  0
VERTEX
  8
LAYER1
 62
     7
  6
CONTINUOUS
 10
7514.6786
 20
6289.8188
  0
VERTEX
  8
LAYER1
 62
     7
  6
CONTINUOUS
 10
7393.3010
 20
6499.4848
  0
SEQEND
  8
LAYER1
  0
POLYLINE
  8
LAYER1
 62
     7
 66
     1
  6
CONTINUOUS
  0
VERTEX
  8
LAYER1
 62
     7
  6
CONTINUOUS
 10
-1223.9225
 20
9243.4566
  0
VERTEX
  8
LAYER1
 62
     7
  6
CONTINUOUS
 10
4216.2088
 20
9243.4566
  0
SEQEND
  8
LAYER1
  0
POLYLINE
  8
LAYER1
 62
     7
 66
     1
  6
CONTINUOUS
  0
VERTEX
  8
LAYER1
 62
     7
  6
CONTINUOUS
 10
17367.6618
 20
14439.4741
  0
VERTEX
  8
LAYER1
 62
     7
  6
CONTINUOUS
 10
17367.6618
 20
8988.3038
  0
SEQEND
  8
LAYER1
  0
POLYLINE
  8
LAYER1
 62
     7
 66
     1
  6
CONTINUOUS
  0
VERTEX
  8
LAYER1
 62
     7
  6
CONTINUOUS
 10
4216.2088
 20
9243.4566
  0
VERTEX
  8
LAYER1
 62
     7
  6
CONTINUOUS
 10
4216.2088
 20
9829.7465
  0
SEQEND
  8
LAYER1
  0
POLYLINE
  8
LAYER1
 62
     7
 66
     1
  6
CONTINUOUS
  0
VERTEX
  8
LAYER1
 62
     7
  6
CONTINUOUS
 10
-1223.9225
 20
9824.1252
  0
VERTEX
  8
LAYER1
 62
     7
  6
CONTINUOUS
 10
-1223.9225
 20
9243.4566
  0
SEQEND
  8
LAYER1
  0
POLYLINE
  8
LAYER1
 62
     7
 66
     1
  6
CONTINUOUS
  0
VERTEX
  8
LAYER1
 62
     7
  6
CONTINUOUS
 10
4216.2088
 20
9243.4566
  0
VERTEX
  8
LAYER1
 62
     7
  6
CONTINUOUS
 10
-1223.9225
 20
9243.4566
  0
SEQEND
  8
LAYER1
  0
POLYLINE
  8
LAYER1
 62
     7
 66
     1
  6
CONTINUOUS
  0
VERTEX
  8
LAYER1
 62
     7
  6
CONTINUOUS
 10
17367.6618
 20
8988.3038
  0
VERTEX
  8
LAYER1
 62
     7
  6
CONTINUOUS
 10
17367.6618
 20
14439.4741
  0
SEQEND
  8
LAYER1
  0
POLYLINE
  8
LAYER1
 62
     7
 66
     1
  6
CONTINUOUS
  0
VERTEX
  8
LAYER1
 62
     7
  6
CONTINUOUS
 10
17367.6618
 20
14439.4741
  0
VERTEX
  8
LAYER1
 62
     7
  6
CONTINUOUS
 10
16994.3003
 20
13362.0401
  0
SEQEND
  8
LAYER1
  0
POLYLINE
  8
LAYER1
 62
     3
 66
     1
  6
CONTINUOUS
  0
VERTEX
  8
LAYER1
 62
     3
  6
CONTINUOUS
 10
2328.3417
 20
17280.4479
  0
VERTEX
  8
LAYER1
 62
     3
  6
CONTINUOUS
 10
3498.0170
 20
17307.6964
  0
SEQEND
  8
LAYER1
  0
POLYLINE
  8
LAYER1
 62
     3
 66
     1
  6
CONTINUOUS
  0
VERTEX
  8
LAYER1
 62
     3
  6
CONTINUOUS
 10
7018.1139
 20
17389.7112
  0
VERTEX
  8
LAYER1
 62
     3
  6
CONTINUOUS
 10
8485.7436
 20
17423.9065
  0
SEQEND
  8
LAYER1
  0
ENDSEC
  0
EOF
