  0
SECTION
  2
HEADER
  9
$ACADVER
  1
AC1004
  9
$EXTMIN
 10
2261.4460
 20
501.0619
  9
$EXTMAX
 10
28861.4783
 20
15658.3390
  9
$LIMMIN
 10
2261.4460
 20
501.0619
  9
$LIMMAX
 10
28861.4783
 20
15658.3390
  9
$INSBASE
 10
0.0
 20
0.0
  9
$VIEWCTR
 10
7.21903
 20
4.5
  9
$VIEWSIZE
 40
9.0
  9
$SNAPMODE
 70
     0
  9
$SNAPUNIT
 10
1.0
 20
1.0
  9
$SNAPBASE
 10
0.0
 20
0.0
  9
$SNAPANG
 50
0.0
  9
$SNAPSTYLE
 70
     0
  9
$SNAPISOPAIR
 70
     0
  9
$GRIDMODE
 70
     0
  9
$GRIDUNIT
 10
0.0
 20
0.0
  9
$ORTHOMODE
 70
     0
  9
$REGENMODE
 70
     1
  9
$FILLMODE
 70
     1
  9
$QTEXTMODE
 70
     0
  9
$DRAGMODE
 70
     2
  9
$LTSCALE
 40
1.0
  9
$OSMODE
 70
     0
  9
$ATTMODE
 70
     1
  9
$TEXTSIZE
 40
0.2
  9
$TRACEWID
 40
0.05
  9
$TEXTSTYLE
  7
STANDARD
  9
$CLAYER
  8
0
  9
$CELTYPE
  6
BYLAYER
  9
$CECOLOR
 62
   256
  9
$DIMSCALE
 40
1.0
  9
$DIMASZ
 40
0.18
  9
$DIMEXO
 40
0.0625
  9
$DIMDLI
 40
0.38
  9
$DIMRND
 40
0.0
  9
$DIMDLE
 40
0.0
  9
$DIMEXE
 40
0.18
  9
$DIMTP
 40
0.0
  9
$DIMTM
 40
0.0
  9
$DIMTXT
 40
0.18
  9
$DIMCEN
 40
0.09
  9
$DIMTSZ
 40
0.0
  9
$DIMTOL
 70
     0
  9
$DIMLIM
 70
     0
  9
$DIMTIH
 70
     1
  9
$DIMTOH
 70
     1
  9
$DIMSE1
 70
     0
  9
$DIMSE2
 70
     0
  9
$DIMTAD
 70
     0
  9
$DIMZIN
 70
     0
  9
$DIMBLK
  1

  9
$DIMASO
 70
     1
  9
$DIMSHO
 70
     0
  9
$DIMPOST
  1

  9
$DIMAPOST
  1

  9
$DIMALT
 70
     0
  9
$DIMALTD
 70
     2
  9
$DIMALTF
 40
25.4
  9
$DIMLFAC
 40
1.0
  9
$LUNITS
 70
     2
  9
$LUPREC
 70
     4
  9
$AXISMODE
 70
     0
  9
$AXISUNIT
 10
0.0
 20
0.0
  9
$SKETCHINC
 40
0.1
  9
$FILLETRAD
 40
0.0
  9
$AUNITS
 70
     0
  9
$AUPREC
 70
     0
  9
$MENU
  1
acad
  9
$ELEVATION
 40
0.0
  9
$THICKNESS
 40
0.0
  9
$VIEWDIR
 10
0.0
 20
0.0
 30
1.0
  9
$LIMCHECK
 70
     0
  9
$BLIPMODE
 70
     1
  9
$CHAMFERA
 40
0.0
  9
$CHAMFERB
 40
0.0
  9
$FASTZOOM
 70
     1
  9
$SKPOLY
 70
     0
  9
$TDCREATE
 40
2447222.5666886573
  9
$TDUPDATE
 40
2447222.5666886573
  9
$TDINDWG
 40
0.0000000000
  9
$TDUSRTIMER
 40
0.0000000000
  9
$USRTIMER
 70
     1
  9
$ANGBASE
 50
0.0
  9
$ANGDIR
 70
     0
  9
$PDMODE
 70
     0
  9
$PDSIZE
 40
0.0
  9
$PLINEWID
 40
0.0
  9
$COORDS
 70
     0
  9
$SPLFRAME
 70
     0
  9
$SPLINESEGS
 70
     8
  9
$ATTDIA
 70
     0
  9
$ATTREQ
 70
     1
  9
$USERI1
 70
     0
  9
$USERI2
 70
     0
  9
$USERI3
 70
     0
  9
$USERI4
 70
     0
  9
$USERI5
 70
     0
  9
$USERR1
 40
0.0
  9
$USERR2
 40
0.0
  9
$USERR3
 40
0.0
  9
$USERR4
 40
0.0
  9
$USERR5
 40
0.0
  0
ENDSEC
  0
SECTION
  2
TABLES
  0
TABLE
  2
LTYPE
 70
     13
  0
LTYPE
  2
CONTINUOUS
 70
    64
  3
Solid line
 72
    65
 73
     0
 40
0.0
  0
LTYPE
  2
DASHED
 70
    64
  3
__ __ __ __ __ __ __ __ __ __ __ __ __ __ __
 72
    65
 73
     2
 40
0.75
 49
0.5
 49
-0.25
  0
LTYPE
  2
HIDDEN
 70
    64
  3
_ _ _ _ _ _ _ _ _ _ _ _ _ _ _ _ _ _ _ _ _ _ _
 72
    65
 73
     2
 40
0.375
 49
0.25
 49
-0.125
  0
LTYPE
  2
CENTER
 70
    64
  3
____ _ ____ _ ____ _ ____ _ ____ _ ____ _ ____
 72
    65
 73
     4
 40
2.0
 49
1.25
 49
-0.25
 49
0.25
 49
-0.25
  0
LTYPE
  2
PHANTOM
 70
    64
  3
_____ _ _ _____ _ _ _____ _ _ _____ _ _ ____
 72
    65
 73
     6
 40
2.5
 49
1.25
 49
-0.25
 49
0.25
 49
-0.25
 49
0.25
 49
-0.25
  0
LTYPE
  2
DOT
 70
    64
  3
...............................................
 72
    65
 73
     2
 40
0.25
 49
0.0
 49
-0.25
  0
LTYPE
  2
DASHDOT
 70
    64
  3
__ . __ . __ . __ . __ . __ . __ . __ . __ . __
 72
    65
 73
     4
 40
1.0
 49
0.5
 49
-0.25
 49
0.0
 49
-0.25
  0
LTYPE
  2
BORDER
 70
    64
  3
__ __ . __ __ . __ __ . __ __ . __ __ . __ __
 72
    65
 73
     6
 40
1.75
 49
0.5
 49
-0.25
 49
0.5
 49
-0.25
 49
0.0
 49
-0.25
  0
LTYPE
  2
DIVIDE
 70
    64
  3
__ . . __ . . __ . . __ . . __ . . __ . . __
 72
    65
 73
     6
 40
1.25
 49
0.5
 49
-0.25
 49
0.0
 49
-0.25
 49
0.0
 49
-0.25
  0
LTYPE
  2
DCTYPE1
 70
    64
  3
__ . . __ . . __ . . __ . . __ . . __ . . __
 72
    65
 73
     8
 40
2.5
 49
0.5
 49
-0.25
 49
0.125
 49
-0.25
 49
0.25
 49
-0.25
 49
0.125
 49
-0.25
  0
LTYPE
  2
DCTYPE2
 70
    64
  3
__ . . __ . . __ . . __ . . __ . . __ . . __
 72
    65
 73
     6
 40
2.05
 49
1.0
 49
-0.3
 49
0.15
 49
-0.15
 49
0.15
 49
-0.3
  0
LTYPE
  2
DCTYPE3
 70
    64
  3
__ . . __ . . __ . . __ . . __ . . __ . . __
 72
    65
 73
     6
 40
2.5
 49
0.8
 49
-0.2
 49
0.8
 49
-0.2
 49
0.3
 49
-0.2
  0
LTYPE
  2
DCTYPE4
 70
    64
  3
__ . . __ . . __ . . __ . . __ . . __ . . __
 72
    65
 73
     10
 40
3.97
 49
1.75
 49
-0.3
 49
0.3
 49
-0.3
 49
0.06
 49
-0.3
 49
0.06
 49
-0.3
 49
0.3
 49
-0.3
  0
ENDTAB
  0
TABLE
  2
LAYER
 70
    153
  0
LAYER
  2
LAYER1
 70
 64
 62
     7
  6
CONTINUOUS
  0
ENDTAB
  0
ENDSEC
  0
SECTION
  2
BLOCKS
  0
ENDSEC
  0
SECTION
  2
ENTITIES
  0
POLYLINE
  8
LAYER1
 62
     7
 66
     1
  6
CONTINUOUS
  0
VERTEX
  8
LAYER1
 62
     7
  6
CONTINUOUS
 10
12667.9106
 20
13274.8287
  0
VERTEX
  8
LAYER1
 62
     7
  6
CONTINUOUS
 10
12656.8870
 20
13385.1809
  0
VERTEX
  8
LAYER1
 62
     7
  6
CONTINUOUS
 10
12756.1990
 20
13716.2244
  0
VERTEX
  8
LAYER1
 62
     7
  6
CONTINUOUS
 10
13032.0581
 20
13992.0835
  0
VERTEX
  8
LAYER1
 62
     7
  6
CONTINUOUS
 10
13528.6228
 20
14234.8541
  0
VERTEX
  8
LAYER1
 62
     7
  6
CONTINUOUS
 10
14036.2277
 20
14532.7924
  0
VERTEX
  8
LAYER1
 62
     7
  6
CONTINUOUS
 10
14312.1023
 20
14764.5228
  0
VERTEX
  8
LAYER1
 62
     7
  6
CONTINUOUS
 10
14930.0440
 20
15205.9185
  0
VERTEX
  8
LAYER1
 62
     7
  6
CONTINUOUS
 10
15239.0225
 20
15415.5684
  0
VERTEX
  8
LAYER1
 62
     7
  6
CONTINUOUS
 10
15724.5470
 20
15658.3390
  0
VERTEX
  8
LAYER1
 62
     7
  6
CONTINUOUS
 10
16342.4899
 20
15570.0661
  0
VERTEX
  8
LAYER1
 62
     7
  6
CONTINUOUS
 10
16861.1338
 20
15570.0661
  0
VERTEX
  8
LAYER1
 62
     7
  6
CONTINUOUS
 10
17346.6583
 20
15559.0258
  0
VERTEX
  8
LAYER1
 62
     7
  6
CONTINUOUS
 10
17754.9500
 20
15448.6724
  0
VERTEX
  8
LAYER1
 62
     7
  6
CONTINUOUS
 10
18141.1625
 20
15437.6489
  0
VERTEX
  8
LAYER1
 62
     7
  6
CONTINUOUS
 10
18825.3122
 20
15437.6489
  0
VERTEX
  8
LAYER1
 62
     7
  6
CONTINUOUS
 10
19233.6039
 20
15393.5047
  0
VERTEX
  8
LAYER1
 62
     7
  6
CONTINUOUS
 10
19630.8567
 20
15294.1915
  0
VERTEX
  8
LAYER1
 62
     7
  6
CONTINUOUS
 10
20017.0680
 20
15084.5261
  0
VERTEX
  8
LAYER1
 62
     7
  6
CONTINUOUS
 10
20149.4839
 20
14753.4826
  0
VERTEX
  8
LAYER1
 62
     7
  6
CONTINUOUS
 10
20370.1907
 20
14323.1270
  0
VERTEX
  8
LAYER1
 62
     7
  6
CONTINUOUS
 10
20546.7367
 20
14080.3719
  0
VERTEX
  8
LAYER1
 62
     7
  6
CONTINUOUS
 10
20690.1941
 20
13815.5376
  0
VERTEX
  8
LAYER1
 62
     7
  6
CONTINUOUS
 10
20701.2331
 20
13683.1204
  0
VERTEX
  8
LAYER1
 62
     7
  6
CONTINUOUS
 10
20623.9861
 20
13429.3096
  0
VERTEX
  8
LAYER1
 62
     7
  6
CONTINUOUS
 10
20447.4235
 20
13087.2425
  0
VERTEX
  8
LAYER1
 62
     7
  6
CONTINUOUS
 10
20414.3207
 20
12756.1990
  0
VERTEX
  8
LAYER1
 62
     7
  6
CONTINUOUS
 10
20546.7367
 20
12513.4296
  0
VERTEX
  8
LAYER1
 62
     7
  6
CONTINUOUS
 10
20756.4020
 20
12270.6590
  0
VERTEX
  8
LAYER1
 62
     7
  6
CONTINUOUS
 10
20657.0889
 20
11641.6772
  0
VERTEX
  8
LAYER1
 62
     7
  6
CONTINUOUS
 10
20579.8418
 20
11299.6101
  0
VERTEX
  8
LAYER1
 62
     7
  6
CONTINUOUS
 10
20513.6315
 20
11067.8797
  0
VERTEX
  8
LAYER1
 62
     7
  6
CONTINUOUS
 10
20303.9828
 20
10792.0051
  0
VERTEX
  8
LAYER1
 62
     7
  6
CONTINUOUS
 10
19862.5858
 20
10405.7938
  0
VERTEX
  8
LAYER1
 62
     7
  6
CONTINUOUS
 10
19520.5032
 20
10140.9595
  0
VERTEX
  8
LAYER1
 62
     7
  6
CONTINUOUS
 10
19001.8748
 20
9975.4377
  0
VERTEX
  8
LAYER1
 62
     7
  6
CONTINUOUS
 10
18483.2451
 20
10052.6699
  0
VERTEX
  8
LAYER1
 62
     7
  6
CONTINUOUS
 10
17942.5362
 20
10074.7503
  0
VERTEX
  8
LAYER1
 62
     7
  6
CONTINUOUS
 10
17523.2197
 20
10174.0635
  0
VERTEX
  8
LAYER1
 62
     7
  6
CONTINUOUS
 10
17103.8889
 20
10372.6887
  0
VERTEX
  8
LAYER1
 62
     7
  6
CONTINUOUS
 10
16563.1955
 20
10438.8978
  0
VERTEX
  8
LAYER1
 62
     7
  6
CONTINUOUS
 10
16022.4865
 20
10372.6887
  0
VERTEX
  8
LAYER1
 62
     7
  6
CONTINUOUS
 10
15790.7562
 20
10383.7134
  0
VERTEX
  8
LAYER1
 62
     7
  6
CONTINUOUS
 10
15470.7529
 20
10604.4190
  0
VERTEX
  8
LAYER1
 62
     7
  6
CONTINUOUS
 10
15216.9433
 20
10780.9649
  0
VERTEX
  8
LAYER1
 62
     7
  6
CONTINUOUS
 10
14687.2734
 20
10913.3821
  0
VERTEX
  8
LAYER1
 62
     7
  6
CONTINUOUS
 10
13947.9548
 20
11089.9435
  0
VERTEX
  8
LAYER1
 62
     7
  6
CONTINUOUS
 10
13440.3498
 20
11299.6101
  0
VERTEX
  8
LAYER1
 62
     7
  6
CONTINUOUS
 10
13032.0581
 20
11663.7576
  0
VERTEX
  8
LAYER1
 62
     7
  6
CONTINUOUS
 10
12921.7214
 20
11983.7609
  0
VERTEX
  8
LAYER1
 62
     7
  6
CONTINUOUS
 10
12800.3277
 20
12392.0527
  0
VERTEX
  8
LAYER1
 62
     7
  6
CONTINUOUS
 10
12723.0950
 20
12701.0157
  0
VERTEX
  8
LAYER1
 62
     7
  6
CONTINUOUS
 10
12634.8066
 20
13009.9943
  0
VERTEX
  8
LAYER1
 62
     7
  6
CONTINUOUS
 10
12656.8870
 20
13385.1809
  0
SEQEND
  8
LAYER1
  0
POLYLINE
  8
LAYER1
 62
     7
 66
     1
  6
CONTINUOUS
  0
VERTEX
  8
LAYER1
 62
     7
  6
CONTINUOUS
 10
20701.2331
 20
13683.1204
  0
VERTEX
  8
LAYER1
 62
     7
  6
CONTINUOUS
 10
20701.2331
 20
13727.2492
  0
VERTEX
  8
LAYER1
 62
     7
  6
CONTINUOUS
 10
20899.8594
 20
13815.5376
  0
VERTEX
  8
LAYER1
 62
     7
  6
CONTINUOUS
 10
21175.7185
 20
13837.6014
  0
VERTEX
  8
LAYER1
 62
     7
  6
CONTINUOUS
 10
21319.1759
 20
13804.4974
  0
VERTEX
  8
LAYER1
 62
     7
  6
CONTINUOUS
 10
21694.3625
 20
13749.3284
  0
VERTEX
  8
LAYER1
 62
     7
  6
CONTINUOUS
 10
22003.3268
 20
13738.2894
  0
VERTEX
  8
LAYER1
 62
     7
  6
CONTINUOUS
 10
22312.3053
 20
13694.1452
  0
VERTEX
  8
LAYER1
 62
     7
  6
CONTINUOUS
 10
22488.8679
 20
13495.5188
  0
VERTEX
  8
LAYER1
 62
     7
  6
CONTINUOUS
 10
22577.1397
 20
13142.4115
  0
VERTEX
  8
LAYER1
 62
     7
  6
CONTINUOUS
 10
22532.9955
 20
12712.0548
  0
VERTEX
  8
LAYER1
 62
     7
  6
CONTINUOUS
 10
22411.6185
 20
12447.2204
  0
VERTEX
  8
LAYER1
 62
     7
  6
CONTINUOUS
 10
22212.9922
 20
12215.4901
  0
VERTEX
  8
LAYER1
 62
     7
  6
CONTINUOUS
 10
21859.8861
 20
11983.7609
  0
VERTEX
  8
LAYER1
 62
     7
  6
CONTINUOUS
 10
21628.1545
 20
11972.7207
  0
VERTEX
  8
LAYER1
 62
     7
  6
CONTINUOUS
 10
21297.1122
 20
12072.0339
  0
VERTEX
  8
LAYER1
 62
     7
  6
CONTINUOUS
 10
21054.3416
 20
12160.3223
  0
VERTEX
  8
LAYER1
 62
     7
  6
CONTINUOUS
 10
20756.4020
 20
12270.6590
  0
SEQEND
  8
LAYER1
  0
POLYLINE
  8
LAYER1
 62
     7
 66
     1
  6
CONTINUOUS
  0
VERTEX
  8
LAYER1
 62
     7
  6
CONTINUOUS
 10
12083.2611
 20
3414.2411
  0
VERTEX
  8
LAYER1
 62
     7
  6
CONTINUOUS
 10
12326.0305
 20
3359.0724
  0
VERTEX
  8
LAYER1
 62
     7
  6
CONTINUOUS
 10
12712.2430
 20
3336.9926
  0
VERTEX
  8
LAYER1
 62
     7
  6
CONTINUOUS
 10
13109.4945
 20
3348.0325
  0
VERTEX
  8
LAYER1
 62
     7
  6
CONTINUOUS
 10
13628.1385
 20
3359.0724
  0
VERTEX
  8
LAYER1
 62
     7
  6
CONTINUOUS
 10
14201.9371
 20
3381.1368
  0
VERTEX
  8
LAYER1
 62
     7
  6
CONTINUOUS
 10
14808.8540
 20
3336.9926
  0
VERTEX
  8
LAYER1
 62
     7
  6
CONTINUOUS
 10
15481.9801
 20
3204.5754
  0
VERTEX
  8
LAYER1
 62
     7
  6
CONTINUOUS
 10
16287.5079
 20
3182.5110
  0
VERTEX
  8
LAYER1
 62
     7
  6
CONTINUOUS
 10
17070.9874
 20
3171.4711
  0
VERTEX
  8
LAYER1
 62
     7
  6
CONTINUOUS
 10
17865.4905
 20
3105.2625
  0
VERTEX
  8
LAYER1
 62
     7
  6
CONTINUOUS
 10
18549.6413
 20
3016.9896
  0
VERTEX
  8
LAYER1
 62
     7
  6
CONTINUOUS
 10
19465.5225
 20
3016.9896
  0
VERTEX
  8
LAYER1
 62
     7
  6
CONTINUOUS
 10
20392.4427
 20
3094.2381
  0
VERTEX
  8
LAYER1
 62
     7
  6
CONTINUOUS
 10
21175.9211
 20
3116.3024
  0
VERTEX
  8
LAYER1
 62
     7
  6
CONTINUOUS
 10
21694.5507
 20
3127.3424
  0
VERTEX
  8
LAYER1
 62
     7
  6
CONTINUOUS
 10
22124.9229
 20
3160.4467
  0
SEQEND
  8
LAYER1
  0
POLYLINE
  8
LAYER1
 62
     7
 66
     1
  6
CONTINUOUS
  0
VERTEX
  8
LAYER1
 62
     7
  6
CONTINUOUS
 10
21694.5507
 20
3127.3424
  0
VERTEX
  8
LAYER1
 62
     7
  6
CONTINUOUS
 10
21771.8001
 20
2983.8853
  0
VERTEX
  8
LAYER1
 62
     7
  6
CONTINUOUS
 10
21319.3642
 20
2564.5691
  0
VERTEX
  8
LAYER1
 62
     7
  6
CONTINUOUS
 10
20778.6850
 20
2211.4460
  0
VERTEX
  8
LAYER1
 62
     7
  6
CONTINUOUS
 10
20458.6507
 20
2156.2773
  0
VERTEX
  8
LAYER1
 62
     7
  6
CONTINUOUS
 10
20028.2952
 20
2299.7346
  0
VERTEX
  8
LAYER1
 62
     7
  6
CONTINUOUS
 10
19851.7493
 20
2421.1118
  0
VERTEX
  8
LAYER1
 62
     7
  6
CONTINUOUS
 10
19752.4361
 20
2476.2805
  0
VERTEX
  8
LAYER1
 62
     7
  6
CONTINUOUS
 10
19476.5616
 20
1968.6915
  0
VERTEX
  8
LAYER1
 62
     7
  6
CONTINUOUS
 10
19333.1042
 20
1450.0469
  0
VERTEX
  8
LAYER1
 62
     7
  6
CONTINUOUS
 10
19101.3750
 20
986.5865
  0
VERTEX
  8
LAYER1
 62
     7
  6
CONTINUOUS
 10
18770.3315
 20
743.8320
  0
VERTEX
  8
LAYER1
 62
     7
  6
CONTINUOUS
 10
18317.9110
 20
567.2705
  0
VERTEX
  8
LAYER1
 62
     7
  6
CONTINUOUS
 10
17688.9291
 20
501.0619
  0
VERTEX
  8
LAYER1
 62
     7
  6
CONTINUOUS
 10
17137.1954
 20
611.4147
  0
VERTEX
  8
LAYER1
 62
     7
  6
CONTINUOUS
 10
16695.7997
 20
754.8563
  0
VERTEX
  8
LAYER1
 62
     7
  6
CONTINUOUS
 10
16265.4442
 20
931.4179
  0
VERTEX
  8
LAYER1
 62
     7
  6
CONTINUOUS
 10
15724.7352
 20
1130.0438
  0
VERTEX
  8
LAYER1
 62
     7
  6
CONTINUOUS
 10
15294.3785
 20
1196.2524
  0
VERTEX
  8
LAYER1
 62
     7
  6
CONTINUOUS
 10
15029.5442
 20
1251.4210
  0
VERTEX
  8
LAYER1
 62
     7
  6
CONTINUOUS
 10
14389.5376
 20
1251.4210
  0
VERTEX
  8
LAYER1
 62
     7
  6
CONTINUOUS
 10
13859.8689
 20
1251.4210
  0
VERTEX
  8
LAYER1
 62
     7
  6
CONTINUOUS
 10
13263.9910
 20
1251.4210
  0
VERTEX
  8
LAYER1
 62
     7
  6
CONTINUOUS
 10
13054.3256
 20
1549.3598
  0
VERTEX
  8
LAYER1
 62
     7
  6
CONTINUOUS
 10
12977.0774
 20
1968.6915
  0
VERTEX
  8
LAYER1
 62
     7
  6
CONTINUOUS
 10
12745.3470
 20
2476.2805
  0
VERTEX
  8
LAYER1
 62
     7
  6
CONTINUOUS
 10
12657.0741
 20
2685.9463
  0
VERTEX
  8
LAYER1
 62
     7
  6
CONTINUOUS
 10
12513.6167
 20
2917.6764
  0
VERTEX
  8
LAYER1
 62
     7
  6
CONTINUOUS
 10
12314.9903
 20
3215.6153
  0
VERTEX
  8
LAYER1
 62
     7
  6
CONTINUOUS
 10
12326.0305
 20
3359.0724
  0
SEQEND
  8
LAYER1
  0
POLYLINE
  8
LAYER1
 62
     3
 66
     1
  6
CONTINUOUS
  0
VERTEX
  8
LAYER1
 62
     3
  6
CONTINUOUS
 10
13307.9327
 20
13352.0769
  0
VERTEX
  8
LAYER1
 62
     3
  6
CONTINUOUS
 10
11707.8863
 20
13352.0769
  0
SEQEND
  8
LAYER1
  0
POLYLINE
  8
LAYER1
 62
     3
 66
     1
  6
CONTINUOUS
  0
VERTEX
  8
LAYER1
 62
     3
  6
CONTINUOUS
 10
23283.3710
 20
13352.0769
  0
VERTEX
  8
LAYER1
 62
     3
  6
CONTINUOUS
 10
22257.1364
 20
13352.0769
  0
SEQEND
  8
LAYER1
  0
POLYLINE
  8
LAYER1
 62
     3
 66
     1
  6
CONTINUOUS
  0
VERTEX
  8
LAYER1
 62
     3
  6
CONTINUOUS
 10
20955.0284
 20
13352.0769
  0
VERTEX
  8
LAYER1
 62
     3
  6
CONTINUOUS
 10
19641.8957
 20
13352.0769
  0
SEQEND
  8
LAYER1
  0
POLYLINE
  8
LAYER1
 62
     7
 66
     1
  6
CONTINUOUS
  0
VERTEX
  8
LAYER1
 62
     7
  6
CONTINUOUS
 10
28861.4783
 20
11712.3670
  0
VERTEX
  8
LAYER1
 62
     7
  6
CONTINUOUS
 10
28861.4783
 20
6250.1564
  0
SEQEND
  8
LAYER1
  0
POLYLINE
  8
LAYER1
 62
     7
 66
     1
  6
CONTINUOUS
  0
VERTEX
  8
LAYER1
 62
     7
  6
CONTINUOUS
 10
2261.4460
 20
8077.7169
  0
VERTEX
  8
LAYER1
 62
     7
  6
CONTINUOUS
 10
7734.6974
 20
8077.7169
  0
SEQEND
  8
LAYER1
  0
POLYLINE
  8
LAYER1
 62
     7
 66
     1
  6
CONTINUOUS
  0
VERTEX
  8
LAYER1
 62
     7
  6
CONTINUOUS
 10
7734.6974
 20
8077.7169
  0
VERTEX
  8
LAYER1
 62
     7
  6
CONTINUOUS
 10
7734.6974
 20
8667.5827
  0
SEQEND
  8
LAYER1
  0
POLYLINE
  8
LAYER1
 62
     7
 66
     1
  6
CONTINUOUS
  0
VERTEX
  8
LAYER1
 62
     7
  6
CONTINUOUS
 10
2261.4460
 20
8661.9148
  0
VERTEX
  8
LAYER1
 62
     7
  6
CONTINUOUS
 10
2261.4460
 20
8077.7169
  0
SEQEND
  8
LAYER1
  0
POLYLINE
  8
LAYER1
 62
     7
 66
     1
  6
CONTINUOUS
  0
VERTEX
  8
LAYER1
 62
     7
  6
CONTINUOUS
 10
7734.6974
 20
8077.7169
  0
VERTEX
  8
LAYER1
 62
     7
  6
CONTINUOUS
 10
2261.4460
 20
8077.7169
  0
SEQEND
  8
LAYER1
  0
POLYLINE
  8
LAYER1
 62
     7
 66
     1
  6
CONTINUOUS
  0
VERTEX
  8
LAYER1
 62
     7
  6
CONTINUOUS
 10
28861.4783
 20
6250.1564
  0
VERTEX
  8
LAYER1
 62
     7
  6
CONTINUOUS
 10
28861.4783
 20
11712.3670
  0
SEQEND
  8
LAYER1
  0
POLYLINE
  8
LAYER1
 62
     7
 66
     1
  6
CONTINUOUS
  0
VERTEX
  8
LAYER1
 62
     7
  6
CONTINUOUS
 10
28861.4783
 20
11712.3670
  0
VERTEX
  8
LAYER1
 62
     7
  6
CONTINUOUS
 10
28487.3830
 20
10632.7457
  0
SEQEND
  8
LAYER1
  0
ENDSEC
  0
EOF
