  0
SECTION
  2
HEADER
  9
$ACADVER
  1
AC1004
  9
$EXTMIN
 10
2508.7133
 20
9467.8328
  9
$EXTMAX
 10
39319.3317
 20
41950.4006
  9
$LIMMIN
 10
2508.7133
 20
9467.8328
  9
$LIMMAX
 10
39319.3317
 20
41950.4006
  9
$INSBASE
 10
0.0
 20
0.0
  9
$VIEWCTR
 10
7.21903
 20
4.5
  9
$VIEWSIZE
 40
9.0
  9
$SNAPMODE
 70
     0
  9
$SNAPUNIT
 10
1.0
 20
1.0
  9
$SNAPBASE
 10
0.0
 20
0.0
  9
$SNAPANG
 50
0.0
  9
$SNAPSTYLE
 70
     0
  9
$SNAPISOPAIR
 70
     0
  9
$GRIDMODE
 70
     0
  9
$GRIDUNIT
 10
0.0
 20
0.0
  9
$ORTHOMODE
 70
     0
  9
$REGENMODE
 70
     1
  9
$FILLMODE
 70
     1
  9
$QTEXTMODE
 70
     0
  9
$DRAGMODE
 70
     2
  9
$LTSCALE
 40
1.0
  9
$OSMODE
 70
     0
  9
$ATTMODE
 70
     1
  9
$TEXTSIZE
 40
0.2
  9
$TRACEWID
 40
0.05
  9
$TEXTSTYLE
  7
STANDARD
  9
$CLAYER
  8
0
  9
$CELTYPE
  6
BYLAYER
  9
$CECOLOR
 62
   256
  9
$DIMSCALE
 40
1.0
  9
$DIMASZ
 40
0.18
  9
$DIMEXO
 40
0.0625
  9
$DIMDLI
 40
0.38
  9
$DIMRND
 40
0.0
  9
$DIMDLE
 40
0.0
  9
$DIMEXE
 40
0.18
  9
$DIMTP
 40
0.0
  9
$DIMTM
 40
0.0
  9
$DIMTXT
 40
0.18
  9
$DIMCEN
 40
0.09
  9
$DIMTSZ
 40
0.0
  9
$DIMTOL
 70
     0
  9
$DIMLIM
 70
     0
  9
$DIMTIH
 70
     1
  9
$DIMTOH
 70
     1
  9
$DIMSE1
 70
     0
  9
$DIMSE2
 70
     0
  9
$DIMTAD
 70
     0
  9
$DIMZIN
 70
     0
  9
$DIMBLK
  1

  9
$DIMASO
 70
     1
  9
$DIMSHO
 70
     0
  9
$DIMPOST
  1

  9
$DIMAPOST
  1

  9
$DIMALT
 70
     0
  9
$DIMALTD
 70
     2
  9
$DIMALTF
 40
25.4
  9
$DIMLFAC
 40
1.0
  9
$LUNITS
 70
     2
  9
$LUPREC
 70
     4
  9
$AXISMODE
 70
     0
  9
$AXISUNIT
 10
0.0
 20
0.0
  9
$SKETCHINC
 40
0.1
  9
$FILLETRAD
 40
0.0
  9
$AUNITS
 70
     0
  9
$AUPREC
 70
     0
  9
$MENU
  1
acad
  9
$ELEVATION
 40
0.0
  9
$THICKNESS
 40
0.0
  9
$VIEWDIR
 10
0.0
 20
0.0
 30
1.0
  9
$LIMCHECK
 70
     0
  9
$BLIPMODE
 70
     1
  9
$CHAMFERA
 40
0.0
  9
$CHAMFERB
 40
0.0
  9
$FASTZOOM
 70
     1
  9
$SKPOLY
 70
     0
  9
$TDCREATE
 40
2447222.5666886573
  9
$TDUPDATE
 40
2447222.5666886573
  9
$TDINDWG
 40
0.0000000000
  9
$TDUSRTIMER
 40
0.0000000000
  9
$USRTIMER
 70
     1
  9
$ANGBASE
 50
0.0
  9
$ANGDIR
 70
     0
  9
$PDMODE
 70
     0
  9
$PDSIZE
 40
0.0
  9
$PLINEWID
 40
0.0
  9
$COORDS
 70
     0
  9
$SPLFRAME
 70
     0
  9
$SPLINESEGS
 70
     8
  9
$ATTDIA
 70
     0
  9
$ATTREQ
 70
     1
  9
$USERI1
 70
     0
  9
$USERI2
 70
     0
  9
$USERI3
 70
     0
  9
$USERI4
 70
     0
  9
$USERI5
 70
     0
  9
$USERR1
 40
0.0
  9
$USERR2
 40
0.0
  9
$USERR3
 40
0.0
  9
$USERR4
 40
0.0
  9
$USERR5
 40
0.0
  0
ENDSEC
  0
SECTION
  2
TABLES
  0
TABLE
  2
LTYPE
 70
     13
  0
LTYPE
  2
CONTINUOUS
 70
    64
  3
Solid line
 72
    65
 73
     0
 40
0.0
  0
LTYPE
  2
DASHED
 70
    64
  3
__ __ __ __ __ __ __ __ __ __ __ __ __ __ __
 72
    65
 73
     2
 40
0.75
 49
0.5
 49
-0.25
  0
LTYPE
  2
HIDDEN
 70
    64
  3
_ _ _ _ _ _ _ _ _ _ _ _ _ _ _ _ _ _ _ _ _ _ _
 72
    65
 73
     2
 40
0.375
 49
0.25
 49
-0.125
  0
LTYPE
  2
CENTER
 70
    64
  3
____ _ ____ _ ____ _ ____ _ ____ _ ____ _ ____
 72
    65
 73
     4
 40
2.0
 49
1.25
 49
-0.25
 49
0.25
 49
-0.25
  0
LTYPE
  2
PHANTOM
 70
    64
  3
_____ _ _ _____ _ _ _____ _ _ _____ _ _ ____
 72
    65
 73
     6
 40
2.5
 49
1.25
 49
-0.25
 49
0.25
 49
-0.25
 49
0.25
 49
-0.25
  0
LTYPE
  2
DOT
 70
    64
  3
...............................................
 72
    65
 73
     2
 40
0.25
 49
0.0
 49
-0.25
  0
LTYPE
  2
DASHDOT
 70
    64
  3
__ . __ . __ . __ . __ . __ . __ . __ . __ . __
 72
    65
 73
     4
 40
1.0
 49
0.5
 49
-0.25
 49
0.0
 49
-0.25
  0
LTYPE
  2
BORDER
 70
    64
  3
__ __ . __ __ . __ __ . __ __ . __ __ . __ __
 72
    65
 73
     6
 40
1.75
 49
0.5
 49
-0.25
 49
0.5
 49
-0.25
 49
0.0
 49
-0.25
  0
LTYPE
  2
DIVIDE
 70
    64
  3
__ . . __ . . __ . . __ . . __ . . __ . . __
 72
    65
 73
     6
 40
1.25
 49
0.5
 49
-0.25
 49
0.0
 49
-0.25
 49
0.0
 49
-0.25
  0
LTYPE
  2
DCTYPE1
 70
    64
  3
__ . . __ . . __ . . __ . . __ . . __ . . __
 72
    65
 73
     8
 40
2.5
 49
0.5
 49
-0.25
 49
0.125
 49
-0.25
 49
0.25
 49
-0.25
 49
0.125
 49
-0.25
  0
LTYPE
  2
DCTYPE2
 70
    64
  3
__ . . __ . . __ . . __ . . __ . . __ . . __
 72
    65
 73
     6
 40
2.05
 49
1.0
 49
-0.3
 49
0.15
 49
-0.15
 49
0.15
 49
-0.3
  0
LTYPE
  2
DCTYPE3
 70
    64
  3
__ . . __ . . __ . . __ . . __ . . __ . . __
 72
    65
 73
     6
 40
2.5
 49
0.8
 49
-0.2
 49
0.8
 49
-0.2
 49
0.3
 49
-0.2
  0
LTYPE
  2
DCTYPE4
 70
    64
  3
__ . . __ . . __ . . __ . . __ . . __ . . __
 72
    65
 73
     10
 40
3.97
 49
1.75
 49
-0.3
 49
0.3
 49
-0.3
 49
0.06
 49
-0.3
 49
0.06
 49
-0.3
 49
0.3
 49
-0.3
  0
ENDTAB
  0
TABLE
  2
LAYER
 70
    153
  0
LAYER
  2
LAYER1
 70
 64
 62
     7
  6
CONTINUOUS
  0
ENDTAB
  0
ENDSEC
  0
SECTION
  2
BLOCKS
  0
ENDSEC
  0
SECTION
  2
ENTITIES
  0
POLYLINE
  8
LAYER1
 62
     7
 66
     1
  6
CONTINUOUS
  0
VERTEX
  8
LAYER1
 62
     7
  6
CONTINUOUS
 10
12997.6889
 20
34787.9740
  0
VERTEX
  8
LAYER1
 62
     7
  6
CONTINUOUS
 10
13141.1463
 20
35085.9135
  0
VERTEX
  8
LAYER1
 62
     7
  6
CONTINUOUS
 10
13295.6284
 20
35450.0610
  0
VERTEX
  8
LAYER1
 62
     7
  6
CONTINUOUS
 10
13461.1496
 20
36045.9377
  0
VERTEX
  8
LAYER1
 62
     7
  6
CONTINUOUS
 10
13681.8540
 20
36553.5284
  0
VERTEX
  8
LAYER1
 62
     7
  6
CONTINUOUS
 10
13946.6884
 20
36950.7787
  0
VERTEX
  8
LAYER1
 62
     7
  6
CONTINUOUS
 10
14487.3818
 20
37668.0490
  0
VERTEX
  8
LAYER1
 62
     7
  6
CONTINUOUS
 10
14983.9477
 20
38186.6787
  0
VERTEX
  8
LAYER1
 62
     7
  6
CONTINUOUS
 10
15403.2785
 20
38583.9314
  0
VERTEX
  8
LAYER1
 62
     7
  6
CONTINUOUS
 10
15921.9082
 20
39047.3897
  0
VERTEX
  8
LAYER1
 62
     7
  6
CONTINUOUS
 10
16363.3051
 20
39400.4982
  0
VERTEX
  8
LAYER1
 62
     7
  6
CONTINUOUS
 10
16981.2456
 20
39786.7262
  0
VERTEX
  8
LAYER1
 62
     7
  6
CONTINUOUS
 10
17422.6425
 20
40062.5805
  0
VERTEX
  8
LAYER1
 62
     7
  6
CONTINUOUS
 10
17963.3359
 20
40448.8109
  0
VERTEX
  8
LAYER1
 62
     7
  6
CONTINUOUS
 10
18493.0046
 20
40691.5505
  0
VERTEX
  8
LAYER1
 62
     7
  6
CONTINUOUS
 10
19110.9618
 20
40846.0589
  0
VERTEX
  8
LAYER1
 62
     7
  6
CONTINUOUS
 10
19640.6305
 20
40934.3330
  0
VERTEX
  8
LAYER1
 62
     7
  6
CONTINUOUS
 10
20302.7175
 20
40989.5020
  0
VERTEX
  8
LAYER1
 62
     7
  6
CONTINUOUS
 10
21185.4947
 20
40978.4605
  0
VERTEX
  8
LAYER1
 62
     7
  6
CONTINUOUS
 10
21648.9531
 20
40735.7066
  0
VERTEX
  8
LAYER1
 62
     7
  6
CONTINUOUS
 10
22079.3110
 20
40548.1217
  0
VERTEX
  8
LAYER1
 62
     7
  6
CONTINUOUS
 10
22675.1877
 20
40261.2069
  0
VERTEX
  8
LAYER1
 62
     7
  6
CONTINUOUS
 10
23017.2714
 20
40007.4116
  0
VERTEX
  8
LAYER1
 62
     7
  6
CONTINUOUS
 10
23260.0253
 20
39797.7510
  0
VERTEX
  8
LAYER1
 62
     7
  6
CONTINUOUS
 10
23822.7992
 20
39400.4982
  0
VERTEX
  8
LAYER1
 62
     7
  6
CONTINUOUS
 10
24418.6759
 20
38848.7658
  0
VERTEX
  8
LAYER1
 62
     7
  6
CONTINUOUS
 10
24661.4465
 20
38495.6573
  0
VERTEX
  8
LAYER1
 62
     7
  6
CONTINUOUS
 10
24970.4251
 20
38120.4707
  0
VERTEX
  8
LAYER1
 62
     7
  6
CONTINUOUS
 10
25411.8053
 20
37480.4331
  0
VERTEX
  8
LAYER1
 62
     7
  6
CONTINUOUS
 10
25665.6149
 20
36840.4408
  0
VERTEX
  8
LAYER1
 62
     7
  6
CONTINUOUS
 10
25875.2660
 20
36288.6940
  0
VERTEX
  8
LAYER1
 62
     7
  6
CONTINUOUS
 10
25886.3051
 20
35913.5218
  0
VERTEX
  8
LAYER1
 62
     7
  6
CONTINUOUS
 10
25930.4493
 20
35251.4347
  0
VERTEX
  8
LAYER1
 62
     7
  6
CONTINUOUS
 10
25919.4102
 20
34611.4138
  0
VERTEX
  8
LAYER1
 62
     7
  6
CONTINUOUS
 10
25919.4102
 20
34048.6399
  0
VERTEX
  8
LAYER1
 62
     7
  6
CONTINUOUS
 10
25919.4102
 20
33596.2206
  0
VERTEX
  8
LAYER1
 62
     7
  6
CONTINUOUS
 10
25886.3051
 20
33044.4714
  0
VERTEX
  8
LAYER1
 62
     7
  6
CONTINUOUS
 10
25698.7201
 20
32294.1102
  0
VERTEX
  8
LAYER1
 62
     7
  6
CONTINUOUS
 10
25400.7806
 20
31345.1274
  0
VERTEX
  8
LAYER1
 62
     7
  6
CONTINUOUS
 10
25025.5940
 20
30583.7272
  0
VERTEX
  8
LAYER1
 62
     7
  6
CONTINUOUS
 10
24716.6154
 20
29954.7453
  0
VERTEX
  8
LAYER1
 62
     7
  6
CONTINUOUS
 10
24529.0281
 20
29513.3484
  0
VERTEX
  8
LAYER1
 62
     7
  6
CONTINUOUS
 10
24275.2352
 20
28972.6406
  0
VERTEX
  8
LAYER1
 62
     7
  6
CONTINUOUS
 10
23988.3204
 20
28520.2189
  0
VERTEX
  8
LAYER1
 62
     7
  6
CONTINUOUS
 10
23635.2119
 20
28078.8244
  0
VERTEX
  8
LAYER1
 62
     7
  6
CONTINUOUS
 10
23182.7926
 20
27416.7373
  0
VERTEX
  8
LAYER1
 62
     7
  6
CONTINUOUS
 10
22862.7726
 20
27063.6312
  0
VERTEX
  8
LAYER1
 62
     7
  6
CONTINUOUS
 10
22586.9159
 20
26853.9634
  0
VERTEX
  8
LAYER1
 62
     7
  6
CONTINUOUS
 10
22211.7270
 20
26743.6279
  0
VERTEX
  8
LAYER1
 62
     7
  6
CONTINUOUS
 10
21604.8088
 20
26688.4423
  0
VERTEX
  8
LAYER1
 62
     7
  6
CONTINUOUS
 10
20677.8898
 20
26743.6279
  0
VERTEX
  8
LAYER1
 62
     7
  6
CONTINUOUS
 10
20037.8832
 20
26809.8359
  0
VERTEX
  8
LAYER1
 62
     7
  6
CONTINUOUS
 10
19044.7538
 20
26887.0686
  0
VERTEX
  8
LAYER1
 62
     7
  6
CONTINUOUS
 10
18184.0404
 20
26920.1738
  0
VERTEX
  8
LAYER1
 62
     7
  6
CONTINUOUS
 10
17555.0585
 20
26986.3818
  0
VERTEX
  8
LAYER1
 62
     7
  6
CONTINUOUS
 10
17014.3507
 20
27063.6312
  0
VERTEX
  8
LAYER1
 62
     7
  6
CONTINUOUS
 10
16639.1618
 20
27185.0082
  0
VERTEX
  8
LAYER1
 62
     7
  6
CONTINUOUS
 10
16175.7035
 20
27471.9230
  0
VERTEX
  8
LAYER1
 62
     7
  6
CONTINUOUS
 10
15635.0100
 20
27791.9263
  0
VERTEX
  8
LAYER1
 62
     7
  6
CONTINUOUS
 10
15138.4441
 20
28288.4898
  0
VERTEX
  8
LAYER1
 62
     7
  6
CONTINUOUS
 10
14619.8002
 20
28917.4717
  0
VERTEX
  8
LAYER1
 62
     7
  6
CONTINUOUS
 10
14299.7969
 20
29425.0766
  0
VERTEX
  8
LAYER1
 62
     7
  6
CONTINUOUS
 10
13924.6103
 20
29844.3931
  0
VERTEX
  8
LAYER1
 62
     7
  6
CONTINUOUS
 10
13538.3966
 20
30462.3335
  0
VERTEX
  8
LAYER1
 62
     7
  6
CONTINUOUS
 10
13317.7065
 20
30992.0022
  0
VERTEX
  8
LAYER1
 62
     7
  6
CONTINUOUS
 10
13174.2491
 20
31510.6486
  0
VERTEX
  8
LAYER1
 62
     7
  6
CONTINUOUS
 10
13063.8969
 20
32128.5891
  0
VERTEX
  8
LAYER1
 62
     7
  6
CONTINUOUS
 10
12997.6889
 20
32757.5709
  0
VERTEX
  8
LAYER1
 62
     7
  6
CONTINUOUS
 10
12953.5590
 20
33419.6580
  0
VERTEX
  8
LAYER1
 62
     7
  6
CONTINUOUS
 10
12964.5837
 20
33827.9498
  0
VERTEX
  8
LAYER1
 62
     7
  6
CONTINUOUS
 10
12997.6889
 20
34081.7451
  0
VERTEX
  8
LAYER1
 62
     7
  6
CONTINUOUS
 10
12997.6889
 20
34787.9740
  0
SEQEND
  8
LAYER1
  0
POLYLINE
  8
LAYER1
 62
     7
 66
     1
  6
CONTINUOUS
  0
VERTEX
  8
LAYER1
 62
     7
  6
CONTINUOUS
 10
13659.7759
 20
34798.9987
  0
VERTEX
  8
LAYER1
 62
     7
  6
CONTINUOUS
 10
13703.9202
 20
35163.1462
  0
VERTEX
  8
LAYER1
 62
     7
  6
CONTINUOUS
 10
13770.1282
 20
35714.8954
  0
VERTEX
  8
LAYER1
 62
     7
  6
CONTINUOUS
 10
13913.5856
 20
36222.4836
  0
VERTEX
  8
LAYER1
 62
     7
  6
CONTINUOUS
 10
14366.0049
 20
36752.1523
  0
VERTEX
  8
LAYER1
 62
     7
  6
CONTINUOUS
 10
14763.2576
 20
37182.5103
  0
VERTEX
  8
LAYER1
 62
     7
  6
CONTINUOUS
 10
15314.9900
 20
37767.3622
  0
VERTEX
  8
LAYER1
 62
     7
  6
CONTINUOUS
 10
15833.6340
 20
38263.9281
  0
VERTEX
  8
LAYER1
 62
     7
  6
CONTINUOUS
 10
16241.9115
 20
38705.3084
  0
VERTEX
  8
LAYER1
 62
     7
  6
CONTINUOUS
 10
16639.1618
 20
39113.6001
  0
VERTEX
  8
LAYER1
 62
     7
  6
CONTINUOUS
 10
17389.5373
 20
39610.1636
  0
VERTEX
  8
LAYER1
 62
     7
  6
CONTINUOUS
 10
17852.9980
 20
39952.2474
  0
VERTEX
  8
LAYER1
 62
     7
  6
CONTINUOUS
 10
18470.9409
 20
40272.2340
  0
VERTEX
  8
LAYER1
 62
     7
  6
CONTINUOUS
 10
18901.2964
 20
40470.8747
  0
VERTEX
  8
LAYER1
 62
     7
  6
CONTINUOUS
 10
19530.2783
 20
40680.5377
  0
VERTEX
  8
LAYER1
 62
     7
  6
CONTINUOUS
 10
19960.6338
 20
40757.7704
  0
VERTEX
  8
LAYER1
 62
     7
  6
CONTINUOUS
 10
20192.3653
 20
40779.8532
  0
VERTEX
  8
LAYER1
 62
     7
  6
CONTINUOUS
 10
21185.4947
 20
40978.4605
  0
SEQEND
  8
LAYER1
  0
POLYLINE
  8
LAYER1
 62
     7
 66
     1
  6
CONTINUOUS
  0
VERTEX
  8
LAYER1
 62
     7
  6
CONTINUOUS
 10
13659.7759
 20
34798.9987
  0
VERTEX
  8
LAYER1
 62
     7
  6
CONTINUOUS
 10
13615.6460
 20
34776.9349
  0
VERTEX
  8
LAYER1
 62
     7
  6
CONTINUOUS
 10
13626.6708
 20
34269.3300
  0
VERTEX
  8
LAYER1
 62
     7
  6
CONTINUOUS
 10
13604.6070
 20
33530.0102
  0
VERTEX
  8
LAYER1
 62
     7
  6
CONTINUOUS
 10
13626.6708
 20
32978.2611
  0
VERTEX
  8
LAYER1
 62
     7
  6
CONTINUOUS
 10
13825.2971
 20
31941.0041
  0
VERTEX
  8
LAYER1
 62
     7
  6
CONTINUOUS
 10
14012.8987
 20
31323.0470
  0
VERTEX
  8
LAYER1
 62
     7
  6
CONTINUOUS
 10
14354.9658
 20
30594.7519
  0
VERTEX
  8
LAYER1
 62
     7
  6
CONTINUOUS
 10
14708.0886
 20
29844.3931
  0
VERTEX
  8
LAYER1
 62
     7
  6
CONTINUOUS
 10
15149.4689
 20
29105.0566
  0
VERTEX
  8
LAYER1
 62
     7
  6
CONTINUOUS
 10
15844.6587
 20
28387.8030
  0
VERTEX
  8
LAYER1
 62
     7
  6
CONTINUOUS
 10
16462.6159
 20
27847.0928
  0
VERTEX
  8
LAYER1
 62
     7
  6
CONTINUOUS
 10
17345.3931
 20
27427.7787
  0
VERTEX
  8
LAYER1
 62
     7
  6
CONTINUOUS
 10
18470.9409
 20
27262.2552
  0
VERTEX
  8
LAYER1
 62
     7
  6
CONTINUOUS
 10
19364.7571
 20
27218.1110
  0
VERTEX
  8
LAYER1
 62
     7
  6
CONTINUOUS
 10
20059.9470
 20
27196.0472
  0
VERTEX
  8
LAYER1
 62
     7
  6
CONTINUOUS
 10
20843.4110
 20
27151.9030
  0
VERTEX
  8
LAYER1
 62
     7
  6
CONTINUOUS
 10
21472.3929
 20
27074.6702
  0
VERTEX
  8
LAYER1
 62
     7
  6
CONTINUOUS
 10
21991.0368
 20
26997.4208
  0
VERTEX
  8
LAYER1
 62
     7
  6
CONTINUOUS
 10
22322.0815
 20
26986.3818
  0
VERTEX
  8
LAYER1
 62
     7
  6
CONTINUOUS
 10
22862.7726
 20
27063.6312
  0
SEQEND
  8
LAYER1
  0
POLYLINE
  8
LAYER1
 62
     7
 66
     1
  6
HIDDEN
  0
VERTEX
  8
LAYER1
 62
     7
  6
HIDDEN
 10
22862.7726
 20
27063.6312
  0
VERTEX
  8
LAYER1
 62
     7
  6
HIDDEN
 10
23249.0006
 20
27118.7978
  0
VERTEX
  8
LAYER1
 62
     7
  6
HIDDEN
 10
23491.7545
 20
27306.3994
  0
VERTEX
  8
LAYER1
 62
     7
  6
HIDDEN
 10
23844.8797
 20
27637.4441
  0
VERTEX
  8
LAYER1
 62
     7
  6
HIDDEN
 10
24418.6759
 20
28454.0110
  0
VERTEX
  8
LAYER1
 62
     7
  6
HIDDEN
 10
24738.6959
 20
29138.1618
  0
VERTEX
  8
LAYER1
 62
     7
  6
HIDDEN
 10
25091.8020
 20
29866.4569
  0
VERTEX
  8
LAYER1
 62
     7
  6
HIDDEN
 10
25489.0547
 20
30782.3535
  0
VERTEX
  8
LAYER1
 62
     7
  6
HIDDEN
 10
25786.9919
 20
31929.9651
  0
VERTEX
  8
LAYER1
 62
     7
  6
HIDDEN
 10
25919.4102
 20
32426.5286
  0
VERTEX
  8
LAYER1
 62
     7
  6
HIDDEN
 10
26040.7872
 20
33066.5495
  0
VERTEX
  8
LAYER1
 62
     7
  6
HIDDEN
 10
26151.1394
 20
34048.6399
  0
VERTEX
  8
LAYER1
 62
     7
  6
HIDDEN
 10
26228.3888
 20
34699.6855
  0
VERTEX
  8
LAYER1
 62
     7
  6
HIDDEN
 10
26283.5578
 20
35262.4594
  0
VERTEX
  8
LAYER1
 62
     7
  6
HIDDEN
 10
26140.1004
 20
36001.7935
  0
VERTEX
  8
LAYER1
 62
     7
  6
HIDDEN
 10
25963.5545
 20
36818.3627
  0
VERTEX
  8
LAYER1
 62
     7
  6
HIDDEN
 10
25820.0971
 20
37403.2147
  0
VERTEX
  8
LAYER1
 62
     7
  6
HIDDEN
 10
25566.3017
 20
38087.3655
  0
VERTEX
  8
LAYER1
 62
     7
  6
HIDDEN
 10
25169.0514
 20
38705.3084
  0
VERTEX
  8
LAYER1
 62
     7
  6
HIDDEN
 10
24220.0495
 20
39852.9342
  0
VERTEX
  8
LAYER1
 62
     7
  6
HIDDEN
 10
23778.6693
 20
40217.0794
  0
VERTEX
  8
LAYER1
 62
     7
  6
HIDDEN
 10
23304.1695
 20
40492.9384
  0
VERTEX
  8
LAYER1
 62
     7
  6
HIDDEN
 10
22741.3957
 20
40735.7066
  0
VERTEX
  8
LAYER1
 62
     7
  6
HIDDEN
 10
22211.7270
 20
40879.1640
  0
VERTEX
  8
LAYER1
 62
     7
  6
HIDDEN
 10
21869.6456
 20
40945.3744
  0
VERTEX
  8
LAYER1
 62
     7
  6
HIDDEN
 10
21538.6009
 20
40967.4382
  0
VERTEX
  8
LAYER1
 62
     7
  6
HIDDEN
 10
20302.7175
 20
40989.5020
  0
SEQEND
  8
LAYER1
  0
POLYLINE
  8
LAYER1
 62
     7
 66
     1
  6
CONTINUOUS
  0
VERTEX
  8
LAYER1
 62
     7
  6
CONTINUOUS
 10
4348.4542
 20
26338.3955
  0
VERTEX
  8
LAYER1
 62
     7
  6
CONTINUOUS
 10
7051.9678
 20
26338.3955
  0
SEQEND
  8
LAYER1
  0
POLYLINE
  8
LAYER1
 62
     7
 66
     1
  6
CONTINUOUS
  0
VERTEX
  8
LAYER1
 62
     7
  6
CONTINUOUS
 10
34682.9804
 20
32464.0680
  0
VERTEX
  8
LAYER1
 62
     7
  6
CONTINUOUS
 10
34682.9804
 20
27079.1044
  0
SEQEND
  8
LAYER1
  0
POLYLINE
  8
LAYER1
 62
     7
 66
     1
  6
CONTINUOUS
  0
VERTEX
  8
LAYER1
 62
     7
  6
CONTINUOUS
 10
2508.7133
 20
20716.7373
  0
VERTEX
  8
LAYER1
 62
     7
  6
CONTINUOUS
 10
2784.5879
 20
20749.8592
  0
VERTEX
  8
LAYER1
 62
     7
  6
CONTINUOUS
 10
3788.7414
 20
20782.9620
  0
VERTEX
  8
LAYER1
 62
     7
  6
CONTINUOUS
 10
4649.4537
 20
20904.3389
  0
VERTEX
  8
LAYER1
 62
     7
  6
CONTINUOUS
 10
5223.2666
 20
20970.5469
  0
VERTEX
  8
LAYER1
 62
     7
  6
CONTINUOUS
 10
6139.1478
 20
20981.5883
  0
VERTEX
  8
LAYER1
 62
     7
  6
CONTINUOUS
 10
7330.9030
 20
20948.4831
  0
VERTEX
  8
LAYER1
 62
     7
  6
CONTINUOUS
 10
8324.0318
 20
20838.1309
  0
VERTEX
  8
LAYER1
 62
     7
  6
CONTINUOUS
 10
9328.2014
 20
20683.6488
  0
VERTEX
  8
LAYER1
 62
     7
  6
CONTINUOUS
 10
11270.3160
 20
20562.2552
  0
VERTEX
  8
LAYER1
 62
     7
  6
CONTINUOUS
 10
12263.4454
 20
20518.1276
  0
VERTEX
  8
LAYER1
 62
     7
  6
CONTINUOUS
 10
13631.7602
 20
20529.1524
  0
VERTEX
  8
LAYER1
 62
     7
  6
CONTINUOUS
 10
14448.3294
 20
20473.9834
  0
VERTEX
  8
LAYER1
 62
     7
  6
CONTINUOUS
 10
15474.5616
 20
20396.7340
  0
VERTEX
  8
LAYER1
 62
     7
  6
CONTINUOUS
 10
16368.3778
 20
20407.7754
  0
VERTEX
  8
LAYER1
 62
     7
  6
CONTINUOUS
 10
17195.9861
 20
20363.6312
  0
VERTEX
  8
LAYER1
 62
     7
  6
CONTINUOUS
 10
17703.5910
 20
20330.5403
  0
VERTEX
  8
LAYER1
 62
     7
  6
CONTINUOUS
 10
18023.5943
 20
20275.3570
  0
SEQEND
  8
LAYER1
  0
POLYLINE
  8
LAYER1
 62
     7
 66
     1
  6
CONTINUOUS
  0
VERTEX
  8
LAYER1
 62
     7
  6
CONTINUOUS
 10
4649.4537
 20
20904.3389
  0
VERTEX
  8
LAYER1
 62
     7
  6
CONTINUOUS
 10
4395.6590
 20
20782.9620
  0
VERTEX
  8
LAYER1
 62
     7
  6
CONTINUOUS
 10
4108.7602
 20
20330.5403
  0
VERTEX
  8
LAYER1
 62
     7
  6
CONTINUOUS
 10
3877.0302
 20
19867.0665
  0
VERTEX
  8
LAYER1
 62
     7
  6
CONTINUOUS
 10
3678.4041
 20
19436.7121
  0
VERTEX
  8
LAYER1
 62
     7
  6
CONTINUOUS
 10
3545.9869
 20
18873.9383
  0
VERTEX
  8
LAYER1
 62
     7
  6
CONTINUOUS
 10
3601.1556
 20
18145.6432
  0
VERTEX
  8
LAYER1
 62
     7
  6
CONTINUOUS
 10
3788.7414
 20
17428.3884
  0
VERTEX
  8
LAYER1
 62
     7
  6
CONTINUOUS
 10
3998.4074
 20
16909.7587
  0
VERTEX
  8
LAYER1
 62
     7
  6
CONTINUOUS
 10
4152.8890
 20
16258.6976
  0
VERTEX
  8
LAYER1
 62
     7
  6
CONTINUOUS
 10
4197.0332
 20
15695.9249
  0
VERTEX
  8
LAYER1
 62
     7
  6
CONTINUOUS
 10
4230.1375
 20
14967.6298
  0
VERTEX
  8
LAYER1
 62
     7
  6
CONTINUOUS
 10
4252.2018
 20
14305.5439
  0
VERTEX
  8
LAYER1
 62
     7
  6
CONTINUOUS
 10
4318.4104
 20
13511.0397
  0
VERTEX
  8
LAYER1
 62
     7
  6
CONTINUOUS
 10
4318.4104
 20
12584.1195
  0
VERTEX
  8
LAYER1
 62
     7
  6
CONTINUOUS
 10
4340.4903
 20
11756.5112
  0
VERTEX
  8
LAYER1
 62
     7
  6
CONTINUOUS
 10
4340.4903
 20
10928.9042
  0
VERTEX
  8
LAYER1
 62
     7
  6
CONTINUOUS
 10
4583.2451
 20
10553.7319
  0
VERTEX
  8
LAYER1
 62
     7
  6
CONTINUOUS
 10
5300.5154
 20
10322.0015
  0
VERTEX
  8
LAYER1
 62
     7
  6
CONTINUOUS
 10
6106.0432
 20
10145.4402
  0
VERTEX
  8
LAYER1
 62
     7
  6
CONTINUOUS
 10
7364.0070
 20
10013.0230
  0
VERTEX
  8
LAYER1
 62
     7
  6
CONTINUOUS
 10
8522.6581
 20
9924.7506
  0
VERTEX
  8
LAYER1
 62
     7
  6
CONTINUOUS
 10
9780.6219
 20
9847.5018
  0
VERTEX
  8
LAYER1
 62
     7
  6
CONTINUOUS
 10
11060.6649
 20
9814.3972
  0
VERTEX
  8
LAYER1
 62
     7
  6
CONTINUOUS
 10
12329.6534
 20
9858.5420
  0
VERTEX
  8
LAYER1
 62
     7
  6
CONTINUOUS
 10
13488.3028
 20
9957.8546
  0
VERTEX
  8
LAYER1
 62
     7
  6
CONTINUOUS
 10
14437.3047
 20
10001.9828
  0
VERTEX
  8
LAYER1
 62
     7
  6
CONTINUOUS
 10
15342.1456
 20
10101.2959
  0
VERTEX
  8
LAYER1
 62
     7
  6
CONTINUOUS
 10
16158.7291
 20
10189.5844
  0
VERTEX
  8
LAYER1
 62
     7
  6
CONTINUOUS
 10
17107.7143
 20
10355.1067
  0
VERTEX
  8
LAYER1
 62
     7
  6
CONTINUOUS
 10
17527.0308
 20
10520.6279
  0
VERTEX
  8
LAYER1
 62
     7
  6
CONTINUOUS
 10
17780.8404
 20
11171.6747
  0
VERTEX
  8
LAYER1
 62
     7
  6
CONTINUOUS
 10
17957.4006
 20
11999.2818
  0
VERTEX
  8
LAYER1
 62
     7
  6
CONTINUOUS
 10
18089.8023
 20
12915.1630
  0
VERTEX
  8
LAYER1
 62
     7
  6
CONTINUOUS
 10
18277.4039
 20
14062.7888
  0
VERTEX
  8
LAYER1
 62
     7
  6
CONTINUOUS
 10
18310.5091
 20
14901.4218
  0
VERTEX
  8
LAYER1
 62
     7
  6
CONTINUOUS
 10
18178.0908
 20
15773.1731
  0
VERTEX
  8
LAYER1
 62
     7
  6
CONTINUOUS
 10
18012.5696
 20
16611.8215
  0
VERTEX
  8
LAYER1
 62
     7
  6
CONTINUOUS
 10
17692.5520
 20
17307.0114
  0
VERTEX
  8
LAYER1
 62
     7
  6
CONTINUOUS
 10
17449.7957
 20
18112.5392
  0
VERTEX
  8
LAYER1
 62
     7
  6
CONTINUOUS
 10
17405.6515
 20
18531.8712
  0
VERTEX
  8
LAYER1
 62
     7
  6
CONTINUOUS
 10
17516.0061
 20
19160.8531
  0
VERTEX
  8
LAYER1
 62
     7
  6
CONTINUOUS
 10
17648.4221
 20
19580.1684
  0
VERTEX
  8
LAYER1
 62
     7
  6
CONTINUOUS
 10
17747.7209
 20
19845.0027
  0
VERTEX
  8
LAYER1
 62
     7
  6
CONTINUOUS
 10
18023.5943
 20
20275.3570
  0
SEQEND
  8
LAYER1
  0
POLYLINE
  8
LAYER1
 62
     7
 66
     1
  6
CONTINUOUS
  0
VERTEX
  8
LAYER1
 62
     7
  6
CONTINUOUS
 10
24941.0226
 20
20182.5867
  0
VERTEX
  8
LAYER1
 62
     7
  6
CONTINUOUS
 10
25426.5614
 20
20160.5230
  0
VERTEX
  8
LAYER1
 62
     7
  6
CONTINUOUS
 10
26474.8597
 20
20182.5867
  0
VERTEX
  8
LAYER1
 62
     7
  6
CONTINUOUS
 10
27357.6369
 20
20215.6919
  0
VERTEX
  8
LAYER1
 62
     7
  6
CONTINUOUS
 10
28450.0795
 20
20237.7724
  0
VERTEX
  8
LAYER1
 62
     7
  6
CONTINUOUS
 10
29487.3531
 20
20248.7947
  0
VERTEX
  8
LAYER1
 62
     7
  6
CONTINUOUS
 10
30480.4825
 20
20248.7947
  0
VERTEX
  8
LAYER1
 62
     7
  6
CONTINUOUS
 10
31583.9642
 20
20303.9804
  0
VERTEX
  8
LAYER1
 62
     7
  6
CONTINUOUS
 10
32687.4315
 20
20381.2131
  0
VERTEX
  8
LAYER1
 62
     7
  6
CONTINUOUS
 10
33846.0821
 20
20491.5653
  0
VERTEX
  8
LAYER1
 62
     7
  6
CONTINUOUS
 10
34883.3557
 20
20568.8147
  0
VERTEX
  8
LAYER1
 62
     7
  6
CONTINUOUS
 10
35865.4437
 20
20635.0227
  0
VERTEX
  8
LAYER1
 62
     7
  6
CONTINUOUS
 10
36792.3651
 20
20679.1526
  0
VERTEX
  8
LAYER1
 62
     7
  6
CONTINUOUS
 10
37597.9072
 20
20712.2554
  0
VERTEX
  8
LAYER1
 62
     7
  6
CONTINUOUS
 10
38215.8501
 20
20734.3359
  0
VERTEX
  8
LAYER1
 62
     7
  6
CONTINUOUS
 10
38745.5188
 20
20745.3606
  0
SEQEND
  8
LAYER1
  0
POLYLINE
  8
LAYER1
 62
     7
 66
     1
  6
CONTINUOUS
  0
VERTEX
  8
LAYER1
 62
     7
  6
CONTINUOUS
 10
25426.5614
 20
20160.5230
  0
VERTEX
  8
LAYER1
 62
     7
  6
CONTINUOUS
 10
25547.9383
 20
20160.5230
  0
VERTEX
  8
LAYER1
 62
     7
  6
CONTINUOUS
 10
25371.3781
 20
19807.4180
  0
VERTEX
  8
LAYER1
 62
     7
  6
CONTINUOUS
 10
25183.7908
 20
19079.1230
  0
VERTEX
  8
LAYER1
 62
     7
  6
CONTINUOUS
 10
25062.4138
 20
18196.3303
  0
VERTEX
  8
LAYER1
 62
     7
  6
CONTINUOUS
 10
24885.8536
 20
17280.4503
  0
VERTEX
  8
LAYER1
 62
     7
  6
CONTINUOUS
 10
24731.3715
 20
16386.6341
  0
VERTEX
  8
LAYER1
 62
     7
  6
CONTINUOUS
 10
24654.1221
 20
15481.7776
  0
VERTEX
  8
LAYER1
 62
     7
  6
CONTINUOUS
 10
24687.2273
 20
14654.1694
  0
VERTEX
  8
LAYER1
 62
     7
  6
CONTINUOUS
 10
24775.4990
 20
13936.9145
  0
VERTEX
  8
LAYER1
 62
     7
  6
CONTINUOUS
 10
24907.9174
 20
13109.3075
  0
VERTEX
  8
LAYER1
 62
     7
  6
CONTINUOUS
 10
25051.3748
 20
12369.9722
  0
VERTEX
  8
LAYER1
 62
     7
  6
CONTINUOUS
 10
25227.9350
 20
11641.6772
  0
VERTEX
  8
LAYER1
 62
     7
  6
CONTINUOUS
 10
25349.3143
 20
11078.9045
  0
VERTEX
  8
LAYER1
 62
     7
  6
CONTINUOUS
 10
25492.7717
 20
10438.8978
  0
VERTEX
  8
LAYER1
 62
     7
  6
CONTINUOUS
 10
25547.9383
 20
10085.7750
  0
VERTEX
  8
LAYER1
 62
     7
  6
CONTINUOUS
 10
25945.1910
 20
9953.3573
  0
VERTEX
  8
LAYER1
 62
     7
  6
CONTINUOUS
 10
27004.5284
 20
9699.5631
  0
VERTEX
  8
LAYER1
 62
     7
  6
CONTINUOUS
 10
27931.4498
 20
9622.3143
  0
VERTEX
  8
LAYER1
 62
     7
  6
CONTINUOUS
 10
28549.3927
 20
9556.1057
  0
VERTEX
  8
LAYER1
 62
     7
  6
CONTINUOUS
 10
29564.6002
 20
9489.8972
  0
VERTEX
  8
LAYER1
 62
     7
  6
CONTINUOUS
 10
30612.8985
 20
9467.8328
  0
VERTEX
  8
LAYER1
 62
     7
  6
CONTINUOUS
 10
31749.4853
 20
9478.8730
  0
VERTEX
  8
LAYER1
 62
     7
  6
CONTINUOUS
 10
32819.8475
 20
9534.0414
  0
VERTEX
  8
LAYER1
 62
     7
  6
CONTINUOUS
 10
33879.1849
 20
9567.1460
  0
VERTEX
  8
LAYER1
 62
     7
  6
CONTINUOUS
 10
35026.8131
 20
9633.3546
  0
VERTEX
  8
LAYER1
 62
     7
  6
CONTINUOUS
 10
35920.6293
 20
9688.5229
  0
VERTEX
  8
LAYER1
 62
     7
  6
CONTINUOUS
 10
36439.2566
 20
9732.6671
  0
VERTEX
  8
LAYER1
 62
     7
  6
CONTINUOUS
 10
37752.3893
 20
9953.3573
  0
VERTEX
  8
LAYER1
 62
     7
  6
CONTINUOUS
 10
38138.6006
 20
10074.7503
  0
VERTEX
  8
LAYER1
 62
     7
  6
CONTINUOUS
 10
38491.7258
 20
10714.7569
  0
VERTEX
  8
LAYER1
 62
     7
  6
CONTINUOUS
 10
38822.7682
 20
11398.9233
  0
VERTEX
  8
LAYER1
 62
     7
  6
CONTINUOUS
 10
39032.4336
 20
11917.5517
  0
VERTEX
  8
LAYER1
 62
     7
  6
CONTINUOUS
 10
39120.7077
 20
12469.2854
  0
VERTEX
  8
LAYER1
 62
     7
  6
CONTINUOUS
 10
39197.9547
 20
13098.2673
  0
VERTEX
  8
LAYER1
 62
     7
  6
CONTINUOUS
 10
39253.1237
 20
14080.3719
  0
VERTEX
  8
LAYER1
 62
     7
  6
CONTINUOUS
 10
39308.2926
 20
14687.2734
  0
VERTEX
  8
LAYER1
 62
     7
  6
CONTINUOUS
 10
39319.3317
 20
15625.2350
  0
VERTEX
  8
LAYER1
 62
     7
  6
CONTINUOUS
 10
39297.2679
 20
16342.4899
  0
VERTEX
  8
LAYER1
 62
     7
  6
CONTINUOUS
 10
39242.0989
 20
16618.3644
  0
VERTEX
  8
LAYER1
 62
     7
  6
CONTINUOUS
 10
38789.6630
 20
17390.8025
  0
VERTEX
  8
LAYER1
 62
     7
  6
CONTINUOUS
 10
38326.2023
 20
18141.1625
  0
VERTEX
  8
LAYER1
 62
     7
  6
CONTINUOUS
 10
38226.8891
 20
18350.8279
  0
VERTEX
  8
LAYER1
 62
     7
  6
CONTINUOUS
 10
38204.8253
 20
18979.8098
  0
VERTEX
  8
LAYER1
 62
     7
  6
CONTINUOUS
 10
38160.6811
 20
19995.0018
  0
VERTEX
  8
LAYER1
 62
     7
  6
CONTINUOUS
 10
38204.8253
 20
20480.5263
  0
VERTEX
  8
LAYER1
 62
     7
  6
CONTINUOUS
 10
38215.8501
 20
20734.3359
  0
SEQEND
  8
LAYER1
  0
POLYLINE
  8
LAYER1
 62
     7
 66
     1
  6
CONTINUOUS
  0
VERTEX
  8
LAYER1
 62
     7
  6
CONTINUOUS
 10
34682.9804
 20
27079.1044
  0
VERTEX
  8
LAYER1
 62
     7
  6
CONTINUOUS
 10
34682.9804
 20
32464.0680
  0
SEQEND
  8
LAYER1
  0
POLYLINE
  8
LAYER1
 62
     7
 66
     1
  6
CONTINUOUS
  0
VERTEX
  8
LAYER1
 62
     7
  6
CONTINUOUS
 10
34682.9804
 20
32464.0680
  0
VERTEX
  8
LAYER1
 62
     7
  6
CONTINUOUS
 10
34314.1485
 20
31399.7174
  0
SEQEND
  8
LAYER1
  0
POLYLINE
  8
LAYER1
 62
     7
 66
     1
  6
CONTINUOUS
  0
VERTEX
  8
LAYER1
 62
     7
  6
CONTINUOUS
 10
4348.4542
 20
26626.9496
  0
VERTEX
  8
LAYER1
 62
     7
  6
CONTINUOUS
 10
4348.4542
 20
26338.3955
  0
SEQEND
  8
LAYER1
  0
POLYLINE
  8
LAYER1
 62
     7
 66
     1
  6
CONTINUOUS
  0
VERTEX
  8
LAYER1
 62
     7
  6
CONTINUOUS
 10
7051.9678
 20
26338.3955
  0
VERTEX
  8
LAYER1
 62
     7
  6
CONTINUOUS
 10
4348.4542
 20
26338.3955
  0
SEQEND
  8
LAYER1
  0
POLYLINE
  8
LAYER1
 62
     3
 66
     1
  6
CONTINUOUS
  0
VERTEX
  8
LAYER1
 62
     3
  6
CONTINUOUS
 10
11327.2494
 20
33454.9648
  0
VERTEX
  8
LAYER1
 62
     3
  6
CONTINUOUS
 10
14025.7963
 20
33454.9648
  0
SEQEND
  8
LAYER1
  0
POLYLINE
  8
LAYER1
 62
     3
 66
     1
  6
CONTINUOUS
  0
VERTEX
  8
LAYER1
 62
     3
  6
CONTINUOUS
 10
24720.0656
 20
33454.9648
  0
VERTEX
  8
LAYER1
 62
     3
  6
CONTINUOUS
 10
27518.5523
 20
33454.9648
  0
SEQEND
  8
LAYER1
  0
POLYLINE
  8
LAYER1
 62
     3
 66
     1
  6
CONTINUOUS
  0
VERTEX
  8
LAYER1
 62
     3
  6
CONTINUOUS
 10
19322.9551
 20
41950.4006
  0
VERTEX
  8
LAYER1
 62
     3
  6
CONTINUOUS
 10
19322.9551
 20
39351.7935
  0
SEQEND
  8
LAYER1
  0
POLYLINE
  8
LAYER1
 62
     3
 66
     1
  6
CONTINUOUS
  0
VERTEX
  8
LAYER1
 62
     3
  6
CONTINUOUS
 10
19322.9551
 20
27957.9144
  0
VERTEX
  8
LAYER1
 62
     3
  6
CONTINUOUS
 10
19322.9551
 20
25859.0399
  0
SEQEND
  8
LAYER1
  0
POLYLINE
  8
LAYER1
 62
     7
 66
     1
  6
CONTINUOUS
  0
VERTEX
  8
LAYER1
 62
     7
  6
CONTINUOUS
 10
7051.9678
 20
26338.3955
  0
VERTEX
  8
LAYER1
 62
     7
  6
CONTINUOUS
 10
9755.4809
 20
26338.3955
  0
SEQEND
  8
LAYER1
  0
POLYLINE
  8
LAYER1
 62
     7
 66
     1
  6
CONTINUOUS
  0
VERTEX
  8
LAYER1
 62
     7
  6
CONTINUOUS
 10
9755.4809
 20
26338.3955
  0
VERTEX
  8
LAYER1
 62
     7
  6
CONTINUOUS
 10
9755.4809
 20
26629.7302
  0
SEQEND
  8
LAYER1
  0
POLYLINE
  8
LAYER1
 62
     7
 66
     1
  6
CONTINUOUS
  0
VERTEX
  8
LAYER1
 62
     7
  6
CONTINUOUS
 10
9755.4809
 20
26338.3955
  0
VERTEX
  8
LAYER1
 62
     7
  6
CONTINUOUS
 10
7051.9678
 20
26338.3955
  0
SEQEND
  8
LAYER1
  0
ENDSEC
  0
EOF
