  0
SECTION
  2
HEADER
  9
$ACADVER
  1
AC1004
  9
$EXTMIN
 10
5153.2326
 20
4402.8732
  9
$EXTMAX
 10
45043.9272
 20
41325.9244
  9
$LIMMIN
 10
5153.2326
 20
4402.8732
  9
$LIMMAX
 10
45043.9272
 20
41325.9244
  9
$INSBASE
 10
0.0
 20
0.0
  9
$VIEWCTR
 10
7.21903
 20
4.5
  9
$VIEWSIZE
 40
9.0
  9
$SNAPMODE
 70
     0
  9
$SNAPUNIT
 10
1.0
 20
1.0
  9
$SNAPBASE
 10
0.0
 20
0.0
  9
$SNAPANG
 50
0.0
  9
$SNAPSTYLE
 70
     0
  9
$SNAPISOPAIR
 70
     0
  9
$GRIDMODE
 70
     0
  9
$GRIDUNIT
 10
0.0
 20
0.0
  9
$ORTHOMODE
 70
     0
  9
$REGENMODE
 70
     1
  9
$FILLMODE
 70
     1
  9
$QTEXTMODE
 70
     0
  9
$DRAGMODE
 70
     2
  9
$LTSCALE
 40
1.0
  9
$OSMODE
 70
     0
  9
$ATTMODE
 70
     1
  9
$TEXTSIZE
 40
0.2
  9
$TRACEWID
 40
0.05
  9
$TEXTSTYLE
  7
STANDARD
  9
$CLAYER
  8
0
  9
$CELTYPE
  6
BYLAYER
  9
$CECOLOR
 62
   256
  9
$DIMSCALE
 40
1.0
  9
$DIMASZ
 40
0.18
  9
$DIMEXO
 40
0.0625
  9
$DIMDLI
 40
0.38
  9
$DIMRND
 40
0.0
  9
$DIMDLE
 40
0.0
  9
$DIMEXE
 40
0.18
  9
$DIMTP
 40
0.0
  9
$DIMTM
 40
0.0
  9
$DIMTXT
 40
0.18
  9
$DIMCEN
 40
0.09
  9
$DIMTSZ
 40
0.0
  9
$DIMTOL
 70
     0
  9
$DIMLIM
 70
     0
  9
$DIMTIH
 70
     1
  9
$DIMTOH
 70
     1
  9
$DIMSE1
 70
     0
  9
$DIMSE2
 70
     0
  9
$DIMTAD
 70
     0
  9
$DIMZIN
 70
     0
  9
$DIMBLK
  1

  9
$DIMASO
 70
     1
  9
$DIMSHO
 70
     0
  9
$DIMPOST
  1

  9
$DIMAPOST
  1

  9
$DIMALT
 70
     0
  9
$DIMALTD
 70
     2
  9
$DIMALTF
 40
25.4
  9
$DIMLFAC
 40
1.0
  9
$LUNITS
 70
     2
  9
$LUPREC
 70
     4
  9
$AXISMODE
 70
     0
  9
$AXISUNIT
 10
0.0
 20
0.0
  9
$SKETCHINC
 40
0.1
  9
$FILLETRAD
 40
0.0
  9
$AUNITS
 70
     0
  9
$AUPREC
 70
     0
  9
$MENU
  1
acad
  9
$ELEVATION
 40
0.0
  9
$THICKNESS
 40
0.0
  9
$VIEWDIR
 10
0.0
 20
0.0
 30
1.0
  9
$LIMCHECK
 70
     0
  9
$BLIPMODE
 70
     1
  9
$CHAMFERA
 40
0.0
  9
$CHAMFERB
 40
0.0
  9
$FASTZOOM
 70
     1
  9
$SKPOLY
 70
     0
  9
$TDCREATE
 40
2447222.5666886573
  9
$TDUPDATE
 40
2447222.5666886573
  9
$TDINDWG
 40
0.0000000000
  9
$TDUSRTIMER
 40
0.0000000000
  9
$USRTIMER
 70
     1
  9
$ANGBASE
 50
0.0
  9
$ANGDIR
 70
     0
  9
$PDMODE
 70
     0
  9
$PDSIZE
 40
0.0
  9
$PLINEWID
 40
0.0
  9
$COORDS
 70
     0
  9
$SPLFRAME
 70
     0
  9
$SPLINESEGS
 70
     8
  9
$ATTDIA
 70
     0
  9
$ATTREQ
 70
     1
  9
$USERI1
 70
     0
  9
$USERI2
 70
     0
  9
$USERI3
 70
     0
  9
$USERI4
 70
     0
  9
$USERI5
 70
     0
  9
$USERR1
 40
0.0
  9
$USERR2
 40
0.0
  9
$USERR3
 40
0.0
  9
$USERR4
 40
0.0
  9
$USERR5
 40
0.0
  0
ENDSEC
  0
SECTION
  2
TABLES
  0
TABLE
  2
LTYPE
 70
     13
  0
LTYPE
  2
CONTINUOUS
 70
    64
  3
Solid line
 72
    65
 73
     0
 40
0.0
  0
LTYPE
  2
DASHED
 70
    64
  3
__ __ __ __ __ __ __ __ __ __ __ __ __ __ __
 72
    65
 73
     2
 40
0.75
 49
0.5
 49
-0.25
  0
LTYPE
  2
HIDDEN
 70
    64
  3
_ _ _ _ _ _ _ _ _ _ _ _ _ _ _ _ _ _ _ _ _ _ _
 72
    65
 73
     2
 40
0.375
 49
0.25
 49
-0.125
  0
LTYPE
  2
CENTER
 70
    64
  3
____ _ ____ _ ____ _ ____ _ ____ _ ____ _ ____
 72
    65
 73
     4
 40
2.0
 49
1.25
 49
-0.25
 49
0.25
 49
-0.25
  0
LTYPE
  2
PHANTOM
 70
    64
  3
_____ _ _ _____ _ _ _____ _ _ _____ _ _ ____
 72
    65
 73
     6
 40
2.5
 49
1.25
 49
-0.25
 49
0.25
 49
-0.25
 49
0.25
 49
-0.25
  0
LTYPE
  2
DOT
 70
    64
  3
...............................................
 72
    65
 73
     2
 40
0.25
 49
0.0
 49
-0.25
  0
LTYPE
  2
DASHDOT
 70
    64
  3
__ . __ . __ . __ . __ . __ . __ . __ . __ . __
 72
    65
 73
     4
 40
1.0
 49
0.5
 49
-0.25
 49
0.0
 49
-0.25
  0
LTYPE
  2
BORDER
 70
    64
  3
__ __ . __ __ . __ __ . __ __ . __ __ . __ __
 72
    65
 73
     6
 40
1.75
 49
0.5
 49
-0.25
 49
0.5
 49
-0.25
 49
0.0
 49
-0.25
  0
LTYPE
  2
DIVIDE
 70
    64
  3
__ . . __ . . __ . . __ . . __ . . __ . . __
 72
    65
 73
     6
 40
1.25
 49
0.5
 49
-0.25
 49
0.0
 49
-0.25
 49
0.0
 49
-0.25
  0
LTYPE
  2
DCTYPE1
 70
    64
  3
__ . . __ . . __ . . __ . . __ . . __ . . __
 72
    65
 73
     8
 40
2.5
 49
0.5
 49
-0.25
 49
0.125
 49
-0.25
 49
0.25
 49
-0.25
 49
0.125
 49
-0.25
  0
LTYPE
  2
DCTYPE2
 70
    64
  3
__ . . __ . . __ . . __ . . __ . . __ . . __
 72
    65
 73
     6
 40
2.05
 49
1.0
 49
-0.3
 49
0.15
 49
-0.15
 49
0.15
 49
-0.3
  0
LTYPE
  2
DCTYPE3
 70
    64
  3
__ . . __ . . __ . . __ . . __ . . __ . . __
 72
    65
 73
     6
 40
2.5
 49
0.8
 49
-0.2
 49
0.8
 49
-0.2
 49
0.3
 49
-0.2
  0
LTYPE
  2
DCTYPE4
 70
    64
  3
__ . . __ . . __ . . __ . . __ . . __ . . __
 72
    65
 73
     10
 40
3.97
 49
1.75
 49
-0.3
 49
0.3
 49
-0.3
 49
0.06
 49
-0.3
 49
0.06
 49
-0.3
 49
0.3
 49
-0.3
  0
ENDTAB
  0
TABLE
  2
LAYER
 70
    153
  0
LAYER
  2
LAYER1
 70
 64
 62
     7
  6
CONTINUOUS
  0
ENDTAB
  0
ENDSEC
  0
SECTION
  2
BLOCKS
  0
ENDSEC
  0
SECTION
  2
ENTITIES
  0
POLYLINE
  8
LAYER1
 62
     7
 66
     1
  6
CONTINUOUS
  0
VERTEX
  8
LAYER1
 62
     7
  6
CONTINUOUS
 10
23636.4771
 20
27520.7206
  0
VERTEX
  8
LAYER1
 62
     7
  6
CONTINUOUS
 10
23779.9345
 20
27476.5764
  0
VERTEX
  8
LAYER1
 62
     7
  6
CONTINUOUS
 10
24066.8326
 20
27421.4074
  0
VERTEX
  8
LAYER1
 62
     7
  6
CONTINUOUS
 10
24453.0463
 20
27498.6401
  0
VERTEX
  8
LAYER1
 62
     7
  6
CONTINUOUS
 10
24651.6703
 20
27586.9286
  0
VERTEX
  8
LAYER1
 62
     7
  6
CONTINUOUS
 10
25181.3414
 20
27785.5549
  0
VERTEX
  8
LAYER1
 62
     7
  6
CONTINUOUS
 10
26141.3656
 20
28260.0380
  0
VERTEX
  8
LAYER1
 62
     7
  6
CONTINUOUS
 10
26902.7634
 20
28679.3712
  0
VERTEX
  8
LAYER1
 62
     7
  6
CONTINUOUS
 10
27410.3684
 20
28877.9951
  0
VERTEX
  8
LAYER1
 62
     7
  6
CONTINUOUS
 10
28215.9128
 20
29120.7514
  0
VERTEX
  8
LAYER1
 62
     7
  6
CONTINUOUS
 10
28646.2684
 20
29242.1427
  0
VERTEX
  8
LAYER1
 62
     7
  6
CONTINUOUS
 10
29286.2750
 20
29606.2902
  0
VERTEX
  8
LAYER1
 62
     7
  6
CONTINUOUS
 10
29893.1931
 20
29970.4377
  0
VERTEX
  8
LAYER1
 62
     7
  6
CONTINUOUS
 10
30389.7566
 20
30411.8180
  0
VERTEX
  8
LAYER1
 62
     7
  6
CONTINUOUS
 10
30809.0731
 20
31338.7394
  0
VERTEX
  8
LAYER1
 62
     7
  6
CONTINUOUS
 10
30952.5305
 20
31868.4081
  0
VERTEX
  8
LAYER1
 62
     7
  6
CONTINUOUS
 10
31029.7799
 20
32188.4281
  0
VERTEX
  8
LAYER1
 62
     7
  6
CONTINUOUS
 10
31162.1959
 20
32618.7836
  0
VERTEX
  8
LAYER1
 62
     7
  6
CONTINUOUS
 10
31184.2597
 20
33192.5822
  0
VERTEX
  8
LAYER1
 62
     7
  6
CONTINUOUS
 10
31073.9074
 20
33501.5608
  0
VERTEX
  8
LAYER1
 62
     7
  6
CONTINUOUS
 10
30897.3615
 20
34042.2686
  0
VERTEX
  8
LAYER1
 62
     7
  6
CONTINUOUS
 10
30742.8651
 20
34682.2752
  0
VERTEX
  8
LAYER1
 62
     7
  6
CONTINUOUS
 10
30467.0060
 20
35222.9829
  0
VERTEX
  8
LAYER1
 62
     7
  6
CONTINUOUS
 10
30180.0912
 20
35664.3798
  0
VERTEX
  8
LAYER1
 62
     7
  6
CONTINUOUS
 10
29882.1517
 20
35995.4222
  0
VERTEX
  8
LAYER1
 62
     7
  6
CONTINUOUS
 10
29418.6910
 20
36856.1356
  0
VERTEX
  8
LAYER1
 62
     7
  6
CONTINUOUS
 10
28933.1665
 20
37705.8076
  0
VERTEX
  8
LAYER1
 62
     7
  6
CONTINUOUS
 10
28524.8747
 20
38345.8285
  0
VERTEX
  8
LAYER1
 62
     7
  6
CONTINUOUS
 10
28039.3503
 20
38798.2502
  0
VERTEX
  8
LAYER1
 62
     7
  6
CONTINUOUS
 10
27631.0585
 20
39217.5667
  0
VERTEX
  8
LAYER1
 62
     7
  6
CONTINUOUS
 10
27222.7834
 20
39647.9222
  0
VERTEX
  8
LAYER1
 62
     7
  6
CONTINUOUS
 10
26648.9705
 20
39813.4434
  0
VERTEX
  8
LAYER1
 62
     7
  6
CONTINUOUS
 10
25799.2985
 20
39835.5238
  0
VERTEX
  8
LAYER1
 62
     7
  6
CONTINUOUS
 10
25159.2752
 20
39846.5486
  0
VERTEX
  8
LAYER1
 62
     7
  6
CONTINUOUS
 10
24066.8326
 20
39934.8370
  0
VERTEX
  8
LAYER1
 62
     7
  6
CONTINUOUS
 10
23338.5399
 20
39945.8594
  0
VERTEX
  8
LAYER1
 62
     7
  6
CONTINUOUS
 10
22389.5548
 20
39923.7956
  0
VERTEX
  8
LAYER1
 62
     7
  6
CONTINUOUS
 10
21760.5729
 20
39890.6928
  0
VERTEX
  8
LAYER1
 62
     7
  6
CONTINUOUS
 10
21131.5910
 20
39769.3135
  0
VERTEX
  8
LAYER1
 62
     7
  6
CONTINUOUS
 10
20557.7757
 20
39537.5843
  0
VERTEX
  8
LAYER1
 62
     7
  6
CONTINUOUS
 10
19928.7938
 20
39173.4368
  0
VERTEX
  8
LAYER1
 62
     7
  6
CONTINUOUS
 10
19454.2941
 20
38820.3140
  0
VERTEX
  8
LAYER1
 62
     7
  6
CONTINUOUS
 10
19001.8748
 20
38114.0994
  0
VERTEX
  8
LAYER1
 62
     7
  6
CONTINUOUS
 10
18814.2874
 20
37595.4554
  0
VERTEX
  8
LAYER1
 62
     7
  6
CONTINUOUS
 10
18417.0371
 20
36845.0942
  0
VERTEX
  8
LAYER1
 62
     7
  6
CONTINUOUS
 10
18174.2665
 20
36094.7354
  0
VERTEX
  8
LAYER1
 62
     7
  6
CONTINUOUS
 10
17942.5350
 20
35620.2356
  0
VERTEX
  8
LAYER1
 62
     7
  6
CONTINUOUS
 10
17710.8058
 20
34704.3556
  0
VERTEX
  8
LAYER1
 62
     7
  6
CONTINUOUS
 10
17589.4289
 20
34163.6455
  0
VERTEX
  8
LAYER1
 62
     7
  6
CONTINUOUS
 10
17600.4536
 20
33093.2691
  0
VERTEX
  8
LAYER1
 62
     7
  6
CONTINUOUS
 10
17655.6369
 20
32122.2177
  0
VERTEX
  8
LAYER1
 62
     7
  6
CONTINUOUS
 10
17644.5978
 20
31360.8199
  0
VERTEX
  8
LAYER1
 62
     7
  6
CONTINUOUS
 10
17490.1157
 20
30610.4444
  0
VERTEX
  8
LAYER1
 62
     7
  6
CONTINUOUS
 10
17666.6616
 20
29661.4592
  0
VERTEX
  8
LAYER1
 62
     7
  6
CONTINUOUS
 10
17832.1828
 20
29153.8542
  0
VERTEX
  8
LAYER1
 62
     7
  6
CONTINUOUS
 10
18163.2251
 20
28690.3959
  0
VERTEX
  8
LAYER1
 62
     7
  6
CONTINUOUS
 10
19090.1465
 20
27840.7239
  0
VERTEX
  8
LAYER1
 62
     7
  6
CONTINUOUS
 10
19807.4169
 20
27476.5764
  0
VERTEX
  8
LAYER1
 62
     7
  6
CONTINUOUS
 10
20480.5287
 20
27597.9533
  0
VERTEX
  8
LAYER1
 62
     7
  6
CONTINUOUS
 10
21186.7576
 20
27741.4107
  0
VERTEX
  8
LAYER1
 62
     7
  6
CONTINUOUS
 10
21837.8056
 20
27796.5773
  0
VERTEX
  8
LAYER1
 62
     7
  6
CONTINUOUS
 10
22444.7213
 20
27763.4745
  0
VERTEX
  8
LAYER1
 62
     7
  6
CONTINUOUS
 10
23184.0578
 20
27686.2418
  0
VERTEX
  8
LAYER1
 62
     7
  6
CONTINUOUS
 10
23636.4771
 20
27520.7206
  0
SEQEND
  8
LAYER1
  0
POLYLINE
  8
LAYER1
 62
     7
 66
     1
  6
CONTINUOUS
  0
VERTEX
  8
LAYER1
 62
     7
  6
CONTINUOUS
 10
30389.7566
 20
30411.8180
  0
VERTEX
  8
LAYER1
 62
     7
  6
CONTINUOUS
 10
30290.4434
 20
30478.0284
  0
VERTEX
  8
LAYER1
 62
     7
  6
CONTINUOUS
 10
30389.7566
 20
30809.0707
  0
VERTEX
  8
LAYER1
 62
     7
  6
CONTINUOUS
 10
30389.7566
 20
31427.0279
  0
VERTEX
  8
LAYER1
 62
     7
  6
CONTINUOUS
 10
30400.7980
 20
32056.0097
  0
VERTEX
  8
LAYER1
 62
     7
  6
CONTINUOUS
 10
30411.8204
 20
32673.9526
  0
VERTEX
  8
LAYER1
 62
     7
  6
CONTINUOUS
 10
30455.9646
 20
33291.8930
  0
VERTEX
  8
LAYER1
 62
     7
  6
CONTINUOUS
 10
30400.7980
 20
34020.1881
  0
VERTEX
  8
LAYER1
 62
     7
  6
CONTINUOUS
 10
30301.4848
 20
34538.8344
  0
VERTEX
  8
LAYER1
 62
     7
  6
CONTINUOUS
 10
30135.9637
 20
35046.4227
  0
VERTEX
  8
LAYER1
 62
     7
  6
CONTINUOUS
 10
30058.7143
 20
35377.4650
  0
VERTEX
  8
LAYER1
 62
     7
  6
CONTINUOUS
 10
30180.0912
 20
35664.3798
  0
SEQEND
  8
LAYER1
  0
POLYLINE
  8
LAYER1
 62
     7
 66
     1
  6
CONTINUOUS
  0
VERTEX
  8
LAYER1
 62
     7
  6
CONTINUOUS
 10
28933.1665
 20
37705.8076
  0
VERTEX
  8
LAYER1
 62
     7
  6
CONTINUOUS
 10
28624.1879
 20
38080.9942
  0
VERTEX
  8
LAYER1
 62
     7
  6
CONTINUOUS
 10
28293.1456
 20
38367.8923
  0
VERTEX
  8
LAYER1
 62
     7
  6
CONTINUOUS
 10
27840.7263
 20
38798.2502
  0
VERTEX
  8
LAYER1
 62
     7
  6
CONTINUOUS
 10
27399.3293
 20
39305.8551
  0
VERTEX
  8
LAYER1
 62
     7
  6
CONTINUOUS
 10
26946.9077
 20
39603.7923
  0
VERTEX
  8
LAYER1
 62
     7
  6
CONTINUOUS
 10
26472.4079
 20
39736.2107
  0
VERTEX
  8
LAYER1
 62
     7
  6
CONTINUOUS
 10
25898.6117
 20
39769.3135
  0
VERTEX
  8
LAYER1
 62
     7
  6
CONTINUOUS
 10
25104.1062
 20
39791.3796
  0
VERTEX
  8
LAYER1
 62
     7
  6
CONTINUOUS
 10
24552.3595
 20
39780.3382
  0
VERTEX
  8
LAYER1
 62
     7
  6
CONTINUOUS
 10
23868.2086
 20
39802.4187
  0
VERTEX
  8
LAYER1
 62
     7
  6
CONTINUOUS
 10
23404.7479
 20
39791.3796
  0
VERTEX
  8
LAYER1
 62
     7
  6
CONTINUOUS
 10
22808.8689
 20
39703.1055
  0
VERTEX
  8
LAYER1
 62
     7
  6
CONTINUOUS
 10
22257.1364
 20
39581.7118
  0
VERTEX
  8
LAYER1
 62
     7
  6
CONTINUOUS
 10
21716.4287
 20
39460.3349
  0
VERTEX
  8
LAYER1
 62
     7
  6
CONTINUOUS
 10
21153.6548
 20
39305.8551
  0
VERTEX
  8
LAYER1
 62
     7
  6
CONTINUOUS
 10
20579.8418
 20
39052.0431
  0
VERTEX
  8
LAYER1
 62
     7
  6
CONTINUOUS
 10
20105.3564
 20
38687.8956
  0
VERTEX
  8
LAYER1
 62
     7
  6
CONTINUOUS
 10
19730.1674
 20
38345.8285
  0
VERTEX
  8
LAYER1
 62
     7
  6
CONTINUOUS
 10
19343.9561
 20
37871.3288
  0
VERTEX
  8
LAYER1
 62
     7
  6
CONTINUOUS
 10
19090.1465
 20
37407.8681
  0
VERTEX
  8
LAYER1
 62
     7
  6
CONTINUOUS
 10
18803.2484
 20
36900.2632
  0
VERTEX
  8
LAYER1
 62
     7
  6
CONTINUOUS
 10
18593.5830
 20
36425.7801
  0
VERTEX
  8
LAYER1
 62
     7
  6
CONTINUOUS
 10
18361.8515
 20
35984.3832
  0
VERTEX
  8
LAYER1
 62
     7
  6
CONTINUOUS
 10
18163.2251
 20
35542.9862
  0
VERTEX
  8
LAYER1
 62
     7
  6
CONTINUOUS
 10
17997.7039
 20
35178.8387
  0
VERTEX
  8
LAYER1
 62
     7
  6
CONTINUOUS
 10
17887.3660
 20
34891.9406
  0
VERTEX
  8
LAYER1
 62
     7
  6
CONTINUOUS
 10
17765.9748
 20
34682.2752
  0
VERTEX
  8
LAYER1
 62
     7
  6
CONTINUOUS
 10
17644.5978
 20
34472.6241
  0
VERTEX
  8
LAYER1
 62
     7
  6
CONTINUOUS
 10
17644.5978
 20
34472.6241
  0
SEQEND
  8
LAYER1
  0
POLYLINE
  8
LAYER1
 62
     7
 66
     1
  6
HIDDEN
  0
VERTEX
  8
LAYER1
 62
     7
  6
HIDDEN
 10
17644.5978
 20
34472.6241
  0
VERTEX
  8
LAYER1
 62
     7
  6
HIDDEN
 10
17523.2185
 20
34262.9587
  0
VERTEX
  8
LAYER1
 62
     7
  6
HIDDEN
 10
17236.3061
 20
33909.8526
  0
VERTEX
  8
LAYER1
 62
     7
  6
HIDDEN
 10
17059.7602
 20
33523.6246
  0
VERTEX
  8
LAYER1
 62
     7
  6
HIDDEN
 10
16982.5108
 20
33269.8293
  0
VERTEX
  8
LAYER1
 62
     7
  6
HIDDEN
 10
16949.4056
 20
32982.9312
  0
VERTEX
  8
LAYER1
 62
     7
  6
HIDDEN
 10
16960.4470
 20
32618.7836
  0
VERTEX
  8
LAYER1
 62
     7
  6
HIDDEN
 10
17026.6550
 20
32188.4281
  0
VERTEX
  8
LAYER1
 62
     7
  6
HIDDEN
 10
17048.7188
 20
31934.6161
  0
VERTEX
  8
LAYER1
 62
     7
  6
HIDDEN
 10
17081.8239
 20
31702.8869
  0
VERTEX
  8
LAYER1
 62
     7
  6
HIDDEN
 10
17125.9682
 20
31515.3020
  0
VERTEX
  8
LAYER1
 62
     7
  6
HIDDEN
 10
17170.0957
 20
31438.0526
  0
VERTEX
  8
LAYER1
 62
     7
  6
HIDDEN
 10
17225.2813
 20
31316.6756
  0
VERTEX
  8
LAYER1
 62
     7
  6
HIDDEN
 10
17302.5141
 20
31118.0493
  0
VERTEX
  8
LAYER1
 62
     7
  6
HIDDEN
 10
17490.1157
 20
30610.4444
  0
SEQEND
  8
LAYER1
  0
POLYLINE
  8
LAYER1
 62
     7
 66
     1
  6
CONTINUOUS
  0
VERTEX
  8
LAYER1
 62
     7
  6
CONTINUOUS
 10
17490.1157
 20
30610.4444
  0
VERTEX
  8
LAYER1
 62
     7
  6
CONTINUOUS
 10
17964.6011
 20
30433.8984
  0
VERTEX
  8
LAYER1
 62
     7
  6
CONTINUOUS
 10
18207.3693
 20
29981.4625
  0
VERTEX
  8
LAYER1
 62
     7
  6
CONTINUOUS
 10
18483.2451
 20
29540.0822
  0
VERTEX
  8
LAYER1
 62
     7
  6
CONTINUOUS
 10
18759.1042
 20
29209.0399
  0
VERTEX
  8
LAYER1
 62
     7
  6
CONTINUOUS
 10
19090.1465
 20
28911.1003
  0
VERTEX
  8
LAYER1
 62
     7
  6
CONTINUOUS
 10
19509.4773
 20
28535.9138
  0
VERTEX
  8
LAYER1
 62
     7
  6
CONTINUOUS
 10
20116.3811
 20
28182.8053
  0
VERTEX
  8
LAYER1
 62
     7
  6
CONTINUOUS
 10
20535.7119
 20
28017.2841
  0
VERTEX
  8
LAYER1
 62
     7
  6
CONTINUOUS
 10
20910.8842
 20
27906.9319
  0
VERTEX
  8
LAYER1
 62
     7
  6
CONTINUOUS
 10
21341.2397
 20
27741.4107
  0
VERTEX
  8
LAYER1
 62
     7
  6
CONTINUOUS
 10
21341.2397
 20
27741.4107
  0
SEQEND
  8
LAYER1
  0
POLYLINE
  8
LAYER1
 62
     7
 66
     1
  6
HIDDEN
  0
VERTEX
  8
LAYER1
 62
     7
  6
HIDDEN
 10
21341.2397
 20
27741.4107
  0
VERTEX
  8
LAYER1
 62
     7
  6
HIDDEN
 10
21396.4253
 20
27487.6154
  0
VERTEX
  8
LAYER1
 62
     7
  6
HIDDEN
 10
21727.4677
 20
27311.0528
  0
VERTEX
  8
LAYER1
 62
     7
  6
HIDDEN
 10
22257.1364
 20
26858.6335
  0
VERTEX
  8
LAYER1
 62
     7
  6
HIDDEN
 10
22830.9350
 20
26461.3808
  0
VERTEX
  8
LAYER1
 62
     7
  6
HIDDEN
 10
23150.9526
 20
26328.9648
  0
VERTEX
  8
LAYER1
 62
     7
  6
HIDDEN
 10
23570.2691
 20
26163.4436
  0
VERTEX
  8
LAYER1
 62
     7
  6
HIDDEN
 10
24298.5642
 20
25997.9225
  0
VERTEX
  8
LAYER1
 62
     7
  6
HIDDEN
 10
24982.7150
 20
25997.9225
  0
VERTEX
  8
LAYER1
 62
     7
  6
HIDDEN
 10
25490.3199
 20
26086.1942
  0
VERTEX
  8
LAYER1
 62
     7
  6
HIDDEN
 10
25997.9249
 20
26262.7568
  0
VERTEX
  8
LAYER1
 62
     7
  6
HIDDEN
 10
26715.1785
 20
26516.5498
  0
VERTEX
  8
LAYER1
 62
     7
  6
HIDDEN
 10
27564.8505
 20
26957.9467
  0
VERTEX
  8
LAYER1
 62
     7
  6
HIDDEN
 10
28149.7049
 20
27333.1190
  0
VERTEX
  8
LAYER1
 62
     7
  6
HIDDEN
 10
28557.9799
 20
27730.3693
  0
VERTEX
  8
LAYER1
 62
     7
  6
HIDDEN
 10
28966.2717
 20
28348.3264
  0
VERTEX
  8
LAYER1
 62
     7
  6
HIDDEN
 10
29308.3554
 20
28977.3083
  0
VERTEX
  8
LAYER1
 62
     7
  6
HIDDEN
 10
29562.1484
 20
29319.3778
  0
VERTEX
  8
LAYER1
 62
     7
  6
HIDDEN
 10
29804.9189
 20
29727.6695
  0
VERTEX
  8
LAYER1
 62
     7
  6
HIDDEN
 10
29893.1931
 20
29970.4377
  0
SEQEND
  8
LAYER1
  0
POLYLINE
  8
LAYER1
 62
     7
 66
     1
  6
CONTINUOUS
  0
VERTEX
  8
LAYER1
 62
     7
  6
CONTINUOUS
 10
35359.4471
 20
18209.5400
  0
VERTEX
  8
LAYER1
 62
     7
  6
CONTINUOUS
 10
35370.4885
 20
23671.7529
  0
SEQEND
  8
LAYER1
  0
POLYLINE
  8
LAYER1
 62
     7
 66
     1
  6
CONTINUOUS
  0
VERTEX
  8
LAYER1
 62
     7
  6
CONTINUOUS
 10
7511.8831
 20
19036.3047
  0
VERTEX
  8
LAYER1
 62
     7
  6
CONTINUOUS
 10
10259.5415
 20
19036.3047
  0
SEQEND
  8
LAYER1
  0
POLYLINE
  8
LAYER1
 62
     7
 66
     1
  6
CONTINUOUS
  0
VERTEX
  8
LAYER1
 62
     7
  6
CONTINUOUS
 10
5561.5243
 20
12932.7449
  0
VERTEX
  8
LAYER1
 62
     7
  6
CONTINUOUS
 10
5627.7329
 20
12943.7851
  0
VERTEX
  8
LAYER1
 62
     7
  6
CONTINUOUS
 10
6245.6746
 20
12976.8891
  0
VERTEX
  8
LAYER1
 62
     7
  6
CONTINUOUS
 10
6841.5525
 20
13021.0345
  0
VERTEX
  8
LAYER1
 62
     7
  6
CONTINUOUS
 10
7636.0555
 20
13087.2425
  0
VERTEX
  8
LAYER1
 62
     7
  6
CONTINUOUS
 10
8353.3264
 20
13142.4115
  0
VERTEX
  8
LAYER1
 62
     7
  6
CONTINUOUS
 10
8971.2681
 20
13153.4517
  0
VERTEX
  8
LAYER1
 62
     7
  6
CONTINUOUS
 10
9302.3110
 20
13153.4517
  0
VERTEX
  8
LAYER1
 62
     7
  6
CONTINUOUS
 10
9754.7315
 20
13164.4753
  0
VERTEX
  8
LAYER1
 62
     7
  6
CONTINUOUS
 10
10240.2715
 20
13197.5804
  0
VERTEX
  8
LAYER1
 62
     7
  6
CONTINUOUS
 10
10847.1741
 20
13219.6597
  0
VERTEX
  8
LAYER1
 62
     7
  6
CONTINUOUS
 10
11443.0520
 20
13175.5155
  0
VERTEX
  8
LAYER1
 62
     7
  6
CONTINUOUS
 10
12237.5550
 20
13087.2425
  0
VERTEX
  8
LAYER1
 62
     7
  6
CONTINUOUS
 10
13263.7884
 20
13032.0581
  0
VERTEX
  8
LAYER1
 62
     7
  6
CONTINUOUS
 10
14753.4826
 20
12987.9294
  0
VERTEX
  8
LAYER1
 62
     7
  6
CONTINUOUS
 10
15890.0682
 20
12932.7449
  0
VERTEX
  8
LAYER1
 62
     7
  6
CONTINUOUS
 10
17203.2009
 20
12910.6811
  0
VERTEX
  8
LAYER1
 62
     7
  6
CONTINUOUS
 10
18130.1223
 20
12844.4720
  0
VERTEX
  8
LAYER1
 62
     7
  6
CONTINUOUS
 10
18946.7058
 20
12800.3277
  0
VERTEX
  8
LAYER1
 62
     7
  6
CONTINUOUS
 10
19851.5468
 20
12712.0548
  0
VERTEX
  8
LAYER1
 62
     7
  6
CONTINUOUS
 10
20359.1517
 20
12656.8870
  0
VERTEX
  8
LAYER1
 62
     7
  6
CONTINUOUS
 10
20712.2578
 20
12634.8066
  0
VERTEX
  8
LAYER1
 62
     7
  6
CONTINUOUS
 10
20899.8594
 20
12634.8066
  0
SEQEND
  8
LAYER1
  0
POLYLINE
  8
LAYER1
 62
     7
 66
     1
  6
CONTINUOUS
  0
VERTEX
  8
LAYER1
 62
     7
  6
CONTINUOUS
 10
6245.6746
 20
12976.8891
  0
VERTEX
  8
LAYER1
 62
     7
  6
CONTINUOUS
 10
6024.9845
 20
12778.2640
  0
VERTEX
  8
LAYER1
 62
     7
  6
CONTINUOUS
 10
5969.8161
 20
12425.1567
  0
VERTEX
  8
LAYER1
 62
     7
  6
CONTINUOUS
 10
5914.6316
 20
11972.7207
  0
VERTEX
  8
LAYER1
 62
     7
  6
CONTINUOUS
 10
5804.2943
 20
11432.0272
  0
VERTEX
  8
LAYER1
 62
     7
  6
CONTINUOUS
 10
5649.7973
 20
10913.3809
  0
VERTEX
  8
LAYER1
 62
     7
  6
CONTINUOUS
 10
5528.4197
 20
10472.0018
  0
VERTEX
  8
LAYER1
 62
     7
  6
CONTINUOUS
 10
5396.0026
 20
9931.2923
  0
VERTEX
  8
LAYER1
 62
     7
  6
CONTINUOUS
 10
5241.5210
 20
9158.8542
  0
VERTEX
  8
LAYER1
 62
     7
  6
CONTINUOUS
 10
5186.3366
 20
8618.1608
  0
VERTEX
  8
LAYER1
 62
     7
  6
CONTINUOUS
 10
5153.2326
 20
8066.4116
  0
VERTEX
  8
LAYER1
 62
     7
  6
CONTINUOUS
 10
5197.3768
 20
7459.5096
  0
VERTEX
  8
LAYER1
 62
     7
  6
CONTINUOUS
 10
5396.0026
 20
6918.8007
  0
VERTEX
  8
LAYER1
 62
     7
  6
CONTINUOUS
 10
5671.8771
 20
6367.0676
  0
VERTEX
  8
LAYER1
 62
     7
  6
CONTINUOUS
 10
6013.9448
 20
5947.7356
  0
VERTEX
  8
LAYER1
 62
     7
  6
CONTINUOUS
 10
6753.2795
 20
5682.9013
  0
VERTEX
  8
LAYER1
 62
     7
  6
CONTINUOUS
 10
7713.3043
 20
5528.4197
  0
VERTEX
  8
LAYER1
 62
     7
  6
CONTINUOUS
 10
8518.8476
 20
5451.1715
  0
VERTEX
  8
LAYER1
 62
     7
  6
CONTINUOUS
 10
9225.0628
 20
5296.6894
  0
VERTEX
  8
LAYER1
 62
     7
  6
CONTINUOUS
 10
10240.2715
 20
5098.0636
  0
VERTEX
  8
LAYER1
 62
     7
  6
CONTINUOUS
 10
10968.5665
 20
4998.7510
  0
VERTEX
  8
LAYER1
 62
     7
  6
CONTINUOUS
 10
11972.7207
 20
4877.3735
  0
VERTEX
  8
LAYER1
 62
     7
  6
CONTINUOUS
 10
12987.9294
 20
4822.1894
  0
VERTEX
  8
LAYER1
 62
     7
  6
CONTINUOUS
 10
13804.4974
 20
4800.1250
  0
VERTEX
  8
LAYER1
 62
     7
  6
CONTINUOUS
 10
14797.6268
 20
4789.0851
  0
VERTEX
  8
LAYER1
 62
     7
  6
CONTINUOUS
 10
15724.5470
 20
4811.1649
  0
VERTEX
  8
LAYER1
 62
     7
  6
CONTINUOUS
 10
16331.4651
 20
4789.0851
  0
VERTEX
  8
LAYER1
 62
     7
  6
CONTINUOUS
 10
16938.3665
 20
4822.1894
  0
VERTEX
  8
LAYER1
 62
     7
  6
CONTINUOUS
 10
17865.2880
 20
4899.4379
  0
VERTEX
  8
LAYER1
 62
     7
  6
CONTINUOUS
 10
18781.1823
 20
4987.7108
  0
VERTEX
  8
LAYER1
 62
     7
  6
CONTINUOUS
 10
19299.8119
 20
5252.5452
  0
VERTEX
  8
LAYER1
 62
     7
  6
CONTINUOUS
 10
19675.0009
 20
5782.2145
  0
VERTEX
  8
LAYER1
 62
     7
  6
CONTINUOUS
 10
20127.4202
 20
6400.1716
  0
VERTEX
  8
LAYER1
 62
     7
  6
CONTINUOUS
 10
20370.1907
 20
6918.8007
  0
VERTEX
  8
LAYER1
 62
     7
  6
CONTINUOUS
 10
20590.8809
 20
7426.4056
  0
VERTEX
  8
LAYER1
 62
     7
  6
CONTINUOUS
 10
20723.2992
 20
7945.0347
  0
VERTEX
  8
LAYER1
 62
     7
  6
CONTINUOUS
 10
20811.5710
 20
8485.7436
  0
VERTEX
  8
LAYER1
 62
     7
  6
CONTINUOUS
 10
20855.7152
 20
9015.4123
  0
VERTEX
  8
LAYER1
 62
     7
  6
CONTINUOUS
 10
20822.6124
 20
9467.8322
  0
VERTEX
  8
LAYER1
 62
     7
  6
CONTINUOUS
 10
20701.2331
 20
10118.8790
  0
VERTEX
  8
LAYER1
 62
     7
  6
CONTINUOUS
 10
20535.7119
 20
10725.7971
  0
VERTEX
  8
LAYER1
 62
     7
  6
CONTINUOUS
 10
20458.4649
 20
11045.7993
  0
VERTEX
  8
LAYER1
 62
     7
  6
CONTINUOUS
 10
20348.1103
 20
11465.1312
  0
VERTEX
  8
LAYER1
 62
     7
  6
CONTINUOUS
 10
20292.9413
 20
12083.0729
  0
VERTEX
  8
LAYER1
 62
     7
  6
CONTINUOUS
 10
20292.9413
 20
12259.6343
  0
VERTEX
  8
LAYER1
 62
     7
  6
CONTINUOUS
 10
20359.1517
 20
12656.8870
  0
SEQEND
  8
LAYER1
  0
POLYLINE
  8
LAYER1
 62
     7
 66
     1
  6
CONTINUOUS
  0
VERTEX
  8
LAYER1
 62
     7
  6
CONTINUOUS
 10
5396.0026
 20
9931.2923
  0
VERTEX
  8
LAYER1
 62
     7
  6
CONTINUOUS
 10
5429.1072
 20
9754.7309
  0
VERTEX
  8
LAYER1
 62
     7
  6
CONTINUOUS
 10
5870.5029
 20
9666.4580
  0
VERTEX
  8
LAYER1
 62
     7
  6
CONTINUOUS
 10
6466.3808
 20
9600.2494
  0
VERTEX
  8
LAYER1
 62
     7
  6
CONTINUOUS
 10
7382.2614
 20
9556.1052
  0
VERTEX
  8
LAYER1
 62
     7
  6
CONTINUOUS
 10
8386.4304
 20
9545.0810
  0
VERTEX
  8
LAYER1
 62
     7
  6
CONTINUOUS
 10
9269.2070
 20
9534.0408
  0
VERTEX
  8
LAYER1
 62
     7
  6
CONTINUOUS
 10
9997.5021
 20
9523.0006
  0
VERTEX
  8
LAYER1
 62
     7
  6
CONTINUOUS
 10
10814.0701
 20
9445.7678
  0
VERTEX
  8
LAYER1
 62
     7
  6
CONTINUOUS
 10
11498.2352
 20
9412.6638
  0
VERTEX
  8
LAYER1
 62
     7
  6
CONTINUOUS
 10
12403.0762
 20
9368.5196
  0
VERTEX
  8
LAYER1
 62
     7
  6
CONTINUOUS
 10
13208.6195
 20
9412.6638
  0
VERTEX
  8
LAYER1
 62
     7
  6
CONTINUOUS
 10
14135.5409
 20
9467.8322
  0
VERTEX
  8
LAYER1
 62
     7
  6
CONTINUOUS
 10
14941.0842
 20
9500.9368
  0
VERTEX
  8
LAYER1
 62
     7
  6
CONTINUOUS
 10
15570.0649
 20
9500.9368
  0
VERTEX
  8
LAYER1
 62
     7
  6
CONTINUOUS
 10
16386.6341
 20
9511.9764
  0
VERTEX
  8
LAYER1
 62
     7
  6
CONTINUOUS
 10
17192.1762
 20
9478.8724
  0
VERTEX
  8
LAYER1
 62
     7
  6
CONTINUOUS
 10
17898.3908
 20
9467.8322
  0
VERTEX
  8
LAYER1
 62
     7
  6
CONTINUOUS
 10
18593.5830
 20
9456.7920
  0
VERTEX
  8
LAYER1
 62
     7
  6
CONTINUOUS
 10
19200.4987
 20
9489.8966
  0
VERTEX
  8
LAYER1
 62
     7
  6
CONTINUOUS
 10
19553.6072
 20
9523.0006
  0
VERTEX
  8
LAYER1
 62
     7
  6
CONTINUOUS
 10
19961.8990
 20
9567.1454
  0
VERTEX
  8
LAYER1
 62
     7
  6
CONTINUOUS
 10
20315.0075
 20
9600.2494
  0
VERTEX
  8
LAYER1
 62
     7
  6
CONTINUOUS
 10
20822.6124
 20
9467.8322
  0
SEQEND
  8
LAYER1
  0
POLYLINE
  8
LAYER1
 62
     7
 66
     1
  6
CONTINUOUS
  0
VERTEX
  8
LAYER1
 62
     7
  6
CONTINUOUS
 10
30113.8832
 20
12811.3680
  0
VERTEX
  8
LAYER1
 62
     7
  6
CONTINUOUS
 10
30389.7566
 20
12789.3042
  0
VERTEX
  8
LAYER1
 62
     7
  6
CONTINUOUS
 10
31272.5338
 20
12767.2237
  0
VERTEX
  8
LAYER1
 62
     7
  6
CONTINUOUS
 10
31901.5157
 20
12745.1600
  0
VERTEX
  8
LAYER1
 62
     7
  6
CONTINUOUS
 10
32707.0578
 20
12734.1197
  0
VERTEX
  8
LAYER1
 62
     7
  6
CONTINUOUS
 10
33413.2891
 20
12656.8870
  0
VERTEX
  8
LAYER1
 62
     7
  6
CONTINUOUS
 10
34483.6512
 20
12579.6376
  0
VERTEX
  8
LAYER1
 62
     7
  6
CONTINUOUS
 10
35631.2770
 20
12524.4698
  0
VERTEX
  8
LAYER1
 62
     7
  6
CONTINUOUS
 10
36414.7411
 20
12546.5336
  0
VERTEX
  8
LAYER1
 62
     7
  6
CONTINUOUS
 10
37330.6234
 20
12557.5738
  0
VERTEX
  8
LAYER1
 62
     7
  6
CONTINUOUS
 10
38058.9161
 20
12634.8066
  0
VERTEX
  8
LAYER1
 62
     7
  6
CONTINUOUS
 10
38588.5872
 20
12634.8066
  0
VERTEX
  8
LAYER1
 62
     7
  6
CONTINUOUS
 10
39305.8575
 20
12634.8066
  0
VERTEX
  8
LAYER1
 62
     7
  6
CONTINUOUS
 10
39934.8394
 20
12634.8066
  0
VERTEX
  8
LAYER1
 62
     7
  6
CONTINUOUS
 10
40762.4453
 20
12579.6376
  0
VERTEX
  8
LAYER1
 62
     7
  6
CONTINUOUS
 10
41281.0773
 20
12524.4698
  0
VERTEX
  8
LAYER1
 62
     7
  6
CONTINUOUS
 10
42174.8935
 20
12425.1567
  0
VERTEX
  8
LAYER1
 62
     7
  6
CONTINUOUS
 10
42704.5622
 20
12369.9722
  0
VERTEX
  8
LAYER1
 62
     7
  6
CONTINUOUS
 10
43300.4366
 20
12381.0124
  0
VERTEX
  8
LAYER1
 62
     7
  6
CONTINUOUS
 10
43841.1467
 20
12414.1164
  0
VERTEX
  8
LAYER1
 62
     7
  6
CONTINUOUS
 10
44161.1524
 20
12436.1802
  0
VERTEX
  8
LAYER1
 62
     7
  6
CONTINUOUS
 10
44569.4417
 20
12513.4296
  0
VERTEX
  8
LAYER1
 62
     7
  6
CONTINUOUS
 10
44823.2370
 20
12513.4296
  0
VERTEX
  8
LAYER1
 62
     7
  6
CONTINUOUS
 10
45043.9272
 20
12502.3894
  0
SEQEND
  8
LAYER1
  0
POLYLINE
  8
LAYER1
 62
     7
 66
     1
  6
CONTINUOUS
  0
VERTEX
  8
LAYER1
 62
     7
  6
CONTINUOUS
 10
30389.7566
 20
12789.3042
  0
VERTEX
  8
LAYER1
 62
     7
  6
CONTINUOUS
 10
30665.6324
 20
12778.2640
  0
VERTEX
  8
LAYER1
 62
     7
  6
CONTINUOUS
 10
30566.3192
 20
12436.1802
  0
VERTEX
  8
LAYER1
 62
     7
  6
CONTINUOUS
 10
30389.7566
 20
11972.7207
  0
VERTEX
  8
LAYER1
 62
     7
  6
CONTINUOUS
 10
30257.3406
 20
11542.3640
  0
VERTEX
  8
LAYER1
 62
     7
  6
CONTINUOUS
 10
30080.7780
 20
10891.3183
  0
VERTEX
  8
LAYER1
 62
     7
  6
CONTINUOUS
 10
29948.3621
 20
10251.2962
  0
VERTEX
  8
LAYER1
 62
     7
  6
CONTINUOUS
 10
29793.8799
 20
9699.5626
  0
VERTEX
  8
LAYER1
 62
     7
  6
CONTINUOUS
 10
29705.6058
 20
9037.4767
  0
VERTEX
  8
LAYER1
 62
     7
  6
CONTINUOUS
 10
29771.8161
 20
8276.0776
  0
VERTEX
  8
LAYER1
 62
     7
  6
CONTINUOUS
 10
29981.4649
 20
7625.0314
  0
VERTEX
  8
LAYER1
 62
     7
  6
CONTINUOUS
 10
30191.1302
 20
6962.9449
  0
VERTEX
  8
LAYER1
 62
     7
  6
CONTINUOUS
 10
30400.7980
 20
6311.8832
  0
VERTEX
  8
LAYER1
 62
     7
  6
CONTINUOUS
 10
30555.2778
 20
5848.4231
  0
VERTEX
  8
LAYER1
 62
     7
  6
CONTINUOUS
 10
30820.1121
 20
5440.1468
  0
VERTEX
  8
LAYER1
 62
     7
  6
CONTINUOUS
 10
31603.5761
 20
5131.1682
  0
VERTEX
  8
LAYER1
 62
     7
  6
CONTINUOUS
 10
32530.4976
 20
4888.3979
  0
VERTEX
  8
LAYER1
 62
     7
  6
CONTINUOUS
 10
33258.7926
 20
4722.8765
  0
VERTEX
  8
LAYER1
 62
     7
  6
CONTINUOUS
 10
34925.0481
 20
4656.6679
  0
VERTEX
  8
LAYER1
 62
     7
  6
CONTINUOUS
 10
36525.0933
 20
4458.0418
  0
VERTEX
  8
LAYER1
 62
     7
  6
CONTINUOUS
 10
37573.3916
 20
4402.8732
  0
VERTEX
  8
LAYER1
 62
     7
  6
CONTINUOUS
 10
38621.6900
 20
4413.9134
  0
VERTEX
  8
LAYER1
 62
     7
  6
CONTINUOUS
 10
39890.6952
 20
4458.0418
  0
VERTEX
  8
LAYER1
 62
     7
  6
CONTINUOUS
 10
41148.6566
 20
4491.1461
  0
VERTEX
  8
LAYER1
 62
     7
  6
CONTINUOUS
 10
42196.9573
 20
4645.6434
  0
VERTEX
  8
LAYER1
 62
     7
  6
CONTINUOUS
 10
42914.2253
 20
4778.0606
  0
VERTEX
  8
LAYER1
 62
     7
  6
CONTINUOUS
 10
43443.8940
 20
5042.8953
  0
VERTEX
  8
LAYER1
 62
     7
  6
CONTINUOUS
 10
43808.0415
 20
5462.2112
  0
VERTEX
  8
LAYER1
 62
     7
  6
CONTINUOUS
 10
44337.7102
 20
6223.6102
  0
VERTEX
  8
LAYER1
 62
     7
  6
CONTINUOUS
 10
44547.3637
 20
6532.5894
  0
VERTEX
  8
LAYER1
 62
     7
  6
CONTINUOUS
 10
44801.1733
 20
7128.4667
  0
VERTEX
  8
LAYER1
 62
     7
  6
CONTINUOUS
 10
44911.5112
 20
7658.1360
  0
VERTEX
  8
LAYER1
 62
     7
  6
CONTINUOUS
 10
44900.4841
 20
8276.0776
  0
VERTEX
  8
LAYER1
 62
     7
  6
CONTINUOUS
 10
44900.4841
 20
9103.6853
  0
VERTEX
  8
LAYER1
 62
     7
  6
CONTINUOUS
 10
44933.5893
 20
9633.3540
  0
VERTEX
  8
LAYER1
 62
     7
  6
CONTINUOUS
 10
44900.4841
 20
10151.9830
  0
VERTEX
  8
LAYER1
 62
     7
  6
CONTINUOUS
 10
44823.2370
 20
10692.6920
  0
VERTEX
  8
LAYER1
 62
     7
  6
CONTINUOUS
 10
44734.9629
 20
11078.9045
  0
VERTEX
  8
LAYER1
 62
     7
  6
CONTINUOUS
 10
44635.6521
 20
11487.1962
  0
VERTEX
  8
LAYER1
 62
     7
  6
CONTINUOUS
 10
44514.2585
 20
11807.1983
  0
VERTEX
  8
LAYER1
 62
     7
  6
CONTINUOUS
 10
44392.8791
 20
12027.9051
  0
VERTEX
  8
LAYER1
 62
     7
  6
CONTINUOUS
 10
44337.7102
 20
12193.4263
  0
VERTEX
  8
LAYER1
 62
     7
  6
CONTINUOUS
 10
44161.1524
 20
12436.1802
  0
SEQEND
  8
LAYER1
  0
POLYLINE
  8
LAYER1
 62
     7
 66
     1
  6
CONTINUOUS
  0
VERTEX
  8
LAYER1
 62
     7
  6
CONTINUOUS
 10
29705.6058
 20
9037.4767
  0
VERTEX
  8
LAYER1
 62
     7
  6
CONTINUOUS
 10
29749.7357
 20
9258.1668
  0
VERTEX
  8
LAYER1
 62
     7
  6
CONTINUOUS
 10
30158.0274
 20
9291.2714
  0
VERTEX
  8
LAYER1
 62
     7
  6
CONTINUOUS
 10
31029.7799
 20
9258.1668
  0
VERTEX
  8
LAYER1
 62
     7
  6
CONTINUOUS
 10
31614.6176
 20
9214.0381
  0
VERTEX
  8
LAYER1
 62
     7
  6
CONTINUOUS
 10
32629.8107
 20
9158.8542
  0
VERTEX
  8
LAYER1
 62
     7
  6
CONTINUOUS
 10
33424.3138
 20
9092.6456
  0
VERTEX
  8
LAYER1
 62
     7
  6
CONTINUOUS
 10
34351.2352
 20
9059.5410
  0
VERTEX
  8
LAYER1
 62
     7
  6
CONTINUOUS
 10
35388.5088
 20
9103.6853
  0
VERTEX
  8
LAYER1
 62
     7
  6
CONTINUOUS
 10
36668.5364
 20
9158.8542
  0
VERTEX
  8
LAYER1
 62
     7
  6
CONTINUOUS
 10
37959.6053
 20
9180.9341
  0
VERTEX
  8
LAYER1
 62
     7
  6
CONTINUOUS
 10
38974.8128
 20
9169.8939
  0
VERTEX
  8
LAYER1
 62
     7
  6
CONTINUOUS
 10
39681.0274
 20
9103.6853
  0
VERTEX
  8
LAYER1
 62
     7
  6
CONTINUOUS
 10
40685.1982
 20
8982.3083
  0
VERTEX
  8
LAYER1
 62
     7
  6
CONTINUOUS
 10
41501.7674
 20
8860.9153
  0
VERTEX
  8
LAYER1
 62
     7
  6
CONTINUOUS
 10
42395.5837
 20
8794.7067
  0
VERTEX
  8
LAYER1
 62
     7
  6
CONTINUOUS
 10
43013.5218
 20
8860.9153
  0
VERTEX
  8
LAYER1
 62
     7
  6
CONTINUOUS
 10
43598.3785
 20
8949.2037
  0
VERTEX
  8
LAYER1
 62
     7
  6
CONTINUOUS
 10
43951.4846
 20
9037.4767
  0
VERTEX
  8
LAYER1
 62
     7
  6
CONTINUOUS
 10
44205.2942
 20
9059.5410
  0
VERTEX
  8
LAYER1
 62
     7
  6
CONTINUOUS
 10
44459.0895
 20
9070.5813
  0
VERTEX
  8
LAYER1
 62
     7
  6
CONTINUOUS
 10
44900.4841
 20
9103.6853
  0
SEQEND
  8
LAYER1
  0
POLYLINE
  8
LAYER1
 62
     7
 66
     1
  6
CONTINUOUS
  0
VERTEX
  8
LAYER1
 62
     7
  6
CONTINUOUS
 10
7511.8831
 20
19329.5742
  0
VERTEX
  8
LAYER1
 62
     7
  6
CONTINUOUS
 10
7511.8831
 20
19036.3047
  0
SEQEND
  8
LAYER1
  0
POLYLINE
  8
LAYER1
 62
     7
 66
     1
  6
CONTINUOUS
  0
VERTEX
  8
LAYER1
 62
     7
  6
CONTINUOUS
 10
10259.5415
 20
19036.3047
  0
VERTEX
  8
LAYER1
 62
     7
  6
CONTINUOUS
 10
7511.8831
 20
19036.3047
  0
SEQEND
  8
LAYER1
  0
POLYLINE
  8
LAYER1
 62
     7
 66
     1
  6
CONTINUOUS
  0
VERTEX
  8
LAYER1
 62
     7
  6
CONTINUOUS
 10
35359.4471
 20
18209.5400
  0
VERTEX
  8
LAYER1
 62
     7
  6
CONTINUOUS
 10
35370.4885
 20
23671.7529
  0
SEQEND
  8
LAYER1
  0
POLYLINE
  8
LAYER1
 62
     7
 66
     1
  6
CONTINUOUS
  0
VERTEX
  8
LAYER1
 62
     7
  6
CONTINUOUS
 10
35370.4885
 20
23671.7529
  0
VERTEX
  8
LAYER1
 62
     7
  6
CONTINUOUS
 10
34994.1773
 20
22592.8798
  0
SEQEND
  8
LAYER1
  0
POLYLINE
  8
LAYER1
 62
     7
 66
     1
  6
CONTINUOUS
  0
VERTEX
  8
LAYER1
 62
     7
  6
CONTINUOUS
 10
10259.5415
 20
19036.3047
  0
VERTEX
  8
LAYER1
 62
     7
  6
CONTINUOUS
 10
13007.1827
 20
19036.3047
  0
SEQEND
  8
LAYER1
  0
POLYLINE
  8
LAYER1
 62
     7
 66
     1
  6
CONTINUOUS
  0
VERTEX
  8
LAYER1
 62
     7
  6
CONTINUOUS
 10
13007.1827
 20
19036.3047
  0
VERTEX
  8
LAYER1
 62
     7
  6
CONTINUOUS
 10
13007.1827
 20
19332.4167
  0
SEQEND
  8
LAYER1
  0
POLYLINE
  8
LAYER1
 62
     7
 66
     1
  6
CONTINUOUS
  0
VERTEX
  8
LAYER1
 62
     7
  6
CONTINUOUS
 10
13007.1827
 20
19036.3047
  0
VERTEX
  8
LAYER1
 62
     7
  6
CONTINUOUS
 10
10259.5415
 20
19036.3047
  0
SEQEND
  8
LAYER1
  0
POLYLINE
  8
LAYER1
 62
     3
 66
     1
  6
CONTINUOUS
  0
VERTEX
  8
LAYER1
 62
     3
  6
CONTINUOUS
 10
23860.6340
 20
24855.8698
  0
VERTEX
  8
LAYER1
 62
     3
  6
CONTINUOUS
 10
23860.6340
 20
28623.5303
  0
SEQEND
  8
LAYER1
  0
POLYLINE
  8
LAYER1
 62
     3
 66
     1
  6
CONTINUOUS
  0
VERTEX
  8
LAYER1
 62
     3
  6
CONTINUOUS
 10
23860.6340
 20
38957.6812
  0
VERTEX
  8
LAYER1
 62
     3
  6
CONTINUOUS
 10
23860.6340
 20
41325.9244
  0
SEQEND
  8
LAYER1
  0
POLYLINE
  8
LAYER1
 62
     3
 66
     1
  6
CONTINUOUS
  0
VERTEX
  8
LAYER1
 62
     3
  6
CONTINUOUS
 10
15356.4966
 20
33144.7210
  0
VERTEX
  8
LAYER1
 62
     3
  6
CONTINUOUS
 10
18908.8543
 20
33144.7210
  0
SEQEND
  8
LAYER1
  0
POLYLINE
  8
LAYER1
 62
     3
 66
     1
  6
CONTINUOUS
  0
VERTEX
  8
LAYER1
 62
     3
  6
CONTINUOUS
 10
28920.0664
 20
33144.7210
  0
VERTEX
  8
LAYER1
 62
     3
  6
CONTINUOUS
 10
32795.3629
 20
33144.7210
  0
SEQEND
  8
LAYER1
  0
ENDSEC
  0
EOF
