  0
SECTION
  2
HEADER
  9
$ACADVER
  1
AC1004
  9
$EXTMIN
 10
1879.3098
 20
3630.1688
  9
$EXTMAX
 10
25534.9312
 20
21407.4501
  9
$LIMMIN
 10
1879.3098
 20
3630.1688
  9
$LIMMAX
 10
25534.9312
 20
21407.4501
  9
$INSBASE
 10
0.0
 20
0.0
  9
$VIEWCTR
 10
7.21903
 20
4.5
  9
$VIEWSIZE
 40
9.0
  9
$SNAPMODE
 70
     0
  9
$SNAPUNIT
 10
1.0
 20
1.0
  9
$SNAPBASE
 10
0.0
 20
0.0
  9
$SNAPANG
 50
0.0
  9
$SNAPSTYLE
 70
     0
  9
$SNAPISOPAIR
 70
     0
  9
$GRIDMODE
 70
     0
  9
$GRIDUNIT
 10
0.0
 20
0.0
  9
$ORTHOMODE
 70
     0
  9
$REGENMODE
 70
     1
  9
$FILLMODE
 70
     1
  9
$QTEXTMODE
 70
     0
  9
$DRAGMODE
 70
     2
  9
$LTSCALE
 40
1.0
  9
$OSMODE
 70
     0
  9
$ATTMODE
 70
     1
  9
$TEXTSIZE
 40
0.2
  9
$TRACEWID
 40
0.05
  9
$TEXTSTYLE
  7
STANDARD
  9
$CLAYER
  8
0
  9
$CELTYPE
  6
BYLAYER
  9
$CECOLOR
 62
   256
  9
$DIMSCALE
 40
1.0
  9
$DIMASZ
 40
0.18
  9
$DIMEXO
 40
0.0625
  9
$DIMDLI
 40
0.38
  9
$DIMRND
 40
0.0
  9
$DIMDLE
 40
0.0
  9
$DIMEXE
 40
0.18
  9
$DIMTP
 40
0.0
  9
$DIMTM
 40
0.0
  9
$DIMTXT
 40
0.18
  9
$DIMCEN
 40
0.09
  9
$DIMTSZ
 40
0.0
  9
$DIMTOL
 70
     0
  9
$DIMLIM
 70
     0
  9
$DIMTIH
 70
     1
  9
$DIMTOH
 70
     1
  9
$DIMSE1
 70
     0
  9
$DIMSE2
 70
     0
  9
$DIMTAD
 70
     0
  9
$DIMZIN
 70
     0
  9
$DIMBLK
  1

  9
$DIMASO
 70
     1
  9
$DIMSHO
 70
     0
  9
$DIMPOST
  1

  9
$DIMAPOST
  1

  9
$DIMALT
 70
     0
  9
$DIMALTD
 70
     2
  9
$DIMALTF
 40
25.4
  9
$DIMLFAC
 40
1.0
  9
$LUNITS
 70
     2
  9
$LUPREC
 70
     4
  9
$AXISMODE
 70
     0
  9
$AXISUNIT
 10
0.0
 20
0.0
  9
$SKETCHINC
 40
0.1
  9
$FILLETRAD
 40
0.0
  9
$AUNITS
 70
     0
  9
$AUPREC
 70
     0
  9
$MENU
  1
acad
  9
$ELEVATION
 40
0.0
  9
$THICKNESS
 40
0.0
  9
$VIEWDIR
 10
0.0
 20
0.0
 30
1.0
  9
$LIMCHECK
 70
     0
  9
$BLIPMODE
 70
     1
  9
$CHAMFERA
 40
0.0
  9
$CHAMFERB
 40
0.0
  9
$FASTZOOM
 70
     1
  9
$SKPOLY
 70
     0
  9
$TDCREATE
 40
2447222.5666886573
  9
$TDUPDATE
 40
2447222.5666886573
  9
$TDINDWG
 40
0.0000000000
  9
$TDUSRTIMER
 40
0.0000000000
  9
$USRTIMER
 70
     1
  9
$ANGBASE
 50
0.0
  9
$ANGDIR
 70
     0
  9
$PDMODE
 70
     0
  9
$PDSIZE
 40
0.0
  9
$PLINEWID
 40
0.0
  9
$COORDS
 70
     0
  9
$SPLFRAME
 70
     0
  9
$SPLINESEGS
 70
     8
  9
$ATTDIA
 70
     0
  9
$ATTREQ
 70
     1
  9
$USERI1
 70
     0
  9
$USERI2
 70
     0
  9
$USERI3
 70
     0
  9
$USERI4
 70
     0
  9
$USERI5
 70
     0
  9
$USERR1
 40
0.0
  9
$USERR2
 40
0.0
  9
$USERR3
 40
0.0
  9
$USERR4
 40
0.0
  9
$USERR5
 40
0.0
  0
ENDSEC
  0
SECTION
  2
TABLES
  0
TABLE
  2
LTYPE
 70
     13
  0
LTYPE
  2
CONTINUOUS
 70
    64
  3
Solid line
 72
    65
 73
     0
 40
0.0
  0
LTYPE
  2
DASHED
 70
    64
  3
__ __ __ __ __ __ __ __ __ __ __ __ __ __ __
 72
    65
 73
     2
 40
0.75
 49
0.5
 49
-0.25
  0
LTYPE
  2
HIDDEN
 70
    64
  3
_ _ _ _ _ _ _ _ _ _ _ _ _ _ _ _ _ _ _ _ _ _ _
 72
    65
 73
     2
 40
0.375
 49
0.25
 49
-0.125
  0
LTYPE
  2
CENTER
 70
    64
  3
____ _ ____ _ ____ _ ____ _ ____ _ ____ _ ____
 72
    65
 73
     4
 40
2.0
 49
1.25
 49
-0.25
 49
0.25
 49
-0.25
  0
LTYPE
  2
PHANTOM
 70
    64
  3
_____ _ _ _____ _ _ _____ _ _ _____ _ _ ____
 72
    65
 73
     6
 40
2.5
 49
1.25
 49
-0.25
 49
0.25
 49
-0.25
 49
0.25
 49
-0.25
  0
LTYPE
  2
DOT
 70
    64
  3
...............................................
 72
    65
 73
     2
 40
0.25
 49
0.0
 49
-0.25
  0
LTYPE
  2
DASHDOT
 70
    64
  3
__ . __ . __ . __ . __ . __ . __ . __ . __ . __
 72
    65
 73
     4
 40
1.0
 49
0.5
 49
-0.25
 49
0.0
 49
-0.25
  0
LTYPE
  2
BORDER
 70
    64
  3
__ __ . __ __ . __ __ . __ __ . __ __ . __ __
 72
    65
 73
     6
 40
1.75
 49
0.5
 49
-0.25
 49
0.5
 49
-0.25
 49
0.0
 49
-0.25
  0
LTYPE
  2
DIVIDE
 70
    64
  3
__ . . __ . . __ . . __ . . __ . . __ . . __
 72
    65
 73
     6
 40
1.25
 49
0.5
 49
-0.25
 49
0.0
 49
-0.25
 49
0.0
 49
-0.25
  0
LTYPE
  2
DCTYPE1
 70
    64
  3
__ . . __ . . __ . . __ . . __ . . __ . . __
 72
    65
 73
     8
 40
2.5
 49
0.5
 49
-0.25
 49
0.125
 49
-0.25
 49
0.25
 49
-0.25
 49
0.125
 49
-0.25
  0
LTYPE
  2
DCTYPE2
 70
    64
  3
__ . . __ . . __ . . __ . . __ . . __ . . __
 72
    65
 73
     6
 40
2.05
 49
1.0
 49
-0.3
 49
0.15
 49
-0.15
 49
0.15
 49
-0.3
  0
LTYPE
  2
DCTYPE3
 70
    64
  3
__ . . __ . . __ . . __ . . __ . . __ . . __
 72
    65
 73
     6
 40
2.5
 49
0.8
 49
-0.2
 49
0.8
 49
-0.2
 49
0.3
 49
-0.2
  0
LTYPE
  2
DCTYPE4
 70
    64
  3
__ . . __ . . __ . . __ . . __ . . __ . . __
 72
    65
 73
     10
 40
3.97
 49
1.75
 49
-0.3
 49
0.3
 49
-0.3
 49
0.06
 49
-0.3
 49
0.06
 49
-0.3
 49
0.3
 49
-0.3
  0
ENDTAB
  0
TABLE
  2
LAYER
 70
    153
  0
LAYER
  2
LAYER1
 70
 64
 62
     7
  6
CONTINUOUS
  0
ENDTAB
  0
ENDSEC
  0
SECTION
  2
BLOCKS
  0
ENDSEC
  0
SECTION
  2
ENTITIES
  0
POLYLINE
  8
LAYER1
 62
     7
 66
     1
  6
CONTINUOUS
  0
VERTEX
  8
LAYER1
 62
     7
  6
CONTINUOUS
 10
11310.6336
 20
19675.0009
  0
VERTEX
  8
LAYER1
 62
     7
  6
CONTINUOUS
 10
11255.4659
 20
19652.9204
  0
VERTEX
  8
LAYER1
 62
     7
  6
CONTINUOUS
 10
11123.0487
 20
19498.4383
  0
VERTEX
  8
LAYER1
 62
     7
  6
CONTINUOUS
 10
11056.8395
 20
19266.7091
  0
VERTEX
  8
LAYER1
 62
     7
  6
CONTINUOUS
 10
11134.0877
 20
19001.8748
  0
VERTEX
  8
LAYER1
 62
     7
  6
CONTINUOUS
 10
11376.8428
 20
18626.6882
  0
VERTEX
  8
LAYER1
 62
     7
  6
CONTINUOUS
 10
11785.1346
 20
18251.5159
  0
VERTEX
  8
LAYER1
 62
     7
  6
CONTINUOUS
 10
11928.5920
 20
17898.3931
  0
VERTEX
  8
LAYER1
 62
     7
  6
CONTINUOUS
 10
12016.8649
 20
17346.6583
  0
VERTEX
  8
LAYER1
 62
     7
  6
CONTINUOUS
 10
12160.3223
 20
16805.9506
  0
VERTEX
  8
LAYER1
 62
     7
  6
CONTINUOUS
 10
12314.8033
 20
16452.8421
  0
VERTEX
  8
LAYER1
 62
     7
  6
CONTINUOUS
 10
12524.4698
 20
16232.1519
  0
VERTEX
  8
LAYER1
 62
     7
  6
CONTINUOUS
 10
12866.5369
 20
15912.1343
  0
VERTEX
  8
LAYER1
 62
     7
  6
CONTINUOUS
 10
13098.2673
 20
15702.4832
  0
VERTEX
  8
LAYER1
 62
     7
  6
CONTINUOUS
 10
13418.2861
 20
15503.8569
  0
VERTEX
  8
LAYER1
 62
     7
  6
CONTINUOUS
 10
13727.2492
 20
15404.5461
  0
VERTEX
  8
LAYER1
 62
     7
  6
CONTINUOUS
 10
13936.9145
 20
15316.2553
  0
VERTEX
  8
LAYER1
 62
     7
  6
CONTINUOUS
 10
14256.9179
 20
15150.7341
  0
VERTEX
  8
LAYER1
 62
     7
  6
CONTINUOUS
 10
14676.2498
 20
14996.2543
  0
VERTEX
  8
LAYER1
 62
     7
  6
CONTINUOUS
 10
15183.8381
 20
14896.9411
  0
VERTEX
  8
LAYER1
 62
     7
  6
CONTINUOUS
 10
15592.1298
 20
14930.0440
  0
VERTEX
  8
LAYER1
 62
     7
  6
CONTINUOUS
 10
16419.7381
 20
15117.6313
  0
VERTEX
  8
LAYER1
 62
     7
  6
CONTINUOUS
 10
16728.7166
 20
15227.9835
  0
VERTEX
  8
LAYER1
 62
     7
  6
CONTINUOUS
 10
17490.1157
 20
15790.7574
  0
VERTEX
  8
LAYER1
 62
     7
  6
CONTINUOUS
 10
17887.3672
 20
16298.3623
  0
VERTEX
  8
LAYER1
 62
     7
  6
CONTINUOUS
 10
18097.0183
 20
16618.3656
  0
VERTEX
  8
LAYER1
 62
     7
  6
CONTINUOUS
 10
18328.7475
 20
17026.6550
  0
VERTEX
  8
LAYER1
 62
     7
  6
CONTINUOUS
 10
18450.1411
 20
17434.9324
  0
VERTEX
  8
LAYER1
 62
     7
  6
CONTINUOUS
 10
18516.3491
 20
17721.8472
  0
VERTEX
  8
LAYER1
 62
     7
  6
CONTINUOUS
 10
18439.1009
 20
18251.5159
  0
VERTEX
  8
LAYER1
 62
     7
  6
CONTINUOUS
 10
18383.9319
 20
18549.4555
  0
VERTEX
  8
LAYER1
 62
     7
  6
CONTINUOUS
 10
18218.4108
 20
18968.7696
  0
VERTEX
  8
LAYER1
 62
     7
  6
CONTINUOUS
 10
18041.8494
 20
19277.7482
  0
VERTEX
  8
LAYER1
 62
     7
  6
CONTINUOUS
 10
17754.9500
 20
19586.7124
  0
VERTEX
  8
LAYER1
 62
     7
  6
CONTINUOUS
 10
17445.9715
 20
19895.6910
  0
VERTEX
  8
LAYER1
 62
     7
  6
CONTINUOUS
 10
17192.1773
 20
20017.0680
  0
VERTEX
  8
LAYER1
 62
     7
  6
CONTINUOUS
 10
16640.4282
 20
20215.6943
  0
VERTEX
  8
LAYER1
 62
     7
  6
CONTINUOUS
 10
16088.6945
 20
20359.1517
  0
VERTEX
  8
LAYER1
 62
     7
  6
CONTINUOUS
 10
15559.0258
 20
20480.5287
  0
VERTEX
  8
LAYER1
 62
     7
  6
CONTINUOUS
 10
15150.7341
 20
20601.9199
  0
VERTEX
  8
LAYER1
 62
     7
  6
CONTINUOUS
 10
14610.0406
 20
20701.2331
  0
VERTEX
  8
LAYER1
 62
     7
  6
CONTINUOUS
 10
14069.3317
 20
20789.5072
  0
VERTEX
  8
LAYER1
 62
     7
  6
CONTINUOUS
 10
13716.2244
 20
20855.7152
  0
VERTEX
  8
LAYER1
 62
     7
  6
CONTINUOUS
 10
13197.5804
 20
20822.6124
  0
VERTEX
  8
LAYER1
 62
     7
  6
CONTINUOUS
 10
12767.2237
 20
20701.2331
  0
VERTEX
  8
LAYER1
 62
     7
  6
CONTINUOUS
 10
12425.1567
 20
20513.6315
  0
VERTEX
  8
LAYER1
 62
     7
  6
CONTINUOUS
 10
12160.3223
 20
20326.0465
  0
VERTEX
  8
LAYER1
 62
     7
  6
CONTINUOUS
 10
11884.4477
 20
20116.3811
  0
VERTEX
  8
LAYER1
 62
     7
  6
CONTINUOUS
 10
11696.8616
 20
19961.8990
  0
VERTEX
  8
LAYER1
 62
     7
  6
CONTINUOUS
 10
11520.3002
 20
19840.5220
  0
VERTEX
  8
LAYER1
 62
     7
  6
CONTINUOUS
 10
11310.6336
 20
19675.0009
  0
SEQEND
  8
LAYER1
  0
POLYLINE
  8
LAYER1
 62
     7
 66
     1
  6
CONTINUOUS
  0
VERTEX
  8
LAYER1
 62
     7
  6
CONTINUOUS
 10
2848.6729
 20
5340.5531
  0
VERTEX
  8
LAYER1
 62
     7
  6
CONTINUOUS
 10
2903.8570
 20
5362.6329
  0
VERTEX
  8
LAYER1
 62
     7
  6
CONTINUOUS
 10
3135.5716
 20
5362.6329
  0
VERTEX
  8
LAYER1
 62
     7
  6
CONTINUOUS
 10
3290.0686
 20
5351.5927
  0
VERTEX
  8
LAYER1
 62
     7
  6
CONTINUOUS
 10
3422.4861
 20
5362.6329
  0
VERTEX
  8
LAYER1
 62
     7
  6
CONTINUOUS
 10
3543.8634
 20
5428.8415
  0
VERTEX
  8
LAYER1
 62
     7
  6
CONTINUOUS
 10
3654.2162
 20
5495.0501
  0
VERTEX
  8
LAYER1
 62
     7
  6
CONTINUOUS
 10
3786.6333
 20
5561.2587
  0
VERTEX
  8
LAYER1
 62
     7
  6
CONTINUOUS
 10
3919.0508
 20
5594.3633
  0
VERTEX
  8
LAYER1
 62
     7
  6
CONTINUOUS
 10
4051.4680
 20
5550.2184
  0
VERTEX
  8
LAYER1
 62
     7
  6
CONTINUOUS
 10
4139.7409
 20
5472.9702
  0
VERTEX
  8
LAYER1
 62
     7
  6
CONTINUOUS
 10
4261.1337
 20
5351.5927
  0
VERTEX
  8
LAYER1
 62
     7
  6
CONTINUOUS
 10
4426.6394
 20
5252.2801
  0
VERTEX
  8
LAYER1
 62
     7
  6
CONTINUOUS
 10
4669.4099
 20
5219.1755
  0
VERTEX
  8
LAYER1
 62
     7
  6
CONTINUOUS
 10
4923.2196
 20
5219.1755
  0
VERTEX
  8
LAYER1
 62
     7
  6
CONTINUOUS
 10
5210.1189
 20
5197.1111
  0
VERTEX
  8
LAYER1
 62
     7
  6
CONTINUOUS
 10
5828.0605
 20
5042.6141
  0
VERTEX
  8
LAYER1
 62
     7
  6
CONTINUOUS
 10
6357.7298
 20
4932.2768
  0
VERTEX
  8
LAYER1
 62
     7
  6
CONTINUOUS
 10
6854.2945
 20
4921.2369
  0
VERTEX
  8
LAYER1
 62
     7
  6
CONTINUOUS
 10
7185.3375
 20
4921.2369
  0
VERTEX
  8
LAYER1
 62
     7
  6
CONTINUOUS
 10
7726.0464
 20
4910.1969
  0
VERTEX
  8
LAYER1
 62
     7
  6
CONTINUOUS
 10
8189.5065
 20
4899.1725
  0
VERTEX
  8
LAYER1
 62
     7
  6
CONTINUOUS
 10
8829.5131
 20
4910.1969
  0
VERTEX
  8
LAYER1
 62
     7
  6
CONTINUOUS
 10
9171.5963
 20
4899.1725
  0
VERTEX
  8
LAYER1
 62
     7
  6
CONTINUOUS
 10
9403.3260
 20
4921.2369
  0
VERTEX
  8
LAYER1
 62
     7
  6
CONTINUOUS
 10
9469.5346
 20
5053.6543
  0
VERTEX
  8
LAYER1
 62
     7
  6
CONTINUOUS
 10
9557.8076
 20
5208.1359
  0
VERTEX
  8
LAYER1
 62
     7
  6
CONTINUOUS
 10
9734.3696
 20
5461.9455
  0
VERTEX
  8
LAYER1
 62
     7
  6
CONTINUOUS
 10
9844.7224
 20
5550.2184
  0
VERTEX
  8
LAYER1
 62
     7
  6
CONTINUOUS
 10
9999.2033
 20
5461.9455
  0
VERTEX
  8
LAYER1
 62
     7
  6
CONTINUOUS
 10
10087.4763
 20
5340.5531
  0
VERTEX
  8
LAYER1
 62
     7
  6
CONTINUOUS
 10
10175.7659
 20
5164.0071
  0
VERTEX
  8
LAYER1
 62
     7
  6
CONTINUOUS
 10
10275.0779
 20
5075.7187
  0
VERTEX
  8
LAYER1
 62
     7
  6
CONTINUOUS
 10
10385.4158
 20
5009.5095
  0
VERTEX
  8
LAYER1
 62
     7
  6
CONTINUOUS
 10
10352.3118
 20
4744.6752
  0
VERTEX
  8
LAYER1
 62
     7
  6
CONTINUOUS
 10
10208.8699
 20
4369.5035
  0
VERTEX
  8
LAYER1
 62
     7
  6
CONTINUOUS
 10
10087.4763
 20
4082.5890
  0
VERTEX
  8
LAYER1
 62
     7
  6
CONTINUOUS
 10
9977.1396
 20
3950.1718
  0
VERTEX
  8
LAYER1
 62
     7
  6
CONTINUOUS
 10
9601.9518
 20
3773.6259
  0
VERTEX
  8
LAYER1
 62
     7
  6
CONTINUOUS
 10
9226.7647
 20
3630.1688
  0
VERTEX
  8
LAYER1
 62
     7
  6
CONTINUOUS
 10
8487.4455
 20
3696.3774
  0
VERTEX
  8
LAYER1
 62
     7
  6
CONTINUOUS
 10
7957.7767
 20
3795.6903
  0
VERTEX
  8
LAYER1
 62
     7
  6
CONTINUOUS
 10
7406.0276
 20
3872.9388
  0
VERTEX
  8
LAYER1
 62
     7
  6
CONTINUOUS
 10
6766.0216
 20
4027.4203
  0
VERTEX
  8
LAYER1
 62
     7
  6
CONTINUOUS
 10
6423.9384
 20
4126.7335
  0
VERTEX
  8
LAYER1
 62
     7
  6
CONTINUOUS
 10
5695.6434
 20
4314.3193
  0
VERTEX
  8
LAYER1
 62
     7
  6
CONTINUOUS
 10
5243.2229
 20
4391.5679
  0
VERTEX
  8
LAYER1
 62
     7
  6
CONTINUOUS
 10
4702.5139
 20
4468.8164
  0
VERTEX
  8
LAYER1
 62
     7
  6
CONTINUOUS
 10
4272.1581
 20
4557.0893
  0
VERTEX
  8
LAYER1
 62
     7
  6
CONTINUOUS
 10
3919.0508
 20
4744.6752
  0
VERTEX
  8
LAYER1
 62
     7
  6
CONTINUOUS
 10
3654.2162
 20
4921.2369
  0
VERTEX
  8
LAYER1
 62
     7
  6
CONTINUOUS
 10
3312.1330
 20
5119.8629
  0
VERTEX
  8
LAYER1
 62
     7
  6
CONTINUOUS
 10
3135.5716
 20
5197.1111
  0
VERTEX
  8
LAYER1
 62
     7
  6
CONTINUOUS
 10
2992.1300
 20
5274.3445
  0
VERTEX
  8
LAYER1
 62
     7
  6
CONTINUOUS
 10
2903.8570
 20
5362.6329
  0
SEQEND
  8
LAYER1
  0
POLYLINE
  8
LAYER1
 62
     7
 66
     1
  6
CONTINUOUS
  0
VERTEX
  8
LAYER1
 62
     7
  6
CONTINUOUS
 10
19697.5174
 20
4391.1151
  0
VERTEX
  8
LAYER1
 62
     7
  6
CONTINUOUS
 10
19885.1190
 20
4391.1151
  0
VERTEX
  8
LAYER1
 62
     7
  6
CONTINUOUS
 10
20205.1223
 20
4446.2838
  0
VERTEX
  8
LAYER1
 62
     7
  6
CONTINUOUS
 10
20646.5335
 20
4534.5568
  0
VERTEX
  8
LAYER1
 62
     7
  6
CONTINUOUS
 10
21087.9305
 20
4567.6611
  0
VERTEX
  8
LAYER1
 62
     7
  6
CONTINUOUS
 10
21584.4940
 20
4589.7409
  0
VERTEX
  8
LAYER1
 62
     7
  6
CONTINUOUS
 10
22025.8599
 20
4600.7654
  0
VERTEX
  8
LAYER1
 62
     7
  6
CONTINUOUS
 10
22544.5039
 20
4589.7409
  0
VERTEX
  8
LAYER1
 62
     7
  6
CONTINUOUS
 10
22952.7956
 20
4589.7409
  0
VERTEX
  8
LAYER1
 62
     7
  6
CONTINUOUS
 10
23327.9679
 20
4567.6611
  0
VERTEX
  8
LAYER1
 62
     7
  6
CONTINUOUS
 10
23791.4429
 20
4512.4924
  0
VERTEX
  8
LAYER1
 62
     7
  6
CONTINUOUS
 10
24299.0169
 20
4468.3479
  0
VERTEX
  8
LAYER1
 62
     7
  6
CONTINUOUS
 10
24707.3086
 20
4424.2194
  0
VERTEX
  8
LAYER1
 62
     7
  6
CONTINUOUS
 10
25027.3119
 20
4413.1792
  0
VERTEX
  8
LAYER1
 62
     7
  6
CONTINUOUS
 10
25402.5152
 20
4369.0350
  0
VERTEX
  8
LAYER1
 62
     7
  6
CONTINUOUS
 10
25534.9312
 20
4346.9706
  0
VERTEX
  8
LAYER1
 62
     7
  6
CONTINUOUS
 10
25446.6594
 20
4302.8264
  0
VERTEX
  8
LAYER1
 62
     7
  6
CONTINUOUS
 10
24983.1987
 20
4192.4891
  0
VERTEX
  8
LAYER1
 62
     7
  6
CONTINUOUS
 10
24442.4743
 20
4037.9921
  0
VERTEX
  8
LAYER1
 62
     7
  6
CONTINUOUS
 10
24188.6956
 20
3971.7835
  0
VERTEX
  8
LAYER1
 62
     7
  6
CONTINUOUS
 10
23614.8660
 20
3916.6148
  0
VERTEX
  8
LAYER1
 62
     7
  6
CONTINUOUS
 10
23019.0036
 20
3861.4461
  0
VERTEX
  8
LAYER1
 62
     7
  6
CONTINUOUS
 10
22456.2155
 20
3806.2617
  0
VERTEX
  8
LAYER1
 62
     7
  6
CONTINUOUS
 10
22014.8352
 20
3828.3419
  0
VERTEX
  8
LAYER1
 62
     7
  6
CONTINUOUS
 10
21595.5187
 20
3916.6148
  0
VERTEX
  8
LAYER1
 62
     7
  6
CONTINUOUS
 10
21143.0827
 20
4026.9676
  0
VERTEX
  8
LAYER1
 62
     7
  6
CONTINUOUS
 10
20812.0404
 20
4115.2406
  0
VERTEX
  8
LAYER1
 62
     7
  6
CONTINUOUS
 10
20569.2698
 20
4181.4492
  0
VERTEX
  8
LAYER1
 62
     7
  6
CONTINUOUS
 10
20315.4912
 20
4269.7221
  0
VERTEX
  8
LAYER1
 62
     7
  6
CONTINUOUS
 10
19885.1190
 20
4391.1151
  0
SEQEND
  8
LAYER1
  0
POLYLINE
  8
LAYER1
 62
     7
 66
     1
  6
CONTINUOUS
  0
VERTEX
  8
LAYER1
 62
     7
  6
CONTINUOUS
 10
1879.3098
 20
11443.0198
  0
VERTEX
  8
LAYER1
 62
     7
  6
CONTINUOUS
 10
7363.6013
 20
11443.0198
  0
SEQEND
  8
LAYER1
  0
POLYLINE
  8
LAYER1
 62
     7
 66
     1
  6
CONTINUOUS
  0
VERTEX
  8
LAYER1
 62
     7
  6
CONTINUOUS
 10
25348.3446
 20
16195.0676
  0
VERTEX
  8
LAYER1
 62
     7
  6
CONTINUOUS
 10
25348.3446
 20
10765.9587
  0
SEQEND
  8
LAYER1
  0
POLYLINE
  8
LAYER1
 62
     7
 66
     1
  6
CONTINUOUS
  0
VERTEX
  8
LAYER1
 62
     7
  6
CONTINUOUS
 10
25348.3446
 20
10765.9587
  0
VERTEX
  8
LAYER1
 62
     7
  6
CONTINUOUS
 10
25348.3446
 20
16195.0676
  0
SEQEND
  8
LAYER1
  0
POLYLINE
  8
LAYER1
 62
     7
 66
     1
  6
CONTINUOUS
  0
VERTEX
  8
LAYER1
 62
     7
  6
CONTINUOUS
 10
25348.3446
 20
16195.0676
  0
VERTEX
  8
LAYER1
 62
     7
  6
CONTINUOUS
 10
24976.4842
 20
15121.9868
  0
SEQEND
  8
LAYER1
  0
POLYLINE
  8
LAYER1
 62
     7
 66
     1
  6
CONTINUOUS
  0
VERTEX
  8
LAYER1
 62
     7
  6
CONTINUOUS
 10
7363.6013
 20
11443.0198
  0
VERTEX
  8
LAYER1
 62
     7
  6
CONTINUOUS
 10
7363.6013
 20
12034.0573
  0
SEQEND
  8
LAYER1
  0
POLYLINE
  8
LAYER1
 62
     7
 66
     1
  6
CONTINUOUS
  0
VERTEX
  8
LAYER1
 62
     7
  6
CONTINUOUS
 10
1879.3098
 20
12028.3888
  0
VERTEX
  8
LAYER1
 62
     7
  6
CONTINUOUS
 10
1879.3098
 20
11443.0198
  0
SEQEND
  8
LAYER1
  0
POLYLINE
  8
LAYER1
 62
     7
 66
     1
  6
CONTINUOUS
  0
VERTEX
  8
LAYER1
 62
     7
  6
CONTINUOUS
 10
7363.6013
 20
11443.0198
  0
VERTEX
  8
LAYER1
 62
     7
  6
CONTINUOUS
 10
1879.3098
 20
11443.0198
  0
SEQEND
  8
LAYER1
  0
POLYLINE
  8
LAYER1
 62
     3
 66
     1
  6
CONTINUOUS
  0
VERTEX
  8
LAYER1
 62
     3
  6
CONTINUOUS
 10
10405.7938
 20
20072.2512
  0
VERTEX
  8
LAYER1
 62
     3
  6
CONTINUOUS
 10
12199.0483
 20
19386.5397
  0
SEQEND
  8
LAYER1
  0
POLYLINE
  8
LAYER1
 62
     3
 66
     1
  6
CONTINUOUS
  0
VERTEX
  8
LAYER1
 62
     3
  6
CONTINUOUS
 10
16761.8206
 20
21407.4501
  0
VERTEX
  8
LAYER1
 62
     3
  6
CONTINUOUS
 10
16074.5949
 20
19723.5340
  0
SEQEND
  8
LAYER1
  0
POLYLINE
  8
LAYER1
 62
     3
 66
     1
  6
CONTINUOUS
  0
VERTEX
  8
LAYER1
 62
     3
  6
CONTINUOUS
 10
14378.5914
 20
15567.7870
  0
VERTEX
  8
LAYER1
 62
     3
  6
CONTINUOUS
 10
14026.5933
 20
14705.2794
  0
SEQEND
  8
LAYER1
  0
POLYLINE
  8
LAYER1
 62
     3
 66
     1
  6
CONTINUOUS
  0
VERTEX
  8
LAYER1
 62
     3
  6
CONTINUOUS
 10
17452.5298
 20
17377.6858
  0
VERTEX
  8
LAYER1
 62
     3
  6
CONTINUOUS
 10
19177.5617
 20
16718.0529
  0
SEQEND
  8
LAYER1
  0
ENDSEC
  0
EOF
