  0
SECTION
  2
HEADER
  9
$ACADVER
  1
AC1004
  9
$EXTMIN
 10
859.7127
 20
5026.5148
  9
$EXTMAX
 10
31930.5274
 20
28944.2079
  9
$LIMMIN
 10
859.7127
 20
5026.5148
  9
$LIMMAX
 10
31930.5274
 20
28944.2079
  9
$INSBASE
 10
0.0
 20
0.0
  9
$VIEWCTR
 10
7.21903
 20
4.5
  9
$VIEWSIZE
 40
9.0
  9
$SNAPMODE
 70
     0
  9
$SNAPUNIT
 10
1.0
 20
1.0
  9
$SNAPBASE
 10
0.0
 20
0.0
  9
$SNAPANG
 50
0.0
  9
$SNAPSTYLE
 70
     0
  9
$SNAPISOPAIR
 70
     0
  9
$GRIDMODE
 70
     0
  9
$GRIDUNIT
 10
0.0
 20
0.0
  9
$ORTHOMODE
 70
     0
  9
$REGENMODE
 70
     1
  9
$FILLMODE
 70
     1
  9
$QTEXTMODE
 70
     0
  9
$DRAGMODE
 70
     2
  9
$LTSCALE
 40
1.0
  9
$OSMODE
 70
     0
  9
$ATTMODE
 70
     1
  9
$TEXTSIZE
 40
0.2
  9
$TRACEWID
 40
0.05
  9
$TEXTSTYLE
  7
STANDARD
  9
$CLAYER
  8
0
  9
$CELTYPE
  6
BYLAYER
  9
$CECOLOR
 62
   256
  9
$DIMSCALE
 40
1.0
  9
$DIMASZ
 40
0.18
  9
$DIMEXO
 40
0.0625
  9
$DIMDLI
 40
0.38
  9
$DIMRND
 40
0.0
  9
$DIMDLE
 40
0.0
  9
$DIMEXE
 40
0.18
  9
$DIMTP
 40
0.0
  9
$DIMTM
 40
0.0
  9
$DIMTXT
 40
0.18
  9
$DIMCEN
 40
0.09
  9
$DIMTSZ
 40
0.0
  9
$DIMTOL
 70
     0
  9
$DIMLIM
 70
     0
  9
$DIMTIH
 70
     1
  9
$DIMTOH
 70
     1
  9
$DIMSE1
 70
     0
  9
$DIMSE2
 70
     0
  9
$DIMTAD
 70
     0
  9
$DIMZIN
 70
     0
  9
$DIMBLK
  1

  9
$DIMASO
 70
     1
  9
$DIMSHO
 70
     0
  9
$DIMPOST
  1

  9
$DIMAPOST
  1

  9
$DIMALT
 70
     0
  9
$DIMALTD
 70
     2
  9
$DIMALTF
 40
25.4
  9
$DIMLFAC
 40
1.0
  9
$LUNITS
 70
     2
  9
$LUPREC
 70
     4
  9
$AXISMODE
 70
     0
  9
$AXISUNIT
 10
0.0
 20
0.0
  9
$SKETCHINC
 40
0.1
  9
$FILLETRAD
 40
0.0
  9
$AUNITS
 70
     0
  9
$AUPREC
 70
     0
  9
$MENU
  1
acad
  9
$ELEVATION
 40
0.0
  9
$THICKNESS
 40
0.0
  9
$VIEWDIR
 10
0.0
 20
0.0
 30
1.0
  9
$LIMCHECK
 70
     0
  9
$BLIPMODE
 70
     1
  9
$CHAMFERA
 40
0.0
  9
$CHAMFERB
 40
0.0
  9
$FASTZOOM
 70
     1
  9
$SKPOLY
 70
     0
  9
$TDCREATE
 40
2447222.5666886573
  9
$TDUPDATE
 40
2447222.5666886573
  9
$TDINDWG
 40
0.0000000000
  9
$TDUSRTIMER
 40
0.0000000000
  9
$USRTIMER
 70
     1
  9
$ANGBASE
 50
0.0
  9
$ANGDIR
 70
     0
  9
$PDMODE
 70
     0
  9
$PDSIZE
 40
0.0
  9
$PLINEWID
 40
0.0
  9
$COORDS
 70
     0
  9
$SPLFRAME
 70
     0
  9
$SPLINESEGS
 70
     8
  9
$ATTDIA
 70
     0
  9
$ATTREQ
 70
     1
  9
$USERI1
 70
     0
  9
$USERI2
 70
     0
  9
$USERI3
 70
     0
  9
$USERI4
 70
     0
  9
$USERI5
 70
     0
  9
$USERR1
 40
0.0
  9
$USERR2
 40
0.0
  9
$USERR3
 40
0.0
  9
$USERR4
 40
0.0
  9
$USERR5
 40
0.0
  0
ENDSEC
  0
SECTION
  2
TABLES
  0
TABLE
  2
LTYPE
 70
     13
  0
LTYPE
  2
CONTINUOUS
 70
    64
  3
Solid line
 72
    65
 73
     0
 40
0.0
  0
LTYPE
  2
DASHED
 70
    64
  3
__ __ __ __ __ __ __ __ __ __ __ __ __ __ __
 72
    65
 73
     2
 40
0.75
 49
0.5
 49
-0.25
  0
LTYPE
  2
HIDDEN
 70
    64
  3
_ _ _ _ _ _ _ _ _ _ _ _ _ _ _ _ _ _ _ _ _ _ _
 72
    65
 73
     2
 40
0.375
 49
0.25
 49
-0.125
  0
LTYPE
  2
CENTER
 70
    64
  3
____ _ ____ _ ____ _ ____ _ ____ _ ____ _ ____
 72
    65
 73
     4
 40
2.0
 49
1.25
 49
-0.25
 49
0.25
 49
-0.25
  0
LTYPE
  2
PHANTOM
 70
    64
  3
_____ _ _ _____ _ _ _____ _ _ _____ _ _ ____
 72
    65
 73
     6
 40
2.5
 49
1.25
 49
-0.25
 49
0.25
 49
-0.25
 49
0.25
 49
-0.25
  0
LTYPE
  2
DOT
 70
    64
  3
...............................................
 72
    65
 73
     2
 40
0.25
 49
0.0
 49
-0.25
  0
LTYPE
  2
DASHDOT
 70
    64
  3
__ . __ . __ . __ . __ . __ . __ . __ . __ . __
 72
    65
 73
     4
 40
1.0
 49
0.5
 49
-0.25
 49
0.0
 49
-0.25
  0
LTYPE
  2
BORDER
 70
    64
  3
__ __ . __ __ . __ __ . __ __ . __ __ . __ __
 72
    65
 73
     6
 40
1.75
 49
0.5
 49
-0.25
 49
0.5
 49
-0.25
 49
0.0
 49
-0.25
  0
LTYPE
  2
DIVIDE
 70
    64
  3
__ . . __ . . __ . . __ . . __ . . __ . . __
 72
    65
 73
     6
 40
1.25
 49
0.5
 49
-0.25
 49
0.0
 49
-0.25
 49
0.0
 49
-0.25
  0
LTYPE
  2
DCTYPE1
 70
    64
  3
__ . . __ . . __ . . __ . . __ . . __ . . __
 72
    65
 73
     8
 40
2.5
 49
0.5
 49
-0.25
 49
0.125
 49
-0.25
 49
0.25
 49
-0.25
 49
0.125
 49
-0.25
  0
LTYPE
  2
DCTYPE2
 70
    64
  3
__ . . __ . . __ . . __ . . __ . . __ . . __
 72
    65
 73
     6
 40
2.05
 49
1.0
 49
-0.3
 49
0.15
 49
-0.15
 49
0.15
 49
-0.3
  0
LTYPE
  2
DCTYPE3
 70
    64
  3
__ . . __ . . __ . . __ . . __ . . __ . . __
 72
    65
 73
     6
 40
2.5
 49
0.8
 49
-0.2
 49
0.8
 49
-0.2
 49
0.3
 49
-0.2
  0
LTYPE
  2
DCTYPE4
 70
    64
  3
__ . . __ . . __ . . __ . . __ . . __ . . __
 72
    65
 73
     10
 40
3.97
 49
1.75
 49
-0.3
 49
0.3
 49
-0.3
 49
0.06
 49
-0.3
 49
0.06
 49
-0.3
 49
0.3
 49
-0.3
  0
ENDTAB
  0
TABLE
  2
LAYER
 70
    153
  0
LAYER
  2
LAYER1
 70
 64
 62
     7
  6
CONTINUOUS
  0
ENDTAB
  0
ENDSEC
  0
SECTION
  2
BLOCKS
  0
ENDSEC
  0
SECTION
  2
ENTITIES
  0
POLYLINE
  8
LAYER1
 62
     7
 66
     1
  6
CONTINUOUS
  0
VERTEX
  8
LAYER1
 62
     7
  6
CONTINUOUS
 10
9699.5631
 20
26417.2390
  0
VERTEX
  8
LAYER1
 62
     7
  6
CONTINUOUS
 10
9511.9770
 20
26262.7592
  0
VERTEX
  8
LAYER1
 62
     7
  6
CONTINUOUS
 10
9026.4370
 20
25964.8197
  0
VERTEX
  8
LAYER1
 62
     7
  6
CONTINUOUS
 10
8507.8080
 20
25501.3566
  0
VERTEX
  8
LAYER1
 62
     7
  6
CONTINUOUS
 10
8231.9334
 20
25071.0034
  0
VERTEX
  8
LAYER1
 62
     7
  6
CONTINUOUS
 10
7945.0347
 20
24618.5675
  0
VERTEX
  8
LAYER1
 62
     7
  6
CONTINUOUS
 10
7492.6142
 20
23967.5218
  0
VERTEX
  8
LAYER1
 62
     7
  6
CONTINUOUS
 10
7227.7798
 20
23548.2053
  0
VERTEX
  8
LAYER1
 62
     7
  6
CONTINUOUS
 10
7062.2581
 20
22996.4562
  0
VERTEX
  8
LAYER1
 62
     7
  6
CONTINUOUS
 10
7051.2179
 20
22455.7604
  0
VERTEX
  8
LAYER1
 62
     7
  6
CONTINUOUS
 10
7007.0736
 20
21804.7004
  0
VERTEX
  8
LAYER1
 62
     7
  6
CONTINUOUS
 10
7227.7798
 20
21186.7576
  0
VERTEX
  8
LAYER1
 62
     7
  6
CONTINUOUS
 10
7933.9945
 20
20745.3630
  0
VERTEX
  8
LAYER1
 62
     7
  6
CONTINUOUS
 10
8629.1849
 20
20491.5677
  0
VERTEX
  8
LAYER1
 62
     7
  6
CONTINUOUS
 10
9390.5840
 20
19465.3355
  0
VERTEX
  8
LAYER1
 62
     7
  6
CONTINUOUS
 10
9589.2103
 20
18836.3536
  0
VERTEX
  8
LAYER1
 62
     7
  6
CONTINUOUS
 10
9644.3942
 20
18207.3717
  0
VERTEX
  8
LAYER1
 62
     7
  6
CONTINUOUS
 10
9556.1057
 20
17479.0767
  0
VERTEX
  8
LAYER1
 62
     7
  6
CONTINUOUS
 10
9368.5196
 20
16927.3442
  0
VERTEX
  8
LAYER1
 62
     7
  6
CONTINUOUS
 10
9280.2467
 20
16563.1967
  0
VERTEX
  8
LAYER1
 62
     7
  6
CONTINUOUS
 10
9280.2467
 20
16210.0739
  0
VERTEX
  8
LAYER1
 62
     7
  6
CONTINUOUS
 10
9456.7926
 20
16066.6308
  0
VERTEX
  8
LAYER1
 62
     7
  6
CONTINUOUS
 10
9964.3975
 20
15901.1096
  0
VERTEX
  8
LAYER1
 62
     7
  6
CONTINUOUS
 10
10449.9226
 20
15536.9621
  0
VERTEX
  8
LAYER1
 62
     7
  6
CONTINUOUS
 10
10582.3397
 20
15371.4409
  0
VERTEX
  8
LAYER1
 62
     7
  6
CONTINUOUS
 10
11001.6705
 20
15007.2922
  0
VERTEX
  8
LAYER1
 62
     7
  6
CONTINUOUS
 10
11498.2352
 20
14753.4826
  0
VERTEX
  8
LAYER1
 62
     7
  6
CONTINUOUS
 10
11917.5517
 20
14554.8562
  0
VERTEX
  8
LAYER1
 62
     7
  6
CONTINUOUS
 10
12336.8682
 20
14378.3103
  0
VERTEX
  8
LAYER1
 62
     7
  6
CONTINUOUS
 10
12645.8468
 20
14367.2713
  0
VERTEX
  8
LAYER1
 62
     7
  6
CONTINUOUS
 10
12987.9294
 20
14521.7522
  0
VERTEX
  8
LAYER1
 62
     7
  6
CONTINUOUS
 10
13385.1809
 20
14687.2734
  0
VERTEX
  8
LAYER1
 62
     7
  6
CONTINUOUS
 10
13793.4571
 20
14808.6670
  0
VERTEX
  8
LAYER1
 62
     7
  6
CONTINUOUS
 10
14201.7489
 20
14907.9802
  0
VERTEX
  8
LAYER1
 62
     7
  6
CONTINUOUS
 10
14610.0406
 20
15117.6313
  0
VERTEX
  8
LAYER1
 62
     7
  6
CONTINUOUS
 10
14952.1089
 20
15305.2329
  0
VERTEX
  8
LAYER1
 62
     7
  6
CONTINUOUS
 10
15559.0258
 20
15559.0258
  0
VERTEX
  8
LAYER1
 62
     7
  6
CONTINUOUS
 10
16066.6308
 20
15812.8211
  0
VERTEX
  8
LAYER1
 62
     7
  6
CONTINUOUS
 10
16662.5086
 20
16132.8388
  0
VERTEX
  8
LAYER1
 62
     7
  6
CONTINUOUS
 10
17092.8642
 20
16287.3209
  0
VERTEX
  8
LAYER1
 62
     7
  6
CONTINUOUS
 10
17523.2197
 20
16552.1552
  0
VERTEX
  8
LAYER1
 62
     7
  6
CONTINUOUS
 10
17810.1190
 20
16894.2390
  0
VERTEX
  8
LAYER1
 62
     7
  6
CONTINUOUS
 10
18196.3303
 20
17302.5141
  0
VERTEX
  8
LAYER1
 62
     7
  6
CONTINUOUS
 10
18428.0607
 20
17611.4926
  0
VERTEX
  8
LAYER1
 62
     7
  6
CONTINUOUS
 10
18626.6870
 20
18218.4108
  0
VERTEX
  8
LAYER1
 62
     7
  6
CONTINUOUS
 10
18670.8312
 20
18737.0404
  0
VERTEX
  8
LAYER1
 62
     7
  6
CONTINUOUS
 10
18604.6221
 20
19343.9585
  0
VERTEX
  8
LAYER1
 62
     7
  6
CONTINUOUS
 10
18560.4778
 20
19884.6520
  0
VERTEX
  8
LAYER1
 62
     7
  6
CONTINUOUS
 10
18405.9969
 20
20502.6091
  0
VERTEX
  8
LAYER1
 62
     7
  6
CONTINUOUS
 10
18306.6837
 20
21131.5910
  0
VERTEX
  8
LAYER1
 62
     7
  6
CONTINUOUS
 10
18394.9567
 20
21661.2597
  0
VERTEX
  8
LAYER1
 62
     7
  6
CONTINUOUS
 10
18450.1411
 20
22323.3444
  0
VERTEX
  8
LAYER1
 62
     7
  6
CONTINUOUS
 10
18405.9969
 20
22654.3891
  0
VERTEX
  8
LAYER1
 62
     7
  6
CONTINUOUS
 10
18196.3303
 20
23161.9774
  0
VERTEX
  8
LAYER1
 62
     7
  6
CONTINUOUS
 10
18130.1223
 20
23504.0611
  0
VERTEX
  8
LAYER1
 62
     7
  6
CONTINUOUS
 10
18052.8896
 20
23945.4557
  0
VERTEX
  8
LAYER1
 62
     7
  6
CONTINUOUS
 10
18008.7454
 20
24375.8136
  0
VERTEX
  8
LAYER1
 62
     7
  6
CONTINUOUS
 10
17865.2880
 20
24739.9587
  0
VERTEX
  8
LAYER1
 62
     7
  6
CONTINUOUS
 10
17556.3249
 20
25247.5494
  0
VERTEX
  8
LAYER1
 62
     7
  6
CONTINUOUS
 10
17523.2197
 20
25655.8411
  0
VERTEX
  8
LAYER1
 62
     7
  6
CONTINUOUS
 10
17214.2411
 20
26317.9258
  0
VERTEX
  8
LAYER1
 62
     7
  6
CONTINUOUS
 10
16949.4068
 20
26637.9291
  0
VERTEX
  8
LAYER1
 62
     7
  6
CONTINUOUS
 10
16541.1150
 20
26825.5307
  0
VERTEX
  8
LAYER1
 62
     7
  6
CONTINUOUS
 10
16165.9439
 20
26913.8049
  0
VERTEX
  8
LAYER1
 62
     7
  6
CONTINUOUS
 10
15603.1701
 20
26957.9491
  0
VERTEX
  8
LAYER1
 62
     7
  6
CONTINUOUS
 10
15150.7341
 20
27244.8472
  0
VERTEX
  8
LAYER1
 62
     7
  6
CONTINUOUS
 10
14687.2734
 20
27454.5126
  0
VERTEX
  8
LAYER1
 62
     7
  6
CONTINUOUS
 10
14146.5811
 20
27597.9557
  0
VERTEX
  8
LAYER1
 62
     7
  6
CONTINUOUS
 10
13495.5188
 20
27884.8705
  0
VERTEX
  8
LAYER1
 62
     7
  6
CONTINUOUS
 10
13032.0581
 20
27951.0785
  0
VERTEX
  8
LAYER1
 62
     7
  6
CONTINUOUS
 10
12667.9106
 20
28028.3112
  0
VERTEX
  8
LAYER1
 62
     7
  6
CONTINUOUS
 10
12215.4901
 20
27962.1032
  0
VERTEX
  8
LAYER1
 62
     7
  6
CONTINUOUS
 10
11928.5920
 20
27818.6601
  0
VERTEX
  8
LAYER1
 62
     7
  6
CONTINUOUS
 10
11365.8181
 20
27509.6816
  0
VERTEX
  8
LAYER1
 62
     7
  6
CONTINUOUS
 10
11078.9045
 20
27266.9086
  0
VERTEX
  8
LAYER1
 62
     7
  6
CONTINUOUS
 10
10803.0454
 20
26957.9467
  0
VERTEX
  8
LAYER1
 62
     7
  6
CONTINUOUS
 10
10449.9226
 20
26682.0733
  0
VERTEX
  8
LAYER1
 62
     7
  6
CONTINUOUS
 10
10151.9830
 20
26538.6135
  0
VERTEX
  8
LAYER1
 62
     7
  6
CONTINUOUS
 10
9699.5631
 20
26417.2390
  0
SEQEND
  8
LAYER1
  0
POLYLINE
  8
LAYER1
 62
     7
 66
     1
  6
CONTINUOUS
  0
VERTEX
  8
LAYER1
 62
     7
  6
CONTINUOUS
 10
15603.1701
 20
26957.9491
  0
VERTEX
  8
LAYER1
 62
     7
  6
CONTINUOUS
 10
15834.9004
 20
26957.9491
  0
VERTEX
  8
LAYER1
 62
     7
  6
CONTINUOUS
 10
16287.3209
 20
26306.8868
  0
VERTEX
  8
LAYER1
 62
     7
  6
CONTINUOUS
 10
16728.7166
 20
25644.7997
  0
VERTEX
  8
LAYER1
 62
     7
  6
CONTINUOUS
 10
17026.6550
 20
25225.4856
  0
VERTEX
  8
LAYER1
 62
     7
  6
CONTINUOUS
 10
17291.4905
 20
24883.4018
  0
VERTEX
  8
LAYER1
 62
     7
  6
CONTINUOUS
 10
17534.2444
 20
24530.2933
  0
VERTEX
  8
LAYER1
 62
     7
  6
CONTINUOUS
 10
17677.7018
 20
24254.4199
  0
VERTEX
  8
LAYER1
 62
     7
  6
CONTINUOUS
 10
17810.1190
 20
23923.3776
  0
VERTEX
  8
LAYER1
 62
     7
  6
CONTINUOUS
 10
17865.2880
 20
23724.7512
  0
VERTEX
  8
LAYER1
 62
     7
  6
CONTINUOUS
 10
17920.4724
 20
23559.2301
  0
VERTEX
  8
LAYER1
 62
     7
  6
CONTINUOUS
 10
18041.8494
 20
23504.0611
  0
VERTEX
  8
LAYER1
 62
     7
  6
CONTINUOUS
 10
17975.6402
 20
22742.6609
  0
VERTEX
  8
LAYER1
 62
     7
  6
CONTINUOUS
 10
17975.6402
 20
22080.5762
  0
VERTEX
  8
LAYER1
 62
     7
  6
CONTINUOUS
 10
18008.7454
 20
21848.8446
  0
VERTEX
  8
LAYER1
 62
     7
  6
CONTINUOUS
 10
18097.0183
 20
21495.7385
  0
VERTEX
  8
LAYER1
 62
     7
  6
CONTINUOUS
 10
18163.2263
 20
21319.1759
  0
VERTEX
  8
LAYER1
 62
     7
  6
CONTINUOUS
 10
18306.6837
 20
21131.5910
  0
SEQEND
  8
LAYER1
  0
POLYLINE
  8
LAYER1
 62
     7
 66
     1
  6
DASHED
  0
VERTEX
  8
LAYER1
 62
     7
  6
DASHED
 10
18306.6837
 20
21131.5910
  0
VERTEX
  8
LAYER1
 62
     7
  6
DASHED
 10
18604.6221
 20
20568.8171
  0
VERTEX
  8
LAYER1
 62
     7
  6
DASHED
 10
18858.4174
 20
19917.7548
  0
VERTEX
  8
LAYER1
 62
     7
  6
DASHED
 10
18924.6254
 20
19641.8957
  0
VERTEX
  8
LAYER1
 62
     7
  6
DASHED
 10
18957.7294
 20
19465.3355
  0
VERTEX
  8
LAYER1
 62
     7
  6
DASHED
 10
18968.7696
 20
19310.8533
  0
VERTEX
  8
LAYER1
 62
     7
  6
DASHED
 10
18935.6656
 20
19156.3569
  0
VERTEX
  8
LAYER1
 62
     7
  6
DASHED
 10
18847.3926
 20
18957.7306
  0
VERTEX
  8
LAYER1
 62
     7
  6
DASHED
 10
18670.8312
 20
18737.0404
  0
SEQEND
  8
LAYER1
  0
POLYLINE
  8
LAYER1
 62
     7
 66
     1
  6
CONTINUOUS
  0
VERTEX
  8
LAYER1
 62
     7
  6
CONTINUOUS
 10
18670.8312
 20
18737.0404
  0
VERTEX
  8
LAYER1
 62
     7
  6
CONTINUOUS
 10
18417.0371
 20
18306.6849
  0
VERTEX
  8
LAYER1
 62
     7
  6
CONTINUOUS
 10
18163.2263
 20
17931.4960
  0
VERTEX
  8
LAYER1
 62
     7
  6
CONTINUOUS
 10
18019.7844
 20
17666.6616
  0
VERTEX
  8
LAYER1
 62
     7
  6
CONTINUOUS
 10
17876.3282
 20
17412.8687
  0
VERTEX
  8
LAYER1
 62
     7
  6
CONTINUOUS
 10
17710.8058
 20
17148.0343
  0
VERTEX
  8
LAYER1
 62
     7
  6
CONTINUOUS
 10
17534.2444
 20
16883.2000
  0
VERTEX
  8
LAYER1
 62
     7
  6
CONTINUOUS
 10
17324.5945
 20
16640.4294
  0
VERTEX
  8
LAYER1
 62
     7
  6
CONTINUOUS
 10
16949.4068
 20
16397.6731
  0
VERTEX
  8
LAYER1
 62
     7
  6
CONTINUOUS
 10
16496.9863
 20
16287.3209
  0
VERTEX
  8
LAYER1
 62
     7
  6
CONTINUOUS
 10
15901.1096
 20
16210.0739
  0
VERTEX
  8
LAYER1
 62
     7
  6
CONTINUOUS
 10
15172.8145
 20
16055.5917
  0
VERTEX
  8
LAYER1
 62
     7
  6
CONTINUOUS
 10
14731.4176
 20
15691.4442
  0
VERTEX
  8
LAYER1
 62
     7
  6
CONTINUOUS
 10
14301.0621
 20
15338.3357
  0
VERTEX
  8
LAYER1
 62
     7
  6
CONTINUOUS
 10
14047.2679
 20
15128.6703
  0
VERTEX
  8
LAYER1
 62
     7
  6
CONTINUOUS
 10
13793.4571
 20
14996.2531
  0
VERTEX
  8
LAYER1
 62
     7
  6
CONTINUOUS
 10
13627.9360
 20
14907.9802
  0
VERTEX
  8
LAYER1
 62
     7
  6
CONTINUOUS
 10
13385.1809
 20
14687.2734
  0
SEQEND
  8
LAYER1
  0
POLYLINE
  8
LAYER1
 62
     7
 66
     1
  6
HIDDEN
  0
VERTEX
  8
LAYER1
 62
     7
  6
HIDDEN
 10
12645.8468
 20
14367.2713
  0
VERTEX
  8
LAYER1
 62
     7
  6
HIDDEN
 10
12237.5550
 20
14245.8931
  0
VERTEX
  8
LAYER1
 62
     7
  6
HIDDEN
 10
11763.0708
 20
14212.7891
  0
VERTEX
  8
LAYER1
 62
     7
  6
HIDDEN
 10
11222.3607
 20
14245.8931
  0
VERTEX
  8
LAYER1
 62
     7
  6
HIDDEN
 10
10769.9414
 20
14356.2310
  0
VERTEX
  8
LAYER1
 62
     7
  6
HIDDEN
 10
10240.2715
 20
14610.0406
  0
VERTEX
  8
LAYER1
 62
     7
  6
HIDDEN
 10
9898.1889
 20
14885.8997
  0
VERTEX
  8
LAYER1
 62
     7
  6
HIDDEN
 10
9765.7717
 20
15117.6301
  0
VERTEX
  8
LAYER1
 62
     7
  6
HIDDEN
 10
9666.4586
 20
15349.3604
  0
VERTEX
  8
LAYER1
 62
     7
  6
HIDDEN
 10
9545.0816
 20
15845.9251
  0
VERTEX
  8
LAYER1
 62
     7
  6
HIDDEN
 10
9456.7926
 20
16066.6308
  0
SEQEND
  8
LAYER1
  0
POLYLINE
  8
LAYER1
 62
     7
 66
     1
  6
CONTINUOUS
  0
VERTEX
  8
LAYER1
 62
     7
  6
CONTINUOUS
 10
9280.2467
 20
16210.0739
  0
VERTEX
  8
LAYER1
 62
     7
  6
CONTINUOUS
 10
9379.5598
 20
16298.3623
  0
VERTEX
  8
LAYER1
 62
     7
  6
CONTINUOUS
 10
9357.4800
 20
16596.2995
  0
VERTEX
  8
LAYER1
 62
     7
  6
CONTINUOUS
 10
9368.5196
 20
16783.8868
  0
VERTEX
  8
LAYER1
 62
     7
  6
CONTINUOUS
 10
9368.5196
 20
16927.3442
  0
SEQEND
  8
LAYER1
  0
POLYLINE
  8
LAYER1
 62
     7
 66
     1
  6
HIDDEN
  0
VERTEX
  8
LAYER1
 62
     7
  6
HIDDEN
 10
7051.2179
 20
22455.7604
  0
VERTEX
  8
LAYER1
 62
     7
  6
HIDDEN
 10
7194.6753
 20
23073.7032
  0
VERTEX
  8
LAYER1
 62
     7
  6
HIDDEN
 10
7139.4908
 20
23702.6875
  0
VERTEX
  8
LAYER1
 62
     7
  6
HIDDEN
 10
7183.6356
 20
24320.6279
  0
VERTEX
  8
LAYER1
 62
     7
  6
HIDDEN
 10
7282.9482
 20
24905.4823
  0
VERTEX
  8
LAYER1
 62
     7
  6
HIDDEN
 10
7503.6383
 20
25490.3199
  0
VERTEX
  8
LAYER1
 62
     7
  6
HIDDEN
 10
7845.7215
 20
26075.1576
  0
VERTEX
  8
LAYER1
 62
     7
  6
HIDDEN
 10
8364.3506
 20
26781.3841
  0
VERTEX
  8
LAYER1
 62
     7
  6
HIDDEN
 10
9037.4767
 20
27399.3270
  0
VERTEX
  8
LAYER1
 62
     7
  6
HIDDEN
 10
9556.1057
 20
27752.4521
  0
VERTEX
  8
LAYER1
 62
     7
  6
HIDDEN
 10
10273.3767
 20
28215.9105
  0
VERTEX
  8
LAYER1
 62
     7
  6
HIDDEN
 10
11045.7993
 20
28613.1608
  0
VERTEX
  8
LAYER1
 62
     7
  6
HIDDEN
 10
11983.7609
 20
28844.8947
  0
VERTEX
  8
LAYER1
 62
     7
  6
HIDDEN
 10
12502.3894
 20
28944.2079
  0
VERTEX
  8
LAYER1
 62
     7
  6
HIDDEN
 10
12998.9541
 20
28822.8143
  0
VERTEX
  8
LAYER1
 62
     7
  6
HIDDEN
 10
13694.1452
 20
28447.6420
  0
VERTEX
  8
LAYER1
 62
     7
  6
HIDDEN
 10
14290.0218
 20
28083.4945
  0
VERTEX
  8
LAYER1
 62
     7
  6
HIDDEN
 10
14786.5866
 20
27741.4131
  0
VERTEX
  8
LAYER1
 62
     7
  6
HIDDEN
 10
15261.0875
 20
27443.4736
  0
VERTEX
  8
LAYER1
 62
     7
  6
HIDDEN
 10
15514.8816
 20
27300.0162
  0
VERTEX
  8
LAYER1
 62
     7
  6
HIDDEN
 10
15746.6120
 20
27112.4312
  0
VERTEX
  8
LAYER1
 62
     7
  6
HIDDEN
 10
15834.9004
 20
26957.9491
  0
SEQEND
  8
LAYER1
  0
POLYLINE
  8
LAYER1
 62
     3
 66
     1
  6
CONTINUOUS
  0
VERTEX
  8
LAYER1
 62
     3
  6
CONTINUOUS
 10
9191.9582
 20
27906.9343
  0
VERTEX
  8
LAYER1
 62
     3
  6
CONTINUOUS
 10
10513.6633
 20
26053.0914
  0
SEQEND
  8
LAYER1
  0
POLYLINE
  8
LAYER1
 62
     3
 66
     1
  6
CONTINUOUS
  0
VERTEX
  8
LAYER1
 62
     3
  6
CONTINUOUS
 10
17125.9682
 20
23178.0772
  0
VERTEX
  8
LAYER1
 62
     3
  6
CONTINUOUS
 10
18494.2698
 20
23923.3776
  0
SEQEND
  8
LAYER1
  0
POLYLINE
  8
LAYER1
 62
     3
 66
     1
  6
CONTINUOUS
  0
VERTEX
  8
LAYER1
 62
     3
  6
CONTINUOUS
 10
16862.5706
 20
17148.0343
  0
VERTEX
  8
LAYER1
 62
     3
  6
CONTINUOUS
 10
17633.5576
 20
16066.6308
  0
SEQEND
  8
LAYER1
  0
POLYLINE
  8
LAYER1
 62
     3
 66
     1
  6
CONTINUOUS
  0
VERTEX
  8
LAYER1
 62
     3
  6
CONTINUOUS
 10
9357.4800
 20
18946.7058
  0
VERTEX
  8
LAYER1
 62
     3
  6
CONTINUOUS
 10
9953.3573
 20
19271.2696
  0
SEQEND
  8
LAYER1
  0
POLYLINE
  8
LAYER1
 62
     7
 66
     1
  6
CONTINUOUS
  0
VERTEX
  8
LAYER1
 62
     7
  6
CONTINUOUS
 10
18953.6383
 20
11194.9561
  0
VERTEX
  8
LAYER1
 62
     7
  6
CONTINUOUS
 10
19339.8662
 20
11183.9170
  0
VERTEX
  8
LAYER1
 62
     7
  6
CONTINUOUS
 10
20388.1634
 20
11183.9170
  0
VERTEX
  8
LAYER1
 62
     7
  6
CONTINUOUS
 10
21414.3980
 20
11139.7883
  0
VERTEX
  8
LAYER1
 62
     7
  6
CONTINUOUS
 10
22418.5665
 20
11106.6831
  0
VERTEX
  8
LAYER1
 62
     7
  6
CONTINUOUS
 10
23058.5731
 20
11128.7481
  0
VERTEX
  8
LAYER1
 62
     7
  6
CONTINUOUS
 10
24073.7829
 20
11106.6831
  0
VERTEX
  8
LAYER1
 62
     7
  6
CONTINUOUS
 10
25453.1237
 20
11150.8119
  0
VERTEX
  8
LAYER1
 62
     7
  6
CONTINUOUS
 10
26589.7105
 20
11161.8521
  0
VERTEX
  8
LAYER1
 62
     7
  6
CONTINUOUS
 10
27847.6742
 20
11150.8119
  0
VERTEX
  8
LAYER1
 62
     7
  6
CONTINUOUS
 10
28752.5152
 20
11161.8521
  0
VERTEX
  8
LAYER1
 62
     7
  6
CONTINUOUS
 10
29668.4119
 20
11161.8521
  0
VERTEX
  8
LAYER1
 62
     7
  6
CONTINUOUS
 10
30396.7069
 20
11150.8119
  0
VERTEX
  8
LAYER1
 62
     7
  6
CONTINUOUS
 10
31169.1295
 20
11150.8119
  0
VERTEX
  8
LAYER1
 62
     7
  6
CONTINUOUS
 10
31698.7982
 20
11161.8521
  0
VERTEX
  8
LAYER1
 62
     7
  6
CONTINUOUS
 10
31930.5274
 20
10455.6220
  0
VERTEX
  8
LAYER1
 62
     7
  6
CONTINUOUS
 10
31908.4636
 20
9705.2626
  0
VERTEX
  8
LAYER1
 62
     7
  6
CONTINUOUS
 10
31742.9425
 20
8988.0077
  0
VERTEX
  8
LAYER1
 62
     7
  6
CONTINUOUS
 10
31654.6707
 20
8546.6114
  0
VERTEX
  8
LAYER1
 62
     7
  6
CONTINUOUS
 10
31334.6507
 20
8325.9213
  0
VERTEX
  8
LAYER1
 62
     7
  6
CONTINUOUS
 10
30374.6265
 20
8171.4242
  0
VERTEX
  8
LAYER1
 62
     7
  6
CONTINUOUS
 10
29326.3281
 20
8116.2559
  0
VERTEX
  8
LAYER1
 62
     7
  6
CONTINUOUS
 10
28079.4034
 20
8050.0473
  0
VERTEX
  8
LAYER1
 62
     7
  6
CONTINUOUS
 10
27020.0660
 20
7939.6939
  0
VERTEX
  8
LAYER1
 62
     7
  6
CONTINUOUS
 10
26060.0418
 20
7763.1480
  0
VERTEX
  8
LAYER1
 62
     7
  6
CONTINUOUS
 10
25309.6663
 20
7531.4182
  0
VERTEX
  8
LAYER1
 62
     7
  6
CONTINUOUS
 10
24768.9728
 20
7156.2304
  0
VERTEX
  8
LAYER1
 62
     7
  6
CONTINUOUS
 10
24283.4317
 20
6527.2486
  0
VERTEX
  8
LAYER1
 62
     7
  6
CONTINUOUS
 10
23886.1813
 20
5809.9937
  0
VERTEX
  8
LAYER1
 62
     7
  6
CONTINUOUS
 10
23213.0695
 20
5169.9722
  0
VERTEX
  8
LAYER1
 62
     7
  6
CONTINUOUS
 10
22694.4256
 20
5026.5148
  0
VERTEX
  8
LAYER1
 62
     7
  6
CONTINUOUS
 10
21513.7112
 20
5203.0762
  0
VERTEX
  8
LAYER1
 62
     7
  6
CONTINUOUS
 10
20321.9554
 20
5258.2452
  0
VERTEX
  8
LAYER1
 62
     7
  6
CONTINUOUS
 10
19251.5778
 20
5258.2452
  0
VERTEX
  8
LAYER1
 62
     7
  6
CONTINUOUS
 10
18357.7616
 20
5203.0762
  0
VERTEX
  8
LAYER1
 62
     7
  6
CONTINUOUS
 10
17728.7797
 20
5236.1808
  0
VERTEX
  8
LAYER1
 62
     7
  6
CONTINUOUS
 10
17519.1286
 20
5876.2023
  0
VERTEX
  8
LAYER1
 62
     7
  6
CONTINUOUS
 10
17596.3625
 20
6372.7670
  0
VERTEX
  8
LAYER1
 62
     7
  6
CONTINUOUS
 10
17850.1721
 20
7167.2707
  0
VERTEX
  8
LAYER1
 62
     7
  6
CONTINUOUS
 10
18225.3444
 20
7994.8783
  0
VERTEX
  8
LAYER1
 62
     7
  6
CONTINUOUS
 10
18357.7616
 20
8612.8206
  0
VERTEX
  8
LAYER1
 62
     7
  6
CONTINUOUS
 10
18490.1788
 20
9341.1150
  0
VERTEX
  8
LAYER1
 62
     7
  6
CONTINUOUS
 10
18721.9091
 20
10025.2653
  0
VERTEX
  8
LAYER1
 62
     7
  6
CONTINUOUS
 10
18898.4705
 20
10643.2236
  0
VERTEX
  8
LAYER1
 62
     7
  6
CONTINUOUS
 10
18953.6383
 20
11194.9561
  0
SEQEND
  8
LAYER1
  0
POLYLINE
  8
LAYER1
 62
     7
 66
     1
  6
CONTINUOUS
  0
VERTEX
  8
LAYER1
 62
     7
  6
CONTINUOUS
 10
914.8814
 20
9988.0547
  0
VERTEX
  8
LAYER1
 62
     7
  6
CONTINUOUS
 10
1268.0044
 20
10021.1587
  0
VERTEX
  8
LAYER1
 62
     7
  6
CONTINUOUS
 10
2183.8852
 20
10032.1989
  0
VERTEX
  8
LAYER1
 62
     7
  6
CONTINUOUS
 10
3022.5329
 20
10032.1989
  0
VERTEX
  8
LAYER1
 62
     7
  6
CONTINUOUS
 10
3905.3092
 20
10065.3029
  0
VERTEX
  8
LAYER1
 62
     7
  6
CONTINUOUS
 10
5019.8159
 20
10142.5523
  0
VERTEX
  8
LAYER1
 62
     7
  6
CONTINUOUS
 10
6012.9453
 20
10175.6563
  0
VERTEX
  8
LAYER1
 62
     7
  6
CONTINUOUS
 10
7083.3229
 20
10208.7603
  0
VERTEX
  8
LAYER1
 62
     7
  6
CONTINUOUS
 10
7690.2404
 20
10241.8643
  0
VERTEX
  8
LAYER1
 62
     7
  6
CONTINUOUS
 10
9411.6649
 20
10274.9695
  0
VERTEX
  8
LAYER1
 62
     7
  6
CONTINUOUS
 10
10526.1713
 20
10297.0333
  0
VERTEX
  8
LAYER1
 62
     7
  6
CONTINUOUS
 10
10537.2115
 20
9954.9501
  0
VERTEX
  8
LAYER1
 62
     7
  6
CONTINUOUS
 10
10448.9230
 20
9072.1741
  0
VERTEX
  8
LAYER1
 62
     7
  6
CONTINUOUS
 10
10437.8983
 20
8332.8388
  0
VERTEX
  8
LAYER1
 62
     7
  6
CONTINUOUS
 10
10393.7541
 20
7549.3754
  0
VERTEX
  8
LAYER1
 62
     7
  6
CONTINUOUS
 10
10195.1277
 20
6931.4337
  0
VERTEX
  8
LAYER1
 62
     7
  6
CONTINUOUS
 10
9433.7293
 20
6821.0809
  0
VERTEX
  8
LAYER1
 62
     7
  6
CONTINUOUS
 10
8793.7072
 20
6721.7678
  0
VERTEX
  8
LAYER1
 62
     7
  6
CONTINUOUS
 10
8131.6213
 20
6622.4546
  0
VERTEX
  8
LAYER1
 62
     7
  6
CONTINUOUS
 10
7270.9090
 20
6567.2862
  0
VERTEX
  8
LAYER1
 62
     7
  6
CONTINUOUS
 10
6343.9882
 20
6589.3506
  0
VERTEX
  8
LAYER1
 62
     7
  6
CONTINUOUS
 10
5417.0674
 20
6600.3908
  0
VERTEX
  8
LAYER1
 62
     7
  6
CONTINUOUS
 10
4324.6254
 20
6666.5994
  0
VERTEX
  8
LAYER1
 62
     7
  6
CONTINUOUS
 10
3574.2663
 20
6765.9120
  0
VERTEX
  8
LAYER1
 62
     7
  6
CONTINUOUS
 10
2823.9068
 20
6876.2493
  0
VERTEX
  8
LAYER1
 62
     7
  6
CONTINUOUS
 10
2183.8852
 20
6975.5625
  0
VERTEX
  8
LAYER1
 62
     7
  6
CONTINUOUS
 10
1256.9644
 20
7163.1635
  0
VERTEX
  8
LAYER1
 62
     7
  6
CONTINUOUS
 10
881.7771
 20
7229.3727
  0
VERTEX
  8
LAYER1
 62
     7
  6
CONTINUOUS
 10
859.7127
 20
7770.0655
  0
VERTEX
  8
LAYER1
 62
     7
  6
CONTINUOUS
 10
859.7127
 20
8288.7101
  0
VERTEX
  8
LAYER1
 62
     7
  6
CONTINUOUS
 10
881.7771
 20
8994.9253
  0
VERTEX
  8
LAYER1
 62
     7
  6
CONTINUOUS
 10
881.7771
 20
9436.3210
  0
VERTEX
  8
LAYER1
 62
     7
  6
CONTINUOUS
 10
914.8814
 20
9988.0547
  0
SEQEND
  8
LAYER1
  0
POLYLINE
  8
LAYER1
 62
     7
 66
     1
  6
CONTINUOUS
  0
VERTEX
  8
LAYER1
 62
     7
  6
CONTINUOUS
 10
22530.4817
 20
21457.4486
  0
VERTEX
  8
LAYER1
 62
     7
  6
CONTINUOUS
 10
22530.4817
 20
15929.0300
  0
SEQEND
  8
LAYER1
  0
POLYLINE
  8
LAYER1
 62
     7
 66
     1
  6
CONTINUOUS
  0
VERTEX
  8
LAYER1
 62
     7
  6
CONTINUOUS
 10
1571.7832
 20
15404.0910
  0
VERTEX
  8
LAYER1
 62
     7
  6
CONTINUOUS
 10
1571.7832
 20
15108.4650
  0
SEQEND
  8
LAYER1
  0
POLYLINE
  8
LAYER1
 62
     7
 66
     1
  6
CONTINUOUS
  0
VERTEX
  8
LAYER1
 62
     7
  6
CONTINUOUS
 10
4341.5053
 20
15108.4650
  0
VERTEX
  8
LAYER1
 62
     7
  6
CONTINUOUS
 10
1571.7832
 20
15108.4650
  0
SEQEND
  8
LAYER1
  0
POLYLINE
  8
LAYER1
 62
     7
 66
     1
  6
CONTINUOUS
  0
VERTEX
  8
LAYER1
 62
     7
  6
CONTINUOUS
 10
22530.4817
 20
15929.0300
  0
VERTEX
  8
LAYER1
 62
     7
  6
CONTINUOUS
 10
22530.4817
 20
21457.4486
  0
SEQEND
  8
LAYER1
  0
POLYLINE
  8
LAYER1
 62
     7
 66
     1
  6
CONTINUOUS
  0
VERTEX
  8
LAYER1
 62
     7
  6
CONTINUOUS
 10
22530.4817
 20
21457.4486
  0
VERTEX
  8
LAYER1
 62
     7
  6
CONTINUOUS
 10
22151.8117
 20
20364.7415
  0
SEQEND
  8
LAYER1
  0
POLYLINE
  8
LAYER1
 62
     7
 66
     1
  6
CONTINUOUS
  0
VERTEX
  8
LAYER1
 62
     7
  6
CONTINUOUS
 10
4341.5053
 20
15108.4650
  0
VERTEX
  8
LAYER1
 62
     7
  6
CONTINUOUS
 10
7111.2273
 20
15108.4650
  0
SEQEND
  8
LAYER1
  0
POLYLINE
  8
LAYER1
 62
     7
 66
     1
  6
CONTINUOUS
  0
VERTEX
  8
LAYER1
 62
     7
  6
CONTINUOUS
 10
7111.2273
 20
15108.4650
  0
VERTEX
  8
LAYER1
 62
     7
  6
CONTINUOUS
 10
7111.2273
 20
15406.9502
  0
SEQEND
  8
LAYER1
  0
ENDSEC
  0
EOF
