  0
SECTION
  2
HEADER
  9
$ACADVER
  1
AC1004
  9
$EXTMIN
 10
-16595.2844
 20
7042.3798
  9
$EXTMAX
 10
31421.8622
 20
42031.4361
  9
$LIMMIN
 10
-16595.2844
 20
7042.3798
  9
$LIMMAX
 10
31421.8622
 20
42031.4361
  9
$INSBASE
 10
0.0
 20
0.0
  9
$VIEWCTR
 10
7.21903
 20
4.5
  9
$VIEWSIZE
 40
9.0
  9
$SNAPMODE
 70
     0
  9
$SNAPUNIT
 10
1.0
 20
1.0
  9
$SNAPBASE
 10
0.0
 20
0.0
  9
$SNAPANG
 50
0.0
  9
$SNAPSTYLE
 70
     0
  9
$SNAPISOPAIR
 70
     0
  9
$GRIDMODE
 70
     0
  9
$GRIDUNIT
 10
0.0
 20
0.0
  9
$ORTHOMODE
 70
     0
  9
$REGENMODE
 70
     1
  9
$FILLMODE
 70
     1
  9
$QTEXTMODE
 70
     0
  9
$DRAGMODE
 70
     2
  9
$LTSCALE
 40
1.0
  9
$OSMODE
 70
     0
  9
$ATTMODE
 70
     1
  9
$TEXTSIZE
 40
0.2
  9
$TRACEWID
 40
0.05
  9
$TEXTSTYLE
  7
STANDARD
  9
$CLAYER
  8
0
  9
$CELTYPE
  6
BYLAYER
  9
$CECOLOR
 62
   256
  9
$DIMSCALE
 40
1.0
  9
$DIMASZ
 40
0.18
  9
$DIMEXO
 40
0.0625
  9
$DIMDLI
 40
0.38
  9
$DIMRND
 40
0.0
  9
$DIMDLE
 40
0.0
  9
$DIMEXE
 40
0.18
  9
$DIMTP
 40
0.0
  9
$DIMTM
 40
0.0
  9
$DIMTXT
 40
0.18
  9
$DIMCEN
 40
0.09
  9
$DIMTSZ
 40
0.0
  9
$DIMTOL
 70
     0
  9
$DIMLIM
 70
     0
  9
$DIMTIH
 70
     1
  9
$DIMTOH
 70
     1
  9
$DIMSE1
 70
     0
  9
$DIMSE2
 70
     0
  9
$DIMTAD
 70
     0
  9
$DIMZIN
 70
     0
  9
$DIMBLK
  1

  9
$DIMASO
 70
     1
  9
$DIMSHO
 70
     0
  9
$DIMPOST
  1

  9
$DIMAPOST
  1

  9
$DIMALT
 70
     0
  9
$DIMALTD
 70
     2
  9
$DIMALTF
 40
25.4
  9
$DIMLFAC
 40
1.0
  9
$LUNITS
 70
     2
  9
$LUPREC
 70
     4
  9
$AXISMODE
 70
     0
  9
$AXISUNIT
 10
0.0
 20
0.0
  9
$SKETCHINC
 40
0.1
  9
$FILLETRAD
 40
0.0
  9
$AUNITS
 70
     0
  9
$AUPREC
 70
     0
  9
$MENU
  1
acad
  9
$ELEVATION
 40
0.0
  9
$THICKNESS
 40
0.0
  9
$VIEWDIR
 10
0.0
 20
0.0
 30
1.0
  9
$LIMCHECK
 70
     0
  9
$BLIPMODE
 70
     1
  9
$CHAMFERA
 40
0.0
  9
$CHAMFERB
 40
0.0
  9
$FASTZOOM
 70
     1
  9
$SKPOLY
 70
     0
  9
$TDCREATE
 40
2447222.5666886573
  9
$TDUPDATE
 40
2447222.5666886573
  9
$TDINDWG
 40
0.0000000000
  9
$TDUSRTIMER
 40
0.0000000000
  9
$USRTIMER
 70
     1
  9
$ANGBASE
 50
0.0
  9
$ANGDIR
 70
     0
  9
$PDMODE
 70
     0
  9
$PDSIZE
 40
0.0
  9
$PLINEWID
 40
0.0
  9
$COORDS
 70
     0
  9
$SPLFRAME
 70
     0
  9
$SPLINESEGS
 70
     8
  9
$ATTDIA
 70
     0
  9
$ATTREQ
 70
     1
  9
$USERI1
 70
     0
  9
$USERI2
 70
     0
  9
$USERI3
 70
     0
  9
$USERI4
 70
     0
  9
$USERI5
 70
     0
  9
$USERR1
 40
0.0
  9
$USERR2
 40
0.0
  9
$USERR3
 40
0.0
  9
$USERR4
 40
0.0
  9
$USERR5
 40
0.0
  0
ENDSEC
  0
SECTION
  2
TABLES
  0
TABLE
  2
LTYPE
 70
     13
  0
LTYPE
  2
CONTINUOUS
 70
    64
  3
Solid line
 72
    65
 73
     0
 40
0.0
  0
LTYPE
  2
DASHED
 70
    64
  3
__ __ __ __ __ __ __ __ __ __ __ __ __ __ __
 72
    65
 73
     2
 40
0.75
 49
0.5
 49
-0.25
  0
LTYPE
  2
HIDDEN
 70
    64
  3
_ _ _ _ _ _ _ _ _ _ _ _ _ _ _ _ _ _ _ _ _ _ _
 72
    65
 73
     2
 40
0.375
 49
0.25
 49
-0.125
  0
LTYPE
  2
CENTER
 70
    64
  3
____ _ ____ _ ____ _ ____ _ ____ _ ____ _ ____
 72
    65
 73
     4
 40
2.0
 49
1.25
 49
-0.25
 49
0.25
 49
-0.25
  0
LTYPE
  2
PHANTOM
 70
    64
  3
_____ _ _ _____ _ _ _____ _ _ _____ _ _ ____
 72
    65
 73
     6
 40
2.5
 49
1.25
 49
-0.25
 49
0.25
 49
-0.25
 49
0.25
 49
-0.25
  0
LTYPE
  2
DOT
 70
    64
  3
...............................................
 72
    65
 73
     2
 40
0.25
 49
0.0
 49
-0.25
  0
LTYPE
  2
DASHDOT
 70
    64
  3
__ . __ . __ . __ . __ . __ . __ . __ . __ . __
 72
    65
 73
     4
 40
1.0
 49
0.5
 49
-0.25
 49
0.0
 49
-0.25
  0
LTYPE
  2
BORDER
 70
    64
  3
__ __ . __ __ . __ __ . __ __ . __ __ . __ __
 72
    65
 73
     6
 40
1.75
 49
0.5
 49
-0.25
 49
0.5
 49
-0.25
 49
0.0
 49
-0.25
  0
LTYPE
  2
DIVIDE
 70
    64
  3
__ . . __ . . __ . . __ . . __ . . __ . . __
 72
    65
 73
     6
 40
1.25
 49
0.5
 49
-0.25
 49
0.0
 49
-0.25
 49
0.0
 49
-0.25
  0
LTYPE
  2
DCTYPE1
 70
    64
  3
__ . . __ . . __ . . __ . . __ . . __ . . __
 72
    65
 73
     8
 40
2.5
 49
0.5
 49
-0.25
 49
0.125
 49
-0.25
 49
0.25
 49
-0.25
 49
0.125
 49
-0.25
  0
LTYPE
  2
DCTYPE2
 70
    64
  3
__ . . __ . . __ . . __ . . __ . . __ . . __
 72
    65
 73
     6
 40
2.05
 49
1.0
 49
-0.3
 49
0.15
 49
-0.15
 49
0.15
 49
-0.3
  0
LTYPE
  2
DCTYPE3
 70
    64
  3
__ . . __ . . __ . . __ . . __ . . __ . . __
 72
    65
 73
     6
 40
2.5
 49
0.8
 49
-0.2
 49
0.8
 49
-0.2
 49
0.3
 49
-0.2
  0
LTYPE
  2
DCTYPE4
 70
    64
  3
__ . . __ . . __ . . __ . . __ . . __ . . __
 72
    65
 73
     10
 40
3.97
 49
1.75
 49
-0.3
 49
0.3
 49
-0.3
 49
0.06
 49
-0.3
 49
0.06
 49
-0.3
 49
0.3
 49
-0.3
  0
ENDTAB
  0
TABLE
  2
LAYER
 70
    153
  0
LAYER
  2
LAYER1
 70
 64
 62
     7
  6
CONTINUOUS
  0
ENDTAB
  0
ENDSEC
  0
SECTION
  2
BLOCKS
  0
ENDSEC
  0
SECTION
  2
ENTITIES
  0
POLYLINE
  8
LAYER1
 62
     7
 66
     1
  6
CONTINUOUS
  0
VERTEX
  8
LAYER1
 62
     7
  6
CONTINUOUS
 10
7404.3252
 20
26008.9472
  0
VERTEX
  8
LAYER1
 62
     7
  6
CONTINUOUS
 10
7514.6798
 20
25997.9249
  0
VERTEX
  8
LAYER1
 62
     7
  6
CONTINUOUS
 10
7713.3037
 20
25997.9249
  0
VERTEX
  8
LAYER1
 62
     7
  6
CONTINUOUS
 10
8022.2823
 20
26019.9886
  0
VERTEX
  8
LAYER1
 62
     7
  6
CONTINUOUS
 10
8342.2856
 20
26053.0914
  0
VERTEX
  8
LAYER1
 62
     7
  6
CONTINUOUS
 10
8827.8101
 20
26185.5098
  0
VERTEX
  8
LAYER1
 62
     7
  6
CONTINUOUS
 10
9247.1433
 20
26317.9258
  0
VERTEX
  8
LAYER1
 62
     7
  6
CONTINUOUS
 10
9467.8334
 20
26505.5131
  0
VERTEX
  8
LAYER1
 62
     7
  6
CONTINUOUS
 10
9854.0447
 20
26880.6997
  0
VERTEX
  8
LAYER1
 62
     7
  6
CONTINUOUS
 10
10262.3364
 20
27057.2623
  0
VERTEX
  8
LAYER1
 62
     7
  6
CONTINUOUS
 10
10681.6505
 20
27244.8472
  0
VERTEX
  8
LAYER1
 62
     7
  6
CONTINUOUS
 10
11067.8809
 20
27509.6816
  0
VERTEX
  8
LAYER1
 62
     7
  6
CONTINUOUS
 10
11376.8428
 20
27818.6601
  0
VERTEX
  8
LAYER1
 62
     7
  6
CONTINUOUS
 10
11597.5496
 20
28138.6634
  0
VERTEX
  8
LAYER1
 62
     7
  6
CONTINUOUS
 10
12072.0351
 20
28557.9799
  0
VERTEX
  8
LAYER1
 62
     7
  6
CONTINUOUS
 10
12392.0527
 20
28701.4373
  0
VERTEX
  8
LAYER1
 62
     7
  6
CONTINUOUS
 10
12800.3277
 20
28789.7091
  0
VERTEX
  8
LAYER1
 62
     7
  6
CONTINUOUS
 10
13329.9988
 20
28900.0637
  0
VERTEX
  8
LAYER1
 62
     7
  6
CONTINUOUS
 10
13550.7032
 20
29109.7291
  0
VERTEX
  8
LAYER1
 62
     7
  6
CONTINUOUS
 10
13859.6675
 20
29628.3587
  0
VERTEX
  8
LAYER1
 62
     7
  6
CONTINUOUS
 10
14047.2668
 20
29948.3621
  0
VERTEX
  8
LAYER1
 62
     7
  6
CONTINUOUS
 10
14444.5195
 20
30290.4434
  0
VERTEX
  8
LAYER1
 62
     7
  6
CONTINUOUS
 10
14587.9626
 20
30400.7980
  0
VERTEX
  8
LAYER1
 62
     7
  6
CONTINUOUS
 10
15283.1524
 20
30842.1783
  0
VERTEX
  8
LAYER1
 62
     7
  6
CONTINUOUS
 10
15702.4832
 20
31151.1569
  0
VERTEX
  8
LAYER1
 62
     7
  6
CONTINUOUS
 10
16033.5256
 20
31438.0550
  0
VERTEX
  8
LAYER1
 62
     7
  6
CONTINUOUS
 10
16265.2571
 20
31647.7204
  0
VERTEX
  8
LAYER1
 62
     7
  6
CONTINUOUS
 10
16441.8006
 20
31879.4519
  0
VERTEX
  8
LAYER1
 62
     7
  6
CONTINUOUS
 10
16673.5322
 20
32607.7470
  0
VERTEX
  8
LAYER1
 62
     7
  6
CONTINUOUS
 10
16883.2000
 20
33038.1025
  0
VERTEX
  8
LAYER1
 62
     7
  6
CONTINUOUS
 10
17103.8901
 20
33457.4190
  0
VERTEX
  8
LAYER1
 62
     7
  6
CONTINUOUS
 10
17280.4503
 20
33909.8550
  0
VERTEX
  8
LAYER1
 62
     7
  6
CONTINUOUS
 10
17457.0105
 20
34439.5237
  0
VERTEX
  8
LAYER1
 62
     7
  6
CONTINUOUS
 10
17479.0743
 20
34560.9006
  0
VERTEX
  8
LAYER1
 62
     7
  6
CONTINUOUS
 10
17390.8025
 20
34726.4218
  0
VERTEX
  8
LAYER1
 62
     7
  6
CONTINUOUS
 10
17236.3061
 20
34880.9039
  0
VERTEX
  8
LAYER1
 62
     7
  6
CONTINUOUS
 10
17015.6160
 20
35234.0267
  0
VERTEX
  8
LAYER1
 62
     7
  6
CONTINUOUS
 10
16828.0310
 20
35476.7806
  0
VERTEX
  8
LAYER1
 62
     7
  6
CONTINUOUS
 10
16552.1552
 20
35896.1114
  0
VERTEX
  8
LAYER1
 62
     7
  6
CONTINUOUS
 10
16508.0110
 20
36160.9481
  0
VERTEX
  8
LAYER1
 62
     7
  6
CONTINUOUS
 10
16508.0110
 20
36491.9905
  0
VERTEX
  8
LAYER1
 62
     7
  6
CONTINUOUS
 10
16386.6341
 20
37187.1803
  0
VERTEX
  8
LAYER1
 62
     7
  6
CONTINUOUS
 10
16331.4651
 20
37507.1836
  0
VERTEX
  8
LAYER1
 62
     7
  6
CONTINUOUS
 10
16265.2571
 20
37970.6444
  0
VERTEX
  8
LAYER1
 62
     7
  6
CONTINUOUS
 10
16132.8388
 20
38412.0413
  0
VERTEX
  8
LAYER1
 62
     7
  6
CONTINUOUS
 10
15945.2371
 20
38709.9784
  0
VERTEX
  8
LAYER1
 62
     7
  6
CONTINUOUS
 10
15625.2362
 20
39140.3340
  0
VERTEX
  8
LAYER1
 62
     7
  6
CONTINUOUS
 10
15448.6736
 20
39802.4210
  0
VERTEX
  8
LAYER1
 62
     7
  6
CONTINUOUS
 10
15448.6736
 20
39890.6952
  0
VERTEX
  8
LAYER1
 62
     7
  6
CONTINUOUS
 10
15371.4409
 20
40122.4243
  0
VERTEX
  8
LAYER1
 62
     7
  6
CONTINUOUS
 10
15349.3604
 20
40431.4029
  0
VERTEX
  8
LAYER1
 62
     7
  6
CONTINUOUS
 10
15283.1524
 20
40674.1568
  0
VERTEX
  8
LAYER1
 62
     7
  6
CONTINUOUS
 10
14808.6670
 20
40795.5504
  0
VERTEX
  8
LAYER1
 62
     7
  6
CONTINUOUS
 10
14267.9569
 20
40916.9298
  0
VERTEX
  8
LAYER1
 62
     7
  6
CONTINUOUS
 10
13815.5376
 20
41082.4510
  0
VERTEX
  8
LAYER1
 62
     7
  6
CONTINUOUS
 10
13374.1407
 20
41181.7617
  0
VERTEX
  8
LAYER1
 62
     7
  6
CONTINUOUS
 10
13087.2425
 20
41214.8669
  0
VERTEX
  8
LAYER1
 62
     7
  6
CONTINUOUS
 10
12689.9922
 20
41225.9084
  0
VERTEX
  8
LAYER1
 62
     7
  6
CONTINUOUS
 10
12149.2821
 20
41236.9307
  0
VERTEX
  8
LAYER1
 62
     7
  6
CONTINUOUS
 10
11707.8875
 20
41325.2191
  0
VERTEX
  8
LAYER1
 62
     7
  6
CONTINUOUS
 10
11145.1136
 20
41424.5347
  0
VERTEX
  8
LAYER1
 62
     7
  6
CONTINUOUS
 10
10814.0713
 20
41468.6623
  0
VERTEX
  8
LAYER1
 62
     7
  6
CONTINUOUS
 10
10438.8966
 20
41556.9364
  0
VERTEX
  8
LAYER1
 62
     7
  6
CONTINUOUS
 10
10163.0233
 20
41567.9730
  0
VERTEX
  8
LAYER1
 62
     7
  6
CONTINUOUS
 10
9809.9171
 20
41590.0559
  0
VERTEX
  8
LAYER1
 62
     7
  6
CONTINUOUS
 10
9467.8334
 20
41612.1197
  0
VERTEX
  8
LAYER1
 62
     7
  6
CONTINUOUS
 10
9191.9576
 20
41722.4719
  0
VERTEX
  8
LAYER1
 62
     7
  6
CONTINUOUS
 10
8805.7463
 20
41965.2258
  0
VERTEX
  8
LAYER1
 62
     7
  6
CONTINUOUS
 10
8419.5350
 20
42031.4361
  0
VERTEX
  8
LAYER1
 62
     7
  6
CONTINUOUS
 10
8342.2856
 20
41821.7827
  0
VERTEX
  8
LAYER1
 62
     7
  6
CONTINUOUS
 10
8331.2466
 20
41501.7674
  0
VERTEX
  8
LAYER1
 62
     7
  6
CONTINUOUS
 10
8331.2466
 20
41225.9084
  0
VERTEX
  8
LAYER1
 62
     7
  6
CONTINUOUS
 10
8254.0139
 20
40762.4453
  0
VERTEX
  8
LAYER1
 62
     7
  6
CONTINUOUS
 10
8066.4122
 20
40398.2977
  0
VERTEX
  8
LAYER1
 62
     7
  6
CONTINUOUS
 10
7426.4056
 20
39934.8394
  0
VERTEX
  8
LAYER1
 62
     7
  6
CONTINUOUS
 10
6973.9696
 20
39647.9246
  0
VERTEX
  8
LAYER1
 62
     7
  6
CONTINUOUS
 10
6565.6946
 20
39394.1293
  0
VERTEX
  8
LAYER1
 62
     7
  6
CONTINUOUS
 10
6212.5694
 20
39206.5443
  0
VERTEX
  8
LAYER1
 62
     7
  6
CONTINUOUS
 10
5837.3995
 20
39063.0869
  0
VERTEX
  8
LAYER1
 62
     7
  6
CONTINUOUS
 10
5572.5628
 20
39096.1897
  0
VERTEX
  8
LAYER1
 62
     7
  6
CONTINUOUS
 10
4822.1896
 20
39327.9213
  0
VERTEX
  8
LAYER1
 62
     7
  6
CONTINUOUS
 10
4358.7289
 20
39305.8575
  0
VERTEX
  8
LAYER1
 62
     7
  6
CONTINUOUS
 10
4104.9336
 20
39184.4639
  0
VERTEX
  8
LAYER1
 62
     7
  6
CONTINUOUS
 10
3873.2045
 20
38952.7323
  0
VERTEX
  8
LAYER1
 62
     7
  6
CONTINUOUS
 10
3718.7223
 20
38787.2112
  0
VERTEX
  8
LAYER1
 62
     7
  6
CONTINUOUS
 10
3442.8489
 20
38654.7952
  0
VERTEX
  8
LAYER1
 62
     7
  6
CONTINUOUS
 10
3178.0134
 20
38533.4182
  0
VERTEX
  8
LAYER1
 62
     7
  6
CONTINUOUS
 10
2935.2440
 20
38312.7281
  0
VERTEX
  8
LAYER1
 62
     7
  6
CONTINUOUS
 10
2714.5539
 20
38080.9966
  0
VERTEX
  8
LAYER1
 62
     7
  6
CONTINUOUS
 10
2427.6546
 20
37882.3702
  0
VERTEX
  8
LAYER1
 62
     7
  6
CONTINUOUS
 10
1964.1939
 20
37540.2888
  0
VERTEX
  8
LAYER1
 62
     7
  6
CONTINUOUS
 10
1655.2153
 20
37176.1413
  0
VERTEX
  8
LAYER1
 62
     7
  6
CONTINUOUS
 10
1390.3809
 20
36723.7196
  0
VERTEX
  8
LAYER1
 62
     7
  6
CONTINUOUS
 10
1269.0040
 20
36447.8462
  0
VERTEX
  8
LAYER1
 62
     7
  6
CONTINUOUS
 10
1048.2984
 20
36006.4493
  0
VERTEX
  8
LAYER1
 62
     7
  6
CONTINUOUS
 10
684.1508
 20
35377.4674
  0
VERTEX
  8
LAYER1
 62
     7
  6
CONTINUOUS
 10
408.2918
 20
34715.3827
  0
VERTEX
  8
LAYER1
 62
     7
  6
CONTINUOUS
 10
110.3534
 20
33887.7745
  0
VERTEX
  8
LAYER1
 62
     7
  6
CONTINUOUS
 10
88.2730
 20
33258.7926
  0
VERTEX
  8
LAYER1
 62
     7
  6
CONTINUOUS
 10
-342.0826
 20
32519.4728
  0
VERTEX
  8
LAYER1
 62
     7
  6
CONTINUOUS
 10
-507.6049
 20
31890.4909
  0
VERTEX
  8
LAYER1
 62
     7
  6
CONTINUOUS
 10
-419.3165
 20
31603.5761
  0
VERTEX
  8
LAYER1
 62
     7
  6
CONTINUOUS
 10
-220.6901
 20
30632.5272
  0
VERTEX
  8
LAYER1
 62
     7
  6
CONTINUOUS
 10
-286.8993
 20
29871.1269
  0
VERTEX
  8
LAYER1
 62
     7
  6
CONTINUOUS
 10
-286.8993
 20
29462.8352
  0
VERTEX
  8
LAYER1
 62
     7
  6
CONTINUOUS
 10
11.0402
 20
28822.8143
  0
VERTEX
  8
LAYER1
 62
     7
  6
CONTINUOUS
 10
220.6901
 20
28149.7049
  0
VERTEX
  8
LAYER1
 62
     7
  6
CONTINUOUS
 10
353.1073
 20
27542.7867
  0
VERTEX
  8
LAYER1
 62
     7
  6
CONTINUOUS
 10
474.4997
 20
26781.3865
  0
VERTEX
  8
LAYER1
 62
     7
  6
CONTINUOUS
 10
606.9181
 20
26384.1362
  0
VERTEX
  8
LAYER1
 62
     7
  6
CONTINUOUS
 10
948.9852
 20
26152.4046
  0
VERTEX
  8
LAYER1
 62
     7
  6
CONTINUOUS
 10
1500.7343
 20
25843.4260
  0
VERTEX
  8
LAYER1
 62
     7
  6
CONTINUOUS
 10
1820.7376
 20
25755.1543
  0
VERTEX
  8
LAYER1
 62
     7
  6
CONTINUOUS
 10
1997.2990
 20
25898.6117
  0
VERTEX
  8
LAYER1
 62
     7
  6
CONTINUOUS
 10
2206.9489
 20
25931.7145
  0
VERTEX
  8
LAYER1
 62
     7
  6
CONTINUOUS
 10
2593.1769
 20
25843.4260
  0
VERTEX
  8
LAYER1
 62
     7
  6
CONTINUOUS
 10
2835.9308
 20
25854.4675
  0
VERTEX
  8
LAYER1
 62
     7
  6
CONTINUOUS
 10
3520.0960
 20
26075.1576
  0
VERTEX
  8
LAYER1
 62
     7
  6
CONTINUOUS
 10
3663.5391
 20
26119.3018
  0
VERTEX
  8
LAYER1
 62
     7
  6
CONTINUOUS
 10
3983.5567
 20
26174.4708
  0
VERTEX
  8
LAYER1
 62
     7
  6
CONTINUOUS
 10
4424.9369
 20
26163.4460
  0
VERTEX
  8
LAYER1
 62
     7
  6
CONTINUOUS
 10
4424.9369
 20
26163.4460
  0
VERTEX
  8
LAYER1
 62
     7
  6
CONTINUOUS
 10
4678.7465
 20
26152.4046
  0
VERTEX
  8
LAYER1
 62
     7
  6
CONTINUOUS
 10
4811.1649
 20
26152.4046
  0
VERTEX
  8
LAYER1
 62
     7
  6
CONTINUOUS
 10
5241.5204
 20
26163.4460
  0
VERTEX
  8
LAYER1
 62
     7
  6
CONTINUOUS
 10
5649.7979
 20
26240.6788
  0
VERTEX
  8
LAYER1
 62
     7
  6
CONTINUOUS
 10
6058.0896
 20
26284.8230
  0
VERTEX
  8
LAYER1
 62
     7
  6
CONTINUOUS
 10
6389.1320
 20
26240.6788
  0
VERTEX
  8
LAYER1
 62
     7
  6
CONTINUOUS
 10
6620.8635
 20
26196.5488
  0
VERTEX
  8
LAYER1
 62
     7
  6
CONTINUOUS
 10
6852.5927
 20
26174.4708
  0
VERTEX
  8
LAYER1
 62
     7
  6
CONTINUOUS
 10
7106.3856
 20
26108.2604
  0
VERTEX
  8
LAYER1
 62
     7
  6
CONTINUOUS
 10
7404.3252
 20
26008.9472
  0
SEQEND
  8
LAYER1
  0
POLYLINE
  8
LAYER1
 62
     3
 66
     1
  6
CONTINUOUS
  0
VERTEX
  8
LAYER1
 62
     3
  6
CONTINUOUS
 10
15636.2729
 20
29319.3802
  0
VERTEX
  8
LAYER1
 62
     3
  6
CONTINUOUS
 10
13429.3096
 20
30748.3143
  0
SEQEND
  8
LAYER1
  0
POLYLINE
  8
LAYER1
 62
     3
 66
     1
  6
CONTINUOUS
  0
VERTEX
  8
LAYER1
 62
     3
  6
CONTINUOUS
 10
3994.5814
 20
36857.0267
  0
VERTEX
  8
LAYER1
 62
     3
  6
CONTINUOUS
 10
1456.5901
 20
38500.3131
  0
SEQEND
  8
LAYER1
  0
POLYLINE
  8
LAYER1
 62
     3
 66
     1
  6
CONTINUOUS
  0
VERTEX
  8
LAYER1
 62
     3
  6
CONTINUOUS
 10
14256.9179
 20
40352.3260
  0
VERTEX
  8
LAYER1
 62
     3
  6
CONTINUOUS
 10
15448.6736
 20
41579.0145
  0
SEQEND
  8
LAYER1
  0
POLYLINE
  8
LAYER1
 62
     3
 66
     1
  6
CONTINUOUS
  0
VERTEX
  8
LAYER1
 62
     3
  6
CONTINUOUS
 10
11.0402
 20
25688.9439
  0
VERTEX
  8
LAYER1
 62
     3
  6
CONTINUOUS
 10
1136.6964
 20
26847.5969
  0
SEQEND
  8
LAYER1
  0
POLYLINE
  8
LAYER1
 62
     7
 66
     1
  6
CONTINUOUS
  0
VERTEX
  8
LAYER1
 62
     7
  6
CONTINUOUS
 10
-16595.2844
 20
16962.6331
  0
VERTEX
  8
LAYER1
 62
     7
  6
CONTINUOUS
 10
-16308.3863
 20
17006.7773
  0
VERTEX
  8
LAYER1
 62
     7
  6
CONTINUOUS
 10
-15999.4066
 20
16995.7371
  0
VERTEX
  8
LAYER1
 62
     7
  6
CONTINUOUS
 10
-15745.6124
 20
16984.7136
  0
VERTEX
  8
LAYER1
 62
     7
  6
CONTINUOUS
 10
-15502.8418
 20
16984.7136
  0
VERTEX
  8
LAYER1
 62
     7
  6
CONTINUOUS
 10
-15260.0879
 20
16973.6733
  0
VERTEX
  8
LAYER1
 62
     7
  6
CONTINUOUS
 10
-14653.1698
 20
16984.7136
  0
VERTEX
  8
LAYER1
 62
     7
  6
CONTINUOUS
 10
-14156.6051
 20
16995.7371
  0
VERTEX
  8
LAYER1
 62
     7
  6
CONTINUOUS
 10
-13362.1021
 20
16984.7136
  0
VERTEX
  8
LAYER1
 62
     7
  6
CONTINUOUS
 10
-12788.2892
 20
16984.7136
  0
VERTEX
  8
LAYER1
 62
     7
  6
CONTINUOUS
 10
-11762.0558
 20
16962.6331
  0
VERTEX
  8
LAYER1
 62
     7
  6
CONTINUOUS
 10
-11044.8009
 20
16995.7371
  0
VERTEX
  8
LAYER1
 62
     7
  6
CONTINUOUS
 10
-10636.5092
 20
17028.8411
  0
VERTEX
  8
LAYER1
 62
     7
  6
CONTINUOUS
 10
-10139.9445
 20
17028.8411
  0
VERTEX
  8
LAYER1
 62
     7
  6
CONTINUOUS
 10
-9400.6247
 20
17039.8813
  0
VERTEX
  8
LAYER1
 62
     7
  6
CONTINUOUS
 10
-8584.0412
 20
16940.5682
  0
VERTEX
  8
LAYER1
 62
     7
  6
CONTINUOUS
 10
-7712.3048
 20
16797.1119
  0
VERTEX
  8
LAYER1
 62
     7
  6
CONTINUOUS
 10
-6686.0714
 20
16675.7338
  0
VERTEX
  8
LAYER1
 62
     7
  6
CONTINUOUS
 10
-5571.5489
 20
16631.5896
  0
VERTEX
  8
LAYER1
 62
     7
  6
CONTINUOUS
 10
-4545.3155
 20
16543.3166
  0
VERTEX
  8
LAYER1
 62
     7
  6
CONTINUOUS
 10
-3485.9781
 20
16532.2776
  0
VERTEX
  8
LAYER1
 62
     7
  6
CONTINUOUS
 10
-2415.6148
 20
16565.3816
  0
VERTEX
  8
LAYER1
 62
     7
  6
CONTINUOUS
 10
-1245.9240
 20
16741.9430
  0
VERTEX
  8
LAYER1
 62
     7
  6
CONTINUOUS
 10
-230.7308
 20
16852.2952
  0
VERTEX
  8
LAYER1
 62
     7
  6
CONTINUOUS
 10
961.0250
 20
16984.7136
  0
VERTEX
  8
LAYER1
 62
     7
  6
CONTINUOUS
 10
2031.4026
 20
17106.0893
  0
VERTEX
  8
LAYER1
 62
     7
  6
CONTINUOUS
 10
2737.6327
 20
17139.1945
  0
VERTEX
  8
LAYER1
 62
     7
  6
CONTINUOUS
 10
3620.4099
 20
17227.4663
  0
VERTEX
  8
LAYER1
 62
     7
  6
CONTINUOUS
 10
4436.9767
 20
17337.8209
  0
VERTEX
  8
LAYER1
 62
     7
  6
CONTINUOUS
 10
5132.1690
 20
17415.0679
  0
VERTEX
  8
LAYER1
 62
     7
  6
CONTINUOUS
 10
5639.7715
 20
17448.1731
  0
VERTEX
  8
LAYER1
 62
     7
  6
CONTINUOUS
 10
6059.0880
 20
17481.2783
  0
VERTEX
  8
LAYER1
 62
     7
  6
CONTINUOUS
 10
6489.4435
 20
17503.3420
  0
VERTEX
  8
LAYER1
 62
     7
  6
CONTINUOUS
 10
6787.3830
 20
17514.3811
  0
SEQEND
  8
LAYER1
  0
POLYLINE
  8
LAYER1
 62
     7
 66
     1
  6
CONTINUOUS
  0
VERTEX
  8
LAYER1
 62
     7
  6
CONTINUOUS
 10
6489.4435
 20
17503.3420
  0
VERTEX
  8
LAYER1
 62
     7
  6
CONTINUOUS
 10
6368.0666
 20
17492.3006
  0
VERTEX
  8
LAYER1
 62
     7
  6
CONTINUOUS
 10
6478.4212
 20
17061.9451
  0
VERTEX
  8
LAYER1
 62
     7
  6
CONTINUOUS
 10
6434.2746
 20
16587.4609
  0
VERTEX
  8
LAYER1
 62
     7
  6
CONTINUOUS
 10
6401.1717
 20
16146.0651
  0
VERTEX
  8
LAYER1
 62
     7
  6
CONTINUOUS
 10
6379.1056
 20
15770.8773
  0
VERTEX
  8
LAYER1
 62
     7
  6
CONTINUOUS
 10
6268.7534
 20
15329.4971
  0
VERTEX
  8
LAYER1
 62
     7
  6
CONTINUOUS
 10
6147.3764
 20
14921.2053
  0
VERTEX
  8
LAYER1
 62
     7
  6
CONTINUOUS
 10
6048.0633
 20
14656.3710
  0
VERTEX
  8
LAYER1
 62
     7
  6
CONTINUOUS
 10
5838.3979
 20
14104.6385
  0
VERTEX
  8
LAYER1
 62
     7
  6
CONTINUOUS
 10
5628.7325
 20
13552.8894
  0
VERTEX
  8
LAYER1
 62
     7
  6
CONTINUOUS
 10
5408.0423
 20
13199.7821
  0
VERTEX
  8
LAYER1
 62
     7
  6
CONTINUOUS
 10
5176.3108
 20
12758.3851
  0
VERTEX
  8
LAYER1
 62
     7
  6
CONTINUOUS
 10
4922.5179
 20
12041.1303
  0
VERTEX
  8
LAYER1
 62
     7
  6
CONTINUOUS
 10
4712.8525
 20
11688.0230
  0
VERTEX
  8
LAYER1
 62
     7
  6
CONTINUOUS
 10
4348.7049
 20
10981.7929
  0
VERTEX
  8
LAYER1
 62
     7
  6
CONTINUOUS
 10
4205.2475
 20
10540.3971
  0
VERTEX
  8
LAYER1
 62
     7
  6
CONTINUOUS
 10
3907.3080
 20
9988.6635
  0
VERTEX
  8
LAYER1
 62
     7
  6
CONTINUOUS
 10
3521.0967
 20
9359.6816
  0
VERTEX
  8
LAYER1
 62
     7
  6
CONTINUOUS
 10
3212.1181
 20
8918.2859
  0
VERTEX
  8
LAYER1
 62
     7
  6
CONTINUOUS
 10
2892.1148
 20
8465.8654
  0
VERTEX
  8
LAYER1
 62
     7
  6
CONTINUOUS
 10
2539.0063
 20
8013.4449
  0
VERTEX
  8
LAYER1
 62
     7
  6
CONTINUOUS
 10
2075.5468
 20
7781.7145
  0
VERTEX
  8
LAYER1
 62
     7
  6
CONTINUOUS
 10
1435.5247
 20
7649.2974
  0
VERTEX
  8
LAYER1
 62
     7
  6
CONTINUOUS
 10
541.7085
 20
7549.9848
  0
VERTEX
  8
LAYER1
 62
     7
  6
CONTINUOUS
 10
-495.5652
 20
7538.9445
  0
VERTEX
  8
LAYER1
 62
     7
  6
CONTINUOUS
 10
-1444.5504
 20
7516.8802
  0
VERTEX
  8
LAYER1
 62
     7
  6
CONTINUOUS
 10
-2349.4068
 20
7439.6314
  0
VERTEX
  8
LAYER1
 62
     7
  6
CONTINUOUS
 10
-3309.4322
 20
7340.3188
  0
VERTEX
  8
LAYER1
 62
     7
  6
CONTINUOUS
 10
-3905.3089
 20
7263.0700
  0
VERTEX
  8
LAYER1
 62
     7
  6
CONTINUOUS
 10
-4644.6287
 20
7163.7574
  0
VERTEX
  8
LAYER1
 62
     7
  6
CONTINUOUS
 10
-5372.9238
 20
7086.5241
  0
VERTEX
  8
LAYER1
 62
     7
  6
CONTINUOUS
 10
-6012.9447
 20
7042.3798
  0
VERTEX
  8
LAYER1
 62
     7
  6
CONTINUOUS
 10
-6774.3443
 20
7053.4201
  0
VERTEX
  8
LAYER1
 62
     7
  6
CONTINUOUS
 10
-7590.9123
 20
7042.3798
  0
VERTEX
  8
LAYER1
 62
     7
  6
CONTINUOUS
 10
-8341.2867
 20
7053.4201
  0
VERTEX
  8
LAYER1
 62
     7
  6
CONTINUOUS
 10
-9157.8547
 20
7075.4844
  0
VERTEX
  8
LAYER1
 62
     7
  6
CONTINUOUS
 10
-9709.5877
 20
7086.5241
  0
VERTEX
  8
LAYER1
 62
     7
  6
CONTINUOUS
 10
-10283.4007
 20
7108.5884
  0
VERTEX
  8
LAYER1
 62
     7
  6
CONTINUOUS
 10
-10570.3000
 20
7207.9016
  0
VERTEX
  8
LAYER1
 62
     7
  6
CONTINUOUS
 10
-10945.4877
 20
7505.8405
  0
VERTEX
  8
LAYER1
 62
     7
  6
CONTINUOUS
 10
-11585.5098
 20
8123.7822
  0
VERTEX
  8
LAYER1
 62
     7
  6
CONTINUOUS
 10
-11916.5522
 20
8532.0740
  0
VERTEX
  8
LAYER1
 62
     7
  6
CONTINUOUS
 10
-12236.5555
 20
8973.4697
  0
VERTEX
  8
LAYER1
 62
     7
  6
CONTINUOUS
 10
-12600.7030
 20
9481.0591
  0
VERTEX
  8
LAYER1
 62
     7
  6
CONTINUOUS
 10
-13086.2275
 20
10198.3289
  0
VERTEX
  8
LAYER1
 62
     7
  6
CONTINUOUS
 10
-13527.6233
 20
10727.9988
  0
VERTEX
  8
LAYER1
 62
     7
  6
CONTINUOUS
 10
-13913.8357
 20
11246.6272
  0
VERTEX
  8
LAYER1
 62
     7
  6
CONTINUOUS
 10
-14200.7494
 20
11765.2569
  0
VERTEX
  8
LAYER1
 62
     7
  6
CONTINUOUS
 10
-14609.0256
 20
12614.9444
  0
VERTEX
  8
LAYER1
 62
     7
  6
CONTINUOUS
 10
-14807.6520
 20
13023.2207
  0
VERTEX
  8
LAYER1
 62
     7
  6
CONTINUOUS
 10
-15138.6943
 20
13619.0974
  0
VERTEX
  8
LAYER1
 62
     7
  6
CONTINUOUS
 10
-15293.1919
 20
14237.0557
  0
VERTEX
  8
LAYER1
 62
     7
  6
CONTINUOUS
 10
-15326.2959
 20
14943.2703
  0
VERTEX
  8
LAYER1
 62
     7
  6
CONTINUOUS
 10
-15381.4649
 20
15693.6446
  0
VERTEX
  8
LAYER1
 62
     7
  6
CONTINUOUS
 10
-15535.9470
 20
16212.2743
  0
VERTEX
  8
LAYER1
 62
     7
  6
CONTINUOUS
 10
-15569.0510
 20
16355.7317
  0
VERTEX
  8
LAYER1
 62
     7
  6
CONTINUOUS
 10
-15591.1303
 20
16697.7988
  0
VERTEX
  8
LAYER1
 62
     7
  6
CONTINUOUS
 10
-15502.8418
 20
16984.7136
  0
SEQEND
  8
LAYER1
  0
POLYLINE
  8
LAYER1
 62
     7
 66
     1
  6
CONTINUOUS
  0
VERTEX
  8
LAYER1
 62
     7
  6
CONTINUOUS
 10
-15138.6943
 20
13619.0974
  0
VERTEX
  8
LAYER1
 62
     7
  6
CONTINUOUS
 10
-15031.8554
 20
13402.4209
  0
VERTEX
  8
LAYER1
 62
     7
  6
CONTINUOUS
 10
-14631.1061
 20
13089.4287
  0
VERTEX
  8
LAYER1
 62
     7
  6
CONTINUOUS
 10
-14123.5011
 20
12901.8425
  0
VERTEX
  8
LAYER1
 62
     7
  6
CONTINUOUS
 10
-13593.8324
 20
12769.4253
  0
VERTEX
  8
LAYER1
 62
     7
  6
CONTINUOUS
 10
-13064.1637
 20
12659.0731
  0
VERTEX
  8
LAYER1
 62
     7
  6
CONTINUOUS
 10
-12534.4938
 20
12570.8002
  0
VERTEX
  8
LAYER1
 62
     7
  6
CONTINUOUS
 10
-11684.8218
 20
12570.8002
  0
VERTEX
  8
LAYER1
 62
     7
  6
CONTINUOUS
 10
-10757.9016
 20
12625.9679
  0
VERTEX
  8
LAYER1
 62
     7
  6
CONTINUOUS
 10
-9819.9412
 20
12592.8640
  0
VERTEX
  8
LAYER1
 62
     7
  6
CONTINUOUS
 10
-8793.7072
 20
12559.7600
  0
VERTEX
  8
LAYER1
 62
     7
  6
CONTINUOUS
 10
-7668.1606
 20
12592.8640
  0
VERTEX
  8
LAYER1
 62
     7
  6
CONTINUOUS
 10
-6641.9272
 20
12570.8002
  0
VERTEX
  8
LAYER1
 62
     7
  6
CONTINUOUS
 10
-5681.9023
 20
12570.8002
  0
VERTEX
  8
LAYER1
 62
     7
  6
CONTINUOUS
 10
-4567.3960
 20
12537.6950
  0
VERTEX
  8
LAYER1
 62
     7
  6
CONTINUOUS
 10
-3452.8729
 20
12504.5910
  0
VERTEX
  8
LAYER1
 62
     7
  6
CONTINUOUS
 10
-2492.8487
 20
12438.3830
  0
VERTEX
  8
LAYER1
 62
     7
  6
CONTINUOUS
 10
-1356.2774
 20
12339.0698
  0
VERTEX
  8
LAYER1
 62
     7
  6
CONTINUOUS
 10
43.1292
 20
12372.1738
  0
VERTEX
  8
LAYER1
 62
     7
  6
CONTINUOUS
 10
883.7910
 20
12427.3428
  0
VERTEX
  8
LAYER1
 62
     7
  6
CONTINUOUS
 10
1854.8412
 20
12526.6560
  0
VERTEX
  8
LAYER1
 62
     7
  6
CONTINUOUS
 10
2759.6964
 20
12681.1524
  0
VERTEX
  8
LAYER1
 62
     7
  6
CONTINUOUS
 10
3377.6393
 20
12747.3616
  0
VERTEX
  8
LAYER1
 62
     7
  6
CONTINUOUS
 10
4183.1838
 20
12846.6748
  0
VERTEX
  8
LAYER1
 62
     7
  6
CONTINUOUS
 10
4635.6031
 20
12990.1155
  0
VERTEX
  8
LAYER1
 62
     7
  6
CONTINUOUS
 10
5408.0423
 20
13199.7821
  0
SEQEND
  8
LAYER1
  0
POLYLINE
  8
LAYER1
 62
     7
 66
     1
  6
CONTINUOUS
  0
VERTEX
  8
LAYER1
 62
     7
  6
CONTINUOUS
 10
-12236.5555
 20
8973.4697
  0
VERTEX
  8
LAYER1
 62
     7
  6
CONTINUOUS
 10
-12214.4917
 20
9105.8869
  0
VERTEX
  8
LAYER1
 62
     7
  6
CONTINUOUS
 10
-11806.2000
 20
9050.7030
  0
VERTEX
  8
LAYER1
 62
     7
  6
CONTINUOUS
 10
-11111.0089
 20
8962.4301
  0
VERTEX
  8
LAYER1
 62
     7
  6
CONTINUOUS
 10
-10702.7172
 20
8907.2611
  0
VERTEX
  8
LAYER1
 62
     7
  6
CONTINUOUS
 10
-10051.6715
 20
8874.1571
  0
VERTEX
  8
LAYER1
 62
     7
  6
CONTINUOUS
 10
-9455.7936
 20
8830.0129
  0
VERTEX
  8
LAYER1
 62
     7
  6
CONTINUOUS
 10
-8672.3302
 20
8653.4509
  0
VERTEX
  8
LAYER1
 62
     7
  6
CONTINUOUS
 10
-8164.7253
 20
8498.9694
  0
VERTEX
  8
LAYER1
 62
     7
  6
CONTINUOUS
 10
-7546.7836
 20
8245.1752
  0
VERTEX
  8
LAYER1
 62
     7
  6
CONTINUOUS
 10
-6917.8017
 20
8079.6535
  0
VERTEX
  8
LAYER1
 62
     7
  6
CONTINUOUS
 10
-6299.8440
 20
7903.0921
  0
VERTEX
  8
LAYER1
 62
     7
  6
CONTINUOUS
 10
-5615.6932
 20
7759.6347
  0
VERTEX
  8
LAYER1
 62
     7
  6
CONTINUOUS
 10
-5196.3779
 20
7660.3221
  0
VERTEX
  8
LAYER1
 62
     7
  6
CONTINUOUS
 10
-4291.5214
 20
7538.9445
  0
VERTEX
  8
LAYER1
 62
     7
  6
CONTINUOUS
 10
-3485.9781
 20
7561.0089
  0
VERTEX
  8
LAYER1
 62
     7
  6
CONTINUOUS
 10
-2768.7221
 20
7715.5059
  0
VERTEX
  8
LAYER1
 62
     7
  6
CONTINUOUS
 10
-1841.8019
 20
7858.9479
  0
VERTEX
  8
LAYER1
 62
     7
  6
CONTINUOUS
 10
-363.1480
 20
8234.1350
  0
VERTEX
  8
LAYER1
 62
     7
  6
CONTINUOUS
 10
530.6682
 20
8620.3469
  0
VERTEX
  8
LAYER1
 62
     7
  6
CONTINUOUS
 10
1358.2765
 20
9006.5743
  0
VERTEX
  8
LAYER1
 62
     7
  6
CONTINUOUS
 10
1976.2336
 20
9348.6414
  0
VERTEX
  8
LAYER1
 62
     7
  6
CONTINUOUS
 10
2803.8407
 20
9845.2061
  0
VERTEX
  8
LAYER1
 62
     7
  6
CONTINUOUS
 10
3267.3014
 20
10187.2898
  0
VERTEX
  8
LAYER1
 62
     7
  6
CONTINUOUS
 10
3697.6569
 20
10507.2920
  0
VERTEX
  8
LAYER1
 62
     7
  6
CONTINUOUS
 10
4348.7049
 20
10981.7929
  0
SEQEND
  8
LAYER1
  0
POLYLINE
  8
LAYER1
 62
     7
 66
     1
  6
CONTINUOUS
  0
VERTEX
  8
LAYER1
 62
     7
  6
CONTINUOUS
 10
15531.7916
 20
17888.0237
  0
VERTEX
  8
LAYER1
 62
     7
  6
CONTINUOUS
 10
16006.2771
 20
17876.9989
  0
VERTEX
  8
LAYER1
 62
     7
  6
CONTINUOUS
 10
16657.3394
 20
17854.9185
  0
VERTEX
  8
LAYER1
 62
     7
  6
CONTINUOUS
 10
17562.1804
 20
17810.7742
  0
VERTEX
  8
LAYER1
 62
     7
  6
CONTINUOUS
 10
18687.7424
 20
17777.6691
  0
VERTEX
  8
LAYER1
 62
     7
  6
CONTINUOUS
 10
19747.0798
 20
17821.8300
  0
VERTEX
  8
LAYER1
 62
     7
  6
CONTINUOUS
 10
20773.3144
 20
17766.6467
  0
VERTEX
  8
LAYER1
 62
     7
  6
CONTINUOUS
 10
21600.9060
 20
17667.3335
  0
VERTEX
  8
LAYER1
 62
     7
  6
CONTINUOUS
 10
22660.2601
 20
17568.0203
  0
VERTEX
  8
LAYER1
 62
     7
  6
CONTINUOUS
 10
23697.5361
 20
17534.9152
  0
VERTEX
  8
LAYER1
 62
     7
  6
CONTINUOUS
 10
24569.2695
 20
17689.3973
  0
VERTEX
  8
LAYER1
 62
     7
  6
CONTINUOUS
 10
25562.3965
 20
17766.6467
  0
VERTEX
  8
LAYER1
 62
     7
  6
CONTINUOUS
 10
26434.1490
 20
17799.7495
  0
VERTEX
  8
LAYER1
 62
     7
  6
CONTINUOUS
 10
27592.8019
 20
17843.8794
  0
VERTEX
  8
LAYER1
 62
     7
  6
CONTINUOUS
 10
28530.7600
 20
17888.0237
  0
VERTEX
  8
LAYER1
 62
     7
  6
CONTINUOUS
 10
29556.9779
 20
17888.0237
  0
VERTEX
  8
LAYER1
 62
     7
  6
CONTINUOUS
 10
30274.2506
 20
17888.0237
  0
VERTEX
  8
LAYER1
 62
     7
  6
CONTINUOUS
 10
30991.4900
 20
17865.9742
  0
VERTEX
  8
LAYER1
 62
     7
  6
CONTINUOUS
 10
31421.8622
 20
17865.9742
  0
SEQEND
  8
LAYER1
  0
POLYLINE
  8
LAYER1
 62
     7
 66
     1
  6
CONTINUOUS
  0
VERTEX
  8
LAYER1
 62
     7
  6
CONTINUOUS
 10
16672.7054
 20
17812.0085
  0
VERTEX
  8
LAYER1
 62
     7
  6
CONTINUOUS
 10
16529.4029
 20
17855.9502
  0
VERTEX
  8
LAYER1
 62
     7
  6
CONTINUOUS
 10
16771.9090
 20
16999.0788
  0
VERTEX
  8
LAYER1
 62
     7
  6
CONTINUOUS
 10
17003.3880
 20
16361.9303
  0
VERTEX
  8
LAYER1
 62
     7
  6
CONTINUOUS
 10
17245.8941
 20
15538.0236
  0
VERTEX
  8
LAYER1
 62
     7
  6
CONTINUOUS
 10
17477.3730
 20
14736.0710
  0
VERTEX
  8
LAYER1
 62
     7
  6
CONTINUOUS
 10
17653.7498
 20
13989.0694
  0
VERTEX
  8
LAYER1
 62
     7
  6
CONTINUOUS
 10
17918.3006
 20
13044.3314
  0
VERTEX
  8
LAYER1
 62
     7
  6
CONTINUOUS
 10
18061.5864
 20
12429.1381
  0
VERTEX
  8
LAYER1
 62
     7
  6
CONTINUOUS
 10
18226.9360
 20
11550.3126
  0
VERTEX
  8
LAYER1
 62
     7
  6
CONTINUOUS
 10
18359.2138
 20
11198.7827
  0
VERTEX
  8
LAYER1
 62
     7
  6
CONTINUOUS
 10
18678.8883
 20
10583.5883
  0
VERTEX
  8
LAYER1
 62
     7
  6
CONTINUOUS
 10
18987.5071
 20
10265.0063
  0
VERTEX
  8
LAYER1
 62
     7
  6
CONTINUOUS
 10
19318.2063
 20
9880.5278
  0
VERTEX
  8
LAYER1
 62
     7
  6
CONTINUOUS
 10
19748.0949
 20
9364.1944
  0
VERTEX
  8
LAYER1
 62
     7
  6
CONTINUOUS
 10
20222.0966
 20
8924.7972
  0
VERTEX
  8
LAYER1
 62
     7
  6
CONTINUOUS
 10
21203.1243
 20
8683.1048
  0
VERTEX
  8
LAYER1
 62
     7
  6
CONTINUOUS
 10
21820.4262
 20
8617.1928
  0
VERTEX
  8
LAYER1
 62
     7
  6
CONTINUOUS
 10
22525.8760
 20
8551.2809
  0
VERTEX
  8
LAYER1
 62
     7
  6
CONTINUOUS
 10
23341.5850
 20
8441.4272
  0
VERTEX
  8
LAYER1
 62
     7
  6
CONTINUOUS
 10
24190.3492
 20
8331.5742
  0
VERTEX
  8
LAYER1
 62
     7
  6
CONTINUOUS
 10
25204.4488
 20
8254.6691
  0
VERTEX
  8
LAYER1
 62
     7
  6
CONTINUOUS
 10
26053.2320
 20
8298.6263
  0
VERTEX
  8
LAYER1
 62
     7
  6
CONTINUOUS
 10
26857.9020
 20
8474.3758
  0
VERTEX
  8
LAYER1
 62
     7
  6
CONTINUOUS
 10
27486.1953
 20
8770.9869
  0
VERTEX
  8
LAYER1
 62
     7
  6
CONTINUOUS
 10
27794.8498
 20
9056.6210
  0
VERTEX
  8
LAYER1
 62
     7
  6
CONTINUOUS
 10
28125.5300
 20
9902.4986
  0
VERTEX
  8
LAYER1
 62
     7
  6
CONTINUOUS
 10
28290.8796
 20
10495.7061
  0
VERTEX
  8
LAYER1
 62
     7
  6
CONTINUOUS
 10
28511.3363
 20
11418.4733
  0
VERTEX
  8
LAYER1
 62
     7
  6
CONTINUOUS
 10
28753.8424
 20
11945.7843
  0
VERTEX
  8
LAYER1
 62
     7
  6
CONTINUOUS
 10
29007.3708
 20
12473.0798
  0
VERTEX
  8
LAYER1
 62
     7
  6
CONTINUOUS
 10
29249.8769
 20
12901.5149
  0
VERTEX
  8
LAYER1
 62
     7
  6
CONTINUOUS
 10
29426.2489
 20
13242.0678
  0
VERTEX
  8
LAYER1
 62
     7
  6
CONTINUOUS
 10
29778.9833
 20
13989.0694
  0
VERTEX
  8
LAYER1
 62
     7
  6
CONTINUOUS
 10
30010.4623
 20
14505.3878
  0
VERTEX
  8
LAYER1
 62
     7
  6
CONTINUOUS
 10
30186.8390
 20
15131.5581
  0
VERTEX
  8
LAYER1
 62
     7
  6
CONTINUOUS
 10
30252.9684
 20
15570.9715
  0
VERTEX
  8
LAYER1
 62
     7
  6
CONTINUOUS
 10
30275.0178
 20
16109.2596
  0
VERTEX
  8
LAYER1
 62
     7
  6
CONTINUOUS
 10
30341.1472
 20
16515.7095
  0
VERTEX
  8
LAYER1
 62
     7
  6
CONTINUOUS
 10
30429.3260
 20
16823.3145
  0
VERTEX
  8
LAYER1
 62
     7
  6
CONTINUOUS
 10
30539.5544
 20
17130.9027
  0
VERTEX
  8
LAYER1
 62
     7
  6
CONTINUOUS
 10
30638.7699
 20
17471.4544
  0
VERTEX
  8
LAYER1
 62
     7
  6
CONTINUOUS
 10
30991.4900
 20
17822.9999
  0
SEQEND
  8
LAYER1
  0
POLYLINE
  8
LAYER1
 62
     7
 66
     1
  6
CONTINUOUS
  0
VERTEX
  8
LAYER1
 62
     7
  6
CONTINUOUS
 10
17639.4441
 20
14014.8192
  0
VERTEX
  8
LAYER1
 62
     7
  6
CONTINUOUS
 10
17727.7015
 20
14213.4456
  0
VERTEX
  8
LAYER1
 62
     7
  6
CONTINUOUS
 10
18577.3735
 20
14103.0921
  0
VERTEX
  8
LAYER1
 62
     7
  6
CONTINUOUS
 10
19471.2064
 20
13981.7152
  0
VERTEX
  8
LAYER1
 62
     7
  6
CONTINUOUS
 10
20210.5405
 20
13882.4020
  0
VERTEX
  8
LAYER1
 62
     7
  6
CONTINUOUS
 10
21391.2406
 20
13794.1291
  0
VERTEX
  8
LAYER1
 62
     7
  6
CONTINUOUS
 10
22450.5780
 20
13761.0251
  0
VERTEX
  8
LAYER1
 62
     7
  6
CONTINUOUS
 10
23443.7074
 20
13661.7119
  0
VERTEX
  8
LAYER1
 62
     7
  6
CONTINUOUS
 10
24447.8949
 20
13683.7757
  0
VERTEX
  8
LAYER1
 62
     7
  6
CONTINUOUS
 10
25385.8530
 20
13849.2980
  0
VERTEX
  8
LAYER1
 62
     7
  6
CONTINUOUS
 10
26114.1480
 20
14069.9882
  0
VERTEX
  8
LAYER1
 62
     7
  6
CONTINUOUS
 10
27041.0504
 20
14367.9265
  0
VERTEX
  8
LAYER1
 62
     7
  6
CONTINUOUS
 10
27725.2036
 20
14610.6971
  0
VERTEX
  8
LAYER1
 62
     7
  6
CONTINUOUS
 10
28343.1608
 20
14842.4274
  0
VERTEX
  8
LAYER1
 62
     7
  6
CONTINUOUS
 10
28894.9123
 20
15096.2216
  0
VERTEX
  8
LAYER1
 62
     7
  6
CONTINUOUS
 10
29523.8918
 20
15416.2404
  0
VERTEX
  8
LAYER1
 62
     7
  6
CONTINUOUS
 10
30252.1868
 20
15603.8265
  0
SEQEND
  8
LAYER1
  0
POLYLINE
  8
LAYER1
 62
     7
 66
     1
  6
CONTINUOUS
  0
VERTEX
  8
LAYER1
 62
     7
  6
CONTINUOUS
 10
18345.6420
 20
11211.9924
  0
VERTEX
  8
LAYER1
 62
     7
  6
CONTINUOUS
 10
18367.7391
 20
11200.9533
  0
VERTEX
  8
LAYER1
 62
     7
  6
CONTINUOUS
 10
18996.7210
 20
11355.4343
  0
VERTEX
  8
LAYER1
 62
     7
  6
CONTINUOUS
 10
19901.5620
 20
11432.6825
  0
VERTEX
  8
LAYER1
 62
     7
  6
CONTINUOUS
 10
21016.0683
 20
11631.3088
  0
VERTEX
  8
LAYER1
 62
     7
  6
CONTINUOUS
 10
21799.5323
 20
11951.3122
  0
VERTEX
  8
LAYER1
 62
     7
  6
CONTINUOUS
 10
22770.6123
 20
12238.2258
  0
VERTEX
  8
LAYER1
 62
     7
  6
CONTINUOUS
 10
23929.2629
 20
12503.0613
  0
VERTEX
  8
LAYER1
 62
     7
  6
CONTINUOUS
 10
24646.5022
 20
12602.3733
  0
VERTEX
  8
LAYER1
 62
     7
  6
CONTINUOUS
 10
25363.7749
 20
12646.5020
  0
VERTEX
  8
LAYER1
 62
     7
  6
CONTINUOUS
 10
26070.0062
 20
12635.4785
  0
VERTEX
  8
LAYER1
 62
     7
  6
CONTINUOUS
 10
26820.3650
 20
12624.4383
  0
VERTEX
  8
LAYER1
 62
     7
  6
CONTINUOUS
 10
27780.3726
 20
12635.4785
  0
VERTEX
  8
LAYER1
 62
     7
  6
CONTINUOUS
 10
28387.3026
 20
12657.5423
  0
VERTEX
  8
LAYER1
 62
     7
  6
CONTINUOUS
 10
29005.2502
 20
12492.0211
  0
SEQEND
  8
LAYER1
  0
POLYLINE
  8
LAYER1
 62
     7
 66
     1
  6
CONTINUOUS
  0
VERTEX
  8
LAYER1
 62
     7
  6
CONTINUOUS
 10
18974.6263
 20
10274.0319
  0
VERTEX
  8
LAYER1
 62
     7
  6
CONTINUOUS
 10
19084.9785
 20
10329.2009
  0
VERTEX
  8
LAYER1
 62
     7
  6
CONTINUOUS
 10
19680.8718
 20
10207.8239
  0
VERTEX
  8
LAYER1
 62
     7
  6
CONTINUOUS
 10
20618.8323
 20
9876.7804
  0
VERTEX
  8
LAYER1
 62
     7
  6
CONTINUOUS
 10
21391.2406
 20
9622.9857
  0
VERTEX
  8
LAYER1
 62
     7
  6
CONTINUOUS
 10
22406.4647
 20
9347.1111
  0
VERTEX
  8
LAYER1
 62
     7
  6
CONTINUOUS
 10
22836.8060
 20
9214.6939
  0
VERTEX
  8
LAYER1
 62
     7
  6
CONTINUOUS
 10
23278.1862
 20
9027.1084
  0
VERTEX
  8
LAYER1
 62
     7
  6
CONTINUOUS
 10
24017.5227
 20
8651.9206
  0
VERTEX
  8
LAYER1
 62
     7
  6
CONTINUOUS
 10
24183.0582
 20
8331.9179
  0
VERTEX
  8
LAYER1
 62
     7
  6
CONTINUOUS
 10
25121.0162
 20
8607.7764
  0
VERTEX
  8
LAYER1
 62
     7
  6
CONTINUOUS
 10
25628.5926
 20
9071.2371
  0
VERTEX
  8
LAYER1
 62
     7
  6
CONTINUOUS
 10
26191.3808
 20
9611.9460
  0
VERTEX
  8
LAYER1
 62
     7
  6
CONTINUOUS
 10
26533.4645
 20
9920.9246
  0
VERTEX
  8
LAYER1
 62
     7
  6
CONTINUOUS
 10
27007.9643
 20
10450.5933
  0
VERTEX
  8
LAYER1
 62
     7
  6
CONTINUOUS
 10
27526.5773
 20
10947.1580
  0
VERTEX
  8
LAYER1
 62
     7
  6
CONTINUOUS
 10
28111.4149
 20
11322.3303
  0
VERTEX
  8
LAYER1
 62
     7
  6
CONTINUOUS
 10
28508.6676
 20
11432.6825
  0
SEQEND
  8
LAYER1
  0
POLYLINE
  8
LAYER1
 62
     7
 66
     1
  6
DASHED
  0
VERTEX
  8
LAYER1
 62
     7
  6
DASHED
 10
4590.4581
 20
27156.5754
  0
VERTEX
  8
LAYER1
 62
     7
  6
DASHED
 10
4965.6470
 20
27233.8082
  0
VERTEX
  8
LAYER1
 62
     7
  6
DASHED
 10
5594.6289
 20
27344.1604
  0
VERTEX
  8
LAYER1
 62
     7
  6
DASHED
 10
6344.9878
 20
27476.5788
  0
VERTEX
  8
LAYER1
 62
     7
  6
DASHED
 10
7249.8430
 20
27653.1390
  0
VERTEX
  8
LAYER1
 62
     7
  6
DASHED
 10
8242.9724
 20
27752.4521
  0
VERTEX
  8
LAYER1
 62
     7
  6
DASHED
 10
9158.8548
 20
27984.1813
  0
VERTEX
  8
LAYER1
 62
     7
  6
DASHED
 10
9986.4607
 20
28304.1846
  0
VERTEX
  8
LAYER1
 62
     7
  6
DASHED
 10
10913.3821
 20
28877.9975
  0
VERTEX
  8
LAYER1
 62
     7
  6
DASHED
 10
11917.5505
 20
29661.4615
  0
VERTEX
  8
LAYER1
 62
     7
  6
DASHED
 10
12535.4934
 20
30224.2354
  0
VERTEX
  8
LAYER1
 62
     7
  6
DASHED
 10
13263.7884
 20
30941.4915
  0
VERTEX
  8
LAYER1
 62
     7
  6
DASHED
 10
13650.0164
 20
31559.4486
  0
VERTEX
  8
LAYER1
 62
     7
  6
DASHED
 10
14036.2277
 20
32254.6385
  0
VERTEX
  8
LAYER1
 62
     7
  6
DASHED
 10
14245.8931
 20
32850.5152
  0
VERTEX
  8
LAYER1
 62
     7
  6
DASHED
 10
14532.7936
 20
33854.6693
  0
VERTEX
  8
LAYER1
 62
     7
  6
DASHED
 10
14510.7275
 20
34627.1086
  0
VERTEX
  8
LAYER1
 62
     7
  6
DASHED
 10
14190.7099
 20
35664.3822
  0
VERTEX
  8
LAYER1
 62
     7
  6
DASHED
 10
13947.9560
 20
36381.6383
  0
VERTEX
  8
LAYER1
 62
     7
  6
DASHED
 10
13683.1192
 20
37198.2051
  0
VERTEX
  8
LAYER1
 62
     7
  6
DASHED
 10
13285.8689
 20
38202.3735
  0
VERTEX
  8
LAYER1
 62
     7
  6
DASHED
 10
12601.7038
 20
38919.6295
  0
VERTEX
  8
LAYER1
 62
     7
  6
DASHED
 10
11829.2788
 20
39471.3787
  0
VERTEX
  8
LAYER1
 62
     7
  6
DASHED
 10
11277.5296
 20
39835.5262
  0
VERTEX
  8
LAYER1
 62
     7
  6
DASHED
 10
10714.7557
 20
40177.5933
  0
VERTEX
  8
LAYER1
 62
     7
  6
DASHED
 10
9688.5235
 20
40221.7351
  0
VERTEX
  8
LAYER1
 62
     7
  6
DASHED
 10
8938.1647
 20
40122.4243
  0
VERTEX
  8
LAYER1
 62
     7
  6
DASHED
 10
8088.4903
 20
39846.5510
  0
VERTEX
  8
LAYER1
 62
     7
  6
DASHED
 10
7338.1172
 20
39394.1293
  0
VERTEX
  8
LAYER1
 62
     7
  6
DASHED
 10
6565.6946
 20
38908.6048
  0
VERTEX
  8
LAYER1
 62
     7
  6
DASHED
 10
5749.1111
 20
38676.8756
  0
VERTEX
  8
LAYER1
 62
     7
  6
DASHED
 10
4888.3976
 20
38610.6653
  0
VERTEX
  8
LAYER1
 62
     7
  6
DASHED
 10
4160.1026
 20
38500.3131
  0
VERTEX
  8
LAYER1
 62
     7
  6
DASHED
 10
3509.0569
 20
38202.3735
  0
VERTEX
  8
LAYER1
 62
     7
  6
DASHED
 10
2913.1790
 20
37562.3526
  0
VERTEX
  8
LAYER1
 62
     7
  6
DASHED
 10
2328.3414
 20
36823.0328
  0
VERTEX
  8
LAYER1
 62
     7
  6
DASHED
 10
1953.1548
 20
36183.0119
  0
VERTEX
  8
LAYER1
 62
     7
  6
DASHED
 10
1423.4849
 20
35344.3646
  0
VERTEX
  8
LAYER1
 62
     7
  6
DASHED
 10
1081.4024
 20
34693.3166
  0
VERTEX
  8
LAYER1
 62
     7
  6
DASHED
 10
728.2951
 20
33953.9825
  0
VERTEX
  8
LAYER1
 62
     7
  6
DASHED
 10
562.7739
 20
33236.7289
  0
VERTEX
  8
LAYER1
 62
     7
  6
DASHED
 10
573.8129
 20
32387.0545
  0
VERTEX
  8
LAYER1
 62
     7
  6
DASHED
 10
816.5680
 20
31338.7418
  0
VERTEX
  8
LAYER1
 62
     7
  6
DASHED
 10
1059.3374
 20
30522.1750
  0
VERTEX
  8
LAYER1
 62
     7
  6
DASHED
 10
1313.1327
 20
29793.8799
  0
VERTEX
  8
LAYER1
 62
     7
  6
DASHED
 10
1710.3842
 20
29032.4797
  0
VERTEX
  8
LAYER1
 62
     7
  6
DASHED
 10
2195.9242
 20
28480.7472
  0
VERTEX
  8
LAYER1
 62
     7
  6
DASHED
 10
2692.4889
 20
27818.6601
  0
VERTEX
  8
LAYER1
 62
     7
  6
DASHED
 10
3409.7438
 20
27322.0966
  0
VERTEX
  8
LAYER1
 62
     7
  6
DASHED
 10
4016.6619
 20
27079.3260
  0
VERTEX
  8
LAYER1
 62
     7
  6
DASHED
 10
4590.4581
 20
27156.5754
  0
SEQEND
  8
LAYER1
  0
POLYLINE
  8
LAYER1
 62
     7
 66
     1
  6
DASHED
  0
VERTEX
  8
LAYER1
 62
     7
  6
DASHED
 10
-14200.7494
 20
11765.2569
  0
VERTEX
  8
LAYER1
 62
     7
  6
DASHED
 10
-14024.1880
 20
12129.4032
  0
VERTEX
  8
LAYER1
 62
     7
  6
DASHED
 10
-13229.6849
 20
11743.1919
  0
VERTEX
  8
LAYER1
 62
     7
  6
DASHED
 10
-12711.0564
 20
11555.6058
  0
VERTEX
  8
LAYER1
 62
     7
  6
DASHED
 10
-12104.1383
 20
11345.9404
  0
VERTEX
  8
LAYER1
 62
     7
  6
DASHED
 10
-11960.6809
 20
11268.6922
  0
VERTEX
  8
LAYER1
 62
     7
  6
DASHED
 10
-11221.3623
 20
10948.6889
  0
VERTEX
  8
LAYER1
 62
     7
  6
DASHED
 10
-10084.7755
 20
10441.0840
  0
VERTEX
  8
LAYER1
 62
     7
  6
DASHED
 10
-9510.9620
 20
10154.1846
  0
VERTEX
  8
LAYER1
 62
     7
  6
DASHED
 10
-8517.8326
 20
9613.4763
  0
VERTEX
  8
LAYER1
 62
     7
  6
DASHED
 10
-7778.5134
 20
9238.3046
  0
VERTEX
  8
LAYER1
 62
     7
  6
DASHED
 10
-6321.9233
 20
8785.8687
  0
VERTEX
  8
LAYER1
 62
     7
  6
DASHED
 10
-5306.7146
 20
8741.7399
  0
VERTEX
  8
LAYER1
 62
     7
  6
DASHED
 10
-4291.5214
 20
8796.9083
  0
VERTEX
  8
LAYER1
 62
     7
  6
DASHED
 10
-3088.7254
 20
8940.3657
  0
VERTEX
  8
LAYER1
 62
     7
  6
DASHED
 10
-1841.8019
 20
9072.7829
  0
VERTEX
  8
LAYER1
 62
     7
  6
DASHED
 10
-936.9454
 20
9425.8902
  0
VERTEX
  8
LAYER1
 62
     7
  6
DASHED
 10
177.5609
 20
10010.7284
  0
VERTEX
  8
LAYER1
 62
     7
  6
DASHED
 10
762.3986
 20
10341.7708
  0
VERTEX
  8
LAYER1
 62
     7
  6
DASHED
 10
1645.1901
 20
10838.3355
  0
VERTEX
  8
LAYER1
 62
     7
  6
DASHED
 10
2285.1967
 20
11169.3790
  0
VERTEX
  8
LAYER1
 62
     7
  6
DASHED
 10
2980.3866
 20
11577.6708
  0
VERTEX
  8
LAYER1
 62
     7
  6
DASHED
 10
4017.6602
 20
11963.8821
  0
VERTEX
  8
LAYER1
 62
     7
  6
DASHED
 10
4922.5179
 20
12041.1303
  0
SEQEND
  8
LAYER1
  0
POLYLINE
  8
LAYER1
 62
     7
 66
     1
  6
CONTINUOUS
  0
VERTEX
  8
LAYER1
 62
     7
  6
CONTINUOUS
 10
-7864.4287
 20
31410.4324
  0
VERTEX
  8
LAYER1
 62
     7
  6
CONTINUOUS
 10
-5083.6668
 20
31410.4324
  0
SEQEND
  8
LAYER1
  0
POLYLINE
  8
LAYER1
 62
     7
 66
     1
  6
CONTINUOUS
  0
VERTEX
  8
LAYER1
 62
     7
  6
CONTINUOUS
 10
24609.4322
 20
32948.0342
  0
VERTEX
  8
LAYER1
 62
     7
  6
CONTINUOUS
 10
24609.4322
 20
27574.0954
  0
SEQEND
  8
LAYER1
  0
POLYLINE
  8
LAYER1
 62
     7
 66
     1
  6
CONTINUOUS
  0
VERTEX
  8
LAYER1
 62
     7
  6
CONTINUOUS
 10
-7864.4287
 20
31707.2306
  0
VERTEX
  8
LAYER1
 62
     7
  6
CONTINUOUS
 10
-7864.4287
 20
31410.4324
  0
SEQEND
  8
LAYER1
  0
POLYLINE
  8
LAYER1
 62
     7
 66
     1
  6
CONTINUOUS
  0
VERTEX
  8
LAYER1
 62
     7
  6
CONTINUOUS
 10
-5083.6668
 20
31410.4324
  0
VERTEX
  8
LAYER1
 62
     7
  6
CONTINUOUS
 10
-7864.4287
 20
31410.4324
  0
SEQEND
  8
LAYER1
  0
POLYLINE
  8
LAYER1
 62
     7
 66
     1
  6
CONTINUOUS
  0
VERTEX
  8
LAYER1
 62
     7
  6
CONTINUOUS
 10
24609.4322
 20
27574.0954
  0
VERTEX
  8
LAYER1
 62
     7
  6
CONTINUOUS
 10
24609.4322
 20
32948.0342
  0
SEQEND
  8
LAYER1
  0
POLYLINE
  8
LAYER1
 62
     7
 66
     1
  6
CONTINUOUS
  0
VERTEX
  8
LAYER1
 62
     7
  6
CONTINUOUS
 10
24609.4322
 20
32948.0342
  0
VERTEX
  8
LAYER1
 62
     7
  6
CONTINUOUS
 10
24241.3485
 20
31885.8542
  0
SEQEND
  8
LAYER1
  0
POLYLINE
  8
LAYER1
 62
     7
 66
     1
  6
CONTINUOUS
  0
VERTEX
  8
LAYER1
 62
     7
  6
CONTINUOUS
 10
-5083.6668
 20
31410.4324
  0
VERTEX
  8
LAYER1
 62
     7
  6
CONTINUOUS
 10
-2302.9049
 20
31410.4324
  0
SEQEND
  8
LAYER1
  0
POLYLINE
  8
LAYER1
 62
     7
 66
     1
  6
CONTINUOUS
  0
VERTEX
  8
LAYER1
 62
     7
  6
CONTINUOUS
 10
-2302.9049
 20
31707.2306
  0
VERTEX
  8
LAYER1
 62
     7
  6
CONTINUOUS
 10
-2302.9049
 20
31410.4324
  0
SEQEND
  8
LAYER1
  0
ENDSEC
  0
EOF
