  0
SECTION
  2
HEADER
  9
$ACADVER
  1
AC1004
  9
$EXTMIN
 10
-3370.2687
 20
3267.3330
  9
$EXTMAX
 10
34803.9666
 20
26957.9491
  9
$LIMMIN
 10
-3370.2687
 20
3267.3330
  9
$LIMMAX
 10
34803.9666
 20
26957.9491
  9
$INSBASE
 10
0.0
 20
0.0
  9
$VIEWCTR
 10
7.21903
 20
4.5
  9
$VIEWSIZE
 40
9.0
  9
$SNAPMODE
 70
     0
  9
$SNAPUNIT
 10
1.0
 20
1.0
  9
$SNAPBASE
 10
0.0
 20
0.0
  9
$SNAPANG
 50
0.0
  9
$SNAPSTYLE
 70
     0
  9
$SNAPISOPAIR
 70
     0
  9
$GRIDMODE
 70
     0
  9
$GRIDUNIT
 10
0.0
 20
0.0
  9
$ORTHOMODE
 70
     0
  9
$REGENMODE
 70
     1
  9
$FILLMODE
 70
     1
  9
$QTEXTMODE
 70
     0
  9
$DRAGMODE
 70
     2
  9
$LTSCALE
 40
1.0
  9
$OSMODE
 70
     0
  9
$ATTMODE
 70
     1
  9
$TEXTSIZE
 40
0.2
  9
$TRACEWID
 40
0.05
  9
$TEXTSTYLE
  7
STANDARD
  9
$CLAYER
  8
0
  9
$CELTYPE
  6
BYLAYER
  9
$CECOLOR
 62
   256
  9
$DIMSCALE
 40
1.0
  9
$DIMASZ
 40
0.18
  9
$DIMEXO
 40
0.0625
  9
$DIMDLI
 40
0.38
  9
$DIMRND
 40
0.0
  9
$DIMDLE
 40
0.0
  9
$DIMEXE
 40
0.18
  9
$DIMTP
 40
0.0
  9
$DIMTM
 40
0.0
  9
$DIMTXT
 40
0.18
  9
$DIMCEN
 40
0.09
  9
$DIMTSZ
 40
0.0
  9
$DIMTOL
 70
     0
  9
$DIMLIM
 70
     0
  9
$DIMTIH
 70
     1
  9
$DIMTOH
 70
     1
  9
$DIMSE1
 70
     0
  9
$DIMSE2
 70
     0
  9
$DIMTAD
 70
     0
  9
$DIMZIN
 70
     0
  9
$DIMBLK
  1

  9
$DIMASO
 70
     1
  9
$DIMSHO
 70
     0
  9
$DIMPOST
  1

  9
$DIMAPOST
  1

  9
$DIMALT
 70
     0
  9
$DIMALTD
 70
     2
  9
$DIMALTF
 40
25.4
  9
$DIMLFAC
 40
1.0
  9
$LUNITS
 70
     2
  9
$LUPREC
 70
     4
  9
$AXISMODE
 70
     0
  9
$AXISUNIT
 10
0.0
 20
0.0
  9
$SKETCHINC
 40
0.1
  9
$FILLETRAD
 40
0.0
  9
$AUNITS
 70
     0
  9
$AUPREC
 70
     0
  9
$MENU
  1
acad
  9
$ELEVATION
 40
0.0
  9
$THICKNESS
 40
0.0
  9
$VIEWDIR
 10
0.0
 20
0.0
 30
1.0
  9
$LIMCHECK
 70
     0
  9
$BLIPMODE
 70
     1
  9
$CHAMFERA
 40
0.0
  9
$CHAMFERB
 40
0.0
  9
$FASTZOOM
 70
     1
  9
$SKPOLY
 70
     0
  9
$TDCREATE
 40
2447222.5666886573
  9
$TDUPDATE
 40
2447222.5666886573
  9
$TDINDWG
 40
0.0000000000
  9
$TDUSRTIMER
 40
0.0000000000
  9
$USRTIMER
 70
     1
  9
$ANGBASE
 50
0.0
  9
$ANGDIR
 70
     0
  9
$PDMODE
 70
     0
  9
$PDSIZE
 40
0.0
  9
$PLINEWID
 40
0.0
  9
$COORDS
 70
     0
  9
$SPLFRAME
 70
     0
  9
$SPLINESEGS
 70
     8
  9
$ATTDIA
 70
     0
  9
$ATTREQ
 70
     1
  9
$USERI1
 70
     0
  9
$USERI2
 70
     0
  9
$USERI3
 70
     0
  9
$USERI4
 70
     0
  9
$USERI5
 70
     0
  9
$USERR1
 40
0.0
  9
$USERR2
 40
0.0
  9
$USERR3
 40
0.0
  9
$USERR4
 40
0.0
  9
$USERR5
 40
0.0
  0
ENDSEC
  0
SECTION
  2
TABLES
  0
TABLE
  2
LTYPE
 70
     13
  0
LTYPE
  2
CONTINUOUS
 70
    64
  3
Solid line
 72
    65
 73
     0
 40
0.0
  0
LTYPE
  2
DASHED
 70
    64
  3
__ __ __ __ __ __ __ __ __ __ __ __ __ __ __
 72
    65
 73
     2
 40
0.75
 49
0.5
 49
-0.25
  0
LTYPE
  2
HIDDEN
 70
    64
  3
_ _ _ _ _ _ _ _ _ _ _ _ _ _ _ _ _ _ _ _ _ _ _
 72
    65
 73
     2
 40
0.375
 49
0.25
 49
-0.125
  0
LTYPE
  2
CENTER
 70
    64
  3
____ _ ____ _ ____ _ ____ _ ____ _ ____ _ ____
 72
    65
 73
     4
 40
2.0
 49
1.25
 49
-0.25
 49
0.25
 49
-0.25
  0
LTYPE
  2
PHANTOM
 70
    64
  3
_____ _ _ _____ _ _ _____ _ _ _____ _ _ ____
 72
    65
 73
     6
 40
2.5
 49
1.25
 49
-0.25
 49
0.25
 49
-0.25
 49
0.25
 49
-0.25
  0
LTYPE
  2
DOT
 70
    64
  3
...............................................
 72
    65
 73
     2
 40
0.25
 49
0.0
 49
-0.25
  0
LTYPE
  2
DASHDOT
 70
    64
  3
__ . __ . __ . __ . __ . __ . __ . __ . __ . __
 72
    65
 73
     4
 40
1.0
 49
0.5
 49
-0.25
 49
0.0
 49
-0.25
  0
LTYPE
  2
BORDER
 70
    64
  3
__ __ . __ __ . __ __ . __ __ . __ __ . __ __
 72
    65
 73
     6
 40
1.75
 49
0.5
 49
-0.25
 49
0.5
 49
-0.25
 49
0.0
 49
-0.25
  0
LTYPE
  2
DIVIDE
 70
    64
  3
__ . . __ . . __ . . __ . . __ . . __ . . __
 72
    65
 73
     6
 40
1.25
 49
0.5
 49
-0.25
 49
0.0
 49
-0.25
 49
0.0
 49
-0.25
  0
LTYPE
  2
DCTYPE1
 70
    64
  3
__ . . __ . . __ . . __ . . __ . . __ . . __
 72
    65
 73
     8
 40
2.5
 49
0.5
 49
-0.25
 49
0.125
 49
-0.25
 49
0.25
 49
-0.25
 49
0.125
 49
-0.25
  0
LTYPE
  2
DCTYPE2
 70
    64
  3
__ . . __ . . __ . . __ . . __ . . __ . . __
 72
    65
 73
     6
 40
2.05
 49
1.0
 49
-0.3
 49
0.15
 49
-0.15
 49
0.15
 49
-0.3
  0
LTYPE
  2
DCTYPE3
 70
    64
  3
__ . . __ . . __ . . __ . . __ . . __ . . __
 72
    65
 73
     6
 40
2.5
 49
0.8
 49
-0.2
 49
0.8
 49
-0.2
 49
0.3
 49
-0.2
  0
LTYPE
  2
DCTYPE4
 70
    64
  3
__ . . __ . . __ . . __ . . __ . . __ . . __
 72
    65
 73
     10
 40
3.97
 49
1.75
 49
-0.3
 49
0.3
 49
-0.3
 49
0.06
 49
-0.3
 49
0.06
 49
-0.3
 49
0.3
 49
-0.3
  0
ENDTAB
  0
TABLE
  2
LAYER
 70
    153
  0
LAYER
  2
LAYER1
 70
 64
 62
     7
  6
CONTINUOUS
  0
ENDTAB
  0
ENDSEC
  0
SECTION
  2
BLOCKS
  0
ENDSEC
  0
SECTION
  2
ENTITIES
  0
POLYLINE
  8
LAYER1
 62
     7
 66
     1
  6
CONTINUOUS
  0
VERTEX
  8
LAYER1
 62
     7
  6
CONTINUOUS
 10
14135.5409
 20
26450.3442
  0
VERTEX
  8
LAYER1
 62
     7
  6
CONTINUOUS
 10
13925.8743
 20
26461.3832
  0
VERTEX
  8
LAYER1
 62
     7
  6
CONTINUOUS
 10
13462.4148
 20
26428.2804
  0
VERTEX
  8
LAYER1
 62
     7
  6
CONTINUOUS
 10
12899.6409
 20
26339.9919
  0
VERTEX
  8
LAYER1
 62
     7
  6
CONTINUOUS
 10
12259.6343
 20
26196.5488
  0
VERTEX
  8
LAYER1
 62
     7
  6
CONTINUOUS
 10
11597.5484
 20
26053.0914
  0
VERTEX
  8
LAYER1
 62
     7
  6
CONTINUOUS
 10
11034.7757
 20
25887.5703
  0
VERTEX
  8
LAYER1
 62
     7
  6
CONTINUOUS
 10
10449.9226
 20
25688.9439
  0
VERTEX
  8
LAYER1
 62
     7
  6
CONTINUOUS
 10
9732.6677
 20
25335.8378
  0
VERTEX
  8
LAYER1
 62
     7
  6
CONTINUOUS
 10
9214.0381
 20
24916.5070
  0
VERTEX
  8
LAYER1
 62
     7
  6
CONTINUOUS
 10
8805.7463
 20
24629.6065
  0
VERTEX
  8
LAYER1
 62
     7
  6
CONTINUOUS
 10
8187.8047
 20
24066.8326
  0
VERTEX
  8
LAYER1
 62
     7
  6
CONTINUOUS
 10
7801.5779
 20
23625.4381
  0
VERTEX
  8
LAYER1
 62
     7
  6
CONTINUOUS
 10
7349.1574
 20
23062.6642
  0
VERTEX
  8
LAYER1
 62
     7
  6
CONTINUOUS
 10
7029.1541
 20
22632.3087
  0
VERTEX
  8
LAYER1
 62
     7
  6
CONTINUOUS
 10
6797.4237
 20
22190.9284
  0
VERTEX
  8
LAYER1
 62
     7
  6
CONTINUOUS
 10
6389.1320
 20
21374.3449
  0
VERTEX
  8
LAYER1
 62
     7
  6
CONTINUOUS
 10
6234.6510
 20
20888.8204
  0
VERTEX
  8
LAYER1
 62
     7
  6
CONTINUOUS
 10
6168.4419
 20
20337.0856
  0
VERTEX
  8
LAYER1
 62
     7
  6
CONTINUOUS
 10
6212.5706
 20
19520.5021
  0
VERTEX
  8
LAYER1
 62
     7
  6
CONTINUOUS
 10
6311.8838
 20
18990.8334
  0
VERTEX
  8
LAYER1
 62
     7
  6
CONTINUOUS
 10
6543.6141
 20
18174.2665
  0
VERTEX
  8
LAYER1
 62
     7
  6
CONTINUOUS
 10
6841.5525
 20
17622.5317
  0
VERTEX
  8
LAYER1
 62
     7
  6
CONTINUOUS
 10
7227.7804
 20
16993.5498
  0
VERTEX
  8
LAYER1
 62
     7
  6
CONTINUOUS
 10
7691.2400
 20
16364.5679
  0
VERTEX
  8
LAYER1
 62
     7
  6
CONTINUOUS
 10
8011.2433
 20
15812.8188
  0
VERTEX
  8
LAYER1
 62
     7
  6
CONTINUOUS
 10
8529.8729
 20
15183.8369
  0
VERTEX
  8
LAYER1
 62
     7
  6
CONTINUOUS
 10
9026.4376
 20
14786.5866
  0
VERTEX
  8
LAYER1
 62
     7
  6
CONTINUOUS
 10
9633.3546
 20
14234.8541
  0
VERTEX
  8
LAYER1
 62
     7
  6
CONTINUOUS
 10
10350.6094
 20
13705.1830
  0
VERTEX
  8
LAYER1
 62
     7
  6
CONTINUOUS
 10
11233.4009
 20
13131.3713
  0
VERTEX
  8
LAYER1
 62
     7
  6
CONTINUOUS
 10
11917.5517
 20
12745.1600
  0
VERTEX
  8
LAYER1
 62
     7
  6
CONTINUOUS
 10
12723.0950
 20
12392.0527
  0
VERTEX
  8
LAYER1
 62
     7
  6
CONTINUOUS
 10
13329.9976
 20
12138.2419
  0
VERTEX
  8
LAYER1
 62
     7
  6
CONTINUOUS
 10
13936.9145
 20
11895.4880
  0
VERTEX
  8
LAYER1
 62
     7
  6
CONTINUOUS
 10
14643.1446
 20
11740.9903
  0
VERTEX
  8
LAYER1
 62
     7
  6
CONTINUOUS
 10
15150.7341
 20
11685.8214
  0
VERTEX
  8
LAYER1
 62
     7
  6
CONTINUOUS
 10
15448.6724
 20
11652.7174
  0
VERTEX
  8
LAYER1
 62
     7
  6
CONTINUOUS
 10
15879.0291
 20
11696.8616
  0
VERTEX
  8
LAYER1
 62
     7
  6
CONTINUOUS
 10
16199.0479
 20
11807.1983
  0
VERTEX
  8
LAYER1
 62
     7
  6
CONTINUOUS
 10
16607.3242
 20
12049.9689
  0
VERTEX
  8
LAYER1
 62
     7
  6
CONTINUOUS
 10
17357.6985
 20
12447.2204
  0
VERTEX
  8
LAYER1
 62
     7
  6
CONTINUOUS
 10
17953.5776
 20
12767.2237
  0
VERTEX
  8
LAYER1
 62
     7
  6
CONTINUOUS
 10
18902.5628
 20
13307.9327
  0
VERTEX
  8
LAYER1
 62
     7
  6
CONTINUOUS
 10
19310.8545
 20
13616.9112
  0
VERTEX
  8
LAYER1
 62
     7
  6
CONTINUOUS
 10
20348.1103
 20
14389.3338
  0
VERTEX
  8
LAYER1
 62
     7
  6
CONTINUOUS
 10
20767.4435
 20
15073.5014
  0
VERTEX
  8
LAYER1
 62
     7
  6
CONTINUOUS
 10
21319.1759
 20
15812.8188
  0
VERTEX
  8
LAYER1
 62
     7
  6
CONTINUOUS
 10
21848.8446
 20
16596.2995
  0
VERTEX
  8
LAYER1
 62
     7
  6
CONTINUOUS
 10
22301.2663
 20
17324.5945
  0
VERTEX
  8
LAYER1
 62
     7
  6
CONTINUOUS
 10
22566.1007
 20
17997.7039
  0
VERTEX
  8
LAYER1
 62
     7
  6
CONTINUOUS
 10
22709.5581
 20
18825.3122
  0
VERTEX
  8
LAYER1
 62
     7
  6
CONTINUOUS
 10
22654.3891
 20
19575.6877
  0
VERTEX
  8
LAYER1
 62
     7
  6
CONTINUOUS
 10
22433.6823
 20
20436.3987
  0
VERTEX
  8
LAYER1
 62
     7
  6
CONTINUOUS
 10
22257.1364
 20
21065.3806
  0
VERTEX
  8
LAYER1
 62
     7
  6
CONTINUOUS
 10
22003.3268
 20
21716.4287
  0
VERTEX
  8
LAYER1
 62
     7
  6
CONTINUOUS
 10
21771.5952
 20
22235.0559
  0
VERTEX
  8
LAYER1
 62
     7
  6
CONTINUOUS
 10
21330.2150
 20
23040.6004
  0
VERTEX
  8
LAYER1
 62
     7
  6
CONTINUOUS
 10
20955.0284
 20
23647.5185
  0
VERTEX
  8
LAYER1
 62
     7
  6
CONTINUOUS
 10
20491.5677
 20
24364.7722
  0
VERTEX
  8
LAYER1
 62
     7
  6
CONTINUOUS
 10
19983.9640
 20
24861.3381
  0
VERTEX
  8
LAYER1
 62
     7
  6
CONTINUOUS
 10
19343.9573
 20
25490.3199
  0
VERTEX
  8
LAYER1
 62
     7
  6
CONTINUOUS
 10
18593.5842
 20
25942.7392
  0
VERTEX
  8
LAYER1
 62
     7
  6
CONTINUOUS
 10
17953.5776
 20
26240.6788
  0
VERTEX
  8
LAYER1
 62
     7
  6
CONTINUOUS
 10
17302.5153
 20
26406.1999
  0
VERTEX
  8
LAYER1
 62
     7
  6
CONTINUOUS
 10
16463.8823
 20
26439.3051
  0
VERTEX
  8
LAYER1
 62
     7
  6
CONTINUOUS
 10
15713.5080
 20
26384.1362
  0
VERTEX
  8
LAYER1
 62
     7
  6
CONTINUOUS
 10
15106.6053
 20
26351.0310
  0
VERTEX
  8
LAYER1
 62
     7
  6
CONTINUOUS
 10
14565.8964
 20
26306.8868
  0
VERTEX
  8
LAYER1
 62
     7
  6
CONTINUOUS
 10
14168.6449
 20
26273.7816
  0
VERTEX
  8
LAYER1
 62
     7
  6
CONTINUOUS
 10
14168.6449
 20
26273.7816
  0
SEQEND
  8
LAYER1
  0
POLYLINE
  8
LAYER1
 62
     3
 66
     1
  6
CONTINUOUS
  0
VERTEX
  8
LAYER1
 62
     3
  6
CONTINUOUS
 10
14080.3719
 20
26957.9491
  0
VERTEX
  8
LAYER1
 62
     3
  6
CONTINUOUS
 10
14080.3719
 20
25523.4227
  0
SEQEND
  8
LAYER1
  0
POLYLINE
  8
LAYER1
 62
     3
 66
     1
  6
CONTINUOUS
  0
VERTEX
  8
LAYER1
 62
     3
  6
CONTINUOUS
 10
14080.3719
 20
12822.4082
  0
VERTEX
  8
LAYER1
 62
     3
  6
CONTINUOUS
 10
14080.3719
 20
11211.3216
  0
SEQEND
  8
LAYER1
  0
POLYLINE
  8
LAYER1
 62
     3
 66
     1
  6
CONTINUOUS
  0
VERTEX
  8
LAYER1
 62
     3
  6
CONTINUOUS
 10
5263.5854
 20
20028.1070
  0
VERTEX
  8
LAYER1
 62
     3
  6
CONTINUOUS
 10
6841.5525
 20
20028.1070
  0
SEQEND
  8
LAYER1
  0
POLYLINE
  8
LAYER1
 62
     3
 66
     1
  6
CONTINUOUS
  0
VERTEX
  8
LAYER1
 62
     3
  6
CONTINUOUS
 10
21705.3872
 20
20028.1070
  0
VERTEX
  8
LAYER1
 62
     3
  6
CONTINUOUS
 10
23603.3743
 20
20028.1070
  0
SEQEND
  8
LAYER1
  0
POLYLINE
  8
LAYER1
 62
     7
 66
     1
  6
HIDDEN
  0
VERTEX
  8
LAYER1
 62
     7
  6
HIDDEN
 10
14091.3967
 20
26141.3656
  0
VERTEX
  8
LAYER1
 62
     7
  6
HIDDEN
 10
13749.3284
 20
26130.3408
  0
VERTEX
  8
LAYER1
 62
     7
  6
HIDDEN
 10
13374.1418
 20
26064.1329
  0
VERTEX
  8
LAYER1
 62
     7
  6
HIDDEN
 10
12767.2237
 20
25986.8834
  0
VERTEX
  8
LAYER1
 62
     7
  6
HIDDEN
 10
12336.8682
 20
25887.5703
  0
VERTEX
  8
LAYER1
 62
     7
  6
HIDDEN
 10
11895.4880
 20
25766.1933
  0
VERTEX
  8
LAYER1
 62
     7
  6
HIDDEN
 10
11266.5061
 20
25666.8801
  0
VERTEX
  8
LAYER1
 62
     7
  6
HIDDEN
 10
10814.0701
 20
25567.5670
  0
VERTEX
  8
LAYER1
 62
     7
  6
HIDDEN
 10
10185.0882
 20
25280.6522
  0
VERTEX
  8
LAYER1
 62
     7
  6
HIDDEN
 10
9666.4586
 20
24949.6098
  0
VERTEX
  8
LAYER1
 62
     7
  6
HIDDEN
 10
9026.4376
 20
24397.8773
  0
VERTEX
  8
LAYER1
 62
     7
  6
HIDDEN
 10
8518.8482
 20
23879.2477
  0
VERTEX
  8
LAYER1
 62
     7
  6
HIDDEN
 10
8077.4525
 20
23338.5399
  0
VERTEX
  8
LAYER1
 62
     7
  6
HIDDEN
 10
7691.2400
 20
22599.2035
  0
VERTEX
  8
LAYER1
 62
     7
  6
HIDDEN
 10
7459.5096
 20
21881.9498
  0
VERTEX
  8
LAYER1
 62
     7
  6
HIDDEN
 10
7205.7000
 20
21164.6938
  0
VERTEX
  8
LAYER1
 62
     7
  6
HIDDEN
 10
7062.2581
 20
20546.7367
  0
VERTEX
  8
LAYER1
 62
     7
  6
HIDDEN
 10
6996.0501
 20
19807.4169
  0
VERTEX
  8
LAYER1
 62
     7
  6
HIDDEN
 10
7073.2828
 20
19167.3959
  0
VERTEX
  8
LAYER1
 62
     7
  6
HIDDEN
 10
7316.0534
 20
18450.1399
  0
VERTEX
  8
LAYER1
 62
     7
  6
HIDDEN
 10
7492.6148
 20
17920.4712
  0
VERTEX
  8
LAYER1
 62
     7
  6
HIDDEN
 10
7967.0990
 20
17092.8630
  0
VERTEX
  8
LAYER1
 62
     7
  6
HIDDEN
 10
8408.4948
 20
16496.9863
  0
VERTEX
  8
LAYER1
 62
     7
  6
HIDDEN
 10
9092.6456
 20
15757.6522
  0
VERTEX
  8
LAYER1
 62
     7
  6
HIDDEN
 10
9633.3546
 20
15117.6289
  0
VERTEX
  8
LAYER1
 62
     7
  6
HIDDEN
 10
10416.8174
 20
14488.6470
  0
VERTEX
  8
LAYER1
 62
     7
  6
HIDDEN
 10
11134.0877
 20
14014.1616
  0
VERTEX
  8
LAYER1
 62
     7
  6
HIDDEN
 10
12094.1131
 20
13451.3901
  0
VERTEX
  8
LAYER1
 62
     7
  6
HIDDEN
 10
12888.6162
 20
12987.9294
  0
VERTEX
  8
LAYER1
 62
     7
  6
HIDDEN
 10
13694.1452
 20
12645.8468
  0
VERTEX
  8
LAYER1
 62
     7
  6
HIDDEN
 10
14411.4155
 20
12480.3256
  0
VERTEX
  8
LAYER1
 62
     7
  6
HIDDEN
 10
15106.6053
 20
12358.9475
  0
VERTEX
  8
LAYER1
 62
     7
  6
HIDDEN
 10
15845.9251
 20
12303.7630
  0
VERTEX
  8
LAYER1
 62
     7
  6
HIDDEN
 10
16463.8823
 20
12436.1802
  0
VERTEX
  8
LAYER1
 62
     7
  6
HIDDEN
 10
16993.5510
 20
12568.5986
  0
VERTEX
  8
LAYER1
 62
     7
  6
HIDDEN
 10
17600.4548
 20
12778.2640
  0
VERTEX
  8
LAYER1
 62
     7
  6
HIDDEN
 10
18141.1625
 20
13098.2673
  0
VERTEX
  8
LAYER1
 62
     7
  6
HIDDEN
 10
18637.7284
 20
13462.4148
  0
VERTEX
  8
LAYER1
 62
     7
  6
HIDDEN
 10
19079.1230
 20
13848.6404
  0
VERTEX
  8
LAYER1
 62
     7
  6
HIDDEN
 10
19652.9216
 20
14466.5832
  0
VERTEX
  8
LAYER1
 62
     7
  6
HIDDEN
 10
20171.5644
 20
14930.0440
  0
VERTEX
  8
LAYER1
 62
     7
  6
HIDDEN
 10
20568.8171
 20
15349.3604
  0
VERTEX
  8
LAYER1
 62
     7
  6
HIDDEN
 10
21297.1122
 20
16452.8421
  0
VERTEX
  8
LAYER1
 62
     7
  6
HIDDEN
 10
21661.2597
 20
16772.8454
  0
VERTEX
  8
LAYER1
 62
     7
  6
HIDDEN
 10
22113.6790
 20
17523.2185
  0
VERTEX
  8
LAYER1
 62
     7
  6
HIDDEN
 10
22323.3444
 20
17920.4712
  0
VERTEX
  8
LAYER1
 62
     7
  6
HIDDEN
 10
22499.8903
 20
18405.9957
  0
VERTEX
  8
LAYER1
 62
     7
  6
HIDDEN
 10
22488.8679
 20
18957.7282
  0
VERTEX
  8
LAYER1
 62
     7
  6
HIDDEN
 10
22367.4743
 20
19509.4773
  0
VERTEX
  8
LAYER1
 62
     7
  6
HIDDEN
 10
22179.8870
 20
20425.3597
  0
VERTEX
  8
LAYER1
 62
     7
  6
HIDDEN
 10
22102.6400
 20
20745.3630
  0
VERTEX
  8
LAYER1
 62
     7
  6
HIDDEN
 10
21981.2630
 20
21330.2150
  0
VERTEX
  8
LAYER1
 62
     7
  6
HIDDEN
 10
21705.3872
 20
21970.2216
  0
VERTEX
  8
LAYER1
 62
     7
  6
HIDDEN
 10
21407.4501
 20
22334.3691
  0
VERTEX
  8
LAYER1
 62
     7
  6
HIDDEN
 10
21032.2778
 20
22853.0131
  0
VERTEX
  8
LAYER1
 62
     7
  6
HIDDEN
 10
20646.0498
 20
23393.7065
  0
VERTEX
  8
LAYER1
 62
     7
  6
HIDDEN
 10
20326.0465
 20
23934.4166
  0
VERTEX
  8
LAYER1
 62
     7
  6
HIDDEN
 10
19906.7312
 20
24497.1905
  0
VERTEX
  8
LAYER1
 62
     7
  6
HIDDEN
 10
19399.1263
 20
24960.6512
  0
VERTEX
  8
LAYER1
 62
     7
  6
HIDDEN
 10
18924.6266
 20
25346.8625
  0
VERTEX
  8
LAYER1
 62
     7
  6
HIDDEN
 10
18372.8941
 20
25666.8801
  0
VERTEX
  8
LAYER1
 62
     7
  6
HIDDEN
 10
17721.8460
 20
25953.7783
  0
VERTEX
  8
LAYER1
 62
     7
  6
HIDDEN
 10
17170.0969
 20
26108.2604
  0
VERTEX
  8
LAYER1
 62
     7
  6
HIDDEN
 10
16530.0915
 20
26196.5488
  0
VERTEX
  8
LAYER1
 62
     7
  6
HIDDEN
 10
15779.7160
 20
26196.5488
  0
VERTEX
  8
LAYER1
 62
     7
  6
HIDDEN
 10
15161.7743
 20
26174.4708
  0
VERTEX
  8
LAYER1
 62
     7
  6
HIDDEN
 10
14576.9366
 20
26141.3656
  0
VERTEX
  8
LAYER1
 62
     7
  6
HIDDEN
 10
14091.3967
 20
26141.3656
  0
SEQEND
  8
LAYER1
  0
POLYLINE
  8
LAYER1
 62
     7
 66
     1
  6
CONTINUOUS
  0
VERTEX
  8
LAYER1
 62
     7
  6
CONTINUOUS
 10
20204.9650
 20
7370.1906
  0
VERTEX
  8
LAYER1
 62
     7
  6
CONTINUOUS
 10
20392.5524
 20
7414.3349
  0
VERTEX
  8
LAYER1
 62
     7
  6
CONTINUOUS
 10
21142.9112
 20
7414.3349
  0
VERTEX
  8
LAYER1
 62
     7
  6
CONTINUOUS
 10
21782.9321
 20
7359.1504
  0
VERTEX
  8
LAYER1
 62
     7
  6
CONTINUOUS
 10
23040.8959
 20
7370.1906
  0
VERTEX
  8
LAYER1
 62
     7
  6
CONTINUOUS
 10
23658.8387
 20
7326.0464
  0
VERTEX
  8
LAYER1
 62
     7
  6
CONTINUOUS
 10
24199.5488
 20
7292.9418
  0
VERTEX
  8
LAYER1
 62
     7
  6
CONTINUOUS
 10
24784.3841
 20
7292.9418
  0
VERTEX
  8
LAYER1
 62
     7
  6
CONTINUOUS
 10
25303.0304
 20
7270.8775
  0
VERTEX
  8
LAYER1
 62
     7
  6
CONTINUOUS
 10
25987.1813
 20
7215.7091
  0
VERTEX
  8
LAYER1
 62
     7
  6
CONTINUOUS
 10
26428.5758
 20
7171.5804
  0
VERTEX
  8
LAYER1
 62
     7
  6
CONTINUOUS
 10
27046.5187
 20
7127.4362
  0
VERTEX
  8
LAYER1
 62
     7
  6
CONTINUOUS
 10
27421.7052
 20
7116.3959
  0
VERTEX
  8
LAYER1
 62
     7
  6
CONTINUOUS
 10
28194.1302
 20
7061.2121
  0
VERTEX
  8
LAYER1
 62
     7
  6
CONTINUOUS
 10
28977.6085
 20
7028.1075
  0
VERTEX
  8
LAYER1
 62
     7
  6
CONTINUOUS
 10
29683.8232
 20
7006.0431
  0
VERTEX
  8
LAYER1
 62
     7
  6
CONTINUOUS
 10
30588.6784
 20
6995.0035
  0
VERTEX
  8
LAYER1
 62
     7
  6
CONTINUOUS
 10
31328.0149
 20
7006.0431
  0
VERTEX
  8
LAYER1
 62
     7
  6
CONTINUOUS
 10
32232.8559
 20
6995.0035
  0
VERTEX
  8
LAYER1
 62
     7
  6
CONTINUOUS
 10
32950.1262
 20
6995.0035
  0
VERTEX
  8
LAYER1
 62
     7
  6
CONTINUOUS
 10
33755.6540
 20
6995.0035
  0
VERTEX
  8
LAYER1
 62
     7
  6
CONTINUOUS
 10
34274.2979
 20
6995.0035
  0
VERTEX
  8
LAYER1
 62
     7
  6
CONTINUOUS
 10
34803.9666
 20
6961.8989
  0
SEQEND
  8
LAYER1
  0
POLYLINE
  8
LAYER1
 62
     7
 66
     1
  6
CONTINUOUS
  0
VERTEX
  8
LAYER1
 62
     7
  6
CONTINUOUS
 10
20204.9650
 20
7370.1906
  0
VERTEX
  8
LAYER1
 62
     7
  6
CONTINUOUS
 10
20193.9260
 20
7149.5005
  0
VERTEX
  8
LAYER1
 62
     7
  6
CONTINUOUS
 10
20160.8208
 20
6630.8560
  0
VERTEX
  8
LAYER1
 62
     7
  6
CONTINUOUS
 10
20182.8870
 20
5880.4965
  0
VERTEX
  8
LAYER1
 62
     7
  6
CONTINUOUS
 10
20260.1340
 20
5350.8278
  0
VERTEX
  8
LAYER1
 62
     7
  6
CONTINUOUS
 10
20458.7603
 20
4611.4928
  0
VERTEX
  8
LAYER1
 62
     7
  6
CONTINUOUS
 10
20668.4257
 20
4170.1126
  0
VERTEX
  8
LAYER1
 62
     7
  6
CONTINUOUS
 10
20878.0768
 20
3927.3423
  0
VERTEX
  8
LAYER1
 62
     7
  6
CONTINUOUS
 10
21484.9949
 20
3618.3637
  0
VERTEX
  8
LAYER1
 62
     7
  6
CONTINUOUS
 10
22091.9107
 20
3463.8819
  0
VERTEX
  8
LAYER1
 62
     7
  6
CONTINUOUS
 10
22963.6488
 20
3441.8178
  0
VERTEX
  8
LAYER1
 62
     7
  6
CONTINUOUS
 10
24122.2994
 20
3441.8178
  0
VERTEX
  8
LAYER1
 62
     7
  6
CONTINUOUS
 10
25932.0123
 20
3441.8178
  0
VERTEX
  8
LAYER1
 62
     7
  6
CONTINUOUS
 10
27134.7904
 20
3441.8178
  0
VERTEX
  8
LAYER1
 62
     7
  6
CONTINUOUS
 10
28503.1088
 20
3430.7776
  0
VERTEX
  8
LAYER1
 62
     7
  6
CONTINUOUS
 10
29374.8589
 20
3408.7132
  0
VERTEX
  8
LAYER1
 62
     7
  6
CONTINUOUS
 10
30643.8474
 20
3463.8819
  0
VERTEX
  8
LAYER1
 62
     7
  6
CONTINUOUS
 10
31780.4342
 20
3519.0506
  0
VERTEX
  8
LAYER1
 62
     7
  6
CONTINUOUS
 10
32729.4194
 20
3695.6122
  0
VERTEX
  8
LAYER1
 62
     7
  6
CONTINUOUS
 10
33413.5869
 20
3850.0938
  0
VERTEX
  8
LAYER1
 62
     7
  6
CONTINUOUS
 10
33866.0062
 20
4048.7196
  0
VERTEX
  8
LAYER1
 62
     7
  6
CONTINUOUS
 10
34152.9043
 20
4556.3242
  0
VERTEX
  8
LAYER1
 62
     7
  6
CONTINUOUS
 10
34296.3617
 20
5185.3061
  0
VERTEX
  8
LAYER1
 62
     7
  6
CONTINUOUS
 10
34395.6749
 20
5593.5978
  0
VERTEX
  8
LAYER1
 62
     7
  6
CONTINUOUS
 10
34483.9490
 20
5935.6655
  0
VERTEX
  8
LAYER1
 62
     7
  6
CONTINUOUS
 10
34671.5507
 20
6366.0216
  0
VERTEX
  8
LAYER1
 62
     7
  6
CONTINUOUS
 10
34803.9666
 20
6961.8989
  0
SEQEND
  8
LAYER1
  0
POLYLINE
  8
LAYER1
 62
     7
 66
     1
  6
CONTINUOUS
  0
VERTEX
  8
LAYER1
 62
     7
  6
CONTINUOUS
 10
20458.7603
 20
4611.4928
  0
VERTEX
  8
LAYER1
 62
     7
  6
CONTINUOUS
 10
20856.0131
 20
4898.4073
  0
VERTEX
  8
LAYER1
 62
     7
  6
CONTINUOUS
 10
21551.2029
 20
4964.6159
  0
VERTEX
  8
LAYER1
 62
     7
  6
CONTINUOUS
 10
22279.4980
 20
4953.5760
  0
VERTEX
  8
LAYER1
 62
     7
  6
CONTINUOUS
 10
23305.7302
 20
4898.4073
  0
VERTEX
  8
LAYER1
 62
     7
  6
CONTINUOUS
 10
24122.2994
 20
4832.1988
  0
VERTEX
  8
LAYER1
 62
     7
  6
CONTINUOUS
 10
25049.2208
 20
4732.8859
  0
VERTEX
  8
LAYER1
 62
     7
  6
CONTINUOUS
 10
25943.0371
 20
4644.5971
  0
VERTEX
  8
LAYER1
 62
     7
  6
CONTINUOUS
 10
26759.6206
 20
4622.5328
  0
VERTEX
  8
LAYER1
 62
     7
  6
CONTINUOUS
 10
27267.2088
 20
4777.0143
  0
VERTEX
  8
LAYER1
 62
     7
  6
CONTINUOUS
 10
27686.5396
 20
5284.6347
  0
VERTEX
  8
LAYER1
 62
     7
  6
CONTINUOUS
 10
28183.1055
 20
5659.8064
  0
VERTEX
  8
LAYER1
 62
     7
  6
CONTINUOUS
 10
28988.6333
 20
5913.6166
  0
VERTEX
  8
LAYER1
 62
     7
  6
CONTINUOUS
 10
29893.4885
 20
6023.9539
  0
VERTEX
  8
LAYER1
 62
     7
  6
CONTINUOUS
 10
30676.9526
 20
6012.9137
  0
VERTEX
  8
LAYER1
 62
     7
  6
CONTINUOUS
 10
31659.0572
 20
6001.8741
  0
VERTEX
  8
LAYER1
 62
     7
  6
CONTINUOUS
 10
32519.7707
 20
5946.7051
  0
VERTEX
  8
LAYER1
 62
     7
  6
CONTINUOUS
 10
33192.8801
 20
5902.5609
  0
VERTEX
  8
LAYER1
 62
     7
  6
CONTINUOUS
 10
33899.1114
 20
5858.4322
  0
VERTEX
  8
LAYER1
 62
     7
  6
CONTINUOUS
 10
34483.9490
 20
5935.6655
  0
SEQEND
  8
LAYER1
  0
POLYLINE
  8
LAYER1
 62
     7
 66
     1
  6
CONTINUOUS
  0
VERTEX
  8
LAYER1
 62
     7
  6
CONTINUOUS
 10
-3370.2687
 20
6853.6387
  0
VERTEX
  8
LAYER1
 62
     7
  6
CONTINUOUS
 10
-2895.7684
 20
6875.7031
  0
VERTEX
  8
LAYER1
 62
     7
  6
CONTINUOUS
 10
-1869.5503
 20
6952.9513
  0
VERTEX
  8
LAYER1
 62
     7
  6
CONTINUOUS
 10
-975.7183
 20
6975.0156
  0
VERTEX
  8
LAYER1
 62
     7
  6
CONTINUOUS
 10
39.4753
 20
6897.7829
  0
VERTEX
  8
LAYER1
 62
     7
  6
CONTINUOUS
 10
1198.1262
 20
6754.3255
  0
VERTEX
  8
LAYER1
 62
     7
  6
CONTINUOUS
 10
2246.4240
 20
6732.2611
  0
VERTEX
  8
LAYER1
 62
     7
  6
CONTINUOUS
 10
3040.9276
 20
6776.3899
  0
VERTEX
  8
LAYER1
 62
     7
  6
CONTINUOUS
 10
3945.7996
 20
6798.4697
  0
VERTEX
  8
LAYER1
 62
     7
  6
CONTINUOUS
 10
4972.0175
 20
6798.4697
  0
VERTEX
  8
LAYER1
 62
     7
  6
CONTINUOUS
 10
5788.6019
 20
6765.3657
  0
VERTEX
  8
LAYER1
 62
     7
  6
CONTINUOUS
 10
7366.5523
 20
6699.1572
  0
VERTEX
  8
LAYER1
 62
     7
  6
CONTINUOUS
 10
8161.0720
 20
6699.1572
  0
VERTEX
  8
LAYER1
 62
     7
  6
CONTINUOUS
 10
8966.5998
 20
6710.1813
  0
VERTEX
  8
LAYER1
 62
     7
  6
CONTINUOUS
 10
9772.1431
 20
6688.1169
  0
VERTEX
  8
LAYER1
 62
     7
  6
CONTINUOUS
 10
10588.7099
 20
6699.1572
  0
VERTEX
  8
LAYER1
 62
     7
  6
CONTINUOUS
 10
11383.2296
 20
6677.0767
  0
VERTEX
  8
LAYER1
 62
     7
  6
CONTINUOUS
 10
12001.1558
 20
6655.0123
  0
VERTEX
  8
LAYER1
 62
     7
  6
CONTINUOUS
 10
12586.0244
 20
6643.9727
  0
SEQEND
  8
LAYER1
  0
POLYLINE
  8
LAYER1
 62
     7
 66
     1
  6
CONTINUOUS
  0
VERTEX
  8
LAYER1
 62
     7
  6
CONTINUOUS
 10
12586.0244
 20
6643.9727
  0
VERTEX
  8
LAYER1
 62
     7
  6
CONTINUOUS
 10
12740.4911
 20
6643.9727
  0
VERTEX
  8
LAYER1
 62
     7
  6
CONTINUOUS
 10
12806.7146
 20
6445.3469
  0
VERTEX
  8
LAYER1
 62
     7
  6
CONTINUOUS
 10
12872.9082
 20
5606.7146
  0
VERTEX
  8
LAYER1
 62
     7
  6
CONTINUOUS
 10
12839.8031
 20
4867.3799
  0
VERTEX
  8
LAYER1
 62
     7
  6
CONTINUOUS
 10
12806.7146
 20
4238.3980
  0
VERTEX
  8
LAYER1
 62
     7
  6
CONTINUOUS
 10
12707.3859
 20
3973.5633
  0
VERTEX
  8
LAYER1
 62
     7
  6
CONTINUOUS
 10
12497.7360
 20
3741.8333
  0
VERTEX
  8
LAYER1
 62
     7
  6
CONTINUOUS
 10
12133.5884
 20
3620.4560
  0
VERTEX
  8
LAYER1
 62
     7
  6
CONTINUOUS
 10
11184.6033
 20
3532.1676
  0
VERTEX
  8
LAYER1
 62
     7
  6
CONTINUOUS
 10
10467.3329
 20
3543.2075
  0
VERTEX
  8
LAYER1
 62
     7
  6
CONTINUOUS
 10
9319.7071
 20
3565.2719
  0
VERTEX
  8
LAYER1
 62
     7
  6
CONTINUOUS
 10
8116.9433
 20
3565.2719
  0
VERTEX
  8
LAYER1
 62
     7
  6
CONTINUOUS
 10
6936.2122
 20
3465.9587
  0
VERTEX
  8
LAYER1
 62
     7
  6
CONTINUOUS
 10
6064.4598
 20
3377.6858
  0
VERTEX
  8
LAYER1
 62
     7
  6
CONTINUOUS
 10
4894.7848
 20
3278.3729
  0
VERTEX
  8
LAYER1
 62
     7
  6
CONTINUOUS
 10
4045.0967
 20
3300.4372
  0
VERTEX
  8
LAYER1
 62
     7
  6
CONTINUOUS
 10
1871.2523
 20
3278.3729
  0
VERTEX
  8
LAYER1
 62
     7
  6
CONTINUOUS
 10
1065.7245
 20
3267.3330
  0
VERTEX
  8
LAYER1
 62
     7
  6
CONTINUOUS
 10
238.1011
 20
3311.4772
  0
VERTEX
  8
LAYER1
 62
     7
  6
CONTINUOUS
 10
-710.8993
 20
3443.8946
  0
VERTEX
  8
LAYER1
 62
     7
  6
CONTINUOUS
 10
-1659.8688
 20
3587.3517
  0
VERTEX
  8
LAYER1
 62
     7
  6
CONTINUOUS
 10
-2608.8539
 20
3785.9775
  0
VERTEX
  8
LAYER1
 62
     7
  6
CONTINUOUS
 10
-2829.5753
 20
4061.8363
  0
VERTEX
  8
LAYER1
 62
     7
  6
CONTINUOUS
 10
-3127.5142
 20
4613.5855
  0
VERTEX
  8
LAYER1
 62
     7
  6
CONTINUOUS
 10
-3226.8113
 20
5010.8373
  0
VERTEX
  8
LAYER1
 62
     7
  6
CONTINUOUS
 10
-3281.9800
 20
5728.0921
  0
VERTEX
  8
LAYER1
 62
     7
  6
CONTINUOUS
 10
-3304.0601
 20
6158.4482
  0
VERTEX
  8
LAYER1
 62
     7
  6
CONTINUOUS
 10
-3304.0601
 20
6401.2182
  0
VERTEX
  8
LAYER1
 62
     7
  6
CONTINUOUS
 10
-3370.2687
 20
6853.6387
  0
SEQEND
  8
LAYER1
  0
POLYLINE
  8
LAYER1
 62
     7
 66
     1
  6
CONTINUOUS
  0
VERTEX
  8
LAYER1
 62
     7
  6
CONTINUOUS
 10
-3304.0601
 20
6158.4482
  0
VERTEX
  8
LAYER1
 62
     7
  6
CONTINUOUS
 10
-3127.5142
 20
6125.3436
  0
VERTEX
  8
LAYER1
 62
     7
  6
CONTINUOUS
 10
-2708.1668
 20
6114.3034
  0
VERTEX
  8
LAYER1
 62
     7
  6
CONTINUOUS
 10
-1891.6147
 20
6103.2793
  0
VERTEX
  8
LAYER1
 62
     7
  6
CONTINUOUS
 10
-964.6784
 20
6103.2793
  0
VERTEX
  8
LAYER1
 62
     7
  6
CONTINUOUS
 10
61.5552
 20
6092.2396
  0
VERTEX
  8
LAYER1
 62
     7
  6
CONTINUOUS
 10
1010.5246
 20
6070.1753
  0
VERTEX
  8
LAYER1
 62
     7
  6
CONTINUOUS
 10
2036.7586
 20
5992.9265
  0
VERTEX
  8
LAYER1
 62
     7
  6
CONTINUOUS
 10
3007.8230
 20
5904.6535
  0
VERTEX
  8
LAYER1
 62
     7
  6
CONTINUOUS
 10
3934.7439
 20
5805.3403
  0
VERTEX
  8
LAYER1
 62
     7
  6
CONTINUOUS
 10
4707.1831
 20
5606.7146
  0
VERTEX
  8
LAYER1
 62
     7
  6
CONTINUOUS
 10
5225.8125
 20
5352.9044
  0
VERTEX
  8
LAYER1
 62
     7
  6
CONTINUOUS
 10
5435.4779
 20
5121.1746
  0
VERTEX
  8
LAYER1
 62
     7
  6
CONTINUOUS
 10
5766.5369
 20
4779.1069
  0
VERTEX
  8
LAYER1
 62
     7
  6
CONTINUOUS
 10
6263.0861
 20
4635.6498
  0
VERTEX
  8
LAYER1
 62
     7
  6
CONTINUOUS
 10
6869.9876
 20
4558.4010
  0
VERTEX
  8
LAYER1
 62
     7
  6
CONTINUOUS
 10
7465.8809
 20
4536.3366
  0
VERTEX
  8
LAYER1
 62
     7
  6
CONTINUOUS
 10
7885.1974
 20
4514.2726
  0
VERTEX
  8
LAYER1
 62
     7
  6
CONTINUOUS
 10
8470.0351
 20
4492.1924
  0
VERTEX
  8
LAYER1
 62
     7
  6
CONTINUOUS
 10
9407.9955
 20
4492.1924
  0
VERTEX
  8
LAYER1
 62
     7
  6
CONTINUOUS
 10
10125.2659
 20
4536.3366
  0
VERTEX
  8
LAYER1
 62
     7
  6
CONTINUOUS
 10
10897.6897
 20
4602.5455
  0
VERTEX
  8
LAYER1
 62
     7
  6
CONTINUOUS
 10
11515.6313
 20
4613.5855
  0
VERTEX
  8
LAYER1
 62
     7
  6
CONTINUOUS
 10
11945.9868
 20
4613.5855
  0
VERTEX
  8
LAYER1
 62
     7
  6
CONTINUOUS
 10
12839.8031
 20
4867.3799
  0
SEQEND
  8
LAYER1
  0
POLYLINE
  8
LAYER1
 62
     7
 66
     1
  6
CONTINUOUS
  0
VERTEX
  8
LAYER1
 62
     7
  6
CONTINUOUS
 10
120.5808
 20
18879.4042
  0
VERTEX
  8
LAYER1
 62
     7
  6
CONTINUOUS
 10
2582.9322
 20
18879.4042
  0
SEQEND
  8
LAYER1
  0
POLYLINE
  8
LAYER1
 62
     7
 66
     1
  6
CONTINUOUS
  0
VERTEX
  8
LAYER1
 62
     7
  6
CONTINUOUS
 10
26725.7029
 20
24125.2825
  0
VERTEX
  8
LAYER1
 62
     7
  6
CONTINUOUS
 10
26725.7029
 20
18718.2386
  0
SEQEND
  8
LAYER1
  0
POLYLINE
  8
LAYER1
 62
     7
 66
     1
  6
CONTINUOUS
  0
VERTEX
  8
LAYER1
 62
     7
  6
CONTINUOUS
 10
120.5808
 20
19167.9583
  0
VERTEX
  8
LAYER1
 62
     7
  6
CONTINUOUS
 10
120.5808
 20
18879.4042
  0
SEQEND
  8
LAYER1
  0
POLYLINE
  8
LAYER1
 62
     7
 66
     1
  6
CONTINUOUS
  0
VERTEX
  8
LAYER1
 62
     7
  6
CONTINUOUS
 10
2582.9322
 20
18879.4042
  0
VERTEX
  8
LAYER1
 62
     7
  6
CONTINUOUS
 10
120.5808
 20
18879.4042
  0
SEQEND
  8
LAYER1
  0
POLYLINE
  8
LAYER1
 62
     7
 66
     1
  6
CONTINUOUS
  0
VERTEX
  8
LAYER1
 62
     7
  6
CONTINUOUS
 10
26725.7029
 20
18718.2386
  0
VERTEX
  8
LAYER1
 62
     7
  6
CONTINUOUS
 10
26725.7029
 20
24125.2825
  0
SEQEND
  8
LAYER1
  0
POLYLINE
  8
LAYER1
 62
     7
 66
     1
  6
CONTINUOUS
  0
VERTEX
  8
LAYER1
 62
     7
  6
CONTINUOUS
 10
26725.7029
 20
24125.2825
  0
VERTEX
  8
LAYER1
 62
     7
  6
CONTINUOUS
 10
26355.3722
 20
23056.5597
  0
SEQEND
  8
LAYER1
  0
POLYLINE
  8
LAYER1
 62
     7
 66
     1
  6
CONTINUOUS
  0
VERTEX
  8
LAYER1
 62
     7
  6
CONTINUOUS
 10
2582.9322
 20
18879.4042
  0
VERTEX
  8
LAYER1
 62
     7
  6
CONTINUOUS
 10
5045.2851
 20
18879.4042
  0
SEQEND
  8
LAYER1
  0
POLYLINE
  8
LAYER1
 62
     7
 66
     1
  6
CONTINUOUS
  0
VERTEX
  8
LAYER1
 62
     7
  6
CONTINUOUS
 10
5045.2851
 20
19167.9583
  0
VERTEX
  8
LAYER1
 62
     7
  6
CONTINUOUS
 10
5045.2851
 20
18879.4042
  0
SEQEND
  8
LAYER1
  0
ENDSEC
  0
EOF
