  0
SECTION
  2
HEADER
  9
$ACADVER
  1
AC1004
  9
$EXTMIN
 10
11299.6101
 20
3784.9315
  9
$EXTMAX
 10
53430.3570
 20
37363.7286
  9
$LIMMIN
 10
11299.6101
 20
3784.9315
  9
$LIMMAX
 10
53430.3570
 20
37363.7286
  9
$INSBASE
 10
0.0
 20
0.0
  9
$VIEWCTR
 10
7.21903
 20
4.5
  9
$VIEWSIZE
 40
9.0
  9
$SNAPMODE
 70
     0
  9
$SNAPUNIT
 10
1.0
 20
1.0
  9
$SNAPBASE
 10
0.0
 20
0.0
  9
$SNAPANG
 50
0.0
  9
$SNAPSTYLE
 70
     0
  9
$SNAPISOPAIR
 70
     0
  9
$GRIDMODE
 70
     0
  9
$GRIDUNIT
 10
0.0
 20
0.0
  9
$ORTHOMODE
 70
     0
  9
$REGENMODE
 70
     1
  9
$FILLMODE
 70
     1
  9
$QTEXTMODE
 70
     0
  9
$DRAGMODE
 70
     2
  9
$LTSCALE
 40
1.0
  9
$OSMODE
 70
     0
  9
$ATTMODE
 70
     1
  9
$TEXTSIZE
 40
0.2
  9
$TRACEWID
 40
0.05
  9
$TEXTSTYLE
  7
STANDARD
  9
$CLAYER
  8
0
  9
$CELTYPE
  6
BYLAYER
  9
$CECOLOR
 62
   256
  9
$DIMSCALE
 40
1.0
  9
$DIMASZ
 40
0.18
  9
$DIMEXO
 40
0.0625
  9
$DIMDLI
 40
0.38
  9
$DIMRND
 40
0.0
  9
$DIMDLE
 40
0.0
  9
$DIMEXE
 40
0.18
  9
$DIMTP
 40
0.0
  9
$DIMTM
 40
0.0
  9
$DIMTXT
 40
0.18
  9
$DIMCEN
 40
0.09
  9
$DIMTSZ
 40
0.0
  9
$DIMTOL
 70
     0
  9
$DIMLIM
 70
     0
  9
$DIMTIH
 70
     1
  9
$DIMTOH
 70
     1
  9
$DIMSE1
 70
     0
  9
$DIMSE2
 70
     0
  9
$DIMTAD
 70
     0
  9
$DIMZIN
 70
     0
  9
$DIMBLK
  1

  9
$DIMASO
 70
     1
  9
$DIMSHO
 70
     0
  9
$DIMPOST
  1

  9
$DIMAPOST
  1

  9
$DIMALT
 70
     0
  9
$DIMALTD
 70
     2
  9
$DIMALTF
 40
25.4
  9
$DIMLFAC
 40
1.0
  9
$LUNITS
 70
     2
  9
$LUPREC
 70
     4
  9
$AXISMODE
 70
     0
  9
$AXISUNIT
 10
0.0
 20
0.0
  9
$SKETCHINC
 40
0.1
  9
$FILLETRAD
 40
0.0
  9
$AUNITS
 70
     0
  9
$AUPREC
 70
     0
  9
$MENU
  1
acad
  9
$ELEVATION
 40
0.0
  9
$THICKNESS
 40
0.0
  9
$VIEWDIR
 10
0.0
 20
0.0
 30
1.0
  9
$LIMCHECK
 70
     0
  9
$BLIPMODE
 70
     1
  9
$CHAMFERA
 40
0.0
  9
$CHAMFERB
 40
0.0
  9
$FASTZOOM
 70
     1
  9
$SKPOLY
 70
     0
  9
$TDCREATE
 40
2447222.5666886573
  9
$TDUPDATE
 40
2447222.5666886573
  9
$TDINDWG
 40
0.0000000000
  9
$TDUSRTIMER
 40
0.0000000000
  9
$USRTIMER
 70
     1
  9
$ANGBASE
 50
0.0
  9
$ANGDIR
 70
     0
  9
$PDMODE
 70
     0
  9
$PDSIZE
 40
0.0
  9
$PLINEWID
 40
0.0
  9
$COORDS
 70
     0
  9
$SPLFRAME
 70
     0
  9
$SPLINESEGS
 70
     8
  9
$ATTDIA
 70
     0
  9
$ATTREQ
 70
     1
  9
$USERI1
 70
     0
  9
$USERI2
 70
     0
  9
$USERI3
 70
     0
  9
$USERI4
 70
     0
  9
$USERI5
 70
     0
  9
$USERR1
 40
0.0
  9
$USERR2
 40
0.0
  9
$USERR3
 40
0.0
  9
$USERR4
 40
0.0
  9
$USERR5
 40
0.0
  0
ENDSEC
  0
SECTION
  2
TABLES
  0
TABLE
  2
LTYPE
 70
     13
  0
LTYPE
  2
CONTINUOUS
 70
    64
  3
Solid line
 72
    65
 73
     0
 40
0.0
  0
LTYPE
  2
DASHED
 70
    64
  3
__ __ __ __ __ __ __ __ __ __ __ __ __ __ __
 72
    65
 73
     2
 40
0.75
 49
0.5
 49
-0.25
  0
LTYPE
  2
HIDDEN
 70
    64
  3
_ _ _ _ _ _ _ _ _ _ _ _ _ _ _ _ _ _ _ _ _ _ _
 72
    65
 73
     2
 40
0.375
 49
0.25
 49
-0.125
  0
LTYPE
  2
CENTER
 70
    64
  3
____ _ ____ _ ____ _ ____ _ ____ _ ____ _ ____
 72
    65
 73
     4
 40
2.0
 49
1.25
 49
-0.25
 49
0.25
 49
-0.25
  0
LTYPE
  2
PHANTOM
 70
    64
  3
_____ _ _ _____ _ _ _____ _ _ _____ _ _ ____
 72
    65
 73
     6
 40
2.5
 49
1.25
 49
-0.25
 49
0.25
 49
-0.25
 49
0.25
 49
-0.25
  0
LTYPE
  2
DOT
 70
    64
  3
...............................................
 72
    65
 73
     2
 40
0.25
 49
0.0
 49
-0.25
  0
LTYPE
  2
DASHDOT
 70
    64
  3
__ . __ . __ . __ . __ . __ . __ . __ . __ . __
 72
    65
 73
     4
 40
1.0
 49
0.5
 49
-0.25
 49
0.0
 49
-0.25
  0
LTYPE
  2
BORDER
 70
    64
  3
__ __ . __ __ . __ __ . __ __ . __ __ . __ __
 72
    65
 73
     6
 40
1.75
 49
0.5
 49
-0.25
 49
0.5
 49
-0.25
 49
0.0
 49
-0.25
  0
LTYPE
  2
DIVIDE
 70
    64
  3
__ . . __ . . __ . . __ . . __ . . __ . . __
 72
    65
 73
     6
 40
1.25
 49
0.5
 49
-0.25
 49
0.0
 49
-0.25
 49
0.0
 49
-0.25
  0
LTYPE
  2
DCTYPE1
 70
    64
  3
__ . . __ . . __ . . __ . . __ . . __ . . __
 72
    65
 73
     8
 40
2.5
 49
0.5
 49
-0.25
 49
0.125
 49
-0.25
 49
0.25
 49
-0.25
 49
0.125
 49
-0.25
  0
LTYPE
  2
DCTYPE2
 70
    64
  3
__ . . __ . . __ . . __ . . __ . . __ . . __
 72
    65
 73
     6
 40
2.05
 49
1.0
 49
-0.3
 49
0.15
 49
-0.15
 49
0.15
 49
-0.3
  0
LTYPE
  2
DCTYPE3
 70
    64
  3
__ . . __ . . __ . . __ . . __ . . __ . . __
 72
    65
 73
     6
 40
2.5
 49
0.8
 49
-0.2
 49
0.8
 49
-0.2
 49
0.3
 49
-0.2
  0
LTYPE
  2
DCTYPE4
 70
    64
  3
__ . . __ . . __ . . __ . . __ . . __ . . __
 72
    65
 73
     10
 40
3.97
 49
1.75
 49
-0.3
 49
0.3
 49
-0.3
 49
0.06
 49
-0.3
 49
0.06
 49
-0.3
 49
0.3
 49
-0.3
  0
ENDTAB
  0
TABLE
  2
LAYER
 70
    153
  0
LAYER
  2
LAYER1
 70
 64
 62
     7
  6
CONTINUOUS
  0
ENDTAB
  0
ENDSEC
  0
SECTION
  2
BLOCKS
  0
ENDSEC
  0
SECTION
  2
ENTITIES
  0
POLYLINE
  8
LAYER1
 62
     7
 66
     1
  6
CONTINUOUS
  0
VERTEX
  8
LAYER1
 62
     7
  6
CONTINUOUS
 10
24938.5851
 20
36591.3060
  0
VERTEX
  8
LAYER1
 62
     7
  6
CONTINUOUS
 10
24894.4409
 20
36635.4336
  0
VERTEX
  8
LAYER1
 62
     7
  6
CONTINUOUS
 10
24497.1905
 20
36767.8496
  0
VERTEX
  8
LAYER1
 62
     7
  6
CONTINUOUS
 10
23879.2477
 20
36867.1651
  0
VERTEX
  8
LAYER1
 62
     7
  6
CONTINUOUS
 10
23481.9950
 20
36900.2655
  0
VERTEX
  8
LAYER1
 62
     7
  6
CONTINUOUS
 10
23018.5366
 20
36911.3070
  0
VERTEX
  8
LAYER1
 62
     7
  6
CONTINUOUS
 10
22599.2035
 20
37032.6863
  0
VERTEX
  8
LAYER1
 62
     7
  6
CONTINUOUS
 10
22157.8232
 20
37076.8281
  0
VERTEX
  8
LAYER1
 62
     7
  6
CONTINUOUS
 10
21374.3449
 20
36966.4759
  0
VERTEX
  8
LAYER1
 62
     7
  6
CONTINUOUS
 10
21153.6548
 20
36834.0599
  0
VERTEX
  8
LAYER1
 62
     7
  6
CONTINUOUS
 10
20767.4435
 20
36392.6797
  0
VERTEX
  8
LAYER1
 62
     7
  6
CONTINUOUS
 10
20502.6091
 20
36028.5321
  0
VERTEX
  8
LAYER1
 62
     7
  6
CONTINUOUS
 10
20094.3174
 20
35498.8634
  0
VERTEX
  8
LAYER1
 62
     7
  6
CONTINUOUS
 10
19796.3778
 20
35013.3223
  0
VERTEX
  8
LAYER1
 62
     7
  6
CONTINUOUS
 10
19332.9171
 20
34638.1476
  0
VERTEX
  8
LAYER1
 62
     7
  6
CONTINUOUS
 10
18979.8098
 20
34461.5898
  0
VERTEX
  8
LAYER1
 62
     7
  6
CONTINUOUS
 10
18450.1411
 20
34185.7117
  0
VERTEX
  8
LAYER1
 62
     7
  6
CONTINUOUS
 10
18130.1223
 20
33435.3528
  0
VERTEX
  8
LAYER1
 62
     7
  6
CONTINUOUS
 10
18085.9936
 20
32872.5837
  0
VERTEX
  8
LAYER1
 62
     7
  6
CONTINUOUS
 10
18229.4355
 20
32177.3891
  0
VERTEX
  8
LAYER1
 62
     7
  6
CONTINUOUS
 10
18229.4355
 20
31724.9722
  0
VERTEX
  8
LAYER1
 62
     7
  6
CONTINUOUS
 10
18052.8896
 20
31162.1983
  0
VERTEX
  8
LAYER1
 62
     7
  6
CONTINUOUS
 10
17887.3672
 20
30809.0731
  0
VERTEX
  8
LAYER1
 62
     7
  6
CONTINUOUS
 10
17578.3886
 20
30169.0665
  0
VERTEX
  8
LAYER1
 62
     7
  6
CONTINUOUS
 10
17225.2813
 20
29551.1093
  0
VERTEX
  8
LAYER1
 62
     7
  6
CONTINUOUS
 10
16982.5108
 20
29032.4820
  0
VERTEX
  8
LAYER1
 62
     7
  6
CONTINUOUS
 10
16750.7816
 20
28535.9185
  0
VERTEX
  8
LAYER1
 62
     7
  6
CONTINUOUS
 10
16419.7381
 20
27906.9343
  0
VERTEX
  8
LAYER1
 62
     7
  6
CONTINUOUS
 10
16132.8388
 20
27454.5126
  0
VERTEX
  8
LAYER1
 62
     7
  6
CONTINUOUS
 10
15934.2136
 20
26847.5969
  0
VERTEX
  8
LAYER1
 62
     7
  6
CONTINUOUS
 10
15879.0291
 20
26384.1385
  0
VERTEX
  8
LAYER1
 62
     7
  6
CONTINUOUS
 10
16121.7997
 20
25832.4013
  0
VERTEX
  8
LAYER1
 62
     7
  6
CONTINUOUS
 10
16430.7783
 20
25302.7326
  0
VERTEX
  8
LAYER1
 62
     7
  6
CONTINUOUS
 10
16916.3028
 20
24806.1691
  0
VERTEX
  8
LAYER1
 62
     7
  6
CONTINUOUS
 10
17434.9312
 20
24331.6693
  0
VERTEX
  8
LAYER1
 62
     7
  6
CONTINUOUS
 10
18030.8091
 20
23746.8317
  0
VERTEX
  8
LAYER1
 62
     7
  6
CONTINUOUS
 10
18737.0392
 20
23294.3957
  0
VERTEX
  8
LAYER1
 62
     7
  6
CONTINUOUS
 10
19465.3343
 20
22819.9103
  0
VERTEX
  8
LAYER1
 62
     7
  6
CONTINUOUS
 10
20326.0465
 20
22389.5548
  0
VERTEX
  8
LAYER1
 62
     7
  6
CONTINUOUS
 10
21230.9042
 20
21915.0526
  0
VERTEX
  8
LAYER1
 62
     7
  6
CONTINUOUS
 10
21915.0526
 20
21517.8023
  0
VERTEX
  8
LAYER1
 62
     7
  6
CONTINUOUS
 10
22599.2035
 20
21131.5910
  0
VERTEX
  8
LAYER1
 62
     7
  6
CONTINUOUS
 10
23228.1853
 20
20701.2331
  0
VERTEX
  8
LAYER1
 62
     7
  6
CONTINUOUS
 10
23724.7512
 20
20381.2155
  0
VERTEX
  8
LAYER1
 62
     7
  6
CONTINUOUS
 10
24530.2933
 20
20061.2122
  0
VERTEX
  8
LAYER1
 62
     7
  6
CONTINUOUS
 10
25071.0034
 20
19983.9640
  0
VERTEX
  8
LAYER1
 62
     7
  6
CONTINUOUS
 10
25490.3199
 20
19983.9640
  0
VERTEX
  8
LAYER1
 62
     7
  6
CONTINUOUS
 10
25931.7145
 20
20039.1484
  0
VERTEX
  8
LAYER1
 62
     7
  6
CONTINUOUS
 10
26019.9886
 20
20160.5254
  0
VERTEX
  8
LAYER1
 62
     7
  6
CONTINUOUS
 10
26593.8016
 20
20690.1941
  0
VERTEX
  8
LAYER1
 62
     7
  6
CONTINUOUS
 10
27200.7030
 20
21197.7990
  0
VERTEX
  8
LAYER1
 62
     7
  6
CONTINUOUS
 10
27542.7867
 20
21617.1155
  0
VERTEX
  8
LAYER1
 62
     7
  6
CONTINUOUS
 10
27995.2060
 20
22091.6152
  0
VERTEX
  8
LAYER1
 62
     7
  6
CONTINUOUS
 10
28392.4588
 20
22389.5548
  0
VERTEX
  8
LAYER1
 62
     7
  6
CONTINUOUS
 10
28756.6063
 20
22808.8689
  0
VERTEX
  8
LAYER1
 62
     7
  6
CONTINUOUS
 10
29076.6239
 20
23128.8722
  0
VERTEX
  8
LAYER1
 62
     7
  6
CONTINUOUS
 10
29451.7962
 20
23537.1639
  0
VERTEX
  8
LAYER1
 62
     7
  6
CONTINUOUS
 10
30003.5453
 20
23978.5632
  0
VERTEX
  8
LAYER1
 62
     7
  6
CONTINUOUS
 10
30467.0060
 20
24309.6056
  0
VERTEX
  8
LAYER1
 62
     7
  6
CONTINUOUS
 10
31228.4039
 20
24927.5484
  0
VERTEX
  8
LAYER1
 62
     7
  6
CONTINUOUS
 10
31460.1354
 20
25413.0705
  0
VERTEX
  8
LAYER1
 62
     7
  6
CONTINUOUS
 10
31482.1992
 20
26053.0914
  0
VERTEX
  8
LAYER1
 62
     7
  6
CONTINUOUS
 10
31404.9498
 20
26560.6964
  0
VERTEX
  8
LAYER1
 62
     7
  6
CONTINUOUS
 10
31460.1354
 20
27288.9914
  0
VERTEX
  8
LAYER1
 62
     7
  6
CONTINUOUS
 10
31515.3044
 20
27818.6601
  0
VERTEX
  8
LAYER1
 62
     7
  6
CONTINUOUS
 10
31515.3044
 20
28348.3288
  0
VERTEX
  8
LAYER1
 62
     7
  6
CONTINUOUS
 10
31625.6566
 20
28679.3759
  0
VERTEX
  8
LAYER1
 62
     7
  6
CONTINUOUS
 10
31912.5547
 20
28988.3354
  0
VERTEX
  8
LAYER1
 62
     7
  6
CONTINUOUS
 10
32144.2863
 20
29198.0032
  0
VERTEX
  8
LAYER1
 62
     7
  6
CONTINUOUS
 10
32232.5580
 20
29418.6933
  0
VERTEX
  8
LAYER1
 62
     7
  6
CONTINUOUS
 10
32155.3253
 20
29838.0241
  0
VERTEX
  8
LAYER1
 62
     7
  6
CONTINUOUS
 10
32033.9317
 20
30268.3820
  0
VERTEX
  8
LAYER1
 62
     7
  6
CONTINUOUS
 10
31824.2830
 20
30908.3887
  0
VERTEX
  8
LAYER1
 62
     7
  6
CONTINUOUS
 10
31680.8256
 20
31515.3044
  0
VERTEX
  8
LAYER1
 62
     7
  6
CONTINUOUS
 10
31570.4733
 20
32067.0369
  0
VERTEX
  8
LAYER1
 62
     7
  6
CONTINUOUS
 10
31415.9912
 20
32497.3948
  0
VERTEX
  8
LAYER1
 62
     7
  6
CONTINUOUS
 10
31195.3011
 20
32949.8307
  0
VERTEX
  8
LAYER1
 62
     7
  6
CONTINUOUS
 10
30787.0093
 20
33402.2524
  0
VERTEX
  8
LAYER1
 62
     7
  6
CONTINUOUS
 10
30522.1750
 20
33545.7098
  0
VERTEX
  8
LAYER1
 62
     7
  6
CONTINUOUS
 10
30047.6728
 20
33766.3999
  0
VERTEX
  8
LAYER1
 62
     7
  6
CONTINUOUS
 10
29694.5667
 20
33931.9211
  0
VERTEX
  8
LAYER1
 62
     7
  6
CONTINUOUS
 10
29330.4192
 20
34108.4789
  0
VERTEX
  8
LAYER1
 62
     7
  6
CONTINUOUS
 10
28988.3354
 20
34285.0272
  0
VERTEX
  8
LAYER1
 62
     7
  6
CONTINUOUS
 10
28701.4373
 20
34505.7316
  0
VERTEX
  8
LAYER1
 62
     7
  6
CONTINUOUS
 10
28260.0404
 20
34936.0895
  0
VERTEX
  8
LAYER1
 62
     7
  6
CONTINUOUS
 10
27851.7653
 20
35344.3646
  0
VERTEX
  8
LAYER1
 62
     7
  6
CONTINUOUS
 10
27498.6425
 20
35598.1742
  0
VERTEX
  8
LAYER1
 62
     7
  6
CONTINUOUS
 10
27035.1818
 20
35851.9696
  0
VERTEX
  8
LAYER1
 62
     7
  6
CONTINUOUS
 10
26604.8263
 20
36138.8701
  0
VERTEX
  8
LAYER1
 62
     7
  6
CONTINUOUS
 10
26141.3656
 20
36359.5745
  0
VERTEX
  8
LAYER1
 62
     7
  6
CONTINUOUS
 10
25865.5065
 20
36458.8853
  0
VERTEX
  8
LAYER1
 62
     7
  6
CONTINUOUS
 10
25479.2785
 20
36580.2646
  0
VERTEX
  8
LAYER1
 62
     7
  6
CONTINUOUS
 10
24938.5851
 20
36591.3060
  0
SEQEND
  8
LAYER1
  0
POLYLINE
  8
LAYER1
 62
     3
 66
     1
  6
CONTINUOUS
  0
VERTEX
  8
LAYER1
 62
     3
  6
CONTINUOUS
 10
31051.8437
 20
29738.7133
  0
VERTEX
  8
LAYER1
 62
     3
  6
CONTINUOUS
 10
33302.9368
 20
29738.7133
  0
SEQEND
  8
LAYER1
  0
POLYLINE
  8
LAYER1
 62
     3
 66
     1
  6
CONTINUOUS
  0
VERTEX
  8
LAYER1
 62
     3
  6
CONTINUOUS
 10
24960.6512
 20
37363.7286
  0
VERTEX
  8
LAYER1
 62
     3
  6
CONTINUOUS
 10
24960.6512
 20
36072.6597
  0
SEQEND
  8
LAYER1
  0
POLYLINE
  8
LAYER1
 62
     3
 66
     1
  6
CONTINUOUS
  0
VERTEX
  8
LAYER1
 62
     3
  6
CONTINUOUS
 10
24960.6512
 20
20767.4435
  0
VERTEX
  8
LAYER1
 62
     3
  6
CONTINUOUS
 10
24960.6512
 20
18913.6018
  0
SEQEND
  8
LAYER1
  0
POLYLINE
  8
LAYER1
 62
     3
 66
     1
  6
CONTINUOUS
  0
VERTEX
  8
LAYER1
 62
     3
  6
CONTINUOUS
 10
16199.0479
 20
29738.7133
  0
VERTEX
  8
LAYER1
 62
     3
  6
CONTINUOUS
 10
18516.3491
 20
29738.7133
  0
SEQEND
  8
LAYER1
  0
POLYLINE
  8
LAYER1
 62
     7
 66
     1
  6
DASHED
  0
VERTEX
  8
LAYER1
 62
     7
  6
DASHED
 10
24960.6512
 20
34296.0686
  0
VERTEX
  8
LAYER1
 62
     7
  6
DASHED
 10
24861.3381
 20
34318.1324
  0
VERTEX
  8
LAYER1
 62
     7
  6
DASHED
 10
24397.8773
 20
34439.5260
  0
VERTEX
  8
LAYER1
 62
     7
  6
DASHED
 10
23956.4804
 20
34340.2105
  0
VERTEX
  8
LAYER1
 62
     7
  6
DASHED
 10
23526.1249
 20
34185.7117
  0
VERTEX
  8
LAYER1
 62
     7
  6
DASHED
 10
23095.7694
 20
34031.2319
  0
VERTEX
  8
LAYER1
 62
     7
  6
DASHED
 10
22654.3891
 20
33744.3314
  0
VERTEX
  8
LAYER1
 62
     7
  6
DASHED
 10
22235.0559
 20
33512.6046
  0
VERTEX
  8
LAYER1
 62
     7
  6
DASHED
 10
21904.0136
 20
33358.1058
  0
VERTEX
  8
LAYER1
 62
     7
  6
DASHED
 10
21473.6581
 20
32861.5423
  0
VERTEX
  8
LAYER1
 62
     7
  6
DASHED
 10
21286.0707
 20
32254.6409
  0
VERTEX
  8
LAYER1
 62
     7
  6
DASHED
 10
21032.2778
 20
31559.4510
  0
VERTEX
  8
LAYER1
 62
     7
  6
DASHED
 10
20844.6762
 20
30698.7352
  0
VERTEX
  8
LAYER1
 62
     7
  6
DASHED
 10
20623.9861
 20
30146.9884
  0
VERTEX
  8
LAYER1
 62
     7
  6
DASHED
 10
20535.7119
 20
29352.4830
  0
VERTEX
  8
LAYER1
 62
     7
  6
DASHED
 10
20646.0498
 20
28613.1656
  0
VERTEX
  8
LAYER1
 62
     7
  6
DASHED
 10
20679.1550
 20
28160.7296
  0
VERTEX
  8
LAYER1
 62
     7
  6
DASHED
 10
20668.1303
 20
27719.3493
  0
VERTEX
  8
LAYER1
 62
     7
  6
DASHED
 10
20734.3383
 20
27112.4336
  0
VERTEX
  8
LAYER1
 62
     7
  6
DASHED
 10
21043.3025
 20
26494.4908
  0
VERTEX
  8
LAYER1
 62
     7
  6
DASHED
 10
21870.9084
 20
26008.9496
  0
VERTEX
  8
LAYER1
 62
     7
  6
DASHED
 10
22698.5166
 20
25490.3223
  0
VERTEX
  8
LAYER1
 62
     7
  6
DASHED
 10
23404.7479
 20
24905.4847
  0
VERTEX
  8
LAYER1
 62
     7
  6
DASHED
 10
24099.9378
 20
24464.0853
  0
VERTEX
  8
LAYER1
 62
     7
  6
DASHED
 10
24717.8807
 20
24077.8740
  0
VERTEX
  8
LAYER1
 62
     7
  6
DASHED
 10
25424.1096
 20
24177.1896
  0
VERTEX
  8
LAYER1
 62
     7
  6
DASHED
 10
26163.4460
 20
24486.1491
  0
VERTEX
  8
LAYER1
 62
     7
  6
DASHED
 10
26560.6964
 20
24762.0273
  0
VERTEX
  8
LAYER1
 62
     7
  6
DASHED
 10
27035.1818
 20
25236.5270
  0
VERTEX
  8
LAYER1
 62
     7
  6
DASHED
 10
27642.0999
 20
25744.1129
  0
VERTEX
  8
LAYER1
 62
     7
  6
DASHED
 10
28237.9766
 20
26362.0700
  0
VERTEX
  8
LAYER1
 62
     7
  6
DASHED
 10
28624.1879
 20
26946.9077
  0
VERTEX
  8
LAYER1
 62
     7
  6
DASHED
 10
28889.0223
 20
27564.8505
  0
VERTEX
  8
LAYER1
 62
     7
  6
DASHED
 10
29021.4406
 20
28160.7296
  0
VERTEX
  8
LAYER1
 62
     7
  6
DASHED
 10
29010.4159
 20
28944.2079
  0
VERTEX
  8
LAYER1
 62
     7
  6
DASHED
 10
29043.5211
 20
29595.2559
  0
VERTEX
  8
LAYER1
 62
     7
  6
DASHED
 10
29032.4797
 20
30290.4458
  0
VERTEX
  8
LAYER1
 62
     7
  6
DASHED
 10
28977.3107
 20
30831.1559
  0
VERTEX
  8
LAYER1
 62
     7
  6
DASHED
 10
28911.1027
 20
31427.0302
  0
VERTEX
  8
LAYER1
 62
     7
  6
DASHED
 10
28701.4373
 20
31956.6989
  0
VERTEX
  8
LAYER1
 62
     7
  6
DASHED
 10
28447.6420
 20
32265.6632
  0
VERTEX
  8
LAYER1
 62
     7
  6
DASHED
 10
27951.0785
 20
32740.1630
  0
VERTEX
  8
LAYER1
 62
     7
  6
DASHED
 10
27719.3469
 20
32927.7479
  0
VERTEX
  8
LAYER1
 62
     7
  6
DASHED
 10
27266.9110
 20
33137.4157
  0
VERTEX
  8
LAYER1
 62
     7
  6
DASHED
 10
26814.4917
 20
33225.6898
  0
VERTEX
  8
LAYER1
 62
     7
  6
DASHED
 10
26251.7178
 20
33391.2110
  0
VERTEX
  8
LAYER1
 62
     7
  6
DASHED
 10
25777.2181
 20
33611.9154
  0
VERTEX
  8
LAYER1
 62
     7
  6
DASHED
 10
25424.1096
 20
33744.3314
  0
VERTEX
  8
LAYER1
 62
     7
  6
DASHED
 10
24960.6512
 20
34296.0686
  0
SEQEND
  8
LAYER1
  0
POLYLINE
  8
LAYER1
 62
     7
 66
     1
  6
CONTINUOUS
  0
VERTEX
  8
LAYER1
 62
     7
  6
CONTINUOUS
 10
11299.6101
 20
15636.2740
  0
VERTEX
  8
LAYER1
 62
     7
  6
CONTINUOUS
 10
11685.8214
 20
15636.2740
  0
VERTEX
  8
LAYER1
 62
     7
  6
CONTINUOUS
 10
12094.1131
 20
15625.2338
  0
VERTEX
  8
LAYER1
 62
     7
  6
CONTINUOUS
 10
12612.7428
 20
15570.0661
  0
VERTEX
  8
LAYER1
 62
     7
  6
CONTINUOUS
 10
13296.8924
 20
15536.9621
  0
VERTEX
  8
LAYER1
 62
     7
  6
CONTINUOUS
 10
13716.2244
 20
15547.9856
  0
VERTEX
  8
LAYER1
 62
     7
  6
CONTINUOUS
 10
14334.1661
 20
15603.1701
  0
VERTEX
  8
LAYER1
 62
     7
  6
CONTINUOUS
 10
15018.3169
 20
15647.2988
  0
VERTEX
  8
LAYER1
 62
     7
  6
CONTINUOUS
 10
15834.9004
 20
15691.4430
  0
VERTEX
  8
LAYER1
 62
     7
  6
CONTINUOUS
 10
16530.0915
 20
15724.5470
  0
VERTEX
  8
LAYER1
 62
     7
  6
CONTINUOUS
 10
17015.6160
 20
15735.5872
  0
VERTEX
  8
LAYER1
 62
     7
  6
CONTINUOUS
 10
17777.0150
 20
15724.5470
  0
VERTEX
  8
LAYER1
 62
     7
  6
CONTINUOUS
 10
18681.8715
 20
15691.4430
  0
VERTEX
  8
LAYER1
 62
     7
  6
CONTINUOUS
 10
19608.7917
 20
15614.1948
  0
VERTEX
  8
LAYER1
 62
     7
  6
CONTINUOUS
 10
20513.6315
 20
15525.9218
  0
VERTEX
  8
LAYER1
 62
     7
  6
CONTINUOUS
 10
21120.5496
 20
15448.6724
  0
VERTEX
  8
LAYER1
 62
     7
  6
CONTINUOUS
 10
21815.7394
 20
15371.4397
  0
VERTEX
  8
LAYER1
 62
     7
  6
CONTINUOUS
 10
22797.8298
 20
15283.1513
  0
VERTEX
  8
LAYER1
 62
     7
  6
CONTINUOUS
 10
23493.0197
 20
15205.9185
  0
VERTEX
  8
LAYER1
 62
     7
  6
CONTINUOUS
 10
24199.2510
 20
15117.6301
  0
VERTEX
  8
LAYER1
 62
     7
  6
CONTINUOUS
 10
24982.7150
 20
15040.3974
  0
VERTEX
  8
LAYER1
 62
     7
  6
CONTINUOUS
 10
25655.8411
 20
14985.2129
  0
VERTEX
  8
LAYER1
 62
     7
  6
CONTINUOUS
 10
26163.4460
 20
14907.9802
  0
VERTEX
  8
LAYER1
 62
     7
  6
CONTINUOUS
 10
26726.2175
 20
14819.6905
  0
VERTEX
  8
LAYER1
 62
     7
  6
CONTINUOUS
 10
27244.8472
 20
14731.4176
  0
VERTEX
  8
LAYER1
 62
     7
  6
CONTINUOUS
 10
27741.4131
 20
14654.1694
  0
VERTEX
  8
LAYER1
 62
     7
  6
CONTINUOUS
 10
28249.0156
 20
14654.1694
  0
VERTEX
  8
LAYER1
 62
     7
  6
CONTINUOUS
 10
28668.3321
 20
14687.2734
  0
VERTEX
  8
LAYER1
 62
     7
  6
CONTINUOUS
 10
29209.0423
 20
14764.5228
  0
SEQEND
  8
LAYER1
  0
POLYLINE
  8
LAYER1
 62
     7
 66
     1
  6
CONTINUOUS
  0
VERTEX
  8
LAYER1
 62
     7
  6
CONTINUOUS
 10
12612.7428
 20
15570.0661
  0
VERTEX
  8
LAYER1
 62
     7
  6
CONTINUOUS
 10
12943.7851
 20
15459.7127
  0
VERTEX
  8
LAYER1
 62
     7
  6
CONTINUOUS
 10
13109.3075
 20
14676.2498
  0
VERTEX
  8
LAYER1
 62
     7
  6
CONTINUOUS
 10
13153.4517
 20
14179.6851
  0
VERTEX
  8
LAYER1
 62
     7
  6
CONTINUOUS
 10
13186.5557
 20
13550.7032
  0
VERTEX
  8
LAYER1
 62
     7
  6
CONTINUOUS
 10
13219.6597
 20
13142.4115
  0
VERTEX
  8
LAYER1
 62
     7
  6
CONTINUOUS
 10
13263.7884
 20
12701.0157
  0
VERTEX
  8
LAYER1
 62
     7
  6
CONTINUOUS
 10
13329.9976
 20
12149.2821
  0
VERTEX
  8
LAYER1
 62
     7
  6
CONTINUOUS
 10
13407.2458
 20
11520.3002
  0
VERTEX
  8
LAYER1
 62
     7
  6
CONTINUOUS
 10
13561.7268
 20
10747.8609
  0
VERTEX
  8
LAYER1
 62
     7
  6
CONTINUOUS
 10
13727.2492
 20
10328.5444
  0
VERTEX
  8
LAYER1
 62
     7
  6
CONTINUOUS
 10
14146.5811
 20
10030.6061
  0
VERTEX
  8
LAYER1
 62
     7
  6
CONTINUOUS
 10
14654.1694
 20
10019.5659
  0
VERTEX
  8
LAYER1
 62
     7
  6
CONTINUOUS
 10
15029.3571
 20
9975.4377
  0
VERTEX
  8
LAYER1
 62
     7
  6
CONTINUOUS
 10
15360.3995
 20
9357.4800
  0
VERTEX
  8
LAYER1
 62
     7
  6
CONTINUOUS
 10
15536.9621
 20
8529.8723
  0
VERTEX
  8
LAYER1
 62
     7
  6
CONTINUOUS
 10
15625.2350
 20
7801.5773
  0
VERTEX
  8
LAYER1
 62
     7
  6
CONTINUOUS
 10
15735.5872
 20
7062.2581
  0
VERTEX
  8
LAYER1
 62
     7
  6
CONTINUOUS
 10
15901.1096
 20
6245.6746
  0
VERTEX
  8
LAYER1
 62
     7
  6
CONTINUOUS
 10
16132.8388
 20
5693.9415
  0
VERTEX
  8
LAYER1
 62
     7
  6
CONTINUOUS
 10
16452.8421
 20
5153.2326
  0
VERTEX
  8
LAYER1
 62
     7
  6
CONTINUOUS
 10
16982.5108
 20
4557.3550
  0
VERTEX
  8
LAYER1
 62
     7
  6
CONTINUOUS
 10
17699.7656
 20
4115.9744
  0
VERTEX
  8
LAYER1
 62
     7
  6
CONTINUOUS
 10
18428.0607
 20
3895.2685
  0
VERTEX
  8
LAYER1
 62
     7
  6
CONTINUOUS
 10
19222.5649
 20
3818.0358
  0
VERTEX
  8
LAYER1
 62
     7
  6
CONTINUOUS
 10
20226.7333
 20
3784.9315
  0
VERTEX
  8
LAYER1
 62
     7
  6
CONTINUOUS
 10
21120.5496
 20
3851.1401
  0
VERTEX
  8
LAYER1
 62
     7
  6
CONTINUOUS
 10
21937.1188
 20
3928.3731
  0
VERTEX
  8
LAYER1
 62
     7
  6
CONTINUOUS
 10
22985.4314
 20
3994.5817
  0
VERTEX
  8
LAYER1
 62
     7
  6
CONTINUOUS
 10
24044.7688
 20
4149.0787
  0
VERTEX
  8
LAYER1
 62
     7
  6
CONTINUOUS
 10
24662.7117
 20
4469.0820
  0
VERTEX
  8
LAYER1
 62
     7
  6
CONTINUOUS
 10
25170.3166
 20
5075.9993
  0
VERTEX
  8
LAYER1
 62
     7
  6
CONTINUOUS
 10
25534.4642
 20
5594.6283
  0
VERTEX
  8
LAYER1
 62
     7
  6
CONTINUOUS
 10
25832.4013
 20
6311.8832
  0
VERTEX
  8
LAYER1
 62
     7
  6
CONTINUOUS
 10
26031.0277
 20
6830.5277
  0
VERTEX
  8
LAYER1
 62
     7
  6
CONTINUOUS
 10
26251.7178
 20
7625.0314
  0
VERTEX
  8
LAYER1
 62
     7
  6
CONTINUOUS
 10
26373.0947
 20
8242.9730
  0
VERTEX
  8
LAYER1
 62
     7
  6
CONTINUOUS
 10
26461.3832
 20
8971.2681
  0
VERTEX
  8
LAYER1
 62
     7
  6
CONTINUOUS
 10
26483.4493
 20
9291.2714
  0
VERTEX
  8
LAYER1
 62
     7
  6
CONTINUOUS
 10
26582.7601
 20
9953.3573
  0
VERTEX
  8
LAYER1
 62
     7
  6
CONTINUOUS
 10
26737.2423
 20
10218.1922
  0
VERTEX
  8
LAYER1
 62
     7
  6
CONTINUOUS
 10
27255.8886
 20
10416.8174
  0
VERTEX
  8
LAYER1
 62
     7
  6
CONTINUOUS
 10
27520.7230
 20
10505.1058
  0
VERTEX
  8
LAYER1
 62
     7
  6
CONTINUOUS
 10
27807.6211
 20
10780.9649
  0
VERTEX
  8
LAYER1
 62
     7
  6
CONTINUOUS
 10
27906.9343
 20
11100.9837
  0
VERTEX
  8
LAYER1
 62
     7
  6
CONTINUOUS
 10
27973.1423
 20
11729.9656
  0
VERTEX
  8
LAYER1
 62
     7
  6
CONTINUOUS
 10
27951.0785
 20
12447.2204
  0
VERTEX
  8
LAYER1
 62
     7
  6
CONTINUOUS
 10
27962.1032
 20
13054.1385
  0
VERTEX
  8
LAYER1
 62
     7
  6
CONTINUOUS
 10
27973.1423
 20
13561.7268
  0
VERTEX
  8
LAYER1
 62
     7
  6
CONTINUOUS
 10
28039.3503
 20
14190.7087
  0
VERTEX
  8
LAYER1
 62
     7
  6
CONTINUOUS
 10
28249.0156
 20
14654.1694
  0
SEQEND
  8
LAYER1
  0
POLYLINE
  8
LAYER1
 62
     7
 66
     1
  6
CONTINUOUS
  0
VERTEX
  8
LAYER1
 62
     7
  6
CONTINUOUS
 10
13263.7884
 20
12701.0157
  0
VERTEX
  8
LAYER1
 62
     7
  6
CONTINUOUS
 10
13352.0769
 20
12601.7026
  0
VERTEX
  8
LAYER1
 62
     7
  6
CONTINUOUS
 10
13815.5376
 20
12513.4296
  0
VERTEX
  8
LAYER1
 62
     7
  6
CONTINUOUS
 10
14345.2063
 20
12491.3646
  0
VERTEX
  8
LAYER1
 62
     7
  6
CONTINUOUS
 10
14643.1446
 20
12469.2854
  0
VERTEX
  8
LAYER1
 62
     7
  6
CONTINUOUS
 10
14830.7308
 20
12160.3223
  0
VERTEX
  8
LAYER1
 62
     7
  6
CONTINUOUS
 10
14896.9400
 20
11520.3002
  0
VERTEX
  8
LAYER1
 62
     7
  6
CONTINUOUS
 10
14952.1089
 20
11189.2567
  0
VERTEX
  8
LAYER1
 62
     7
  6
CONTINUOUS
 10
14974.1882
 20
10935.4625
  0
VERTEX
  8
LAYER1
 62
     7
  6
CONTINUOUS
 10
14996.2531
 20
10637.5242
  0
VERTEX
  8
LAYER1
 62
     7
  6
CONTINUOUS
 10
15029.3571
 20
9975.4377
  0
SEQEND
  8
LAYER1
  0
POLYLINE
  8
LAYER1
 62
     7
 66
     1
  6
CONTINUOUS
  0
VERTEX
  8
LAYER1
 62
     7
  6
CONTINUOUS
 10
14996.2531
 20
10637.5242
  0
VERTEX
  8
LAYER1
 62
     7
  6
CONTINUOUS
 10
14885.8997
 20
10758.9011
  0
VERTEX
  8
LAYER1
 62
     7
  6
CONTINUOUS
 10
15216.9433
 20
10571.3150
  0
VERTEX
  8
LAYER1
 62
     7
  6
CONTINUOUS
 10
15382.4644
 20
10483.0266
  0
VERTEX
  8
LAYER1
 62
     7
  6
CONTINUOUS
 10
15890.0694
 20
10317.5054
  0
VERTEX
  8
LAYER1
 62
     7
  6
CONTINUOUS
 10
16596.2995
 20
10151.9830
  0
VERTEX
  8
LAYER1
 62
     7
  6
CONTINUOUS
 10
17291.4905
 20
10008.5423
  0
VERTEX
  8
LAYER1
 62
     7
  6
CONTINUOUS
 10
18251.5147
 20
9776.8114
  0
VERTEX
  8
LAYER1
 62
     7
  6
CONTINUOUS
 10
19079.1230
 20
9765.7717
  0
VERTEX
  8
LAYER1
 62
     7
  6
CONTINUOUS
 10
19796.3778
 20
9843.0200
  0
VERTEX
  8
LAYER1
 62
     7
  6
CONTINUOUS
 10
20403.2959
 20
9942.3331
  0
VERTEX
  8
LAYER1
 62
     7
  6
CONTINUOUS
 10
20712.2578
 20
10063.7101
  0
VERTEX
  8
LAYER1
 62
     7
  6
CONTINUOUS
 10
21330.2150
 20
10472.0018
  0
VERTEX
  8
LAYER1
 62
     7
  6
CONTINUOUS
 10
22036.4320
 20
10836.1494
  0
VERTEX
  8
LAYER1
 62
     7
  6
CONTINUOUS
 10
22919.2235
 20
11045.7993
  0
VERTEX
  8
LAYER1
 62
     7
  6
CONTINUOUS
 10
23625.4381
 20
11200.2969
  0
VERTEX
  8
LAYER1
 62
     7
  6
CONTINUOUS
 10
24144.0820
 20
11332.7141
  0
VERTEX
  8
LAYER1
 62
     7
  6
CONTINUOUS
 10
24563.3985
 20
11332.7141
  0
VERTEX
  8
LAYER1
 62
     7
  6
CONTINUOUS
 10
24817.1938
 20
11178.2164
  0
VERTEX
  8
LAYER1
 62
     7
  6
CONTINUOUS
 10
25424.1096
 20
10747.8609
  0
VERTEX
  8
LAYER1
 62
     7
  6
CONTINUOUS
 10
25755.1543
 20
10494.0668
  0
VERTEX
  8
LAYER1
 62
     7
  6
CONTINUOUS
 10
25898.6117
 20
10394.7536
  0
VERTEX
  8
LAYER1
 62
     7
  6
CONTINUOUS
 10
26141.3656
 20
10262.3364
  0
VERTEX
  8
LAYER1
 62
     7
  6
CONTINUOUS
 10
26450.3442
 20
10251.2962
  0
VERTEX
  8
LAYER1
 62
     7
  6
CONTINUOUS
 10
26737.2423
 20
10218.1922
  0
SEQEND
  8
LAYER1
  0
POLYLINE
  8
LAYER1
 62
     7
 66
     1
  6
CONTINUOUS
  0
VERTEX
  8
LAYER1
 62
     7
  6
CONTINUOUS
 10
26737.2423
 20
10218.1922
  0
VERTEX
  8
LAYER1
 62
     7
  6
CONTINUOUS
 10
26803.4526
 20
10295.4404
  0
VERTEX
  8
LAYER1
 62
     7
  6
CONTINUOUS
 10
26836.5555
 20
10946.4873
  0
VERTEX
  8
LAYER1
 62
     7
  6
CONTINUOUS
 10
26891.7411
 20
11332.7141
  0
VERTEX
  8
LAYER1
 62
     7
  6
CONTINUOUS
 10
27057.2623
 20
11873.4075
  0
VERTEX
  8
LAYER1
 62
     7
  6
CONTINUOUS
 10
27366.2242
 20
12005.8247
  0
VERTEX
  8
LAYER1
 62
     7
  6
CONTINUOUS
 10
27531.7453
 20
12083.0729
  0
VERTEX
  8
LAYER1
 62
     7
  6
CONTINUOUS
 10
27686.2441
 20
12204.4510
  0
VERTEX
  8
LAYER1
 62
     7
  6
CONTINUOUS
 10
27951.0785
 20
12447.2204
  0
SEQEND
  8
LAYER1
  0
POLYLINE
  8
LAYER1
 62
     7
 66
     1
  6
CONTINUOUS
  0
VERTEX
  8
LAYER1
 62
     7
  6
CONTINUOUS
 10
15735.5872
 20
7062.2581
  0
VERTEX
  8
LAYER1
 62
     7
  6
CONTINUOUS
 10
16044.5503
 20
6841.5525
  0
VERTEX
  8
LAYER1
 62
     7
  6
CONTINUOUS
 10
16342.4899
 20
6620.8623
  0
VERTEX
  8
LAYER1
 62
     7
  6
CONTINUOUS
 10
16651.4684
 20
6422.2360
  0
VERTEX
  8
LAYER1
 62
     7
  6
CONTINUOUS
 10
17236.3061
 20
6113.2574
  0
VERTEX
  8
LAYER1
 62
     7
  6
CONTINUOUS
 10
17545.2847
 20
6013.9448
  0
VERTEX
  8
LAYER1
 62
     7
  6
CONTINUOUS
 10
18218.4108
 20
5925.6719
  0
VERTEX
  8
LAYER1
 62
     7
  6
CONTINUOUS
 10
19531.5435
 20
6036.0247
  0
VERTEX
  8
LAYER1
 62
     7
  6
CONTINUOUS
 10
20315.0075
 20
5969.8161
  0
VERTEX
  8
LAYER1
 62
     7
  6
CONTINUOUS
 10
20988.1336
 20
5870.5029
  0
VERTEX
  8
LAYER1
 62
     7
  6
CONTINUOUS
 10
21572.9712
 20
5881.5271
  0
VERTEX
  8
LAYER1
 62
     7
  6
CONTINUOUS
 10
21970.2216
 20
6013.9448
  0
VERTEX
  8
LAYER1
 62
     7
  6
CONTINUOUS
 10
22654.3891
 20
6256.7148
  0
VERTEX
  8
LAYER1
 62
     7
  6
CONTINUOUS
 10
23250.2658
 20
6455.3406
  0
VERTEX
  8
LAYER1
 62
     7
  6
CONTINUOUS
 10
23956.4804
 20
6698.1106
  0
VERTEX
  8
LAYER1
 62
     7
  6
CONTINUOUS
 10
24464.0853
 20
6841.5525
  0
VERTEX
  8
LAYER1
 62
     7
  6
CONTINUOUS
 10
24949.6098
 20
7007.0736
  0
VERTEX
  8
LAYER1
 62
     7
  6
CONTINUOUS
 10
25258.5884
 20
7084.3224
  0
VERTEX
  8
LAYER1
 62
     7
  6
CONTINUOUS
 10
25666.8801
 20
7260.8838
  0
VERTEX
  8
LAYER1
 62
     7
  6
CONTINUOUS
 10
25975.8444
 20
7426.4056
  0
VERTEX
  8
LAYER1
 62
     7
  6
CONTINUOUS
 10
26251.7178
 20
7625.0314
  0
SEQEND
  8
LAYER1
  0
POLYLINE
  8
LAYER1
 62
     7
 66
     1
  6
CONTINUOUS
  0
VERTEX
  8
LAYER1
 62
     7
  6
CONTINUOUS
 10
36138.8677
 20
15227.9823
  0
VERTEX
  8
LAYER1
 62
     7
  6
CONTINUOUS
 10
36668.5364
 20
15172.8145
  0
VERTEX
  8
LAYER1
 62
     7
  6
CONTINUOUS
 10
37352.7015
 20
15194.8783
  0
VERTEX
  8
LAYER1
 62
     7
  6
CONTINUOUS
 10
38191.3345
 20
15227.9823
  0
VERTEX
  8
LAYER1
 62
     7
  6
CONTINUOUS
 10
39007.9180
 20
15294.1915
  0
VERTEX
  8
LAYER1
 62
     7
  6
CONTINUOUS
 10
39703.1079
 20
15360.3995
  0
VERTEX
  8
LAYER1
 62
     7
  6
CONTINUOUS
 10
40817.6142
 20
15426.6087
  0
VERTEX
  8
LAYER1
 62
     7
  6
CONTINUOUS
 10
41645.2248
 20
15459.7127
  0
VERTEX
  8
LAYER1
 62
     7
  6
CONTINUOUS
 10
42704.5622
 20
15481.7776
  0
VERTEX
  8
LAYER1
 62
     7
  6
CONTINUOUS
 10
43631.4789
 20
15481.7776
  0
VERTEX
  8
LAYER1
 62
     7
  6
CONTINUOUS
 10
44470.1309
 20
15481.7776
  0
VERTEX
  8
LAYER1
 62
     7
  6
CONTINUOUS
 10
45463.2580
 20
15481.7776
  0
VERTEX
  8
LAYER1
 62
     7
  6
CONTINUOUS
 10
46533.6225
 20
15404.5449
  0
VERTEX
  8
LAYER1
 62
     7
  6
CONTINUOUS
 10
47339.1646
 20
15305.2317
  0
VERTEX
  8
LAYER1
 62
     7
  6
CONTINUOUS
 10
48343.3330
 20
15205.9185
  0
VERTEX
  8
LAYER1
 62
     7
  6
CONTINUOUS
 10
49424.7342
 20
15139.7093
  0
VERTEX
  8
LAYER1
 62
     7
  6
CONTINUOUS
 10
50406.8246
 20
15128.6703
  0
VERTEX
  8
LAYER1
 62
     7
  6
CONTINUOUS
 10
51168.2248
 20
15161.7743
  0
VERTEX
  8
LAYER1
 62
     7
  6
CONTINUOUS
 10
51697.8935
 20
15194.8783
  0
VERTEX
  8
LAYER1
 62
     7
  6
CONTINUOUS
 10
51863.4147
 20
15194.8783
  0
VERTEX
  8
LAYER1
 62
     7
  6
CONTINUOUS
 10
52547.5631
 20
15172.8145
  0
VERTEX
  8
LAYER1
 62
     7
  6
CONTINUOUS
 10
52977.9353
 20
15194.8783
  0
VERTEX
  8
LAYER1
 62
     7
  6
CONTINUOUS
 10
53430.3570
 20
15239.0225
  0
SEQEND
  8
LAYER1
  0
POLYLINE
  8
LAYER1
 62
     7
 66
     1
  6
CONTINUOUS
  0
VERTEX
  8
LAYER1
 62
     7
  6
CONTINUOUS
 10
37352.7015
 20
15194.8783
  0
VERTEX
  8
LAYER1
 62
     7
  6
CONTINUOUS
 10
37485.1199
 20
14919.0037
  0
VERTEX
  8
LAYER1
 62
     7
  6
CONTINUOUS
 10
37507.1836
 20
13992.0835
  0
VERTEX
  8
LAYER1
 62
     7
  6
CONTINUOUS
 10
37474.0785
 20
13285.8689
  0
VERTEX
  8
LAYER1
 62
     7
  6
CONTINUOUS
 10
37485.1199
 20
12712.0548
  0
VERTEX
  8
LAYER1
 62
     7
  6
CONTINUOUS
 10
37496.1446
 20
12171.3459
  0
VERTEX
  8
LAYER1
 62
     7
  6
CONTINUOUS
 10
37496.1446
 20
11685.8214
  0
VERTEX
  8
LAYER1
 62
     7
  6
CONTINUOUS
 10
37551.3279
 20
11222.3607
  0
VERTEX
  8
LAYER1
 62
     7
  6
CONTINUOUS
 10
37705.8100
 20
10758.9011
  0
VERTEX
  8
LAYER1
 62
     7
  6
CONTINUOUS
 10
37827.1870
 20
10593.3788
  0
VERTEX
  8
LAYER1
 62
     7
  6
CONTINUOUS
 10
38069.9575
 20
10240.2715
  0
VERTEX
  8
LAYER1
 62
     7
  6
CONTINUOUS
 10
38257.5425
 20
9677.4988
  0
VERTEX
  8
LAYER1
 62
     7
  6
CONTINUOUS
 10
38566.5210
 20
8750.5780
  0
VERTEX
  8
LAYER1
 62
     7
  6
CONTINUOUS
 10
38864.4606
 20
8022.2829
  0
VERTEX
  8
LAYER1
 62
     7
  6
CONTINUOUS
 10
39129.2949
 20
7382.2614
  0
VERTEX
  8
LAYER1
 62
     7
  6
CONTINUOUS
 10
39261.7133
 20
7051.2179
  0
VERTEX
  8
LAYER1
 62
     7
  6
CONTINUOUS
 10
39515.5062
 20
6411.1963
  0
VERTEX
  8
LAYER1
 62
     7
  6
CONTINUOUS
 10
39747.2378
 20
5958.7759
  0
VERTEX
  8
LAYER1
 62
     7
  6
CONTINUOUS
 10
39945.8618
 20
5605.6686
  0
VERTEX
  8
LAYER1
 62
     7
  6
CONTINUOUS
 10
40254.8403
 20
5230.4808
  0
VERTEX
  8
LAYER1
 62
     7
  6
CONTINUOUS
 10
40696.2397
 20
4833.2293
  0
VERTEX
  8
LAYER1
 62
     7
  6
CONTINUOUS
 10
41292.1140
 20
4513.2263
  0
VERTEX
  8
LAYER1
 62
     7
  6
CONTINUOUS
 10
42031.4361
 20
4336.6646
  0
VERTEX
  8
LAYER1
 62
     7
  6
CONTINUOUS
 10
42814.9145
 20
4204.2474
  0
VERTEX
  8
LAYER1
 62
     7
  6
CONTINUOUS
 10
43598.3785
 20
4060.7903
  0
VERTEX
  8
LAYER1
 62
     7
  6
CONTINUOUS
 10
44613.5693
 20
3939.4130
  0
VERTEX
  8
LAYER1
 62
     7
  6
CONTINUOUS
 10
46136.3698
 20
3884.2444
  0
VERTEX
  8
LAYER1
 62
     7
  6
CONTINUOUS
 10
46831.5596
 20
3994.5817
  0
VERTEX
  8
LAYER1
 62
     7
  6
CONTINUOUS
 10
47372.2698
 20
4126.9989
  0
VERTEX
  8
LAYER1
 62
     7
  6
CONTINUOUS
 10
48067.4596
 20
4358.7289
  0
VERTEX
  8
LAYER1
 62
     7
  6
CONTINUOUS
 10
48762.6495
 20
4689.7722
  0
VERTEX
  8
LAYER1
 62
     7
  6
CONTINUOUS
 10
49215.0712
 20
5009.7907
  0
VERTEX
  8
LAYER1
 62
     7
  6
CONTINUOUS
 10
49733.7128
 20
5517.3801
  0
VERTEX
  8
LAYER1
 62
     7
  6
CONTINUOUS
 10
50197.1758
 20
6212.5706
  0
VERTEX
  8
LAYER1
 62
     7
  6
CONTINUOUS
 10
50384.7608
 20
6698.1106
  0
VERTEX
  8
LAYER1
 62
     7
  6
CONTINUOUS
 10
50561.3234
 20
7117.4270
  0
VERTEX
  8
LAYER1
 62
     7
  6
CONTINUOUS
 10
50704.7617
 20
7669.1601
  0
VERTEX
  8
LAYER1
 62
     7
  6
CONTINUOUS
 10
50782.0135
 20
8000.2030
  0
VERTEX
  8
LAYER1
 62
     7
  6
CONTINUOUS
 10
50859.2605
 20
8529.8723
  0
VERTEX
  8
LAYER1
 62
     7
  6
CONTINUOUS
 10
50914.4295
 20
9037.4767
  0
VERTEX
  8
LAYER1
 62
     7
  6
CONTINUOUS
 10
50936.4933
 20
9633.3546
  0
VERTEX
  8
LAYER1
 62
     7
  6
CONTINUOUS
 10
51002.7036
 20
9887.1487
  0
VERTEX
  8
LAYER1
 62
     7
  6
CONTINUOUS
 10
51344.7874
 20
10174.0635
  0
VERTEX
  8
LAYER1
 62
     7
  6
CONTINUOUS
 10
51730.9987
 20
10571.3150
  0
VERTEX
  8
LAYER1
 62
     7
  6
CONTINUOUS
 10
51995.8497
 20
10979.5913
  0
VERTEX
  8
LAYER1
 62
     7
  6
CONTINUOUS
 10
52172.3932
 20
11409.9468
  0
VERTEX
  8
LAYER1
 62
     7
  6
CONTINUOUS
 10
52216.5399
 20
12314.8033
  0
VERTEX
  8
LAYER1
 62
     7
  6
CONTINUOUS
 10
52238.6036
 20
13208.6195
  0
VERTEX
  8
LAYER1
 62
     7
  6
CONTINUOUS
 10
52227.5622
 20
13539.6630
  0
VERTEX
  8
LAYER1
 62
     7
  6
CONTINUOUS
 10
52216.5399
 20
13970.0185
  0
VERTEX
  8
LAYER1
 62
     7
  6
CONTINUOUS
 10
52150.3295
 20
14312.1023
  0
VERTEX
  8
LAYER1
 62
     7
  6
CONTINUOUS
 10
52084.1191
 20
14654.1694
  0
VERTEX
  8
LAYER1
 62
     7
  6
CONTINUOUS
 10
51863.4147
 20
15194.8783
  0
SEQEND
  8
LAYER1
  0
POLYLINE
  8
LAYER1
 62
     7
 66
     1
  6
CONTINUOUS
  0
VERTEX
  8
LAYER1
 62
     7
  6
CONTINUOUS
 10
37496.1446
 20
12171.3459
  0
VERTEX
  8
LAYER1
 62
     7
  6
CONTINUOUS
 10
37540.2888
 20
12127.2171
  0
VERTEX
  8
LAYER1
 62
     7
  6
CONTINUOUS
 10
37838.2260
 20
12038.9287
  0
VERTEX
  8
LAYER1
 62
     7
  6
CONTINUOUS
 10
37959.6053
 20
11906.5115
  0
VERTEX
  8
LAYER1
 62
     7
  6
CONTINUOUS
 10
38103.0603
 20
11663.7576
  0
VERTEX
  8
LAYER1
 62
     7
  6
CONTINUOUS
 10
38158.2293
 20
11476.1560
  0
VERTEX
  8
LAYER1
 62
     7
  6
CONTINUOUS
 10
38180.3097
 20
11222.3607
  0
VERTEX
  8
LAYER1
 62
     7
  6
CONTINUOUS
 10
38158.2293
 20
11067.8797
  0
VERTEX
  8
LAYER1
 62
     7
  6
CONTINUOUS
 10
37827.1870
 20
10593.3788
  0
SEQEND
  8
LAYER1
  0
POLYLINE
  8
LAYER1
 62
     7
 66
     1
  6
CONTINUOUS
  0
VERTEX
  8
LAYER1
 62
     7
  6
CONTINUOUS
 10
38158.2293
 20
11067.8797
  0
VERTEX
  8
LAYER1
 62
     7
  6
CONTINUOUS
 10
38257.5425
 20
11034.7757
  0
VERTEX
  8
LAYER1
 62
     7
  6
CONTINUOUS
 10
38445.1441
 20
10869.2534
  0
VERTEX
  8
LAYER1
 62
     7
  6
CONTINUOUS
 10
38577.5625
 20
10769.9414
  0
VERTEX
  8
LAYER1
 62
     7
  6
CONTINUOUS
 10
38798.2526
 20
10560.2748
  0
VERTEX
  8
LAYER1
 62
     7
  6
CONTINUOUS
 10
39239.6471
 20
10273.3767
  0
VERTEX
  8
LAYER1
 62
     7
  6
CONTINUOUS
 10
39923.7980
 20
10041.6463
  0
VERTEX
  8
LAYER1
 62
     7
  6
CONTINUOUS
 10
40950.0302
 20
9975.4377
  0
VERTEX
  8
LAYER1
 62
     7
  6
CONTINUOUS
 10
41645.2248
 20
9909.2285
  0
VERTEX
  8
LAYER1
 62
     7
  6
CONTINUOUS
 10
42561.1048
 20
9876.1245
  0
VERTEX
  8
LAYER1
 62
     7
  6
CONTINUOUS
 10
43686.6479
 20
9898.1889
  0
VERTEX
  8
LAYER1
 62
     7
  6
CONTINUOUS
 10
44392.8791
 20
9953.3573
  0
VERTEX
  8
LAYER1
 62
     7
  6
CONTINUOUS
 10
44911.5112
 20
10019.5659
  0
VERTEX
  8
LAYER1
 62
     7
  6
CONTINUOUS
 10
45694.9752
 20
10262.3364
  0
VERTEX
  8
LAYER1
 62
     7
  6
CONTINUOUS
 10
46312.9324
 20
10637.5242
  0
VERTEX
  8
LAYER1
 62
     7
  6
CONTINUOUS
 10
46831.5596
 20
10957.5263
  0
VERTEX
  8
LAYER1
 62
     7
  6
CONTINUOUS
 10
47173.6434
 20
11123.0487
  0
VERTEX
  8
LAYER1
 62
     7
  6
CONTINUOUS
 10
47924.0022
 20
11266.5061
  0
VERTEX
  8
LAYER1
 62
     7
  6
CONTINUOUS
 10
48255.0446
 20
11299.6101
  0
VERTEX
  8
LAYER1
 62
     7
  6
CONTINUOUS
 10
48674.3754
 20
11244.4256
  0
VERTEX
  8
LAYER1
 62
     7
  6
CONTINUOUS
 10
49104.7333
 20
11089.9435
  0
VERTEX
  8
LAYER1
 62
     7
  6
CONTINUOUS
 10
49524.0497
 20
10902.3585
  0
VERTEX
  8
LAYER1
 62
     7
  6
CONTINUOUS
 10
50042.6770
 20
10747.8609
  0
VERTEX
  8
LAYER1
 62
     7
  6
CONTINUOUS
 10
50473.0349
 20
10736.8362
  0
VERTEX
  8
LAYER1
 62
     7
  6
CONTINUOUS
 10
50649.5928
 20
10814.0701
  0
VERTEX
  8
LAYER1
 62
     7
  6
CONTINUOUS
 10
50859.2605
 20
11100.9837
  0
VERTEX
  8
LAYER1
 62
     7
  6
CONTINUOUS
 10
51068.9092
 20
11487.1962
  0
VERTEX
  8
LAYER1
 62
     7
  6
CONTINUOUS
 10
51113.0558
 20
11641.6772
  0
VERTEX
  8
LAYER1
 62
     7
  6
CONTINUOUS
 10
51278.5770
 20
11873.4075
  0
VERTEX
  8
LAYER1
 62
     7
  6
CONTINUOUS
 10
51587.5556
 20
11961.6959
  0
VERTEX
  8
LAYER1
 62
     7
  6
CONTINUOUS
 10
51775.1405
 20
12038.9287
  0
VERTEX
  8
LAYER1
 62
     7
  6
CONTINUOUS
 10
51918.5979
 20
12160.3223
  0
VERTEX
  8
LAYER1
 62
     7
  6
CONTINUOUS
 10
52216.5399
 20
12314.8033
  0
SEQEND
  8
LAYER1
  0
POLYLINE
  8
LAYER1
 62
     7
 66
     1
  6
CONTINUOUS
  0
VERTEX
  8
LAYER1
 62
     7
  6
CONTINUOUS
 10
51002.7036
 20
9887.1487
  0
VERTEX
  8
LAYER1
 62
     7
  6
CONTINUOUS
 10
50947.5347
 20
10030.6061
  0
VERTEX
  8
LAYER1
 62
     7
  6
CONTINUOUS
 10
50980.6399
 20
10372.6887
  0
VERTEX
  8
LAYER1
 62
     7
  6
CONTINUOUS
 10
51035.8088
 20
10780.9649
  0
VERTEX
  8
LAYER1
 62
     7
  6
CONTINUOUS
 10
51046.8455
 20
11078.9045
  0
VERTEX
  8
LAYER1
 62
     7
  6
CONTINUOUS
 10
51079.9507
 20
11266.5061
  0
VERTEX
  8
LAYER1
 62
     7
  6
CONTINUOUS
 10
51068.9092
 20
11487.1962
  0
SEQEND
  8
LAYER1
  0
POLYLINE
  8
LAYER1
 62
     7
 66
     1
  6
CONTINUOUS
  0
VERTEX
  8
LAYER1
 62
     7
  6
CONTINUOUS
 10
39515.5062
 20
6411.1963
  0
VERTEX
  8
LAYER1
 62
     7
  6
CONTINUOUS
 10
39736.2130
 20
6653.9663
  0
VERTEX
  8
LAYER1
 62
     7
  6
CONTINUOUS
 10
40453.4667
 20
6554.6537
  0
VERTEX
  8
LAYER1
 62
     7
  6
CONTINUOUS
 10
41281.0773
 20
6356.0274
  0
VERTEX
  8
LAYER1
 62
     7
  6
CONTINUOUS
 10
42196.9573
 20
6135.3373
  0
VERTEX
  8
LAYER1
 62
     7
  6
CONTINUOUS
 10
42903.1886
 20
5991.8805
  0
VERTEX
  8
LAYER1
 62
     7
  6
CONTINUOUS
 10
43763.8996
 20
5958.7759
  0
VERTEX
  8
LAYER1
 62
     7
  6
CONTINUOUS
 10
44580.4641
 20
5980.8402
  0
VERTEX
  8
LAYER1
 62
     7
  6
CONTINUOUS
 10
45397.0476
 20
6036.0247
  0
VERTEX
  8
LAYER1
 62
     7
  6
CONTINUOUS
 10
46390.1794
 20
6190.5062
  0
VERTEX
  8
LAYER1
 62
     7
  6
CONTINUOUS
 10
47118.4744
 20
6389.1320
  0
VERTEX
  8
LAYER1
 62
     7
  6
CONTINUOUS
 10
47912.9751
 20
6609.8221
  0
VERTEX
  8
LAYER1
 62
     7
  6
CONTINUOUS
 10
48519.8813
 20
6808.4479
  0
VERTEX
  8
LAYER1
 62
     7
  6
CONTINUOUS
 10
49137.8384
 20
6973.9696
  0
VERTEX
  8
LAYER1
 62
     7
  6
CONTINUOUS
 10
49866.1335
 20
7249.8442
  0
VERTEX
  8
LAYER1
 62
     7
  6
CONTINUOUS
 10
50086.8236
 20
7360.1970
  0
VERTEX
  8
LAYER1
 62
     7
  6
CONTINUOUS
 10
50704.7617
 20
7669.1601
  0
SEQEND
  8
LAYER1
  0
POLYLINE
  8
LAYER1
 62
     7
 66
     1
  6
CONTINUOUS
  0
VERTEX
  8
LAYER1
 62
     7
  6
CONTINUOUS
 10
34825.7350
 20
28833.8557
  0
VERTEX
  8
LAYER1
 62
     7
  6
CONTINUOUS
 10
37650.6410
 20
28833.8557
  0
SEQEND
  8
LAYER1
  0
POLYLINE
  8
LAYER1
 62
     7
 66
     1
  6
CONTINUOUS
  0
VERTEX
  8
LAYER1
 62
     7
  6
CONTINUOUS
 10
37507.1836
 20
26042.0548
  0
VERTEX
  8
LAYER1
 62
     7
  6
CONTINUOUS
 10
37507.1836
 20
20601.9199
  0
SEQEND
  8
LAYER1
  0
POLYLINE
  8
LAYER1
 62
     7
 66
     1
  6
CONTINUOUS
  0
VERTEX
  8
LAYER1
 62
     7
  6
CONTINUOUS
 10
34825.7350
 20
29135.3717
  0
VERTEX
  8
LAYER1
 62
     7
  6
CONTINUOUS
 10
34825.7350
 20
28833.8557
  0
SEQEND
  8
LAYER1
  0
POLYLINE
  8
LAYER1
 62
     7
 66
     1
  6
CONTINUOUS
  0
VERTEX
  8
LAYER1
 62
     7
  6
CONTINUOUS
 10
37650.6410
 20
28833.8557
  0
VERTEX
  8
LAYER1
 62
     7
  6
CONTINUOUS
 10
34825.7350
 20
28833.8557
  0
SEQEND
  8
LAYER1
  0
POLYLINE
  8
LAYER1
 62
     7
 66
     1
  6
CONTINUOUS
  0
VERTEX
  8
LAYER1
 62
     7
  6
CONTINUOUS
 10
37507.1836
 20
20601.9199
  0
VERTEX
  8
LAYER1
 62
     7
  6
CONTINUOUS
 10
37507.1836
 20
26042.0548
  0
SEQEND
  8
LAYER1
  0
POLYLINE
  8
LAYER1
 62
     7
 66
     1
  6
CONTINUOUS
  0
VERTEX
  8
LAYER1
 62
     7
  6
CONTINUOUS
 10
37507.1836
 20
26042.0548
  0
VERTEX
  8
LAYER1
 62
     7
  6
CONTINUOUS
 10
37134.5728
 20
24966.8057
  0
SEQEND
  8
LAYER1
  0
POLYLINE
  8
LAYER1
 62
     7
 66
     1
  6
CONTINUOUS
  0
VERTEX
  8
LAYER1
 62
     7
  6
CONTINUOUS
 10
37650.6410
 20
28833.8557
  0
VERTEX
  8
LAYER1
 62
     7
  6
CONTINUOUS
 10
40475.5495
 20
28833.8557
  0
SEQEND
  8
LAYER1
  0
POLYLINE
  8
LAYER1
 62
     7
 66
     1
  6
CONTINUOUS
  0
VERTEX
  8
LAYER1
 62
     7
  6
CONTINUOUS
 10
40475.5495
 20
29135.3717
  0
VERTEX
  8
LAYER1
 62
     7
  6
CONTINUOUS
 10
40475.5495
 20
28833.8557
  0
SEQEND
  8
LAYER1
  0
ENDSEC
  0
EOF
