  0
SECTION
  2
HEADER
  9
$ACADVER
  1
AC1004
  9
$EXTMIN
 10
-1010.3530
 20
14656.0434
  9
$EXTMAX
 10
37594.7239
 20
41292.1140
  9
$LIMMIN
 10
-1010.3530
 20
14656.0434
  9
$LIMMAX
 10
37594.7239
 20
41292.1140
  9
$INSBASE
 10
0.0
 20
0.0
  9
$VIEWCTR
 10
7.21903
 20
4.5
  9
$VIEWSIZE
 40
9.0
  9
$SNAPMODE
 70
     0
  9
$SNAPUNIT
 10
1.0
 20
1.0
  9
$SNAPBASE
 10
0.0
 20
0.0
  9
$SNAPANG
 50
0.0
  9
$SNAPSTYLE
 70
     0
  9
$SNAPISOPAIR
 70
     0
  9
$GRIDMODE
 70
     0
  9
$GRIDUNIT
 10
0.0
 20
0.0
  9
$ORTHOMODE
 70
     0
  9
$REGENMODE
 70
     1
  9
$FILLMODE
 70
     1
  9
$QTEXTMODE
 70
     0
  9
$DRAGMODE
 70
     2
  9
$LTSCALE
 40
1.0
  9
$OSMODE
 70
     0
  9
$ATTMODE
 70
     1
  9
$TEXTSIZE
 40
0.2
  9
$TRACEWID
 40
0.05
  9
$TEXTSTYLE
  7
STANDARD
  9
$CLAYER
  8
0
  9
$CELTYPE
  6
BYLAYER
  9
$CECOLOR
 62
   256
  9
$DIMSCALE
 40
1.0
  9
$DIMASZ
 40
0.18
  9
$DIMEXO
 40
0.0625
  9
$DIMDLI
 40
0.38
  9
$DIMRND
 40
0.0
  9
$DIMDLE
 40
0.0
  9
$DIMEXE
 40
0.18
  9
$DIMTP
 40
0.0
  9
$DIMTM
 40
0.0
  9
$DIMTXT
 40
0.18
  9
$DIMCEN
 40
0.09
  9
$DIMTSZ
 40
0.0
  9
$DIMTOL
 70
     0
  9
$DIMLIM
 70
     0
  9
$DIMTIH
 70
     1
  9
$DIMTOH
 70
     1
  9
$DIMSE1
 70
     0
  9
$DIMSE2
 70
     0
  9
$DIMTAD
 70
     0
  9
$DIMZIN
 70
     0
  9
$DIMBLK
  1

  9
$DIMASO
 70
     1
  9
$DIMSHO
 70
     0
  9
$DIMPOST
  1

  9
$DIMAPOST
  1

  9
$DIMALT
 70
     0
  9
$DIMALTD
 70
     2
  9
$DIMALTF
 40
25.4
  9
$DIMLFAC
 40
1.0
  9
$LUNITS
 70
     2
  9
$LUPREC
 70
     4
  9
$AXISMODE
 70
     0
  9
$AXISUNIT
 10
0.0
 20
0.0
  9
$SKETCHINC
 40
0.1
  9
$FILLETRAD
 40
0.0
  9
$AUNITS
 70
     0
  9
$AUPREC
 70
     0
  9
$MENU
  1
acad
  9
$ELEVATION
 40
0.0
  9
$THICKNESS
 40
0.0
  9
$VIEWDIR
 10
0.0
 20
0.0
 30
1.0
  9
$LIMCHECK
 70
     0
  9
$BLIPMODE
 70
     1
  9
$CHAMFERA
 40
0.0
  9
$CHAMFERB
 40
0.0
  9
$FASTZOOM
 70
     1
  9
$SKPOLY
 70
     0
  9
$TDCREATE
 40
2447222.5666886573
  9
$TDUPDATE
 40
2447222.5666886573
  9
$TDINDWG
 40
0.0000000000
  9
$TDUSRTIMER
 40
0.0000000000
  9
$USRTIMER
 70
     1
  9
$ANGBASE
 50
0.0
  9
$ANGDIR
 70
     0
  9
$PDMODE
 70
     0
  9
$PDSIZE
 40
0.0
  9
$PLINEWID
 40
0.0
  9
$COORDS
 70
     0
  9
$SPLFRAME
 70
     0
  9
$SPLINESEGS
 70
     8
  9
$ATTDIA
 70
     0
  9
$ATTREQ
 70
     1
  9
$USERI1
 70
     0
  9
$USERI2
 70
     0
  9
$USERI3
 70
     0
  9
$USERI4
 70
     0
  9
$USERI5
 70
     0
  9
$USERR1
 40
0.0
  9
$USERR2
 40
0.0
  9
$USERR3
 40
0.0
  9
$USERR4
 40
0.0
  9
$USERR5
 40
0.0
  0
ENDSEC
  0
SECTION
  2
TABLES
  0
TABLE
  2
LTYPE
 70
     13
  0
LTYPE
  2
CONTINUOUS
 70
    64
  3
Solid line
 72
    65
 73
     0
 40
0.0
  0
LTYPE
  2
DASHED
 70
    64
  3
__ __ __ __ __ __ __ __ __ __ __ __ __ __ __
 72
    65
 73
     2
 40
0.75
 49
0.5
 49
-0.25
  0
LTYPE
  2
HIDDEN
 70
    64
  3
_ _ _ _ _ _ _ _ _ _ _ _ _ _ _ _ _ _ _ _ _ _ _
 72
    65
 73
     2
 40
0.375
 49
0.25
 49
-0.125
  0
LTYPE
  2
CENTER
 70
    64
  3
____ _ ____ _ ____ _ ____ _ ____ _ ____ _ ____
 72
    65
 73
     4
 40
2.0
 49
1.25
 49
-0.25
 49
0.25
 49
-0.25
  0
LTYPE
  2
PHANTOM
 70
    64
  3
_____ _ _ _____ _ _ _____ _ _ _____ _ _ ____
 72
    65
 73
     6
 40
2.5
 49
1.25
 49
-0.25
 49
0.25
 49
-0.25
 49
0.25
 49
-0.25
  0
LTYPE
  2
DOT
 70
    64
  3
...............................................
 72
    65
 73
     2
 40
0.25
 49
0.0
 49
-0.25
  0
LTYPE
  2
DASHDOT
 70
    64
  3
__ . __ . __ . __ . __ . __ . __ . __ . __ . __
 72
    65
 73
     4
 40
1.0
 49
0.5
 49
-0.25
 49
0.0
 49
-0.25
  0
LTYPE
  2
BORDER
 70
    64
  3
__ __ . __ __ . __ __ . __ __ . __ __ . __ __
 72
    65
 73
     6
 40
1.75
 49
0.5
 49
-0.25
 49
0.5
 49
-0.25
 49
0.0
 49
-0.25
  0
LTYPE
  2
DIVIDE
 70
    64
  3
__ . . __ . . __ . . __ . . __ . . __ . . __
 72
    65
 73
     6
 40
1.25
 49
0.5
 49
-0.25
 49
0.0
 49
-0.25
 49
0.0
 49
-0.25
  0
LTYPE
  2
DCTYPE1
 70
    64
  3
__ . . __ . . __ . . __ . . __ . . __ . . __
 72
    65
 73
     8
 40
2.5
 49
0.5
 49
-0.25
 49
0.125
 49
-0.25
 49
0.25
 49
-0.25
 49
0.125
 49
-0.25
  0
LTYPE
  2
DCTYPE2
 70
    64
  3
__ . . __ . . __ . . __ . . __ . . __ . . __
 72
    65
 73
     6
 40
2.05
 49
1.0
 49
-0.3
 49
0.15
 49
-0.15
 49
0.15
 49
-0.3
  0
LTYPE
  2
DCTYPE3
 70
    64
  3
__ . . __ . . __ . . __ . . __ . . __ . . __
 72
    65
 73
     6
 40
2.5
 49
0.8
 49
-0.2
 49
0.8
 49
-0.2
 49
0.3
 49
-0.2
  0
LTYPE
  2
DCTYPE4
 70
    64
  3
__ . . __ . . __ . . __ . . __ . . __ . . __
 72
    65
 73
     10
 40
3.97
 49
1.75
 49
-0.3
 49
0.3
 49
-0.3
 49
0.06
 49
-0.3
 49
0.06
 49
-0.3
 49
0.3
 49
-0.3
  0
ENDTAB
  0
TABLE
  2
LAYER
 70
    153
  0
LAYER
  2
LAYER1
 70
 64
 62
     7
  6
CONTINUOUS
  0
ENDTAB
  0
ENDSEC
  0
SECTION
  2
BLOCKS
  0
ENDSEC
  0
SECTION
  2
ENTITIES
  0
POLYLINE
  8
LAYER1
 62
     7
 66
     1
  6
CONTINUOUS
  0
VERTEX
  8
LAYER1
 62
     7
  6
CONTINUOUS
 10
17732.8708
 20
40983.1354
  0
VERTEX
  8
LAYER1
 62
     7
  6
CONTINUOUS
 10
17490.1157
 20
40927.9664
  0
VERTEX
  8
LAYER1
 62
     7
  6
CONTINUOUS
 10
16750.7816
 20
40773.4724
  0
VERTEX
  8
LAYER1
 62
     7
  6
CONTINUOUS
 10
16309.3847
 20
40607.9512
  0
VERTEX
  8
LAYER1
 62
     7
  6
CONTINUOUS
 10
15768.6912
 20
40420.3615
  0
VERTEX
  8
LAYER1
 62
     7
  6
CONTINUOUS
 10
15250.0473
 20
40332.0921
  0
VERTEX
  8
LAYER1
 62
     7
  6
CONTINUOUS
 10
14610.0406
 20
40166.5709
  0
VERTEX
  8
LAYER1
 62
     7
  6
CONTINUOUS
 10
14168.6449
 20
39967.9422
  0
VERTEX
  8
LAYER1
 62
     7
  6
CONTINUOUS
 10
13550.7032
 20
39581.7142
  0
VERTEX
  8
LAYER1
 62
     7
  6
CONTINUOUS
 10
12910.6811
 20
39052.0455
  0
VERTEX
  8
LAYER1
 62
     7
  6
CONTINUOUS
 10
12270.6590
 20
38445.1417
  0
VERTEX
  8
LAYER1
 62
     7
  6
CONTINUOUS
 10
11785.1346
 20
37805.1232
  0
VERTEX
  8
LAYER1
 62
     7
  6
CONTINUOUS
 10
11498.2352
 20
36966.4759
  0
VERTEX
  8
LAYER1
 62
     7
  6
CONTINUOUS
 10
11288.5698
 20
36171.9705
  0
VERTEX
  8
LAYER1
 62
     7
  6
CONTINUOUS
 10
11145.1124
 20
35620.2380
  0
VERTEX
  8
LAYER1
 62
     7
  6
CONTINUOUS
 10
11067.8797
 20
34891.9429
  0
VERTEX
  8
LAYER1
 62
     7
  6
CONTINUOUS
 10
11167.1929
 20
34042.2709
  0
VERTEX
  8
LAYER1
 62
     7
  6
CONTINUOUS
 10
11277.5296
 20
33380.1839
  0
VERTEX
  8
LAYER1
 62
     7
  6
CONTINUOUS
 10
11454.0910
 20
32729.1239
  0
VERTEX
  8
LAYER1
 62
     7
  6
CONTINUOUS
 10
11807.1983
 20
32000.8289
  0
VERTEX
  8
LAYER1
 62
     7
  6
CONTINUOUS
 10
12160.3223
 20
31438.0550
  0
VERTEX
  8
LAYER1
 62
     7
  6
CONTINUOUS
 10
12535.4934
 20
30831.1535
  0
VERTEX
  8
LAYER1
 62
     7
  6
CONTINUOUS
 10
12976.8891
 20
30312.5096
  0
VERTEX
  8
LAYER1
 62
     7
  6
CONTINUOUS
 10
14003.1237
 20
29440.7714
  0
VERTEX
  8
LAYER1
 62
     7
  6
CONTINUOUS
 10
14610.0406
 20
29131.7928
  0
VERTEX
  8
LAYER1
 62
     7
  6
CONTINUOUS
 10
15514.8816
 20
28767.6453
  0
VERTEX
  8
LAYER1
 62
     7
  6
CONTINUOUS
 10
16287.3209
 20
28580.0604
  0
VERTEX
  8
LAYER1
 62
     7
  6
CONTINUOUS
 10
17048.7199
 20
28414.5392
  0
VERTEX
  8
LAYER1
 62
     7
  6
CONTINUOUS
 10
17666.6616
 20
28226.9376
  0
VERTEX
  8
LAYER1
 62
     7
  6
CONTINUOUS
 10
18472.2049
 20
28171.7686
  0
VERTEX
  8
LAYER1
 62
     7
  6
CONTINUOUS
 10
18979.8098
 20
28237.9766
  0
VERTEX
  8
LAYER1
 62
     7
  6
CONTINUOUS
 10
19321.8769
 20
28370.3950
  0
VERTEX
  8
LAYER1
 62
     7
  6
CONTINUOUS
 10
19840.5232
 20
28657.2931
  0
VERTEX
  8
LAYER1
 62
     7
  6
CONTINUOUS
 10
20458.4649
 20
29032.4797
  0
VERTEX
  8
LAYER1
 62
     7
  6
CONTINUOUS
 10
21286.0707
 20
29694.5667
  0
VERTEX
  8
LAYER1
 62
     7
  6
CONTINUOUS
 10
21881.9498
 20
30169.0665
  0
VERTEX
  8
LAYER1
 62
     7
  6
CONTINUOUS
 10
22323.3444
 20
30511.1336
  0
VERTEX
  8
LAYER1
 62
     7
  6
CONTINUOUS
 10
22908.1820
 20
31129.0907
  0
VERTEX
  8
LAYER1
 62
     7
  6
CONTINUOUS
 10
23195.0825
 20
31460.1354
  0
VERTEX
  8
LAYER1
 62
     7
  6
CONTINUOUS
 10
23548.2053
 20
31967.7237
  0
VERTEX
  8
LAYER1
 62
     7
  6
CONTINUOUS
 10
23824.0644
 20
32497.3924
  0
VERTEX
  8
LAYER1
 62
     7
  6
CONTINUOUS
 10
24099.9378
 20
33192.5846
  0
VERTEX
  8
LAYER1
 62
     7
  6
CONTINUOUS
 10
24188.2119
 20
33931.9187
  0
VERTEX
  8
LAYER1
 62
     7
  6
CONTINUOUS
 10
24243.3952
 20
34439.5237
  0
VERTEX
  8
LAYER1
 62
     7
  6
CONTINUOUS
 10
24232.3562
 20
34969.1924
  0
VERTEX
  8
LAYER1
 62
     7
  6
CONTINUOUS
 10
24199.2510
 20
35609.1990
  0
VERTEX
  8
LAYER1
 62
     7
  6
CONTINUOUS
 10
24099.9378
 20
36149.9067
  0
VERTEX
  8
LAYER1
 62
     7
  6
CONTINUOUS
 10
23735.7903
 20
36889.2408
  0
VERTEX
  8
LAYER1
 62
     7
  6
CONTINUOUS
 10
23448.8922
 20
37297.5183
  0
VERTEX
  8
LAYER1
 62
     7
  6
CONTINUOUS
 10
22897.1430
 20
38014.7886
  0
VERTEX
  8
LAYER1
 62
     7
  6
CONTINUOUS
 10
22124.7204
 20
38842.3968
  0
VERTEX
  8
LAYER1
 62
     7
  6
CONTINUOUS
 10
21043.3025
 20
39791.3820
  0
VERTEX
  8
LAYER1
 62
     7
  6
CONTINUOUS
 10
20590.8809
 20
40067.2554
  0
VERTEX
  8
LAYER1
 62
     7
  6
CONTINUOUS
 10
19895.6922
 20
40453.4667
  0
VERTEX
  8
LAYER1
 62
     7
  6
CONTINUOUS
 10
19531.5447
 20
40607.9512
  0
VERTEX
  8
LAYER1
 62
     7
  6
CONTINUOUS
 10
18891.5214
 20
40872.7832
  0
VERTEX
  8
LAYER1
 62
     7
  6
CONTINUOUS
 10
18439.1009
 20
40972.0987
  0
VERTEX
  8
LAYER1
 62
     7
  6
CONTINUOUS
 10
17732.8708
 20
40983.1354
  0
SEQEND
  8
LAYER1
  0
POLYLINE
  8
LAYER1
 62
     3
 66
     1
  6
CONTINUOUS
  0
VERTEX
  8
LAYER1
 62
     3
  6
CONTINUOUS
 10
17710.8058
 20
41292.1140
  0
VERTEX
  8
LAYER1
 62
     3
  6
CONTINUOUS
 10
17710.8058
 20
40585.8827
  0
SEQEND
  8
LAYER1
  0
POLYLINE
  8
LAYER1
 62
     3
 66
     1
  6
CONTINUOUS
  0
VERTEX
  8
LAYER1
 62
     3
  6
CONTINUOUS
 10
17710.8058
 20
28855.9195
  0
VERTEX
  8
LAYER1
 62
     3
  6
CONTINUOUS
 10
17710.8058
 20
27851.7653
  0
SEQEND
  8
LAYER1
  0
POLYLINE
  8
LAYER1
 62
     3
 66
     1
  6
CONTINUOUS
  0
VERTEX
  8
LAYER1
 62
     3
  6
CONTINUOUS
 10
10968.5665
 20
35289.1957
  0
VERTEX
  8
LAYER1
 62
     3
  6
CONTINUOUS
 10
11696.8616
 20
35289.1957
  0
SEQEND
  8
LAYER1
  0
POLYLINE
  8
LAYER1
 62
     3
 66
     1
  6
CONTINUOUS
  0
VERTEX
  8
LAYER1
 62
     3
  6
CONTINUOUS
 10
23824.0644
 20
35289.1957
  0
VERTEX
  8
LAYER1
 62
     3
  6
CONTINUOUS
 10
24486.1491
 20
35289.1957
  0
SEQEND
  8
LAYER1
  0
POLYLINE
  8
LAYER1
 62
     7
 66
     1
  6
CONTINUOUS
  0
VERTEX
  8
LAYER1
 62
     7
  6
CONTINUOUS
 10
21043.3025
 20
39791.3820
  0
VERTEX
  8
LAYER1
 62
     7
  6
CONTINUOUS
 10
20756.4020
 20
39835.5262
  0
VERTEX
  8
LAYER1
 62
     7
  6
CONTINUOUS
 10
20193.6305
 20
40078.2777
  0
VERTEX
  8
LAYER1
 62
     7
  6
CONTINUOUS
 10
19443.2705
 20
40298.9869
  0
VERTEX
  8
LAYER1
 62
     7
  6
CONTINUOUS
 10
19068.0840
 20
40387.2611
  0
VERTEX
  8
LAYER1
 62
     7
  6
CONTINUOUS
 10
18339.7877
 20
40453.4667
  0
VERTEX
  8
LAYER1
 62
     7
  6
CONTINUOUS
 10
17699.7656
 20
40409.3248
  0
VERTEX
  8
LAYER1
 62
     7
  6
CONTINUOUS
 10
17148.0331
 20
40365.1925
  0
VERTEX
  8
LAYER1
 62
     7
  6
CONTINUOUS
 10
16618.3644
 20
40276.9041
  0
VERTEX
  8
LAYER1
 62
     7
  6
CONTINUOUS
 10
15879.0291
 20
40078.2777
  0
VERTEX
  8
LAYER1
 62
     7
  6
CONTINUOUS
 10
15525.9218
 20
40023.1135
  0
VERTEX
  8
LAYER1
 62
     7
  6
CONTINUOUS
 10
14974.1882
 20
39945.8618
  0
VERTEX
  8
LAYER1
 62
     7
  6
CONTINUOUS
 10
14411.4155
 20
39802.4210
  0
VERTEX
  8
LAYER1
 62
     7
  6
CONTINUOUS
 10
13881.7456
 20
39581.7142
  0
VERTEX
  8
LAYER1
 62
     7
  6
CONTINUOUS
 10
13352.0769
 20
39261.7133
  0
VERTEX
  8
LAYER1
 62
     7
  6
CONTINUOUS
 10
12789.3042
 20
38853.4216
  0
VERTEX
  8
LAYER1
 62
     7
  6
CONTINUOUS
 10
12447.2204
 20
38555.4820
  0
VERTEX
  8
LAYER1
 62
     7
  6
CONTINUOUS
 10
12094.1131
 20
38069.9575
  0
VERTEX
  8
LAYER1
 62
     7
  6
CONTINUOUS
 10
11840.3035
 20
37518.2227
  0
VERTEX
  8
LAYER1
 62
     7
  6
CONTINUOUS
 10
11707.8863
 20
36834.0575
  0
VERTEX
  8
LAYER1
 62
     7
  6
CONTINUOUS
 10
11674.7811
 20
36171.9705
  0
VERTEX
  8
LAYER1
 62
     7
  6
CONTINUOUS
 10
11729.9656
 20
35399.5479
  0
VERTEX
  8
LAYER1
 62
     7
  6
CONTINUOUS
 10
11818.2385
 20
34671.2528
  0
VERTEX
  8
LAYER1
 62
     7
  6
CONTINUOUS
 10
11994.7999
 20
33799.5004
  0
VERTEX
  8
LAYER1
 62
     7
  6
CONTINUOUS
 10
12138.2419
 20
33302.9368
  0
VERTEX
  8
LAYER1
 62
     7
  6
CONTINUOUS
 10
12325.8435
 20
32817.4124
  0
VERTEX
  8
LAYER1
 62
     7
  6
CONTINUOUS
 10
12678.9508
 20
32122.2201
  0
VERTEX
  8
LAYER1
 62
     7
  6
CONTINUOUS
 10
13065.1621
 20
31603.5761
  0
VERTEX
  8
LAYER1
 62
     7
  6
CONTINUOUS
 10
13705.1842
 20
30820.1121
  0
VERTEX
  8
LAYER1
 62
     7
  6
CONTINUOUS
 10
14113.4759
 20
30433.9008
  0
VERTEX
  8
LAYER1
 62
     7
  6
CONTINUOUS
 10
14610.0406
 20
30180.0912
  0
VERTEX
  8
LAYER1
 62
     7
  6
CONTINUOUS
 10
14963.1479
 20
30025.6091
  0
VERTEX
  8
LAYER1
 62
     7
  6
CONTINUOUS
 10
15746.6120
 20
29838.0241
  0
VERTEX
  8
LAYER1
 62
     7
  6
CONTINUOUS
 10
16430.7783
 20
29727.6719
  0
VERTEX
  8
LAYER1
 62
     7
  6
CONTINUOUS
 10
17247.3463
 20
29650.4225
  0
VERTEX
  8
LAYER1
 62
     7
  6
CONTINUOUS
 10
18273.5797
 20
29672.5030
  0
VERTEX
  8
LAYER1
 62
     7
  6
CONTINUOUS
 10
19046.0202
 20
29793.8799
  0
VERTEX
  8
LAYER1
 62
     7
  6
CONTINUOUS
 10
19476.3757
 20
29937.3373
  0
VERTEX
  8
LAYER1
 62
     7
  6
CONTINUOUS
 10
20436.3987
 20
30334.5876
  0
VERTEX
  8
LAYER1
 62
     7
  6
CONTINUOUS
 10
21087.4468
 20
30687.6961
  0
VERTEX
  8
LAYER1
 62
     7
  6
CONTINUOUS
 10
21705.3872
 20
31151.1569
  0
VERTEX
  8
LAYER1
 62
     7
  6
CONTINUOUS
 10
22168.8479
 20
31559.4486
  0
VERTEX
  8
LAYER1
 62
     7
  6
CONTINUOUS
 10
22698.5166
 20
32111.1811
  0
VERTEX
  8
LAYER1
 62
     7
  6
CONTINUOUS
 10
22919.2235
 20
32563.6004
  0
VERTEX
  8
LAYER1
 62
     7
  6
CONTINUOUS
 10
23217.1606
 20
33159.4794
  0
VERTEX
  8
LAYER1
 62
     7
  6
CONTINUOUS
 10
23382.6842
 20
33733.2924
  0
VERTEX
  8
LAYER1
 62
     7
  6
CONTINUOUS
 10
23459.9169
 20
34318.1300
  0
VERTEX
  8
LAYER1
 62
     7
  6
CONTINUOUS
 10
23493.0197
 20
34814.6935
  0
VERTEX
  8
LAYER1
 62
     7
  6
CONTINUOUS
 10
23459.9169
 20
35531.9662
  0
VERTEX
  8
LAYER1
 62
     7
  6
CONTINUOUS
 10
23459.9169
 20
36050.5935
  0
VERTEX
  8
LAYER1
 62
     7
  6
CONTINUOUS
 10
23448.8922
 20
36778.8886
  0
VERTEX
  8
LAYER1
 62
     7
  6
CONTINUOUS
 10
23393.7065
 20
37032.6839
  0
VERTEX
  8
LAYER1
 62
     7
  6
CONTINUOUS
 10
23448.8922
 20
37297.5183
  0
SEQEND
  8
LAYER1
  0
POLYLINE
  8
LAYER1
 62
     7
 66
     1
  6
DASHED
  0
VERTEX
  8
LAYER1
 62
     7
  6
DASHED
 10
23448.8922
 20
37297.5183
  0
VERTEX
  8
LAYER1
 62
     7
  6
DASHED
 10
23371.6427
 20
37661.6658
  0
VERTEX
  8
LAYER1
 62
     7
  6
DASHED
 10
23150.9526
 20
38103.0603
  0
VERTEX
  8
LAYER1
 62
     7
  6
DASHED
 10
22941.2872
 20
38500.3131
  0
VERTEX
  8
LAYER1
 62
     7
  6
DASHED
 10
22257.1364
 20
39239.6471
  0
VERTEX
  8
LAYER1
 62
     7
  6
DASHED
 10
21892.9889
 20
39537.5867
  0
VERTEX
  8
LAYER1
 62
     7
  6
DASHED
 10
21451.5943
 20
39758.2768
  0
VERTEX
  8
LAYER1
 62
     7
  6
DASHED
 10
21043.3025
 20
39791.3820
  0
SEQEND
  8
LAYER1
  0
POLYLINE
  8
LAYER1
 62
     7
 66
     1
  6
CONTINUOUS
  0
VERTEX
  8
LAYER1
 62
     7
  6
CONTINUOUS
 10
5362.8986
 20
27564.8505
  0
VERTEX
  8
LAYER1
 62
     7
  6
CONTINUOUS
 10
8110.5559
 20
27564.8505
  0
SEQEND
  8
LAYER1
  0
POLYLINE
  8
LAYER1
 62
     7
 66
     1
  6
CONTINUOUS
  0
VERTEX
  8
LAYER1
 62
     7
  6
CONTINUOUS
 10
28683.6052
 20
33488.5227
  0
VERTEX
  8
LAYER1
 62
     7
  6
CONTINUOUS
 10
28683.6052
 20
28092.5201
  0
SEQEND
  8
LAYER1
  0
POLYLINE
  8
LAYER1
 62
     7
 66
     1
  6
CONTINUOUS
  0
VERTEX
  8
LAYER1
 62
     7
  6
CONTINUOUS
 10
-1010.3530
 20
21339.9602
  0
VERTEX
  8
LAYER1
 62
     7
  6
CONTINUOUS
 10
-944.1443
 20
21362.0240
  0
VERTEX
  8
LAYER1
 62
     7
  6
CONTINUOUS
 10
-480.6840
 20
21339.9602
  0
VERTEX
  8
LAYER1
 62
     7
  6
CONTINUOUS
 10
148.2979
 20
21373.0630
  0
VERTEX
  8
LAYER1
 62
     7
  6
CONTINUOUS
 10
799.3442
 20
21428.2177
  0
VERTEX
  8
LAYER1
 62
     7
  6
CONTINUOUS
 10
1483.4946
 20
21516.5061
  0
VERTEX
  8
LAYER1
 62
     7
  6
CONTINUOUS
 10
2300.0781
 20
21615.8193
  0
VERTEX
  8
LAYER1
 62
     7
  6
CONTINUOUS
 10
3127.6858
 20
21693.0520
  0
VERTEX
  8
LAYER1
 62
     7
  6
CONTINUOUS
 10
3668.3792
 20
21715.1325
  0
VERTEX
  8
LAYER1
 62
     7
  6
CONTINUOUS
 10
4187.0238
 20
21748.2353
  0
VERTEX
  8
LAYER1
 62
     7
  6
CONTINUOUS
 10
5003.5915
 20
21814.4456
  0
VERTEX
  8
LAYER1
 62
     7
  6
CONTINUOUS
 10
5941.5525
 20
21858.5899
  0
VERTEX
  8
LAYER1
 62
     7
  6
CONTINUOUS
 10
6813.2889
 20
21924.7979
  0
VERTEX
  8
LAYER1
 62
     7
  6
CONTINUOUS
 10
7607.7920
 20
21979.9668
  0
VERTEX
  8
LAYER1
 62
     7
  6
CONTINUOUS
 10
8314.0227
 20
21913.7564
  0
VERTEX
  8
LAYER1
 62
     7
  6
CONTINUOUS
 10
9119.5665
 20
21880.6536
  0
VERTEX
  8
LAYER1
 62
     7
  6
CONTINUOUS
 10
9836.8214
 20
21891.6927
  0
VERTEX
  8
LAYER1
 62
     7
  6
CONTINUOUS
 10
10432.6981
 20
21946.8616
  0
VERTEX
  8
LAYER1
 62
     7
  6
CONTINUOUS
 10
11238.2425
 20
21979.9668
  0
VERTEX
  8
LAYER1
 62
     7
  6
CONTINUOUS
 10
12043.7703
 20
21957.9007
  0
VERTEX
  8
LAYER1
 62
     7
  6
CONTINUOUS
 10
12761.0406
 20
21924.7979
  0
VERTEX
  8
LAYER1
 62
     7
  6
CONTINUOUS
 10
13456.2305
 20
21924.7979
  0
VERTEX
  8
LAYER1
 62
     7
  6
CONTINUOUS
 10
14063.1486
 20
21946.8616
  0
VERTEX
  8
LAYER1
 62
     7
  6
CONTINUOUS
 10
14581.7771
 20
21979.9668
  0
VERTEX
  8
LAYER1
 62
     7
  6
CONTINUOUS
 10
14934.8844
 20
21991.0058
  0
SEQEND
  8
LAYER1
  0
POLYLINE
  8
LAYER1
 62
     7
 66
     1
  6
CONTINUOUS
  0
VERTEX
  8
LAYER1
 62
     7
  6
CONTINUOUS
 10
-480.6840
 20
21339.9602
  0
VERTEX
  8
LAYER1
 62
     7
  6
CONTINUOUS
 10
61.3679
 20
21119.2534
  0
VERTEX
  8
LAYER1
 62
     7
  6
CONTINUOUS
 10
17.2236
 20
20766.1473
  0
VERTEX
  8
LAYER1
 62
     7
  6
CONTINUOUS
 10
15.8807
 20
20302.6866
  0
VERTEX
  8
LAYER1
 62
     7
  6
CONTINUOUS
 10
71.0493
 20
19784.0569
  0
VERTEX
  8
LAYER1
 62
     7
  6
CONTINUOUS
 10
137.2580
 20
19254.3882
  0
VERTEX
  8
LAYER1
 62
     7
  6
CONTINUOUS
 10
137.2580
 20
18647.4713
  0
VERTEX
  8
LAYER1
 62
     7
  6
CONTINUOUS
 10
192.4267
 20
18106.7624
  0
VERTEX
  8
LAYER1
 62
     7
  6
CONTINUOUS
 10
247.6108
 20
17577.0925
  0
VERTEX
  8
LAYER1
 62
     7
  6
CONTINUOUS
 10
291.7395
 20
16870.8779
  0
VERTEX
  8
LAYER1
 62
     7
  6
CONTINUOUS
 10
424.1567
 20
16341.1937
  0
VERTEX
  8
LAYER1
 62
     7
  6
CONTINUOUS
 10
490.3654
 20
15800.5002
  0
VERTEX
  8
LAYER1
 62
     7
  6
CONTINUOUS
 10
534.5097
 20
15359.0878
  0
VERTEX
  8
LAYER1
 62
     7
  6
CONTINUOUS
 10
567.6140
 20
15094.2689
  0
VERTEX
  8
LAYER1
 62
     7
  6
CONTINUOUS
 10
788.3042
 20
14829.4346
  0
VERTEX
  8
LAYER1
 62
     7
  6
CONTINUOUS
 10
1218.6602
 20
14774.2513
  0
VERTEX
  8
LAYER1
 62
     7
  6
CONTINUOUS
 10
2013.1636
 20
14785.3059
  0
VERTEX
  8
LAYER1
 62
     7
  6
CONTINUOUS
 10
2631.1214
 20
14840.4748
  0
VERTEX
  8
LAYER1
 62
     7
  6
CONTINUOUS
 10
3326.3118
 20
14884.6190
  0
VERTEX
  8
LAYER1
 62
     7
  6
CONTINUOUS
 10
4098.7353
 20
14884.6190
  0
VERTEX
  8
LAYER1
 62
     7
  6
CONTINUOUS
 10
5003.5915
 20
14862.5398
  0
VERTEX
  8
LAYER1
 62
     7
  6
CONTINUOUS
 10
5787.0549
 20
14895.6438
  0
VERTEX
  8
LAYER1
 62
     7
  6
CONTINUOUS
 10
6504.3258
 20
14917.7230
  0
VERTEX
  8
LAYER1
 62
     7
  6
CONTINUOUS
 10
7331.9335
 20
14917.7230
  0
VERTEX
  8
LAYER1
 62
     7
  6
CONTINUOUS
 10
8126.4365
 20
14917.7230
  0
VERTEX
  8
LAYER1
 62
     7
  6
CONTINUOUS
 10
8766.4431
 20
14950.8282
  0
VERTEX
  8
LAYER1
 62
     7
  6
CONTINUOUS
 10
9693.3640
 20
14950.8282
  0
VERTEX
  8
LAYER1
 62
     7
  6
CONTINUOUS
 10
10487.8670
 20
14961.8518
  0
VERTEX
  8
LAYER1
 62
     7
  6
CONTINUOUS
 10
11083.7449
 20
15005.9960
  0
VERTEX
  8
LAYER1
 62
     7
  6
CONTINUOUS
 10
11712.7268
 20
15039.0857
  0
VERTEX
  8
LAYER1
 62
     7
  6
CONTINUOUS
 10
11977.5611
 20
15138.4143
  0
VERTEX
  8
LAYER1
 62
     7
  6
CONTINUOUS
 10
12275.4995
 20
15712.2118
  0
VERTEX
  8
LAYER1
 62
     7
  6
CONTINUOUS
 10
12374.8127
 20
16142.5828
  0
VERTEX
  8
LAYER1
 62
     7
  6
CONTINUOUS
 10
12319.6437
 20
16661.1970
  0
VERTEX
  8
LAYER1
 62
     7
  6
CONTINUOUS
 10
12253.4357
 20
17290.1789
  0
VERTEX
  8
LAYER1
 62
     7
  6
CONTINUOUS
 10
12275.4995
 20
17897.1113
  0
VERTEX
  8
LAYER1
 62
     7
  6
CONTINUOUS
 10
12418.9569
 20
18503.9984
  0
VERTEX
  8
LAYER1
 62
     7
  6
CONTINUOUS
 10
12518.2701
 20
18934.3694
  0
VERTEX
  8
LAYER1
 62
     7
  6
CONTINUOUS
 10
12518.2701
 20
19453.0146
  0
VERTEX
  8
LAYER1
 62
     7
  6
CONTINUOUS
 10
12672.7522
 20
19861.2908
  0
VERTEX
  8
LAYER1
 62
     7
  6
CONTINUOUS
 10
12794.1446
 20
20379.9360
  0
VERTEX
  8
LAYER1
 62
     7
  6
CONTINUOUS
 10
12838.2734
 20
20710.9783
  0
VERTEX
  8
LAYER1
 62
     7
  6
CONTINUOUS
 10
12849.3136
 20
21240.6470
  0
VERTEX
  8
LAYER1
 62
     7
  6
CONTINUOUS
 10
12882.4176
 20
21472.3619
  0
VERTEX
  8
LAYER1
 62
     7
  6
CONTINUOUS
 10
12761.0406
 20
21924.7979
  0
SEQEND
  8
LAYER1
  0
POLYLINE
  8
LAYER1
 62
     7
 66
     1
  6
CONTINUOUS
  0
VERTEX
  8
LAYER1
 62
     7
  6
CONTINUOUS
 10
22642.6138
 20
21806.5756
  0
VERTEX
  8
LAYER1
 62
     7
  6
CONTINUOUS
 10
23028.8251
 20
21828.6394
  0
VERTEX
  8
LAYER1
 62
     7
  6
CONTINUOUS
 10
23481.2468
 20
21817.6146
  0
VERTEX
  8
LAYER1
 62
     7
  6
CONTINUOUS
 10
24066.0987
 20
21773.4704
  0
VERTEX
  8
LAYER1
 62
     7
  6
CONTINUOUS
 10
24661.9778
 20
21762.4457
  0
VERTEX
  8
LAYER1
 62
     7
  6
CONTINUOUS
 10
25158.5413
 20
21773.4704
  0
VERTEX
  8
LAYER1
 62
     7
  6
CONTINUOUS
 10
26019.2548
 20
21729.3262
  0
VERTEX
  8
LAYER1
 62
     7
  6
CONTINUOUS
 10
26769.6136
 20
21696.2377
  0
VERTEX
  8
LAYER1
 62
     7
  6
CONTINUOUS
 10
27486.8672
 20
21696.2377
  0
VERTEX
  8
LAYER1
 62
     7
  6
CONTINUOUS
 10
28303.4507
 20
21663.1325
  0
VERTEX
  8
LAYER1
 62
     7
  6
CONTINUOUS
 10
29153.1227
 20
21630.0130
  0
VERTEX
  8
LAYER1
 62
     7
  6
CONTINUOUS
 10
29737.9604
 20
21618.9883
  0
VERTEX
  8
LAYER1
 62
     7
  6
CONTINUOUS
 10
30422.1279
 20
21652.0935
  0
VERTEX
  8
LAYER1
 62
     7
  6
CONTINUOUS
 10
30841.4444
 20
21718.3014
  0
VERTEX
  8
LAYER1
 62
     7
  6
CONTINUOUS
 10
31558.6981
 20
21652.0935
  0
VERTEX
  8
LAYER1
 62
     7
  6
CONTINUOUS
 10
32364.2425
 20
21552.7803
  0
VERTEX
  8
LAYER1
 62
     7
  6
CONTINUOUS
 10
33213.9145
 20
21442.4281
  0
VERTEX
  8
LAYER1
 62
     7
  6
CONTINUOUS
 10
34019.4566
 20
21376.2034
  0
VERTEX
  8
LAYER1
 62
     7
  6
CONTINUOUS
 10
34747.7517
 20
21332.0901
  0
VERTEX
  8
LAYER1
 62
     7
  6
CONTINUOUS
 10
35542.2547
 20
21276.8902
  0
VERTEX
  8
LAYER1
 62
     7
  6
CONTINUOUS
 10
36248.4860
 20
21243.8017
  0
VERTEX
  8
LAYER1
 62
     7
  6
CONTINUOUS
 10
36877.4679
 20
21221.7379
  0
VERTEX
  8
LAYER1
 62
     7
  6
CONTINUOUS
 10
37329.8872
 20
21221.7379
  0
VERTEX
  8
LAYER1
 62
     7
  6
CONTINUOUS
 10
37594.7239
 20
21232.7770
  0
SEQEND
  8
LAYER1
  0
POLYLINE
  8
LAYER1
 62
     7
 66
     1
  6
CONTINUOUS
  0
VERTEX
  8
LAYER1
 62
     7
  6
CONTINUOUS
 10
36248.4860
 20
21243.8017
  0
VERTEX
  8
LAYER1
 62
     7
  6
CONTINUOUS
 10
36237.4470
 20
21210.6965
  0
VERTEX
  8
LAYER1
 62
     7
  6
CONTINUOUS
 10
36171.2366
 20
20934.8374
  0
VERTEX
  8
LAYER1
 62
     7
  6
CONTINUOUS
 10
36182.2780
 20
20460.3377
  0
VERTEX
  8
LAYER1
 62
     7
  6
CONTINUOUS
 10
36171.2366
 20
20239.6476
  0
VERTEX
  8
LAYER1
 62
     7
  6
CONTINUOUS
 10
36093.9896
 20
19698.9386
  0
VERTEX
  8
LAYER1
 62
     7
  6
CONTINUOUS
 10
36060.8844
 20
19268.5831
  0
VERTEX
  8
LAYER1
 62
     7
  6
CONTINUOUS
 10
35983.6517
 20
18816.1626
  0
VERTEX
  8
LAYER1
 62
     7
  6
CONTINUOUS
 10
35829.1552
 20
18474.0789
  0
VERTEX
  8
LAYER1
 62
     7
  6
CONTINUOUS
 10
35751.9225
 20
18131.9808
  0
VERTEX
  8
LAYER1
 62
     7
  6
CONTINUOUS
 10
35696.7369
 20
17613.3666
  0
VERTEX
  8
LAYER1
 62
     7
  6
CONTINUOUS
 10
35608.4651
 20
17436.8052
  0
VERTEX
  8
LAYER1
 62
     7
  6
CONTINUOUS
 10
35520.1910
 20
17028.5290
  0
VERTEX
  8
LAYER1
 62
     7
  6
CONTINUOUS
 10
35465.0077
 20
16576.0930
  0
VERTEX
  8
LAYER1
 62
     7
  6
CONTINUOUS
 10
35365.6945
 20
16123.6725
  0
VERTEX
  8
LAYER1
 62
     7
  6
CONTINUOUS
 10
35244.3176
 20
15682.2768
  0
VERTEX
  8
LAYER1
 62
     7
  6
CONTINUOUS
 10
35111.8992
 20
15307.1057
  0
VERTEX
  8
LAYER1
 62
     7
  6
CONTINUOUS
 10
34736.7126
 20
14987.0714
  0
VERTEX
  8
LAYER1
 62
     7
  6
CONTINUOUS
 10
34251.1882
 20
14744.3318
  0
VERTEX
  8
LAYER1
 62
     7
  6
CONTINUOUS
 10
33666.3505
 20
14678.1238
  0
VERTEX
  8
LAYER1
 62
     7
  6
CONTINUOUS
 10
32949.0802
 20
14689.1474
  0
VERTEX
  8
LAYER1
 62
     7
  6
CONTINUOUS
 10
32209.7604
 20
14656.0434
  0
VERTEX
  8
LAYER1
 62
     7
  6
CONTINUOUS
 10
31326.9689
 20
14656.0434
  0
VERTEX
  8
LAYER1
 62
     7
  6
CONTINUOUS
 10
30466.2555
 20
14667.0836
  0
VERTEX
  8
LAYER1
 62
     7
  6
CONTINUOUS
 10
29693.8329
 20
14678.1238
  0
VERTEX
  8
LAYER1
 62
     7
  6
CONTINUOUS
 10
29020.7068
 20
14711.2278
  0
VERTEX
  8
LAYER1
 62
     7
  6
CONTINUOUS
 10
28457.9329
 20
14788.4605
  0
VERTEX
  8
LAYER1
 62
     7
  6
CONTINUOUS
 10
27983.4331
 20
14832.6048
  0
VERTEX
  8
LAYER1
 62
     7
  6
CONTINUOUS
 10
27508.9477
 20
14854.6697
  0
VERTEX
  8
LAYER1
 62
     7
  6
CONTINUOUS
 10
27067.5531
 20
14920.8777
  0
VERTEX
  8
LAYER1
 62
     7
  6
CONTINUOUS
 10
26096.4875
 20
15031.2311
  0
VERTEX
  8
LAYER1
 62
     7
  6
CONTINUOUS
 10
25445.4418
 20
15075.3753
  0
VERTEX
  8
LAYER1
 62
     7
  6
CONTINUOUS
 10
25136.4633
 20
15163.6483
  0
VERTEX
  8
LAYER1
 62
     7
  6
CONTINUOUS
 10
24673.0026
 20
15439.5074
  0
VERTEX
  8
LAYER1
 62
     7
  6
CONTINUOUS
 10
24463.3515
 20
15582.9636
  0
VERTEX
  8
LAYER1
 62
     7
  6
CONTINUOUS
 10
24308.8550
 20
15847.7991
  0
VERTEX
  8
LAYER1
 62
     7
  6
CONTINUOUS
 10
24154.3729
 20
16344.3626
  0
VERTEX
  8
LAYER1
 62
     7
  6
CONTINUOUS
 10
24165.4119
 20
16863.0078
  0
VERTEX
  8
LAYER1
 62
     7
  6
CONTINUOUS
 10
24099.2039
 20
17282.3088
  0
VERTEX
  8
LAYER1
 62
     7
  6
CONTINUOUS
 10
24021.9545
 20
17624.4069
  0
VERTEX
  8
LAYER1
 62
     7
  6
CONTINUOUS
 10
23988.8517
 20
17823.0332
  0
VERTEX
  8
LAYER1
 62
     7
  6
CONTINUOUS
 10
23922.6437
 20
18341.6617
  0
VERTEX
  8
LAYER1
 62
     7
  6
CONTINUOUS
 10
23878.4971
 20
18650.6403
  0
VERTEX
  8
LAYER1
 62
     7
  6
CONTINUOUS
 10
23801.2644
 20
19147.2050
  0
VERTEX
  8
LAYER1
 62
     7
  6
CONTINUOUS
 10
23757.1202
 20
19577.5462
  0
VERTEX
  8
LAYER1
 62
     7
  6
CONTINUOUS
 10
23757.1202
 20
20118.2396
  0
VERTEX
  8
LAYER1
 62
     7
  6
CONTINUOUS
 10
23812.2891
 20
20625.8589
  0
VERTEX
  8
LAYER1
 62
     7
  6
CONTINUOUS
 10
23834.3696
 20
21023.1116
  0
VERTEX
  8
LAYER1
 62
     7
  6
CONTINUOUS
 10
23790.2254
 20
21166.5690
  0
VERTEX
  8
LAYER1
 62
     7
  6
CONTINUOUS
 10
23481.2468
 20
21817.6146
  0
SEQEND
  8
LAYER1
  0
POLYLINE
  8
LAYER1
 62
     7
 66
     1
  6
CONTINUOUS
  0
VERTEX
  8
LAYER1
 62
     7
  6
CONTINUOUS
 10
5362.8986
 20
27858.1200
  0
VERTEX
  8
LAYER1
 62
     7
  6
CONTINUOUS
 10
5362.8986
 20
27564.8505
  0
SEQEND
  8
LAYER1
  0
POLYLINE
  8
LAYER1
 62
     7
 66
     1
  6
CONTINUOUS
  0
VERTEX
  8
LAYER1
 62
     7
  6
CONTINUOUS
 10
8110.5559
 20
27564.8505
  0
VERTEX
  8
LAYER1
 62
     7
  6
CONTINUOUS
 10
5362.8986
 20
27564.8505
  0
SEQEND
  8
LAYER1
  0
POLYLINE
  8
LAYER1
 62
     7
 66
     1
  6
CONTINUOUS
  0
VERTEX
  8
LAYER1
 62
     7
  6
CONTINUOUS
 10
28683.6052
 20
28092.5201
  0
VERTEX
  8
LAYER1
 62
     7
  6
CONTINUOUS
 10
28683.6052
 20
33488.5227
  0
SEQEND
  8
LAYER1
  0
POLYLINE
  8
LAYER1
 62
     7
 66
     1
  6
CONTINUOUS
  0
VERTEX
  8
LAYER1
 62
     7
  6
CONTINUOUS
 10
28683.6052
 20
33488.5227
  0
VERTEX
  8
LAYER1
 62
     7
  6
CONTINUOUS
 10
28314.0085
 20
32421.9872
  0
SEQEND
  8
LAYER1
  0
POLYLINE
  8
LAYER1
 62
     7
 66
     1
  6
CONTINUOUS
  0
VERTEX
  8
LAYER1
 62
     7
  6
CONTINUOUS
 10
8110.5559
 20
27564.8505
  0
VERTEX
  8
LAYER1
 62
     7
  6
CONTINUOUS
 10
10858.2143
 20
27564.8505
  0
SEQEND
  8
LAYER1
  0
POLYLINE
  8
LAYER1
 62
     7
 66
     1
  6
CONTINUOUS
  0
VERTEX
  8
LAYER1
 62
     7
  6
CONTINUOUS
 10
10858.2143
 20
27858.1200
  0
VERTEX
  8
LAYER1
 62
     7
  6
CONTINUOUS
 10
10858.2143
 20
27564.8505
  0
SEQEND
  8
LAYER1
  0
ENDSEC
  0
EOF
