  0
SECTION
  2
HEADER
  9
$ACADVER
  1
AC1004
  9
$EXTMIN
 10
16315.1937
 20
-2510.7276
  9
$EXTMAX
 10
53590.6505
 20
38786.6369
  9
$LIMMIN
 10
16315.1937
 20
-2510.7276
  9
$LIMMAX
 10
53590.6505
 20
38786.6369
  9
$INSBASE
 10
0.0
 20
0.0
  9
$VIEWCTR
 10
7.21903
 20
4.5
  9
$VIEWSIZE
 40
9.0
  9
$SNAPMODE
 70
     0
  9
$SNAPUNIT
 10
1.0
 20
1.0
  9
$SNAPBASE
 10
0.0
 20
0.0
  9
$SNAPANG
 50
0.0
  9
$SNAPSTYLE
 70
     0
  9
$SNAPISOPAIR
 70
     0
  9
$GRIDMODE
 70
     0
  9
$GRIDUNIT
 10
0.0
 20
0.0
  9
$ORTHOMODE
 70
     0
  9
$REGENMODE
 70
     1
  9
$FILLMODE
 70
     1
  9
$QTEXTMODE
 70
     0
  9
$DRAGMODE
 70
     2
  9
$LTSCALE
 40
1.0
  9
$OSMODE
 70
     0
  9
$ATTMODE
 70
     1
  9
$TEXTSIZE
 40
0.2
  9
$TRACEWID
 40
0.05
  9
$TEXTSTYLE
  7
STANDARD
  9
$CLAYER
  8
0
  9
$CELTYPE
  6
BYLAYER
  9
$CECOLOR
 62
   256
  9
$DIMSCALE
 40
1.0
  9
$DIMASZ
 40
0.18
  9
$DIMEXO
 40
0.0625
  9
$DIMDLI
 40
0.38
  9
$DIMRND
 40
0.0
  9
$DIMDLE
 40
0.0
  9
$DIMEXE
 40
0.18
  9
$DIMTP
 40
0.0
  9
$DIMTM
 40
0.0
  9
$DIMTXT
 40
0.18
  9
$DIMCEN
 40
0.09
  9
$DIMTSZ
 40
0.0
  9
$DIMTOL
 70
     0
  9
$DIMLIM
 70
     0
  9
$DIMTIH
 70
     1
  9
$DIMTOH
 70
     1
  9
$DIMSE1
 70
     0
  9
$DIMSE2
 70
     0
  9
$DIMTAD
 70
     0
  9
$DIMZIN
 70
     0
  9
$DIMBLK
  1

  9
$DIMASO
 70
     1
  9
$DIMSHO
 70
     0
  9
$DIMPOST
  1

  9
$DIMAPOST
  1

  9
$DIMALT
 70
     0
  9
$DIMALTD
 70
     2
  9
$DIMALTF
 40
25.4
  9
$DIMLFAC
 40
1.0
  9
$LUNITS
 70
     2
  9
$LUPREC
 70
     4
  9
$AXISMODE
 70
     0
  9
$AXISUNIT
 10
0.0
 20
0.0
  9
$SKETCHINC
 40
0.1
  9
$FILLETRAD
 40
0.0
  9
$AUNITS
 70
     0
  9
$AUPREC
 70
     0
  9
$MENU
  1
acad
  9
$ELEVATION
 40
0.0
  9
$THICKNESS
 40
0.0
  9
$VIEWDIR
 10
0.0
 20
0.0
 30
1.0
  9
$LIMCHECK
 70
     0
  9
$BLIPMODE
 70
     1
  9
$CHAMFERA
 40
0.0
  9
$CHAMFERB
 40
0.0
  9
$FASTZOOM
 70
     1
  9
$SKPOLY
 70
     0
  9
$TDCREATE
 40
2447222.5666886573
  9
$TDUPDATE
 40
2447222.5666886573
  9
$TDINDWG
 40
0.0000000000
  9
$TDUSRTIMER
 40
0.0000000000
  9
$USRTIMER
 70
     1
  9
$ANGBASE
 50
0.0
  9
$ANGDIR
 70
     0
  9
$PDMODE
 70
     0
  9
$PDSIZE
 40
0.0
  9
$PLINEWID
 40
0.0
  9
$COORDS
 70
     0
  9
$SPLFRAME
 70
     0
  9
$SPLINESEGS
 70
     8
  9
$ATTDIA
 70
     0
  9
$ATTREQ
 70
     1
  9
$USERI1
 70
     0
  9
$USERI2
 70
     0
  9
$USERI3
 70
     0
  9
$USERI4
 70
     0
  9
$USERI5
 70
     0
  9
$USERR1
 40
0.0
  9
$USERR2
 40
0.0
  9
$USERR3
 40
0.0
  9
$USERR4
 40
0.0
  9
$USERR5
 40
0.0
  0
ENDSEC
  0
SECTION
  2
TABLES
  0
TABLE
  2
LTYPE
 70
     13
  0
LTYPE
  2
CONTINUOUS
 70
    64
  3
Solid line
 72
    65
 73
     0
 40
0.0
  0
LTYPE
  2
DASHED
 70
    64
  3
__ __ __ __ __ __ __ __ __ __ __ __ __ __ __
 72
    65
 73
     2
 40
0.75
 49
0.5
 49
-0.25
  0
LTYPE
  2
HIDDEN
 70
    64
  3
_ _ _ _ _ _ _ _ _ _ _ _ _ _ _ _ _ _ _ _ _ _ _
 72
    65
 73
     2
 40
0.375
 49
0.25
 49
-0.125
  0
LTYPE
  2
CENTER
 70
    64
  3
____ _ ____ _ ____ _ ____ _ ____ _ ____ _ ____
 72
    65
 73
     4
 40
2.0
 49
1.25
 49
-0.25
 49
0.25
 49
-0.25
  0
LTYPE
  2
PHANTOM
 70
    64
  3
_____ _ _ _____ _ _ _____ _ _ _____ _ _ ____
 72
    65
 73
     6
 40
2.5
 49
1.25
 49
-0.25
 49
0.25
 49
-0.25
 49
0.25
 49
-0.25
  0
LTYPE
  2
DOT
 70
    64
  3
...............................................
 72
    65
 73
     2
 40
0.25
 49
0.0
 49
-0.25
  0
LTYPE
  2
DASHDOT
 70
    64
  3
__ . __ . __ . __ . __ . __ . __ . __ . __ . __
 72
    65
 73
     4
 40
1.0
 49
0.5
 49
-0.25
 49
0.0
 49
-0.25
  0
LTYPE
  2
BORDER
 70
    64
  3
__ __ . __ __ . __ __ . __ __ . __ __ . __ __
 72
    65
 73
     6
 40
1.75
 49
0.5
 49
-0.25
 49
0.5
 49
-0.25
 49
0.0
 49
-0.25
  0
LTYPE
  2
DIVIDE
 70
    64
  3
__ . . __ . . __ . . __ . . __ . . __ . . __
 72
    65
 73
     6
 40
1.25
 49
0.5
 49
-0.25
 49
0.0
 49
-0.25
 49
0.0
 49
-0.25
  0
LTYPE
  2
DCTYPE1
 70
    64
  3
__ . . __ . . __ . . __ . . __ . . __ . . __
 72
    65
 73
     8
 40
2.5
 49
0.5
 49
-0.25
 49
0.125
 49
-0.25
 49
0.25
 49
-0.25
 49
0.125
 49
-0.25
  0
LTYPE
  2
DCTYPE2
 70
    64
  3
__ . . __ . . __ . . __ . . __ . . __ . . __
 72
    65
 73
     6
 40
2.05
 49
1.0
 49
-0.3
 49
0.15
 49
-0.15
 49
0.15
 49
-0.3
  0
LTYPE
  2
DCTYPE3
 70
    64
  3
__ . . __ . . __ . . __ . . __ . . __ . . __
 72
    65
 73
     6
 40
2.5
 49
0.8
 49
-0.2
 49
0.8
 49
-0.2
 49
0.3
 49
-0.2
  0
LTYPE
  2
DCTYPE4
 70
    64
  3
__ . . __ . . __ . . __ . . __ . . __ . . __
 72
    65
 73
     10
 40
3.97
 49
1.75
 49
-0.3
 49
0.3
 49
-0.3
 49
0.06
 49
-0.3
 49
0.06
 49
-0.3
 49
0.3
 49
-0.3
  0
ENDTAB
  0
TABLE
  2
LAYER
 70
    153
  0
LAYER
  2
LAYER1
 70
 64
 62
     7
  6
CONTINUOUS
  0
ENDTAB
  0
ENDSEC
  0
SECTION
  2
BLOCKS
  0
ENDSEC
  0
SECTION
  2
ENTITIES
  0
POLYLINE
  8
LAYER1
 62
     7
 66
     1
  6
CONTINUOUS
  0
VERTEX
  8
LAYER1
 62
     7
  6
CONTINUOUS
 10
34160.7934
 20
38477.6584
  0
VERTEX
  8
LAYER1
 62
     7
  6
CONTINUOUS
 10
33719.4132
 20
38444.5532
  0
VERTEX
  8
LAYER1
 62
     7
  6
CONTINUOUS
 10
33145.6002
 20
38389.3842
  0
VERTEX
  8
LAYER1
 62
     7
  6
CONTINUOUS
 10
32682.1395
 20
38367.3062
  0
VERTEX
  8
LAYER1
 62
     7
  6
CONTINUOUS
 10
31964.8692
 20
38312.1372
  0
VERTEX
  8
LAYER1
 62
     7
  6
CONTINUOUS
 10
31225.5494
 20
38157.6551
  0
VERTEX
  8
LAYER1
 62
     7
  6
CONTINUOUS
 10
30706.9054
 20
37947.9897
  0
VERTEX
  8
LAYER1
 62
     7
  6
CONTINUOUS
 10
30066.8988
 20
37605.9059
  0
VERTEX
  8
LAYER1
 62
     7
  6
CONTINUOUS
 10
29437.9169
 20
37109.3400
  0
VERTEX
  8
LAYER1
 62
     7
  6
CONTINUOUS
 10
28709.6219
 20
36557.6075
  0
VERTEX
  8
LAYER1
 62
     7
  6
CONTINUOUS
 10
28168.9284
 20
36072.0855
  0
VERTEX
  8
LAYER1
 62
     7
  6
CONTINUOUS
 10
27628.2040
 20
35586.5443
  0
VERTEX
  8
LAYER1
 62
     7
  6
CONTINUOUS
 10
27175.7990
 20
34968.6014
  0
VERTEX
  8
LAYER1
 62
     7
  6
CONTINUOUS
 10
26822.6762
 20
34229.2674
  0
VERTEX
  8
LAYER1
 62
     7
  6
CONTINUOUS
 10
26524.7224
 20
33578.2193
  0
VERTEX
  8
LAYER1
 62
     7
  6
CONTINUOUS
 10
26204.7167
 20
32827.8629
  0
VERTEX
  8
LAYER1
 62
     7
  6
CONTINUOUS
 10
26017.1461
 20
32055.4236
  0
VERTEX
  8
LAYER1
 62
     7
  6
CONTINUOUS
 10
26039.2098
 20
31084.3580
  0
VERTEX
  8
LAYER1
 62
     7
  6
CONTINUOUS
 10
26281.9804
 20
30201.5808
  0
VERTEX
  8
LAYER1
 62
     7
  6
CONTINUOUS
 10
26414.3845
 20
29716.0563
  0
VERTEX
  8
LAYER1
 62
     7
  6
CONTINUOUS
 10
26613.0109
 20
28822.2400
  0
VERTEX
  8
LAYER1
 62
     7
  6
CONTINUOUS
 10
26877.8452
 20
28093.9474
  0
VERTEX
  8
LAYER1
 62
     7
  6
CONTINUOUS
 10
27065.4468
 20
27608.4038
  0
VERTEX
  8
LAYER1
 62
     7
  6
CONTINUOUS
 10
27462.6829
 20
27056.6737
  0
VERTEX
  8
LAYER1
 62
     7
  6
CONTINUOUS
 10
28069.6153
 20
26482.8584
  0
VERTEX
  8
LAYER1
 62
     7
  6
CONTINUOUS
 10
28599.2697
 20
26041.4782
  0
VERTEX
  8
LAYER1
 62
     7
  6
CONTINUOUS
 10
29305.4843
 20
25611.1227
  0
VERTEX
  8
LAYER1
 62
     7
  6
CONTINUOUS
 10
29912.4167
 20
25147.6596
  0
VERTEX
  8
LAYER1
 62
     7
  6
CONTINUOUS
 10
30607.5923
 20
24584.8881
  0
VERTEX
  8
LAYER1
 62
     7
  6
CONTINUOUS
 10
31214.5247
 20
24198.6625
  0
VERTEX
  8
LAYER1
 62
     7
  6
CONTINUOUS
 10
32053.1576
 20
23768.3069
  0
VERTEX
  8
LAYER1
 62
     7
  6
CONTINUOUS
 10
32637.9953
 20
23514.5116
  0
VERTEX
  8
LAYER1
 62
     7
  6
CONTINUOUS
 10
33553.8920
 20
23337.9514
  0
VERTEX
  8
LAYER1
 62
     7
  6
CONTINUOUS
 10
34094.5997
 20
23260.7163
  0
VERTEX
  8
LAYER1
 62
     7
  6
CONTINUOUS
 10
35231.1556
 20
23348.9904
  0
VERTEX
  8
LAYER1
 62
     7
  6
CONTINUOUS
 10
36025.6753
 20
23481.4064
  0
VERTEX
  8
LAYER1
 62
     7
  6
CONTINUOUS
 10
36422.9113
 20
23569.6806
  0
VERTEX
  8
LAYER1
 62
     7
  6
CONTINUOUS
 10
36941.5553
 20
23735.2017
  0
VERTEX
  8
LAYER1
 62
     7
  6
CONTINUOUS
 10
37636.7618
 20
24055.2217
  0
VERTEX
  8
LAYER1
 62
     7
  6
CONTINUOUS
 10
38221.5995
 20
24430.3916
  0
VERTEX
  8
LAYER1
 62
     7
  6
CONTINUOUS
 10
38927.8141
 20
24937.9966
  0
VERTEX
  8
LAYER1
 62
     7
  6
CONTINUOUS
 10
39534.7322
 20
25478.7067
  0
VERTEX
  8
LAYER1
 62
     7
  6
CONTINUOUS
 10
40042.3228
 20
25920.0869
  0
VERTEX
  8
LAYER1
 62
     7
  6
CONTINUOUS
 10
40594.0696
 20
26493.8998
  0
VERTEX
  8
LAYER1
 62
     7
  6
CONTINUOUS
 10
41123.7431
 20
27222.1949
  0
VERTEX
  8
LAYER1
 62
     7
  6
CONTINUOUS
 10
41443.7583
 20
28016.6980
  0
VERTEX
  8
LAYER1
 62
     7
  6
CONTINUOUS
 10
41620.2875
 20
28711.8878
  0
VERTEX
  8
LAYER1
 62
     7
  6
CONTINUOUS
 10
41752.7083
 20
29749.1615
  0
VERTEX
  8
LAYER1
 62
     7
  6
CONTINUOUS
 10
41841.0110
 20
30598.8335
  0
VERTEX
  8
LAYER1
 62
     7
  6
CONTINUOUS
 10
41796.8692
 20
31316.0895
  0
VERTEX
  8
LAYER1
 62
     7
  6
CONTINUOUS
 10
41664.4341
 20
32143.6977
  0
VERTEX
  8
LAYER1
 62
     7
  6
CONTINUOUS
 10
41476.8492
 20
32750.6135
  0
VERTEX
  8
LAYER1
 62
     7
  6
CONTINUOUS
 10
41134.7797
 20
33578.2217
  0
VERTEX
  8
LAYER1
 62
     7
  6
CONTINUOUS
 10
40847.8840
 20
34196.1645
  0
VERTEX
  8
LAYER1
 62
     7
  6
CONTINUOUS
 10
40527.8497
 20
34803.0827
  0
VERTEX
  8
LAYER1
 62
     7
  6
CONTINUOUS
 10
40196.8026
 20
35421.0231
  0
VERTEX
  8
LAYER1
 62
     7
  6
CONTINUOUS
 10
39733.3419
 20
36072.0855
  0
VERTEX
  8
LAYER1
 62
     7
  6
CONTINUOUS
 10
39358.1696
 20
36656.9231
  0
VERTEX
  8
LAYER1
 62
     7
  6
CONTINUOUS
 10
38828.5009
 20
37186.5918
  0
VERTEX
  8
LAYER1
 62
     7
  6
CONTINUOUS
 10
38033.9979
 20
37782.4685
  0
VERTEX
  8
LAYER1
 62
     7
  6
CONTINUOUS
 10
37405.0160
 20
38003.1586
  0
VERTEX
  8
LAYER1
 62
     7
  6
CONTINUOUS
 10
36422.9113
 20
38323.1786
  0
VERTEX
  8
LAYER1
 62
     7
  6
CONTINUOUS
 10
35793.9294
 20
38466.6170
  0
VERTEX
  8
LAYER1
 62
     7
  6
CONTINUOUS
 10
35032.5459
 20
38532.8273
  0
VERTEX
  8
LAYER1
 62
     7
  6
CONTINUOUS
 10
34403.5640
 20
38532.8273
  0
VERTEX
  8
LAYER1
 62
     7
  6
CONTINUOUS
 10
34160.7934
 20
38477.6584
  0
SEQEND
  8
LAYER1
  0
POLYLINE
  8
LAYER1
 62
     7
 66
     1
  6
CONTINUOUS
  0
VERTEX
  8
LAYER1
 62
     7
  6
CONTINUOUS
 10
19171.5025
 20
24749.1631
  0
VERTEX
  8
LAYER1
 62
     7
  6
CONTINUOUS
 10
21908.1214
 20
24749.1631
  0
SEQEND
  8
LAYER1
  0
POLYLINE
  8
LAYER1
 62
     7
 66
     1
  6
CONTINUOUS
  0
VERTEX
  8
LAYER1
 62
     7
  6
CONTINUOUS
 10
49296.6642
 20
27945.8056
  0
VERTEX
  8
LAYER1
 62
     7
  6
CONTINUOUS
 10
49296.6642
 20
22516.6978
  0
SEQEND
  8
LAYER1
  0
POLYLINE
  8
LAYER1
 62
     3
 66
     1
  6
CONTINUOUS
  0
VERTEX
  8
LAYER1
 62
     3
  6
CONTINUOUS
 10
33951.1280
 20
22852.4246
  0
VERTEX
  8
LAYER1
 62
     3
  6
CONTINUOUS
 10
33951.1280
 20
24386.2641
  0
SEQEND
  8
LAYER1
  0
POLYLINE
  8
LAYER1
 62
     3
 66
     1
  6
CONTINUOUS
  0
VERTEX
  8
LAYER1
 62
     3
  6
CONTINUOUS
 10
33951.1280
 20
37804.5323
  0
VERTEX
  8
LAYER1
 62
     3
  6
CONTINUOUS
 10
33951.1280
 20
38786.6369
  0
SEQEND
  8
LAYER1
  0
POLYLINE
  8
LAYER1
 62
     3
 66
     1
  6
CONTINUOUS
  0
VERTEX
  8
LAYER1
 62
     3
  6
CONTINUOUS
 10
25531.5906
 20
31007.1252
  0
VERTEX
  8
LAYER1
 62
     3
  6
CONTINUOUS
 10
26546.8172
 20
31007.1252
  0
SEQEND
  8
LAYER1
  0
POLYLINE
  8
LAYER1
 62
     3
 66
     1
  6
CONTINUOUS
  0
VERTEX
  8
LAYER1
 62
     3
  6
CONTINUOUS
 10
41333.3918
 20
31007.1252
  0
VERTEX
  8
LAYER1
 62
     3
  6
CONTINUOUS
 10
42469.9953
 20
31007.1252
  0
SEQEND
  8
LAYER1
  0
POLYLINE
  8
LAYER1
 62
     7
 66
     1
  6
CONTINUOUS
  0
VERTEX
  8
LAYER1
 62
     7
  6
CONTINUOUS
 10
33984.2475
 20
37252.7998
  0
VERTEX
  8
LAYER1
 62
     7
  6
CONTINUOUS
 10
33840.7901
 20
37208.6556
  0
VERTEX
  8
LAYER1
 62
     7
  6
CONTINUOUS
 10
33289.0410
 20
37043.1344
  0
VERTEX
  8
LAYER1
 62
     7
  6
CONTINUOUS
 10
32759.3723
 20
36877.6132
  0
VERTEX
  8
LAYER1
 62
     7
  6
CONTINUOUS
 10
32340.0724
 20
36734.1725
  0
VERTEX
  8
LAYER1
 62
     7
  6
CONTINUOUS
 10
31821.4118
 20
36590.7151
  0
VERTEX
  8
LAYER1
 62
     7
  6
CONTINUOUS
 10
31402.0953
 20
36447.2577
  0
VERTEX
  8
LAYER1
 62
     7
  6
CONTINUOUS
 10
30938.6513
 20
36127.2544
  0
VERTEX
  8
LAYER1
 62
     7
  6
CONTINUOUS
 10
30585.5428
 20
35718.9603
  0
VERTEX
  8
LAYER1
 62
     7
  6
CONTINUOUS
 10
30265.5252
 20
35233.4382
  0
VERTEX
  8
LAYER1
 62
     7
  6
CONTINUOUS
 10
29923.4414
 20
34703.7695
  0
VERTEX
  8
LAYER1
 62
     7
  6
CONTINUOUS
 10
29669.6318
 20
34262.3725
  0
VERTEX
  8
LAYER1
 62
     7
  6
CONTINUOUS
 10
29360.6842
 20
33809.9509
  0
VERTEX
  8
LAYER1
 62
     7
  6
CONTINUOUS
 10
29029.6252
 20
33180.9714
  0
VERTEX
  8
LAYER1
 62
     7
  6
CONTINUOUS
 10
28797.9103
 20
32662.3393
  0
VERTEX
  8
LAYER1
 62
     7
  6
CONTINUOUS
 10
28599.2697
 20
32044.3822
  0
VERTEX
  8
LAYER1
 62
     7
  6
CONTINUOUS
 10
28499.9565
 20
31415.4027
  0
VERTEX
  8
LAYER1
 62
     7
  6
CONTINUOUS
 10
28499.9565
 20
30797.4598
  0
VERTEX
  8
LAYER1
 62
     7
  6
CONTINUOUS
 10
28588.2449
 20
30047.1010
  0
VERTEX
  8
LAYER1
 62
     7
  6
CONTINUOUS
 10
28687.5581
 20
29385.0115
  0
VERTEX
  8
LAYER1
 62
     7
  6
CONTINUOUS
 10
28797.9103
 20
28656.7165
  0
VERTEX
  8
LAYER1
 62
     7
  6
CONTINUOUS
 10
28886.1678
 20
28104.9721
  0
VERTEX
  8
LAYER1
 62
     7
  6
CONTINUOUS
 10
29040.6499
 20
27442.8827
  0
VERTEX
  8
LAYER1
 62
     7
  6
CONTINUOUS
 10
29349.6285
 20
26714.5876
  0
VERTEX
  8
LAYER1
 62
     7
  6
CONTINUOUS
 10
29857.2334
 20
26129.7499
  0
VERTEX
  8
LAYER1
 62
     7
  6
CONTINUOUS
 10
30442.0711
 20
25787.6662
  0
VERTEX
  8
LAYER1
 62
     7
  6
CONTINUOUS
 10
30960.7151
 20
25478.7067
  0
VERTEX
  8
LAYER1
 62
     7
  6
CONTINUOUS
 10
31865.5560
 20
25136.6229
  0
VERTEX
  8
LAYER1
 62
     7
  6
CONTINUOUS
 10
32748.3475
 20
25004.2069
  0
VERTEX
  8
LAYER1
 62
     7
  6
CONTINUOUS
 10
33763.5574
 20
24915.9328
  0
VERTEX
  8
LAYER1
 62
     7
  6
CONTINUOUS
 10
34811.8557
 20
24904.8937
  0
VERTEX
  8
LAYER1
 62
     7
  6
CONTINUOUS
 10
35650.5030
 20
24904.8937
  0
VERTEX
  8
LAYER1
 62
     7
  6
CONTINUOUS
 10
36478.1113
 20
25004.2069
  0
VERTEX
  8
LAYER1
 62
     7
  6
CONTINUOUS
 10
37096.0374
 20
25169.7281
  0
VERTEX
  8
LAYER1
 62
     7
  6
CONTINUOUS
 10
37691.9308
 20
25467.6653
  0
VERTEX
  8
LAYER1
 62
     7
  6
CONTINUOUS
 10
38287.8075
 20
25875.9570
  0
VERTEX
  8
LAYER1
 62
     7
  6
CONTINUOUS
 10
38982.9831
 20
26438.7309
  0
VERTEX
  8
LAYER1
 62
     7
  6
CONTINUOUS
 10
39391.2748
 20
26946.3191
  0
VERTEX
  8
LAYER1
 62
     7
  6
CONTINUOUS
 10
39799.5666
 20
27652.5504
  0
VERTEX
  8
LAYER1
 62
     7
  6
CONTINUOUS
 10
40163.7165
 20
28281.5323
  0
VERTEX
  8
LAYER1
 62
     7
  6
CONTINUOUS
 10
40395.4480
 20
28888.4504
  0
VERTEX
  8
LAYER1
 62
     7
  6
CONTINUOUS
 10
40594.0696
 20
29583.6403
  0
VERTEX
  8
LAYER1
 62
     7
  6
CONTINUOUS
 10
40715.4632
 20
30300.8963
  0
VERTEX
  8
LAYER1
 62
     7
  6
CONTINUOUS
 10
40704.4266
 20
31040.2304
  0
VERTEX
  8
LAYER1
 62
     7
  6
CONTINUOUS
 10
40572.0058
 20
31956.1104
  0
VERTEX
  8
LAYER1
 62
     7
  6
CONTINUOUS
 10
40395.4480
 20
32585.0923
  0
VERTEX
  8
LAYER1
 62
     7
  6
CONTINUOUS
 10
39876.7993
 20
33644.4297
  0
VERTEX
  8
LAYER1
 62
     7
  6
CONTINUOUS
 10
39490.6023
 20
34174.1008
  0
VERTEX
  8
LAYER1
 62
     7
  6
CONTINUOUS
 10
39247.8174
 20
34593.4149
  0
VERTEX
  8
LAYER1
 62
     7
  6
CONTINUOUS
 10
38817.4762
 20
35123.0860
  0
VERTEX
  8
LAYER1
 62
     7
  6
CONTINUOUS
 10
38398.1454
 20
35531.3753
  0
VERTEX
  8
LAYER1
 62
     7
  6
CONTINUOUS
 10
38022.9731
 20
35950.6918
  0
VERTEX
  8
LAYER1
 62
     7
  6
CONTINUOUS
 10
37592.6176
 20
36370.0250
  0
VERTEX
  8
LAYER1
 62
     7
  6
CONTINUOUS
 10
36875.3473
 20
36778.3001
  0
VERTEX
  8
LAYER1
 62
     7
  6
CONTINUOUS
 10
36400.8618
 20
36943.8212
  0
VERTEX
  8
LAYER1
 62
     7
  6
CONTINUOUS
 10
35882.2179
 20
37076.2396
  0
VERTEX
  8
LAYER1
 62
     7
  6
CONTINUOUS
 10
35418.7572
 20
37153.4866
  0
VERTEX
  8
LAYER1
 62
     7
  6
CONTINUOUS
 10
34800.8000
 20
37252.7998
  0
VERTEX
  8
LAYER1
 62
     7
  6
CONTINUOUS
 10
33984.2475
 20
37252.7998
  0
SEQEND
  8
LAYER1
  0
POLYLINE
  8
LAYER1
 62
     7
 66
     1
  6
CONTINUOUS
  0
VERTEX
  8
LAYER1
 62
     7
  6
CONTINUOUS
 10
16315.1937
 20
16005.6242
  0
VERTEX
  8
LAYER1
 62
     7
  6
CONTINUOUS
 10
16359.3379
 20
15994.5840
  0
VERTEX
  8
LAYER1
 62
     7
  6
CONTINUOUS
 10
16866.9273
 20
15928.3748
  0
VERTEX
  8
LAYER1
 62
     7
  6
CONTINUOUS
 10
17683.5108
 20
15851.1266
  0
VERTEX
  8
LAYER1
 62
     7
  6
CONTINUOUS
 10
18466.9737
 20
15829.0628
  0
VERTEX
  8
LAYER1
 62
     7
  6
CONTINUOUS
 10
19195.2687
 20
15862.1668
  0
VERTEX
  8
LAYER1
 62
     7
  6
CONTINUOUS
 10
20000.8132
 20
15917.3358
  0
VERTEX
  8
LAYER1
 62
     7
  6
CONTINUOUS
 10
21027.0454
 20
15961.4800
  0
VERTEX
  8
LAYER1
 62
     7
  6
CONTINUOUS
 10
21600.8440
 20
15972.5202
  0
VERTEX
  8
LAYER1
 62
     7
  6
CONTINUOUS
 10
22593.9734
 20
15972.5202
  0
VERTEX
  8
LAYER1
 62
     7
  6
CONTINUOUS
 10
23587.1029
 20
15983.5437
  0
VERTEX
  8
LAYER1
 62
     7
  6
CONTINUOUS
 10
24569.2075
 20
15994.5828
  0
VERTEX
  8
LAYER1
 62
     7
  6
CONTINUOUS
 10
25485.0875
 20
15972.5190
  0
VERTEX
  8
LAYER1
 62
     7
  6
CONTINUOUS
 10
26654.7962
 20
15939.4150
  0
VERTEX
  8
LAYER1
 62
     7
  6
CONTINUOUS
 10
27681.0141
 20
15895.2708
  0
VERTEX
  8
LAYER1
 62
     7
  6
CONTINUOUS
 10
28618.9603
 20
15851.1254
  0
VERTEX
  8
LAYER1
 62
     7
  6
CONTINUOUS
 10
29457.6076
 20
15829.0616
  0
VERTEX
  8
LAYER1
 62
     7
  6
CONTINUOUS
 10
30185.9026
 20
15818.0214
  0
VERTEX
  8
LAYER1
 62
     7
  6
CONTINUOUS
 10
31024.5499
 20
15873.2058
  0
VERTEX
  8
LAYER1
 62
     7
  6
CONTINUOUS
 10
31510.0744
 20
15961.4800
  0
SEQEND
  8
LAYER1
  0
POLYLINE
  8
LAYER1
 62
     7
 66
     1
  6
CONTINUOUS
  0
VERTEX
  8
LAYER1
 62
     7
  6
CONTINUOUS
 10
16359.3379
 20
15994.5840
  0
VERTEX
  8
LAYER1
 62
     7
  6
CONTINUOUS
 10
16392.4431
 20
15663.5416
  0
VERTEX
  8
LAYER1
 62
     7
  6
CONTINUOUS
 10
16480.7160
 20
15144.9108
  0
VERTEX
  8
LAYER1
 62
     7
  6
CONTINUOUS
 10
16557.9643
 20
14582.1381
  0
VERTEX
  8
LAYER1
 62
     7
  6
CONTINUOUS
 10
16679.3412
 20
13754.5298
  0
VERTEX
  8
LAYER1
 62
     7
  6
CONTINUOUS
 10
16789.6946
 20
13048.2843
  0
VERTEX
  8
LAYER1
 62
     7
  6
CONTINUOUS
 10
16800.7182
 20
12441.3816
  0
VERTEX
  8
LAYER1
 62
     7
  6
CONTINUOUS
 10
16822.7986
 20
11790.3205
  0
VERTEX
  8
LAYER1
 62
     7
  6
CONTINUOUS
 10
16833.8233
 20
11260.6661
  0
VERTEX
  8
LAYER1
 62
     7
  6
CONTINUOUS
 10
16866.9273
 20
10852.3731
  0
VERTEX
  8
LAYER1
 62
     7
  6
CONTINUOUS
 10
16889.0078
 20
10422.0176
  0
VERTEX
  8
LAYER1
 62
     7
  6
CONTINUOUS
 10
16911.0716
 20
9991.6627
  0
VERTEX
  8
LAYER1
 62
     7
  6
CONTINUOUS
 10
16955.2158
 20
9572.3462
  0
VERTEX
  8
LAYER1
 62
     7
  6
CONTINUOUS
 10
16977.2807
 20
9307.5125
  0
VERTEX
  8
LAYER1
 62
     7
  6
CONTINUOUS
 10
17054.5290
 20
8866.1161
  0
VERTEX
  8
LAYER1
 62
     7
  6
CONTINUOUS
 10
17120.7370
 20
8424.7359
  0
VERTEX
  8
LAYER1
 62
     7
  6
CONTINUOUS
 10
17153.8421
 20
8193.0055
  0
VERTEX
  8
LAYER1
 62
     7
  6
CONTINUOUS
 10
17209.0099
 20
7884.0275
  0
VERTEX
  8
LAYER1
 62
     7
  6
CONTINUOUS
 10
17286.2593
 20
7376.4220
  0
VERTEX
  8
LAYER1
 62
     7
  6
CONTINUOUS
 10
17374.5323
 20
6747.4401
  0
VERTEX
  8
LAYER1
 62
     7
  6
CONTINUOUS
 10
17529.0132
 20
5776.3912
  0
VERTEX
  8
LAYER1
 62
     7
  6
CONTINUOUS
 10
17650.4068
 20
4739.1175
  0
VERTEX
  8
LAYER1
 62
     7
  6
CONTINUOUS
 10
17738.6798
 20
3834.2611
  0
VERTEX
  8
LAYER1
 62
     7
  6
CONTINUOUS
 10
17871.0970
 20
2973.5485
  0
VERTEX
  8
LAYER1
 62
     7
  6
CONTINUOUS
 10
18003.5142
 20
2245.2535
  0
VERTEX
  8
LAYER1
 62
     7
  6
CONTINUOUS
 10
18124.8911
 20
1285.2285
  0
VERTEX
  8
LAYER1
 62
     7
  6
CONTINUOUS
 10
18279.3887
 20
512.8049
  0
VERTEX
  8
LAYER1
 62
     7
  6
CONTINUOUS
 10
18389.7255
 20
-226.5300
  0
VERTEX
  8
LAYER1
 62
     7
  6
CONTINUOUS
 10
18522.1426
 20
-888.6164
  0
VERTEX
  8
LAYER1
 62
     7
  6
CONTINUOUS
 10
18610.4311
 20
-1352.0767
  0
VERTEX
  8
LAYER1
 62
     7
  6
CONTINUOUS
 10
18775.9534
 20
-1981.0587
  0
VERTEX
  8
LAYER1
 62
     7
  6
CONTINUOUS
 10
19261.4779
 20
-2323.1419
  0
VERTEX
  8
LAYER1
 62
     7
  6
CONTINUOUS
 10
20022.8770
 20
-2301.0619
  0
VERTEX
  8
LAYER1
 62
     7
  6
CONTINUOUS
 10
20949.8127
 20
-2256.9332
  0
VERTEX
  8
LAYER1
 62
     7
  6
CONTINUOUS
 10
21876.7174
 20
-2278.9975
  0
VERTEX
  8
LAYER1
 62
     7
  6
CONTINUOUS
 10
22891.9273
 20
-2334.1662
  0
VERTEX
  8
LAYER1
 62
     7
  6
CONTINUOUS
 10
23620.2057
 20
-2411.4149
  0
VERTEX
  8
LAYER1
 62
     7
  6
CONTINUOUS
 10
24337.4760
 20
-2455.5591
  0
VERTEX
  8
LAYER1
 62
     7
  6
CONTINUOUS
 10
25131.9957
 20
-2488.6634
  0
VERTEX
  8
LAYER1
 62
     7
  6
CONTINUOUS
 10
26069.9252
 20
-2510.7276
  0
VERTEX
  8
LAYER1
 62
     7
  6
CONTINUOUS
 10
27327.8913
 20
-2334.1662
  0
VERTEX
  8
LAYER1
 62
     7
  6
CONTINUOUS
 10
27934.8094
 20
-2157.6203
  0
VERTEX
  8
LAYER1
 62
     7
  6
CONTINUOUS
 10
28464.4781
 20
-2014.1630
  0
VERTEX
  8
LAYER1
 62
     7
  6
CONTINUOUS
 10
29181.7485
 20
-1848.6416
  0
VERTEX
  8
LAYER1
 62
     7
  6
CONTINUOUS
 10
30097.6285
 20
-1760.3686
  0
VERTEX
  8
LAYER1
 62
     7
  6
CONTINUOUS
 10
30417.6318
 20
-1749.3284
  0
VERTEX
  8
LAYER1
 62
     7
  6
CONTINUOUS
 10
30561.0892
 20
-1561.7425
  0
VERTEX
  8
LAYER1
 62
     7
  6
CONTINUOUS
 10
30594.1944
 20
-524.4688
  0
VERTEX
  8
LAYER1
 62
     7
  6
CONTINUOUS
 10
30583.1696
 20
214.8658
  0
VERTEX
  8
LAYER1
 62
     7
  6
CONTINUOUS
 10
30561.0892
 20
943.1608
  0
VERTEX
  8
LAYER1
 62
     7
  6
CONTINUOUS
 10
30561.0892
 20
1881.1062
  0
VERTEX
  8
LAYER1
 62
     7
  6
CONTINUOUS
 10
30583.1696
 20
2697.6892
  0
VERTEX
  8
LAYER1
 62
     7
  6
CONTINUOUS
 10
30583.1696
 20
3227.3579
  0
VERTEX
  8
LAYER1
 62
     7
  6
CONTINUOUS
 10
30583.1696
 20
3845.3001
  0
VERTEX
  8
LAYER1
 62
     7
  6
CONTINUOUS
 10
30605.2191
 20
4750.1566
  0
VERTEX
  8
LAYER1
 62
     7
  6
CONTINUOUS
 10
30638.3219
 20
5169.4730
  0
VERTEX
  8
LAYER1
 62
     7
  6
CONTINUOUS
 10
30704.5466
 20
5798.4549
  0
VERTEX
  8
LAYER1
 62
     7
  6
CONTINUOUS
 10
30792.8350
 20
6482.6058
  0
VERTEX
  8
LAYER1
 62
     7
  6
CONTINUOUS
 10
30870.0534
 20
7133.6669
  0
VERTEX
  8
LAYER1
 62
     7
  6
CONTINUOUS
 10
30870.0534
 20
7387.4622
  0
VERTEX
  8
LAYER1
 62
     7
  6
CONTINUOUS
 10
30870.0534
 20
7597.1282
  0
VERTEX
  8
LAYER1
 62
     7
  6
CONTINUOUS
 10
30870.0534
 20
7784.7143
  0
VERTEX
  8
LAYER1
 62
     7
  6
CONTINUOUS
 10
30881.0925
 20
8005.4039
  0
VERTEX
  8
LAYER1
 62
     7
  6
CONTINUOUS
 10
30881.0925
 20
8336.4474
  0
VERTEX
  8
LAYER1
 62
     7
  6
CONTINUOUS
 10
30914.1977
 20
8645.4260
  0
VERTEX
  8
LAYER1
 62
     7
  6
CONTINUOUS
 10
30936.2614
 20
8910.2603
  0
VERTEX
  8
LAYER1
 62
     7
  6
CONTINUOUS
 10
30936.2614
 20
9108.8867
  0
VERTEX
  8
LAYER1
 62
     7
  6
CONTINUOUS
 10
30947.3005
 20
9495.0986
  0
VERTEX
  8
LAYER1
 62
     7
  6
CONTINUOUS
 10
31035.5746
 20
10013.7426
  0
VERTEX
  8
LAYER1
 62
     7
  6
CONTINUOUS
 10
31079.7188
 20
10532.3555
  0
VERTEX
  8
LAYER1
 62
     7
  6
CONTINUOUS
 10
31057.6551
 20
11238.6011
  0
VERTEX
  8
LAYER1
 62
     7
  6
CONTINUOUS
 10
31112.8383
 20
11746.1751
  0
VERTEX
  8
LAYER1
 62
     7
  6
CONTINUOUS
 10
31168.0073
 20
12353.1075
  0
VERTEX
  8
LAYER1
 62
     7
  6
CONTINUOUS
 10
31223.1762
 20
13125.5480
  0
VERTEX
  8
LAYER1
 62
     7
  6
CONTINUOUS
 10
31245.2400
 20
13600.0322
  0
VERTEX
  8
LAYER1
 62
     7
  6
CONTINUOUS
 10
31344.5532
 20
14251.0791
  0
VERTEX
  8
LAYER1
 62
     7
  6
CONTINUOUS
 10
31421.8169
 20
14703.5150
  0
VERTEX
  8
LAYER1
 62
     7
  6
CONTINUOUS
 10
31499.0353
 20
15155.9212
  0
VERTEX
  8
LAYER1
 62
     7
  6
CONTINUOUS
 10
31543.1796
 20
15575.2687
  0
VERTEX
  8
LAYER1
 62
     7
  6
CONTINUOUS
 10
31510.0744
 20
15961.4800
  0
SEQEND
  8
LAYER1
  0
POLYLINE
  8
LAYER1
 62
     7
 66
     1
  6
CONTINUOUS
  0
VERTEX
  8
LAYER1
 62
     7
  6
CONTINUOUS
 10
16480.7160
 20
15144.9108
  0
VERTEX
  8
LAYER1
 62
     7
  6
CONTINUOUS
 10
16657.2774
 20
14891.0857
  0
VERTEX
  8
LAYER1
 62
     7
  6
CONTINUOUS
 10
17363.4920
 20
14913.1804
  0
VERTEX
  8
LAYER1
 62
     7
  6
CONTINUOUS
 10
18091.7871
 20
14979.3753
  0
VERTEX
  8
LAYER1
 62
     7
  6
CONTINUOUS
 10
18941.4746
 20
15089.7275
  0
VERTEX
  8
LAYER1
 62
     7
  6
CONTINUOUS
 10
19780.1064
 20
15255.2344
  0
VERTEX
  8
LAYER1
 62
     7
  6
CONTINUOUS
 10
20309.7751
 20
15310.4331
  0
VERTEX
  8
LAYER1
 62
     7
  6
CONTINUOUS
 10
21038.0701
 20
15310.4331
  0
VERTEX
  8
LAYER1
 62
     7
  6
CONTINUOUS
 10
21843.6289
 20
15299.3786
  0
VERTEX
  8
LAYER1
 62
     7
  6
CONTINUOUS
 10
22538.8045
 20
15310.4331
  0
VERTEX
  8
LAYER1
 62
     7
  6
CONTINUOUS
 10
23145.7369
 20
15343.5228
  0
VERTEX
  8
LAYER1
 62
     7
  6
CONTINUOUS
 10
23763.6631
 20
15409.7463
  0
VERTEX
  8
LAYER1
 62
     7
  6
CONTINUOUS
 10
24304.3732
 20
15453.8750
  0
VERTEX
  8
LAYER1
 62
     7
  6
CONTINUOUS
 10
24955.4188
 20
15453.8739
  0
VERTEX
  8
LAYER1
 62
     7
  6
CONTINUOUS
 10
25220.2532
 20
15442.8515
  0
VERTEX
  8
LAYER1
 62
     7
  6
CONTINUOUS
 10
25683.7139
 20
15409.7451
  0
VERTEX
  8
LAYER1
 62
     7
  6
CONTINUOUS
 10
25882.3402
 20
15409.7451
  0
VERTEX
  8
LAYER1
 62
     7
  6
CONTINUOUS
 10
25915.4431
 20
15200.0654
  0
VERTEX
  8
LAYER1
 62
     7
  6
CONTINUOUS
 10
25937.5235
 20
14846.9724
  0
VERTEX
  8
LAYER1
 62
     7
  6
CONTINUOUS
 10
25904.4040
 20
14659.3708
  0
VERTEX
  8
LAYER1
 62
     7
  6
CONTINUOUS
 10
25838.1960
 20
14339.3675
  0
VERTEX
  8
LAYER1
 62
     7
  6
CONTINUOUS
 10
25827.1713
 20
14096.5969
  0
VERTEX
  8
LAYER1
 62
     7
  6
CONTINUOUS
 10
25794.0661
 20
13776.5948
  0
VERTEX
  8
LAYER1
 62
     7
  6
CONTINUOUS
 10
25385.7743
 20
13566.9282
  0
VERTEX
  8
LAYER1
 62
     7
  6
CONTINUOUS
 10
25010.5878
 20
13555.9035
  0
VERTEX
  8
LAYER1
 62
     7
  6
CONTINUOUS
 10
24227.1238
 20
13566.9282
  0
VERTEX
  8
LAYER1
 62
     7
  6
CONTINUOUS
 10
23211.9306
 20
13533.8087
  0
VERTEX
  8
LAYER1
 62
     7
  6
CONTINUOUS
 10
22318.1144
 20
13500.7202
  0
VERTEX
  8
LAYER1
 62
     7
  6
CONTINUOUS
 10
21567.7388
 20
13478.6553
  0
VERTEX
  8
LAYER1
 62
     7
  6
CONTINUOUS
 10
20618.7537
 20
13434.5110
  0
VERTEX
  8
LAYER1
 62
     7
  6
CONTINUOUS
 10
19581.4812
 20
13390.3823
  0
VERTEX
  8
LAYER1
 62
     7
  6
CONTINUOUS
 10
18544.2231
 20
13257.9651
  0
VERTEX
  8
LAYER1
 62
     7
  6
CONTINUOUS
 10
17650.4068
 20
13081.4037
  0
VERTEX
  8
LAYER1
 62
     7
  6
CONTINUOUS
 10
17374.5323
 20
13059.3400
  0
VERTEX
  8
LAYER1
 62
     7
  6
CONTINUOUS
 10
16966.2405
 20
13070.3635
  0
VERTEX
  8
LAYER1
 62
     7
  6
CONTINUOUS
 10
16789.6946
 20
13048.2843
  0
SEQEND
  8
LAYER1
  0
POLYLINE
  8
LAYER1
 62
     7
 66
     1
  6
CONTINUOUS
  0
VERTEX
  8
LAYER1
 62
     7
  6
CONTINUOUS
 10
16557.9643
 20
14582.1381
  0
VERTEX
  8
LAYER1
 62
     7
  6
CONTINUOUS
 10
16624.1722
 20
14582.1381
  0
VERTEX
  8
LAYER1
 62
     7
  6
CONTINUOUS
 10
16944.1756
 20
14593.1616
  0
VERTEX
  8
LAYER1
 62
     7
  6
CONTINUOUS
 10
17606.2626
 20
14615.2266
  0
VERTEX
  8
LAYER1
 62
     7
  6
CONTINUOUS
 10
18135.9313
 20
14593.1616
  0
VERTEX
  8
LAYER1
 62
     7
  6
CONTINUOUS
 10
18643.5363
 20
14526.9381
  0
VERTEX
  8
LAYER1
 62
     7
  6
CONTINUOUS
 10
19283.5417
 20
14493.8496
  0
VERTEX
  8
LAYER1
 62
     7
  6
CONTINUOUS
 10
20111.1487
 20
14482.8249
  0
VERTEX
  8
LAYER1
 62
     7
  6
CONTINUOUS
 10
20916.6932
 20
14449.7042
  0
VERTEX
  8
LAYER1
 62
     7
  6
CONTINUOUS
 10
21733.2600
 20
14383.5117
  0
VERTEX
  8
LAYER1
 62
     7
  6
CONTINUOUS
 10
22351.2338
 20
14306.2480
  0
VERTEX
  8
LAYER1
 62
     7
  6
CONTINUOUS
 10
22880.9025
 20
14240.0543
  0
VERTEX
  8
LAYER1
 62
     7
  6
CONTINUOUS
 10
23410.5569
 20
14140.7411
  0
VERTEX
  8
LAYER1
 62
     7
  6
CONTINUOUS
 10
23918.1452
 20
14096.5969
  0
VERTEX
  8
LAYER1
 62
     7
  6
CONTINUOUS
 10
24525.0633
 20
14096.5969
  0
VERTEX
  8
LAYER1
 62
     7
  6
CONTINUOUS
 10
24856.1056
 20
14118.6774
  0
VERTEX
  8
LAYER1
 62
     7
  6
CONTINUOUS
 10
25264.3974
 20
14151.7814
  0
VERTEX
  8
LAYER1
 62
     7
  6
CONTINUOUS
 10
25838.1960
 20
14339.3675
  0
SEQEND
  8
LAYER1
  0
POLYLINE
  8
LAYER1
 62
     7
 66
     1
  6
CONTINUOUS
  0
VERTEX
  8
LAYER1
 62
     7
  6
CONTINUOUS
 10
16977.2807
 20
9307.5125
  0
VERTEX
  8
LAYER1
 62
     7
  6
CONTINUOUS
 10
17517.9897
 20
9351.6567
  0
VERTEX
  8
LAYER1
 62
     7
  6
CONTINUOUS
 10
18279.3887
 20
9351.6567
  0
VERTEX
  8
LAYER1
 62
     7
  6
CONTINUOUS
 10
19217.3337
 20
9406.8256
  0
VERTEX
  8
LAYER1
 62
     7
  6
CONTINUOUS
 10
20133.2292
 20
9417.8659
  0
VERTEX
  8
LAYER1
 62
     7
  6
CONTINUOUS
 10
20971.8622
 20
9406.8256
  0
VERTEX
  8
LAYER1
 62
     7
  6
CONTINUOUS
 10
21909.8226
 20
9384.7607
  0
VERTEX
  8
LAYER1
 62
     7
  6
CONTINUOUS
 10
22836.7583
 20
9329.5774
  0
VERTEX
  8
LAYER1
 62
     7
  6
CONTINUOUS
 10
23752.6240
 20
9296.4722
  0
VERTEX
  8
LAYER1
 62
     7
  6
CONTINUOUS
 10
24646.4403
 20
9230.2636
  0
VERTEX
  8
LAYER1
 62
     7
  6
CONTINUOUS
 10
25264.3974
 20
9119.9257
  0
VERTEX
  8
LAYER1
 62
     7
  6
CONTINUOUS
 10
25981.6677
 20
8998.5339
  0
VERTEX
  8
LAYER1
 62
     7
  6
CONTINUOUS
 10
26996.8490
 20
8877.1563
  0
VERTEX
  8
LAYER1
 62
     7
  6
CONTINUOUS
 10
27592.7257
 20
8932.3247
  0
VERTEX
  8
LAYER1
 62
     7
  6
CONTINUOUS
 10
28332.0765
 20
8954.4051
  0
VERTEX
  8
LAYER1
 62
     7
  6
CONTINUOUS
 10
29038.2911
 20
8987.5085
  0
VERTEX
  8
LAYER1
 62
     7
  6
CONTINUOUS
 10
29556.9207
 20
8998.5339
  0
VERTEX
  8
LAYER1
 62
     7
  6
CONTINUOUS
 10
30252.1106
 20
8998.5339
  0
VERTEX
  8
LAYER1
 62
     7
  6
CONTINUOUS
 10
30936.2614
 20
8910.2603
  0
SEQEND
  8
LAYER1
  0
POLYLINE
  8
LAYER1
 62
     7
 66
     1
  6
CONTINUOUS
  0
VERTEX
  8
LAYER1
 62
     7
  6
CONTINUOUS
 10
17209.0099
 20
7884.0275
  0
VERTEX
  8
LAYER1
 62
     7
  6
CONTINUOUS
 10
17672.4706
 20
8005.4045
  0
VERTEX
  8
LAYER1
 62
     7
  6
CONTINUOUS
 10
18676.6403
 20
7950.2355
  0
VERTEX
  8
LAYER1
 62
     7
  6
CONTINUOUS
 10
19482.1680
 20
7917.1315
  0
VERTEX
  8
LAYER1
 62
     7
  6
CONTINUOUS
 10
20420.1440
 20
7850.9235
  0
VERTEX
  8
LAYER1
 62
     7
  6
CONTINUOUS
 10
21324.9849
 20
7740.5701
  0
VERTEX
  8
LAYER1
 62
     7
  6
CONTINUOUS
 10
22174.6570
 20
7652.2972
  0
VERTEX
  8
LAYER1
 62
     7
  6
CONTINUOUS
 10
23167.7864
 20
7619.1932
  0
VERTEX
  8
LAYER1
 62
     7
  6
CONTINUOUS
 10
24238.1795
 20
7586.0874
  0
VERTEX
  8
LAYER1
 62
     7
  6
CONTINUOUS
 10
25231.3089
 20
7541.9438
  0
VERTEX
  8
LAYER1
 62
     7
  6
CONTINUOUS
 10
26235.4464
 20
7541.9432
  0
VERTEX
  8
LAYER1
 62
     7
  6
CONTINUOUS
 10
27305.8276
 20
7541.9432
  0
VERTEX
  8
LAYER1
 62
     7
  6
CONTINUOUS
 10
28486.5419
 20
7497.8150
  0
VERTEX
  8
LAYER1
 62
     7
  6
CONTINUOUS
 10
29281.0616
 20
7552.9840
  0
VERTEX
  8
LAYER1
 62
     7
  6
CONTINUOUS
 10
29987.2763
 20
7641.2563
  0
VERTEX
  8
LAYER1
 62
     7
  6
CONTINUOUS
 10
30561.0892
 20
7729.5454
  0
VERTEX
  8
LAYER1
 62
     7
  6
CONTINUOUS
 10
30870.0534
 20
7784.7143
  0
SEQEND
  8
LAYER1
  0
POLYLINE
  8
LAYER1
 62
     7
 66
     1
  6
CONTINUOUS
  0
VERTEX
  8
LAYER1
 62
     7
  6
CONTINUOUS
 10
38130.9522
 20
15983.5437
  0
VERTEX
  8
LAYER1
 62
     7
  6
CONTINUOUS
 10
38605.4376
 20
15928.3760
  0
VERTEX
  8
LAYER1
 62
     7
  6
CONTINUOUS
 10
39311.6522
 20
15829.0628
  0
VERTEX
  8
LAYER1
 62
     7
  6
CONTINUOUS
 10
40194.4485
 20
15873.2070
  0
VERTEX
  8
LAYER1
 62
     7
  6
CONTINUOUS
 10
41033.0767
 20
15884.2318
  0
VERTEX
  8
LAYER1
 62
     7
  6
CONTINUOUS
 10
41651.0529
 20
15884.2318
  0
VERTEX
  8
LAYER1
 62
     7
  6
CONTINUOUS
 10
42710.3903
 20
15884.2318
  0
VERTEX
  8
LAYER1
 62
     7
  6
CONTINUOUS
 10
43758.6720
 20
15862.1668
  0
VERTEX
  8
LAYER1
 62
     7
  6
CONTINUOUS
 10
44873.1927
 20
15840.1030
  0
VERTEX
  8
LAYER1
 62
     7
  6
CONTINUOUS
 10
45833.2193
 20
15818.0226
  0
VERTEX
  8
LAYER1
 62
     7
  6
CONTINUOUS
 10
46848.4291
 20
15806.9978
  0
VERTEX
  8
LAYER1
 62
     7
  6
CONTINUOUS
 10
47819.4638
 20
15762.8536
  0
VERTEX
  8
LAYER1
 62
     7
  6
CONTINUOUS
 10
49165.7160
 20
15696.6456
  0
VERTEX
  8
LAYER1
 62
     7
  6
CONTINUOUS
 10
50191.9625
 20
15652.5014
  0
VERTEX
  8
LAYER1
 62
     7
  6
CONTINUOUS
 10
51019.5541
 20
15641.4767
  0
VERTEX
  8
LAYER1
 62
     7
  6
CONTINUOUS
 10
51803.0181
 20
15663.5416
  0
VERTEX
  8
LAYER1
 62
     7
  6
CONTINUOUS
 10
52420.9752
 20
15685.6054
  0
VERTEX
  8
LAYER1
 62
     7
  6
CONTINUOUS
 10
53038.9324
 20
15696.6456
  0
VERTEX
  8
LAYER1
 62
     7
  6
CONTINUOUS
 10
53480.3317
 20
15707.6859
  0
SEQEND
  8
LAYER1
  0
POLYLINE
  8
LAYER1
 62
     7
 66
     1
  6
CONTINUOUS
  0
VERTEX
  8
LAYER1
 62
     7
  6
CONTINUOUS
 10
38130.9522
 20
15983.5437
  0
VERTEX
  8
LAYER1
 62
     7
  6
CONTINUOUS
 10
38086.8080
 20
15542.1635
  0
VERTEX
  8
LAYER1
 62
     7
  6
CONTINUOUS
 10
38164.0407
 20
15001.4546
  0
VERTEX
  8
LAYER1
 62
     7
  6
CONTINUOUS
 10
38208.1849
 20
14262.1038
  0
VERTEX
  8
LAYER1
 62
     7
  6
CONTINUOUS
 10
38241.2901
 20
13489.6955
  0
VERTEX
  8
LAYER1
 62
     7
  6
CONTINUOUS
 10
38241.2901
 20
12562.7753
  0
VERTEX
  8
LAYER1
 62
     7
  6
CONTINUOUS
 10
38329.5619
 20
11227.5621
  0
VERTEX
  8
LAYER1
 62
     7
  6
CONTINUOUS
 10
38428.8750
 20
10256.4976
  0
VERTEX
  8
LAYER1
 62
     7
  6
CONTINUOUS
 10
38550.2520
 20
9230.2642
  0
VERTEX
  8
LAYER1
 62
     7
  6
CONTINUOUS
 10
38616.4767
 20
8314.3830
  0
VERTEX
  8
LAYER1
 62
     7
  6
CONTINUOUS
 10
38682.6704
 20
7685.4012
  0
VERTEX
  8
LAYER1
 62
     7
  6
CONTINUOUS
 10
38726.8146
 20
6659.1672
  0
VERTEX
  8
LAYER1
 62
     7
  6
CONTINUOUS
 10
38726.8146
 20
5511.5568
  0
VERTEX
  8
LAYER1
 62
     7
  6
CONTINUOUS
 10
38737.8536
 20
4220.4879
  0
VERTEX
  8
LAYER1
 62
     7
  6
CONTINUOUS
 10
38781.9835
 20
3381.8403
  0
VERTEX
  8
LAYER1
 62
     7
  6
CONTINUOUS
 10
38859.2472
 20
2642.5050
  0
VERTEX
  8
LAYER1
 62
     7
  6
CONTINUOUS
 10
38892.3358
 20
1903.1861
  0
VERTEX
  8
LAYER1
 62
     7
  6
CONTINUOUS
 10
38925.4409
 20
1362.4770
  0
VERTEX
  8
LAYER1
 62
     7
  6
CONTINUOUS
 10
39002.6880
 20
468.6607
  0
VERTEX
  8
LAYER1
 62
     7
  6
CONTINUOUS
 10
39046.8179
 20
-182.3858
  0
VERTEX
  8
LAYER1
 62
     7
  6
CONTINUOUS
 10
39113.0259
 20
-734.1347
  0
VERTEX
  8
LAYER1
 62
     7
  6
CONTINUOUS
 10
39212.3391
 20
-1341.0368
  0
VERTEX
  8
LAYER1
 62
     7
  6
CONTINUOUS
 10
39289.5885
 20
-1672.0799
  0
VERTEX
  8
LAYER1
 62
     7
  6
CONTINUOUS
 10
39510.2786
 20
-1826.5770
  0
VERTEX
  8
LAYER1
 62
     7
  6
CONTINUOUS
 10
39962.7146
 20
-1992.0987
  0
VERTEX
  8
LAYER1
 62
     7
  6
CONTINUOUS
 10
40889.6384
 20
-2168.6446
  0
VERTEX
  8
LAYER1
 62
     7
  6
CONTINUOUS
 10
41915.8849
 20
-2278.9975
  0
VERTEX
  8
LAYER1
 62
     7
  6
CONTINUOUS
 10
43262.1085
 20
-2378.3104
  0
VERTEX
  8
LAYER1
 62
     7
  6
CONTINUOUS
 10
44211.1080
 20
-2400.3748
  0
VERTEX
  8
LAYER1
 62
     7
  6
CONTINUOUS
 10
44994.5863
 20
-2378.3104
  0
VERTEX
  8
LAYER1
 62
     7
  6
CONTINUOUS
 10
46704.9717
 20
-2334.1662
  0
VERTEX
  8
LAYER1
 62
     7
  6
CONTINUOUS
 10
47709.1259
 20
-2245.8932
  0
VERTEX
  8
LAYER1
 62
     7
  6
CONTINUOUS
 10
49231.9407
 20
-2201.7490
  0
VERTEX
  8
LAYER1
 62
     7
  6
CONTINUOUS
 10
49739.5265
 20
-2157.6203
  0
VERTEX
  8
LAYER1
 62
     7
  6
CONTINUOUS
 10
50887.1381
 20
-1992.0987
  0
VERTEX
  8
LAYER1
 62
     7
  6
CONTINUOUS
 10
51527.1590
 20
-1804.4970
  0
VERTEX
  8
LAYER1
 62
     7
  6
CONTINUOUS
 10
51803.0181
 20
-1230.6995
  0
VERTEX
  8
LAYER1
 62
     7
  6
CONTINUOUS
 10
51891.2922
 20
82.4488
  0
VERTEX
  8
LAYER1
 62
     7
  6
CONTINUOUS
 10
51968.5393
 20
1031.4338
  0
VERTEX
  8
LAYER1
 62
     7
  6
CONTINUOUS
 10
52111.9967
 20
2002.4990
  0
VERTEX
  8
LAYER1
 62
     7
  6
CONTINUOUS
 10
52200.2708
 20
2763.8986
  0
VERTEX
  8
LAYER1
 62
     7
  6
CONTINUOUS
 10
52343.7282
 20
3602.5304
  0
VERTEX
  8
LAYER1
 62
     7
  6
CONTINUOUS
 10
52454.0661
 20
4231.5126
  0
VERTEX
  8
LAYER1
 62
     7
  6
CONTINUOUS
 10
52542.3689
 20
5070.1599
  0
VERTEX
  8
LAYER1
 62
     7
  6
CONTINUOUS
 10
52652.7068
 20
6129.4985
  0
VERTEX
  8
LAYER1
 62
     7
  6
CONTINUOUS
 10
52696.8343
 20
6725.3763
  0
VERTEX
  8
LAYER1
 62
     7
  6
CONTINUOUS
 10
52763.0447
 20
7795.7546
  0
VERTEX
  8
LAYER1
 62
     7
  6
CONTINUOUS
 10
52862.3555
 20
8722.6748
  0
VERTEX
  8
LAYER1
 62
     7
  6
CONTINUOUS
 10
53005.8129
 20
9550.2830
  0
VERTEX
  8
LAYER1
 62
     7
  6
CONTINUOUS
 10
53127.2065
 20
10422.0188
  0
VERTEX
  8
LAYER1
 62
     7
  6
CONTINUOUS
 10
53204.4583
 20
11359.9793
  0
VERTEX
  8
LAYER1
 62
     7
  6
CONTINUOUS
 10
53281.6720
 20
12121.3783
  0
VERTEX
  8
LAYER1
 62
     7
  6
CONTINUOUS
 10
53336.8743
 20
12584.8235
  0
VERTEX
  8
LAYER1
 62
     7
  6
CONTINUOUS
 10
53436.1851
 20
13589.0087
  0
VERTEX
  8
LAYER1
 62
     7
  6
CONTINUOUS
 10
53513.4035
 20
14394.5365
  0
VERTEX
  8
LAYER1
 62
     7
  6
CONTINUOUS
 10
53590.6505
 20
14957.3092
  0
VERTEX
  8
LAYER1
 62
     7
  6
CONTINUOUS
 10
53480.3317
 20
15707.6859
  0
SEQEND
  8
LAYER1
  0
POLYLINE
  8
LAYER1
 62
     7
 66
     1
  6
CONTINUOUS
  0
VERTEX
  8
LAYER1
 62
     7
  6
CONTINUOUS
 10
40823.4280
 20
15166.9769
  0
VERTEX
  8
LAYER1
 62
     7
  6
CONTINUOUS
 10
41165.4975
 20
15200.0654
  0
VERTEX
  8
LAYER1
 62
     7
  6
CONTINUOUS
 10
41982.0953
 20
15244.2097
  0
VERTEX
  8
LAYER1
 62
     7
  6
CONTINUOUS
 10
43096.5873
 20
15299.3786
  0
VERTEX
  8
LAYER1
 62
     7
  6
CONTINUOUS
 10
44001.4402
 20
15299.3786
  0
VERTEX
  8
LAYER1
 62
     7
  6
CONTINUOUS
 10
44729.7353
 20
15354.5619
  0
VERTEX
  8
LAYER1
 62
     7
  6
CONTINUOUS
 10
45435.9666
 20
15387.6671
  0
VERTEX
  8
LAYER1
 62
     7
  6
CONTINUOUS
 10
46164.2616
 20
15431.8113
  0
VERTEX
  8
LAYER1
 62
     7
  6
CONTINUOUS
 10
46881.5153
 20
15431.8113
  0
VERTEX
  8
LAYER1
 62
     7
  6
CONTINUOUS
 10
47786.3729
 20
15332.4981
  0
VERTEX
  8
LAYER1
 62
     7
  6
CONTINUOUS
 10
48404.3300
 20
15266.2889
  0
VERTEX
  8
LAYER1
 62
     7
  6
CONTINUOUS
 10
49000.1948
 20
15255.2344
  0
VERTEX
  8
LAYER1
 62
     7
  6
CONTINUOUS
 10
49419.5113
 20
15244.2097
  0
SEQEND
  8
LAYER1
  0
POLYLINE
  8
LAYER1
 62
     7
 66
     1
  6
CONTINUOUS
  0
VERTEX
  8
LAYER1
 62
     7
  6
CONTINUOUS
 10
40823.4280
 20
15166.9769
  0
VERTEX
  8
LAYER1
 62
     7
  6
CONTINUOUS
 10
40735.1539
 20
15155.9212
  0
VERTEX
  8
LAYER1
 62
     7
  6
CONTINUOUS
 10
40724.1172
 20
15012.4948
  0
VERTEX
  8
LAYER1
 62
     7
  6
CONTINUOUS
 10
40713.0901
 20
14813.8672
  0
VERTEX
  8
LAYER1
 62
     7
  6
CONTINUOUS
 10
40724.1172
 20
14604.2018
  0
VERTEX
  8
LAYER1
 62
     7
  6
CONTINUOUS
 10
40768.2447
 20
14405.5767
  0
VERTEX
  8
LAYER1
 62
     7
  6
CONTINUOUS
 10
41264.8083
 20
14251.0791
  0
VERTEX
  8
LAYER1
 62
     7
  6
CONTINUOUS
 10
41882.7654
 20
14195.9101
  0
VERTEX
  8
LAYER1
 62
     7
  6
CONTINUOUS
 10
43063.4964
 20
14096.5969
  0
VERTEX
  8
LAYER1
 62
     7
  6
CONTINUOUS
 10
43482.8129
 20
14041.4137
  0
VERTEX
  8
LAYER1
 62
     7
  6
CONTINUOUS
 10
44597.3336
 20
13964.1797
  0
VERTEX
  8
LAYER1
 62
     7
  6
CONTINUOUS
 10
45292.5092
 20
13931.0757
  0
VERTEX
  8
LAYER1
 62
     7
  6
CONTINUOUS
 10
46252.5358
 20
13897.9563
  0
VERTEX
  8
LAYER1
 62
     7
  6
CONTINUOUS
 10
46793.2268
 20
13864.8678
  0
VERTEX
  8
LAYER1
 62
     7
  6
CONTINUOUS
 10
47587.7656
 20
13931.0757
  0
VERTEX
  8
LAYER1
 62
     7
  6
CONTINUOUS
 10
48293.9635
 20
14030.3889
  0
VERTEX
  8
LAYER1
 62
     7
  6
CONTINUOUS
 10
48812.5908
 20
14063.4929
  0
VERTEX
  8
LAYER1
 62
     7
  6
CONTINUOUS
 10
49253.9854
 20
14063.4929
  0
VERTEX
  8
LAYER1
 62
     7
  6
CONTINUOUS
 10
49386.4204
 20
14085.5579
  0
VERTEX
  8
LAYER1
 62
     7
  6
CONTINUOUS
 10
49529.8778
 20
14394.5365
  0
VERTEX
  8
LAYER1
 62
     7
  6
CONTINUOUS
 10
49562.9687
 20
14626.2501
  0
VERTEX
  8
LAYER1
 62
     7
  6
CONTINUOUS
 10
49585.0325
 20
14780.7632
  0
VERTEX
  8
LAYER1
 62
     7
  6
CONTINUOUS
 10
49585.0325
 20
15023.5195
  0
VERTEX
  8
LAYER1
 62
     7
  6
CONTINUOUS
 10
49419.5113
 20
15244.2097
  0
SEQEND
  8
LAYER1
  0
POLYLINE
  8
LAYER1
 62
     7
 66
     1
  6
CONTINUOUS
  0
VERTEX
  8
LAYER1
 62
     7
  6
CONTINUOUS
 10
49253.9854
 20
14063.4929
  0
VERTEX
  8
LAYER1
 62
     7
  6
CONTINUOUS
 10
49198.8355
 20
13931.0757
  0
VERTEX
  8
LAYER1
 62
     7
  6
CONTINUOUS
 10
49022.2586
 20
13666.2414
  0
VERTEX
  8
LAYER1
 62
     7
  6
CONTINUOUS
 10
48735.3724
 20
13401.4070
  0
VERTEX
  8
LAYER1
 62
     7
  6
CONTINUOUS
 10
48293.9635
 20
13213.8209
  0
VERTEX
  8
LAYER1
 62
     7
  6
CONTINUOUS
 10
47466.3529
 20
13147.6129
  0
VERTEX
  8
LAYER1
 62
     7
  6
CONTINUOUS
 10
46837.3734
 20
13158.6520
  0
VERTEX
  8
LAYER1
 62
     7
  6
CONTINUOUS
 10
46098.0560
 20
13169.6612
  0
VERTEX
  8
LAYER1
 62
     7
  6
CONTINUOUS
 10
43902.1294
 20
13026.2348
  0
VERTEX
  8
LAYER1
 62
     7
  6
CONTINUOUS
 10
43273.1451
 20
13158.6520
  0
VERTEX
  8
LAYER1
 62
     7
  6
CONTINUOUS
 10
42533.8134
 20
13235.8859
  0
VERTEX
  8
LAYER1
 62
     7
  6
CONTINUOUS
 10
41761.3718
 20
13368.2864
  0
VERTEX
  8
LAYER1
 62
     7
  6
CONTINUOUS
 10
41319.9915
 20
13500.7202
  0
VERTEX
  8
LAYER1
 62
     7
  6
CONTINUOUS
 10
40933.7659
 20
13577.9530
  0
VERTEX
  8
LAYER1
 62
     7
  6
CONTINUOUS
 10
40558.5960
 20
13633.1219
  0
VERTEX
  8
LAYER1
 62
     7
  6
CONTINUOUS
 10
40459.2948
 20
13732.4494
  0
VERTEX
  8
LAYER1
 62
     7
  6
CONTINUOUS
 10
40580.6598
 20
14008.3240
  0
VERTEX
  8
LAYER1
 62
     7
  6
CONTINUOUS
 10
40768.2447
 20
14405.5767
  0
SEQEND
  8
LAYER1
  0
POLYLINE
  8
LAYER1
 62
     7
 66
     1
  6
CONTINUOUS
  0
VERTEX
  8
LAYER1
 62
     7
  6
CONTINUOUS
 10
38550.2520
 20
9230.2642
  0
VERTEX
  8
LAYER1
 62
     7
  6
CONTINUOUS
 10
39102.0011
 20
9594.4118
  0
VERTEX
  8
LAYER1
 62
     7
  6
CONTINUOUS
 10
39885.4652
 20
9484.0738
  0
VERTEX
  8
LAYER1
 62
     7
  6
CONTINUOUS
 10
41088.2790
 20
9417.8659
  0
VERTEX
  8
LAYER1
 62
     7
  6
CONTINUOUS
 10
42489.6859
 20
9351.6567
  0
VERTEX
  8
LAYER1
 62
     7
  6
CONTINUOUS
 10
43184.8567
 20
9219.2395
  0
VERTEX
  8
LAYER1
 62
     7
  6
CONTINUOUS
 10
44431.8124
 20
9075.7821
  0
VERTEX
  8
LAYER1
 62
     7
  6
CONTINUOUS
 10
46020.8042
 20
8866.1167
  0
VERTEX
  8
LAYER1
 62
     7
  6
CONTINUOUS
 10
46704.9717
 20
8766.8035
  0
VERTEX
  8
LAYER1
 62
     7
  6
CONTINUOUS
 10
47863.6199
 20
8645.4266
  0
VERTEX
  8
LAYER1
 62
     7
  6
CONTINUOUS
 10
48647.0696
 20
8501.9692
  0
VERTEX
  8
LAYER1
 62
     7
  6
CONTINUOUS
 10
49783.6731
 20
8391.6325
  0
VERTEX
  8
LAYER1
 62
     7
  6
CONTINUOUS
 10
50511.9682
 20
8292.3193
  0
VERTEX
  8
LAYER1
 62
     7
  6
CONTINUOUS
 10
50931.2656
 20
8237.1348
  0
VERTEX
  8
LAYER1
 62
     7
  6
CONTINUOUS
 10
51516.1223
 20
8204.0308
  0
VERTEX
  8
LAYER1
 62
     7
  6
CONTINUOUS
 10
52100.9600
 20
8159.9021
  0
VERTEX
  8
LAYER1
 62
     7
  6
CONTINUOUS
 10
52432.0023
 20
8137.8216
  0
VERTEX
  8
LAYER1
 62
     7
  6
CONTINUOUS
 10
52763.0447
 20
7795.7546
  0
SEQEND
  8
LAYER1
  0
POLYLINE
  8
LAYER1
 62
     7
 66
     1
  6
CONTINUOUS
  0
VERTEX
  8
LAYER1
 62
     7
  6
CONTINUOUS
 10
38682.6704
 20
7685.4012
  0
VERTEX
  8
LAYER1
 62
     7
  6
CONTINUOUS
 10
38715.7898
 20
7310.2140
  0
VERTEX
  8
LAYER1
 62
     7
  6
CONTINUOUS
 10
39102.0011
 20
7376.4220
  0
VERTEX
  8
LAYER1
 62
     7
  6
CONTINUOUS
 10
40006.8588
 20
7409.5260
  0
VERTEX
  8
LAYER1
 62
     7
  6
CONTINUOUS
 10
41264.8083
 20
7431.6064
  0
VERTEX
  8
LAYER1
 62
     7
  6
CONTINUOUS
 10
42280.0181
 20
7497.8150
  0
VERTEX
  8
LAYER1
 62
     7
  6
CONTINUOUS
 10
43493.8353
 20
7486.7760
  0
VERTEX
  8
LAYER1
 62
     7
  6
CONTINUOUS
 10
44784.9233
 20
7508.8398
  0
VERTEX
  8
LAYER1
 62
     7
  6
CONTINUOUS
 10
45524.2407
 20
7552.9840
  0
VERTEX
  8
LAYER1
 62
     7
  6
CONTINUOUS
 10
46329.7828
 20
7630.2322
  0
VERTEX
  8
LAYER1
 62
     7
  6
CONTINUOUS
 10
47002.8946
 20
7674.3609
  0
VERTEX
  8
LAYER1
 62
     7
  6
CONTINUOUS
 10
48404.3300
 20
7784.7143
  0
VERTEX
  8
LAYER1
 62
     7
  6
CONTINUOUS
 10
49198.8355
 20
7806.7781
  0
VERTEX
  8
LAYER1
 62
     7
  6
CONTINUOUS
 10
49816.7783
 20
7828.8586
  0
VERTEX
  8
LAYER1
 62
     7
  6
CONTINUOUS
 10
50721.6169
 20
7850.9235
  0
VERTEX
  8
LAYER1
 62
     7
  6
CONTINUOUS
 10
51295.4132
 20
7861.9626
  0
VERTEX
  8
LAYER1
 62
     7
  6
CONTINUOUS
 10
51714.7630
 20
7872.9873
  0
VERTEX
  8
LAYER1
 62
     7
  6
CONTINUOUS
 10
52200.2708
 20
7850.9235
  0
VERTEX
  8
LAYER1
 62
     7
  6
CONTINUOUS
 10
52763.0447
 20
7795.7546
  0
SEQEND
  8
LAYER1
  0
POLYLINE
  8
LAYER1
 62
     7
 66
     1
  6
CONTINUOUS
  0
VERTEX
  8
LAYER1
 62
     7
  6
CONTINUOUS
 10
19171.5025
 20
25041.2602
  0
VERTEX
  8
LAYER1
 62
     7
  6
CONTINUOUS
 10
19171.5025
 20
24749.1631
  0
SEQEND
  8
LAYER1
  0
POLYLINE
  8
LAYER1
 62
     7
 66
     1
  6
CONTINUOUS
  0
VERTEX
  8
LAYER1
 62
     7
  6
CONTINUOUS
 10
21908.1214
 20
24749.1631
  0
VERTEX
  8
LAYER1
 62
     7
  6
CONTINUOUS
 10
19171.5025
 20
24749.1631
  0
SEQEND
  8
LAYER1
  0
POLYLINE
  8
LAYER1
 62
     7
 66
     1
  6
CONTINUOUS
  0
VERTEX
  8
LAYER1
 62
     7
  6
CONTINUOUS
 10
49296.6642
 20
22516.6978
  0
VERTEX
  8
LAYER1
 62
     7
  6
CONTINUOUS
 10
49296.6642
 20
27945.8056
  0
SEQEND
  8
LAYER1
  0
POLYLINE
  8
LAYER1
 62
     7
 66
     1
  6
CONTINUOUS
  0
VERTEX
  8
LAYER1
 62
     7
  6
CONTINUOUS
 10
49296.6642
 20
27945.8056
  0
VERTEX
  8
LAYER1
 62
     7
  6
CONTINUOUS
 10
48924.8015
 20
26872.7248
  0
SEQEND
  8
LAYER1
  0
POLYLINE
  8
LAYER1
 62
     7
 66
     1
  6
CONTINUOUS
  0
VERTEX
  8
LAYER1
 62
     7
  6
CONTINUOUS
 10
21908.1214
 20
24749.1631
  0
VERTEX
  8
LAYER1
 62
     7
  6
CONTINUOUS
 10
24644.7390
 20
24749.1607
  0
SEQEND
  8
LAYER1
  0
POLYLINE
  8
LAYER1
 62
     7
 66
     1
  6
CONTINUOUS
  0
VERTEX
  8
LAYER1
 62
     7
  6
CONTINUOUS
 10
24644.7390
 20
25041.2579
  0
VERTEX
  8
LAYER1
 62
     7
  6
CONTINUOUS
 10
24644.7390
 20
24749.1607
  0
SEQEND
  8
LAYER1
  0
ENDSEC
  0
EOF
