  0
SECTION
  2
HEADER
  9
$ACADVER
  1
AC1004
  9
$EXTMIN
 10
-11982.0120
 20
-9106.4492
  9
$EXTMAX
 10
42843.3019
 20
39780.3549
  9
$LIMMIN
 10
-11982.0120
 20
-9106.4492
  9
$LIMMAX
 10
42843.3019
 20
39780.3549
  9
$INSBASE
 10
0.0
 20
0.0
  9
$VIEWCTR
 10
7.21903
 20
4.5
  9
$VIEWSIZE
 40
9.0
  9
$SNAPMODE
 70
     0
  9
$SNAPUNIT
 10
1.0
 20
1.0
  9
$SNAPBASE
 10
0.0
 20
0.0
  9
$SNAPANG
 50
0.0
  9
$SNAPSTYLE
 70
     0
  9
$SNAPISOPAIR
 70
     0
  9
$GRIDMODE
 70
     0
  9
$GRIDUNIT
 10
0.0
 20
0.0
  9
$ORTHOMODE
 70
     0
  9
$REGENMODE
 70
     1
  9
$FILLMODE
 70
     1
  9
$QTEXTMODE
 70
     0
  9
$DRAGMODE
 70
     2
  9
$LTSCALE
 40
1.0
  9
$OSMODE
 70
     0
  9
$ATTMODE
 70
     1
  9
$TEXTSIZE
 40
0.2
  9
$TRACEWID
 40
0.05
  9
$TEXTSTYLE
  7
STANDARD
  9
$CLAYER
  8
0
  9
$CELTYPE
  6
BYLAYER
  9
$CECOLOR
 62
   256
  9
$DIMSCALE
 40
1.0
  9
$DIMASZ
 40
0.18
  9
$DIMEXO
 40
0.0625
  9
$DIMDLI
 40
0.38
  9
$DIMRND
 40
0.0
  9
$DIMDLE
 40
0.0
  9
$DIMEXE
 40
0.18
  9
$DIMTP
 40
0.0
  9
$DIMTM
 40
0.0
  9
$DIMTXT
 40
0.18
  9
$DIMCEN
 40
0.09
  9
$DIMTSZ
 40
0.0
  9
$DIMTOL
 70
     0
  9
$DIMLIM
 70
     0
  9
$DIMTIH
 70
     1
  9
$DIMTOH
 70
     1
  9
$DIMSE1
 70
     0
  9
$DIMSE2
 70
     0
  9
$DIMTAD
 70
     0
  9
$DIMZIN
 70
     0
  9
$DIMBLK
  1

  9
$DIMASO
 70
     1
  9
$DIMSHO
 70
     0
  9
$DIMPOST
  1

  9
$DIMAPOST
  1

  9
$DIMALT
 70
     0
  9
$DIMALTD
 70
     2
  9
$DIMALTF
 40
25.4
  9
$DIMLFAC
 40
1.0
  9
$LUNITS
 70
     2
  9
$LUPREC
 70
     4
  9
$AXISMODE
 70
     0
  9
$AXISUNIT
 10
0.0
 20
0.0
  9
$SKETCHINC
 40
0.1
  9
$FILLETRAD
 40
0.0
  9
$AUNITS
 70
     0
  9
$AUPREC
 70
     0
  9
$MENU
  1
acad
  9
$ELEVATION
 40
0.0
  9
$THICKNESS
 40
0.0
  9
$VIEWDIR
 10
0.0
 20
0.0
 30
1.0
  9
$LIMCHECK
 70
     0
  9
$BLIPMODE
 70
     1
  9
$CHAMFERA
 40
0.0
  9
$CHAMFERB
 40
0.0
  9
$FASTZOOM
 70
     1
  9
$SKPOLY
 70
     0
  9
$TDCREATE
 40
2447222.5666886573
  9
$TDUPDATE
 40
2447222.5666886573
  9
$TDINDWG
 40
0.0000000000
  9
$TDUSRTIMER
 40
0.0000000000
  9
$USRTIMER
 70
     1
  9
$ANGBASE
 50
0.0
  9
$ANGDIR
 70
     0
  9
$PDMODE
 70
     0
  9
$PDSIZE
 40
0.0
  9
$PLINEWID
 40
0.0
  9
$COORDS
 70
     0
  9
$SPLFRAME
 70
     0
  9
$SPLINESEGS
 70
     8
  9
$ATTDIA
 70
     0
  9
$ATTREQ
 70
     1
  9
$USERI1
 70
     0
  9
$USERI2
 70
     0
  9
$USERI3
 70
     0
  9
$USERI4
 70
     0
  9
$USERI5
 70
     0
  9
$USERR1
 40
0.0
  9
$USERR2
 40
0.0
  9
$USERR3
 40
0.0
  9
$USERR4
 40
0.0
  9
$USERR5
 40
0.0
  0
ENDSEC
  0
SECTION
  2
TABLES
  0
TABLE
  2
LTYPE
 70
     13
  0
LTYPE
  2
CONTINUOUS
 70
    64
  3
Solid line
 72
    65
 73
     0
 40
0.0
  0
LTYPE
  2
DASHED
 70
    64
  3
__ __ __ __ __ __ __ __ __ __ __ __ __ __ __
 72
    65
 73
     2
 40
0.75
 49
0.5
 49
-0.25
  0
LTYPE
  2
HIDDEN
 70
    64
  3
_ _ _ _ _ _ _ _ _ _ _ _ _ _ _ _ _ _ _ _ _ _ _
 72
    65
 73
     2
 40
0.375
 49
0.25
 49
-0.125
  0
LTYPE
  2
CENTER
 70
    64
  3
____ _ ____ _ ____ _ ____ _ ____ _ ____ _ ____
 72
    65
 73
     4
 40
2.0
 49
1.25
 49
-0.25
 49
0.25
 49
-0.25
  0
LTYPE
  2
PHANTOM
 70
    64
  3
_____ _ _ _____ _ _ _____ _ _ _____ _ _ ____
 72
    65
 73
     6
 40
2.5
 49
1.25
 49
-0.25
 49
0.25
 49
-0.25
 49
0.25
 49
-0.25
  0
LTYPE
  2
DOT
 70
    64
  3
...............................................
 72
    65
 73
     2
 40
0.25
 49
0.0
 49
-0.25
  0
LTYPE
  2
DASHDOT
 70
    64
  3
__ . __ . __ . __ . __ . __ . __ . __ . __ . __
 72
    65
 73
     4
 40
1.0
 49
0.5
 49
-0.25
 49
0.0
 49
-0.25
  0
LTYPE
  2
BORDER
 70
    64
  3
__ __ . __ __ . __ __ . __ __ . __ __ . __ __
 72
    65
 73
     6
 40
1.75
 49
0.5
 49
-0.25
 49
0.5
 49
-0.25
 49
0.0
 49
-0.25
  0
LTYPE
  2
DIVIDE
 70
    64
  3
__ . . __ . . __ . . __ . . __ . . __ . . __
 72
    65
 73
     6
 40
1.25
 49
0.5
 49
-0.25
 49
0.0
 49
-0.25
 49
0.0
 49
-0.25
  0
LTYPE
  2
DCTYPE1
 70
    64
  3
__ . . __ . . __ . . __ . . __ . . __ . . __
 72
    65
 73
     8
 40
2.5
 49
0.5
 49
-0.25
 49
0.125
 49
-0.25
 49
0.25
 49
-0.25
 49
0.125
 49
-0.25
  0
LTYPE
  2
DCTYPE2
 70
    64
  3
__ . . __ . . __ . . __ . . __ . . __ . . __
 72
    65
 73
     6
 40
2.05
 49
1.0
 49
-0.3
 49
0.15
 49
-0.15
 49
0.15
 49
-0.3
  0
LTYPE
  2
DCTYPE3
 70
    64
  3
__ . . __ . . __ . . __ . . __ . . __ . . __
 72
    65
 73
     6
 40
2.5
 49
0.8
 49
-0.2
 49
0.8
 49
-0.2
 49
0.3
 49
-0.2
  0
LTYPE
  2
DCTYPE4
 70
    64
  3
__ . . __ . . __ . . __ . . __ . . __ . . __
 72
    65
 73
     10
 40
3.97
 49
1.75
 49
-0.3
 49
0.3
 49
-0.3
 49
0.06
 49
-0.3
 49
0.06
 49
-0.3
 49
0.3
 49
-0.3
  0
ENDTAB
  0
TABLE
  2
LAYER
 70
    153
  0
LAYER
  2
LAYER1
 70
 64
 62
     7
  6
CONTINUOUS
  0
ENDTAB
  0
ENDSEC
  0
SECTION
  2
BLOCKS
  0
ENDSEC
  0
SECTION
  2
ENTITIES
  0
POLYLINE
  8
LAYER1
 62
     7
 66
     1
  6
CONTINUOUS
  0
VERTEX
  8
LAYER1
 62
     7
  6
CONTINUOUS
 10
6201.5447
 20
25391.0044
  0
VERTEX
  8
LAYER1
 62
     7
  6
CONTINUOUS
 10
6201.5447
 20
25457.2124
  0
VERTEX
  8
LAYER1
 62
     7
  6
CONTINUOUS
 10
6212.5694
 20
25799.2961
  0
VERTEX
  8
LAYER1
 62
     7
  6
CONTINUOUS
 10
6212.5694
 20
26207.5712
  0
VERTEX
  8
LAYER1
 62
     7
  6
CONTINUOUS
 10
6091.1913
 20
26604.8239
  0
VERTEX
  8
LAYER1
 62
     7
  6
CONTINUOUS
 10
5947.7339
 20
26957.9467
  0
VERTEX
  8
LAYER1
 62
     7
  6
CONTINUOUS
 10
5925.6701
 20
27277.9500
  0
VERTEX
  8
LAYER1
 62
     7
  6
CONTINUOUS
 10
5925.6701
 20
27608.9924
  0
VERTEX
  8
LAYER1
 62
     7
  6
CONTINUOUS
 10
5848.4219
 20
27840.7239
  0
VERTEX
  8
LAYER1
 62
     7
  6
CONTINUOUS
 10
5693.9409
 20
28436.6006
  0
VERTEX
  8
LAYER1
 62
     7
  6
CONTINUOUS
 10
5649.7967
 20
28734.5401
  0
VERTEX
  8
LAYER1
 62
     7
  6
CONTINUOUS
 10
5660.8357
 20
29065.5825
  0
VERTEX
  8
LAYER1
 62
     7
  6
CONTINUOUS
 10
5727.0437
 20
29363.5220
  0
VERTEX
  8
LAYER1
 62
     7
  6
CONTINUOUS
 10
5793.2529
 20
29871.1246
  0
VERTEX
  8
LAYER1
 62
     7
  6
CONTINUOUS
 10
5826.3569
 20
30191.1279
  0
VERTEX
  8
LAYER1
 62
     7
  6
CONTINUOUS
 10
5958.7753
 20
30599.4196
  0
VERTEX
  8
LAYER1
 62
     7
  6
CONTINUOUS
 10
6124.2964
 20
30919.4205
  0
VERTEX
  8
LAYER1
 62
     7
  6
CONTINUOUS
 10
6400.1698
 20
31327.7147
  0
VERTEX
  8
LAYER1
 62
     7
  6
CONTINUOUS
 10
6775.3421
 20
31713.9260
  0
VERTEX
  8
LAYER1
 62
     7
  6
CONTINUOUS
 10
7360.1964
 20
32398.0935
  0
VERTEX
  8
LAYER1
 62
     7
  6
CONTINUOUS
 10
7768.4715
 20
32905.6794
  0
VERTEX
  8
LAYER1
 62
     7
  6
CONTINUOUS
 10
7956.0731
 20
33225.6851
  0
VERTEX
  8
LAYER1
 62
     7
  6
CONTINUOUS
 10
8386.4286
 20
33578.8055
  0
VERTEX
  8
LAYER1
 62
     7
  6
CONTINUOUS
 10
8706.4320
 20
33689.1434
  0
VERTEX
  8
LAYER1
 62
     7
  6
CONTINUOUS
 10
9114.7237
 20
33799.4956
  0
VERTEX
  8
LAYER1
 62
     7
  6
CONTINUOUS
 10
9269.2058
 20
33843.6422
  0
VERTEX
  8
LAYER1
 62
     7
  6
CONTINUOUS
 10
9787.8355
 20
34042.2686
  0
VERTEX
  8
LAYER1
 62
     7
  6
CONTINUOUS
 10
10218.1910
 20
34218.8311
  0
VERTEX
  8
LAYER1
 62
     7
  6
CONTINUOUS
 10
10615.4437
 20
34373.3109
  0
VERTEX
  8
LAYER1
 62
     7
  6
CONTINUOUS
 10
11123.0487
 20
34516.7540
  0
VERTEX
  8
LAYER1
 62
     7
  6
CONTINUOUS
 10
11409.9444
 20
34616.0791
  0
VERTEX
  8
LAYER1
 62
     7
  6
CONTINUOUS
 10
12105.1367
 20
34980.2266
  0
VERTEX
  8
LAYER1
 62
     7
  6
CONTINUOUS
 10
12678.9496
 20
35355.4013
  0
VERTEX
  8
LAYER1
 62
     7
  6
CONTINUOUS
 10
13175.5131
 20
35686.4436
  0
VERTEX
  8
LAYER1
 62
     7
  6
CONTINUOUS
 10
13583.8072
 20
35896.1066
  0
VERTEX
  8
LAYER1
 62
     7
  6
CONTINUOUS
 10
14212.7867
 20
36127.8382
  0
VERTEX
  8
LAYER1
 62
     7
  6
CONTINUOUS
 10
15294.1903
 20
36304.4008
  0
VERTEX
  8
LAYER1
 62
     7
  6
CONTINUOUS
 10
16011.4463
 20
36348.5283
  0
VERTEX
  8
LAYER1
 62
     7
  6
CONTINUOUS
 10
16519.0512
 20
36293.3593
  0
VERTEX
  8
LAYER1
 62
     7
  6
CONTINUOUS
 10
16927.3406
 20
36216.1123
  0
VERTEX
  8
LAYER1
 62
     7
  6
CONTINUOUS
 10
17445.9703
 20
36017.4860
  0
VERTEX
  8
LAYER1
 62
     7
  6
CONTINUOUS
 10
17876.3258
 20
35763.6906
  0
VERTEX
  8
LAYER1
 62
     7
  6
CONTINUOUS
 10
18483.2427
 20
35388.5065
  0
VERTEX
  8
LAYER1
 62
     7
  6
CONTINUOUS
 10
18825.3098
 20
35090.5645
  0
VERTEX
  8
LAYER1
 62
     7
  6
CONTINUOUS
 10
19343.9561
 20
34638.1429
  0
VERTEX
  8
LAYER1
 62
     7
  6
CONTINUOUS
 10
19862.5834
 20
34340.2057
  0
VERTEX
  8
LAYER1
 62
     7
  6
CONTINUOUS
 10
20635.0227
 20
33887.7697
  0
VERTEX
  8
LAYER1
 62
     7
  6
CONTINUOUS
 10
20910.8818
 20
33589.8326
  0
VERTEX
  8
LAYER1
 62
     7
  6
CONTINUOUS
 10
21385.3815
 20
33115.3471
  0
VERTEX
  8
LAYER1
 62
     7
  6
CONTINUOUS
 10
21683.3211
 20
32795.3271
  0
VERTEX
  8
LAYER1
 62
     7
  6
CONTINUOUS
 10
22047.4686
 20
32155.3205
  0
VERTEX
  8
LAYER1
 62
     7
  6
CONTINUOUS
 10
22080.5738
 20
32000.8265
  0
VERTEX
  8
LAYER1
 62
     7
  6
CONTINUOUS
 10
22588.1763
 20
31195.2987
  0
VERTEX
  8
LAYER1
 62
     7
  6
CONTINUOUS
 10
22775.7637
 20
30555.2754
  0
VERTEX
  8
LAYER1
 62
     7
  6
CONTINUOUS
 10
22864.0354
 20
30003.5429
  0
VERTEX
  8
LAYER1
 62
     7
  6
CONTINUOUS
 10
22897.1406
 20
29473.8742
  0
VERTEX
  8
LAYER1
 62
     7
  6
CONTINUOUS
 10
23073.7032
 20
28922.1251
  0
VERTEX
  8
LAYER1
 62
     7
  6
CONTINUOUS
 10
23283.3686
 20
28116.5973
  0
VERTEX
  8
LAYER1
 62
     7
  6
CONTINUOUS
 10
23537.1615
 20
27498.6401
  0
VERTEX
  8
LAYER1
 62
     7
  6
CONTINUOUS
 10
23846.1401
 20
26450.3418
  0
VERTEX
  8
LAYER1
 62
     7
  6
CONTINUOUS
 10
24033.7274
 20
25755.1519
  0
VERTEX
  8
LAYER1
 62
     7
  6
CONTINUOUS
 10
24232.3538
 20
24850.2943
  0
VERTEX
  8
LAYER1
 62
     7
  6
CONTINUOUS
 10
24320.6256
 20
24232.3538
  0
VERTEX
  8
LAYER1
 62
     7
  6
CONTINUOUS
 10
24210.2876
 20
23504.0587
  0
VERTEX
  8
LAYER1
 62
     7
  6
CONTINUOUS
 10
23945.4533
 20
22786.8027
  0
VERTEX
  8
LAYER1
 62
     7
  6
CONTINUOUS
 10
23790.9569
 20
22069.5324
  0
VERTEX
  8
LAYER1
 62
     7
  6
CONTINUOUS
 10
23636.4747
 20
21440.5505
  0
VERTEX
  8
LAYER1
 62
     7
  6
CONTINUOUS
 10
23393.7041
 20
20734.3383
  0
VERTEX
  8
LAYER1
 62
     7
  6
CONTINUOUS
 10
23349.5766
 20
20215.6943
  0
VERTEX
  8
LAYER1
 62
     7
  6
CONTINUOUS
 10
23316.4714
 20
19807.4157
  0
VERTEX
  8
LAYER1
 62
     7
  6
CONTINUOUS
 10
23073.7032
 20
19354.9797
  0
VERTEX
  8
LAYER1
 62
     7
  6
CONTINUOUS
 10
22654.3867
 20
18836.3500
  0
VERTEX
  8
LAYER1
 62
     7
  6
CONTINUOUS
 10
22356.4472
 20
18494.2686
  0
VERTEX
  8
LAYER1
 62
     7
  6
CONTINUOUS
 10
21341.2373
 20
17865.2868
  0
VERTEX
  8
LAYER1
 62
     7
  6
CONTINUOUS
 10
21032.2754
 20
17534.2420
  0
VERTEX
  8
LAYER1
 62
     7
  6
CONTINUOUS
 10
20480.5263
 20
17214.2387
  0
VERTEX
  8
LAYER1
 62
     7
  6
CONTINUOUS
 10
19995.0018
 20
17048.7176
  0
VERTEX
  8
LAYER1
 62
     7
  6
CONTINUOUS
 10
19443.2669
 20
16828.0274
  0
VERTEX
  8
LAYER1
 62
     7
  6
CONTINUOUS
 10
18913.5982
 20
16706.6362
  0
VERTEX
  8
LAYER1
 62
     7
  6
CONTINUOUS
 10
18196.3279
 20
16519.0489
  0
VERTEX
  8
LAYER1
 62
     7
  6
CONTINUOUS
 10
17677.6994
 20
16408.6967
  0
VERTEX
  8
LAYER1
 62
     7
  6
CONTINUOUS
 10
17346.6571
 20
16397.6719
  0
VERTEX
  8
LAYER1
 62
     7
  6
CONTINUOUS
 10
16894.2354
 20
16408.6967
  0
VERTEX
  8
LAYER1
 62
     7
  6
CONTINUOUS
 10
16419.7357
 20
16364.5667
  0
VERTEX
  8
LAYER1
 62
     7
  6
CONTINUOUS
 10
15989.3825
 20
16210.0703
  0
VERTEX
  8
LAYER1
 62
     7
  6
CONTINUOUS
 10
15581.0884
 20
16110.7571
  0
VERTEX
  8
LAYER1
 62
     7
  6
CONTINUOUS
 10
15349.3592
 20
16176.9651
  0
VERTEX
  8
LAYER1
 62
     7
  6
CONTINUOUS
 10
15106.6030
 20
16221.1093
  0
VERTEX
  8
LAYER1
 62
     7
  6
CONTINUOUS
 10
14499.6872
 20
16265.2535
  0
VERTEX
  8
LAYER1
 62
     7
  6
CONTINUOUS
 10
14069.3293
 20
16276.2783
  0
VERTEX
  8
LAYER1
 62
     7
  6
CONTINUOUS
 10
13528.6216
 20
16298.3587
  0
VERTEX
  8
LAYER1
 62
     7
  6
CONTINUOUS
 10
12888.6150
 20
16353.5277
  0
VERTEX
  8
LAYER1
 62
     7
  6
CONTINUOUS
 10
12436.1790
 20
16508.0098
  0
VERTEX
  8
LAYER1
 62
     7
  6
CONTINUOUS
 10
11685.8202
 20
16706.6362
  0
VERTEX
  8
LAYER1
 62
     7
  6
CONTINUOUS
 10
11321.6727
 20
16828.0274
  0
VERTEX
  8
LAYER1
 62
     7
  6
CONTINUOUS
 10
11078.9021
 20
16938.3654
  0
VERTEX
  8
LAYER1
 62
     7
  6
CONTINUOUS
 10
10416.8174
 20
17335.6181
  0
VERTEX
  8
LAYER1
 62
     7
  6
CONTINUOUS
 10
9986.4595
 20
17754.9489
  0
VERTEX
  8
LAYER1
 62
     7
  6
CONTINUOUS
 10
9622.3120
 20
18174.2653
  0
VERTEX
  8
LAYER1
 62
     7
  6
CONTINUOUS
 10
9280.2449
 20
18626.6846
  0
VERTEX
  8
LAYER1
 62
     7
  6
CONTINUOUS
 10
8849.8894
 20
19233.6027
  0
VERTEX
  8
LAYER1
 62
     7
  6
CONTINUOUS
 10
8375.3896
 20
19741.2077
  0
VERTEX
  8
LAYER1
 62
     7
  6
CONTINUOUS
 10
7878.8249
 20
20292.9413
  0
VERTEX
  8
LAYER1
 62
     7
  6
CONTINUOUS
 10
7625.0308
 20
20601.9199
  0
VERTEX
  8
LAYER1
 62
     7
  6
CONTINUOUS
 10
7238.8028
 20
21021.2340
  0
VERTEX
  8
LAYER1
 62
     7
  6
CONTINUOUS
 10
6841.5513
 20
21705.3849
  0
VERTEX
  8
LAYER1
 62
     7
  6
CONTINUOUS
 10
6786.3823
 20
21915.0502
  0
VERTEX
  8
LAYER1
 62
     7
  6
CONTINUOUS
 10
6642.9261
 20
22334.3667
  0
VERTEX
  8
LAYER1
 62
     7
  6
CONTINUOUS
 10
6356.0256
 20
22808.8665
  0
VERTEX
  8
LAYER1
 62
     7
  6
CONTINUOUS
 10
6146.3602
 20
23327.4961
  0
VERTEX
  8
LAYER1
 62
     7
  6
CONTINUOUS
 10
6091.1913
 20
23724.7489
  0
VERTEX
  8
LAYER1
 62
     7
  6
CONTINUOUS
 10
6036.0235
 20
24243.3928
  0
VERTEX
  8
LAYER1
 62
     7
  6
CONTINUOUS
 10
6002.9195
 20
24640.6455
  0
VERTEX
  8
LAYER1
 62
     7
  6
CONTINUOUS
 10
6047.0470
 20
25093.0648
  0
VERTEX
  8
LAYER1
 62
     7
  6
CONTINUOUS
 10
6201.5447
 20
25391.0044
  0
SEQEND
  8
LAYER1
  0
POLYLINE
  8
LAYER1
 62
     7
 66
     1
  6
HIDDEN
  0
VERTEX
  8
LAYER1
 62
     7
  6
HIDDEN
 10
8375.3896
 20
19741.2077
  0
VERTEX
  8
LAYER1
 62
     7
  6
HIDDEN
 10
8143.6581
 20
19410.1629
  0
VERTEX
  8
LAYER1
 62
     7
  6
HIDDEN
 10
8474.7028
 20
18770.1420
  0
VERTEX
  8
LAYER1
 62
     7
  6
HIDDEN
 10
8993.3325
 20
18030.8079
  0
VERTEX
  8
LAYER1
 62
     7
  6
HIDDEN
 10
9534.0402
 20
17335.6181
  0
VERTEX
  8
LAYER1
 62
     7
  6
HIDDEN
 10
9931.2905
 20
16794.9246
  0
VERTEX
  8
LAYER1
 62
     7
  6
HIDDEN
 10
10416.8174
 20
16342.4887
  0
VERTEX
  8
LAYER1
 62
     7
  6
HIDDEN
 10
10615.4437
 20
16188.0065
  0
VERTEX
  8
LAYER1
 62
     7
  6
HIDDEN
 10
11012.6941
 20
16066.6296
  0
VERTEX
  8
LAYER1
 62
     7
  6
HIDDEN
 10
11619.6122
 20
15978.3411
  0
VERTEX
  8
LAYER1
 62
     7
  6
HIDDEN
 10
12226.5279
 20
15956.2750
  0
VERTEX
  8
LAYER1
 62
     7
  6
HIDDEN
 10
12645.8444
 20
15956.2750
  0
VERTEX
  8
LAYER1
 62
     7
  6
HIDDEN
 10
13043.0971
 20
16000.4192
  0
VERTEX
  8
LAYER1
 62
     7
  6
HIDDEN
 10
13528.6216
 20
16298.3587
  0
SEQEND
  8
LAYER1
  0
POLYLINE
  8
LAYER1
 62
     7
 66
     1
  6
HIDDEN
  0
VERTEX
  8
LAYER1
 62
     7
  6
HIDDEN
 10
23316.4714
 20
19807.4157
  0
VERTEX
  8
LAYER1
 62
     7
  6
HIDDEN
 10
23570.2667
 20
20370.1907
  0
VERTEX
  8
LAYER1
 62
     7
  6
HIDDEN
 10
23912.3505
 20
21065.3782
  0
VERTEX
  8
LAYER1
 62
     7
  6
HIDDEN
 10
24188.2096
 20
21881.9474
  0
VERTEX
  8
LAYER1
 62
     7
  6
HIDDEN
 10
24419.9387
 20
22610.2425
  0
VERTEX
  8
LAYER1
 62
     7
  6
HIDDEN
 10
24684.7731
 20
23415.7846
  0
VERTEX
  8
LAYER1
 62
     7
  6
HIDDEN
 10
25093.0648
 20
24210.2876
  0
VERTEX
  8
LAYER1
 62
     7
  6
HIDDEN
 10
25677.9025
 20
25037.8959
  0
VERTEX
  8
LAYER1
 62
     7
  6
HIDDEN
 10
26075.1695
 20
25799.2961
  0
VERTEX
  8
LAYER1
 62
     7
  6
HIDDEN
 10
26019.9862
 20
26615.8629
  0
VERTEX
  8
LAYER1
 62
     7
  6
HIDDEN
 10
25799.2961
 20
27542.7844
  0
VERTEX
  8
LAYER1
 62
     7
  6
HIDDEN
 10
25203.4170
 20
28657.2907
  0
VERTEX
  8
LAYER1
 62
     7
  6
HIDDEN
 10
24728.9173
 20
29540.0822
  0
VERTEX
  8
LAYER1
 62
     7
  6
HIDDEN
 10
23934.4143
 20
30676.6523
  0
VERTEX
  8
LAYER1
 62
     7
  6
HIDDEN
 10
23404.7455
 20
31603.5738
  0
VERTEX
  8
LAYER1
 62
     7
  6
HIDDEN
 10
22841.9717
 20
32320.8417
  0
VERTEX
  8
LAYER1
 62
     7
  6
HIDDEN
 10
22235.0536
 20
33126.3886
  0
VERTEX
  8
LAYER1
 62
     7
  6
HIDDEN
 10
21572.9832
 20
33843.6422
  0
VERTEX
  8
LAYER1
 62
     7
  6
HIDDEN
 10
20866.7543
 20
34527.7907
  0
VERTEX
  8
LAYER1
 62
     7
  6
HIDDEN
 10
20226.7310
 20
35068.5008
  0
VERTEX
  8
LAYER1
 62
     7
  6
HIDDEN
 10
19277.7458
 20
35774.7178
  0
VERTEX
  8
LAYER1
 62
     7
  6
HIDDEN
 10
18361.8515
 20
36315.4231
  0
VERTEX
  8
LAYER1
 62
     7
  6
HIDDEN
 10
17710.8046
 20
36723.7172
  0
VERTEX
  8
LAYER1
 62
     7
  6
HIDDEN
 10
16894.2354
 20
37109.9285
  0
VERTEX
  8
LAYER1
 62
     7
  6
HIDDEN
 10
16519.0512
 20
37319.5963
  0
VERTEX
  8
LAYER1
 62
     7
  6
HIDDEN
 10
16011.4463
 20
37463.0537
  0
VERTEX
  8
LAYER1
 62
     7
  6
HIDDEN
 10
15470.7505
 20
37540.2865
  0
VERTEX
  8
LAYER1
 62
     7
  6
HIDDEN
 10
14290.0195
 20
37440.9709
  0
VERTEX
  8
LAYER1
 62
     7
  6
HIDDEN
 10
13661.0400
 20
37330.6330
  0
VERTEX
  8
LAYER1
 62
     7
  6
HIDDEN
 10
12568.5974
 20
36778.8862
  0
VERTEX
  8
LAYER1
 62
     7
  6
HIDDEN
 10
11840.3023
 20
36337.5059
  0
VERTEX
  8
LAYER1
 62
     7
  6
HIDDEN
 10
11321.6727
 20
35984.3808
  0
VERTEX
  8
LAYER1
 62
     7
  6
HIDDEN
 10
10438.8955
 20
35399.5431
  0
VERTEX
  8
LAYER1
 62
     7
  6
HIDDEN
 10
9986.4595
 20
35079.5279
  0
VERTEX
  8
LAYER1
 62
     7
  6
HIDDEN
 10
9313.3501
 20
34582.9596
  0
VERTEX
  8
LAYER1
 62
     7
  6
HIDDEN
 10
8772.6423
 20
34185.7069
  0
VERTEX
  8
LAYER1
 62
     7
  6
HIDDEN
 10
8430.5586
 20
33887.7697
  0
VERTEX
  8
LAYER1
 62
     7
  6
HIDDEN
 10
8176.7633
 20
33611.9106
  0
VERTEX
  8
LAYER1
 62
     7
  6
HIDDEN
 10
7956.0731
 20
33225.6851
  0
SEQEND
  8
LAYER1
  0
POLYLINE
  8
LAYER1
 62
     7
 66
     1
  6
CONTINUOUS
  0
VERTEX
  8
LAYER1
 62
     7
  6
CONTINUOUS
 10
16530.0903
 20
28149.7025
  0
VERTEX
  8
LAYER1
 62
     7
  6
CONTINUOUS
 10
16607.3230
 20
28171.7662
  0
VERTEX
  8
LAYER1
 62
     7
  6
CONTINUOUS
 10
17136.9917
 20
28260.0380
  0
VERTEX
  8
LAYER1
 62
     7
  6
CONTINUOUS
 10
17611.4915
 20
28260.0380
  0
VERTEX
  8
LAYER1
 62
     7
  6
CONTINUOUS
 10
18019.7820
 20
28171.7662
  0
VERTEX
  8
LAYER1
 62
     7
  6
CONTINUOUS
 10
18328.7463
 20
28028.3088
  0
VERTEX
  8
LAYER1
 62
     7
  6
CONTINUOUS
 10
18582.5559
 20
27708.3055
  0
VERTEX
  8
LAYER1
 62
     7
  6
CONTINUOUS
 10
18659.7886
 20
27266.9086
  0
VERTEX
  8
LAYER1
 62
     7
  6
CONTINUOUS
 10
18670.8300
 20
26549.6550
  0
VERTEX
  8
LAYER1
 62
     7
  6
CONTINUOUS
 10
18637.7249
 20
25942.7368
  0
VERTEX
  8
LAYER1
 62
     7
  6
CONTINUOUS
 10
18527.3726
 20
25236.5222
  0
VERTEX
  8
LAYER1
 62
     7
  6
CONTINUOUS
 10
18317.7215
 20
24993.7517
  0
VERTEX
  8
LAYER1
 62
     7
  6
CONTINUOUS
 10
17788.0540
 20
24717.8926
  0
VERTEX
  8
LAYER1
 62
     7
  6
CONTINUOUS
 10
17170.0945
 20
24651.6679
  0
VERTEX
  8
LAYER1
 62
     7
  6
CONTINUOUS
 10
16541.1150
 20
24883.3994
  0
VERTEX
  8
LAYER1
 62
     7
  6
CONTINUOUS
 10
16110.7571
 20
25225.4832
  0
VERTEX
  8
LAYER1
 62
     7
  6
CONTINUOUS
 10
15768.6900
 20
25843.4237
  0
VERTEX
  8
LAYER1
 62
     7
  6
CONTINUOUS
 10
15669.3769
 20
26262.7568
  0
VERTEX
  8
LAYER1
 62
     7
  6
CONTINUOUS
 10
15691.4406
 20
26693.1124
  0
VERTEX
  8
LAYER1
 62
     7
  6
CONTINUOUS
 10
15812.8200
 20
27090.3627
  0
VERTEX
  8
LAYER1
 62
     7
  6
CONTINUOUS
 10
15967.3164
 20
27421.4074
  0
VERTEX
  8
LAYER1
 62
     7
  6
CONTINUOUS
 10
16088.6933
 20
27664.1613
  0
VERTEX
  8
LAYER1
 62
     7
  6
CONTINUOUS
 10
16530.0903
 20
28149.7025
  0
SEQEND
  8
LAYER1
  0
POLYLINE
  8
LAYER1
 62
     7
 66
     1
  6
CONTINUOUS
  0
VERTEX
  8
LAYER1
 62
     7
  6
CONTINUOUS
 10
13672.0790
 20
36911.3022
  0
VERTEX
  8
LAYER1
 62
     7
  6
CONTINUOUS
 10
13892.7691
 20
36966.4711
  0
VERTEX
  8
LAYER1
 62
     7
  6
CONTINUOUS
 10
14234.8529
 20
37043.7182
  0
VERTEX
  8
LAYER1
 62
     7
  6
CONTINUOUS
 10
14455.5430
 20
37231.3079
  0
VERTEX
  8
LAYER1
 62
     7
  6
CONTINUOUS
 10
14543.8315
 20
37727.8857
  0
VERTEX
  8
LAYER1
 62
     7
  6
CONTINUOUS
 10
14455.5430
 20
38047.8914
  0
VERTEX
  8
LAYER1
 62
     7
  6
CONTINUOUS
 10
14245.8919
 20
38279.6182
  0
VERTEX
  8
LAYER1
 62
     7
  6
CONTINUOUS
 10
13970.0185
 20
38389.9561
  0
VERTEX
  8
LAYER1
 62
     7
  6
CONTINUOUS
 10
13550.7021
 20
38434.1027
  0
VERTEX
  8
LAYER1
 62
     7
  6
CONTINUOUS
 10
13385.1809
 20
38345.8285
  0
VERTEX
  8
LAYER1
 62
     7
  6
CONTINUOUS
 10
13098.2661
 20
38025.8085
  0
VERTEX
  8
LAYER1
 62
     7
  6
CONTINUOUS
 10
12976.8867
 20
37694.7662
  0
VERTEX
  8
LAYER1
 62
     7
  6
CONTINUOUS
 10
12965.8501
 20
37474.0761
  0
VERTEX
  8
LAYER1
 62
     7
  6
CONTINUOUS
 10
13087.2413
 20
37220.2808
  0
VERTEX
  8
LAYER1
 62
     7
  6
CONTINUOUS
 10
13329.9976
 20
36955.4488
  0
VERTEX
  8
LAYER1
 62
     7
  6
CONTINUOUS
 10
13572.7658
 20
36878.1970
  0
VERTEX
  8
LAYER1
 62
     7
  6
CONTINUOUS
 10
13672.0790
 20
36911.3022
  0
SEQEND
  8
LAYER1
  0
POLYLINE
  8
LAYER1
 62
     7
 66
     1
  6
CONTINUOUS
  0
VERTEX
  8
LAYER1
 62
     7
  6
CONTINUOUS
 10
9169.8927
 20
38919.6248
  0
VERTEX
  8
LAYER1
 62
     7
  6
CONTINUOUS
 10
9059.5404
 20
39162.3977
  0
VERTEX
  8
LAYER1
 62
     7
  6
CONTINUOUS
 10
9092.6433
 20
39460.3349
  0
VERTEX
  8
LAYER1
 62
     7
  6
CONTINUOUS
 10
9478.8712
 20
39747.2354
  0
VERTEX
  8
LAYER1
 62
     7
  6
CONTINUOUS
 10
9876.1239
 20
39780.3549
  0
VERTEX
  8
LAYER1
 62
     7
  6
CONTINUOUS
 10
10129.9169
 20
39614.8147
  0
VERTEX
  8
LAYER1
 62
     7
  6
CONTINUOUS
 10
10372.6875
 20
39239.6448
  0
VERTEX
  8
LAYER1
 62
     7
  6
CONTINUOUS
 10
10339.5847
 20
38985.8352
  0
VERTEX
  8
LAYER1
 62
     7
  6
CONTINUOUS
 10
10140.9583
 20
38798.2502
  0
VERTEX
  8
LAYER1
 62
     7
  6
CONTINUOUS
 10
9843.0188
 20
38643.7657
  0
VERTEX
  8
LAYER1
 62
     7
  6
CONTINUOUS
 10
9578.1844
 20
38632.7290
  0
VERTEX
  8
LAYER1
 62
     7
  6
CONTINUOUS
 10
9401.6218
 20
38687.9123
  0
VERTEX
  8
LAYER1
 62
     7
  6
CONTINUOUS
 10
9258.1644
 20
38809.2869
  0
VERTEX
  8
LAYER1
 62
     7
  6
CONTINUOUS
 10
9169.8927
 20
38919.6248
  0
SEQEND
  8
LAYER1
  0
POLYLINE
  8
LAYER1
 62
     7
 66
     1
  6
CONTINUOUS
  0
VERTEX
  8
LAYER1
 62
     7
  6
CONTINUOUS
 10
9633.3534
 20
36105.7744
  0
VERTEX
  8
LAYER1
 62
     7
  6
CONTINUOUS
 10
9423.6880
 20
36149.9019
  0
VERTEX
  8
LAYER1
 62
     7
  6
CONTINUOUS
 10
9191.9564
 20
36083.6963
  0
VERTEX
  8
LAYER1
 62
     7
  6
CONTINUOUS
 10
9037.4743
 20
35995.4222
  0
VERTEX
  8
LAYER1
 62
     7
  6
CONTINUOUS
 10
8827.8089
 20
35719.5488
  0
VERTEX
  8
LAYER1
 62
     7
  6
CONTINUOUS
 10
8849.8894
 20
35355.4013
  0
VERTEX
  8
LAYER1
 62
     7
  6
CONTINUOUS
 10
9357.4800
 20
35167.8163
  0
VERTEX
  8
LAYER1
 62
     7
  6
CONTINUOUS
 10
9611.2896
 20
35278.1495
  0
VERTEX
  8
LAYER1
 62
     7
  6
CONTINUOUS
 10
9854.0435
 20
35587.1281
  0
VERTEX
  8
LAYER1
 62
     7
  6
CONTINUOUS
 10
9909.2268
 20
35829.9010
  0
VERTEX
  8
LAYER1
 62
     7
  6
CONTINUOUS
 10
9843.0188
 20
36006.4445
  0
VERTEX
  8
LAYER1
 62
     7
  6
CONTINUOUS
 10
9633.3534
 20
36105.7744
  0
SEQEND
  8
LAYER1
  0
POLYLINE
  8
LAYER1
 62
     7
 66
     1
  6
CONTINUOUS
  0
VERTEX
  8
LAYER1
 62
     7
  6
CONTINUOUS
 10
37623.4712
 20
19399.5457
  0
VERTEX
  8
LAYER1
 62
     7
  6
CONTINUOUS
 10
37623.4712
 20
13849.0609
  0
SEQEND
  8
LAYER1
  0
POLYLINE
  8
LAYER1
 62
     7
 66
     1
  6
CONTINUOUS
  0
VERTEX
  8
LAYER1
 62
     7
  6
CONTINUOUS
 10
-6782.2620
 20
16259.4779
  0
VERTEX
  8
LAYER1
 62
     7
  6
CONTINUOUS
 10
-1286.9463
 20
16259.4767
  0
SEQEND
  8
LAYER1
  0
POLYLINE
  8
LAYER1
 62
     3
 66
     1
  6
CONTINUOUS
  0
VERTEX
  8
LAYER1
 62
     3
  6
CONTINUOUS
 10
5131.1670
 20
25446.1733
  0
VERTEX
  8
LAYER1
 62
     3
  6
CONTINUOUS
 10
7823.6559
 20
25446.1733
  0
SEQEND
  8
LAYER1
  0
POLYLINE
  8
LAYER1
 62
     3
 66
     1
  6
CONTINUOUS
  0
VERTEX
  8
LAYER1
 62
     3
  6
CONTINUOUS
 10
23272.3272
 20
25446.1733
  0
VERTEX
  8
LAYER1
 62
     3
  6
CONTINUOUS
 10
26207.5712
 20
25446.1733
  0
SEQEND
  8
LAYER1
  0
POLYLINE
  8
LAYER1
 62
     3
 66
     1
  6
CONTINUOUS
  0
VERTEX
  8
LAYER1
 62
     3
  6
CONTINUOUS
 10
16519.0512
 20
17457.0093
  0
VERTEX
  8
LAYER1
 62
     3
  6
CONTINUOUS
 10
16519.0512
 20
14896.9376
  0
SEQEND
  8
LAYER1
  0
POLYLINE
  8
LAYER1
 62
     3
 66
     1
  6
CONTINUOUS
  0
VERTEX
  8
LAYER1
 62
     3
  6
CONTINUOUS
 10
16519.0512
 20
38367.8923
  0
VERTEX
  8
LAYER1
 62
     3
  6
CONTINUOUS
 10
16519.0512
 20
34969.1900
  0
SEQEND
  8
LAYER1
  0
POLYLINE
  8
LAYER1
 62
     7
 66
     1
  6
CONTINUOUS
  0
VERTEX
  8
LAYER1
 62
     7
  6
CONTINUOUS
 10
-11143.3635
 20
6032.0891
  0
VERTEX
  8
LAYER1
 62
     7
  6
CONTINUOUS
 10
-10878.5292
 20
6032.0891
  0
VERTEX
  8
LAYER1
 62
     7
  6
CONTINUOUS
 10
-10282.6513
 20
5998.9839
  0
VERTEX
  8
LAYER1
 62
     7
  6
CONTINUOUS
 10
-9554.3568
 20
5998.9839
  0
VERTEX
  8
LAYER1
 62
     7
  6
CONTINUOUS
 10
-8980.5433
 20
6010.0086
  0
VERTEX
  8
LAYER1
 62
     7
  6
CONTINUOUS
 10
-8263.2885
 20
5976.9201
  0
VERTEX
  8
LAYER1
 62
     7
  6
CONTINUOUS
 10
-7645.3468
 20
5888.6317
  0
VERTEX
  8
LAYER1
 62
     7
  6
CONTINUOUS
 10
-6917.0524
 20
5756.2139
  0
VERTEX
  8
LAYER1
 62
     7
  6
CONTINUOUS
 10
-6089.4447
 20
5656.9007
  0
VERTEX
  8
LAYER1
 62
     7
  6
CONTINUOUS
 10
-5283.9015
 20
5513.4433
  0
VERTEX
  8
LAYER1
 62
     7
  6
CONTINUOUS
 10
-4467.3340
 20
5414.1468
  0
VERTEX
  8
LAYER1
 62
     7
  6
CONTINUOUS
 10
-4036.9773
 20
5336.8986
  0
VERTEX
  8
LAYER1
 62
     7
  6
CONTINUOUS
 10
-3341.7875
 20
5270.6894
  0
VERTEX
  8
LAYER1
 62
     7
  6
CONTINUOUS
 10
-2734.8693
 20
5138.2722
  0
VERTEX
  8
LAYER1
 62
     7
  6
CONTINUOUS
 10
-1730.7152
 20
4851.3583
  0
VERTEX
  8
LAYER1
 62
     7
  6
CONTINUOUS
 10
-1046.5501
 20
4674.8124
  0
VERTEX
  8
LAYER1
 62
     7
  6
CONTINUOUS
 10
31.3544
 20
4365.8327
  0
VERTEX
  8
LAYER1
 62
     7
  6
CONTINUOUS
 10
983.8373
 20
4244.4557
  0
VERTEX
  8
LAYER1
 62
     7
  6
CONTINUOUS
 10
2296.9854
 20
4178.2465
  0
VERTEX
  8
LAYER1
 62
     7
  6
CONTINUOUS
 10
3543.9089
 20
4167.2075
  0
VERTEX
  8
LAYER1
 62
     7
  6
CONTINUOUS
 10
4923.2508
 20
4156.1827
  0
VERTEX
  8
LAYER1
 62
     7
  6
CONTINUOUS
 10
6247.4378
 20
4266.5207
  0
VERTEX
  8
LAYER1
 62
     7
  6
CONTINUOUS
 10
7273.6569
 20
4321.6884
  0
VERTEX
  8
LAYER1
 62
     7
  6
CONTINUOUS
 10
8255.7616
 20
4409.9781
  0
VERTEX
  8
LAYER1
 62
     7
  6
CONTINUOUS
 10
9149.5778
 20
4421.0171
  0
VERTEX
  8
LAYER1
 62
     7
  6
CONTINUOUS
 10
10275.1232
 20
4365.8327
  0
VERTEX
  8
LAYER1
 62
     7
  6
CONTINUOUS
 10
10959.2740
 20
4365.8327
  0
SEQEND
  8
LAYER1
  0
POLYLINE
  8
LAYER1
 62
     7
 66
     1
  6
CONTINUOUS
  0
VERTEX
  8
LAYER1
 62
     7
  6
CONTINUOUS
 10
-10282.6513
 20
5998.9839
  0
VERTEX
  8
LAYER1
 62
     7
  6
CONTINUOUS
 10
-10183.3393
 20
6043.1281
  0
VERTEX
  8
LAYER1
 62
     7
  6
CONTINUOUS
 10
-10459.2127
 20
5524.4847
  0
VERTEX
  8
LAYER1
 62
     7
  6
CONTINUOUS
 10
-10635.7753
 20
5215.5062
  0
VERTEX
  8
LAYER1
 62
     7
  6
CONTINUOUS
 10
-10867.4890
 20
4564.4590
  0
VERTEX
  8
LAYER1
 62
     7
  6
CONTINUOUS
 10
-11121.2998
 20
3946.5174
  0
VERTEX
  8
LAYER1
 62
     7
  6
CONTINUOUS
 10
-11463.3823
 20
3118.9094
  0
VERTEX
  8
LAYER1
 62
     7
  6
CONTINUOUS
 10
-11706.1374
 20
2302.3258
  0
VERTEX
  8
LAYER1
 62
     7
  6
CONTINUOUS
 10
-11904.7626
 20
1397.4849
  0
VERTEX
  8
LAYER1
 62
     7
  6
CONTINUOUS
 10
-11982.0120
 20
393.3159
  0
VERTEX
  8
LAYER1
 62
     7
  6
CONTINUOUS
 10
-11970.9718
 20
-743.2702
  0
VERTEX
  8
LAYER1
 62
     7
  6
CONTINUOUS
 10
-11959.9316
 20
-1670.1755
  0
VERTEX
  8
LAYER1
 62
     7
  6
CONTINUOUS
 10
-11982.0120
 20
-2387.4458
  0
VERTEX
  8
LAYER1
 62
     7
  6
CONTINUOUS
 10
-11915.8028
 20
-3204.0131
  0
VERTEX
  8
LAYER1
 62
     7
  6
CONTINUOUS
 10
-11838.5546
 20
-3932.3081
  0
VERTEX
  8
LAYER1
 62
     7
  6
CONTINUOUS
 10
-11750.2817
 20
-4561.2903
  0
VERTEX
  8
LAYER1
 62
     7
  6
CONTINUOUS
 10
-11639.9283
 20
-5300.6250
  0
VERTEX
  8
LAYER1
 62
     7
  6
CONTINUOUS
 10
-11595.7995
 20
-5819.2535
  0
VERTEX
  8
LAYER1
 62
     7
  6
CONTINUOUS
 10
-11518.5513
 20
-6359.9624
  0
VERTEX
  8
LAYER1
 62
     7
  6
CONTINUOUS
 10
-11452.3421
 20
-6657.9014
  0
VERTEX
  8
LAYER1
 62
     7
  6
CONTINUOUS
 10
-11055.0906
 20
-6757.2145
  0
VERTEX
  8
LAYER1
 62
     7
  6
CONTINUOUS
 10
-10304.7318
 20
-6746.1743
  0
VERTEX
  8
LAYER1
 62
     7
  6
CONTINUOUS
 10
-9289.5225
 20
-6768.2542
  0
VERTEX
  8
LAYER1
 62
     7
  6
CONTINUOUS
 10
-8395.7063
 20
-6812.3829
  0
VERTEX
  8
LAYER1
 62
     7
  6
CONTINUOUS
 10
-7546.0337
 20
-6746.1743
  0
VERTEX
  8
LAYER1
 62
     7
  6
CONTINUOUS
 10
-6861.8840
 20
-6547.5485
  0
VERTEX
  8
LAYER1
 62
     7
  6
CONTINUOUS
 10
-6067.3649
 20
-6326.8590
  0
VERTEX
  8
LAYER1
 62
     7
  6
CONTINUOUS
 10
-5041.1470
 20
-6194.4418
  0
VERTEX
  8
LAYER1
 62
     7
  6
CONTINUOUS
 10
-4688.0239
 20
-6282.7142
  0
VERTEX
  8
LAYER1
 62
     7
  6
CONTINUOUS
 10
-4279.7479
 20
-6580.6531
  0
VERTEX
  8
LAYER1
 62
     7
  6
CONTINUOUS
 10
-3860.4159
 20
-7011.0087
  0
VERTEX
  8
LAYER1
 62
     7
  6
CONTINUOUS
 10
-3154.2013
 20
-7838.6169
  0
VERTEX
  8
LAYER1
 62
     7
  6
CONTINUOUS
 10
-2646.5964
 20
-8379.3258
  0
VERTEX
  8
LAYER1
 62
     7
  6
CONTINUOUS
 10
-2249.3449
 20
-8809.6813
  0
VERTEX
  8
LAYER1
 62
     7
  6
CONTINUOUS
 10
-1929.3416
 20
-9052.4519
  0
VERTEX
  8
LAYER1
 62
     7
  6
CONTINUOUS
 10
-1278.2792
 20
-9085.5559
  0
VERTEX
  8
LAYER1
 62
     7
  6
CONTINUOUS
 10
-583.0894
 20
-9063.4761
  0
VERTEX
  8
LAYER1
 62
     7
  6
CONTINUOUS
 10
45.8924
 20
-9008.3077
  0
VERTEX
  8
LAYER1
 62
     7
  6
CONTINUOUS
 10
663.8340
 20
-8732.4331
  0
VERTEX
  8
LAYER1
 62
     7
  6
CONTINUOUS
 10
1005.9178
 20
-8511.7430
  0
VERTEX
  8
LAYER1
 62
     7
  6
CONTINUOUS
 10
1303.8561
 20
-8004.1381
  0
VERTEX
  8
LAYER1
 62
     7
  6
CONTINUOUS
 10
1480.4020
 20
-7595.8624
  0
VERTEX
  8
LAYER1
 62
     7
  6
CONTINUOUS
 10
1645.9232
 20
-7242.7390
  0
VERTEX
  8
LAYER1
 62
     7
  6
CONTINUOUS
 10
1822.4857
 20
-6856.5271
  0
VERTEX
  8
LAYER1
 62
     7
  6
CONTINUOUS
 10
2418.3623
 20
-6514.4440
  0
VERTEX
  8
LAYER1
 62
     7
  6
CONTINUOUS
 10
2771.4708
 20
-6117.1924
  0
VERTEX
  8
LAYER1
 62
     7
  6
CONTINUOUS
 10
3047.3442
 20
-5786.1495
  0
VERTEX
  8
LAYER1
 62
     7
  6
CONTINUOUS
 10
3290.1148
 20
-5212.3521
  0
VERTEX
  8
LAYER1
 62
     7
  6
CONTINUOUS
 10
3488.7412
 20
-4804.0603
  0
VERTEX
  8
LAYER1
 62
     7
  6
CONTINUOUS
 10
4139.7868
 20
-4572.3302
  0
VERTEX
  8
LAYER1
 62
     7
  6
CONTINUOUS
 10
4846.0169
 20
-4439.9131
  0
VERTEX
  8
LAYER1
 62
     7
  6
CONTINUOUS
 10
5463.9583
 20
-4329.5600
  0
VERTEX
  8
LAYER1
 62
     7
  6
CONTINUOUS
 10
6181.2143
 20
-4241.2870
  0
VERTEX
  8
LAYER1
 62
     7
  6
CONTINUOUS
 10
6810.2105
 20
-4252.3115
  0
VERTEX
  8
LAYER1
 62
     7
  6
CONTINUOUS
 10
7637.8032
 20
-4208.1827
  0
VERTEX
  8
LAYER1
 62
     7
  6
CONTINUOUS
 10
8531.6206
 20
-4164.0385
  0
VERTEX
  8
LAYER1
 62
     7
  6
CONTINUOUS
 10
9403.3707
 20
-4130.9342
  0
VERTEX
  8
LAYER1
 62
     7
  6
CONTINUOUS
 10
9679.2465
 20
-3601.2652
  0
VERTEX
  8
LAYER1
 62
     7
  6
CONTINUOUS
 10
9745.4545
 20
-2674.3444
  0
VERTEX
  8
LAYER1
 62
     7
  6
CONTINUOUS
 10
9877.8728
 20
-2045.3627
  0
VERTEX
  8
LAYER1
 62
     7
  6
CONTINUOUS
 10
10021.3279
 20
-1261.8992
  0
VERTEX
  8
LAYER1
 62
     7
  6
CONTINUOUS
 10
10032.3550
 20
-588.7732
  0
VERTEX
  8
LAYER1
 62
     7
  6
CONTINUOUS
 10
10065.4578
 20
62.2730
  0
VERTEX
  8
LAYER1
 62
     7
  6
CONTINUOUS
 10
10054.4331
 20
702.2951
  0
VERTEX
  8
LAYER1
 62
     7
  6
CONTINUOUS
 10
9933.0394
 20
1220.9235
  0
VERTEX
  8
LAYER1
 62
     7
  6
CONTINUOUS
 10
9778.5597
 20
1596.1113
  0
VERTEX
  8
LAYER1
 62
     7
  6
CONTINUOUS
 10
9513.7253
 20
2489.9274
  0
VERTEX
  8
LAYER1
 62
     7
  6
CONTINUOUS
 10
9579.9333
 20
3107.8692
  0
VERTEX
  8
LAYER1
 62
     7
  6
CONTINUOUS
 10
9646.1413
 20
3792.0197
  0
VERTEX
  8
LAYER1
 62
     7
  6
CONTINUOUS
 10
9690.2855
 20
4100.9983
  0
VERTEX
  8
LAYER1
 62
     7
  6
CONTINUOUS
 10
10275.1232
 20
4365.8327
  0
SEQEND
  8
LAYER1
  0
POLYLINE
  8
LAYER1
 62
     7
 66
     1
  6
CONTINUOUS
  0
VERTEX
  8
LAYER1
 62
     7
  6
CONTINUOUS
 10
21590.3316
 20
5095.2991
  0
VERTEX
  8
LAYER1
 62
     7
  6
CONTINUOUS
 10
21965.5205
 20
5095.2991
  0
VERTEX
  8
LAYER1
 62
     7
  6
CONTINUOUS
 10
22583.4610
 20
5040.1301
  0
VERTEX
  8
LAYER1
 62
     7
  6
CONTINUOUS
 10
23179.3401
 20
5007.0262
  0
VERTEX
  8
LAYER1
 62
     7
  6
CONTINUOUS
 10
23775.2168
 20
5018.0664
  0
VERTEX
  8
LAYER1
 62
     7
  6
CONTINUOUS
 10
24580.7445
 20
5051.1704
  0
VERTEX
  8
LAYER1
 62
     7
  6
CONTINUOUS
 10
25286.9758
 20
5029.0911
  0
VERTEX
  8
LAYER1
 62
     7
  6
CONTINUOUS
 10
25695.2676
 20
4995.9856
  0
VERTEX
  8
LAYER1
 62
     7
  6
CONTINUOUS
 10
26235.9753
 20
4973.9219
  0
VERTEX
  8
LAYER1
 62
     7
  6
CONTINUOUS
 10
26942.1899
 20
4984.9621
  0
VERTEX
  8
LAYER1
 62
     7
  6
CONTINUOUS
 10
27891.1751
 20
4984.9621
  0
VERTEX
  8
LAYER1
 62
     7
  6
CONTINUOUS
 10
28509.1323
 20
4929.7776
  0
VERTEX
  8
LAYER1
 62
     7
  6
CONTINUOUS
 10
29105.0113
 20
4863.5685
  0
VERTEX
  8
LAYER1
 62
     7
  6
CONTINUOUS
 10
29954.6857
 20
4819.4397
  0
VERTEX
  8
LAYER1
 62
     7
  6
CONTINUOUS
 10
30793.3282
 20
4742.1915
  0
VERTEX
  8
LAYER1
 62
     7
  6
CONTINUOUS
 10
32062.3334
 20
4753.2317
  0
VERTEX
  8
LAYER1
 62
     7
  6
CONTINUOUS
 10
32867.8612
 20
4764.2565
  0
VERTEX
  8
LAYER1
 62
     7
  6
CONTINUOUS
 10
33706.5085
 20
4797.3605
  0
VERTEX
  8
LAYER1
 62
     7
  6
CONTINUOUS
 10
34931.3670
 20
4863.5685
  0
VERTEX
  8
LAYER1
 62
     7
  6
CONTINUOUS
 10
35747.9362
 20
4940.8179
  0
VERTEX
  8
LAYER1
 62
     7
  6
CONTINUOUS
 10
36465.1947
 20
5029.0911
  0
VERTEX
  8
LAYER1
 62
     7
  6
CONTINUOUS
 10
37193.4897
 20
5128.4043
  0
VERTEX
  8
LAYER1
 62
     7
  6
CONTINUOUS
 10
37910.7577
 20
5227.7163
  0
VERTEX
  8
LAYER1
 62
     7
  6
CONTINUOUS
 10
38716.2997
 20
5293.9255
  0
VERTEX
  8
LAYER1
 62
     7
  6
CONTINUOUS
 10
39521.8275
 20
5360.1335
  0
VERTEX
  8
LAYER1
 62
     7
  6
CONTINUOUS
 10
40305.3106
 20
5349.1087
  0
VERTEX
  8
LAYER1
 62
     7
  6
CONTINUOUS
 10
40857.0383
 20
5349.1087
  0
VERTEX
  8
LAYER1
 62
     7
  6
CONTINUOUS
 10
41320.5014
 20
5393.2386
  0
SEQEND
  8
LAYER1
  0
POLYLINE
  8
LAYER1
 62
     7
 66
     1
  6
CONTINUOUS
  0
VERTEX
  8
LAYER1
 62
     7
  6
CONTINUOUS
 10
22583.4610
 20
5040.1301
  0
VERTEX
  8
LAYER1
 62
     7
  6
CONTINUOUS
 10
22715.8794
 20
4521.5014
  0
VERTEX
  8
LAYER1
 62
     7
  6
CONTINUOUS
 10
22627.5909
 20
3749.0621
  0
VERTEX
  8
LAYER1
 62
     7
  6
CONTINUOUS
 10
22440.0036
 20
2634.5560
  0
VERTEX
  8
LAYER1
 62
     7
  6
CONTINUOUS
 10
22351.7318
 20
1983.4937
  0
VERTEX
  8
LAYER1
 62
     7
  6
CONTINUOUS
 10
22307.5876
 20
1332.4480
  0
VERTEX
  8
LAYER1
 62
     7
  6
CONTINUOUS
 10
22230.3382
 20
493.8002
  0
VERTEX
  8
LAYER1
 62
     7
  6
CONTINUOUS
 10
22219.3135
 20
-366.9120
  0
VERTEX
  8
LAYER1
 62
     7
  6
CONTINUOUS
 10
22230.3382
 20
-1227.6235
  0
VERTEX
  8
LAYER1
 62
     7
  6
CONTINUOUS
 10
22318.6266
 20
-1790.3974
  0
VERTEX
  8
LAYER1
 62
     7
  6
CONTINUOUS
 10
22329.6514
 20
-2286.9621
  0
VERTEX
  8
LAYER1
 62
     7
  6
CONTINUOUS
 10
22296.5462
 20
-2838.6951
  0
VERTEX
  8
LAYER1
 62
     7
  6
CONTINUOUS
 10
22351.7318
 20
-3489.7413
  0
VERTEX
  8
LAYER1
 62
     7
  6
CONTINUOUS
 10
22462.0840
 20
-3886.9928
  0
VERTEX
  8
LAYER1
 62
     7
  6
CONTINUOUS
 10
22815.1925
 20
-4317.3489
  0
VERTEX
  8
LAYER1
 62
     7
  6
CONTINUOUS
 10
23245.5481
 20
-4471.8460
  0
VERTEX
  8
LAYER1
 62
     7
  6
CONTINUOUS
 10
23664.8645
 20
-4449.7661
  0
VERTEX
  8
LAYER1
 62
     7
  6
CONTINUOUS
 10
24415.2234
 20
-4449.7661
  0
VERTEX
  8
LAYER1
 62
     7
  6
CONTINUOUS
 10
24944.9064
 20
-4471.8460
  0
VERTEX
  8
LAYER1
 62
     7
  6
CONTINUOUS
 10
25364.2229
 20
-4460.8060
  0
VERTEX
  8
LAYER1
 62
     7
  6
CONTINUOUS
 10
25904.9330
 20
-4361.4932
  0
VERTEX
  8
LAYER1
 62
     7
  6
CONTINUOUS
 10
26169.7673
 20
-4328.3889
  0
VERTEX
  8
LAYER1
 62
     7
  6
CONTINUOUS
 10
26390.4575
 20
-4350.4532
  0
VERTEX
  8
LAYER1
 62
     7
  6
CONTINUOUS
 10
26920.1262
 20
-4339.4288
  0
VERTEX
  8
LAYER1
 62
     7
  6
CONTINUOUS
 10
27317.3789
 20
-4328.3889
  0
VERTEX
  8
LAYER1
 62
     7
  6
CONTINUOUS
 10
27571.1718
 20
-4361.4932
  0
VERTEX
  8
LAYER1
 62
     7
  6
CONTINUOUS
 10
27968.4245
 20
-4394.5975
  0
VERTEX
  8
LAYER1
 62
     7
  6
CONTINUOUS
 10
28431.8852
 20
-4361.4932
  0
VERTEX
  8
LAYER1
 62
     7
  6
CONTINUOUS
 10
28939.4902
 20
-4284.2447
  0
VERTEX
  8
LAYER1
 62
     7
  6
CONTINUOUS
 10
29303.6377
 20
-4306.3245
  0
VERTEX
  8
LAYER1
 62
     7
  6
CONTINUOUS
 10
29932.6220
 20
-4427.7018
  0
VERTEX
  8
LAYER1
 62
     7
  6
CONTINUOUS
 10
30131.2435
 20
-4538.0549
  0
VERTEX
  8
LAYER1
 62
     7
  6
CONTINUOUS
 10
30252.6181
 20
-4769.7849
  0
VERTEX
  8
LAYER1
 62
     7
  6
CONTINUOUS
 10
30219.5177
 20
-5288.4137
  0
VERTEX
  8
LAYER1
 62
     7
  6
CONTINUOUS
 10
30274.6867
 20
-5398.7665
  0
VERTEX
  8
LAYER1
 62
     7
  6
CONTINUOUS
 10
30583.6652
 20
-5531.1837
  0
VERTEX
  8
LAYER1
 62
     7
  6
CONTINUOUS
 10
30760.2278
 20
-5762.9140
  0
VERTEX
  8
LAYER1
 62
     7
  6
CONTINUOUS
 10
30837.4748
 20
-6149.1259
  0
VERTEX
  8
LAYER1
 62
     7
  6
CONTINUOUS
 10
30738.1640
 20
-6711.8992
  0
VERTEX
  8
LAYER1
 62
     7
  6
CONTINUOUS
 10
30671.9346
 20
-7197.4237
  0
VERTEX
  8
LAYER1
 62
     7
  6
CONTINUOUS
 10
30682.9808
 20
-7760.1970
  0
VERTEX
  8
LAYER1
 62
     7
  6
CONTINUOUS
 10
30782.2916
 20
-7958.8228
  0
VERTEX
  8
LAYER1
 62
     7
  6
CONTINUOUS
 10
31411.2758
 20
-8433.3231
  0
VERTEX
  8
LAYER1
 62
     7
  6
CONTINUOUS
 10
32150.6076
 20
-8885.7436
  0
VERTEX
  8
LAYER1
 62
     7
  6
CONTINUOUS
 10
33000.2772
 20
-9106.4492
  0
VERTEX
  8
LAYER1
 62
     7
  6
CONTINUOUS
 10
33320.2829
 20
-9095.4096
  0
VERTEX
  8
LAYER1
 62
     7
  6
CONTINUOUS
 10
33761.6774
 20
-8896.7832
  0
VERTEX
  8
LAYER1
 62
     7
  6
CONTINUOUS
 10
34114.7883
 20
-8587.8046
  0
VERTEX
  8
LAYER1
 62
     7
  6
CONTINUOUS
 10
34512.0506
 20
-8002.9670
  0
VERTEX
  8
LAYER1
 62
     7
  6
CONTINUOUS
 10
34765.8459
 20
-7605.7154
  0
VERTEX
  8
LAYER1
 62
     7
  6
CONTINUOUS
 10
35041.7240
 20
-7175.3593
  0
VERTEX
  8
LAYER1
 62
     7
  6
CONTINUOUS
 10
35273.4556
 20
-6899.4848
  0
VERTEX
  8
LAYER1
 62
     7
  6
CONTINUOUS
 10
35461.0405
 20
-6711.8992
  0
VERTEX
  8
LAYER1
 62
     7
  6
CONTINUOUS
 10
36090.0200
 20
-6226.3741
  0
VERTEX
  8
LAYER1
 62
     7
  6
CONTINUOUS
 10
36542.4417
 20
-6369.8161
  0
VERTEX
  8
LAYER1
 62
     7
  6
CONTINUOUS
 10
36785.2099
 20
-6568.4418
  0
VERTEX
  8
LAYER1
 62
     7
  6
CONTINUOUS
 10
37171.4259
 20
-6943.6290
  0
VERTEX
  8
LAYER1
 62
     7
  6
CONTINUOUS
 10
37513.5049
 20
-7208.4633
  0
VERTEX
  8
LAYER1
 62
     7
  6
CONTINUOUS
 10
37844.5473
 20
-7362.9455
  0
VERTEX
  8
LAYER1
 62
     7
  6
CONTINUOUS
 10
38285.9466
 20
-7385.0253
  0
VERTEX
  8
LAYER1
 62
     7
  6
CONTINUOUS
 10
39124.5796
 20
-7473.2983
  0
VERTEX
  8
LAYER1
 62
     7
  6
CONTINUOUS
 10
39532.8689
 20
-7506.4023
  0
VERTEX
  8
LAYER1
 62
     7
  6
CONTINUOUS
 10
40161.8532
 20
-7506.4023
  0
VERTEX
  8
LAYER1
 62
     7
  6
CONTINUOUS
 10
40790.8279
 20
-7451.2339
  0
VERTEX
  8
LAYER1
 62
     7
  6
CONTINUOUS
 10
41188.0807
 20
-7451.2339
  0
VERTEX
  8
LAYER1
 62
     7
  6
CONTINUOUS
 10
41541.1868
 20
-7495.3626
  0
VERTEX
  8
LAYER1
 62
     7
  6
CONTINUOUS
 10
42280.5280
 20
-7506.4023
  0
VERTEX
  8
LAYER1
 62
     7
  6
CONTINUOUS
 10
42479.1496
 20
-7462.2580
  0
VERTEX
  8
LAYER1
 62
     7
  6
CONTINUOUS
 10
42644.6708
 20
-7318.8167
  0
VERTEX
  8
LAYER1
 62
     7
  6
CONTINUOUS
 10
42699.8445
 20
-7373.9851
  0
VERTEX
  8
LAYER1
 62
     7
  6
CONTINUOUS
 10
42843.3019
 20
-7153.2950
  0
VERTEX
  8
LAYER1
 62
     7
  6
CONTINUOUS
 10
42710.8812
 20
-6502.2332
  0
VERTEX
  8
LAYER1
 62
     7
  6
CONTINUOUS
 10
42644.6708
 20
-6060.8530
  0
VERTEX
  8
LAYER1
 62
     7
  6
CONTINUOUS
 10
42534.3233
 20
-5597.3923
  0
VERTEX
  8
LAYER1
 62
     7
  6
CONTINUOUS
 10
42412.9392
 20
-5167.0361
  0
VERTEX
  8
LAYER1
 62
     7
  6
CONTINUOUS
 10
42357.7560
 20
-4703.5763
  0
VERTEX
  8
LAYER1
 62
     7
  6
CONTINUOUS
 10
42225.3448
 20
-4162.8674
  0
VERTEX
  8
LAYER1
 62
     7
  6
CONTINUOUS
 10
42015.6960
 20
-3633.1987
  0
VERTEX
  8
LAYER1
 62
     7
  6
CONTINUOUS
 10
41772.9183
 20
-3114.5690
  0
VERTEX
  8
LAYER1
 62
     7
  6
CONTINUOUS
 10
41353.6018
 20
-2309.0259
  0
VERTEX
  8
LAYER1
 62
     7
  6
CONTINUOUS
 10
41221.1906
 20
-2000.0473
  0
VERTEX
  8
LAYER1
 62
     7
  6
CONTINUOUS
 10
41121.8798
 20
-1657.9797
  0
VERTEX
  8
LAYER1
 62
     7
  6
CONTINUOUS
 10
40912.2120
 20
-995.8938
  0
VERTEX
  8
LAYER1
 62
     7
  6
CONTINUOUS
 10
40812.9012
 20
-267.5988
  0
VERTEX
  8
LAYER1
 62
     7
  6
CONTINUOUS
 10
40713.5809
 20
273.1101
  0
VERTEX
  8
LAYER1
 62
     7
  6
CONTINUOUS
 10
40691.5171
 20
891.0523
  0
VERTEX
  8
LAYER1
 62
     7
  6
CONTINUOUS
 10
40702.5443
 20
1509.0094
  0
VERTEX
  8
LAYER1
 62
     7
  6
CONTINUOUS
 10
40702.5443
 20
1939.3650
  0
VERTEX
  8
LAYER1
 62
     7
  6
CONTINUOUS
 10
40746.6909
 20
2446.9543
  0
VERTEX
  8
LAYER1
 62
     7
  6
CONTINUOUS
 10
40746.6909
 20
2722.8290
  0
VERTEX
  8
LAYER1
 62
     7
  6
CONTINUOUS
 10
40735.6447
 20
3418.0186
  0
VERTEX
  8
LAYER1
 62
     7
  6
CONTINUOUS
 10
40735.6447
 20
4135.2746
  0
VERTEX
  8
LAYER1
 62
     7
  6
CONTINUOUS
 10
40724.6271
 20
4554.6054
  0
VERTEX
  8
LAYER1
 62
     7
  6
CONTINUOUS
 10
40713.5809
 20
4973.9219
  0
VERTEX
  8
LAYER1
 62
     7
  6
CONTINUOUS
 10
40713.5809
 20
5393.2386
  0
VERTEX
  8
LAYER1
 62
     7
  6
CONTINUOUS
 10
40713.5809
 20
5393.2386
  0
SEQEND
  8
LAYER1
  0
POLYLINE
  8
LAYER1
 62
     7
 66
     1
  6
CONTINUOUS
  0
VERTEX
  8
LAYER1
 62
     7
  6
CONTINUOUS
 10
37623.4712
 20
13849.0609
  0
VERTEX
  8
LAYER1
 62
     7
  6
CONTINUOUS
 10
37623.4712
 20
19399.5457
  0
SEQEND
  8
LAYER1
  0
POLYLINE
  8
LAYER1
 62
     7
 66
     1
  6
CONTINUOUS
  0
VERTEX
  8
LAYER1
 62
     7
  6
CONTINUOUS
 10
37623.4712
 20
19399.5457
  0
VERTEX
  8
LAYER1
 62
     7
  6
CONTINUOUS
 10
37243.2976
 20
18302.4806
  0
SEQEND
  8
LAYER1
  0
POLYLINE
  8
LAYER1
 62
     7
 66
     1
  6
CONTINUOUS
  0
VERTEX
  8
LAYER1
 62
     7
  6
CONTINUOUS
 10
-1286.9463
 20
16259.4767
  0
VERTEX
  8
LAYER1
 62
     7
  6
CONTINUOUS
 10
-1286.9463
 20
16851.7150
  0
SEQEND
  8
LAYER1
  0
POLYLINE
  8
LAYER1
 62
     7
 66
     1
  6
CONTINUOUS
  0
VERTEX
  8
LAYER1
 62
     7
  6
CONTINUOUS
 10
-6782.2620
 20
16846.0335
  0
VERTEX
  8
LAYER1
 62
     7
  6
CONTINUOUS
 10
-6782.2620
 20
16259.4779
  0
SEQEND
  8
LAYER1
  0
POLYLINE
  8
LAYER1
 62
     7
 66
     1
  6
CONTINUOUS
  0
VERTEX
  8
LAYER1
 62
     7
  6
CONTINUOUS
 10
-1286.9463
 20
16259.4767
  0
VERTEX
  8
LAYER1
 62
     7
  6
CONTINUOUS
 10
-6782.2620
 20
16259.4779
  0
SEQEND
  8
LAYER1
  0
ENDSEC
  0
EOF
