  0
SECTION
  2
HEADER
  9
$ACADVER
  1
AC1004
  9
$EXTMIN
 10
189.4280
 20
-1313.1476
  9
$EXTMAX
 10
22070.4545
 20
18229.4343
  9
$LIMMIN
 10
189.4280
 20
-1313.1476
  9
$LIMMAX
 10
22070.4545
 20
18229.4343
  9
$INSBASE
 10
0.0
 20
0.0
  9
$VIEWCTR
 10
7.21903
 20
4.5
  9
$VIEWSIZE
 40
9.0
  9
$SNAPMODE
 70
     0
  9
$SNAPUNIT
 10
1.0
 20
1.0
  9
$SNAPBASE
 10
0.0
 20
0.0
  9
$SNAPANG
 50
0.0
  9
$SNAPSTYLE
 70
     0
  9
$SNAPISOPAIR
 70
     0
  9
$GRIDMODE
 70
     0
  9
$GRIDUNIT
 10
0.0
 20
0.0
  9
$ORTHOMODE
 70
     0
  9
$REGENMODE
 70
     1
  9
$FILLMODE
 70
     1
  9
$QTEXTMODE
 70
     0
  9
$DRAGMODE
 70
     2
  9
$LTSCALE
 40
1.0
  9
$OSMODE
 70
     0
  9
$ATTMODE
 70
     1
  9
$TEXTSIZE
 40
0.2
  9
$TRACEWID
 40
0.05
  9
$TEXTSTYLE
  7
STANDARD
  9
$CLAYER
  8
0
  9
$CELTYPE
  6
BYLAYER
  9
$CECOLOR
 62
   256
  9
$DIMSCALE
 40
1.0
  9
$DIMASZ
 40
0.18
  9
$DIMEXO
 40
0.0625
  9
$DIMDLI
 40
0.38
  9
$DIMRND
 40
0.0
  9
$DIMDLE
 40
0.0
  9
$DIMEXE
 40
0.18
  9
$DIMTP
 40
0.0
  9
$DIMTM
 40
0.0
  9
$DIMTXT
 40
0.18
  9
$DIMCEN
 40
0.09
  9
$DIMTSZ
 40
0.0
  9
$DIMTOL
 70
     0
  9
$DIMLIM
 70
     0
  9
$DIMTIH
 70
     1
  9
$DIMTOH
 70
     1
  9
$DIMSE1
 70
     0
  9
$DIMSE2
 70
     0
  9
$DIMTAD
 70
     0
  9
$DIMZIN
 70
     0
  9
$DIMBLK
  1

  9
$DIMASO
 70
     1
  9
$DIMSHO
 70
     0
  9
$DIMPOST
  1

  9
$DIMAPOST
  1

  9
$DIMALT
 70
     0
  9
$DIMALTD
 70
     2
  9
$DIMALTF
 40
25.4
  9
$DIMLFAC
 40
1.0
  9
$LUNITS
 70
     2
  9
$LUPREC
 70
     4
  9
$AXISMODE
 70
     0
  9
$AXISUNIT
 10
0.0
 20
0.0
  9
$SKETCHINC
 40
0.1
  9
$FILLETRAD
 40
0.0
  9
$AUNITS
 70
     0
  9
$AUPREC
 70
     0
  9
$MENU
  1
acad
  9
$ELEVATION
 40
0.0
  9
$THICKNESS
 40
0.0
  9
$VIEWDIR
 10
0.0
 20
0.0
 30
1.0
  9
$LIMCHECK
 70
     0
  9
$BLIPMODE
 70
     1
  9
$CHAMFERA
 40
0.0
  9
$CHAMFERB
 40
0.0
  9
$FASTZOOM
 70
     1
  9
$SKPOLY
 70
     0
  9
$TDCREATE
 40
2447222.5666886573
  9
$TDUPDATE
 40
2447222.5666886573
  9
$TDINDWG
 40
0.0000000000
  9
$TDUSRTIMER
 40
0.0000000000
  9
$USRTIMER
 70
     1
  9
$ANGBASE
 50
0.0
  9
$ANGDIR
 70
     0
  9
$PDMODE
 70
     0
  9
$PDSIZE
 40
0.0
  9
$PLINEWID
 40
0.0
  9
$COORDS
 70
     0
  9
$SPLFRAME
 70
     0
  9
$SPLINESEGS
 70
     8
  9
$ATTDIA
 70
     0
  9
$ATTREQ
 70
     1
  9
$USERI1
 70
     0
  9
$USERI2
 70
     0
  9
$USERI3
 70
     0
  9
$USERI4
 70
     0
  9
$USERI5
 70
     0
  9
$USERR1
 40
0.0
  9
$USERR2
 40
0.0
  9
$USERR3
 40
0.0
  9
$USERR4
 40
0.0
  9
$USERR5
 40
0.0
  0
ENDSEC
  0
SECTION
  2
TABLES
  0
TABLE
  2
LTYPE
 70
     13
  0
LTYPE
  2
CONTINUOUS
 70
    64
  3
Solid line
 72
    65
 73
     0
 40
0.0
  0
LTYPE
  2
DASHED
 70
    64
  3
__ __ __ __ __ __ __ __ __ __ __ __ __ __ __
 72
    65
 73
     2
 40
0.75
 49
0.5
 49
-0.25
  0
LTYPE
  2
HIDDEN
 70
    64
  3
_ _ _ _ _ _ _ _ _ _ _ _ _ _ _ _ _ _ _ _ _ _ _
 72
    65
 73
     2
 40
0.375
 49
0.25
 49
-0.125
  0
LTYPE
  2
CENTER
 70
    64
  3
____ _ ____ _ ____ _ ____ _ ____ _ ____ _ ____
 72
    65
 73
     4
 40
2.0
 49
1.25
 49
-0.25
 49
0.25
 49
-0.25
  0
LTYPE
  2
PHANTOM
 70
    64
  3
_____ _ _ _____ _ _ _____ _ _ _____ _ _ ____
 72
    65
 73
     6
 40
2.5
 49
1.25
 49
-0.25
 49
0.25
 49
-0.25
 49
0.25
 49
-0.25
  0
LTYPE
  2
DOT
 70
    64
  3
...............................................
 72
    65
 73
     2
 40
0.25
 49
0.0
 49
-0.25
  0
LTYPE
  2
DASHDOT
 70
    64
  3
__ . __ . __ . __ . __ . __ . __ . __ . __ . __
 72
    65
 73
     4
 40
1.0
 49
0.5
 49
-0.25
 49
0.0
 49
-0.25
  0
LTYPE
  2
BORDER
 70
    64
  3
__ __ . __ __ . __ __ . __ __ . __ __ . __ __
 72
    65
 73
     6
 40
1.75
 49
0.5
 49
-0.25
 49
0.5
 49
-0.25
 49
0.0
 49
-0.25
  0
LTYPE
  2
DIVIDE
 70
    64
  3
__ . . __ . . __ . . __ . . __ . . __ . . __
 72
    65
 73
     6
 40
1.25
 49
0.5
 49
-0.25
 49
0.0
 49
-0.25
 49
0.0
 49
-0.25
  0
LTYPE
  2
DCTYPE1
 70
    64
  3
__ . . __ . . __ . . __ . . __ . . __ . . __
 72
    65
 73
     8
 40
2.5
 49
0.5
 49
-0.25
 49
0.125
 49
-0.25
 49
0.25
 49
-0.25
 49
0.125
 49
-0.25
  0
LTYPE
  2
DCTYPE2
 70
    64
  3
__ . . __ . . __ . . __ . . __ . . __ . . __
 72
    65
 73
     6
 40
2.05
 49
1.0
 49
-0.3
 49
0.15
 49
-0.15
 49
0.15
 49
-0.3
  0
LTYPE
  2
DCTYPE3
 70
    64
  3
__ . . __ . . __ . . __ . . __ . . __ . . __
 72
    65
 73
     6
 40
2.5
 49
0.8
 49
-0.2
 49
0.8
 49
-0.2
 49
0.3
 49
-0.2
  0
LTYPE
  2
DCTYPE4
 70
    64
  3
__ . . __ . . __ . . __ . . __ . . __ . . __
 72
    65
 73
     10
 40
3.97
 49
1.75
 49
-0.3
 49
0.3
 49
-0.3
 49
0.06
 49
-0.3
 49
0.06
 49
-0.3
 49
0.3
 49
-0.3
  0
ENDTAB
  0
TABLE
  2
LAYER
 70
    153
  0
LAYER
  2
LAYER1
 70
 64
 62
     7
  6
CONTINUOUS
  0
ENDTAB
  0
ENDSEC
  0
SECTION
  2
BLOCKS
  0
ENDSEC
  0
SECTION
  2
ENTITIES
  0
POLYLINE
  8
LAYER1
 62
     7
 66
     1
  6
CONTINUOUS
  0
VERTEX
  8
LAYER1
 62
     7
  6
CONTINUOUS
 10
11377.7649
 20
2306.2624
  0
VERTEX
  8
LAYER1
 62
     7
  6
CONTINUOUS
 10
11543.2861
 20
2350.4066
  0
VERTEX
  8
LAYER1
 62
     7
  6
CONTINUOUS
 10
11830.2009
 20
2416.6146
  0
VERTEX
  8
LAYER1
 62
     7
  6
CONTINUOUS
 10
12260.5564
 20
2471.7836
  0
VERTEX
  8
LAYER1
 62
     7
  6
CONTINUOUS
 10
12757.1199
 20
2560.0566
  0
VERTEX
  8
LAYER1
 62
     7
  6
CONTINUOUS
 10
13264.7082
 20
2714.5542
  0
VERTEX
  8
LAYER1
 62
     7
  6
CONTINUOUS
 10
13595.7529
 20
2891.1001
  0
VERTEX
  8
LAYER1
 62
     7
  6
CONTINUOUS
 10
14004.0446
 20
3321.4556
  0
VERTEX
  8
LAYER1
 62
     7
  6
CONTINUOUS
 10
14478.5444
 20
3806.9956
  0
VERTEX
  8
LAYER1
 62
     7
  6
CONTINUOUS
 10
15339.2554
 20
4645.6286
  0
VERTEX
  8
LAYER1
 62
     7
  6
CONTINUOUS
 10
15604.0898
 20
4987.7111
  0
VERTEX
  8
LAYER1
 62
     7
  6
CONTINUOUS
 10
15935.1345
 20
5318.7544
  0
VERTEX
  8
LAYER1
 62
     7
  6
CONTINUOUS
 10
16431.6980
 20
5793.2541
  0
VERTEX
  8
LAYER1
 62
     7
  6
CONTINUOUS
 10
16729.6376
 20
6223.6108
  0
VERTEX
  8
LAYER1
 62
     7
  6
CONTINUOUS
 10
16994.4719
 20
6885.6967
  0
VERTEX
  8
LAYER1
 62
     7
  6
CONTINUOUS
 10
17104.8098
 20
7371.2212
  0
VERTEX
  8
LAYER1
 62
     7
  6
CONTINUOUS
 10
17193.0983
 20
7911.9301
  0
VERTEX
  8
LAYER1
 62
     7
  6
CONTINUOUS
 10
17237.2258
 20
8342.2856
  0
VERTEX
  8
LAYER1
 62
     7
  6
CONTINUOUS
 10
17237.2258
 20
8783.6671
  0
VERTEX
  8
LAYER1
 62
     7
  6
CONTINUOUS
 10
17182.0568
 20
9125.7496
  0
VERTEX
  8
LAYER1
 62
     7
  6
CONTINUOUS
 10
17060.6799
 20
9556.1052
  0
VERTEX
  8
LAYER1
 62
     7
  6
CONTINUOUS
 10
16917.2225
 20
9997.5021
  0
VERTEX
  8
LAYER1
 62
     7
  6
CONTINUOUS
 10
16707.5571
 20
10516.1306
  0
VERTEX
  8
LAYER1
 62
     7
  6
CONTINUOUS
 10
16508.9307
 20
10935.4471
  0
VERTEX
  8
LAYER1
 62
     7
  6
CONTINUOUS
 10
16266.1768
 20
11376.8416
  0
VERTEX
  8
LAYER1
 62
     7
  6
CONTINUOUS
 10
15868.9241
 20
11939.6155
  0
VERTEX
  8
LAYER1
 62
     7
  6
CONTINUOUS
 10
15383.3853
 20
12447.2204
  0
VERTEX
  8
LAYER1
 62
     7
  6
CONTINUOUS
 10
14986.1326
 20
12888.6007
  0
VERTEX
  8
LAYER1
 62
     7
  6
CONTINUOUS
 10
14666.1293
 20
13219.6430
  0
VERTEX
  8
LAYER1
 62
     7
  6
CONTINUOUS
 10
14301.9818
 20
13539.6630
  0
VERTEX
  8
LAYER1
 62
     7
  6
CONTINUOUS
 10
14004.0446
 20
13749.3141
  0
VERTEX
  8
LAYER1
 62
     7
  6
CONTINUOUS
 10
13474.3759
 20
14069.3317
  0
VERTEX
  8
LAYER1
 62
     7
  6
CONTINUOUS
 10
12955.7463
 20
14301.0609
  0
VERTEX
  8
LAYER1
 62
     7
  6
CONTINUOUS
 10
12470.2051
 20
14400.3741
  0
VERTEX
  8
LAYER1
 62
     7
  6
CONTINUOUS
 10
11741.9124
 20
14356.2298
  0
VERTEX
  8
LAYER1
 62
     7
  6
CONTINUOUS
 10
11112.9306
 20
14267.9581
  0
VERTEX
  8
LAYER1
 62
     7
  6
CONTINUOUS
 10
10230.1534
 20
14223.8139
  0
VERTEX
  8
LAYER1
 62
     7
  6
CONTINUOUS
 10
9281.1676
 20
14135.5397
  0
VERTEX
  8
LAYER1
 62
     7
  6
CONTINUOUS
 10
8762.5236
 20
14003.1225
  0
VERTEX
  8
LAYER1
 62
     7
  6
CONTINUOUS
 10
8232.8549
 20
13804.4962
  0
VERTEX
  8
LAYER1
 62
     7
  6
CONTINUOUS
 10
7603.8730
 20
13616.8957
  0
VERTEX
  8
LAYER1
 62
     7
  6
CONTINUOUS
 10
6853.5130
 20
13318.9562
  0
VERTEX
  8
LAYER1
 62
     7
  6
CONTINUOUS
 10
6235.5714
 20
12910.6811
  0
VERTEX
  8
LAYER1
 62
     7
  6
CONTINUOUS
 10
5783.1354
 20
12568.5974
  0
VERTEX
  8
LAYER1
 62
     7
  6
CONTINUOUS
 10
5308.6511
 20
11961.6793
  0
VERTEX
  8
LAYER1
 62
     7
  6
CONTINUOUS
 10
4834.1502
 20
11145.1124
  0
VERTEX
  8
LAYER1
 62
     7
  6
CONTINUOUS
 10
4536.2118
 20
10604.4047
  0
VERTEX
  8
LAYER1
 62
     7
  6
CONTINUOUS
 10
4238.2723
 20
9898.1889
  0
VERTEX
  8
LAYER1
 62
     7
  6
CONTINUOUS
 10
3951.3742
 20
9269.2070
  0
VERTEX
  8
LAYER1
 62
     7
  6
CONTINUOUS
 10
3752.7478
 20
8540.9120
  0
VERTEX
  8
LAYER1
 62
     7
  6
CONTINUOUS
 10
3653.4346
 20
7878.8261
  0
VERTEX
  8
LAYER1
 62
     7
  6
CONTINUOUS
 10
3631.3554
 20
7150.5310
  0
VERTEX
  8
LAYER1
 62
     7
  6
CONTINUOUS
 10
3697.5634
 20
6433.2607
  0
VERTEX
  8
LAYER1
 62
     7
  6
CONTINUOUS
 10
3874.1260
 20
5716.0065
  0
VERTEX
  8
LAYER1
 62
     7
  6
CONTINUOUS
 10
4194.1281
 20
5053.9200
  0
VERTEX
  8
LAYER1
 62
     7
  6
CONTINUOUS
 10
4646.5641
 20
4391.8332
  0
VERTEX
  8
LAYER1
 62
     7
  6
CONTINUOUS
 10
5154.1535
 20
3906.3091
  0
VERTEX
  8
LAYER1
 62
     7
  6
CONTINUOUS
 10
5463.1321
 20
3630.4345
  0
VERTEX
  8
LAYER1
 62
     7
  6
CONTINUOUS
 10
5915.5526
 20
3266.2866
  0
VERTEX
  8
LAYER1
 62
     7
  6
CONTINUOUS
 10
6445.2213
 20
2913.1793
  0
VERTEX
  8
LAYER1
 62
     7
  6
CONTINUOUS
 10
7162.4916
 20
2549.0318
  0
VERTEX
  8
LAYER1
 62
     7
  6
CONTINUOUS
 10
7769.3942
 20
2394.5351
  0
VERTEX
  8
LAYER1
 62
     7
  6
CONTINUOUS
 10
8365.2721
 20
2284.1975
  0
VERTEX
  8
LAYER1
 62
     7
  6
CONTINUOUS
 10
9181.8556
 20
2206.9494
  0
VERTEX
  8
LAYER1
 62
     7
  6
CONTINUOUS
 10
9744.6283
 20
2173.8457
  0
VERTEX
  8
LAYER1
 62
     7
  6
CONTINUOUS
 10
10417.7383
 20
2085.5724
  0
VERTEX
  8
LAYER1
 62
     7
  6
CONTINUOUS
 10
11377.7649
 20
2306.2624
  0
SEQEND
  8
LAYER1
  0
POLYLINE
  8
LAYER1
 62
     7
 66
     1
  6
DASHED
  0
VERTEX
  8
LAYER1
 62
     7
  6
DASHED
 10
12757.1199
 20
2560.0566
  0
VERTEX
  8
LAYER1
 62
     7
  6
DASHED
 10
12834.3526
 20
2537.9916
  0
VERTEX
  8
LAYER1
 62
     7
  6
DASHED
 10
13386.1018
 20
2372.4704
  0
VERTEX
  8
LAYER1
 62
     7
  6
DASHED
 10
13728.1689
 20
2306.2624
  0
VERTEX
  8
LAYER1
 62
     7
  6
DASHED
 10
14324.0479
 20
2295.2222
  0
VERTEX
  8
LAYER1
 62
     7
  6
DASHED
 10
15019.2378
 20
2361.4302
  0
VERTEX
  8
LAYER1
 62
     7
  6
DASHED
 10
15526.8427
 20
2526.9526
  0
VERTEX
  8
LAYER1
 62
     7
  6
DASHED
 10
15957.1983
 20
2758.6829
  0
VERTEX
  8
LAYER1
 62
     7
  6
DASHED
 10
16409.6176
 20
3266.2866
  0
VERTEX
  8
LAYER1
 62
     7
  6
DASHED
 10
16674.4519
 20
3685.6031
  0
VERTEX
  8
LAYER1
 62
     7
  6
DASHED
 10
17336.5390
 20
4347.6890
  0
VERTEX
  8
LAYER1
 62
     7
  6
DASHED
 10
17899.3129
 20
4932.5422
  0
VERTEX
  8
LAYER1
 62
     7
  6
DASHED
 10
18594.5027
 20
5528.4197
  0
VERTEX
  8
LAYER1
 62
     7
  6
DASHED
 10
19201.4209
 20
6135.3212
  0
VERTEX
  8
LAYER1
 62
     7
  6
DASHED
 10
19797.2975
 20
6598.7819
  0
VERTEX
  8
LAYER1
 62
     7
  6
DASHED
 10
20624.9058
 20
6929.8254
  0
VERTEX
  8
LAYER1
 62
     7
  6
DASHED
 10
21264.9267
 20
7293.9729
  0
VERTEX
  8
LAYER1
 62
     7
  6
DASHED
 10
21606.9962
 20
7569.8475
  0
VERTEX
  8
LAYER1
 62
     7
  6
DASHED
 10
22070.4545
 20
8397.4546
  0
VERTEX
  8
LAYER1
 62
     7
  6
DASHED
 10
22070.4545
 20
8949.1882
  0
VERTEX
  8
LAYER1
 62
     7
  6
DASHED
 10
22004.2465
 20
9269.2070
  0
VERTEX
  8
LAYER1
 62
     7
  6
DASHED
 10
21761.4926
 20
9997.5021
  0
VERTEX
  8
LAYER1
 62
     7
  6
DASHED
 10
21375.2646
 20
10803.0287
  0
VERTEX
  8
LAYER1
 62
     7
  6
DASHED
 10
20955.9481
 20
11718.9254
  0
VERTEX
  8
LAYER1
 62
     7
  6
DASHED
 10
20635.9448
 20
12336.8682
  0
VERTEX
  8
LAYER1
 62
     7
  6
DASHED
 10
20205.5893
 20
12943.7863
  0
VERTEX
  8
LAYER1
 62
     7
  6
DASHED
 10
19653.8401
 20
13550.6878
  0
VERTEX
  8
LAYER1
 62
     7
  6
DASHED
 10
18914.5227
 20
14245.8776
  0
VERTEX
  8
LAYER1
 62
     7
  6
DASHED
 10
18285.5408
 20
14775.5463
  0
VERTEX
  8
LAYER1
 62
     7
  6
DASHED
 10
17557.2458
 20
15305.2150
  0
VERTEX
  8
LAYER1
 62
     7
  6
DASHED
 10
16729.6376
 20
15901.0941
  0
VERTEX
  8
LAYER1
 62
     7
  6
DASHED
 10
15802.7161
 20
16419.7381
  0
VERTEX
  8
LAYER1
 62
     7
  6
DASHED
 10
15140.6314
 20
16839.0546
  0
VERTEX
  8
LAYER1
 62
     7
  6
DASHED
 10
14489.5691
 20
17225.2659
  0
VERTEX
  8
LAYER1
 62
     7
  6
DASHED
 10
13661.9609
 20
17666.6628
  0
VERTEX
  8
LAYER1
 62
     7
  6
DASHED
 10
12812.2889
 20
17931.4971
  0
VERTEX
  8
LAYER1
 62
     7
  6
DASHED
 10
12161.2432
 20
18019.7689
  0
VERTEX
  8
LAYER1
 62
     7
  6
DASHED
 10
11057.7616
 20
18108.0573
  0
VERTEX
  8
LAYER1
 62
     7
  6
DASHED
 10
9998.4218
 20
18174.2653
  0
VERTEX
  8
LAYER1
 62
     7
  6
DASHED
 10
8994.2540
 20
18229.4343
  0
VERTEX
  8
LAYER1
 62
     7
  6
DASHED
 10
8354.2473
 20
18196.3315
  0
VERTEX
  8
LAYER1
 62
     7
  6
DASHED
 10
7890.7866
 20
17931.4971
  0
VERTEX
  8
LAYER1
 62
     7
  6
DASHED
 10
7339.0375
 20
17335.6181
  0
VERTEX
  8
LAYER1
 62
     7
  6
DASHED
 10
6985.9302
 20
16607.3230
  0
VERTEX
  8
LAYER1
 62
     7
  6
DASHED
 10
6743.1608
 20
15945.2383
  0
VERTEX
  8
LAYER1
 62
     7
  6
DASHED
 10
6533.5097
 20
15294.1903
  0
VERTEX
  8
LAYER1
 62
     7
  6
DASHED
 10
6246.5961
 20
14874.8583
  0
VERTEX
  8
LAYER1
 62
     7
  6
DASHED
 10
5485.1970
 20
14157.6059
  0
VERTEX
  8
LAYER1
 62
     7
  6
DASHED
 10
4657.5888
 20
13550.6878
  0
VERTEX
  8
LAYER1
 62
     7
  6
DASHED
 10
3785.8530
 20
12987.9139
  0
VERTEX
  8
LAYER1
 62
     7
  6
DASHED
 10
3035.4775
 20
12568.5974
  0
VERTEX
  8
LAYER1
 62
     7
  6
DASHED
 10
2218.9095
 20
12038.9287
  0
VERTEX
  8
LAYER1
 62
     7
  6
DASHED
 10
1722.3454
 20
11542.3652
  0
VERTEX
  8
LAYER1
 62
     7
  6
DASHED
 10
1512.6794
 20
11078.9045
  0
VERTEX
  8
LAYER1
 62
     7
  6
DASHED
 10
1280.9490
 20
10449.9226
  0
VERTEX
  8
LAYER1
 62
     7
  6
DASHED
 10
1347.1576
 20
9732.6677
  0
VERTEX
  8
LAYER1
 62
     7
  6
DASHED
 10
1623.0322
 20
9236.1030
  0
VERTEX
  8
LAYER1
 62
     7
  6
DASHED
 10
2196.8457
 20
8585.0407
  0
VERTEX
  8
LAYER1
 62
     7
  6
DASHED
 10
2737.5392
 20
7967.0990
  0
VERTEX
  8
LAYER1
 62
     7
  6
DASHED
 10
3035.4775
 20
7305.0120
  0
VERTEX
  8
LAYER1
 62
     7
  6
DASHED
 10
3245.1429
 20
6499.4687
  0
VERTEX
  8
LAYER1
 62
     7
  6
DASHED
 10
3443.7693
 20
5704.9657
  0
VERTEX
  8
LAYER1
 62
     7
  6
DASHED
 10
3730.6686
 20
5075.9844
  0
VERTEX
  8
LAYER1
 62
     7
  6
DASHED
 10
4094.8161
 20
4480.1065
  0
VERTEX
  8
LAYER1
 62
     7
  6
DASHED
 10
4646.5641
 20
4391.8332
  0
SEQEND
  8
LAYER1
  0
POLYLINE
  8
LAYER1
 62
     7
 66
     1
  6
CONTINUOUS
  0
VERTEX
  8
LAYER1
 62
     7
  6
CONTINUOUS
 10
10174.9844
 20
14841.7543
  0
VERTEX
  8
LAYER1
 62
     7
  6
CONTINUOUS
 10
9843.9415
 20
14919.0037
  0
VERTEX
  8
LAYER1
 62
     7
  6
CONTINUOUS
 10
9612.2111
 20
15327.2955
  0
VERTEX
  8
LAYER1
 62
     7
  6
CONTINUOUS
 10
9645.3151
 20
15746.6120
  0
VERTEX
  8
LAYER1
 62
     7
  6
CONTINUOUS
 10
9722.5478
 20
16254.2169
  0
VERTEX
  8
LAYER1
 62
     7
  6
CONTINUOUS
 10
9788.7570
 20
16662.4920
  0
VERTEX
  8
LAYER1
 62
     7
  6
CONTINUOUS
 10
9932.2144
 20
17170.0969
  0
VERTEX
  8
LAYER1
 62
     7
  6
CONTINUOUS
 10
10152.9039
 20
17589.4134
  0
VERTEX
  8
LAYER1
 62
     7
  6
CONTINUOUS
 10
10340.5056
 20
17810.1178
  0
VERTEX
  8
LAYER1
 62
     7
  6
CONTINUOUS
 10
10682.5726
 20
17843.2230
  0
VERTEX
  8
LAYER1
 62
     7
  6
CONTINUOUS
 10
11212.2414
 20
17666.6628
  0
VERTEX
  8
LAYER1
 62
     7
  6
CONTINUOUS
 10
11918.4726
 20
17479.0755
  0
VERTEX
  8
LAYER1
 62
     7
  6
CONTINUOUS
 10
12514.3493
 20
17324.5790
  0
VERTEX
  8
LAYER1
 62
     7
  6
CONTINUOUS
 10
12834.3526
 20
17192.1607
  0
VERTEX
  8
LAYER1
 62
     7
  6
CONTINUOUS
 10
12911.6020
 20
17037.6809
  0
VERTEX
  8
LAYER1
 62
     7
  6
CONTINUOUS
 10
12834.3526
 20
16684.5724
  0
VERTEX
  8
LAYER1
 62
     7
  6
CONTINUOUS
 10
12679.8705
 20
16154.9037
  0
VERTEX
  8
LAYER1
 62
     7
  6
CONTINUOUS
 10
12558.4936
 20
15636.2598
  0
VERTEX
  8
LAYER1
 62
     7
  6
CONTINUOUS
 10
12392.9724
 20
15194.8795
  0
VERTEX
  8
LAYER1
 62
     7
  6
CONTINUOUS
 10
12238.4759
 20
14952.1089
  0
VERTEX
  8
LAYER1
 62
     7
  6
CONTINUOUS
 10
12106.0576
 20
14841.7543
  0
VERTEX
  8
LAYER1
 62
     7
  6
CONTINUOUS
 10
11741.9124
 20
14731.4188
  0
VERTEX
  8
LAYER1
 62
     7
  6
CONTINUOUS
 10
11366.7402
 20
14720.3774
  0
VERTEX
  8
LAYER1
 62
     7
  6
CONTINUOUS
 10
10814.9910
 20
14764.5216
  0
VERTEX
  8
LAYER1
 62
     7
  6
CONTINUOUS
 10
10174.9844
 20
14841.7543
  0
VERTEX
  8
LAYER1
 62
     7
  6
CONTINUOUS
 10
9843.9415
 20
14919.0037
  0
VERTEX
  8
LAYER1
 62
     7
  6
CONTINUOUS
 10
9612.2111
 20
15327.2955
  0
SEQEND
  8
LAYER1
  0
POLYLINE
  8
LAYER1
 62
     7
 66
     1
  6
CENTER
  0
VERTEX
  8
LAYER1
 62
     7
  6
CENTER
 10
11388.8039
 20
11906.5127
  0
VERTEX
  8
LAYER1
 62
     7
  6
CENTER
 10
11388.8039
 20
11906.5127
  0
VERTEX
  8
LAYER1
 62
     7
  6
CENTER
 10
10848.0938
 20
11851.3437
  0
VERTEX
  8
LAYER1
 62
     7
  6
CENTER
 10
10130.8402
 20
11729.9501
  0
VERTEX
  8
LAYER1
 62
     7
  6
CENTER
 10
9512.8979
 20
11641.6783
  0
VERTEX
  8
LAYER1
 62
     7
  6
CENTER
 10
8784.6029
 20
11465.1158
  0
VERTEX
  8
LAYER1
 62
     7
  6
CENTER
 10
8034.2285
 20
11100.9682
  0
VERTEX
  8
LAYER1
 62
     7
  6
CENTER
 10
7526.6391
 20
10637.5075
  0
VERTEX
  8
LAYER1
 62
     7
  6
CENTER
 10
7019.0354
 20
9975.4216
  0
VERTEX
  8
LAYER1
 62
     7
  6
CENTER
 10
6610.7436
 20
9357.4800
  0
VERTEX
  8
LAYER1
 62
     7
  6
CENTER
 10
6323.8443
 20
8485.7275
  0
VERTEX
  8
LAYER1
 62
     7
  6
CENTER
 10
6423.1575
 20
7327.0769
  0
VERTEX
  8
LAYER1
 62
     7
  6
CENTER
 10
6699.0321
 20
6510.5089
  0
VERTEX
  8
LAYER1
 62
     7
  6
CENTER
 10
7052.1394
 20
5782.2139
  0
VERTEX
  8
LAYER1
 62
     7
  6
CENTER
 10
7692.1615
 20
5075.9838
  0
VERTEX
  8
LAYER1
 62
     7
  6
CENTER
 10
8497.6893
 20
4413.8979
  0
VERTEX
  8
LAYER1
 62
     7
  6
CENTER
 10
9413.5847
 20
4215.2718
  0
VERTEX
  8
LAYER1
 62
     7
  6
CENTER
 10
10439.8187
 20
4270.4563
  0
VERTEX
  8
LAYER1
 62
     7
  6
CENTER
 10
11267.4270
 20
4391.8332
  0
VERTEX
  8
LAYER1
 62
     7
  6
CENTER
 10
12503.3103
 20
4612.5234
  0
VERTEX
  8
LAYER1
 62
     7
  6
CENTER
 10
13562.6477
 20
4888.3979
  0
VERTEX
  8
LAYER1
 62
     7
  6
CENTER
 10
14147.5020
 20
5197.3762
  0
VERTEX
  8
LAYER1
 62
     7
  6
CENTER
 10
14677.1707
 20
5693.9409
  0
VERTEX
  8
LAYER1
 62
     7
  6
CENTER
 10
15074.4211
 20
6300.8435
  0
VERTEX
  8
LAYER1
 62
     7
  6
CENTER
 10
15361.3216
 20
6996.0334
  0
VERTEX
  8
LAYER1
 62
     7
  6
CENTER
 10
15460.6324
 20
7956.0588
  0
VERTEX
  8
LAYER1
 62
     7
  6
CENTER
 10
15570.9870
 20
8894.0193
  0
VERTEX
  8
LAYER1
 62
     7
  6
CENTER
 10
15526.8427
 20
9423.6880
  0
VERTEX
  8
LAYER1
 62
     7
  6
CENTER
 10
15217.8642
 20
10052.6699
  0
VERTEX
  8
LAYER1
 62
     7
  6
CENTER
 10
14577.8576
 20
10725.7960
  0
VERTEX
  8
LAYER1
 62
     7
  6
CENTER
 10
14092.3164
 20
11100.9682
  0
VERTEX
  8
LAYER1
 62
     7
  6
CENTER
 10
13452.3098
 20
11387.8830
  0
VERTEX
  8
LAYER1
 62
     7
  6
CENTER
 10
12768.1446
 20
11564.4289
  0
VERTEX
  8
LAYER1
 62
     7
  6
CENTER
 10
12095.0328
 20
11740.9891
  0
VERTEX
  8
LAYER1
 62
     7
  6
CENTER
 10
11388.8039
 20
11906.5127
  0
SEQEND
  8
LAYER1
  0
POLYLINE
  8
LAYER1
 62
     1
 66
     1
  6
CONTINUOUS
  0
VERTEX
  8
LAYER1
 62
     1
  6
CONTINUOUS
 10
8784.6029
 20
9732.6677
  0
VERTEX
  8
LAYER1
 62
     1
  6
CONTINUOUS
 10
8552.8737
 20
9865.0849
  0
VERTEX
  8
LAYER1
 62
     1
  6
CONTINUOUS
 10
8166.6457
 20
10019.5659
  0
VERTEX
  8
LAYER1
 62
     1
  6
CONTINUOUS
 10
7813.5384
 20
10118.8790
  0
VERTEX
  8
LAYER1
 62
     1
  6
CONTINUOUS
 10
7526.6391
 20
10107.8388
  0
VERTEX
  8
LAYER1
 62
     1
  6
CONTINUOUS
 10
7449.3909
 20
9986.4619
  0
VERTEX
  8
LAYER1
 62
     1
  6
CONTINUOUS
 10
7526.6391
 20
9523.0012
  0
VERTEX
  8
LAYER1
 62
     1
  6
CONTINUOUS
 10
7603.8730
 20
9158.8536
  0
VERTEX
  8
LAYER1
 62
     1
  6
CONTINUOUS
 10
7670.0810
 20
8728.4981
  0
VERTEX
  8
LAYER1
 62
     1
  6
CONTINUOUS
 10
7725.2655
 20
8397.4546
  0
VERTEX
  8
LAYER1
 62
     1
  6
CONTINUOUS
 10
8045.2688
 20
8165.7242
  0
VERTEX
  8
LAYER1
 62
     1
  6
CONTINUOUS
 10
8387.3513
 20
8110.5564
  0
VERTEX
  8
LAYER1
 62
     1
  6
CONTINUOUS
 10
8608.0415
 20
8176.7644
  0
VERTEX
  8
LAYER1
 62
     1
  6
CONTINUOUS
 10
8905.9810
 20
8485.7275
  0
VERTEX
  8
LAYER1
 62
     1
  6
CONTINUOUS
 10
9060.4620
 20
8827.8113
  0
VERTEX
  8
LAYER1
 62
     1
  6
CONTINUOUS
 10
9137.7102
 20
9059.5404
  0
VERTEX
  8
LAYER1
 62
     1
  6
CONTINUOUS
 10
9060.4620
 20
9302.3110
  0
VERTEX
  8
LAYER1
 62
     1
  6
CONTINUOUS
 10
8950.1252
 20
9445.7529
  0
VERTEX
  8
LAYER1
 62
     1
  6
CONTINUOUS
 10
8784.6029
 20
9732.6677
  0
SEQEND
  8
LAYER1
  0
POLYLINE
  8
LAYER1
 62
     1
 66
     1
  6
CONTINUOUS
  0
VERTEX
  8
LAYER1
 62
     1
  6
CONTINUOUS
 10
12095.0328
 20
11740.9891
  0
VERTEX
  8
LAYER1
 62
     1
  6
CONTINUOUS
 10
11885.3675
 20
11851.3437
  0
VERTEX
  8
LAYER1
 62
     1
  6
CONTINUOUS
 10
12017.7858
 20
11619.6122
  0
VERTEX
  8
LAYER1
 62
     1
  6
CONTINUOUS
 10
12150.2018
 20
11509.2600
  0
VERTEX
  8
LAYER1
 62
     1
  6
CONTINUOUS
 10
12348.8282
 20
11454.0910
  0
VERTEX
  8
LAYER1
 62
     1
  6
CONTINUOUS
 10
12492.2856
 20
11476.1548
  0
VERTEX
  8
LAYER1
 62
     1
  6
CONTINUOUS
 10
12646.7677
 20
11575.4680
  0
VERTEX
  8
LAYER1
 62
     1
  6
CONTINUOUS
 10
12757.1199
 20
11685.8226
  0
VERTEX
  8
LAYER1
 62
     1
  6
CONTINUOUS
 10
12757.1199
 20
11685.8226
  0
SEQEND
  8
LAYER1
  0
POLYLINE
  8
LAYER1
 62
     1
 66
     1
  6
CONTINUOUS
  0
VERTEX
  8
LAYER1
 62
     1
  6
CONTINUOUS
 10
14092.3164
 20
11100.9682
  0
VERTEX
  8
LAYER1
 62
     1
  6
CONTINUOUS
 10
13772.3131
 20
11376.8416
  0
VERTEX
  8
LAYER1
 62
     1
  6
CONTINUOUS
 10
13661.9609
 20
11233.3866
  0
VERTEX
  8
LAYER1
 62
     1
  6
CONTINUOUS
 10
13584.7282
 20
10990.6303
  0
VERTEX
  8
LAYER1
 62
     1
  6
CONTINUOUS
 10
13606.7919
 20
10747.8597
  0
VERTEX
  8
LAYER1
 62
     1
  6
CONTINUOUS
 10
13684.0413
 20
10505.0915
  0
VERTEX
  8
LAYER1
 62
     1
  6
CONTINUOUS
 10
13772.3131
 20
10416.8174
  0
VERTEX
  8
LAYER1
 62
     1
  6
CONTINUOUS
 10
13915.7705
 20
10471.9863
  0
VERTEX
  8
LAYER1
 62
     1
  6
CONTINUOUS
 10
14081.2917
 20
10582.3386
  0
VERTEX
  8
LAYER1
 62
     1
  6
CONTINUOUS
 10
14213.7100
 20
10692.6932
  0
VERTEX
  8
LAYER1
 62
     1
  6
CONTINUOUS
 10
14577.8576
 20
10725.7960
  0
SEQEND
  8
LAYER1
  0
POLYLINE
  8
LAYER1
 62
     1
 66
     1
  6
CONTINUOUS
  0
VERTEX
  8
LAYER1
 62
     1
  6
CONTINUOUS
 10
13562.6477
 20
10196.1273
  0
VERTEX
  8
LAYER1
 62
     1
  6
CONTINUOUS
 10
13264.7082
 20
10185.0882
  0
VERTEX
  8
LAYER1
 62
     1
  6
CONTINUOUS
 10
13010.9152
 20
10085.7750
  0
VERTEX
  8
LAYER1
 62
     1
  6
CONTINUOUS
 10
12613.6625
 20
9843.0045
  0
VERTEX
  8
LAYER1
 62
     1
  6
CONTINUOUS
 10
12359.8672
 20
9633.3546
  0
VERTEX
  8
LAYER1
 62
     1
  6
CONTINUOUS
 10
11940.5364
 20
9368.5202
  0
VERTEX
  8
LAYER1
 62
     1
  6
CONTINUOUS
 10
11841.2232
 20
9202.9978
  0
VERTEX
  8
LAYER1
 62
     1
  6
CONTINUOUS
 10
12050.8886
 20
8849.8751
  0
VERTEX
  8
LAYER1
 62
     1
  6
CONTINUOUS
 10
12337.7891
 20
8562.9769
  0
VERTEX
  8
LAYER1
 62
     1
  6
CONTINUOUS
 10
12448.1413
 20
8220.8932
  0
VERTEX
  8
LAYER1
 62
     1
  6
CONTINUOUS
 10
12536.4131
 20
7967.0990
  0
VERTEX
  8
LAYER1
 62
     1
  6
CONTINUOUS
 10
12690.9119
 20
7691.2245
  0
VERTEX
  8
LAYER1
 62
     1
  6
CONTINUOUS
 10
12922.6411
 20
7481.5746
  0
VERTEX
  8
LAYER1
 62
     1
  6
CONTINUOUS
 10
13330.9185
 20
7602.9515
  0
VERTEX
  8
LAYER1
 62
     1
  6
CONTINUOUS
 10
13529.5425
 20
7812.6169
  0
VERTEX
  8
LAYER1
 62
     1
  6
CONTINUOUS
 10
13860.5872
 20
7967.0990
  0
VERTEX
  8
LAYER1
 62
     1
  6
CONTINUOUS
 10
14081.2917
 20
8110.5564
  0
VERTEX
  8
LAYER1
 62
     1
  6
CONTINUOUS
 10
14092.3164
 20
8518.8315
  0
VERTEX
  8
LAYER1
 62
     1
  6
CONTINUOUS
 10
14026.1084
 20
8860.9153
  0
VERTEX
  8
LAYER1
 62
     1
  6
CONTINUOUS
 10
13993.0032
 20
9202.9978
  0
VERTEX
  8
LAYER1
 62
     1
  6
CONTINUOUS
 10
14004.0446
 20
9445.7529
  0
VERTEX
  8
LAYER1
 62
     1
  6
CONTINUOUS
 10
13959.9004
 20
9578.1701
  0
VERTEX
  8
LAYER1
 62
     1
  6
CONTINUOUS
 10
13838.5211
 20
9655.4183
  0
VERTEX
  8
LAYER1
 62
     1
  6
CONTINUOUS
 10
13750.2493
 20
9765.7717
  0
VERTEX
  8
LAYER1
 62
     1
  6
CONTINUOUS
 10
13562.6477
 20
10196.1273
  0
SEQEND
  8
LAYER1
  0
POLYLINE
  8
LAYER1
 62
     1
 66
     1
  6
CONTINUOUS
  0
VERTEX
  8
LAYER1
 62
     1
  6
CONTINUOUS
 10
11918.4726
 20
4711.8365
  0
VERTEX
  8
LAYER1
 62
     1
  6
CONTINUOUS
 10
11973.6416
 20
4722.8768
  0
VERTEX
  8
LAYER1
 62
     1
  6
CONTINUOUS
 10
12183.3070
 20
4943.5669
  0
VERTEX
  8
LAYER1
 62
     1
  6
CONTINUOUS
 10
12293.6592
 20
5175.2970
  0
VERTEX
  8
LAYER1
 62
     1
  6
CONTINUOUS
 10
12359.8672
 20
5517.3795
  0
VERTEX
  8
LAYER1
 62
     1
  6
CONTINUOUS
 10
12381.9333
 20
5848.4231
  0
VERTEX
  8
LAYER1
 62
     1
  6
CONTINUOUS
 10
12392.9724
 20
6234.6344
  0
VERTEX
  8
LAYER1
 62
     1
  6
CONTINUOUS
 10
12304.6839
 20
6477.4049
  0
VERTEX
  8
LAYER1
 62
     1
  6
CONTINUOUS
 10
12106.0576
 20
6676.0301
  0
VERTEX
  8
LAYER1
 62
     1
  6
CONTINUOUS
 10
11819.1595
 20
6775.3433
  0
VERTEX
  8
LAYER1
 62
     1
  6
CONTINUOUS
 10
11521.2199
 20
6742.2393
  0
VERTEX
  8
LAYER1
 62
     1
  6
CONTINUOUS
 10
11245.3465
 20
6620.8623
  0
VERTEX
  8
LAYER1
 62
     1
  6
CONTINUOUS
 10
11068.8006
 20
6444.3009
  0
VERTEX
  8
LAYER1
 62
     1
  6
CONTINUOUS
 10
11068.8006
 20
6091.1936
  0
VERTEX
  8
LAYER1
 62
     1
  6
CONTINUOUS
 10
11278.4517
 20
5859.4633
  0
VERTEX
  8
LAYER1
 62
     1
  6
CONTINUOUS
 10
11488.1171
 20
5528.4197
  0
VERTEX
  8
LAYER1
 62
     1
  6
CONTINUOUS
 10
11598.4693
 20
5285.6492
  0
VERTEX
  8
LAYER1
 62
     1
  6
CONTINUOUS
 10
11653.6383
 20
5042.8798
  0
VERTEX
  8
LAYER1
 62
     1
  6
CONTINUOUS
 10
11719.8463
 20
4899.4382
  0
VERTEX
  8
LAYER1
 62
     1
  6
CONTINUOUS
 10
11918.4726
 20
4711.8365
  0
SEQEND
  8
LAYER1
  0
POLYLINE
  8
LAYER1
 62
     7
 66
     1
  6
CONTINUOUS
  0
VERTEX
  8
LAYER1
 62
     7
  6
CONTINUOUS
 10
14070.2526
 20
-1313.1476
  0
VERTEX
  8
LAYER1
 62
     7
  6
CONTINUOUS
 10
16828.9507
 20
-1313.1476
  0
SEQEND
  8
LAYER1
  0
POLYLINE
  8
LAYER1
 62
     7
 66
     1
  6
CONTINUOUS
  0
VERTEX
  8
LAYER1
 62
     7
  6
CONTINUOUS
 10
16828.9507
 20
-1313.1476
  0
VERTEX
  8
LAYER1
 62
     7
  6
CONTINUOUS
 10
16828.9507
 20
-1015.8335
  0
SEQEND
  8
LAYER1
  0
POLYLINE
  8
LAYER1
 62
     7
 66
     1
  6
CONTINUOUS
  0
VERTEX
  8
LAYER1
 62
     7
  6
CONTINUOUS
 10
14070.2526
 20
-1018.6910
  0
VERTEX
  8
LAYER1
 62
     7
  6
CONTINUOUS
 10
14070.2526
 20
-1313.1476
  0
SEQEND
  8
LAYER1
  0
POLYLINE
  8
LAYER1
 62
     7
 66
     1
  6
CONTINUOUS
  0
VERTEX
  8
LAYER1
 62
     7
  6
CONTINUOUS
 10
16828.9507
 20
-1313.1476
  0
VERTEX
  8
LAYER1
 62
     7
  6
CONTINUOUS
 10
14070.2526
 20
-1313.1476
  0
SEQEND
  8
LAYER1
  0
POLYLINE
  8
LAYER1
 62
     7
 66
     1
  6
CONTINUOUS
  0
VERTEX
  8
LAYER1
 62
     7
  6
CONTINUOUS
 10
376.1087
 20
6962.9294
  0
VERTEX
  8
LAYER1
 62
     7
  6
CONTINUOUS
 10
376.1087
 20
4237.3523
  0
SEQEND
  8
LAYER1
  0
POLYLINE
  8
LAYER1
 62
     7
 66
     1
  6
CONTINUOUS
  0
VERTEX
  8
LAYER1
 62
     7
  6
CONTINUOUS
 10
376.1087
 20
4237.3523
  0
VERTEX
  8
LAYER1
 62
     7
  6
CONTINUOUS
 10
376.1087
 20
6962.9294
  0
SEQEND
  8
LAYER1
  0
POLYLINE
  8
LAYER1
 62
     7
 66
     1
  6
CONTINUOUS
  0
VERTEX
  8
LAYER1
 62
     7
  6
CONTINUOUS
 10
376.1087
 20
6962.9294
  0
VERTEX
  8
LAYER1
 62
     7
  6
CONTINUOUS
 10
189.4280
 20
6424.2196
  0
SEQEND
  8
LAYER1
  0
ENDSEC
  0
EOF
